<svg width="160" height="50" viewBox="0 0 160 50" fill="none" xmlns="http://www.w3.org/2000/svg">
<path d="M23.31 21.2747C23.6817 21.0463 24.0283 20.7795 24.3439 20.4785C24.4054 20.4194 24.4631 20.3603 24.5215 20.3011C24.7424 20.0769 24.946 19.8364 25.1308 19.5817C25.3188 19.3228 25.4804 19.0458 25.6131 18.7548C25.798 18.3579 25.9115 17.9317 25.9485 17.4956C26.0631 16.0069 25.1792 14.5265 23.2085 13.3326L15.2731 8.5293L6.02231 17.3758L0 23.1343L8.35385 28.1941C9.69166 29.0116 11.2283 29.4476 12.7969 29.4548C14.7139 29.4548 16.5508 28.7791 17.9062 27.4823C19.38 26.0726 19.8692 24.2484 18.96 22.732C18.8119 22.486 18.6364 22.2576 18.4369 22.0509C18.9239 22.1593 19.4211 22.2146 19.92 22.216H19.9331C20.7488 22.2174 21.5575 22.0667 22.3177 21.7715C22.6626 21.6357 22.9947 21.4695 23.31 21.2747ZM15.5723 25.8661C14.0862 27.2873 11.6954 27.4969 9.74923 26.3191L3.97 22.818L9.15769 17.8542L15.0362 21.416C17.1546 22.7005 17.0377 24.4687 15.5723 25.8692V25.8661ZM16.26 19.5541L10.8254 16.2641L15.7792 11.5237L21.1154 14.7569C23.1108 15.9646 23.37 17.6016 21.9269 18.9798C21.1785 19.6865 20.2169 20.1263 19.1919 20.2307C18.1669 20.3352 17.1361 20.0983 16.26 19.5571V19.5541ZM18.5569 34.1422C17.0515 35.5818 15.0054 36.3749 12.7969 36.3749C11.0561 36.3679 9.3505 35.8849 7.86539 34.9783L0 30.2203V32.1144L8.35385 37.175C9.69166 37.9925 11.2283 38.4285 12.7969 38.4357C14.7139 38.4357 16.5508 37.7593 17.9062 36.4632C18.8969 35.5158 19.4446 34.3802 19.42 33.2776V33.1402C19.1662 33.5037 18.8771 33.8414 18.5569 34.1483V34.1422ZM18.5569 31.1478C17.0515 32.5882 15.0054 33.3813 12.7969 33.3813C11.0561 33.3743 9.3505 32.8912 7.86539 31.9847L0 27.2266V29.1216L8.35385 34.1821C9.69172 34.9994 11.2284 35.4351 12.7969 35.4421C14.7139 35.4421 16.5508 34.7664 17.9062 33.4704C18.8969 32.5221 19.4446 31.3873 19.42 30.284V30.1466C19.1666 30.5104 18.8775 30.8481 18.5569 31.1547V31.1478ZM18.5569 28.1534C17.0515 29.5938 15.0054 30.3869 12.7969 30.3869C11.0561 30.3799 9.3505 29.8968 7.86539 28.9903L0 24.2338V26.1287L8.35385 31.1892C9.69172 32.0065 11.2284 32.4423 12.7969 32.4492C14.7139 32.4492 16.5508 31.7735 17.9062 30.4767C18.8969 29.5293 19.4446 28.3945 19.42 27.2911V27.1514C19.1666 27.5159 18.8775 27.8544 18.5569 28.1618V28.1534ZM24.9946 30.1297C23.7391 31.3233 22.0963 32.0278 20.3646 32.1152V34.1737C21.8533 34.091 23.2639 33.4822 24.3439 32.4561C25.4208 31.4288 25.9708 30.2978 25.9592 29.1822V29.0133C25.6767 29.4199 25.3535 29.7968 24.9946 30.1381V30.1297ZM18.5569 37.1327C17.0515 38.5724 15.0054 39.3663 12.7969 39.3663C11.056 39.3593 9.3503 38.876 7.86539 37.9689L0 33.2131V35.1073L8.35385 40.1678C9.69166 40.9854 11.2283 41.4214 12.7969 41.4286C14.7139 41.4286 16.5508 40.7521 17.9062 39.4561C18.8969 38.5086 19.4446 37.3731 19.42 36.2705V36.1331C19.1664 36.4967 18.8773 36.8344 18.5569 37.1412V37.1327ZM25.1531 20.9929C25.1008 21.0459 25.0492 21.0989 24.9946 21.1503C24.4828 21.6284 23.9074 22.0337 23.2846 22.355C22.6483 22.6754 21.9682 22.9008 21.2662 23.0237C20.9065 23.0903 20.5425 23.1306 20.1769 23.1443C20.2154 23.2679 20.2462 23.3938 20.2731 23.5205C20.3373 23.8233 20.3664 24.1324 20.36 24.4419V25.1905H20.3639C21.0332 25.1504 21.6923 25.0072 22.3177 24.7659C23.0719 24.4714 23.7612 24.0327 24.3469 23.4744C24.4092 23.4153 24.4631 23.3547 24.5215 23.2948C24.7424 23.0702 24.946 22.8295 25.1308 22.5746C25.3192 22.3154 25.4813 22.0381 25.6146 21.7469C25.799 21.3489 25.9115 20.9216 25.9469 20.4846C25.9539 20.3902 25.9623 20.295 25.9615 20.2006V20.047C25.9062 20.1238 25.8477 20.2052 25.7877 20.2842C25.5916 20.5365 25.3796 20.776 25.1531 21.0014V20.9929ZM25.1531 26.9756C25.1008 27.0293 25.0531 27.0838 24.9992 27.1368C23.7439 28.3306 22.1009 29.0349 20.3692 29.1216V31.1793C21.8578 31.0963 23.2683 30.4875 24.3485 29.4617C24.8775 28.9721 25.3078 28.386 25.6162 27.7349C25.8004 27.3369 25.9129 26.9096 25.9485 26.4727C25.9554 26.3775 25.9639 26.2823 25.9631 26.1878V26.0189C25.9062 26.1018 25.85 26.1847 25.7885 26.2661C25.5915 26.519 25.3783 26.7589 25.15 26.984L25.1531 26.9756ZM25.1531 23.9812C25.1008 24.0349 25.0531 24.0894 24.9992 24.1424C24.7438 24.3837 24.4707 24.6057 24.1823 24.8066C23.8975 25.0071 23.5986 25.1867 23.2877 25.344C22.3795 25.8033 21.3858 26.0695 20.3692 26.1256H20.3654V28.1733C21.854 28.0905 23.2646 27.4817 24.3446 26.4558C24.4069 26.3967 24.4608 26.336 24.5192 26.2761C24.7401 26.0516 24.9437 25.8108 25.1285 25.5559C25.3167 25.2969 25.4788 25.0199 25.6123 24.729C25.7967 24.3308 25.9092 23.9032 25.9446 23.466C25.9515 23.3715 25.96 23.2763 25.9592 23.1819V23.013C25.9023 23.0959 25.8462 23.1788 25.7846 23.2602C25.589 23.5172 25.377 23.7613 25.15 23.9912L25.1531 23.9812ZM43.6915 17.1601C44.0987 17.1601 44.5369 17.1644 45.0062 17.1731C45.4754 17.1818 45.94 17.2074 46.4 17.2499C46.8329 17.2896 47.2629 17.3555 47.6877 17.4472C48.0484 17.5207 48.3943 17.6541 48.7108 17.8419C49.3456 18.2261 49.8857 18.748 50.2908 19.369C50.719 20.0252 50.9331 20.8278 50.9331 21.7768C50.9331 22.777 50.6898 23.6416 50.2031 24.3704C49.7164 25.0993 49.0215 25.6391 48.1185 25.9897V26.0419C49.2867 26.2887 50.1808 26.8154 50.8008 27.6221C51.4208 28.4288 51.7305 29.4115 51.73 30.5704C51.7302 31.2545 51.6042 31.9327 51.3585 32.5713C51.1137 33.2156 50.7384 33.8026 50.2562 34.2957C49.7411 34.8154 49.1273 35.2273 48.4508 35.5073C47.7328 35.8144 46.9051 35.968 45.9677 35.968H36.8085V17.1701L43.6915 17.1601ZM44.3839 25.2427C45.8198 25.2427 46.8508 24.9924 47.4769 24.4918C48.1031 23.9912 48.4174 23.241 48.42 22.2414C48.42 21.5759 48.3139 21.0492 48.1016 20.6612C47.8994 20.2864 47.5955 19.9761 47.2246 19.766C46.8245 19.55 46.3856 19.4148 45.9331 19.3683C45.4178 19.3051 44.8991 19.2744 44.38 19.2761H39.3339V25.2526L44.3839 25.2427ZM45.6585 33.8519C46.7733 33.8519 47.6451 33.5535 48.2739 32.9567C48.9026 32.3599 49.2144 31.537 49.2092 30.4882C49.2092 29.874 49.0944 29.3652 48.8646 28.9619C48.6449 28.5697 48.3299 28.2392 47.9485 28.0006C47.5447 27.7547 47.0991 27.585 46.6339 27.5C46.1268 27.4029 45.6117 27.3546 45.0954 27.3556H39.3308V33.8589L45.6585 33.8519ZM66.7962 35.905C66.4059 36.1328 65.8659 36.247 65.1762 36.2475C64.5916 36.2475 64.1269 36.0852 63.7823 35.7607C63.4377 35.4362 63.2649 34.9051 63.2639 34.1675C62.6888 34.8723 61.9444 35.4203 61.1 35.7607C59.6833 36.296 58.1378 36.3924 56.6654 36.0371C56.1445 35.9136 55.6528 35.6898 55.2177 35.3783C54.8025 35.0759 54.4672 34.6772 54.2408 34.2167C54.0023 33.7345 53.8828 33.151 53.8823 32.4661C53.8823 31.6937 54.0151 31.0618 54.2808 30.5704C54.5322 30.095 54.8915 29.6848 55.33 29.3726C55.782 29.0567 56.2849 28.8206 56.8169 28.6747C57.3749 28.5171 57.9459 28.3855 58.53 28.2801C59.1495 28.1572 59.7392 28.0651 60.2992 28.0037C60.7965 27.9533 61.2892 27.8653 61.7731 27.7403C62.1985 27.6267 62.5339 27.4601 62.7823 27.2405C63.0308 27.0209 63.1539 26.703 63.1539 26.2792C63.1539 25.7878 63.061 25.3929 62.8754 25.0945C62.7007 24.8074 62.4535 24.5712 62.1585 24.4096C61.8519 24.2476 61.5191 24.1408 61.1754 24.094C60.8188 24.0424 60.4588 24.0167 60.0985 24.0173C59.1431 24.0173 58.3464 24.1964 57.7085 24.5547C57.0705 24.913 56.7249 25.593 56.6716 26.5947H54.4146C54.45 25.7522 54.6269 25.0415 54.9454 24.4626C55.2511 23.8979 55.6883 23.4147 56.22 23.0537C56.7732 22.685 57.39 22.4218 58.0392 22.2774C58.7581 22.1159 59.4932 22.0371 60.23 22.0425C60.8478 22.0426 61.4647 22.0867 62.0762 22.1746C62.6574 22.2524 63.2198 22.4345 63.7362 22.712C64.2294 22.9801 64.6424 23.3741 64.9331 23.8537C65.2341 24.3436 65.3846 24.9834 65.3846 25.7732V32.7601C65.3846 33.2853 65.4157 33.6705 65.4777 33.9157C65.5398 34.1609 65.7477 34.2834 66.1016 34.2834C66.3359 34.2781 66.5686 34.2428 66.7939 34.1783L66.7962 35.905ZM63.1316 28.9281C62.8477 29.1385 62.4762 29.2905 62.0162 29.3888C61.5562 29.487 61.0731 29.563 60.5685 29.6245C60.0639 29.6859 59.5554 29.7558 59.0415 29.8341C58.5658 29.9014 58.1005 30.0289 57.6569 30.2134C57.2675 30.3749 56.9252 30.6319 56.6615 30.9604C56.4051 31.2839 56.2769 31.7249 56.2769 32.2833C56.2664 32.608 56.3446 32.9294 56.5031 33.2131C56.6475 33.4602 56.8474 33.6704 57.0869 33.8274C57.3424 33.9916 57.6262 34.1072 57.9239 34.1683C58.2552 34.2394 58.5934 34.2744 58.9323 34.2727C59.6759 34.2727 60.3133 34.1724 60.8446 33.9717C61.3222 33.8021 61.7635 33.5442 62.1454 33.2116C62.4604 32.9344 62.7138 32.5944 62.8892 32.2135C63.0388 31.8976 63.1203 31.5539 63.1285 31.2046L63.1316 28.9281ZM77.0923 24.7298C76.5257 24.2563 75.7644 24.0193 74.8085 24.0188C73.9936 24.0188 73.3121 24.168 72.7639 24.4664C72.2346 24.7472 71.783 25.1542 71.4492 25.6511C71.1108 26.1686 70.8721 26.7446 70.7454 27.3495C70.6026 28.0022 70.5314 28.6685 70.5331 29.3365C70.5319 29.9577 70.6076 30.5766 70.7585 31.1793C70.8966 31.7475 71.1349 32.2867 71.4623 32.7717C71.783 33.2389 72.2111 33.6228 72.7108 33.8911C73.2236 34.1721 73.8344 34.3124 74.5431 34.3119C75.6585 34.3119 76.5303 34.0224 77.1585 33.4435C77.7867 32.8646 78.1713 32.0484 78.3123 30.995H80.62C80.3723 32.6795 79.7395 33.9784 78.7216 34.8915C77.7036 35.8047 76.319 36.261 74.5677 36.2605C73.5231 36.2605 72.5982 36.0937 71.7931 35.7599C71.0202 35.4475 70.3307 34.9599 69.7792 34.3357C69.2245 33.6949 68.8086 32.9465 68.5577 32.1375C68.2741 31.2311 68.1342 30.286 68.1431 29.3365C68.136 28.3699 68.2702 27.4075 68.5415 26.4796C68.7851 25.6345 69.1961 24.8469 69.75 24.1631C70.2983 23.4963 70.9925 22.9639 71.7793 22.6068C72.5951 22.2306 73.5439 22.0425 74.6254 22.0425C75.3647 22.0374 76.1014 22.1304 76.8162 22.3189C77.4667 22.4885 78.0795 22.7789 78.6223 23.175C79.1491 23.566 79.5877 24.063 79.91 24.6338C80.2459 25.2219 80.4585 25.9196 80.5477 26.7268H78.2108C78.0313 25.8669 77.6585 25.2012 77.0923 24.7298ZM85.5362 17.1739V28.3069L91.8031 22.3573H94.8308L89.3869 27.3065L95.2292 35.9688H92.3608L87.6608 28.8597L85.5362 30.8084V35.9688H83.2793V17.1701L85.5362 17.1739ZM98.6546 32.9306C98.8613 33.2676 99.1487 33.548 99.4908 33.7468C99.8534 33.9554 100.248 34.1022 100.659 34.1813C101.101 34.27 101.55 34.314 102.001 34.3126C102.374 34.3118 102.747 34.2861 103.116 34.2358C103.487 34.1886 103.849 34.091 104.193 33.9456C104.511 33.8132 104.79 33.6017 105.003 33.3314C105.215 33.0591 105.322 32.7123 105.322 32.291C105.322 31.7121 105.1 31.2734 104.658 30.975C104.147 30.6464 103.586 30.4019 102.998 30.251C102.334 30.0667 101.613 29.8999 100.834 29.7504C100.093 29.6128 99.3677 29.4011 98.6693 29.1185C98.0352 28.8653 97.4676 28.4705 97.01 27.9645C96.5669 27.4731 96.3457 26.7885 96.3462 25.9106C96.3462 25.2258 96.5 24.6371 96.8077 24.1447C97.1102 23.6604 97.5186 23.2506 98.0023 22.9462C98.5103 22.6306 99.0663 22.3996 99.6485 22.2621C100.245 22.1161 100.857 22.0423 101.472 22.0425C102.194 22.0369 102.916 22.1032 103.625 22.2406C104.243 22.3571 104.834 22.5892 105.365 22.9247C105.874 23.2536 106.29 23.7069 106.573 24.2415C106.874 24.7943 107.051 25.483 107.105 26.3076H104.847C104.812 25.8689 104.697 25.5047 104.502 25.215C104.311 24.929 104.056 24.6906 103.758 24.5179C103.449 24.3384 103.113 24.2088 102.763 24.134C102.401 24.0555 102.031 24.0159 101.661 24.0157C101.319 24.0153 100.977 24.0409 100.638 24.0925C100.313 24.1397 99.9951 24.2327 99.6954 24.3689C99.4266 24.4881 99.1895 24.6685 99.0031 24.8956C98.8257 25.1152 98.7369 25.4003 98.7369 25.7509C98.7323 25.9314 98.7667 26.1107 98.8378 26.2766C98.909 26.4425 99.0152 26.5911 99.1493 26.7122C99.456 26.9865 99.8117 27.2009 100.198 27.3441C100.663 27.5228 101.143 27.6635 101.632 27.7649C102.163 27.8795 102.695 27.998 103.225 28.1204C103.79 28.2432 104.343 28.3924 104.885 28.568C105.394 28.7296 105.877 28.9653 106.318 29.2674C106.73 29.5534 107.075 29.9264 107.327 30.36C107.583 30.7992 107.712 31.3433 107.712 31.9923C107.712 32.818 107.539 33.5026 107.194 34.0462C106.853 34.5857 106.389 35.0367 105.839 35.3622C105.257 35.7048 104.619 35.9412 103.954 36.0601C103.267 36.1904 102.569 36.2565 101.869 36.2575C101.137 36.2606 100.406 36.181 99.6916 36.0202C99.0365 35.8785 98.4139 35.6152 97.8562 35.244C97.3219 34.8804 96.8844 34.3923 96.5816 33.822C96.2631 33.2339 96.0862 32.5185 96.0508 31.676H98.3077C98.3114 32.1161 98.431 32.5475 98.6546 32.9268V32.9306ZM116.075 22.3604V24.3351H113.339V32.7824C113.334 32.9951 113.356 33.2075 113.406 33.4143C113.444 33.5632 113.533 33.6938 113.658 33.7828C113.814 33.8815 113.992 33.9403 114.176 33.9541C114.463 33.9834 114.751 33.9965 115.039 33.9932H116.075V35.968H114.348C113.846 35.9746 113.344 35.9348 112.848 35.849C112.481 35.7918 112.134 35.6425 111.839 35.4152C111.565 35.1788 111.367 34.8676 111.268 34.5199C111.144 34.134 111.082 33.6249 111.082 32.9928V24.3313H108.745V22.3565H111.082V18.2757H113.339V22.3565L116.075 22.3604ZM130.733 35.915C130.343 36.1428 129.803 36.2569 129.113 36.2575C128.528 36.2575 128.064 36.0952 127.719 35.7707C127.375 35.4461 127.202 34.9151 127.201 34.1775C126.626 34.8822 125.881 35.4303 125.037 35.7707C123.62 36.306 122.075 36.4024 120.602 36.0471C120.081 35.9236 119.59 35.6998 119.155 35.3883C118.741 35.0822 118.408 34.68 118.185 34.2167C117.947 33.7345 117.827 33.151 117.827 32.4661C117.827 31.6937 117.96 31.0618 118.225 30.5704C118.477 30.095 118.836 29.6848 119.275 29.3726C119.727 29.0567 120.23 28.8206 120.762 28.6747C121.32 28.5171 121.891 28.3855 122.475 28.2801C123.094 28.1572 123.683 28.0651 124.244 28.0037C124.741 27.9533 125.234 27.8653 125.718 27.7403C126.143 27.6267 126.478 27.4601 126.727 27.2405C126.975 27.0209 127.098 26.703 127.098 26.2792C127.098 25.7878 127.006 25.3929 126.82 25.0945C126.645 24.8074 126.398 24.5712 126.103 24.4096C125.797 24.2476 125.464 24.1408 125.12 24.094C124.763 24.0424 124.403 24.0167 124.043 24.0173C123.088 24.0173 122.291 24.1964 121.653 24.5547C121.015 24.913 120.67 25.593 120.618 26.5947H118.361C118.395 25.7522 118.572 25.0415 118.892 24.4626C119.197 23.8981 119.633 23.415 120.164 23.0537C120.717 22.685 121.334 22.4218 121.983 22.2774C122.702 22.1152 123.437 22.0356 124.174 22.0402C124.792 22.0403 125.409 22.0844 126.02 22.1722C126.601 22.2501 127.164 22.4322 127.68 22.7097C128.173 22.9785 128.585 23.3731 128.875 23.853C129.176 24.3428 129.326 24.9826 129.326 25.7724V32.7594C129.326 33.2845 129.357 33.6697 129.419 33.9149C129.481 34.1601 129.689 34.2827 130.043 34.2827C130.277 34.2774 130.51 34.242 130.735 34.1775L130.733 35.915ZM127.068 28.9381C126.785 29.1484 126.413 29.3005 125.953 29.3987C125.493 29.497 125.01 29.573 124.505 29.6345C124.001 29.6959 123.492 29.7657 122.978 29.8441C122.504 29.9117 122.04 30.0392 121.598 30.2233C121.208 30.3849 120.866 30.6419 120.602 30.9704C120.346 31.2939 120.218 31.7349 120.218 32.2933C120.207 32.618 120.285 32.9394 120.444 33.2231C120.588 33.4701 120.788 33.6804 121.028 33.8374C121.283 34.0016 121.567 34.1172 121.865 34.1783C122.196 34.2494 122.534 34.2844 122.873 34.2827C123.617 34.2827 124.255 34.1824 124.785 33.9817C125.263 33.8121 125.704 33.5542 126.086 33.2216C126.401 32.9444 126.655 32.6044 126.83 32.2235C126.98 31.9076 127.061 31.5639 127.069 31.2146L127.068 28.9381ZM143.134 39.8116C142.108 40.9172 140.497 41.47 138.301 41.47C137.645 41.4681 136.991 41.3976 136.349 41.2596C135.714 41.1302 135.104 40.8989 134.543 40.5748C134.01 40.266 133.553 39.8436 133.202 39.3378C132.848 38.826 132.653 38.2028 132.618 37.4683H134.875C134.882 37.8445 135.018 38.207 135.26 38.4956C135.504 38.7795 135.802 39.012 136.137 39.1797C136.493 39.3597 136.873 39.4889 137.265 39.5636C137.65 39.6406 138.041 39.6804 138.434 39.6826C139.177 39.6826 139.805 39.5546 140.319 39.2987C140.822 39.0524 141.259 38.6906 141.594 38.243C141.946 37.7592 142.195 37.2079 142.324 36.6237C142.48 35.9415 142.556 35.2435 142.55 34.5437V33.6508H142.496C142.107 34.4933 141.517 35.1122 140.727 35.5073C139.949 35.8996 139.089 36.1024 138.217 36.0993C137.191 36.0993 136.297 35.915 135.535 35.5465C134.798 35.1956 134.146 34.688 133.625 34.0593C133.1 33.4139 132.708 32.6713 132.472 31.8741C132.211 31.0161 132.082 30.124 132.087 29.2275C132.091 28.3884 132.198 27.553 132.405 26.7399C132.611 25.907 132.972 25.1207 133.472 24.4227C133.988 23.7108 134.66 23.1256 135.437 22.7112C136.251 22.2634 137.251 22.0394 138.437 22.0394C139.268 22.0308 140.089 22.2254 140.827 22.6061C141.554 22.9851 142.147 23.5776 142.526 24.3036H142.553V22.3565H144.677V34.8094C144.675 37.0386 144.161 38.7059 143.134 39.8116ZM140.252 33.6907C140.764 33.3938 141.197 32.9782 141.514 32.4791C141.842 31.9565 142.08 31.3827 142.218 30.7815C142.367 30.1606 142.442 29.5243 142.443 28.8858C142.443 28.2908 142.372 27.6979 142.231 27.1199C142.098 26.5624 141.869 26.0323 141.554 25.5536C141.245 25.0905 140.831 24.7071 140.345 24.4349C139.85 24.1539 139.248 24.0134 138.54 24.0134C137.814 24.0134 137.194 24.1496 136.681 24.4219C136.18 24.6823 135.748 25.0565 135.419 25.5145C135.083 25.991 134.839 26.5269 134.702 27.0938C134.55 27.7054 134.475 28.3333 134.477 28.9634C134.477 29.5823 134.54 30.1996 134.663 30.8061C134.777 31.3959 134.992 31.9615 135.3 32.4776C135.595 32.9719 136.005 33.3876 136.495 33.6892C136.991 33.9963 137.61 34.1499 138.354 34.1499C139.097 34.1499 139.73 33.9968 140.252 33.6907ZM157.791 35.0988C156.765 35.8712 155.473 36.2575 153.913 36.2575C152.816 36.2575 151.864 36.0819 151.059 35.7307C150.279 35.3984 149.584 34.8944 149.027 34.2566C148.464 33.5952 148.045 32.8241 147.796 31.9923C147.514 31.0607 147.359 30.0954 147.335 29.1223C147.324 28.1546 147.485 27.1926 147.812 26.2815C148.109 25.4548 148.562 24.6932 149.148 24.0388C149.719 23.4102 150.416 22.908 151.193 22.5646C152.008 22.2098 152.89 22.0318 153.779 22.0425C155.001 22.0425 156.014 22.2928 156.82 22.7934C157.604 23.273 158.267 23.926 158.758 24.7021C159.246 25.4764 159.588 26.3326 159.768 27.2289C159.949 28.0868 160.024 28.9634 159.993 29.8395H149.716C149.696 30.4133 149.767 30.9866 149.928 31.5378C150.081 32.0607 150.343 32.5452 150.698 32.959C151.071 33.3847 151.535 33.7211 152.056 33.9433C152.605 34.19 153.251 34.3129 153.995 34.3119C154.951 34.3119 155.734 34.0925 156.345 33.6539C156.955 33.2152 157.358 32.5482 157.553 31.653H159.784C159.482 33.1799 158.818 34.3285 157.792 35.0988H157.791ZM157.246 26.3583C157.054 25.8994 156.775 25.4822 156.423 25.1298C155.853 24.5899 155.138 24.2257 154.366 24.0809C153.593 23.9362 152.795 24.017 152.068 24.3136C151.613 24.5059 151.202 24.7882 150.859 25.1436C150.52 25.4989 150.25 25.9139 150.063 26.3675C149.866 26.8407 149.749 27.3433 149.718 27.8547H157.605C157.571 27.3393 157.451 26.8333 157.248 26.3583H157.246ZM23.31 21.2747C23.6817 21.0463 24.0283 20.7795 24.3439 20.4785C24.4054 20.4194 24.4631 20.3603 24.5215 20.3011C24.7424 20.0769 24.946 19.8364 25.1308 19.5817C25.3188 19.3228 25.4804 19.0458 25.6131 18.7548C25.798 18.3579 25.9115 17.9317 25.9485 17.4956C26.0631 16.0069 25.1792 14.5265 23.2085 13.3326L15.2731 8.5293L6.02231 17.3758L0 23.1343L8.35385 28.1941C9.69166 29.0116 11.2283 29.4476 12.7969 29.4548C14.7139 29.4548 16.5508 28.7791 17.9062 27.4823C19.38 26.0726 19.8692 24.2484 18.96 22.732C18.8119 22.486 18.6364 22.2576 18.4369 22.0509C18.9239 22.1593 19.4211 22.2146 19.92 22.216H19.9331C20.7488 22.2174 21.5575 22.0667 22.3177 21.7715C22.6626 21.6357 22.9947 21.4695 23.31 21.2747ZM15.5723 25.8661C14.0862 27.2873 11.6954 27.4969 9.74923 26.3191L3.97 22.818L9.15769 17.8542L15.0362 21.416C17.1546 22.7005 17.0377 24.4687 15.5723 25.8692V25.8661ZM16.26 19.5541L10.8254 16.2641L15.7792 11.5237L21.1154 14.7569C23.1108 15.9646 23.37 17.6016 21.9269 18.9798C21.1785 19.6865 20.2169 20.1263 19.1919 20.2307C18.1669 20.3352 17.1361 20.0983 16.26 19.5571V19.5541ZM18.5569 34.1422C17.0515 35.5818 15.0054 36.3749 12.7969 36.3749C11.0561 36.3679 9.3505 35.8849 7.86539 34.9783L0 30.2203V32.1144L8.35385 37.175C9.69166 37.9925 11.2283 38.4285 12.7969 38.4357C14.7139 38.4357 16.5508 37.7593 17.9062 36.4632C18.8969 35.5158 19.4446 34.3802 19.42 33.2776V33.1402C19.1662 33.5037 18.8771 33.8414 18.5569 34.1483V34.1422ZM18.5569 31.1478C17.0515 32.5882 15.0054 33.3813 12.7969 33.3813C11.0561 33.3743 9.3505 32.8912 7.86539 31.9847L0 27.2266V29.1216L8.35385 34.1821C9.69172 34.9994 11.2284 35.4351 12.7969 35.4421C14.7139 35.4421 16.5508 34.7664 17.9062 33.4704C18.8969 32.5221 19.4446 31.3873 19.42 30.284V30.1466C19.1666 30.5104 18.8775 30.8481 18.5569 31.1547V31.1478ZM18.5569 28.1534C17.0515 29.5938 15.0054 30.3869 12.7969 30.3869C11.0561 30.3799 9.3505 29.8968 7.86539 28.9903L0 24.2338V26.1287L8.35385 31.1892C9.69172 32.0065 11.2284 32.4423 12.7969 32.4492C14.7139 32.4492 16.5508 31.7735 17.9062 30.4767C18.8969 29.5293 19.4446 28.3945 19.42 27.2911V27.1514C19.1666 27.5159 18.8775 27.8544 18.5569 28.1618V28.1534ZM24.9946 30.1297C23.7391 31.3233 22.0963 32.0278 20.3646 32.1152V34.1737C21.8533 34.091 23.2639 33.4822 24.3439 32.4561C25.4208 31.4288 25.9708 30.2978 25.9592 29.1822V29.0133C25.6767 29.4199 25.3535 29.7968 24.9946 30.1381V30.1297ZM18.5569 37.1327C17.0515 38.5724 15.0054 39.3663 12.7969 39.3663C11.056 39.3593 9.3503 38.876 7.86539 37.9689L0 33.2131V35.1073L8.35385 40.1678C9.69166 40.9854 11.2283 41.4214 12.7969 41.4286C14.7139 41.4286 16.5508 40.7521 17.9062 39.4561C18.8969 38.5086 19.4446 37.3731 19.42 36.2705V36.1331C19.1664 36.4967 18.8773 36.8344 18.5569 37.1412V37.1327ZM25.1531 20.9929C25.1008 21.0459 25.0492 21.0989 24.9946 21.1503C24.4828 21.6284 23.9074 22.0337 23.2846 22.355C22.6483 22.6754 21.9682 22.9008 21.2662 23.0237C20.9065 23.0903 20.5425 23.1306 20.1769 23.1443C20.2154 23.2679 20.2462 23.3938 20.2731 23.5205C20.3373 23.8233 20.3664 24.1324 20.36 24.4419V25.1905H20.3639C21.0332 25.1504 21.6923 25.0072 22.3177 24.7659C23.0719 24.4714 23.7612 24.0327 24.3469 23.4744C24.4092 23.4153 24.4631 23.3547 24.5215 23.2948C24.7424 23.0702 24.946 22.8295 25.1308 22.5746C25.3192 22.3154 25.4813 22.0381 25.6146 21.7469C25.799 21.3489 25.9115 20.9216 25.9469 20.4846C25.9539 20.3902 25.9623 20.295 25.9615 20.2006V20.047C25.9062 20.1238 25.8477 20.2052 25.7877 20.2842C25.5916 20.5365 25.3796 20.776 25.1531 21.0014V20.9929ZM25.1531 26.9756C25.1008 27.0293 25.0531 27.0838 24.9992 27.1368C23.7439 28.3306 22.1009 29.0349 20.3692 29.1216V31.1793C21.8578 31.0963 23.2683 30.4875 24.3485 29.4617C24.8775 28.9721 25.3078 28.386 25.6162 27.7349C25.8004 27.3369 25.9129 26.9096 25.9485 26.4727C25.9554 26.3775 25.9639 26.2823 25.9631 26.1878V26.0189C25.9062 26.1018 25.85 26.1847 25.7885 26.2661C25.5915 26.519 25.3783 26.7589 25.15 26.984L25.1531 26.9756ZM25.1531 23.9812C25.1008 24.0349 25.0531 24.0894 24.9992 24.1424C24.7438 24.3837 24.4707 24.6057 24.1823 24.8066C23.8975 25.0071 23.5986 25.1867 23.2877 25.344C22.3795 25.8033 21.3858 26.0695 20.3692 26.1256H20.3654V28.1733C21.854 28.0905 23.2646 27.4817 24.3446 26.4558C24.4069 26.3967 24.4608 26.336 24.5192 26.2761C24.7401 26.0516 24.9437 25.8108 25.1285 25.5559C25.3167 25.2969 25.4788 25.0199 25.6123 24.729C25.7967 24.3308 25.9092 23.9032 25.9446 23.466C25.9515 23.3715 25.96 23.2763 25.9592 23.1819V23.013C25.9023 23.0959 25.8462 23.1788 25.7846 23.2602C25.589 23.5172 25.377 23.7613 25.15 23.9912L25.1531 23.9812Z" fill="#121212"/>
</svg>
