<svg width="150" height="28" viewBox="0 0 150 28" fill="none" xmlns="http://www.w3.org/2000/svg">
<g clip-path="url(#clip0_5435_1301)">
<path d="M0 0.152344H10.9969C13.0915 0.152344 14.6625 0.676006 15.8262 1.54878C17.1063 2.5961 17.8045 4.1089 17.8045 5.97081C17.8045 8.12364 16.9317 9.46189 15.1862 10.2765V10.3928C17.5136 11.1492 18.8518 13.2439 18.8518 15.7458C18.8518 18.1314 17.9209 19.9933 16.4081 21.157C15.128 22.088 13.4988 22.4952 11.2878 22.4952H0V0.152344ZM9.89139 8.88004C11.0551 8.88004 11.9279 8.24001 11.9279 6.90176C11.9279 5.6217 11.0551 4.98167 9.8332 4.98167H6.0512V8.82186H9.89139V8.88004ZM10.415 17.5496C11.7533 17.5496 12.7424 16.735 12.7424 15.2804C12.7424 13.7094 11.6951 13.0111 10.415 13.0111H6.10939V17.6077H10.415V17.5496Z" fill="black"/>
<path d="M19.8418 0.152344H25.6021V22.5534H19.8418V0.152344Z" fill="black"/>
<path d="M26.7656 14.5813C26.7656 9.51924 30.024 6.14453 35.086 6.14453C40.1481 6.14453 43.3482 9.57742 43.3482 14.5813C43.3482 19.6434 40.1481 23.0181 35.086 23.0181C30.024 23.0181 26.7656 19.6434 26.7656 14.5813ZM37.588 14.5813C37.588 11.7884 36.7152 10.0429 34.9697 10.0429C33.2241 10.0429 32.4095 11.7884 32.4095 14.5813C32.4095 17.3742 33.2241 19.1779 34.9697 19.1779C36.7152 19.1197 37.588 17.3742 37.588 14.5813Z" fill="black"/>
<path d="M43.9883 14.5813C43.9883 9.51924 47.2466 6.14453 52.3087 6.14453C57.3707 6.14453 60.5127 9.51924 60.5127 14.5813C60.5127 19.6434 57.3126 23.0181 52.2505 23.0181C47.2466 23.0181 43.9883 19.6434 43.9883 14.5813ZM54.8106 14.5813C54.8106 11.7884 53.9378 10.0429 52.1923 10.0429C50.4468 10.0429 49.6322 11.7884 49.6322 14.5813C49.6322 17.3742 50.4468 19.1779 52.1923 19.1779C53.9378 19.1197 54.8106 17.3742 54.8106 14.5813Z" fill="black"/>
<path d="M61.6758 6.55337H67.0288V8.93894H67.1451C68.1925 7.07703 69.6471 6.08789 71.9745 6.08789C74.0109 6.08789 75.5237 7.07703 76.2801 8.82257H76.3965C77.6766 6.72792 79.3639 6.08789 81.3422 6.08789C85.066 6.08789 86.637 8.82257 86.637 12.4882V22.496H81.0513V13.4773C81.0513 11.8482 80.5276 10.8008 79.1312 10.8008C77.7347 10.8008 77.0365 12.0809 77.0365 13.8264V22.496H71.4508V13.4773C71.4508 11.8482 70.9271 10.8008 69.5307 10.8008C68.1343 10.8008 67.4361 12.0809 67.4361 13.8264V22.496H61.6758V6.55337Z" fill="black"/>
<path d="M93.6768 20.4006H93.6186V22.4952H88.2656V0.152344H93.8513V8.18182H93.9677C95.015 6.78539 96.4696 6.02899 98.5061 6.02899C102.521 6.02899 104.848 9.63644 104.848 14.4658C104.848 19.8769 102.346 23.0189 98.157 23.0189C96.4115 23.0189 94.6077 22.2043 93.6768 20.4006ZM99.088 14.4076C99.088 11.8475 98.157 10.1601 96.4696 10.1601C94.7241 10.1601 93.6768 11.8475 93.6768 14.4076C93.6768 16.9677 94.7823 18.6551 96.4696 18.6551C98.157 18.6551 99.088 17.0259 99.088 14.4076Z" fill="black"/>
<path d="M105.488 14.5247C105.488 9.52078 108.805 6.08789 113.576 6.08789C115.962 6.08789 117.765 6.84429 119.162 8.18254C121.024 9.98626 121.838 12.7791 121.78 16.0375H111.074C111.307 18.0157 112.238 19.0631 113.925 19.0631C114.914 19.0631 115.787 18.5976 116.136 17.5503H121.547C120.616 21.2159 117.765 23.0196 113.751 23.0196C108.805 22.9614 105.488 19.5867 105.488 14.5247ZM111.074 12.8373H116.194C116.078 10.9172 115.031 9.92808 113.692 9.92808C112.121 9.86989 111.249 10.9754 111.074 12.8373Z" fill="black"/>
<path d="M128.123 9.28691H128.239C129.403 7.07589 130.915 6.20312 132.835 6.20312C133.301 6.20312 133.592 6.26131 133.766 6.37768V11.2652H133.65C130.334 10.6833 128.413 12.2543 128.413 15.8618V22.553H122.77V6.55223H128.123V9.28691Z" fill="black"/>
<path d="M134.348 22.5537H139.759C139.991 23.2519 140.69 23.892 142.028 23.892C143.832 23.892 144.472 22.7865 144.472 21.0991V19.9354H144.355C143.483 20.9827 142.261 21.7391 140.515 21.7391C137.082 21.7391 134.057 19.179 134.057 14.1751C134.057 9.57856 136.5 6.0293 140.224 6.0293C142.377 6.0293 143.657 6.90207 144.53 8.24031H144.646V6.49477H149.999V20.3427C149.999 22.9028 149.126 24.8811 147.788 26.0448C146.392 27.2667 144.414 27.7904 142.144 27.7904C137.839 27.8485 134.871 26.103 134.348 22.5537ZM144.704 13.9424C144.704 11.9641 143.773 10.335 142.144 10.335C140.573 10.335 139.584 11.7314 139.584 13.9424C139.584 16.0952 140.573 17.608 142.144 17.608C143.715 17.608 144.704 16.0371 144.704 13.9424Z" fill="black"/>
</g>
<defs>
<clipPath id="clip0_5435_1301">
<rect width="150" height="27.6959" fill="white" transform="translate(0 0.152344)"/>
</clipPath>
</defs>
</svg>
