<svg width="160" height="48" viewBox="0 0 160 48" fill="none" xmlns="http://www.w3.org/2000/svg">
<path d="M65.5703 19.0628H68.9278C69.4316 19.059 69.9347 19.1047 70.4297 19.1991C70.8473 19.2765 71.249 19.4232 71.6184 19.6329C71.9473 19.8228 72.2192 20.0975 72.4056 20.4283C72.6035 20.804 72.7003 21.2247 72.6867 21.6491C72.6877 22.1495 72.5334 22.6377 72.245 23.0466C71.9164 23.4978 71.4332 23.8124 70.8875 23.9302V23.9944C71.5403 24.0715 72.1512 24.3559 72.6305 24.8057C72.8374 25.0314 72.9973 25.2961 73.1007 25.5843C73.2041 25.8725 73.2491 26.1784 73.2328 26.4842C73.2446 26.9575 73.1398 27.4264 72.9278 27.8497C72.7261 28.2328 72.4372 28.5631 72.0844 28.8138C71.6984 29.0828 71.265 29.2763 70.8071 29.384C70.2812 29.511 69.7417 29.5729 69.2007 29.5684H65.5703V19.0628ZM68.7671 23.4159C69.5061 23.4159 70.0389 23.2821 70.3654 23.0144C70.5299 22.8753 70.6597 22.6998 70.7448 22.5018C70.8298 22.3039 70.8677 22.0889 70.8554 21.8738C70.8717 21.6696 70.8325 21.4648 70.742 21.281C70.6516 21.0973 70.5131 20.9414 70.3414 20.8298C69.8658 20.5852 69.3329 20.4742 68.7993 20.5085H67.4337V23.4162L68.7671 23.4159ZM69.008 28.1227C69.6324 28.1609 70.2539 28.0098 70.7912 27.6891C71.0007 27.5388 71.1683 27.3373 71.2779 27.1039C71.3876 26.8705 71.4356 26.6129 71.4175 26.3557C71.4328 26.1175 71.3842 25.8796 71.2769 25.6664C71.1696 25.4533 71.0075 25.2726 70.8071 25.1429C70.4001 24.881 69.8004 24.7498 69.008 24.7493H67.4337V28.1227H69.008ZM74.9194 21.6813H76.7666V26.3878C76.7666 27.0412 76.8631 27.5016 77.056 27.769C77.1658 27.908 77.3084 28.0174 77.471 28.0876C77.6336 28.1577 77.8111 28.1863 77.9874 28.1708C78.3088 28.1769 78.6247 28.0876 78.8954 27.9143C79.2193 27.6827 79.504 27.4005 79.7385 27.0787V21.6813H81.5857V29.5684H80.076L79.9313 28.4121H79.8832C79.5661 28.7966 79.1891 29.1274 78.7666 29.3919C78.3367 29.6458 77.8441 29.7739 77.3449 29.7615C76.499 29.7615 75.8832 29.491 75.4977 28.9502C75.1122 28.409 74.9194 27.6351 74.9194 26.6286V21.6813ZM84.863 20.2998C84.563 20.3113 84.2699 20.2079 84.0436 20.0106C83.938 19.9161 83.8545 19.7994 83.7989 19.669C83.7434 19.5385 83.7173 19.3975 83.7223 19.2558C83.7178 19.1129 83.7441 18.9708 83.7996 18.8391C83.855 18.7073 83.9383 18.5891 84.0436 18.4926C84.2734 18.3005 84.5633 18.1953 84.8627 18.1953C85.1622 18.1953 85.4521 18.3005 85.6818 18.4926C85.7872 18.5892 85.8704 18.7074 85.9259 18.8391C85.9814 18.9708 86.0078 19.1129 86.0034 19.2558C86.0083 19.3975 85.9821 19.5385 85.9265 19.6689C85.8709 19.7994 85.7874 19.916 85.6818 20.0106C85.4556 20.2077 85.1628 20.3111 84.863 20.2998ZM83.931 21.6815H85.7782V29.5684H83.931V21.6815ZM88.14 18.2274H89.9872V27.641C89.9703 27.8095 90.0161 27.9782 90.116 28.1149C90.1493 28.1555 90.1908 28.1887 90.2379 28.2123C90.2849 28.2358 90.3364 28.2492 90.3889 28.2515H90.5091C90.5666 28.2478 90.6234 28.237 90.6783 28.2193L90.9191 29.6006C90.6066 29.7195 90.2733 29.7742 89.9391 29.7615C89.2752 29.7615 88.8094 29.5632 88.5417 29.1667C88.2492 28.6781 88.1093 28.1133 88.14 27.5447V18.2274ZM92.0112 25.6332C92.0026 25.0428 92.0978 24.4555 92.2925 23.8981C92.458 23.4215 92.7113 22.9801 93.0393 22.5968C93.3361 22.254 93.6996 21.9752 94.1076 21.7774C94.4952 21.588 94.9208 21.4891 95.3522 21.4882C95.7454 21.4764 96.1359 21.5561 96.4929 21.7212C96.8284 21.8936 97.1413 22.1068 97.4246 22.3559L97.3603 21.0868V18.2274H99.208V29.5684H97.6818L97.5533 28.7174H97.4891C97.1908 29.013 96.8496 29.2621 96.4772 29.4561C96.1014 29.657 95.6819 29.7619 95.2558 29.7615C94.8036 29.7792 94.3535 29.6903 93.942 29.502C93.5305 29.3137 93.169 29.0313 92.8868 28.6775C92.3027 27.9541 92.0109 26.9394 92.0112 25.6332ZM93.9229 25.6168C93.9229 26.474 94.0755 27.1245 94.3805 27.5682C94.5253 27.7842 94.7234 27.9591 94.9556 28.0759C95.1879 28.1928 95.4464 28.2476 95.7061 28.235C96.2947 28.235 96.8461 27.9406 97.3603 27.3516V23.6732C97.124 23.4532 96.849 23.279 96.5493 23.1591C96.2948 23.0642 96.0255 23.0152 95.7539 23.0144C95.499 23.0152 95.2479 23.0769 95.0215 23.1943C94.7952 23.3117 94.6002 23.4814 94.4526 23.6894C94.0997 24.139 93.9231 24.7814 93.9229 25.6168ZM103.401 30.2107V32.6848H101.553V21.6813H103.079L103.208 22.5166H103.272C103.612 22.2329 103.984 21.9902 104.381 21.7936C104.774 21.5936 105.209 21.4891 105.65 21.4885C106.102 21.4797 106.55 21.5759 106.959 21.7696C107.342 21.9596 107.675 22.2374 107.931 22.5806C108.211 22.9617 108.418 23.3922 108.541 23.8497C108.686 24.3891 108.756 24.9459 108.75 25.5044C108.759 26.1185 108.664 26.7298 108.469 27.3119C108.305 27.7991 108.052 28.2514 107.722 28.6451C107.425 28.9931 107.058 29.2748 106.646 29.4718C106.25 29.6623 105.816 29.7613 105.377 29.7615C105.022 29.7587 104.672 29.6821 104.348 29.5363C103.986 29.3737 103.65 29.157 103.352 28.8938L103.401 30.2107ZM103.401 27.5768C103.646 27.7966 103.929 27.9707 104.236 28.0906C104.477 28.182 104.733 28.2309 104.991 28.235C105.249 28.2353 105.504 28.1735 105.733 28.0547C105.962 27.9359 106.159 27.7636 106.308 27.5525C106.662 27.0977 106.838 26.4203 106.838 25.5204C106.874 24.8797 106.735 24.2414 106.437 23.6732C106.301 23.455 106.107 23.2783 105.878 23.1621C105.649 23.046 105.392 22.9949 105.135 23.0144C104.579 23.0144 104 23.309 103.401 23.8981V27.5768ZM110.083 27.4483C110.073 27.0517 110.17 26.6598 110.366 26.3144C110.561 25.9691 110.846 25.6834 111.192 25.488C111.931 25.0276 113.109 24.7066 114.726 24.5249C114.726 24.3266 114.699 24.1292 114.646 23.9383C114.595 23.7577 114.511 23.5886 114.396 23.4402C114.282 23.2937 114.133 23.178 113.963 23.1032C113.751 23.0162 113.524 22.975 113.296 22.9823C112.902 22.9819 112.512 23.0584 112.147 23.2075C111.776 23.3585 111.419 23.5411 111.079 23.7534L110.405 22.5166C110.868 22.2259 111.361 21.9837 111.874 21.7936C112.437 21.5864 113.033 21.483 113.633 21.4885C114.629 21.4885 115.368 21.7802 115.85 22.3635C116.332 22.9476 116.573 23.7912 116.573 24.8945V29.5684H115.063L114.919 28.701H114.87C114.524 28.9966 114.144 29.2501 113.738 29.4561C113.332 29.6605 112.883 29.7651 112.429 29.7615C112.118 29.7745 111.808 29.725 111.517 29.616C111.226 29.507 110.96 29.3406 110.734 29.1267C110.515 28.9073 110.344 28.6448 110.232 28.3558C110.12 28.0669 110.07 27.7579 110.083 27.4483ZM111.882 27.3038C111.869 27.448 111.891 27.5931 111.946 27.7272C112 27.8613 112.086 27.9805 112.196 28.0749C112.432 28.2436 112.717 28.3284 113.007 28.3157C113.316 28.3188 113.62 28.2411 113.89 28.0906C114.195 27.9126 114.475 27.6967 114.726 27.448V25.681C114.27 25.7297 113.818 25.8158 113.377 25.9383C113.07 26.0206 112.776 26.1421 112.501 26.2998C112.306 26.409 112.143 26.5665 112.027 26.7571C111.932 26.9237 111.882 27.1121 111.882 27.3038ZM118.308 25.6332C118.298 25.0339 118.407 24.4385 118.629 23.8819C118.826 23.3933 119.121 22.9504 119.496 22.5806C119.858 22.2287 120.287 21.9529 120.757 21.7696C121.236 21.5817 121.745 21.4863 122.259 21.4882C122.72 21.4775 123.178 21.568 123.601 21.7534C123.958 21.9149 124.287 22.1348 124.573 22.404L123.689 23.5768C123.494 23.4077 123.278 23.2646 123.047 23.151C122.831 23.049 122.595 22.9967 122.356 22.9982C122.059 22.9892 121.763 23.049 121.493 23.173C121.223 23.2971 120.985 23.4819 120.797 23.7131C120.378 24.2623 120.167 24.9429 120.203 25.6332C120.169 26.317 120.376 26.991 120.79 27.5368C120.97 27.7658 121.201 27.9496 121.464 28.0736C121.728 28.1977 122.016 28.2586 122.308 28.2515C122.616 28.2544 122.922 28.1857 123.199 28.0506C123.462 27.9236 123.707 27.7644 123.93 27.5768L124.701 28.7496C124.338 29.0743 123.919 29.33 123.464 29.5042C123.034 29.6721 122.577 29.7593 122.115 29.7615C121.602 29.7655 121.092 29.6729 120.613 29.4885C120.155 29.3118 119.741 29.0378 119.4 28.6853C119.045 28.3119 118.771 27.8688 118.597 27.384C118.396 26.8225 118.298 26.2294 118.308 25.6332H118.308ZM126.243 18.2274H128.058V25.3117H128.107L131.03 21.6813H133.054L130.356 24.8945L133.328 29.5687H131.32L129.295 26.147L128.058 27.5606V29.5687H126.243V18.2274ZM134.709 27.4804C135.031 27.7402 135.384 27.9587 135.761 28.1308C136.118 28.2878 136.504 28.3672 136.894 28.3635C137.231 28.3912 137.567 28.2971 137.841 28.0984C137.94 28.0149 138.019 27.9102 138.072 27.7921C138.124 27.674 138.15 27.5455 138.147 27.4162C138.149 27.2618 138.098 27.1115 138.002 26.9904C137.895 26.8579 137.764 26.7462 137.616 26.6608C137.442 26.5577 137.259 26.469 137.07 26.3956C136.866 26.3151 136.662 26.2322 136.46 26.147C136.202 26.0505 135.94 25.9381 135.673 25.8098C135.414 25.6875 135.174 25.5307 134.958 25.3438C134.75 25.1639 134.577 24.9491 134.444 24.7091C134.304 24.4447 134.235 24.1487 134.243 23.8497C134.234 23.526 134.299 23.2044 134.433 22.9094C134.566 22.6144 134.765 22.3536 135.014 22.1467C135.528 21.7079 136.229 21.4885 137.119 21.4885C137.626 21.4809 138.129 21.5793 138.596 21.7774C139.001 21.9508 139.384 22.172 139.737 22.4364L138.885 23.5606C138.623 23.3668 138.34 23.2026 138.042 23.0708C137.761 22.9483 137.457 22.8854 137.151 22.8862C136.838 22.8602 136.527 22.9486 136.275 23.1351C136.185 23.2109 136.113 23.3056 136.065 23.4126C136.016 23.5195 135.992 23.6359 135.994 23.7534C135.99 23.9019 136.038 24.0471 136.13 24.1634C136.231 24.2839 136.354 24.3846 136.492 24.4604C136.659 24.554 136.834 24.6345 137.014 24.7013C137.212 24.7758 137.418 24.8508 137.632 24.9264C137.9 25.0223 138.168 25.1328 138.436 25.255C138.698 25.3752 138.944 25.5292 139.167 25.7131C139.387 25.8968 139.567 26.1238 139.697 26.38C139.837 26.6728 139.906 26.9948 139.898 27.3195C139.9 27.6489 139.832 27.975 139.697 28.2755C139.561 28.5728 139.36 28.8362 139.11 29.0468C138.826 29.2813 138.498 29.4584 138.147 29.5684C137.721 29.7032 137.276 29.7683 136.829 29.7615C136.276 29.76 135.729 29.6538 135.215 29.4483C134.72 29.2597 134.257 28.9968 133.841 28.6686L134.709 27.4804Z" fill="#242960"/>
<path d="M141.28 28.5086C141.274 28.3431 141.302 28.1781 141.361 28.0235C141.421 27.8689 141.511 27.7279 141.626 27.6088C141.737 27.4935 141.87 27.4025 142.018 27.3417C142.166 27.2808 142.325 27.2513 142.485 27.2551C142.644 27.2508 142.802 27.2801 142.948 27.341C143.095 27.402 143.227 27.4932 143.336 27.6088C143.554 27.8579 143.674 28.1774 143.674 28.5081C143.674 28.8388 143.554 29.1583 143.336 29.4074C143.228 29.5232 143.095 29.6146 142.949 29.6756C142.802 29.7366 142.644 29.7658 142.485 29.7613C142.325 29.7653 142.166 29.7359 142.018 29.675C141.87 29.614 141.736 29.5229 141.626 29.4074C141.511 29.2885 141.421 29.1477 141.361 28.9932C141.302 28.8388 141.274 28.674 141.28 28.5086ZM146.79 20.2997C146.49 20.3112 146.197 20.2077 145.971 20.0105C145.865 19.916 145.782 19.7994 145.726 19.6689C145.671 19.5385 145.644 19.3974 145.649 19.2557C145.645 19.1128 145.671 18.9706 145.727 18.8389C145.782 18.7072 145.866 18.589 145.971 18.4924C146.201 18.3005 146.491 18.1953 146.79 18.1953C147.09 18.1953 147.379 18.3005 147.609 18.4924C147.714 18.5891 147.798 18.7073 147.853 18.839C147.909 18.9707 147.935 19.1128 147.931 19.2557C147.936 19.3973 147.909 19.5384 147.854 19.6688C147.798 19.7992 147.715 19.9159 147.609 20.0105C147.383 20.2077 147.09 20.3111 146.79 20.2997ZM145.859 21.6814H147.706V29.5683H145.859V21.6814ZM149.553 25.6331C149.543 25.0353 149.647 24.441 149.858 23.8818C150.043 23.3965 150.325 22.9539 150.686 22.5805C151.026 22.2333 151.432 21.9578 151.88 21.7702C152.329 21.5825 152.81 21.4866 153.296 21.4881C153.784 21.4873 154.267 21.5829 154.718 21.7694C155.168 21.954 155.576 22.2302 155.914 22.5805C156.271 22.9567 156.552 23.3986 156.742 23.8818C157.159 25.0119 157.159 26.2538 156.742 27.3839C156.552 27.8669 156.271 28.3087 155.914 28.6849C155.577 29.0345 155.169 29.3083 154.718 29.4881C154.266 29.6694 153.783 29.7621 153.296 29.7611C152.811 29.7627 152.331 29.67 151.882 29.4881C151.432 29.3058 151.025 29.0323 150.686 28.6849C150.325 28.3115 150.043 27.869 149.858 27.3839C149.647 26.8249 149.543 26.2308 149.553 25.6331ZM151.448 25.6331C151.415 26.3026 151.586 26.9665 151.939 27.5367C152.084 27.7629 152.285 27.9476 152.523 28.0729C152.761 28.1981 153.027 28.2596 153.296 28.2514C153.566 28.2589 153.833 28.1972 154.072 28.0721C154.311 27.947 154.514 27.7626 154.661 27.5367C155.018 26.9683 155.192 26.3037 155.159 25.6331C155.194 24.9573 155.02 24.2871 154.661 23.7133C154.514 23.4872 154.311 23.3028 154.072 23.1775C153.833 23.0523 153.566 22.9905 153.296 22.9981C153.027 22.9899 152.761 23.0514 152.523 23.1767C152.285 23.302 152.084 23.4868 151.939 23.713C151.585 24.2887 151.414 24.9583 151.448 25.6331Z" fill="#DF0A6B"/>
<path d="M40.1406 30.0402L31.3066 24.9363C31.0624 24.7952 30.7853 24.7209 30.5033 24.7208C30.2213 24.7207 29.9442 24.7949 29.6999 24.9359C29.4557 25.0769 29.2528 25.2797 29.1118 25.5239C28.9707 25.7681 28.8965 26.0452 28.8965 26.3272V36.5385C28.8965 36.8204 28.9706 37.0973 29.1115 37.3415C29.2524 37.5856 29.4551 37.7884 29.6991 37.9294L40.1403 43.9626C40.3846 44.1038 40.6618 44.1781 40.944 44.1781C41.2262 44.1781 41.5034 44.1038 41.7477 43.9626L52.1897 37.9294C52.4337 37.7884 52.6364 37.5856 52.7773 37.3415C52.9182 37.0973 52.9923 36.8204 52.9923 36.5385V26.327C52.9923 26.045 52.9181 25.7679 52.777 25.5237C52.636 25.2795 52.4332 25.0768 52.189 24.9358C51.9447 24.7948 51.6677 24.7207 51.3857 24.7207C51.1037 24.7207 50.8267 24.795 50.5825 24.9361L41.7477 30.0399C41.5034 30.181 41.2263 30.2553 40.9442 30.2553C40.662 30.2553 40.3849 30.1813 40.1406 30.0402Z" fill="#DE156C"/>
<mask id="mask0_5417_2001" style="mask-type:luminance" maskUnits="userSpaceOnUse" x="40" y="24" width="13" height="20">
<path d="M40.9434 31.4316V41.6434C40.9434 41.9254 41.0176 42.2025 41.1586 42.4467C41.2997 42.691 41.5025 42.8938 41.7468 43.0347C41.9911 43.1757 42.2681 43.2499 42.5502 43.2498C42.8322 43.2497 43.1093 43.1754 43.3534 43.0343L52.1885 37.9294C52.4326 37.7884 52.6352 37.5856 52.7761 37.3415C52.917 37.0973 52.9912 36.8204 52.9912 36.5385V26.3272C52.9912 26.0452 52.917 25.7681 52.776 25.5239C52.635 25.2797 52.4321 25.0769 52.1879 24.9359C51.9437 24.7949 51.6666 24.7207 51.3846 24.7207C51.1026 24.7207 50.8255 24.795 50.5813 24.9361L41.746 30.0404C41.5019 30.1815 41.2992 30.3843 41.1583 30.6285C41.0175 30.8727 40.9433 31.1496 40.9434 31.4316Z" fill="white"/>
</mask>
<g mask="url(#mask0_5417_2001)">
<path d="M40.9434 24.7207H52.9914V25.0459H40.9434V24.7207Z" fill="#F12FA5"/>
<path d="M40.9434 25.0469H52.9914V25.3721H40.9434V25.0469Z" fill="#F12FA4"/>
<path d="M40.9434 25.3711H52.9914V25.6963H40.9434V25.3711Z" fill="#F02EA3"/>
<path d="M40.9434 25.6953H52.9914V26.0205H40.9434V25.6953Z" fill="#F02EA2"/>
<path d="M40.9434 26.0215H52.9914V26.3467H40.9434V26.0215Z" fill="#F02DA1"/>
<path d="M40.9434 26.3457H52.9914V26.6709H40.9434V26.3457Z" fill="#EF2DA0"/>
<path d="M40.9434 26.6719H52.9914V26.9971H40.9434V26.6719Z" fill="#EF2C9F"/>
<path d="M40.9434 26.9961H52.9914V27.3213H40.9434V26.9961Z" fill="#EF2C9E"/>
<path d="M40.9434 27.3223H52.9914V27.6475H40.9434V27.3223Z" fill="#EE2B9D"/>
<path d="M40.9434 27.6465H52.9914V27.9717H40.9434V27.6465Z" fill="#EE2B9C"/>
<path d="M40.9434 27.9707H52.9914V28.2959H40.9434V27.9707Z" fill="#EE2A9B"/>
<path d="M40.9434 28.2969H52.9914V28.6221H40.9434V28.2969Z" fill="#ED2A9A"/>
<path d="M40.9434 28.6211H52.9914V28.9463H40.9434V28.6211Z" fill="#ED2999"/>
<path d="M40.9434 28.9473H52.9914V29.2725H40.9434V28.9473Z" fill="#ED2998"/>
<path d="M40.9434 29.2715H52.9914V29.5967H40.9434V29.2715Z" fill="#EC2997"/>
<path d="M40.9434 29.5977H52.9914V29.9228H40.9434V29.5977Z" fill="#EC2896"/>
<path d="M40.9434 29.9219H52.9914V30.2471H40.9434V29.9219Z" fill="#EC2895"/>
<path d="M40.9434 30.248H52.9914V30.5732H40.9434V30.248Z" fill="#EB2794"/>
<path d="M40.9434 30.5723H52.9914V30.8975H40.9434V30.5723Z" fill="#EB2793"/>
<path d="M40.9434 30.8965H52.9914V31.2217H40.9434V30.8965Z" fill="#EB2692"/>
<path d="M40.9434 31.2227H52.9914V31.5478H40.9434V31.2227Z" fill="#EA2691"/>
<path d="M40.9434 31.5469H52.9914V31.8721H40.9434V31.5469Z" fill="#EA2590"/>
<path d="M40.9434 31.873H52.9914V32.1982H40.9434V31.873Z" fill="#EA258F"/>
<path d="M40.9434 32.1973H52.9914V32.5225H40.9434V32.1973Z" fill="#E9248E"/>
<path d="M40.9434 32.5234H52.9914V32.8486H40.9434V32.5234Z" fill="#E9248D"/>
<path d="M40.9434 32.8477H52.9914V33.1728H40.9434V32.8477Z" fill="#E9238C"/>
<path d="M40.9434 33.1719H52.9914V33.4971H40.9434V33.1719Z" fill="#E8238B"/>
<path d="M40.9434 33.498H52.9914V33.8232H40.9434V33.498Z" fill="#E8228A"/>
<path d="M40.9434 33.8223H52.9914V34.1475H40.9434V33.8223Z" fill="#E82289"/>
<path d="M40.9434 34.1484H52.9914V34.4736H40.9434V34.1484Z" fill="#E72287"/>
<path d="M40.9434 34.4727H52.9914V34.7978H40.9434V34.4727Z" fill="#E72186"/>
<path d="M40.9434 34.7988H52.9914V35.124H40.9434V34.7988Z" fill="#E62185"/>
<path d="M40.9434 35.123H52.9914V35.4482H40.9434V35.123Z" fill="#E62084"/>
<path d="M40.9434 35.4473H52.9914V35.7725H40.9434V35.4473Z" fill="#E62083"/>
<path d="M40.9434 35.7734H52.9914V36.0986H40.9434V35.7734Z" fill="#E51F82"/>
<path d="M40.9434 36.0977H52.9914V36.4228H40.9434V36.0977Z" fill="#E51F81"/>
<path d="M40.9434 36.4238H52.9914V36.749H40.9434V36.4238Z" fill="#E51E80"/>
<path d="M40.9434 36.748H52.9914V37.0732H40.9434V36.748Z" fill="#E41E7F"/>
<path d="M40.9434 37.0742H52.9914V37.3994H40.9434V37.0742Z" fill="#E41D7E"/>
<path d="M40.9434 37.3984H52.9914V37.7236H40.9434V37.3984Z" fill="#E41D7D"/>
<path d="M40.9434 37.7246H52.9914V38.0498H40.9434V37.7246Z" fill="#E31C7C"/>
<path d="M40.9434 38.0488H52.9914V38.374H40.9434V38.0488Z" fill="#E31C7B"/>
<path d="M40.9434 38.373H52.9914V38.6982H40.9434V38.373Z" fill="#E31C7A"/>
<path d="M40.9434 38.6992H52.9914V39.0244H40.9434V38.6992Z" fill="#E21B79"/>
<path d="M40.9434 39.0234H52.9914V39.3486H40.9434V39.0234Z" fill="#E21B78"/>
<path d="M40.9434 39.3496H52.9914V39.6748H40.9434V39.3496Z" fill="#E21A77"/>
<path d="M40.9434 39.6738H52.9914V39.999H40.9434V39.6738Z" fill="#E11A76"/>
<path d="M40.9434 40H52.9914V40.3252H40.9434V40Z" fill="#E11975"/>
<path d="M40.9434 40.3242H52.9914V40.6494H40.9434V40.3242Z" fill="#E11974"/>
<path d="M40.9434 40.6484H52.9914V40.9736H40.9434V40.6484Z" fill="#E01873"/>
<path d="M40.9434 40.9746H52.9914V41.2998H40.9434V40.9746Z" fill="#E01872"/>
<path d="M40.9434 41.2988H52.9914V41.624H40.9434V41.2988Z" fill="#E01771"/>
<path d="M40.9434 41.625H52.9914V41.9502H40.9434V41.625Z" fill="#DF1770"/>
<path d="M40.9434 41.9492H52.9914V42.2744H40.9434V41.9492Z" fill="#DF166F"/>
<path d="M40.9434 42.2754H52.9914V42.6006H40.9434V42.2754Z" fill="#DF166E"/>
<path d="M40.9434 42.5996H52.9914V42.9248H40.9434V42.5996Z" fill="#DE156D"/>
<path d="M40.9434 42.9258H52.9914V43.251H40.9434V42.9258Z" fill="#DE156C"/>
</g>
<path d="M37.731 4.05367L28.8972 9.15775C28.6529 9.29889 28.3758 9.37319 28.0936 9.37319C27.8115 9.37319 27.5343 9.29889 27.2901 9.15775L18.455 4.05341C18.2108 3.9123 17.9338 3.83797 17.6517 3.83789C17.3697 3.83781 17.0926 3.91199 16.8484 4.05296C16.6041 4.19393 16.4012 4.39673 16.2602 4.64096C16.1192 4.8852 16.0449 5.16226 16.0449 5.44429V15.6564C16.0449 15.9383 16.1192 16.2152 16.2601 16.4594C16.401 16.7035 16.6037 16.9063 16.8478 17.0473L27.2901 23.0797C27.5344 23.2208 27.8116 23.2952 28.0938 23.2952C28.3759 23.2952 28.6532 23.2208 28.8975 23.0797L39.3381 17.0473C39.5822 16.9063 39.7849 16.7035 39.9259 16.4594C40.0668 16.2152 40.141 15.9383 40.141 15.6564V5.44455C40.1411 5.16252 40.0668 4.88546 39.9258 4.64122C39.7847 4.39699 39.5819 4.19419 39.3376 4.05322C39.0933 3.91225 38.8163 3.83807 38.5342 3.83815C38.2522 3.83823 37.9752 3.91256 37.731 4.05367Z" fill="#47529D"/>
<mask id="mask1_5417_2001" style="mask-type:luminance" maskUnits="userSpaceOnUse" x="28" y="3" width="13" height="20">
<path d="M37.7298 4.05341L28.8945 9.15828C28.6504 9.29931 28.4477 9.50208 28.3069 9.74622C28.166 9.99036 28.0918 10.2673 28.0918 10.5492V20.7607C28.0918 21.0428 28.166 21.3198 28.3071 21.5641C28.4481 21.8083 28.651 22.0111 28.8952 22.1521C29.1395 22.293 29.4166 22.3672 29.6986 22.3671C29.9806 22.3671 30.2577 22.2927 30.5019 22.1516L39.3369 17.0473C39.581 16.9063 39.7837 16.7035 39.9247 16.4594C40.0656 16.2152 40.1398 15.9383 40.1399 15.6564V5.44429C40.1399 5.16226 40.0656 4.8852 39.9246 4.64096C39.7835 4.39673 39.5807 4.19393 39.3364 4.05296C39.0921 3.91199 38.8151 3.83781 38.533 3.83789C38.251 3.83797 37.974 3.9123 37.7298 4.05341Z" fill="white"/>
</mask>
<g mask="url(#mask1_5417_2001)">
<path d="M28.0918 3.83789H40.1399V4.16308H28.0918V3.83789Z" fill="#7E8BCC"/>
<path d="M28.0918 4.16211H40.1399V4.4873H28.0918V4.16211Z" fill="#7D8ACB"/>
<path d="M28.0918 4.48828H40.1399V4.81347H28.0918V4.48828Z" fill="#7C89CA"/>
<path d="M28.0918 4.8125H40.1399V5.13769H28.0918V4.8125Z" fill="#7B88C9"/>
<path d="M28.0918 5.13867H40.1399V5.46386H28.0918V5.13867Z" fill="#7A87C9"/>
<path d="M28.0918 5.46289H40.1399V5.78808H28.0918V5.46289Z" fill="#7986C8"/>
<path d="M28.0918 5.78906H40.1399V6.11425H28.0918V5.78906Z" fill="#7885C7"/>
<path d="M28.0918 6.11328H40.1399V6.43847H28.0918V6.11328Z" fill="#7784C6"/>
<path d="M28.0918 6.4375H40.1399V6.76269H28.0918V6.4375Z" fill="#7683C5"/>
<path d="M28.0918 6.76367H40.1399V7.08886H28.0918V6.76367Z" fill="#7582C4"/>
<path d="M28.0918 7.08789H40.1399V7.41308H28.0918V7.08789Z" fill="#7481C4"/>
<path d="M28.0918 7.41406H40.1399V7.73926H28.0918V7.41406Z" fill="#7380C3"/>
<path d="M28.0918 7.73828H40.1399V8.06347H28.0918V7.73828Z" fill="#727FC2"/>
<path d="M28.0918 8.06445H40.1399V8.38965H28.0918V8.06445Z" fill="#717EC1"/>
<path d="M28.0918 8.38867H40.1399V8.71386H28.0918V8.38867Z" fill="#707DC0"/>
<path d="M28.0918 8.71484H40.1399V9.04004H28.0918V8.71484Z" fill="#6F7CBF"/>
<path d="M28.0918 9.03906H40.1399V9.36426H28.0918V9.03906Z" fill="#6E7BBF"/>
<path d="M28.0918 9.36328H40.1399V9.68847H28.0918V9.36328Z" fill="#6D7ABE"/>
<path d="M28.0918 9.68945H40.1399V10.0146H28.0918V9.68945Z" fill="#6C79BD"/>
<path d="M28.0918 10.0137H40.1399V10.3389H28.0918V10.0137Z" fill="#6B78BC"/>
<path d="M28.0918 10.3398H40.1399V10.665H28.0918V10.3398Z" fill="#6A77BB"/>
<path d="M28.0918 10.6641H40.1399V10.9893H28.0918V10.6641Z" fill="#6976BA"/>
<path d="M28.0918 10.9902H40.1399V11.3154H28.0918V10.9902Z" fill="#6875BA"/>
<path d="M28.0918 11.3145H40.1399V11.6396H28.0918V11.3145Z" fill="#6774B9"/>
<path d="M28.0918 11.6387H40.1399V11.9639H28.0918V11.6387Z" fill="#6673B8"/>
<path d="M28.0918 11.9648H40.1399V12.29H28.0918V11.9648Z" fill="#6572B7"/>
<path d="M28.0918 12.2891H40.1399V12.6143H28.0918V12.2891Z" fill="#6471B6"/>
<path d="M28.0918 12.6152H40.1399V12.9404H28.0918V12.6152Z" fill="#6370B5"/>
<path d="M28.0918 12.9395H40.1399V13.2646H28.0918V12.9395Z" fill="#636FB5"/>
<path d="M28.0918 13.2656H40.1399V13.5908H28.0918V13.2656Z" fill="#626DB4"/>
<path d="M28.0918 13.5898H40.1399V13.915H28.0918V13.5898Z" fill="#616CB3"/>
<path d="M28.0918 13.916H40.1399V14.2412H28.0918V13.916Z" fill="#606BB2"/>
<path d="M28.0918 14.2402H40.1399V14.5654H28.0918V14.2402Z" fill="#5F6AB1"/>
<path d="M28.0918 14.5645H40.1399V14.8896H28.0918V14.5645Z" fill="#5E69B0"/>
<path d="M28.0918 14.8906H40.1399V15.2158H28.0918V14.8906Z" fill="#5D68AF"/>
<path d="M28.0918 15.2148H40.1399V15.54H28.0918V15.2148Z" fill="#5C67AF"/>
<path d="M28.0918 15.541H40.1399V15.8662H28.0918V15.541Z" fill="#5B66AE"/>
<path d="M28.0918 15.8652H40.1399V16.1904H28.0918V15.8652Z" fill="#5A65AD"/>
<path d="M28.0918 16.1914H40.1399V16.5166H28.0918V16.1914Z" fill="#5964AC"/>
<path d="M28.0918 16.5156H40.1399V16.8408H28.0918V16.5156Z" fill="#5863AB"/>
<path d="M28.0918 16.8418H40.1399V17.167H28.0918V16.8418Z" fill="#5762AA"/>
<path d="M28.0918 17.166H40.1399V17.4912H28.0918V17.166Z" fill="#5661AA"/>
<path d="M28.0918 17.4902H40.1399V17.8154H28.0918V17.4902Z" fill="#5560A9"/>
<path d="M28.0918 17.8164H40.1399V18.1416H28.0918V17.8164Z" fill="#545FA8"/>
<path d="M28.0918 18.1406H40.1399V18.4658H28.0918V18.1406Z" fill="#535EA7"/>
<path d="M28.0918 18.4668H40.1399V18.792H28.0918V18.4668Z" fill="#525DA6"/>
<path d="M28.0918 18.791H40.1399V19.1162H28.0918V18.791Z" fill="#515CA5"/>
<path d="M28.0918 19.1172H40.1399V19.4424H28.0918V19.1172Z" fill="#505BA5"/>
<path d="M28.0918 19.4414H40.1399V19.7666H28.0918V19.4414Z" fill="#4F5AA4"/>
<path d="M28.0918 19.7656H40.1399V20.0908H28.0918V19.7656Z" fill="#4E59A3"/>
<path d="M28.0918 20.0918H40.1399V20.417H28.0918V20.0918Z" fill="#4D58A2"/>
<path d="M28.0918 20.416H40.1399V20.7412H28.0918V20.416Z" fill="#4C57A1"/>
<path d="M28.0918 20.7422H40.1399V21.0674H28.0918V20.7422Z" fill="#4B56A0"/>
<path d="M28.0918 21.0664H40.1399V21.3916H28.0918V21.0664Z" fill="#4A55A0"/>
<path d="M28.0918 21.3926H40.1399V21.7178H28.0918V21.3926Z" fill="#49549F"/>
<path d="M28.0918 21.7168H40.1399V22.042H28.0918V21.7168Z" fill="#48539E"/>
<path d="M28.0918 22.043H40.1399V22.3682H28.0918V22.043Z" fill="#47529D"/>
</g>
<path d="M14.4377 30.0403L5.60318 24.9365C5.35899 24.7954 5.08198 24.7212 4.79999 24.7211C4.518 24.7211 4.24096 24.7953 3.99673 24.9362C3.7525 25.0772 3.54968 25.28 3.40866 25.5242C3.26764 25.7684 3.19338 26.0454 3.19336 26.3274V36.5387C3.19335 36.8206 3.26752 37.0975 3.40842 37.3416C3.54931 37.5858 3.75196 37.7885 3.99602 37.9296L14.4377 43.9627C14.682 44.1039 14.9592 44.1782 15.2413 44.1782C15.5234 44.1782 15.8006 44.1039 16.0449 43.9627L26.4866 37.9296C26.7306 37.7885 26.9333 37.5858 27.0742 37.3416C27.2151 37.0975 27.2892 36.8206 27.2892 36.5387V26.3274C27.2893 26.0453 27.2151 25.7682 27.074 25.5239C26.933 25.2797 26.7302 25.0768 26.4859 24.9358C26.2416 24.7948 25.9645 24.7206 25.6825 24.7207C25.4004 24.7208 25.1234 24.7951 24.8791 24.9362L16.0449 30.04C15.8006 30.1812 15.5234 30.2555 15.2413 30.2555C14.9592 30.2555 14.682 30.1814 14.4377 30.0403Z" fill="#252960"/>
<mask id="mask2_5417_2001" style="mask-type:luminance" maskUnits="userSpaceOnUse" x="15" y="24" width="13" height="20">
<path d="M15.2422 31.4317V41.6435C15.2422 41.9256 15.3164 42.2026 15.4575 42.4469C15.5985 42.6911 15.8014 42.8939 16.0456 43.0349C16.2899 43.1758 16.567 43.25 16.849 43.2499C17.131 43.2499 17.4081 43.1755 17.6523 43.0344L26.4876 37.9296C26.7316 37.7885 26.9343 37.5858 27.0752 37.3416C27.2161 37.0975 27.2903 36.8206 27.2902 36.5387V26.3274C27.2903 26.0453 27.2161 25.7682 27.0751 25.5239C26.9341 25.2797 26.7312 25.0768 26.4869 24.9358C26.2426 24.7948 25.9655 24.7206 25.6835 24.7207C25.4014 24.7208 25.1244 24.7951 24.8802 24.9362L16.0451 30.0406C15.801 30.1816 15.5982 30.3844 15.4573 30.6286C15.3163 30.8728 15.2422 31.1498 15.2422 31.4317Z" fill="white"/>
</mask>
<g mask="url(#mask2_5417_2001)">
<path d="M15.2422 24.7207H27.2902V25.0459H15.2422V24.7207Z" fill="#4B5399"/>
<path d="M15.2422 25.0449H27.2902V25.3701H15.2422V25.0449Z" fill="#4A5298"/>
<path d="M15.2422 25.3711H27.2902V25.6963H15.2422V25.3711Z" fill="#4A5297"/>
<path d="M15.2422 25.6953H27.2902V26.0205H15.2422V25.6953Z" fill="#495196"/>
<path d="M15.2422 26.0215H27.2902V26.3467H15.2422V26.0215Z" fill="#485095"/>
<path d="M15.2422 26.3457H27.2902V26.6709H15.2422V26.3457Z" fill="#484F94"/>
<path d="M15.2422 26.6719H27.2902V26.9971H15.2422V26.6719Z" fill="#474F93"/>
<path d="M15.2422 26.9961H27.2902V27.3213H15.2422V26.9961Z" fill="#464E92"/>
<path d="M15.2422 27.3223H27.2902V27.6475H15.2422V27.3223Z" fill="#464D91"/>
<path d="M15.2422 27.6465H27.2902V27.9717H15.2422V27.6465Z" fill="#454C90"/>
<path d="M15.2422 27.9707H27.2902V28.2959H15.2422V27.9707Z" fill="#444C8F"/>
<path d="M15.2422 28.2969H27.2902V28.6221H15.2422V28.2969Z" fill="#444B8E"/>
<path d="M15.2422 28.6211H27.2902V28.9463H15.2422V28.6211Z" fill="#434A8D"/>
<path d="M15.2422 28.9473H27.2902V29.2725H15.2422V28.9473Z" fill="#42498C"/>
<path d="M15.2422 29.2715H27.2902V29.5967H15.2422V29.2715Z" fill="#42498B"/>
<path d="M15.2422 29.5977H27.2902V29.9228H15.2422V29.5977Z" fill="#41488A"/>
<path d="M15.2422 29.9219H27.2902V30.2471H15.2422V29.9219Z" fill="#404789"/>
<path d="M15.2422 30.248H27.2902V30.5732H15.2422V30.248Z" fill="#3F4688"/>
<path d="M15.2422 30.5723H27.2902V30.8975H15.2422V30.5723Z" fill="#3F4687"/>
<path d="M15.2422 30.8965H27.2902V31.2217H15.2422V30.8965Z" fill="#3E4586"/>
<path d="M15.2422 31.2227H27.2902V31.5478H15.2422V31.2227Z" fill="#3D4485"/>
<path d="M15.2422 31.5469H27.2902V31.8721H15.2422V31.5469Z" fill="#3D4384"/>
<path d="M15.2422 31.873H27.2902V32.1982H15.2422V31.873Z" fill="#3C4383"/>
<path d="M15.2422 32.1973H27.2902V32.5225H15.2422V32.1973Z" fill="#3B4282"/>
<path d="M15.2422 32.5234H27.2902V32.8486H15.2422V32.5234Z" fill="#3B4181"/>
<path d="M15.2422 32.8477H27.2902V33.1728H15.2422V32.8477Z" fill="#3A4080"/>
<path d="M15.2422 33.1719H27.2902V33.4971H15.2422V33.1719Z" fill="#39407F"/>
<path d="M15.2422 33.498H27.2902V33.8232H15.2422V33.498Z" fill="#393F7E"/>
<path d="M15.2422 33.8223H27.2902V34.1475H15.2422V33.8223Z" fill="#383E7D"/>
<path d="M15.2422 34.1484H27.2902V34.4736H15.2422V34.1484Z" fill="#373D7B"/>
<path d="M15.2422 34.4727H27.2902V34.7978H15.2422V34.4727Z" fill="#373D7A"/>
<path d="M15.2422 34.7988H27.2902V35.124H15.2422V34.7988Z" fill="#363C79"/>
<path d="M15.2422 35.123H27.2902V35.4482H15.2422V35.123Z" fill="#353B78"/>
<path d="M15.2422 35.4473H27.2902V35.7725H15.2422V35.4473Z" fill="#353A77"/>
<path d="M15.2422 35.7734H27.2902V36.0986H15.2422V35.7734Z" fill="#343A76"/>
<path d="M15.2422 36.0977H27.2902V36.4228H15.2422V36.0977Z" fill="#333975"/>
<path d="M15.2422 36.4238H27.2902V36.749H15.2422V36.4238Z" fill="#333874"/>
<path d="M15.2422 36.748H27.2902V37.0732H15.2422V36.748Z" fill="#323773"/>
<path d="M15.2422 37.0742H27.2902V37.3994H15.2422V37.0742Z" fill="#313772"/>
<path d="M15.2422 37.3984H27.2902V37.7236H15.2422V37.3984Z" fill="#313671"/>
<path d="M15.2422 37.7246H27.2902V38.0498H15.2422V37.7246Z" fill="#303570"/>
<path d="M15.2422 38.0488H27.2902V38.374H15.2422V38.0488Z" fill="#2F346F"/>
<path d="M15.2422 38.373H27.2902V38.6982H15.2422V38.373Z" fill="#2F346E"/>
<path d="M15.2422 38.6992H27.2902V39.0244H15.2422V38.6992Z" fill="#2E336D"/>
<path d="M15.2422 39.0234H27.2902V39.3486H15.2422V39.0234Z" fill="#2D326C"/>
<path d="M15.2422 39.3496H27.2902V39.6748H15.2422V39.3496Z" fill="#2C316B"/>
<path d="M15.2422 39.6738H27.2902V39.999H15.2422V39.6738Z" fill="#2C316A"/>
<path d="M15.2422 40H27.2902V40.3252H15.2422V40Z" fill="#2B3069"/>
<path d="M15.2422 40.3242H27.2902V40.6494H15.2422V40.3242Z" fill="#2A2F68"/>
<path d="M15.2422 40.6484H27.2902V40.9736H15.2422V40.6484Z" fill="#2A2E67"/>
<path d="M15.2422 40.9746H27.2902V41.2998H15.2422V40.9746Z" fill="#292E66"/>
<path d="M15.2422 41.2988H27.2902V41.624H15.2422V41.2988Z" fill="#282D65"/>
<path d="M15.2422 41.625H27.2902V41.9502H15.2422V41.625Z" fill="#282C64"/>
<path d="M15.2422 41.9492H27.2902V42.2744H15.2422V41.9492Z" fill="#272B63"/>
<path d="M15.2422 42.2754H27.2902V42.6006H15.2422V42.2754Z" fill="#262B62"/>
<path d="M15.2422 42.5996H27.2902V42.9248H15.2422V42.5996Z" fill="#262A61"/>
<path d="M15.2422 42.9258H27.2902V43.251H15.2422V42.9258Z" fill="#252960"/>
</g>
</svg>
