<svg width="1199" height="445" viewBox="0 0 1199 445" fill="none" xmlns="http://www.w3.org/2000/svg">
<path d="M8.82109 404.144C6.74509 404.144 5.29309 402.38 5.29309 399.872C5.29309 397.376 6.74509 395.612 8.82109 395.612C10.8731 395.612 12.3251 397.376 12.3251 399.872C12.3251 402.38 10.8731 404.144 8.82109 404.144ZM8.82109 403.028C10.1531 403.028 11.0891 401.72 11.0891 399.872C11.0891 398.024 10.1531 396.728 8.82109 396.728C7.47709 396.728 6.52909 398.024 6.52909 399.872C6.52909 401.72 7.47709 403.028 8.82109 403.028Z" fill="#333333"/>
<path d="M6.47106 332V331.004L9.49506 328.508C10.5991 327.584 11.0191 326.876 11.0191 326.132C11.0191 325.232 10.2751 324.704 9.45906 324.704C8.55906 324.704 7.89906 325.184 7.32306 325.928L6.50706 325.208C7.22706 324.212 8.19906 323.612 9.50706 323.612C11.0431 323.612 12.2671 324.608 12.2671 326.108C12.2671 327.212 11.7391 328.088 10.3231 329.24L8.39106 330.872H12.3391V332H6.47106Z" fill="#333333"/>
<path d="M10.2592 256V254.104H6.16722L6.03522 253.132L10.0312 247.756H11.4712V253.036H12.6592V254.104H11.4712V256H10.2592ZM7.36722 253.036H10.2592V249.136L7.36722 253.036Z" fill="#333333"/>
<path d="M9.66428 174.792C11.1763 174.792 12.4363 175.74 12.4363 177.372C12.4363 178.956 11.1883 180.144 9.44828 180.144C7.15628 180.144 6.19628 178.356 6.19628 176.004C6.19628 173.508 7.67228 171.612 9.67628 171.612C10.6963 171.612 11.4523 171.996 12.0763 172.56L11.4523 173.496C10.9483 173.028 10.4203 172.704 9.66428 172.704C8.41628 172.704 7.48028 174.06 7.43228 175.872C7.93628 175.188 8.76428 174.792 9.66428 174.792ZM9.41228 179.112C10.5283 179.112 11.2003 178.26 11.2003 177.432C11.2003 176.424 10.3843 175.812 9.38828 175.812C8.47628 175.812 7.75628 176.34 7.52828 177.132C7.73228 178.32 8.32028 179.112 9.41228 179.112Z" fill="#333333"/>
<path d="M9.22113 104.144C7.48113 104.144 6.11313 103.244 6.11313 101.828C6.11313 100.808 6.88113 100.076 7.86513 99.74C6.96513 99.38 6.32913 98.756 6.32913 97.82C6.32913 96.416 7.73313 95.612 9.22113 95.612C10.7571 95.612 12.1251 96.452 12.1251 97.82C12.1251 98.804 11.4291 99.416 10.5891 99.74C11.5731 100.088 12.3291 100.82 12.3291 101.828C12.3291 103.256 10.9491 104.144 9.22113 104.144ZM9.22113 99.284C9.97713 99.236 10.9131 98.78 10.9131 97.952C10.9131 97.22 10.1691 96.68 9.22113 96.68C8.27313 96.68 7.54113 97.22 7.54113 97.952C7.54113 98.804 8.48913 99.236 9.22113 99.284ZM9.22113 103.076C10.2771 103.076 11.1051 102.524 11.1051 101.72C11.1051 100.844 10.0371 100.316 9.22113 100.292C8.41713 100.316 7.33713 100.844 7.33713 101.72C7.33713 102.524 8.16513 103.076 9.22113 103.076Z" fill="#333333"/>
<path d="M2.23478 28V21.196L0.806781 22.108L0.302781 21.232L2.47478 19.756H3.44678V28H2.23478ZM8.82109 28.144C6.74509 28.144 5.29309 26.38 5.29309 23.872C5.29309 21.376 6.74509 19.612 8.82109 19.612C10.8731 19.612 12.3251 21.376 12.3251 23.872C12.3251 26.38 10.8731 28.144 8.82109 28.144ZM8.82109 27.028C10.1531 27.028 11.0891 25.72 11.0891 23.872C11.0891 22.024 10.1531 20.728 8.82109 20.728C7.47709 20.728 6.52909 22.024 6.52909 23.872C6.52909 25.72 7.47709 27.028 8.82109 27.028Z" fill="#333333"/>
<path d="M29 404H688" stroke="#CCCCCC"/>
<path d="M29 328H688" stroke="#CCCCCC"/>
<path d="M29 252H688" stroke="#CCCCCC"/>
<path d="M29 176H688" stroke="#CCCCCC"/>
<path d="M29 100H688" stroke="#CCCCCC"/>
<path d="M29 24H688" stroke="#CCCCCC"/>
<path d="M49.8549 441V439.164L54.4089 435.528C55.9749 434.268 56.5329 433.332 56.5329 432.324C56.5329 431.154 55.5429 430.434 54.4269 430.434C53.1309 430.434 52.1949 431.1 51.2949 432.18L49.8369 430.83C51.0069 429.3 52.5009 428.418 54.4989 428.418C56.9469 428.418 58.8189 429.984 58.8189 432.27C58.8189 433.908 58.0629 435.222 55.9389 436.86L53.3469 438.948H58.9449V441H49.8549ZM66.23 441.216C63.044 441.216 60.812 438.57 60.812 434.808C60.812 431.064 63.044 428.418 66.23 428.418C69.398 428.418 71.648 431.064 71.648 434.808C71.648 438.57 69.398 441.216 66.23 441.216ZM66.23 439.164C68.066 439.164 69.344 437.364 69.344 434.808C69.344 432.252 68.066 430.47 66.23 430.47C64.394 430.47 63.098 432.252 63.098 434.808C63.098 437.364 64.394 439.164 66.23 439.164ZM76.005 441V431.226L73.881 432.576L72.981 430.992L76.455 428.634H78.255V441H76.005ZM81.6435 441L86.6835 430.686H80.3655V428.634H89.2935V430.326L84.1995 441H81.6435Z" fill="#2D1762"/>
<path d="M145.09 441V439.164L149.644 435.528C151.21 434.268 151.768 433.332 151.768 432.324C151.768 431.154 150.778 430.434 149.662 430.434C148.366 430.434 147.43 431.1 146.53 432.18L145.072 430.83C146.242 429.3 147.736 428.418 149.734 428.418C152.182 428.418 154.054 429.984 154.054 432.27C154.054 433.908 153.298 435.222 151.174 436.86L148.582 438.948H154.18V441H145.09ZM161.465 441.216C158.279 441.216 156.047 438.57 156.047 434.808C156.047 431.064 158.279 428.418 161.465 428.418C164.633 428.418 166.883 431.064 166.883 434.808C166.883 438.57 164.633 441.216 161.465 441.216ZM161.465 439.164C163.301 439.164 164.579 437.364 164.579 434.808C164.579 432.252 163.301 430.47 161.465 430.47C159.629 430.47 158.333 432.252 158.333 434.808C158.333 437.364 159.629 439.164 161.465 439.164ZM171.24 441V431.226L169.116 432.576L168.216 430.992L171.69 428.634H173.49V441H171.24ZM180.857 441.216C178.175 441.216 176.051 439.902 176.051 437.706C176.051 436.212 177.131 435.132 178.571 434.61C177.293 434.07 176.375 433.152 176.375 431.748C176.375 429.624 178.535 428.418 180.857 428.418C183.251 428.418 185.357 429.66 185.357 431.748C185.357 433.188 184.403 434.106 183.161 434.61C184.619 435.168 185.681 436.248 185.681 437.706C185.681 439.92 183.521 441.216 180.857 441.216ZM180.857 433.8C181.919 433.746 183.143 433.116 183.143 432.036C183.143 431.064 182.153 430.326 180.857 430.326C179.561 430.326 178.589 431.064 178.589 432.036C178.589 433.134 179.831 433.746 180.857 433.8ZM180.857 439.29C182.297 439.29 183.413 438.57 183.413 437.49C183.413 436.338 182.009 435.654 180.857 435.6C179.723 435.654 178.301 436.338 178.301 437.49C178.301 438.57 179.399 439.29 180.857 439.29Z" fill="#2D1762"/>
<path d="M242.099 441V439.164L246.653 435.528C248.219 434.268 248.777 433.332 248.777 432.324C248.777 431.154 247.787 430.434 246.671 430.434C245.375 430.434 244.439 431.1 243.539 432.18L242.081 430.83C243.251 429.3 244.745 428.418 246.743 428.418C249.191 428.418 251.063 429.984 251.063 432.27C251.063 433.908 250.307 435.222 248.183 436.86L245.591 438.948H251.189V441H242.099ZM258.474 441.216C255.288 441.216 253.056 438.57 253.056 434.808C253.056 431.064 255.288 428.418 258.474 428.418C261.642 428.418 263.892 431.064 263.892 434.808C263.892 438.57 261.642 441.216 258.474 441.216ZM258.474 439.164C260.31 439.164 261.588 437.364 261.588 434.808C261.588 432.252 260.31 430.47 258.474 430.47C256.638 430.47 255.342 432.252 255.342 434.808C255.342 437.364 256.638 439.164 258.474 439.164ZM268.249 441V431.226L266.125 432.576L265.225 430.992L268.699 428.634H270.499V441H268.249ZM277.542 428.418C281.07 428.418 282.618 431.046 282.618 434.61C282.618 438.426 280.368 441.216 277.164 441.216C275.616 441.216 274.446 440.676 273.456 439.83L274.554 438.12C275.31 438.786 276.084 439.236 277.164 439.236C278.91 439.236 280.134 437.562 280.296 435.15C279.522 436.014 278.352 436.536 277.092 436.536C274.824 436.536 272.934 435.096 272.934 432.63C272.934 430.182 274.878 428.418 277.542 428.418ZM277.686 434.7C278.892 434.7 279.828 434.034 280.188 433.008C279.918 431.352 279.144 430.326 277.65 430.326C276.138 430.326 275.22 431.406 275.22 432.54C275.22 433.89 276.336 434.7 277.686 434.7Z" fill="#2D1762"/>
<path d="M338.77 441V439.164L343.324 435.528C344.89 434.268 345.448 433.332 345.448 432.324C345.448 431.154 344.458 430.434 343.342 430.434C342.046 430.434 341.11 431.1 340.21 432.18L338.752 430.83C339.922 429.3 341.416 428.418 343.414 428.418C345.862 428.418 347.734 429.984 347.734 432.27C347.734 433.908 346.978 435.222 344.854 436.86L342.262 438.948H347.86V441H338.77ZM355.145 441.216C351.959 441.216 349.727 438.57 349.727 434.808C349.727 431.064 351.959 428.418 355.145 428.418C358.313 428.418 360.563 431.064 360.563 434.808C360.563 438.57 358.313 441.216 355.145 441.216ZM355.145 439.164C356.981 439.164 358.259 437.364 358.259 434.808C358.259 432.252 356.981 430.47 355.145 430.47C353.309 430.47 352.013 432.252 352.013 434.808C352.013 437.364 353.309 439.164 355.145 439.164ZM362.184 441V439.164L366.738 435.528C368.304 434.268 368.862 433.332 368.862 432.324C368.862 431.154 367.872 430.434 366.756 430.434C365.46 430.434 364.524 431.1 363.624 432.18L362.166 430.83C363.336 429.3 364.83 428.418 366.828 428.418C369.276 428.418 371.148 429.984 371.148 432.27C371.148 433.908 370.392 435.222 368.268 436.86L365.676 438.948H371.274V441H362.184ZM378.559 441.216C375.373 441.216 373.141 438.57 373.141 434.808C373.141 431.064 375.373 428.418 378.559 428.418C381.727 428.418 383.977 431.064 383.977 434.808C383.977 438.57 381.727 441.216 378.559 441.216ZM378.559 439.164C380.395 439.164 381.673 437.364 381.673 434.808C381.673 432.252 380.395 430.47 378.559 430.47C376.723 430.47 375.427 432.252 375.427 434.808C375.427 437.364 376.723 439.164 378.559 439.164Z" fill="#2D1762"/>
<path d="M439.968 441V439.164L444.522 435.528C446.088 434.268 446.646 433.332 446.646 432.324C446.646 431.154 445.656 430.434 444.54 430.434C443.244 430.434 442.308 431.1 441.408 432.18L439.95 430.83C441.12 429.3 442.614 428.418 444.612 428.418C447.06 428.418 448.932 429.984 448.932 432.27C448.932 433.908 448.176 435.222 446.052 436.86L443.46 438.948H449.058V441H439.968ZM456.343 441.216C453.157 441.216 450.925 438.57 450.925 434.808C450.925 431.064 453.157 428.418 456.343 428.418C459.511 428.418 461.761 431.064 461.761 434.808C461.761 438.57 459.511 441.216 456.343 441.216ZM456.343 439.164C458.179 439.164 459.457 437.364 459.457 434.808C459.457 432.252 458.179 430.47 456.343 430.47C454.507 430.47 453.211 432.252 453.211 434.808C453.211 437.364 454.507 439.164 456.343 439.164ZM463.382 441V439.164L467.936 435.528C469.502 434.268 470.06 433.332 470.06 432.324C470.06 431.154 469.07 430.434 467.954 430.434C466.658 430.434 465.722 431.1 464.822 432.18L463.364 430.83C464.534 429.3 466.028 428.418 468.026 428.418C470.474 428.418 472.346 429.984 472.346 432.27C472.346 433.908 471.59 435.222 469.466 436.86L466.874 438.948H472.472V441H463.382ZM476.823 441V431.226L474.699 432.576L473.799 430.992L477.273 428.634H479.073V441H476.823Z" fill="#2D1762"/>
<path d="M535.772 441V439.164L540.326 435.528C541.892 434.268 542.45 433.332 542.45 432.324C542.45 431.154 541.46 430.434 540.344 430.434C539.048 430.434 538.112 431.1 537.212 432.18L535.754 430.83C536.924 429.3 538.418 428.418 540.416 428.418C542.864 428.418 544.736 429.984 544.736 432.27C544.736 433.908 543.98 435.222 541.856 436.86L539.264 438.948H544.862V441H535.772ZM552.147 441.216C548.961 441.216 546.729 438.57 546.729 434.808C546.729 431.064 548.961 428.418 552.147 428.418C555.315 428.418 557.565 431.064 557.565 434.808C557.565 438.57 555.315 441.216 552.147 441.216ZM552.147 439.164C553.983 439.164 555.261 437.364 555.261 434.808C555.261 432.252 553.983 430.47 552.147 430.47C550.311 430.47 549.015 432.252 549.015 434.808C549.015 437.364 550.311 439.164 552.147 439.164ZM559.186 441V439.164L563.74 435.528C565.306 434.268 565.864 433.332 565.864 432.324C565.864 431.154 564.874 430.434 563.758 430.434C562.462 430.434 561.526 431.1 560.626 432.18L559.168 430.83C560.338 429.3 561.832 428.418 563.83 428.418C566.278 428.418 568.15 429.984 568.15 432.27C568.15 433.908 567.394 435.222 565.27 436.86L562.678 438.948H568.276V441H559.186ZM569.891 441V439.164L574.445 435.528C576.011 434.268 576.569 433.332 576.569 432.324C576.569 431.154 575.579 430.434 574.463 430.434C573.167 430.434 572.231 431.1 571.331 432.18L569.873 430.83C571.043 429.3 572.537 428.418 574.535 428.418C576.983 428.418 578.855 429.984 578.855 432.27C578.855 433.908 578.099 435.222 575.975 436.86L573.383 438.948H578.981V441H569.891Z" fill="#2D1762"/>
<path d="M635.175 441V439.164L639.729 435.528C641.295 434.268 641.853 433.332 641.853 432.324C641.853 431.154 640.863 430.434 639.747 430.434C638.451 430.434 637.515 431.1 636.615 432.18L635.157 430.83C636.327 429.3 637.821 428.418 639.819 428.418C642.267 428.418 644.139 429.984 644.139 432.27C644.139 433.908 643.383 435.222 641.259 436.86L638.667 438.948H644.265V441H635.175ZM651.55 441.216C648.364 441.216 646.132 438.57 646.132 434.808C646.132 431.064 648.364 428.418 651.55 428.418C654.718 428.418 656.968 431.064 656.968 434.808C656.968 438.57 654.718 441.216 651.55 441.216ZM651.55 439.164C653.386 439.164 654.664 437.364 654.664 434.808C654.664 432.252 653.386 430.47 651.55 430.47C649.714 430.47 648.418 432.252 648.418 434.808C648.418 437.364 649.714 439.164 651.55 439.164ZM658.589 441V439.164L663.143 435.528C664.709 434.268 665.267 433.332 665.267 432.324C665.267 431.154 664.277 430.434 663.161 430.434C661.865 430.434 660.929 431.1 660.029 432.18L658.571 430.83C659.741 429.3 661.235 428.418 663.233 428.418C665.681 428.418 667.553 429.984 667.553 432.27C667.553 433.908 666.797 435.222 664.673 436.86L662.081 438.948H667.679V441H658.589ZM673.938 441.216C671.76 441.216 670.122 440.334 669.114 439.128L670.482 437.652C671.328 438.624 672.516 439.218 673.848 439.218C675.342 439.218 676.242 438.48 676.242 437.4C676.242 436.302 675.342 435.726 673.578 435.726L672.192 435.744V433.8H673.578C675.036 433.818 675.99 433.224 675.99 432.144C675.99 431.136 675.036 430.434 673.704 430.434C672.462 430.434 671.526 431.028 670.68 431.964L669.348 430.596C670.338 429.354 671.778 428.418 673.884 428.418C676.53 428.418 678.276 429.822 678.276 431.784C678.276 433.278 677.25 434.25 675.936 434.646C677.25 434.952 678.546 435.906 678.546 437.58C678.546 439.704 676.71 441.216 673.938 441.216Z" fill="#2D1762"/>
<path d="M39 366H104V404H39V366Z" fill="#2D1762"/>
<path d="M136 328H201V404H136V328Z" fill="#2D1762"/>
<path d="M234 328H299V404H234V328Z" fill="#2D1762"/>
<path d="M331 290H396V404H331V290Z" fill="#2D1762"/>
<path d="M428 252H493V404H428V252Z" fill="#2D1762"/>
<path d="M526 214H591V404H526V214Z" fill="#2D1762"/>
<path d="M623 24H688V405H623V24Z" fill="#9E008E"/>
<path d="M834.912 317L854.568 277.112H830.088V267.536H866.88V275.528L846.864 317H834.912Z" fill="#9E008E"/>
<path d="M912.088 287V270.512H915.64L923.584 281.168V270.512H927.136V287H923.584L915.64 276.344V287H912.088ZM944.003 273.704H934.859V276.992H943.163V280.184H934.859V283.808H944.003V287H931.307V270.512H944.003V273.704ZM951.032 287L946.04 270.512H949.88L952.928 281.576L956.576 270.512H960.44L964.088 281.576L967.112 270.512H970.976L965.984 287H962.408L958.52 275.672L954.608 287H951.032ZM915.904 317V303.704H910.768V300.512H924.592V303.704H919.432V317H915.904ZM941.048 306.08C941.048 308.672 939.416 310.64 936.944 311.36L940.904 317H936.872L933.104 311.648H930.968V317H927.416V300.512H934.832C938.432 300.512 941.048 302.816 941.048 306.08ZM930.968 303.752V308.408H934.472C936.224 308.408 937.424 307.496 937.424 306.08C937.424 304.664 936.224 303.752 934.472 303.752H930.968ZM956.243 317L955.091 314.168H947.939L946.787 317H942.827L949.547 300.512H953.507L960.227 317H956.243ZM949.067 311.408H953.963L951.515 305.384L949.067 311.408ZM962.924 317V300.512H966.476V317H962.924ZM970.658 317V300.512H974.21L982.154 311.168V300.512H985.706V317H982.154L974.21 306.344V317H970.658ZM989.877 317V300.512H993.429V317H989.877ZM997.611 317V300.512H1001.16L1009.11 311.168V300.512H1012.66V317H1009.11L1001.16 306.344V317H997.611ZM1024.08 310.496V307.736H1031.35V314.528C1029.72 316.256 1027.15 317.288 1024.7 317.288C1019.9 317.288 1015.85 313.376 1015.85 308.744C1015.85 304.112 1019.9 300.224 1024.7 300.224C1027.15 300.224 1029.72 301.256 1031.35 302.984L1028.78 305.288C1027.8 304.16 1026.21 303.44 1024.7 303.44C1021.87 303.44 1019.49 305.888 1019.49 308.744C1019.49 311.624 1021.87 314.072 1024.7 314.072C1025.81 314.072 1026.98 313.688 1027.89 313.016V310.496H1024.08ZM1040.97 317.288C1038.09 317.288 1035.57 316.328 1033.65 314.552L1035.67 312.128C1037.23 313.472 1039.01 314.288 1041.09 314.288C1042.89 314.288 1043.81 313.472 1043.81 312.44C1043.81 311.264 1042.85 310.904 1040.33 310.328C1036.85 309.536 1034.35 308.552 1034.35 305.36C1034.35 302.312 1036.85 300.224 1040.47 300.224C1043.16 300.224 1045.22 301.064 1046.93 302.504L1045.08 305.072C1043.59 303.872 1041.93 303.224 1040.35 303.224C1038.86 303.224 1037.93 304.016 1037.93 305C1037.93 306.2 1038.93 306.584 1041.48 307.16C1045.03 307.952 1047.38 309.008 1047.38 312.056C1047.38 315.2 1044.98 317.288 1040.97 317.288Z" fill="#2D1762"/>
<path d="M849.96 207.936C841.68 207.936 835.416 204.912 830.808 200.304L837.072 192.816C840.816 196.344 845.28 198.648 850.032 198.648C855.648 198.648 859.032 195.336 859.032 191.088C859.032 186.768 855.504 183.888 850.104 183.888C846.36 183.888 843.192 185.112 840.528 187.128L833.4 184.248L834.12 157.536H866.952V167.112H843.912L843.624 178.056C846.072 176.328 849.24 175.032 853.272 175.032C862.056 175.032 869.616 180.648 869.616 190.728C869.616 201.24 861.768 207.936 849.96 207.936Z" fill="#9E008E"/>
<path d="M912.088 175V158.512H915.64L923.584 169.168V158.512H927.136V175H923.584L915.64 164.344V175H912.088ZM944.003 161.704H934.859V164.992H943.163V168.184H934.859V171.808H944.003V175H931.307V158.512H944.003V161.704ZM951.032 175L946.04 158.512H949.88L952.928 169.576L956.576 158.512H960.44L964.088 169.576L967.112 158.512H970.976L965.984 175H962.408L958.52 163.672L954.608 175H951.032ZM919.888 205.288C915.136 205.288 911.104 201.376 911.104 196.744C911.104 192.112 915.136 188.224 919.888 188.224C922.384 188.224 924.664 189.28 926.272 190.984L923.704 193.288C922.768 192.184 921.376 191.44 919.888 191.44C917.104 191.44 914.752 193.888 914.752 196.744C914.752 199.624 917.104 202.072 919.888 202.072C921.4 202.072 922.768 201.328 923.704 200.224L926.272 202.528C924.664 204.208 922.384 205.288 919.888 205.288ZM941.823 191.704H932.679V194.992H940.983V198.184H932.679V201.808H941.823V205H929.127V188.512H941.823V191.704ZM958.884 194.08C958.884 196.672 957.252 198.64 954.78 199.36L958.74 205H954.708L950.94 199.648H948.804V205H945.252V188.512H952.668C956.268 188.512 958.884 190.816 958.884 194.08ZM948.804 191.752V196.408H952.308C954.06 196.408 955.26 195.496 955.26 194.08C955.26 192.664 954.06 191.752 952.308 191.752H948.804ZM965.967 205V191.704H960.831V188.512H974.655V191.704H969.495V205H965.967ZM977.479 205V188.512H981.031V205H977.479ZM997.909 191.704H988.765V195.28H997.069V198.472H988.765V205H985.213V188.512H997.909V191.704ZM1000.96 205V188.512H1004.52V205H1000.96ZM1016.5 205.288C1011.75 205.288 1007.71 201.376 1007.71 196.744C1007.71 192.112 1011.75 188.224 1016.5 188.224C1018.99 188.224 1021.27 189.28 1022.88 190.984L1020.31 193.288C1019.38 192.184 1017.99 191.44 1016.5 191.44C1013.71 191.44 1011.36 193.888 1011.36 196.744C1011.36 199.624 1013.71 202.072 1016.5 202.072C1018.01 202.072 1019.38 201.328 1020.31 200.224L1022.88 202.528C1021.27 204.208 1018.99 205.288 1016.5 205.288ZM1037.66 205L1036.51 202.168H1029.36L1028.21 205H1024.25L1030.97 188.512H1034.93L1041.65 205H1037.66ZM1030.49 199.408H1035.38L1032.94 193.384L1030.49 199.408ZM1048.16 205V191.704H1043.03V188.512H1056.85V191.704H1051.69V205H1048.16ZM1059.67 205V188.512H1063.23V205H1059.67ZM1075.21 205.288C1070.46 205.288 1066.42 201.376 1066.42 196.744C1066.42 192.112 1070.46 188.224 1075.21 188.224C1079.96 188.224 1083.94 192.112 1083.94 196.744C1083.94 201.376 1079.96 205.288 1075.21 205.288ZM1075.21 202.072C1077.97 202.072 1080.32 199.624 1080.32 196.744C1080.32 193.888 1077.97 191.44 1075.21 191.44C1072.42 191.44 1070.07 193.888 1070.07 196.744C1070.07 199.624 1072.42 202.072 1075.21 202.072ZM1087.17 205V188.512H1090.72L1098.66 199.168V188.512H1102.21V205H1098.66L1090.72 194.344V205H1087.17ZM1112.48 205.288C1109.6 205.288 1107.08 204.328 1105.16 202.552L1107.18 200.128C1108.74 201.472 1110.51 202.288 1112.6 202.288C1114.4 202.288 1115.31 201.472 1115.31 200.44C1115.31 199.264 1114.35 198.904 1111.83 198.328C1108.35 197.536 1105.86 196.552 1105.86 193.36C1105.86 190.312 1108.35 188.224 1111.98 188.224C1114.66 188.224 1116.73 189.064 1118.43 190.504L1116.58 193.072C1115.1 191.872 1113.44 191.224 1111.86 191.224C1110.37 191.224 1109.43 192.016 1109.43 193C1109.43 194.2 1110.44 194.584 1112.98 195.16C1116.54 195.952 1118.89 197.008 1118.89 200.056C1118.89 203.2 1116.49 205.288 1112.48 205.288Z" fill="#2D1762"/>
<path opacity="0.2" fill-rule="evenodd" clip-rule="evenodd" d="M1156.64 56.7636L1125.98 54.0744C1125.01 53.9893 1124.03 54.1044 1123.11 54.4126C1122.18 54.7208 1121.33 55.2155 1120.6 55.8662L1092.8 80.6286C1091.96 81.3734 1091.31 82.3042 1090.89 83.3456C1090.48 84.387 1090.31 85.5099 1090.41 86.6237L1093.39 121.312C1093.49 122.417 1093.84 123.483 1094.41 124.424C1094.99 125.366 1095.78 126.158 1096.72 126.739L1126.2 144.972C1127.14 145.552 1128.2 145.904 1129.3 146.001C1130.4 146.097 1131.51 145.935 1132.54 145.527L1164.91 132.699C1165.95 132.289 1166.88 131.639 1167.63 130.803C1168.37 129.967 1168.92 128.967 1169.21 127.886L1178.95 91.9512C1179.2 91.0082 1179.26 90.0238 1179.13 89.0588C1178.99 88.0939 1178.66 87.1689 1178.15 86.3409L1162.06 60.0925C1161.47 59.1528 1160.68 58.363 1159.74 57.7853C1158.8 57.2077 1157.74 56.8579 1156.64 56.7636Z" fill="#9E008E"/>
<path opacity="0.3" fill-rule="evenodd" clip-rule="evenodd" d="M854.595 377.44L848.23 391.427C848.029 391.868 847.921 392.347 847.912 392.833C847.903 393.32 847.994 393.804 848.179 394.255L855.212 411.461C855.424 411.978 855.753 412.44 856.175 412.809C856.596 413.177 857.097 413.442 857.637 413.581L874.462 417.947C874.998 418.086 875.558 418.098 876.097 417.983C876.637 417.868 877.141 417.628 877.57 417.283L891.056 406.437C891.485 406.092 891.827 405.651 892.056 405.149C892.284 404.647 892.392 404.097 892.372 403.544L891.716 386.175C891.696 385.617 891.545 385.071 891.275 384.58C891.006 384.09 890.626 383.669 890.165 383.351L874.869 372.791C874.468 372.514 874.015 372.321 873.538 372.225C873.061 372.129 872.57 372.132 872.095 372.234L857.063 375.443C856.524 375.561 856.021 375.802 855.592 376.149C855.164 376.495 854.823 376.937 854.595 377.44Z" fill="#477076"/>
<path opacity="0.3" d="M1175.93 311.847C1180.46 314.588 1181.88 320.461 1179.1 324.967L1154.21 365.343C1151.44 369.848 1145.51 371.279 1140.99 368.538L1100.41 343.978C1095.88 341.237 1094.46 335.364 1097.24 330.859L1122.13 290.482C1124.91 285.977 1130.83 284.546 1135.35 287.287L1175.93 311.847Z" fill="#8F7C72"/>
<path opacity="0.4" fill-rule="evenodd" clip-rule="evenodd" d="M852.054 25.6541C858.294 24.0947 864.616 27.889 866.176 34.129L880.152 90.0536C881.712 96.2935 877.917 102.616 871.677 104.176L815.753 118.152C809.513 119.711 803.19 115.917 801.631 109.677L787.654 53.7526C786.095 47.5126 789.889 41.1899 796.129 39.6304L852.054 25.6541ZM813.075 59.4038L821.404 92.7314L854.731 84.4024L846.402 51.0747L813.075 59.4038Z" fill="#AB9B32"/>
<circle opacity="0.2" cx="766.703" cy="124.702" r="13.6323" transform="rotate(15.037 766.703 124.702)" fill="#9E008E"/>
</svg>
