<?xml version="1.0" encoding="UTF-8"?> <svg xmlns="http://www.w3.org/2000/svg" width="330" height="340" viewBox="0 0 330 340" fill="none"><path d="M1 73.5703H328V87.5703H1V73.5703Z" fill="#D0D0D0"></path><path d="M1 73.5703H131.8V87.5703H1V73.5703Z" fill="#35255A"></path><path d="M131.799 73.5703H157.959V87.5703H131.799V73.5703Z" fill="#901E80"></path><path d="M1 302.57H328V316.57H1V302.57Z" fill="#477076"></path><path d="M217 302.57H328.18V316.57H217V302.57Z" fill="#AB9B32"></path><path d="M9.17447 35.8418L4.30247 38.8658L1.44647 33.8678L10.6025 27.7358H16.3565V56.5898H9.17447V35.8418ZM32.6558 57.1358C30.0798 57.1358 27.7698 56.7018 25.7258 55.8338C23.7098 54.9658 22.0298 53.7898 20.6858 52.3058L24.8018 47.5598C25.8378 48.5958 26.9998 49.3798 28.2878 49.9118C29.5758 50.4438 30.9058 50.7098 32.2778 50.7098C33.7058 50.7098 34.8118 50.4438 35.5958 49.9118C36.3798 49.3798 36.7718 48.6798 36.7718 47.8118C36.7718 46.8878 36.3798 46.2018 35.5958 45.7538C34.8118 45.3058 33.5238 45.0818 31.7318 45.0818L28.3298 45.1238V39.0758H31.7318C33.1598 39.1038 34.2518 38.8938 35.0078 38.4458C35.7918 37.9698 36.1838 37.3118 36.1838 36.4718C36.1838 35.6038 35.7918 34.9178 35.0078 34.4138C34.2238 33.9098 33.1738 33.6578 31.8578 33.6578C29.5898 33.6578 27.4058 34.6798 25.3058 36.7238L21.2738 32.3558C24.1858 28.9398 27.9658 27.2318 32.6138 27.2318C34.8258 27.2318 36.7578 27.5678 38.4098 28.2398C40.0618 28.9118 41.3218 29.8498 42.1898 31.0538C43.0858 32.2578 43.5338 33.6158 43.5338 35.1278C43.5338 36.7238 43.0438 38.1098 42.0638 39.2858C41.1118 40.4338 39.8098 41.2458 38.1578 41.7218C39.8938 42.1418 41.3218 42.9258 42.4418 44.0738C43.5898 45.2218 44.1638 46.6778 44.1638 48.4418C44.1638 50.1218 43.6878 51.6198 42.7357 52.9358C41.7838 54.2518 40.4398 55.2878 38.7038 56.0438C36.9678 56.7718 34.9518 57.1358 32.6558 57.1358ZM49.9148 61.0838C51.3148 59.9078 52.2108 58.5778 52.6028 57.0938C51.4828 57.0938 50.5028 56.6738 49.6628 55.8338C48.8508 54.9658 48.4448 53.9578 48.4448 52.8098C48.4448 51.6058 48.8648 50.5838 49.7048 49.7438C50.5728 48.8758 51.5808 48.4418 52.7288 48.4418C54.0448 48.4418 55.1088 48.9878 55.9208 50.0798C56.7608 51.1718 57.1808 52.5718 57.1808 54.2798C57.1808 55.6798 56.7608 57.1078 55.9208 58.5638C55.1088 60.0478 53.9188 61.5038 52.3508 62.9318L49.9148 61.0838ZM76.1241 37.7318C77.9161 37.7318 79.5541 38.1098 81.0381 38.8658C82.5221 39.6218 83.6981 40.6998 84.5661 42.0998C85.4341 43.4718 85.8681 45.0958 85.8681 46.9718C85.8681 48.9598 85.3641 50.7238 84.3561 52.2638C83.3761 53.8038 82.0181 54.9938 80.2821 55.8338C78.5741 56.6738 76.6561 57.0938 74.5281 57.0938C70.3561 57.0938 67.1921 55.7918 65.0361 53.1878C62.8801 50.5838 61.8021 47.0838 61.8021 42.6878C61.8021 39.6358 62.3621 36.9478 63.4821 34.6238C64.6021 32.2998 66.1981 30.4938 68.2701 29.2058C70.3701 27.8898 72.8201 27.2318 75.6201 27.2318C79.0361 27.2318 82.0601 28.2398 84.6921 30.2558L81.3741 35.6738C80.4221 34.9458 79.4981 34.3998 78.6021 34.0358C77.7341 33.6718 76.7541 33.4898 75.6621 33.4898C73.9541 33.4898 72.5541 34.0638 71.4621 35.2118C70.3981 36.3598 69.7121 37.9698 69.4041 40.0418C70.2721 39.3138 71.2941 38.7538 72.4701 38.3618C73.6461 37.9418 74.8641 37.7318 76.1241 37.7318ZM74.0661 51.0038C75.3821 51.0038 76.4461 50.6538 77.2581 49.9538C78.0701 49.2258 78.4761 48.3298 78.4761 47.2658C78.4761 46.1178 78.0281 45.2078 77.1321 44.5358C76.2641 43.8358 75.1861 43.4858 73.8981 43.4858C72.9181 43.4858 72.0221 43.7378 71.2101 44.2418C70.4261 44.7458 69.8241 45.4318 69.4041 46.2998C69.6281 47.9238 70.1041 49.1138 70.8321 49.8698C71.5601 50.6258 72.6381 51.0038 74.0661 51.0038ZM103.687 37.7318C105.479 37.7318 107.117 38.1098 108.601 38.8658C110.085 39.6218 111.261 40.6998 112.129 42.0998C112.997 43.4718 113.431 45.0958 113.431 46.9718C113.431 48.9598 112.927 50.7238 111.919 52.2638C110.939 53.8038 109.581 54.9938 107.845 55.8338C106.137 56.6738 104.219 57.0938 102.091 57.0938C97.9186 57.0938 94.7546 55.7918 92.5986 53.1878C90.4426 50.5838 89.3646 47.0838 89.3646 42.6878C89.3646 39.6358 89.9246 36.9478 91.0446 34.6238C92.1646 32.2998 93.7606 30.4938 95.8326 29.2058C97.9326 27.8898 100.383 27.2318 103.183 27.2318C106.599 27.2318 109.623 28.2398 112.255 30.2558L108.937 35.6738C107.985 34.9458 107.061 34.3998 106.165 34.0358C105.297 33.6718 104.317 33.4898 103.225 33.4898C101.517 33.4898 100.117 34.0638 99.0246 35.2118C97.9606 36.3598 97.2746 37.9698 96.9666 40.0418C97.8346 39.3138 98.8566 38.7538 100.033 38.3618C101.209 37.9418 102.427 37.7318 103.687 37.7318ZM101.629 51.0038C102.945 51.0038 104.009 50.6538 104.821 49.9538C105.633 49.2258 106.039 48.3298 106.039 47.2658C106.039 46.1178 105.591 45.2078 104.695 44.5358C103.827 43.8358 102.749 43.4858 101.461 43.4858C100.481 43.4858 99.5846 43.7378 98.7726 44.2418C97.9886 44.7458 97.3866 45.4318 96.9666 46.2998C97.1906 47.9238 97.6666 49.1138 98.3946 49.8698C99.1226 50.6258 100.201 51.0038 101.629 51.0038ZM131.249 37.7318C133.041 37.7318 134.679 38.1098 136.163 38.8658C137.647 39.6218 138.823 40.6998 139.691 42.0998C140.559 43.4718 140.993 45.0958 140.993 46.9718C140.993 48.9598 140.489 50.7238 139.481 52.2638C138.501 53.8038 137.143 54.9938 135.407 55.8338C133.699 56.6738 131.781 57.0938 129.653 57.0938C125.481 57.0938 122.317 55.7918 120.161 53.1878C118.005 50.5838 116.927 47.0838 116.927 42.6878C116.927 39.6358 117.487 36.9478 118.607 34.6238C119.727 32.2998 121.323 30.4938 123.395 29.2058C125.495 27.8898 127.945 27.2318 130.745 27.2318C134.161 27.2318 137.185 28.2398 139.817 30.2558L136.499 35.6738C135.547 34.9458 134.623 34.3998 133.727 34.0358C132.859 33.6718 131.879 33.4898 130.787 33.4898C129.079 33.4898 127.679 34.0638 126.587 35.2118C125.523 36.3598 124.837 37.9698 124.529 40.0418C125.397 39.3138 126.419 38.7538 127.595 38.3618C128.771 37.9418 129.989 37.7318 131.249 37.7318ZM129.191 51.0038C130.507 51.0038 131.571 50.6538 132.383 49.9538C133.195 49.2258 133.601 48.3298 133.601 47.2658C133.601 46.1178 133.153 45.2078 132.257 44.5358C131.389 43.8358 130.311 43.4858 129.023 43.4858C128.043 43.4858 127.147 43.7378 126.335 44.2418C125.551 44.7458 124.949 45.4318 124.529 46.2998C124.753 47.9238 125.229 49.1138 125.957 49.8698C126.685 50.6258 127.763 51.0038 129.191 51.0038Z" fill="#35255A"></path><path d="M1.53406 231.7H3.01406L3.01406 238.57H1.53406L1.53406 231.7ZM4.95672 231.7H6.43672L9.74672 236.14V231.7H11.2267L11.2267 238.57H9.74672L6.43672 234.13L6.43672 238.57H4.95672L4.95672 231.7ZM16.0891 231.7H19.1791C19.6725 231.7 20.1158 231.8 20.5091 232C20.9025 232.194 21.2091 232.467 21.4291 232.82C21.6558 233.174 21.7691 233.574 21.7691 234.02C21.7691 234.467 21.6558 234.867 21.4291 235.22C21.2091 235.574 20.9025 235.85 20.5091 236.05C20.1158 236.244 19.6725 236.34 19.1791 236.34H17.5691V238.57H16.0891V231.7ZM19.0291 234.99C19.3958 234.99 19.6925 234.904 19.9191 234.73C20.1458 234.55 20.2591 234.314 20.2591 234.02C20.2591 233.727 20.1458 233.494 19.9191 233.32C19.6925 233.14 19.3958 233.05 19.0291 233.05H17.5691V234.99H19.0291ZM24.7223 233.03V234.4H28.1823V235.73H24.7223V237.24H28.5323V238.57H23.2423V231.7H28.5323V233.03H24.7223ZM35.841 234.02C35.841 234.554 35.6843 235.017 35.371 235.41C35.0643 235.797 34.651 236.067 34.131 236.22L35.781 238.57H34.101L32.531 236.34H31.641V238.57H30.161V231.7H33.251C33.7443 231.7 34.1877 231.8 34.581 232C34.9743 232.194 35.281 232.467 35.501 232.82C35.7277 233.174 35.841 233.574 35.841 234.02ZM31.641 234.99H33.101C33.4677 234.99 33.7643 234.904 33.991 234.73C34.2177 234.55 34.331 234.314 34.331 234.02C34.331 233.727 34.2177 233.494 33.991 233.32C33.7643 233.14 33.4677 233.05 33.101 233.05H31.641V234.99ZM39.942 238.69C39.342 238.69 38.782 238.594 38.262 238.4C37.7487 238.207 37.292 237.924 36.892 237.55L37.732 236.54C38.4254 237.14 39.1787 237.44 39.992 237.44C40.352 237.44 40.6287 237.37 40.822 237.23C41.022 237.084 41.122 236.897 41.122 236.67C41.122 236.51 41.0754 236.38 40.982 236.28C40.8887 236.18 40.742 236.097 40.542 236.03C40.3487 235.957 40.0587 235.877 39.672 235.79C39.1187 235.664 38.6654 235.527 38.312 235.38C37.9654 235.227 37.6887 235.017 37.482 234.75C37.282 234.484 37.182 234.14 37.182 233.72C37.182 233.3 37.2887 232.93 37.502 232.61C37.7154 232.284 38.0154 232.03 38.402 231.85C38.7887 231.67 39.232 231.58 39.732 231.58C40.7787 231.58 41.6754 231.897 42.422 232.53L41.652 233.6C41.3387 233.347 41.012 233.157 40.672 233.03C40.3387 232.897 40.0087 232.83 39.682 232.83C39.382 232.83 39.1387 232.9 38.952 233.04C38.7654 233.18 38.672 233.357 38.672 233.57C38.672 233.737 38.7187 233.87 38.812 233.97C38.912 234.07 39.062 234.157 39.262 234.23C39.4687 234.304 39.7654 234.384 40.152 234.47C40.6987 234.59 41.1454 234.73 41.492 234.89C41.8454 235.044 42.1187 235.25 42.312 235.51C42.512 235.77 42.612 236.104 42.612 236.51C42.612 236.944 42.5054 237.327 42.292 237.66C42.0787 237.987 41.7687 238.24 41.362 238.42C40.962 238.6 40.4887 238.69 39.942 238.69ZM47.3755 238.69C46.7288 238.69 46.1221 238.53 45.5555 238.21C44.9955 237.884 44.5488 237.447 44.2155 236.9C43.8821 236.354 43.7155 235.764 43.7155 235.13C43.7155 234.497 43.8821 233.91 44.2155 233.37C44.5488 232.824 44.9955 232.39 45.5555 232.07C46.1221 231.744 46.7288 231.58 47.3755 231.58C48.0221 231.58 48.6255 231.744 49.1855 232.07C49.7455 232.39 50.1888 232.824 50.5155 233.37C50.8488 233.91 51.0155 234.497 51.0155 235.13C51.0155 235.764 50.8488 236.354 50.5155 236.9C50.1888 237.447 49.7455 237.884 49.1855 238.21C48.6255 238.53 48.0221 238.69 47.3755 238.69ZM47.3755 237.35C47.7488 237.35 48.0988 237.25 48.4255 237.05C48.7588 236.844 49.0221 236.57 49.2155 236.23C49.4088 235.89 49.5055 235.524 49.5055 235.13C49.5055 234.744 49.4088 234.38 49.2155 234.04C49.0221 233.7 48.7588 233.43 48.4255 233.23C48.0988 233.024 47.7488 232.92 47.3755 232.92C46.9955 232.92 46.6421 233.024 46.3155 233.23C45.9888 233.43 45.7255 233.7 45.5255 234.04C45.3321 234.38 45.2355 234.744 45.2355 235.13C45.2355 235.524 45.3321 235.89 45.5255 236.23C45.7188 236.57 45.9788 236.844 46.3055 237.05C46.6388 237.25 46.9955 237.35 47.3755 237.35ZM52.5579 231.7H54.0379L57.3479 236.14V231.7H58.8279V238.57H57.3479L54.0379 234.13V238.57H52.5579V231.7Z" fill="#443F76"></path><path d="M6.92109 6.02031C6.92109 6.55365 6.76443 7.01698 6.45109 7.41031C6.14443 7.79698 5.73109 8.06698 5.21109 8.22031L6.86109 10.5703L5.18109 10.5703L3.61109 8.34031H2.72109L2.72109 10.5703H1.24109L1.24109 3.70031L4.33109 3.70031C4.82443 3.70031 5.26776 3.80031 5.66109 4.00031C6.05443 4.19365 6.36109 4.46698 6.58109 4.82031C6.80776 5.17365 6.92109 5.57365 6.92109 6.02031ZM2.72109 6.99031L4.18109 6.99031C4.54776 6.99031 4.84443 6.90365 5.07109 6.73031C5.29776 6.55031 5.41109 6.31365 5.41109 6.02031C5.41109 5.72698 5.29776 5.49365 5.07109 5.32031C4.84443 5.14031 4.54776 5.05031 4.18109 5.05031L2.72109 5.05031V6.99031ZM9.96211 5.03031L9.96211 6.40031H13.4221V7.73031H9.96211V9.24031H13.7721V10.5703H8.48211L8.48211 3.70031L13.7721 3.70031V5.03031H9.96211ZM18.4209 6.71031L21.4509 6.71031V9.54031C21.1109 9.90031 20.6909 10.1836 20.1909 10.3903C19.6975 10.5903 19.1942 10.6903 18.6809 10.6903C18.0275 10.6903 17.4175 10.5303 16.8509 10.2103C16.2842 9.88365 15.8309 9.44698 15.4909 8.90031C15.1575 8.35365 14.9909 7.76365 14.9909 7.13031C14.9909 6.49698 15.1575 5.91031 15.4909 5.37031C15.8309 4.82365 16.2842 4.39031 16.8509 4.07031C17.4175 3.74365 18.0275 3.58031 18.6809 3.58031C19.1942 3.58031 19.6975 3.68365 20.1909 3.89031C20.6909 4.09031 21.1109 4.37031 21.4509 4.73031L20.3809 5.69031C20.1742 5.45698 19.9175 5.27031 19.6109 5.13031C19.3042 4.99031 18.9942 4.92031 18.6809 4.92031C18.2942 4.92031 17.9342 5.02365 17.6009 5.23031C17.2675 5.43031 17.0009 5.70031 16.8009 6.04031C16.6075 6.37365 16.5109 6.73698 16.5109 7.13031C16.5109 7.52365 16.6075 7.89031 16.8009 8.23031C17.0009 8.57031 17.2675 8.84365 17.6009 9.05031C17.9342 9.25031 18.2942 9.35031 18.6809 9.35031C18.9142 9.35031 19.1475 9.31365 19.3809 9.24031C19.6142 9.16031 19.8242 9.05031 20.0109 8.91031V7.86031L18.4209 7.86031V6.71031ZM23.1204 3.70031L24.6004 3.70031V10.5703H23.1204V3.70031ZM29.083 10.6903C28.483 10.6903 27.923 10.5936 27.403 10.4003C26.8897 10.207 26.433 9.92365 26.033 9.55031L26.873 8.54031C27.5664 9.14031 28.3197 9.44031 29.133 9.44031C29.493 9.44031 29.7697 9.37031 29.963 9.23031C30.163 9.08365 30.263 8.89698 30.263 8.67031C30.263 8.51031 30.2164 8.38031 30.123 8.28031C30.0297 8.18031 29.883 8.09698 29.683 8.03031C29.4897 7.95698 29.1997 7.87698 28.813 7.79031C28.2597 7.66365 27.8064 7.52698 27.453 7.38031C27.1064 7.22698 26.8297 7.01698 26.623 6.75031C26.423 6.48365 26.323 6.14031 26.323 5.72031C26.323 5.30031 26.4297 4.93031 26.643 4.61031C26.8564 4.28365 27.1564 4.03031 27.543 3.85031C27.9297 3.67031 28.373 3.58031 28.873 3.58031C29.9197 3.58031 30.8164 3.89698 31.563 4.53031L30.793 5.60031C30.4797 5.34698 30.153 5.15698 29.813 5.03031C29.4797 4.89698 29.1497 4.83031 28.823 4.83031C28.523 4.83031 28.2797 4.90031 28.093 5.04031C27.9064 5.18031 27.813 5.35698 27.813 5.57031C27.813 5.73698 27.8597 5.87031 27.953 5.97031C28.053 6.07031 28.203 6.15698 28.403 6.23031C28.6097 6.30365 28.9064 6.38365 29.293 6.47031C29.8397 6.59031 30.2864 6.73031 30.633 6.89031C30.9864 7.04365 31.2597 7.25031 31.453 7.51031C31.653 7.77031 31.753 8.10365 31.753 8.51031C31.753 8.94365 31.6464 9.32698 31.433 9.66031C31.2197 9.98698 30.9097 10.2403 30.503 10.4203C30.103 10.6003 29.6297 10.6903 29.083 10.6903ZM34.8565 5.03031H32.7165V3.70031L38.4765 3.70031V5.03031L36.3265 5.03031V10.5703H34.8565V5.03031ZM41.3332 5.03031V6.40031L44.7932 6.40031V7.73031L41.3332 7.73031V9.24031H45.1432V10.5703H39.8532V3.70031L45.1432 3.70031V5.03031L41.3332 5.03031ZM52.452 6.02031C52.452 6.55365 52.2953 7.01698 51.982 7.41031C51.6753 7.79698 51.262 8.06698 50.742 8.22031L52.392 10.5703H50.712L49.142 8.34031H48.252V10.5703H46.772V3.70031L49.862 3.70031C50.3553 3.70031 50.7986 3.80031 51.192 4.00031C51.5853 4.19365 51.892 4.46698 52.112 4.82031C52.3386 5.17365 52.452 5.57365 52.452 6.02031ZM48.252 6.99031H49.712C50.0786 6.99031 50.3753 6.90365 50.602 6.73031C50.8286 6.55031 50.942 6.31365 50.942 6.02031C50.942 5.72698 50.8286 5.49365 50.602 5.32031C50.3753 5.14031 50.0786 5.05031 49.712 5.05031H48.252V6.99031ZM55.493 5.03031V6.40031L58.953 6.40031V7.73031L55.493 7.73031V9.24031H59.303V10.5703H54.013V3.70031L59.303 3.70031V5.03031L55.493 5.03031ZM60.9317 3.70031L63.4017 3.70031C64.1617 3.70031 64.8417 3.84698 65.4417 4.14031C66.0417 4.43365 66.5084 4.84031 66.8417 5.36031C67.1817 5.88031 67.3517 6.47031 67.3517 7.13031C67.3517 7.79031 67.1817 8.38365 66.8417 8.91031C66.5084 9.43031 66.0417 9.83698 65.4417 10.1303C64.8417 10.4236 64.1617 10.5703 63.4017 10.5703L60.9317 10.5703V3.70031ZM63.5917 9.23031C64.0251 9.23031 64.4117 9.14031 64.7517 8.96031C65.0917 8.78031 65.3551 8.53365 65.5417 8.22031C65.7351 7.90031 65.8317 7.53698 65.8317 7.13031C65.8317 6.73031 65.7351 6.37365 65.5417 6.06031C65.3551 5.74031 65.0917 5.49031 64.7517 5.31031C64.4117 5.13031 64.0251 5.04031 63.5917 5.04031H62.4117V9.23031H63.5917Z" fill="#443F76"></path><path d="M139.276 231.7L136.476 238.57H134.826L132.026 231.7H133.686L135.656 236.54L137.616 231.7H139.276ZM140.609 231.7H142.089V238.57H140.609V231.7ZM149.712 234.02C149.712 234.554 149.555 235.017 149.242 235.41C148.935 235.797 148.522 236.067 148.002 236.22L149.652 238.57H147.972L146.402 236.34H145.512V238.57H144.032V231.7H147.122C147.615 231.7 148.058 231.8 148.452 232C148.845 232.194 149.152 232.467 149.372 232.82C149.598 233.174 149.712 233.574 149.712 234.02ZM145.512 234.99H146.972C147.338 234.99 147.635 234.904 147.862 234.73C148.088 234.55 148.202 234.314 148.202 234.02C148.202 233.727 148.088 233.494 147.862 233.32C147.635 233.14 147.338 233.05 146.972 233.05H145.512V234.99ZM152.863 233.03H150.723V231.7H156.483V233.03H154.333V238.57H152.863V233.03ZM160.819 238.69C160.219 238.69 159.683 238.56 159.209 238.3C158.736 238.034 158.366 237.667 158.099 237.2C157.839 236.727 157.709 236.194 157.709 235.6V231.7H159.179V235.54C159.179 235.887 159.249 236.2 159.389 236.48C159.529 236.754 159.723 236.967 159.969 237.12C160.223 237.274 160.506 237.35 160.819 237.35C161.133 237.35 161.413 237.274 161.659 237.12C161.906 236.967 162.099 236.754 162.239 236.48C162.379 236.2 162.449 235.887 162.449 235.54V231.7H163.929V235.6C163.929 236.194 163.796 236.727 163.529 237.2C163.269 237.667 162.903 238.034 162.429 238.3C161.956 238.56 161.419 238.69 160.819 238.69ZM170.206 237.39H167.226L166.746 238.57H165.096L167.896 231.7H169.546L172.346 238.57H170.686L170.206 237.39ZM169.736 236.24L168.716 233.73L167.696 236.24H169.736ZM178.57 237.24V238.57H173.67V231.7H175.15V237.24H178.57Z" fill="#443F76"></path><path d="M23.9854 119.736H19.3234L19.1134 117.916L23.4674 111.966H26.3794V117.748H27.5974V119.736H26.3794V121.57H23.9854V119.736ZM23.9854 117.748V114.444L21.5914 117.748H23.9854ZM33.0986 121.738C32.2493 121.738 31.4886 121.528 30.8166 121.108C30.1446 120.679 29.6173 120.086 29.2346 119.33C28.8613 118.574 28.6746 117.716 28.6746 116.754C28.6746 115.793 28.8613 114.939 29.2346 114.192C29.6173 113.436 30.1446 112.848 30.8166 112.428C31.4886 111.999 32.2493 111.784 33.0986 111.784C33.9573 111.784 34.7226 111.999 35.3946 112.428C36.0666 112.848 36.5893 113.436 36.9626 114.192C37.3453 114.939 37.5366 115.793 37.5366 116.754C37.5366 117.716 37.3453 118.574 36.9626 119.33C36.5893 120.086 36.0666 120.679 35.3946 121.108C34.7226 121.528 33.9573 121.738 33.0986 121.738ZM33.0986 119.568C33.4813 119.568 33.8219 119.447 34.1206 119.204C34.4193 118.962 34.6526 118.63 34.8206 118.21C34.9886 117.781 35.0726 117.296 35.0726 116.754C35.0726 116.213 34.9886 115.732 34.8206 115.312C34.6526 114.883 34.4193 114.552 34.1206 114.318C33.8219 114.076 33.4813 113.954 33.0986 113.954C32.7253 113.954 32.3893 114.076 32.0906 114.318C31.7919 114.552 31.5586 114.883 31.3906 115.312C31.2226 115.732 31.1386 116.213 31.1386 116.754C31.1386 117.296 31.2226 117.781 31.3906 118.21C31.5586 118.63 31.7919 118.962 32.0906 119.204C32.3893 119.447 32.7253 119.568 33.0986 119.568ZM41.3264 116.81C40.8504 116.81 40.4258 116.703 40.0524 116.488C39.6791 116.274 39.3898 115.98 39.1844 115.606C38.9791 115.224 38.8764 114.799 38.8764 114.332C38.8764 113.875 38.9791 113.46 39.1844 113.086C39.3898 112.704 39.6744 112.405 40.0384 112.19C40.4118 111.966 40.8411 111.854 41.3264 111.854C41.8118 111.854 42.2411 111.966 42.6144 112.19C42.9878 112.405 43.2771 112.704 43.4824 113.086C43.6878 113.46 43.7904 113.875 43.7904 114.332C43.7904 114.799 43.6831 115.224 43.4684 115.606C43.2631 115.98 42.9738 116.274 42.6004 116.488C42.2271 116.703 41.8024 116.81 41.3264 116.81ZM46.8844 111.952H48.6904L41.9704 121.57H40.1644L46.8844 111.952ZM41.3264 115.452C41.5971 115.452 41.8164 115.354 41.9844 115.158C42.1618 114.953 42.2504 114.678 42.2504 114.332C42.2504 113.996 42.1618 113.726 41.9844 113.52C41.8071 113.315 41.5878 113.212 41.3264 113.212C41.0558 113.212 40.8364 113.315 40.6684 113.52C40.5004 113.716 40.4164 113.987 40.4164 114.332C40.4164 114.668 40.5004 114.939 40.6684 115.144C40.8458 115.35 41.0651 115.452 41.3264 115.452ZM47.5004 121.724C47.0244 121.724 46.5998 121.617 46.2264 121.402C45.8531 121.178 45.5638 120.88 45.3584 120.506C45.1531 120.124 45.0504 119.704 45.0504 119.246C45.0504 118.78 45.1531 118.36 45.3584 117.986C45.5638 117.604 45.8531 117.305 46.2264 117.09C46.6091 116.866 47.0384 116.754 47.5144 116.754C47.9998 116.754 48.4244 116.866 48.7884 117.09C49.1618 117.314 49.4511 117.618 49.6564 118C49.8618 118.374 49.9644 118.789 49.9644 119.246C49.9644 119.704 49.8571 120.124 49.6424 120.506C49.4371 120.88 49.1478 121.178 48.7744 121.402C48.4011 121.617 47.9764 121.724 47.5004 121.724ZM47.5144 120.366C47.7758 120.366 47.9904 120.268 48.1584 120.072C48.3358 119.867 48.4244 119.592 48.4244 119.246C48.4244 118.91 48.3358 118.64 48.1584 118.434C47.9811 118.229 47.7618 118.126 47.5004 118.126C47.2298 118.126 47.0104 118.224 46.8424 118.42C46.6744 118.616 46.5904 118.892 46.5904 119.246C46.5904 119.582 46.6744 119.853 46.8424 120.058C47.0198 120.264 47.2438 120.366 47.5144 120.366Z" fill="#35255A"></path><path d="M38.4605 144.738C37.7232 144.738 37.0512 144.631 36.4445 144.416C35.8472 144.202 35.3712 143.884 35.0165 143.464C34.6618 143.044 34.4845 142.545 34.4845 141.966C34.4845 141.425 34.6432 140.954 34.9605 140.552C35.2872 140.142 35.7305 139.824 36.2905 139.6C35.2545 139.134 34.7365 138.406 34.7365 137.416C34.7365 136.866 34.9045 136.394 35.2405 136.002C35.5858 135.601 36.0432 135.298 36.6125 135.092C37.1818 134.887 37.7978 134.784 38.4605 134.784C39.1325 134.784 39.7532 134.892 40.3225 135.106C40.8918 135.312 41.3445 135.615 41.6805 136.016C42.0258 136.408 42.1985 136.875 42.1985 137.416C42.1985 138.396 41.6758 139.124 40.6305 139.6C41.1998 139.843 41.6432 140.17 41.9605 140.58C42.2872 140.982 42.4505 141.444 42.4505 141.966C42.4505 142.545 42.2732 143.044 41.9185 143.464C41.5638 143.884 41.0832 144.202 40.4765 144.416C39.8698 144.631 39.1978 144.738 38.4605 144.738ZM38.4605 138.788C38.8245 138.77 39.1418 138.662 39.4125 138.466C39.6925 138.27 39.8325 138.032 39.8325 137.752C39.8325 137.472 39.7065 137.239 39.4545 137.052C39.2025 136.856 38.8712 136.758 38.4605 136.758C38.0592 136.758 37.7325 136.852 37.4805 137.038C37.2285 137.225 37.1025 137.463 37.1025 137.752C37.1025 138.042 37.2332 138.284 37.4945 138.48C37.7652 138.667 38.0872 138.77 38.4605 138.788ZM38.4605 142.75C38.9178 142.75 39.2912 142.652 39.5805 142.456C39.8792 142.26 40.0285 142.008 40.0285 141.7C40.0285 141.402 39.8698 141.154 39.5525 140.958C39.2352 140.762 38.8712 140.655 38.4605 140.636C38.0498 140.655 37.6858 140.762 37.3685 140.958C37.0605 141.154 36.9065 141.402 36.9065 141.7C36.9065 142.018 37.0465 142.274 37.3265 142.47C37.6158 142.657 37.9938 142.75 38.4605 142.75ZM46.221 139.81C45.745 139.81 45.3203 139.703 44.947 139.488C44.5736 139.274 44.2843 138.98 44.079 138.606C43.8736 138.224 43.771 137.799 43.771 137.332C43.771 136.875 43.8736 136.46 44.079 136.086C44.2843 135.704 44.569 135.405 44.933 135.19C45.3063 134.966 45.7356 134.854 46.221 134.854C46.7063 134.854 47.1356 134.966 47.509 135.19C47.8823 135.405 48.1716 135.704 48.377 136.086C48.5823 136.46 48.685 136.875 48.685 137.332C48.685 137.799 48.5776 138.224 48.363 138.606C48.1576 138.98 47.8683 139.274 47.495 139.488C47.1216 139.703 46.697 139.81 46.221 139.81ZM51.779 134.952H53.585L46.865 144.57H45.059L51.779 134.952ZM46.221 138.452C46.4916 138.452 46.711 138.354 46.879 138.158C47.0563 137.953 47.145 137.678 47.145 137.332C47.145 136.996 47.0563 136.726 46.879 136.52C46.7016 136.315 46.4823 136.212 46.221 136.212C45.9503 136.212 45.731 136.315 45.563 136.52C45.395 136.716 45.311 136.987 45.311 137.332C45.311 137.668 45.395 137.939 45.563 138.144C45.7403 138.35 45.9596 138.452 46.221 138.452ZM52.395 144.724C51.919 144.724 51.4943 144.617 51.121 144.402C50.7476 144.178 50.4583 143.88 50.253 143.506C50.0476 143.124 49.945 142.704 49.945 142.246C49.945 141.78 50.0476 141.36 50.253 140.986C50.4583 140.604 50.7476 140.305 51.121 140.09C51.5036 139.866 51.933 139.754 52.409 139.754C52.8943 139.754 53.319 139.866 53.683 140.09C54.0563 140.314 54.3456 140.618 54.551 141C54.7563 141.374 54.859 141.789 54.859 142.246C54.859 142.704 54.7516 143.124 54.537 143.506C54.3316 143.88 54.0423 144.178 53.669 144.402C53.2956 144.617 52.871 144.724 52.395 144.724ZM52.409 143.366C52.6703 143.366 52.885 143.268 53.053 143.072C53.2303 142.867 53.319 142.592 53.319 142.246C53.319 141.91 53.2303 141.64 53.053 141.434C52.8756 141.229 52.6563 141.126 52.395 141.126C52.1243 141.126 51.905 141.224 51.737 141.42C51.569 141.616 51.485 141.892 51.485 142.246C51.485 142.582 51.569 142.853 51.737 143.058C51.9143 143.264 52.1383 143.366 52.409 143.366Z" fill="#901E80"></path><path d="M42.296 163.706V161.816L48.89 159.072V160.948L44.116 162.768L48.89 164.56V166.45L42.296 163.706ZM52.7769 160.654L51.1529 161.662L50.2009 159.996L53.2529 157.952H55.1709V167.57H52.7769V160.654ZM59.428 162.81C58.952 162.81 58.5273 162.703 58.154 162.488C57.7807 162.274 57.4913 161.98 57.286 161.606C57.0807 161.224 56.978 160.799 56.978 160.332C56.978 159.875 57.0807 159.46 57.286 159.086C57.4913 158.704 57.776 158.405 58.14 158.19C58.5133 157.966 58.9427 157.854 59.428 157.854C59.9133 157.854 60.3427 157.966 60.716 158.19C61.0893 158.405 61.3787 158.704 61.584 159.086C61.7893 159.46 61.892 159.875 61.892 160.332C61.892 160.799 61.7847 161.224 61.57 161.606C61.3647 161.98 61.0753 162.274 60.702 162.488C60.3287 162.703 59.904 162.81 59.428 162.81ZM64.986 157.952H66.792L60.072 167.57H58.266L64.986 157.952ZM59.428 161.452C59.6987 161.452 59.918 161.354 60.086 161.158C60.2633 160.953 60.352 160.678 60.352 160.332C60.352 159.996 60.2633 159.726 60.086 159.52C59.9087 159.315 59.6893 159.212 59.428 159.212C59.1573 159.212 58.938 159.315 58.77 159.52C58.602 159.716 58.518 159.987 58.518 160.332C58.518 160.668 58.602 160.939 58.77 161.144C58.9473 161.35 59.1667 161.452 59.428 161.452ZM65.602 167.724C65.126 167.724 64.7013 167.617 64.328 167.402C63.9547 167.178 63.6653 166.88 63.46 166.506C63.2547 166.124 63.152 165.704 63.152 165.246C63.152 164.78 63.2547 164.36 63.46 163.986C63.6653 163.604 63.9547 163.305 64.328 163.09C64.7107 162.866 65.14 162.754 65.616 162.754C66.1013 162.754 66.526 162.866 66.89 163.09C67.2633 163.314 67.5527 163.618 67.758 164C67.9633 164.374 68.066 164.789 68.066 165.246C68.066 165.704 67.9587 166.124 67.744 166.506C67.5387 166.88 67.2493 167.178 66.876 167.402C66.5027 167.617 66.078 167.724 65.602 167.724ZM65.616 166.366C65.8773 166.366 66.092 166.268 66.26 166.072C66.4373 165.867 66.526 165.592 66.526 165.246C66.526 164.91 66.4373 164.64 66.26 164.434C66.0827 164.229 65.8633 164.126 65.602 164.126C65.3313 164.126 65.112 164.224 64.944 164.42C64.776 164.616 64.692 164.892 64.692 165.246C64.692 165.582 64.776 165.853 64.944 166.058C65.1213 166.264 65.3453 166.366 65.616 166.366Z" fill="#CC4194"></path><path d="M57.1984 190.752C55.6677 190.752 54.3937 190.267 53.3764 189.296L54.7484 187.602C55.1311 187.938 55.5324 188.204 55.9524 188.4C56.3724 188.587 56.7924 188.68 57.2124 188.68C57.6977 188.68 58.0804 188.564 58.3604 188.33C58.6404 188.088 58.7804 187.789 58.7804 187.434C58.7804 187.07 58.6404 186.781 58.3604 186.566C58.0897 186.352 57.7164 186.244 57.2404 186.244C56.5777 186.244 55.9851 186.445 55.4624 186.846L53.8804 186.23L54.0204 180.952H60.6424V183.094H56.2184L56.1624 184.844C56.6757 184.471 57.2871 184.284 57.9964 184.284C58.5657 184.284 59.0931 184.406 59.5784 184.648C60.0637 184.891 60.4511 185.246 60.7404 185.712C61.0297 186.17 61.1744 186.716 61.1744 187.35C61.1744 188.041 61.0111 188.643 60.6844 189.156C60.3577 189.67 59.8957 190.066 59.2984 190.346C58.7011 190.617 58.0011 190.752 57.1984 190.752ZM62.3344 188.624L65.8904 185.964C66.4131 185.572 66.7724 185.232 66.9684 184.942C67.1738 184.644 67.2764 184.34 67.2764 184.032C67.2764 183.715 67.1504 183.458 66.8984 183.262C66.6558 183.057 66.3571 182.954 66.0024 182.954C65.5731 182.954 65.1764 183.052 64.8124 183.248C64.4578 183.444 64.0891 183.748 63.7064 184.158L62.2084 182.674C63.2538 181.414 64.5371 180.784 66.0584 180.784C66.7678 180.784 67.3978 180.92 67.9484 181.19C68.5084 181.461 68.9424 181.834 69.2504 182.31C69.5678 182.786 69.7264 183.328 69.7264 183.934C69.7264 184.597 69.5584 185.194 69.2224 185.726C68.8958 186.249 68.3264 186.79 67.5144 187.35L66.0024 188.428H69.8244V190.57H62.3344V188.624ZM73.6741 185.81C73.1981 185.81 72.7734 185.703 72.4001 185.488C72.0268 185.274 71.7374 184.98 71.5321 184.606C71.3268 184.224 71.2241 183.799 71.2241 183.332C71.2241 182.875 71.3268 182.46 71.5321 182.086C71.7374 181.704 72.0221 181.405 72.3861 181.19C72.7594 180.966 73.1888 180.854 73.6741 180.854C74.1594 180.854 74.5888 180.966 74.9621 181.19C75.3354 181.405 75.6248 181.704 75.8301 182.086C76.0354 182.46 76.1381 182.875 76.1381 183.332C76.1381 183.799 76.0308 184.224 75.8161 184.606C75.6108 184.98 75.3214 185.274 74.9481 185.488C74.5748 185.703 74.1501 185.81 73.6741 185.81ZM79.2321 180.952H81.0381L74.3181 190.57H72.5121L79.2321 180.952ZM73.6741 184.452C73.9448 184.452 74.1641 184.354 74.3321 184.158C74.5094 183.953 74.5981 183.678 74.5981 183.332C74.5981 182.996 74.5094 182.726 74.3321 182.52C74.1548 182.315 73.9354 182.212 73.6741 182.212C73.4034 182.212 73.1841 182.315 73.0161 182.52C72.8481 182.716 72.7641 182.987 72.7641 183.332C72.7641 183.668 72.8481 183.939 73.0161 184.144C73.1934 184.35 73.4128 184.452 73.6741 184.452ZM79.8481 190.724C79.3721 190.724 78.9474 190.617 78.5741 190.402C78.2008 190.178 77.9114 189.88 77.7061 189.506C77.5008 189.124 77.3981 188.704 77.3981 188.246C77.3981 187.78 77.5008 187.36 77.7061 186.986C77.9114 186.604 78.2008 186.305 78.5741 186.09C78.9568 185.866 79.3861 185.754 79.8621 185.754C80.3474 185.754 80.7721 185.866 81.1361 186.09C81.5094 186.314 81.7988 186.618 82.0041 187C82.2094 187.374 82.3121 187.789 82.3121 188.246C82.3121 188.704 82.2048 189.124 81.9901 189.506C81.7848 189.88 81.4954 190.178 81.1221 190.402C80.7488 190.617 80.3241 190.724 79.8481 190.724ZM79.8621 189.366C80.1234 189.366 80.3381 189.268 80.5061 189.072C80.6834 188.867 80.7721 188.592 80.7721 188.246C80.7721 187.91 80.6834 187.64 80.5061 187.434C80.3288 187.229 80.1094 187.126 79.8481 187.126C79.5774 187.126 79.3581 187.224 79.1901 187.42C79.0221 187.616 78.9381 187.892 78.9381 188.246C78.9381 188.582 79.0221 188.853 79.1901 189.058C79.3674 189.264 79.5914 189.366 79.8621 189.366Z" fill="#747474"></path><path d="M69.4186 111.952H70.5106L74.0806 118.658L77.6506 111.952H78.7426V121.57H77.6506V114.304L74.0806 121.01L70.5106 114.304V121.57H69.4186V111.952ZM83.1776 112.988V116.152H88.3996V117.188H83.1776V120.534H88.9736V121.57H82.0716V111.952H88.9736V112.988H83.1776ZM91.5665 111.952H92.6585L98.6225 119.778V111.952H99.7145V121.57H98.6225L92.6585 113.744V121.57H91.5665V111.952ZM76.5835 134.952H77.8155L80.4755 142.736L83.0235 134.952H84.2415L86.7895 142.736L89.4495 134.952H90.6815L87.3915 144.57H86.3135L83.6395 136.38L80.9515 144.57H79.8735L76.5835 134.952ZM97.0989 144.738C96.2309 144.738 95.4142 144.514 94.6489 144.066C93.8929 143.609 93.2909 142.998 92.8429 142.232C92.3949 141.467 92.1709 140.641 92.1709 139.754C92.1709 138.868 92.3949 138.046 92.8429 137.29C93.2909 136.525 93.8929 135.918 94.6489 135.47C95.4142 135.013 96.2309 134.784 97.0989 134.784C97.9762 134.784 98.7882 135.013 99.5349 135.47C100.291 135.918 100.893 136.525 101.341 137.29C101.789 138.046 102.013 138.868 102.013 139.754C102.013 140.641 101.789 141.467 101.341 142.232C100.893 142.998 100.291 143.609 99.5349 144.066C98.7882 144.514 97.9762 144.738 97.0989 144.738ZM97.0989 143.73C97.7802 143.73 98.4102 143.548 98.9889 143.184C99.5769 142.82 100.044 142.335 100.389 141.728C100.734 141.122 100.907 140.464 100.907 139.754C100.907 139.054 100.734 138.401 100.389 137.794C100.044 137.178 99.5769 136.693 98.9889 136.338C98.4102 135.974 97.7802 135.792 97.0989 135.792C96.4175 135.792 95.7829 135.974 95.1949 136.338C94.6162 136.693 94.1495 137.178 93.7949 137.794C93.4495 138.401 93.2769 139.054 93.2769 139.754C93.2769 140.464 93.4495 141.122 93.7949 141.728C94.1495 142.335 94.6162 142.82 95.1949 143.184C95.7829 143.548 96.4175 143.73 97.0989 143.73ZM104.623 134.952H105.715L109.285 141.658L112.855 134.952H113.947V144.57H112.855V137.304L109.285 144.01L105.715 137.304V144.57H104.623V134.952ZM118.382 135.988V139.152H123.604V140.188H118.382V143.534H124.178V144.57H117.276V134.952H124.178V135.988H118.382ZM126.77 134.952H127.862L133.826 142.778V134.952H134.918V144.57H133.826L127.862 136.744V144.57H126.77V134.952ZM85.9605 157.952H87.0525L93.0165 165.778V157.952H94.1085V167.57H93.0165L87.0525 159.744V167.57H85.9605V157.952ZM101.624 167.738C100.756 167.738 99.9391 167.514 99.1737 167.066C98.4177 166.609 97.8157 165.998 97.3677 165.232C96.9197 164.467 96.6957 163.641 96.6957 162.754C96.6957 161.868 96.9197 161.046 97.3677 160.29C97.8157 159.525 98.4177 158.918 99.1737 158.47C99.9391 158.013 100.756 157.784 101.624 157.784C102.501 157.784 103.313 158.013 104.06 158.47C104.816 158.918 105.418 159.525 105.866 160.29C106.314 161.046 106.538 161.868 106.538 162.754C106.538 163.641 106.314 164.467 105.866 165.232C105.418 165.998 104.816 166.609 104.06 167.066C103.313 167.514 102.501 167.738 101.624 167.738ZM101.624 166.73C102.305 166.73 102.935 166.548 103.514 166.184C104.102 165.82 104.568 165.335 104.914 164.728C105.259 164.122 105.432 163.464 105.432 162.754C105.432 162.054 105.259 161.401 104.914 160.794C104.568 160.178 104.102 159.693 103.514 159.338C102.935 158.974 102.305 158.792 101.624 158.792C100.942 158.792 100.308 158.974 99.7197 159.338C99.1411 159.693 98.6744 160.178 98.3197 160.794C97.9744 161.401 97.8017 162.054 97.8017 162.754C97.8017 163.464 97.9744 164.122 98.3197 164.728C98.6744 165.335 99.1411 165.82 99.7197 166.184C100.308 166.548 100.942 166.73 101.624 166.73ZM109.147 157.952H110.239L116.203 165.778V157.952H117.295V167.57H116.203L110.239 159.744V167.57H109.147V157.952ZM120.303 163.258H123.929V164.28H120.303V163.258ZM126.934 157.952H131.344C131.857 157.952 132.315 158.055 132.716 158.26C133.117 158.466 133.43 158.75 133.654 159.114C133.878 159.478 133.99 159.889 133.99 160.346C133.99 160.832 133.873 161.238 133.64 161.564C133.416 161.891 133.075 162.19 132.618 162.46C133.178 162.74 133.607 163.095 133.906 163.524C134.214 163.944 134.368 164.416 134.368 164.938C134.368 165.442 134.247 165.895 134.004 166.296C133.761 166.698 133.421 167.01 132.982 167.234C132.553 167.458 132.063 167.57 131.512 167.57H126.934V157.952ZM131.064 162.026C131.596 162.026 132.03 161.882 132.366 161.592C132.711 161.303 132.884 160.934 132.884 160.486C132.884 160.038 132.711 159.67 132.366 159.38C132.03 159.091 131.596 158.946 131.064 158.946H128.026V162.026H131.064ZM131.232 166.576C131.829 166.576 132.315 166.413 132.688 166.086C133.071 165.75 133.262 165.321 133.262 164.798C133.262 164.276 133.071 163.851 132.688 163.524C132.315 163.188 131.829 163.02 131.232 163.02H128.026V166.576H131.232ZM137.058 157.952H138.15V167.57H137.058V157.952ZM141.48 157.952H142.572L148.536 165.778V157.952H149.628V167.57H148.536L142.572 159.744V167.57H141.48V157.952ZM159.3 165.386H153.938L152.972 167.57H151.782L156.024 157.952H157.214L161.456 167.57H160.266L159.3 165.386ZM158.852 164.35L156.626 159.296L154.386 164.35H158.852ZM171.063 161.032C171.063 161.564 170.932 162.05 170.671 162.488C170.419 162.927 170.064 163.286 169.607 163.566C169.149 163.846 168.636 164.019 168.067 164.084L170.517 167.57H169.271L166.835 164.112H164.707V167.57H163.615V157.952H167.521C168.174 157.952 168.771 158.083 169.313 158.344C169.854 158.606 170.279 158.974 170.587 159.45C170.904 159.917 171.063 160.444 171.063 161.032ZM164.707 163.076H167.325C168.118 163.076 168.753 162.894 169.229 162.53C169.714 162.166 169.957 161.667 169.957 161.032C169.957 160.398 169.714 159.898 169.229 159.534C168.753 159.17 168.118 158.988 167.325 158.988H164.707V163.076ZM176.179 163.65L172.301 157.952H173.659L176.753 162.614L179.875 157.952H181.191L177.327 163.65V167.57H176.179V163.65ZM190.784 157.168H191.974L187.06 168.606H185.87L190.784 157.168ZM202.095 167.738C201.227 167.738 200.41 167.514 199.645 167.066C198.889 166.609 198.287 165.998 197.839 165.232C197.391 164.467 197.167 163.641 197.167 162.754C197.167 161.868 197.391 161.046 197.839 160.29C198.287 159.525 198.889 158.918 199.645 158.47C200.41 158.013 201.227 157.784 202.095 157.784C202.972 157.784 203.784 158.013 204.531 158.47C205.287 158.918 205.889 159.525 206.337 160.29C206.785 161.046 207.009 161.868 207.009 162.754C207.009 163.641 206.785 164.467 206.337 165.232C205.889 165.998 205.287 166.609 204.531 167.066C203.784 167.514 202.972 167.738 202.095 167.738ZM202.095 166.73C202.776 166.73 203.406 166.548 203.985 166.184C204.573 165.82 205.04 165.335 205.385 164.728C205.73 164.122 205.903 163.464 205.903 162.754C205.903 162.054 205.73 161.401 205.385 160.794C205.04 160.178 204.573 159.693 203.985 159.338C203.406 158.974 202.776 158.792 202.095 158.792C201.414 158.792 200.779 158.974 200.191 159.338C199.612 159.693 199.146 160.178 198.791 160.794C198.446 161.401 198.273 162.054 198.273 162.754C198.273 163.464 198.446 164.122 198.791 164.728C199.146 165.335 199.612 165.82 200.191 166.184C200.779 166.548 201.414 166.73 202.095 166.73ZM211.677 158.988H208.443V157.952H216.003V158.988H212.769V167.57H211.677V158.988ZM226.011 157.952V167.57H224.919V163.188H219.249V167.57H218.157V157.952H219.249V162.152H224.919V157.952H226.011ZM230.453 158.988V162.152H235.675V163.188H230.453V166.534H236.249V167.57H229.347V157.952H236.249V158.988H230.453ZM246.29 161.032C246.29 161.564 246.159 162.05 245.898 162.488C245.646 162.927 245.291 163.286 244.834 163.566C244.376 163.846 243.863 164.019 243.294 164.084L245.744 167.57H244.498L242.062 164.112H239.934V167.57H238.842V157.952H242.748C243.401 157.952 243.998 158.083 244.54 158.344C245.081 158.606 245.506 158.974 245.814 159.45C246.131 159.917 246.29 160.444 246.29 161.032ZM239.934 163.076H242.552C243.345 163.076 243.98 162.894 244.456 162.53C244.941 162.166 245.184 161.667 245.184 161.032C245.184 160.398 244.941 159.898 244.456 159.534C243.98 159.17 243.345 158.988 242.552 158.988H239.934V163.076ZM256.997 162.502H260.847V166.268C260.399 166.716 259.83 167.076 259.139 167.346C258.458 167.608 257.781 167.738 257.109 167.738C256.241 167.738 255.424 167.514 254.659 167.066C253.903 166.609 253.301 165.998 252.853 165.232C252.405 164.467 252.181 163.641 252.181 162.754C252.181 161.868 252.405 161.046 252.853 160.29C253.301 159.525 253.903 158.918 254.659 158.47C255.424 158.013 256.241 157.784 257.109 157.784C257.781 157.784 258.462 157.92 259.153 158.19C259.844 158.452 260.408 158.806 260.847 159.254L260.105 160.01C259.76 159.646 259.307 159.352 258.747 159.128C258.187 158.904 257.641 158.792 257.109 158.792C256.428 158.792 255.793 158.974 255.205 159.338C254.626 159.693 254.16 160.178 253.805 160.794C253.46 161.401 253.287 162.054 253.287 162.754C253.287 163.464 253.46 164.122 253.805 164.728C254.16 165.335 254.626 165.82 255.205 166.184C255.793 166.548 256.428 166.73 257.109 166.73C257.557 166.73 258.019 166.651 258.495 166.492C258.98 166.324 259.4 166.105 259.755 165.834V163.538H256.997V162.502ZM264.809 158.988V162.152H270.031V163.188H264.809V166.534H270.605V167.57H263.703V157.952H270.605V158.988H264.809ZM273.198 157.952H274.29L280.254 165.778V157.952H281.346V167.57H280.254L274.29 159.744V167.57H273.198V157.952ZM284.675 157.952H287.923C288.931 157.952 289.827 158.158 290.611 158.568C291.404 158.979 292.02 159.548 292.459 160.276C292.907 161.004 293.131 161.83 293.131 162.754C293.131 163.678 292.907 164.509 292.459 165.246C292.02 165.974 291.404 166.544 290.611 166.954C289.827 167.365 288.931 167.57 287.923 167.57H284.675V157.952ZM287.923 166.576C288.716 166.576 289.421 166.413 290.037 166.086C290.662 165.76 291.148 165.307 291.493 164.728C291.848 164.15 292.025 163.492 292.025 162.754C292.025 162.017 291.848 161.364 291.493 160.794C291.148 160.216 290.662 159.763 290.037 159.436C289.421 159.11 288.716 158.946 287.923 158.946H285.767V166.576H287.923ZM296.821 158.988V162.152H302.043V163.188H296.821V166.534H302.617V167.57H295.715V157.952H302.617V158.988H296.821ZM312.658 161.032C312.658 161.564 312.527 162.05 312.266 162.488C312.014 162.927 311.659 163.286 311.202 163.566C310.744 163.846 310.231 164.019 309.662 164.084L312.112 167.57H310.866L308.43 164.112H306.302V167.57H305.21V157.952H309.116C309.769 157.952 310.366 158.083 310.908 158.344C311.449 158.606 311.874 158.974 312.182 159.45C312.499 159.917 312.658 160.444 312.658 161.032ZM306.302 163.076H308.92C309.713 163.076 310.348 162.894 310.824 162.53C311.309 162.166 311.552 161.667 311.552 161.032C311.552 160.398 311.309 159.898 310.824 159.534C310.348 159.17 309.713 158.988 308.92 158.988H306.302V163.076ZM318.068 167.724C316.574 167.724 315.31 167.216 314.274 166.198L314.96 165.344C315.398 165.783 315.874 166.124 316.388 166.366C316.901 166.609 317.475 166.73 318.11 166.73C318.586 166.73 318.992 166.656 319.328 166.506C319.664 166.348 319.916 166.142 320.084 165.89C320.261 165.629 320.35 165.349 320.35 165.05C320.35 164.565 320.144 164.196 319.734 163.944C319.332 163.683 318.674 163.445 317.76 163.23C317.06 163.062 316.481 162.876 316.024 162.67C315.576 162.465 315.226 162.19 314.974 161.844C314.731 161.49 314.61 161.046 314.61 160.514C314.61 160.01 314.75 159.548 315.03 159.128C315.31 158.708 315.692 158.382 316.178 158.148C316.672 157.906 317.223 157.784 317.83 157.784C318.511 157.784 319.122 157.906 319.664 158.148C320.214 158.382 320.728 158.718 321.204 159.156L320.532 160.01C320.121 159.618 319.682 159.315 319.216 159.1C318.749 158.886 318.268 158.778 317.774 158.778C317.391 158.778 317.041 158.853 316.724 159.002C316.406 159.152 316.159 159.357 315.982 159.618C315.804 159.87 315.716 160.141 315.716 160.43C315.716 160.888 315.916 161.238 316.318 161.48C316.719 161.714 317.382 161.942 318.306 162.166C319.332 162.409 320.112 162.74 320.644 163.16C321.185 163.571 321.456 164.168 321.456 164.952C321.456 165.475 321.325 165.946 321.064 166.366C320.812 166.786 320.429 167.118 319.916 167.36C319.402 167.603 318.786 167.724 318.068 167.724ZM94.2314 180.952H98.1374C98.7907 180.952 99.3881 181.083 99.9294 181.344C100.471 181.606 100.895 181.974 101.203 182.45C101.521 182.917 101.679 183.444 101.679 184.032C101.679 184.62 101.521 185.152 101.203 185.628C100.895 186.095 100.471 186.459 99.9294 186.72C99.3881 186.982 98.7907 187.112 98.1374 187.112H95.3234V190.57H94.2314V180.952ZM97.9414 186.076C98.7347 186.076 99.3694 185.894 99.8454 185.53C100.331 185.166 100.573 184.667 100.573 184.032C100.573 183.398 100.331 182.898 99.8454 182.534C99.3694 182.17 98.7347 181.988 97.9414 181.988H95.3234V186.076H97.9414ZM111.543 184.032C111.543 184.564 111.413 185.05 111.151 185.488C110.899 185.927 110.545 186.286 110.087 186.566C109.63 186.846 109.117 187.019 108.547 187.084L110.997 190.57H109.751L107.315 187.112H105.187V190.57H104.095V180.952H108.001C108.655 180.952 109.252 181.083 109.793 181.344C110.335 181.606 110.759 181.974 111.067 182.45C111.385 182.917 111.543 183.444 111.543 184.032ZM105.187 186.076H107.805C108.599 186.076 109.233 185.894 109.709 185.53C110.195 185.166 110.437 184.667 110.437 184.032C110.437 183.398 110.195 182.898 109.709 182.534C109.233 182.17 108.599 181.988 107.805 181.988H105.187V186.076ZM115.147 181.988V185.152H120.369V186.188H115.147V189.534H120.943V190.57H114.041V180.952H120.943V181.988H115.147ZM124.642 181.988V185.152H129.864V186.188H124.642V190.57H123.536V180.952H130.438V181.988H124.642ZM133.864 181.988V185.152H139.086V186.188H133.864V189.534H139.66V190.57H132.758V180.952H139.66V181.988H133.864ZM149.7 184.032C149.7 184.564 149.57 185.05 149.308 185.488C149.056 185.927 148.702 186.286 148.244 186.566C147.787 186.846 147.274 187.019 146.704 187.084L149.154 190.57H147.908L145.472 187.112H143.344V190.57H142.252V180.952H146.158C146.812 180.952 147.409 181.083 147.95 181.344C148.492 181.606 148.916 181.974 149.224 182.45C149.542 182.917 149.7 183.444 149.7 184.032ZM143.344 186.076H145.962C146.756 186.076 147.39 185.894 147.866 185.53C148.352 185.166 148.594 184.667 148.594 184.032C148.594 183.398 148.352 182.898 147.866 182.534C147.39 182.17 146.756 181.988 145.962 181.988H143.344V186.076ZM156.334 180.952H157.426L163.39 188.778V180.952H164.482V190.57H163.39L157.426 182.744V190.57H156.334V180.952ZM171.997 190.738C171.129 190.738 170.313 190.514 169.547 190.066C168.791 189.609 168.189 188.998 167.741 188.232C167.293 187.467 167.069 186.641 167.069 185.754C167.069 184.868 167.293 184.046 167.741 183.29C168.189 182.525 168.791 181.918 169.547 181.47C170.313 181.013 171.129 180.784 171.997 180.784C172.875 180.784 173.687 181.013 174.433 181.47C175.189 181.918 175.791 182.525 176.239 183.29C176.687 184.046 176.911 184.868 176.911 185.754C176.911 186.641 176.687 187.467 176.239 188.232C175.791 188.998 175.189 189.609 174.433 190.066C173.687 190.514 172.875 190.738 171.997 190.738ZM171.997 189.73C172.679 189.73 173.309 189.548 173.887 189.184C174.475 188.82 174.942 188.335 175.287 187.728C175.633 187.122 175.805 186.464 175.805 185.754C175.805 185.054 175.633 184.401 175.287 183.794C174.942 183.178 174.475 182.693 173.887 182.338C173.309 181.974 172.679 181.792 171.997 181.792C171.316 181.792 170.681 181.974 170.093 182.338C169.515 182.693 169.048 183.178 168.693 183.794C168.348 184.401 168.175 185.054 168.175 185.754C168.175 186.464 168.348 187.122 168.693 187.728C169.048 188.335 169.515 188.82 170.093 189.184C170.681 189.548 171.316 189.73 171.997 189.73ZM181.579 181.988H178.345V180.952H185.905V181.988H182.671V190.57H181.579V181.988ZM194.252 181.988H191.018V180.952H198.578V181.988H195.344V190.57H194.252V181.988ZM204.918 190.738C204.05 190.738 203.233 190.514 202.468 190.066C201.712 189.609 201.11 188.998 200.662 188.232C200.214 187.467 199.99 186.641 199.99 185.754C199.99 184.868 200.214 184.046 200.662 183.29C201.11 182.525 201.712 181.918 202.468 181.47C203.233 181.013 204.05 180.784 204.918 180.784C205.795 180.784 206.607 181.013 207.354 181.47C208.11 181.918 208.712 182.525 209.16 183.29C209.608 184.046 209.832 184.868 209.832 185.754C209.832 186.641 209.608 187.467 209.16 188.232C208.712 188.998 208.11 189.609 207.354 190.066C206.607 190.514 205.795 190.738 204.918 190.738ZM204.918 189.73C205.599 189.73 206.229 189.548 206.808 189.184C207.396 188.82 207.863 188.335 208.208 187.728C208.553 187.122 208.726 186.464 208.726 185.754C208.726 185.054 208.553 184.401 208.208 183.794C207.863 183.178 207.396 182.693 206.808 182.338C206.229 181.974 205.599 181.792 204.918 181.792C204.237 181.792 203.602 181.974 203.014 182.338C202.435 182.693 201.969 183.178 201.614 183.794C201.269 184.401 201.096 185.054 201.096 185.754C201.096 186.464 201.269 187.122 201.614 187.728C201.969 188.335 202.435 188.82 203.014 189.184C203.602 189.548 204.237 189.73 204.918 189.73ZM222.919 188.386H217.557L216.591 190.57H215.401L219.643 180.952H220.833L225.075 190.57H223.885L222.919 188.386ZM222.471 187.35L220.245 182.296L218.005 187.35H222.471ZM227.234 180.952H228.326L234.29 188.778V180.952H235.382V190.57H234.29L228.326 182.744V190.57H227.234V180.952ZM241.623 190.724C240.13 190.724 238.865 190.216 237.829 189.198L238.515 188.344C238.954 188.783 239.43 189.124 239.943 189.366C240.457 189.609 241.031 189.73 241.665 189.73C242.141 189.73 242.547 189.656 242.883 189.506C243.219 189.348 243.471 189.142 243.639 188.89C243.817 188.629 243.905 188.349 243.905 188.05C243.905 187.565 243.7 187.196 243.289 186.944C242.888 186.683 242.23 186.445 241.315 186.23C240.615 186.062 240.037 185.876 239.579 185.67C239.131 185.465 238.781 185.19 238.529 184.844C238.287 184.49 238.165 184.046 238.165 183.514C238.165 183.01 238.305 182.548 238.585 182.128C238.865 181.708 239.248 181.382 239.733 181.148C240.228 180.906 240.779 180.784 241.385 180.784C242.067 180.784 242.678 180.906 243.219 181.148C243.77 181.382 244.283 181.718 244.759 182.156L244.087 183.01C243.677 182.618 243.238 182.315 242.771 182.1C242.305 181.886 241.824 181.778 241.329 181.778C240.947 181.778 240.597 181.853 240.279 182.002C239.962 182.152 239.715 182.357 239.537 182.618C239.36 182.87 239.271 183.141 239.271 183.43C239.271 183.888 239.472 184.238 239.873 184.48C240.275 184.714 240.937 184.942 241.861 185.166C242.888 185.409 243.667 185.74 244.199 186.16C244.741 186.571 245.011 187.168 245.011 187.952C245.011 188.475 244.881 188.946 244.619 189.366C244.367 189.786 243.985 190.118 243.471 190.36C242.958 190.603 242.342 190.724 241.623 190.724ZM246.458 180.952H247.69L250.35 188.736L252.898 180.952H254.116L256.664 188.736L259.324 180.952H260.556L257.266 190.57H256.188L253.514 182.38L250.826 190.57H249.748L246.458 180.952ZM263.893 181.988V185.152H269.115V186.188H263.893V189.534H269.689V190.57H262.787V180.952H269.689V181.988H263.893ZM279.73 184.032C279.73 184.564 279.599 185.05 279.338 185.488C279.086 185.927 278.731 186.286 278.274 186.566C277.817 186.846 277.303 187.019 276.734 187.084L279.184 190.57H277.938L275.502 187.112H273.374V190.57H272.282V180.952H276.188C276.841 180.952 277.439 181.083 277.98 181.344C278.521 181.606 278.946 181.974 279.254 182.45C279.571 182.917 279.73 183.444 279.73 184.032ZM273.374 186.076H275.992C276.785 186.076 277.42 185.894 277.896 185.53C278.381 185.166 278.624 184.667 278.624 184.032C278.624 183.398 278.381 182.898 277.896 182.534C277.42 182.17 276.785 181.988 275.992 181.988H273.374V186.076Z" fill="#443F76"></path><path d="M16.5831 265.753C18.3751 265.753 20.0131 266.131 21.4971 266.887C22.9811 267.643 24.1571 268.721 25.0251 270.121C25.8931 271.493 26.3271 273.117 26.3271 274.993C26.3271 276.981 25.8231 278.745 24.8151 280.285C23.8351 281.825 22.4771 283.015 20.7411 283.855C19.0331 284.695 17.1151 285.115 14.9871 285.115C10.8151 285.115 7.65109 283.813 5.49509 281.209C3.33909 278.605 2.26109 275.105 2.26109 270.709C2.26109 267.657 2.82109 264.969 3.94109 262.645C5.06109 260.321 6.65709 258.515 8.72909 257.227C10.8291 255.911 13.2791 255.253 16.0791 255.253C19.4951 255.253 22.5191 256.261 25.1511 258.277L21.8331 263.695C20.8811 262.967 19.9571 262.421 19.0611 262.057C18.1931 261.693 17.2131 261.511 16.1211 261.511C14.4131 261.511 13.0131 262.085 11.9211 263.233C10.8571 264.381 10.1711 265.991 9.86309 268.063C10.7311 267.335 11.7531 266.775 12.9291 266.383C14.1051 265.963 15.3231 265.753 16.5831 265.753ZM14.5251 279.025C15.8411 279.025 16.9051 278.675 17.7171 277.975C18.5291 277.247 18.9351 276.351 18.9351 275.287C18.9351 274.139 18.4871 273.229 17.5911 272.557C16.7231 271.857 15.6451 271.507 14.3571 271.507C13.3771 271.507 12.4811 271.759 11.6691 272.263C10.8851 272.767 10.2831 273.453 9.86309 274.321C10.0871 275.945 10.5631 277.135 11.2911 277.891C12.0191 278.647 13.0971 279.025 14.5251 279.025ZM44.1456 265.753C45.9376 265.753 47.5756 266.131 49.0596 266.887C50.5436 267.643 51.7196 268.721 52.5876 270.121C53.4556 271.493 53.8896 273.117 53.8896 274.993C53.8896 276.981 53.3856 278.745 52.3776 280.285C51.3976 281.825 50.0396 283.015 48.3036 283.855C46.5956 284.695 44.6776 285.115 42.5496 285.115C38.3776 285.115 35.2136 283.813 33.0576 281.209C30.9016 278.605 29.8236 275.105 29.8236 270.709C29.8236 267.657 30.3836 264.969 31.5036 262.645C32.6236 260.321 34.2196 258.515 36.2916 257.227C38.3916 255.911 40.8416 255.253 43.6416 255.253C47.0576 255.253 50.0816 256.261 52.7136 258.277L49.3956 263.695C48.4436 262.967 47.5196 262.421 46.6236 262.057C45.7556 261.693 44.7756 261.511 43.6836 261.511C41.9756 261.511 40.5756 262.085 39.4836 263.233C38.4196 264.381 37.7336 265.991 37.4256 268.063C38.2936 267.335 39.3156 266.775 40.4916 266.383C41.6676 265.963 42.8856 265.753 44.1456 265.753ZM42.0876 279.025C43.4036 279.025 44.4676 278.675 45.2796 277.975C46.0916 277.247 46.4976 276.351 46.4976 275.287C46.4976 274.139 46.0496 273.229 45.1536 272.557C44.2856 271.857 43.2076 271.507 41.9196 271.507C40.9396 271.507 40.0436 271.759 39.2316 272.263C38.4476 272.767 37.8456 273.453 37.4256 274.321C37.6496 275.945 38.1256 277.135 38.8536 277.891C39.5816 278.647 40.6596 279.025 42.0876 279.025ZM65.0301 270.331C63.6021 270.331 62.3281 270.009 61.2081 269.365C60.0881 268.721 59.2201 267.839 58.6041 266.719C57.9881 265.571 57.6801 264.297 57.6801 262.897C57.6801 261.525 57.9881 260.279 58.6041 259.159C59.2201 258.011 60.0741 257.115 61.1661 256.471C62.2861 255.799 63.5741 255.463 65.0301 255.463C66.4861 255.463 67.7741 255.799 68.8941 256.471C70.0141 257.115 70.8821 258.011 71.4981 259.159C72.1141 260.279 72.4221 261.525 72.4221 262.897C72.4221 264.297 72.1001 265.571 71.4561 266.719C70.8401 267.839 69.9721 268.721 68.8521 269.365C67.7321 270.009 66.4581 270.331 65.0301 270.331ZM81.7041 255.757H87.1221L66.9621 284.611H61.5441L81.7041 255.757ZM65.0301 266.257C65.8421 266.257 66.5001 265.963 67.0041 265.375C67.5361 264.759 67.8021 263.933 67.8021 262.897C67.8021 261.889 67.5361 261.077 67.0041 260.461C66.4721 259.845 65.8141 259.537 65.0301 259.537C64.2181 259.537 63.5601 259.845 63.0561 260.461C62.5521 261.049 62.3001 261.861 62.3001 262.897C62.3001 263.905 62.5521 264.717 63.0561 265.333C63.5881 265.949 64.2461 266.257 65.0301 266.257ZM83.5521 285.073C82.1241 285.073 80.8501 284.751 79.7301 284.107C78.6101 283.435 77.7421 282.539 77.1261 281.419C76.5101 280.271 76.2021 279.011 76.2021 277.639C76.2021 276.239 76.5101 274.979 77.1261 273.859C77.7421 272.711 78.6101 271.815 79.7301 271.171C80.8781 270.499 82.1661 270.163 83.5941 270.163C85.0501 270.163 86.3241 270.499 87.4161 271.171C88.5361 271.843 89.4041 272.753 90.0201 273.901C90.6361 275.021 90.9441 276.267 90.9441 277.639C90.9441 279.011 90.6221 280.271 89.9781 281.419C89.3621 282.539 88.4941 283.435 87.3741 284.107C86.2541 284.751 84.9801 285.073 83.5521 285.073ZM83.5941 280.999C84.3781 280.999 85.0221 280.705 85.5261 280.117C86.0581 279.501 86.3241 278.675 86.3241 277.639C86.3241 276.631 86.0581 275.819 85.5261 275.203C84.9941 274.587 84.3361 274.279 83.5521 274.279C82.7401 274.279 82.0821 274.573 81.5781 275.161C81.0741 275.749 80.8221 276.575 80.8221 277.639C80.8221 278.647 81.0741 279.459 81.5781 280.075C82.1101 280.691 82.7821 280.999 83.5941 280.999Z" fill="#477076"></path><path d="M141.455 285.157C138.879 285.157 136.569 284.723 134.525 283.855C132.509 282.987 130.829 281.811 129.485 280.327L133.601 275.581C134.637 276.617 135.799 277.401 137.087 277.933C138.375 278.465 139.705 278.731 141.077 278.731C142.505 278.731 143.611 278.465 144.395 277.933C145.179 277.401 145.571 276.701 145.571 275.833C145.571 274.909 145.179 274.223 144.395 273.775C143.611 273.327 142.323 273.103 140.531 273.103L137.129 273.145V267.097H140.531C141.959 267.125 143.051 266.915 143.807 266.467C144.591 265.991 144.983 265.333 144.983 264.493C144.983 263.625 144.591 262.939 143.807 262.435C143.023 261.931 141.973 261.679 140.657 261.679C138.389 261.679 136.205 262.701 134.105 264.745L130.073 260.377C132.985 256.961 136.765 255.253 141.413 255.253C143.625 255.253 145.557 255.589 147.209 256.261C148.861 256.933 150.121 257.871 150.989 259.075C151.885 260.279 152.333 261.637 152.333 263.149C152.333 264.745 151.843 266.131 150.863 267.307C149.911 268.455 148.609 269.267 146.957 269.743C148.693 270.163 150.121 270.947 151.241 272.095C152.389 273.243 152.963 274.699 152.963 276.463C152.963 278.143 152.487 279.641 151.535 280.957C150.583 282.273 149.239 283.309 147.503 284.065C145.767 284.793 143.751 285.157 141.455 285.157ZM170.642 279.109H156.656L156.026 273.649L169.088 255.799H177.824V273.145H181.478V279.109H177.824V284.611H170.642V279.109ZM170.642 273.145V263.233L163.46 273.145H170.642ZM192.395 270.331C190.967 270.331 189.693 270.009 188.573 269.365C187.453 268.721 186.585 267.839 185.969 266.719C185.353 265.571 185.045 264.297 185.045 262.897C185.045 261.525 185.353 260.279 185.969 259.159C186.585 258.011 187.439 257.115 188.531 256.471C189.651 255.799 190.939 255.463 192.395 255.463C193.851 255.463 195.139 255.799 196.259 256.471C197.379 257.115 198.247 258.011 198.863 259.159C199.479 260.279 199.787 261.525 199.787 262.897C199.787 264.297 199.465 265.571 198.821 266.719C198.205 267.839 197.337 268.721 196.217 269.365C195.097 270.009 193.823 270.331 192.395 270.331ZM209.069 255.757H214.487L194.327 284.611H188.909L209.069 255.757ZM192.395 266.257C193.207 266.257 193.865 265.963 194.369 265.375C194.901 264.759 195.167 263.933 195.167 262.897C195.167 261.889 194.901 261.077 194.369 260.461C193.837 259.845 193.179 259.537 192.395 259.537C191.583 259.537 190.925 259.845 190.421 260.461C189.917 261.049 189.665 261.861 189.665 262.897C189.665 263.905 189.917 264.717 190.421 265.333C190.953 265.949 191.611 266.257 192.395 266.257ZM210.917 285.073C209.489 285.073 208.215 284.751 207.095 284.107C205.975 283.435 205.107 282.539 204.491 281.419C203.875 280.271 203.567 279.011 203.567 277.639C203.567 276.239 203.875 274.979 204.491 273.859C205.107 272.711 205.975 271.815 207.095 271.171C208.243 270.499 209.531 270.163 210.959 270.163C212.415 270.163 213.689 270.499 214.781 271.171C215.901 271.843 216.769 272.753 217.385 273.901C218.001 275.021 218.309 276.267 218.309 277.639C218.309 279.011 217.987 280.271 217.343 281.419C216.727 282.539 215.859 283.435 214.739 284.107C213.619 284.751 212.345 285.073 210.917 285.073ZM210.959 280.999C211.743 280.999 212.387 280.705 212.891 280.117C213.423 279.501 213.689 278.675 213.689 277.639C213.689 276.631 213.423 275.819 212.891 275.203C212.359 274.587 211.701 274.279 210.917 274.279C210.105 274.279 209.447 274.573 208.943 275.161C208.439 275.749 208.187 276.575 208.187 277.639C208.187 278.647 208.439 279.459 208.943 280.075C209.475 280.691 210.147 280.999 210.959 280.999Z" fill="#AB9B32"></path><path d="M242.616 233.03V234.52H246.076V235.85H242.616V238.57H241.136V231.7H246.426V233.03H242.616ZM247.898 231.7H249.378V238.57H247.898V231.7ZM257.001 234.02C257.001 234.554 256.844 235.017 256.531 235.41C256.224 235.797 255.811 236.067 255.291 236.22L256.941 238.57H255.261L253.691 236.34H252.801V238.57H251.321V231.7H254.411C254.904 231.7 255.347 231.8 255.741 232C256.134 232.194 256.441 232.467 256.661 232.82C256.887 233.174 257.001 233.574 257.001 234.02ZM252.801 234.99H254.261C254.627 234.99 254.924 234.904 255.151 234.73C255.377 234.55 255.491 234.314 255.491 234.02C255.491 233.727 255.377 233.494 255.151 233.32C254.924 233.14 254.627 233.05 254.261 233.05H252.801V234.99ZM261.102 238.69C260.502 238.69 259.942 238.594 259.422 238.4C258.908 238.207 258.452 237.924 258.052 237.55L258.892 236.54C259.585 237.14 260.338 237.44 261.152 237.44C261.512 237.44 261.788 237.37 261.982 237.23C262.182 237.084 262.282 236.897 262.282 236.67C262.282 236.51 262.235 236.38 262.142 236.28C262.048 236.18 261.902 236.097 261.702 236.03C261.508 235.957 261.218 235.877 260.832 235.79C260.278 235.664 259.825 235.527 259.472 235.38C259.125 235.227 258.848 235.017 258.642 234.75C258.442 234.484 258.342 234.14 258.342 233.72C258.342 233.3 258.448 232.93 258.662 232.61C258.875 232.284 259.175 232.03 259.562 231.85C259.948 231.67 260.392 231.58 260.892 231.58C261.938 231.58 262.835 231.897 263.582 232.53L262.812 233.6C262.498 233.347 262.172 233.157 261.832 233.03C261.498 232.897 261.168 232.83 260.842 232.83C260.542 232.83 260.298 232.9 260.112 233.04C259.925 233.18 259.832 233.357 259.832 233.57C259.832 233.737 259.878 233.87 259.972 233.97C260.072 234.07 260.222 234.157 260.422 234.23C260.628 234.304 260.925 234.384 261.312 234.47C261.858 234.59 262.305 234.73 262.652 234.89C263.005 235.044 263.278 235.25 263.472 235.51C263.672 235.77 263.772 236.104 263.772 236.51C263.772 236.944 263.665 237.327 263.452 237.66C263.238 237.987 262.928 238.24 262.522 238.42C262.122 238.6 261.648 238.69 261.102 238.69ZM266.875 233.03H264.735V231.7H270.495V233.03H268.345V238.57H266.875V233.03ZM276.387 233.03H274.247V231.7H280.007V233.03H277.857V238.57H276.387V233.03ZM281.383 231.7H282.863V238.57H281.383V231.7ZM284.806 231.7H286.286L288.406 235.58L290.536 231.7H292.006V238.57H290.536V234.29L288.406 238.17L286.286 234.29V238.57H284.806V231.7ZM295.431 233.03V234.4H298.891V235.73H295.431V237.24H299.241V238.57H293.951V231.7H299.241V233.03H295.431ZM306.55 234.02C306.55 234.554 306.393 235.017 306.08 235.41C305.773 235.797 305.36 236.067 304.84 236.22L306.49 238.57H304.81L303.24 236.34H302.35V238.57H300.87V231.7H303.96C304.453 231.7 304.897 231.8 305.29 232C305.683 232.194 305.99 232.467 306.21 232.82C306.437 233.174 306.55 233.574 306.55 234.02ZM302.35 234.99H303.81C304.177 234.99 304.473 234.904 304.7 234.73C304.927 234.55 305.04 234.314 305.04 234.02C305.04 233.727 304.927 233.494 304.7 233.32C304.473 233.14 304.177 233.05 303.81 233.05H302.35V234.99ZM310.651 238.69C310.051 238.69 309.491 238.594 308.971 238.4C308.458 238.207 308.001 237.924 307.601 237.55L308.441 236.54C309.134 237.14 309.888 237.44 310.701 237.44C311.061 237.44 311.338 237.37 311.531 237.23C311.731 237.084 311.831 236.897 311.831 236.67C311.831 236.51 311.784 236.38 311.691 236.28C311.598 236.18 311.451 236.097 311.251 236.03C311.058 235.957 310.768 235.877 310.381 235.79C309.828 235.664 309.374 235.527 309.021 235.38C308.674 235.227 308.398 235.017 308.191 234.75C307.991 234.484 307.891 234.14 307.891 233.72C307.891 233.3 307.998 232.93 308.211 232.61C308.424 232.284 308.724 232.03 309.111 231.85C309.498 231.67 309.941 231.58 310.441 231.58C311.488 231.58 312.384 231.897 313.131 232.53L312.361 233.6C312.048 233.347 311.721 233.157 311.381 233.03C311.048 232.897 310.718 232.83 310.391 232.83C310.091 232.83 309.848 232.9 309.661 233.04C309.474 233.18 309.381 233.357 309.381 233.57C309.381 233.737 309.428 233.87 309.521 233.97C309.621 234.07 309.771 234.157 309.971 234.23C310.178 234.304 310.474 234.384 310.861 234.47C311.408 234.59 311.854 234.73 312.201 234.89C312.554 235.044 312.828 235.25 313.021 235.51C313.221 235.77 313.321 236.104 313.321 236.51C313.321 236.944 313.214 237.327 313.001 237.66C312.788 237.987 312.478 238.24 312.071 238.42C311.671 238.6 311.198 238.69 310.651 238.69Z" fill="#443F76"></path><path d="M249.787 285.157C245.195 285.157 241.373 283.701 238.321 280.789L242.437 275.707C243.585 276.715 244.789 277.513 246.049 278.101C247.309 278.661 248.569 278.941 249.829 278.941C251.285 278.941 252.433 278.591 253.273 277.891C254.113 277.163 254.533 276.267 254.533 275.203C254.533 274.111 254.113 273.243 253.273 272.599C252.461 271.955 251.341 271.633 249.913 271.633C247.925 271.633 246.147 272.235 244.579 273.439L239.833 271.591L240.253 255.757H260.119V262.183H246.847L246.679 267.433C248.219 266.313 250.053 265.753 252.181 265.753C253.889 265.753 255.471 266.117 256.927 266.845C258.383 267.573 259.545 268.637 260.413 270.037C261.281 271.409 261.715 273.047 261.715 274.951C261.715 277.023 261.225 278.829 260.245 280.369C259.265 281.909 257.879 283.099 256.087 283.939C254.295 284.751 252.195 285.157 249.787 285.157ZM279.265 279.109H265.279L264.649 273.649L277.711 255.799H286.447V273.145H290.101V279.109H286.447V284.611H279.265V279.109ZM279.265 273.145V263.233L272.083 273.145H279.265ZM301.018 270.331C299.59 270.331 298.316 270.009 297.196 269.365C296.076 268.721 295.208 267.839 294.592 266.719C293.976 265.571 293.668 264.297 293.668 262.897C293.668 261.525 293.976 260.279 294.592 259.159C295.208 258.011 296.062 257.115 297.154 256.471C298.274 255.799 299.562 255.463 301.018 255.463C302.474 255.463 303.762 255.799 304.882 256.471C306.002 257.115 306.87 258.011 307.486 259.159C308.102 260.279 308.41 261.525 308.41 262.897C308.41 264.297 308.088 265.571 307.444 266.719C306.828 267.839 305.96 268.721 304.84 269.365C303.72 270.009 302.446 270.331 301.018 270.331ZM317.692 255.757H323.11L302.95 284.611H297.532L317.692 255.757ZM301.018 266.257C301.83 266.257 302.488 265.963 302.992 265.375C303.524 264.759 303.79 263.933 303.79 262.897C303.79 261.889 303.524 261.077 302.992 260.461C302.46 259.845 301.802 259.537 301.018 259.537C300.206 259.537 299.548 259.845 299.044 260.461C298.54 261.049 298.288 261.861 298.288 262.897C298.288 263.905 298.54 264.717 299.044 265.333C299.576 265.949 300.234 266.257 301.018 266.257ZM319.54 285.073C318.112 285.073 316.838 284.751 315.718 284.107C314.598 283.435 313.73 282.539 313.114 281.419C312.498 280.271 312.19 279.011 312.19 277.639C312.19 276.239 312.498 274.979 313.114 273.859C313.73 272.711 314.598 271.815 315.718 271.171C316.866 270.499 318.154 270.163 319.582 270.163C321.038 270.163 322.312 270.499 323.404 271.171C324.524 271.843 325.392 272.753 326.008 273.901C326.624 275.021 326.932 276.267 326.932 277.639C326.932 279.011 326.61 280.271 325.966 281.419C325.35 282.539 324.482 283.435 323.362 284.107C322.242 284.751 320.968 285.073 319.54 285.073ZM319.582 280.999C320.366 280.999 321.01 280.705 321.514 280.117C322.046 279.501 322.312 278.675 322.312 277.639C322.312 276.631 322.046 275.819 321.514 275.203C320.982 274.587 320.324 274.279 319.54 274.279C318.728 274.279 318.07 274.573 317.566 275.161C317.062 275.749 316.81 276.575 316.81 277.639C316.81 278.647 317.062 279.459 317.566 280.075C318.098 280.691 318.77 280.999 319.582 280.999Z" fill="#C93566"></path><path d="M0.892578 325.994H177.473V339.994H0.892578V325.994Z" fill="#C93566"></path></svg> 