<?xml version="1.0" encoding="UTF-8"?> <svg xmlns="http://www.w3.org/2000/svg" width="328" height="340" viewBox="0 0 328 340" fill="none"><path d="M0.892578 73.5703H327.893V87.5703H0.892578V73.5703Z" fill="#081974"></path><path d="M173.893 73.5703H327.893V87.5703H173.893V73.5703Z" fill="#D0D0D0"></path><path d="M145.48 73.5703H183.48V87.5703H145.48V73.5703Z" fill="#7340AE"></path><path d="M0.892578 302.57H208.098V316.57H0.892578V302.57Z" fill="#0098CC"></path><path d="M208.098 302.57H327.893V316.57H208.098V302.57Z" fill="#A4BD0B"></path><path d="M9.17447 56.5898V35.8418L4.30247 38.8658L1.44647 33.8678L10.6025 27.7358H16.3565V56.5898H9.17447ZM35.8058 37.7318C41.1398 37.7318 45.5498 41.2178 45.5498 46.9718C45.5498 53.0618 40.6358 57.0938 34.2098 57.0938C25.5998 57.0938 21.4838 51.1718 21.4838 42.6878C21.4838 33.5318 26.8178 27.2318 35.3018 27.2318C38.9138 27.2318 41.8958 28.3658 44.3738 30.2558L41.0558 35.6738C39.2918 34.2878 37.6538 33.4898 35.3438 33.4898C31.8998 33.4898 29.7158 35.9258 29.0858 40.0418C30.8078 38.6138 33.2858 37.7318 35.8058 37.7318ZM33.7478 51.0038C36.4358 51.0038 38.1578 49.3238 38.1578 47.2658C38.1578 44.8718 36.0578 43.4858 33.5798 43.4858C31.6058 43.4858 29.9258 44.5778 29.0858 46.2998C29.5478 49.4498 30.8498 51.0038 33.7478 51.0038ZM53.5403 62.9318L51.1043 61.0838C52.4903 59.9078 53.4143 58.4798 53.7923 57.0938C51.5243 57.0938 49.6343 55.1198 49.6343 52.8098C49.6343 50.4158 51.6083 48.4418 53.9183 48.4418C56.5643 48.4418 58.3703 50.8778 58.3703 54.2798C58.3703 57.0518 56.6903 60.0758 53.5403 62.9318ZM76.2216 57.0938C68.4516 57.0938 62.9496 50.9198 62.9496 42.1418C62.9496 33.4058 68.4516 27.2318 76.2216 27.2318C84.0336 27.2318 89.5356 33.4058 89.5356 42.1418C89.5356 50.9198 84.0336 57.0938 76.2216 57.0938ZM76.2216 50.5838C79.7076 50.5838 82.1436 47.0558 82.1436 42.1418C82.1436 37.2278 79.7076 33.7418 76.2216 33.7418C72.7776 33.7418 70.3416 37.2278 70.3416 42.1418C70.3416 47.0558 72.7776 50.5838 76.2216 50.5838ZM104.307 27.2318C112.917 27.2318 117.033 33.1538 117.033 41.6378C117.033 50.7938 111.699 57.0938 103.215 57.0938C99.6031 57.0938 96.6211 55.9598 94.1431 54.0698L97.4611 48.6518C99.2251 50.0378 100.863 50.8358 103.173 50.8358C106.617 50.8358 108.801 48.3998 109.431 44.2838C107.709 45.7118 105.231 46.5938 102.711 46.5938C97.3771 46.5938 92.9671 43.1078 92.9671 37.3538C92.9671 31.2638 97.8811 27.2318 104.307 27.2318ZM104.937 40.8398C106.911 40.8398 108.591 39.7478 109.431 38.0258C108.969 34.8758 107.667 33.3218 104.769 33.3218C102.081 33.3218 100.359 35.0018 100.359 37.0598C100.359 39.4538 102.459 40.8398 104.937 40.8398ZM120.74 56.5898V50.7518L131.408 42.7718C134.642 40.3358 135.566 38.7398 135.566 36.9758C135.566 35.0018 133.844 33.7418 131.744 33.7418C129.056 33.7418 127.04 35.0438 124.856 37.3538L120.362 32.9018C123.428 29.2058 127.166 27.2318 131.912 27.2318C138.38 27.2318 142.916 31.1798 142.916 36.6818C142.916 40.5038 141.32 43.4858 136.28 46.9298L131.744 50.1638H143.21V56.5898H120.74Z" fill="#1E1D40"></path><path d="M1.53406 238.57L1.53406 231.7H3.01406L3.01406 238.57H1.53406ZM4.95672 238.57L4.95672 231.7H6.43672L9.74672 236.14V231.7H11.2267L11.2267 238.57H9.74672L6.43672 234.13L6.43672 238.57H4.95672ZM16.0891 238.57V231.7H19.1791C20.6791 231.7 21.7691 232.66 21.7691 234.02C21.7691 235.38 20.6791 236.34 19.1791 236.34H17.5691V238.57H16.0891ZM17.5691 234.99H19.0291C19.7591 234.99 20.2591 234.61 20.2591 234.02C20.2591 233.43 19.7591 233.05 19.0291 233.05H17.5691V234.99ZM28.5323 233.03H24.7223V234.4H28.1823V235.73H24.7223V237.24H28.5323V238.57H23.2423V231.7H28.5323V233.03ZM35.841 234.02C35.841 235.1 35.161 235.92 34.131 236.22L35.781 238.57H34.101L32.531 236.34H31.641V238.57H30.161V231.7H33.251C34.751 231.7 35.841 232.66 35.841 234.02ZM31.641 233.05V234.99H33.101C33.831 234.99 34.331 234.61 34.331 234.02C34.331 233.43 33.831 233.05 33.101 233.05H31.641ZM39.942 238.69C38.742 238.69 37.692 238.29 36.892 237.55L37.732 236.54C38.382 237.1 39.122 237.44 39.992 237.44C40.742 237.44 41.122 237.1 41.122 236.67C41.122 236.18 40.722 236.03 39.672 235.79C38.222 235.46 37.182 235.05 37.182 233.72C37.182 232.45 38.222 231.58 39.732 231.58C40.852 231.58 41.712 231.93 42.422 232.53L41.652 233.6C41.032 233.1 40.342 232.83 39.682 232.83C39.062 232.83 38.672 233.16 38.672 233.57C38.672 234.07 39.092 234.23 40.152 234.47C41.632 234.8 42.612 235.24 42.612 236.51C42.612 237.82 41.612 238.69 39.942 238.69ZM47.3755 238.69C45.3955 238.69 43.7155 237.06 43.7155 235.13C43.7155 233.2 45.3955 231.58 47.3755 231.58C49.3555 231.58 51.0155 233.2 51.0155 235.13C51.0155 237.06 49.3555 238.69 47.3755 238.69ZM47.3755 237.35C48.5255 237.35 49.5055 236.33 49.5055 235.13C49.5055 233.94 48.5255 232.92 47.3755 232.92C46.2155 232.92 45.2355 233.94 45.2355 235.13C45.2355 236.33 46.2155 237.35 47.3755 237.35ZM52.5579 238.57V231.7H54.0379L57.3479 236.14V231.7H58.8279V238.57H57.3479L54.0379 234.13V238.57H52.5579Z" fill="#1E0060"></path><path d="M6.92109 6.02031C6.92109 4.66031 5.83109 3.70031 4.33109 3.70031L1.24109 3.70031L1.24109 10.5703H2.72109L2.72109 8.34031H3.61109L5.18109 10.5703L6.86109 10.5703L5.21109 8.22031C6.24109 7.92031 6.92109 7.10031 6.92109 6.02031ZM2.72109 5.05031L4.18109 5.05031C4.91109 5.05031 5.41109 5.43031 5.41109 6.02031C5.41109 6.61031 4.91109 6.99031 4.18109 6.99031L2.72109 6.99031V5.05031ZM13.7721 5.03031V3.70031L8.48211 3.70031L8.48211 10.5703H13.7721V9.24031H9.96211V7.73031H13.4221V6.40031H9.96211L9.96211 5.03031H13.7721ZM18.4209 7.86031L20.0109 7.86031V8.91031C19.6309 9.19031 19.1409 9.35031 18.6809 9.35031C17.5009 9.35031 16.5109 8.33031 16.5109 7.13031C16.5109 5.94031 17.5009 4.92031 18.6809 4.92031C19.3109 4.92031 19.9709 5.22031 20.3809 5.69031L21.4509 4.73031C20.7709 4.01031 19.7009 3.58031 18.6809 3.58031C16.6809 3.58031 14.9909 5.20031 14.9909 7.13031C14.9909 9.06031 16.6809 10.6903 18.6809 10.6903C19.7009 10.6903 20.7709 10.2603 21.4509 9.54031V6.71031L18.4209 6.71031V7.86031ZM23.1204 10.5703H24.6004V3.70031L23.1204 3.70031V10.5703ZM29.083 10.6903C30.753 10.6903 31.753 9.82031 31.753 8.51031C31.753 7.24031 30.773 6.80031 29.293 6.47031C28.233 6.23031 27.813 6.07031 27.813 5.57031C27.813 5.16031 28.203 4.83031 28.823 4.83031C29.483 4.83031 30.173 5.10031 30.793 5.60031L31.563 4.53031C30.853 3.93031 29.993 3.58031 28.873 3.58031C27.363 3.58031 26.323 4.45031 26.323 5.72031C26.323 7.05031 27.363 7.46031 28.813 7.79031C29.863 8.03031 30.263 8.18031 30.263 8.67031C30.263 9.10031 29.883 9.44031 29.133 9.44031C28.263 9.44031 27.523 9.10031 26.873 8.54031L26.033 9.55031C26.833 10.2903 27.883 10.6903 29.083 10.6903ZM34.8565 10.5703H36.3265V5.03031L38.4765 5.03031V3.70031L32.7165 3.70031V5.03031H34.8565V10.5703ZM45.1432 5.03031V3.70031L39.8532 3.70031V10.5703H45.1432V9.24031H41.3332V7.73031L44.7932 7.73031V6.40031L41.3332 6.40031V5.03031L45.1432 5.03031ZM52.452 6.02031C52.452 4.66031 51.362 3.70031 49.862 3.70031L46.772 3.70031V10.5703H48.252V8.34031H49.142L50.712 10.5703H52.392L50.742 8.22031C51.772 7.92031 52.452 7.10031 52.452 6.02031ZM48.252 5.05031H49.712C50.442 5.05031 50.942 5.43031 50.942 6.02031C50.942 6.61031 50.442 6.99031 49.712 6.99031H48.252V5.05031ZM59.303 5.03031V3.70031L54.013 3.70031V10.5703H59.303V9.24031H55.493V7.73031L58.953 7.73031V6.40031L55.493 6.40031V5.03031L59.303 5.03031ZM60.9317 10.5703L63.4017 10.5703C65.7117 10.5703 67.3517 9.14031 67.3517 7.13031C67.3517 5.12031 65.7117 3.70031 63.4017 3.70031L60.9317 3.70031V10.5703ZM62.4117 9.23031V5.04031H63.5917C64.9017 5.04031 65.8317 5.91031 65.8317 7.13031C65.8317 8.36031 64.9017 9.23031 63.5917 9.23031H62.4117Z" fill="#1E1D40"></path><path d="M137.616 231.7H139.276L136.476 238.57H134.826L132.026 231.7H133.686L135.656 236.54L137.616 231.7ZM140.609 238.57V231.7H142.089V238.57H140.609ZM149.712 234.02C149.712 235.1 149.032 235.92 148.002 236.22L149.652 238.57H147.972L146.402 236.34H145.512V238.57H144.032V231.7H147.122C148.622 231.7 149.712 232.66 149.712 234.02ZM145.512 233.05V234.99H146.972C147.702 234.99 148.202 234.61 148.202 234.02C148.202 233.43 147.702 233.05 146.972 233.05H145.512ZM152.863 238.57V233.03H150.723V231.7H156.483V233.03H154.333V238.57H152.863ZM160.819 238.69C158.989 238.69 157.709 237.41 157.709 235.6V231.7H159.179V235.54C159.179 236.6 159.859 237.35 160.819 237.35C161.769 237.35 162.449 236.6 162.449 235.54V231.7H163.929V235.6C163.929 237.41 162.639 238.69 160.819 238.69ZM170.686 238.57L170.206 237.39H167.226L166.746 238.57H165.096L167.896 231.7H169.546L172.346 238.57H170.686ZM167.696 236.24H169.736L168.716 233.73L167.696 236.24ZM175.15 237.24H178.57V238.57H173.67V231.7H175.15V237.24Z" fill="#1E0060"></path><path d="M23.9854 121.57V119.736H19.3234L19.1134 117.916L23.4674 111.966H26.3794V117.748H27.5974V119.736H26.3794V121.57H23.9854ZM21.5914 117.748H23.9854V114.444L21.5914 117.748ZM28.6606 121.57V119.624L32.2166 116.964C33.2946 116.152 33.6026 115.62 33.6026 115.032C33.6026 114.374 33.0286 113.954 32.3286 113.954C31.4326 113.954 30.7606 114.388 30.0326 115.158L28.5346 113.674C29.5566 112.442 30.8026 111.784 32.3846 111.784C34.5406 111.784 36.0526 113.1 36.0526 114.934C36.0526 116.208 35.5206 117.202 33.8406 118.35L32.3286 119.428H36.1506V121.57H28.6606ZM40.0003 116.81C38.5303 116.81 37.5503 115.732 37.5503 114.332C37.5503 112.96 38.5163 111.854 40.0003 111.854C41.4983 111.854 42.4643 112.974 42.4643 114.332C42.4643 115.732 41.4563 116.81 40.0003 116.81ZM38.8383 121.57L45.5583 111.952H47.3643L40.6443 121.57H38.8383ZM40.0003 115.452C40.5323 115.452 40.9243 115.032 40.9243 114.332C40.9243 113.646 40.5183 113.212 40.0003 113.212C39.4683 113.212 39.0903 113.632 39.0903 114.332C39.0903 115.018 39.4823 115.452 40.0003 115.452ZM46.1743 121.724C44.7043 121.724 43.7243 120.618 43.7243 119.246C43.7243 117.846 44.7183 116.754 46.1883 116.754C47.6723 116.754 48.6383 117.874 48.6383 119.246C48.6383 120.632 47.6303 121.724 46.1743 121.724ZM46.1883 120.366C46.7063 120.366 47.0983 119.946 47.0983 119.246C47.0983 118.56 46.6923 118.126 46.1743 118.126C45.6423 118.126 45.2643 118.532 45.2643 119.246C45.2643 119.932 45.6563 120.366 46.1883 120.366Z" fill="#1E0060"></path><path d="M39.3005 138.284C41.0785 138.284 42.5485 139.446 42.5485 141.364C42.5485 143.394 40.9105 144.738 38.7685 144.738C35.8985 144.738 34.5265 142.764 34.5265 139.936C34.5265 136.884 36.3045 134.784 39.1325 134.784C40.3365 134.784 41.3305 135.162 42.1565 135.792L41.0505 137.598C40.4625 137.136 39.9165 136.87 39.1465 136.87C37.9985 136.87 37.2705 137.682 37.0605 139.054C37.6345 138.578 38.4605 138.284 39.3005 138.284ZM38.6145 142.708C39.5105 142.708 40.0845 142.148 40.0845 141.462C40.0845 140.664 39.3845 140.202 38.5585 140.202C37.9005 140.202 37.3405 140.566 37.0605 141.14C37.2145 142.19 37.6485 142.708 38.6145 142.708ZM46.262 139.81C44.792 139.81 43.812 138.732 43.812 137.332C43.812 135.96 44.778 134.854 46.262 134.854C47.76 134.854 48.726 135.974 48.726 137.332C48.726 138.732 47.718 139.81 46.262 139.81ZM45.1 144.57L51.82 134.952H53.626L46.906 144.57H45.1ZM46.262 138.452C46.794 138.452 47.186 138.032 47.186 137.332C47.186 136.646 46.78 136.212 46.262 136.212C45.73 136.212 45.352 136.632 45.352 137.332C45.352 138.018 45.744 138.452 46.262 138.452ZM52.436 144.724C50.966 144.724 49.986 143.618 49.986 142.246C49.986 140.846 50.98 139.754 52.45 139.754C53.934 139.754 54.9 140.874 54.9 142.246C54.9 143.632 53.892 144.724 52.436 144.724ZM52.45 143.366C52.968 143.366 53.36 142.946 53.36 142.246C53.36 141.56 52.954 141.126 52.436 141.126C51.904 141.126 51.526 141.532 51.526 142.246C51.526 142.932 51.918 143.366 52.45 143.366Z" fill="#7340AE"></path><path d="M48.89 166.45L42.296 163.706V161.816L48.89 159.072V160.948L44.116 162.768L48.89 164.56V166.45ZM52.7769 167.57V160.654L51.1529 161.662L50.2009 159.996L53.2529 157.952H55.1709V167.57H52.7769ZM59.428 162.81C57.958 162.81 56.978 161.732 56.978 160.332C56.978 158.96 57.944 157.854 59.428 157.854C60.926 157.854 61.892 158.974 61.892 160.332C61.892 161.732 60.884 162.81 59.428 162.81ZM58.266 167.57L64.986 157.952H66.792L60.072 167.57H58.266ZM59.428 161.452C59.96 161.452 60.352 161.032 60.352 160.332C60.352 159.646 59.946 159.212 59.428 159.212C58.896 159.212 58.518 159.632 58.518 160.332C58.518 161.018 58.91 161.452 59.428 161.452ZM65.602 167.724C64.132 167.724 63.152 166.618 63.152 165.246C63.152 163.846 64.146 162.754 65.616 162.754C67.1 162.754 68.066 163.874 68.066 165.246C68.066 166.632 67.058 167.724 65.602 167.724ZM65.616 166.366C66.134 166.366 66.526 165.946 66.526 165.246C66.526 164.56 66.12 164.126 65.602 164.126C65.07 164.126 64.692 164.532 64.692 165.246C64.692 165.932 65.084 166.366 65.616 166.366Z" fill="#EA62A5"></path><path d="M57.1984 190.752C55.5464 190.752 54.3144 190.192 53.3764 189.296L54.7484 187.602C55.4764 188.246 56.3444 188.68 57.2124 188.68C58.2204 188.68 58.7804 188.12 58.7804 187.434C58.7804 186.72 58.1924 186.244 57.2404 186.244C56.5544 186.244 55.9524 186.468 55.4624 186.846L53.8804 186.23L54.0204 180.952H60.6424V183.094H56.2184L56.1624 184.844C56.6244 184.508 57.2264 184.284 57.9964 184.284C59.6764 184.284 61.1744 185.376 61.1744 187.35C61.1744 189.436 59.6204 190.752 57.1984 190.752ZM62.3344 190.57V188.624L65.8904 185.964C66.9684 185.152 67.2764 184.62 67.2764 184.032C67.2764 183.374 66.7024 182.954 66.0024 182.954C65.1064 182.954 64.4344 183.388 63.7064 184.158L62.2084 182.674C63.2304 181.442 64.4764 180.784 66.0584 180.784C68.2144 180.784 69.7264 182.1 69.7264 183.934C69.7264 185.208 69.1944 186.202 67.5144 187.35L66.0024 188.428H69.8244V190.57H62.3344ZM73.6741 185.81C72.2041 185.81 71.2241 184.732 71.2241 183.332C71.2241 181.96 72.1901 180.854 73.6741 180.854C75.1721 180.854 76.1381 181.974 76.1381 183.332C76.1381 184.732 75.1301 185.81 73.6741 185.81ZM72.5121 190.57L79.2321 180.952H81.0381L74.3181 190.57H72.5121ZM73.6741 184.452C74.2061 184.452 74.5981 184.032 74.5981 183.332C74.5981 182.646 74.1921 182.212 73.6741 182.212C73.1421 182.212 72.7641 182.632 72.7641 183.332C72.7641 184.018 73.1561 184.452 73.6741 184.452ZM79.8481 190.724C78.3781 190.724 77.3981 189.618 77.3981 188.246C77.3981 186.846 78.3921 185.754 79.8621 185.754C81.3461 185.754 82.3121 186.874 82.3121 188.246C82.3121 189.632 81.3041 190.724 79.8481 190.724ZM79.8621 189.366C80.3801 189.366 80.7721 188.946 80.7721 188.246C80.7721 187.56 80.3661 187.126 79.8481 187.126C79.3161 187.126 78.9381 187.532 78.9381 188.246C78.9381 188.932 79.3301 189.366 79.8621 189.366Z" fill="#747474"></path><path d="M69.4186 121.57V111.952H70.5106L74.0806 118.658L77.6506 111.952H78.7426V121.57H77.6506V114.304L74.0806 121.01L70.5106 114.304V121.57H69.4186ZM88.9736 112.988H83.1776V116.152H88.3996V117.188H83.1776V120.534H88.9736V121.57H82.0716V111.952H88.9736V112.988ZM91.5665 121.57V111.952H92.6585L98.6225 119.778V111.952H99.7145V121.57H98.6225L92.6585 113.744V121.57H91.5665ZM79.8735 144.57L76.5835 134.952H77.8155L80.4755 142.736L83.0235 134.952H84.2415L86.7895 142.736L89.4495 134.952H90.6815L87.3915 144.57H86.3135L83.6395 136.38L80.9515 144.57H79.8735ZM97.0989 144.738C94.4389 144.738 92.1709 142.456 92.1709 139.754C92.1709 137.052 94.4389 134.784 97.0989 134.784C99.7729 134.784 102.013 137.052 102.013 139.754C102.013 142.456 99.7729 144.738 97.0989 144.738ZM97.0989 143.73C99.1709 143.73 100.907 141.91 100.907 139.754C100.907 137.612 99.1709 135.792 97.0989 135.792C95.0269 135.792 93.2769 137.612 93.2769 139.754C93.2769 141.91 95.0269 143.73 97.0989 143.73ZM104.623 144.57V134.952H105.715L109.285 141.658L112.855 134.952H113.947V144.57H112.855V137.304L109.285 144.01L105.715 137.304V144.57H104.623ZM124.178 135.988H118.382V139.152H123.604V140.188H118.382V143.534H124.178V144.57H117.276V134.952H124.178V135.988ZM126.77 144.57V134.952H127.862L133.826 142.778V134.952H134.918V144.57H133.826L127.862 136.744V144.57H126.77ZM85.9605 167.57V157.952H87.0525L93.0165 165.778V157.952H94.1085V167.57H93.0165L87.0525 159.744V167.57H85.9605ZM101.624 167.738C98.9637 167.738 96.6957 165.456 96.6957 162.754C96.6957 160.052 98.9637 157.784 101.624 157.784C104.298 157.784 106.538 160.052 106.538 162.754C106.538 165.456 104.298 167.738 101.624 167.738ZM101.624 166.73C103.696 166.73 105.432 164.91 105.432 162.754C105.432 160.612 103.696 158.792 101.624 158.792C99.5517 158.792 97.8017 160.612 97.8017 162.754C97.8017 164.91 99.5517 166.73 101.624 166.73ZM109.147 167.57V157.952H110.239L116.203 165.778V157.952H117.295V167.57H116.203L110.239 159.744V167.57H109.147ZM120.303 164.28V163.258H123.929V164.28H120.303ZM126.934 167.57V157.952H131.344C132.898 157.952 133.99 158.946 133.99 160.346C133.99 161.368 133.486 161.956 132.618 162.46C133.724 163.02 134.368 163.888 134.368 164.938C134.368 166.478 133.178 167.57 131.512 167.57H126.934ZM128.026 162.026H131.064C132.128 162.026 132.884 161.382 132.884 160.486C132.884 159.59 132.128 158.946 131.064 158.946H128.026V162.026ZM128.026 166.576H131.232C132.422 166.576 133.262 165.834 133.262 164.798C133.262 163.762 132.422 163.02 131.232 163.02H128.026V166.576ZM137.058 167.57V157.952H138.15V167.57H137.058ZM141.48 167.57V157.952H142.572L148.536 165.778V157.952H149.628V167.57H148.536L142.572 159.744V167.57H141.48ZM160.266 167.57L159.3 165.386H153.938L152.972 167.57H151.782L156.024 157.952H157.214L161.456 167.57H160.266ZM154.386 164.35H158.852L156.626 159.296L154.386 164.35ZM171.063 161.032C171.063 162.67 169.789 163.874 168.067 164.084L170.517 167.57H169.271L166.835 164.112H164.707V167.57H163.615V157.952H167.521C169.509 157.952 171.063 159.226 171.063 161.032ZM164.707 158.988V163.076H167.325C168.893 163.076 169.957 162.32 169.957 161.032C169.957 159.744 168.893 158.988 167.325 158.988H164.707ZM176.179 167.57V163.65L172.301 157.952H173.659L176.753 162.614L179.875 157.952H181.191L177.327 163.65V167.57H176.179ZM185.87 168.606L190.784 157.168H191.974L187.06 168.606H185.87ZM202.095 167.738C199.435 167.738 197.167 165.456 197.167 162.754C197.167 160.052 199.435 157.784 202.095 157.784C204.769 157.784 207.009 160.052 207.009 162.754C207.009 165.456 204.769 167.738 202.095 167.738ZM202.095 166.73C204.167 166.73 205.903 164.91 205.903 162.754C205.903 160.612 204.167 158.792 202.095 158.792C200.023 158.792 198.273 160.612 198.273 162.754C198.273 164.91 200.023 166.73 202.095 166.73ZM211.677 167.57V158.988H208.443V157.952H216.003V158.988H212.769V167.57H211.677ZM224.919 157.952H226.011V167.57H224.919V163.188H219.249V167.57H218.157V157.952H219.249V162.152H224.919V157.952ZM236.249 158.988H230.453V162.152H235.675V163.188H230.453V166.534H236.249V167.57H229.347V157.952H236.249V158.988ZM246.29 161.032C246.29 162.67 245.016 163.874 243.294 164.084L245.744 167.57H244.498L242.062 164.112H239.934V167.57H238.842V157.952H242.748C244.736 157.952 246.29 159.226 246.29 161.032ZM239.934 158.988V163.076H242.552C244.12 163.076 245.184 162.32 245.184 161.032C245.184 159.744 244.12 158.988 242.552 158.988H239.934ZM256.997 163.538V162.502H260.847V166.268C259.951 167.164 258.439 167.738 257.109 167.738C254.449 167.738 252.181 165.456 252.181 162.754C252.181 160.052 254.449 157.784 257.109 157.784C258.439 157.784 259.951 158.344 260.847 159.254L260.105 160.01C259.405 159.268 258.159 158.792 257.109 158.792C255.037 158.792 253.287 160.612 253.287 162.754C253.287 164.91 255.037 166.73 257.109 166.73C258.005 166.73 259.041 166.38 259.755 165.834V163.538H256.997ZM270.605 158.988H264.809V162.152H270.031V163.188H264.809V166.534H270.605V167.57H263.703V157.952H270.605V158.988ZM273.198 167.57V157.952H274.29L280.254 165.778V157.952H281.346V167.57H280.254L274.29 159.744V167.57H273.198ZM284.675 167.57V157.952H287.923C290.975 157.952 293.131 159.94 293.131 162.754C293.131 165.568 290.975 167.57 287.923 167.57H284.675ZM285.767 166.576H287.923C290.331 166.576 292.025 164.994 292.025 162.754C292.025 160.528 290.331 158.946 287.923 158.946H285.767V166.576ZM302.617 158.988H296.821V162.152H302.043V163.188H296.821V166.534H302.617V167.57H295.715V157.952H302.617V158.988ZM312.658 161.032C312.658 162.67 311.384 163.874 309.662 164.084L312.112 167.57H310.866L308.43 164.112H306.302V167.57H305.21V157.952H309.116C311.104 157.952 312.658 159.226 312.658 161.032ZM306.302 158.988V163.076H308.92C310.488 163.076 311.552 162.32 311.552 161.032C311.552 159.744 310.488 158.988 308.92 158.988H306.302ZM318.068 167.724C316.486 167.724 315.24 167.15 314.274 166.198L314.96 165.344C315.772 166.156 316.766 166.73 318.11 166.73C319.594 166.73 320.35 165.918 320.35 165.05C320.35 164.028 319.44 163.622 317.76 163.23C315.828 162.782 314.61 162.18 314.61 160.514C314.61 158.974 315.982 157.784 317.83 157.784C319.258 157.784 320.322 158.344 321.204 159.156L320.532 160.01C319.734 159.24 318.782 158.778 317.774 158.778C316.584 158.778 315.716 159.548 315.716 160.43C315.716 161.424 316.668 161.774 318.306 162.166C320.14 162.6 321.456 163.258 321.456 164.952C321.456 166.478 320.308 167.724 318.068 167.724ZM94.2314 190.57V180.952H98.1374C100.125 180.952 101.679 182.226 101.679 184.032C101.679 185.838 100.125 187.112 98.1374 187.112H95.3234V190.57H94.2314ZM95.3234 186.076H97.9414C99.5094 186.076 100.573 185.32 100.573 184.032C100.573 182.744 99.5094 181.988 97.9414 181.988H95.3234V186.076ZM111.543 184.032C111.543 185.67 110.269 186.874 108.547 187.084L110.997 190.57H109.751L107.315 187.112H105.187V190.57H104.095V180.952H108.001C109.989 180.952 111.543 182.226 111.543 184.032ZM105.187 181.988V186.076H107.805C109.373 186.076 110.437 185.32 110.437 184.032C110.437 182.744 109.373 181.988 107.805 181.988H105.187ZM120.943 181.988H115.147V185.152H120.369V186.188H115.147V189.534H120.943V190.57H114.041V180.952H120.943V181.988ZM130.438 181.988H124.642V185.152H129.864V186.188H124.642V190.57H123.536V180.952H130.438V181.988ZM139.66 181.988H133.864V185.152H139.086V186.188H133.864V189.534H139.66V190.57H132.758V180.952H139.66V181.988ZM149.7 184.032C149.7 185.67 148.426 186.874 146.704 187.084L149.154 190.57H147.908L145.472 187.112H143.344V190.57H142.252V180.952H146.158C148.146 180.952 149.7 182.226 149.7 184.032ZM143.344 181.988V186.076H145.962C147.53 186.076 148.594 185.32 148.594 184.032C148.594 182.744 147.53 181.988 145.962 181.988H143.344ZM156.334 190.57V180.952H157.426L163.39 188.778V180.952H164.482V190.57H163.39L157.426 182.744V190.57H156.334ZM171.997 190.738C169.337 190.738 167.069 188.456 167.069 185.754C167.069 183.052 169.337 180.784 171.997 180.784C174.671 180.784 176.911 183.052 176.911 185.754C176.911 188.456 174.671 190.738 171.997 190.738ZM171.997 189.73C174.069 189.73 175.805 187.91 175.805 185.754C175.805 183.612 174.069 181.792 171.997 181.792C169.925 181.792 168.175 183.612 168.175 185.754C168.175 187.91 169.925 189.73 171.997 189.73ZM181.579 190.57V181.988H178.345V180.952H185.905V181.988H182.671V190.57H181.579ZM194.252 190.57V181.988H191.018V180.952H198.578V181.988H195.344V190.57H194.252ZM204.918 190.738C202.258 190.738 199.99 188.456 199.99 185.754C199.99 183.052 202.258 180.784 204.918 180.784C207.592 180.784 209.832 183.052 209.832 185.754C209.832 188.456 207.592 190.738 204.918 190.738ZM204.918 189.73C206.99 189.73 208.726 187.91 208.726 185.754C208.726 183.612 206.99 181.792 204.918 181.792C202.846 181.792 201.096 183.612 201.096 185.754C201.096 187.91 202.846 189.73 204.918 189.73ZM223.885 190.57L222.919 188.386H217.557L216.591 190.57H215.401L219.643 180.952H220.833L225.075 190.57H223.885ZM218.005 187.35H222.471L220.245 182.296L218.005 187.35ZM227.234 190.57V180.952H228.326L234.29 188.778V180.952H235.382V190.57H234.29L228.326 182.744V190.57H227.234ZM241.623 190.724C240.041 190.724 238.795 190.15 237.829 189.198L238.515 188.344C239.327 189.156 240.321 189.73 241.665 189.73C243.149 189.73 243.905 188.918 243.905 188.05C243.905 187.028 242.995 186.622 241.315 186.23C239.383 185.782 238.165 185.18 238.165 183.514C238.165 181.974 239.537 180.784 241.385 180.784C242.813 180.784 243.877 181.344 244.759 182.156L244.087 183.01C243.289 182.24 242.337 181.778 241.329 181.778C240.139 181.778 239.271 182.548 239.271 183.43C239.271 184.424 240.223 184.774 241.861 185.166C243.695 185.6 245.011 186.258 245.011 187.952C245.011 189.478 243.863 190.724 241.623 190.724ZM249.748 190.57L246.458 180.952H247.69L250.35 188.736L252.898 180.952H254.116L256.664 188.736L259.324 180.952H260.556L257.266 190.57H256.188L253.514 182.38L250.826 190.57H249.748ZM269.689 181.988H263.893V185.152H269.115V186.188H263.893V189.534H269.689V190.57H262.787V180.952H269.689V181.988ZM279.73 184.032C279.73 185.67 278.456 186.874 276.734 187.084L279.184 190.57H277.938L275.502 187.112H273.374V190.57H272.282V180.952H276.188C278.176 180.952 279.73 182.226 279.73 184.032ZM273.374 181.988V186.076H275.992C277.56 186.076 278.624 185.32 278.624 184.032C278.624 182.744 277.56 181.988 275.992 181.988H273.374Z" fill="#747474"></path><path d="M16.5831 265.753C21.9171 265.753 26.3271 269.239 26.3271 274.993C26.3271 281.083 21.4131 285.115 14.9871 285.115C6.37709 285.115 2.26109 279.193 2.26109 270.709C2.26109 261.553 7.59509 255.253 16.0791 255.253C19.6911 255.253 22.6731 256.387 25.1511 258.277L21.8331 263.695C20.0691 262.309 18.4311 261.511 16.1211 261.511C12.6771 261.511 10.4931 263.947 9.86309 268.063C11.5851 266.635 14.0631 265.753 16.5831 265.753ZM14.5251 279.025C17.2131 279.025 18.9351 277.345 18.9351 275.287C18.9351 272.893 16.8351 271.507 14.3571 271.507C12.3831 271.507 10.7031 272.599 9.86309 274.321C10.3251 277.471 11.6271 279.025 14.5251 279.025ZM40.8276 285.157C35.8716 285.157 32.1756 283.477 29.3616 280.789L33.4776 275.707C35.6616 277.639 38.2656 278.941 40.8696 278.941C43.8936 278.941 45.5736 277.261 45.5736 275.203C45.5736 273.061 43.8096 271.633 40.9536 271.633C38.8956 271.633 37.0896 272.305 35.6196 273.439L30.8736 271.591L31.2936 255.757H51.1596V262.183H37.8876L37.7196 267.433C39.1056 266.425 40.9116 265.753 43.2216 265.753C48.2616 265.753 52.7556 269.029 52.7556 274.951C52.7556 281.209 48.0936 285.157 40.8276 285.157ZM63.9637 270.331C59.5537 270.331 56.6137 267.097 56.6137 262.897C56.6137 258.781 59.5117 255.463 63.9637 255.463C68.4577 255.463 71.3557 258.823 71.3557 262.897C71.3557 267.097 68.3317 270.331 63.9637 270.331ZM60.4777 284.611L80.6377 255.757H86.0557L65.8957 284.611H60.4777ZM63.9637 266.257C65.5597 266.257 66.7357 264.997 66.7357 262.897C66.7357 260.839 65.5177 259.537 63.9637 259.537C62.3677 259.537 61.2337 260.797 61.2337 262.897C61.2337 264.955 62.4097 266.257 63.9637 266.257ZM82.4857 285.073C78.0757 285.073 75.1357 281.755 75.1357 277.639C75.1357 273.439 78.1177 270.163 82.5277 270.163C86.9797 270.163 89.8777 273.523 89.8777 277.639C89.8777 281.797 86.8537 285.073 82.4857 285.073ZM82.5277 280.999C84.0817 280.999 85.2577 279.739 85.2577 277.639C85.2577 275.581 84.0397 274.279 82.4857 274.279C80.8897 274.279 79.7557 275.497 79.7557 277.639C79.7557 279.697 80.9317 280.999 82.5277 280.999Z" fill="#0098CC"></path><path d="M141.455 285.157C136.121 285.157 132.047 283.183 129.485 280.327L133.601 275.581C135.701 277.681 138.389 278.731 141.077 278.731C143.975 278.731 145.571 277.513 145.571 275.833C145.571 274.027 144.227 273.103 140.531 273.103L137.129 273.145V267.097H140.531C143.429 267.139 144.983 266.173 144.983 264.493C144.983 262.729 143.261 261.679 140.657 261.679C138.095 261.679 135.995 262.897 134.105 264.745L130.073 260.377C132.551 257.479 136.079 255.253 141.413 255.253C148.217 255.253 152.333 258.613 152.333 263.149C152.333 266.383 150.191 268.819 146.957 269.743C150.191 270.499 152.963 272.767 152.963 276.463C152.963 281.545 148.427 285.157 141.455 285.157ZM167.66 285.157C162.704 285.157 159.008 283.477 156.194 280.789L160.31 275.707C162.494 277.639 165.098 278.941 167.702 278.941C170.726 278.941 172.406 277.261 172.406 275.203C172.406 273.061 170.642 271.633 167.786 271.633C165.728 271.633 163.922 272.305 162.452 273.439L157.706 271.591L158.126 255.757H177.992V262.183H164.72L164.552 267.433C165.938 266.425 167.744 265.753 170.054 265.753C175.094 265.753 179.588 269.029 179.588 274.951C179.588 281.209 174.926 285.157 167.66 285.157ZM190.796 270.331C186.386 270.331 183.446 267.097 183.446 262.897C183.446 258.781 186.344 255.463 190.796 255.463C195.29 255.463 198.188 258.823 198.188 262.897C198.188 267.097 195.164 270.331 190.796 270.331ZM187.31 284.611L207.47 255.757H212.888L192.728 284.611H187.31ZM190.796 266.257C192.392 266.257 193.568 264.997 193.568 262.897C193.568 260.839 192.35 259.537 190.796 259.537C189.2 259.537 188.066 260.797 188.066 262.897C188.066 264.955 189.242 266.257 190.796 266.257ZM209.318 285.073C204.908 285.073 201.968 281.755 201.968 277.639C201.968 273.439 204.95 270.163 209.36 270.163C213.812 270.163 216.71 273.523 216.71 277.639C216.71 281.797 213.686 285.073 209.318 285.073ZM209.36 280.999C210.914 280.999 212.09 279.739 212.09 277.639C212.09 275.581 210.872 274.279 209.318 274.279C207.722 274.279 206.588 275.497 206.588 277.639C206.588 279.697 207.764 280.999 209.36 280.999Z" fill="#A4BD0B"></path><path d="M246.426 233.03H242.616V234.52H246.076V235.85H242.616V238.57H241.136V231.7H246.426V233.03ZM247.898 238.57V231.7H249.378V238.57H247.898ZM257.001 234.02C257.001 235.1 256.321 235.92 255.291 236.22L256.941 238.57H255.261L253.691 236.34H252.801V238.57H251.321V231.7H254.411C255.911 231.7 257.001 232.66 257.001 234.02ZM252.801 233.05V234.99H254.261C254.991 234.99 255.491 234.61 255.491 234.02C255.491 233.43 254.991 233.05 254.261 233.05H252.801ZM261.102 238.69C259.902 238.69 258.852 238.29 258.052 237.55L258.892 236.54C259.542 237.1 260.282 237.44 261.152 237.44C261.902 237.44 262.282 237.1 262.282 236.67C262.282 236.18 261.882 236.03 260.832 235.79C259.382 235.46 258.342 235.05 258.342 233.72C258.342 232.45 259.382 231.58 260.892 231.58C262.012 231.58 262.872 231.93 263.582 232.53L262.812 233.6C262.192 233.1 261.502 232.83 260.842 232.83C260.222 232.83 259.832 233.16 259.832 233.57C259.832 234.07 260.252 234.23 261.312 234.47C262.792 234.8 263.772 235.24 263.772 236.51C263.772 237.82 262.772 238.69 261.102 238.69ZM266.875 238.57V233.03H264.735V231.7H270.495V233.03H268.345V238.57H266.875ZM276.387 238.57V233.03H274.247V231.7H280.007V233.03H277.857V238.57H276.387ZM281.383 238.57V231.7H282.863V238.57H281.383ZM284.806 238.57V231.7H286.286L288.406 235.58L290.536 231.7H292.006V238.57H290.536V234.29L288.406 238.17L286.286 234.29V238.57H284.806ZM299.241 233.03H295.431V234.4H298.891V235.73H295.431V237.24H299.241V238.57H293.951V231.7H299.241V233.03ZM306.55 234.02C306.55 235.1 305.87 235.92 304.84 236.22L306.49 238.57H304.81L303.24 236.34H302.35V238.57H300.87V231.7H303.96C305.46 231.7 306.55 232.66 306.55 234.02ZM302.35 233.05V234.99H303.81C304.54 234.99 305.04 234.61 305.04 234.02C305.04 233.43 304.54 233.05 303.81 233.05H302.35ZM310.651 238.69C309.451 238.69 308.401 238.29 307.601 237.55L308.441 236.54C309.091 237.1 309.831 237.44 310.701 237.44C311.451 237.44 311.831 237.1 311.831 236.67C311.831 236.18 311.431 236.03 310.381 235.79C308.931 235.46 307.891 235.05 307.891 233.72C307.891 232.45 308.931 231.58 310.441 231.58C311.561 231.58 312.421 231.93 313.131 232.53L312.361 233.6C311.741 233.1 311.051 232.83 310.391 232.83C309.771 232.83 309.381 233.16 309.381 233.57C309.381 234.07 309.801 234.23 310.861 234.47C312.341 234.8 313.321 235.24 313.321 236.51C313.321 237.82 312.321 238.69 310.651 238.69Z" fill="#1E0060"></path><path d="M249.787 285.157C244.831 285.157 241.135 283.477 238.321 280.789L242.437 275.707C244.621 277.639 247.225 278.941 249.829 278.941C252.853 278.941 254.533 277.261 254.533 275.203C254.533 273.061 252.769 271.633 249.913 271.633C247.855 271.633 246.049 272.305 244.579 273.439L239.833 271.591L240.253 255.757H260.119V262.183H246.847L246.679 267.433C248.065 266.425 249.871 265.753 252.181 265.753C257.221 265.753 261.715 269.029 261.715 274.951C261.715 281.209 257.053 285.157 249.787 285.157ZM272.083 284.611V263.863L267.211 266.887L264.355 261.889L273.511 255.757H279.265V284.611H272.083ZM292.036 270.331C287.626 270.331 284.686 267.097 284.686 262.897C284.686 258.781 287.584 255.463 292.036 255.463C296.53 255.463 299.428 258.823 299.428 262.897C299.428 267.097 296.404 270.331 292.036 270.331ZM288.55 284.611L308.71 255.757H314.128L293.968 284.611H288.55ZM292.036 266.257C293.632 266.257 294.808 264.997 294.808 262.897C294.808 260.839 293.59 259.537 292.036 259.537C290.44 259.537 289.306 260.797 289.306 262.897C289.306 264.955 290.482 266.257 292.036 266.257ZM310.558 285.073C306.148 285.073 303.208 281.755 303.208 277.639C303.208 273.439 306.19 270.163 310.6 270.163C315.052 270.163 317.95 273.523 317.95 277.639C317.95 281.797 314.926 285.073 310.558 285.073ZM310.6 280.999C312.154 280.999 313.33 279.739 313.33 277.639C313.33 275.581 312.112 274.279 310.558 274.279C308.962 274.279 307.828 275.497 307.828 277.639C307.828 279.697 309.004 280.999 310.6 280.999Z" fill="#FF412F"></path><path d="M0.892578 325.994H154.013V339.994H0.892578V325.994Z" fill="#FF412F"></path></svg> 