<?xml version="1.0" encoding="UTF-8"?> <svg xmlns="http://www.w3.org/2000/svg" width="1199" height="584" viewBox="0 0 1199 584" fill="none"><path d="M0 449.244H550V479.244H0V449.244Z" fill="#FF412F"></path><path d="M0 402.539H665.6V432.539H0V402.539Z" fill="#0098CC"></path><path d="M665.6 402.539H1024.4V432.539H665.6V402.539Z" fill="#A4BD0B"></path><path d="M440 202.539H501.44V232.539H440V202.539Z" fill="#7340AE"></path><path d="M0 202.539H440.32V232.539H0V202.539Z" fill="#1E0060"></path><path d="M501 202.539H1013.5V232.539H501V202.539Z" fill="#D0D0D0"></path><path d="M1167.76 367.129C1167.44 368.403 1167 369.553 1166.47 370.602C1166.47 370.61 1166.46 370.61 1166.46 370.61C1157.62 387.843 1121.74 375.769 1121.74 375.769C1121.74 375.769 1097.67 389.746 1051.06 377.237C1051.06 377.237 1033.05 381.687 1021.72 382.44C1010.39 383.194 988.328 380.451 987.054 366.591C987.03 366.303 987.007 366.024 987.007 365.752C986.797 358.472 993.098 355.799 998.661 354.859V354.851C1003 354.121 1006.88 354.431 1006.88 354.431C1006.88 354.431 1010.2 334.842 1033.65 332.286C1033.65 332.286 1042 310.596 1062.11 319.461C1062.11 319.461 1076.73 292.238 1106.97 312.856C1106.97 312.856 1124.43 308.519 1127.17 326.517C1127.17 326.517 1145.21 322.742 1147.55 343.735C1147.55 343.735 1161.13 344.349 1166.46 353.16C1168.48 356.493 1169.31 361.015 1167.76 367.129Z" fill="white"></path><path d="M1167.76 367.129C1167.44 368.403 1167 369.553 1166.47 370.602C1166.47 370.61 1166.46 370.61 1166.46 370.61C1157.62 387.843 1121.74 375.769 1121.74 375.769C1121.74 375.769 1097.67 389.746 1051.06 377.237C1051.06 377.237 1033.05 381.686 1021.72 382.44C1010.39 383.194 988.328 380.451 987.054 366.591C987.03 366.303 987.007 366.023 987.007 365.751C986.797 358.471 993.098 355.799 998.661 354.859C998.498 355.2 993.549 366.256 1005.65 370.04C1017.95 373.886 1033.72 360.656 1033.72 360.656C1033.72 360.656 1054.07 367.924 1058.11 350.821C1058.11 350.821 1080.75 375.254 1112.69 348.713C1112.69 348.713 1115.95 364.643 1127.68 361.488C1127.68 361.488 1162 377.89 1166.46 353.159C1168.48 356.493 1169.31 361.014 1167.76 367.129Z" fill="#E4F2F7"></path><path d="M1166.46 370.61C1157.62 387.843 1121.74 375.769 1121.74 375.769C1121.74 375.769 1099.45 397.403 1051.06 377.238C1051.06 377.238 1033.05 381.687 1021.72 382.441C1010.39 383.194 988.329 380.452 987.054 366.591C987.031 366.304 987.008 366.024 987.008 365.752C987.008 365.752 995.469 385.704 1035.37 370.491C1035.37 370.491 1049.39 375.793 1054.34 365.752C1054.34 365.752 1079.36 385.645 1120.84 368.62C1120.84 368.62 1147.4 383.057 1166.46 370.61Z" fill="#C7DFE5"></path><g clip-path="url(#clip0_5416_857)"><path d="M1045 583.243H1014.46L1026.04 164.621H1036.46L1045 583.243Z" fill="#CBCBCB"></path><path d="M1011.81 282.815L1079.99 233.167L1030.46 164.83C1057.82 202.573 1049.47 255.396 1011.81 282.819V282.815Z" fill="#E00000"></path><path d="M1136.64 219.059L1110.6 138.723L1030.45 164.826C1074.72 150.411 1122.26 174.69 1136.64 219.059H1136.64Z" fill="#F264C2"></path><path d="M1114.73 80.3574H1030.46V164.827C1030.46 118.174 1068.18 80.3574 1114.73 80.3574Z" fill="#001A70"></path><path d="M976.351 58.3906L950.309 138.727L1030.46 164.831C986.192 150.415 961.969 102.76 976.351 58.3947V58.3906Z" fill="#37838F"></path><path d="M912.746 183.515L980.923 233.163L1030.45 164.826C1003.1 202.569 950.396 210.933 912.742 183.515H912.746Z" fill="#581E98"></path><path d="M976.352 58.3901C961.97 102.759 986.193 150.411 1030.46 164.827L1082.54 4.15705C1038.27 -10.2588 990.734 14.021 976.352 58.3901Z" fill="#4DCCEB"></path><path d="M1114.73 80.3574C1068.18 80.3574 1030.46 118.174 1030.46 164.827H1199C1199 118.174 1161.27 80.3574 1114.73 80.3574Z" fill="#002C95"></path><path d="M1136.64 219.06C1122.26 174.691 1074.72 150.411 1030.46 164.827L1082.54 325.497C1126.8 311.081 1151.03 263.425 1136.64 219.06Z" fill="#FF7CC2"></path><path d="M1011.81 282.815C1049.47 255.393 1057.81 202.569 1030.46 164.826L894.102 264.127C921.46 301.869 974.16 310.234 1011.81 282.815Z" fill="#FF1E15"></path><path d="M912.746 183.514C950.4 210.937 1003.1 202.568 1030.46 164.826L894.101 65.5254C866.747 103.268 875.092 156.092 912.746 183.514Z" fill="#7B3DB3"></path><path d="M1050.6 169.33C1053.07 158.183 1046.06 147.137 1034.94 144.657C1023.82 142.178 1012.8 149.205 1010.33 160.352C1007.85 171.499 1014.86 182.545 1025.98 185.025C1037.1 187.504 1048.13 180.477 1050.6 169.33Z" fill="#DFDFD9"></path><path d="M1051.92 167.838C1052.64 162.563 1051.41 157.21 1048.45 152.789C1048.62 152.633 1046.14 149.909 1046.14 149.909C1042.49 146.068 1037.57 143.681 1032.29 143.2C1032.27 142.979 1028.61 143.192 1028.61 143.192C1027.6 143.274 1026.59 143.43 1025.6 143.656C1017.42 145.559 1012.41 152.785 1012.41 152.785C1009.46 157.222 1008.25 162.591 1009.01 167.87L1009.84 171.465C1011.47 176.522 1014.89 180.803 1019.46 183.506L1022.78 185.113C1027.73 187.023 1033.21 187.035 1038.17 185.154C1038.28 185.343 1041.57 183.79 1041.49 183.56C1046.07 180.836 1049.5 176.522 1051.11 171.432C1051.32 171.465 1051.92 167.838 1051.92 167.838H1051.92ZM1042.54 152.464L1035.41 157.53L1035.38 157.518C1034.73 157.998 1033.81 157.855 1033.33 157.193C1033.16 156.959 1033.06 156.68 1033.04 156.392H1033.04L1032.54 147.629C1036.31 148.097 1039.82 149.794 1042.54 152.46L1042.54 152.464ZM1029.11 162.065H1031.79L1033.46 164.157L1032.86 166.765L1030.45 167.928L1028.04 166.761L1027.44 164.152L1029.11 162.065ZM1026.58 147.941C1027.17 147.81 1027.77 147.707 1028.36 147.633L1027.87 156.404L1027.83 156.421C1027.8 157.234 1027.11 157.867 1026.3 157.83C1026.01 157.818 1025.73 157.719 1025.49 157.55L1025.48 157.559L1018.31 152.46C1020.59 150.209 1023.46 148.644 1026.58 147.941H1026.58ZM1015.71 155.739L1022.26 161.614L1022.25 161.651C1022.86 162.185 1022.92 163.117 1022.39 163.729C1022.2 163.947 1021.95 164.107 1021.67 164.181L1021.66 164.21L1013.26 166.638C1012.85 162.834 1013.7 159.001 1015.7 155.739H1015.71ZM1024.48 171.342L1021.14 179.423C1017.94 177.369 1015.5 174.312 1014.21 170.726L1022.82 169.259L1022.84 169.28C1022.93 169.263 1023.03 169.251 1023.13 169.255C1023.94 169.267 1024.58 169.937 1024.57 170.75C1024.57 170.943 1024.53 171.132 1024.45 171.309L1024.48 171.342ZM1031.78 173.573L1036.02 181.259C1035.47 181.444 1034.91 181.6 1034.33 181.736C1031.2 182.455 1027.95 182.286 1024.91 181.251L1029.15 173.577H1029.15C1029.54 172.858 1030.43 172.591 1031.15 172.977C1031.4 173.113 1031.61 173.322 1031.75 173.577H1031.78M1039.8 179.46L1036.43 171.297L1036.45 171.28C1036.13 170.553 1036.45 169.711 1037.16 169.37C1037.34 169.284 1037.53 169.234 1037.72 169.222C1037.84 169.218 1037.95 169.222 1038.06 169.247L1038.07 169.23L1046.76 170.701C1045.48 174.316 1043.03 177.397 1039.81 179.46H1039.8ZM1047.67 166.613L1039.23 164.177L1039.23 164.14C1038.44 163.922 1037.98 163.109 1038.2 162.324C1038.27 162.045 1038.43 161.794 1038.65 161.605V161.589L1045.16 155.743C1047.16 158.997 1048.04 162.809 1047.67 166.609V166.613Z" fill="white"></path></g><path d="M1020.37 46.919C1020.35 47.0791 1020.33 47.239 1020.3 47.3989C1020.26 47.6121 1020.22 47.812 1020.15 48.0117C1020.14 48.0385 1020.14 48.0785 1020.13 48.1051C1020.07 48.2784 1020.01 48.4383 1019.93 48.5982C1019.93 48.6248 1019.91 48.6515 1019.9 48.678C1019.82 48.8379 1019.75 48.9713 1019.66 49.1179C1019.53 49.3578 1019.37 49.571 1019.19 49.7842C1019.09 49.9308 1018.95 50.0774 1018.82 50.2106C1018.79 50.2505 1018.75 50.2906 1018.71 50.3305C1018.57 50.4638 1018.41 50.6104 1018.25 50.7437C1018.09 50.8902 1017.9 51.0235 1017.73 51.1567C1017.08 51.6231 1016.33 52.0363 1015.52 52.3961C1015.17 52.5426 1014.81 52.6892 1014.45 52.8357C1014.44 52.8357 1014.41 52.8357 1014.4 52.8491C1013.4 53.2223 1012.32 53.5288 1011.21 53.782C1010.84 53.8752 1010.48 53.9552 1010.11 54.0218C1010.03 54.0485 1009.96 54.0618 1009.89 54.0618C1009.6 54.1284 1009.31 54.1817 1009.01 54.2217C1007.24 54.5282 1005.47 54.7281 1003.87 54.848C1003.6 54.8614 1003.34 54.8747 1003.08 54.9013C1002.56 54.928 1002.07 54.9546 1001.6 54.968C1001.4 54.9813 1001.22 54.9946 1001.04 54.9946C1000.86 55.0078 1000.68 55.0078 1000.51 55.0078C998.699 55.0612 997.526 55.0212 997.526 55.0212C997.526 55.0212 982.695 65.4153 955.843 58.0462C955.843 58.0462 946.701 60.4049 939.026 55.3811L939.012 55.3944C938.399 55.8874 923.541 67.4941 899.848 55.0746C899.848 55.0746 885.536 57.0601 883.35 50.4105C883.31 50.3172 883.284 50.224 883.257 50.1173C882.777 48.3184 882.99 46.4128 883.763 44.587C886.015 39.2701 893.051 34.726 902.046 36.1518C904.698 33.5533 909.122 31.5411 913.64 34.2329C913.64 34.2329 920.329 3.52999 955.19 10.0465C955.19 10.0465 981.455 6.52831 982.415 25.6377C982.415 25.6377 997.779 26.7838 1006 35.4456C1013.14 35.6321 1021.38 38.9503 1020.37 46.919Z" fill="white"></path><path d="M1020.37 46.918C1020.35 47.0781 1020.33 47.238 1020.3 47.3979C1020.26 47.6111 1020.22 47.811 1020.15 48.0108C1020.14 48.0375 1020.14 48.0775 1020.13 48.1042C1020.07 48.2774 1020.01 48.4373 1019.93 48.5972C1019.93 48.6239 1019.91 48.6505 1019.9 48.677C1019.82 48.837 1019.75 48.9703 1019.66 49.1169C1019.53 49.3568 1019.37 49.57 1019.19 49.7832C1019.09 49.9298 1018.95 50.0764 1018.82 50.2096C1018.79 50.2495 1018.75 50.2896 1018.71 50.3296C1018.57 50.4762 1018.41 50.6094 1018.25 50.7427C1018.09 50.8893 1017.9 51.0225 1017.73 51.1558C1017.08 51.6222 1016.33 52.0353 1015.52 52.3951C1015.17 52.5417 1014.81 52.6882 1014.45 52.8347C1014.44 52.8347 1014.41 52.8347 1014.4 52.8482C1014.32 52.8748 1014.22 52.9147 1014.14 52.9415C1013.9 53.0347 1013.65 53.1147 1013.38 53.1947C1013.01 53.3146 1012.64 53.421 1012.25 53.5278C1011.92 53.6211 1011.56 53.701 1011.21 53.781C1010.77 53.8876 1010.33 53.9809 1009.89 54.0608C1009.6 54.1275 1009.31 54.1808 1009.01 54.2207C1008.44 54.3274 1007.87 54.4073 1007.29 54.4873C1007.03 54.5272 1006.76 54.5539 1006.49 54.5939C1006.01 54.6472 1005.55 54.7005 1005.08 54.7404C1004.76 54.7671 1004.46 54.7937 1004.15 54.8204C1004.06 54.8336 1003.96 54.8336 1003.87 54.8471C1003.6 54.8604 1003.34 54.887 1003.08 54.9003C1002.56 54.927 1002.07 54.9537 1001.6 54.967C1001.22 54.9936 1000.86 55.0068 1000.51 55.0068C998.699 55.0603 997.526 55.0203 997.526 55.0203C997.526 55.0203 982.695 65.4143 955.843 58.0453C955.843 58.0453 946.701 60.4039 939.026 55.3801L939.012 55.3934C938.399 55.8865 923.541 67.4932 899.848 55.0736C899.848 55.0736 885.109 57.1125 883.257 50.1164C882.777 48.3174 882.99 46.4118 883.763 44.586C883.763 44.586 892.949 50.2522 902.194 43.9671C902.354 44.3536 911.097 47.5128 913.747 39.8155C913.747 39.8155 916.425 41.6411 918.744 38.7228C918.744 38.7228 931.403 47.3979 937.666 34.8316C937.666 34.8316 950.339 40.9214 955.217 27.1426C955.217 27.1426 956.976 31.3136 962.093 30.4607C962.093 30.4607 963.172 42.6672 977.018 37.8566C977.018 37.8566 981.042 41.6411 984.08 37.4968C984.08 37.4968 991.583 47.9175 1002.43 40.9482C1003.28 41.8543 1006.99 52.0753 1020.37 46.918Z" fill="#E4F2F7"></path><path d="M1014.4 52.8483C1013.4 53.2215 1012.32 53.528 1011.21 53.7812C1010.84 53.8744 1010.48 53.9544 1010.11 54.021C1010.03 54.0477 1009.96 54.061 1009.89 54.061C1009.6 54.1276 1009.31 54.1809 1009.01 54.2209C1007.24 54.5274 1005.47 54.7273 1003.87 54.8472C1003.6 54.8606 1003.34 54.8872 1003.08 54.9005C1002.56 54.9272 1002.07 54.9538 1001.6 54.9672C1001.4 54.9805 1001.22 54.9938 1001.04 54.9938C1000.86 55.007 1000.68 55.007 1000.51 55.007C998.698 55.0604 997.526 55.0204 997.526 55.0204C997.526 55.0204 982.694 65.4145 955.842 58.0454C955.842 58.0454 946.701 60.4041 939.025 55.3802L939.012 55.3936C938.399 55.8866 923.54 67.4933 899.847 55.0738C899.847 55.0738 885.535 57.0593 883.35 50.4097C889.923 55.7312 901.473 50.4097 901.473 50.4097C901.473 50.4097 913.906 55.6201 917.677 43.7734C917.677 43.7734 928.151 54.6607 940.091 45.6657C940.091 45.6657 943.209 49.4235 948.606 46.9716C948.606 46.9716 965.623 61.0971 980.882 47.2382C980.882 47.2382 985.812 54.4874 997.765 49.5302C997.765 49.5302 1001.7 55.5535 1014.4 52.8483Z" fill="#C7DFE5"></path><path d="M32.882 337.619C43.042 337.619 51.442 344.259 51.442 355.219C51.442 366.819 42.082 374.499 29.842 374.499C13.442 374.499 5.60195 363.219 5.60195 347.059C5.60195 329.619 15.762 317.619 31.922 317.619C38.802 317.619 44.482 319.779 49.202 323.379L42.882 333.699C39.522 331.059 36.402 329.539 32.002 329.539C25.442 329.539 21.282 334.179 20.082 342.019C23.362 339.299 28.082 337.619 32.882 337.619ZM28.962 362.899C34.082 362.899 37.362 359.699 37.362 355.779C37.362 351.219 33.362 348.579 28.642 348.579C24.882 348.579 21.682 350.659 20.082 353.939C20.962 359.939 23.442 362.899 28.962 362.899ZM79.062 374.579C69.622 374.579 62.582 371.379 57.222 366.259L65.062 356.579C69.222 360.259 74.182 362.739 79.142 362.739C84.902 362.739 88.102 359.539 88.102 355.619C88.102 351.539 84.742 348.819 79.302 348.819C75.382 348.819 71.942 350.099 69.142 352.259L60.102 348.739L60.902 318.579H98.742V330.819H73.462L73.142 340.819C75.782 338.899 79.222 337.619 83.622 337.619C93.222 337.619 101.782 343.859 101.782 355.139C101.782 367.059 92.902 374.579 79.062 374.579ZM123.131 346.339C114.731 346.339 109.131 340.179 109.131 332.179C109.131 324.339 114.651 318.019 123.131 318.019C131.691 318.019 137.211 324.419 137.211 332.179C137.211 340.179 131.451 346.339 123.131 346.339ZM116.491 373.539L154.891 318.579H165.211L126.811 373.539H116.491ZM123.131 338.579C126.171 338.579 128.411 336.179 128.411 332.179C128.411 328.259 126.091 325.779 123.131 325.779C120.091 325.779 117.931 328.179 117.931 332.179C117.931 336.099 120.171 338.579 123.131 338.579ZM158.411 374.419C150.011 374.419 144.411 368.099 144.411 360.259C144.411 352.259 150.091 346.019 158.491 346.019C166.971 346.019 172.491 352.419 172.491 360.259C172.491 368.179 166.731 374.419 158.411 374.419ZM158.491 366.659C161.451 366.659 163.691 364.259 163.691 360.259C163.691 356.339 161.371 353.859 158.411 353.859C155.371 353.859 153.211 356.179 153.211 360.259C153.211 364.179 155.451 366.659 158.491 366.659Z" fill="#0098CC"></path><path d="M2.566 295.539L2.566 283.173H5.23L5.23 295.539H2.566ZM8.72678 295.539L8.72678 283.173H11.3908L17.3488 291.165V283.173H20.0128L20.0128 295.539H17.3488L11.3908 287.547L11.3908 295.539H8.72678ZM28.7651 295.539L28.7651 283.173H34.3271C37.0271 283.173 38.9891 284.901 38.9891 287.349C38.9891 289.797 37.0271 291.525 34.3271 291.525H31.4291L31.4291 295.539H28.7651ZM31.4291 289.095H34.0571C35.3711 289.095 36.2711 288.411 36.2711 287.349C36.2711 286.287 35.3711 285.603 34.0571 285.603H31.4291V289.095ZM51.1628 285.567H44.3048V288.033H50.5328V290.427H44.3048V293.145H51.1628V295.539H41.6408V283.173H51.1628V285.567ZM64.3185 287.349C64.3185 289.293 63.0945 290.769 61.2405 291.309L64.2105 295.539H61.1865L58.3605 291.525H56.7585V295.539H54.0945V283.173H59.6565C62.3565 283.173 64.3185 284.901 64.3185 287.349ZM56.7585 285.603V289.095H59.3865C60.7005 289.095 61.6005 288.411 61.6005 287.349C61.6005 286.287 60.7005 285.603 59.3865 285.603H56.7585ZM71.7003 295.755C69.5403 295.755 67.6503 295.035 66.2103 293.703L67.7223 291.885C68.8923 292.893 70.2243 293.505 71.7903 293.505C73.1403 293.505 73.8243 292.893 73.8243 292.119C73.8243 291.237 73.1043 290.967 71.2143 290.535C68.6043 289.941 66.7323 289.203 66.7323 286.809C66.7323 284.523 68.6043 282.957 71.3223 282.957C73.3383 282.957 74.8863 283.587 76.1643 284.667L74.7783 286.593C73.6623 285.693 72.4203 285.207 71.2323 285.207C70.1163 285.207 69.4143 285.801 69.4143 286.539C69.4143 287.439 70.1703 287.727 72.0783 288.159C74.7423 288.753 76.5063 289.545 76.5063 291.831C76.5063 294.189 74.7063 295.755 71.7003 295.755ZM85.0805 295.755C81.5165 295.755 78.4925 292.821 78.4925 289.347C78.4925 285.873 81.5165 282.957 85.0805 282.957C88.6445 282.957 91.6325 285.873 91.6325 289.347C91.6325 292.821 88.6445 295.755 85.0805 295.755ZM85.0805 293.343C87.1505 293.343 88.9145 291.507 88.9145 289.347C88.9145 287.205 87.1505 285.369 85.0805 285.369C82.9925 285.369 81.2285 287.205 81.2285 289.347C81.2285 291.507 82.9925 293.343 85.0805 293.343ZM94.4089 295.539V283.173H97.0729L103.031 291.165V283.173H105.695V295.539H103.031L97.0729 287.547V295.539H94.4089Z" fill="#1E0060"></path><path d="M302.882 374.579C292.722 374.579 284.962 370.819 280.082 365.379L287.922 356.339C291.922 360.339 297.042 362.339 302.162 362.339C307.682 362.339 310.722 360.019 310.722 356.819C310.722 353.379 308.162 351.619 301.122 351.619L294.642 351.699V340.179H301.122C306.642 340.259 309.602 338.419 309.602 335.219C309.602 331.859 306.322 329.859 301.362 329.859C296.482 329.859 292.482 332.179 288.882 335.699L281.202 327.379C285.922 321.859 292.642 317.619 302.802 317.619C315.762 317.619 323.602 324.019 323.602 332.659C323.602 338.819 319.522 343.459 313.362 345.219C319.522 346.659 324.802 350.979 324.802 358.019C324.802 367.699 316.162 374.579 302.882 374.579ZM352.796 374.579C343.356 374.579 336.316 371.379 330.956 366.259L338.796 356.579C342.956 360.259 347.916 362.739 352.876 362.739C358.636 362.739 361.836 359.539 361.836 355.619C361.836 351.539 358.476 348.819 353.036 348.819C349.116 348.819 345.676 350.099 342.876 352.259L333.836 348.739L334.636 318.579H372.476V330.819H347.196L346.876 340.819C349.516 338.899 352.956 337.619 357.356 337.619C366.956 337.619 375.516 343.859 375.516 355.139C375.516 367.059 366.636 374.579 352.796 374.579ZM396.865 346.339C388.465 346.339 382.865 340.179 382.865 332.179C382.865 324.339 388.385 318.019 396.865 318.019C405.425 318.019 410.945 324.419 410.945 332.179C410.945 340.179 405.185 346.339 396.865 346.339ZM390.225 373.539L428.625 318.579H438.945L400.545 373.539H390.225ZM396.865 338.579C399.905 338.579 402.145 336.179 402.145 332.179C402.145 328.259 399.825 325.779 396.865 325.779C393.825 325.779 391.665 328.179 391.665 332.179C391.665 336.099 393.905 338.579 396.865 338.579ZM432.145 374.419C423.745 374.419 418.145 368.099 418.145 360.259C418.145 352.259 423.825 346.019 432.225 346.019C440.705 346.019 446.225 352.419 446.225 360.259C446.225 368.179 440.465 374.419 432.145 374.419ZM432.225 366.659C435.185 366.659 437.425 364.259 437.425 360.259C437.425 356.339 435.105 353.859 432.145 353.859C429.105 353.859 426.945 356.179 426.945 360.259C426.945 364.179 429.185 366.659 432.225 366.659Z" fill="#A4BD0B"></path><path d="M288.262 283.173H291.718L286.84 295.539H283.366L278.488 283.173H281.944L285.112 291.147L288.262 283.173ZM294.005 295.539V283.173H297.083V295.539H294.005ZM310.836 295.539H307.344L304.626 291.669H303.402V295.539H300.324V283.173H306.066C308.802 283.173 310.764 284.919 310.764 287.421C310.764 289.311 309.648 290.769 307.902 291.381L310.836 295.539ZM303.402 285.981V288.861H305.796C306.858 288.861 307.596 288.285 307.596 287.421C307.596 286.557 306.858 285.981 305.796 285.981H303.402ZM316.362 295.539V285.927H312.618V283.173H323.202V285.927H319.44V295.539H316.362ZM331.09 295.755C327.724 295.755 325.348 293.433 325.348 290.121V283.173H328.426V289.977C328.426 291.723 329.542 292.965 331.09 292.965C332.656 292.965 333.772 291.723 333.772 289.977V283.173H336.832V290.121C336.832 293.433 334.474 295.755 331.09 295.755ZM348.614 295.539L347.858 293.649H343.034L342.278 295.539H338.822L343.718 283.173H347.174L352.07 295.539H348.614ZM343.952 291.327H346.94L345.446 287.529L343.952 291.327ZM357.401 292.785H363.359V295.539H354.323V283.173H357.401V292.785Z" fill="#1E0060"></path><path d="M571.001 374.456C561.561 374.456 554.521 371.256 549.161 366.136L557.001 356.456C561.161 360.136 566.121 362.616 571.081 362.616C576.841 362.616 580.041 359.416 580.041 355.496C580.041 351.416 576.681 348.696 571.241 348.696C567.321 348.696 563.881 349.976 561.081 352.136L552.041 348.616L552.841 318.456H590.681V330.696H565.401L565.081 340.696C567.721 338.776 571.161 337.496 575.561 337.496C585.161 337.496 593.721 343.736 593.721 355.016C593.721 366.936 584.841 374.456 571.001 374.456ZM613.47 373.416V333.896L604.19 339.656L598.75 330.136L616.19 318.456H627.15V373.416H613.47ZM651.476 346.216C643.076 346.216 637.476 340.056 637.476 332.056C637.476 324.216 642.996 317.896 651.476 317.896C660.036 317.896 665.556 324.296 665.556 332.056C665.556 340.056 659.796 346.216 651.476 346.216ZM644.836 373.416L683.236 318.456H693.556L655.156 373.416H644.836ZM651.476 338.456C654.516 338.456 656.756 336.056 656.756 332.056C656.756 328.136 654.436 325.656 651.476 325.656C648.436 325.656 646.276 328.056 646.276 332.056C646.276 335.976 648.516 338.456 651.476 338.456ZM686.756 374.296C678.356 374.296 672.756 367.976 672.756 360.136C672.756 352.136 678.436 345.896 686.836 345.896C695.316 345.896 700.836 352.296 700.836 360.136C700.836 368.056 695.076 374.296 686.756 374.296ZM686.836 366.536C689.796 366.536 692.036 364.136 692.036 360.136C692.036 356.216 689.716 353.736 686.756 353.736C683.716 353.736 681.556 356.056 681.556 360.136C681.556 364.056 683.796 366.536 686.836 366.536Z" fill="#FF412F"></path><path d="M563.194 285.927H556.534V288.141H562.582V290.895H556.534V295.539H553.456V283.173H563.194V285.927ZM565.734 295.539V283.173H568.812V295.539H565.734ZM582.565 295.539H579.073L576.355 291.669H575.131V295.539H572.053V283.173H577.795C580.531 283.173 582.493 284.919 582.493 287.421C582.493 289.311 581.377 290.769 579.631 291.381L582.565 295.539ZM575.131 285.981V288.861H577.525C578.587 288.861 579.325 288.285 579.325 287.421C579.325 286.557 578.587 285.981 577.525 285.981H575.131ZM590.016 295.755C587.82 295.755 585.822 295.035 584.31 293.685L586.056 291.615C587.262 292.605 588.612 293.181 590.124 293.181C591.276 293.181 591.87 292.713 591.87 292.047C591.87 291.309 591.294 291.147 589.494 290.715C586.848 290.121 584.886 289.401 584.886 286.917C584.886 284.541 586.794 282.957 589.602 282.957C591.69 282.957 593.31 283.569 594.624 284.649L593.058 286.845C591.924 285.981 590.682 285.531 589.53 285.531C588.54 285.531 587.982 285.999 587.982 286.611C587.982 287.367 588.576 287.619 590.412 288.015C593.184 288.609 594.966 289.401 594.966 291.723C594.966 294.207 593.076 295.755 590.016 295.755ZM600.421 295.539V285.927H596.677V283.173H607.261V285.927H603.499V295.539H600.421ZM617.84 295.539V285.927H614.096V283.173H624.68V285.927H620.918V295.539H617.84ZM627.097 295.539V283.173H630.175V295.539H627.097ZM633.416 295.539V283.173H636.494L640.058 289.617L643.622 283.173H646.7V295.539H643.622V288.375L640.058 294.819L636.494 288.375V295.539H633.416ZM659.686 285.927H653.026V287.853H659.074V290.607H653.026V292.785H659.686V295.539H649.948V283.173H659.686V285.927ZM673.001 295.539H669.509L666.791 291.669H665.567V295.539H662.489V283.173H668.231C670.967 283.173 672.929 284.919 672.929 287.421C672.929 289.311 671.813 290.769 670.067 291.381L673.001 295.539ZM665.567 285.981V288.861H667.961C669.023 288.861 669.761 288.285 669.761 287.421C669.761 286.557 669.023 285.981 667.961 285.981H665.567ZM680.453 295.755C678.257 295.755 676.259 295.035 674.747 293.685L676.493 291.615C677.699 292.605 679.049 293.181 680.561 293.181C681.713 293.181 682.307 292.713 682.307 292.047C682.307 291.309 681.731 291.147 679.931 290.715C677.285 290.121 675.323 289.401 675.323 286.917C675.323 284.541 677.231 282.957 680.039 282.957C682.127 282.957 683.747 283.569 685.061 284.649L683.495 286.845C682.361 285.981 681.119 285.531 679.967 285.531C678.977 285.531 678.419 285.999 678.419 286.611C678.419 287.367 679.013 287.619 680.849 288.015C683.621 288.609 685.403 289.401 685.403 291.723C685.403 294.207 683.513 295.755 680.453 295.755Z" fill="#1E0060"></path><path d="M472.841 76.0918V63.3823H474.284L479.001 72.2438L483.719 63.3823H485.162V76.0918H483.719V66.4903L479.001 75.3518L474.284 66.4903V76.0918H472.841ZM498.681 64.7513H491.022V68.9323H497.923V70.3013H491.022V74.7228H498.681V76.0918H489.561V63.3823H498.681V64.7513ZM502.108 76.0918V63.3823H503.551L511.432 73.7238V63.3823H512.875V76.0918H511.432L503.551 65.7503V76.0918H502.108ZM486.656 104.092L482.309 91.3823H483.937L487.452 101.668L490.819 91.3823H492.428L495.795 101.668L499.31 91.3823H500.938L496.591 104.092H495.166L491.633 93.2693L488.081 104.092H486.656ZM509.418 104.314C505.903 104.314 502.906 101.298 502.906 97.7278C502.906 94.1573 505.903 91.1603 509.418 91.1603C512.952 91.1603 515.912 94.1573 515.912 97.7278C515.912 101.298 512.952 104.314 509.418 104.314ZM509.418 102.982C512.156 102.982 514.45 100.577 514.45 97.7278C514.45 94.8973 512.156 92.4923 509.418 92.4923C506.68 92.4923 504.368 94.8973 504.368 97.7278C504.368 100.577 506.68 102.982 509.418 102.982ZM519.36 104.092V91.3823H520.803L525.521 100.244L530.238 91.3823H531.681V104.092H530.238V94.4903L525.521 103.352L520.803 94.4903V104.092H519.36ZM545.201 92.7513H537.542V96.9323H544.442V98.3013H537.542V102.723H545.201V104.092H536.08V91.3823H545.201V92.7513ZM548.627 104.092V91.3823H550.07L557.951 101.724V91.3823H559.394V104.092H557.951L550.07 93.7503V104.092H548.627ZM494.7 132.092V119.382H496.143L504.024 129.724V119.382H505.467V132.092H504.024L496.143 121.75V132.092H494.7ZM515.398 132.314C511.883 132.314 508.886 129.298 508.886 125.728C508.886 122.157 511.883 119.16 515.398 119.16C518.931 119.16 521.891 122.157 521.891 125.728C521.891 129.298 518.931 132.314 515.398 132.314ZM515.398 130.982C518.136 130.982 520.43 128.577 520.43 125.728C520.43 122.897 518.136 120.492 515.398 120.492C512.66 120.492 510.347 122.897 510.347 125.728C510.347 128.577 512.66 130.982 515.398 130.982ZM525.34 132.092V119.382H526.783L534.664 129.724V119.382H536.107V132.092H534.664L526.783 121.75V132.092H525.34ZM540.08 127.744V126.394H544.872V127.744H540.08ZM548.843 132.092V119.382H554.671C556.724 119.382 558.167 120.696 558.167 122.546C558.167 123.896 557.501 124.673 556.354 125.339C557.816 126.079 558.667 127.226 558.667 128.614C558.667 130.649 557.094 132.092 554.893 132.092H548.843ZM550.286 124.766H554.301C555.707 124.766 556.706 123.915 556.706 122.731C556.706 121.547 555.707 120.696 554.301 120.696H550.286V124.766ZM550.286 130.778H554.523C556.095 130.778 557.205 129.798 557.205 128.429C557.205 127.06 556.095 126.079 554.523 126.079H550.286V130.778ZM562.221 132.092V119.382H563.664V132.092H562.221ZM568.065 132.092V119.382H569.508L577.389 129.724V119.382H578.832V132.092H577.389L569.508 121.75V132.092H568.065ZM592.889 132.092L591.612 129.206H584.527L583.25 132.092H581.678L587.283 119.382H588.856L594.461 132.092H592.889ZM585.119 127.837H591.02L588.079 121.158L585.119 127.837ZM607.156 123.452C607.156 125.617 605.472 127.208 603.197 127.485L606.434 132.092H604.788L601.569 127.522H598.757V132.092H597.314V119.382H602.475C605.102 119.382 607.156 121.066 607.156 123.452ZM598.757 120.751V126.153H602.216C604.288 126.153 605.694 125.154 605.694 123.452C605.694 121.75 604.288 120.751 602.216 120.751H598.757ZM613.916 132.092V126.912L608.792 119.382H610.586L614.675 125.543L618.8 119.382H620.539L615.433 126.912V132.092H613.916ZM621.258 133.461L627.752 118.346H629.324L622.831 133.461H621.258ZM637.234 132.314C633.719 132.314 630.722 129.298 630.722 125.728C630.722 122.157 633.719 119.16 637.234 119.16C640.767 119.16 643.727 122.157 643.727 125.728C643.727 129.298 640.767 132.314 637.234 132.314ZM637.234 130.982C639.972 130.982 642.266 128.577 642.266 125.728C642.266 122.897 639.972 120.492 637.234 120.492C634.496 120.492 632.183 122.897 632.183 125.728C632.183 128.577 634.496 130.982 637.234 130.982ZM649.895 132.092V120.751H645.622V119.382H655.612V120.751H651.338V132.092H649.895ZM667.393 119.382H668.836V132.092H667.393V126.301H659.901V132.092H658.458V119.382H659.901V124.932H667.393V119.382ZM682.365 120.751H674.706V124.932H681.607V126.301H674.706V130.723H682.365V132.092H673.245V119.382H682.365V120.751ZM695.634 123.452C695.634 125.617 693.95 127.208 691.675 127.485L694.912 132.092H693.266L690.047 127.522H687.235V132.092H685.792V119.382H690.953C693.58 119.382 695.634 121.066 695.634 123.452ZM687.235 120.751V126.153H690.694C692.766 126.153 694.172 125.154 694.172 123.452C694.172 121.75 692.766 120.751 690.694 120.751H687.235ZM709.783 126.764V125.395H714.87V130.371C713.686 131.555 711.688 132.314 709.931 132.314C706.416 132.314 703.419 129.298 703.419 125.728C703.419 122.157 706.416 119.16 709.931 119.16C711.688 119.16 713.686 119.9 714.87 121.103L713.89 122.102C712.965 121.121 711.318 120.492 709.931 120.492C707.193 120.492 704.88 122.897 704.88 125.728C704.88 128.577 707.193 130.982 709.931 130.982C711.115 130.982 712.484 130.519 713.427 129.798V126.764H709.783ZM727.765 120.751H720.106V124.932H727.006V126.301H720.106V130.723H727.765V132.092H718.644V119.382H727.765V120.751ZM731.191 132.092V119.382H732.634L740.515 129.724V119.382H741.958V132.092H740.515L732.634 121.75V132.092H731.191ZM746.357 132.092V119.382H750.649C754.682 119.382 757.531 122.009 757.531 125.728C757.531 129.446 754.682 132.092 750.649 132.092H746.357ZM747.8 130.778H750.649C753.831 130.778 756.07 128.688 756.07 125.728C756.07 122.786 753.831 120.696 750.649 120.696H747.8V130.778ZM770.066 120.751H762.407V124.932H769.308V126.301H762.407V130.723H770.066V132.092H760.946V119.382H770.066V120.751ZM783.334 123.452C783.334 125.617 781.651 127.208 779.375 127.485L782.613 132.092H780.966L777.747 127.522H774.935V132.092H773.492V119.382H778.654C781.281 119.382 783.334 121.066 783.334 123.452ZM774.935 120.751V126.153H778.395C780.467 126.153 781.873 125.154 781.873 123.452C781.873 121.75 780.467 120.751 778.395 120.751H774.935ZM790.483 132.295C788.393 132.295 786.746 131.537 785.47 130.279L786.376 129.15C787.449 130.223 788.763 130.982 790.539 130.982C792.5 130.982 793.499 129.909 793.499 128.762C793.499 127.411 792.296 126.875 790.076 126.357C787.523 125.765 785.914 124.969 785.914 122.768C785.914 120.733 787.727 119.16 790.169 119.16C792.056 119.16 793.462 119.9 794.627 120.973L793.739 122.102C792.685 121.084 791.427 120.474 790.095 120.474C788.522 120.474 787.375 121.491 787.375 122.657C787.375 123.97 788.633 124.433 790.798 124.951C793.221 125.524 794.96 126.394 794.96 128.632C794.96 130.649 793.443 132.295 790.483 132.295ZM505.629 160.092V147.382H510.791C513.418 147.382 515.471 149.066 515.471 151.452C515.471 153.839 513.418 155.522 510.791 155.522H507.072V160.092H505.629ZM507.072 154.153H510.532C512.604 154.153 514.01 153.154 514.01 151.452C514.01 149.75 512.604 148.751 510.532 148.751H507.072V154.153ZM528.506 151.452C528.506 153.617 526.822 155.208 524.547 155.485L527.784 160.092H526.138L522.919 155.522H520.107V160.092H518.664V147.382H523.825C526.452 147.382 528.506 149.066 528.506 151.452ZM520.107 148.751V154.153H523.566C525.638 154.153 527.044 153.154 527.044 151.452C527.044 149.75 525.638 148.751 523.566 148.751H520.107ZM540.927 148.751H533.268V152.932H540.169V154.301H533.268V158.723H540.927V160.092H531.807V147.382H540.927V148.751ZM553.474 148.751H545.815V152.932H552.715V154.301H545.815V160.092H544.353V147.382H553.474V148.751ZM565.659 148.751H558V152.932H564.901V154.301H558V158.723H565.659V160.092H556.539V147.382H565.659V148.751ZM578.928 151.452C578.928 153.617 577.244 155.208 574.969 155.485L578.206 160.092H576.56L573.341 155.522H570.529V160.092H569.086V147.382H574.247C576.874 147.382 578.928 149.066 578.928 151.452ZM570.529 148.751V154.153H573.988C576.06 154.153 577.466 153.154 577.466 151.452C577.466 149.75 576.06 148.751 573.988 148.751H570.529ZM587.693 160.092V147.382H589.136L597.017 157.724V147.382H598.46V160.092H597.017L589.136 149.75V160.092H587.693ZM608.391 160.314C604.876 160.314 601.879 157.298 601.879 153.728C601.879 150.157 604.876 147.16 608.391 147.16C611.925 147.16 614.885 150.157 614.885 153.728C614.885 157.298 611.925 160.314 608.391 160.314ZM608.391 158.982C611.129 158.982 613.423 156.577 613.423 153.728C613.423 150.897 611.129 148.492 608.391 148.492C605.653 148.492 603.341 150.897 603.341 153.728C603.341 156.577 605.653 158.982 608.391 158.982ZM621.053 160.092V148.751H616.779V147.382H626.769V148.751H622.496V160.092H621.053ZM637.799 160.092V148.751H633.526V147.382H643.516V148.751H639.242V160.092H637.799ZM651.894 160.314C648.379 160.314 645.382 157.298 645.382 153.728C645.382 150.157 648.379 147.16 651.894 147.16C655.427 147.16 658.387 150.157 658.387 153.728C658.387 157.298 655.427 160.314 651.894 160.314ZM651.894 158.982C654.632 158.982 656.926 156.577 656.926 153.728C656.926 150.897 654.632 148.492 651.894 148.492C649.156 148.492 646.843 150.897 646.843 153.728C646.843 156.577 649.156 158.982 651.894 158.982ZM676.957 160.092L675.681 157.206H668.595L667.319 160.092H665.746L671.352 147.382H672.924L678.53 160.092H676.957ZM669.187 155.837H675.089L672.147 149.158L669.187 155.837ZM681.383 160.092V147.382H682.826L690.707 157.724V147.382H692.15V160.092H690.707L682.826 149.75V160.092H681.383ZM700.397 160.295C698.307 160.295 696.66 159.537 695.384 158.279L696.29 157.15C697.363 158.223 698.677 158.982 700.453 158.982C702.414 158.982 703.413 157.909 703.413 156.762C703.413 155.411 702.21 154.875 699.99 154.357C697.437 153.765 695.828 152.969 695.828 150.768C695.828 148.733 697.641 147.16 700.083 147.16C701.97 147.16 703.376 147.9 704.541 148.973L703.653 150.102C702.599 149.084 701.341 148.474 700.009 148.474C698.436 148.474 697.289 149.491 697.289 150.657C697.289 151.97 698.547 152.433 700.712 152.951C703.135 153.524 704.874 154.394 704.874 156.632C704.874 158.649 703.357 160.295 700.397 160.295ZM711.133 160.092L706.785 147.382H708.413L711.928 157.668L715.295 147.382H716.905L720.272 157.668L723.787 147.382H725.415L721.067 160.092H719.643L716.109 149.269L712.557 160.092H711.133ZM737.484 148.751H729.825V152.932H736.725V154.301H729.825V158.723H737.484V160.092H728.363V147.382H737.484V148.751ZM750.752 151.452C750.752 153.617 749.069 155.208 746.793 155.485L750.031 160.092H748.384L745.165 155.522H742.353V160.092H740.91V147.382H746.072C748.699 147.382 750.752 149.066 750.752 151.452ZM742.353 148.751V154.153H745.813C747.885 154.153 749.291 153.154 749.291 151.452C749.291 149.75 747.885 148.751 745.813 148.751H742.353Z" fill="#1E0060"></path><path d="M412.434 76.0918V73.6683H406.274L405.996 71.2633L411.75 63.4008H415.598V71.0413H417.207V73.6683H415.598V76.0918H412.434ZM409.271 71.0413H412.434V66.6753L409.271 71.0413ZM418.982 76.0918V73.5203L423.681 70.0053C425.106 68.9323 425.513 68.2293 425.513 67.4523C425.513 66.5828 424.754 66.0278 423.829 66.0278C422.645 66.0278 421.757 66.6013 420.795 67.6188L418.816 65.6578C420.166 64.0298 421.813 63.1603 423.903 63.1603C426.752 63.1603 428.75 64.8993 428.75 67.3228C428.75 69.0063 428.047 70.3198 425.827 71.8368L423.829 73.2613H428.88V76.0918H418.982ZM434.337 69.8018C432.394 69.8018 431.099 68.3773 431.099 66.5273C431.099 64.7143 432.376 63.2528 434.337 63.2528C436.316 63.2528 437.593 64.7328 437.593 66.5273C437.593 68.3773 436.261 69.8018 434.337 69.8018ZM432.801 76.0918L441.681 63.3823H444.068L435.188 76.0918H432.801ZM434.337 68.0073C435.04 68.0073 435.558 67.4523 435.558 66.5273C435.558 65.6208 435.021 65.0473 434.337 65.0473C433.634 65.0473 433.134 65.6023 433.134 66.5273C433.134 67.4338 433.652 68.0073 434.337 68.0073ZM442.495 76.2953C440.553 76.2953 439.258 74.8338 439.258 73.0208C439.258 71.1708 440.571 69.7278 442.514 69.7278C444.475 69.7278 445.751 71.2078 445.751 73.0208C445.751 74.8523 444.419 76.2953 442.495 76.2953ZM442.514 74.5008C443.198 74.5008 443.716 73.9458 443.716 73.0208C443.716 72.1143 443.18 71.5408 442.495 71.5408C441.792 71.5408 441.293 72.0773 441.293 73.0208C441.293 73.9273 441.811 74.5008 442.514 74.5008Z" fill="#1E0060"></path><path d="M434.152 95.7853C436.502 95.7853 438.444 97.3208 438.444 99.8553C438.444 102.538 436.28 104.314 433.449 104.314C429.657 104.314 427.844 101.705 427.844 97.9683C427.844 93.9353 430.193 91.1603 433.93 91.1603C435.521 91.1603 436.835 91.6598 437.926 92.4923L436.465 94.8788C435.688 94.2683 434.966 93.9168 433.949 93.9168C432.432 93.9168 431.47 94.9898 431.192 96.8028C431.951 96.1738 433.042 95.7853 434.152 95.7853ZM433.246 101.631C434.43 101.631 435.188 100.891 435.188 99.9848C435.188 98.9303 434.263 98.3198 433.172 98.3198C432.302 98.3198 431.562 98.8008 431.192 99.5593C431.396 100.947 431.969 101.631 433.246 101.631ZM443.721 97.8018C441.779 97.8018 440.484 96.3773 440.484 94.5273C440.484 92.7143 441.76 91.2528 443.721 91.2528C445.701 91.2528 446.977 92.7328 446.977 94.5273C446.977 96.3773 445.645 97.8018 443.721 97.8018ZM442.186 104.092L451.066 91.3823H453.452L444.572 104.092H442.186ZM443.721 96.0073C444.424 96.0073 444.942 95.4523 444.942 94.5273C444.942 93.6208 444.406 93.0473 443.721 93.0473C443.018 93.0473 442.519 93.6023 442.519 94.5273C442.519 95.4338 443.037 96.0073 443.721 96.0073ZM451.88 104.295C449.937 104.295 448.642 102.834 448.642 101.021C448.642 99.1708 449.956 97.7278 451.898 97.7278C453.859 97.7278 455.136 99.2078 455.136 101.021C455.136 102.852 453.804 104.295 451.88 104.295ZM451.898 102.501C452.583 102.501 453.101 101.946 453.101 101.021C453.101 100.114 452.564 99.5408 451.88 99.5408C451.177 99.5408 450.677 100.077 450.677 101.021C450.677 101.927 451.195 102.501 451.898 102.501Z" fill="#7340AE"></path><path d="M443.476 160.332C441.293 160.332 439.665 159.592 438.425 158.408L440.238 156.17C441.2 157.021 442.347 157.594 443.494 157.594C444.826 157.594 445.566 156.854 445.566 155.948C445.566 155.004 444.789 154.375 443.531 154.375C442.625 154.375 441.829 154.671 441.182 155.171L439.091 154.357L439.276 147.382H448.027V150.213H442.181L442.107 152.525C442.717 152.081 443.513 151.785 444.53 151.785C446.75 151.785 448.73 153.228 448.73 155.837C448.73 158.593 446.676 160.332 443.476 160.332ZM450.633 160.092V157.52L455.332 154.005C456.756 152.932 457.163 152.229 457.163 151.452C457.163 150.583 456.405 150.028 455.48 150.028C454.296 150.028 453.408 150.601 452.446 151.619L450.466 149.658C451.817 148.03 453.463 147.16 455.554 147.16C458.403 147.16 460.401 148.899 460.401 151.323C460.401 153.006 459.698 154.32 457.478 155.837L455.48 157.261H460.53V160.092H450.633ZM465.987 153.802C464.045 153.802 462.75 152.377 462.75 150.527C462.75 148.714 464.026 147.253 465.987 147.253C467.967 147.253 469.243 148.733 469.243 150.527C469.243 152.377 467.911 153.802 465.987 153.802ZM464.452 160.092L473.332 147.382H475.718L466.838 160.092H464.452ZM465.987 152.007C466.69 152.007 467.208 151.452 467.208 150.527C467.208 149.621 466.672 149.047 465.987 149.047C465.284 149.047 464.785 149.602 464.785 150.527C464.785 151.434 465.303 152.007 465.987 152.007ZM474.146 160.295C472.203 160.295 470.908 158.834 470.908 157.021C470.908 155.171 472.222 153.728 474.164 153.728C476.125 153.728 477.402 155.208 477.402 157.021C477.402 158.852 476.07 160.295 474.146 160.295ZM474.164 158.501C474.849 158.501 475.367 157.946 475.367 157.021C475.367 156.114 474.83 155.541 474.146 155.541C473.443 155.541 472.943 156.077 472.943 157.021C472.943 157.927 473.461 158.501 474.164 158.501Z" fill="#747474"></path><path d="M447.564 130.612L438.851 126.986V124.488L447.564 120.862V123.341L441.256 125.746L447.564 128.114V130.612ZM453.07 132.092V122.953L450.924 124.285L449.666 122.083L453.699 119.382H456.234V132.092H453.07ZM462.229 125.802C460.287 125.802 458.992 124.377 458.992 122.527C458.992 120.714 460.268 119.253 462.229 119.253C464.209 119.253 465.485 120.733 465.485 122.527C465.485 124.377 464.153 125.802 462.229 125.802ZM460.694 132.092L469.574 119.382H471.96L463.08 132.092H460.694ZM462.229 124.007C462.932 124.007 463.45 123.452 463.45 122.527C463.45 121.621 462.914 121.047 462.229 121.047C461.526 121.047 461.027 121.602 461.027 122.527C461.027 123.434 461.545 124.007 462.229 124.007ZM470.388 132.295C468.445 132.295 467.15 130.834 467.15 129.021C467.15 127.171 468.464 125.728 470.406 125.728C472.367 125.728 473.644 127.208 473.644 129.021C473.644 130.852 472.312 132.295 470.388 132.295ZM470.406 130.501C471.091 130.501 471.609 129.946 471.609 129.021C471.609 128.114 471.072 127.541 470.388 127.541C469.685 127.541 469.185 128.077 469.185 129.021C469.185 129.927 469.703 130.501 470.406 130.501Z" fill="#EA62A5"></path><path d="M16.7924 154.775V115.255L7.51242 121.015L2.07242 111.495L19.5124 99.8154H30.4724V154.775H16.7924ZM67.5187 118.855C77.6787 118.855 86.0787 125.495 86.0787 136.455C86.0787 148.055 76.7187 155.735 64.4787 155.735C48.0787 155.735 40.2387 144.455 40.2387 128.295C40.2387 110.855 50.3987 98.8554 66.5587 98.8554C73.4387 98.8554 79.1187 101.015 83.8387 104.615L77.5187 114.935C74.1587 112.295 71.0387 110.775 66.6387 110.775C60.0787 110.775 55.9187 115.415 54.7187 123.255C57.9987 120.535 62.7187 118.855 67.5187 118.855ZM63.5987 144.135C68.7187 144.135 71.9987 140.935 71.9987 137.015C71.9987 132.455 67.9987 129.815 63.2787 129.815C59.5187 129.815 56.3187 131.895 54.7187 135.175C55.5987 141.175 58.0787 144.135 63.5987 144.135ZM101.299 166.855L96.6587 163.335C99.2987 161.095 101.059 158.375 101.779 155.735C97.4587 155.735 93.8587 151.975 93.8587 147.575C93.8587 143.015 97.6187 139.255 102.019 139.255C107.059 139.255 110.499 143.895 110.499 150.375C110.499 155.655 107.299 161.415 101.299 166.855ZM144.501 155.735C129.701 155.735 119.221 143.975 119.221 127.255C119.221 110.615 129.701 98.8554 144.501 98.8554C159.381 98.8554 169.861 110.615 169.861 127.255C169.861 143.975 159.381 155.735 144.501 155.735ZM144.501 143.335C151.141 143.335 155.781 136.615 155.781 127.255C155.781 117.895 151.141 111.255 144.501 111.255C137.941 111.255 133.301 117.895 133.301 127.255C133.301 136.615 137.941 143.335 144.501 143.335ZM197.997 98.8554C214.397 98.8554 222.237 110.135 222.237 126.295C222.237 143.735 212.077 155.735 195.917 155.735C189.037 155.735 183.357 153.575 178.637 149.975L184.957 139.655C188.317 142.295 191.437 143.815 195.837 143.815C202.397 143.815 206.557 139.175 207.757 131.335C204.477 134.055 199.757 135.735 194.957 135.735C184.797 135.735 176.397 129.095 176.397 118.135C176.397 106.535 185.757 98.8554 197.997 98.8554ZM199.197 124.775C202.957 124.775 206.157 122.695 207.757 119.415C206.877 113.415 204.397 110.455 198.877 110.455C193.757 110.455 190.477 113.655 190.477 117.575C190.477 122.135 194.477 124.775 199.197 124.775ZM229.297 154.775V143.655L249.617 128.455C255.777 123.815 257.537 120.775 257.537 117.415C257.537 113.655 254.257 111.255 250.257 111.255C245.137 111.255 241.297 113.735 237.137 118.135L228.577 109.655C234.417 102.615 241.537 98.8554 250.577 98.8554C262.897 98.8554 271.537 106.375 271.537 116.855C271.537 124.135 268.497 129.815 258.897 136.375L250.257 142.535H272.097V154.775H229.297Z" fill="#1E0060"></path><path d="M4.42995 75.0918L4.42995 65.1198H0.577953L0.577953 62.7258H10.946V65.1198H7.07595L7.07595 75.0918H4.42995ZM19.274 75.3078C15.71 75.3078 12.686 72.3738 12.686 68.8998C12.686 65.4258 15.71 62.5098 19.274 62.5098C22.838 62.5098 25.826 65.4258 25.826 68.8998C25.826 72.3738 22.838 75.3078 19.274 75.3078ZM19.274 72.8958C21.344 72.8958 23.108 71.0598 23.108 68.8998C23.108 66.7578 21.344 64.9218 19.274 64.9218C17.186 64.9218 15.422 66.7578 15.422 68.8998C15.422 71.0598 17.186 72.8958 19.274 72.8958ZM31.4644 75.0918L31.4644 65.1198H27.6124V62.7258H37.9804V65.1198H34.1104V75.0918H31.4644ZM49.4045 75.0918L48.5405 72.9678H43.1765L42.3125 75.0918H39.3425L44.3825 62.7258H47.3525L52.3925 75.0918L49.4045 75.0918ZM44.0225 70.8978L47.6945 70.8978L45.8585 66.3798L44.0225 70.8978ZM57.4395 72.6978H63.5955V75.0918H54.7755V62.7258H57.4395V72.6978ZM81.5926 66.9018C81.5926 68.8458 80.3686 70.3218 78.5146 70.8618L81.4846 75.0918H78.4606L75.6346 71.0778H74.0326V75.0918H71.3686V62.7258H76.9306C79.6306 62.7258 81.5926 64.4538 81.5926 66.9018ZM74.0326 65.1558V68.6478H76.6606C77.9746 68.6478 78.8746 67.9638 78.8746 66.9018C78.8746 65.8398 77.9746 65.1558 76.6606 65.1558H74.0326ZM93.9244 65.1198H87.0664V67.5858H93.2944V69.9798H87.0664V72.6978H93.9244V75.0918H84.4024V62.7258H93.9244V65.1198ZM102.292 70.2138V68.1438H107.746V73.2378C106.522 74.5338 104.596 75.3078 102.76 75.3078C99.1602 75.3078 96.1182 72.3738 96.1182 68.8998C96.1182 65.4258 99.1602 62.5098 102.76 62.5098C104.596 62.5098 106.522 63.2838 107.746 64.5798L105.82 66.3078C105.082 65.4618 103.894 64.9218 102.76 64.9218C100.636 64.9218 98.8542 66.7578 98.8542 68.8998C98.8542 71.0598 100.636 72.8958 102.76 72.8958C103.588 72.8958 104.47 72.6078 105.154 72.1038V70.2138H102.292ZM110.751 75.0918V62.7258L113.415 62.7258V75.0918H110.751ZM121.484 75.3078C119.324 75.3078 117.434 74.5878 115.994 73.2558L117.506 71.4378C118.676 72.4458 120.008 73.0578 121.574 73.0578C122.924 73.0578 123.608 72.4458 123.608 71.6718C123.608 70.7898 122.888 70.5198 120.998 70.0878C118.388 69.4938 116.516 68.7558 116.516 66.3618C116.516 64.0758 118.388 62.5098 121.106 62.5098C123.122 62.5098 124.67 63.1398 125.948 64.2198L124.562 66.1458C123.446 65.2458 122.204 64.7598 121.016 64.7598C119.9 64.7598 119.198 65.3538 119.198 66.0918C119.198 66.9918 119.954 67.2798 121.862 67.7118C124.526 68.3058 126.29 69.0978 126.29 71.3838C126.29 73.7418 124.49 75.3078 121.484 75.3078ZM131.876 75.0918V65.1198L128.024 65.1198V62.7258H138.392V65.1198H134.522V75.0918H131.876ZM150.392 65.1198H143.534V67.5858H149.762V69.9798H143.534V72.6978H150.392V75.0918H140.87V62.7258H150.392V65.1198ZM163.548 66.9018C163.548 68.8458 162.324 70.3218 160.47 70.8618L163.44 75.0918H160.416L157.59 71.0778H155.988V75.0918H153.324V62.7258L158.886 62.7258C161.586 62.7258 163.548 64.4538 163.548 66.9018ZM155.988 65.1558V68.6478H158.616C159.93 68.6478 160.83 67.9638 160.83 66.9018C160.83 65.8398 159.93 65.1558 158.616 65.1558H155.988ZM175.88 65.1198H169.022V67.5858H175.25V69.9798H169.022V72.6978H175.88V75.0918H166.358V62.7258H175.88V65.1198ZM178.812 75.0918V62.7258H183.258C187.416 62.7258 190.368 65.2818 190.368 68.8998C190.368 72.5178 187.416 75.0918 183.258 75.0918H178.812ZM181.476 72.6798H183.6C185.958 72.6798 187.632 71.1138 187.632 68.8998C187.632 66.7038 185.958 65.1378 183.6 65.1378H181.476V72.6798Z" fill="#1E0060"></path><defs><clipPath id="clip0_5416_857"><rect width="321" height="584" fill="white" transform="translate(878.002)"></rect></clipPath></defs></svg> 