<svg width="1203" height="715" viewBox="0 0 1203 715" fill="none" xmlns="http://www.w3.org/2000/svg">
<mask id="mask0_5441_2073" style="mask-type:alpha" maskUnits="userSpaceOnUse" x="0" y="610" width="380" height="61">
<path d="M0 610.588H380V670.588H0V610.588Z" fill="#5C2CFF"/>
</mask>
<g mask="url(#mask0_5441_2073)">
<path fill-rule="evenodd" clip-rule="evenodd" d="M839.361 1453.09L-99.1382 552.837L-97.9316 551.68L840.568 1451.93L839.361 1453.09Z" fill="#D0D0D0"/>
<path fill-rule="evenodd" clip-rule="evenodd" d="M1084.59 1453.48L146.476 552.838L147.682 551.68L1085.8 1452.33L1084.59 1453.48Z" fill="#D0D0D0"/>
<path fill-rule="evenodd" clip-rule="evenodd" d="M961.786 1453.48L23.667 552.838L24.873 551.68L962.992 1452.33L961.786 1453.48Z" fill="#D0D0D0"/>
<path fill-rule="evenodd" clip-rule="evenodd" d="M1207.41 1453.48L269.286 552.838L270.492 551.68L1208.61 1452.33L1207.41 1453.48Z" fill="#D0D0D0"/>
<path fill-rule="evenodd" clip-rule="evenodd" d="M900.382 1453.48L-37.7373 552.838L-36.5312 551.68L901.588 1452.33L900.382 1453.48Z" fill="#D0D0D0"/>
<path fill-rule="evenodd" clip-rule="evenodd" d="M1146 1453.48L207.882 552.838L209.088 551.68L1147.21 1452.33L1146 1453.48Z" fill="#D0D0D0"/>
<path fill-rule="evenodd" clip-rule="evenodd" d="M1023.19 1453.48L85.0713 552.838L86.2773 551.68L1024.4 1452.33L1023.19 1453.48Z" fill="#D0D0D0"/>
<path fill-rule="evenodd" clip-rule="evenodd" d="M1268.81 1453.48L330.688 552.838L331.895 551.68L1270.01 1452.33L1268.81 1453.48Z" fill="#D0D0D0"/>
<path fill-rule="evenodd" clip-rule="evenodd" d="M869.68 1453.48L-68.4385 552.838L-67.2324 551.68L870.886 1452.33L869.68 1453.48Z" fill="#D0D0D0"/>
<path fill-rule="evenodd" clip-rule="evenodd" d="M1115.3 1453.48L177.179 552.838L178.385 551.68L1116.5 1452.33L1115.3 1453.48Z" fill="#D0D0D0"/>
<path fill-rule="evenodd" clip-rule="evenodd" d="M992.487 1453.48L54.3681 552.838L55.5742 551.68L993.693 1452.33L992.487 1453.48Z" fill="#D0D0D0"/>
<path fill-rule="evenodd" clip-rule="evenodd" d="M1238.11 1453.48L299.987 552.838L301.193 551.68L1239.31 1452.33L1238.11 1453.48Z" fill="#D0D0D0"/>
<path fill-rule="evenodd" clip-rule="evenodd" d="M931.085 1453.48L-7.03422 552.838L-5.82812 551.68L932.291 1452.33L931.085 1453.48Z" fill="#D0D0D0"/>
<path fill-rule="evenodd" clip-rule="evenodd" d="M1176.7 1453.48L238.583 552.838L239.789 551.68L1177.91 1452.33L1176.7 1453.48Z" fill="#D0D0D0"/>
<path fill-rule="evenodd" clip-rule="evenodd" d="M1053.89 1453.48L115.774 552.838L116.98 551.68L1055.1 1452.33L1053.89 1453.48Z" fill="#D0D0D0"/>
<path fill-rule="evenodd" clip-rule="evenodd" d="M1299.51 1453.48L361.39 552.838L362.596 551.68L1300.71 1452.33L1299.51 1453.48Z" fill="#D0D0D0"/>
</g>
<path d="M0.5 611.088H379.5V670.088H0.5V611.088Z" stroke="#D0D0D0"/>
<path d="M6.84 610.588V670.588H0V610.588H6.84Z" fill="#477076"/>
<path d="M14.328 583V545.704L5.904 550.96L1.584 543.472L16.416 533.536H24.912V583H14.328ZM43.3215 583.864C39.5055 583.864 36.6255 580.84 36.6255 577.168C36.6255 573.784 39.5055 570.76 43.3215 570.76C46.8495 570.76 49.7295 573.784 49.7295 577.168C49.7295 580.84 46.8495 583.864 43.3215 583.864ZM78.6606 583.864C67.7166 583.864 58.7886 578.68 58.7886 569.752C58.7886 563.92 62.8206 559.6 68.5086 557.44C63.6126 555.352 60.0846 551.752 60.0846 546.136C60.0846 537.424 69.0126 532.672 78.6606 532.672C88.5246 532.672 97.3086 537.64 97.3086 546.136C97.3086 551.68 93.7806 555.28 88.8126 557.44C94.6446 559.744 98.5326 564.064 98.5326 569.752C98.5326 578.752 89.5326 583.864 78.6606 583.864ZM78.6606 553.768C82.5486 553.48 86.7246 551.176 86.7246 547.504C86.7246 544.12 83.4126 541.6 78.6606 541.6C73.9086 541.6 70.6686 544.12 70.6686 547.504C70.6686 551.32 74.7726 553.48 78.6606 553.768ZM78.6606 574.936C83.9166 574.936 87.8046 572.344 87.8046 568.6C87.8046 564.712 82.9086 562.264 78.6606 562.12C74.4126 562.264 69.5886 564.712 69.5886 568.6C69.5886 572.344 73.4046 574.936 78.6606 574.936ZM118.155 558.376C110.739 558.376 105.843 552.832 105.843 545.776C105.843 538.648 110.739 533.032 118.155 533.032C125.643 533.032 130.539 538.72 130.539 545.704C130.539 552.832 125.427 558.376 118.155 558.376ZM112.323 583L146.667 533.536H155.019L120.603 583H112.323ZM118.155 552.184C121.179 552.184 123.411 549.664 123.411 545.704C123.411 541.888 121.179 539.296 118.155 539.296C115.059 539.296 112.899 541.816 112.899 545.704C112.899 549.592 115.203 552.184 118.155 552.184ZM149.043 583.792C141.699 583.792 136.659 578.176 136.659 571.12C136.659 564.064 141.699 558.448 149.043 558.448C156.531 558.448 161.355 564.136 161.355 571.12C161.355 578.248 156.315 583.792 149.043 583.792ZM149.043 577.528C152.139 577.528 154.299 575.008 154.299 571.12C154.299 567.232 151.995 564.64 149.043 564.64C145.947 564.64 143.787 567.16 143.787 571.12C143.787 574.936 146.019 577.528 149.043 577.528Z" fill="#9E008E"/>
<path d="M6.592 709.442C3.424 709.442 0.736 706.834 0.736 703.746C0.736 700.658 3.424 698.066 6.592 698.066C9.76 698.066 12.416 700.658 12.416 703.746C12.416 706.834 9.76 709.442 6.592 709.442ZM6.592 707.298C8.432 707.298 10 705.666 10 703.746C10 701.842 8.432 700.21 6.592 700.21C4.736 700.21 3.168 701.842 3.168 703.746C3.168 705.666 4.736 707.298 6.592 707.298ZM14.5639 709.25V698.258H19.5079C21.9079 698.258 23.6519 699.794 23.6519 701.97C23.6519 704.146 21.9079 705.682 19.5079 705.682H16.9319V709.25H14.5639ZM16.9319 703.522H19.2679C20.4359 703.522 21.2359 702.914 21.2359 701.97C21.2359 701.026 20.4359 700.418 19.2679 700.418H16.9319V703.522ZM34.1529 700.386H28.0569V702.578H33.5929V704.706H28.0569V707.122H34.1529V709.25H25.6889V698.258H34.1529V700.386ZM45.5269 701.97C45.5269 703.698 44.4389 705.01 42.7909 705.49L45.4309 709.25H42.7429L40.2309 705.682H38.8069V709.25H36.4389V698.258H41.3829C43.7829 698.258 45.5269 699.794 45.5269 701.97ZM38.8069 700.418V703.522H41.1429C42.3109 703.522 43.1109 702.914 43.1109 701.97C43.1109 701.026 42.3109 700.418 41.1429 700.418H38.8069ZM55.6565 709.25L54.8885 707.362H50.1205L49.3525 709.25H46.7125L51.1925 698.258H53.8325L58.3125 709.25H55.6565ZM50.8725 705.522H54.1365L52.5045 701.506L50.8725 705.522ZM62.6548 709.25V700.386H59.2308V698.258H68.4468V700.386H65.0068V709.25H62.6548ZM70.3295 709.25V698.258H72.6975V709.25H70.3295ZM80.6858 709.442C77.5178 709.442 74.8298 706.834 74.8298 703.746C74.8298 700.658 77.5178 698.066 80.6858 698.066C83.8538 698.066 86.5098 700.658 86.5098 703.746C86.5098 706.834 83.8538 709.442 80.6858 709.442ZM80.6858 707.298C82.5258 707.298 84.0938 705.666 84.0938 703.746C84.0938 701.842 82.5258 700.21 80.6858 700.21C78.8298 700.21 77.2618 701.842 77.2618 703.746C77.2618 705.666 78.8298 707.298 80.6858 707.298ZM88.6576 709.25V698.258H91.0256L96.3216 705.362V698.258H98.6896V709.25H96.3216L91.0256 702.146V709.25H88.6576ZM105.534 709.442C103.614 709.442 101.934 708.802 100.654 707.618L101.998 706.002C103.038 706.898 104.222 707.442 105.614 707.442C106.814 707.442 107.422 706.898 107.422 706.21C107.422 705.426 106.782 705.186 105.102 704.802C102.782 704.274 101.118 703.618 101.118 701.49C101.118 699.458 102.782 698.066 105.198 698.066C106.99 698.066 108.366 698.626 109.502 699.586L108.27 701.298C107.278 700.498 106.174 700.066 105.118 700.066C104.126 700.066 103.502 700.594 103.502 701.25C103.502 702.05 104.174 702.306 105.87 702.69C108.238 703.218 109.806 703.922 109.806 705.954C109.806 708.05 108.206 709.442 105.534 709.442Z" fill="#2D1762"/>
<mask id="mask1_5441_2073" style="mask-type:alpha" maskUnits="userSpaceOnUse" x="410" y="610" width="380" height="61">
<path d="M410 610.588H790V670.588H410V610.588Z" fill="#5C2CFF"/>
</mask>
<g mask="url(#mask1_5441_2073)">
<path fill-rule="evenodd" clip-rule="evenodd" d="M1249.36 1453.09L310.862 552.837L312.068 551.68L1250.57 1451.93L1249.36 1453.09Z" fill="#D0D0D0"/>
<path fill-rule="evenodd" clip-rule="evenodd" d="M1494.59 1453.48L556.476 552.838L557.682 551.68L1495.8 1452.33L1494.59 1453.48Z" fill="#D0D0D0"/>
<path fill-rule="evenodd" clip-rule="evenodd" d="M1371.79 1453.48L433.667 552.838L434.873 551.68L1372.99 1452.33L1371.79 1453.48Z" fill="#D0D0D0"/>
<path fill-rule="evenodd" clip-rule="evenodd" d="M1617.41 1453.48L679.286 552.838L680.492 551.68L1618.61 1452.33L1617.41 1453.48Z" fill="#D0D0D0"/>
<path fill-rule="evenodd" clip-rule="evenodd" d="M1310.38 1453.48L372.263 552.838L373.469 551.68L1311.59 1452.33L1310.38 1453.48Z" fill="#D0D0D0"/>
<path fill-rule="evenodd" clip-rule="evenodd" d="M1556 1453.48L617.882 552.838L619.088 551.68L1557.21 1452.33L1556 1453.48Z" fill="#D0D0D0"/>
<path fill-rule="evenodd" clip-rule="evenodd" d="M1433.19 1453.48L495.071 552.838L496.277 551.68L1434.4 1452.33L1433.19 1453.48Z" fill="#D0D0D0"/>
<path fill-rule="evenodd" clip-rule="evenodd" d="M1678.81 1453.48L740.688 552.838L741.895 551.68L1680.01 1452.33L1678.81 1453.48Z" fill="#D0D0D0"/>
<path fill-rule="evenodd" clip-rule="evenodd" d="M1279.68 1453.48L341.561 552.838L342.768 551.68L1280.89 1452.33L1279.68 1453.48Z" fill="#D0D0D0"/>
<path fill-rule="evenodd" clip-rule="evenodd" d="M1525.3 1453.48L587.179 552.838L588.385 551.68L1526.5 1452.33L1525.3 1453.48Z" fill="#D0D0D0"/>
<path fill-rule="evenodd" clip-rule="evenodd" d="M1402.49 1453.48L464.368 552.838L465.574 551.68L1403.69 1452.33L1402.49 1453.48Z" fill="#D0D0D0"/>
<path fill-rule="evenodd" clip-rule="evenodd" d="M1648.11 1453.48L709.987 552.838L711.193 551.68L1649.31 1452.33L1648.11 1453.48Z" fill="#D0D0D0"/>
<path fill-rule="evenodd" clip-rule="evenodd" d="M1341.08 1453.48L402.966 552.838L404.172 551.68L1342.29 1452.33L1341.08 1453.48Z" fill="#D0D0D0"/>
<path fill-rule="evenodd" clip-rule="evenodd" d="M1586.7 1453.48L648.583 552.838L649.789 551.68L1587.91 1452.33L1586.7 1453.48Z" fill="#D0D0D0"/>
<path fill-rule="evenodd" clip-rule="evenodd" d="M1463.89 1453.48L525.774 552.838L526.98 551.68L1465.1 1452.33L1463.89 1453.48Z" fill="#D0D0D0"/>
<path fill-rule="evenodd" clip-rule="evenodd" d="M1709.51 1453.48L771.39 552.838L772.596 551.68L1710.71 1452.33L1709.51 1453.48Z" fill="#D0D0D0"/>
</g>
<path d="M410.5 611.088H789.5V670.088H410.5V611.088Z" stroke="#D0D0D0"/>
<path d="M424.328 583V545.704L415.904 550.96L411.584 543.472L426.416 533.536H434.912V583H424.328ZM453.322 583.864C449.506 583.864 446.626 580.84 446.626 577.168C446.626 573.784 449.506 570.76 453.322 570.76C456.85 570.76 459.73 573.784 459.73 577.168C459.73 580.84 456.85 583.864 453.322 583.864ZM492.333 551.032C501.477 551.032 509.037 556.936 509.037 566.728C509.037 576.88 500.901 583.864 490.101 583.864C475.701 583.864 469.077 573.496 469.077 559.096C469.077 543.688 478.077 532.672 491.829 532.672C497.949 532.672 502.917 534.76 506.949 538L501.909 546.064C498.885 543.544 496.005 542.032 491.829 542.032C485.349 542.032 481.029 547.432 480.093 555.784C483.117 552.832 487.653 551.032 492.333 551.032ZM489.525 574.864C494.781 574.864 498.093 571.192 498.093 567.232C498.093 562.48 494.061 559.672 489.237 559.672C485.205 559.672 481.893 561.904 480.381 565.432C481.317 571.48 483.981 574.864 489.525 574.864ZM528.295 558.376C520.879 558.376 515.983 552.832 515.983 545.776C515.983 538.648 520.879 533.032 528.295 533.032C535.783 533.032 540.679 538.72 540.679 545.704C540.679 552.832 535.567 558.376 528.295 558.376ZM522.463 583L556.807 533.536H565.159L530.743 583H522.463ZM528.295 552.184C531.319 552.184 533.551 549.664 533.551 545.704C533.551 541.888 531.319 539.296 528.295 539.296C525.199 539.296 523.039 541.816 523.039 545.704C523.039 549.592 525.343 552.184 528.295 552.184ZM559.183 583.792C551.839 583.792 546.799 578.176 546.799 571.12C546.799 564.064 551.839 558.448 559.183 558.448C566.671 558.448 571.495 564.136 571.495 571.12C571.495 578.248 566.455 583.792 559.183 583.792ZM559.183 577.528C562.279 577.528 564.439 575.008 564.439 571.12C564.439 567.232 562.135 564.64 559.183 564.64C556.087 564.64 553.927 567.16 553.927 571.12C553.927 574.936 556.159 577.528 559.183 577.528Z" fill="#9E008E"/>
<path d="M413.936 709.25V700.386H410.512V698.258H419.728V700.386H416.288V709.25H413.936ZM430.699 701.97C430.699 703.698 429.611 705.01 427.963 705.49L430.603 709.25H427.915L425.403 705.682H423.979V709.25H421.611V698.258H426.555C428.955 698.258 430.699 699.794 430.699 701.97ZM423.979 700.418V703.522H426.315C427.483 703.522 428.283 702.914 428.283 701.97C428.283 701.026 427.483 700.418 426.315 700.418H423.979ZM440.828 709.25L440.06 707.362H435.292L434.524 709.25H431.884L436.364 698.258H439.004L443.484 709.25H440.828ZM436.044 705.522H439.308L437.676 701.506L436.044 705.522ZM445.283 709.25V698.258H447.651V709.25H445.283ZM450.439 709.25V698.258H452.807L458.103 705.362V698.258H460.471V709.25H458.103L452.807 702.146V709.25H450.439ZM463.251 709.25V698.258H465.619V709.25H463.251ZM468.408 709.25V698.258H470.776L476.072 705.362V698.258H478.44V709.25H476.072L470.776 702.146V709.25H468.408ZM486.052 704.914V703.074H490.9V707.602C489.812 708.754 488.1 709.442 486.468 709.442C483.268 709.442 480.564 706.834 480.564 703.746C480.564 700.658 483.268 698.066 486.468 698.066C488.1 698.066 489.812 698.754 490.9 699.906L489.188 701.442C488.532 700.69 487.476 700.21 486.468 700.21C484.58 700.21 482.996 701.842 482.996 703.746C482.996 705.666 484.58 707.298 486.468 707.298C487.204 707.298 487.988 707.042 488.596 706.594V704.914H486.052ZM507.083 708.642L505.163 709.506L503.979 708.274C503.083 709.026 502.043 709.442 500.795 709.442C498.667 709.442 497.099 708.258 497.099 706.258C497.099 704.818 497.803 703.906 499.467 703.154C498.891 702.306 498.699 701.73 498.699 700.914C498.699 699.378 500.075 698.114 501.819 698.114C503.611 698.114 504.907 699.314 504.907 700.898C504.907 702.13 504.139 702.802 502.411 703.602C502.891 704.162 503.435 704.77 504.107 705.49C504.523 704.882 504.875 704.194 505.163 703.474L506.875 704.274C506.395 705.234 505.899 706.082 505.355 706.818L507.083 708.642ZM501.851 699.794C501.211 699.794 500.699 700.258 500.699 700.914C500.699 701.426 500.939 701.842 501.387 702.402C502.475 701.97 502.907 701.634 502.907 700.914C502.907 700.274 502.459 699.794 501.851 699.794ZM501.083 707.666C501.659 707.666 502.219 707.41 502.763 706.994C501.787 705.97 501.067 705.154 500.507 704.498C499.755 704.946 499.419 705.458 499.419 706.098C499.419 707.074 500.171 707.666 501.083 707.666ZM518.811 709.442C515.643 709.442 512.955 706.834 512.955 703.746C512.955 700.658 515.643 698.066 518.811 698.066C520.475 698.066 521.995 698.77 523.067 699.906L521.355 701.442C520.731 700.706 519.803 700.21 518.811 700.21C516.955 700.21 515.387 701.842 515.387 703.746C515.387 705.666 516.955 707.298 518.811 707.298C519.819 707.298 520.731 706.802 521.355 706.066L523.067 707.602C521.995 708.722 520.475 709.442 518.811 709.442ZM533.434 700.386H527.338V702.578H532.874V704.706H527.338V707.122H533.434V709.25H524.97V698.258H533.434V700.386ZM544.808 701.97C544.808 703.698 543.72 705.01 542.072 705.49L544.712 709.25H542.024L539.512 705.682H538.088V709.25H535.72V698.258H540.664C543.064 698.258 544.808 699.794 544.808 701.97ZM538.088 700.418V703.522H540.424C541.592 703.522 542.392 702.914 542.392 701.97C542.392 701.026 541.592 700.418 540.424 700.418H538.088ZM549.53 709.25V700.386H546.106V698.258H555.322V700.386H551.882V709.25H549.53ZM557.205 709.25V698.258H559.573V709.25H557.205ZM570.825 700.386H564.729V702.77H570.265V704.898H564.729V709.25H562.361V698.258H570.825V700.386ZM572.861 709.25V698.258H575.229V709.25H572.861ZM583.217 709.442C580.049 709.442 577.361 706.834 577.361 703.746C577.361 700.658 580.049 698.066 583.217 698.066C584.881 698.066 586.401 698.77 587.473 699.906L585.761 701.442C585.137 700.706 584.209 700.21 583.217 700.21C581.361 700.21 579.793 701.842 579.793 703.746C579.793 705.666 581.361 707.298 583.217 707.298C584.225 707.298 585.137 706.802 585.761 706.066L587.473 707.602C586.401 708.722 584.881 709.442 583.217 709.442ZM597.328 709.25L596.56 707.362H591.792L591.024 709.25H588.384L592.864 698.258H595.504L599.984 709.25H597.328ZM592.544 705.522H595.808L594.176 701.506L592.544 705.522ZM604.327 709.25V700.386H600.903V698.258H610.119V700.386H606.679V709.25H604.327ZM612.001 709.25V698.258H614.369V709.25H612.001ZM622.358 709.442C619.19 709.442 616.502 706.834 616.502 703.746C616.502 700.658 619.19 698.066 622.358 698.066C625.526 698.066 628.182 700.658 628.182 703.746C628.182 706.834 625.526 709.442 622.358 709.442ZM622.358 707.298C624.198 707.298 625.766 705.666 625.766 703.746C625.766 701.842 624.198 700.21 622.358 700.21C620.502 700.21 618.934 701.842 618.934 703.746C618.934 705.666 620.502 707.298 622.358 707.298ZM630.33 709.25V698.258H632.698L637.994 705.362V698.258H640.362V709.25H637.994L632.698 702.146V709.25H630.33Z" fill="#2D1762"/>
<path d="M416.08 610.588V670.588H410V610.588H416.08Z" fill="#477076"/>
<mask id="mask2_5441_2073" style="mask-type:alpha" maskUnits="userSpaceOnUse" x="820" y="610" width="380" height="61">
<path d="M820 610.588H1200V670.588H820V610.588Z" fill="#5C2CFF"/>
</mask>
<g mask="url(#mask2_5441_2073)">
<path fill-rule="evenodd" clip-rule="evenodd" d="M1659.36 1453.09L720.862 552.837L722.068 551.68L1660.57 1451.93L1659.36 1453.09Z" fill="#D0D0D0"/>
<path fill-rule="evenodd" clip-rule="evenodd" d="M1904.59 1453.48L966.476 552.838L967.682 551.68L1905.8 1452.33L1904.59 1453.48Z" fill="#D0D0D0"/>
<path fill-rule="evenodd" clip-rule="evenodd" d="M1781.79 1453.48L843.667 552.838L844.873 551.68L1782.99 1452.33L1781.79 1453.48Z" fill="#D0D0D0"/>
<path fill-rule="evenodd" clip-rule="evenodd" d="M2027.41 1453.48L1089.29 552.838L1090.49 551.68L2028.61 1452.33L2027.41 1453.48Z" fill="#D0D0D0"/>
<path fill-rule="evenodd" clip-rule="evenodd" d="M1720.38 1453.48L782.263 552.838L783.469 551.68L1721.59 1452.33L1720.38 1453.48Z" fill="#D0D0D0"/>
<path fill-rule="evenodd" clip-rule="evenodd" d="M1966 1453.48L1027.88 552.838L1029.09 551.68L1967.21 1452.33L1966 1453.48Z" fill="#D0D0D0"/>
<path fill-rule="evenodd" clip-rule="evenodd" d="M1843.19 1453.48L905.071 552.838L906.277 551.68L1844.4 1452.33L1843.19 1453.48Z" fill="#D0D0D0"/>
<path fill-rule="evenodd" clip-rule="evenodd" d="M2088.81 1453.48L1150.69 552.838L1151.89 551.68L2090.01 1452.33L2088.81 1453.48Z" fill="#D0D0D0"/>
<path fill-rule="evenodd" clip-rule="evenodd" d="M1689.68 1453.48L751.561 552.838L752.768 551.68L1690.89 1452.33L1689.68 1453.48Z" fill="#D0D0D0"/>
<path fill-rule="evenodd" clip-rule="evenodd" d="M1935.3 1453.48L997.179 552.838L998.385 551.68L1936.5 1452.33L1935.3 1453.48Z" fill="#D0D0D0"/>
<path fill-rule="evenodd" clip-rule="evenodd" d="M1812.49 1453.48L874.368 552.838L875.574 551.68L1813.69 1452.33L1812.49 1453.48Z" fill="#D0D0D0"/>
<path fill-rule="evenodd" clip-rule="evenodd" d="M2058.11 1453.48L1119.99 552.838L1121.19 551.68L2059.31 1452.33L2058.11 1453.48Z" fill="#D0D0D0"/>
<path fill-rule="evenodd" clip-rule="evenodd" d="M1751.08 1453.48L812.966 552.838L814.172 551.68L1752.29 1452.33L1751.08 1453.48Z" fill="#D0D0D0"/>
<path fill-rule="evenodd" clip-rule="evenodd" d="M1996.7 1453.48L1058.58 552.838L1059.79 551.68L1997.91 1452.33L1996.7 1453.48Z" fill="#D0D0D0"/>
<path fill-rule="evenodd" clip-rule="evenodd" d="M1873.89 1453.48L935.774 552.838L936.98 551.68L1875.1 1452.33L1873.89 1453.48Z" fill="#D0D0D0"/>
<path fill-rule="evenodd" clip-rule="evenodd" d="M2119.51 1453.48L1181.39 552.838L1182.6 551.68L2120.71 1452.33L2119.51 1453.48Z" fill="#D0D0D0"/>
</g>
<path d="M820.5 611.088H1199.5V670.088H820.5V611.088Z" stroke="#D0D0D0"/>
<path d="M823 610.588V670.588H820V610.588H823Z" fill="#477076"/>
<path d="M845.704 583.864C832.672 583.864 823.456 573.28 823.456 558.232C823.456 543.256 832.672 532.672 845.704 532.672C858.736 532.672 867.88 543.256 867.88 558.232C867.88 573.28 858.736 583.864 845.704 583.864ZM845.704 574.216C852.328 574.216 857.008 567.52 857.008 558.232C857.008 548.944 852.328 542.32 845.704 542.32C839.08 542.32 834.4 548.944 834.4 558.232C834.4 567.52 839.08 574.216 845.704 574.216ZM883.712 583.864C879.896 583.864 877.016 580.84 877.016 577.168C877.016 573.784 879.896 570.76 883.712 570.76C887.24 570.76 890.12 573.784 890.12 577.168C890.12 580.84 887.24 583.864 883.712 583.864ZM919.051 583.864C908.107 583.864 899.179 578.68 899.179 569.752C899.179 563.92 903.211 559.6 908.899 557.44C904.003 555.352 900.475 551.752 900.475 546.136C900.475 537.424 909.403 532.672 919.051 532.672C928.915 532.672 937.699 537.64 937.699 546.136C937.699 551.68 934.171 555.28 929.203 557.44C935.035 559.744 938.923 564.064 938.923 569.752C938.923 578.752 929.923 583.864 919.051 583.864ZM919.051 553.768C922.939 553.48 927.115 551.176 927.115 547.504C927.115 544.12 923.803 541.6 919.051 541.6C914.299 541.6 911.059 544.12 911.059 547.504C911.059 551.32 915.163 553.48 919.051 553.768ZM919.051 574.936C924.307 574.936 928.195 572.344 928.195 568.6C928.195 564.712 923.299 562.264 919.051 562.12C914.803 562.264 909.979 564.712 909.979 568.6C909.979 572.344 913.795 574.936 919.051 574.936ZM958.545 558.376C951.129 558.376 946.233 552.832 946.233 545.776C946.233 538.648 951.129 533.032 958.545 533.032C966.033 533.032 970.929 538.72 970.929 545.704C970.929 552.832 965.817 558.376 958.545 558.376ZM952.713 583L987.057 533.536H995.409L960.993 583H952.713ZM958.545 552.184C961.569 552.184 963.801 549.664 963.801 545.704C963.801 541.888 961.569 539.296 958.545 539.296C955.449 539.296 953.289 541.816 953.289 545.704C953.289 549.592 955.593 552.184 958.545 552.184ZM989.433 583.792C982.089 583.792 977.049 578.176 977.049 571.12C977.049 564.064 982.089 558.448 989.433 558.448C996.921 558.448 1001.75 564.136 1001.75 571.12C1001.75 578.248 996.705 583.792 989.433 583.792ZM989.433 577.528C992.529 577.528 994.689 575.008 994.689 571.12C994.689 567.232 992.385 564.64 989.433 564.64C986.337 564.64 984.177 567.16 984.177 571.12C984.177 574.936 986.409 577.528 989.433 577.528Z" fill="#9E008E"/>
<path d="M823.76 707.122H829.232V709.25H821.392V698.258H823.76V707.122ZM839.606 700.386H833.51V702.578H839.046V704.706H833.51V707.122H839.606V709.25H831.142V698.258H839.606V700.386ZM846.724 704.914V703.074H851.572V707.602C850.484 708.754 848.772 709.442 847.14 709.442C843.94 709.442 841.236 706.834 841.236 703.746C841.236 700.658 843.94 698.066 847.14 698.066C848.772 698.066 850.484 698.754 851.572 699.906L849.86 701.442C849.204 700.69 848.148 700.21 847.14 700.21C845.252 700.21 843.668 701.842 843.668 703.746C843.668 705.666 845.252 707.298 847.14 707.298C847.876 707.298 848.66 707.042 849.268 706.594V704.914H846.724ZM861.875 709.25L861.107 707.362H856.339L855.571 709.25H852.931L857.411 698.258H860.051L864.531 709.25H861.875ZM857.091 705.522H860.355L858.723 701.506L857.091 705.522ZM868.698 707.122H874.17V709.25H866.33V698.258H868.698V707.122Z" fill="#2D1762"/>
<mask id="mask3_5441_2073" style="mask-type:alpha" maskUnits="userSpaceOnUse" x="0" y="78" width="380" height="61">
<path d="M0 78.5879H380V138.588H0V78.5879Z" fill="#5C2CFF"/>
</mask>
<g mask="url(#mask3_5441_2073)">
<path fill-rule="evenodd" clip-rule="evenodd" d="M839.361 921.086L-99.1382 20.8371L-97.9316 19.6797L840.568 919.929L839.361 921.086Z" fill="#D0D0D0"/>
<path fill-rule="evenodd" clip-rule="evenodd" d="M1084.59 921.483L146.476 20.8376L147.682 19.6797L1085.8 920.326L1084.59 921.483Z" fill="#D0D0D0"/>
<path fill-rule="evenodd" clip-rule="evenodd" d="M961.786 921.484L23.667 20.8376L24.873 19.6797L962.992 920.326L961.786 921.484Z" fill="#D0D0D0"/>
<path fill-rule="evenodd" clip-rule="evenodd" d="M1207.41 921.484L269.286 20.8376L270.492 19.6797L1208.61 920.326L1207.41 921.484Z" fill="#D0D0D0"/>
<path fill-rule="evenodd" clip-rule="evenodd" d="M900.382 921.483L-37.7373 20.8376L-36.5312 19.6797L901.588 920.325L900.382 921.483Z" fill="#D0D0D0"/>
<path fill-rule="evenodd" clip-rule="evenodd" d="M1146 921.483L207.882 20.8376L209.088 19.6797L1147.21 920.326L1146 921.483Z" fill="#D0D0D0"/>
<path fill-rule="evenodd" clip-rule="evenodd" d="M1023.19 921.483L85.0713 20.8376L86.2773 19.6797L1024.4 920.325L1023.19 921.483Z" fill="#D0D0D0"/>
<path fill-rule="evenodd" clip-rule="evenodd" d="M1268.81 921.484L330.688 20.8376L331.895 19.6797L1270.01 920.326L1268.81 921.484Z" fill="#D0D0D0"/>
<path fill-rule="evenodd" clip-rule="evenodd" d="M869.68 921.483L-68.4385 20.8376L-67.2324 19.6797L870.886 920.325L869.68 921.483Z" fill="#D0D0D0"/>
<path fill-rule="evenodd" clip-rule="evenodd" d="M1115.3 921.484L177.179 20.8376L178.385 19.6797L1116.5 920.326L1115.3 921.484Z" fill="#D0D0D0"/>
<path fill-rule="evenodd" clip-rule="evenodd" d="M992.487 921.484L54.3681 20.8376L55.5742 19.6797L993.693 920.326L992.487 921.484Z" fill="#D0D0D0"/>
<path fill-rule="evenodd" clip-rule="evenodd" d="M1238.11 921.484L299.987 20.8376L301.193 19.6797L1239.31 920.326L1238.11 921.484Z" fill="#D0D0D0"/>
<path fill-rule="evenodd" clip-rule="evenodd" d="M931.085 921.484L-7.03422 20.8376L-5.82812 19.6797L932.291 920.326L931.085 921.484Z" fill="#D0D0D0"/>
<path fill-rule="evenodd" clip-rule="evenodd" d="M1176.7 921.484L238.583 20.8376L239.789 19.6797L1177.91 920.326L1176.7 921.484Z" fill="#D0D0D0"/>
<path fill-rule="evenodd" clip-rule="evenodd" d="M1053.89 921.483L115.774 20.8376L116.98 19.6797L1055.1 920.325L1053.89 921.483Z" fill="#D0D0D0"/>
<path fill-rule="evenodd" clip-rule="evenodd" d="M1299.51 921.484L361.39 20.8376L362.596 19.6797L1300.71 920.326L1299.51 921.484Z" fill="#D0D0D0"/>
</g>
<path d="M0.5 79.0879H379.5V138.088H0.5V79.0879Z" stroke="#D0D0D0"/>
<path d="M242.06 79.0039V139.004H0V79.0039H242.06Z" fill="#477076"/>
<path d="M26.856 19.032C36 19.032 43.56 24.936 43.56 34.728C43.56 44.88 35.424 51.864 24.624 51.864C10.224 51.864 3.6 41.496 3.6 27.096C3.6 11.688 12.6 0.671996 26.352 0.671996C32.472 0.671996 37.44 2.76 41.472 6L36.432 14.064C33.408 11.544 30.528 10.032 26.352 10.032C19.872 10.032 15.552 15.432 14.616 23.784C17.64 20.832 22.176 19.032 26.856 19.032ZM24.048 42.864C29.304 42.864 32.616 39.192 32.616 35.232C32.616 30.48 28.584 27.672 23.76 27.672C19.728 27.672 16.416 29.904 14.904 33.432C15.84 39.48 18.504 42.864 24.048 42.864ZM68.3629 51.936C59.5069 51.936 52.6669 48.408 48.4909 43.584L54.7549 36.528C58.2829 40.272 62.9629 42.36 67.9309 42.36C73.3309 42.36 76.5709 39.84 76.5709 36.312C76.5709 32.496 73.5469 30.552 66.9229 30.624H61.2349V21.552L66.9229 21.624C72.3229 21.624 75.5629 19.608 75.5629 16.08C75.5629 12.48 72.1069 10.176 67.2109 10.176C62.6029 10.176 58.9309 12.48 55.6189 15.936L49.4989 9.456C53.6029 4.488 59.5069 0.671996 68.2909 0.671996C79.3789 0.671996 86.3629 6.36 86.3629 14.208C86.3629 19.896 82.5469 24 77.0749 25.584C82.4749 26.808 87.4429 30.624 87.4429 37.176C87.4429 45.744 79.9549 51.936 68.3629 51.936ZM103.368 51.864C99.5524 51.864 96.6724 48.84 96.6724 45.168C96.6724 41.784 99.5524 38.76 103.368 38.76C106.896 38.76 109.776 41.784 109.776 45.168C109.776 48.84 106.896 51.864 103.368 51.864ZM122.435 51L142.091 11.112H117.611V1.536H154.403V9.528L134.387 51H122.435ZM172.928 26.376C165.512 26.376 160.616 20.832 160.616 13.776C160.616 6.648 165.512 1.032 172.928 1.032C180.416 1.032 185.312 6.72 185.312 13.704C185.312 20.832 180.2 26.376 172.928 26.376ZM167.096 51L201.44 1.536H209.792L175.376 51H167.096ZM172.928 20.184C175.952 20.184 178.184 17.664 178.184 13.704C178.184 9.888 175.952 7.296 172.928 7.296C169.832 7.296 167.672 9.816 167.672 13.704C167.672 17.592 169.976 20.184 172.928 20.184ZM203.816 51.792C196.472 51.792 191.432 46.176 191.432 39.12C191.432 32.064 196.472 26.448 203.816 26.448C211.304 26.448 216.128 32.136 216.128 39.12C216.128 46.248 211.088 51.792 203.816 51.792ZM203.816 45.528C206.912 45.528 209.072 43.008 209.072 39.12C209.072 35.232 206.768 32.64 203.816 32.64C200.72 32.64 198.56 35.16 198.56 39.12C198.56 42.936 200.792 45.528 203.816 45.528Z" fill="#9E008E"/>
<path d="M9.856 168.386H3.76V170.578H9.296V172.706H3.76V175.122H9.856V177.25H1.392V166.258H9.856V168.386ZM20.11 166.258H22.766L18.286 177.25H15.646L11.166 166.258H13.822L16.974 174.002L20.11 166.258ZM33.0435 168.386H26.9475V170.578H32.4835V172.706H26.9475V175.122H33.0435V177.25H24.5795V166.258H33.0435V168.386ZM35.3295 177.25V166.258H37.6975L42.9935 173.362V166.258H45.3615V177.25H42.9935L37.6975 170.146V177.25H35.3295ZM50.686 177.25V168.386H47.262V166.258H56.478V168.386H53.038V177.25H50.686ZM62.4248 177.442C60.5048 177.442 58.8248 176.802 57.5448 175.618L58.8888 174.002C59.9288 174.898 61.1128 175.442 62.5048 175.442C63.7048 175.442 64.3128 174.898 64.3128 174.21C64.3128 173.426 63.6728 173.186 61.9928 172.802C59.6728 172.274 58.0088 171.618 58.0088 169.49C58.0088 167.458 59.6728 166.066 62.0888 166.066C63.8808 166.066 65.2568 166.626 66.3928 167.586L65.1608 169.298C64.1688 168.498 63.0648 168.066 62.0088 168.066C61.0168 168.066 60.3928 168.594 60.3928 169.25C60.3928 170.05 61.0648 170.306 62.7608 170.69C65.1288 171.218 66.6968 171.922 66.6968 173.954C66.6968 176.05 65.0968 177.442 62.4248 177.442Z" fill="#2D1762"/>
<mask id="mask4_5441_2073" style="mask-type:alpha" maskUnits="userSpaceOnUse" x="410" y="78" width="380" height="61">
<path d="M410 78.5879H790V138.588H410V78.5879Z" fill="#5C2CFF"/>
</mask>
<g mask="url(#mask4_5441_2073)">
<path fill-rule="evenodd" clip-rule="evenodd" d="M1249.36 921.086L310.864 20.8371L312.07 19.6797L1250.57 919.929L1249.36 921.086Z" fill="#D0D0D0"/>
<path fill-rule="evenodd" clip-rule="evenodd" d="M1494.6 921.483L556.478 20.8376L557.684 19.6797L1495.8 920.326L1494.6 921.483Z" fill="#D0D0D0"/>
<path fill-rule="evenodd" clip-rule="evenodd" d="M1371.79 921.484L433.669 20.8376L434.875 19.6797L1372.99 920.326L1371.79 921.484Z" fill="#D0D0D0"/>
<path fill-rule="evenodd" clip-rule="evenodd" d="M1617.41 921.484L679.288 20.8376L680.494 19.6797L1618.61 920.326L1617.41 921.484Z" fill="#D0D0D0"/>
<path fill-rule="evenodd" clip-rule="evenodd" d="M1310.38 921.483L372.265 20.8376L373.471 19.6797L1311.59 920.325L1310.38 921.483Z" fill="#D0D0D0"/>
<path fill-rule="evenodd" clip-rule="evenodd" d="M1556 921.483L617.884 20.8376L619.09 19.6797L1557.21 920.326L1556 921.483Z" fill="#D0D0D0"/>
<path fill-rule="evenodd" clip-rule="evenodd" d="M1433.19 921.483L495.073 20.8376L496.279 19.6797L1434.4 920.325L1433.19 921.483Z" fill="#D0D0D0"/>
<path fill-rule="evenodd" clip-rule="evenodd" d="M1678.81 921.484L740.69 20.8376L741.896 19.6797L1680.02 920.326L1678.81 921.484Z" fill="#747474"/>
<path fill-rule="evenodd" clip-rule="evenodd" d="M1279.68 921.483L341.563 20.8376L342.77 19.6797L1280.89 920.325L1279.68 921.483Z" fill="#D0D0D0"/>
<path fill-rule="evenodd" clip-rule="evenodd" d="M1525.3 921.484L587.181 20.8376L588.387 19.6797L1526.51 920.326L1525.3 921.484Z" fill="#D0D0D0"/>
<path fill-rule="evenodd" clip-rule="evenodd" d="M1402.49 921.484L464.37 20.8376L465.576 19.6797L1403.69 920.326L1402.49 921.484Z" fill="#D0D0D0"/>
<path fill-rule="evenodd" clip-rule="evenodd" d="M1648.11 921.484L709.989 20.8376L711.195 19.6797L1649.31 920.326L1648.11 921.484Z" fill="#D0D0D0"/>
<path fill-rule="evenodd" clip-rule="evenodd" d="M1341.09 921.484L402.968 20.8376L404.174 19.6797L1342.29 920.326L1341.09 921.484Z" fill="#D0D0D0"/>
<path fill-rule="evenodd" clip-rule="evenodd" d="M1586.7 921.484L648.585 20.8376L649.791 19.6797L1587.91 920.326L1586.7 921.484Z" fill="#D0D0D0"/>
<path fill-rule="evenodd" clip-rule="evenodd" d="M1463.89 921.483L525.776 20.8376L526.982 19.6797L1465.1 920.325L1463.89 921.483Z" fill="#D0D0D0"/>
<path fill-rule="evenodd" clip-rule="evenodd" d="M1709.51 921.484L771.392 20.8376L772.598 19.6797L1710.72 920.326L1709.51 921.484Z" fill="#747474"/>
</g>
<path d="M410.5 79.0879H789.5V138.088H410.5V79.0879Z" stroke="#D0D0D0"/>
<path d="M455.6 78.5879V138.588H410V78.5879H455.6Z" fill="#477076"/>
<path d="M424.328 51V13.704L415.904 18.96L411.584 11.472L426.416 1.536H434.912V51H424.328ZM443.89 51V42.36L462.105 28.248C468.01 23.568 469.882 20.328 469.882 16.872C469.882 12.768 466.426 10.32 462.394 10.32C457.57 10.32 453.898 12.768 450.298 16.872L443.53 10.32C448.426 4.128 454.69 0.671996 462.682 0.671996C473.194 0.671996 480.826 7.152 480.826 16.44C480.826 23.064 477.945 28.176 469.306 34.44L460.306 41.424H481.258V51H443.89ZM501.225 26.376C493.809 26.376 488.913 20.832 488.913 13.776C488.913 6.648 493.809 1.032 501.225 1.032C508.713 1.032 513.609 6.72 513.609 13.704C513.609 20.832 508.497 26.376 501.225 26.376ZM495.393 51L529.737 1.536H538.089L503.673 51H495.393ZM501.225 20.184C504.249 20.184 506.481 17.664 506.481 13.704C506.481 9.888 504.249 7.296 501.225 7.296C498.129 7.296 495.969 9.816 495.969 13.704C495.969 17.592 498.273 20.184 501.225 20.184ZM532.113 51.792C524.769 51.792 519.729 46.176 519.729 39.12C519.729 32.064 524.769 26.448 532.113 26.448C539.601 26.448 544.425 32.136 544.425 39.12C544.425 46.248 539.385 51.792 532.113 51.792ZM532.113 45.528C535.209 45.528 537.369 43.008 537.369 39.12C537.369 35.232 535.065 32.64 532.113 32.64C529.017 32.64 526.857 35.16 526.857 39.12C526.857 42.936 529.089 45.528 532.113 45.528Z" fill="#9E008E"/>
<path d="M411.392 177.25V166.258H415.344C419.04 166.258 421.664 168.53 421.664 171.746C421.664 174.962 419.04 177.25 415.344 177.25H411.392ZM413.76 175.106H415.648C417.744 175.106 419.232 173.714 419.232 171.746C419.232 169.794 417.744 168.402 415.648 168.402H413.76V175.106ZM432.247 168.386H426.151V170.578H431.687V172.706H426.151V175.122H432.247V177.25H423.783V166.258H432.247V168.386ZM442.501 166.258H445.157L440.677 177.25H438.037L433.557 166.258H436.213L439.365 174.002L442.501 166.258ZM455.434 168.386H449.338V170.578H454.874V172.706H449.338V175.122H455.434V177.25H446.97V166.258H455.434V168.386ZM460.088 175.122H465.56V177.25H457.72V166.258H460.088V175.122ZM472.67 177.442C469.502 177.442 466.814 174.834 466.814 171.746C466.814 168.658 469.502 166.066 472.67 166.066C475.838 166.066 478.494 168.658 478.494 171.746C478.494 174.834 475.838 177.442 472.67 177.442ZM472.67 175.298C474.51 175.298 476.078 173.666 476.078 171.746C476.078 169.842 474.51 168.21 472.67 168.21C470.814 168.21 469.246 169.842 469.246 171.746C469.246 173.666 470.814 175.298 472.67 175.298ZM480.642 177.25V166.258H485.586C487.986 166.258 489.73 167.794 489.73 169.97C489.73 172.146 487.986 173.682 485.586 173.682H483.01V177.25H480.642ZM483.01 171.522H485.346C486.514 171.522 487.314 170.914 487.314 169.97C487.314 169.026 486.514 168.418 485.346 168.418H483.01V171.522ZM500.231 168.386H494.135V170.578H499.671V172.706H494.135V175.122H500.231V177.25H491.767V166.258H500.231V168.386ZM511.605 169.97C511.605 171.698 510.517 173.01 508.869 173.49L511.509 177.25H508.821L506.309 173.682H504.885V177.25H502.517V166.258H507.461C509.861 166.258 511.605 167.794 511.605 169.97ZM504.885 168.418V171.522H507.221C508.389 171.522 509.189 170.914 509.189 169.97C509.189 169.026 508.389 168.418 507.221 168.418H504.885ZM523.342 177.442C520.174 177.442 517.486 174.834 517.486 171.746C517.486 168.658 520.174 166.066 523.342 166.066C525.006 166.066 526.526 166.77 527.598 167.906L525.886 169.442C525.262 168.706 524.334 168.21 523.342 168.21C521.486 168.21 519.918 169.842 519.918 171.746C519.918 173.666 521.486 175.298 523.342 175.298C524.35 175.298 525.262 174.802 525.886 174.066L527.598 175.602C526.526 176.722 525.006 177.442 523.342 177.442ZM534.701 177.442C531.533 177.442 528.845 174.834 528.845 171.746C528.845 168.658 531.533 166.066 534.701 166.066C537.869 166.066 540.525 168.658 540.525 171.746C540.525 174.834 537.869 177.442 534.701 177.442ZM534.701 175.298C536.541 175.298 538.109 173.666 538.109 171.746C538.109 169.842 536.541 168.21 534.701 168.21C532.845 168.21 531.277 169.842 531.277 171.746C531.277 173.666 532.845 175.298 534.701 175.298ZM545.041 175.122H550.513V177.25H542.673V166.258H545.041V175.122ZM554.791 175.122H560.263V177.25H552.423V166.258H554.791V175.122ZM570.125 177.25L569.357 175.362H564.589L563.821 177.25H561.181L565.661 166.258H568.301L572.781 177.25H570.125ZM565.341 173.522H568.605L566.973 169.506L565.341 173.522ZM574.58 177.25V166.258H580.148C582.116 166.258 583.492 167.41 583.492 169.01C583.492 170.13 582.932 170.946 581.956 171.458C583.236 172.034 583.972 173.058 583.972 174.274C583.972 176.034 582.468 177.25 580.372 177.25H574.58ZM576.932 170.69H579.572C580.452 170.69 581.076 170.178 581.076 169.474C581.076 168.786 580.452 168.274 579.572 168.274H576.932V170.69ZM576.932 175.234H579.924C580.884 175.234 581.556 174.674 581.556 173.89C581.556 173.106 580.884 172.546 579.924 172.546H576.932V175.234ZM591.326 177.442C588.158 177.442 585.47 174.834 585.47 171.746C585.47 168.658 588.158 166.066 591.326 166.066C594.494 166.066 597.15 168.658 597.15 171.746C597.15 174.834 594.494 177.442 591.326 177.442ZM591.326 175.298C593.166 175.298 594.734 173.666 594.734 171.746C594.734 169.842 593.166 168.21 591.326 168.21C589.47 168.21 587.902 169.842 587.902 171.746C587.902 173.666 589.47 175.298 591.326 175.298ZM608.386 169.97C608.386 171.698 607.298 173.01 605.65 173.49L608.29 177.25H605.602L603.09 173.682H601.666V177.25H599.298V166.258H604.242C606.642 166.258 608.386 167.794 608.386 169.97ZM601.666 168.418V171.522H604.002C605.17 171.522 605.97 170.914 605.97 169.97C605.97 169.026 605.17 168.418 604.002 168.418H601.666ZM618.516 177.25L617.748 175.362H612.98L612.212 177.25H609.572L614.052 166.258H616.692L621.172 177.25H618.516ZM613.732 173.522H616.996L615.364 169.506L613.732 173.522ZM625.514 177.25V168.386H622.09V166.258H631.306V168.386H627.866V177.25H625.514ZM633.189 177.25V166.258H635.557V177.25H633.189ZM643.545 177.442C640.377 177.442 637.689 174.834 637.689 171.746C637.689 168.658 640.377 166.066 643.545 166.066C646.713 166.066 649.369 168.658 649.369 171.746C649.369 174.834 646.713 177.442 643.545 177.442ZM643.545 175.298C645.385 175.298 646.953 173.666 646.953 171.746C646.953 169.842 645.385 168.21 643.545 168.21C641.689 168.21 640.121 169.842 640.121 171.746C640.121 173.666 641.689 175.298 643.545 175.298ZM651.517 177.25V166.258H653.885L659.181 173.362V166.258H661.549V177.25H659.181L653.885 170.146V177.25H651.517ZM678.161 176.642L676.241 177.506L675.057 176.274C674.161 177.026 673.121 177.442 671.873 177.442C669.745 177.442 668.177 176.258 668.177 174.258C668.177 172.818 668.881 171.906 670.545 171.154C669.969 170.306 669.777 169.73 669.777 168.914C669.777 167.378 671.153 166.114 672.897 166.114C674.689 166.114 675.985 167.314 675.985 168.898C675.985 170.13 675.217 170.802 673.489 171.602C673.969 172.162 674.513 172.77 675.185 173.49C675.601 172.882 675.953 172.194 676.241 171.474L677.953 172.274C677.473 173.234 676.977 174.082 676.433 174.818L678.161 176.642ZM672.929 167.794C672.289 167.794 671.777 168.258 671.777 168.914C671.777 169.426 672.017 169.842 672.465 170.402C673.553 169.97 673.985 169.634 673.985 168.914C673.985 168.274 673.537 167.794 672.929 167.794ZM672.161 175.666C672.737 175.666 673.297 175.41 673.841 174.994C672.865 173.97 672.145 173.154 671.585 172.498C670.833 172.946 670.497 173.458 670.497 174.098C670.497 175.074 671.249 175.666 672.161 175.666ZM684.689 177.25V166.258H687.057V177.25H684.689ZM692.389 177.25V168.386H688.965V166.258H698.181V168.386H694.741V177.25H692.389Z" fill="#2D1762"/>
<mask id="mask5_5441_2073" style="mask-type:alpha" maskUnits="userSpaceOnUse" x="820" y="78" width="380" height="61">
<path d="M820 78.5879H1200V138.588H820V78.5879Z" fill="#5C2CFF"/>
</mask>
<g mask="url(#mask5_5441_2073)">
<path fill-rule="evenodd" clip-rule="evenodd" d="M1659.36 921.086L720.862 20.8371L722.068 19.6797L1660.57 919.929L1659.36 921.086Z" fill="#D0D0D0"/>
<path fill-rule="evenodd" clip-rule="evenodd" d="M1904.59 921.483L966.476 20.8376L967.682 19.6797L1905.8 920.326L1904.59 921.483Z" fill="#D0D0D0"/>
<path fill-rule="evenodd" clip-rule="evenodd" d="M1781.79 921.484L843.667 20.8376L844.873 19.6797L1782.99 920.326L1781.79 921.484Z" fill="#D0D0D0"/>
<path fill-rule="evenodd" clip-rule="evenodd" d="M2027.41 921.484L1089.29 20.8376L1090.49 19.6797L2028.61 920.326L2027.41 921.484Z" fill="#D0D0D0"/>
<path fill-rule="evenodd" clip-rule="evenodd" d="M1720.38 921.483L782.263 20.8376L783.469 19.6797L1721.59 920.325L1720.38 921.483Z" fill="#D0D0D0"/>
<path fill-rule="evenodd" clip-rule="evenodd" d="M1966 921.483L1027.88 20.8376L1029.09 19.6797L1967.21 920.326L1966 921.483Z" fill="#D0D0D0"/>
<path fill-rule="evenodd" clip-rule="evenodd" d="M1843.19 921.483L905.071 20.8376L906.277 19.6797L1844.4 920.325L1843.19 921.483Z" fill="#D0D0D0"/>
<path fill-rule="evenodd" clip-rule="evenodd" d="M2088.81 921.484L1150.69 20.8376L1151.89 19.6797L2090.01 920.326L2088.81 921.484Z" fill="#D0D0D0"/>
<path fill-rule="evenodd" clip-rule="evenodd" d="M1689.68 921.483L751.561 20.8376L752.768 19.6797L1690.89 920.325L1689.68 921.483Z" fill="#D0D0D0"/>
<path fill-rule="evenodd" clip-rule="evenodd" d="M1935.3 921.484L997.179 20.8376L998.385 19.6797L1936.5 920.326L1935.3 921.484Z" fill="#D0D0D0"/>
<path fill-rule="evenodd" clip-rule="evenodd" d="M1812.49 921.484L874.368 20.8376L875.574 19.6797L1813.69 920.326L1812.49 921.484Z" fill="#D0D0D0"/>
<path fill-rule="evenodd" clip-rule="evenodd" d="M2058.11 921.484L1119.99 20.8376L1121.19 19.6797L2059.31 920.326L2058.11 921.484Z" fill="#D0D0D0"/>
<path fill-rule="evenodd" clip-rule="evenodd" d="M1751.08 921.484L812.966 20.8376L814.172 19.6797L1752.29 920.326L1751.08 921.484Z" fill="#D0D0D0"/>
<path fill-rule="evenodd" clip-rule="evenodd" d="M1996.7 921.484L1058.58 20.8376L1059.79 19.6797L1997.91 920.326L1996.7 921.484Z" fill="#D0D0D0"/>
<path fill-rule="evenodd" clip-rule="evenodd" d="M1873.89 921.483L935.774 20.8376L936.98 19.6797L1875.1 920.325L1873.89 921.483Z" fill="#D0D0D0"/>
<path fill-rule="evenodd" clip-rule="evenodd" d="M2119.51 921.484L1181.39 20.8376L1182.6 19.6797L2120.71 920.326L2119.51 921.484Z" fill="#D0D0D0"/>
</g>
<path d="M820.5 79.0879H1199.5V138.088H820.5V79.0879Z" stroke="#D0D0D0"/>
<path d="M842.8 79V139H820V79H842.8Z" fill="#477076"/>
<path d="M846.856 19.032C856 19.032 863.56 24.936 863.56 34.728C863.56 44.88 855.424 51.864 844.624 51.864C830.224 51.864 823.6 41.496 823.6 27.096C823.6 11.688 832.6 0.671996 846.352 0.671996C852.472 0.671996 857.44 2.76 861.472 6L856.432 14.064C853.408 11.544 850.528 10.032 846.352 10.032C839.872 10.032 835.552 15.432 834.616 23.784C837.64 20.832 842.176 19.032 846.856 19.032ZM844.048 42.864C849.304 42.864 852.616 39.192 852.616 35.232C852.616 30.48 848.584 27.672 843.76 27.672C839.728 27.672 836.416 29.904 834.904 33.432C835.84 39.48 838.504 42.864 844.048 42.864ZM882.819 26.376C875.403 26.376 870.507 20.832 870.507 13.776C870.507 6.648 875.403 1.032 882.819 1.032C890.307 1.032 895.203 6.72 895.203 13.704C895.203 20.832 890.091 26.376 882.819 26.376ZM876.987 51L911.331 1.536H919.683L885.267 51H876.987ZM882.819 20.184C885.843 20.184 888.075 17.664 888.075 13.704C888.075 9.888 885.843 7.296 882.819 7.296C879.723 7.296 877.563 9.816 877.563 13.704C877.563 17.592 879.867 20.184 882.819 20.184ZM913.707 51.792C906.363 51.792 901.323 46.176 901.323 39.12C901.323 32.064 906.363 26.448 913.707 26.448C921.195 26.448 926.019 32.136 926.019 39.12C926.019 46.248 920.979 51.792 913.707 51.792ZM913.707 45.528C916.803 45.528 918.963 43.008 918.963 39.12C918.963 35.232 916.659 32.64 913.707 32.64C910.611 32.64 908.451 35.16 908.451 39.12C908.451 42.936 910.683 45.528 913.707 45.528Z" fill="#9E008E"/>
<path d="M823.76 175.122H829.232V177.25H821.392V166.258H823.76V175.122ZM839.606 168.386H833.51V170.578H839.046V172.706H833.51V175.122H839.606V177.25H831.142V166.258H839.606V168.386ZM849.844 177.25L849.076 175.362H844.308L843.54 177.25H840.9L845.38 166.258H848.02L852.5 177.25H849.844ZM845.06 173.522H848.324L846.692 169.506L845.06 173.522ZM854.298 177.25V166.258H858.25C861.946 166.258 864.57 168.53 864.57 171.746C864.57 174.962 861.946 177.25 858.25 177.25H854.298ZM856.666 175.106H858.554C860.65 175.106 862.138 173.714 862.138 171.746C862.138 169.794 860.65 168.402 858.554 168.402H856.666V175.106ZM875.153 168.386H869.057V170.578H874.593V172.706H869.057V175.122H875.153V177.25H866.689V166.258H875.153V168.386ZM886.527 169.97C886.527 171.698 885.439 173.01 883.791 173.49L886.431 177.25H883.743L881.231 173.682H879.807V177.25H877.439V166.258H882.383C884.783 166.258 886.527 167.794 886.527 169.97ZM879.807 168.418V171.522H882.143C883.311 171.522 884.111 170.914 884.111 169.97C884.111 169.026 883.311 168.418 882.143 168.418H879.807ZM892.769 177.442C890.849 177.442 889.169 176.802 887.889 175.618L889.233 174.002C890.273 174.898 891.457 175.442 892.849 175.442C894.049 175.442 894.657 174.898 894.657 174.21C894.657 173.426 894.017 173.186 892.337 172.802C890.017 172.274 888.353 171.618 888.353 169.49C888.353 167.458 890.017 166.066 892.433 166.066C894.225 166.066 895.601 166.626 896.737 167.586L895.505 169.298C894.513 168.498 893.409 168.066 892.353 168.066C891.361 168.066 890.737 168.594 890.737 169.25C890.737 170.05 891.409 170.306 893.105 170.69C895.473 171.218 897.041 171.922 897.041 173.954C897.041 176.05 895.441 177.442 892.769 177.442ZM906.518 166.258H908.87V177.25H906.518V172.706H901.51V177.25H899.142V166.258H901.51V170.578H906.518V166.258ZM911.673 177.25V166.258H914.041V177.25H911.673ZM916.83 177.25V166.258H921.774C924.174 166.258 925.918 167.794 925.918 169.97C925.918 172.146 924.174 173.682 921.774 173.682H919.198V177.25H916.83ZM919.198 171.522H921.534C922.702 171.522 923.502 170.914 923.502 169.97C923.502 169.026 922.702 168.418 921.534 168.418H919.198V171.522ZM941.786 176.642L939.866 177.506L938.682 176.274C937.786 177.026 936.746 177.442 935.498 177.442C933.37 177.442 931.802 176.258 931.802 174.258C931.802 172.818 932.506 171.906 934.17 171.154C933.594 170.306 933.402 169.73 933.402 168.914C933.402 167.378 934.778 166.114 936.522 166.114C938.314 166.114 939.61 167.314 939.61 168.898C939.61 170.13 938.842 170.802 937.114 171.602C937.594 172.162 938.138 172.77 938.81 173.49C939.226 172.882 939.578 172.194 939.866 171.474L941.578 172.274C941.098 173.234 940.602 174.082 940.058 174.818L941.786 176.642ZM936.554 167.794C935.914 167.794 935.402 168.258 935.402 168.914C935.402 169.426 935.642 169.842 936.09 170.402C937.178 169.97 937.61 169.634 937.61 168.914C937.61 168.274 937.162 167.794 936.554 167.794ZM935.786 175.666C936.362 175.666 936.922 175.41 937.466 174.994C936.49 173.97 935.77 173.154 935.21 172.498C934.458 172.946 934.122 173.458 934.122 174.098C934.122 175.074 934.874 175.666 935.786 175.666ZM948.314 177.25V166.258H950.682L954.074 172.466L957.482 166.258H959.834V177.25H957.482V170.402L954.074 176.61L950.682 170.402V177.25H948.314ZM971.09 168.386H964.994V170.578H970.53V172.706H964.994V175.122H971.09V177.25H962.626V166.258H971.09V168.386ZM973.376 177.25V166.258H975.744L979.136 172.466L982.544 166.258H984.896V177.25H982.544V170.402L979.136 176.61L975.744 170.402V177.25H973.376ZM987.689 177.25V166.258H993.257C995.225 166.258 996.601 167.41 996.601 169.01C996.601 170.13 996.041 170.946 995.065 171.458C996.345 172.034 997.081 173.058 997.081 174.274C997.081 176.034 995.577 177.25 993.481 177.25H987.689ZM990.041 170.69H992.681C993.561 170.69 994.185 170.178 994.185 169.474C994.185 168.786 993.561 168.274 992.681 168.274H990.041V170.69ZM990.041 175.234H993.033C993.993 175.234 994.665 174.674 994.665 173.89C994.665 173.106 993.993 172.546 993.033 172.546H990.041V175.234ZM1007.7 168.386H1001.6V170.578H1007.14V172.706H1001.6V175.122H1007.7V177.25H999.236V166.258H1007.7V168.386ZM1019.07 169.97C1019.07 171.698 1017.99 173.01 1016.34 173.49L1018.98 177.25H1016.29L1013.78 173.682H1012.35V177.25H1009.99V166.258H1014.93C1017.33 166.258 1019.07 167.794 1019.07 169.97ZM1012.35 168.418V171.522H1014.69C1015.86 171.522 1016.66 170.914 1016.66 169.97C1016.66 169.026 1015.86 168.418 1014.69 168.418H1012.35ZM1029.67 177.442C1027.75 177.442 1026.07 176.802 1024.79 175.618L1026.14 174.002C1027.18 174.898 1028.36 175.442 1029.75 175.442C1030.95 175.442 1031.56 174.898 1031.56 174.21C1031.56 173.426 1030.92 173.186 1029.24 172.802C1026.92 172.274 1025.26 171.618 1025.26 169.49C1025.26 167.458 1026.92 166.066 1029.34 166.066C1031.13 166.066 1032.51 166.626 1033.64 167.586L1032.41 169.298C1031.42 168.498 1030.31 168.066 1029.26 168.066C1028.27 168.066 1027.64 168.594 1027.64 169.25C1027.64 170.05 1028.31 170.306 1030.01 170.69C1032.38 171.218 1033.95 171.922 1033.95 173.954C1033.95 176.05 1032.35 177.442 1029.67 177.442ZM1040.78 177.442C1037.86 177.442 1035.81 175.394 1035.81 172.498V166.258H1038.16V172.402C1038.16 174.098 1039.25 175.298 1040.78 175.298C1042.3 175.298 1043.39 174.098 1043.39 172.402V166.258H1045.76V172.498C1045.76 175.394 1043.7 177.442 1040.78 177.442ZM1048.3 177.25V166.258H1053.24C1055.64 166.258 1057.39 167.794 1057.39 169.97C1057.39 172.146 1055.64 173.682 1053.24 173.682H1050.67V177.25H1048.3ZM1050.67 171.522H1053C1054.17 171.522 1054.97 170.914 1054.97 169.97C1054.97 169.026 1054.17 168.418 1053 168.418H1050.67V171.522ZM1059.42 177.25V166.258H1064.37C1066.77 166.258 1068.51 167.794 1068.51 169.97C1068.51 172.146 1066.77 173.682 1064.37 173.682H1061.79V177.25H1059.42ZM1061.79 171.522H1064.13C1065.3 171.522 1066.1 170.914 1066.1 169.97C1066.1 169.026 1065.3 168.418 1064.13 168.418H1061.79V171.522ZM1075.75 177.442C1072.58 177.442 1069.89 174.834 1069.89 171.746C1069.89 168.658 1072.58 166.066 1075.75 166.066C1078.92 166.066 1081.57 168.658 1081.57 171.746C1081.57 174.834 1078.92 177.442 1075.75 177.442ZM1075.75 175.298C1077.59 175.298 1079.16 173.666 1079.16 171.746C1079.16 169.842 1077.59 168.21 1075.75 168.21C1073.89 168.21 1072.32 169.842 1072.32 171.746C1072.32 173.666 1073.89 175.298 1075.75 175.298ZM1092.81 169.97C1092.81 171.698 1091.72 173.01 1090.07 173.49L1092.71 177.25H1090.02L1087.51 173.682H1086.09V177.25H1083.72V166.258H1088.66C1091.06 166.258 1092.81 167.794 1092.81 169.97ZM1086.09 168.418V171.522H1088.42C1089.59 171.522 1090.39 170.914 1090.39 169.97C1090.39 169.026 1089.59 168.418 1088.42 168.418H1086.09ZM1097.53 177.25V168.386H1094.11V166.258H1103.32V168.386H1099.88V177.25H1097.53Z" fill="#2D1762"/>
<mask id="mask6_5441_2073" style="mask-type:alpha" maskUnits="userSpaceOnUse" x="0" y="344" width="380" height="61">
<path d="M0 344.588H380V404.588H0V344.588Z" fill="#5C2CFF"/>
</mask>
<g mask="url(#mask6_5441_2073)">
<path fill-rule="evenodd" clip-rule="evenodd" d="M839.361 1187.09L-99.1382 286.837L-97.9316 285.68L840.568 1185.93L839.361 1187.09Z" fill="#D0D0D0"/>
<path fill-rule="evenodd" clip-rule="evenodd" d="M1084.59 1187.48L146.476 286.838L147.682 285.68L1085.8 1186.33L1084.59 1187.48Z" fill="#D0D0D0"/>
<path fill-rule="evenodd" clip-rule="evenodd" d="M961.786 1187.48L23.667 286.838L24.873 285.68L962.992 1186.33L961.786 1187.48Z" fill="#D0D0D0"/>
<path fill-rule="evenodd" clip-rule="evenodd" d="M1207.41 1187.48L269.286 286.838L270.492 285.68L1208.61 1186.33L1207.41 1187.48Z" fill="#D0D0D0"/>
<path fill-rule="evenodd" clip-rule="evenodd" d="M900.382 1187.48L-37.7373 286.838L-36.5312 285.68L901.588 1186.33L900.382 1187.48Z" fill="#D0D0D0"/>
<path fill-rule="evenodd" clip-rule="evenodd" d="M1146 1187.48L207.882 286.838L209.088 285.68L1147.21 1186.33L1146 1187.48Z" fill="#D0D0D0"/>
<path fill-rule="evenodd" clip-rule="evenodd" d="M1023.19 1187.48L85.0713 286.838L86.2773 285.68L1024.4 1186.33L1023.19 1187.48Z" fill="#D0D0D0"/>
<path fill-rule="evenodd" clip-rule="evenodd" d="M1268.81 1187.48L330.688 286.838L331.895 285.68L1270.01 1186.33L1268.81 1187.48Z" fill="#D0D0D0"/>
<path fill-rule="evenodd" clip-rule="evenodd" d="M869.68 1187.48L-68.4385 286.838L-67.2324 285.68L870.886 1186.33L869.68 1187.48Z" fill="#D0D0D0"/>
<path fill-rule="evenodd" clip-rule="evenodd" d="M1115.3 1187.48L177.179 286.838L178.385 285.68L1116.5 1186.33L1115.3 1187.48Z" fill="#D0D0D0"/>
<path fill-rule="evenodd" clip-rule="evenodd" d="M992.487 1187.48L54.3681 286.838L55.5742 285.68L993.693 1186.33L992.487 1187.48Z" fill="#D0D0D0"/>
<path fill-rule="evenodd" clip-rule="evenodd" d="M1238.11 1187.48L299.987 286.838L301.193 285.68L1239.31 1186.33L1238.11 1187.48Z" fill="#D0D0D0"/>
<path fill-rule="evenodd" clip-rule="evenodd" d="M931.085 1187.48L-7.03422 286.838L-5.82812 285.68L932.291 1186.33L931.085 1187.48Z" fill="#D0D0D0"/>
<path fill-rule="evenodd" clip-rule="evenodd" d="M1176.7 1187.48L238.583 286.838L239.789 285.68L1177.91 1186.33L1176.7 1187.48Z" fill="#D0D0D0"/>
<path fill-rule="evenodd" clip-rule="evenodd" d="M1053.89 1187.48L115.774 286.838L116.98 285.68L1055.1 1186.33L1053.89 1187.48Z" fill="#D0D0D0"/>
<path fill-rule="evenodd" clip-rule="evenodd" d="M1299.51 1187.48L361.39 286.838L362.596 285.68L1300.71 1186.33L1299.51 1187.48Z" fill="#D0D0D0"/>
</g>
<path d="M0.5 345.088H379.5V404.088H0.5V345.088Z" stroke="#D0D0D0"/>
<path d="M20.52 344.588V404.588H0V344.588H20.52Z" fill="#477076"/>
<path d="M21.96 317.936C13.68 317.936 7.416 314.912 2.808 310.304L9.072 302.816C12.816 306.344 17.28 308.648 22.032 308.648C27.648 308.648 31.032 305.336 31.032 301.088C31.032 296.768 27.504 293.888 22.104 293.888C18.36 293.888 15.192 295.112 12.528 297.128L5.4 294.248L6.12 267.536H38.952V277.112H15.912L15.624 288.056C18.072 286.328 21.24 285.032 25.272 285.032C34.056 285.032 41.616 290.648 41.616 300.728C41.616 311.24 33.768 317.936 21.96 317.936ZM57.1731 317.864C53.3571 317.864 50.4771 314.84 50.4771 311.168C50.4771 307.784 53.3571 304.76 57.1731 304.76C60.7011 304.76 63.5811 307.784 63.5811 311.168C63.5811 314.84 60.7011 317.864 57.1731 317.864ZM96.6161 317V306.92H72.4241L71.4161 298.712L94.3841 267.608H107.2V297.992H113.752V306.92H107.2V317H96.6161ZM82.5761 297.992H96.6161V278.84L82.5761 297.992ZM132.358 292.376C124.942 292.376 120.046 286.832 120.046 279.776C120.046 272.648 124.942 267.032 132.358 267.032C139.846 267.032 144.742 272.72 144.742 279.704C144.742 286.832 139.63 292.376 132.358 292.376ZM126.526 317L160.87 267.536H169.222L134.806 317H126.526ZM132.358 286.184C135.382 286.184 137.614 283.664 137.614 279.704C137.614 275.888 135.382 273.296 132.358 273.296C129.262 273.296 127.102 275.816 127.102 279.704C127.102 283.592 129.406 286.184 132.358 286.184ZM163.246 317.792C155.902 317.792 150.862 312.176 150.862 305.12C150.862 298.064 155.902 292.448 163.246 292.448C170.734 292.448 175.558 298.136 175.558 305.12C175.558 312.248 170.518 317.792 163.246 317.792ZM163.246 311.528C166.342 311.528 168.502 309.008 168.502 305.12C168.502 301.232 166.198 298.64 163.246 298.64C160.15 298.64 157.99 301.16 157.99 305.12C157.99 308.936 160.222 311.528 163.246 311.528Z" fill="#9E008E"/>
<path d="M3.76 441.122H9.232V443.25H1.392V432.258H3.76V441.122ZM19.606 434.386H13.51V436.77H19.046V438.898H13.51V443.25H11.142V432.258H19.606V434.386ZM30.8334 438.914V437.074H35.6814V441.602C34.5934 442.754 32.8814 443.442 31.2494 443.442C28.0494 443.442 25.3454 440.834 25.3454 437.746C25.3454 434.658 28.0494 432.066 31.2494 432.066C32.8814 432.066 34.5934 432.754 35.6814 433.906L33.9694 435.442C33.3134 434.69 32.2574 434.21 31.2494 434.21C29.3614 434.21 27.7774 435.842 27.7774 437.746C27.7774 439.666 29.3614 441.298 31.2494 441.298C31.9854 441.298 32.7694 441.042 33.3774 440.594V438.914H30.8334ZM46.4966 434.386H40.4006V436.578H45.9366V438.706H40.4006V441.122H46.4966V443.25H38.0326V432.258H46.4966V434.386ZM48.7826 443.25V432.258H51.1506L56.4466 439.362V432.258H58.8146V443.25H56.4466L51.1506 436.146V443.25H48.7826ZM70.0591 434.386H63.9631V436.578H69.4991V438.706H63.9631V441.122H70.0591V443.25H61.5951V432.258H70.0591V434.386ZM81.4331 435.97C81.4331 437.698 80.3451 439.01 78.6971 439.49L81.3371 443.25H78.6491L76.1371 439.682H74.7131V443.25H72.3451V432.258H77.2891C79.6891 432.258 81.4331 433.794 81.4331 435.97ZM74.7131 434.418V437.522H77.0491C78.2171 437.522 79.0171 436.914 79.0171 435.97C79.0171 435.026 78.2171 434.418 77.0491 434.418H74.7131ZM91.5628 443.25L90.7948 441.362H86.0268L85.2588 443.25H82.6188L87.0988 432.258H89.7388L94.2188 443.25H91.5628ZM86.7788 439.522H90.0428L88.4108 435.506L86.7788 439.522ZM98.385 441.122H103.857V443.25H96.017V432.258H98.385V441.122ZM119.598 442.642L117.678 443.506L116.494 442.274C115.598 443.026 114.558 443.442 113.31 443.442C111.182 443.442 109.614 442.258 109.614 440.258C109.614 438.818 110.318 437.906 111.982 437.154C111.406 436.306 111.214 435.73 111.214 434.914C111.214 433.378 112.59 432.114 114.334 432.114C116.126 432.114 117.422 433.314 117.422 434.898C117.422 436.13 116.654 436.802 114.926 437.602C115.406 438.162 115.95 438.77 116.622 439.49C117.038 438.882 117.39 438.194 117.678 437.474L119.39 438.274C118.91 439.234 118.414 440.082 117.87 440.818L119.598 442.642ZM114.366 433.794C113.726 433.794 113.214 434.258 113.214 434.914C113.214 435.426 113.454 435.842 113.902 436.402C114.99 435.97 115.422 435.634 115.422 434.914C115.422 434.274 114.974 433.794 114.366 433.794ZM113.598 441.666C114.174 441.666 114.734 441.41 115.278 440.994C114.302 439.97 113.582 439.154 113.022 438.498C112.27 438.946 111.934 439.458 111.934 440.098C111.934 441.074 112.686 441.666 113.598 441.666ZM134.078 443.25L133.31 441.362H128.542L127.774 443.25H125.134L129.614 432.258H132.254L136.734 443.25H134.078ZM129.294 439.522H132.558L130.926 435.506L129.294 439.522ZM138.533 443.25V432.258H142.485C146.181 432.258 148.805 434.53 148.805 437.746C148.805 440.962 146.181 443.25 142.485 443.25H138.533ZM140.901 441.106H142.789C144.885 441.106 146.373 439.714 146.373 437.746C146.373 435.794 144.885 434.402 142.789 434.402H140.901V441.106ZM150.923 443.25V432.258H153.291L156.683 438.466L160.091 432.258H162.443V443.25H160.091V436.402L156.683 442.61L153.291 436.402V443.25H150.923ZM165.236 443.25V432.258H167.604V443.25H165.236ZM170.392 443.25V432.258H172.76L178.056 439.362V432.258H180.424V443.25H178.056L172.76 436.146V443.25H170.392ZM183.205 443.25V432.258H185.573V443.25H183.205ZM192.425 443.442C190.505 443.442 188.825 442.802 187.545 441.618L188.889 440.002C189.929 440.898 191.113 441.442 192.505 441.442C193.705 441.442 194.313 440.898 194.313 440.21C194.313 439.426 193.673 439.186 191.993 438.802C189.673 438.274 188.009 437.618 188.009 435.49C188.009 433.458 189.673 432.066 192.089 432.066C193.881 432.066 195.257 432.626 196.393 433.586L195.161 435.298C194.169 434.498 193.065 434.066 192.009 434.066C191.017 434.066 190.393 434.594 190.393 435.25C190.393 436.05 191.065 436.306 192.761 436.69C195.129 437.218 196.697 437.922 196.697 439.954C196.697 442.05 195.097 443.442 192.425 443.442ZM201.342 443.25V434.386H197.918V432.258H207.134V434.386H203.694V443.25H201.342ZM218.105 435.97C218.105 437.698 217.017 439.01 215.369 439.49L218.009 443.25H215.321L212.809 439.682H211.385V443.25H209.017V432.258H213.961C216.361 432.258 218.105 433.794 218.105 435.97ZM211.385 434.418V437.522H213.721C214.889 437.522 215.689 436.914 215.689 435.97C215.689 435.026 214.889 434.418 213.721 434.418H211.385ZM228.235 443.25L227.467 441.362H222.699L221.931 443.25H219.291L223.771 432.258H226.411L230.891 443.25H228.235ZM223.451 439.522H226.715L225.083 435.506L223.451 439.522ZM235.233 443.25V434.386H231.809V432.258H241.025V434.386H237.585V443.25H235.233ZM242.908 443.25V432.258H245.276V443.25H242.908ZM256.032 432.258H258.688L254.208 443.25H251.568L247.088 432.258H249.744L252.896 440.002L256.032 432.258ZM268.965 434.386H262.869V436.578H268.405V438.706H262.869V441.122H268.965V443.25H260.501V432.258H268.965V434.386Z" fill="#2D1762"/>
<mask id="mask7_5441_2073" style="mask-type:alpha" maskUnits="userSpaceOnUse" x="823" y="344" width="380" height="61">
<path d="M823 344.588H1203V404.588H823V344.588Z" fill="#5C2CFF"/>
</mask>
<g mask="url(#mask7_5441_2073)">
<path fill-rule="evenodd" clip-rule="evenodd" d="M1662.36 1187.09L723.862 286.837L725.068 285.68L1663.57 1185.93L1662.36 1187.09Z" fill="#D0D0D0"/>
<path fill-rule="evenodd" clip-rule="evenodd" d="M1907.59 1187.48L969.476 286.838L970.682 285.68L1908.8 1186.33L1907.59 1187.48Z" fill="#D0D0D0"/>
<path fill-rule="evenodd" clip-rule="evenodd" d="M1784.79 1187.48L846.667 286.838L847.873 285.68L1785.99 1186.33L1784.79 1187.48Z" fill="#D0D0D0"/>
<path fill-rule="evenodd" clip-rule="evenodd" d="M2030.41 1187.48L1092.29 286.838L1093.49 285.68L2031.61 1186.33L2030.41 1187.48Z" fill="#D0D0D0"/>
<path fill-rule="evenodd" clip-rule="evenodd" d="M1723.38 1187.48L785.263 286.838L786.469 285.68L1724.59 1186.33L1723.38 1187.48Z" fill="#D0D0D0"/>
<path fill-rule="evenodd" clip-rule="evenodd" d="M1969 1187.48L1030.88 286.838L1032.09 285.68L1970.21 1186.33L1969 1187.48Z" fill="#D0D0D0"/>
<path fill-rule="evenodd" clip-rule="evenodd" d="M1846.19 1187.48L908.071 286.838L909.277 285.68L1847.4 1186.33L1846.19 1187.48Z" fill="#D0D0D0"/>
<path fill-rule="evenodd" clip-rule="evenodd" d="M2091.81 1187.48L1153.69 286.838L1154.89 285.68L2093.01 1186.33L2091.81 1187.48Z" fill="#D0D0D0"/>
<path fill-rule="evenodd" clip-rule="evenodd" d="M1692.68 1187.48L754.561 286.838L755.768 285.68L1693.89 1186.33L1692.68 1187.48Z" fill="#D0D0D0"/>
<path fill-rule="evenodd" clip-rule="evenodd" d="M1938.3 1187.48L1000.18 286.838L1001.38 285.68L1939.5 1186.33L1938.3 1187.48Z" fill="#D0D0D0"/>
<path fill-rule="evenodd" clip-rule="evenodd" d="M1815.49 1187.48L877.368 286.838L878.574 285.68L1816.69 1186.33L1815.49 1187.48Z" fill="#D0D0D0"/>
<path fill-rule="evenodd" clip-rule="evenodd" d="M2061.11 1187.48L1122.99 286.838L1124.19 285.68L2062.31 1186.33L2061.11 1187.48Z" fill="#D0D0D0"/>
<path fill-rule="evenodd" clip-rule="evenodd" d="M1754.08 1187.48L815.966 286.838L817.172 285.68L1755.29 1186.33L1754.08 1187.48Z" fill="#D0D0D0"/>
<path fill-rule="evenodd" clip-rule="evenodd" d="M1999.7 1187.48L1061.58 286.838L1062.79 285.68L2000.91 1186.33L1999.7 1187.48Z" fill="#D0D0D0"/>
<path fill-rule="evenodd" clip-rule="evenodd" d="M1876.89 1187.48L938.774 286.838L939.98 285.68L1878.1 1186.33L1876.89 1187.48Z" fill="#D0D0D0"/>
<path fill-rule="evenodd" clip-rule="evenodd" d="M2122.51 1187.48L1184.39 286.838L1185.6 285.68L2123.71 1186.33L2122.51 1187.48Z" fill="#D0D0D0"/>
</g>
<path d="M823.5 345.088H1202.5V404.088H823.5V345.088Z" stroke="#D0D0D0"/>
<path d="M839.34 344.588V404.588H823V344.588H839.34Z" fill="#477076"/>
<path d="M850.288 317V306.92H826.096L825.088 298.712L848.056 267.608H860.872V297.992H867.424V306.92H860.872V317H850.288ZM836.248 297.992H850.288V278.84L836.248 297.992ZM882.142 317.864C878.326 317.864 875.446 314.84 875.446 311.168C875.446 307.784 878.326 304.76 882.142 304.76C885.67 304.76 888.55 307.784 888.55 311.168C888.55 314.84 885.67 317.864 882.142 317.864ZM916.113 317.936C907.257 317.936 900.417 314.408 896.241 309.584L902.505 302.528C906.033 306.272 910.713 308.36 915.681 308.36C921.081 308.36 924.321 305.84 924.321 302.312C924.321 298.496 921.297 296.552 914.673 296.624H908.985V287.552L914.673 287.624C920.073 287.624 923.313 285.608 923.313 282.08C923.313 278.48 919.857 276.176 914.961 276.176C910.353 276.176 906.681 278.48 903.369 281.936L897.249 275.456C901.353 270.488 907.257 266.672 916.041 266.672C927.129 266.672 934.113 272.36 934.113 280.208C934.113 285.896 930.297 290 924.825 291.584C930.225 292.808 935.193 296.624 935.193 303.176C935.193 311.744 927.705 317.936 916.113 317.936ZM955.006 292.376C947.59 292.376 942.694 286.832 942.694 279.776C942.694 272.648 947.59 267.032 955.006 267.032C962.494 267.032 967.39 272.72 967.39 279.704C967.39 286.832 962.278 292.376 955.006 292.376ZM949.174 317L983.518 267.536H991.87L957.454 317H949.174ZM955.006 286.184C958.03 286.184 960.262 283.664 960.262 279.704C960.262 275.888 958.03 273.296 955.006 273.296C951.91 273.296 949.75 275.816 949.75 279.704C949.75 283.592 952.054 286.184 955.006 286.184ZM985.894 317.792C978.55 317.792 973.51 312.176 973.51 305.12C973.51 298.064 978.55 292.448 985.894 292.448C993.382 292.448 998.206 298.136 998.206 305.12C998.206 312.248 993.166 317.792 985.894 317.792ZM985.894 311.528C988.99 311.528 991.15 309.008 991.15 305.12C991.15 301.232 988.846 298.64 985.894 298.64C982.798 298.64 980.638 301.16 980.638 305.12C980.638 308.936 982.87 311.528 985.894 311.528Z" fill="#9E008E"/>
<path d="M828.456 443.442C826.536 443.442 824.856 442.802 823.576 441.618L824.92 440.002C825.96 440.898 827.144 441.442 828.536 441.442C829.736 441.442 830.344 440.898 830.344 440.21C830.344 439.426 829.704 439.186 828.024 438.802C825.704 438.274 824.04 437.618 824.04 435.49C824.04 433.458 825.704 432.066 828.12 432.066C829.912 432.066 831.288 432.626 832.424 433.586L831.192 435.298C830.2 434.498 829.096 434.066 828.04 434.066C827.048 434.066 826.424 434.594 826.424 435.25C826.424 436.05 827.096 436.306 828.792 436.69C831.16 437.218 832.728 437.922 832.728 439.954C832.728 442.05 831.128 443.442 828.456 443.442ZM837.374 443.25V434.386H833.95V432.258H843.166V434.386H839.726V443.25H837.374ZM854.136 435.97C854.136 437.698 853.048 439.01 851.4 439.49L854.04 443.25H851.352L848.84 439.682H847.416V443.25H845.048V432.258H849.992C852.392 432.258 854.136 433.794 854.136 435.97ZM847.416 434.418V437.522H849.752C850.92 437.522 851.72 436.914 851.72 435.97C851.72 435.026 850.92 434.418 849.752 434.418H847.416ZM864.266 443.25L863.498 441.362H858.73L857.962 443.25H855.322L859.802 432.258H862.442L866.922 443.25H864.266ZM859.482 439.522H862.746L861.114 435.506L859.482 439.522ZM871.264 443.25V434.386H867.84V432.258H877.056V434.386H873.616V443.25H871.264ZM887.403 434.386H881.307V436.578H886.843V438.706H881.307V441.122H887.403V443.25H878.939V432.258H887.403V434.386ZM894.521 438.914V437.074H899.369V441.602C898.281 442.754 896.569 443.442 894.937 443.442C891.737 443.442 889.033 440.834 889.033 437.746C889.033 434.658 891.737 432.066 894.937 432.066C896.569 432.066 898.281 432.754 899.369 433.906L897.657 435.442C897.001 434.69 895.945 434.21 894.937 434.21C893.049 434.21 891.465 435.842 891.465 437.746C891.465 439.666 893.049 441.298 894.937 441.298C895.673 441.298 896.457 441.042 897.065 440.594V438.914H894.521ZM901.72 443.25V432.258H904.088V443.25H901.72ZM912.076 443.442C908.908 443.442 906.22 440.834 906.22 437.746C906.22 434.658 908.908 432.066 912.076 432.066C913.74 432.066 915.26 432.77 916.332 433.906L914.62 435.442C913.996 434.706 913.068 434.21 912.076 434.21C910.22 434.21 908.652 435.842 908.652 437.746C908.652 439.666 910.22 441.298 912.076 441.298C913.084 441.298 913.996 440.802 914.62 440.066L916.332 441.602C915.26 442.722 913.74 443.442 912.076 443.442ZM922.595 443.25V432.258H927.539C929.939 432.258 931.683 433.794 931.683 435.97C931.683 438.146 929.939 439.682 927.539 439.682H924.963V443.25H922.595ZM924.963 437.522H927.299C928.467 437.522 929.267 436.914 929.267 435.97C929.267 435.026 928.467 434.418 927.299 434.418H924.963V437.522ZM942.808 435.97C942.808 437.698 941.72 439.01 940.072 439.49L942.712 443.25H940.024L937.512 439.682H936.088V443.25H933.72V432.258H938.664C941.064 432.258 942.808 433.794 942.808 435.97ZM936.088 434.418V437.522H938.424C939.592 437.522 940.392 436.914 940.392 435.97C940.392 435.026 939.592 434.418 938.424 434.418H936.088ZM950.186 443.442C947.018 443.442 944.33 440.834 944.33 437.746C944.33 434.658 947.018 432.066 950.186 432.066C953.354 432.066 956.01 434.658 956.01 437.746C956.01 440.834 953.354 443.442 950.186 443.442ZM950.186 441.298C952.026 441.298 953.594 439.666 953.594 437.746C953.594 435.842 952.026 434.21 950.186 434.21C948.33 434.21 946.762 435.842 946.762 437.746C946.762 439.666 948.33 441.298 950.186 441.298ZM962.99 438.914V437.074H967.838V441.602C966.75 442.754 965.038 443.442 963.406 443.442C960.206 443.442 957.502 440.834 957.502 437.746C957.502 434.658 960.206 432.066 963.406 432.066C965.038 432.066 966.75 432.754 967.838 433.906L966.126 435.442C965.47 434.69 964.414 434.21 963.406 434.21C961.518 434.21 959.934 435.842 959.934 437.746C959.934 439.666 961.518 441.298 963.406 441.298C964.142 441.298 964.926 441.042 965.534 440.594V438.914H962.99ZM979.277 435.97C979.277 437.698 978.189 439.01 976.541 439.49L979.181 443.25H976.493L973.981 439.682H972.557V443.25H970.189V432.258H975.133C977.533 432.258 979.277 433.794 979.277 435.97ZM972.557 434.418V437.522H974.893C976.061 437.522 976.861 436.914 976.861 435.97C976.861 435.026 976.061 434.418 974.893 434.418H972.557ZM989.407 443.25L988.639 441.362H983.871L983.103 443.25H980.463L984.943 432.258H987.583L992.063 443.25H989.407ZM984.623 439.522H987.887L986.255 435.506L984.623 439.522ZM993.861 443.25V432.258H996.229L999.621 438.466L1003.03 432.258H1005.38V443.25H1003.03V436.402L999.621 442.61L996.229 436.402V443.25H993.861ZM1012.24 443.442C1010.32 443.442 1008.64 442.802 1007.36 441.618L1008.7 440.002C1009.74 440.898 1010.93 441.442 1012.32 441.442C1013.52 441.442 1014.13 440.898 1014.13 440.21C1014.13 439.426 1013.49 439.186 1011.81 438.802C1009.49 438.274 1007.82 437.618 1007.82 435.49C1007.82 433.458 1009.49 432.066 1011.9 432.066C1013.69 432.066 1015.07 432.626 1016.21 433.586L1014.97 435.298C1013.98 434.498 1012.88 434.066 1011.82 434.066C1010.83 434.066 1010.21 434.594 1010.21 435.25C1010.21 436.05 1010.88 436.306 1012.57 436.69C1014.94 437.218 1016.51 437.922 1016.51 439.954C1016.51 442.05 1014.91 443.442 1012.24 443.442Z" fill="#2D1762"/>
<path d="M413.5 345.088H792.5V404.088H413.5V345.088Z" stroke="#D0D0D0"/>
<mask id="mask8_5441_2073" style="mask-type:alpha" maskUnits="userSpaceOnUse" x="413" y="344" width="380" height="61">
<path d="M413 344.588H793V404.588H413V344.588Z" fill="#5C2CFF"/>
</mask>
<g mask="url(#mask8_5441_2073)">
<path fill-rule="evenodd" clip-rule="evenodd" d="M1252.37 1187.09L313.866 286.837L315.072 285.68L1253.57 1185.93L1252.37 1187.09Z" fill="#D0D0D0"/>
<path fill-rule="evenodd" clip-rule="evenodd" d="M1497.6 1187.48L559.479 286.838L560.686 285.68L1498.8 1186.33L1497.6 1187.48Z" fill="#D0D0D0"/>
<path fill-rule="evenodd" clip-rule="evenodd" d="M1374.79 1187.48L436.671 286.838L437.877 285.68L1376 1186.33L1374.79 1187.48Z" fill="#D0D0D0"/>
<path fill-rule="evenodd" clip-rule="evenodd" d="M1620.41 1187.48L682.29 286.838L683.496 285.68L1621.62 1186.33L1620.41 1187.48Z" fill="#D0D0D0"/>
<path fill-rule="evenodd" clip-rule="evenodd" d="M1313.39 1187.48L375.267 286.838L376.473 285.68L1314.59 1186.33L1313.39 1187.48Z" fill="#D0D0D0"/>
<path fill-rule="evenodd" clip-rule="evenodd" d="M1559 1187.48L620.886 286.838L622.092 285.68L1560.21 1186.33L1559 1187.48Z" fill="#D0D0D0"/>
<path fill-rule="evenodd" clip-rule="evenodd" d="M1436.19 1187.48L498.075 286.838L499.281 285.68L1437.4 1186.33L1436.19 1187.48Z" fill="#D0D0D0"/>
<path fill-rule="evenodd" clip-rule="evenodd" d="M1681.81 1187.48L743.692 286.838L744.898 285.68L1683.02 1186.33L1681.81 1187.48Z" fill="#D0D0D0"/>
<path fill-rule="evenodd" clip-rule="evenodd" d="M1282.68 1187.48L344.565 286.838L345.771 285.68L1283.89 1186.33L1282.68 1187.48Z" fill="#D0D0D0"/>
<path fill-rule="evenodd" clip-rule="evenodd" d="M1528.3 1187.48L590.183 286.838L591.389 285.68L1529.51 1186.33L1528.3 1187.48Z" fill="#D0D0D0"/>
<path fill-rule="evenodd" clip-rule="evenodd" d="M1405.49 1187.48L467.372 286.838L468.578 285.68L1406.7 1186.33L1405.49 1187.48Z" fill="#D0D0D0"/>
<path fill-rule="evenodd" clip-rule="evenodd" d="M1651.11 1187.48L712.991 286.838L714.197 285.68L1652.32 1186.33L1651.11 1187.48Z" fill="#D0D0D0"/>
<path fill-rule="evenodd" clip-rule="evenodd" d="M1344.09 1187.48L405.97 286.838L407.176 285.68L1345.29 1186.33L1344.09 1187.48Z" fill="#D0D0D0"/>
<path fill-rule="evenodd" clip-rule="evenodd" d="M1589.71 1187.48L651.587 286.838L652.793 285.68L1590.91 1186.33L1589.71 1187.48Z" fill="#D0D0D0"/>
<path fill-rule="evenodd" clip-rule="evenodd" d="M1466.9 1187.48L528.778 286.838L529.984 285.68L1468.1 1186.33L1466.9 1187.48Z" fill="#D0D0D0"/>
<path fill-rule="evenodd" clip-rule="evenodd" d="M1712.51 1187.48L774.394 286.838L775.6 285.68L1713.72 1186.33L1712.51 1187.48Z" fill="#D0D0D0"/>
</g>
<path d="M429.72 345V405H413V345H429.72Z" fill="#477076"/>
<path d="M440.288 317V306.92H416.096L415.088 298.712L438.056 267.608H450.872V297.992H457.424V306.92H450.872V317H440.288ZM426.248 297.992H440.288V278.84L426.248 297.992ZM472.142 317.864C468.326 317.864 465.446 314.84 465.446 311.168C465.446 307.784 468.326 304.76 472.142 304.76C475.67 304.76 478.55 307.784 478.55 311.168C478.55 314.84 475.67 317.864 472.142 317.864ZM511.585 317V306.92H487.393L486.385 298.712L509.353 267.608H522.169V297.992H528.721V306.92H522.169V317H511.585ZM497.545 297.992H511.585V278.84L497.545 297.992ZM547.327 292.376C539.911 292.376 535.015 286.832 535.015 279.776C535.015 272.648 539.911 267.032 547.327 267.032C554.815 267.032 559.711 272.72 559.711 279.704C559.711 286.832 554.599 292.376 547.327 292.376ZM541.495 317L575.839 267.536H584.191L549.775 317H541.495ZM547.327 286.184C550.351 286.184 552.583 283.664 552.583 279.704C552.583 275.888 550.351 273.296 547.327 273.296C544.231 273.296 542.071 275.816 542.071 279.704C542.071 283.592 544.375 286.184 547.327 286.184ZM578.215 317.792C570.871 317.792 565.831 312.176 565.831 305.12C565.831 298.064 570.871 292.448 578.215 292.448C585.703 292.448 590.527 298.136 590.527 305.12C590.527 312.248 585.487 317.792 578.215 317.792ZM578.215 311.528C581.311 311.528 583.471 309.008 583.471 305.12C583.471 301.232 581.167 298.64 578.215 298.64C575.119 298.64 572.959 301.16 572.959 305.12C572.959 308.936 575.191 311.528 578.215 311.528Z" fill="#9E008E"/>
<path d="M414.392 443.25V432.258H416.76L420.152 438.466L423.56 432.258H425.912V443.25H423.56V436.402L420.152 442.61L416.76 436.402V443.25H414.392ZM436.657 443.25L435.889 441.362H431.121L430.353 443.25H427.713L432.193 432.258H434.833L439.313 443.25H436.657ZM431.873 439.522H435.137L433.505 435.506L431.873 439.522ZM450.199 435.97C450.199 437.698 449.111 439.01 447.463 439.49L450.103 443.25H447.415L444.903 439.682H443.479V443.25H441.111V432.258H446.055C448.455 432.258 450.199 433.794 450.199 435.97ZM443.479 434.418V437.522H445.815C446.983 437.522 447.783 436.914 447.783 435.97C447.783 435.026 446.983 434.418 445.815 434.418H443.479ZM452.376 443.25V432.258H454.744V437.298L459.192 432.258H462.04L457.752 437.026L462.36 443.25H459.48L456.12 438.706L454.744 440.178V443.25H452.376ZM472.606 434.386H466.51V436.578H472.046V438.706H466.51V441.122H472.606V443.25H464.142V432.258H472.606V434.386ZM477.436 443.25V434.386H474.012V432.258H483.228V434.386H479.788V443.25H477.436ZM485.111 443.25V432.258H487.479V443.25H485.111ZM490.267 443.25V432.258H492.635L497.931 439.362V432.258H500.299V443.25H497.931L492.635 436.146V443.25H490.267ZM507.912 438.914V437.074H512.76V441.602C511.672 442.754 509.96 443.442 508.328 443.442C505.128 443.442 502.424 440.834 502.424 437.746C502.424 434.658 505.128 432.066 508.328 432.066C509.96 432.066 511.672 432.754 512.76 433.906L511.048 435.442C510.392 434.69 509.336 434.21 508.328 434.21C506.44 434.21 504.856 435.842 504.856 437.746C504.856 439.666 506.44 441.298 508.328 441.298C509.064 441.298 509.848 441.042 510.456 440.594V438.914H507.912ZM516.103 445.586L515.255 444.946C515.767 444.498 516.103 443.954 516.231 443.442C515.463 443.442 514.839 442.786 514.839 442.002C514.839 441.202 515.479 440.53 516.279 440.53C517.175 440.53 517.799 441.362 517.799 442.53C517.799 443.474 517.239 444.482 516.103 445.586ZM529.905 443.442C526.737 443.442 524.049 440.834 524.049 437.746C524.049 434.658 526.737 432.066 529.905 432.066C531.569 432.066 533.089 432.77 534.161 433.906L532.449 435.442C531.825 434.706 530.897 434.21 529.905 434.21C528.049 434.21 526.481 435.842 526.481 437.746C526.481 439.666 528.049 441.298 529.905 441.298C530.913 441.298 531.825 440.802 532.449 440.066L534.161 441.602C533.089 442.722 531.569 443.442 529.905 443.442ZM541.264 443.442C538.096 443.442 535.408 440.834 535.408 437.746C535.408 434.658 538.096 432.066 541.264 432.066C544.432 432.066 547.088 434.658 547.088 437.746C547.088 440.834 544.432 443.442 541.264 443.442ZM541.264 441.298C543.104 441.298 544.672 439.666 544.672 437.746C544.672 435.842 543.104 434.21 541.264 434.21C539.408 434.21 537.84 435.842 537.84 437.746C537.84 439.666 539.408 441.298 541.264 441.298ZM549.236 443.25V432.258H551.604L554.996 438.466L558.404 432.258H560.756V443.25H558.404V436.402L554.996 442.61L551.604 436.402V443.25H549.236ZM563.548 443.25V432.258H565.916L569.308 438.466L572.716 432.258H575.068V443.25H572.716V436.402L569.308 442.61L565.916 436.402V443.25H563.548ZM581.925 443.442C580.005 443.442 578.325 442.802 577.045 441.618L578.389 440.002C579.429 440.898 580.613 441.442 582.005 441.442C583.205 441.442 583.813 440.898 583.813 440.21C583.813 439.426 583.173 439.186 581.493 438.802C579.173 438.274 577.509 437.618 577.509 435.49C577.509 433.458 579.173 432.066 581.589 432.066C583.381 432.066 584.757 432.626 585.893 433.586L584.661 435.298C583.669 434.498 582.565 434.066 581.509 434.066C580.517 434.066 579.893 434.594 579.893 435.25C579.893 436.05 580.565 436.306 582.261 436.69C584.629 437.218 586.197 437.922 586.197 439.954C586.197 442.05 584.597 443.442 581.925 443.442ZM602.13 442.642L600.21 443.506L599.026 442.274C598.13 443.026 597.09 443.442 595.842 443.442C593.714 443.442 592.146 442.258 592.146 440.258C592.146 438.818 592.85 437.906 594.514 437.154C593.938 436.306 593.746 435.73 593.746 434.914C593.746 433.378 595.122 432.114 596.866 432.114C598.658 432.114 599.954 433.314 599.954 434.898C599.954 436.13 599.186 436.802 597.458 437.602C597.938 438.162 598.482 438.77 599.154 439.49C599.57 438.882 599.922 438.194 600.21 437.474L601.922 438.274C601.442 439.234 600.946 440.082 600.402 440.818L602.13 442.642ZM596.898 433.794C596.258 433.794 595.746 434.258 595.746 434.914C595.746 435.426 595.986 435.842 596.434 436.402C597.522 435.97 597.954 435.634 597.954 434.914C597.954 434.274 597.506 433.794 596.898 433.794ZM596.13 441.666C596.706 441.666 597.266 441.41 597.81 440.994C596.834 439.97 596.114 439.154 595.554 438.498C594.802 438.946 594.466 439.458 594.466 440.098C594.466 441.074 595.218 441.666 596.13 441.666ZM608.658 443.25V432.258H614.226C616.194 432.258 617.57 433.41 617.57 435.01C617.57 436.13 617.01 436.946 616.034 437.458C617.314 438.034 618.05 439.058 618.05 440.274C618.05 442.034 616.546 443.25 614.45 443.25H608.658ZM611.01 436.69H613.65C614.53 436.69 615.154 436.178 615.154 435.474C615.154 434.786 614.53 434.274 613.65 434.274H611.01V436.69ZM611.01 441.234H614.002C614.962 441.234 615.634 440.674 615.634 439.89C615.634 439.106 614.962 438.546 614.002 438.546H611.01V441.234ZM624.941 443.442C622.013 443.442 619.965 441.394 619.965 438.498V432.258H622.317V438.402C622.317 440.098 623.405 441.298 624.941 441.298C626.461 441.298 627.549 440.098 627.549 438.402V432.258H629.917V438.498C629.917 441.394 627.852 443.442 624.941 443.442ZM636.519 443.442C634.599 443.442 632.919 442.802 631.639 441.618L632.983 440.002C634.023 440.898 635.207 441.442 636.599 441.442C637.799 441.442 638.407 440.898 638.407 440.21C638.407 439.426 637.767 439.186 636.087 438.802C633.767 438.274 632.103 437.618 632.103 435.49C632.103 433.458 633.767 432.066 636.183 432.066C637.975 432.066 639.351 432.626 640.487 433.586L639.255 435.298C638.263 434.498 637.159 434.066 636.103 434.066C635.111 434.066 634.487 434.594 634.487 435.25C634.487 436.05 635.159 436.306 636.855 436.69C639.223 437.218 640.791 437.922 640.791 439.954C640.791 442.05 639.191 443.442 636.519 443.442ZM642.892 443.25V432.258H645.26V443.25H642.892ZM648.048 443.25V432.258H650.416L655.712 439.362V432.258H658.08V443.25H655.712L650.416 436.146V443.25H648.048ZM669.325 434.386H663.229V436.578H668.765V438.706H663.229V441.122H669.325V443.25H660.861V432.258H669.325V434.386ZM675.675 443.442C673.755 443.442 672.075 442.802 670.795 441.618L672.139 440.002C673.179 440.898 674.363 441.442 675.755 441.442C676.955 441.442 677.563 440.898 677.563 440.21C677.563 439.426 676.923 439.186 675.243 438.802C672.923 438.274 671.259 437.618 671.259 435.49C671.259 433.458 672.923 432.066 675.339 432.066C677.131 432.066 678.507 432.626 679.643 433.586L678.411 435.298C677.419 434.498 676.315 434.066 675.259 434.066C674.267 434.066 673.643 434.594 673.643 435.25C673.643 436.05 674.315 436.306 676.011 436.69C678.379 437.218 679.947 437.922 679.947 439.954C679.947 442.05 678.347 443.442 675.675 443.442ZM686.112 443.442C684.192 443.442 682.512 442.802 681.232 441.618L682.576 440.002C683.616 440.898 684.8 441.442 686.192 441.442C687.392 441.442 688 440.898 688 440.21C688 439.426 687.36 439.186 685.68 438.802C683.36 438.274 681.696 437.618 681.696 435.49C681.696 433.458 683.36 432.066 685.776 432.066C687.568 432.066 688.944 432.626 690.08 433.586L688.848 435.298C687.856 434.498 686.752 434.066 685.696 434.066C684.704 434.066 684.08 434.594 684.08 435.25C684.08 436.05 684.752 436.306 686.448 436.69C688.816 437.218 690.384 437.922 690.384 439.954C690.384 442.05 688.784 443.442 686.112 443.442ZM696.845 443.25V432.258H700.797C704.493 432.258 707.117 434.53 707.117 437.746C707.117 440.962 704.493 443.25 700.797 443.25H696.845ZM699.213 441.106H701.101C703.197 441.106 704.685 439.714 704.685 437.746C704.685 435.794 703.197 434.402 701.101 434.402H699.213V441.106ZM717.7 434.386H711.604V436.578H717.14V438.706H711.604V441.122H717.7V443.25H709.236V432.258H717.7V434.386ZM727.954 432.258H730.61L726.13 443.25H723.49L719.01 432.258H721.666L724.818 440.002L727.954 432.258Z" fill="#2D1762"/>
</svg>
