<svg width="1098" height="502" viewBox="0 0 1098 502" fill="none" xmlns="http://www.w3.org/2000/svg">
<path d="M881.961 194V185.6L899.671 171.88C905.411 167.33 907.231 164.18 907.231 160.82C907.231 156.83 903.871 154.45 899.951 154.45C895.261 154.45 891.691 156.83 888.191 160.82L881.611 154.45C886.371 148.43 892.461 145.07 900.231 145.07C910.451 145.07 917.871 151.37 917.871 160.4C917.871 166.84 915.071 171.81 906.671 177.9L897.921 184.69H918.291V194H881.961ZM947.994 162.92C956.884 162.92 964.234 168.66 964.234 178.18C964.234 188.05 956.324 194.84 945.824 194.84C931.824 194.84 925.384 184.76 925.384 170.76C925.384 155.78 934.134 145.07 947.504 145.07C953.454 145.07 958.284 147.1 962.204 150.25L957.304 158.09C954.364 155.64 951.564 154.17 947.504 154.17C941.204 154.17 937.004 159.42 936.094 167.54C939.034 164.67 943.444 162.92 947.994 162.92ZM945.264 186.09C950.374 186.09 953.594 182.52 953.594 178.67C953.594 174.05 949.674 171.32 944.984 171.32C941.064 171.32 937.844 173.49 936.374 176.92C937.284 182.8 939.874 186.09 945.264 186.09ZM979.178 194.84C975.468 194.84 972.668 191.9 972.668 188.33C972.668 185.04 975.468 182.1 979.178 182.1C982.608 182.1 985.408 185.04 985.408 188.33C985.408 191.9 982.608 194.84 979.178 194.84ZM1012.28 145.07C1026.28 145.07 1032.72 155.15 1032.72 169.15C1032.72 184.13 1023.97 194.84 1010.6 194.84C1004.65 194.84 999.815 192.81 995.895 189.66L1000.8 181.82C1003.74 184.27 1006.54 185.74 1010.6 185.74C1016.9 185.74 1021.1 180.49 1022.01 172.37C1019.07 175.24 1014.66 176.99 1010.11 176.99C1001.22 176.99 993.865 171.25 993.865 161.73C993.865 151.86 1001.78 145.07 1012.28 145.07ZM1013.12 168.59C1017.04 168.59 1020.26 166.42 1021.73 162.99C1020.82 157.11 1018.23 153.82 1012.84 153.82C1007.73 153.82 1004.51 157.39 1004.51 161.24C1004.51 165.86 1008.43 168.59 1013.12 168.59ZM1052.07 170.06C1044.86 170.06 1040.1 164.67 1040.1 157.81C1040.1 150.88 1044.86 145.42 1052.07 145.42C1059.35 145.42 1064.11 150.95 1064.11 157.74C1064.11 164.67 1059.14 170.06 1052.07 170.06ZM1046.4 194L1079.79 145.91H1087.91L1054.45 194H1046.4ZM1052.07 164.04C1055.01 164.04 1057.18 161.59 1057.18 157.74C1057.18 154.03 1055.01 151.51 1052.07 151.51C1049.06 151.51 1046.96 153.96 1046.96 157.74C1046.96 161.52 1049.2 164.04 1052.07 164.04ZM1082.1 194.77C1074.96 194.77 1070.06 189.31 1070.06 182.45C1070.06 175.59 1074.96 170.13 1082.1 170.13C1089.38 170.13 1094.07 175.66 1094.07 182.45C1094.07 189.38 1089.17 194.77 1082.1 194.77ZM1082.1 188.68C1085.11 188.68 1087.21 186.23 1087.21 182.45C1087.21 178.67 1084.97 176.15 1082.1 176.15C1079.09 176.15 1076.99 178.6 1076.99 182.45C1076.99 186.16 1079.16 188.68 1082.1 188.68Z" fill="#477076"/>
<path d="M880.798 117V106.008H883.166L886.558 112.216L889.966 106.008H892.318V117H889.966V110.152L886.558 116.36L883.166 110.152V117H880.798ZM903.575 108.136H897.479V110.328H903.015V112.456H897.479V114.872H903.575V117H895.111V106.008H903.575V108.136ZM905.861 117V106.008H908.229L911.621 112.216L915.029 106.008H917.381V117H915.029V110.152L911.621 116.36L908.229 110.152V117H905.861ZM920.173 117V106.008H925.741C927.709 106.008 929.085 107.16 929.085 108.76C929.085 109.88 928.525 110.696 927.549 111.208C928.829 111.784 929.565 112.808 929.565 114.024C929.565 115.784 928.061 117 925.965 117H920.173ZM922.525 110.44H925.165C926.045 110.44 926.669 109.928 926.669 109.224C926.669 108.536 926.045 108.024 925.165 108.024H922.525V110.44ZM922.525 114.984H925.517C926.477 114.984 927.149 114.424 927.149 113.64C927.149 112.856 926.477 112.296 925.517 112.296H922.525V114.984ZM940.184 108.136H934.088V110.328H939.624V112.456H934.088V114.872H940.184V117H931.72V106.008H940.184V108.136ZM951.558 109.72C951.558 111.448 950.47 112.76 948.822 113.24L951.462 117H948.774L946.262 113.432H944.838V117H942.47V106.008H947.414C949.814 106.008 951.558 107.544 951.558 109.72ZM944.838 108.168V111.272H947.174C948.342 111.272 949.142 110.664 949.142 109.72C949.142 108.776 948.342 108.168 947.174 108.168H944.838ZM957.8 117.192C955.88 117.192 954.2 116.552 952.92 115.368L954.264 113.752C955.304 114.648 956.488 115.192 957.88 115.192C959.08 115.192 959.688 114.648 959.688 113.96C959.688 113.176 959.048 112.936 957.368 112.552C955.048 112.024 953.384 111.368 953.384 109.24C953.384 107.208 955.048 105.816 957.464 105.816C959.256 105.816 960.632 106.376 961.768 107.336L960.536 109.048C959.544 108.248 958.44 107.816 957.384 107.816C956.392 107.816 955.768 108.344 955.768 109C955.768 109.8 956.44 110.056 958.136 110.44C960.504 110.968 962.072 111.672 962.072 113.704C962.072 115.8 960.472 117.192 957.8 117.192ZM971.549 106.008H973.901V117H971.549V112.456H966.541V117H964.173V106.008H966.541V110.328H971.549V106.008ZM976.705 117V106.008H979.073V117H976.705ZM981.861 117V106.008H986.805C989.205 106.008 990.949 107.544 990.949 109.72C990.949 111.896 989.205 113.432 986.805 113.432H984.229V117H981.861ZM984.229 111.272H986.565C987.733 111.272 988.533 110.664 988.533 109.72C988.533 108.776 987.733 108.168 986.565 108.168H984.229V111.272Z" fill="#2D1762"/>
<path d="M617.358 367.6L635.068 353.88C637.868 351.687 639.828 349.727 640.948 348C642.068 346.273 642.628 344.547 642.628 342.82C642.628 340.907 641.928 339.367 640.528 338.2C639.128 337.033 637.402 336.45 635.348 336.45C633.108 336.45 631.055 336.987 629.188 338.06C627.322 339.133 625.455 340.72 623.588 342.82L617.008 336.45C621.955 330.197 628.162 327.07 635.628 327.07C638.988 327.07 641.998 327.723 644.658 329.03C647.365 330.337 649.465 332.157 650.958 334.49C652.498 336.777 653.268 339.413 653.268 342.4C653.268 345.713 652.428 348.723 650.748 351.43C649.068 354.09 646.175 356.913 642.068 359.9L633.318 366.69H653.688V376H617.358V367.6ZM683.811 366.2H660.291L659.311 358.22L681.641 327.98H694.101V357.52H700.471V366.2H694.101V376H683.811V366.2ZM683.811 357.52V338.9L670.161 357.52H683.811ZM714.78 376.84C712.96 376.84 711.42 376.21 710.16 374.95C708.9 373.69 708.27 372.15 708.27 370.33C708.27 368.65 708.9 367.203 710.16 365.99C711.42 364.73 712.96 364.1 714.78 364.1C716.46 364.1 717.907 364.73 719.12 365.99C720.38 367.203 721.01 368.65 721.01 370.33C721.01 372.103 720.404 373.643 719.19 374.95C717.977 376.21 716.507 376.84 714.78 376.84ZM752.708 344.92C755.694 344.92 758.424 345.55 760.898 346.81C763.371 348.023 765.331 349.797 766.778 352.13C768.224 354.417 768.948 357.1 768.948 360.18C768.948 363.4 768.131 366.293 766.498 368.86C764.911 371.38 762.718 373.34 759.918 374.74C757.118 376.14 753.991 376.84 750.538 376.84C743.771 376.84 738.661 374.67 735.208 370.33C731.801 365.943 730.098 360.087 730.098 352.76C730.098 347.813 731.008 343.403 732.828 339.53C734.694 335.61 737.284 332.553 740.598 330.36C743.958 328.167 747.831 327.07 752.218 327.07C757.724 327.07 762.624 328.797 766.918 332.25L762.018 340.09C760.431 338.783 758.868 337.803 757.328 337.15C755.834 336.497 754.131 336.17 752.218 336.17C749.091 336.17 746.524 337.383 744.518 339.81C742.511 342.19 741.274 345.433 740.808 349.54C742.301 348.093 744.098 346.973 746.198 346.18C748.298 345.34 750.468 344.92 752.708 344.92ZM749.978 368.09C752.451 368.09 754.458 367.367 755.998 365.92C757.538 364.427 758.308 362.677 758.308 360.67C758.308 358.43 757.468 356.657 755.788 355.35C754.154 353.997 752.124 353.32 749.698 353.32C747.738 353.32 745.988 353.833 744.448 354.86C742.954 355.84 741.834 357.193 741.088 358.92C741.554 361.953 742.488 364.24 743.888 365.78C745.334 367.32 747.364 368.09 749.978 368.09ZM787.672 352.06C785.338 352.06 783.262 351.523 781.442 350.45C779.622 349.377 778.198 347.907 777.172 346.04C776.192 344.173 775.702 342.097 775.702 339.81C775.702 337.523 776.192 335.447 777.172 333.58C778.198 331.667 779.622 330.173 781.442 329.1C783.262 327.98 785.338 327.42 787.672 327.42C790.052 327.42 792.152 327.98 793.972 329.1C795.792 330.173 797.192 331.643 798.172 333.51C799.198 335.377 799.712 337.453 799.712 339.74C799.712 342.027 799.198 344.127 798.172 346.04C797.145 347.907 795.722 349.377 793.902 350.45C792.082 351.523 790.005 352.06 787.672 352.06ZM815.392 327.91H823.512L790.052 376H782.002L815.392 327.91ZM787.672 346.04C789.165 346.04 790.378 345.48 791.312 344.36C792.292 343.193 792.782 341.653 792.782 339.74C792.782 337.92 792.292 336.427 791.312 335.26C790.378 334.093 789.165 333.51 787.672 333.51C786.178 333.51 784.942 334.093 783.962 335.26C783.028 336.38 782.562 337.873 782.562 339.74C782.562 341.607 783.052 343.123 784.032 344.29C785.012 345.457 786.225 346.04 787.672 346.04ZM817.702 376.77C815.368 376.77 813.292 376.233 811.472 375.16C809.652 374.04 808.228 372.547 807.202 370.68C806.175 368.813 805.662 366.737 805.662 364.45C805.662 362.163 806.175 360.087 807.202 358.22C808.228 356.353 809.652 354.883 811.472 353.81C813.292 352.69 815.368 352.13 817.702 352.13C820.082 352.13 822.158 352.69 823.932 353.81C825.752 354.883 827.152 356.353 828.132 358.22C829.158 360.087 829.672 362.163 829.672 364.45C829.672 366.737 829.158 368.837 828.132 370.75C827.105 372.617 825.682 374.087 823.862 375.16C822.088 376.233 820.035 376.77 817.702 376.77ZM817.702 370.68C819.195 370.68 820.408 370.12 821.342 369C822.322 367.833 822.812 366.317 822.812 364.45C822.812 362.583 822.322 361.067 821.342 359.9C820.362 358.733 819.148 358.15 817.702 358.15C816.162 358.15 814.925 358.733 813.992 359.9C813.058 361.02 812.592 362.537 812.592 364.45C812.592 366.27 813.058 367.763 813.992 368.93C814.972 370.097 816.208 370.68 817.702 370.68Z" fill="#AB9B32"/>
<path d="M624.247 281.136H618.151V283.328H623.687V285.456H618.151V287.872H624.247V290H615.783V279.008H624.247V281.136ZM634.501 279.008H637.157L632.677 290H630.037L625.557 279.008H628.213L631.365 286.752L634.501 279.008ZM647.434 281.136H641.338V283.328H646.874V285.456H641.338V287.872H647.434V290H638.97V279.008H647.434V281.136ZM649.72 290V279.008H652.088L657.384 286.112V279.008H659.752V290H657.384L652.088 282.896V290H649.72ZM665.077 290V281.136H661.653V279.008H670.869V281.136H667.429V290H665.077ZM686.199 282.72C686.199 284.448 685.111 285.76 683.463 286.24L686.103 290H683.415L680.903 286.432H679.479V290H677.111V279.008H682.055C684.455 279.008 686.199 280.544 686.199 282.72ZM679.479 281.168V284.272H681.815C682.983 284.272 683.783 283.664 683.783 282.72C683.783 281.776 682.983 281.168 681.815 281.168H679.479ZM696.84 281.136H690.744V283.328H696.28V285.456H690.744V287.872H696.84V290H688.376V279.008H696.84V281.136ZM703.958 285.664V283.824H708.806V288.352C707.718 289.504 706.006 290.192 704.374 290.192C701.174 290.192 698.47 287.584 698.47 284.496C698.47 281.408 701.174 278.816 704.374 278.816C706.006 278.816 707.718 279.504 708.806 280.656L707.094 282.192C706.438 281.44 705.382 280.96 704.374 280.96C702.486 280.96 700.902 282.592 700.902 284.496C700.902 286.416 702.486 288.048 704.374 288.048C705.11 288.048 705.894 287.792 706.502 287.344V285.664H703.958ZM711.158 290V279.008H713.526V290H711.158ZM720.378 290.192C718.458 290.192 716.778 289.552 715.498 288.368L716.842 286.752C717.882 287.648 719.066 288.192 720.458 288.192C721.658 288.192 722.266 287.648 722.266 286.96C722.266 286.176 721.626 285.936 719.946 285.552C717.626 285.024 715.962 284.368 715.962 282.24C715.962 280.208 717.626 278.816 720.042 278.816C721.834 278.816 723.21 279.376 724.346 280.336L723.114 282.048C722.122 281.248 721.018 280.816 719.962 280.816C718.97 280.816 718.346 281.344 718.346 282C718.346 282.8 719.018 283.056 720.714 283.44C723.082 283.968 724.65 284.672 724.65 286.704C724.65 288.8 723.05 290.192 720.378 290.192ZM729.295 290V281.136H725.871V279.008H735.087V281.136H731.647V290H729.295ZM746.058 282.72C746.058 284.448 744.97 285.76 743.322 286.24L745.962 290H743.274L740.762 286.432H739.338V290H736.97V279.008H741.914C744.314 279.008 746.058 280.544 746.058 282.72ZM739.338 281.168V284.272H741.674C742.842 284.272 743.642 283.664 743.642 282.72C743.642 281.776 742.842 281.168 741.674 281.168H739.338ZM756.188 290L755.42 288.112H750.652L749.884 290H747.244L751.724 279.008H754.364L758.844 290H756.188ZM751.404 286.272H754.668L753.036 282.256L751.404 286.272ZM763.186 290V281.136H759.762V279.008H768.978V281.136H765.538V290H763.186ZM770.861 290V279.008H773.229V290H770.861ZM781.217 290.192C778.049 290.192 775.361 287.584 775.361 284.496C775.361 281.408 778.049 278.816 781.217 278.816C784.385 278.816 787.041 281.408 787.041 284.496C787.041 287.584 784.385 290.192 781.217 290.192ZM781.217 288.048C783.057 288.048 784.625 286.416 784.625 284.496C784.625 282.592 783.057 280.96 781.217 280.96C779.361 280.96 777.793 282.592 777.793 284.496C777.793 286.416 779.361 288.048 781.217 288.048ZM789.189 290V279.008H791.557L796.853 286.112V279.008H799.221V290H796.853L791.557 282.896V290H789.189Z" fill="#2D1762"/>
<path d="M640.931 194V184.2H617.411L616.431 176.22L638.761 145.98H651.221V175.52H657.591V184.2H651.221V194H640.931ZM627.281 175.52H640.931V156.9L627.281 175.52ZM673.79 194V157.74L665.6 162.85L661.4 155.57L675.82 145.91H684.08V194H673.79ZM705.758 170.06C698.548 170.06 693.788 164.67 693.788 157.81C693.788 150.88 698.548 145.42 705.758 145.42C713.038 145.42 717.798 150.95 717.798 157.74C717.798 164.67 712.828 170.06 705.758 170.06ZM700.088 194L733.478 145.91H741.598L708.138 194H700.088ZM705.758 164.04C708.698 164.04 710.868 161.59 710.868 157.74C710.868 154.03 708.698 151.51 705.758 151.51C702.748 151.51 700.648 153.96 700.648 157.74C700.648 161.52 702.888 164.04 705.758 164.04ZM735.788 194.77C728.648 194.77 723.748 189.31 723.748 182.45C723.748 175.59 728.648 170.13 735.788 170.13C743.068 170.13 747.758 175.66 747.758 182.45C747.758 189.38 742.858 194.77 735.788 194.77ZM735.788 188.68C738.798 188.68 740.898 186.23 740.898 182.45C740.898 178.67 738.658 176.15 735.788 176.15C732.778 176.15 730.678 178.6 730.678 182.45C730.678 186.16 732.848 188.68 735.788 188.68Z" fill="#9E008E"/>
<path d="M623.856 108.136H617.76V110.328H623.296V112.456H617.76V114.872H623.856V117H615.392V106.008H623.856V108.136ZM634.11 106.008H636.766L632.286 117H629.646L625.166 106.008H627.822L630.974 113.752L634.11 106.008ZM647.044 108.136H640.948V110.328H646.484V112.456H640.948V114.872H647.044V117H638.58V106.008H647.044V108.136ZM649.33 117V106.008H651.698L656.994 113.112V106.008H659.362V117H656.994L651.698 109.896V117H649.33ZM664.686 117V108.136H661.262V106.008H670.478V108.136H667.038V117H664.686ZM680.784 117.192C678.864 117.192 677.184 116.552 675.904 115.368L677.248 113.752C678.288 114.648 679.472 115.192 680.864 115.192C682.064 115.192 682.672 114.648 682.672 113.96C682.672 113.176 682.032 112.936 680.352 112.552C678.032 112.024 676.368 111.368 676.368 109.24C676.368 107.208 678.032 105.816 680.448 105.816C682.24 105.816 683.616 106.376 684.752 107.336L683.52 109.048C682.528 108.248 681.424 107.816 680.368 107.816C679.376 107.816 678.752 108.344 678.752 109C678.752 109.8 679.424 110.056 681.12 110.44C683.488 110.968 685.056 111.672 685.056 113.704C685.056 115.8 683.456 117.192 680.784 117.192ZM687.158 117V106.008H692.102C694.502 106.008 696.246 107.544 696.246 109.72C696.246 111.896 694.502 113.432 692.102 113.432H689.526V117H687.158ZM689.526 111.272H691.862C693.03 111.272 693.83 110.664 693.83 109.72C693.83 108.776 693.03 108.168 691.862 108.168H689.526V111.272ZM703.483 117.192C700.315 117.192 697.627 114.584 697.627 111.496C697.627 108.408 700.315 105.816 703.483 105.816C706.651 105.816 709.307 108.408 709.307 111.496C709.307 114.584 706.651 117.192 703.483 117.192ZM703.483 115.048C705.323 115.048 706.891 113.416 706.891 111.496C706.891 109.592 705.323 107.96 703.483 107.96C701.627 107.96 700.059 109.592 700.059 111.496C700.059 113.416 701.627 115.048 703.483 115.048ZM711.455 117V106.008H713.823L719.119 113.112V106.008H721.487V117H719.119L713.823 109.896V117H711.455ZM728.331 117.192C726.411 117.192 724.731 116.552 723.451 115.368L724.795 113.752C725.835 114.648 727.019 115.192 728.411 115.192C729.611 115.192 730.219 114.648 730.219 113.96C730.219 113.176 729.579 112.936 727.899 112.552C725.579 112.024 723.915 111.368 723.915 109.24C723.915 107.208 725.579 105.816 727.995 105.816C729.787 105.816 731.163 106.376 732.299 107.336L731.067 109.048C730.075 108.248 728.971 107.816 727.915 107.816C726.923 107.816 726.299 108.344 726.299 109C726.299 109.8 726.971 110.056 728.667 110.44C731.035 110.968 732.603 111.672 732.603 113.704C732.603 115.8 731.003 117.192 728.331 117.192ZM739.905 117.192C736.737 117.192 734.049 114.584 734.049 111.496C734.049 108.408 736.737 105.816 739.905 105.816C743.073 105.816 745.729 108.408 745.729 111.496C745.729 114.584 743.073 117.192 739.905 117.192ZM739.905 115.048C741.745 115.048 743.312 113.416 743.312 111.496C743.312 109.592 741.745 107.96 739.905 107.96C738.049 107.96 736.481 109.592 736.481 111.496C736.481 113.416 738.049 115.048 739.905 115.048ZM756.964 109.72C756.964 111.448 755.876 112.76 754.228 113.24L756.868 117H754.18L751.668 113.432H750.244V117H747.876V106.008H752.82C755.22 106.008 756.964 107.544 756.964 109.72ZM750.244 108.168V111.272H752.58C753.748 111.272 754.548 110.664 754.548 109.72C754.548 108.776 753.748 108.168 752.58 108.168H750.244ZM763.206 117.192C761.286 117.192 759.606 116.552 758.326 115.368L759.67 113.752C760.71 114.648 761.894 115.192 763.286 115.192C764.486 115.192 765.094 114.648 765.094 113.96C765.094 113.176 764.454 112.936 762.774 112.552C760.454 112.024 758.79 111.368 758.79 109.24C758.79 107.208 760.454 105.816 762.87 105.816C764.662 105.816 766.038 106.376 767.174 107.336L765.942 109.048C764.95 108.248 763.846 107.816 762.79 107.816C761.798 107.816 761.174 108.344 761.174 109C761.174 109.8 761.846 110.056 763.542 110.44C765.91 110.968 767.478 111.672 767.478 113.704C767.478 115.8 765.878 117.192 763.206 117.192ZM776.956 106.008H779.308V117H776.956V112.456H771.948V117H769.58V106.008H771.948V110.328H776.956V106.008ZM782.111 117V106.008H784.479V117H782.111ZM787.267 117V106.008H792.211C794.611 106.008 796.355 107.544 796.355 109.72C796.355 111.896 794.611 113.432 792.211 113.432H789.635V117H787.267ZM789.635 111.272H791.971C793.139 111.272 793.939 110.664 793.939 109.72C793.939 108.776 793.139 108.168 791.971 108.168H789.635V111.272Z" fill="#2D1762"/>
<path d="M241.127 260.962L120.576 469.657C5.27276 403.103 -34.2283 255.742 32.3321 140.494C76.006 64.8812 153.779 20 241.127 20V260.962Z" fill="#9E008E"/>
<path d="M241.127 260.961L463.055 355.125C411.036 477.64 269.492 534.777 146.944 482.783C136.397 478.305 130.509 475.388 120.602 469.656L241.153 260.961H241.127Z" fill="#477076"/>
<path d="M241.127 260.962L335.31 39.166C457.013 90.8025 514.691 233.481 463.029 355.126L241.102 260.962H241.127Z" fill="#AB9B32"/>
<path d="M241.129 260.962V20C276.022 20 303.209 25.527 335.338 39.1654L241.129 260.987V260.962Z" fill="#2D1762"/>
<path d="M905.452 344.92C914.342 344.92 921.692 350.66 921.692 360.18C921.692 370.05 913.782 376.84 903.282 376.84C889.282 376.84 882.842 366.76 882.842 352.76C882.842 337.78 891.592 327.07 904.962 327.07C910.912 327.07 915.742 329.1 919.662 332.25L914.762 340.09C911.822 337.64 909.022 336.17 904.962 336.17C898.662 336.17 894.462 341.42 893.552 349.54C896.492 346.67 900.902 344.92 905.452 344.92ZM902.722 368.09C907.832 368.09 911.052 364.52 911.052 360.67C911.052 356.05 907.132 353.32 902.442 353.32C898.522 353.32 895.302 355.49 893.832 358.92C894.742 364.8 897.332 368.09 902.722 368.09ZM936.636 376.84C932.926 376.84 930.126 373.9 930.126 370.33C930.126 367.04 932.926 364.1 936.636 364.1C940.066 364.1 942.866 367.04 942.866 370.33C942.866 373.9 940.066 376.84 936.636 376.84ZM969.803 376.91C961.753 376.91 955.663 373.97 951.183 369.49L957.273 362.21C960.913 365.64 965.253 367.88 969.873 367.88C975.333 367.88 978.623 364.66 978.623 360.53C978.623 356.33 975.193 353.53 969.943 353.53C966.303 353.53 963.223 354.72 960.633 356.68L953.703 353.88L954.403 327.91H986.323V337.22H963.923L963.643 347.86C966.023 346.18 969.103 344.92 973.023 344.92C981.563 344.92 988.913 350.38 988.913 360.18C988.913 370.4 981.283 376.91 969.803 376.91ZM1007.82 352.06C1000.61 352.06 995.848 346.67 995.848 339.81C995.848 332.88 1000.61 327.42 1007.82 327.42C1015.1 327.42 1019.86 332.95 1019.86 339.74C1019.86 346.67 1014.89 352.06 1007.82 352.06ZM1002.15 376L1035.54 327.91H1043.66L1010.2 376H1002.15ZM1007.82 346.04C1010.76 346.04 1012.93 343.59 1012.93 339.74C1012.93 336.03 1010.76 333.51 1007.82 333.51C1004.81 333.51 1002.71 335.96 1002.71 339.74C1002.71 343.52 1004.95 346.04 1007.82 346.04ZM1037.85 376.77C1030.71 376.77 1025.81 371.31 1025.81 364.45C1025.81 357.59 1030.71 352.13 1037.85 352.13C1045.13 352.13 1049.82 357.66 1049.82 364.45C1049.82 371.38 1044.92 376.77 1037.85 376.77ZM1037.85 370.68C1040.86 370.68 1042.96 368.23 1042.96 364.45C1042.96 360.67 1040.72 358.15 1037.85 358.15C1034.84 358.15 1032.74 360.6 1032.74 364.45C1032.74 368.16 1034.91 370.68 1037.85 370.68Z" fill="#2D1762"/>
<path d="M883.006 290V281.136H879.582V279.008H888.798V281.136H885.358V290H883.006ZM899.769 282.72C899.769 284.448 898.681 285.76 897.033 286.24L899.673 290H896.985L894.473 286.432H893.049V290H890.681V279.008H895.625C898.025 279.008 899.769 280.544 899.769 282.72ZM893.049 281.168V284.272H895.385C896.553 284.272 897.353 283.664 897.353 282.72C897.353 281.776 896.553 281.168 895.385 281.168H893.049ZM909.899 290L909.131 288.112H904.363L903.595 290H900.955L905.435 279.008H908.075L912.555 290H909.899ZM905.115 286.272H908.379L906.747 282.256L905.115 286.272ZM914.353 290V279.008H916.721V290H914.353ZM919.509 290V279.008H921.877L927.173 286.112V279.008H929.541V290H927.173L921.877 282.896V290H919.509ZM932.322 290V279.008H934.69V290H932.322ZM937.478 290V279.008H939.846L945.142 286.112V279.008H947.51V290H945.142L939.846 282.896V290H937.478ZM955.122 285.664V283.824H959.97V288.352C958.882 289.504 957.17 290.192 955.538 290.192C952.338 290.192 949.634 287.584 949.634 284.496C949.634 281.408 952.338 278.816 955.538 278.816C957.17 278.816 958.882 279.504 959.97 280.656L958.258 282.192C957.602 281.44 956.546 280.96 955.538 280.96C953.65 280.96 952.066 282.592 952.066 284.496C952.066 286.416 953.65 288.048 955.538 288.048C956.274 288.048 957.058 287.792 957.666 287.344V285.664H955.122Z" fill="#2D1762"/>
<path d="M385.006 15V6.136H381.582V4.008H390.798V6.136H387.358V15H385.006ZM401.769 7.72C401.769 9.448 400.681 10.76 399.033 11.24L401.673 15H398.985L396.473 11.432H395.049V15H392.681V4.008H397.625C400.025 4.008 401.769 5.544 401.769 7.72ZM395.049 6.168V9.272H397.385C398.553 9.272 399.353 8.664 399.353 7.72C399.353 6.776 398.553 6.168 397.385 6.168H395.049ZM411.899 15L411.131 13.112H406.363L405.595 15H402.955L407.435 4.008H410.075L414.555 15H411.899ZM407.115 11.272H410.379L408.747 7.256L407.115 11.272ZM416.353 15V4.008H418.721V15H416.353ZM421.509 15V4.008H423.877L429.173 11.112V4.008H431.541V15H429.173L423.877 7.896V15H421.509ZM434.322 15V4.008H436.69V15H434.322ZM439.478 15V4.008H441.846L447.142 11.112V4.008H449.51V15H447.142L441.846 7.896V15H439.478ZM457.122 10.664V8.824H461.97V13.352C460.882 14.504 459.17 15.192 457.538 15.192C454.338 15.192 451.634 12.584 451.634 9.496C451.634 6.408 454.338 3.816 457.538 3.816C459.17 3.816 460.882 4.504 461.97 5.656L460.258 7.192C459.602 6.44 458.546 5.96 457.538 5.96C455.65 5.96 454.066 7.592 454.066 9.496C454.066 11.416 455.65 13.048 457.538 13.048C458.274 13.048 459.058 12.792 459.666 12.344V10.664H457.122Z" fill="#2D1762"/>
<path d="M222.798 396V385.008H225.166L228.558 391.216L231.966 385.008H234.318V396H231.966V389.152L228.558 395.36L225.166 389.152V396H222.798ZM245.575 387.136H239.479V389.328H245.015V391.456H239.479V393.872H245.575V396H237.111V385.008H245.575V387.136ZM247.861 396V385.008H250.229L253.621 391.216L257.029 385.008H259.381V396H257.029V389.152L253.621 395.36L250.229 389.152V396H247.861ZM262.173 396V385.008H267.741C269.709 385.008 271.085 386.16 271.085 387.76C271.085 388.88 270.525 389.696 269.549 390.208C270.829 390.784 271.565 391.808 271.565 393.024C271.565 394.784 270.061 396 267.965 396H262.173ZM264.525 389.44H267.165C268.045 389.44 268.669 388.928 268.669 388.224C268.669 387.536 268.045 387.024 267.165 387.024H264.525V389.44ZM264.525 393.984H267.517C268.477 393.984 269.149 393.424 269.149 392.64C269.149 391.856 268.477 391.296 267.517 391.296H264.525V393.984ZM282.184 387.136H276.088V389.328H281.624V391.456H276.088V393.872H282.184V396H273.72V385.008H282.184V387.136ZM293.558 388.72C293.558 390.448 292.47 391.76 290.822 392.24L293.462 396H290.774L288.262 392.432H286.838V396H284.47V385.008H289.414C291.814 385.008 293.558 386.544 293.558 388.72ZM286.838 387.168V390.272H289.174C290.342 390.272 291.142 389.664 291.142 388.72C291.142 387.776 290.342 387.168 289.174 387.168H286.838ZM299.8 396.192C297.88 396.192 296.2 395.552 294.92 394.368L296.264 392.752C297.304 393.648 298.488 394.192 299.88 394.192C301.08 394.192 301.688 393.648 301.688 392.96C301.688 392.176 301.048 391.936 299.368 391.552C297.048 391.024 295.384 390.368 295.384 388.24C295.384 386.208 297.048 384.816 299.464 384.816C301.256 384.816 302.632 385.376 303.768 386.336L302.536 388.048C301.544 387.248 300.44 386.816 299.384 386.816C298.392 386.816 297.768 387.344 297.768 388C297.768 388.8 298.44 389.056 300.136 389.44C302.504 389.968 304.072 390.672 304.072 392.704C304.072 394.8 302.472 396.192 299.8 396.192ZM313.549 385.008H315.901V396H313.549V391.456H308.541V396H306.173V385.008H308.541V389.328H313.549V385.008ZM318.705 396V385.008H321.073V396H318.705ZM323.861 396V385.008H328.805C331.205 385.008 332.949 386.544 332.949 388.72C332.949 390.896 331.205 392.432 328.805 392.432H326.229V396H323.861ZM326.229 390.272H328.565C329.733 390.272 330.533 389.664 330.533 388.72C330.533 387.776 329.733 387.168 328.565 387.168H326.229V390.272Z" fill="white"/>
<path d="M104.372 232.136H98.2756V234.328H103.812V236.456H98.2756V238.872H104.372V241H95.9076V230.008H104.372V232.136ZM114.626 230.008H117.282L112.802 241H110.162L105.682 230.008H108.338L111.49 237.752L114.626 230.008ZM127.559 232.136H121.463V234.328H126.999V236.456H121.463V238.872H127.559V241H119.095V230.008H127.559V232.136ZM129.845 241V230.008H132.213L137.509 237.112V230.008H139.877V241H137.509L132.213 233.896V241H129.845ZM145.202 241V232.136H141.778V230.008H150.994V232.136H147.554V241H145.202ZM67.6201 261.192C65.7001 261.192 64.0201 260.552 62.7401 259.368L64.0841 257.752C65.1241 258.648 66.3081 259.192 67.7001 259.192C68.9001 259.192 69.5081 258.648 69.5081 257.96C69.5081 257.176 68.8681 256.936 67.1881 256.552C64.8681 256.024 63.2041 255.368 63.2041 253.24C63.2041 251.208 64.8681 249.816 67.2841 249.816C69.0761 249.816 70.4521 250.376 71.5881 251.336L70.3561 253.048C69.3641 252.248 68.2601 251.816 67.2041 251.816C66.2121 251.816 65.5881 252.344 65.5881 253C65.5881 253.8 66.2601 254.056 67.9561 254.44C70.3241 254.968 71.8921 255.672 71.8921 257.704C71.8921 259.8 70.2921 261.192 67.6201 261.192ZM73.9936 261V250.008H78.9376C81.3376 250.008 83.0816 251.544 83.0816 253.72C83.0816 255.896 81.3376 257.432 78.9376 257.432H76.3616V261H73.9936ZM76.3616 255.272H78.6976C79.8656 255.272 80.6656 254.664 80.6656 253.72C80.6656 252.776 79.8656 252.168 78.6976 252.168H76.3616V255.272ZM90.3186 261.192C87.1506 261.192 84.4626 258.584 84.4626 255.496C84.4626 252.408 87.1506 249.816 90.3186 249.816C93.4866 249.816 96.1426 252.408 96.1426 255.496C96.1426 258.584 93.4866 261.192 90.3186 261.192ZM90.3186 259.048C92.1586 259.048 93.7266 257.416 93.7266 255.496C93.7266 253.592 92.1586 251.96 90.3186 251.96C88.4626 251.96 86.8946 253.592 86.8946 255.496C86.8946 257.416 88.4626 259.048 90.3186 259.048ZM98.2904 261V250.008H100.658L105.954 257.112V250.008H108.322V261H105.954L100.658 253.896V261H98.2904ZM115.167 261.192C113.247 261.192 111.567 260.552 110.287 259.368L111.631 257.752C112.671 258.648 113.855 259.192 115.247 259.192C116.447 259.192 117.055 258.648 117.055 257.96C117.055 257.176 116.415 256.936 114.735 256.552C112.415 256.024 110.751 255.368 110.751 253.24C110.751 251.208 112.415 249.816 114.831 249.816C116.623 249.816 117.999 250.376 119.135 251.336L117.903 253.048C116.911 252.248 115.807 251.816 114.751 251.816C113.759 251.816 113.135 252.344 113.135 253C113.135 253.8 113.807 254.056 115.503 254.44C117.871 254.968 119.439 255.672 119.439 257.704C119.439 259.8 117.839 261.192 115.167 261.192ZM126.74 261.192C123.572 261.192 120.884 258.584 120.884 255.496C120.884 252.408 123.572 249.816 126.74 249.816C129.908 249.816 132.564 252.408 132.564 255.496C132.564 258.584 129.908 261.192 126.74 261.192ZM126.74 259.048C128.58 259.048 130.148 257.416 130.148 255.496C130.148 253.592 128.58 251.96 126.74 251.96C124.884 251.96 123.316 253.592 123.316 255.496C123.316 257.416 124.884 259.048 126.74 259.048ZM143.8 253.72C143.8 255.448 142.712 256.76 141.064 257.24L143.704 261H141.016L138.504 257.432H137.08V261H134.712V250.008H139.656C142.056 250.008 143.8 251.544 143.8 253.72ZM137.08 252.168V255.272H139.416C140.584 255.272 141.384 254.664 141.384 253.72C141.384 252.776 140.584 252.168 139.416 252.168H137.08ZM150.042 261.192C148.122 261.192 146.442 260.552 145.162 259.368L146.506 257.752C147.546 258.648 148.73 259.192 150.122 259.192C151.322 259.192 151.93 258.648 151.93 257.96C151.93 257.176 151.29 256.936 149.61 256.552C147.29 256.024 145.626 255.368 145.626 253.24C145.626 251.208 147.29 249.816 149.706 249.816C151.498 249.816 152.874 250.376 154.01 251.336L152.778 253.048C151.786 252.248 150.682 251.816 149.626 251.816C148.634 251.816 148.01 252.344 148.01 253C148.01 253.8 148.682 254.056 150.378 254.44C152.746 254.968 154.314 255.672 154.314 257.704C154.314 259.8 152.714 261.192 150.042 261.192ZM163.791 250.008H166.143V261H163.791V256.456H158.783V261H156.415V250.008H158.783V254.328H163.791V250.008ZM168.947 261V250.008H171.315V261H168.947ZM174.103 261V250.008H179.047C181.447 250.008 183.191 251.544 183.191 253.72C183.191 255.896 181.447 257.432 179.047 257.432H176.471V261H174.103ZM176.471 255.272H178.807C179.975 255.272 180.775 254.664 180.775 253.72C180.775 252.776 179.975 252.168 178.807 252.168H176.471V255.272Z" fill="white"/>
<path d="M354.372 203.136H348.276V205.328H353.812V207.456H348.276V209.872H354.372V212H345.908V201.008H354.372V203.136ZM364.626 201.008H367.282L362.802 212H360.162L355.682 201.008H358.338L361.49 208.752L364.626 201.008ZM377.559 203.136H371.463V205.328H376.999V207.456H371.463V209.872H377.559V212H369.095V201.008H377.559V203.136ZM379.845 212V201.008H382.213L387.509 208.112V201.008H389.877V212H387.509L382.213 204.896V212H379.845ZM395.202 212V203.136H391.778V201.008H400.994V203.136H397.554V212H395.202ZM309.722 224.72C309.722 226.448 308.634 227.76 306.986 228.24L309.626 232H306.938L304.426 228.432H303.002V232H300.634V221.008H305.578C307.978 221.008 309.722 222.544 309.722 224.72ZM303.002 223.168V226.272H305.338C306.506 226.272 307.306 225.664 307.306 224.72C307.306 223.776 306.506 223.168 305.338 223.168H303.002ZM320.364 223.136H314.268V225.328H319.804V227.456H314.268V229.872H320.364V232H311.9V221.008H320.364V223.136ZM327.482 227.664V225.824H332.33V230.352C331.242 231.504 329.53 232.192 327.898 232.192C324.698 232.192 321.994 229.584 321.994 226.496C321.994 223.408 324.698 220.816 327.898 220.816C329.53 220.816 331.242 221.504 332.33 222.656L330.618 224.192C329.962 223.44 328.906 222.96 327.898 222.96C326.01 222.96 324.426 224.592 324.426 226.496C324.426 228.416 326.01 230.048 327.898 230.048C328.634 230.048 329.418 229.792 330.026 229.344V227.664H327.482ZM334.681 232V221.008H337.049V232H334.681ZM343.901 232.192C341.981 232.192 340.301 231.552 339.021 230.368L340.365 228.752C341.405 229.648 342.589 230.192 343.981 230.192C345.181 230.192 345.789 229.648 345.789 228.96C345.789 228.176 345.149 227.936 343.469 227.552C341.149 227.024 339.485 226.368 339.485 224.24C339.485 222.208 341.149 220.816 343.565 220.816C345.357 220.816 346.733 221.376 347.869 222.336L346.637 224.048C345.645 223.248 344.541 222.816 343.485 222.816C342.493 222.816 341.869 223.344 341.869 224C341.869 224.8 342.541 225.056 344.237 225.44C346.605 225.968 348.173 226.672 348.173 228.704C348.173 230.8 346.573 232.192 343.901 232.192ZM352.819 232V223.136H349.395V221.008H358.611V223.136H355.171V232H352.819ZM369.582 224.72C369.582 226.448 368.494 227.76 366.846 228.24L369.486 232H366.798L364.286 228.432H362.862V232H360.494V221.008H365.438C367.838 221.008 369.582 222.544 369.582 224.72ZM362.862 223.168V226.272H365.198C366.366 226.272 367.166 225.664 367.166 224.72C367.166 223.776 366.366 223.168 365.198 223.168H362.862ZM379.711 232L378.943 230.112H374.175L373.407 232H370.767L375.247 221.008H377.887L382.367 232H379.711ZM374.927 228.272H378.191L376.559 224.256L374.927 228.272ZM386.709 232V223.136H383.285V221.008H392.501V223.136H389.061V232H386.709ZM402.336 232L401.568 230.112H396.8L396.032 232H393.392L397.872 221.008H400.512L404.992 232H402.336ZM397.552 228.272H400.816L399.184 224.256L397.552 228.272ZM409.334 232V223.136H405.91V221.008H415.126V223.136H411.686V232H409.334ZM417.009 232V221.008H419.377V232H417.009ZM427.365 232.192C424.197 232.192 421.509 229.584 421.509 226.496C421.509 223.408 424.197 220.816 427.365 220.816C430.533 220.816 433.189 223.408 433.189 226.496C433.189 229.584 430.533 232.192 427.365 232.192ZM427.365 230.048C429.205 230.048 430.773 228.416 430.773 226.496C430.773 224.592 429.205 222.96 427.365 222.96C425.509 222.96 423.941 224.592 423.941 226.496C423.941 228.416 425.509 230.048 427.365 230.048ZM435.337 232V221.008H437.705L443.001 228.112V221.008H445.369V232H443.001L437.705 224.896V232H435.337Z" fill="white"/>
<path d="M369 10H278V52" stroke="#8D8D8D"/>
</svg>
