<svg width="327" height="551" viewBox="0 0 327 551" fill="none" xmlns="http://www.w3.org/2000/svg">
<path d="M190.412 530.241C192.289 530.241 194.005 530.637 195.56 531.429C197.115 532.192 198.347 533.307 199.256 534.773C200.165 536.211 200.62 537.897 200.62 539.833C200.62 541.857 200.107 543.676 199.08 545.289C198.083 546.873 196.704 548.105 194.944 548.985C193.184 549.865 191.219 550.305 189.048 550.305C184.795 550.305 181.583 548.941 179.412 546.213C177.271 543.456 176.2 539.775 176.2 535.169C176.2 532.06 176.772 529.288 177.916 526.853C179.089 524.389 180.717 522.468 182.8 521.089C184.912 519.711 187.347 519.021 190.104 519.021C193.565 519.021 196.645 520.107 199.344 522.277L196.264 527.205C195.267 526.384 194.284 525.768 193.316 525.357C192.377 524.947 191.307 524.741 190.104 524.741C188.139 524.741 186.525 525.504 185.264 527.029C184.003 528.525 183.225 530.564 182.932 533.145C183.871 532.236 185 531.532 186.32 531.033C187.64 530.505 189.004 530.241 190.412 530.241ZM188.696 544.805C190.251 544.805 191.512 544.351 192.48 543.441C193.448 542.503 193.932 541.403 193.932 540.141C193.932 538.733 193.404 537.619 192.348 536.797C191.321 535.947 190.045 535.521 188.52 535.521C187.288 535.521 186.188 535.844 185.22 536.489C184.281 537.105 183.577 537.956 183.108 539.041C183.401 540.948 183.988 542.385 184.868 543.353C185.777 544.321 187.053 544.805 188.696 544.805ZM210.013 550.305C208.869 550.305 207.901 549.909 207.109 549.117C206.317 548.325 205.921 547.357 205.921 546.213C205.921 545.157 206.317 544.248 207.109 543.485C207.901 542.693 208.869 542.297 210.013 542.297C211.069 542.297 211.979 542.693 212.741 543.485C213.533 544.248 213.929 545.157 213.929 546.213C213.929 547.328 213.548 548.296 212.785 549.117C212.023 549.909 211.099 550.305 210.013 550.305ZM230.861 550.349C226.168 550.349 222.267 548.795 219.157 545.685L222.985 541.109C225.508 543.485 228.148 544.673 230.905 544.673C232.577 544.673 233.912 544.233 234.909 543.353C235.907 542.473 236.405 541.373 236.405 540.053C236.405 538.733 235.907 537.677 234.909 536.885C233.912 536.064 232.592 535.653 230.949 535.653C228.779 535.653 226.828 536.313 225.097 537.633L220.741 535.873L221.181 519.549H241.245V525.401H227.165L226.989 532.089C228.749 530.857 230.715 530.241 232.885 530.241C234.704 530.241 236.376 530.623 237.901 531.385C239.427 532.148 240.629 533.248 241.509 534.685C242.419 536.123 242.873 537.839 242.873 539.833C242.873 541.945 242.375 543.793 241.377 545.377C240.38 546.961 238.972 548.193 237.153 549.073C235.335 549.924 233.237 550.349 230.861 550.349ZM254.757 534.729C253.29 534.729 251.985 534.392 250.841 533.717C249.697 533.043 248.802 532.119 248.157 530.945C247.541 529.772 247.233 528.467 247.233 527.029C247.233 525.592 247.541 524.287 248.157 523.113C248.802 521.911 249.697 520.972 250.841 520.297C251.985 519.593 253.29 519.241 254.757 519.241C256.253 519.241 257.573 519.593 258.717 520.297C259.861 520.972 260.741 521.896 261.357 523.069C262.002 524.243 262.325 525.548 262.325 526.985C262.325 528.423 262.002 529.743 261.357 530.945C260.711 532.119 259.817 533.043 258.673 533.717C257.529 534.392 256.223 534.729 254.757 534.729ZM272.181 519.549H277.285L256.253 549.777H251.193L272.181 519.549ZM254.757 530.945C255.695 530.945 256.458 530.593 257.045 529.889C257.661 529.156 257.969 528.188 257.969 526.985C257.969 525.841 257.661 524.903 257.045 524.169C256.458 523.436 255.695 523.069 254.757 523.069C253.818 523.069 253.041 523.436 252.425 524.169C251.838 524.873 251.545 525.812 251.545 526.985C251.545 528.159 251.853 529.112 252.469 529.845C253.085 530.579 253.847 530.945 254.757 530.945ZM273.633 550.261C272.166 550.261 270.861 549.924 269.717 549.249C268.573 548.545 267.678 547.607 267.032 546.433C266.387 545.26 266.065 543.955 266.065 542.517C266.065 541.08 266.387 539.775 267.032 538.601C267.678 537.428 268.573 536.504 269.717 535.829C270.861 535.125 272.166 534.773 273.633 534.773C275.129 534.773 276.434 535.125 277.549 535.829C278.693 536.504 279.573 537.428 280.189 538.601C280.834 539.775 281.157 541.08 281.157 542.517C281.157 543.955 280.834 545.275 280.189 546.477C279.543 547.651 278.649 548.575 277.505 549.249C276.39 549.924 275.099 550.261 273.633 550.261ZM273.633 546.433C274.571 546.433 275.334 546.081 275.921 545.377C276.537 544.644 276.845 543.691 276.845 542.517C276.845 541.344 276.537 540.391 275.921 539.657C275.305 538.924 274.542 538.557 273.633 538.557C272.665 538.557 271.887 538.924 271.301 539.657C270.714 540.361 270.421 541.315 270.421 542.517C270.421 543.661 270.714 544.6 271.301 545.333C271.917 546.067 272.694 546.433 273.633 546.433Z" fill="#2D1762"/>
<path d="M176.46 496.46H174.32V495.13H180.08V496.46H177.93V502H176.46V496.46ZM186.937 497.45C186.937 497.983 186.78 498.447 186.467 498.84C186.16 499.227 185.747 499.497 185.227 499.65L186.877 502H185.197L183.627 499.77H182.737V502H181.257V495.13H184.347C184.84 495.13 185.283 495.23 185.677 495.43C186.07 495.623 186.377 495.897 186.597 496.25C186.823 496.603 186.937 497.003 186.937 497.45ZM182.737 498.42H184.197C184.563 498.42 184.86 498.333 185.087 498.16C185.313 497.98 185.427 497.743 185.427 497.45C185.427 497.157 185.313 496.923 185.087 496.75C184.86 496.57 184.563 496.48 184.197 496.48H182.737V498.42ZM192.788 500.82H189.808L189.328 502H187.678L190.478 495.13H192.128L194.928 502H193.268L192.788 500.82ZM192.318 499.67L191.298 497.16L190.278 499.67H192.318ZM196.052 495.13H197.532V502H196.052V495.13ZM199.274 495.13H200.754L204.064 499.57V495.13H205.544V502H204.064L200.754 497.56V502H199.274V495.13ZM207.282 495.13H208.762V502H207.282V495.13ZM210.505 495.13H211.985L215.295 499.57V495.13H216.775V502H215.295L211.985 497.56V502H210.505V495.13ZM221.533 498.14H224.563V500.97C224.223 501.33 223.803 501.613 223.303 501.82C222.809 502.02 222.306 502.12 221.793 502.12C221.139 502.12 220.529 501.96 219.963 501.64C219.396 501.313 218.943 500.877 218.603 500.33C218.269 499.783 218.103 499.193 218.103 498.56C218.103 497.927 218.269 497.34 218.603 496.8C218.943 496.253 219.396 495.82 219.963 495.5C220.529 495.173 221.139 495.01 221.793 495.01C222.306 495.01 222.809 495.113 223.303 495.32C223.803 495.52 224.223 495.8 224.563 496.16L223.493 497.12C223.286 496.887 223.029 496.7 222.723 496.56C222.416 496.42 222.106 496.35 221.793 496.35C221.406 496.35 221.046 496.453 220.713 496.66C220.379 496.86 220.113 497.13 219.913 497.47C219.719 497.803 219.623 498.167 219.623 498.56C219.623 498.953 219.719 499.32 219.913 499.66C220.113 500 220.379 500.273 220.713 500.48C221.046 500.68 221.406 500.78 221.793 500.78C222.026 500.78 222.259 500.743 222.493 500.67C222.726 500.59 222.936 500.48 223.123 500.34V499.29H221.533V498.14Z" fill="#2D1762"/>
<path d="M1.804 544.497L12.936 535.873C14.696 534.495 15.928 533.263 16.632 532.177C17.336 531.092 17.688 530.007 17.688 528.921C17.688 527.719 17.248 526.751 16.368 526.017C15.488 525.284 14.4027 524.917 13.112 524.917C11.704 524.917 10.4133 525.255 9.24 525.929C8.06667 526.604 6.89333 527.601 5.72 528.921L1.584 524.917C4.69333 520.987 8.59467 519.021 13.288 519.021C15.4 519.021 17.292 519.432 18.964 520.253C20.6653 521.075 21.9853 522.219 22.924 523.685C23.892 525.123 24.376 526.78 24.376 528.657C24.376 530.74 23.848 532.632 22.792 534.333C21.736 536.005 19.9173 537.78 17.336 539.657L11.836 543.925H24.64V549.777H1.804V544.497ZM43.5744 543.617H28.7904L28.1744 538.601L42.2104 519.593H50.0424V538.161H54.0464V543.617H50.0424V549.777H43.5744V543.617ZM43.5744 538.161V526.457L34.9944 538.161H43.5744ZM63.0407 550.305C61.8967 550.305 60.9287 549.909 60.1367 549.117C59.3447 548.325 58.9487 547.357 58.9487 546.213C58.9487 545.157 59.3447 544.248 60.1367 543.485C60.9287 542.693 61.8967 542.297 63.0407 542.297C64.0967 542.297 65.006 542.693 65.7687 543.485C66.5607 544.248 66.9567 545.157 66.9567 546.213C66.9567 547.328 66.5753 548.296 65.8127 549.117C65.05 549.909 64.126 550.305 63.0407 550.305ZM86.8808 530.241C88.7581 530.241 90.4741 530.637 92.0288 531.429C93.5834 532.192 94.8154 533.307 95.7248 534.773C96.6341 536.211 97.0888 537.897 97.0888 539.833C97.0888 541.857 96.5754 543.676 95.5488 545.289C94.5514 546.873 93.1728 548.105 91.4128 548.985C89.6528 549.865 87.6874 550.305 85.5168 550.305C81.2634 550.305 78.0514 548.941 75.8808 546.213C73.7394 543.456 72.6688 539.775 72.6688 535.169C72.6688 532.06 73.2408 529.288 74.3848 526.853C75.5581 524.389 77.1861 522.468 79.2688 521.089C81.3808 519.711 83.8154 519.021 86.5728 519.021C90.0341 519.021 93.1141 520.107 95.8128 522.277L92.7328 527.205C91.7354 526.384 90.7528 525.768 89.7848 525.357C88.8461 524.947 87.7754 524.741 86.5728 524.741C84.6074 524.741 82.9941 525.504 81.7328 527.029C80.4714 528.525 79.6941 530.564 79.4008 533.145C80.3394 532.236 81.4688 531.532 82.7888 531.033C84.1088 530.505 85.4728 530.241 86.8808 530.241ZM85.1648 544.805C86.7194 544.805 87.9808 544.351 88.9488 543.441C89.9168 542.503 90.4008 541.403 90.4008 540.141C90.4008 538.733 89.8728 537.619 88.8168 536.797C87.7901 535.947 86.5141 535.521 84.9888 535.521C83.7568 535.521 82.6568 535.844 81.6888 536.489C80.7501 537.105 80.0461 537.956 79.5768 539.041C79.8701 540.948 80.4568 542.385 81.3368 543.353C82.2461 544.321 83.5221 544.805 85.1648 544.805ZM108.858 534.729C107.391 534.729 106.086 534.392 104.942 533.717C103.798 533.043 102.903 532.119 102.258 530.945C101.642 529.772 101.334 528.467 101.334 527.029C101.334 525.592 101.642 524.287 102.258 523.113C102.903 521.911 103.798 520.972 104.942 520.297C106.086 519.593 107.391 519.241 108.858 519.241C110.354 519.241 111.674 519.593 112.818 520.297C113.962 520.972 114.842 521.896 115.458 523.069C116.103 524.243 116.426 525.548 116.426 526.985C116.426 528.423 116.103 529.743 115.458 530.945C114.813 532.119 113.918 533.043 112.774 533.717C111.63 534.392 110.325 534.729 108.858 534.729ZM126.282 519.549H131.386L110.354 549.777H105.294L126.282 519.549ZM108.858 530.945C109.797 530.945 110.559 530.593 111.146 529.889C111.762 529.156 112.07 528.188 112.07 526.985C112.07 525.841 111.762 524.903 111.146 524.169C110.559 523.436 109.797 523.069 108.858 523.069C107.919 523.069 107.142 523.436 106.526 524.169C105.939 524.873 105.646 525.812 105.646 526.985C105.646 528.159 105.954 529.112 106.57 529.845C107.186 530.579 107.949 530.945 108.858 530.945ZM127.734 550.261C126.267 550.261 124.962 549.924 123.818 549.249C122.674 548.545 121.779 547.607 121.134 546.433C120.489 545.26 120.166 543.955 120.166 542.517C120.166 541.08 120.489 539.775 121.134 538.601C121.779 537.428 122.674 536.504 123.818 535.829C124.962 535.125 126.267 534.773 127.734 534.773C129.23 534.773 130.535 535.125 131.65 535.829C132.794 536.504 133.674 537.428 134.29 538.601C134.935 539.775 135.258 541.08 135.258 542.517C135.258 543.955 134.935 545.275 134.29 546.477C133.645 547.651 132.75 548.575 131.606 549.249C130.491 549.924 129.201 550.261 127.734 550.261ZM127.734 546.433C128.673 546.433 129.435 546.081 130.022 545.377C130.638 544.644 130.946 543.691 130.946 542.517C130.946 541.344 130.638 540.391 130.022 539.657C129.406 538.924 128.643 538.557 127.734 538.557C126.766 538.557 125.989 538.924 125.402 539.657C124.815 540.361 124.522 541.315 124.522 542.517C124.522 543.661 124.815 544.6 125.402 545.333C126.018 546.067 126.795 546.433 127.734 546.433Z" fill="#AB9B32"/>
<path d="M2.35 496.46V497.83H5.81V499.16H2.35V500.67H6.16V502H0.87V495.13H6.16V496.46H2.35ZM14.2288 495.13L11.4288 502H9.77875L6.97875 495.13H8.63875L10.6088 499.97L12.5688 495.13H14.2288ZM16.8422 496.46V497.83H20.3022V499.16H16.8422V500.67H20.6522V502H15.3622V495.13H20.6522V496.46H16.8422ZM22.0809 495.13H23.5609L26.8709 499.57V495.13H28.3509V502H26.8709L23.5609 497.56V502H22.0809V495.13ZM31.6788 496.46H29.5388V495.13H35.2988V496.46H33.1488V502H31.6788V496.46ZM44.8801 497.45C44.8801 497.983 44.7234 498.447 44.4101 498.84C44.1034 499.227 43.6901 499.497 43.1701 499.65L44.8201 502H43.1401L41.5701 499.77H40.6801V502H39.2001V495.13H42.2901C42.7834 495.13 43.2267 495.23 43.6201 495.43C44.0134 495.623 44.3201 495.897 44.5401 496.25C44.7667 496.603 44.8801 497.003 44.8801 497.45ZM40.6801 498.42H42.1401C42.5067 498.42 42.8034 498.333 43.0301 498.16C43.2567 497.98 43.3701 497.743 43.3701 497.45C43.3701 497.157 43.2567 496.923 43.0301 496.75C42.8034 496.57 42.5067 496.48 42.1401 496.48H40.6801V498.42ZM47.7211 496.46V497.83H51.1811V499.16H47.7211V500.67H51.5311V502H46.2411V495.13H51.5311V496.46H47.7211ZM55.9798 498.14H59.0098V500.97C58.6698 501.33 58.2498 501.613 57.7498 501.82C57.2565 502.02 56.7532 502.12 56.2398 502.12C55.5865 502.12 54.9765 501.96 54.4098 501.64C53.8432 501.313 53.3898 500.877 53.0498 500.33C52.7165 499.783 52.5498 499.193 52.5498 498.56C52.5498 497.927 52.7165 497.34 53.0498 496.8C53.3898 496.253 53.8432 495.82 54.4098 495.5C54.9765 495.173 55.5865 495.01 56.2398 495.01C56.7532 495.01 57.2565 495.113 57.7498 495.32C58.2498 495.52 58.6698 495.8 59.0098 496.16L57.9398 497.12C57.7332 496.887 57.4765 496.7 57.1698 496.56C56.8632 496.42 56.5532 496.35 56.2398 496.35C55.8532 496.35 55.4932 496.453 55.1598 496.66C54.8265 496.86 54.5598 497.13 54.3598 497.47C54.1665 497.803 54.0698 498.167 54.0698 498.56C54.0698 498.953 54.1665 499.32 54.3598 499.66C54.5598 500 54.8265 500.273 55.1598 500.48C55.4932 500.68 55.8532 500.78 56.2398 500.78C56.4732 500.78 56.7065 500.743 56.9398 500.67C57.1732 500.59 57.3832 500.48 57.5698 500.34V499.29H55.9798V498.14ZM60.4794 495.13H61.9594V502H60.4794V495.13ZM66.242 502.12C65.642 502.12 65.082 502.023 64.562 501.83C64.0487 501.637 63.592 501.353 63.192 500.98L64.032 499.97C64.7254 500.57 65.4787 500.87 66.292 500.87C66.652 500.87 66.9287 500.8 67.122 500.66C67.322 500.513 67.422 500.327 67.422 500.1C67.422 499.94 67.3754 499.81 67.282 499.71C67.1887 499.61 67.042 499.527 66.842 499.46C66.6487 499.387 66.3587 499.307 65.972 499.22C65.4187 499.093 64.9654 498.957 64.612 498.81C64.2654 498.657 63.9887 498.447 63.782 498.18C63.582 497.913 63.482 497.57 63.482 497.15C63.482 496.73 63.5887 496.36 63.802 496.04C64.0154 495.713 64.3154 495.46 64.702 495.28C65.0887 495.1 65.532 495.01 66.032 495.01C67.0787 495.01 67.9754 495.327 68.722 495.96L67.952 497.03C67.6387 496.777 67.312 496.587 66.972 496.46C66.6387 496.327 66.3087 496.26 65.982 496.26C65.682 496.26 65.4387 496.33 65.252 496.47C65.0654 496.61 64.972 496.787 64.972 497C64.972 497.167 65.0187 497.3 65.112 497.4C65.212 497.5 65.362 497.587 65.562 497.66C65.7687 497.733 66.0654 497.813 66.452 497.9C66.9987 498.02 67.4454 498.16 67.792 498.32C68.1454 498.473 68.4187 498.68 68.612 498.94C68.812 499.2 68.912 499.533 68.912 499.94C68.912 500.373 68.8054 500.757 68.592 501.09C68.3787 501.417 68.0687 501.67 67.662 501.85C67.262 502.03 66.7887 502.12 66.242 502.12ZM71.8155 496.46H69.6755V495.13H75.4355V496.46H73.2855V502H71.8155V496.46ZM82.2922 497.45C82.2922 497.983 82.1355 498.447 81.8222 498.84C81.5155 499.227 81.1022 499.497 80.5822 499.65L82.2322 502H80.5522L78.9822 499.77H78.0922V502H76.6122V495.13H79.7022C80.1955 495.13 80.6389 495.23 81.0322 495.43C81.4255 495.623 81.7322 495.897 81.9522 496.25C82.1789 496.603 82.2922 497.003 82.2922 497.45ZM78.0922 498.42H79.5522C79.9189 498.42 80.2155 498.333 80.4422 498.16C80.6689 497.98 80.7822 497.743 80.7822 497.45C80.7822 497.157 80.6689 496.923 80.4422 496.75C80.2155 496.57 79.9189 496.48 79.5522 496.48H78.0922V498.42ZM88.1432 500.82H85.1632L84.6832 502H83.0332L85.8332 495.13H87.4832L90.2832 502H88.6232L88.1432 500.82ZM87.6732 499.67L86.6532 497.16L85.6332 499.67H87.6732ZM92.9971 496.46H90.8571V495.13H96.6171V496.46H94.4671V502H92.9971V496.46ZM97.7938 495.13H99.2738V502H97.7938V495.13ZM104.266 502.12C103.62 502.12 103.013 501.96 102.446 501.64C101.886 501.313 101.44 500.877 101.106 500.33C100.773 499.783 100.606 499.193 100.606 498.56C100.606 497.927 100.773 497.34 101.106 496.8C101.44 496.253 101.886 495.82 102.446 495.5C103.013 495.173 103.62 495.01 104.266 495.01C104.913 495.01 105.516 495.173 106.076 495.5C106.636 495.82 107.08 496.253 107.406 496.8C107.74 497.34 107.906 497.927 107.906 498.56C107.906 499.193 107.74 499.783 107.406 500.33C107.08 500.877 106.636 501.313 106.076 501.64C105.516 501.96 104.913 502.12 104.266 502.12ZM104.266 500.78C104.64 500.78 104.99 500.68 105.316 500.48C105.65 500.273 105.913 500 106.106 499.66C106.3 499.32 106.396 498.953 106.396 498.56C106.396 498.173 106.3 497.81 106.106 497.47C105.913 497.13 105.65 496.86 105.316 496.66C104.99 496.453 104.64 496.35 104.266 496.35C103.886 496.35 103.533 496.453 103.206 496.66C102.88 496.86 102.616 497.13 102.416 497.47C102.223 497.81 102.126 498.173 102.126 498.56C102.126 498.953 102.223 499.32 102.416 499.66C102.61 500 102.87 500.273 103.196 500.48C103.53 500.68 103.886 500.78 104.266 500.78ZM109.249 495.13H110.729L114.039 499.57V495.13H115.519V502H114.039L110.729 497.56V502H109.249V495.13Z" fill="#2D1762"/>
<path d="M175.804 450.437L186.936 441.813C188.696 440.434 189.928 439.202 190.632 438.117C191.336 437.031 191.688 435.946 191.688 434.861C191.688 433.658 191.248 432.69 190.368 431.957C189.488 431.223 188.403 430.857 187.112 430.857C185.704 430.857 184.413 431.194 183.24 431.869C182.067 432.543 180.893 433.541 179.72 434.861L175.584 430.857C178.693 426.926 182.595 424.961 187.288 424.961C189.4 424.961 191.292 425.371 192.964 426.193C194.665 427.014 195.985 428.158 196.924 429.625C197.892 431.062 198.376 432.719 198.376 434.597C198.376 436.679 197.848 438.571 196.792 440.273C195.736 441.945 193.917 443.719 191.336 445.597L185.836 449.865H198.64V455.717H175.804V450.437ZM217.31 436.181C219.188 436.181 220.904 436.577 222.458 437.369C224.013 438.131 225.245 439.246 226.154 440.713C227.064 442.15 227.518 443.837 227.518 445.773C227.518 447.797 227.005 449.615 225.978 451.229C224.981 452.813 223.602 454.045 221.842 454.925C220.082 455.805 218.117 456.245 215.946 456.245C211.693 456.245 208.481 454.881 206.31 452.153C204.169 449.395 203.098 445.714 203.098 441.109C203.098 437.999 203.67 435.227 204.814 432.793C205.988 430.329 207.616 428.407 209.698 427.029C211.81 425.65 214.245 424.961 217.002 424.961C220.464 424.961 223.544 426.046 226.242 428.217L223.162 433.145C222.165 432.323 221.182 431.707 220.214 431.297C219.276 430.886 218.205 430.681 217.002 430.681C215.037 430.681 213.424 431.443 212.162 432.969C210.901 434.465 210.124 436.503 209.83 439.085C210.769 438.175 211.898 437.471 213.218 436.973C214.538 436.445 215.902 436.181 217.31 436.181ZM215.594 450.745C217.149 450.745 218.41 450.29 219.378 449.381C220.346 448.442 220.83 447.342 220.83 446.081C220.83 444.673 220.302 443.558 219.246 442.737C218.22 441.886 216.944 441.461 215.418 441.461C214.186 441.461 213.086 441.783 212.118 442.429C211.18 443.045 210.476 443.895 210.006 444.981C210.3 446.887 210.886 448.325 211.766 449.293C212.676 450.261 213.952 450.745 215.594 450.745ZM236.912 456.245C235.768 456.245 234.8 455.849 234.008 455.057C233.216 454.265 232.82 453.297 232.82 452.153C232.82 451.097 233.216 450.187 234.008 449.425C234.8 448.633 235.768 448.237 236.912 448.237C237.968 448.237 238.877 448.633 239.64 449.425C240.432 450.187 240.828 451.097 240.828 452.153C240.828 453.267 240.446 454.235 239.684 455.057C238.921 455.849 237.997 456.245 236.912 456.245ZM257.716 424.961C261.969 424.961 265.167 426.339 267.308 429.097C269.479 431.825 270.564 435.491 270.564 440.097C270.564 443.206 269.977 445.993 268.804 448.457C267.66 450.891 266.032 452.798 263.92 454.177C261.837 455.555 259.417 456.245 256.66 456.245C253.199 456.245 250.119 455.159 247.42 452.989L250.5 448.061C251.497 448.882 252.465 449.498 253.404 449.909C254.372 450.319 255.457 450.525 256.66 450.525C258.625 450.525 260.239 449.777 261.5 448.281C262.761 446.755 263.539 444.702 263.832 442.121C262.893 443.03 261.764 443.749 260.444 444.277C259.124 444.775 257.76 445.025 256.352 445.025C254.475 445.025 252.759 444.643 251.204 443.881C249.649 443.089 248.417 441.974 247.508 440.537C246.599 439.07 246.144 437.369 246.144 435.433C246.144 433.409 246.643 431.605 247.64 430.021C248.667 428.407 250.06 427.161 251.82 426.281C253.58 425.401 255.545 424.961 257.716 424.961ZM258.244 439.745C259.476 439.745 260.561 439.437 261.5 438.821C262.468 438.175 263.187 437.31 263.656 436.225C263.363 434.318 262.761 432.881 261.852 431.913C260.972 430.945 259.711 430.461 258.068 430.461C256.513 430.461 255.252 430.93 254.284 431.869C253.316 432.778 252.832 433.863 252.832 435.125C252.832 436.533 253.345 437.662 254.372 438.513C255.428 439.334 256.719 439.745 258.244 439.745ZM282.729 440.669C281.262 440.669 279.957 440.331 278.813 439.657C277.669 438.982 276.774 438.058 276.129 436.885C275.513 435.711 275.205 434.406 275.205 432.969C275.205 431.531 275.513 430.226 276.129 429.053C276.774 427.85 277.669 426.911 278.813 426.237C279.957 425.533 281.262 425.181 282.729 425.181C284.225 425.181 285.545 425.533 286.689 426.237C287.833 426.911 288.713 427.835 289.329 429.009C289.974 430.182 290.297 431.487 290.297 432.925C290.297 434.362 289.974 435.682 289.329 436.885C288.684 438.058 287.789 438.982 286.645 439.657C285.501 440.331 284.196 440.669 282.729 440.669ZM300.153 425.489H305.257L284.225 455.717H279.165L300.153 425.489ZM282.729 436.885C283.668 436.885 284.43 436.533 285.017 435.829C285.633 435.095 285.941 434.127 285.941 432.925C285.941 431.781 285.633 430.842 285.017 430.109C284.43 429.375 283.668 429.009 282.729 429.009C281.79 429.009 281.013 429.375 280.397 430.109C279.81 430.813 279.517 431.751 279.517 432.925C279.517 434.098 279.825 435.051 280.441 435.785C281.057 436.518 281.82 436.885 282.729 436.885ZM301.605 456.201C300.138 456.201 298.833 455.863 297.689 455.189C296.545 454.485 295.65 453.546 295.005 452.373C294.36 451.199 294.037 449.894 294.037 448.457C294.037 447.019 294.36 445.714 295.005 444.541C295.65 443.367 296.545 442.443 297.689 441.769C298.833 441.065 300.138 440.713 301.605 440.713C303.101 440.713 304.406 441.065 305.521 441.769C306.665 442.443 307.545 443.367 308.161 444.541C308.806 445.714 309.129 447.019 309.129 448.457C309.129 449.894 308.806 451.214 308.161 452.417C307.516 453.59 306.621 454.514 305.477 455.189C304.362 455.863 303.072 456.201 301.605 456.201ZM301.605 452.373C302.544 452.373 303.306 452.021 303.893 451.317C304.509 450.583 304.817 449.63 304.817 448.457C304.817 447.283 304.509 446.33 303.893 445.597C303.277 444.863 302.514 444.497 301.605 444.497C300.637 444.497 299.86 444.863 299.273 445.597C298.686 446.301 298.393 447.254 298.393 448.457C298.393 449.601 298.686 450.539 299.273 451.273C299.889 452.006 300.666 452.373 301.605 452.373Z" fill="#477076"/>
<path d="M174.87 403.13H176.35L178.47 407.01L180.6 403.13H182.07V410H180.6V405.72L178.47 409.6L176.35 405.72V410H174.87V403.13ZM185.295 404.46V405.83H188.755V407.16H185.295V408.67H189.105V410H183.815V403.13H189.105V404.46H185.295ZM190.534 403.13H192.014L194.134 407.01L196.264 403.13H197.734V410H196.264V405.72L194.134 409.6L192.014 405.72V410H190.534V403.13ZM199.479 403.13H202.959C203.366 403.13 203.726 403.203 204.039 403.35C204.359 403.497 204.606 403.703 204.779 403.97C204.959 404.23 205.049 404.523 205.049 404.85C205.049 405.537 204.729 406.047 204.089 406.38C204.489 406.56 204.799 406.803 205.019 407.11C205.239 407.417 205.349 407.76 205.349 408.14C205.349 408.5 205.253 408.823 205.059 409.11C204.866 409.39 204.599 409.61 204.259 409.77C203.919 409.923 203.533 410 203.099 410H199.479V403.13ZM202.599 405.9C202.873 405.9 203.096 405.83 203.269 405.69C203.449 405.543 203.539 405.36 203.539 405.14C203.539 404.927 203.449 404.75 203.269 404.61C203.096 404.463 202.873 404.39 202.599 404.39H200.949V405.9H202.599ZM202.819 408.74C203.119 408.74 203.363 408.663 203.549 408.51C203.743 408.35 203.839 408.147 203.839 407.9C203.839 407.653 203.743 407.453 203.549 407.3C203.363 407.14 203.119 407.06 202.819 407.06H200.949V408.74H202.819ZM208.176 404.46V405.83H211.636V407.16H208.176V408.67H211.986V410H206.696V403.13H211.986V404.46H208.176ZM219.095 405.45C219.095 405.983 218.938 406.447 218.625 406.84C218.318 407.227 217.905 407.497 217.385 407.65L219.035 410H217.355L215.785 407.77H214.895V410H213.415V403.13H216.505C216.998 403.13 217.442 403.23 217.835 403.43C218.228 403.623 218.535 403.897 218.755 404.25C218.982 404.603 219.095 405.003 219.095 405.45ZM214.895 406.42H216.355C216.722 406.42 217.018 406.333 217.245 406.16C217.472 405.98 217.585 405.743 217.585 405.45C217.585 405.157 217.472 404.923 217.245 404.75C217.018 404.57 216.722 404.48 216.355 404.48H214.895V406.42ZM222.996 410.12C222.396 410.12 221.836 410.023 221.316 409.83C220.803 409.637 220.346 409.353 219.946 408.98L220.786 407.97C221.479 408.57 222.233 408.87 223.046 408.87C223.406 408.87 223.683 408.8 223.876 408.66C224.076 408.513 224.176 408.327 224.176 408.1C224.176 407.94 224.129 407.81 224.036 407.71C223.943 407.61 223.796 407.527 223.596 407.46C223.403 407.387 223.113 407.307 222.726 407.22C222.173 407.093 221.719 406.957 221.366 406.81C221.019 406.657 220.743 406.447 220.536 406.18C220.336 405.913 220.236 405.57 220.236 405.15C220.236 404.73 220.343 404.36 220.556 404.04C220.769 403.713 221.069 403.46 221.456 403.28C221.843 403.1 222.286 403.01 222.786 403.01C223.833 403.01 224.729 403.327 225.476 403.96L224.706 405.03C224.393 404.777 224.066 404.587 223.726 404.46C223.393 404.327 223.063 404.26 222.736 404.26C222.436 404.26 222.193 404.33 222.006 404.47C221.819 404.61 221.726 404.787 221.726 405C221.726 405.167 221.773 405.3 221.866 405.4C221.966 405.5 222.116 405.587 222.316 405.66C222.523 405.733 222.819 405.813 223.206 405.9C223.753 406.02 224.199 406.16 224.546 406.32C224.899 406.473 225.173 406.68 225.366 406.94C225.566 407.2 225.666 407.533 225.666 407.94C225.666 408.373 225.559 408.757 225.346 409.09C225.133 409.417 224.823 409.67 224.416 409.85C224.016 410.03 223.543 410.12 222.996 410.12ZM233.059 403.13V410H231.589V407.16H228.459V410H226.979V403.13H228.459V405.83H231.589V403.13H233.059ZM234.811 403.13H236.291V410H234.811V403.13ZM238.034 403.13H241.124C241.617 403.13 242.061 403.23 242.454 403.43C242.847 403.623 243.154 403.897 243.374 404.25C243.601 404.603 243.714 405.003 243.714 405.45C243.714 405.897 243.601 406.297 243.374 406.65C243.154 407.003 242.847 407.28 242.454 407.48C242.061 407.673 241.617 407.77 241.124 407.77H239.514V410H238.034V403.13ZM240.974 406.42C241.341 406.42 241.637 406.333 241.864 406.16C242.091 405.98 242.204 405.743 242.204 405.45C242.204 405.157 242.091 404.923 241.864 404.75C241.637 404.57 241.341 404.48 240.974 404.48H239.514V406.42H240.974Z" fill="#2D1762"/>
<path d="M16.676 449.557H1.892L1.276 444.541L15.312 425.533H23.144V444.101H27.148V449.557H23.144V455.717H16.676V449.557ZM16.676 444.101V432.397L8.096 444.101H16.676ZM37.3302 432.925L32.1822 436.137L29.5422 431.561L38.6062 425.489H43.7982V455.717H37.3302V432.925ZM57.4245 440.669C55.9578 440.669 54.6525 440.331 53.5085 439.657C52.3645 438.982 51.4698 438.058 50.8245 436.885C50.2085 435.711 49.9005 434.406 49.9005 432.969C49.9005 431.531 50.2085 430.226 50.8245 429.053C51.4698 427.85 52.3645 426.911 53.5085 426.237C54.6525 425.533 55.9578 425.181 57.4245 425.181C58.9205 425.181 60.2405 425.533 61.3845 426.237C62.5285 426.911 63.4085 427.835 64.0245 429.009C64.6698 430.182 64.9925 431.487 64.9925 432.925C64.9925 434.362 64.6698 435.682 64.0245 436.885C63.3791 438.058 62.4845 438.982 61.3405 439.657C60.1965 440.331 58.8911 440.669 57.4245 440.669ZM74.8485 425.489H79.9525L58.9205 455.717H53.8605L74.8485 425.489ZM57.4245 436.885C58.3631 436.885 59.1258 436.533 59.7125 435.829C60.3285 435.095 60.6365 434.127 60.6365 432.925C60.6365 431.781 60.3285 430.842 59.7125 430.109C59.1258 429.375 58.3631 429.009 57.4245 429.009C56.4858 429.009 55.7085 429.375 55.0925 430.109C54.5058 430.813 54.2125 431.751 54.2125 432.925C54.2125 434.098 54.5205 435.051 55.1365 435.785C55.7525 436.518 56.5151 436.885 57.4245 436.885ZM76.3005 456.201C74.8338 456.201 73.5285 455.863 72.3845 455.189C71.2405 454.485 70.3458 453.546 69.7005 452.373C69.0551 451.199 68.7325 449.894 68.7325 448.457C68.7325 447.019 69.0551 445.714 69.7005 444.541C70.3458 443.367 71.2405 442.443 72.3845 441.769C73.5285 441.065 74.8338 440.713 76.3005 440.713C77.7965 440.713 79.1018 441.065 80.2165 441.769C81.3605 442.443 82.2405 443.367 82.8565 444.541C83.5018 445.714 83.8245 447.019 83.8245 448.457C83.8245 449.894 83.5018 451.214 82.8565 452.417C82.2111 453.59 81.3165 454.514 80.1725 455.189C79.0578 455.863 77.7671 456.201 76.3005 456.201ZM76.3005 452.373C77.2391 452.373 78.0018 452.021 78.5885 451.317C79.2045 450.583 79.5125 449.63 79.5125 448.457C79.5125 447.283 79.2045 446.33 78.5885 445.597C77.9725 444.863 77.2098 444.497 76.3005 444.497C75.3325 444.497 74.5551 444.863 73.9685 445.597C73.3818 446.301 73.0885 447.254 73.0885 448.457C73.0885 449.601 73.3818 450.539 73.9685 451.273C74.5845 452.006 75.3618 452.373 76.3005 452.373Z" fill="#9E008E"/>
<path d="M2.35 404.46V405.83H5.81V407.16H2.35V408.67H6.16V410H0.87V403.13H6.16V404.46H2.35ZM14.2288 403.13L11.4288 410H9.77875L6.97875 403.13H8.63875L10.6088 407.97L12.5688 403.13H14.2288ZM16.8422 404.46V405.83H20.3022V407.16H16.8422V408.67H20.6522V410H15.3622V403.13H20.6522V404.46H16.8422ZM22.0809 403.13H23.5609L26.8709 407.57V403.13H28.3509V410H26.8709L23.5609 405.56V410H22.0809V403.13ZM31.6788 404.46H29.5388V403.13H35.2988V404.46H33.1488V410H31.6788V404.46ZM41.7401 410.12C41.1401 410.12 40.5801 410.023 40.0601 409.83C39.5467 409.637 39.0901 409.353 38.6901 408.98L39.5301 407.97C40.2234 408.57 40.9767 408.87 41.7901 408.87C42.1501 408.87 42.4267 408.8 42.6201 408.66C42.8201 408.513 42.9201 408.327 42.9201 408.1C42.9201 407.94 42.8734 407.81 42.7801 407.71C42.6867 407.61 42.5401 407.527 42.3401 407.46C42.1467 407.387 41.8567 407.307 41.4701 407.22C40.9167 407.093 40.4634 406.957 40.1101 406.81C39.7634 406.657 39.4867 406.447 39.2801 406.18C39.0801 405.913 38.9801 405.57 38.9801 405.15C38.9801 404.73 39.0867 404.36 39.3001 404.04C39.5134 403.713 39.8134 403.46 40.2001 403.28C40.5867 403.1 41.0301 403.01 41.5301 403.01C42.5767 403.01 43.4734 403.327 44.2201 403.96L43.4501 405.03C43.1367 404.777 42.8101 404.587 42.4701 404.46C42.1367 404.327 41.8067 404.26 41.4801 404.26C41.1801 404.26 40.9367 404.33 40.7501 404.47C40.5634 404.61 40.4701 404.787 40.4701 405C40.4701 405.167 40.5167 405.3 40.6101 405.4C40.7101 405.5 40.8601 405.587 41.0601 405.66C41.2667 405.733 41.5634 405.813 41.9501 405.9C42.4967 406.02 42.9434 406.16 43.2901 406.32C43.6434 406.473 43.9167 406.68 44.1101 406.94C44.3101 407.2 44.4101 407.533 44.4101 407.94C44.4101 408.373 44.3034 408.757 44.0901 409.09C43.8767 409.417 43.5667 409.67 43.1601 409.85C42.7601 410.03 42.2867 410.12 41.7401 410.12ZM45.7235 403.13H48.8135C49.3068 403.13 49.7502 403.23 50.1435 403.43C50.5368 403.623 50.8435 403.897 51.0635 404.25C51.2902 404.603 51.4035 405.003 51.4035 405.45C51.4035 405.897 51.2902 406.297 51.0635 406.65C50.8435 407.003 50.5368 407.28 50.1435 407.48C49.7502 407.673 49.3068 407.77 48.8135 407.77H47.2035V410H45.7235V403.13ZM48.6635 406.42C49.0302 406.42 49.3268 406.333 49.5535 406.16C49.7802 405.98 49.8935 405.743 49.8935 405.45C49.8935 405.157 49.7802 404.923 49.5535 404.75C49.3268 404.57 49.0302 404.48 48.6635 404.48H47.2035V406.42H48.6635ZM55.9266 410.12C55.28 410.12 54.6733 409.96 54.1066 409.64C53.5466 409.313 53.1 408.877 52.7666 408.33C52.4333 407.783 52.2666 407.193 52.2666 406.56C52.2666 405.927 52.4333 405.34 52.7666 404.8C53.1 404.253 53.5466 403.82 54.1066 403.5C54.6733 403.173 55.28 403.01 55.9266 403.01C56.5733 403.01 57.1766 403.173 57.7366 403.5C58.2966 403.82 58.74 404.253 59.0666 404.8C59.4 405.34 59.5666 405.927 59.5666 406.56C59.5666 407.193 59.4 407.783 59.0666 408.33C58.74 408.877 58.2966 409.313 57.7366 409.64C57.1766 409.96 56.5733 410.12 55.9266 410.12ZM55.9266 408.78C56.3 408.78 56.65 408.68 56.9766 408.48C57.31 408.273 57.5733 408 57.7666 407.66C57.96 407.32 58.0566 406.953 58.0566 406.56C58.0566 406.173 57.96 405.81 57.7666 405.47C57.5733 405.13 57.31 404.86 56.9766 404.66C56.65 404.453 56.3 404.35 55.9266 404.35C55.5466 404.35 55.1933 404.453 54.8666 404.66C54.54 404.86 54.2766 405.13 54.0766 405.47C53.8833 405.81 53.7866 406.173 53.7866 406.56C53.7866 406.953 53.8833 407.32 54.0766 407.66C54.27 408 54.53 408.273 54.8566 408.48C55.19 408.68 55.5466 408.78 55.9266 408.78ZM60.9091 403.13H62.3891L65.6991 407.57V403.13H67.1791V410H65.6991L62.3891 405.56V410H60.9091V403.13ZM71.4569 410.12C70.8569 410.12 70.2969 410.023 69.7769 409.83C69.2635 409.637 68.8069 409.353 68.4069 408.98L69.2469 407.97C69.9402 408.57 70.6935 408.87 71.5069 408.87C71.8669 408.87 72.1435 408.8 72.3369 408.66C72.5369 408.513 72.6369 408.327 72.6369 408.1C72.6369 407.94 72.5902 407.81 72.4969 407.71C72.4035 407.61 72.2569 407.527 72.0569 407.46C71.8635 407.387 71.5735 407.307 71.1869 407.22C70.6335 407.093 70.1802 406.957 69.8269 406.81C69.4802 406.657 69.2035 406.447 68.9969 406.18C68.7969 405.913 68.6969 405.57 68.6969 405.15C68.6969 404.73 68.8035 404.36 69.0169 404.04C69.2302 403.713 69.5302 403.46 69.9169 403.28C70.3035 403.1 70.7469 403.01 71.2469 403.01C72.2935 403.01 73.1902 403.327 73.9369 403.96L73.1669 405.03C72.8535 404.777 72.5269 404.587 72.1869 404.46C71.8535 404.327 71.5235 404.26 71.1969 404.26C70.8969 404.26 70.6535 404.33 70.4669 404.47C70.2802 404.61 70.1869 404.787 70.1869 405C70.1869 405.167 70.2335 405.3 70.3269 405.4C70.4269 405.5 70.5769 405.587 70.7769 405.66C70.9835 405.733 71.2802 405.813 71.6669 405.9C72.2135 406.02 72.6602 406.16 73.0069 406.32C73.3602 406.473 73.6335 406.68 73.8269 406.94C74.0269 407.2 74.1269 407.533 74.1269 407.94C74.1269 408.373 74.0202 408.757 73.8069 409.09C73.5935 409.417 73.2835 409.67 72.8769 409.85C72.4769 410.03 72.0035 410.12 71.4569 410.12ZM78.6903 410.12C78.0436 410.12 77.437 409.96 76.8703 409.64C76.3103 409.313 75.8636 408.877 75.5303 408.33C75.197 407.783 75.0303 407.193 75.0303 406.56C75.0303 405.927 75.197 405.34 75.5303 404.8C75.8636 404.253 76.3103 403.82 76.8703 403.5C77.437 403.173 78.0436 403.01 78.6903 403.01C79.337 403.01 79.9403 403.173 80.5003 403.5C81.0603 403.82 81.5036 404.253 81.8303 404.8C82.1636 405.34 82.3303 405.927 82.3303 406.56C82.3303 407.193 82.1636 407.783 81.8303 408.33C81.5036 408.877 81.0603 409.313 80.5003 409.64C79.9403 409.96 79.337 410.12 78.6903 410.12ZM78.6903 408.78C79.0636 408.78 79.4136 408.68 79.7403 408.48C80.0736 408.273 80.337 408 80.5303 407.66C80.7236 407.32 80.8203 406.953 80.8203 406.56C80.8203 406.173 80.7236 405.81 80.5303 405.47C80.337 405.13 80.0736 404.86 79.7403 404.66C79.4136 404.453 79.0636 404.35 78.6903 404.35C78.3103 404.35 77.957 404.453 77.6303 404.66C77.3036 404.86 77.0403 405.13 76.8403 405.47C76.647 405.81 76.5503 406.173 76.5503 406.56C76.5503 406.953 76.647 407.32 76.8403 407.66C77.0336 408 77.2936 408.273 77.6203 408.48C77.9536 408.68 78.3103 408.78 78.6903 408.78ZM89.3527 405.45C89.3527 405.983 89.1961 406.447 88.8827 406.84C88.5761 407.227 88.1627 407.497 87.6427 407.65L89.2927 410H87.6127L86.0427 407.77H85.1527V410H83.6727V403.13H86.7627C87.2561 403.13 87.6994 403.23 88.0927 403.43C88.4861 403.623 88.7927 403.897 89.0127 404.25C89.2394 404.603 89.3527 405.003 89.3527 405.45ZM85.1527 406.42H86.6127C86.9794 406.42 87.2761 406.333 87.5027 406.16C87.7294 405.98 87.8427 405.743 87.8427 405.45C87.8427 405.157 87.7294 404.923 87.5027 404.75C87.2761 404.57 86.9794 404.48 86.6127 404.48H85.1527V406.42ZM93.2538 410.12C92.6538 410.12 92.0938 410.023 91.5738 409.83C91.0604 409.637 90.6038 409.353 90.2038 408.98L91.0438 407.97C91.7371 408.57 92.4904 408.87 93.3038 408.87C93.6638 408.87 93.9404 408.8 94.1338 408.66C94.3338 408.513 94.4338 408.327 94.4338 408.1C94.4338 407.94 94.3871 407.81 94.2938 407.71C94.2004 407.61 94.0538 407.527 93.8538 407.46C93.6604 407.387 93.3704 407.307 92.9838 407.22C92.4304 407.093 91.9771 406.957 91.6238 406.81C91.2771 406.657 91.0004 406.447 90.7938 406.18C90.5938 405.913 90.4938 405.57 90.4938 405.15C90.4938 404.73 90.6004 404.36 90.8138 404.04C91.0271 403.713 91.3271 403.46 91.7138 403.28C92.1004 403.1 92.5438 403.01 93.0438 403.01C94.0904 403.01 94.9871 403.327 95.7338 403.96L94.9638 405.03C94.6504 404.777 94.3238 404.587 93.9838 404.46C93.6504 404.327 93.3204 404.26 92.9938 404.26C92.6938 404.26 92.4504 404.33 92.2638 404.47C92.0771 404.61 91.9838 404.787 91.9838 405C91.9838 405.167 92.0304 405.3 92.1238 405.4C92.2238 405.5 92.3738 405.587 92.5738 405.66C92.7804 405.733 93.0771 405.813 93.4638 405.9C94.0104 406.02 94.4571 406.16 94.8038 406.32C95.1571 406.473 95.4304 406.68 95.6238 406.94C95.8238 407.2 95.9238 407.533 95.9238 407.94C95.9238 408.373 95.8171 408.757 95.6038 409.09C95.3904 409.417 95.0804 409.67 94.6738 409.85C94.2738 410.03 93.8004 410.12 93.2538 410.12ZM103.317 403.13V410H101.847V407.16H98.7172V410H97.2372V403.13H98.7172V405.83H101.847V403.13H103.317ZM105.069 403.13H106.549V410H105.069V403.13ZM108.292 403.13H111.382C111.875 403.13 112.319 403.23 112.712 403.43C113.105 403.623 113.412 403.897 113.632 404.25C113.859 404.603 113.972 405.003 113.972 405.45C113.972 405.897 113.859 406.297 113.632 406.65C113.412 407.003 113.105 407.28 112.712 407.48C112.319 407.673 111.875 407.77 111.382 407.77H109.772V410H108.292V403.13ZM111.232 406.42C111.599 406.42 111.895 406.333 112.122 406.16C112.349 405.98 112.462 405.743 112.462 405.45C112.462 405.157 112.349 404.923 112.122 404.75C111.895 404.57 111.599 404.48 111.232 404.48H109.772V406.42H111.232Z" fill="#2D1762"/>
<path d="M163.591 183.479L81.804 325.067C3.57727 279.914 -23.222 179.937 21.9355 101.748C51.5658 50.4494 104.331 20 163.591 20V183.479Z" fill="#9E008E"/>
<path d="M163.59 183.48L314.156 247.365C278.863 330.485 182.834 369.25 99.6923 333.974C92.5365 330.936 88.5418 328.957 81.8203 325.068L163.608 183.48H163.59Z" fill="#477076"/>
<path d="M163.595 183.478L227.493 33.002C310.062 68.0344 349.193 164.834 314.144 247.363L163.578 183.478H163.595Z" fill="#AB9B32"/>
<path d="M163.598 183.479V20C187.271 20 205.716 23.7498 227.513 33.0026L163.598 183.496V183.479Z" fill="#2D1762"/>
<path d="M158.783 258.817H160.115L162.023 262.309L163.94 258.817H165.263V265H163.94V261.148L162.023 264.64L160.115 261.148V265H158.783V258.817ZM168.166 260.014V261.247H171.28V262.444H168.166V263.803H171.595V265H166.834V258.817H171.595V260.014H168.166ZM172.881 258.817H174.213L176.121 262.309L178.038 258.817H179.361V265H178.038V261.148L176.121 264.64L174.213 261.148V265H172.881V258.817ZM180.931 258.817H184.063C184.429 258.817 184.753 258.883 185.035 259.015C185.323 259.147 185.545 259.333 185.701 259.573C185.863 259.807 185.944 260.071 185.944 260.365C185.944 260.983 185.656 261.442 185.08 261.742C185.44 261.904 185.719 262.123 185.917 262.399C186.115 262.675 186.214 262.984 186.214 263.326C186.214 263.65 186.127 263.941 185.953 264.199C185.779 264.451 185.539 264.649 185.233 264.793C184.927 264.931 184.579 265 184.189 265H180.931V258.817ZM183.739 261.31C183.985 261.31 184.186 261.247 184.342 261.121C184.504 260.989 184.585 260.824 184.585 260.626C184.585 260.434 184.504 260.275 184.342 260.149C184.186 260.017 183.985 259.951 183.739 259.951H182.254V261.31H183.739ZM183.937 263.866C184.207 263.866 184.426 263.797 184.594 263.659C184.768 263.515 184.855 263.332 184.855 263.11C184.855 262.888 184.768 262.708 184.594 262.57C184.426 262.426 184.207 262.354 183.937 262.354H182.254V263.866H183.937ZM188.759 260.014V261.247H191.873V262.444H188.759V263.803H192.188V265H187.427V258.817H192.188V260.014H188.759ZM198.585 260.905C198.585 261.385 198.444 261.802 198.162 262.156C197.886 262.504 197.514 262.747 197.046 262.885L198.531 265H197.019L195.606 262.993H194.805V265H193.473V258.817H196.254C196.698 258.817 197.097 258.907 197.451 259.087C197.805 259.261 198.081 259.507 198.279 259.825C198.483 260.143 198.585 260.503 198.585 260.905ZM194.805 261.778H196.119C196.449 261.778 196.716 261.7 196.92 261.544C197.124 261.382 197.226 261.169 197.226 260.905C197.226 260.641 197.124 260.431 196.92 260.275C196.716 260.113 196.449 260.032 196.119 260.032H194.805V261.778ZM202.096 265.108C201.556 265.108 201.052 265.021 200.584 264.847C200.122 264.673 199.711 264.418 199.351 264.082L200.107 263.173C200.731 263.713 201.409 263.983 202.141 263.983C202.465 263.983 202.714 263.92 202.888 263.794C203.068 263.662 203.158 263.494 203.158 263.29C203.158 263.146 203.116 263.029 203.032 262.939C202.948 262.849 202.816 262.774 202.636 262.714C202.462 262.648 202.201 262.576 201.853 262.498C201.355 262.384 200.947 262.261 200.629 262.129C200.317 261.991 200.068 261.802 199.882 261.562C199.702 261.322 199.612 261.013 199.612 260.635C199.612 260.257 199.708 259.924 199.9 259.636C200.092 259.342 200.362 259.114 200.71 258.952C201.058 258.79 201.457 258.709 201.907 258.709C202.849 258.709 203.656 258.994 204.328 259.564L203.635 260.527C203.353 260.299 203.059 260.128 202.753 260.014C202.453 259.894 202.156 259.834 201.862 259.834C201.592 259.834 201.373 259.897 201.205 260.023C201.037 260.149 200.953 260.308 200.953 260.5C200.953 260.65 200.995 260.77 201.079 260.86C201.169 260.95 201.304 261.028 201.484 261.094C201.67 261.16 201.937 261.232 202.285 261.31C202.777 261.418 203.179 261.544 203.491 261.688C203.809 261.826 204.055 262.012 204.229 262.246C204.409 262.48 204.499 262.78 204.499 263.146C204.499 263.536 204.403 263.881 204.211 264.181C204.019 264.475 203.74 264.703 203.374 264.865C203.014 265.027 202.588 265.108 202.096 265.108ZM211.153 258.817V265H209.83V262.444H207.013V265H205.681V258.817H207.013V261.247H209.83V258.817H211.153ZM212.73 258.817H214.062V265H212.73V258.817ZM215.631 258.817H218.412C218.856 258.817 219.255 258.907 219.609 259.087C219.963 259.261 220.239 259.507 220.437 259.825C220.641 260.143 220.743 260.503 220.743 260.905C220.743 261.307 220.641 261.667 220.437 261.985C220.239 262.303 219.963 262.552 219.609 262.732C219.255 262.906 218.856 262.993 218.412 262.993H216.963V265H215.631V258.817ZM218.277 261.778C218.607 261.778 218.874 261.7 219.078 261.544C219.282 261.382 219.384 261.169 219.384 260.905C219.384 260.641 219.282 260.431 219.078 260.275C218.874 260.113 218.607 260.032 218.277 260.032H216.963V261.778H218.277Z" fill="#FDFDFD"/>
<path d="M47.783 166.817H49.115L51.023 170.309L52.94 166.817H54.263V173H52.94V169.148L51.023 172.64L49.115 169.148V173H47.783V166.817ZM57.1658 168.014V169.247H60.2798V170.444H57.1658V171.803H60.5948V173H55.8338V166.817H60.5948V168.014H57.1658ZM61.8807 166.817H63.2127L65.1207 170.309L67.0377 166.817H68.3607V173H67.0377V169.148L65.1207 172.64L63.2127 169.148V173H61.8807V166.817ZM69.9314 166.817H73.0634C73.4294 166.817 73.7534 166.883 74.0354 167.015C74.3234 167.147 74.5454 167.333 74.7014 167.573C74.8634 167.807 74.9444 168.071 74.9444 168.365C74.9444 168.983 74.6564 169.442 74.0804 169.742C74.4404 169.904 74.7194 170.123 74.9174 170.399C75.1154 170.675 75.2144 170.984 75.2144 171.326C75.2144 171.65 75.1274 171.941 74.9534 172.199C74.7794 172.451 74.5394 172.649 74.2334 172.793C73.9274 172.931 73.5794 173 73.1894 173H69.9314V166.817ZM72.7394 169.31C72.9854 169.31 73.1864 169.247 73.3424 169.121C73.5044 168.989 73.5854 168.824 73.5854 168.626C73.5854 168.434 73.5044 168.275 73.3424 168.149C73.1864 168.017 72.9854 167.951 72.7394 167.951H71.2544V169.31H72.7394ZM72.9374 171.866C73.2074 171.866 73.4264 171.797 73.5944 171.659C73.7684 171.515 73.8554 171.332 73.8554 171.11C73.8554 170.888 73.7684 170.708 73.5944 170.57C73.4264 170.426 73.2074 170.354 72.9374 170.354H71.2544V171.866H72.9374ZM77.7586 168.014V169.247H80.8726V170.444H77.7586V171.803H81.1876V173H76.4266V166.817H81.1876V168.014H77.7586ZM87.5854 168.905C87.5854 169.385 87.4444 169.802 87.1624 170.156C86.8864 170.504 86.5144 170.747 86.0464 170.885L87.5314 173H86.0194L84.6064 170.993H83.8054V173H82.4734V166.817H85.2544C85.6984 166.817 86.0974 166.907 86.4514 167.087C86.8054 167.261 87.0814 167.507 87.2794 167.825C87.4834 168.143 87.5854 168.503 87.5854 168.905ZM83.8054 169.778H85.1194C85.4494 169.778 85.7164 169.7 85.9204 169.544C86.1244 169.382 86.2264 169.169 86.2264 168.905C86.2264 168.641 86.1244 168.431 85.9204 168.275C85.7164 168.113 85.4494 168.032 85.1194 168.032H83.8054V169.778ZM91.0963 173.108C90.5563 173.108 90.0523 173.021 89.5843 172.847C89.1223 172.673 88.7113 172.418 88.3513 172.082L89.1073 171.173C89.7313 171.713 90.4093 171.983 91.1413 171.983C91.4653 171.983 91.7143 171.92 91.8883 171.794C92.0683 171.662 92.1583 171.494 92.1583 171.29C92.1583 171.146 92.1163 171.029 92.0323 170.939C91.9483 170.849 91.8163 170.774 91.6363 170.714C91.4623 170.648 91.2013 170.576 90.8533 170.498C90.3553 170.384 89.9473 170.261 89.6293 170.129C89.3173 169.991 89.0683 169.802 88.8823 169.562C88.7023 169.322 88.6123 169.013 88.6123 168.635C88.6123 168.257 88.7083 167.924 88.9003 167.636C89.0923 167.342 89.3623 167.114 89.7103 166.952C90.0583 166.79 90.4573 166.709 90.9073 166.709C91.8493 166.709 92.6563 166.994 93.3283 167.564L92.6353 168.527C92.3533 168.299 92.0593 168.128 91.7533 168.014C91.4533 167.894 91.1563 167.834 90.8623 167.834C90.5923 167.834 90.3733 167.897 90.2053 168.023C90.0373 168.149 89.9533 168.308 89.9533 168.5C89.9533 168.65 89.9953 168.77 90.0793 168.86C90.1693 168.95 90.3043 169.028 90.4843 169.094C90.6703 169.16 90.9373 169.232 91.2853 169.31C91.7773 169.418 92.1793 169.544 92.4913 169.688C92.8093 169.826 93.0553 170.012 93.2293 170.246C93.4093 170.48 93.4993 170.78 93.4993 171.146C93.4993 171.536 93.4033 171.881 93.2113 172.181C93.0193 172.475 92.7403 172.703 92.3743 172.865C92.0143 173.027 91.5883 173.108 91.0963 173.108ZM100.153 166.817V173H98.8304V170.444H96.0134V173H94.6814V166.817H96.0134V169.247H98.8304V166.817H100.153ZM101.73 166.817H103.062V173H101.73V166.817ZM104.631 166.817H107.412C107.856 166.817 108.255 166.907 108.609 167.087C108.963 167.261 109.239 167.507 109.437 167.825C109.641 168.143 109.743 168.503 109.743 168.905C109.743 169.307 109.641 169.667 109.437 169.985C109.239 170.303 108.963 170.552 108.609 170.732C108.255 170.906 107.856 170.993 107.412 170.993H105.963V173H104.631V166.817ZM107.277 169.778C107.607 169.778 107.874 169.7 108.078 169.544C108.282 169.382 108.384 169.169 108.384 168.905C108.384 168.641 108.282 168.431 108.078 168.275C107.874 168.113 107.607 168.032 107.277 168.032H105.963V169.778H107.277Z" fill="#FDFDFD"/>
<path d="M228.783 147.817H230.115L232.023 151.309L233.94 147.817H235.263V154H233.94V150.148L232.023 153.64L230.115 150.148V154H228.783V147.817ZM238.166 149.014V150.247H241.28V151.444H238.166V152.803H241.595V154H236.834V147.817H241.595V149.014H238.166ZM242.881 147.817H244.213L246.121 151.309L248.038 147.817H249.361V154H248.038V150.148L246.121 153.64L244.213 150.148V154H242.881V147.817ZM250.931 147.817H254.063C254.429 147.817 254.753 147.883 255.035 148.015C255.323 148.147 255.545 148.333 255.701 148.573C255.863 148.807 255.944 149.071 255.944 149.365C255.944 149.983 255.656 150.442 255.08 150.742C255.44 150.904 255.719 151.123 255.917 151.399C256.115 151.675 256.214 151.984 256.214 152.326C256.214 152.65 256.127 152.941 255.953 153.199C255.779 153.451 255.539 153.649 255.233 153.793C254.927 153.931 254.579 154 254.189 154H250.931V147.817ZM253.739 150.31C253.985 150.31 254.186 150.247 254.342 150.121C254.504 149.989 254.585 149.824 254.585 149.626C254.585 149.434 254.504 149.275 254.342 149.149C254.186 149.017 253.985 148.951 253.739 148.951H252.254V150.31H253.739ZM253.937 152.866C254.207 152.866 254.426 152.797 254.594 152.659C254.768 152.515 254.855 152.332 254.855 152.11C254.855 151.888 254.768 151.708 254.594 151.57C254.426 151.426 254.207 151.354 253.937 151.354H252.254V152.866H253.937ZM258.759 149.014V150.247H261.873V151.444H258.759V152.803H262.188V154H257.427V147.817H262.188V149.014H258.759ZM268.585 149.905C268.585 150.385 268.444 150.802 268.162 151.156C267.886 151.504 267.514 151.747 267.046 151.885L268.531 154H267.019L265.606 151.993H264.805V154H263.473V147.817H266.254C266.698 147.817 267.097 147.907 267.451 148.087C267.805 148.261 268.081 148.507 268.279 148.825C268.483 149.143 268.585 149.503 268.585 149.905ZM264.805 150.778H266.119C266.449 150.778 266.716 150.7 266.92 150.544C267.124 150.382 267.226 150.169 267.226 149.905C267.226 149.641 267.124 149.431 266.92 149.275C266.716 149.113 266.449 149.032 266.119 149.032H264.805V150.778ZM272.096 154.108C271.556 154.108 271.052 154.021 270.584 153.847C270.122 153.673 269.711 153.418 269.351 153.082L270.107 152.173C270.731 152.713 271.409 152.983 272.141 152.983C272.465 152.983 272.714 152.92 272.888 152.794C273.068 152.662 273.158 152.494 273.158 152.29C273.158 152.146 273.116 152.029 273.032 151.939C272.948 151.849 272.816 151.774 272.636 151.714C272.462 151.648 272.201 151.576 271.853 151.498C271.355 151.384 270.947 151.261 270.629 151.129C270.317 150.991 270.068 150.802 269.882 150.562C269.702 150.322 269.612 150.013 269.612 149.635C269.612 149.257 269.708 148.924 269.9 148.636C270.092 148.342 270.362 148.114 270.71 147.952C271.058 147.79 271.457 147.709 271.907 147.709C272.849 147.709 273.656 147.994 274.328 148.564L273.635 149.527C273.353 149.299 273.059 149.128 272.753 149.014C272.453 148.894 272.156 148.834 271.862 148.834C271.592 148.834 271.373 148.897 271.205 149.023C271.037 149.149 270.953 149.308 270.953 149.5C270.953 149.65 270.995 149.77 271.079 149.86C271.169 149.95 271.304 150.028 271.484 150.094C271.67 150.16 271.937 150.232 272.285 150.31C272.777 150.418 273.179 150.544 273.491 150.688C273.809 150.826 274.055 151.012 274.229 151.246C274.409 151.48 274.499 151.78 274.499 152.146C274.499 152.536 274.403 152.881 274.211 153.181C274.019 153.475 273.74 153.703 273.374 153.865C273.014 154.027 272.588 154.108 272.096 154.108ZM281.153 147.817V154H279.83V151.444H277.013V154H275.681V147.817H277.013V150.247H279.83V147.817H281.153ZM282.73 147.817H284.062V154H282.73V147.817ZM285.631 147.817H288.412C288.856 147.817 289.255 147.907 289.609 148.087C289.963 148.261 290.239 148.507 290.437 148.825C290.641 149.143 290.743 149.503 290.743 149.905C290.743 150.307 290.641 150.667 290.437 150.985C290.239 151.303 289.963 151.552 289.609 151.732C289.255 151.906 288.856 151.993 288.412 151.993H286.963V154H285.631V147.817ZM288.277 150.778C288.607 150.778 288.874 150.7 289.078 150.544C289.282 150.382 289.384 150.169 289.384 149.905C289.384 149.641 289.282 149.431 289.078 149.275C288.874 149.113 288.607 149.032 288.277 149.032H286.963V150.778H288.277Z" fill="#FDFDFD"/>
<path d="M278.214 2.014H276.288V0.817H281.472V2.014H279.537V7H278.214V2.014ZM287.643 2.905C287.643 3.385 287.502 3.802 287.22 4.156C286.944 4.504 286.572 4.747 286.104 4.885L287.589 7H286.077L284.664 4.993H283.863V7H282.531V0.817H285.312C285.756 0.817 286.155 0.907 286.509 1.087C286.863 1.261 287.139 1.507 287.337 1.825C287.541 2.143 287.643 2.503 287.643 2.905ZM283.863 3.778H285.177C285.507 3.778 285.774 3.7 285.978 3.544C286.182 3.382 286.284 3.169 286.284 2.905C286.284 2.641 286.182 2.431 285.978 2.275C285.774 2.113 285.507 2.032 285.177 2.032H283.863V3.778ZM292.909 5.938H290.227L289.795 7H288.31L290.83 0.817H292.315L294.835 7H293.341L292.909 5.938ZM292.486 4.903L291.568 2.644L290.65 4.903H292.486ZM295.846 0.817H297.178V7H295.846V0.817ZM298.747 0.817H300.079L303.058 4.813V0.817H304.39V7H303.058L300.079 3.004V7H298.747V0.817ZM305.954 0.817H307.286V7H305.954V0.817ZM308.854 0.817H310.186L313.165 4.813V0.817H314.497V7H313.165L310.186 3.004V7H308.854V0.817ZM318.779 3.526H321.506V6.073C321.2 6.397 320.822 6.652 320.372 6.838C319.928 7.018 319.475 7.108 319.013 7.108C318.425 7.108 317.876 6.964 317.366 6.676C316.856 6.382 316.448 5.989 316.142 5.497C315.842 5.005 315.692 4.474 315.692 3.904C315.692 3.334 315.842 2.806 316.142 2.32C316.448 1.828 316.856 1.438 317.366 1.15C317.876 0.856 318.425 0.708999 319.013 0.708999C319.475 0.708999 319.928 0.802 320.372 0.988C320.822 1.168 321.2 1.42 321.506 1.744L320.543 2.608C320.357 2.398 320.126 2.23 319.85 2.104C319.574 1.978 319.295 1.915 319.013 1.915C318.665 1.915 318.341 2.008 318.041 2.194C317.741 2.374 317.501 2.617 317.321 2.923C317.147 3.223 317.06 3.55 317.06 3.904C317.06 4.258 317.147 4.588 317.321 4.894C317.501 5.2 317.741 5.446 318.041 5.632C318.341 5.812 318.665 5.902 319.013 5.902C319.223 5.902 319.433 5.869 319.643 5.803C319.853 5.731 320.042 5.632 320.21 5.506V4.561H318.779V3.526Z" fill="#2D1762"/>
<path d="M260 5H190V47" stroke="#8D8D8D"/>
</svg>
