<svg width="261" height="252" viewBox="0 0 261 252" fill="none" xmlns="http://www.w3.org/2000/svg">
<path d="M1 251H219" stroke="#2D1762"/>
<path d="M7.64058 205.801L6.88274 204.024H2.4599L1.70205 205.801H0.310593L3.97559 197.266H5.36704L9.03204 205.801H7.64058ZM2.932 202.931H6.41064L4.67132 198.881L2.932 202.931ZM19.1692 200.049C19.1692 201.465 18.138 202.521 16.6969 202.769L18.8213 205.801H17.3802L15.293 202.832H13.6655V205.801H12.4107V197.266H16.0012C17.7902 197.266 19.1692 198.421 19.1692 200.049ZM13.6655 198.434V201.664H15.8148C17.0448 201.664 17.8896 201.055 17.8896 200.049C17.8896 199.042 17.0448 198.434 15.8148 198.434H13.6655ZM26.6646 205.95C24.2792 205.95 22.2417 203.925 22.2417 201.527C22.2417 199.129 24.2792 197.117 26.6646 197.117C27.8821 197.117 29.0127 197.626 29.8202 198.458L28.9381 199.303C28.3542 198.682 27.5467 198.272 26.6646 198.272C24.9625 198.272 23.5214 199.763 23.5214 201.527C23.5214 203.304 24.9625 204.794 26.6646 204.794C27.5467 204.794 28.3542 204.384 28.9381 203.763L29.8202 204.608C29.0127 205.428 27.8821 205.95 26.6646 205.95ZM39.228 197.266H40.4828V205.801H39.228V202.036H34.5815V205.801H33.3267V197.266H34.5815V200.869H39.228V197.266ZM44.822 205.801V197.266H46.0768V205.801H44.822ZM52.2848 205.801V198.434H49.477V197.266H56.3349V198.434H53.5396V205.801H52.2848ZM66.0185 198.434H61.0118V200.869H65.534V202.036H61.0118V204.633H66.0185V205.801H59.7446V197.266H66.0185V198.434ZM73.5981 205.95C71.2127 205.95 69.1752 203.925 69.1752 201.527C69.1752 199.129 71.2127 197.117 73.5981 197.117C74.8156 197.117 75.9461 197.626 76.7537 198.458L75.8716 199.303C75.2877 198.682 74.4802 198.272 73.5981 198.272C71.896 198.272 70.4549 199.763 70.4549 201.527C70.4549 203.304 71.896 204.794 73.5981 204.794C74.4802 204.794 75.2877 204.384 75.8716 203.763L76.7537 204.608C75.9461 205.428 74.8156 205.95 73.5981 205.95ZM82.1362 205.801V198.434H79.3284V197.266H86.1863V198.434H83.391V205.801H82.1362ZM96.6826 205.801V198.434H93.8748V197.266H100.733V198.434H97.9374V205.801H96.6826ZM110.044 197.266H111.298V205.801H110.044V202.036H105.397V205.801H104.142V197.266H105.397V200.869H110.044V197.266ZM121.912 198.434H116.905V200.869H121.427V202.036H116.905V204.633H121.912V205.801H115.638V197.266H121.912V198.434ZM137.162 198.434H132.155V200.918H136.677V202.086H132.155V205.801H130.888V197.266H137.162V198.434ZM144.15 205.95C142.001 205.95 140.485 204.397 140.485 202.21V197.266H141.74V202.185C141.74 203.714 142.734 204.807 144.15 204.807C145.554 204.807 146.548 203.714 146.548 202.185V197.266H147.815V202.21C147.815 204.397 146.287 205.95 144.15 205.95ZM153.801 205.801V198.434H150.993V197.266H157.851V198.434H155.056V205.801H153.801ZM164.715 205.95C162.565 205.95 161.05 204.397 161.05 202.21V197.266H162.304V202.185C162.304 203.714 163.298 204.807 164.715 204.807C166.119 204.807 167.112 203.714 167.112 202.185V197.266H168.38V202.21C168.38 204.397 166.852 205.95 164.715 205.95ZM179.248 200.049C179.248 201.465 178.217 202.521 176.775 202.769L178.9 205.801H177.459L175.372 202.832H173.744V205.801H172.489V197.266H176.08C177.869 197.266 179.248 198.421 179.248 200.049ZM173.744 198.434V201.664H175.893C177.123 201.664 177.968 201.055 177.968 200.049C177.968 199.042 177.123 198.434 175.893 198.434H173.744ZM189.203 198.434H184.196V200.869H188.719V202.036H184.196V204.633H189.203V205.801H182.929V197.266H189.203V198.434Z" fill="#0C093A"/>
<path d="M29.0891 93L27.0277 87.8465H13.874L11.8126 93H2.38913L15.7391 59.2815H25.1626L38.5126 93H29.0891ZM16.3772 81.5151H24.5246L20.4509 71.159L16.3772 81.5151ZM50.0531 93V59.2815H58.4459L73.1702 79.2083V59.2815H81.5139V93H73.1702L58.4459 73.0732V93H50.0531ZM95.7845 93V59.2815H104.177L118.902 79.2083V59.2815H127.245V93H118.902L104.177 73.0732V93H95.7845ZM156.437 93.589C147.258 93.589 140.78 87.2575 140.78 78.2267V59.2815H149.173V77.834C149.173 82.5949 152.216 85.9814 156.437 85.9814C160.707 85.9814 163.75 82.5949 163.75 77.834V59.2815H172.093V78.2267C172.093 87.2575 165.664 93.589 156.437 93.589ZM209.618 93L207.557 87.8465H194.403L192.342 93H182.918L196.268 59.2815H205.692L219.042 93H209.618ZM196.906 81.5151H205.054L200.98 71.159L196.906 81.5151ZM238.975 85.4906H255.221V93H230.582V59.2815H238.975V85.4906ZM33.7518 157H24.2301L16.8189 146.448H13.4814V157H5.08857V123.281H20.7454C28.2056 123.281 33.5554 128.042 33.5554 134.865C33.5554 140.018 30.5124 143.994 25.7516 145.662L33.7518 157ZM13.4814 130.938V138.791H20.0091C22.9049 138.791 24.9172 137.22 24.9172 134.865C24.9172 132.509 22.9049 130.938 20.0091 130.938H13.4814ZM76.255 130.791H58.0951V136.042H74.5862V143.552H58.0951V149.491H76.255V157H49.7023V123.281H76.255V130.791ZM92.7342 157V123.281H108.391C115.851 123.281 121.201 128.042 121.201 134.865C121.201 141.687 115.851 146.448 108.391 146.448H101.127V157H92.7342ZM101.127 138.791H107.655C110.551 138.791 112.563 137.22 112.563 134.865C112.563 132.509 110.551 130.938 107.655 130.938H101.127V138.791ZM153.213 157.589C143.347 157.589 135.053 149.589 135.053 140.116C135.053 130.644 143.347 122.693 153.213 122.693C163.029 122.693 171.323 130.644 171.323 140.116C171.323 149.589 163.029 157.589 153.213 157.589ZM153.213 149.981C158.366 149.981 162.685 145.466 162.685 140.116C162.685 134.815 158.366 130.3 153.213 130.3C148.059 130.3 143.691 134.815 143.691 140.116C143.691 145.466 148.059 149.981 153.213 149.981ZM215.897 157H206.375L198.964 146.448H195.627V157H187.234V123.281H202.891C210.351 123.281 215.701 128.042 215.701 134.865C215.701 140.018 212.658 143.994 207.897 145.662L215.897 157ZM195.627 130.938V138.791H202.155C205.05 138.791 207.063 137.22 207.063 134.865C207.063 132.509 205.05 130.938 202.155 130.938H195.627ZM239.799 157V130.791H229.59V123.281H258.449V130.791H248.192V157H239.799Z" fill="#2D1762"/>
<path d="M9.11364 23.2654C4.73378 23.2654 1.01754 19.6598 1.01754 15.3906C1.01754 11.1213 4.73378 7.53778 9.11364 7.53778C11.4142 7.53778 13.5156 8.51108 14.9977 10.0816L12.6308 12.2052C11.7681 11.1877 10.4851 10.5019 9.11364 10.5019C6.54766 10.5019 4.37986 12.7582 4.37986 15.3906C4.37986 18.045 6.54766 20.3013 9.11364 20.3013C10.5072 20.3013 11.7681 19.6156 12.6308 18.598L14.9977 20.7216C13.5156 22.27 11.4142 23.2654 9.11364 23.2654ZM20.9472 23V7.80323H24.2211L31.5429 17.6247V7.80323H34.8168V23H31.5429L24.2211 13.1785V23H20.9472ZM49.1681 23.2654C44.7883 23.2654 41.072 19.6598 41.072 15.3906C41.072 11.1213 44.7883 7.53778 49.1681 7.53778C51.4687 7.53778 53.5701 8.51108 55.0522 10.0816L52.6853 12.2052C51.8226 11.1877 50.5396 10.5019 49.1681 10.5019C46.6022 10.5019 44.4343 12.7582 44.4343 15.3906C44.4343 18.045 46.6022 20.3013 49.1681 20.3013C50.5617 20.3013 51.8226 19.6156 52.6853 18.598L55.0522 20.7216C53.5701 22.27 51.4687 23.2654 49.1681 23.2654ZM72.7035 10.7453H64.2756V14.0412H71.9292V16.9832H64.2756V23H61.0017V7.80323H72.7035V10.7453ZM87.1639 23V20.3455L92.7603 16.0099C94.5742 14.5721 95.1494 13.5767 95.1494 12.5149C95.1494 11.254 94.0876 10.5019 92.8488 10.5019C91.3668 10.5019 90.2386 11.254 89.1326 12.5149L87.0533 10.5019C88.5575 8.59956 90.4819 7.53778 92.9373 7.53778C96.1669 7.53778 98.5117 9.52863 98.5117 12.3822C98.5117 14.4173 97.6269 15.9878 94.9724 17.9123L92.2073 20.058H98.6444V23H87.1639ZM110.995 23.2654C106.991 23.2654 104.16 20.0137 104.16 15.3906C104.16 10.7895 106.991 7.53778 110.995 7.53778C114.999 7.53778 117.808 10.7895 117.808 15.3906C117.808 20.0137 114.999 23.2654 110.995 23.2654ZM110.995 20.3013C113.03 20.3013 114.468 18.2441 114.468 15.3906C114.468 12.537 113.03 10.5019 110.995 10.5019C108.96 10.5019 107.522 12.537 107.522 15.3906C107.522 18.2441 108.96 20.3013 110.995 20.3013ZM123.092 23V20.3455L128.689 16.0099C130.503 14.5721 131.078 13.5767 131.078 12.5149C131.078 11.254 130.016 10.5019 128.777 10.5019C127.295 10.5019 126.167 11.254 125.061 12.5149L122.982 10.5019C124.486 8.59956 126.41 7.53778 128.866 7.53778C132.095 7.53778 134.44 9.52863 134.44 12.3822C134.44 14.4173 133.555 15.9878 130.901 17.9123L128.136 20.058H134.573V23H123.092ZM145.729 23.2876C143.008 23.2876 140.907 22.2037 139.624 20.7216L141.548 18.5538C142.632 19.704 144.07 20.3455 145.596 20.3455C147.255 20.3455 148.251 19.5713 148.251 18.4874C148.251 17.315 147.322 16.7178 145.286 16.7399H143.539V13.9527L145.286 13.9748C146.946 13.9748 147.941 13.3555 147.941 12.2716C147.941 11.1655 146.879 10.4577 145.375 10.4577C143.959 10.4577 142.831 11.1655 141.814 12.2273L139.933 10.2365C141.194 8.71017 143.008 7.53778 145.707 7.53778C149.113 7.53778 151.259 9.2853 151.259 11.6964C151.259 13.444 150.087 14.7048 148.405 15.1915C150.065 15.5675 151.591 16.7399 151.591 18.7529C151.591 21.3852 149.29 23.2876 145.729 23.2876Z" fill="#A52D81"/>
</svg>
