<svg width="70" height="73" viewBox="0 0 70 73" fill="none" xmlns="http://www.w3.org/2000/svg">
<path d="M19.0516 46.5493L3.89552 20.2187C3.24198 19.0827 2.93462 17.7786 3.0116 16.4684C3.08859 15.1582 3.54652 13.8996 4.32855 12.8488L9.69149 5.67996C10.312 4.84786 11.1167 4.17248 12.0418 3.70733C12.9668 3.24217 13.9869 3 15.0211 3H54.9933C56.0276 3 57.0476 3.24217 57.9727 3.70733C58.8977 4.17248 59.7024 4.84786 60.323 5.67996L65.6526 12.8488C66.4398 13.8962 66.9036 15.1531 66.9866 16.4633C67.0695 17.7736 66.7678 19.0795 66.1189 20.2187L50.9628 46.5493" stroke="#2D1762" stroke-width="4.6" stroke-linecap="round" stroke-linejoin="round"/>
<path d="M31.6743 36.4994L12.0879 3.66992" stroke="#2D1762" stroke-width="4.6" stroke-linecap="round" stroke-linejoin="round"/>
<path d="M38.3359 36.4994L57.9223 3.66992" stroke="#2D1762" stroke-width="4.6" stroke-linecap="round" stroke-linejoin="round"/>
<path d="M21.6816 19.752H48.3298" stroke="#2D1762" stroke-width="4.6" stroke-linecap="round" stroke-linejoin="round"/>
<path d="M35.0066 69.9995C44.205 69.9995 51.6617 62.5003 51.6617 53.2497C51.6617 43.9991 44.205 36.5 35.0066 36.5C25.8083 36.5 18.3516 43.9991 18.3516 53.2497C18.3516 62.5003 25.8083 69.9995 35.0066 69.9995Z" stroke="#2D1762" stroke-width="4.6" stroke-linecap="round" stroke-linejoin="round"/>
<path d="M35.0063 56.6003V49.9004H33.3398" stroke="#AB9B32" stroke-width="4.6" stroke-linecap="round" stroke-linejoin="round"/>
</svg>
