<svg width="57" height="63" viewBox="0 0 57 63" fill="none" xmlns="http://www.w3.org/2000/svg">
<path d="M48.4506 5.72505H42.747V2.86558C42.7478 2.48956 42.6747 2.11707 42.5321 1.76943C42.3894 1.4218 42.18 1.10585 41.9156 0.839679C41.6513 0.573505 41.3373 0.362333 40.9916 0.218249C40.646 0.0741651 40.2754 -8.58406e-07 39.9012 0C39.1449 0 38.4195 0.301911 37.8847 0.839311C37.3499 1.37671 37.0494 2.10558 37.0494 2.86558V5.72505H19.9506V2.86558C19.9506 2.10558 19.6502 1.37671 19.1153 0.839311C18.5805 0.301911 17.8551 0 17.0988 0C16.7246 -8.58406e-07 16.354 0.0741651 16.0084 0.218249C15.6627 0.362333 15.3487 0.573505 15.0844 0.839679C14.8201 1.10585 14.6106 1.4218 14.4679 1.76943C14.3253 2.11707 14.2522 2.48956 14.253 2.86558V5.72505H8.5494C6.28294 5.72829 4.11024 6.6344 2.50761 8.24476C0.904988 9.85511 0.00321711 12.0383 0 14.3157V54.4094C0.00321711 56.6868 0.904988 58.8699 2.50761 60.4803C4.11024 62.0906 6.28294 62.9968 8.5494 63H48.4506C50.7171 62.9968 52.8898 62.0906 54.4924 60.4803C56.095 58.8699 56.9968 56.6868 57 54.4094V14.3157C56.9968 12.0383 56.095 9.85511 54.4924 8.24476C52.8898 6.6344 50.7171 5.72829 48.4506 5.72505ZM51.2964 54.4094C51.2964 55.1683 50.9967 55.8963 50.4632 56.4335C49.9297 56.9707 49.2059 57.2733 48.4506 57.2749H8.5494C7.7941 57.2733 7.07029 56.9707 6.53678 56.4335C6.00327 55.8963 5.70365 55.1683 5.70365 54.4094V14.3157C5.70526 13.5578 6.00559 12.8314 6.53892 12.2955C7.07226 11.7596 7.79515 11.4578 8.5494 11.4562H48.4506C49.2049 11.4578 49.9278 11.7596 50.4611 12.2955C50.9944 12.8314 51.2948 13.5578 51.2964 14.3157V54.4094Z" fill="#2D1762"/>
<path d="M28.4989 40.0943C31.5212 40.0895 34.4183 38.8809 36.5554 36.7335C38.6925 34.5861 39.8953 31.675 39.9001 28.6381C39.8985 25.5997 38.697 22.686 36.5593 20.537C34.4217 18.3879 31.5227 17.179 28.4989 17.1758C25.4761 17.179 22.578 18.387 20.4406 20.5348C18.3031 22.6826 17.1009 25.5946 17.0977 28.632C17.1009 31.6699 18.3029 34.5826 20.4402 36.7314C22.5775 38.8801 25.4755 40.0895 28.4989 40.0943ZM28.4989 22.9069C30.0105 22.9086 31.4597 23.5131 32.528 24.5877C33.5964 25.6623 34.1964 27.1192 34.1964 28.6381C34.1948 30.156 33.594 31.6112 32.5259 32.6845C31.4577 33.7578 30.0095 34.3615 28.4989 34.3632C26.9883 34.3615 25.54 33.7578 24.4719 32.6845C23.4037 31.6112 22.8029 30.156 22.8013 28.6381C22.8013 27.1192 23.4014 25.6623 24.4697 24.5877C25.538 23.5131 26.9872 22.9086 28.4989 22.9069Z" fill="#9E008E"/>
<path d="M44.4089 47.7861C39.9457 44.5784 34.5825 42.9531 28.5019 42.9531C22.8848 42.982 17.3953 44.6389 12.6922 47.725C12.0571 48.1369 11.6107 48.7852 11.451 49.5276C11.2914 50.27 11.4316 51.0457 11.8409 51.6843C12.0983 52.0878 12.4527 52.4197 12.8714 52.6493C13.2902 52.8789 13.7597 52.9988 14.2367 52.9979C14.7826 52.9963 15.3165 52.8372 15.7751 52.5397C19.5597 50.0507 23.9788 48.712 28.5019 48.6843C33.3664 48.6843 37.6229 49.9491 41.0949 52.4419C41.3993 52.6612 41.7438 52.818 42.1086 52.9032C42.4734 52.9884 42.8514 53.0005 43.2209 52.9386C43.5903 52.8767 43.944 52.7422 44.2616 52.5426C44.5792 52.3431 44.8545 52.0826 45.0716 51.7759C45.5089 51.1581 45.6847 50.3913 45.5604 49.6435C45.4362 48.8956 45.0221 48.2278 44.4089 47.7861Z" fill="#9E008E"/>
</svg>
