<svg width="26" height="24" viewBox="0 0 26 24" fill="none" xmlns="http://www.w3.org/2000/svg">
<path d="M22.4665 3.76396C21.9093 3.20485 21.2473 2.76122 20.5183 2.45852C19.7893 2.15582 19.0077 2 18.2184 2C17.429 2 16.6474 2.15582 15.9185 2.45852C15.1895 2.76122 14.5274 3.20485 13.9702 3.76396L13.115 4.63025L12.2599 3.76396C11.7027 3.20485 11.0406 2.76122 10.3116 2.45852C9.58262 2.15582 8.80105 2 8.01171 2C7.22237 2 6.44079 2.15582 5.7118 2.45852C4.98281 2.76122 4.32074 3.20485 3.76356 3.76396C1.40903 6.11849 1.26465 10.0945 4.23003 13.1154L13.115 22.0004L22 13.1154C24.9654 10.0945 24.821 6.11849 22.4665 3.76396Z" stroke="#2D1762" stroke-width="2.22125" stroke-linecap="round" stroke-linejoin="round"/>
<path d="M13.1145 4.62891L9.63824 8.11627C9.19875 8.55935 8.95215 9.15814 8.95215 9.78221C8.95215 10.4063 9.19875 11.0051 9.63824 11.4482V11.4482C10.0813 11.8876 10.6801 12.1342 11.3042 12.1342C11.9282 12.1342 12.527 11.8876 12.9701 11.4482L15.4801 8.99367C16.1039 8.37647 16.946 8.03029 17.8236 8.03029C18.7011 8.03029 19.5432 8.37647 20.167 8.99367L22.8325 11.6592" stroke="#2D1762" stroke-width="2.22125" stroke-linecap="round" stroke-linejoin="round"/>
<path d="M19.7789 15.3365L17.5576 13.1152" stroke="#2D1762" stroke-width="2.22125" stroke-linecap="round" stroke-linejoin="round"/>
<path d="M16.4468 18.6685L14.2256 16.4473" stroke="#2D1762" stroke-width="2.22125" stroke-linecap="round" stroke-linejoin="round"/>
</svg>
