<svg width="66" height="63" viewBox="0 0 66 63" fill="none" xmlns="http://www.w3.org/2000/svg">
<path d="M50.9998 47.94H33.0299C29.7299 47.94 27.1799 50.76 25.5899 53.6399C24.3313 56.0017 22.3193 57.8749 19.8738 58.9618C17.4283 60.0488 14.6896 60.287 12.0932 59.6388C9.4967 58.9905 7.19144 57.4929 5.54383 55.3841C3.89622 53.2752 3.00084 50.6761 3 48C3.03 45.9 3.6 43.8 4.70999 42" stroke="#AB9B32" stroke-width="6" stroke-linecap="round" stroke-linejoin="round"/>
<path d="M15 48.0018L24.39 30.6619C25.9799 27.7519 24.69 24.1219 22.89 21.3619C22.0404 20.0032 21.4716 18.4882 21.217 16.9061C20.9625 15.324 21.0274 13.7069 21.4079 12.1504C21.7885 10.5938 22.4769 9.12915 23.4326 7.84293C24.3883 6.55671 25.592 5.47493 26.9726 4.66141C28.3531 3.8479 29.8826 3.31913 31.4709 3.10631C33.0591 2.89348 34.6739 3.00091 36.2199 3.42226C37.766 3.8436 39.2119 4.57033 40.4726 5.55956C41.7332 6.54878 42.783 7.78048 43.5599 9.18197" stroke="#9E008E" stroke-width="6" stroke-linecap="round" stroke-linejoin="round"/>
<path d="M33 15L42.39 32.1899C43.9799 35.0999 47.6999 35.9999 50.9999 35.9999C54.1825 35.9999 57.2347 37.2642 59.4852 39.5146C61.7356 41.765 62.9999 44.8173 62.9999 47.9998C62.9999 51.1824 61.7356 54.2347 59.4852 56.4851C57.2347 58.7355 54.1825 59.9998 50.9999 59.9998" stroke="#2D1762" stroke-width="6" stroke-linecap="round" stroke-linejoin="round"/>
</svg>
