<svg width="25" height="25" viewBox="0 0 25 25" fill="none" xmlns="http://www.w3.org/2000/svg">
<path d="M12.1203 7.26268C12.2463 7.25363 12.3735 7.24903 12.5018 7.24903C12.6296 7.24903 12.7563 7.2536 12.8818 7.26257M12.1203 7.26268C11.8427 5.97786 11.3623 4.79686 10.5318 3.96616C8.56238 1.99641 4.62303 2.00044 2 2.00044C2 4.6232 2 8.5655 3.9665 10.5319C4.79621 11.3615 5.97753 11.8417 7.26302 12.1193M12.1203 7.26268C9.52375 7.44907 7.44975 9.52288 7.26302 12.1193M12.8818 7.26257C13.1591 5.97716 13.6387 4.79599 14.4683 3.96646C16.435 1.99997 20.3773 1.99678 22.9997 2.00026C23.0035 4.62307 23.003 8.56242 21.0336 10.5322C20.2037 11.3622 19.0241 11.8417 17.7405 12.1188M12.8818 7.26257C15.4788 7.44825 17.5535 9.52208 17.7405 12.1188M17.7405 12.1188C17.7496 12.2452 17.7543 12.3729 17.7543 12.5016C17.7543 12.6303 17.7496 12.758 17.7405 12.8844M12.8825 17.7406C12.7568 17.7496 12.6298 17.7542 12.5018 17.7542C12.3733 17.7542 12.2458 17.7496 12.1196 17.7405M12.8825 17.7406C13.1599 19.0248 13.6394 20.2047 14.4683 21.0335C16.435 23 20.3773 23.0032 22.9997 22.9997C23.0035 20.3769 23.003 16.4376 21.0336 14.4678C20.2067 13.6408 19.0325 13.1617 17.7543 12.8842L17.7405 12.8844M12.8825 17.7406C15.4792 17.5546 17.5535 15.4809 17.7405 12.8844M12.1196 17.7405C11.842 19.0241 11.3617 20.2038 10.5318 21.0338C8.56645 22.9995 4.63912 22.9995 2.0161 22.9995H2.00006C2.00006 20.3767 2.00006 16.4344 3.96655 14.4681C4.7962 13.6385 5.97741 13.1583 7.26279 12.8807M12.1196 17.7405C9.52235 17.5537 7.44803 15.4784 7.26279 12.8807M7.26279 12.8807C7.25386 12.7555 7.24932 12.6291 7.24932 12.5016C7.24932 12.3731 7.25394 12.2456 7.26302 12.1193" stroke="#2D1762" stroke-width="2.17" stroke-linecap="round" stroke-linejoin="round"/>
</svg>
