<svg width="56" height="63" viewBox="0 0 56 63" fill="none" xmlns="http://www.w3.org/2000/svg">
<path d="M47.6006 5.72505H41.997V2.86558C41.9978 2.48956 41.9261 2.11707 41.7859 1.76943C41.6458 1.4218 41.4399 1.10585 41.1803 0.839679C40.9206 0.573505 40.6121 0.362333 40.2725 0.218249C39.9329 0.0741651 39.5689 -8.58406e-07 39.2012 0C38.4581 0 37.7455 0.301911 37.22 0.839311C36.6946 1.37671 36.3994 2.10558 36.3994 2.86558V5.72505H19.6006V2.86558C19.6006 2.10558 19.3054 1.37671 18.78 0.839311C18.2545 0.301911 17.5419 0 16.7988 0C16.4312 -8.58406e-07 16.0671 0.0741651 15.7275 0.218249C15.3879 0.362333 15.0794 0.573505 14.8198 0.839679C14.5601 1.10585 14.3542 1.4218 14.2141 1.76943C14.0739 2.11707 14.0022 2.48956 14.003 2.86558V5.72505H8.39941C6.17272 5.72829 4.03813 6.6344 2.46362 8.24476C0.889111 9.85511 0.00316067 12.0383 0 14.3157V54.4094C0.00316067 56.6868 0.889111 58.8699 2.46362 60.4803C4.03813 62.0906 6.17272 62.9968 8.39941 63H47.6006C49.8273 62.9968 51.9619 62.0906 53.5364 60.4803C55.1109 58.8699 55.9968 56.6868 56 54.4094V14.3157C55.9968 12.0383 55.1109 9.85511 53.5364 8.24476C51.9619 6.6344 49.8273 5.72829 47.6006 5.72505ZM50.3964 54.4094C50.3964 55.1683 50.1021 55.8963 49.5779 56.4335C49.0538 56.9707 48.3426 57.2733 47.6006 57.2749H8.39941C7.65736 57.2733 6.94625 56.9707 6.4221 56.4335C5.89795 55.8963 5.60359 55.1683 5.60359 54.4094V14.3157C5.60517 13.5578 5.90023 12.8314 6.42421 12.2955C6.94818 11.7596 7.65839 11.4578 8.39941 11.4562H47.6006C48.3416 11.4578 49.0518 11.7596 49.5758 12.2955C50.0998 12.8314 50.3948 13.5578 50.3964 14.3157V54.4094Z" fill="#2D1762"/>
<path fill-rule="evenodd" clip-rule="evenodd" d="M12.2871 24C12.2871 22.6193 13.3874 21.5 14.7448 21.5H41.7789C43.1362 21.5 44.2366 22.6193 44.2366 24C44.2366 25.3807 43.1362 26.5 41.7789 26.5H14.7448C13.3874 26.5 12.2871 25.3807 12.2871 24ZM12.2871 35C12.2871 33.6193 13.3874 32.5 14.7448 32.5H41.7789C43.1362 32.5 44.2366 33.6193 44.2366 35C44.2366 36.3807 43.1362 37.5 41.7789 37.5H14.7448C13.3874 37.5 12.2871 36.3807 12.2871 35ZM14.7448 43.5C13.3874 43.5 12.2871 44.6193 12.2871 46C12.2871 47.3807 13.3874 48.5 14.7448 48.5H41.7789C43.1362 48.5 44.2366 47.3807 44.2366 46C44.2366 44.6193 43.1362 43.5 41.7789 43.5H14.7448Z" fill="#9E008E"/>
</svg>
