<svg width="69" height="69" viewBox="0 0 69 69" fill="none" xmlns="http://www.w3.org/2000/svg">
<path fill-rule="evenodd" clip-rule="evenodd" d="M50.2512 46.9492C49.376 46.9492 48.5366 47.2969 47.9177 47.9158C47.2988 48.5346 46.9512 49.374 46.9512 50.2492V62.8492C46.9512 64.5061 45.608 65.8492 43.9512 65.8492C42.2943 65.8492 40.9512 64.5061 40.9512 62.8492V50.2492C40.9512 47.7827 41.931 45.4172 43.6751 43.6731C45.4192 41.929 47.7847 40.9492 50.2512 40.9492H62.8512C64.508 40.9492 65.8512 42.2924 65.8512 43.9492C65.8512 45.6061 64.508 46.9492 62.8512 46.9492H50.2512Z" fill="#9E008E"/>
<path fill-rule="evenodd" clip-rule="evenodd" d="M18.75 6.29883C20.4069 6.29883 21.75 7.64197 21.75 9.29883V15.0363C22.243 16.1699 23.053 17.1414 24.0871 17.8307C25.2504 18.6063 26.6342 18.9828 28.0301 18.9036L28.2 21.8988V18.8988C30.6665 18.8988 33.032 19.8786 34.7761 21.6227C36.5202 23.3668 37.5 25.7323 37.5 28.1988C37.5 29.074 37.8477 29.9134 38.4665 30.5323C39.0854 31.1512 39.9248 31.4988 40.8 31.4988C41.6752 31.4988 42.5146 31.1512 43.1334 30.5323C43.7523 29.9134 44.1 29.074 44.1 28.1988C44.1 25.7323 45.0798 23.3668 46.8239 21.6227C48.568 19.8786 50.9335 18.8988 53.4 18.8988H62.85C64.5068 18.8988 65.85 20.242 65.85 21.8988C65.85 23.5557 64.5068 24.8988 62.85 24.8988H53.4C52.5248 24.8988 51.6854 25.2465 51.0665 25.8654C50.4477 26.4842 50.1 27.3236 50.1 28.1988C50.1 30.6653 49.1202 33.0308 47.3761 34.7749C45.632 36.519 43.2665 37.4988 40.8 37.4988C38.3335 37.4988 35.968 36.519 34.2239 34.7749C32.4798 33.0308 31.5 30.6653 31.5 28.1988C31.5 27.3236 31.1523 26.4842 30.5334 25.8654C29.9301 25.262 29.1172 24.9164 28.2658 24.8995C25.6067 25.028 22.9754 24.3007 20.7589 22.823C18.5134 21.326 16.8151 19.1399 15.9199 16.594C15.8074 16.2743 15.75 15.9378 15.75 15.5988V9.29883C15.75 7.64197 17.0931 6.29883 18.75 6.29883Z" fill="#AB9B32"/>
<path fill-rule="evenodd" clip-rule="evenodd" d="M3.14844 31.3516C3.14844 29.6947 4.49158 28.3516 6.14844 28.3516H12.4484C14.915 28.3516 17.2804 29.3314 19.0245 31.0755C20.7686 32.8196 21.7484 35.185 21.7484 37.6516V40.8016C21.7484 41.6768 22.0961 42.5161 22.715 43.135C23.3339 43.7539 24.1732 44.1016 25.0484 44.1016C27.515 44.1016 29.8804 45.0814 31.6245 46.8255C33.3686 48.5696 34.3484 50.935 34.3484 53.4016V66.0016C34.3484 67.6584 33.0053 69.0016 31.3484 69.0016C29.6916 69.0016 28.3484 67.6584 28.3484 66.0016V53.4016C28.3484 52.5264 28.0008 51.687 27.3819 51.0681C26.763 50.4492 25.9237 50.1016 25.0484 50.1016C22.5819 50.1016 20.2164 49.1217 18.4723 47.3777C16.7283 45.6336 15.7484 43.2681 15.7484 40.8016V37.6516C15.7484 36.7763 15.4008 35.937 14.7819 35.3181C14.163 34.6992 13.3237 34.3516 12.4484 34.3516H6.14844C4.49158 34.3516 3.14844 33.0084 3.14844 31.3516Z" fill="#2D1762"/>
<path fill-rule="evenodd" clip-rule="evenodd" d="M34.5 6C18.7599 6 6 18.7599 6 34.5C6 50.2401 18.7599 63 34.5 63C50.2401 63 63 50.2401 63 34.5C63 18.7599 50.2401 6 34.5 6ZM0 34.5C0 15.4462 15.4462 0 34.5 0C53.5538 0 69 15.4462 69 34.5C69 53.5538 53.5538 69 34.5 69C15.4462 69 0 53.5538 0 34.5Z" fill="#2D1762"/>
</svg>
