<svg width="140" height="40" viewBox="0 0 140 40" fill="none" xmlns="http://www.w3.org/2000/svg">
<path d="M137.952 37.0196C137.952 36.5336 137.536 36.3549 137.111 36.3549H136.314V38.6234H136.72V37.6755H137.013L137.546 38.6234H138.043L137.429 37.6312C137.576 37.6116 137.711 37.5383 137.807 37.4255C137.904 37.3126 137.956 37.1681 137.952 37.0196ZM136.72 37.3472V36.7017H137.094C137.307 36.7017 137.546 36.763 137.546 37.0119C137.546 37.2862 137.279 37.3472 137.05 37.3472H136.72ZM137.102 35.4863C136.707 35.49 136.322 35.6103 135.995 35.8322C135.668 36.0542 135.414 36.3677 135.265 36.7335C135.116 37.0993 135.079 37.501 135.157 37.8881C135.236 38.2752 135.427 38.6303 135.707 38.909C135.987 39.1876 136.343 39.3773 136.731 39.4541C137.118 39.5309 137.52 39.4914 137.885 39.3406C138.25 39.1898 138.562 38.9345 138.783 38.6067C139.003 38.2789 139.121 37.8932 139.123 37.4982C139.123 37.2332 139.071 36.9709 138.969 36.7262C138.867 36.4815 138.718 36.2594 138.53 36.0724C138.343 35.8855 138.12 35.7375 137.874 35.6369C137.629 35.5364 137.367 35.4852 137.102 35.4863ZM137.102 39.2006C136.765 39.2006 136.436 39.1007 136.157 38.9138C135.877 38.7269 135.659 38.4612 135.53 38.1504C135.402 37.8396 135.368 37.4976 135.433 37.1676C135.499 36.8376 135.661 36.5345 135.899 36.2966C136.137 36.0587 136.44 35.8966 136.77 35.8308C137.1 35.7651 137.442 35.7986 137.752 35.9272C138.063 36.0559 138.329 36.2737 138.516 36.5534C138.703 36.833 138.803 37.1618 138.803 37.4982C138.802 37.9491 138.622 38.3812 138.303 38.7001C137.985 39.0191 137.553 39.199 137.102 39.2006Z" fill="#0077C5"/>
<path d="M0.875 11.8489H7.71308V39.202H0.875V11.8489ZM29.8197 11.0502C25.7749 11.0502 22.5255 13.5011 21.3298 16.236H21.2153V11.8489H14.7203V39.202H21.5569V24.158C21.5569 20.5105 23.6105 16.7494 27.9396 16.7494C32.3275 16.7494 33.069 20.7956 33.069 24.0435V39.202H39.9071V22.1059C39.9071 16.5222 36.9451 11.0502 29.8197 11.0502ZM88.6751 26.8929C88.6751 30.5396 86.6215 34.3012 82.2934 34.3012C77.9045 34.3012 77.1633 30.2567 77.1633 27.0074V11.8489H70.3252V28.9443C70.3252 34.5305 73.2873 40 80.4119 40C84.4571 40 87.7057 37.5505 88.9022 34.8137H89.0167V39.202H95.5135V11.8489H88.6751V26.8929ZM102.514 39.202H109.353V11.8489H102.514V39.202ZM43.3913 17.8923H51.0581V39.202H57.8961V17.8923H65.5636V11.8323H43.3917L43.3913 17.8923ZM54.4773 8.265C55.2946 8.265 56.0936 8.02263 56.7732 7.56853C57.4527 7.11443 57.9824 6.46901 58.2951 5.71388C58.6079 4.95876 58.6897 4.12785 58.5302 3.32624C58.3706 2.52463 57.977 1.78832 57.399 1.21044C56.821 0.632551 56.0847 0.239045 55.283 0.0796826C54.4814 -0.0796803 53.6505 0.00225835 52.8954 0.315137C52.1403 0.628015 51.495 1.15778 51.041 1.83743C50.5871 2.51709 50.3448 3.3161 50.345 4.13343C50.345 4.67604 50.4519 5.21333 50.6596 5.71463C50.8672 6.21592 51.1716 6.67139 51.5554 7.05502C51.9391 7.43865 52.3947 7.74293 52.896 7.95048C53.3974 8.15803 53.9347 8.26515 54.4773 8.265ZM114.143 11.8323V17.8923H121.81V39.202H128.649V17.8923H136.316V11.8323H114.143ZM125.23 8.26463C126.047 8.26478 126.846 8.02253 127.526 7.56852C128.205 7.11451 128.735 6.46914 129.048 5.71403C129.361 4.95892 129.443 4.12798 129.283 3.32632C129.124 2.52466 128.73 1.78829 128.152 1.21033C127.574 0.63237 126.838 0.23879 126.036 0.079367C125.235 -0.0800557 124.404 0.00184053 123.649 0.314697C122.894 0.627554 122.248 1.15732 121.794 1.83699C121.34 2.51665 121.098 3.3157 121.098 4.13305C121.098 5.22869 121.534 6.27941 122.308 7.05417C123.083 7.82894 124.134 8.26434 125.229 8.26463H125.23Z" fill="#0077C5"/>
</svg>
