<svg width="160" height="42" viewBox="0 0 160 42" fill="none" xmlns="http://www.w3.org/2000/svg">
<path d="M52.1355 21.7076C52.4301 21.3742 52.7247 21.0408 53.0562 20.7075C53.3877 20.337 53.6827 20.0037 53.977 19.6707C54.2716 19.2999 54.5662 18.9665 54.8243 18.6702C55.0824 18.3739 55.3398 18.0776 55.5238 17.8555H59.0966C58.3967 18.6702 57.6968 19.4853 56.9973 20.2258C56.3343 20.9667 55.5977 21.7445 54.7875 22.5594C55.2316 22.9777 55.6498 23.423 56.0397 23.8928C56.4815 24.4112 56.8867 24.9296 57.292 25.448C57.6936 25.9678 58.0625 26.5122 58.3967 27.0782C58.7282 27.6336 59.0232 28.115 59.2441 28.5596H55.782C55.5607 28.1891 55.303 27.8187 55.0452 27.4112C54.7758 26.9622 54.4805 26.5295 54.161 26.1151C53.8616 25.6708 53.5293 25.2498 53.1668 24.8558C52.8733 24.4863 52.5398 24.1509 52.1723 23.8557V28.5225H49.1523V13.2258L52.1723 12.7441V21.7076" fill="black"/>
<path d="M69.7414 28.1891C69.0889 28.372 68.4244 28.5082 67.7528 28.5966C66.9127 28.7346 66.0621 28.7965 65.211 28.7817C64.4332 28.8101 63.6574 28.6843 62.9278 28.4116C62.3786 28.2029 61.8929 27.8542 61.5184 27.3996C61.1439 26.945 60.8934 26.4002 60.7917 25.8188C60.6413 25.1629 60.5671 24.4917 60.5704 23.8186V17.8555H63.5908V23.4482C63.5908 24.4112 63.7014 25.115 63.9591 25.5596C64.2169 26.0042 64.6955 26.2263 65.3954 26.2263C65.6293 26.2315 65.8632 26.2191 66.0953 26.1893C66.353 26.1522 66.5374 26.1522 66.7583 26.1151V17.8555H69.7783L69.7414 28.1891Z" fill="black"/>
<path d="M79.4273 23.1148C79.4273 21.1521 78.7274 20.1891 77.2908 20.1891C76.9806 20.1894 76.6715 20.2266 76.37 20.3C76.1118 20.3629 75.8638 20.4626 75.6336 20.5962V26.1151C75.7808 26.1522 75.9651 26.1522 76.186 26.1893C76.4069 26.1893 76.6647 26.2264 76.9228 26.2264C77.2804 26.2426 77.6368 26.1739 77.9631 26.0258C78.2895 25.8778 78.5765 25.6546 78.8011 25.3742C79.2417 24.7064 79.4608 23.9155 79.4273 23.1148ZM82.4841 23.189C82.4996 23.9826 82.3749 24.7728 82.1158 25.5226C81.894 26.1869 81.5294 26.7938 81.0479 27.3003C80.546 27.787 79.9591 28.1763 79.3166 28.4487C78.559 28.712 77.7607 28.8374 76.9593 28.8188C76.5913 28.8188 76.2229 28.7817 75.8177 28.745C75.4124 28.7083 75.0444 28.6708 74.6392 28.6334C74.2708 28.5967 73.9024 28.5225 73.534 28.4483C73.2191 28.3939 72.9105 28.3071 72.6133 28.1891V13.2255L75.6336 12.7441V18.0776C75.9765 17.9278 76.3346 17.816 76.7015 17.7443C77.09 17.6689 77.4848 17.6318 77.8804 17.6334C78.5649 17.6208 79.2439 17.7598 79.869 18.0406C80.4397 18.2903 80.9443 18.6709 81.3425 19.1519C81.7662 19.6702 82.0683 20.2778 82.2264 20.9296C82.3933 21.6712 82.4797 22.4287 82.4841 23.189Z" fill="black"/>
<path d="M84.2889 23.3011C84.2689 22.4524 84.4192 21.6085 84.7306 20.8195C84.9969 20.16 85.3843 19.5568 85.8726 19.0415C86.3241 18.5638 86.8784 18.1965 87.4929 17.9676C88.1003 17.7167 88.7515 17.5907 89.4081 17.5968C90.0685 17.5664 90.7278 17.676 91.3434 17.9185C91.9589 18.161 92.5168 18.531 92.9809 19.0044C93.8647 19.9303 94.3065 21.3012 94.3065 23.0786C94.3116 23.2769 94.2994 23.4753 94.27 23.6715C94.27 23.8565 94.2331 24.0416 94.2331 24.227H87.3819C87.4119 24.5241 87.5067 24.8109 87.6595 25.067C87.8123 25.3231 88.0195 25.5421 88.2661 25.7084C88.8794 26.1048 89.6003 26.299 90.3285 26.2639C90.8724 26.2715 91.4155 26.2219 91.9491 26.1159C92.4027 26.0392 92.8472 25.9151 93.2751 25.7455L93.68 28.227C93.5329 28.3012 93.312 28.3753 93.0174 28.4862C92.7194 28.587 92.4099 28.6493 92.0963 28.6716C91.7439 28.7441 91.3872 28.7936 91.0284 28.8196C90.66 28.8567 90.2551 28.8938 89.8864 28.8938C89.0306 28.9136 88.1793 28.7626 87.3819 28.4495C86.7237 28.1865 86.1232 27.7963 85.6141 27.3011C85.1592 26.7813 84.8091 26.1775 84.5831 25.5234C84.3899 24.7985 84.2908 24.0515 84.2881 23.3011M91.3968 22.1159C91.3869 21.8627 91.3371 21.6126 91.2493 21.375C91.1764 21.1358 91.0643 20.9105 90.9178 20.7083C90.743 20.4869 90.5181 20.3109 90.2618 20.1949C90.0055 20.0789 89.7253 20.0263 89.4446 20.0416C89.1404 20.0418 88.8395 20.1048 88.5604 20.2266C88.3297 20.322 88.127 20.475 87.9715 20.6712C87.806 20.8668 87.6806 21.0934 87.6028 21.3379C87.5242 21.5802 87.4627 21.8278 87.4188 22.0788H91.3968" fill="black"/>
<path d="M103.035 20.5232C102.722 20.4332 102.402 20.3711 102.078 20.3378C101.69 20.2623 101.295 20.2251 100.899 20.2265C100.665 20.2385 100.431 20.2633 100.199 20.3007C100.001 20.3275 99.8046 20.3646 99.6102 20.4119V28.5974H96.5898V18.4118C97.2167 18.1984 97.8564 18.0253 98.5051 17.8933C99.3143 17.7079 100.143 17.6208 100.973 17.6341C101.17 17.6301 101.367 17.6423 101.562 17.6709C101.797 17.6791 102.031 17.7039 102.262 17.745C102.483 17.7821 102.704 17.8192 102.962 17.8563C103.183 17.8933 103.404 17.9675 103.551 18.0042L103.035 20.5232Z" fill="black"/>
<path d="M105.172 18.2264C106.65 17.8341 108.173 17.6349 109.702 17.6338C110.468 17.6017 111.233 17.7276 111.949 18.0039C112.512 18.1947 113.01 18.5413 113.385 19.004C113.732 19.4676 113.983 19.9966 114.122 20.5596C114.276 21.2148 114.351 21.8865 114.343 22.5598V28.5971H111.322V22.9306C111.322 21.9676 111.212 21.2638 110.954 20.8562C110.697 20.4487 110.218 20.2637 109.518 20.2637C109.284 20.2585 109.05 20.2709 108.818 20.3007C108.595 20.3051 108.374 20.3299 108.155 20.3749V28.6345H105.172V18.2264Z" fill="black"/>
<path d="M116.59 23.3011C116.57 22.4524 116.72 21.6085 117.031 20.8195C117.298 20.16 117.685 19.5568 118.173 19.0415C118.625 18.5638 119.179 18.1964 119.794 17.9676C120.401 17.7167 121.053 17.5907 121.709 17.5968C122.37 17.5664 123.029 17.676 123.644 17.9185C124.26 18.161 124.818 18.531 125.282 19.0044C126.166 19.9303 126.608 21.3012 126.608 23.0786C126.613 23.2769 126.6 23.4753 126.571 23.6715C126.571 23.8565 126.534 24.0416 126.534 24.227H119.683C119.713 24.5241 119.808 24.8109 119.961 25.067C120.114 25.3231 120.321 25.5421 120.568 25.7084C121.181 26.1047 121.902 26.2989 122.63 26.2639C123.174 26.2715 123.717 26.2219 124.251 26.1159C124.704 26.0392 125.148 25.915 125.576 25.7455L125.982 28.227C125.834 28.3012 125.613 28.3753 125.319 28.4862C125.021 28.587 124.711 28.6493 124.398 28.6716C124.045 28.7441 123.688 28.7936 123.33 28.8196C122.962 28.8567 122.556 28.8938 122.188 28.8938C121.332 28.9136 120.481 28.7626 119.683 28.4495C119.025 28.1865 118.425 27.7963 117.916 27.3011C117.461 26.7813 117.11 26.1775 116.884 25.5234C116.691 24.7985 116.592 24.0515 116.59 23.3011ZM123.698 22.1159C123.688 21.8627 123.638 21.6126 123.551 21.375C123.478 21.1358 123.366 20.9105 123.219 20.7083C123.044 20.4869 122.819 20.3108 122.563 20.1948C122.307 20.0788 122.026 20.0262 121.746 20.0416C121.442 20.0419 121.141 20.1048 120.862 20.2266C120.631 20.3219 120.428 20.475 120.273 20.6712C120.107 20.8668 119.982 21.0934 119.904 21.3379C119.826 21.5802 119.764 21.8278 119.72 22.0788H123.698" fill="black"/>
<path d="M128.855 15.1884L131.875 14.707V17.8553H135.485V20.3739H131.875V24.1518C131.85 24.6786 131.965 25.2026 132.207 25.6703C132.428 26.0411 132.907 26.2262 133.57 26.2262C133.902 26.2199 134.234 26.1951 134.564 26.152C134.89 26.0924 135.21 26.0057 135.522 25.8928L135.964 28.2631C135.573 28.4304 135.166 28.5546 134.748 28.6335C134.204 28.7482 133.647 28.7978 133.091 28.7815C132.389 28.8008 131.69 28.6879 131.029 28.4485C130.533 28.2459 130.091 27.9285 129.739 27.5222C129.398 27.0877 129.159 26.5813 129.039 26.0407C128.916 25.4188 128.855 24.786 128.855 24.1518V15.1884Z" fill="black"/>
<path d="M137.031 23.3011C137.011 22.4524 137.162 21.6085 137.473 20.8195C137.739 20.16 138.127 19.5568 138.615 19.0415C139.066 18.5638 139.621 18.1964 140.235 17.9676C140.843 17.7167 141.494 17.5907 142.151 17.5968C142.811 17.5664 143.47 17.676 144.086 17.9185C144.701 18.161 145.259 18.531 145.723 19.0044C146.607 19.9303 147.049 21.3012 147.049 23.0786C147.054 23.2769 147.042 23.4753 147.012 23.6715C147.012 23.8565 146.975 24.0416 146.975 24.227H140.125C140.155 24.5241 140.25 24.8109 140.402 25.067C140.555 25.3231 140.762 25.5421 141.009 25.7084C141.622 26.1047 142.343 26.2989 143.071 26.2639C143.615 26.2715 144.158 26.2219 144.692 26.1159C145.146 26.0392 145.59 25.915 146.018 25.7455L146.423 28.227C146.276 28.3012 146.055 28.3753 145.76 28.4862C145.462 28.587 145.153 28.6493 144.839 28.6716C144.487 28.7441 144.13 28.7936 143.771 28.8196C143.403 28.8567 142.998 28.8938 142.629 28.8938C141.773 28.9136 140.922 28.7626 140.125 28.4495C139.467 28.1865 138.866 27.7963 138.357 27.3011C137.902 26.7813 137.552 26.1775 137.326 25.5234C137.115 24.8022 137.015 24.0527 137.031 23.3011ZM144.103 22.1159C144.093 21.8627 144.043 21.6126 143.955 21.375C143.882 21.1358 143.77 20.9105 143.624 20.7083C143.449 20.4869 143.224 20.3109 142.968 20.1949C142.712 20.0789 142.431 20.0263 142.151 20.0416C141.846 20.0418 141.545 20.1048 141.266 20.2266C141.036 20.3219 140.833 20.475 140.677 20.6712C140.512 20.8668 140.387 21.0934 140.309 21.3379C140.23 21.5802 140.169 21.8278 140.125 22.0788H144.103" fill="black"/>
<path d="M152.391 26.3741C152.789 26.4036 153.19 26.3533 153.569 26.2261C153.68 26.1651 153.77 26.0729 153.829 25.9609C153.888 25.849 153.912 25.7221 153.901 25.5961C153.901 25.3369 153.753 25.1518 153.459 24.9668C153.028 24.7082 152.571 24.497 152.096 24.3368C151.617 24.1517 151.175 23.9667 150.807 23.7813C150.455 23.6116 150.131 23.3865 149.849 23.1146C149.578 22.8389 149.366 22.5114 149.223 22.1516C149.066 21.7253 148.991 21.2729 149.002 20.8185C148.982 20.3629 149.072 19.9092 149.264 19.4963C149.457 19.0834 149.746 18.7236 150.107 18.4478C150.844 17.8552 151.875 17.5586 153.164 17.5586C153.795 17.5634 154.423 17.6255 155.042 17.744C155.521 17.8172 155.99 17.9415 156.442 18.1148L155.926 20.4851C155.558 20.3738 155.19 20.2626 154.784 20.1517C154.339 20.0415 153.881 19.9916 153.422 20.0034C152.464 20.0034 152.022 20.2626 152.022 20.781C152.029 20.8955 152.054 21.0081 152.096 21.1147C152.148 21.239 152.238 21.3429 152.354 21.411C152.464 21.4852 152.648 21.5961 152.833 21.7073C153.054 21.8182 153.311 21.8923 153.643 22.0407C154.213 22.2456 154.767 22.4932 155.3 22.7812C155.687 22.9596 156.028 23.226 156.295 23.5592C156.549 23.8135 156.728 24.1342 156.81 24.4851C156.921 24.87 156.97 25.2699 156.958 25.6703C156.981 26.1393 156.885 26.6065 156.679 27.0279C156.473 27.4492 156.163 27.8106 155.779 28.078C155.006 28.6335 153.901 28.8927 152.427 28.8927C151.634 28.9172 150.84 28.83 150.07 28.6335C149.628 28.5415 149.196 28.405 148.781 28.2259L149.297 25.7444C149.812 25.9437 150.342 26.1046 150.881 26.2257C151.377 26.3319 151.883 26.3816 152.391 26.3741Z" fill="black"/>
<path d="M4.03906 24.6465H5.78641V26.0419H4.03906V24.6465Z" fill="white"/>
<path d="M24.469 23.4973C24.4227 23.4881 24.3755 23.4844 24.3283 23.4865C24.2469 23.4908 24.1671 23.5116 24.0939 23.5477C23.9516 23.6167 23.8413 23.7383 23.7861 23.887C23.7308 24.0358 23.7347 24.2003 23.7971 24.3462L23.7928 24.3523L25.1961 27.7616C26.5386 26.9 27.5573 25.6131 28.0912 24.1043L24.4751 23.4897L24.469 23.4973ZM18.8425 23.9804C18.8121 23.846 18.7377 23.7258 18.6312 23.639C18.5248 23.5522 18.3924 23.5038 18.2554 23.5016C18.2149 23.5011 18.1745 23.5047 18.1348 23.5124L18.1287 23.5049L14.5441 24.1169C15.0824 25.6138 16.0969 26.8903 17.4302 27.7482L18.8192 24.3728L18.8085 24.3595C18.8598 24.24 18.8717 24.1072 18.8425 23.9804ZM21.8446 25.3042C21.7922 25.206 21.7143 25.124 21.6193 25.0669C21.5242 25.0097 21.4154 24.9797 21.3047 24.9798C21.1939 24.9799 21.0853 25.0103 20.9903 25.0677C20.8954 25.1251 20.8177 25.2073 20.7656 25.3056H20.7628L19 28.5111C20.2622 28.9432 21.619 29.0134 22.9186 28.7138C23.1596 28.6586 23.3951 28.5925 23.6249 28.5154L21.8578 25.3042H21.8446ZM27.4249 17.8582L24.7128 20.299L24.7142 20.3069C24.6309 20.3802 24.5689 20.4747 24.5347 20.5806C24.5006 20.6864 24.4955 20.7996 24.5202 20.9081C24.5448 21.0166 24.5982 21.1163 24.6746 21.1968C24.7511 21.2772 24.8478 21.3353 24.9545 21.365L24.9577 21.3797L28.471 22.3975C28.6228 20.8102 28.2555 19.2165 27.4249 17.8582ZM22.3862 18.1314C22.3913 18.2426 22.4263 18.3503 22.4874 18.4431C22.5485 18.536 22.6334 18.6104 22.7332 18.6586C22.833 18.7068 22.9439 18.7269 23.0541 18.7168C23.1643 18.7067 23.2698 18.6667 23.3593 18.6012L23.37 18.6059L26.3377 16.4898C25.208 15.377 23.7461 14.6683 22.1768 14.4727L22.383 18.1303L22.3862 18.1314ZM19.2434 18.6149C19.333 18.6803 19.4385 18.7202 19.5487 18.7301C19.659 18.7401 19.7698 18.7198 19.8695 18.6714C19.9692 18.623 20.054 18.5483 20.1148 18.4553C20.1757 18.3623 20.2103 18.2545 20.215 18.1433L20.2301 18.1361L20.4363 14.4727C20.1874 14.5026 19.9401 14.5454 19.6956 14.6008C18.3947 14.8949 17.2015 15.5488 16.2507 16.4887L19.2377 18.6181L19.2434 18.6149ZM17.6511 21.383C17.758 21.3536 17.855 21.2957 17.9318 21.2152C18.0085 21.1348 18.062 21.0349 18.0867 20.9263C18.1114 20.8176 18.1063 20.7042 18.072 20.5983C18.0376 20.4923 17.9753 20.3977 17.8917 20.3246L17.8945 20.3102L15.1674 17.8571C14.3354 19.2189 13.9783 20.8207 14.1525 22.4094L17.6482 21.3949L17.6511 21.383ZM20.2999 22.4605L21.3058 22.9468L22.3089 22.4616L22.5581 21.3725L21.8639 20.4995H20.7466L20.0504 21.3711L20.2999 22.4605Z" fill="#326CE5"/>
<path d="M37.9367 24.607L35.0699 12.0849C34.9928 11.7609 34.8451 11.4583 34.6376 11.1987C34.4301 10.9391 34.1679 10.729 33.8699 10.5836L22.266 5.01219C21.9653 4.86787 21.6362 4.79297 21.303 4.79297C20.9698 4.79297 20.6408 4.86787 20.34 5.01219L8.73864 10.5865C8.44053 10.7318 8.17821 10.9418 7.97063 11.2014C7.76305 11.461 7.61539 11.7638 7.5383 12.0878L4.67617 24.6095C4.60558 24.9259 4.60534 25.2542 4.67545 25.5707C4.69614 25.6672 4.72317 25.7622 4.75636 25.8551C4.81234 26.0136 4.88646 26.165 4.97724 26.3062C5.01661 26.3667 5.05814 26.4254 5.10325 26.4822L13.1337 36.5228C13.1688 36.5664 13.2074 36.6063 13.2457 36.647C13.3717 36.7819 13.514 36.9004 13.6692 36.9998C13.8656 37.1241 14.0796 37.2177 14.3039 37.2774C14.4878 37.328 14.6775 37.3543 14.8681 37.3555H14.9931L27.7461 37.3526C27.8236 37.3523 27.9011 37.3477 27.9781 37.339C28.0886 37.3264 28.1979 37.3054 28.3053 37.2763C28.3823 37.256 28.4582 37.2316 28.5326 37.2032C28.5906 37.1809 28.6486 37.1586 28.7045 37.1316C28.7883 37.0912 28.8696 37.0458 28.9479 36.9955C29.15 36.8677 29.3299 36.7076 29.4806 36.5214L29.7254 36.2154L37.5081 26.479C37.6573 26.2909 37.7745 26.0792 37.855 25.8526C37.8887 25.7595 37.9162 25.6642 37.9374 25.5675C38.0077 25.2509 38.0074 24.9227 37.9367 24.6063V24.607ZM25.9007 29.4771C25.9332 29.5735 25.9719 29.6676 26.0163 29.759C25.9454 29.8839 25.9261 30.0318 25.9626 30.1709C26.1315 30.5598 26.3377 30.9311 26.5783 31.2797C26.713 31.4578 26.8373 31.6437 26.9507 31.8363C26.9786 31.8885 27.0151 31.9691 27.0416 32.0242C27.0917 32.1082 27.1237 32.2018 27.1356 32.299C27.1475 32.3963 27.1391 32.4949 27.1108 32.5886C27.0825 32.6824 27.035 32.7691 26.9714 32.8433C26.9078 32.9174 26.8294 32.9774 26.7413 33.0192C26.6533 33.0611 26.5575 33.0839 26.4601 33.0863C26.3627 33.0887 26.2659 33.0706 26.176 33.0331C26.086 32.9956 26.0048 32.9395 25.9377 32.8686C25.8705 32.7976 25.8189 32.7133 25.7861 32.6211C25.7596 32.5663 25.7228 32.4936 25.7002 32.4421C25.6209 32.2328 25.5536 32.0191 25.4986 31.8021C25.3782 31.3959 25.2187 31.0026 25.0222 30.6277C24.9367 30.5118 24.8095 30.4341 24.6678 30.4114C24.6456 30.3728 24.5632 30.2213 24.5192 30.1428C22.4535 30.9295 20.1721 30.9236 18.1105 30.1262L17.9533 30.4128C17.8412 30.4303 17.7369 30.4813 17.654 30.5593C17.4172 30.9501 17.2362 31.3725 17.1163 31.8139C17.0619 32.031 16.9949 32.2448 16.9158 32.454C16.8936 32.5051 16.8564 32.5772 16.8299 32.6315V32.6329L16.8288 32.6344C16.7961 32.7267 16.7445 32.8111 16.6773 32.8821C16.6101 32.9531 16.5288 33.0092 16.4388 33.0467C16.3487 33.0842 16.2518 33.1023 16.1544 33.0998C16.0569 33.0973 15.9611 33.0743 15.873 33.0323C15.785 32.9903 15.7067 32.9302 15.6431 32.8558C15.5796 32.7815 15.5323 32.6945 15.5042 32.6007C15.4761 32.5068 15.4679 32.4081 15.4802 32.3108C15.4924 32.2136 15.5248 32.12 15.5752 32.0361C15.6013 31.9806 15.6364 31.9003 15.664 31.8481C15.7773 31.6551 15.9016 31.4688 16.0363 31.2901C16.2813 30.9324 16.4918 30.5519 16.6649 30.1539C16.6833 30.019 16.6617 29.8817 16.603 29.759L16.7293 29.4545C14.8286 28.3264 13.4041 26.5379 12.7245 24.4262L12.422 24.4781C12.3046 24.3943 12.1662 24.3453 12.0225 24.3366C11.6084 24.4163 11.2031 24.5362 10.8121 24.6948C10.6091 24.7867 10.401 24.8669 10.1889 24.9349C10.1387 24.9486 10.0664 24.9627 10.0091 24.9753C10.0045 24.9767 10.0005 24.9789 9.9959 24.9799C9.99234 24.9805 9.98875 24.9809 9.98516 24.981C9.89297 25.0115 9.79547 25.0223 9.69889 25.0128C9.60231 25.0032 9.50879 24.9734 9.4243 24.9254C9.33982 24.8774 9.26623 24.8122 9.20827 24.7339C9.1503 24.6556 9.10922 24.566 9.08767 24.4709C9.06612 24.3757 9.06456 24.2771 9.0831 24.1813C9.10164 24.0855 9.13987 23.9947 9.19534 23.9146C9.25081 23.8345 9.3223 23.7669 9.40523 23.7163C9.48816 23.6656 9.5807 23.6328 9.67693 23.6202L9.68695 23.6177L9.69304 23.6159C9.75103 23.6022 9.82549 23.5828 9.87848 23.5727C10.0993 23.5418 10.3218 23.5238 10.5447 23.5187C10.9653 23.491 11.3821 23.4222 11.7894 23.3131C11.9101 23.2358 12.0121 23.1324 12.088 23.0103L12.3787 22.925C12.0632 20.7211 12.5679 18.4776 13.796 16.6249L13.5733 16.4255C13.5652 16.2806 13.5168 16.1409 13.4337 16.0223C13.1139 15.7458 12.7679 15.5014 12.4009 15.2925C12.2027 15.1909 12.0105 15.0779 11.8252 14.9541C11.783 14.9224 11.7271 14.8749 11.6813 14.8375L11.6709 14.8303C11.513 14.7162 11.4063 14.5438 11.3743 14.3509C11.3423 14.158 11.3876 13.9602 11.5002 13.8007C11.5667 13.7188 11.6515 13.6538 11.7476 13.611C11.8438 13.5682 11.9486 13.5488 12.0536 13.5544C12.2303 13.562 12.3999 13.6264 12.5376 13.738C12.5849 13.7755 12.6497 13.8251 12.6916 13.8615C12.8532 14.0153 13.006 14.1783 13.1491 14.3497C13.4329 14.6632 13.7464 14.9481 14.0852 15.2004C14.2122 15.2675 14.3602 15.282 14.4976 15.2407C14.5374 15.2702 14.6716 15.3667 14.7482 15.4196C15.9685 14.1153 17.5486 13.2075 19.2857 12.8128C19.6992 12.7187 20.1187 12.6538 20.5412 12.6188L20.5577 12.3236C20.6656 12.2272 20.7438 12.1017 20.7832 11.9621C20.7984 11.5384 20.7725 11.1143 20.7059 10.6956C20.6617 10.4762 20.63 10.2544 20.611 10.0314C20.6092 9.98064 20.6121 9.91044 20.6128 9.85248C20.6128 9.846 20.611 9.83952 20.611 9.83304C20.6011 9.73537 20.6116 9.63669 20.642 9.54338C20.6724 9.45007 20.7218 9.3642 20.7873 9.29132C20.8527 9.21843 20.9326 9.16016 21.0218 9.12026C21.111 9.08035 21.2075 9.05971 21.3051 9.05966C21.4027 9.05961 21.4993 9.08015 21.5885 9.11996C21.6778 9.15977 21.7577 9.21796 21.8232 9.29078C21.8887 9.36359 21.9383 9.44941 21.9687 9.54269C21.9992 9.63597 22.0098 9.73464 22 9.83232C22 9.89352 22.0036 9.97488 22.0014 10.031C21.9824 10.254 21.9506 10.4756 21.9062 10.6949C21.8392 11.1136 21.8128 11.5379 21.8275 11.9618C21.8549 12.1035 21.9364 12.2288 22.0544 12.311C22.0569 12.3614 22.0652 12.5298 22.0713 12.6227C24.2666 12.8235 26.3149 13.8187 27.8356 15.4236L28.0998 15.2338C28.2418 15.2583 28.3877 15.2424 28.5212 15.1878C28.8599 14.935 29.1735 14.6498 29.4573 14.336C29.6006 14.1645 29.7538 14.0015 29.9159 13.8478C29.9585 13.8111 30.0229 13.7618 30.0698 13.7243C30.1395 13.6552 30.2229 13.6016 30.3145 13.567C30.4061 13.5324 30.504 13.5175 30.6017 13.5234C30.6994 13.5293 30.7948 13.5558 30.8816 13.6011C30.9685 13.6465 31.0449 13.7097 31.1059 13.7867C31.1669 13.8636 31.2112 13.9527 31.2357 14.0479C31.2603 14.1432 31.2647 14.2426 31.2486 14.3397C31.2325 14.4368 31.1962 14.5294 31.1422 14.6115C31.0882 14.6936 31.0176 14.7634 30.9351 14.8162C30.8885 14.854 30.827 14.907 30.7822 14.9404C30.5965 15.0643 30.4038 15.1773 30.2051 15.2788C29.8381 15.4878 29.4922 15.7322 29.1723 16.0086C29.0792 16.1183 29.0324 16.2603 29.042 16.4042C29.0034 16.4399 28.8677 16.5608 28.7957 16.6264C30.0272 18.4724 30.542 20.7089 30.2424 22.9113L30.5227 22.9934C30.5928 23.1204 30.6965 23.2253 30.8223 23.2965C31.2297 23.4057 31.6467 23.4746 32.0674 23.5025C32.2902 23.5076 32.5125 23.5255 32.7333 23.5561C32.7916 23.5669 32.8761 23.5903 32.9355 23.604C33.0317 23.6168 33.1241 23.6496 33.2069 23.7004C33.2897 23.7512 33.361 23.8188 33.4164 23.8989C33.4717 23.9789 33.5098 24.0698 33.5283 24.1655C33.5467 24.2612 33.5451 24.3598 33.5235 24.4549C33.5019 24.5499 33.4609 24.6394 33.4029 24.7176C33.345 24.7958 33.2714 24.861 33.187 24.909C33.1026 24.957 33.0092 24.9868 32.9127 24.9964C32.8162 25.006 32.7187 24.9952 32.6266 24.9648L32.6166 24.9634C32.6119 24.9623 32.6076 24.9598 32.603 24.9587C32.5457 24.9461 32.4737 24.9335 32.4236 24.9202C32.2115 24.8517 32.0035 24.7709 31.8007 24.6783C31.4094 24.5196 31.0037 24.3996 30.5893 24.32C30.4458 24.3155 30.3062 24.3675 30.2005 24.4651C30.1019 24.4462 30.003 24.4288 29.9037 24.4129C29.2323 26.5376 27.8076 28.34 25.9007 29.4771Z" fill="#326CE5"/>
<path d="M39.4519 24.9273L36.3245 11.2658C36.2404 10.9123 36.0793 10.582 35.8528 10.2987C35.6264 10.0155 35.3402 9.78629 35.015 9.62776L22.3557 3.54977C22.0276 3.39228 21.6686 3.31055 21.305 3.31055C20.9415 3.31055 20.5825 3.39228 20.2543 3.54977L7.59617 9.63136C7.27096 9.78978 6.98476 10.0188 6.75824 10.302C6.53172 10.5851 6.37053 10.9153 6.28629 11.2687L3.16426 24.9309C3.09384 25.2459 3.0866 25.5718 3.14297 25.8896C3.19934 26.2074 3.31818 26.5107 3.49254 26.7817C3.5355 26.8479 3.58096 26.912 3.63036 26.9739L12.3918 37.9289C12.6214 38.2108 12.91 38.4383 13.237 38.5953C13.564 38.7522 13.9214 38.8347 14.2838 38.8369L28.3338 38.8336C28.6961 38.8316 29.0535 38.7492 29.3806 38.5925C29.7076 38.4357 29.9963 38.2084 30.2261 37.9268L38.9844 26.9707C39.2086 26.6866 39.367 26.3558 39.4479 26.0023C39.5288 25.6489 39.5301 25.2814 39.4519 24.9273ZM37.9387 25.567C37.9176 25.6638 37.8902 25.759 37.8567 25.8522C37.7761 26.0788 37.6588 26.2905 37.5094 26.4786L29.7268 36.2146L29.4822 36.5209C29.3315 36.7072 29.1514 36.8673 28.9492 36.9951C28.8711 37.0453 28.79 37.0908 28.7065 37.1312C28.6502 37.1573 28.5929 37.1811 28.5346 37.2024C28.4601 37.2309 28.3841 37.2554 28.307 37.2759C28.1996 37.305 28.0902 37.3259 27.9798 37.3385C27.9027 37.3473 27.8253 37.3519 27.7478 37.3522L14.9948 37.3551H14.8698C14.6792 37.3539 14.4895 37.3276 14.3056 37.277C14.0814 37.2173 13.8675 37.1237 13.6713 36.9994C13.5159 36.9 13.3735 36.7815 13.2474 36.6466C13.2091 36.6059 13.1704 36.5659 13.1354 36.5224L5.10492 26.4818C5.06006 26.4252 5.01805 26.3664 4.97891 26.3054C4.88814 26.1642 4.81401 26.0128 4.75803 25.8543C4.72484 25.7614 4.69782 25.6664 4.67713 25.5699C4.60701 25.2534 4.60726 24.9251 4.67784 24.6087L7.53997 12.0866C7.61711 11.7627 7.7648 11.46 7.97237 11.2005C8.17995 10.9409 8.44224 10.731 8.74031 10.5857L20.342 5.01176C20.6428 4.86743 20.9718 4.79253 21.305 4.79253C21.6383 4.79253 21.9673 4.86743 22.268 5.01176L33.8716 10.5832C34.1696 10.7286 34.4318 10.9386 34.6393 11.1982C34.8468 11.4578 34.9944 11.7605 35.0715 12.0844L37.9383 24.6065C38.0089 24.9229 38.009 25.2506 37.9387 25.567Z" fill="white"/>
<path d="M32.9369 23.6049C32.8775 23.5912 32.793 23.5678 32.735 23.557C32.5143 23.5263 32.292 23.5083 32.0692 23.503C31.6484 23.4753 31.2312 23.4065 30.8237 23.2974C30.6979 23.2262 30.5942 23.1213 30.5241 22.9943L30.2438 22.9122C30.5435 20.7098 30.0289 18.4734 28.7975 16.6272C28.8691 16.5617 29.0051 16.4408 29.0434 16.4051C29.0338 16.2612 29.0806 16.1192 29.1737 16.0095C29.4937 15.7331 29.8396 15.4887 30.2065 15.2797C30.4052 15.1782 30.5979 15.0652 30.7836 14.9413C30.8284 14.9079 30.8896 14.8549 30.9365 14.8171C31.0192 14.7643 31.0899 14.6946 31.1441 14.6125C31.1983 14.5304 31.2346 14.4378 31.2509 14.3406C31.2671 14.2435 31.2628 14.144 31.2382 14.0486C31.2137 13.9532 31.1695 13.8641 31.1084 13.787C31.0474 13.71 30.9709 13.6467 30.8839 13.6013C30.797 13.5559 30.7015 13.5295 30.6037 13.5236C30.5059 13.5178 30.408 13.5327 30.3163 13.5675C30.2246 13.6022 30.1413 13.656 30.0716 13.7252C30.0243 13.7627 29.9599 13.812 29.9177 13.8487C29.7554 14.0024 29.6022 14.1654 29.4587 14.3369C29.1749 14.6507 28.8613 14.9359 28.5226 15.1887C28.3891 15.2433 28.2432 15.2592 28.1012 15.2347L27.837 15.4245C26.3163 13.8196 24.268 12.8244 22.0727 12.6236C22.0662 12.5307 22.0583 12.3626 22.0558 12.3118C21.9379 12.2296 21.8566 12.1043 21.8292 11.9626C21.8146 11.5388 21.841 11.1145 21.908 10.6958C21.9522 10.4765 21.9837 10.2549 22.0025 10.0319C22.0046 9.97576 22.0014 9.89404 22.0014 9.8332C22.0112 9.73552 22.0006 9.63686 21.9701 9.54358C21.9397 9.4503 21.8901 9.36448 21.8246 9.29167C21.7591 9.21885 21.6792 9.16066 21.5899 9.12085C21.5007 9.08104 21.4042 9.0605 21.3065 9.06055C21.2089 9.0606 21.1124 9.08124 21.0232 9.12114C20.934 9.16105 20.8541 9.21932 20.7887 9.2922C20.7233 9.36508 20.6738 9.45095 20.6434 9.54427C20.6131 9.63758 20.6025 9.73625 20.6124 9.83392C20.6124 9.8404 20.6139 9.84688 20.6142 9.85336C20.6135 9.91132 20.6106 9.98152 20.6124 10.0323C20.6314 10.2553 20.6631 10.4771 20.7073 10.6965C20.7739 11.1151 20.7998 11.5393 20.7846 11.963C20.7452 12.1025 20.6669 12.2278 20.5591 12.3241L20.5426 12.6197C20.1201 12.6547 19.7006 12.7195 19.2871 12.8137C17.5502 13.2084 15.9702 14.1162 14.75 15.4205C14.6655 15.3619 14.5818 15.3023 14.499 15.2416C14.3616 15.2829 14.2136 15.2684 14.0866 15.2013C13.7478 14.949 13.4343 14.6641 13.1505 14.3506C13.0075 14.1792 12.8549 14.0162 12.6933 13.8624C12.6511 13.826 12.5863 13.7764 12.539 13.7386C12.4013 13.6269 12.2317 13.5626 12.055 13.5549C11.95 13.5494 11.8452 13.5688 11.749 13.6115C11.6529 13.6543 11.5681 13.7193 11.5016 13.8012C11.389 13.9607 11.3437 14.1585 11.3757 14.3514C11.4077 14.5444 11.5144 14.7167 11.6723 14.8308L11.6831 14.8384C11.7285 14.8758 11.7844 14.9237 11.8266 14.9547C12.0119 15.0786 12.2041 15.1917 12.4023 15.2934C12.7694 15.5024 13.1153 15.7469 13.4351 16.0235C13.5181 16.142 13.5665 16.2816 13.5747 16.4264L13.797 16.6262C12.569 18.4789 12.0645 20.7224 12.3801 22.9263L12.0894 23.0112C12.0135 23.1331 11.9115 23.2365 11.7908 23.3136C11.3836 23.4229 10.9667 23.492 10.5461 23.5199C10.3232 23.525 10.1007 23.5431 9.87988 23.5739C9.82654 23.5836 9.75244 23.6027 9.69444 23.6171L9.68836 23.6186L9.67833 23.6214C9.58215 23.6342 9.48967 23.667 9.40681 23.7177C9.32395 23.7684 9.25253 23.836 9.19712 23.9161C9.14172 23.9961 9.10355 24.087 9.08505 24.1827C9.06655 24.2785 9.06814 24.3771 9.08971 24.4722C9.11128 24.5673 9.15236 24.6569 9.21031 24.7351C9.26826 24.8134 9.34182 24.8786 9.42627 24.9266C9.51072 24.9746 9.60421 25.0043 9.70075 25.0139C9.79729 25.0235 9.89476 25.0127 9.98692 24.9823L9.9973 24.9808C10.002 24.9797 10.0059 24.9772 10.0105 24.9765C10.0678 24.9635 10.1398 24.9495 10.1903 24.9358C10.4023 24.8678 10.6102 24.7876 10.8132 24.6957C11.2042 24.5371 11.6097 24.4171 12.0239 24.3375C12.1675 24.3463 12.3058 24.3955 12.423 24.4793L12.7259 24.4271C13.4055 26.5388 14.83 28.3273 16.7307 29.4553L16.6044 29.7599C16.6631 29.8826 16.6847 30.0199 16.6663 30.1548C16.4932 30.5527 16.2827 30.933 16.0377 31.2907C15.903 31.4693 15.7787 31.6556 15.6654 31.8487C15.6378 31.9012 15.6027 31.9819 15.5762 32.0369C15.5261 32.1209 15.494 32.2144 15.4819 32.3115C15.4699 32.4087 15.4782 32.5072 15.5064 32.601C15.5345 32.6947 15.5819 32.7814 15.6454 32.8556C15.7089 32.9298 15.7871 32.9898 15.875 33.0318C15.963 33.0737 16.0587 33.0967 16.156 33.0992C16.2533 33.1017 16.35 33.0838 16.44 33.0464C16.53 33.0091 16.6112 32.9532 16.6784 32.8824C16.7456 32.8116 16.7973 32.7274 16.8303 32.6353L16.8313 32.6338V32.6324C16.8578 32.5777 16.8951 32.506 16.9172 32.4549C16.9964 32.2456 17.0633 32.0319 17.1177 31.8148C17.2376 31.3734 17.4186 30.951 17.6554 30.5602C17.7382 30.4821 17.8425 30.4309 17.9547 30.4133L18.1122 30.1271C20.1738 30.9243 22.4551 30.93 24.5206 30.1433C24.5646 30.2225 24.647 30.3737 24.6688 30.4119C24.8106 30.4347 24.9378 30.5125 25.0232 30.6286C25.2198 31.0035 25.3795 31.3968 25.5001 31.8029C25.555 32.02 25.6223 32.2337 25.7016 32.443C25.7242 32.4945 25.761 32.5672 25.7875 32.622C25.8203 32.7142 25.8719 32.7985 25.9391 32.8695C26.0062 32.9404 26.0874 32.9965 26.1774 33.034C26.2674 33.0715 26.3641 33.0896 26.4615 33.0872C26.5589 33.0848 26.6547 33.062 26.7427 33.0201C26.8308 32.9782 26.9092 32.9183 26.9728 32.8441C27.0364 32.77 27.0839 32.6832 27.1122 32.5895C27.1405 32.4958 27.1489 32.3971 27.137 32.2999C27.1251 32.2027 27.0931 32.1091 27.043 32.0251C27.0165 31.97 26.98 31.8893 26.9524 31.8371C26.8391 31.6446 26.7148 31.4587 26.5801 31.2806C26.3394 30.932 26.1332 30.5606 25.9644 30.1718C25.9278 30.0328 25.9469 29.8848 26.0177 29.7599C25.9733 29.6685 25.9346 29.5744 25.9021 29.478C27.809 28.3409 29.2337 26.5385 29.9051 24.4138C29.995 24.4282 30.1514 24.4556 30.2023 24.466C30.3079 24.3685 30.4473 24.3164 30.5907 24.3209C31.005 24.4005 31.4106 24.5205 31.8017 24.6791C32.0047 24.7718 32.2128 24.8526 32.425 24.9211C32.4751 24.9344 32.5467 24.947 32.6044 24.9596C32.609 24.961 32.6133 24.9632 32.618 24.9643L32.628 24.9657C32.7201 24.9961 32.8176 25.0069 32.9141 24.9973C33.0106 24.9877 33.104 24.9579 33.1884 24.9099C33.2728 24.8619 33.3464 24.7967 33.4043 24.7185C33.4623 24.6403 33.5033 24.5508 33.5249 24.4558C33.5465 24.3607 33.5481 24.2621 33.5297 24.1664C33.5112 24.0706 33.4731 23.9798 33.4178 23.8997C33.3624 23.8197 33.2911 23.7521 33.2083 23.7013C33.1255 23.6505 33.0331 23.6177 32.9369 23.6049ZM26.3385 16.4919L23.3707 18.6076L23.3603 18.603C23.2329 18.6965 23.0744 18.7369 22.918 18.7159C22.7617 18.6948 22.6194 18.6139 22.5209 18.4899C22.4396 18.3884 22.3928 18.2634 22.3873 18.1331L22.3841 18.1317L22.1779 14.474C23.7472 14.67 25.209 15.379 26.3385 16.4919ZM20.7477 20.5009H21.8647L22.5592 21.3739L22.31 22.4629L21.3069 22.9482L20.301 22.4619L20.0514 21.3725L20.7477 20.5009ZM19.6967 14.6022C19.9414 14.5468 20.1887 14.504 20.4377 14.474L20.2312 18.1371L20.2161 18.1443C20.2115 18.2556 20.1769 18.3634 20.1161 18.4565C20.0552 18.5495 19.9705 18.6242 19.8708 18.6727C19.7711 18.7211 19.6602 18.7414 19.5499 18.7315C19.4396 18.7216 19.3341 18.6817 19.2445 18.6163L19.2388 18.6195L16.2517 16.4897C17.2027 15.55 18.3959 14.8962 19.6967 14.6022ZM15.1685 17.8588L17.8956 20.3115L17.8928 20.3267C17.9763 20.3998 18.0385 20.4944 18.0728 20.6003C18.1071 20.7062 18.1122 20.8195 18.0875 20.9281C18.0628 21.0367 18.0093 21.1365 17.9326 21.2169C17.856 21.2974 17.759 21.3553 17.6522 21.3847L17.6493 21.3966L14.1536 22.4111C13.9793 20.8224 14.3364 19.2206 15.1685 17.8588ZM18.82 24.3749L17.431 27.75C16.0979 26.8918 15.0836 25.6152 14.5456 24.1182L18.1298 23.5062L18.1358 23.5142C18.1755 23.5065 18.2158 23.5029 18.2561 23.5034C18.3566 23.5049 18.4552 23.5313 18.5431 23.5802C18.6311 23.6291 18.7057 23.6991 18.7604 23.7838C18.8151 23.8686 18.8482 23.9657 18.8568 24.0664C18.8654 24.1671 18.8491 24.2683 18.8096 24.3613L18.82 24.3749ZM22.9197 28.7155C21.6201 29.0151 20.2632 28.945 19.0011 28.5128L20.7638 25.3074H20.7667C20.8191 25.2094 20.8969 25.1275 20.9918 25.0704C21.0867 25.0133 21.1953 24.983 21.3059 24.9829C21.4165 24.9828 21.5251 25.0128 21.6201 25.0697C21.7152 25.1267 21.7931 25.2084 21.8457 25.3063H21.8589L23.626 28.5172C23.3966 28.5942 23.1612 28.6603 22.9197 28.7155ZM25.1972 27.7637L23.7939 24.3541L23.7982 24.3479C23.7359 24.2021 23.732 24.0377 23.7873 23.889C23.8426 23.7403 23.9528 23.6188 24.0949 23.5498C24.1682 23.5137 24.248 23.4929 24.3294 23.4886C24.3766 23.4864 24.4238 23.4899 24.4701 23.499L24.4762 23.4915L28.0923 24.106C27.5584 25.615 26.5398 26.902 25.1972 27.7637ZM28.4721 22.3992L24.9588 21.3815L24.9556 21.3667C24.8488 21.3371 24.752 21.279 24.6755 21.1985C24.599 21.1181 24.5456 21.0183 24.5209 20.9097C24.4963 20.8011 24.5014 20.6879 24.5356 20.582C24.5698 20.4761 24.6319 20.3815 24.7153 20.3083L24.7139 20.3011L27.426 17.8603C28.2565 19.2185 28.6238 20.8121 28.4721 22.3992Z" fill="white"/>
</svg>
