<svg fill="none" height="90" viewBox="0 0 77 90" width="77" xmlns="http://www.w3.org/2000/svg"><g fill="#b3b3b3"><path d="m68.012 59.7581c-1.1653-1.4323-2.1276-3.0037-2.8203-4.716-.3394-.8383-.623-1.6921-.843-2.5691-.1906-.7595-.437-1.6334-.4215-2.4176-.076-.1113-.0326-.2366-.0434-.3557v-.0433c-.014-.0449-.0388-.0882-.0419-.1346-.0061-.0866-.0015-.1748-.0015-.2614v-.0881c-.0139-.0449-.0387-.0897-.0418-.1346-.0062-.1005-.0016-.2026-.0016-.3047v-.3078c-.0589 0-.0434-.0449-.0434-.0774 0-.2227 0-.447 0-.6697v-1.143c0-.0511.0078-.1021-.0015-.1516-.0109-.0634.0232-.1067.0465-.1562v-.5708c.0139-.0433.0294-.0881.0433-.1314v-.0882c0-.0866-.0046-.1748.0016-.2614.0031-.0449.0279-.0897.0418-.1346v-.0433c.076-1.0332.2898-2.0788.5579-3.0795.1395-.5213.327-1.0364.516-1.5406.1891-.5042.5269-1.0255.6431-1.5467.3084-.3666.5006-.8863.7439-1.3024.2479-.4238.516-.8228.8011-1.2234.561-.7889 1.1762-1.5128 1.8596-2.198 1.4551-1.4554 3.0574-2.6402 4.7821-3.7554.0078-.2058-.3486-.5491-.4664-.7023-.2293-.2969-.4711-.5893-.7159-.8739-.4696-.5491-.9608-1.0873-1.4877-1.5823-1.1049-1.0363-2.3554-1.9782-3.6726-2.7269-1.3125-.747-2.7026-1.3735-4.1406-1.8359-.6121-.1965-1.2335-.3713-1.8565-.5306-.5966-.1516-1.4132-.4485-2.03-.3928-.0837-.1068-.2324.0185-.3161-.0882-.3688-.0124-1.015-.0217-1.3358-.1763-.2588.0247-.5083-.0743-.7686-.0464-.0496.0046-.1039-.0263-.1565-.0418h-.3084c-.1224.0309-.2325-.0495-.3518-.0433h-1.3652c-.2015.0727-.4107.034-.6168.0433h-.0434c-.0728.0139-.1472.0294-.22.0433-.4866-.0696-1.0847.1067-1.5667.1856-.454.0743-.9763.1145-1.4024.2954-.7826-.0031-1.7697.4115-2.5197.6327-.8492.2505-1.6844.5707-2.5151.877-1.7743.6542-3.654 1.1121-5.3989 1.8282-.2789.0108-.5253.1748-.8058.1794-.1379.1686-.7221.1315-.891.1315h-.2201c-1.1761-.3279-2.3833-.5274-3.5471-.9389-1.1746-.4145-2.3508-.8321-3.5176-1.2668-1.1266-.4191-2.2842-.7811-3.4464-1.0904-.5656-.15-1.1359-.2629-1.7077-.3851-.5408-.116-1.2955-.0418-1.7805-.2754h-.5285c-.0341-.0061-.0836.0217-.0883-.0433h-.7919c-.0139.014-.0294.0294-.0434.0433h-.8368c-.0031.0666-.0542.0372-.0883.0433h-.4401c-.0496.0233-.093.0557-.1565.0464-.0635-.0092-.1302-.0015-.1952-.0015h-.0884c-.1627.0541-.3192.0418-.485.0882h-.2201c-.1875.0897-.5671.1376-.781.1314-.1472.1145-.6353.0217-.7407.1764-.4168-.0526-1.0073.2181-1.4024.3294-.5145.1454-1.0228.3063-1.5248.4903-.8384.3063-1.6489.6713-2.4438 1.0735-.8384.4238-1.6395.9064-2.4221 1.4261-.4463.2969-.8817.6047-1.3079.9311-.31301.2413-.83524.9064-1.22109.9791-.05114.0588-.10073.116-.15187.1732-.08058.0897-.16271.1779-.24329.2661-1.10334.764-2.03002 2.0726-2.81568 3.1476-.8678 1.1863-1.63796 2.4655-2.29191 3.7802-.66169 1.3286-1.21956 2.7238-1.64571 4.1468-.19525.6527-.37036 1.3116-.51138 1.9783-.14101.6666-.435443 1.4214-.393603 2.1082-.162712.1593-.141017.8043-.164261 1.0239-.030993.2877-.069734.5692-.096078.8507-.026343.2707-.103825 2.4702-.179757 2.4779v2.6372c.013947.0185.04184.0356.04184.0541.003099.1284.00155.2568.00155.3852 0 .9156.075932 1.8591.176658 2.7686.12397.2583.094527.7053.131719.9915.027893.2165.007748.7347.133268.8986-.04184.198.04339.9807.176658 1.157-.013947.7904.297526 1.7107.474186 2.4825.17976.7857.37036 1.5653.56872 2.3479.22159.8724.48813 1.7324.75777 2.5908.15031.478.30527.9559.47108 1.4292.14102.4022.42615.8894.4618 1.3116.38585.7657.64929 1.6148.97471 2.4083.34247.8399.72988 1.6597 1.11574 2.481.41995.8924.86934 1.7772 1.35283 2.6387.24174.43.47109.8662.72213 1.29.21695.3666.609.7919.71903 1.2003 1.12658 1.4724 2.07654 3.0842 3.20774 4.5597.9685 1.2637 1.9541 2.4934 3.028 3.6735 1.0615 1.1663 2.2129 2.2923 3.499 3.2142.7346.5274 1.5094 1.0038 2.3338 1.3781.7299.331 1.8812.8693 2.7072.7765.1627.0866.3611-.0186.5005.0881h1.2769c.0605-.1469.7284-.0232.8787-.1314.454.1005 1.2707-.2135 1.7139-.3264.7019-.1794 1.39-.3975 2.0796-.6233.6276-.2058 1.2443-.4378 1.858-.6775.3192-.1253.6384-.2537.9608-.3743.2928-.1098.7484-.1671.9855-.3712.4866.0154 1.1591-.3372 1.6302-.4656.3812-.1021 1.1731-.4254 1.5621-.3264.5191-.2413 1.3698-.2552 1.937-.2629.1999.0634.7097-.034.9313-.0464.3998-.0217.7841-.0062 1.1839.0062.606.0185 1.1933.1005 1.7837.1717.6214.0742 1.2397.2196 1.8502.365.7439.1779 1.4892.5367 2.2408.6465.9267.5135 2.0796.8492 3.0853 1.1848.8926.2985 1.9045.7347 2.8513.792.2743.1453 1.0244.2799 1.3389.2196.3053.2212 1.2289.1315 1.5961.1315.0527-.014.1039-.0341.1566-.0418.0496-.0077.1007-.0015.1518-.0015.3487 0 .6757-.0573 1.0181-.113.2681-.0433.7795-.0077.9871-.1948 1.2537-.1748 2.5662-.9064 3.606-1.5963 1.1545-.7641 2.0502-1.8097 3.1504-2.6217.014-.0139.0295-.0294.0434-.0433 0-.2537.7175-.8584.9252-1.01-.0357-.1733.7267-.9018.8647-1.0781.251-.3202.5144-.6295.7655-.9482.5919-.7548 1.1498-1.5359 1.7185-2.3092 1.0646-1.4509 2.0269-2.9466 2.9629-4.4825.8802-1.4446 1.6271-2.9805 2.3214-4.5195.3564-.7889.7066-1.5839 1.0088-2.3944.0837-.2227.7779-2.4593.9236-2.4593v-.1315c-3.1752-1.5111-5.963-3.4554-8.1991-6.2008zm-11.1279-38.1812c.0108 0 .0217 0 .0341.0031-.0109-.0015-.0217-.0031-.0341-.0031zm.9251.0882c.0124.0108.0248.0278.0388.0356-.014-.0093-.0248-.0248-.0388-.0356z"/><path d="m38.3025 20.1803c.0031.1423.0015.2861.0015.4284v.1764c.014.0185.0419.0355.0419.0541.0046.099.0015.198.0015.297v.1222c.1596.0232.3286-.014.4851.0525h1.1885c.1147.0109.2139-.0634.3332-.0464.1069.0155.2185.0031.3285.0031.2588-.1237.9112-.1701 1.2025-.1763.1674-.1794.9159-.2073 1.1623-.2753.4649-.1268.9112-.2954 1.359-.4718.9189-.3619 1.7821-.8012 2.6266-1.3116 1.624-.9822 3.0636-2.2598 4.3762-3.6225 1.4473-1.5018 2.7165-3.2342 3.6866-5.081.4509-.85843.8275-1.74316 1.1606-2.65419.1565-.4269.2728-.86463.3921-1.30235.0899-.32636.3642-.91722.2789-1.25595.1069-.08353-.017-.23047.0884-.31554-.0698-.30625.0898-1.02548.1766-1.33329v-.0433c0-.11601-.0046-.23356.0016-.34957.0031-.04485.0279-.08971.0418-.13456v-2.28144c-.0713-.21809-.0248-.437727-.0883-.65891h-.3084c-.0604.14694-.7283.0232011-.8786.131473-.1736-.0386688-.9484.041762-1.0708.176328-.1844.026294-.3719.035575-.5393.131472-.3378 0-.6323.191796-.9654.219637-.172.120646-.3998.091257-.5703.216543-.2696-.061869-.8585.276867-1.1064.374307-.4727.18561-.9391.38978-1.3978.60787-.9189.43773-1.81.91567-2.6731 1.45857-1.6364 1.03013-3.1117 2.31083-4.3684 3.77714-1.1948 1.39515-2.357 3.00376-3.107 4.68666-.7299 1.6349-1.5652 3.4863-1.6814 5.3022-.1395.2026-.0434.5723-.1317.8027v.0433c0 .099.0015.198-.0016.297 0 .0186-.0279.0356-.0418.0541v.1315c0 .1717 0 .3449-.0016.5166 0 .0186-.0278.0371-.0418.0557v1.143c.014.0186.0418.0356.0418.0542z"/></g></svg>