<svg fill="none" height="101" viewBox="0 0 164 101" width="164" xmlns="http://www.w3.org/2000/svg"><path d="m78.878 37.6321 5.3673 9.3703h-10.735z" fill="#474747"/><path d="m84.2452 28.2615 5.3944 9.3707h-10.7617z" fill="#999"/><path d="m73.5102 28.2615 5.3677 9.3707h-10.7617z" fill="#999"/><path d="m78.8779 37.6321h10.7617l-5.3944 9.3703z" fill="#757575"/><path d="m68.1162 37.6321h10.7617l-5.3677 9.3703z" fill="#757575"/><path d="m73.5103 28.2615h10.735l-5.3673 9.3707z" fill="#c9c9c9"/><path d="m78.878 6.3252 8.9991 15.6533h-17.9982z" fill="#0028fc"/><path d="m60.9062 37.6321 8.9725 15.6533h-17.972z" fill="#0037fc"/><path d="m87.877 53.2856 8.9725 15.6538h-17.9716z" fill="#0059fc"/><path d="m96.8494 6.3252 8.9986 15.6533h-17.971z" fill="#39a2fc"/><path d="m105.849 21.9785 8.972 15.6538h-17.9714z" fill="#9edbfc"/><path d="m51.9068 21.9785 8.9995 15.6538h-17.9986z" fill="#0037fc"/><path d="m69.8784 53.2856h17.9717l-8.9992 15.6536z" fill="#0079fc"/><path d="m87.877 53.2856h17.972l-8.9996 15.6536z" fill="#0079fc"/><path d="m42.9077 37.6321h17.9717l-8.9992 15.6535z" fill="#0000d8"/><path d="m78.8779 6.32495h17.9717l-8.9992 15.65355z" fill="#0079fc"/><path d="m87.877 21.9785h17.972l-8.9996 15.6536z" fill="#4dbbfc"/><path d="m87.877 53.2854 8.9724-15.6533h17.9716l-8.973 15.6533z" fill="#0059fc"/><path d="m78.8778 68.9394-8.9991-15.6538h-17.972l8.9995 15.6538z" fill="#0000d8"/><path d="m78.8778 6.3252h-17.9716l-8.9995 15.6533 8.9995 15.6538z" fill="#0079fc"/><g fill="#000"><path d="m21.0107 93.6412c-.1602-.0805-.4539-.2148-.4539-.2148l.721-1.6378.4005.1611c1.3014.5849 2.7138.8781 4.1391.8592 2.4568 0 3.6851-.8055 3.6851-2.4434.0055-.1999-.035-.3985-.1184-.5801-.0833-.1817-.2073-.3415-.3622-.467-.3388-.3066-.7397-.5356-1.175-.6713-.454-.1611-1.1216-.349-1.9761-.5907-.9325-.233-1.8508-.5199-2.7505-.8592-.689-.2708-1.3094-.6928-1.8158-1.2351-.5251-.6078-.7934-1.3978-.7477-2.2017-.0058-.7812.2171-1.5469.6409-2.2017.463-.6873 1.1114-1.2276 1.8692-1.5573.9349-.4069 1.9455-.6083 2.9641-.5907 1.4274-.0153 2.8463.2209 4.1925.6981.1474.0394.2905.0934.4273.1611l-.6676 1.611c-.1175-.0295-.2334-.0654-.3471-.1074-1.0915-.376-2.2377-.5666-3.3914-.5638-.9413-.0429-1.8757.1803-2.6971.6444-.3179.1717-.583.4276-.7665.74-.1836.3124-.2787.6693-.275 1.0321-.0101.2306.0301.4607.1177.674.0877.2134.2207.4049.3897.5611.3595.3387.7877.5952 1.2551.7518.6632.2332 1.3413.4215 2.0295.5638.908.2045 1.8004.4737 2.6704.8055.6703.2628 1.2663.6869 1.7357 1.2351.5098.6465.7664 1.4585.721 2.2823.0128.7612-.2216 1.5059-.6676 2.1211-.485.6581-1.141 1.1691-1.8959 1.4768-.8975.3706-1.8606.5533-2.8306.537-1.7245.029-3.4355-.3096-5.0204-.9935z"/><path d="m39.8637 93.668c-1.0955-.626-1.9862-1.5589-2.5636-2.685-.6245-1.2203-.9452-2.5746-.9346-3.9469.0056-1.3705.3254-2.7211.9346-3.947.5856-1.1202 1.4743-2.051 2.5636-2.685 1.193-.6348 2.5223-.9666 3.872-.9666 1.3498 0 2.6791.3318 3.8721.9666 1.0834.6414 1.9704 1.5703 2.5635 2.685.6315 1.2092.9614 2.5544.9614 3.9201s-.3299 2.711-.9614 3.9201c-.5856 1.1202-1.4743 2.051-2.5635 2.685-1.1803.6676-2.5183 1.0016-3.8721.9666-1.3518.0851-2.6987-.2324-3.872-.9129zm6.8095-1.5841c.8139-.4947 1.4714-1.2117 1.8959-2.0675.4372-.9217.6565-1.9325.6409-2.9535.0185-1.0213-.2009-2.0328-.6409-2.9535-.4169-.861-1.0762-1.5799-1.8959-2.0674-.8904-.521-1.9078-.7814-2.9375-.7518-1.03-.0331-2.0484.2275-2.9374.7518-.8077.5023-1.4633 1.2173-1.896 2.0674-.4371.9217-.6564 1.9325-.6408 2.9535-.0186 1.0213.2009 2.0328.6408 2.9535.417.861 1.0763 1.5799 1.896 2.0675.889.5242 1.9074.7848 2.9374.7518 1.0311.0426 2.0521-.2187 2.9375-.7518z"/><path d="m54.7642 79.5718h2.0562l5.2339 13.0491 5.2072-13.0491h2.0829l-6.1685 14.9823h-2.2432z"/><path d="m78.9314 82.0151-5.2072 12.539h-2.0562l6.3288-14.9823h1.9227l6.3288 14.9823h-2.0562z"/><path d="m91.6157 94.4467v-14.8749h1.896l.0267 12.9417h7.8506v1.9063h-9.7733z"/><path d="m106.65 94.4467v-14.7675h10.281v1.799h-8.385v4.6719h7.61v1.7989h-7.61v4.6988h8.385v1.7989z"/><path d="m123.259 94.5541v-14.9823h1.362l9.533 11.3844v-11.3844h1.923v14.9823h-1.388l-9.507-11.3307-.027 11.3307z"/><path d="m146.011 94.5541v-13.0759h-5.18v-1.799h12.257v1.799h-5.181v13.0759z"/><path d="m13.5604 79.5718h-1.9227v14.9823h1.9227z"/></g><path d="m79.7587 88.8887.7479 1.2886-.7479 1.3159h-1.4952l-.7479-1.3159.7479-1.2886z" fill="#0000d8"/></svg>