<svg width="154" height="34" viewBox="0 0 154 34" fill="none" xmlns="http://www.w3.org/2000/svg">
<g clip-path="url(#clip0_5141_13505)">
<mask id="mask0_5141_13505" style="mask-type:luminance" maskUnits="userSpaceOnUse" x="3" y="7" width="39" height="24">
<path d="M3.08008 7.47266H41.4314V30.9201H3.08008V7.47266Z" fill="white"/>
</mask>
<g mask="url(#mask0_5141_13505)">
<mask id="mask1_5141_13505" style="mask-type:luminance" maskUnits="userSpaceOnUse" x="-72" y="-9" width="182" height="117">
<path d="M-71.877 -8.17188H109.139V107.775H-71.877V-8.17188Z" fill="white"/>
</mask>
<g mask="url(#mask1_5141_13505)">
<mask id="mask2_5141_13505" style="mask-type:luminance" maskUnits="userSpaceOnUse" x="3" y="7" width="39" height="25">
<path d="M3.08008 7.32617H41.4391V31.0117H3.08008V7.32617Z" fill="white"/>
</mask>
<g mask="url(#mask2_5141_13505)">
<mask id="mask3_5141_13505" style="mask-type:luminance" maskUnits="userSpaceOnUse" x="3" y="7" width="39" height="24">
<path d="M33.8701 30.9273C35.4966 30.9287 37.0861 30.4393 38.434 29.5222C39.7818 28.605 40.826 27.3022 41.4322 25.7816H36.2104V21.4961H35.5777V18.2397H36.2104V15.8281H38.322C38.1314 15.7052 37.9408 15.59 37.7426 15.4825H30.7752V9.21552C28.3549 7.71579 25.4734 7.16042 22.6746 7.65421C19.8757 8.148 17.353 9.6568 15.5825 11.8959C14.6243 11.4749 13.5774 11.3002 12.5356 11.3876C11.4939 11.4749 10.49 11.8216 9.61407 12.3965C8.73817 12.9713 8.0177 13.7564 7.51735 14.6811C7.01701 15.6058 6.75246 16.6412 6.74747 17.6944C6.74825 18.0519 6.77628 18.4088 6.83132 18.7619C5.51317 19.3552 4.43671 20.3857 3.78142 21.6817C3.12614 22.9778 2.93164 24.4609 3.23035 25.884C3.52907 27.307 4.30294 28.5838 5.42294 29.5016C6.54294 30.4193 7.94136 30.9225 9.38503 30.9273H33.8701Z" fill="white"/>
</mask>
<g mask="url(#mask3_5141_13505)">
<mask id="mask4_5141_13505" style="mask-type:luminance" maskUnits="userSpaceOnUse" x="3" y="7" width="39" height="25">
<path d="M3.08008 7.32617H41.4391V31.0117H3.08008V7.32617Z" fill="white"/>
</mask>
<g mask="url(#mask4_5141_13505)">
<path d="M2.19531 6.58203H42.3152V31.8113H2.19531V6.58203Z" fill="#0066CC"/>
</g>
</g>
</g>
</g>
</g>
<mask id="mask5_5141_13505" style="mask-type:luminance" maskUnits="userSpaceOnUse" x="3" y="3" width="42" height="29">
<path d="M3.08008 3.10352H44.5721V31.0132H3.08008V3.10352Z" fill="white"/>
</mask>
<g mask="url(#mask5_5141_13505)">
<mask id="mask6_5141_13505" style="mask-type:luminance" maskUnits="userSpaceOnUse" x="-72" y="-9" width="182" height="117">
<path d="M-71.877 -8.17188H109.139V107.775H-71.877V-8.17188Z" fill="white"/>
</mask>
<g mask="url(#mask6_5141_13505)">
<mask id="mask7_5141_13505" style="mask-type:luminance" maskUnits="userSpaceOnUse" x="31" y="7" width="14" height="21">
<path d="M31.8945 7.85742H44.625V27.0885H31.8945V7.85742Z" fill="white"/>
</mask>
<g mask="url(#mask7_5141_13505)">
<mask id="mask8_5141_13505" style="mask-type:luminance" maskUnits="userSpaceOnUse" x="38" y="8" width="5" height="5">
<path d="M38.0078 8.00391H42.0251V12.059H38.0078V8.00391Z" fill="white"/>
</mask>
<g mask="url(#mask8_5141_13505)">
<mask id="mask9_5141_13505" style="mask-type:luminance" maskUnits="userSpaceOnUse" x="31" y="7" width="14" height="21">
<path d="M31.8945 7.85742H44.625V27.0885H31.8945V7.85742Z" fill="white"/>
</mask>
<g mask="url(#mask9_5141_13505)">
<path d="M37.123 7.10547H42.9089V12.9424H37.123V7.10547Z" fill="#0066CC"/>
</g>
</g>
<mask id="mask10_5141_13505" style="mask-type:luminance" maskUnits="userSpaceOnUse" x="35" y="20" width="7" height="7">
<path d="M41.4303 20.0996H38.8003V21.4974H35.7969V26.9733L41.4303 25.7829V20.0996Z" fill="white"/>
</mask>
<g mask="url(#mask10_5141_13505)">
<mask id="mask11_5141_13505" style="mask-type:luminance" maskUnits="userSpaceOnUse" x="31" y="7" width="14" height="21">
<path d="M31.8945 7.85742H44.625V27.0885H31.8945V7.85742Z" fill="white"/>
</mask>
<g mask="url(#mask11_5141_13505)">
<path d="M34.9141 19.209H42.316V27.8645H34.9141V19.209Z" fill="#0066CC"/>
</g>
</g>
<mask id="mask12_5141_13505" style="mask-type:luminance" maskUnits="userSpaceOnUse" x="40" y="11" width="5" height="4">
<path d="M40.6523 11.0215H44.5706V14.9691H40.6523V11.0215Z" fill="white"/>
</mask>
<g mask="url(#mask12_5141_13505)">
<mask id="mask13_5141_13505" style="mask-type:luminance" maskUnits="userSpaceOnUse" x="31" y="7" width="14" height="21">
<path d="M31.8926 7.85742H44.623V27.0885H31.8926V7.85742Z" fill="white"/>
</mask>
<g mask="url(#mask13_5141_13505)">
<path d="M39.7676 10.1309H45.4543V15.8602H39.7676V10.1309Z" fill="#0066CC"/>
</g>
</g>
<mask id="mask14_5141_13505" style="mask-type:luminance" maskUnits="userSpaceOnUse" x="31" y="8" width="5" height="4">
<path d="M31.9473 8.62695H35.1108V11.8142H31.9473V8.62695Z" fill="white"/>
</mask>
<g mask="url(#mask14_5141_13505)">
<mask id="mask15_5141_13505" style="mask-type:luminance" maskUnits="userSpaceOnUse" x="31" y="7" width="14" height="21">
<path d="M31.8945 7.85938H44.625V27.0905H31.8945V7.85938Z" fill="white"/>
</mask>
<g mask="url(#mask15_5141_13505)">
<path d="M31.0645 7.73633H35.9965V12.7054H31.0645V7.73633Z" fill="#0066CC"/>
</g>
</g>
<mask id="mask16_5141_13505" style="mask-type:luminance" maskUnits="userSpaceOnUse" x="38" y="17" width="6" height="6">
<path d="M38.8008 17.75H43.6719V22.6576H38.8008V17.75Z" fill="white"/>
</mask>
<g mask="url(#mask16_5141_13505)">
<mask id="mask17_5141_13505" style="mask-type:luminance" maskUnits="userSpaceOnUse" x="31" y="7" width="14" height="21">
<path d="M31.8945 7.85742H44.625V27.0885H31.8945V7.85742Z" fill="white"/>
</mask>
<g mask="url(#mask17_5141_13505)">
<path d="M37.9238 16.8594H44.5635V23.5488H37.9238V16.8594Z" fill="#0066CC"/>
</g>
</g>
<mask id="mask18_5141_13505" style="mask-type:luminance" maskUnits="userSpaceOnUse" x="34" y="13" width="6" height="6">
<path d="M34.25 13.1191H39.3345V18.2418H34.25V13.1191Z" fill="white"/>
</mask>
<g mask="url(#mask18_5141_13505)">
<mask id="mask19_5141_13505" style="mask-type:luminance" maskUnits="userSpaceOnUse" x="31" y="7" width="14" height="21">
<path d="M31.8945 7.85742H44.625V27.0885H31.8945V7.85742Z" fill="white"/>
</mask>
<g mask="url(#mask19_5141_13505)">
<path d="M33.3652 12.2266H40.2183V19.131H33.3652V12.2266Z" fill="#0066CC"/>
</g>
</g>
</g>
</g>
</g>
<mask id="mask20_5141_13505" style="mask-type:luminance" maskUnits="userSpaceOnUse" x="15" y="22" width="15" height="9">
<path d="M18.7534 23.2552L15.9482 22.6484L15.2773 23.5163V26.7036L16.6266 27.4716C16.6266 27.4716 19.0202 30.8124 21.8331 30.8124C24.646 30.8124 27.5351 27.4101 28.1069 26.7112C28.3205 26.3433 28.6632 26.0692 29.0674 25.9432L28.7624 24.7912L28.6557 22.6484H23.1214L18.7534 23.2552Z" fill="white"/>
</mask>
<g mask="url(#mask20_5141_13505)">
<mask id="mask21_5141_13505" style="mask-type:luminance" maskUnits="userSpaceOnUse" x="-72" y="-9" width="182" height="117">
<path d="M-71.877 -8.17188H109.139V107.775H-71.877V-8.17188Z" fill="white"/>
</mask>
<g mask="url(#mask21_5141_13505)">
<path d="M14.3926 21.75H29.9511V31.7265H14.3926V21.75Z" fill="white"/>
</g>
</g>
<mask id="mask22_5141_13505" style="mask-type:luminance" maskUnits="userSpaceOnUse" x="15" y="18" width="14" height="5">
<path d="M17.1287 21.4575C17.0372 22.8553 16.5265 22.0719 16.5265 22.0719C16.5265 22.0719 14.7732 18.9154 16.0005 18.6158C17.2278 18.3163 17.1287 21.4575 17.1287 21.4575ZM27.618 22.0719C27.618 22.0719 27.1072 22.8399 27.0081 21.4575C27.0081 21.4575 26.9166 18.3163 28.1439 18.6158C29.3712 18.9154 27.618 22.0719 27.618 22.0719Z" fill="white"/>
</mask>
<g mask="url(#mask22_5141_13505)">
<mask id="mask23_5141_13505" style="mask-type:luminance" maskUnits="userSpaceOnUse" x="-72" y="-9" width="182" height="117">
<path d="M-71.877 -8.17188H109.139V107.775H-71.877V-8.17188Z" fill="white"/>
</mask>
<g mask="url(#mask23_5141_13505)">
<path d="M14.6816 17.7031H29.4627V23.1791H14.6816V17.7031Z" fill="white"/>
</g>
</g>
<mask id="mask24_5141_13505" style="mask-type:luminance" maskUnits="userSpaceOnUse" x="4" y="24" width="13" height="8">
<path d="M16.7012 27.5865C15.4468 27.7283 14.2266 28.0895 13.0955 28.654C12.2875 29.0073 11.5709 29.3683 11.0144 29.5987C10.458 29.8291 9.84049 30.1286 9.23828 30.3667C8.23862 30.7587 7.18385 30.9894 6.11284 31.0502C5.21333 31.0502 4.86267 30.9581 4.74832 30.8198C4.73153 30.8075 4.71792 30.7913 4.70863 30.7726C4.69934 30.7539 4.69466 30.7332 4.69496 30.7123C4.6746 30.6552 4.6746 30.5928 4.69496 30.5357C5.68348 29.5664 6.82135 28.765 8.06433 28.1625C9.30034 27.5234 10.5731 26.9592 11.8758 26.4729C12.6381 26.1964 13.2099 26.0121 13.4767 25.9429C14.176 25.7405 14.8218 25.3837 15.3672 24.8984C15.5338 25.9051 15.9866 26.8415 16.6707 27.5942" fill="white"/>
</mask>
<g mask="url(#mask24_5141_13505)">
<mask id="mask25_5141_13505" style="mask-type:luminance" maskUnits="userSpaceOnUse" x="-72" y="-9" width="182" height="117">
<path d="M-71.8789 -8.17188H109.137V107.775H-71.8789V-8.17188Z" fill="white"/>
</mask>
<g mask="url(#mask25_5141_13505)">
<path d="M3.80273 23.9922H17.5851V31.9335H3.80273V23.9922Z" fill="black"/>
</g>
</g>
<mask id="mask26_5141_13505" style="mask-type:luminance" maskUnits="userSpaceOnUse" x="14" y="3" width="16" height="27">
<path d="M23.6469 12.319C23.5146 12.1536 23.4115 11.9665 23.342 11.766C23.3039 11.597 23.2657 11.4281 23.2353 11.2514C23.0007 9.86273 22.9775 8.44611 23.1666 7.05039C23.28 6.0616 23.4999 5.08818 23.8222 4.14729C24.1195 3.46376 23.9366 3.30248 23.9366 3.30248C23.5325 2.87239 23.2353 3.30248 23.2353 3.30248C22.3133 4.37589 21.6529 5.65138 21.3066 7.02735C20.9738 8.41187 20.8277 9.83526 20.8721 11.2591V11.405C20.8607 11.7398 20.734 12.0602 20.5138 12.3113C12.5249 15.1299 15.2997 24.5995 15.3988 24.8914C15.6504 21.1665 17.7924 24.2462 18.9969 26.6117C20.2013 28.9772 22.0461 29.054 22.0461 29.054C22.0461 29.054 23.9213 28.9772 25.0953 26.6117C26.2692 24.2462 28.4341 21.1742 28.6857 24.8914C28.7848 24.5688 31.5596 15.1453 23.5935 12.319M17.0759 21.4583C16.9844 22.8561 16.4736 22.0728 16.4736 22.0728C16.4736 22.0728 14.7204 18.9162 15.9477 18.6167C17.175 18.3172 17.0759 21.4583 17.0759 21.4583ZM27.5651 22.0728C27.5651 22.0728 27.0544 22.8408 26.9553 21.4583C26.9553 21.4583 26.8638 18.3172 28.0911 18.6167C29.3184 18.9162 27.5651 22.0728 27.5651 22.0728Z" fill="white"/>
</mask>
<g mask="url(#mask26_5141_13505)">
<mask id="mask27_5141_13505" style="mask-type:luminance" maskUnits="userSpaceOnUse" x="-72" y="-9" width="182" height="117">
<path d="M-71.877 -8.17188H109.139V107.775H-71.877V-8.17188Z" fill="white"/>
</mask>
<g mask="url(#mask27_5141_13505)">
<path d="M13.9727 2.21094H30.1715V29.9363H13.9727V2.21094Z" fill="black"/>
</g>
</g>
<mask id="mask28_5141_13505" style="mask-type:luminance" maskUnits="userSpaceOnUse" x="27" y="24" width="13" height="8">
<path d="M27.4355 24.8828H39.4494V31.0423H27.4355V24.8828Z" fill="white"/>
</mask>
<g mask="url(#mask28_5141_13505)">
<mask id="mask29_5141_13505" style="mask-type:luminance" maskUnits="userSpaceOnUse" x="-72" y="-9" width="182" height="117">
<path d="M-71.877 -8.17188H109.139V107.775H-71.877V-8.17188Z" fill="white"/>
</mask>
<g mask="url(#mask29_5141_13505)">
<mask id="mask30_5141_13505" style="mask-type:luminance" maskUnits="userSpaceOnUse" x="27" y="24" width="13" height="8">
<path d="M27.2988 24.7754H39.4956V31.1883H27.2988V24.7754Z" fill="white"/>
</mask>
<g mask="url(#mask30_5141_13505)">
<mask id="mask31_5141_13505" style="mask-type:luminance" maskUnits="userSpaceOnUse" x="27" y="24" width="13" height="8">
<path d="M39.4494 30.7044C39.4398 30.7461 39.4216 30.7853 39.396 30.8196C39.2741 30.9501 38.9234 31.0807 38.0315 31.0423C36.9604 30.9822 35.9055 30.7515 34.9061 30.3588C34.2963 30.1284 33.7093 29.8672 33.1223 29.5907C32.5353 29.3143 31.8493 28.9994 31.0412 28.6461C29.9101 28.0816 28.6899 27.7203 27.4355 27.5785C28.1245 26.8292 28.5781 25.8913 28.7391 24.8828C29.2845 25.368 29.9303 25.7248 30.6296 25.9273C30.904 25.9964 31.4834 26.1808 32.238 26.4572C33.5414 26.942 34.8143 27.5062 36.0495 28.1469C37.2947 28.7456 38.4332 29.5474 39.4189 30.52C39.4561 30.5708 39.4725 30.6341 39.4647 30.6967" fill="white"/>
</mask>
<g mask="url(#mask31_5141_13505)">
<mask id="mask32_5141_13505" style="mask-type:luminance" maskUnits="userSpaceOnUse" x="27" y="24" width="13" height="8">
<path d="M27.2988 24.7754H39.4956V31.1883H27.2988V24.7754Z" fill="white"/>
</mask>
<g mask="url(#mask32_5141_13505)">
<path d="M26.5586 23.9922H40.341V31.9335H26.5586V23.9922Z" fill="black"/>
</g>
</g>
</g>
</g>
</g>
<mask id="mask33_5141_13505" style="mask-type:luminance" maskUnits="userSpaceOnUse" x="9" y="0" width="185" height="42">
<path d="M9.25391 0.376953H193.449V41.3121H9.25391V0.376953Z" fill="white"/>
</mask>
<g mask="url(#mask33_5141_13505)">
<path d="M58.5852 11.9414C60.12 11.9414 61.4743 12.2507 62.6479 12.8692C63.8396 13.4877 64.7605 14.3609 65.4106 15.4888C66.0606 16.6167 66.3856 17.9265 66.3856 19.4182C66.3856 20.8917 66.0606 22.2015 65.4106 23.3476C64.7605 24.4755 63.8396 25.3578 62.6479 25.9945C61.4743 26.613 60.12 26.9223 58.5852 26.9223C57.0324 26.9223 55.6601 26.613 54.4684 25.9945C53.2947 25.3578 52.3829 24.4755 51.7329 23.3476C51.0828 22.2015 50.7578 20.8917 50.7578 19.4182C50.7578 17.9265 51.0828 16.6167 51.7329 15.4888C52.3829 14.3609 53.2947 13.4877 54.4684 12.8692C55.6601 12.2507 57.0324 11.9414 58.5852 11.9414ZM58.5852 15.4342C57.5019 15.4342 56.6171 15.8071 55.931 16.553C55.2629 17.2989 54.9288 18.2721 54.9288 19.4728C54.9288 20.6734 55.2629 21.6467 55.931 22.3925C56.6171 23.1384 57.5019 23.5113 58.5852 23.5113C59.6506 23.5113 60.5173 23.1384 61.1854 22.3925C61.8715 21.6467 62.2146 20.6734 62.2146 19.4728C62.2146 18.2721 61.8715 17.2989 61.1854 16.553C60.5173 15.8071 59.6506 15.4342 58.5852 15.4342Z" fill="black"/>
<path d="M74.0284 14.7247C74.534 13.8151 75.1931 13.1238 76.0056 12.6508C76.8181 12.1778 77.7661 11.9322 78.8495 11.9141V15.8708C78.705 15.8526 78.4884 15.8435 78.1995 15.8435C76.9175 15.8435 75.8973 16.1982 75.1389 16.9077C74.3986 17.599 74.0284 18.5267 74.0284 19.691V26.7585H69.8574V12.0778H74.0284V14.7247Z" fill="black"/>
<path d="M91.061 17.0715C90.2304 16.0345 89.1471 15.5161 87.8109 15.5161C86.7636 15.5161 85.9059 15.8799 85.2379 16.6076C84.5878 17.3171 84.2628 18.263 84.2628 19.4455C84.2628 20.6279 84.5878 21.5921 85.2379 22.338C85.8879 23.0656 86.7185 23.4295 87.7296 23.4295C89.2464 23.4295 90.3749 22.8564 91.1152 21.7104L93.9862 23.6751C93.3722 24.712 92.5055 25.5124 91.3861 26.0764C90.2846 26.6403 88.9936 26.9223 87.513 26.9223C86.0504 26.9223 84.7594 26.613 83.6399 25.9945C82.5204 25.376 81.6446 24.5028 81.0127 23.3749C80.3988 22.247 80.0918 20.9463 80.0918 19.4728C80.0918 17.9811 80.3988 16.6712 81.0127 15.5434C81.6446 14.3973 82.5204 13.515 83.6399 12.8965C84.7774 12.2598 86.0865 11.9414 87.5671 11.9414C88.9575 11.9414 90.1943 12.2143 91.2777 12.76C92.3611 13.2876 93.2278 14.0425 93.8778 15.0249L91.061 17.0715Z" fill="black"/>
<path d="M104.928 26.7585V25.0394C104.44 25.6579 103.808 26.1309 103.032 26.4583C102.255 26.7858 101.362 26.9495 100.35 26.9495C98.8157 26.9495 97.5969 26.5311 96.6941 25.6943C95.7913 24.8393 95.3398 23.7296 95.3398 22.3652C95.3398 20.9826 95.8183 19.9093 96.7753 19.1453C97.7504 18.363 99.1227 17.9628 100.892 17.9446H104.901V17.6717C104.901 16.8895 104.639 16.2892 104.115 15.8708C103.61 15.4342 102.86 15.2159 101.867 15.2159C100.513 15.2159 99.0685 15.6434 97.5337 16.4984L96.2336 13.6059C97.3892 13.0238 98.4726 12.5963 99.4838 12.3234C100.495 12.0505 101.605 11.9141 102.815 11.9141C104.765 11.9141 106.273 12.378 107.338 13.3057C108.422 14.2335 108.972 15.5251 108.99 17.1806L109.018 26.7585H104.928ZM101.515 23.9479C102.382 23.9479 103.131 23.7387 103.763 23.3203C104.395 22.9018 104.774 22.3743 104.901 21.7376V20.4278H101.623C100.811 20.4278 100.206 20.5642 99.8088 20.8371C99.4296 21.0918 99.24 21.5102 99.24 22.0923C99.24 22.6563 99.4386 23.1111 99.8359 23.4567C100.251 23.7841 100.811 23.9479 101.515 23.9479Z" fill="black"/>
<path d="M123.458 16.3892C122.664 15.9344 121.878 15.5887 121.102 15.3522C120.325 15.0976 119.63 14.9702 119.016 14.9702C118.511 14.9702 118.104 15.0612 117.797 15.2431C117.491 15.425 117.337 15.6979 117.337 16.0617C117.337 16.4619 117.545 16.7712 117.96 16.9895C118.375 17.2078 119.052 17.4534 119.991 17.7263C121.021 18.0355 121.869 18.3448 122.537 18.654C123.205 18.9451 123.783 19.3908 124.271 19.9911C124.758 20.5733 125.002 21.3464 125.002 22.3106C125.002 23.7659 124.442 24.9029 123.323 25.7215C122.221 26.5219 120.804 26.9222 119.07 26.9222C117.879 26.9222 116.732 26.7493 115.631 26.4037C114.529 26.0399 113.572 25.5305 112.76 24.8756L114.114 22.0377C114.854 22.6198 115.676 23.0746 116.579 23.4021C117.5 23.7113 118.366 23.866 119.179 23.866C119.739 23.866 120.181 23.775 120.506 23.5931C120.849 23.393 121.021 23.1019 121.021 22.7199C121.021 22.3015 120.804 21.974 120.371 21.7375C119.955 21.501 119.278 21.2463 118.339 20.9735C117.346 20.6824 116.515 20.3913 115.847 20.1003C115.197 19.8092 114.638 19.3726 114.168 18.7905C113.699 18.1901 113.464 17.417 113.464 16.471C113.464 15.0157 114.006 13.8878 115.089 13.0874C116.172 12.2869 117.545 11.8867 119.206 11.8867C120.199 11.8867 121.192 12.0323 122.185 12.3233C123.178 12.5962 124.081 12.9964 124.894 13.524L123.458 16.3892Z" fill="black"/>
<path d="M128.645 12.0784H132.816V26.7591H128.645V12.0784ZM130.73 5.55664C131.399 5.55664 131.94 5.77494 132.356 6.21154C132.789 6.64814 133.006 7.21209 133.006 7.90337C133.006 8.59466 132.789 9.1586 132.356 9.5952C131.94 10.0318 131.399 10.2501 130.73 10.2501C130.08 10.2501 129.539 10.0318 129.105 9.5952C128.69 9.14041 128.482 8.57646 128.482 7.90337C128.482 7.21209 128.69 6.64814 129.105 6.21154C129.539 5.77494 130.08 5.55664 130.73 5.55664Z" fill="#0066CC"/>
<path d="M143.437 11.9414C144.972 11.9414 146.326 12.2507 147.499 12.8692C148.691 13.4877 149.612 14.3609 150.262 15.4888C150.912 16.6167 151.237 17.9265 151.237 19.4182C151.237 20.8917 150.912 22.2015 150.262 23.3476C149.612 24.4755 148.691 25.3578 147.499 25.9945C146.326 26.613 144.972 26.9223 143.437 26.9223C141.884 26.9223 140.512 26.613 139.32 25.9945C138.146 25.3578 137.234 24.4755 136.584 23.3476C135.934 22.2015 135.609 20.8917 135.609 19.4182C135.609 17.9265 135.934 16.6167 136.584 15.4888C137.234 14.3609 138.146 13.4877 139.32 12.8692C140.512 12.2507 141.884 11.9414 143.437 11.9414ZM143.437 15.4342C142.353 15.4342 141.469 15.8071 140.783 16.553C140.114 17.2989 139.78 18.2721 139.78 19.4728C139.78 20.6734 140.114 21.6467 140.783 22.3925C141.469 23.1384 142.353 23.5113 143.437 23.5113C144.502 23.5113 145.369 23.1384 146.037 22.3925C146.723 21.6467 147.066 20.6734 147.066 19.4728C147.066 18.2721 146.723 17.2989 146.037 16.553C145.369 15.8071 144.502 15.4342 143.437 15.4342Z" fill="#0066CC"/>
</g>
</g>
<defs>
<clipPath id="clip0_5141_13505">
<rect width="154" height="34" fill="white"/>
</clipPath>
</defs>
</svg>
