<svg width="452" height="227" viewBox="0 0 452 227" fill="none" xmlns="http://www.w3.org/2000/svg">
<path opacity="0.4" fill-rule="evenodd" clip-rule="evenodd" d="M407.407 90.1514L378.16 94.6311C377.237 94.7724 376.352 95.1021 375.559 95.5998C374.767 96.0975 374.084 96.7527 373.553 97.5249L353.299 126.925C352.689 127.81 352.294 128.825 352.147 129.89C351.999 130.955 352.103 132.038 352.451 133.054L363.221 164.689C363.564 165.696 364.137 166.609 364.893 167.354C365.65 168.1 366.569 168.658 367.579 168.985L399.302 179.254C400.312 179.581 401.384 179.667 402.434 179.506C403.483 179.345 404.482 178.941 405.351 178.327L432.617 159.004C433.493 158.384 434.212 157.567 434.717 156.618C435.221 155.669 435.497 154.615 435.521 153.541L436.337 117.848C436.359 116.912 436.19 115.981 435.84 115.113C435.489 114.245 434.965 113.459 434.3 112.804L413.232 92.0182C412.472 91.2754 411.551 90.7201 410.54 90.3962C409.529 90.0722 408.457 89.9885 407.407 90.1514Z" fill="#9E008E"/>
<path opacity="0.3" d="M350.72 17.3763C353.855 17.5961 356.198 20.3144 355.953 23.4478L353.755 51.5301C353.51 54.6635 350.77 57.0254 347.634 56.8056L319.535 54.8354C316.4 54.6156 314.057 51.8973 314.302 48.7639L316.5 20.6816C316.745 17.5482 319.486 15.1863 322.621 15.4061L350.72 17.3763Z" fill="#AB9B32"/>
<path opacity="0.4" fill-rule="evenodd" clip-rule="evenodd" d="M64.3976 91.1092C69.5466 88.247 76.041 90.1009 78.9032 95.2498L104.555 141.397C107.417 146.546 105.563 153.04 100.414 155.902L54.2676 181.554C49.1186 184.416 42.6242 182.563 39.762 177.414L14.1101 131.267C11.2479 126.118 13.1017 119.623 18.2507 116.761L64.3976 91.1092ZM37.9387 130.225L53.2257 157.726L80.7264 142.439L65.4395 114.938L37.9387 130.225Z" fill="#477076"/>
<path d="M163.383 144V106.704L154.959 111.96L150.639 104.472L165.471 94.536H173.967V144H163.383ZM194.32 144V106.704L185.896 111.96L181.576 104.472L196.408 94.536H204.904V144H194.32ZM236.634 144.864C223.602 144.864 214.386 134.28 214.386 119.232C214.386 104.256 223.602 93.672 236.634 93.672C249.666 93.672 258.81 104.256 258.81 119.232C258.81 134.28 249.666 144.864 236.634 144.864ZM236.634 135.216C243.258 135.216 247.938 128.52 247.938 119.232C247.938 109.944 243.258 103.32 236.634 103.32C230.01 103.32 225.33 109.944 225.33 119.232C225.33 128.52 230.01 135.216 236.634 135.216ZM301.354 115.704V124.272H288.538V137.376H279.466V124.272H266.578V115.704H279.466V102.6H288.538V115.704H301.354Z" fill="#9E008E"/>
<path d="M151.143 182V165.512H154.695L162.639 176.168V165.512H166.191V182H162.639L154.695 171.344V182H151.143ZM183.057 168.704H173.913V171.992H182.217V175.184H173.913V178.808H183.057V182H170.361V165.512H183.057V168.704ZM190.086 182L185.094 165.512H188.934L191.982 176.576L195.63 165.512H199.494L203.142 176.576L206.166 165.512H210.03L205.038 182H201.462L197.574 170.672L193.662 182H190.086ZM219.346 182V165.512H222.898L227.986 174.824L233.098 165.512H236.626V182H233.098V171.728L227.986 181.04L222.898 171.728V182H219.346ZM253.511 168.704H244.367V171.992H252.671V175.184H244.367V178.808H253.511V182H240.815V165.512H253.511V168.704ZM256.94 182V165.512H260.492L265.58 174.824L270.692 165.512H274.22V182H270.692V171.728L265.58 181.04L260.492 171.728V182H256.94ZM278.408 182V165.512H286.76C289.712 165.512 291.776 167.24 291.776 169.64C291.776 171.32 290.936 172.544 289.472 173.312C291.392 174.176 292.496 175.712 292.496 177.536C292.496 180.176 290.24 182 287.096 182H278.408ZM281.936 172.16H285.896C287.216 172.16 288.152 171.392 288.152 170.336C288.152 169.304 287.216 168.536 285.896 168.536H281.936V172.16ZM281.936 178.976H286.424C287.864 178.976 288.872 178.136 288.872 176.96C288.872 175.784 287.864 174.944 286.424 174.944H281.936V178.976ZM308.425 168.704H299.281V171.992H307.585V175.184H299.281V178.808H308.425V182H295.729V165.512H308.425V168.704ZM325.486 171.08C325.486 173.672 323.854 175.64 321.382 176.36L325.342 182H321.31L317.542 176.648H315.406V182H311.854V165.512H319.27C322.87 165.512 325.486 167.816 325.486 171.08ZM315.406 168.752V173.408H318.91C320.662 173.408 321.862 172.496 321.862 171.08C321.862 169.664 320.662 168.752 318.91 168.752H315.406ZM334.848 182.288C331.968 182.288 329.448 181.328 327.528 179.552L329.544 177.128C331.104 178.472 332.88 179.288 334.968 179.288C336.768 179.288 337.68 178.472 337.68 177.44C337.68 176.264 336.72 175.904 334.2 175.328C330.72 174.536 328.224 173.552 328.224 170.36C328.224 167.312 330.72 165.224 334.344 165.224C337.032 165.224 339.096 166.064 340.8 167.504L338.952 170.072C337.464 168.872 335.808 168.224 334.224 168.224C332.736 168.224 331.8 169.016 331.8 170C331.8 171.2 332.808 171.584 335.352 172.16C338.904 172.952 341.256 174.008 341.256 177.056C341.256 180.2 338.856 182.288 334.848 182.288Z" fill="#2D1762"/>
<path d="M87.2307 219V204.792L84.3507 206.664L83.5347 205.272L87.5907 202.512H89.1027V219H87.2307ZM99.9368 219.288C95.9048 219.288 93.0728 215.76 93.0728 210.744C93.0728 205.752 95.9048 202.224 99.9368 202.224C103.945 202.224 106.777 205.752 106.777 210.744C106.777 215.76 103.945 219.288 99.9368 219.288ZM99.9368 217.56C102.841 217.56 104.881 214.728 104.881 210.744C104.881 206.76 102.841 203.952 99.9368 203.952C97.0328 203.952 94.9688 206.76 94.9688 210.744C94.9688 214.728 97.0328 217.56 99.9368 217.56ZM122.804 206.304C125.564 206.304 127.46 208.248 127.46 211.104V219H125.66V211.344C125.66 209.304 124.388 207.912 122.564 207.912C120.452 207.912 118.724 209.352 118.724 211.104V219H116.924V206.592H118.724V208.56C119.444 207.24 121.028 206.304 122.804 206.304ZM136.57 217.68C138.034 217.68 139.714 217.032 140.482 216.192L141.586 217.368C140.506 218.544 138.322 219.288 136.594 219.288C133.282 219.288 130.306 216.576 130.306 212.76C130.306 209.064 133.09 206.304 136.426 206.304C140.17 206.304 142.306 209.136 142.306 213.48H132.154C132.418 215.904 134.122 217.68 136.57 217.68ZM136.498 207.912C134.29 207.912 132.514 209.472 132.178 211.872H140.53C140.29 209.64 138.97 207.912 136.498 207.912ZM147.778 219L143.626 206.592H145.546L148.642 216.6L152.026 206.592H153.586L156.97 216.6L160.066 206.592H161.986L157.81 219H156.106L152.818 209.088L149.482 219H147.778ZM184.481 206.304C187.073 206.304 188.897 208.296 188.897 211.104V219H187.097V211.344C187.097 209.328 185.921 207.912 184.241 207.912C182.273 207.912 180.881 209.232 180.881 211.104V219H179.081V211.344C179.081 209.328 177.905 207.912 176.225 207.912C174.257 207.912 172.865 209.232 172.865 211.104V219H171.065V206.592H172.865V208.416C173.489 207.12 174.833 206.304 176.465 206.304C178.433 206.304 179.969 207.456 180.593 209.256C180.977 207.504 182.513 206.304 184.481 206.304ZM198.023 217.68C199.487 217.68 201.167 217.032 201.935 216.192L203.039 217.368C201.959 218.544 199.775 219.288 198.047 219.288C194.735 219.288 191.759 216.576 191.759 212.76C191.759 209.064 194.543 206.304 197.879 206.304C201.623 206.304 203.759 209.136 203.759 213.48H193.607C193.871 215.904 195.575 217.68 198.023 217.68ZM197.951 207.912C195.743 207.912 193.967 209.472 193.631 211.872H201.983C201.743 209.64 200.423 207.912 197.951 207.912ZM220.199 206.304C222.791 206.304 224.615 208.296 224.615 211.104V219H222.815V211.344C222.815 209.328 221.639 207.912 219.959 207.912C217.991 207.912 216.599 209.232 216.599 211.104V219H214.799V211.344C214.799 209.328 213.623 207.912 211.943 207.912C209.975 207.912 208.583 209.232 208.583 211.104V219H206.783V206.592H208.583V208.416C209.207 207.12 210.551 206.304 212.183 206.304C214.151 206.304 215.687 207.456 216.311 209.256C216.695 207.504 218.231 206.304 220.199 206.304ZM234.822 206.304C238.086 206.304 240.534 208.992 240.534 212.784C240.534 216.6 238.086 219.288 234.822 219.288C232.83 219.288 231.246 218.304 230.31 216.672V219H228.51V202.224H230.31V208.92C231.246 207.288 232.83 206.304 234.822 206.304ZM234.486 217.68C236.91 217.68 238.638 215.64 238.638 212.784C238.638 209.928 236.91 207.912 234.486 207.912C232.038 207.912 230.31 209.928 230.31 212.784C230.31 215.64 232.038 217.68 234.486 217.68ZM248.976 217.68C250.44 217.68 252.12 217.032 252.888 216.192L253.992 217.368C252.912 218.544 250.728 219.288 249 219.288C245.688 219.288 242.712 216.576 242.712 212.76C242.712 209.064 245.496 206.304 248.832 206.304C252.576 206.304 254.712 209.136 254.712 213.48H244.56C244.824 215.904 246.528 217.68 248.976 217.68ZM248.904 207.912C246.696 207.912 244.92 209.472 244.584 211.872H252.936C252.696 209.64 251.376 207.912 248.904 207.912ZM259.536 209.016C260.28 207.36 262.056 206.304 264.336 206.304V207.912C261.528 207.912 259.536 209.64 259.536 212.064V219H257.736V206.592H259.536V209.016ZM271.092 219.288C269.364 219.288 267.444 218.64 265.956 217.44L266.892 216.12C268.308 217.152 269.724 217.68 271.092 217.68C272.724 217.68 273.828 216.912 273.828 215.736C273.828 214.392 272.388 213.96 270.708 213.48C267.708 212.616 266.556 211.728 266.556 209.952C266.556 207.696 268.428 206.304 270.9 206.304C272.436 206.304 274.02 206.832 275.34 207.696L274.476 209.088C273.228 208.296 272.004 207.912 270.9 207.912C269.508 207.912 268.356 208.536 268.356 209.736C268.356 210.816 269.268 211.152 271.572 211.896C273.564 212.52 275.628 213.192 275.628 215.544C275.628 217.824 273.66 219.288 271.092 219.288ZM287.554 204.888V206.592H290.602V208.2H287.554V219H285.754V208.2H283.81V206.592H285.754V204.888C285.754 203.04 287.002 201.72 288.778 201.72C289.618 201.72 290.434 202.008 291.082 202.512L290.194 203.832C289.93 203.544 289.45 203.328 288.898 203.328C288.178 203.328 287.554 203.976 287.554 204.888ZM294.74 209.016C295.484 207.36 297.26 206.304 299.54 206.304V207.912C296.732 207.912 294.74 209.64 294.74 212.064V219H292.94V206.592H294.74V209.016ZM307.783 219.288C304.255 219.288 301.375 216.36 301.375 212.784C301.375 209.208 304.255 206.304 307.783 206.304C311.287 206.304 314.167 209.208 314.167 212.784C314.167 216.36 311.287 219.288 307.783 219.288ZM307.783 217.68C310.255 217.68 312.295 215.472 312.295 212.784C312.295 210.096 310.255 207.912 307.783 207.912C305.287 207.912 303.247 210.096 303.247 212.784C303.247 215.472 305.287 217.68 307.783 217.68ZM330.684 206.304C333.276 206.304 335.1 208.296 335.1 211.104V219H333.3V211.344C333.3 209.328 332.124 207.912 330.444 207.912C328.476 207.912 327.084 209.232 327.084 211.104V219H325.284V211.344C325.284 209.328 324.108 207.912 322.428 207.912C320.46 207.912 319.068 209.232 319.068 211.104V219H317.268V206.592H319.068V208.416C319.692 207.12 321.036 206.304 322.668 206.304C324.636 206.304 326.172 207.456 326.796 209.256C327.18 207.504 328.716 206.304 330.684 206.304ZM353.308 219.288C348.748 219.288 344.86 215.376 344.86 210.744C344.86 206.112 348.748 202.224 353.308 202.224C355.588 202.224 357.7 203.184 359.236 204.744L357.964 206.04C356.764 204.768 355.108 203.952 353.308 203.952C349.756 203.952 346.756 207.072 346.756 210.744C346.756 214.44 349.756 217.56 353.308 217.56C355.108 217.56 356.764 216.744 357.964 215.472L359.236 216.768C357.7 218.304 355.588 219.288 353.308 219.288ZM368.101 206.304C370.861 206.304 372.757 208.248 372.757 211.104V219H370.957V211.344C370.957 209.304 369.685 207.912 367.861 207.912C365.749 207.912 364.021 209.352 364.021 211.104V219H362.221V202.224H364.021V208.56C364.741 207.24 366.325 206.304 368.101 206.304ZM377.547 204.336C376.875 204.336 376.347 203.784 376.347 203.136C376.347 202.512 376.875 201.96 377.547 201.96C378.195 201.96 378.723 202.512 378.723 203.136C378.723 203.784 378.195 204.336 377.547 204.336ZM376.635 219V206.592H378.435V219H376.635ZM388.491 206.304C391.251 206.304 393.147 208.248 393.147 211.104V219H391.347V211.344C391.347 209.304 390.075 207.912 388.251 207.912C386.139 207.912 384.411 209.352 384.411 211.104V219H382.611V206.592H384.411V208.56C385.131 207.24 386.715 206.304 388.491 206.304ZM401.466 206.304C404.85 206.304 406.506 208.44 406.506 211.44V219H404.706V217.056C403.818 218.52 401.97 219.288 400.338 219.288C397.722 219.288 395.802 217.776 395.802 215.328C395.802 212.856 398.01 211.2 400.674 211.2C402.018 211.2 403.434 211.488 404.706 211.896V211.44C404.706 209.76 404.034 207.84 401.346 207.84C400.098 207.84 398.85 208.392 397.722 208.968L397.002 207.504C398.778 206.616 400.266 206.304 401.466 206.304ZM400.65 217.704C402.282 217.704 404.226 216.864 404.706 215.112V213.216C403.578 212.904 402.306 212.712 400.962 212.712C399.114 212.712 397.554 213.768 397.554 215.256C397.554 216.792 398.898 217.704 400.65 217.704Z" fill="#2D1762"/>
<path fill-rule="evenodd" clip-rule="evenodd" d="M246.447 52.7794C246.722 51.7086 247.809 51.0649 248.875 51.3415C251.152 51.9325 253.169 53.267 254.609 55.1352C256.049 57.0033 256.832 59.2993 256.834 61.6626L256.834 65.9968C256.834 67.1027 255.941 67.9993 254.841 67.9993C253.74 67.9993 252.848 67.1027 252.848 65.9968L252.848 61.6656C252.848 61.6654 252.848 61.6658 252.848 61.6656C252.846 60.1892 252.358 58.7545 251.458 57.5879C250.558 56.4211 249.299 55.588 247.878 55.219C246.812 54.9424 246.171 53.8501 246.447 52.7794Z" fill="#AB9B32"/>
<path fill-rule="evenodd" clip-rule="evenodd" d="M263.667 52.7794C263.943 51.7086 265.03 51.0649 266.095 51.3415C268.372 51.9325 270.389 53.267 271.83 55.1352C273.27 57.0033 274.053 59.2993 274.054 61.6626L274.054 65.9968C274.054 67.1027 273.162 67.9993 272.061 67.9993C270.961 67.9993 270.068 67.1027 270.068 65.9968L270.068 61.6656C270.068 61.6654 270.068 61.6658 270.068 61.6656C270.067 60.1892 269.578 58.7545 268.679 57.5879C267.779 56.4211 266.52 55.588 265.098 55.219C264.033 54.9424 263.392 53.8501 263.667 52.7794Z" fill="#9E008E"/>
<path fill-rule="evenodd" clip-rule="evenodd" d="M237.827 26.7872C238.1 25.7159 239.185 25.0699 240.252 25.3444C242.535 25.932 244.558 27.2668 246.003 29.138C247.447 31.0092 248.231 33.3104 248.231 35.6788C248.231 38.0472 247.447 40.3484 246.003 42.2196C244.558 44.0908 242.535 45.4256 240.252 46.0133C239.185 46.2877 238.1 45.6418 237.827 44.5705C237.553 43.4991 238.196 42.4082 239.263 42.1337C240.688 41.7669 241.951 40.9336 242.853 39.7649C243.756 38.5962 244.245 37.1586 244.245 35.6788C244.245 34.199 243.756 32.7615 242.853 31.5928C241.951 30.4241 240.688 29.5908 239.263 29.224C238.196 28.9495 237.553 27.8585 237.827 26.7872Z" fill="#AB9B32"/>
<path fill-rule="evenodd" clip-rule="evenodd" d="M255.047 26.7872C255.32 25.7159 256.406 25.0699 257.472 25.3444C259.755 25.932 261.779 27.2668 263.223 29.138C264.668 31.0092 265.452 33.3104 265.452 35.6788C265.452 38.0472 264.668 40.3484 263.223 42.2196C261.779 44.0908 259.755 45.4256 257.472 46.0133C256.406 46.2877 255.32 45.6418 255.047 44.5705C254.774 43.4991 255.417 42.4082 256.483 42.1337C257.908 41.7669 259.172 40.9336 260.074 39.7649C260.976 38.5962 261.466 37.1586 261.466 35.6788C261.466 34.199 260.976 32.7615 260.074 31.5928C259.172 30.4241 257.908 29.5908 256.483 29.224C255.417 28.9495 254.774 27.8585 255.047 26.7872Z" fill="#9E008E"/>
<path fill-rule="evenodd" clip-rule="evenodd" d="M203.162 54.1211C205.153 52.1203 207.852 50.9961 210.667 50.9961H227.905C230.72 50.9961 233.42 52.1203 235.41 54.1211C237.4 56.1218 238.517 58.8351 238.517 61.664V65.9967C238.517 67.1026 237.625 67.9992 236.525 67.9992C235.424 67.9992 234.532 67.1026 234.532 65.9967V61.664C234.532 59.8965 233.833 58.2016 232.59 56.9521C231.348 55.7027 229.662 55.001 227.905 55.001H210.667C208.91 55.001 207.225 55.7027 205.982 56.9521C204.739 58.2016 204.041 59.8965 204.041 61.664V65.9967C204.041 67.1026 203.148 67.9992 202.048 67.9992C200.947 67.9992 200.055 67.1026 200.055 65.9967V61.664C200.055 58.8351 201.172 56.1218 203.162 54.1211Z" fill="#2D1762"/>
<path fill-rule="evenodd" clip-rule="evenodd" d="M219.284 29.0049C215.626 29.0049 212.658 31.9869 212.658 35.6679C212.658 39.3489 215.626 42.3309 219.284 42.3309C222.942 42.3309 225.91 39.3489 225.91 35.6679C225.91 31.9869 222.942 29.0049 219.284 29.0049ZM208.672 35.6679C208.672 29.7773 213.422 25 219.284 25C225.146 25 229.896 29.7773 229.896 35.6679C229.896 41.5585 225.146 46.3358 219.284 46.3358C213.422 46.3358 208.672 41.5585 208.672 35.6679Z" fill="#2D1762"/>
</svg>
