<svg width="160" height="28" viewBox="0 0 160 28" fill="none" xmlns="http://www.w3.org/2000/svg">
<path d="M21.3147 19.6173H11.6602C9.38047 19.6173 7.19412 18.7116 5.5821 17.0996C3.97009 15.4876 3.06445 13.3013 3.06445 11.0215C3.06445 8.7418 3.97009 6.55542 5.5821 4.94343C7.19412 3.33142 9.38047 2.42578 11.6602 2.42578H21.3147C23.5944 2.42578 25.7808 3.33142 27.3928 4.94343C29.0048 6.55542 29.9104 8.7418 29.9104 11.0215C29.9104 13.3013 29.0048 15.4876 27.3928 17.0996C25.7808 18.7116 23.5944 19.6173 21.3147 19.6173ZM21.3521 4.68961C20.0998 4.68961 18.8756 5.06098 17.8343 5.75674C16.793 6.45251 15.9814 7.44141 15.5022 8.59841C15.023 9.75542 14.8975 11.0285 15.1419 12.2568C15.3862 13.4851 15.9893 14.6133 16.8748 15.4989C17.7603 16.3844 18.8886 16.9874 20.1168 17.2318C21.3451 17.4761 22.6182 17.3507 23.7752 16.8715C24.9322 16.3922 25.9212 15.5806 26.6169 14.5393C27.3127 13.4981 27.684 12.2738 27.684 11.0215C27.6845 10.1887 27.5206 9.36403 27.2016 8.59473C26.8828 7.82541 26.4152 7.12662 25.8256 6.53836C25.2361 5.9501 24.5363 5.48403 23.7663 5.16679C22.9963 4.84951 22.1713 4.68736 21.3385 4.68961H21.3521Z" fill="#231F20"/>
<path d="M36.6575 6.9149C37.5498 6.40426 38.5643 6.14649 39.592 6.16937C40.6885 6.1566 41.7677 6.44259 42.7137 6.9966C43.6506 7.54939 44.4135 8.35371 44.9163 9.31831C45.4695 10.3918 45.7455 11.5866 45.7197 12.7941C45.7418 14.0065 45.466 15.2059 44.9163 16.2868C44.4216 17.2709 43.6597 18.0958 42.7185 18.6671C41.7769 19.2384 40.6933 19.5331 39.592 19.5175C38.5724 19.538 37.5665 19.2815 36.6814 18.7753C35.8943 18.3303 35.2325 17.6932 34.758 16.9234V25.434H32.6133V6.38384H34.758V8.76682C35.2169 7.99293 35.8722 7.35408 36.6575 6.9149ZM42.9384 10.2477C42.5745 9.55742 42.022 8.98482 41.3452 8.5966C40.6729 8.21962 39.9134 8.02482 39.1426 8.0315C38.3777 8.02653 37.6254 8.22636 36.9639 8.61022C36.2848 9.00784 35.7295 9.5866 35.3605 10.2817C34.9622 11.0738 34.7546 11.9482 34.7546 12.8349C34.7546 13.7216 34.9622 14.596 35.3605 15.3881C35.7295 16.0832 36.2848 16.662 36.9639 17.0596C37.6254 17.4434 38.3777 17.6433 39.1426 17.6383C39.9154 17.645 40.6756 17.4453 41.3452 17.0596C42.023 16.6635 42.5752 16.0841 42.9384 15.3881C43.3459 14.5902 43.5484 13.7034 43.5273 12.8077C43.5501 11.9183 43.3476 11.0376 42.9384 10.2477Z" fill="#231F20"/>
<path d="M59.3401 13.6415H49.0184C49.0184 14.1857 49.1284 14.7244 49.3408 15.2254C49.5532 15.7264 49.8647 16.1796 50.2558 16.5579C50.6473 16.9361 51.1107 17.2318 51.6186 17.4274C52.1265 17.6229 52.6684 17.7142 53.2124 17.696C54.0349 17.725 54.8461 17.4978 55.5341 17.0458C56.1459 16.6248 56.6044 16.0168 56.8414 15.313H59.1495C58.8237 16.5296 58.0921 17.5985 57.0763 18.3428C55.9525 19.1477 54.5939 19.5582 53.2124 19.5104C52.0567 19.5279 50.9169 19.2377 49.9103 18.6696C48.9452 18.1209 48.1564 17.3084 47.6363 16.3275C47.0701 15.2408 46.7869 14.029 46.8124 12.8041C46.7849 11.5849 47.0596 10.3778 47.6124 9.29087C48.121 8.3149 48.903 7.5082 49.8627 6.96917C50.8853 6.41346 52.0349 6.13308 53.1988 6.15555C54.3341 6.13328 55.4555 6.41039 56.4499 6.95895C57.3711 7.47163 58.1278 8.23545 58.632 9.16151C59.1522 10.1358 59.4157 11.2265 59.398 12.3309C59.4017 12.7685 59.3823 13.2059 59.3401 13.6415ZM56.6541 9.78789C56.3011 9.20821 55.7898 8.74166 55.1801 8.44321C54.5377 8.13158 53.8313 7.9742 53.1171 7.98363C52.0979 7.95657 51.1069 8.32219 50.3495 9.00491C49.5576 9.75837 49.0892 10.7896 49.0422 11.8815H57.1954C57.2124 11.147 57.0249 10.4221 56.6541 9.78789Z" fill="#231F20"/>
<path d="M71.429 7.57231C72.4026 8.5255 72.8894 9.89626 72.8894 11.6847V19.2966H70.7686V11.991C70.7686 10.7042 70.4486 9.71699 69.8052 9.03614C69.4617 8.68911 69.0491 8.41871 68.5936 8.24271C68.1384 8.06668 67.651 7.98903 67.1635 8.01486C66.6644 7.99083 66.166 8.07311 65.7013 8.25623C65.2363 8.43934 64.8159 8.7191 64.4673 9.07699C63.7864 9.78508 63.4518 10.8143 63.463 12.1647V19.3136H61.3184V6.38423H63.463V8.22252C63.8889 7.56227 64.4884 7.03223 65.1958 6.69061C65.9485 6.32472 66.7761 6.13939 67.6128 6.14933C68.3117 6.11937 69.0096 6.22984 69.6649 6.47427C70.3206 6.71866 70.9204 7.09204 71.429 7.57231Z" fill="#231F20"/>
<path d="M84.7702 2.87109V4.61749H77.6212V10.1596H83.4085V11.906H77.6212V19.3034H75.4766V2.87109H84.7702Z" fill="#231F20"/>
<path d="M98.1551 13.6416H87.83C87.8311 14.1859 87.9414 14.7244 88.1545 15.2252C88.3679 15.726 88.6794 16.1789 89.0709 16.5571C89.4624 16.9352 89.9257 17.2309 90.4336 17.4266C90.9415 17.6222 91.4835 17.7138 92.0275 17.6961C92.8499 17.7251 93.6612 17.4979 94.3492 17.0459C94.9609 16.6249 95.4195 16.0169 95.6564 15.3131H97.9645C97.6387 16.5297 96.9075 17.5986 95.8913 18.3429C94.7672 19.1473 93.4089 19.5578 92.0275 19.5105C90.8775 19.5297 89.7429 19.2443 88.739 18.6833C87.7729 18.1356 86.9837 17.3229 86.4649 16.3412C85.9022 15.2538 85.6234 14.0418 85.6547 12.8178C85.6271 11.5986 85.9019 10.3916 86.4547 9.30459C86.9626 8.32794 87.7446 7.52096 88.7049 6.98289C89.7276 6.42673 90.8772 6.14636 92.0411 6.16927C93.1764 6.14704 94.2978 6.42411 95.2922 6.97267C96.2127 7.48627 96.9694 8.24985 97.4743 9.17523C97.9917 10.1504 98.2542 11.2407 98.2368 12.3446C98.2321 12.7781 98.2048 13.211 98.1551 13.6416ZM95.4658 9.78799C95.1131 9.21274 94.6025 8.75078 93.9951 8.45693C93.3524 8.14568 92.646 7.98833 91.9322 7.99735C90.9126 7.96995 89.922 8.3356 89.1645 9.01863C88.373 9.7726 87.9036 10.8032 87.8539 11.8952H96.0241C96.0401 11.1543 95.8467 10.4238 95.4658 9.78799Z" fill="#231F20"/>
<path d="M100.132 9.31857C100.635 8.35397 101.398 7.54965 102.335 6.99686C103.282 6.44241 104.362 6.15642 105.46 6.16963C106.489 6.14485 107.506 6.39768 108.404 6.90155C109.182 7.33232 109.826 7.9682 110.267 8.73984V6.3841H112.435V19.2964H110.267V16.893C109.813 17.6765 109.159 18.3242 108.37 18.7688C107.477 19.2763 106.463 19.5327 105.436 19.5109C104.344 19.5251 103.27 19.2339 102.335 18.6701C101.399 18.0922 100.64 17.2677 100.142 16.2871C99.5945 15.208 99.3198 14.011 99.3423 12.8011C99.311 11.5925 99.5823 10.3953 100.132 9.31857ZM109.664 10.2718C109.301 9.57954 108.75 9.00374 108.074 8.61048C107.403 8.23543 106.646 8.03853 105.877 8.03853C105.107 8.03853 104.351 8.23543 103.679 8.61048C103.007 9.00041 102.46 9.5729 102.1 10.2615C101.691 11.0468 101.488 11.923 101.511 12.8079C101.488 13.7038 101.691 14.591 102.1 15.3884C102.459 16.0828 103.006 16.662 103.679 17.0598C104.343 17.4467 105.1 17.6467 105.868 17.6386C106.642 17.6454 107.404 17.4456 108.074 17.0598C108.752 16.6644 109.303 16.0848 109.664 15.3884C110.07 14.5984 110.272 13.7197 110.253 12.8318C110.28 11.9436 110.082 11.0629 109.678 10.2718H109.664Z" fill="#231F20"/>
<path d="M117.76 8.15215V15.7641C117.736 16.0014 117.759 16.2412 117.828 16.4696C117.897 16.698 118.01 16.9105 118.161 17.0951C118.427 17.3538 118.893 17.4832 119.554 17.4832H121.13V19.2977H119.2C118.005 19.2977 117.109 19.0253 116.51 18.4738C115.911 17.9224 115.615 17.0202 115.615 15.7504V8.15215H113.943V6.38534H115.611V3.13086H117.756V6.38534H121.126V8.15215H117.76Z" fill="#231F20"/>
<path d="M134.257 6.38477V19.2971H132.113V17.3907C131.702 18.0547 131.112 18.5892 130.411 18.9329C129.661 19.3062 128.834 19.4964 127.997 19.4877C127.052 19.5061 126.116 19.2909 125.274 18.8614C124.466 18.4428 123.804 17.7902 123.374 16.989C122.891 16.0505 122.657 15.0039 122.693 13.949V6.38477H124.804V13.6665C124.804 14.9397 125.126 15.9178 125.771 16.6009C126.113 16.948 126.525 17.2185 126.98 17.3946C127.435 17.5706 127.922 17.6482 128.409 17.6222C128.912 17.6499 129.416 17.5695 129.886 17.3863C130.355 17.2031 130.781 16.9213 131.132 16.5601C131.789 15.8554 132.12 14.8239 132.12 13.4724V6.38477H134.257Z" fill="#231F20"/>
<path d="M140.729 6.75621C141.51 6.32506 142.393 6.11335 143.285 6.14344V8.35621H142.72C140.312 8.35621 139.109 9.66003 139.111 12.2677V19.2907H136.967V6.38514H139.101V8.48216C139.462 7.75927 140.028 7.15886 140.729 6.75621Z" fill="#231F20"/>
<path d="M156.551 13.6416H146.229C146.229 14.1858 146.339 14.7245 146.552 15.2255C146.764 15.7265 147.076 16.1796 147.467 16.5579C147.858 16.9362 148.322 17.2319 148.829 17.4274C149.337 17.6229 149.879 17.7143 150.423 17.696C151.246 17.7259 152.058 17.4987 152.745 17.0458C153.358 16.6263 153.817 16.0178 154.052 15.3131H156.364C156.036 16.5285 155.305 17.5966 154.291 18.3428C153.165 19.1477 151.806 19.5583 150.423 19.5105C149.274 19.5302 148.141 19.2447 147.138 18.6833C146.172 18.1356 145.383 17.3229 144.864 16.3411C144.295 15.2553 144.011 14.0432 144.037 12.8177C144.01 11.5983 144.286 10.3912 144.84 9.30454C145.347 8.32708 146.13 7.51979 147.091 6.98284C148.112 6.42713 149.261 6.14672 150.423 6.16922C151.56 6.14733 152.682 6.42437 153.678 6.97263C154.598 7.48538 155.354 8.24926 155.856 9.17518C156.377 10.1495 156.64 11.2402 156.622 12.3445C156.621 12.7778 156.597 13.2108 156.551 13.6416ZM153.865 9.78795C153.508 9.20987 152.991 8.74754 152.377 8.45688C151.741 8.14822 151.042 7.99094 150.335 7.99731C149.314 7.9697 148.322 8.33532 147.564 9.01859C146.772 9.77205 146.303 10.8032 146.256 11.8952H154.427C154.44 11.1541 154.246 10.4241 153.865 9.78795Z" fill="#231F20"/>
</svg>
