<svg width="134" height="50" viewBox="0 0 134 50" fill="none" xmlns="http://www.w3.org/2000/svg">
<path d="M26.7335 27.2044C24.8179 29.12 24.8179 32.2296 26.7335 34.1452C28.6491 36.0608 31.7587 36.0608 33.6743 34.1452C35.5899 32.2296 35.5899 29.12 33.6743 27.2044C31.7587 25.2888 28.6491 25.2888 26.7335 27.2044ZM31.9293 32.4002C30.9846 33.3449 29.4364 33.3449 28.4917 32.4002C27.547 31.4555 27.547 29.9073 28.4917 28.9626C29.4364 28.0179 30.9846 28.0179 31.9293 28.9626C32.874 29.9073 32.874 31.4555 31.9293 32.4002ZM36.574 28.2016H38.6339V29.2381C39.1325 28.5558 39.8279 28.0573 40.8907 28.0573C42.5832 28.0573 44.197 29.3824 44.197 31.8098V31.836C44.197 34.2633 42.6094 35.5885 40.8907 35.5885C39.7885 35.5885 39.1194 35.0899 38.6339 34.4995V37.6091H36.574V28.2016ZM42.1371 31.8491V31.8229C42.1371 30.6158 41.3236 29.8154 40.3658 29.8154C39.408 29.8154 38.6077 30.6158 38.6077 31.8229V31.8491C38.6077 33.0562 39.408 33.8566 40.3658 33.8566C41.3236 33.8435 42.1371 33.0693 42.1371 31.8491ZM45.6534 31.8622V31.836C45.6534 29.7761 47.1229 28.0704 49.2222 28.0704C51.6364 28.0704 52.7386 29.9466 52.7386 31.9934C52.7386 32.1509 52.7254 32.3477 52.7123 32.5314H47.6871C47.8839 33.463 48.54 33.9484 49.4584 33.9484C50.1407 33.9484 50.6393 33.7385 51.2166 33.2137L52.3843 34.2502C51.7151 35.0899 50.7442 35.6016 49.4322 35.6016C47.2541 35.5885 45.6534 34.0665 45.6534 31.8622ZM50.7442 31.2456C50.6261 30.3271 50.0882 29.7105 49.2222 29.7105C48.3694 29.7105 47.8183 30.314 47.6609 31.2456H50.7442ZM54.2081 28.2016H56.3074V29.2512C56.7928 28.6346 57.4095 28.0704 58.4723 28.0704C60.0599 28.0704 60.9783 29.12 60.9783 30.8126V35.5885H58.879V31.4686C58.879 30.4715 58.4067 29.9729 57.6063 29.9729C56.8059 29.9729 56.2942 30.4846 56.2942 31.4686V35.5885H54.1949V28.2016H54.2081ZM33.5956 3.07563L30.591 6.08025C30.0005 6.67068 30.0005 7.62848 30.591 8.21891L42.3339 19.9619C42.9243 20.5523 43.8821 20.5523 44.4726 19.9619L47.4772 16.9572C48.0676 16.3668 48.0676 15.409 47.4772 14.8186L35.7343 3.07563C35.1438 2.48521 34.186 2.48521 33.5956 3.07563ZM12.537 41.4796C13.075 40.9417 13.075 40.0757 12.537 39.5378L11.0019 38.0027C10.464 37.4647 9.59801 37.4647 9.06007 38.0027L5.91112 41.1516L5.04516 40.2857C4.57282 39.8133 3.78558 39.8133 3.31324 40.2857C2.8409 40.758 2.8409 41.5452 3.31324 42.0176L8.52212 47.2265C8.99446 47.6988 9.7817 47.6988 10.254 47.2265C10.7264 46.7541 10.7264 45.9669 10.254 45.4946L9.38808 44.6286L12.537 41.4796Z" fill="#F5A800"/>
<path d="M28.4383 11.6951L21.7599 18.3735C21.1694 18.9639 21.1694 19.948 21.7599 20.5384L25.8797 24.6583C28.7925 22.559 32.8861 22.8214 35.5103 25.4455L38.8429 22.1129C39.4333 21.5224 39.4333 20.5384 38.8429 19.948L30.6032 11.7082C29.9996 11.1047 29.0287 11.1047 28.4383 11.6951ZM24.1478 26.4033L21.7074 23.9629C21.1432 23.3987 20.1985 23.3987 19.6343 23.9629L11.0403 32.5569C10.4761 33.121 10.4761 34.0657 11.0403 34.6299L15.9081 39.4977C16.4723 40.0618 17.4169 40.0618 17.9811 39.4977L23.5049 33.9739C22.3503 31.5466 22.5602 28.6338 24.1478 26.4033ZM64.861 27.7547H61.8696V25.7604H70.0174V27.7547H67.026V35.5877H64.861V27.7547ZM70.0306 31.8483V31.8221C70.0306 29.7622 71.5001 28.0565 73.5994 28.0565C76.0136 28.0565 77.1157 29.9327 77.1157 31.9796C77.1157 32.137 77.1026 32.3338 77.0895 32.5175H72.0643C72.2611 33.4491 72.9171 33.9345 73.8355 33.9345C74.5178 33.9345 75.0164 33.7246 75.5937 33.1998L76.7614 34.2363C76.0923 35.076 75.1214 35.5877 73.8093 35.5877C71.6313 35.5877 70.0306 34.0657 70.0306 31.8483ZM75.1214 31.2448C75.0033 30.3264 74.4653 29.7097 73.5994 29.7097C72.7465 29.7097 72.1955 30.3132 72.038 31.2448H75.1214ZM78.5721 25.7604H80.6189V35.5877H78.5721V25.7604ZM82.0753 31.8615V31.8352C82.0753 29.7753 83.5448 28.0696 85.6441 28.0696C88.0583 28.0696 89.1604 29.9459 89.1604 31.9927C89.1604 32.1501 89.1473 32.3469 89.1342 32.5306H84.109C84.3058 33.4622 84.9618 33.9476 85.8803 33.9476C86.5625 33.9476 87.0611 33.7377 87.6384 33.2129L88.8062 34.2494C88.137 35.0891 87.1661 35.6008 85.854 35.6008C83.6891 35.5877 82.0753 34.0657 82.0753 31.8615ZM87.1792 31.2579C87.0611 30.3395 86.5232 29.7228 85.6572 29.7228C84.8044 29.7228 84.2533 30.3264 84.0958 31.2579H87.1792ZM90.6299 28.2008H92.7292V29.2505C93.2147 28.6338 93.8445 28.0696 94.9072 28.0696C95.865 28.0696 96.5998 28.5026 96.9803 29.2374C97.6232 28.4764 98.3973 28.0696 99.4076 28.0696C100.969 28.0696 101.901 29.0012 101.901 30.7856V35.5877H99.8012V31.4679C99.8012 30.4707 99.3551 29.9721 98.581 29.9721C97.7938 29.9721 97.3083 30.4838 97.3083 31.4679V35.5877H95.209V31.4679C95.209 30.4707 94.7629 29.9721 93.9888 29.9721C93.2016 29.9721 92.7161 30.4838 92.7161 31.4679V35.5877H90.6168V28.2008H90.6299ZM103.357 31.8483V31.8221C103.357 29.7622 104.826 28.0565 106.926 28.0565C109.34 28.0565 110.442 29.9327 110.442 31.9796C110.442 32.137 110.429 32.3338 110.416 32.5175H105.391C105.587 33.4491 106.243 33.9345 107.162 33.9345C107.844 33.9345 108.343 33.7246 108.92 33.1998L110.088 34.2363C109.419 35.076 108.448 35.5877 107.136 35.5877C104.958 35.5877 103.357 34.0657 103.357 31.8483ZM108.448 31.2448C108.33 30.3264 107.792 29.7097 106.926 29.7097C106.073 29.7097 105.522 30.3132 105.364 31.2448H108.448ZM112.135 33.3572V29.8278H111.242V28.0171H112.135V26.1146H114.247V28.0171H116.005V29.8278H114.26V33.003C114.26 33.4884 114.47 33.7246 114.942 33.7246C115.336 33.7246 115.677 33.6328 115.979 33.4622V35.1547C115.533 35.4172 115.021 35.5877 114.313 35.5877C113.014 35.5877 112.135 35.076 112.135 33.3572ZM117.593 28.1483H119.718V29.6572C120.151 28.6207 120.847 27.9515 122.106 28.004V30.2345H121.988C120.571 30.2345 119.705 31.0874 119.705 32.8849V35.6533H117.58V28.1483H117.593ZM128.863 28.0696H131.12L128.181 35.9157C127.591 37.4771 126.961 38.0544 125.662 38.0544C124.875 38.0544 124.297 37.8576 123.733 37.5296L124.455 35.9551C124.743 36.1257 125.098 36.2569 125.386 36.2569C125.754 36.2569 125.964 36.1388 126.147 35.7583L123.143 28.0696H125.439L127.184 33.2785L128.863 28.0696Z" fill="#425CC7"/>
</svg>
