<svg width="1200" height="575" viewBox="0 0 1200 575" fill="none" xmlns="http://www.w3.org/2000/svg">
<path d="M188 4V508" stroke="black" stroke-opacity="0.4" stroke-miterlimit="10"/>
<path d="M599 4V508" stroke="black" stroke-opacity="0.4" stroke-miterlimit="10"/>
<path d="M511 4V508" stroke="black" stroke-opacity="0.4" stroke-miterlimit="10"/>
<path d="M392 4V508" stroke="black" stroke-opacity="0.4" stroke-miterlimit="10"/>
<path d="M663 4V508" stroke="black" stroke-opacity="0.4" stroke-miterlimit="10"/>
<path d="M868 4V508" stroke="black" stroke-opacity="0.4" stroke-miterlimit="10"/>
<path d="M1074 4V508" stroke="black" stroke-opacity="0.4" stroke-miterlimit="10"/>
<path d="M1195 4L1195 508" stroke="black" stroke-opacity="0.4" stroke-miterlimit="10"/>
<path d="M82.5 498.113H1194.5" stroke="black" stroke-opacity="0.4" stroke-miterlimit="10"/>
<path d="M83 323H1194" stroke="black" stroke-opacity="0.4" stroke-miterlimit="10"/>
<path d="M83 248H1194" stroke="black" stroke-opacity="0.4" stroke-miterlimit="10"/>
<path d="M83 76H1194" stroke="black" stroke-opacity="0.4" stroke-miterlimit="10"/>
<path d="M89 4H1195" stroke="black" stroke-opacity="0.4" stroke-miterlimit="10"/>
<path d="M175.486 524V523.17L178.006 521.09C178.926 520.32 179.276 519.73 179.276 519.11C179.276 518.36 178.656 517.92 177.976 517.92C177.226 517.92 176.676 518.32 176.196 518.94L175.516 518.34C176.116 517.51 176.926 517.01 178.016 517.01C179.296 517.01 180.316 517.84 180.316 519.09C180.316 520.01 179.876 520.74 178.696 521.7L177.086 523.06H180.376V524H175.486ZM184.427 524.12C182.697 524.12 181.487 522.65 181.487 520.56C181.487 518.48 182.697 517.01 184.427 517.01C186.137 517.01 187.347 518.48 187.347 520.56C187.347 522.65 186.137 524.12 184.427 524.12ZM184.427 523.19C185.537 523.19 186.317 522.1 186.317 520.56C186.317 519.02 185.537 517.94 184.427 517.94C183.307 517.94 182.517 519.02 182.517 520.56C182.517 522.1 183.307 523.19 184.427 523.19ZM191.409 524.12C189.679 524.12 188.469 522.65 188.469 520.56C188.469 518.48 189.679 517.01 191.409 517.01C193.119 517.01 194.329 518.48 194.329 520.56C194.329 522.65 193.119 524.12 191.409 524.12ZM191.409 523.19C192.519 523.19 193.299 522.1 193.299 520.56C193.299 519.02 192.519 517.94 191.409 517.94C190.289 517.94 189.499 519.02 189.499 520.56C189.499 522.1 190.289 523.19 191.409 523.19ZM198.392 524.12C196.662 524.12 195.452 522.65 195.452 520.56C195.452 518.48 196.662 517.01 198.392 517.01C200.102 517.01 201.312 518.48 201.312 520.56C201.312 522.65 200.102 524.12 198.392 524.12ZM198.392 523.19C199.502 523.19 200.282 522.1 200.282 520.56C200.282 519.02 199.502 517.94 198.392 517.94C197.272 517.94 196.482 519.02 196.482 520.56C196.482 522.1 197.272 523.19 198.392 523.19Z" fill="black" fill-opacity="0.7"/>
<path d="M382.284 524V522.42H378.874L378.764 521.61L382.094 517.13H383.294V521.53H384.284V522.42H383.294V524H382.284ZM379.874 521.53H382.284V518.28L379.874 521.53ZM388.068 524.12C386.338 524.12 385.128 522.65 385.128 520.56C385.128 518.48 386.338 517.01 388.068 517.01C389.778 517.01 390.988 518.48 390.988 520.56C390.988 522.65 389.778 524.12 388.068 524.12ZM388.068 523.19C389.178 523.19 389.958 522.1 389.958 520.56C389.958 519.02 389.178 517.94 388.068 517.94C386.948 517.94 386.158 519.02 386.158 520.56C386.158 522.1 386.948 523.19 388.068 523.19ZM395.051 524.12C393.321 524.12 392.111 522.65 392.111 520.56C392.111 518.48 393.321 517.01 395.051 517.01C396.761 517.01 397.971 518.48 397.971 520.56C397.971 522.65 396.761 524.12 395.051 524.12ZM395.051 523.19C396.161 523.19 396.941 522.1 396.941 520.56C396.941 519.02 396.161 517.94 395.051 517.94C393.931 517.94 393.141 519.02 393.141 520.56C393.141 522.1 393.931 523.19 395.051 523.19ZM402.033 524.12C400.303 524.12 399.093 522.65 399.093 520.56C399.093 518.48 400.303 517.01 402.033 517.01C403.743 517.01 404.953 518.48 404.953 520.56C404.953 522.65 403.743 524.12 402.033 524.12ZM402.033 523.19C403.143 523.19 403.923 522.1 403.923 520.56C403.923 519.02 403.143 517.94 402.033 517.94C400.913 517.94 400.123 519.02 400.123 520.56C400.123 522.1 400.913 523.19 402.033 523.19Z" fill="black" fill-opacity="0.7"/>
<path d="M500.876 519.66C502.136 519.66 503.186 520.45 503.186 521.81C503.186 523.13 502.146 524.12 500.696 524.12C498.786 524.12 497.986 522.63 497.986 520.67C497.986 518.59 499.216 517.01 500.886 517.01C501.736 517.01 502.366 517.33 502.886 517.8L502.366 518.58C501.946 518.19 501.506 517.92 500.876 517.92C499.836 517.92 499.056 519.05 499.016 520.56C499.436 519.99 500.126 519.66 500.876 519.66ZM500.666 523.26C501.596 523.26 502.156 522.55 502.156 521.86C502.156 521.02 501.476 520.51 500.646 520.51C499.886 520.51 499.286 520.95 499.096 521.61C499.266 522.6 499.756 523.26 500.666 523.26ZM507.156 524.12C505.426 524.12 504.216 522.65 504.216 520.56C504.216 518.48 505.426 517.01 507.156 517.01C508.866 517.01 510.076 518.48 510.076 520.56C510.076 522.65 508.866 524.12 507.156 524.12ZM507.156 523.19C508.266 523.19 509.046 522.1 509.046 520.56C509.046 519.02 508.266 517.94 507.156 517.94C506.036 517.94 505.246 519.02 505.246 520.56C505.246 522.1 506.036 523.19 507.156 523.19ZM514.139 524.12C512.409 524.12 511.199 522.65 511.199 520.56C511.199 518.48 512.409 517.01 514.139 517.01C515.849 517.01 517.059 518.48 517.059 520.56C517.059 522.65 515.849 524.12 514.139 524.12ZM514.139 523.19C515.249 523.19 516.029 522.1 516.029 520.56C516.029 519.02 515.249 517.94 514.139 517.94C513.019 517.94 512.229 519.02 512.229 520.56C512.229 522.1 513.019 523.19 514.139 523.19ZM521.121 524.12C519.391 524.12 518.181 522.65 518.181 520.56C518.181 518.48 519.391 517.01 521.121 517.01C522.831 517.01 524.041 518.48 524.041 520.56C524.041 522.65 522.831 524.12 521.121 524.12ZM521.121 523.19C522.231 523.19 523.011 522.1 523.011 520.56C523.011 519.02 522.231 517.94 521.121 517.94C520.001 517.94 519.211 519.02 519.211 520.56C519.211 522.1 520.001 523.19 521.121 523.19Z" fill="black" fill-opacity="0.7"/>
<path d="M590.522 524.12C589.072 524.12 587.932 523.37 587.932 522.19C587.932 521.34 588.572 520.73 589.392 520.45C588.642 520.15 588.112 519.63 588.112 518.85C588.112 517.68 589.282 517.01 590.522 517.01C591.802 517.01 592.942 517.71 592.942 518.85C592.942 519.67 592.362 520.18 591.662 520.45C592.482 520.74 593.112 521.35 593.112 522.19C593.112 523.38 591.962 524.12 590.522 524.12ZM590.522 520.07C591.152 520.03 591.932 519.65 591.932 518.96C591.932 518.35 591.312 517.9 590.522 517.9C589.732 517.9 589.122 518.35 589.122 518.96C589.122 519.67 589.912 520.03 590.522 520.07ZM590.522 523.23C591.402 523.23 592.092 522.77 592.092 522.1C592.092 521.37 591.202 520.93 590.522 520.91C589.852 520.93 588.952 521.37 588.952 522.1C588.952 522.77 589.642 523.23 590.522 523.23ZM597.171 524.12C595.441 524.12 594.231 522.65 594.231 520.56C594.231 518.48 595.441 517.01 597.171 517.01C598.881 517.01 600.091 518.48 600.091 520.56C600.091 522.65 598.881 524.12 597.171 524.12ZM597.171 523.19C598.281 523.19 599.061 522.1 599.061 520.56C599.061 519.02 598.281 517.94 597.171 517.94C596.051 517.94 595.261 519.02 595.261 520.56C595.261 522.1 596.051 523.19 597.171 523.19ZM604.153 524.12C602.423 524.12 601.213 522.65 601.213 520.56C601.213 518.48 602.423 517.01 604.153 517.01C605.863 517.01 607.073 518.48 607.073 520.56C607.073 522.65 605.863 524.12 604.153 524.12ZM604.153 523.19C605.263 523.19 606.043 522.1 606.043 520.56C606.043 519.02 605.263 517.94 604.153 517.94C603.033 517.94 602.243 519.02 602.243 520.56C602.243 522.1 603.033 523.19 604.153 523.19ZM611.136 524.12C609.406 524.12 608.196 522.65 608.196 520.56C608.196 518.48 609.406 517.01 611.136 517.01C612.846 517.01 614.056 518.48 614.056 520.56C614.056 522.65 612.846 524.12 611.136 524.12ZM611.136 523.19C612.246 523.19 613.026 522.1 613.026 520.56C613.026 519.02 612.246 517.94 611.136 517.94C610.016 517.94 609.226 519.02 609.226 520.56C609.226 522.1 610.016 523.19 611.136 523.19Z" fill="black" fill-opacity="0.7"/>
<path d="M648.951 524V518.33L647.761 519.09L647.341 518.36L649.151 517.13H649.961V524H648.951ZM654.439 524.12C652.709 524.12 651.499 522.65 651.499 520.56C651.499 518.48 652.709 517.01 654.439 517.01C656.149 517.01 657.359 518.48 657.359 520.56C657.359 522.65 656.149 524.12 654.439 524.12ZM654.439 523.19C655.549 523.19 656.329 522.1 656.329 520.56C656.329 519.02 655.549 517.94 654.439 517.94C653.319 517.94 652.529 519.02 652.529 520.56C652.529 522.1 653.319 523.19 654.439 523.19ZM661.422 524.12C659.692 524.12 658.482 522.65 658.482 520.56C658.482 518.48 659.692 517.01 661.422 517.01C663.132 517.01 664.342 518.48 664.342 520.56C664.342 522.65 663.132 524.12 661.422 524.12ZM661.422 523.19C662.532 523.19 663.312 522.1 663.312 520.56C663.312 519.02 662.532 517.94 661.422 517.94C660.302 517.94 659.512 519.02 659.512 520.56C659.512 522.1 660.302 523.19 661.422 523.19ZM668.404 524.12C666.674 524.12 665.464 522.65 665.464 520.56C665.464 518.48 666.674 517.01 668.404 517.01C670.114 517.01 671.324 518.48 671.324 520.56C671.324 522.65 670.114 524.12 668.404 524.12ZM668.404 523.19C669.514 523.19 670.294 522.1 670.294 520.56C670.294 519.02 669.514 517.94 668.404 517.94C667.284 517.94 666.494 519.02 666.494 520.56C666.494 522.1 667.284 523.19 668.404 523.19ZM675.387 524.12C673.657 524.12 672.447 522.65 672.447 520.56C672.447 518.48 673.657 517.01 675.387 517.01C677.097 517.01 678.307 518.48 678.307 520.56C678.307 522.65 677.097 524.12 675.387 524.12ZM675.387 523.19C676.497 523.19 677.277 522.1 677.277 520.56C677.277 519.02 676.497 517.94 675.387 517.94C674.267 517.94 673.477 519.02 673.477 520.56C673.477 522.1 674.267 523.19 675.387 523.19Z" fill="black" fill-opacity="0.7"/>
<path d="M851.495 524V523.17L854.015 521.09C854.935 520.32 855.285 519.73 855.285 519.11C855.285 518.36 854.665 517.92 853.985 517.92C853.235 517.92 852.685 518.32 852.205 518.94L851.525 518.34C852.125 517.51 852.935 517.01 854.025 517.01C855.305 517.01 856.325 517.84 856.325 519.09C856.325 520.01 855.885 520.74 854.705 521.7L853.095 523.06H856.385V524H851.495ZM860.436 524.12C858.706 524.12 857.496 522.65 857.496 520.56C857.496 518.48 858.706 517.01 860.436 517.01C862.146 517.01 863.356 518.48 863.356 520.56C863.356 522.65 862.146 524.12 860.436 524.12ZM860.436 523.19C861.546 523.19 862.326 522.1 862.326 520.56C862.326 519.02 861.546 517.94 860.436 517.94C859.316 517.94 858.526 519.02 858.526 520.56C858.526 522.1 859.316 523.19 860.436 523.19ZM867.418 524.12C865.688 524.12 864.478 522.65 864.478 520.56C864.478 518.48 865.688 517.01 867.418 517.01C869.128 517.01 870.338 518.48 870.338 520.56C870.338 522.65 869.128 524.12 867.418 524.12ZM867.418 523.19C868.528 523.19 869.308 522.1 869.308 520.56C869.308 519.02 868.528 517.94 867.418 517.94C866.298 517.94 865.508 519.02 865.508 520.56C865.508 522.1 866.298 523.19 867.418 523.19ZM874.4 524.12C872.67 524.12 871.46 522.65 871.46 520.56C871.46 518.48 872.67 517.01 874.4 517.01C876.11 517.01 877.32 518.48 877.32 520.56C877.32 522.65 876.11 524.12 874.4 524.12ZM874.4 523.19C875.51 523.19 876.29 522.1 876.29 520.56C876.29 519.02 875.51 517.94 874.4 517.94C873.28 517.94 872.49 519.02 872.49 520.56C872.49 522.1 873.28 523.19 874.4 523.19ZM881.383 524.12C879.653 524.12 878.443 522.65 878.443 520.56C878.443 518.48 879.653 517.01 881.383 517.01C883.093 517.01 884.303 518.48 884.303 520.56C884.303 522.65 883.093 524.12 881.383 524.12ZM881.383 523.19C882.493 523.19 883.273 522.1 883.273 520.56C883.273 519.02 882.493 517.94 881.383 517.94C880.263 517.94 879.473 519.02 879.473 520.56C879.473 522.1 880.263 523.19 881.383 523.19Z" fill="black" fill-opacity="0.7"/>
<path d="M1060.29 524V522.42H1056.88L1056.77 521.61L1060.1 517.13H1061.3V521.53H1062.29V522.42H1061.3V524H1060.29ZM1057.88 521.53H1060.29V518.28L1057.88 521.53ZM1066.08 524.12C1064.35 524.12 1063.14 522.65 1063.14 520.56C1063.14 518.48 1064.35 517.01 1066.08 517.01C1067.79 517.01 1069 518.48 1069 520.56C1069 522.65 1067.79 524.12 1066.08 524.12ZM1066.08 523.19C1067.19 523.19 1067.97 522.1 1067.97 520.56C1067.97 519.02 1067.19 517.94 1066.08 517.94C1064.96 517.94 1064.17 519.02 1064.17 520.56C1064.17 522.1 1064.96 523.19 1066.08 523.19ZM1073.06 524.12C1071.33 524.12 1070.12 522.65 1070.12 520.56C1070.12 518.48 1071.33 517.01 1073.06 517.01C1074.77 517.01 1075.98 518.48 1075.98 520.56C1075.98 522.65 1074.77 524.12 1073.06 524.12ZM1073.06 523.19C1074.17 523.19 1074.95 522.1 1074.95 520.56C1074.95 519.02 1074.17 517.94 1073.06 517.94C1071.94 517.94 1071.15 519.02 1071.15 520.56C1071.15 522.1 1071.94 523.19 1073.06 523.19ZM1080.04 524.12C1078.31 524.12 1077.1 522.65 1077.1 520.56C1077.1 518.48 1078.31 517.01 1080.04 517.01C1081.75 517.01 1082.96 518.48 1082.96 520.56C1082.96 522.65 1081.75 524.12 1080.04 524.12ZM1080.04 523.19C1081.15 523.19 1081.93 522.1 1081.93 520.56C1081.93 519.02 1081.15 517.94 1080.04 517.94C1078.92 517.94 1078.13 519.02 1078.13 520.56C1078.13 522.1 1078.92 523.19 1080.04 523.19ZM1087.02 524.12C1085.29 524.12 1084.08 522.65 1084.08 520.56C1084.08 518.48 1085.29 517.01 1087.02 517.01C1088.73 517.01 1089.94 518.48 1089.94 520.56C1089.94 522.65 1088.73 524.12 1087.02 524.12ZM1087.02 523.19C1088.13 523.19 1088.91 522.1 1088.91 520.56C1088.91 519.02 1088.13 517.94 1087.02 517.94C1085.9 517.94 1085.11 519.02 1085.11 520.56C1085.11 522.1 1085.9 523.19 1087.02 523.19Z" fill="black" fill-opacity="0.7"/>
<path d="M1168.89 519.66C1170.15 519.66 1171.2 520.45 1171.2 521.81C1171.2 523.13 1170.16 524.12 1168.71 524.12C1166.8 524.12 1166 522.63 1166 520.67C1166 518.59 1167.23 517.01 1168.9 517.01C1169.75 517.01 1170.38 517.33 1170.9 517.8L1170.38 518.58C1169.96 518.19 1169.52 517.92 1168.89 517.92C1167.85 517.92 1167.07 519.05 1167.03 520.56C1167.45 519.99 1168.14 519.66 1168.89 519.66ZM1168.68 523.26C1169.61 523.26 1170.17 522.55 1170.17 521.86C1170.17 521.02 1169.49 520.51 1168.66 520.51C1167.9 520.51 1167.3 520.95 1167.11 521.61C1167.28 522.6 1167.77 523.26 1168.68 523.26ZM1175.17 524.12C1173.44 524.12 1172.23 522.65 1172.23 520.56C1172.23 518.48 1173.44 517.01 1175.17 517.01C1176.88 517.01 1178.09 518.48 1178.09 520.56C1178.09 522.65 1176.88 524.12 1175.17 524.12ZM1175.17 523.19C1176.28 523.19 1177.06 522.1 1177.06 520.56C1177.06 519.02 1176.28 517.94 1175.17 517.94C1174.05 517.94 1173.26 519.02 1173.26 520.56C1173.26 522.1 1174.05 523.19 1175.17 523.19ZM1182.15 524.12C1180.42 524.12 1179.21 522.65 1179.21 520.56C1179.21 518.48 1180.42 517.01 1182.15 517.01C1183.86 517.01 1185.07 518.48 1185.07 520.56C1185.07 522.65 1183.86 524.12 1182.15 524.12ZM1182.15 523.19C1183.26 523.19 1184.04 522.1 1184.04 520.56C1184.04 519.02 1183.26 517.94 1182.15 517.94C1181.03 517.94 1180.24 519.02 1180.24 520.56C1180.24 522.1 1181.03 523.19 1182.15 523.19ZM1189.13 524.12C1187.4 524.12 1186.19 522.65 1186.19 520.56C1186.19 518.48 1187.4 517.01 1189.13 517.01C1190.84 517.01 1192.05 518.48 1192.05 520.56C1192.05 522.65 1190.84 524.12 1189.13 524.12ZM1189.13 523.19C1190.24 523.19 1191.02 522.1 1191.02 520.56C1191.02 519.02 1190.24 517.94 1189.13 517.94C1188.01 517.94 1187.22 519.02 1187.22 520.56C1187.22 522.1 1188.01 523.19 1189.13 523.19ZM1196.11 524.12C1194.38 524.12 1193.17 522.65 1193.17 520.56C1193.17 518.48 1194.38 517.01 1196.11 517.01C1197.82 517.01 1199.03 518.48 1199.03 520.56C1199.03 522.65 1197.82 524.12 1196.11 524.12ZM1196.11 523.19C1197.22 523.19 1198 522.1 1198 520.56C1198 519.02 1197.22 517.94 1196.11 517.94C1194.99 517.94 1194.2 519.02 1194.2 520.56C1194.2 522.1 1194.99 523.19 1196.11 523.19Z" fill="black" fill-opacity="0.7"/>
<path d="M69.6465 499.12C67.9165 499.12 66.7065 497.65 66.7065 495.56C66.7065 493.48 67.9165 492.01 69.6465 492.01C71.3565 492.01 72.5665 493.48 72.5665 495.56C72.5665 497.65 71.3565 499.12 69.6465 499.12ZM69.6465 498.19C70.7565 498.19 71.5365 497.1 71.5365 495.56C71.5365 494.02 70.7565 492.94 69.6465 492.94C68.5265 492.94 67.7365 494.02 67.7365 495.56C67.7365 497.1 68.5265 498.19 69.6465 498.19Z" fill="black" fill-opacity="0.7"/>
<path d="M45.9727 325.995C44.8827 325.995 44.0527 325.555 43.4727 324.915L44.1027 324.195C44.6227 324.745 45.2627 325.105 45.9927 325.105C46.8827 325.105 47.4927 324.505 47.4927 323.735C47.4927 322.945 46.8727 322.415 45.9827 322.415C45.4127 322.415 44.9327 322.605 44.5227 322.915L43.8127 322.595L43.9127 319.005H48.1327V319.945H44.8727L44.8127 321.985C45.1727 321.745 45.6327 321.545 46.2327 321.545C47.4727 321.545 48.5027 322.325 48.5027 323.695C48.5027 325.085 47.4527 325.995 45.9727 325.995ZM50.428 327.245L50.008 326.925C50.288 326.625 50.478 326.305 50.558 325.995C50.198 325.995 49.908 325.695 49.908 325.325C49.908 324.975 50.188 324.665 50.568 324.665C51.008 324.665 51.298 325.065 51.298 325.615C51.298 326.085 51.068 326.515 50.428 327.245ZM55.6816 325.995C53.9516 325.995 52.7416 324.525 52.7416 322.435C52.7416 320.355 53.9516 318.885 55.6816 318.885C57.3916 318.885 58.6016 320.355 58.6016 322.435C58.6016 324.525 57.3916 325.995 55.6816 325.995ZM55.6816 325.065C56.7916 325.065 57.5716 323.975 57.5716 322.435C57.5716 320.895 56.7916 319.815 55.6816 319.815C54.5616 319.815 53.7716 320.895 53.7716 322.435C53.7716 323.975 54.5616 325.065 55.6816 325.065ZM62.6641 325.995C60.9341 325.995 59.7241 324.525 59.7241 322.435C59.7241 320.355 60.9341 318.885 62.6641 318.885C64.3741 318.885 65.5841 320.355 65.5841 322.435C65.5841 324.525 64.3741 325.995 62.6641 325.995ZM62.6641 325.065C63.7741 325.065 64.5541 323.975 64.5541 322.435C64.5541 320.895 63.7741 319.815 62.6641 319.815C61.5441 319.815 60.7541 320.895 60.7541 322.435C60.7541 323.975 61.5441 325.065 62.6641 325.065ZM69.6465 325.995C67.9165 325.995 66.7065 324.525 66.7065 322.435C66.7065 320.355 67.9165 318.885 69.6465 318.885C71.3565 318.885 72.5665 320.355 72.5665 322.435C72.5665 324.525 71.3565 325.995 69.6465 325.995ZM69.6465 325.065C70.7565 325.065 71.5365 323.975 71.5365 322.435C71.5365 320.895 70.7565 319.815 69.6465 319.815C68.5265 319.815 67.7365 320.895 67.7365 322.435C67.7365 323.975 68.5265 325.065 69.6465 325.065Z" fill="black" fill-opacity="0.7"/>
<path d="M39.9919 251.107V245.437L38.8019 246.197L38.3819 245.467L40.1919 244.237H41.0019V251.107H39.9919ZM45.4805 251.227C43.7505 251.227 42.5405 249.757 42.5405 247.667C42.5405 245.587 43.7505 244.117 45.4805 244.117C47.1905 244.117 48.4005 245.587 48.4005 247.667C48.4005 249.757 47.1905 251.227 45.4805 251.227ZM45.4805 250.297C46.5905 250.297 47.3705 249.207 47.3705 247.667C47.3705 246.127 46.5905 245.047 45.4805 245.047C44.3605 245.047 43.5705 246.127 43.5705 247.667C43.5705 249.207 44.3605 250.297 45.4805 250.297ZM50.3929 252.477L49.9729 252.157C50.2529 251.857 50.4429 251.537 50.5229 251.227C50.1629 251.227 49.8729 250.927 49.8729 250.557C49.8729 250.207 50.1529 249.897 50.5329 249.897C50.9729 249.897 51.2629 250.297 51.2629 250.847C51.2629 251.317 51.0329 251.747 50.3929 252.477ZM55.6465 251.227C53.9165 251.227 52.7065 249.757 52.7065 247.667C52.7065 245.587 53.9165 244.117 55.6465 244.117C57.3565 244.117 58.5665 245.587 58.5665 247.667C58.5665 249.757 57.3565 251.227 55.6465 251.227ZM55.6465 250.297C56.7565 250.297 57.5365 249.207 57.5365 247.667C57.5365 246.127 56.7565 245.047 55.6465 245.047C54.5265 245.047 53.7365 246.127 53.7365 247.667C53.7365 249.207 54.5265 250.297 55.6465 250.297ZM62.6289 251.227C60.8989 251.227 59.6889 249.757 59.6889 247.667C59.6889 245.587 60.8989 244.117 62.6289 244.117C64.3389 244.117 65.5489 245.587 65.5489 247.667C65.5489 249.757 64.3389 251.227 62.6289 251.227ZM62.6289 250.297C63.7389 250.297 64.5189 249.207 64.5189 247.667C64.5189 246.127 63.7389 245.047 62.6289 245.047C61.5089 245.047 60.7189 246.127 60.7189 247.667C60.7189 249.207 61.5089 250.297 62.6289 250.297ZM69.6113 251.227C67.8813 251.227 66.6713 249.757 66.6713 247.667C66.6713 245.587 67.8813 244.117 69.6113 244.117C71.3213 244.117 72.5313 245.587 72.5313 247.667C72.5313 249.757 71.3213 251.227 69.6113 251.227ZM69.6113 250.297C70.7213 250.297 71.5013 249.207 71.5013 247.667C71.5013 246.127 70.7213 245.047 69.6113 245.047C68.4913 245.047 67.7013 246.127 67.7013 247.667C67.7013 249.207 68.4913 250.297 69.6113 250.297Z" fill="black" fill-opacity="0.7"/>
<path d="M38.9551 80.1649C37.8651 80.1649 37.0351 79.7249 36.4551 79.0849L37.0851 78.3649C37.6051 78.9149 38.2451 79.2749 38.9751 79.2749C39.8651 79.2749 40.4751 78.6749 40.4751 77.9049C40.4751 77.1149 39.8551 76.5849 38.9651 76.5849C38.3951 76.5849 37.9151 76.7749 37.5051 77.0849L36.7951 76.7649L36.8951 73.1749H41.1151V74.1149H37.8551L37.7951 76.1549C38.1551 75.9149 38.6151 75.7149 39.2151 75.7149C40.4551 75.7149 41.4851 76.4949 41.4851 77.8649C41.4851 79.2549 40.4351 80.1649 38.9551 80.1649ZM45.4805 80.1649C43.7505 80.1649 42.5405 78.6949 42.5405 76.6049C42.5405 74.5249 43.7505 73.0549 45.4805 73.0549C47.1905 73.0549 48.4005 74.5249 48.4005 76.6049C48.4005 78.6949 47.1905 80.1649 45.4805 80.1649ZM45.4805 79.2349C46.5905 79.2349 47.3705 78.1449 47.3705 76.6049C47.3705 75.0649 46.5905 73.9849 45.4805 73.9849C44.3605 73.9849 43.5705 75.0649 43.5705 76.6049C43.5705 78.1449 44.3605 79.2349 45.4805 79.2349ZM50.3929 81.4149L49.9729 81.0949C50.2529 80.7949 50.4429 80.4749 50.5229 80.1649C50.1629 80.1649 49.8729 79.8649 49.8729 79.4949C49.8729 79.1449 50.1529 78.8349 50.5329 78.8349C50.9729 78.8349 51.2629 79.2349 51.2629 79.7849C51.2629 80.2549 51.0329 80.6849 50.3929 81.4149ZM55.6465 80.1649C53.9165 80.1649 52.7065 78.6949 52.7065 76.6049C52.7065 74.5249 53.9165 73.0549 55.6465 73.0549C57.3565 73.0549 58.5665 74.5249 58.5665 76.6049C58.5665 78.6949 57.3565 80.1649 55.6465 80.1649ZM55.6465 79.2349C56.7565 79.2349 57.5365 78.1449 57.5365 76.6049C57.5365 75.0649 56.7565 73.9849 55.6465 73.9849C54.5265 73.9849 53.7365 75.0649 53.7365 76.6049C53.7365 78.1449 54.5265 79.2349 55.6465 79.2349ZM62.6289 80.1649C60.8989 80.1649 59.6889 78.6949 59.6889 76.6049C59.6889 74.5249 60.8989 73.0549 62.6289 73.0549C64.3389 73.0549 65.5489 74.5249 65.5489 76.6049C65.5489 78.6949 64.3389 80.1649 62.6289 80.1649ZM62.6289 79.2349C63.7389 79.2349 64.5189 78.1449 64.5189 76.6049C64.5189 75.0649 63.7389 73.9849 62.6289 73.9849C61.5089 73.9849 60.7189 75.0649 60.7189 76.6049C60.7189 78.1449 61.5089 79.2349 62.6289 79.2349ZM69.6113 80.1649C67.8813 80.1649 66.6713 78.6949 66.6713 76.6049C66.6713 74.5249 67.8813 73.0549 69.6113 73.0549C71.3213 73.0549 72.5313 74.5249 72.5313 76.6049C72.5313 78.6949 71.3213 80.1649 69.6113 80.1649ZM69.6113 79.2349C70.7213 79.2349 71.5013 78.1449 71.5013 76.6049C71.5013 75.0649 70.7213 73.9849 69.6113 73.9849C68.4913 73.9849 67.7013 75.0649 67.7013 76.6049C67.7013 78.1449 68.4913 79.2349 69.6113 79.2349Z" fill="black" fill-opacity="0.7"/>
<path d="M22.8434 7V1.33L21.6534 2.09L21.2334 1.36L23.0434 0.13H23.8534V7H22.8434ZM26.262 8.37L25.842 8.05C26.122 7.75 26.312 7.43 26.392 7.12C26.032 7.12 25.742 6.82 25.742 6.45C25.742 6.1 26.022 5.79 26.402 5.79C26.842 5.79 27.132 6.19 27.132 6.74C27.132 7.21 26.902 7.64 26.262 8.37ZM31.5156 7.12C29.7856 7.12 28.5756 5.65 28.5756 3.56C28.5756 1.48 29.7856 0.00999939 31.5156 0.00999939C33.2256 0.00999939 34.4356 1.48 34.4356 3.56C34.4356 5.65 33.2256 7.12 31.5156 7.12ZM31.5156 6.19C32.6256 6.19 33.4056 5.1 33.4056 3.56C33.4056 2.02 32.6256 0.94 31.5156 0.94C30.3956 0.94 29.6056 2.02 29.6056 3.56C29.6056 5.1 30.3956 6.19 31.5156 6.19ZM38.498 7.12C36.768 7.12 35.558 5.65 35.558 3.56C35.558 1.48 36.768 0.00999939 38.498 0.00999939C40.208 0.00999939 41.418 1.48 41.418 3.56C41.418 5.65 40.208 7.12 38.498 7.12ZM38.498 6.19C39.608 6.19 40.388 5.1 40.388 3.56C40.388 2.02 39.608 0.94 38.498 0.94C37.378 0.94 36.588 2.02 36.588 3.56C36.588 5.1 37.378 6.19 38.498 6.19ZM45.4805 7.12C43.7505 7.12 42.5405 5.65 42.5405 3.56C42.5405 1.48 43.7505 0.00999939 45.4805 0.00999939C47.1905 0.00999939 48.4005 1.48 48.4005 3.56C48.4005 5.65 47.1905 7.12 45.4805 7.12ZM45.4805 6.19C46.5905 6.19 47.3705 5.1 47.3705 3.56C47.3705 2.02 46.5905 0.94 45.4805 0.94C44.3605 0.94 43.5705 2.02 43.5705 3.56C43.5705 5.1 44.3605 6.19 45.4805 6.19ZM50.3929 8.37L49.9729 8.05C50.2529 7.75 50.4429 7.43 50.5229 7.12C50.1629 7.12 49.8729 6.82 49.8729 6.45C49.8729 6.1 50.1529 5.79 50.5329 5.79C50.9729 5.79 51.2629 6.19 51.2629 6.74C51.2629 7.21 51.0329 7.64 50.3929 8.37ZM55.6465 7.12C53.9165 7.12 52.7065 5.65 52.7065 3.56C52.7065 1.48 53.9165 0.00999939 55.6465 0.00999939C57.3565 0.00999939 58.5665 1.48 58.5665 3.56C58.5665 5.65 57.3565 7.12 55.6465 7.12ZM55.6465 6.19C56.7565 6.19 57.5365 5.1 57.5365 3.56C57.5365 2.02 56.7565 0.94 55.6465 0.94C54.5265 0.94 53.7365 2.02 53.7365 3.56C53.7365 5.1 54.5265 6.19 55.6465 6.19ZM62.6289 7.12C60.8989 7.12 59.6889 5.65 59.6889 3.56C59.6889 1.48 60.8989 0.00999939 62.6289 0.00999939C64.3389 0.00999939 65.5489 1.48 65.5489 3.56C65.5489 5.65 64.3389 7.12 62.6289 7.12ZM62.6289 6.19C63.7389 6.19 64.5189 5.1 64.5189 3.56C64.5189 2.02 63.7389 0.94 62.6289 0.94C61.5089 0.94 60.7189 2.02 60.7189 3.56C60.7189 5.1 61.5089 6.19 62.6289 6.19ZM69.6113 7.12C67.8813 7.12 66.6713 5.65 66.6713 3.56C66.6713 1.48 67.8813 0.00999939 69.6113 0.00999939C71.3213 0.00999939 72.5313 1.48 72.5313 3.56C72.5313 5.65 71.3213 7.12 69.6113 7.12ZM69.6113 6.19C70.7213 6.19 71.5013 5.1 71.5013 3.56C71.5013 2.02 70.7213 0.94 69.6113 0.94C68.4913 0.94 67.7013 2.02 67.7013 3.56C67.7013 5.1 68.4913 6.19 69.6113 6.19Z" fill="black" fill-opacity="0.7"/>
<path d="M1144.26 56.2285C1144.26 62.9531 1142.27 69.5266 1138.53 75.1179C1134.8 80.7092 1129.49 85.067 1123.27 87.6404C1117.06 90.2138 1110.22 90.8871 1103.63 89.5752C1097.03 88.2633 1090.98 85.0251 1086.22 80.2701C1081.47 75.5152 1078.23 69.4569 1076.92 62.8616C1075.6 56.2662 1076.28 49.43 1078.85 43.2173C1081.42 37.0046 1085.78 31.6945 1091.37 27.9585C1096.96 24.2226 1103.54 22.2285 1110.26 22.2285C1119.28 22.2285 1127.93 25.8106 1134.3 32.1869C1140.68 38.5631 1144.26 47.2112 1144.26 56.2285Z" fill="#4065C5" fill-opacity="0.8"/>
<path d="M972 84.5C972 89.7412 970.446 94.8647 967.534 99.2226C964.622 103.581 960.483 106.977 955.641 108.983C950.799 110.989 945.471 111.513 940.33 110.491C935.19 109.468 930.468 106.944 926.762 103.238C923.056 99.5322 920.532 94.8104 919.509 89.6699C918.487 84.5294 919.011 79.2011 921.017 74.3589C923.023 69.5166 926.42 65.3779 930.777 62.466C935.135 59.5542 940.259 58 945.5 58C952.528 58 959.269 60.7919 964.238 65.7617C969.208 70.7314 972 77.4718 972 84.5Z" fill="#D0674D" fill-opacity="0.8"/>
<path d="M788.797 205C788.797 209.551 787.447 214 784.917 217.783C782.388 221.566 778.793 224.514 774.588 226.254C770.382 227.993 765.755 228.446 761.292 227.555C756.829 226.663 752.731 224.468 749.517 221.247C746.302 218.025 744.115 213.923 743.233 209.458C742.351 204.993 742.813 200.367 744.561 196.165C746.31 191.963 749.265 188.375 753.053 185.853C756.842 183.332 761.294 181.991 765.845 182C771.936 182.013 777.774 184.441 782.077 188.753C786.38 193.065 788.797 198.908 788.797 205Z" fill="#EFAC5B" fill-opacity="0.8"/>
<path d="M729.137 263.5C729.137 266.369 728.286 269.174 726.691 271.559C725.096 273.944 722.83 275.803 720.179 276.899C717.527 277.996 714.61 278.281 711.797 277.719C708.983 277.157 706.4 275.773 704.373 273.742C702.346 271.712 700.968 269.125 700.412 266.31C699.856 263.496 700.147 260.579 701.249 257.93C702.351 255.281 704.214 253.019 706.603 251.429C708.991 249.839 711.798 248.994 714.667 249C718.507 249.008 722.188 250.539 724.9 253.258C727.613 255.976 729.137 259.66 729.137 263.5Z" fill="#D7792D" fill-opacity="0.8"/>
<path d="M536.631 284.5C536.631 288.158 535.546 291.734 533.515 294.776C531.483 297.818 528.595 300.189 525.216 301.59C521.836 302.991 518.118 303.358 514.53 302.646C510.942 301.934 507.645 300.174 505.057 297.589C502.469 295.004 500.705 291.71 499.989 288.122C499.273 284.535 499.636 280.816 501.033 277.435C502.43 274.055 504.798 271.164 507.837 269.128C510.876 267.093 514.451 266.004 518.109 266C520.541 265.996 522.949 266.471 525.197 267.399C527.445 268.327 529.487 269.689 531.208 271.408C532.928 273.126 534.293 275.167 535.223 277.414C536.154 279.66 536.632 282.068 536.631 284.5Z" fill="#9E43A4" fill-opacity="0.8"/>
<path d="M888.293 183C888.293 186.56 887.237 190.04 885.259 193C883.282 195.96 880.47 198.267 877.181 199.63C873.892 200.992 870.273 201.349 866.781 200.654C863.29 199.96 860.082 198.245 857.565 195.728C855.048 193.211 853.333 190.003 852.639 186.512C851.944 183.02 852.301 179.401 853.663 176.112C855.026 172.823 857.333 170.011 860.293 168.034C863.253 166.056 866.733 165 870.293 165C875.067 165 879.645 166.896 883.021 170.272C886.397 173.648 888.293 178.226 888.293 183Z" fill="#64A7C9" fill-opacity="0.8"/>
<path d="M689.209 209C689.209 212.56 688.153 216.04 686.175 219C684.198 221.96 681.386 224.267 678.097 225.63C674.808 226.992 671.189 227.349 667.697 226.654C664.206 225.96 660.998 224.245 658.481 221.728C655.964 219.211 654.249 216.003 653.555 212.512C652.86 209.02 653.217 205.401 654.579 202.112C655.942 198.823 658.249 196.011 661.209 194.034C664.169 192.056 667.649 191 671.209 191C675.982 191.003 680.559 192.9 683.934 196.275C687.309 199.65 689.206 204.227 689.209 209Z" fill="#D16E8D" fill-opacity="0.8"/>
<path d="M638.971 276.5C638.971 279.17 638.179 281.78 636.696 284C635.212 286.22 633.104 287.951 630.637 288.972C628.17 289.994 625.456 290.261 622.837 289.741C620.218 289.22 617.813 287.934 615.925 286.046C614.037 284.158 612.751 281.752 612.23 279.134C611.709 276.515 611.977 273.801 612.998 271.334C614.02 268.867 615.75 266.759 617.971 265.275C620.191 263.792 622.801 263 625.471 263C629.05 263.002 632.483 264.425 635.014 266.957C637.545 269.488 638.968 272.92 638.971 276.5Z" fill="#AA2980" fill-opacity="0.8"/>
<path d="M514.41 300.5C514.41 303.368 513.56 306.171 511.966 308.556C510.373 310.94 508.109 312.799 505.459 313.896C502.81 314.994 499.894 315.281 497.081 314.721C494.269 314.162 491.685 312.781 489.657 310.753C487.629 308.725 486.248 306.142 485.689 303.329C485.129 300.516 485.416 297.601 486.514 294.951C487.611 292.302 489.47 290.037 491.854 288.444C494.239 286.85 497.042 286 499.91 286C503.755 286.002 507.442 287.531 510.161 290.25C512.879 292.968 514.408 296.655 514.41 300.5Z" fill="#5C1863" fill-opacity="0.8"/>
<path d="M556.338 317C556.338 319.373 555.634 321.693 554.316 323.667C552.997 325.64 551.123 327.178 548.93 328.087C546.737 328.995 544.325 329.232 541.997 328.769C539.669 328.306 537.531 327.164 535.853 325.485C534.174 323.807 533.031 321.669 532.568 319.341C532.105 317.013 532.343 314.601 533.251 312.408C534.16 310.215 535.698 308.341 537.671 307.022C539.644 305.704 541.965 305 544.338 305C547.52 305 550.573 306.264 552.823 308.515C555.074 310.765 556.338 313.817 556.338 317Z" fill="#935C3C" fill-opacity="0.8"/>
<path d="M291.152 407.5C291.152 410.368 290.302 413.171 288.709 415.556C287.115 417.94 284.851 419.799 282.201 420.896C279.552 421.994 276.636 422.281 273.824 421.721C271.011 421.162 268.427 419.781 266.399 417.753C264.371 415.725 262.99 413.142 262.431 410.329C261.871 407.516 262.159 404.601 263.256 401.951C264.354 399.302 266.212 397.037 268.597 395.444C270.981 393.85 273.785 393 276.652 393C280.498 393 284.186 394.528 286.905 397.247C289.625 399.966 291.152 403.654 291.152 407.5Z" fill="#7F1A13" fill-opacity="0.8"/>
<path d="M792.861 268.5C792.861 271.763 791.894 274.953 790.081 277.667C788.268 280.38 785.691 282.495 782.676 283.744C779.661 284.993 776.343 285.32 773.142 284.683C769.942 284.046 767.002 282.475 764.694 280.167C762.387 277.86 760.815 274.92 760.178 271.719C759.542 268.518 759.868 265.201 761.117 262.186C762.366 259.171 764.481 256.594 767.194 254.781C769.908 252.968 773.098 252 776.361 252C780.737 252 784.934 253.738 788.029 256.833C791.123 259.927 792.861 264.124 792.861 268.5Z" fill="#607CA2" fill-opacity="0.8"/>
<path d="M536.74 247C536.74 249.967 535.861 252.867 534.212 255.334C532.564 257.8 530.221 259.723 527.48 260.858C524.74 261.994 521.724 262.291 518.814 261.712C515.904 261.133 513.231 259.704 511.134 257.607C509.036 255.509 507.607 252.836 507.028 249.926C506.45 247.017 506.747 244.001 507.882 241.26C509.017 238.519 510.94 236.176 513.407 234.528C515.873 232.88 518.774 232 521.74 232C525.718 232 529.534 233.58 532.347 236.393C535.16 239.206 536.74 243.022 536.74 247Z" fill="#52A799" fill-opacity="0.8"/>
<path d="M624.594 332C624.594 334.373 623.89 336.693 622.571 338.667C621.253 340.64 619.379 342.178 617.186 343.087C614.993 343.995 612.58 344.232 610.253 343.769C607.925 343.306 605.787 342.164 604.108 340.485C602.43 338.807 601.287 336.669 600.824 334.341C600.361 332.013 600.599 329.601 601.507 327.408C602.415 325.215 603.954 323.341 605.927 322.022C607.9 320.704 610.22 320 612.594 320C615.776 320 618.829 321.264 621.079 323.515C623.329 325.765 624.594 328.817 624.594 332Z" fill="#AD7635" fill-opacity="0.8"/>
<path d="M616.375 292C616.375 294.967 615.495 297.867 613.847 300.334C612.199 302.8 609.856 304.723 607.115 305.858C604.374 306.994 601.358 307.291 598.449 306.712C595.539 306.133 592.866 304.704 590.768 302.607C588.671 300.509 587.242 297.836 586.663 294.926C586.084 292.017 586.381 289.001 587.517 286.26C588.652 283.519 590.575 281.176 593.041 279.528C595.508 277.88 598.408 277 601.375 277C605.353 277 609.169 278.58 611.982 281.393C614.795 284.206 616.375 288.022 616.375 292Z" fill="#7A59CB" fill-opacity="0.8"/>
<path d="M634.283 256C634.283 258.769 633.462 261.476 631.924 263.778C630.385 266.08 628.199 267.875 625.641 268.934C623.083 269.994 620.268 270.271 617.552 269.731C614.836 269.191 612.342 267.857 610.384 265.899C608.426 263.942 607.092 261.447 606.552 258.731C606.012 256.016 606.289 253.201 607.349 250.642C608.409 248.084 610.203 245.898 612.505 244.359C614.808 242.821 617.514 242 620.283 242C623.996 242 627.557 243.475 630.183 246.101C632.808 248.726 634.283 252.287 634.283 256Z" fill="#AEC341" fill-opacity="0.8"/>
<path d="M417.4 335.5C417.4 337.774 416.726 339.998 415.462 341.889C414.199 343.78 412.403 345.254 410.301 346.125C408.2 346.995 405.888 347.223 403.657 346.779C401.426 346.335 399.377 345.24 397.769 343.632C396.16 342.023 395.065 339.974 394.621 337.744C394.178 335.513 394.405 333.2 395.276 331.099C396.146 328.998 397.62 327.202 399.511 325.938C401.402 324.674 403.626 324 405.9 324C408.95 324 411.875 325.212 414.032 327.368C416.189 329.525 417.4 332.45 417.4 335.5Z" fill="#6E8C32" fill-opacity="0.8"/>
<path d="M355.832 346C355.832 348.373 355.128 350.693 353.81 352.667C352.491 354.64 350.617 356.178 348.424 357.087C346.232 357.995 343.819 358.232 341.491 357.769C339.163 357.306 337.025 356.164 335.347 354.485C333.669 352.807 332.526 350.669 332.063 348.341C331.6 346.013 331.837 343.601 332.745 341.408C333.654 339.215 335.192 337.341 337.165 336.022C339.139 334.704 341.459 334 343.832 334C347.015 334 350.067 335.264 352.317 337.515C354.568 339.765 355.832 342.817 355.832 346Z" fill="#63D346" fill-opacity="0.8"/>
<path d="M424.668 333C424.668 335.571 423.906 338.085 422.477 340.222C421.049 342.36 419.018 344.026 416.643 345.01C414.267 345.994 411.654 346.252 409.132 345.75C406.61 345.249 404.294 344.01 402.476 342.192C400.658 340.374 399.419 338.058 398.918 335.536C398.416 333.014 398.674 330.401 399.658 328.025C400.641 325.65 402.308 323.619 404.446 322.191C406.583 320.762 409.097 320 411.668 320C415.116 320 418.422 321.37 420.86 323.808C423.298 326.246 424.668 329.552 424.668 333Z" fill="#4F9066" fill-opacity="0.8"/>
<path d="M199.676 374C199.676 375.978 199.089 377.911 197.99 379.556C196.892 381.2 195.33 382.482 193.503 383.239C191.675 383.996 189.665 384.194 187.725 383.808C185.785 383.422 184.003 382.47 182.605 381.071C181.206 379.673 180.254 377.891 179.868 375.951C179.482 374.011 179.68 372 180.437 370.173C181.194 368.346 182.476 366.784 184.12 365.685C185.765 364.586 187.698 364 189.676 364C192.328 364 194.871 365.054 196.747 366.929C198.622 368.804 199.676 371.348 199.676 374Z" fill="#40758A" fill-opacity="0.8"/>
<path d="M698.539 299C698.539 301.373 697.835 303.693 696.517 305.667C695.198 307.64 693.324 309.178 691.131 310.087C688.939 310.995 686.526 311.232 684.198 310.769C681.87 310.306 679.732 309.164 678.054 307.485C676.376 305.807 675.233 303.669 674.77 301.341C674.307 299.013 674.544 296.601 675.453 294.408C676.361 292.215 677.899 290.341 679.872 289.022C681.846 287.704 684.166 287 686.539 287C689.722 287 692.774 288.264 695.024 290.515C697.275 292.765 698.539 295.817 698.539 299Z" fill="#E1489B" fill-opacity="0.8"/>
<path d="M943.127 308C943.127 310.373 942.423 312.693 941.105 314.667C939.786 316.64 937.912 318.178 935.719 319.087C933.526 319.995 931.114 320.232 928.786 319.769C926.458 319.306 924.32 318.164 922.642 316.485C920.963 314.807 919.821 312.669 919.358 310.341C918.895 308.013 919.132 305.601 920.04 303.408C920.949 301.215 922.487 299.341 924.46 298.022C926.434 296.704 928.754 296 931.127 296C934.31 296 937.362 297.264 939.612 299.515C941.863 301.765 943.127 304.817 943.127 308Z" fill="#3C3EA6" fill-opacity="0.8"/>
<path d="M734.512 243.5C734.512 245.775 733.837 247.999 732.572 249.891C731.308 251.782 729.511 253.256 727.409 254.126C725.307 254.996 722.993 255.223 720.762 254.778C718.531 254.333 716.482 253.236 714.874 251.626C713.267 250.016 712.173 247.965 711.731 245.734C711.289 243.502 711.519 241.189 712.392 239.088C713.265 236.987 714.741 235.192 716.634 233.93C718.528 232.669 720.753 231.997 723.028 232C726.074 232.006 728.994 233.221 731.147 235.376C733.3 237.532 734.51 240.453 734.512 243.5Z" fill="#5B73A2" fill-opacity="0.8"/>
<path d="M513.676 292.991C513.678 295.365 512.975 297.686 511.658 299.66C510.34 301.635 508.467 303.174 506.274 304.084C504.082 304.994 501.669 305.233 499.34 304.771C497.012 304.309 494.873 303.166 493.194 301.488C491.515 299.811 490.371 297.672 489.907 295.344C489.443 293.016 489.68 290.603 490.588 288.41C491.496 286.217 493.034 284.342 495.008 283.023C496.982 281.704 499.302 281 501.676 281C504.857 281 507.908 282.263 510.158 284.512C512.408 286.76 513.673 289.81 513.676 292.991Z" fill="#BAA539" fill-opacity="0.8"/>
<path d="M604.998 266C604.998 268.967 604.118 271.867 602.47 274.334C600.822 276.8 598.479 278.723 595.738 279.858C592.997 280.994 589.981 281.291 587.072 280.712C584.162 280.133 581.489 278.704 579.391 276.607C577.294 274.509 575.865 271.836 575.286 268.926C574.707 266.017 575.005 263.001 576.14 260.26C577.275 257.519 579.198 255.176 581.664 253.528C584.131 251.88 587.031 251 589.998 251C593.976 251 597.792 252.58 600.605 255.393C603.418 258.206 604.998 262.022 604.998 266Z" fill="#B6B65C" fill-opacity="0.8"/>
<path d="M844.521 256C844.521 260.153 843.29 264.214 840.982 267.667C838.675 271.12 835.395 273.812 831.558 275.401C827.721 276.991 823.498 277.407 819.425 276.596C815.351 275.786 811.609 273.786 808.672 270.849C805.735 267.912 803.735 264.17 802.925 260.097C802.115 256.023 802.531 251.801 804.12 247.964C805.709 244.126 808.401 240.847 811.855 238.539C815.308 236.232 819.368 235 823.521 235C829.091 235 834.432 237.213 838.371 241.151C842.309 245.089 844.521 250.43 844.521 256Z" fill="#64A455" fill-opacity="0.8"/>
<path opacity="0.6" d="M584.668 203.523C584.663 206.588 583.75 209.582 582.044 212.128C580.339 214.674 577.916 216.657 575.084 217.827C572.251 218.996 569.135 219.3 566.13 218.699C563.125 218.099 560.365 216.621 558.2 214.452C556.034 212.283 554.56 209.521 553.964 206.515C553.368 203.509 553.676 200.394 554.85 197.563C556.024 194.732 558.011 192.313 560.559 190.611C563.107 188.908 566.103 188 569.168 188C571.205 188.002 573.222 188.404 575.103 189.185C576.984 189.966 578.694 191.11 580.133 192.551C581.572 193.993 582.714 195.704 583.492 197.586C584.27 199.469 584.669 201.486 584.668 203.523Z" fill="#A068A5" fill-opacity="0.8"/>
<path d="M351.941 319.5C351.941 320.786 351.56 322.042 350.846 323.111C350.132 324.18 349.117 325.013 347.929 325.505C346.741 325.997 345.434 326.126 344.173 325.875C342.912 325.624 341.754 325.005 340.845 324.096C339.936 323.187 339.317 322.029 339.066 320.768C338.816 319.507 338.944 318.2 339.436 317.013C339.928 315.825 340.761 314.81 341.83 314.095C342.899 313.381 344.156 313 345.441 313C347.165 313 348.819 313.685 350.038 314.904C351.257 316.123 351.941 317.776 351.941 319.5Z" fill="#285829" fill-opacity="0.8"/>
<path d="M813.191 250C813.191 253.164 812.253 256.256 810.496 258.887C808.739 261.518 806.241 263.569 803.319 264.78C800.396 265.992 797.18 266.31 794.077 265.694C790.974 265.078 788.123 263.556 785.884 261.32C783.646 259.085 782.121 256.235 781.501 253.133C780.882 250.03 781.196 246.814 782.404 243.89C783.612 240.966 785.66 238.466 788.289 236.706C790.917 234.945 794.009 234.004 797.173 234C799.276 233.996 801.359 234.408 803.303 235.21C805.247 236.013 807.013 237.191 808.501 238.677C809.989 240.163 811.169 241.928 811.974 243.871C812.779 245.814 813.193 247.897 813.191 250Z" fill="#8CB456" fill-opacity="0.8"/>
<path d="M830.412 202.5C830.412 205.961 829.386 209.345 827.463 212.222C825.54 215.1 822.807 217.343 819.609 218.668C816.411 219.992 812.893 220.339 809.498 219.664C806.103 218.988 802.985 217.322 800.538 214.874C798.09 212.427 796.424 209.309 795.748 205.914C795.073 202.519 795.42 199.001 796.744 195.803C798.069 192.605 800.312 189.872 803.19 187.949C806.067 186.026 809.451 185 812.912 185C817.553 185 822.005 186.844 825.286 190.126C828.568 193.408 830.412 197.859 830.412 202.5Z" fill="#B55C58" fill-opacity="0.8"/>
<path d="M499.216 571.872H504.688V574H496.848V563.008H499.216V571.872ZM512.598 574.192C509.43 574.192 506.742 571.584 506.742 568.496C506.742 565.408 509.43 562.816 512.598 562.816C515.766 562.816 518.422 565.408 518.422 568.496C518.422 571.584 515.766 574.192 512.598 574.192ZM512.598 572.048C514.438 572.048 516.006 570.416 516.006 568.496C516.006 566.592 514.438 564.96 512.598 564.96C510.742 564.96 509.174 566.592 509.174 568.496C509.174 570.416 510.742 572.048 512.598 572.048ZM526.202 569.664V567.824H531.05V572.352C529.962 573.504 528.25 574.192 526.618 574.192C523.418 574.192 520.714 571.584 520.714 568.496C520.714 565.408 523.418 562.816 526.618 562.816C528.25 562.816 529.962 563.504 531.05 564.656L529.338 566.192C528.682 565.44 527.626 564.96 526.618 564.96C524.73 564.96 523.146 566.592 523.146 568.496C523.146 570.416 524.73 572.048 526.618 572.048C527.354 572.048 528.138 571.792 528.746 571.344V569.664H526.202ZM542.153 574L541.385 572.112H536.617L535.849 574H533.209L537.689 563.008H540.329L544.809 574H542.153ZM537.369 570.272H540.633L539.001 566.256L537.369 570.272ZM556.496 566.72C556.496 568.448 555.408 569.76 553.76 570.24L556.4 574H553.712L551.2 570.432H549.776V574H547.408V563.008H552.352C554.752 563.008 556.496 564.544 556.496 566.72ZM549.776 565.168V568.272H552.112C553.28 568.272 554.08 567.664 554.08 566.72C554.08 565.776 553.28 565.168 552.112 565.168H549.776ZM559.473 574V563.008H561.841V574H559.473ZM567.974 574V565.136H564.55V563.008H573.766V565.136H570.326V574H567.974ZM583.824 563.008H586.176V574H583.824V569.456H578.816V574H576.448V563.008H578.816V567.328H583.824V563.008ZM589.78 574V563.008H592.148L595.54 569.216L598.948 563.008H601.3V574H598.948V567.152L595.54 573.36L592.148 567.152V574H589.78ZM604.892 574V563.008H607.26V574H604.892ZM616.048 574.192C612.88 574.192 610.192 571.584 610.192 568.496C610.192 565.408 612.88 562.816 616.048 562.816C617.712 562.816 619.232 563.52 620.304 564.656L618.592 566.192C617.968 565.456 617.04 564.96 616.048 564.96C614.192 564.96 612.624 566.592 612.624 568.496C612.624 570.416 614.192 572.048 616.048 572.048C617.056 572.048 617.968 571.552 618.592 570.816L620.304 572.352C619.232 573.472 617.712 574.192 616.048 574.192ZM633.367 574.192C630.199 574.192 627.511 571.584 627.511 568.496C627.511 565.408 630.199 562.816 633.367 562.816C635.031 562.816 636.551 563.52 637.623 564.656L635.911 566.192C635.287 565.456 634.359 564.96 633.367 564.96C631.511 564.96 629.943 566.592 629.943 568.496C629.943 570.416 631.511 572.048 633.367 572.048C634.375 572.048 635.287 571.552 635.911 570.816L637.623 572.352C636.551 573.472 635.031 574.192 633.367 574.192ZM645.526 574.192C642.358 574.192 639.67 571.584 639.67 568.496C639.67 565.408 642.358 562.816 645.526 562.816C648.694 562.816 651.35 565.408 651.35 568.496C651.35 571.584 648.694 574.192 645.526 574.192ZM645.526 572.048C647.366 572.048 648.934 570.416 648.934 568.496C648.934 566.592 647.366 564.96 645.526 564.96C643.67 564.96 642.102 566.592 642.102 568.496C642.102 570.416 643.67 572.048 645.526 572.048ZM654.298 574V563.008H656.666L660.058 569.216L663.466 563.008H665.818V574H663.466V567.152L660.058 573.36L656.666 567.152V574H654.298ZM669.411 574V563.008H671.779L675.171 569.216L678.579 563.008H680.931V574H678.579V567.152L675.171 573.36L671.779 567.152V574H669.411ZM684.523 574V563.008H686.891V574H684.523ZM693.024 574V565.136H689.6V563.008H698.816V565.136H695.376V574H693.024ZM705.562 574.192C703.642 574.192 701.962 573.552 700.682 572.368L702.026 570.752C703.066 571.648 704.25 572.192 705.642 572.192C706.842 572.192 707.45 571.648 707.45 570.96C707.45 570.176 706.81 569.936 705.13 569.552C702.81 569.024 701.146 568.368 701.146 566.24C701.146 564.208 702.81 562.816 705.226 562.816C707.018 562.816 708.394 563.376 709.53 564.336L708.298 566.048C707.306 565.248 706.202 564.816 705.146 564.816C704.154 564.816 703.53 565.344 703.53 566C703.53 566.8 704.202 567.056 705.898 567.44C708.266 567.968 709.834 568.672 709.834 570.704C709.834 572.8 708.234 574.192 705.562 574.192Z" fill="black"/>
<path d="M499.216 571.872H504.688V574H496.848V563.008H499.216V571.872ZM512.598 574.192C509.43 574.192 506.742 571.584 506.742 568.496C506.742 565.408 509.43 562.816 512.598 562.816C515.766 562.816 518.422 565.408 518.422 568.496C518.422 571.584 515.766 574.192 512.598 574.192ZM512.598 572.048C514.438 572.048 516.006 570.416 516.006 568.496C516.006 566.592 514.438 564.96 512.598 564.96C510.742 564.96 509.174 566.592 509.174 568.496C509.174 570.416 510.742 572.048 512.598 572.048ZM526.202 569.664V567.824H531.05V572.352C529.962 573.504 528.25 574.192 526.618 574.192C523.418 574.192 520.714 571.584 520.714 568.496C520.714 565.408 523.418 562.816 526.618 562.816C528.25 562.816 529.962 563.504 531.05 564.656L529.338 566.192C528.682 565.44 527.626 564.96 526.618 564.96C524.73 564.96 523.146 566.592 523.146 568.496C523.146 570.416 524.73 572.048 526.618 572.048C527.354 572.048 528.138 571.792 528.746 571.344V569.664H526.202ZM542.153 574L541.385 572.112H536.617L535.849 574H533.209L537.689 563.008H540.329L544.809 574H542.153ZM537.369 570.272H540.633L539.001 566.256L537.369 570.272ZM556.496 566.72C556.496 568.448 555.408 569.76 553.76 570.24L556.4 574H553.712L551.2 570.432H549.776V574H547.408V563.008H552.352C554.752 563.008 556.496 564.544 556.496 566.72ZM549.776 565.168V568.272H552.112C553.28 568.272 554.08 567.664 554.08 566.72C554.08 565.776 553.28 565.168 552.112 565.168H549.776ZM559.473 574V563.008H561.841V574H559.473ZM567.974 574V565.136H564.55V563.008H573.766V565.136H570.326V574H567.974ZM583.824 563.008H586.176V574H583.824V569.456H578.816V574H576.448V563.008H578.816V567.328H583.824V563.008ZM589.78 574V563.008H592.148L595.54 569.216L598.948 563.008H601.3V574H598.948V567.152L595.54 573.36L592.148 567.152V574H589.78ZM604.892 574V563.008H607.26V574H604.892ZM616.048 574.192C612.88 574.192 610.192 571.584 610.192 568.496C610.192 565.408 612.88 562.816 616.048 562.816C617.712 562.816 619.232 563.52 620.304 564.656L618.592 566.192C617.968 565.456 617.04 564.96 616.048 564.96C614.192 564.96 612.624 566.592 612.624 568.496C612.624 570.416 614.192 572.048 616.048 572.048C617.056 572.048 617.968 571.552 618.592 570.816L620.304 572.352C619.232 573.472 617.712 574.192 616.048 574.192ZM633.367 574.192C630.199 574.192 627.511 571.584 627.511 568.496C627.511 565.408 630.199 562.816 633.367 562.816C635.031 562.816 636.551 563.52 637.623 564.656L635.911 566.192C635.287 565.456 634.359 564.96 633.367 564.96C631.511 564.96 629.943 566.592 629.943 568.496C629.943 570.416 631.511 572.048 633.367 572.048C634.375 572.048 635.287 571.552 635.911 570.816L637.623 572.352C636.551 573.472 635.031 574.192 633.367 574.192ZM645.526 574.192C642.358 574.192 639.67 571.584 639.67 568.496C639.67 565.408 642.358 562.816 645.526 562.816C648.694 562.816 651.35 565.408 651.35 568.496C651.35 571.584 648.694 574.192 645.526 574.192ZM645.526 572.048C647.366 572.048 648.934 570.416 648.934 568.496C648.934 566.592 647.366 564.96 645.526 564.96C643.67 564.96 642.102 566.592 642.102 568.496C642.102 570.416 643.67 572.048 645.526 572.048ZM654.298 574V563.008H656.666L660.058 569.216L663.466 563.008H665.818V574H663.466V567.152L660.058 573.36L656.666 567.152V574H654.298ZM669.411 574V563.008H671.779L675.171 569.216L678.579 563.008H680.931V574H678.579V567.152L675.171 573.36L671.779 567.152V574H669.411ZM684.523 574V563.008H686.891V574H684.523ZM693.024 574V565.136H689.6V563.008H698.816V565.136H695.376V574H693.024ZM705.562 574.192C703.642 574.192 701.962 573.552 700.682 572.368L702.026 570.752C703.066 571.648 704.25 572.192 705.642 572.192C706.842 572.192 707.45 571.648 707.45 570.96C707.45 570.176 706.81 569.936 705.13 569.552C702.81 569.024 701.146 568.368 701.146 566.24C701.146 564.208 702.81 562.816 705.226 562.816C707.018 562.816 708.394 563.376 709.53 564.336L708.298 566.048C707.306 565.248 706.202 564.816 705.146 564.816C704.154 564.816 703.53 565.344 703.53 566C703.53 566.8 704.202 567.056 705.898 567.44C708.266 567.968 709.834 568.672 709.834 570.704C709.834 572.8 708.234 574.192 705.562 574.192Z" fill="black" fill-opacity="0.2"/>
<path d="M12 297.336H1.008V292.392C1.008 289.992 2.544 288.248 4.72 288.248C6.896 288.248 8.432 289.992 8.432 292.392V294.968H12V297.336ZM6.272 294.968V292.632C6.272 291.464 5.664 290.664 4.72 290.664C3.776 290.664 3.168 291.464 3.168 292.632V294.968H6.272ZM4.72 276.323C6.448 276.323 7.76 277.411 8.24 279.059L12 276.419V279.107L8.432 281.619V283.043H12V285.411H1.008V280.467C1.008 278.067 2.544 276.323 4.72 276.323ZM3.168 283.043H6.272V280.707C6.272 279.539 5.664 278.739 4.72 278.739C3.776 278.739 3.168 279.539 3.168 280.707V283.043ZM12.192 269.282C12.192 271.202 11.552 272.882 10.368 274.162L8.752 272.818C9.648 271.778 10.192 270.594 10.192 269.202C10.192 268.002 9.648 267.394 8.96 267.394C8.176 267.394 7.936 268.034 7.552 269.714C7.024 272.034 6.368 273.698 4.24 273.698C2.208 273.698 0.815999 272.034 0.815999 269.618C0.815999 267.826 1.376 266.45 2.336 265.314L4.048 266.546C3.248 267.538 2.816 268.642 2.816 269.698C2.816 270.69 3.344 271.314 4 271.314C4.8 271.314 5.056 270.642 5.44 268.946C5.968 266.578 6.672 265.01 8.704 265.01C10.8 265.01 12.192 266.61 12.192 269.282ZM5.712 249.653H7.616V252.501H10.528V254.517H7.616V257.381H5.712V254.517H2.8V252.501H5.712V249.653ZM12 241.349H1.008V238.981H12V241.349ZM12.192 231.328C12.192 233.248 11.552 234.928 10.368 236.208L8.752 234.864C9.648 233.824 10.192 232.64 10.192 231.248C10.192 230.048 9.648 229.44 8.96 229.44C8.176 229.44 7.936 230.08 7.552 231.76C7.024 234.08 6.368 235.744 4.24 235.744C2.208 235.744 0.815999 234.08 0.815999 231.664C0.815999 229.872 1.376 228.496 2.336 227.36L4.048 228.592C3.248 229.584 2.816 230.688 2.816 231.744C2.816 232.736 3.344 233.36 4 233.36C4.8 233.36 5.056 232.688 5.44 230.992C5.968 228.624 6.672 227.056 8.704 227.056C10.8 227.056 12.192 228.656 12.192 231.328ZM12.192 220.091C12.192 222.011 11.552 223.691 10.368 224.971L8.752 223.627C9.648 222.587 10.192 221.403 10.192 220.011C10.192 218.811 9.648 218.203 8.96 218.203C8.176 218.203 7.936 218.843 7.552 220.523C7.024 222.843 6.368 224.507 4.24 224.507C2.208 224.507 0.815999 222.843 0.815999 220.427C0.815999 218.635 1.376 217.259 2.336 216.123L4.048 217.355C3.248 218.347 2.816 219.451 2.816 220.507C2.816 221.499 3.344 222.123 4 222.123C4.8 222.123 5.056 221.451 5.44 219.755C5.968 217.387 6.672 215.819 8.704 215.819C10.8 215.819 12.192 217.419 12.192 220.091ZM12.192 208.181C12.192 211.109 10.144 213.157 7.248 213.157H1.008V210.805H7.152C8.848 210.805 10.048 209.717 10.048 208.181C10.048 206.661 8.848 205.573 7.152 205.573H1.008V203.205H7.248C10.144 203.205 12.192 205.269 12.192 208.181ZM3.136 191.403V197.499H5.328V191.963H7.456V197.499H9.872V191.403H12V199.867H1.008V191.403H3.136ZM12.192 184.253C12.192 186.173 11.552 187.853 10.368 189.133L8.752 187.789C9.648 186.749 10.192 185.565 10.192 184.173C10.192 182.973 9.648 182.365 8.96 182.365C8.176 182.365 7.936 183.005 7.552 184.685C7.024 187.005 6.368 188.669 4.24 188.669C2.208 188.669 0.815999 187.005 0.815999 184.589C0.815999 182.797 1.376 181.421 2.336 180.285L4.048 181.517C3.248 182.509 2.816 183.613 2.816 184.669C2.816 185.661 3.344 186.285 4 186.285C4.8 186.285 5.056 185.613 5.44 183.917C5.968 181.549 6.672 179.981 8.704 179.981C10.8 179.981 12.192 181.581 12.192 184.253Z" fill="black"/>
<path d="M12 297.336H1.008V292.392C1.008 289.992 2.544 288.248 4.72 288.248C6.896 288.248 8.432 289.992 8.432 292.392V294.968H12V297.336ZM6.272 294.968V292.632C6.272 291.464 5.664 290.664 4.72 290.664C3.776 290.664 3.168 291.464 3.168 292.632V294.968H6.272ZM4.72 276.323C6.448 276.323 7.76 277.411 8.24 279.059L12 276.419V279.107L8.432 281.619V283.043H12V285.411H1.008V280.467C1.008 278.067 2.544 276.323 4.72 276.323ZM3.168 283.043H6.272V280.707C6.272 279.539 5.664 278.739 4.72 278.739C3.776 278.739 3.168 279.539 3.168 280.707V283.043ZM12.192 269.282C12.192 271.202 11.552 272.882 10.368 274.162L8.752 272.818C9.648 271.778 10.192 270.594 10.192 269.202C10.192 268.002 9.648 267.394 8.96 267.394C8.176 267.394 7.936 268.034 7.552 269.714C7.024 272.034 6.368 273.698 4.24 273.698C2.208 273.698 0.815999 272.034 0.815999 269.618C0.815999 267.826 1.376 266.45 2.336 265.314L4.048 266.546C3.248 267.538 2.816 268.642 2.816 269.698C2.816 270.69 3.344 271.314 4 271.314C4.8 271.314 5.056 270.642 5.44 268.946C5.968 266.578 6.672 265.01 8.704 265.01C10.8 265.01 12.192 266.61 12.192 269.282ZM5.712 249.653H7.616V252.501H10.528V254.517H7.616V257.381H5.712V254.517H2.8V252.501H5.712V249.653ZM12 241.349H1.008V238.981H12V241.349ZM12.192 231.328C12.192 233.248 11.552 234.928 10.368 236.208L8.752 234.864C9.648 233.824 10.192 232.64 10.192 231.248C10.192 230.048 9.648 229.44 8.96 229.44C8.176 229.44 7.936 230.08 7.552 231.76C7.024 234.08 6.368 235.744 4.24 235.744C2.208 235.744 0.815999 234.08 0.815999 231.664C0.815999 229.872 1.376 228.496 2.336 227.36L4.048 228.592C3.248 229.584 2.816 230.688 2.816 231.744C2.816 232.736 3.344 233.36 4 233.36C4.8 233.36 5.056 232.688 5.44 230.992C5.968 228.624 6.672 227.056 8.704 227.056C10.8 227.056 12.192 228.656 12.192 231.328ZM12.192 220.091C12.192 222.011 11.552 223.691 10.368 224.971L8.752 223.627C9.648 222.587 10.192 221.403 10.192 220.011C10.192 218.811 9.648 218.203 8.96 218.203C8.176 218.203 7.936 218.843 7.552 220.523C7.024 222.843 6.368 224.507 4.24 224.507C2.208 224.507 0.815999 222.843 0.815999 220.427C0.815999 218.635 1.376 217.259 2.336 216.123L4.048 217.355C3.248 218.347 2.816 219.451 2.816 220.507C2.816 221.499 3.344 222.123 4 222.123C4.8 222.123 5.056 221.451 5.44 219.755C5.968 217.387 6.672 215.819 8.704 215.819C10.8 215.819 12.192 217.419 12.192 220.091ZM12.192 208.181C12.192 211.109 10.144 213.157 7.248 213.157H1.008V210.805H7.152C8.848 210.805 10.048 209.717 10.048 208.181C10.048 206.661 8.848 205.573 7.152 205.573H1.008V203.205H7.248C10.144 203.205 12.192 205.269 12.192 208.181ZM3.136 191.403V197.499H5.328V191.963H7.456V197.499H9.872V191.403H12V199.867H1.008V191.403H3.136ZM12.192 184.253C12.192 186.173 11.552 187.853 10.368 189.133L8.752 187.789C9.648 186.749 10.192 185.565 10.192 184.173C10.192 182.973 9.648 182.365 8.96 182.365C8.176 182.365 7.936 183.005 7.552 184.685C7.024 187.005 6.368 188.669 4.24 188.669C2.208 188.669 0.815999 187.005 0.815999 184.589C0.815999 182.797 1.376 181.421 2.336 180.285L4.048 181.517C3.248 182.509 2.816 183.613 2.816 184.669C2.816 185.661 3.344 186.285 4 186.285C4.8 186.285 5.056 185.613 5.44 183.917C5.968 181.549 6.672 179.981 8.704 179.981C10.8 179.981 12.192 181.581 12.192 184.253Z" fill="black" fill-opacity="0.2"/>
</svg>
