<svg width="330" height="245" viewBox="0 0 330 245" fill="none" xmlns="http://www.w3.org/2000/svg">
<path d="M109.182 242.856H112.125V244H107.909V238.088H109.182V242.856ZM116.379 244.103C114.675 244.103 113.23 242.701 113.23 241.04C113.23 239.379 114.675 237.985 116.379 237.985C118.083 237.985 119.512 239.379 119.512 241.04C119.512 242.701 118.083 244.103 116.379 244.103ZM116.379 242.95C117.369 242.95 118.212 242.072 118.212 241.04C118.212 240.016 117.369 239.138 116.379 239.138C115.381 239.138 114.538 240.016 114.538 241.04C114.538 242.072 115.381 242.95 116.379 242.95ZM123.696 241.668V240.678H126.303V243.114C125.718 243.733 124.797 244.103 123.92 244.103C122.199 244.103 120.744 242.701 120.744 241.04C120.744 239.379 122.199 237.985 123.92 237.985C124.797 237.985 125.718 238.355 126.303 238.975L125.383 239.801C125.03 239.396 124.462 239.138 123.92 239.138C122.904 239.138 122.052 240.016 122.052 241.04C122.052 242.072 122.904 242.95 123.92 242.95C124.315 242.95 124.737 242.812 125.064 242.572V241.668H123.696ZM132.275 244L131.862 242.985H129.298L128.884 244H127.465L129.874 238.088H131.294L133.703 244H132.275ZM129.702 241.995H131.457L130.58 239.835L129.702 241.995ZM139.989 240.085C139.989 241.014 139.403 241.72 138.517 241.978L139.937 244H138.491L137.14 242.081H136.374V244H135.101V238.088H137.76C139.051 238.088 139.989 238.914 139.989 240.085ZM136.374 239.25V240.919H137.631C138.259 240.919 138.689 240.592 138.689 240.085C138.689 239.577 138.259 239.25 137.631 239.25H136.374ZM141.59 244V238.088H142.864V244H141.59ZM146.162 244V239.233H144.32V238.088H149.277V239.233H147.427V244H146.162ZM154.687 238.088H155.952V244H154.687V241.556H151.993V244H150.72V238.088H151.993V240.412H154.687V238.088ZM157.89 244V238.088H159.163L160.988 241.427L162.82 238.088H164.085V244H162.82V240.317L160.988 243.656L159.163 240.317V244H157.89ZM166.018 244V238.088H167.291V244H166.018ZM172.018 244.103C170.314 244.103 168.868 242.701 168.868 241.04C168.868 239.379 170.314 237.985 172.018 237.985C172.913 237.985 173.73 238.364 174.307 238.975L173.386 239.801C173.05 239.405 172.551 239.138 172.018 239.138C171.02 239.138 170.176 240.016 170.176 241.04C170.176 242.072 171.02 242.95 172.018 242.95C172.56 242.95 173.05 242.683 173.386 242.288L174.307 243.114C173.73 243.716 172.913 244.103 172.018 244.103ZM181.332 244.103C179.628 244.103 178.183 242.701 178.183 241.04C178.183 239.379 179.628 237.985 181.332 237.985C182.227 237.985 183.045 238.364 183.621 238.975L182.7 239.801C182.365 239.405 181.866 239.138 181.332 239.138C180.334 239.138 179.491 240.016 179.491 241.04C179.491 242.072 180.334 242.95 181.332 242.95C181.874 242.95 182.365 242.683 182.7 242.288L183.621 243.114C183.045 243.716 182.227 244.103 181.332 244.103ZM187.872 244.103C186.168 244.103 184.722 242.701 184.722 241.04C184.722 239.379 186.168 237.985 187.872 237.985C189.576 237.985 191.004 239.379 191.004 241.04C191.004 242.701 189.576 244.103 187.872 244.103ZM187.872 242.95C188.862 242.95 189.705 242.072 189.705 241.04C189.705 240.016 188.862 239.138 187.872 239.138C186.874 239.138 186.03 240.016 186.03 241.04C186.03 242.072 186.874 242.95 187.872 242.95ZM192.59 244V238.088H193.863L195.688 241.427L197.521 238.088H198.785V244H197.521V240.317L195.688 243.656L193.863 240.317V244H192.59ZM200.718 244V238.088H201.991L203.816 241.427L205.648 238.088H206.913V244H205.648V240.317L203.816 243.656L201.991 240.317V244H200.718ZM208.846 244V238.088H210.119V244H208.846ZM213.417 244V239.233H211.576V238.088H216.532V239.233H214.682V244H213.417ZM220.161 244.103C219.128 244.103 218.225 243.759 217.536 243.122L218.259 242.253C218.819 242.735 219.455 243.028 220.204 243.028C220.849 243.028 221.176 242.735 221.176 242.365C221.176 241.943 220.832 241.814 219.929 241.608C218.681 241.324 217.786 240.971 217.786 239.826C217.786 238.734 218.681 237.985 219.98 237.985C220.944 237.985 221.684 238.286 222.295 238.802L221.632 239.723C221.099 239.293 220.505 239.061 219.937 239.061C219.404 239.061 219.068 239.345 219.068 239.697C219.068 240.128 219.429 240.265 220.342 240.472C221.615 240.756 222.459 241.134 222.459 242.227C222.459 243.355 221.598 244.103 220.161 244.103Z" fill="black"/>
<path d="M109.182 242.856H112.125V244H107.909V238.088H109.182V242.856ZM116.379 244.103C114.675 244.103 113.23 242.701 113.23 241.04C113.23 239.379 114.675 237.985 116.379 237.985C118.083 237.985 119.512 239.379 119.512 241.04C119.512 242.701 118.083 244.103 116.379 244.103ZM116.379 242.95C117.369 242.95 118.212 242.072 118.212 241.04C118.212 240.016 117.369 239.138 116.379 239.138C115.381 239.138 114.538 240.016 114.538 241.04C114.538 242.072 115.381 242.95 116.379 242.95ZM123.696 241.668V240.678H126.303V243.114C125.718 243.733 124.797 244.103 123.92 244.103C122.199 244.103 120.744 242.701 120.744 241.04C120.744 239.379 122.199 237.985 123.92 237.985C124.797 237.985 125.718 238.355 126.303 238.975L125.383 239.801C125.03 239.396 124.462 239.138 123.92 239.138C122.904 239.138 122.052 240.016 122.052 241.04C122.052 242.072 122.904 242.95 123.92 242.95C124.315 242.95 124.737 242.812 125.064 242.572V241.668H123.696ZM132.275 244L131.862 242.985H129.298L128.884 244H127.465L129.874 238.088H131.294L133.703 244H132.275ZM129.702 241.995H131.457L130.58 239.835L129.702 241.995ZM139.989 240.085C139.989 241.014 139.403 241.72 138.517 241.978L139.937 244H138.491L137.14 242.081H136.374V244H135.101V238.088H137.76C139.051 238.088 139.989 238.914 139.989 240.085ZM136.374 239.25V240.919H137.631C138.259 240.919 138.689 240.592 138.689 240.085C138.689 239.577 138.259 239.25 137.631 239.25H136.374ZM141.59 244V238.088H142.864V244H141.59ZM146.162 244V239.233H144.32V238.088H149.277V239.233H147.427V244H146.162ZM154.687 238.088H155.952V244H154.687V241.556H151.993V244H150.72V238.088H151.993V240.412H154.687V238.088ZM157.89 244V238.088H159.163L160.988 241.427L162.82 238.088H164.085V244H162.82V240.317L160.988 243.656L159.163 240.317V244H157.89ZM166.018 244V238.088H167.291V244H166.018ZM172.018 244.103C170.314 244.103 168.868 242.701 168.868 241.04C168.868 239.379 170.314 237.985 172.018 237.985C172.913 237.985 173.73 238.364 174.307 238.975L173.386 239.801C173.05 239.405 172.551 239.138 172.018 239.138C171.02 239.138 170.176 240.016 170.176 241.04C170.176 242.072 171.02 242.95 172.018 242.95C172.56 242.95 173.05 242.683 173.386 242.288L174.307 243.114C173.73 243.716 172.913 244.103 172.018 244.103ZM181.332 244.103C179.628 244.103 178.183 242.701 178.183 241.04C178.183 239.379 179.628 237.985 181.332 237.985C182.227 237.985 183.045 238.364 183.621 238.975L182.7 239.801C182.365 239.405 181.866 239.138 181.332 239.138C180.334 239.138 179.491 240.016 179.491 241.04C179.491 242.072 180.334 242.95 181.332 242.95C181.874 242.95 182.365 242.683 182.7 242.288L183.621 243.114C183.045 243.716 182.227 244.103 181.332 244.103ZM187.872 244.103C186.168 244.103 184.722 242.701 184.722 241.04C184.722 239.379 186.168 237.985 187.872 237.985C189.576 237.985 191.004 239.379 191.004 241.04C191.004 242.701 189.576 244.103 187.872 244.103ZM187.872 242.95C188.862 242.95 189.705 242.072 189.705 241.04C189.705 240.016 188.862 239.138 187.872 239.138C186.874 239.138 186.03 240.016 186.03 241.04C186.03 242.072 186.874 242.95 187.872 242.95ZM192.59 244V238.088H193.863L195.688 241.427L197.521 238.088H198.785V244H197.521V240.317L195.688 243.656L193.863 240.317V244H192.59ZM200.718 244V238.088H201.991L203.816 241.427L205.648 238.088H206.913V244H205.648V240.317L203.816 243.656L201.991 240.317V244H200.718ZM208.846 244V238.088H210.119V244H208.846ZM213.417 244V239.233H211.576V238.088H216.532V239.233H214.682V244H213.417ZM220.161 244.103C219.128 244.103 218.225 243.759 217.536 243.122L218.259 242.253C218.819 242.735 219.455 243.028 220.204 243.028C220.849 243.028 221.176 242.735 221.176 242.365C221.176 241.943 220.832 241.814 219.929 241.608C218.681 241.324 217.786 240.971 217.786 239.826C217.786 238.734 218.681 237.985 219.98 237.985C220.944 237.985 221.684 238.286 222.295 238.802L221.632 239.723C221.099 239.293 220.505 239.061 219.937 239.061C219.404 239.061 219.068 239.345 219.068 239.697C219.068 240.128 219.429 240.265 220.342 240.472C221.615 240.756 222.459 241.134 222.459 242.227C222.459 243.355 221.598 244.103 220.161 244.103Z" fill="black" fill-opacity="0.2"/>
<path d="M66 2V204" stroke="black" stroke-opacity="0.4" stroke-width="0.36355" stroke-miterlimit="10"/>
<path d="M173 2V204" stroke="black" stroke-opacity="0.4" stroke-width="0.36355" stroke-miterlimit="10"/>
<path d="M150 2V204" stroke="black" stroke-opacity="0.4" stroke-width="0.36355" stroke-miterlimit="10"/>
<path d="M119 2V204" stroke="black" stroke-opacity="0.4" stroke-width="0.36355" stroke-miterlimit="10"/>
<path d="M189 2V204" stroke="black" stroke-opacity="0.4" stroke-width="0.36355" stroke-miterlimit="10"/>
<path d="M242 2V204" stroke="black" stroke-opacity="0.4" stroke-width="0.36355" stroke-miterlimit="10"/>
<path d="M296 2V204" stroke="black" stroke-opacity="0.4" stroke-width="0.36355" stroke-miterlimit="10"/>
<path d="M327 2L327 204" stroke="black" stroke-opacity="0.4" stroke-width="0.36355" stroke-miterlimit="10"/>
<path d="M37.3574 199H327.253" stroke="black" stroke-opacity="0.4" stroke-width="0.36355" stroke-miterlimit="10"/>
<path d="M37.3574 120.531H327.253" stroke="black" stroke-opacity="0.4" stroke-width="0.36355" stroke-miterlimit="10"/>
<path d="M37.3574 93.0527H327.253" stroke="black" stroke-opacity="0.4" stroke-width="0.36355" stroke-miterlimit="10"/>
<path d="M37.3574 29.8516H327.253" stroke="black" stroke-opacity="0.4" stroke-width="0.36355" stroke-miterlimit="10"/>
<path d="M38.7305 2.37305H327.252" stroke="black" stroke-opacity="0.4" stroke-width="0.36355" stroke-miterlimit="10"/>
<path d="M60.5657 210V209.698L61.4818 208.942C61.8163 208.662 61.9435 208.448 61.9435 208.222C61.9435 207.95 61.7181 207.79 61.4709 207.79C61.1982 207.79 60.9983 207.935 60.8238 208.16L60.5766 207.942C60.7947 207.641 61.0892 207.459 61.4854 207.459C61.9508 207.459 62.3216 207.761 62.3216 208.215C62.3216 208.549 62.1616 208.815 61.7327 209.164L61.1473 209.658H62.3434V210H60.5657ZM63.6343 210.044C63.0054 210.044 62.5655 209.509 62.5655 208.749C62.5655 207.993 63.0054 207.459 63.6343 207.459C64.256 207.459 64.6959 207.993 64.6959 208.749C64.6959 209.509 64.256 210.044 63.6343 210.044ZM63.6343 209.706C64.0378 209.706 64.3214 209.309 64.3214 208.749C64.3214 208.19 64.0378 207.797 63.6343 207.797C63.2271 207.797 62.9399 208.19 62.9399 208.749C62.9399 209.309 63.2271 209.706 63.6343 209.706ZM65.991 210.044C65.362 210.044 64.9221 209.509 64.9221 208.749C64.9221 207.993 65.362 207.459 65.991 207.459C66.6127 207.459 67.0525 207.993 67.0525 208.749C67.0525 209.509 66.6127 210.044 65.991 210.044ZM65.991 209.706C66.3945 209.706 66.6781 209.309 66.6781 208.749C66.6781 208.19 66.3945 207.797 65.991 207.797C65.5838 207.797 65.2966 208.19 65.2966 208.749C65.2966 209.309 65.5838 209.706 65.991 209.706ZM68.3477 210.044C67.7187 210.044 67.2788 209.509 67.2788 208.749C67.2788 207.993 67.7187 207.459 68.3477 207.459C68.9693 207.459 69.4092 207.993 69.4092 208.749C69.4092 209.509 68.9693 210.044 68.3477 210.044ZM68.3477 209.706C68.7512 209.706 69.0348 209.309 69.0348 208.749C69.0348 208.19 68.7512 207.797 68.3477 207.797C67.9405 207.797 67.6533 208.19 67.6533 208.749C67.6533 209.309 67.9405 209.706 68.3477 209.706Z" fill="black" fill-opacity="0.7"/>
<path d="M115.251 210V209.426H114.011L113.971 209.131L115.182 207.502H115.618V209.102H115.978V209.426H115.618V210H115.251ZM114.375 209.102H115.251V207.92L114.375 209.102ZM117.172 210.044C116.543 210.044 116.103 209.509 116.103 208.749C116.103 207.993 116.543 207.459 117.172 207.459C117.794 207.459 118.234 207.993 118.234 208.749C118.234 209.509 117.794 210.044 117.172 210.044ZM117.172 209.706C117.576 209.706 117.859 209.309 117.859 208.749C117.859 208.19 117.576 207.797 117.172 207.797C116.765 207.797 116.478 208.19 116.478 208.749C116.478 209.309 116.765 209.706 117.172 209.706ZM119.529 210.044C118.9 210.044 118.46 209.509 118.46 208.749C118.46 207.993 118.9 207.459 119.529 207.459C120.15 207.459 120.59 207.993 120.59 208.749C120.59 209.509 120.15 210.044 119.529 210.044ZM119.529 209.706C119.932 209.706 120.216 209.309 120.216 208.749C120.216 208.19 119.932 207.797 119.529 207.797C119.122 207.797 118.834 208.19 118.834 208.749C118.834 209.309 119.122 209.706 119.529 209.706ZM121.885 210.044C121.257 210.044 120.817 209.509 120.817 208.749C120.817 207.993 121.257 207.459 121.885 207.459C122.507 207.459 122.947 207.993 122.947 208.749C122.947 209.509 122.507 210.044 121.885 210.044ZM121.885 209.706C122.289 209.706 122.573 209.309 122.573 208.749C122.573 208.19 122.289 207.797 121.885 207.797C121.478 207.797 121.191 208.19 121.191 208.749C121.191 209.309 121.478 209.706 121.885 209.706Z" fill="black" fill-opacity="0.7"/>
<path d="M146.195 208.422C146.653 208.422 147.034 208.709 147.034 209.204C147.034 209.684 146.656 210.044 146.129 210.044C145.435 210.044 145.144 209.502 145.144 208.789C145.144 208.033 145.591 207.459 146.198 207.459C146.507 207.459 146.736 207.575 146.925 207.746L146.736 208.03C146.584 207.888 146.424 207.79 146.195 207.79C145.817 207.79 145.533 208.2 145.518 208.749C145.671 208.542 145.922 208.422 146.195 208.422ZM146.118 209.731C146.456 209.731 146.66 209.473 146.66 209.222C146.66 208.917 146.413 208.731 146.111 208.731C145.835 208.731 145.617 208.891 145.548 209.131C145.609 209.491 145.787 209.731 146.118 209.731ZM148.296 210.044C147.667 210.044 147.227 209.509 147.227 208.749C147.227 207.993 147.667 207.459 148.296 207.459C148.918 207.459 149.357 207.993 149.357 208.749C149.357 209.509 148.918 210.044 148.296 210.044ZM148.296 209.706C148.699 209.706 148.983 209.309 148.983 208.749C148.983 208.19 148.699 207.797 148.296 207.797C147.889 207.797 147.601 208.19 147.601 208.749C147.601 209.309 147.889 209.706 148.296 209.706ZM150.653 210.044C150.024 210.044 149.584 209.509 149.584 208.749C149.584 207.993 150.024 207.459 150.653 207.459C151.274 207.459 151.714 207.993 151.714 208.749C151.714 209.509 151.274 210.044 150.653 210.044ZM150.653 209.706C151.056 209.706 151.34 209.309 151.34 208.749C151.34 208.19 151.056 207.797 150.653 207.797C150.245 207.797 149.958 208.19 149.958 208.749C149.958 209.309 150.245 209.706 150.653 209.706ZM153.009 210.044C152.38 210.044 151.94 209.509 151.94 208.749C151.94 207.993 152.38 207.459 153.009 207.459C153.631 207.459 154.071 207.993 154.071 208.749C154.071 209.509 153.631 210.044 153.009 210.044ZM153.009 209.706C153.413 209.706 153.696 209.309 153.696 208.749C153.696 208.19 153.413 207.797 153.009 207.797C152.602 207.797 152.315 208.19 152.315 208.749C152.315 209.309 152.602 209.706 153.009 209.706Z" fill="black" fill-opacity="0.7"/>
<path d="M169.224 210.044C168.697 210.044 168.282 209.771 168.282 209.342C168.282 209.033 168.515 208.811 168.813 208.709C168.54 208.6 168.348 208.411 168.348 208.128C168.348 207.702 168.773 207.459 169.224 207.459C169.689 207.459 170.104 207.713 170.104 208.128C170.104 208.426 169.893 208.611 169.638 208.709C169.936 208.815 170.165 209.037 170.165 209.342C170.165 209.775 169.747 210.044 169.224 210.044ZM169.224 208.571C169.453 208.557 169.737 208.419 169.737 208.168C169.737 207.946 169.511 207.782 169.224 207.782C168.937 207.782 168.715 207.946 168.715 208.168C168.715 208.426 169.002 208.557 169.224 208.571ZM169.224 209.72C169.544 209.72 169.795 209.553 169.795 209.309C169.795 209.044 169.471 208.884 169.224 208.877C168.98 208.884 168.653 209.044 168.653 209.309C168.653 209.553 168.904 209.72 169.224 209.72ZM171.459 210.044C170.83 210.044 170.391 209.509 170.391 208.749C170.391 207.993 170.83 207.459 171.459 207.459C172.081 207.459 172.521 207.993 172.521 208.749C172.521 209.509 172.081 210.044 171.459 210.044ZM171.459 209.706C171.863 209.706 172.146 209.309 172.146 208.749C172.146 208.19 171.863 207.797 171.459 207.797C171.052 207.797 170.765 208.19 170.765 208.749C170.765 209.309 171.052 209.706 171.459 209.706ZM173.816 210.044C173.187 210.044 172.747 209.509 172.747 208.749C172.747 207.993 173.187 207.459 173.816 207.459C174.438 207.459 174.878 207.993 174.878 208.749C174.878 209.509 174.438 210.044 173.816 210.044ZM173.816 209.706C174.22 209.706 174.503 209.309 174.503 208.749C174.503 208.19 174.22 207.797 173.816 207.797C173.409 207.797 173.122 208.19 173.122 208.749C173.122 209.309 173.409 209.706 173.816 209.706ZM176.173 210.044C175.544 210.044 175.104 209.509 175.104 208.749C175.104 207.993 175.544 207.459 176.173 207.459C176.794 207.459 177.234 207.993 177.234 208.749C177.234 209.509 176.794 210.044 176.173 210.044ZM176.173 209.706C176.576 209.706 176.86 209.309 176.86 208.749C176.86 208.19 176.576 207.797 176.173 207.797C175.766 207.797 175.478 208.19 175.478 208.749C175.478 209.309 175.766 209.706 176.173 209.706Z" fill="black" fill-opacity="0.7"/>
<path d="M184.977 210V207.939L184.544 208.215L184.392 207.95L185.05 207.502H185.344V210H184.977ZM186.791 210.044C186.162 210.044 185.722 209.509 185.722 208.749C185.722 207.993 186.162 207.459 186.791 207.459C187.412 207.459 187.852 207.993 187.852 208.749C187.852 209.509 187.412 210.044 186.791 210.044ZM186.791 209.706C187.194 209.706 187.478 209.309 187.478 208.749C187.478 208.19 187.194 207.797 186.791 207.797C186.383 207.797 186.096 208.19 186.096 208.749C186.096 209.309 186.383 209.706 186.791 209.706ZM189.147 210.044C188.518 210.044 188.078 209.509 188.078 208.749C188.078 207.993 188.518 207.459 189.147 207.459C189.769 207.459 190.209 207.993 190.209 208.749C190.209 209.509 189.769 210.044 189.147 210.044ZM189.147 209.706C189.551 209.706 189.834 209.309 189.834 208.749C189.834 208.19 189.551 207.797 189.147 207.797C188.74 207.797 188.453 208.19 188.453 208.749C188.453 209.309 188.74 209.706 189.147 209.706ZM191.504 210.044C190.875 210.044 190.435 209.509 190.435 208.749C190.435 207.993 190.875 207.459 191.504 207.459C192.126 207.459 192.566 207.993 192.566 208.749C192.566 209.509 192.126 210.044 191.504 210.044ZM191.504 209.706C191.907 209.706 192.191 209.309 192.191 208.749C192.191 208.19 191.907 207.797 191.504 207.797C191.097 207.797 190.81 208.19 190.81 208.749C190.81 209.309 191.097 209.706 191.504 209.706ZM193.861 210.044C193.232 210.044 192.792 209.509 192.792 208.749C192.792 207.993 193.232 207.459 193.861 207.459C194.482 207.459 194.922 207.993 194.922 208.749C194.922 209.509 194.482 210.044 193.861 210.044ZM193.861 209.706C194.264 209.706 194.548 209.309 194.548 208.749C194.548 208.19 194.264 207.797 193.861 207.797C193.453 207.797 193.166 208.19 193.166 208.749C193.166 209.309 193.453 209.706 193.861 209.706Z" fill="black" fill-opacity="0.7"/>
<path d="M236.978 210V209.698L237.894 208.942C238.229 208.662 238.356 208.448 238.356 208.222C238.356 207.95 238.13 207.79 237.883 207.79C237.61 207.79 237.411 207.935 237.236 208.16L236.989 207.942C237.207 207.641 237.501 207.459 237.898 207.459C238.363 207.459 238.734 207.761 238.734 208.215C238.734 208.549 238.574 208.815 238.145 209.164L237.56 209.658H238.756V210H236.978ZM240.047 210.044C239.418 210.044 238.978 209.509 238.978 208.749C238.978 207.993 239.418 207.459 240.047 207.459C240.668 207.459 241.108 207.993 241.108 208.749C241.108 209.509 240.668 210.044 240.047 210.044ZM240.047 209.706C240.45 209.706 240.734 209.309 240.734 208.749C240.734 208.19 240.45 207.797 240.047 207.797C239.639 207.797 239.352 208.19 239.352 208.749C239.352 209.309 239.639 209.706 240.047 209.706ZM242.403 210.044C241.774 210.044 241.334 209.509 241.334 208.749C241.334 207.993 241.774 207.459 242.403 207.459C243.025 207.459 243.465 207.993 243.465 208.749C243.465 209.509 243.025 210.044 242.403 210.044ZM242.403 209.706C242.807 209.706 243.09 209.309 243.09 208.749C243.09 208.19 242.807 207.797 242.403 207.797C241.996 207.797 241.709 208.19 241.709 208.749C241.709 209.309 241.996 209.706 242.403 209.706ZM244.76 210.044C244.131 210.044 243.691 209.509 243.691 208.749C243.691 207.993 244.131 207.459 244.76 207.459C245.382 207.459 245.821 207.993 245.821 208.749C245.821 209.509 245.382 210.044 244.76 210.044ZM244.76 209.706C245.163 209.706 245.447 209.309 245.447 208.749C245.447 208.19 245.163 207.797 244.76 207.797C244.353 207.797 244.066 208.19 244.066 208.749C244.066 209.309 244.353 209.706 244.76 209.706ZM247.117 210.044C246.488 210.044 246.048 209.509 246.048 208.749C246.048 207.993 246.488 207.459 247.117 207.459C247.738 207.459 248.178 207.993 248.178 208.749C248.178 209.509 247.738 210.044 247.117 210.044ZM247.117 209.706C247.52 209.706 247.804 209.309 247.804 208.749C247.804 208.19 247.52 207.797 247.117 207.797C246.709 207.797 246.422 208.19 246.422 208.749C246.422 209.309 246.709 209.706 247.117 209.706Z" fill="black" fill-opacity="0.7"/>
<path d="M292.439 210V209.426H291.199L291.159 209.131L292.37 207.502H292.806V209.102H293.166V209.426H292.806V210H292.439ZM291.563 209.102H292.439V207.92L291.563 209.102ZM294.36 210.044C293.731 210.044 293.291 209.509 293.291 208.749C293.291 207.993 293.731 207.459 294.36 207.459C294.981 207.459 295.421 207.993 295.421 208.749C295.421 209.509 294.981 210.044 294.36 210.044ZM294.36 209.706C294.763 209.706 295.047 209.309 295.047 208.749C295.047 208.19 294.763 207.797 294.36 207.797C293.953 207.797 293.665 208.19 293.665 208.749C293.665 209.309 293.953 209.706 294.36 209.706ZM296.716 210.044C296.088 210.044 295.648 209.509 295.648 208.749C295.648 207.993 296.088 207.459 296.716 207.459C297.338 207.459 297.778 207.993 297.778 208.749C297.778 209.509 297.338 210.044 296.716 210.044ZM296.716 209.706C297.12 209.706 297.404 209.309 297.404 208.749C297.404 208.19 297.12 207.797 296.716 207.797C296.309 207.797 296.022 208.19 296.022 208.749C296.022 209.309 296.309 209.706 296.716 209.706ZM299.073 210.044C298.444 210.044 298.004 209.509 298.004 208.749C298.004 207.993 298.444 207.459 299.073 207.459C299.695 207.459 300.135 207.993 300.135 208.749C300.135 209.509 299.695 210.044 299.073 210.044ZM299.073 209.706C299.477 209.706 299.76 209.309 299.76 208.749C299.76 208.19 299.477 207.797 299.073 207.797C298.666 207.797 298.379 208.19 298.379 208.749C298.379 209.309 298.666 209.706 299.073 209.706ZM301.43 210.044C300.801 210.044 300.361 209.509 300.361 208.749C300.361 207.993 300.801 207.459 301.43 207.459C302.051 207.459 302.491 207.993 302.491 208.749C302.491 209.509 302.051 210.044 301.43 210.044ZM301.43 209.706C301.833 209.706 302.117 209.309 302.117 208.749C302.117 208.19 301.833 207.797 301.43 207.797C301.023 207.797 300.735 208.19 300.735 208.749C300.735 209.309 301.023 209.706 301.43 209.706Z" fill="black" fill-opacity="0.7"/>
<path d="M316.708 208.422C317.167 208.422 317.548 208.709 317.548 209.204C317.548 209.684 317.17 210.044 316.643 210.044C315.949 210.044 315.658 209.502 315.658 208.789C315.658 208.033 316.105 207.459 316.712 207.459C317.021 207.459 317.25 207.575 317.439 207.746L317.25 208.03C317.097 207.888 316.937 207.79 316.708 207.79C316.33 207.79 316.047 208.2 316.032 208.749C316.185 208.542 316.436 208.422 316.708 208.422ZM316.632 209.731C316.97 209.731 317.174 209.473 317.174 209.222C317.174 208.917 316.927 208.731 316.625 208.731C316.349 208.731 316.13 208.891 316.061 209.131C316.123 209.491 316.301 209.731 316.632 209.731ZM318.81 210.044C318.181 210.044 317.741 209.509 317.741 208.749C317.741 207.993 318.181 207.459 318.81 207.459C319.431 207.459 319.871 207.993 319.871 208.749C319.871 209.509 319.431 210.044 318.81 210.044ZM318.81 209.706C319.213 209.706 319.497 209.309 319.497 208.749C319.497 208.19 319.213 207.797 318.81 207.797C318.403 207.797 318.115 208.19 318.115 208.749C318.115 209.309 318.403 209.706 318.81 209.706ZM321.166 210.044C320.537 210.044 320.098 209.509 320.098 208.749C320.098 207.993 320.537 207.459 321.166 207.459C321.788 207.459 322.228 207.993 322.228 208.749C322.228 209.509 321.788 210.044 321.166 210.044ZM321.166 209.706C321.57 209.706 321.853 209.309 321.853 208.749C321.853 208.19 321.57 207.797 321.166 207.797C320.759 207.797 320.472 208.19 320.472 208.749C320.472 209.309 320.759 209.706 321.166 209.706ZM323.523 210.044C322.894 210.044 322.454 209.509 322.454 208.749C322.454 207.993 322.894 207.459 323.523 207.459C324.145 207.459 324.585 207.993 324.585 208.749C324.585 209.509 324.145 210.044 323.523 210.044ZM323.523 209.706C323.927 209.706 324.21 209.309 324.21 208.749C324.21 208.19 323.927 207.797 323.523 207.797C323.116 207.797 322.829 208.19 322.829 208.749C322.829 209.309 323.116 209.706 323.523 209.706ZM325.88 210.044C325.251 210.044 324.811 209.509 324.811 208.749C324.811 207.993 325.251 207.459 325.88 207.459C326.501 207.459 326.941 207.993 326.941 208.749C326.941 209.509 326.501 210.044 325.88 210.044ZM325.88 209.706C326.283 209.706 326.567 209.309 326.567 208.749C326.567 208.19 326.283 207.797 325.88 207.797C325.473 207.797 325.185 208.19 325.185 208.749C325.185 209.309 325.473 209.706 325.88 209.706Z" fill="black" fill-opacity="0.7"/>
<path d="M32.9371 200.044C32.3081 200.044 31.8683 199.509 31.8683 198.749C31.8683 197.993 32.3081 197.459 32.9371 197.459C33.5588 197.459 33.9987 197.993 33.9987 198.749C33.9987 199.509 33.5588 200.044 32.9371 200.044ZM32.9371 199.706C33.3406 199.706 33.6242 199.309 33.6242 198.749C33.6242 198.19 33.3406 197.797 32.9371 197.797C32.5299 197.797 32.2427 198.19 32.2427 198.749C32.2427 199.309 32.5299 199.706 32.9371 199.706Z" fill="black" fill-opacity="0.7"/>
<path d="M24.266 120.831C23.8698 120.831 23.568 120.671 23.3571 120.438L23.5862 120.176C23.7752 120.376 24.0079 120.507 24.2733 120.507C24.5969 120.507 24.8186 120.289 24.8186 120.009C24.8186 119.722 24.5932 119.529 24.2697 119.529C24.0624 119.529 23.8879 119.598 23.7389 119.711L23.4808 119.595L23.5171 118.29H25.0513V118.631H23.8661L23.8443 119.373C23.9752 119.286 24.1424 119.213 24.3605 119.213C24.8113 119.213 25.1858 119.497 25.1858 119.995C25.1858 120.5 24.8041 120.831 24.266 120.831ZM25.8858 121.285L25.7331 121.169C25.8349 121.06 25.904 120.943 25.933 120.831C25.8022 120.831 25.6967 120.722 25.6967 120.587C25.6967 120.46 25.7985 120.347 25.9367 120.347C26.0966 120.347 26.2021 120.493 26.2021 120.693C26.2021 120.863 26.1185 121.02 25.8858 121.285ZM27.7957 120.831C27.1668 120.831 26.7269 120.296 26.7269 119.536C26.7269 118.78 27.1668 118.246 27.7957 118.246C28.4174 118.246 28.8573 118.78 28.8573 119.536C28.8573 120.296 28.4174 120.831 27.7957 120.831ZM27.7957 120.493C28.1993 120.493 28.4828 120.096 28.4828 119.536C28.4828 118.977 28.1993 118.584 27.7957 118.584C27.3885 118.584 27.1013 118.977 27.1013 119.536C27.1013 120.096 27.3885 120.493 27.7957 120.493ZM30.3342 120.831C29.7052 120.831 29.2653 120.296 29.2653 119.536C29.2653 118.78 29.7052 118.246 30.3342 118.246C30.9559 118.246 31.3957 118.78 31.3957 119.536C31.3957 120.296 30.9559 120.831 30.3342 120.831ZM30.3342 120.493C30.7377 120.493 31.0213 120.096 31.0213 119.536C31.0213 118.977 30.7377 118.584 30.3342 118.584C29.927 118.584 29.6398 118.977 29.6398 119.536C29.6398 120.096 29.927 120.493 30.3342 120.493ZM32.8726 120.831C32.2437 120.831 31.8038 120.296 31.8038 119.536C31.8038 118.78 32.2437 118.246 32.8726 118.246C33.4943 118.246 33.9342 118.78 33.9342 119.536C33.9342 120.296 33.4943 120.831 32.8726 120.831ZM32.8726 120.493C33.2762 120.493 33.5597 120.096 33.5597 119.536C33.5597 118.977 33.2762 118.584 32.8726 118.584C32.4655 118.584 32.1783 118.977 32.1783 119.536C32.1783 120.096 32.4655 120.493 32.8726 120.493Z" fill="black" fill-opacity="0.7"/>
<path d="M21.6143 93.1699V91.1086L21.1816 91.3849L21.0289 91.1195L21.687 90.6723H21.9814V93.1699H21.6143ZM23.6096 93.2135C22.9807 93.2135 22.5408 92.6791 22.5408 91.9193C22.5408 91.1631 22.9807 90.6287 23.6096 90.6287C24.2313 90.6287 24.6712 91.1631 24.6712 91.9193C24.6712 92.6791 24.2313 93.2135 23.6096 93.2135ZM23.6096 92.8754C24.0132 92.8754 24.2967 92.4792 24.2967 91.9193C24.2967 91.3594 24.0132 90.9668 23.6096 90.9668C23.2025 90.9668 22.9153 91.3594 22.9153 91.9193C22.9153 92.4792 23.2025 92.8754 23.6096 92.8754ZM25.3955 93.668L25.2429 93.5516C25.3446 93.4426 25.4137 93.3262 25.4428 93.2135C25.3119 93.2135 25.2065 93.1045 25.2065 92.97C25.2065 92.8427 25.3083 92.73 25.4464 92.73C25.6064 92.73 25.7118 92.8754 25.7118 93.0754C25.7118 93.2463 25.6282 93.4026 25.3955 93.668ZM27.3055 93.2135C26.6765 93.2135 26.2367 92.6791 26.2367 91.9193C26.2367 91.1631 26.6765 90.6287 27.3055 90.6287C27.9272 90.6287 28.3671 91.1631 28.3671 91.9193C28.3671 92.6791 27.9272 93.2135 27.3055 93.2135ZM27.3055 92.8754C27.709 92.8754 27.9926 92.4792 27.9926 91.9193C27.9926 91.3594 27.709 90.9668 27.3055 90.9668C26.8983 90.9668 26.6111 91.3594 26.6111 91.9193C26.6111 92.4792 26.8983 92.8754 27.3055 92.8754ZM29.8439 93.2135C29.215 93.2135 28.7751 92.6791 28.7751 91.9193C28.7751 91.1631 29.215 90.6287 29.8439 90.6287C30.4656 90.6287 30.9055 91.1631 30.9055 91.9193C30.9055 92.6791 30.4656 93.2135 29.8439 93.2135ZM29.8439 92.8754C30.2475 92.8754 30.5311 92.4792 30.5311 91.9193C30.5311 91.3594 30.2475 90.9668 29.8439 90.9668C29.4368 90.9668 29.1496 91.3594 29.1496 91.9193C29.1496 92.4792 29.4368 92.8754 29.8439 92.8754ZM32.3824 93.2135C31.7535 93.2135 31.3136 92.6791 31.3136 91.9193C31.3136 91.1631 31.7535 90.6287 32.3824 90.6287C33.0041 90.6287 33.444 91.1631 33.444 91.9193C33.444 92.6791 33.0041 93.2135 32.3824 93.2135ZM32.3824 92.8754C32.7859 92.8754 33.0695 92.4792 33.0695 91.9193C33.0695 91.3594 32.7859 90.9668 32.3824 90.9668C31.9752 90.9668 31.688 91.3594 31.688 91.9193C31.688 92.4792 31.9752 92.8754 32.3824 92.8754Z" fill="black" fill-opacity="0.7"/>
<path d="M21.1299 30.026C20.7336 30.026 20.4319 29.8661 20.221 29.6334L20.4501 29.3717C20.6391 29.5716 20.8718 29.7025 21.1372 29.7025C21.4607 29.7025 21.6825 29.4844 21.6825 29.2044C21.6825 28.9172 21.4571 28.7245 21.1335 28.7245C20.9263 28.7245 20.7518 28.7936 20.6028 28.9063L20.3446 28.79L20.381 27.4848H21.9152V27.8266H20.73L20.7082 28.5682C20.8391 28.481 21.0063 28.4083 21.2244 28.4083C21.6752 28.4083 22.0497 28.6918 22.0497 29.1899C22.0497 29.6952 21.668 30.026 21.1299 30.026ZM23.5022 30.026C22.8733 30.026 22.4334 29.4916 22.4334 28.7318C22.4334 27.9756 22.8733 27.4412 23.5022 27.4412C24.1239 27.4412 24.5638 27.9756 24.5638 28.7318C24.5638 29.4916 24.1239 30.026 23.5022 30.026ZM23.5022 29.6879C23.9058 29.6879 24.1893 29.2917 24.1893 28.7318C24.1893 28.1719 23.9058 27.7793 23.5022 27.7793C23.095 27.7793 22.8078 28.1719 22.8078 28.7318C22.8078 29.2917 23.095 29.6879 23.5022 29.6879ZM25.2881 30.4805L25.1354 30.3641C25.2372 30.2551 25.3063 30.1387 25.3354 30.026C25.2045 30.026 25.0991 29.917 25.0991 29.7825C25.0991 29.6552 25.2009 29.5425 25.339 29.5425C25.499 29.5425 25.6044 29.6879 25.6044 29.8879C25.6044 30.0588 25.5208 30.2151 25.2881 30.4805ZM27.1981 30.026C26.5691 30.026 26.1292 29.4916 26.1292 28.7318C26.1292 27.9756 26.5691 27.4412 27.1981 27.4412C27.8197 27.4412 28.2596 27.9756 28.2596 28.7318C28.2596 29.4916 27.8197 30.026 27.1981 30.026ZM27.1981 29.6879C27.6016 29.6879 27.8852 29.2917 27.8852 28.7318C27.8852 28.1719 27.6016 27.7793 27.1981 27.7793C26.7909 27.7793 26.5037 28.1719 26.5037 28.7318C26.5037 29.2917 26.7909 29.6879 27.1981 29.6879ZM29.7365 30.026C29.1076 30.026 28.6677 29.4916 28.6677 28.7318C28.6677 27.9756 29.1076 27.4412 29.7365 27.4412C30.3582 27.4412 30.7981 27.9756 30.7981 28.7318C30.7981 29.4916 30.3582 30.026 29.7365 30.026ZM29.7365 29.6879C30.1401 29.6879 30.4236 29.2917 30.4236 28.7318C30.4236 28.1719 30.1401 27.7793 29.7365 27.7793C29.3293 27.7793 29.0421 28.1719 29.0421 28.7318C29.0421 29.2917 29.3293 29.6879 29.7365 29.6879ZM32.275 30.026C31.646 30.026 31.2061 29.4916 31.2061 28.7318C31.2061 27.9756 31.646 27.4412 32.275 27.4412C32.8967 27.4412 33.3365 27.9756 33.3365 28.7318C33.3365 29.4916 32.8967 30.026 32.275 30.026ZM32.275 29.6879C32.6785 29.6879 32.9621 29.2917 32.9621 28.7318C32.9621 28.1719 32.6785 27.7793 32.275 27.7793C31.8678 27.7793 31.5806 28.1719 31.5806 28.7318C31.5806 29.2917 31.8678 29.6879 32.275 29.6879Z" fill="black" fill-opacity="0.7"/>
<path d="M15.7315 3V0.938672L15.2989 1.21497L15.1462 0.949579L15.8042 0.502412H16.0987V3H15.7315ZM16.9743 3.49806L16.8216 3.38173C16.9234 3.27266 16.9925 3.15633 17.0216 3.04363C16.8907 3.04363 16.7853 2.93456 16.7853 2.80005C16.7853 2.67281 16.8871 2.5601 17.0252 2.5601C17.1852 2.5601 17.2906 2.70552 17.2906 2.90548C17.2906 3.07635 17.207 3.23267 16.9743 3.49806ZM18.8843 3.04363C18.2553 3.04363 17.8154 2.50921 17.8154 1.74939C17.8154 0.993205 18.2553 0.458786 18.8843 0.458786C19.506 0.458786 19.9458 0.993205 19.9458 1.74939C19.9458 2.50921 19.506 3.04363 18.8843 3.04363ZM18.8843 2.70552C19.2878 2.70552 19.5714 2.30926 19.5714 1.74939C19.5714 1.18952 19.2878 0.796888 18.8843 0.796888C18.4771 0.796888 18.1899 1.18952 18.1899 1.74939C18.1899 2.30926 18.4771 2.70552 18.8843 2.70552ZM21.4227 3.04363C20.7938 3.04363 20.3539 2.50921 20.3539 1.74939C20.3539 0.993205 20.7938 0.458786 21.4227 0.458786C22.0444 0.458786 22.4843 0.993205 22.4843 1.74939C22.4843 2.50921 22.0444 3.04363 21.4227 3.04363ZM21.4227 2.70552C21.8263 2.70552 22.1098 2.30926 22.1098 1.74939C22.1098 1.18952 21.8263 0.796888 21.4227 0.796888C21.0156 0.796888 20.7284 1.18952 20.7284 1.74939C20.7284 2.30926 21.0156 2.70552 21.4227 2.70552ZM23.9612 3.04363C23.3323 3.04363 22.8924 2.50921 22.8924 1.74939C22.8924 0.993205 23.3323 0.458786 23.9612 0.458786C24.5829 0.458786 25.0228 0.993205 25.0228 1.74939C25.0228 2.50921 24.5829 3.04363 23.9612 3.04363ZM23.9612 2.70552C24.3647 2.70552 24.6483 2.30926 24.6483 1.74939C24.6483 1.18952 24.3647 0.796888 23.9612 0.796888C23.554 0.796888 23.2668 1.18952 23.2668 1.74939C23.2668 2.30926 23.554 2.70552 23.9612 2.70552ZM25.7471 3.49806L25.5944 3.38173C25.6962 3.27266 25.7653 3.15633 25.7944 3.04363C25.6635 3.04363 25.5581 2.93456 25.5581 2.80005C25.5581 2.67281 25.6599 2.5601 25.798 2.5601C25.958 2.5601 26.0634 2.70552 26.0634 2.90548C26.0634 3.07635 25.9798 3.23267 25.7471 3.49806ZM27.6571 3.04363C27.0281 3.04363 26.5882 2.50921 26.5882 1.74939C26.5882 0.993205 27.0281 0.458786 27.6571 0.458786C28.2787 0.458786 28.7186 0.993205 28.7186 1.74939C28.7186 2.50921 28.2787 3.04363 27.6571 3.04363ZM27.6571 2.70552C28.0606 2.70552 28.3442 2.30926 28.3442 1.74939C28.3442 1.18952 28.0606 0.796888 27.6571 0.796888C27.2499 0.796888 26.9627 1.18952 26.9627 1.74939C26.9627 2.30926 27.2499 2.70552 27.6571 2.70552ZM30.1955 3.04363C29.5666 3.04363 29.1267 2.50921 29.1267 1.74939C29.1267 0.993205 29.5666 0.458786 30.1955 0.458786C30.8172 0.458786 31.2571 0.993205 31.2571 1.74939C31.2571 2.50921 30.8172 3.04363 30.1955 3.04363ZM30.1955 2.70552C30.599 2.70552 30.8826 2.30926 30.8826 1.74939C30.8826 1.18952 30.599 0.796888 30.1955 0.796888C29.7883 0.796888 29.5011 1.18952 29.5011 1.74939C29.5011 2.30926 29.7883 2.70552 30.1955 2.70552ZM32.734 3.04363C32.105 3.04363 31.6651 2.50921 31.6651 1.74939C31.6651 0.993205 32.105 0.458786 32.734 0.458786C33.3556 0.458786 33.7955 0.993205 33.7955 1.74939C33.7955 2.50921 33.3556 3.04363 32.734 3.04363ZM32.734 2.70552C33.1375 2.70552 33.4211 2.30926 33.4211 1.74939C33.4211 1.18952 33.1375 0.796888 32.734 0.796888C32.3268 0.796888 32.0396 1.18952 32.0396 1.74939C32.0396 2.30926 32.3268 2.70552 32.734 2.70552Z" fill="black" fill-opacity="0.7"/>
<path d="M321.717 21.8077C321.717 24.2992 320.979 26.7346 319.597 28.8062C318.215 30.8777 316.25 32.4923 313.952 33.4457C311.654 34.3991 309.125 34.6486 306.685 34.1625C304.245 33.6765 302.004 32.4767 300.245 30.715C298.485 28.9533 297.288 26.7088 296.802 24.2653C296.317 21.8217 296.566 19.2889 297.518 16.9872C298.47 14.6854 300.082 12.718 302.151 11.3339C304.219 9.94973 306.651 9.21094 309.139 9.21094C312.474 9.21094 315.674 10.5381 318.033 12.9005C320.391 15.2628 321.717 18.4669 321.717 21.8077Z" fill="#4065C5" fill-opacity="0.8"/>
<path d="M268.302 32.2126C268.302 34.1486 267.728 36.0411 266.652 37.6509C265.577 39.2606 264.048 40.5153 262.259 41.2562C260.471 41.9971 258.502 42.1909 256.604 41.8132C254.705 41.4355 252.961 40.5032 251.592 39.1342C250.223 37.7653 249.29 36.0211 248.913 34.1222C248.535 32.2234 248.729 30.2552 249.47 28.4666C250.211 26.6779 251.465 25.1491 253.075 24.0735C254.685 22.9979 256.577 22.4238 258.513 22.4238C261.109 22.4238 263.599 23.4551 265.435 25.2909C267.271 27.1266 268.302 29.6164 268.302 32.2126Z" fill="#D0674D" fill-opacity="0.8"/>
<path d="M226.931 76.7244C226.931 78.4055 226.432 80.0488 225.498 81.4463C224.564 82.8438 223.236 83.9327 221.682 84.5753C220.129 85.2178 218.42 85.385 216.771 85.0557C215.123 84.7265 213.609 83.9156 212.422 82.7256C211.234 81.5357 210.426 80.0203 210.101 78.3711C209.775 76.7219 209.946 75.0131 210.591 73.461C211.237 71.9088 212.329 70.5832 213.728 69.6518C215.128 68.7204 216.772 68.225 218.453 68.2285C220.703 68.2332 222.86 69.1304 224.449 70.7231C226.039 72.3159 226.931 74.4742 226.931 76.7244Z" fill="#EFAC5B" fill-opacity="0.8"/>
<path d="M209.57 98.3327C209.57 99.3925 209.255 100.428 208.666 101.31C208.077 102.191 207.24 102.877 206.261 103.282C205.281 103.687 204.204 103.793 203.165 103.585C202.125 103.377 201.171 102.866 200.422 102.116C199.674 101.366 199.164 100.41 198.959 99.3708C198.754 98.3311 198.861 97.2538 199.268 96.2753C199.675 95.2968 200.364 94.461 201.246 93.8738C202.128 93.2866 203.165 92.9744 204.225 92.9766C205.643 92.9795 207.003 93.5451 208.005 94.5493C209.007 95.5534 209.57 96.9141 209.57 98.3327Z" fill="#D7792D" fill-opacity="0.8"/>
<path d="M160.441 106.09C160.441 107.441 160.04 108.762 159.29 109.885C158.539 111.009 157.472 111.885 156.224 112.402C154.976 112.92 153.602 113.055 152.277 112.792C150.951 112.529 149.734 111.879 148.778 110.924C147.822 109.97 147.17 108.753 146.906 107.428C146.641 106.103 146.775 104.729 147.291 103.48C147.807 102.231 148.682 101.163 149.805 100.411C150.927 99.6596 152.248 99.2575 153.599 99.2559C154.497 99.2543 155.387 99.4299 156.217 99.7727C157.048 100.115 157.802 100.619 158.438 101.253C159.073 101.888 159.577 102.642 159.921 103.472C160.265 104.302 160.441 105.191 160.441 106.09Z" fill="#9E43A4" fill-opacity="0.8"/>
<path d="M251.681 68.5982C251.681 69.9132 251.291 71.1987 250.56 72.2921C249.83 73.3855 248.791 74.2378 247.576 74.741C246.361 75.2442 245.024 75.3759 243.735 75.1194C242.445 74.8628 241.26 74.2296 240.33 73.2997C239.4 72.3698 238.767 71.1851 238.511 69.8953C238.254 68.6055 238.386 67.2687 238.889 66.0537C239.392 64.8388 240.244 63.8004 241.338 63.0698C242.431 62.3392 243.717 61.9492 245.032 61.9492C246.795 61.9492 248.486 62.6497 249.733 63.8967C250.98 65.1436 251.681 66.8348 251.681 68.5982Z" fill="#64A7C9" fill-opacity="0.8"/>
<path d="M199.966 78.2017C199.966 79.5167 199.576 80.8022 198.845 81.8956C198.115 82.9891 197.076 83.8413 195.861 84.3445C194.646 84.8478 193.31 84.9794 192.02 84.7229C190.73 84.4663 189.545 83.8331 188.615 82.9032C187.686 81.9733 187.052 80.7886 186.796 79.4988C186.539 78.2091 186.671 76.8722 187.174 75.6572C187.677 74.4423 188.53 73.4039 189.623 72.6733C190.716 71.9427 192.002 71.5527 193.317 71.5527C195.08 71.5539 196.771 72.2547 198.017 73.5014C199.264 74.7481 199.965 76.4386 199.966 78.2017Z" fill="#D16E8D" fill-opacity="0.8"/>
<path d="M185.929 103.135C185.929 104.121 185.636 105.086 185.088 105.906C184.54 106.726 183.761 107.365 182.85 107.742C181.939 108.12 180.936 108.218 179.969 108.026C179.002 107.834 178.113 107.359 177.416 106.661C176.718 105.964 176.243 105.075 176.051 104.108C175.858 103.141 175.957 102.138 176.335 101.227C176.712 100.316 177.351 99.5368 178.171 98.9889C178.991 98.4409 179.956 98.1484 180.942 98.1484C182.264 98.1493 183.532 98.6749 184.467 99.6099C185.402 100.545 185.928 101.813 185.929 103.135Z" fill="#AA2980" fill-opacity="0.8"/>
<path d="M153.792 112.001C153.792 113.06 153.478 114.096 152.89 114.976C152.301 115.857 151.465 116.544 150.486 116.949C149.507 117.354 148.43 117.46 147.391 117.254C146.352 117.047 145.398 116.537 144.649 115.788C143.9 115.039 143.39 114.085 143.183 113.046C142.976 112.007 143.082 110.93 143.488 109.951C143.893 108.972 144.58 108.136 145.46 107.547C146.341 106.959 147.377 106.645 148.436 106.645C149.856 106.645 151.218 107.21 152.223 108.214C153.227 109.219 153.791 110.58 153.792 112.001Z" fill="#5C1863" fill-opacity="0.8"/>
<path d="M164.135 118.095C164.135 118.971 163.875 119.828 163.388 120.557C162.901 121.286 162.208 121.854 161.398 122.19C160.589 122.525 159.697 122.613 158.837 122.442C157.978 122.271 157.188 121.849 156.568 121.229C155.948 120.609 155.526 119.819 155.355 118.96C155.184 118.1 155.271 117.208 155.607 116.398C155.942 115.588 156.511 114.896 157.24 114.409C157.968 113.922 158.825 113.662 159.702 113.662C160.878 113.662 162.005 114.129 162.837 114.96C163.668 115.792 164.135 116.919 164.135 118.095Z" fill="#935C3C" fill-opacity="0.8"/>
<path d="M95.7981 151.524C95.7981 152.583 95.484 153.619 94.8955 154.5C94.3069 155.381 93.4704 156.067 92.4917 156.472C91.513 156.878 90.4361 156.984 89.3971 156.777C88.3581 156.571 87.4038 156.06 86.6547 155.311C85.9056 154.562 85.3955 153.608 85.1889 152.569C84.9822 151.53 85.0883 150.453 85.4936 149.474C85.899 148.496 86.5855 147.659 87.4664 147.071C88.3472 146.482 89.3827 146.168 90.442 146.168C91.8626 146.168 93.2249 146.732 94.2294 147.737C95.2338 148.741 95.7981 150.104 95.7981 151.524Z" fill="#7F1A13" fill-opacity="0.8"/>
<path d="M226.561 100.181C226.561 101.386 226.203 102.565 225.534 103.567C224.864 104.569 223.912 105.35 222.798 105.812C221.685 106.273 220.459 106.394 219.277 106.159C218.095 105.923 217.009 105.343 216.156 104.491C215.304 103.638 214.723 102.552 214.488 101.37C214.253 100.188 214.374 98.9621 214.835 97.8484C215.296 96.7347 216.078 95.7828 217.08 95.1131C218.082 94.4434 219.261 94.0859 220.466 94.0859C222.082 94.0859 223.633 94.7281 224.776 95.8711C225.919 97.0141 226.561 98.5643 226.561 100.181Z" fill="#607CA2" fill-opacity="0.8"/>
<path d="M159.703 92.2381C159.703 93.3339 159.378 94.4052 158.769 95.3164C158.16 96.2275 157.295 96.9377 156.282 97.3571C155.27 97.7765 154.156 97.8862 153.081 97.6724C152.006 97.4586 151.019 96.9309 150.244 96.156C149.469 95.3811 148.941 94.3938 148.728 93.319C148.514 92.2442 148.623 91.1301 149.043 90.1177C149.462 89.1052 150.172 88.2399 151.084 87.6311C151.995 87.0222 153.066 86.6973 154.162 86.6973C155.631 86.6973 157.041 87.281 158.08 88.3201C159.119 89.3592 159.703 90.7685 159.703 92.2381Z" fill="#52A799" fill-opacity="0.8"/>
<path d="M181.865 123.636C181.865 124.512 181.605 125.369 181.118 126.098C180.631 126.827 179.939 127.395 179.129 127.731C178.319 128.066 177.428 128.154 176.568 127.983C175.708 127.812 174.918 127.39 174.298 126.77C173.678 126.15 173.256 125.36 173.085 124.501C172.914 123.641 173.002 122.749 173.337 121.939C173.673 121.13 174.241 120.437 174.97 119.95C175.699 119.463 176.556 119.203 177.433 119.203C178.608 119.203 179.736 119.67 180.567 120.501C181.398 121.333 181.865 122.46 181.865 123.636Z" fill="#AD7635" fill-opacity="0.8"/>
<path d="M180.388 108.861C180.388 109.957 180.063 111.028 179.454 111.939C178.846 112.851 177.98 113.561 176.968 113.98C175.955 114.4 174.841 114.509 173.766 114.295C172.692 114.082 171.704 113.554 170.93 112.779C170.155 112.004 169.627 111.017 169.413 109.942C169.199 108.867 169.309 107.753 169.728 106.741C170.148 105.728 170.858 104.863 171.769 104.254C172.68 103.645 173.752 103.32 174.847 103.32C176.317 103.32 177.726 103.904 178.765 104.943C179.804 105.982 180.388 107.392 180.388 108.861Z" fill="#7A59CB" fill-opacity="0.8"/>
<path d="M184.821 95.562C184.821 96.5848 184.518 97.5847 183.95 98.4351C183.382 99.2855 182.574 99.9484 181.629 100.34C180.684 100.731 179.644 100.834 178.641 100.634C177.638 100.435 176.716 99.942 175.993 99.2188C175.27 98.4955 174.777 97.5741 174.578 96.5709C174.378 95.5678 174.481 94.528 174.872 93.583C175.264 92.6381 175.926 91.8304 176.777 91.2622C177.627 90.6939 178.627 90.3906 179.65 90.3906C181.021 90.3906 182.337 90.9355 183.307 91.9053C184.276 92.8751 184.821 94.1905 184.821 95.562Z" fill="#AEC341" fill-opacity="0.8"/>
<path d="M127.935 124.93C127.935 125.77 127.686 126.591 127.219 127.29C126.753 127.988 126.089 128.533 125.313 128.854C124.537 129.176 123.683 129.26 122.859 129.096C122.035 128.932 121.278 128.527 120.684 127.933C120.09 127.339 119.685 126.582 119.521 125.758C119.357 124.934 119.441 124.08 119.763 123.304C120.084 122.528 120.629 121.864 121.327 121.398C122.026 120.931 122.847 120.682 123.687 120.682C124.814 120.682 125.894 121.129 126.691 121.926C127.488 122.722 127.935 123.803 127.935 124.93Z" fill="#6E8C32" fill-opacity="0.8"/>
<path d="M112.053 128.808C112.053 129.684 111.793 130.541 111.306 131.27C110.819 131.999 110.126 132.567 109.316 132.903C108.506 133.238 107.615 133.326 106.755 133.155C105.896 132.984 105.106 132.562 104.486 131.942C103.866 131.322 103.444 130.532 103.273 129.672C103.102 128.813 103.189 127.921 103.525 127.111C103.86 126.301 104.429 125.609 105.157 125.122C105.886 124.635 106.743 124.375 107.62 124.375C108.796 124.375 109.923 124.842 110.754 125.673C111.586 126.505 112.053 127.632 112.053 128.808Z" fill="#63D346" fill-opacity="0.8"/>
<path d="M130.151 124.005C130.151 124.955 129.869 125.883 129.342 126.673C128.814 127.463 128.064 128.078 127.187 128.442C126.309 128.805 125.344 128.9 124.412 128.715C123.481 128.53 122.625 128.072 121.953 127.401C121.282 126.729 120.824 125.873 120.639 124.942C120.454 124.01 120.549 123.045 120.912 122.167C121.276 121.29 121.891 120.54 122.681 120.012C123.471 119.485 124.399 119.203 125.349 119.203C126.622 119.203 127.844 119.709 128.744 120.61C129.645 121.51 130.151 122.732 130.151 124.005Z" fill="#4F9066" fill-opacity="0.8"/>
<path d="M71.0498 139.151C71.0498 139.881 70.8332 140.596 70.4273 141.203C70.0214 141.811 69.4445 142.284 68.7696 142.564C68.0946 142.843 67.3519 142.916 66.6353 142.774C65.9188 142.631 65.2606 142.279 64.744 141.763C64.2274 141.246 63.8756 140.588 63.7331 139.872C63.5906 139.155 63.6637 138.412 63.9433 137.737C64.2229 137.062 64.6963 136.485 65.3038 136.08C65.9112 135.674 66.6254 135.457 67.356 135.457C68.3356 135.457 69.2752 135.846 69.9679 136.539C70.6607 137.232 71.0498 138.171 71.0498 139.151Z" fill="#40758A" fill-opacity="0.8"/>
<path d="M201.074 111.446C201.074 112.323 200.814 113.18 200.327 113.909C199.84 114.638 199.148 115.206 198.338 115.542C197.528 115.877 196.637 115.965 195.777 115.794C194.917 115.623 194.127 115.201 193.507 114.581C192.887 113.961 192.465 113.171 192.294 112.311C192.123 111.451 192.211 110.56 192.546 109.75C192.882 108.94 193.45 108.248 194.179 107.761C194.908 107.274 195.765 107.014 196.642 107.014C197.817 107.014 198.945 107.481 199.776 108.312C200.607 109.143 201.074 110.271 201.074 111.446Z" fill="#E1489B" fill-opacity="0.8"/>
<path d="M264.607 114.771C264.607 115.647 264.347 116.504 263.86 117.233C263.373 117.962 262.681 118.53 261.871 118.866C261.061 119.201 260.17 119.289 259.31 119.118C258.45 118.947 257.66 118.525 257.04 117.905C256.421 117.285 255.998 116.495 255.827 115.635C255.656 114.775 255.744 113.884 256.08 113.074C256.415 112.264 256.983 111.572 257.712 111.085C258.441 110.598 259.298 110.338 260.175 110.338C261.35 110.338 262.478 110.805 263.309 111.636C264.14 112.467 264.607 113.595 264.607 114.771Z" fill="#3C3EA6" fill-opacity="0.8"/>
<path d="M210.308 90.9452C210.308 91.7856 210.059 92.6072 209.592 93.3059C209.125 94.0046 208.461 94.549 207.685 94.8704C206.908 95.1917 206.054 95.2755 205.23 95.1111C204.405 94.9467 203.648 94.5415 203.055 93.9468C202.461 93.3522 202.057 92.5947 201.893 91.7703C201.73 90.9459 201.815 90.0916 202.138 89.3155C202.46 88.5394 203.005 87.8763 203.705 87.4103C204.404 86.9442 205.226 86.6961 206.066 86.6973C207.192 86.6996 208.27 87.1481 209.065 87.9444C209.861 88.7407 210.308 89.8199 210.308 90.9452Z" fill="#5B73A2" fill-opacity="0.8"/>
<path d="M152.685 109.226C152.686 110.103 152.437 110.96 151.971 111.69C151.505 112.419 150.841 112.988 150.065 113.324C149.289 113.66 148.435 113.748 147.611 113.577C146.786 113.407 146.029 112.985 145.435 112.365C144.84 111.745 144.435 110.955 144.271 110.095C144.107 109.236 144.191 108.344 144.513 107.534C144.834 106.724 145.378 106.031 146.077 105.544C146.776 105.057 147.597 104.797 148.437 104.797C149.563 104.797 150.643 105.263 151.44 106.094C152.237 106.925 152.684 108.051 152.685 109.226Z" fill="#BAA539" fill-opacity="0.8"/>
<path d="M177.433 99.2576C177.433 100.353 177.108 101.425 176.499 102.336C175.891 103.247 175.025 103.957 174.013 104.377C173 104.796 171.886 104.906 170.811 104.692C169.737 104.478 168.749 103.95 167.974 103.176C167.2 102.401 166.672 101.413 166.458 100.339C166.244 99.2637 166.354 98.1497 166.773 97.1372C167.193 96.1248 167.903 95.2594 168.814 94.6506C169.725 94.0418 170.796 93.7168 171.892 93.7168C173.362 93.7168 174.771 94.3006 175.81 95.3397C176.849 96.3788 177.433 97.7881 177.433 99.2576Z" fill="#B6B65C" fill-opacity="0.8"/>
<path d="M240.967 95.5637C240.967 97.098 240.512 98.5977 239.66 99.8734C238.808 101.149 237.596 102.143 236.179 102.73C234.761 103.318 233.202 103.471 231.697 103.172C230.192 102.872 228.81 102.134 227.725 101.049C226.64 99.964 225.901 98.5818 225.602 97.0771C225.303 95.5724 225.456 94.0127 226.044 92.5952C226.631 91.1778 227.625 89.9663 228.901 89.114C230.176 88.2616 231.676 87.8066 233.21 87.8066C235.268 87.8066 237.241 88.6239 238.695 90.0786C240.15 91.5334 240.967 93.5064 240.967 95.5637Z" fill="#64A455" fill-opacity="0.8"/>
<path opacity="0.6" d="M172.262 76.1794C172.26 77.3114 171.923 78.4175 171.292 79.3579C170.662 80.2984 169.767 81.0309 168.721 81.4629C167.675 81.8949 166.524 82.0071 165.414 81.7852C164.304 81.5633 163.284 81.0174 162.484 80.2163C161.685 79.4152 161.14 78.395 160.92 77.2846C160.7 76.1742 160.814 75.0235 161.247 73.9778C161.681 72.9321 162.415 72.0384 163.356 71.4096C164.297 70.7809 165.404 70.4453 166.536 70.4453C167.288 70.4459 168.033 70.5946 168.728 70.8831C169.423 71.1716 170.055 71.5941 170.586 72.1266C171.118 72.659 171.54 73.291 171.827 73.9863C172.114 74.6817 172.262 75.4269 172.262 76.1794Z" fill="#A068A5" fill-opacity="0.8"/>
<path d="M109.835 119.018C109.835 119.493 109.694 119.957 109.431 120.352C109.167 120.747 108.792 121.055 108.353 121.236C107.914 121.418 107.432 121.466 106.966 121.373C106.5 121.28 106.072 121.052 105.736 120.716C105.401 120.38 105.172 119.952 105.079 119.487C104.987 119.021 105.034 118.538 105.216 118.099C105.398 117.661 105.705 117.286 106.1 117.022C106.495 116.758 106.959 116.617 107.434 116.617C108.071 116.617 108.682 116.87 109.132 117.32C109.582 117.771 109.835 118.381 109.835 119.018Z" fill="#285829" fill-opacity="0.8"/>
<path d="M231.732 93.3457C231.732 94.5144 231.386 95.6568 230.737 96.6285C230.088 97.6003 229.165 98.3578 228.086 98.8054C227.006 99.2529 225.818 99.3703 224.672 99.1428C223.526 98.9154 222.472 98.3532 221.646 97.5273C220.819 96.7014 220.255 95.649 220.027 94.503C219.798 93.357 219.914 92.1689 220.36 91.0888C220.806 90.0087 221.563 89.0852 222.534 88.435C223.505 87.7847 224.647 87.4369 225.815 87.4356C226.592 87.4342 227.362 87.5861 228.08 87.8825C228.798 88.179 229.45 88.6141 230 89.1631C230.55 89.7121 230.986 90.3642 231.283 91.0819C231.58 91.7996 231.733 92.5689 231.732 93.3457Z" fill="#8CB456" fill-opacity="0.8"/>
<path d="M236.536 75.8002C236.536 77.0787 236.157 78.3285 235.447 79.3915C234.736 80.4546 233.727 81.2831 232.545 81.7724C231.364 82.2617 230.065 82.3897 228.811 82.1402C227.557 81.8908 226.405 81.2752 225.501 80.3711C224.597 79.4671 223.981 78.3153 223.732 77.0613C223.482 75.8074 223.61 74.5076 224.099 73.3264C224.589 72.1452 225.417 71.1357 226.48 70.4254C227.543 69.7151 228.793 69.3359 230.072 69.3359C231.786 69.3359 233.43 70.017 234.643 71.2293C235.855 72.4416 236.536 74.0858 236.536 75.8002Z" fill="#B55C58" fill-opacity="0.8"/>
<path d="M7 141.814L0.817 141.814L0.817 139.033C0.817 137.683 1.681 136.702 2.905 136.702C4.129 136.702 4.993 137.683 4.993 139.033L4.993 140.482L7 140.482L7 141.814ZM3.778 140.482L3.778 139.168C3.778 138.511 3.436 138.061 2.905 138.061C2.374 138.061 2.032 138.511 2.032 139.168L2.032 140.482L3.778 140.482ZM2.905 129.994C3.877 129.994 4.615 130.606 4.885 131.533L7 130.048L7 131.56L4.993 132.973L4.993 133.774L7 133.774L7 135.106L0.817 135.106L0.817 132.325C0.817 130.975 1.681 129.994 2.905 129.994ZM2.032 133.774L3.778 133.774L3.778 132.46C3.778 131.803 3.436 131.353 2.905 131.353C2.374 131.353 2.032 131.803 2.032 132.46L2.032 133.774ZM7.108 126.033C7.108 127.113 6.748 128.058 6.082 128.778L5.173 128.022C5.677 127.437 5.983 126.771 5.983 125.988C5.983 125.313 5.677 124.971 5.29 124.971C4.849 124.971 4.714 125.331 4.498 126.276C4.201 127.581 3.832 128.517 2.635 128.517C1.492 128.517 0.709 127.581 0.709 126.222C0.709 125.214 1.024 124.44 1.564 123.801L2.527 124.494C2.077 125.052 1.834 125.673 1.834 126.267C1.834 126.825 2.131 127.176 2.5 127.176C2.95 127.176 3.094 126.798 3.31 125.844C3.607 124.512 4.003 123.63 5.146 123.63C6.325 123.63 7.108 124.53 7.108 126.033ZM3.463 114.992L4.534 114.992L4.534 116.594L6.172 116.594L6.172 117.728L4.534 117.728L4.534 119.339L3.463 119.339L3.463 117.728L1.825 117.728L1.825 116.594L3.463 116.594L3.463 114.992ZM7 110.321L0.817 110.321L0.817 108.989L7 108.989L7 110.321ZM7.108 104.685C7.108 105.765 6.748 106.71 6.082 107.43L5.173 106.674C5.677 106.089 5.983 105.423 5.983 104.64C5.983 103.965 5.677 103.623 5.29 103.623C4.849 103.623 4.714 103.983 4.498 104.928C4.201 106.233 3.832 107.169 2.635 107.169C1.492 107.169 0.709 106.233 0.709 104.874C0.709 103.866 1.024 103.092 1.564 102.453L2.527 103.146C2.077 103.704 1.834 104.325 1.834 104.919C1.834 105.477 2.131 105.828 2.5 105.828C2.95 105.828 3.094 105.45 3.31 104.496C3.607 103.164 4.003 102.282 5.146 102.282C6.325 102.282 7.108 103.182 7.108 104.685ZM7.108 98.3636C7.108 99.4436 6.748 100.389 6.082 101.109L5.173 100.353C5.677 99.7676 5.983 99.1016 5.983 98.3186C5.983 97.6436 5.677 97.3016 5.29 97.3016C4.849 97.3016 4.714 97.6616 4.498 98.6066C4.201 99.9116 3.832 100.848 2.635 100.848C1.492 100.848 0.709 99.9116 0.709 98.5526C0.709 97.5446 1.024 96.7706 1.564 96.1316L2.527 96.8246C2.077 97.3826 1.834 98.0036 1.834 98.5976C1.834 99.1556 2.131 99.5066 2.5 99.5066C2.95 99.5066 3.094 99.1286 3.31 98.1746C3.607 96.8426 4.003 95.9606 5.146 95.9606C6.325 95.9606 7.108 96.8606 7.108 98.3636ZM7.108 91.6645C7.108 93.3115 5.956 94.4635 4.327 94.4635L0.817 94.4635L0.817 93.1405L4.273 93.1405C5.227 93.1405 5.902 92.5285 5.902 91.6645C5.902 90.8095 5.227 90.1975 4.273 90.1975L0.817 90.1975L0.817 88.8655L4.327 88.8655C5.956 88.8655 7.108 90.0265 7.108 91.6645ZM2.014 82.2269L2.014 85.6559L3.247 85.6559L3.247 82.5419L4.444 82.5419L4.444 85.6559L5.803 85.6559L5.803 82.2269L7 82.2269L7 86.9879L0.817 86.9879L0.817 82.2269L2.014 82.2269ZM7.108 78.205C7.108 79.285 6.748 80.23 6.082 80.95L5.173 80.194C5.677 79.609 5.983 78.943 5.983 78.16C5.983 77.485 5.677 77.143 5.29 77.143C4.849 77.143 4.714 77.503 4.498 78.448C4.201 79.753 3.832 80.689 2.635 80.689C1.492 80.689 0.709 79.753 0.709 78.394C0.709 77.386 1.024 76.612 1.564 75.973L2.527 76.666C2.077 77.224 1.834 77.845 1.834 78.439C1.834 78.997 2.131 79.348 2.5 79.348C2.95 79.348 3.094 78.97 3.31 78.016C3.607 76.684 4.003 75.802 5.146 75.802C6.325 75.802 7.108 76.702 7.108 78.205Z" fill="black"/>
<path d="M7 141.814L0.817 141.814L0.817 139.033C0.817 137.683 1.681 136.702 2.905 136.702C4.129 136.702 4.993 137.683 4.993 139.033L4.993 140.482L7 140.482L7 141.814ZM3.778 140.482L3.778 139.168C3.778 138.511 3.436 138.061 2.905 138.061C2.374 138.061 2.032 138.511 2.032 139.168L2.032 140.482L3.778 140.482ZM2.905 129.994C3.877 129.994 4.615 130.606 4.885 131.533L7 130.048L7 131.56L4.993 132.973L4.993 133.774L7 133.774L7 135.106L0.817 135.106L0.817 132.325C0.817 130.975 1.681 129.994 2.905 129.994ZM2.032 133.774L3.778 133.774L3.778 132.46C3.778 131.803 3.436 131.353 2.905 131.353C2.374 131.353 2.032 131.803 2.032 132.46L2.032 133.774ZM7.108 126.033C7.108 127.113 6.748 128.058 6.082 128.778L5.173 128.022C5.677 127.437 5.983 126.771 5.983 125.988C5.983 125.313 5.677 124.971 5.29 124.971C4.849 124.971 4.714 125.331 4.498 126.276C4.201 127.581 3.832 128.517 2.635 128.517C1.492 128.517 0.709 127.581 0.709 126.222C0.709 125.214 1.024 124.44 1.564 123.801L2.527 124.494C2.077 125.052 1.834 125.673 1.834 126.267C1.834 126.825 2.131 127.176 2.5 127.176C2.95 127.176 3.094 126.798 3.31 125.844C3.607 124.512 4.003 123.63 5.146 123.63C6.325 123.63 7.108 124.53 7.108 126.033ZM3.463 114.992L4.534 114.992L4.534 116.594L6.172 116.594L6.172 117.728L4.534 117.728L4.534 119.339L3.463 119.339L3.463 117.728L1.825 117.728L1.825 116.594L3.463 116.594L3.463 114.992ZM7 110.321L0.817 110.321L0.817 108.989L7 108.989L7 110.321ZM7.108 104.685C7.108 105.765 6.748 106.71 6.082 107.43L5.173 106.674C5.677 106.089 5.983 105.423 5.983 104.64C5.983 103.965 5.677 103.623 5.29 103.623C4.849 103.623 4.714 103.983 4.498 104.928C4.201 106.233 3.832 107.169 2.635 107.169C1.492 107.169 0.709 106.233 0.709 104.874C0.709 103.866 1.024 103.092 1.564 102.453L2.527 103.146C2.077 103.704 1.834 104.325 1.834 104.919C1.834 105.477 2.131 105.828 2.5 105.828C2.95 105.828 3.094 105.45 3.31 104.496C3.607 103.164 4.003 102.282 5.146 102.282C6.325 102.282 7.108 103.182 7.108 104.685ZM7.108 98.3636C7.108 99.4436 6.748 100.389 6.082 101.109L5.173 100.353C5.677 99.7676 5.983 99.1016 5.983 98.3186C5.983 97.6436 5.677 97.3016 5.29 97.3016C4.849 97.3016 4.714 97.6616 4.498 98.6066C4.201 99.9116 3.832 100.848 2.635 100.848C1.492 100.848 0.709 99.9116 0.709 98.5526C0.709 97.5446 1.024 96.7706 1.564 96.1316L2.527 96.8246C2.077 97.3826 1.834 98.0036 1.834 98.5976C1.834 99.1556 2.131 99.5066 2.5 99.5066C2.95 99.5066 3.094 99.1286 3.31 98.1746C3.607 96.8426 4.003 95.9606 5.146 95.9606C6.325 95.9606 7.108 96.8606 7.108 98.3636ZM7.108 91.6645C7.108 93.3115 5.956 94.4635 4.327 94.4635L0.817 94.4635L0.817 93.1405L4.273 93.1405C5.227 93.1405 5.902 92.5285 5.902 91.6645C5.902 90.8095 5.227 90.1975 4.273 90.1975L0.817 90.1975L0.817 88.8655L4.327 88.8655C5.956 88.8655 7.108 90.0265 7.108 91.6645ZM2.014 82.2269L2.014 85.6559L3.247 85.6559L3.247 82.5419L4.444 82.5419L4.444 85.6559L5.803 85.6559L5.803 82.2269L7 82.2269L7 86.9879L0.817 86.9879L0.817 82.2269L2.014 82.2269ZM7.108 78.205C7.108 79.285 6.748 80.23 6.082 80.95L5.173 80.194C5.677 79.609 5.983 78.943 5.983 78.16C5.983 77.485 5.677 77.143 5.29 77.143C4.849 77.143 4.714 77.503 4.498 78.448C4.201 79.753 3.832 80.689 2.635 80.689C1.492 80.689 0.709 79.753 0.709 78.394C0.709 77.386 1.024 76.612 1.564 75.973L2.527 76.666C2.077 77.224 1.834 77.845 1.834 78.439C1.834 78.997 2.131 79.348 2.5 79.348C2.95 79.348 3.094 78.97 3.31 78.016C3.607 76.684 4.003 75.802 5.146 75.802C6.325 75.802 7.108 76.702 7.108 78.205Z" fill="black" fill-opacity="0.2"/>
</svg>
