<svg width="160" height="50" viewBox="0 0 160 50" fill="none" xmlns="http://www.w3.org/2000/svg">
<path d="M41.1043 26.649V32.9564H39.9922V17.2985H43.9721C45.7821 17.2985 47.1469 17.7003 48.0666 18.5045C48.9861 19.309 49.4463 20.4557 49.4463 21.9458C49.4463 22.6321 49.3211 23.2625 49.0697 23.8381C48.8216 24.4099 48.451 24.9183 47.9849 25.3264C47.5119 25.7434 46.9381 26.0682 46.2621 26.3001C45.5861 26.5327 44.8229 26.649 43.9721 26.649H41.1043ZM41.1043 25.7412H43.9721C44.655 25.7412 45.2664 25.6453 45.804 25.4534C46.3417 25.2615 46.7979 24.9963 47.1728 24.6571C47.5421 24.3248 47.8359 23.9151 48.0338 23.4562C48.2334 22.9951 48.3338 22.4917 48.3338 21.9458C48.3338 20.7439 47.9681 19.8179 47.2377 19.1682C46.507 18.5193 45.4186 18.1948 43.9721 18.1948H41.1043V25.7412ZM53.1529 32.9561V21.9458H53.6985C53.8219 21.9458 53.9113 21.9717 53.9654 22.0232C54.0201 22.075 54.0508 22.1632 54.0584 22.2888L54.1453 24.6122C54.4942 23.72 54.9592 23.0207 55.5414 22.5151C56.1229 22.0102 56.8386 21.7569 57.6894 21.7569C58.0165 21.7569 58.3179 21.7921 58.5943 21.8621C58.8671 21.9309 59.1307 22.033 59.3794 22.1662L59.2374 22.8966C59.2162 23.0151 59.1428 23.0736 59.0195 23.0736C58.9757 23.0736 58.914 23.0588 58.8344 23.0295C58.7541 22.9999 58.6545 22.967 58.5344 22.9299C58.1961 22.8305 57.8452 22.7821 57.4931 22.7862C56.6718 22.7862 55.9973 23.0444 55.4702 23.5607C54.9432 24.077 54.5161 24.8222 54.1891 25.796V32.9557L53.1529 32.9561ZM67.0779 21.7687C67.8553 21.7687 68.5514 21.9036 69.166 22.1728C69.7803 22.4421 70.2982 22.824 70.7198 23.3181C71.1414 23.8122 71.4626 24.4081 71.6849 25.1052C71.9064 25.8027 72.017 26.5827 72.017 27.4461C72.017 28.3088 71.9064 29.0873 71.6849 29.7803C71.4626 30.4741 71.1414 31.0682 70.7198 31.5623C70.2982 32.0564 69.7803 32.436 69.166 32.7016C68.551 32.9676 67.8553 33.1002 67.0779 33.1002C66.2997 33.1002 65.604 32.9679 64.9897 32.7016C64.3754 32.436 63.8557 32.0568 63.4301 31.5623C63.0049 31.0682 62.6815 30.4741 62.4599 29.7803C62.2384 29.0873 62.1271 28.3088 62.1271 27.4461C62.1271 26.5827 62.2384 25.8027 62.4599 25.1052C62.6815 24.4081 63.0049 23.8126 63.4301 23.3181C63.8553 22.824 64.3754 22.4421 64.9897 22.1728C65.604 21.9036 66.2997 21.7687 67.0779 21.7687ZM67.0779 32.2701C67.725 32.2701 68.2897 32.1571 68.7736 31.9323C69.2485 31.7141 69.6638 31.3818 69.9836 30.9641C70.3074 30.5437 70.549 30.037 70.7092 29.4429C70.8691 28.8488 70.949 28.1832 70.949 27.4457C70.949 26.7153 70.8695 26.0508 70.7092 25.4534C70.5494 24.856 70.3077 24.3452 69.9836 23.9211C69.6643 23.5002 69.2491 23.1641 68.7736 22.9418C68.2897 22.7132 67.725 22.5988 67.0779 22.5988C66.4307 22.5988 65.8654 22.7132 65.3821 22.9418C64.9065 23.1642 64.4911 23.5002 64.1714 23.9211C63.848 24.3452 63.6046 24.856 63.4407 25.4534C63.2775 26.0508 63.195 26.7153 63.195 27.4457C63.195 28.1832 63.2772 28.8488 63.4407 29.4429C63.6046 30.037 63.848 30.5437 64.1714 30.9641C64.4914 31.3819 64.907 31.7142 65.3821 31.9323C65.8654 32.1575 66.4307 32.2701 67.0779 32.2701ZM75.6155 32.9561V21.9458H76.1827C76.3718 21.9458 76.4802 22.0384 76.5098 22.2225L76.6076 23.8159C76.8114 23.5218 77.0377 23.2444 77.2843 22.9862C77.516 22.7422 77.7737 22.5251 78.0526 22.3388C78.3233 22.1589 78.6169 22.0175 78.9253 21.9184C79.2408 21.8176 79.5698 21.7672 79.9006 21.7687C80.693 21.7687 81.3259 22.0032 81.7982 22.4717C82.2712 22.9403 82.5906 23.5911 82.7581 24.4248C82.8884 23.9674 83.0717 23.5729 83.3075 23.2407C83.5305 22.9219 83.8046 22.6433 84.1185 22.4165C84.422 22.1999 84.7587 22.0355 85.1149 21.9299C85.4738 21.8228 85.846 21.7686 86.2201 21.7691C86.7567 21.7691 87.2396 21.8598 87.6673 22.0402C88.0895 22.2165 88.4646 22.4914 88.7623 22.8425C89.0631 23.1966 89.293 23.6318 89.4536 24.1481C89.6131 24.6645 89.6927 25.2545 89.6927 25.9186V32.9564H88.6569V25.9182C88.6569 24.8415 88.428 24.0203 87.9692 23.4562C87.5119 22.8918 86.8574 22.6099 86.007 22.6099C85.6353 22.6085 85.2668 22.6799 84.9218 22.8203C84.5765 22.9606 84.2644 23.1735 84.0061 23.4451C83.7407 23.7218 83.5301 24.067 83.3732 24.48C83.2169 24.893 83.1392 25.3727 83.1392 25.9186V32.9564H82.1026V25.9182C82.1026 24.8485 81.892 24.03 81.4704 23.4618C81.0489 22.894 80.4346 22.6099 79.6276 22.6099C79.0388 22.6099 78.4935 22.7888 77.9924 23.1466C77.4905 23.5044 77.0434 24.0003 76.6506 24.6348V32.9564L75.6155 32.9561ZM97.9256 21.7687C98.5359 21.7687 99.1016 21.8761 99.6206 22.0899C100.133 22.2983 100.594 22.6173 100.973 23.0247C101.354 23.434 101.653 23.9378 101.867 24.5348C102.082 25.1323 102.188 25.8186 102.188 26.5935C102.188 26.7557 102.165 26.8668 102.118 26.9253C102.071 26.9846 101.997 27.0139 101.895 27.0139H94.065V27.2239C94.065 28.0499 94.1588 28.7769 94.349 29.4036C94.538 30.0311 94.8063 30.5563 95.156 30.9811C95.4957 31.3985 95.9295 31.7266 96.4207 31.9379C96.9142 32.1523 97.4668 32.2594 98.0785 32.2594C98.6235 32.2594 99.095 32.1983 99.4962 32.0768C99.8958 31.9549 100.231 31.8186 100.504 31.6671C100.777 31.516 100.993 31.3797 101.153 31.2575C101.313 31.1356 101.429 31.0749 101.502 31.0749C101.596 31.0749 101.669 31.1119 101.721 31.1856L102.004 31.5397C101.829 31.7608 101.599 31.9675 101.311 32.159C101.024 32.3509 100.704 32.5149 100.352 32.6512C99.9988 32.7883 99.621 32.8964 99.2173 32.9779C98.8169 33.0584 98.4097 33.0989 98.0015 33.099C97.2598 33.099 96.5839 32.9679 95.9736 32.7064C95.3712 32.4502 94.8338 32.0588 94.4019 31.5615C93.9635 31.0593 93.6255 30.4452 93.3879 29.7188C93.1489 28.9925 93.0295 28.1606 93.0295 27.2235C93.0295 26.4346 93.1401 25.706 93.3624 25.0382C93.5836 24.3704 93.9033 23.7951 94.3212 23.3118C94.7402 22.8288 95.2516 22.4506 95.8597 22.1776C96.4656 21.905 97.1543 21.7687 97.9256 21.7687ZM97.9409 22.5543C97.3817 22.5543 96.8806 22.6429 96.4386 22.8199C96.0068 22.9892 95.6152 23.2494 95.2896 23.5833C94.9669 23.9152 94.7063 24.3137 94.5056 24.7782C94.3063 25.243 94.1741 25.763 94.1084 26.339H101.251C101.251 25.7486 101.17 25.2189 101.011 24.7508C100.851 24.2826 100.627 23.8863 100.336 23.5614C100.047 23.2374 99.6899 22.9823 99.2918 22.8143C98.8841 22.641 98.4344 22.5543 97.9409 22.5543ZM108.349 33.1331C107.616 33.1331 107.045 32.9272 106.637 32.5138C106.23 32.1005 106.027 31.4627 106.027 30.5993V23.0744H104.468C104.397 23.0776 104.327 23.054 104.271 23.0081C104.22 22.9636 104.194 22.901 104.194 22.8199V22.4103L106.049 22.2777L106.307 18.3382C106.315 18.2718 106.343 18.2097 106.388 18.1611C106.413 18.1353 106.442 18.115 106.475 18.1017C106.507 18.0883 106.542 18.0822 106.577 18.0837H107.063V22.2888H110.477V23.074H107.063V30.5433C107.063 30.8459 107.102 31.106 107.178 31.3238C107.255 31.5408 107.359 31.7201 107.494 31.8605C107.629 32.0005 107.787 32.1038 107.968 32.1701C108.15 32.2368 108.346 32.2697 108.556 32.2697C108.819 32.2697 109.043 32.2305 109.234 32.1531C109.405 32.0853 109.569 32.0001 109.723 31.8986C109.862 31.8067 109.975 31.7219 110.061 31.6441C110.149 31.5667 110.218 31.5282 110.269 31.5282C110.327 31.5282 110.385 31.5649 110.443 31.6386L110.727 32.1034C110.45 32.4131 110.1 32.6624 109.674 32.8505C109.257 33.0374 108.805 33.1336 108.349 33.1331ZM114.041 32.9561V16.8555H115.077V23.8266C115.579 23.1996 116.151 22.6999 116.795 22.3273C117.437 21.955 118.16 21.7684 118.959 21.7684C119.555 21.7684 120.081 21.8647 120.535 22.0562C120.989 22.248 121.365 22.5247 121.663 22.8858C121.961 23.2473 122.187 23.6826 122.339 24.1915C122.492 24.7008 122.569 25.276 122.569 25.9179V32.9557H121.533V25.9182C121.533 24.8852 121.299 24.0759 120.835 23.4892C120.369 22.9025 119.656 22.6095 118.696 22.6095C117.984 22.6095 117.323 22.7958 116.712 23.1684C116.102 23.5411 115.557 24.0518 115.076 24.7011V32.9561H114.041ZM130.801 21.7687C131.411 21.7687 131.977 21.8761 132.496 22.0899C133.008 22.2983 133.47 22.6173 133.848 23.0247C134.23 23.434 134.528 23.9378 134.743 24.5348C134.957 25.1323 135.064 25.8186 135.064 26.5935C135.064 26.7557 135.041 26.8668 134.993 26.9253C134.947 26.9846 134.872 27.0139 134.771 27.0139H126.941V27.2239C126.941 28.0499 127.034 28.7769 127.225 29.4036C127.414 30.0311 127.682 30.5563 128.032 30.9811C128.371 31.3985 128.805 31.7266 129.296 31.9379C129.79 32.1523 130.342 32.2594 130.954 32.2594C131.499 32.2594 131.971 32.1983 132.372 32.0768C132.771 31.9549 133.107 31.8186 133.379 31.6671C133.653 31.516 133.869 31.3797 134.028 31.2575C134.189 31.1356 134.304 31.0749 134.378 31.0749C134.472 31.0749 134.545 31.1119 134.596 31.1856L134.879 31.5397C134.704 31.7608 134.475 31.9675 134.187 32.159C133.9 32.3509 133.58 32.5149 133.228 32.6512C132.874 32.7883 132.497 32.8964 132.093 32.9779C131.693 33.0584 131.285 33.0989 130.877 33.099C130.135 33.099 129.459 32.9679 128.849 32.7064C128.247 32.4502 127.709 32.0588 127.278 31.5615C126.839 31.0593 126.501 30.4452 126.264 29.7188C126.024 28.9925 125.905 28.1606 125.905 27.2235C125.905 26.4346 126.016 25.706 126.238 25.0382C126.459 24.3704 126.779 23.7951 127.197 23.3118C127.616 22.8288 128.127 22.4506 128.735 22.1776C129.342 21.905 130.03 21.7687 130.801 21.7687ZM130.817 22.5543C130.258 22.5543 129.757 22.6429 129.315 22.8199C128.883 22.9892 128.491 23.2494 128.166 23.5833C127.843 23.9152 127.582 24.3137 127.382 24.7782C127.182 25.243 127.05 25.763 126.984 26.339H134.127C134.127 25.7486 134.046 25.2189 133.887 24.7508C133.727 24.2826 133.503 23.8863 133.212 23.5614C132.923 23.2374 132.566 22.9823 132.168 22.8143C131.76 22.641 131.31 22.5543 130.817 22.5543ZM139.056 21.9458V28.9836C139.056 30.017 139.288 30.8263 139.756 31.4126C140.223 31.9994 140.933 32.2931 141.889 32.2931C142.596 32.2931 143.257 32.1105 143.87 31.7453C144.483 31.3801 145.033 30.873 145.521 30.2233V21.9458H146.558V32.9564H145.986C145.786 32.9564 145.682 32.8605 145.674 32.669L145.575 31.0311C145.074 31.6656 144.493 32.1749 143.833 32.5583C143.175 32.9416 142.442 33.1335 141.633 33.1335C141.029 33.1335 140.501 33.0376 140.05 32.8461C139.599 32.6546 139.224 32.3779 138.925 32.016C138.627 31.6549 138.401 31.2193 138.248 30.7108C138.095 30.2015 138.019 29.6262 138.019 28.984V21.9458H139.056ZM156.502 23.3177C156.451 23.4211 156.371 23.4725 156.262 23.4725C156.183 23.4725 156.079 23.4266 155.951 23.3344C155.824 23.2422 155.657 23.1392 155.45 23.0247C155.243 22.9103 154.989 22.8069 154.687 22.7147C154.385 22.6229 154.016 22.5766 153.581 22.5766C153.188 22.5766 152.83 22.6336 152.506 22.7477C152.183 22.8618 151.906 23.0144 151.678 23.2059C151.456 23.3883 151.273 23.6156 151.143 23.8733C151.017 24.1208 150.952 24.3953 150.953 24.6737C150.953 25.0193 151.04 25.3067 151.214 25.5345C151.388 25.7627 151.617 25.9575 151.901 26.1197C152.185 26.2816 152.506 26.4209 152.866 26.539C153.226 26.6564 153.595 26.7746 153.973 26.8924C154.35 27.0102 154.719 27.1413 155.079 27.2857C155.439 27.4291 155.762 27.6083 156.044 27.8224C156.325 28.0326 156.559 28.3001 156.732 28.6077C156.907 28.9181 156.993 29.2944 156.993 29.7363C156.993 30.2163 156.908 30.6622 156.737 31.0756C156.566 31.4889 156.319 31.8464 155.995 32.149C155.671 32.4516 155.274 32.6909 154.801 32.8683C154.328 33.0457 153.791 33.1339 153.187 33.1339C152.424 33.1339 151.766 33.0105 151.213 32.7635C150.671 32.523 150.171 32.1961 149.73 31.7953L149.982 31.4189C150.018 31.3597 150.058 31.316 150.102 31.286C150.145 31.2567 150.207 31.2415 150.287 31.2415C150.382 31.2415 150.497 31.3008 150.636 31.4189C150.774 31.5371 150.954 31.6641 151.176 31.8005C151.397 31.9375 151.674 32.0645 152.005 32.1827C152.335 32.3008 152.744 32.3594 153.231 32.3594C153.688 32.3594 154.092 32.2949 154.442 32.1657C154.79 32.0371 155.082 31.8619 155.314 31.6401C155.545 31.4225 155.725 31.1564 155.843 30.8604C155.963 30.5601 156.024 30.2387 156.022 29.9144C156.022 29.5455 155.935 29.2396 155.762 28.9958C155.587 28.7525 155.358 28.5465 155.074 28.3765C154.769 28.1972 154.445 28.0525 154.109 27.945C153.749 27.8269 153.379 27.7091 152.997 27.5909C152.615 27.4728 152.244 27.3439 151.884 27.2035C151.54 27.0722 151.215 26.8936 150.919 26.6727C150.64 26.4635 150.406 26.1978 150.233 25.8923C150.058 25.586 149.971 25.2049 149.971 24.7471C149.971 24.3563 150.054 23.98 150.222 23.6185C150.391 23.2541 150.635 22.93 150.936 22.6673C151.245 22.3943 151.621 22.1765 152.064 22.0143C152.508 21.8524 153.007 21.7706 153.559 21.7706C154.22 21.7706 154.807 21.868 155.32 22.0625C155.833 22.2569 156.303 22.5543 156.732 22.9547L156.502 23.3177Z" fill="#9C9C9D"/>
<path d="M16.497 11.7148C23.802 11.7163 29.7982 17.7245 29.7891 25.0338C29.7796 32.4539 23.8082 38.3787 16.3444 38.3731C9.04705 38.3679 3.14724 32.3535 3.15235 24.9253C3.15746 17.6615 9.16603 11.7134 16.497 11.7148ZM12.459 16.3929C12.6266 17.2244 12.4638 18 12.2163 18.7631C12.0448 19.2912 11.8079 19.8001 11.6663 20.3354C11.433 21.2176 11.1684 22.1051 11.0713 23.0078C10.9319 24.3052 11.4374 25.4483 12.3021 26.585L8.32581 25.7405C8.33275 25.8672 8.32545 25.9153 8.33895 25.9561C8.71563 27.0728 9.37919 28.014 10.1223 28.9011C10.2008 28.9948 10.38 29.0433 10.5129 29.0433C14.4775 29.0507 18.4421 29.0503 22.4063 29.0452C22.5293 29.0452 22.6932 29.0215 22.7687 28.9414C23.6184 28.0403 24.2681 27.0139 24.6744 25.7209L20.4652 26.5524C20.743 26.0035 21.0598 25.5209 21.242 24.9905C21.865 23.1759 21.6069 21.4217 20.7123 19.7672C19.9944 18.4393 19.3323 17.1174 19.6904 15.5173C18.9323 16.2725 18.641 17.2341 18.4563 18.2249C18.2742 19.2009 18.1672 20.1913 18.0263 21.1813C18.0063 21.1513 17.9803 21.1295 17.9763 21.1036C17.9586 20.9998 17.9463 20.8952 17.9395 20.7902C17.8537 19.1683 17.5398 17.6056 16.8773 16.1133C16.4871 15.2347 16.0572 14.3365 16.459 13.2886C16.1867 13.4335 15.9411 13.5772 15.7644 13.7827C15.2381 14.3957 15.0206 15.1325 14.9647 15.9388C14.9169 16.6277 14.8512 17.32 14.7246 17.9974C14.5913 18.7093 14.3804 19.4072 13.9066 20.0613C13.7154 18.663 13.6938 17.2807 12.459 16.3929ZM22.6811 30.2678H10.2464V32.4468H22.6811V30.2678ZM12.712 33.5725C12.7018 35.387 14.5337 36.739 16.7981 36.6408C18.6746 36.5597 20.3353 35.0703 20.1926 33.5725H12.712Z" fill="#E75225"/>
</svg>
