<svg width="134" height="44" viewBox="0 0 134 44" fill="none" xmlns="http://www.w3.org/2000/svg">
<g clip-path="url(#clip0_5435_1324)">
<path d="M22.2278 43.3891C34.0227 43.3891 43.5844 33.8274 43.5844 22.0324C43.5844 10.2375 34.0227 0.675781 22.2278 0.675781C10.4328 0.675781 0.871094 10.2375 0.871094 22.0324C0.871094 33.8274 10.4328 43.3891 22.2278 43.3891Z" fill="#FF4500"/>
<path d="M36.4712 22.0318C36.4075 20.3118 34.9636 18.9687 33.2383 19.0271C32.4738 19.0536 31.7465 19.3669 31.1945 19.8924C28.7631 18.2361 25.907 17.3283 22.9714 17.2646L24.3569 10.6023L28.9277 11.5632C29.0551 12.7364 30.1062 13.5857 31.2794 13.4583C32.4526 13.3309 33.302 12.2798 33.1746 11.1066C33.0472 9.9334 31.9961 9.08402 30.8228 9.21143C30.1486 9.28044 29.5435 9.67328 29.209 10.2572L23.9747 9.21143C23.619 9.1318 23.2633 9.35476 23.1837 9.71575C23.1837 9.72106 23.1837 9.72105 23.1837 9.72636L21.607 17.1372C18.6342 17.185 15.741 18.0981 13.2778 19.765C12.0249 18.5865 10.0501 18.6449 8.87161 19.903C7.69309 21.1559 7.75149 23.1307 9.00964 24.3092C9.25383 24.5375 9.53519 24.7339 9.8484 24.8719C9.82717 25.1851 9.82717 25.4983 9.8484 25.8115C9.8484 30.5946 15.4225 34.4859 22.2972 34.4859C29.1719 34.4859 34.7459 30.5999 34.7459 25.8115C34.7672 25.4983 34.7672 25.1851 34.7459 24.8719C35.8183 24.3357 36.4925 23.2315 36.4712 22.0318ZM15.1146 24.1712C15.1146 22.9927 16.0754 22.0318 17.254 22.0318C18.4325 22.0318 19.3933 22.9927 19.3933 24.1712C19.3933 25.3497 18.4325 26.3106 17.254 26.3106C16.0701 26.2999 15.1146 25.3497 15.1146 24.1712ZM27.5209 30.0425C26.0026 31.1839 24.1446 31.7678 22.2441 31.6882C20.3436 31.7678 18.4856 31.1839 16.9673 30.0425C16.7656 29.7983 16.8027 29.432 17.0469 29.2303C17.2593 29.0551 17.5619 29.0551 17.7795 29.2303C19.0642 30.1699 20.6303 30.6477 22.2228 30.5734C23.8154 30.6583 25.3868 30.2018 26.6874 29.2728C26.921 29.0445 27.3032 29.0498 27.5315 29.2834C27.7598 29.517 27.7545 29.8992 27.5209 30.1275V30.0425ZM27.1386 26.3849C25.9601 26.3849 24.9993 25.424 24.9993 24.2455C24.9993 23.067 25.9601 22.1061 27.1386 22.1061C28.3172 22.1061 29.278 23.067 29.278 24.2455C29.3258 25.424 28.4074 26.4167 27.2289 26.4645C27.1917 26.4645 27.1599 26.4645 27.1227 26.4645L27.1386 26.3849Z" fill="white"/>
<path d="M120.024 15.5175C121.631 15.5175 122.934 14.215 122.934 12.6084C122.934 11.0017 121.631 9.69922 120.024 9.69922C118.418 9.69922 117.115 11.0017 117.115 12.6084C117.115 14.215 118.418 15.5175 120.024 15.5175Z" fill="#FF4500"/>
<path d="M78.796 24.9879C79.9214 25.0675 80.8982 24.2181 80.9832 23.0874C80.9885 23.0237 80.9885 22.9493 80.9885 22.8803C80.9725 22.4875 80.9248 22.0893 80.8451 21.7018C80.155 18.0176 77.007 15.3049 73.2644 15.1562C69.0016 15.1562 65.4395 19.074 65.4395 23.8837C65.4395 28.6933 68.9432 32.6164 73.2591 32.6164C75.5471 32.7066 77.7661 31.7829 79.3056 30.0895C79.9374 29.3993 79.8843 28.3323 79.1941 27.7006C79.1411 27.6528 79.0933 27.6103 79.0402 27.5732C78.3501 27.1432 77.4529 27.2334 76.869 27.7961C75.9081 28.7517 74.6181 29.2985 73.2591 29.3409C70.9127 29.1551 69.0334 27.3183 68.7998 24.9666H78.7323L78.796 24.9879ZM73.2432 18.4423C75.3082 18.5803 77.0441 20.0561 77.506 22.0787H68.9909C69.4475 20.0508 71.1728 18.575 73.2432 18.4423Z" fill="black"/>
<path d="M65.6102 16.8507C65.6102 16.0332 65.005 15.3378 64.1927 15.2369C62.0003 14.8706 59.7706 15.6828 58.332 17.3816V17.1693C58.332 16.2615 57.5994 15.5289 56.6916 15.5289C55.7839 15.5289 55.0513 16.2615 55.0513 17.1693V30.6001C55.03 31.4813 55.7042 32.2299 56.5855 32.3042C57.4826 32.3679 58.2683 31.6884 58.3267 30.7912C58.332 30.7275 58.332 30.6638 58.3267 30.6001V23.7095C58.1834 20.9596 60.2909 18.6185 63.0408 18.4699C63.285 18.4539 63.5345 18.4593 63.7787 18.4858H64.1078C64.9572 18.4115 65.6102 17.7054 65.6102 16.8507Z" fill="black"/>
<path d="M121.66 18.613C121.66 17.7053 120.927 16.9727 120.019 16.9727C119.111 16.9727 118.379 17.7053 118.379 18.613V30.5946C118.379 31.5024 119.111 32.235 120.019 32.235C120.927 32.235 121.66 31.5024 121.66 30.5946V18.613Z" fill="black"/>
<path d="M97.4515 9.50811C97.4515 8.60564 96.719 7.87305 95.8165 7.87305C94.914 7.87305 94.1814 8.60564 94.1814 9.50811V16.834C93.0772 15.7192 91.559 15.114 89.9929 15.1565C85.7301 15.1565 82.168 19.0743 82.168 23.8839C82.168 28.6935 85.677 32.6166 89.9929 32.6166C91.5855 32.6644 93.125 32.0539 94.2557 30.9232C94.5106 31.7885 95.4183 32.2822 96.2836 32.0274C96.9366 31.8363 97.4038 31.2629 97.4462 30.5781L97.4515 9.50811ZM89.9823 29.3837C87.4713 29.3837 85.4275 26.9417 85.4275 23.9211C85.4275 20.9005 87.4554 18.4585 89.9823 18.4585C92.5092 18.4585 94.5371 20.9005 94.5371 23.9211C94.5371 26.9417 92.5092 29.3571 89.9929 29.3571L89.9823 29.3837Z" fill="black"/>
<path d="M114.555 9.50811C114.555 8.60564 113.822 7.87305 112.92 7.87305C112.018 7.87305 111.285 8.60564 111.285 9.50811V16.834C110.181 15.7192 108.662 15.114 107.096 15.1565C102.834 15.1565 99.2715 19.0743 99.2715 23.8839C99.2715 28.6935 102.78 32.6166 107.096 32.6166C108.689 32.6644 110.229 32.0539 111.359 30.9232C111.614 31.7885 112.522 32.2822 113.387 32.0274C114.04 31.8363 114.507 31.2629 114.55 30.5781L114.555 9.50811ZM107.091 29.3837C104.58 29.3837 102.536 26.9417 102.536 23.9211C102.536 20.9005 104.564 18.4585 107.091 18.4585C109.618 18.4585 111.646 20.9005 111.646 23.9211C111.646 26.9417 109.618 29.3571 107.102 29.3571L107.091 29.3837Z" fill="black"/>
<path d="M130.159 30.589V18.4428H131.576C132.362 18.4906 133.031 17.8907 133.078 17.1103C133.078 17.0838 133.084 17.0519 133.084 17.0201C133.153 16.2397 132.574 15.5496 131.799 15.4806C131.757 15.4753 131.709 15.4753 131.666 15.4753H130.164V13.2191C130.175 12.3432 129.506 11.6053 128.63 11.5256C127.733 11.4619 126.952 12.1414 126.889 13.0386C126.883 13.0757 126.883 13.1182 126.883 13.1554V15.5124H125.461C124.675 15.4646 124.006 16.0645 123.958 16.8449C123.958 16.8714 123.953 16.9033 123.953 16.9351C123.884 17.7155 124.462 18.4056 125.238 18.4746C125.28 18.4799 125.328 18.4799 125.37 18.4799H126.788V30.5943C126.788 31.4967 127.52 32.2293 128.423 32.2293C129.325 32.2877 130.095 31.5976 130.153 30.6951C130.159 30.6633 130.159 30.6261 130.159 30.589Z" fill="black"/>
</g>
<defs>
<clipPath id="clip0_5435_1324">
<rect width="132.716" height="43" fill="white" transform="translate(0.642578 0.5)"/>
</clipPath>
</defs>
</svg>
