<svg width="160" height="46" viewBox="0 0 160 46" fill="none" xmlns="http://www.w3.org/2000/svg">
<g clip-path="url(#clip0_5435_1441)">
<path d="M34.5122 8.90061C34.4813 8.67513 34.2843 8.55003 34.1208 8.53641C33.9585 8.52279 30.7798 8.47449 30.7798 8.47449C30.7798 8.47449 28.1214 5.89287 27.8588 5.63025C27.5962 5.36763 27.0833 5.44691 26.8839 5.50637C26.8814 5.50762 26.3847 5.66122 25.5485 5.92013C25.4085 5.46674 25.2028 4.90928 24.9092 4.34936C23.9629 2.54323 22.5767 1.58813 20.9018 1.58566C20.8993 1.58566 20.8981 1.58566 20.8956 1.58566C20.7792 1.58566 20.664 1.59681 20.5476 1.60671C20.498 1.54725 20.4484 1.48903 20.3964 1.43204C19.6668 0.65162 18.7315 0.271316 17.6104 0.304763C15.4475 0.366702 13.2933 1.9288 11.5466 4.70365C10.3178 6.65595 9.38247 9.10876 9.1174 11.0078C6.63364 11.777 4.89687 12.3146 4.85847 12.3271C3.60483 12.721 3.56519 12.7594 3.40167 13.9412C3.28028 14.8343 0 40.1995 0 40.1995L27.4896 44.9539L39.4041 41.992C39.4041 41.992 34.5432 9.1261 34.5122 8.90061ZM24.1722 6.34626C23.5392 6.54199 22.8194 6.76497 22.039 7.00653C22.0229 5.91146 21.8928 4.38776 21.3825 3.07094C23.0239 3.38188 23.8315 5.2388 24.1722 6.34626ZM20.6008 7.45249C19.1601 7.89842 17.5881 8.38526 16.0112 8.87338C16.4546 7.175 17.2958 5.48408 18.3289 4.37537C18.7129 3.96286 19.2505 3.50328 19.8873 3.24065C20.4856 4.48934 20.6157 6.25707 20.6008 7.45249ZM17.6537 1.74422C18.1616 1.73307 18.589 1.84456 18.9545 2.08488C18.3698 2.38838 17.8049 2.82443 17.2747 3.39303C15.9009 4.86717 14.8479 7.15518 14.428 9.36268C13.1186 9.76774 11.8377 10.1654 10.6584 10.5296C11.4029 7.05485 14.3152 1.84084 17.6537 1.74422Z" fill="#95BF47"/>
<path d="M34.1214 8.53681C33.9591 8.52319 30.7804 8.47489 30.7804 8.47489C30.7804 8.47489 28.122 5.89327 27.8594 5.63065C27.7616 5.53278 27.629 5.48199 27.4902 5.46094L27.4915 44.9518L39.4048 41.9912C39.4048 41.9912 34.5439 9.1265 34.5129 8.90101C34.4819 8.67552 34.2837 8.55043 34.1214 8.53681Z" fill="#5E8E3E"/>
<path d="M20.8875 14.6643L19.5039 19.841C19.5039 19.841 17.9604 19.1387 16.1307 19.2539C13.4475 19.4236 13.419 21.1158 13.4463 21.5407C13.5924 23.8559 19.6834 24.3614 20.0254 29.7847C20.2942 34.0511 17.7621 36.9696 14.114 37.2C9.73487 37.4762 7.32422 34.8934 7.32422 34.8934L8.25208 30.9467C8.25208 30.9467 10.6788 32.7776 12.6212 32.655C13.8897 32.5744 14.3431 31.5425 14.2972 30.8129C14.1065 27.7927 9.14644 27.9711 8.83306 23.0086C8.56917 18.8327 11.3119 14.6011 17.3632 14.2195C19.6946 14.0697 20.8875 14.6643 20.8875 14.6643Z" fill="white"/>
<path d="M55.0932 25.503C53.7233 24.7596 53.0192 24.133 53.0192 23.2717C53.0192 22.1757 53.9972 21.4717 55.5245 21.4717C57.3024 21.4717 58.8898 22.215 58.8898 22.215L60.1418 18.3791C60.1418 18.3791 58.9905 17.4785 55.6019 17.4785C50.8862 17.4785 47.618 20.1791 47.618 23.9757C47.618 26.1283 49.144 27.7723 51.1799 28.9457C52.8238 29.8844 53.4112 30.5504 53.4112 31.5284C53.4112 32.5458 52.5892 33.3677 51.0632 33.3677C48.7889 33.3677 46.6412 32.1931 46.6412 32.1931L45.3105 36.029C45.3105 36.029 47.2948 37.3597 50.6331 37.3597C55.4864 37.3597 58.9697 34.9723 58.9697 30.6671C58.9684 28.3596 57.2078 26.7157 55.0932 25.503Z" fill="black"/>
<path d="M74.4278 17.4412C72.0403 17.4412 70.1617 18.5765 68.7144 20.2979L68.6357 20.2585L70.7097 9.41797H65.3084L60.0645 37.009H65.4657L67.2657 27.5777C67.9697 24.0158 69.8091 21.8251 71.5317 21.8251C72.7443 21.8251 73.215 22.6471 73.215 23.8217C73.215 24.5651 73.1363 25.4657 72.9803 26.209L70.9456 37.0103H76.3471L78.4598 25.8564C78.695 24.6817 78.852 23.2737 78.852 22.3338C78.8498 19.2805 77.2453 17.4412 74.4278 17.4412Z" fill="black"/>
<path d="M91.0609 17.4414C84.5634 17.4414 80.2598 23.3121 80.2598 29.8474C80.2598 34.0347 82.8421 37.4 87.6957 37.4C94.0748 37.4 98.38 31.6867 98.38 24.9941C98.38 21.1201 96.1094 17.4414 91.0609 17.4414ZM88.3997 33.2532C86.56 33.2532 85.7772 31.6879 85.7772 29.7306C85.7772 26.6392 87.3824 21.5907 90.3174 21.5907C92.2352 21.5907 92.8603 23.2346 92.8603 24.8393C92.8603 28.1653 91.2573 33.2532 88.3997 33.2532Z" fill="black"/>
<path d="M112.194 17.4414C108.548 17.4414 106.48 20.6507 106.48 20.6507H106.402L106.715 17.7547H101.941C101.706 19.712 101.275 22.6854 100.845 24.9167L97.0879 44.6799H102.489L103.975 36.696H104.094C104.094 36.696 105.202 37.4 107.264 37.4C113.604 37.4 117.752 30.904 117.752 24.3282C117.752 20.6901 116.146 17.4414 112.194 17.4414ZM107.028 33.3306C105.626 33.3306 104.796 32.5479 104.796 32.5479L105.697 27.4994C106.323 24.134 108.084 21.9027 109.963 21.9027C111.607 21.9027 112.115 23.4288 112.115 24.8774C112.115 28.3606 110.041 33.3306 107.028 33.3306Z" fill="black"/>
<path d="M125.462 9.69141C123.741 9.69141 122.371 11.0614 122.371 12.822C122.371 14.4267 123.388 15.5227 124.915 15.5227H124.993C126.676 15.5227 128.124 14.3874 128.163 12.3921C128.163 10.8267 127.106 9.69141 125.462 9.69141Z" fill="black"/>
<path d="M117.91 37.0096H123.31L126.99 17.873H121.549L117.91 37.0096Z" fill="black"/>
<path d="M140.725 17.8332H136.968L137.163 16.9326C137.476 15.0933 138.573 13.4493 140.373 13.4493C141.333 13.4493 142.094 13.7233 142.094 13.7233L143.151 9.4967C143.151 9.4967 142.212 9.02734 140.215 9.02734C138.297 9.02734 136.381 9.57529 134.932 10.8273C133.092 12.3927 132.231 14.662 131.801 16.9326L131.646 17.8332H129.14L128.357 21.9038H130.863L128.006 37.0104H133.407L136.264 21.9038H139.982L140.725 17.8332Z" fill="black"/>
<path d="M153.719 17.8724C153.719 17.8724 150.343 26.3784 148.827 31.0216H148.748C148.645 29.5263 147.417 17.8724 147.417 17.8724H141.742L144.992 35.4436C145.071 35.8343 145.031 36.0702 144.874 36.3442C144.247 37.5569 143.191 38.7315 141.939 39.5928C140.921 40.3361 139.786 40.8055 138.887 41.1188L140.374 45.6981C141.47 45.4634 143.739 44.5628 145.657 42.7628C148.123 40.4541 150.392 36.8922 152.74 32.0389L159.354 17.8711H153.719V17.8724Z" fill="black"/>
</g>
<defs>
<clipPath id="clip0_5435_1441">
<rect width="160" height="45.3953" fill="white" transform="translate(0 0.302734)"/>
</clipPath>
</defs>
</svg>
