<svg width="160" height="50" viewBox="0 0 160 50" fill="none" xmlns="http://www.w3.org/2000/svg">
<path d="M24.0416 1.03711C10.804 1.03711 0.0722656 11.7686 0.0722656 25.0062C0.0722656 38.2444 10.804 48.975 24.0416 48.975C37.2807 48.975 48.0113 38.2444 48.0113 25.0062C48.0113 11.7694 37.2807 1.03825 24.0414 1.03825L24.0416 1.03711ZM35.0338 35.6074C34.6045 36.3115 33.6829 36.5348 32.9787 36.1026C27.351 32.665 20.2663 31.8865 11.9229 33.7927C11.1188 33.9759 10.3174 33.4722 10.1342 32.6679C9.95019 31.8636 10.4519 31.0622 11.258 30.879C20.3885 28.793 28.2205 29.6911 34.5387 33.5523C35.2428 33.9845 35.466 34.9033 35.0338 35.6074ZM37.9676 29.0809C37.4267 29.9602 36.2761 30.2378 35.3973 29.6969C28.9544 25.7366 19.1332 24.5897 11.5124 26.903C10.5241 27.2015 9.48021 26.6446 9.18024 25.6579C8.88257 24.6696 9.43985 23.6277 10.4265 23.3272C19.1314 20.6859 29.9533 21.9653 37.3523 26.512C38.231 27.053 38.5086 28.2033 37.9676 29.0809ZM38.2195 22.2848C30.4943 17.6963 17.7487 17.2744 10.3729 19.513C9.18855 19.8722 7.93602 19.2036 7.5771 18.0191C7.21817 16.8342 7.88622 15.5825 9.07148 15.2224C17.5383 12.6521 31.6134 13.1487 40.5076 18.4287C41.5752 19.061 41.9244 20.4369 41.2919 21.5008C40.6622 22.5661 39.2826 22.9173 38.2207 22.2848H38.2195ZM65.285 23.1641C61.1462 22.1771 60.4106 21.4845 60.4106 20.029C60.4106 18.654 61.7043 17.7286 63.6306 17.7286C65.4968 17.7286 67.3458 18.4313 69.2864 19.8779C69.3437 19.9217 69.4181 19.9391 69.4897 19.9277C69.5641 19.9168 69.627 19.877 69.67 19.8172L71.6907 16.9687C71.7737 16.8513 71.7508 16.6896 71.6392 16.6C69.3294 14.7473 66.7304 13.8466 63.6907 13.8466C59.2227 13.8466 56.1 16.5282 56.1 20.3651C56.1 24.4795 58.7934 25.9364 63.4474 27.061C67.4059 27.9732 68.0757 28.7374 68.0757 30.1033C68.0757 31.6174 66.7247 32.5591 64.5494 32.5591C62.1337 32.5591 60.1616 31.7434 57.9576 29.8371C57.9033 29.7885 57.8288 29.7684 57.7601 29.7713C57.6857 29.777 57.6199 29.8113 57.5741 29.8657L55.3072 32.562C55.2127 32.6765 55.2242 32.8425 55.3329 32.9398C57.8975 35.2296 61.0517 36.4375 64.4578 36.4375C69.2721 36.4375 72.3834 33.8071 72.3834 29.7341C72.392 26.2974 70.334 24.394 65.2936 23.1678L65.285 23.1641ZM83.2771 19.0825C81.1906 19.0825 79.4789 19.9045 78.065 21.589V19.693C78.065 19.5433 77.9448 19.4214 77.7959 19.4214H74.0893C73.9405 19.4214 73.8203 19.5433 73.8203 19.693V40.7595C73.8203 40.9083 73.9405 41.0314 74.0893 41.0314H77.7959C77.9448 41.0314 78.065 40.9083 78.065 40.7595V34.1105C79.4789 35.6933 81.1906 36.469 83.2771 36.469C87.1555 36.469 91.0825 33.4836 91.0825 27.7766C91.0882 22.0684 87.1612 19.0822 83.28 19.0822L83.2771 19.0825ZM86.7719 27.7766C86.7719 30.6815 84.983 32.7108 82.4185 32.7108C79.8854 32.7108 77.9734 30.5899 77.9734 27.7766C77.9734 24.963 79.8854 22.8426 82.4185 22.8426C84.9401 22.8423 86.7719 24.9172 86.7719 27.7766ZM101.143 19.0825C96.1487 19.0825 92.236 22.9282 92.236 27.8387C92.236 32.6965 96.1229 36.5004 101.083 36.5004C106.095 36.5004 110.019 32.6679 110.019 27.7766C110.019 22.9019 106.121 19.083 101.143 19.083V19.0825ZM101.143 32.7394C98.4872 32.7394 96.4836 30.6042 96.4836 27.7751C96.4836 24.9332 98.4185 22.871 101.083 22.871C103.757 22.871 105.772 25.0053 105.772 27.8373C105.772 30.6786 103.825 32.7394 101.143 32.7394ZM120.684 19.4214H116.605V15.2522C116.605 15.1028 116.485 14.9809 116.336 14.9809H112.63C112.481 14.9809 112.358 15.1028 112.358 15.2522V19.4214H110.577C110.428 19.4214 110.308 19.5433 110.308 19.693V22.8778C110.308 23.0272 110.428 23.1495 110.577 23.1495H112.358V31.3913C112.358 34.7201 114.015 36.4088 117.286 36.4088C118.615 36.4088 119.716 36.1341 120.755 35.5444C120.841 35.4986 120.893 35.4071 120.893 35.3097V32.2758C120.893 32.1842 120.844 32.0954 120.764 32.0468C120.684 31.9952 120.584 31.9924 120.501 32.0353C119.788 32.3931 119.098 32.5591 118.325 32.5591C117.138 32.5591 116.605 32.0181 116.605 30.8103V23.1509H120.684C120.833 23.1509 120.953 23.029 120.953 22.8793V19.6947C120.959 19.545 120.838 19.4231 120.687 19.4231L120.684 19.4214ZM134.892 19.4377V18.9256C134.892 17.4192 135.47 16.7474 136.764 16.7474C137.537 16.7474 138.158 16.9009 138.854 17.1327C138.939 17.1596 139.028 17.1462 139.097 17.0949C139.168 17.0437 139.208 16.9615 139.208 16.8745V13.7518C139.208 13.6325 139.134 13.5268 139.017 13.4916C138.284 13.2732 137.345 13.0491 135.937 13.0491C132.516 13.0491 130.705 14.9766 130.705 18.6211V19.4053H128.924C128.776 19.4053 128.652 19.5273 128.652 19.6767V22.8778C128.652 23.0272 128.776 23.1495 128.924 23.1495H130.705V35.8593C130.705 36.011 130.828 36.1312 130.977 36.1312H134.68C134.832 36.1312 134.952 36.011 134.952 35.8593V23.1503H138.413L143.714 35.8593C143.113 37.1931 142.52 37.4593 141.713 37.4593C141.06 37.4593 140.371 37.2647 139.669 36.8783C139.603 36.8439 139.523 36.8382 139.455 36.8582C139.383 36.884 139.323 36.9355 139.294 37.0042L138.038 39.7605C137.978 39.8922 138.029 40.0439 138.155 40.1126C139.466 40.8224 140.648 41.1258 142.111 41.1258C144.847 41.1258 146.361 39.8493 147.692 36.4203L154.121 19.8086C154.155 19.7251 154.144 19.6306 154.092 19.5565C154.044 19.4829 153.961 19.4385 153.872 19.4385H150.013C149.896 19.4385 149.793 19.5121 149.756 19.6206L145.803 30.9076L141.475 19.6131C141.435 19.5081 141.335 19.4385 141.223 19.4385H134.892V19.4377ZM126.655 19.4214H122.948C122.799 19.4214 122.676 19.5433 122.676 19.693V35.8593C122.676 36.011 122.799 36.1312 122.948 36.1312H126.655C126.803 36.1312 126.927 36.011 126.927 35.8593V19.6941C126.927 19.5444 126.806 19.4225 126.655 19.4225V19.4214ZM124.823 12.0599C123.354 12.0599 122.164 13.2483 122.164 14.7164C122.164 16.1853 123.354 17.3751 124.823 17.3751C126.291 17.3751 127.479 16.1853 127.479 14.7164C127.479 13.2486 126.288 12.0599 124.823 12.0599ZM157.286 24.6195C155.821 24.6195 154.679 23.4417 154.679 22.0114C154.679 20.5812 155.835 19.3899 157.301 19.3899C158.766 19.3899 159.908 20.5674 159.908 21.9965C159.908 23.4268 158.752 24.6195 157.286 24.6195ZM157.301 19.6492C155.964 19.6492 154.954 20.7111 154.954 22.0114C154.954 23.3112 155.958 24.3588 157.286 24.3588C158.623 24.3588 159.633 23.2977 159.633 21.9965C159.633 20.6968 158.629 19.6492 157.301 19.6492ZM157.879 22.2647L158.617 23.2974H157.993L157.329 22.35H156.76V23.2974H156.239V20.56H157.458C158.096 20.56 158.514 20.8854 158.514 21.4332C158.517 21.882 158.257 22.1563 157.882 22.2647H157.879ZM157.438 21.0297H156.76V21.8955H157.438C157.776 21.8955 157.979 21.7298 157.979 21.4622C157.979 21.1805 157.776 21.0297 157.438 21.0297Z" fill="#1ED760"/>
</svg>
