<svg width="160" height="48" viewBox="0 0 160 48" fill="none" xmlns="http://www.w3.org/2000/svg">
<g clip-path="url(#clip0_5435_1510)">
<path fill-rule="evenodd" clip-rule="evenodd" d="M0 0.0429688H160V47.9574H0V0.0429688Z" fill="#FFCC00"/>
<path fill-rule="evenodd" clip-rule="evenodd" d="M0.015625 0.90956H159.227V0.898438H0.015625V0.90956Z" fill="#FFD300"/>
<path fill-rule="evenodd" clip-rule="evenodd" d="M0.015625 0.90956H159.227V0.898438H0.015625V0.90956Z" fill="#FFD300"/>
<path fill-rule="evenodd" clip-rule="evenodd" d="M83.4609 21.4094C83.4609 21.607 83.4309 21.8235 83.3821 22.0708C83.1554 23.1454 82.4846 23.9839 81.5862 24.3099C81.3004 24.4186 80.7871 24.4776 80.4517 24.4776H78.873L79.9195 19.5938H81.3501C81.7445 19.5938 82.0405 19.6331 82.287 19.7127C82.6617 19.841 83.4609 20.2355 83.4609 21.4094Z" fill="#FFD300"/>
<path fill-rule="evenodd" clip-rule="evenodd" d="M96.7681 24.2204C96.2744 26.4502 95.3477 28.9956 92.6243 28.9956C91.7464 28.9956 91.0756 28.709 90.6213 28.1571C89.9608 27.3383 89.8025 25.9274 90.1781 24.1708C90.6812 21.9514 91.5984 19.3965 94.321 19.3965C95.2091 19.3965 95.8799 19.6823 96.3343 20.2444C96.9948 21.0538 97.142 22.4647 96.7681 24.2204Z" fill="#FFD300"/>
<path fill-rule="evenodd" clip-rule="evenodd" d="M120.945 35.7865L122.395 28.998H15.044L13.5938 35.7865H120.945Z" fill="#FEFEFE"/>
<path fill-rule="evenodd" clip-rule="evenodd" d="M137.058 17.0933C137.058 17.0933 138.867 8.58331 138.875 8.53711H127.374C127.368 8.56706 124.983 19.6952 124.972 19.7414H127.821C127.826 19.7123 129.654 11.1861 129.654 11.1861H135.464C135.464 11.1861 133.637 19.6969 133.628 19.7414H142.255L141.108 25.0958H132.528C132.522 25.1258 130.815 33.0975 130.815 33.0975H124.314C124.306 33.1275 123.757 35.7397 123.748 35.785H133.096C133.104 35.7551 134.819 27.7636 134.819 27.7636H143.368C143.375 27.7337 145.648 17.1386 145.658 17.0933H137.058Z" fill="#FF0000"/>
<path fill-rule="evenodd" clip-rule="evenodd" d="M122.561 17.0996H111.801L111.229 19.7323H115.083L112.602 31.2951H115.675L118.154 19.7323H121.989L122.561 17.0996Z" fill="black"/>
<path fill-rule="evenodd" clip-rule="evenodd" d="M96.6517 24.1977C96.1358 26.4865 95.2203 28.872 92.626 28.872C90.1259 28.872 89.8008 26.5259 90.297 24.1977C90.813 21.909 91.7285 19.5235 94.3236 19.5235C96.822 19.5235 97.148 21.8705 96.6517 24.1977ZM94.5905 16.9473C89.669 16.9473 87.7969 20.2859 87.0166 24.1977C86.2149 28.1096 87.8739 31.4482 92.3574 31.4482C97.2797 31.4482 99.1518 28.1096 99.933 24.1977C100.734 20.2859 99.0748 16.9473 94.5905 16.9473Z" fill="black"/>
<path fill-rule="evenodd" clip-rule="evenodd" d="M51.0288 17.0996H47.9571L44.9043 31.2951H47.9777L51.0288 17.0996Z" fill="black"/>
<path fill-rule="evenodd" clip-rule="evenodd" d="M83.2582 22.0408C83.0674 22.976 82.4959 23.853 81.541 24.1969C81.2749 24.2919 80.7787 24.3501 80.4535 24.3501H79.0221L80.0154 19.7135H81.3502C81.7318 19.7135 82.0193 19.752 82.2486 19.8282C83.011 20.0754 83.5252 20.7813 83.2582 22.0408ZM82.8005 17.1946C82.4385 17.1381 81.9226 17.0996 81.4075 17.0996H77.5342L74.4805 31.2943H77.5342L78.4693 26.964H80.2447C81.1791 26.964 81.79 26.8682 82.3812 26.697C84.575 26.0288 85.9106 24.2354 86.3111 22.3077C86.8843 19.675 85.452 17.6327 82.8005 17.1946Z" fill="black"/>
<path fill-rule="evenodd" clip-rule="evenodd" d="M46.6016 17.0996H43.3956L39.275 27.213L39.1612 17.0996H35.4966L31.6053 27.1933L31.3383 17.0996H28.3223L29.1428 31.2951H32.4643L36.6611 21.0294L37.0427 31.2951H40.4001L46.6016 17.0996Z" fill="black"/>
<path fill-rule="evenodd" clip-rule="evenodd" d="M106.002 19.7897C106.479 19.7332 106.917 19.7332 107.64 19.7332H109.95L110.522 17.0996H107.947C107.202 17.0996 106.232 17.0996 105.391 17.1954C103.388 17.4247 101.517 18.8553 101.517 21.3546C101.517 23.0709 102.49 23.8735 103.502 24.5785L105.142 25.7234C105.639 26.0682 105.962 26.3548 106.135 26.6021C106.305 26.8493 106.364 27.0213 106.364 27.2695C106.364 27.5723 106.282 27.8205 106.113 28.0275C105.672 28.5058 104.889 28.6427 104.19 28.7103C102.417 28.878 100.47 28.179 100.47 28.179L100.45 28.2431L99.5332 30.8374C100.64 31.2378 102.262 31.4106 103.693 31.4106C107.527 31.3909 109.76 29.7122 109.76 26.9837C109.76 25.6096 108.806 24.6932 107.833 23.9685L106.039 22.6337C105.297 22.0801 104.8 21.6977 104.8 21.068C104.8 20.4006 105.218 19.8863 106.002 19.7897Z" fill="black"/>
<path fill-rule="evenodd" clip-rule="evenodd" d="M66.4093 19.7897C66.8859 19.7332 67.3239 19.7332 68.0495 19.7332H70.3596L70.9312 17.0996H68.3541C67.6114 17.0996 66.6377 17.0996 65.7984 17.1954C63.7945 17.4247 61.925 18.8553 61.925 21.3546C61.925 23.0709 62.8978 23.8735 63.91 24.5785L65.5511 25.7234C66.0473 26.0682 66.3708 26.3548 66.5419 26.6021C66.7139 26.8493 66.7721 27.0213 66.7721 27.2695C66.7721 27.5723 66.6908 27.8205 66.5196 28.0275C66.0816 28.5058 65.2987 28.6427 64.5979 28.7103C62.8234 28.878 60.8794 28.179 60.8794 28.179L60.2951 30.9263L60.2891 30.9512C61.3706 31.2712 62.814 31.4106 64.1008 31.4106C67.9357 31.3909 70.168 29.7122 70.168 26.9837C70.168 25.6096 69.2131 24.6932 68.2411 23.9685L66.4469 22.6337C65.7034 22.0801 65.2071 21.6977 65.2071 21.068C65.2071 20.4006 65.6272 19.8863 66.4093 19.7897Z" fill="black"/>
<path fill-rule="evenodd" clip-rule="evenodd" d="M56.3175 19.7897C56.7941 19.7315 57.2321 19.7315 57.9585 19.7315H60.267L60.8385 17.0996H58.2623C57.5188 17.0996 56.5459 17.0996 55.7066 17.1954C53.7027 17.423 51.8332 18.8553 51.8332 21.3546C51.8332 23.0709 52.806 23.8727 53.8182 24.5785L55.4593 25.7234C55.9556 26.0673 56.2798 26.3539 56.4501 26.6021C56.6221 26.8493 56.6803 27.0213 56.6803 27.2694C56.6803 27.5723 56.5998 27.8205 56.4287 28.0284C55.9889 28.5041 55.2069 28.6427 54.5061 28.7094C52.7316 28.878 50.7876 28.179 50.7876 28.179L50.2033 30.9263L50.1973 30.9512C51.2788 31.2712 52.7222 31.4098 54.009 31.4098C57.8439 31.3901 60.0762 29.7114 60.0762 26.9837C60.0762 25.6087 59.1213 24.6923 58.1494 23.9676L56.356 22.6329C55.6107 22.0784 55.1153 21.6977 55.1153 21.068C55.1153 20.4006 55.5354 19.8863 56.3175 19.7897Z" fill="black"/>
<path fill-rule="evenodd" clip-rule="evenodd" d="M22.8479 19.7897C23.3245 19.7315 23.7634 19.7315 24.4889 19.7315H26.7982L27.3689 17.0996H24.7918C24.05 17.0996 23.0763 17.0996 22.237 17.1954C20.2323 17.423 18.3627 18.8553 18.3627 21.3546C18.3627 23.0709 19.3364 23.8727 20.3486 24.5785L21.9897 25.7234C22.4859 26.0673 22.8094 26.3539 22.9805 26.6021C23.1516 26.8493 23.2098 27.0213 23.2098 27.2694C23.2098 27.5723 23.1294 27.8205 22.9591 28.0284C22.5193 28.5041 21.7364 28.6427 21.0365 28.7094C19.2611 28.878 17.318 28.179 17.318 28.179L16.7328 30.9263L16.7285 30.9512C17.8092 31.2712 19.2517 31.4098 20.5386 31.4098C24.3743 31.3901 26.6066 29.7114 26.6066 26.9837C26.6066 25.6087 25.6517 24.6923 24.6789 23.9676L22.8855 22.6329C22.142 22.0784 21.6457 21.6977 21.6457 21.068C21.6457 20.4006 22.065 19.8863 22.8479 19.7897Z" fill="black"/>
</g>
<defs>
<clipPath id="clip0_5435_1510">
<rect width="160" height="47.9144" fill="white" transform="translate(0 0.0429688)"/>
</clipPath>
</defs>
</svg>
