<svg width="160" height="46" viewBox="0 0 160 46" fill="none" xmlns="http://www.w3.org/2000/svg">
<g clip-path="url(#clip0_5435_1397)">
<path d="M23.2109 37.9585H30.1405V30.9725H37.1264V24.043H23.2109V37.9585Z" fill="#010202"/>
<path d="M44.0561 30.9727H37.1265V37.9586H30.1406V44.8881H44.0561V30.9727Z" fill="#010202"/>
<path d="M5.23944 34.4652C8.1331 34.4652 10.4789 32.1194 10.4789 29.2258C10.4789 26.3321 8.1331 23.9863 5.23944 23.9863C2.34578 23.9863 0 26.3321 0 29.2258C0 32.1194 2.34578 34.4652 5.23944 34.4652Z" fill="#010202"/>
<path d="M15.6613 34.4652C18.555 34.4652 20.9007 32.1194 20.9007 29.2258C20.9007 26.3321 18.555 23.9863 15.6613 23.9863C12.7677 23.9863 10.4219 26.3321 10.4219 29.2258C10.4219 32.1194 12.7677 34.4652 15.6613 34.4652Z" fill="#010202"/>
<path d="M15.6613 44.9437C18.555 44.9437 20.9007 42.5979 20.9007 39.7043C20.9007 36.8106 18.555 34.4648 15.6613 34.4648C12.7677 34.4648 10.4219 36.8106 10.4219 39.7043C10.4219 42.5979 12.7677 44.9437 15.6613 44.9437Z" fill="#010202"/>
<path d="M5.23944 44.9437C8.1331 44.9437 10.4789 42.5979 10.4789 39.7043C10.4789 36.8106 8.1331 34.4648 5.23944 34.4648C2.34578 34.4648 0 36.8106 0 39.7043C0 42.5979 2.34578 44.9437 5.23944 44.9437Z" fill="#010202"/>
<path d="M10.4225 0.832031C4.67606 0.832031 0 5.50809 0 11.2546C0 17.001 4.67606 21.6771 10.4225 21.6771C16.169 21.6771 20.8451 17.001 20.8451 11.2546C20.8451 5.50809 16.2254 0.832031 10.4225 0.832031ZM10.4225 17.0574C7.21127 17.0574 4.67606 14.4658 4.67606 11.3109C4.67606 8.15597 7.26761 5.50809 10.4225 5.50809C13.5775 5.50809 16.169 8.09964 16.169 11.2546C16.169 14.4095 13.6338 17.0574 10.4225 17.0574Z" fill="#010202"/>
<path d="M30.1504 7.83162V0.845703L23.1645 0.845703V7.83162L30.1504 7.83162Z" fill="#010202"/>
<path d="M37.1367 14.7613V7.77539L30.1508 7.77539V14.7613H37.1367Z" fill="#010202"/>
<path d="M44.0664 7.83162V0.845703L37.0805 0.845703V7.83162L44.0664 7.83162Z" fill="#010202"/>
<path d="M30.1504 21.7476V14.7617L23.1645 14.7617V21.7476H30.1504Z" fill="#010202"/>
<path d="M44.0664 21.7476V14.7617L37.0805 14.7617V21.7476H44.0664Z" fill="#010202"/>
<path d="M70.7039 18.8593H73.8589V3.42267H79.6617V0.662109H64.6758V3.42267H70.7039V18.8593Z" fill="#020203"/>
<path d="M87.2667 8.09873C87.3231 8.09873 87.4358 8.09873 87.4921 8.09873C88.2245 8.09873 88.6189 8.43676 88.9006 8.77479C89.3513 9.28183 89.5766 9.90155 89.5766 10.7466V18.8593H92.7315V10.2959C92.7315 7.19732 91.0977 5.50718 88.1682 5.50718C85.7456 5.50718 84.9006 6.35225 84.3372 7.02831V0.718447L81.2949 0.662109V18.8593L84.3372 18.9156V11.1973C84.3372 9.78887 84.7315 9.22549 85.0132 8.9438C85.2949 8.66211 85.6329 8.43676 86.0273 8.26774C86.3653 8.09873 86.8724 8.09873 87.2667 8.09873Z" fill="#020203"/>
<path d="M120.395 31.4795C117.972 31.4795 117.127 32.3246 116.564 33.0007V26.6345L113.521 26.5781V44.7753L116.564 44.8316V37.1133C116.564 35.7049 116.958 35.1415 117.24 34.8598C117.521 34.5781 117.86 34.3528 118.254 34.1838C118.592 34.0147 119.043 34.0711 119.493 34.0711C119.55 34.0711 119.662 34.0711 119.719 34.0711C120.451 34.0711 120.845 34.4091 121.127 34.7471C121.578 35.2542 121.803 35.8739 121.803 36.719V44.8316H124.958V36.2683C124.958 33.1697 123.324 31.4795 120.395 31.4795Z" fill="#020203"/>
<path d="M101.183 19.3103C102.141 19.3103 103.042 19.1413 103.831 18.8596C104.62 18.5779 105.352 18.1272 105.915 17.5075C106.479 16.8878 106.986 16.1554 107.268 15.3103C107.606 14.4653 107.775 13.4512 107.775 12.3244C107.775 11.3103 107.606 10.4089 107.324 9.56385C107.042 8.71878 106.591 7.98638 106.084 7.36666C105.521 6.74695 104.845 6.29624 104 5.95821C103.155 5.62019 102.253 5.45117 101.183 5.45117C100.169 5.45117 99.2112 5.62019 98.3661 5.95821C97.5211 6.29624 96.845 6.74695 96.2816 7.36666C95.7182 7.98638 95.2676 8.71878 94.9859 9.56385C94.7042 10.4089 94.5352 11.3667 94.5352 12.3807C94.5352 14.5779 95.0985 16.2681 96.2816 17.5075C97.4647 18.6906 99.1549 19.3103 101.183 19.3103ZM97.6337 12.4371C97.6337 11.3103 97.9718 10.2962 98.6478 9.28216C99.2112 8.49343 100.056 8.09906 101.239 8.09906C102.422 8.09906 103.268 8.49343 103.831 9.22582C104.507 10.1836 104.789 11.1976 104.789 12.3807C104.789 13.8455 104.282 14.8033 103.831 15.4793C103.268 16.2681 102.422 16.6624 101.239 16.6624C100.056 16.6624 99.1549 16.2681 98.6478 15.4793C98.1408 14.6906 97.6337 13.7892 97.6337 12.4371Z" fill="#020203"/>
<path d="M114.141 19.3091C114.817 19.3091 115.831 19.3091 116.507 18.9148C117.127 18.5768 117.69 18.126 118.197 17.5063V18.9711H120.902V6.01337H117.916V13.5627C117.916 14.0134 117.803 14.4641 117.634 14.8021C117.465 15.1965 117.183 15.4782 116.902 15.7598C116.62 16.0415 116.282 16.2106 115.888 16.3796C115.493 16.4922 115.155 16.6049 114.761 16.6049C114.085 16.6049 113.578 16.4359 113.296 16.0415C112.958 15.7035 112.789 14.9711 112.789 13.957V5.95703H109.859V14.3514C109.859 15.9289 110.197 17.112 110.817 17.9007C111.55 18.8021 112.733 19.3091 114.141 19.3091Z" fill="#020203"/>
<path d="M128.676 18.7469C129.522 18.7469 130.31 18.5779 130.986 18.2398C131.55 17.9581 132.057 17.5638 132.507 17.0567V17.5074C132.564 20.3807 131.268 20.9441 130.536 21.1694C128.451 21.9581 125.014 19.93 124.789 19.7046L124.676 19.5919L123.155 21.9018L123.268 21.9581C125.691 23.5919 127.831 23.8173 129.634 23.8173C131.437 23.8173 133.184 23.0849 134.254 21.7891C135.155 20.7187 135.493 19.5356 135.493 17.0004V5.9018H132.564V7.36659C131.719 6.29617 131.099 5.62011 128.902 5.50744C127.212 5.4511 125.634 6.07082 124.62 7.25391C123.55 8.49335 122.986 10.0708 122.986 11.8736C122.986 13.9581 123.831 15.93 124.676 16.9441C125.634 18.1272 126.986 18.7469 128.676 18.7469ZM126.029 12.099C126.029 10.8595 126.31 9.84546 126.817 9.16941C127.324 8.49335 128.113 8.15532 129.071 8.15532C130.029 8.15532 131.212 8.66236 131.719 9.33842C132.226 9.95814 132.507 10.9159 132.507 12.2117V12.606C132.507 13.8455 131.944 14.6342 131.437 15.1976C130.874 15.8173 130.198 16.099 129.127 16.099C128.057 16.099 126.029 15.2539 126.029 12.099Z" fill="#020203"/>
<path d="M159.211 16.2113L158.985 16.2676C157.971 16.6057 157.126 16.662 156.563 16.3803C156.112 16.155 156.112 15.6479 156.112 15.0845C156.112 15.0282 156.112 14.9719 156.112 14.9155V8.21129H159.436V5.90144H156.112V1.73242H153.014V5.90144H150.816V8.21129H153.014V14.3521C153.014 15.1972 153.07 17.2254 153.802 18.1268C154.366 18.8592 155.154 19.1409 156.619 19.1409C157.577 19.1409 158.76 18.9155 159.492 18.6338L159.605 18.5775L159.211 16.2113Z" fill="#020203"/>
<path d="M74.9289 40.3243L70.6472 26.5215H65.6895V44.8877H68.7317V29.7891L73.5768 44.8877H76.3373L81.0134 29.7891V44.8877H84.2247V26.5215H78.9852L74.9289 40.3243Z" fill="#020203"/>
<path d="M97.2398 33.6194C95.8877 31.6475 93.4652 31.4785 92.4511 31.4785C90.7609 31.4785 89.2398 32.0982 88.4511 32.6053C87.944 32.9433 87.268 33.5067 86.5356 34.2954C86.5356 34.3518 86.4793 34.3518 86.4793 34.3518L86.3666 34.4644L88.3947 36.2109L88.4511 36.1546C88.6201 35.9856 89.9722 34.8025 90.3666 34.5771C90.6483 34.4644 92.0004 33.7884 93.4652 34.3518C94.1412 34.5771 94.8736 35.2532 94.8736 36.1546V36.5489C94.1976 36.6053 90.8173 36.9996 88.7891 38.0701H88.7328C88.1131 38.4081 87.437 38.7461 87.0426 39.3095C86.5356 40.0419 86.2539 40.718 86.2539 41.4503C86.2539 42.1264 86.3666 42.6898 86.5919 43.1405C86.8173 43.6475 87.099 44.0419 87.4933 44.3236C87.8877 44.6616 88.3384 44.887 88.8455 45.056C89.3525 45.225 90.2539 45.394 90.8736 45.394C92.9018 45.394 94.4229 44.4926 95.0426 43.8165V44.9996H97.7469V37.1123C97.9159 36.9433 98.0849 34.8025 97.2398 33.6194ZM91.1553 42.9151C90.4229 42.8588 89.6342 42.6334 89.4088 41.6757C89.1271 40.3236 90.7046 39.7602 91.437 39.5912C92.2821 39.3658 93.5215 39.1405 94.3102 38.9715C94.7046 38.9151 94.93 38.8588 95.099 38.8025C95.099 38.8588 95.099 38.8588 95.099 38.9151C95.099 39.5349 95.1553 41.2813 94.0849 42.2391C93.3525 42.8025 92.3947 43.0278 91.1553 42.9151Z" fill="#020203"/>
<path d="M129.013 26.4648H128.844C127.83 26.4648 127.041 27.2536 127.041 28.2677C127.041 29.2817 127.83 30.0705 128.844 30.0705H129.013C130.027 30.0705 130.816 29.2817 130.816 28.2677C130.872 27.2536 130.027 26.4648 129.013 26.4648Z" fill="#020203"/>
<path d="M127.436 44.8865H130.421V31.7598H127.436V44.8865Z" fill="#020203"/>
<path d="M139.775 31.3652C138.986 31.3652 138.197 31.5342 137.465 31.9286C136.845 32.2666 136.451 32.6047 136 33.2244V31.8159H133.127V44.8864H136.169V37.1117C136.169 36.661 136.169 36.2666 136.338 35.8723C136.507 35.4779 136.733 35.1399 137.014 34.8582C137.296 34.5765 137.634 34.3511 138.028 34.1821C138.423 34.0131 138.704 33.9568 139.211 33.9568C139.888 33.9568 140.395 34.1821 140.733 34.5202C141.014 34.8582 141.521 35.5342 141.521 36.6047V44.8864H144.62V36.2103C144.564 33.1681 142.761 31.3652 139.775 31.3652Z" fill="#020203"/>
<path d="M157.126 40.8303C155.042 42.7458 153.859 42.7458 153.013 42.7458C152.957 42.7458 152.901 42.7458 152.844 42.7458C151.774 42.7458 150.985 42.4078 150.478 41.7317C149.971 41.0557 149.689 40.2106 149.633 39.1402H158.816V37.6754C158.816 36.774 158.704 35.9289 158.478 35.1402C158.253 34.4078 157.915 33.7317 157.408 33.1684C156.957 32.605 156.337 32.2106 155.605 31.8726C154.873 31.5909 154.028 31.4219 153.07 31.4219C152.056 31.4219 151.042 31.5909 150.309 31.8726C149.577 32.1543 148.901 32.605 148.337 33.2247C147.774 33.7881 147.38 34.5205 147.042 35.3655C146.76 36.1543 146.422 37.281 146.422 38.4078C146.422 40.3796 146.985 42.0134 148.168 43.3092C149.295 44.5486 151.042 45.3374 152.844 45.3374C152.901 45.3374 152.957 45.3374 153.07 45.3374C156.788 45.2247 158.591 43.0838 158.873 42.5768L158.929 42.5205L157.239 40.7176L157.126 40.8303ZM149.689 36.8867C149.802 36.0416 150.028 35.3655 150.535 34.8022C151.042 34.2388 151.774 33.9571 152.732 33.9571C153.746 33.9571 154.478 34.2388 154.929 34.8022C155.38 35.3655 155.605 35.9853 155.605 36.8867H149.689Z" fill="#020203"/>
<path d="M146.479 18.8027H149.634V10.2393C149.634 7.14068 148 5.45054 145.071 5.45054C142.648 5.45054 141.803 6.29561 141.24 6.97167V0.661807L138.197 0.605469V18.8027L141.24 18.859V11.0843C141.24 9.67589 141.634 9.11251 141.916 8.83082C142.197 8.54913 142.535 8.32378 142.93 8.15476C143.268 7.98575 143.718 8.04209 144.169 8.04209C144.225 8.04209 144.338 8.04209 144.394 8.04209C145.127 8.04209 145.521 8.38012 145.803 8.71814C146.254 9.22519 146.479 9.8449 146.479 10.69V18.8027Z" fill="#020203"/>
<path d="M109.972 40.7183C109.295 41.4506 108.676 42.014 108.169 42.2957C107.662 42.5774 107.098 42.7464 106.422 42.7464C105.352 42.7464 104.507 42.3521 103.887 41.507C103.267 40.6619 102.986 39.6478 102.986 38.4647C102.986 37.2253 103.267 36.2112 103.887 35.3661C104.45 34.5211 105.352 34.1267 106.422 34.1267C106.986 34.1267 107.549 34.2394 108.056 34.4647C108.563 34.6901 109.183 35.1971 109.803 35.8732L109.915 35.9859L111.887 34.1267L111.831 34.014C111.042 33.1126 110.197 32.4366 109.352 32.0985C108.507 31.7042 107.549 31.5352 106.479 31.5352C104.563 31.5352 102.929 32.1549 101.746 33.4506C100.563 34.6901 99.9434 36.4366 99.9434 38.5211C99.9434 40.6056 100.563 42.3521 101.746 43.5915C102.929 44.8309 104.507 45.4506 106.479 45.4506C107.605 45.4506 108.619 45.2253 109.464 44.7746C110.31 44.3239 111.211 43.5915 112.056 42.4647L112.112 42.3521L110.084 40.6619L109.972 40.7183Z" fill="#020203"/>
</g>
<defs>
<clipPath id="clip0_5435_1397">
<rect width="160" height="45.2394" fill="white" transform="translate(0 0.380859)"/>
</clipPath>
</defs>
</svg>
