<svg width="122" height="50" viewBox="0 0 122 50" fill="none" xmlns="http://www.w3.org/2000/svg">
<path d="M5.18762 37.8376L4.96991 37.6025L4.75655 37.363L4.34725 36.8666L3.94231 36.3615L3.52431 35.8651L3.42416 35.7476L3.33272 35.6256L3.25434 35.5037L3.18032 35.3774L3.12371 35.2512L3.07146 35.1205L3.03227 34.9899L3.00615 34.8593L2.98873 34.7287L2.98438 34.5937L2.99308 34.4587L3.01485 34.3281L3.04969 34.1931L3.09758 34.0581L3.15854 33.9275L3.23256 33.7925L3.32836 33.6575L3.42415 33.5443L3.5243 33.4485L3.63315 33.3745L3.74201 33.3179L3.85522 33.2787L3.97278 33.2569L4.09035 33.2482H4.21227L4.33854 33.2656L4.46481 33.2918L4.59109 33.331L4.85234 33.4311L5.1223 33.553L6.38068 34.1278L7.65647 34.5893L8.93661 34.929L9.58104 35.0509L10.2298 35.138L10.883 35.1946L11.5361 35.212L12.1936 35.1989L12.8554 35.1467L13.5216 35.0552L14.1878 34.929L14.8584 34.7635L15.5333 34.5588L16.1733 34.3194L16.7829 34.0407L17.3621 33.7185L17.9107 33.3484L18.4332 32.9304L18.9209 32.4645L19.3781 31.9463L19.8048 31.3672L19.9659 31.1408L20.127 30.9448L20.2881 30.7794L20.4492 30.6487L20.606 30.5442L20.7627 30.4702L20.8411 30.4484L20.9195 30.431L20.9979 30.4223L21.0762 30.418L21.1503 30.4223L21.2286 30.4354L21.307 30.4572L21.381 30.4876L21.5378 30.566L21.6902 30.6792L21.8426 30.8186L21.9906 30.9884L22.143 31.1887L22.2954 31.4238L22.8745 32.3208L23.4841 33.1655L24.1242 33.958L24.7948 34.6938L25.4914 35.3818L26.2186 36.0132L26.9719 36.5966L27.7556 37.1235L28.5655 37.5981L29.4059 38.0248L30.2724 38.3993L31.165 38.7171L32.0881 38.9871L33.0373 39.2092L34.0127 39.3746L35.0141 39.4922L35.824 39.5357L36.6296 39.514L37.4307 39.4356L38.2276 39.3093L39.02 39.1308L39.8082 38.9131L40.5832 38.6605L41.3583 38.3731L42.3467 37.9551L42.6297 37.8506L42.769 37.8114L42.9084 37.7766L43.0434 37.7548L43.174 37.7418H43.3046L43.4309 37.7548L43.5528 37.781L43.6747 37.8245L43.7879 37.8855L43.9011 37.9595L44.0056 38.0553L44.1058 38.1729L44.2016 38.3122L44.2887 38.4689L44.3627 38.6344L44.4149 38.7868L44.4454 38.9348L44.4585 39.0785L44.4541 39.2135L44.4323 39.3441L44.3932 39.4661L44.3453 39.588L44.2843 39.7012L44.2103 39.81L44.1275 39.9145L44.0361 40.0147L43.8358 40.2063L43.6225 40.3892L41.8329 41.7128L39.9954 42.8928L38.1056 43.9204L36.1593 44.7956L34.1651 45.5141L32.1099 46.0714L30.0024 46.4633L27.834 46.6897L27.2767 46.7333L26.7237 46.7899L25.609 46.9118L22.696 46.7072L19.8875 46.2369L18.5203 45.906L17.1792 45.5054L15.8642 45.0395L14.5754 44.5039L13.3126 43.903L12.076 43.2368L9.67684 41.7042L7.3778 39.9058L5.18762 37.8376Z" fill="#97D8E8"/>
<path d="M42.9645 20.7686L41.9151 19.0705L41.4188 18.3129L40.918 17.5988L40.3912 16.9108L39.812 16.2402L39.1633 15.574L38.423 14.8948L37.7351 14.3549L36.9687 13.8411L35.3185 12.8352L34.4955 12.3171L33.7118 11.7728L32.9977 11.1937L32.6798 10.8889L32.3881 10.5667L32.1529 10.2619L31.9396 9.95273L31.7567 9.63922L31.6043 9.32136L31.4824 8.99915L31.3866 8.67258L31.3213 8.35037L31.2864 8.01944L31.2777 7.69287L31.3039 7.36195L31.3561 7.03538L31.4388 6.70446L31.5521 6.37353L31.6957 6.04697L31.8743 5.7204L32.0789 5.39383L32.2139 5.2066L32.3532 5.02372L32.6493 4.67538L32.9672 4.34881L33.2981 4.03966L34.7785 2.79437L32.4142 2.62891L30.0803 2.64197L27.7813 2.83791L25.5127 3.20367L23.2747 3.74359L21.0671 4.44462L18.8943 5.31112L16.7433 6.33435L14.6925 7.52741L12.5415 9.02092L10.3948 10.7234L8.34399 12.5435L6.48473 14.3897L4.9085 16.1706L4.25536 17.0109L3.71108 17.7947L3.28437 18.5219L2.98828 19.175L4.83012 18.5654L6.6589 18.0298L8.48333 17.5639L10.2947 17.172L12.1017 16.8498L13.8956 16.6016L15.6809 16.4275L17.4574 16.3186L18.3021 17.5944L19.186 18.6655L20.1004 19.5495L21.0279 20.2636L21.9597 20.8252L22.8741 21.252L23.7667 21.5611L24.6201 21.7658L25.4213 21.8833L26.1615 21.9312L26.8234 21.9269L27.3894 21.8877L27.8553 21.8267L28.208 21.7614L28.4997 21.6917L26.9061 17.0196L29.1485 17.5204L31.3779 18.1518L33.5942 18.9137L35.7974 19.8107L37.9833 20.8383L40.156 22.0009L42.3157 23.2985L44.4624 24.731L44.1837 23.6947L43.8266 22.6323L43.6263 22.1185L43.413 21.6264L43.1909 21.1736L42.9645 20.7686Z" fill="#3953A4"/>
<path d="M57.4058 32.6265V22.5635H53.9902V20.0938H63.8328V22.5635H60.4173V32.6265H57.4058Z" fill="#3953A4"/>
<path d="M65.1094 22.8205H68.0383V24.3723H68.176C68.3584 23.7765 68.7627 23.2736 69.3053 22.9675C69.6706 22.7676 70.0828 22.6693 70.499 22.6829C70.7069 22.6829 70.8814 22.689 71.0223 22.7012C71.1436 22.7099 71.2636 22.7314 71.3803 22.7655V25.2536C71.234 25.2084 71.0832 25.1792 70.9305 25.1664C70.7231 25.1445 70.5147 25.1337 70.3062 25.1343C69.8767 25.1178 69.4501 25.211 69.0666 25.4051C68.752 25.5752 68.5008 25.8425 68.3505 26.1671C68.1908 26.5267 68.1124 26.917 68.121 27.3104V32.6264H65.1094V22.8205Z" fill="#3953A4"/>
<path d="M74.8013 32.2907C74.1098 31.954 73.5391 31.4122 73.167 30.7391C72.7782 30.0505 72.5839 29.1982 72.584 28.182V27.2456C72.584 26.2234 72.7875 25.371 73.1946 24.6885C73.5784 24.0276 74.1484 23.4943 74.8335 23.1552C75.5423 22.8101 76.3221 22.6356 77.1104 22.6456C77.9249 22.6282 78.7305 22.8177 79.4517 23.1964C80.1209 23.5596 80.6697 24.11 81.0309 24.7803C81.4104 25.4689 81.6002 26.2906 81.6002 27.2456V28.329H75.4302V28.7789C75.4302 29.3421 75.6001 29.7935 75.9398 30.1331C76.1087 30.3015 76.3103 30.4336 76.5321 30.5213C76.754 30.6089 76.9914 30.6502 77.2298 30.6427C77.5004 30.6467 77.7695 30.6016 78.024 30.5095C78.2419 30.4325 78.4385 30.3051 78.5979 30.1377C78.7396 29.9895 78.8298 29.7995 78.855 29.596H81.536C81.5083 29.9622 81.4134 30.3201 81.2559 30.6519C81.0707 31.0486 80.8103 31.4056 80.4892 31.7032C80.1076 32.0545 79.6597 32.3261 79.1717 32.502C77.739 32.9754 76.1816 32.9001 74.8013 32.2907ZM78.7998 26.6854V26.6212C78.8073 26.2822 78.7366 25.9461 78.5933 25.6388C78.465 25.368 78.2629 25.1388 78.0103 24.9777C77.7456 24.8148 77.4395 24.7319 77.1288 24.739C76.8213 24.7304 76.5178 24.8108 76.2548 24.9704C75.9918 25.13 75.7805 25.3621 75.646 25.6388C75.4967 25.9443 75.4227 26.2812 75.4302 26.6212V26.6854H78.7998Z" fill="#3953A4"/>
<path d="M83.7656 22.8198H86.6028V24.4817H86.7496C86.8407 24.1961 86.9788 23.9277 87.1582 23.6875C87.3839 23.3862 87.6761 23.1411 88.0121 22.9713C88.3823 22.7725 88.8583 22.673 89.4398 22.673C89.8802 22.6624 90.318 22.7437 90.7252 22.9116C91.0635 23.0546 91.3639 23.2742 91.6029 23.553C91.8419 23.8318 92.0129 24.1623 92.1025 24.5184H92.2218C92.3356 24.1981 92.5137 23.9044 92.7452 23.6554C93.0219 23.3553 93.358 23.1161 93.7322 22.953C94.1914 22.7559 94.6879 22.6604 95.1875 22.673C96.1729 22.673 96.9364 22.9591 97.4782 23.5314C98.0199 24.1039 98.2908 24.8675 98.2908 25.8222V32.6257H95.3711V26.7495C95.3862 26.4069 95.3201 26.0655 95.1782 25.7533C95.0656 25.5218 94.8824 25.3321 94.6549 25.2116C94.4273 25.0967 94.1753 25.0385 93.9204 25.0418C93.6557 25.039 93.3953 25.1088 93.1675 25.2437C92.9334 25.3866 92.7454 25.5938 92.6258 25.8406C92.4805 26.1536 92.4113 26.4965 92.4238 26.8413V32.6257H89.6327V26.777C89.6489 26.426 89.5796 26.0762 89.4306 25.7579C89.313 25.5242 89.1252 25.3332 88.8935 25.2116C88.6702 25.0985 88.4231 25.0403 88.1728 25.0418C87.9112 25.0383 87.6533 25.1032 87.4245 25.2301C87.1917 25.3656 87.0059 25.5689 86.8919 25.813C86.7492 26.13 86.6817 26.4756 86.6946 26.823V32.6257H83.7656V22.8198Z" fill="#3953A4"/>
<path d="M107.551 23.2111C108.235 23.5765 108.795 24.1354 109.162 24.8179C109.556 25.5692 109.751 26.4079 109.732 27.2555V28.1186C109.732 29.1163 109.542 29.9656 109.162 30.6664C108.8 31.3503 108.238 31.9075 107.551 32.264C106.856 32.6281 106.035 32.8102 105.086 32.8103C104.131 32.8103 103.305 32.6282 102.607 32.264C101.92 31.9102 101.357 31.3542 100.995 30.671C100.619 29.9733 100.431 29.1255 100.431 28.1278V27.274C100.412 26.4323 100.608 25.5998 101 24.8547C101.371 24.1686 101.932 23.6043 102.616 23.2294C103.314 22.8408 104.137 22.6465 105.086 22.6465C106.035 22.6465 106.856 22.8347 107.551 23.2111ZM104.108 25.1759C103.85 25.4223 103.661 25.7328 103.562 26.0757C103.443 26.4608 103.384 26.8618 103.387 27.2647V28.1738C103.386 28.5714 103.441 28.9672 103.553 29.349C103.647 29.6959 103.832 30.0113 104.09 30.2625C104.362 30.5073 104.72 30.6344 105.086 30.616C105.266 30.6254 105.447 30.599 105.617 30.5383C105.787 30.4776 105.944 30.3839 106.077 30.2625C106.331 30.0118 106.513 29.6981 106.605 29.3536C106.714 28.9699 106.768 28.5727 106.766 28.1738V27.2647C106.769 26.8591 106.712 26.4553 106.596 26.0666C106.501 25.7255 106.315 25.4163 106.059 25.1714C105.782 24.9506 105.437 24.8308 105.083 24.8316C104.728 24.8324 104.384 24.9538 104.108 25.1759Z" fill="#3953A4"/>
<path d="M111.973 22.8205H114.902V24.3723H115.039C115.222 23.7765 115.626 23.2736 116.169 22.9675C116.534 22.7676 116.946 22.6693 117.362 22.6829C117.57 22.6829 117.745 22.689 117.886 22.7012C118.007 22.7099 118.127 22.7314 118.244 22.7655V25.2536C118.097 25.2084 117.946 25.1792 117.794 25.1664C117.586 25.1445 117.378 25.1337 117.169 25.1343C116.74 25.1178 116.313 25.211 115.93 25.4051C115.615 25.5752 115.364 25.8425 115.214 26.1671C115.054 26.5267 114.976 26.917 114.984 27.3104V32.6264H111.973V22.8205Z" fill="#3953A4"/>
</svg>
