<svg width="160" height="46" viewBox="0 0 160 46" fill="none" xmlns="http://www.w3.org/2000/svg">
<g clip-path="url(#clip0_5435_1539)">
<path d="M0 11.6152H9.51895L15.0617 25.7958L20.6764 11.6152H29.9447L15.9887 45.1854H6.66175L10.482 36.2898L0 11.6152Z" fill="#5F01D1"/>
<path d="M39.5991 11.0508C32.4471 11.0508 27.9258 17.465 27.9258 23.8526C27.9258 31.0405 32.8828 36.7392 39.4634 36.7392C44.3723 36.7392 46.2232 33.7484 46.2232 33.7484V36.0782H54.5256V11.6154H46.2232V13.8393C46.2232 13.8393 44.1582 11.0508 39.5991 11.0508ZM41.3651 18.9122C44.6651 18.9122 46.368 21.5234 46.368 23.8795C46.368 26.4166 44.5436 28.9064 41.3651 28.9064C38.7308 28.9064 36.3502 26.7536 36.3502 23.9875C36.3502 21.1822 38.265 18.9122 41.3651 18.9122Z" fill="#5F01D1"/>
<path d="M57.3848 36.079V0.814453H66.0685V13.9249C66.0685 13.9249 68.1311 11.0547 72.451 11.0547C77.735 11.0547 80.8309 14.9918 80.8309 20.6177V36.079H72.2107V22.7356C72.2107 20.8317 71.3038 18.9925 69.2495 18.9925C67.1583 18.9925 66.0685 20.8596 66.0685 22.7356V36.079H57.3848Z" fill="#5F01D1"/>
<path d="M95.6377 11.0547C87.4473 11.0547 82.5703 17.2827 82.5703 23.9554C82.5703 31.549 88.4752 36.7403 95.6687 36.7403C102.641 36.7403 108.742 31.7846 108.742 24.0828C108.742 15.6556 102.354 11.0547 95.6377 11.0547ZM95.7159 18.9852C98.6091 18.9852 100.611 21.3948 100.611 23.9645C100.611 26.1562 98.7456 28.8595 95.7159 28.8595C92.9399 28.8595 90.8566 26.6326 90.8566 23.9405C90.8566 21.3471 92.5886 18.9852 95.7159 18.9852Z" fill="#5F01D1"/>
<path d="M123.208 11.0547C115.018 11.0547 110.141 17.2827 110.141 23.9554C110.141 31.549 116.046 36.7403 123.239 36.7403C130.211 36.7403 136.312 31.7846 136.312 24.0828C136.312 15.6556 129.924 11.0547 123.208 11.0547ZM123.286 18.9852C126.179 18.9852 128.181 21.3948 128.181 23.9645C128.181 26.1562 126.316 28.8595 123.286 28.8595C120.51 28.8595 118.427 26.6326 118.427 23.9405C118.427 21.3471 120.159 18.9852 123.286 18.9852Z" fill="#5F01D1"/>
<path d="M143.165 36.5991C146.349 36.5991 148.931 34.0174 148.931 30.8327C148.931 27.6481 146.349 25.0664 143.165 25.0664C139.98 25.0664 137.398 27.6481 137.398 30.8327C137.398 34.0174 139.98 36.5991 143.165 36.5991Z" fill="#5F01D1"/>
<path d="M150.826 22.9474H140.445L149.659 0.814453H160.001L150.826 22.9474Z" fill="#5F01D1"/>
</g>
<defs>
<clipPath id="clip0_5435_1539">
<rect width="160" height="44.3719" fill="white" transform="translate(0 0.814453)"/>
</clipPath>
</defs>
</svg>
