<svg width="223" height="166" fill="none" xmlns="http://www.w3.org/2000/svg"><path d="M111.257 146.349a14.98 14.98 0 017.661-6.967 16.724 16.724 0 015.432-10.63 16.649 16.649 0 0111.124-4.279h.934l.748.075h.149l.598.075c.112 0 .15 0 .262.075l.635.075.262.075.448.075.299.112c.304.071.603.158.897.263l.262.074.785.3.037.075.448.187.113.038 1.345.712c.598-1.798 1.121-3.709 1.644-5.619a21.122 21.122 0 00-21.739-4.371 21.145 21.145 0 00-9.313 6.799 21.219 21.219 0 00-4.376 10.682 18.813 18.813 0 00-9.717 8.953c-.71-.113-1.383-.113-2.093-.113-.897 0-1.757.038-2.616.188 1.57 2.21 3.214 4.307 5.008 6.293a14.851 14.851 0 0110.763-3.147zm86.404-18.429a11.56 11.56 0 00-6.577 2.06 18.922 18.922 0 00-10.95-3.559c-.411 0-.748 0-1.121.075a18.903 18.903 0 00-9.56-10.623 18.83 18.83 0 00-14.246-.876c.56 2.809 1.196 5.618 2.055 8.615l.486-.075h.037l.449-.037h1.121c6.428 0 11.884 4.083 13.94 9.814l.897-.038c3.251 0 6.166 1.049 8.595 2.81a9.097 9.097 0 019.287-.663 9.129 9.129 0 013.589 3.236 9.152 9.152 0 011.438 4.619c2.803.374 5.344 1.573 7.4 3.296a82.635 82.635 0 005.082-7.342l-.374-.075a11.55 11.55 0 00-3.488-7.978 11.496 11.496 0 00-8.06-3.259z" fill="#C5DFEC"/><path d="M122.32 165.79h57.926c9.53-4.495 17.864-11.125 24.292-19.328a15.079 15.079 0 00-7.362-3.297 9.158 9.158 0 00-1.438-4.619 9.12 9.12 0 00-8.323-4.181 9.098 9.098 0 00-4.552 1.608 14.474 14.474 0 00-8.521-2.734l-.897.037a14.832 14.832 0 00-5.412-7.141 14.78 14.78 0 00-8.528-2.71h-1.121c-.15 0-.299 0-.449.075h-.037l-.486.037c-.673-2.247-1.196-4.495-1.644-6.705-3.214.113-5.681.15-8.671-.524-.299 1.573-1.196 3.184-1.607 4.794a95.765 95.765 0 01-1.644 5.582l-1.345-.712-.113-.037-.448-.188-.037-.075-.86-.299-.224-.075a.721.721 0 00-.374-.113l-.523-.15c-.112-.037-.224-.037-.299-.112l-.449-.075-.261-.075-.636-.075c-.112 0-.149 0-.261-.075l-.598-.074h-.15c-.261-.075-.485-.075-.747-.075h-.934c-8.596 0-15.659 6.517-16.556 14.908a15 15 0 00-7.662 6.967l-1.644-.075c-3.513 0-6.69 1.199-9.231 3.184 6.017 6.78 13.454 12.361 21.826 16.332z" fill="#fff"/><path d="M196.802 140.468a9.232 9.232 0 00-2.26-3.472 9.182 9.182 0 00-11.53-.985 14.847 14.847 0 00-8.671-2.772l-.897.037a14.975 14.975 0 00-5.453-7.157 14.92 14.92 0 00-8.561-2.732h-1.121l-.449.038h-.075l-.485.075c-.897-2.96-1.495-5.844-2.093-8.653-3.027-14.197.149-24.348-.112-28.768-1.383 0-6.167-.112-7.512-.375-.374 5.919 3.251 21.052-2.205 35.211-.673 1.873-1.047 3.821-1.645 5.619l-1.345-.712-.075-.037-.448-.188s-.075 0-.075-.075l-.785-.299-.261-.075a8.22 8.22 0 01-.897-.262l-.299-.113-.449-.075-.224-.075-.673-.075c-.074 0-.149 0-.224-.074l-.598-.075h-.149c-.262-.075-.524-.075-.748-.075h-1.009c-8.595 0-15.734 6.555-16.63 14.946-.711.299-1.421.636-2.056 1.048h80.014v.15z" fill="#fff"/><path d="M156.291 10.488h-9.53a41.246 41.246 0 013.924-2.51l.822-.524.972.562c1.308.75 2.616 1.61 3.812 2.472z" fill="#979797"/><path d="M132.896 115.484l-.374-.075h.374v.075z" fill="#AEC6D0"/><path d="M154.609 92.072l.299-2.734-7.25-.225c-.075-1.311-.112-2.472-.075-3.371.822.15 2.99.225 4.784.3l2.728.037c.075 1.423-.187 3.446-.486 5.993z" fill="#E7E7E6"/><path d="M165.932 21.913c-.672 3.82-5.979 6.892-12.706 7.304l-1.757.038c-7.511 0-13.753-3.259-14.425-7.454-7.25 13.148-6.877 31.727 1.084 55.85l1.382 4.12a16.423 16.423 0 009.717 3.821c.71.037 1.458.112 2.205.112 2.242 0 4.335-.3 6.166-.861a13.373 13.373 0 005.756-3.11l1.383-4.082a108.145 108.145 0 006.278-33.338c.037-8.765-1.756-16.22-5.12-22.475" fill="#828484"/><path d="M160.85 14.87c-2.616-2.808-5.681-5.243-9.268-7.303l-.113-.038c-3.625 2.098-6.727 4.533-9.343 7.38a34.856 34.856 0 00-5.12 7.004c.71 4.12 6.877 7.417 14.463 7.417l1.757-.038c6.727-.45 12.034-3.558 12.632-7.341a33.901 33.901 0 00-5.008-7.118v.038zm-11.81 72.67l-.075.487.075-.487zm8.671-2.697a21.744 21.744 0 01-11.96.075 20.303 20.303 0 01-3.214-1.124 9.354 9.354 0 01-2.915-2.06l.935 2.622c.149 1.273 1.009 2.472 2.354 3.409a12.767 12.767 0 002.99 1.498c1.828.623 3.75.927 5.681.899 5.755 0 10.538-2.585 10.95-5.881.373-.9.635-1.76.934-2.622-1.383 1.423-3.364 2.51-5.755 3.184z" fill="#F14625"/><path d="M165.933 21.913c-.673 3.82-5.98 6.892-12.707 7.304l-1.756.038v56.374c2.242 0 4.335-.3 6.204-.824a13.363 13.363 0 005.717-3.109l1.383-4.12a108.117 108.117 0 006.279-33.338c0-8.69-1.794-16.107-5.158-22.362" fill="#707274"/><path d="M160.85 14.87c-2.616-2.808-5.68-5.243-9.268-7.303l-.112-.038v21.763l1.756-.037c6.727-.45 12.034-3.559 12.632-7.342-1.383-2.547-3.027-4.907-5.008-7.042zm-3.139 69.973c-1.869.524-3.962.824-6.204.824v4.607c5.793 0 10.576-2.622 10.988-5.918l.934-2.585c-1.346 1.349-3.364 2.435-5.718 3.11" fill="#C43D21"/><path d="M175.724 88.738c-.037.825-.187 1.649-.336 2.398l-4.933 18.429-.785-5.431-3.513-9.964-1.084-3.147-1.308-3.67-.635-1.798.374-1.499 3.998-17.23-.523-2.922 1.383-.675 4.298 9.515a37.9 37.9 0 011.831 4.944l.785 3.072c.299 1.386.523 2.772.598 4.083-.038 1.348-.038 2.622-.15 3.858" fill="#4D4E4F"/><path d="M166.867 64.016l-5.232 22.325 8.782 23.262 3.513-17.793c1.159-5.094.112-11.762-2.84-18.317l-4.223-9.477z" fill="#828484"/><path d="M127.253 88.738c.037.825.186 1.649.373 2.398l4.896 18.429.822-5.394 3.476-9.964 1.121-3.146 1.271-3.671.635-1.798-.336-1.498-4.037-17.231.561-2.922-1.42-.674-4.261 9.514c-.747 1.648-1.345 3.297-1.868 4.945l-.785 3.071a32.61 32.61 0 00-.598 4.083c.037 1.349.037 2.622.15 3.858z" fill="#4D4E4F"/><path d="M136.109 64.016l5.233 22.325-8.746 23.262-3.55-17.793c-1.121-5.094-.112-11.762 2.84-18.317l4.223-9.477z" fill="#707274"/><path d="M151.507 33.975a7.765 7.765 0 00-5.435 2.295 7.795 7.795 0 00-2.263 5.458c0 4.233 3.475 7.754 7.698 7.754a7.73 7.73 0 005.12-2.446 7.764 7.764 0 000-10.578 7.73 7.73 0 00-5.12-2.446" fill="#C5DFEC"/><path d="M145.191 42.553c-.374 0-.635-.263-.635-.825 0-3.858 3.139-7.004 6.951-7.004 3.289 0-4.036 7.829-6.316 7.829z" fill="#D1E6F0"/><path d="M151.507 33.975a7.765 7.765 0 00-5.435 2.295 7.8 7.8 0 00-2.264 5.458c0 4.233 3.476 7.754 7.699 7.754a7.73 7.73 0 005.12-2.446 7.764 7.764 0 000-10.578 7.73 7.73 0 00-5.12-2.446v-.037zm0 18.654c-2.884 0-5.65-1.149-7.69-3.193a10.915 10.915 0 010-15.415 10.864 10.864 0 017.69-3.193c2.884 0 5.651 1.149 7.69 3.193a10.91 10.91 0 013.185 7.707 10.91 10.91 0 01-3.185 7.708 10.862 10.862 0 01-7.69 3.193z" fill="#F14625"/><path d="M161.747 38.095c.075.674.187 1.386.187 2.098a12.008 12.008 0 01-4.294 9.16 11.948 11.948 0 01-9.758 2.602c1.121.412 2.354.674 3.625.674a10.857 10.857 0 008.87-4.613 10.923 10.923 0 001.37-9.921z" fill="#C43D21"/><path d="M151.507 33.038a.652.652 0 00.654-.655.655.655 0 10-.654.655z" fill="#373E4E"/><path d="M150.984 32.476c-.037 0-.075 0-.075-.075 0-.374.262-.599.598-.599.262 0-.336.674-.523.674z" fill="#5C6273"/><path d="M151.507 51.617a.652.652 0 00.654-.655.655.655 0 10-.654.655z" fill="#373E4E"/><path d="M150.984 51.056c-.037 0-.075 0-.075-.075 0-.375.262-.6.598-.6.262 0-.336.675-.523.675z" fill="#5C6273"/><path d="M142.239 42.365a.634.634 0 00.635-.637.638.638 0 00-.635-.636.633.633 0 00-.635.636.634.634 0 00.635.637z" fill="#373E4E"/><path d="M141.715 41.803c-.037 0-.074 0-.074-.075 0-.374.261-.599.598-.599.261 0-.337.674-.524.674z" fill="#5C6273"/><path d="M160.887 42.365a.637.637 0 100-1.273.637.637 0 000 1.273z" fill="#373E4E"/><path d="M83.19 165.79h32.29a15.765 15.765 0 01-4.383-5.404 15.801 15.801 0 01-1.634-6.77c0-3.521 1.233-6.743 3.364-9.44-3.513-.899-7.475-1.423-11.623-1.423-14.314 0-25.936 5.993-25.936 13.41 0 3.783 3.064 7.192 7.922 9.627zm122.096-8.203a9.58 9.58 0 006.791-2.82 9.631 9.631 0 002.813-6.807 9.64 9.64 0 00-2.813-6.807 9.61 9.61 0 00-6.791-2.82 9.59 9.59 0 00-6.792 2.82 9.638 9.638 0 00-2.813 6.807 9.638 9.638 0 002.813 6.807 9.595 9.595 0 006.792 2.82z" fill="#C5DFEC"/><path d="M131.326 165.79a7.005 7.005 0 00.598-2.884c0-7.417-11.586-13.41-25.899-13.41-14.314 0-25.899 5.993-25.899 13.41 0 .974.187 1.947.598 2.884h50.602zm77.958 0c1.719-2.248 2.728-4.795 2.728-7.492 0-9.289-11.585-16.856-25.898-16.856-14.314 0-25.937 7.567-25.937 16.856 0 2.697 1.009 5.244 2.766 7.492h46.341z" fill="#fff"/><path d="M185.964 165.79c1.046-1.761 1.644-3.708 1.644-5.694 0-8.727-10.912-15.845-24.441-15.845-13.492 0-24.404 7.118-24.404 15.845.03 2.011.597 3.978 1.644 5.694h45.557zm-89.955 0c-.56-5.057-9.007-9.102-19.396-9.102-10.352 0-18.836 4.045-19.36 9.102H96.01z" fill="#fff"/><path d="M82.593 165.79a39.513 39.513 0 00-12.184-1.386c-5.606 0-10.39.524-12.22 1.386h24.404zm137.903 0c.598-.899.897-1.873.897-2.884 0-5.319-8.67-9.665-19.396-9.665s-19.396 4.308-19.396 9.665c0 .974.299 1.985.897 2.884h36.998z" fill="#fff"/><path d="M219.338 165.79a39.51 39.51 0 00-12.221-1.386c-5.569 0-10.352.524-12.183 1.386h24.404z" fill="#fff"/><mask id="a" maskUnits="userSpaceOnUse" x="143" y="57" width="17" height="19"><path fill-rule="evenodd" clip-rule="evenodd" d="M152.731 58.16l5.309 3.093c.679.395 1.233 1.365 1.233 2.155v6.19c0 .787-.554 1.757-1.233 2.152l-5.309 3.09c-.676.395-1.786.395-2.462 0l-5.309-3.093c-.679-.395-1.233-1.362-1.233-2.152v-6.19c0-.787.557-1.757 1.233-2.152l5.309-3.093c.676-.395 1.786-.395 2.462 0zm3.951 6.654h-6.592c-.406 0-.711.115-.952.359-.526.535-.804 1.572-.846 2.15h6.491v-1.554h1.853v3.322h-10.318s.038-3.674 1.474-5.13c.594-.607 1.376-.916 2.316-.916h6.574v1.77z" fill="#fff"/></mask><g mask="url(#a)"><path fill="#D0D0CE" d="M142 57h19v18.136h-19z"/></g></svg>