<svg width="266" height="40" fill="none" xmlns="http://www.w3.org/2000/svg"><path d="M36.602 27.168c0 1.83-1.304 4.072-2.901 4.982l-12.503 7.168c-1.598.91-4.206.91-5.803 0L2.892 32.15C1.304 31.24 0 28.997 0 27.168V12.832c0-1.83 1.304-4.072 2.901-4.982L15.395.683c1.597-.91 4.205-.91 5.803 0L33.7 7.85c1.597.91 2.9 3.153 2.9 4.982v14.336z" fill="#F15A2B"/><path d="M14.743 16.679h16.566v-4.625H14.79c-2.362 0-4.328.806-5.82 2.392-3.61 3.809-3.705 13.416-3.705 13.416h25.932v-8.688h-4.66v4.063h-16.31c.103-1.51.802-4.222 2.126-5.62.604-.638 1.37-.938 2.39-.938zM60.02 19.259h-8.382v2.116h6v1.643c-1.048 1.644-3.103 2.302-5.63 2.302-4.13 0-6.657-1.85-6.657-5.466s2.486-5.465 6.534-5.465c2.404 0 4.088.699 5.362 2.137l2.014-1.438c-1.439-1.541-3.863-2.856-7.397-2.856-5.63 0-9.02 2.876-9.02 7.622 0 4.747 3.39 7.623 9.061 7.623 3.945 0 6.8-1.541 8.116-3.657v-4.561zM80.099 27.046l-4.664-5.343c2.507-.451 4.233-1.972 4.233-4.458 0-2.98-2.466-4.582-5.815-4.582h-9.78v14.383h2.466v-5.22h6.06l4.46 5.22h3.04zM66.518 19.71v-4.89h7.17c2.055 0 3.452.657 3.452 2.444 0 1.788-1.397 2.445-3.451 2.445h-7.171zM97.314 27.046h2.692l-7.767-14.383h-2.712L81.74 27.046h2.671l1.829-3.473h9.225l1.85 3.473zm-9.965-5.569l3.514-6.657 3.513 6.657h-7.027zM99.394 12.663l7.458 14.383h2.63l7.458-14.383h-2.691l-6.061 11.855-6.062-11.855h-2.732zM122.489 27.046V12.663h-2.465v14.383h2.465zM141.311 12.663h-15.533v2.157h6.513v12.226h2.465V14.82h6.555v-2.157zM142.665 12.663l7.088 9.41v4.973h2.466v-4.973l7.067-9.41h-2.835l-5.445 7.294-5.486-7.294h-2.855zM182.641 14.841v-2.178h-14.074v14.383h2.466v-5.774h9.821v-2.198h-9.821V14.84h11.608zM193.73 27.477c5.527 0 8.938-2.877 8.938-7.623s-3.411-7.622-8.938-7.622c-5.527 0-8.937 2.876-8.937 7.622 0 4.747 3.41 7.623 8.937 7.623zm0-2.178c-3.924 0-6.431-1.952-6.431-5.445 0-3.492 2.528-5.444 6.431-5.444 3.904 0 6.411 1.951 6.411 5.444s-2.507 5.445-6.411 5.445zM222.77 27.046l-4.664-5.343c2.506-.451 4.232-1.972 4.232-4.458 0-2.98-2.465-4.582-5.814-4.582h-9.78v14.383h2.465v-5.22h6.061l4.459 5.22h3.041zm-13.581-7.335v-4.89h7.17c2.055 0 3.452.657 3.452 2.444 0 1.788-1.397 2.445-3.452 2.445h-7.17zM242.55 12.663l-6.677 8.24-6.678-8.24h-2.671v14.383h2.384V16.011l6.842 8.3h.143l6.842-8.3v11.034h2.466V12.663h-2.651zM257.449 18.54c-3.144-.247-5.548-.514-5.548-2.035 0-1.602 2.712-2.157 4.993-2.136 2.383.02 4.417.636 5.897 1.93l1.561-1.684c-1.726-1.459-4.376-2.383-7.499-2.383-4.13 0-7.438 1.582-7.438 4.438 0 2.938 3.74 3.821 7.705 4.15 3.616.308 5.424.699 5.424 2.178 0 1.5-1.767 2.342-4.972 2.342-2.897 0-5.198-.78-7.15-2.527l-1.541 1.746c2.24 1.932 5.219 2.918 8.588 2.918 4.89 0 7.582-1.952 7.582-4.685 0-3-3.123-3.903-7.602-4.253z" fill="#fff"/></svg>