<svg xmlns="http://www.w3.org/2000/svg" width="512" height="512" viewbox="0 0 512 512">
 <g>
  <rect id="svg_1" width="512" rx="15%" height="512"/>
  <g stroke="null" id="svg_2">
   <path stroke="null" id="svg_3" d="m112.19075,327.609558l-54.519749,0l0,127.057007l127.057011,0l0,-54.414276l-72.537262,0l0,-72.642731z" fill="#FFF"/>
   <path stroke="null" id="svg_4" d="m384.337433,328.016602l0,72.235687l-72.235779,0l-0.301544,-0.407074l0,54.82135l126.951508,0l0,-127.057007l-54.82135,0l0.407166,0.407043z" fill="#FFF"/>
   <path stroke="null" id="svg_5" d="m57.671001,200.642944l54.926846,0l-0.407097,-0.407089l0,-72.235703l72.130173,0l0.407089,0.407089l0,-54.821365l-127.057011,0l0,127.057068z" fill="#FFF"/>
   <g stroke="null" id="svg_6" fill="#FFF" opacity="0.6">
    <path stroke="null" id="svg_7" d="m232.417725,128.000153l37.256287,0l56.163177,-54.414276l-141.109177,0l0,54.821365"/>
    <path stroke="null" id="svg_8" d="m264.004852,400.252289l-24.862564,0l-54.414276,0l0,54.414276l127.072098,0l0,-54.82135"/>
    <path stroke="null" id="svg_9" d="m383.930267,327.609558l54.82135,0l0,-155.04068l-54.414185,56.163208l0,26.325073l0,24.86261"/>
    <path stroke="null" id="svg_10" d="m112.597847,200.642944l-54.926846,0l0,126.966614l54.519749,0l0,-79.276901"/>
   </g>
   <g stroke="null" id="svg_11" fill="#FFF">
    <path stroke="null" id="svg_12" d="m150.309402,357.421234c1.21962,-3.879547 1.801163,-7.902313 2.62587,-11.868134q8.718338,-41.920654 17.366272,-83.855988c0.517761,-2.501831 1.045456,-5.001617 1.596512,-7.636246c0.233292,0.245941 0.381165,0.340332 0.44133,0.474228a22.587265,22.587265 0 0 0 18.646957,12.947327a28.667822,28.667822 0 0 0 4.766266,0.384949c1.286575,-0.007874 1.519226,0.387787 1.398544,1.63501a41.005035,41.005035 0 0 0 3.094238,20.670013a33.577316,33.577316 0 0 0 24.058777,19.304138a64.830452,64.830452 0 0 0 14.879578,1.845062c0.810684,0.018402 1.390274,-0.012939 1.433517,1.18103a20.126488,20.126488 0 0 0 16.332138,20.09024c0.359314,0.09726 0.78595,0.022675 1.149231,0.575043c-3.976242,0.931519 -7.883209,1.849701 -11.79158,2.761902q-47.393326,11.061981 -94.787399,22.120758c-0.314209,0.073486 -0.670532,0.037598 -0.879761,0.361877c-0.709122,-0.130432 -0.169159,-0.678345 -0.33049,-0.991211z"/>
    <path stroke="null" id="svg_13" d="m235.04332,295.209625a23.74777,23.74777 0 0 1 -21.996338,-14.465424a23.199253,23.199253 0 0 1 4.834076,-25.397964c9.058472,-9.171738 18.211807,-18.25 27.327164,-27.365479q64.976196,-64.978043 129.925598,-129.982025c1.161011,-1.16349 1.70697,-1.189888 2.878326,-0.005867q15.227386,15.389793 30.608887,30.627403c0.94339,0.936768 1.047119,1.395737 0.042694,2.398987q-78.573669,78.489212 -157.084152,157.042328a23.587801,23.587801 0 0 1 -16.536255,7.148041z"/>
    <path stroke="null" id="svg_14" d="m474.283417,106.635506a32.31971,32.31971 0 0 1 -9.132446,21.638481c-5.465729,5.744476 -11.199341,11.23262 -16.752533,16.894806c-1.109833,1.131668 -1.486328,0.096451 -2.022308,-0.438904q-26.303955,-26.273712 -52.585205,-52.568649q-15.891571,-15.890533 -31.799408,-31.762486c-0.87735,-0.872513 -1.023315,-1.347591 -0.050781,-2.29821c5.198761,-5.081848 10.28891,-10.274502 15.469391,-15.374702a33.88203,33.88203 0 0 1 48.589722,0.078999q19.107849,18.980732 38.091278,38.086784a34.610722,34.610722 0 0 1 10.192291,25.743881z"/>
    <path stroke="null" id="svg_15" d="m197.66333,251.049179a11.679537,11.679537 0 0 1 -10.206604,-7.38356a12.132613,12.132613 0 0 1 2.123367,-13.686478c0.286484,-0.334106 0.597931,-0.6474 0.909439,-0.958786q78.706146,-78.694717 157.415192,-157.386383c0.272461,-0.272453 0.583496,-0.510681 0.830353,-0.80378c0.748871,-0.888794 1.326019,-0.738792 2.12088,0.067116q7.834381,7.937157 15.774292,15.769691c0.717682,0.708649 0.799072,1.203979 0.069305,1.873863c-0.445374,0.40905 -0.838287,0.874466 -1.266479,1.302666q-78.348541,78.351234 -156.686768,156.712425a14.174545,14.174545 0 0 1 -11.082977,4.493225z"/>
    <path stroke="null" id="svg_16" d="m255.017853,307.091309a12.28007,12.28007 0 0 1 3.338562,-8.555511c0.444672,-0.488464 0.914612,-0.954529 1.381866,-1.421906q78.1745,-78.188385 156.350403,-156.375183c2.302765,-2.30304 2.30368,-2.303329 4.55835,-0.049469c4.831268,4.82959 9.638824,9.683334 14.51413,14.467941c0.878021,0.862045 0.982697,1.45813 0.046692,2.242645c-0.377991,0.31662 -0.696381,0.704575 -1.046936,1.05542q-78.415833,78.417435 -156.821014,156.844528a12.672233,12.672233 0 0 1 -14.434448,3.506958a12.331936,12.331936 0 0 1 -7.887604,-11.715424z"/>
   </g>
  </g>
 </g>
</svg>