<svg height="500" width="500" xmlns="http://www.w3.org/2000/svg" viewBox="0 0 50 50" fill="currentColor"><path d="M45 1H5C2.8 1 1 2.8 1 5v40c0 2.2 1.8 4 4 4h40c2.2 0 4-1.8 4-4V5c0-2.2-1.8-4-4-4z" fill="currentColor"/><circle cx="15.5" cy="34.5" fill="#FFF" class="inner-color"  r="3.5"/><path d="M12 12v4.3c12 0 21.7 9.7 21.7 21.7H38c0-14.4-11.6-26-26-26z" class="inner-color" fill="#FFF"/><path d="M12 20.7V25c7.2 0 13 5.8 13 13h4.3c0-9.6-7.7-17.3-17.3-17.3z" class="inner-color" fill="#FFF"/></svg>