<svg xmlns="http://www.w3.org/2000/svg" width="512" height="512" viewbox="0 0 512 512">
  <rect id="svg_1" fill="currentColor" rx="15%" height="512" width="512"/><title>Website</title>
<g fill="#ffffff" class="inner-color">
   <path fill="#ffffff" d="m166.331024,204.512833c6.621994,-6.621994 13.968033,-12.082504 21.781723,-16.396591c43.548355,-23.9991 99.390366,-11.237778 127.386856,31.209381l-33.879333,33.864212c-9.714325,-22.158783 -33.834061,-34.769287 -57.83316,-29.399231c-9.035538,2.021271 -17.618439,6.531479 -24.632629,13.54567l-64.922791,64.952942c-19.715202,19.715149 -19.715202,51.784393 0,71.499542c19.715149,19.715149 51.784348,19.715149 71.499496,0l20.016846,-20.016907c18.206741,7.225433 37.725784,10.106506 57.003555,8.673462l-44.181885,44.181915c-37.876663,37.876587 -99.28479,37.876587 -137.161453,0s-37.87661,-99.28479 0,-137.161407l64.922775,-64.952988zm103.116241,-103.116165l-44.1819,44.181885c19.262573,-1.44809 38.796768,1.448105 57.003494,8.658401l20.001709,-20.00177c19.715149,-19.715202 51.784363,-19.715202 71.499603,0c19.715149,19.715164 19.715149,51.784332 0,71.499496l-64.937836,64.937866c-19.775574,19.775513 -51.890015,19.609558 -71.499557,0c-4.570557,-4.570496 -8.507523,-10.257355 -10.966293,-15.853577l-33.879288,33.864197c3.559891,5.400146 7.255524,10.061218 12.007111,14.812744c12.248398,12.248505 27.845551,21.374512 45.795837,25.703674c23.260025,5.596313 48.179214,2.503998 69.583908,-9.307007c7.813629,-4.314117 15.159668,-9.774597 21.781586,-16.396667l64.922791,-64.937851c37.891754,-37.876602 37.891754,-99.284729 0.015076,-137.161392c-37.876648,-37.861538 -99.269714,-37.861538 -137.14624,0z"/></g></svg>