<svg height="35.95" viewBox="0 0 214.83 35.95" width="214.83" xmlns="http://www.w3.org/2000/svg" xmlns:xlink="http://www.w3.org/1999/xlink"><clipPath id="a"><path d="m11.31 0h13.32v13.32h-13.32z"/></clipPath><clipPath id="b"><path d="m11.31 22.63h13.32v13.32h-13.32z"/></clipPath><clipPath id="c"><path d="m22.63 11.32h13.32v13.31h-13.32z"/></clipPath><clipPath id="d"><path d="m0 11.32h13.31v13.31h-13.31z"/></clipPath><g fill="#fff"><path d="m51.79 15.82c1.73 0 3.14-.68 4.24-2.05l2.25 2.32c-1.79 2.01-3.9 3.02-6.32 3.02s-4.42-.77-5.99-2.3-2.35-3.47-2.35-5.8.8-4.28 2.4-5.85 3.56-2.34 5.87-2.34c2.58 0 4.75.98 6.49 2.95l-2.19 2.48c-1.11-1.38-2.49-2.07-4.15-2.07-1.32 0-2.45.43-3.39 1.29-.94.87-1.41 2.03-1.41 3.49s.44 2.64 1.33 3.53 1.96 1.33 3.22 1.33m9.27 3.11v-15.75h3.51v12.62h6.72v3.13zm24.42-7.97c0-1.4-.45-2.6-1.35-3.59s-2.01-1.49-3.32-1.49c-1.32 0-2.42.5-3.32 1.49s-1.35 2.19-1.35 3.59c0 1.41.45 2.6 1.35 3.58s2.01 1.48 3.32 1.48 2.42-.49 3.32-1.48c.9-.98 1.35-2.17 1.35-3.58m1.2 5.8c-1.59 1.56-3.55 2.33-5.88 2.33s-4.29-.78-5.88-2.33-2.39-3.49-2.39-5.8.8-4.25 2.39-5.8c1.59-1.56 3.55-2.33 5.88-2.33s4.29.78 5.88 2.33 2.39 3.49 2.39 5.8c-.01 2.31-.8 4.24-2.39 5.8m9.53-1.9c.58.73 1.37 1.09 2.37 1.09.99 0 1.78-.36 2.36-1.09s.87-1.72.87-2.99v-8.7h3.52v8.81c0 2.28-.63 4.04-1.89 5.26-1.26 1.23-2.88 1.84-4.84 1.84s-3.59-.62-4.86-1.85-1.9-2.98-1.9-5.25v-8.8h3.51v8.7c-.02 1.26.27 2.25.86 2.98m22.2-.26c.86-.81 1.29-1.99 1.29-3.54s-.43-2.74-1.29-3.57-2.19-1.25-3.98-1.25h-1.96v9.58h2.23c1.61 0 2.85-.4 3.71-1.22m2.58-9.36c1.5 1.37 2.25 3.29 2.25 5.73s-.73 4.39-2.2 5.81c-1.46 1.43-3.7 2.14-6.7 2.14h-5.39v-15.74h5.57c2.81 0 4.97.69 6.47 2.06m22.26-2.06h3.52v15.75h-3.52l-7.5-9.87v9.87h-3.51v-15.75h3.29l7.72 10.14zm13.86 4.69-1.98 4.57h3.94zm4.76 11.06-1.46-3.4h-6.6l-1.46 3.4h-3.74l6.8-15.75h3.4l6.8 15.75zm11.08-12.71v12.71h-3.51v-12.71h-4.46v-3.04h12.43v3.04zm7.03-3.04h3.52v15.75h-3.52zm13.21 10.03 4.01-10.03h3.81l-6.34 15.75h-2.97l-6.33-15.75h3.81zm21.04-10.03v3.13h-7.84v3.25h7.05v2.99h-7.05v3.27h8.09v3.11h-11.6v-15.75zm-166.47 29.16c.97 0 1.76-.38 2.38-1.15l1.26 1.3c-1 1.13-2.18 1.69-3.54 1.69s-2.48-.43-3.36-1.29-1.32-1.94-1.32-3.25.45-2.4 1.34-3.28c.9-.88 1.99-1.31 3.29-1.31 1.45 0 2.66.55 3.64 1.65l-1.23 1.39c-.62-.78-1.4-1.16-2.32-1.16-.74 0-1.38.24-1.9.73-.53.49-.79 1.14-.79 1.96s.25 1.48.75 1.98 1.1.74 1.8.74m11.76-2.72c0-.79-.25-1.46-.76-2.01-.51-.56-1.13-.83-1.86-.83s-1.36.28-1.86.83c-.51.55-.76 1.23-.76 2.01 0 .79.25 1.46.76 2.01.5.55 1.13.83 1.86.83s1.36-.28 1.86-.83c.51-.55.76-1.22.76-2.01m.67 3.25c-.89.87-1.99 1.31-3.3 1.31s-2.41-.44-3.3-1.31-1.34-1.96-1.34-3.25.45-2.38 1.34-3.25 1.99-1.31 3.3-1.31c1.3 0 2.4.44 3.3 1.31.89.87 1.34 1.96 1.34 3.25s-.44 2.38-1.34 3.25m10.92-4.34-2.39 4.82h-1.18l-2.37-4.82v5.56h-1.97v-8.83h2.66l2.28 4.85 2.28-4.85h2.66v8.83h-1.97zm8.77.99c.24-.27.35-.65.35-1.16s-.15-.87-.46-1.09-.79-.32-1.43-.32h-1.12v2.97h1.33c.65 0 1.1-.13 1.33-.4m1.45-3.47c.62.53.93 1.33.93 2.42s-.32 1.89-.95 2.39c-.64.5-1.61.76-2.91.76h-1.17v2.46h-1.97v-8.83h3.12c1.34.01 2.33.27 2.95.8m4.81 5.76c.33.41.77.61 1.33.61s1-.2 1.32-.61.49-.97.49-1.67v-4.88h1.97v4.94c0 1.28-.35 2.26-1.06 2.95s-1.61 1.03-2.72 1.03c-1.1 0-2.01-.35-2.72-1.04s-1.07-1.67-1.07-2.94v-4.94h1.97v4.88c-.01.7.16 1.26.49 1.67m10.88-4.85v7.13h-1.97v-7.13h-2.5v-1.7h6.98v1.7zm3.94-1.7h1.97v8.83h-1.97zm10.32 0h1.97v8.83h-1.97l-4.2-5.53v5.53h-1.97v-8.83h1.84l4.33 5.68zm9.88 4.33h1.98v3.13c-.88.98-2.09 1.46-3.64 1.46-1.3 0-2.38-.43-3.26-1.29s-1.32-1.94-1.32-3.25.45-2.4 1.35-3.28 1.98-1.31 3.25-1.31 2.37.42 3.3 1.25l-1.02 1.48c-.4-.34-.76-.58-1.09-.71s-.69-.2-1.08-.2c-.75 0-1.38.25-1.89.76s-.77 1.18-.77 2.02.25 1.5.74 2 1.08.75 1.76.75 1.25-.13 1.71-.39v-2.42zm13.14-4.33v1.73h-4.09v1.91h3.89v1.73h-3.89v3.46h-1.98v-8.83zm8.42 4.36c0-.79-.25-1.46-.76-2.01-.51-.56-1.13-.83-1.86-.83-.74 0-1.36.28-1.86.83-.51.55-.76 1.23-.76 2.01 0 .79.25 1.46.76 2.01.5.55 1.13.83 1.86.83.74 0 1.36-.28 1.86-.83.51-.55.76-1.22.76-2.01m.67 3.25c-.89.87-1.99 1.31-3.3 1.31s-2.4-.44-3.3-1.31c-.89-.87-1.34-1.96-1.34-3.25s.45-2.38 1.34-3.25 1.99-1.31 3.3-1.31c1.3 0 2.4.44 3.3 1.31.89.87 1.34 1.96 1.34 3.25s-.45 2.38-1.34 3.25m5.34-1.06c.33.41.77.61 1.33.61s1-.2 1.32-.61.49-.97.49-1.67v-4.88h1.97v4.94c0 1.28-.35 2.26-1.06 2.95s-1.61 1.03-2.72 1.03c-1.1 0-2.01-.35-2.72-1.04s-1.07-1.67-1.07-2.94v-4.94h1.97v4.88c0 .7.17 1.26.49 1.67m13.33-6.55h1.97v8.83h-1.97l-4.21-5.53v5.53h-1.97v-8.83h1.85l4.33 5.68zm9.44 6.4c.48-.45.73-1.12.73-1.98 0-.87-.24-1.54-.73-2-.49-.47-1.23-.7-2.23-.7h-1.1v5.37h1.25c.9-.01 1.6-.23 2.08-.69m1.45-5.25c.84.77 1.26 1.84 1.26 3.21s-.41 2.46-1.23 3.26-2.07 1.2-3.76 1.2h-3.02v-8.83h3.12c1.58.01 2.78.39 3.63 1.16m6.34 1.48-1.11 2.56h2.21zm2.66 6.2-.82-1.91h-3.7l-.82 1.91h-2.1l3.81-8.83h1.91l3.82 8.83zm6.22-7.13v7.13h-1.97v-7.13h-2.5v-1.7h6.97v1.7zm3.94-1.7h1.97v8.83h-1.97zm10.9 4.36c0-.79-.25-1.46-.76-2.01-.51-.56-1.13-.83-1.86-.83s-1.36.28-1.86.83c-.51.55-.76 1.23-.76 2.01 0 .79.25 1.46.76 2.01.5.55 1.13.83 1.86.83s1.36-.28 1.86-.83.76-1.22.76-2.01m.67 3.25c-.89.87-1.99 1.31-3.3 1.31s-2.4-.44-3.3-1.31c-.89-.87-1.34-1.96-1.34-3.25s.45-2.38 1.34-3.25 1.99-1.31 3.3-1.31c1.3 0 2.4.44 3.3 1.31.89.87 1.34 1.96 1.34 3.25s-.45 2.38-1.34 3.25m9.18-7.61h1.97v8.83h-1.97l-4.21-5.53v5.53h-1.97v-8.83h1.85l4.33 5.68zm-207.01-1.63h-4.85v11.31h11.31v-4.84h-6.46zm24.24.04v6.42h-6.42l-.04-.03v4.89h11.32v-11.32h-4.89zm-29.09-11.35h4.89l-.04-.04v-6.43h6.43l.03.04v-4.89h-11.31zm22.63-11.32v4.85h6.46v6.47h4.86v-11.32z"/><path clip-path="url(#a)" d="m23.03 12.32-6.46-6.47h7.06v-4.85h-11.32v4.89l6.44 6.43z" opacity=".8"/><path clip-path="url(#b)" d="m17.2 23.63h-4.29l5.36 5.36 1.11 1.11h-7.07v4.84h11.32v-4.88l-3.21-3.22z" opacity=".8"/><path clip-path="url(#c)" d="m30.09 12.32v7.06l-1.1-1.11-5.36-5.35v4.28l3.21 3.22 3.22 3.21h4.89v-11.31z" opacity=".8"/><path clip-path="url(#d)" d="m12.31 18.74-6.42-6.42h-4.89v11.31h4.85v-7.06l6.46 6.46z" opacity=".8"/></g></svg>