<svg viewBox="0 0 500 409.5" xmlns="http://www.w3.org/2000/svg"><path d="m319.28 181.022a34.592 34.592 0 1 0 -34.59-34.593 34.632 34.632 0 0 0 34.59 34.593zm.001-56.599a22.137 22.137 0 1 1 -22.137 22.138 22.137 22.137 0 0 1 22.137-22.138z" fill="none"/><path d="m374.834 143.529a127.86 127.86 0 1 0 -127.86 127.86 128.006 128.006 0 0 0 127.86-127.86zm-185.308 5.977h-11.529a22.377 22.377 0 1 1 .176-3.93h14.118v.375l.04-.016 13.965 34.914 15.832-36.64h18.632l16.684-41.441 15.02 42.915h8.305a38.522 38.522 0 0 1 17.397-31.455l-37.03-35.178a22.146 22.146 0 1 1 2.781-2.78l37.78 35.891a38.524 38.524 0 1 1 -1.265 67.853l-36.815 36.814-2.779-2.778 36.192-36.192a38.531 38.531 0 0 1 -16.138-28.245h-11.216l-12.49-35.683-13.772 34.21h-18.704l-18.555 42.94zm34.786 81.548a22.137 22.137 0 1 1 22.137 22.137 22.137 22.137 0 0 1 -22.137-22.137zm-30.397 121.989a16.714 16.714 0 0 0 -5.845-4.313 17.786 17.786 0 0 0 -14.187 0 16.688 16.688 0 0 0 -5.845 4.313 20.447 20.447 0 0 0 -3.915 6.98 32.373 32.373 0 0 0 0 18.953 19.794 19.794 0 0 0 3.915 6.924 16.951 16.951 0 0 0 5.845 4.256 17.786 17.786 0 0 0 14.187 0 16.978 16.978 0 0 0 5.845-4.256 19.839 19.839 0 0 0 3.915-6.924 32.353 32.353 0 0 0 0-18.953 20.495 20.495 0 0 0 -3.915-6.98zm136.133-.964a16.717 16.717 0 0 0 -5.221-3.518 16.52 16.52 0 0 0 -6.64-1.306 16.81 16.81 0 0 0 -6.752 1.306 15.583 15.583 0 0 0 -5.164 3.575 17.112 17.112 0 0 0 -3.405 5.277 20.07 20.07 0 0 0 -1.475 6.413h33.709a19.815 19.815 0 0 0 -1.533-6.47 16.54 16.54 0 0 0 -3.518-5.277z" fill="none"/><g fill="#3b697e"><path d="m380.73 143.529c0-73.753-60.003-133.756-133.757-133.756s-133.755 60.003-133.755 133.757 60.002 133.756 133.755 133.756 133.757-60.004 133.757-133.757zm-261.617 0a127.86 127.86 0 1 1 127.86 127.86 128.006 128.006 0 0 1 -127.86-127.86z"/><circle cx="319.281" cy="146.561" r="22.137"/><circle cx="246.449" cy="231.054" r="22.137"/><path d="m243.414 148.14 13.773-34.21 12.489 35.683h11.216a38.531 38.531 0 0 0 16.138 28.245l-36.192 36.192 2.78 2.778 36.814-36.814a38.52 38.52 0 1 0 1.266-67.853l-37.78-35.89a22.142 22.142 0 1 0 -2.782 2.779l37.03 35.178a38.522 38.522 0 0 0 -17.397 31.455h-8.305l-15.02-42.915-16.684 41.441h-18.632l-15.832 36.64-13.965-34.914-.04.016v-.375h-14.118a22.144 22.144 0 1 0 -.176 3.93h11.53l16.63 41.575 18.554-42.942zm75.867-36.302a34.592 34.592 0 1 1 -34.591 34.591 34.63 34.63 0 0 1 34.59-34.59z"/></g><path d="m130.077 387.886q-4.03 3.746-11.18 3.745a15.969 15.969 0 0 1 -7.831-1.816 15.204 15.204 0 0 1 -5.334-4.823 21.245 21.245 0 0 1 -3.007-6.867 32.59 32.59 0 0 1 -.965-7.944 39.851 39.851 0 0 1 .908-8.569 21.443 21.443 0 0 1 3.008-7.32 15.589 15.589 0 0 1 5.617-5.108 17.988 17.988 0 0 1 8.74-1.93q6.129 0 9.76 3.065a14.71 14.71 0 0 1 4.766 8.626h9.988a23.253 23.253 0 0 0 -2.724-9.023 20.183 20.183 0 0 0 -5.504-6.299 22.833 22.833 0 0 0 -7.718-3.688 35.473 35.473 0 0 0 -9.363-1.192 28.403 28.403 0 0 0 -12.144 2.44 24.25 24.25 0 0 0 -8.682 6.696 28.477 28.477 0 0 0 -5.164 9.987 43.067 43.067 0 0 0 -1.703 12.315 39.484 39.484 0 0 0 1.76 12.087 26.47 26.47 0 0 0 5.22 9.477 22.969 22.969 0 0 0 8.626 6.129 30.585 30.585 0 0 0 11.86 2.156q11.236 0 17.762-5.902 6.525-5.9 8.115-16.797h-9.875q-.91 6.81-4.936 10.555zm72.123-40.234a25.809 25.809 0 0 0 -8.909-6.525 32.858 32.858 0 0 0 -24.571 0 25.659 25.659 0 0 0 -8.966 6.525 27.371 27.371 0 0 0 -5.448 9.76 39.075 39.075 0 0 0 -1.816 12.088 38.534 38.534 0 0 0 1.816 12.03 27.418 27.418 0 0 0 5.448 9.704 25.017 25.017 0 0 0 8.966 6.469 33.6 33.6 0 0 0 24.571 0 25.154 25.154 0 0 0 8.909-6.469 27.463 27.463 0 0 0 5.448-9.704 38.562 38.562 0 0 0 1.816-12.03 39.104 39.104 0 0 0 -1.816-12.087 27.415 27.415 0 0 0 -5.448-9.761zm-4.37 31.324a19.839 19.839 0 0 1 -3.915 6.924 16.978 16.978 0 0 1 -5.845 4.256 17.786 17.786 0 0 1 -14.187 0 16.951 16.951 0 0 1 -5.845-4.256 19.794 19.794 0 0 1 -3.915-6.924 32.373 32.373 0 0 1 0-18.953 20.447 20.447 0 0 1 3.915-6.98 16.688 16.688 0 0 1 5.845-4.313 17.786 17.786 0 0 1 14.187 0 16.714 16.714 0 0 1 5.845 4.313 20.495 20.495 0 0 1 3.915 6.98 32.353 32.353 0 0 1 0 18.953zm37.171-37.055q-5.106 3.405-8.625 10.555h-.227v-12.371h-9.08v58.676h9.647v-26.104a40.098 40.098 0 0 1 1.135-10.043 19.237 19.237 0 0 1 3.633-7.434 15.554 15.554 0 0 1 6.581-4.653 27.29 27.29 0 0 1 9.875-1.59v-10.214q-7.832-.225-12.939 3.178zm36.996-19.408h-9.647v17.592h-9.987v8.512h9.987v37.34a22.293 22.293 0 0 0 .794 6.582 7.985 7.985 0 0 0 2.44 3.86 9.423 9.423 0 0 0 4.313 1.872 34.625 34.625 0 0 0 6.413.51h7.377v-8.512h-4.427a32.225 32.225 0 0 1 -3.688-.17 4.746 4.746 0 0 1 -2.213-.738 2.798 2.798 0 0 1 -1.079-1.588 10.539 10.539 0 0 1 -.283-2.724v-36.432h11.69v-8.512h-11.69zm68.038 27.693a25.715 25.715 0 0 0 -8.285-8.228q-5.165-3.235-12.995-3.235a26.69 26.69 0 0 0 -11.065 2.27 26.019 26.019 0 0 0 -8.74 6.356 29.294 29.294 0 0 0 -5.73 9.646 35.303 35.303 0 0 0 -2.044 12.258 46.96 46.96 0 0 0 1.987 12.37 26.967 26.967 0 0 0 5.277 9.761 24.017 24.017 0 0 0 8.682 6.356 30.14 30.14 0 0 0 12.2 2.27q9.987 0 16.571-4.994 6.58-4.993 8.511-14.868h-9.533a13.718 13.718 0 0 1 -5.163 8.625 16.688 16.688 0 0 1 -10.045 2.839 19.962 19.962 0 0 1 -8.285-1.59 16.225 16.225 0 0 1 -5.788-4.256 16.55 16.55 0 0 1 -3.291-6.129 23.246 23.246 0 0 1 -.908-7.32h43.922a46.753 46.753 0 0 0 -.965-11.235 32.553 32.553 0 0 0 -4.313-10.896zm-38.644 13.62a20.07 20.07 0 0 1 1.475-6.413 17.112 17.112 0 0 1 3.405-5.277 15.583 15.583 0 0 1 5.164-3.575 16.81 16.81 0 0 1 6.752-1.306 16.52 16.52 0 0 1 6.64 1.306 16.717 16.717 0 0 1 5.221 3.518 16.54 16.54 0 0 1 3.518 5.277 19.815 19.815 0 0 1 1.533 6.47zm78.312 3.29 20.202-27.011h-11.576l-14.642 20.543-14.073-20.543h-12.371l20.429 27.806-22.018 30.87h11.69l16.343-24.287 16.344 24.287h12.371z" fill="#35354d"/></svg>