<svg viewBox="0 0 2004.5 1015.4" xmlns="http://www.w3.org/2000/svg"><path d="m1374.1 294.5-81.7 128.4-82-128.4h-65.5v294.6h65.5v-172.8l47.3 74.6h68.9l47.5-74.8v173h65.6v-294.6zm-893.1 65.4 53.5-65.4h-240.9v294.6h65.6v-98.2h121.8l-.2-65.5h-121.6v-65.5zm189.3-65.6c-81.4 0-147.4 66-147.4 147.4s66 147.4 147.4 147.4 147.4-66 147.4-147.4-66-147.4-147.4-147.4zm0 226.6c-45.2 0-81.9-36.7-81.9-81.9s36.7-81.9 81.9-81.9 81.9 36.7 81.9 81.9-36.7 81.9-81.9 81.9zm417.6-68c8.6-12.4 13.5-27.4 14.5-45.2.6-6.6.8-13.8.2-21.3-2.3-29.1-7.2-46.7-25.2-66.4-18.7-20.5-39.8-24.8-64.6-25.5h-151.5v294.6h65.5v-98.2h52l49.9 98.2h74.4l-61-106.1c19.4-5.8 35.7-15.4 45.8-30.1zm-83.8-24.7c-.1.1-77.3 0-77.3 0v-71.2h74.5c.4 0 5.1.2 5.5.3 17.4 2.1 31 17 31 35.3-.1 19.2-15 34.7-33.7 35.6z" fill="#09202d"/><path d="m1656.7 359.9h-174.9v-65.4h229.1zm-12.7 14.2-42.3 50.4c25.8 1.4 46.9 23.3 46.9 50.1 0 27.7-22.5 49.7-50.2 50.2-23.4.5-45.7-14-52.3-34h-64.3c9.1 55.4 59.3 98 116.6 98 62 0 112.3-50.3 112.3-112.3 0-45.7-27.3-85-66.7-102.4z" fill="#00b0ac"/><path d="m371.1 654.5h9.7v65.5h-9.7zm92.2 65.5-35.3-49.9v49.9h-9.7v-65.5h9.9l35.4 50.1v-50.1h9.6v65.5zm178.8 0-35.3-49.9v49.9h-9.7v-65.5h9.9l35.4 50.1v-50.1h9.6v65.5zm72.5.9c-8.4 0-15.2-2.8-20.3-8.3s-7.6-13-7.6-22.3v-6.3c0-6.1 1.2-11.5 3.6-16.1s5.8-8.2 10.1-10.7 9.4-3.7 15.1-3.7c7.5 0 13.7 2 18.3 5.8 4.6 3.9 7.3 9.3 8 16.2v.2h-9.8v-.1c-.8-5.1-2.6-8.9-5.2-11.2-2.7-2.3-6.5-3.5-11.3-3.5-5.9 0-10.6 2-14 6s-5.1 9.8-5.1 17.2v6.3c0 7 1.6 12.6 4.8 16.8 3.2 4.1 7.7 6.2 13.4 6.2 5.2 0 9.2-1.1 11.9-3.2s4.6-5.9 5.5-11.2v-.1h9.7v.2c-.9 6.9-3.7 12.3-8.4 16.1s-11 5.7-18.7 5.7zm61-66.4h9.7v65.5h-9.7zm305.9 66.4c-8.4 0-15.2-2.8-20.3-8.3s-7.6-13-7.6-22.3v-6.3c0-6.1 1.2-11.5 3.6-16.1s5.8-8.2 10.1-10.6c4.3-2.5 9.4-3.7 15.1-3.7 7.6 0 13.7 2 18.3 5.8 4.6 3.9 7.3 9.3 8 16.2v.2h-9.7v-.1c-.8-5.1-2.6-8.9-5.2-11.2-2.7-2.3-6.5-3.5-11.3-3.5-5.9 0-10.6 2-14 6s-5.1 9.8-5.1 17.2v6.3c0 7 1.6 12.6 4.8 16.8s7.6 6.2 13.4 6.2c5.2 0 9.2-1.1 11.9-3.2s4.6-5.9 5.5-11.2v-.1h9.7v.2c-.9 6.9-3.7 12.3-8.4 16.1-4.7 3.7-11 5.6-18.8 5.6zm60.3-.9v-65.5h9.7v58.1h33.7v7.4zm97.7.9c-5.6 0-10.6-1.3-15-3.8-4.3-2.5-7.7-6.2-10.1-10.8-2.4-4.7-3.6-10.2-3.7-16.3v-4.7c0-6.3 1.2-11.9 3.6-16.7s5.8-8.5 10.1-11.1c4.4-2.6 9.4-3.8 15-3.8 5.7 0 10.8 1.3 15.1 3.8s7.7 6.2 10.1 11c2.3 4.8 3.5 10.4 3.5 16.8v4.1c0 6.4-1.2 12-3.5 16.8s-5.7 8.5-10 11c-4.3 2.4-9.4 3.7-15.1 3.7zm-.1-59.6c-5.9 0-10.5 2.1-13.9 6.1-3.4 4.1-5.1 9.8-5.2 17.1v4.8c0 7.4 1.7 13.3 5.1 17.5s8.1 6.4 14.1 6.4 10.7-2 14-6 5-9.8 5.1-17.3v-4.8c0-7.6-1.7-13.6-5-17.7-3.4-4-8.2-6.1-14.2-6.1zm86.8 58.7c-7.8 0-14.1-1.9-18.7-5.7s-7-9.1-7.1-15.8v-44h9.6v43.7c0 4.6 1.4 8.2 4.2 10.7s6.8 3.8 12 3.8 9.3-1.3 12.1-3.8 4.2-6.1 4.2-10.7v-43.8h9.7v43.9c0 6.1-2.2 11.2-6.4 15-4.2 3.9-9.9 6.1-17.1 6.5zm61.2 0v-65.5h20.2c6.2 0 11.7 1.3 16.5 3.8s8.5 6.1 11.1 10.8c2.6 4.6 3.9 10 4 16v4.2c0 6.1-1.3 11.6-3.9 16.2s-6.3 8.2-11.1 10.7-10.5 3.8-16.8 3.8zm9.7-7.4h9.7c7.2 0 12.8-2.1 16.8-6.1 4-4.1 6-9.9 6-17.5v-3.8c0-7.3-1.9-13.1-5.6-17.1-3.8-4.1-9.1-6.1-16-6.2h-10.8v50.7zm-1103.3 7.4v-65.5h44.4v9.8h-34.7v18.4l25-.4v9.9l-25 .3v27.5zm263.5 0-6.3-15.7h-30.7l-6.2 15.7h-10l27.3-65.5h8.4l27.3 65.5zm-33-25.6h22.8l-11.4-28.8zm345.5 25.6-6.2-15.7h-30.7l-6.2 15.7h-10l27.3-65.5h8.4l27.3 65.5zm-33-25.6h22.8l-11.4-28.8zm72.8 25.6v-65.5h9.7v55.6h33.7v9.9z" fill="#09202d"/></svg>