<svg height="245" viewBox="0 0 400 245" width="400" xmlns="http://www.w3.org/2000/svg"><path d="m0 0h400v245h-400z" fill="none" pointer-events="none"/><path d="m167.937 61.235v-37.783l65.405 37.783v37.707z" fill="#f7af00"/><path d="m233.342 98.942 32.665-18.891v-37.707l-32.665 18.89z" fill="#f0a000"/><path d="m233.342 61.235-65.405-37.783 32.74-18.816 65.33 37.708z" fill="#ffd900"/><path d="m118.94 89.534v37.708l-32.664-18.816v-37.783z" fill="#6fba2c"/><path d="m118.94 89.534v37.708l65.255-37.708v-37.782l-65.33 37.782" fill="#64a827"/><path d="m184.195 51.752-32.665-18.816-65.254 37.707 32.664 18.891z" fill="#8fc31f"/><path d="m217.085 127.242v-37.708l32.59 18.892v37.707z" fill="#00a7ea"/><path d="m282.339 51.752 32.74 18.891-65.405 37.783-32.589-18.892z" fill="#37bef0"/><path d="m249.674 146.133 65.405-37.707v-37.783l-65.405 37.783z" fill="#0093cc"/><path d="m233.342 155.541v-37.707l-32.665 18.89v37.708z" fill="#c81e1a"/><path d="m200.677 136.725-65.404-37.783v37.783l65.404 37.707z" fill="#d8221e"/><path d="m233.342 117.834-32.665 18.89-65.404-37.782 32.664-18.891z" fill="#e83929"/><path d="m62.568 201.753c0 1.204-.452 2.258-1.355 3.161s-1.957 1.355-3.161 1.355-2.258-.452-3.161-1.355c-.904-.903-1.355-1.957-1.355-3.16 0-1.28.451-2.334 1.355-3.237.903-.903 1.957-1.355 3.16-1.355 1.205 0 2.259.452 3.162 1.355s1.355 1.957 1.355 3.236zm-7.903 37.783v-27.848h6.849v27.848h-6.85zm41.847-20.924c1.354 2.334 2.032 4.968 2.032 7.753v13.321h-7v-14.45c0-2.334-.828-4.366-2.483-6.021-1.656-1.656-3.688-2.484-6.022-2.484-2.333 0-4.365.828-6.02 2.484-1.657 1.655-2.484 3.687-2.484 6.02v14.451h-6.925v-13.321c0-2.785.678-5.42 2.032-7.753 1.355-2.333 3.237-4.214 5.645-5.644a15.491 15.491 0 0 1 7.752-2.033c2.785 0 5.42.678 7.753 2.033 2.408 1.354 4.29 3.236 5.72 5.644zm20.698 20.924c-2.56 0-4.968-.678-7.075-1.957-2.108-1.28-3.764-3.01-4.893-5.193s-1.73-4.591-1.73-7.226v-13.472h6.924v14.677c0 2.032.677 3.838 2.107 5.268s3.161 2.183 5.193 2.183 3.763-.753 5.269-2.183c1.43-1.43 2.182-3.161 2.182-5.268v-14.677h7v14.677c0 2.032.753 3.838 2.183 5.268s3.16 2.183 5.268 2.183c2.032 0 3.839-.753 5.269-2.183s2.182-3.161 2.182-5.268v-14.677h7v13.548c0 2.634-.602 5.042-1.731 7.225-1.204 2.183-2.785 3.914-4.892 5.193-2.108 1.28-4.441 1.957-7.075 1.957-2.409 0-4.667-.602-6.699-1.731s-3.612-2.71-4.817-4.742c-1.204 1.957-2.86 3.538-4.817 4.742-2.107 1.129-4.365 1.656-6.849 1.656zm50.727-37.783c0 1.204-.451 2.258-1.354 3.161s-1.957 1.355-3.161 1.355c-1.205 0-2.258-.452-3.161-1.355-.904-.903-1.355-1.957-1.355-3.16 0-1.28.451-2.334 1.355-3.237.903-.903 1.956-1.355 3.16-1.355 1.205 0 2.259.452 3.162 1.355s1.354 1.957 1.354 3.236zm-7.902 37.783v-27.848h6.849v27.848h-6.85zm41.847-20.924c1.354 2.334 2.032 4.968 2.032 7.753v13.321h-7v-14.45c0-2.334-.828-4.366-2.484-6.021-1.655-1.656-3.687-2.484-6.02-2.484-2.41 0-4.366.828-6.022 2.484-1.656 1.655-2.484 3.687-2.484 6.02v14.451h-6.924v-13.321c0-2.785.678-5.42 2.032-7.753 1.355-2.333 3.237-4.214 5.645-5.644a15.491 15.491 0 0 1 7.752-2.033c2.785 0 5.42.678 7.753 2.033 2.408 1.354 4.29 3.236 5.72 5.644z" fill="#e72521"/><path d="m217.16 220.343a1.538 1.538 0 0 1 -1.204-1.505c0-.752.452-1.355.978-1.505h13.022v-6.699h-13.473c-3.914 0-7.602 3.312-7.602 7.226 0 2.107.15 3.763 1.58 5.494 0 0 1.13 1.505 3.011 2.559 1.13.602 7.226 3.312 7.226 3.312.752.225 1.505.602 1.505.602.677.3.828 1.129.753 1.58-.076.527-.527 1.28-1.054 1.355h-13.022v6.85h13.397c3.914 0 7.602-4.14 7.602-7.226 0-2.108-.15-4.29-1.58-6.021 0 0-1.13-1.506-3.011-2.56a12.736 12.736 0 0 0 -1.731-.827l-6.398-2.635zm40.267-9.859h-22.43v6.924h7.753v22.203h6.924v-22.203h7.753zm28.449 11.139c-.3-6.172-5.494-11.14-11.74-11.14a11.72 11.72 0 0 0 -11.667 10.237v18.891h7v-10.838h9.483v10.838h7v-17.386zm-16.407.226v-.903c0-2.71 2.107-4.893 4.742-4.893 2.634 0 4.741 2.183 4.741 4.893v.903zm37.481-11.365h7.452v7h-9.935a7.42 7.42 0 0 0 -7.451 7.45c0 4.14 3.386 7.527 7.45 7.527h9.935v6.924h-8.956c-7.978 0-14.45-6.472-14.45-14.45 0-7.903 6.322-14.225 14.224-14.376zm35.75 19.117c-1.128-2.258-2.784-4.666-4.967-5.494 1.506-.979 2.258-2.409 3.011-3.914l4.215-9.483h-7.226l-2.784 6.247-.602 1.354c-.678 1.731-1.882 2.785-3.312 3.312-1.204.452-3.462.527-4.967.226v-11.29h-6.699v29.127h6.699v-11.515h5.042c2.032.226 3.839 1.43 4.968 3.688l.527 1.054 3.16 6.773h7.301l-4.365-10.085z" fill="#727171"/></svg>