<svg viewBox="-14.19 -14.19 737.88 214.88" xmlns="http://www.w3.org/2000/svg"><path d="m269.9 46.68h-18l-31 48.7v-48.8h-17v95.4h17v-20.6l11.3-17.4 20.4 38h19.4l-30.3-51.2zm53.1 0h-25.6c-9.4 0-17 6.1-17 13.6v68.1c0 7.5 7.6 13.6 17 13.6h25.6c9.3 0 17-6.1 17-13.6v-68.1c0-7.5-7.6-13.6-17-13.6zm0 81.7h-25.6v-68.1h25.6zm76.5-25.7-24.1-56.1h-18.4v95.4h17v-62.4l27.5 62.4h15v-95.4h-17zm29.8-42.4h21.3v81.7h17v-81.7h21.2v-13.7h-59.5zm72.3 81.7h51v-13.6h-34v-30h25.5v-13.6h-25.5v-24.6h34v-13.6h-51zm108.3-95.4v56.1l-24.1-56.1h-18.4v95.4h17v-62.4l27.5 62.4h15v-95.4zm74.5 0h-21.4l-25.5 95.4h18l3.4-13.6h29.6l3.4 13.6h18zm-22.1 68.2 11.7-44.4 11.1 44.4zm-581.3-114.78-27 15.59-27 15.59-27 15.59v93.53l27 15.58v-93.53l27-15.58v62.35l27-15.59 27-15.59v-31.17l27-15.59-27-15.59zm54 62.35v31.18l-27 15.59 27 15.59v31.17l27-15.58v-93.53l-27-15.59zm-54 62.36-27 15.58v31.18l27 15.59 27-15.59v-31.17z" fill="#3d90ce"/></svg>