<svg viewBox="2.8 64.31 205.14 164.89" xmlns="http://www.w3.org/2000/svg"><path d="m96.616 70.628c-36.992-.137-58.476 22.781-50.9 54.87-28.233 1.284-35.73 14.583-36.68 34.416 1.906 28.243 45.033 33.65 54.91 33.03 74.069.016 44.575.068 103.3.068 36.617-2.209 36.32-31.422 33.89-49.601-3.35-13.657-19.435-30.721-49.918-33.35-.94-44.492-27.687-39.78-54.602-39.433z" fill="#01a2d8" stroke="#54bae2" stroke-width="4.199"/><path d="m76.294 79.019h49.875v99.751h-49.875z" fill="#dfe1e0" stroke="#fff" stroke-linecap="round" stroke-linejoin="round" stroke-width="2.827"/><path d="m82.842 85.659h36.779v8.063h-36.779zm0 14.048h36.779v8.063h-36.779zm0 14.048h36.779v8.063h-36.779z" fill="#7a7a7a"/><circle cx="101.417" cy="158.795" fill="#f00" r="6.412"/><g stroke-linecap="round" stroke-linejoin="round"><g><path d="m92.5 167h40v24h-40z" fill="#00698a"/><path d="m95.363 170.088h34.576v17.462h-34.576z" fill="#f4fcff"/><path d="m97.925 173.263h3.842v11.112h-3.842zm6.403 0h3.842v11.112h-3.842zm6.402 0h3.842v11.112h-3.842zm6.403 0h3.842v11.112h-3.842zm6.403 0h3.841v11.112h-3.841z" fill="#00698a"/></g><g><path d="m132.3 167h40v24h-40z" fill="#00698a"/><path d="m135.163 170.088h34.576v17.462h-34.576z" fill="#f4fcff"/><path d="m137.725 173.263h3.842v11.112h-3.842zm6.403 0h3.842v11.112h-3.842zm6.402 0h3.842v11.112h-3.842zm6.403 0h3.842v11.112h-3.842zm6.403 0h3.841v11.112h-3.841z" fill="#00698a"/></g><g><path d="m112.392 143.2h40v24h-40z" fill="#00698a"/><path d="m115.255 146.288h34.575v17.462h-34.575z" fill="#f4fcff"/><path d="m117.816 149.463h3.842v11.112h-3.842zm6.404 0h3.841v11.112h-3.842zm6.402 0h3.842v11.112h-3.842zm6.403 0h3.842v11.112h-3.842zm6.402 0h3.842v11.112h-3.842z" fill="#00698a"/></g></g><path d="m52.027 224.201h4.603l-4.984-13.903 7.936-8.316h-5.206l-9.681 10.126 1.777-10.126h-4.349l-3.904 22.22h4.349l.952-5.429 4.888-5.11zm14.953.381c5.809 0 8.76-3.682 8.76-7.427 0-2.699-1.745-4.476-3.396-4.984 2.127-.508 4.317-2.254 4.317-5.142 0-2.952-2.222-5.428-6.634-5.428-4.444 0-7.586 2.634-7.586 6.063 0 2.253 1.333 3.555 2.856 4.158-3.015.603-5.523 2.603-5.523 6.317 0 3.491 2.984 6.443 7.206 6.443zm2.349-14.284c-1.714 0-2.571-1.174-2.571-2.285 0-1.65 1.491-2.635 2.983-2.635 1.81 0 2.603 1.206 2.603 2.254 0 1.65-1.365 2.666-3.015 2.666zm-1.969 10.412c-1.968 0-3.175-1.302-3.175-3.016 0-1.84 1.397-3.523 3.841-3.523 2.222 0 3.301 1.555 3.301 3.015 0 2.127-1.523 3.524-3.967 3.524zm23.617-12.697 3.904-1.27c-.413-2.444-2.35-5.142-6.857-5.142-4.856 0-7.745 2.793-7.745 6.412 0 7.142 9.237 5.904 9.237 9.903 0 1.62-1.46 2.54-3.428 2.54-2.349 0-3.46-1.365-4.126-3.428l-3.968 1.46c.92 3.46 3.365 6.094 7.491 6.094 5.142 0 8.57-2.825 8.57-7.078 0-7.301-9.427-6.507-9.427-9.713 0-1.207 1.111-2.222 3.11-2.222 1.874 0 2.953 1.11 3.239 2.444zm6.855 8.792h8l.698-3.967h-8zm21.923-10.697h6l.698-4.126h-16.315l-.699 4.126h6l-3.206 18.093h4.317zm5.88 18.093h15.204l.73-4.063h-10.855l.92-5.364h5.936l.73-4.063h-5.936l.825-4.666h10.222l.698-4.063h-14.57zm21.528 0h3.936l5.174-12.41c.508-1.175.762-1.905.889-2.35 0 .572 0 1.492.064 2.508l.952 12.252h3.936l8.475-22.22h-4.476l-4.475 12.507c-.286.762-.445 1.206-.572 1.65 0-.444 0-1.11-.031-1.682l-.794-12.474h-3.682l-5.11 12.474c-.318.794-.477 1.238-.604 1.683 0-.445.032-.889.032-1.65l-.032-12.507h-4.348z" fill="#ffa500" stroke="#ffa500" stroke-width="1.477"/></svg>