<svg viewBox="0 0 400 245" xmlns="http://www.w3.org/2000/svg"><path d="m83.2 102v41.5h-9.7v-4.5c-2.2 3.6-6.2 5.6-12.2 5.6-9.8 0-14.7-5.1-14.7-13.2v-29.4h10.6v26.7c0 4.3 2.3 6.9 6.9 6.9 5.3 0 8.5-3 8.5-8.6v-25zm68.7 12.5v29h-10.6v-25.8c0-4.9-2-8-6.6-8s-7.3 3.4-7.3 8.2v25.5h-10.6v-25.8c0-5.3-2.2-8-6.6-8-4.7 0-7.3 3.4-7.3 8.2v25.5h-10.5v-41.3h9.8v4.6c2.4-4 6.4-6 11.8-6 5.3 0 9.3 2.2 11.5 6.1 2.8-4.1 7-6.1 12.4-6.1 9 0 14 5.3 14 13.9zm84.8 28.9h-10.6v-57.6h10.6zm114.7 0h-10.6v-41.4h10.6zm-10.8-47.7h10.9v-10.1h-10.9zm50.4 33.6c-4.3 4.6-7.3 6.4-11.3 6.4-4.7 0-8.1-2.7-9.6-7v-12.1c1.6-4.3 4.9-7.1 9.8-7.1 3.5 0 6.3 1.2 10.8 5.4l6.6-6.5c-5.3-5.8-10.4-7.9-17.4-7.9-9.7 0-17.2 5.1-20.1 13.6v17c2.9 8.5 10.2 13.5 19.8 13.5 7.5 0 12.6-2.5 18.4-9.6zm-367.3-11.4c-2.9-.6-4.9-1.2-6.1-1.4-1.4-.4-2.5-1-3.1-1.7v-3.2c1-1.5 3.3-2.5 6.5-2.5 4.5 0 7.6 1 12.4 4.9l5.7-6.9c-5.8-4.8-10.7-6.5-17.9-6.5-8.2 0-13.9 3.4-16.2 8.2v10.4c1.8 3.5 5.9 5.5 14.1 7.3 3 .7 4.9 1.2 6.1 1.4 1.5.5 2.9 1.1 3.6 2.2v3.6c-1 1.6-3.5 2.5-6.7 2.5-2.3.1-4.6-.4-6.7-1.3-2.1-.8-4.5-2.4-7.5-4.9l-5.9 6.9c6.6 5.8 12.2 7.8 20.1 7.8 8.4 0 14.4-3.2 16.7-8.4v-10.5c-2-3.9-6.6-6-15.1-7.9zm155.9-17.4c-9.5 0-17 5.1-20.1 13.4v17.4c3 8.2 10.6 13.4 20.1 13.4s17-5.1 20-13.3v-17.6c-3.1-8.1-10.6-13.3-20-13.3zm9.8 28.2c-1.6 4.4-5.1 7-9.8 7-4.6 0-8.2-2.6-9.9-7v-12.2c1.6-4.4 5.1-7.1 9.9-7.1 4.7 0 8.1 2.7 9.8 7.1zm75.6-28.2c-9.5 0-17 5.1-20.1 13.4v17.4c3.1 8.2 10.6 13.4 20.1 13.4s17-5.1 20-13.3v-17.6c-3-8.1-10.5-13.3-20-13.3zm9.8 28.2c-1.6 4.4-5.1 7-9.8 7s-8.2-2.6-9.9-7v-12.2c1.6-4.4 5.1-7.1 9.9-7.1s8.1 2.7 9.8 7.1zm47-26.7v4.6c-2.7-4-6.9-6-12.6-6-7.8 0-14.1 4.8-16.9 12.4v17.1c2.7 7.6 9 12.4 16.9 12.4 5.3 0 9.3-1.8 12.1-5.3v3.3c0 6.9-4 10.1-10.2 10.1-4.6 0-8.4-1.4-14.4-4.9l-5.1 7.6c5.8 3.9 12.7 6 19.7 6.1 11.7 0 20.3-6.2 20.3-17.9v-39.5zm-1.3 25.2c-1.6 3.9-4.9 6.4-9 6.4s-7.4-2.4-9-6.4v-11.3c1.6-3.9 4.8-6.3 9-6.3s7.4 2.4 9 6.3z" fill="#009"/></svg>