<svg viewBox="0 0 495.8 142.5" xmlns="http://www.w3.org/2000/svg"><path d="m15.9 14.3h.3c5.8-7.8 18.7-12.2 28.8-12.2 22.7 0 33.3 16.4 33.3 35.5v48.6h-13.9v-46.1c0-13.2-6.4-25.1-22.6-25.1-19.2 0-25.8 17.8-25.8 32.4v38.9h-14v-81.9h13.9z" fill="#463f3a"/><path d="m167.5 86.3h-13.9v-11.3h-.4c-7.2 9-16.7 13.6-28.2 13.6-24 0-39.2-20.4-39.2-43 0-23.3 14.8-43.4 39.4-43.4 11.2 0 21.3 5.2 28.1 13.9h.4v-11.7h13.9zm-67.5-41.8c0 16 9.4 31.2 26.8 31.2 17.9 0 27.4-14.5 27.4-31 0-16.4-10.3-29.6-27.5-29.6-16.2-.1-26.7 14.1-26.7 29.4z" fill="#463f3a"/><path d="m316.8 7.8-5.3 12c8.1 5.4 13.1 14.9 13.1 25.6 0 8.3-2.9 15.9-8 21.4l7.9 10.7c8.7-7.8 14.1-19.1 14.1-31.9-.1-16.3-8.8-30.4-21.8-37.8z" fill="#b0ba25"/><path d="m266.5 43.2c1-15.6 12.5-28.2 29-28.2 2.1 0 4.1.2 6.1.6l5.3-12c-3.6-1-7.4-1.5-11.3-1.5-23.8 0-42.6 18.9-43 42.6z" fill="#815475"/><path d="m307.8 73c-3.7 1.7-7.8 2.6-12.3 2.6-14.2 0-24.7-9.2-28-21.7l-13.9 1.5c4.4 19.1 21.4 33.1 41.9 33.1 7.3 0 14.1-1.8 20.1-4.9z" fill="#00718b"/><g fill="#463f3a"><path d="m363.2 16.1h.4c6.8-9.1 16.9-13.9 28.2-13.9 24 0 39.2 20.7 39.2 43.4 0 23.3-14.8 43-39.4 43-11.2 0-21.4-4.9-28.1-13.8h-.4v57.5h-13.9v-127.9h13.9zm-.7 28.4c0 16 9.4 31.2 26.8 31.2 17.9 0 27.4-14.5 27.4-31 0-16.4-10.3-29.6-27.5-29.6-16.3-.1-26.7 14.1-26.7 29.4z"/><path d="m215.5 59.5 24.4-55.1h15.7l-40.1 87.3-40.3-87.3h15.9z"/><path d="m480.7 44.8c-7.2-4.7-29.7-8.9-29.1-19.3.4-6.9 5.7-11.5 13.2-11.5 9.2 0 13.2 5 16.7 12l12.4-4.8c-4.4-11.8-15.2-19-28.9-19-15.2 0-27.7 10.2-27.7 24.5 0 10.1 6.2 15.7 12.8 19.4 6.3 3.5 28.3 8.9 29.6 19.3.8 6.8-5.8 11.5-13.2 11.5-9.2 0-13.2-5-16.7-12l-12.4 4.8c4.4 11.8 15.2 19 28.9 19 15.2 0 27.7-10.2 27.7-24.5 0-10.2-6.4-14.9-13.3-19.4z"/><path d="m379.5 106h2.7v14.5h.1c1.1-1.7 2.8-2.8 4.9-2.8 4.1 0 6.7 3.5 6.7 7.4 0 4.1-2.4 7.7-6.8 7.7-2 0-3.7-1.1-4.8-2.7h-.1v2.2h-2.7zm11.7 19.2c0-2.8-1.7-5.1-4.6-5.1-2.8 0-4.5 2.5-4.5 5.1 0 2.7 1.6 5.1 4.5 5.1s4.6-2.3 4.6-5.1zm3.1-7.1h3.2l4.8 9 4.4-9h3.1l-11.5 22.3h-3.1l5.6-10.5zm28.4-8.6v13.5c0 3.7 1.1 7.2 5.5 7.2s5.5-3.4 5.5-7.2v-13.5h2.8v14.4c0 5-3.1 8.9-8.3 8.9s-8.3-3.8-8.3-8.9v-14.4zm20.2 10.5c.9-1.5 2.6-2.3 4.3-2.3 4 0 5 2.7 5 6.1v8.4h-2.7v-8.1c0-2.4-.3-4.1-3.1-4.1-3.5 0-3.5 3.1-3.5 5.7v6.5h-2.7v-14.2h2.7zm16.9-8.3c0 1-.8 1.8-1.9 1.8s-1.9-.8-1.9-1.8c0-1.1.8-1.9 1.9-1.9s1.9.8 1.9 1.9zm-.5 20.6h-2.7v-14.2h2.7zm9.2-5.3 4.1-8.8h3.1l-7.1 14.6-7.1-14.6h3.1zm21.9 5.3h-2.7v-2.2h-.1c-1.1 1.6-2.8 2.7-4.8 2.7-4.3 0-6.8-3.6-6.8-7.7 0-3.9 2.6-7.4 6.7-7.4 2.1 0 3.8 1.1 4.9 2.8h.1v-2.4h2.7zm-2.6-7.1c0-2.8-1.7-5.1-4.6-5.1-2.8 0-4.5 2.5-4.5 5.1 0 2.7 1.6 5.1 4.5 5.1 3 0 4.6-2.3 4.6-5.1z"/></g></svg>