<svg viewBox="0 0 750.31428 397.88156" xmlns="http://www.w3.org/2000/svg" xmlns:xlink="http://www.w3.org/1999/xlink"><clipPath id="a"><path d="m-35.118 3.754h768.88v391.128h-768.88z"/></clipPath><clipPath id="b"><path d="m4.562 254.398h736.188v115.365h-736.188z"/></clipPath><clipPath id="c"><path d="m21.772 81.942h105.06v24.912h-105.06z"/></clipPath><clipPath id="d"><path d="m21.772 101.445h105.06v24.913h-105.06z"/></clipPath><clipPath id="e"><path d="m21.772 120.949h105.06v24.912h-105.06z"/></clipPath><clipPath id="f"><path d="m154.896 87.427h169.217v36.526h-169.217z"/></clipPath><clipPath id="g"><path d="m134.242 22.126h599.52v33.912h-599.52z"/></clipPath><clipPath id="h"><path d="m386.096 63.962h111.757v83.12h-111.757z"/></clipPath><clipPath id="i"><path d="m596.739 66.362h81.087v78.323h-81.087z"/></clipPath><clipPath id="j"><path d="m389.675 276.137h104.602v78.875h-104.602z"/></clipPath><clipPath id="k"><path d="m12.435 55.242h123.534v32.92h-123.534z"/></clipPath><g clip-path="url(#a)"><g clip-path="url(#a)"><g clip-path="url(#b)" opacity=".7"><path d="m13.562 261.398h718.188v107.365h-718.188z" fill="#bcbec0"/></g></g><path d="m14.062 56.258h719.201v101.885h-719.201z" fill="#326ce5"/><g clip-path="url(#a)"><path d="m733.762 158.643h-720.2v-102.883h720.2zm-719.2-1h718.2v-100.883h-718.2z" fill="#326ce5"/><g clip-path="url(#c)" opacity=".5"><path d="m30.772 88.942h87.06v16.912h-87.06z" fill="#fff"/></g><g clip-path="url(#d)" opacity=".5"><path d="m30.772 108.446h87.06v16.912h-87.06z" fill="#fff"/></g><g clip-path="url(#e)" opacity=".5"><path d="m30.772 127.949h87.06v16.912h-87.06z" fill="#fff"/></g></g><path d="m13.562 156.963h719.899v105.435h-719.899z" fill="#231f20"/><path d="m134.242 46.802h599.32v112.842h-599.32z" fill="#fff"/><g clip-path="url(#f)"><path d="m207.972 106.306q.493-.538 1.01-1.122.538-.585 1.033-1.145.493-.583.92-1.1.448-.516.763-.898h3.973q-1.19 1.37-2.334 2.626-1.123 1.235-2.469 2.56a14.903 14.903 0 0 1 1.391 1.458q.719.831 1.392 1.73.673.896 1.234 1.794.561.899.943 1.64h-3.838q-.36-.584-.83-1.28-.45-.718-.966-1.415a16.065 16.065 0 0 0 -1.1-1.369 8.602 8.602 0 0 0 -1.122-1.1v5.163h-3.344v-16.88l3.344-.538zm19.491 7.138a20.793 20.793 0 0 1 -5.028.673 6.79 6.79 0 0 1 -2.514-.404 3.853 3.853 0 0 1 -1.57-1.122 4.531 4.531 0 0 1 -.832-1.75 9.399 9.399 0 0 1 -.247-2.223v-6.576h3.345v6.172a4.79 4.79 0 0 0 .426 2.335 1.698 1.698 0 0 0 1.594.718c.24 0 .494-.007.763-.023.27-.029.51-.06.72-.089v-9.113h3.343zm10.726-5.589q0-3.232-2.38-3.232a4.12 4.12 0 0 0 -1.032.134 2.954 2.954 0 0 0 -.808.337v6.083c.165.03.374.06.629.09q.38.022.83.022a2.402 2.402 0 0 0 2.065-.942 4.098 4.098 0 0 0 .696-2.492m3.412.09a7.295 7.295 0 0 1 -.426 2.559 5.289 5.289 0 0 1 -1.19 1.953 5.415 5.415 0 0 1 -1.931 1.257 7.428 7.428 0 0 1 -2.603.426q-.606 0-1.28-.067-.651-.045-1.302-.135c-.42-.06-.822-.127-1.212-.202q-.584-.135-1.032-.269v-16.498l3.344-.539v5.881a6.248 6.248 0 0 1 1.167-.382 6.052 6.052 0 0 1 1.302-.134 5.202 5.202 0 0 1 2.222.449 4.239 4.239 0 0 1 1.616 1.234 5.582 5.582 0 0 1 .988 1.953 8.716 8.716 0 0 1 .337 2.514m2.009.09a7.291 7.291 0 0 1 .471-2.739 6.006 6.006 0 0 1 1.28-1.975 5.29 5.29 0 0 1 1.795-1.19 5.756 5.756 0 0 1 2.11-.404 5.198 5.198 0 0 1 3.973 1.55 6.294 6.294 0 0 1 1.46 4.511q0 .291-.023.65-.022.338-.045.606h-7.587a2.224 2.224 0 0 0 .965 1.64 3.881 3.881 0 0 0 2.29.605 10.113 10.113 0 0 0 1.795-.157 7.258 7.258 0 0 0 1.46-.426l.448 2.715a4.595 4.595 0 0 1 -.718.27 7.992 7.992 0 0 1 -1.01.225q-.538.111-1.167.18a11.767 11.767 0 0 1 -1.257.067 7.54 7.54 0 0 1 -2.784-.472 5.606 5.606 0 0 1 -1.952-1.279 5.43 5.43 0 0 1 -1.145-1.953 7.931 7.931 0 0 1 -.359-2.424m7.856-1.28a3.14 3.14 0 0 0 -.157-.83 1.854 1.854 0 0 0 -.382-.719 1.888 1.888 0 0 0 -.65-.516 2.045 2.045 0 0 0 -.966-.202 2.134 2.134 0 0 0 -.965.202 1.882 1.882 0 0 0 -.674.494 2.41 2.41 0 0 0 -.426.74 5.19 5.19 0 0 0 -.202.831zm12.929-1.751q-.449-.112-1.055-.225a6.043 6.043 0 0 0 -1.302-.134 5.256 5.256 0 0 0 -.763.067 3.802 3.802 0 0 0 -.651.112v9.024h-3.344v-11.178a18.48 18.48 0 0 1 2.11-.584 11.885 11.885 0 0 1 2.738-.292 5.679 5.679 0 0 1 .65.045 6.601 6.601 0 0 1 .764.09 7.002 7.002 0 0 1 .763.134 3.084 3.084 0 0 1 .65.18zm2.354-2.558a17.475 17.475 0 0 1 2.2-.45 17.137 17.137 0 0 1 2.828-.223 6.633 6.633 0 0 1 2.49.403 3.678 3.678 0 0 1 1.595 1.1 4.34 4.34 0 0 1 .83 1.706 9.114 9.114 0 0 1 .248 2.2v6.667h-3.345v-6.263a4.506 4.506 0 0 0 -.427-2.29 1.74 1.74 0 0 0 -1.593-.673 6.897 6.897 0 0 0 -.763.045c-.27.015-.51.038-.72.067v9.114h-3.343zm12.678 5.589a7.291 7.291 0 0 1 .471-2.739 6.006 6.006 0 0 1 1.28-1.975 5.29 5.29 0 0 1 1.795-1.19 5.756 5.756 0 0 1 2.11-.404 5.197 5.197 0 0 1 3.973 1.55 6.294 6.294 0 0 1 1.46 4.511q0 .291-.023.65-.022.338-.045.606h-7.587a2.224 2.224 0 0 0 .965 1.64 3.881 3.881 0 0 0 2.29.605 10.132 10.132 0 0 0 1.796-.157 7.299 7.299 0 0 0 1.46-.426l.447 2.715a4.595 4.595 0 0 1 -.718.27 7.992 7.992 0 0 1 -1.01.225q-.538.111-1.167.18a11.767 11.767 0 0 1 -1.257.067 7.53 7.53 0 0 1 -2.783-.472 5.62 5.62 0 0 1 -1.953-1.279 5.429 5.429 0 0 1 -1.145-1.953 7.931 7.931 0 0 1 -.359-2.424m7.856-1.28a3.14 3.14 0 0 0 -.157-.83 1.854 1.854 0 0 0 -.382-.719 1.878 1.878 0 0 0 -.65-.516 2.045 2.045 0 0 0 -.966-.202 2.134 2.134 0 0 0 -.965.202 1.87 1.87 0 0 0 -.673.494 2.392 2.392 0 0 0 -.427.74 5.19 5.19 0 0 0 -.202.831zm5.701-7.654 3.344-.539v3.48h4.018v2.783h-4.018v4.152a3.382 3.382 0 0 0 .36 1.684 1.617 1.617 0 0 0 1.504.628 6.96 6.96 0 0 0 1.1-.09 6.417 6.417 0 0 0 1.054-.29l.472 2.602a9.492 9.492 0 0 1 -1.347.427 7.89 7.89 0 0 1 -1.818.18 6.14 6.14 0 0 1 -2.267-.36 3.711 3.711 0 0 1 -1.437-1.032 4.056 4.056 0 0 1 -.763-1.616 9.968 9.968 0 0 1 -.202-2.088v-9.92m9.065 8.933a7.291 7.291 0 0 1 .47-2.739 6.006 6.006 0 0 1 1.28-1.975 5.29 5.29 0 0 1 1.796-1.19 5.756 5.756 0 0 1 2.11-.404 5.197 5.197 0 0 1 3.973 1.55 6.298 6.298 0 0 1 1.46 4.511c-.001.194-.008.411-.023.65q-.023.338-.045.606h-7.587a2.224 2.224 0 0 0 .965 1.64 3.881 3.881 0 0 0 2.29.605 10.132 10.132 0 0 0 1.796-.157 7.299 7.299 0 0 0 1.459-.426l.448 2.715a4.595 4.595 0 0 1 -.718.27 7.992 7.992 0 0 1 -1.01.225q-.539.111-1.167.18a11.767 11.767 0 0 1 -1.257.067 7.53 7.53 0 0 1 -2.783-.472 5.62 5.62 0 0 1 -1.953-1.279 5.43 5.43 0 0 1 -1.145-1.953 7.931 7.931 0 0 1 -.36-2.424m7.857-1.28a3.14 3.14 0 0 0 -.157-.83 1.854 1.854 0 0 0 -.382-.719 1.878 1.878 0 0 0 -.651-.516 2.045 2.045 0 0 0 -.965-.202 2.134 2.134 0 0 0 -.965.202 1.882 1.882 0 0 0 -.674.494 2.41 2.41 0 0 0 -.426.74 5.19 5.19 0 0 0 -.202.831zm9.202 4.691a3.333 3.333 0 0 0 1.302-.18.692.692 0 0 0 .381-.695.826.826 0 0 0 -.493-.696 8.618 8.618 0 0 0 -1.504-.696q-.786-.292-1.437-.606a4.408 4.408 0 0 1 -1.077-.74 3.155 3.155 0 0 1 -.696-1.056 3.855 3.855 0 0 1 -.247-1.459 3.152 3.152 0 0 1 1.235-2.626 5.367 5.367 0 0 1 3.39-.965 10.26 10.26 0 0 1 2.064.202 8.936 8.936 0 0 1 1.571.404l-.584 2.604a11.888 11.888 0 0 0 -1.279-.36 6.729 6.729 0 0 0 -1.526-.157q-1.572 0-1.57.876a.905.905 0 0 0 .066.36.845.845 0 0 0 .27.313q.202.135.538.314.359.158.898.36a12.6 12.6 0 0 1 1.818.808 3.785 3.785 0 0 1 1.122.853 2.39 2.39 0 0 1 .584 1.01 4.274 4.274 0 0 1 .18 1.301 2.992 2.992 0 0 1 -1.325 2.65 6.483 6.483 0 0 1 -3.703.897 10.857 10.857 0 0 1 -2.627-.269 10.628 10.628 0 0 1 -1.436-.45l.561-2.715a11.811 11.811 0 0 0 1.751.538 9.002 9.002 0 0 0 1.773.18"/><path d="m173.792 89.047 13.81 6.594 3.412 14.821-9.555 11.886-15.327.001-9.558-11.884 3.409-14.821z" fill="#fff"/><path d="m173.664 87.448a2.53 2.53 0 0 0 -.959.243l-13.08 6.25a2.523 2.523 0 0 0 -1.354 1.682l-3.227 14.039a2.497 2.497 0 0 0 .34 1.903 2.287 2.287 0 0 0 .142.197l9.054 11.257a2.55 2.55 0 0 0 1.956.934l14.52-.004a2.546 2.546 0 0 0 1.955-.932l9.05-11.258a2.507 2.507 0 0 0 .484-2.1l-3.233-14.04a2.52 2.52 0 0 0 -1.353-1.682l-13.082-6.246a2.528 2.528 0 0 0 -1.213-.243" fill="#326ce5"/><path d="m173.769 110.08a.695.695 0 0 1 .633.362h.014l1.993 3.6a8.251 8.251 0 0 1 -.796.222 8.086 8.086 0 0 1 -4.42-.227l1.989-3.594h.003a.688.688 0 0 1 .584-.364m-3.415-1.658a.69.69 0 0 1 .663.537.675.675 0 0 1 -.04.425l.013.015-1.565 3.784a8.1 8.1 0 0 1 -3.254-4.072l4.04-.686.008.008a.69.69 0 0 1 .135-.01m6.848-.018a.649.649 0 0 1 .159.012l.007-.009 4.076.69a8.068 8.068 0 0 1 -3.264 4.1l-1.582-3.823.005-.007a.69.69 0 0 1 .335-.895.68.68 0 0 1 .264-.068m-4.038-3.349h1.259l.783.98-.281 1.22-1.131.543-1.134-.545-.281-1.22zm7.529-2.96a8.214 8.214 0 0 1 1.18 5.088l-3.962-1.14-.003-.018a.69.69 0 0 1 -.271-1.186l-.002-.008zm-13.82-.003 3.075 2.75-.003.017a.69.69 0 0 1 -.271 1.186l-.004.013-3.941 1.138a8.072 8.072 0 0 1 1.144-5.104m7.903-3.794a8.128 8.128 0 0 1 4.69 2.262l-3.345 2.372-.011-.005a.692.692 0 0 1 -1.098-.527l-.003-.002zm-1.962 0-.233 4.107-.017.008a.69.69 0 0 1 -1.095.53l-.007.002-3.367-2.387a8.052 8.052 0 0 1 3.884-2.116 8.432 8.432 0 0 1 .835-.144m.98-6.073a.83.83 0 0 0 -.783.87l.002.022c-.001.065-.004.144-.002.201a6.56 6.56 0 0 0 .107.744 7.233 7.233 0 0 1 .087 1.421.856.856 0 0 1 -.254.404l-.02.331a10.27 10.27 0 0 0 -1.414.218 10.062 10.062 0 0 0 -5.115 2.923c-.087-.06-.238-.168-.283-.2a.62.62 0 0 1 -.465-.047 7.281 7.281 0 0 1 -1.056-.953 6.684 6.684 0 0 0 -.515-.547c-.048-.04-.121-.097-.174-.139a.937.937 0 0 0 -.546-.206.757.757 0 0 0 -.624.276.831.831 0 0 0 .193 1.155l.012.008c.05.042.114.095.162.13a6.548 6.548 0 0 0 .649.38 7.381 7.381 0 0 1 1.164.818.877.877 0 0 1 .158.452l.25.224a10.13 10.13 0 0 0 -1.597 7.063l-.328.096a1.088 1.088 0 0 1 -.336.34 7.281 7.281 0 0 1 -1.404.23 6.833 6.833 0 0 0 -.751.06c-.06.012-.144.033-.21.05l-.006.001-.011.003a.786.786 0 1 0 .347 1.526l.012-.002.015-.005c.065-.015.146-.03.203-.045a6.523 6.523 0 0 0 .702-.27 7.358 7.358 0 0 1 1.365-.4.868.868 0 0 1 .45.158l.342-.059a10.188 10.188 0 0 0 4.515 5.638l-.142.341a.78.78 0 0 1 .069.443 7.645 7.645 0 0 1 -.708 1.273 6.493 6.493 0 0 0 -.42.626c-.031.06-.071.15-.101.211a.786.786 0 1 0 1.414.671l.002-.002c.029-.062.07-.143.096-.2a6.218 6.218 0 0 0 .226-.718 5.514 5.514 0 0 1 .606-1.407.637.637 0 0 1 .338-.164l.177-.32a10.136 10.136 0 0 0 7.226.017c.05.09.142.26.167.301a.615.615 0 0 1 .399.243 7.26 7.26 0 0 1 .538 1.317 6.788 6.788 0 0 0 .227.717c.026.058.067.14.097.201a.787.787 0 1 0 1.416-.669c-.03-.062-.071-.152-.102-.21a6.724 6.724 0 0 0 -.42-.625 7.299 7.299 0 0 1 -.695-1.243.62.62 0 0 1 .06-.462 2.87 2.87 0 0 1 -.13-.316 10.186 10.186 0 0 0 4.513-5.678c.102.016.278.047.335.06a.616.616 0 0 1 .438-.163 7.247 7.247 0 0 1 1.366.401 6.567 6.567 0 0 0 .702.271c.057.015.138.03.203.043l.015.005.012.002a.785.785 0 1 0 .347-1.525c-.067-.016-.162-.042-.227-.054a6.593 6.593 0 0 0 -.751-.06 7.364 7.364 0 0 1 -1.404-.23.88.88 0 0 1 -.338-.34l-.316-.093a10.172 10.172 0 0 0 -1.631-7.046c.08-.074.234-.209.278-.249a.623.623 0 0 1 .147-.444 7.283 7.283 0 0 1 1.165-.818 6.544 6.544 0 0 0 .65-.379c.05-.038.119-.097.172-.14a.787.787 0 1 0 -.975-1.224c-.053.042-.126.098-.174.14a6.565 6.565 0 0 0 -.517.546 7.362 7.362 0 0 1 -1.055.955.879.879 0 0 1 -.476.052l-.297.212a10.263 10.263 0 0 0 -6.5-3.14 11.73 11.73 0 0 1 -.018-.349.621.621 0 0 1 -.256-.39 7.401 7.401 0 0 1 .088-1.422 6.34 6.34 0 0 0 .108-.744c.002-.063-.002-.155-.002-.223a.83.83 0 0 0 -.783-.87" fill="#fff"/></g><g clip-path="url(#g)"><g clip-path="url(#g)"><path d="m134.242 22.126h5.821v33.912h-5.821z" fill="#dc0569"/><path d="m140.062 22.126h5.821v33.912h-5.821z" fill="#db0569"/><path d="m145.883 22.126h5.821v33.912h-5.821z" fill="#da0569"/><path d="m151.704 22.126h5.821v33.912h-5.821z" fill="#d90669"/><path d="m157.524 22.126h5.821v33.912h-5.821z" fill="#d80669"/><path d="m163.345 22.126h5.821v33.912h-5.821z" fill="#d70669"/><path d="m169.165 22.126h5.821v33.912h-5.821z" fill="#d50669"/><path d="m174.986 22.126h5.821v33.912h-5.821z" fill="#d40768"/><path d="m180.806 22.126h5.821v33.912h-5.821z" fill="#d30768"/><path d="m186.627 22.126h5.821v33.912h-5.821z" fill="#d20768"/><path d="m192.448 22.126h5.821v33.912h-5.821z" fill="#d10768"/><path d="m198.268 22.126h5.821v33.912h-5.821z" fill="#d00868"/><path d="m204.089 22.126h5.821v33.912h-5.821z" fill="#cf0868"/><path d="m209.909 22.126h5.821v33.912h-5.821z" fill="#ce0868"/><path d="m215.73 22.126h5.821v33.912h-5.821z" fill="#cd0868"/><path d="m221.551 22.126h5.821v33.912h-5.821z" fill="#cc0968"/><path d="m227.371 22.126h5.821v33.912h-5.821z" fill="#cb0968"/><path d="m233.192 22.126h5.821v33.912h-5.821z" fill="#ca0968"/><path d="m239.012 22.126h5.821v33.912h-5.821z" fill="#c90968"/><path d="m244.833 22.126h5.821v33.912h-5.821z" fill="#c70a68"/><path d="m250.653 22.126h5.821v33.912h-5.821z" fill="#c60a68"/><path d="m256.474 22.126h5.821v33.912h-5.821z" fill="#c50a67"/><path d="m262.295 22.126h5.821v33.912h-5.821z" fill="#c40a67"/><path d="m268.115 22.126h5.821v33.912h-5.821z" fill="#c30b67"/><path d="m273.936 22.126h5.821v33.912h-5.821z" fill="#c20b67"/><path d="m279.756 22.126h5.821v33.912h-5.821z" fill="#c10b67"/><path d="m285.577 22.126h5.821v33.912h-5.821z" fill="#c00b67"/><path d="m291.397 22.126h5.821v33.912h-5.821z" fill="#bf0b67"/><path d="m297.218 22.126h5.821v33.912h-5.821z" fill="#be0c67"/><path d="m303.039 22.126h5.821v33.912h-5.821z" fill="#bd0c67"/><path d="m308.859 22.126h5.821v33.912h-5.821z" fill="#bc0c67"/><path d="m314.68 22.126h5.821v33.912h-5.821z" fill="#bb0c67"/><path d="m320.5 22.126h5.821v33.912h-5.821z" fill="#ba0d67"/><path d="m326.321 22.126h5.821v33.912h-5.821z" fill="#b90d67"/><path d="m332.142 22.126h5.821v33.912h-5.821z" fill="#b80d67"/><path d="m337.962 22.126h5.821v33.912h-5.821z" fill="#b60d66"/><path d="m343.783 22.126h5.821v33.912h-5.821z" fill="#b50e66"/><path d="m349.603 22.126h5.821v33.912h-5.821z" fill="#b40e66"/><path d="m355.424 22.126h5.821v33.912h-5.821z" fill="#b30e66"/><path d="m361.245 22.126h5.821v33.912h-5.821z" fill="#b20e66"/><path d="m367.065 22.126h5.821v33.912h-5.821z" fill="#b10f66"/><path d="m372.886 22.126h5.821v33.912h-5.821z" fill="#b00f66"/><path d="m378.706 22.126h5.821v33.912h-5.821z" fill="#af0f66"/><path d="m384.527 22.126h5.821v33.912h-5.821z" fill="#ae0f66"/><path d="m390.347 22.126h5.821v33.912h-5.821z" fill="#ad0f66"/><path d="m396.168 22.126h5.821v33.912h-5.821z" fill="#ac1066"/><path d="m401.989 22.126h5.821v33.912h-5.821z" fill="#ab1066"/><path d="m407.809 22.126h5.821v33.912h-5.821z" fill="#aa1066"/><path d="m413.63 22.126h5.821v33.912h-5.821z" fill="#a91066"/><path d="m419.45 22.126h5.821v33.912h-5.821z" fill="#a81165"/><path d="m425.271 22.126h5.821v33.912h-5.821z" fill="#a71165"/><path d="m431.091 22.126h5.821v33.912h-5.821z" fill="#a61165"/><path d="m436.912 22.126h5.821v33.912h-5.821z" fill="#a51165"/><path d="m442.733 22.126h5.821v33.912h-5.821z" fill="#a41265"/><path d="m448.553 22.126h5.821v33.912h-5.821z" fill="#a31265"/><path d="m454.374 22.126h5.821v33.912h-5.821z" fill="#a21265"/><path d="m460.194 22.126h5.821v33.912h-5.821z" fill="#a11265"/><path d="m466.015 22.126h5.821v33.912h-5.821z" fill="#a01265"/><path d="m471.836 22.126h5.821v33.912h-5.821z" fill="#9f1365"/><path d="m477.656 22.126h5.821v33.912h-5.821z" fill="#9e1365"/><path d="m483.477 22.126h5.821v33.912h-5.821z" fill="#9d1365"/><path d="m489.297 22.126h5.821v33.912h-5.821z" fill="#9c1365"/><path d="m495.118 22.126h5.821v33.912h-5.821z" fill="#9b1465"/><path d="m500.938 22.126h5.821v33.912h-5.821z" fill="#9a1464"/><path d="m506.759 22.126h5.821v33.912h-5.821z" fill="#991464"/><path d="m512.58 22.126h5.821v33.912h-5.821z" fill="#981464"/><path d="m518.4 22.126h5.821v33.912h-5.821z" fill="#971564"/><path d="m524.221 22.126h5.821v33.912h-5.821z" fill="#961564"/><path d="m530.041 22.126h5.821v33.912h-5.821z" fill="#951564"/><path d="m535.862 22.126h5.821v33.912h-5.821z" fill="#941564"/><path d="m541.683 22.126h5.821v33.912h-5.821z" fill="#931564"/><path d="m547.503 22.126h5.821v33.912h-5.821z" fill="#921664"/><path d="m553.324 22.126h5.821v33.912h-5.821z" fill="#911664"/><path d="m559.144 22.126h5.821v33.912h-5.821z" fill="#901664"/><path d="m564.965 22.126h5.821v33.912h-5.821z" fill="#8f1664"/><path d="m570.785 22.126h5.821v33.912h-5.821z" fill="#8e1764"/><path d="m576.606 22.126h5.821v33.912h-5.821z" fill="#8d1764"/><path d="m582.427 22.126h5.821v33.912h-5.821z" fill="#8c1764"/><path d="m588.247 22.126h5.821v33.912h-5.821z" fill="#8b1763"/><path d="m594.068 22.126h5.821v33.912h-5.821z" fill="#8a1763"/><path d="m599.888 22.126h5.821v33.912h-5.821z" fill="#891863"/><path d="m605.709 22.126h5.821v33.912h-5.821z" fill="#881863"/><path d="m611.53 22.126h5.821v33.912h-5.821z" fill="#871863"/><path d="m617.35 22.126h5.821v33.912h-5.821z" fill="#861863"/><path d="m623.171 22.126h5.821v33.912h-5.821z" fill="#851863"/><path d="m628.991 22.126h5.821v33.912h-5.821z" fill="#841963"/><path d="m634.812 22.126h5.821v33.912h-5.821z" fill="#831963"/><path d="m640.632 22.126h5.821v33.912h-5.821z" fill="#821963"/><path d="m646.453 22.126h5.821v33.912h-5.821z" fill="#811963"/><path d="m652.274 22.126h5.821v33.912h-5.821z" fill="#801a63"/><path d="m658.094 22.126h5.821v33.912h-5.821z" fill="#7f1a63"/><path d="m663.915 22.126h5.821v33.912h-5.821z" fill="#7e1a63"/><path d="m669.735 22.126h5.821v33.912h-5.821zm5.821 0h5.821v33.912h-5.821z" fill="#7d1a63"/><path d="m681.377 22.126h5.821v33.912h-5.821z" fill="#7c1b62"/><path d="m687.197 22.126h5.821v33.912h-5.821z" fill="#7b1b62"/><path d="m693.018 22.126h5.821v33.912h-5.821z" fill="#7a1b62"/><path d="m698.838 22.126h5.821v33.912h-5.821z" fill="#791b62"/><path d="m704.659 22.126h5.821v33.912h-5.821z" fill="#781b62"/><path d="m710.479 22.126h5.821v33.912h-5.821z" fill="#771b62"/><path d="m716.3 22.126h5.821v33.912h-5.821zm5.821 0h5.821v33.912h-5.821z" fill="#761c62"/><path d="m727.941 22.126h5.821v33.912h-5.821z" fill="#751c62"/></g></g><path d="m196.736 44.641v-4.771h-5.095v4.771h-2.197v-10.803h2.197v4.177h5.095v-4.177h2.197v10.802zm10.368.306a5.709 5.709 0 1 1 5.834-5.707 5.663 5.663 0 0 1 -5.834 5.707zm0-9.669c-2.16 0-3.583 1.621-3.583 3.962 0 2.34 1.422 3.96 3.583 3.96 2.125 0 3.529-1.62 3.529-3.96s-1.404-3.962-3.53-3.962zm17.083 9.363h-2.412l-2.99-4.303h-1.35v4.303h-2.197v-10.803h4.25c2.556 0 3.655 1.512 3.655 3.258a2.946 2.946 0 0 1 -2.161 3.008zm-6.752-5.851h1.692c1.37 0 1.855-.72 1.855-1.675 0-.973-.486-1.711-1.855-1.711h-1.692zm8.693 5.851v-10.803h2.196v10.802zm12.512-9.741-5.257 8.03h5.222v1.711h-7.995v-1.061l5.258-8.03h-5.185v-1.711h7.958zm7.127 10.047a5.709 5.709 0 1 1 5.834-5.707 5.663 5.663 0 0 1 -5.834 5.707zm0-9.669c-2.16 0-3.583 1.621-3.583 3.962 0 2.34 1.423 3.96 3.583 3.96 2.125 0 3.529-1.62 3.529-3.96s-1.404-3.962-3.53-3.962zm15.751 9.363-5.654-7.13v7.13h-1.963v-10.803h1.53l5.654 7.13v-7.13h1.963v10.802zm9.216-9.092v9.092h-2.198v-9.091h-3.655v-1.711h9.507v1.71zm11.79 9.092-1.1-2.665h-4.374l-1.099 2.665h-2.124l4.591-10.803h1.711l4.59 10.803zm-3.278-8.12-1.602 3.925h3.187zm7.272 8.12v-10.803h2.196v9.092h4.844v1.711z" fill="#fff"/><g clip-path="url(#h)"><path d="m389.225 139.733q.462-.504.945-1.05.504-.546.965-1.07.462-.546.86-1.029.42-.483.715-.84h3.716q-1.113 1.281-2.183 2.456-1.05 1.155-2.31 2.394a13.858 13.858 0 0 1 1.302 1.364q.672.777 1.302 1.617t1.154 1.68q.525.84.882 1.532h-3.59q-.336-.546-.777-1.197-.42-.67-.902-1.322a15.254 15.254 0 0 0 -1.03-1.28 8.008 8.008 0 0 0 -1.05-1.03v4.83h-3.127v-15.789l3.128-.504zm18.23 6.677a16.368 16.368 0 0 1 -2.057.42 16.084 16.084 0 0 1 -2.646.21 6.361 6.361 0 0 1 -2.35-.378 3.608 3.608 0 0 1 -1.47-1.05 4.22 4.22 0 0 1 -.777-1.637 8.753 8.753 0 0 1 -.23-2.08v-6.15h3.127v5.773a4.469 4.469 0 0 0 .4 2.183 1.584 1.584 0 0 0 1.49.673q.335 0 .713-.021.378-.042.672-.084v-8.524h3.128zm10.032-5.228q0-3.022-2.226-3.023a3.81 3.81 0 0 0 -.965.126 2.729 2.729 0 0 0 -.756.315v5.69q.231.041.588.083.357.021.777.021a2.248 2.248 0 0 0 1.931-.882 3.828 3.828 0 0 0 .651-2.33m3.191.084a6.81 6.81 0 0 1 -.399 2.393 4.938 4.938 0 0 1 -1.113 1.827 5.038 5.038 0 0 1 -1.805 1.176 6.967 6.967 0 0 1 -2.435.398q-.567 0-1.197-.063-.609-.042-1.218-.126-.588-.084-1.133-.188a16.36 16.36 0 0 1 -.966-.252v-15.43l3.128-.505v5.5a5.932 5.932 0 0 1 1.092-.356 5.538 5.538 0 0 1 1.217-.126 4.894 4.894 0 0 1 2.08.42 3.971 3.971 0 0 1 1.51 1.154 5.225 5.225 0 0 1 .924 1.827 8.161 8.161 0 0 1 .315 2.351m1.88.084a6.816 6.816 0 0 1 .44-2.562 5.633 5.633 0 0 1 1.197-1.847 4.962 4.962 0 0 1 1.68-1.113 5.375 5.375 0 0 1 1.974-.378 4.856 4.856 0 0 1 3.715 1.45 5.883 5.883 0 0 1 1.365 4.22q0 .27-.021.607c-.014.211-.028.4-.042.567h-7.096a2.08 2.08 0 0 0 .903 1.533 3.626 3.626 0 0 0 2.14.567 9.492 9.492 0 0 0 1.68-.147 6.744 6.744 0 0 0 1.366-.399l.419 2.54a4.322 4.322 0 0 1 -.672.252 7.32 7.32 0 0 1 -.944.21q-.504.105-1.092.168a11.028 11.028 0 0 1 -1.176.063 7.043 7.043 0 0 1 -2.603-.44 5.247 5.247 0 0 1 -1.826-1.197 5.082 5.082 0 0 1 -1.071-1.827 7.4 7.4 0 0 1 -.336-2.267m7.348-1.197a2.935 2.935 0 0 0 -.147-.777 1.732 1.732 0 0 0 -.357-.672 1.76 1.76 0 0 0 -.61-.483 1.93 1.93 0 0 0 -.901-.188 2.013 2.013 0 0 0 -.903.188 1.766 1.766 0 0 0 -.63.462 2.246 2.246 0 0 0 -.4.693 4.84 4.84 0 0 0 -.188.777zm12.092-1.637q-.42-.105-.987-.21a5.606 5.606 0 0 0 -1.217-.126 4.938 4.938 0 0 0 -.714.063 3.544 3.544 0 0 0 -.609.105v8.44h-3.128v-10.455a17.553 17.553 0 0 1 1.973-.547 11.204 11.204 0 0 1 2.561-.272 5.34 5.34 0 0 1 .61.042 6.199 6.199 0 0 1 .713.084 6.358 6.358 0 0 1 .714.126 2.851 2.851 0 0 1 .61.168zm2.202-2.394a16.37 16.37 0 0 1 2.057-.42 16.081 16.081 0 0 1 2.646-.21 6.193 6.193 0 0 1 2.33.378 3.433 3.433 0 0 1 1.49 1.03 4.032 4.032 0 0 1 .777 1.594 8.492 8.492 0 0 1 .23 2.058v6.235h-3.127v-5.857a4.218 4.218 0 0 0 -.4-2.142 1.626 1.626 0 0 0 -1.49-.63 6.485 6.485 0 0 0 -.713.042q-.378.021-.672.063v8.524h-3.128zm11.858 5.228a6.816 6.816 0 0 1 .441-2.562 5.633 5.633 0 0 1 1.196-1.847 4.962 4.962 0 0 1 1.68-1.113 5.375 5.375 0 0 1 1.974-.378 4.856 4.856 0 0 1 3.715 1.45 5.883 5.883 0 0 1 1.365 4.22q0 .27-.02.607c-.015.211-.029.4-.043.567h-7.096a2.08 2.08 0 0 0 .903 1.533 3.626 3.626 0 0 0 2.141.567 9.492 9.492 0 0 0 1.68-.147 6.744 6.744 0 0 0 1.365-.399l.42 2.54a4.322 4.322 0 0 1 -.673.252 7.32 7.32 0 0 1 -.944.21q-.504.105-1.092.168a11.028 11.028 0 0 1 -1.176.063 7.043 7.043 0 0 1 -2.603-.44 5.247 5.247 0 0 1 -1.826-1.197 5.082 5.082 0 0 1 -1.07-1.827 7.4 7.4 0 0 1 -.337-2.267m7.348-1.197a2.935 2.935 0 0 0 -.147-.777 1.732 1.732 0 0 0 -.357-.672 1.76 1.76 0 0 0 -.609-.483 1.93 1.93 0 0 0 -.902-.188 2.013 2.013 0 0 0 -.903.188 1.766 1.766 0 0 0 -.63.462 2.246 2.246 0 0 0 -.399.693 4.84 4.84 0 0 0 -.189.777zm5.333-7.159 3.128-.504v3.254h3.758v2.603h-3.758v3.885a3.169 3.169 0 0 0 .336 1.574 1.514 1.514 0 0 0 1.407.588 6.495 6.495 0 0 0 1.028-.084 5.912 5.912 0 0 0 .987-.273l.44 2.435a8.904 8.904 0 0 1 -1.26.4 7.327 7.327 0 0 1 -1.7.167 5.757 5.757 0 0 1 -2.12-.336 3.468 3.468 0 0 1 -1.343-.965 3.786 3.786 0 0 1 -.714-1.512 9.334 9.334 0 0 1 -.19-1.952v-9.28m8.479 8.356a6.816 6.816 0 0 1 .44-2.562 5.633 5.633 0 0 1 1.197-1.847 4.962 4.962 0 0 1 1.68-1.113 5.375 5.375 0 0 1 1.974-.378 4.86 4.86 0 0 1 3.716 1.45 5.888 5.888 0 0 1 1.364 4.22q0 .27-.021.607c-.014.211-.028.4-.042.567h-7.096a2.08 2.08 0 0 0 .903 1.533 3.626 3.626 0 0 0 2.14.567 9.492 9.492 0 0 0 1.68-.147 6.744 6.744 0 0 0 1.366-.399l.419 2.54a4.32 4.32 0 0 1 -.672.252 7.283 7.283 0 0 1 -.944.21q-.504.105-1.092.168a11.028 11.028 0 0 1 -1.176.063 7.043 7.043 0 0 1 -2.603-.44 5.247 5.247 0 0 1 -1.826-1.197 5.082 5.082 0 0 1 -1.071-1.827 7.4 7.4 0 0 1 -.336-2.267m7.348-1.197a2.936 2.936 0 0 0 -.147-.777 1.732 1.732 0 0 0 -.357-.672 1.76 1.76 0 0 0 -.61-.483 1.93 1.93 0 0 0 -.901-.188 2.012 2.012 0 0 0 -.903.188 1.766 1.766 0 0 0 -.63.462 2.246 2.246 0 0 0 -.4.693 4.84 4.84 0 0 0 -.188.777zm8.607 4.388a3.123 3.123 0 0 0 1.218-.168.649.649 0 0 0 .357-.65.775.775 0 0 0 -.462-.652 8.093 8.093 0 0 0 -1.407-.65q-.735-.274-1.343-.567a4.135 4.135 0 0 1 -1.008-.693 2.958 2.958 0 0 1 -.651-.987 3.615 3.615 0 0 1 -.231-1.365 2.951 2.951 0 0 1 1.155-2.456 5.019 5.019 0 0 1 3.17-.903 9.677 9.677 0 0 1 1.93.19 8.446 8.446 0 0 1 1.47.377l-.545 2.436a11.223 11.223 0 0 0 -1.197-.336 6.3 6.3 0 0 0 -1.427-.147q-1.47 0-1.47.82a.841.841 0 0 0 .063.334.78.78 0 0 0 .252.294q.189.126.504.294.336.147.84.336a11.856 11.856 0 0 1 1.7.756 3.567 3.567 0 0 1 1.05.798 2.234 2.234 0 0 1 .546.945 3.995 3.995 0 0 1 .168 1.217 2.798 2.798 0 0 1 -1.24 2.477 6.06 6.06 0 0 1 -3.463.84 10.106 10.106 0 0 1 -2.456-.252 9.975 9.975 0 0 1 -1.344-.42l.525-2.54a11.074 11.074 0 0 0 1.638.504 8.426 8.426 0 0 0 1.658.168"/><path d="m441.972 66.756 23.814 11.371 5.885 25.557-16.477 20.497-26.431.003-16.482-20.493 5.879-25.558z" fill="#fff"/><path d="m441.751 63.998a4.343 4.343 0 0 0 -1.653.418l-22.557 10.778a4.348 4.348 0 0 0 -2.334 2.902l-5.564 24.21a4.3 4.3 0 0 0 .585 3.28c.076.117.158.231.245.34l15.613 19.413a4.392 4.392 0 0 0 3.372 1.61l25.038-.006a4.396 4.396 0 0 0 3.372-1.607l15.608-19.416a4.316 4.316 0 0 0 .833-3.62l-5.573-24.209a4.353 4.353 0 0 0 -2.334-2.903l-22.56-10.772a4.37 4.37 0 0 0 -2.091-.418" fill="#326ce5"/><path d="m441.931 103.024a1.205 1.205 0 0 1 1.091.626h.025l3.437 6.209q-.67.223-1.374.383a13.96 13.96 0 0 1 -7.619-.392l3.427-6.197h.006a1.193 1.193 0 0 1 1.007-.63m-5.888-2.857a1.19 1.19 0 0 1 1.076 1.658l.02.026-2.7 6.526a13.99 13.99 0 0 1 -5.611-7.022l6.97-1.183.012.015a1.08 1.08 0 0 1 .233-.02m11.807-.03a1.148 1.148 0 0 1 .275.02l.011-.013 7.031 1.188a13.927 13.927 0 0 1 -5.629 7.07l-2.729-6.591.009-.012a1.191 1.191 0 0 1 .577-1.543 1.16 1.16 0 0 1 .455-.118m-6.963-5.776h2.172l1.35 1.688-.484 2.105-1.951.938-1.956-.94-.484-2.106zm12.984-5.106a14.156 14.156 0 0 1 2.034 8.776l-6.831-1.968-.006-.03a1.19 1.19 0 0 1 -.467-2.044l-.003-.015zm-23.831-.003 5.302 4.742-.006.03a1.19 1.19 0 0 1 -.467 2.045l-.006.023-6.797 1.962a13.911 13.911 0 0 1 1.974-8.802m13.628-6.543a14.03 14.03 0 0 1 8.089 3.9l-5.77 4.09-.02-.008a1.19 1.19 0 0 1 -1.633-.22 1.176 1.176 0 0 1 -.259-.688l-.006-.003zm-3.384 0-.401 7.082-.029.015a1.19 1.19 0 0 1 -1.89.91l-.011.008-5.807-4.117a13.905 13.905 0 0 1 6.698-3.65 14.275 14.275 0 0 1 1.44-.248m1.69-10.472a1.431 1.431 0 0 0 -1.35 1.5c0 .013.003.025.003.038-.001.112-.006.248-.003.346a11.232 11.232 0 0 0 .185 1.284 12.556 12.556 0 0 1 .15 2.449 1.47 1.47 0 0 1 -.439.698l-.032.57a17.553 17.553 0 0 0 -2.44.376 17.367 17.367 0 0 0 -8.822 5.04 27.08 27.08 0 0 1 -.488-.346 1.069 1.069 0 0 1 -.802-.078 12.66 12.66 0 0 1 -1.82-1.645 11.263 11.263 0 0 0 -.889-.943c-.082-.071-.207-.166-.299-.24a1.608 1.608 0 0 0 -.941-.354 1.3 1.3 0 0 0 -1.076.476 1.43 1.43 0 0 0 .332 1.99l.02.015c.089.072.198.165.28.225a11.222 11.222 0 0 0 1.119.655 12.623 12.623 0 0 1 2.008 1.41 1.498 1.498 0 0 1 .271.78l.433.386a17.47 17.47 0 0 0 -2.755 12.18l-.565.165a1.873 1.873 0 0 1 -.58.585 12.606 12.606 0 0 1 -2.421.398 11.325 11.325 0 0 0 -1.295.104c-.103.019-.248.057-.361.084l-.011.003-.02.005a1.355 1.355 0 1 0 .6 2.63l.02-.001a.274.274 0 0 1 .026-.01c.112-.024.251-.051.349-.077a11.434 11.434 0 0 0 1.212-.465 12.691 12.691 0 0 1 2.354-.692 1.5 1.5 0 0 1 .776.274l.588-.101a17.571 17.571 0 0 0 7.787 9.722l-.246.588a1.342 1.342 0 0 1 .12.764 13.192 13.192 0 0 1 -1.222 2.196 11.51 11.51 0 0 0 -.724 1.079c-.053.1-.122.257-.173.364a1.356 1.356 0 1 0 2.438 1.157l.002-.003v-.003c.052-.106.124-.244.168-.344a11.173 11.173 0 0 0 .389-1.237 9.447 9.447 0 0 1 1.046-2.425 1.089 1.089 0 0 1 .581-.284l.306-.554a17.474 17.474 0 0 0 12.46.032l.288.519a1.066 1.066 0 0 1 .69.419 12.614 12.614 0 0 1 .926 2.27 11.206 11.206 0 0 0 .392 1.237c.044.1.116.24.167.347a1.356 1.356 0 1 0 2.441-1.154c-.052-.107-.123-.263-.176-.364a11.31 11.31 0 0 0 -.724-1.075 12.654 12.654 0 0 1 -1.197-2.144 1.056 1.056 0 0 1 .104-.797 4.653 4.653 0 0 1 -.226-.545 17.565 17.565 0 0 0 7.784-9.791c.175.028.478.08.577.1a1.07 1.07 0 0 1 .756-.28 12.568 12.568 0 0 1 2.354.694 11.14 11.14 0 0 0 1.212.467c.097.026.237.05.348.075.01.002.018.007.027.009a.13.13 0 0 1 .019.003 1.356 1.356 0 1 0 .601-2.632c-.116-.026-.28-.071-.393-.092a11.09 11.09 0 0 0 -1.295-.103 12.654 12.654 0 0 1 -2.42-.4 1.515 1.515 0 0 1 -.583-.584l-.545-.16a17.539 17.539 0 0 0 -2.813-12.15c.14-.127.404-.361.479-.43a1.065 1.065 0 0 1 .254-.764 12.575 12.575 0 0 1 2.008-1.411 11.472 11.472 0 0 0 1.122-.655c.087-.064.206-.166.297-.24a1.357 1.357 0 1 0 -1.682-2.111c-.092.073-.217.168-.3.239a11.329 11.329 0 0 0 -.892.944 12.585 12.585 0 0 1 -1.82 1.647 1.498 1.498 0 0 1 -.819.089l-.513.367a17.695 17.695 0 0 0 -11.208-5.415c-.012-.18-.028-.505-.032-.603a1.074 1.074 0 0 1 -.442-.675 12.734 12.734 0 0 1 .153-2.45 11.018 11.018 0 0 0 .185-1.283c.004-.11-.002-.266-.002-.384a1.432 1.432 0 0 0 -1.351-1.5" fill="#fff"/></g><path d="m412.918 44.857a5.783 5.783 0 0 1 -3.835-1.35l.504-1.729a4.88 4.88 0 0 0 3.331 1.46c1.081 0 1.91-.54 1.91-1.496 0-.9-.506-1.368-2.27-1.8-2.269-.558-3.168-1.764-3.168-3.313 0-1.765 1.404-3.043 3.726-3.043a5.471 5.471 0 0 1 3.241 1.062l-.467 1.53a5.446 5.446 0 0 0 -2.791-.936c-1.063 0-1.693.469-1.693 1.243 0 .63.378 1.116 1.855 1.476 2.52.63 3.6 1.693 3.6 3.565 0 2.323-1.908 3.331-3.943 3.331zm10.675-9.308v9.092h-2.197v-9.091h-3.656v-1.711h9.507v1.71zm11.791 9.092-1.099-2.665h-4.375l-1.098 2.665h-2.125l4.591-10.803h1.711l4.591 10.803zm-3.277-8.12-1.603 3.925h3.188zm11.843 8.354a5.638 5.638 0 1 1 0-11.27 6.513 6.513 0 0 1 3.764 1.097v1.998a5.255 5.255 0 0 0 -3.53-1.333 3.584 3.584 0 0 0 -3.727 3.872 3.594 3.594 0 0 0 3.728 3.871 5.255 5.255 0 0 0 3.529-1.333v2a6.513 6.513 0 0 1 -3.764 1.097zm13.142-.234-4.79-5.095v5.095h-2.196v-10.803h2.196v4.933l4.376-4.933h2.394l-4.664 5.15 5.384 5.653zm4.173 0v-10.803h7.04v1.71h-4.844v2.54h3.943v1.71h-3.943v3.132h4.844v1.711zm13.339 0h-3.8v-10.803h3.8c4.32 0 6.14 2.43 6.14 5.402 0 2.97-1.82 5.401-6.14 5.401zm-.108-9.039h-1.495v7.275h1.495c2.952 0 3.997-1.477 3.997-3.637 0-2.161-1.045-3.638-3.997-3.638zm162.762 34.235 29.612 14.14 7.317 31.78-20.488 25.487-32.867.003-20.494-25.483 7.31-31.78z" fill="#fff"/><g clip-path="url(#i)"><path d="m636.983 66.407a5.409 5.409 0 0 0 -2.056.52l-28.047 13.402a5.407 5.407 0 0 0 -2.903 3.608l-6.919 30.105a5.344 5.344 0 0 0 .728 4.078c.095.146.196.287.305.424l19.414 24.139a5.464 5.464 0 0 0 4.193 2l31.134-.006a5.462 5.462 0 0 0 4.193-2l19.407-24.141a5.366 5.366 0 0 0 1.037-4.502l-6.93-30.103a5.41 5.41 0 0 0 -2.902-3.61l-28.052-13.394a5.43 5.43 0 0 0 -2.6-.52" fill="#326ce5"/><path d="m637.206 114.934a1.498 1.498 0 0 1 1.357.78h.032l4.272 7.718a17.548 17.548 0 0 1 -1.708.477 17.347 17.347 0 0 1 -9.473-.487l4.261-7.706h.008a1.48 1.48 0 0 1 1.251-.782m-7.32-3.555a1.48 1.48 0 0 1 1.42 1.152 1.461 1.461 0 0 1 -.083.911l.025.032-3.357 8.114a17.382 17.382 0 0 1 -6.978-8.73l8.667-1.47.015.017a1.51 1.51 0 0 1 .29-.026m14.682-.036a1.436 1.436 0 0 1 .341.026l.015-.018 8.742 1.477a17.317 17.317 0 0 1 -6.999 8.793l-3.393-8.197.01-.015a1.486 1.486 0 0 1 1.284-2.066m-8.659-7.18h2.701l1.68 2.097-.604 2.62-2.425 1.165-2.432-1.169-.603-2.619zm16.146-6.35a17.614 17.614 0 0 1 2.53 10.912l-8.495-2.447-.008-.036a1.48 1.48 0 0 1 -.58-2.543l-.004-.018zm-29.634-.004 6.593 5.897-.007.036a1.478 1.478 0 0 1 .187 2.037 1.493 1.493 0 0 1 -.768.507l-.008.028-8.45 2.44a17.289 17.289 0 0 1 2.453-10.945m16.946-8.136a17.44 17.44 0 0 1 10.06 4.85l-7.176 5.086-.025-.01a1.481 1.481 0 0 1 -2.03-.273 1.46 1.46 0 0 1 -.323-.857l-.007-.004zm-4.208 0-.499 8.806-.036.018a1.48 1.48 0 0 1 -2.349 1.134l-.014.007-7.22-5.119a17.298 17.298 0 0 1 8.328-4.538 17.873 17.873 0 0 1 1.79-.308m2.102-13.022a1.78 1.78 0 0 0 -1.679 1.865c0 .017.004.032.004.047 0 .14-.008.31-.004.431a14.185 14.185 0 0 0 .23 1.596 15.706 15.706 0 0 1 .187 3.045 1.832 1.832 0 0 1 -.546.87l-.039.71a21.672 21.672 0 0 0 -14.005 6.732c-.185-.127-.51-.359-.606-.43a1.327 1.327 0 0 1 -.997-.097 15.654 15.654 0 0 1 -2.263-2.045 14.153 14.153 0 0 0 -1.106-1.173c-.102-.088-.258-.207-.373-.298a1.997 1.997 0 0 0 -1.169-.44 1.616 1.616 0 0 0 -1.338.591 1.78 1.78 0 0 0 .412 2.475l.025.018c.111.09.247.205.348.28a14.092 14.092 0 0 0 1.392.814 15.657 15.657 0 0 1 2.497 1.755 1.869 1.869 0 0 1 .337.968l.538.481a21.73 21.73 0 0 0 -3.426 15.145l-.702.205a2.335 2.335 0 0 1 -.722.728 15.746 15.746 0 0 1 -3.009.495 14.004 14.004 0 0 0 -1.61.13c-.129.023-.309.07-.449.103l-.015.004-.025.006a1.685 1.685 0 1 0 .746 3.272.229.229 0 0 1 .026-.003c.011-.003.02-.008.031-.01.14-.032.313-.065.435-.098a14.133 14.133 0 0 0 1.507-.578 15.728 15.728 0 0 1 2.926-.86 1.866 1.866 0 0 1 .966.34l.731-.125a21.845 21.845 0 0 0 9.683 12.09l-.305.731a1.677 1.677 0 0 1 .15.95 16.374 16.374 0 0 1 -1.52 2.73 13.809 13.809 0 0 0 -.9 1.342c-.068.125-.153.32-.216.452a1.685 1.685 0 1 0 3.031 1.438l.003-.004v-.003c.064-.13.154-.304.208-.427a13.93 13.93 0 0 0 .484-1.539 11.77 11.77 0 0 1 1.3-3.016 1.363 1.363 0 0 1 .724-.352l.38-.689a21.706 21.706 0 0 0 15.493.04c.107.19.306.553.36.645a1.328 1.328 0 0 1 .856.52 15.635 15.635 0 0 1 1.152 2.824 13.89 13.89 0 0 0 .488 1.538c.054.125.144.3.208.431a1.687 1.687 0 1 0 3.035-1.435c-.065-.133-.153-.326-.219-.452a14.122 14.122 0 0 0 -.9-1.338 15.553 15.553 0 0 1 -1.489-2.666 1.316 1.316 0 0 1 .128-.989 5.85 5.85 0 0 1 -.279-.679 21.848 21.848 0 0 0 9.678-12.174c.218.034.595.1.717.125a1.33 1.33 0 0 1 .94-.348 15.743 15.743 0 0 1 2.928.861 13.77 13.77 0 0 0 1.507.581c.121.033.294.063.434.093.011.003.021.01.032.011l.025.004a1.685 1.685 0 1 0 .746-3.272c-.144-.032-.348-.088-.488-.115a14.22 14.22 0 0 0 -1.61-.129 15.682 15.682 0 0 1 -3.01-.495 1.885 1.885 0 0 1 -.725-.728l-.678-.197a21.818 21.818 0 0 0 -3.497-15.11c.174-.158.502-.448.595-.534a1.33 1.33 0 0 1 .316-.95 15.616 15.616 0 0 1 2.497-1.755 14.02 14.02 0 0 0 1.395-.814c.108-.08.256-.207.37-.298a1.688 1.688 0 1 0 -2.092-2.626c-.114.091-.27.21-.373.298a14.01 14.01 0 0 0 -1.108 1.173 15.688 15.688 0 0 1 -2.264 2.048 1.862 1.862 0 0 1 -1.019.111l-.638.456a22.008 22.008 0 0 0 -13.937-6.734 39.198 39.198 0 0 1 -.039-.749 1.33 1.33 0 0 1 -.549-.84 15.73 15.73 0 0 1 .19-3.045 13.964 13.964 0 0 0 .23-1.596c.005-.135-.003-.33-.004-.478a1.78 1.78 0 0 0 -1.679-1.865" fill="#fff"/></g><path d="m617.798 44.641v-10.803h2.196v10.802zm10.297.234a5.638 5.638 0 1 1 0-11.27 6.513 6.513 0 0 1 3.764 1.097v1.998a5.255 5.255 0 0 0 -3.53-1.333 3.584 3.584 0 0 0 -3.727 3.872 3.594 3.594 0 0 0 3.727 3.871 5.255 5.255 0 0 0 3.53-1.333v2a6.513 6.513 0 0 1 -3.764 1.097zm11.34.072a5.709 5.709 0 1 1 5.834-5.707 5.663 5.663 0 0 1 -5.834 5.707zm0-9.669c-2.16 0-3.583 1.621-3.583 3.962 0 2.34 1.423 3.96 3.583 3.96 2.125 0 3.529-1.62 3.529-3.96s-1.404-3.962-3.53-3.962zm15.769 9.363-5.653-7.13v7.13h-1.963v-10.803h1.53l5.654 7.13v-7.13h1.962v10.802z" fill="#fff"/><path d="m134.242 156.962h599.32v106.365h-599.32z" fill="#bcbec0"/><path d="m134.242 262.397h599.52v106.366h-599.52z" fill="#808285"/><g clip-path="url(#j)" fill="#fff"><path d="m392.602 348.134q.432-.47.884-.983.473-.51.904-1.002.432-.51.806-.963.393-.451.668-.786h3.478q-1.04 1.2-2.044 2.3-.982 1.08-2.16 2.24a12.882 12.882 0 0 1 1.217 1.277q.629.726 1.22 1.513.587.786 1.08 1.572t.825 1.434h-3.36q-.314-.51-.728-1.12-.393-.628-.845-1.238a14.354 14.354 0 0 0 -.962-1.198 7.55 7.55 0 0 0 -.983-.963v4.52h-2.928v-14.777l2.928-.472zm17.063 6.249a15.35 15.35 0 0 1 -1.926.393 15.046 15.046 0 0 1 -2.476.197 5.95 5.95 0 0 1 -2.2-.354 3.372 3.372 0 0 1 -1.376-.983 3.952 3.952 0 0 1 -.727-1.532 8.198 8.198 0 0 1 -.216-1.945v-5.759h2.928v5.404a4.185 4.185 0 0 0 .373 2.043 1.486 1.486 0 0 0 1.395.629q.315 0 .668-.02.354-.04.63-.078v-7.978h2.927v9.982m9.39-4.892q0-2.83-2.083-2.83a3.557 3.557 0 0 0 -.904.119 2.528 2.528 0 0 0 -.707.295v5.325c.144.026.328.052.55.078q.334.02.727.02a2.104 2.104 0 0 0 1.808-.825 3.592 3.592 0 0 0 .609-2.182m2.987.079a6.352 6.352 0 0 1 -.374 2.24 4.609 4.609 0 0 1 -1.041 1.71 4.73 4.73 0 0 1 -1.69 1.1 6.496 6.496 0 0 1 -2.28.374 11.076 11.076 0 0 1 -1.12-.06q-.57-.04-1.14-.117-.55-.08-1.06-.177a14.53 14.53 0 0 1 -.904-.236v-14.443l2.928-.471v5.148a5.456 5.456 0 0 1 1.022-.334 5.222 5.222 0 0 1 1.14-.118 4.564 4.564 0 0 1 1.945.393 3.72 3.72 0 0 1 1.415 1.08 4.888 4.888 0 0 1 .864 1.71 7.633 7.633 0 0 1 .295 2.2m1.758.079a6.377 6.377 0 0 1 .413-2.397 5.269 5.269 0 0 1 1.12-1.73 4.66 4.66 0 0 1 1.572-1.04 5.029 5.029 0 0 1 1.847-.355 4.546 4.546 0 0 1 3.478 1.356 5.509 5.509 0 0 1 1.278 3.95q0 .255-.02.57c-.013.196-.026.373-.039.53h-6.642a1.944 1.944 0 0 0 .845 1.435 3.401 3.401 0 0 0 2.004.53 8.854 8.854 0 0 0 1.572-.137 6.345 6.345 0 0 0 1.278-.374l.392 2.378a4.02 4.02 0 0 1 -.628.236 6.73 6.73 0 0 1 -.885.196c-.314.066-.655.118-1.02.158a10.41 10.41 0 0 1 -1.102.058 6.6 6.6 0 0 1 -2.437-.412 4.913 4.913 0 0 1 -1.709-1.12 4.77 4.77 0 0 1 -1.002-1.71 6.912 6.912 0 0 1 -.315-2.122m6.878-1.12a2.727 2.727 0 0 0 -.138-.727 1.6 1.6 0 0 0 -.334-.629 1.656 1.656 0 0 0 -.569-.452 1.797 1.797 0 0 0 -.845-.177 1.868 1.868 0 0 0 -.845.177 1.647 1.647 0 0 0 -.59.432 2.1 2.1 0 0 0 -.373.65 4.458 4.458 0 0 0 -.177.726zm11.319-1.533c-.262-.065-.57-.13-.924-.196a5.213 5.213 0 0 0 -1.14-.118 4.514 4.514 0 0 0 -.667.06 3.33 3.33 0 0 0 -.57.097v7.9h-2.928v-9.786a16.303 16.303 0 0 1 1.847-.51 10.397 10.397 0 0 1 2.397-.257 4.83 4.83 0 0 1 .57.04 5.813 5.813 0 0 1 .668.078 5.953 5.953 0 0 1 .668.118 2.73 2.73 0 0 1 .57.157zm2.06-2.24a15.351 15.351 0 0 1 1.926-.393 15.048 15.048 0 0 1 2.476-.196 5.801 5.801 0 0 1 2.181.353 3.215 3.215 0 0 1 1.395.963 3.78 3.78 0 0 1 .727 1.494 7.945 7.945 0 0 1 .216 1.925v5.836h-2.928v-5.482a3.953 3.953 0 0 0 -.373-2.005 1.525 1.525 0 0 0 -1.395-.589 6.103 6.103 0 0 0 -.668.04q-.354.019-.629.058v7.978h-2.928zm11.099 4.893a6.377 6.377 0 0 1 .413-2.397 5.269 5.269 0 0 1 1.12-1.73 4.66 4.66 0 0 1 1.572-1.04 5.03 5.03 0 0 1 1.847-.355 4.546 4.546 0 0 1 3.478 1.356 5.509 5.509 0 0 1 1.278 3.95q0 .255-.02.57c-.013.196-.026.373-.039.53h-6.642a1.944 1.944 0 0 0 .845 1.435 3.4 3.4 0 0 0 2.004.53 8.854 8.854 0 0 0 1.572-.137 6.345 6.345 0 0 0 1.278-.374l.392 2.378a3.997 3.997 0 0 1 -.629.236 6.677 6.677 0 0 1 -.884.196c-.314.066-.655.118-1.02.158a10.41 10.41 0 0 1 -1.102.058 6.6 6.6 0 0 1 -2.437-.412 4.913 4.913 0 0 1 -1.709-1.12 4.77 4.77 0 0 1 -1.002-1.71 6.912 6.912 0 0 1 -.315-2.122m6.878-1.12a2.727 2.727 0 0 0 -.138-.727 1.6 1.6 0 0 0 -.334-.629 1.656 1.656 0 0 0 -.569-.452 1.797 1.797 0 0 0 -.845-.177 1.869 1.869 0 0 0 -.845.177 1.646 1.646 0 0 0 -.59.432 2.099 2.099 0 0 0 -.373.65 4.457 4.457 0 0 0 -.177.726zm4.991-6.7 2.928-.472v3.046h3.517v2.437h-3.517v3.635a2.974 2.974 0 0 0 .314 1.474 1.418 1.418 0 0 0 1.317.55 6.03 6.03 0 0 0 .963-.08 5.472 5.472 0 0 0 .923-.254l.413 2.279a8.39 8.39 0 0 1 -1.179.374 6.916 6.916 0 0 1 -1.592.157 5.37 5.37 0 0 1 -1.984-.315 3.224 3.224 0 0 1 -1.258-.904 3.527 3.527 0 0 1 -.668-1.414 8.737 8.737 0 0 1 -.177-1.828zm7.935 7.82a6.377 6.377 0 0 1 .413-2.397 5.269 5.269 0 0 1 1.12-1.73 4.66 4.66 0 0 1 1.572-1.04 5.029 5.029 0 0 1 1.847-.355 4.546 4.546 0 0 1 3.478 1.356 5.509 5.509 0 0 1 1.278 3.95q0 .255-.02.57c-.013.196-.026.373-.04.53h-6.641a1.944 1.944 0 0 0 .845 1.435 3.401 3.401 0 0 0 2.004.53 8.855 8.855 0 0 0 1.572-.137 6.344 6.344 0 0 0 1.278-.374l.392 2.378a4.02 4.02 0 0 1 -.628.236 6.75 6.75 0 0 1 -.884.196 10.64 10.64 0 0 1 -1.022.158 10.411 10.411 0 0 1 -1.101.058 6.6 6.6 0 0 1 -2.437-.412 4.922 4.922 0 0 1 -1.71-1.12 4.77 4.77 0 0 1 -1.001-1.71 6.912 6.912 0 0 1 -.315-2.122m6.878-1.12a2.727 2.727 0 0 0 -.138-.727 1.611 1.611 0 0 0 -.333-.629 1.67 1.67 0 0 0 -.57-.452 1.797 1.797 0 0 0 -.845-.177 1.868 1.868 0 0 0 -.845.177 1.647 1.647 0 0 0 -.59.432 2.12 2.12 0 0 0 -.373.65 4.46 4.46 0 0 0 -.177.726h3.87m8.057 4.107a2.923 2.923 0 0 0 1.14-.157.609.609 0 0 0 .334-.609.724.724 0 0 0 -.433-.609 7.534 7.534 0 0 0 -1.316-.61q-.688-.255-1.258-.53a3.88 3.88 0 0 1 -.943-.649 2.77 2.77 0 0 1 -.609-.923 3.388 3.388 0 0 1 -.216-1.277 2.763 2.763 0 0 1 1.081-2.3 4.7 4.7 0 0 1 2.967-.845 8.983 8.983 0 0 1 1.807.177 7.918 7.918 0 0 1 1.376.354l-.51 2.28a10.757 10.757 0 0 0 -1.12-.315 5.88 5.88 0 0 0 -1.337-.138q-1.375 0-1.376.767a.792.792 0 0 0 .06.314.745.745 0 0 0 .235.276q.177.117.472.275.314.137.786.314a11.087 11.087 0 0 1 1.591.707 3.34 3.34 0 0 1 .983.747 2.094 2.094 0 0 1 .511.884 3.745 3.745 0 0 1 .157 1.14 2.62 2.62 0 0 1 -1.159 2.32 5.675 5.675 0 0 1 -3.243.785 9.056 9.056 0 0 1 -3.556-.629l.491-2.378a10.327 10.327 0 0 0 1.533.472 7.88 7.88 0 0 0 1.552.157m-16.182-38.687-5.496-23.876a4.29 4.29 0 0 0 -2.302-2.862l-22.25-10.624a4.293 4.293 0 0 0 -3.692 0l-22.246 10.63a4.29 4.29 0 0 0 -2.301 2.86l-5.488 23.878a4.241 4.241 0 0 0 .577 3.235c.075.115.156.227.242.335l15.398 19.145a4.332 4.332 0 0 0 3.326 1.588l24.692-.006a4.332 4.332 0 0 0 3.326-1.585l15.392-19.148a4.25 4.25 0 0 0 .822-3.57m-18.852 21.58-26.067.003-16.254-20.211 5.797-25.206 23.484-11.22 23.487 11.215 5.803 25.205zm-36.524-45.414-5.798 25.206z"/><path d="m428.793 335.529-16.254-20.211 16.254 20.211 26.067-.003 16.25-20.214-16.25 20.214zm-10.457-45.416 23.484-11.22z"/><path d="m441.82 278.893 23.486 11.215 5.804 25.205-5.804-25.205zm-3.952 23.63a1.174 1.174 0 0 0 1.864-.899l.028-.014.396-6.985a13.877 13.877 0 0 0 -1.42.245 13.71 13.71 0 0 0 -6.606 3.6l5.727 4.06zm2.025 7.332 1.929.927 1.924-.924.477-2.077-1.331-1.665h-2.142l-1.335 1.662zm4.001-8.254a1.175 1.175 0 0 0 1.866.896l.02.01 5.69-4.036a13.832 13.832 0 0 0 -7.978-3.846l.396 6.974zm-1.038 13.677a1.186 1.186 0 0 0 -1.076-.617 1.174 1.174 0 0 0 -.992.62h-.006l-3.38 6.111a13.76 13.76 0 0 0 7.513.387q.694-.158 1.355-.378l-3.39-6.123z"/><path d="m441.82 278.892-23.484 11.22-5.798 25.206 16.254 20.211 26.067-.003 16.25-20.214-5.803-25.205zm23.43 34.764a1.409 1.409 0 0 1 -1.72.973l-.019-.003-.026-.008c-.11-.024-.248-.049-.344-.074a11.035 11.035 0 0 1 -1.195-.46 12.458 12.458 0 0 0 -2.322-.684 1.048 1.048 0 0 0 -.745.276c-.097-.02-.397-.072-.57-.1a17.322 17.322 0 0 1 -7.676 9.657 4.683 4.683 0 0 0 .222.537 1.046 1.046 0 0 0 -.102.785 12.408 12.408 0 0 0 1.181 2.115 11.023 11.023 0 0 1 .714 1.061c.053.1.123.253.174.358a1.338 1.338 0 1 1 -2.408 1.138c-.05-.104-.12-.242-.165-.34a11.168 11.168 0 0 1 -.386-1.22 12.472 12.472 0 0 0 -.914-2.24 1.05 1.05 0 0 0 -.68-.413c-.042-.073-.2-.362-.284-.512a17.415 17.415 0 0 1 -2.285.688 17.207 17.207 0 0 1 -10.003-.72l-.302.546a1.084 1.084 0 0 0 -.574.28 9.287 9.287 0 0 0 -1.03 2.392 11.096 11.096 0 0 1 -.385 1.22c-.042.098-.114.235-.165.34v.002l-.002.003a1.337 1.337 0 1 1 -2.404-1.14c.05-.107.117-.26.17-.36a11.322 11.322 0 0 1 .714-1.064 13.048 13.048 0 0 0 1.206-2.166 1.323 1.323 0 0 0 -.119-.753l.242-.58a17.33 17.33 0 0 1 -7.679-9.588l-.58.1a1.486 1.486 0 0 0 -.766-.27 12.45 12.45 0 0 0 -2.32.682 11.194 11.194 0 0 1 -1.196.458c-.097.026-.234.053-.345.077a.247.247 0 0 0 -.025.01l-.02.001a1.336 1.336 0 1 1 -.592-2.595l.02-.005.011-.003c.112-.026.254-.063.356-.082a11.004 11.004 0 0 1 1.278-.103 12.54 12.54 0 0 0 2.387-.392 1.847 1.847 0 0 0 .572-.578l.557-.162a17.235 17.235 0 0 1 2.717-12.013l-.427-.38a1.476 1.476 0 0 0 -.267-.768 12.453 12.453 0 0 0 -1.98-1.392 11.01 11.01 0 0 1 -1.104-.646c-.08-.06-.188-.15-.276-.222l-.02-.014a1.41 1.41 0 0 1 -.327-1.963 1.282 1.282 0 0 1 1.061-.47 1.598 1.598 0 0 1 .928.35c.09.072.214.166.295.237a10.963 10.963 0 0 1 .877.93 12.427 12.427 0 0 0 1.795 1.621 1.045 1.045 0 0 0 .791.077c.076.057.334.241.481.342a17.125 17.125 0 0 1 8.7-4.97 17.351 17.351 0 0 1 2.407-.37l.032-.564a1.445 1.445 0 0 0 .432-.689 12.423 12.423 0 0 0 -.148-2.414 11.008 11.008 0 0 1 -.182-1.267c-.004-.097.002-.23.003-.34 0-.014-.003-.025-.003-.038a1.339 1.339 0 1 1 2.663 0c0 .116.007.271.003.378a11.222 11.222 0 0 1 -.183 1.267 12.439 12.439 0 0 0 -.15 2.414 1.057 1.057 0 0 0 .435.667c.004.096.02.416.032.594a17.452 17.452 0 0 1 11.053 5.34l.506-.36a1.486 1.486 0 0 0 .808-.089 12.471 12.471 0 0 0 1.795-1.624 11.019 11.019 0 0 1 .88-.93c.081-.07.205-.165.295-.237a1.338 1.338 0 1 1 1.66 2.082c-.09.073-.208.173-.294.237a11.132 11.132 0 0 1 -1.106.645 12.419 12.419 0 0 0 -1.98 1.392 1.049 1.049 0 0 0 -.25.754c-.075.068-.336.298-.473.424a17.31 17.31 0 0 1 2.774 11.983l.537.157a1.501 1.501 0 0 0 .575.577 12.443 12.443 0 0 0 2.387.393 10.999 10.999 0 0 1 1.277.102c.111.021.273.066.388.091a1.41 1.41 0 0 1 1.126 1.622"/><path d="m453.556 301.08-5.201 4.655.003.015a1.174 1.174 0 0 0 .46 2.017l.007.028 6.737 1.94a13.964 13.964 0 0 0 -2.006-8.654m-16.456 11.673a1.174 1.174 0 0 0 -1.127-.913 1.133 1.133 0 0 0 -.23.02l-.011-.014-6.875 1.166a13.79 13.79 0 0 0 5.534 6.925l2.663-6.436-.02-.025a1.161 1.161 0 0 0 .065-.723m10.789-.921a1.107 1.107 0 0 0 -.27-.02 1.163 1.163 0 0 0 -.45.116 1.176 1.176 0 0 0 -.569 1.523l-.008.01 2.691 6.502a13.738 13.738 0 0 0 5.551-6.973l-6.934-1.172zm-13.073-4.032a1.173 1.173 0 0 0 .461-2.017l.006-.029-5.23-4.677a13.714 13.714 0 0 0 -1.946 8.68l6.703-1.934z"/></g><g fill="#241f21"><g clip-path="url(#a)"><path d="m391.528 242.777q.44-.481.904-1.004.481-.522.923-1.024.442-.522.823-.984.402-.462.683-.803h3.554q-1.065 1.226-2.088 2.35-1.005 1.105-2.21 2.288a13.213 13.213 0 0 1 1.246 1.305q.642.744 1.245 1.546.601.804 1.104 1.606.502.804.843 1.466h-3.433q-.321-.522-.743-1.144-.402-.643-.863-1.265a14.478 14.478 0 0 0 -.984-1.225 7.69 7.69 0 0 0 -1.004-.984v4.618h-2.992v-15.098l2.992-.482zm17.434 6.385a15.75 15.75 0 0 1 -1.968.402 15.465 15.465 0 0 1 -2.529.2 6.086 6.086 0 0 1 -2.249-.36 3.455 3.455 0 0 1 -1.406-1.005 4.046 4.046 0 0 1 -.742-1.566 8.328 8.328 0 0 1 -.22-1.988v-5.883h2.99v5.522a4.268 4.268 0 0 0 .382 2.088 1.517 1.517 0 0 0 1.425.642c.214 0 .442-.006.683-.02q.362-.039.642-.08v-8.152h2.992zm12.646-4.919a6.496 6.496 0 0 1 -.382 2.289 4.715 4.715 0 0 1 -1.064 1.747 4.816 4.816 0 0 1 -1.726 1.124 6.626 6.626 0 0 1 -2.329.382q-.543 0-1.145-.06-.582-.04-1.164-.121-.562-.08-1.085-.181-.522-.12-.923-.241v-14.757l2.991-.482v5.26a5.696 5.696 0 0 1 1.044-.341 5.39 5.39 0 0 1 1.165-.12 4.662 4.662 0 0 1 1.988.402 3.796 3.796 0 0 1 1.445 1.104 5.002 5.002 0 0 1 .884 1.747 7.834 7.834 0 0 1 .301 2.248m-3.052-.08q0-2.89-2.128-2.891a3.662 3.662 0 0 0 -.924.12 2.662 2.662 0 0 0 -.723.3v5.442c.148.027.335.054.563.08.227.014.475.02.742.02a2.15 2.15 0 0 0 1.848-.842 3.667 3.667 0 0 0 .622-2.23m11.876-.982a2.798 2.798 0 0 0 -.14-.744 1.66 1.66 0 0 0 -.342-.643 1.69 1.69 0 0 0 -.582-.462 1.837 1.837 0 0 0 -.863-.18 1.92 1.92 0 0 0 -.864.18 1.695 1.695 0 0 0 -.602.442 2.127 2.127 0 0 0 -.38.663 4.527 4.527 0 0 0 -.182.743zm-7.027 1.143a6.515 6.515 0 0 1 .422-2.449 5.365 5.365 0 0 1 1.144-1.767 4.729 4.729 0 0 1 1.606-1.064 5.14 5.14 0 0 1 1.888-.362 4.645 4.645 0 0 1 3.553 1.386 5.628 5.628 0 0 1 1.305 4.035c0 .174-.006.368-.02.582-.013.201-.026.382-.04.542h-6.786a1.989 1.989 0 0 0 .863 1.466 3.468 3.468 0 0 0 2.048.542 9.137 9.137 0 0 0 1.606-.14 6.43 6.43 0 0 0 1.305-.382l.402 2.43a4.273 4.273 0 0 1 -.642.241 6.99 6.99 0 0 1 -.904.2q-.481.1-1.044.161a10.592 10.592 0 0 1 -1.124.06 6.736 6.736 0 0 1 -2.49-.42 5.023 5.023 0 0 1 -1.747-1.146 4.86 4.86 0 0 1 -1.024-1.747 7.08 7.08 0 0 1 -.32-2.168m18.591-2.71a15.785 15.785 0 0 0 -.944-.201 5.374 5.374 0 0 0 -1.164-.12 4.736 4.736 0 0 0 -.683.06 3.439 3.439 0 0 0 -.582.1v8.072h-2.992v-10a17.016 17.016 0 0 1 1.888-.521 10.652 10.652 0 0 1 2.45-.261 5.03 5.03 0 0 1 .581.04 5.86 5.86 0 0 1 .683.08 6.037 6.037 0 0 1 .683.12 2.847 2.847 0 0 1 .582.16l-.502 2.47m2.106-2.288a15.79 15.79 0 0 1 1.968-.402 15.465 15.465 0 0 1 2.529-.2 5.928 5.928 0 0 1 2.229.361 3.292 3.292 0 0 1 1.426.984 3.866 3.866 0 0 1 .742 1.526 8.08 8.08 0 0 1 .22 1.967v5.963h-2.99v-5.601a4.023 4.023 0 0 0 -.382-2.048 1.554 1.554 0 0 0 -1.425-.602 6.15 6.15 0 0 0 -.683.04q-.362.02-.642.06v8.151h-2.992zm18.367 3.856a2.798 2.798 0 0 0 -.14-.744 1.66 1.66 0 0 0 -.341-.643 1.69 1.69 0 0 0 -.582-.462 1.837 1.837 0 0 0 -.863-.18 1.92 1.92 0 0 0 -.864.18 1.695 1.695 0 0 0 -.602.442 2.127 2.127 0 0 0 -.381.663 4.528 4.528 0 0 0 -.181.743zm-7.026 1.143a6.515 6.515 0 0 1 .422-2.449 5.365 5.365 0 0 1 1.144-1.767 4.729 4.729 0 0 1 1.606-1.064 5.14 5.14 0 0 1 1.888-.362 4.645 4.645 0 0 1 3.553 1.386 5.628 5.628 0 0 1 1.305 4.035c0 .174-.006.368-.02.582-.013.201-.026.382-.04.542h-6.786a1.989 1.989 0 0 0 .863 1.466 3.468 3.468 0 0 0 2.048.542 9.137 9.137 0 0 0 1.606-.14 6.43 6.43 0 0 0 1.305-.382l.402 2.43a4.273 4.273 0 0 1 -.642.241 6.99 6.99 0 0 1 -.904.2q-.482.1-1.044.161a10.592 10.592 0 0 1 -1.124.06 6.736 6.736 0 0 1 -2.49-.42 5.023 5.023 0 0 1 -1.747-1.146 4.86 4.86 0 0 1 -1.024-1.747 7.08 7.08 0 0 1 -.321-2.168m12.126-7.991 2.992-.482v3.112h3.594v2.49h-3.594v3.714a3.034 3.034 0 0 0 .321 1.506 1.447 1.447 0 0 0 1.345.562 6.295 6.295 0 0 0 .984-.08 5.657 5.657 0 0 0 .943-.26l.422 2.328a8.511 8.511 0 0 1 -1.205.381 7.012 7.012 0 0 1 -1.626.161 5.513 5.513 0 0 1 -2.028-.32 3.327 3.327 0 0 1 -1.285-.925 3.62 3.62 0 0 1 -.682-1.445 8.902 8.902 0 0 1 -.18-1.868zm15.135 6.848a2.796 2.796 0 0 0 -.14-.744 1.659 1.659 0 0 0 -.342-.643 1.69 1.69 0 0 0 -.582-.462 1.837 1.837 0 0 0 -.863-.18 1.92 1.92 0 0 0 -.864.18 1.695 1.695 0 0 0 -.602.442 2.126 2.126 0 0 0 -.38.663 4.53 4.53 0 0 0 -.182.743zm-7.027 1.143a6.515 6.515 0 0 1 .422-2.449 5.365 5.365 0 0 1 1.144-1.767 4.729 4.729 0 0 1 1.606-1.064 5.14 5.14 0 0 1 1.888-.362 4.645 4.645 0 0 1 3.553 1.386 5.628 5.628 0 0 1 1.305 4.035c0 .174-.006.368-.02.582-.013.201-.026.382-.04.542h-6.786a1.99 1.99 0 0 0 .863 1.466 3.468 3.468 0 0 0 2.048.542 9.137 9.137 0 0 0 1.606-.14 6.43 6.43 0 0 0 1.305-.382l.402 2.43a4.274 4.274 0 0 1 -.642.241 6.992 6.992 0 0 1 -.904.2q-.481.1-1.044.161a10.592 10.592 0 0 1 -1.124.06 6.736 6.736 0 0 1 -2.49-.42 5.023 5.023 0 0 1 -1.747-1.146 4.86 4.86 0 0 1 -1.024-1.747 7.08 7.08 0 0 1 -.32-2.168m15.258 3.052a2.98 2.98 0 0 0 1.164-.16.62.62 0 0 0 .342-.623.74.74 0 0 0 -.442-.622 7.707 7.707 0 0 0 -1.345-.623q-.704-.26-1.285-.542a3.954 3.954 0 0 1 -.964-.662 2.843 2.843 0 0 1 -.622-.944 3.466 3.466 0 0 1 -.221-1.305 2.821 2.821 0 0 1 1.104-2.349 4.801 4.801 0 0 1 3.032-.864 9.234 9.234 0 0 1 1.847.181 8.155 8.155 0 0 1 1.406.361l-.522 2.33a10.925 10.925 0 0 0 -1.145-.322 6.07 6.07 0 0 0 -1.365-.14q-1.405 0-1.406.783a.795.795 0 0 0 .06.321.746.746 0 0 0 .242.281c.12.08.28.174.48.281.216.094.483.201.804.321a11.39 11.39 0 0 1 1.627.723 3.425 3.425 0 0 1 1.004.763 2.143 2.143 0 0 1 .522.904 3.822 3.822 0 0 1 .16 1.164 2.678 2.678 0 0 1 -1.184 2.37 5.794 5.794 0 0 1 -3.313.802 9.654 9.654 0 0 1 -2.35-.24 9.465 9.465 0 0 1 -1.284-.402l.502-2.429a10.577 10.577 0 0 0 1.566.481 8.076 8.076 0 0 0 1.586.161m-71.9-41.451.02-.005.012-.003c.114-.027.26-.065.364-.084a11.265 11.265 0 0 1 1.305-.105 12.767 12.767 0 0 0 2.439-.401 1.892 1.892 0 0 0 .584-.59l.57-.166a17.605 17.605 0 0 1 2.776-12.274l-.436-.39a1.514 1.514 0 0 0 -.273-.784 12.751 12.751 0 0 0 -2.024-1.422 11.283 11.283 0 0 1 -1.127-.66c-.083-.061-.193-.154-.282-.226l-.021-.015a1.442 1.442 0 0 1 -.334-2.006 1.309 1.309 0 0 1 1.084-.48 1.614 1.614 0 0 1 .948.358c.093.074.219.17.302.24a11.439 11.439 0 0 1 .896.952 12.736 12.736 0 0 0 1.834 1.657 1.08 1.08 0 0 0 .808.079c.078.057.34.246.492.348a17.496 17.496 0 0 1 8.889-5.078 17.678 17.678 0 0 1 2.459-.378l.033-.576a1.485 1.485 0 0 0 .442-.703 12.757 12.757 0 0 0 -.152-2.468 11.409 11.409 0 0 1 -.186-1.294c-.004-.1.002-.235.003-.35 0-.011-.003-.024-.003-.037a1.368 1.368 0 1 1 2.72 0c.002.119.008.278.004.387a11.415 11.415 0 0 1 -.186 1.294 12.696 12.696 0 0 0 -.154 2.468 1.079 1.079 0 0 0 .444.68c.005.099.02.426.033.607a17.833 17.833 0 0 1 11.293 5.457l.518-.37a1.525 1.525 0 0 0 .826-.09 12.826 12.826 0 0 0 1.834-1.66 11.473 11.473 0 0 1 .898-.95c.083-.071.21-.167.302-.241a1.368 1.368 0 1 1 1.695 2.128c-.092.074-.212.176-.3.24a11.255 11.255 0 0 1 -1.13.66 12.732 12.732 0 0 0 -2.024 1.423 1.075 1.075 0 0 0 -.255.77c-.076.07-.342.305-.483.433a17.686 17.686 0 0 1 2.835 12.244l.549.16a1.532 1.532 0 0 0 .587.59 12.767 12.767 0 0 0 2.439.402 11.485 11.485 0 0 1 1.305.104c.114.022.279.067.396.093a1.366 1.366 0 1 1 -.605 2.652.12.12 0 0 0 -.02-.003c-.01-.002-.017-.007-.026-.01-.113-.024-.254-.048-.352-.074a11.314 11.314 0 0 1 -1.221-.472 12.772 12.772 0 0 0 -2.372-.697 1.076 1.076 0 0 0 -.762.282c-.1-.02-.405-.074-.581-.102a17.704 17.704 0 0 1 -7.844 9.866 4.757 4.757 0 0 0 .227.55 1.064 1.064 0 0 0 -.104.802 12.667 12.667 0 0 0 1.206 2.16 11.399 11.399 0 0 1 .73 1.085c.054.1.125.258.177.366a1.366 1.366 0 1 1 -2.46 1.162c-.051-.106-.124-.247-.168-.348a11.46 11.46 0 0 1 -.395-1.247 12.605 12.605 0 0 0 -.934-2.288 1.074 1.074 0 0 0 -.694-.422c-.043-.074-.204-.37-.291-.523a17.594 17.594 0 0 1 -12.555-.032l-.308.558a1.1 1.1 0 0 0 -.587.286 9.53 9.53 0 0 0 -1.053 2.444 11.225 11.225 0 0 1 -.393 1.247c-.043.1-.116.24-.168.346v.003l-.003.003a1.366 1.366 0 1 1 -2.456-1.166c.052-.108.12-.265.174-.366a11.388 11.388 0 0 1 .73-1.088 13.247 13.247 0 0 0 1.23-2.213 1.35 1.35 0 0 0 -.12-.77l.247-.592a17.71 17.71 0 0 1 -7.846-9.797l-.593.102a1.498 1.498 0 0 0 -.782-.276 12.772 12.772 0 0 0 -2.372.697 11.389 11.389 0 0 1 -1.221.469c-.098.026-.24.053-.352.078-.01.002-.016.006-.026.009l-.02.002a1.365 1.365 0 1 1 -.605-2.651m55.366 1.922-5.616-24.395a4.389 4.389 0 0 0 -2.352-2.925l-22.733-10.855a4.387 4.387 0 0 0 -3.774 0l-22.73 10.86a4.381 4.381 0 0 0 -2.351 2.925l-5.608 24.396a4.335 4.335 0 0 0 .59 3.305c.077.118.159.233.247.343l15.733 19.562a4.428 4.428 0 0 0 3.398 1.622l25.23-.006a4.428 4.428 0 0 0 3.399-1.62l15.727-19.564a4.353 4.353 0 0 0 .84-3.648"/><path d="m437.778 196.174a1.2 1.2 0 0 0 1.904-.919l.03-.014.403-7.137a14.18 14.18 0 0 0 -1.45.25 14.01 14.01 0 0 0 -6.75 3.678l5.852 4.148z"/></g><path d="m439.848 203.665 1.971.947 1.965-.944.489-2.122-1.361-1.701h-2.189l-1.363 1.698z"/><g clip-path="url(#a)"><path d="m443.936 195.232a1.201 1.201 0 0 0 1.907.916l.02.008 5.814-4.122a14.133 14.133 0 0 0 -8.151-3.93l.404 7.125zm-1.061 13.974a1.214 1.214 0 0 0 -1.1-.63 1.205 1.205 0 0 0 -1.014.633h-.005l-3.454 6.244a14.063 14.063 0 0 0 7.677.396q.71-.162 1.384-.387l-3.462-6.256zm5.622-9.736a1.2 1.2 0 0 0 .47 2.061l.007.03 6.884 1.982a14.276 14.276 0 0 0 -2.05-8.843l-5.314 4.755zm-11.504 7.157a1.198 1.198 0 0 0 -1.15-.933 1.175 1.175 0 0 0 -.236.021l-.012-.015-7.023 1.192a14.084 14.084 0 0 0 5.654 7.075l2.721-6.575-.02-.026a1.189 1.189 0 0 0 .066-.739m11.024-.941a1.156 1.156 0 0 0 -.276-.02 1.175 1.175 0 0 0 -.459.119 1.2 1.2 0 0 0 -.582 1.555l-.008.012 2.749 6.642a14.031 14.031 0 0 0 5.672-7.125l-7.084-1.198zm-13.364-4.096.006-.023a1.2 1.2 0 0 0 .471-2.061l.006-.03-5.343-4.778a14.014 14.014 0 0 0 -1.989 8.869zm172.913 13.599a.2.2 0 0 0 .026-.007l.016-.004c.148-.035.338-.084.474-.11a14.506 14.506 0 0 1 1.702-.136 16.604 16.604 0 0 0 3.18-.523 2.46 2.46 0 0 0 .764-.77l.742-.216a22.97 22.97 0 0 1 3.62-16.01l-.567-.506a1.975 1.975 0 0 0 -.357-1.024 16.577 16.577 0 0 0 -2.64-1.854 15.116 15.116 0 0 1 -1.47-.861c-.108-.08-.251-.201-.368-.296l-.026-.02a1.88 1.88 0 0 1 -.436-2.615 1.711 1.711 0 0 1 1.414-.626 2.111 2.111 0 0 1 1.236.467c.12.096.286.22.394.314a15.09 15.09 0 0 1 1.169 1.24 16.476 16.476 0 0 0 2.392 2.16 1.401 1.401 0 0 0 1.054.104c.102.075.445.32.64.455a22.82 22.82 0 0 1 11.595-6.624 23.086 23.086 0 0 1 3.208-.493l.042-.751a1.93 1.93 0 0 0 .576-.917 16.613 16.613 0 0 0 -.197-3.22 15.05 15.05 0 0 1 -.243-1.686c-.005-.13.003-.308.004-.455 0-.017-.004-.033-.004-.05a1.785 1.785 0 1 1 3.55 0c0 .155.008.362.003.505a14.827 14.827 0 0 1 -.243 1.687 16.64 16.64 0 0 0 -.201 3.219 1.411 1.411 0 0 0 .58.887c.006.129.026.556.042.792a23.26 23.26 0 0 1 14.73 7.117l.675-.481a1.98 1.98 0 0 0 1.078-.118 16.674 16.674 0 0 0 2.392-2.164 14.662 14.662 0 0 1 1.172-1.24c.108-.094.273-.22.394-.315a1.784 1.784 0 1 1 2.21 2.775c-.12.096-.276.23-.39.315a14.84 14.84 0 0 1 -1.475.86 16.53 16.53 0 0 0 -2.64 1.855 1.399 1.399 0 0 0 -.333 1.004c-.098.09-.445.399-.63.566a23.053 23.053 0 0 1 3.698 15.969l.716.209a1.993 1.993 0 0 0 .766.77 16.613 16.613 0 0 0 3.182.523 15.212 15.212 0 0 1 1.702.136c.148.028.363.088.516.122a1.781 1.781 0 1 1 -.79 3.458l-.026-.004c-.012-.002-.022-.008-.034-.011-.147-.032-.331-.064-.458-.1a14.698 14.698 0 0 1 -1.593-.613 16.594 16.594 0 0 0 -3.094-.91 1.403 1.403 0 0 0 -.994.368 25.706 25.706 0 0 0 -.758-.133 23.099 23.099 0 0 1 -10.23 12.869 6.19 6.19 0 0 0 .296.716 1.394 1.394 0 0 0 -.136 1.047 16.535 16.535 0 0 0 1.573 2.817 14.772 14.772 0 0 1 .95 1.414c.072.133.165.338.233.478a1.783 1.783 0 1 1 -3.208 1.516c-.067-.138-.162-.323-.22-.455a14.671 14.671 0 0 1 -.515-1.626 16.475 16.475 0 0 0 -1.218-2.984 1.401 1.401 0 0 0 -.905-.55c-.057-.097-.267-.482-.38-.682a23.165 23.165 0 0 1 -3.044.918 22.93 22.93 0 0 1 -13.332-.96l-.401.728a1.436 1.436 0 0 0 -.765.373 12.372 12.372 0 0 0 -1.374 3.188 14.787 14.787 0 0 1 -.512 1.626c-.057.13-.152.313-.22.45v.005l-.003.004a1.782 1.782 0 1 1 -3.204-1.521c.067-.14.157-.345.227-.477a14.84 14.84 0 0 1 .952-1.42 17.293 17.293 0 0 0 1.606-2.885 1.767 1.767 0 0 0 -.158-1.004l.323-.773a23.094 23.094 0 0 1 -10.234-12.778l-.773.133a1.974 1.974 0 0 0 -1.021-.361 16.72 16.72 0 0 0 -3.093.91 14.852 14.852 0 0 1 -1.593.61c-.128.036-.312.07-.459.104-.012.003-.022.008-.034.01a.258.258 0 0 1 -.026.004 1.781 1.781 0 1 1 -.789-3.458m72.213 2.507-7.326-31.82a5.718 5.718 0 0 0 -3.066-3.813l-29.651-14.158a5.713 5.713 0 0 0 -4.922 0l-29.646 14.165a5.72 5.72 0 0 0 -3.068 3.814l-7.313 31.82a5.653 5.653 0 0 0 .769 4.31q.15.232.323.448l20.52 25.514a5.773 5.773 0 0 0 4.432 2.116l32.907-.008a5.78 5.78 0 0 0 4.433-2.112l20.512-25.518a5.67 5.67 0 0 0 1.096-4.758"/><path d="m632.01 202.472a1.565 1.565 0 0 0 2.484-1.198l.037-.019.528-9.309a18.84 18.84 0 0 0 -1.893.327 18.272 18.272 0 0 0 -8.803 4.796l7.632 5.411z"/></g><path d="m634.71 212.244 2.571 1.236 2.563-1.232.637-2.768-1.774-2.218h-2.855l-1.779 2.214z"/></g><g clip-path="url(#a)"><path d="m640.041 201.244a1.565 1.565 0 0 0 2.487 1.194l.027.012 7.583-5.377a18.442 18.442 0 0 0 -10.632-5.126l.527 9.294zm-1.384 18.226a1.58 1.58 0 0 0 -1.434-.823 1.567 1.567 0 0 0 -1.323.827h-.007l-4.505 8.144a18.345 18.345 0 0 0 10.014.516q.924-.21 1.805-.504l-4.516-8.16zm7.333-12.698a1.546 1.546 0 0 0 -.496.831 1.563 1.563 0 0 0 1.11 1.857l.008.038 8.979 2.586a18.611 18.611 0 0 0 -2.674-11.534l-6.93 6.203zm-15.004 9.335a1.565 1.565 0 0 0 -1.5-1.217 1.524 1.524 0 0 0 -.308.027l-.015-.02-9.16 1.555a18.374 18.374 0 0 0 7.374 9.229l3.55-8.577-.028-.034a1.544 1.544 0 0 0 .087-.963m14.378-1.228a1.501 1.501 0 0 0 -.959.128 1.567 1.567 0 0 0 -.758 2.029l-.012.015 3.587 8.664a18.305 18.305 0 0 0 7.398-9.293l-9.24-1.562zm-17.43-5.343.008-.03a1.565 1.565 0 0 0 .614-2.689l.008-.038-6.969-6.233a18.277 18.277 0 0 0 -2.594 11.568z" fill="#241f21"/><g clip-path="url(#k)" opacity=".5"><path d="m47.268 80.154a6.574 6.574 0 1 1 0-13.143 7.59 7.59 0 0 1 4.388 1.28v2.33a6.128 6.128 0 0 0 -4.115-1.553 4.517 4.517 0 0 0 0 9.028 6.128 6.128 0 0 0 4.115-1.553v2.33a7.589 7.589 0 0 1 -4.388 1.281zm13.776.084a6.657 6.657 0 1 1 6.803-6.655 6.603 6.603 0 0 1 -6.803 6.655zm0-11.274c-2.52 0-4.179 1.89-4.179 4.619s1.66 4.619 4.18 4.619c2.477 0 4.114-1.89 4.114-4.62s-1.637-4.618-4.115-4.618zm10.018 10.918v-12.598h2.561v10.602h5.649v1.996zm16.756.356a6.657 6.657 0 1 1 6.803-6.655 6.603 6.603 0 0 1 -6.803 6.655zm0-11.274c-2.52 0-4.177 1.89-4.177 4.619s1.658 4.619 4.177 4.619c2.478 0 4.116-1.89 4.116-4.62s-1.638-4.618-4.116-4.618zm20.454 10.918h-2.814l-3.485-5.019h-1.574v5.019h-2.562v-12.598h4.955c2.982 0 4.262 1.764 4.262 3.8a3.434 3.434 0 0 1 -2.52 3.507zm-7.873-6.825h1.973c1.596 0 2.162-.84 2.162-1.952 0-1.134-.566-1.995-2.162-1.995h-1.972z" fill="#fff"/></g></g><path d="m62.583 102.058a4.628 4.628 0 0 1 -3.068-1.08l.403-1.383a3.906 3.906 0 0 0 2.665 1.166c.864 0 1.526-.431 1.526-1.195 0-.72-.403-1.095-1.814-1.44-1.815-.447-2.535-1.411-2.535-2.65 0-1.412 1.123-2.435 2.981-2.435a4.373 4.373 0 0 1 2.593.85l-.375 1.224a4.35 4.35 0 0 0 -2.232-.749c-.85 0-1.354.375-1.354.994 0 .504.302.894 1.484 1.182 2.016.504 2.88 1.353 2.88 2.851 0 1.859-1.527 2.665-3.154 2.665zm8.77-.173h-1.326l-3.672-8.642h1.8l2.579 6.208 2.55-6.208h1.741zm8.797.245a4.54 4.54 0 1 1 .116-9.075 5.392 5.392 0 0 1 3.068.88v1.598a4.286 4.286 0 0 0 -2.895-1.065 3.174 3.174 0 0 0 -.101 6.337 3.627 3.627 0 0 0 1.67-.36v-1.685h-1.525v-1.296h3.211v3.816a8.845 8.845 0 0 1 -3.544.85zm-7.703 18.95-.879-2.131h-3.5l-.878 2.132h-1.7l3.673-8.643h1.368l3.674 8.643zm-2.62-6.495-1.283 3.14h2.55zm5.801 6.495v-8.642h1.757v8.643zm-13.031 16.675h-1.527v3.14h-1.757v-8.642h3.284a2.761 2.761 0 1 1 0 5.502zm-.288-4.25h-1.239v2.997h1.239a1.499 1.499 0 1 0 0-2.996zm10.887 7.39-4.523-5.704v5.704h-1.57v-8.642h1.224l4.524 5.704v-5.704h1.569v8.642zm7.674.245a4.54 4.54 0 1 1 .115-9.075 5.392 5.392 0 0 1 3.069.88v1.598a4.286 4.286 0 0 0 -2.896-1.066 3.174 3.174 0 0 0 -.1 6.338 3.627 3.627 0 0 0 1.67-.36v-1.686h-1.526v-1.296h3.212v3.817a8.845 8.845 0 0 1 -3.544.85z" fill="#326ce5"/><path d="m30.772 192.885h87.06v16.912h-87.06zm0 19.504h87.06v16.912h-87.06zm0 19.504h87.06v16.912h-87.06zm18.418-48.069h-5.102v-12.598h4.892c2.709 0 3.8 1.492 3.8 3.297a3.282 3.282 0 0 1 -1.343 2.478 3.432 3.432 0 0 1 2.015 3.128c0 2.037-1.239 3.695-4.262 3.695zm-2.54-7.537h1.91c1.281 0 1.805-.714 1.805-1.638s-.524-1.637-1.805-1.637h-1.91zm2.1 1.784h-2.1v3.969h2.1c1.595 0 2.225-.862 2.225-1.995s-.63-1.974-2.226-1.974zm7.791 5.753v-12.598h2.562v10.604h5.647v1.994zm19.801 0-1.28-3.107h-5.103l-1.28 3.107h-2.479l5.354-12.598h1.995l5.353 12.598zm-3.821-9.469-1.869 4.577h3.716zm14.3 9.742a6.574 6.574 0 1 1 0-13.143 7.588 7.588 0 0 1 4.388 1.28v2.331a6.126 6.126 0 0 0 -4.115-1.554 4.517 4.517 0 0 0 0 9.029 6.126 6.126 0 0 0 4.115-1.554v2.33a7.588 7.588 0 0 1 -4.388 1.281zm15.875-.273-5.585-5.941v5.941h-2.561v-12.598h2.561v5.753l5.103-5.753h2.792l-5.438 6.005 6.278 6.593z" fill="#bcbec0"/><path d="m64.17 206a4.628 4.628 0 0 1 -3.07-1.08l.404-1.382a3.904 3.904 0 0 0 2.665 1.167c.864 0 1.527-.433 1.527-1.195 0-.721-.403-1.095-1.815-1.44-1.815-.448-2.535-1.413-2.535-2.651 0-1.412 1.124-2.435 2.981-2.435a4.378 4.378 0 0 1 2.593.85l-.374 1.224a4.355 4.355 0 0 0 -2.232-.749c-.851 0-1.355.374-1.355.995 0 .503.303.892 1.483 1.18 2.017.504 2.881 1.355 2.881 2.853 0 1.857-1.526 2.664-3.154 2.664zm8.77-.172h-1.326l-3.673-8.643h1.8l2.578 6.21 2.55-6.21h1.743zm8.797.245a4.539 4.539 0 1 1 .116-9.074 5.403 5.403 0 0 1 3.068.878v1.6a4.284 4.284 0 0 0 -2.896-1.067 3.174 3.174 0 0 0 -.1 6.338 3.633 3.633 0 0 0 1.67-.36v-1.685h-1.527v-1.297h3.212v3.817a8.86 8.86 0 0 1 -3.543.85zm-7.703 18.95-.879-2.132h-3.5l-.879 2.132h-1.699l3.673-8.642h1.368l3.674 8.642zm-2.62-6.496-1.283 3.14h2.55zm5.801 6.496v-8.642h1.757v8.642zm-13.031 16.675h-1.527v3.14h-1.757v-8.643h3.284a2.761 2.761 0 1 1 0 5.503zm-.288-4.249h-1.239v2.996h1.239a1.499 1.499 0 1 0 0-2.996zm10.887 7.389-4.523-5.704v5.704h-1.57v-8.643h1.224l4.524 5.704v-5.704h1.569v8.643zm7.674.245a4.539 4.539 0 1 1 .115-9.074 5.399 5.399 0 0 1 3.069.877v1.6a4.282 4.282 0 0 0 -2.896-1.066 3.174 3.174 0 0 0 -.1 6.338 3.627 3.627 0 0 0 1.67-.36v-1.685h-1.525v-1.297h3.212v3.817a8.866 8.866 0 0 1 -3.544.85z" fill="#231f20"/><path d="m30.772 297.969h87.06v16.912h-87.06zm0 19.504h87.06v16.912h-87.06zm0 19.505h87.06v16.912h-87.06zm25.304-48.069h-1.868l-2.499-7.538a6.674 6.674 0 0 1 -.252-.966c-.02.022-.188.714-.272.966l-2.5 7.538h-1.868l-4.325-12.598h2.54l2.541 7.915c.084.274.23 1.092.252 1.176l.315-1.176 2.435-7.915h1.827l2.457 7.915c.083.294.293 1.176.293 1.176a11.443 11.443 0 0 1 .252-1.176l2.52-7.915h2.457zm15.436 0v-5.565h-5.942v5.565h-2.56v-12.599h2.561v4.871h5.942v-4.87h2.561v12.597zm6.364 0v-12.599h2.562v12.598zm12.032-10.604v10.604h-2.561v-10.604h-4.262v-1.994h11.086v1.994zm6.931 10.604v-12.599h8.21v1.994h-5.649v2.961h4.6v1.995h-4.6v3.654h5.649v1.994z" fill="#808285"/><path d="m64.313 311.086a4.628 4.628 0 0 1 -3.069-1.08l.404-1.383a3.906 3.906 0 0 0 2.665 1.167c.864 0 1.526-.433 1.526-1.196 0-.72-.403-1.095-1.815-1.44-1.815-.447-2.535-1.412-2.535-2.651 0-1.411 1.123-2.434 2.982-2.434a4.373 4.373 0 0 1 2.593.85l-.375 1.224a4.341 4.341 0 0 0 -2.233-.75c-.85 0-1.353.375-1.353.994 0 .504.301.894 1.483 1.182 2.017.504 2.88 1.354 2.88 2.852 0 1.858-1.526 2.665-3.153 2.665zm8.769-.173h-1.325l-3.673-8.643h1.8l2.58 6.208 2.549-6.208h1.742zm8.798.245a4.54 4.54 0 1 1 .115-9.075 5.4 5.4 0 0 1 3.069.879v1.598a4.286 4.286 0 0 0 -2.896-1.065 3.174 3.174 0 0 0 -.1 6.338 3.627 3.627 0 0 0 1.67-.36v-1.686h-1.526v-1.296h3.212v3.816a8.845 8.845 0 0 1 -3.544.851zm-7.703 18.95-.879-2.132h-3.5l-.879 2.132h-1.7l3.674-8.642h1.368l3.674 8.642zm-2.621-6.496-1.282 3.14h2.55zm5.802 6.496v-8.642h1.756v8.642zm-13.032 16.674h-1.526v3.14h-1.758v-8.642h3.284a2.761 2.761 0 1 1 0 5.502zm-.288-4.249h-1.238v2.996h1.238a1.499 1.499 0 1 0 0-2.996zm10.888 7.39-4.524-5.704v5.704h-1.57v-8.643h1.225l4.523 5.704v-5.704h1.57v8.643zm7.674.245a4.54 4.54 0 1 1 .115-9.075 5.4 5.4 0 0 1 3.068.878v1.6a4.286 4.286 0 0 0 -2.895-1.066 3.174 3.174 0 0 0 -.1 6.338 3.627 3.627 0 0 0 1.67-.36v-1.686h-1.526v-1.297h3.212v3.816a8.845 8.845 0 0 1 -3.544.85z" fill="#fff"/><path d="m347.293 56.038h2v311.662h-2zm194.055-2.287h2v315.012h-2z" fill="#939598"/><g clip-path="url(#a)"><path d="m347.293 3.762h2v52.277h-2zm194.055-.007h2v51.996h-2z" fill="#fff"/></g><g clip-path="url(#a)" fill="#fff"><path d="m609.082 321.253.025-.007.015-.004c.144-.033.327-.081.46-.105a14.452 14.452 0 0 1 1.648-.132 16.024 16.024 0 0 0 3.081-.503 2.37 2.37 0 0 0 .738-.74l.72-.208a21.962 21.962 0 0 1 3.507-15.397l-.55-.488a1.884 1.884 0 0 0 -.346-.984 15.971 15.971 0 0 0 -2.556-1.784 14.376 14.376 0 0 1 -1.425-.828c-.104-.076-.243-.193-.356-.284l-.026-.019a1.8 1.8 0 0 1 -.422-2.516 1.66 1.66 0 0 1 1.37-.601 2.05 2.05 0 0 1 1.197.448c.117.092.277.213.381.303a14.076 14.076 0 0 1 1.132 1.192 16.028 16.028 0 0 0 2.317 2.079 1.37 1.37 0 0 0 1.021.098c.1.073.431.309.621.438a22.141 22.141 0 0 1 11.23-6.371 22.505 22.505 0 0 1 3.106-.474l.041-.722a1.86 1.86 0 0 0 .56-.883 15.855 15.855 0 0 0 -.193-3.095 14.436 14.436 0 0 1 -.235-1.623c-.004-.124.003-.296.004-.438 0-.016-.004-.031-.004-.048a1.727 1.727 0 1 1 3.438 0c0 .149.008.348.003.486a13.987 13.987 0 0 1 -.235 1.623 15.8 15.8 0 0 0 -.194 3.095 1.353 1.353 0 0 0 .561.854c.006.124.026.534.041.762a22.584 22.584 0 0 1 14.267 6.845l.654-.463a1.932 1.932 0 0 0 1.043-.113 16.072 16.072 0 0 0 2.317-2.082 14.134 14.134 0 0 1 1.135-1.193c.105-.09.265-.21.382-.302a1.828 1.828 0 0 1 2.563.152 1.802 1.802 0 0 1 -.422 2.517c-.116.092-.268.221-.379.303a14.297 14.297 0 0 1 -1.428.827 16.102 16.102 0 0 0 -2.556 1.783 1.345 1.345 0 0 0 -.323.967c-.095.087-.432.383-.609.543a22.053 22.053 0 0 1 3.58 15.36l.694.201a1.923 1.923 0 0 0 .742.74 16.102 16.102 0 0 0 3.081.503 14.695 14.695 0 0 1 1.65.131c.142.027.351.084.498.117a1.715 1.715 0 1 1 -.764 3.326.217.217 0 0 1 -.025-.004.32.32 0 0 1 -.033-.011c-.143-.03-.32-.061-.444-.094a14.259 14.259 0 0 1 -1.543-.591 16.098 16.098 0 0 0 -2.997-.875 1.356 1.356 0 0 0 -.962.354 23.121 23.121 0 0 0 -.735-.128 22.238 22.238 0 0 1 -9.908 12.377 5.792 5.792 0 0 0 .287.689 1.326 1.326 0 0 0 -.132 1.006 15.786 15.786 0 0 0 1.524 2.71 14.23 14.23 0 0 1 .921 1.36c.068.128.16.325.225.46a1.8 1.8 0 0 1 -.73 2.425 1.826 1.826 0 0 1 -2.378-.967c-.065-.133-.157-.311-.213-.437a14.316 14.316 0 0 1 -.499-1.564 15.766 15.766 0 0 0 -1.179-2.87 1.36 1.36 0 0 0 -.877-.529c-.055-.094-.258-.464-.367-.657a22.602 22.602 0 0 1 -2.949.883 22.362 22.362 0 0 1 -12.913-.923l-.389.7a1.399 1.399 0 0 0 -.74.359 11.879 11.879 0 0 0 -1.33 3.066 14.05 14.05 0 0 1 -.497 1.564c-.055.125-.148.301-.213.434v.004l-.003.003a1.823 1.823 0 0 1 -2.373.963 1.797 1.797 0 0 1 -.73-2.425c.065-.135.152-.332.22-.46a14.425 14.425 0 0 1 .921-1.364 16.546 16.546 0 0 0 1.556-2.776 1.676 1.676 0 0 0 -.153-.965l.313-.744a22.243 22.243 0 0 1 -9.913-12.289l-.748.127a1.912 1.912 0 0 0 -.988-.346 16.153 16.153 0 0 0 -2.997.875 14.48 14.48 0 0 1 -1.542.587c-.125.033-.303.068-.445.099-.01.003-.02.008-.033.011a.191.191 0 0 0 -.025.003 1.715 1.715 0 1 1 -.764-3.326m69.942 2.411-7.095-30.603a5.509 5.509 0 0 0 -2.97-3.669l-28.719-13.617a5.577 5.577 0 0 0 -4.767 0l-28.713 13.625a5.504 5.504 0 0 0 -2.97 3.668l-7.085 30.603a5.409 5.409 0 0 0 .745 4.147 5.236 5.236 0 0 0 .313.43l19.875 24.539a5.603 5.603 0 0 0 4.292 2.035l31.873-.007a5.612 5.612 0 0 0 4.293-2.032l19.868-24.542a5.428 5.428 0 0 0 1.061-4.577"/><path d="m632.757 309.022a1.517 1.517 0 0 0 2.405-1.153l.037-.018.511-8.953a18.436 18.436 0 0 0 -1.833.314 17.744 17.744 0 0 0 -8.527 4.613l7.393 5.204z"/></g><path d="m635.372 318.42 2.49 1.189 2.483-1.186.617-2.662-1.719-2.133h-2.765l-1.723 2.13z" fill="#fff"/><g clip-path="url(#a)"><path d="m640.536 307.84a1.482 1.482 0 0 0 .331.873 1.523 1.523 0 0 0 2.078.277l.026.01 7.344-5.17a17.905 17.905 0 0 0 -10.297-4.931l.511 8.939zm-1.34 17.53a1.528 1.528 0 0 0 -1.39-.79 1.519 1.519 0 0 0 -1.28.794h-.007l-4.363 7.834a17.887 17.887 0 0 0 9.698.496q.895-.203 1.749-.485l-4.374-7.848zm7.102-12.213a1.501 1.501 0 0 0 .595 2.586l.008.036 8.696 2.487a17.808 17.808 0 0 0 -2.59-11.093l-6.712 5.966zm-14.532 8.979a1.512 1.512 0 0 0 -1.454-1.17 1.496 1.496 0 0 0 -.297.025l-.015-.018-8.872 1.495a17.694 17.694 0 0 0 7.143 8.876l3.437-8.25-.026-.031a1.477 1.477 0 0 0 .084-.927m13.926-1.181a1.505 1.505 0 0 0 -.35-.026 1.52 1.52 0 0 0 -.58.15 1.502 1.502 0 0 0 -.733 1.95l-.011.015 3.473 8.333a17.622 17.622 0 0 0 7.166-8.938l-8.95-1.502zm-16.882-5.139.008-.029a1.526 1.526 0 0 0 .786-.515 1.496 1.496 0 0 0 -.191-2.07l.007-.037-6.75-5.995a17.48 17.48 0 0 0 -2.512 11.126z" fill="#fff"/><g fill="#241f21"><path d="m213.414 214.574q-.693-.924-1.43-1.778a15.2 15.2 0 0 0 -1.433-1.501q1.386-1.362 2.54-2.632 1.178-1.293 2.401-2.701h-4.087q-.322.393-.785.923-.438.53-.946 1.132-.508.577-1.062 1.177-.53.601-1.039 1.155v-10.16l-3.44.555v17.363h3.44v-5.311a8.842 8.842 0 0 1 1.154 1.132 16.66 16.66 0 0 1 1.131 1.408q.531.715.993 1.455.485.715.854 1.316h3.95q-.394-.762-.97-1.686-.578-.924-1.27-1.847m10.767.762q-.324.046-.739.092c-.277.016-.539.023-.785.023a1.745 1.745 0 0 1 -1.639-.738 4.917 4.917 0 0 1 -.439-2.402v-6.35h-3.44v6.766a9.646 9.646 0 0 0 .254 2.286 4.656 4.656 0 0 0 .854 1.8 3.97 3.97 0 0 0 1.616 1.155 7.004 7.004 0 0 0 2.586.416 17.688 17.688 0 0 0 2.91-.231 18.124 18.124 0 0 0 2.262-.462v-11.73h-3.44zm13.758-.832a2.47 2.47 0 0 1 -2.125.97q-.462 0-.854-.023-.393-.046-.647-.093v-6.257a3.02 3.02 0 0 1 .831-.346 4.208 4.208 0 0 1 1.062-.138q2.448 0 2.448 3.324a4.216 4.216 0 0 1 -.716 2.563m2.863-7.065a4.372 4.372 0 0 0 -1.662-1.27 5.363 5.363 0 0 0 -2.286-.462 6.182 6.182 0 0 0 -1.339.14 6.438 6.438 0 0 0 -1.2.391v-6.049l-3.44.554v16.971q.461.138 1.061.277.6.116 1.247.207.67.093 1.34.14.692.068 1.315.068a7.623 7.623 0 0 0 2.678-.439 5.534 5.534 0 0 0 1.986-1.293 5.435 5.435 0 0 0 1.224-2.008 7.506 7.506 0 0 0 .438-2.632 8.977 8.977 0 0 0 -.346-2.586 5.754 5.754 0 0 0 -1.016-2.009m6.962 3.371a5.319 5.319 0 0 1 .208-.854 2.458 2.458 0 0 1 .439-.762 1.913 1.913 0 0 1 .692-.508 2.192 2.192 0 0 1 .993-.208 2.106 2.106 0 0 1 .993.208 1.932 1.932 0 0 1 .67.531 1.91 1.91 0 0 1 .392.74 3.257 3.257 0 0 1 .162.853zm2.286-5.172a5.908 5.908 0 0 0 -2.17.416 5.452 5.452 0 0 0 -1.847 1.223 6.188 6.188 0 0 0 -1.317 2.032 7.5 7.5 0 0 0 -.484 2.817 8.15 8.15 0 0 0 .369 2.494 5.582 5.582 0 0 0 1.178 2.008 5.763 5.763 0 0 0 2.008 1.316 7.73 7.73 0 0 0 2.863.485 12.173 12.173 0 0 0 1.293-.069q.646-.069 1.2-.185a7.866 7.866 0 0 0 1.04-.23 4.66 4.66 0 0 0 .739-.278l-.462-2.793a7.43 7.43 0 0 1 -1.501.438 10.41 10.41 0 0 1 -1.847.162 3.988 3.988 0 0 1 -2.355-.624 2.284 2.284 0 0 1 -.993-1.685h7.804q.024-.277.046-.623c.016-.247.023-.47.023-.67a6.477 6.477 0 0 0 -1.5-4.64 5.346 5.346 0 0 0 -4.087-1.594m14.684.208a6.772 6.772 0 0 0 -.785-.092 5.85 5.85 0 0 0 -.67-.047 12.253 12.253 0 0 0 -2.816.301 19.067 19.067 0 0 0 -2.171.6v11.498h3.44v-9.282a3.96 3.96 0 0 1 .67-.115 5.452 5.452 0 0 1 .785-.069 6.185 6.185 0 0 1 1.339.138q.624.116 1.085.231l.578-2.84a3.193 3.193 0 0 0 -.67-.184 6.948 6.948 0 0 0 -.785-.139m12.673 1.386a3.766 3.766 0 0 0 -1.64-1.131 6.821 6.821 0 0 0 -2.562-.416 21.415 21.415 0 0 0 -5.172.693v11.729h3.44v-9.374q.324-.047.739-.07a7.082 7.082 0 0 1 .785-.046 1.788 1.788 0 0 1 1.639.693 4.632 4.632 0 0 1 .439 2.355v6.442h3.44v-6.858a9.296 9.296 0 0 0 -.254-2.262 4.45 4.45 0 0 0 -.854-1.755m7.199 3.578a5.319 5.319 0 0 1 .208-.854 2.458 2.458 0 0 1 .44-.762 1.913 1.913 0 0 1 .691-.508 2.192 2.192 0 0 1 .993-.208 2.106 2.106 0 0 1 .993.208 1.932 1.932 0 0 1 .67.531 1.91 1.91 0 0 1 .392.74 3.257 3.257 0 0 1 .162.853zm2.286-5.172a5.908 5.908 0 0 0 -2.17.416 5.452 5.452 0 0 0 -1.847 1.223 6.188 6.188 0 0 0 -1.317 2.032 7.5 7.5 0 0 0 -.484 2.817 8.15 8.15 0 0 0 .37 2.494 5.582 5.582 0 0 0 1.177 2.008 5.763 5.763 0 0 0 2.008 1.316 7.73 7.73 0 0 0 2.863.485 12.173 12.173 0 0 0 1.293-.069q.647-.069 1.201-.185a7.866 7.866 0 0 0 1.04-.23 4.66 4.66 0 0 0 .738-.278l-.462-2.793a7.43 7.43 0 0 1 -1.5.438 10.41 10.41 0 0 1 -1.848.162 3.988 3.988 0 0 1 -2.355-.624 2.284 2.284 0 0 1 -.993-1.685h7.804q.024-.277.046-.623c.016-.247.023-.47.023-.67a6.477 6.477 0 0 0 -1.5-4.64 5.346 5.346 0 0 0 -4.087-1.594m14.615 9.744a7.104 7.104 0 0 1 -1.13.092 1.664 1.664 0 0 1 -1.548-.646 3.477 3.477 0 0 1 -.37-1.732v-4.271h4.133v-2.863h-4.133v-3.579l-3.44.554v10.205a10.248 10.248 0 0 0 .208 2.148 4.16 4.16 0 0 0 .785 1.662 3.81 3.81 0 0 0 1.478 1.062 6.332 6.332 0 0 0 2.332.37 8.082 8.082 0 0 0 1.87-.185 9.819 9.819 0 0 0 1.385-.439l-.485-2.678a6.514 6.514 0 0 1 -1.085.3m6.369-4.572a5.319 5.319 0 0 1 .208-.854 2.458 2.458 0 0 1 .439-.762 1.913 1.913 0 0 1 .692-.508 2.192 2.192 0 0 1 .993-.208 2.106 2.106 0 0 1 .993.208 1.932 1.932 0 0 1 .67.531 1.91 1.91 0 0 1 .392.74 3.257 3.257 0 0 1 .162.853zm2.286-5.172a5.908 5.908 0 0 0 -2.17.416 5.452 5.452 0 0 0 -1.847 1.223 6.17 6.17 0 0 0 -1.316 2.032 7.48 7.48 0 0 0 -.485 2.817 8.15 8.15 0 0 0 .369 2.494 5.582 5.582 0 0 0 1.178 2.008 5.763 5.763 0 0 0 2.008 1.316 7.73 7.73 0 0 0 2.863.485 12.173 12.173 0 0 0 1.293-.069q.646-.069 1.2-.185a7.867 7.867 0 0 0 1.04-.23 4.66 4.66 0 0 0 .739-.278l-.462-2.793a7.43 7.43 0 0 1 -1.501.438 10.41 10.41 0 0 1 -1.847.162 3.988 3.988 0 0 1 -2.355-.624 2.284 2.284 0 0 1 -.993-1.685h7.804q.024-.277.046-.623c.016-.247.023-.47.023-.67a6.477 6.477 0 0 0 -1.5-4.64 5.346 5.346 0 0 0 -4.087-1.594m16.692 7.804a2.462 2.462 0 0 0 -.6-1.039 3.91 3.91 0 0 0 -1.155-.877 13.142 13.142 0 0 0 -1.87-.832q-.553-.207-.923-.369-.346-.184-.555-.323a.875.875 0 0 1 -.277-.323.935.935 0 0 1 -.069-.37q0-.9 1.616-.9a6.98 6.98 0 0 1 1.57.161 12.286 12.286 0 0 1 1.316.37l.601-2.679a9.285 9.285 0 0 0 -1.617-.415 10.54 10.54 0 0 0 -2.124-.208 5.522 5.522 0 0 0 -3.486.993 3.244 3.244 0 0 0 -1.27 2.701 3.983 3.983 0 0 0 .254 1.501 3.243 3.243 0 0 0 .716 1.085 4.52 4.52 0 0 0 1.108.762q.67.324 1.478.623a8.985 8.985 0 0 1 1.547.716.853.853 0 0 1 .508.716.714.714 0 0 1 -.393.716 3.44 3.44 0 0 1 -1.339.184 9.296 9.296 0 0 1 -1.824-.184 12.332 12.332 0 0 1 -1.8-.554l-.578 2.793a11.004 11.004 0 0 0 1.477.462 11.119 11.119 0 0 0 2.702.277 6.668 6.668 0 0 0 3.81-.923 3.079 3.079 0 0 0 1.362-2.725 4.404 4.404 0 0 0 -.185-1.339m-148.926 6.552a.64.64 0 0 0 -.062.479 7.684 7.684 0 0 0 .72 1.29 6.693 6.693 0 0 1 .436.648c.032.06.075.154.106.219a.816.816 0 1 1 -1.47.694c-.03-.063-.073-.148-.1-.208a6.86 6.86 0 0 1 -.235-.745 7.58 7.58 0 0 0 -.558-1.366.64.64 0 0 0 -.415-.252l-.173-.312a10.764 10.764 0 0 1 -1.394.42 10.5 10.5 0 0 1 -6.104-.44l-.184.334a.657.657 0 0 0 -.35.17 5.68 5.68 0 0 0 -.63 1.46 6.848 6.848 0 0 1 -.234.745c-.026.059-.07.143-.1.206v.002l-.002.002a.816.816 0 1 1 -1.467-.696c.03-.065.072-.158.104-.22a6.752 6.752 0 0 1 .436-.65 7.91 7.91 0 0 0 .735-1.32.806.806 0 0 0 -.072-.46l.148-.354a10.573 10.573 0 0 1 -4.686-5.85l-.354.06a.901.901 0 0 0 -.467-.165 7.609 7.609 0 0 0 -1.417.417 6.859 6.859 0 0 1 -.73.28c-.058.016-.142.032-.21.047l-.015.005h-.012a.815.815 0 1 1 -.361-1.582l.012-.003.007-.002c.068-.016.155-.04.217-.05a6.673 6.673 0 0 1 .78-.063 7.593 7.593 0 0 0 1.456-.24 1.132 1.132 0 0 0 .349-.352l.34-.1a10.513 10.513 0 0 1 1.658-7.328l-.26-.233a.916.916 0 0 0 -.163-.47 7.607 7.607 0 0 0 -1.21-.848 6.638 6.638 0 0 1 -.672-.394c-.05-.036-.115-.092-.17-.135l-.011-.01a.86.86 0 0 1 -.2-1.197.782.782 0 0 1 .648-.286.965.965 0 0 1 .566.213c.056.044.13.102.18.144a6.845 6.845 0 0 1 .535.568 7.603 7.603 0 0 0 1.096.99.644.644 0 0 0 .482.047c.047.034.204.147.294.208a10.452 10.452 0 0 1 5.309-3.033 10.714 10.714 0 0 1 1.468-.226l.02-.344a.887.887 0 0 0 .264-.42 7.645 7.645 0 0 0 -.091-1.473 6.779 6.779 0 0 1 -.111-.773c-.002-.06 0-.141.002-.208l-.002-.023a.817.817 0 1 1 1.625 0c0 .07.004.166.002.23a6.78 6.78 0 0 1 -.112.774 7.566 7.566 0 0 0 -.091 1.473.645.645 0 0 0 .265.407c.003.059.012.254.019.362a10.65 10.65 0 0 1 6.745 3.259l.309-.22a.914.914 0 0 0 .493-.054 7.619 7.619 0 0 0 1.095-.991 6.904 6.904 0 0 1 .537-.568c.05-.043.125-.1.18-.144a.816.816 0 1 1 1.012 1.27c-.054.045-.126.106-.178.145a6.975 6.975 0 0 1 -.675.394 7.561 7.561 0 0 0 -1.21.849.644.644 0 0 0 -.152.46l-.288.258a10.551 10.551 0 0 1 1.693 7.313l.328.095a.912.912 0 0 0 .35.353 7.593 7.593 0 0 0 1.457.239 6.673 6.673 0 0 1 .78.063c.067.012.166.039.236.055a.815.815 0 1 1 -.362 1.583l-.011-.001-.016-.006c-.067-.014-.152-.03-.21-.045a6.656 6.656 0 0 1 -.73-.281 7.608 7.608 0 0 0 -1.416-.417.642.642 0 0 0 -.455.169 13.48 13.48 0 0 0 -.347-.061 10.572 10.572 0 0 1 -4.684 5.892 2.926 2.926 0 0 0 .135.328m10.593-20.563a2.623 2.623 0 0 0 -1.404-1.747l-13.576-6.482a2.615 2.615 0 0 0 -2.254 0l-13.574 6.486a2.617 2.617 0 0 0 -1.405 1.746l-3.348 14.569a2.586 2.586 0 0 0 .352 1.974 2.477 2.477 0 0 0 .148.205l9.395 11.682a2.645 2.645 0 0 0 2.03.969l15.067-.004a2.64 2.64 0 0 0 2.029-.967l9.392-11.683a2.598 2.598 0 0 0 .502-2.18z"/><path d="m170.003 207.03a.716.716 0 0 0 1.137-.55l.017-.008.242-4.262a8.542 8.542 0 0 0 -.867.15 8.36 8.36 0 0 0 -4.03 2.195l3.494 2.478z"/></g></g><path d="m171.239 211.503 1.177.566 1.174-.564.291-1.268-.812-1.015h-1.307l-.815 1.014z" fill="#241f21"/><g clip-path="url(#a)"><path d="m173.68 206.467a.71.71 0 0 0 .156.415.718.718 0 0 0 .983.132l.012.005 3.472-2.462a8.448 8.448 0 0 0 -4.868-2.347l.241 4.255zm-.634 8.345a.726.726 0 0 0 -.656-.377.718.718 0 0 0 -.606.379h-.004l-2.062 3.729a8.405 8.405 0 0 0 4.585.236 8.52 8.52 0 0 0 .826-.231l-2.068-3.736zm3.358-5.814a.705.705 0 0 0 -.227.38.716.716 0 0 0 .508.85l.004.018 4.11 1.184a8.52 8.52 0 0 0 -1.223-5.281l-3.174 2.84zm-6.87 4.274a.717.717 0 0 0 -.687-.557.677.677 0 0 0 -.14.012l-.008-.009-4.194.712a8.41 8.41 0 0 0 3.377 4.226l1.624-3.927-.012-.016a.71.71 0 0 0 .04-.441m6.59-.571-.007.01a.7.7 0 0 0 -.165-.014.72.72 0 0 0 -.62 1l-.007.007 1.643 3.967a8.374 8.374 0 0 0 3.387-4.255zm-7.984-2.451a.726.726 0 0 0 .372-.245.716.716 0 0 0 -.09-.986l.003-.017-3.19-2.854a8.367 8.367 0 0 0 -1.189 5.296l4.09-1.18z" fill="#241f21"/><g fill="#fff"><path d="m213.951 321.157q-.693-.924-1.43-1.778a15.2 15.2 0 0 0 -1.433-1.5q1.386-1.363 2.54-2.633 1.178-1.293 2.401-2.7h-4.087q-.322.392-.785.922-.438.531-.946 1.132-.508.578-1.062 1.177-.53.602-1.039 1.155v-10.159l-3.44.554v17.363h3.44v-5.31a8.84 8.84 0 0 1 1.154 1.131 16.658 16.658 0 0 1 1.131 1.408q.531.716.993 1.455.485.716.854 1.316h3.95q-.394-.762-.97-1.686-.578-.924-1.27-1.847m10.767.763q-.324.046-.74.091c-.276.016-.538.023-.784.023a1.745 1.745 0 0 1 -1.64-.738 4.917 4.917 0 0 1 -.438-2.402v-6.349h-3.44v6.765a9.646 9.646 0 0 0 .254 2.286 4.656 4.656 0 0 0 .854 1.801 3.97 3.97 0 0 0 1.616 1.154 7.004 7.004 0 0 0 2.586.416 17.687 17.687 0 0 0 2.91-.23 18.124 18.124 0 0 0 2.262-.463v-11.729h-3.44zm13.757-.832a2.47 2.47 0 0 1 -2.124.97q-.462 0-.854-.023-.393-.046-.647-.093v-6.257a3.02 3.02 0 0 1 .831-.346 4.207 4.207 0 0 1 1.062-.138q2.448 0 2.448 3.324a4.216 4.216 0 0 1 -.716 2.563m2.863-7.065a4.371 4.371 0 0 0 -1.662-1.27 5.363 5.363 0 0 0 -2.286-.462 6.183 6.183 0 0 0 -1.339.139 6.44 6.44 0 0 0 -1.2.392v-6.049l-3.44.554v16.971q.461.138 1.061.277.6.116 1.247.207.67.093 1.34.139.692.069 1.315.069a7.624 7.624 0 0 0 2.678-.439 5.534 5.534 0 0 0 1.986-1.293 5.435 5.435 0 0 0 1.224-2.008 7.506 7.506 0 0 0 .438-2.632 8.977 8.977 0 0 0 -.346-2.586 5.754 5.754 0 0 0 -1.016-2.009m6.961 3.371a5.32 5.32 0 0 1 .208-.854 2.458 2.458 0 0 1 .44-.762 1.913 1.913 0 0 1 .691-.508 2.192 2.192 0 0 1 .993-.208 2.106 2.106 0 0 1 .993.208 1.932 1.932 0 0 1 .67.531 1.91 1.91 0 0 1 .392.739 3.257 3.257 0 0 1 .162.854zm2.286-5.172a5.908 5.908 0 0 0 -2.17.416 5.452 5.452 0 0 0 -1.847 1.223 6.188 6.188 0 0 0 -1.317 2.032 7.5 7.5 0 0 0 -.484 2.817 8.15 8.15 0 0 0 .37 2.494 5.582 5.582 0 0 0 1.177 2.008 5.763 5.763 0 0 0 2.008 1.316 7.73 7.73 0 0 0 2.863.485 12.173 12.173 0 0 0 1.293-.069q.647-.069 1.201-.185a7.866 7.866 0 0 0 1.04-.231 4.659 4.659 0 0 0 .738-.277l-.462-2.793a7.43 7.43 0 0 1 -1.5.438 10.41 10.41 0 0 1 -1.848.162 3.988 3.988 0 0 1 -2.355-.624 2.284 2.284 0 0 1 -.993-1.685h7.804q.024-.277.046-.623c.016-.247.023-.47.023-.67a6.477 6.477 0 0 0 -1.5-4.641 5.346 5.346 0 0 0 -4.087-1.593m14.684.208a6.77 6.77 0 0 0 -.784-.092 5.848 5.848 0 0 0 -.67-.047 12.253 12.253 0 0 0 -2.816.3 19.066 19.066 0 0 0 -2.171.6v11.499h3.44v-9.282a3.96 3.96 0 0 1 .67-.115 5.454 5.454 0 0 1 .785-.07 6.185 6.185 0 0 1 1.339.139q.624.115 1.085.23l.578-2.84a3.193 3.193 0 0 0 -.67-.183 6.945 6.945 0 0 0 -.785-.14m12.672 1.386a3.766 3.766 0 0 0 -1.639-1.13 6.821 6.821 0 0 0 -2.563-.417 21.414 21.414 0 0 0 -5.172.693v11.73h3.44v-9.375q.324-.046.74-.069a7.084 7.084 0 0 1 .784-.047 1.788 1.788 0 0 1 1.64.693 4.632 4.632 0 0 1 .438 2.355v6.442h3.44v-6.858a9.295 9.295 0 0 0 -.254-2.262 4.45 4.45 0 0 0 -.854-1.755m7.2 3.579a5.32 5.32 0 0 1 .208-.854 2.458 2.458 0 0 1 .44-.762 1.913 1.913 0 0 1 .691-.508 2.192 2.192 0 0 1 .993-.208 2.106 2.106 0 0 1 .993.208 1.932 1.932 0 0 1 .67.531 1.91 1.91 0 0 1 .392.739 3.257 3.257 0 0 1 .162.854zm2.286-5.172a5.908 5.908 0 0 0 -2.17.416 5.452 5.452 0 0 0 -1.847 1.223 6.187 6.187 0 0 0 -1.317 2.032 7.5 7.5 0 0 0 -.484 2.817 8.15 8.15 0 0 0 .37 2.494 5.582 5.582 0 0 0 1.177 2.008 5.763 5.763 0 0 0 2.008 1.316 7.73 7.73 0 0 0 2.863.485 12.173 12.173 0 0 0 1.293-.069q.647-.069 1.201-.185a7.866 7.866 0 0 0 1.04-.231 4.659 4.659 0 0 0 .738-.277l-.462-2.793a7.43 7.43 0 0 1 -1.5.438 10.41 10.41 0 0 1 -1.848.162 3.988 3.988 0 0 1 -2.355-.624 2.284 2.284 0 0 1 -.993-1.685h7.804q.024-.277.046-.623c.016-.247.023-.47.023-.67a6.477 6.477 0 0 0 -1.5-4.641 5.346 5.346 0 0 0 -4.087-1.593m14.615 9.743a7.104 7.104 0 0 1 -1.13.092 1.664 1.664 0 0 1 -1.548-.646 3.477 3.477 0 0 1 -.37-1.732v-4.27h4.133v-2.864h-4.133v-3.579l-3.44.554v10.205a10.247 10.247 0 0 0 .208 2.148 4.16 4.16 0 0 0 .785 1.662 3.811 3.811 0 0 0 1.478 1.062 6.332 6.332 0 0 0 2.332.37 8.082 8.082 0 0 0 1.87-.185 9.821 9.821 0 0 0 1.385-.439l-.485-2.678a6.513 6.513 0 0 1 -1.085.3m6.368-4.571a5.32 5.32 0 0 1 .208-.854 2.458 2.458 0 0 1 .44-.762 1.913 1.913 0 0 1 .691-.508 2.192 2.192 0 0 1 .993-.208 2.106 2.106 0 0 1 .993.208 1.932 1.932 0 0 1 .67.531 1.91 1.91 0 0 1 .392.739 3.257 3.257 0 0 1 .162.854zm2.286-5.172a5.908 5.908 0 0 0 -2.17.416 5.452 5.452 0 0 0 -1.847 1.223 6.17 6.17 0 0 0 -1.316 2.032 7.48 7.48 0 0 0 -.485 2.817 8.15 8.15 0 0 0 .37 2.494 5.582 5.582 0 0 0 1.177 2.008 5.763 5.763 0 0 0 2.008 1.316 7.73 7.73 0 0 0 2.863.485 12.173 12.173 0 0 0 1.293-.069q.647-.069 1.201-.185a7.866 7.866 0 0 0 1.04-.231 4.659 4.659 0 0 0 .738-.277l-.462-2.793a7.43 7.43 0 0 1 -1.5.438 10.41 10.41 0 0 1 -1.848.162 3.988 3.988 0 0 1 -2.355-.624 2.284 2.284 0 0 1 -.993-1.685h7.804q.024-.277.046-.623c.016-.247.023-.47.023-.67a6.477 6.477 0 0 0 -1.5-4.641 5.346 5.346 0 0 0 -4.087-1.593m16.693 7.804a2.462 2.462 0 0 0 -.6-1.039 3.91 3.91 0 0 0 -1.155-.877 13.143 13.143 0 0 0 -1.87-.832q-.553-.207-.923-.369-.346-.184-.555-.323a.875.875 0 0 1 -.277-.323.935.935 0 0 1 -.069-.37q0-.9 1.616-.9a6.975 6.975 0 0 1 1.57.161 12.283 12.283 0 0 1 1.316.37l.601-2.679a9.284 9.284 0 0 0 -1.617-.415 10.54 10.54 0 0 0 -2.124-.208 5.522 5.522 0 0 0 -3.486.993 3.244 3.244 0 0 0 -1.27 2.701 3.983 3.983 0 0 0 .254 1.501 3.243 3.243 0 0 0 .716 1.085 4.52 4.52 0 0 0 1.108.762q.67.324 1.478.623a8.986 8.986 0 0 1 1.547.716.853.853 0 0 1 .508.716.714.714 0 0 1 -.393.716 3.44 3.44 0 0 1 -1.339.184 9.297 9.297 0 0 1 -1.824-.184 12.213 12.213 0 0 1 -1.8-.554l-.578 2.793a11.004 11.004 0 0 0 1.477.462 11.119 11.119 0 0 0 2.702.277 6.668 6.668 0 0 0 3.81-.923 3.079 3.079 0 0 0 1.362-2.725 4.404 4.404 0 0 0 -.185-1.339m-148.926 6.551a.639.639 0 0 0 -.062.48 7.683 7.683 0 0 0 .72 1.29 6.696 6.696 0 0 1 .436.647c.032.061.075.154.106.22a.816.816 0 1 1 -1.47.693c-.03-.063-.073-.148-.1-.208a6.86 6.86 0 0 1 -.235-.745 7.58 7.58 0 0 0 -.558-1.366.64.64 0 0 0 -.415-.252l-.173-.312a10.762 10.762 0 0 1 -1.394.42 10.5 10.5 0 0 1 -6.104-.44l-.184.334a.657.657 0 0 0 -.35.17 5.68 5.68 0 0 0 -.63 1.46 6.85 6.85 0 0 1 -.234.745c-.026.06-.07.143-.1.206v.002l-.002.002a.816.816 0 1 1 -1.467-.696c.03-.065.072-.158.104-.219a6.75 6.75 0 0 1 .436-.65 7.91 7.91 0 0 0 .735-1.32.806.806 0 0 0 -.072-.46l.148-.355a10.573 10.573 0 0 1 -4.686-5.85l-.354.06a.901.901 0 0 0 -.467-.165 7.608 7.608 0 0 0 -1.417.417 6.861 6.861 0 0 1 -.73.28c-.058.016-.142.032-.21.047l-.015.005-.012.001a.815.815 0 1 1 -.361-1.583l.012-.003.007-.002c.068-.016.155-.039.217-.05a6.675 6.675 0 0 1 .78-.063 7.593 7.593 0 0 0 1.456-.239 1.131 1.131 0 0 0 .349-.353l.34-.099a10.513 10.513 0 0 1 1.658-7.329l-.26-.233a.916.916 0 0 0 -.163-.469 7.608 7.608 0 0 0 -1.21-.849 6.638 6.638 0 0 1 -.672-.394c-.05-.036-.115-.092-.17-.135l-.011-.009a.86.86 0 0 1 -.2-1.198.782.782 0 0 1 .648-.286.965.965 0 0 1 .566.213c.056.044.13.102.18.144a6.845 6.845 0 0 1 .535.568 7.6 7.6 0 0 0 1.096.99.645.645 0 0 0 .482.047c.047.034.204.147.294.208a10.452 10.452 0 0 1 5.309-3.033 10.712 10.712 0 0 1 1.468-.226l.02-.344a.887.887 0 0 0 .264-.42 7.645 7.645 0 0 0 -.091-1.473 6.78 6.78 0 0 1 -.111-.773c-.002-.059 0-.14.002-.208l-.002-.023a.817.817 0 1 1 1.625 0c0 .071.004.166.002.231a6.778 6.778 0 0 1 -.112.773 7.566 7.566 0 0 0 -.091 1.473.648.648 0 0 0 .265.407c.003.06.012.254.019.362a10.65 10.65 0 0 1 6.745 3.26l.309-.22a.913.913 0 0 0 .493-.055 7.618 7.618 0 0 0 1.095-.99 6.905 6.905 0 0 1 .537-.569c.05-.043.125-.1.18-.144a.816.816 0 1 1 1.012 1.27c-.054.045-.126.106-.178.145a6.974 6.974 0 0 1 -.675.394 7.564 7.564 0 0 0 -1.21.85.644.644 0 0 0 -.152.46l-.288.257a10.551 10.551 0 0 1 1.693 7.313l.328.095a.912.912 0 0 0 .35.353 7.593 7.593 0 0 0 1.457.24 6.673 6.673 0 0 1 .78.062c.067.012.166.04.236.055a.815.815 0 1 1 -.362 1.583h-.011l-.016-.007c-.067-.014-.152-.029-.21-.045a6.655 6.655 0 0 1 -.73-.28 7.61 7.61 0 0 0 -1.416-.418.642.642 0 0 0 -.455.17 13.48 13.48 0 0 0 -.347-.062 10.572 10.572 0 0 1 -4.684 5.892 2.926 2.926 0 0 0 .135.328m10.593-20.563a2.623 2.623 0 0 0 -1.404-1.747l-13.576-6.482a2.615 2.615 0 0 0 -2.254 0l-13.574 6.486a2.617 2.617 0 0 0 -1.405 1.746l-3.348 14.57a2.586 2.586 0 0 0 .352 1.973 2.475 2.475 0 0 0 .148.205l9.395 11.682a2.645 2.645 0 0 0 2.03.97l15.067-.005a2.64 2.64 0 0 0 2.029-.967l9.392-11.683a2.598 2.598 0 0 0 .502-2.179z"/><path d="m170.54 313.613a.716.716 0 0 0 1.137-.55l.017-.007.242-4.262a8.54 8.54 0 0 0 -.867.149 8.36 8.36 0 0 0 -4.03 2.196l3.494 2.478z"/></g></g><path d="m171.776 318.087 1.177.566 1.174-.564.291-1.268-.812-1.015h-1.307l-.815 1.014z" fill="#fff"/><g clip-path="url(#a)"><path d="m174.217 313.05a.71.71 0 0 0 .156.415.718.718 0 0 0 .983.132l.012.005 3.472-2.462a8.448 8.448 0 0 0 -4.868-2.347l.241 4.255zm-.634 8.345a.726.726 0 0 0 -.656-.377.718.718 0 0 0 -.606.38h-.004l-2.062 3.728a8.405 8.405 0 0 0 4.585.236 8.515 8.515 0 0 0 .826-.23l-2.068-3.737zm3.357-5.814a.705.705 0 0 0 -.226.38.716.716 0 0 0 .508.851l.004.017 4.11 1.184a8.52 8.52 0 0 0 -1.223-5.28l-3.174 2.84zm-6.869 4.275a.717.717 0 0 0 -.687-.557.678.678 0 0 0 -.141.012l-.007-.01-4.194.713a8.41 8.41 0 0 0 3.377 4.226l1.624-3.927-.012-.016a.71.71 0 0 0 .04-.441m6.59-.571-.007.009a.698.698 0 0 0 -.165-.013.732.732 0 0 0 -.274.07.718.718 0 0 0 -.347.93l-.006.007 1.643 3.967a8.374 8.374 0 0 0 3.387-4.255zm-7.984-2.452a.726.726 0 0 0 .372-.245.716.716 0 0 0 -.09-.986l.003-.017-3.19-2.854a8.367 8.367 0 0 0 -1.189 5.296l4.09-1.18z" fill="#fff"/></g></g></svg>