<svg xmlns="http://www.w3.org/2000/svg" id="svg2780" viewBox="0 0 192.842 50.446"><defs><style>.cls-1{fill:none}.cls-2{clip-path:url(#clip-path)}.cls-3{fill:#4a6787}.cls-4{fill:#fff}.cls-5{fill:#e9edf7}</style><clipPath id="clip-path"><path class="cls-1" d="M2.804 1.526h187.092V47H2.804z"/></clipPath></defs><g class="cls-2"><path class="cls-3" d="M23.257 9.454a13.466 13.466 0 1 0 13.464 13.5 13.494 13.494 0 0 0-13.465-13.5m15.006 27.72a24.665 24.665 0 0 1-2.869-1.013 3.003 3.003 0 0 0-3.75.408 6.216 6.216 0 0 1-1.93 1.04 1.27 1.27 0 0 0-.843 1.07c-.254 1.406-.566 2.8-.8 4.209a1.245 1.245 0 0 1-1.206 1.143 22.426 22.426 0 0 1-7.315 0c-.94-.158-1.117-.335-1.31-1.332-.261-1.32-.535-2.641-.743-3.97a1.23 1.23 0 0 0-.804-1.093 12.35 12.35 0 0 1-3.162-1.849 1.001 1.001 0 0 0-1.12-.107c-1.267.454-2.545.881-3.816 1.32-1.259.428-1.309.412-2.172-.643a20.492 20.492 0 0 1-3.3-5.694c-.488-1.294-.485-1.306.532-2.187.986-.855 1.956-1.733 2.973-2.557a1.24 1.24 0 0 0 .512-1.26 12.43 12.43 0 0 1 0-3.422 1.33 1.33 0 0 0-.59-1.348c-1.043-.851-2.052-1.748-3.064-2.634-.794-.697-.82-.793-.459-1.79A21.368 21.368 0 0 1 6.63 9.243a1.34 1.34 0 0 1 1.714-.478c1.34.493 2.703.928 4.039 1.429a1.098 1.098 0 0 0 1.224-.166 11.937 11.937 0 0 1 3.061-1.779 1.212 1.212 0 0 0 .824-1.078c.205-1.328.486-2.65.74-3.97.204-1.04.37-1.197 1.413-1.374a20.926 20.926 0 0 1 6.946-.016c1.228.2 1.27.227 1.532 1.513.255 1.24.493 2.48.713 3.728a1.434 1.434 0 0 0 .962 1.255 10.407 10.407 0 0 1 2.85 1.656 1.297 1.297 0 0 0 1.448.188c1.297-.481 2.618-.908 3.92-1.386a1.35 1.35 0 0 1 1.713.481 22.059 22.059 0 0 1 3.604 6.223 1.393 1.393 0 0 1-.47 1.813c-1.02.817-1.98 1.706-2.988 2.538a1.455 1.455 0 0 0-.628 1.455 13.229 13.229 0 0 1-.007 3.423 1.256 1.256 0 0 0 .531 1.252c1.067.893 2.09 1.832 3.165 2.71a1.283 1.283 0 0 1 .45 1.61 20.954 20.954 0 0 1-3.811 6.519 1.131 1.131 0 0 1-1.313.385m128.35-15.806a7.02 7.02 0 0 0-.042-.855c-.316-1.89-1.14-3.446-3.073-4.062a4.296 4.296 0 0 0-4.617 1.14 5.551 5.551 0 0 0 .02 7.55 4.408 4.408 0 0 0 7.054-1.066 5.705 5.705 0 0 0 .658-2.707m-9.106-6.357a8.27 8.27 0 0 1 5.02-2.118 7.5 7.5 0 0 1 7.617 5.021 9.43 9.43 0 0 1-.378 7.72 7.585 7.585 0 0 1-9.783 3.639 5.507 5.507 0 0 1-2.376-1.86c-.312.073-.297.212-.304.324-.077 1.625-.077 1.648-1.764 1.613-.674-.012-1.513.312-1.987-.196-.42-.455-.134-1.256-.138-1.899q-.018-10.713-.008-21.427c0-.247-.004-.493.004-.736.02-.92.023-.928.97-.943a70 70 0 0 1 2.203 0c.904.02.92.027.92.99.008 2.895.004 5.794.004 8.694zm-37.19 6.443v1.282c0 1.921-.016 3.843.007 5.764.008.585-.111.917-.805.874-.854-.054-1.713-.027-2.572-.011-.45.007-.697-.139-.658-.628.015-.243 0-.489 0-.735V5.448c0-1.533-.096-1.375 1.402-1.352.843.015 1.913-.373 2.468.212.496.527.146 1.567.15 2.38.015 3.92.004 7.843.011 11.763a3.122 3.122 0 0 0 .093 1.25c.342.07.481-.215.654-.407 1.567-1.721 3.154-3.427 4.679-5.187a2.026 2.026 0 0 1 1.794-.774c1.263.058 2.526.016 3.808.016.058.504-.331.677-.558.916-1.798 1.898-3.62 3.774-5.426 5.664-.635.662-.635.678-.05 1.379q2.992 3.569 5.988 7.134c.196.235.5.42.535.913-1.606 0-3.177-.008-4.751.004-.505.004-.69-.393-.932-.705-1.702-2.195-3.392-4.397-5.094-6.592a1.337 1.337 0 0 0-.743-.608m-48.063-1.731c2.46 0 4.936-.004 7.412 0 .412.004.612-.154.535-.585a3.522 3.522 0 0 0-1.786-2.757 4.518 4.518 0 0 0-5.788 1.636 2.08 2.08 0 0 0-.373 1.706m-.127 2.938a3.885 3.885 0 0 0 2.653 3.454 5.09 5.09 0 0 0 6.087-1.567 21.687 21.687 0 0 1 2.272 1.702c.427.3.316.577.03.904a7.532 7.532 0 0 1-4.866 2.588 10.125 10.125 0 0 1-5.753-.743 8.095 8.095 0 0 1-4.49-8.625c.836-6.704 7.04-8.444 11.155-7.077 3.023 1.005 4.436 3.3 4.937 6.284a13.962 13.962 0 0 1 .13 2.198c.004.859-.023.874-.904.878-3.023.008-6.045.004-9.072.004zm28.101-2.991h8.032a3.267 3.267 0 0 0-1.244-2.946 4.128 4.128 0 0 0-4.278-.412 3.795 3.795 0 0 0-2.51 3.357m.085 2.992a4.024 4.024 0 0 0 3.353 3.72 4.882 4.882 0 0 0 4.833-1.383c.392-.423.685-.473 1.105-.07.35.34.762.617 1.143.925 1.013.82 1.013.82.124 1.713a6.383 6.383 0 0 1-2.091 1.471 9.77 9.77 0 0 1-8.952-.493 6.988 6.988 0 0 1-3.474-4.963c-.585-3.18-.092-6.11 2.353-8.463a8.791 8.791 0 0 1 9.811-1.32 7.228 7.228 0 0 1 3.539 4.778 13.388 13.388 0 0 1 .354 3.28c.004.67-.281.816-.882.813-3.269-.02-6.534-.008-9.803-.008zm77.429-3.073a2.266 2.266 0 0 0 1.232.13c1.79.016 3.577.008 5.368.008 1.548 0 1.756-.323 1.132-1.752a2.967 2.967 0 0 0-1.04-1.324 4.251 4.251 0 0 0-4.3-.3 3.728 3.728 0 0 0-2.392 3.237m.1 3.192a3.907 3.907 0 0 0 3.27 3.593 4.884 4.884 0 0 0 4.843-1.332c.44-.474.743-.49 1.201-.07a15.65 15.65 0 0 0 1.53 1.225c.457.323.403.6.06.978a7.38 7.38 0 0 1-4.396 2.48c-3.22.527-6.188.061-8.598-2.376a7.53 7.53 0 0 1-.559-.65c-2.121-2.735-2.102-7.806.22-10.67a8.765 8.765 0 0 1 10.003-2.442 6.936 6.936 0 0 1 3.95 4.424 10.985 10.985 0 0 1 .532 3.62c-.008 1.086-.004 1.097-1.063 1.101-3.23.004-6.457-.004-9.684.008a2.703 2.703 0 0 0-1.309.111M58.18 19.505v-8.817c0-1.344.073-1.229-1.282-1.232-1.713-.004-3.43-.024-5.144.011-.647.015-.893-.22-.832-.847.085-.924-.396-2.083.224-2.715.516-.523 1.636-.15 2.487-.154 4.855-.011 9.715-.003 14.574-.003.285 0 .57.011.855-.004.47-.023.654.188.643.654a29.1 29.1 0 0 0 .007 2.326c.035.635-.28.743-.816.74-1.713-.02-3.43-.012-5.144-.008-1.51.003-1.348-.104-1.348 1.413q-.006 8.513-.004 17.022c-.003 1.683.2 1.448-1.524 1.467-.613.008-1.225.012-1.837 0-.836-.019-.851-.03-.855-.912-.008-2.98-.004-5.96-.004-8.94m86.487 7.655l-.813.944c-2.425 2.814-8.436 2.43-9.718-2.345a8.71 8.71 0 0 1-.347-2.291q-.005-4.534 0-9.064c0-1.044.012-1.044 1.098-1.055.612-.004 1.224 0 1.836 0 1.279-.008 1.16-.02 1.163 1.232v7.716a7.083 7.083 0 0 0 .177 1.822 2.907 2.907 0 0 0 4.501 1.902 4.033 4.033 0 0 0 1.972-3.708c.038-2.245.004-4.494.023-6.739.004-.685-.293-1.544.139-2.013.492-.536 1.39-.19 2.106-.204 1.852-.031 1.852-.008 1.852 1.879V28.22c0 1.128-.008 1.128-1.128 1.14-.166.004-.328.008-.493 0-.69-.03-1.51.25-2.037-.116-.582-.404-.05-1.297-.331-2.083m-52.42-10.368v11.39c-.004 1.17-.008 1.173-1.217 1.177-.736.004-1.471-.019-2.206.004-.543.023-.709-.223-.69-.731.027-.778.008-1.552.008-2.33v-20.7c0-.285.012-.57-.004-.855-.023-.481.216-.647.666-.639.901.012 1.798.031 2.696-.008.616-.023.758.255.754.81-.019 2.41-.007 4.82-.007 7.226v4.655m-8.938 24.634v.613c0 1.467-.07 1.57-1.452 1.929a6.814 6.814 0 0 1-2.179.246 4.687 4.687 0 0 1-1.213-9.095 4.717 4.717 0 0 1 4.324.59c.181.13.454.28.22.577-.177.223-.362.478-.701.223a3.568 3.568 0 0 0-.4-.28 3.68 3.68 0 0 0-4.236.334 4.053 4.053 0 0 0-1.074 4.37 3.471 3.471 0 0 0 3.473 2.396c.038 0 .08 0 .12-.004 2.063-.02 2.66-.786 2.155-2.769a.48.48 0 0 0-.504-.42c-.408-.007-.816-.011-1.225-.03a.309.309 0 0 1-.308-.308c-.015-.224.043-.447.29-.455a51.996 51.996 0 0 1 2.325-.019c.323.004.381.247.381.508v1.594zM61.6 43.324a2.107 2.107 0 0 0 2.217-2.237 2.23 2.23 0 0 0-2.095-2.406 2.272 2.272 0 0 0-2.306 2.345 2.179 2.179 0 0 0 2.183 2.298m-1.979-4.74c.393.035.547-.192.759-.296a2.942 2.942 0 0 1 3.665.681 3.313 3.313 0 0 1 .054 4.086 2.962 2.962 0 0 1-3.65.762c-.447-.22-.763-.489-1.178.108-.17.239-.628.08-.643-.389-.016-.323-.012-.65-.012-.978 0-2.24-.004-4.486 0-6.727 0-.288 0-.573.008-.858.004-.27.08-.47.408-.485.396-.016.485.215.485.539 0 .57-.011 1.143.008 1.713a6.79 6.79 0 0 0 .096 1.844m52.913 2.503a3.413 3.413 0 0 0-1.799.458.879.879 0 0 0-.47.92 1.036 1.036 0 0 0 .651.824 1.809 1.809 0 0 0 2.476-1.286c.162-.754.016-.924-.858-.916m1.81.635c0 .57.007 1.144-.005 1.714-.003.184.07.427-.196.512-.2.061-.42.061-.52-.166-.173-.385-.38-.327-.658-.115a2.617 2.617 0 0 1-2.218.392 1.714 1.714 0 0 1-1.432-1.61 1.652 1.652 0 0 1 1.12-1.716 6.367 6.367 0 0 1 2.28-.374c.708-.023.889-.4.527-1.016a1.613 1.613 0 0 0-1.736-.605 3.172 3.172 0 0 0-1.12.462c-.209.131-.378.012-.513-.173a.321.321 0 0 1 .12-.508 3.256 3.256 0 0 1 3.145-.355 2.056 2.056 0 0 1 1.186 2.21c-.015.451-.004.898-.004 1.348zm-20.849-.576a4.354 4.354 0 0 0-2.376.243.97.97 0 0 0-.724 1.128 1.07 1.07 0 0 0 1.048.866c1.324.166 2.079-.624 2.052-2.237m.966.674c0 .531.004 1.063-.004 1.59-.003.189.074.428-.169.528-.196.08-.431.088-.531-.131-.216-.47-.466-.304-.755-.093a2.518 2.518 0 0 1-1.871.393 1.756 1.756 0 0 1-1.695-1.629 1.71 1.71 0 0 1 1.313-1.829 6.582 6.582 0 0 1 2.053-.288c.23.003.539.084.662-.166a.882.882 0 0 0-.154-.92 1.61 1.61 0 0 0-1.652-.543 2.841 2.841 0 0 0-1.128.45c-.281.177-.462-.004-.585-.235-.131-.246.069-.377.235-.477a3.377 3.377 0 0 1 2.695-.435 1.913 1.913 0 0 1 1.54 1.829c.054.647.012 1.305.012 1.956zm46.844-.734a3.853 3.853 0 0 0-1.88.45.931.931 0 0 0-.461.929 1.03 1.03 0 0 0 .65.824 1.8 1.8 0 0 0 2.472-1.286c.158-.759.02-.924-.781-.917m.731-.827c-.023-1.144-.462-1.594-1.505-1.556a2.635 2.635 0 0 0-1.375.454c-.262.174-.45.074-.604-.165-.162-.243-.004-.393.165-.493a3.279 3.279 0 0 1 3.262-.27 1.669 1.669 0 0 1 .993 1.452c.07 1.301.062 2.607.058 3.912 0 .397-.431.581-.64.25-.319-.508-.538-.312-.858-.092a2.599 2.599 0 0 1-1.88.35 1.758 1.758 0 0 1-1.624-1.563 1.682 1.682 0 0 1 1.251-1.864 5.643 5.643 0 0 1 1.683-.3 2.483 2.483 0 0 0 1.074-.115m-10.845.636v-2.199c-.004-.196-.08-.427.15-.539s.528-.135.651.108c.189.381.374.33.659.138a2.715 2.715 0 0 1 .65-.327 2.083 2.083 0 0 1 2.938 1.656 24.24 24.24 0 0 1 .085 3.777.412.412 0 0 1-.424.481c-.385.02-.493-.2-.496-.527 0-.774.003-1.548-.004-2.322a6.94 6.94 0 0 0-.058-1.097 1.395 1.395 0 0 0-1.224-1.329 1.675 1.675 0 0 0-1.71.928 3.138 3.138 0 0 0-.285 1.425c-.011.732.004 1.467-.011 2.199-.004.308.088.7-.416.723-.609.024-.474-.438-.478-.773-.015-.774-.007-1.548-.007-2.322h-.02m-4.928 2.431a2.114 2.114 0 0 0 2.183-2.264 2.234 2.234 0 0 0-2.233-2.38 2.202 2.202 0 0 0-2.107 2.372 2.086 2.086 0 0 0 2.157 2.272m-3.104-2.264a3.121 3.121 0 1 1 3.196 3.073 2.956 2.956 0 0 1-3.196-3.073m-54.544 1.874c.524-1.432.97-2.66 1.425-3.881a3.601 3.601 0 0 1 .358-.77.529.529 0 0 1 .674-.104c.239.112.142.358.073.535-.947 2.391-1.871 4.79-2.872 7.162a1.668 1.668 0 0 1-1.972 1.101c-.273-.035-.473-.104-.462-.427.012-.25.146-.382.389-.35a1.102 1.102 0 0 0 1.27-.732c.27-.697.751-1.329.332-2.191-.678-1.394-1.244-2.846-1.84-4.274-.112-.27-.444-.632-.024-.828.454-.216.732.089.905.543.42 1.105.882 2.195 1.328 3.292.093.223.197.439.416.924m39.024 1.098c-1.147.011-1.636-.436-1.679-1.544a45.482 45.482 0 0 1-.004-2.807c.012-.52-.065-.898-.708-.836-.27.023-.49-.058-.497-.381-.011-.347.227-.397.485-.381.751.038.72-.47.72-.978-.004-.332-.019-.678.482-.659.423.02.385.324.42.609.111.92.115.924 1.035 1.024.281.03.605-.012.574.423-.027.343-.3.316-.543.343-1.063.127-1.063.13-1.067 1.201-.004.732-.03 1.467.012 2.199.046.809.208.947 1.051.993.227.016.508-.13.535.262.027.374-.215.49-.531.516-.123.012-.243.012-.285.016m-11.944-5.763c.662-.27.99-.115 1.182.409.35.954.708 1.906 1.09 2.849.15.37.196.8.6 1.093a19.414 19.414 0 0 0 1.232-2.891c.162-.374.3-.759.44-1.14.184-.497.527-.555 1.05-.343a16.328 16.328 0 0 1-.893 2.337c-.38.986-.8 1.96-1.19 2.942a.632.632 0 0 1-.623.474.68.68 0 0 1-.743-.481c-.693-1.733-1.41-3.458-2.145-5.249m22.54 5.756a1.398 1.398 0 0 1-1.648-1.509c-.046-.974-.027-1.956-.007-2.93.007-.478-.085-.793-.655-.747-.239.02-.512 0-.535-.343-.023-.335.212-.423.47-.404.639.046.758-.312.716-.84a2.584 2.584 0 0 1 .027-.485c.034-.254.223-.312.439-.312.223 0 .404.07.439.32a1.867 1.867 0 0 1 .023.485c-.077.643.204.905.84.824a1.862 1.862 0 0 1 .484.016.33.33 0 0 1 .305.32.351.351 0 0 1-.343.411c-.039.008-.081.008-.12.012-1.159.177-1.159.177-1.159 1.328 0 .736-.007 1.467.012 2.199a.8.8 0 0 0 .924.885c.25-.011.608-.23.666.239.062.466-.292.504-.635.531-.08.004-.162 0-.243 0m-32.739-3.123c0-.736.004-1.471 0-2.203-.004-.238-.077-.52.258-.589.235-.05.532-.08.613.224.107.389.273.312.496.127a2.135 2.135 0 0 1 1.46-.532c.261.012.496.062.496.397a.448.448 0 0 1-.408.497c-1.675.389-1.944.731-1.971 2.464-.012.735-.004 1.47-.012 2.206 0 .27-.08.47-.404.493-.374.023-.508-.173-.516-.512v-2.572zm34.947.123v-2.322c0-.297-.012-.59.412-.597.358-.004.516.154.516.512-.008 1.633 0 3.262-.008 4.894 0 .358-.196.505-.547.474-.338-.027-.37-.262-.37-.516-.003-.817-.003-1.629-.003-2.445m-16.84-.007v2.445c.003.335-.097.55-.486.527a.415.415 0 0 1-.435-.47q-.005-2.506 0-5.017c.004-.32.231-.392.5-.392.313-.004.424.17.42.462-.003.812 0 1.628 0 2.445m42.436-1.778c0 1.26.004 2.522-.004 3.782a3.812 3.812 0 0 1-.05.727c-.035.177-.196.235-.374.235-.177-.004-.338-.07-.373-.242a4.112 4.112 0 0 1-.058-.724v-7.566c0-.162 0-.328.008-.49.02-.265.112-.47.431-.47.324 0 .408.213.412.478.008.774.008 1.544.008 2.318v1.952m-42.958-2.788a.547.547 0 0 1-.535-.674.53.53 0 0 1 .57-.52.58.58 0 0 1 .616.62c-.008.381-.27.57-.651.574m17.796-.014c-.378-.03-.62-.215-.597-.608a.56.56 0 0 1 .643-.566.55.55 0 0 1 .535.555c.023.396-.208.581-.581.62"/><path class="cls-4" d="M34.663 22.992A11.517 11.517 0 1 0 23.158 34.41a11.472 11.472 0 0 0 11.505-11.417M23.258 9.454a13.465 13.465 0 1 1-13.607 13.35 13.42 13.42 0 0 1 13.607-13.35m143.356 11.914a5.709 5.709 0 0 1-.662 2.706 4.404 4.404 0 0 1-7.05 1.067 5.547 5.547 0 0 1-.02-7.55 4.294 4.294 0 0 1 4.617-1.14c1.933.616 2.757 2.171 3.069 4.062a7.895 7.895 0 0 1 .046.855m-94.362-1.646a2.08 2.08 0 0 1 .377-1.705 4.515 4.515 0 0 1 5.788-1.637 3.54 3.54 0 0 1 1.786 2.757c.073.431-.127.59-.539.59-2.476-.009-4.951-.005-7.412-.005m27.976-.054a3.79 3.79 0 0 1 2.51-3.358 4.136 4.136 0 0 1 4.278.412 3.28 3.28 0 0 1 1.244 2.946zm77.513-.081a3.733 3.733 0 0 1 2.391-3.238 4.26 4.26 0 0 1 4.301.3 2.967 2.967 0 0 1 1.04 1.324c.624 1.429.416 1.752-1.132 1.752-1.79 0-3.577.008-5.368-.003a2.299 2.299 0 0 1-1.232-.135M61.598 43.325a2.183 2.183 0 0 1-2.183-2.298 2.27 2.27 0 0 1 2.307-2.345 2.226 2.226 0 0 1 2.094 2.406 2.107 2.107 0 0 1-2.218 2.237"/><path class="cls-5" d="M112.533 41.086c.874-.004 1.02.161.858.916a1.809 1.809 0 0 1-2.476 1.286 1.03 1.03 0 0 1-.65-.824.882.882 0 0 1 .47-.92 3.45 3.45 0 0 1 1.798-.458m-19.04.062c.027 1.61-.728 2.398-2.052 2.233a1.067 1.067 0 0 1-1.048-.863.969.969 0 0 1 .728-1.128 4.304 4.304 0 0 1 2.372-.242m47.81-.063c.8-.004.943.158.785.916a1.803 1.803 0 0 1-2.476 1.286 1.032 1.032 0 0 1-.65-.824.922.922 0 0 1 .465-.924 3.834 3.834 0 0 1 1.876-.454"/><path class="cls-4" d="M126.261 43.326a2.08 2.08 0 0 1-2.152-2.272 2.197 2.197 0 0 1 2.102-2.371 2.234 2.234 0 0 1 2.234 2.38 2.114 2.114 0 0 1-2.184 2.263"/><path class="cls-3" d="M16.46 28.685c1.775-1.194 3.377-2.264 4.986-3.346a2.09 2.09 0 0 1 .185 1.093c.093.75-.373 1.756.22 2.206.593.455 1.575.093 2.387.143.489.035.643-.2.635-.659-.019-.877-.007-1.76-.007-2.864 1.813 1.05 3.288 2.24 5.07 3.238 0-1.097-.034-1.952.012-2.803a1.247 1.247 0 0 0-.689-1.29c-.993-.566-1.945-1.205-2.911-1.814-.381-.238-.759-.48-1.14-.72a.714.714 0 0 1-.304-.854c.093-.397.435-.297.7-.305.694-.011 1.39.027 2.084-.011.72-.039 1.64.339 2.102-.204.435-.512.131-1.41.139-2.137.008-.932-.015-.951-.943-.955-3.393-.008-6.785-.02-10.173.011-.759.008-1.74-.377-2.218.212-.443.547-.077 1.498-.146 2.268-.054.65.219.847.847.824 1.182-.042 2.372-.015 3.554-.008.265.004.608-.1.731.258a.725.725 0 0 1-.358.936c-.246.142-.481.304-.724.454-1.143.717-2.29 1.425-3.43 2.141-.308.197-.628.366-.617.828.024 1.047.008 2.09.008 3.358m18.205-5.691a11.517 11.517 0 1 1-11.524-11.525 11.444 11.444 0 0 1 11.524 11.525"/><path class="cls-4" d="M16.458 28.685c0-1.267.016-2.31-.007-3.358-.008-.462.308-.631.616-.828 1.143-.716 2.287-1.425 3.43-2.14.243-.15.478-.313.728-.455a.724.724 0 0 0 .354-.936c-.12-.358-.466-.254-.727-.258-1.186-.007-2.372-.034-3.558.008-.628.023-.901-.173-.843-.824.065-.77-.3-1.721.146-2.268.473-.589 1.46-.204 2.214-.212 3.392-.03 6.784-.019 10.177-.011.928.004.947.023.939.955-.004.727.297 1.625-.139 2.137-.458.543-1.382.165-2.102.204-.69.038-1.386 0-2.083.011-.266.008-.608-.092-.7.304a.724.724 0 0 0 .303.855c.382.239.759.482 1.14.72.97.609 1.921 1.248 2.911 1.814a1.241 1.241 0 0 1 .69 1.29c-.043.85-.012 1.705-.012 2.803-1.783-.997-3.258-2.187-5.067-3.238 0 1.105-.012 1.986.003 2.864.008.459-.146.693-.635.659-.808-.05-1.79.312-2.383-.143-.597-.45-.127-1.455-.224-2.206a2.051 2.051 0 0 0-.184-1.094c-1.61 1.082-3.208 2.153-4.987 3.346"/></g></svg>