<svg xmlns="http://www.w3.org/2000/svg" viewBox="17.95 2.95 323.11 353.86"><defs><style>.cls-2{fill:#417598}</style></defs><path fill="#fff" d="M308.817 81.557l-108.16-61.715a42.186 42.186 0 0 0-42.056-.004L50.339 81.65a42.113 42.113 0 0 0-21.057 36.41V241.68a42.483 42.483 0 0 0 21.154 36.503l108.16 61.806a42.074 42.074 0 0 0 42.058.001l108.259-61.81a42.235 42.235 0 0 0 21.058-36.41V118.06a42.487 42.487 0 0 0-21.154-36.504zM169.735 320.52l-108.059-61.8a19.817 19.817 0 0 1-9.845-17.041V118.06a19.765 19.765 0 0 1 9.739-17.033l108.274-61.73a19.718 19.718 0 0 1 9.795-2.63 18.78 18.78 0 0 1 9.883 2.554l108.143 61.796a19.817 19.817 0 0 1 9.846 17.043v123.618a19.763 19.763 0 0 1-9.738 17.032l-108.274 61.82a19.91 19.91 0 0 1-9.905 2.638 19.549 19.549 0 0 1-9.859-2.65z"/><path d="M334.463 118.048A47 47 0 0 0 311.05 77.66L202.897 15.947a46.685 46.685 0 0 0-46.53-.006L48.106 77.753A46.619 46.619 0 0 0 24.79 118.06v123.63A46.998 46.998 0 0 0 48.2 282.08l108.163 61.806a46.566 46.566 0 0 0 46.52.002l108.268-61.815a46.747 46.747 0 0 0 23.31-40.305zm-4.492 123.72a42.235 42.235 0 0 1-21.058 36.41L200.654 339.99a42.074 42.074 0 0 1-42.059-.001l-108.16-61.806a42.483 42.483 0 0 1-21.153-36.503V118.06A42.113 42.113 0 0 1 50.339 81.65l108.262-61.812a42.186 42.186 0 0 1 42.057.004l108.16 61.715a42.487 42.487 0 0 1 21.153 36.504z" class="cls-2"/><path d="M297.773 258.711a19.763 19.763 0 0 0 9.738-17.032V118.06a19.817 19.817 0 0 0-9.846-17.043L189.522 39.222a18.78 18.78 0 0 0-9.883-2.555 19.718 19.718 0 0 0-9.795 2.63L61.57 101.028a19.765 19.765 0 0 0-9.74 17.034v123.618a19.817 19.817 0 0 0 9.846 17.042l108.059 61.799a19.549 19.549 0 0 0 9.859 2.65 19.91 19.91 0 0 0 9.905-2.64z" class="cls-2"/></svg>