<svg xmlns="http://www.w3.org/2000/svg" role="img" viewBox="17.95 2.95 323.11 353.86"><title>artifacthub-icon-color2.svg</title><defs><style>.cls-2{fill:#417598}</style></defs><path fill="#fff" d="M308.81737 81.55659L200.65776 19.84183a42.18582 42.18582 0 0 0-42.05691-.00394L50.33947 81.65a42.11259 42.11259 0 0 0-21.05762 36.41086v123.61771a42.48309 42.48309 0 0 0 21.15369 36.50386l108.15961 61.80511a42.07447 42.07447 0 0 0 42.0591.00176L308.913 278.17892a42.23506 42.23506 0 0 0 21.05762-36.41086V118.06088a42.48674 42.48674 0 0 0-21.15325-36.50429zM169.735 320.51964L61.6763 258.72066a19.81671 19.81671 0 0 1-9.84537-17.04209V118.06088a19.76463 19.76463 0 0 1 9.73878-17.03332L169.84425 39.2979a19.718 19.718 0 0 1 9.79449-2.63067 18.77908 18.77908 0 0 1 9.8831 2.55434l108.14294 61.79634a19.81709 19.81709 0 0 1 9.84625 17.043v123.61766a19.76277 19.76277 0 0 1-9.73834 17.03244L189.499 320.53017a19.90983 19.90983 0 0 1-9.905 2.639 19.54866 19.54866 0 0 1-9.859-2.64953z"/><path d="M334.46254 118.04816a47.00031 47.00031 0 0 0-23.41237-40.3891L202.8967 15.94738a46.68479 46.68479 0 0 0-46.52952-.00658L48.1058 77.75293a46.61868 46.61868 0 0 0-23.31587 40.30795v123.63a46.99755 46.99755 0 0 0 23.4115 40.38867l108.16268 61.80687a46.56563 46.56563 0 0 0 46.52031.00175l108.26752-61.81476a46.74718 46.74718 0 0 0 23.3106-40.30532zm-4.49192 123.7199a42.23506 42.23506 0 0 1-21.05762 36.41086L200.65425 339.9893a42.07447 42.07447 0 0 1-42.0591-.00176L50.43554 278.18243a42.48309 42.48309 0 0 1-21.15369-36.50386V118.06088A42.11259 42.11259 0 0 1 50.33947 81.65l108.26138-61.81211a42.18582 42.18582 0 0 1 42.05691.00394l108.15961 61.71476a42.48674 42.48674 0 0 1 21.15325 36.50429z" class="cls-2"/><path d="M297.77269 258.711a19.76277 19.76277 0 0 0 9.73834-17.03244V118.06088a19.81709 19.81709 0 0 0-9.84625-17.043L189.52184 39.22157a18.77908 18.77908 0 0 0-9.8831-2.55434 19.718 19.718 0 0 0-9.79449 2.63067L61.56971 101.02756a19.76463 19.76463 0 0 0-9.73878 17.03332v123.61769a19.81671 19.81671 0 0 0 9.84537 17.04209l108.05872 61.799a19.54866 19.54866 0 0 0 9.859 2.64953 19.90983 19.90983 0 0 0 9.905-2.639z" class="cls-2"/></svg>