<svg id="Assets" xmlns="http://www.w3.org/2000/svg" viewBox="0 0 337.465 428.499"><defs><style>.cls-1{fill:#7df3e1}</style></defs><path class="cls-1" d="M303.029 166.048a80.384 80.384 0 0 0 13.448-10.371c.794-.762 1.55-1.53 2.3-2.3a82.049 82.049 0 0 0 7.93-9.379 63.424 63.424 0 0 0 6.27-10.765 48.616 48.616 0 0 0 4.358-16.398c1.483-19.391-9.967-38.675-35.622-54.227L198.557 0 78.297 115.227 0 190.247l108.601 65.909a111.605 111.605 0 0 0 57.762 16.415c24.922 0 48.801-8.803 66.419-25.686 19.158-18.362 25.52-42.128 13.697-61.872a49.009 49.009 0 0 0-6.799-8.868 89.326 89.326 0 0 0 19.286 2.143c.052 0 .101.004.151.004a85.012 85.012 0 0 0 30.97-5.793 80.536 80.536 0 0 0 12.942-6.45zm-100.584 59.808c-19.32 18.51-50.398 21.236-75.7 5.9l-75.132-45.608 67.444-64.643 76.417 46.386c27.537 16.693 26.017 39.716 6.971 57.965zm8.934-82.218l-70.647-42.888 64.407-61.769 69.37 42.115c25.94 15.724 29.31 37.04 10.55 55.017a60.705 60.705 0 0 1-73.68 7.525zm29.866 190.04c-19.577 18.757-46.17 29.088-74.882 29.088a123.816 123.816 0 0 1-64.107-18.193L0 282.517v24.677l108.601 65.908a111.605 111.605 0 0 0 57.762 16.415c24.922 0 48.801-8.802 66.419-25.686 12.877-12.342 19.99-27.13 19.68-41.493l-.002-1.791a87.095 87.095 0 0 1-11.215 13.132zm0-38.983c-19.577 18.756-46.17 29.088-74.882 29.088a123.816 123.816 0 0 1-64.107-18.193L0 243.533v24.68l108.601 65.907a111.606 111.606 0 0 0 57.762 16.416c24.922 0 48.801-8.803 66.419-25.686 12.877-12.344 19.99-27.13 19.68-41.495l-.002-1.79a86.98 86.98 0 0 1-11.215 13.13zm0-38.981c-19.577 18.756-46.17 29.088-74.882 29.088a123.816 123.816 0 0 1-64.107-18.194L0 204.552v24.677l108.601 65.908a111.606 111.606 0 0 0 57.762 16.416c24.922 0 48.801-8.803 66.419-25.687 12.877-12.341 19.99-27.13 19.68-41.493l-.002-1.823a86.471 86.471 0 0 1-11.215 13.164zm83.69 25.738a94.137 94.137 0 0 1-60.191 25.856v-.002h-.012l.012 26.667a81.653 81.653 0 0 0 51.733-22.368c13.968-13.385 21.144-28.111 20.985-42.642v-2.197a95.161 95.161 0 0 1-12.527 14.686zm-83.69 91.208c-19.577 18.756-46.17 29.088-74.882 29.088a123.816 123.816 0 0 1-64.107-18.193L0 321.498v24.677l108.601 65.908a111.605 111.605 0 0 0 57.762 16.416c24.922 0 48.801-8.803 66.419-25.686 12.877-12.342 19.99-27.13 19.68-41.494l-.002-1.789a86.983 86.983 0 0 1-11.215 13.13zm85.744-210.206c-.678.686-1.345 1.373-2.054 2.052a99.296 99.296 0 0 1-22.23 15.687 94.68 94.68 0 0 1-26.247 8.711 98.087 98.087 0 0 1-14.16 1.567c.505 1.612.903 3.25 1.25 4.902a53.16 53.16 0 0 1 1.138 12.001l.004 9.653h.054a84.27 84.27 0 0 0 25.344-5.547 80.954 80.954 0 0 0 26.389-16.822c.802-.77 1.504-1.558 2.263-2.336a82.049 82.049 0 0 0 7.927-9.38 63.328 63.328 0 0 0 6.283-10.776 48.442 48.442 0 0 0 4.32-16.441c.09-1.236.204-2.474.192-3.708v-2.048q-1.08 1.552-2.257 3.089a97.666 97.666 0 0 1-8.216 9.396zm-.031 77.92c-.687.695-1.306 1.408-2.023 2.095a94.13 94.13 0 0 1-60.191 25.857v-.002h-.03l.012 26.668h.014l.004.002v-.002a81.653 81.653 0 0 0 51.733-22.369 73.547 73.547 0 0 0 16.473-22.492 48.454 48.454 0 0 0 4.32-16.442c.09-1.238.204-2.473.192-3.71v-2.193c-.744 1.075-1.465 2.154-2.273 3.217a97.104 97.104 0 0 1-8.231 9.372zm0-38.98c-.687.694-1.304 1.406-2.023 2.093a97.185 97.185 0 0 1-22.25 15.675 95.669 95.669 0 0 1-37.941 10.18h-.048l.012 26.668h.03l.006.002v-.002a81.65 81.65 0 0 0 51.733-22.37c.802-.77 1.504-1.559 2.263-2.337a82.053 82.053 0 0 0 7.927-9.38 63.33 63.33 0 0 0 6.283-10.775 48.442 48.442 0 0 0 4.32-16.442c.09-1.236.204-2.474.192-3.708v-2.193c-.744 1.075-1.465 2.153-2.273 3.216a97.337 97.337 0 0 1-8.231 9.372z"/></svg>