<svg viewBox="-.8 35.45 431.6 352.35" xmlns="http://www.w3.org/2000/svg" xmlns:xlink="http://www.w3.org/1999/xlink"><clipPath id="a"><path d="m322.25 273.623v84.987a13.423 13.423 0 0 0 13.383 13.383 15.23 15.23 0 0 0 6.692-1.673l73.61-42.493a13.495 13.495 0 0 0 6.692-11.71v-84.987a13.423 13.423 0 0 0 -13.384-13.383 15.23 15.23 0 0 0 -6.692 1.673l-73.61 42.827a13.363 13.363 0 0 0 -6.692 11.376z"/></clipPath><clipPath id="b"><path d="m295.482 45.767-73.61 42.493a13.495 13.495 0 0 0 -6.692 11.71v84.987a13.423 13.423 0 0 0 13.384 13.383 15.23 15.23 0 0 0 6.691-1.673l73.61-42.493a13.495 13.495 0 0 0 6.692-11.71v-85.321a13.423 13.423 0 0 0 -13.383-13.384 12.064 12.064 0 0 0 -6.692 2.008z"/></clipPath><clipPath id="c"><path d="m108.11 273.623v84.987a13.423 13.423 0 0 0 13.384 13.383 15.23 15.23 0 0 0 6.692-1.673l73.61-42.493a13.495 13.495 0 0 0 6.692-11.71v-84.987a13.423 13.423 0 0 0 -13.383-13.383 15.23 15.23 0 0 0 -6.692 1.673l-73.61 42.827a13.363 13.363 0 0 0 -6.692 11.376z"/></clipPath><path d="m315.557 262.247-73.61-42.493a13.519 13.519 0 0 0 -18.402 4.684 15.23 15.23 0 0 0 -1.673 6.692v84.986a14.368 14.368 0 0 0 6.692 11.711l86.993 50.189a13.625 13.625 0 0 0 13.384 0l86.994-50.189a13.495 13.495 0 0 0 6.691-11.71v-84.987a13.423 13.423 0 0 0 -13.383-13.383 15.23 15.23 0 0 0 -6.692 1.673l-73.61 42.827a13.625 13.625 0 0 1 -13.384 0z" fill="#de156c"/><g clip-path="url(#a)"><path d="m322.249 217.747h100.377v2.706h-100.377z" fill="#f12fa5"/><path d="m322.249 220.453h100.377v2.706h-100.377z" fill="#f12fa4"/><path d="m322.249 223.159h100.377v2.706h-100.377z" fill="#f02ea3"/><path d="m322.249 225.865h100.377v2.706h-100.377z" fill="#f02ea2"/><path d="m322.249 228.571h100.377v2.706h-100.377z" fill="#f02da1"/><path d="m322.249 231.277h100.377v2.706h-100.377z" fill="#ef2da0"/><path d="m322.249 233.983h100.377v2.706h-100.377z" fill="#ef2c9f"/><path d="m322.249 236.689h100.377v2.706h-100.377z" fill="#ef2c9e"/><path d="m322.249 239.395h100.377v2.706h-100.377z" fill="#ee2b9d"/><path d="m322.249 242.101h100.377v2.706h-100.377z" fill="#ee2b9c"/><path d="m322.249 244.807h100.377v2.706h-100.377z" fill="#ee2a9b"/><path d="m322.249 247.514h100.377v2.706h-100.377z" fill="#ed2a9a"/><path d="m322.249 250.22h100.377v2.706h-100.377z" fill="#ed2999"/><path d="m322.249 252.926h100.377v2.706h-100.377z" fill="#ed2998"/><path d="m322.249 255.632h100.377v2.706h-100.377z" fill="#ec2997"/><path d="m322.249 258.338h100.377v2.706h-100.377z" fill="#ec2896"/><path d="m322.249 261.044h100.377v2.706h-100.377z" fill="#ec2895"/><path d="m322.249 263.75h100.377v2.706h-100.377z" fill="#eb2794"/><path d="m322.249 266.456h100.377v2.706h-100.377z" fill="#eb2793"/><path d="m322.249 269.162h100.377v2.706h-100.377z" fill="#eb2692"/><path d="m322.249 271.868h100.377v2.706h-100.377z" fill="#ea2691"/><path d="m322.249 274.574h100.377v2.706h-100.377z" fill="#ea2590"/><path d="m322.249 277.28h100.377v2.706h-100.377z" fill="#ea258f"/><path d="m322.249 279.986h100.377v2.706h-100.377z" fill="#e9248e"/><path d="m322.249 282.693h100.377v2.706h-100.377z" fill="#e9248d"/><path d="m322.249 285.399h100.377v2.706h-100.377z" fill="#e9238c"/><path d="m322.249 288.105h100.377v2.706h-100.377z" fill="#e8238b"/><path d="m322.249 290.811h100.377v2.706h-100.377z" fill="#e8228a"/><path d="m322.249 293.517h100.377v2.706h-100.377z" fill="#e82289"/><path d="m322.249 296.223h100.377v2.706h-100.377z" fill="#e72287"/><path d="m322.249 298.929h100.377v2.706h-100.377z" fill="#e72186"/><path d="m322.249 301.635h100.377v2.706h-100.377z" fill="#e62185"/><path d="m322.249 304.341h100.377v2.706h-100.377z" fill="#e62084"/><path d="m322.249 307.047h100.377v2.706h-100.377z" fill="#e62083"/><path d="m322.249 309.753h100.377v2.706h-100.377z" fill="#e51f82"/><path d="m322.249 312.459h100.377v2.706h-100.377z" fill="#e51f81"/><path d="m322.249 315.166h100.377v2.706h-100.377z" fill="#e51e80"/><path d="m322.249 317.872h100.377v2.706h-100.377z" fill="#e41e7f"/><path d="m322.249 320.578h100.377v2.706h-100.377z" fill="#e41d7e"/><path d="m322.249 323.284h100.377v2.706h-100.377z" fill="#e41d7d"/><path d="m322.249 325.99h100.377v2.706h-100.377z" fill="#e31c7c"/><path d="m322.249 328.696h100.377v2.706h-100.377z" fill="#e31c7b"/><path d="m322.249 331.402h100.377v2.706h-100.377z" fill="#e31c7a"/><path d="m322.249 334.108h100.377v2.706h-100.377z" fill="#e21b79"/><path d="m322.249 336.814h100.377v2.706h-100.377z" fill="#e21b78"/><path d="m322.249 339.52h100.377v2.706h-100.377z" fill="#e21a77"/><path d="m322.249 342.226h100.377v2.706h-100.377z" fill="#e11a76"/><path d="m322.249 344.932h100.377v2.706h-100.377z" fill="#e11975"/><path d="m322.249 347.638h100.377v2.706h-100.377z" fill="#e11974"/><path d="m322.249 350.345h100.377v2.706h-100.377z" fill="#e01873"/><path d="m322.249 353.051h100.377v2.706h-100.377z" fill="#e01872"/><path d="m322.249 355.757h100.377v2.706h-100.377z" fill="#e01771"/><path d="m322.249 358.463h100.377v2.706h-100.377z" fill="#df1770"/><path d="m322.249 361.169h100.377v2.706h-100.377z" fill="#df166f"/><path d="m322.249 363.875h100.377v2.706h-100.377z" fill="#df166e"/><path d="m322.249 366.581h100.377v2.706h-100.377z" fill="#de156d"/><path d="m322.249 369.287h100.377v2.706h-100.377z" fill="#de156c"/></g><path d="m295.482 45.767-73.61 42.493a13.625 13.625 0 0 1 -13.384 0l-73.61-42.493a13.519 13.519 0 0 0 -18.402 4.684 15.23 15.23 0 0 0 -1.673 6.692v84.986a14.368 14.368 0 0 0 6.691 11.71l86.994 50.19a13.625 13.625 0 0 0 13.384 0l86.993-50.19a13.495 13.495 0 0 0 6.692-11.71v-84.986a13.423 13.423 0 0 0 -13.383-13.384 12.064 12.064 0 0 0 -6.692 2.008z" fill="#47529d"/><g clip-path="url(#b)"><path d="m215.18 43.759h100.377v2.708h-100.377z" fill="#7e8bcc"/><path d="m215.18 46.468h100.377v2.708h-100.377z" fill="#7d8acb"/><path d="m215.18 49.176h100.377v2.708h-100.377z" fill="#7c89ca"/><path d="m215.18 51.884h100.377v2.708h-100.377z" fill="#7b88c9"/><path d="m215.18 54.593h100.377v2.708h-100.377z" fill="#7a87c9"/><path d="m215.18 57.301h100.377v2.708h-100.377z" fill="#7986c8"/><path d="m215.18 60.009h100.377v2.708h-100.377z" fill="#7885c7"/><path d="m215.18 62.718h100.377v2.708h-100.377z" fill="#7784c6"/><path d="m215.18 65.426h100.377v2.708h-100.377z" fill="#7683c5"/><path d="m215.18 68.134h100.377v2.708h-100.377z" fill="#7582c4"/><path d="m215.18 70.843h100.377v2.708h-100.377z" fill="#7481c4"/><path d="m215.18 73.551h100.377v2.708h-100.377z" fill="#7380c3"/><path d="m215.18 76.259h100.377v2.708h-100.377z" fill="#727fc2"/><path d="m215.18 78.968h100.377v2.708h-100.377z" fill="#717ec1"/><path d="m215.18 81.676h100.377v2.708h-100.377z" fill="#707dc0"/><path d="m215.18 84.384h100.377v2.708h-100.377z" fill="#6f7cbf"/><path d="m215.18 87.093h100.377v2.708h-100.377z" fill="#6e7bbf"/><path d="m215.18 89.801h100.377v2.708h-100.377z" fill="#6d7abe"/><path d="m215.18 92.509h100.377v2.708h-100.377z" fill="#6c79bd"/><path d="m215.18 95.218h100.377v2.708h-100.377z" fill="#6b78bc"/><path d="m215.18 97.926h100.377v2.708h-100.377z" fill="#6a77bb"/><path d="m215.18 100.634h100.377v2.708h-100.377z" fill="#6976ba"/><path d="m215.18 103.343h100.377v2.708h-100.377z" fill="#6875ba"/><path d="m215.18 106.051h100.377v2.708h-100.377z" fill="#6774b9"/><path d="m215.18 108.76h100.377v2.708h-100.377z" fill="#6673b8"/><path d="m215.18 111.468h100.377v2.708h-100.377z" fill="#6572b7"/><path d="m215.18 114.176h100.377v2.708h-100.377z" fill="#6471b6"/><path d="m215.18 116.885h100.377v2.708h-100.377z" fill="#6370b5"/><path d="m215.18 119.593h100.377v2.708h-100.377z" fill="#636fb5"/><path d="m215.18 122.301h100.377v2.708h-100.377z" fill="#626db4"/><path d="m215.18 125.01h100.377v2.708h-100.377z" fill="#616cb3"/><path d="m215.18 127.718h100.377v2.708h-100.377z" fill="#606bb2"/><path d="m215.18 130.426h100.377v2.708h-100.377z" fill="#5f6ab1"/><path d="m215.18 133.135h100.377v2.708h-100.377z" fill="#5e69b0"/><path d="m215.18 135.843h100.377v2.708h-100.377z" fill="#5d68af"/><path d="m215.18 138.551h100.377v2.708h-100.377z" fill="#5c67af"/><path d="m215.18 141.26h100.377v2.708h-100.377z" fill="#5b66ae"/><path d="m215.18 143.968h100.377v2.708h-100.377z" fill="#5a65ad"/><path d="m215.18 146.676h100.377v2.708h-100.377z" fill="#5964ac"/><path d="m215.18 149.385h100.377v2.708h-100.377z" fill="#5863ab"/><path d="m215.18 152.093h100.377v2.708h-100.377z" fill="#5762aa"/><path d="m215.18 154.801h100.377v2.708h-100.377z" fill="#5661aa"/><path d="m215.18 157.51h100.377v2.708h-100.377z" fill="#5560a9"/><path d="m215.18 160.218h100.377v2.708h-100.377z" fill="#545fa8"/><path d="m215.18 162.926h100.377v2.708h-100.377z" fill="#535ea7"/><path d="m215.18 165.635h100.377v2.708h-100.377z" fill="#525da6"/><path d="m215.18 168.343h100.377v2.708h-100.377z" fill="#515ca5"/><path d="m215.18 171.051h100.377v2.708h-100.377z" fill="#505ba5"/><path d="m215.18 173.76h100.377v2.708h-100.377z" fill="#4f5aa4"/><path d="m215.18 176.468h100.377v2.708h-100.377z" fill="#4e59a3"/><path d="m215.18 179.177h100.377v2.708h-100.377z" fill="#4d58a2"/><path d="m215.18 181.885h100.377v2.708h-100.377z" fill="#4c57a1"/><path d="m215.18 184.593h100.377v2.708h-100.377z" fill="#4b56a0"/><path d="m215.18 187.302h100.377v2.708h-100.377z" fill="#4a55a0"/><path d="m215.18 190.01h100.377v2.708h-100.377z" fill="#49549f"/><path d="m215.18 192.718h100.377v2.708h-100.377z" fill="#48539e"/><path d="m215.18 195.427h100.377v2.708h-100.377zm0 2.708h100.377v.205h-100.377z" fill="#47529d"/></g><path d="m101.419 262.247-73.61-42.493a13.519 13.519 0 0 0 -18.403 4.684 15.23 15.23 0 0 0 -1.673 6.692v84.986a14.368 14.368 0 0 0 6.692 11.711l86.994 50.189a13.625 13.625 0 0 0 13.384 0l86.993-50.189a13.495 13.495 0 0 0 6.692-11.71v-84.987a13.423 13.423 0 0 0 -13.383-13.383 15.23 15.23 0 0 0 -6.692 1.673l-73.61 42.827a13.625 13.625 0 0 1 -13.384 0z" fill="#252960"/><g clip-path="url(#c)"><path d="m108.111 217.747h100.377v2.706h-100.377z" fill="#4b5399"/><path d="m108.111 220.453h100.377v2.706h-100.377z" fill="#4a5298"/><path d="m108.111 223.159h100.377v2.706h-100.377z" fill="#4a5297"/><path d="m108.111 225.865h100.377v2.706h-100.377z" fill="#495196"/><path d="m108.111 228.571h100.377v2.706h-100.377z" fill="#485095"/><path d="m108.111 231.277h100.377v2.706h-100.377z" fill="#484f94"/><path d="m108.111 233.983h100.377v2.706h-100.377z" fill="#474f93"/><path d="m108.111 236.689h100.377v2.706h-100.377z" fill="#464e92"/><path d="m108.111 239.395h100.377v2.706h-100.377z" fill="#464d91"/><path d="m108.111 242.101h100.377v2.706h-100.377z" fill="#454c90"/><path d="m108.111 244.807h100.377v2.706h-100.377z" fill="#444c8f"/><path d="m108.111 247.514h100.377v2.706h-100.377z" fill="#444b8e"/><path d="m108.111 250.22h100.377v2.706h-100.377z" fill="#434a8d"/><path d="m108.111 252.926h100.377v2.706h-100.377z" fill="#42498c"/><path d="m108.111 255.632h100.377v2.706h-100.377z" fill="#42498b"/><path d="m108.111 258.338h100.377v2.706h-100.377z" fill="#41488a"/><path d="m108.111 261.044h100.377v2.706h-100.377z" fill="#404789"/><path d="m108.111 263.75h100.377v2.706h-100.377z" fill="#3f4688"/><path d="m108.111 266.456h100.377v2.706h-100.377z" fill="#3f4687"/><path d="m108.111 269.162h100.377v2.706h-100.377z" fill="#3e4586"/><path d="m108.111 271.868h100.377v2.706h-100.377z" fill="#3d4485"/><path d="m108.111 274.574h100.377v2.706h-100.377z" fill="#3d4384"/><path d="m108.111 277.28h100.377v2.706h-100.377z" fill="#3c4383"/><path d="m108.111 279.986h100.377v2.706h-100.377z" fill="#3b4282"/><path d="m108.111 282.693h100.377v2.706h-100.377z" fill="#3b4181"/><path d="m108.111 285.399h100.377v2.706h-100.377z" fill="#3a4080"/><path d="m108.111 288.105h100.377v2.706h-100.377z" fill="#39407f"/><path d="m108.111 290.811h100.377v2.706h-100.377z" fill="#393f7e"/><path d="m108.111 293.517h100.377v2.706h-100.377z" fill="#383e7d"/><path d="m108.111 296.223h100.377v2.706h-100.377z" fill="#373d7b"/><path d="m108.111 298.929h100.377v2.706h-100.377z" fill="#373d7a"/><path d="m108.111 301.635h100.377v2.706h-100.377z" fill="#363c79"/><path d="m108.111 304.341h100.377v2.706h-100.377z" fill="#353b78"/><path d="m108.111 307.047h100.377v2.706h-100.377z" fill="#353a77"/><path d="m108.111 309.753h100.377v2.706h-100.377z" fill="#343a76"/><path d="m108.111 312.459h100.377v2.706h-100.377z" fill="#333975"/><path d="m108.111 315.166h100.377v2.706h-100.377z" fill="#333874"/><path d="m108.111 317.872h100.377v2.706h-100.377z" fill="#323773"/><path d="m108.111 320.578h100.377v2.706h-100.377z" fill="#313772"/><path d="m108.111 323.284h100.377v2.706h-100.377z" fill="#313671"/><path d="m108.111 325.99h100.377v2.706h-100.377z" fill="#303570"/><path d="m108.111 328.696h100.377v2.706h-100.377z" fill="#2f346f"/><path d="m108.111 331.402h100.377v2.706h-100.377z" fill="#2f346e"/><path d="m108.111 334.108h100.377v2.706h-100.377z" fill="#2e336d"/><path d="m108.111 336.814h100.377v2.706h-100.377z" fill="#2d326c"/><path d="m108.111 339.52h100.377v2.706h-100.377z" fill="#2c316b"/><path d="m108.111 342.226h100.377v2.706h-100.377z" fill="#2c316a"/><path d="m108.111 344.932h100.377v2.706h-100.377z" fill="#2b3069"/><path d="m108.111 347.638h100.377v2.706h-100.377z" fill="#2a2f68"/><path d="m108.111 350.345h100.377v2.706h-100.377z" fill="#2a2e67"/><path d="m108.111 353.051h100.377v2.706h-100.377z" fill="#292e66"/><path d="m108.111 355.757h100.377v2.706h-100.377z" fill="#282d65"/><path d="m108.111 358.463h100.377v2.706h-100.377z" fill="#282c64"/><path d="m108.111 361.169h100.377v2.706h-100.377z" fill="#272b63"/><path d="m108.111 363.875h100.377v2.706h-100.377z" fill="#262b62"/><path d="m108.111 366.581h100.377v2.706h-100.377z" fill="#262a61"/><path d="m108.111 369.287h100.377v2.706h-100.377z" fill="#252960"/></g></svg>