<svg id="svg3881" xmlns="http://www.w3.org/2000/svg" viewBox="0 0 792 792"><defs><style>.cls-1,.cls-2{fill:none}.cls-2{clip-path:url(#clip-path)}.cls-3{clip-path:url(#clip-path-2)}.cls-4{fill:#fff}.cls-5{fill:#326ce5}.cls-6{mask:url(#mask)}.cls-7{fill:#fdfdfe}</style><clipPath id="clip-path"><path class="cls-1" d="M-512.547 -72.522L-511.547 -72.522 -512.547 -71.522 -512.547 -72.522z"/></clipPath><clipPath id="clip-path-2"><path class="cls-2" d="M-514.547 -74.522L-515.547 -74.522 -514.547 -75.522 -514.547 -74.522z"/></clipPath><mask id="mask" x="95.46" y="220.564" width="1145.08" height="588.066" maskUnits="userSpaceOnUse"><g id="mask-2" data-name="mask"><g id="g3823"><path id="path3819" d="M946.507 220.564c-162.388 0-294.033 131.645-294.033 294.033S784.119 808.63 946.507 808.63s294.033-131.665 294.033-294.033-131.645-294.033-294.033-294.033zm-.073 562.49c-148.31 0-268.353-120.105-268.384-268.415S798.412 245.882 946.816 246.15s268.282 120.393 268.137 268.652-120.228 268.292-268.519 268.251z"/></g></g></mask></defs><g class="cls-3" id="Text"><g id="g3878"><g id="Text_and_detail" data-name="Text and detail"><path id="Circle" class="cls-4" d="M382.153 82.878c-172.4 0-312.16 139.76-312.16 312.16 0 172.4 139.76 312.16 312.16 312.16s312.16-139.72 312.16-312.16-139.76-312.16-312.16-312.16zm-.08 597.16c-157.44 0-284.89-127.51-284.92-284.95 0-157.61 127.78-285.3 285.33-285 157.55.3 284.81 127.8 284.67 285.22-.14 157.42-127.64 284.78-285.08 284.73z"/><g id="LETTERS"><path id="path3851" class="cls-4" d="M238.153 536.478c-1-3.45-5.75-6.88-9.44-6.42-5.24.67-10.46 1.54-16.76 2.48 2.32-6.15 4.28-11.4 6.28-16.65 1.73-4.56-2-6.77-4.34-9.21s-4.17.64-5.76 1.9c-8.47 6.71-16.68 13.75-25.23 20.35-4.06 3.13-1 4.95.64 7.2s3.31 4.78 6.66 1.83c3.86-3.39 7.94-6.54 12-9.83.15.38.29.56.25.68-.8 2.32-1.67 4.62-2.45 6.95-1.63 4.92 1.52 8.51 6.69 7.7 2.15-.34 4.34-1 6.9.1-4.16 3.41-7.77 6.61-11.63 9.46-3.17 2.34-1.65 4.25.26 6s2.71 6.31 6.8 3q13.79-11.12 27.49-22.31c.94-.77 2.15-1.49 1.64-3.23z"/><path id="path3853" class="cls-4" d="M405.303 200.088c6.54 2.7 9.13 1.46 10.48-5.3.3-1.47.57-2.93.93-4.38.29-1.18 0-3.17 1.81-2.92s4.13-.12 4.79 2.58 1.48 5.09 2.22 7.63c2.08 7 3.51 8.09 10.64 8.46 2.68.14 3.28-.77 2.57-3.16-1.12-3.81-2.09-7.67-3.28-11.46-.55-1.73-1-2.75 1.37-3.74 5.78-2.44 7.34-7.68 7.75-13.07 0-6.66-4-11.53-11.48-13.53-6.08-1.62-12.32-2.63-18.48-4-2.3-.5-3.45.43-3.88 2.63-2.36 12-4.76 24.08-7.09 36.14-.31 1.63-.54 3.22 1.65 4.12zm17.54-31c5.05-.51 9.92 2.41 9.87 5.4s-1.8 4.44-5.19 4.53c-2.09-1.76-6.94 1.1-7.65-3.37-.3-1.89-1-6.11 2.97-6.52z"/><path id="path3855" class="cls-4" d="M339.453 591.298c-2.84-.93-5.74-2.1-6.74 2.62-1.09 5.19-2.75 10.25-4.47 16.5-2.63-7.82-5.07-14.52-7.1-21.34-1.33-4.46-5.15-4.42-8.37-5-3.55-.58-2.91 3-3.47 5-3 10.36-5.58 20.86-8.8 31.16-1.58 5.08 2.17 4.62 4.67 5.49 2.66.91 5.47 2 6.48-2.4 1.21-5.27 2.82-10.45 4.45-16.34.67 1.54 1.13 2.42 1.44 3.34 2 6 4.09 11.93 6 17.94 1.37 4.44 5.37 4.17 8.56 4.61s2.53-3 3.06-4.81c3-10.38 5.53-20.89 8.8-31.17 1.49-4.98-1.96-4.76-4.51-5.6z"/><path id="path3857" class="cls-4" d="M580.313 528.048c-3.28-.47-6.51-1.44-9.8-1.75-2.71-.25-3.39-1.19-3.48-4-.22-7-6.55-12.74-13.44-12.82-4.73-.13-8.35 2.24-11.25 5.56-3.61 4.13-6.71 8.7-10.33 12.82-2.46 2.81-2.15 4.55.78 6.76 8.76 6.62 17.45 13.35 25.94 20.3 3 2.4 4.51 2.15 6.72-.86 4-5.45 4.16-5.32-1.23-9.5-1.18-.92-2.42-1.78-3.5-2.81-.83-.79-2.89-1.11-1.73-2.91.94-1.45 1.75-3.35 4.16-2.86s5 .56 7.33 1.41c5.37 2 8.71-.09 11.63-4.54 1.93-2.89 2.03-4.26-1.8-4.8zm-30 5.43c-.75.06-6.13-4.56-6.08-5.23.13-1.76 6.28-7.65 8-7.65 2.31.46 4 1.61 4.19 4.15.11 1.55-4.97 8.63-6.11 8.73z"/><path id="path3859" class="cls-4" d="M331.713 201.078c.35 2 1 3.6 3.49 3.21 9-1.56 18.06-2.91 27-4.77 4.72-1 1.47-4.56 1.52-7 .05-2.61-1.37-3.4-3.93-2.9-4.89.95-9.85 1.6-14.74 2.57-2.54.5-3.21-.66-3.45-2.83-.21-1.93-.49-3.43 2.3-3.74 4.13-.44 8.17-1.61 12.3-2.05 4.47-.48 3.65-3.29 3.17-6.13s-1.08-5.17-5-4.09c-3.67 1-7.56 1.16-11.26 2.09-2.6.66-3.87.5-4.41-2.54-.59-3.28 1.23-3.55 3.55-3.9 4.11-.61 8.2-1.4 12.31-2 2.63-.4 4.65-1.13 3.59-4.44-.85-2.66.36-6.86-5.13-5.72-7.81 1.63-15.68 3-23.58 4-3.78.48-4.3 2.17-3.74 5.31q3.045 17.505 6.01 34.93z"/><path id="path3861" class="cls-4" d="M465.133 596.018a88.49 88.49 0 0 1-8.92 3.07c-2.51.8-4.32 1.82-2.82 5 1.19 2.46.87 6.55 5.62 4.65.87-.35 1.8-1.17 2.65-.11.85 1.06.29 2.32-.13 3.32-1.22 2.87-3.78 4.1-6.65 4.6a6.219 6.219 0 0 1-6.67-3.37 32.79 32.79 0 0 1-4-11.2c-.93-5.83 4.62-10.93 9.91-8.38 4.36 2.1 7.64.42 11.34-.66 2.53-.74 2.54-2.25 1.08-4.09-3.38-4.26-8-5.61-13.24-5.83a22.68 22.68 0 0 0-15 5.6c-5 4.48-7 10.16-5 16.65 2.53 8.49 4 18 14.56 20.8 8.1 2.13 15.24-.38 21-6.12 6.23-6.24 4.72-13.51 2-20.92-1.19-3.16-2.35-4.5-5.73-3.01z"/><path id="path3863" class="cls-4" d="M527.153 577.128c-3.66 2.86-7.64 5.31-11.31 8.17-2 1.56-3 1.07-4.29-.81-1.29-1.88-1.69-3 .46-4.41 3.33-2.19 6.52-4.59 9.76-6.91 1.06-.76 2.34-1.38 2.22-3.22a13.54 13.54 0 0 0-4.19-5.8c-1.86-1.31-3.3.69-4.75 1.69-3 2.08-6.14 4-8.94 6.34-2.33 1.94-3 .17-4.15-1.21-1.38-1.61-1.4-2.61.53-3.87 3.75-2.45 7.22-5.33 11-7.71 3.1-1.94 2.44-3.82.62-6.06-1.61-2-2.59-5-6.15-2.3-6.52 4.86-13.22 9.49-19.89 14.17-2.1 1.47-2.19 2.93-.72 5 6.9 9.57 13.71 19.2 20.54 28.83 1.24 1.74 2.45 2.43 4.5.94q10.26-7.5 20.69-14.75c3.27-2.27 1.29-4.16-.11-6.21-1.4-2.05-2.73-4.31-5.82-1.88z"/><path id="path3865" class="cls-4" d="M268.853 560.898c-1.4-1-2.88-.53-4.14.45q-15.18 11.8-30.33 23.64c-1.33 1-2.32 2.47-.4 3.54 3.54 2 6.78 7 11.49 1.72a1.59 1.59 0 0 1 2.18-.47c3.76 2.46 7.55 4.87 11.3 7.33 1 .68.67 1.74.55 2.72-.53 4.29 2.44 9.12 6.71 9.35 4.46.23 2.36-4.48 3.76-6.69a3.001 3.001 0 0 0 .34-.94c2.6-10.65 5.2-21.31 8-32.85-1.12-4.32-6.07-5.22-9.46-7.8zm-6.4 26.72c-7.81-4.59-7.81-4.59-1.47-9.65 1.28-1 2.6-2 4.48-3.44a56.33 56.33 0 0 1-3.01 13.09z"/><path id="path3867" class="cls-4" d="M255.943 223.828c5 6.94 12.68 9 20.82 6 8.46-3.06 15-11.32 14.66-18.87a20.55 20.55 0 0 0-1.24-5.29 2.11 2.11 0 0 0-2.13-1.73c-2.9 0-8.23 5.19-8.27 8.3-.05 4.19-2.73 6.29-6.08 7.63-3.17 1.26-6 0-7.87-2.63a73.143 73.143 0 0 1-5.94-9.75c-1.4-2.87-1.14-6 1.47-8.23s5.84-3.74 9.55-1.71c2.6 1.43 9.61-1 11.1-3.53 1-1.62-.28-2.53-1.09-3.43a13.88 13.88 0 0 0-10.8-4.68c-13.38.05-23.81 10.35-22.4 21.61.8 6.34 4.73 11.34 8.22 16.31z"/><path id="path3869" class="cls-4" d="M398.013 603.608c-3.39-8.82-5.72-10-14.79-8a3.88 3.88 0 0 0-3.27 2.63q-5.7 18.24-11.36 36.54c-.33 1.07-.81 2.33.47 3.17 2.73 1.8 9.9-.72 11.13-3.89.51-1.32.52-2.93 2.71-2.89 4 .08 8 0 12-.19 1.42-.06 2.3.48 2.55 1.76.77 4 3.17 5.18 6.48 4.32 6.77-.17 6.8-.19 4.58-6q-5.24-13.76-10.5-27.45zm-10.56 18.07c-3 0-3.44-.84-2.54-3.39 1.09-3.12 2-6.3 3.27-10.36 1.33 3.4 2.31 5.85 3.24 8.31 2.08 5.57 2.03 5.38-3.97 5.44z"/><path id="path3871" class="cls-4" d="M485.893 229.158c2.34 1.28 4.57 4.69 7.27.18 3.57-6 7.44-11.79 11.16-17.68 4.48-7.08 4.6-7.29 11.8-2.76 3.83 2.42 4.84-.19 6.45-2.52 1.72-2.5 2.4-4.41-1-6.41q-12-7.15-23.55-14.92c-3.27-2.18-4.89-1.6-7 1.64-2.34 3.57-1.86 5.47 1.76 7.39 2.1 1.11 4.45 2.13 5.9 4.21-.74 1.19-1.34 2.19-2 3.17-4.53 7.16-8.93 14.4-13.62 21.45-2.52 3.88.39 4.91 2.83 6.25z"/></g><g id="New_Anchor" data-name="New Anchor"><path id="path3874" class="cls-4" d="M495.343 446.898c-2.57-10.54-5.11-20.92-7.68-31.42a3.2 3.2 0 0 0-5.33-1.56l-24.72 23.66a3.06 3.06 0 0 0 1.26 5.14c.92.26 1.82.51 2.74.7 2 .43 1.8 1.1.87 2.51a65.59 65.59 0 0 1-20 19.58l-.2.12a86.78 86.78 0 0 1-21.7 7 159.354 159.354 0 0 1-23.53 2.72 1.84 1.84 0 0 1-1.9-1.778V363.098a1.08 1.08 0 0 1 1.08-1.08c1 0 2.22.2 5.15.17 5.76-.06 11.76-.06 17.54-.4 1.88-.11 2.93-.05 4.13.85a12.35 12.35 0 0 0 16.71-1.29 12.52 12.52 0 0 0 .11-16.76 12.3 12.3 0 0 0-16.66-1.58 4.07 4.07 0 0 1-2.53 1.08q-12.08-.06-24.14 0a1.9 1.9 0 0 1-1.39-.37v-12.62a1.8 1.8 0 0 1 .42-1.18 6.42 6.42 0 0 1 2-1.41c13-6.6 19.74-17.44 19.75-31.87 0-22.83-22.27-39.44-44.29-33.46-17.46 4.74-28.8 22.08-25.51 39.77 2.42 13 10.07 22.1 22.51 26.92a6.589 6.589 0 0 1 1.33.66 1.8 1.8 0 0 1 .71 1.47v10.32a1.78 1.78 0 0 1-1.78 1.78h-.02c-8.65-.1-17.31-.06-26 0a5.53 5.53 0 0 1-3.31-1.12 12.24 12.24 0 0 0-16.62 1.7 12.37 12.37 0 0 0 16.73 18.07 5.08 5.08 0 0 1 3.3-1.08c8.39 0 16.79.12 25.18 0a3.19 3.19 0 0 1 2.17.46 1 1 0 0 1 .31.76v109.81a1.85 1.85 0 0 1-1.854 1.847q-.073 0-.146-.007a192.443 192.443 0 0 1-30.22-5 92.788 92.788 0 0 1-17.68-6.21 1.56 1.56 0 0 1-.28-.16 66.87 66.87 0 0 1-19.54-21.38 1.38 1.38 0 0 1 1-2.16l2.65-.54a3.08 3.08 0 0 0 1.6-5.08l-23.26-25.35a3 3 0 0 0-5.13 1.14c-3.44 10.89-6.79 21.53-10.19 32.32a3.35 3.35 0 0 0 3.94 4.28l1.8-.41a5.12 5.12 0 0 1 5.69 2.64c13.38 26 33.5 44.81 60.12 56.7 10.4 4.65 14.52 6 23.5 7.37a1.78 1.78 0 0 1 1 .51l13.67 13.55a4.91 4.91 0 0 0 6.85 0l13.28-13a1.88 1.88 0 0 1 1.12-.52c13.3-1.25 19.23-4.54 33.54-11.09 22.15-10.13 39.74-27.76 51.06-49.32 1-1.92 1.88-2.15 3.58-1.58.65.22 1.31.43 2 .63a4.12 4.12 0 0 0 5.21-4.98zm-114.1-131.83a17.72 17.72 0 0 1-17.087-18.331l.007-.159c.48-10.46 9.18-18.18 19-17.43 10.34.8 17.46 9.11 16.94 18.69-.56 10.42-9.1 17.96-18.86 17.23z"/></g></g></g></g><g id="Background_wavy_outline" data-name="Background wavy outline"><path class="cls-5" d="M777.748 396.337c0 39.89-24.432 75.429-36.096 111.38-12.107 37.302-13.654 80.327-36.25 111.38-22.823 31.361-63.414 46.026-94.776 68.849-31.053 22.596-57.423 56.804-94.714 68.922-35.993 11.684-77.276-.114-117.156-.114s-81.163 11.798-117.145.114c-37.302-12.118-63.672-46.326-94.724-68.922-31.362-22.823-71.954-37.488-94.777-68.85-22.595-31.041-24.142-74.067-36.25-111.38-11.684-35.992-36.095-71.53-36.095-111.38s24.431-75.429 36.095-111.38c12.108-37.302 13.655-80.327 36.25-111.38 22.823-31.351 63.415-46.026 94.777-68.839 31.052-22.595 57.422-56.814 94.724-68.921 35.982-11.685 77.265.103 117.145.103s81.163-11.788 117.145-.103c37.302 12.107 63.673 46.326 94.725 68.921 31.362 22.813 71.953 37.488 94.776 68.84 22.596 31.052 24.143 74.077 36.25 111.38 11.664 35.95 36.096 71.5 36.096 111.38z" id="path3838"/></g><g class="cls-6" id="Waves"><g id="g3847"><path class="cls-4" d="M708.03 377.027c-22.216 0-33.492-5.316-44.398-10.456-11.095-5.23-21.575-10.17-43.118-10.17-21.545 0-32.027 4.94-43.124 10.17-10.907 5.14-22.184 10.456-44.392 10.456-22.209 0-33.483-5.315-44.387-10.455-11.094-5.231-21.575-10.17-43.119-10.17-21.543 0-32.02 4.939-43.113 10.169-10.903 5.14-22.178 10.456-44.392 10.456-22.215 0-33.49-5.316-44.393-10.456-11.093-5.23-21.57-10.17-43.113-10.17-21.544 0-32.026 4.94-43.124 10.17-10.906 5.14-22.183 10.456-44.392 10.456s-33.483-5.315-44.386-10.455c-11.095-5.231-21.575-10.17-43.119-10.17v-3c22.216 0 33.493 5.315 44.398 10.456 11.093 5.23 21.57 10.169 43.107 10.169s32.018-4.94 43.113-10.169c10.908-5.141 22.187-10.457 44.403-10.457 22.215 0 33.49 5.316 44.393 10.456 11.092 5.23 21.57 10.17 43.113 10.17 21.542 0 32.02-4.94 43.113-10.17 10.903-5.14 22.177-10.456 44.392-10.456 22.216 0 33.492 5.316 44.399 10.457 11.092 5.23 21.57 10.169 43.107 10.169 21.536 0 32.017-4.94 43.112-10.169 10.909-5.141 22.188-10.457 44.404-10.457 22.215 0 33.491 5.316 44.397 10.456 11.095 5.23 21.575 10.17 43.118 10.17z" id="path3841"/><path class="cls-4" d="M708.03 419.279c-22.44 0-33.82-5.365-44.825-10.552-10.99-5.18-21.372-10.074-42.691-10.074-21.32 0-31.704 4.893-42.699 10.075-11.004 5.187-22.385 10.55-44.817 10.55-22.433 0-33.81-5.363-44.813-10.55-10.992-5.182-21.372-10.075-42.693-10.075-21.32 0-31.698 4.893-42.686 10.074-11.003 5.187-22.38 10.552-44.82 10.552-22.438 0-33.816-5.365-44.818-10.552-10.989-5.18-21.368-10.074-42.687-10.074-21.32 0-31.704 4.893-42.698 10.075-11.005 5.187-22.386 10.55-44.818 10.55s-33.81-5.363-44.813-10.55c-10.99-5.182-21.372-10.075-42.692-10.075v-5c22.44 0 33.82 5.364 44.825 10.552 10.988 5.18 21.367 10.074 42.68 10.074s31.695-4.894 42.686-10.074c11.008-5.188 22.39-10.552 44.83-10.552 22.439 0 33.816 5.364 44.819 10.551 10.989 5.181 21.367 10.075 42.687 10.075 21.319 0 31.698-4.894 42.686-10.075 11.003-5.187 22.38-10.551 44.82-10.551 22.439 0 33.818 5.364 44.823 10.552 10.99 5.18 21.369 10.074 42.682 10.074 21.312 0 31.694-4.894 42.686-10.074 11.007-5.188 22.39-10.552 44.83-10.552 22.438 0 33.818 5.364 44.824 10.551 10.99 5.181 21.372 10.075 42.691 10.075z" id="path3843"/><path class="cls-4" d="M708.03 469.78c-22.663 0-34.146-5.412-45.25-10.646-10.887-5.132-21.17-9.979-42.266-9.979-21.097 0-31.382 4.848-42.272 9.98-11.105 5.233-22.589 10.645-45.244 10.645-22.656 0-34.137-5.412-45.24-10.645-10.886-5.132-21.17-9.98-42.266-9.98-21.096 0-31.376 4.847-42.26 9.979-11.102 5.234-22.583 10.646-45.245 10.646-22.663 0-34.143-5.412-45.246-10.646-10.884-5.132-21.164-9.979-42.26-9.979-21.097 0-31.382 4.848-42.272 9.98-11.105 5.233-22.588 10.645-45.244 10.645s-34.136-5.412-45.239-10.645c-10.887-5.132-21.17-9.98-42.266-9.98v-7c22.664 0 34.146 5.414 45.251 10.648 10.884 5.13 21.166 9.977 42.254 9.977s31.373-4.846 42.26-9.977c11.107-5.234 22.592-10.648 45.256-10.648 22.663 0 34.143 5.413 45.246 10.647 10.884 5.132 21.165 9.978 42.26 9.978s31.375-4.846 42.26-9.978c11.102-5.234 22.582-10.647 45.245-10.647 22.664 0 34.147 5.414 45.251 10.648 10.885 5.13 21.166 9.977 42.255 9.977s31.372-4.846 42.26-9.977c11.107-5.234 22.592-10.648 45.256-10.648 22.662 0 34.145 5.413 45.25 10.647 10.886 5.132 21.17 9.978 42.265 9.978z" id="path3845"/></g></g><g id="wQjLs5.tif"><path class="cls-7" d="M69.973 396.082c.672-182.133 146.306-325.515 322.545-328.553 187.228-3.228 332.834 146.938 334.996 324.238 2.25 184.522-146.159 333.34-328.412 333.436-181.879.096-328.805-146.742-329.13-329.121zm628.858.106c.087-165.03-132.686-298.096-296.308-300.022C233.129 94.172 98.459 230.628 98.675 396.57a299.76 299.76 0 0 0 300.209 299.99c166.556-.057 300.23-135.073 299.947-300.372z"/><path class="cls-7" d="M412.517 420.835v55.547c0 4.516.048 4.51 4.535 4.318a165.173 165.173 0 0 0 29.487-4.299c16.036-3.637 27.732-13.19 36.84-26.413.9-1.305.947-2.176-.948-2.727-6.375-1.852-6.775-3.546-1.953-8.21q11.431-11.059 22.963-22.015c2.98-2.848 5.685-2.206 6.673 1.725q4.007 15.953 7.797 31.96c.878 3.704-1.839 6.253-5.575 5.419a12.168 12.168 0 0 1-1.827-.546c-1.852-.734-2.982.02-3.871 1.65a133.827 133.827 0 0 1-12.579 19.317c-9.495 11.939-20.733 21.87-34.218 29.004-10.112 5.35-20.37 10.503-31.53 13.462a36.56 36.56 0 0 1-8.199 1.445c-2.504.078-4.261 1.358-5.94 3.036-3.78 3.777-7.63 7.484-11.479 11.19q-3.959 3.813-7.931-.055-6.424-6.267-12.776-12.607a6.788 6.788 0 0 0-3.68-1.995c-20.805-4.064-38.773-13.926-54.965-27.25a122.73 122.73 0 0 1-31.085-38.962c-1.793-3.467-3.725-4.332-7.63-3.563-3.879.765-5.915-1.38-4.746-5.144q5.101-16.426 10.322-32.814c.95-2.988 3.803-3.611 5.935-1.295q11.977 13.015 23.877 26.1c2.151 2.358.907 5.382-1.949 5.686a16.076 16.076 0 0 0-1.855.454c-1.882.434-2.03 1.417-1.091 2.965a68.146 68.146 0 0 0 19.786 21.44c4.394 2.99 9.667 4.45 14.798 5.886a203.785 203.785 0 0 0 35.224 6.42c2.467.24 3.247-.437 3.261-3.127.032-5.985.01-11.97.01-17.957v-93.855c0-3.597-.237-3.851-3.722-3.854-7.897-.007-15.795.047-23.691-.032a12.425 12.425 0 0 0-6.53 1.88c-5.471 3.158-10.904 2.513-15.607-1.702-3.953-3.544-5.09-9.644-2.788-14.964 2.96-6.84 12.147-9.648 18.42-5.59a11.371 11.371 0 0 0 6.506 1.942c7.978-.078 15.958-.023 23.937-.033 3.037-.004 3.465-.442 3.474-3.456.008-2.634-.116-5.275.04-7.9.12-2.016-.745-3.006-2.516-3.764-7.292-3.123-13.769-7.343-18.014-14.302-14.79-24.248-.193-51.567 24.047-56.401a37.129 37.129 0 0 1 40.177 19.578c8.144 16.348 4.163 38.98-15.704 49.092-2.784 1.417-4.09 3.094-3.772 6.298a72.486 72.486 0 0 1 .042 8.852c-.035 1.45.557 2.016 1.963 2.013 8.14-.019 16.282-.007 24.423-.013a7.338 7.338 0 0 0 3.913-1.623 12.883 12.883 0 0 1 16.07 1.34 13.526 13.526 0 0 1 2.458 15.859 13.249 13.249 0 0 1-14.922 6.275 3.4 3.4 0 0 1-1.324-.517c-4.077-3.465-8.938-2.763-13.67-2.546a145.182 145.182 0 0 1-16.013.151c-2.359-.152-2.933.707-2.923 2.962.08 18.755.045 37.51.045 56.265zM399.013 312.08c10 .243 18.417-8.178 18.664-18.668a18.87 18.87 0 0 0-37.728-.96c-.317 11.24 7.558 19.35 19.064 19.628zm-189.96 224.948c-4.171 2.658-7.715 6.104-11.551 9.184-.62.499-1.238 1.006-1.893 1.456a2.726 2.726 0 0 1-3.365.054 16.46 16.46 0 0 1-5.197-6.693c-.632-1.655.817-2.773 1.983-3.718 5.32-4.311 10.693-8.558 16.005-12.88q6.204-5.048 12.297-10.233c1.616-1.38 3.023-1.571 4.55.046.763.809 1.643 1.506 2.438 2.286 2.452 2.408 2.746 5.115 1.468 8.283-2.131 5.285-4.047 10.656-6.168 16.295 5.56-.8 10.824-1.503 16.068-2.329a10.358 10.358 0 0 1 10.99 5.406c1.02 1.923.347 3.289-1.204 4.54q-10.689 8.619-21.335 17.292c-2.409 1.957-4.764 3.982-7.203 5.902-2.82 2.22-3.905 2.037-6.044-.768a47.68 47.68 0 0 0-2.432-2.936c-1.8-2.005-1.748-3.539.34-5.262 3.5-2.889 7.044-5.723 10.556-8.597.51-.418 1.483-.744 1.148-1.53-.286-.671-1.249-.592-1.947-.547a92.592 92.592 0 0 0-4.752.447c-5.272.614-8.397-3.104-6.812-8.153.761-2.423 1.575-4.83 2.363-7.247v-.522z"/><path class="cls-7" d="M124.84 400.618a49.931 49.931 0 0 1 9.284 3.975c16.379 8.315 33.777 10.141 51.797 8.717 11.637-.92 22.393-4.597 32.755-9.697a100.347 100.347 0 0 1 43.645-10.82c16.293-.2 31.738 2.653 46.409 9.898 7.969 3.935 16.133 7.504 24.962 9.216a114.807 114.807 0 0 0 30.22 1.468 83.078 83.078 0 0 0 16.438-2.906c1.222-.34 1.48-.018 1.54 1.17.191 3.874.263 3.996-3.42 4.762-22.64 4.712-44.76 3.818-66.018-6.242-5.1-2.413-10.14-5.018-15.412-6.993a75.01 75.01 0 0 0-18.293-4.29c-13.727-1.472-27.386-1.2-40.774 2.674-7.056 2.042-13.66 5.24-20.267 8.365a92.686 92.686 0 0 1-37.553 9.043c-11.62.318-23.05-.51-34.2-3.957-6.934-2.144-13.403-5.419-20.028-8.313a1.538 1.538 0 0 1-1.102-1.619c.06-1.426.016-2.856.016-4.45zM464.498 163.97c-.268 6.075-2.072 11.273-8.096 14.014-1.787.813-2.11 2.001-1.526 3.848 1.29 4.085 2.429 8.22 3.546 12.356.612 2.26-.095 3.305-2.42 3.132-6.322-.47-8.9-.327-11.1-7.666-.843-2.812-1.803-5.597-2.489-8.447-.757-3.144-2.675-3.509-5.637-3.397-1.008.038-1.169.805-1.338 1.661-.539 2.734-1.114 5.464-1.799 8.163-.55 2.17-1.62 4.12-4.047 4.523a9.518 9.518 0 0 1-7.577-2.1c-1.305-1.032-.723-2.68-.456-4.056q2.862-14.767 5.8-29.52c.555-2.807 1.093-5.617 1.705-8.412.345-1.577 1.265-2.654 3.036-2.315 8.418 1.61 17.041 2.496 24.932 6.128 4.897 2.254 7.44 6.733 7.466 12.088zm-26.41-1.02c-.19 3.274 1.997 5.877 5.513 5.415a13.424 13.424 0 0 1 3.056.215c2.064.206 3.961-.359 4.894-2.527a4.12 4.12 0 0 0-1.134-5.155 10.727 10.727 0 0 0-7.697-2.608c-3.165.065-4.645 1.551-4.631 4.66zm-95.806 459.558c1.438-5.382 2.887-10.76 4.31-16.147 1.082-4.097 2.22-4.751 6.347-3.575.613.175 1.227.347 1.84.52 4.336 1.226 4.855 2.154 3.62 6.51-2.76 9.729-5.538 19.451-8.27 29.187-.535 1.913-.896 3.874-1.329 5.815a2.285 2.285 0 0 1-2.69 2.062c-6.485-.482-8.093-1.494-9.78-7.048-1.818-5.987-3.998-11.864-6.041-17.782a23.377 23.377 0 0 0-1.137-2.253c-1.38 5.085-2.683 9.532-3.786 14.028-1.806 7.366-2.483 7.07-8.86 5.273-4.048-1.14-4.665-2.2-3.486-6.344 3.311-11.637 6.937-23.19 9.598-35.003a2.547 2.547 0 0 1 3.026-2.276c5.636.31 7.74 1.89 9.517 7.236q3.294 9.914 6.604 19.822zm236.318-105.59c8.16.221 13.743 5.304 14.762 12.905.557 4.155.701 4.239 4.977 4.935 3.381.551 6.749 1.202 10.105 1.894 2.369.489 2.74 1.321 1.636 3.488-2.523 4.953-6.376 8.554-13.144 6.193a43.087 43.087 0 0 0-7.005-1.471 4.607 4.607 0 0 0-5.131 3.59c-.28 1.142.61 1.391 1.15 1.835 2.457 2.014 4.965 3.966 7.47 5.923a2.942 2.942 0 0 1 .678 4.403 35.246 35.246 0 0 1-3.307 4.355c-1.76 1.904-3.135 1.987-5.225.37-4.525-3.5-8.976-7.096-13.485-10.617q-7.043-5.498-14.145-10.921c-3.63-2.759-3.9-4.27-1.092-7.826 3.495-4.429 6.937-8.906 10.587-13.205 3.04-3.579 6.79-6.03 11.169-5.851zm3.626 16.152c.087-2.79-3.354-5.148-5.438-3.945a20.147 20.147 0 0 0-6.69 6.32c-.378.563-.633 1.166-.138 1.746a23.347 23.347 0 0 0 5.332 4.682.882.882 0 0 0 1.1-.148 20.748 20.748 0 0 0 5.834-8.655zm-243.12-379.425c.113-2.743 1.595-3.612 3.58-3.929 5.026-.803 10.063-1.546 15.083-2.388 3.45-.579 6.864-1.368 10.318-1.907 3.6-.561 4.29.013 5.002 3.604 1.206 6.095.945 6.433-5.3 7.377-4.008.605-8.008 1.26-12.003 1.939-2.244.381-3.12 1.57-2.807 3.634.416 2.742 1.159 3.461 3.736 3.061 4.162-.645 8.306-1.421 12.44-2.234 3.559-.7 4.634-.101 5.47 3.383.184.77.233 1.572.36 2.357.52 3.222-.31 4.465-3.418 4.989-4.002.675-7.995 1.425-12.019 1.936-3.898.495-3.906 1.949-3.144 5.58.406 1.934 2.233 1.784 3.76 1.522 4.699-.809 9.384-1.698 14.08-2.522.858-.15 1.744-.138 2.616-.206a2.427 2.427 0 0 1 1.756.637c.577.476 2.016 7.61 1.68 8.245-.635 1.202-1.853 1.458-3.013 1.67-7.97 1.455-15.948 2.869-23.923 4.294-1.016.182-2.03.374-3.052.527-3.16.473-4.05-.11-4.597-3.223-1.633-9.322-3.222-18.653-4.827-27.98-.62-3.602-1.236-7.205-1.778-10.366zm155.562 468.648c.069 6.209-3.308 10.438-8.005 13.894-7.677 5.648-18.118 5.756-25.149.29-2.748-2.136-4.31-5.118-5.582-8.203a69.406 69.406 0 0 1-3.742-12.54c-1.082-5.285.52-9.895 4.131-13.845a23.663 23.663 0 0 1 24.963-6.097 14.123 14.123 0 0 1 6.805 5.424c1.072 1.559.694 2.768-1.035 3.368-4.132 1.433-8.17 2.86-12.702.953a7.464 7.464 0 0 0-10.244 7.867 28.596 28.596 0 0 0 5.058 13.737c1.83 2.552 4.454 3.165 8.127 2.036 3.057-.94 5.575-3.782 5.659-6.43.04-1.285-.609-1.946-1.909-1.794a8.826 8.826 0 0 0-1.341.47 6.404 6.404 0 0 1-1.845.443c-3.852-.093-2.981-3.741-4.193-5.788-.845-1.43-.642-3.155 1.118-3.838a268.584 268.584 0 0 1 13.208-4.712 2.67 2.67 0 0 1 3.321 1.7 33.778 33.778 0 0 1 3.357 13.065zm17.151-160.984a113.1 113.1 0 0 0 19.57 2.011c14.47.238 28.322-2.346 41.418-8.73 11.265-5.493 22.792-10.232 35.447-11.549 19.178-1.995 37.817-.335 55.509 7.94 1.11.52 3.045.765 3.05 1.933a20.627 20.627 0 0 1-1.307 6.27c-.323.996-1.2.136-1.762-.109-6.698-2.91-13.358-5.873-20.583-7.355-10.393-2.132-20.854-2.292-31.38-1.564-12.06.833-23.13 4.92-33.812 10.246a98.412 98.412 0 0 1-48.795 10.225 112.236 112.236 0 0 1-20.112-2.4c-1.347-.303-1.839-.673-.896-1.998a24.544 24.544 0 0 0 1.99-3.538c.479-.985 1.08-1.56 1.663-1.382zM539.292 566.6c.105 1.082-.676 1.82-1.636 2.49-3.853 2.686-7.71 5.367-11.52 8.114-.91.656-2.306 1.155-2.024 2.65a5.734 5.734 0 0 0 2.799 3.709c.882.551 1.795-.146 2.592-.723 3.675-2.66 7.405-5.246 11.034-7.966a2.616 2.616 0 0 1 3.974.314c.275.288.592.541.84.85 4.211 5.26 3.487 6.081-.753 8.837-2.933 1.906-5.743 4.004-8.578 6.057-2.436 1.765-2.57 2.72-.84 5.094 1.438 1.975 2.456 2.125 4.825.452 3.77-2.663 7.449-5.456 11.23-8.103 2.89-2.024 3.739-1.82 5.858 1.01 3.551 4.743 3.499 5.278-1.203 8.642q-9.716 6.95-19.485 13.826c-2.552 1.8-3.514 1.714-5.335-.826q-10.785-15.046-21.441-30.185c-1.791-2.544-1.472-3.718 1.088-5.543q10.21-7.278 20.416-14.558c2.454-1.75 3.872-1.597 5.575.887 1.015 1.48 2.487 2.76 2.584 4.972zm-269.71 45.45c.515-1.773-.395-2.88-2.037-3.866-3.259-1.956-6.424-4.075-9.573-6.208a2.409 2.409 0 0 0-3.38.229c-3.424 2.913-4.656 2.927-8.413.392-.856-.577-1.667-1.22-2.517-1.808-2.619-1.807-2.724-2.58-.152-4.599 10.451-8.199 20.96-16.324 31.43-24.498a3.912 3.912 0 0 1 5.21-.182c2.387 1.681 5.245 2.611 7.413 4.676a4.632 4.632 0 0 1 1.492 4.9c-2.628 10.575-5.163 21.174-7.756 31.759-.508 2.072-1.312 4.044-1.407 6.247-.091 2.106-1.479 3.01-3.62 2.778-3.91-.425-6.893-4.684-6.69-9.82zm6.194-26.48c-1.976 1.509-3.543 2.683-5.085 3.888-5.707 4.456-5.622 5.268.651 8.922 1.054.614 1.518.555 1.862-.6a57.927 57.927 0 0 0 2.572-12.21zm130.226 21.175c4.039-.021 6.273 2.16 7.752 5.32 2.355 5.036 4.138 10.301 6.115 15.487q3.77 9.89 7.479 19.804c1.097 2.946.595 3.602-2.615 3.764a31.211 31.211 0 0 0-3.316.304c-3.304.525-5.346-.459-6.199-3.69-.67-2.537-2.113-2.977-4.36-2.853-3.495.193-7.001.301-10.5.253-1.794-.025-2.982.571-3.381 2.28-.843 3.606-7.483 6.072-10.763 5.315-2.13-.492-2.334-2.025-1.737-3.913q3.634-11.483 7.186-22.993c1.393-4.48 2.836-8.948 4.123-13.46.824-2.886 2.285-4.72 5.527-5.02 1.643-.151 3.297-.433 4.689-.598zm-.616 14.305c-.22.233-.377.325-.418.454q-1.172 3.629-2.318 7.266c-1.994 6.32-1.502 6.87 5.158 6.167 1.865-.197 2.373-.933 1.717-2.669-1.4-3.7-2.742-7.42-4.14-11.218zM280.412 176.005a15.205 15.205 0 0 1 12.241 5.411c1.352 1.542 1.325 3.049-.412 4.252-3.505 2.428-7.18 4.01-11.597 2.178-3.309-1.372-7.004-.13-9.674 2.881-2.144 2.419-2.41 5.196-.538 8.622 1.639 3 3.435 5.92 5.289 8.791 1.722 2.667 3.92 4.697 7.466 3.982 4.216-.85 7.154-3.603 7.674-7.444.622-4.603 3.416-7.373 7.35-9.236 1.879-.89 3.12-.228 3.858 1.79 2.735 7.47.232 13.649-4.935 18.91-5.12 5.214-11.367 8.04-18.9 7.34a15.478 15.478 0 0 1-10.065-4.949 45.536 45.536 0 0 1-9.675-14.97c-3.616-9.565.292-19.16 9.389-24.143a26.91 26.91 0 0 1 12.529-3.415zM130.409 452.356c7.989 3.51 15.34 7.212 23.458 8.765 19.989 3.824 39.582 3.213 58.5-5.235 7.182-3.207 14.225-6.768 21.731-9.206a98.591 98.591 0 0 1 32.53-4.358c2.215.04 5.04-.846 6.476.55 1.233 1.197-.188 4.011.592 6.088.447 1.19-.617.982-1.279.964-4.378-.115-8.751-.169-13.135-.074-12.903.28-24.915 3.856-36.445 9.423-10.21 4.93-20.655 9.145-32.067 10.447-19.641 2.241-38.776.92-56.922-7.754-.654-.313-1.328-.519-1.518-1.35-.598-2.623-1.217-5.241-1.921-8.26zm223.98-76.817c-16.12.816-31.205-3.063-45.54-10.282-23.525-11.847-47.995-13.318-73.108-6.21-6.58 1.863-12.72 5.002-18.87 7.97-14.412 6.958-29.649 9.33-45.502 8.792a92.272 92.272 0 0 1-26.511-4.39c-5.81-1.953-11.294-4.683-16.926-7.063-1.796-.76-1.31-2.15-.917-3.19.532-1.403 1.451-.116 2.064.167 9.826 4.545 19.688 9.001 30.594 10.293 17.791 2.106 35.25 1.457 52.023-5.88 8.654-3.787 17.059-8.22 26.236-10.744 12.06-3.316 24.334-3.705 36.74-2.933 13.375.832 25.608 5.344 37.433 11.197a92.474 92.474 0 0 0 45.286 9.341 109.098 109.098 0 0 0 22.444-2.987c.613-.153 1.764-1.21 1.99.419.155 1.13.357 2.333-1.396 2.754a95.953 95.953 0 0 1-16.722 2.713c-3.096.183-6.211.033-9.318.033zm160.754 36.922a129.653 129.653 0 0 0 18.804 1.301 90.356 90.356 0 0 0 40.79-9.456c9.966-4.86 20.187-9.033 31.345-10.45a126.506 126.506 0 0 1 33.333.154c11.518 1.583 21.91 6.385 32.287 11.234.873.408 1.46 5.03.705 5.646-.74.604-1.345-.14-1.944-.414-6.14-2.813-12.222-5.762-18.61-7.99-11.143-3.889-22.686-4.593-34.368-4.331a88.485 88.485 0 0 0-38.5 10.027 97.643 97.643 0 0 1-46.74 10.915c-4.617-.087-9.236-.28-13.836-.79a2.062 2.062 0 0 1-2.122-1.798c-.267-1.237-.682-2.442-1.144-4.048zm27.381-211.198a9.725 9.725 0 0 1-1.506-.483c-.85-.42-1.655-.934-2.483-1.4-5.83-3.289-6.489-3.449-9.878 1.966-4.24 6.777-8.567 13.5-12.893 20.224-1.928 2.995-3.1 3.189-6.005 1.202-.98-.67-1.97-1.327-2.98-1.953-3.194-1.983-3.452-3.062-1.383-6.332 3.133-4.951 6.309-9.876 9.436-14.831 1.99-3.152 3.837-6.398 5.934-9.474.695-1.02.423-1.476-.223-2.179-1.548-1.685-3.683-2.445-5.58-3.565-3.231-1.907-3.79-3.684-1.92-6.814 2.539-4.252 4.068-4.819 7.49-2.661q12.56 7.918 25.083 15.896c2.992 1.91 3.228 2.951 1.388 6.052-1.065 1.795-1.872 3.942-4.48 4.352zm128.647 166.18c-6.63-2.861-12.945-6.066-19.665-8.321-10.957-3.677-22.262-4.355-33.705-4.157-14.39.249-27.776 4.216-40.492 10.69-19.782 10.071-40.678 12.032-62.341 8.849-9.565-1.406-18.364-5.013-27.027-9.045a133.028 133.028 0 0 0-18.354-7.35c-1.477-.436-1.42-1.017-1.188-2.176.297-1.478 1.124-1.151 2.099-.876a108.12 108.12 0 0 1 19.006 7.61c22.325 11.195 45.587 12.557 69.492 6.74 7.438-1.811 14.305-5.326 21.195-8.611a92.658 92.658 0 0 1 38.523-9.058c13.433-.27 26.552 1.127 39.077 6.29 3.674 1.515 7.235 3.305 10.917 4.8 2.109.858 2.977 2.176 2.463 4.614zM501.837 408.97c-.293.338-.4.451-.495.574-2.906 3.779-6.074 2.65-9.696.94-8.748-4.128-17.458-8.4-27.06-10.381a111.797 111.797 0 0 0-29.683-1.711 73.23 73.23 0 0 0-14.143 2.14c-1.441.38-1.953.052-1.949-1.547.01-3.536-.095-3.63 3.413-4.237 18.05-3.126 35.932-2.959 53.456 3.064 7.825 2.689 15.103 6.676 22.764 9.76 1.096.441 2.186.9 3.393 1.398zm-58.285 40.649a95.456 95.456 0 0 0-22.75 2.57c-1.73.446-1.973-.161-1.981-1.694-.03-5.677-.087-5.744 5.174-6.59 15.428-2.483 30.768-2.332 45.994 1.574 2.554.655 2.8 3.224 4.412 4.648.543.48-2.952 3.428-3.976 3.124a77.768 77.768 0 0 0-16.14-3.02c-3.572-.275-7.155-.413-10.733-.612zm-100.86 13.416c4.762-.04 9.475.441 14.213.277a97.552 97.552 0 0 0 23.301-3.323c1.244-.352 1.627-.339 1.69 1.105.268 6.138.23 5.855-5.633 7.586-7.194 2.123-14.011.492-20.856-1.274-4.33-1.117-8.706-2.19-12.715-4.371z"/></g></svg>