<svg xmlns="http://www.w3.org/2000/svg" xmlns:xlink="http://www.w3.org/1999/xlink" viewBox="2.11 0.36 354.53 358.28"><defs><linearGradient id="c" x1="11.59" x2="350.962" y1="209.479" y2="149.639" gradientUnits="userSpaceOnUse"><stop offset="0" stop-color="#328dbb"/><stop offset="1" stop-color="#0f578b"/></linearGradient><linearGradient id="d" x1="332.291" x2="120.916" y1="186.583" y2="280.693" gradientUnits="userSpaceOnUse"><stop offset="0" stop-color="#3282b4"/><stop offset="1" stop-color="#0f578b"/></linearGradient><linearGradient id="e" x1="90.5" x2="90.154" y1="177.063" y2="177.409" gradientUnits="userSpaceOnUse"><stop offset="0" stop-color="#3f8dbb"/><stop offset="1" stop-color="#0f578b"/></linearGradient><linearGradient id="a" x1="127.565" x2="126.973" y1="252.988" y2="252.646" gradientUnits="userSpaceOnUse"><stop offset="0" stop-color="#4798c7"/><stop offset="1" stop-color="#0a5183"/></linearGradient><linearGradient id="f" x1="131.276" x2="130.537" y1="255.582" y2="255.155" xlink:href="#a"/><linearGradient id="g" x1="139.071" x2="138.044" y1="260.236" y2="259.643" xlink:href="#a"/><linearGradient id="h" x1="135.104" x2="134.229" y1="257.996" y2="257.491" xlink:href="#a"/><linearGradient id="i" x1="143.168" x2="141.976" y1="262.296" y2="261.608" xlink:href="#a"/><linearGradient id="j" x1="117.253" x2="117.106" y1="244.207" y2="244.123" xlink:href="#a"/><linearGradient id="k" x1="123.979" x2="123.544" y1="250.218" y2="249.966" xlink:href="#a"/><linearGradient id="l" x1="114.14" x2="114.106" y1="240.993" y2="240.973" xlink:href="#a"/><linearGradient id="m" x1="120.542" x2="120.253" y1="247.29" y2="247.123" xlink:href="#a"/><linearGradient id="n" x1="264.797" x2="264.035" y1="330.748" y2="330.308" xlink:href="#a"/><linearGradient id="o" x1="174.695" x2="172.352" y1="270.924" y2="269.571" xlink:href="#a"/><linearGradient id="p" x1="180.761" x2="177.202" y1="271.57" y2="269.516" xlink:href="#a"/><linearGradient id="q" x1="280.555" x2="58.723" y1="295.188" y2="167.114" xlink:href="#a"/><linearGradient id="r" x1="147.36" x2="146.02" y1="264.154" y2="263.38" xlink:href="#a"/><linearGradient id="s" x1="169.834" x2="167.735" y1="270.328" y2="269.116" xlink:href="#a"/><linearGradient id="t" x1="165.059" x2="163.202" y1="269.496" y2="268.423" xlink:href="#a"/><linearGradient id="u" x1="151.671" x2="150.171" y1="265.817" y2="264.951" xlink:href="#a"/><linearGradient id="v" x1="160.515" x2="158.766" y1="268.489" y2="267.479" xlink:href="#a"/><linearGradient id="w" x1="156.082" x2="154.423" y1="267.274" y2="266.316" xlink:href="#a"/><linearGradient id="x" x1="329.243" x2="329.227" y1="267.978" y2="267.969" xlink:href="#a"/><linearGradient id="y" x1="325.324" x2="325.255" y1="274.274" y2="274.235" xlink:href="#a"/><linearGradient id="z" x1="332.543" x2="332.531" y1="262.226" y2="262.219" xlink:href="#a"/><linearGradient id="A" x1="335.991" x2="335.904" y1="255.681" y2="255.63" xlink:href="#a"/><linearGradient id="B" x1="338.849" x2="338.785" y1="249.571" y2="249.534" xlink:href="#a"/><linearGradient id="C" x1="308.247" x2="307.962" y1="296.315" y2="296.15" xlink:href="#a"/><linearGradient id="D" x1="313.109" x2="312.912" y1="290.729" y2="290.616" xlink:href="#a"/><linearGradient id="E" x1="317.213" x2="317.044" y1="285.654" y2="285.557" xlink:href="#a"/><linearGradient id="F" x1="321.629" x2="321.518" y1="279.695" y2="279.631" xlink:href="#a"/><linearGradient id="G" x1="346.473" x2="346.168" y1="229.422" y2="229.246" xlink:href="#a"/><linearGradient id="H" x1="341.757" x2="341.562" y1="242.815" y2="242.702" xlink:href="#a"/><linearGradient id="I" x1="287.942" x2="287.414" y1="315.272" y2="314.967" xlink:href="#a"/><linearGradient id="J" x1="282.53" x2="282.231" y1="319.215" y2="319.042" xlink:href="#a"/><linearGradient id="K" x1="276.701" x2="276.052" y1="323.47" y2="323.095" xlink:href="#a"/><linearGradient id="L" x1="293.522" x2="293.22" y1="310.542" y2="310.367" xlink:href="#a"/><linearGradient id="M" x1="270.778" x2="270.543" y1="326.992" y2="326.856" xlink:href="#a"/><linearGradient id="N" x1="298.473" x2="298.069" y1="306.203" y2="305.97" xlink:href="#a"/><linearGradient id="O" x1="344.11" x2="344.041" y1="236.305" y2="236.266" xlink:href="#a"/><linearGradient id="P" x1="303.725" x2="303.464" y1="301.029" y2="300.878" xlink:href="#a"/><linearGradient id="b" x1="178.857" x2="238.934" y1="209.972" y2="149.894" gradientUnits="userSpaceOnUse"><stop offset="0" stop-color="#51a2d1"/><stop offset="1" stop-color="#0e5688"/></linearGradient><linearGradient id="Q" x1="110.659" x2="183.141" y1="206.276" y2="133.794" xlink:href="#b"/></defs><path fill="url(#c)" d="M261.642 222.443a91.034 91.034 0 1 1 3.603-78.259H350a172.293 172.293 0 1 0-1.743 78.259z"/><path fill="url(#d)" d="M348.257 222.443h-86.615a91.048 91.048 0 0 1-171.36-42.347c-.002.32-.013.639-.013.96 0 86.935 74.896 151.117 168.005 152.717a172.704 172.704 0 0 0 89.983-111.33z"/><path fill="url(#e)" d="M90.336 176.898c-.007.225-.012.45-.017.675q.007-.338.017-.675z" opacity=".59"/><path fill="url(#a)" d="M126.99 252.618c.183.137.375.263.56.398-.185-.135-.377-.262-.56-.398z"/><path fill="url(#f)" d="M130.547 255.138c.236.16.482.305.72.462-.238-.157-.484-.303-.72-.462z"/><path fill="url(#g)" d="M138.029 259.669c.348.188.707.357 1.057.541-.35-.184-.71-.353-1.057-.541z"/><path fill="url(#h)" d="M134.229 257.49c.288.175.586.333.876.504-.29-.17-.588-.33-.876-.503z"/><path fill="url(#i)" d="M141.942 261.667c.414.2.841.377 1.26.57-.419-.193-.846-.37-1.26-.57z"/><path fill="url(#j)" d="M117.242 244.225c-.04-.04-.084-.079-.125-.12.04.041.084.08.125.12z"/><path fill="url(#k)" d="M123.562 249.935c.13.108.268.208.4.314-.132-.106-.27-.206-.4-.314z"/><path fill="url(#l)" d="M114.11 240.968l.027.03z"/><path fill="url(#m)" d="M120.269 247.096c.084.076.172.147.257.222-.085-.075-.173-.146-.257-.222z"/><path fill="url(#n)" d="M265.16 330.117q-.742.415-1.489.822.747-.408 1.49-.822z"/><path fill="url(#o)" d="M172.027 270.133c.99.1 1.993.16 2.993.228-1-.069-2.002-.127-2.993-.228z"/><path fill="url(#p)" d="M176.644 270.484q2.323.118 4.676.118-2.353 0-4.676-.118z"/><path fill="url(#q)" d="M258.274 333.773c-93.109-1.6-168.005-65.782-168.005-152.717 0-.321.011-.64.014-.96v.001c-.002-.183-.014-.363-.014-.546a91.067 91.067 0 0 1 76.754-89.925v-.646C92.164 101.758 39.1 165.693 39.1 249.533a108.225 108.225 0 0 0 5.9 35.423 172.425 172.425 0 0 0 213.28 48.814z"/><path fill="url(#r)" d="M145.962 263.48c.48.202.972.38 1.456.574-.484-.195-.977-.372-1.456-.574z"/><path fill="url(#s)" d="M167.481 269.557c.862.131 1.737.224 2.607.33-.87-.106-1.745-.199-2.607-.33z"/><path fill="url(#t)" d="M163.008 268.76c.742.15 1.496.267 2.245.4-.749-.133-1.503-.25-2.245-.4z"/><path fill="url(#u)" d="M150.084 265.101c.552.202 1.117.375 1.674.566-.557-.19-1.122-.364-1.674-.566z"/><path fill="url(#v)" d="M158.612 267.746c.68.175 1.372.316 2.058.475-.686-.159-1.378-.3-2.058-.475z"/><path fill="url(#w)" d="M154.302 266.525c.628.195 1.268.359 1.901.54-.633-.181-1.274-.345-1.9-.54z"/><path fill="url(#x)" d="M328.867 268.594c.249-.411.491-.827.737-1.24-.246.413-.489.829-.737 1.24z"/><path fill="url(#y)" d="M324.955 274.754c.222-.334.45-.664.67-1-.22.336-.448.666-.67 1z"/><path fill="url(#z)" d="M332.29 262.666c.163-.297.333-.59.494-.887-.161.298-.331.59-.495.887z"/><path fill="url(#A)" d="M335.62 256.323c.222-.444.437-.89.655-1.335-.218.445-.433.892-.655 1.335z"/><path fill="url(#B)" d="M338.657 249.902c.105-.234.216-.464.32-.699-.104.235-.215.465-.32.7z"/><path fill="url(#C)" d="M307.602 296.774c.335-.36.673-.719 1.005-1.082-.332.363-.67.721-1.005 1.082z"/><path fill="url(#D)" d="M312.587 291.18c.285-.335.564-.677.847-1.015-.283.338-.562.68-.847 1.015z"/><path fill="url(#E)" d="M316.712 286.133c.277-.352.56-.7.834-1.055-.275.354-.557.703-.834 1.055z"/><path fill="url(#F)" d="M321.172 280.23c.27-.376.535-.756.803-1.134-.268.378-.532.758-.803 1.134z"/><path fill="url(#G)" d="M346.1 230.07q.224-.734.441-1.47-.218.736-.442 1.47z"/><path fill="url(#H)" d="M341.382 243.464c.188-.469.37-.94.554-1.41-.183.47-.366.941-.554 1.41z"/><path fill="url(#I)" d="M288.32 314.617c-.426.338-.855.67-1.284 1.004.429-.333.858-.666 1.284-1.004z"/><path fill="url(#J)" d="M282.73 318.87c-.235.171-.463.348-.698.517.235-.17.463-.346.697-.516z"/><path fill="url(#K)" d="M277.077 322.82q-.698.467-1.4.926.702-.46 1.4-.926z"/><path fill="url(#L)" d="M293.777 310.101c-.272.234-.538.475-.812.707.274-.232.54-.473.812-.707z"/><path fill="url(#M)" d="M270.905 326.772c-.164.1-.324.205-.489.305.165-.1.325-.205.49-.305z"/><path fill="url(#N)" d="M298.845 305.559c-.38.354-.765.703-1.148 1.054.383-.35.768-.7 1.148-1.054z"/><path fill="url(#O)" d="M343.998 236.499c.05-.143.104-.284.154-.427-.05.143-.104.284-.154.427z"/><path fill="url(#P)" d="M303.17 301.387c.286-.286.565-.58.85-.868-.285.288-.564.582-.85.868z"/><path fill="url(#b)" fill-rule="evenodd" d="M239.044 181.797a23.656 23.656 0 0 0-9.31-9.357q-6.398-3.771-21.186-7.456-5.974-1.44-7.568-3.11a4.969 4.969 0 0 1-1.643-3.627 6.287 6.287 0 0 1 1.992-4.693q1.992-1.928 5.925-1.928a10.406 10.406 0 0 1 7.493 2.59q2.714 2.592 3.56 8.292l21.26-1.44q-1.394-13.128-8.738-19.144t-21.335-6.017q-11.401 0-17.948 3.31a22.587 22.587 0 0 0-9.809 9.098 24.656 24.656 0 0 0-3.261 12.293q0 9.903 6.373 16.294 6.323 6.392 21.16 10.25 9.062 2.303 11.551 4.894a8.257 8.257 0 0 1 2.49 5.873 8.345 8.345 0 0 1-2.614 6.074q-2.614 2.62-7.444 2.62a11.325 11.325 0 0 1-9.958-5.125q-2.14-3.166-2.837-9.212l-21.46 1.554q.947 12.783 8.116 21.074t25.79 8.291q10.606 0 17.576-3.54a25.512 25.512 0 0 0 10.854-10.394 29.841 29.841 0 0 0 3.884-14.97 26.608 26.608 0 0 0-2.913-12.494z"/><path fill="url(#Q)" fill-rule="evenodd" d="M179.981 177.42a24.582 24.582 0 0 1-4.064-7.182h-27.222V155.52h26.06a29.732 29.732 0 0 1 12.004-18.11h-60.686v84.28h22.622v-34.436h31.286z"/></svg>