<svg id="Layer_1" data-name="Layer 1" xmlns="http://www.w3.org/2000/svg" viewBox="0 0 360 360"><defs><style>.cls-1{fill:#fff}.cls-2{fill:#f9c606}.cls-3{fill:#87752d}</style></defs><circle class="cls-1" cx="179.053" cy="179.894" r="166.802"/><path class="cls-2" d="M180.062 1.923A178.039 178.039 0 1 0 358.1 179.96 178.039 178.039 0 0 0 180.06 1.923zm-87.767 94.73l33.993 19.624v47.047L92.295 182.95zm0 101.885l33.993-19.624v39.248l-33.993 19.625zm81.487 94.095L99.046 249.48l33.993-19.624 40.742 23.52zm0-156.728l-33.993 19.625v-39.254l33.993-19.624zm13.5-39.253l33.99 19.624v39.253l-33.99-19.623zm0 195.981v-39.251l40.74-23.526 33.993 19.626zm81.484-54.843l-33.993-19.628v-39.25l33.993 19.626zm0-54.84l-33.993-19.626v-47.047l33.993-19.624z"/><path class="cls-3" d="M228.022 104.587l-47.49-27.419-47.494 27.42L78.794 73.27v180.107l101.738 58.74 101.735-58.736V73.27zm-40.74-7.935l33.99 19.624v39.253l-33.99-19.623zm-47.493 19.624l33.992-19.624v39.253L139.79 155.53zM92.295 96.653l33.993 19.624v47.047L92.295 182.95zm0 101.885l33.993-19.624v39.248l-33.993 19.625zm81.487 94.095L99.046 249.48l33.993-19.624 40.742 23.52zm0-54.845l-33.993-19.625v-39.25l33.992 19.626zm-27.242-70.566l33.993-19.624 33.993 19.625-33.993 19.623zm74.732 11.695v39.247l-33.99 19.63v-39.256zm-33.99 113.716v-39.251l40.74-23.527 33.993 19.627zm81.484-54.843l-33.993-19.628v-39.25l33.993 19.626zm0-54.84l-33.993-19.626v-47.047l33.993-19.624z"/></svg>