<svg xmlns="http://www.w3.org/2000/svg" role="img" viewBox="7.98 8.10 90.30 98.80"><g id="layer1" transform="translate(463.922 -100.215)"><g id="g203500" stroke-linecap="round" stroke-linejoin="round" transform="translate(-317.215 -40.13)"><path id="path1439" fill="#fff" stroke="#005c94" stroke-width="21.887" d="m -1737.2913,942.67731 c -20.0469,0 -163.5883,-82.87365 -173.6118,-100.23483 -10.0235,-17.36118 -10.0235,-183.10848 0,-200.46967 10.0235,-17.36118 153.5649,-100.23483 173.6118,-100.23483 20.047,0 163.5884,82.87364 173.6119,100.23482 10.0234,17.36119 10.0234,183.10849 0,200.46967 -10.0235,17.36118 -153.5649,100.23484 -173.6119,100.23484 z" opacity="1" stop-color="#000" stop-opacity="1" transform="translate(297.191 30.973) scale(.2249)"/><path id="path1441" fill="#ff4d4d" fill-opacity="1" stroke-width="2.264" d="m -93.5108,223.4354 c -0.7664,0 -21.7398,-12.109 -22.1229,-12.7727 -0.3832,-0.6638 -0.3832,-24.8819 0,-25.5456 0.3831,-0.6637 21.3565,-12.7727 22.1229,-12.7727 0.7664,0 21.7398,12.109 22.1231,12.7727 0.3831,0.6637 0.3831,24.8818 0,25.5456 -0.3833,0.6637 -21.3567,12.7727 -22.1231,12.7727 z" stop-color="#000"/><path id="path1449" fill="#b50000" stroke-width="2.264" d="m -71.3875,185.1171 c -0.7664,0 -21.7402,12.1088 -22.1233,12.7725 -0.3833,0.6637 -0.3833,24.882 0,25.5458 0.7662,0 21.74,-12.1088 22.1233,-12.7726 0.3831,-0.6637 0.3831,-24.8822 0,-25.5457 z" stop-color="#000"/></g></g></svg>