<svg id="Layer_1" data-name="Layer 1" xmlns="http://www.w3.org/2000/svg" viewBox="0 0 360 360"><defs><style>.cls-1{fill:#009cdc}</style></defs><path class="cls-1" d="M233.494 13.607A172.542 172.542 0 0 0 189.6 5.438c-18.11 99.876-68.02 169.764-111.296 213.538a430.604 430.604 0 0 1-50.308 43.508 174.16 174.16 0 0 0 13.98 21.408c27.223-17.232 52.176-36.806 71.681-55.386 46.631-44.418 100.42-115.007 119.836-214.899zm58.395 110.34a372.543 372.543 0 0 0 23.407-53.908 175.108 175.108 0 0 0-30.63-29.736c-23.844 94.18-79.445 162.106-127.98 205.904a497.637 497.637 0 0 1-89.624 64.254 174.774 174.774 0 0 0 14.718 11.372 517.18 517.18 0 0 0 106.499-70.697c43.913-37.733 78.773-80.526 103.61-127.19z"/><path class="cls-1" d="M277.15 34.899a173.242 173.242 0 0 0-38.294-19.473c-19.8 100.895-74.176 172.22-121.333 217.14a464.138 464.138 0 0 1-71.817 56.067 175.035 175.035 0 0 0 14.624 15.728 485.221 485.221 0 0 0 90.613-64.519C199.065 196.417 254.268 128.8 277.151 34.9zm58.984 98.301c2.517-4.486 4.893-9.006 7.203-13.541a173.255 173.255 0 0 0-19.695-38.41 386.047 386.047 0 0 1-21.565 48.12c-25.514 47.935-61.272 91.848-106.277 130.52a533.49 533.49 0 0 1-102.628 69.143q7.062 4.101 14.525 7.544a550.072 550.072 0 0 0 117.96-74.18c46.77-38.432 83.94-81.9 110.477-129.196zM186.938 5.34c-2.277-.089-4.556-.174-6.854-.174-95.745 0-173.64 77.898-173.64 173.64a172.534 172.534 0 0 0 20.289 81.333 427.965 427.965 0 0 0 49.696-43.018c42.94-43.434 92.455-112.746 110.509-211.78z"/><path class="cls-1" d="M348.787 140.3c-27.423 48.873-65.75 93.724-113.918 133.306a571.326 571.326 0 0 1-108.75 70.21 172.88 172.88 0 0 0 53.965 8.63c95.744 0 173.64-77.897 173.64-173.64a173.375 173.375 0 0 0-4.533-39.264c-.14.251-.264.507-.404.758z"/></svg>