<svg viewBox="0 0 900 900" xmlns="http://www.w3.org/2000/svg" xmlns:xlink="http://www.w3.org/1999/xlink"><clipPath id="a"><path d="m447.73 309.78a46.75981 46.75981 0 0 0 -46.76 46.76v440.04a46.76 46.76 0 0 0 93.52 0v-440.03a46.75555 46.75555 0 0 0 -46.76-46.77"/></clipPath><clipPath id="b"><path d="m263.62 234.54q-.195 4.305-.2 8.68c0 3.19.07 6.35.24 9.5-.07 1.55-.24 3.08-.24 4.66v306.18c0 58.55 47.91 106.46 106.46 106.46h160.22c58.56 0 106.46-47.91 106.46-106.46v-306.19c0-1.78-.18-3.51-.28-5.26.14-2.95.22-5.92.22-8.89 0-2.92-.07-5.8-.2-8.68-4.5-99.01-86.2-177.88-186.32-177.88-100.13 0-181.84 78.87-186.36 177.88z"/></clipPath><clipPath id="c"><path d="m142.32001 97.05h606.10999v606.10997h-606.10999z"/></clipPath><clipPath id="d"><path d="m121.45167 305.6912h654.37372v195.51814h-654.37372z" transform="matrix(.70710678 -.70710678 .70710678 .70710678 -153.87924 435.4032)"/></clipPath><clipPath id="e"><path d="m260.91 50.92997h382.11002v619.28997h-382.11002z"/></clipPath><clipPath id="f"><path d="m-22.38-67.66h639.04998v639.05002h-639.04998z"/></clipPath><clipPath id="g"><path d="m-32.95044 128.3843h654.3837v241.17767h-654.3837z" transform="matrix(.70710678 -.70710678 .70710678 .70710678 -89.86928 280.98264)"/></clipPath><clipPath id="h"><path d="m280.67001 235.39999h606.11002v606.11002h-606.11002z"/></clipPath><clipPath id="i"><path d="m258.77901 443.79101h654.39197v193.81798h-654.39197z" transform="matrix(.70709913 -.70711443 .70711443 .70709913 -210.70418 572.72293)"/></clipPath><clipPath id="j"><path d="m412.96 670.01 81.54 82.89v-82.89z"/></clipPath><g clip-path="url(#a)"><path d="m368.03 276.84h159.41v599.44003h-159.41z" fill="#f7d186"/></g><g clip-path="url(#b)"><g clip-path="url(#c)"><g clip-path="url(#d)"><g clip-path="url(#e)"><path d="m115.65 70.36997h665.66v665.65997h-665.66z" fill="#ffcd3c"/></g></g></g></g><g clip-path="url(#b)"><g clip-path="url(#f)"><g clip-path="url(#g)"><g clip-path="url(#e)"><path d="m-55.32999-100.60001h699.14v699.14004h-699.14z" fill="#f3807b"/></g></g></g></g><g clip-path="url(#b)"><g clip-path="url(#h)"><g clip-path="url(#i)"><g clip-path="url(#e)"><path d="m253.14 207.87h665.65999v665.65997h-665.65999z" fill="#35d0ba"/></g></g></g></g><g clip-path="url(#j)"><path d="m380.69 636.90997h147.02997v147.66998h-147.02997z" fill="#d8ae64"/></g></svg>