<svg width="161" height="206" fill="none" xmlns="http://www.w3.org/2000/svg"><g clip-path="url(#clip0)"><path d="M160.9 45.7v58c0 34.7-30.6 72.4-75.5 94.7v-68.3l12.6 1.3c8.2.8 21.8-3.8 32-17 .5-.7.9-1.3 1.3-1.8.6-.9 1.1-1.8 1.5-2.8l.1-.1s1.4-2.6 1.8-3.5c4.8-11.3 5.9-30.3-7.2-42.4 3.8 22.5-13.6 28-13.6 28s.1-.2.3-.5c2.8-4.9 2.4-11-.8-15.6-4.1 8.1-7.1 9.8-11.6 10.8l-16.3-7.1V0l75.4 45.7z" fill="#436DB4"/><path d="M75.5 59.8l-49.4 83.4h16.6l31.2-14.3 1.6.2v76.7C30.6 183.5 0 145.7 0 111.1V53l75.5-35.9v42.7z" fill="#26BECD"/><path d="M94.8 104.9a4.7 4.7 0 1 0 0-9.4 4.7 4.7 0 0 0 0 9.4z" fill="#436DB4"/></g><defs><clipPath id="clip0"><path fill="#fff" d="M0 0H160.9V205.8H0z"/></clipPath></defs></svg>