<svg viewBox=".92 -5.08 357.16 368.16" xmlns="http://www.w3.org/2000/svg" xmlns:xlink="http://www.w3.org/1999/xlink"><linearGradient id="a" gradientTransform="matrix(1 0 0 -1 0 362)" gradientUnits="userSpaceOnUse" x1="8.049" x2="223.705" y1="185.068" y2="185.068"><stop offset="0" stop-color="#006934" stop-opacity="0"/><stop offset="1" stop-color="#006934"/></linearGradient><g fill="#4aba58"><path d="m228.765 30.362-49.121-28.362-49.093 28.362 49.093 28.335z"/><path d="m152.896 215.413 7.001 129.366 19.747 11.405 19.774-11.405 7.002-129.366-26.776-15.453z"/><path d="m265.496 108.474 85.744-49.504-35.91-20.758a27.35 27.35 0 0 0 -13.676-3.802 25.819 25.819 0 0 0 -13.183 3.555l-72.532 41.9z"/><path d="m265.414 150.43 85.743 49.503-35.938 20.759a27.35 27.35 0 0 1 -13.675 3.802 25.818 25.818 0 0 1 -13.183-3.556l-72.505-41.873z"/><path d="m130.086 129.424-122.037 70.482 35.938 20.731a27.35 27.35 0 0 0 13.675 3.802 25.818 25.818 0 0 0 13.183-3.556l108.855-62.905z"/><path d="m179.644 158.033-171.595-99.063 35.91-20.758a27.35 27.35 0 0 1 13.676-3.802 25.819 25.819 0 0 1 13.183 3.555l158.412 91.46z"/></g><path d="m130.086 129.424-122.037 70.482 35.938 20.731a27.35 27.35 0 0 0 13.675 3.802 25.818 25.818 0 0 0 13.183-3.556l78.769-45.51a19.774 19.774 0 0 0 .793-34.243 1040.537 1040.537 0 0 1 -20.321-11.706z" fill="url(#a)"/></svg>