<svg enable-background="new 0 0 432 432" viewBox="-4.21 49.54 439.92 332.67" xmlns="http://www.w3.org/2000/svg"><path d="m109.8 210.6.6 25.4 26.8 16.6-.6-25.4zm65.4 105.8-.6-24.9-23.5-14.6c-.3-.2-.7-.5-1-.7l.6 25zm-83.7 33.6-61.3-38-1.5-63.7 30.1-13-.6-25.5-48 20.7c-3.7 1.6-5.9 5-5.8 8.9l1.8 76.5c.1 3.9 2.5 7.8 6.3 10.2l73.5 45.6c3.4 2.1 7.6 2.7 11 1.6.4-.1.7-.2 1-.4l45.1-19.4-24.5-15.2z" fill="#b31aab"/><path d="m289.6 209.1c-.1-4.6-2.9-9.1-7.3-11.9l-89.3-55.3-2.8 1.2.6 26.8 70.7 43.8 1.7 71.6 27 16.7 1.5-.6zm-106.9 125.7-82.9-51.4-2-86.3 37.8-16.3-.7-29.7-58.7 25.3c-4.3 1.9-6.9 5.8-6.8 10.4l2.3 101.2c.1 4.6 2.9 9.1 7.3 11.8l97.2 60.3c4 2.5 8.8 3.1 12.9 1.9.4-.1.8-.3 1.2-.5l57.4-24.7-28.6-17.7z" fill="#d163ce"/><path d="m415.9 138.3-124.6-77.3c-4.6-2.8-10.1-3.6-14.8-2.1-.5.1-.9.3-1.4.5l-121.6 52.4c-4.9 2.1-7.9 6.6-7.8 11.9l3.1 129.6c.1 5.3 3.3 10.4 8.4 13.5l124.6 77.2c4.6 2.8 10.1 3.6 14.7 2.1.5-.1.9-.3 1.4-.5l121.6-52.4c4.9-2.1 7.9-6.7 7.8-11.9l-3-129.6c-.1-5.1-3.3-10.3-8.4-13.4zm-126.6 176.9-108.3-67.1-2.7-112.7 105.6-45.5 108.3 67.1 2.7 112.7z" fill="#e13eaf"/></svg>