<svg xmlns="http://www.w3.org/2000/svg" role="img" xmlns:xlink="http://www.w3.org/1999/xlink" viewBox="-5.40 145.10 930.80 662.80"><defs><linearGradient id="a" x1="205.61" x2="706.67" y1="491.18" y2="491.18" gradientUnits="userSpaceOnUse"><stop offset="0" stop-color="#48abf9"/><stop offset="1" stop-color="#0084fe"/></linearGradient><linearGradient id="c" x1="458.59" x2="627.21" y1="337.06" y2="337.06" xlink:href="#a"/><linearGradient id="d" x1="293.25" x2="421.63" y1="350.85" y2="350.85" xlink:href="#a"/><linearGradient id="b" x1="142.63" x2="430.46" y1="500.22" y2="500.22" gradientUnits="userSpaceOnUse"><stop offset="0" stop-color="#0054d4"/><stop offset="1" stop-color="#0069e7"/></linearGradient><linearGradient id="e" x1="427.78" x2="769.64" y1="421.29" y2="421.29" xlink:href="#b"/><linearGradient id="f" x1="466.91" x2="495.53" y1="620.24" y2="620.24" xlink:href="#a"/><linearGradient id="g" x1="466.91" x2="495.53" y1="690.71" y2="690.71" xlink:href="#a"/><linearGradient id="h" x1="466.91" x2="495.77" y1="761.19" y2="761.19" xlink:href="#a"/><linearGradient id="i" x1="516.93" x2="646.63" y1="761.31" y2="761.31" xlink:href="#a"/><linearGradient id="j" x1="667.79" x2="696.65" y1="761.31" y2="761.31" xlink:href="#a"/><linearGradient id="k" x1="574.8" x2="603.43" y1="615.33" y2="615.33" xlink:href="#a"/><linearGradient id="l" x1="574.8" x2="603.67" y1="678.51" y2="678.51" xlink:href="#a"/><linearGradient id="m" x1="762.18" x2="791.27" y1="678.63" y2="678.63" xlink:href="#a"/><linearGradient id="n" x1="805.86" x2="834.95" y1="678.51" y2="678.51" xlink:href="#a"/><linearGradient id="o" x1="715.28" x2="744.37" y1="678.63" y2="678.63" xlink:href="#a"/><linearGradient id="p" x1="668.38" x2="697.47" y1="678.63" y2="678.63" xlink:href="#a"/><linearGradient id="q" x1="621.47" x2="650.57" y1="678.63" y2="678.63" xlink:href="#a"/><linearGradient id="r" x1="709.41" x2="767.87" y1="761.31" y2="761.31" xlink:href="#a"/><linearGradient id="s" x1="849.41" x2="907.88" y1="678.63" y2="678.63" xlink:href="#a"/><linearGradient id="t" x1="375" x2="403.63" y1="280.85" y2="280.85" xlink:href="#a"/><linearGradient id="u" x1="375" x2="403.63" y1="236.62" y2="236.62" xlink:href="#a"/><linearGradient id="v" x1="374.76" x2="403.63" y1="192.38" y2="192.38" xlink:href="#a"/><linearGradient id="w" x1="223.91" x2="353.6" y1="192.26" y2="192.26" xlink:href="#a"/><linearGradient id="x" x1="262.34" x2="290.96" y1="328.22" y2="328.22" xlink:href="#a"/><linearGradient id="y" x1="262.1" x2="290.96" y1="284.6" y2="284.6" xlink:href="#a"/><linearGradient id="z" x1="85.97" x2="247.13" y1="284.48" y2="284.48" xlink:href="#a"/><linearGradient id="A" x1="149.42" x2="207.89" y1="192.26" y2="192.26" xlink:href="#a"/><linearGradient id="B" x1="12.9" x2="71.37" y1="284.48" y2="284.48" xlink:href="#a"/><linearGradient id="C" x1="487.64" x2="524.96" y1="444.79" y2="444.79" xlink:href="#a"/><linearGradient id="D" x1="487.64" x2="524.96" y1="486.72" y2="486.72" xlink:href="#a"/><linearGradient id="E" x1="534.59" x2="571.9" y1="486.72" y2="486.72" xlink:href="#a"/><linearGradient id="F" x1="441.14" x2="478.46" y1="444.79" y2="444.79" xlink:href="#a"/><linearGradient id="G" x1="441.14" x2="478.46" y1="486.72" y2="486.72" xlink:href="#a"/><linearGradient id="H" x1="394.73" x2="432.04" y1="444.79" y2="444.79" xlink:href="#a"/><linearGradient id="I" x1="394.73" x2="432.04" y1="486.72" y2="486.72" xlink:href="#a"/><linearGradient id="J" x1="350.07" x2="387.39" y1="486.72" y2="486.72" xlink:href="#a"/><linearGradient id="K" x1="487.64" x2="524.96" y1="402.86" y2="402.86" xlink:href="#a"/></defs><path fill="url(#a)" d="M635.75 434.78a13.05 13.05 0 0 0 0 26.1 44.9 44.9 0 0 1-.05 89.79H292a60.27 60.27 0 0 1-12.35-119.27 13.05 13.05 0 1 0-5.29-25.56A86.38 86.38 0 0 0 292 576.78h343.7a71 71 0 0 0 .08-142z"/><path fill="url(#c)" d="M467.38 343.58a13 13 0 0 0 16.62-8.06 60.19 60.19 0 1 1 108.78 50.1 13.05 13.05 0 1 0 22.49 13.25A86.28 86.28 0 1 0 459.31 327a13.05 13.05 0 0 0 8.07 16.6z"/><path fill="url(#d)" d="M306.12 392.48h.19a13 13 0 0 0 13-12.88 44.87 44.87 0 0 1 79.26-28.23 13 13 0 0 0 20-16.81 71 71 0 0 0-125.32 44.7 13.05 13.05 0 0 0 12.87 13.22z"/><path d="M211.53 364.65c.94-.6 1.9-1.2 2.86-1.79a19.92 19.92 0 0 0-2.86 1.79z"/><path fill="url(#b)" d="M292 600.6a110.18 110.18 0 0 1-59.09-203.19c.55-.31 1.07-.64 1.58-1a19.57 19.57 0 0 0 8.46-16.12 19.7 19.7 0 0 0-2.87-10.2 19.62 19.62 0 0 0-23.66-8.09 18.36 18.36 0 0 0-3.07 1.54l-1.82 1.15a150 150 0 0 0-68.9 125.75c0 82.33 67 149.33 149.34 149.33h118.92a19.57 19.57 0 0 0 19.57-19.56 19.57 19.57 0 0 0-19.57-19.57z"/><path d="M429.86 274.09l-1.29-3.27a18.53 18.53 0 0 0 1.29 3.27zm32.22 4.17L461 279.4c.37-.4.73-.74 1.08-1.14z"/><path fill="url(#e)" d="M687.68 382.32a148.65 148.65 0 0 0 2.5-27.12c0-82.35-67-149.34-149.33-149.34a149.25 149.25 0 0 0-107.57 45.85l-.3.32a19.57 19.57 0 0 0-4.41 18.79l1.29 3.27a19.6 19.6 0 0 0 27.08 8.33l1.58-1a20.12 20.12 0 0 0 2.47-2l1.09-1.14a109.63 109.63 0 0 1 77.6-33.28c60.89-.63 111.05 48.74 111.35 109.63A109.55 109.55 0 0 1 635.78 411a94.84 94.84 0 0 1 21.52 187.12 19.53 19.53 0 0 0-15.07 19 19.59 19.59 0 0 0 24.14 19c59.12-13.91 103.27-67.09 103.27-130.4a134.18 134.18 0 0 0-81.96-123.4z"/><path fill="url(#f)" d="M481.22 634.67a14.32 14.32 0 0 1-14.31-14.32v-.23a14.31 14.31 0 1 1 28.62 0v.23a14.31 14.31 0 0 1-14.31 14.32z"/><path fill="url(#g)" d="M481.22 728.79a14.31 14.31 0 0 1-14.31-14.31V714a14.31 14.31 0 1 1 28.62 0v.47a14.31 14.31 0 0 1-14.31 14.32zm0-47.06a14.31 14.31 0 0 1-14.31-14.31V667a14.31 14.31 0 1 1 28.62 0v.47a14.31 14.31 0 0 1-14.31 14.26z"/><path fill="url(#h)" d="M481.14 775.62a14.23 14.23 0 0 1-14.23-14.23A14.51 14.51 0 0 1 481 746.76a14.72 14.72 0 0 1 14.76 14.77 14.51 14.51 0 0 1-14.62 14.09z"/><path fill="url(#i)" d="M632.31 775.62h-.49a14.31 14.31 0 1 1 0-28.62h.49a14.31 14.31 0 1 1 0 28.62zm-50.28 0h-.5a14.31 14.31 0 1 1 0-28.62h.5a14.31 14.31 0 1 1 0 28.62zm-50.29 0h-.49a14.31 14.31 0 1 1 0-28.62h.49a14.31 14.31 0 1 1 0 28.62z"/><path fill="url(#j)" d="M682.34 775.62h-.24a14.31 14.31 0 1 1 0-28.62h.24a14.31 14.31 0 1 1 0 28.62z"/><path fill="url(#k)" d="M589.11 629.76a14.31 14.31 0 0 1-14.31-14.31v-.24a14.32 14.32 0 1 1 28.63 0v.24a14.32 14.32 0 0 1-14.32 14.31z"/><path fill="url(#l)" d="M589.06 692.94a14.25 14.25 0 0 1-14.26-14.25 14.51 14.51 0 0 1 14.08-14.61 14.72 14.72 0 0 1 14.78 14.79 14.49 14.49 0 0 1-14.6 14.07z"/><path fill="url(#m)" d="M777 692.94h-.47a14.31 14.31 0 1 1 0-28.62h.47a14.31 14.31 0 1 1 0 28.62z"/><path fill="url(#n)" d="M820.64 692.83h-.47a14.32 14.32 0 0 1 0-28.63h.47a14.32 14.32 0 0 1 0 28.63z"/><path fill="url(#o)" d="M730.05 692.94h-.46a14.31 14.31 0 0 1 0-28.62h.46a14.31 14.31 0 1 1 0 28.62z"/><path fill="url(#p)" d="M683.15 692.94h-.46a14.31 14.31 0 0 1 0-28.62h.46a14.31 14.31 0 1 1 0 28.62z"/><path fill="url(#q)" d="M636.25 692.94h-.46a14.31 14.31 0 1 1 0-28.62h.46a14.31 14.31 0 1 1 0 28.62z"/><path fill="url(#r)" d="M738.64 790.54a29.23 29.23 0 1 1 29.23-29.23 29.26 29.26 0 0 1-29.23 29.23zm0-42.24a13 13 0 1 0 13 13 13 13 0 0 0-13-13z"/><path fill="url(#s)" d="M878.65 707.86a29.23 29.23 0 1 1 29.23-29.23 29.27 29.27 0 0 1-29.23 29.23zm0-42.24a13 13 0 1 0 13 13 13 13 0 0 0-13-13z"/><path fill="url(#t)" d="M389.31 295.28A14.31 14.31 0 0 1 375 281v-.24a14.32 14.32 0 0 1 28.63 0v.24a14.32 14.32 0 0 1-14.32 14.28z"/><path fill="url(#u)" d="M389.31 251.15A14.32 14.32 0 0 1 375 236.83v-.43a14.32 14.32 0 1 1 28.63 0v.43a14.32 14.32 0 0 1-14.32 14.32z"/><path fill="url(#v)" d="M389.55 206.81A14.72 14.72 0 0 1 374.76 192a14.51 14.51 0 0 1 14.61-14 14.26 14.26 0 0 1 14.26 14.26 14.51 14.51 0 0 1-14.08 14.55z"/><path fill="url(#w)" d="M339.29 206.57h-.5a14.31 14.31 0 1 1 0-28.62h.5a14.31 14.31 0 1 1 0 28.62zm-50.29 0h-.49a14.31 14.31 0 1 1 0-28.62h.49a14.31 14.31 0 1 1 0 28.62zm-50.28 0h-.5a14.31 14.31 0 0 1 0-28.62h.5a14.31 14.31 0 1 1 0 28.62z"/><path fill="url(#x)" d="M276.65 342.66a14.31 14.31 0 0 1-14.31-14.32v-.24a14.31 14.31 0 0 1 28.62 0v.24a14.32 14.32 0 0 1-14.31 14.32z"/><path fill="url(#y)" d="M276.88 299a14.72 14.72 0 0 1-14.78-14.78 14.51 14.51 0 0 1 14.6-14.08 14.25 14.25 0 0 1 14.3 14.29A14.49 14.49 0 0 1 276.88 299z"/><path fill="url(#z)" d="M232.81 298.8h-.43a14.32 14.32 0 1 1 0-28.63h.43a14.32 14.32 0 1 1 0 28.63zm-44 0h-.43a14.32 14.32 0 1 1 0-28.63h.43a14.32 14.32 0 1 1 0 28.63zm-44 0h-.44a14.32 14.32 0 0 1 0-28.63h.44a14.32 14.32 0 0 1 0 28.63zm-44 0h-.44a14.32 14.32 0 0 1 0-28.63h.44a14.32 14.32 0 0 1 0 28.63z"/><path fill="url(#A)" d="M178.65 221.49a29.23 29.23 0 1 1 29.24-29.23 29.26 29.26 0 0 1-29.24 29.23zm0-42.24a13 13 0 1 0 13 13 13 13 0 0 0-13-13z"/><path fill="url(#B)" d="M42.13 313.72a29.24 29.24 0 1 1 29.24-29.24 29.27 29.27 0 0 1-29.24 29.24zm0-42.25a13 13 0 1 0 13 13 13 13 0 0 0-13-13z"/><path fill="url(#C)" d="M487.64 428.51h37.32v32.57h-37.32z"/><path fill="url(#D)" d="M487.64 470.44h37.32v32.57h-37.32z"/><path fill="url(#E)" d="M534.59 470.44h37.32v32.57h-37.32z"/><path fill="url(#F)" d="M441.14 428.51h37.32v32.57h-37.32z"/><path fill="url(#G)" d="M441.14 470.44h37.32v32.57h-37.32z"/><path fill="url(#H)" d="M394.73 428.51h37.32v32.57h-37.32z"/><path fill="url(#I)" d="M394.73 470.44h37.32v32.57h-37.32z"/><path fill="url(#J)" d="M350.07 470.44h37.32v32.57h-37.32z"/><path fill="url(#K)" d="M487.64 386.58h37.32v32.57h-37.32z"/></svg>