<svg id="svg1040" xmlns="http://www.w3.org/2000/svg" xmlns:xlink="http://www.w3.org/1999/xlink" viewBox="0 0 708.661 708.661"><defs><style>.cls-1{fill:url(#linear-gradient)}.cls-2{fill:url(#linear-gradient-2)}.cls-14,.cls-3,.cls-4,.cls-5,.cls-7{opacity:.8}.cls-10,.cls-11,.cls-13,.cls-14,.cls-3,.cls-4,.cls-5,.cls-7,.cls-8,.cls-9{isolation:isolate}.cls-3{fill:url(#linear-gradient-3)}.cls-4{fill:url(#linear-gradient-4)}.cls-5{fill:url(#linear-gradient-5)}.cls-6{fill:url(#linear-gradient-6)}.cls-7{fill:url(#linear-gradient-7)}.cls-10,.cls-11,.cls-13,.cls-8,.cls-9{opacity:.3}.cls-8{fill:url(#linear-gradient-8)}.cls-9{fill:url(#linear-gradient-9)}.cls-10{fill:url(#linear-gradient-10)}.cls-11{fill:url(#linear-gradient-11)}.cls-12{fill:url(#linear-gradient-12)}.cls-13{fill:url(#linear-gradient-13)}.cls-14{fill:url(#linear-gradient-14)}.cls-15{fill:url(#linear-gradient-15)}.cls-16{fill:url(#linear-gradient-16)}.cls-17{fill:#fff}</style><linearGradient id="linear-gradient" x1="199.867" y1="531.21" x2="23.452" y2="595.42" gradientTransform="rotate(15.384 6283.617 1090.172) scale(3.53707)" gradientUnits="userSpaceOnUse"><stop offset=".299" stop-color="#0097ce"/><stop offset=".379" stop-color="#0999c5"/><stop offset=".512" stop-color="#229dad"/><stop offset=".647" stop-color="#42a38f"/><stop offset=".735" stop-color="#5dad82"/><stop offset=".924" stop-color="#a1c661"/><stop offset="1" stop-color="#bed153"/></linearGradient><linearGradient id="linear-gradient-2" x1="-2.307" y1="536.366" x2="185.483" y2="536.366" gradientTransform="rotate(15.384 6283.617 1090.172) scale(3.53707)" gradientUnits="userSpaceOnUse"><stop offset=".082" stop-color="#3d65af"/><stop offset=".231" stop-color="#2372b8"/><stop offset=".506" stop-color="#00b8bb"/></linearGradient><linearGradient id="linear-gradient-3" x1="-2.384" y1="515.501" x2="99.626" y2="515.501" gradientTransform="rotate(15.384 6283.617 1090.172) scale(3.53707)" gradientUnits="userSpaceOnUse"><stop offset=".13"/><stop offset=".328" stop-color="#00334b"/><stop offset=".528" stop-color="#006190"/><stop offset=".672" stop-color="#007fbb"/><stop offset=".746" stop-color="#008acc"/></linearGradient><linearGradient id="linear-gradient-4" x1="-2.384" y1="511.907" x2="99.626" y2="511.907" xlink:href="#linear-gradient-3"/><linearGradient id="linear-gradient-5" x1="-2.384" y1="512.305" x2="99.626" y2="512.305" xlink:href="#linear-gradient-3"/><linearGradient id="linear-gradient-6" x1="12.911" y1="532.486" x2="99.546" y2="532.486" gradientTransform="rotate(15.384 6283.617 1090.172) scale(3.53707)" gradientUnits="userSpaceOnUse"><stop offset=".13" stop-color="#2483c5"/><stop offset=".167" stop-color="#2486c7"/><stop offset=".676" stop-color="#29b1df"/><stop offset=".935" stop-color="#2bc2e8"/></linearGradient><linearGradient id="linear-gradient-7" x1="-2.384" y1="520.223" x2="99.626" y2="520.223" xlink:href="#linear-gradient-3"/><linearGradient id="linear-gradient-8" x1="-2.089" y1="516.066" x2="-2.089" y2="516.066" gradientTransform="rotate(15.384 6283.617 1090.172) scale(3.53707)" gradientUnits="userSpaceOnUse"><stop offset="0" stop-color="#682c90"/><stop offset=".496" stop-color="#817cb9"/><stop offset="1" stop-color="#fff"/></linearGradient><linearGradient id="linear-gradient-9" x1="84.381" y1="511.652" x2="32.712" y2="511.652" xlink:href="#linear-gradient-8"/><linearGradient id="linear-gradient-10" x1="84.381" y1="517.77" x2="32.712" y2="517.77" xlink:href="#linear-gradient-8"/><linearGradient id="linear-gradient-11" x1="84.381" y1="512.603" x2="32.712" y2="512.603" xlink:href="#linear-gradient-8"/><linearGradient id="linear-gradient-12" x1=".809" y1="550.397" x2="83.562" y2="550.397" gradientTransform="rotate(15.384 6283.617 1090.172) scale(3.53707)" gradientUnits="userSpaceOnUse"><stop offset=".13" stop-color="#3b67ad"/><stop offset=".57" stop-color="#227caa"/><stop offset=".935" stop-color="#118aa8"/></linearGradient><linearGradient id="linear-gradient-13" x1="84.381" y1="512.109" x2="32.712" y2="512.109" xlink:href="#linear-gradient-8"/><linearGradient id="linear-gradient-14" x1="-2.388" y1="532.058" x2="99.622" y2="532.058" xlink:href="#linear-gradient-3"/><linearGradient id="linear-gradient-15" x1="-2.388" y1="532.058" x2="80.61" y2="532.058" gradientTransform="rotate(15.384 6283.617 1090.172) scale(3.53707)" gradientUnits="userSpaceOnUse"><stop offset=".13" stop-color="#3a67b0"/><stop offset=".562" stop-color="#357fbd"/><stop offset=".935" stop-color="#3290c6"/></linearGradient><linearGradient id="linear-gradient-16" x1="99.664" y1="520.442" x2="185.508" y2="520.442" gradientTransform="rotate(15.384 6283.617 1090.172) scale(3.53707)" gradientUnits="userSpaceOnUse"><stop offset=".172" stop-color="#4e5ca8"/><stop offset=".994" stop-color="#1fc3f3"/></linearGradient></defs><g id="layer1"><g id="g5463"><g id="g5461"><path id="path5273" class="cls-1" d="M683.828 220.611c-15.209-2.122-48.81-2.83-115.304 10.965a92.7 92.7 0 0 1-24.052 2.476c-8.488-.708-17.684-3.184-25.82-5.66-36.43-12.379-66.494-8.488-84.179.708-9.903 5.305-17.684 12.026-26.173 23.344-10.965 14.855-33.955 60.128-65.434 72.154-17.685 11.318-36.784 22.99-53.408 39.614-10.61 10.964-13.44 36.784-41.382 61.896-31.125 45.273-66.849 78.167-103.28 102.218-52.7 36.784-96.912 48.103-96.912 48.103s117.074 32.186 245.465-27.942c97.62-45.98 148.198-135.466 159.87-155.272l63.665-108.231c5.66-9.904 15.917-22.637 25.466-27.588 3.183-1.769 6.013-2.83 6.72-3.537 7.074-3.537 14.502-6.367 21.93-9.196 44.565-15.917 90.9-17.331 112.475-19.807 2.83-.708 2.475-3.891.353-4.245z"/><path id="path5283" class="cls-2" d="M683.828 220.611c-15.209-2.122-48.81-2.83-115.304 10.965a92.7 92.7 0 0 1-24.052 2.476c-8.488-.708-17.684-3.184-25.82-5.66-37.491-12.379-66.14-9.195-84.179.708-9.903 5.305-17.684 12.026-26.173 23.344-10.965 14.855-33.955 60.128-65.434 72.154-35.37-33.248-66.494-61.19-96.559-85.948-16.977-13.44-33.6-26.174-47.748-35.37-36.077-24.758-72.508-47.041-108.939-64.372-16.27-7.428-33.247-14.148-51.993-21.222-8.135-2.476-12.733 1.415-14.148 7.781-.707 2.122-1.414 7.782 2.123 17.685 8.135 21.93 20.16 47.042 34.662 72.508 5.305 9.55 11.318 19.453 17.685 29.356 29.356 45.98 66.14 92.315 103.632 128.745 8.135 7.782 15.916 14.856 24.405 21.576a352.048 352.048 0 0 0 31.833 23.697c1.06.708 6.366 3.89 9.903 6.013 7.074 3.89 16.624 8.489 22.637 10.965 29.71 13.086 55.53 16.977 78.166 16.623 39.26 1.061 71.093-11.318 86.656-32.186a284.238 284.238 0 0 0 18.038-27.588l63.665-108.23c5.66-9.904 15.917-22.637 25.466-27.59 3.184-1.768 6.013-2.829 6.72-3.536 6.72-3.183 6.72-2.122 13.795-4.952 45.273-15.916 99.388-21.575 120.963-24.051a1.96 1.96 0 0 0 0-3.89z"/><path id="path5297" class="cls-3" d="M22.772 129.358c0-1.061.354-2.122 0-2.83a3.874 3.874 0 0 1 0 2.83z"/><path id="path5311" class="cls-4" d="M52.482 122.638a3.189 3.189 0 0 0-1.768-.354c1.061.354 2.122 1.061 3.183 1.415 0-.354-.707-.708-1.415-1.061z"/><path id="path5325" class="cls-5" d="M63.447 127.236c-.354 0-1.061-.354-1.415-.354 1.061.354 2.122 1.061 2.83 1.061-.708-.354-1.061-.707-1.415-.707z"/><path id="path5337" class="cls-6" d="M271.066 330.964c25.112 3.183 49.517 1.415 71.447-7.074a2239.194 2239.194 0 0 0-60.129-54.115c-9.55-8.135-18.746-16.27-27.588-23.698-.354-.353-1.061-.707-1.061-1.06a601.046 601.046 0 0 0-6.72-5.66c-.708-.354-1.061-1.06-1.415-1.06-16.977-13.441-33.601-25.82-47.041-35.37-36.077-24.405-72.154-47.042-108.585-64.373-3.183-1.768-6.366-2.83-9.903-4.598-1.061-.354-2.122-1.061-2.83-1.061 140.77 76.044 185.69 145.015 193.825 198.07z"/><path id="path5351" class="cls-7" d="M28.078 149.872c-1.062-2.122-1.769-4.598-2.83-7.074 1.061 2.123 1.768 4.598 2.83 7.074z"/><path id="path5375" class="cls-8" d="M22.772 130.419c0-.354 0-.354.354-.707 0 .353 0 .353-.354.707z"/><path id="path5385" class="cls-9" d="M37.981 117.332c4.598 1.769 8.842 3.184 13.087 4.952-4.598-1.768-8.843-3.537-13.087-4.952z"/><path id="path5395" class="cls-10" d="M22.772 130.419a41.64 41.64 0 0 0 2.476 12.38 41.64 41.64 0 0 1-2.476-12.38z"/><path id="path5405" class="cls-11" d="M75.119 132.188l2.122 1.06c-3.89-1.768-8.135-3.536-12.38-5.305 1.416.708 2.477 1.061 3.891 1.769a47.236 47.236 0 0 1 6.367 2.476z"/><path id="path5415" class="cls-12" d="M116.855 256.688C79.01 226.27 43.286 183.827 28.078 150.226c35.369 89.485 127.33 216.461 209.387 268.808 1.415 1.061 6.367 3.891 10.257 6.013 10.611-16.27 30.064-49.87 23.344-94.083-50.578-6.72-105.047-34.308-154.211-74.276z"/><path id="path5425" class="cls-13" d="M62.032 126.882l-7.427-3.183c.353 0 .707.354 1.06.354 1.77.707 3.891 1.768 6.367 2.83z"/><path id="path5439" class="cls-14" d="M116.855 256.688c49.164 39.968 103.633 67.202 154.211 73.923-8.135-52.701-53.054-122.025-193.825-197.362a11.775 11.775 0 0 1-2.122-1.061c-2.122-1.062-4.244-1.769-6.013-2.83-1.415-.707-2.476-1.061-3.89-1.769-1.062-.353-2.123-1.06-2.83-1.06a37.712 37.712 0 0 0-6.72-2.476c-.354 0-.708-.354-1.061-.354-1.061-.354-2.123-1.061-3.184-1.415-4.244-1.415-8.488-3.537-13.086-4.952-8.135-2.476-12.733 1.415-14.502 7.428a12.507 12.507 0 0 0-.354 2.122c-.353.707 0 1.769 0 2.83 0 .353 0 .353-.353.707a41.64 41.64 0 0 0 2.476 12.38 63.767 63.767 0 0 0 2.83 7.427c14.854 33.601 50.931 76.044 88.423 106.462z"/><path id="path5449" class="cls-15" d="M116.855 256.688c49.164 39.968 103.633 67.202 154.211 73.923-8.135-52.701-53.054-122.025-193.825-197.362a11.775 11.775 0 0 1-2.122-1.061c-2.122-1.062-4.244-1.769-6.013-2.83-1.415-.707-2.476-1.061-3.89-1.769-1.062-.353-2.123-1.06-2.83-1.06a37.712 37.712 0 0 0-6.72-2.476c-.354 0-.708-.354-1.061-.354-1.061-.354-2.123-1.061-3.184-1.415-4.244-1.415-8.488-3.537-13.086-4.952-8.135-2.476-12.733 1.415-14.502 7.428a12.507 12.507 0 0 0-.354 2.122c-.353.707 0 1.769 0 2.83 0 .353 0 .353-.353.707a41.64 41.64 0 0 0 2.476 12.38 63.767 63.767 0 0 0 2.83 7.427c14.854 33.601 50.931 76.044 88.423 106.462z"/><path id="path5457" class="cls-16" d="M683.828 220.611c-15.209-2.122-48.81-2.83-115.304 10.965a92.7 92.7 0 0 1-24.052 2.476c-8.488-.708-17.684-3.184-25.82-5.66-21.221-7.073-39.26-9.195-53.76-8.134a71.604 71.604 0 0 0-35.017 12.025 76.832 76.832 0 0 0-21.221 20.515c-10.965 14.855-33.955 60.128-65.434 72.153 24.759 23.344 62.958 42.797 98.68 31.126 34.31-11.319 55.531-41.736 62.251-51.64 14.148-20.868 21.93-28.65 22.637-29.71 1.768-1.769 14.855-16.978 42.09-26.174 40.32-13.44 101.156-21.575 115.658-22.99 1.768-1.415 1.415-4.598-.708-4.952z"/><circle id="circle5459" class="cls-17" cx="485.97" cy="259.243" r="10.611"/></g></g></g></svg>