<svg viewBox="1.05 -1.95 359.41 361.66" xmlns="http://www.w3.org/2000/svg" xmlns:xlink="http://www.w3.org/1999/xlink"><linearGradient id="a" gradientTransform="matrix(30.43 0 0 -30.43 -7955.22 29285.75)" gradientUnits="userSpaceOnUse" x1="264.79" x2="267.27" y1="952.39" y2="952.39"><stop offset="0" stop-color="#60b932"/><stop offset=".28" stop-color="#60b932"/><stop offset="1" stop-color="#367c34"/></linearGradient><linearGradient id="b" gradientTransform="matrix(27.21 0 0 -27.21 -7073.85 26169.41)" x1="263.77" x2="266.26" xlink:href="#a" y1="955.65" y2="955.65"/><linearGradient id="c" gradientTransform="matrix(25.75 0 0 -25.75 -6671.13 24812.23)" x1="263.28" x2="265.76" xlink:href="#a" y1="953.74" y2="953.74"/><linearGradient id="d" gradientTransform="matrix(27.1 0 0 -27.1 -7040.9 26102.49)" x1="263.77" x2="266.25" xlink:href="#a" y1="953.2" y2="953.2"/><linearGradient id="e" gradientTransform="matrix(24.4 0 0 -24.4 -6301.36 23521.97)" x1="262.73" x2="265.21" xlink:href="#a" y1="954.34" y2="954.34"/><linearGradient id="f" gradientTransform="matrix(53.11317426 -39.33038037 -39.33038037 -53.11317426 23289.471488 61578.316851)" gradientUnits="userSpaceOnUse" x1="272.14" x2="274.62" y1="955.15" y2="955.15"><stop offset="0" stop-color="#4596d8"/><stop offset=".2" stop-color="#4596d8"/><stop offset="1" stop-color="#fff"/></linearGradient><linearGradient id="g" gradientTransform="matrix(76.22729484 15.56404578 15.56404578 -76.22729484 -35281.328975 68559.435483)" gradientUnits="userSpaceOnUse" x1="270.65" x2="273.13" y1="952.38" y2="952.38"><stop offset="0" stop-color="#4194d7"/><stop offset=".2" stop-color="#4194d7"/><stop offset="1" stop-color="#fff"/></linearGradient><linearGradient id="h" gradientTransform="matrix(70.21573133 -12.67176283 -12.67176283 -70.21573133 -6770.704376 70570.107505)" gradientUnits="userSpaceOnUse" x1="270.97" x2="273.45" y1="953.75" y2="953.75"><stop offset="0" stop-color="#4194d7"/><stop offset=".33" stop-color="#4496d8"/><stop offset="1" stop-color="#fff"/></linearGradient><clipPath id="i"><path d="m174.4 302.52-68.65-30.26-3.83 43.21 75.5 23.98z"/></clipPath><clipPath id="j"><path d="m119.19 135.38h38.55v32.89h-9.15v-14a10.13 10.13 0 1 0 -20.26 0v14h-9.15zm-7.7 72 57.2 25.21-3.94-48.24h7.49v-16.08h-5.55v-32.89h5.55v-9.45l-30.86-30.19v-2.12a2.91 2.91 0 0 0 -5.82 0v2.12l-30.86 30.19v9.45h5.56v32.89h-5.56v16.12h8.82z"/></clipPath><clipPath id="k"><path d="m108.14 245.28 63.88 28.16-.96-11.73-61.96-27.3z"/></clipPath><clipPath id="l"><path d="m106.46 264.21 67.23 29.63-.96-11.72-65.31-28.78z"/></clipPath><clipPath id="m"><path d="m110.77 215.48-.96 10.87 60.54 26.68-.95-11.72z"/></clipPath><clipPath id="n"><path d="m313.13 67.59a175.31 175.31 0 0 0 -29.75-28.13c-1.57-1.17-3.18-2.3-4.79-3.42l-22.59 23.46-82.34 85.63 113.41-58.68 29.07-15c-1.01-1.31-1.98-2.62-3.01-3.86z"/></clipPath><clipPath id="o"><path d="m353.59 177.61c0-2-.14-4-.22-5.93l-32.21-2.31-147.47-10.58 144.67 50.21 30.41 10.55c.09-.36.19-.71.28-1.08a173.65 173.65 0 0 0 4.57-39.47v-1.37z"/></clipPath><clipPath id="p"><path d="m348.84 138.61a172.55 172.55 0 0 0 -13.84-37.7l-30.94 9.94-128.14 41.15 142-4.83 32.5-1.11c-.5-2.48-.99-4.98-1.58-7.45z"/></clipPath><path d="m30.89 179a148.87 148.87 0 1 1 148.87 148.85 148.87 148.87 0 0 1 -148.87-148.85" fill="#fff"/><g clip-path="url(#i)"><path d="m174.4 302.52-68.65-30.25-3.82 43.2 75.5 24-3-36.93" fill="url(#a)"/></g><g clip-path="url(#j)"><path d="m119.19 135.38h38.55v32.89h-9.15v-14a10.13 10.13 0 1 0 -20.26 0v14h-9.15zm-7.7 72 57.2 25.21-3.94-48.24h7.49v-16.08h-5.55v-32.89h5.55v-9.45l-30.86-30.19v-2.12a2.91 2.91 0 0 0 -5.82 0v2.12l-30.86 30.19v9.45h5.56v32.89h-5.56v16.12h8.82l-2 23" fill="url(#b)"/></g><g clip-path="url(#k)"><path d="m108.13 245.28 63.87 28.16-1-11.72-62-27.31-1 10.87" fill="url(#c)"/></g><g clip-path="url(#l)"><path d="m106.46 264.21 67.23 29.63-1-11.72-65.31-28.78-1 10.87" fill="url(#d)"/></g><g clip-path="url(#m)"><path d="m110.77 215.48-1 10.88 60.58 26.64-1-11.72-58.62-25.83" fill="url(#e)"/></g><g fill="#696566"><path d="m304.07 110.85 30.93-9.94c-.11-.22-.21-.45-.32-.66a174.41 174.41 0 0 0 -18.55-28.83l-29.07 15a142.71 142.71 0 0 1 16.73 23.87c.1.17.18.35.27.53"/><path d="m321.15 169.37 32.21 2.31a172.86 172.86 0 0 0 -3-25.59l-32.5 1.11a141 141 0 0 1 3.25 22.17"/><path d="m182 320.81c-78.2 0-141.83-63.62-141.83-141.82s63.65-141.83 141.83-141.83a140.93 140.93 0 0 1 76.3 22.34l22.55-23.5a172.86 172.86 0 0 0 -98.85-30.89c-95.85 0-173.85 78-173.85 173.89s78 173.85 173.85 173.85c81.9 0 150.69-57 169-133.32l-30.38-10.53c-13.8 63.84-70.69 111.83-138.6 111.83"/></g><g clip-path="url(#n)"><path d="m313.13 67.59a175.31 175.31 0 0 0 -29.75-28.13c-1.57-1.17-3.18-2.3-4.79-3.42l-22.59 23.46-82.34 85.63 113.41-58.68 29.07-15c-1-1.27-2-2.58-3-3.82" fill="url(#f)"/></g><g clip-path="url(#o)"><path d="m353.59 177.61c0-2-.14-4-.22-5.93l-32.21-2.31-147.47-10.58 144.67 50.21 30.41 10.55c.09-.36.19-.71.28-1.08a173.65 173.65 0 0 0 4.57-39.47v-1.37" fill="url(#g)"/></g><g clip-path="url(#p)"><path d="m348.84 138.61a172.55 172.55 0 0 0 -13.84-37.7l-30.94 9.94-128.14 41.15 142-4.83 32.5-1.11c-.48-2.51-1-5-1.56-7.48" fill="url(#h)"/></g></svg>