<svg id="svg192014" xmlns="http://www.w3.org/2000/svg" xmlns:xlink="http://www.w3.org/1999/xlink" viewBox="0 0 500 500"><defs><style>.cls-1{fill:#41a500}.cls-2{fill:#fff}.cls-3{stroke:#61bd00;fill:url(#radial-gradient)}.cls-3,.cls-7{stroke-miterlimit:4.26667;stroke-width:2.51121px}.cls-3,.cls-4,.cls-6{fill-rule:evenodd}.cls-4{fill:#0e232e}.cls-5,.cls-7,.cls-8{fill:none}.cls-5{stroke-miterlimit:11.81197;stroke-width:2.51121px;stroke:url(#linear-gradient)}.cls-6{opacity:.984;isolation:isolate;fill:url(#radial-gradient-2)}.cls-7{stroke:url(#linear-gradient-2)}.cls-8{stroke:#327e00;stroke-miterlimit:4.26667;stroke-width:2.51121px}</style><radialGradient id="radial-gradient" cx="-966.62" cy="1687.562" r="83.256" gradientTransform="matrix(2.21433 -.04275 -.03932 -2.03669 2456.588 3629.838)" gradientUnits="userSpaceOnUse"><stop offset="0" stop-color="#4cfd00"/><stop offset="1" stop-color="#5bd900"/></radialGradient><linearGradient id="linear-gradient" x1="-1309.937" y1="-376.53" x2="-1248.147" y2="-157.271" gradientTransform="rotate(-1.106 58831.273 -210874.384) scale(2.95299)" gradientUnits="userSpaceOnUse"><stop offset="0" stop-color="#fff" stop-opacity=".52"/><stop offset="1" stop-color="#fff" stop-opacity=".087"/></linearGradient><radialGradient id="radial-gradient-2" cx="-1291.749" cy="-304.62" r="56.33" gradientTransform="matrix(2.95244 -.057 .05224 2.70562 4079.563 985.956)" gradientUnits="userSpaceOnUse"><stop offset="0" stop-color="#fff"/><stop offset="1" stop-color="#fff" stop-opacity="0"/></radialGradient><linearGradient id="linear-gradient-2" x1="-1874.289" y1="-1039.084" x2="-1812.469" y2="-819.718" gradientTransform="scale(3.80469 -3.80469) rotate(1.106 5546.007 84492.234)" xlink:href="#linear-gradient"/></defs><g id="layer1"><g id="g6271"><g id="g6159"><path id="circle1456" class="cls-1" d="M487.148 244.325c2.528 130.92-101.555 239.1-232.475 241.628S15.573 384.398 13.045 253.48 114.6 14.379 245.52 11.85s239.1 101.555 241.628 232.475z"/><path id="circle1458" class="cls-2" d="M457.046 244.906c2.207 114.295-88.659 208.738-202.954 210.945S45.354 367.193 43.147 252.897 131.806 44.16 246.1 41.952c114.295-2.207 208.738 88.659 210.945 202.954z"/><path id="path1460" class="cls-3" d="M252.143 64.445c-2.296.046-4.41.085-6.248.178-14.703.645-45.863 2.796-48.296 22.131s20.166 67.077 30.406 82.652c10.24 15.576 31.24 15.948 40.886-.789 9.646-16.736 30.675-67.143 27.328-85.926-2.928-16.435-28.003-18.435-44.076-18.247zm-96.378 31.436c-14.315.116-30.866 16.872-38.944 25.69-9.94 10.852-30.457 34.41-18.506 49.803 11.952 15.392 61.699 33.165 79.953 36.938 18.255 3.772 33.365-10.812 28.351-29.467-5.013-18.656-25.79-69.172-41.439-80.087a15.836 15.836 0 0 0-9.415-2.876zm181.246-2.34a16.99 16.99 0 0 0-9.383 3.584c-15.392 11.952-33.166 61.69-36.938 79.945s10.812 33.365 29.467 28.351c18.655-5.014 69.172-25.783 80.087-41.43 10.915-15.649-11.96-38.418-22.813-48.36-8.817-8.077-26.022-23.137-40.42-22.09zM87.757 202.421a24.839 24.839 0 0 0-3.875.35c-18.783 3.348-18.712 35.63-18.067 50.334.645 14.703 2.804 45.863 22.139 48.296s67.068-20.174 82.643-30.415c15.576-10.24 15.948-31.231-.789-40.878-15.69-9.043-60.975-28.1-82.051-27.688zm320.545-6.188c-21.233.518-64.106 20.982-78.708 30.582-15.575 10.24-15.947 31.24.79 40.886 16.736 9.646 67.143 30.675 85.925 27.328 18.783-3.347 18.712-35.62 18.068-50.324s-2.797-45.872-22.131-48.304a27.179 27.179 0 0 0-3.944-.171zm-93.036 92.681c-15.053.52-26.073 13.721-21.686 30.044 5.014 18.655 25.783 69.172 41.431 80.087 15.648 10.915 38.418-11.96 48.359-22.812 9.941-10.853 30.457-34.412 18.506-49.804-11.951-15.392-61.69-33.165-79.945-36.937a28.147 28.147 0 0 0-6.665-.578zm-128.453 2.48a28.359 28.359 0 0 0-6.779.971c-18.655 5.014-69.172 25.783-80.087 41.431s11.961 38.426 22.813 48.367 34.411 30.45 49.803 18.498c15.392-11.951 33.166-61.69 36.938-79.945 3.301-15.972-7.45-29.539-22.688-29.322z"/><path id="path1462" class="cls-4" d="M249.125 198.677c-.846.015-1.688.03-2.527.118-.816.076-1.628.134-2.432.23-.772.09-1.535.202-2.296.331-.061.002-.11.002-.163.005-.81.136-1.611.288-2.407.465a49.856 49.856 0 0 0-11.541 4.067c-.703.346-1.397.713-2.08 1.094-.038 0-.068.06-.108.06q-.946.535-1.865 1.104c-.09.06-.18.106-.27.16-.627.396-1.242.804-1.85 1.225a1.652 1.652 0 0 1-.182.124c-.562.389-1.112.798-1.657 1.212-.115.088-.234.17-.348.26-.479.37-.946.753-1.41 1.14-.172.141-.347.281-.517.423-.372.317-.732.65-1.095.98-.25.228-.505.445-.751.678-.003.006-.015 0-.015 0q-.875.826-1.715 1.697a51.218 51.218 0 0 0-1.641 1.796c-.237.268-.46.548-.69.824-.3.356-.602.71-.891 1.076-.13.163-.253.338-.382.5-.388.508-.772 1.011-1.142 1.531q-.699.98-1.348 1.997c-.077.122-.148.244-.224.365-.37.587-.733 1.181-1.079 1.785a49.893 49.893 0 0 0-6.222 18.495h-.002q-.155 1.208-.252 2.433c-.061.809-.11 1.62-.133 2.44a46.692 46.692 0 0 0-.016 2.528 50.236 50.236 0 0 0 29.554 44.822c.023 1.235-.014 2.459-.022 3.689-.49 18.66-6.75 47.802-12.906 72.435-4.239 14.894-8.75 29.76-12.238 44.843a23.433 23.433 0 0 0-.401 2.911c-.341 3.38.491 4.637 5.695 5.38q2.243.551 4.666 1.037a177.53 177.53 0 0 0 32.306 3.043h.496c1.42.032 2.838 0 4.26-.02.757-.021 1.512-.023 2.271-.046.761-.02 1.517-.023 2.277-.045 1.421-.023 2.837-.114 4.256-.151h.496a177.388 177.388 0 0 0 32.164-4.29q2.4-.57 4.623-1.214c5.171-.945 5.955-2.233 5.484-5.597a23.39 23.39 0 0 0-.514-2.893c-4.068-14.937-9.149-29.619-13.96-44.337-7.102-24.378-14.483-53.256-15.692-71.884-.053-1.228-.14-2.45-.163-3.685a50.237 50.237 0 0 0 27.802-45.929 52.28 52.28 0 0 0-.344-4.959q-.144-1.22-.345-2.421h-.002a49.892 49.892 0 0 0-6.931-18.242c-.37-.589-.754-1.17-1.147-1.742-.08-.119-.156-.238-.238-.357q-.69-.988-1.424-1.942c-.39-.503-.792-.996-1.2-1.486-.135-.163-.264-.327-.4-.485-.303-.356-.62-.696-.932-1.041-.24-.265-.476-.535-.722-.797a50.463 50.463 0 0 0-1.71-1.732 50.089 50.089 0 0 0-1.795-1.64c-.254-.22-.519-.432-.778-.65-.375-.314-.747-.633-1.13-.936-.176-.14-.357-.268-.534-.402-.479-.37-.96-.735-1.453-1.086-.118-.084-.24-.161-.358-.245a52.907 52.907 0 0 0-1.702-1.148.678.678 0 0 0-.187-.11 52.07 52.07 0 0 0-1.896-1.152c-.09-.061-.185-.1-.276-.15a49.83 49.83 0 0 0-1.906-1.03c-.038 0-.077-.061-.11-.061q-1.046-.53-2.12-1.013a49.863 49.863 0 0 0-11.69-3.619 46.99 46.99 0 0 0-2.423-.372c-.06 0-.11.002-.164.004a50.001 50.001 0 0 0-2.306-.242 50.772 50.772 0 0 0-2.44-.136c-.84-.046-1.683-.03-2.533-.015z"/><path id="path1468" class="cls-5" d="M346.99 397.12a11.694 11.694 0 0 1-9.379-1.813c-5.896-4.113-15.542-19.277-23.2-35.356-7.658-16.08-14.066-33.374-16.431-42.175-1.866-6.942-.459-12.736 2.786-17.026a18.85 18.85 0 0 1 14.658-7.296 25.135 25.135 0 0 1 5.588.497c8.543 1.766 25.535 7.126 41.482 13.852 15.948 6.726 31.161 15.463 35.78 21.413a12.71 12.71 0 0 1 2.617 9.561 33.21 33.21 0 0 1-4.08 12.11c-4.507 8.48-11.873 16.905-16.788 22.27-7.315 7.986-22.225 22.087-33.034 23.963zm-186.78 2.553c-10.972-.96-26.332-13.495-34.38-20.868-5.325-4.877-13.52-12.901-18.815-21.146a33.984 33.984 0 0 1-5.147-11.876 11.683 11.683 0 0 1 1.813-9.378c4.112-5.897 19.284-15.54 35.367-23.2 16.082-7.66 33.374-14.088 42.174-16.453a23.401 23.401 0 0 1 5.675-.816c12.492-.167 20.95 10.315 18.15 23.859-1.765 8.542-7.123 25.543-13.852 41.494-6.728 15.95-15.473 31.161-21.423 35.78a12.701 12.701 0 0 1-9.562 2.605zm-71.677-102.79a12.714 12.714 0 0 1-8.609-4.92 33.174 33.174 0 0 1-5.688-11.44c-2.808-9.182-3.553-20.349-3.871-27.619-.316-7.214-.435-18.685 1.65-28.263a34.024 34.024 0 0 1 4.752-12.045 11.694 11.694 0 0 1 7.907-5.34 20.838 20.838 0 0 1 3.165-.284c9.103-.178 25.693 4.262 41.386 10.023 15.693 5.76 30.905 12.795 38.307 17.062 7.118 4.102 10.199 10.156 10.24 16.303.042 6.148-3.07 12.479-9.679 16.823-7.289 4.792-23.09 13.023-39.124 19.542s-32.962 11.099-40.436 10.158zm326.976-6.314c-7.077 1.262-24.618-2.655-41.403-8.611-16.786-5.955-33.548-13.638-41.443-18.189-7.117-4.102-10.2-10.153-10.24-16.304-.042-6.15 3.07-12.49 9.678-16.834 6.833-4.492 21.159-12.026 36.123-18.308 14.964-6.283 30.955-11.305 40.186-11.53l.089-.002a22.851 22.851 0 0 1 3.173.14 12.71 12.71 0 0 1 8.61 4.92 33.226 33.226 0 0 1 5.687 11.451c2.806 9.185 3.542 20.348 3.86 27.62.317 7.213.435 18.677-1.65 28.25a34.028 34.028 0 0 1-4.752 12.046 11.694 11.694 0 0 1-7.918 5.35zm-236.315-86.706c-8.543-1.766-25.54-7.124-41.494-13.852-15.953-6.728-31.173-15.474-35.792-21.423a12.71 12.71 0 0 1-2.616-9.561 33.192 33.192 0 0 1 4.08-12.11c4.51-8.477 11.883-16.894 16.8-22.26a134.133 134.133 0 0 1 16.548-15.567c6.569-5.023 13.684-8.604 19.08-8.648a10.843 10.843 0 0 1 6.772 2.065c5.897 4.114 15.54 19.277 23.2 35.356 7.66 16.08 14.077 33.374 16.442 42.175 2.133 7.934.031 14.382-4.287 18.758-4.317 4.377-10.988 6.668-18.733 5.067zm129.072-2.59c-9.448-2.395-15.52-11.644-13.12-23.261 1.766-8.542 7.124-25.543 13.853-41.494 6.729-15.95 15.474-31.16 21.423-35.781a12.228 12.228 0 0 1 6.929-2.643c5.492-.399 12.697 2.516 19.503 6.906A136.924 136.924 0 0 1 374.364 119c5.325 4.876 13.511 12.902 18.804 21.146a33.997 33.997 0 0 1 5.147 11.877 11.688 11.688 0 0 1-1.813 9.378c-4.112 5.896-19.276 15.542-35.356 23.2-16.08 7.657-33.373 14.076-42.174 16.442a21.27 21.27 0 0 1-10.705.264zm-59.627-24.682c-6.15.038-12.49-3.073-16.834-9.68-4.791-7.286-13.025-23.086-19.542-39.123s-11.087-32.972-10.147-40.447a12.716 12.716 0 0 1 4.92-8.61 33.165 33.165 0 0 1 11.44-5.687c9.182-2.806 20.348-3.542 27.619-3.86l.034-.001c1.727-.091 3.804-.131 6.103-.176 7.816-.087 17.766.417 25.605 2.71a27.233 27.233 0 0 1 9.613 4.676 11.321 11.321 0 0 1 4.293 7.11c1.262 7.077-2.655 24.617-8.61 41.403-5.956 16.786-13.638 33.548-18.189 41.443-4.103 7.119-10.153 10.2-16.304 10.24z"/><path id="path1470" class="cls-6" d="M259.344 82.757c-2.282-.146-8.688 74.736-10.975 74.764-2.286.045-11.17-74.396-13.447-74.191-2.277.205 2.166 75.026-.091 75.385-2.256.358-20.45-72.845-22.67-72.308-1.377.331 3.5 29.029 6.927 51.128 5.409 11.92 11.134 22.62 14.708 28.056 3.936 5.988 9.507 8.622 14.827 8.586 5.32-.03 10.519-2.566 14.244-9.03 3.897-6.76 10.315-20.686 15.845-35.317 3.131-20.788 6.821-44.173 5.57-44.437-2.232-.473-20.461 74.01-22.725 73.721-2.263-.289.069-76.213-2.213-76.357zm68.795 23.895c-5.057 6.463-11.7 18.36-16.94 30.784-3.788 8.978-7.038 18.16-9.546 26.08 6.62-14.974 21.977-45.688 26.486-56.864zm-182.083 11.187c-1.794 1.412 43.726 62.279 42.04 63.825-1.684 1.545-57.575-47.953-59.127-46.28-1.553 1.673 51.57 54.433 50.136 56.208s-65.006-39.85-66.303-37.966c-1.068 1.554 39.65 32.264 53.484 44.213 5.338 1.652 10.154 3.005 13.389 3.673 7.02 1.451 12.817-.61 16.55-4.394 3.735-3.785 5.626-9.27 3.69-16.472-.546-2.035-1.362-4.63-2.338-7.525-8.067-6.855-49.869-56.583-51.521-55.283zm203.544-1.964c-1.745-1.3-44.684 51.869-50.426 55.864-.703 2.553-1.31 4.926-1.685 6.738-2.176 10.53 3.15 18.39 11.368 20.474a18.305 18.305 0 0 0 9.498-.24c3.478-.936 8.626-2.684 14.334-4.79 14.438-12.572 52.264-41.862 51.18-43.342-1.347-1.843-63.617 41.057-65.112 39.326s51.231-56.113 49.633-57.748c-1.598-1.633-57.412 49.497-59.131 47.992-1.72-1.505 42.172-62.926 40.34-64.29zm-175.08 6.262c5.145 10.572 11.157 22.656 16.373 33.35-2.232-5.448-4.633-11.053-7.277-16.604-2.844-5.97-5.986-11.588-9.095-16.746zm-87.594 98.61c-.567.068-.878.142-.902.286-.385 2.255 73.991 17.154 73.784 19.43-.207 2.274-75.972 2.49-76.03 4.769-.062 2.28 74.695 5.511 74.802 7.79.107 2.279-74.73 14.09-74.462 16.36.267 2.269 76.107-4.548 76.54-2.31.432 2.239-71.408 24.194-70.807 26.397.239.876 11.982-1.478 25.977-4.467a192.769 192.769 0 0 0 12.247-4.488c15.895-6.464 31.687-14.704 38.714-19.324 5.99-3.939 8.622-9.503 8.586-14.82-.038-5.316-2.576-10.518-9.038-14.243a232.535 232.535 0 0 0-22.083-10.547c-20.18-1.787-51.551-5.374-57.328-4.833zm322.418-4.058c-10.651.613-43.84 5.673-61.205 7.609-6.237 3.195-11.451 6.157-14.736 8.317-5.99 3.938-8.623 9.499-8.587 14.819.038 5.32 2.577 10.527 9.039 14.252 7.647 4.407 24.395 12.111 41.047 18.02 13.63 4.835 27.836 8.097 35.799 8.567.06-.06.189-.06.2-.09.548-2.213-72.15-22.414-71.751-24.66.398-2.246 76.658 3.781 76.874 1.507.216-2.275-75.478-11.667-75.434-13.953.046-2.287 75.849-7.688 75.728-9.966-.12-2.277-76.432-1.22-76.71-3.484s73.533-18.49 73.084-20.727c-.054-.28-1.269-.332-3.348-.21zM186.92 298.332a21.088 21.088 0 0 0-5.086.729c-8.523 2.29-25.808 8.7-41.762 16.3a197.013 197.013 0 0 0-6.766 3.398c-13.281 9.42-25.12 17.944-24.583 18.792 1.225 1.932 67.2-36.255 68.56-34.42 1.362 1.835-55.438 52.34-53.955 54.076 1.482 1.736 59.92-45.726 61.517-44.097 1.597 1.628-46.436 59.327-44.726 60.837 1.71 1.51 53.25-53.663 55.074-52.29s-37.523 66.07-35.602 67.306c1.358.875 22.995-29.456 36.46-47.217a207.098 207.098 0 0 0 6.659-22.436c2.537-12.28-4.724-21.13-15.79-20.978zm128.58-2.482a16.42 16.42 0 0 0-12.834 6.34c-2.801 3.703-4.085 8.665-2.391 14.967a250.744 250.744 0 0 0 9.896 27.334c13.893 17.618 32.693 42.37 33.914 41.54 1.892-1.285-38.96-64.131-37.176-65.557 1.784-1.426 54.017 52.367 55.696 50.824 1.679-1.543-47.522-58.67-45.965-60.338 1.557-1.67 60.88 44.305 62.307 42.52s-55.295-51.014-53.996-52.89c1.299-1.875 66.944 34.591 68.115 32.63.623-1.042-16.918-12.827-33.45-24.006-15.238-6.286-31.185-11.291-39.083-12.924a21.462 21.462 0 0 0-5.033-.442z"/><path id="circle5903" class="cls-7" d="M479.826 244.466c2.45 126.876-98.418 231.715-225.294 234.164S22.817 380.213 20.367 253.337 118.785 21.622 245.661 19.172s231.715 98.418 234.165 225.294z"/><path id="circle5917" class="cls-8" d="M484.74 244.37c2.502 129.59-100.523 236.673-230.113 239.175-129.59 2.502-236.672-100.523-239.174-230.113C12.951 123.842 115.976 16.76 245.566 14.258 375.156 11.756 482.238 114.78 484.74 244.37z"/></g></g></g></svg>