<svg viewBox="0 0 500 500" xmlns="http://www.w3.org/2000/svg"><path d="m99.91978 381.176a179.94719 179.94719 0 0 0 14.70522 29.19169 170.3101 170.3101 0 0 1 -14.02374-29.2728 2.15375 2.15375 0 0 0 -.68148.08111z" fill="none"/><path d="m120.35708 213.19414q2.64379-3.41387 5.45-6.69176c-4.70364-5.40891-9.38508-11.13716-12.79447-15.46216 2.62356 7.43892 5.14296 15.01678 7.34447 22.15392z" fill="none"/><g fill="#0e192d"><path d="m173.42054 423.97853c-.35918-.07318-.49388.09639-.50743.37942l.012.0084.71764-.16624c-.07348-.07674-.13675-.20419-.22221-.22158z"/><path d="m167.98049 421.82793c.88887 2.73576 3.512 1.38759 4.905 2.51053-.38227-3.09398-2.4791-2.85146-4.905-2.51053z"/><path d="m181.84948 406.55574c-2.09565.01977-3.50479.87548-3.41889 2.80893.11061 2.4925 2.21164 3.09419 4.22576 3.30321 1.87544.19465 3.26327-.788 3.16018-2.76163-.12947-2.47614-2.09653-3.08479-3.96705-3.35051z"/><path d="m238.233 374.778a18.44892 18.44892 0 0 0 1.01178-9.46816c-.7579-.14354-.93515.408-1.28593.73044-3.80866 3.50051-8.06287 3.97941-12.07215 1.15134a1.52619 1.52619 0 0 0 -2.24873.13165c-2.0409 1.7539-2.83191.11264-3.58775-1.35593-.86257-1.67609-.73135-3.59829-1.17207-5.41133a25.27874 25.27874 0 0 0 .25705 13.66107c1.44384 4.83192 3.94851 7.06286 7.9925 7.26179 5.32179.26172 9.32267-2.12487 11.1053-6.70087z"/><path d="m164.50145 390.85765a43.0222 43.0222 0 0 1 -1.47641 20.623c4.52226-6.10747 5.18571-16.39736 1.47641-20.623z"/><path d="m181.01742 388.783c-.26267-.19674-.52534-.39349-.78943-.587-.299-.06085-.81028-.24738-.86115-.16145-.25926.43814.15943.48731.45641.57764l.70171.81193q.55958.5418 1.1193 1.08356a11.55894 11.55894 0 0 0 11.656 2.52333 32.46125 32.46125 0 0 1 -10.96823-3.157q-.65751-.54571-1.31461-1.09101z"/><path d="m221.16407 349.802a3.69235 3.69235 0 0 0 -2.09057 2.88817c-.12947.579.26314.94208.90409.6915 1.20732-.472 2.2828-1.14731 2.43826-2.56183.08257-.75141-.49214-1.06527-1.25178-1.01784z"/><path d="m222.89571 412.9874c-.545-.09667-1.957 1.2107-1.85929 1.58909a4.07852 4.07852 0 0 0 3.06717 2.87549c1.18363.31516 1.14623-.4921 1.01438-1.57237.35744-1.54115-.6697-2.6167-2.22226-2.89221z"/><path d="m352.322 308.25737c.52661.42391 1.01708-.56373 1.32024-1.15491 5.09823-4.6637 6.61022-10.62478 6.20691-17.2606-.04057-.66523.13407-1.66376-.9895-1.63524-.86622.022-.82089.8325-.77193 1.4053.54087 6.31812-3.01193 11.40565-5.05449 16.94567-.25344.59696-1.32836 1.20308-.71123 1.69978z"/><path d="m347.554 308.55906q.39864-.356.79712-.71194l.75829-.74989a15.46885 15.46885 0 0 0 5.51961-11.12936 48.2232 48.2232 0 0 1 -6.07823 10.65168l-.6575.743q-.387.36405-.77382.728c-.56987.58579-1.13974 1.17155-2.16918 2.22975 1.52735-.5513 2.24286-.93045 2.60371-1.76124z"/><path d="m233.69992 357.74422c1.00915.00582 2.27488.23708 2.50244-.70548.24928-1.03241-.66059-2.09569-1.50216-2.86979a5.29864 5.29864 0 0 0 -3.8249-1.27666c-7.40988.073-10.66285 5.53657-7.50465 12.63168 2.69151-3.05084 8.67877-7.78934 10.32927-7.77975z"/><path d="m178.75133 429.47c-4.60324-.56713-9.19681-1.10012-13.5377-2.91011a3.51514 3.51514 0 0 0 -3.79273.31365c5.73846 2.58624 11.011 5.0495 17.04 5.27133 1.1796.04342 2.23669-.32757 2.38787-1.18047.23029-1.29895-1.22948-1.38746-2.09744-1.4944z"/><path d="m319.05375 269.49081c.35276-.09195.68048-.18553.7632-.44646a.6469.6469 0 0 0 -.7632.44646z"/><path d="m133.20535 335.25208c2.43977-.19342 8.46673-4.36759 8.21357-6.34312-.47185-3.68231.84038-7.356-.307-10.98435-.65877-2.08332.87247-4.86064-2.26759-6.57512-.77565 3.49892-.2931 6.92265-1.45771 10.09116-1.19235 3.24366-3.07208 5.47995-6.80467 5.31506-3.80351-.168-4.89428-3.10575-5.68443-6.06321-.94212-3.5261-.78317-7.197-1.12-10.84569-.854 6.683-1.7455 13.41679.673 19.9784 1.5783 4.2825 4.18724 5.78898 8.75483 5.42687z"/><path d="m107.26547 344.38963c.58889 4.28309-1.12009 7.939-3.47515 12.09227 4.99831-3.18815 6.04693-7.0299 3.47515-12.09227z"/><path d="m309.22526 290.82479c2.24936-6.8858 5.71675-13.29187 8.93945-19.81811l-.01886.00516c-.52739.20795-1.28981.25993-1.54685.64724-3.69385 5.56513-7.097 11.28176-8.52727 17.92582-.11711.54455.09968.96577 1.15353 1.23989z"/><path d="m236.69236 420.23437c3.89194-.494 5.93022-3.001 5.37445-7.04345-2.43042 2.24949-4.9629 4.03932-8.263 4.02585-3.70613-.01514-5.355-2.89344-7.35877-5.81663.70582 5.89765 5.08459 9.48948 10.24732 8.83423z"/><path d="m322.194 343.03354c.24453.15233.94609-.17718 1.28253-.46322 3.31826-2.821 6.604-5.68015 10.26555-8.84532-2.60529-1.13138-4.69127-.52-6.82115-.5322 1.40693-2.02267 4.08766-2.00916 5.56557-4.17243-5.16621-.547-9.41662.55473-13.02076 3.80252-1.35986 1.22555-3.3609 2.20836-2.57741 4.5469.88686 2.6471 3.04351 4.25437 5.30567 5.66375z"/><path d="m325.24132 357.72821c.48239 2.64559 1.11549 4.73644 3.29766 5.48753 3.82142 1.31524 6.22862-1.56489 8.95071-3.8446a31.2033 31.2033 0 0 1 -12.24837-1.64293z"/><path d="m327.83378 373.77213c-1.54353-1.01585-2.43351.61816-3.24648 1.652a6.01317 6.01317 0 0 0 -1.20613 3.50114c.074 1.23071-.06736 2.85695 1.46032 3.04126 1.50771.18189 1.33213-1.42043 1.57332-2.47693a23.477 23.477 0 0 1 .89157-2.83912c.35181-.95932 1.85572-2.00433.5274-2.87835z"/><path d="m336.99811 330.069-.454-.11383q.13836.22179.27654.44365z"/><path d="m300.86327 352.10468c-16.15327-11.25068-35.59507-4.15682-41.13457 14.91732-1.42412 4.90378-.2416 9.2148 3.34385 12.31818 3.4937 3.02394 8.11992 2.75778 12.07517.77085 9.5006-4.77285 17.33519-11.89256 25.17944-18.92424 1.86427-1.67118 1.63481-3.53645-.61614-4.93608-.73516-.45707-1.80913-.45482-2.26934-1.51785 1.63735-.44888 3.11859-.85492 4.94024-1.35431-.61992-.52369-1.04006-.94055-1.51865-1.27387zm-11.23985-2.897c-.11473 1.0355-.47415 2.10979-1.60311 2.23193a1.676 1.676 0 0 1 -1.76131-1.58461c-.09667-1.44258 1.3353-1.54142 2.13242-2.09937 1.16766-.06339 1.32249.63485 1.232 1.45201z"/><path d="m322.19832 352.10128c5.99488 3.24065 11.73635 3.268 15.40753-.41833 4.52852-4.54726 6.4489-10.069 4.70189-16.48935-.74735-2.74677-2.44349-4.10813-5.43229-4.65633.27955 1.69142 2.34857 2.44179.9678 5.25005-5.12724 10.42855-14.55653 12.88282-22.59951 5.18991-.62248 4.62123 1.65034 8.25677 6.95458 11.12405z"/><path d="m311.43674 407.07284c4.58906.0908 8.16881-4.7868 6.37474-8.49716-2.23273 2.82442-2.95917 6.66798-6.37474 8.49716z"/><path d="m258.59942 381.56789c-.15554-.37011-.45125-.63413-.7831-.35209-.13707.11648.03281.59408.06308.90746 1.09108 2.25186 2.04549 4.5828 3.29473 6.74322 10.84866 18.76157 30.25715 20.90079 47.2323 7.15675 9.17035-7.42489 11.23018-24.03233 5.24022-35.51928-.24389 6.12038-3.25725 10.63507-7.71224 14.24184a58.49376 58.49376 0 0 1 -25.79615 11.74966c-7.90407 1.5829-15.25087.61142-21.53884-4.92756z"/><path d="m357.65125 316.68575c-.79427 3.35717-.68936 5.94194 2.45443 7.37985a1.66283 1.66283 0 0 0 2.32242-.47812c.52106-.84656-.14754-1.47843-.72993-1.85579-1.77917-1.15317-2.04366-3.48146-4.04692-5.04594z"/><path d="m232.04189 435.91071a1.4381 1.4381 0 0 0 1.57594 1.2992c5.841.14579 11.48865-.50442 16.50963-4.33463a162.86731 162.86731 0 0 0 -16.74972 1.75687c-.84466.11699-1.45605.21921-1.33585 1.27856z"/><path d="m240.55363 392.0082c-.23287-2.024-2.49032-2.10368-3.59559-3.2603a1.55941 1.55941 0 0 0 -1.25162 2.01526 3.281 3.281 0 0 0 2.86567 2.97042 1.67189 1.67189 0 0 0 1.98154-1.72538z"/><path d="m231.70221 407.50876c-2.76409.02725-3.87316 1.80587-2.6606 4.26244 1.05115 2.12984 6.66235 4.03607 8.63075 2.87343 1.39408-.82342 1.95539-2.21751.90416-3.45843-1.75358-2.06997-3.84835-3.8188-6.87431-3.67744z"/><path d="m254.96136 421.233a2.86564 2.86564 0 0 0 -2.5122 2.36885c-.19571.82656.565 1.89181.96495 1.6316a14.868 14.868 0 0 0 2.60957-2.70937c.12622-.97767-.51583-1.35698-1.06232-1.29108z"/><path d="m258.17067 406.50784a17.36008 17.36008 0 0 0 6.57742 3.29453c3.17009.63386 3.20511-.98241 3.82807-2.59578.75528-1.95564.06371-2.42717-1.51524-2.90556-2.15753-.65374-4.27726-1.43288-6.41054-2.16605a2.60239 2.60239 0 0 0 -3.27683 1.09536c-.92168 1.35766-.20126 2.45847.79712 3.2775z"/><path d="m275.49588 420.45766c-5.49933-1.45439-13.52043 1.3837-16.92618 5.98893-4.5847 6.19922-4.24136 12.22464.88238 15.486 4.88255 3.10777 14.48 2.95544 19.0364-.6268 2.74555-2.1586 5.94923-4.35373 4.80538-8.2751.23533-6.86935-2.55847-11.18735-7.79798-12.57303z"/><path d="m296.96056 408.87182c-2.60418.579-3.2048 2.87018-3.5883 5.10964-.17733 1.03547.12614 2.05076 1.48172 2.11122 1.59677.07127 4.4851-3.22306 4.422-5.43721a1.81948 1.81948 0 0 0 -2.31542-1.78365z"/><path d="m381.12 202.23863c-1.55462 1.74705-3.224 3.588-4.93326 5.42659a26.43718 26.43718 0 0 1 2.32258 9.42676c-1.43165-2.47836-2.68232-5.06927-4.04994-7.58479q-.4671.49361-.93467.98317c1.51437 3.72165 2.826 7.50848 3.96214 11.36021a7.8864 7.8864 0 0 0 1.54131 2.80485c.94513-6.41031 2.17171-13.54429 3.54725-20.87782q-.72431-.77481-1.45541-1.53897z"/><path d="m207.28581 243.93666q2.01981-1.39957 3.96119-2.97993c-3.953-.40937-6.176-.70294-6.176-.70294s.78269 1.39908 2.21481 3.68287z"/><path d="m213.41459 252.43029c.04168.23561.08669.47075.13708.70513 1.18768 1.61289 2.47931 3.30016 3.86975 5.02081a14.74936 14.74936 0 0 0 -4.00683-5.72594z"/><path d="m362.48277 192.06114c.62645.81356 1.26176 1.62043 1.91436 2.41335q.589-1.68834 1.21279-3.39921-1.54155.49949-3.12715.98586z"/><path d="m158.64619 228.23873c1.75089 1.49709 2.8793 1.50767 4.583-.3654q1.23751-1.36053 2.50617-2.6675a53.21059 53.21059 0 0 1 -10.82893-6.60455 10.76263 10.76263 0 0 0 3.73976 9.63745z"/><path d="m258.75559 244.74277c-4.51774 6.58926-10.51071 7.41423-16.86056 2.04549.06877 5.44077 3.02921 10.1641 7.12034 11.703 4.10382 1.54356 8.73218.2442 12.12183-3.77423 2.7198-3.22433 5.45773-6.53186 4.918-10.71737l-.04857.00167q-3.62569.46134-7.25104.74144z"/><path d="m199.48332 290.86984c2.0393.10249 2.8453-1.17365 2.87351-3.38526a16.851 16.851 0 0 1 -.4675-1.71c-.494-2.09062-1.01486-4.44976-3.15092-4.70075a1.90053 1.90053 0 0 0 -2.19532 1.28819 18.416 18.416 0 0 0 -.59832 4.24383c-.31346 2.39829.90734 4.13174 3.53855 4.26399z"/><path d="m164.64059 238.9349a47.92474 47.92474 0 0 1 -15.58122-5.30572.86172.86172 0 0 0 -1.42292-.41773l.83578 1.00234c2.12528 4.23444 5.83878 7.26087 9.48112 11.67117-2.16458-1.01153-3.11384-1.67478-3.51588-2.90928l-.01807.01315c-1.06969 2.59242 1.37111 3.53981 2.56584 4.81144 2.57368 2.73924 5.66018 4.80018 9.81676 4.19248q-1.59266-.95049-3.185-1.90092.25115-.276.4946-.55906-.24342.283-.49468.55906c-.91526-.59832-2.30182-.57538-2.6068-1.97794l-.38485-.31576.27519-.12551q.05919.21744.11846.43477l-.0088.0065.009-.00666c1.41714-.36278 2.18716.67811 3.09244 1.42554 3.52269 1.12528 6.88026 2.76369 10.63416 3.15777.049.00515.09651.01542.14572.02013 1.08364.104 2.15333.16921 3.21153.20269a36.74737 36.74737 0 0 1 -7.54553-13.44976 45.41193 45.41193 0 0 1 -5.91685-.5287z"/><path d="m141.24484 204.91563c.35656 1.37717.68341 2.70522.97754 3.972.65576-1.80904.52589-3.0788-.97754-3.972z"/><path d="m154.41544 242.99164q-.27123.19725-.54253.3944l.26821.21295z"/><path d="m213.2978 252.503.07384-.11351c-.0309-.02868-.06021-.05815-.09128-.08672z"/><path d="m366.03447 351.00037a2.53448 2.53448 0 0 1 -.56036 1.89165c-1.74622 2.5936-3.26645 5.33943-4.88208 8.01964l-.78634 1.03189c.68064.42126 1.07635.12353 1.332-.52763a13.1844 13.1844 0 0 0 6.58931-8.26559c.37174-1.35518-.677-1.71416-1.69253-2.14996z"/><path d="m212.17335 243.11109a11.30383 11.30383 0 0 0 4.84238-1.04711q-1.31121-.27651-2.6026-.57779-1.09774.81119-2.23978 1.6249z"/><path d="m246.17586 246.94974a14.56259 14.56259 0 0 1 .71709-1.77386c-1.16232-.00373-2.32227-.0168-3.478-.04715a9.12866 9.12866 0 0 0 2.76091 1.82101z"/><path d="m128.23572 239.08731c.60552.708-.44056.78935-.73793 1.16759h.00008c-.03392.03185-.06791.06037-.10182.09167.72208 4.22113.88832 7.29657.3194 8.74062a5.19242 5.19242 0 0 0 2.07069-1.63465c3.04252-3.905 4.863-8.52969 7.07922-13.68224-2.911 1.22274-4.37893 3.44671-7.16187 4.10227 1.01383-2.96106 1.81372-5.44877 2.73081-7.89254.31583-.84153.84093-1.57241.00943-2.376a2.26255 2.26255 0 0 0 -2.78683-.22756 12.39982 12.39982 0 0 0 -4.31744 3.45312c.766 3.07735 1.39251 5.89072 1.85065 8.3604.37019-.24971.7686-.4266 1.04561-.10268z"/><path d="m232.13515 281.88383c2.87185.74411 5.15449.02674 6.52037-3.75894-5.27152 1.33779-9.78744 1.91649-11.36773-4.6763-.58223 4.52872 1.28172 7.51141 4.84736 8.43524z"/><path d="m361.97027 341.57527c-.02932-2.73489-2.41655-3.08555-4.23962-3.98861-1.80089.57867-2.83318 1.73168-2.74634 3.56675a3.59707 3.59707 0 0 0 3.79955 3.73913c2.06632.04667 3.20814-1.28767 3.18641-3.31727z"/><path d="m124.30907 249.05315c-.45259-.26884-.93467-.58718-1.44036-.946a5.1191 5.1191 0 0 0 1.44036.946z"/><path d="m366.04255 278.37175c.45006 3.60126 3.4891 3.89444 5.77729 3.641 2.32115-.257 1.95017-3.01919 2.11815-4.93921-.12948-2.76836-.352-5.51715-1.79281-7.95661a4.21943 4.21943 0 0 0 -5.15053-2.05c-1.95523.61091-2.33589 2.45467-2.08439 4.30995.31695 2.33989.83974 4.65272 1.13229 6.99487z"/><path d="m379.51433 250.82607c-3.24774 1.706-2.95457-8.35838-.93245-23.04145a6.01857 6.01857 0 0 0 -4.7675-.83971c-3.46359.85822-4.51648 4.28618-4.2653 7.57267.42106 5.50733 1.40138 10.93234 4.78144 15.58039 2.17156 2.98626 5.16923 4.16875 8.57307 3.0649 3.35662-1.08851 4.06547-4.14672 4.046-7.65475a2.60089 2.60089 0 0 0 .04216-2.0863c-2.98249 3.72494-5.58335 6.40936-7.47742 7.40425z"/><path d="m373.83054 340.71436a8.90556 8.90556 0 0 0 .82343 2.87466c.96462 2.20087 2.1042 3.51046 4.01237.65707a37.29927 37.29927 0 0 1 3.22857-3.59313c.09857 1.23826.13581 1.713.17416 2.18767.1141 1.40875.281 2.88552 1.81848 3.4313 1.90342.67561 2.63572-1.01847 3.54805-2.12457a15.06171 15.06171 0 0 0 2.08059-3.13273c4.76734-10.21746 11.41972-19.83855 7.282-32.355-.86494-2.61654-1.659-4.5517-3.6967-5.7923-6.947-4.2298-14.1521-.95167-17.1062 7.42231-3.51494 9.96353-2.86282 20.1869-2.16475 30.42472z"/><path d="m371.89892 287.05258c4.82423-1.81744 6.75855-5.37354 7.19419-9.88.42265-4.37381-1.65889-7.61653-5.07192-10.35312 3.94169 7.22554 3.77086 13.96294-2.12227 20.23312z"/><path d="m398.47055 324.90126c-1.04624 6.73415-5.43293 12.01649-8.72346 18.62683 4.9537-2.25079 9.07717-11.49 8.72346-18.62683z"/><path d="m266.66815 271.39245c1.47538.25122 2.159-.9575 2.099-2.63267-1.36841-1.64571 1.27143-5.25069-2.12686-5.818-2.0844-.348-2.35784 2.19251-2.29232 3.95972.06717 1.81489-.14297 4.0715 2.32018 4.49095z"/><path d="m232.75875 277.034c1.28481.41013 8.36958-2.22816 8.87036-3.32385.0954-.20882.1637-.63111.06751-.69716-2.62257-1.80045-.92477-4.59159-1.58-6.83783a4.64735 4.64735 0 0 0 -4.00809-3.58331c-3.3189-.12531-6.29138 2.76745-7.02931 6.53947-.81786 4.18059.43257 6.86611 3.67953 7.90268z"/><path d="m343.95967 216.69382a52.385 52.385 0 0 1 -11.98767 7.98988c.06006.28522.1038.57241.15435.85885a45.25111 45.25111 0 0 0 6.53 3.37856 12.28736 12.28736 0 0 0 2.81036.78916 12.0306 12.0306 0 0 0 10.58123-3.40071 18.52075 18.52075 0 0 0 4.47116-8.17827 21.91761 21.91761 0 0 0 .84006-7.29558 18.993 18.993 0 0 0 -.31266-2.05809 19.84561 19.84561 0 0 0 -2.16458-5.72511 54.41543 54.41543 0 0 1 -6.01358 8.63586 13.54965 13.54965 0 0 1 -4.90867 5.00545z"/><path d="m357.52019 221.08047c-1.90405 4.90394-6.01515 8.34708-11.75932 11.09017a13.61084 13.61084 0 0 0 12.50557-8.85769c-.53579-.05364-.77002-.84969-.74625-2.23248z"/><path d="m325.95191 250.5556a75.80681 75.80681 0 0 1 11.49373 35.30558c.31837 5.15227-1.83845 10.01644-7.06282 12.36576a38.43632 38.43632 0 0 1 -12.62934 3.52745c-10.57775.87517-21.06359 1.02425-31.35744-2.60248a96.72511 96.72511 0 0 0 26.356 14.1733c-4.77495.6274-8.94849-1.8071-14.36129-2.70291 6.65935 5.36494 22.57589 8.65757 27.4876 4.89154-3.639-.40446-6.907-.76768-10.65619-1.18434 1.50549-.99494 2.72621-.60636 3.8867-.48743a39.55869 39.55869 0 0 0 16.02431-1.5417c10.70485-3.35915 17.24059-10.55549 19.02008-21.66448a34.81491 34.81491 0 0 0 -2.227-19.63265c-4.93105-11.31925-13.07529-18.93811-22.96257-24.49433q-.40695-.22867-.81851-.45173a38.924 38.924 0 0 1 -2.54856 3.93089c.11839.18921.23851.37768.3553.56753z"/><path d="m302.8117 273.15736c.85591-2.75985 1.75588-5.48526 2.85774-8.08889a46.61029 46.61029 0 0 1 -19.405 3.39318 28.29209 28.29209 0 0 0 -1.47459 12.77339c.04247.39282.08154.7848.13969 1.18114a16.48853 16.48853 0 0 0 8.9817 12.73c.92849.49455 2.46821 1.518 2.4175-.49923-.05753-2.28629 1.85619-3.70193 1.77632-5.91377-.03217.94664 1.48378 1.308.70251 2.40839-.5022.7073-.87683 1.77561.18716 2.21406 1.08475.44706 1.44543-.75132 1.85841-1.45236 5.0957-8.64854 10.1906-17.3031 14.09458-26.56272.4881-1.15764.96067-2.32317 1.409-3.50094a20.87023 20.87023 0 0 0 1.10028-3.53442 47.4023 47.4023 0 0 1 -7.79433 4.95937 118.00422 118.00422 0 0 0 -6.85097 9.8928z"/><path d="m300.74252 363.64139c-4.80712 3.97878-9.7472 7.79715-14.89043 11.88127 6.59714 1.22777 13.11046-1.41076 16.426-6.45444.90187-1.37182 1.806-2.84705 1.17175-4.544-.44702-1.19561-1.04875-2.25556-2.70732-.88283z"/><path d="m138.06595 280.98105c2.3866.15229 2.9392-1.77795 3.37325-3.69159.051-1.241.13566-2.765-1.59241-2.691a3.67387 3.67387 0 0 0 -3.58751 3.58157c-.15618 1.34247.38097 2.70997 1.80667 2.80102z"/><path d="m133.84716 281.941c-.08811 4.22568 1.69043 5.51735 4.6202 5.53756 3.13967.02163 4.709-1.84922 4.80553-5.55388-4.62851 3.05539-7.10022 4.65732-9.42573.01632z"/><path d="m117.09349 267.65332c1.80865-.00523 1.91831-1.59523 1.95888-3.12845-.60093-1.65478.254-4.78846-2.20182-4.74405-1.89788.03427-1.45906 3.05912-1.6085 4.82289-.10943 1.29139-.02583 3.05504 1.85144 3.04961z"/><path d="m133.134 346.62865c-5.60171 1.49686-6.98874 3.38613-6.9118 10.53714a73.57491 73.57491 0 0 0 4.92138 19.63016c1.76253 4.56375 8.07364 5.865 11.79434 4.76921a8.83636 8.83636 0 0 0 5.86049-9.78515 62.02811 62.02811 0 0 0 -6.4367-19.933c-2.45985-4.66953-5.36799-6.24978-9.22771-5.21836z"/><path d="m130.09151 318.91622c1.58228.08106 2.51013-.93432 3.12786-2.25808a18.31606 18.31606 0 0 0 1.45748-7.66673c.03169-2.39789-.119-4.7896-1.56144-6.81318-1.0101-1.41715-2.12036-2.05765-3.43918-.07674a17.336 17.336 0 0 0 -2.58207 13.94272c.35014 1.56979 1.23395 2.78172 2.99735 2.87201z"/><path d="m132.53033 264.26949c2.77344-1.1796 2.48137-4.055 3.40281-6.166-.10419-.71519.10507-1.50929-.7197-1.63417a1.63295 1.63295 0 0 0 -1.2399.58659c-1.531 1.91281-3.59987 3.63319-2.984 6.49275a1.17625 1.17625 0 0 0 1.54079.72083z"/><path d="m156.58842 264.70247c1.13023.06795 2.24873.0933 2.89736-1.09762a.96838.96838 0 0 0 -1.18617-1.04125c-1.055.12833-2.41956-.2154-2.917 1.07255-.20547.53203.51329 1.02468 1.20581 1.06632z"/><path d="m154.07187 340.19422a3.22639 3.22639 0 0 0 2.71132-3.12644c.16243-1.71071-1.04608-2.35106-2.46458-2.69031a2.373 2.373 0 0 0 -2.31861 2.82331c.09159 1.38747.41512 3.10873 2.07187 2.99344z"/><path d="m146.53538 413.47174a16.28666 16.28666 0 0 0 3.49686 2.20911 7.90426 7.90426 0 0 0 11.13431-3.5246c2.129-4.18047 2.507-8.726 2.23684-13.34956-.84165-14.39758-5.25369-27.81437-11.19532-40.81165-.24389-.53338-.361-1.25518-1.36-1.004.75782 3.48093 1.6646 6.94579 2.24421 10.46452.98277 5.96615 1.77474 11.98907-.09366 17.92982-2.08875 6.64144-8.07189 9.46559-14.304 6.715a16.20859 16.20859 0 0 1 -6.85015-5.65048c-3.72078-5.3298-6.01912-11.26726-7.95708-17.39969-.27432-.86791.03835-2.44405-1.8394-2.30289a16.89592 16.89592 0 0 1 .22408 1.76056c.42668 19.12247 10.80182 32.88584 24.26331 44.96386z"/><path d="m134.75529 382.34a7.39066 7.39066 0 0 0 7.955 3.75252c3.20425-.478 4.90934-2.06875 5.81739-5.53526-4.30902 3.50796-8.75704 4.63027-13.77239 1.78274z"/><path d="m106.04349 269.26614c1.9813.37435 2.33771-1.19319 2.49515-2.55047.31045-2.67423 1.57189-5.01871 2.31719-7.5361.30308-1.02365.88341-2.60014-.25609-3.02009-1.22484-.45137-2.26957.60885-2.49817 2.10127a1.96387 1.96387 0 0 1 -1.29258 1.63651c-2.58446 1.13435-2.46132 3.77938-3.09133 5.73462-.01046 1.9304.51947 3.29299 2.32583 3.63426z"/><path d="m388.13146 247.958c-1.22389 5.88933.44911 11.52843-1.23071 17.53582-1.883 6.73371-.33754 14.462-1.98249 21.64284a3.21476 3.21476 0 0 0 1.03007 3.20108c3.70668-5.33012 1.9031-11.56155 3.78291-17.10466.43786 2.76793-.229 5.78517.61773 8.291.92041 2.724-.396 4.89229-.40554 7.31828-.01 2.57035-.41424 4.80751 3.021 5.67626 1.91261.48366 3.272 2.37555 4.24217 4.142 7.30465 13.3002 9.73277 32.93527-3.29275 47.17438-5.60377 6.12589-12.31858 8.61241-20.36267 5.4353-1.63338-.64514-1.81752.20091-2.54586 1.06237-3.05108 3.6089-4.42932 8.35013-8.03284 11.6125-.961.87-.43215 2.16652.36608 3.35911 7.17961 10.7275 8.54422 22.63413 6.67186 35.07081a16.29566 16.29566 0 0 1 -6.39153 11.18208 12.53622 12.53622 0 0 1 -11.17392 2.384c11.23684-6.92622 16.14776-18.58776 13.1748-30.35014-2.76376-10.93451-11.978-16.73307-21.10748-12.852-9.31837 3.96134-13.87589 12.08546-15.33289 21.43611-1.3215 8.48127 3.09688 14.9848 10.93416 19.6798-6.693.90813-12.45629-2.18514-16.226-8.56221-.8472-1.43319-1.65224-2.38157-3.09593-1.18724-9.64625 7.98121-20.76819 13.47717-31.89046 18.94829-1.94462.95658-2.58691 1.68425-1.68028 3.80743 3.48038 8.14983-2.998 16.49228-9.22963 18.76506-10.70215 3.90322-18.50409 1.47692-24.96122-7.88261a3.044 3.044 0 0 0 -3.65819-1.50937c-4.44723.80572-8.90174 1.63088-13.38851 2.13392-2.44927.27463-4.38264.53579-4.6614 3.5753-.08843.96518-.20364 2.70173-2.25649 1.93852-.69174-.25712-.96653.49892-1.09077 1.16684-.77446 4.16451-6.79326 8.40227-12.14854 8.19265 6.77607-3.36731 11.49713-8.17118 13.91805-14.95409 2.06823-5.79445.67588-11.10044-4.04471-14.94864-5.44037-4.4349-11.5522-7.65-18.60884-8.549-15.434-1.96653-23.31335 6.71006-20.91747 22.43474a11.11047 11.11047 0 0 0 4.36466 7.26911c2.96178 2.27607 5.9169 4.56077 9.20125 7.09345-1.32245-.13692-2.27591-.17619-3.20686-.34159-6.46426-1.14842-12.968-3.24755-14.22524-10.38957-.97548-5.54088-3.548-7.432-8.41008-7.907a13.29568 13.29568 0 0 1 -2.16854-.62343c-29.26654-8.14357-53.41575-23.435-69.6414-49.81541-.339-.55121-.55727-1.378-1.48568-1.41528a170.3101 170.3101 0 0 0 14.02374 29.2728 166.81444 166.81444 0 0 0 46.19311 48.47555c31.8 22.29271 67.26225 32.56167 106.0626 30.678a169.86251 169.86251 0 0 0 132.75142-264.16816c-3.88052 6.04523-7.7956 11.796-11.285 16.33868a18.63075 18.63075 0 0 1 -.21569 6.26632zm-246.63418 175.896c-.39562.95012-1.09607.755-1.85405.48544-3.1033-1.10356-5.45274-3.10963-7.90732-6.43162 3.869 1.31691 5.96571 4.15754 9.19507 4.7696a.84348.84348 0 0 1 .5663 1.17658zm68.28 35.08848c7.928.96656 14.25234-3.6368 21.73139-6.67916-5.48667 5.58998-13.21787 7.94723-21.73135 6.67913zm34.71207 17.331a.81187.81187 0 0 1 -1.22452.4339c-1.62118-1.144-1.379-2.70858-.65085-5.24478.90611 2.0262 2.51738 2.96329 1.87541 4.81088zm6.11024-16.50059c-.15071 1.21469-2.02719.87013-3.23087.66412-1.36009-.2328-2.57336-.67034-3.05892-2.18 1.42847-.76653 2.40942.47855 3.61429.55577.9355.05986 2.92691-1.06778 2.67554.96011zm53.21029-2.18582c.18256.36132-.15435 3.37864-2.30356 3.00381-1.714-.299-1.67475-2.09588-1.2502-3.384.93056-2.82264 2.33415-5.381 4.72678-6.38218 1.2244 2.33836-2.67847 3.78169-1.17298 6.76237zm9.32692-27.38456c-.91264 2.51109-2.76583 3.79159-5.54005 4.13135-.7892-.11049-2.03511-.03371-2.27805-1.22266-.23216-1.13609 1.04988-1.142 1.74558-1.56456 1.49551-.90821 2.9739-1.84462 4.46513-2.75961.49761-.30533.98333-.94727 1.619-.32011.54293.5356.20269 1.146-.01157 1.73559zm21.86958-6.128c-.17321 1.30016-1.95032 1.19545-3.17928.91808-1.18379-.26719-2.54207-.44381-2.46727-2.56235 1.23482.25641 2.18455.49638 3.14854.64185.96324.14537 2.73624-.78581 2.49805 1.00243zm6.15826 23.72007c-1.18332 1.64459-3.15583 2.29473-5.81485 3.19093 1.08966-1.8699 1.87632-3.07191 1.52356-4.36394-.59776-2.18911-.5377-3.3794 2.28581-2.58192.85782.24234 2.25127-1.56065 2.80434.00162a4.7871 4.7871 0 0 1 -.79882 3.75332zm15.96476-28.57858c5.215-.82069 9.25482-3.80683 13.36085-7.44985-1.77933 5.01327-7.53425 8.13642-13.36085 7.44985zm35.72011-46.79634a4.71535 4.71535 0 0 1 -4.1279 2.692c-.48889.03463-1.12326-.20593-1.04576-.77335a5.67366 5.67366 0 0 1 2.23034-3.2685 32.61138 32.61138 0 0 1 3.07279-2.222c.97921 1.04902.48192 2.34355-.12947 3.57187zm11.38149-88.81347a2.64592 2.64592 0 0 1 1.49091-2.24544c.92992.37269 1.496 1.06771 1.20661 1.75632-.38.90492-.37748 2.44876-1.90373 2.294-.9115-.09242-.89613-1.06889-.79379-1.80488zm-6.73035-17.98485c.21568.77846-.01965 1.50941-.99426 1.61024a1.165 1.165 0 0 1 -1.46968-1.20439c-.13058-1.88646-.30743-3.76968-.46527-5.65424 2.29298 1.36339 2.41548 3.39305 2.92925 5.24839zm-2.81036 13.49975a11.9514 11.9514 0 0 1 -.02345 10.3034c-1.69467-3.44643-.02674-6.86925.02349-10.3034z"/><path d="m109.35509 385.11677q-.2364-.528-.47272-1.056c-.65663-.25126-1.22547-.54412-.93848-1.2431-.55814.23929-1.33767-.81911-2.02528.49915.84735.71 1.84011 1.5419 2.83286 2.37388 1.24 1.652 2.90132 2.49254 4.88326 1.82747 1.62229-.54431 2.12853-1.95516 1.67768-3.98116-1.62657 2.45362-3.66707 2.62081-5.95732 1.57976z"/><path d="m108.24048 382.51053c.50338.34883 1.29955.55869.81359 1.37673 1.40352-.44174 3.29727.95488 4.26713-1.11965.91977-1.96772-.3282-3.31121-1.30012-4.77669a4.61371 4.61371 0 0 1 -.78729-2.042c-.42883-4.98822-2.906-9.01284-5.91294-12.78924-.82374-1.03467-1.531-2.5387-3.2979-1.686-1.73092.83531-1.7146 2.443-1.26485 3.917a67.16666 67.16666 0 0 0 7.48863 17.11008z"/><path d="m103.73454 341.34148c-.23557-.8491-.32123-1.91087-1.364-1.99561-1.20788-.09821-1.65684.95726-1.951 1.93781-.2488.82945-.38327 1.69316-.49285 2.19532a10.33127 10.33127 0 0 0 1.3639 5.01147c.69807 1.13776 1.62355 2.076 3.06708 1.38434 1.33371-.639 1.54923-1.74158 1.0128-3.16074-.66069-1.74764-1.13547-3.56834-1.63593-5.37259z"/><path d="m99.238 315.69858c-1.57688-.36064-1.87806 1.97085-2.614 3.16415-1.0399 1.68607-2.08835 3.50237-.55394 5.49759a1.93479 1.93479 0 0 0 2.34833.66534c2.38233-.97908 1.96261-3.16355 2.042-5.22905-.23857-1.38794.66521-3.66635-1.22239-4.09803z"/><path d="m159.68055 307.77054c.82849-2.21256.76669-4.44053-1.29568-6.12581a1.021 1.021 0 0 0 -1.34425-.17983c-.61867.46837-.41488 1.07833-.26853 1.695a9.93859 9.93859 0 0 1 -1.277 8.25838l.00063.00214c3.08835.82187 3.47835-1.76294 4.18483-3.64988z"/><path d="m301.0124 331.77483c1.26112.2734 1.82212-1.002 2.03336-2.62313-.6041-1.16239-1.46286-2.7161-3.07374-3.00155-1.34527-.23838-1.73369 1.17337-1.65081 2.39381a3.421 3.421 0 0 0 2.69119 3.23087z"/><path d="m110.71733 280.71577a35.27026 35.27026 0 0 1 .007 10.72509c-.302 1.74886-.98325 2.0811-2.38264 1.21529a24.72288 24.72288 0 0 1 -2.35071 8.15422c-2.10183 4.53252-2.10159 4.53652-6.90118 2.78262-.69157-.25272-1.43473-.74656-2.04192-.0494a1.51168 1.51168 0 0 0 -.12892 1.38731c1.20059 2.11736 1.63077 4.93251 4.38122 5.76477 2.72415.82438 4.91837-.44824 6.7042-2.38775a29.86679 29.86679 0 0 0 7.32375-15.00215c.18248-.95944-3.32152-11.84835-3.99843-12.58172-.05764-.06252-.24186-.00828-.61237-.00828z"/><path d="m94.682 348.36417c-.25847-6.18512-2.58414-11.93448-3.54623-17.98248-.41297 6.31031.04391 12.44431 3.54623 17.98248z"/><path d="m99.42368 293.96608c-.35158 1.09834-.63366 2.18974.41472 3.10892 1.0685.93678 2.093.25063 3.16-.027 2.47741-.64458 3.13443-3.41853 5.26241-4.4536-.24468-2.12144-.63294-4.23994-.67541-6.36542-.02488-1.24029.01648-2.29505-1.38521-2.6383-1.33926-.32792-2.02687.58778-2.68691 1.5654a34.1024 34.1024 0 0 0 -4.0896 8.81z"/><path d="m261.19663 294.02329c2.76.08451 4.8469-2.43133 4.82827-5.58641-.01339-2.269-.6224-3.99153-3.35344-3.88833-3.049.1103-5.77491 2.42808-5.59235 5.00541.17464 2.46734 1.31453 4.38352 4.11752 4.46933z"/><path d="m236.69458 308.85509c5.40456 1.31112 12.1021-5.9818 12.97045-11.763.63817-4.24874-1.74217-6.97408-6.028-6.73058-3.71152.21085-7.40893.962-11.12868.18537-4.30872-.62676-10.5894 6.75031-11.95971 11.44408-1.42238 4.87221 1.14964 7.80016 6.23266 7.89366 3.31597.061 5.92879-1.99622 9.91328-1.02953z"/><path d="m255.20358 318.46235a6.27517 6.27517 0 0 0 .83721-2.47206c.34135-5.65685-.805-11.15661-1.68028-16.68272-2.57123 12.57059.05451 12.2147-14.88568 15.9726a14.95953 14.95953 0 0 1 -1.78908.55466c-7.23532.84977-14.49132 1.75255-20.816-4.17719-.30538 2.54567.101 4.3546 2.07615 5.86437a22.76078 22.76078 0 0 1 4.04795 4.39485c9.50579 12.48022 26.35162 7.40453 32.20973-3.45451z"/><path d="m210.13587 403.38363c-1.54282.116-2.23392-1.38854-4.25064-2.22377a5.86275 5.86275 0 0 0 3.18609 4.70569 1.88023 1.88023 0 0 0 2.68826-1.217c.59277-1.67248-.66487-1.33703-1.62371-1.26492z"/><path d="m215.12214 330.76056c-1.83258.04841-2.23 1.66722-2.17314 3.29465.04952 1.41873.59364 2.49175 2.17979 2.37389 1.35732-.10091 1.83567-1.07623 1.69836-2.68481-1.23134-.47189.58128-3.04419-1.70501-2.98373z"/><path d="m200.16721 353.3607c-1.01677-3.02418-1.97077-6.19471-6.46649-7.62009 7.85075 11.024 2.45094 22.80243-5.22168 26.66354-6.66221 3.35266-11.40514 1.57641-13.871-5.46763-.41266-1.17908-.64625-2.42135-.95543-3.6362-.29762-1.16961-.586-2.34156-.87858-3.51247a30.74174 30.74174 0 0 0 3.85565 19.323 23.82033 23.82033 0 0 0 9.69545 10.10672c8.74826 4.60951 17.76355-.39368 18.38975-10.185.22424-3.50534.46877-7.01286.54832-10.523.072-3.17548-.08225-6.74255-2.19485-8.94595-1.86323-1.94337-2.16702-4.01968-2.90114-6.20292z"/><path d="m280.17257 316.53579a12.63989 12.63989 0 0 0 .00611 1.28241c.21591 1.89387.48643 4.38114 2.8426 3.9409 1.42119-.26552 4.903-1.12452 2.71639-4.52012-.47922-.74427.32027-1.567 1.00163-1.71539 3.29481-.71792 1.5875-3.03024 1.0979-4.33459-.69728-1.85758-2.428-1.46433-4.10429-.80592-2.98391 1.17203-3.7242 3.45004-3.56034 6.15271z"/><path d="m326.93207 480.28835a171.41185 171.41185 0 0 0 101.06071-119.41924 174.57943 174.57943 0 0 1 -101.06071 119.41924z"/><path d="m263.30614 329.48846c-2.15459-1.45474-1.80754 1.39666-2.91606 1.72581a34.198 34.198 0 0 1 -3.97957 1.03106c-1.34987.22888-2.78968.0435-4.095.39385-2.41948.64938-5.097 1.30689-4.75038 4.72729.38334 3.78247 2.24065 5.66362 5.80676 5.64024a19.57966 19.57966 0 0 0 8.7443-1.94541c2.56972-1.28775 4.25484-3.11241 3.8123-6.29395.57675-2.42729-.74238-4.00964-2.62235-5.27889z"/><path d="m257.82861 351.20016c7.76612-.983 10.19242-6.81168 12.747-13.86586-4.37385 2.65806-6.946 6.47516-11.30466 7.6897-4.44279 1.238-8.54668.33679-12.79764-1.62566 1.89217 5.85557 6.06119 8.47192 11.3553 7.80182z"/><path d="m172.72358 321.87384a5.673 5.673 0 0 0 1.36627 4.23344c2.75783 3.506 8.98875 4.86385 14.15576 3.0722 3.90485-1.354 8.54668-7.37042 8.484-11.03958-.00792-.45973-.11378-1.26779-.32534-1.32167-3.17342-.80829-3.86009-3.85881-5.53293-6.66505-3.34227 8.54189-7.91734 14.47982-18.14776 11.72066z"/><path d="m165.40158 282.82417a28.34671 28.34671 0 0 1 13.85893-7.95063c1.2448-.28786 3.25273.44876 3.63077-1.05467.44689-1.77744-1.06565-3.22675-2.30657-4.48352-1.593-1.61325-3.63672-2.14319-6.25445-2.28379a15.068 15.068 0 0 0 -12.06375 7.31459c-1.36509 2.21593-2.05191 4.77321-.76162 7.52846 1.02785 2.19489 1.74637 3.092 3.89669.92956z"/><path d="m185.50561 349.09425c-.39793-1.02028 1.71531-1.77046.31821-2.91558-1.01-.82782-1.91118-.23866-2.78627.173a12.14469 12.14469 0 0 0 -3.59107 19.82049c5.04189 5.09 6.89079 4.736 9.44482-1.892.33605-.8722 1.17326-1.69709.62431-2.86258-1.81737.57154-1.61175 3.02616-3.944 3.8154 1.60034-3.49932 3.17984-6.55215 4.40912-9.74 1.61246-4.18157-.05888-6.44845-4.47512-6.39873z"/><path d="m165.96511 297.33918c7.04808 6.04047 15.38074 3.95334 18.6918-4.63882a39.8935 39.8935 0 0 0 2.23209-15.18662c-6.49224 10.98114-18.51114 16.12311-26.07411 10.76106a13.71707 13.71707 0 0 0 5.15022 9.06438z"/><path d="m155.84376 311.72594-.32535-.22594.13027.456z"/><path d="m180.92416 316.85805a40.77773 40.77773 0 0 1 7.46954-3.32044c-3.04656-2.429-6.58923-2.52412-9.25949-.34746a3.93874 3.93874 0 0 0 -1.01122 4.13975c.4564 1.33965 1.95401.06569 2.80117-.47185z"/><path d="m176.52764 335.45279c-1.32784-.012-2.76345-.12163-3.45114 1.588 1.372.43846 2.66876.56183 3.80517-.394.13653-.11488-.2202-1.19279-.35403-1.194z"/><path d="m204.01477 291.37541c-2.95758.23256-5.93228 6.38586-8.87837-.50743-1.23212 3.33922.52146 4.60328 2.73921 5.3006 2.77953.87394 5.11226-1.03776 6.13916-4.79317z"/></g><path d="m402.2731 221.18728q-.686 1.09506-1.377 2.18518-.63088.99464-1.264 1.98055a169.86251 169.86251 0 0 1 -132.75144 264.16825c-38.80035 1.88365-74.26263-8.38531-106.0626-30.678a166.81444 166.81444 0 0 1 -46.19306-48.47557 179.94719 179.94719 0 0 1 -14.70522-29.19169 2.15375 2.15375 0 0 1 .68143-.08106c.92841.03732 1.14671.86407 1.48568 1.41528 16.22565 26.38043 40.37486 41.67184 69.6414 49.81541a13.29568 13.29568 0 0 0 2.16854.62343c4.86211.475 7.4346 2.36608 8.41008 7.907 1.25725 7.142 7.761 9.24115 14.22524 10.38957.93095.1654 1.88441.20467 3.20686.34159-3.28435-2.53268-6.23947-4.81738-9.20125-7.09345a11.11047 11.11047 0 0 1 -4.36466-7.26911c-2.39588-15.72468 5.48348-24.40127 20.91747-22.43474 7.05664.89906 13.16847 4.11412 18.60884 8.549 4.72059 3.8482 6.11294 9.15419 4.04471 14.94864-2.42092 6.78291-7.142 11.58678-13.91805 14.95409 5.35528.20962 11.37408-4.02814 12.14854-8.19265.12424-.66792.399-1.424 1.09077-1.16684 2.05285.76321 2.16806-.97334 2.25649-1.93852.27876-3.03951 2.21213-3.30067 4.6614-3.5753 4.48677-.503 8.94128-1.3282 13.38851-2.13392a3.044 3.044 0 0 1 3.65819 1.50937c6.45713 9.35953 14.25907 11.78583 24.96122 7.88261 6.23163-2.27278 12.71-10.61523 9.22963-18.76506-.90663-2.12318-.26434-2.85085 1.68028-3.80743 11.12227-5.47112 22.24421-10.96708 31.89046-18.94829 1.44369-1.19433 2.24873-.24595 3.09593 1.18724 3.76975 6.37707 9.53309 9.47034 16.226 8.56221-7.83728-4.695-12.25566-11.19853-10.93416-19.6798 1.457-9.35065 6.01452-17.47477 15.33289-21.43611 9.12947-3.88112 18.34372 1.91744 21.10748 12.852 2.973 11.76238-1.938 23.42392-13.1748 30.35014a12.53622 12.53622 0 0 0 11.17392-2.384 16.29566 16.29566 0 0 0 6.39153-11.18208c1.87236-12.43668.50775-24.34331-6.67186-35.07081-.79823-1.19259-1.32706-2.4891-.36608-3.35911 3.60352-3.26237 4.98176-8.0036 8.03284-11.6125.72834-.86146.91248-1.70751 2.54586-1.06237 8.04409 3.17711 14.7589.69059 20.36267-5.4353 13.02552-14.23911 10.5974-33.87418 3.29275-47.17438-.97018-1.76645-2.32956-3.65834-4.24217-4.142-3.43521-.86875-3.031-3.10591-3.021-5.67626.00951-2.426 1.326-4.59433.40554-7.31828-.84672-2.50582-.17987-5.52306-.61773-8.291-1.87981 5.54311-.07623 11.77454-3.78291 17.10466a3.21476 3.21476 0 0 1 -1.03007-3.20108c1.645-7.18088.09952-14.90913 1.98249-21.64284 1.67982-6.00739.00682-11.64649 1.23071-17.53582a18.63075 18.63075 0 0 0 .21568-6.2663q-.68936.89742-1.35542 1.73013a2.60089 2.60089 0 0 1 -.04216 2.0863c.0195 3.508-.68935 6.56624-4.046 7.65475-3.40384 1.10385-6.40151-.07864-8.57307-3.0649-3.38006-4.64805-4.36038-10.07306-4.78144-15.58039-.25118-3.28649.80171-6.71445 4.2653-7.57267a6.01857 6.01857 0 0 1 4.7675.83971q.21108-1.53286.44626-3.1292a7.8864 7.8864 0 0 1 -1.54131-2.80485c-1.13609-3.85173-2.44777-7.63856-3.96214-11.36021-6.27236 6.562-12.53172 12.40676-15.08932 12.81665a.65278.65278 0 0 1 -.16893.00594 13.61084 13.61084 0 0 1 -12.50557 8.85769c5.74417-2.74309 9.85527-6.18623 11.75932-11.09017.0588-3.41086 1.69075-10.39789 4.2531-18.65357.79236-2.55272 1.67252-5.22525 2.62384-7.95241-.6526-.79292-1.28791-1.59979-1.91436-2.41335q-1.52253.46746-3.08325.923a61.71764 61.71764 0 0 1 -4.51758 10.06834 19.84561 19.84561 0 0 1 2.16458 5.72511 18.993 18.993 0 0 1 .31266 2.05809 21.91761 21.91761 0 0 1 -.84006 7.29558 18.52075 18.52075 0 0 1 -4.47116 8.17827 12.0306 12.0306 0 0 1 -10.58123 3.40071 12.28736 12.28736 0 0 1 -2.81036-.78916 45.25111 45.25111 0 0 1 -6.53-3.37856 30.80912 30.80912 0 0 1 -3.98115 20.51463q.41076.22405.81851.45173c9.88728 5.55622 18.03152 13.17508 22.96257 24.49433a34.81491 34.81491 0 0 1 2.227 19.63265c-1.77949 11.109-8.31523 18.30533-19.02008 21.66448a39.55869 39.55869 0 0 1 -16.02431 1.5417c-1.16049-.11893-2.38121-.50751-3.8867.48743 3.74915.41666 7.01718.77988 10.65619 1.18434-4.91171 3.766-20.82825.4734-27.4876-4.89154 5.4128.89581 9.58634 3.33031 14.36129 2.70291a96.72511 96.72511 0 0 1 -26.356-14.1733c10.29385 3.62673 20.77969 3.47765 31.35744 2.60248a38.43632 38.43632 0 0 0 12.62934-3.52745c5.22437-2.34932 7.38119-7.21349 7.06282-12.36576a75.80681 75.80681 0 0 0 -11.49373-35.30558c-.11679-.18985-.23691-.37832-.35529-.56753a43.32536 43.32536 0 0 1 -8.13965 8.31713 20.87023 20.87023 0 0 1 -1.10028 3.53442c-.44831 1.17777-.92088 2.3433-1.409 3.50094-3.904 9.25962-8.99888 17.91418-14.09458 26.56272-.413.701-.77366 1.89942-1.85841 1.45236-1.064-.43845-.68936-1.50676-.18716-2.21406.78127-1.10036-.73468-1.46175-.70251-2.40839.07987 2.21184-1.83385 3.62748-1.77632 5.91377.05071 2.01724-1.489.99378-2.4175.49923a16.48853 16.48853 0 0 1 -8.9817-12.73c-.05815-.39634-.09722-.78832-.13969-1.18114a28.29209 28.29209 0 0 1 1.47459-12.77339 40.41781 40.41781 0 0 1 -8.23916-1.21921 151.64392 151.64392 0 0 0 21.39685-26.20659 326.60869 326.60869 0 0 1 -33.367 2.96376c.53976 4.18551-2.19817 7.493-4.918 10.71737-3.38965 4.01843-8.018 5.31779-12.12183 3.77423-4.09113-1.53885-7.05157-6.26218-7.12034-11.703 6.34985 5.36874 12.34282 4.54377 16.86056-2.04549-3.97228.30391-7.93378.44563-11.86264.43311a14.56259 14.56259 0 0 0 -.71709 1.77386 9.12866 9.12866 0 0 1 -2.76092-1.821 147.17771 147.17771 0 0 1 -26.39921-3.06475 11.30383 11.30383 0 0 1 -4.84238 1.04711q1.14458-.81552 2.23978-1.6249c-.507-.11735-1.00955-.23957-1.51215-.36211-.57827-.05741-1.13451-.11354-1.654-.16735q-1.9409 1.58048-3.96119 2.97993c1.45668 2.32285 3.58909 5.56386 6.26586 9.19876-.05039-.23438-.0954-.46952-.13708-.70513a14.74936 14.74936 0 0 1 4.00683 5.72594 114.07017 114.07017 0 0 0 8.42363 9.373 46.4732 46.4732 0 0 1 -27.21788-1.0746 47.07859 47.07859 0 0 1 -20.524-13.54135c-1.0582-.03348-2.12789-.09873-3.21153-.20269-.04921-.00471-.09667-.015-.14572-.02013-3.7539-.39408-7.11147-2.03249-10.63416-3.15777q-.24342.283-.4946.55906 1.59242.95041 3.185 1.90092c-4.15658.6077-7.24308-1.45324-9.81676-4.19248-1.19473-1.27163-3.63553-2.219-2.56584-4.81144l.01807-.01315c.402 1.2345 1.3513 1.89775 3.51588 2.90928-3.64234-4.4103-7.35584-7.43673-9.48112-11.67117l-.83578-1.00234a.86172.86172 0 0 1 1.42292.41773 47.92474 47.92474 0 0 0 15.58122 5.30572 45.41193 45.41193 0 0 0 5.9169.5287 28.86575 28.86575 0 0 1 -.96224-12.648q-2.00353-.75366-3.85993-1.60981-1.26806 1.30806-2.50617 2.6675c-1.70366 1.87307-2.83207 1.86249-4.583.3654a10.76263 10.76263 0 0 1 -3.7398-9.63745 53.06161 53.06161 0 0 1 -14.29006-17.58142c-.36068-.70351-.70005-1.40558-1.02508-2.10556q.35859 1.23278.69269 2.43213c.34 1.21992.66146 2.41275.9609 3.5692 1.50343.8932 1.6333 2.163.97754 3.972.338 1.45668.63159 2.83021.87936 4.1096 1.23887 6.39787 1.29837 10.37253-.3377 9.81882-1.57713-.53381-4.26578-2.81123-7.47184-6.013-1.47158-1.46959-3.052-3.1338-4.6851-4.91527-1.569-1.71143-3.1853-3.52864-4.8-5.38543q-2.8064 3.27654-5.45 6.69176c.90369 2.92961 1.75223 5.7822 2.53414 8.52283q.14226.49836.28176.9922c.80528 2.8545 1.53354 5.57738 2.16648 8.12043a12.39982 12.39982 0 0 1 4.31744-3.45312 2.26255 2.26255 0 0 1 2.78683.22756c.8315.80362.3064 1.5345-.00943 2.376-.91709 2.44377-1.717 4.93148-2.73081 7.89254 2.78294-.65556 4.25088-2.87953 7.16187-4.10227-2.21625 5.15255-4.0367 9.77723-7.07922 13.68224a5.19242 5.19242 0 0 1 -2.07069 1.63465 1.17927 1.17927 0 0 1 -1.64218.82374 9.9766 9.9766 0 0 1 -1.7642-.85782 5.1191 5.1191 0 0 1 -1.44036-.946 85.96686 85.96686 0 0 1 -10.6901-9.72651c-1.64678-1.70065-3.35147-3.52222-5.08556-5.42449a173.1974 173.1974 0 0 0 -23.09964 86.60358c-.049 96.532 77.87945 174.67309 174.23431 174.70946a174.44137 174.44137 0 0 0 144.04541-273.08181zm-47.28879 119.96613c-.08684-1.83507.94545-2.98808 2.74634-3.56675 1.82307.90306 4.2103 1.25372 4.23962 3.98861.02171 2.0296-1.12009 3.36394-3.18641 3.31727a3.59707 3.59707 0 0 1 -3.79955-3.73913zm12.74269 11.99692a13.1844 13.1844 0 0 1 -6.58931 8.26559c-.25561.65116-.65132.94889-1.332.52763l.78634-1.03189c1.61563-2.68021 3.13586-5.426 4.88208-8.01964a2.53448 2.53448 0 0 0 .56036-1.89165c1.01553.4358 2.06427.79478 1.69253 2.14996zm22.02013-9.62224c3.29053-6.61034 7.67722-11.89268 8.72346-18.62683.35367 7.13683-3.7698 16.37604-8.7235 18.62683zm3.35439-40.66074c2.03765 1.2406 2.83176 3.17576 3.6967 5.7923 4.13773 12.51643-2.51465 22.13752-7.282 32.355a15.06171 15.06171 0 0 1 -2.08059 3.13273c-.91233 1.1061-1.64463 2.80018-3.54805 2.12457-1.5375-.54578-1.70438-2.02255-1.81848-3.4313-.03835-.47466-.07559-.94941-.17416-2.18767a37.29927 37.29927 0 0 0 -3.22857 3.59313c-1.90817 2.85339-3.04775 1.5438-4.01237-.65707a8.90556 8.90556 0 0 1 -.82343-2.87466c-.69807-10.23782-1.35019-20.46119 2.16474-30.4247 2.95407-8.374 10.1592-11.65213 17.10617-7.42233zm-14.00837-25.6948c-.43564 4.50649-2.37 8.06259-7.19419 9.88 5.89313-6.27018 6.064-13.00761 2.12227-20.23315 3.41299 2.7366 5.49453 5.97934 5.07188 10.35315zm-12.0985-10.10555a4.21943 4.21943 0 0 1 5.15053 2.05c1.44084 2.43946 1.66333 5.18825 1.79281 7.95661-.168 1.92.203 4.68216-2.11815 4.93921-2.28819.2534-5.32723-.03978-5.77729-3.641-.29254-2.34215-.81534-4.655-1.13229-6.99483-.2515-1.85535.12916-3.69911 2.08439-4.30999zm-5.29648 54.66472c.58239.37736 1.251 1.00923.72993 1.85579a1.66283 1.66283 0 0 1 -2.32242.47812c-3.14379-1.43791-3.2487-4.02268-2.45443-7.37985 2.00326 1.56445 2.26775 3.89274 4.04692 5.04591zm-3.61049-32.11977c-.049-.5728-.09429-1.38331.77193-1.4053 1.12357-.02852.94893.97.9895 1.63524.40331 6.63582-1.10868 12.5969-6.20691 17.2606-.30316.59118-.79363 1.57882-1.32024 1.15491-.61709-.4967.45783-1.10282.71123-1.69978 2.04256-5.54005 5.59536-10.62762 5.05449-16.9457zm-10.96822 18.47855q.387-.36395.77382-.728l.6575-.743a48.2232 48.2232 0 0 0 6.07823-10.65168 15.46885 15.46885 0 0 1 -5.51961 11.12936l-.75829.74989q-.39864.356-.79712.71194c-.36084.83079-1.07635 1.2099-2.60371 1.76119 1.02944-1.05815 1.59931-1.64391 2.16918-2.2297zm-28.06571-38.59969a.6469.6469 0 0 1 .7632-.44646c-.08272.26093-.41044.35451-.7632.44646zm-10.982 20.09409c1.43022-6.64406 4.83342-12.36069 8.52727-17.92582.257-.38731 1.01946-.43929 1.54685-.64724l.01886-.00516c-3.2227 6.52624-6.69009 12.93231-8.93945 19.81811-1.05387-.27412-1.27066-.69534-1.15355-1.23989zm-94.77395-37.0819-.01744-.20023c.03107.02857.06038.058.09128.08672zm-122.162 77.8787c.96209 6.048 3.28776 11.79736 3.54623 17.98248-3.50235-5.53818-3.95923-11.67218-3.54625-17.98249zm16.12969 14.00794c2.57178 5.06238 1.52316 8.90412-3.47515 12.09227 2.35504-4.1533 4.06402-7.80919 3.47513-12.09228zm-2.90782 5.48518c-1.44353.6917-2.369-.24658-3.06708-1.38434a10.33127 10.33127 0 0 1 -1.3639-5.01147c.10958-.50216.24405-1.36587.49285-2.19532.2942-.98055.74316-2.036 1.951-1.93781 1.04275.08474 1.12841 1.14651 1.364 1.99561.50045 1.80425.97524 3.625 1.63591 5.37259.53643 1.41915.32091 2.52169-1.0128 3.16073zm-3.89724-30.0782c-.0794 2.0655.34032 4.25-2.042 5.22905a1.93479 1.93479 0 0 1 -2.34833-.66534c-1.53441-1.99522-.486-3.81152.55394-5.49759.736-1.1933 1.03713-3.52479 2.614-3.16415 1.88756.43167.98378 2.71008 1.22237 4.09802zm.29769 45.59409c-.44975-1.474-.46607-3.08167 1.26485-3.917 1.76689-.85274 2.47416.65129 3.2979 1.686 3.00694 3.7764 5.48411 7.801 5.91294 12.78924a4.61371 4.61371 0 0 0 .78729 2.042c.97192 1.46548 2.21989 2.809 1.30012 4.77669-.96986 2.07453-2.86361.67791-4.26713 1.11965.486-.818-.31021-1.0279-.81359-1.37673l.00625-.00975a67.16666 67.16666 0 0 1 -7.48865-17.11011zm12.87663 22.12749c-1.98194.66507-3.64321-.17551-4.88326-1.82747-.99275-.832-1.98551-1.66389-2.83286-2.37388.68761-1.31826 1.46714-.25986 2.02528-.49915-.287.699.28185.99184.93848 1.2431q.23628.528.47272 1.056c2.29025 1.04105 4.33075.87386 5.95732-1.57974.45083 2.02594-.05543 3.43682-1.6777 3.98113zm67.214 43.44622c-.15118.8529-1.20827 1.22389-2.38787 1.18047-6.02894-.22183-11.30149-2.68509-17.04-5.27133a3.51514 3.51514 0 0 1 3.79273-.31365c4.34089 1.81 8.93446 2.343 13.5377 2.91011.86798.10692 2.32775.19543 2.09741 1.49439zm-16.34727-40.10676c3.7093 4.22564 3.04585 14.51553-1.47641 20.623a43.0222 43.0222 0 0 0 1.47638-20.62301zm3.479 30.97028c2.4259-.34091 4.52273-.58345 4.905 2.51053-1.393-1.12295-4.01612.22522-4.90499-2.51054zm4.93262 2.53c.01355-.283.14825-.4526.50743-.37942.0855.01739.14873.14484.22218.22158l-.71764.16624zm9.74324-11.69007c-2.01412-.209-4.11515-.81071-4.22576-3.30321-.0859-1.93345 1.32324-2.78916 3.41889-2.80893 1.87054.26572 3.83758.87437 3.96705 3.35051.1031 1.97367-1.28473 2.95629-3.16017 2.76164zm-1.01209-22.16018q-.5597-.5418-1.1193-1.08356l-.70171-.81193c-.297-.09033-.71567-.1395-.45641-.57764.05087-.08593.56219.1006.86115.16145.26409.19349.52676.39024.78943.587q.65691.545 1.31461 1.091a32.46125 32.46125 0 0 0 10.96823 3.157 11.55894 11.55894 0 0 1 -11.65599-2.52331zm23.619-21.99806c-.07955 3.5101-.32408 7.01762-.54832 10.523-.6262 9.79129-9.64149 14.79448-18.38975 10.185a23.82033 23.82033 0 0 1 -9.69545-10.10672 30.74174 30.74174 0 0 1 -3.85565-19.323c.29254 1.17091.581 2.34286.87858 3.51247.30918 1.21485.54277 2.45712.95543 3.6362 2.46584 7.044 7.20877 8.82029 13.871 5.46763 7.67262-3.86111 13.07243-15.63957 5.22168-26.66354 4.49572 1.42538 5.44972 4.59591 6.46649 7.62009.73412 2.18324 1.03791 4.25955 2.90116 6.203 2.11258 2.20333 2.26683 5.7704 2.1948 8.94588zm-14.39188-58.35646c1.67284 2.80624 2.35951 5.85676 5.53293 6.66505.21156.05388.31742.86194.32534 1.32167.06268 3.66916-4.57915 9.68558-8.484 11.03958-5.167 1.79165-11.39793.43378-14.15576-3.0722a5.673 5.673 0 0 1 -1.36627-4.23344c10.23039 2.75917 14.80546-3.17876 18.14773-11.72065zm-11.73713 3.037c2.67026-2.17666 6.21293-2.08154 9.25949.34746a40.77773 40.77773 0 0 0 -7.46954 3.32044c-.8472.53754-2.34477 1.8115-2.80117.47185a3.93874 3.93874 0 0 1 1.01119-4.13977zm82.982 27.87115a19.57966 19.57966 0 0 1 -8.7443 1.94541c-3.56611.02338-5.42342-1.85777-5.80676-5.64024-.34666-3.4204 2.3309-4.07791 4.75038-4.72729 1.30534-.35035 2.74515-.165 4.095-.39385a34.198 34.198 0 0 0 3.97957-1.03106c1.10852-.32915.76147-3.18055 2.91606-1.72581 1.88 1.26925 3.1991 2.8516 2.62233 5.27889.44248 3.18152-1.24263 5.00618-3.81235 6.29393zm-23.54408 52.67228a3.281 3.281 0 0 1 -2.86567-2.97042 1.55941 1.55941 0 0 1 1.25162-2.01526c1.10527 1.15662 3.36272 1.23633 3.59559 3.2603a1.67189 1.67189 0 0 1 -1.98161 1.72536zm-.89973 20.911c-1.9684 1.16264-7.5796-.74359-8.63075-2.87343-1.21256-2.45657-.10349-4.23519 2.6606-4.26244 3.026-.14136 5.12073 1.60747 6.87431 3.67744 1.05116 1.24095.48985 2.63504-.90423 3.45846zm-14.67848-92.72777a22.76078 22.76078 0 0 0 -4.04795-4.39485c-1.97513-1.50977-2.38153-3.3187-2.07615-5.86437 6.32465 5.92974 13.58065 5.027 20.816 4.17719a14.95953 14.95953 0 0 0 1.78908-.55466c14.94019-3.7579 12.31445-3.402 14.88568-15.9726.87524 5.52611 2.02163 11.02587 1.68028 16.68272a6.27517 6.27517 0 0 1 -.83721 2.47206c-5.85821 10.85907-22.70404 15.93476-32.2098 3.45454zm7.88142 30.97543a5.29864 5.29864 0 0 1 3.8249 1.27666c.84157.7741 1.75144 1.83738 1.50216 2.86979-.22756.94256-1.49329.7113-2.50244.70548-1.6505-.00959-7.63776 4.72891-10.32927 7.77975-3.15827-7.09508.0947-12.55863 7.50458-12.63165zm-10.89771.48937c-.641.25058-1.03356-.11252-.90409-.6915a3.69235 3.69235 0 0 1 2.09057-2.88817c.75964-.04742 1.33435.26644 1.25178 1.01784-.15553 1.41455-1.23101 2.08989-2.43833 2.56186zm.57106-51.39071c1.37031-4.69377 7.651-12.07084 11.95971-11.44408 3.71975.7766 7.41716.02548 11.12868-.18537 4.28582-.2435 6.66616 2.48184 6.028 6.73058-.86835 5.78121-7.56589 13.07413-12.97045 11.763-3.98449-.96669-6.59731 1.09053-9.91327 1.02952-5.0831-.09346-7.65512-3.02141-6.23274-7.89357zm42.12281-17.4424c2.731-.1032 3.34 1.61936 3.35344 3.88833.01863 3.15508-2.0683 5.67092-4.82827 5.58641-2.803-.08581-3.94288-2.002-4.11752-4.46933-.18263-2.5773 2.54326-4.89508 5.59228-5.00538zm-67.53513 6.31948c2.94609 6.89329 5.92079.74 8.87837.50743-1.0269 3.75541-3.35963 5.66711-6.13916 4.79317-2.21775-.69734-3.97133-1.9614-2.73921-5.3006zm-5.62079 70.5496c.54895 1.16549-.28826 1.99038-.62431 2.86258-2.554 6.62793-4.40293 6.982-9.44482 1.892a12.14469 12.14469 0 0 1 3.59107-19.82049c.87509-.41163 1.77632-1.00079 2.78627-.173 1.3971 1.14512-.71614 1.8953-.31821 2.91558 4.41624-.04972 6.08758 2.21716 4.47512 6.39874-1.22928 3.18784-2.80878 6.24067-4.40912 9.74 2.33225-.78927 2.12663-3.24389 3.944-3.81543zm-16.43911-24.3768c.68769-1.70964 2.1233-1.6 3.45114-1.588.13383.00118.49056 1.07912.354 1.194-1.13638.95583-2.43316.83246-3.80514.394zm38.68308 67.60772a1.88023 1.88023 0 0 1 -2.68826 1.217 5.86275 5.86275 0 0 1 -3.18609-4.70569c2.01672.83523 2.70782 2.33973 4.25064 2.22377.95884-.07208 2.21648-.40753 1.62371 1.26492zm3.36921-68.21942c-1.58615.11786-2.13027-.95516-2.17979-2.37389-.05682-1.62743.34056-3.24624 2.17314-3.29465 2.28629-.06046.47367 2.51184 1.705 2.98373.13732 1.60858-.34103 2.5839-1.69835 2.68481zm8.9748 81.02288a4.07852 4.07852 0 0 1 -3.06717-2.87549c-.09769-.37839 1.3143-1.68576 1.85929-1.58909 1.55256.27551 2.5797 1.35106 2.22226 2.89221.13185 1.08027.16925 1.88753-1.01438 1.57239zm-4.96844-43.23498a25.27874 25.27874 0 0 1 -.25705-13.66107c.44072 1.813.3095 3.73524 1.17207 5.41133.75584 1.46857 1.54685 3.10983 3.58775 1.35593a1.52619 1.52619 0 0 1 2.24873-.13165c4.00928 2.82807 8.26349 2.34917 12.07215-1.15134.35078-.32242.528-.874 1.28593-.73044a18.44892 18.44892 0 0 1 -1.01173 9.46824c-1.78258 4.576-5.78346 6.96263-11.1053 6.70087-4.04404-.19897-6.5487-2.42987-7.99255-7.26187zm7.30988 37.1831c2.00373 2.92319 3.65264 5.80149 7.35877 5.81663 3.30011.01347 5.83259-1.77636 8.263-4.02585.55577 4.04245-1.48251 6.54949-5.37445 7.04345-5.16272.65529-9.54149-2.93654-10.24735-8.83419zm7.1728 25.80977a1.4381 1.4381 0 0 1 -1.57594-1.2992c-.1202-1.05935.49119-1.16157 1.33585-1.27856a162.86731 162.86731 0 0 1 16.74972-1.75687c-5.02098 3.83025-10.66864 4.48046-16.50963 4.33467zm12.85548-93.81157c4.251 1.96245 8.35485 2.86365 12.79764 1.62566 4.35864-1.21454 6.93081-5.03164 11.30466-7.6897-2.55458 7.05418-4.98088 12.88289-12.747 13.86586-5.29411.67014-9.46313-1.94621-11.3553-7.80178zm53.23769 12.85243c2.25095 1.39963 2.48041 3.2649.61614 4.93608-7.84425 7.03168-15.67884 14.15139-25.17944 18.92424-3.95525 1.98693-8.58147 2.25309-12.07517-.77085-3.58545-3.10338-4.768-7.4144-3.34385-12.31818 5.5395-19.07416 24.98127-26.168 41.13457-14.91734.47859.33327.8987.75018 1.51865 1.27389-1.82165.49939-3.30289.90543-4.94024 1.35431.46023 1.06303 1.5342 1.06078 2.26934 1.51785zm-39.06062 45.88427c2.13328.73317 4.253 1.51231 6.41054 2.16605 1.57895.47839 2.27052.94992 1.51524 2.90556-.623 1.61337-.658 3.22964-3.82807 2.59578a17.36008 17.36008 0 0 1 -6.57742-3.29453c-.99838-.819-1.7188-1.91986-.79712-3.2775a2.60239 2.60239 0 0 1 3.27683-1.09536zm-7.23627 23.09842c-.4.26021-1.16066-.805-.96495-1.6316a2.86564 2.86564 0 0 1 2.5122-2.36885c.54649-.06585 1.18854.31346 1.06232 1.29108a14.868 14.868 0 0 1 -2.60957 2.70935zm25.07437 16.07236c-4.55641 3.58224-14.15385 3.73457-19.0364.6268-5.12374-3.26133-5.46708-9.28675-.88238-15.486 3.40575-4.60523 11.42685-7.44332 16.92618-5.98893 5.23951 1.38568 8.03331 5.70368 7.798 12.573 1.14383 3.92135-2.05988 6.11651-4.8054 8.27511zm16.3655-25.21308c-1.35558-.06046-1.659-1.07575-1.48172-2.11122.3835-2.23946.98412-4.53062 3.5883-5.10964a1.81948 1.81948 0 0 1 2.31545 1.78365c.06307 2.21413-2.82526 5.50851-4.42201 5.43719zm16.58276-9.01984c3.41557-1.82918 4.142-5.67274 6.37474-8.49716 1.79407 3.7103-1.78568 8.58794-6.37474 8.49714zm15.86964-30.4224a23.477 23.477 0 0 0 -.89157 2.83912c-.24119 1.0565-.06561 2.65882-1.57332 2.47693-1.52768-.18431-1.38632-1.81055-1.46032-3.04126a6.01317 6.01317 0 0 1 1.20613-3.50114c.813-1.0338 1.70295-2.66781 3.24648-1.652 1.32832.87404-.17559 1.91905-.5274 2.87833zm1.2326-13.4347c-2.18217-.75109-2.81527-2.84194-3.29766-5.48753a31.2033 31.2033 0 0 0 12.24837 1.64293c-2.72209 2.27969-5.12929 5.15984-8.95069 3.84458zm8.45913-33.14671-.17749.32982q-.13811-.22179-.27654-.44365zm-17.53233 2.75386c3.60414-3.24779 7.85455-4.34949 13.02076-3.80252-1.47791 2.16327-4.15864 2.14976-5.56557 4.17243 2.12988.01217 4.21586-.59918 6.82115.5322-3.66151 3.16517-6.94729 6.0243-10.26555 8.84532-.33644.286-1.038.61555-1.28253.46322-2.2622-1.40938-4.41885-3.01665-5.30567-5.66375-.78349-2.33856 1.21755-3.32137 2.57741-4.54692zm-4.222 8.15434c8.043 7.69291 17.47227 5.23864 22.59951-5.18991 1.38077-2.80826-.68825-3.55863-.9678-5.25005 2.9888.5482 4.68494 1.90956 5.43229 4.65633 1.747 6.42034-.17337 11.94209-4.70189 16.48935-3.67118 3.68636-9.41265 3.659-15.40753.41833-5.30428-2.8673-7.5771-6.50284-6.95462-11.12407zm-1.59709 19.52672c5.99 11.487 3.93013 28.09439-5.24022 35.51928-16.97515 13.744-36.38364 11.60482-47.2323-7.15675-1.24924-2.16042-2.20365-4.49136-3.29473-6.74322-.03027-.31338-.20015-.791-.06308-.90746.33185-.282.62756-.018.7831.35209 6.288 5.539 13.63477 6.51046 21.53884 4.92756a58.49376 58.49376 0 0 0 25.79615-11.74966c4.45495-3.60681 7.46831-8.12148 7.7122-14.24186zm-11.36853 8.56427c-3.31557 5.04368-9.82889 7.68221-16.426 6.45444 5.14323-4.08412 10.08331-7.90249 14.89043-11.88127 1.65857-1.37273 2.2603-.31278 2.70735.88286.63414 1.6969-.26994 3.17213-1.17182 4.54395zm-2.3061-42.91807c1.61088.28545 2.46964 1.83916 3.07374 3.00155-.21124 1.6211-.77224 2.89653-2.03336 2.62313a3.421 3.421 0 0 1 -2.69119-3.23087c-.08292-1.22046.3055-2.63221 1.65075-2.39383zm-12.13486-14.96117c.4896 1.30435 2.19691 3.61667-1.0979 4.33459-.68136.14841-1.48085.97112-1.00163 1.71539 2.18661 3.3956-1.2952 4.2546-2.71639 4.52012-2.35617.44024-2.62669-2.047-2.8426-3.9409a12.63989 12.63989 0 0 1 -.00611-1.28241c-.16386-2.70267.57645-4.98068 3.56034-6.15271 1.67632-.65841 3.40701-1.05166 4.10429.80592zm-14.21059-29.44776a4.78886 4.78886 0 0 1 2.70918-3.31739c1.34242-.64566 1.98424.699 2.75917 1.43172.55521.52491 1.09837 1.06276 1.64067 1.60149l-7.12265.39c.00611-.03518.00602-.07091.01363-.10582zm-6.98635-18.79948c3.39829.56733.75845 4.17231 2.12686 5.818.06006 1.67517-.62359 2.88389-2.099 2.63267-2.46315-.41944-2.253-2.67606-2.32021-4.491-.06549-1.76716.20795-4.30768 2.29235-3.95967zm-37.561 6.18956c.73793-3.772 3.71041-6.66478 7.02931-6.53947a4.64735 4.64735 0 0 1 4.00809 3.58331c.65521 2.24624-1.04259 5.03738 1.58 6.83783.09619.06605.02789.48834-.06751.69716-.50078 1.09569-7.58555 3.734-8.87036 3.32385-3.247-1.03657-4.49743-3.72209-3.67955-7.90268zm-1.79145 4.31727c1.58029 6.59279 6.09621 6.01409 11.36773 4.6763-1.36588 3.78568-3.64852 4.50305-6.52037 3.75894-3.56566-.92383-5.42961-3.90652-4.84738-8.43524zm-28.54938 7.62528c2.13606.251 2.65688 2.61013 3.15092 4.70075a16.851 16.851 0 0 0 .4675 1.71c-.02821 2.21161-.83421 3.48775-2.87351 3.38526-2.63121-.13225-3.852-1.8657-3.53855-4.264a18.416 18.416 0 0 1 .59832-4.24383 1.90053 1.90053 0 0 1 2.1953-1.28818zm-36.4719-6.70772a15.068 15.068 0 0 1 12.06375-7.31459c2.61773.1406 4.66148.67054 6.25445 2.28379 1.24092 1.25677 2.75346 2.70608 2.30657 4.48352-.378 1.50343-2.386.76681-3.63077 1.05467a28.34671 28.34671 0 0 0 -13.85893 7.95063c-2.15032 2.16244-2.86884 1.26533-3.89669-.92956-1.29031-2.75525-.60349-5.31253.7616-7.52846zm24.62249 3.14759a39.8935 39.8935 0 0 1 -2.23209 15.18662c-3.31106 8.59216-11.64372 10.67929-18.6918 4.63882a13.71707 13.71707 0 0 1 -5.15022-9.06438c7.56295 5.36205 19.58185.22008 26.07409-10.76106zm-31.39325 33.90663-.00063-.00214a9.93859 9.93859 0 0 0 1.277-8.25838c-.14635-.61662-.35014-1.22658.26853-1.695a1.021 1.021 0 0 1 1.34425.17983c2.06237 1.68528 2.12417 3.91325 1.29568 6.12581-.70653 1.88699-1.09653 4.4718-4.18485 3.64988zm.348.30557-.19508.23007-.13027-.456zm-.46116-48.08979c.49745-1.28795 1.862-.94422 2.917-1.07255a.96838.96838 0 0 1 1.18617 1.04125c-.64863 1.19092-1.76713 1.16557-2.89736 1.09762-.69252-.04164-1.41128-.53429-1.20582-1.06632zm-.96716-20.64451-.27432.60735-.26821-.21295q.27134-.19723.54252-.3944zm-.09683 91.38583c1.4185.33925 2.627.9796 2.46458 2.69031a3.22639 3.22639 0 0 1 -2.71132 3.12644c-1.65675.11529-1.98028-1.606-2.07187-2.99344a2.373 2.373 0 0 1 2.3186-2.82331zm-5.52025 37.40253a8.83636 8.83636 0 0 1 -5.86049 9.78515c-3.7207 1.0958-10.03181-.20546-11.79434-4.76921a73.57491 73.57491 0 0 1 -4.92138-19.63016c-.07694-7.151 1.31009-9.04028 6.9118-10.53714 3.85976-1.03142 6.7679.54883 9.22771 5.21832a62.02811 62.02811 0 0 1 6.4367 19.93304zm-.27067 8.77722c-.90805 3.46651-2.61314 5.05723-5.81739 5.53526a7.39066 7.39066 0 0 1 -7.955-3.75252c5.01533 2.84757 9.46335 1.72526 13.77239-1.78273zm-5.25481-98.63259c-.09651 3.70466-1.66586 5.57551-4.80553 5.55388-2.92977-.02021-4.70831-1.31188-4.6202-5.53756 2.32551 4.64105 4.79722 3.03912 9.42573-.01631zm-7.01361-3.74456a3.67387 3.67387 0 0 1 3.58751-3.58157c1.72807-.074 1.64344 1.45 1.59241 2.691-.43405 1.91364-.98665 3.84388-3.37325 3.69159-1.4257-.09109-1.96285-1.45859-1.80667-2.80101zm-2.28574-21.12416a1.63295 1.63295 0 0 1 1.2399-.58659c.82477.12488.61551.919.7197 1.63417-.92144 2.11094-.62937 4.98639-3.40281 6.166a1.17625 1.17625 0 0 1 -1.54083-.72082c-.61583-2.85956 1.45304-4.57994 2.98404-6.49275zm-4.29731 45.04557c1.31882-1.98091 2.42908-1.34041 3.43918.07674 1.44242 2.02358 1.59313 4.41529 1.56144 6.81318a18.31606 18.31606 0 0 1 -1.45748 7.66673c-.61773 1.32376-1.54558 2.33914-3.12786 2.25808-1.7634-.09029-2.64721-1.30225-2.99735-2.872a17.336 17.336 0 0 1 2.58207-13.94272zm-5.89875 7.74532c.33683 3.64864.17788 7.31959 1.12 10.84569.79015 2.95746 1.88092 5.89523 5.68443 6.06321 3.73259.16489 5.61232-2.0714 6.80467-5.31506 1.16461-3.16851.68206-6.59224 1.45771-10.09116 3.14006 1.71448 1.60882 4.4918 2.26759 6.57512 1.14742 3.6284-.16481 7.302.307 10.98435.25316 1.97553-5.7738 6.1497-8.21357 6.34312-4.56759.36211-7.17653-1.14437-8.75492-5.42687-2.41839-6.5616-1.52692-13.29539-.67291-19.97839zm.1099 59.20342c1.938 6.13243 4.2363 12.06989 7.95708 17.39969a16.20859 16.20859 0 0 0 6.85015 5.65048c6.23211 2.75061 12.21525-.07354 14.304-6.715 1.8684-5.94075 1.07643-11.96367.09366-17.92982-.57961-3.51873-1.48639-6.98359-2.24421-10.46452.999-.25122 1.11612.47058 1.36 1.004 5.94163 12.99728 10.35367 26.41407 11.19532 40.81165.2702 4.62361-.10784 9.16909-2.23684 13.34956a7.90426 7.90426 0 0 1 -11.13431 3.5246 16.28666 16.28666 0 0 1 -3.49686-2.20911c-13.46149-12.078-23.83663-25.84139-24.26332-44.96384a16.89592 16.89592 0 0 0 -.22408-1.76056c1.87776-.14117 1.56509 1.43497 1.83941 2.30288zm-8.64533-104.44652c.14944-1.76377-.28938-4.78862 1.6085-4.82289 2.45585-.04441 1.60089 3.08927 2.20182 4.74405-.04057 1.53322-.15023 3.12322-1.95888 3.12845-1.87727.00544-1.96087-1.75821-1.85144-3.0496zm.08613 28.70206a29.86679 29.86679 0 0 1 -7.32375 15.00215c-1.78583 1.93951-3.98005 3.21213-6.7042 2.38775-2.75045-.83226-3.18063-3.64741-4.38122-5.76477a1.51168 1.51168 0 0 1 .12892-1.38731c.60719-.69716 1.35035-.20332 2.04192.0494 4.79959 1.7539 4.79935 1.7499 6.90118-2.78262a24.72288 24.72288 0 0 0 2.35071-8.15422c1.39939.86581 2.08067.53357 2.38264-1.21529a35.27026 35.27026 0 0 0 -.007-10.72509c.37051 0 .55473-.05424.61242.00828.67686.73338 4.18086 11.62229 3.99838 12.58173zm-9.128-9.71507c1.40169.34325 1.36033 1.398 1.38521 2.6383.04247 2.12548.43073 4.244.67541 6.36542-2.128 1.03507-2.785 3.809-5.26241 4.4536-1.067.27761-2.09153.96376-3.16.027-1.04838-.91918-.7663-2.01058-.41472-3.10892a34.1024 34.1024 0 0 1 4.08963-8.81c.66005-.97761 1.3477-1.89331 2.68692-1.56539zm-2.48256-17.95882c.63-1.95524.50687-4.60027 3.09133-5.73462a1.96387 1.96387 0 0 0 1.29258-1.63651c.2286-1.49242 1.27333-2.55264 2.49817-2.10127 1.1395.42.55917 1.99644.25609 3.02009-.7453 2.51739-2.00674 4.86187-2.31719 7.5361-.15744 1.35728-.51385 2.92482-2.49515 2.55047-1.80632-.34126-2.33625-1.70385-2.32579-3.63425z" fill="#999"/><path d="m378.5093 217.092a26.43718 26.43718 0 0 0 -2.32258-9.42676q-.85861.92362-1.72736 1.842c1.36764 2.51547 2.61829 5.10638 4.04994 7.58476z" fill="#999"/><path d="m348.86836 211.68837a51.33784 51.33784 0 0 1 -4.90869 5.00545 13.54965 13.54965 0 0 0 4.90869-5.00545z" fill="#999"/><path d="m309.66264 263.26457c-1.12278.56975-2.27662 1.10555-3.46549 1.59749-.17558.07262-.352.136-.52771.20641-1.10186 2.60363-2.00183 5.329-2.85774 8.08889a118.00422 118.00422 0 0 1 6.85094-9.89279z" fill="#999"/><path d="m127.49779 240.2549c.29737-.37824 1.34345-.45957.73793-1.16759-.277-.32392-.67542-.147-1.04561.10269.058.31278.1141.62157.16656.9231l.00008.00024c.01378.0792.02591.15491.0393.23327.03391-.0313.0679-.05982.10182-.09167z" fill="#999"/><path d="m381.12 202.23863q.73191.76293 1.45541 1.539.16854-.89913.34009-1.8018.21513-1.13186.4339-2.26762-.61068.70017-1.25685 1.43287-.47755.54129-.97255 1.09755z" fill="#999"/><path d="m304.98294 450.82467c-2.39263 1.0012-3.79622 3.55954-4.72678 6.38218-.42455 1.28815-.46385 3.08507 1.2502 3.384 2.14921.37483 2.48612-2.64249 2.30356-3.00381-1.50549-2.98065 2.39738-4.42398 1.17302-6.76237z" fill="#999"/><path d="m209.77732 458.94245c8.51348 1.2681 16.24466-1.08915 21.73139-6.67916-7.47905 3.04236-13.80339 7.64571-21.73139 6.67916z" fill="#999"/><path d="m339.1592 444.03966c-2.82351-.79748-2.88357.39281-2.28581 2.58192.35276 1.292-.4339 2.494-1.52356 4.36394 2.659-.8962 4.63153-1.54634 5.81485-3.19093a4.7871 4.7871 0 0 0 .79886-3.75331c-.55307-1.56228-1.94654.24072-2.80434-.00162z" fill="#999"/><path d="m311.52945 428.787c-1.49123.915-2.96962 1.8514-4.46513 2.75961-.6957.42261-1.97774.42847-1.74558 1.56456.24294 1.18895 1.48885 1.11217 2.27805 1.22266 2.77422-.33976 4.62741-1.62026 5.54005-4.13135.21426-.58959.5545-1.2.01157-1.73559-.63563-.62713-1.12135.01481-1.61896.32011z" fill="#999"/><path d="m370.49025 411.76617c-4.106 3.643-8.14582 6.62916-13.36085 7.44985 5.8266.68655 11.58152-2.4366 13.36085-7.44985z" fill="#999"/><path d="m389.90619 371.06985a5.67366 5.67366 0 0 0 -2.23034 3.2685c-.0775.56742.55687.808 1.04576.77335a4.71535 4.71535 0 0 0 4.1279-2.692c.61139-1.22832 1.10868-2.52285.12947-3.57186a32.61138 32.61138 0 0 0 -3.07279 2.22201z" fill="#999"/><path d="m140.931 422.67739c-3.22936-.61206-5.32612-3.45269-9.19507-4.7696 2.45458 3.322 4.804 5.32806 7.90732 6.43162.758.26952 1.45843.46468 1.85405-.48544a.84348.84348 0 0 0 -.5663-1.17658z" fill="#999"/><path d="m394.69033 279.12109c-.05023 3.43415-1.71816 6.857-.02345 10.3034a11.9514 11.9514 0 0 0 .02345-10.3034z" fill="#999"/><path d="m396.50643 267.23158c.97461-.10083 1.20994-.83178.99426-1.61024-.51377-1.85536-.63627-3.885-2.92921-5.24839.15784 1.88456.33469 3.76778.46527 5.65424a1.165 1.165 0 0 0 1.46968 1.20439z" fill="#999"/><path d="m332.50841 423.0721c-.964-.14547-1.91372-.38544-3.14854-.64185-.0748 2.11854 1.28348 2.29516 2.46727 2.56235 1.229.27737 3.00607.38208 3.17928-.91808.23819-1.78824-1.53481-.85706-2.49801-1.00242z" fill="#999"/><path d="m247.92413 458.81274c-1.20487-.07722-2.18582-1.3223-3.61429-.55577.48556 1.5097 1.69883 1.94724 3.05892 2.18 1.20368.206 3.08016.55057 3.23087-.66412.25137-2.02785-1.74004-.90021-2.6755-.96011z" fill="#999"/><path d="m243.26487 476.70738a.81187.81187 0 0 0 1.22452-.4339c.642-1.84759-.9693-2.78468-1.87537-4.81088-.72819 2.5362-.97033 4.1008.65085 5.24478z" fill="#999"/><path d="m405.02483 285.41108c1.52625.15475 1.52371-1.38909 1.90373-2.294.28937-.68861-.27669-1.38363-1.20661-1.75632a2.64592 2.64592 0 0 0 -1.49091 2.24544c-.10238.73598-.11775 1.71245.79379 1.80488z" fill="#999"/><path d="m161.01917 248.10723-.009.00666c.305 1.40256 1.69154 1.37962 2.6068 1.97794q.25126-.276.49468-.55906c-.90532-.74743-1.67534-1.78832-3.09248-1.42554z" fill="#999"/><path d="m160.90047 247.67262-.27519.12551.38485.31576.0088-.0065q-.05943-.21728-.11846-.43477z" fill="#999"/><path d="m288.39146 347.75559c-.79712.558-2.22909.65679-2.13242 2.09937a1.676 1.676 0 0 0 1.76127 1.58461c1.129-.12214 1.48838-1.19643 1.60311-2.23193.09049-.81716-.06434-1.5154-1.23196-1.45205z" fill="#999"/><path d="m376.18672 207.66522c1.70929-1.83856 3.37864-3.67954 4.93326-5.42659q.49419-.55552.97255-1.09758.64609-.73233 1.25685-1.43287.12836-.66411.25783-1.32928c1.69645-8.71632 3.5536-17.52956 5.35417-25.57951a20.327 20.327 0 0 0 -2.84316-1.90773c-.37971.14651-.7705.27523-1.16732.39424a16.02549 16.02549 0 0 1 -1.78123.43758q-5.80677 2.83886-11.63619 5.34937c-.13423.058-.26846.11727-.40268.17508q-3.89439 1.67543-7.794 3.21216c-.30965.12215-.61963.24215-.92928.363-.14675.9565-.3244 1.97976-.54008 3.062-.07527.377-.15372.75885-.23834 1.14917-.30427 1.40264-.67288 2.889-1.116 4.43419-.32756 1.14235-.69775 2.31743-1.11359 3.51572q1.56127-.45528 3.08325-.923 1.58457-.48658 3.12715-.98586-.6228 1.7083-1.21279 3.39921c-.95132 2.72716-1.83148 5.39969-2.62384 7.95241-2.56235 8.25568-4.1943 15.24271-4.2531 18.65357-.02377 1.38279.21046 2.17884.74625 2.23248a.65278.65278 0 0 0 .16893-.00594c2.5576-.40989 8.817-6.25469 15.08932-12.81665q.46758-.48915.93467-.98317.86717-.91682 1.72737-1.842z" fill="#8f1e1c"/><path d="m137.57468 194.04728a68.66182 68.66182 0 0 1 -2.82-10.02563c-.10745-.53294-.20427-1.04972-.294-1.5541-.10134-.03158-.20134-.06307-.30229-.09461-.84894-.2654-1.68742-.52981-2.50672-.792-10.53528-3.37119-18.59989-6.445-23.62158-8.48052-.4339.41524-.83333.82232-1.18434 1.2212 2.0527 5.3109 4.14081 10.97337 6.167 16.71857 3.40939 4.325 8.09083 10.05325 12.79447 15.46216 1.61468 1.85679 3.23094 3.674 4.8 5.38543 1.63307 1.78147 3.21352 3.44568 4.6851 4.91527 3.20606 3.20179 5.89471 5.47921 7.47184 6.013 1.63607.55371 1.57657-3.421.3377-9.81882-.24777-1.27939-.54134-2.65292-.87936-4.1096-.29413-1.26683-.621-2.59488-.97754-3.972-.29944-1.15645-.6209-2.34928-.9609-3.5692q-.33423-1.19895-.69269-2.43213c-.65837-1.4175-1.24615-2.82367-1.7699-4.20626q-.12547-.33119-.24679-.66076z" fill="#8f1e1c"/><path d="m372.06468 94.6772a38.76864 38.76864 0 0 0 -4.57258-.08177c-1.12975.00816-1.9817.016-2.6026.08894.62106-.07294 1.47285-.08074 2.6026-.0889a38.77786 38.77786 0 0 1 4.57258.08173z" fill="#e43a25"/><path d="m128.51859 130.90058q.06038-2.93892.3011-5.91036.203-2.5032.52391-4.98418-.322 2.481-.52391 4.98414-.24092 2.97149-.3011 5.9104z" fill="#e43a25"/><path d="m347.8104 70.21409a2.986 2.986 0 0 0 -.95258.52692q-3.1071 3.04941-6.1722 6.14135 3.07334-3.08363 6.1722-6.14131a2.98776 2.98776 0 0 1 .95258-.52696z" fill="#e43a25"/><path d="m372.04487 79.0919 2.78072-12.2919a5.543 5.543 0 0 0 -1.37475-5.0476 5.13959 5.13959 0 0 0 -1.59329-1.12955c.03867 3.295.09366 6.59.09049 9.88443-.00285 2.86149.04342 5.72304.09683 8.58462z" fill="#e43a25"/><path d="m373.57524 94.939c7.482.8216 12.62253 4.83093 15.70625 11.59538a16.0205 16.0205 0 0 1 .84736 2.31561l5.95015-13.62257a5.55611 5.55611 0 0 0 -.403-5.22985 5.073 5.073 0 0 0 -4.47305-2.39008l-17.64374.641c-.45228-.58881-.92041-1.16284-1.3803-1.74507.03042 1.93167.05261 3.86334.05388 5.795.00098 1.28326.94992 1.74258 1.34245 2.64058z" fill="#e43a25"/><path d="m318.57611 43.82566c11.14 6.45983 20.32035 15.04494 28.72924 24.60878.41329.47019.948.88476.84371 1.6257q.21607.31425.432.62664c1.18934.14326 1.4868 1.24163 2.01071 2.00959 2.60466 3.81884 5.13183 7.69065 7.98608 11.51017.33818-7.14975.19476-14.29014.02013-21.42641l-7.16662 1.76174q-1.6692-1.47516-3.3891-2.90611l.61931-18.40033a5.4385 5.4385 0 0 0 -2.29326-4.66592 4.97758 4.97758 0 0 0 -5.01139-.42423l-16.03239 7.622c-1.2914-.74051-2.58945-1.47431-3.9016-2.18368l-2.83303-18.1326a5.352 5.352 0 0 0 -3.12493-4.10972 4.972 4.972 0 0 0 -4.98968.60585l-14.29394 10.72473c-1.40732-.46777-2.821-.91574-4.25278-1.344l-6.16063-17.19506a5.217 5.217 0 0 0 -3.83267-3.40135 5.04453 5.04453 0 0 0 -4.77915 1.609l-11.689 13.07738a138.31312 138.31312 0 0 1 15.29454 2.72245c13.47206 3.17465 25.87399 8.76138 37.81445 15.68538z" fill="#e43a25"/><path d="m132.51639 160.04625q-.45795-1.52568-.86479-3.06059-.97948-3.69537-1.66333-7.44391.681 3.7491 1.66333 7.444.40685 1.53484.86479 3.0605z" fill="#e43a25"/><path d="m368.21743 150.9686q.41291-2.02617.73753-4.059-.32352 2.03294-.73753 4.059z" fill="#e43a25"/><path d="m369.57871 142.23964q.38748-3.56684.50981-7.1549-.11884 3.58853-.50981 7.1549z" fill="#e43a25"/><path d="m122.86871 248.10719c.50569.35878.98777.67712 1.44036.946a9.9766 9.9766 0 0 0 1.7642.85782 1.17927 1.17927 0 0 0 1.64218-.82374c.56892-1.44405.40268-4.51949-.3194-8.74062-.01339-.07836-.02552-.15407-.0393-.23327l-.00008-.00024c-.05246-.30153-.10856-.61032-.16656-.9231-.45814-2.46968-1.08467-5.28305-1.85065-8.3604-.63294-2.543-1.3612-5.26593-2.16648-8.12043q-.13906-.49319-.28176-.9922c-.78191-2.74063-1.63045-5.59322-2.53414-8.52283-2.20151-7.1371-4.72091-14.715-7.34443-22.15392-2.02616-5.7452-4.11427-11.40767-6.167-16.71857.351-.39888.75044-.806 1.18434-1.2212 5.02169 2.03555 13.0863 5.10933 23.62158 8.48052.8193.26216 1.65778.52657 2.50672.792.10095.03154.201.063.30229.09461.08978.50438.1866 1.02116.294 1.5541a68.66182 68.66182 0 0 0 2.82 10.02563q.12053.3293.24667.66076c.52375 1.38259 1.11153 2.78876 1.7699 4.20626.325.7.6644 1.40205 1.02508 2.10556a52.18709 52.18709 0 0 0 25.119 24.186q1.85793.85439 3.85993 1.60981a28.86575 28.86575 0 0 0 .96224 12.648 36.74737 36.74737 0 0 0 7.54553 13.44976 47.07859 47.07859 0 0 0 20.52415 13.54131 46.4732 46.4732 0 0 0 27.21788 1.0746 114.07017 114.07017 0 0 1 -8.42363-9.373c-1.39044-1.72065-2.68207-3.40792-3.86975-5.02081-2.67677-3.6349-4.80918-6.87591-6.26586-9.19876-1.43212-2.28379-2.21482-3.68287-2.21482-3.68287s2.22306.29357 6.176.70294c.51947.05381 1.07571.10994 1.654.16735q-.716-.1746-1.42483-.35716a113.97884 113.97884 0 0 1 -18.823-6.52892c-1.45612-.66115-2.886-1.33934-4.25943-2.05084a85.44024 85.44024 0 0 1 -8.8893-5.60634c-2.23621-1.56769-4.48479-3.22674-6.5275-4.78414-.11854-.09032-.235-.17943-.352-.269q-.65976-.50508-1.28347-.99034c-.14009-.10891-.27614-.2154-.41322-.32257-.92857-.72585-1.79526-1.41465-2.5553-2.0321a64.457 64.457 0 0 1 -9.58792-10.36738c-.63873-.83709-1.241-1.65568-1.79471-2.43478-1.02611-1.44368-3.90327-5.33962-5.44529-7.42318-.606-.81883-1.00591-1.358-1.00591-1.358-.70781-.98376-1.37681-1.96625-2.03027-2.94942-1.34306-2.02092-2.58945-4.048-3.77324-6.10944q-.68508-1.19289-1.34861-2.403c-1.34115-2.44543-2.63191-4.95216-3.94534-7.56886a16.14014 16.14014 0 0 0 -.89212-1.4074c-1.63378-.00784-3.26605.0626-4.89864.13272q-.891.03834-1.78234.07021c-.07226.00265-.14469.00574-.21695.00828a43.45853 43.45853 0 0 1 -7.685-.26224 19.23793 19.23793 0 0 1 -11.6617-6.782 17.26394 17.26394 0 0 1 -4.28043-10.78658c-.0237-2.87787-.0771-5.75518-.141-8.63234q-.08473-3.811-.18271-7.62175c-.16355-6.64767-.3076-13.29572-.21822-19.94806.036-2.66971-.30744-5.32231.2099-8.00181a19.1862 19.1862 0 0 1 19.04329-15.6946c1.12833.0307 2.25887-.01641 3.38768-.0273q.38342-.552.70084.03922 1.73587-.1053 3.47159-.21073c1.95872-4.10619 3.79614-8.27585 5.90264-12.30479a104.62176 104.62176 0 0 1 13.63113-19.80448 113.64915 113.64915 0 0 1 26.307-22.37138 126.33244 126.33244 0 0 1 23.48988-11.4461 128.69565 128.69565 0 0 1 20.08906-5.55527 114.99888 114.99888 0 0 1 15.68525-2.07837c4.164-.20855 8.32221-.38224 12.48822-.34975 2.884.02246 5.75233.16315 8.60983.39067l-9.034-15.22219a5.05412 5.05412 0 0 0 -8.781 0l-9.29269 15.65237c-1.46017.126-2.92248.27879-4.37472.44634l-12.03235-13.46096a5.053 5.053 0 0 0 -4.78089-1.609 5.21784 5.21784 0 0 0 -3.83093 3.40135l-6.166 17.19506c-1.42745.42823-2.84174.88024-4.25246 1.344l-14.28901-10.72478a4.97227 4.97227 0 0 0 -4.998-.60585 5.35883 5.35883 0 0 0 -3.12057 4.10972l-2.835 18.13259q-1.96728 1.06405-3.90469 2.18368l-16.03073-7.622a4.96887 4.96887 0 0 0 -5.01067.42423 5.43906 5.43906 0 0 0 -2.29192 4.66592l.61487 18.40038q-1.71139 1.42738-3.38831 2.90611l-17.18227-4.22465a5.03846 5.03846 0 0 0 -4.83881 1.43513 5.53729 5.53729 0 0 0 -1.37823 5.04761l4.0474 17.92317q-1.40832 1.74254-2.77883 3.52531l-17.64334-.641a5.13613 5.13613 0 0 0 -4.47527 2.39008 5.5811 5.5811 0 0 0 -.40577 5.22985l7.30932 16.72127c-.71 1.343-1.4154 2.69669-2.0939 4.07117l-17.38472 2.95033a5.20806 5.20806 0 0 0 -3.94185 3.2536 5.60105 5.60105 0 0 0 .58143 5.2121l10.05384 14.56184a17.58127 17.58127 0 0 0 -1.62339.85868c-.15483-.03585-.31-.07072-.46512-.09853 0 0-34.72411 17.0463-14.93227 51.15161.11743 1.0832 15.72479 21.45831 30.03093 37.37382q.76.84554 1.51421 1.67288c1.73409 1.90227 3.43878 3.72384 5.08556 5.42449a85.96686 85.96686 0 0 0 10.6901 9.72652z" fill="#e43a25"/><path d="m391.467 153.36a19.0314 19.0314 0 0 1 -8.32711 15.88627 19.47994 19.47994 0 0 1 -9.90741 3.38253c-.26766.01569-.536.02955-.80663.03439-.2973.00531-.59491.00329-.89236.00749-3.37627.04754-6.75348.03308-10.13038.0475.63595-2.89158 2.26711-5.39858 3.10733-8.23548.36037-1.21708.73342-2.42813 1.105-3.63933-.37162 1.21116-.74467 2.42218-1.105 3.63925-.84022 2.837-2.47138 5.34394-3.10733 8.23552-.06133.13-.11775.25074-.17749.3778-.76353 1.62316-1.40724 3.02025-2.02449 4.337-.54214 1.15678-1.06875 2.25931-1.64369 3.40876q-.2351.47047-.48318.95448-.32137.627-.67367 1.29116c-.11885.22412-.23755.44816-.36274.68036-.7144 1.32622-1.538 2.79356-2.544 4.51755a65.06935 65.06935 0 0 1 -4.87954 6.8118l-.652.92556-2.67676 3.8001c-.10919.13724-.23407.29258-.35466.443-.48858.60941-1.06146 1.315-1.70169 2.09264-3.21953 3.91119-7.99 9.46333-10.6825 11.81174 0 0-1.35811 1.09865-3.53077 2.7764-.151.11656-.30047.232-.4591.35407-1.05432.81079-2.27868 1.73995-3.61477 2.734-2.45585 1.82724-5.296 3.87645-8.2024 5.84116a95.83068 95.83068 0 0 1 -10.48108 6.31142 115.28842 115.28842 0 0 1 -10.921 4.70649c-2.04272.76039-4.10825 1.45335-6.18662 2.10321a134.52287 134.52287 0 0 1 -23.09648 4.99843l-.04794.006.04857-.00167a326.60869 326.60869 0 0 0 33.367-2.96376 151.64392 151.64392 0 0 1 -21.39685 26.20659 40.41781 40.41781 0 0 0 8.23916 1.21921 46.61029 46.61029 0 0 0 19.405-3.39318c.17575-.0704.35213-.13379.52771-.20641 1.18887-.49194 2.34271-1.02774 3.46549-1.59749a47.4023 47.4023 0 0 0 7.79433-4.95937 43.32536 43.32536 0 0 0 8.13965-8.31713 38.924 38.924 0 0 0 2.54856-3.93089 30.80912 30.80912 0 0 0 3.98115-20.51463c-.05055-.28644-.09429-.57363-.15435-.85885a52.385 52.385 0 0 0 11.98769-7.98988 51.33784 51.33784 0 0 0 4.90869-5.00545 54.41543 54.41543 0 0 0 6.01358-8.63586 61.71764 61.71764 0 0 0 4.51758-10.06834c.41584-1.19829.786-2.37337 1.11359-3.51572.44309-1.54519.8117-3.03155 1.116-4.43419.08462-.39032.16307-.7722.23834-1.14917.21568-1.08221.39333-2.10547.54008-3.062.30965-.12088.61963-.24088.92928-.363q3.89915-1.53768 7.794-3.21216c.13422-.05781.26845-.11707.40268-.17508q5.8272-2.51811 11.63619-5.34937a16.02549 16.02549 0 0 0 1.78123-.43758c.39682-.119.78761-.24773 1.16732-.39424a20.327 20.327 0 0 1 2.84316 1.90773c-1.80057 8.05-3.65772 16.86319-5.35417 25.57951q-.12955.66506-.25783 1.32928-.21918 1.13589-.4339 2.26762-.17163.9027-.34009 1.8018c-1.37554 7.33353-2.60212 14.46751-3.54725 20.87782q-.23534 1.59639-.44626 3.1292c-2.02212 14.68307-2.31529 24.74741.93245 23.04145 1.89407-.99489 4.49493-3.67931 7.47739-7.40425q.66558-.83121 1.35542-1.73013c3.48941-4.5427 7.40449-10.29345 11.285-16.33868q.63279-.98607 1.264-1.98055.69078-1.0893 1.377-2.18518c9.94941-15.88331 18.94386-32.30613 18.90614-33.23308 10.27792-25.95339-5.193-39.40073-15.10913-45.04355-1.40866-.80167-2.70434-1.44614-3.79891-1.94617l9.33833-13.52859a5.58015 5.58015 0 0 0 .5797-5.2121 5.2185 5.2185 0 0 0 -3.94059-3.2536l-17.38575-2.95033c-.02218-.04556-.04579-.09021-.06814-.13574q.24912 11.2839.46845 22.56865c.08871 4.96893.16541 9.93796.20377 14.90724z" fill="#e43a25"/><path d="m137.89868 174.04337c-.10974-.22052-.22075-.43909-.322-.65854-.04429-.096-.08414-.19282-.12812-.28889.044.09611.08383.19294.12812.289.10125.21938.21226.43791.322.65843z" fill="#e43a25"/><path d="m151.95246 93.67478a5.83089 5.83089 0 0 1 4.31387 2.17849 5.831 5.831 0 0 0 -4.31387-2.17857 5.25032 5.25032 0 0 0 -3.20456.80615 5.25057 5.25057 0 0 1 3.20456-.80607z" fill="#e43a25"/><path d="m160.09511 115.61642c.17749-1.037.29547-2.09156.37931-3.15594q.08473-1.076.13224-2.16276c-.033.7241-.07575 1.44543-.13232 2.16276-.08384 1.06438-.20174 2.1189-.37923 3.15594z" fill="#e43a25"/><path d="m243.2819 206.93664q2.66532.16378 5.37485.19722c1.91435-.03467 3.81951-.15 5.72325-.26283q-4.41117.07167-8.87979.07393c-.74158.00004-1.47903-.00535-2.21831-.00832z" fill="#999"/><path d="m264.64445 200.57094a359.14885 359.14885 0 0 1 -45.79986-1.24762q-4.39989-.39631-8.69415-.8815c-.2423-.02738-.48294-.0559-.72477-.08368.27986.13447.55925.2704.84022.40161a85.775 85.775 0 0 0 10.877 4.202 91.142 91.142 0 0 0 14.81856 3.25722q1.03807.14059 2.08361.25914 2.596.29511 5.23681.4585c.73928.003 1.47673.00832 2.21831.00832q4.46928 0 8.87979-.07393c.77271-.0458 1.54527-.091 2.3179-.1305a83.32629 83.32629 0 0 0 12.07849-1.51207 85.88605 85.88605 0 0 0 8.65-2.20372c.87691-.2723 1.75144-.55513 2.62209-.85536a88.17091 88.17091 0 0 0 8.33441-3.35563q-10.12073 1.12555-20.01323 1.59392-1.86716.09168-3.72518.1633z" fill="#8f1e1c"/><path d="m239.40787 57.67191a86.432 86.432 0 0 0 -21.97155 5.0724 89.07028 89.07028 0 0 0 -27.96112 16.73605 87.86525 87.86525 0 0 0 -9.53492 10.04275c-2.40253 2.88674-4.16832 6.3252-6.06452 9.60686a63.47476 63.47476 0 0 0 -5.32723 11.933 69.341 69.341 0 0 0 -2.02267 7.57964 67.10871 67.10871 0 0 0 -.84616 22.533 69.19093 69.19093 0 0 0 2.36077 10.94541l1.0296 2.84007 1.05764 2.91772a74.02224 74.02224 0 0 0 4.41292 9.01917q1.26841 2.20083 2.68207 4.2928c.33787.501.678 1.00016 1.02794 1.492.14175.19924.28882.39456.43255.59233a74.667 74.667 0 0 0 14.01273 14.56334 88.2069 88.2069 0 0 0 16.72975 10.51963c.24183.02778.48247.0563.72477.08368q4.2915.48492 8.69415.8815a359.14885 359.14885 0 0 0 45.79986 1.24762q1.85745-.07055 3.72522-.16327 9.88349-.48516 20.01323-1.59392 1.84391-.85456 3.6398-1.79221 2.655-1.38916 5.19585-2.96867a79.85654 79.85654 0 0 0 12.57023-9.62137c.13788-.12927.26782-.26294.40474-.39281q1.21494-1.15236 2.373-2.33557a83.05864 83.05864 0 0 0 5.88426-6.65535c.06228-.079.11964-.16089.18176-.24013q1.95849-2.50088 3.68212-5.13087c.63342-.96665 1.23815-1.94914 1.8226-2.94281q.85623-1.456 1.63893-2.95274 1.04925-1.99938 1.97172-4.069a69.76315 69.76315 0 0 0 5.34939-19.01516 67.22041 67.22041 0 0 0 -2.44381-28.2119q-1.15836-3.98407-2.67693-7.92365a57.46487 57.46487 0 0 0 -7.33888-12.67839 80.81859 80.81859 0 0 0 -35.69681-27.90706 91.42162 91.42162 0 0 0 -20.7102-5.72166 99.06539 99.06539 0 0 0 -24.8228-.58243zm-25.64638 119.57562a29.462 29.462 0 0 1 -3.74923-1.07781c-.71947-.25281-1.51207-.5568-2.35356-.91863q-.77435-.33291-1.595-.732a31.96286 31.96286 0 0 1 -4.44976-2.63 23.48107 23.48107 0 0 1 -6.81743-7.28584 20.33749 20.33749 0 0 1 -2.3496-6.24022c-1.16081-5.77143-.18739-13.21371 4.687-22.77141a13.10836 13.10836 0 0 1 3.24417-5.72511c.28771-.46441.57463-.92846.87945-1.4017 0 0 27.67991-12.2557 35.23455 15.09918a31.84477 31.84477 0 0 1 .557 3.17434 42.22721 42.22721 0 0 1 .35435 6.12771 35.48937 35.48937 0 0 1 -.397 4.8026 25.30336 25.30336 0 0 1 -2.99577 8.86965 20.17177 20.17177 0 0 1 -1.30265 1.96807 19.28314 19.28314 0 0 1 -1.88487 2.16462c-3.57038 3.52856-8.97145 6.10141-17.06165 6.57655zm97.07734-18.753a17.43872 17.43872 0 0 1 -5.28809 10.1328 41.56587 41.56587 0 0 1 -9.65013 5.42254 28.57972 28.57972 0 0 1 -5.864 1.63727 20.727 20.727 0 0 1 -3.393.26778 16.98781 16.98781 0 0 1 -3.11423-.303 15.99747 15.99747 0 0 1 -10.25146-7.02455 23.06276 23.06276 0 0 1 -6.12672-15.2386q-.03268-.86847-.00689-1.78282c.00293-.099.00539-.19762.00943-.29737a29.717 29.717 0 0 1 .78792-5.64144 41.96255 41.96255 0 0 1 5.33626-12.37781 27.35932 27.35932 0 0 1 4.5874-3.79728 7.93025 7.93025 0 0 1 3.2147-1.85374c6.20723-3.02874 15.33844-4.34818 24.47075 5.651 0 0 5.37747 9.99564 5.62452 20.22036a25.98428 25.98428 0 0 1 -.33646 4.98489z" fill="#e43a25"/><path d="m281.08 127.6383a6.71448 6.71448 0 0 1 1.82268-.25269c5.00164 0 9.05712 5.57833 9.05712 12.45811a15.27274 15.27274 0 0 1 -2.33771 8.3318c-1.65771 2.52756-4.05 4.126-6.71941 4.126-3.30916 0-6.1959-2.45035-7.776-6.09646a16.03943 16.03943 0 0 1 -1.28007-6.3613 14.15109 14.15109 0 0 1 4.01872-10.35168 27.35932 27.35932 0 0 0 -4.5874 3.79728 41.96255 41.96255 0 0 0 -5.33626 12.37781 29.717 29.717 0 0 0 -.78792 5.64144c-.004.09975-.0065.1984-.00943.29737q-.02675.91435.00689 1.78282a23.06276 23.06276 0 0 0 6.12672 15.2386 15.99747 15.99747 0 0 0 10.25146 7.02455 16.98781 16.98781 0 0 0 3.11423.303 20.727 20.727 0 0 0 3.393-.26778 28.57972 28.57972 0 0 0 5.864-1.63727 41.56587 41.56587 0 0 0 9.65013-5.42254 17.43872 17.43872 0 0 0 5.28809-10.1328 25.98428 25.98428 0 0 0 .33643-4.98488c-.24705-10.22472-5.62452-20.22036-5.62452-20.22036-9.13232-9.9992-18.26353-8.67976-24.47075-5.65102z" fill="#030404"/><path d="m273.84657 139.84372a16.03943 16.03943 0 0 0 1.28007 6.3613c1.58013 3.64611 4.46687 6.09646 7.776 6.09646 2.66939 0 5.0617-1.5984 6.71941-4.126a15.27274 15.27274 0 0 0 2.33771-8.3318c0-6.87978-4.05548-12.45811-9.05712-12.45811a6.71448 6.71448 0 0 0 -1.82268.25269 7.93025 7.93025 0 0 0 -3.2147 1.85374 14.15109 14.15109 0 0 0 -4.01869 10.35172z" fill="#fff"/><path d="m234.01068 166.53837a25.30336 25.30336 0 0 0 2.99577-8.86965 35.48937 35.48937 0 0 0 .397-4.8026 42.22721 42.22721 0 0 0 -.35435-6.12771 31.84477 31.84477 0 0 0 -.557-3.17434c-7.55464-27.35488-35.23455-15.09918-35.23455-15.09918-.30482.47324-.59174.93729-.87945 1.4017a7.735 7.735 0 0 1 5.44085-2.42c5.15917 0 9.34087 5.7526 9.34087 12.84882 0 7.09456-4.1817 12.84879-9.34087 12.84879-5.1571 0-9.33991-5.75423-9.33991-12.84879a17.087 17.087 0 0 1 .65489-4.70371c-4.87439 9.5577-5.84781 17-4.687 22.77141a20.33749 20.33749 0 0 0 2.3496 6.24022 23.48107 23.48107 0 0 0 6.81743 7.28584 31.96286 31.96286 0 0 0 4.44976 2.63q.81891.40061 1.595.732c.84149.36183 1.63409.66582 2.35356.91863a29.462 29.462 0 0 0 3.74923 1.07781c8.0902-.47514 13.49127-3.048 17.06167-6.57647a19.28314 19.28314 0 0 0 1.88487-2.16462 20.17177 20.17177 0 0 0 1.30263-1.96815z" fill="#030404"/><path d="m205.8189 153.1442c5.15917 0 9.34087-5.75423 9.34087-12.84879 0-7.09622-4.1817-12.84882-9.34087-12.84882a7.735 7.735 0 0 0 -5.44085 2.42 13.10836 13.10836 0 0 0 -3.24417 5.72511 17.087 17.087 0 0 0 -.65489 4.70371c.00001 7.09459 4.18281 12.84879 9.33991 12.84879z" fill="#fff"/><path d="m351.79029 94.61116a13.98009 13.98009 0 0 1 .66131 1.38659 13.97582 13.97582 0 0 0 -.66131-1.38659z" fill="#e43a25"/><path d="m239.40082 24.88371a114.99888 114.99888 0 0 0 -15.68525 2.07837 128.69565 128.69565 0 0 0 -20.08906 5.55527 126.33244 126.33244 0 0 0 -23.48988 11.4461 113.64915 113.64915 0 0 0 -26.307 22.37138 104.62176 104.62176 0 0 0 -13.63113 19.80448c-2.1065 4.02894-3.94392 8.1986-5.90264 12.30479a8.78605 8.78605 0 0 1 -.3923 2.66262c-.41417 1.42749-1.0628 2.79218-1.4818 4.21178q-.71265 2.41494-1.28855 4.85184a96.661 96.661 0 0 0 -1.78963 9.8357q-.32185 2.481-.52391 4.98418-.24092 2.97149-.3011 5.91036a94.72971 94.72971 0 0 0 .29531 9.70682q.12635 1.53882.30293 3.06863.19457 1.68573.45164 3.36019.19268 1.25588.4198 2.50553.681 3.749 1.66333 7.44391.40685 1.53489.86479 3.06059.45806 1.52568.96731 3.04216a102.12914 102.12914 0 0 0 3.96484 10.00753c.044.09607.08383.1929.12812.28889.10127.21945.21228.438.322.65854a8.64085 8.64085 0 0 1 .44713 1.01581 3.40332 3.40332 0 0 1 .20372 1.1019 16.14014 16.14014 0 0 1 .89212 1.4074c1.31343 2.6167 2.60419 5.12343 3.94534 7.56886q.66417 1.21083 1.34861 2.403c1.18379 2.06141 2.43018 4.08852 3.77324 6.10944.65346.98317 1.32246 1.96566 2.03027 2.94942 0 0 .39991.53921 1.00591 1.358 1.542 2.08356 4.41918 5.9795 5.44529 7.42318.5537.7791 1.156 1.59769 1.79471 2.43478a64.457 64.457 0 0 0 9.58792 10.36738c.76.61745 1.62673 1.30625 2.5553 2.0321.13708.10717.27313.21366.41322.32257q.62469.48576 1.28347.99034c.117.08957.23343.17868.352.269 2.04271 1.5574 4.29129 3.21645 6.5275 4.78414a85.44024 85.44024 0 0 0 8.8893 5.60634c1.37348.7115 2.80331 1.38969 4.25943 2.05084a113.97884 113.97884 0 0 0 18.823 6.52892q.7098.1815 1.42483.35716c.5026.12254 1.00511.24476 1.51215.36211q1.2929.29934 2.6026.57779a147.17771 147.17771 0 0 0 26.39921 3.06475c1.15574.03035 2.31569.04342 3.478.04715 3.92886.01252 7.89036-.1292 11.86264-.43311q3.62376-.27723 7.251-.74149l.04794-.006a134.52287 134.52287 0 0 0 23.09648-4.99843c2.07837-.64986 4.1439-1.34282 6.18662-2.10321a115.28842 115.28842 0 0 0 10.921-4.70649 95.83068 95.83068 0 0 0 10.48108-6.31142c2.9064-1.96471 5.74655-4.01392 8.2024-5.84116 1.33609-.9941 2.56045-1.92326 3.61477-2.734.15863-.122.30807-.23751.4591-.35407 2.17266-1.67775 3.53077-2.7764 3.53077-2.7764 2.69246-2.34841 7.463-7.90055 10.6825-11.81174.64023-.77767 1.21311-1.48323 1.70169-2.09264.12059-.15039.24547-.30573.35466-.443l2.67676-3.8001.652-.92556a65.06935 65.06935 0 0 0 4.87954-6.8118c1.006-1.724 1.82957-3.19133 2.544-4.51755.12519-.2322.24389-.45624.36274-.68036q.35157-.66363.67367-1.29116.24864-.48493.48318-.95448c.57494-1.14945 1.10155-2.252 1.64369-3.40876.61725-1.31675 1.261-2.71384 2.02449-4.337.05974-.12706.11616-.24781.17749-.3778.63595-2.89158 2.26711-5.39854 3.10733-8.23552.36037-1.21707.73342-2.42809 1.105-3.63925.38382-1.25083.76479-2.50225 1.12357-3.76255q.26884-.94519.51868-1.89807.24864-.95339.47082-1.91748c.17512-.76467.33295-1.53061.48889-2.29667q.41267-2.02617.73753-4.059.37131-2.33043.62375-4.67.38748-3.5669.50981-7.1549.0397-1.19615.04786-2.39492.01-1.48264-.02615-2.96919-.02233-.91256-.07242-1.82378c-.099-1.82252-.27432-3.64143-.49047-5.45852-.06276-.52748-.13692-1.0544-.20586-1.5816q-.30973-2.37228-.664-4.74278-.24769-1.66681-.57589-3.30749-.32614-1.64149-.71994-3.262c-.52217-2.16177-1.12326-4.30009-1.7692-6.42854q-.323-1.06422-.65972-2.12567-.33612-1.06167-.68191-2.12211c-.6-1.84324-.92342-2.88516-.71883-3.4769a.79549.79549 0 0 1 .1206-.22709l.01157-.0109a1.007 1.007 0 0 1 .44118-.30236 3.21222 3.21222 0 0 1 .76416-.16648c.6209-.07294 1.47285-.08078 2.6026-.08894a38.76864 38.76864 0 0 1 4.57258.08177 11.96235 11.96235 0 0 1 1.51056.2618c-.39253-.898-1.34147-1.35732-1.34242-2.64056-.00127-1.9317-.02346-3.86337-.05388-5.795-.03883-2.47051-.08811-4.941-.13407-7.4115-.05341-2.86158-.09968-5.72313-.09683-8.58463.00317-3.29442-.05182-6.58943-.09049-9.88443-.06243-5.30536-.08177-10.6106.25832-15.9129-4.50285 1.98-9.10618 1.8924-13.76433.66756-.05816 5.80007.10444 11.6.24643 17.40267.17463 7.13627.31805 14.27666-.02013 21.42641-2.85425-3.81952-5.38142-7.69133-7.98608-11.51017-.52391-.768-.82137-1.86633-2.01071-2.00959q-4.86306 4.75365-9.73594 9.49708a.24206.24206 0 0 1 -.107.05606.71642.71642 0 0 1 -.145.02032c-.09223.00523-.18922.00321-.27162.013l-.01807.00123a.99328.99328 0 0 1 -.15847-.41873.76049.76049 0 0 1 .13216-.50347 1.90949 1.90949 0 0 1 .22741-.28018c.04216-.04429.08526-.08767.12789-.13054q1.02548-1.03071 2.05318-2.05927 3.07334-3.08369 6.1722-6.14135a2.986 2.986 0 0 1 .95258-.52692c.11553-.04869.22978-.09857.33866-.15395.10427-.74094-.43042-1.15551-.84371-1.6257-8.40889-9.56384-17.58923-18.14895-28.72924-24.60878-11.94046-6.924-24.34239-12.51073-37.81449-15.68533a138.31312 138.31312 0 0 0 -15.29454-2.72245q-2.47788-.29659-4.96821-.49325c-2.8575-.22752-5.72586-.36821-8.60983-.39067-4.16599-.03237-8.32413.14132-12.48817.34987zm-96.16992 83.04919a27.63487 27.63487 0 0 1 .25641-2.77117q.13335-.91626.33739-1.82093.10269-.45219.22487-.90116a20.54649 20.54649 0 0 1 .6728-2.03265c.19531-.50351.40814-1.004.64934-1.4994q.211-.43345.44658-.8626.12645-.23.25625-.455c.17329-.29979.35212-.59178.5388-.87243a9.94018 9.94018 0 0 1 .90267-1.174 6.5698 6.5698 0 0 1 .871-.80857q.17544-.13424.36093-.25407a5.25032 5.25032 0 0 1 3.20456-.80615 5.831 5.831 0 0 1 4.31387 2.17857q.22356.26094.42843.542c.18248.24932.35482.50914.51852.77652.16378.26738.319.54234.46734.82192q.11862.22368.23168.45086.34563.69309.64911 1.39884a25.7997 25.7997 0 0 1 1.03942 2.8718 24.53787 24.53787 0 0 1 .99395 6.02241q.03018.77481.01188 1.56009-.04932 1.08615-.13224 2.16276c-.08384 1.06438-.20182 2.1189-.37931 3.15594q-.0889.51851-.19841 1.03091c-.11735.54641-.25411 1.08712-.41409 1.621q-.12.40042-.258.79549a15.98271 15.98271 0 0 1 -1.53275 3.21772 15.062 15.062 0 0 1 -1.08316 1.515 8.74647 8.74647 0 0 1 -1.10995 1.14611 6.88916 6.88916 0 0 1 -.87905.64012 5.777 5.777 0 0 1 -.9071.45224 5.01162 5.01162 0 0 1 -.91011.261 4.732 4.732 0 0 1 -.91692.07948c-.00975-.00008-.01949.00162-.02924.00146a4.99468 4.99468 0 0 1 -2.43771-.708 6.6514 6.6514 0 0 1 -1.14623-.85152 8.69309 8.69309 0 0 1 -1.06447-1.18244q-.46008-.61074-.8586-1.24485a18.6853 18.6853 0 0 1 -1.8863-3.987q-.23439-.69257-.41917-1.40157c-.08874-.33949-.16021-.68441-.23311-1.02893a25.52157 25.52157 0 0 1 -.48-3.345q-.072-.94544-.10658-1.88659-.03315-.94084-.02052-1.87556.0071-.46733.02722-.93265zm45.2451 104.97131q.3858.39721.77168.79435-.38592-.39715-.77168-.79435zm148.79738-107.92358q.09461-1.07937.25958-2.15626c.01568-.103.03232-.20593.0488-.3089a32.96949 32.96949 0 0 1 1.62578-6.19582c.04976-.13442.09556-.26988.14722-.40383.03059-.07923.07068-.15411.10269-.23287a12.53637 12.53637 0 0 1 1.16192-2.26062c.15816-.237.32773-.46183.50395-.67917.16386-.20225.33279-.39836.51266-.58029a6.59383 6.59383 0 0 1 .79458-.68769 5.645 5.645 0 0 1 .89331-.53624q.23606-.113.48525-.20332a5.25211 5.25211 0 0 1 .77715-.215 5.51694 5.51694 0 0 1 .83864-.09738q.33018-.01325.64562.006a5.92842 5.92842 0 0 1 1.20344.196 5.77232 5.77232 0 0 1 .79316.28647 6.47532 6.47532 0 0 1 1.72228 1.10836 8.59543 8.59543 0 0 1 1.187 1.31232 11.2637 11.2637 0 0 1 .81392 1.27872 13.97582 13.97582 0 0 1 .66131 1.38659 31.30529 31.30529 0 0 1 2.3118 8.96339q.07131.74515.10015 1.48945a25.135 25.135 0 0 1 -.0599 2.97228 24.61744 24.61744 0 0 1 -.41837 2.96142c-.12361.60644-.27923 1.21164-.45038 1.8163a26.20325 26.20325 0 0 1 -1.13213 3.179c-.33564.78326-.70188 1.56512-1.12373 2.34437a9.9041 9.9041 0 0 1 -.65243 1.03372 6.96547 6.96547 0 0 1 -1.544 1.61052 5.53761 5.53761 0 0 1 -1.48442.77383 6.07338 6.07338 0 0 1 -1.78678.31294 5.27524 5.27524 0 0 1 -.9277-.05158 4.70075 4.70075 0 0 1 -1.589-.53311 5.53734 5.53734 0 0 1 -.99378-.70326 7.27742 7.27742 0 0 1 -.58493-.57862q-.13929-.15369-.27241-.31532a13.413 13.413 0 0 1 -.98317-1.38054 20.905 20.905 0 0 1 -1.95223-3.98766c-.23105-.63036-.43073-1.27071-.60822-1.91831q-.21489-.78516-.384-1.58556-.16948-.80031-.29586-1.61559-.06846-.43983-.126-.88357-.115-.88749-.19064-1.78987-.07655-.90217-.12-1.81772.03258-.65667.08987-1.31358zm-73.04271-46.72633a91.42162 91.42162 0 0 1 20.7102 5.72166 80.81859 80.81859 0 0 1 35.69681 27.90712 57.46487 57.46487 0 0 1 7.33888 12.67839q1.51422 3.94212 2.67693 7.92365a67.22041 67.22041 0 0 1 2.44381 28.2119 69.76315 69.76315 0 0 1 -5.34941 19.01517q-.91851 2.07194-1.97172 4.069-.78492 1.49555-1.63893 2.95274c-.58445.99367-1.18918 1.97616-1.8226 2.94281q-1.72362 2.63013-3.68212 5.13087c-.06212.07924-.11948.16109-.18176.24013a83.05864 83.05864 0 0 1 -5.88426 6.65535q-1.15908 1.18266-2.373 2.33557c-.13692.12987-.26686.26354-.40474.39281a79.85654 79.85654 0 0 1 -12.57023 9.62137q-2.54229 1.57572-5.19585 2.96867-1.7947.93913-3.6398 1.79221a88.17091 88.17091 0 0 1 -8.33441 3.35563c-.87065.30023-1.74518.58306-2.62209.85536a85.88605 85.88605 0 0 1 -8.65 2.20372 83.32629 83.32629 0 0 1 -12.07849 1.51207c-.77263.0395-1.54519.0847-2.3179.1305-1.90374.11283-3.8089.22816-5.72325.26283q-2.71036-.03084-5.37485-.19722-2.64119-.16236-5.23681-.4585-1.04545-.11886-2.08361-.25914a91.142 91.142 0 0 1 -14.81856-3.25722 85.775 85.775 0 0 1 -10.877-4.202c-.281-.13121-.56036-.26714-.84022-.40161a88.2069 88.2069 0 0 1 -16.72975-10.51963 74.667 74.667 0 0 1 -14.01273-14.56334c-.14373-.19777-.2908-.39309-.43255-.59233-.35-.49182-.69007-.991-1.02794-1.492q-1.41128-2.09358-2.68207-4.2928a74.02224 74.02224 0 0 1 -4.41292-9.01917l-1.05764-2.91772-1.0296-2.84007a69.19093 69.19093 0 0 1 -2.36077-10.94541 67.10871 67.10871 0 0 1 .84616-22.533 69.341 69.341 0 0 1 2.02267-7.57964 63.47476 63.47476 0 0 1 5.32723-11.933c1.8962-3.28166 3.662-6.72012 6.06452-9.60686a87.86525 87.86525 0 0 1 9.53492-10.04275 89.07028 89.07028 0 0 1 27.96112-16.73605 86.432 86.432 0 0 1 21.97155-5.0724 99.06539 99.06539 0 0 1 24.82278.58233z" fill="#bcb893"/><path d="m188.476 212.90421q.3858.39721.77168.79435" fill="none"/><path d="m373.57524 94.939a11.96235 11.96235 0 0 0 -1.51056-.2618 38.77786 38.77786 0 0 0 -4.57258-.08173c-1.12975.00816-1.98154.016-2.6026.0889a3.21222 3.21222 0 0 0 -.76416.16648 1.007 1.007 0 0 0 -.44118.30236l-.01157.0109a.79549.79549 0 0 0 -.1206.22709c-.20459.59174.11885 1.63366.71883 3.4769q.34516 1.06065.68191 2.12211.33612 1.06173.65972 2.12567c.64594 2.12845 1.247 4.26677 1.7692 6.42854q.39174 1.62135.71994 3.262.32613 1.64151.57589 3.30749.35229 2.37062.664 4.74278c.06894.5272.1431 1.05412.20586 1.5816.21615 1.81709.39142 3.636.49047 5.45852q.04968.91125.07242 1.82378.03614 1.48651.02615 2.96919-.00808 1.19877-.04786 2.39492-.11884 3.58853-.50981 7.1549-.2541 2.33947-.62375 4.67-.32352 2.03285-.73753 4.059c-.15594.76606-.31377 1.532-.48889 2.29667q-.22083.96462-.47082 1.91748-.2484.9534-.51868 1.89807c-.35878 1.2603-.73975 2.51172-1.12357 3.76255-.37162 1.2112-.74467 2.42225-1.105 3.63933-.84022 2.8369-2.47138 5.3439-3.10733 8.23548 3.3769-.01442 6.75411 0 10.13038-.0475.29745-.0042.59506-.00218.89236-.00749.27067-.00484.539-.0187.80663-.03439a19.47994 19.47994 0 0 0 9.90741-3.38253 19.0314 19.0314 0 0 0 8.32708-15.88627c-.03835-4.96928-.115-9.93831-.20379-14.90723q-.2011-11.28472-.46845-22.56865-.03329-1.49578-.06624-2.99153a16.2337 16.2337 0 0 0 -.59966-4.0426 16.0205 16.0205 0 0 0 -.84736-2.31561c-3.08373-6.76445-8.22428-10.77378-15.70626-11.59538z" fill="#414f79"/><path d="m369.34148 120.85669c.06894.5272.1431 1.05412.20586 1.5816" fill="none"/><path d="m367.25772 155.18275q-.2484.9534-.51868 1.89807" fill="none"/><path d="m369.54734 122.43833c.21615 1.81709.39142 3.636.49047 5.45852" fill="none"/><path d="m137.89868 174.04337c-.10974-.22052-.22075-.43905-.322-.65846-.04429-.096-.08414-.19286-.12812-.289a102.12914 102.12914 0 0 1 -3.96484-10.00753q-.50928-1.51653-.96731-3.04216-.45795-1.52568-.86479-3.06055-.97948-3.69537-1.66333-7.444-.227-1.2497-.4198-2.50553-.25684-1.67449-.45164-3.36019-.17663-1.52978-.30293-3.06863a94.72971 94.72971 0 0 1 -.29531-9.70682q.06038-2.93892.3011-5.9104.203-2.50314.52391-4.98414a96.661 96.661 0 0 1 1.78963-9.8357q.57681-2.43687 1.28855-4.85184c.419-1.4196 1.06763-2.78429 1.4818-4.21178a8.78605 8.78605 0 0 0 .3923-2.66262q-1.73576.10542-3.47159.21073c-.26576.55949-.49737.50553-.70084-.03922-1.12881.01089-2.25935.058-3.38768.0273a19.1862 19.1862 0 0 0 -19.04329 15.6946c-.51734 2.6795-.17393 5.3321-.2099 8.00181-.08938 6.65234.05467 13.30039.21822 19.94806q.09364 3.81082.18271 7.62175c.06387 2.87716.11727 5.75447.141 8.63234a17.26394 17.26394 0 0 0 4.28043 10.78658 19.23793 19.23793 0 0 0 11.6617 6.782 43.45853 43.45853 0 0 0 7.685.26224c.07226-.00254.14469-.00563.21695-.00828q.89129-.03269 1.78234-.07021c1.63259-.07012 3.26486-.14056 4.89864-.13272a3.40332 3.40332 0 0 0 -.20372-1.1019 8.64085 8.64085 0 0 0 -.44719-1.01573z" fill="#414f79"/><path d="m358.35154 45.37746c4.65815 1.22484 9.26148 1.3124 13.76433-.6676 7.79005-2.71908 12.10226-8.58087 13.32741-16.3464 1.72466-10.92964-4.884-20.29682-15.57266-23.15028a20.72274 20.72274 0 0 0 -22.57668 8.67322 21.08913 21.08913 0 0 0 .97159 24.416 20.721 20.721 0 0 0 10.08601 7.07506z" fill="#414f79"/><path d="m348.14906 70.06014c-.10888.05538-.22313.10526-.33866.15395a2.98776 2.98776 0 0 0 -.95258.527q-3.1071 3.04935-6.1722 6.14131-1.02643 1.02987-2.05318 2.05927c-.04263.04287-.08573.08625-.12789.13054a1.90949 1.90949 0 0 0 -.22741.28018.76049.76049 0 0 0 -.13216.50347.99328.99328 0 0 0 .15847.41873l.01807-.00123c.0824-.00979.17939-.00777.27162-.013a.71642.71642 0 0 0 .145-.02032.24206.24206 0 0 0 .107-.05606q4.8816-4.73475 9.73594-9.49708-.21583-.31289-.432-.62664z" fill="#414f79"/><path d="m130.82429 98.65483q-.3177-.59208-.70084-.03922c.20347.54475.43508.59871.70084.03922z" fill="#bcb893"/><path d="m143.33074 112.62759a25.52157 25.52157 0 0 0 .48 3.345c.0729.34452.14437.68944.23311 1.02893q.18542.70872.41917 1.40157a18.6853 18.6853 0 0 0 1.8863 3.987q.3991.63379.8586 1.24485a8.69309 8.69309 0 0 0 1.06447 1.18244 6.6514 6.6514 0 0 0 1.14623.85152 4.99468 4.99468 0 0 0 2.43771.708c.00975.00016.01949-.00154.02924-.00146a4.732 4.732 0 0 0 .91692-.07948 5.01162 5.01162 0 0 0 .91011-.261 5.777 5.777 0 0 0 .9071-.45224 6.88916 6.88916 0 0 0 .87905-.64012 8.74647 8.74647 0 0 0 1.10995-1.14611 15.062 15.062 0 0 0 1.08316-1.515 15.98271 15.98271 0 0 0 1.53275-3.21772q.13811-.395.258-.79549c.16-.53386.29674-1.07457.41409-1.621q.11007-.51226.19841-1.03091c.17749-1.037.29539-2.09156.37923-3.15594.05657-.71733.09936-1.43866.13232-2.16276q.01854-.78522-.01188-1.56009a24.53787 24.53787 0 0 0 -.99395-6.02241 25.7997 25.7997 0 0 0 -1.03942-2.8718q-.30332-.7057-.64911-1.39884-.11314-.227-.23168-.45086c-.14833-.27958-.30356-.55454-.46734-.82192-.1637-.26738-.336-.5272-.51852-.77652q-.20526-.28048-.42843-.542a5.83089 5.83089 0 0 0 -4.31387-2.17849 5.25057 5.25057 0 0 0 -3.20456.80607q-.18553.11962-.36093.25407a6.5698 6.5698 0 0 0 -.871.80857 9.94018 9.94018 0 0 0 -.90267 1.174c-.18668.28065-.36551.57264-.5388.87243q-.13.22482-.25625.455-.23582.42906-.44658.8626c-.2412.49543-.454.99589-.64934 1.4994a20.54649 20.54649 0 0 0 -.6728 2.03265q-.12241.44892-.22487.90116-.20538.90436-.33739 1.82093a27.63487 27.63487 0 0 0 -.25641 2.77117q-.02032.46527-.02726.93254-.014.93444.02052 1.87556.03321.94097.10662 1.8867z" fill="#414f79"/><path d="m149.41863 125.66892a6.6514 6.6514 0 0 1 -1.14623-.85152" fill="none"/><path d="m152.8025 126.296a5.01162 5.01162 0 0 0 .91011-.261" fill="none"/><path d="m337.49413 109.90181q.05777.44375.126.88357.12693.81516.29586 1.61559.1695.80037.384 1.58556c.17749.6476.37717 1.28795.60822 1.91831a20.905 20.905 0 0 0 1.95223 3.98766 13.413 13.413 0 0 0 .98317 1.38054q.13311.1614.27241.31532a7.27742 7.27742 0 0 0 .58493.57862 5.53734 5.53734 0 0 0 .99378.70326 4.70075 4.70075 0 0 0 1.589.53311 5.27524 5.27524 0 0 0 .9277.05158 6.07338 6.07338 0 0 0 1.78678-.31294 5.53761 5.53761 0 0 0 1.48442-.77383 6.96547 6.96547 0 0 0 1.544-1.61052 9.9041 9.9041 0 0 0 .65243-1.03372c.42185-.77925.78809-1.56111 1.12373-2.34437a26.20325 26.20325 0 0 0 1.13213-3.179c.17115-.60466.32677-1.20986.45038-1.8163a24.61744 24.61744 0 0 0 .41837-2.96142 25.135 25.135 0 0 0 .0599-2.97228q-.02851-.74427-.10015-1.48945a31.30529 31.30529 0 0 0 -2.3118-8.96339 13.98009 13.98009 0 0 0 -.66131-1.38659 11.2637 11.2637 0 0 0 -.81392-1.27872 8.59543 8.59543 0 0 0 -1.187-1.31232 6.47532 6.47532 0 0 0 -1.72228-1.10836 5.77232 5.77232 0 0 0 -.79316-.28647 5.92842 5.92842 0 0 0 -1.20344-.196q-.31545-.01889-.64562-.006a5.51694 5.51694 0 0 0 -.83864.09738 5.25211 5.25211 0 0 0 -.77715.215q-.24912.09-.48525.20332a5.645 5.645 0 0 0 -.89331.53624 6.59383 6.59383 0 0 0 -.79458.68769c-.17987.18193-.3488.378-.51266.58029-.17622.21734-.34579.44222-.50395.67917a12.53637 12.53637 0 0 0 -1.16192 2.26062c-.032.07876-.0721.15364-.10269.23287-.05166.13395-.09746.26941-.14722.40383a32.96949 32.96949 0 0 0 -1.62578 6.19582c-.01648.103-.03312.20585-.0488.3089q-.16332 1.0763-.25958 2.15626-.05752.65679-.08986 1.31359.04446.9153.12 1.81772.0765.90215.19063 1.78986z" fill="#414f79"/><path d="m337.27338 104.98063q.09461-1.07937.25958-2.15626" fill="none"/><path d="m339.45745 95.683a12.53637 12.53637 0 0 1 1.16192-2.26062" fill="none"/><path d="m337.533 102.82437c.01568-.103.03232-.20593.0488-.3089" fill="none"/><path d="m279.095 279.85557c-.77493-.73273-1.41675-2.07738-2.75917-1.43172a4.78886 4.78886 0 0 0 -2.70918 3.31739c-.0076.03491-.00752.07064-.01363.10582l7.12265-.39c-.54234-.53873-1.0855-1.07658-1.64067-1.60149z" fill="#414f79"/></svg>