<svg xmlns="http://www.w3.org/2000/svg" role="img" xmlns:xlink="http://www.w3.org/1999/xlink" viewBox="3.47 -7.78 382.31 404.56"><defs><path id="d" d="M23.8032 47.59098c-13.1297 0-23.77343-10.64372-23.77343-23.77342C.02977 10.68776 10.6735.04404 23.8032.04404c13.1297 0 23.77352 10.64372 23.77352 23.77352 0 13.1297-10.64381 23.77342-23.77352 23.77342z"/><path id="g" d="M16.16103 32.12767c-8.87176 0-16.06375-7.19199-16.06375-16.06392C.09728 7.19199 7.28928 0 16.16103 0c8.87176 0 16.06375 7.19199 16.06375 16.06375 0 8.87193-7.192 16.06392-16.06375 16.06392z"/><path id="i" d="M30.2881 60.46033C13.62547 60.46033.11765 46.9527.11765 30.29007.11764 13.62742 13.62546.1198 30.28811.1198c16.66244 0 30.17026 13.50762 30.17026 30.17027 0 16.66264-13.50782 30.17026-30.17026 30.17026z"/><linearGradient id="b" x1="50%" x2="50%" y1="0%" y2="100%"><stop offset="0%" stop-color="#BF87ED"/><stop offset="100%" stop-color="#8B4FD7"/></linearGradient><linearGradient id="f" x1="48.99%" x2="48.99%" y1="75.69%" y2="36.752%"><stop offset="0%" stop-color="#1A59C8"/><stop offset="100%" stop-color="#2A69D9"/></linearGradient><circle id="a" cx="183.732" cy="183.534" r="183.422"/></defs><g transform="translate(11)" fill="none" fill-rule="evenodd" stroke="none" stroke-width="1"><g transform="translate(0 22.181)"><mask id="c" fill="#fff"><use xlink:href="#a"/></mask><path fill="url(#b)" fill-rule="nonzero" d="M37.63947 72.6098l27.9294 125.50443 118.54341 58.55731 118.55031-58.55731L330.4123 73.3879c23.06876 30.6716 36.741 68.81227 36.741 110.14625 0 101.30098-82.12067 183.42165-183.42165 183.42165C82.43068 366.9558.31001 284.83513.31001 183.53415c0-41.68424 13.90493-80.1208 37.32946-110.92435z" mask="url(#c)"/><g fill-rule="nonzero" stroke="#FFF" stroke-width="4" mask="url(#c)" opacity=".1"><g transform="translate(-130.381 -28.136)"><path d="M151.85314 32.78571l128.9283 605.5851"/><path d="M478.82593 35.50744L341.9227 638.37082"/><path d="M594.46266 428.79755L24.56552 142.88823"/><path d="M23.66172 433.54994l580.41617-290.66171"/><path d="M244.8163.21531L.11628 301.66295"/><path d="M393.31333 8.55061L606.1499 289.85638"/></g></g><g mask="url(#c)"><g transform="translate(216.877 30.591)"><mask id="e" fill="#fff"><use xlink:href="#d"/></mask><path fill="#FD863A" fill-rule="evenodd" stroke="none" d="M-.413-.399H48.02v48.433H-.413z" mask="url(#e)"/></g></g><path fill="url(#f)" fill-rule="nonzero" d="M184 32.861l118.654 58.555 12.195 54.682-11.724 51.764-119.34 59.904-119.052-59.743-11.044-53.224L65.6 91.416z" mask="url(#c)"/></g><g transform="translate(92.137)"><g transform="translate(37.472 .125)"><mask id="h" fill="#fff"><use xlink:href="#g"/></mask><path fill="#1FF6EF" d="M-.803-.901h33.929v33.929H-.803z" mask="url(#h)"/></g><g transform="translate(0 68.888)"><mask id="j" fill="#fff"><use xlink:href="#i"/></mask><path fill="#43CAF8" d="M-.783-.781h74.458v74.458H-.783z" mask="url(#j)"/></g></g></g></svg>