<svg xmlns="http://www.w3.org/2000/svg" viewBox="-1.2 3.05 361.4 349.9"><defs><style>.cls-1{fill:none}.cls-2{fill:#00aab2}.cls-3{fill:#fff}.cls-4{fill:#00797f}.cls-5{fill:#3accc5}</style></defs><path d="M192.707 271.388l6.773-13.546a9.495 9.495 0 0 1 5.649-4.406 9.348 9.348 0 0 0-5.838 4.406l-6.773 13.546a9.24 9.24 0 0 0 5.338 12.952 9.878 9.878 0 0 1-.822-.347 9.408 9.408 0 0 1-4.327-12.605zm25.963-29.914a9.408 9.408 0 0 1-4.327-12.606l13.358-26.904a9.347 9.347 0 0 1 6.3-4.843 9.12 9.12 0 0 0-6.489 5.032l-13.546 26.904a9.432 9.432 0 0 0 12.748 12.534 9.483 9.483 0 0 1-8.044-.117zm-31.42-222.57l1.13.565L304.272 74.97c1.317.753 2.634 1.693 3.951 2.634a19.918 19.918 0 0 1 2.258 1.881l-13.713 27.093h.167l-8.918 17.658L310.73 79.55c-.02-.02-.04-.044-.06-.065a19.932 19.932 0 0 0-2.258-1.88 20.625 20.625 0 0 0-3.95-2.635L188.567 19.47l-1.128-.565a12.17 12.17 0 0 0-2.446-.752c-.176-.044-.38-.06-.573-.088.128.03.257.056.385.088a9.315 9.315 0 0 1 2.445.752zm-8.278-1.317a47.95 47.95 0 0 0-7.337.377 9.443 9.443 0 0 0-2.258.376c.94-.188 1.693-.188 2.446-.376a45.536 45.536 0 0 1 7.15-.377zm28.41 131.886a9.529 9.529 0 0 0 2.792.94 9.22 9.22 0 0 1-2.604-.94 9.766 9.766 0 0 1-3.951-12.793 9.474 9.474 0 0 0 3.762 12.793zm61.521-24.081h-.188a9.564 9.564 0 0 0 4.515 6.208 9.036 9.036 0 0 0 6.744.978 9.46 9.46 0 0 1-11.07-7.186zm-34.618-6.397l-14.11 26.528 14.299-26.528a9.539 9.539 0 0 0-3.951-12.794 8.74 8.74 0 0 0-4.328-1.129h-.188a8.74 8.74 0 0 1 4.327 1.13 9.426 9.426 0 0 1 3.951 12.793zM49.392 76.947c-.045.037-.087.076-.132.114l54.03 108.568-1.47-3.002zm98.725 200.461l.162-.242-29.068-59.113 28.906 59.355zm100.09-161.423a9.316 9.316 0 0 1 9.408-9.407h-.188a9.407 9.407 0 1 0 0 18.814h.188a9.316 9.316 0 0 1-9.407-9.407zm-42.895 57.759l-14.11 26.527a9.366 9.366 0 0 1-16.99-.714 9.345 9.345 0 0 0 4.384 4.853 9.539 9.539 0 0 0 12.794-3.95l14.11-26.528a9.402 9.402 0 0 0-1.801-11.261 9.434 9.434 0 0 1 1.613 11.073zm-49.293 48.916a9.484 9.484 0 0 1 17.442 1.648 9.432 9.432 0 0 0-17.442-1.836l-7.525 14.298-53.056-112.507 53.056 112.695zm-7.525 54.184l30.761 61.71h.094l-30.807-61.8-.048.09zm11.852-95.575l10.536-19.378-30.478-56.254h-.087l30.377 56.254-10.348 19.378zm81.841-7.714l13.358-26.904v-.188a8.937 8.937 0 0 1 2.174-2.866 9.187 9.187 0 0 0-2.362 3.054L242 173.555a9.26 9.26 0 0 0 3.198 11.853 8.777 8.777 0 0 0 4.619 1.66 9.618 9.618 0 0 1-3.302-.907 9.408 9.408 0 0 1-4.327-12.606z" class="cls-1"/><path d="M344.742 223.161c-.01.021-.008.042-.019.063a24.525 24.525 0 0 1-3.762 8.09l-20.32 25.211-59.828 73.939a19.688 19.688 0 0 1-12.793 7.525 39.608 39.608 0 0 1-4.704.377h-63.78l28.58-56.42c-.067.07-.132.143-.2.211l-28.567 56.397v.188h63.967a39.608 39.608 0 0 0 4.704-.376 19.25 19.25 0 0 0 12.793-7.526l59.829-73.939 20.319-25.21a26.422 26.422 0 0 0 3.762-8.09v-.001a5.296 5.296 0 0 1 .147-.877 1.704 1.704 0 0 1-.128.438zm.907-7.67a24.867 24.867 0 0 1-.737 6.604c0 .147-.008.293-.019.44-.001.02 0 .04-.002.062.004-.042.02-.083.02-.125a25.544 25.544 0 0 0 .738-6.98z" class="cls-1"/><path d="M115.381 338.554a10.727 10.727 0 0 1-2.446-.188 15.932 15.932 0 0 1-3.198-.753 28.277 28.277 0 0 1-11.853-6.96l-26.716-32.737-10.47-12.977 10.282 12.789 26.716 33.112a29.803 29.803 0 0 0 12.04 6.961h.003a19.704 19.704 0 0 0 3.196.753c.753 0 1.694.188 2.446.188h63.968l-.094-.188z" class="cls-1"/><path d="M52.87 74.575q-1.122.645-2.245 1.373c-.313.234-.616.474-.905.715-.114.092-.217.192-.328.284l52.429 105.68-37.802-77.178h76.197l.101.188h.087l30.478 56.254-10.536 19.378-.376.188-30.855-57.194H95.438l53.056 112.507 7.525-14.298a9.432 9.432 0 0 1 17.442 1.836c.018.056.03.114.046.171.048.18.098.359.136.54a9.317 9.317 0 0 1-.88 6.484l-13.734 25.775-10.487 19.476 30.807 61.8 28.567-56.397a9.5 9.5 0 0 1-10.06 2.183 9.24 9.24 0 0 1-5.338-12.952l6.773-13.546a9.348 9.348 0 0 1 5.838-4.405 9.365 9.365 0 0 1 11.46 11.768l12.793-25.412a9.618 9.618 0 0 1-2.668 1.799 9.432 9.432 0 0 1-12.748-12.535l13.546-26.904a9.12 9.12 0 0 1 6.49-5.031 9.257 9.257 0 0 1 11.055 11.651l12.528-24.647a9.524 9.524 0 0 1-7.77 2.942 8.777 8.777 0 0 1-4.618-1.66A9.26 9.26 0 0 1 242 173.555l13.358-26.904a9.187 9.187 0 0 1 2.362-3.054 9.55 9.55 0 0 1 10.432-1.273 9.182 9.182 0 0 1 4.139 12.606l-3.86 7.815 16.767-33.093a9.523 9.523 0 0 1-5.005 2.889c-.073.016-.145.022-.218.037a9.036 9.036 0 0 1-6.744-.978 9.564 9.564 0 0 1-4.515-6.208h-11.288a9.407 9.407 0 1 1 0-18.814h39.342l13.713-27.093a19.918 19.918 0 0 0-2.258-1.88c-1.317-.942-2.634-1.882-3.95-2.635L188.378 19.47l-1.129-.565c-.752-.188-1.505-.564-2.445-.752-.128-.032-.257-.057-.385-.088-.628-.093-1.297-.144-1.873-.288a22.767 22.767 0 0 0-3.575-.189 45.536 45.536 0 0 0-7.149.377c-.753.188-1.505.188-2.446.376L53.671 74.218c-.275.103-.537.23-.8.357zM203.62 136.68l16.556-31.608h6.02a8.74 8.74 0 0 1 4.328 1.13 9.539 9.539 0 0 1 3.95 12.793l-14.298 26.528a9.24 9.24 0 0 1-10 4.89 9.289 9.289 0 0 1-6.556-13.733zm-29.162 54.749l14.11-26.528a9.596 9.596 0 0 1 16.933 9.03l-14.11 26.528a9.539 9.539 0 0 1-12.794 3.951 9.345 9.345 0 0 1-4.383-4.853 9.954 9.954 0 0 1 .244-8.128z" class="cls-2"/><path d="M187.25 18.904a9.315 9.315 0 0 0-2.445-.752 12.17 12.17 0 0 1 2.445.752z" class="cls-2"/><path d="M187.25 18.904a12.17 12.17 0 0 0-2.445-.752c.94.188 1.693.564 2.445.752zM50.625 75.948q1.123-.726 2.246-1.373a13.599 13.599 0 0 0-2.246 1.373z" class="cls-2"/><path d="M353.002 212.312l-.189-.752L323.84 87.2v-.565a31.879 31.879 0 0 0-15.804-18.438h-.376L191.766 12.696a27.438 27.438 0 0 0-12.794-2.634 45.803 45.803 0 0 0-11.288.94l-.753.189-.752.376L50.285 67.445a28.234 28.234 0 0 0-15.616 19.19L6.26 211.56v.376a31.702 31.702 0 0 0 5.456 23.894l.188.188.188.188 79.96 99.338.188.376.376.188a34.82 34.82 0 0 0 22.389 10.16h128.123c9.971 0 18.25-3.951 23.517-10.912l80.148-99.15.188-.188.188-.188a32.698 32.698 0 0 0 5.833-23.518zm-8.09 10.16c0 .042-.017.083-.021.125-.005.042-.015.084-.021.125a5.302 5.302 0 0 0-.147.879v-.001a26.422 26.422 0 0 1-3.762 8.09l-20.32 25.211-59.828 73.94a19.25 19.25 0 0 1-12.793 7.525 39.608 39.608 0 0 1-4.704.376H115.381a10.727 10.727 0 0 1-2.446-.188 19.679 19.679 0 0 1-3.198-.753h.002-.002a29.803 29.803 0 0 1-12.041-6.96L70.98 297.727l-10.282-12.79-42.962-53.247a26.875 26.875 0 0 1-4.327-11.1 11.572 11.572 0 0 1-.188-2.447 21.459 21.459 0 0 1 .376-4.891l28.41-124.925a20.05 20.05 0 0 1 7.149-11.476l.043.086c.113-.09.218-.188.333-.275a17.255 17.255 0 0 1 3.951-2.445L169.377 18.34a9.443 9.443 0 0 1 2.258-.376 47.95 47.95 0 0 1 7.337-.377 22.767 22.767 0 0 1 3.575.189 8.017 8.017 0 0 1 1.873.288c.192.028.397.044.573.088a12.17 12.17 0 0 1 2.446.752l1.128.565L304.462 74.97a20.625 20.625 0 0 1 3.95 2.634 19.932 19.932 0 0 1 2.258 1.881c.02.02.04.044.06.065l.128-.253a23.645 23.645 0 0 1 5.08 7.15c.188.752.565 1.505.753 2.257l28.785 124.172c.104.886.155 1.755.173 2.616a25.544 25.544 0 0 1-.737 6.98z" class="cls-3"/><path d="M49.344 76.852c-.045.037-.085.079-.13.117l.046.092c.045-.037.087-.077.132-.114zm66.037 261.89c-.753 0-1.693-.188-2.446-.188a10.727 10.727 0 0 0 2.446.188zm-5.644-.94a19.679 19.679 0 0 0 3.198.752 19.704 19.704 0 0 1-3.196-.752zM344.89 222.596c.004-.042.02-.083.02-.125 0 .042-.016.083-.02.125zm-.168 1.003a5.302 5.302 0 0 1 .147-.878v.001a5.296 5.296 0 0 0-.147.877z" class="cls-3"/><path d="M115.381 338.742a10.727 10.727 0 0 1-2.446-.188 10.727 10.727 0 0 0 2.446.188zM49.344 76.852l.188-.189c-.115.087-.22.186-.333.275l.015.03c.045-.037.085-.079.13-.116zm133.203-59.076c.576.144 1.245.195 1.873.288a8.017 8.017 0 0 0-1.873-.288z" class="cls-3"/><path d="M49.392 76.947c.111-.092.214-.192.328-.284.29-.24.592-.48.905-.715-.364.235-.729.455-1.093.715l-.188.188zm4.28-2.73L169.376 18.34 53.483 74.218c-.204.116-.408.24-.612.357.263-.126.525-.254.8-.357z" class="cls-3"/><path d="M52.87 74.575c.205-.118.409-.24.613-.357a17.255 17.255 0 0 0-3.95 2.445c.364-.26.728-.48 1.092-.715a13.599 13.599 0 0 1 2.246-1.373z" class="cls-3"/><path d="M179.255 338.554l.094.188v-.188h-.094zm-81.37-7.902a28.277 28.277 0 0 0 11.852 6.961 15.932 15.932 0 0 0 3.198.753 10.727 10.727 0 0 0 2.446.188h63.874l-30.761-61.71-.188.376-.027-.054-.162.242-28.906-59.355-10.039-20.416-5.881-12.008L49.26 77.061a21.012 21.012 0 0 0-7.066 11.267L13.597 213.253a21.459 21.459 0 0 0-.376 4.891 9.16 9.16 0 0 0 .188 2.258 25.004 25.004 0 0 0 4.327 11.1l53.432 66.226-29.613-36.6 19.143 23.81 10.47 12.978z" class="cls-4"/><path d="M71.168 297.728l-53.431-66.226 23.818 29.627 29.613 36.599zm-28.973-209.4a21.012 21.012 0 0 1 7.065-11.267l-.046-.092a20.621 20.621 0 0 0-7.02 11.36zM17.737 231.691l42.961 53.248-19.143-23.81-23.818-29.438z" class="cls-4"/><path d="M49.199 76.938l-.043-.086a20.05 20.05 0 0 0-7.15 11.476L13.598 213.253 42.195 88.328a19.297 19.297 0 0 1 7.004-11.39zm-35.79 143.464a9.16 9.16 0 0 1-.188-2.258 11.572 11.572 0 0 0 .188 2.446 25.155 25.155 0 0 0 4.327 10.912 25.004 25.004 0 0 1-4.327-11.1z" class="cls-4"/><path d="M17.736 231.502a25.155 25.155 0 0 1-4.327-10.912 26.875 26.875 0 0 0 4.327 11.1l23.82 29.439zM42.195 88.328a20.621 20.621 0 0 1 7.02-11.36l-.016-.03a19.297 19.297 0 0 0-7.004 11.39z" class="cls-4"/><path d="M287.529 125.203l-.94 2.634-.189.189a9.499 9.499 0 0 1-1.197 1.62l-16.87 33.294-3.569 7.229-5.644 11.853a9.878 9.878 0 0 1-1.52 2.088l-12.662 25.046a9.704 9.704 0 0 1-.493 1.275l-3.387 6.585-9.783 20.319a9.872 9.872 0 0 1-1.72 2.299l-12.973 25.592c-.055.173-.104.346-.17.518-.188.188-.188.188-.188.376l-6.585 13.734a9.88 9.88 0 0 1-1.523 2.092l-28.58 56.42h63.78a39.608 39.608 0 0 0 4.704-.376 19.688 19.688 0 0 0 12.793-7.526l59.829-73.939 20.319-25.21a24.525 24.525 0 0 0 3.762-8.09c.011-.022.01-.043.019-.064a1.856 1.856 0 0 1 .151-.626c.011-.147.019-.293.019-.44a24.867 24.867 0 0 0 .737-6.603 24.48 24.48 0 0 0-.173-2.24l-.055-.236-28.919-124.123a10.607 10.607 0 0 0-.752-2.258 23.563 23.563 0 0 0-5.02-7.085l-22.712 44.686zm28.974-36.122c-.189-.753-.565-1.506-.753-2.258a10.608 10.608 0 0 1 .753 2.258z" class="cls-5"/><path d="M344.87 222.723c.007-.042.017-.084.02-.126.003-.021.002-.042.003-.062a1.856 1.856 0 0 0-.151.626 1.704 1.704 0 0 0 .128-.438zm-29.12-135.9c.188.752.564 1.505.753 2.258a10.608 10.608 0 0 0-.753-2.258zm-86.194 152.81c-.056.056-.117.106-.174.16l-12.793 25.412-.007.021zm28.043-55.523l-.014.016-12.528 24.647c-.035.128-.078.256-.119.383zm27.604-54.464l-.006.006-16.767 33.093-.096.195 16.869-33.294z" class="cls-5"/><path d="M316.502 88.892l28.919 124.124.055.237c.092.737.148 1.485.173 2.239a27.02 27.02 0 0 0-.173-2.615L316.691 88.704c-.188-.752-.565-1.505-.753-2.257a23.645 23.645 0 0 0-5.08-7.15l-.128.253a23.563 23.563 0 0 1 5.02 7.085 10.607 10.607 0 0 1 .752 2.257zm28.368 133.831c.006-.042.016-.084.02-.126-.003.042-.013.084-.02.126z" class="cls-5"/><path d="M188.756 165.089l-14.11 26.528a9.341 9.341 0 1 0 16.555 8.654l14.11-26.527a9.434 9.434 0 0 0-1.612-11.073 9.521 9.521 0 0 0-14.943 2.418z" class="cls-3"/><path d="M174.645 191.617l14.11-26.528a9.521 9.521 0 0 1 14.944-2.418 9.511 9.511 0 0 0-15.132 2.23l-14.11 26.528a9.954 9.954 0 0 0-.244 8.128 9.373 9.373 0 0 1 .432-7.94zm41.766 73.946l-.187.369c.185-.185.187-.191.187-.37zm-6.96 13.915l6.773-13.546a9.597 9.597 0 0 0-4.14-11.477 9.294 9.294 0 0 0-6.955-1.019 9.495 9.495 0 0 0-5.65 4.406l-6.772 13.546a9.408 9.408 0 0 0 4.327 12.605c.271.13.546.244.822.347a9.563 9.563 0 0 0 10.654-3.357l-.594 1.174c.068-.068.133-.14.2-.211l.582-1.151c.189-.376.565-.94.753-1.317z" class="cls-3"/><path d="M212.085 254.455a9.597 9.597 0 0 1 4.139 11.477l.187-.37.001-.006.177-.351a9.365 9.365 0 0 0-11.46-11.768 9.294 9.294 0 0 1 6.956 1.018zm-14.23 29.885a9.5 9.5 0 0 0 10.06-2.183l.595-1.174a9.563 9.563 0 0 1-10.654 3.357z" class="cls-3"/><path d="M216.224 266.12c0-.188 0-.188.188-.376.066-.172.114-.345.17-.518l-.17.337c0 .178-.003.184-.188.369l-6.773 13.546c-.188.376-.564.94-.753 1.317l-.583 1.15a9.88 9.88 0 0 0 1.524-2.09z" class="cls-3"/><path d="M216.411 265.563l.171-.337.007-.021-.177.35zm-67.917 11.093l10.536-19.567 13.734-25.775a9.433 9.433 0 0 0 .879-6.294c-.038-.182-.088-.361-.136-.54-.016-.058-.028-.116-.046-.172a9.484 9.484 0 0 0-17.442-1.648l-7.525 14.299-53.056-112.696h33.677l30.855 57.194.376-.188 10.348-19.378-30.377-56.254h-76.11l45.154 92.188 9.85 20.228 29.068 59.113.215-.322.048-.09z" class="cls-3"/><path d="M101.821 182.627l1.47 3.002 6.07 12.196-7.54-15.198zm70.943 48.687L159.03 257.09l-10.536 19.567.048.098 10.488-19.476 13.734-25.776a9.317 9.317 0 0 0 .879-6.482 9.433 9.433 0 0 1-.88 6.294z" class="cls-3"/><path fill="none" stroke="#fff" stroke-linecap="round" stroke-linejoin="round" stroke-width="0" d="M173.461 224.308c.018.056.03.114.046.171"/><path d="M64.207 105.637h76.11l-.101-.188H64.019l37.802 77.178 7.54 15.198-45.154-92.188zm39.084 79.992l5.881 12.008 10.039 20.416-9.85-20.228-6.07-12.196zm45.015 91.591l.188-.376-.215.322.027.054zm137.706-149.177l.2-.394 1.505-2.822.3-.591 8.919-17.658h-.167l-9.428 18.625 9.407-18.625h-39.133a9.407 9.407 0 0 0 0 18.814h11.288a9.46 9.46 0 0 0 11.071 7.186 9.66 9.66 0 0 0 6.038-4.535z" class="cls-3"/><path d="M296.769 106.578h-.021l-9.407 18.625 9.428-18.625zm-16.795 26c.073-.015.145-.021.218-.037a9.523 9.523 0 0 0 5.005-2.89l.815-1.608a9.66 9.66 0 0 1-6.038 4.535zm6.238-4.929l-.2.394.012-.017-.821 1.62a9.499 9.499 0 0 0 1.197-1.62l.188-.189.941-2.634.489-.967-.3.591z" class="cls-3"/><path d="M286.024 128.026l-.012.017-.815 1.609.006-.006zm-27.854 54.948l.197-.388a4.112 4.112 0 0 0 .565-.94l5.644-11.289 7.526-15.24a9.425 9.425 0 0 0-14.383-11.52 8.937 8.937 0 0 0-2.174 2.866v.188l-13.358 26.904a9.408 9.408 0 0 0 4.327 12.606 9.618 9.618 0 0 0 3.302.907 9.47 9.47 0 0 0 8.354-4.094z" class="cls-3"/><path d="M267.962 142.512a9.182 9.182 0 0 1 4.14 12.606l-7.526 15.239.188-.376 3.666-7.236 3.86-7.815a9.182 9.182 0 0 0-4.14-12.606 9.55 9.55 0 0 0-10.431 1.273 9.215 9.215 0 0 1 10.243-1.085zm-18.146 44.556a9.524 9.524 0 0 0 7.769-2.942l.585-1.152a9.47 9.47 0 0 1-8.354 4.094z" class="cls-3"/><path d="M258.932 181.645a4.112 4.112 0 0 1-.565.941l-.197.388.01-.012-.58 1.148a9.878 9.878 0 0 0 1.52-2.088l5.644-11.853 3.57-7.229-3.758 7.417z" class="cls-3"/><path d="M264.576 170.357l3.758-7.417.096-.195-3.666 7.236-.188.376zm-6.397 12.605l-.009.012-.585 1.152.014-.016zm-28.474 56.19l.441-.877c.189-.376.565-.94.753-1.317l10.16-20.319 3.801-7.479a9.491 9.491 0 0 0-10.858-12.039 9.347 9.347 0 0 0-6.301 4.843l-13.358 26.904a9.43 9.43 0 0 0 12.371 12.724 9.119 9.119 0 0 0 2.99-2.44z" class="cls-3"/><path d="M226.714 241.592a9.618 9.618 0 0 0 2.668-1.799l.323-.64a9.119 9.119 0 0 1-2.99 2.439zm13.404-43.578a9.245 9.245 0 0 1 4.742 11.146l.197-.387a9.257 9.257 0 0 0-11.055-11.652 9.302 9.302 0 0 1 6.116.893z" class="cls-3"/><path d="M244.257 210.619l-3.387 6.585 3.83-7.575c.06-.156.109-.312.16-.469l-3.802 7.48-10.16 20.318c-.187.377-.563.941-.752 1.317l-.441.877c.084-.105.174-.203.253-.312l-.402.794a9.872 9.872 0 0 0 1.72-2.3l9.782-20.318 3.387-6.585a9.704 9.704 0 0 0 .493-1.275l-.239.473a9.767 9.767 0 0 1-.442.99z" class="cls-3"/><path d="M244.7 209.629l.238-.473c.04-.127.084-.255.119-.383l-.197.387c-.051.157-.1.313-.16.469zm-14.742 29.21c-.08.11-.17.208-.253.313l-.323.641c.057-.054.118-.104.174-.16zm14.299-28.22a9.767 9.767 0 0 0 .442-.99l-3.829 7.575zm-36.687-61.146a9.22 9.22 0 0 0 2.604.94 9.57 9.57 0 0 0 10.001-4.89l14.11-26.528a9.426 9.426 0 0 0-3.95-12.794 8.74 8.74 0 0 0-4.328-1.129h-5.832l-16.556 31.608a9.766 9.766 0 0 0 3.95 12.793z" class="cls-3"/><path d="M210.174 150.414a9.24 9.24 0 0 0 10.001-4.891 9.57 9.57 0 0 1-10 4.89z" class="cls-3"/></svg>