<svg xmlns="http://www.w3.org/2000/svg" role="img" viewBox="18.52 13.52 80.34 90.22"><path d="M32.05 96.24a11.58 11.58 0 0 0 10 5.79 11.34 11.34 0 0 0 5.62-1.47 6 6 0 0 1 5.89 0 11.33 11.33 0 0 0 5.63 1.44 11.52 11.52 0 0 0 5.27-1.27 6.17 6.17 0 0 1 5.7 0 11.55 11.55 0 0 0 15.28-4.52z"/><path fill="#006fff" d="M91.52 76.27L91.38 74C90 51.79 81.7 30.91 68.07 15.23v60zm-26.66-1.22V27.8A79.26 79.26 0 0 0 42 74z"/><path d="M43.87 78.38L42 74l-21.65-1 6 14.12a10.16 10.16 0 0 0 8.79 5.08A10 10 0 0 0 40 91a7.32 7.32 0 0 1 7.17 0 10 10 0 0 0 9.78 0 7.3 7.3 0 0 1 7.17 0 10 10 0 0 0 9.78 0 7.32 7.32 0 0 1 7.17 0A10 10 0 0 0 86 92.23a10.16 10.16 0 0 0 8.79-5.08l2.46-5L46 79.84a2.38 2.38 0 0 1-2.13-1.46z"/></svg>