<svg xmlns="http://www.w3.org/2000/svg" viewBox="0 0 500 500"><defs><style>.cls-1,.cls-2{fill:#e87e5b;fill-rule:evenodd}.cls-2{fill:#3784c5}</style></defs><g id="Layer_1" data-name="Layer 1"><path class="cls-1" d="M85.978 159.13L62.8 260.676h23.85l19.444-85.188c-3.677-3.731-7.447-7.312-11.34-10.64a10.639 10.639 0 0 1-2.572-3.256c-2.006-.77-4.09-1.595-6.204-2.462m145.446-91.785l-119.312 57.457a293.357 293.357 0 0 1 4.348 6.27 10.64 10.64 0 0 1 3.75 1.774c3.838 2.837 7.863 5.519 12.004 8.09l99.368-47.851c.557-4.798.958-9.572 1.125-14.296a10.664 10.664 0 0 1 .946-4.039 282.645 282.645 0 0 1-2.23-7.405zm161.272 56.727L274.884 67.337a283.621 283.621 0 0 1-2.23 7.413 10.67 10.67 0 0 1 .946 4.04c.166 4.72.568 9.493 1.125 14.29l98.023 47.202c4.155-2.626 8.19-5.364 12.031-8.257a10.688 10.688 0 0 1 3.737-1.808 286.995 286.995 0 0 1 4.18-6.145zm50.824 136.604l-23.506-102.991a285.281 285.281 0 0 1-6.955 2.841 10.693 10.693 0 0 1-2.542 3.277c-3.652 3.177-7.192 6.579-10.646 10.12l19.802 86.753z"/><path class="cls-2" d="M310.806 197.984l2.83 3.494c1.313-11.17 10.58-21.888 28.167-31.497 18.333-10.016 35.454-18.902 49.41-29.41l1.851 2.283q16.362-25.555 25.417-32.173c8.112-4.937 15.609-3.5 21.437 3.004 5.15 7.053 4.998 14.684-1.518 21.593q-8.356 7.481-36.756 18.171l1.849 2.283c-13.178 11.471-25.431 26.369-39.042 42.219-13.051 15.206-25.463 22.04-36.664 21.004l2.831 3.495-11.007 8.912-9.727-23.484-7.474-3.095zm-135.645 24.808l2.798-3.517c-11.188 1.135-23.66-5.59-36.846-20.682-13.745-15.732-26.127-30.522-39.408-41.876l1.83-2.3q-28.491-10.443-36.914-17.85c-6.574-6.851-6.793-14.481-1.705-21.58 5.77-6.553 13.253-8.056 21.41-3.19q9.11 6.54 25.695 31.951l1.83-2.3c14.05 10.384 31.247 19.122 49.666 28.978 17.672 9.452 27.031 20.091 28.442 31.25l2.8-3.52 8.46 6.73-7.222 2.992-9.81 23.687zm62.252-45.003h4.497c-7.854-8.05-10.355-21.999-6.753-41.712 3.755-20.552 7.622-39.449 8.24-56.909h2.941q-9.565-28.8-9.01-40c1.269-9.41 7.104-14.334 15.825-14.77 8.722.436 14.557 5.36 15.827 14.77q.55 11.2-9.012 40h2.941c.62 17.46 4.487 36.357 8.24 56.909 3.602 19.713 1.102 33.661-6.752 41.712h4.497v13.113l-15.954-6.607-15.527 6.43z"/><path class="cls-1" d="M252.939 193.893L278.016 204.281 303.097 214.664 313.479 239.747 322.151 260.676 276.724 260.676 274.707 255.806 270.974 246.787 261.956 243.055 252.939 239.32 243.923 243.055 234.905 246.787 231.172 255.806 229.155 260.676 183.729 260.676 192.4 239.747 202.783 214.664 227.864 204.281 252.939 193.893z"/><path class="cls-2" d="M68.214 349.624a8.914 8.914 0 1 1-17.83 0v-63.035a8.916 8.916 0 0 1 8.916-8.914h384.218a8.915 8.915 0 0 1 8.914 8.914v63.035a8.914 8.914 0 1 1-17.829 0v-54.12H260.322v54.12a8.914 8.914 0 1 1-17.829 0v-54.12H68.213z"/><path class="cls-1" d="M241.915 443.208a1.181 1.181 0 0 0 .957.49h8.536l8.536-.002a1.174 1.174 0 0 0 .923-.447l5.323-6.672 5.322-6.675a1.188 1.188 0 0 0 .227-.994l-3.795-16.632a1.165 1.165 0 0 0-.641-.815l-15.381-7.407a1.179 1.179 0 0 0-1.027 0l-15.381 7.407a1.187 1.187 0 0 0-.638.803l-3.79 16.601a1.184 1.184 0 0 0 .218 1.038zm-12.064 24.65a2.686 2.686 0 0 0 2.174 1.107h19.385l19.385-.004a2.67 2.67 0 0 0 2.097-1.013l12.088-15.153 12.085-15.16a2.708 2.708 0 0 0 .517-2.257l-8.62-37.77a2.65 2.65 0 0 0-1.457-1.851l-34.931-16.823a2.68 2.68 0 0 0-2.329 0l-34.93 16.823a2.677 2.677 0 0 0-1.449 1.823l-8.607 37.7a2.681 2.681 0 0 0 .494 2.357zm-181.21-24.65a1.178 1.178 0 0 0 .957.49h8.536l8.536-.002a1.177 1.177 0 0 0 .924-.447l5.323-6.672 5.32-6.675a1.187 1.187 0 0 0 .228-.994l-3.797-16.632a1.167 1.167 0 0 0-.64-.815l-15.382-7.407a1.176 1.176 0 0 0-1.026 0l-15.38 7.407a1.182 1.182 0 0 0-.638.803l-3.79 16.601a1.176 1.176 0 0 0 .218 1.038zm-12.063 24.65a2.685 2.685 0 0 0 2.173 1.107h19.383l19.387-.004a2.676 2.676 0 0 0 2.098-1.013l12.086-15.153 12.084-15.16a2.693 2.693 0 0 0 .517-2.257l-8.62-37.77a2.648 2.648 0 0 0-1.455-1.851l-34.93-16.823a2.683 2.683 0 0 0-2.33 0l-34.932 16.823a2.686 2.686 0 0 0-1.449 1.823l-8.604 37.7a2.671 2.671 0 0 0 .494 2.357zm396.281-24.65a1.178 1.178 0 0 0 .957.49h8.536l8.536-.002a1.177 1.177 0 0 0 .924-.447l5.323-6.672 5.32-6.675a1.181 1.181 0 0 0 .228-.994l-3.795-16.632a1.165 1.165 0 0 0-.642-.815l-15.38-7.407a1.179 1.179 0 0 0-1.027 0l-15.382 7.407a1.19 1.19 0 0 0-.638.803l-3.79 16.601a1.184 1.184 0 0 0 .219 1.038zm-12.064 24.65a2.686 2.686 0 0 0 2.174 1.107h19.383l19.386-.004a2.674 2.674 0 0 0 2.099-1.013l12.086-15.153 12.084-15.16a2.692 2.692 0 0 0 .516-2.257l-8.618-37.77a2.652 2.652 0 0 0-1.456-1.851l-34.931-16.823a2.683 2.683 0 0 0-2.33 0l-34.931 16.823a2.684 2.684 0 0 0-1.449 1.823l-8.605 37.7a2.672 2.672 0 0 0 .494 2.357z"/></g></svg>