<svg enable-background="new 0 0 500 500" viewBox="-1.21 12.29 504.92 469.42" xmlns="http://www.w3.org/2000/svg" xmlns:xlink="http://www.w3.org/1999/xlink"><linearGradient id="a"><stop offset="0" stop-color="#2beda7"/><stop offset="1" stop-color="#018afd"/></linearGradient><linearGradient id="b" gradientUnits="userSpaceOnUse" x1="477.221" x2="477.221" xlink:href="#a" y1="106.515" y2="308.8"/><linearGradient id="c" gradientUnits="userSpaceOnUse" x1="25.459" x2="25.459" xlink:href="#a" y1="106.52" y2="308.812"/><linearGradient id="d" gradientUnits="userSpaceOnUse" x1="477.221" x2="477.221" xlink:href="#a" y1="196.062" y2="382.938"/><linearGradient id="e" gradientUnits="userSpaceOnUse" x1="403.048" x2="403.048" xlink:href="#a" y1="238.884" y2="425.76"/><linearGradient id="f" gradientUnits="userSpaceOnUse" x1="328.877" x2="328.877" xlink:href="#a" y1="281.704" y2="472.469"/><linearGradient id="g" gradientUnits="userSpaceOnUse" x1="173.82" x2="173.82" xlink:href="#a" y1="281.704" y2="472.466"/><linearGradient id="h" gradientUnits="userSpaceOnUse" x1="99.649" x2="99.649" xlink:href="#a" y1="238.883" y2="425.76"/><linearGradient id="i" gradientUnits="userSpaceOnUse" x1="25.478" x2="25.478" xlink:href="#a" y1="196.059" y2="382.936"/><path d="m460.4 106.5v182.8l33.7 19.5v-182.8z" fill="url(#b)"/><path d="m8.6 308.8 33.7-19.5v-182.8l-33.7 19.5z" fill="url(#c)"/><path d="m173.8 307 155.1 89.5v-38.9l-145.2-83.8-9.9 5.7zm164 141.4-164-94.7v38.9l43.8 25.3-52.7 30.4c-3.5 2-3.5 7.2 0 9.2l25.7 14.9 60.7-35 60.7 35 25.7-14.9c3.6-1.9 3.6-7.1.1-9.1z" fill="#2beda7"/><path d="m460.4 215.5v162.1c0 4.1 4.4 6.7 8 4.6l23.1-13.3c1.6-.9 2.7-2.7 2.7-4.6v-168.2z" fill="url(#d)"/><path d="m394.2 425 21.7-12.6c2.5-1.4 4-4.1 4-6.9v-166.6l-33.7 19.5v162.1c0 4 4.4 6.6 8 4.5z" fill="url(#e)"/><path d="m312 472.5 31.1-17.9c1.6-.9 2.7-2.7 2.7-4.6v-168.3l-33.8 19.5z" fill="url(#f)"/><path d="m159.6 454.5 31.1 17.9v-171.2l-33.7-19.5v168.2c0 1.9 1 3.7 2.6 4.6z" fill="url(#g)"/><path d="m86.8 412.5 21.7 12.6c3.5 2 8-.5 8-4.6v-162.2l-33.7-19.5v166.7c0 2.9 1.5 5.6 4 7z" fill="url(#h)"/><path d="m12.6 369.7 21.7 12.6c3.5 2 8-.5 8-4.6v-162.2l-33.7-19.4v166.7c0 2.8 1.5 5.4 4 6.9z" fill="url(#i)"/><path d="m494.1 126-33.7-19.5-60.7 35-40.4-23.3 52.7-30.4c3.5-2 3.5-7.2 0-9.2l-21.8-12.6c-2.5-1.4-5.5-1.4-8 0l-56.7 32.7-40.4-23.3 52.7-30.4c3.5-2 3.5-7.2 0-9.2l-21.8-12.6c-2.5-1.4-5.5-1.4-8 0l-56.7 32.7-56.7-32.7c-2.5-1.4-5.5-1.4-8 0l-21.8 12.6c-3.5 2-3.5 7.2 0 9.2l295.4 170.6 33.7-19.5-60.7-35zm-381.6-60-21.7 12.6c-3.5 2-3.5 7.2 0 9.2l295.4 170.6 33.7-19.5-299.4-172.9c-2.5-1.4-5.5-1.4-8 0zm-103.9 60 60.7 35-60.7 35.1 33.8 19.4 60.6-35 40.5 23.4-60.7 35 33.7 19.5 60.7-35.1 40.4 23.4-60.7 35 33.8 19.5 60.6-35.1 60.7 35.1 33.7-19.5-303.4-175.2z" fill="#2beda7"/></svg>