<svg xmlns="http://www.w3.org/2000/svg" role="img" viewBox="-18.09 -18.09 940.68 857.18"><path fill="#416A5D" d="M54.4854 579.082S147.955 441.87 318.467 483.898c170.511 42.029 169.17-123.806 340.956-150.552 171.786-26.678 234.68 59.792 234.68 59.792l10.795 111.473-47.338 121.192-88.843 63.881-39.829 32.376-23.266 71.388-72.215 4.96-36.543-5.831-6.638-57.245-36.543-22.858-74.025 12.87-28.094 34.857-18.238 38.207h-89.648l-14.952-66.428-55.787-24.265-97.024-55.435-40.7-32.376-42.3092 4.961-34.0621-5.832-4.3583-40.085v.134z" opacity=".4"/><path fill="#023927" d="M315.717 808.06h-30.374c-31.515 0-57.933-23.595-61.42-54.965l-4.023-36.398c-1.14-10.256 6.236-19.506 16.495-20.646 10.259-1.206 19.512 6.234 20.652 16.49l4.023 36.398c1.408 12.401 11.801 21.718 24.273 21.718h30.374c10.326 0 18.707 8.379 18.707 18.635 0 10.255-8.381 18.701-18.707 18.701m259.087.068h-26.486c-27.156 0-50.825-17.361-58.938-43.235l-8.784-27.952c-3.084-9.854 2.414-20.311 12.204-23.394 9.856-3.084 20.316 2.346 23.401 12.2l8.783 27.952c3.219 10.255 12.606 17.092 23.334 17.092h26.486c10.326 0 18.707 8.379 18.707 18.635 0 10.256-8.381 18.702-18.707 18.702z"/><path fill="#63E892" d="M521.833 60.5959c0 4.29 2.414 7.4405 7.107 9.4514v-17.227c-4.76.8714-7.107 3.4856-7.107 7.7756z"/><path fill="#023927" d="M532.293 0c-44.321 0-80.261 35.9287-80.261 80.2363 0 44.3077 35.94 80.2367 80.261 80.2367s80.26-35.929 80.26-80.2367C612.553 35.9287 576.614 0 532.293 0z"/><path fill="#7F9C93" d="M110.338 625.065S62.866 353.589 408.114 330.932c345.247-22.656 223.75-193.384 364.29-107.652 140.54 85.733 94.274 151.089 94.274 151.089l12.002 164.36-87.435 131.18-78.584 51.413-6.973 72.192-67.521 1.475-50.691-11.127-19.914-62.54-59.274-5.765-50.355 20.109-31.581 59.189-46.735 19.372-71.946-15.216s4.157-54.429 4.157-59.524c0-5.094-53.842-23.595-53.842-23.595l-9.119-25.874-111.976-52.954-26.553-12.2v.201z" opacity=".3"/><path fill="#023927" d="M675.783 821.332h-74.494c-19.043 0-35.269-13.607-38.622-32.309l-6.772-37.671c-1.006-5.631-5.9-9.72-11.667-9.72H471.88c-5.297 0-9.991 3.62-11.399 8.714l-11.399 41.962c-4.626 17.093-20.182 28.957-37.884 28.957h-68.929c-18.372 0-34.531-13.071-38.353-31.102l-10.594-49.67c-34.934-7.508-131.89-33.315-174.602-95.386-3.554-5.228-10.125-7.507-16.226-5.697l-19.8475 5.898c-11.0635 3.285-22.9987 1.676-32.8552-4.424-9.7895-6.032-16.6288-16.02-18.6403-27.415L.6426 442.003c-2.2127-12.468 1.34102-24.936 9.8565-34.32 8.5156-9.384 20.5848-14.278 33.2575-13.205l7.1745.536c6.9734.469 13.3433-3.821 15.2207-10.323 12.6727-44.106 47.2042-124.275 137.7232-180.313-12.471-8.111-29.234-13.34-50.087-15.552l-14.684-1.541-4.023-29.628 14.148-5.363 172.255-63.8803c12.873-4.8263 27.088-3.6197 39.023 3.2845 11.802 6.8372 19.848 18.5008 22.127 31.9738 5.901 35.325 17.3 59.658 30.576 65.355 51.696 14.948 194.918 40.755 250.772-14.679 16.025-15.887 41.773-18.3 61.218-5.765 54.714 35.526 181.642 137.28 178.893 315.65-.201 7.239-7.107 168.851-169.439 239.368l-21.255 69.98c-5.029 16.624-20.115 27.818-37.549 27.818M472.014 704.363h72.348c23.871 0 44.187 17.026 48.412 40.487l6.772 37.671c.134.872.938 1.542 1.877 1.542h74.494c.872 0 1.542-.536 1.811-1.341l26.418-86.939 8.314-3.352c147.312-59.188 154.151-202.97 154.353-209.07 2.413-159.333-112.379-251.3-161.863-283.408-4.76-3.083-10.862-2.681-14.483.939-83.344 82.649-280.14 26.209-288.455 23.729l-1.475-.469c-27.625-10.591-45.997-42.364-54.647-94.38-.536-3.285-2.749-5.027-4.023-5.765-1.274-.737-3.956-1.81-7.241-.603L215.14 167.711c14.617 7.642 26.418 17.697 35.269 30.232 25.413 35.861 15.891 77.689 15.489 79.431-2.414 10.055-12.472 16.222-22.462 13.876-9.991-2.346-16.227-12.334-13.88-22.389.134-.536 3.621-17.294-2.347-34.923-82.54 49.603-113.719 121.662-125.051 161.076-6.7718 23.461-29.4352 39.213-54.043 37.202l-7.1745-.536c-1.2069-.067-2.1457.536-2.6821 1.073-.4693.536-1.0057 1.407-.8046 2.748l30.5755 171.6c.2011 1.139.9387 1.809 1.4751 2.145.5364.335 1.4751.67 2.615.335l19.8472-5.899c21.6574-6.435 44.7904 1.743 57.5974 20.31 42.577 61.937 161.325 81.98 162.532 82.181l12.606 2.078 15.757 74.203c.201.872.939 1.475 1.81 1.475h68.929c.872 0 1.61-.604 1.811-1.408l11.398-41.961c5.767-21.383 25.279-36.331 47.473-36.331"/><path fill="#023927" d="M238.474 382.278c0 19.975-16.16 36.13-36.141 36.13-19.981 0-36.141-16.155-36.141-36.13s16.16-36.13 36.141-36.13c19.981 0 36.141 16.155 36.141 36.13z"/></svg>