<svg xmlns="http://www.w3.org/2000/svg" role="img" viewBox="-0.24 11.76 64.35 40.35"><path fill="#231F20" d="M43.1484 51H20.8516c-5.2649 0-10.3143-2.0018-14.03719-5.565C3.0915 41.8719 1 37.0391 1 32c0-5.0391 2.0915-9.8719 5.81441-13.435C10.5373 15.0018 15.5867 13 20.8516 13h22.2968c5.2649 0 10.3143 2.0018 14.0372 5.565C60.9085 22.1281 63 26.9609 63 32c0 5.0391-2.0915 9.8719-5.8144 13.435C53.4627 48.9982 48.4133 51 43.1484 51zm.0864-32.996c-2.8922 0-5.7194.8208-8.1243 2.3587-2.4047 1.538-4.2791 3.7238-5.3859 6.2813-1.1068 2.5574-1.3964 5.3715-.8322 8.0865.5643 2.7149 1.9571 5.2088 4.0021 7.1662 2.0452 1.9574 4.6508 3.2904 7.4874 3.8304 2.8367.54 5.777.2629 8.4491-.7964 2.672-1.0594 4.956-2.8533 6.5627-5.1549 1.6069-2.3017 2.4645-5.0077 2.4645-7.7758.0011-1.8408-.3775-3.6637-1.114-5.3642-.7365-1.7005-1.8164-3.2451-3.1779-4.5454-1.3614-1.3003-2.9776-2.3305-4.7559-3.0317-1.7783-.7013-3.6837-1.0597-5.607-1.0547h.0314z"/></svg>