<svg viewBox="0 0 360 360" xmlns="http://www.w3.org/2000/svg"><path d="m179.432 5.88043a173.22942 173.22942 0 1 1 -173.22941 173.22941 173.22942 173.22942 0 0 1 173.22941-173.22941" fill="#c00"/><path d="m77.65462 205.60375 140.82538-179.34339c3.13849 6.1955 0 9.70085-1.22281 13.41-12.7986 35.09424-25.39341 70.433-38.80338 105.32348-3.30154 8.8449-1.87495 10.92365 7.4183 10.92365h90.64989c2.44559 0 5.74716-1.2228 7.21448 1.46736s-1.67117 4.72814-3.09775 6.80688l-115.43191 152.80873c-1.8342 2.48636-3.6684 6.19549-7.0107 4.36131s-1.2228-5.58411 0-8.68184c8.88565-32.60789 17.32294-64.849 26.61618-97.253 2.32331-7.62211 0-9.29325-6.96993-9.08947h-86.12559z" fill="#fff"/></svg>