<svg height="180" width="190" xmlns="http://www.w3.org/2000/svg" xmlns:xlink="http://www.w3.org/1999/xlink"><defs><rect id="b" height="28.444" rx="1" width="34.909" x="75.877" y="91.103"/><filter id="a" height="1.281" width="1.229" x="-.115" y="-.07"><feOffset dy="2" in="SourceAlpha" result="shadowOffsetOuter1"/><feGaussianBlur in="shadowOffsetOuter1" result="shadowBlurOuter1" stdDeviation="1"/><feColorMatrix in="shadowBlurOuter1" values="0 0 0 0 0 0 0 0 0 0 0 0 0 0 0 0 0 0 0.25427423 0"/></filter><rect id="d" height="28.444" rx="1" width="34.909" x="118.932" y="91.103"/><filter id="c" height="1.281" width="1.229" x="-.115" y="-.07"><feOffset dy="2" in="SourceAlpha" result="shadowOffsetOuter1"/><feGaussianBlur in="shadowOffsetOuter1" result="shadowBlurOuter1" stdDeviation="1"/><feColorMatrix in="shadowBlurOuter1" values="0 0 0 0 0 0 0 0 0 0 0 0 0 0 0 0 0 0 0.25427423 0"/></filter><rect id="f" height="28.444" rx="1" width="34.909" x="118.932" y="55.094"/><filter id="e" height="1.246" width="1.201" y="-.088"><feOffset dy="1" in="SourceAlpha" result="shadowOffsetOuter1"/><feGaussianBlur in="shadowOffsetOuter1" result="shadowBlurOuter1" stdDeviation="1"/><feColorMatrix in="shadowBlurOuter1" values="0 0 0 0 0 0 0 0 0 0 0 0 0 0 0 0 0 0 0.101987092 0"/></filter><ellipse id="h" cx="94.332" cy="70.41" rx="16.291" ry="15.316"/><filter id="g" height="1.229" width="1.215" x="-.107" y="-.082"><feOffset dy="1" in="SourceAlpha" result="shadowOffsetOuter1"/><feGaussianBlur in="shadowOffsetOuter1" result="shadowBlurOuter1" stdDeviation="1"/><feColorMatrix in="shadowBlurOuter1" values="0 0 0 0 0 0 0 0 0 0 0 0 0 0 0 0 0 0 0.101987092 0"/></filter><path id="j" d="M114.79 102.126l28.06 67.84H87.42l-32.576-47.82z"/><filter id="i" height="1.162" width="1.125" x="-.062" y="-.066"><feMorphology in="SourceAlpha" operator="dilate" radius=".5" result="shadowSpreadOuter1"/><feOffset dy="1" in="shadowSpreadOuter1" result="shadowOffsetOuter1"/><feGaussianBlur in="shadowOffsetOuter1" result="shadowBlurOuter1" stdDeviation="1.5"/><feComposite in="shadowBlurOuter1" in2="SourceAlpha" operator="out" result="shadowBlurOuter1"/><feColorMatrix in="shadowBlurOuter1" values="0 0 0 0 0.160909878 0 0 0 0 0.252651212 0 0 0 0 0.527875213 0 0 0 0.35326087 0"/></filter><path id="l" d="M115.44 102.126l64.067 19.9-36.986 47.94-27.08-.387z"/><filter id="k" height="1.221" width="1.234" x="-.117" y="-.081"><feMorphology in="SourceAlpha" operator="dilate" radius=".5" result="shadowSpreadOuter1"/><feOffset dy="2" in="shadowSpreadOuter1" result="shadowOffsetOuter1"/><feGaussianBlur in="shadowOffsetOuter1" result="shadowBlurOuter1" stdDeviation="2"/><feComposite in="shadowBlurOuter1" in2="SourceAlpha" operator="out" result="shadowBlurOuter1"/><feColorMatrix in="shadowBlurOuter1" values="0 0 0 0 0.235294118 0 0 0 0 0.380392157 0 0 0 0 0.815686275 0 0 0 0.15942029 0"/></filter><rect id="n" height="143.316" rx="1" width="37.236" x=".241" y="31.026"/><filter id="m" height="1.091" width="1.349" x="-.201" y="-.031"><feMorphology in="SourceAlpha" radius=".5" result="shadowSpreadOuter1"/><feOffset dx="-1" dy="2" in="shadowSpreadOuter1" result="shadowOffsetOuter1"/><feGaussianBlur in="shadowOffsetOuter1" result="shadowBlurOuter1" stdDeviation="2"/><feColorMatrix in="shadowBlurOuter1" values="0 0 0 0 0.628029337 0 0 0 0 0.25783008 0 0 0 0 0.0713793602 0 0 0 0.311141304 0"/></filter><path id="p" d="M1.95 32.112H178.37a1 1 0 0 0 .206-1.978L37.423.389a1 1 0 0 0-.851.214L1.306 30.348a1 1 0 0 0 .644 1.764z"/><filter id="o" height="1.315" width="1.056" x="-.028" y="-.095"><feMorphology in="SourceAlpha" radius=".5" result="shadowSpreadOuter1"/><feOffset dy="2" in="shadowSpreadOuter1" result="shadowOffsetOuter1"/><feGaussianBlur in="shadowOffsetOuter1" result="shadowBlurOuter1" stdDeviation="1.5"/><feColorMatrix in="shadowBlurOuter1" values="0 0 0 0 0.589896896 0 0 0 0 0.444269767 0 0 0 0 0.0232174145 0 0 0 0.213966259 0"/></filter><path id="r" d="M37.72.617l70.065 31.37 70.893.448a1 1 0 0 0 .213-1.978z"/><filter id="q" height="1.126" width="1.028" x="-.021" y="-.063"><feOffset dx="-1" in="SourceAlpha" result="shadowOffsetOuter1"/><feGaussianBlur in="shadowOffsetOuter1" result="shadowBlurOuter1" stdDeviation=".5"/><feColorMatrix in="shadowBlurOuter1" values="0 0 0 0 0.781329719 0 0 0 0 0.53013306 0 0 0 0 0.202916359 0 0 0 0.311962183 0"/></filter></defs><g fill="none" fill-rule="evenodd" transform="translate(5.12 1)"><use fill="#000" filter="url(#a)" height="100%" width="100%" xlink:href="#b"/><use fill="#b2dce9" height="100%" width="100%" xlink:href="#b"/><use fill="#000" filter="url(#c)" height="100%" width="100%" xlink:href="#d"/><use fill="#b2dce9" height="100%" width="100%" xlink:href="#d"/><use fill="#000" filter="url(#e)" height="100%" width="100%" xlink:href="#f"/><use fill="#b2dce9" height="100%" width="100%" xlink:href="#f"/><use fill="#000" filter="url(#g)" height="100%" width="100%" xlink:href="#h"/><use fill="#c8d8e4" height="100%" width="100%" xlink:href="#h"/><g fill-rule="nonzero"><g stroke-linejoin="round"><use fill="#000" filter="url(#i)" height="100%" width="100%" xlink:href="#j"/><use fill="#3b87ec" height="100%" stroke="#3b87ec" width="100%" xlink:href="#j"/></g><g stroke-linejoin="round"><use fill="#000" filter="url(#k)" height="100%" width="100%" xlink:href="#l"/><use fill="#3c61d0" height="100%" stroke="#3c61d0" width="100%" xlink:href="#l"/></g><use fill="#000" filter="url(#m)" height="100%" width="100%" xlink:href="#n"/><use fill="#f6961f" height="100%" width="100%" xlink:href="#n"/><rect fill="#ffd16a" height="54.701" rx="1" width="37.236" x=".241" y="31.026"/><path d="M.24 78.068h37.237v47.043H.241z" fill="#f9b861"/><use fill="#000" filter="url(#o)" height="100%" width="100%" xlink:href="#p"/><use fill="#f6961f" height="100%" width="100%" xlink:href="#p"/></g><path d="M37.157.59v31.735h70.978z" fill="#f9b861"/><use fill="#000" filter="url(#q)" height="100%" width="100%" xlink:href="#r"/><use fill="#ffd16a" height="100%" width="100%" xlink:href="#r"/></g></svg>