<svg xmlns="http://www.w3.org/2000/svg" role="img" viewBox="-2.48 -2.35 147.82 154.70"><path fill="url(#paint0_linear)" fill-rule="evenodd" d="M44.3018 26.3872c5.0975-2.9431 7.6071-8.6471 6.7303-14.1325 6.4454-2.1431 13.3395-3.30353 20.5047-3.30353 35.8662 0 64.9412 29.07513 64.9412 64.94103 0 18.1669-7.46 34.5918-19.483 46.3778-5.262-4.801-13.224-5.883-19.7217-2.132-6.5276 3.769-9.569 11.257-7.993 18.242-5.6398 1.598-11.5918 2.453-17.7435 2.453-35.866 0-64.9411-29.075-64.9411-64.9408 0-19.4334 8.536-36.8731 22.0632-48.7743 4.3137 3.5295 10.5302 4.2211 15.6429 1.2693zM91.6524 141.941c-6.3773 1.882-13.1285 2.892-20.1156 2.892-39.1797 0-70.9411-31.761-70.9411-70.9408 0-21.3502 9.4316-40.4976 24.3556-53.503-3.088-6.4405-.7381-14.27349 5.5506-17.90426 6.3028-3.63892 14.2829-1.7409 18.3079 4.18485 7.1348-2.41132 14.7782-3.71862 22.727-3.71862 39.1792 0 70.9412 31.76143 70.9412 70.94103 0 20.1173-8.374 38.2788-21.826 51.1888 4.022 7.906 1.192 17.666-6.58 22.153-7.743 4.471-17.5646 2.077-22.4196-5.293zm5.0502-100.1252H52.5002c-.1346 0-.2693.0245-.3917.0796-.1225.0551-.2388.1224-.3367.2265-.0918.0918-.1653.202-.2204.3366-.0551.1286-.0796.2571-.0796.3918v11.7408c0 .2755.1102.5387.3.7346.1898.1958.453.306.7284.306h29.8172v28.3175c0 .1346.0245.2693.0796.3917.0551.1225.1224.2388.2204.3367.0979.098.2081.1714.3366.2265.1225.0551.2571.0796.3918.0796h13.363c.2754 0 .5386-.1102.7284-.3061.1898-.1959.2999-.4591.2999-.7345V42.8503c0-.2755-.1101-.5387-.306-.7346-.202-.1958-.453-.2999-.7285-.2999zm-44.766 27.6195h14.4893c.2571 0 .4652.2081.4591.4713v40.4864c0 .264-.2081.472-.4652.472H51.9366c-.2571 0-.4652-.208-.4652-.472V69.9066c0-.2632.2081-.4713.4652-.4713z" clip-rule="evenodd"/><defs><linearGradient id="paint0_linear" x1="-5.571" x2="131.784" y1="124.45" y2="116.205" gradientUnits="userSpaceOnUse"><stop stop-color="#00DBA6"/><stop offset="1" stop-color="#24B2FF"/></linearGradient></defs></svg>