<svg width="500" height="500" xmlns="http://www.w3.org/2000/svg" xmlns:xlink="http://www.w3.org/1999/xlink"><defs><path d="M112.611 65.645c-25.78 34.625-51.323 37.478-76.628 8.56-18.133-16.97-12.128-38.584-3.356-54.697 4.728-8.282 3.54-14.22-3.563-17.813-8.07-3.687-15.223.27-21.459 11.869-9.353 17.398-11.818 44.825 5.176 68.52 16.994 23.694 52.972 46.48 83.241 31.822 20.18-9.773 31.603-22.2 34.271-37.283" id="a"/><circle id="c" cx="198.803" cy="120.916" r="120.695"/><ellipse id="e" cx="136.385" cy="119.003" rx="136.259" ry="118.929"/></defs><g fill="none" fill-rule="evenodd"><g transform="translate(35.5 2)"><g transform="translate(0 168.531)"><g transform="translate(0 45.615)"><g transform="translate(0 24.744)"><mask id="b" fill="#fff"><use xlink:href="#a"/></mask><use stroke="#3C2E53" stroke-width="2" fill="#F7CD88" fill-rule="nonzero" xlink:href="#a"/><ellipse fill="#FFF" fill-rule="nonzero" mask="url(#b)" cx="8.757" cy="15.136" rx="43.029" ry="48.408"/><path d="M112.611 65.645c-25.78 34.625-51.323 37.478-76.628 8.56-18.133-16.97-12.128-38.584-3.356-54.697 4.728-8.282 3.54-14.22-3.563-17.813-8.07-3.687-15.223.27-21.459 11.869-9.353 17.398-11.818 44.825 5.176 68.52 16.994 23.694 52.972 46.48 83.241 31.822 20.18-9.773 31.603-22.2 34.271-37.283" stroke="#3C2E53" stroke-width="9"/></g><rect stroke="#3C2E53" stroke-width="9" fill="#F7CD88" fill-rule="nonzero" x="128.002" y="164.859" width="30.443" height="112.916" rx="15.222"/><rect stroke="#3C2E53" stroke-width="9" fill="#F7CD88" fill-rule="nonzero" x="242.746" y="164.859" width="30.443" height="112.916" rx="15.222"/><mask id="d" fill="#fff"><use xlink:href="#c"/></mask><use fill="#F7CD88" fill-rule="nonzero" xlink:href="#c"/><ellipse fill="#FFF" fill-rule="nonzero" mask="url(#d)" cx="211.978" cy="149.965" rx="80.065" ry="84.068"/></g><circle stroke="#3C2E53" stroke-width="9" cx="198.803" cy="166.531" r="116.195"/><path d="M282.751 94.259c39.614-22.813 65.18-42.756 76.699-59.829C376.727 8.82 384.98 1.52 395.55 4.632c14.389 6.856 15.3 17.88 1.77 38.308-3.666 5.534-7.808 11.812-13.183 18.717-14.463 18.58-37.849 41.695-84.881 67.072" stroke="#3C2E53" stroke-width="9" fill="#F7CD88" fill-rule="nonzero"/><path d="M122.308 129.871c-25.095 13.635-35.399 33.186-30.91 58.654 4.49 25.469-.1 40.191-13.77 44.168-13.434-.503-21.18-11.473-23.24-32.909-3.088-32.154 4.525-78.868 56.805-110.323" stroke="#3C2E53" stroke-width="9" fill="#F7CD88" fill-rule="nonzero"/></g><g transform="translate(52.786)"><g transform="translate(5.667 59.471)"><mask id="f" fill="#fff"><use xlink:href="#e"/></mask><use fill="#F7CD88" fill-rule="nonzero" xlink:href="#e"/><ellipse fill="#FFF" fill-rule="nonzero" mask="url(#f)" cx="154.188" cy="206.182" rx="107.573" ry="69.922"/></g><ellipse stroke="#3C2E53" stroke-width="9" cx="142.052" cy="178.474" rx="131.759" ry="114.429"/><g transform="translate(117.24 193.23)" fill="#3C2E53" fill-rule="nonzero"><path d="M48.934 16.193c1.998 6.666 11.455 11.715 22.82 11.715 10 0 18.522-3.908 21.787-9.386.255.852.389 1.73.389 2.628 0 7.922-10.392 14.343-23.21 14.343-12.818 0-23.21-6.421-23.21-14.343 0-1.742.503-3.412 1.424-4.957z"/><path d="M46.157 16.193c-1.998 6.666-11.455 11.715-22.82 11.715-10 0-18.522-3.908-21.787-9.386a9.124 9.124 0 0 0-.389 2.628c0 7.922 10.391 14.343 23.21 14.343 12.818 0 23.21-6.421 23.21-14.343 0-1.742-.503-3.412-1.424-4.957z"/><path d="M37.4884259 0L57.5743147 0 47.5313703 20.9052923z"/></g><g transform="translate(98.311 139.03)" fill-rule="nonzero"><circle fill="#FFF" cx="21.771" cy="21.977" r="21.515"/><circle fill="#FFF" cx="104.244" cy="21.977" r="21.515"/><ellipse fill="#3C2E53" cx="22.997" cy="21.977" rx="7.172" ry="14.343"/><ellipse fill="#3C2E53" cx="105.469" cy="21.977" rx="7.172" ry="14.343"/></g><g transform="translate(52.327 .513)" fill-rule="nonzero"><path d="M130.1 74.901L108.441 12.53C71.77 1.05 37.25 10.78 4.88 41.719L3.847 100.95c24.503 6.493 66.587-2.19 126.252-26.05z" fill="#FFF"/><path d="M127.34 66.771L106.813 7.37C68.837-5.451 33.665 3.608 1.295 34.547L.261 93.78c24.504 6.494 66.863-2.509 127.079-27.008z" fill="#BB0048"/></g><g transform="translate(99.023 258.907)" fill="#BB0048" fill-rule="nonzero"><path d="M0.772735662 0.579277522L0.772735662 62.0625474 120.12314 0.579277522 120.12314 62.0625474z"/><circle stroke="#BB0048" cx="60.448" cy="31.321" r="11.976"/></g><g transform="translate(0 162.36)" fill-rule="nonzero" stroke="#3C2E53" stroke-linecap="round" stroke-width="9"><path d="M260.286 6.643L289.81.17m-33.43 34.552l30.165 1.915M24.779 47.497L.985 49.761m23.141-28.352L3.888 19.613"/></g></g></g><g transform="translate(109.951 73.814)" fill-rule="nonzero"><path d="M41.7 24.585L2.737-7.775-3.64 65.139l45.34-40.553z" stroke="#3C2E53" stroke-width="9" stroke-linecap="square"/><path fill="#F7CD88" transform="scale(-1 1) rotate(-5 0 586.48)" d="M3.42968086 30.335435L44.4663844 1.90843958 44.4663844 74.0509573z"/></g><g transform="translate(264.485 42.542)" fill-rule="nonzero"><path stroke="#3C2E53" stroke-width="9" d="M4.42968086 29.335435L45.4663844 0.908439578 45.4663844 44.3648344z"/><path fill="#F7CD88" d="M0.596975686 36.9392143L42.051968 8.22246141 42.051968 81.1003307z"/></g><path fill="#D67D54" fill-rule="nonzero" d="M124.169922 93.0986328L155.831055 117.620117 122.680664 141.103516z"/><path fill="#D67D54" fill-rule="nonzero" d="M275.632812 83.7392578L299.413086 99.8564453 299.413086 64.5419922z"/></g></svg>