<svg xmlns="http://www.w3.org/2000/svg" role="img" xmlns:xlink="http://www.w3.org/1999/xlink" viewBox="21.12 -5.88 435.26 513.76"><defs><ellipse id="e" cx="136.385" cy="119.003" rx="136.259" ry="118.929"/><circle id="c" cx="198.803" cy="120.916" r="120.695"/><path id="a" d="M112.611 65.645c-25.78 34.625-51.323 37.478-76.628 8.56-18.133-16.97-12.128-38.584-3.356-54.697 4.728-8.282 3.54-14.22-3.563-17.813-8.07-3.687-15.223.27-21.459 11.869-9.353 17.398-11.818 44.825 5.176 68.52 16.994 23.694 52.972 46.48 83.241 31.822 20.18-9.773 31.603-22.2 34.271-37.283"/></defs><g fill="none" fill-rule="evenodd"><g transform="translate(35.5 170.531)"><g transform="translate(0 45.615)"><g transform="translate(0 24.744)"><mask id="b" fill="#fff"><use xlink:href="#a"/></mask><use fill="#F7CD88" fill-rule="nonzero" stroke="#3C2E53" stroke-width="2" xlink:href="#a"/><ellipse cx="8.757" cy="15.136" fill="#FFF" fill-rule="nonzero" mask="url(#b)" rx="43.029" ry="48.408"/><path stroke="#3C2E53" stroke-width="9" d="M112.611 65.645c-25.78 34.625-51.323 37.478-76.628 8.56-18.133-16.97-12.128-38.584-3.356-54.697 4.728-8.282 3.54-14.22-3.563-17.813-8.07-3.687-15.223.27-21.459 11.869-9.353 17.398-11.818 44.825 5.176 68.52 16.994 23.694 52.972 46.48 83.241 31.822 20.18-9.773 31.603-22.2 34.271-37.283"/></g><rect width="30.443" height="112.916" x="128.002" y="164.859" fill="#F7CD88" fill-rule="nonzero" stroke="#3C2E53" stroke-width="9" rx="15.222"/><rect width="30.443" height="112.916" x="242.746" y="164.859" fill="#F7CD88" fill-rule="nonzero" stroke="#3C2E53" stroke-width="9" rx="15.222"/><mask id="d" fill="#fff"><use xlink:href="#c"/></mask><use fill="#F7CD88" fill-rule="nonzero" xlink:href="#c"/><ellipse cx="211.978" cy="149.965" fill="#FFF" fill-rule="nonzero" mask="url(#d)" rx="80.065" ry="84.068"/></g><circle cx="198.803" cy="166.531" r="116.195" stroke="#3C2E53" stroke-width="9"/><path fill="#F7CD88" fill-rule="nonzero" stroke="#3C2E53" stroke-width="9" d="M282.751 94.259c39.614-22.813 65.18-42.756 76.699-59.829 17.277-25.61 25.53-32.91 36.1-29.798 14.389 6.856 15.3 17.88 1.77 38.308-3.666 5.534-7.808 11.812-13.183 18.717-14.463 18.58-37.849 41.695-84.881 67.072m-176.948 1.142c-25.095 13.635-35.399 33.186-30.91 58.654 4.49 25.469-.1 40.191-13.77 44.168-13.434-.503-21.18-11.473-23.24-32.909-3.088-32.154 4.525-78.868 56.805-110.323"/></g><g transform="translate(88.286 2)"><g transform="translate(5.667 59.471)"><mask id="f" fill="#fff"><use xlink:href="#e"/></mask><use fill="#F7CD88" fill-rule="nonzero" xlink:href="#e"/><ellipse cx="154.188" cy="206.182" fill="#FFF" fill-rule="nonzero" mask="url(#f)" rx="107.573" ry="69.922"/></g><ellipse cx="142.052" cy="178.474" stroke="#3C2E53" stroke-width="9" rx="131.759" ry="114.429"/><g fill="#3C2E53" fill-rule="nonzero"><path d="M166.174 209.423c1.998 6.666 11.455 11.715 22.82 11.715 10 0 18.522-3.908 21.787-9.386.255.852.389 1.73.389 2.628 0 7.922-10.392 14.343-23.21 14.343-12.818 0-23.21-6.421-23.21-14.343 0-1.742.503-3.412 1.424-4.957z"/><path d="M163.397 209.423c-1.998 6.666-11.455 11.715-22.82 11.715-10 0-18.522-3.908-21.787-9.386a9.124 9.124 0 0 0-.389 2.628c0 7.922 10.391 14.343 23.21 14.343 12.818 0 23.21-6.421 23.21-14.343 0-1.742-.503-3.412-1.424-4.957z"/><path d="M154.72843 193.23h20.08588l-10.04294 20.9053z"/></g><g fill-rule="nonzero" transform="translate(98.311 139.03)"><circle cx="21.771" cy="21.977" r="21.515" fill="#FFF"/><circle cx="104.244" cy="21.977" r="21.515" fill="#FFF"/><ellipse cx="22.997" cy="21.977" fill="#3C2E53" rx="7.172" ry="14.343"/><ellipse cx="105.469" cy="21.977" fill="#3C2E53" rx="7.172" ry="14.343"/></g><g fill-rule="nonzero"><path fill="#FFF" d="M182.427 75.414l-21.659-62.371c-36.671-11.48-71.191-1.75-103.561 29.189l-1.033 59.231c24.503 6.493 66.587-2.19 126.252-26.05z"/><path fill="#BB0048" d="M179.667 67.284L159.14 7.883C121.164-4.938 85.992 4.121 53.622 35.06l-1.034 59.233c24.504 6.494 66.863-2.509 127.079-27.008z"/></g><g fill="#BB0048" fill-rule="nonzero" transform="translate(99.023 258.907)"><path d="M.77274.57928v61.48327L120.12314.57928v61.48327z"/><circle cx="60.448" cy="31.321" r="11.976" stroke="#BB0048"/></g><path d="M260.286 169.003l29.524-6.473m-33.43 34.552l30.165 1.915m-261.766 10.86L.985 212.121m23.141-28.352l-20.238-1.796" fill-rule="nonzero" stroke="#3C2E53" stroke-linecap="round" stroke-width="9"/></g><g fill-rule="nonzero"><path stroke="#3C2E53" stroke-linecap="square" stroke-width="9" d="M151.651 98.399l-38.963-32.36-6.377 72.914 45.34-40.553z"/><path fill="#F7CD88" d="M155.00557 105.96684l-38.40298-31.89541-6.28763 71.868z"/></g><g fill-rule="nonzero"><path stroke="#3C2E53" stroke-width="9" d="M268.91468 71.87744l41.0367-28.427v43.4564z"/><path fill="#F7CD88" d="M265.08198 79.48121l41.45499-28.71675v72.87787z"/></g><path fill="#D67D54" fill-rule="nonzero" d="M124.16992 93.09863l31.66113 24.52149-33.15039 23.4834zm151.4629-9.35937l23.78027 16.11719V64.54199z"/></g></svg>