<svg xmlns="http://www.w3.org/2000/svg" role="img" viewBox="3.40 -0.60 242.45 252.20"><defs><style>.cls-1{fill:#3e87cb}</style></defs><path d="M144.07 39.563c-3.907 29.58-58.603 51.534-66.23 60.464-22.884-4.651-55.813-11.163-58.046 12.465 0 0 1.488 1.86 9.488-5.023 6.326-4.28 2.419 4.279 2.419 4.279-18.79 3.348-27.162 8.372-21.581 15.627 11.348-10.604 36.278 2.047 43.162 19.72 6.325-51.905 94.137-55.068 90.788-107.532zm97.114 131.904c-28.464 23.813-67.347 35.162-117.765 20.279a39.683 39.683 0 0 0 9.538 27.72c10.54 12.132 28.783 17.589 49.624 8.558-10.206-.153-18.913-2.804-25.921-8.558a36.937 36.937 0 0 1-4.404-4.28c39.44 9.303 68.277-7.069 88.928-43.719z" class="cls-1"/><path d="M92.11 219.466c-8.052-20.312-1.111-45.108 27.775-53.394 39.999-13.953 87.44-20.279 90.602-89.859-11.348 28.465-58.231 56.743-100.09 60.278 62.324-26.79 124.09-67.533 96.555-132.276 7.256 47.627-39.069 69.022-94.695 93.393-42.418 19.907-55.999 40.185-51.162 72.37 3.295 19.16 10.43 36.256 20.102 49.488 11.083 15.162 25.496 25.25 41.292 27.534a46.284 46.284 0 0 1-30.379-27.534z" class="cls-1"/><path d="M122.155 219.466c-10.897-15.45-8.514-37.535 15.962-53.952-24.93 5.209-45.022 27.348-36.092 53.394.077.19.169.37.25.558 10.35 24.283 45.157 31.15 70.818 17.488-22.951 3.924-41.708-4.402-50.938-17.488z" class="cls-1"/></svg>