<svg xmlns="http://www.w3.org/2000/svg" role="img" viewBox="-7.88 -7.38 406.50 409.50"><path fill="#326DE6" fill-rule="evenodd" d="M195.387 25.6297c-2.084-1.0471-4.54-1.0471-6.623 0L52.145 94.2978c-1.9682.9893-3.3908 2.8068-3.8781 4.9546L15.0381 245.722c-.4945 2.18.0272 4.466 1.4185 6.216L110.02 369.614c1.398 1.759 3.523 2.785 5.771 2.785H268.36c2.248 0 4.373-1.026 5.771-2.785l93.563-117.676c1.391-1.75 1.913-4.036 1.419-6.216L335.884 99.2524c-.488-2.1478-1.91-3.9653-3.878-4.9546L195.387 25.6297zm-13.246-13.1695c6.25-3.14151 13.619-3.14151 19.869 0l136.619 68.6681c5.904 2.9679 10.172 8.4202 11.634 14.8638l33.229 146.4689c1.483 6.54-.082 13.399-4.256 18.649l-93.563 117.676c-4.195 5.278-10.57 8.353-17.313 8.353H115.791c-6.743 0-13.118-3.075-17.3136-8.353L4.91444 261.11c-4.17376-5.25-5.739-12.109-4.25537-18.649L33.8879 95.9921c1.4618-6.4436 5.7295-11.8959 11.6342-14.8638L182.141 12.4602z" clip-rule="evenodd"/><path fill="#326DE6" fill-rule="evenodd" d="M200.24 18.1375l46.782 220.2495L37.746 102.001l8.0518-12.3482L225.189 206.563 185.818 21.1993l14.422-3.0618z" clip-rule="evenodd"/><path fill="#326DE6" fill-rule="evenodd" d="M368.145 255.309l-133.817-27.598 2.808-14.451 133.817 27.598-2.808 14.451z" clip-rule="evenodd"/><path fill="#326DE6" fill-rule="evenodd" d="M241.154 225.143L116.409 378.014l-11.425-9.318 124.745-152.871 11.425 9.318z" clip-rule="evenodd"/><path fill="#326DE6" fill-rule="evenodd" d="M103.542 374.522L34.6176 97.6058l14.308-3.5594L117.85 370.963l-14.308 3.559zm258.339-112.295L130.887 374.522l-5.466-12.162 230.994-112.295 5.466 12.162z" clip-rule="evenodd"/><path fill="#1D4493" d="M262.616 215.826c0 15.83-12.836 28.664-28.672 28.664-15.835 0-28.671-12.834-28.671-28.664 0-15.831 12.836-28.665 28.671-28.665 15.836 0 28.672 12.834 28.672 28.665zm128.273 34.238c0 10.795-8.753 19.546-19.551 19.546-10.798 0-19.552-8.751-19.552-19.546 0-10.794 8.754-19.546 19.552-19.546s19.551 8.752 19.551 19.546zM136.314 370.333c0 13.234-10.731 23.962-23.969 23.962-13.237 0-23.968-10.728-23.968-23.962s10.731-23.962 23.968-23.962c13.238 0 23.969 10.728 23.969 23.962zM60.3448 95.8258c0 10.2552-8.3154 18.5682-18.5731 18.5682-10.2576 0-18.5731-8.313-18.5731-18.5682 0-10.2549 8.3155-18.5681 18.5731-18.5681 10.2577 0 18.5731 8.3132 18.5731 18.5681zM209.512 18.1376c0 9.6276-7.806 17.4323-17.437 17.4323-9.63 0-17.437-7.8047-17.437-17.4323 0-9.62763 7.807-17.43234 17.437-17.43234 9.631 0 17.437 7.80471 17.437 17.43234z"/></svg>