<svg xmlns="http://www.w3.org/2000/svg" role="img" viewBox="-0.62 -0.56 29.12 29.06"><defs><linearGradient id="a" x1="0%" x2="100%" y1="50%" y2="50%"><stop offset="0%" stop-color="#134AFF"/><stop offset="100%" stop-color="#8768FF"/></linearGradient></defs><g fill-rule="nonzero" fill="none" stroke="none" stroke-width="1"><path fill="url(#a)" d="M5.12777 0h17.74446c1.78304 0 2.42961.18565 3.08146.53427.65185.34861 1.16343.86019 1.51204 1.51204C27.81435 2.69816 28 3.34473 28 5.12777v17.74446c0 1.78304-.18565 2.42961-.53427 3.08146-.34861.65185-.86019 1.16343-1.51204 1.51204-.65185.34862-1.29842.53427-3.08146.53427H5.12777c-1.78304 0-2.42961-.18565-3.08146-.53427-.65185-.34861-1.16343-.86019-1.51204-1.51204C.18565 25.30184 0 24.65527 0 22.87223V5.12777c0-1.78304.18565-2.42961.53427-3.08146C.88288 1.39446 1.39446.88288 2.0463.53427 2.69816.18565 3.34473 0 5.12777 0z"/><g fill="#FFF" transform="translate(5 5)"><path d="M6.531 14.26234c-1.06976 0-1.92053-.24225-2.55135-.72675-.63081-.4845-.95736-1.18023-.97965-2.0872h1.96996c.0814.79069.59787 1.18604 1.55039 1.18604.35368 0 .65504-.0717.90213-.21512.2471-.1434.37016-.36143.37016-.656 0-.20252-.07752-.37016-.23256-.50679-.15407-.13469-.31202-.22965-.469-.28488-.15988-.0533-.46027-.13954-.9031-.25582-.02131-.00678-.03682-.0126-.04457-.01744a.33565.33565 0 0 0-.03294-.01066.17044.17044 0 0 0-.04458-.00581c-.33915-.08527-.61822-.16085-.83624-.22674-.21705-.0659-.46415-.16667-.74128-.30233-.27713-.13566-.49612-.28585-.65794-.44767-.16376-.1628-.30136-.37791-.4157-.64535-.11337-.26648-.17151-.56686-.17151-.9002 0-.85271.28973-1.49225.86821-1.9186.58043-.42636 1.33818-.63954 2.2752-.63954.90116 0 1.6376.21803 2.2093.65117.5717.4341.87597 1.06976.91376 1.90697h-1.9157c-.03779-.31783-.16666-.56298-.3876-.73837-.2219-.17442-.51647-.26163-.88565-.26163-.34012 0-.61434.0717-.82462.21512-.21027.14341-.31589.3314-.31589.56395 0 .26357.125.45543.37597.57461.25194.12016.72384.2626 1.4186.42442.43411.10853.79264.21512 1.07268.31977.28004.10465.5659.25485.85853.44768.2907.1938.50872.4438.6531.75.14244.30523.21608.67248.21608 1.09883 0 .84496-.30523 1.50679-.91376 1.9874-.6095.48063-1.38565.72094-2.33042.72094"/><path d="M11.768 3.045l-1.985.844 4.22 10.374L16 13.449z"/></g></g></svg>