<svg xmlns="http://www.w3.org/2000/svg" role="img" viewBox="-7.20 -7.20 374.14 374.14"><rect width="308" height="308" x="26" y="26" fill="#fff" stroke="#000" stroke-width="52" rx="66"/><path fill="#0F0F0F" fill-rule="evenodd" d="M164 108c-4.418 0-8 3.582-8 8v29.287c0 2.209 1.791 4 4 4h9c2.209 0 4 1.791 4 4v22.209c0 2.21-1.791 4-4 4h-9c-2.209 0-4 1.791-4 4v31.681c0 1.693 1.065 3.202 2.659 3.769L173 224.047c-1.588 4.368-6 27.953-6 27.953h17l19.253-26.909c.486-.679.747-1.493.747-2.327V116c0-4.418-3.582-8-8-8h-32z" clip-rule="evenodd"/></svg>