<svg viewBox="0 0 571.36 222.23" xmlns="http://www.w3.org/2000/svg"><path d="m0 55.56v111.12l96.23 55.55 96.23-55.55v-111.12l-96.23-55.56z" fill="#e30c34"/><path d="m96.17 37.09-63.91 36.9v36.9l31.97-18.46v74.29l31.95 18.42v-111.16l31.94-18.44z" fill="#fff"/><path d="m128.3 92.62v74.06l32.09-18.53v-74.07z" fill="#fff"/><g fill="#172d72"><path d="m281.35 167h-23v-92.51h-33.81v-19.14h89.46v19.14h-32.65z"/><path d="m350.72 74.49h-21.44v-19.14h21.44zm0 92.49h-21.44v-82.69h21.44z"/><path d="m396.65 167h-23v-111.65h23v49l43.64-49h27.1l-44.56 48.08 49.31 63.57h-27.41l-36.6-49.31-11.48 12z"/><path d="m513.63 167-37.63-111.65h23.13l24.8 84.07 24.35-84.07h23.12l-38.32 111.65z"/></g></svg>