<svg id="Layer_1" data-name="Layer 1" xmlns="http://www.w3.org/2000/svg" viewBox="0 0 462.536 462.536"><defs><style>.cls-1{fill:#97d8e8}.cls-2{fill:#3953a4}</style></defs><path class="cls-1" d="M59.96 349.888l-2.005-2.166-1.966-2.207-3.77-4.572-3.73-4.653-3.851-4.573-.923-1.083-.842-1.123-.722-1.123-.682-1.163-.522-1.164-.481-1.203-.361-1.203-.24-1.204-.161-1.203-.04-1.243.08-1.244.2-1.203.321-1.244.442-1.243.561-1.203.682-1.244.883-1.243.882-1.043.923-.883 1.002-.682 1.003-.521 1.043-.361 1.083-.2 1.083-.08h1.123l1.163.16 1.164.24 1.163.361 2.407.923 2.487 1.123 11.592 5.295 11.752 4.251 11.793 3.13 5.937 1.122 5.976.803 6.017.521 6.017.16 6.057-.12 6.096-.481 6.137-.843 6.137-1.163 6.178-1.524 6.217-1.885 5.896-2.206 5.616-2.568 5.335-2.968 5.054-3.41 4.813-3.85 4.493-4.292 4.211-4.773 3.931-5.335 1.484-2.086 1.484-1.805 1.485-1.524 1.484-1.203 1.444-.963 1.444-.682.722-.2.722-.16.722-.081.722-.04.682.04.722.12.722.2.681.282 1.445.722 1.403 1.042 1.404 1.284 1.364 1.564 1.404 1.845 1.404 2.166 5.335 8.263 5.615 7.782 5.897 7.3 6.177 6.78 6.418 6.337 6.698 5.816 6.94 5.375 7.22 4.853 7.46 4.373 7.742 3.93 7.982 3.45 8.223 2.928 8.504 2.487 8.744 2.046 8.985 1.524 9.225 1.083 7.461.401 7.42-.2 7.381-.722 7.34-1.164 7.301-1.644 7.26-2.006 7.14-2.326 7.14-2.648 9.105-3.85 2.607-.963 1.284-.361 1.283-.32 1.244-.201 1.203-.12h1.204l1.163.12 1.123.24 1.123.401 1.043.562 1.043.682.963.882.922 1.083.883 1.284.802 1.444.682 1.524.481 1.404.28 1.364.121 1.323-.04 1.244-.2 1.203-.362 1.123-.44 1.123-.562 1.043-.682 1.003-.762.963-.843.922-1.845 1.765-1.965 1.685-16.486 12.194-16.927 10.87-17.408 9.466-17.93 8.063-18.371 6.618-18.933 5.134-19.414 3.61-19.975 2.086-5.135.401-5.094.522-10.268 1.123-26.835-1.885-25.872-4.332-12.595-3.049-12.354-3.69-12.114-4.292-11.873-4.934-11.632-5.535-11.392-6.137-22.1-14.12-21.18-16.565z"/><path class="cls-2" d="M407.967 192.65l-9.667-15.643-4.572-6.98-4.613-6.577-4.854-6.338-5.335-6.177-5.976-6.137-6.82-6.258-6.337-4.973-7.06-4.734-15.202-9.265-7.58-4.774-7.22-5.013-6.58-5.335-2.927-2.808-2.688-2.968-2.166-2.808-1.965-2.848-1.685-2.888-1.404-2.928-1.123-2.968-.882-3.009-.602-2.968-.32-3.049-.081-3.008.24-3.048.482-3.009.762-3.048 1.043-3.049 1.324-3.008 1.644-3.008 1.885-3.009 1.244-1.725 1.283-1.684 2.728-3.21 2.928-3.007 3.049-2.848 13.638-11.472-21.781-1.525-21.5.12-21.179 1.806-20.898 3.37-20.617 4.973-20.336 6.458-20.016 7.982-19.815 9.426-18.893 10.99-19.815 13.76-19.774 15.683L89.04 116.88l-17.128 17.007-14.52 16.406-6.017 7.742-5.014 7.22-3.93 6.698-2.728 6.017 16.967-5.616 16.847-4.933 16.807-4.292 16.686-3.61 16.646-2.968 16.526-2.287 16.446-1.604 16.365-1.003 7.782 11.753 8.142 9.867 8.424 8.143 8.544 6.578 8.583 5.174 8.424 3.931 8.223 2.848 7.862 1.885 7.38 1.083 6.82.442 6.096-.04 5.214-.362 4.292-.561 3.25-.602 2.687-.642-14.68-43.04 20.656 4.614 20.538 5.816 20.416 7.02 20.297 8.262 20.136 9.467 20.015 10.71 19.895 11.953 19.775 13.196-2.567-9.546-3.289-9.787-1.845-4.734-1.965-4.532-2.046-4.172z"/></svg>