<svg viewBox="-5.48 13.27 440.96 403.96" xmlns="http://www.w3.org/2000/svg"><path d="m76.774 158.098-.011.012z" fill="none"/><path d="m242.742 258.203.04-.206 13.593-79.583zm98.18-79.977-44.115 79.726-83.395 151.07.003.006 83.411-151.095 44.116-79.716 48.195-87.421zm1.508-156.376-14.161 25.877 14.167-25.877zm-265.656 136.248 54.081-58.039zm11.512 21.02 59.724-47.442zm0 0-4.007-7.304 3.997 7.304 42.494 78.004 6.9 12.722-6.906-12.739z" fill="#284e64"/><path d="m103.185 151.448 27.67-51.389 17.155 31.617 33.263 61.357-33.244-61.366-17.169-31.634-42.764-78.183h-.009l42.768 78.209zm124.483 126.996.196.361 8.008 14.721zm56.527-150.437-27.835 50.39-30.963 57.017 30.978-57z" fill="#284e64"/><path d="m173.214 335.413 40.189 73.625 22.118-113.708z" fill="#f16827"/><path d="m235.872 293.526-8.008-14.721-27.453-50.469-27.197 107.077 62.307-40.083z" fill="#f48029"/><path d="m130.764 257.105 6.906 12.739 35.544 65.569 27.197-107.077z" fill="#f89a2e"/><path d="m130.764 257.105 69.647-28.769-19.138-35.303-33.263-61.357z" fill="#f16827"/><path d="m242.742 258.203 13.633-79.789-30.978 57-10.562 19.436 12.833 23.594 8.204 15.082z" fill="#f89921"/><path d="m88.286 179.118 42.478 77.987 17.246-125.429z" fill="#f89a2e"/><path d="m296.807 257.952 44.115-79.726-98.14 79.771z" fill="#f48029"/><path d="m130.855 100.059-27.67 51.389-14.899 27.67 59.724-47.442zm111.927 157.938 56.555-157.423-15.142 27.433-27.82 50.407z" fill="#f4ae5c"/><path d="m88.286 179.118 14.899-27.67 27.67-51.389-54.081 58.039-.011.012 7.516 13.704z" fill="#cd4e27"/><path d="m340.922 178.226-41.585-77.652-56.555 157.423zm-264.148-20.128 54.081-58.039-42.768-78.209-.006-.01-11.318 136.27z" fill="#f16938"/><path d="m340.922 178.226 1.519-156.376v-.01l-.005.01-14.167 25.877-28.932 52.847zm-252.841-156.386h-85.081l73.763 136.27z" fill="#f89a2e"/><path d="m342.441 21.84v.01l-1.519 156.376 48.215-87.43 38.028-68.956zm-99.659 236.157-.04.206-6.87 35.323-.351 1.804-22.118 113.708.009-.016 83.395-151.07z" fill="#cd4e27"/></svg>