<svg id="图层_1" data-name="图层 1" xmlns="http://www.w3.org/2000/svg" viewBox="0 0 360 360"><defs><style>.cls-1{fill:url(#未命名的渐变_48)}</style><linearGradient id="未命名的渐变_48" x1="180.833" y1="261.219" x2="180.833" y2="90.333" gradientUnits="userSpaceOnUse"><stop offset="0" stop-color="#eb5520"/><stop offset=".247" stop-color="#eb511f"/><stop offset=".503" stop-color="#eb441d"/><stop offset=".763" stop-color="#eb301a"/><stop offset="1" stop-color="#eb1616"/></linearGradient></defs><path class="cls-1" d="M152.606 137.275L130.133 114.8a1.167 1.167 0 0 1 0-1.65l22.475-22.476a1.164 1.164 0 0 1 1.647 0l22.476 22.475a1.167 1.167 0 0 1 0 1.651l-22.473 22.474a1.167 1.167 0 0 1-1.652 0zm-5.958 3.274l-19.79-19.79a1.17 1.17 0 0 0-1.654 0l-19.79 19.79a1.17 1.17 0 0 0 0 1.655l19.793 19.793a1.165 1.165 0 0 0 1.648 0l19.793-19.793a1.17 1.17 0 0 0 0-1.655zm54.802 0l-19.79-19.79a1.17 1.17 0 0 0-1.654 0l-19.79 19.79a1.17 1.17 0 0 0 0 1.655l19.79 19.79a1.17 1.17 0 0 0 1.654 0l19.79-19.79a1.17 1.17 0 0 0 0-1.655zm-84.88 27.405l-17.116-17.117a1.165 1.165 0 0 0-1.648 0l-17.115 17.117a1.165 1.165 0 0 0 0 1.647l17.115 17.116a1.165 1.165 0 0 0 1.648 0l17.116-17.116a1.165 1.165 0 0 0 0-1.647zm54.802 0l-17.116-17.117a1.165 1.165 0 0 0-1.648 0l-17.116 17.117a1.165 1.165 0 0 0 0 1.647l17.116 17.116a1.165 1.165 0 0 0 1.648 0l17.116-17.116a1.165 1.165 0 0 0 0-1.647zm54.801 0l-17.116-17.117a1.165 1.165 0 0 0-1.647 0l-17.116 17.117a1.165 1.165 0 0 0 0 1.647l17.116 17.116a1.165 1.165 0 0 0 1.647 0l17.116-17.116a1.165 1.165 0 0 0 0-1.647zM86.49 195.355l-14.436-14.436a1.164 1.164 0 0 0-1.647 0l-14.437 14.436a1.164 1.164 0 0 0 0 1.646l14.437 14.437a1.164 1.164 0 0 0 1.647 0L86.489 197a1.163 1.163 0 0 0 0-1.646zm54.802 0l-14.436-14.436a1.165 1.165 0 0 0-1.648 0l-14.436 14.436a1.164 1.164 0 0 0 0 1.646l14.437 14.437a1.164 1.164 0 0 0 1.646 0L141.291 197a1.164 1.164 0 0 0 0-1.646zm54.802 0l-14.437-14.437a1.164 1.164 0 0 0-1.646 0l-14.437 14.437a1.164 1.164 0 0 0 0 1.646l14.436 14.437a1.164 1.164 0 0 0 1.647 0L196.093 197a1.164 1.164 0 0 0 0-1.646zm54.801 0l-14.436-14.437a1.164 1.164 0 0 0-1.647 0l-14.437 14.437a1.164 1.164 0 0 0 0 1.646l14.437 14.437a1.164 1.164 0 0 0 1.647 0L250.894 197a1.164 1.164 0 0 0 0-1.646zM56.406 222.754l-11.752-11.752a1.167 1.167 0 0 0-1.65 0L31.25 222.753a1.167 1.167 0 0 0 0 1.651l11.752 11.752a1.167 1.167 0 0 0 1.65 0l11.753-11.752a1.167 1.167 0 0 0 0-1.65zm54.801 0l-11.751-11.752a1.168 1.168 0 0 0-1.651 0l-11.752 11.751a1.167 1.167 0 0 0 0 1.651l11.752 11.752a1.168 1.168 0 0 0 1.65 0l11.752-11.752a1.167 1.167 0 0 0 0-1.65zm54.802 0l-11.751-11.752a1.168 1.168 0 0 0-1.652 0l-11.751 11.751a1.166 1.166 0 0 0 0 1.651l11.751 11.752a1.168 1.168 0 0 0 1.652 0l11.75-11.752a1.167 1.167 0 0 0 0-1.65zm54.801 0l-11.75-11.752a1.168 1.168 0 0 0-1.652 0l-11.751 11.751a1.167 1.167 0 0 0 0 1.651l11.751 11.752a1.168 1.168 0 0 0 1.651 0l11.751-11.752a1.166 1.166 0 0 0 0-1.65zm54.803 0l-11.752-11.752a1.168 1.168 0 0 0-1.651 0l-11.752 11.751a1.167 1.167 0 0 0 0 1.651l11.752 11.752a1.168 1.168 0 0 0 1.65 0l11.753-11.752a1.167 1.167 0 0 0 0-1.65zM26.326 250.156l-9.075-9.075a1.164 1.164 0 0 0-1.647 0l-9.075 9.075a1.164 1.164 0 0 0 0 1.647l9.074 9.074a1.166 1.166 0 0 0 1.65 0l9.073-9.074a1.165 1.165 0 0 0 0-1.647zm54.802 0l-9.075-9.075a1.164 1.164 0 0 0-1.647 0l-9.075 9.075a1.164 1.164 0 0 0 0 1.647l9.073 9.073a1.168 1.168 0 0 0 1.651 0l9.073-9.073a1.165 1.165 0 0 0 0-1.647zm54.802 0l-9.073-9.072a1.168 1.168 0 0 0-1.652 0l-9.07 9.07a1.169 1.169 0 0 0 0 1.652l9.07 9.07a1.168 1.168 0 0 0 1.652 0l9.073-9.073a1.164 1.164 0 0 0 0-1.647zm54.799-.236l-9.07-9.07a1.168 1.168 0 0 0-1.652 0l-9.073 9.073a1.165 1.165 0 0 0 0 1.647l9.073 9.073a1.168 1.168 0 0 0 1.652 0l9.07-9.071a1.168 1.168 0 0 0 0-1.652zm54.802 0l-9.07-9.07a1.168 1.168 0 0 0-1.652 0l-9.073 9.073a1.165 1.165 0 0 0 0 1.647l9.073 9.073a1.168 1.168 0 0 0 1.651 0l9.07-9.071a1.168 1.168 0 0 0 0-1.652zm54.801 0l-9.07-9.07a1.168 1.168 0 0 0-1.652 0l-9.073 9.073a1.165 1.165 0 0 0 0 1.647l9.073 9.073a1.168 1.168 0 0 0 1.652 0l9.07-9.071a1.168 1.168 0 0 0 0-1.652zm-91.275-112.644l22.477-22.477a1.165 1.165 0 0 0 0-1.647l-22.477-22.477a1.165 1.165 0 0 0-1.647 0l-22.477 22.477a1.165 1.165 0 0 0 0 1.647l22.477 22.477a1.165 1.165 0 0 0 1.647 0zm27.404 24.718l19.79-19.79a1.17 1.17 0 0 0 0-1.655l-19.79-19.79a1.17 1.17 0 0 0-1.654 0l-19.79 19.79a1.17 1.17 0 0 0 0 1.655l19.79 19.79a1.17 1.17 0 0 0 1.654 0zm27.398 24.723l17.116-17.116a1.165 1.165 0 0 0 0-1.647l-17.116-17.117a1.165 1.165 0 0 0-1.648 0l-17.116 17.117a1.165 1.165 0 0 0 0 1.647l17.116 17.116a1.165 1.165 0 0 0 1.648 0zm27.4 24.72l14.435-14.434a1.166 1.166 0 0 0 0-1.65l-14.435-14.435a1.164 1.164 0 0 0-1.646 0l-14.437 14.437a1.163 1.163 0 0 0 0 1.646l14.437 14.437a1.164 1.164 0 0 0 1.646 0zm27.403 24.719l11.752-11.752a1.167 1.167 0 0 0 0-1.65l-11.752-11.752a1.167 1.167 0 0 0-1.65 0l-11.752 11.751a1.167 1.167 0 0 0 0 1.651l11.752 11.752a1.167 1.167 0 0 0 1.65 0zm27.402 24.487l9.074-9.075a1.162 1.162 0 0 0 0-1.643l-9.074-9.075a1.168 1.168 0 0 0-1.652 0l-9.073 9.073a1.165 1.165 0 0 0 0 1.647l9.073 9.073a1.169 1.169 0 0 0 1.652 0z"/></svg>