<svg xmlns="http://www.w3.org/2000/svg" role="img" viewBox="6.09 6.09 639.32 723.32"><path fill="#06F" fill-rule="evenodd" d="M526.013 400.496l26.623 78.959 46.457-78.959h-73.08zm-4.849-170.738v146.018h78.831l-78.831-146.018zm-24.92 82.44V194.257h-39.766l39.766 117.941zM409.52 55.028l38.614 114.497h40.518L422.888 47.7165l-13.368 7.299v.0125zm-54.287 635.937h59.11l-22.301-40.785-7.392 7.958c-8.77 10.607-18.542 21.574-29.417 32.827zm-28.942-37.191l1.002-237.872c-6.364 3.668-15.51 9.363-26.272 16.811 1.014 29.371 5.763 129.394 25.27 221.061zm-67.442-188.408c.902 18.814 6.54 86.358 41.595 159.883-12.641-72.008-17.239-143.332-18.843-178.385-7.765 5.944-15.353 12.115-22.752 18.502zm-21.575 225.599h61.516l-4.698-5.471c-11.549-12.23-22.536-24.971-32.925-38.186l-23.893 43.645v.012zm-19.67-184.751c2.218 13.267 19.52 63.291 62.519 122.853-28.315-60.954-37.299-116.736-40.118-146.479-7.812 7.549-15.291 15.432-22.414 23.626h.013zm31.084-122.654v56.577c9.997-8.57 20.439-16.613 31.284-24.098 27.576-20.269 38.802-24.434 45.881-24.882h-.038v-7.597h-77.127zM52.5247 400.496l49.6643 84.393 34.178-84.393H52.5247zm89.8313-134.007L56.3585 375.763h85.9855V266.489h.012zm24.932-31.671v89.367l60.477-149.351-8.081-6.602-52.408 66.586h.012zm401.798 265.75h50.078l12.466 12.373v190.372l-12.466 12.385H32.4536L20 703.338V512.953l12.4536-12.372h50.0901L20.0501 394.39l.9271-13.852L207.907 143.027l16.976-1.865.313-.423 83.981 62.521-14.96 19.795-45.404-33.822L118.1 511.958l97.825 166.188 28.954-52.897c-49.05-70.715-52.621-119.408-52.796-122.156l2.919-8.705c9.14-10.786 18.733-21.187 28.754-31.173V371.2l12.478-12.372h179.162l12.466 12.372v89.143c10.198 9.972 20.823 21.263 31.673 34.058l2.906 8.692c-.15 2.785-3.821 52.523-54.412 124.494l27.689 50.559 100.205-170.279L387.344 67.164l-40.756 22.32-12.028-21.6609L421.873 20l17.014 4.9987L631.793 382.304l-.225 12.086-62.507 106.191.025-.013z" clip-rule="evenodd"/></svg>