<svg xmlns="http://www.w3.org/2000/svg" role="img" viewBox="256.33 361.45 106.34 103.59"><style>svg {enable-background:new 0 0 612 792}</style><style>.st0{fill:#00bcea}</style><g id="Layer_1"><path d="M337.5 430.7c13.3 2.4 23.1 5.4 23.1 12.4 0 13.5-26.5 20-51.1 20s-51.1-7.1-51.1-20c0-11.5 26.5-14.7 51.1-14.7h.3s-7 2.5-13.2 4.6c-5.6 1.9-17.5 4.3-20.4 5-9.7 2.5-11.8 5.2-11.8 5.8 0 .6 2.1 3.3 11.8 5.8 8.8 2.3 20.7 3.6 33.2 3.6s24.4-1.3 33.2-3.6c9.7-2.5 11.8-5.2 11.8-5.8 0-.6-2.1-3.3-11.8-5.8-3.2-.8-6.8-1.5-10.6-2.1l5.5-5.2zm-28-32.3c-24.6 0-51.1-6-51.1-17 0-11.9 26.5-17.9 51.1-17.9s51.1 6.2 51.1 17.9c.2 11-26.4 17-51.1 17zm0-25.8c-12.6 0-24.4 1.2-33.2 3.4-9.7 2.4-11.8 4.9-11.8 5.4s2.1 3.1 11.8 5.4c8.8 2.2 20.7 3.4 33.2 3.4s24.4-1.2 33.2-3.4c9.7-2.4 11.8-4.9 11.8-5.4s-2.1-3.1-11.8-5.4c-8.7-2.2-20.6-3.4-33.2-3.4z" class="st0"/><path d="M353 409.2c-34.9 40.9-56.5 45.5-61.4 45.5-.3 0-26.3-5.7-26.4-5.7l-.9-5.1c20.9-2.2 59.1-8.2 88.7-34.7z" class="st0"/><path d="M315.9 426.2c7.2-3.4 26.2-22.5 24.2-34.1l20.6-10.6c.1 27.4-38.7 41.4-44.8 44.7z" class="st0"/></g></svg>