<svg xmlns="http://www.w3.org/2000/svg" fill="none" viewBox="0 0 39 22"><defs/><g filter="url(#filter0_i)"><path fill="#3E7DA6" fill-rule="evenodd" d="M0 10c0-4.97056 4.02944-9 9-9h19c4.9706 0 9 4.02944 9 9 0 4.9706-4.0294 9-9 9H9c-4.97056 0-9-4.0294-9-9z" clip-rule="evenodd"/></g><g filter="url(#filter1_d)"><path fill="#fff" fill-rule="evenodd" d="M28 17c3.866 0 7-3.134 7-7 0-3.86599-3.134-7-7-7s-7 3.13401-7 7c0 3.866 3.134 7 7 7z" clip-rule="evenodd"/></g><path fill="#3E7DA6" d="M26.9098 10.7929l3.2338-3.14645c.2007-.19527.5261-.19527.7268 0 .2007.19526.2007.51184 0 .7071l-3.9606 3.85355-1.905-1.8535c-.2007-.1953-.2007-.51189 0-.70715.2006-.19527.526-.19527.7267 0l1.1783 1.14645z"/><defs><filter id="filter0_i" width="37" height="19" x="0" y="1" color-interpolation-filters="sRGB" filterUnits="userSpaceOnUse"><feFlood flood-opacity="0" result="BackgroundImageFix"/><feBlend in="SourceGraphic" in2="BackgroundImageFix" mode="normal" result="shape"/><feColorMatrix in="SourceAlpha" result="hardAlpha" type="matrix" values="0 0 0 0 0 0 0 0 0 0 0 0 0 0 0 0 0 0 127 0"/><feOffset dy="1"/><feGaussianBlur stdDeviation="1"/><feComposite in2="hardAlpha" k2="-1" k3="1" operator="arithmetic"/><feColorMatrix type="matrix" values="0 0 0 0 0.352941 0 0 0 0 0.380392 0 0 0 0 0.411765 0 0 0 0.1 0"/><feBlend in2="shape" mode="normal" result="effect1_innerShadow"/></filter><filter id="filter1_d" width="22" height="22" x="17" y="0" color-interpolation-filters="sRGB" filterUnits="userSpaceOnUse"><feFlood flood-opacity="0" result="BackgroundImageFix"/><feColorMatrix in="SourceAlpha" type="matrix" values="0 0 0 0 0 0 0 0 0 0 0 0 0 0 0 0 0 0 127 0"/><feOffset dy="1"/><feGaussianBlur stdDeviation="2"/><feColorMatrix type="matrix" values="0 0 0 0 0.0931197 0 0 0 0 0.0931197 0 0 0 0 0.283828 0 0 0 0.123698 0"/><feBlend in2="BackgroundImageFix" mode="normal" result="effect1_dropShadow"/><feBlend in="SourceGraphic" in2="effect1_dropShadow" mode="normal" result="shape"/></filter></defs></svg>