<svg xmlns="http://www.w3.org/2000/svg" fill="none" viewBox="0 0 39 22"><defs/><g filter="url(#filter0_i)"><path fill="#9092B0" fill-rule="evenodd" d="M2 10c0-4.97056 4.02944-9 9-9h19c4.9706 0 9 4.02944 9 9 0 4.9706-4.0294 9-9 9H11c-4.97056 0-9-4.0294-9-9z" clip-rule="evenodd"/></g><g filter="url(#filter1_d)"><path fill="#fff" fill-rule="evenodd" d="M11 17c3.866 0 7-3.134 7-7 0-3.86599-3.134-7-7-7-3.86599 0-7 3.13401-7 7 0 3.866 3.13401 7 7 7z" clip-rule="evenodd"/></g><path fill="#9092B0" fill-rule="evenodd" d="M9.03032 8.03035c-.18689.18689-.18689.48989 0 .67678l1.35358 1.35357-1.35358 1.3535c-.18689.1869-.18689.4899 0 .6768.18688.1869.48989.1869.67677 0l1.35351-1.3536 1.3536 1.3536c.1869.1869.4899.1869.6768 0 .1869-.1869.1869-.4899 0-.6768l-1.3536-1.3535 1.3536-1.35361c.1869-.18688.1869-.48989 0-.67677-.1869-.18689-.4899-.18689-.6768 0l-1.3536 1.35357-1.35351-1.35354c-.18688-.18688-.48989-.18688-.67677 0z" clip-rule="evenodd"/><defs><filter id="filter0_i" width="37" height="19" x="2" y="1" color-interpolation-filters="sRGB" filterUnits="userSpaceOnUse"><feFlood flood-opacity="0" result="BackgroundImageFix"/><feBlend in="SourceGraphic" in2="BackgroundImageFix" mode="normal" result="shape"/><feColorMatrix in="SourceAlpha" result="hardAlpha" type="matrix" values="0 0 0 0 0 0 0 0 0 0 0 0 0 0 0 0 0 0 127 0"/><feOffset dy="1"/><feGaussianBlur stdDeviation="1"/><feComposite in2="hardAlpha" k2="-1" k3="1" operator="arithmetic"/><feColorMatrix type="matrix" values="0 0 0 0 0.352941 0 0 0 0 0.380392 0 0 0 0 0.411765 0 0 0 0.19 0"/><feBlend in2="shape" mode="normal" result="effect1_innerShadow"/></filter><filter id="filter1_d" width="22" height="22" x="0" y="0" color-interpolation-filters="sRGB" filterUnits="userSpaceOnUse"><feFlood flood-opacity="0" result="BackgroundImageFix"/><feColorMatrix in="SourceAlpha" type="matrix" values="0 0 0 0 0 0 0 0 0 0 0 0 0 0 0 0 0 0 127 0"/><feOffset dy="1"/><feGaussianBlur stdDeviation="2"/><feColorMatrix type="matrix" values="0 0 0 0 0.0931197 0 0 0 0 0.0931197 0 0 0 0 0.283828 0 0 0 0.123698 0"/><feBlend in2="BackgroundImageFix" mode="normal" result="effect1_dropShadow"/><feBlend in="SourceGraphic" in2="effect1_dropShadow" mode="normal" result="shape"/></filter></defs></svg>