<svg width="22" height="23" viewBox="0 0 22 23" fill="none" xmlns="http://www.w3.org/2000/svg">
<g filter="url(#filter0_d)">
<path fill-rule="evenodd" clip-rule="evenodd" d="M11 19C15.9706 19 20 14.9706 20 10C20 5.02944 15.9706 1 11 1C6.02944 1 2 5.02944 2 10C2 14.9706 6.02944 19 11 19Z" fill="white"/>
<path d="M11 19.5C16.2467 19.5 20.5 15.2467 20.5 10C20.5 4.75329 16.2467 0.5 11 0.5C5.75329 0.5 1.5 4.75329 1.5 10C1.5 15.2467 5.75329 19.5 11 19.5Z" stroke="#C3C5DB"/>
</g>
<path d="M12.0572 10L9.19526 7.13807C8.93491 6.87772 8.93491 6.45561 9.19526 6.19526C9.45561 5.93491 9.87772 5.93491 10.1381 6.19526L13.9428 10L10.1381 13.8047C9.87772 14.0651 9.45561 14.0651 9.19526 13.8047C8.93491 13.5444 8.93491 13.1223 9.19526 12.8619L12.0572 10Z" fill="#3E7DA6"/>
<defs>
<filter id="filter0_d" x="0" y="0" width="22" height="23" filterUnits="userSpaceOnUse" color-interpolation-filters="sRGB">
<feFlood flood-opacity="0" result="BackgroundImageFix"/>
<feColorMatrix in="SourceAlpha" type="matrix" values="0 0 0 0 0 0 0 0 0 0 0 0 0 0 0 0 0 0 127 0"/>
<feOffset dy="2"/>
<feGaussianBlur stdDeviation="0.5"/>
<feColorMatrix type="matrix" values="0 0 0 0 0.109804 0 0 0 0 0.121569 0 0 0 0 0.247059 0 0 0 0.0634624 0"/>
<feBlend mode="normal" in2="BackgroundImageFix" result="effect1_dropShadow"/>
<feBlend mode="normal" in="SourceGraphic" in2="effect1_dropShadow" result="shape"/>
</filter>
</defs>
</svg>
