<svg id="cog" width="26" height="25" fill="none" xmlns="http://www.w3.org/2000/svg"><path fill-rule="evenodd" clip-rule="evenodd" d="M23.227 8.84c1.213-.433 2.513.433 2.686 1.647.087.52.087 1.126.087 1.646s0 1.127-.26 1.647a1.986 1.986 0 01-1.993 1.82c-.26 0-.434 0-.694-.087-.606-.26-1.213.087-1.473.607s-.607 1.127-.953 1.647c-.347.52-.26 1.213.173 1.56.433.346.693.953.693 1.56 0 .606-.26 1.213-.78 1.56-.866.693-1.82 1.213-2.773 1.646-.26.087-.52.174-.78.174-.953 0-1.82-.694-1.993-1.647-.087-.607-.694-1.04-1.3-.953a7.03 7.03 0 01-1.907 0c-.693-.087-1.213.346-1.3.953-.173.953-1.04 1.647-1.993 1.647-.26 0-.52-.087-.78-.174-.954-.433-1.907-.953-2.774-1.646-.433-.347-.78-.954-.78-1.56 0-.607.26-1.214.694-1.56.433-.347.52-1.04.173-1.56-.347-.52-.693-1.04-.953-1.647s-.954-.867-1.474-.693C1.56 15.86.26 14.993.087 13.78 0 13.26 0 12.653 0 12.133s0-1.126.087-1.646a1.986 1.986 0 011.993-1.82c.26 0 .433 0 .693.086.607.26 1.214-.086 1.474-.606S4.853 7.02 5.2 6.5c.433-.52.347-1.127-.173-1.56-.434-.347-.694-.953-.694-1.56 0-.607.347-1.213.78-1.56.867-.693 1.82-1.213 2.86-1.647.26-.086.52-.173.78-.173.954 0 1.82.693 1.994 1.647.086.606.693 1.04 1.3.953a7.023 7.023 0 011.906 0c.694.087 1.214-.347 1.3-.953C15.427.693 16.293 0 17.247 0c.205 0 .411.054.66.12l.206.053c.954.434 1.907.954 2.774 1.647.433.347.78.953.78 1.56 0 .607-.26 1.213-.694 1.647-.433.346-.52 1.04-.173 1.56.347.52.693 1.04.953 1.646.26.52.954.78 1.474.607zM13 16.467a4.291 4.291 0 004.333-4.334A4.291 4.291 0 0013 7.8a4.291 4.291 0 00-4.333 4.333A4.291 4.291 0 0013 16.467z" fill="#242748"/></svg>