<svg width="381" height="260" fill="none" xmlns="http://www.w3.org/2000/svg"><path d="M297.4 0H88.25a3.53 3.53 0 00-3.525 3.536A3.53 3.53 0 0088.25 7.07H297.4a3.53 3.53 0 003.525-3.535A3.53 3.53 0 00297.4 0z" fill="#ABABAB"/><path d="M300.925 18.857H82.375a2.354 2.354 0 00-2.35 2.357 2.354 2.354 0 002.35 2.358h218.55a2.354 2.354 0 002.35-2.358 2.353 2.353 0 00-2.35-2.357z" fill="#DDD"/><g filter="url(#gf_prev_filter0_dd)"><path d="M364.375 42.429h-347.8c-5.191 0-9.4 4.22-9.4 9.428V240.43c0 5.207 4.208 9.428 9.4 9.428h347.8c5.191 0 9.4-4.221 9.4-9.428V51.857c0-5.207-4.209-9.428-9.4-9.428z" fill="#fff"/><path d="M364.375 41.25h-347.8C10.735 41.25 6 45.999 6 51.857V240.43c0 5.858 4.735 10.607 10.575 10.607h347.8c5.84 0 10.575-4.749 10.575-10.607V51.857c0-5.858-4.735-10.607-10.575-10.607z" stroke="#000" stroke-opacity=".04"/></g><g filter="url(#gf_prev_filter1_dd)"><path d="M73.925 207.429h-42.3c-3.893 0-7.05 3.166-7.05 7.071v9.429c0 3.905 3.157 7.071 7.05 7.071h42.3c3.894 0 7.05-3.166 7.05-7.071V214.5c0-3.905-3.156-7.071-7.05-7.071z" fill="#3E7DA6"/></g><path d="M89.425 61.286h-61.1a2.354 2.354 0 00-2.35 2.357A2.354 2.354 0 0028.325 66h61.1a2.354 2.354 0 002.35-2.357 2.354 2.354 0 00-2.35-2.357z" fill="#DDD"/><g filter="url(#gf_prev_filter2_d)"><path d="M176.375 73.071h-145.7c-2.596 0-4.7 2.111-4.7 4.715v9.428a4.707 4.707 0 004.7 4.715h145.7c2.596 0 4.7-2.111 4.7-4.715v-9.428a4.707 4.707 0 00-4.7-4.715z" fill="#fff"/><path d="M176.375 71.893h-145.7c-3.244 0-5.875 2.638-5.875 5.893v9.428c0 3.255 2.63 5.893 5.875 5.893h145.7c3.245 0 5.875-2.638 5.875-5.893v-9.428c0-3.255-2.63-5.893-5.875-5.893z" stroke="#000" stroke-opacity=".08"/></g><path d="M89.425 103.714h-61.1a2.353 2.353 0 00-2.35 2.357 2.353 2.353 0 002.35 2.357h61.1a2.353 2.353 0 002.35-2.357 2.353 2.353 0 00-2.35-2.357z" fill="#DDD"/><g filter="url(#gf_prev_filter3_d)"><path d="M350.275 115.5h-319.6a4.707 4.707 0 00-4.7 4.714v9.429a4.707 4.707 0 004.7 4.714h319.6c2.596 0 4.7-2.111 4.7-4.714v-9.429a4.707 4.707 0 00-4.7-4.714z" fill="#fff"/><path d="M350.275 114.321h-319.6c-3.244 0-5.875 2.639-5.875 5.893v9.429c0 3.254 2.63 5.893 5.875 5.893h319.6c3.245 0 5.875-2.639 5.875-5.893v-9.429c0-3.254-2.63-5.893-5.875-5.893z" stroke="#000" stroke-opacity=".08"/></g><path d="M89.425 146.143h-61.1a2.353 2.353 0 00-2.35 2.357 2.353 2.353 0 002.35 2.357h61.1a2.353 2.353 0 002.35-2.357 2.353 2.353 0 00-2.35-2.357z" fill="#DDD"/><g filter="url(#gf_prev_filter4_d)"><path d="M350.275 157.929h-319.6c-2.596 0-4.7 2.11-4.7 4.714v28.286a4.707 4.707 0 004.7 4.714h319.6c2.596 0 4.7-2.111 4.7-4.714v-28.286a4.707 4.707 0 00-4.7-4.714z" fill="#fff"/><path d="M350.275 156.75h-319.6c-3.244 0-5.875 2.638-5.875 5.893v28.286c0 3.254 2.63 5.892 5.875 5.892h319.6c3.245 0 5.875-2.638 5.875-5.892v-28.286c0-3.255-2.63-5.893-5.875-5.893z" stroke="#000" stroke-opacity=".08"/></g><path d="M270.375 61.286h-68.15a2.354 2.354 0 00-2.35 2.357 2.353 2.353 0 002.35 2.357h68.15a2.353 2.353 0 002.35-2.357 2.354 2.354 0 00-2.35-2.357z" fill="#DDD"/><g filter="url(#gf_prev_filter5_d)"><path d="M350.275 73.071h-145.7c-2.596 0-4.7 2.111-4.7 4.715v9.428a4.707 4.707 0 004.7 4.715h145.7c2.596 0 4.7-2.111 4.7-4.715v-9.428a4.707 4.707 0 00-4.7-4.715z" fill="#fff"/><path d="M350.275 71.893h-145.7c-3.244 0-5.875 2.638-5.875 5.893v9.428c0 3.255 2.631 5.893 5.875 5.893h145.7c3.245 0 5.875-2.638 5.875-5.893v-9.428c0-3.255-2.63-5.893-5.875-5.893z" stroke="#000" stroke-opacity=".08"/></g><defs><filter id="gf_prev_filter0_dd" x=".5" y="38.75" width="379.95" height="220.786" filterUnits="userSpaceOnUse" color-interpolation-filters="sRGB"><feFlood flood-opacity="0" result="BackgroundImageFix"/><feColorMatrix in="SourceAlpha" type="matrix" values="0 0 0 0 0 0 0 0 0 0 0 0 0 0 0 0 0 0 127 0"/><feOffset dy="3"/><feGaussianBlur stdDeviation="2.5"/><feColorMatrix type="matrix" values="0 0 0 0 0 0 0 0 0 0 0 0 0 0 0 0 0 0 0.04 0"/><feBlend mode="normal" in2="BackgroundImageFix" result="effect1_dropShadow"/><feColorMatrix in="SourceAlpha" type="matrix" values="0 0 0 0 0 0 0 0 0 0 0 0 0 0 0 0 0 0 127 0"/><feOffset dy="1"/><feGaussianBlur stdDeviation="1"/><feColorMatrix type="matrix" values="0 0 0 0 0 0 0 0 0 0 0 0 0 0 0 0 0 0 0.03 0"/><feBlend mode="normal" in2="effect1_dropShadow" result="effect2_dropShadow"/><feBlend mode="normal" in="SourceGraphic" in2="effect2_dropShadow" result="shape"/></filter><filter id="gf_prev_filter1_dd" x="21.575" y="205.429" width="62.4" height="29.571" filterUnits="userSpaceOnUse" color-interpolation-filters="sRGB"><feFlood flood-opacity="0" result="BackgroundImageFix"/><feColorMatrix in="SourceAlpha" type="matrix" values="0 0 0 0 0 0 0 0 0 0 0 0 0 0 0 0 0 0 127 0"/><feOffset dy="1"/><feGaussianBlur stdDeviation="1"/><feColorMatrix type="matrix" values="0 0 0 0 0 0 0 0 0 0 0 0 0 0 0 0 0 0 0.06 0"/><feBlend mode="normal" in2="BackgroundImageFix" result="effect1_dropShadow"/><feColorMatrix in="SourceAlpha" type="matrix" values="0 0 0 0 0 0 0 0 0 0 0 0 0 0 0 0 0 0 127 0"/><feOffset dy="1"/><feGaussianBlur stdDeviation="1.5"/><feColorMatrix type="matrix" values="0 0 0 0 0 0 0 0 0 0 0 0 0 0 0 0 0 0 0.1 0"/><feBlend mode="normal" in2="effect1_dropShadow" result="effect2_dropShadow"/><feBlend mode="normal" in="SourceGraphic" in2="effect2_dropShadow" result="shape"/></filter><filter id="gf_prev_filter2_d" x="22.3" y="70.393" width="162.45" height="26.214" filterUnits="userSpaceOnUse" color-interpolation-filters="sRGB"><feFlood flood-opacity="0" result="BackgroundImageFix"/><feColorMatrix in="SourceAlpha" type="matrix" values="0 0 0 0 0 0 0 0 0 0 0 0 0 0 0 0 0 0 127 0"/><feOffset dy="1"/><feGaussianBlur stdDeviation="1"/><feColorMatrix type="matrix" values="0 0 0 0 0 0 0 0 0 0 0 0 0 0 0 0 0 0 0.04 0"/><feBlend mode="normal" in2="BackgroundImageFix" result="effect1_dropShadow"/><feBlend mode="normal" in="SourceGraphic" in2="effect1_dropShadow" result="shape"/></filter><filter id="gf_prev_filter3_d" x="22.3" y="112.821" width="336.35" height="26.214" filterUnits="userSpaceOnUse" color-interpolation-filters="sRGB"><feFlood flood-opacity="0" result="BackgroundImageFix"/><feColorMatrix in="SourceAlpha" type="matrix" values="0 0 0 0 0 0 0 0 0 0 0 0 0 0 0 0 0 0 127 0"/><feOffset dy="1"/><feGaussianBlur stdDeviation="1"/><feColorMatrix type="matrix" values="0 0 0 0 0 0 0 0 0 0 0 0 0 0 0 0 0 0 0.04 0"/><feBlend mode="normal" in2="BackgroundImageFix" result="effect1_dropShadow"/><feBlend mode="normal" in="SourceGraphic" in2="effect1_dropShadow" result="shape"/></filter><filter id="gf_prev_filter4_d" x="22.3" y="155.25" width="336.35" height="45.071" filterUnits="userSpaceOnUse" color-interpolation-filters="sRGB"><feFlood flood-opacity="0" result="BackgroundImageFix"/><feColorMatrix in="SourceAlpha" type="matrix" values="0 0 0 0 0 0 0 0 0 0 0 0 0 0 0 0 0 0 127 0"/><feOffset dy="1"/><feGaussianBlur stdDeviation="1"/><feColorMatrix type="matrix" values="0 0 0 0 0 0 0 0 0 0 0 0 0 0 0 0 0 0 0.04 0"/><feBlend mode="normal" in2="BackgroundImageFix" result="effect1_dropShadow"/><feBlend mode="normal" in="SourceGraphic" in2="effect1_dropShadow" result="shape"/></filter><filter id="gf_prev_filter5_d" x="196.2" y="70.393" width="162.45" height="26.214" filterUnits="userSpaceOnUse" color-interpolation-filters="sRGB"><feFlood flood-opacity="0" result="BackgroundImageFix"/><feColorMatrix in="SourceAlpha" type="matrix" values="0 0 0 0 0 0 0 0 0 0 0 0 0 0 0 0 0 0 127 0"/><feOffset dy="1"/><feGaussianBlur stdDeviation="1"/><feColorMatrix type="matrix" values="0 0 0 0 0 0 0 0 0 0 0 0 0 0 0 0 0 0 0.04 0"/><feBlend mode="normal" in2="BackgroundImageFix" result="effect1_dropShadow"/><feBlend mode="normal" in="SourceGraphic" in2="effect1_dropShadow" result="shape"/></filter></defs></svg>