<svg width="303" height="305" fill="none" xmlns="http://www.w3.org/2000/svg"><path d="M227.392 205.746c-1.7 9-10.2 18.9-18.9 21.9l-68 23.8c-8.7 3-21.5.6-28.4-5.4l-54.6-47c-7-6-11.3-18.3-9.6-27.3l13.4-70.8c1.7-9 10.2-18.9 18.9-21.9l68-23.8c8.7-3 21.5-.6 28.4 5.4l54.6 47c7 6 11.3 18.3 9.6 27.3l-13.4 70.8z" fill="#F15A2B"/><path d="M264.275 166.364c2.675 10.301-1.35 24.92-9.006 32.385l-59.663 58.72c-7.656 7.465-22.297 11.288-32.523 8.401l-80.679-22.335c-10.33-2.836-20.947-13.632-23.622-23.934l-21.015-81.055c-2.675-10.302 1.35-24.92 9.006-32.386l59.663-58.72c7.656-7.465 22.298-11.287 32.523-8.401l80.679 22.335c10.331 2.836 20.947 13.633 23.622 23.935l21.015 81.055z" fill="#F15A2B" fill-opacity=".04"/><path d="M235.191 201.796c2.64 5.016 2.326 13.088-.741 17.896l-23.835 37.742c-3.067 4.807-10.201 8.579-15.859 8.331l-44.582-1.724c-5.706-.209-12.527-4.51-15.166-9.526l-20.748-39.467c-2.639-5.016-2.325-13.089.741-17.896l23.835-37.743c3.067-4.807 10.202-8.578 15.859-8.331l44.583 1.725c5.706.208 12.526 4.51 15.165 9.526l20.748 39.467z" fill="#F7A689" fill-opacity=".5"/></svg>