<svg width="237" height="219" fill="none" xmlns="http://www.w3.org/2000/svg"><path d="M197.852 167.037c-1.87 9.904-11.22 20.799-20.789 24.1l-74.798 26.19c-9.57 3.302-23.65.661-31.239-5.942l-60.058-51.721c-7.7-6.602-12.43-20.138-10.56-30.042l14.74-77.91c1.87-9.905 11.22-20.799 20.79-24.1l74.797-26.19c9.57-3.302 23.649-.661 31.239 5.942l60.058 51.72c7.7 6.603 12.43 20.138 10.56 30.042l-14.74 77.911z" fill="#42E9F4" fill-opacity=".66"/><path d="M172.311 106.233c3.057-2.086 8.308-2.493 11.644-.874l26.177 12.557c3.337 1.62 6.297 5.948 6.548 9.624l2.123 28.957c.279 3.706-2.012 8.441-5.068 10.527l-24.055 16.4c-3.057 2.086-8.308 2.493-11.645.874l-26.177-12.557c-3.336-1.62-6.297-5.948-6.548-9.624l-2.122-28.957c-.279-3.706 2.011-8.441 5.068-10.527l24.055-16.4z" fill="#0F3D6C" fill-opacity=".8"/></svg>