<svg width="16" height="16" viewBox="0 0 16 16" fill="none" xmlns="http://www.w3.org/2000/svg">
<path d="M8 16C3.58172 16 0 12.4183 0 8C0 3.58172 3.58172 0 8 0C12.4183 0 16 3.58172 16 8C16 12.4183 12.4183 16 8 16Z" fill="#9092B0"/>
<path fill-rule="evenodd" clip-rule="evenodd" d="M5.35814 7.71893C5.11782 7.47861 4.72818 7.47861 4.48786 7.71893C4.24754 7.95925 4.24754 8.34889 4.48786 8.58921L6.76916 10.9233L11.512 6.12768C11.7523 5.88735 11.7523 5.49771 11.512 5.25739C11.2717 5.01707 10.882 5.01707 10.6417 5.25739L6.76916 9.07715L5.35814 7.71893Z" fill="white"/>
</svg>
