<svg xmlns="http://www.w3.org/2000/svg" version="1.1" fill="none" height="175.316" width="266.325"><g transform="translate(-160.091)" filter="url(#filter0_d)"><path fill="#fff" d="M414.842 21.425L310.39 12.287a7.2 7.2 0 00-7.8 6.545l-11.417 130.496a7.2 7.2 0 006.545 7.8l104.452 9.139a7.201 7.201 0 007.801-6.545l11.416-130.497a7.2 7.2 0 00-6.545-7.8z"/><path stroke="#d5d7e9" d="M414.886 20.927l-104.452-9.138a7.7 7.7 0 00-8.342 7l-11.417 130.496a7.701 7.701 0 007 8.342l104.452 9.138a7.7 7.7 0 008.342-7l11.417-130.496a7.701 7.701 0 00-7-8.342z"/></g><path stroke-dasharray="2, 2" stroke-linejoin="round" stroke-width=".8" stroke="#d5d7e9" fill="#fff" d="M152.111 37.896a2.166 2.166 0 00-1.266 1.063l.354.184c-.103.2-.17.421-.191.66l-.086.978-.398-.035-.171 1.957.398.035-.171 1.956-.399-.035-.171 1.957.399.035-.171 1.956-.399-.035-.171 1.957.398.035-.171 1.956-.398-.035-.171 1.957.398.035-.171 1.956-.399-.035-.171 1.957.399.035-.171 1.956-.399-.035-.171 1.957.398.035-.085.978a1.76 1.76 0 00.074.683l-.381.12a2.169 2.169 0 001.062 1.267l.185-.355c.199.104.421.171.66.192l.983.086-.035.398 1.965.172.035-.398 1.966.172-.035.398 1.966.172.035-.398 1.966.172-.035.398 1.966.172.034-.398 1.966.172-.035.398 1.966.172.035-.398 1.966.172-.035.398 1.966.172.034-.398 1.966.172-.035.398 1.966.172.035-.398 1.966.172-.035.398 1.966.172.034-.398 1.966.172-.035.398 1.966.172.035-.398 1.966.172-.035.398 1.966.172.035-.399 1.965.172-.035.399 1.966.172.035-.399 1.966.172-.035.399 1.966.172.035-.399 1.965.172-.035.399 1.966.172.035-.399 1.966.172-.035.399 1.966.172.035-.399 1.965.172-.034.399 1.965.172.035-.399 1.966.172-.035.399 1.966.172.035-.399 1.965.172-.034.399 1.965.172.035-.399 1.966.172-.035.399 1.966.172.035-.399 1.966.172-.035.399 1.965.172.035-.399 1.966.172-.035.399 1.966.172.035-.399 1.966.172-.035.399 1.965.172.035-.399 1.966.172-.035.399 1.966.172.035-.399 1.966.172-.035.399 1.966.172.034-.399 1.966.172-.035.398 1.966.172.035-.398 1.966.172-.035.398 1.966.172.034-.398.983.086c.239.02.469-.007.683-.074l.12.381a2.168 2.168 0 001.267-1.063l-.355-.185c.104-.198.171-.42.192-.659l.086-.978.398.035.171-1.957-.398-.035.171-1.956.398.035.172-1.957-.399-.035.171-1.956.399.035.171-1.957-.399-.035.172-1.956.398.034.171-1.956-.398-.035.171-1.956.398.034.172-1.956-.399-.035.171-1.956.399.034.171-1.956-.399-.035.086-.978a1.76 1.76 0 00-.074-.683l.381-.12a2.167 2.167 0 00-1.063-1.267l-.184.355a1.753 1.753 0 00-.66-.192l-.983-.086.035-.398-1.966-.172-.034.398-1.966-.172.035-.398-1.966-.172-.035.398-1.966-.172.035-.398-1.966-.172-.035.398-1.965-.172.035-.398-1.966-.172-.035.398-1.966-.172.035-.398-1.966-.172-.035.398-1.965-.172.035-.398-1.966-.172-.035.398-1.966-.172.035-.398-1.966-.172-.035.398-1.965-.172.034-.398-1.965-.172-.035.398-1.966-.172.035-.398-1.966-.172-.035.398-1.965-.172.034-.398-1.965-.172-.035.398-1.966-.172.035-.398-1.966-.172-.035.398-1.965-.172.034-.398-1.965-.172-.035.398-1.966-.172.035-.398-1.966-.172-.035.398-1.966-.171.035-.399-1.965-.172-.035.399-1.966-.172.035-.399-1.966-.172-.035.399-1.966-.172.035-.399-1.965-.172-.035.399-1.966-.172.035-.399-1.966-.172-.035.399-1.966-.172.035-.399-1.966-.172-.034.399-1.966-.172.035-.399-1.966-.172-.035.399-1.966-.172.035-.399-1.966-.172-.034.399-1.966-.172.035-.399-1.966-.172-.035.399-1.966-.172.035-.399-1.966-.172-.035.399-1.965-.172.035-.399-1.966-.172-.035.399-1.966-.172.035-.399-1.966-.172-.035.399-.982-.086a1.757 1.757 0 00-.683.074zM148.74 76.433a2.166 2.166 0 00-1.266 1.063l.354.185c-.103.198-.17.42-.191.659l-.086.978-.398-.035-.171 1.957.398.035-.171 1.956-.399-.035-.171 1.957.399.035-.171 1.956-.399-.035-.171 1.957.398.035-.171 1.956-.398-.035-.171 1.957.398.035-.171 1.956-.399-.034-.171 1.956.399.035-.172 1.956-.398-.034-.171 1.956.398.035-.085.978c-.021.239.006.469.074.683l-.382.12a2.17 2.17 0 001.063 1.267l.185-.355c.199.104.421.171.66.192l.983.086-.035.398 1.965.172.035-.398 1.966.172-.035.398 1.966.172.035-.398 1.966.172-.035.398 1.965.172.035-.398 1.966.172-.035.398 1.966.172.035-.398 1.966.172-.035.398 1.965.172.035-.398 1.966.172-.035.398 1.966.172.035-.398 1.966.172-.035.398 1.966.172.034-.398 1.966.172-.035.398 1.966.172.035-.398 1.966.172-.035.398 1.966.172.034-.398 1.966.172-.035.398 1.966.172.035-.398 1.966.172-.035.398 1.966.172.035-.398 1.965.172-.035.398 1.966.172.035-.398 1.966.172-.035.398 1.966.172.035-.398 1.965.171-.035.399 1.966.172.035-.399 1.966.172-.035.399 1.966.172.035-.399 1.965.172-.035.399 1.966.172.035-.399 1.966.172-.035.399 1.966.172.035-.399 1.965.172-.034.399 1.965.172.035-.399 1.966.172-.035.399 1.966.172.035-.399 1.965.172-.034.399 1.965.172.035-.399 1.966.172-.035.399 1.966.172.035-.399 1.966.172-.035.399 1.965.172.035-.399 1.966.172-.035.399 1.966.172.035-.399 1.966.172-.035.399 1.966.172.034-.399.983.086a1.76 1.76 0 00.683-.074l.12.381a2.167 2.167 0 001.267-1.063l-.355-.184a1.75 1.75 0 00.192-.66l.085-.978.399.035.171-1.957-.398-.035.171-1.956.398.035.171-1.957-.398-.035.171-1.956.399.035.171-1.957-.399-.035.172-1.956.398.035.171-1.957-.398-.035.171-1.956.398.035.172-1.957-.399-.035.171-1.956.399.034.171-1.956-.399-.035.086-.978a1.76 1.76 0 00-.074-.683l.381-.12a2.167 2.167 0 00-1.063-1.267l-.185.355a1.743 1.743 0 00-.659-.192l-.983-.086.035-.398-1.966-.172-.035.398-1.965-.172.035-.398-1.966-.172-.035.398-1.966-.172.035-.398-1.966-.172-.035.398-1.965-.172.034-.398-1.965-.172-.035.398-1.966-.172.035-.398-1.966-.172-.035.398-1.965-.172.034-.398-1.965-.172-.035.398-1.966-.172.035-.398-1.966-.172-.035.398-1.965-.172.034-.398-1.965-.172-.035.398-1.966-.172.035-.398-1.966-.172-.035.398-1.966-.172.035-.398-1.965-.172-.035.398-1.966-.171.035-.399-1.966-.172-.035.399-1.966-.172.035-.399-1.965-.172-.035.399-1.966-.172.035-.399-1.966-.172-.035.399-1.966-.172.035-.399-1.966-.172-.034.399-1.966-.172.035-.399-1.966-.172-.035.399-1.966-.172.035-.399-1.966-.172-.034.399-1.966-.172.035-.399-1.966-.172-.035.399-1.966-.172.035-.399-1.966-.172-.034.399-1.966-.172.035-.399-1.966-.172-.035.399-1.966-.172.035-.399-1.966-.172-.035.399-1.965-.172.035-.399-1.966-.171-.035.398-1.966-.172.035-.398-1.966-.172-.035.398-1.965-.172.034-.398-1.965-.172-.035.398-1.966-.172.035-.398-1.966-.172-.035.398-.983-.086a1.75 1.75 0 00-.682.074zM145.368 114.97a2.165 2.165 0 00-1.266 1.063l.354.185c-.103.198-.17.421-.191.659l-.086.978-.398-.035-.172 1.957.399.035-.171 1.956-.399-.034-.171 1.956.399.035-.172 1.956-.398-.034-.171 1.956.398.035-.171 1.956-.398-.034-.172 1.956.399.035-.171 1.957-.399-.035-.171 1.956.399.035-.172 1.957-.398-.035-.171 1.956.398.035-.085.978c-.021.239.006.469.074.683l-.382.12a2.164 2.164 0 001.063 1.267l.185-.355c.199.104.421.171.66.192l.982.086-.034.399 1.965.172.035-.399 1.966.172-.035.399 1.966.172.035-.399 1.965.172-.034.398 1.965.172.035-.398 1.966.172-.035.398 1.966.172.035-.398 1.966.172-.035.398 1.965.172.035-.398 1.966.172-.035.398 1.966.172.035-.398 1.966.172-.035.398 1.965.172.035-.398 1.966.172-.035.398 1.966.172.035-.398 1.966.172-.035.398 1.966.172.034-.398 1.966.172-.035.398 1.966.172.035-.398 1.966.172-.035.398 1.966.172.034-.398 1.966.172-.035.398 1.966.172.035-.398 1.966.172-.035.398 1.966.172.034-.398 1.966.172-.035.398 1.966.172.035-.398 1.966.172-.035.398 1.966.172.035-.398 1.965.172-.035.398 1.966.172.035-.398 1.966.171-.035.399 1.966.172.035-.399 1.965.172-.035.399 1.966.172.035-.399 1.966.172-.035.399 1.966.172.035-.399 1.965.172-.034.399 1.965.172.035-.399 1.966.172-.035.399 1.966.172.035-.399 1.965.172-.034.399 1.965.172.035-.399 1.966.172-.035.399 1.966.172.035-.399 1.966.172-.035.399 1.965.172.035-.399.983.086a1.76 1.76 0 00.683-.074l.12.381a2.17 2.17 0 001.267-1.062l-.355-.185a1.75 1.75 0 00.192-.66l.085-.978.399.035.171-1.957-.398-.034.171-1.957.398.035.171-1.957-.398-.035.171-1.956.399.035.171-1.957-.399-.035.171-1.956.399.035.171-1.957-.398-.035.171-1.956.398.035.171-1.957-.398-.035.171-1.956.399.035.171-1.957-.399-.035.086-.978a1.763 1.763 0 00-.074-.683l.381-.12a2.167 2.167 0 00-1.063-1.267l-.185.355a1.745 1.745 0 00-.659-.192l-.983-.086.035-.398-1.966-.172-.035.398-1.965-.172.034-.398-1.965-.172-.035.398-1.966-.172.035-.398-1.966-.172-.035.398-1.965-.172.034-.398-1.965-.172-.035.398-1.966-.172.035-.398-1.966-.172-.035.398-1.966-.172.035-.398-1.965-.172-.035.399-1.966-.172.035-.399-1.966-.172-.035.399-1.966-.172.035-.399-1.965-.172-.035.399-1.966-.172.035-.399-1.966-.172-.035.399-1.966-.172.035-.399-1.965-.172-.035.399-1.966-.172.035-.399-1.966-.172-.035.399-1.966-.172.035-.399-1.966-.172-.034.399-1.966-.172.035-.399-1.966-.172-.035.399-1.966-.172.035-.399-1.966-.172-.034.399-1.966-.172.035-.399-1.966-.172-.035.399-1.966-.172.035-.399-1.966-.172-.034.399-1.966-.172.035-.399-1.966-.172-.035.399-1.966-.172.035-.399-1.966-.172-.035.399-1.965-.172.035-.399-1.966-.172-.035.399-1.966-.172.035-.398-1.966-.172-.035.398-1.965-.172.034-.398-1.965-.172-.035.398-1.966-.172.035-.398-1.966-.172-.035.398-1.965-.172.034-.398-1.965-.172-.035.398-1.966-.172.035-.398-1.966-.172-.035.398-.983-.086a1.756 1.756 0 00-.682.074z"/><g transform="translate(-160.091)" filter="url(#filter1_d)"><path fill="#fff" d="M276.116 12.308l-104.452 9.139a7.2 7.2 0 00-6.545 7.8l11.417 130.496a7.199 7.199 0 007.8 6.545l104.452-9.138a7.2 7.2 0 006.545-7.8L283.916 18.853a7.2 7.2 0 00-7.8-6.545z"/><path stroke="#d5d7e9" d="M276.072 11.81L171.62 20.95a7.7 7.7 0 00-6.999 8.341l11.417 130.497a7.7 7.7 0 008.341 7l104.452-9.139a7.7 7.7 0 007-8.342L284.414 18.81a7.7 7.7 0 00-8.342-7z"/></g><path stroke-dasharray="2, 2" stroke-linejoin="round" stroke-width=".8" stroke="#d5d7e9" fill="#fff" d="M17.804 46.352a2.167 2.167 0 00-1.063 1.267l.382.12a1.76 1.76 0 00-.075.683l.086.978-.398.035.171 1.956.398-.035.171 1.957-.398.035.171 1.956.399-.035.171 1.957-.399.035.171 1.956.399-.035.171 1.957-.398.035.171 1.956.398-.034.171 1.956-.398.035.171 1.956.399-.034.171 1.956-.399.035.171 1.956.399-.034.086.978c.02.238.088.46.191.66l-.355.184c.265.507.722.891 1.267 1.063l.121-.381c.213.067.444.095.682.074l.983-.086.035.398 1.966-.172-.035-.398 1.966-.172.035.398 1.965-.172-.035-.398 1.966-.172.035.398 1.966-.172-.035-.398 1.966-.172.035.398 1.965-.172-.035-.398 1.966-.172.035.399 1.966-.172-.035-.399 1.966-.172.035.399 1.965-.172-.034-.399 1.965-.172.035.399 1.966-.172-.035-.399 1.966-.172.035.399 1.965-.172-.034-.399 1.965-.172.035.399 1.966-.172-.035-.399 1.966-.172.035.399 1.965-.172-.034-.399 1.965-.172.035.399 1.966-.172-.035-.399 1.966-.172.035.399 1.966-.172-.035-.399 1.965-.172.035.399 1.966-.172-.035-.399 1.966-.172.035.399 1.966-.172-.035-.399 1.965-.172.035.399 1.966-.172-.035-.399 1.966-.172.035.399 1.966-.172-.035-.399 1.966-.172.034.399 1.966-.172-.035-.399 1.966-.171.035.398 1.966-.172-.035-.398 1.966-.172.034.398 1.966-.172-.035-.398 1.966-.172.035.398 1.966-.172-.035-.398 1.966-.172.034.398 1.966-.172-.035-.398 1.966-.172.035.398 1.966-.172-.035-.398 1.966-.172.035.398 1.965-.172-.035-.398 1.966-.172.035.398 1.966-.172-.035-.398.983-.086c.238-.021.461-.088.659-.192l.185.355a2.167 2.167 0 001.063-1.267l-.381-.12a1.76 1.76 0 00.074-.683l-.086-.978.399-.035-.172-1.957-.398.035-.171-1.956.398-.035-.171-1.957-.398.035-.172-1.956.399-.035-.171-1.957-.399.035-.171-1.956.399-.035-.172-1.957-.398.035-.171-1.956.398-.035-.171-1.957-.398.035-.172-1.956.399-.035-.171-1.957-.399.035-.085-.978a1.748 1.748 0 00-.192-.66l.355-.185a2.168 2.168 0 00-1.267-1.062l-.12.381a1.755 1.755 0 00-.683-.074l-.983.086-.035-.399-1.966.172.035.399-1.965.172-.035-.399-1.966.172.035.399-1.966.172-.035-.399-1.966.172.035.399-1.966.172-.034-.399-1.966.172.035.399-1.966.172-.035-.399-1.966.172.035.399-1.966.172-.034-.399-1.966.172.035.399-1.966.172-.035-.399-1.966.172.035.399-1.966.172-.034-.399-1.966.172.035.399-1.966.172-.035-.399-1.966.172.035.399-1.966.171-.035-.398-1.965.172.035.398-1.966.172-.035-.398-1.966.172.035.398-1.966.172-.035-.398-1.965.172.035.398-1.966.172-.035-.398-1.966.172.035.398-1.966.172-.035-.398-1.965.172.035.398-1.966.172-.035-.398-1.966.172.035.398-1.966.172-.035-.398-1.965.172.034.398-1.965.172-.035-.398-1.966.172.035.398-1.966.172-.035-.398-1.965.172.034.398-1.965.172-.035-.398-1.966.172.035.398-1.966.172-.035-.398-1.966.172.035.398-1.965.172-.035-.398-1.966.172.035.398-1.966.172-.035-.398-1.966.172.035.398-1.965.172-.035-.398-1.966.172.035.398-1.966.172-.035-.398-1.966.171.035.399-.983.086c-.238.02-.46.088-.659.192zM21.176 84.889a2.167 2.167 0 00-1.063 1.267l.382.12a1.741 1.741 0 00-.074.683l.085.978-.398.035.171 1.956.398-.034.171 1.956-.398.035.171 1.956.399-.034.171 1.956-.399.035.172 1.957.398-.035.171 1.956-.398.035.171 1.957.398-.035.172 1.956-.399.035.171 1.957.399-.035.171 1.956-.399.035.172 1.957.398-.035.086.978c.02.238.088.461.191.659l-.355.185a2.17 2.17 0 001.267 1.063l.121-.381c.213.067.444.095.682.074l.983-.086.035.398 1.966-.172-.035-.398 1.966-.172.035.398 1.965-.172-.035-.398 1.966-.172.035.399 1.966-.172-.035-.399 1.966-.172.035.399 1.965-.172-.034-.399 1.965-.172.035.399 1.966-.172-.035-.399 1.966-.172.035.399 1.965-.172-.034-.399 1.965-.172.035.399 1.966-.172-.035-.399 1.966-.172.035.399 1.965-.172-.034-.399 1.965-.172.035.399 1.966-.172-.035-.399 1.966-.172.035.399 1.966-.172-.035-.399 1.965-.172.035.399 1.966-.172-.035-.399 1.966-.172.035.399 1.966-.172-.035-.399 1.965-.172.035.399 1.966-.172-.035-.399 1.966-.172.035.399 1.966-.172-.035-.399 1.966-.172.034.399 1.966-.172-.035-.399 1.966-.172.035.399 1.966-.172-.035-.398 1.966-.172.034.398 1.966-.172-.035-.398 1.966-.172.035.398 1.966-.172-.035-.398 1.966-.172.035.398 1.965-.172-.035-.398 1.966-.172.035.398 1.966-.172-.035-.398 1.966-.172.035.398 1.965-.172-.035-.398 1.966-.172.035.398 1.966-.172-.035-.398 1.966-.172.035.398 1.965-.172-.034-.398 1.965-.172.035.398 1.966-.172-.035-.398.983-.086c.238-.021.461-.088.659-.192l.185.355a2.167 2.167 0 001.063-1.267l-.381-.12a1.76 1.76 0 00.074-.683l-.086-.978.399-.035-.171-1.956-.399.034-.171-1.956.398-.035-.171-1.957-.398.035-.171-1.956.398-.035-.171-1.957-.399.035-.171-1.956.399-.035-.172-1.957-.398.035-.171-1.956.398-.035-.171-1.957-.398.035-.172-1.956.399-.035-.171-1.957-.399.035-.085-.978a1.748 1.748 0 00-.192-.66l.355-.184a2.168 2.168 0 00-1.267-1.063l-.12.381a1.755 1.755 0 00-.683-.074l-.983.086-.035-.399-1.965.172.034.399-1.965.172-.035-.399-1.966.172.035.399-1.966.172-.035-.399-1.966.172.035.399-1.965.172-.035-.399-1.966.172.035.399-1.966.172-.035-.399-1.966.172.035.399-1.965.172-.035-.399-1.966.172.035.399-1.966.172-.035-.399-1.966.172.035.399-1.966.172-.034-.399-1.966.172.035.399-1.966.172-.035-.399-1.966.172.035.399-1.966.172-.034-.399-1.966.172.035.399-1.966.172-.035-.399-1.966.172.035.399-1.966.172-.034-.399-1.966.172.035.399-1.966.171-.035-.398-1.966.172.035.398-1.966.172-.035-.398-1.965.172.035.398-1.966.172-.035-.398-1.966.172.035.398-1.966.172-.035-.398-1.965.172.035.398-1.966.172-.035-.398-1.966.172.035.398-1.966.172-.035-.398-1.965.172.034.398-1.965.172-.035-.398-1.966.172.035.398-1.966.172-.035-.398-1.965.172.034.398-1.965.172-.035-.398-1.966.172.035.398-1.966.172-.035-.398-1.966.172.035.398-1.965.172-.035-.398-1.966.172.035.398-1.966.172-.035-.398-1.966.172.035.398-.983.086c-.238.02-.46.088-.659.192zM24.547 123.426a2.167 2.167 0 00-1.063 1.267l.382.12a1.742 1.742 0 00-.074.683l.085.978-.398.035.171 1.956.398-.034.172 1.956-.399.035.171 1.957.399-.035.171 1.956-.399.035.172 1.957.398-.035.171 1.956-.398.035.171 1.957.398-.035.172 1.956-.399.035.171 1.957.399-.035.171 1.956-.399.035.172 1.957.398-.035.086.978c.021.239.088.461.191.66l-.354.184c.264.507.721.891 1.266 1.063l.121-.381c.213.067.444.095.682.074l.983-.086.035.399 1.966-.172-.035-.399 1.966-.172.035.399 1.965-.172-.034-.399 1.965-.172.035.399 1.966-.172-.035-.399 1.966-.172.035.399 1.965-.172-.034-.399 1.965-.172.035.399 1.966-.172-.035-.399 1.966-.172.035.399 1.966-.172-.035-.399 1.965-.172.035.399 1.966-.172-.035-.399 1.966-.172.035.399 1.966-.172-.035-.399 1.965-.172.035.399 1.966-.172-.035-.399 1.966-.172.035.399 1.966-.172-.035-.399 1.966-.172.034.399 1.966-.172-.035-.399 1.966-.172.035.399 1.966-.172-.035-.399 1.966-.172.034.399 1.966-.172-.035-.398 1.966-.172.035.398 1.966-.172-.035-.398 1.966-.172.034.398 1.966-.172-.035-.398 1.966-.172.035.398 1.966-.172-.035-.398 1.966-.172.035.398 1.965-.172-.035-.398 1.966-.172.035.398 1.966-.172-.035-.398 1.966-.172.035.398 1.965-.172-.034-.398 1.965-.172.035.398 1.966-.172-.035-.398 1.966-.172.035.398 1.965-.172-.034-.398 1.965-.172.035.398 1.966-.172-.035-.398 1.966-.172.035.398 1.965-.172-.034-.398 1.965-.172.035.398 1.966-.172-.035-.398.983-.086c.238-.021.461-.088.659-.192l.185.355a2.167 2.167 0 001.063-1.267l-.381-.12a1.76 1.76 0 00.074-.683l-.086-.978.399-.035-.171-1.956-.399.034-.171-1.956.398-.035-.171-1.956-.398.034-.171-1.956.398-.035-.171-1.957-.399.035-.171-1.956.399-.035-.171-1.957-.399.035-.171-1.956.398-.035-.171-1.957-.398.035-.171-1.956.398-.035-.171-1.957-.399.035-.085-.978a1.75 1.75 0 00-.192-.66l.355-.184a2.167 2.167 0 00-1.267-1.063l-.12.381a1.76 1.76 0 00-.683-.074l-.983.086-.035-.398-1.965.171.034.399-1.965.172-.035-.399-1.966.172.035.399-1.966.172-.035-.399-1.965.172.034.399-1.965.172-.035-.399-1.966.172.035.399-1.966.172-.035-.399-1.965.172.034.399-1.965.172-.035-.399-1.966.172.035.399-1.966.172-.035-.399-1.966.172.035.399-1.965.172-.035-.399-1.966.172.035.399-1.966.172-.035-.399-1.966.172.035.399-1.965.172-.035-.399-1.966.172.035.399-1.966.172-.035-.399-1.966.172.035.399-1.966.172-.034-.399-1.966.172.035.399-1.966.172-.035-.399-1.966.172.035.399-1.966.172-.034-.399-1.966.172.035.398-1.966.172-.035-.398-1.966.172.035.398-1.966.172-.034-.398-1.966.172.035.398-1.966.172-.035-.398-1.966.172.035.398-1.966.172-.035-.398-1.965.172.035.398-1.966.172-.035-.398-1.966.172.035.398-1.966.172-.035-.398-1.965.172.034.398-1.965.172-.035-.398-1.966.172.035.398-1.966.172-.035-.398-1.965.172.034.398-1.965.172-.035-.398-1.966.172.035.398-1.966.172-.035-.398-1.965.172.034.398-.982.086a1.75 1.75 0 00-.66.192z"/><path fill-opacity=".02" fill="#1a207f" d="M82.54 11.187c0-3.97 3.197-6.85 7.164-6.428l103.643 11.036 8.445 1.604v137.39c0 3.975-3.233 7.196-6.826 7.196l-45.614-8.04H117.35l-27.723 4.915c-3.914.695-7.087-1.968-7.087-5.934V11.186z" clip-rule="evenodd" fill-rule="evenodd"/><g transform="translate(-160.091)" filter="url(#filter2_d)"><path fill="#fff" d="M346.051 1H241.2a7.2 7.2 0 00-7.2 7.2v143.59a7.2 7.2 0 007.2 7.2h104.851a7.2 7.2 0 007.2-7.2V8.2a7.2 7.2 0 00-7.2-7.2z"/><path stroke="#d5d7e9" d="M346.051.5H241.2a7.7 7.7 0 00-7.7 7.7v143.59a7.7 7.7 0 007.7 7.7h104.851a7.7 7.7 0 007.7-7.7V8.2a7.7 7.7 0 00-7.7-7.7z"/></g><rect stroke="#d5d7e9" fill="#fff" rx="2.5" height="28" width="45" y="67.5" x="83.408"/><rect stroke="#d5d7e9" fill="#fff" rx="2.5" height="28" width="45" y="67.5" x="138.408"/><rect stroke="#d5d7e9" fill="#fff" rx="2.5" height="28" width="45" y="107.5" x="83.408"/><rect stroke="#d5d7e9" fill="#fff" rx="2.5" height="28" width="45" y="107.5" x="138.408"/><rect stroke-dasharray="2, 2" stroke-linejoin="round" stroke="#d5d7e9" fill="#fff" rx="2.5" height="28" width="45" y="26.5" x="83.408"/><rect stroke="#d5d7e9" fill="#fff" rx="2.5" height="28" width="45" y="26.5" x="138.408"/><g transform="translate(-160.091)" filter="url(#filter3_d)"><rect fill="#fff" rx="3" height="29" width="46" y="17" x="222.999"/><rect stroke="#d5d7e9" rx="3.5" height="30" width="47" y="16.5" x="222.499"/></g><path fill="#fff" d="M154.494 123.05l5.3-5.3a3.755 3.755 0 001.115-2.665 3.69 3.69 0 00-1.085-2.635l-5.3 5.3a3.749 3.749 0 00-.836 4.091c.186.453.46.864.806 1.209zm.03 2.2a3.8 3.8 0 00-1.115 2.665 3.69 3.69 0 001.085 2.635l12.8-12.8a3.755 3.755 0 001.115-2.665 3.69 3.69 0 00-1.085-2.635zm7.5 0l5.3-5.3a3.703 3.703 0 011.085 2.635 3.737 3.737 0 01-1.116 2.665l-5.3 5.3a3.692 3.692 0 01-1.084-2.635c0-1.053.434-1.983 1.116-2.665z" clip-rule="evenodd" fill-rule="evenodd"/><mask height="19" width="16" y="112" x="313" maskUnits="userSpaceOnUse" mask-type="alpha" id="a"><path fill="#fff" d="M314.585 123.05l5.3-5.3a3.755 3.755 0 001.115-2.665 3.69 3.69 0 00-1.085-2.635l-5.3 5.3a3.749 3.749 0 00-.836 4.091c.186.453.46.864.806 1.209zm.03 2.2a3.8 3.8 0 00-1.115 2.665 3.69 3.69 0 001.085 2.635l12.8-12.8a3.755 3.755 0 001.115-2.665 3.69 3.69 0 00-1.085-2.635zm7.5 0l5.3-5.3a3.703 3.703 0 011.085 2.635 3.737 3.737 0 01-1.116 2.665l-5.3 5.3a3.692 3.692 0 01-1.084-2.635c0-1.053.434-1.983 1.116-2.665z" clip-rule="evenodd" fill-rule="evenodd"/></mask><g transform="translate(-160.091)" mask="url(#a)"><path fill="#242748" d="M310 111h22v21h-22z"/></g><path fill="#242748" d="M115.229 81.031a5.367 5.367 0 00-1.95-1.936 5.23 5.23 0 00-1.97-.683v-2.557a1.888 1.888 0 001.164-1.768 1.932 1.932 0 00-1.192-1.795 1.949 1.949 0 00-2.692 1.795c0 .787.42 1.463 1.139 1.768v2.559a5.624 5.624 0 00-1.715.537l-6.89-5.232c.05-.183.09-.37.09-.569a2.146 2.146 0 00-1.33-1.987 2.15 2.15 0 10-.823 4.141c.406 0 .781-.12 1.105-.314l.45.341 6.185 4.456c-.327.3-.632.642-.875 1.025-.494.78-.796 1.64-.796 2.577v.196c.002.636.116 1.267.338 1.863.188.51.462.973.802 1.391l-2.053 2.058a1.652 1.652 0 00-1.748.383 1.66 1.66 0 00.001 2.354 1.652 1.652 0 001.177.488 1.65 1.65 0 001.177-.488 1.651 1.651 0 00.41-1.676l2.122-2.122c.29.201.604.37.942.516a5.517 5.517 0 002.206.463h.147a5.198 5.198 0 002.518-.636 5.209 5.209 0 001.973-1.858c.494-.79.766-1.664.766-2.625v-.048c0-.945-.219-1.817-.678-2.617zm-2.593 4.451c-.575.64-1.237 1.034-1.986 1.034h-.123a2.679 2.679 0 01-1.254-.333 2.906 2.906 0 01-1.1-1c-.296-.42-.457-.878-.457-1.363v-.148c0-.477.092-.93.322-1.357.247-.467.58-.83 1.024-1.12a2.51 2.51 0 011.417-.427h.048c.47 0 .914.093 1.333.307.427.23.776.542 1.047.953.263.411.42.855.47 1.338.007.1.011.203.011.302 0 .655-.25 1.263-.752 1.814z"/><path stroke-width="1.5" stroke="#242748" d="M163.583 47.334V33.482M159.509 47.334V33.482M166.714 33.355h-8.148"/><path stroke-width="1.5" stroke="#242748" fill="#242748" d="M158.286 37.149v3.731a3.794 3.794 0 010-7.463v3.73z"/><mask height="21" width="20" y="21" x="236" maskUnits="userSpaceOnUse" mask-type="alpha" id="b"><path fill="#fff" d="M254.63 34.053l.025.089h.002c.285 0 .732.332.732 1.12s-.326 1.68-.404 1.879c-2.41 5.775-11.728 5.766-14.288-.133-1.397.002-2.844-1.196-2.993-2.677a3.196 3.196 0 01.181-1.485l-.654-.555c-2.995-2.529 6.372-12.938 9.366-10.326.01.008.447.437.747.73l.003.004.272.266.556-.236c2.628-1.087 4.76-.563 4.763 1.174.001.902-.574 1.955-1.496 2.91.937.87.94 2.406.941 3.23 0 .196 0 .352.013.45l.09.024c.393.106 1.308.352 1.732.798.814.853.245 1.754.137 1.917l.063.17c.05.132.076.204.1.276.03.088.056.178.112.375zm-3.885-3.106h.001zm.001 0a1.57 1.57 0 01.411 0c.074-.17.087-.463.02-.781-.099-.473-.232-.76-.509-.715-.276.045-.286.387-.188.86.056.267.155.494.266.635zm-2.375.376l.013.006c.19.085.307.137.354.088.083-.086-.155-.416-.538-.58a1.397 1.397 0 00-1.357.163c-.133.096-.257.231-.24.313.02.087.143.049.337-.012.173-.054.402-.126.665-.143.31-.019.568.078.766.165zm-.997.675c-.067-.159.195-.385.598-.448.43-.051.747.205.682.304-.027.044-.087.037-.212.022h-.007a1.638 1.638 0 00-.83.086c-.161.065-.187.054-.22.04l-.01-.004zm3 .31c.149-.305-.484-.617-.635-.31-.15.307.484.615.635.309zm.682-.201c-.341-.006-.328-.712.011-.707h.001c.342.006.329.713-.012.707zm-9.688 2.791h-.002c-.06.015-.265.063-.374-.104-.1-.154-.02-.344.072-.566.121-.29.265-.633.061-1.02-.403-.774-1.233-.6-1.554-.245-.386.425-.386 1.043-.221 1.067.12.016.16-.102.21-.25.03-.085.063-.18.117-.265a.555.555 0 01.361-.248.565.565 0 01.43.083c.335.219.26.486.177.779-.044.157-.09.321-.076.49.062.74.817.725.957.399a.089.089 0 00.011-.053.1.1 0 00-.02-.05c-.007-.016-.039-.043-.148-.018zm.15.016c0 .016.004.01 0 0zm-.872 1.363c-1.012-.027-2.104-.938-2.213-2.018-.273-2.718 3.293-3.337 3.724-.546.202 1.314-.207 2.593-1.512 2.562zm-2.448-4.023c.386-.545.97-.918 1.627-1.04.856-2.297 2.285-4.413 4.177-5.87 1.403-1.17 2.917-2.01 2.917-2.01s-.816-.945-1.062-1.015c-1.515-.41-4.785 1.846-6.873 4.827-.845 1.206-2.054 3.34-1.477 4.442.07.134.475.485.691.666zm12.218 3.444s-1.585.235-3.082-.313c.128-.416.396-.386.956-.325.643.071 1.672.185 3.318-.287.678-.195 1.568-.577 2.26-1.124.15.344.256.706.316 1.076.163-.03.632-.023.508.803-.146.88-.52 1.595-1.15 2.253a4.757 4.757 0 01-1.381 1.034c-.29.151-.591.279-.902.38-2.372.775-4.801-.077-5.586-1.906a2.893 2.893 0 01-.157-.432c-.334-1.206-.05-2.652.835-3.563.055-.058.11-.126.11-.212a.377.377 0 00-.085-.202c-.061-.089-.153-.19-.258-.307-.426-.473-1.082-1.2-.91-2.39.156-1.063 1.086-1.813 1.954-1.769l.222.013c.18.01.349.027.51.043.176.017.343.034.505.04.518.023.984-.052 1.535-.512l.03-.026c.173-.144.32-.266.558-.307a.77.77 0 01.603.1c.443.294.505 1.007.528 1.528.013.298.05 1.02.062 1.225.027.473.152.54.404.621.11.036.213.065.344.102l.121.034c.586.164.931.331 1.153.545a.73.73 0 01.21.412c.07.504-.39 1.126-1.61 1.692-1.97.914-3.95.669-4.397.613a3.692 3.692 0 00-.057-.007c-.893-.12-1.402 1.034-.867 1.825 1.004 1.48 5.426.886 6.71-.947.031-.044.006-.07-.031-.044-1.852 1.267-4.303 1.694-5.696 1.152-.211-.082-.652-.285-.706-.739 1.933.599 3.148.033 3.148.033s.09-.123-.025-.112zm-4.258-10.588c-.819.42-1.733 1.165-2.475 2.023h.002a.031.031 0 00-.008.022c0 .008.003.016.009.022.005.006.012.01.021.011.008.001.016 0 .023-.005.506-.369 2.88-1.897 5.963-1.19.038.008.062-.057.028-.076-.503-.282-1.272-.473-1.818-.477a.034.034 0 01-.029-.018.026.026 0 01-.003-.018c0-.005.002-.011.006-.016.099-.13.213-.245.342-.343a.034.034 0 00.013-.018.042.042 0 000-.022.035.035 0 00-.015-.017.032.032 0 00-.021-.005c-.777.048-1.663.42-2.172.767a.038.038 0 01-.019.007.035.035 0 01-.02-.006.036.036 0 01-.013-.016.035.035 0 010-.02c.052-.196.13-.384.23-.56a.031.031 0 00.005-.021.026.026 0 00-.009-.02.031.031 0 00-.04-.004z" clip-rule="evenodd" fill-rule="evenodd"/></mask><g transform="translate(-160.091)" mask="url(#b)"><path fill="#242748" d="M235 21h22v21h-22z"/></g><path stroke-width="1.5" stroke="#242748" d="M160.02 84h8.889m-8.889-7h8.889z"/><path stroke="#242748" d="M154.409 79v-4l-1.5.5"/><path fill="#242748" d="M155.175 81.805c-.473-.611-1.22-.51-1.702-.367-.249.077-.489.18-.718.307l.13 1.082c.192-.17.47-.422.782-.514.34-.102.578.024.668.14.21.27-.034.835-.16 1.055-.49.85-.93 1.594-1.45 2.492h2.684v-1h-.914c.277-.574.814-1.443.914-2.105.052-.344.02-.763-.234-1.09z"/><path stroke-width="1.5" stroke="#242748" d="M98.909 112.75h14c.69 0 1.25.56 1.25 1.25v14c0 .69-.56 1.25-1.25 1.25h-14c-.69 0-1.25-.56-1.25-1.25v-14c0-.69.56-1.25 1.25-1.25z"/><path fill="#242748" d="M105.605 122.972c.356-.546.599-.958.728-1.235.127-.242.196-.51.203-.783 0-.264-.077-.47-.23-.618-.148-.153-.354-.23-.618-.23-.295 0-.569.07-.82.212a3.438 3.438 0 00-.738.571l-.147-1.188c.289-.234.59-.41.903-.526.313-.117.66-.175 1.041-.175.375 0 .695.08.959.24.264.153.46.362.59.626.135.265.203.556.203.876 0 .362-.08.734-.24 1.115-.154.381-.427.87-.82 1.466l-.756 1.152h2.046v1.106h-4zM96.909 114a2 2 0 012-2h14a2 2 0 012 2v2h-18z"/><defs id="defs160"><filter color-interpolation-filters="sRGB" filterUnits="userSpaceOnUse" height="164.036" width="140.27" y="11.259" x="286.146" id="filter0_d"><feFlood id="feFlood100" result="BackgroundImageFix" flood-opacity="0"/><feColorMatrix id="feColorMatrix102" values="0 0 0 0 0 0 0 0 0 0 0 0 0 0 0 0 0 0 127 0" type="matrix" in="SourceAlpha"/><feOffset id="feOffset104" dy="4"/><feGaussianBlur id="feGaussianBlur106" stdDeviation="2"/><feColorMatrix id="feColorMatrix108" values="0 0 0 0 0.0687866 0 0 0 0 0.097585 0 0 0 0 0.37981 0 0 0 0.0405344 0" type="matrix"/><feBlend id="feBlend110" result="effect1_dropShadow" in2="BackgroundImageFix" mode="normal"/><feBlend id="feBlend112" result="shape" in2="effect1_dropShadow" in="SourceGraphic" mode="normal"/></filter><filter color-interpolation-filters="sRGB" filterUnits="userSpaceOnUse" height="164.036" width="140.27" y="11.28" x="160.091" id="filter1_d"><feFlood id="feFlood115" result="BackgroundImageFix" flood-opacity="0"/><feColorMatrix id="feColorMatrix117" values="0 0 0 0 0 0 0 0 0 0 0 0 0 0 0 0 0 0 127 0" type="matrix" in="SourceAlpha"/><feOffset id="feOffset119" dy="4"/><feGaussianBlur id="feGaussianBlur121" stdDeviation="2"/><feColorMatrix id="feColorMatrix123" values="0 0 0 0 0.0687866 0 0 0 0 0.097585 0 0 0 0 0.37981 0 0 0 0.0405344 0" type="matrix"/><feBlend id="feBlend125" result="effect1_dropShadow" in2="BackgroundImageFix" mode="normal"/><feBlend id="feBlend127" result="shape" in2="effect1_dropShadow" in="SourceGraphic" mode="normal"/></filter><filter color-interpolation-filters="sRGB" filterUnits="userSpaceOnUse" height="167.99" width="129.251" y="0" x="229" id="filter2_d"><feFlood id="feFlood130" result="BackgroundImageFix" flood-opacity="0"/><feColorMatrix id="feColorMatrix132" values="0 0 0 0 0 0 0 0 0 0 0 0 0 0 0 0 0 0 127 0" type="matrix" in="SourceAlpha"/><feOffset id="feOffset134" dy="4"/><feGaussianBlur id="feGaussianBlur136" stdDeviation="2"/><feColorMatrix id="feColorMatrix138" values="0 0 0 0 0.0687866 0 0 0 0 0.097585 0 0 0 0 0.37981 0 0 0 0.0405344 0" type="matrix"/><feBlend id="feBlend140" result="effect1_dropShadow" in2="BackgroundImageFix" mode="normal"/><feBlend id="feBlend142" result="shape" in2="effect1_dropShadow" in="SourceGraphic" mode="normal"/></filter><filter color-interpolation-filters="sRGB" filterUnits="userSpaceOnUse" height="37" width="54" y="15" x="218.999" id="filter3_d"><feFlood id="feFlood145" result="BackgroundImageFix" flood-opacity="0"/><feColorMatrix id="feColorMatrix147" values="0 0 0 0 0 0 0 0 0 0 0 0 0 0 0 0 0 0 127 0" type="matrix" in="SourceAlpha"/><feOffset id="feOffset149" dy="2"/><feGaussianBlur id="feGaussianBlur151" stdDeviation="1.5"/><feColorMatrix id="feColorMatrix153" values="0 0 0 0 0.109804 0 0 0 0 0.121569 0 0 0 0 0.247059 0 0 0 0.09 0" type="matrix"/><feBlend id="feBlend155" result="effect1_dropShadow" in2="BackgroundImageFix" mode="normal"/><feBlend id="feBlend157" result="shape" in2="effect1_dropShadow" in="SourceGraphic" mode="normal"/></filter></defs></svg>