<svg width="22" height="22" viewBox="0 0 22 22" fill="none" xmlns="http://www.w3.org/2000/svg">
<path fill-rule="evenodd" clip-rule="evenodd" d="M17 7V8C18.1046 8 19 8.89543 19 10V19C19 20.1046 18.1046 21 17 21H5C3.89543 21 3 20.1046 3 19V10C3 8.89543 3.89543 8 5 8V7C5 3.68629 7.68629 1 11 1C14.3137 1 17 3.68629 17 7ZM7 8H15V7C15 4.79086 13.2091 3 11 3C8.79086 3 7 4.79086 7 7V8Z" fill="#1E1E1E"/>
<circle cx="6.09091" cy="14.0909" r="1.09091" fill="white"/>
<circle cx="9.36386" cy="14.0909" r="1.09091" fill="white"/>
<circle cx="12.6363" cy="14.0909" r="1.09091" fill="white"/>
<circle cx="15.9093" cy="14.0909" r="1.09091" fill="white"/>
</svg>
