<svg width="22" height="23" fill="none" xmlns="http://www.w3.org/2000/svg"><g filter="url(#filter0_d)"><path fill-rule="evenodd" clip-rule="evenodd" d="M11 19a9 9 0 100-18 9 9 0 000 18z" fill="#fff"/><path d="M11 19.5a9.5 9.5 0 100-19 9.5 9.5 0 000 19z" stroke="#C3C5DB"/></g><path fill-rule="evenodd" clip-rule="evenodd" d="M10.95 6.5a.583.583 0 00-.584.583v2.334H8.033a.583.583 0 000 1.166h2.333v2.334a.583.583 0 001.167 0v-2.334h2.333a.583.583 0 100-1.166h-2.333V7.083a.583.583 0 00-.583-.583z" fill="#0F3D6C"/><defs><filter id="filter0_d" x="0" y="0" width="22" height="23" filterUnits="userSpaceOnUse" color-interpolation-filters="sRGB"><feFlood flood-opacity="0" result="BackgroundImageFix"/><feColorMatrix in="SourceAlpha" values="0 0 0 0 0 0 0 0 0 0 0 0 0 0 0 0 0 0 127 0"/><feOffset dy="2"/><feGaussianBlur stdDeviation=".5"/><feColorMatrix values="0 0 0 0 0.109804 0 0 0 0 0.121569 0 0 0 0 0.247059 0 0 0 0.0634624 0"/><feBlend in2="BackgroundImageFix" result="effect1_dropShadow"/><feBlend in="SourceGraphic" in2="effect1_dropShadow" result="shape"/></filter></defs></svg>