<svg width="4" height="8" fill="#242748" xmlns="http://www.w3.org/2000/svg"><path fill-rule="evenodd" clip-rule="evenodd" d="M0 1.21391C0.223777 0.926197 0.504294 0.703222 0.841558 0.54498C1.17882 0.386737 1.54725 0.307617 1.94685 0.307617C2.21219 0.307617 2.46473 0.347577 2.7045 0.427497C2.94426 0.507418 3.16004 0.6241 3.35185 0.777547C3.54366 0.930995 3.6955 1.12999 3.80739 1.37455C3.91928 1.61911 3.97522 1.89483 3.97522 2.20172C3.97522 2.38714 3.95205 2.56376 3.90569 2.73159C3.85934 2.89943 3.79221 3.05447 3.7043 3.19673C3.61638 3.33899 3.52687 3.46446 3.43576 3.57315C3.34466 3.68184 3.23676 3.79693 3.11209 3.91841C3.05774 3.96956 2.97942 4.04228 2.87712 4.13659C2.77482 4.23089 2.6965 4.30522 2.64216 4.35957C2.58781 4.41391 2.52787 4.47944 2.46234 4.55617C2.3968 4.63289 2.34805 4.70562 2.31608 4.77435C2.28412 4.84308 2.26653 4.91261 2.26334 4.98294L2.23936 5.41451H1.26593L1.26114 4.9206C1.26114 4.85347 1.26513 4.78874 1.27313 4.7264C1.28112 4.66406 1.2971 4.60092 1.32108 4.53699C1.34505 4.47305 1.36583 4.41791 1.38342 4.37155C1.401 4.3252 1.43297 4.26926 1.47932 4.20372C1.52567 4.13819 1.56004 4.08864 1.58242 4.05507C1.6048 4.0215 1.64635 3.96956 1.70709 3.89923C1.76783 3.8289 1.80939 3.78174 1.83177 3.75777C1.85415 3.73379 1.9013 3.68424 1.97323 3.60912C2.04516 3.53399 2.09071 3.48684 2.10989 3.46766C2.31449 3.25027 2.47033 3.05127 2.57742 2.87065C2.68452 2.69003 2.73806 2.48784 2.73806 2.26406C2.73806 1.99233 2.65654 1.78054 2.49351 1.6287C2.33047 1.47685 2.11788 1.40092 1.85574 1.40092C1.66394 1.40092 1.47373 1.45207 1.28511 1.55437C1.0965 1.65667 0.941459 1.79733 0.81998 1.97635L0 1.21391ZM1.03097 6.96336C1.03097 6.76196 1.1037 6.58934 1.24915 6.44548C1.39461 6.30162 1.57123 6.2297 1.77902 6.2297C1.98042 6.2297 2.15385 6.30162 2.2993 6.44548C2.44476 6.58934 2.51748 6.76196 2.51748 6.96336C2.51748 7.16476 2.44476 7.33659 2.2993 7.47885C2.15385 7.6211 1.98042 7.69223 1.77902 7.69223C1.57123 7.69223 1.39461 7.6211 1.24915 7.47885C1.1037 7.33659 1.03097 7.16476 1.03097 6.96336Z" fill="#242748"/>
</svg>
