<!-- Generated by IcoMoon.io -->
<svg version="1.1" xmlns="http://www.w3.org/2000/svg" width="1024" height="1024" viewBox="0 0 1024 1024">
<title></title>
<g id="icomoon-ignore">
</g>
<path fill="#9092B2" d="M345.6 371.2l166.4-166.4 166.401 166.4c16.64 16.64 43.093 16.64 59.733 0s16.64-43.093 0-59.733l-195.841-195.84c-16.64-16.64-43.52-16.64-60.16 0l-196.267 195.84c-16.64 16.64-16.64 43.093 0 59.733s43.093 16.64 59.733 0zM345.6 652.8l166.4 166.4 166.401-166.4c16.64-16.64 43.093-16.64 59.733 0s16.64 43.093 0 59.733l-195.841 195.84c-16.64 16.64-43.52 16.64-60.16 0l-196.267-195.84c-16.64-16.64-16.64-43.093 0-59.733s43.093-16.64 59.733 0z"></path>
</svg>
