<svg width="483" height="268" viewBox="0 0 483 268" fill="none" xmlns="http://www.w3.org/2000/svg">
<g clip-path="url(#clip0_1610_18754)">
<path d="M252.168 165.807V106.807H482.015V165.807H252.168Z" stroke="#02CCAF" stroke-width="2"/>
<path d="M251.153 105.807H217.349V166.807H251.153V105.807Z" fill="black" fill-opacity="0.3"/>
<path d="M217.349 105.807H169.048V166.807H217.349V105.807Z" fill="#5C2CFF" fill-opacity="0.4"/>
<path d="M217.349 105.807H169.048V166.807H217.349V105.807Z" fill="black" fill-opacity="0.2"/>
<path d="M169.048 105.807H96.6028V166.807H169.048V105.807Z" fill="#5C2CFF" fill-opacity="0.6"/>
<path d="M169.048 105.807H96.6028V166.807H169.048V105.807Z" fill="black" fill-opacity="0.2"/>
<path d="M96.603 105.807H0V166.807H96.603V105.807Z" fill="#5C2CFF"/>
<path d="M96.603 105.807H0V166.807H96.603V105.807Z" fill="black" fill-opacity="0.2"/>
<mask id="mask0_1610_18754" style="mask-type:alpha" maskUnits="userSpaceOnUse" x="252" y="106" width="231" height="61">
<path d="M482.275 106.633H252V166.008H482.275V106.633Z" fill="#02CCAF"/>
</mask>
<g mask="url(#mask0_1610_18754)">
<path fill-rule="evenodd" clip-rule="evenodd" d="M789.523 993.91L-159.756 94.3957L-158.536 93.2393L790.743 992.753L789.523 993.91Z" fill="#02CCAF"/>
<path fill-rule="evenodd" clip-rule="evenodd" d="M292.447 993.91L-656.832 94.3957L-655.612 93.2393L293.667 992.753L292.447 993.91Z" fill="#02CCAF"/>
<path fill-rule="evenodd" clip-rule="evenodd" d="M1286.6 993.91L337.321 94.3957L338.542 93.2393L1287.82 992.753L1286.6 993.91Z" fill="#02CCAF"/>
<path fill-rule="evenodd" clip-rule="evenodd" d="M1038.06 993.91L88.7841 94.3957L90.0045 93.2393L1039.28 992.753L1038.06 993.91Z" fill="#02CCAF"/>
<path fill-rule="evenodd" clip-rule="evenodd" d="M540.984 993.91L-408.295 94.3957L-407.074 93.2393L542.205 992.754L540.984 993.91Z" fill="#02CCAF"/>
<path fill-rule="evenodd" clip-rule="evenodd" d="M913.793 993.91L-35.4859 94.3957L-34.2655 93.2393L915.014 992.753L913.793 993.91Z" fill="#02CCAF"/>
<path fill-rule="evenodd" clip-rule="evenodd" d="M416.716 993.91L-532.563 94.3957L-531.343 93.2393L417.936 992.754L416.716 993.91Z" fill="#02CCAF"/>
<path fill-rule="evenodd" clip-rule="evenodd" d="M1410.87 993.91L461.59 94.3957L462.811 93.2393L1412.09 992.753L1410.87 993.91Z" fill="#02CCAF"/>
<path fill-rule="evenodd" clip-rule="evenodd" d="M1162.33 993.91L213.051 94.3957L214.272 93.2393L1163.55 992.754L1162.33 993.91Z" fill="#02CCAF"/>
<path fill-rule="evenodd" clip-rule="evenodd" d="M665.254 993.91L-284.025 94.3957L-282.804 93.2393L666.475 992.753L665.254 993.91Z" fill="#02CCAF"/>
<path fill-rule="evenodd" clip-rule="evenodd" d="M851.66 993.91L-97.6195 94.3957L-96.399 93.2393L852.88 992.753L851.66 993.91Z" fill="#02CCAF"/>
<path fill-rule="evenodd" clip-rule="evenodd" d="M354.581 993.91L-594.698 94.3957L-593.478 93.2393L355.801 992.754L354.581 993.91Z" fill="#02CCAF"/>
<path fill-rule="evenodd" clip-rule="evenodd" d="M1348.73 993.91L399.455 94.3957L400.676 93.2393L1349.95 992.753L1348.73 993.91Z" fill="#02CCAF"/>
<path fill-rule="evenodd" clip-rule="evenodd" d="M1100.2 993.91L150.918 94.3957L152.138 93.2393L1101.42 992.753L1100.2 993.91Z" fill="#02CCAF"/>
<path fill-rule="evenodd" clip-rule="evenodd" d="M603.119 993.91L-346.16 94.3957L-344.939 93.2393L604.34 992.753L603.119 993.91Z" fill="#02CCAF"/>
<path fill-rule="evenodd" clip-rule="evenodd" d="M975.927 993.91L26.6477 94.3957L27.8682 93.2393L977.147 992.753L975.927 993.91Z" fill="#02CCAF"/>
<path fill-rule="evenodd" clip-rule="evenodd" d="M478.851 993.91L-470.428 94.3957L-469.208 93.2393L480.071 992.753L478.851 993.91Z" fill="#02CCAF"/>
<path fill-rule="evenodd" clip-rule="evenodd" d="M1224.47 993.91L275.186 94.3957L276.407 93.2393L1225.69 992.753L1224.47 993.91Z" fill="#02CCAF"/>
<path fill-rule="evenodd" clip-rule="evenodd" d="M727.389 993.91L-221.89 94.3957L-220.669 93.2393L728.61 992.753L727.389 993.91Z" fill="#02CCAF"/>
<path fill-rule="evenodd" clip-rule="evenodd" d="M820.591 993.91L-128.688 94.3957L-127.467 93.2393L821.812 992.753L820.591 993.91Z" fill="#02CCAF"/>
<path fill-rule="evenodd" clip-rule="evenodd" d="M323.514 993.91L-625.765 94.3957L-624.545 93.2393L324.734 992.753L323.514 993.91Z" fill="#02CCAF"/>
<path fill-rule="evenodd" clip-rule="evenodd" d="M1317.67 993.91L368.388 94.3957L369.609 93.2393L1318.89 992.754L1317.67 993.91Z" fill="#02CCAF"/>
<path fill-rule="evenodd" clip-rule="evenodd" d="M1069.13 993.91L119.85 94.3957L121.07 93.2393L1070.35 992.753L1069.13 993.91Z" fill="#02CCAF"/>
<path fill-rule="evenodd" clip-rule="evenodd" d="M572.053 993.91L-377.227 94.3957L-376.006 93.2393L573.273 992.754L572.053 993.91Z" fill="#02CCAF"/>
<path fill-rule="evenodd" clip-rule="evenodd" d="M944.862 993.91L-4.41771 94.3957L-3.19727 93.2393L946.082 992.753L944.862 993.91Z" fill="#02CCAF"/>
<path fill-rule="evenodd" clip-rule="evenodd" d="M447.783 993.91L-501.497 94.3957L-500.276 93.2393L449.003 992.753L447.783 993.91Z" fill="#02CCAF"/>
<path fill-rule="evenodd" clip-rule="evenodd" d="M1193.4 993.91L244.12 94.3957L245.34 93.2393L1194.62 992.754L1193.4 993.91Z" fill="#02CCAF"/>
<path fill-rule="evenodd" clip-rule="evenodd" d="M696.321 993.91L-252.958 94.3957L-251.737 93.2393L697.542 992.753L696.321 993.91Z" fill="#02CCAF"/>
<path fill-rule="evenodd" clip-rule="evenodd" d="M882.725 993.91L-66.5542 94.3957L-65.3337 93.2393L883.945 992.754L882.725 993.91Z" fill="#02CCAF"/>
<path fill-rule="evenodd" clip-rule="evenodd" d="M385.649 993.91L-563.63 94.3957L-562.41 93.2393L386.869 992.754L385.649 993.91Z" fill="#02CCAF"/>
<path fill-rule="evenodd" clip-rule="evenodd" d="M1379.8 993.91L430.523 94.3957L431.744 93.2393L1381.02 992.753L1379.8 993.91Z" fill="#02CCAF"/>
<path fill-rule="evenodd" clip-rule="evenodd" d="M1131.27 993.91L181.986 94.3957L183.206 93.2393L1132.49 992.753L1131.27 993.91Z" fill="#02CCAF"/>
<path fill-rule="evenodd" clip-rule="evenodd" d="M634.186 993.91L-315.093 94.3957L-313.872 93.2393L635.407 992.753L634.186 993.91Z" fill="#02CCAF"/>
<path fill-rule="evenodd" clip-rule="evenodd" d="M1006.99 993.91L57.716 94.3957L58.9364 93.2393L1008.22 992.754L1006.99 993.91Z" fill="#02CCAF"/>
<path fill-rule="evenodd" clip-rule="evenodd" d="M509.917 993.91L-439.362 94.3957L-438.141 93.2393L511.138 992.754L509.917 993.91Z" fill="#02CCAF"/>
<path fill-rule="evenodd" clip-rule="evenodd" d="M261.379 993.91L-687.9 94.3957L-686.68 93.2393L262.599 992.754L261.379 993.91Z" fill="#02CCAF"/>
<path fill-rule="evenodd" clip-rule="evenodd" d="M1255.53 993.91L306.253 94.3957L307.474 93.2393L1256.75 992.753L1255.53 993.91Z" fill="#02CCAF"/>
<path fill-rule="evenodd" clip-rule="evenodd" d="M758.458 993.91L-190.821 94.3957L-189.601 93.2393L759.678 992.753L758.458 993.91Z" fill="#02CCAF"/>
</g>
</g>
<path d="M68.32 61.8066H88.868V59.6506H71.62L81.3 51.3786C86.052 47.2866 88.252 43.7226 88.252 39.8946C88.252 35.0106 84.38 31.0506 78.968 31.0506C74.964 31.0506 71.224 32.9866 68.584 36.8586L70.212 38.1786C72.544 34.9226 75.624 33.0746 78.968 33.0746C83.148 33.0746 86.052 36.2426 86.052 39.9386C86.052 42.9306 84.204 46.0986 79.848 49.8386L68.32 59.6946V61.8066ZM106.062 62.3346C113.058 62.3346 117.986 55.8666 117.986 46.6706C117.986 37.5186 113.058 31.0506 106.062 31.0506C99.0224 31.0506 94.0944 37.5186 94.0944 46.6706C94.0944 55.8666 99.0224 62.3346 106.062 62.3346ZM106.062 60.2226C100.342 60.2226 96.3384 54.5906 96.3384 46.6706C96.3384 38.7506 100.342 33.1626 106.062 33.1626C111.738 33.1626 115.742 38.7506 115.742 46.6706C115.742 54.5906 111.738 60.2226 106.062 60.2226ZM130.388 46.4506C134.26 46.4506 137.032 43.2826 137.032 38.8826C137.032 34.5266 134.348 31.3146 130.432 31.3146C126.516 31.3146 123.788 34.5266 123.788 38.9706C123.788 43.2826 126.472 46.4506 130.388 46.4506ZM127.352 61.8066H129.86L150.54 31.5786H148.032L127.352 61.8066ZM130.432 44.6026C127.748 44.6026 125.768 42.2266 125.768 38.9266C125.768 35.5826 127.66 33.1626 130.388 33.1626C133.116 33.1626 135.052 35.5826 135.052 38.9266C135.052 42.2266 133.116 44.6026 130.432 44.6026ZM147.328 62.2466C151.2 62.2466 153.972 59.0346 153.972 54.6346C153.972 50.3226 151.288 47.1106 147.372 47.1106C143.456 47.1106 140.728 50.3226 140.728 54.6786C140.728 59.0786 143.5 62.2466 147.328 62.2466ZM147.372 60.3986C144.644 60.3986 142.708 57.9786 142.708 54.6346C142.708 51.3786 144.6 48.9586 147.328 48.9586C150.056 48.9586 151.992 51.3346 151.992 54.6786C151.992 58.0226 150.1 60.3986 147.372 60.3986Z" fill="#5C2CFF"/>
<path d="M68.32 61.8066H88.868V59.6506H71.62L81.3 51.3786C86.052 47.2866 88.252 43.7226 88.252 39.8946C88.252 35.0106 84.38 31.0506 78.968 31.0506C74.964 31.0506 71.224 32.9866 68.584 36.8586L70.212 38.1786C72.544 34.9226 75.624 33.0746 78.968 33.0746C83.148 33.0746 86.052 36.2426 86.052 39.9386C86.052 42.9306 84.204 46.0986 79.848 49.8386L68.32 59.6946V61.8066ZM106.062 62.3346C113.058 62.3346 117.986 55.8666 117.986 46.6706C117.986 37.5186 113.058 31.0506 106.062 31.0506C99.0224 31.0506 94.0944 37.5186 94.0944 46.6706C94.0944 55.8666 99.0224 62.3346 106.062 62.3346ZM106.062 60.2226C100.342 60.2226 96.3384 54.5906 96.3384 46.6706C96.3384 38.7506 100.342 33.1626 106.062 33.1626C111.738 33.1626 115.742 38.7506 115.742 46.6706C115.742 54.5906 111.738 60.2226 106.062 60.2226ZM130.388 46.4506C134.26 46.4506 137.032 43.2826 137.032 38.8826C137.032 34.5266 134.348 31.3146 130.432 31.3146C126.516 31.3146 123.788 34.5266 123.788 38.9706C123.788 43.2826 126.472 46.4506 130.388 46.4506ZM127.352 61.8066H129.86L150.54 31.5786H148.032L127.352 61.8066ZM130.432 44.6026C127.748 44.6026 125.768 42.2266 125.768 38.9266C125.768 35.5826 127.66 33.1626 130.388 33.1626C133.116 33.1626 135.052 35.5826 135.052 38.9266C135.052 42.2266 133.116 44.6026 130.432 44.6026ZM147.328 62.2466C151.2 62.2466 153.972 59.0346 153.972 54.6346C153.972 50.3226 151.288 47.1106 147.372 47.1106C143.456 47.1106 140.728 50.3226 140.728 54.6786C140.728 59.0786 143.5 62.2466 147.328 62.2466ZM147.372 60.3986C144.644 60.3986 142.708 57.9786 142.708 54.6346C142.708 51.3786 144.6 48.9586 147.328 48.9586C150.056 48.9586 151.992 51.3346 151.992 54.6786C151.992 58.0226 150.1 60.3986 147.372 60.3986Z" fill="black" fill-opacity="0.2"/>
<path d="M220.744 61.8066H222.944V31.5786H221.184L213.352 36.6386L214.408 38.3546L220.744 34.3506V61.8066ZM242.867 62.3346C249.863 62.3346 254.791 55.8666 254.791 46.6706C254.791 37.5186 249.863 31.0506 242.867 31.0506C235.827 31.0506 230.899 37.5186 230.899 46.6706C230.899 55.8666 235.827 62.3346 242.867 62.3346ZM242.867 60.2226C237.147 60.2226 233.143 54.5906 233.143 46.6706C233.143 38.7506 237.147 33.1626 242.867 33.1626C248.543 33.1626 252.547 38.7506 252.547 46.6706C252.547 54.5906 248.543 60.2226 242.867 60.2226ZM267.193 46.4506C271.065 46.4506 273.837 43.2826 273.837 38.8826C273.837 34.5266 271.153 31.3146 267.237 31.3146C263.321 31.3146 260.593 34.5266 260.593 38.9706C260.593 43.2826 263.277 46.4506 267.193 46.4506ZM264.157 61.8066H266.665L287.345 31.5786H284.837L264.157 61.8066ZM267.237 44.6026C264.553 44.6026 262.573 42.2266 262.573 38.9266C262.573 35.5826 264.465 33.1626 267.193 33.1626C269.921 33.1626 271.857 35.5826 271.857 38.9266C271.857 42.2266 269.921 44.6026 267.237 44.6026ZM284.133 62.2466C288.005 62.2466 290.777 59.0346 290.777 54.6346C290.777 50.3226 288.093 47.1106 284.177 47.1106C280.261 47.1106 277.533 50.3226 277.533 54.6786C277.533 59.0786 280.305 62.2466 284.133 62.2466ZM284.177 60.3986C281.449 60.3986 279.513 57.9786 279.513 54.6346C279.513 51.3786 281.405 48.9586 284.133 48.9586C286.861 48.9586 288.797 51.3346 288.797 54.6786C288.797 58.0226 286.905 60.3986 284.177 60.3986Z" fill="#5C2CFF"/>
<path d="M220.744 61.8066H222.944V31.5786H221.184L213.352 36.6386L214.408 38.3546L220.744 34.3506V61.8066ZM242.867 62.3346C249.863 62.3346 254.791 55.8666 254.791 46.6706C254.791 37.5186 249.863 31.0506 242.867 31.0506C235.827 31.0506 230.899 37.5186 230.899 46.6706C230.899 55.8666 235.827 62.3346 242.867 62.3346ZM242.867 60.2226C237.147 60.2226 233.143 54.5906 233.143 46.6706C233.143 38.7506 237.147 33.1626 242.867 33.1626C248.543 33.1626 252.547 38.7506 252.547 46.6706C252.547 54.5906 248.543 60.2226 242.867 60.2226ZM267.193 46.4506C271.065 46.4506 273.837 43.2826 273.837 38.8826C273.837 34.5266 271.153 31.3146 267.237 31.3146C263.321 31.3146 260.593 34.5266 260.593 38.9706C260.593 43.2826 263.277 46.4506 267.193 46.4506ZM264.157 61.8066H266.665L287.345 31.5786H284.837L264.157 61.8066ZM267.237 44.6026C264.553 44.6026 262.573 42.2266 262.573 38.9266C262.573 35.5826 264.465 33.1626 267.193 33.1626C269.921 33.1626 271.857 35.5826 271.857 38.9266C271.857 42.2266 269.921 44.6026 267.237 44.6026ZM284.133 62.2466C288.005 62.2466 290.777 59.0346 290.777 54.6346C290.777 50.3226 288.093 47.1106 284.177 47.1106C280.261 47.1106 277.533 50.3226 277.533 54.6786C277.533 59.0786 280.305 62.2466 284.133 62.2466ZM284.177 60.3986C281.449 60.3986 279.513 57.9786 279.513 54.6346C279.513 51.3786 281.405 48.9586 284.133 48.9586C286.861 48.9586 288.797 51.3346 288.797 54.6786C288.797 58.0226 286.905 60.3986 284.177 60.3986Z" fill="black" fill-opacity="0.2"/>
<path d="M220.744 61.8066H222.944V31.5786H221.184L213.352 36.6386L214.408 38.3546L220.744 34.3506V61.8066ZM242.867 62.3346C249.863 62.3346 254.791 55.8666 254.791 46.6706C254.791 37.5186 249.863 31.0506 242.867 31.0506C235.827 31.0506 230.899 37.5186 230.899 46.6706C230.899 55.8666 235.827 62.3346 242.867 62.3346ZM242.867 60.2226C237.147 60.2226 233.143 54.5906 233.143 46.6706C233.143 38.7506 237.147 33.1626 242.867 33.1626C248.543 33.1626 252.547 38.7506 252.547 46.6706C252.547 54.5906 248.543 60.2226 242.867 60.2226ZM267.193 46.4506C271.065 46.4506 273.837 43.2826 273.837 38.8826C273.837 34.5266 271.153 31.3146 267.237 31.3146C263.321 31.3146 260.593 34.5266 260.593 38.9706C260.593 43.2826 263.277 46.4506 267.193 46.4506ZM264.157 61.8066H266.665L287.345 31.5786H284.837L264.157 61.8066ZM267.237 44.6026C264.553 44.6026 262.573 42.2266 262.573 38.9266C262.573 35.5826 264.465 33.1626 267.193 33.1626C269.921 33.1626 271.857 35.5826 271.857 38.9266C271.857 42.2266 269.921 44.6026 267.237 44.6026ZM284.133 62.2466C288.005 62.2466 290.777 59.0346 290.777 54.6346C290.777 50.3226 288.093 47.1106 284.177 47.1106C280.261 47.1106 277.533 50.3226 277.533 54.6786C277.533 59.0786 280.305 62.2466 284.133 62.2466ZM284.177 60.3986C281.449 60.3986 279.513 57.9786 279.513 54.6346C279.513 51.3786 281.405 48.9586 284.133 48.9586C286.861 48.9586 288.797 51.3346 288.797 54.6786C288.797 58.0226 286.905 60.3986 284.177 60.3986Z" fill="#5C2CFF"/>
<path d="M220.744 61.8066H222.944V31.5786H221.184L213.352 36.6386L214.408 38.3546L220.744 34.3506V61.8066ZM242.867 62.3346C249.863 62.3346 254.791 55.8666 254.791 46.6706C254.791 37.5186 249.863 31.0506 242.867 31.0506C235.827 31.0506 230.899 37.5186 230.899 46.6706C230.899 55.8666 235.827 62.3346 242.867 62.3346ZM242.867 60.2226C237.147 60.2226 233.143 54.5906 233.143 46.6706C233.143 38.7506 237.147 33.1626 242.867 33.1626C248.543 33.1626 252.547 38.7506 252.547 46.6706C252.547 54.5906 248.543 60.2226 242.867 60.2226ZM267.193 46.4506C271.065 46.4506 273.837 43.2826 273.837 38.8826C273.837 34.5266 271.153 31.3146 267.237 31.3146C263.321 31.3146 260.593 34.5266 260.593 38.9706C260.593 43.2826 263.277 46.4506 267.193 46.4506ZM264.157 61.8066H266.665L287.345 31.5786H284.837L264.157 61.8066ZM267.237 44.6026C264.553 44.6026 262.573 42.2266 262.573 38.9266C262.573 35.5826 264.465 33.1626 267.193 33.1626C269.921 33.1626 271.857 35.5826 271.857 38.9266C271.857 42.2266 269.921 44.6026 267.237 44.6026ZM284.133 62.2466C288.005 62.2466 290.777 59.0346 290.777 54.6346C290.777 50.3226 288.093 47.1106 284.177 47.1106C280.261 47.1106 277.533 50.3226 277.533 54.6786C277.533 59.0786 280.305 62.2466 284.133 62.2466ZM284.177 60.3986C281.449 60.3986 279.513 57.9786 279.513 54.6346C279.513 51.3786 281.405 48.9586 284.133 48.9586C286.861 48.9586 288.797 51.3346 288.797 54.6786C288.797 58.0226 286.905 60.3986 284.177 60.3986Z" fill="black" fill-opacity="0.2"/>
<path d="M389.28 61.8066H391.48V53.9306H396.32V51.8186H391.48V31.5786H388.708L373.748 51.9066L374.056 53.9306H389.28V61.8066ZM376.388 51.8186L389.28 34.2186V51.8186H376.388ZM410.91 62.3346C416.63 62.3346 421.338 58.7266 421.338 53.9746C421.338 50.4106 418.522 47.3746 414.694 46.2306C418.038 45.0866 420.59 42.3146 420.59 38.9706C420.59 34.4826 416.102 31.0506 410.91 31.0506C405.762 31.0506 401.274 34.4386 401.274 38.9706C401.274 42.2266 403.738 44.9986 407.126 46.2306C403.298 47.3306 400.482 50.4106 400.482 53.9746C400.482 58.6826 405.19 62.3346 410.91 62.3346ZM410.91 45.2186C406.906 44.9546 403.518 42.6666 403.518 39.1906C403.518 35.8466 406.862 33.1626 410.91 33.1626C414.958 33.1626 418.346 35.8466 418.346 39.1906C418.346 42.6226 414.914 44.9546 410.91 45.2186ZM410.91 60.2226C406.422 60.2226 402.726 57.4066 402.726 53.8426C402.726 50.1026 406.554 47.5506 410.91 47.4186C415.31 47.5506 419.094 50.1026 419.094 53.8426C419.094 57.4066 415.354 60.2226 410.91 60.2226ZM433.853 46.4506C437.725 46.4506 440.497 43.2826 440.497 38.8826C440.497 34.5266 437.813 31.3146 433.897 31.3146C429.981 31.3146 427.253 34.5266 427.253 38.9706C427.253 43.2826 429.937 46.4506 433.853 46.4506ZM430.817 61.8066H433.325L454.005 31.5786H451.497L430.817 61.8066ZM433.897 44.6026C431.213 44.6026 429.233 42.2266 429.233 38.9266C429.233 35.5826 431.125 33.1626 433.853 33.1626C436.581 33.1626 438.517 35.5826 438.517 38.9266C438.517 42.2266 436.581 44.6026 433.897 44.6026ZM450.793 62.2466C454.665 62.2466 457.437 59.0346 457.437 54.6346C457.437 50.3226 454.753 47.1106 450.837 47.1106C446.921 47.1106 444.193 50.3226 444.193 54.6786C444.193 59.0786 446.965 62.2466 450.793 62.2466ZM450.837 60.3986C448.109 60.3986 446.173 57.9786 446.173 54.6346C446.173 51.3786 448.065 48.9586 450.793 48.9586C453.521 48.9586 455.457 51.3346 455.457 54.6786C455.457 58.0226 453.565 60.3986 450.837 60.3986Z" fill="#5C2CFF"/>
<path d="M389.28 61.8066H391.48V53.9306H396.32V51.8186H391.48V31.5786H388.708L373.748 51.9066L374.056 53.9306H389.28V61.8066ZM376.388 51.8186L389.28 34.2186V51.8186H376.388ZM410.91 62.3346C416.63 62.3346 421.338 58.7266 421.338 53.9746C421.338 50.4106 418.522 47.3746 414.694 46.2306C418.038 45.0866 420.59 42.3146 420.59 38.9706C420.59 34.4826 416.102 31.0506 410.91 31.0506C405.762 31.0506 401.274 34.4386 401.274 38.9706C401.274 42.2266 403.738 44.9986 407.126 46.2306C403.298 47.3306 400.482 50.4106 400.482 53.9746C400.482 58.6826 405.19 62.3346 410.91 62.3346ZM410.91 45.2186C406.906 44.9546 403.518 42.6666 403.518 39.1906C403.518 35.8466 406.862 33.1626 410.91 33.1626C414.958 33.1626 418.346 35.8466 418.346 39.1906C418.346 42.6226 414.914 44.9546 410.91 45.2186ZM410.91 60.2226C406.422 60.2226 402.726 57.4066 402.726 53.8426C402.726 50.1026 406.554 47.5506 410.91 47.4186C415.31 47.5506 419.094 50.1026 419.094 53.8426C419.094 57.4066 415.354 60.2226 410.91 60.2226ZM433.853 46.4506C437.725 46.4506 440.497 43.2826 440.497 38.8826C440.497 34.5266 437.813 31.3146 433.897 31.3146C429.981 31.3146 427.253 34.5266 427.253 38.9706C427.253 43.2826 429.937 46.4506 433.853 46.4506ZM430.817 61.8066H433.325L454.005 31.5786H451.497L430.817 61.8066ZM433.897 44.6026C431.213 44.6026 429.233 42.2266 429.233 38.9266C429.233 35.5826 431.125 33.1626 433.853 33.1626C436.581 33.1626 438.517 35.5826 438.517 38.9266C438.517 42.2266 436.581 44.6026 433.897 44.6026ZM450.793 62.2466C454.665 62.2466 457.437 59.0346 457.437 54.6346C457.437 50.3226 454.753 47.1106 450.837 47.1106C446.921 47.1106 444.193 50.3226 444.193 54.6786C444.193 59.0786 446.965 62.2466 450.793 62.2466ZM450.837 60.3986C448.109 60.3986 446.173 57.9786 446.173 54.6346C446.173 51.3786 448.065 48.9586 450.793 48.9586C453.521 48.9586 455.457 51.3346 455.457 54.6786C455.457 58.0226 453.565 60.3986 450.837 60.3986Z" fill="black" fill-opacity="0.2"/>
<path d="M35.744 266.664H37.944V236.436H36.184L28.352 241.496L29.408 243.212L35.744 239.208V266.664ZM56.1511 267.192C61.7391 267.192 66.1831 262.836 66.1831 257.248C66.1831 252.012 61.8711 248.14 56.7231 248.14C53.9511 248.14 51.4431 249.02 49.7271 250.384L50.0351 238.592H64.9071V236.436H47.8791L47.4831 251.748L49.3751 252.716C51.4431 251.132 53.8631 250.208 56.2391 250.208C60.5511 250.208 63.9831 253.376 63.9831 257.38C63.9831 261.648 60.5071 265.124 56.1951 265.124C52.6311 265.124 49.2871 263.452 46.8671 260.768L45.4151 262.396C48.0111 265.344 51.8391 267.192 56.1511 267.192ZM78.1105 251.308C81.9825 251.308 84.7545 248.14 84.7545 243.74C84.7545 239.384 82.0705 236.172 78.1545 236.172C74.2385 236.172 71.5105 239.384 71.5105 243.828C71.5105 248.14 74.1945 251.308 78.1105 251.308ZM75.0745 266.664H77.5825L98.2625 236.436H95.7545L75.0745 266.664ZM78.1545 249.46C75.4705 249.46 73.4905 247.084 73.4905 243.784C73.4905 240.44 75.3825 238.02 78.1105 238.02C80.8385 238.02 82.7745 240.44 82.7745 243.784C82.7745 247.084 80.8385 249.46 78.1545 249.46ZM95.0505 267.104C98.9225 267.104 101.695 263.892 101.695 259.492C101.695 255.18 99.0105 251.968 95.0945 251.968C91.1785 251.968 88.4505 255.18 88.4505 259.536C88.4505 263.936 91.2225 267.104 95.0505 267.104ZM95.0945 265.256C92.3665 265.256 90.4305 262.836 90.4305 259.492C90.4305 256.236 92.3225 253.816 95.0505 253.816C97.7785 253.816 99.7145 256.192 99.7145 259.536C99.7145 262.88 97.8225 265.256 95.0945 265.256Z" fill="#5C2CFF"/>
<path d="M35.744 266.664H37.944V236.436H36.184L28.352 241.496L29.408 243.212L35.744 239.208V266.664ZM56.1511 267.192C61.7391 267.192 66.1831 262.836 66.1831 257.248C66.1831 252.012 61.8711 248.14 56.7231 248.14C53.9511 248.14 51.4431 249.02 49.7271 250.384L50.0351 238.592H64.9071V236.436H47.8791L47.4831 251.748L49.3751 252.716C51.4431 251.132 53.8631 250.208 56.2391 250.208C60.5511 250.208 63.9831 253.376 63.9831 257.38C63.9831 261.648 60.5071 265.124 56.1951 265.124C52.6311 265.124 49.2871 263.452 46.8671 260.768L45.4151 262.396C48.0111 265.344 51.8391 267.192 56.1511 267.192ZM78.1105 251.308C81.9825 251.308 84.7545 248.14 84.7545 243.74C84.7545 239.384 82.0705 236.172 78.1545 236.172C74.2385 236.172 71.5105 239.384 71.5105 243.828C71.5105 248.14 74.1945 251.308 78.1105 251.308ZM75.0745 266.664H77.5825L98.2625 236.436H95.7545L75.0745 266.664ZM78.1545 249.46C75.4705 249.46 73.4905 247.084 73.4905 243.784C73.4905 240.44 75.3825 238.02 78.1105 238.02C80.8385 238.02 82.7745 240.44 82.7745 243.784C82.7745 247.084 80.8385 249.46 78.1545 249.46ZM95.0505 267.104C98.9225 267.104 101.695 263.892 101.695 259.492C101.695 255.18 99.0105 251.968 95.0945 251.968C91.1785 251.968 88.4505 255.18 88.4505 259.536C88.4505 263.936 91.2225 267.104 95.0505 267.104ZM95.0945 265.256C92.3665 265.256 90.4305 262.836 90.4305 259.492C90.4305 256.236 92.3225 253.816 95.0505 253.816C97.7785 253.816 99.7145 256.192 99.7145 259.536C99.7145 262.88 97.8225 265.256 95.0945 265.256Z" fill="black" fill-opacity="0.2"/>
<path d="M255.62 266.664H258.128L271.504 238.152V236.436H251.352V238.592H268.908L255.62 266.664ZM281.861 251.308C285.733 251.308 288.505 248.14 288.505 243.74C288.505 239.384 285.821 236.172 281.905 236.172C277.989 236.172 275.261 239.384 275.261 243.828C275.261 248.14 277.945 251.308 281.861 251.308ZM278.825 266.664H281.333L302.013 236.436H299.505L278.825 266.664ZM281.905 249.46C279.221 249.46 277.241 247.084 277.241 243.784C277.241 240.44 279.133 238.02 281.861 238.02C284.589 238.02 286.525 240.44 286.525 243.784C286.525 247.084 284.589 249.46 281.905 249.46ZM298.801 267.104C302.673 267.104 305.445 263.892 305.445 259.492C305.445 255.18 302.761 251.968 298.845 251.968C294.928 251.968 292.201 255.18 292.201 259.536C292.201 263.936 294.973 267.104 298.801 267.104ZM298.845 265.256C296.117 265.256 294.181 262.836 294.181 259.492C294.181 256.236 296.073 253.816 298.801 253.816C301.529 253.816 303.465 256.192 303.465 259.536C303.465 262.88 301.573 265.256 298.845 265.256Z" fill="#5C2CFF"/>
<path d="M255.62 266.664H258.128L271.504 238.152V236.436H251.352V238.592H268.908L255.62 266.664ZM281.861 251.308C285.733 251.308 288.505 248.14 288.505 243.74C288.505 239.384 285.821 236.172 281.905 236.172C277.989 236.172 275.261 239.384 275.261 243.828C275.261 248.14 277.945 251.308 281.861 251.308ZM278.825 266.664H281.333L302.013 236.436H299.505L278.825 266.664ZM281.905 249.46C279.221 249.46 277.241 247.084 277.241 243.784C277.241 240.44 279.133 238.02 281.861 238.02C284.589 238.02 286.525 240.44 286.525 243.784C286.525 247.084 284.589 249.46 281.905 249.46ZM298.801 267.104C302.673 267.104 305.445 263.892 305.445 259.492C305.445 255.18 302.761 251.968 298.845 251.968C294.928 251.968 292.201 255.18 292.201 259.536C292.201 263.936 294.973 267.104 298.801 267.104ZM298.845 265.256C296.117 265.256 294.181 262.836 294.181 259.492C294.181 256.236 296.073 253.816 298.801 253.816C301.529 253.816 303.465 256.192 303.465 259.536C303.465 262.88 301.573 265.256 298.845 265.256Z" fill="black" fill-opacity="0.2"/>
<path d="M73.912 16.0226C77.296 16.0226 79.654 13.7006 79.654 10.3886V3.44064H76.594V10.2446C76.594 11.9906 75.478 13.2326 73.912 13.2326C72.364 13.2326 71.248 11.9906 71.248 10.2446V3.44064H68.17V10.3886C68.17 13.7006 70.546 16.0226 73.912 16.0226ZM88.016 16.0226C91.076 16.0226 92.966 14.4746 92.966 11.9906C92.966 9.66864 91.184 8.87664 88.412 8.28264C86.576 7.88664 85.982 7.63464 85.982 6.87864C85.982 6.26664 86.54 5.79864 87.53 5.79864C88.682 5.79864 89.924 6.24864 91.058 7.11264L92.624 4.91664C91.31 3.83664 89.69 3.22464 87.602 3.22464C84.794 3.22464 82.886 4.80864 82.886 7.18464C82.886 9.66864 84.848 10.3886 87.494 10.9826C89.294 11.4146 89.87 11.5766 89.87 12.3146C89.87 12.9806 89.276 13.4486 88.124 13.4486C86.612 13.4486 85.262 12.8726 84.056 11.8826L82.31 13.9526C83.822 15.3026 85.82 16.0226 88.016 16.0226ZM104.847 15.8066H108.303L103.407 3.44064H99.9507L95.0547 15.8066H98.5107L99.2667 13.9166H104.091L104.847 15.8066ZM100.185 11.5946L101.679 7.79664L103.173 11.5946H100.185Z" fill="#5C2CFF"/>
<path d="M73.912 16.0226C77.296 16.0226 79.654 13.7006 79.654 10.3886V3.44064H76.594V10.2446C76.594 11.9906 75.478 13.2326 73.912 13.2326C72.364 13.2326 71.248 11.9906 71.248 10.2446V3.44064H68.17V10.3886C68.17 13.7006 70.546 16.0226 73.912 16.0226ZM88.016 16.0226C91.076 16.0226 92.966 14.4746 92.966 11.9906C92.966 9.66864 91.184 8.87664 88.412 8.28264C86.576 7.88664 85.982 7.63464 85.982 6.87864C85.982 6.26664 86.54 5.79864 87.53 5.79864C88.682 5.79864 89.924 6.24864 91.058 7.11264L92.624 4.91664C91.31 3.83664 89.69 3.22464 87.602 3.22464C84.794 3.22464 82.886 4.80864 82.886 7.18464C82.886 9.66864 84.848 10.3886 87.494 10.9826C89.294 11.4146 89.87 11.5766 89.87 12.3146C89.87 12.9806 89.276 13.4486 88.124 13.4486C86.612 13.4486 85.262 12.8726 84.056 11.8826L82.31 13.9526C83.822 15.3026 85.82 16.0226 88.016 16.0226ZM104.847 15.8066H108.303L103.407 3.44064H99.9507L95.0547 15.8066H98.5107L99.2667 13.9166H104.091L104.847 15.8066ZM100.185 11.5946L101.679 7.79664L103.173 11.5946H100.185Z" fill="black" fill-opacity="0.2"/>
<path d="M219.93 11.0366H222.558V12.5846C221.946 12.9986 221.226 13.2326 220.506 13.2326C218.58 13.2326 216.942 11.5766 216.942 9.61464C216.942 7.67064 218.58 6.01464 220.506 6.01464C221.568 6.01464 222.63 6.51864 223.296 7.34664L225.546 5.34864C224.304 4.01664 222.396 3.22464 220.506 3.22464C216.852 3.22464 213.774 6.14064 213.774 9.61464C213.774 13.0886 216.852 16.0226 220.506 16.0226C222.396 16.0226 224.304 15.2306 225.546 13.8806V8.71464H219.93V11.0366ZM238.631 6.19464V3.44064H228.893V15.8066H238.631V13.0526H231.971V10.8746H238.019V8.12064H231.971V6.19464H238.631ZM252.486 15.8066L249.552 11.6486C251.298 11.0366 252.414 9.57864 252.414 7.68864C252.414 5.18664 250.452 3.44064 247.716 3.44064H241.974V15.8066H245.052V11.9366H246.276L248.994 15.8066H252.486ZM245.052 6.24864H247.446C248.508 6.24864 249.246 6.82464 249.246 7.68864C249.246 8.55264 248.508 9.12864 247.446 9.12864H245.052V6.24864ZM255.636 15.8066H258.714V8.64264L262.278 15.0866L265.842 8.64264V15.8066H268.92V3.44064H265.842L262.278 9.88464L258.714 3.44064H255.636V15.8066ZM281.51 15.8066H284.966L280.07 3.44064H276.614L271.718 15.8066H275.174L275.93 13.9166H280.754L281.51 15.8066ZM276.848 11.5946L278.342 7.79664L279.836 11.5946H276.848ZM287.758 15.8066H290.836V8.49864L296.236 15.8066H299.296V3.44064H296.236V10.7486L290.836 3.44064H287.758V15.8066ZM306.87 15.8066H309.966V11.5406L314.754 3.44064H311.334L308.418 8.66064L305.628 3.44064H302.082L306.87 11.5406V15.8066Z" fill="#5C2CFF"/>
<path d="M219.93 11.0366H222.558V12.5846C221.946 12.9986 221.226 13.2326 220.506 13.2326C218.58 13.2326 216.942 11.5766 216.942 9.61464C216.942 7.67064 218.58 6.01464 220.506 6.01464C221.568 6.01464 222.63 6.51864 223.296 7.34664L225.546 5.34864C224.304 4.01664 222.396 3.22464 220.506 3.22464C216.852 3.22464 213.774 6.14064 213.774 9.61464C213.774 13.0886 216.852 16.0226 220.506 16.0226C222.396 16.0226 224.304 15.2306 225.546 13.8806V8.71464H219.93V11.0366ZM238.631 6.19464V3.44064H228.893V15.8066H238.631V13.0526H231.971V10.8746H238.019V8.12064H231.971V6.19464H238.631ZM252.486 15.8066L249.552 11.6486C251.298 11.0366 252.414 9.57864 252.414 7.68864C252.414 5.18664 250.452 3.44064 247.716 3.44064H241.974V15.8066H245.052V11.9366H246.276L248.994 15.8066H252.486ZM245.052 6.24864H247.446C248.508 6.24864 249.246 6.82464 249.246 7.68864C249.246 8.55264 248.508 9.12864 247.446 9.12864H245.052V6.24864ZM255.636 15.8066H258.714V8.64264L262.278 15.0866L265.842 8.64264V15.8066H268.92V3.44064H265.842L262.278 9.88464L258.714 3.44064H255.636V15.8066ZM281.51 15.8066H284.966L280.07 3.44064H276.614L271.718 15.8066H275.174L275.93 13.9166H280.754L281.51 15.8066ZM276.848 11.5946L278.342 7.79664L279.836 11.5946H276.848ZM287.758 15.8066H290.836V8.49864L296.236 15.8066H299.296V3.44064H296.236V10.7486L290.836 3.44064H287.758V15.8066ZM306.87 15.8066H309.966V11.5406L314.754 3.44064H311.334L308.418 8.66064L305.628 3.44064H302.082L306.87 11.5406V15.8066Z" fill="black" fill-opacity="0.2"/>
<path d="M380.434 16.0226C384.034 16.0226 387.076 13.0886 387.076 9.61464C387.076 6.14064 384.034 3.22464 380.434 3.22464C376.816 3.22464 373.774 6.14064 373.774 9.61464C373.774 13.0886 376.816 16.0226 380.434 16.0226ZM380.434 13.2326C378.544 13.2326 376.942 11.5766 376.942 9.61464C376.942 7.67064 378.544 6.01464 380.434 6.01464C382.324 6.01464 383.908 7.67064 383.908 9.61464C383.908 11.5766 382.324 13.2326 380.434 13.2326ZM393.127 15.8066H396.205V6.19464H399.967V3.44064H389.383V6.19464H393.127V15.8066ZM411.078 3.44064V8.12064H406.002V3.44064H402.924V15.8066H406.002V10.8746H411.078V15.8066H414.156V3.44064H411.078ZM427.677 6.19464V3.44064H417.939V15.8066H427.677V13.0526H421.017V10.8746H427.065V8.12064H421.017V6.19464H427.677ZM441.532 15.8066L438.598 11.6486C440.344 11.0366 441.46 9.57864 441.46 7.68864C441.46 5.18664 439.498 3.44064 436.762 3.44064H431.02V15.8066H434.098V11.9366H435.322L438.04 15.8066H441.532ZM434.098 6.24864H436.492C437.554 6.24864 438.292 6.82464 438.292 7.68864C438.292 8.55264 437.554 9.12864 436.492 9.12864H434.098V6.24864Z" fill="#5C2CFF"/>
<path d="M380.434 16.0226C384.034 16.0226 387.076 13.0886 387.076 9.61464C387.076 6.14064 384.034 3.22464 380.434 3.22464C376.816 3.22464 373.774 6.14064 373.774 9.61464C373.774 13.0886 376.816 16.0226 380.434 16.0226ZM380.434 13.2326C378.544 13.2326 376.942 11.5766 376.942 9.61464C376.942 7.67064 378.544 6.01464 380.434 6.01464C382.324 6.01464 383.908 7.67064 383.908 9.61464C383.908 11.5766 382.324 13.2326 380.434 13.2326ZM393.127 15.8066H396.205V6.19464H399.967V3.44064H389.383V6.19464H393.127V15.8066ZM411.078 3.44064V8.12064H406.002V3.44064H402.924V15.8066H406.002V10.8746H411.078V15.8066H414.156V3.44064H411.078ZM427.677 6.19464V3.44064H417.939V15.8066H427.677V13.0526H421.017V10.8746H427.065V8.12064H421.017V6.19464H427.677ZM441.532 15.8066L438.598 11.6486C440.344 11.0366 441.46 9.57864 441.46 7.68864C441.46 5.18664 439.498 3.44064 436.762 3.44064H431.02V15.8066H434.098V11.9366H435.322L438.04 15.8066H441.532ZM434.098 6.24864H436.492C437.554 6.24864 438.292 6.82464 438.292 7.68864C438.292 8.55264 437.554 9.12864 436.492 9.12864H434.098V6.24864Z" fill="black" fill-opacity="0.2"/>
<path d="M30.44 220.664H33.518V208.298H30.44V220.664ZM37.299 220.664H40.377V213.356L45.777 220.664H48.837V208.298H45.777V215.606L40.377 208.298H37.299V220.664ZM52.6306 220.664H57.1486C61.3966 220.664 64.4026 218.09 64.4026 214.472C64.4026 210.854 61.3966 208.298 57.1486 208.298H52.6306V220.664ZM55.7086 217.874V211.088H57.6166C59.7406 211.088 61.2346 212.492 61.2346 214.472C61.2346 216.452 59.7406 217.874 57.6166 217.874H55.7086ZM67.5052 220.664H70.5832V208.298H67.5052V220.664ZM83.1662 220.664H86.6222L81.7262 208.298H78.2702L73.3742 220.664H76.8302L77.5862 218.774H82.4102L83.1662 220.664ZM78.5042 216.452L79.9982 212.654L81.4922 216.452H78.5042Z" fill="#5C2CFF"/>
<path d="M30.44 220.664H33.518V208.298H30.44V220.664ZM37.299 220.664H40.377V213.356L45.777 220.664H48.837V208.298H45.777V215.606L40.377 208.298H37.299V220.664ZM52.6306 220.664H57.1486C61.3966 220.664 64.4026 218.09 64.4026 214.472C64.4026 210.854 61.3966 208.298 57.1486 208.298H52.6306V220.664ZM55.7086 217.874V211.088H57.6166C59.7406 211.088 61.2346 212.492 61.2346 214.472C61.2346 216.452 59.7406 217.874 57.6166 217.874H55.7086ZM67.5052 220.664H70.5832V208.298H67.5052V220.664ZM83.1662 220.664H86.6222L81.7262 208.298H78.2702L73.3742 220.664H76.8302L77.5862 218.774H82.4102L83.1662 220.664ZM78.5042 216.452L79.9982 212.654L81.4922 216.452H78.5042Z" fill="black" fill-opacity="0.2"/>
<path d="M258.912 220.88C262.296 220.88 264.654 218.558 264.654 215.246V208.298H261.594V215.102C261.594 216.848 260.478 218.09 258.912 218.09C257.364 218.09 256.248 216.848 256.248 215.102V208.298H253.17V215.246C253.17 218.558 255.546 220.88 258.912 220.88ZM268.174 220.664H271.252V217.298L272.656 215.768L276.148 220.664H279.856L274.798 213.554L279.496 208.298H275.824L271.252 213.572V208.298H268.174V220.664Z" fill="#5C2CFF"/>
<path d="M258.912 220.88C262.296 220.88 264.654 218.558 264.654 215.246V208.298H261.594V215.102C261.594 216.848 260.478 218.09 258.912 218.09C257.364 218.09 256.248 216.848 256.248 215.102V208.298H253.17V215.246C253.17 218.558 255.546 220.88 258.912 220.88ZM268.174 220.664H271.252V217.298L272.656 215.768L276.148 220.664H279.856L274.798 213.554L279.496 208.298H275.824L271.252 213.572V208.298H268.174V220.664Z" fill="black" fill-opacity="0.2"/>
<line x1="48.5" y1="105.807" x2="48.5" y2="3.80664" stroke="black" stroke-dasharray="2 2"/>
<line x1="193.5" y1="105.807" x2="193.5" y2="3.80664" stroke="black" stroke-dasharray="2 2"/>
<line x1="353.5" y1="105.807" x2="353.5" y2="3.80664" stroke="black" stroke-dasharray="2 2"/>
<line y1="-0.5" x2="100" y2="-0.5" transform="matrix(3.49691e-08 1 1 -5.46392e-08 133 166.807)" stroke="black" stroke-dasharray="2 2"/>
<line y1="-0.5" x2="100" y2="-0.5" transform="matrix(3.49691e-08 1 1 -5.46392e-08 235 166.807)" stroke="black" stroke-dasharray="2 2"/>
<ellipse cx="48.0791" cy="105.878" rx="7.07907" ry="7.07143" transform="rotate(-180 48.0791 105.878)" fill="#8CEDC8"/>
<ellipse cx="194.079" cy="105.878" rx="7.07907" ry="7.07143" transform="rotate(-180 194.079 105.878)" fill="#8CEDC8"/>
<ellipse cx="354.079" cy="105.579" rx="7.07907" ry="7.07143" transform="rotate(-180 354.079 105.579)" fill="#8CEDC8"/>
<ellipse cx="194.079" cy="105.878" rx="7.07907" ry="7.07143" transform="rotate(-180 194.079 105.878)" fill="#8CEDC8"/>
<ellipse rx="7.07907" ry="7.07143" transform="matrix(-1 0 0 1 133.079 166.878)" fill="#8CEDC8"/>
<ellipse rx="7.07907" ry="7.07143" transform="matrix(-1 0 0 1 235.079 166.878)" fill="#8CEDC8"/>
<defs>
<clipPath id="clip0_1610_18754">
<rect width="483" height="61" fill="white" transform="translate(0 105.807)"/>
</clipPath>
</defs>
</svg>
