<svg fill="none" height="268" viewBox="0 0 483 268" width="483" xmlns="http://www.w3.org/2000/svg" xmlns:xlink="http://www.w3.org/1999/xlink"><clipPath id="a"><path d="m0 105.807h483v61h-483z"/></clipPath><mask id="b" height="61" maskUnits="userSpaceOnUse" width="231" x="252" y="106"><path d="m482.275 106.633h-230.275v59.375h230.275z" fill="#02ccaf"/></mask><g clip-path="url(#a)"><path d="m252.168 165.807v-59h229.847v59z" stroke="#02ccaf" stroke-width="2"/><path d="m251.153 105.807h-33.804v61h33.804z" fill="#000" fill-opacity=".3"/><path d="m217.349 105.807h-48.301v61h48.301z" fill="#5c2cff" fill-opacity=".4"/><path d="m217.349 105.807h-48.301v61h48.301z" fill="#000" fill-opacity=".2"/><path d="m169.048 105.807h-72.4452v61h72.4452z" fill="#5c2cff" fill-opacity=".6"/><path d="m169.048 105.807h-72.4452v61h72.4452z" fill="#000" fill-opacity=".2"/><path d="m96.603 105.807h-96.603v61h96.603z" fill="#5c2cff"/><path d="m96.603 105.807h-96.603v61h96.603z" fill="#000" fill-opacity=".2"/><g clip-rule="evenodd" fill="#02ccaf" fill-rule="evenodd" mask="url(#b)"><path d="m789.523 993.91-949.279-899.5143 1.22-1.1564 949.279 899.5137z"/><path d="m292.447 993.91-949.279-899.5143 1.22-1.1564 949.279 899.5137z"/><path d="m1286.6 993.91-949.279-899.5143 1.221-1.1564 949.278 899.5137z"/><path d="m1038.06 993.91-949.2759-899.5143 1.2204-1.1564 949.2755 899.5137z"/><path d="m540.984 993.91-949.279-899.5143 1.221-1.1564 949.279 899.5147z"/><path d="m913.793 993.91-949.2789-899.5143 1.2204-1.1564 949.2795 899.5137z"/><path d="m416.716 993.91-949.279-899.5143 1.22-1.1564 949.279 899.5147z"/><path d="m1410.87 993.91-949.28-899.5143 1.221-1.1564 949.279 899.5137z"/><path d="m1162.33 993.91-949.279-899.5143 1.221-1.1564 949.278 899.5147z"/><path d="m665.254 993.91-949.279-899.5143 1.221-1.1564 949.279 899.5137z"/><path d="m851.66 993.91-949.2795-899.5143 1.2205-1.1564 949.279 899.5137z"/><path d="m354.581 993.91-949.279-899.5143 1.22-1.1564 949.279 899.5147z"/><path d="m1348.73 993.91-949.275-899.5143 1.221-1.1564 949.274 899.5137z"/><path d="m1100.2 993.91-949.282-899.5143 1.22-1.1564 949.282 899.5137z"/><path d="m603.119 993.91-949.279-899.5143 1.221-1.1564 949.279 899.5137z"/><path d="m975.927 993.91-949.2793-899.5143 1.2205-1.1564 949.2788 899.5137z"/><path d="m478.851 993.91-949.279-899.5143 1.22-1.1564 949.279 899.5137z"/><path d="m1224.47 993.91-949.284-899.5143 1.221-1.1564 949.283 899.5137z"/><path d="m727.389 993.91-949.279-899.5143 1.221-1.1564 949.279 899.5137z"/><path d="m820.591 993.91-949.279-899.5143 1.221-1.1564 949.279 899.5137z"/><path d="m323.514 993.91-949.279-899.5143 1.22-1.1564 949.279 899.5137z"/><path d="m1317.67 993.91-949.282-899.5143 1.221-1.1564 949.281 899.5147z"/><path d="m1069.13 993.91-949.28-899.5143 1.22-1.1564 949.28 899.5137z"/><path d="m572.053 993.91-949.28-899.5143 1.221-1.1564 949.279 899.5147z"/><path d="m944.862 993.91-949.27971-899.5143 1.22044-1.1564 949.27927 899.5137z"/><path d="m447.783 993.91-949.28-899.5143 1.221-1.1564 949.279 899.5137z"/><path d="m1193.4 993.91-949.28-899.5143 1.22-1.1564 949.28 899.5147z"/><path d="m696.321 993.91-949.279-899.5143 1.221-1.1564 949.279 899.5137z"/><path d="m882.725 993.91-949.2792-899.5143 1.2205-1.1564 949.2787 899.5147z"/><path d="m385.649 993.91-949.279-899.5143 1.22-1.1564 949.279 899.5147z"/><path d="m1379.8 993.91-949.277-899.5143 1.221-1.1564 949.276 899.5137z"/><path d="m1131.27 993.91-949.284-899.5143 1.22-1.1564 949.284 899.5137z"/><path d="m634.186 993.91-949.279-899.5143 1.221-1.1564 949.279 899.5137z"/><path d="m1006.99 993.91-949.274-899.5143 1.2204-1.1564 949.2836 899.5147z"/><path d="m509.917 993.91-949.279-899.5143 1.221-1.1564 949.279 899.5147z"/><path d="m261.379 993.91-949.279-899.5143 1.22-1.1564 949.279 899.5147z"/><path d="m1255.53 993.91-949.277-899.5143 1.221-1.1564 949.276 899.5137z"/><path d="m758.458 993.91-949.279-899.5143 1.22-1.1564 949.279 899.5137z"/></g></g><path d="m68.32 61.8066h20.548v-2.156h-17.248l9.68-8.272c4.752-4.092 6.952-7.656 6.952-11.484 0-4.884-3.872-8.844-9.284-8.844-4.004 0-7.744 1.936-10.384 5.808l1.628 1.32c2.332-3.256 5.412-5.104 8.756-5.104 4.18 0 7.084 3.168 7.084 6.864 0 2.992-1.848 6.16-6.204 9.9l-11.528 9.856zm37.742.528c6.996 0 11.924-6.468 11.924-15.664 0-9.152-4.928-15.62-11.924-15.62-7.0396 0-11.9676 6.468-11.9676 15.62 0 9.196 4.928 15.664 11.9676 15.664zm0-2.112c-5.72 0-9.7236-5.632-9.7236-13.552s4.0036-13.508 9.7236-13.508c5.676 0 9.68 5.588 9.68 13.508s-4.004 13.552-9.68 13.552zm24.326-13.772c3.872 0 6.644-3.168 6.644-7.568 0-4.356-2.684-7.568-6.6-7.568s-6.644 3.212-6.644 7.656c0 4.312 2.684 7.48 6.6 7.48zm-3.036 15.356h2.508l20.68-30.228h-2.508zm3.08-17.204c-2.684 0-4.664-2.376-4.664-5.676 0-3.344 1.892-5.764 4.62-5.764s4.664 2.42 4.664 5.764c0 3.3-1.936 5.676-4.62 5.676zm16.896 17.644c3.872 0 6.644-3.212 6.644-7.612 0-4.312-2.684-7.524-6.6-7.524s-6.644 3.212-6.644 7.568c0 4.4 2.772 7.568 6.6 7.568zm.044-1.848c-2.728 0-4.664-2.42-4.664-5.764 0-3.256 1.892-5.676 4.62-5.676s4.664 2.376 4.664 5.72-1.892 5.72-4.62 5.72z" fill="#5c2cff"/><path d="m68.32 61.8066h20.548v-2.156h-17.248l9.68-8.272c4.752-4.092 6.952-7.656 6.952-11.484 0-4.884-3.872-8.844-9.284-8.844-4.004 0-7.744 1.936-10.384 5.808l1.628 1.32c2.332-3.256 5.412-5.104 8.756-5.104 4.18 0 7.084 3.168 7.084 6.864 0 2.992-1.848 6.16-6.204 9.9l-11.528 9.856zm37.742.528c6.996 0 11.924-6.468 11.924-15.664 0-9.152-4.928-15.62-11.924-15.62-7.0396 0-11.9676 6.468-11.9676 15.62 0 9.196 4.928 15.664 11.9676 15.664zm0-2.112c-5.72 0-9.7236-5.632-9.7236-13.552s4.0036-13.508 9.7236-13.508c5.676 0 9.68 5.588 9.68 13.508s-4.004 13.552-9.68 13.552zm24.326-13.772c3.872 0 6.644-3.168 6.644-7.568 0-4.356-2.684-7.568-6.6-7.568s-6.644 3.212-6.644 7.656c0 4.312 2.684 7.48 6.6 7.48zm-3.036 15.356h2.508l20.68-30.228h-2.508zm3.08-17.204c-2.684 0-4.664-2.376-4.664-5.676 0-3.344 1.892-5.764 4.62-5.764s4.664 2.42 4.664 5.764c0 3.3-1.936 5.676-4.62 5.676zm16.896 17.644c3.872 0 6.644-3.212 6.644-7.612 0-4.312-2.684-7.524-6.6-7.524s-6.644 3.212-6.644 7.568c0 4.4 2.772 7.568 6.6 7.568zm.044-1.848c-2.728 0-4.664-2.42-4.664-5.764 0-3.256 1.892-5.676 4.62-5.676s4.664 2.376 4.664 5.72-1.892 5.72-4.62 5.72z" fill="#000" fill-opacity=".2"/><path d="m220.744 61.8066h2.2v-30.228h-1.76l-7.832 5.06 1.056 1.716 6.336-4.004zm22.123.528c6.996 0 11.924-6.468 11.924-15.664 0-9.152-4.928-15.62-11.924-15.62-7.04 0-11.968 6.468-11.968 15.62 0 9.196 4.928 15.664 11.968 15.664zm0-2.112c-5.72 0-9.724-5.632-9.724-13.552s4.004-13.508 9.724-13.508c5.676 0 9.68 5.588 9.68 13.508s-4.004 13.552-9.68 13.552zm24.326-13.772c3.872 0 6.644-3.168 6.644-7.568 0-4.356-2.684-7.568-6.6-7.568s-6.644 3.212-6.644 7.656c0 4.312 2.684 7.48 6.6 7.48zm-3.036 15.356h2.508l20.68-30.228h-2.508zm3.08-17.204c-2.684 0-4.664-2.376-4.664-5.676 0-3.344 1.892-5.764 4.62-5.764s4.664 2.42 4.664 5.764c0 3.3-1.936 5.676-4.62 5.676zm16.896 17.644c3.872 0 6.644-3.212 6.644-7.612 0-4.312-2.684-7.524-6.6-7.524s-6.644 3.212-6.644 7.568c0 4.4 2.772 7.568 6.6 7.568zm.044-1.848c-2.728 0-4.664-2.42-4.664-5.764 0-3.256 1.892-5.676 4.62-5.676s4.664 2.376 4.664 5.72-1.892 5.72-4.62 5.72z" fill="#5c2cff"/><path d="m220.744 61.8066h2.2v-30.228h-1.76l-7.832 5.06 1.056 1.716 6.336-4.004zm22.123.528c6.996 0 11.924-6.468 11.924-15.664 0-9.152-4.928-15.62-11.924-15.62-7.04 0-11.968 6.468-11.968 15.62 0 9.196 4.928 15.664 11.968 15.664zm0-2.112c-5.72 0-9.724-5.632-9.724-13.552s4.004-13.508 9.724-13.508c5.676 0 9.68 5.588 9.68 13.508s-4.004 13.552-9.68 13.552zm24.326-13.772c3.872 0 6.644-3.168 6.644-7.568 0-4.356-2.684-7.568-6.6-7.568s-6.644 3.212-6.644 7.656c0 4.312 2.684 7.48 6.6 7.48zm-3.036 15.356h2.508l20.68-30.228h-2.508zm3.08-17.204c-2.684 0-4.664-2.376-4.664-5.676 0-3.344 1.892-5.764 4.62-5.764s4.664 2.42 4.664 5.764c0 3.3-1.936 5.676-4.62 5.676zm16.896 17.644c3.872 0 6.644-3.212 6.644-7.612 0-4.312-2.684-7.524-6.6-7.524s-6.644 3.212-6.644 7.568c0 4.4 2.772 7.568 6.6 7.568zm.044-1.848c-2.728 0-4.664-2.42-4.664-5.764 0-3.256 1.892-5.676 4.62-5.676s4.664 2.376 4.664 5.72-1.892 5.72-4.62 5.72z" fill="#000" fill-opacity=".2"/><path d="m220.744 61.8066h2.2v-30.228h-1.76l-7.832 5.06 1.056 1.716 6.336-4.004zm22.123.528c6.996 0 11.924-6.468 11.924-15.664 0-9.152-4.928-15.62-11.924-15.62-7.04 0-11.968 6.468-11.968 15.62 0 9.196 4.928 15.664 11.968 15.664zm0-2.112c-5.72 0-9.724-5.632-9.724-13.552s4.004-13.508 9.724-13.508c5.676 0 9.68 5.588 9.68 13.508s-4.004 13.552-9.68 13.552zm24.326-13.772c3.872 0 6.644-3.168 6.644-7.568 0-4.356-2.684-7.568-6.6-7.568s-6.644 3.212-6.644 7.656c0 4.312 2.684 7.48 6.6 7.48zm-3.036 15.356h2.508l20.68-30.228h-2.508zm3.08-17.204c-2.684 0-4.664-2.376-4.664-5.676 0-3.344 1.892-5.764 4.62-5.764s4.664 2.42 4.664 5.764c0 3.3-1.936 5.676-4.62 5.676zm16.896 17.644c3.872 0 6.644-3.212 6.644-7.612 0-4.312-2.684-7.524-6.6-7.524s-6.644 3.212-6.644 7.568c0 4.4 2.772 7.568 6.6 7.568zm.044-1.848c-2.728 0-4.664-2.42-4.664-5.764 0-3.256 1.892-5.676 4.62-5.676s4.664 2.376 4.664 5.72-1.892 5.72-4.62 5.72z" fill="#5c2cff"/><path d="m220.744 61.8066h2.2v-30.228h-1.76l-7.832 5.06 1.056 1.716 6.336-4.004zm22.123.528c6.996 0 11.924-6.468 11.924-15.664 0-9.152-4.928-15.62-11.924-15.62-7.04 0-11.968 6.468-11.968 15.62 0 9.196 4.928 15.664 11.968 15.664zm0-2.112c-5.72 0-9.724-5.632-9.724-13.552s4.004-13.508 9.724-13.508c5.676 0 9.68 5.588 9.68 13.508s-4.004 13.552-9.68 13.552zm24.326-13.772c3.872 0 6.644-3.168 6.644-7.568 0-4.356-2.684-7.568-6.6-7.568s-6.644 3.212-6.644 7.656c0 4.312 2.684 7.48 6.6 7.48zm-3.036 15.356h2.508l20.68-30.228h-2.508zm3.08-17.204c-2.684 0-4.664-2.376-4.664-5.676 0-3.344 1.892-5.764 4.62-5.764s4.664 2.42 4.664 5.764c0 3.3-1.936 5.676-4.62 5.676zm16.896 17.644c3.872 0 6.644-3.212 6.644-7.612 0-4.312-2.684-7.524-6.6-7.524s-6.644 3.212-6.644 7.568c0 4.4 2.772 7.568 6.6 7.568zm.044-1.848c-2.728 0-4.664-2.42-4.664-5.764 0-3.256 1.892-5.676 4.62-5.676s4.664 2.376 4.664 5.72-1.892 5.72-4.62 5.72z" fill="#000" fill-opacity=".2"/><path d="m389.28 61.8066h2.2v-7.876h4.84v-2.112h-4.84v-20.24h-2.772l-14.96 20.328.308 2.024h15.224zm-12.892-9.988 12.892-17.6v17.6zm25.81 9.988h2.508l13.376-28.512v-1.716h-20.152v2.156h17.556zm26.241-15.356c3.872 0 6.644-3.168 6.644-7.568 0-4.356-2.684-7.568-6.6-7.568s-6.644 3.212-6.644 7.656c0 4.312 2.684 7.48 6.6 7.48zm-3.036 15.356h2.508l20.68-30.228h-2.508zm3.08-17.204c-2.684 0-4.664-2.376-4.664-5.676 0-3.344 1.892-5.764 4.62-5.764s4.664 2.42 4.664 5.764c0 3.3-1.936 5.676-4.62 5.676zm16.896 17.644c3.872 0 6.644-3.212 6.644-7.612 0-4.312-2.684-7.524-6.6-7.524s-6.644 3.212-6.644 7.568c0 4.4 2.772 7.568 6.6 7.568zm.044-1.848c-2.728 0-4.664-2.42-4.664-5.764 0-3.256 1.892-5.676 4.62-5.676s4.664 2.376 4.664 5.72-1.892 5.72-4.62 5.72z" fill="#5c2cff"/><path d="m389.28 61.8066h2.2v-7.876h4.84v-2.112h-4.84v-20.24h-2.772l-14.96 20.328.308 2.024h15.224zm-12.892-9.988 12.892-17.6v17.6zm25.81 9.988h2.508l13.376-28.512v-1.716h-20.152v2.156h17.556zm26.241-15.356c3.872 0 6.644-3.168 6.644-7.568 0-4.356-2.684-7.568-6.6-7.568s-6.644 3.212-6.644 7.656c0 4.312 2.684 7.48 6.6 7.48zm-3.036 15.356h2.508l20.68-30.228h-2.508zm3.08-17.204c-2.684 0-4.664-2.376-4.664-5.676 0-3.344 1.892-5.764 4.62-5.764s4.664 2.42 4.664 5.764c0 3.3-1.936 5.676-4.62 5.676zm16.896 17.644c3.872 0 6.644-3.212 6.644-7.612 0-4.312-2.684-7.524-6.6-7.524s-6.644 3.212-6.644 7.568c0 4.4 2.772 7.568 6.6 7.568zm.044-1.848c-2.728 0-4.664-2.42-4.664-5.764 0-3.256 1.892-5.676 4.62-5.676s4.664 2.376 4.664 5.72-1.892 5.72-4.62 5.72z" fill="#000" fill-opacity=".2"/><path d="m35.744 266.664h2.2v-30.228h-1.76l-7.832 5.06 1.056 1.716 6.336-4.004zm20.4071.528c5.588 0 10.032-4.356 10.032-9.944 0-5.236-4.312-9.108-9.46-9.108-2.772 0-5.28.88-6.996 2.244l.308-11.792h14.872v-2.156h-17.028l-.396 15.312 1.892.968c2.068-1.584 4.488-2.508 6.864-2.508 4.312 0 7.744 3.168 7.744 7.172 0 4.268-3.476 7.744-7.788 7.744-3.564 0-6.908-1.672-9.328-4.356l-1.452 1.628c2.596 2.948 6.424 4.796 10.736 4.796zm21.9594-15.884c3.872 0 6.644-3.168 6.644-7.568 0-4.356-2.684-7.568-6.6-7.568s-6.644 3.212-6.644 7.656c0 4.312 2.684 7.48 6.6 7.48zm-3.036 15.356h2.508l20.68-30.228h-2.508zm3.08-17.204c-2.684 0-4.664-2.376-4.664-5.676 0-3.344 1.892-5.764 4.62-5.764s4.664 2.42 4.664 5.764c0 3.3-1.936 5.676-4.62 5.676zm16.896 17.644c3.872 0 6.6445-3.212 6.6445-7.612 0-4.312-2.6845-7.524-6.6005-7.524s-6.644 3.212-6.644 7.568c0 4.4 2.772 7.568 6.6 7.568zm.044-1.848c-2.728 0-4.664-2.42-4.664-5.764 0-3.256 1.892-5.676 4.62-5.676s4.664 2.376 4.664 5.72-1.892 5.72-4.62 5.72z" fill="#5c2cff"/><path d="m35.744 266.664h2.2v-30.228h-1.76l-7.832 5.06 1.056 1.716 6.336-4.004zm20.4071.528c5.588 0 10.032-4.356 10.032-9.944 0-5.236-4.312-9.108-9.46-9.108-2.772 0-5.28.88-6.996 2.244l.308-11.792h14.872v-2.156h-17.028l-.396 15.312 1.892.968c2.068-1.584 4.488-2.508 6.864-2.508 4.312 0 7.744 3.168 7.744 7.172 0 4.268-3.476 7.744-7.788 7.744-3.564 0-6.908-1.672-9.328-4.356l-1.452 1.628c2.596 2.948 6.424 4.796 10.736 4.796zm21.9594-15.884c3.872 0 6.644-3.168 6.644-7.568 0-4.356-2.684-7.568-6.6-7.568s-6.644 3.212-6.644 7.656c0 4.312 2.684 7.48 6.6 7.48zm-3.036 15.356h2.508l20.68-30.228h-2.508zm3.08-17.204c-2.684 0-4.664-2.376-4.664-5.676 0-3.344 1.892-5.764 4.62-5.764s4.664 2.42 4.664 5.764c0 3.3-1.936 5.676-4.62 5.676zm16.896 17.644c3.872 0 6.6445-3.212 6.6445-7.612 0-4.312-2.6845-7.524-6.6005-7.524s-6.644 3.212-6.644 7.568c0 4.4 2.772 7.568 6.6 7.568zm.044-1.848c-2.728 0-4.664-2.42-4.664-5.764 0-3.256 1.892-5.676 4.62-5.676s4.664 2.376 4.664 5.72-1.892 5.72-4.62 5.72z" fill="#000" fill-opacity=".2"/><path d="m255.62 266.664h2.508l13.376-28.512v-1.716h-20.152v2.156h17.556zm26.241-15.356c3.872 0 6.644-3.168 6.644-7.568 0-4.356-2.684-7.568-6.6-7.568s-6.644 3.212-6.644 7.656c0 4.312 2.684 7.48 6.6 7.48zm-3.036 15.356h2.508l20.68-30.228h-2.508zm3.08-17.204c-2.684 0-4.664-2.376-4.664-5.676 0-3.344 1.892-5.764 4.62-5.764s4.664 2.42 4.664 5.764c0 3.3-1.936 5.676-4.62 5.676zm16.896 17.644c3.872 0 6.644-3.212 6.644-7.612 0-4.312-2.684-7.524-6.6-7.524-3.917 0-6.644 3.212-6.644 7.568 0 4.4 2.772 7.568 6.6 7.568zm.044-1.848c-2.728 0-4.664-2.42-4.664-5.764 0-3.256 1.892-5.676 4.62-5.676s4.664 2.376 4.664 5.72-1.892 5.72-4.62 5.72z" fill="#5c2cff"/><path d="m255.62 266.664h2.508l13.376-28.512v-1.716h-20.152v2.156h17.556zm26.241-15.356c3.872 0 6.644-3.168 6.644-7.568 0-4.356-2.684-7.568-6.6-7.568s-6.644 3.212-6.644 7.656c0 4.312 2.684 7.48 6.6 7.48zm-3.036 15.356h2.508l20.68-30.228h-2.508zm3.08-17.204c-2.684 0-4.664-2.376-4.664-5.676 0-3.344 1.892-5.764 4.62-5.764s4.664 2.42 4.664 5.764c0 3.3-1.936 5.676-4.62 5.676zm16.896 17.644c3.872 0 6.644-3.212 6.644-7.612 0-4.312-2.684-7.524-6.6-7.524-3.917 0-6.644 3.212-6.644 7.568 0 4.4 2.772 7.568 6.6 7.568zm.044-1.848c-2.728 0-4.664-2.42-4.664-5.764 0-3.256 1.892-5.676 4.62-5.676s4.664 2.376 4.664 5.72-1.892 5.72-4.62 5.72z" fill="#000" fill-opacity=".2"/><path d="m73.912 16.0226c3.384 0 5.742-2.322 5.742-5.634v-6.94796h-3.06v6.80396c0 1.746-1.116 2.988-2.682 2.988-1.548 0-2.664-1.242-2.664-2.988v-6.80396h-3.078v6.94796c0 3.312 2.376 5.634 5.742 5.634zm14.104 0c3.06 0 4.95-1.548 4.95-4.032 0-2.32196-1.782-3.11396-4.554-3.70796-1.836-.396-2.43-.648-2.43-1.404 0-.612.558-1.08 1.548-1.08 1.152 0 2.394.45 3.528 1.314l1.566-2.196c-1.314-1.08-2.934-1.692-5.022-1.692-2.808 0-4.716 1.584-4.716 3.96 0 2.484 1.962 3.20396 4.608 3.79796 1.8.432 2.376.594 2.376 1.332 0 .666-.594 1.134-1.746 1.134-1.512 0-2.862-.576-4.068-1.566l-1.746 2.07c1.512 1.35 3.51 2.07 5.706 2.07zm16.831-.216h3.456l-4.896-12.36596h-3.4563l-4.896 12.36596h3.456l.756-1.89h4.8243zm-4.662-4.212 1.494-3.79796 1.494 3.79796z" fill="#5c2cff"/><path d="m73.912 16.0226c3.384 0 5.742-2.322 5.742-5.634v-6.94796h-3.06v6.80396c0 1.746-1.116 2.988-2.682 2.988-1.548 0-2.664-1.242-2.664-2.988v-6.80396h-3.078v6.94796c0 3.312 2.376 5.634 5.742 5.634zm14.104 0c3.06 0 4.95-1.548 4.95-4.032 0-2.32196-1.782-3.11396-4.554-3.70796-1.836-.396-2.43-.648-2.43-1.404 0-.612.558-1.08 1.548-1.08 1.152 0 2.394.45 3.528 1.314l1.566-2.196c-1.314-1.08-2.934-1.692-5.022-1.692-2.808 0-4.716 1.584-4.716 3.96 0 2.484 1.962 3.20396 4.608 3.79796 1.8.432 2.376.594 2.376 1.332 0 .666-.594 1.134-1.746 1.134-1.512 0-2.862-.576-4.068-1.566l-1.746 2.07c1.512 1.35 3.51 2.07 5.706 2.07zm16.831-.216h3.456l-4.896-12.36596h-3.4563l-4.896 12.36596h3.456l.756-1.89h4.8243zm-4.662-4.212 1.494-3.79796 1.494 3.79796z" fill="#000" fill-opacity=".2"/><path d="m219.93 11.0366h2.628v1.548c-.612.414-1.332.648-2.052.648-1.926 0-3.564-1.656-3.564-3.61796 0-1.944 1.638-3.6 3.564-3.6 1.062 0 2.124.504 2.79 1.332l2.25-1.998c-1.242-1.332-3.15-2.124-5.04-2.124-3.654 0-6.732 2.916-6.732 6.39 0 3.47396 3.078 6.40796 6.732 6.40796 1.89 0 3.798-.792 5.04-2.142v-5.16596h-5.616zm18.701-4.84196v-2.754h-9.738v12.36596h9.738v-2.754h-6.66v-2.178h6.048v-2.75396h-6.048v-1.926zm13.855 9.61196-2.934-4.158c1.746-.612 2.862-2.06996 2.862-3.95996 0-2.502-1.962-4.248-4.698-4.248h-5.742v12.36596h3.078v-3.87h1.224l2.718 3.87zm-7.434-9.55796h2.394c1.062 0 1.8.576 1.8 1.44s-.738 1.44-1.8 1.44h-2.394zm10.584 9.55796h3.078v-7.16396l3.564 6.44396 3.564-6.44396v7.16396h3.078v-12.36596h-3.078l-3.564 6.444-3.564-6.444h-3.078zm25.874 0h3.456l-4.896-12.36596h-3.456l-4.896 12.36596h3.456l.756-1.89h4.824zm-4.662-4.212 1.494-3.79796 1.494 3.79796zm10.91 4.212h3.078v-7.30796l5.4 7.30796h3.06v-12.36596h-3.06v7.30796l-5.4-7.30796h-3.078zm19.112 0h3.096v-4.266l4.788-8.09996h-3.42l-2.916 5.22-2.79-5.22h-3.546l4.788 8.09996z" fill="#5c2cff"/><path d="m219.93 11.0366h2.628v1.548c-.612.414-1.332.648-2.052.648-1.926 0-3.564-1.656-3.564-3.61796 0-1.944 1.638-3.6 3.564-3.6 1.062 0 2.124.504 2.79 1.332l2.25-1.998c-1.242-1.332-3.15-2.124-5.04-2.124-3.654 0-6.732 2.916-6.732 6.39 0 3.47396 3.078 6.40796 6.732 6.40796 1.89 0 3.798-.792 5.04-2.142v-5.16596h-5.616zm18.701-4.84196v-2.754h-9.738v12.36596h9.738v-2.754h-6.66v-2.178h6.048v-2.75396h-6.048v-1.926zm13.855 9.61196-2.934-4.158c1.746-.612 2.862-2.06996 2.862-3.95996 0-2.502-1.962-4.248-4.698-4.248h-5.742v12.36596h3.078v-3.87h1.224l2.718 3.87zm-7.434-9.55796h2.394c1.062 0 1.8.576 1.8 1.44s-.738 1.44-1.8 1.44h-2.394zm10.584 9.55796h3.078v-7.16396l3.564 6.44396 3.564-6.44396v7.16396h3.078v-12.36596h-3.078l-3.564 6.444-3.564-6.444h-3.078zm25.874 0h3.456l-4.896-12.36596h-3.456l-4.896 12.36596h3.456l.756-1.89h4.824zm-4.662-4.212 1.494-3.79796 1.494 3.79796zm10.91 4.212h3.078v-7.30796l5.4 7.30796h3.06v-12.36596h-3.06v7.30796l-5.4-7.30796h-3.078zm19.112 0h3.096v-4.266l4.788-8.09996h-3.42l-2.916 5.22-2.79-5.22h-3.546l4.788 8.09996z" fill="#000" fill-opacity=".2"/><path d="m380.434 16.0226c3.6 0 6.642-2.934 6.642-6.40796 0-3.474-3.042-6.39-6.642-6.39-3.618 0-6.66 2.916-6.66 6.39 0 3.47396 3.042 6.40796 6.66 6.40796zm0-2.79c-1.89 0-3.492-1.656-3.492-3.61796 0-1.944 1.602-3.6 3.492-3.6s3.474 1.656 3.474 3.6c0 1.96196-1.584 3.61796-3.474 3.61796zm12.693 2.574h3.078v-9.61196h3.762v-2.754h-10.584v2.754h3.744zm17.951-12.36596v4.68h-5.076v-4.68h-3.078v12.36596h3.078v-4.932h5.076v4.932h3.078v-12.36596zm16.599 2.754v-2.754h-9.738v12.36596h9.738v-2.754h-6.66v-2.178h6.048v-2.75396h-6.048v-1.926zm13.855 9.61196-2.934-4.158c1.746-.612 2.862-2.06996 2.862-3.95996 0-2.502-1.962-4.248-4.698-4.248h-5.742v12.36596h3.078v-3.87h1.224l2.718 3.87zm-7.434-9.55796h2.394c1.062 0 1.8.576 1.8 1.44s-.738 1.44-1.8 1.44h-2.394z" fill="#5c2cff"/><path d="m380.434 16.0226c3.6 0 6.642-2.934 6.642-6.40796 0-3.474-3.042-6.39-6.642-6.39-3.618 0-6.66 2.916-6.66 6.39 0 3.47396 3.042 6.40796 6.66 6.40796zm0-2.79c-1.89 0-3.492-1.656-3.492-3.61796 0-1.944 1.602-3.6 3.492-3.6s3.474 1.656 3.474 3.6c0 1.96196-1.584 3.61796-3.474 3.61796zm12.693 2.574h3.078v-9.61196h3.762v-2.754h-10.584v2.754h3.744zm17.951-12.36596v4.68h-5.076v-4.68h-3.078v12.36596h3.078v-4.932h5.076v4.932h3.078v-12.36596zm16.599 2.754v-2.754h-9.738v12.36596h9.738v-2.754h-6.66v-2.178h6.048v-2.75396h-6.048v-1.926zm13.855 9.61196-2.934-4.158c1.746-.612 2.862-2.06996 2.862-3.95996 0-2.502-1.962-4.248-4.698-4.248h-5.742v12.36596h3.078v-3.87h1.224l2.718 3.87zm-7.434-9.55796h2.394c1.062 0 1.8.576 1.8 1.44s-.738 1.44-1.8 1.44h-2.394z" fill="#000" fill-opacity=".2"/><path d="m30.44 220.664h3.078v-12.366h-3.078zm6.859 0h3.078v-7.308l5.4 7.308h3.06v-12.366h-3.06v7.308l-5.4-7.308h-3.078zm15.3316 0h4.518c4.248 0 7.254-2.574 7.254-6.192s-3.006-6.174-7.254-6.174h-4.518zm3.078-2.79v-6.786h1.908c2.124 0 3.618 1.404 3.618 3.384s-1.494 3.402-3.618 3.402zm11.7966 2.79h3.078v-12.366h-3.078zm15.661 0h3.456l-4.896-12.366h-3.456l-4.896 12.366h3.456l.756-1.89h4.824zm-4.662-4.212 1.494-3.798 1.494 3.798z" fill="#5c2cff"/><path d="m30.44 220.664h3.078v-12.366h-3.078zm6.859 0h3.078v-7.308l5.4 7.308h3.06v-12.366h-3.06v7.308l-5.4-7.308h-3.078zm15.3316 0h4.518c4.248 0 7.254-2.574 7.254-6.192s-3.006-6.174-7.254-6.174h-4.518zm3.078-2.79v-6.786h1.908c2.124 0 3.618 1.404 3.618 3.384s-1.494 3.402-3.618 3.402zm11.7966 2.79h3.078v-12.366h-3.078zm15.661 0h3.456l-4.896-12.366h-3.456l-4.896 12.366h3.456l.756-1.89h4.824zm-4.662-4.212 1.494-3.798 1.494 3.798z" fill="#000" fill-opacity=".2"/><path d="m258.912 220.88c3.384 0 5.742-2.322 5.742-5.634v-6.948h-3.06v6.804c0 1.746-1.116 2.988-2.682 2.988-1.548 0-2.664-1.242-2.664-2.988v-6.804h-3.078v6.948c0 3.312 2.376 5.634 5.742 5.634zm9.262-.216h3.078v-3.366l1.404-1.53 3.492 4.896h3.708l-5.058-7.11 4.698-5.256h-3.672l-4.572 5.274v-5.274h-3.078z" fill="#5c2cff"/><path d="m258.912 220.88c3.384 0 5.742-2.322 5.742-5.634v-6.948h-3.06v6.804c0 1.746-1.116 2.988-2.682 2.988-1.548 0-2.664-1.242-2.664-2.988v-6.804h-3.078v6.948c0 3.312 2.376 5.634 5.742 5.634zm9.262-.216h3.078v-3.366l1.404-1.53 3.492 4.896h3.708l-5.058-7.11 4.698-5.256h-3.672l-4.572 5.274v-5.274h-3.078z" fill="#000" fill-opacity=".2"/><path d="m48.5 105.807v-102.00036" stroke="#000" stroke-dasharray="2 2"/><path d="m193.5 105.807v-102.00036" stroke="#000" stroke-dasharray="2 2"/><path d="m353.5 105.807v-102.00036" stroke="#000" stroke-dasharray="2 2"/><path d="m0-.5h100" stroke="#000" stroke-dasharray="2 2" transform="matrix(.00000003 1 1 -.00000005 133 166.807)"/><path d="m0-.5h100" stroke="#000" stroke-dasharray="2 2" transform="matrix(.00000003 1 1 -.00000005 235 166.807)"/><g fill="#8cedc8"><ellipse cx="48.0791" cy="105.878" rx="7.07907" ry="7.07143" transform="matrix(-1 0 0 -1 96.1582 211.756)"/><ellipse cx="194.079" cy="105.878" rx="7.07907" ry="7.07143" transform="matrix(-1 0 0 -1 388.158 211.756)"/><ellipse cx="354.079" cy="105.579" rx="7.07907" ry="7.07143" transform="matrix(-1 0 0 -1 708.158 211.158)"/><ellipse cx="194.079" cy="105.878" rx="7.07907" ry="7.07143" transform="matrix(-1 0 0 -1 388.158 211.756)"/><ellipse rx="7.07907" ry="7.07143" transform="matrix(-1 0 0 1 133.079 166.878)"/><ellipse rx="7.07907" ry="7.07143" transform="matrix(-1 0 0 1 235.079 166.878)"/></g></svg>