<svg width="1232" height="678" fill="none" xmlns="http://www.w3.org/2000/svg"><path d="M375.5 667.584V656.91h-1.818v12.366h8.37v-1.692H375.5zm14.395 1.908c3.492 0 6.408-2.934 6.408-6.408s-2.916-6.39-6.408-6.39c-3.456 0-6.408 2.916-6.408 6.39 0 3.474 2.952 6.408 6.408 6.408zm0-1.674c-2.466 0-4.554-2.16-4.554-4.734 0-2.556 2.088-4.716 4.554-4.716s4.554 2.16 4.554 4.716c0 2.574-2.088 4.734-4.554 4.734zm14.497-3.618h3.33v2.592a5.35 5.35 0 0 1-3.078 1.026c-2.484 0-4.572-2.16-4.572-4.734 0-2.556 2.088-4.716 4.572-4.716 1.278 0 2.754.576 3.6 1.494l1.278-1.224c-1.188-1.206-3.114-1.944-4.878-1.944-3.474 0-6.426 2.916-6.426 6.39 0 3.474 2.952 6.408 6.426 6.408 1.764 0 3.69-.756 4.878-1.944v-4.932h-5.13v1.584zm17.459 5.076h2.016l-5.31-12.366h-2.016l-5.31 12.366h2.016l1.098-2.574h6.408l1.098 2.574zm-6.822-4.158l2.52-5.868 2.52 5.868h-5.04zm20.915-4.176c0-2.358-1.998-4.032-4.59-4.032h-5.202v12.366h1.818v-4.302h2.358l3.024 4.302h2.088l-3.078-4.392c2.088-.36 3.582-1.89 3.582-3.942zm-7.974-2.34h3.114c1.782 0 3.006.882 3.006 2.34 0 1.458-1.224 2.34-3.006 2.34h-3.114v-4.68zm10.698 10.674h1.818V656.91h-1.818v12.366zm8.202 0h1.818v-10.674h4.05v-1.692h-9.936v1.692h4.068v10.674zm16.748-12.366v5.22h-6.732v-5.22h-1.818v12.366h1.818v-5.454h6.732v5.454h1.818V656.91h-1.818zm5.495 12.366h1.818v-8.802l4.338 8.082 4.338-8.082v8.802h1.818V656.91h-1.818l-4.338 8.082-4.338-8.082h-1.818v12.366zm15.979 0h1.818V656.91h-1.818v12.366zm11.01.216c1.764 0 3.402-.756 4.572-1.944l-1.278-1.224c-.846.9-2.016 1.494-3.294 1.494-2.466 0-4.554-2.16-4.554-4.734 0-2.556 2.088-4.716 4.554-4.716 1.278 0 2.448.594 3.294 1.494l1.278-1.224a6.38 6.38 0 0 0-4.572-1.944c-3.456 0-6.408 2.916-6.408 6.39 0 3.474 2.952 6.408 6.408 6.408zm17.508 0c1.764 0 3.402-.756 4.572-1.944l-1.278-1.224c-.846.9-2.016 1.494-3.294 1.494-2.466 0-4.554-2.16-4.554-4.734 0-2.556 2.088-4.716 4.554-4.716 1.278 0 2.448.594 3.294 1.494l1.278-1.224a6.38 6.38 0 0 0-4.572-1.944c-3.456 0-6.408 2.916-6.408 6.39 0 3.474 2.952 6.408 6.408 6.408zm12.568 0c3.492 0 6.408-2.934 6.408-6.408s-2.916-6.39-6.408-6.39c-3.456 0-6.408 2.916-6.408 6.39 0 3.474 2.952 6.408 6.408 6.408zm0-1.674c-2.466 0-4.554-2.16-4.554-4.734 0-2.556 2.088-4.716 4.554-4.716s4.554 2.16 4.554 4.716c0 2.574-2.088 4.734-4.554 4.734zm9.205 1.458h1.818v-8.802l4.338 8.082 4.338-8.082v8.802h1.818V656.91h-1.818l-4.338 8.082-4.338-8.082h-1.818v12.366zm15.978 0h1.818v-8.802l4.338 8.082 4.338-8.082v8.802h1.818V656.91h-1.818l-4.338 8.082-4.338-8.082h-1.818v12.366zm15.979 0h1.818V656.91h-1.818v12.366zm8.202 0h1.818v-10.674h4.05v-1.692h-9.936v1.692h4.068v10.674zm12.212.198c2.916 0 4.5-1.584 4.5-3.672 0-2.214-1.71-3.042-4.176-3.618-2.034-.486-3.096-.882-3.096-2.034 0-.99.972-1.854 2.358-1.854 1.26 0 2.502.558 3.546 1.512l1.044-1.368c-1.188-1.062-2.61-1.746-4.5-1.746-2.502 0-4.302 1.548-4.302 3.618 0 2.232 1.674 2.988 4.194 3.582 2.07.468 3.096.918 3.096 2.088 0 .99-.882 1.89-2.592 1.89-1.674 0-2.97-.684-4.068-1.728l-1.08 1.35c1.296 1.26 3.006 1.98 5.076 1.98zM29.308 433.109H18.634v1.818H31v-8.37h-1.692v6.552zm1.908-14.396c0-3.492-2.934-6.408-6.408-6.408s-6.39 2.916-6.39 6.408c0 3.456 2.916 6.408 6.39 6.408 3.474 0 6.408-2.952 6.408-6.408zm-1.674 0c0 2.466-2.16 4.554-4.734 4.554-2.556 0-4.716-2.088-4.716-4.554s2.16-4.554 4.716-4.554c2.574 0 4.734 2.088 4.734 4.554zm-3.618-14.496v-3.33h2.592a5.35 5.35 0 0 1 1.026 3.078c0 2.484-2.16 4.572-4.734 4.572-2.556 0-4.716-2.088-4.716-4.572 0-1.278.576-2.754 1.494-3.6l-1.224-1.278c-1.206 1.188-1.944 3.114-1.944 4.878 0 3.474 2.916 6.426 6.39 6.426 3.474 0 6.408-2.952 6.408-6.426 0-1.764-.756-3.69-1.944-4.878H24.34v5.13h1.584zM31 386.757v-2.016l-12.366 5.31v2.016L31 397.377v-2.016l-2.574-1.098v-6.408L31 386.757zm-4.158 6.822l-5.868-2.52 5.868-2.52v5.04zm-4.176-20.915c-2.358 0-4.032 1.998-4.032 4.59v5.202H31v-1.818h-4.302v-2.358L31 375.256v-2.088l-4.392 3.078c-.36-2.088-1.89-3.582-3.942-3.582zm-2.34 7.974v-3.114c0-1.782.882-3.006 2.34-3.006 1.458 0 2.34 1.224 2.34 3.006v3.114h-4.68zM31 369.94v-1.818H18.634v1.818H31zm0-8.202v-1.818H20.326v-4.05h-1.692v9.936h1.692v-4.068H31zM18.634 344.99h5.22v6.732h-5.22v1.818H31v-1.818h-5.454v-6.732H31v-1.818H18.634v1.818zM31 339.495v-1.818h-8.802l8.082-4.338-8.082-4.338H31v-1.818H18.634v1.818l8.082 4.338-8.082 4.338v1.818H31zm0-15.978v-1.818H18.634v1.818H31zm.216-11.011c0-1.764-.756-3.402-1.944-4.572l-1.224 1.278c.9.846 1.494 2.016 1.494 3.294 0 2.466-2.16 4.554-4.734 4.554-2.556 0-4.716-2.088-4.716-4.554 0-1.278.594-2.448 1.494-3.294l-1.224-1.278a6.38 6.38 0 0 0-1.944 4.572c0 3.456 2.916 6.408 6.39 6.408 3.474 0 6.408-2.952 6.408-6.408zM31 300.524v-1.818h-4.302v-3.384c0-2.592-1.674-4.59-4.032-4.59s-4.032 1.998-4.032 4.59v5.202H31zm-5.994-1.818h-4.68v-3.114c0-1.782.882-3.006 2.34-3.006 1.458 0 2.34 1.224 2.34 3.006v3.114zm-2.34-20.366c-2.358 0-4.032 1.998-4.032 4.59v5.202H31v-1.818h-4.302v-2.358L31 280.932v-2.088l-4.392 3.078c-.36-2.088-1.89-3.582-3.942-3.582zm-2.34 7.974V283.2c0-1.782.882-3.006 2.34-3.006 1.458 0 2.34 1.224 2.34 3.006v3.114h-4.68zm10.872-14.712c0-2.916-1.584-4.5-3.672-4.5-2.214 0-3.042 1.71-3.618 4.176-.486 2.034-.882 3.096-2.034 3.096-.99 0-1.854-.972-1.854-2.358 0-1.26.558-2.502 1.512-3.546l-1.368-1.044c-1.062 1.188-1.746 2.61-1.746 4.5 0 2.502 1.548 4.302 3.618 4.302 2.232 0 2.988-1.674 3.582-4.194.468-2.07.918-3.096 2.088-3.096.99 0 1.89.882 1.89 2.592 0 1.674-.684 2.97-1.728 4.068l1.35 1.08c1.26-1.296 1.98-3.006 1.98-5.076zm-7.002-19.897v3.366h-3.42v1.656h3.42v3.384h1.602v-3.384h3.384v-1.656h-3.384v-3.366h-1.602zM31 243.782v-1.818H18.634v1.818H31zm.198-9.498c0-2.916-1.584-4.5-3.672-4.5-2.214 0-3.042 1.71-3.618 4.176-.486 2.034-.882 3.096-2.034 3.096-.99 0-1.854-.972-1.854-2.358 0-1.26.558-2.502 1.512-3.546l-1.368-1.044c-1.062 1.188-1.746 2.61-1.746 4.5 0 2.502 1.548 4.302 3.618 4.302 2.232 0 2.988-1.674 3.582-4.194.468-2.07.918-3.096 2.088-3.096.99 0 1.89.882 1.89 2.592 0 1.674-.684 2.97-1.728 4.068l1.35 1.08c1.26-1.296 1.98-3.006 1.98-5.076zm0-11.25c0-2.916-1.584-4.5-3.672-4.5-2.214 0-3.042 1.71-3.618 4.176-.486 2.034-.882 3.096-2.034 3.096-.99 0-1.854-.972-1.854-2.358 0-1.26.558-2.502 1.512-3.546l-1.368-1.044c-1.062 1.188-1.746 2.61-1.746 4.5 0 2.502 1.548 4.302 3.618 4.302 2.232 0 2.988-1.674 3.582-4.194.468-2.07.918-3.096 2.088-3.096.99 0 1.89.882 1.89 2.592 0 1.674-.684 2.97-1.728 4.068l1.35 1.08c1.26-1.296 1.98-3.006 1.98-5.076zm.018-12.24c0-3.096-2.25-5.31-5.418-5.31h-7.164v1.836h7.128c2.214 0 3.798 1.44 3.798 3.474 0 2.052-1.584 3.492-3.798 3.492h-7.128v1.818h7.164c3.168 0 5.418-2.196 5.418-5.31zm-10.89-17.744h-1.692v9.09H31v-9.09h-1.692v7.254h-3.762v-6.552h-1.692v6.552h-3.528v-7.254zm10.872-6.86c0-2.916-1.584-4.5-3.672-4.5-2.214 0-3.042 1.71-3.618 4.176-.486 2.034-.882 3.096-2.034 3.096-.99 0-1.854-.972-1.854-2.358 0-1.26.558-2.502 1.512-3.546l-1.368-1.044c-1.062 1.188-1.746 2.61-1.746 4.5 0 2.502 1.548 4.302 3.618 4.302 2.232 0 2.988-1.674 3.582-4.194.468-2.07.918-3.096 2.088-3.096.99 0 1.89.882 1.89 2.592 0 1.674-.684 2.97-1.728 4.068l1.35 1.08c1.26-1.296 1.98-3.006 1.98-5.076z" fill="#000" fill-opacity=".7"/><g clip-path="url(#clip0_2099_6787)"><path d="M151.987 13.225V609.95m59.598-596.725V609.95m43.344-596.725V609.95m34.314-596.725V609.95M392.185 13.225V609.95M496.933 13.225V609.95m61.404-596.725V609.95m43.345-596.725V609.95M634.19 13.225V609.95M738.938 13.225V609.95M843.686 13.225V609.95M88.778 577.401H878M88.778 532.195H878M88.778 499.646H878M88.778 474.331H878M88.778 396.575H878M88.778 318.82H878M88.778 271.806H878M88.778 239.257H878M88.778 215.75H878M88.778 136.186H878M88.778 58.431H878M88.778 13.225H878" stroke="#000" stroke-opacity=".4" stroke-miterlimit="10"/><path d="M842.891 63.331a56.104 56.104 0 0 1-9.435 31.144 55.997 55.997 0 0 1-25.126 20.645 55.918 55.918 0 0 1-32.347 3.19 55.964 55.964 0 0 1-28.666-15.341 56.074 56.074 0 0 1-15.322-28.702 56.119 56.119 0 0 1 3.186-32.387 56.037 56.037 0 0 1 20.62-25.158 55.936 55.936 0 0 1 31.104-9.447 55.949 55.949 0 0 1 39.588 16.419 56.09 56.09 0 0 1 16.398 39.637z" fill="#5C2CFF"/><path d="M842.891 63.331a56.104 56.104 0 0 1-9.435 31.144 55.997 55.997 0 0 1-25.126 20.645 55.918 55.918 0 0 1-32.347 3.19 55.964 55.964 0 0 1-28.666-15.341 56.074 56.074 0 0 1-15.322-28.702 56.119 56.119 0 0 1 3.186-32.387 56.037 56.037 0 0 1 20.62-25.158 55.936 55.936 0 0 1 31.104-9.447 55.949 55.949 0 0 1 39.588 16.419 56.09 56.09 0 0 1 16.398 39.637z" fill="#000" fill-opacity=".2"/><path d="M558.536 278.134a34.911 34.911 0 0 1-5.871 19.379 34.847 34.847 0 0 1-15.635 12.847 34.796 34.796 0 0 1-20.128 1.985 34.827 34.827 0 0 1-17.838-9.546 34.89 34.89 0 0 1-9.534-17.86 34.928 34.928 0 0 1 1.982-20.153 34.875 34.875 0 0 1 12.831-15.655 34.816 34.816 0 0 1 19.355-5.878c9.24 0 18.101 3.675 24.634 10.216a34.902 34.902 0 0 1 10.204 24.665z" fill="#DC3912" fill-opacity=".8"/><path d="M370.062 323.667a34.908 34.908 0 0 1-5.877 19.386 34.836 34.836 0 0 1-15.646 12.846 34.795 34.795 0 0 1-20.138 1.973 34.829 34.829 0 0 1-17.837-9.566 34.92 34.92 0 0 1-7.505-38.038 34.866 34.866 0 0 1 12.863-15.639 34.809 34.809 0 0 1 19.374-5.844 34.815 34.815 0 0 1 24.587 10.242 34.905 34.905 0 0 1 10.179 24.64z" fill="#F90" fill-opacity=".8"/><path d="M464.425 360.031a30.878 30.878 0 0 1-5.192 17.138 30.824 30.824 0 0 1-13.828 11.362 30.774 30.774 0 0 1-33.576-6.687 30.862 30.862 0 0 1-8.433-15.795 30.893 30.893 0 0 1 1.754-17.824 30.834 30.834 0 0 1 11.348-13.844 30.777 30.777 0 0 1 38.903 3.836 30.869 30.869 0 0 1 9.024 21.814z" fill="#109618" fill-opacity=".8"/><path d="M396.845 333.684c0 6.1-1.807 12.063-5.19 17.135a30.821 30.821 0 0 1-13.822 11.362 30.777 30.777 0 0 1-33.572-6.671 30.877 30.877 0 0 1-6.702-33.606 30.835 30.835 0 0 1 11.332-13.852 30.774 30.774 0 0 1 17.107-5.217 30.772 30.772 0 0 1 21.815 9.017 30.85 30.85 0 0 1 9.032 21.832z" fill="#909" fill-opacity=".8"/><path d="M260.78 383.158a29.74 29.74 0 0 1-5 16.506 29.677 29.677 0 0 1-13.317 10.942 29.638 29.638 0 0 1-32.337-6.44 29.74 29.74 0 0 1-6.432-32.377 29.708 29.708 0 0 1 10.928-13.334 29.653 29.653 0 0 1 16.486-5.007 29.65 29.65 0 0 1 20.981 8.702 29.727 29.727 0 0 1 8.691 21.008z" fill="#0099C6" fill-opacity=".8"/><path d="M165.532 407.443a28.512 28.512 0 0 1-4.794 15.823 28.459 28.459 0 0 1-12.766 10.489 28.405 28.405 0 0 1-16.434 1.621 28.434 28.434 0 0 1-14.564-7.795 28.493 28.493 0 0 1-7.785-14.582 28.517 28.517 0 0 1 1.619-16.455 28.473 28.473 0 0 1 10.476-12.781 28.415 28.415 0 0 1 15.803-4.8 28.444 28.444 0 0 1 20.108 8.347 28.514 28.514 0 0 1 8.337 20.133z" fill="#D47" fill-opacity=".8"/><path d="M232.823 414.17a28.507 28.507 0 0 1-4.793 15.822 28.454 28.454 0 0 1-12.766 10.49 28.415 28.415 0 0 1-16.434 1.62 28.435 28.435 0 0 1-14.565-7.794 28.516 28.516 0 0 1-6.166-31.037 28.477 28.477 0 0 1 10.477-12.782 28.423 28.423 0 0 1 15.803-4.8 28.448 28.448 0 0 1 20.108 8.347 28.516 28.516 0 0 1 8.336 20.134z" fill="#6A0" fill-opacity=".8"/><path d="M206.022 435.706a27.15 27.15 0 0 1-4.565 15.069 27.097 27.097 0 0 1-12.158 9.99 27.063 27.063 0 0 1-29.522-5.88 27.154 27.154 0 0 1-5.873-29.559 27.126 27.126 0 0 1 9.978-12.173 27.068 27.068 0 0 1 34.206 3.373 27.143 27.143 0 0 1 7.934 19.18z" fill="#B82E2E" fill-opacity=".8"/><path d="M459.603 364.533a27.15 27.15 0 0 1-4.565 15.069 27.097 27.097 0 0 1-12.158 9.99 27.063 27.063 0 0 1-29.522-5.879 27.154 27.154 0 0 1-5.873-29.56 27.126 27.126 0 0 1 9.978-12.173 27.068 27.068 0 0 1 34.206 3.374 27.14 27.14 0 0 1 7.934 19.179z" fill="#316395" fill-opacity=".8"/><path d="M712.751 359.181a25.78 25.78 0 0 1-4.343 14.301 25.721 25.721 0 0 1-11.546 9.475 25.7 25.7 0 0 1-28.02-5.593 25.778 25.778 0 0 1-5.567-28.059 25.74 25.74 0 0 1 9.472-11.554 25.701 25.701 0 0 1 24.132-2.376 25.724 25.724 0 0 1 13.919 13.946 25.775 25.775 0 0 1 1.953 9.86z" fill="#949" fill-opacity=".8"/><path d="M451.278 329.742c0 5.095-1.51 10.074-4.337 14.31a25.727 25.727 0 0 1-11.548 9.483 25.682 25.682 0 0 1-14.864 1.459 25.703 25.703 0 0 1-13.167-7.057 25.767 25.767 0 0 1-5.551-28.074 25.741 25.741 0 0 1 9.487-11.548 25.697 25.697 0 0 1 14.298-4.322 25.72 25.72 0 0 1 18.157 7.56 25.785 25.785 0 0 1 7.525 18.189z" fill="#2A9" fill-opacity=".8"/><path d="M338.348 400.337a24.21 24.21 0 0 1-4.063 13.446 24.178 24.178 0 0 1-10.841 8.919 24.133 24.133 0 0 1-13.963 1.384 24.154 24.154 0 0 1-12.378-6.617 24.224 24.224 0 0 1-5.246-26.369 24.192 24.192 0 0 1 8.9-10.861 24.146 24.146 0 0 1 13.427-4.079 24.15 24.15 0 0 1 17.08 7.08 24.213 24.213 0 0 1 7.084 17.097z" fill="#AA1" fill-opacity=".8"/><g opacity=".6"><path d="M149.585 508.488a24.2 24.2 0 0 1-4.087 13.422 24.16 24.16 0 0 1-10.844 8.889 24.12 24.12 0 0 1-26.302-5.264 24.201 24.201 0 0 1-5.218-26.343 24.162 24.162 0 0 1 8.893-10.844 24.124 24.124 0 0 1 13.411-4.072c3.174.002 6.316.63 9.246 1.848a24.182 24.182 0 0 1 13.068 13.104 24.234 24.234 0 0 1 1.833 9.26z" fill="#5C2CFF"/><path d="M149.585 508.488a24.2 24.2 0 0 1-4.087 13.422 24.16 24.16 0 0 1-10.844 8.889 24.12 24.12 0 0 1-26.302-5.264 24.201 24.201 0 0 1-5.218-26.343 24.162 24.162 0 0 1 8.893-10.844 24.124 24.124 0 0 1 13.411-4.072c3.174.002 6.316.63 9.246 1.848a24.182 24.182 0 0 1 13.068 13.104 24.234 24.234 0 0 1 1.833 9.26z" fill="#000" fill-opacity=".2"/></g><path d="M147.472 572.609a10.843 10.843 0 0 1-6.69 10.024 10.834 10.834 0 0 1-14.774-7.907 10.858 10.858 0 0 1 4.608-11.138 10.827 10.827 0 0 1 13.682 1.35 10.855 10.855 0 0 1 3.174 7.671z" fill="#E67300" fill-opacity=".8"/></g><path d="M145.878 626.276h1.01v-1.58h.99v-.89h-.99v-4.4h-1.2l-3.33 4.48.11.81h3.41v1.58zm-2.41-2.47l2.41-3.25v3.25h-2.41zm7.694 2.59c1.71 0 2.92-1.47 2.92-3.56 0-2.08-1.21-3.55-2.92-3.55-1.73 0-2.94 1.47-2.94 3.55 0 2.09 1.21 3.56 2.94 3.56zm0-.93c-1.12 0-1.91-1.09-1.91-2.63 0-1.54.79-2.62 1.91-2.62 1.11 0 1.89 1.08 1.89 2.62s-.78 2.63-1.89 2.63zm6.483.93c1.71 0 2.92-1.47 2.92-3.56 0-2.08-1.21-3.55-2.92-3.55-1.73 0-2.94 1.47-2.94 3.55 0 2.09 1.21 3.56 2.94 3.56zm0-.93c-1.12 0-1.91-1.09-1.91-2.63 0-1.54.79-2.62 1.91-2.62 1.11 0 1.89 1.08 1.89 2.62s-.78 2.63-1.89 2.63zm-91.894-44.19h1.01v-1.58h.99v-.89h-.99v-4.4h-1.2l-3.33 4.48.11.81h3.41v1.58zm-2.41-2.47l2.41-3.25v3.25h-2.41zm7.694 2.59c1.71 0 2.92-1.47 2.92-3.56 0-2.08-1.21-3.55-2.92-3.55-1.73 0-2.94 1.47-2.94 3.55 0 2.09 1.21 3.56 2.94 3.56zm0-.93c-1.12 0-1.91-1.09-1.91-2.63 0-1.54.79-2.62 1.91-2.62 1.11 0 1.89 1.08 1.89 2.62s-.78 2.63-1.89 2.63zm6.483.93c1.71 0 2.92-1.47 2.92-3.56 0-2.08-1.21-3.55-2.92-3.55-1.73 0-2.94 1.47-2.94 3.55 0 2.09 1.21 3.56 2.94 3.56zm0-.93c-1.12 0-1.91-1.09-1.91-2.63 0-1.54.79-2.62 1.91-2.62 1.11 0 1.89 1.08 1.89 2.62s-.78 2.63-1.89 2.63zm127.953 41.47c-.75 0-1.44.33-1.86.9.04-1.51.82-2.64 1.86-2.64.63 0 1.07.27 1.49.66l.52-.78c-.52-.47-1.15-.79-2-.79-1.67 0-2.9 1.58-2.9 3.66 0 1.96.8 3.45 2.71 3.45 1.45 0 2.49-.99 2.49-2.31 0-1.36-1.05-2.15-2.31-2.15zm-.21 3.6c-.91 0-1.4-.66-1.57-1.65.19-.66.79-1.1 1.55-1.1.83 0 1.51.51 1.51 1.35 0 .69-.56 1.4-1.49 1.4zm5.989.86c1.71 0 2.92-1.47 2.92-3.56 0-2.08-1.21-3.55-2.92-3.55-1.73 0-2.94 1.47-2.94 3.55 0 2.09 1.21 3.56 2.94 3.56zm0-.93c-1.12 0-1.91-1.09-1.91-2.63 0-1.54.79-2.62 1.91-2.62 1.11 0 1.89 1.08 1.89 2.62s-.78 2.63-1.89 2.63zm6.483.93c1.71 0 2.92-1.47 2.92-3.56 0-2.08-1.21-3.55-2.92-3.55-1.73 0-2.94 1.47-2.94 3.55 0 2.09 1.21 3.56 2.94 3.56zm0-.93c-1.12 0-1.91-1.09-1.91-2.63 0-1.54.79-2.62 1.91-2.62 1.11 0 1.89 1.08 1.89 2.62s-.78 2.63-1.89 2.63zm30.383.93c1.44 0 2.59-.74 2.59-1.93 0-.84-.63-1.45-1.45-1.74.7-.27 1.28-.78 1.28-1.6 0-1.14-1.14-1.84-2.42-1.84-1.24 0-2.41.67-2.41 1.84 0 .78.53 1.3 1.28 1.6-.82.28-1.46.89-1.46 1.74 0 1.18 1.14 1.93 2.59 1.93zm0-4.05c-.61-.04-1.4-.4-1.4-1.11 0-.61.61-1.06 1.4-1.06.79 0 1.41.45 1.41 1.06 0 .69-.78 1.07-1.41 1.11zm0 3.16c-.88 0-1.57-.46-1.57-1.13 0-.73.9-1.17 1.57-1.19.68.02 1.57.46 1.57 1.19 0 .67-.69 1.13-1.57 1.13zm6.149.89c1.71 0 2.92-1.47 2.92-3.56 0-2.08-1.21-3.55-2.92-3.55-1.73 0-2.94 1.47-2.94 3.55 0 2.09 1.21 3.56 2.94 3.56zm0-.93c-1.12 0-1.91-1.09-1.91-2.63 0-1.54.79-2.62 1.91-2.62 1.11 0 1.89 1.08 1.89 2.62s-.78 2.63-1.89 2.63zm6.482.93c1.71 0 2.92-1.47 2.92-3.56 0-2.08-1.21-3.55-2.92-3.55-1.73 0-2.94 1.47-2.94 3.55 0 2.09 1.21 3.56 2.94 3.56zm0-.93c-1.12 0-1.91-1.09-1.91-2.63 0-1.54.79-2.62 1.91-2.62 1.11 0 1.89 1.08 1.89 2.62s-.78 2.63-1.89 2.63zm19.048.81h1.01v-6.87h-.81l-1.81 1.23.42.73 1.19-.76v5.67zm4.989.12c1.71 0 2.92-1.47 2.92-3.56 0-2.08-1.21-3.55-2.92-3.55-1.73 0-2.94 1.47-2.94 3.55 0 2.09 1.21 3.56 2.94 3.56zm0-.93c-1.12 0-1.91-1.09-1.91-2.63 0-1.54.79-2.62 1.91-2.62 1.11 0 1.89 1.08 1.89 2.62s-.78 2.63-1.89 2.63zm6.482.93c1.71 0 2.92-1.47 2.92-3.56 0-2.08-1.21-3.55-2.92-3.55-1.73 0-2.94 1.47-2.94 3.55 0 2.09 1.21 3.56 2.94 3.56zm0-.93c-1.12 0-1.91-1.09-1.91-2.63 0-1.54.79-2.62 1.91-2.62 1.11 0 1.89 1.08 1.89 2.62s-.78 2.63-1.89 2.63zm6.482.93c1.71 0 2.92-1.47 2.92-3.56 0-2.08-1.21-3.55-2.92-3.55-1.73 0-2.94 1.47-2.94 3.55 0 2.09 1.21 3.56 2.94 3.56zm0-.93c-1.12 0-1.91-1.09-1.91-2.63 0-1.54.79-2.62 1.91-2.62 1.11 0 1.89 1.08 1.89 2.62s-.78 2.63-1.89 2.63zm80.591.81h4.89v-.94h-3.29l1.61-1.36c1.18-.96 1.62-1.69 1.62-2.61 0-1.25-1.02-2.08-2.3-2.08-1.09 0-1.9.5-2.5 1.33l.68.6c.48-.62 1.03-1.02 1.78-1.02.68 0 1.3.44 1.3 1.19 0 .62-.35 1.21-1.27 1.98l-2.52 2.08v.83zm8.441.12c1.71 0 2.92-1.47 2.92-3.56 0-2.08-1.21-3.55-2.92-3.55-1.73 0-2.94 1.47-2.94 3.55 0 2.09 1.21 3.56 2.94 3.56zm0-.93c-1.12 0-1.91-1.09-1.91-2.63 0-1.54.79-2.62 1.91-2.62 1.11 0 1.89 1.08 1.89 2.62s-.78 2.63-1.89 2.63zm6.482.93c1.71 0 2.92-1.47 2.92-3.56 0-2.08-1.21-3.55-2.92-3.55-1.73 0-2.94 1.47-2.94 3.55 0 2.09 1.21 3.56 2.94 3.56zm0-.93c-1.12 0-1.91-1.09-1.91-2.63 0-1.54.79-2.62 1.91-2.62 1.11 0 1.89 1.08 1.89 2.62s-.78 2.63-1.89 2.63zm6.483.93c1.71 0 2.92-1.47 2.92-3.56 0-2.08-1.21-3.55-2.92-3.55-1.73 0-2.94 1.47-2.94 3.55 0 2.09 1.21 3.56 2.94 3.56zm0-.93c-1.12 0-1.91-1.09-1.91-2.63 0-1.54.79-2.62 1.91-2.62 1.11 0 1.89 1.08 1.89 2.62s-.78 2.63-1.89 2.63zm87.892.81h1.01v-1.58h.99v-.89h-.99v-4.4h-1.2l-3.33 4.48.11.81h3.41v1.58zm-2.41-2.47l2.41-3.25v3.25h-2.41zm7.694 2.59c1.71 0 2.92-1.47 2.92-3.56 0-2.08-1.21-3.55-2.92-3.55-1.73 0-2.94 1.47-2.94 3.55 0 2.09 1.21 3.56 2.94 3.56zm0-.93c-1.12 0-1.91-1.09-1.91-2.63 0-1.54.79-2.62 1.91-2.62 1.11 0 1.89 1.08 1.89 2.62s-.78 2.63-1.89 2.63zm6.483.93c1.71 0 2.92-1.47 2.92-3.56 0-2.08-1.21-3.55-2.92-3.55-1.73 0-2.94 1.47-2.94 3.55 0 2.09 1.21 3.56 2.94 3.56zm0-.93c-1.12 0-1.91-1.09-1.91-2.63 0-1.54.79-2.62 1.91-2.62 1.11 0 1.89 1.08 1.89 2.62s-.78 2.63-1.89 2.63zm6.482.93c1.71 0 2.92-1.47 2.92-3.56 0-2.08-1.21-3.55-2.92-3.55-1.73 0-2.94 1.47-2.94 3.55 0 2.09 1.21 3.56 2.94 3.56zm0-.93c-1.12 0-1.91-1.09-1.91-2.63 0-1.54.79-2.62 1.91-2.62 1.11 0 1.89 1.08 1.89 2.62s-.78 2.63-1.89 2.63zm42.343-3.53c-.75 0-1.44.33-1.86.9.04-1.51.82-2.64 1.86-2.64.63 0 1.07.27 1.49.66l.52-.78c-.52-.47-1.15-.79-2-.79-1.67 0-2.9 1.58-2.9 3.66 0 1.96.8 3.45 2.71 3.45 1.45 0 2.49-.99 2.49-2.31 0-1.36-1.05-2.15-2.31-2.15zm-.21 3.6c-.91 0-1.4-.66-1.57-1.65.19-.66.79-1.1 1.55-1.1.83 0 1.51.51 1.51 1.35 0 .69-.56 1.4-1.49 1.4zm5.99.86c1.71 0 2.92-1.47 2.92-3.56 0-2.08-1.21-3.55-2.92-3.55-1.73 0-2.94 1.47-2.94 3.55 0 2.09 1.21 3.56 2.94 3.56zm0-.93c-1.12 0-1.91-1.09-1.91-2.63 0-1.54.79-2.62 1.91-2.62 1.11 0 1.89 1.08 1.89 2.62s-.78 2.63-1.89 2.63zm6.482.93c1.71 0 2.92-1.47 2.92-3.56 0-2.08-1.21-3.55-2.92-3.55-1.73 0-2.94 1.47-2.94 3.55 0 2.09 1.21 3.56 2.94 3.56zm0-.93c-1.12 0-1.91-1.09-1.91-2.63 0-1.54.79-2.62 1.91-2.62 1.11 0 1.89 1.08 1.89 2.62s-.78 2.63-1.89 2.63zm6.483.93c1.71 0 2.92-1.47 2.92-3.56 0-2.08-1.21-3.55-2.92-3.55-1.73 0-2.94 1.47-2.94 3.55 0 2.09 1.21 3.56 2.94 3.56zm0-.93c-1.12 0-1.91-1.09-1.91-2.63 0-1.54.79-2.62 1.91-2.62 1.11 0 1.89 1.08 1.89 2.62s-.78 2.63-1.89 2.63zm24.901.93c1.44 0 2.59-.74 2.59-1.93 0-.84-.63-1.45-1.45-1.74.7-.27 1.28-.78 1.28-1.6 0-1.14-1.14-1.84-2.42-1.84-1.24 0-2.41.67-2.41 1.84 0 .78.53 1.3 1.28 1.6-.82.28-1.46.89-1.46 1.74 0 1.18 1.14 1.93 2.59 1.93zm0-4.05c-.61-.04-1.4-.4-1.4-1.11 0-.61.61-1.06 1.4-1.06.79 0 1.41.45 1.41 1.06 0 .69-.78 1.07-1.41 1.11zm0 3.16c-.88 0-1.57-.46-1.57-1.13 0-.73.9-1.17 1.57-1.19.68.02 1.57.46 1.57 1.19 0 .67-.69 1.13-1.57 1.13zm6.149.89c1.71 0 2.92-1.47 2.92-3.56 0-2.08-1.21-3.55-2.92-3.55-1.73 0-2.94 1.47-2.94 3.55 0 2.09 1.21 3.56 2.94 3.56zm0-.93c-1.12 0-1.91-1.09-1.91-2.63 0-1.54.79-2.62 1.91-2.62 1.11 0 1.89 1.08 1.89 2.62s-.78 2.63-1.89 2.63zm6.482.93c1.71 0 2.92-1.47 2.92-3.56 0-2.08-1.21-3.55-2.92-3.55-1.73 0-2.94 1.47-2.94 3.55 0 2.09 1.21 3.56 2.94 3.56zm0-.93c-1.12 0-1.91-1.09-1.91-2.63 0-1.54.79-2.62 1.91-2.62 1.11 0 1.89 1.08 1.89 2.62s-.78 2.63-1.89 2.63zm6.483.93c1.71 0 2.92-1.47 2.92-3.56 0-2.08-1.21-3.55-2.92-3.55-1.73 0-2.94 1.47-2.94 3.55 0 2.09 1.21 3.56 2.94 3.56zm0-.93c-1.12 0-1.91-1.09-1.91-2.63 0-1.54.79-2.62 1.91-2.62 1.11 0 1.89 1.08 1.89 2.62s-.78 2.63-1.89 2.63zm10.462.81h1.01v-6.87h-.81l-1.81 1.23.42.73 1.19-.76v5.67zm4.988.12c1.71 0 2.92-1.47 2.92-3.56 0-2.08-1.21-3.55-2.92-3.55-1.73 0-2.94 1.47-2.94 3.55 0 2.09 1.21 3.56 2.94 3.56zm0-.93c-1.12 0-1.91-1.09-1.91-2.63 0-1.54.79-2.62 1.91-2.62 1.11 0 1.89 1.08 1.89 2.62s-.78 2.63-1.89 2.63zm6.483.93c1.71 0 2.92-1.47 2.92-3.56 0-2.08-1.21-3.55-2.92-3.55-1.73 0-2.94 1.47-2.94 3.55 0 2.09 1.21 3.56 2.94 3.56zm0-.93c-1.12 0-1.91-1.09-1.91-2.63 0-1.54.79-2.62 1.91-2.62 1.11 0 1.89 1.08 1.89 2.62s-.78 2.63-1.89 2.63zm6.482.93c1.71 0 2.92-1.47 2.92-3.56 0-2.08-1.21-3.55-2.92-3.55-1.73 0-2.94 1.47-2.94 3.55 0 2.09 1.21 3.56 2.94 3.56zm0-.93c-1.12 0-1.91-1.09-1.91-2.63 0-1.54.79-2.62 1.91-2.62 1.11 0 1.89 1.08 1.89 2.62s-.78 2.63-1.89 2.63zm6.483.93c1.71 0 2.92-1.47 2.92-3.56 0-2.08-1.21-3.55-2.92-3.55-1.73 0-2.94 1.47-2.94 3.55 0 2.09 1.21 3.56 2.94 3.56zm0-.93c-1.12 0-1.91-1.09-1.91-2.63 0-1.54.79-2.62 1.91-2.62 1.11 0 1.89 1.08 1.89 2.62s-.78 2.63-1.89 2.63zm78.108.81h4.89v-.94h-3.29l1.61-1.36c1.18-.96 1.62-1.69 1.62-2.61 0-1.25-1.02-2.08-2.3-2.08-1.09 0-1.9.5-2.5 1.33l.68.6c.48-.62 1.03-1.02 1.78-1.02.68 0 1.3.44 1.3 1.19 0 .62-.35 1.21-1.27 1.98l-2.52 2.08v.83zm8.44.12c1.71 0 2.92-1.47 2.92-3.56 0-2.08-1.21-3.55-2.92-3.55-1.73 0-2.94 1.47-2.94 3.55 0 2.09 1.21 3.56 2.94 3.56zm0-.93c-1.12 0-1.91-1.09-1.91-2.63 0-1.54.79-2.62 1.91-2.62 1.11 0 1.89 1.08 1.89 2.62s-.78 2.63-1.89 2.63zm6.483.93c1.71 0 2.92-1.47 2.92-3.56 0-2.08-1.21-3.55-2.92-3.55-1.73 0-2.94 1.47-2.94 3.55 0 2.09 1.21 3.56 2.94 3.56zm0-.93c-1.12 0-1.91-1.09-1.91-2.63 0-1.54.79-2.62 1.91-2.62 1.11 0 1.89 1.08 1.89 2.62s-.78 2.63-1.89 2.63zm6.482.93c1.71 0 2.92-1.47 2.92-3.56 0-2.08-1.21-3.55-2.92-3.55-1.73 0-2.94 1.47-2.94 3.55 0 2.09 1.21 3.56 2.94 3.56zm0-.93c-1.12 0-1.91-1.09-1.91-2.63 0-1.54.79-2.62 1.91-2.62 1.11 0 1.89 1.08 1.89 2.62s-.78 2.63-1.89 2.63zm6.483.93c1.71 0 2.92-1.47 2.92-3.56 0-2.08-1.21-3.55-2.92-3.55-1.73 0-2.94 1.47-2.94 3.55 0 2.09 1.21 3.56 2.94 3.56zm0-.93c-1.12 0-1.91-1.09-1.91-2.63 0-1.54.79-2.62 1.91-2.62 1.11 0 1.89 1.08 1.89 2.62s-.78 2.63-1.89 2.63zm80.41.81h1.01v-1.58h.99v-.89h-.99v-4.4h-1.2l-3.33 4.48.11.81h3.41v1.58zm-2.41-2.47l2.41-3.25v3.25h-2.41zm7.694 2.59c1.71 0 2.92-1.47 2.92-3.56 0-2.08-1.21-3.55-2.92-3.55-1.73 0-2.94 1.47-2.94 3.55 0 2.09 1.21 3.56 2.94 3.56zm0-.93c-1.12 0-1.91-1.09-1.91-2.63 0-1.54.79-2.62 1.91-2.62 1.11 0 1.89 1.08 1.89 2.62s-.78 2.63-1.89 2.63zm6.482.93c1.71 0 2.92-1.47 2.92-3.56 0-2.08-1.21-3.55-2.92-3.55-1.73 0-2.94 1.47-2.94 3.55 0 2.09 1.21 3.56 2.94 3.56zm0-.93c-1.12 0-1.91-1.09-1.91-2.63 0-1.54.79-2.62 1.91-2.62 1.11 0 1.89 1.08 1.89 2.62s-.78 2.63-1.89 2.63zm6.483.93c1.71 0 2.92-1.47 2.92-3.56 0-2.08-1.21-3.55-2.92-3.55-1.73 0-2.94 1.47-2.94 3.55 0 2.09 1.21 3.56 2.94 3.56zm0-.93c-1.12 0-1.91-1.09-1.91-2.63 0-1.54.79-2.62 1.91-2.62 1.11 0 1.89 1.08 1.89 2.62s-.78 2.63-1.89 2.63zm6.482.93c1.71 0 2.92-1.47 2.92-3.56 0-2.08-1.21-3.55-2.92-3.55-1.73 0-2.94 1.47-2.94 3.55 0 2.09 1.21 3.56 2.94 3.56zm0-.93c-1.12 0-1.91-1.09-1.91-2.63 0-1.54.79-2.62 1.91-2.62 1.11 0 1.89 1.08 1.89 2.62s-.78 2.63-1.89 2.63zm-791.563-95.53c-.75 0-1.44.33-1.86.9.04-1.51.82-2.64 1.86-2.64.63 0 1.07.27 1.49.66l.52-.78c-.52-.47-1.15-.79-2-.79-1.67 0-2.9 1.58-2.9 3.66 0 1.96.8 3.45 2.71 3.45 1.45 0 2.49-.99 2.49-2.31 0-1.36-1.05-2.15-2.31-2.15zm-.21 3.6c-.91 0-1.4-.66-1.57-1.65.19-.66.79-1.1 1.55-1.1.83 0 1.51.51 1.51 1.35 0 .69-.56 1.4-1.49 1.4zm5.99.86c1.71 0 2.92-1.47 2.92-3.56 0-2.08-1.21-3.55-2.92-3.55-1.73 0-2.94 1.47-2.94 3.55 0 2.09 1.21 3.56 2.94 3.56zm0-.93c-1.12 0-1.91-1.09-1.91-2.63 0-1.54.79-2.62 1.91-2.62 1.11 0 1.89 1.08 1.89 2.62s-.78 2.63-1.89 2.63zm6.482.93c1.71 0 2.92-1.47 2.92-3.56 0-2.08-1.21-3.55-2.92-3.55-1.73 0-2.94 1.47-2.94 3.55 0 2.09 1.21 3.56 2.94 3.56zm0-.93c-1.12 0-1.91-1.09-1.91-2.63 0-1.54.79-2.62 1.91-2.62 1.11 0 1.89 1.08 1.89 2.62s-.78 2.63-1.89 2.63zm-12.631-31.07c1.44 0 2.59-.74 2.59-1.93 0-.84-.63-1.45-1.45-1.74.7-.27 1.28-.78 1.28-1.6 0-1.14-1.14-1.84-2.42-1.84-1.24 0-2.41.67-2.41 1.84 0 .78.53 1.3 1.28 1.6-.82.28-1.46.89-1.46 1.74 0 1.18 1.14 1.93 2.59 1.93zm0-4.05c-.61-.04-1.4-.4-1.4-1.11 0-.61.61-1.06 1.4-1.06.79 0 1.41.45 1.41 1.06 0 .69-.78 1.07-1.41 1.11zm0 3.16c-.88 0-1.57-.46-1.57-1.13 0-.73.9-1.17 1.57-1.19.68.02 1.57.46 1.57 1.19 0 .67-.69 1.13-1.57 1.13zm6.149.89c1.71 0 2.92-1.47 2.92-3.56 0-2.08-1.21-3.55-2.92-3.55-1.73 0-2.94 1.47-2.94 3.55 0 2.09 1.21 3.56 2.94 3.56zm0-.93c-1.12 0-1.91-1.09-1.91-2.63 0-1.54.79-2.62 1.91-2.62 1.11 0 1.89 1.08 1.89 2.62s-.78 2.63-1.89 2.63zm6.482.93c1.71 0 2.92-1.47 2.92-3.56 0-2.08-1.21-3.55-2.92-3.55-1.73 0-2.94 1.47-2.94 3.55 0 2.09 1.21 3.56 2.94 3.56zm0-.93c-1.12 0-1.91-1.09-1.91-2.63 0-1.54.79-2.62 1.91-2.62 1.11 0 1.89 1.08 1.89 2.62s-.78 2.63-1.89 2.63zm-17.953-22.19h1.01v-6.87h-.81l-1.81 1.23.42.73 1.19-.76v5.67zm4.988.12c1.71 0 2.92-1.47 2.92-3.56 0-2.08-1.21-3.55-2.92-3.55-1.73 0-2.94 1.47-2.94 3.55 0 2.09 1.21 3.56 2.94 3.56zm0-.93c-1.12 0-1.91-1.09-1.91-2.63 0-1.54.79-2.62 1.91-2.62 1.11 0 1.89 1.08 1.89 2.62s-.78 2.63-1.89 2.63zm6.483.93c1.71 0 2.92-1.47 2.92-3.56 0-2.08-1.21-3.55-2.92-3.55-1.73 0-2.94 1.47-2.94 3.55 0 2.09 1.21 3.56 2.94 3.56zm0-.93c-1.12 0-1.91-1.09-1.91-2.63 0-1.54.79-2.62 1.91-2.62 1.11 0 1.89 1.08 1.89 2.62s-.78 2.63-1.89 2.63zm6.482.93c1.71 0 2.92-1.47 2.92-3.56 0-2.08-1.21-3.55-2.92-3.55-1.73 0-2.94 1.47-2.94 3.55 0 2.09 1.21 3.56 2.94 3.56zm0-.93c-1.12 0-1.91-1.09-1.91-2.63 0-1.54.79-2.62 1.91-2.62 1.11 0 1.89 1.08 1.89 2.62s-.78 2.63-1.89 2.63zm-21.405-78.19h4.89v-.94h-3.29l1.61-1.36c1.18-.96 1.62-1.69 1.62-2.61 0-1.25-1.02-2.08-2.3-2.08-1.09 0-1.9.5-2.5 1.33l.68.6c.48-.62 1.03-1.02 1.78-1.02.68 0 1.3.44 1.3 1.19 0 .62-.35 1.21-1.27 1.98l-2.52 2.08v.83zm8.44.12c1.71 0 2.92-1.47 2.92-3.56 0-2.08-1.21-3.55-2.92-3.55-1.73 0-2.94 1.47-2.94 3.55 0 2.09 1.21 3.56 2.94 3.56zm0-.93c-1.12 0-1.91-1.09-1.91-2.63 0-1.54.79-2.62 1.91-2.62 1.11 0 1.89 1.08 1.89 2.62s-.78 2.63-1.89 2.63zm6.483.93c1.71 0 2.92-1.47 2.92-3.56 0-2.08-1.21-3.55-2.92-3.55-1.73 0-2.94 1.47-2.94 3.55 0 2.09 1.21 3.56 2.94 3.56zm0-.93c-1.12 0-1.91-1.09-1.91-2.63 0-1.54.79-2.62 1.91-2.62 1.11 0 1.89 1.08 1.89 2.62s-.78 2.63-1.89 2.63zm6.482.93c1.71 0 2.92-1.47 2.92-3.56 0-2.08-1.21-3.55-2.92-3.55-1.73 0-2.94 1.47-2.94 3.55 0 2.09 1.21 3.56 2.94 3.56zm0-.93c-1.12 0-1.91-1.09-1.91-2.63 0-1.54.79-2.62 1.91-2.62 1.11 0 1.89 1.08 1.89 2.62s-.78 2.63-1.89 2.63zm-18.248-78.19h1.01v-1.58h.99v-.89h-.99v-4.4h-1.2l-3.33 4.48.11.81h3.41v1.58zm-2.41-2.47l2.41-3.25v3.25h-2.41zm7.694 2.59c1.71 0 2.92-1.47 2.92-3.56 0-2.08-1.21-3.55-2.92-3.55-1.73 0-2.94 1.47-2.94 3.55 0 2.09 1.21 3.56 2.94 3.56zm0-.93c-1.12 0-1.91-1.09-1.91-2.63 0-1.54.79-2.62 1.91-2.62 1.11 0 1.89 1.08 1.89 2.62s-.78 2.63-1.89 2.63zm6.482.93c1.71 0 2.92-1.47 2.92-3.56 0-2.08-1.21-3.55-2.92-3.55-1.73 0-2.94 1.47-2.94 3.55 0 2.09 1.21 3.56 2.94 3.56zm0-.93c-1.12 0-1.91-1.09-1.91-2.63 0-1.54.79-2.62 1.91-2.62 1.11 0 1.89 1.08 1.89 2.62s-.78 2.63-1.89 2.63zm6.482.93c1.71 0 2.92-1.47 2.92-3.56 0-2.08-1.21-3.55-2.92-3.55-1.73 0-2.94 1.47-2.94 3.55 0 2.09 1.21 3.56 2.94 3.56zm0-.93c-1.12 0-1.91-1.09-1.91-2.63 0-1.54.79-2.62 1.91-2.62 1.11 0 1.89 1.08 1.89 2.62s-.78 2.63-1.89 2.63zm-18.744-52.53c-.75 0-1.44.33-1.86.9.04-1.51.82-2.64 1.86-2.64.63 0 1.07.27 1.49.66l.52-.78c-.52-.47-1.15-.79-2-.79-1.67 0-2.9 1.58-2.9 3.66 0 1.96.8 3.45 2.71 3.45 1.45 0 2.49-.99 2.49-2.31 0-1.36-1.05-2.15-2.31-2.15zm-.21 3.6c-.91 0-1.4-.66-1.57-1.65.19-.66.79-1.1 1.55-1.1.83 0 1.51.51 1.51 1.35 0 .69-.56 1.4-1.49 1.4zm5.99.86c1.71 0 2.92-1.47 2.92-3.56 0-2.08-1.21-3.55-2.92-3.55-1.73 0-2.94 1.47-2.94 3.55 0 2.09 1.21 3.56 2.94 3.56zm0-.93c-1.12 0-1.91-1.09-1.91-2.63 0-1.54.79-2.62 1.91-2.62 1.11 0 1.89 1.08 1.89 2.62s-.78 2.63-1.89 2.63zm6.482.93c1.71 0 2.92-1.47 2.92-3.56 0-2.08-1.21-3.55-2.92-3.55-1.73 0-2.94 1.47-2.94 3.55 0 2.09 1.21 3.56 2.94 3.56zm0-.93c-1.12 0-1.91-1.09-1.91-2.63 0-1.54.79-2.62 1.91-2.62 1.11 0 1.89 1.08 1.89 2.62s-.78 2.63-1.89 2.63zm6.482.93c1.71 0 2.92-1.47 2.92-3.56 0-2.08-1.21-3.55-2.92-3.55-1.73 0-2.94 1.47-2.94 3.55 0 2.09 1.21 3.56 2.94 3.56zm0-.93c-1.12 0-1.91-1.09-1.91-2.63 0-1.54.79-2.62 1.91-2.62 1.11 0 1.89 1.08 1.89 2.62s-.78 2.63-1.89 2.63zm-19.114-29.07c1.44 0 2.59-.74 2.59-1.93 0-.84-.63-1.45-1.45-1.74.7-.27 1.28-.78 1.28-1.6 0-1.14-1.14-1.84-2.42-1.84-1.24 0-2.41.67-2.41 1.84 0 .78.53 1.3 1.28 1.6-.82.28-1.46.89-1.46 1.74 0 1.18 1.14 1.93 2.59 1.93zm0-4.05c-.61-.04-1.4-.4-1.4-1.11 0-.61.61-1.06 1.4-1.06.79 0 1.41.45 1.41 1.06 0 .69-.78 1.07-1.41 1.11zm0 3.16c-.88 0-1.57-.46-1.57-1.13 0-.73.9-1.17 1.57-1.19.68.02 1.57.46 1.57 1.19 0 .67-.69 1.13-1.57 1.13zm6.15.89c1.71 0 2.92-1.47 2.92-3.56 0-2.08-1.21-3.55-2.92-3.55-1.73 0-2.94 1.47-2.94 3.55 0 2.09 1.21 3.56 2.94 3.56zm0-.93c-1.12 0-1.91-1.09-1.91-2.63 0-1.54.79-2.62 1.91-2.62 1.11 0 1.89 1.08 1.89 2.62s-.78 2.63-1.89 2.63zm6.482.93c1.71 0 2.92-1.47 2.92-3.56 0-2.08-1.21-3.55-2.92-3.55-1.73 0-2.94 1.47-2.94 3.55 0 2.09 1.21 3.56 2.94 3.56zm0-.93c-1.12 0-1.91-1.09-1.91-2.63 0-1.54.79-2.62 1.91-2.62 1.11 0 1.89 1.08 1.89 2.62s-.78 2.63-1.89 2.63zm6.482.93c1.71 0 2.92-1.47 2.92-3.56 0-2.08-1.21-3.55-2.92-3.55-1.73 0-2.94 1.47-2.94 3.55 0 2.09 1.21 3.56 2.94 3.56zm0-.93c-1.12 0-1.91-1.09-1.91-2.63 0-1.54.79-2.62 1.91-2.62 1.11 0 1.89 1.08 1.89 2.62s-.78 2.63-1.89 2.63zm-24.641-23.19h1.01v-6.87h-.81l-1.81 1.23.42.73 1.19-.76v5.67zm4.988.12c1.71 0 2.92-1.47 2.92-3.56 0-2.08-1.21-3.55-2.92-3.55-1.73 0-2.94 1.47-2.94 3.55 0 2.09 1.21 3.56 2.94 3.56zm0-.93c-1.12 0-1.91-1.09-1.91-2.63 0-1.54.79-2.62 1.91-2.62 1.11 0 1.89 1.08 1.89 2.62s-.78 2.63-1.89 2.63zm6.483.93c1.71 0 2.92-1.47 2.92-3.56 0-2.08-1.21-3.55-2.92-3.55-1.73 0-2.94 1.47-2.94 3.55 0 2.09 1.21 3.56 2.94 3.56zm0-.93c-1.12 0-1.91-1.09-1.91-2.63 0-1.54.79-2.62 1.91-2.62 1.11 0 1.89 1.08 1.89 2.62s-.78 2.63-1.89 2.63zm6.482.93c1.71 0 2.92-1.47 2.92-3.56 0-2.08-1.21-3.55-2.92-3.55-1.73 0-2.94 1.47-2.94 3.55 0 2.09 1.21 3.56 2.94 3.56zm0-.93c-1.12 0-1.91-1.09-1.91-2.63 0-1.54.79-2.62 1.91-2.62 1.11 0 1.89 1.08 1.89 2.62s-.78 2.63-1.89 2.63zm6.483.93c1.71 0 2.92-1.47 2.92-3.56 0-2.08-1.21-3.55-2.92-3.55-1.73 0-2.94 1.47-2.94 3.55 0 2.09 1.21 3.56 2.94 3.56zm0-.93c-1.12 0-1.91-1.09-1.91-2.63 0-1.54.79-2.62 1.91-2.62 1.11 0 1.89 1.08 1.89 2.62s-.78 2.63-1.89 2.63zm-27.889-78.191h4.89v-.94h-3.29l1.61-1.36c1.18-.96 1.62-1.69 1.62-2.61 0-1.25-1.02-2.08-2.3-2.08-1.09 0-1.9.5-2.5 1.33l.68.6c.48-.62 1.03-1.02 1.78-1.02.68 0 1.3.44 1.3 1.19 0 .62-.35 1.21-1.27 1.98l-2.52 2.08v.83zm8.441.12c1.71 0 2.92-1.47 2.92-3.56 0-2.08-1.21-3.55-2.92-3.55-1.73 0-2.94 1.47-2.94 3.55 0 2.09 1.21 3.56 2.94 3.56zm0-.93c-1.12 0-1.91-1.09-1.91-2.63 0-1.54.79-2.62 1.91-2.62 1.11 0 1.89 1.08 1.89 2.62s-.78 2.63-1.89 2.63zm6.483.93c1.71 0 2.92-1.47 2.92-3.56 0-2.08-1.21-3.55-2.92-3.55-1.73 0-2.94 1.47-2.94 3.55 0 2.09 1.21 3.56 2.94 3.56zm0-.93c-1.12 0-1.91-1.09-1.91-2.63 0-1.54.79-2.62 1.91-2.62 1.11 0 1.89 1.08 1.89 2.62s-.78 2.63-1.89 2.63zm6.482.93c1.71 0 2.92-1.47 2.92-3.56 0-2.08-1.21-3.55-2.92-3.55-1.73 0-2.94 1.47-2.94 3.55 0 2.09 1.21 3.56 2.94 3.56zm0-.93c-1.12 0-1.91-1.09-1.91-2.63 0-1.54.79-2.62 1.91-2.62 1.11 0 1.89 1.08 1.89 2.62s-.78 2.63-1.89 2.63zm6.483.93c1.71 0 2.92-1.47 2.92-3.56 0-2.08-1.21-3.55-2.92-3.55-1.73 0-2.94 1.47-2.94 3.55 0 2.09 1.21 3.56 2.94 3.56zm0-.93c-1.12 0-1.91-1.09-1.91-2.63 0-1.54.79-2.62 1.91-2.62 1.11 0 1.89 1.08 1.89 2.62s-.78 2.63-1.89 2.63zm-24.732-78.19h1.01v-1.58h.99v-.89h-.99v-4.4h-1.2l-3.33 4.48.11.81h3.41v1.58zm-2.41-2.47l2.41-3.25v3.25h-2.41zm7.694 2.59c1.71 0 2.92-1.47 2.92-3.56 0-2.08-1.21-3.55-2.92-3.55-1.73 0-2.94 1.47-2.94 3.55 0 2.09 1.21 3.56 2.94 3.56zm0-.93c-1.12 0-1.91-1.09-1.91-2.63 0-1.54.79-2.62 1.91-2.62 1.11 0 1.89 1.08 1.89 2.62s-.78 2.63-1.89 2.63zm6.483.93c1.71 0 2.92-1.47 2.92-3.56 0-2.08-1.21-3.55-2.92-3.55-1.73 0-2.94 1.47-2.94 3.55 0 2.09 1.21 3.56 2.94 3.56zm0-.93c-1.12 0-1.91-1.09-1.91-2.63 0-1.54.79-2.62 1.91-2.62 1.11 0 1.89 1.08 1.89 2.62s-.78 2.63-1.89 2.63zm6.482.93c1.71 0 2.92-1.47 2.92-3.56 0-2.08-1.21-3.55-2.92-3.55-1.73 0-2.94 1.47-2.94 3.55 0 2.09 1.21 3.56 2.94 3.56zm0-.93c-1.12 0-1.91-1.09-1.91-2.63 0-1.54.79-2.62 1.91-2.62 1.11 0 1.89 1.08 1.89 2.62s-.78 2.63-1.89 2.63zm6.483.93c1.71 0 2.92-1.47 2.92-3.56 0-2.08-1.21-3.55-2.92-3.55-1.73 0-2.94 1.47-2.94 3.55 0 2.09 1.21 3.56 2.94 3.56zm0-.93c-1.12 0-1.91-1.09-1.91-2.63 0-1.54.79-2.62 1.91-2.62 1.11 0 1.89 1.08 1.89 2.62s-.78 2.63-1.89 2.63zM52.29 11.935c-.75 0-1.44.33-1.86.9.04-1.51.82-2.64 1.86-2.64.63 0 1.07.27 1.49.66l.52-.78c-.52-.47-1.15-.79-2-.79-1.67 0-2.9 1.58-2.9 3.66 0 1.96.8 3.45 2.71 3.45 1.45 0 2.49-.99 2.49-2.31 0-1.36-1.05-2.15-2.31-2.15zm-.21 3.6c-.91 0-1.4-.66-1.57-1.65.19-.66.79-1.1 1.55-1.1.83 0 1.51.51 1.51 1.35 0 .69-.56 1.4-1.49 1.4zm5.99.86c1.71 0 2.92-1.47 2.92-3.56 0-2.08-1.21-3.55-2.92-3.55-1.73 0-2.94 1.47-2.94 3.55 0 2.09 1.21 3.56 2.94 3.56zm0-.93c-1.12 0-1.91-1.09-1.91-2.63 0-1.54.79-2.62 1.91-2.62 1.11 0 1.89 1.08 1.89 2.62s-.78 2.63-1.89 2.63zm6.482.93c1.71 0 2.92-1.47 2.92-3.56 0-2.08-1.21-3.55-2.92-3.55-1.73 0-2.94 1.47-2.94 3.55 0 2.09 1.21 3.56 2.94 3.56zm0-.93c-1.12 0-1.91-1.09-1.91-2.63 0-1.54.79-2.62 1.91-2.62 1.11 0 1.89 1.08 1.89 2.62s-.78 2.63-1.89 2.63zm6.482.93c1.71 0 2.92-1.47 2.92-3.56 0-2.08-1.21-3.55-2.92-3.55-1.73 0-2.94 1.47-2.94 3.55 0 2.09 1.21 3.56 2.94 3.56zm0-.93c-1.12 0-1.91-1.09-1.91-2.63 0-1.54.79-2.62 1.91-2.62 1.11 0 1.89 1.08 1.89 2.62s-.78 2.63-1.89 2.63zm6.483.93c1.71 0 2.92-1.47 2.92-3.56 0-2.08-1.21-3.55-2.92-3.55-1.73 0-2.94 1.47-2.94 3.55 0 2.09 1.21 3.56 2.94 3.56zm0-.93c-1.12 0-1.91-1.09-1.91-2.63 0-1.54.79-2.62 1.91-2.62 1.11 0 1.89 1.08 1.89 2.62s-.78 2.63-1.89 2.63z" fill="#000" fill-opacity=".7"/><path d="M948.044 19.275h1.776v-2.304l1.032-1.104 2.52 3.408h2.16l-3.456-4.668 3.216-3.576h-2.136l-3.336 3.78v-3.78h-1.776v8.244zm12.976.144c2.184 0 3.732-1.536 3.732-3.708v-4.68h-1.776v4.608c0 1.272-.816 2.172-1.956 2.172-1.152 0-1.968-.9-1.968-2.172v-4.608h-1.764v4.68c0 2.172 1.536 3.708 3.732 3.708zm6.236-.144h4.344c1.572 0 2.7-.912 2.7-2.232 0-.912-.552-1.68-1.512-2.112.732-.384 1.152-.996 1.152-1.836 0-1.2-1.032-2.064-2.508-2.064h-4.176v8.244zm1.764-4.92v-1.812H971c.66 0 1.128.384 1.128.9 0 .528-.468.912-1.128.912h-1.98zm0 3.408v-2.016h2.244c.72 0 1.224.42 1.224 1.008 0 .588-.504 1.008-1.224 1.008h-2.244zm13.844-5.136v-1.596h-6.348v8.244h6.348V17.68h-4.572v-1.812h4.152v-1.596h-4.152v-1.644h4.572zm9.13 1.188c0-1.632-1.308-2.784-3.108-2.784h-3.708v8.244h1.776V16.6h1.068l1.884 2.676h2.016l-1.98-2.82c1.236-.36 2.052-1.344 2.052-2.64zm-5.04-1.164h1.752c.876 0 1.476.456 1.476 1.164s-.6 1.164-1.476 1.164h-1.752v-2.328zm7.273 6.624h1.776v-5.328l3.972 5.328h1.775v-8.244h-1.775v5.328l-3.972-5.328h-1.776v8.244zm16.553-6.648v-1.596h-6.34v8.244h6.34V17.68h-4.57v-1.812h4.15v-1.596h-4.15v-1.644h4.57zm4.23 6.648h1.76v-6.648h2.58v-1.596h-6.91v1.596h2.57v6.648zm12.7-6.648v-1.596h-6.35v8.244h6.35V17.68h-4.57v-1.812h4.15v-1.596h-4.15v-1.644h4.57zm5.36 6.792c2.01 0 3.21-1.044 3.21-2.616 0-1.524-1.18-2.052-2.95-2.448-1.28-.288-1.78-.48-1.78-1.08 0-.492.47-.888 1.21-.888.79 0 1.62.324 2.37.924l.92-1.284c-.85-.72-1.88-1.14-3.23-1.14-1.81 0-3.06 1.044-3.06 2.568 0 1.596 1.25 2.088 2.99 2.484 1.26.288 1.74.468 1.74 1.056 0 .516-.46.924-1.36.924-1.04 0-1.93-.408-2.71-1.08l-1.01 1.212c.96.888 2.22 1.368 3.66 1.368zm-78.498 19.856h1.02l-3.636-8.244h-1.02l-3.636 8.244h1.02l.828-1.872h4.596l.828 1.872zm-5.04-2.76l1.92-4.332 1.908 4.332h-3.828zm11.498 2.904c2.016 0 3.444-1.476 3.444-3.564v-4.824h-.936v4.824c0 1.584-1.044 2.712-2.508 2.712s-2.508-1.128-2.508-2.712v-4.824h-.936v4.824c0 2.088 1.428 3.564 3.444 3.564zm8.207-.144h.936V31.92h2.772v-.888h-6.48v.888h2.772v7.356zm11.71-8.244v3.6h-4.86v-3.6h-.936v8.244h.936V35.52h4.86v3.756h.936v-8.244h-.936zm7.743 8.388c2.292 0 4.212-1.956 4.212-4.272 0-2.316-1.92-4.26-4.212-4.26-2.28 0-4.224 1.944-4.224 4.26s1.944 4.272 4.224 4.272zm0-.864c-1.776 0-3.276-1.56-3.276-3.408 0-1.836 1.5-3.396 3.276-3.396 1.776 0 3.264 1.56 3.264 3.396 0 1.848-1.488 3.408-3.264 3.408zm13.19-4.884c0-1.548-1.33-2.64-3.033-2.64h-3.348v8.244h.936v-2.964h1.824l2.091 2.964h1.07l-2.105-2.988c1.475-.18 2.565-1.212 2.565-2.616zm-5.445-1.752h2.244c1.341 0 2.261.648 2.261 1.752s-.92 1.752-2.261 1.752h-2.244V31.92zm10.445 7.488c1.92 0 2.9-1.068 2.9-2.376 0-1.452-1.12-2.016-2.7-2.388-1.4-.336-2.22-.636-2.22-1.488 0-.756.75-1.416 1.77-1.416.86 0 1.68.396 2.36 1.056l.58-.732c-.76-.696-1.67-1.176-2.89-1.176-1.59 0-2.76 1.02-2.76 2.34 0 1.428 1.04 1.944 2.7 2.328 1.44.336 2.22.684 2.22 1.56 0 .744-.65 1.44-1.92 1.44-1.16 0-2.01-.492-2.7-1.188l-.59.732c.83.816 1.89 1.308 3.25 1.308zm8.46-.132h5.68v-.888h-4.18l2.16-1.872c1.39-1.2 1.94-2.088 1.94-3.204 0-1.476-1.2-2.424-2.63-2.424-1.29 0-2.22.612-2.9 1.584l.66.54c.56-.768 1.25-1.284 2.21-1.284.87 0 1.71.588 1.71 1.596 0 .816-.48 1.608-1.64 2.604l-3.01 2.568v.78zm11.53 0h.94v-2.004h1.24v-.852h-1.24v-5.388h-1.08l-4.09 5.46.12.78h4.11v2.004zm-3.16-2.856l3.16-4.26v4.26h-3.16zm9.98 3c1.69 0 3.01-.9 3.01-2.304 0-1.032-.82-1.764-1.81-2.1.85-.312 1.61-.924 1.61-1.932 0-1.356-1.34-2.196-2.81-2.196-1.43 0-2.8.816-2.8 2.184 0 .948.67 1.584 1.61 1.944-1.01.324-1.82 1.068-1.82 2.1 0 1.392 1.3 2.304 3.01 2.304zm0-4.776c-.78-.048-1.85-.516-1.85-1.476 0-.828.82-1.428 1.85-1.428 1.03 0 1.86.6 1.86 1.428 0 .936-1.06 1.428-1.86 1.476zm0 3.924c-1.14 0-2.07-.612-2.07-1.512 0-.996 1.22-1.572 2.07-1.596.86.024 2.06.6 2.06 1.596 0 .9-.92 1.512-2.06 1.512zm8.36-4.44c-.97 0-1.82.468-2.32 1.26v-.108c0-1.98 1.04-3.54 2.36-3.54.79 0 1.33.36 1.85.864l.51-.732c-.61-.588-1.33-.984-2.34-.984-1.87 0-3.33 1.932-3.33 4.392 0 2.328.9 4.14 3.13 4.14 1.72 0 2.9-1.2 2.9-2.724 0-1.632-1.26-2.568-2.76-2.568zm-.15 4.488c-1.15 0-1.83-.9-2.07-2.148.21-.912 1.01-1.536 2.06-1.536 1.1 0 1.98.684 1.98 1.812 0 .912-.74 1.872-1.97 1.872zm-87.508 24.012v-1.596h-6.348v8.244h6.348V67.68h-4.572v-1.812h4.152v-1.596h-4.152v-1.644h4.572zm2.314 6.648h1.776v-5.328l3.972 5.328h1.776v-8.244h-1.776v5.328l-3.972-5.328h-1.776v8.244zm16.186-8.244l-2.352 5.808-2.364-5.808h-1.992l3.36 8.244h1.98l3.36-8.244h-1.992zm7.852 8.388c2.376 0 4.368-1.956 4.368-4.272 0-2.316-1.992-4.26-4.368-4.26-2.376 0-4.392 1.944-4.392 4.26s2.016 4.272 4.392 4.272zm0-1.608c-1.392 0-2.568-1.224-2.568-2.664 0-1.428 1.176-2.652 2.568-2.652 1.38 0 2.556 1.224 2.556 2.652 0 1.44-1.176 2.664-2.556 2.664zm9.039 1.464h1.788V66.3l3.216-5.268h-1.98l-2.136 3.612-2.052-3.612h-2.064l3.228 5.268v2.976zm-35.211 20h1.02l-3.636-8.244h-1.02l-3.636 8.244h1.02l.828-1.872h4.596l.828 1.872zm-5.04-2.76l1.92-4.332 1.908 4.332h-3.828zm11.498 2.904c2.016 0 3.444-1.476 3.444-3.564v-4.824h-.936v4.824c0 1.584-1.044 2.712-2.508 2.712s-2.508-1.128-2.508-2.712v-4.824h-.936v4.824c0 2.088 1.428 3.564 3.444 3.564zm8.207-.144h.936V81.92h2.772v-.888h-6.48v.888h2.772v7.356zm11.71-8.244v3.6h-4.86v-3.6h-.936v8.244h.936V85.52h4.86v3.756h.936v-8.244h-.936zm7.743 8.388c2.292 0 4.212-1.956 4.212-4.272 0-2.316-1.92-4.26-4.212-4.26-2.28 0-4.224 1.944-4.224 4.26s1.944 4.272 4.224 4.272zm0-.864c-1.776 0-3.276-1.56-3.276-3.408 0-1.836 1.5-3.396 3.276-3.396 1.776 0 3.264 1.56 3.264 3.396 0 1.848-1.488 3.408-3.264 3.408zm13.19-4.884c0-1.548-1.33-2.64-3.033-2.64h-3.348v8.244h.936v-2.964h1.824l2.091 2.964h1.07l-2.105-2.988c1.475-.18 2.565-1.212 2.565-2.616zm-5.445-1.752h2.244c1.341 0 2.261.648 2.261 1.752s-.92 1.752-2.261 1.752h-2.244V81.92zm10.445 7.488c1.92 0 2.9-1.068 2.9-2.376 0-1.452-1.12-2.016-2.7-2.388-1.4-.336-2.22-.636-2.22-1.488 0-.756.75-1.416 1.77-1.416.86 0 1.68.396 2.36 1.056l.58-.732c-.76-.696-1.67-1.176-2.89-1.176-1.59 0-2.76 1.02-2.76 2.34 0 1.428 1.04 1.944 2.7 2.328 1.44.336 2.22.684 2.22 1.56 0 .744-.65 1.44-1.92 1.44-1.16 0-2.01-.492-2.7-1.188l-.59.732c.83.816 1.89 1.308 3.25 1.308zm8.46-.132h5.68v-.888h-4.18l2.16-1.872c1.39-1.2 1.94-2.088 1.94-3.204 0-1.476-1.2-2.424-2.63-2.424-1.29 0-2.22.612-2.9 1.584l.66.54c.56-.768 1.25-1.284 2.21-1.284.87 0 1.71.588 1.71 1.596 0 .816-.48 1.608-1.64 2.604l-3.01 2.568v.78zm10.69.144c1.7 0 3.02-.9 3.02-2.304 0-1.032-.82-1.764-1.82-2.1.86-.312 1.61-.924 1.61-1.932 0-1.356-1.33-2.196-2.81-2.196-1.42 0-2.79.816-2.79 2.184 0 .948.67 1.584 1.61 1.944-1.01.324-1.83 1.068-1.83 2.1 0 1.392 1.31 2.304 3.01 2.304zm0-4.776c-.78-.048-1.84-.516-1.84-1.476 0-.828.81-1.428 1.84-1.428 1.04 0 1.86.6 1.86 1.428 0 .936-1.05 1.428-1.86 1.476zm0 3.924c-1.14 0-2.06-.612-2.06-1.512 0-.996 1.21-1.572 2.06-1.596.87.024 2.07.6 2.07 1.596 0 .9-.93 1.512-2.07 1.512zm8.37-4.44c-.97 0-1.82.468-2.33 1.26v-.108c0-1.98 1.05-3.54 2.37-3.54.79 0 1.33.36 1.84.864l.52-.732c-.61-.588-1.33-.984-2.34-.984-1.87 0-3.34 1.932-3.34 4.392 0 2.328.9 4.14 3.14 4.14 1.71 0 2.9-1.2 2.9-2.724 0-1.632-1.26-2.568-2.76-2.568zm-.16 4.488c-1.15 0-1.82-.9-2.06-2.148.2-.912 1.01-1.536 2.05-1.536 1.11 0 1.98.684 1.98 1.812 0 .912-.73 1.872-1.97 1.872zm-86.196 30.66h1.776v-2.676h1.932c1.8 0 3.108-1.152 3.108-2.784s-1.308-2.784-3.108-2.784h-3.708v8.244zm1.776-4.296v-2.328h1.752c.876 0 1.476.456 1.476 1.164s-.6 1.164-1.476 1.164h-1.752zm13.984-1.164c0-1.632-1.308-2.784-3.108-2.784h-3.708v8.244h1.776v-2.676h1.068l1.884 2.676h2.016l-1.98-2.82c1.236-.36 2.052-1.344 2.052-2.64zm-5.04-1.164h1.752c.876 0 1.476.456 1.476 1.164s-.6 1.164-1.476 1.164h-1.752v-2.328zm11.173 6.768c2.376 0 4.368-1.956 4.368-4.272 0-2.316-1.992-4.26-4.368-4.26-2.376 0-4.392 1.944-4.392 4.26s2.016 4.272 4.392 4.272zm0-1.608c-1.392 0-2.568-1.224-2.568-2.664 0-1.428 1.176-2.652 2.568-2.652 1.38 0 2.556 1.224 2.556 2.652 0 1.44-1.176 2.664-2.556 2.664zm6.579 1.464h1.776v-5.136l2.544 4.656 2.556-4.656v5.136h1.764v-8.244h-1.764l-2.556 4.656-2.544-4.656h-1.776v8.244zm17.682-6.648v-1.596h-6.348v8.244h6.348v-1.596h-4.572v-1.812h4.152v-1.596h-4.152v-1.644h4.572zm4.223 6.648h1.759v-6.648h2.58v-1.596h-6.907v1.596h2.568v6.648zm11.889-8.244v3.24h-3.76v-3.24h-1.77v8.244h1.77v-3.408h3.76v3.408h1.76v-8.244h-1.76zm10.81 1.596v-1.596h-6.34v8.244h6.34v-1.596h-4.57v-1.812h4.15v-1.596h-4.15v-1.644h4.57zm5.87 6.792c2.18 0 3.73-1.536 3.73-3.708v-4.68h-1.77v4.608c0 1.272-.82 2.172-1.96 2.172-1.15 0-1.97-.9-1.97-2.172v-4.608h-1.76v4.68c0 2.172 1.53 3.708 3.73 3.708zm9.28 0c2.01 0 3.21-1.044 3.21-2.616 0-1.524-1.18-2.052-2.95-2.448-1.28-.288-1.78-.48-1.78-1.08 0-.492.47-.888 1.21-.888.79 0 1.62.324 2.37.924l.92-1.284c-.85-.72-1.88-1.14-3.23-1.14-1.81 0-3.06 1.044-3.06 2.568 0 1.596 1.25 2.088 2.99 2.484 1.26.288 1.74.468 1.74 1.056 0 .516-.46.924-1.36.924-1.04 0-1.93-.408-2.71-1.08l-1.01 1.212c.96.888 2.22 1.368 3.66 1.368zm-81.698 19.856h1.02l-3.636-8.244h-1.02l-3.636 8.244h1.02l.828-1.872h4.596l.828 1.872zm-5.04-2.76l1.92-4.332 1.908 4.332h-3.828zm11.498 2.904c2.016 0 3.444-1.476 3.444-3.564v-4.824h-.936v4.824c0 1.584-1.044 2.712-2.508 2.712s-2.508-1.128-2.508-2.712v-4.824h-.936v4.824c0 2.088 1.428 3.564 3.444 3.564zm8.207-.144h.936v-7.356h2.772v-.888h-6.48v.888h2.772v7.356zm11.71-8.244v3.6h-4.86v-3.6h-.936v8.244h.936v-3.756h4.86v3.756h.936v-8.244h-.936zm7.743 8.388c2.292 0 4.212-1.956 4.212-4.272 0-2.316-1.92-4.26-4.212-4.26-2.28 0-4.224 1.944-4.224 4.26s1.944 4.272 4.224 4.272zm0-.864c-1.776 0-3.276-1.56-3.276-3.408 0-1.836 1.5-3.396 3.276-3.396 1.776 0 3.264 1.56 3.264 3.396 0 1.848-1.488 3.408-3.264 3.408zm13.19-4.884c0-1.548-1.33-2.64-3.033-2.64h-3.348v8.244h.936v-2.964h1.824l2.091 2.964h1.07l-2.105-2.988c1.475-.18 2.565-1.212 2.565-2.616zm-5.445-1.752h2.244c1.341 0 2.261.648 2.261 1.752s-.92 1.752-2.261 1.752h-2.244v-3.504zm10.445 7.488c1.92 0 2.9-1.068 2.9-2.376 0-1.452-1.12-2.016-2.7-2.388-1.4-.336-2.22-.636-2.22-1.488 0-.756.75-1.416 1.77-1.416.86 0 1.68.396 2.36 1.056l.58-.732c-.76-.696-1.67-1.176-2.89-1.176-1.59 0-2.76 1.02-2.76 2.34 0 1.428 1.04 1.944 2.7 2.328 1.44.336 2.22.684 2.22 1.56 0 .744-.65 1.44-1.92 1.44-1.16 0-2.01-.492-2.7-1.188l-.59.732c.83.816 1.89 1.308 3.25 1.308zm8.46-.132h5.68v-.888h-4.18l2.16-1.872c1.39-1.2 1.94-2.088 1.94-3.204 0-1.476-1.2-2.424-2.63-2.424-1.29 0-2.22.612-2.9 1.584l.66.54c.56-.768 1.25-1.284 2.21-1.284.87 0 1.71.588 1.71 1.596 0 .816-.48 1.608-1.64 2.604l-3.01 2.568v.78zm10.69.144c1.7 0 3.02-.9 3.02-2.304 0-1.032-.82-1.764-1.82-2.1.86-.312 1.61-.924 1.61-1.932 0-1.356-1.33-2.196-2.81-2.196-1.42 0-2.79.816-2.79 2.184 0 .948.67 1.584 1.61 1.944-1.01.324-1.83 1.068-1.83 2.1 0 1.392 1.31 2.304 3.01 2.304zm0-4.776c-.78-.048-1.84-.516-1.84-1.476 0-.828.81-1.428 1.84-1.428 1.04 0 1.86.6 1.86 1.428 0 .936-1.05 1.428-1.86 1.476zm0 3.924c-1.14 0-2.06-.612-2.06-1.512 0-.996 1.21-1.572 2.06-1.596.87.024 2.07.6 2.07 1.596 0 .9-.93 1.512-2.07 1.512zm8.49.852c2 0 3.42-1.764 3.42-4.272 0-2.496-1.42-4.26-3.42-4.26-2.02 0-3.43 1.764-3.43 4.26 0 2.508 1.41 4.272 3.43 4.272zm0-.864c-1.45 0-2.48-1.416-2.48-3.408s1.03-3.396 2.48-3.396 2.47 1.404 2.47 3.396-1.02 3.408-2.47 3.408zm-80.128 24.072v-1.596h-6.348v8.244h1.776v-3.264h4.152v-1.596h-4.152v-1.788h4.572zm3.903 5.052v-6.648h-1.776v8.244h5.88v-1.596h-4.104zm9.688 1.74c2.184 0 3.732-1.536 3.732-3.708v-4.68h-1.776v4.608c0 1.272-.816 2.172-1.956 2.172-1.152 0-1.968-.9-1.968-2.172v-4.608h-1.764v4.68c0 2.172 1.536 3.708 3.732 3.708zm12.584-6.792v-1.596h-6.348v8.244h6.348v-1.596h-4.572v-1.812h4.152v-1.596h-4.152v-1.644h4.572zm2.314 6.648h1.776v-5.328l3.972 5.328h1.776v-8.244h-1.776v5.328l-3.972-5.328h-1.776v8.244zm12.118 0h1.764v-6.648h2.58v-1.596h-6.912v1.596h2.568v6.648zm6.351 0h2.97c2.77 0 4.74-1.716 4.74-4.128s-1.97-4.116-4.74-4.116h-2.97v8.244zm1.78-1.608v-5.028h1.42c1.57 0 2.68 1.044 2.68 2.508 0 1.476-1.11 2.52-2.68 2.52h-1.42zm-48.558 21.608h1.02l-3.636-8.244h-1.02l-3.636 8.244h1.02l.828-1.872h4.596l.828 1.872zm-5.04-2.76l1.92-4.332 1.908 4.332h-3.828zm11.498 2.904c2.016 0 3.444-1.476 3.444-3.564v-4.824h-.936v4.824c0 1.584-1.044 2.712-2.508 2.712s-2.508-1.128-2.508-2.712v-4.824h-.936v4.824c0 2.088 1.428 3.564 3.444 3.564zm8.207-.144h.936v-7.356h2.772v-.888h-6.48v.888h2.772v7.356zm11.71-8.244v3.6h-4.86v-3.6h-.936v8.244h.936v-3.756h4.86v3.756h.936v-8.244h-.936zm7.743 8.388c2.292 0 4.212-1.956 4.212-4.272 0-2.316-1.92-4.26-4.212-4.26-2.28 0-4.224 1.944-4.224 4.26s1.944 4.272 4.224 4.272zm0-.864c-1.776 0-3.276-1.56-3.276-3.408 0-1.836 1.5-3.396 3.276-3.396 1.776 0 3.264 1.56 3.264 3.396 0 1.848-1.488 3.408-3.264 3.408zm13.19-4.884c0-1.548-1.33-2.64-3.033-2.64h-3.348v8.244h.936v-2.964h1.824l2.091 2.964h1.07l-2.105-2.988c1.475-.18 2.565-1.212 2.565-2.616zm-5.445-1.752h2.244c1.341 0 2.261.648 2.261 1.752s-.92 1.752-2.261 1.752h-2.244v-3.504zm10.445 7.488c1.92 0 2.9-1.068 2.9-2.376 0-1.452-1.12-2.016-2.7-2.388-1.4-.336-2.22-.636-2.22-1.488 0-.756.75-1.416 1.77-1.416.86 0 1.68.396 2.36 1.056l.58-.732c-.76-.696-1.67-1.176-2.89-1.176-1.59 0-2.76 1.02-2.76 2.34 0 1.428 1.04 1.944 2.7 2.328 1.44.336 2.22.684 2.22 1.56 0 .744-.65 1.44-1.92 1.44-1.16 0-2.01-.492-2.7-1.188l-.59.732c.83.816 1.89 1.308 3.25 1.308zm10.14-.132h.93v-8.244h-.75l-2.03 1.38.41.696 1.44-.936v7.104zm4.01 0h1.08l3.55-7.536v-.708h-5.58v.888h4.47l-3.52 7.356zm7.65 0h.94v-8.244h-.76l-2.03 1.38.41.696 1.44-.936v7.104zm-78.728 30h1.764v-6.648h2.58v-1.596h-6.912v1.596h2.568v6.648zm6.356 0h1.776v-8.244h-1.776v8.244zm4.467 0h1.776v-2.304l1.032-1.104 2.52 3.408h2.16l-3.456-4.668 3.216-3.576h-2.136l-3.336 3.78v-3.78h-1.776v8.244zm15.4-8.244l-2.352 5.808-2.364-5.808h-1.992l3.36 8.244h1.98l3.36-8.244h-1.992zm-21.603 28.244h1.02l-3.636-8.244h-1.02l-3.636 8.244h1.02l.828-1.872h4.596l.828 1.872zm-5.04-2.76l1.92-4.332 1.908 4.332h-3.828zm11.498 2.904c2.016 0 3.444-1.476 3.444-3.564v-4.824h-.936v4.824c0 1.584-1.044 2.712-2.508 2.712s-2.508-1.128-2.508-2.712v-4.824h-.936v4.824c0 2.088 1.428 3.564 3.444 3.564zm8.207-.144h.936v-7.356h2.772v-.888h-6.48v.888h2.772v7.356zm11.71-8.244v3.6h-4.86v-3.6h-.936v8.244h.936v-3.756h4.86v3.756h.936v-8.244h-.936zm7.743 8.388c2.292 0 4.212-1.956 4.212-4.272 0-2.316-1.92-4.26-4.212-4.26-2.28 0-4.224 1.944-4.224 4.26s1.944 4.272 4.224 4.272zm0-.864c-1.776 0-3.276-1.56-3.276-3.408 0-1.836 1.5-3.396 3.276-3.396 1.776 0 3.264 1.56 3.264 3.396 0 1.848-1.488 3.408-3.264 3.408zm13.19-4.884c0-1.548-1.33-2.64-3.033-2.64h-3.348v8.244h.936v-2.964h1.824l2.091 2.964h1.07l-2.105-2.988c1.475-.18 2.565-1.212 2.565-2.616zm-5.445-1.752h2.244c1.341 0 2.261.648 2.261 1.752s-.92 1.752-2.261 1.752h-2.244v-3.504zm10.445 7.488c1.92 0 2.9-1.068 2.9-2.376 0-1.452-1.12-2.016-2.7-2.388-1.4-.336-2.22-.636-2.22-1.488 0-.756.75-1.416 1.77-1.416.86 0 1.68.396 2.36 1.056l.58-.732c-.76-.696-1.67-1.176-2.89-1.176-1.59 0-2.76 1.02-2.76 2.34 0 1.428 1.04 1.944 2.7 2.328 1.44.336 2.22.684 2.22 1.56 0 .744-.65 1.44-1.92 1.44-1.16 0-2.01-.492-2.7-1.188l-.59.732c.83.816 1.89 1.308 3.25 1.308zm10.14-.132h.93v-8.244h-.75l-2.03 1.38.41.696 1.44-.936v7.104zm6.36.144c1.69 0 2.93-1.08 2.93-2.712 0-1.632-1.24-2.568-2.72-2.568-.76 0-1.32.252-1.77.552l.09-2.772h3.96v-.888h-4.88l-.12 4.236.69.336c.51-.384 1.13-.636 1.83-.636 1.16 0 1.97.72 1.97 1.776 0 1.044-.8 1.836-1.94 1.836-.91 0-1.69-.456-2.33-1.152l-.61.684c.67.768 1.63 1.308 2.9 1.308zm7.87 0c1.69 0 3.01-.9 3.01-2.304 0-1.032-.81-1.764-1.81-2.1.85-.312 1.61-.924 1.61-1.932 0-1.356-1.33-2.196-2.81-2.196-1.43 0-2.79.816-2.79 2.184 0 .948.67 1.584 1.6 1.944-1 .324-1.82 1.068-1.82 2.1 0 1.392 1.31 2.304 3.01 2.304zm0-4.776c-.78-.048-1.85-.516-1.85-1.476 0-.828.82-1.428 1.85-1.428 1.03 0 1.86.6 1.86 1.428 0 .936-1.05 1.428-1.86 1.476zm0 3.924c-1.14 0-2.06-.612-2.06-1.512 0-.996 1.21-1.572 2.06-1.596.87.024 2.07.6 2.07 1.596 0 .9-.93 1.512-2.07 1.512zm-79.306 30.852c2.376 0 4.368-1.956 4.368-4.272 0-2.316-1.992-4.26-4.368-4.26-2.376 0-4.392 1.944-4.392 4.26s2.016 4.272 4.392 4.272zm0-1.608c-1.392 0-2.568-1.224-2.568-2.664 0-1.428 1.176-2.652 2.568-2.652 1.38 0 2.556 1.224 2.556 2.652 0 1.44-1.176 2.664-2.556 2.664zm6.579 1.464h1.776v-2.676h1.932c1.8 0 3.108-1.152 3.108-2.784s-1.308-2.784-3.108-2.784h-3.708v8.244zm1.776-4.296v-2.328h1.752c.876 0 1.476.456 1.476 1.164s-.6 1.164-1.476 1.164h-1.752zm13.132 4.296h1.992l-3.36-8.244h-1.98l-3.36 8.244h1.98l.576-1.416h3.576l.576 1.416zm-3.588-2.796l1.224-3.012 1.224 3.012h-2.448zm-15.271 22.796h1.02l-3.636-8.244h-1.02l-3.636 8.244h1.02l.828-1.872h4.596l.828 1.872zm-5.04-2.76l1.92-4.332 1.908 4.332h-3.828zm11.498 2.904c2.016 0 3.444-1.476 3.444-3.564v-4.824h-.936v4.824c0 1.584-1.044 2.712-2.508 2.712s-2.508-1.128-2.508-2.712v-4.824h-.936v4.824c0 2.088 1.428 3.564 3.444 3.564zm8.207-.144h.936v-7.356h2.772v-.888h-6.48v.888h2.772v7.356zm11.71-8.244v3.6h-4.86v-3.6h-.936v8.244h.936v-3.756h4.86v3.756h.936v-8.244h-.936zm7.743 8.388c2.292 0 4.212-1.956 4.212-4.272 0-2.316-1.92-4.26-4.212-4.26-2.28 0-4.224 1.944-4.224 4.26s1.944 4.272 4.224 4.272zm0-.864c-1.776 0-3.276-1.56-3.276-3.408 0-1.836 1.5-3.396 3.276-3.396 1.776 0 3.264 1.56 3.264 3.396 0 1.848-1.488 3.408-3.264 3.408zm13.19-4.884c0-1.548-1.33-2.64-3.033-2.64h-3.348v8.244h.936v-2.964h1.824l2.091 2.964h1.07l-2.105-2.988c1.475-.18 2.565-1.212 2.565-2.616zm-5.445-1.752h2.244c1.341 0 2.261.648 2.261 1.752s-.92 1.752-2.261 1.752h-2.244v-3.504zm10.445 7.488c1.92 0 2.9-1.068 2.9-2.376 0-1.452-1.12-2.016-2.7-2.388-1.4-.336-2.22-.636-2.22-1.488 0-.756.75-1.416 1.77-1.416.86 0 1.68.396 2.36 1.056l.58-.732c-.76-.696-1.67-1.176-2.89-1.176-1.59 0-2.76 1.02-2.76 2.34 0 1.428 1.04 1.944 2.7 2.328 1.44.336 2.22.684 2.22 1.56 0 .744-.65 1.44-1.92 1.44-1.16 0-2.01-.492-2.7-1.188l-.59.732c.83.816 1.89 1.308 3.25 1.308zm10.14-.132h.93v-8.244h-.75l-2.03 1.38.41.696 1.44-.936v7.104zm7.36 0h.93v-2.004h1.24v-.852h-1.24v-5.388h-1.08l-4.09 5.46.12.78h4.12v2.004zm-3.17-2.856l3.17-4.26v4.26h-3.17zm10.82 2.856h.94v-2.004h1.23v-.852h-1.23v-5.388h-1.08l-4.09 5.46.12.78h4.11v2.004zm-3.17-2.856l3.17-4.26v4.26h-3.17zm-75.284 24.612v3.24h-3.756v-3.24h-1.776v8.244h1.776v-3.408h3.756v3.408h1.764v-8.244h-1.764zm10.814 1.596v-1.596h-6.348v8.244h6.348v-1.596h-4.572v-1.812h4.152v-1.596h-4.152v-1.644h4.572zm4.091 5.052v-6.648h-1.776v8.244h5.88v-1.596h-4.104zm6.136 1.596h1.776v-5.136l2.544 4.656 2.556-4.656v5.136h1.764v-8.244h-1.764l-2.556 4.656-2.544-4.656h-1.776v8.244zm-20.045 20h1.02l-3.636-8.244h-1.02l-3.636 8.244h1.02l.828-1.872h4.596l.828 1.872zm-5.04-2.76l1.92-4.332 1.908 4.332h-3.828zm11.498 2.904c2.016 0 3.444-1.476 3.444-3.564v-4.824h-.936v4.824c0 1.584-1.044 2.712-2.508 2.712s-2.508-1.128-2.508-2.712v-4.824h-.936v4.824c0 2.088 1.428 3.564 3.444 3.564zm8.207-.144h.936v-7.356h2.772v-.888h-6.48v.888h2.772v7.356zm11.71-8.244v3.6h-4.86v-3.6h-.936v8.244h.936v-3.756h4.86v3.756h.936v-8.244h-.936zm7.743 8.388c2.292 0 4.212-1.956 4.212-4.272 0-2.316-1.92-4.26-4.212-4.26-2.28 0-4.224 1.944-4.224 4.26s1.944 4.272 4.224 4.272zm0-.864c-1.776 0-3.276-1.56-3.276-3.408 0-1.836 1.5-3.396 3.276-3.396 1.776 0 3.264 1.56 3.264 3.396 0 1.848-1.488 3.408-3.264 3.408zm13.19-4.884c0-1.548-1.33-2.64-3.033-2.64h-3.348v8.244h.936v-2.964h1.824l2.091 2.964h1.07l-2.105-2.988c1.475-.18 2.565-1.212 2.565-2.616zm-5.445-1.752h2.244c1.341 0 2.261.648 2.261 1.752s-.92 1.752-2.261 1.752h-2.244v-3.504zm10.445 7.488c1.92 0 2.9-1.068 2.9-2.376 0-1.452-1.12-2.016-2.7-2.388-1.4-.336-2.22-.636-2.22-1.488 0-.756.75-1.416 1.77-1.416.86 0 1.68.396 2.36 1.056l.58-.732c-.76-.696-1.67-1.176-2.89-1.176-1.59 0-2.76 1.02-2.76 2.34 0 1.428 1.04 1.944 2.7 2.328 1.44.336 2.22.684 2.22 1.56 0 .744-.65 1.44-1.92 1.44-1.16 0-2.01-.492-2.7-1.188l-.59.732c.83.816 1.89 1.308 3.25 1.308zm10.14-.132h.93v-8.244h-.75l-2.03 1.38.41.696 1.44-.936v7.104zm3.21 0h5.68v-.888h-4.18l2.16-1.872c1.39-1.2 1.94-2.088 1.94-3.204 0-1.476-1.2-2.424-2.63-2.424-1.29 0-2.22.612-2.9 1.584l.66.54c.56-.768 1.25-1.284 2.21-1.284.87 0 1.71.588 1.71 1.596 0 .816-.48 1.608-1.64 2.604l-3.01 2.568v.78zm10.33.144c1.72 0 2.87-.996 2.87-2.376 0-1.188-.93-1.8-1.77-1.992.85-.252 1.59-.876 1.59-1.932 0-1.32-1.15-2.232-2.72-2.232-1.29 0-2.2.624-2.82 1.452l.62.564c.59-.708 1.24-1.164 2.15-1.164 1.03 0 1.82.624 1.82 1.488 0 .936-.82 1.464-1.93 1.452l-.89-.012v.864h.88c1.3 0 2.12.492 2.12 1.464 0 .936-.76 1.572-1.92 1.572-1 0-1.81-.48-2.35-1.176l-.65.612c.6.792 1.65 1.416 3 1.416zm-76.168 23.208v-1.596h-6.348v8.244h6.348v-1.596h-4.572v-1.812h4.152v-1.596h-4.152v-1.644h4.572zm4.222 6.648h1.764v-6.648h2.58v-1.596h-6.912v1.596h2.568v6.648zm10.256.144c1.248 0 2.388-.54 3.192-1.38l-1.284-1.152c-.468.552-1.152.924-1.908.924-1.392 0-2.568-1.224-2.568-2.664 0-1.428 1.176-2.652 2.568-2.652.744 0 1.44.372 1.908.924l1.284-1.152a4.386 4.386 0 0 0-3.192-1.38c-2.376 0-4.392 1.944-4.392 4.26s2.016 4.272 4.392 4.272zm5.22-.144h2.964c2.772 0 4.74-1.716 4.74-4.128s-1.968-4.116-4.74-4.116h-2.964v8.244zm1.776-1.608v-5.028h1.416c1.572 0 2.688 1.044 2.688 2.508 0 1.476-1.116 2.52-2.688 2.52h-1.416zm-21.294 21.608h1.02l-3.636-8.244h-1.02l-3.636 8.244h1.02l.828-1.872h4.596l.828 1.872zm-5.04-2.76l1.92-4.332 1.908 4.332h-3.828zm11.498 2.904c2.016 0 3.444-1.476 3.444-3.564v-4.824h-.936v4.824c0 1.584-1.044 2.712-2.508 2.712s-2.508-1.128-2.508-2.712v-4.824h-.936v4.824c0 2.088 1.428 3.564 3.444 3.564zm8.207-.144h.936v-7.356h2.772v-.888h-6.48v.888h2.772v7.356zm11.71-8.244v3.6h-4.86v-3.6h-.936v8.244h.936v-3.756h4.86v3.756h.936v-8.244h-.936zm7.743 8.388c2.292 0 4.212-1.956 4.212-4.272 0-2.316-1.92-4.26-4.212-4.26-2.28 0-4.224 1.944-4.224 4.26s1.944 4.272 4.224 4.272zm0-.864c-1.776 0-3.276-1.56-3.276-3.408 0-1.836 1.5-3.396 3.276-3.396 1.776 0 3.264 1.56 3.264 3.396 0 1.848-1.488 3.408-3.264 3.408zm13.19-4.884c0-1.548-1.33-2.64-3.033-2.64h-3.348v8.244h.936v-2.964h1.824l2.091 2.964h1.07l-2.105-2.988c1.475-.18 2.565-1.212 2.565-2.616zm-5.445-1.752h2.244c1.341 0 2.261.648 2.261 1.752s-.92 1.752-2.261 1.752h-2.244v-3.504zm10.445 7.488c1.92 0 2.9-1.068 2.9-2.376 0-1.452-1.12-2.016-2.7-2.388-1.4-.336-2.22-.636-2.22-1.488 0-.756.75-1.416 1.77-1.416.86 0 1.68.396 2.36 1.056l.58-.732c-.76-.696-1.67-1.176-2.89-1.176-1.59 0-2.76 1.02-2.76 2.34 0 1.428 1.04 1.944 2.7 2.328 1.44.336 2.22.684 2.22 1.56 0 .744-.65 1.44-1.92 1.44-1.16 0-2.01-.492-2.7-1.188l-.59.732c.83.816 1.89 1.308 3.25 1.308zm10.14-.132h.93v-8.244h-.75l-2.03 1.38.41.696 1.44-.936v7.104zm6.16.144c1.71 0 2.87-.996 2.87-2.376 0-1.188-.94-1.8-1.78-1.992.85-.252 1.6-.876 1.6-1.932 0-1.32-1.16-2.232-2.73-2.232-1.28 0-2.19.624-2.82 1.452l.63.564c.58-.708 1.23-1.164 2.14-1.164 1.04 0 1.83.624 1.83 1.488 0 .936-.83 1.464-1.93 1.452l-.89-.012v.864h.87c1.3 0 2.13.492 2.13 1.464 0 .936-.77 1.572-1.92 1.572-1.01 0-1.81-.48-2.35-1.176l-.65.612c.6.792 1.64 1.416 3 1.416zm7.58 0c1.72 0 2.87-.996 2.87-2.376 0-1.188-.94-1.8-1.78-1.992.86-.252 1.6-.876 1.6-1.932 0-1.32-1.15-2.232-2.72-2.232-1.29 0-2.2.624-2.82 1.452l.62.564c.59-.708 1.24-1.164 2.15-1.164 1.03 0 1.82.624 1.82 1.488 0 .936-.83 1.464-1.93 1.452l-.89-.012v.864h.88c1.29 0 2.12.492 2.12 1.464 0 .936-.77 1.572-1.92 1.572-1.01 0-1.81-.48-2.35-1.176l-.65.612c.6.792 1.65 1.416 3 1.416zm86.3-369c1.66 0 2.83-1.176 2.83-2.832v-5.556h-1.77v5.412c0 .804-.52 1.368-1.25 1.368-.55 0-1.14-.372-1.41-.912l-1.17 1.152c.56.804 1.7 1.368 2.77 1.368zm11.37-.144h1.99l-3.36-8.244h-1.98l-3.36 8.244h1.98l.58-1.416h3.57l.58 1.416zm-3.59-2.796l1.22-3.012 1.23 3.012h-2.45zm13.88-3.852v-1.596h-6.35v8.244h6.35V18.68h-4.58v-1.812h4.16v-1.596h-4.16v-1.644h4.58zm5.94 3.396h1.9v1.26c-.45.336-1.04.528-1.59.528-1.42 0-2.61-1.224-2.61-2.664 0-1.428 1.19-2.652 2.61-2.652.75 0 1.55.36 2.04.924l1.28-1.152c-.81-.864-2.1-1.38-3.32-1.38-2.4 0-4.43 1.944-4.43 4.26s2.03 4.272 4.43 4.272c1.22 0 2.51-.516 3.32-1.38v-3.396h-3.63v1.38zm12.34-3.396v-1.596h-6.35v8.244h6.35V18.68h-4.57v-1.812h4.15v-1.596h-4.15v-1.644h4.57zm9.13 1.188c0-1.632-1.3-2.784-3.1-2.784h-3.71v8.244h1.77V17.6h1.07l1.89 2.676h2.01l-1.98-2.82c1.24-.36 2.05-1.344 2.05-2.64zm-5.04-1.164h1.76c.87 0 1.47.456 1.47 1.164s-.6 1.164-1.47 1.164h-1.76v-2.328zm-39.52 26.624h1.02l-3.63-8.244h-1.02l-3.64 8.244h1.02l.83-1.872h4.59l.83 1.872zm-5.04-2.76l1.92-4.332 1.91 4.332h-3.83zm11.5 2.904c2.02 0 3.44-1.476 3.44-3.564v-4.824h-.93v4.824c0 1.584-1.05 2.712-2.51 2.712-1.46 0-2.51-1.128-2.51-2.712v-4.824h-.93v4.824c0 2.088 1.42 3.564 3.44 3.564zm8.21-.144h.93V32.92h2.77v-.888h-6.48v.888h2.78v7.356zm11.71-8.244v3.6h-4.86v-3.6h-.94v8.244h.94V36.52h4.86v3.756h.93v-8.244h-.93zm7.74 8.388c2.29 0 4.21-1.956 4.21-4.272 0-2.316-1.92-4.26-4.21-4.26-2.28 0-4.22 1.944-4.22 4.26s1.94 4.272 4.22 4.272zm0-.864c-1.78 0-3.28-1.56-3.28-3.408 0-1.836 1.5-3.396 3.28-3.396 1.78 0 3.26 1.56 3.26 3.396 0 1.848-1.48 3.408-3.26 3.408zm13.19-4.884c0-1.548-1.33-2.64-3.03-2.64h-3.35v8.244h.94v-2.964h1.82l2.09 2.964h1.07l-2.1-2.988c1.47-.18 2.56-1.212 2.56-2.616zm-5.44-1.752h2.24c1.34 0 2.26.648 2.26 1.752s-.92 1.752-2.26 1.752h-2.24V32.92zm10.44 7.488c1.92 0 2.9-1.068 2.9-2.376 0-1.452-1.12-2.016-2.7-2.388-1.4-.336-2.22-.636-2.22-1.488 0-.756.75-1.416 1.77-1.416.86 0 1.68.396 2.36 1.056l.58-.732c-.76-.696-1.67-1.176-2.89-1.176-1.59 0-2.76 1.02-2.76 2.34 0 1.428 1.04 1.944 2.7 2.328 1.44.336 2.22.684 2.22 1.56 0 .744-.65 1.44-1.92 1.44-1.16 0-2.01-.492-2.7-1.188l-.59.732c.83.816 1.89 1.308 3.25 1.308zm10.14-.132h.93v-8.244h-.75l-2.03 1.38.41.696 1.44-.936v7.104zm6.95.144c2 0 3.42-1.764 3.42-4.272 0-2.496-1.42-4.26-3.42-4.26-2.02 0-3.43 1.764-3.43 4.26 0 2.508 1.41 4.272 3.43 4.272zm0-.864c-1.45 0-2.48-1.416-2.48-3.408s1.03-3.396 2.48-3.396 2.47 1.404 2.47 3.396-1.02 3.408-2.47 3.408zm8.46.864c1.7 0 3.02-.9 3.02-2.304 0-1.032-.82-1.764-1.82-2.1.86-.312 1.61-.924 1.61-1.932 0-1.356-1.33-2.196-2.81-2.196-1.42 0-2.79.816-2.79 2.184 0 .948.67 1.584 1.61 1.944-1.01.324-1.83 1.068-1.83 2.1 0 1.392 1.31 2.304 3.01 2.304zm0-4.776c-.78-.048-1.84-.516-1.84-1.476 0-.828.81-1.428 1.84-1.428 1.04 0 1.86.6 1.86 1.428 0 .936-1.05 1.428-1.86 1.476zm0 3.924c-1.14 0-2.06-.612-2.06-1.512 0-.996 1.21-1.572 2.06-1.596.87.024 2.07.6 2.07 1.596 0 .9-.93 1.512-2.07 1.512zm-82.61 29.112v-6.648h-1.78v8.244h5.88V68.68h-4.1zm6.14 1.596h1.77v-8.244h-1.77v8.244zm4.46 0h1.78v-5.328l3.97 5.328h1.78v-8.244h-1.78v5.328l-3.97-5.328h-1.78v8.244zm10.21 0h1.78v-2.304l1.03-1.104 2.52 3.408h2.16l-3.46-4.668 3.22-3.576h-2.14l-3.33 3.78v-3.78h-1.78v8.244zm15.78-6.648v-1.596h-6.35v8.244h6.35V68.68h-4.58v-1.812h4.16v-1.596h-4.16v-1.644h4.58zm9.13 1.188c0-1.632-1.31-2.784-3.11-2.784h-3.71v8.244h1.78V67.6h1.06l1.89 2.676h2.01l-1.98-2.82c1.24-.36 2.06-1.344 2.06-2.64zm-5.04-1.164h1.75c.87 0 1.47.456 1.47 1.164s-.6 1.164-1.47 1.164h-1.75v-2.328zm7.27 6.624h2.96c2.77 0 4.74-1.716 4.74-4.128s-1.97-4.116-4.74-4.116h-2.96v8.244zm1.77-1.608V63.64h1.42c1.57 0 2.69 1.044 2.69 2.508 0 1.476-1.12 2.52-2.69 2.52h-1.42zm-44.97 21.608h1.02l-3.63-8.244h-1.02l-3.64 8.244h1.02l.83-1.872h4.59l.83 1.872zm-5.04-2.76l1.92-4.332 1.91 4.332h-3.83zm11.5 2.904c2.02 0 3.44-1.476 3.44-3.564v-4.824h-.93v4.824c0 1.584-1.05 2.712-2.51 2.712-1.46 0-2.51-1.128-2.51-2.712v-4.824h-.93v4.824c0 2.088 1.42 3.564 3.44 3.564zm8.21-.144h.93V82.92h2.77v-.888h-6.48v.888h2.78v7.356zm11.71-8.244v3.6h-4.86v-3.6h-.94v8.244h.94V86.52h4.86v3.756h.93v-8.244h-.93zm7.74 8.388c2.29 0 4.21-1.956 4.21-4.272 0-2.316-1.92-4.26-4.21-4.26-2.28 0-4.22 1.944-4.22 4.26s1.94 4.272 4.22 4.272zm0-.864c-1.78 0-3.28-1.56-3.28-3.408 0-1.836 1.5-3.396 3.28-3.396 1.78 0 3.26 1.56 3.26 3.396 0 1.848-1.48 3.408-3.26 3.408zm13.19-4.884c0-1.548-1.33-2.64-3.03-2.64h-3.35v8.244h.94v-2.964h1.82l2.09 2.964h1.07l-2.1-2.988c1.47-.18 2.56-1.212 2.56-2.616zm-5.44-1.752h2.24c1.34 0 2.26.648 2.26 1.752s-.92 1.752-2.26 1.752h-2.24V82.92zm10.44 7.488c1.92 0 2.9-1.068 2.9-2.376 0-1.452-1.12-2.016-2.7-2.388-1.4-.336-2.22-.636-2.22-1.488 0-.756.75-1.416 1.77-1.416.86 0 1.68.396 2.36 1.056l.58-.732c-.76-.696-1.67-1.176-2.89-1.176-1.59 0-2.76 1.02-2.76 2.34 0 1.428 1.04 1.944 2.7 2.328 1.44.336 2.22.684 2.22 1.56 0 .744-.65 1.44-1.92 1.44-1.16 0-2.01-.492-2.7-1.188l-.59.732c.83.816 1.89 1.308 3.25 1.308zm10.14-.132h.93v-8.244h-.75l-2.03 1.38.41.696 1.44-.936v7.104zm6.95.144c2 0 3.42-1.764 3.42-4.272 0-2.496-1.42-4.26-3.42-4.26-2.02 0-3.43 1.764-3.43 4.26 0 2.508 1.41 4.272 3.43 4.272zm0-.864c-1.45 0-2.48-1.416-2.48-3.408s1.03-3.396 2.48-3.396 2.47 1.404 2.47 3.396-1.02 3.408-2.47 3.408zm5.96.72h1.08l3.55-7.536v-.708h-5.58v.888h4.46l-3.51 7.356zm-77.99 30.144c1.25 0 2.39-.54 3.2-1.38l-1.29-1.152c-.47.552-1.15.924-1.91.924-1.39 0-2.56-1.224-2.56-2.664 0-1.428 1.17-2.652 2.56-2.652.75 0 1.44.372 1.91.924l1.29-1.152a4.41 4.41 0 0 0-3.2-1.38c-2.37 0-4.39 1.944-4.39 4.26s2.02 4.272 4.39 4.272zm9.12 0c2.38 0 4.37-1.956 4.37-4.272 0-2.316-1.99-4.26-4.37-4.26-2.37 0-4.39 1.944-4.39 4.26s2.02 4.272 4.39 4.272zm0-1.608c-1.39 0-2.56-1.224-2.56-2.664 0-1.428 1.17-2.652 2.56-2.652 1.38 0 2.56 1.224 2.56 2.652 0 1.44-1.18 2.664-2.56 2.664zm6.58 1.464h1.78v-5.328l3.97 5.328h1.78v-8.244h-1.78v5.328l-3.97-5.328h-1.78v8.244zm14.11.144c1.25 0 2.39-.54 3.19-1.38l-1.28-1.152c-.47.552-1.15.924-1.91.924-1.39 0-2.57-1.224-2.57-2.664 0-1.428 1.18-2.652 2.57-2.652.75 0 1.44.372 1.91.924l1.28-1.152a4.371 4.371 0 0 0-3.19-1.38c-2.37 0-4.39 1.944-4.39 4.26s2.02 4.272 4.39 4.272zm11.19-.144h1.99l-3.36-8.244h-1.98l-3.36 8.244h1.98l.57-1.416h3.58l.58 1.416zm-3.59-2.796l1.22-3.012 1.23 3.012h-2.45zm9.43 2.796h1.77v-6.648h2.58v-1.596h-6.91v1.596h2.56v6.648zm12.71-6.648v-1.596h-6.35v8.244h6.35v-1.596h-4.57v-1.812h4.15v-1.596h-4.15v-1.644h4.57zm2.31 6.648h1.78v-5.328l3.97 5.328h1.78v-8.244h-1.78v5.328l-3.97-5.328h-1.78v8.244zm16.18 0h1.99l-3.36-8.244h-1.98l-3.36 8.244h1.98l.57-1.416h3.58l.58 1.416zm-3.59-2.796l1.22-3.012 1.23 3.012h-2.45zm9.43 2.796h1.77v-6.648h2.58v-1.596h-6.91v1.596h2.56v6.648zm12.71-6.648v-1.596h-6.35v8.244h6.35v-1.596h-4.57v-1.812h4.15v-1.596h-4.15v-1.644h4.57zm-93.96 26.648h1.02l-3.63-8.244h-1.02l-3.64 8.244h1.02l.83-1.872h4.59l.83 1.872zm-5.04-2.76l1.92-4.332 1.91 4.332h-3.83zm11.5 2.904c2.02 0 3.44-1.476 3.44-3.564v-4.824h-.93v4.824c0 1.584-1.05 2.712-2.51 2.712-1.46 0-2.51-1.128-2.51-2.712v-4.824h-.93v4.824c0 2.088 1.42 3.564 3.44 3.564zm8.21-.144h.93v-7.356h2.77v-.888h-6.48v.888h2.78v7.356zm11.71-8.244v3.6h-4.86v-3.6h-.94v8.244h.94v-3.756h4.86v3.756h.93v-8.244h-.93zm7.74 8.388c2.29 0 4.21-1.956 4.21-4.272 0-2.316-1.92-4.26-4.21-4.26-2.28 0-4.22 1.944-4.22 4.26s1.94 4.272 4.22 4.272zm0-.864c-1.78 0-3.28-1.56-3.28-3.408 0-1.836 1.5-3.396 3.28-3.396 1.78 0 3.26 1.56 3.26 3.396 0 1.848-1.48 3.408-3.26 3.408zm13.19-4.884c0-1.548-1.33-2.64-3.03-2.64h-3.35v8.244h.94v-2.964h1.82l2.09 2.964h1.07l-2.1-2.988c1.47-.18 2.56-1.212 2.56-2.616zm-5.44-1.752h2.24c1.34 0 2.26.648 2.26 1.752s-.92 1.752-2.26 1.752h-2.24v-3.504zm10.44 7.488c1.92 0 2.9-1.068 2.9-2.376 0-1.452-1.12-2.016-2.7-2.388-1.4-.336-2.22-.636-2.22-1.488 0-.756.75-1.416 1.77-1.416.86 0 1.68.396 2.36 1.056l.58-.732c-.76-.696-1.67-1.176-2.89-1.176-1.59 0-2.76 1.02-2.76 2.34 0 1.428 1.04 1.944 2.7 2.328 1.44.336 2.22.684 2.22 1.56 0 .744-.65 1.44-1.92 1.44-1.16 0-2.01-.492-2.7-1.188l-.59.732c.83.816 1.89 1.308 3.25 1.308zm10.14-.132h.93v-8.244h-.75l-2.03 1.38.41.696 1.44-.936v7.104zm6.95.144c2 0 3.42-1.764 3.42-4.272 0-2.496-1.42-4.26-3.42-4.26-2.02 0-3.43 1.764-3.43 4.26 0 2.508 1.41 4.272 3.43 4.272zm0-.864c-1.45 0-2.48-1.416-2.48-3.408s1.03-3.396 2.48-3.396 2.47 1.404 2.47 3.396-1.02 3.408-2.47 3.408zm8.31.864c1.69 0 2.93-1.08 2.93-2.712 0-1.632-1.24-2.568-2.73-2.568-.75 0-1.32.252-1.76.552l.08-2.772h3.96v-.888h-4.87l-.12 4.236.68.336c.52-.384 1.13-.636 1.84-.636 1.15 0 1.97.72 1.97 1.776 0 1.044-.81 1.836-1.95 1.836-.91 0-1.69-.456-2.32-1.152l-.62.684a3.768 3.768 0 0 0 2.91 1.308zm-78.26 21.612l-2.35 5.808-2.37-5.808h-1.99l3.36 8.244h1.98l3.36-8.244h-1.99zm3.95 8.244h1.78v-8.244h-1.78v8.244zm6.38 0h1.76v-6.648h2.58v-1.596h-6.91v1.596h2.57v6.648zm12.7-6.648v-1.596h-6.35v8.244h6.35v-1.596h-4.57v-1.812h4.15v-1.596h-4.15v-1.644h4.57zm5.36 6.792c2.01 0 3.21-1.044 3.21-2.616 0-1.524-1.18-2.052-2.95-2.448-1.28-.288-1.78-.48-1.78-1.08 0-.492.47-.888 1.21-.888.79 0 1.62.324 2.37.924l.92-1.284c-.85-.72-1.88-1.14-3.23-1.14-1.81 0-3.06 1.044-3.06 2.568 0 1.596 1.25 2.088 2.99 2.484 1.26.288 1.74.468 1.74 1.056 0 .516-.46.924-1.36.924-1.04 0-1.93-.408-2.71-1.08l-1.01 1.212c.96.888 2.22 1.368 3.66 1.368zm8.43 0c2.01 0 3.21-1.044 3.21-2.616 0-1.524-1.18-2.052-2.96-2.448-1.27-.288-1.77-.48-1.77-1.08 0-.492.47-.888 1.21-.888.79 0 1.62.324 2.36.924l.93-1.284c-.85-.72-1.89-1.14-3.23-1.14-1.81 0-3.06 1.044-3.06 2.568 0 1.596 1.25 2.088 2.99 2.484 1.26.288 1.74.468 1.74 1.056 0 .516-.46.924-1.36.924-1.04 0-1.93-.408-2.71-1.08l-1.01 1.212c.96.888 2.22 1.368 3.66 1.368zm-36.27 19.856h1.02l-3.63-8.244h-1.02l-3.64 8.244h1.02l.83-1.872h4.59l.83 1.872zm-5.04-2.76l1.92-4.332 1.91 4.332h-3.83zm11.5 2.904c2.02 0 3.44-1.476 3.44-3.564v-4.824h-.93v4.824c0 1.584-1.05 2.712-2.51 2.712-1.46 0-2.51-1.128-2.51-2.712v-4.824h-.93v4.824c0 2.088 1.42 3.564 3.44 3.564zm8.21-.144h.93v-7.356h2.77v-.888h-6.48v.888h2.78v7.356zm11.71-8.244v3.6h-4.86v-3.6h-.94v8.244h.94v-3.756h4.86v3.756h.93v-8.244h-.93zm7.74 8.388c2.29 0 4.21-1.956 4.21-4.272 0-2.316-1.92-4.26-4.21-4.26-2.28 0-4.22 1.944-4.22 4.26s1.94 4.272 4.22 4.272zm0-.864c-1.78 0-3.28-1.56-3.28-3.408 0-1.836 1.5-3.396 3.28-3.396 1.78 0 3.26 1.56 3.26 3.396 0 1.848-1.48 3.408-3.26 3.408zm13.19-4.884c0-1.548-1.33-2.64-3.03-2.64h-3.35v8.244h.94v-2.964h1.82l2.09 2.964h1.07l-2.1-2.988c1.47-.18 2.56-1.212 2.56-2.616zm-5.44-1.752h2.24c1.34 0 2.26.648 2.26 1.752s-.92 1.752-2.26 1.752h-2.24v-3.504zm10.44 7.488c1.92 0 2.9-1.068 2.9-2.376 0-1.452-1.12-2.016-2.7-2.388-1.4-.336-2.22-.636-2.22-1.488 0-.756.75-1.416 1.77-1.416.86 0 1.68.396 2.36 1.056l.58-.732c-.76-.696-1.67-1.176-2.89-1.176-1.59 0-2.76 1.02-2.76 2.34 0 1.428 1.04 1.944 2.7 2.328 1.44.336 2.22.684 2.22 1.56 0 .744-.65 1.44-1.92 1.44-1.16 0-2.01-.492-2.7-1.188l-.59.732c.83.816 1.89 1.308 3.25 1.308zm9.26-.132h1.08l3.55-7.536v-.708h-5.58v.888h4.47l-3.52 7.356zm9.13.144c1.69 0 2.93-1.08 2.93-2.712 0-1.632-1.24-2.568-2.73-2.568-.75 0-1.32.252-1.76.552l.08-2.772h3.96v-.888h-4.87l-.12 4.236.68.336c.52-.384 1.13-.636 1.84-.636 1.15 0 1.97.72 1.97 1.776 0 1.044-.81 1.836-1.95 1.836-.91 0-1.69-.456-2.32-1.152l-.62.684a3.768 3.768 0 0 0 2.91 1.308zm-71.69 21.612v3.24h-3.76v-3.24h-1.78v8.244h1.78v-3.408h3.76v3.408h1.76v-8.244h-1.76zm10.43 8.244h1.99l-3.36-8.244h-1.98l-3.36 8.244h1.98l.57-1.416h3.58l.58 1.416zm-3.59-2.796l1.22-3.012 1.23 3.012h-2.45zm14.34-2.664c0-1.632-1.3-2.784-3.1-2.784h-3.71v8.244h1.77v-2.676h1.07l1.89 2.676h2.01l-1.98-2.82c1.24-.36 2.05-1.344 2.05-2.64zm-5.04-1.164h1.76c.87 0 1.47.456 1.47 1.164s-.6 1.164-1.47 1.164h-1.76v-2.328zm7.28 6.624h4.34c1.57 0 2.7-.912 2.7-2.232 0-.912-.55-1.68-1.51-2.112.73-.384 1.15-.996 1.15-1.836 0-1.2-1.03-2.064-2.51-2.064H1144v8.244zm1.76-4.92v-1.812h1.98c.66 0 1.13.384 1.13.9 0 .528-.47.912-1.13.912h-1.98zm0 3.408v-2.016h2.24c.72 0 1.23.42 1.23 1.008 0 .588-.51 1.008-1.23 1.008h-2.24zm11.4 1.656c2.37 0 4.36-1.956 4.36-4.272 0-2.316-1.99-4.26-4.36-4.26-2.38 0-4.4 1.944-4.4 4.26s2.02 4.272 4.4 4.272zm0-1.608c-1.4 0-2.57-1.224-2.57-2.664 0-1.428 1.17-2.652 2.57-2.652 1.38 0 2.55 1.224 2.55 2.652 0 1.44-1.17 2.664-2.55 2.664zm13.39-3.996c0-1.632-1.31-2.784-3.11-2.784h-3.7v8.244h1.77v-2.676h1.07l1.88 2.676h2.02l-1.98-2.82c1.24-.36 2.05-1.344 2.05-2.64zm-5.04-1.164h1.75c.88 0 1.48.456 1.48 1.164s-.6 1.164-1.48 1.164h-1.75v-2.328zm-43.94 26.624h1.02l-3.63-8.244h-1.02l-3.64 8.244h1.02l.83-1.872h4.59l.83 1.872zm-5.04-2.76l1.92-4.332 1.91 4.332h-3.83zm11.5 2.904c2.02 0 3.44-1.476 3.44-3.564v-4.824h-.93v4.824c0 1.584-1.05 2.712-2.51 2.712-1.46 0-2.51-1.128-2.51-2.712v-4.824h-.93v4.824c0 2.088 1.42 3.564 3.44 3.564zm8.21-.144h.93v-7.356h2.77v-.888h-6.48v.888h2.78v7.356zm11.71-8.244v3.6h-4.86v-3.6h-.94v8.244h.94v-3.756h4.86v3.756h.93v-8.244h-.93zm7.74 8.388c2.29 0 4.21-1.956 4.21-4.272 0-2.316-1.92-4.26-4.21-4.26-2.28 0-4.22 1.944-4.22 4.26s1.94 4.272 4.22 4.272zm0-.864c-1.78 0-3.28-1.56-3.28-3.408 0-1.836 1.5-3.396 3.28-3.396 1.78 0 3.26 1.56 3.26 3.396 0 1.848-1.48 3.408-3.26 3.408zm13.19-4.884c0-1.548-1.33-2.64-3.03-2.64h-3.35v8.244h.94v-2.964h1.82l2.09 2.964h1.07l-2.1-2.988c1.47-.18 2.56-1.212 2.56-2.616zm-5.44-1.752h2.24c1.34 0 2.26.648 2.26 1.752s-.92 1.752-2.26 1.752h-2.24v-3.504zm10.44 7.488c1.92 0 2.9-1.068 2.9-2.376 0-1.452-1.12-2.016-2.7-2.388-1.4-.336-2.22-.636-2.22-1.488 0-.756.75-1.416 1.77-1.416.86 0 1.68.396 2.36 1.056l.58-.732c-.76-.696-1.67-1.176-2.89-1.176-1.59 0-2.76 1.02-2.76 2.34 0 1.428 1.04 1.944 2.7 2.328 1.44.336 2.22.684 2.22 1.56 0 .744-.65 1.44-1.92 1.44-1.16 0-2.01-.492-2.7-1.188l-.59.732c.83.816 1.89 1.308 3.25 1.308zm9.26-.132h1.08l3.55-7.536v-.708h-5.58v.888h4.47l-3.52 7.356zm10.12 0h.94v-2.004h1.24v-.852h-1.24v-5.388h-1.08l-4.09 5.46.12.78h4.11v2.004zm-3.16-2.856l3.16-4.26v4.26h-3.16zm-68.24 27.396c0-1.632-1.31-2.784-3.11-2.784h-3.71v8.244h1.78v-2.676h1.07l1.88 2.676h2.02l-1.98-2.82c1.23-.36 2.05-1.344 2.05-2.64zm-5.04-1.164h1.75c.88 0 1.48.456 1.48 1.164s-.6 1.164-1.48 1.164h-1.75v-2.328zm11.17 6.768c2.38 0 4.37-1.956 4.37-4.272 0-2.316-1.99-4.26-4.37-4.26-2.37 0-4.39 1.944-4.39 4.26s2.02 4.272 4.39 4.272zm0-1.608c-1.39 0-2.56-1.224-2.56-2.664 0-1.428 1.17-2.652 2.56-2.652 1.38 0 2.56 1.224 2.56 2.652 0 1.44-1.18 2.664-2.56 2.664zm10.48 1.608c2.38 0 4.37-1.956 4.37-4.272 0-2.316-1.99-4.26-4.37-4.26-2.37 0-4.39 1.944-4.39 4.26s2.02 4.272 4.39 4.272zm0-1.608c-1.39 0-2.57-1.224-2.57-2.664 0-1.428 1.18-2.652 2.57-2.652 1.38 0 2.56 1.224 2.56 2.652 0 1.44-1.18 2.664-2.56 2.664zm6.58 1.464h1.78v-2.304l1.03-1.104 2.52 3.408h2.16l-3.46-4.668 3.22-3.576h-2.14l-3.33 3.78v-3.78h-1.78v8.244zm-23.48 20h1.02l-3.63-8.244h-1.02l-3.64 8.244h1.02l.83-1.872h4.59l.83 1.872zm-5.04-2.76l1.92-4.332 1.91 4.332h-3.83zm11.5 2.904c2.02 0 3.44-1.476 3.44-3.564v-4.824h-.93v4.824c0 1.584-1.05 2.712-2.51 2.712-1.46 0-2.51-1.128-2.51-2.712v-4.824h-.93v4.824c0 2.088 1.42 3.564 3.44 3.564zm8.21-.144h.93v-7.356h2.77v-.888h-6.48v.888h2.78v7.356zm11.71-8.244v3.6h-4.86v-3.6h-.94v8.244h.94v-3.756h4.86v3.756h.93v-8.244h-.93zm7.74 8.388c2.29 0 4.21-1.956 4.21-4.272 0-2.316-1.92-4.26-4.21-4.26-2.28 0-4.22 1.944-4.22 4.26s1.94 4.272 4.22 4.272zm0-.864c-1.78 0-3.28-1.56-3.28-3.408 0-1.836 1.5-3.396 3.28-3.396 1.78 0 3.26 1.56 3.26 3.396 0 1.848-1.48 3.408-3.26 3.408zm13.19-4.884c0-1.548-1.33-2.64-3.03-2.64h-3.35v8.244h.94v-2.964h1.82l2.09 2.964h1.07l-2.1-2.988c1.47-.18 2.56-1.212 2.56-2.616zm-5.44-1.752h2.24c1.34 0 2.26.648 2.26 1.752s-.92 1.752-2.26 1.752h-2.24v-3.504zm10.44 7.488c1.92 0 2.9-1.068 2.9-2.376 0-1.452-1.12-2.016-2.7-2.388-1.4-.336-2.22-.636-2.22-1.488 0-.756.75-1.416 1.77-1.416.86 0 1.68.396 2.36 1.056l.58-.732c-.76-.696-1.67-1.176-2.89-1.176-1.59 0-2.76 1.02-2.76 2.34 0 1.428 1.04 1.944 2.7 2.328 1.44.336 2.22.684 2.22 1.56 0 .744-.65 1.44-1.92 1.44-1.16 0-2.01-.492-2.7-1.188l-.59.732c.83.816 1.89 1.308 3.25 1.308zm12.08-5.28c-.97 0-1.82.468-2.33 1.26v-.108c0-1.98 1.05-3.54 2.37-3.54.79 0 1.33.36 1.84.864l.52-.732c-.61-.588-1.33-.984-2.34-.984-1.87 0-3.34 1.932-3.34 4.392 0 2.328.9 4.14 3.14 4.14 1.71 0 2.9-1.2 2.9-2.724 0-1.632-1.26-2.568-2.76-2.568zm-.16 4.488c-1.15 0-1.82-.9-2.06-2.148.2-.912 1.01-1.536 2.05-1.536 1.11 0 1.98.684 1.98 1.812 0 .912-.73 1.872-1.97 1.872zm8.16-4.488c-.98 0-1.83.468-2.33 1.26v-.108c0-1.98 1.04-3.54 2.36-3.54.79 0 1.33.36 1.85.864l.52-.732c-.62-.588-1.34-.984-2.34-.984-1.88 0-3.34 1.932-3.34 4.392 0 2.328.9 4.14 3.13 4.14 1.72 0 2.91-1.2 2.91-2.724 0-1.632-1.26-2.568-2.76-2.568zm-.16 4.488c-1.15 0-1.82-.9-2.06-2.148.2-.912 1-1.536 2.05-1.536 1.1 0 1.98.684 1.98 1.812 0 .912-.73 1.872-1.97 1.872zm-74.86 30.804c1.25 0 2.39-.54 3.2-1.38l-1.29-1.152c-.47.552-1.15.924-1.91.924-1.39 0-2.56-1.224-2.56-2.664 0-1.428 1.17-2.652 2.56-2.652.75 0 1.44.372 1.91.924l1.29-1.152a4.41 4.41 0 0 0-3.2-1.38c-2.37 0-4.39 1.944-4.39 4.26s2.02 4.272 4.39 4.272zm9.12 0c2.38 0 4.37-1.956 4.37-4.272 0-2.316-1.99-4.26-4.37-4.26-2.37 0-4.39 1.944-4.39 4.26s2.02 4.272 4.39 4.272zm0-1.608c-1.39 0-2.56-1.224-2.56-2.664 0-1.428 1.17-2.652 2.56-2.652 1.38 0 2.56 1.224 2.56 2.652 0 1.44-1.18 2.664-2.56 2.664zm13.4-3.996c0-1.632-1.31-2.784-3.11-2.784h-3.71v8.244h1.78v-2.676h1.07l1.88 2.676h2.02l-1.98-2.82c1.23-.36 2.05-1.344 2.05-2.64zm-5.04-1.164h1.75c.88 0 1.48.456 1.48 1.164s-.6 1.164-1.48 1.164h-1.75v-2.328zm13.62-.024v-1.596h-6.35v8.244h6.35v-1.596h-4.57v-1.812h4.15v-1.596h-4.15v-1.644h4.57zm2.31 6.648h2.97c2.77 0 4.74-1.716 4.74-4.128s-1.97-4.116-4.74-4.116h-2.97v8.244zm1.78-1.608v-5.028h1.42c1.57 0 2.68 1.044 2.68 2.508 0 1.476-1.11 2.52-2.68 2.52h-1.42zm8.12 1.608h1.77v-5.328l3.98 5.328h1.77v-8.244H1168v5.328l-3.98-5.328h-1.77v8.244zm13.25.144c2.01 0 3.21-1.044 3.21-2.616 0-1.524-1.18-2.052-2.95-2.448-1.28-.288-1.78-.48-1.78-1.08 0-.492.47-.888 1.21-.888.79 0 1.62.324 2.37.924l.92-1.284c-.85-.72-1.88-1.14-3.23-1.14-1.81 0-3.06 1.044-3.06 2.568 0 1.596 1.25 2.088 2.99 2.484 1.26.288 1.74.468 1.74 1.056 0 .516-.46.924-1.36.924-1.04 0-1.93-.408-2.71-1.08l-1.01 1.212c.96.888 2.22 1.368 3.66 1.368zm-53.93 19.856h1.02l-3.63-8.244h-1.02l-3.64 8.244h1.02l.83-1.872h4.59l.83 1.872zm-5.04-2.76l1.92-4.332 1.91 4.332h-3.83zm11.5 2.904c2.02 0 3.44-1.476 3.44-3.564v-4.824h-.93v4.824c0 1.584-1.05 2.712-2.51 2.712-1.46 0-2.51-1.128-2.51-2.712v-4.824h-.93v4.824c0 2.088 1.42 3.564 3.44 3.564zm8.21-.144h.93v-7.356h2.77v-.888h-6.48v.888h2.78v7.356zm11.71-8.244v3.6h-4.86v-3.6h-.94v8.244h.94v-3.756h4.86v3.756h.93v-8.244h-.93zm7.74 8.388c2.29 0 4.21-1.956 4.21-4.272 0-2.316-1.92-4.26-4.21-4.26-2.28 0-4.22 1.944-4.22 4.26s1.94 4.272 4.22 4.272zm0-.864c-1.78 0-3.28-1.56-3.28-3.408 0-1.836 1.5-3.396 3.28-3.396 1.78 0 3.26 1.56 3.26 3.396 0 1.848-1.48 3.408-3.26 3.408zm13.19-4.884c0-1.548-1.33-2.64-3.03-2.64h-3.35v8.244h.94v-2.964h1.82l2.09 2.964h1.07l-2.1-2.988c1.47-.18 2.56-1.212 2.56-2.616zm-5.44-1.752h2.24c1.34 0 2.26.648 2.26 1.752s-.92 1.752-2.26 1.752h-2.24v-3.504zm10.44 7.488c1.92 0 2.9-1.068 2.9-2.376 0-1.452-1.12-2.016-2.7-2.388-1.4-.336-2.22-.636-2.22-1.488 0-.756.75-1.416 1.77-1.416.86 0 1.68.396 2.36 1.056l.58-.732c-.76-.696-1.67-1.176-2.89-1.176-1.59 0-2.76 1.02-2.76 2.34 0 1.428 1.04 1.944 2.7 2.328 1.44.336 2.22.684 2.22 1.56 0 .744-.65 1.44-1.92 1.44-1.16 0-2.01-.492-2.7-1.188l-.59.732c.83.816 1.89 1.308 3.25 1.308zm12.08-5.28c-.97 0-1.82.468-2.33 1.26v-.108c0-1.98 1.05-3.54 2.37-3.54.79 0 1.33.36 1.84.864l.52-.732c-.61-.588-1.33-.984-2.34-.984-1.87 0-3.34 1.932-3.34 4.392 0 2.328.9 4.14 3.14 4.14 1.71 0 2.9-1.2 2.9-2.724 0-1.632-1.26-2.568-2.76-2.568zm-.16 4.488c-1.15 0-1.82-.9-2.06-2.148.2-.912 1.01-1.536 2.05-1.536 1.11 0 1.98.684 1.98 1.812 0 .912-.73 1.872-1.97 1.872zm8.28.804c2 0 3.42-1.764 3.42-4.272 0-2.496-1.42-4.26-3.42-4.26-2.02 0-3.44 1.764-3.44 4.26 0 2.508 1.42 4.272 3.44 4.272zm0-.864c-1.46 0-2.49-1.416-2.49-3.408s1.03-3.396 2.49-3.396c1.45 0 2.47 1.404 2.47 3.396s-1.02 3.408-2.47 3.408zm-77.13 30.72h1.77v-6.648h2.58v-1.596h-6.92v1.596h2.57v6.648zm9.91.144c2.18 0 3.73-1.536 3.73-3.708v-4.68h-1.77v4.608c0 1.272-.82 2.172-1.96 2.172-1.15 0-1.97-.9-1.97-2.172v-4.608h-1.76v4.68c0 2.172 1.53 3.708 3.73 3.708zm12.58-6.792v-1.596h-6.34v8.244h1.77v-3.264h4.15v-1.596h-4.15v-1.788h4.57zm-17.87 26.648h1.02l-3.63-8.244h-1.02l-3.64 8.244h1.02l.83-1.872h4.59l.83 1.872zm-5.04-2.76l1.92-4.332 1.91 4.332h-3.83zm11.5 2.904c2.02 0 3.44-1.476 3.44-3.564v-4.824h-.93v4.824c0 1.584-1.05 2.712-2.51 2.712-1.46 0-2.51-1.128-2.51-2.712v-4.824h-.93v4.824c0 2.088 1.42 3.564 3.44 3.564zm8.21-.144h.93v-7.356h2.77v-.888h-6.48v.888h2.78v7.356zm11.71-8.244v3.6h-4.86v-3.6h-.94v8.244h.94v-3.756h4.86v3.756h.93v-8.244h-.93zm7.74 8.388c2.29 0 4.21-1.956 4.21-4.272 0-2.316-1.92-4.26-4.21-4.26-2.28 0-4.22 1.944-4.22 4.26s1.94 4.272 4.22 4.272zm0-.864c-1.78 0-3.28-1.56-3.28-3.408 0-1.836 1.5-3.396 3.28-3.396 1.78 0 3.26 1.56 3.26 3.396 0 1.848-1.48 3.408-3.26 3.408zm13.19-4.884c0-1.548-1.33-2.64-3.03-2.64h-3.35v8.244h.94v-2.964h1.82l2.09 2.964h1.07l-2.1-2.988c1.47-.18 2.56-1.212 2.56-2.616zm-5.44-1.752h2.24c1.34 0 2.26.648 2.26 1.752s-.92 1.752-2.26 1.752h-2.24v-3.504zm10.44 7.488c1.92 0 2.9-1.068 2.9-2.376 0-1.452-1.12-2.016-2.7-2.388-1.4-.336-2.22-.636-2.22-1.488 0-.756.75-1.416 1.77-1.416.86 0 1.68.396 2.36 1.056l.58-.732c-.76-.696-1.67-1.176-2.89-1.176-1.59 0-2.76 1.02-2.76 2.34 0 1.428 1.04 1.944 2.7 2.328 1.44.336 2.22.684 2.22 1.56 0 .744-.65 1.44-1.92 1.44-1.16 0-2.01-.492-2.7-1.188l-.59.732c.83.816 1.89 1.308 3.25 1.308zm10.14-.132h.93v-8.244h-.75l-2.03 1.38.41.696 1.44-.936v7.104zm6.3-8.388c-1.71 0-2.9 1.2-2.9 2.724 0 1.632 1.26 2.568 2.76 2.568.97 0 1.82-.468 2.33-1.26v.108c0 1.98-1.05 3.54-2.37 3.54-.79 0-1.33-.36-1.85-.864l-.51.732c.61.588 1.33.984 2.34.984 1.87 0 3.33-1.932 3.33-4.392 0-2.328-.9-4.14-3.13-4.14zm.03 4.488c-1.11 0-1.98-.684-1.98-1.812 0-.912.73-1.872 1.96-1.872 1.16 0 1.83.9 2.07 2.148-.21.912-1.01 1.536-2.05 1.536z" fill="#000"/><path fill="#4A23CC" d="M908 11.275H928V31.275H908z"/><path opacity=".8" fill="#DC3912" d="M908 61.275H928V81.275H908z"/><path opacity=".8" fill="#FFAD33" d="M908 110.275H928V130.275H908z"/><path opacity=".8" fill="#3FAB46" d="M908 159.276H928V179.276H908z"/><path opacity=".8" fill="#AD33AD" d="M908 209.276H928V229.276H908z"/><path opacity=".8" fill="#33ADD1" d="M908 262.276H928V282.276H908z"/><path opacity=".8" fill="#E36992" d="M908 311.276H928V331.276H908z"/><path opacity=".8" fill="#84BB33" d="M908 360.276H928V380.276H908z"/><path opacity=".8" fill="#C65757" d="M1079 11.275H1099V31.275H1079z"/><path opacity=".8" fill="#347185" d="M1079 61.275H1099V81.275H1079z"/><path opacity=".8" fill="#AD69AD" d="M1079 158.276H1099V178.276H1079z"/><path opacity=".8" fill="#A23838" d="M1079 107.275H1099V127.275H1079z"/><path opacity=".8" fill="#4EBBAD" d="M1079 207.276H1099V227.276H1079z"/><path opacity=".8" fill="#BBBB40" d="M1079 260.276H1099V280.276H1079z"/><path opacity=".8" fill="#927AE0" d="M1079 308.276H1099V328.276H1079z"/><path opacity=".8" fill="#EB8F33" d="M1079 359.276H1099V379.276H1079z"/><path d="M320.566 384.913a26.478 26.478 0 0 1-4.506 14.77 26.702 26.702 0 0 1-12 9.791 26.882 26.882 0 0 1-15.449 1.513 26.788 26.788 0 0 1-13.69-7.276 26.534 26.534 0 0 1-7.318-13.611 26.447 26.447 0 0 1 1.521-15.36 26.614 26.614 0 0 1 9.849-11.931 26.847 26.847 0 0 1 14.855-4.48 26.821 26.821 0 0 1 18.907 7.786 26.51 26.51 0 0 1 7.831 18.798z" fill="#8B0707" fill-opacity=".8"/><defs><clipPath id="clip0_2099_6787"><path fill="#fff" transform="translate(88 7.275)" d="M0 0H790V603H0z"/></clipPath></defs></svg>