<svg width="825" height="426" viewBox="0 0 825 426" fill="none" xmlns="http://www.w3.org/2000/svg">
<mask id="mask0_2190_1067" style="mask-type:alpha" maskUnits="userSpaceOnUse" x="8" y="9" width="817" height="370">
<g clip-path="url(#clip0_2190_1067)">
<path d="M8 380.756L18.8253 371.46L156.762 370.538C161.134 368.918 165.806 367.972 170.562 367.744C177.039 367.744 177.897 365.9 183.939 363.547C189.981 361.194 193.838 361.243 203.759 359.35C213.68 357.458 217.56 359.811 221.862 358.889C226.165 357.968 231.349 350.996 237.883 351.467C244.417 351.937 244.325 356.095 251.226 351.928C258.126 347.76 258.092 343.534 263.744 344.034C269.397 344.534 271.537 348.231 274.947 343.112C278.357 337.994 279.685 332.434 287.009 329.179C294.332 325.923 295.648 325.463 301.667 319.903C307.686 314.343 300.386 314.324 309.872 313.402C319.358 312.48 322.368 315.726 327.975 307.371C333.582 299.017 335.207 290.604 343.813 282.76C352.418 274.915 349.431 271.621 357.613 270.699C365.795 269.777 372.272 274.896 378.737 272.562C385.203 270.228 383.051 265.139 390.432 262.345C394.808 260.643 399.424 259.436 404.164 258.756C406.762 258.295 417.965 250.362 427.051 242.518C433.305 236.515 441.414 232.15 450.441 229.928C456.906 228.516 460.739 232.693 463.36 234.125C465.98 235.556 468.544 235.968 475.867 227.614C483.191 219.26 487.562 216.475 492.243 216.475C496.923 216.475 500.447 219.73 503.938 212.278C507.428 204.826 510.804 199.688 513.413 198.825C516.022 197.962 521.205 200.207 532.866 192.324C544.527 184.44 560.009 167.732 560.009 156.122C560.009 144.512 556.988 144.042 564.323 137.09C571.659 130.138 577.689 129.245 584.589 120.303C591.49 111.36 593.206 105.928 597.955 105.467C602.704 105.006 601.857 114.292 608.735 112.419C615.612 110.546 615.6 108.222 618.21 98.966C620.819 89.7096 621.231 86.3758 628.131 85.4933C635.031 84.6108 646.657 85.4933 653.466 83.6498C660.275 81.8064 664.669 78.0607 671.993 78.0607C679.316 78.0607 692.693 83.6498 698.735 85.0324C704.777 86.415 710.43 83.6498 720.295 79.4727C730.159 75.2956 750.047 78.551 750.047 78.551C750.047 78.551 761.742 88.7487 770.313 84.5716C778.884 80.3944 782.809 78.551 787.478 78.0607C795.66 77.0695 803.738 75.5218 811.634 73.4325C816.504 71.5515 821.011 69.0451 825 66V379.971C825.046 379 8 380.756 8 380.756Z" fill="black"/>
</g>
</mask>
<g mask="url(#mask0_2190_1067)">
<path fill-rule="evenodd" clip-rule="evenodd" d="M718.143 536.575L-16.0137 -95.6676L-15.0698 -96.4805L719.087 535.763L718.143 536.575Z" fill="#5C2CFF"/>
<path fill-rule="evenodd" clip-rule="evenodd" d="M718.143 536.575L-16.0137 -95.6676L-15.0698 -96.4805L719.087 535.763L718.143 536.575Z" fill="black" fill-opacity="0.2"/>
<path fill-rule="evenodd" clip-rule="evenodd" d="M333.712 536.575L-400.444 -95.6676L-399.5 -96.4805L334.656 535.762L333.712 536.575Z" fill="#5C2CFF"/>
<path fill-rule="evenodd" clip-rule="evenodd" d="M333.712 536.575L-400.444 -95.6676L-399.5 -96.4805L334.656 535.762L333.712 536.575Z" fill="black" fill-opacity="0.2"/>
<path fill-rule="evenodd" clip-rule="evenodd" d="M1102.57 536.575L368.417 -95.6676L369.361 -96.4805L1103.52 535.762L1102.57 536.575Z" fill="#5C2CFF"/>
<path fill-rule="evenodd" clip-rule="evenodd" d="M1102.57 536.575L368.417 -95.6676L369.361 -96.4805L1103.52 535.762L1102.57 536.575Z" fill="black" fill-opacity="0.2"/>
<path fill-rule="evenodd" clip-rule="evenodd" d="M141.495 536.575L-592.661 -95.6676L-591.717 -96.4805L142.439 535.762L141.495 536.575Z" fill="#5C2CFF"/>
<path fill-rule="evenodd" clip-rule="evenodd" d="M141.495 536.575L-592.661 -95.6676L-591.717 -96.4805L142.439 535.762L141.495 536.575Z" fill="black" fill-opacity="0.2"/>
<path fill-rule="evenodd" clip-rule="evenodd" d="M910.359 536.575L176.202 -95.6676L177.146 -96.4805L911.303 535.763L910.359 536.575Z" fill="#5C2CFF"/>
<path fill-rule="evenodd" clip-rule="evenodd" d="M910.359 536.575L176.202 -95.6676L177.146 -96.4805L911.303 535.763L910.359 536.575Z" fill="black" fill-opacity="0.2"/>
<path fill-rule="evenodd" clip-rule="evenodd" d="M525.927 536.575L-208.23 -95.6676L-207.286 -96.4805L526.871 535.763L525.927 536.575Z" fill="#5C2CFF"/>
<path fill-rule="evenodd" clip-rule="evenodd" d="M525.927 536.575L-208.23 -95.6676L-207.286 -96.4805L526.871 535.763L525.927 536.575Z" fill="black" fill-opacity="0.2"/>
<path fill-rule="evenodd" clip-rule="evenodd" d="M1294.79 536.575L560.633 -95.6676L561.577 -96.4805L1295.73 535.763L1294.79 536.575Z" fill="#5C2CFF"/>
<path fill-rule="evenodd" clip-rule="evenodd" d="M1294.79 536.575L560.633 -95.6676L561.577 -96.4805L1295.73 535.763L1294.79 536.575Z" fill="black" fill-opacity="0.2"/>
<path fill-rule="evenodd" clip-rule="evenodd" d="M45.3883 536.575L-688.768 -95.6676L-687.824 -96.4805L46.3322 535.762L45.3883 536.575Z" fill="#5C2CFF"/>
<path fill-rule="evenodd" clip-rule="evenodd" d="M45.3883 536.575L-688.768 -95.6676L-687.824 -96.4805L46.3322 535.762L45.3883 536.575Z" fill="black" fill-opacity="0.2"/>
<path fill-rule="evenodd" clip-rule="evenodd" d="M814.251 536.575L80.0942 -95.6676L81.0381 -96.4805L815.195 535.762L814.251 536.575Z" fill="#5C2CFF"/>
<path fill-rule="evenodd" clip-rule="evenodd" d="M814.251 536.575L80.0942 -95.6676L81.0381 -96.4805L815.195 535.762L814.251 536.575Z" fill="black" fill-opacity="0.2"/>
<path fill-rule="evenodd" clip-rule="evenodd" d="M429.819 536.575L-304.338 -95.6676L-303.394 -96.4805L430.763 535.763L429.819 536.575Z" fill="#5C2CFF"/>
<path fill-rule="evenodd" clip-rule="evenodd" d="M429.819 536.575L-304.338 -95.6676L-303.394 -96.4805L430.763 535.763L429.819 536.575Z" fill="black" fill-opacity="0.2"/>
<path fill-rule="evenodd" clip-rule="evenodd" d="M1198.68 536.575L464.525 -95.6676L465.469 -96.4805L1199.63 535.763L1198.68 536.575Z" fill="#5C2CFF"/>
<path fill-rule="evenodd" clip-rule="evenodd" d="M1198.68 536.575L464.525 -95.6676L465.469 -96.4805L1199.63 535.763L1198.68 536.575Z" fill="black" fill-opacity="0.2"/>
<path fill-rule="evenodd" clip-rule="evenodd" d="M237.604 536.575L-496.552 -95.6676L-495.608 -96.4805L238.548 535.762L237.604 536.575Z" fill="#5C2CFF"/>
<path fill-rule="evenodd" clip-rule="evenodd" d="M237.604 536.575L-496.552 -95.6676L-495.608 -96.4805L238.548 535.762L237.604 536.575Z" fill="black" fill-opacity="0.2"/>
<path fill-rule="evenodd" clip-rule="evenodd" d="M1006.47 536.575L272.309 -95.6676L273.253 -96.4805L1007.41 535.762L1006.47 536.575Z" fill="#5C2CFF"/>
<path fill-rule="evenodd" clip-rule="evenodd" d="M1006.47 536.575L272.309 -95.6676L273.253 -96.4805L1007.41 535.762L1006.47 536.575Z" fill="black" fill-opacity="0.2"/>
<path fill-rule="evenodd" clip-rule="evenodd" d="M622.035 536.575L-112.122 -95.6676L-111.178 -96.4805L622.979 535.762L622.035 536.575Z" fill="#5C2CFF"/>
<path fill-rule="evenodd" clip-rule="evenodd" d="M622.035 536.575L-112.122 -95.6676L-111.178 -96.4805L622.979 535.762L622.035 536.575Z" fill="black" fill-opacity="0.2"/>
<path fill-rule="evenodd" clip-rule="evenodd" d="M1390.9 536.575L656.741 -95.6676L657.685 -96.4805L1391.84 535.762L1390.9 536.575Z" fill="#5C2CFF"/>
<path fill-rule="evenodd" clip-rule="evenodd" d="M1390.9 536.575L656.741 -95.6676L657.685 -96.4805L1391.84 535.762L1390.9 536.575Z" fill="black" fill-opacity="0.2"/>
<path fill-rule="evenodd" clip-rule="evenodd" d="M766.197 536.575L32.041 -95.6676L32.9849 -96.4805L767.141 535.762L766.197 536.575Z" fill="#5C2CFF"/>
<path fill-rule="evenodd" clip-rule="evenodd" d="M766.197 536.575L32.041 -95.6676L32.9849 -96.4805L767.141 535.762L766.197 536.575Z" fill="black" fill-opacity="0.2"/>
<path fill-rule="evenodd" clip-rule="evenodd" d="M381.766 536.575L-352.391 -95.6676L-351.447 -96.4805L382.709 535.763L381.766 536.575Z" fill="#5C2CFF"/>
<path fill-rule="evenodd" clip-rule="evenodd" d="M381.766 536.575L-352.391 -95.6676L-351.447 -96.4805L382.709 535.763L381.766 536.575Z" fill="black" fill-opacity="0.2"/>
<path fill-rule="evenodd" clip-rule="evenodd" d="M1150.63 536.575L416.47 -95.6676L417.414 -96.4805L1151.57 535.763L1150.63 536.575Z" fill="#5C2CFF"/>
<path fill-rule="evenodd" clip-rule="evenodd" d="M1150.63 536.575L416.47 -95.6676L417.414 -96.4805L1151.57 535.763L1150.63 536.575Z" fill="black" fill-opacity="0.2"/>
<path fill-rule="evenodd" clip-rule="evenodd" d="M189.551 536.575L-544.605 -95.6676L-543.662 -96.4805L190.495 535.762L189.551 536.575Z" fill="#5C2CFF"/>
<path fill-rule="evenodd" clip-rule="evenodd" d="M189.551 536.575L-544.605 -95.6676L-543.662 -96.4805L190.495 535.762L189.551 536.575Z" fill="black" fill-opacity="0.2"/>
<path fill-rule="evenodd" clip-rule="evenodd" d="M958.412 536.575L224.256 -95.6676L225.199 -96.4805L959.356 535.762L958.412 536.575Z" fill="#5C2CFF"/>
<path fill-rule="evenodd" clip-rule="evenodd" d="M958.412 536.575L224.256 -95.6676L225.199 -96.4805L959.356 535.762L958.412 536.575Z" fill="black" fill-opacity="0.2"/>
<path fill-rule="evenodd" clip-rule="evenodd" d="M573.98 536.575L-160.176 -95.6676L-159.232 -96.4805L574.924 535.762L573.98 536.575Z" fill="#5C2CFF"/>
<path fill-rule="evenodd" clip-rule="evenodd" d="M573.98 536.575L-160.176 -95.6676L-159.232 -96.4805L574.924 535.762L573.98 536.575Z" fill="black" fill-opacity="0.2"/>
<path fill-rule="evenodd" clip-rule="evenodd" d="M1342.84 536.575L608.687 -95.6676L609.631 -96.4805L1343.79 535.763L1342.84 536.575Z" fill="#5C2CFF"/>
<path fill-rule="evenodd" clip-rule="evenodd" d="M1342.84 536.575L608.687 -95.6676L609.631 -96.4805L1343.79 535.763L1342.84 536.575Z" fill="black" fill-opacity="0.2"/>
<path fill-rule="evenodd" clip-rule="evenodd" d="M93.4419 536.575L-640.715 -95.6676L-639.771 -96.4805L94.3857 535.762L93.4419 536.575Z" fill="#5C2CFF"/>
<path fill-rule="evenodd" clip-rule="evenodd" d="M93.4419 536.575L-640.715 -95.6676L-639.771 -96.4805L94.3857 535.762L93.4419 536.575Z" fill="black" fill-opacity="0.2"/>
<path fill-rule="evenodd" clip-rule="evenodd" d="M862.304 536.575L128.148 -95.6676L129.092 -96.4805L863.248 535.762L862.304 536.575Z" fill="#5C2CFF"/>
<path fill-rule="evenodd" clip-rule="evenodd" d="M862.304 536.575L128.148 -95.6676L129.092 -96.4805L863.248 535.762L862.304 536.575Z" fill="black" fill-opacity="0.2"/>
<path fill-rule="evenodd" clip-rule="evenodd" d="M477.874 536.575L-256.283 -95.6676L-255.339 -96.4805L478.817 535.762L477.874 536.575Z" fill="#5C2CFF"/>
<path fill-rule="evenodd" clip-rule="evenodd" d="M477.874 536.575L-256.283 -95.6676L-255.339 -96.4805L478.817 535.762L477.874 536.575Z" fill="black" fill-opacity="0.2"/>
<path fill-rule="evenodd" clip-rule="evenodd" d="M1246.74 536.575L512.579 -95.6676L513.523 -96.4805L1247.68 535.763L1246.74 536.575Z" fill="#5C2CFF"/>
<path fill-rule="evenodd" clip-rule="evenodd" d="M1246.74 536.575L512.579 -95.6676L513.523 -96.4805L1247.68 535.763L1246.74 536.575Z" fill="black" fill-opacity="0.2"/>
<path fill-rule="evenodd" clip-rule="evenodd" d="M285.658 536.575L-448.499 -95.6676L-447.555 -96.4805L286.601 535.763L285.658 536.575Z" fill="#5C2CFF"/>
<path fill-rule="evenodd" clip-rule="evenodd" d="M285.658 536.575L-448.499 -95.6676L-447.555 -96.4805L286.601 535.763L285.658 536.575Z" fill="black" fill-opacity="0.2"/>
<path fill-rule="evenodd" clip-rule="evenodd" d="M1054.52 536.575L320.364 -95.6676L321.307 -96.4805L1055.46 535.762L1054.52 536.575Z" fill="#5C2CFF"/>
<path fill-rule="evenodd" clip-rule="evenodd" d="M1054.52 536.575L320.364 -95.6676L321.307 -96.4805L1055.46 535.762L1054.52 536.575Z" fill="black" fill-opacity="0.2"/>
<path fill-rule="evenodd" clip-rule="evenodd" d="M670.089 536.575L-64.067 -95.6676L-63.1232 -96.4805L671.033 535.762L670.089 536.575Z" fill="#5C2CFF"/>
<path fill-rule="evenodd" clip-rule="evenodd" d="M670.089 536.575L-64.067 -95.6676L-63.1232 -96.4805L671.033 535.762L670.089 536.575Z" fill="black" fill-opacity="0.2"/>
<path fill-rule="evenodd" clip-rule="evenodd" d="M1438.95 536.575L704.794 -95.6676L705.738 -96.4805L1439.89 535.762L1438.95 536.575Z" fill="#5C2CFF"/>
<path fill-rule="evenodd" clip-rule="evenodd" d="M1438.95 536.575L704.794 -95.6676L705.738 -96.4805L1439.89 535.762L1438.95 536.575Z" fill="black" fill-opacity="0.2"/>
<path fill-rule="evenodd" clip-rule="evenodd" d="M742.17 536.575L8.01353 -95.6676L8.9574 -96.4805L743.114 535.762L742.17 536.575Z" fill="#5C2CFF"/>
<path fill-rule="evenodd" clip-rule="evenodd" d="M742.17 536.575L8.01353 -95.6676L8.9574 -96.4805L743.114 535.762L742.17 536.575Z" fill="black" fill-opacity="0.2"/>
<path fill-rule="evenodd" clip-rule="evenodd" d="M357.738 536.575L-376.418 -95.6676L-375.474 -96.4805L358.682 535.762L357.738 536.575Z" fill="#5C2CFF"/>
<path fill-rule="evenodd" clip-rule="evenodd" d="M357.738 536.575L-376.418 -95.6676L-375.474 -96.4805L358.682 535.762L357.738 536.575Z" fill="black" fill-opacity="0.2"/>
<path fill-rule="evenodd" clip-rule="evenodd" d="M1126.6 536.575L392.444 -95.6676L393.388 -96.4805L1127.54 535.763L1126.6 536.575Z" fill="#5C2CFF"/>
<path fill-rule="evenodd" clip-rule="evenodd" d="M1126.6 536.575L392.444 -95.6676L393.388 -96.4805L1127.54 535.763L1126.6 536.575Z" fill="black" fill-opacity="0.2"/>
<path fill-rule="evenodd" clip-rule="evenodd" d="M165.522 536.575L-568.634 -95.6676L-567.69 -96.4805L166.466 535.763L165.522 536.575Z" fill="#5C2CFF"/>
<path fill-rule="evenodd" clip-rule="evenodd" d="M165.522 536.575L-568.634 -95.6676L-567.69 -96.4805L166.466 535.763L165.522 536.575Z" fill="black" fill-opacity="0.2"/>
<path fill-rule="evenodd" clip-rule="evenodd" d="M934.385 536.575L200.228 -95.6676L201.172 -96.4805L935.329 535.762L934.385 536.575Z" fill="#5C2CFF"/>
<path fill-rule="evenodd" clip-rule="evenodd" d="M934.385 536.575L200.228 -95.6676L201.172 -96.4805L935.329 535.762L934.385 536.575Z" fill="black" fill-opacity="0.2"/>
<path fill-rule="evenodd" clip-rule="evenodd" d="M549.954 536.575L-184.202 -95.6676L-183.258 -96.4805L550.898 535.763L549.954 536.575Z" fill="#5C2CFF"/>
<path fill-rule="evenodd" clip-rule="evenodd" d="M549.954 536.575L-184.202 -95.6676L-183.258 -96.4805L550.898 535.763L549.954 536.575Z" fill="black" fill-opacity="0.2"/>
<path fill-rule="evenodd" clip-rule="evenodd" d="M1318.82 536.575L584.66 -95.6676L585.604 -96.4805L1319.76 535.762L1318.82 536.575Z" fill="#5C2CFF"/>
<path fill-rule="evenodd" clip-rule="evenodd" d="M1318.82 536.575L584.66 -95.6676L585.604 -96.4805L1319.76 535.762L1318.82 536.575Z" fill="black" fill-opacity="0.2"/>
<path fill-rule="evenodd" clip-rule="evenodd" d="M69.4145 536.575L-664.742 -95.6676L-663.798 -96.4805L70.3583 535.762L69.4145 536.575Z" fill="#5C2CFF"/>
<path fill-rule="evenodd" clip-rule="evenodd" d="M69.4145 536.575L-664.742 -95.6676L-663.798 -96.4805L70.3583 535.762L69.4145 536.575Z" fill="black" fill-opacity="0.2"/>
<path fill-rule="evenodd" clip-rule="evenodd" d="M838.278 536.575L104.122 -95.6676L105.065 -96.4805L839.222 535.762L838.278 536.575Z" fill="#5C2CFF"/>
<path fill-rule="evenodd" clip-rule="evenodd" d="M838.278 536.575L104.122 -95.6676L105.065 -96.4805L839.222 535.762L838.278 536.575Z" fill="black" fill-opacity="0.2"/>
<path fill-rule="evenodd" clip-rule="evenodd" d="M453.846 536.575L-280.31 -95.6676L-279.366 -96.4805L454.79 535.762L453.846 536.575Z" fill="#5C2CFF"/>
<path fill-rule="evenodd" clip-rule="evenodd" d="M453.846 536.575L-280.31 -95.6676L-279.366 -96.4805L454.79 535.762L453.846 536.575Z" fill="black" fill-opacity="0.2"/>
<path fill-rule="evenodd" clip-rule="evenodd" d="M1222.71 536.575L488.552 -95.6676L489.496 -96.4805L1223.65 535.763L1222.71 536.575Z" fill="#5C2CFF"/>
<path fill-rule="evenodd" clip-rule="evenodd" d="M1222.71 536.575L488.552 -95.6676L489.496 -96.4805L1223.65 535.763L1222.71 536.575Z" fill="black" fill-opacity="0.2"/>
<path fill-rule="evenodd" clip-rule="evenodd" d="M261.631 536.575L-472.525 -95.6676L-471.581 -96.4805L262.575 535.763L261.631 536.575Z" fill="#5C2CFF"/>
<path fill-rule="evenodd" clip-rule="evenodd" d="M261.631 536.575L-472.525 -95.6676L-471.581 -96.4805L262.575 535.763L261.631 536.575Z" fill="black" fill-opacity="0.2"/>
<path fill-rule="evenodd" clip-rule="evenodd" d="M1030.49 536.575L296.336 -95.6676L297.28 -96.4805L1031.44 535.763L1030.49 536.575Z" fill="#5C2CFF"/>
<path fill-rule="evenodd" clip-rule="evenodd" d="M1030.49 536.575L296.336 -95.6676L297.28 -96.4805L1031.44 535.763L1030.49 536.575Z" fill="black" fill-opacity="0.2"/>
<path fill-rule="evenodd" clip-rule="evenodd" d="M646.061 536.575L-88.0955 -95.6676L-87.1516 -96.4805L647.005 535.762L646.061 536.575Z" fill="#5C2CFF"/>
<path fill-rule="evenodd" clip-rule="evenodd" d="M646.061 536.575L-88.0955 -95.6676L-87.1516 -96.4805L647.005 535.762L646.061 536.575Z" fill="black" fill-opacity="0.2"/>
<path fill-rule="evenodd" clip-rule="evenodd" d="M1414.92 536.575L680.768 -95.6676L681.712 -96.4805L1415.87 535.762L1414.92 536.575Z" fill="#5C2CFF"/>
<path fill-rule="evenodd" clip-rule="evenodd" d="M1414.92 536.575L680.768 -95.6676L681.712 -96.4805L1415.87 535.762L1414.92 536.575Z" fill="black" fill-opacity="0.2"/>
<path fill-rule="evenodd" clip-rule="evenodd" d="M21.3613 536.575L-712.795 -95.6676L-711.851 -96.4805L22.3051 535.762L21.3613 536.575Z" fill="#5C2CFF"/>
<path fill-rule="evenodd" clip-rule="evenodd" d="M21.3613 536.575L-712.795 -95.6676L-711.851 -96.4805L22.3051 535.762L21.3613 536.575Z" fill="black" fill-opacity="0.2"/>
<path fill-rule="evenodd" clip-rule="evenodd" d="M790.223 536.575L56.0669 -95.6676L57.0107 -96.4805L791.167 535.762L790.223 536.575Z" fill="#5C2CFF"/>
<path fill-rule="evenodd" clip-rule="evenodd" d="M790.223 536.575L56.0669 -95.6676L57.0107 -96.4805L791.167 535.762L790.223 536.575Z" fill="black" fill-opacity="0.2"/>
<path fill-rule="evenodd" clip-rule="evenodd" d="M405.793 536.575L-328.364 -95.6676L-327.42 -96.4805L406.737 535.763L405.793 536.575Z" fill="#5C2CFF"/>
<path fill-rule="evenodd" clip-rule="evenodd" d="M405.793 536.575L-328.364 -95.6676L-327.42 -96.4805L406.737 535.763L405.793 536.575Z" fill="black" fill-opacity="0.2"/>
<path fill-rule="evenodd" clip-rule="evenodd" d="M1174.65 536.575L440.498 -95.6676L441.441 -96.4805L1175.6 535.763L1174.65 536.575Z" fill="#5C2CFF"/>
<path fill-rule="evenodd" clip-rule="evenodd" d="M1174.65 536.575L440.498 -95.6676L441.441 -96.4805L1175.6 535.763L1174.65 536.575Z" fill="black" fill-opacity="0.2"/>
<path fill-rule="evenodd" clip-rule="evenodd" d="M213.577 536.575L-520.579 -95.6676L-519.635 -96.4805L214.521 535.762L213.577 536.575Z" fill="#5C2CFF"/>
<path fill-rule="evenodd" clip-rule="evenodd" d="M213.577 536.575L-520.579 -95.6676L-519.635 -96.4805L214.521 535.762L213.577 536.575Z" fill="black" fill-opacity="0.2"/>
<path fill-rule="evenodd" clip-rule="evenodd" d="M982.439 536.575L248.283 -95.6676L249.227 -96.4805L983.383 535.763L982.439 536.575Z" fill="#5C2CFF"/>
<path fill-rule="evenodd" clip-rule="evenodd" d="M982.439 536.575L248.283 -95.6676L249.227 -96.4805L983.383 535.763L982.439 536.575Z" fill="black" fill-opacity="0.2"/>
<path fill-rule="evenodd" clip-rule="evenodd" d="M598.008 536.575L-136.149 -95.6676L-135.205 -96.4805L598.952 535.762L598.008 536.575Z" fill="#5C2CFF"/>
<path fill-rule="evenodd" clip-rule="evenodd" d="M598.008 536.575L-136.149 -95.6676L-135.205 -96.4805L598.952 535.762L598.008 536.575Z" fill="black" fill-opacity="0.2"/>
<path fill-rule="evenodd" clip-rule="evenodd" d="M1366.87 536.575L632.713 -95.6676L633.657 -96.4805L1367.81 535.762L1366.87 536.575Z" fill="#5C2CFF"/>
<path fill-rule="evenodd" clip-rule="evenodd" d="M1366.87 536.575L632.713 -95.6676L633.657 -96.4805L1367.81 535.762L1366.87 536.575Z" fill="black" fill-opacity="0.2"/>
<path fill-rule="evenodd" clip-rule="evenodd" d="M117.469 536.575L-616.688 -95.6676L-615.744 -96.4805L118.413 535.762L117.469 536.575Z" fill="#5C2CFF"/>
<path fill-rule="evenodd" clip-rule="evenodd" d="M117.469 536.575L-616.688 -95.6676L-615.744 -96.4805L118.413 535.762L117.469 536.575Z" fill="black" fill-opacity="0.2"/>
<path fill-rule="evenodd" clip-rule="evenodd" d="M886.332 536.575L152.175 -95.6676L153.119 -96.4805L887.275 535.763L886.332 536.575Z" fill="#5C2CFF"/>
<path fill-rule="evenodd" clip-rule="evenodd" d="M886.332 536.575L152.175 -95.6676L153.119 -96.4805L887.275 535.763L886.332 536.575Z" fill="black" fill-opacity="0.2"/>
<path fill-rule="evenodd" clip-rule="evenodd" d="M501.9 536.575L-232.257 -95.6676L-231.313 -96.4805L502.844 535.763L501.9 536.575Z" fill="#5C2CFF"/>
<path fill-rule="evenodd" clip-rule="evenodd" d="M501.9 536.575L-232.257 -95.6676L-231.313 -96.4805L502.844 535.763L501.9 536.575Z" fill="black" fill-opacity="0.2"/>
<path fill-rule="evenodd" clip-rule="evenodd" d="M1270.76 536.575L536.607 -95.6676L537.551 -96.4805L1271.71 535.763L1270.76 536.575Z" fill="#5C2CFF"/>
<path fill-rule="evenodd" clip-rule="evenodd" d="M1270.76 536.575L536.607 -95.6676L537.551 -96.4805L1271.71 535.763L1270.76 536.575Z" fill="black" fill-opacity="0.2"/>
<path fill-rule="evenodd" clip-rule="evenodd" d="M309.685 536.575L-424.471 -95.6676L-423.528 -96.4805L310.629 535.763L309.685 536.575Z" fill="#5C2CFF"/>
<path fill-rule="evenodd" clip-rule="evenodd" d="M309.685 536.575L-424.471 -95.6676L-423.528 -96.4805L310.629 535.763L309.685 536.575Z" fill="black" fill-opacity="0.2"/>
<path fill-rule="evenodd" clip-rule="evenodd" d="M1078.55 536.575L344.39 -95.6676L345.334 -96.4805L1079.49 535.762L1078.55 536.575Z" fill="#5C2CFF"/>
<path fill-rule="evenodd" clip-rule="evenodd" d="M1078.55 536.575L344.39 -95.6676L345.334 -96.4805L1079.49 535.762L1078.55 536.575Z" fill="black" fill-opacity="0.2"/>
<path fill-rule="evenodd" clip-rule="evenodd" d="M694.117 536.575L-40.0398 -95.6676L-39.0959 -96.4805L695.061 535.763L694.117 536.575Z" fill="#5C2CFF"/>
<path fill-rule="evenodd" clip-rule="evenodd" d="M694.117 536.575L-40.0398 -95.6676L-39.0959 -96.4805L695.061 535.763L694.117 536.575Z" fill="black" fill-opacity="0.2"/>
<path fill-rule="evenodd" clip-rule="evenodd" d="M1462.98 536.575L728.821 -95.6676L729.765 -96.4805L1463.92 535.763L1462.98 536.575Z" fill="#5C2CFF"/>
<path fill-rule="evenodd" clip-rule="evenodd" d="M1462.98 536.575L728.821 -95.6676L729.765 -96.4805L1463.92 535.763L1462.98 536.575Z" fill="black" fill-opacity="0.2"/>
</g>
<path d="M8.4 284.595C11.064 284.595 12.954 282.957 12.954 280.455C12.954 277.989 11.1 276.585 8.868 276.585C7.788 276.585 6.96 276.945 6.312 277.377L6.42 273.705H12.288V272.013H4.692L4.512 278.475L5.79 279.051C6.528 278.493 7.392 278.151 8.418 278.151C10.02 278.151 11.136 279.105 11.136 280.527C11.136 281.913 10.038 282.993 8.436 282.993C7.122 282.993 5.97 282.345 5.034 281.355L3.9 282.651C4.944 283.803 6.438 284.595 8.4 284.595ZM19.2457 284.595C22.3237 284.595 24.5017 281.949 24.5017 278.187C24.5017 274.443 22.3237 271.797 19.2457 271.797C16.1317 271.797 13.9537 274.443 13.9537 278.187C13.9537 281.949 16.1317 284.595 19.2457 284.595ZM19.2457 282.921C17.2297 282.921 15.8077 280.959 15.8077 278.187C15.8077 275.415 17.2297 273.471 19.2457 273.471C21.2437 273.471 22.6477 275.415 22.6477 278.187C22.6477 280.959 21.2437 282.921 19.2457 282.921Z" fill="black" fill-opacity="0.7"/>
<path d="M5.276 195.754H7.094V183.388H5.636L2.378 185.602L3.134 186.916L5.276 185.548V195.754ZM14.2555 195.97C17.3335 195.97 19.5115 193.324 19.5115 189.562C19.5115 185.818 17.3335 183.172 14.2555 183.172C11.1415 183.172 8.96347 185.818 8.96347 189.562C8.96347 193.324 11.1415 195.97 14.2555 195.97ZM14.2555 194.296C12.2395 194.296 10.8175 192.334 10.8175 189.562C10.8175 186.79 12.2395 184.846 14.2555 184.846C16.2535 184.846 17.6575 186.79 17.6575 189.562C17.6575 192.334 16.2535 194.296 14.2555 194.296ZM25.9238 195.97C29.0018 195.97 31.1798 193.324 31.1798 189.562C31.1798 185.818 29.0018 183.172 25.9238 183.172C22.8098 183.172 20.6318 185.818 20.6318 189.562C20.6318 193.324 22.8098 195.97 25.9238 195.97ZM25.9238 194.296C23.9078 194.296 22.4858 192.334 22.4858 189.562C22.4858 186.79 23.9078 184.846 25.9238 184.846C27.9218 184.846 29.3258 186.79 29.3258 189.562C29.3258 192.334 27.9218 194.296 25.9238 194.296Z" fill="black" fill-opacity="0.7"/>
<path d="M5.276 107.129H7.094V94.7629H5.636L2.378 96.9769L3.134 98.2909L5.276 96.9229V107.129ZM13.3555 107.345C16.0195 107.345 17.9095 105.707 17.9095 103.205C17.9095 100.739 16.0555 99.3349 13.8235 99.3349C12.7435 99.3349 11.9155 99.6949 11.2675 100.127L11.3755 96.4549H17.2435V94.7629H9.64747L9.46747 101.225L10.7455 101.801C11.4835 101.243 12.3475 100.901 13.3735 100.901C14.9755 100.901 16.0915 101.855 16.0915 103.277C16.0915 104.663 14.9935 105.743 13.3915 105.743C12.0775 105.743 10.9255 105.095 9.98947 104.105L8.85547 105.401C9.89947 106.553 11.3935 107.345 13.3555 107.345ZM24.2012 107.345C27.2792 107.345 29.4572 104.699 29.4572 100.937C29.4572 97.1929 27.2792 94.5469 24.2012 94.5469C21.0872 94.5469 18.9092 97.1929 18.9092 100.937C18.9092 104.699 21.0872 107.345 24.2012 107.345ZM24.2012 105.671C22.1852 105.671 20.7632 103.709 20.7632 100.937C20.7632 98.1649 22.1852 96.2209 24.2012 96.2209C26.1992 96.2209 27.6032 98.1649 27.6032 100.937C27.6032 103.709 26.1992 105.671 24.2012 105.671Z" fill="black" fill-opacity="0.7"/>
<path d="M0.648 18.5039H9.45V16.8119H3.528L6.426 14.3639C8.55 12.6359 9.342 11.3219 9.342 9.66591C9.342 7.41591 7.506 5.92191 5.202 5.92191C3.24 5.92191 1.782 6.82191 0.702 8.31591L1.926 9.39591C2.79 8.27991 3.78 7.55991 5.13 7.55991C6.354 7.55991 7.47 8.35191 7.47 9.70191C7.47 10.8179 6.84 11.8799 5.184 13.2659L0.648 17.0099V18.5039ZM15.8414 18.7199C18.9194 18.7199 21.0974 16.0739 21.0974 12.3119C21.0974 8.56791 18.9194 5.92191 15.8414 5.92191C12.7274 5.92191 10.5494 8.56791 10.5494 12.3119C10.5494 16.0739 12.7274 18.7199 15.8414 18.7199ZM15.8414 17.0459C13.8254 17.0459 12.4034 15.0839 12.4034 12.3119C12.4034 9.53991 13.8254 7.59591 15.8414 7.59591C17.8394 7.59591 19.2434 9.53991 19.2434 12.3119C19.2434 15.0839 17.8394 17.0459 15.8414 17.0459ZM27.5098 18.7199C30.5878 18.7199 32.7658 16.0739 32.7658 12.3119C32.7658 8.56791 30.5878 5.92191 27.5098 5.92191C24.3958 5.92191 22.2178 8.56791 22.2178 12.3119C22.2178 16.0739 24.3958 18.7199 27.5098 18.7199ZM27.5098 17.0459C25.4938 17.0459 24.0718 15.0839 24.0718 12.3119C24.0718 9.53991 25.4938 7.59591 27.5098 7.59591C29.5078 7.59591 30.9118 9.53991 30.9118 12.3119C30.9118 15.0839 29.5078 17.0459 27.5098 17.0459Z" fill="black" fill-opacity="0.7"/>
<path d="M3 292.379H822" stroke="#B7B7B7" stroke-width="0.5" stroke-miterlimit="10"/>
<path d="M3 203.754H822" stroke="#B7B7B7" stroke-width="0.5" stroke-miterlimit="10"/>
<path d="M3 115.129H822" stroke="#B7B7B7" stroke-width="0.5" stroke-miterlimit="10"/>
<path d="M3 26.5039H822" stroke="#B7B7B7" stroke-width="0.5" stroke-miterlimit="10"/>
<path d="M1.684 418H10.774V415.948H5.176L7.768 413.86C9.892 412.222 10.648 410.908 10.648 409.27C10.648 406.984 8.776 405.418 6.328 405.418C4.33 405.418 2.836 406.3 1.666 407.83L3.124 409.18C4.024 408.1 4.96 407.434 6.256 407.434C7.372 407.434 8.362 408.154 8.362 409.324C8.362 410.332 7.804 411.268 6.238 412.528L1.684 416.164V418ZM17.1591 418.216C20.3271 418.216 22.5771 415.57 22.5771 411.808C22.5771 408.064 20.3271 405.418 17.1591 405.418C13.9731 405.418 11.7411 408.064 11.7411 411.808C11.7411 415.57 13.9731 418.216 17.1591 418.216ZM17.1591 416.164C15.3231 416.164 14.0271 414.364 14.0271 411.808C14.0271 409.252 15.3231 407.47 17.1591 407.47C18.9951 407.47 20.2731 409.252 20.2731 411.808C20.2731 414.364 18.9951 416.164 17.1591 416.164ZM26.0341 418H28.2841V405.634H26.4841L23.0101 407.992L23.9101 409.576L26.0341 408.226V418ZM35.5246 410.098C34.2646 410.098 33.0946 410.62 32.3206 411.484C32.4826 409.072 33.7066 407.398 35.4526 407.398C36.5326 407.398 37.3066 407.848 38.0626 408.514L39.1606 406.804C38.1706 405.958 37.0006 405.418 35.4526 405.418C32.2486 405.418 29.9986 408.208 29.9986 412.024C29.9986 415.588 31.5466 418.216 35.0746 418.216C37.7386 418.216 39.6826 416.452 39.6826 414.004C39.6826 411.538 37.7926 410.098 35.5246 410.098ZM34.9666 416.308C33.4726 416.308 32.6986 415.282 32.4286 413.626C32.7886 412.6 33.7246 411.934 34.9306 411.934C36.2806 411.934 37.3966 412.744 37.3966 414.094C37.3966 415.228 36.4786 416.308 34.9666 416.308Z" fill="#5C2CFF"/>
<path d="M1.684 418H10.774V415.948H5.176L7.768 413.86C9.892 412.222 10.648 410.908 10.648 409.27C10.648 406.984 8.776 405.418 6.328 405.418C4.33 405.418 2.836 406.3 1.666 407.83L3.124 409.18C4.024 408.1 4.96 407.434 6.256 407.434C7.372 407.434 8.362 408.154 8.362 409.324C8.362 410.332 7.804 411.268 6.238 412.528L1.684 416.164V418ZM17.1591 418.216C20.3271 418.216 22.5771 415.57 22.5771 411.808C22.5771 408.064 20.3271 405.418 17.1591 405.418C13.9731 405.418 11.7411 408.064 11.7411 411.808C11.7411 415.57 13.9731 418.216 17.1591 418.216ZM17.1591 416.164C15.3231 416.164 14.0271 414.364 14.0271 411.808C14.0271 409.252 15.3231 407.47 17.1591 407.47C18.9951 407.47 20.2731 409.252 20.2731 411.808C20.2731 414.364 18.9951 416.164 17.1591 416.164ZM26.0341 418H28.2841V405.634H26.4841L23.0101 407.992L23.9101 409.576L26.0341 408.226V418ZM35.5246 410.098C34.2646 410.098 33.0946 410.62 32.3206 411.484C32.4826 409.072 33.7066 407.398 35.4526 407.398C36.5326 407.398 37.3066 407.848 38.0626 408.514L39.1606 406.804C38.1706 405.958 37.0006 405.418 35.4526 405.418C32.2486 405.418 29.9986 408.208 29.9986 412.024C29.9986 415.588 31.5466 418.216 35.0746 418.216C37.7386 418.216 39.6826 416.452 39.6826 414.004C39.6826 411.538 37.7926 410.098 35.5246 410.098ZM34.9666 416.308C33.4726 416.308 32.6986 415.282 32.4286 413.626C32.7886 412.6 33.7246 411.934 34.9306 411.934C36.2806 411.934 37.3966 412.744 37.3966 414.094C37.3966 415.228 36.4786 416.308 34.9666 416.308Z" fill="black" fill-opacity="0.2"/>
<path d="M136.245 418H145.335V415.948H139.737L142.329 413.86C144.453 412.222 145.209 410.908 145.209 409.27C145.209 406.984 143.337 405.418 140.889 405.418C138.891 405.418 137.397 406.3 136.227 407.83L137.685 409.18C138.585 408.1 139.521 407.434 140.817 407.434C141.933 407.434 142.923 408.154 142.923 409.324C142.923 410.332 142.365 411.268 140.799 412.528L136.245 416.164V418ZM151.72 418.216C154.888 418.216 157.138 415.57 157.138 411.808C157.138 408.064 154.888 405.418 151.72 405.418C148.534 405.418 146.302 408.064 146.302 411.808C146.302 415.57 148.534 418.216 151.72 418.216ZM151.72 416.164C149.884 416.164 148.588 414.364 148.588 411.808C148.588 409.252 149.884 407.47 151.72 407.47C153.556 407.47 154.834 409.252 154.834 411.808C154.834 414.364 153.556 416.164 151.72 416.164ZM160.595 418H162.845V405.634H161.045L157.571 407.992L158.471 409.576L160.595 408.226V418ZM165.333 418H167.889L172.983 407.326V405.634H164.055V407.686H170.373L165.333 418Z" fill="#5C2CFF"/>
<path d="M136.245 418H145.335V415.948H139.737L142.329 413.86C144.453 412.222 145.209 410.908 145.209 409.27C145.209 406.984 143.337 405.418 140.889 405.418C138.891 405.418 137.397 406.3 136.227 407.83L137.685 409.18C138.585 408.1 139.521 407.434 140.817 407.434C141.933 407.434 142.923 408.154 142.923 409.324C142.923 410.332 142.365 411.268 140.799 412.528L136.245 416.164V418ZM151.72 418.216C154.888 418.216 157.138 415.57 157.138 411.808C157.138 408.064 154.888 405.418 151.72 405.418C148.534 405.418 146.302 408.064 146.302 411.808C146.302 415.57 148.534 418.216 151.72 418.216ZM151.72 416.164C149.884 416.164 148.588 414.364 148.588 411.808C148.588 409.252 149.884 407.47 151.72 407.47C153.556 407.47 154.834 409.252 154.834 411.808C154.834 414.364 153.556 416.164 151.72 416.164ZM160.595 418H162.845V405.634H161.045L157.571 407.992L158.471 409.576L160.595 408.226V418ZM165.333 418H167.889L172.983 407.326V405.634H164.055V407.686H170.373L165.333 418Z" fill="black" fill-opacity="0.2"/>
<path d="M268.806 418H277.896V415.948H272.298L274.89 413.86C277.014 412.222 277.77 410.908 277.77 409.27C277.77 406.984 275.898 405.418 273.45 405.418C271.452 405.418 269.958 406.3 268.788 407.83L270.246 409.18C271.146 408.1 272.082 407.434 273.378 407.434C274.494 407.434 275.484 408.154 275.484 409.324C275.484 410.332 274.926 411.268 273.36 412.528L268.806 416.164V418ZM284.281 418.216C287.449 418.216 289.699 415.57 289.699 411.808C289.699 408.064 287.449 405.418 284.281 405.418C281.095 405.418 278.863 408.064 278.863 411.808C278.863 415.57 281.095 418.216 284.281 418.216ZM284.281 416.164C282.445 416.164 281.149 414.364 281.149 411.808C281.149 409.252 282.445 407.47 284.281 407.47C286.117 407.47 287.395 409.252 287.395 411.808C287.395 414.364 286.117 416.164 284.281 416.164ZM293.156 418H295.406V405.634H293.606L290.132 407.992L291.032 409.576L293.156 408.226V418ZM301.873 418.216C304.537 418.216 306.697 416.92 306.697 414.706C306.697 413.248 305.635 412.168 304.177 411.61C305.419 411.106 306.373 410.188 306.373 408.748C306.373 406.66 304.267 405.418 301.873 405.418C299.551 405.418 297.391 406.624 297.391 408.748C297.391 410.152 298.309 411.07 299.587 411.61C298.147 412.132 297.067 413.212 297.067 414.706C297.067 416.902 299.191 418.216 301.873 418.216ZM301.873 410.8C300.847 410.746 299.605 410.134 299.605 409.036C299.605 408.064 300.577 407.326 301.873 407.326C303.169 407.326 304.159 408.064 304.159 409.036C304.159 410.116 302.935 410.746 301.873 410.8ZM301.873 416.29C300.415 416.29 299.317 415.57 299.317 414.49C299.317 413.338 300.739 412.654 301.873 412.6C303.025 412.654 304.429 413.338 304.429 414.49C304.429 415.57 303.313 416.29 301.873 416.29Z" fill="#5C2CFF"/>
<path d="M268.806 418H277.896V415.948H272.298L274.89 413.86C277.014 412.222 277.77 410.908 277.77 409.27C277.77 406.984 275.898 405.418 273.45 405.418C271.452 405.418 269.958 406.3 268.788 407.83L270.246 409.18C271.146 408.1 272.082 407.434 273.378 407.434C274.494 407.434 275.484 408.154 275.484 409.324C275.484 410.332 274.926 411.268 273.36 412.528L268.806 416.164V418ZM284.281 418.216C287.449 418.216 289.699 415.57 289.699 411.808C289.699 408.064 287.449 405.418 284.281 405.418C281.095 405.418 278.863 408.064 278.863 411.808C278.863 415.57 281.095 418.216 284.281 418.216ZM284.281 416.164C282.445 416.164 281.149 414.364 281.149 411.808C281.149 409.252 282.445 407.47 284.281 407.47C286.117 407.47 287.395 409.252 287.395 411.808C287.395 414.364 286.117 416.164 284.281 416.164ZM293.156 418H295.406V405.634H293.606L290.132 407.992L291.032 409.576L293.156 408.226V418ZM301.873 418.216C304.537 418.216 306.697 416.92 306.697 414.706C306.697 413.248 305.635 412.168 304.177 411.61C305.419 411.106 306.373 410.188 306.373 408.748C306.373 406.66 304.267 405.418 301.873 405.418C299.551 405.418 297.391 406.624 297.391 408.748C297.391 410.152 298.309 411.07 299.587 411.61C298.147 412.132 297.067 413.212 297.067 414.706C297.067 416.902 299.191 418.216 301.873 418.216ZM301.873 410.8C300.847 410.746 299.605 410.134 299.605 409.036C299.605 408.064 300.577 407.326 301.873 407.326C303.169 407.326 304.159 408.064 304.159 409.036C304.159 410.116 302.935 410.746 301.873 410.8ZM301.873 416.29C300.415 416.29 299.317 415.57 299.317 414.49C299.317 413.338 300.739 412.654 301.873 412.6C303.025 412.654 304.429 413.338 304.429 414.49C304.429 415.57 303.313 416.29 301.873 416.29Z" fill="black" fill-opacity="0.2"/>
<path d="M404.367 418H413.457V415.948H407.859L410.451 413.86C412.575 412.222 413.331 410.908 413.331 409.27C413.331 406.984 411.459 405.418 409.011 405.418C407.013 405.418 405.519 406.3 404.349 407.83L405.807 409.18C406.707 408.1 407.643 407.434 408.939 407.434C410.055 407.434 411.045 408.154 411.045 409.324C411.045 410.332 410.487 411.268 408.921 412.528L404.367 416.164V418ZM419.842 418.216C423.01 418.216 425.26 415.57 425.26 411.808C425.26 408.064 423.01 405.418 419.842 405.418C416.656 405.418 414.424 408.064 414.424 411.808C414.424 415.57 416.656 418.216 419.842 418.216ZM419.842 416.164C418.006 416.164 416.71 414.364 416.71 411.808C416.71 409.252 418.006 407.47 419.842 407.47C421.678 407.47 422.956 409.252 422.956 411.808C422.956 414.364 421.678 416.164 419.842 416.164ZM428.717 418H430.967V405.634H429.167L425.693 407.992L426.593 409.576L428.717 408.226V418ZM437.11 405.418C434.446 405.418 432.502 407.182 432.502 409.63C432.502 412.096 434.392 413.536 436.66 413.536C437.92 413.536 439.09 413.014 439.864 412.15C439.702 414.562 438.478 416.236 436.732 416.236C435.652 416.236 434.878 415.786 434.122 415.12L433.024 416.83C434.014 417.676 435.184 418.216 436.732 418.216C439.936 418.216 442.186 415.426 442.186 411.61C442.186 408.046 440.638 405.418 437.11 405.418ZM437.254 411.7C435.904 411.7 434.788 410.89 434.788 409.54C434.788 408.406 435.706 407.326 437.218 407.326C438.712 407.326 439.486 408.352 439.756 410.008C439.396 411.034 438.46 411.7 437.254 411.7Z" fill="#5C2CFF"/>
<path d="M404.367 418H413.457V415.948H407.859L410.451 413.86C412.575 412.222 413.331 410.908 413.331 409.27C413.331 406.984 411.459 405.418 409.011 405.418C407.013 405.418 405.519 406.3 404.349 407.83L405.807 409.18C406.707 408.1 407.643 407.434 408.939 407.434C410.055 407.434 411.045 408.154 411.045 409.324C411.045 410.332 410.487 411.268 408.921 412.528L404.367 416.164V418ZM419.842 418.216C423.01 418.216 425.26 415.57 425.26 411.808C425.26 408.064 423.01 405.418 419.842 405.418C416.656 405.418 414.424 408.064 414.424 411.808C414.424 415.57 416.656 418.216 419.842 418.216ZM419.842 416.164C418.006 416.164 416.71 414.364 416.71 411.808C416.71 409.252 418.006 407.47 419.842 407.47C421.678 407.47 422.956 409.252 422.956 411.808C422.956 414.364 421.678 416.164 419.842 416.164ZM428.717 418H430.967V405.634H429.167L425.693 407.992L426.593 409.576L428.717 408.226V418ZM437.11 405.418C434.446 405.418 432.502 407.182 432.502 409.63C432.502 412.096 434.392 413.536 436.66 413.536C437.92 413.536 439.09 413.014 439.864 412.15C439.702 414.562 438.478 416.236 436.732 416.236C435.652 416.236 434.878 415.786 434.122 415.12L433.024 416.83C434.014 417.676 435.184 418.216 436.732 418.216C439.936 418.216 442.186 415.426 442.186 411.61C442.186 408.046 440.638 405.418 437.11 405.418ZM437.254 411.7C435.904 411.7 434.788 410.89 434.788 409.54C434.788 408.406 435.706 407.326 437.218 407.326C438.712 407.326 439.486 408.352 439.756 410.008C439.396 411.034 438.46 411.7 437.254 411.7Z" fill="black" fill-opacity="0.2"/>
<path d="M538.928 418H548.018V415.948H542.42L545.012 413.86C547.136 412.222 547.892 410.908 547.892 409.27C547.892 406.984 546.02 405.418 543.572 405.418C541.574 405.418 540.08 406.3 538.91 407.83L540.368 409.18C541.268 408.1 542.204 407.434 543.5 407.434C544.616 407.434 545.606 408.154 545.606 409.324C545.606 410.332 545.048 411.268 543.482 412.528L538.928 416.164V418ZM554.403 418.216C557.571 418.216 559.821 415.57 559.821 411.808C559.821 408.064 557.571 405.418 554.403 405.418C551.217 405.418 548.985 408.064 548.985 411.808C548.985 415.57 551.217 418.216 554.403 418.216ZM554.403 416.164C552.567 416.164 551.271 414.364 551.271 411.808C551.271 409.252 552.567 407.47 554.403 407.47C556.239 407.47 557.517 409.252 557.517 411.808C557.517 414.364 556.239 416.164 554.403 416.164ZM560.542 418H569.632V415.948H564.034L566.626 413.86C568.75 412.222 569.506 410.908 569.506 409.27C569.506 406.984 567.634 405.418 565.186 405.418C563.188 405.418 561.694 406.3 560.524 407.83L561.982 409.18C562.882 408.1 563.818 407.434 565.114 407.434C566.23 407.434 567.22 408.154 567.22 409.324C567.22 410.332 566.662 411.268 565.096 412.528L560.542 416.164V418ZM576.017 418.216C579.185 418.216 581.435 415.57 581.435 411.808C581.435 408.064 579.185 405.418 576.017 405.418C572.831 405.418 570.599 408.064 570.599 411.808C570.599 415.57 572.831 418.216 576.017 418.216ZM576.017 416.164C574.181 416.164 572.885 414.364 572.885 411.808C572.885 409.252 574.181 407.47 576.017 407.47C577.853 407.47 579.131 409.252 579.131 411.808C579.131 414.364 577.853 416.164 576.017 416.164Z" fill="#5C2CFF"/>
<path d="M538.928 418H548.018V415.948H542.42L545.012 413.86C547.136 412.222 547.892 410.908 547.892 409.27C547.892 406.984 546.02 405.418 543.572 405.418C541.574 405.418 540.08 406.3 538.91 407.83L540.368 409.18C541.268 408.1 542.204 407.434 543.5 407.434C544.616 407.434 545.606 408.154 545.606 409.324C545.606 410.332 545.048 411.268 543.482 412.528L538.928 416.164V418ZM554.403 418.216C557.571 418.216 559.821 415.57 559.821 411.808C559.821 408.064 557.571 405.418 554.403 405.418C551.217 405.418 548.985 408.064 548.985 411.808C548.985 415.57 551.217 418.216 554.403 418.216ZM554.403 416.164C552.567 416.164 551.271 414.364 551.271 411.808C551.271 409.252 552.567 407.47 554.403 407.47C556.239 407.47 557.517 409.252 557.517 411.808C557.517 414.364 556.239 416.164 554.403 416.164ZM560.542 418H569.632V415.948H564.034L566.626 413.86C568.75 412.222 569.506 410.908 569.506 409.27C569.506 406.984 567.634 405.418 565.186 405.418C563.188 405.418 561.694 406.3 560.524 407.83L561.982 409.18C562.882 408.1 563.818 407.434 565.114 407.434C566.23 407.434 567.22 408.154 567.22 409.324C567.22 410.332 566.662 411.268 565.096 412.528L560.542 416.164V418ZM576.017 418.216C579.185 418.216 581.435 415.57 581.435 411.808C581.435 408.064 579.185 405.418 576.017 405.418C572.831 405.418 570.599 408.064 570.599 411.808C570.599 415.57 572.831 418.216 576.017 418.216ZM576.017 416.164C574.181 416.164 572.885 414.364 572.885 411.808C572.885 409.252 574.181 407.47 576.017 407.47C577.853 407.47 579.131 409.252 579.131 411.808C579.131 414.364 577.853 416.164 576.017 416.164Z" fill="black" fill-opacity="0.2"/>
<path d="M678.489 418H687.579V415.948H681.981L684.573 413.86C686.697 412.222 687.453 410.908 687.453 409.27C687.453 406.984 685.581 405.418 683.133 405.418C681.135 405.418 679.641 406.3 678.471 407.83L679.929 409.18C680.829 408.1 681.765 407.434 683.061 407.434C684.177 407.434 685.167 408.154 685.167 409.324C685.167 410.332 684.609 411.268 683.043 412.528L678.489 416.164V418ZM693.964 418.216C697.132 418.216 699.382 415.57 699.382 411.808C699.382 408.064 697.132 405.418 693.964 405.418C690.778 405.418 688.546 408.064 688.546 411.808C688.546 415.57 690.778 418.216 693.964 418.216ZM693.964 416.164C692.128 416.164 690.832 414.364 690.832 411.808C690.832 409.252 692.128 407.47 693.964 407.47C695.8 407.47 697.078 409.252 697.078 411.808C697.078 414.364 695.8 416.164 693.964 416.164ZM700.103 418H709.193V415.948H703.595L706.187 413.86C708.311 412.222 709.067 410.908 709.067 409.27C709.067 406.984 707.195 405.418 704.747 405.418C702.749 405.418 701.255 406.3 700.085 407.83L701.543 409.18C702.443 408.1 703.379 407.434 704.675 407.434C705.791 407.434 706.781 408.154 706.781 409.324C706.781 410.332 706.223 411.268 704.657 412.528L700.103 416.164V418ZM712.644 418H714.894V405.634H713.094L709.62 407.992L710.52 409.576L712.644 408.226V418Z" fill="#5C2CFF"/>
<path d="M678.489 418H687.579V415.948H681.981L684.573 413.86C686.697 412.222 687.453 410.908 687.453 409.27C687.453 406.984 685.581 405.418 683.133 405.418C681.135 405.418 679.641 406.3 678.471 407.83L679.929 409.18C680.829 408.1 681.765 407.434 683.061 407.434C684.177 407.434 685.167 408.154 685.167 409.324C685.167 410.332 684.609 411.268 683.043 412.528L678.489 416.164V418ZM693.964 418.216C697.132 418.216 699.382 415.57 699.382 411.808C699.382 408.064 697.132 405.418 693.964 405.418C690.778 405.418 688.546 408.064 688.546 411.808C688.546 415.57 690.778 418.216 693.964 418.216ZM693.964 416.164C692.128 416.164 690.832 414.364 690.832 411.808C690.832 409.252 692.128 407.47 693.964 407.47C695.8 407.47 697.078 409.252 697.078 411.808C697.078 414.364 695.8 416.164 693.964 416.164ZM700.103 418H709.193V415.948H703.595L706.187 413.86C708.311 412.222 709.067 410.908 709.067 409.27C709.067 406.984 707.195 405.418 704.747 405.418C702.749 405.418 701.255 406.3 700.085 407.83L701.543 409.18C702.443 408.1 703.379 407.434 704.675 407.434C705.791 407.434 706.781 408.154 706.781 409.324C706.781 410.332 706.223 411.268 704.657 412.528L700.103 416.164V418ZM712.644 418H714.894V405.634H713.094L709.62 407.992L710.52 409.576L712.644 408.226V418Z" fill="black" fill-opacity="0.2"/>
<path d="M1 378.006H821" stroke="#333333" stroke-miterlimit="10"/>
<path d="M8 378.006L18.7373 368.762L156.168 367.844C160.602 366.213 165.232 365.278 169.915 365.068C176.361 365.068 177.215 363.232 183.234 360.895C189.253 358.558 193.098 358.599 202.981 356.721C212.864 354.843 216.728 357.181 221.019 356.262C225.31 355.344 230.475 348.416 236.921 348.875C243.367 349.334 243.348 353.487 250.221 349.334C257.095 345.182 257.095 340.988 262.687 341.489C268.279 341.989 270.453 345.662 273.851 340.57C277.249 335.479 278.57 329.949 285.87 326.715C293.171 323.48 294.472 323.021 300.471 317.491C306.471 311.962 299.19 311.941 308.646 311.023C318.102 310.104 321.092 313.339 326.684 305.034C332.276 296.729 333.984 288.34 342.567 280.557C351.149 272.773 348.159 269.476 356.313 268.558C364.468 267.64 370.915 272.732 377.361 270.415C383.807 268.099 381.652 263.028 389.011 260.253C393.442 258.54 398.031 257.344 402.7 256.685C405.282 256.226 416.447 248.338 425.456 240.534C432.126 234.332 440.137 230.027 448.756 228.013C455.202 226.615 459.066 230.768 461.629 232.187C464.192 233.606 466.794 234.023 474.094 225.718C481.395 217.413 485.744 214.638 490.404 214.638C495.064 214.638 498.579 217.872 502.054 210.464C505.53 203.056 508.928 197.944 511.491 197.088C514.054 196.233 519.257 198.466 530.907 190.62C542.557 182.774 557.954 166.163 557.954 154.624C557.954 143.085 554.945 142.605 562.245 135.698C569.546 128.791 575.565 127.852 582.439 119.004C589.312 110.156 591.021 104.71 595.758 104.251C600.496 103.792 599.642 113.015 606.496 111.158C613.35 109.301 613.369 106.985 615.932 97.7822C618.495 88.5798 618.942 85.2619 625.815 84.3855C632.689 83.5091 644.28 84.3855 651.057 82.5492C657.833 80.7129 662.221 76.9986 669.522 76.9986C676.822 76.9986 690.142 82.5492 696.161 83.9264C702.181 85.3037 707.811 82.5492 717.636 78.3966C727.461 74.2441 747.266 77.4785 747.266 77.4785C747.266 77.4785 758.916 87.6199 767.459 83.4674C776.002 79.3148 779.905 77.4785 784.623 76.9986C792.727 76.0227 800.763 74.4822 808.68 72.3869C813.414 70.5905 817.895 68.105 822 65" stroke="#5C2CFF" stroke-width="6" stroke-miterlimit="10" stroke-linecap="round"/>
<path d="M8 378.006L18.7373 368.762L156.168 367.844C160.602 366.213 165.232 365.278 169.915 365.068C176.361 365.068 177.215 363.232 183.234 360.895C189.253 358.558 193.098 358.599 202.981 356.721C212.864 354.843 216.728 357.181 221.019 356.262C225.31 355.344 230.475 348.416 236.921 348.875C243.367 349.334 243.348 353.487 250.221 349.334C257.095 345.182 257.095 340.988 262.687 341.489C268.279 341.989 270.453 345.662 273.851 340.57C277.249 335.479 278.57 329.949 285.87 326.715C293.171 323.48 294.472 323.021 300.471 317.491C306.471 311.962 299.19 311.941 308.646 311.023C318.102 310.104 321.092 313.339 326.684 305.034C332.276 296.729 333.984 288.34 342.567 280.557C351.149 272.773 348.159 269.476 356.313 268.558C364.468 267.64 370.915 272.732 377.361 270.415C383.807 268.099 381.652 263.028 389.011 260.253C393.442 258.54 398.031 257.344 402.7 256.685C405.282 256.226 416.447 248.338 425.456 240.534C432.126 234.332 440.137 230.027 448.756 228.013C455.202 226.615 459.066 230.768 461.629 232.187C464.192 233.606 466.794 234.023 474.094 225.718C481.395 217.413 485.744 214.638 490.404 214.638C495.064 214.638 498.579 217.872 502.054 210.464C505.53 203.056 508.928 197.944 511.491 197.088C514.054 196.233 519.257 198.466 530.907 190.62C542.557 182.774 557.954 166.163 557.954 154.624C557.954 143.085 554.945 142.605 562.245 135.698C569.546 128.791 575.565 127.852 582.439 119.004C589.312 110.156 591.021 104.71 595.758 104.251C600.496 103.792 599.642 113.015 606.496 111.158C613.35 109.301 613.369 106.985 615.932 97.7822C618.495 88.5798 618.942 85.2619 625.815 84.3855C632.689 83.5091 644.28 84.3855 651.057 82.5492C657.833 80.7129 662.221 76.9986 669.522 76.9986C676.822 76.9986 690.142 82.5492 696.161 83.9264C702.181 85.3037 707.811 82.5492 717.636 78.3966C727.461 74.2441 747.266 77.4785 747.266 77.4785C747.266 77.4785 758.916 87.6199 767.459 83.4674C776.002 79.3148 779.905 77.4785 784.623 76.9986C792.727 76.0227 800.763 74.4822 808.68 72.3869C813.414 70.5905 817.895 68.105 822 65" stroke="black" stroke-opacity="0.2" stroke-width="6" stroke-miterlimit="10" stroke-linecap="round"/>
<defs>
<clipPath id="clip0_2190_1067">
<rect width="816.902" height="369" fill="white" transform="translate(8 9.00586)"/>
</clipPath>
</defs>
</svg>
