<svg fill="none" height="342" viewBox="0 0 482 342" width="482" xmlns="http://www.w3.org/2000/svg" xmlns:xlink="http://www.w3.org/1999/xlink"><mask id="a" height="59" maskUnits="userSpaceOnUse" width="81" x="401" y="137"><path d="m481.529 137.336h-80.5v58h80.5z" fill="#5c2cff"/><path d="m481.529 137.336h-80.5v58h80.5z" fill="#000" fill-opacity=".2"/></mask><g clip-rule="evenodd" fill="#64f9bf" fill-rule="evenodd" mask="url(#a)"><path d="m962.587 1021.96-961.678911-897.578 1.236381-1.154 961.67853 897.572z"/><path d="m459.018 1021.96-961.679-897.578 1.237-1.154 961.678 897.572z"/><path d="m1214.37 1021.96-961.676-897.578 1.236-1.154 961.68 897.572z"/><path d="m710.801 1021.96-961.679-897.578 1.237-1.154 961.678 897.572z"/><path d="m1088.48 1021.96-961.679-897.578 1.237-1.154 961.682 897.572z"/><path d="m584.909 1021.96-961.678-897.578 1.236-1.154 961.679 897.572z"/><path d="m1340.26 1021.96-961.674-897.578 1.236-1.154 961.678 897.572z"/><path d="m836.694 1021.96-961.678-897.578 1.236-1.154 961.679 897.572z"/><path d="m1025.53 1021.96-961.6737-897.578 1.2364-1.154 961.6773 897.572z"/><path d="m521.963 1021.96-961.679-897.578 1.237-1.154 961.678 897.572z"/><path d="m1277.32 1021.96-961.681-897.578 1.237-1.154 961.674 897.572z"/><path d="m773.748 1021.96-961.679-897.578 1.237-1.154 961.678 897.572z"/><path d="m1151.43 1021.96-961.683-897.578 1.236-1.154 961.677 897.572z"/><path d="m647.857 1021.96-961.679-897.578 1.236-1.154 961.679 897.572z"/><path d="m1403.21 1021.96-961.678-897.578 1.236-1.154 961.682 897.572z"/><path d="m899.641 1021.96-961.6782-897.578 1.2364-1.154 961.6788 897.572z"/><path d="m994.06 1021.96-961.6783-897.578 1.2363-1.154 961.679 897.572z"/><path d="m490.491 1021.96-961.679-897.578 1.236-1.154 961.679 897.572z"/><path d="m1245.84 1021.96-961.674-897.578 1.236-1.154 961.678 897.572z"/><path d="m742.275 1021.96-961.678-897.578 1.236-1.154 961.679 897.572z"/><path d="m1119.95 1021.96-961.675-897.578 1.236-1.154 961.679 897.572z"/><path d="m616.382 1021.96-961.679-897.578 1.237-1.154 961.678 897.572z"/><path d="m1371.74 1021.96-961.681-897.578 1.236-1.154 961.675 897.572z"/><path d="m868.167 1021.96-961.6788-897.578 1.2364-1.154 961.6784 897.572z"/><path d="m1057.01 1021.96-961.683-897.578 1.2364-1.154 961.6766 897.572z"/><path d="m553.437 1021.96-961.679-897.578 1.236-1.154 961.679 897.572z"/><path d="m1308.79 1021.96-961.676-897.578 1.236-1.154 961.68 897.572z"/><path d="m805.221 1021.96-961.679-897.578 1.236-1.154 961.679 897.572z"/><path d="m1182.9 1021.96-961.68-897.578 1.237-1.154 961.683 897.572z"/><path d="m679.329 1021.96-961.678-897.578 1.236-1.154 961.679 897.572z"/><path d="m427.543 1021.96-961.678-897.578 1.236-1.154 961.678 897.572z"/><path d="m1434.68 1021.96-961.676-897.578 1.237-1.154 961.679 897.572z"/><path d="m931.115 1021.96-961.6785-897.578 1.2364-1.154 961.6791 897.572z"/></g><path d="m401.026 136.336h-7.16v60h7.16z" fill="#5d3ccc"/><path d="m393.881 136.336h-26.352v60h26.352z" fill="#7d66cb"/><path d="m367.529 136.336h-366.999703v60h366.999703z" fill="#4a23cc"/><path d="m401.529 195.336v-58h79v58z" stroke="#64f9bf" stroke-width="2"/><path d="m236.809 100.336h2.2v-7.8761h4.84v-2.112h-4.84v-20.24h-2.772l-14.96 20.328.308 2.024h15.224zm-12.892-9.9881 12.892-17.6v17.6zm33.774-20.768c-5.632 0-10.032 4.488-10.032 9.944s4.4 9.46 9.592 9.46c4.224 0 7.832-2.288 9.064-5.456.044.396.044.792.044 1.232 0 8.096-3.96 13.992-9.328 13.992-2.816 0-5.412-1.232-7.436-3.256l-1.232 1.76c2.332 2.244 5.324 3.6081 8.58 3.6081 6.688 0 11.572-6.8201 11.572-16.1041 0-9.196-3.696-15.18-10.824-15.18zm-.044 17.38c-4.224 0-7.788-3.3-7.788-7.524 0-4.136 3.388-7.832 7.832-7.832 4.488 0 7.392 3.388 8.316 8.888-.792 3.652-4.268 6.468-8.36 6.468zm18.506 13.3761h2.508l13.376-28.5121v-1.716h-20.152v2.156h17.556z" fill="#5c2cff"/><path d="m236.809 100.336h2.2v-7.8761h4.84v-2.112h-4.84v-20.24h-2.772l-14.96 20.328.308 2.024h15.224zm-12.892-9.9881 12.892-17.6v17.6zm33.774-20.768c-5.632 0-10.032 4.488-10.032 9.944s4.4 9.46 9.592 9.46c4.224 0 7.832-2.288 9.064-5.456.044.396.044.792.044 1.232 0 8.096-3.96 13.992-9.328 13.992-2.816 0-5.412-1.232-7.436-3.256l-1.232 1.76c2.332 2.244 5.324 3.6081 8.58 3.6081 6.688 0 11.572-6.8201 11.572-16.1041 0-9.196-3.696-15.18-10.824-15.18zm-.044 17.38c-4.224 0-7.788-3.3-7.788-7.524 0-4.136 3.388-7.832 7.832-7.832 4.488 0 7.392 3.388 8.316 8.888-.792 3.652-4.268 6.468-8.36 6.468zm18.506 13.3761h2.508l13.376-28.5121v-1.716h-20.152v2.156h17.556z" fill="#000" fill-opacity=".2"/><path d="m14.6413 102.864c5.588 0 10.032-4.3561 10.032-9.9441 0-5.236-4.312-9.108-9.46-9.108-2.772 0-5.28.88-6.996 2.244l.308-11.792h14.872v-2.156h-17.028l-.396 15.312 1.892.968c2.068-1.584 4.488-2.508 6.864-2.508 4.312 0 7.744 3.168 7.744 7.172 0 4.268-3.476 7.7441-7.788 7.7441-3.564 0-6.908-1.6721-9.328-4.3561l-1.452 1.628c2.596 2.9481 6.424 4.7961 10.736 4.7961zm18.4834 5.016c2.024-2.596 2.816-4.356 2.816-5.94 0-1.496-.704-2.4201-1.804-2.4201-1.012 0-1.716.7481-1.716 1.6721s.704 1.672 1.672 1.672c-.308 1.276-1.1 2.728-2.288 4.048zm15.3791-5.544h2.2v-30.2281h-1.76l-7.832 5.06 1.056 1.716 6.336-4.004zm22.123.528c6.996 0 11.924-6.4681 11.924-15.6641 0-9.152-4.928-15.62-11.924-15.62-7.04 0-11.968 6.468-11.968 15.62 0 9.196 4.928 15.6641 11.968 15.6641zm0-2.112c-5.72 0-9.724-5.6321-9.724-13.5521s4.004-13.508 9.724-13.508c5.676 0 9.68 5.588 9.68 13.508s-4.004 13.5521-9.68 13.5521zm31.0572 1.584h2.2v-7.8761h4.84v-2.112h-4.84v-20.24h-2.772l-14.9597 20.328.308 2.024h15.2237zm-12.8917-9.9881 12.8917-17.6v17.6z" fill="#5c2cff"/><path d="m14.6413 102.864c5.588 0 10.032-4.3561 10.032-9.9441 0-5.236-4.312-9.108-9.46-9.108-2.772 0-5.28.88-6.996 2.244l.308-11.792h14.872v-2.156h-17.028l-.396 15.312 1.892.968c2.068-1.584 4.488-2.508 6.864-2.508 4.312 0 7.744 3.168 7.744 7.172 0 4.268-3.476 7.7441-7.788 7.7441-3.564 0-6.908-1.6721-9.328-4.3561l-1.452 1.628c2.596 2.9481 6.424 4.7961 10.736 4.7961zm18.4834 5.016c2.024-2.596 2.816-4.356 2.816-5.94 0-1.496-.704-2.4201-1.804-2.4201-1.012 0-1.716.7481-1.716 1.6721s.704 1.672 1.672 1.672c-.308 1.276-1.1 2.728-2.288 4.048zm15.3791-5.544h2.2v-30.2281h-1.76l-7.832 5.06 1.056 1.716 6.336-4.004zm22.123.528c6.996 0 11.924-6.4681 11.924-15.6641 0-9.152-4.928-15.62-11.924-15.62-7.04 0-11.968 6.468-11.968 15.62 0 9.196 4.928 15.6641 11.968 15.6641zm0-2.112c-5.72 0-9.724-5.6321-9.724-13.5521s4.004-13.508 9.724-13.508c5.676 0 9.68 5.588 9.68 13.508s-4.004 13.5521-9.68 13.5521zm31.0572 1.584h2.2v-7.8761h4.84v-2.112h-4.84v-20.24h-2.772l-14.9597 20.328.308 2.024h15.2237zm-12.8917-9.9881 12.8917-17.6v17.6z" fill="#000" fill-opacity=".2"/><path d="m226.969 15.3359h3.078v-7.16396l3.564 6.44396 3.564-6.44396v7.16396h3.078v-12.36596h-3.078l-3.564 6.444-3.564-6.444h-3.078zm26.81-9.61196v-2.754h-9.738v12.36596h9.738v-2.754h-6.66v-2.178h6.048v-2.75396h-6.048v-1.926zm3.344 9.61196h3.078v-7.16396l3.564 6.44396 3.564-6.44396v7.16396h3.078v-12.36596h-3.078l-3.564 6.444-3.564-6.444h-3.078zm17.072 0h6.714c2.448 0 4.194-1.368 4.194-3.348 0-1.35-.846-2.51996-2.286-3.14996 1.08-.54 1.728-1.53 1.728-2.754 0-1.8-1.602-3.114-3.888-3.114h-6.462zm3.06-7.46996v-2.286h2.664c.846 0 1.458.468 1.458 1.134s-.612 1.152-1.458 1.152zm0 4.85996v-2.484h3.114c.918 0 1.566.522 1.566 1.242s-.648 1.242-1.566 1.242zm20.673-7.00196v-2.754h-9.738v12.36596h9.738v-2.754h-6.66v-2.178h6.048v-2.75396h-6.048v-1.926zm13.856 9.61196-2.934-4.158c1.746-.612 2.862-2.06996 2.862-3.95996 0-2.502-1.962-4.248-4.698-4.248h-5.742v12.36596h3.078v-3.87h1.224l2.718 3.87zm-7.434-9.55796h2.394c1.062 0 1.8.576 1.8 1.44s-.738 1.44-1.8 1.44h-2.394zm-71.387 39.77396c1.926 0 3.672-.828 4.896-2.142l-2.232-1.98c-.648.81-1.602 1.332-2.664 1.332-1.89 0-3.492-1.656-3.492-3.618 0-1.944 1.602-3.6 3.492-3.6 1.044 0 2.016.522 2.646 1.332l2.25-1.998c-1.224-1.296-2.97-2.124-4.896-2.124-3.618 0-6.66 2.916-6.66 6.39s3.042 6.408 6.66 6.408zm13.785 0c3.6 0 6.642-2.934 6.642-6.408s-3.042-6.39-6.642-6.39c-3.618 0-6.66 2.916-6.66 6.39s3.042 6.408 6.66 6.408zm0-2.79c-1.89 0-3.492-1.656-3.492-3.618 0-1.944 1.602-3.6 3.492-3.6s3.474 1.656 3.474 3.6c0 1.962-1.584 3.618-3.474 3.618zm9.777 2.574h3.078v-7.164l3.564 6.444 3.564-6.444v7.164h3.078v-12.366h-3.078l-3.564 6.444-3.564-6.444h-3.078zm17.072 0h3.078v-3.87h2.664c2.736 0 4.698-1.746 4.698-4.248s-1.962-4.248-4.698-4.248h-5.742zm3.078-6.678v-2.88h2.394c1.062 0 1.8.576 1.8 1.44s-.738 1.44-1.8 1.44zm19.21 6.678h3.456l-4.896-12.366h-3.456l-4.896 12.366h3.456l.756-1.89h4.824zm-4.662-4.212 1.494-3.798 1.494 3.798zm10.91 4.212h3.078v-7.308l5.4 7.308h3.06v-12.366h-3.06v7.308l-5.4-7.308h-3.078zm15.332 0h3.078v-12.366h-3.078zm16.597-9.612v-2.754h-9.738v12.366h9.738v-2.754h-6.66v-2.178h6.048v-2.754h-6.048v-1.926zm8.186 9.828c3.06 0 4.95-1.548 4.95-4.032 0-2.322-1.782-3.114-4.554-3.708-1.836-.396-2.43-.648-2.43-1.404 0-.612.558-1.08 1.548-1.08 1.152 0 2.394.45 3.528 1.314l1.566-2.196c-1.314-1.08-2.934-1.692-5.022-1.692-2.808 0-4.716 1.584-4.716 3.96 0 2.484 1.962 3.204 4.608 3.798 1.8.432 2.376.594 2.376 1.332 0 .666-.594 1.134-1.746 1.134-1.512 0-2.862-.576-4.068-1.566l-1.746 2.07c1.512 1.35 3.51 2.07 5.706 2.07z" fill="#5c2cff"/><path d="m226.969 15.3359h3.078v-7.16396l3.564 6.44396 3.564-6.44396v7.16396h3.078v-12.36596h-3.078l-3.564 6.444-3.564-6.444h-3.078zm26.81-9.61196v-2.754h-9.738v12.36596h9.738v-2.754h-6.66v-2.178h6.048v-2.75396h-6.048v-1.926zm3.344 9.61196h3.078v-7.16396l3.564 6.44396 3.564-6.44396v7.16396h3.078v-12.36596h-3.078l-3.564 6.444-3.564-6.444h-3.078zm17.072 0h6.714c2.448 0 4.194-1.368 4.194-3.348 0-1.35-.846-2.51996-2.286-3.14996 1.08-.54 1.728-1.53 1.728-2.754 0-1.8-1.602-3.114-3.888-3.114h-6.462zm3.06-7.46996v-2.286h2.664c.846 0 1.458.468 1.458 1.134s-.612 1.152-1.458 1.152zm0 4.85996v-2.484h3.114c.918 0 1.566.522 1.566 1.242s-.648 1.242-1.566 1.242zm20.673-7.00196v-2.754h-9.738v12.36596h9.738v-2.754h-6.66v-2.178h6.048v-2.75396h-6.048v-1.926zm13.856 9.61196-2.934-4.158c1.746-.612 2.862-2.06996 2.862-3.95996 0-2.502-1.962-4.248-4.698-4.248h-5.742v12.36596h3.078v-3.87h1.224l2.718 3.87zm-7.434-9.55796h2.394c1.062 0 1.8.576 1.8 1.44s-.738 1.44-1.8 1.44h-2.394zm-71.387 39.77396c1.926 0 3.672-.828 4.896-2.142l-2.232-1.98c-.648.81-1.602 1.332-2.664 1.332-1.89 0-3.492-1.656-3.492-3.618 0-1.944 1.602-3.6 3.492-3.6 1.044 0 2.016.522 2.646 1.332l2.25-1.998c-1.224-1.296-2.97-2.124-4.896-2.124-3.618 0-6.66 2.916-6.66 6.39s3.042 6.408 6.66 6.408zm13.785 0c3.6 0 6.642-2.934 6.642-6.408s-3.042-6.39-6.642-6.39c-3.618 0-6.66 2.916-6.66 6.39s3.042 6.408 6.66 6.408zm0-2.79c-1.89 0-3.492-1.656-3.492-3.618 0-1.944 1.602-3.6 3.492-3.6s3.474 1.656 3.474 3.6c0 1.962-1.584 3.618-3.474 3.618zm9.777 2.574h3.078v-7.164l3.564 6.444 3.564-6.444v7.164h3.078v-12.366h-3.078l-3.564 6.444-3.564-6.444h-3.078zm17.072 0h3.078v-3.87h2.664c2.736 0 4.698-1.746 4.698-4.248s-1.962-4.248-4.698-4.248h-5.742zm3.078-6.678v-2.88h2.394c1.062 0 1.8.576 1.8 1.44s-.738 1.44-1.8 1.44zm19.21 6.678h3.456l-4.896-12.366h-3.456l-4.896 12.366h3.456l.756-1.89h4.824zm-4.662-4.212 1.494-3.798 1.494 3.798zm10.91 4.212h3.078v-7.308l5.4 7.308h3.06v-12.366h-3.06v7.308l-5.4-7.308h-3.078zm15.332 0h3.078v-12.366h-3.078zm16.597-9.612v-2.754h-9.738v12.366h9.738v-2.754h-6.66v-2.178h6.048v-2.754h-6.048v-1.926zm8.186 9.828c3.06 0 4.95-1.548 4.95-4.032 0-2.322-1.782-3.114-4.554-3.708-1.836-.396-2.43-.648-2.43-1.404 0-.612.558-1.08 1.548-1.08 1.152 0 2.394.45 3.528 1.314l1.566-2.196c-1.314-1.08-2.934-1.692-5.022-1.692-2.808 0-4.716 1.584-4.716 3.96 0 2.484 1.962 3.204 4.608 3.798 1.8.432 2.376.594 2.376 1.332 0 .666-.594 1.134-1.746 1.134-1.512 0-2.862-.576-4.068-1.566l-1.746 2.07c1.512 1.35 3.51 2.07 5.706 2.07z" fill="#000" fill-opacity=".2"/><path d="m353.963 286.551c3.6 0 6.642-2.934 6.642-6.408s-3.042-6.39-6.642-6.39c-3.618 0-6.66 2.916-6.66 6.39s3.042 6.408 6.66 6.408zm0-2.79c-1.89 0-3.492-1.656-3.492-3.618 0-1.944 1.602-3.6 3.492-3.6s3.474 1.656 3.474 3.6c0 1.962-1.584 3.618-3.474 3.618zm12.693 2.574h3.078v-9.612h3.762v-2.754h-10.584v2.754h3.744zm17.951-12.366v4.68h-5.076v-4.68h-3.078v12.366h3.078v-4.932h5.076v4.932h3.078v-12.366zm16.599 2.754v-2.754h-9.738v12.366h9.738v-2.754h-6.66v-2.178h6.048v-2.754h-6.048v-1.926zm13.856 9.612-2.934-4.158c1.746-.612 2.862-2.07 2.862-3.96 0-2.502-1.962-4.248-4.698-4.248h-5.742v12.366h3.078v-3.87h1.224l2.718 3.87zm-7.434-9.558h2.394c1.062 0 1.8.576 1.8 1.44s-.738 1.44-1.8 1.44h-2.394z" fill="#5c2cff"/><path d="m353.963 286.551c3.6 0 6.642-2.934 6.642-6.408s-3.042-6.39-6.642-6.39c-3.618 0-6.66 2.916-6.66 6.39s3.042 6.408 6.66 6.408zm0-2.79c-1.89 0-3.492-1.656-3.492-3.618 0-1.944 1.602-3.6 3.492-3.6s3.474 1.656 3.474 3.6c0 1.962-1.584 3.618-3.474 3.618zm12.693 2.574h3.078v-9.612h3.762v-2.754h-10.584v2.754h3.744zm17.951-12.366v4.68h-5.076v-4.68h-3.078v12.366h3.078v-4.932h5.076v4.932h3.078v-12.366zm16.599 2.754v-2.754h-9.738v12.366h9.738v-2.754h-6.66v-2.178h6.048v-2.754h-6.048v-1.926zm13.856 9.612-2.934-4.158c1.746-.612 2.862-2.07 2.862-3.96 0-2.502-1.962-4.248-4.698-4.248h-5.742v12.366h3.078v-3.87h1.224l2.718 3.87zm-7.434-9.558h2.394c1.062 0 1.8.576 1.8 1.44s-.738 1.44-1.8 1.44h-2.394z" fill="#000" fill-opacity=".2"/><path d="m49.2733 341.335h2.2v-30.228h-1.76l-7.832 5.06 1.056 1.716 6.336-4.004zm23.5751 0h2.2v-7.876h4.84v-2.112h-4.84v-20.24h-2.772l-14.96 20.328.308 2.024h15.224zm-12.892-9.988 12.892-17.6v17.6zm34.3021 10.516c5.588 0 10.0315-4.356 10.0315-9.944 0-5.236-4.3115-9.108-9.4595-9.108-2.772 0-5.28.88-6.996 2.244l.308-11.792h14.8715v-2.156h-17.0275l-.396 15.312 1.892.968c2.068-1.584 4.488-2.508 6.864-2.508 4.312 0 7.7435 3.168 7.7435 7.172 0 4.268-3.4755 7.744-7.7875 7.744-3.564 0-6.908-1.672-9.328-4.356l-1.452 1.628c2.596 2.948 6.424 4.796 10.736 4.796z" fill="#5c2cff"/><path d="m49.2733 341.335h2.2v-30.228h-1.76l-7.832 5.06 1.056 1.716 6.336-4.004zm23.5751 0h2.2v-7.876h4.84v-2.112h-4.84v-20.24h-2.772l-14.96 20.328.308 2.024h15.224zm-12.892-9.988 12.892-17.6v17.6zm34.3021 10.516c5.588 0 10.0315-4.356 10.0315-9.944 0-5.236-4.3115-9.108-9.4595-9.108-2.772 0-5.28.88-6.996 2.244l.308-11.792h14.8715v-2.156h-17.0275l-.396 15.312 1.892.968c2.068-1.584 4.488-2.508 6.864-2.508 4.312 0 7.7435 3.168 7.7435 7.172 0 4.268-3.4755 7.744-7.7875 7.744-3.564 0-6.908-1.672-9.328-4.356l-1.452 1.628c2.596 2.948 6.424 4.796 10.736 4.796z" fill="#000" fill-opacity=".2"/><path d="m354.273 341.335h2.2v-30.228h-1.76l-7.832 5.06 1.056 1.716 6.336-4.004zm20.407.528c5.588 0 10.032-4.356 10.032-9.944 0-5.236-4.312-9.108-9.46-9.108-2.772 0-5.28.88-6.996 2.244l.308-11.792h14.872v-2.156h-17.028l-.396 15.312 1.892.968c2.068-1.584 4.488-2.508 6.864-2.508 4.312 0 7.744 3.168 7.744 7.172 0 4.268-3.476 7.744-7.788 7.744-3.564 0-6.908-1.672-9.328-4.356l-1.452 1.628c2.596 2.948 6.424 4.796 10.736 4.796zm28.692-.528h2.2v-7.876h4.84v-2.112h-4.84v-20.24h-2.772l-14.96 20.328.308 2.024h15.224zm-12.892-9.988 12.892-17.6v17.6zm37.47 9.988h2.2v-7.876h4.84v-2.112h-4.84v-20.24h-2.772l-14.96 20.328.308 2.024h15.224zm-12.892-9.988 12.892-17.6v17.6z" fill="#5c2cff"/><path d="m354.273 341.335h2.2v-30.228h-1.76l-7.832 5.06 1.056 1.716 6.336-4.004zm20.407.528c5.588 0 10.032-4.356 10.032-9.944 0-5.236-4.312-9.108-9.46-9.108-2.772 0-5.28.88-6.996 2.244l.308-11.792h14.872v-2.156h-17.028l-.396 15.312 1.892.968c2.068-1.584 4.488-2.508 6.864-2.508 4.312 0 7.744 3.168 7.744 7.172 0 4.268-3.476 7.744-7.788 7.744-3.564 0-6.908-1.672-9.328-4.356l-1.452 1.628c2.596 2.948 6.424 4.796 10.736 4.796zm28.692-.528h2.2v-7.876h4.84v-2.112h-4.84v-20.24h-2.772l-14.96 20.328.308 2.024h15.224zm-12.892-9.988 12.892-17.6v17.6zm37.47 9.988h2.2v-7.876h4.84v-2.112h-4.84v-20.24h-2.772l-14.96 20.328.308 2.024h15.224zm-12.892-9.988 12.892-17.6v17.6z" fill="#000" fill-opacity=".2"/><path d="m52.7073 246.723v-2.754h-9.738v12.366h9.738v-2.754h-6.66v-2.178h6.048v-2.754h-6.048v-1.926zm3.3436 9.612h3.078v-7.308l5.4 7.308h3.06v-12.366h-3.06v7.308l-5.4-7.308h-3.078zm15.3317 0h4.518c4.248 0 7.254-2.574 7.254-6.192s-3.006-6.174-7.254-6.174h-4.518zm3.078-2.79v-6.786h1.908c2.124 0 3.618 1.404 3.618 3.384s-1.494 3.402-3.618 3.402zm23.0553 3.006c3.3841 0 5.7421-2.322 5.7421-5.634v-6.948h-3.06v6.804c0 1.746-1.1161 2.988-2.6821 2.988-1.548 0-2.664-1.242-2.664-2.988v-6.804h-3.078v6.948c0 3.312 2.376 5.634 5.742 5.634zm14.1041 0c3.06 0 4.95-1.548 4.95-4.032 0-2.322-1.782-3.114-4.554-3.708-1.836-.396-2.43-.648-2.43-1.404 0-.612.558-1.08 1.548-1.08 1.152 0 2.394.45 3.528 1.314l1.566-2.196c-1.314-1.08-2.934-1.692-5.022-1.692-2.808 0-4.716 1.584-4.716 3.96 0 2.484 1.962 3.204 4.608 3.798 1.8.432 2.376.594 2.376 1.332 0 .666-.594 1.134-1.746 1.134-1.512 0-2.862-.576-4.068-1.566l-1.746 2.07c1.512 1.35 3.51 2.07 5.706 2.07zm17.767-9.828v-2.754h-9.738v12.366h9.738v-2.754h-6.66v-2.178h6.048v-2.754h-6.048v-1.926zm13.855 9.612-2.934-4.158c1.746-.612 2.862-2.07 2.862-3.96 0-2.502-1.962-4.248-4.698-4.248h-5.742v12.366h3.078v-3.87h1.224l2.718 3.87zm-7.434-9.558h2.394c1.062 0 1.8.576 1.8 1.44s-.738 1.44-1.8 1.44h-2.394zm16.371 9.558h3.078v-7.164l3.564 6.444 3.564-6.444v7.164h3.078v-12.366h-3.078l-3.564 6.444-3.564-6.444h-3.078zm26.81-9.612v-2.754h-9.738v12.366h9.738v-2.754h-6.66v-2.178h6.048v-2.754h-6.048v-1.926zm3.343 9.612h3.078v-7.164l3.564 6.444 3.564-6.444v7.164h3.078v-12.366h-3.078l-3.564 6.444-3.564-6.444h-3.078zm17.072 0h6.714c2.448 0 4.194-1.368 4.194-3.348 0-1.35-.846-2.52-2.286-3.15 1.08-.54 1.728-1.53 1.728-2.754 0-1.8-1.602-3.114-3.888-3.114h-6.462zm3.06-7.47v-2.286h2.664c.846 0 1.458.468 1.458 1.134s-.612 1.152-1.458 1.152zm0 4.86v-2.484h3.114c.918 0 1.566.522 1.566 1.242s-.648 1.242-1.566 1.242zm20.674-7.002v-2.754h-9.738v12.366h9.738v-2.754h-6.66v-2.178h6.048v-2.754h-6.048v-1.926zm13.855 9.612-2.934-4.158c1.746-.612 2.862-2.07 2.862-3.96 0-2.502-1.962-4.248-4.698-4.248h-5.742v12.366h3.078v-3.87h1.224l2.718 3.87zm-7.434-9.558h2.394c1.062 0 1.8.576 1.8 1.44s-.738 1.44-1.8 1.44h-2.394zm15.426 9.774c3.06 0 4.95-1.548 4.95-4.032 0-2.322-1.782-3.114-4.554-3.708-1.836-.396-2.43-.648-2.43-1.404 0-.612.558-1.08 1.548-1.08 1.152 0 2.394.45 3.528 1.314l1.566-2.196c-1.314-1.08-2.934-1.692-5.022-1.692-2.808 0-4.716 1.584-4.716 3.96 0 2.484 1.962 3.204 4.608 3.798 1.8.432 2.376.594 2.376 1.332 0 .666-.594 1.134-1.746 1.134-1.512 0-2.862-.576-4.068-1.566l-1.746 2.07c1.512 1.35 3.51 2.07 5.706 2.07zm6.751 1.116h3.186l6.156-14.706h-3.186zm-203.9247 28.884c3.06 0 4.95-1.548 4.95-4.032 0-2.322-1.782-3.114-4.554-3.708-1.836-.396-2.43-.648-2.43-1.404 0-.612.558-1.08 1.548-1.08 1.152 0 2.394.45 3.528 1.314l1.566-2.196c-1.314-1.08-2.934-1.692-5.022-1.692-2.808 0-4.716 1.584-4.716 3.96 0 2.484 1.962 3.204 4.608 3.798 1.8.432 2.376.594 2.376 1.332 0 .666-.594 1.134-1.746 1.134-1.512 0-2.862-.576-4.068-1.566l-1.746 2.07c1.512 1.35 3.51 2.07 5.706 2.07zm13.5007 0c3.384 0 5.742-2.322 5.742-5.634v-6.948h-3.06v6.804c0 1.746-1.116 2.988-2.682 2.988-1.548 0-2.664-1.242-2.664-2.988v-6.804h-3.078v6.948c0 3.312 2.376 5.634 5.742 5.634zm9.262-.216h3.078v-3.87h2.664c2.736 0 4.698-1.746 4.698-4.248s-1.962-4.248-4.698-4.248h-5.742zm3.078-6.678v-2.88h2.394c1.062 0 1.8.576 1.8 1.44s-.738 1.44-1.8 1.44zm10.4079 6.678h3.078v-3.87h2.664c2.736 0 4.698-1.746 4.698-4.248s-1.962-4.248-4.698-4.248h-5.742zm3.078-6.678v-2.88h2.394c1.062 0 1.8.576 1.8 1.44s-.738 1.44-1.8 1.44zm16.4021 6.894c3.6 0 6.642-2.934 6.642-6.408s-3.042-6.39-6.642-6.39c-3.6181 0-6.6601 2.916-6.6601 6.39s3.042 6.408 6.6601 6.408zm0-2.79c-1.89 0-3.492-1.656-3.492-3.618 0-1.944 1.602-3.6 3.492-3.6s3.474 1.656 3.474 3.6c0 1.962-1.584 3.618-3.474 3.618zm20.289 2.574-2.934-4.158c1.746-.612 2.862-2.07 2.862-3.96 0-2.502-1.962-4.248-4.698-4.248h-5.742v12.366h3.078v-3.87h1.224l2.718 3.87zm-7.434-9.558h2.394c1.062 0 1.8.576 1.8 1.44s-.738 1.44-1.8 1.44h-2.394zm13.5 9.558h3.078v-9.612h3.762v-2.754h-10.584v2.754h3.744zm19.534-9.612v-2.754h-9.738v12.366h9.738v-2.754h-6.66v-2.178h6.048v-2.754h-6.048v-1.926zm13.856 9.612-2.934-4.158c1.746-.612 2.862-2.07 2.862-3.96 0-2.502-1.962-4.248-4.698-4.248h-5.742v12.366h3.078v-3.87h1.224l2.718 3.87zm-7.434-9.558h2.394c1.062 0 1.8.576 1.8 1.44s-.738 1.44-1.8 1.44h-2.394zm15.426 9.774c3.06 0 4.95-1.548 4.95-4.032 0-2.322-1.782-3.114-4.554-3.708-1.836-.396-2.43-.648-2.43-1.404 0-.612.558-1.08 1.548-1.08 1.152 0 2.394.45 3.528 1.314l1.566-2.196c-1.314-1.08-2.934-1.692-5.022-1.692-2.808 0-4.716 1.584-4.716 3.96 0 2.484 1.962 3.204 4.608 3.798 1.8.432 2.376.594 2.376 1.332 0 .666-.594 1.134-1.746 1.134-1.512 0-2.862-.576-4.068-1.566l-1.746 2.07c1.512 1.35 3.51 2.07 5.706 2.07z" fill="#5c2cff"/><path d="m52.7073 246.723v-2.754h-9.738v12.366h9.738v-2.754h-6.66v-2.178h6.048v-2.754h-6.048v-1.926zm3.3436 9.612h3.078v-7.308l5.4 7.308h3.06v-12.366h-3.06v7.308l-5.4-7.308h-3.078zm15.3317 0h4.518c4.248 0 7.254-2.574 7.254-6.192s-3.006-6.174-7.254-6.174h-4.518zm3.078-2.79v-6.786h1.908c2.124 0 3.618 1.404 3.618 3.384s-1.494 3.402-3.618 3.402zm23.0553 3.006c3.3841 0 5.7421-2.322 5.7421-5.634v-6.948h-3.06v6.804c0 1.746-1.1161 2.988-2.6821 2.988-1.548 0-2.664-1.242-2.664-2.988v-6.804h-3.078v6.948c0 3.312 2.376 5.634 5.742 5.634zm14.1041 0c3.06 0 4.95-1.548 4.95-4.032 0-2.322-1.782-3.114-4.554-3.708-1.836-.396-2.43-.648-2.43-1.404 0-.612.558-1.08 1.548-1.08 1.152 0 2.394.45 3.528 1.314l1.566-2.196c-1.314-1.08-2.934-1.692-5.022-1.692-2.808 0-4.716 1.584-4.716 3.96 0 2.484 1.962 3.204 4.608 3.798 1.8.432 2.376.594 2.376 1.332 0 .666-.594 1.134-1.746 1.134-1.512 0-2.862-.576-4.068-1.566l-1.746 2.07c1.512 1.35 3.51 2.07 5.706 2.07zm17.767-9.828v-2.754h-9.738v12.366h9.738v-2.754h-6.66v-2.178h6.048v-2.754h-6.048v-1.926zm13.855 9.612-2.934-4.158c1.746-.612 2.862-2.07 2.862-3.96 0-2.502-1.962-4.248-4.698-4.248h-5.742v12.366h3.078v-3.87h1.224l2.718 3.87zm-7.434-9.558h2.394c1.062 0 1.8.576 1.8 1.44s-.738 1.44-1.8 1.44h-2.394zm16.371 9.558h3.078v-7.164l3.564 6.444 3.564-6.444v7.164h3.078v-12.366h-3.078l-3.564 6.444-3.564-6.444h-3.078zm26.81-9.612v-2.754h-9.738v12.366h9.738v-2.754h-6.66v-2.178h6.048v-2.754h-6.048v-1.926zm3.343 9.612h3.078v-7.164l3.564 6.444 3.564-6.444v7.164h3.078v-12.366h-3.078l-3.564 6.444-3.564-6.444h-3.078zm17.072 0h6.714c2.448 0 4.194-1.368 4.194-3.348 0-1.35-.846-2.52-2.286-3.15 1.08-.54 1.728-1.53 1.728-2.754 0-1.8-1.602-3.114-3.888-3.114h-6.462zm3.06-7.47v-2.286h2.664c.846 0 1.458.468 1.458 1.134s-.612 1.152-1.458 1.152zm0 4.86v-2.484h3.114c.918 0 1.566.522 1.566 1.242s-.648 1.242-1.566 1.242zm20.674-7.002v-2.754h-9.738v12.366h9.738v-2.754h-6.66v-2.178h6.048v-2.754h-6.048v-1.926zm13.855 9.612-2.934-4.158c1.746-.612 2.862-2.07 2.862-3.96 0-2.502-1.962-4.248-4.698-4.248h-5.742v12.366h3.078v-3.87h1.224l2.718 3.87zm-7.434-9.558h2.394c1.062 0 1.8.576 1.8 1.44s-.738 1.44-1.8 1.44h-2.394zm15.426 9.774c3.06 0 4.95-1.548 4.95-4.032 0-2.322-1.782-3.114-4.554-3.708-1.836-.396-2.43-.648-2.43-1.404 0-.612.558-1.08 1.548-1.08 1.152 0 2.394.45 3.528 1.314l1.566-2.196c-1.314-1.08-2.934-1.692-5.022-1.692-2.808 0-4.716 1.584-4.716 3.96 0 2.484 1.962 3.204 4.608 3.798 1.8.432 2.376.594 2.376 1.332 0 .666-.594 1.134-1.746 1.134-1.512 0-2.862-.576-4.068-1.566l-1.746 2.07c1.512 1.35 3.51 2.07 5.706 2.07zm6.751 1.116h3.186l6.156-14.706h-3.186zm-203.9247 28.884c3.06 0 4.95-1.548 4.95-4.032 0-2.322-1.782-3.114-4.554-3.708-1.836-.396-2.43-.648-2.43-1.404 0-.612.558-1.08 1.548-1.08 1.152 0 2.394.45 3.528 1.314l1.566-2.196c-1.314-1.08-2.934-1.692-5.022-1.692-2.808 0-4.716 1.584-4.716 3.96 0 2.484 1.962 3.204 4.608 3.798 1.8.432 2.376.594 2.376 1.332 0 .666-.594 1.134-1.746 1.134-1.512 0-2.862-.576-4.068-1.566l-1.746 2.07c1.512 1.35 3.51 2.07 5.706 2.07zm13.5007 0c3.384 0 5.742-2.322 5.742-5.634v-6.948h-3.06v6.804c0 1.746-1.116 2.988-2.682 2.988-1.548 0-2.664-1.242-2.664-2.988v-6.804h-3.078v6.948c0 3.312 2.376 5.634 5.742 5.634zm9.262-.216h3.078v-3.87h2.664c2.736 0 4.698-1.746 4.698-4.248s-1.962-4.248-4.698-4.248h-5.742zm3.078-6.678v-2.88h2.394c1.062 0 1.8.576 1.8 1.44s-.738 1.44-1.8 1.44zm10.4079 6.678h3.078v-3.87h2.664c2.736 0 4.698-1.746 4.698-4.248s-1.962-4.248-4.698-4.248h-5.742zm3.078-6.678v-2.88h2.394c1.062 0 1.8.576 1.8 1.44s-.738 1.44-1.8 1.44zm16.4021 6.894c3.6 0 6.642-2.934 6.642-6.408s-3.042-6.39-6.642-6.39c-3.6181 0-6.6601 2.916-6.6601 6.39s3.042 6.408 6.6601 6.408zm0-2.79c-1.89 0-3.492-1.656-3.492-3.618 0-1.944 1.602-3.6 3.492-3.6s3.474 1.656 3.474 3.6c0 1.962-1.584 3.618-3.474 3.618zm20.289 2.574-2.934-4.158c1.746-.612 2.862-2.07 2.862-3.96 0-2.502-1.962-4.248-4.698-4.248h-5.742v12.366h3.078v-3.87h1.224l2.718 3.87zm-7.434-9.558h2.394c1.062 0 1.8.576 1.8 1.44s-.738 1.44-1.8 1.44h-2.394zm13.5 9.558h3.078v-9.612h3.762v-2.754h-10.584v2.754h3.744zm19.534-9.612v-2.754h-9.738v12.366h9.738v-2.754h-6.66v-2.178h6.048v-2.754h-6.048v-1.926zm13.856 9.612-2.934-4.158c1.746-.612 2.862-2.07 2.862-3.96 0-2.502-1.962-4.248-4.698-4.248h-5.742v12.366h3.078v-3.87h1.224l2.718 3.87zm-7.434-9.558h2.394c1.062 0 1.8.576 1.8 1.44s-.738 1.44-1.8 1.44h-2.394zm15.426 9.774c3.06 0 4.95-1.548 4.95-4.032 0-2.322-1.782-3.114-4.554-3.708-1.836-.396-2.43-.648-2.43-1.404 0-.612.558-1.08 1.548-1.08 1.152 0 2.394.45 3.528 1.314l1.566-2.196c-1.314-1.08-2.934-1.692-5.022-1.692-2.808 0-4.716 1.584-4.716 3.96 0 2.484 1.962 3.204 4.608 3.798 1.8.432 2.376.594 2.376 1.332 0 .666-.594 1.134-1.746 1.134-1.512 0-2.862-.576-4.068-1.566l-1.746 2.07c1.512 1.35 3.51 2.07 5.706 2.07z" fill="#000" fill-opacity=".2"/><path d="m12.7073 7.72394v-2.754h-9.738v12.36596h9.738v-2.754h-6.66v-2.178h6.048v-2.75396h-6.048v-1.926zm3.3436 9.61196h3.078v-7.308l5.4 7.308h3.06v-12.36596h-3.06v7.30796l-5.4-7.30796h-3.078zm15.3317 0h4.518c4.248 0 7.254-2.574 7.254-6.192 0-3.61796-3.006-6.17396-7.254-6.17396h-4.518zm3.078-2.79v-6.78596h1.908c2.124 0 3.618 1.404 3.618 3.38396 0 1.98-1.494 3.402-3.618 3.402zm23.0553 3.006c3.384 0 5.742-2.322 5.742-5.634v-6.94796h-3.06v6.80396c0 1.746-1.116 2.988-2.682 2.988-1.548 0-2.664-1.242-2.664-2.988v-6.80396h-3.078v6.94796c0 3.312 2.376 5.634 5.742 5.634zm14.104 0c3.06 0 4.95-1.548 4.95-4.032 0-2.322-1.782-3.114-4.554-3.70796-1.836-.396-2.43-.648-2.43-1.404 0-.612.558-1.08 1.548-1.08 1.152 0 2.394.45 3.528 1.314l1.566-2.196c-1.314-1.08-2.934-1.692-5.022-1.692-2.808 0-4.716 1.584-4.716 3.96 0 2.48396 1.962 3.20396 4.608 3.79796 1.8.432 2.376.594 2.376 1.332 0 .666-.594 1.134-1.746 1.134-1.512 0-2.862-.576-4.068-1.566l-1.746 2.07c1.512 1.35 3.51 2.07 5.706 2.07zm17.7667-9.82796v-2.754h-9.738v12.36596h9.738v-2.754h-6.66v-2.178h6.048v-2.75396h-6.048v-1.926zm13.8554 9.61196-2.934-4.158c1.746-.612 2.862-2.07 2.862-3.95996 0-2.502-1.962-4.248-4.6978-4.248h-5.742v12.36596h3.078v-3.87h1.224l2.718 3.87zm-7.4338-9.55796h2.394c1.062 0 1.7998.576 1.7998 1.44 0 .86396-.7378 1.43996-1.7998 1.43996h-2.394zm-86.8449 39.77396c1.926 0 3.672-.828 4.896-2.142l-2.232-1.98c-.648.81-1.602 1.332-2.664 1.332-1.89 0-3.492-1.656-3.492-3.618 0-1.944 1.602-3.6 3.492-3.6 1.044 0 2.016.522 2.646 1.332l2.25-1.998c-1.224-1.296-2.97-2.124-4.896-2.124-3.618 0-6.66 2.916-6.66 6.39s3.042 6.408 6.66 6.408zm13.7848 0c3.6 0 6.642-2.934 6.642-6.408s-3.042-6.39-6.642-6.39c-3.618 0-6.66 2.916-6.66 6.39s3.042 6.408 6.66 6.408zm0-2.79c-1.89 0-3.492-1.656-3.492-3.618 0-1.944 1.602-3.6 3.492-3.6s3.474 1.656 3.474 3.6c0 1.962-1.584 3.618-3.474 3.618zm9.7771 2.574h3.078v-7.164l3.564 6.444 3.564-6.444v7.164h3.078v-12.366h-3.078l-3.564 6.444-3.564-6.444h-3.078zm17.0718 0h3.078v-3.87h2.664c2.736 0 4.698-1.746 4.698-4.248s-1.962-4.248-4.698-4.248h-5.742zm3.078-6.678v-2.88h2.394c1.062 0 1.8.576 1.8 1.44s-.738 1.44-1.8 1.44zm19.21 6.678h3.456l-4.896-12.366h-3.456l-4.896 12.366h3.456l.756-1.89h4.824zm-4.662-4.212 1.494-3.798 1.494 3.798zm10.9104 4.212h3.078v-7.308l5.4 7.308h3.06v-12.366h-3.06v7.308l-5.4-7.308h-3.078zm15.3316 0h3.078v-12.366h-3.078zm16.597-9.612v-2.754h-9.738v12.366h9.738v-2.754h-6.66v-2.178h6.048v-2.754h-6.048v-1.926zm8.186 9.828c3.06 0 4.95-1.548 4.95-4.032 0-2.322-1.782-3.114-4.554-3.708-1.836-.396-2.43-.648-2.43-1.404 0-.612.558-1.08 1.548-1.08 1.152 0 2.394.45 3.528 1.314l1.566-2.196c-1.314-1.08-2.934-1.692-5.022-1.692-2.808 0-4.716 1.584-4.716 3.96 0 2.484 1.962 3.204 4.608 3.798 1.8.432 2.376.594 2.376 1.332 0 .666-.594 1.134-1.746 1.134-1.512 0-2.862-.576-4.068-1.566l-1.746 2.07c1.512 1.35 3.51 2.07 5.706 2.07z" fill="#5c2cff"/><path d="m12.7073 7.72394v-2.754h-9.738v12.36596h9.738v-2.754h-6.66v-2.178h6.048v-2.75396h-6.048v-1.926zm3.3436 9.61196h3.078v-7.308l5.4 7.308h3.06v-12.36596h-3.06v7.30796l-5.4-7.30796h-3.078zm15.3317 0h4.518c4.248 0 7.254-2.574 7.254-6.192 0-3.61796-3.006-6.17396-7.254-6.17396h-4.518zm3.078-2.79v-6.78596h1.908c2.124 0 3.618 1.404 3.618 3.38396 0 1.98-1.494 3.402-3.618 3.402zm23.0553 3.006c3.384 0 5.742-2.322 5.742-5.634v-6.94796h-3.06v6.80396c0 1.746-1.116 2.988-2.682 2.988-1.548 0-2.664-1.242-2.664-2.988v-6.80396h-3.078v6.94796c0 3.312 2.376 5.634 5.742 5.634zm14.104 0c3.06 0 4.95-1.548 4.95-4.032 0-2.322-1.782-3.114-4.554-3.70796-1.836-.396-2.43-.648-2.43-1.404 0-.612.558-1.08 1.548-1.08 1.152 0 2.394.45 3.528 1.314l1.566-2.196c-1.314-1.08-2.934-1.692-5.022-1.692-2.808 0-4.716 1.584-4.716 3.96 0 2.48396 1.962 3.20396 4.608 3.79796 1.8.432 2.376.594 2.376 1.332 0 .666-.594 1.134-1.746 1.134-1.512 0-2.862-.576-4.068-1.566l-1.746 2.07c1.512 1.35 3.51 2.07 5.706 2.07zm17.7667-9.82796v-2.754h-9.738v12.36596h9.738v-2.754h-6.66v-2.178h6.048v-2.75396h-6.048v-1.926zm13.8554 9.61196-2.934-4.158c1.746-.612 2.862-2.07 2.862-3.95996 0-2.502-1.962-4.248-4.6978-4.248h-5.742v12.36596h3.078v-3.87h1.224l2.718 3.87zm-7.4338-9.55796h2.394c1.062 0 1.7998.576 1.7998 1.44 0 .86396-.7378 1.43996-1.7998 1.43996h-2.394zm-86.8449 39.77396c1.926 0 3.672-.828 4.896-2.142l-2.232-1.98c-.648.81-1.602 1.332-2.664 1.332-1.89 0-3.492-1.656-3.492-3.618 0-1.944 1.602-3.6 3.492-3.6 1.044 0 2.016.522 2.646 1.332l2.25-1.998c-1.224-1.296-2.97-2.124-4.896-2.124-3.618 0-6.66 2.916-6.66 6.39s3.042 6.408 6.66 6.408zm13.7848 0c3.6 0 6.642-2.934 6.642-6.408s-3.042-6.39-6.642-6.39c-3.618 0-6.66 2.916-6.66 6.39s3.042 6.408 6.66 6.408zm0-2.79c-1.89 0-3.492-1.656-3.492-3.618 0-1.944 1.602-3.6 3.492-3.6s3.474 1.656 3.474 3.6c0 1.962-1.584 3.618-3.474 3.618zm9.7771 2.574h3.078v-7.164l3.564 6.444 3.564-6.444v7.164h3.078v-12.366h-3.078l-3.564 6.444-3.564-6.444h-3.078zm17.0718 0h3.078v-3.87h2.664c2.736 0 4.698-1.746 4.698-4.248s-1.962-4.248-4.698-4.248h-5.742zm3.078-6.678v-2.88h2.394c1.062 0 1.8.576 1.8 1.44s-.738 1.44-1.8 1.44zm19.21 6.678h3.456l-4.896-12.366h-3.456l-4.896 12.366h3.456l.756-1.89h4.824zm-4.662-4.212 1.494-3.798 1.494 3.798zm10.9104 4.212h3.078v-7.308l5.4 7.308h3.06v-12.366h-3.06v7.308l-5.4-7.308h-3.078zm15.3316 0h3.078v-12.366h-3.078zm16.597-9.612v-2.754h-9.738v12.366h9.738v-2.754h-6.66v-2.178h6.048v-2.754h-6.048v-1.926zm8.186 9.828c3.06 0 4.95-1.548 4.95-4.032 0-2.322-1.782-3.114-4.554-3.708-1.836-.396-2.43-.648-2.43-1.404 0-.612.558-1.08 1.548-1.08 1.152 0 2.394.45 3.528 1.314l1.566-2.196c-1.314-1.08-2.934-1.692-5.022-1.692-2.808 0-4.716 1.584-4.716 3.96 0 2.484 1.962 3.204 4.608 3.798 1.8.432 2.376.594 2.376 1.332 0 .666-.594 1.134-1.746 1.134-1.512 0-2.862-.576-4.068-1.566l-1.746 2.07c1.512 1.35 3.51 2.07 5.706 2.07z" fill="#000" fill-opacity=".2"/><path d="m155.029 137.336v-135.00006" stroke="#000" stroke-dasharray="2 2"/><path d="m379.029 137.336v-135.00006" stroke="#000" stroke-dasharray="2 2"/><ellipse cx="155.608" cy="137.265" fill="#64f9bf" rx="7.07907" ry="7.07143" transform="matrix(-1 0 0 -1 311.216 274.53)"/><ellipse cx="379.608" cy="137.265" fill="#64f9bf" rx="7.07907" ry="7.07143" transform="matrix(-1 0 0 -1 759.216 274.53)"/><path d="m398.529 196.335v32h-355.9997" stroke="#000" stroke-dasharray="2 2"/><path d="m448.529 196.335v65h-102" stroke="#000" stroke-dasharray="2 2"/><g fill="#64f9bf"><ellipse rx="7.07907" ry="7.07143" transform="matrix(-1 0 0 1 398.608 197.407)"/><ellipse rx="7.07907" ry="7.07143" transform="matrix(-1 0 0 1 448.608 197.407)"/></g></svg>