<svg width="67" height="74" fill="none" xmlns="http://www.w3.org/2000/svg"><g clip-path="url(#clip0_1610_19902)"><path d="M56.324 7.477h-6.605V4.163a3.33 3.33 0 0 0-.963-2.347 3.294 3.294 0 0 0-2.333-.973c-.876 0-1.716.35-2.335.972a3.33 3.33 0 0 0-.967 2.348v3.314H23.32V4.163a3.33 3.33 0 0 0-.967-2.348 3.293 3.293 0 0 0-3.598-.72 3.294 3.294 0 0 0-1.784 1.798 3.33 3.33 0 0 0-.249 1.27v3.314h-6.605a9.887 9.887 0 0 0-6.996 2.92A9.996 9.996 0 0 0 .217 17.43v46.458a9.996 9.996 0 0 0 2.904 7.034 9.888 9.888 0 0 0 6.996 2.92h46.206a9.888 9.888 0 0 0 6.997-2.92 9.996 9.996 0 0 0 2.904-7.034V17.43a9.996 9.996 0 0 0-2.904-7.035 9.888 9.888 0 0 0-6.996-2.92zm3.295 56.412a3.33 3.33 0 0 1-.965 2.345 3.294 3.294 0 0 1-2.33.975H10.117a3.294 3.294 0 0 1-2.33-.975 3.33 3.33 0 0 1-.965-2.345V17.43a3.33 3.33 0 0 1 .967-2.341 3.294 3.294 0 0 1 2.328-.973h46.206c.874.002 1.711.352 2.329.973a3.33 3.33 0 0 1 .967 2.34V63.89z" fill="#4924CC"/><path d="M33.22 47.3a13.188 13.188 0 0 0 9.33-3.894 13.333 13.333 0 0 0 3.873-9.38 13.326 13.326 0 0 0-3.869-9.387 13.18 13.18 0 0 0-9.334-3.895 13.181 13.181 0 0 0-9.331 3.892 13.326 13.326 0 0 0-3.872 9.383 13.333 13.333 0 0 0 3.871 9.385A13.188 13.188 0 0 0 33.22 47.3zm0-19.915a6.587 6.587 0 0 1 4.666 1.948 6.659 6.659 0 0 1-.002 9.382 6.587 6.587 0 0 1-4.664 1.945 6.587 6.587 0 0 1-4.663-1.945 6.66 6.66 0 0 1-.003-9.382 6.587 6.587 0 0 1 4.666-1.948zm18.421 28.83c-5.169-3.718-11.38-5.6-18.42-5.6a33.668 33.668 0 0 0-18.308 5.529 3.321 3.321 0 0 0-1.438 2.088 3.336 3.336 0 0 0 1.645 3.617 3.275 3.275 0 0 0 3.363-.127 27.11 27.11 0 0 1 14.737-4.467c5.634 0 10.563 1.466 14.583 4.354a3.286 3.286 0 0 0 4.605-.772 3.334 3.334 0 0 0-.767-4.623z" fill="#64F9BF"/></g><defs><clipPath id="clip0_1610_19902"><path fill="#fff" transform="translate(.217 .843)" d="M0 0H66V73H0z"/></clipPath></defs></svg>