<svg width="67" height="67" fill="none" xmlns="http://www.w3.org/2000/svg"><path d="M42.85 60.69v-12a6 6 0 0 1 6-6h12" stroke="#DBF2FF" stroke-width="6.12" stroke-linecap="round" stroke-linejoin="round"/><path d="M18.85 9.691v6a9 9 0 0 0 9 6 6 6 0 0 1 6 6 6 6 0 1 0 12 0 6 6 0 0 1 6-6h9" stroke="#64F9BF" stroke-width="6.12" stroke-linecap="round" stroke-linejoin="round"/><path d="M6.85 30.69h6a6 6 0 0 1 6 6v3a6 6 0 0 0 6 6 6 6 0 0 1 6 6v12" stroke="#5C2CFF" stroke-width="6.12" stroke-linecap="round" stroke-linejoin="round"/><path d="M6.85 30.69h6a6 6 0 0 1 6 6v3a6 6 0 0 0 6 6 6 6 0 0 1 6 6v12" stroke="#000" stroke-opacity=".2" stroke-width="6.12" stroke-linecap="round" stroke-linejoin="round"/><path d="M33.85 63.69c16.568 0 30-13.432 30-30 0-16.57-13.432-30-30-30-16.57 0-30 13.43-30 30 0 16.568 13.43 30 30 30z" stroke="#4924CC" stroke-width="6.12" stroke-linecap="round" stroke-linejoin="round"/></svg>