<svg width="104" height="84" fill="none" xmlns="http://www.w3.org/2000/svg"><path d="M8.108 83.189a8.194 8.194 0 0 1-5.604-2.275 8.097 8.097 0 0 1-2.49-5.485 8.108 8.108 0 0 1 .873-4.022L7.175 58.95V13.437c.003-1.744.353-3.47 1.03-5.079a13.228 13.228 0 0 1 2.911-4.296 13.319 13.319 0 0 1 4.335-2.874A13.383 13.383 0 0 1 20.563.19h61.948a13.353 13.353 0 0 1 5.105 1c1.618.665 3.089 1.641 4.327 2.873a13.229 13.229 0 0 1 2.887 4.301 13.164 13.164 0 0 1 1.009 5.074V58.95l6.303 12.456a8.255 8.255 0 0 1 .857 4.022 8.1 8.1 0 0 1-4.193 6.732 8.236 8.236 0 0 1-3.975 1.028H8.108zm3.926-20.544L6.257 74.098c-.17.328-.252.693-.24 1.062.027.365.14.718.33 1.031.194.31.463.568.783.748.326.18.694.272 1.068.27H94.8c.378-.002.75-.094 1.083-.27.32-.18.588-.437.782-.748a2.07 2.07 0 0 0 .09-2.093L90.98 62.645H12.034zm1.158-5.981h76.63V13.437a7.17 7.17 0 0 0-2.136-5.144A7.29 7.29 0 0 0 82.51 6.17H20.518a7.304 7.304 0 0 0-5.19 2.123 7.17 7.17 0 0 0-2.136 5.144v43.227z" fill="#4924CC"/><path d="M51.906 37.347a13.652 13.652 0 0 0 9.669-4.044 13.863 13.863 0 0 0 4.014-9.743 13.855 13.855 0 0 0-4.01-9.749 13.645 13.645 0 0 0-9.673-4.045 13.645 13.645 0 0 0-9.67 4.043 13.855 13.855 0 0 0-4.013 9.744 13.862 13.862 0 0 0 4.012 9.747 13.652 13.652 0 0 0 9.671 4.047zm0-20.684a6.819 6.819 0 0 1 4.835 2.023 6.924 6.924 0 0 1-.002 9.744 6.819 6.819 0 0 1-4.833 2.02 6.819 6.819 0 0 1-4.833-2.02 6.924 6.924 0 0 1-.002-9.744 6.819 6.819 0 0 1 4.835-2.023zm19.09 29.942c-5.356-3.86-11.792-5.816-19.09-5.816a34.837 34.837 0 0 0-18.973 5.742 3.448 3.448 0 0 0-1.49 2.17 3.47 3.47 0 0 0 .468 2.595c.31.486.735.885 1.237 1.161a3.388 3.388 0 0 0 3.485-.132 28.052 28.052 0 0 1 15.273-4.64c5.838 0 10.946 1.523 15.113 4.523a3.403 3.403 0 0 0 2.551.598 3.4 3.4 0 0 0 2.222-1.4 3.47 3.47 0 0 0-.796-4.801z" fill="#64F9BF"/></svg>