<svg width="222" height="55" fill="none" xmlns="http://www.w3.org/2000/svg"><path d="M69.388 17.055h4.968V33.86h8.358v3.782H69.388V17.055zm14.13 10.004c0-7.412 3.838-10.37 9.222-10.37 5.294 0 9.131 2.958 9.131 10.37 0 8.236-3.956 10.95-9.131 10.95-5.384 0-9.221-2.959-9.221-10.95zm13.267 0c0-5.124-1.963-6.771-4.105-6.771-2.142 0-4.075 1.647-4.075 6.771 0 5.704 1.933 7.35 4.075 7.35 2.142 0 4.105-1.646 4.105-7.35zm7.793-10.004h5.325l5.265 10.218c.446.885 1.041 2.44 1.517 3.66h.119c-.06-1.159-.208-2.806-.208-3.996v-9.882h4.075v20.588h-5.206l-5.473-10.187a28.627 28.627 0 0 1-1.457-3.355h-.119c.089 1.159.238 2.532.238 3.66v9.882h-4.076V17.055zm27.813 10.187h8.269v10.4h-3.361v-3.476c-.714 2.287-2.321 3.843-5.771 3.843-4.64 0-8.12-3.294-8.12-10.767 0-7.473 3.51-10.553 8.983-10.553 6.157 0 8.566 3.569 7.882 7.198l-4.67.518c.357-2.836-1.011-4.117-2.974-4.117-2.172 0-4.075 1.616-4.075 7.046 0 5.429 1.636 6.954 4.045 6.954 2.231 0 3.48-1.403 3.54-2.806v-.58h-3.748v-3.66zm11.244-10.187h4.967v7.777h6.098v-7.777h4.968v20.588H154.7V28.92h-6.098v8.723h-4.967V17.055zm18.74 10.004c0-7.412 3.837-10.37 9.221-10.37 5.295 0 9.132 2.958 9.132 10.37 0 8.236-3.956 10.95-9.132 10.95-5.384 0-9.221-2.959-9.221-10.95zm13.266 0c0-5.124-1.963-6.771-4.104-6.771-2.142 0-4.075 1.647-4.075 6.771 0 5.704 1.933 7.35 4.075 7.35 2.141 0 4.104-1.646 4.104-7.35zm7.794-10.004h8.269c3.927 0 6.574 1.952 6.574 5.734a5.861 5.861 0 0 1-1.109 3.488 5.617 5.617 0 0 1-2.937 2.094 6.105 6.105 0 0 1 1.399 1.952c.832 1.739 1.397 3.66 3.152 3.66.275-.002.547-.053.804-.152l-.387 3.63a9.503 9.503 0 0 1-1.993.274c-2.38 0-3.748-.946-5.146-4.21-.595-1.463-1.428-4.026-2.528-4.026h-1.131v8.144h-4.967V17.055zm4.967 3.69v5.063h1.785c1.428 0 3.094-.457 3.094-2.653 0-1.8-1.13-2.41-2.499-2.41h-2.38zm13.267-3.69h5.325l5.264 10.218c.447.885 1.041 2.44 1.517 3.66h.119c-.059-1.159-.208-2.806-.208-3.996v-9.882h4.075v20.588h-5.205l-5.473-10.187a28.817 28.817 0 0 1-1.458-3.355h-.119c.089 1.159.238 2.532.238 3.66v9.882h-4.075V17.055z" fill="#384745"/><path d="M51.217 13.282a2.718 2.718 0 0 0-2.066.531 2.828 2.828 0 0 0-.729.825 2.902 2.902 0 0 0-.366 1.048l-.41 2.862-16.35 3.347-16.35-3.347-.411-2.862a2.867 2.867 0 0 0-1.094-1.871 2.73 2.73 0 0 0-2.064-.532c-.73.11-1.386.513-1.827 1.119a2.908 2.908 0 0 0-.521 2.115l.696 4.85c.084.583.34 1.124.736 1.55.395.427.91.718 1.472.833l11.52 2.359 1.57 9.904a5.778 5.778 0 0 0 1.72 3.858 5.5 5.5 0 0 0 3.84 1.58h1.426a5.5 5.5 0 0 0 3.828-1.569 5.777 5.777 0 0 0 1.73-3.836l1.77-9.944c.003-.012.003-.023.005-.035l11.316-2.317a2.764 2.764 0 0 0 1.472-.832c.395-.427.652-.968.736-1.55l.696-4.85a2.908 2.908 0 0 0-.52-2.116 2.771 2.771 0 0 0-1.825-1.12zm-19.163 21.95c-.03.168-.045.34-.045.512h-1.427c0-.153-.012-.306-.036-.458l-1.265-7.984 1.47.3c.36.075.73.075 1.09 0l1.632-.333-1.419 7.962z" fill="#fff"/><path d="M31.296 27.658c-.183 0-.366-.019-.545-.055l-1.47-.301 1.265 7.984a2.9 2.9 0 0 1 .036.458h1.427c0-.172.015-.344.045-.513l1.418-7.962-1.632.334c-.179.036-.361.055-.544.055z" fill="#5F224A"/><path d="M52.6 4.653H9.99a5.667 5.667 0 0 0-4.04 1.723 5.96 5.96 0 0 0-1.68 4.143v33.66a5.96 5.96 0 0 0 1.68 4.143 5.667 5.667 0 0 0 4.04 1.723H52.6a5.667 5.667 0 0 0 4.041-1.723 5.96 5.96 0 0 0 1.68-4.144V10.52a5.96 5.96 0 0 0-1.68-4.143 5.667 5.667 0 0 0-4.04-1.723zm.962 11.864l-.696 4.85a2.884 2.884 0 0 1-.736 1.55c-.395.427-.91.718-1.472.833l-11.316 2.317c-.002.011-.002.023-.005.035l-1.771 9.943a5.777 5.777 0 0 1-1.73 3.837 5.499 5.499 0 0 1-3.828 1.568h-1.426a5.5 5.5 0 0 1-3.84-1.58 5.778 5.778 0 0 1-1.719-3.858l-1.57-9.903-11.52-2.359a2.764 2.764 0 0 1-1.472-.832 2.884 2.884 0 0 1-.736-1.55l-.696-4.851a2.908 2.908 0 0 1 .521-2.115 2.771 2.771 0 0 1 1.827-1.12 2.73 2.73 0 0 1 2.064.532c.592.451.985 1.124 1.094 1.872l.41 2.862 16.35 3.347 16.35-3.347.411-2.862a2.867 2.867 0 0 1 1.094-1.872 2.73 2.73 0 0 1 2.064-.531c.73.11 1.386.512 1.827 1.119.44.606.628 1.367.521 2.115z" fill="#5F224A"/></svg>