<svg width="140" height="40" fill="none" xmlns="http://www.w3.org/2000/svg"><g clip-path="url(#clip0_1610_20106)"><path d="M136.734 36.298c-4.401.33-9.136.645-13.542.645-9.206 0-19.359-1.15-23.773-4.319-4.411-3.166-6.297-7.608-6.297-12.515 0-4.933 1.62-9.45 6.018-12.603 4.399-3.152 14.074-4.258 23.498-4.258 6.405 0 9.228.092 14.096.409v5.186c-5.137-.948-8.357-1.247-12.03-1.247-5.886 0-10.845.686-14.527 3.513-2.848 2.188-3.517 5.382-3.517 8.894 0 4.983 1.556 7.415 4.756 9.462 3.553 2.271 8.356 2.999 13.81 2.773 4.958-.205 6.716-.359 11.508-1.036v5.096zm-87.07-4.629c5.177.528 10.34 1.035 15.53 1.199 3.335.104 7.587-.282 9.654-1.26 2.07-.98 3.105-2.473 3.105-4.124 0-1.203-.252-2.587-1.336-3.566-1.084-.979-2.44-1.626-4.752-2.165-2.098-.49-5.636-.64-10.119-.64h-7.524v-3.905l6.998-.024c4.282 0 7.26-.144 9.167-.422 2.1-.305 3.603-.93 4.663-1.846 1.059-.915 1.372-2.313 1.372-3.37 0-1.273-.45-2.376-1.988-3.178-1.537-.798-5.899-1.134-9.149-1.134-4.12 0-10.29.352-15.007 1.11V3.779c5.834-.396 13.044-.53 16.46-.53 5.915-.001 14.71.563 17.923 1.935 3.207 1.37 4.336 3.393 4.336 5.707 0 1.87-1.033 3.823-3.093 5.145-2.064 1.32-3.253 1.812-7.353 2.782 3.684.626 4.862 1.022 6.844 1.748 1.975.72 3.05 1.506 3.92 2.75.865 1.239 1.041 2.858 1.037 4.17-.003 1.19-.83 5.03-4.542 6.906-4.237 2.14-12.672 2.547-20.212 2.547-1.978 0-10.513-.32-15.935-.703V31.67zM2.998 36.944V3.248h11.476v13.948H34.26l-.002-13.948h11.478v33.696H34.26V21.25H14.474v15.693H2.998z" fill="#ED1C24"/></g><defs><clipPath id="clip0_1610_20106"><path fill="#fff" transform="translate(.327 .555)" d="M0 0H139V39H0z"/></clipPath></defs></svg>