<svg enable-background="new 0 0 400 245" viewBox="0 0 400 245" xmlns="http://www.w3.org/2000/svg"><path d="m397 91.5c-1.3 1.3-2.9 1.9-4.8 1.9s-3.5-.7-4.8-2-2-2.9-2-4.8c0-2 .7-3.6 2.1-5 1.3-1.2 2.9-1.8 4.7-1.8 1.9 0 3.5.7 4.8 2s2 2.9 2 4.8-.7 3.6-2 4.9zm-8.8-8.9c-1.1 1.1-1.6 2.4-1.6 3.9 0 1.6.6 2.9 1.7 4s2.4 1.7 4 1.7c1.5 0 2.9-.6 4-1.7s1.6-2.5 1.6-4-.5-2.8-1.6-3.9-2.4-1.7-4-1.7c-1.7 0-3 .6-4.1 1.7zm1 7.8v-7.6h2.1 1.6c.6 0 1.1.2 1.5.4.7.4 1 1 1 1.8 0 .6-.2 1.1-.5 1.4-.4.3-.8.5-1.3.5.5.1.8.2 1.1.4.4.4.7.9.7 1.7v.7.2c0 .1 0 .1.1.2l.1.2h-1.9c-.1-.2-.1-.6-.1-1 0-.5-.1-.8-.1-.9-.1-.3-.3-.4-.6-.6-.1-.1-.4-.1-.7-.1h-.4-.4v2.7zm3.6-6.1c-.3-.1-.7-.2-1.1-.2h-.5v2.2h.8c.5 0 .8-.1 1.1-.3s.4-.5.4-.9c-.1-.3-.3-.6-.7-.8z" fill="#006ca3"/><g fill="#77787b"><path d="m7.6 173.5c0-4.8 3.6-8.7 8.6-8.7 3.1 0 5 1.1 6.6 2.6l-1.9 2.2c-1.3-1.2-2.8-2.1-4.7-2.1-3.2 0-5.5 2.6-5.5 5.9 0 3.3 2.3 5.9 5.5 5.9 2.1 0 3.4-.8 4.8-2.2l1.9 1.9c-1.7 1.8-3.7 3-6.8 3-4.8.1-8.5-3.7-8.5-8.5z"/><path d="m33.4 173.5c0-4.8 3.6-8.7 8.8-8.7 5.1 0 8.7 3.9 8.7 8.6 0 4.7-3.6 8.7-8.8 8.7-5.1 0-8.7-3.9-8.7-8.6zm14.5 0c0-3.3-2.4-6-5.7-6s-5.7 2.7-5.7 5.9c0 3.3 2.4 5.9 5.7 5.9s5.7-2.6 5.7-5.8z"/><path d="m63.2 165h3.1l5.1 7.9 5.1-7.9h3.1v16.8h-2.9v-12l-5.3 7.9h-.1l-5.2-7.9v12h-2.9z"/><path d="m92.6 165h3.1l5.1 7.9 5.1-7.9h3.1v16.8h-2.9v-12l-5.3 7.9h-.1l-5.2-7.9v12h-2.9z"/><path d="m121.7 174.7v-9.7h2.9v9.5c0 3.1 1.6 4.8 4.2 4.8s4.2-1.6 4.2-4.6v-9.7h2.9v9.5c0 5-2.8 7.5-7.2 7.5-4.2.1-7-2.4-7-7.3z"/><path d="m148.7 165h2.7l9 11.6v-11.6h2.9v16.8h-2.5l-9.2-11.9v11.9h-2.9z"/><path d="m176.4 165h2.9v16.8h-2.9z"/><path d="m191.7 173.5c0-4.8 3.6-8.7 8.6-8.7 3.1 0 5 1.1 6.6 2.6l-1.9 2.2c-1.3-1.2-2.8-2.1-4.7-2.1-3.2 0-5.5 2.6-5.5 5.9 0 3.3 2.3 5.9 5.5 5.9 2.1 0 3.4-.8 4.8-2.2l1.9 1.9c-1.7 1.8-3.7 3-6.8 3-4.8.1-8.5-3.7-8.5-8.5z"/><path d="m224.7 164.9h2.7l7.4 16.9h-3.1l-1.7-4h-7.9l-1.7 4h-3zm4.2 10.3-2.9-6.7-2.9 6.7z"/><path d="m248.3 167.8h-5.3v-2.8h13.6v2.7h-5.3v14h-3z"/><path d="m268.5 165h2.9v16.8h-2.9z"/><path d="m283.8 173.5c0-4.8 3.6-8.7 8.8-8.7s8.7 3.9 8.7 8.6c0 4.7-3.6 8.7-8.8 8.7-5.1 0-8.7-3.9-8.7-8.6zm14.4 0c0-3.3-2.4-6-5.7-6s-5.7 2.7-5.7 5.9c0 3.3 2.4 5.9 5.7 5.9 3.4.1 5.7-2.6 5.7-5.8z"/><path d="m313.5 165h2.7l9 11.6v-11.6h2.9v16.8h-2.5l-9.2-11.9v11.9h-2.9z"/><path d="m339.9 179.4 1.8-2.1c1.6 1.4 3.2 2.2 5.3 2.2 1.8 0 3-.9 3-2.1 0-1.2-.7-1.8-3.8-2.6-3.6-.9-5.6-1.9-5.6-5 0-2.9 2.4-4.9 5.7-4.9 2.4 0 4.4.7 6.1 2.1l-1.6 2.2c-1.5-1.1-3-1.7-4.6-1.7-1.7 0-2.7.9-2.7 2 0 1.3.8 1.9 4 2.6 3.5.9 5.4 2.1 5.4 4.9 0 3.1-2.5 5-6 5-2.6.1-5-.8-7-2.6z"/></g><path d="m59.4 135c-5.9 4.9-11.7 7.1-18.8 7.1-15.9 0-28.3-14.7-28.3-33.5 0-19 12.2-33.2 28.3-33.2 6.8 0 12.4 2 18.1 6.5l1.9 1.5 8.2-8.2-2.3-1.9c-4.6-3.9-12.4-9.1-25.8-9.1-22.6 0-39.7 19.2-39.7 44.6 0 25.3 16.9 44.4 39.4 44.4 13.7 0 21.7-5.8 26.5-10.2l2.1-1.9-7.7-7.7z" fill="#006ca3"/><path d="m102.6 86c-7.4 0-13.7 2.5-18.6 7.2v-30.3h-11v88.9h11.1v-36.8c0-10.6 7.5-18.3 17.8-18.3 10 0 16 6.5 16 17.4v37.7h11.1v-38.8c-.1-16.1-10.6-27-26.4-27" fill="#006ca3"/><path d="m162.6 86.5c-9.3 0-16.4 2.7-22.1 5.3l-2.4 1.1 4.2 10.1 2.6-1.3c5.9-3 11.4-4.4 17.3-4.4 7.4 0 16.2 2.6 16.7 14.4-4.4-1-9.7-1.8-16.8-1.8-17.3 0-28.5 8.6-28.5 21.9v.2c0 13.8 13.1 21.2 25.5 21.2 9.2 0 15.6-3.4 19.8-7v5.7h11v-39.5c0-16.3-10.2-25.9-27.3-25.9m-17.5 44.9c0-6.9 6.2-11 16.7-11 7.1 0 12.8 1 17.3 2.1v4.6c0 8.8-8.4 15.4-19.6 15.4-7.2 0-14.4-3.7-14.4-10.8z" fill="#006ca3"/><path d="m207.4 97.4v-10h-11.1v64.4h11.1v-26.9c0-18.5 11.5-26.8 22.8-26.8h3.3v-11.6h-2.6c-8.9 0-17.5 3.8-23.5 10.9" fill="#006ca3"/><path d="m264.8 142.1c-6.3 0-9.1-2.7-9.1-8.7v-35.2h20.7v-11.7h-20.7v-17.9h-11.1v17.9h-7.5v11.7h7.5v35.8c0 11.7 7.4 18.9 19.2 18.9 3.9 0 7.2-.7 10.7-2.3l1.6-.7v-11.2l-3.8 1.7c-2.9 1.2-5 1.7-7.5 1.7" fill="#006ca3"/><path d="m306.4 86c-17.2 0-30.7 14.7-30.7 33.5v.2c0 19.1 13.6 33.5 31.6 33.5 13.5 0 21.2-6.4 26.4-12l1.9-2-8-7-1.8 1.9c-5.3 5.7-11.1 8.4-18.3 8.4-8.5 0-17.9-5.6-20.1-17.8h48.4l.1-2.4.1-2.4v-.2c.2-19.9-12.1-33.7-29.6-33.7m-.2 10.6c11.4 0 16.7 8.6 18.1 17.5h-36.7c1.9-10.2 9.3-17.5 18.6-17.5" fill="#006ca3"/><path d="m376.6 86.5c-9-.4-17.5 3.8-23.5 11v-10h-11.1v64.4h11.1v-26.9c0-18.5 11.5-26.8 22.8-26.8h3.3v-11.6z" fill="#006ca3"/></svg>