<svg width="157" height="82" fill="none" xmlns="http://www.w3.org/2000/svg"><path d="M4.08 23.255a2.183 2.183 0 0 1-.995-1.828 2.174 2.174 0 0 1 .996-1.828L28.597 3.72a2.195 2.195 0 0 1 2.386 0l24.516 15.88a2.184 2.184 0 0 1 .996 1.828 2.175 2.175 0 0 1-.995 1.828L30.982 39.136a2.195 2.195 0 0 1-2.386 0L4.081 23.256z" fill="#326CE5"/><path d="M33.66 26.058h1.7a1.294 1.294 0 0 0 1.118-.643 1.281 1.281 0 0 0 0-1.285l-5.572-9.616a1.288 1.288 0 0 0-1.117-.642 1.294 1.294 0 0 0-1.117.642L23.1 24.13a1.282 1.282 0 0 0 .472 1.756c.196.113.419.172.645.172h1.701c.342 0 .67.135.912.377.242.24.378.568.378.909v10.975l1.142.74a2.648 2.648 0 0 0 2.878 0l1.142-.74V27.343a1.28 1.28 0 0 1 .796-1.187c.157-.065.325-.098.494-.098z" fill="#C1D2F7"/><path d="M38.284 47.278l-5.913-3.83v1.815a46.508 46.508 0 0 0 5.913 2.015zm-5.913 1.249v2.548c1.954.594 3.93 1.082 5.888 1.563 6.39 1.57 12.426 3.052 17.28 7.888.246.245.478.496.707.747a2.175 2.175 0 0 0-.747-2.843l-9.603-6.221c-2.331-.767-4.707-1.353-7.054-1.93-2.213-.543-4.378-1.085-6.471-1.752zm-5.162-2.09a23.885 23.885 0 0 1-2.432-1.413l-2.196 1.422a26.747 26.747 0 0 0 4.628 2.703v-2.712zm7.35 8.111a422 422 0 0 1-2.188-.543v2.504c.535.134 1.07.266 1.604.397 6.39 1.57 12.426 3.052 17.28 7.889l.024.025 2.076-1.345c-.126-.132-.245-.267-.376-.398-5.335-5.315-11.987-6.949-18.42-8.529zm-7.35-2.035c-2.777-.947-5.409-2.167-7.81-4.006L17.25 49.9c3.058 2.513 6.461 4.037 9.96 5.168v-2.555zm0 5.534c-4.78-1.248-9.275-2.771-13.116-6.103l-2.113 1.37c4.51 4.14 9.877 5.87 15.23 7.242v-2.509zm5.162 3.797c5 1.286 9.702 2.825 13.685 6.359l2.102-1.362c-4.654-4.358-10.239-6.098-15.787-7.503v2.506zM8.857 55.336l-2.086 1.351c.073.075.14.153.215.227 5.334 5.315 11.987 6.95 18.42 8.53 5.572 1.367 10.873 2.671 15.357 6.187l2.138-1.385c-5.052-4.237-11.07-5.726-16.911-7.16-6.327-1.554-12.304-3.028-17.133-7.75zm-4.432 4.13a21.543 21.543 0 0 1-.697-.737 2.173 2.173 0 0 0-.317 2.67c.17.276.398.51.67.687l7.22 4.677c3.194 1.317 6.536 2.142 9.821 2.948 5.13 1.26 10.03 2.468 14.275 5.396l2.184-1.414c-4.828-3.616-10.428-5.002-15.875-6.34-6.39-1.569-12.427-3.051-17.28-7.888zm23.492 18.06c.48.232.955.477 1.423.74a2.19 2.19 0 0 0 1.643-.3l1.212-.784c-3.892-2.594-8.22-3.908-12.532-5.003l8.254 5.347z" fill="#326CE5"/><path d="M77.317 20.806c-2.452 0-4.426.795-5.925 2.385-1.498 1.59-2.247 3.838-2.247 6.746v2.151h-4.67v3.896h4.67v24.193h4.378V35.984h5.72v-3.896h-5.72v-2.151c0-1.783.38-3.15 1.138-4.1.759-.95 1.858-1.425 3.298-1.425.484-.01.967.06 1.43.203.378.123.74.289 1.08.495l1.109-3.315a5.73 5.73 0 0 0-1.927-.756 11.419 11.419 0 0 0-2.334-.233zm8.963.582h4.378v38.789H86.28v-38.79zm31.297 31.345a10.707 10.707 0 0 1-3.502 2.966 9.73 9.73 0 0 1-4.844 1.28c-.865.008-1.728-.09-2.569-.291a4.652 4.652 0 0 1-2.013-1.047 4.714 4.714 0 0 1-1.284-1.977 9.26 9.26 0 0 1-.438-3.083V32.088h-4.378v19.83c0 3.064.759 5.322 2.277 6.776 1.517 1.453 3.755 2.18 6.712 2.18a12.12 12.12 0 0 0 5.778-1.395 14.868 14.868 0 0 0 4.261-3.257v3.955h4.378V32.088h-4.378v20.645zm25.623-6.979l10.215-13.666h-5.078l-7.822 10.7-7.821-10.7h-5.078l10.215 13.666-10.799 14.423h5.02l8.463-11.515 8.464 11.515h5.078L143.2 45.754z" fill="#1A1A1A"/></svg>