<svg xmlns="http://www.w3.org/2000/svg" viewBox="-11.02 -11.52 407.04 573.04"><defs><clipPath id="clip-path"><path d="M-84.662-.208h622.735v550.8H-84.662z" class="cls-1"/></clipPath><clipPath id="clip-path-2"><path d="M-87.662-.208h622.735v550.8H-87.662z" class="cls-1"/></clipPath><clipPath id="clip-path-3"><path d="M-8.749-7.208h403.015v558.8H-8.749z" class="cls-1"/></clipPath><clipPath id="clip-path-4"><path d="M31.387 381.025h320.88v76.847H31.387z" class="cls-1"/></clipPath><clipPath id="clip-path-6"><path d="M30.227 188.032h322.04v43.2H30.227z" class="cls-1"/></clipPath><clipPath id="clip-path-8"><path d="M48.326 486.868a3.68 3.68 0 0 0 .172 1.208 1.564 1.564 0 0 0 .498.744 1.246 1.246 0 0 0 .787.252 1.261 1.261 0 0 0 .762-.223 1.353 1.353 0 0 0 .462-.604 2.27 2.27 0 0 0 .153-.857h2.908v.447a3.49 3.49 0 0 1-.553 1.966 3.659 3.659 0 0 1-1.527 1.3 5.16 5.16 0 0 1-2.234.462 4.955 4.955 0 0 1-2.501-.586 3.816 3.816 0 0 1-1.55-1.645 5.512 5.512 0 0 1-.527-2.486v-.901a5.507 5.507 0 0 1 .528-2.49 3.8 3.8 0 0 1 1.549-1.637 4.981 4.981 0 0 1 2.501-.583 5.534 5.534 0 0 1 1.736.26 4.005 4.005 0 0 1 1.366.751 3.423 3.423 0 0 1 .893 1.18 3.637 3.637 0 0 1 .32 1.545v.432H51.16a2.271 2.271 0 0 0-.153-.857 1.33 1.33 0 0 0-.462-.6 1.277 1.277 0 0 0-.762-.22 1.246 1.246 0 0 0-.787.252 1.565 1.565 0 0 0-.498.744 3.708 3.708 0 0 0-.172 1.216zm6.656 4.526l3.032-9.997h3.897l3.003 9.997h-3.282l-.432-1.89h-2.732l-.446 1.89zm4.797-7.456l-.805 3.406h1.736l-.777-3.406zm6.485 7.456v-9.997h3.216l2.138 4.46h.103l2.146-4.46h3.186v9.997h-2.761v-5.574h-.14l-1.699 3.677h-1.611l-1.714-3.677h-.146v5.574zm20.117 0h-7.127v-9.997h7.127v2.365h-4.087v1.575h3.816v2.139h-3.816v1.552h4.087zm5.368 0v-9.997h7.105v2.402h-4.028v1.831h3.64v2.314h-3.64v3.45zm15.565-9.569a2.995 2.995 0 0 1 1.326 1.205 3.564 3.564 0 0 1 .447 1.809 2.92 2.92 0 0 1-.319 1.414 3.245 3.245 0 0 1-.732.937 3.304 3.304 0 0 1-.7.483l1.963 3.721h-3.376l-1.604-3.332h-.77v3.332h-3.01v-9.997h4.586a4.98 4.98 0 0 1 2.19.428zm-2.658 4.186a1.409 1.409 0 0 0 .882-.29 1.059 1.059 0 0 0 .377-.897 1.096 1.096 0 0 0-.388-.919 1.379 1.379 0 0 0-.871-.304h-1.106v2.41zm14.662 3.343a3.827 3.827 0 0 1-1.593 1.63 6.041 6.041 0 0 1-5.16 0 3.843 3.843 0 0 1-1.6-1.63 5.244 5.244 0 0 1-.546-2.45v-.981a5.318 5.318 0 0 1 .546-2.476 3.839 3.839 0 0 1 1.6-1.633 5.296 5.296 0 0 1 2.578-.579 5.237 5.237 0 0 1 2.582.586 3.873 3.873 0 0 1 1.593 1.637 5.309 5.309 0 0 1 .542 2.465v.981a5.274 5.274 0 0 1-.542 2.45zm-2.798-4.683a1.607 1.607 0 0 0-.538-.744 1.389 1.389 0 0 0-.839-.253 1.405 1.405 0 0 0-.842.253 1.595 1.595 0 0 0-.542.744 3.355 3.355 0 0 0-.19 1.208v1.04a3.385 3.385 0 0 0 .19 1.212 1.57 1.57 0 0 0 .542.744 1.419 1.419 0 0 0 .842.249 1.403 1.403 0 0 0 .839-.25 1.581 1.581 0 0 0 .538-.743 3.387 3.387 0 0 0 .19-1.212v-1.04a3.357 3.357 0 0 0-.19-1.208zm5.124 6.723v-9.997h3.216l2.138 4.46h.103l2.146-4.46h3.186v9.997h-2.761v-5.574h-.14l-1.699 3.677h-1.611l-1.714-3.677h-.146v5.574zm18.131 0v-7.536h-2.542v-2.461h8.16v2.46h-2.542v7.537zm12.994 0v-3.786h-2.893v3.786h-3.077v-9.997h3.077v3.772h2.893v-3.772h3.076v9.997zm12.407 0h-7.126v-9.997h7.126v2.365h-4.087v1.575h3.816v2.139h-3.816v1.552h4.087zm12.495 0h-7.126v-9.997h7.126v2.365h-4.087v1.575h3.816v2.139h-3.816v1.552h4.087zm1.979 0v-9.997h2.307l3.405 4.834h.118v-4.834h2.82v9.997h-2.286l-3.427-4.922h-.118v4.922zm15.188-9.997a5.018 5.018 0 0 1 2.637.615 3.633 3.633 0 0 1 1.483 1.725 6.59 6.59 0 0 1 .472 2.596 6.76 6.76 0 0 1-.483 2.651 3.768 3.768 0 0 1-1.498 1.777 4.86 4.86 0 0 1-2.611.633h-4.343v-9.997zm-1.267 7.631h.703a2.414 2.414 0 0 0 .934-.16 1.422 1.422 0 0 0 .619-.488 2.212 2.212 0 0 0 .344-.816 5.272 5.272 0 0 0 .11-1.143 4.68 4.68 0 0 0-.198-1.465 1.684 1.684 0 0 0-.637-.893 2.044 2.044 0 0 0-1.172-.3h-.703zm16.256-.347a1.555 1.555 0 0 0 .384-1.176v-6.108h3.076v6.54a3.417 3.417 0 0 1-.534 1.915 3.474 3.474 0 0 1-1.527 1.264 6.467 6.467 0 0 1-4.724 0 3.473 3.473 0 0 1-1.528-1.264 3.417 3.417 0 0 1-.534-1.915v-6.54h3.076v6.108a1.55 1.55 0 0 0 .385 1.183 1.364 1.364 0 0 0 .963.355 1.35 1.35 0 0 0 .963-.362zm8.014-.348a.78.78 0 0 0 .102.348 1.043 1.043 0 0 0 .279.314 1.41 1.41 0 0 0 .454.228 2.125 2.125 0 0 0 .63.084 2.05 2.05 0 0 0 .743-.11.83.83 0 0 0 .395-.29.676.676 0 0 0 .121-.384.58.58 0 0 0-.362-.56 4.186 4.186 0 0 0-1.037-.29l-1.208-.212a4.924 4.924 0 0 1-1.465-.49 2.565 2.565 0 0 1-1.01-.953 3.306 3.306 0 0 1 .153-3.292 3.233 3.233 0 0 1 1.454-1.11 5.744 5.744 0 0 1 2.179-.38 5.06 5.06 0 0 1 2.318.465 3.234 3.234 0 0 1 1.34 1.19 2.89 2.89 0 0 1 .436 1.509h-2.783a.844.844 0 0 0-.146-.429 1.096 1.096 0 0 0-.425-.366 1.57 1.57 0 0 0-.733-.15 1.276 1.276 0 0 0-.85.23.71.71 0 0 0-.263.553.551.551 0 0 0 .348.502 3.21 3.21 0 0 0 .956.275l1.281.198a4.683 4.683 0 0 1 1.34.41 2.645 2.645 0 0 1 1.063.923 2.89 2.89 0 0 1 .417 1.648 3.225 3.225 0 0 1-.472 1.735 3.161 3.161 0 0 1-1.432 1.198 5.877 5.877 0 0 1-2.424.436 6.42 6.42 0 0 1-2.055-.282 3.496 3.496 0 0 1-1.314-.755 2.8 2.8 0 0 1-.704-1.043 3.277 3.277 0 0 1-.212-1.15zm14.61 3.061h-7.126v-9.997h7.126v2.365h-4.087v1.575h3.816v2.139h-3.816v1.552h4.087zm8.754-9.569a2.995 2.995 0 0 1 1.325 1.205 3.564 3.564 0 0 1 .447 1.809 2.92 2.92 0 0 1-.318 1.414 3.245 3.245 0 0 1-.733.937 3.304 3.304 0 0 1-.7.483l1.964 3.721h-3.377l-1.604-3.332h-.769v3.332h-3.01v-9.997h4.585a4.98 4.98 0 0 1 2.19.428zm-2.659 4.186a1.409 1.409 0 0 0 .883-.29 1.059 1.059 0 0 0 .377-.897 1.096 1.096 0 0 0-.388-.919 1.379 1.379 0 0 0-.872-.304h-1.106v2.41zm12.303.857a3.68 3.68 0 0 0 .172 1.208 1.564 1.564 0 0 0 .498.744 1.246 1.246 0 0 0 .787.252 1.261 1.261 0 0 0 .762-.223 1.353 1.353 0 0 0 .462-.604 2.27 2.27 0 0 0 .153-.857h2.908v.447a3.49 3.49 0 0 1-.553 1.966 3.659 3.659 0 0 1-1.527 1.3 5.16 5.16 0 0 1-2.234.462 4.955 4.955 0 0 1-2.501-.586 3.816 3.816 0 0 1-1.55-1.645 5.512 5.512 0 0 1-.526-2.486v-.901a5.507 5.507 0 0 1 .527-2.49 3.8 3.8 0 0 1 1.549-1.637 4.981 4.981 0 0 1 2.501-.583 5.534 5.534 0 0 1 1.736.26 4.005 4.005 0 0 1 1.366.751 3.423 3.423 0 0 1 .894 1.18 3.637 3.637 0 0 1 .318 1.545v.432h-2.908a2.271 2.271 0 0 0-.153-.857 1.33 1.33 0 0 0-.462-.6 1.277 1.277 0 0 0-.762-.22 1.246 1.246 0 0 0-.787.252 1.565 1.565 0 0 0-.498.744 3.708 3.708 0 0 0-.172 1.216zm15.995 2.486a3.827 3.827 0 0 1-1.593 1.63 6.041 6.041 0 0 1-5.16 0 3.843 3.843 0 0 1-1.6-1.63 5.244 5.244 0 0 1-.546-2.45v-.981a5.318 5.318 0 0 1 .545-2.476 3.84 3.84 0 0 1 1.6-1.633 5.296 5.296 0 0 1 2.579-.579 5.237 5.237 0 0 1 2.582.586 3.873 3.873 0 0 1 1.593 1.637 5.309 5.309 0 0 1 .542 2.465v.981a5.274 5.274 0 0 1-.542 2.45zm-2.798-4.683a1.607 1.607 0 0 0-.539-.744 1.389 1.389 0 0 0-.838-.253 1.405 1.405 0 0 0-.842.253 1.595 1.595 0 0 0-.542.744 3.355 3.355 0 0 0-.19 1.208v1.04a3.385 3.385 0 0 0 .19 1.212 1.57 1.57 0 0 0 .542.744 1.419 1.419 0 0 0 .842.249 1.403 1.403 0 0 0 .838-.25 1.581 1.581 0 0 0 .539-.743 3.387 3.387 0 0 0 .19-1.212v-1.04a3.357 3.357 0 0 0-.19-1.208zm5.124 6.723v-9.997h3.215l2.139 4.46h.102l2.146-4.46h3.186v9.997h-2.76v-5.574h-.14l-1.7 3.677h-1.61l-1.714-3.677h-.147v5.574zm12.99 0v-9.997h3.215l2.139 4.46h.102l2.146-4.46h3.186v9.997h-2.76v-5.574h-.14l-1.7 3.677h-1.61l-1.714-3.677h-.147v5.574zm18.267-2.713a1.555 1.555 0 0 0 .385-1.176v-6.108h3.076v6.54a3.417 3.417 0 0 1-.535 1.915 3.474 3.474 0 0 1-1.527 1.264 6.467 6.467 0 0 1-4.724 0 3.473 3.473 0 0 1-1.527-1.264 3.417 3.417 0 0 1-.535-1.915v-6.54h3.076v6.108a1.55 1.55 0 0 0 .385 1.183 1.364 1.364 0 0 0 .963.355 1.35 1.35 0 0 0 .963-.362zm5.553 2.713v-9.997h2.307l3.406 4.834h.117v-4.834h2.82v9.997h-2.285l-3.428-4.922h-.117v4.922zm10.845 0v-9.997h3.076v9.997zm7.03 0v-7.536h-2.541v-2.461h8.159v2.46h-2.542v7.537zm9.753 0v-3.01l-3.355-6.987h3.333l1.56 3.933h.11l1.574-3.933h3.208l-3.354 6.892v3.105z" class="cls-1"/></clipPath><style>.cls-1{fill:none}.cls-6{fill:#a6a6a6}.cls-7{fill:#fff}.cls-8{clip-path:url(#clip-path-4)}.cls-9{fill:#46b5c3}.cls-10{fill:#46b4c3}.cls-11{fill:#46b3c4}.cls-12{fill:#45b2c4}.cls-13{fill:#45b1c4}.cls-14{fill:#45b0c4}.cls-15{fill:#45afc5}.cls-16{fill:#44aec5}.cls-17{fill:#44adc6}.cls-18{fill:#44acc6}.cls-19{fill:#44abc6}.cls-20{fill:#44aac6}.cls-21{fill:#43a9c7}.cls-22{fill:#43a8c7}.cls-23{fill:#43a7c7}.cls-24{fill:#43a6c8}.cls-25{fill:#43a5c8}.cls-26{fill:#42a4c8}.cls-27{fill:#42a3c9}.cls-28{fill:#42a2c9}.cls-29{fill:#42a1c9}.cls-30{fill:#42a0c9}.cls-31{fill:#419fca}.cls-32{fill:#419eca}.cls-33{fill:#419dca}.cls-34{fill:#419ccb}.cls-35{fill:#419bcb}.cls-36{fill:#409acb}.cls-37{fill:#4099cc}.cls-38{fill:#4098cc}.cls-39{fill:#4097cc}.cls-40{fill:#4096cc}.cls-41{fill:#3f95cd}.cls-42{fill:#3f94cd}.cls-43{fill:#3f93cd}.cls-44{fill:#3f92ce}.cls-45{fill:#3f91ce}.cls-46{fill:#3e90ce}.cls-47{fill:#3e8fcf}.cls-48{fill:#3e8ecf}.cls-49{fill:#3e8dcf}.cls-50{fill:#3d8ccf}.cls-51{fill:#3d8bd0}.cls-52{fill:#3d8ad0}.cls-53{fill:#3d89d0}.cls-54{fill:#3d88d1}.cls-55{fill:#3c87d1}.cls-56{fill:#3c86d1}.cls-57{fill:#3c85d2}.cls-58{fill:#3c84d2}.cls-59{fill:#3c83d2}.cls-60{fill:#3b82d3}.cls-61{fill:#3b81d3}.cls-62{fill:#3b80d3}.cls-63{fill:#3b7fd3}.cls-64{fill:#3b7ed4}.cls-65{fill:#3a7dd4}.cls-66{fill:#3a7cd4}.cls-67{fill:#3a7bd5}.cls-68{fill:#3a7ad5}.cls-69{fill:#3979d5}.cls-70{fill:#3978d6}.cls-71{fill:#3977d6}.cls-72{fill:#3976d6}.cls-73{fill:#3975d7}.cls-74{fill:#3874d7}.cls-75{fill:#3873d7}.cls-76{fill:#3872d8}.cls-77{fill:#3871d8}.cls-78{fill:#3870d8}.cls-79{fill:#376fd8}.cls-80{fill:#376ed9}.cls-81{fill:#376dd9}.cls-82{fill:#376cd9}.cls-83{fill:#376bda}.cls-84{fill:#366ada}.cls-85{fill:#3669da}.cls-86{fill:#3668db}.cls-87{fill:#3667db}.cls-88{fill:#3566db}.cls-89{fill:#3565dc}.cls-90{fill:#3564dc}.cls-91{fill:#3563dc}.cls-92{fill:#3562dc}.cls-93{fill:#3461dd}.cls-94{fill:#3460dd}.cls-95{fill:#345fdd}.cls-96{fill:#345ede}.cls-97{fill:#345dde}.cls-98{fill:#335cde}.cls-99{fill:#335adf}.cls-100{fill:#3359df}.cls-101{fill:#3358df}.cls-102{fill:#3357e0}.cls-103{fill:#3256e0}.cls-104{fill:#3255e0}.cls-105{fill:#3254e1}.cls-106{fill:#3253e1}.cls-107{fill:#3152e1}.cls-108{fill:#3151e1}.cls-109{fill:#3150e2}.cls-110{fill:#314fe2}.cls-111{fill:#314ee2}.cls-112{fill:#304de3}.cls-113{fill:#304ce3}.cls-114{fill:#304be3}.cls-115{fill:#304ae4}.cls-116{fill:#3049e4}.cls-117{fill:#2f48e4}.cls-118{fill:#2f47e5}.cls-119{fill:#2f46e5}.cls-120{fill:#2f45e5}.cls-121{fill:#2e44e6}.cls-122{fill:#2e43e6}.cls-123{fill:#2e42e6}.cls-124{fill:#2e41e6}.cls-125{fill:#2e40e7}.cls-126{fill:#2d3fe7}.cls-127{fill:#2d3ee7}.cls-128{fill:#2d3de8}.cls-129{fill:#2d3ce8}.cls-130{fill:#2d3be8}.cls-131{fill:#2c3ae9}.cls-132{fill:#2c39e9}.cls-133{fill:#2c38e9}.cls-134{fill:#2c37ea}.cls-135{fill:#2b36ea}.cls-136{fill:#2b34ea}.cls-137{fill:#2b33eb}.cls-138{fill:#2b32eb}.cls-139{fill:#2b31eb}.cls-140{fill:#2a30ec}.cls-141{fill:#2a2fec}.cls-142{fill:#2a2eec}.cls-143{fill:#2a2dec}.cls-144{fill:#2a2ced}.cls-152{clip-path:url(#clip-path-6)}</style></defs><g clip-path="url(#clip-path)"><g clip-path="url(#clip-path-2)"><g clip-path="url(#clip-path-3)" opacity=".6"><path d="M.252-.208h385.015v550.8H.252z" class="cls-6"/></g></g><path d="M35.373 144.072h149.76v25.92H35.373z" class="cls-7"/><path d="M187.133 172.672H31.146v-103.6h155.987zm-150.987-5h145.987v-93.6H36.146zm316.12 197.16H29.707v-119.52h322.56zm-317.56-5h312.56v-109.52H34.707z" class="cls-7"/><g class="cls-8"><g class="cls-8"><path d="M31.387 381.025h2.228v76.847h-2.228z" class="cls-9"/><path d="M33.615 381.025h2.228v76.847h-2.228z" class="cls-10"/><path d="M35.843 381.025h2.228v76.847h-2.228z" class="cls-11"/><path d="M38.072 381.025H40.3v76.847h-2.228z" class="cls-12"/><path d="M40.3 381.025h2.228v76.847H40.3z" class="cls-13"/><path d="M42.528 381.025h2.228v76.847h-2.228z" class="cls-14"/><path d="M44.757 381.025h2.228v76.847h-2.228zm2.228 0h2.228v76.847h-2.228z" class="cls-15"/><path d="M49.213 381.025h2.228v76.847h-2.228z" class="cls-16"/><path d="M51.442 381.025h2.228v76.847h-2.228z" class="cls-17"/><path d="M53.67 381.025h2.228v76.847H53.67z" class="cls-18"/><path d="M55.898 381.025h2.228v76.847h-2.228z" class="cls-19"/><path d="M58.127 381.025h2.228v76.847h-2.228z" class="cls-20"/><path d="M60.355 381.025h2.228v76.847h-2.228z" class="cls-21"/><path d="M62.583 381.025h2.228v76.847h-2.228z" class="cls-22"/><path d="M64.812 381.025h2.228v76.847h-2.228z" class="cls-23"/><path d="M67.04 381.025h2.228v76.847H67.04z" class="cls-24"/><path d="M69.268 381.025h2.228v76.847h-2.228z" class="cls-25"/><path d="M71.497 381.025h2.228v76.847h-2.228z" class="cls-26"/><path d="M73.725 381.025h2.228v76.847h-2.228z" class="cls-27"/><path d="M75.953 381.025h2.228v76.847h-2.228z" class="cls-28"/><path d="M78.182 381.025h2.228v76.847h-2.228z" class="cls-29"/><path d="M80.41 381.025h2.228v76.847H80.41z" class="cls-30"/><path d="M82.638 381.025h2.228v76.847h-2.228z" class="cls-31"/><path d="M84.867 381.025h2.228v76.847h-2.228z" class="cls-32"/><path d="M87.095 381.025h2.228v76.847h-2.228z" class="cls-33"/><path d="M89.323 381.025h2.228v76.847h-2.228z" class="cls-34"/><path d="M91.552 381.025h2.228v76.847h-2.228z" class="cls-35"/><path d="M93.78 381.025h2.228v76.847H93.78z" class="cls-36"/><path d="M96.008 381.025h2.228v76.847h-2.228z" class="cls-37"/><path d="M98.237 381.025h2.228v76.847h-2.228z" class="cls-38"/><path d="M100.465 381.025h2.228v76.847h-2.228z" class="cls-39"/><path d="M102.693 381.025h2.228v76.847h-2.228z" class="cls-40"/><path d="M104.922 381.025h2.228v76.847h-2.228z" class="cls-41"/><path d="M107.15 381.025h2.228v76.847h-2.228z" class="cls-42"/><path d="M109.378 381.025h2.228v76.847h-2.228z" class="cls-43"/><path d="M111.607 381.025h2.228v76.847h-2.228z" class="cls-44"/><path d="M113.835 381.025h2.228v76.847h-2.228z" class="cls-45"/><path d="M116.063 381.025h2.228v76.847h-2.228z" class="cls-46"/><path d="M118.292 381.025h2.228v76.847h-2.228z" class="cls-47"/><path d="M120.52 381.025h2.228v76.847h-2.228z" class="cls-48"/><path d="M122.748 381.025h2.228v76.847h-2.228z" class="cls-49"/><path d="M124.977 381.025h2.228v76.847h-2.228z" class="cls-50"/><path d="M127.205 381.025h2.228v76.847h-2.228z" class="cls-51"/><path d="M129.433 381.025h2.228v76.847h-2.228z" class="cls-52"/><path d="M131.662 381.025h2.228v76.847h-2.228z" class="cls-53"/><path d="M133.89 381.025h2.228v76.847h-2.228z" class="cls-54"/><path d="M136.118 381.025h2.228v76.847h-2.228z" class="cls-55"/><path d="M138.347 381.025h2.228v76.847h-2.228z" class="cls-56"/><path d="M140.575 381.025h2.228v76.847h-2.228z" class="cls-57"/><path d="M142.803 381.025h2.228v76.847h-2.228z" class="cls-58"/><path d="M145.032 381.025h2.228v76.847h-2.228z" class="cls-59"/><path d="M147.26 381.025h2.228v76.847h-2.228z" class="cls-60"/><path d="M149.488 381.025h2.228v76.847h-2.228z" class="cls-61"/><path d="M151.717 381.025h2.228v76.847h-2.228z" class="cls-62"/><path d="M153.945 381.025h2.228v76.847h-2.228z" class="cls-63"/><path d="M156.173 381.025h2.228v76.847h-2.228z" class="cls-64"/><path d="M158.402 381.025h2.228v76.847h-2.228z" class="cls-65"/><path d="M160.63 381.025h2.228v76.847h-2.228z" class="cls-66"/><path d="M162.858 381.025h2.228v76.847h-2.228z" class="cls-67"/><path d="M165.087 381.025h2.228v76.847h-2.228z" class="cls-68"/><path d="M167.315 381.025h2.228v76.847h-2.228z" class="cls-69"/><path d="M169.543 381.025h2.228v76.847h-2.228z" class="cls-70"/><path d="M171.772 381.025H174v76.847h-2.228z" class="cls-71"/><path d="M174 381.025h2.228v76.847H174z" class="cls-72"/><path d="M176.228 381.025h2.228v76.847h-2.228z" class="cls-73"/><path d="M178.457 381.025h2.228v76.847h-2.228z" class="cls-74"/><path d="M180.685 381.025h2.228v76.847h-2.228z" class="cls-75"/><path d="M182.913 381.025h2.228v76.847h-2.228z" class="cls-76"/><path d="M185.142 381.025h2.228v76.847h-2.228z" class="cls-77"/><path d="M187.37 381.025h2.228v76.847h-2.228z" class="cls-78"/><path d="M189.598 381.025h2.228v76.847h-2.228z" class="cls-79"/><path d="M191.827 381.025h2.228v76.847h-2.228z" class="cls-80"/><path d="M194.055 381.025h2.228v76.847h-2.228z" class="cls-81"/><path d="M196.283 381.025h2.228v76.847h-2.228z" class="cls-82"/><path d="M198.512 381.025h2.228v76.847h-2.228z" class="cls-83"/><path d="M200.74 381.025h2.228v76.847h-2.228z" class="cls-84"/><path d="M202.968 381.025h2.228v76.847h-2.228z" class="cls-85"/><path d="M205.197 381.025h2.228v76.847h-2.228z" class="cls-86"/><path d="M207.425 381.025h2.228v76.847h-2.228z" class="cls-87"/><path d="M209.653 381.025h2.228v76.847h-2.228z" class="cls-88"/><path d="M211.882 381.025h2.228v76.847h-2.228z" class="cls-89"/><path d="M214.11 381.025h2.228v76.847h-2.228z" class="cls-90"/><path d="M216.338 381.025h2.228v76.847h-2.228z" class="cls-91"/><path d="M218.567 381.025h2.228v76.847h-2.228z" class="cls-92"/><path d="M220.795 381.025h2.228v76.847h-2.228z" class="cls-93"/><path d="M223.023 381.025h2.228v76.847h-2.228z" class="cls-94"/><path d="M225.252 381.025h2.228v76.847h-2.228z" class="cls-95"/><path d="M227.48 381.025h2.228v76.847h-2.228z" class="cls-96"/><path d="M229.708 381.025h2.228v76.847h-2.228z" class="cls-97"/><path d="M231.937 381.025h2.228v76.847h-2.228z" class="cls-98"/><path d="M234.165 381.025h2.228v76.847h-2.228z" class="cls-99"/><path d="M236.393 381.025h2.228v76.847h-2.228z" class="cls-100"/><path d="M238.622 381.025h2.228v76.847h-2.228z" class="cls-101"/><path d="M240.85 381.025h2.228v76.847h-2.228z" class="cls-102"/><path d="M243.078 381.025h2.228v76.847h-2.228z" class="cls-103"/><path d="M245.307 381.025h2.228v76.847h-2.228z" class="cls-104"/><path d="M247.535 381.025h2.228v76.847h-2.228z" class="cls-105"/><path d="M249.763 381.025h2.228v76.847h-2.228z" class="cls-106"/><path d="M251.992 381.025h2.228v76.847h-2.228z" class="cls-107"/><path d="M254.22 381.025h2.228v76.847h-2.228z" class="cls-108"/><path d="M256.448 381.025h2.228v76.847h-2.228z" class="cls-109"/><path d="M258.677 381.025h2.228v76.847h-2.228z" class="cls-110"/><path d="M260.905 381.025h2.228v76.847h-2.228z" class="cls-111"/><path d="M263.133 381.025h2.228v76.847h-2.228z" class="cls-112"/><path d="M265.362 381.025h2.228v76.847h-2.228z" class="cls-113"/><path d="M267.59 381.025h2.228v76.847h-2.228z" class="cls-114"/><path d="M269.818 381.025h2.228v76.847h-2.228z" class="cls-115"/><path d="M272.047 381.025h2.228v76.847h-2.228z" class="cls-116"/><path d="M274.275 381.025h2.228v76.847h-2.228z" class="cls-117"/><path d="M276.503 381.025h2.228v76.847h-2.228z" class="cls-118"/><path d="M278.732 381.025h2.228v76.847h-2.228z" class="cls-119"/><path d="M280.96 381.025h2.228v76.847h-2.228z" class="cls-120"/><path d="M283.188 381.025h2.228v76.847h-2.228z" class="cls-121"/><path d="M285.417 381.025h2.228v76.847h-2.228z" class="cls-122"/><path d="M287.645 381.025h2.228v76.847h-2.228z" class="cls-123"/><path d="M289.873 381.025h2.228v76.847h-2.228z" class="cls-124"/><path d="M292.102 381.025h2.228v76.847h-2.228z" class="cls-125"/><path d="M294.33 381.025h2.228v76.847h-2.228z" class="cls-126"/><path d="M296.558 381.025h2.228v76.847h-2.228z" class="cls-127"/><path d="M298.787 381.025h2.228v76.847h-2.228z" class="cls-128"/><path d="M301.015 381.025h2.228v76.847h-2.228z" class="cls-129"/><path d="M303.243 381.025h2.228v76.847h-2.228z" class="cls-130"/><path d="M305.472 381.025h2.228v76.847h-2.228z" class="cls-131"/><path d="M307.7 381.025h2.228v76.847H307.7z" class="cls-132"/><path d="M309.928 381.025h2.228v76.847h-2.228z" class="cls-133"/><path d="M312.157 381.025h2.228v76.847h-2.228z" class="cls-134"/><path d="M314.385 381.025h2.228v76.847h-2.228z" class="cls-135"/><path d="M316.613 381.025h2.228v76.847h-2.228z" class="cls-136"/><path d="M318.842 381.025h2.228v76.847h-2.228z" class="cls-137"/><path d="M321.07 381.025h2.228v76.847h-2.228z" class="cls-138"/><path d="M323.298 381.025h2.228v76.847h-2.228z" class="cls-139"/><path d="M325.527 381.025h2.228v76.847h-2.228z" class="cls-140"/><path d="M327.755 381.025h2.228v76.847h-2.228z" class="cls-141"/><path d="M329.983 381.025h2.228v76.847h-2.228z" class="cls-142"/><path d="M332.212 381.025h2.228v76.847h-2.228z" class="cls-143"/><path d="M334.44 381.025h2.228v76.847h-2.228z" class="cls-144"/><path fill="#292bed" d="M336.668 381.025h2.228v76.847h-2.228z"/><path fill="#292aed" d="M338.897 381.025h2.228v76.847h-2.228z"/><path fill="#2929ee" d="M341.125 381.025h2.228v76.847h-2.228z"/><path fill="#2928ee" d="M343.353 381.025h2.228v76.847h-2.228z"/><path fill="#2827ee" d="M345.582 381.025h2.228v76.847h-2.228z"/><path fill="#2826ef" d="M347.81 381.025h2.228v76.847h-2.228z"/><path fill="#2825ef" d="M350.038 381.025h2.228v76.847h-2.228z"/></g></g><path d="M80.872 88.13v24.64h4.365v9.345h-4.365v6.006H69.476v-6.006h-19.19v-9.521q3.105-6.3 6.49-12.378 3.383-6.08 6.752-12.085zm-11.396 24.64V96.48h-.557q-2.227 3.985-4.292 7.881t-4.028 8.291v.118zm32.52 3.515a2.8 2.8 0 0 0 .512 1.245 4.506 4.506 0 0 0 1.084 1.07 5.497 5.497 0 0 0 1.538.747 6.274 6.274 0 0 0 1.904.278 5.445 5.445 0 0 0 2.74-.66 4.697 4.697 0 0 0 1.801-1.8 5.16 5.16 0 0 0 .645-2.58 5.25 5.25 0 0 0-.63-2.577 4.625 4.625 0 0 0-1.773-1.802 5.181 5.181 0 0 0-2.636-.66 4.816 4.816 0 0 0-2.168.44 4.885 4.885 0 0 0-1.421 1.026 4.764 4.764 0 0 0-.777 1.054H91.858l1.465-23.935h27.803v9.375h-18.398l-.528 6.855h.557a5.814 5.814 0 0 1 1.391-1.45 9.15 9.15 0 0 1 2.681-1.391 12.17 12.17 0 0 1 4.014-.586 13.869 13.869 0 0 1 6.313 1.48 11.926 11.926 0 0 1 4.79 4.408 13.498 13.498 0 0 1 1.846 7.324 14.207 14.207 0 0 1-2.11 7.852 13.697 13.697 0 0 1-5.859 5.04 20.299 20.299 0 0 1-8.701 1.757 21.558 21.558 0 0 1-6.709-.967 15.144 15.144 0 0 1-5.039-2.695 11.93 11.93 0 0 1-3.179-4 10.988 10.988 0 0 1-1.098-4.848zm28.622-10.942a10.608 10.608 0 0 1-2.783-7.69 10.608 10.608 0 0 1 2.783-7.691 11.02 11.02 0 0 1 14.854-.015 10.599 10.599 0 0 1 2.783 7.705 10.61 10.61 0 0 1-2.783 7.69 11 11 0 0 1-14.854 0zm5.156 22.778l12.51-20.566 8.584-19.424h10.518l-13.272 21.035-7.822 18.955zm3.955-27.685a5.586 5.586 0 0 0 .586-2.813 5.658 5.658 0 0 0-.586-2.842 1.864 1.864 0 0 0-1.699-.996 1.84 1.84 0 0 0-1.67.996 5.653 5.653 0 0 0-.586 2.842 5.595 5.595 0 0 0 .586 2.798 1.837 1.837 0 0 0 1.67 1.01 1.864 1.864 0 0 0 1.7-.995zm17.388 25.971a12.086 12.086 0 0 1 0-15.395 11.003 11.003 0 0 1 14.824 0 12.086 12.086 0 0 1 0 15.395 10.962 10.962 0 0 1-14.824 0zm9.068-4.907a5.586 5.586 0 0 0 .586-2.813 5.765 5.765 0 0 0-.572-2.856 1.836 1.836 0 0 0-1.684-.981 1.872 1.872 0 0 0-1.685.996 5.543 5.543 0 0 0-.6 2.841 5.487 5.487 0 0 0 .6 2.798 1.868 1.868 0 0 0 1.685 1.011 1.841 1.841 0 0 0 1.67-.996zm34.322 23.292h149.76v25.92h-149.76zm31.884-42.054h4.395a5.262 5.262 0 0 0 2.314-.468 3.596 3.596 0 0 0 1.48-1.246 3.044 3.044 0 0 0 .512-1.713 3.008 3.008 0 0 0-1.274-2.535 5.169 5.169 0 0 0-4.863-.6 4.394 4.394 0 0 0-1.421.937 4.32 4.32 0 0 0-.909 1.319 3.668 3.668 0 0 0-.322 1.494h-11.22a13.682 13.682 0 0 1 1.274-5.479 11.371 11.371 0 0 1 3.267-4.057 14.863 14.863 0 0 1 5.083-2.52 24.124 24.124 0 0 1 6.723-.864 22.645 22.645 0 0 1 8.247 1.348 12.024 12.024 0 0 1 5.303 3.764 8.984 8.984 0 0 1 1.86 5.64 7.929 7.929 0 0 1-1.274 4.658 8.612 8.612 0 0 1-3.018 2.74 9.964 9.964 0 0 1-3.12 1.127v.615a9.712 9.712 0 0 1 3.985 1.202 8.484 8.484 0 0 1 3.178 3.076 9.57 9.57 0 0 1 1.245 5.097 10.223 10.223 0 0 1-1.435 5.523 11.148 11.148 0 0 1-3.867 3.735 18.684 18.684 0 0 1-5.406 2.11 27.29 27.29 0 0 1-6.05.673 20.134 20.134 0 0 1-9.125-1.83 12.856 12.856 0 0 1-5.406-4.805 12.155 12.155 0 0 1-1.787-6.372h11.045a3.29 3.29 0 0 0 .689 2.065 4.523 4.523 0 0 0 1.845 1.392 6.479 6.479 0 0 0 2.593.498 6.242 6.242 0 0 0 2.534-.484 4 4 0 0 0 1.714-1.362 3.438 3.438 0 0 0 .615-2.021 3.79 3.79 0 0 0-.527-1.934 3.833 3.833 0 0 0-1.597-1.465 5.856 5.856 0 0 0-2.71-.557h-4.57zm36.445 24.903V98.43h-.586q-1.465.997-2.944 2.007-1.48 1.011-2.944 2.022-1.466 1.01-2.93 2.007v-10.43q2.344-1.61 4.702-3.193 2.358-1.582 4.702-3.194h12.188v39.99zm22.53-22.779a10.605 10.605 0 0 1-2.783-7.69 10.608 10.608 0 0 1 2.783-7.69 11.02 11.02 0 0 1 14.853-.015 10.6 10.6 0 0 1 2.783 7.705 10.607 10.607 0 0 1-2.783 7.69 10.999 10.999 0 0 1-14.853 0zm5.156 22.779l12.51-20.567 8.583-19.424h10.518l-13.272 21.036-7.822 18.955zm3.955-27.686a5.581 5.581 0 0 0 .586-2.812 5.658 5.658 0 0 0-.586-2.842 1.866 1.866 0 0 0-1.7-.996 1.842 1.842 0 0 0-1.67.996 5.653 5.653 0 0 0-.585 2.842 5.595 5.595 0 0 0 .586 2.797 1.837 1.837 0 0 0 1.67 1.011 1.864 1.864 0 0 0 1.699-.996zm17.388 25.972a12.082 12.082 0 0 1 0-15.396 11.003 11.003 0 0 1 14.824 0 12.09 12.09 0 0 1 0 15.396 10.962 10.962 0 0 1-14.824 0zm9.067-4.907a5.581 5.581 0 0 0 .586-2.813 5.771 5.771 0 0 0-.57-2.856 1.837 1.837 0 0 0-1.686-.982 1.873 1.873 0 0 0-1.684.996 5.542 5.542 0 0 0-.601 2.842 5.487 5.487 0 0 0 .601 2.798 1.867 1.867 0 0 0 1.684 1.01 1.84 1.84 0 0 0 1.67-.995z" class="cls-7"/><path d="M246.96 160.501a4.086 4.086 0 0 1-1.7 1.738 6.444 6.444 0 0 1-5.504 0 4.099 4.099 0 0 1-1.707-1.738 5.591 5.591 0 0 1-.582-2.613v-1.047a5.67 5.67 0 0 1 .582-2.64 4.091 4.091 0 0 1 1.707-1.743 5.652 5.652 0 0 1 2.75-.617 5.583 5.583 0 0 1 2.754.625 4.137 4.137 0 0 1 1.7 1.746 5.664 5.664 0 0 1 .578 2.629v1.047a5.626 5.626 0 0 1-.579 2.613zm-2.985-4.996a1.719 1.719 0 0 0-.574-.793 1.482 1.482 0 0 0-.895-.27 1.498 1.498 0 0 0-.898.27 1.701 1.701 0 0 0-.578.793 3.57 3.57 0 0 0-.203 1.289v1.11a3.604 3.604 0 0 0 .203 1.292 1.672 1.672 0 0 0 .578.793 1.516 1.516 0 0 0 .898.266 1.5 1.5 0 0 0 .895-.266 1.689 1.689 0 0 0 .574-.793 3.615 3.615 0 0 0 .203-1.293v-1.109a3.581 3.581 0 0 0-.203-1.29zm5.696 7.172v-10.664h7.579v2.562h-4.297v1.953h3.882v2.47h-3.882v3.679zm15.324 0v-8.04h-2.711v-2.624h8.703v2.625h-2.711v8.039zm6.285 0l3.235-10.664h4.156l3.203 10.664h-3.5l-.46-2.016h-2.915l-.477 2.016zm5.117-7.953l-.859 3.632h1.852l-.828-3.632zm14.353 7.953h-7.195v-10.664h3.281v7.976h3.914zm8.395-5.992l3.632 5.992h-3.797l-2.226-3.852-.742.938v2.914h-3.282v-10.664h3.282v4.18h.148l3.102-4.18h3.422zm7.704 2.726a.82.82 0 0 0 .109.371 1.105 1.105 0 0 0 .297.336 1.49 1.49 0 0 0 .484.242 2.275 2.275 0 0 0 .672.09 2.187 2.187 0 0 0 .793-.117.883.883 0 0 0 .422-.309.722.722 0 0 0 .129-.41.619.619 0 0 0-.387-.597 4.468 4.468 0 0 0-1.105-.309l-1.29-.227a5.248 5.248 0 0 1-1.562-.523 2.729 2.729 0 0 1-1.078-1.016 3.526 3.526 0 0 1 .164-3.511 3.44 3.44 0 0 1 1.55-1.184 6.13 6.13 0 0 1 2.325-.406 5.394 5.394 0 0 1 2.473.496 3.459 3.459 0 0 1 1.43 1.27 3.083 3.083 0 0 1 .464 1.609h-2.968a.907.907 0 0 0-.157-.457 1.173 1.173 0 0 0-.453-.39 1.679 1.679 0 0 0-.781-.161 1.36 1.36 0 0 0-.906.246.758.758 0 0 0-.282.59.587.587 0 0 0 .372.535 3.404 3.404 0 0 0 1.019.293l1.367.211a5.014 5.014 0 0 1 1.43.438 2.823 2.823 0 0 1 1.133.984 3.084 3.084 0 0 1 .445 1.758 3.442 3.442 0 0 1-.504 1.851 3.372 3.372 0 0 1-1.527 1.278 6.276 6.276 0 0 1-2.586.465 6.855 6.855 0 0 1-2.192-.301 3.724 3.724 0 0 1-1.402-.805 2.973 2.973 0 0 1-.75-1.113 3.49 3.49 0 0 1-.226-1.227z" class="cls-6"/><g class="cls-152"><g class="cls-152"><path d="M30.227 188.032h2.432v43.2h-2.432z" class="cls-9"/><path d="M32.659 188.032h2.432v43.2h-2.432z" class="cls-10"/><path d="M35.091 188.032h2.432v43.2h-2.432z" class="cls-11"/><path d="M37.523 188.032h2.432v43.2h-2.432z" class="cls-12"/><path d="M39.956 188.032h2.432v43.2h-2.432z" class="cls-13"/><path d="M42.388 188.032h2.432v43.2h-2.432z" class="cls-14"/><path d="M44.82 188.032h2.432v43.2H44.82zm2.432 0h2.432v43.2h-2.432z" class="cls-15"/><path d="M49.685 188.032h2.432v43.2h-2.432z" class="cls-16"/><path d="M52.117 188.032h2.432v43.2h-2.432z" class="cls-17"/><path d="M54.549 188.032h2.432v43.2h-2.432z" class="cls-18"/><path d="M56.981 188.032h2.432v43.2h-2.432z" class="cls-19"/><path d="M59.414 188.032h2.432v43.2h-2.432z" class="cls-20"/><path d="M61.846 188.032h2.432v43.2h-2.432z" class="cls-21"/><path d="M64.278 188.032h2.432v43.2h-2.432z" class="cls-22"/><path d="M66.71 188.032h2.432v43.2H66.71z" class="cls-23"/><path d="M69.142 188.032h2.432v43.2h-2.432z" class="cls-24"/><path d="M71.575 188.032h2.432v43.2h-2.432z" class="cls-25"/><path d="M74.007 188.032h2.432v43.2h-2.432z" class="cls-26"/><path d="M76.439 188.032h2.432v43.2h-2.432z" class="cls-27"/><path d="M78.871 188.032h2.432v43.2h-2.432z" class="cls-28"/><path d="M81.304 188.032h2.432v43.2h-2.432z" class="cls-29"/><path d="M83.736 188.032h2.432v43.2h-2.432z" class="cls-30"/><path d="M86.168 188.032H88.6v43.2h-2.432z" class="cls-31"/><path d="M88.6 188.032h2.432v43.2H88.6z" class="cls-32"/><path d="M91.033 188.032h2.432v43.2h-2.432z" class="cls-33"/><path d="M93.465 188.032h2.432v43.2h-2.432z" class="cls-34"/><path d="M95.897 188.032h2.432v43.2h-2.432z" class="cls-35"/><path d="M98.329 188.032h2.432v43.2h-2.432z" class="cls-36"/><path d="M100.762 188.032h2.432v43.2h-2.432z" class="cls-37"/><path d="M103.194 188.032h2.432v43.2h-2.432z" class="cls-38"/><path d="M105.626 188.032h2.432v43.2h-2.432z" class="cls-39"/><path d="M108.058 188.032h2.432v43.2h-2.432z" class="cls-40"/><path d="M110.49 188.032h2.432v43.2h-2.432z" class="cls-41"/><path d="M112.923 188.032h2.432v43.2h-2.432z" class="cls-42"/><path d="M115.355 188.032h2.432v43.2h-2.432z" class="cls-43"/><path d="M117.787 188.032h2.432v43.2h-2.432z" class="cls-44"/><path d="M120.219 188.032h2.432v43.2h-2.432z" class="cls-45"/><path d="M122.652 188.032h2.432v43.2h-2.432z" class="cls-46"/><path d="M125.084 188.032h2.432v43.2h-2.432z" class="cls-47"/><path d="M127.516 188.032h2.432v43.2h-2.432z" class="cls-48"/><path d="M129.948 188.032h2.432v43.2h-2.432z" class="cls-49"/><path d="M132.381 188.032h2.432v43.2h-2.432z" class="cls-50"/><path d="M134.813 188.032h2.432v43.2h-2.432z" class="cls-51"/><path d="M137.245 188.032h2.432v43.2h-2.432z" class="cls-52"/><path d="M139.677 188.032h2.432v43.2h-2.432z" class="cls-53"/><path d="M142.11 188.032h2.432v43.2h-2.432z" class="cls-54"/><path d="M144.542 188.032h2.432v43.2h-2.432z" class="cls-55"/><path d="M146.974 188.032h2.432v43.2h-2.432z" class="cls-56"/><path d="M149.406 188.032h2.432v43.2h-2.432z" class="cls-57"/><path d="M151.839 188.032h2.432v43.2h-2.432z" class="cls-58"/><path d="M154.271 188.032h2.432v43.2h-2.432z" class="cls-59"/><path d="M156.703 188.032h2.432v43.2h-2.432z" class="cls-60"/><path d="M159.135 188.032h2.432v43.2h-2.432z" class="cls-61"/><path d="M161.567 188.032h2.432v43.2h-2.432z" class="cls-62"/><path d="M164 188.032h2.432v43.2H164z" class="cls-63"/><path d="M166.432 188.032h2.432v43.2h-2.432z" class="cls-64"/><path d="M168.864 188.032h2.432v43.2h-2.432z" class="cls-65"/><path d="M171.296 188.032h2.432v43.2h-2.432z" class="cls-66"/><path d="M173.729 188.032h2.432v43.2h-2.432z" class="cls-67"/><path d="M176.161 188.032h2.432v43.2h-2.432z" class="cls-68"/><path d="M178.593 188.032h2.432v43.2h-2.432z" class="cls-69"/><path d="M181.025 188.032h2.432v43.2h-2.432z" class="cls-70"/><path d="M183.458 188.032h2.432v43.2h-2.432z" class="cls-71"/><path d="M185.89 188.032h2.432v43.2h-2.432z" class="cls-72"/><path d="M188.322 188.032h2.432v43.2h-2.432z" class="cls-73"/><path d="M190.754 188.032h2.432v43.2h-2.432z" class="cls-74"/><path d="M193.187 188.032h2.432v43.2h-2.432z" class="cls-75"/><path d="M195.619 188.032h2.432v43.2h-2.432z" class="cls-76"/><path d="M198.051 188.032h2.432v43.2h-2.432z" class="cls-77"/><path d="M200.483 188.032h2.432v43.2h-2.432z" class="cls-78"/><path d="M202.916 188.032h2.432v43.2h-2.432z" class="cls-79"/><path d="M205.348 188.032h2.432v43.2h-2.432z" class="cls-80"/><path d="M207.78 188.032h2.432v43.2h-2.432z" class="cls-81"/><path d="M210.212 188.032h2.432v43.2h-2.432z" class="cls-82"/><path d="M212.644 188.032h2.432v43.2h-2.432z" class="cls-83"/><path d="M215.077 188.032h2.432v43.2h-2.432z" class="cls-84"/><path d="M217.509 188.032h2.432v43.2h-2.432z" class="cls-85"/><path d="M219.941 188.032h2.432v43.2h-2.432z" class="cls-86"/><path d="M222.373 188.032h2.432v43.2h-2.432z" class="cls-87"/><path d="M224.806 188.032h2.432v43.2h-2.432z" class="cls-88"/><path d="M227.238 188.032h2.432v43.2h-2.432z" class="cls-89"/><path d="M229.67 188.032h2.432v43.2h-2.432z" class="cls-90"/><path d="M232.102 188.032h2.432v43.2h-2.432z" class="cls-91"/><path d="M234.535 188.032h2.432v43.2h-2.432z" class="cls-92"/><path d="M236.967 188.032h2.432v43.2h-2.432z" class="cls-93"/><path d="M239.399 188.032h2.432v43.2h-2.432z" class="cls-94"/><path d="M241.831 188.032h2.432v43.2h-2.432z" class="cls-95"/><path d="M244.264 188.032h2.432v43.2h-2.432z" class="cls-96"/><path d="M246.696 188.032h2.432v43.2h-2.432z" class="cls-97"/><path d="M249.128 188.032h2.432v43.2h-2.432z" class="cls-98"/><path d="M251.56 188.032h2.432v43.2h-2.432z" class="cls-99"/><path d="M253.992 188.032h2.432v43.2h-2.432z" class="cls-100"/><path d="M256.425 188.032h2.432v43.2h-2.432z" class="cls-101"/><path d="M258.857 188.032h2.432v43.2h-2.432z" class="cls-102"/><path d="M261.289 188.032h2.432v43.2h-2.432z" class="cls-103"/><path d="M263.721 188.032h2.432v43.2h-2.432z" class="cls-104"/><path d="M266.154 188.032h2.432v43.2h-2.432z" class="cls-105"/><path d="M268.586 188.032h2.432v43.2h-2.432z" class="cls-106"/><path d="M271.018 188.032h2.432v43.2h-2.432z" class="cls-107"/><path d="M273.45 188.032h2.432v43.2h-2.432z" class="cls-108"/><path d="M275.883 188.032h2.432v43.2h-2.432z" class="cls-109"/><path d="M278.315 188.032h2.432v43.2h-2.432z" class="cls-110"/><path d="M280.747 188.032h2.432v43.2h-2.432z" class="cls-111"/><path d="M283.179 188.032h2.432v43.2h-2.432z" class="cls-112"/><path d="M285.612 188.032h2.432v43.2h-2.432z" class="cls-113"/><path d="M288.044 188.032h2.432v43.2h-2.432z" class="cls-114"/><path d="M290.476 188.032h2.432v43.2h-2.432z" class="cls-115"/><path d="M292.908 188.032h2.432v43.2h-2.432z" class="cls-116"/><path d="M295.341 188.032h2.432v43.2h-2.432z" class="cls-117"/><path d="M297.773 188.032h2.432v43.2h-2.432z" class="cls-118"/><path d="M300.205 188.032h2.432v43.2h-2.432z" class="cls-119"/><path d="M302.637 188.032h2.432v43.2h-2.432z" class="cls-120"/><path d="M305.069 188.032h2.432v43.2h-2.432z" class="cls-121"/><path d="M307.502 188.032h2.432v43.2h-2.432z" class="cls-122"/><path d="M309.934 188.032h2.432v43.2h-2.432z" class="cls-123"/><path d="M312.366 188.032h2.432v43.2h-2.432z" class="cls-124"/><path d="M314.798 188.032h2.432v43.2h-2.432z" class="cls-125"/><path d="M317.231 188.032h2.432v43.2h-2.432z" class="cls-126"/><path d="M319.663 188.032h2.432v43.2h-2.432z" class="cls-127"/><path d="M322.095 188.032h2.432v43.2h-2.432z" class="cls-128"/><path d="M324.527 188.032h2.432v43.2h-2.432z" class="cls-129"/><path d="M326.96 188.032h2.432v43.2h-2.432z" class="cls-130"/><path d="M329.392 188.032h2.432v43.2h-2.432z" class="cls-131"/><path d="M331.824 188.032h2.432v43.2h-2.432z" class="cls-132"/><path d="M334.256 188.032h2.432v43.2h-2.432z" class="cls-133"/><path d="M336.689 188.032h2.432v43.2h-2.432z" class="cls-134"/><path d="M339.121 188.032h2.432v43.2h-2.432z" class="cls-135"/><path d="M341.553 188.032h2.432v43.2h-2.432z" class="cls-136"/><path d="M343.985 188.032h2.432v43.2h-2.432z" class="cls-137"/><path d="M346.417 188.032h2.432v43.2h-2.432z" class="cls-138"/><path d="M348.85 188.032h2.432v43.2h-2.432z" class="cls-139"/><path d="M351.282 188.032h.985v43.2h-.985z" class="cls-140"/></g></g><path d="M43.923 209.979a4.165 4.165 0 0 0 .196 1.37 1.769 1.769 0 0 0 .564.841 1.41 1.41 0 0 0 .892.288 1.429 1.429 0 0 0 .863-.254 1.527 1.527 0 0 0 .523-.685 2.57 2.57 0 0 0 .175-.97h3.295v.505a3.95 3.95 0 0 1-.627 2.229 4.144 4.144 0 0 1-1.73 1.473 5.848 5.848 0 0 1-2.532.524 5.619 5.619 0 0 1-2.834-.664 4.328 4.328 0 0 1-1.756-1.865 6.242 6.242 0 0 1-.598-2.817v-1.021a6.243 6.243 0 0 1 .598-2.823 4.307 4.307 0 0 1 1.756-1.855 5.649 5.649 0 0 1 2.834-.66 6.275 6.275 0 0 1 1.967.295 4.541 4.541 0 0 1 1.548.851 3.867 3.867 0 0 1 1.013 1.336 4.118 4.118 0 0 1 .361 1.752v.49h-3.295a2.57 2.57 0 0 0-.175-.971 1.505 1.505 0 0 0-.523-.681 1.447 1.447 0 0 0-.863-.249 1.409 1.409 0 0 0-.892.286 1.767 1.767 0 0 0-.564.843 4.19 4.19 0 0 0-.196 1.378zm7.796 5.13l3.437-11.33h4.416l3.403 11.33h-3.719l-.49-2.142H55.67l-.506 2.141zm5.437-8.45l-.913 3.86h1.967l-.88-3.86zm7.589 8.45v-11.33h3.644l2.424 5.054h.116l2.432-5.055h3.61v11.33h-3.129v-6.316h-.157l-1.926 4.167h-1.826l-1.943-4.167h-.166v6.316zm23.052 0h-8.076v-11.33h8.076v2.68h-4.631v1.785h4.324v2.424h-4.324v1.76h4.631zm6.578 0v-11.33h8.051v2.722h-4.565v2.075h4.125v2.623h-4.125v3.91zm17.88-10.845a3.393 3.393 0 0 1 1.503 1.365 4.042 4.042 0 0 1 .507 2.05 3.314 3.314 0 0 1-.361 1.602 3.68 3.68 0 0 1-.83 1.063 3.752 3.752 0 0 1-.793.548l2.224 4.216h-3.826l-1.818-3.776h-.872v3.776h-3.411v-11.33h5.196a5.636 5.636 0 0 1 2.482.486zm-3.012 4.744a1.595 1.595 0 0 0 1-.328 1.2 1.2 0 0 0 .427-1.017 1.241 1.241 0 0 0-.44-1.042 1.563 1.563 0 0 0-.987-.345h-1.254v2.732zm16.868 3.789a4.335 4.335 0 0 1-1.805 1.847 6.843 6.843 0 0 1-5.848 0 4.356 4.356 0 0 1-1.814-1.847 5.946 5.946 0 0 1-.618-2.776v-1.113a6.027 6.027 0 0 1 .618-2.805 4.356 4.356 0 0 1 1.814-1.852 6.01 6.01 0 0 1 2.922-.655 5.929 5.929 0 0 1 2.926.664 4.386 4.386 0 0 1 1.805 1.854 6.018 6.018 0 0 1 .615 2.794v1.113a5.975 5.975 0 0 1-.615 2.776zm-3.17-5.309a1.828 1.828 0 0 0-.61-.842 1.578 1.578 0 0 0-.951-.287 1.596 1.596 0 0 0-.955.287 1.815 1.815 0 0 0-.614.842 3.802 3.802 0 0 0-.216 1.37v1.18a3.83 3.83 0 0 0 .216 1.372 1.776 1.776 0 0 0 .614.843 1.607 1.607 0 0 0 .955.282 1.59 1.59 0 0 0 .95-.282 1.788 1.788 0 0 0 .61-.843 3.83 3.83 0 0 0 .216-1.373v-1.179a3.802 3.802 0 0 0-.216-1.37zm6.052 7.62v-11.33h3.644l2.424 5.055h.116l2.432-5.055h3.611v11.33h-3.13v-6.316h-.157l-1.926 4.167h-1.826l-1.942-4.167h-.166v6.316zm27.147 0h-8.077v-11.33h8.077v2.681h-4.632v1.785h4.325v2.424h-4.325v1.76h4.632zm2.483 0v-11.33h2.615l3.86 5.479h.132v-5.479h3.196v11.33h-2.59l-3.884-5.578h-.133v5.578zm17.458-11.33a5.687 5.687 0 0 1 2.988.698 4.121 4.121 0 0 1 1.681 1.954 7.48 7.48 0 0 1 .536 2.943 7.663 7.663 0 0 1-.548 3.005 4.27 4.27 0 0 1-1.697 2.013 5.51 5.51 0 0 1-2.96.717h-4.922v-11.33zm-1.436 8.65h.797a2.752 2.752 0 0 0 1.059-.183 1.613 1.613 0 0 0 .7-.553 2.504 2.504 0 0 0 .39-.924 5.98 5.98 0 0 0 .125-1.295 5.302 5.302 0 0 0-.224-1.66 1.908 1.908 0 0 0-.722-1.013 2.311 2.311 0 0 0-1.328-.341h-.797zm18.916-.395a1.76 1.76 0 0 0 .436-1.332v-6.923h3.486v7.412a3.875 3.875 0 0 1-.606 2.171 3.932 3.932 0 0 1-1.73 1.432 7.324 7.324 0 0 1-5.354 0 3.932 3.932 0 0 1-1.731-1.432 3.875 3.875 0 0 1-.606-2.17v-7.413h3.486v6.923a1.753 1.753 0 0 0 .436 1.34 1.546 1.546 0 0 0 1.092.403 1.53 1.53 0 0 0 1.091-.41zm9.336-.394a.885.885 0 0 0 .116.394 1.179 1.179 0 0 0 .316.357 1.589 1.589 0 0 0 .514.257 2.415 2.415 0 0 0 .714.096 2.325 2.325 0 0 0 .843-.125.944.944 0 0 0 .448-.328.766.766 0 0 0 .137-.436.657.657 0 0 0-.411-.634 4.747 4.747 0 0 0-1.175-.328l-1.37-.24a5.586 5.586 0 0 1-1.66-.557 2.904 2.904 0 0 1-1.145-1.08 3.31 3.31 0 0 1-.415-1.734 3.348 3.348 0 0 1 .59-1.997 3.662 3.662 0 0 1 1.648-1.257 6.499 6.499 0 0 1 2.469-.431 5.746 5.746 0 0 1 2.627.526 3.666 3.666 0 0 1 1.519 1.35 3.27 3.27 0 0 1 .494 1.71h-3.154a.958.958 0 0 0-.166-.487 1.248 1.248 0 0 0-.482-.415 1.78 1.78 0 0 0-.83-.17 1.443 1.443 0 0 0-.963.262.804.804 0 0 0-.299.627.625.625 0 0 0 .395.568 3.643 3.643 0 0 0 1.083.312l1.452.224a5.321 5.321 0 0 1 1.52.464 2.998 2.998 0 0 1 1.203 1.046 3.278 3.278 0 0 1 .473 1.869 3.659 3.659 0 0 1-.535 1.966 3.581 3.581 0 0 1-1.623 1.358 6.662 6.662 0 0 1-2.747.494 7.253 7.253 0 0 1-2.33-.32 3.97 3.97 0 0 1-1.489-.855 3.182 3.182 0 0 1-.797-1.183 3.713 3.713 0 0 1-.24-1.303zm16.802 3.47h-8.076v-11.33h8.076v2.68h-4.632v1.785h4.325v2.424h-4.325v1.76h4.632zm10.161-10.845a3.393 3.393 0 0 1 1.503 1.365 4.042 4.042 0 0 1 .506 2.05 3.314 3.314 0 0 1-.36 1.602 3.68 3.68 0 0 1-.83 1.063 3.752 3.752 0 0 1-.794.548l2.225 4.216h-3.827l-1.818-3.776h-.871v3.776h-3.412v-11.33h5.196a5.636 5.636 0 0 1 2.482.486zm-3.013 4.744a1.595 1.595 0 0 0 1-.328 1.2 1.2 0 0 0 .428-1.017 1.241 1.241 0 0 0-.44-1.042 1.563 1.563 0 0 0-.988-.345h-1.253v2.732zm14.447.97a4.165 4.165 0 0 0 .195 1.37 1.769 1.769 0 0 0 .565.842 1.41 1.41 0 0 0 .892.288 1.429 1.429 0 0 0 .863-.254 1.527 1.527 0 0 0 .523-.685 2.57 2.57 0 0 0 .174-.97h3.296v.505a3.95 3.95 0 0 1-.627 2.229 4.144 4.144 0 0 1-1.73 1.473 5.848 5.848 0 0 1-2.532.524 5.619 5.619 0 0 1-2.835-.664 4.328 4.328 0 0 1-1.756-1.865 6.242 6.242 0 0 1-.597-2.817v-1.021a6.243 6.243 0 0 1 .597-2.823 4.307 4.307 0 0 1 1.756-1.855 5.649 5.649 0 0 1 2.835-.66 6.275 6.275 0 0 1 1.967.295 4.541 4.541 0 0 1 1.548.851 3.867 3.867 0 0 1 1.012 1.336 4.118 4.118 0 0 1 .362 1.752v.49h-3.296a2.57 2.57 0 0 0-.174-.971 1.505 1.505 0 0 0-.523-.681 1.447 1.447 0 0 0-.863-.249 1.409 1.409 0 0 0-.892.286 1.767 1.767 0 0 0-.565.843 4.19 4.19 0 0 0-.195 1.378zm18.38 2.819a4.335 4.335 0 0 1-1.805 1.847 6.843 6.843 0 0 1-5.848 0 4.356 4.356 0 0 1-1.814-1.847 5.946 5.946 0 0 1-.619-2.776v-1.113a6.027 6.027 0 0 1 .619-2.805 4.356 4.356 0 0 1 1.814-1.852 6.01 6.01 0 0 1 2.921-.655 5.929 5.929 0 0 1 2.927.664 4.386 4.386 0 0 1 1.805 1.854 6.018 6.018 0 0 1 .614 2.794v1.113a5.975 5.975 0 0 1-.614 2.776zm-3.171-5.309a1.828 1.828 0 0 0-.61-.842 1.578 1.578 0 0 0-.95-.287 1.596 1.596 0 0 0-.955.287 1.815 1.815 0 0 0-.614.842 3.802 3.802 0 0 0-.216 1.37v1.18a3.83 3.83 0 0 0 .216 1.372 1.776 1.776 0 0 0 .614.843 1.607 1.607 0 0 0 .954.282 1.59 1.59 0 0 0 .951-.282 1.788 1.788 0 0 0 .61-.843 3.83 3.83 0 0 0 .216-1.373v-1.179a3.802 3.802 0 0 0-.216-1.37zm6.052 7.62v-11.33h3.644l2.424 5.055h.116l2.432-5.055h3.611v11.33h-3.13v-6.316h-.157l-1.926 4.167h-1.826l-1.942-4.167h-.166v6.316zm22.506-10.74a3.655 3.655 0 0 1 1.37 1.54 4.717 4.717 0 0 1 .447 2.037 4.576 4.576 0 0 1-.456 2.037 3.543 3.543 0 0 1-1.395 1.5 4.545 4.545 0 0 1-2.374.564h-1.643v3.062h-3.478v-11.33h5.171a4.306 4.306 0 0 1 2.358.59zm-2.142 2.386a1.654 1.654 0 0 0-1.162-.402h-.764v3.187h.764a1.802 1.802 0 0 0 .842-.187 1.324 1.324 0 0 0 .56-.543 1.75 1.75 0 0 0 .2-.864 1.534 1.534 0 0 0-.44-1.191zm4.717 8.354l3.436-11.33h4.416l3.404 11.33h-3.72l-.489-2.141h-3.096l-.506 2.141zm5.437-8.45l-.913 3.86h1.967l-.88-3.86zm7.588 8.45v-11.33h2.614l3.86 5.479h.133v-5.479h3.196v11.33h-2.59l-3.885-5.578h-.133v5.578zm12.535 0v-11.33h3.487v11.33zm14.312 0h-8.076v-11.33h8.076v2.681h-4.631v1.785h4.324v2.424h-4.324v1.76h4.63zm5.272-3.47a.885.885 0 0 0 .116.395 1.179 1.179 0 0 0 .316.357 1.589 1.589 0 0 0 .515.257 2.415 2.415 0 0 0 .713.096 2.324 2.324 0 0 0 .843-.125.944.944 0 0 0 .448-.328.766.766 0 0 0 .137-.436.657.657 0 0 0-.411-.634 4.746 4.746 0 0 0-1.175-.328l-1.369-.24a5.586 5.586 0 0 1-1.66-.557 2.897 2.897 0 0 1-1.146-1.08 3.745 3.745 0 0 1 .175-3.73 3.658 3.658 0 0 1 1.648-1.258 6.5 6.5 0 0 1 2.47-.431 5.746 5.746 0 0 1 2.626.526 3.663 3.663 0 0 1 1.519 1.35 3.274 3.274 0 0 1 .494 1.71h-3.154a.958.958 0 0 0-.166-.487 1.251 1.251 0 0 0-.482-.415 1.78 1.78 0 0 0-.83-.17 1.444 1.444 0 0 0-.963.262.804.804 0 0 0-.298.627.626.626 0 0 0 .394.568 3.647 3.647 0 0 0 1.083.312l1.452.224a5.324 5.324 0 0 1 1.52.464 2.987 2.987 0 0 1 1.203 1.046 3.27 3.27 0 0 1 .474 1.869 3.659 3.659 0 0 1-.536 1.966 3.584 3.584 0 0 1-1.623 1.358 6.66 6.66 0 0 1-2.747.494 7.256 7.256 0 0 1-2.329-.32 3.963 3.963 0 0 1-1.49-.855 3.17 3.17 0 0 1-.796-1.183 3.703 3.703 0 0 1-.241-1.303zM157.582 311.38h-10.044v-14.814h-13.912v-9.756h13.912v-14.417h10.044v14.417h13.948v9.756h-13.948zm36.86 6.432V279.4h-.579q-1.843 1.266-3.685 2.566l-3.686 2.602-3.685 2.601v-10.478q2.89-2.06 5.817-4.101t5.817-4.101h11.743v49.32zm27.886-25.907a31.86 31.86 0 0 1 2.385-12.81 19.232 19.232 0 0 1 6.793-8.473 19.844 19.844 0 0 1 20.92-.036 18.742 18.742 0 0 1 6.649 8.42 32.914 32.914 0 0 1 2.313 12.899v2.42a34.092 34.092 0 0 1-1.373 10.01 23.008 23.008 0 0 1-3.939 7.696 17.53 17.53 0 0 1-6.179 4.95 18.637 18.637 0 0 1-8.166 1.734 17.772 17.772 0 0 1-10.37-2.999 19.192 19.192 0 0 1-6.684-8.473 32.584 32.584 0 0 1-2.349-12.917zm11.888 2.384a30.561 30.561 0 0 0 .921 8.04 11.827 11.827 0 0 0 2.638 5.13 5.447 5.447 0 0 0 4.065 1.79 5.528 5.528 0 0 0 4.137-1.79 11.696 11.696 0 0 0 2.62-5.13 31.159 31.159 0 0 0 .903-8.04v-2.348a30.998 30.998 0 0 0-.903-8.004 11.417 11.417 0 0 0-2.62-5.094 5.717 5.717 0 0 0-8.238 0 11.396 11.396 0 0 0-2.62 5.076 30.93 30.93 0 0 0-.903 8.022zm40.199-5.167a14.413 14.413 0 0 1 0-18.283 12.395 12.395 0 0 1 17.18-.018 14.5 14.5 0 0 1 0 18.301 12.372 12.372 0 0 1-17.18 0zm4.39 28.69l16.585-25.51 12.935-23.811h10.587l-17.308 26.015-12.176 23.306zm6.847-33.712a9.534 9.534 0 0 0 0-8.329 2.994 2.994 0 0 0-2.656-1.5 2.964 2.964 0 0 0-2.62 1.5 9.534 9.534 0 0 0 0 8.329 2.956 2.956 0 0 0 2.62 1.518 2.986 2.986 0 0 0 2.656-1.518zm19.963 31.4a14.526 14.526 0 0 1 0-18.32 12.35 12.35 0 0 1 17.163 0 14.526 14.526 0 0 1 0 18.32 12.35 12.35 0 0 1-17.163 0zm11.183-5.023a7.748 7.748 0 0 0 .958-4.155 7.833 7.833 0 0 0-.94-4.192 3.063 3.063 0 0 0-5.257.018 9.495 9.495 0 0 0 0 8.31 3.01 3.01 0 0 0 5.24.019zM62.962 439.777v-30.67h-.615q-1.54 1.048-3.092 2.108-1.554 1.062-3.091 2.123-1.54 1.06-3.077 2.107v-10.95q2.461-1.693 4.938-3.354 2.475-1.662 4.937-3.354h12.797v41.99zm25.45-27.993v-.768a13.729 13.729 0 0 1 .922-4.876 13.366 13.366 0 0 1 2.86-4.492 14.068 14.068 0 0 1 5-3.292 19.534 19.534 0 0 1 7.367-1.245 21.402 21.402 0 0 1 8.66 1.615 13.67 13.67 0 0 1 5.69 4.368 10.244 10.244 0 0 1 2.015 6.199 12.118 12.118 0 0 1-1.276 5.736 18.272 18.272 0 0 1-3.061 4.245q-1.784 1.831-3.353 3.4l-6.768 6.644v.493h15.043v9.966H89.24v-7.906l14.613-14.058q1.076-1.015 2.106-2.122a11.555 11.555 0 0 0 1.708-2.353 5.498 5.498 0 0 0 .677-2.661 3.368 3.368 0 0 0-.523-1.8 4.259 4.259 0 0 0-1.43-1.4 3.905 3.905 0 0 0-2.077-.553 3.727 3.727 0 0 0-3.43 2.014 4.136 4.136 0 0 0-.477 1.955q0 .246.015.492c.01.164.016.297.016.4zm43.475 4.076a12.618 12.618 0 0 1 0-16.15 11.57 11.57 0 0 1 15.596-.015 12.638 12.638 0 0 1 0 16.165 11.549 11.549 0 0 1-15.596 0zm5.414 23.917l13.135-21.594 9.013-20.396h11.044l-13.935 22.088-8.214 19.902zm4.153-29.07a5.86 5.86 0 0 0 .615-2.953 5.941 5.941 0 0 0-.615-2.983 1.957 1.957 0 0 0-1.785-1.046 1.932 1.932 0 0 0-1.753 1.046 7.432 7.432 0 0 0 0 5.921 1.93 1.93 0 0 0 1.753 1.062 1.956 1.956 0 0 0 1.785-1.047zm18.256 27.27a12.69 12.69 0 0 1 0-16.164 11.553 11.553 0 0 1 15.566 0 12.689 12.689 0 0 1 0 16.165 11.51 11.51 0 0 1-15.566 0zm9.521-5.152a5.866 5.866 0 0 0 .616-2.953 6.048 6.048 0 0 0-.6-2.999 1.926 1.926 0 0 0-1.769-1.031 1.966 1.966 0 0 0-1.769 1.047 5.813 5.813 0 0 0-.63 2.983 5.754 5.754 0 0 0 .63 2.938 1.96 1.96 0 0 0 1.769 1.061 1.933 1.933 0 0 0 1.753-1.046zm34.111-9.486a4.847 4.847 0 0 1-2.018 2.064 7.656 7.656 0 0 1-6.535 0 4.865 4.865 0 0 1-2.027-2.064 6.64 6.64 0 0 1-.692-3.104v-1.242a6.737 6.737 0 0 1 .692-3.137 4.858 4.858 0 0 1 2.027-2.068 6.71 6.71 0 0 1 3.265-.732 6.628 6.628 0 0 1 3.27.742 4.9 4.9 0 0 1 2.018 2.073 6.726 6.726 0 0 1 .687 3.122v1.242a6.681 6.681 0 0 1-.687 3.104zm-3.544-5.933a2.034 2.034 0 0 0-.682-.941 1.755 1.755 0 0 0-1.062-.32 1.776 1.776 0 0 0-1.067.32 2.017 2.017 0 0 0-.686.941 4.243 4.243 0 0 0-.241 1.53v1.319a4.286 4.286 0 0 0 .24 1.535 1.988 1.988 0 0 0 .687.941 1.8 1.8 0 0 0 1.067.316 1.778 1.778 0 0 0 1.062-.316 2.004 2.004 0 0 0 .682-.941 4.296 4.296 0 0 0 .242-1.535v-1.318a4.253 4.253 0 0 0-.242-1.53zm6.765 8.517v-12.664h8.999v3.043h-5.103v2.32h4.611v2.932h-4.61v4.369zm14.903 0l3.84-12.664h4.936l3.804 12.664h-4.156l-.548-2.394h-3.46l-.566 2.394zm6.076-9.444l-1.02 4.313h2.199l-.984-4.313zm10.071 9.444v-9.547h-3.219v-3.117h10.335v3.117h-3.22v9.547zm11.385 0v-9.547h-3.22v-3.117h10.336v3.117h-3.22v9.547zm18.194 0h-9.026v-12.664h9.026v2.997h-5.176v1.995h4.833v2.709h-4.833v1.967h5.176zm2.776 0v-12.664h2.922l4.314 6.123h.149v-6.123h3.571v12.664h-2.894l-4.342-6.235h-.148v6.235zm19.511-12.664a6.356 6.356 0 0 1 3.34.78 4.598 4.598 0 0 1 1.879 2.185 8.336 8.336 0 0 1 .598 3.289 8.56 8.56 0 0 1-.612 3.357 4.768 4.768 0 0 1-1.897 2.25 6.154 6.154 0 0 1-3.308.803h-5.501v-12.664zm-1.605 9.668h.891a3.043 3.043 0 0 0 1.183-.205 1.796 1.796 0 0 0 .784-.617 2.807 2.807 0 0 0 .436-1.034 6.687 6.687 0 0 0 .14-1.447 5.923 5.923 0 0 0-.251-1.855 2.133 2.133 0 0 0-.808-1.133 2.594 2.594 0 0 0-1.484-.38h-.89zm18.91 2.996h-9.028v-12.664h9.027v2.997h-5.177v1.995h4.833v2.709h-4.833v1.967h5.177zm11.802 0h-9.027v-12.664h9.027v2.997h-5.178v1.995h4.834v2.709h-4.834v1.967h5.178zm5.892-3.878a.985.985 0 0 0 .13.44 1.329 1.329 0 0 0 .352.4 1.783 1.783 0 0 0 .575.287 2.69 2.69 0 0 0 .798.106 2.595 2.595 0 0 0 .941-.138 1.047 1.047 0 0 0 .501-.367.854.854 0 0 0 .154-.487.736.736 0 0 0-.46-.71 5.331 5.331 0 0 0-1.312-.366l-1.531-.27a6.215 6.215 0 0 1-1.855-.62 3.255 3.255 0 0 1-1.28-1.207 3.7 3.7 0 0 1-.465-1.938 3.743 3.743 0 0 1 .659-2.232 4.098 4.098 0 0 1 1.841-1.405 7.264 7.264 0 0 1 2.76-.482 6.409 6.409 0 0 1 2.937.588 4.103 4.103 0 0 1 1.698 1.507 3.671 3.671 0 0 1 .552 1.912h-3.526a1.068 1.068 0 0 0-.185-.543 1.384 1.384 0 0 0-.538-.463 1.986 1.986 0 0 0-.928-.19 1.619 1.619 0 0 0-1.076.291.901.901 0 0 0-.334.7.698.698 0 0 0 .44.636 4.066 4.066 0 0 0 1.211.349l1.624.25a5.938 5.938 0 0 1 1.697.52 3.36 3.36 0 0 1 1.346 1.168 3.67 3.67 0 0 1 .528 2.087 4.082 4.082 0 0 1-.598 2.2 3.993 3.993 0 0 1-1.814 1.516 7.443 7.443 0 0 1-3.071.552 8.147 8.147 0 0 1-2.602-.357 4.431 4.431 0 0 1-1.666-.956 3.553 3.553 0 0 1-.89-1.322 4.165 4.165 0 0 1-.269-1.456zM33.55 54.506l3.234-10.664h4.157l3.203 10.664h-3.5l-.461-2.015h-2.914l-.477 2.015zm5.117-7.953l-.86 3.633h1.852l-.828-3.633zm8.479 7.953v-8.039h-2.711v-2.625h8.703v2.625h-2.71v8.04zm18.003-5.992l3.632 5.992h-3.796l-2.227-3.851-.742.937v2.914h-3.281V43.842h3.28v4.18h.15l3.1-4.18h3.423zm10.718 3.098a1.658 1.658 0 0 0 .41-1.254v-6.516h3.282v6.977a3.645 3.645 0 0 1-.57 2.043 3.706 3.706 0 0 1-1.63 1.347 6.898 6.898 0 0 1-5.038 0 3.704 3.704 0 0 1-1.63-1.347 3.644 3.644 0 0 1-.57-2.043v-6.977h3.282v6.516a1.654 1.654 0 0 0 .41 1.262 1.455 1.455 0 0 0 1.027.379 1.44 1.44 0 0 0 1.027-.387zm6.163-7.77h5.149a4.2 4.2 0 0 1 2.496.684 2.237 2.237 0 0 1 .957 1.933 2.306 2.306 0 0 1-.297 1.211 2.146 2.146 0 0 1-.758.762 2.505 2.505 0 0 1-.96.332v.149a2.806 2.806 0 0 1 1.1.28 2.47 2.47 0 0 1 .97.821 2.421 2.421 0 0 1 .398 1.445 2.673 2.673 0 0 1-.516 1.665 3.223 3.223 0 0 1-1.359 1.03 4.685 4.685 0 0 1-1.82.352h-5.36zm3.243 4.188h1.015a1.366 1.366 0 0 0 .672-.145.922.922 0 0 0 .38-.375 1.035 1.035 0 0 0 .12-.488.917.917 0 0 0-.308-.715 1.272 1.272 0 0 0-.88-.277h-1zm0 4.289h1.117a1.362 1.362 0 0 0 1.05-.356 1.205 1.205 0 0 0 .325-.84 1.191 1.191 0 0 0-.149-.597 1.01 1.01 0 0 0-.457-.41 1.814 1.814 0 0 0-.785-.149h-1.101zm15.423 2.187h-7.601V43.842h7.601v2.524h-4.36v1.68h4.071v2.28h-4.07v1.657h4.36zm5.272-4.828a3.926 3.926 0 0 0 .184 1.29 1.668 1.668 0 0 0 .531.792 1.33 1.33 0 0 0 .84.27 1.345 1.345 0 0 0 .813-.238 1.443 1.443 0 0 0 .492-.645 2.422 2.422 0 0 0 .164-.914h3.101v.477a3.723 3.723 0 0 1-.59 2.097 3.903 3.903 0 0 1-1.628 1.387 5.504 5.504 0 0 1-2.383.492 5.286 5.286 0 0 1-2.668-.625 4.07 4.07 0 0 1-1.652-1.754 5.88 5.88 0 0 1-.563-2.652v-.961a5.874 5.874 0 0 1 .563-2.656 4.053 4.053 0 0 1 1.652-1.746 5.313 5.313 0 0 1 2.668-.622 5.903 5.903 0 0 1 1.851.278 4.272 4.272 0 0 1 1.457.8 3.65 3.65 0 0 1 .954 1.258 3.88 3.88 0 0 1 .34 1.649v.46h-3.102a2.423 2.423 0 0 0-.164-.913 1.419 1.419 0 0 0-.492-.64 1.362 1.362 0 0 0-.813-.235 1.33 1.33 0 0 0-.84.27 1.669 1.669 0 0 0-.531.792 3.955 3.955 0 0 0-.184 1.297zm17.301 2.653a4.083 4.083 0 0 1-1.699 1.738 6.444 6.444 0 0 1-5.504 0 4.1 4.1 0 0 1-1.707-1.738 5.594 5.594 0 0 1-.582-2.614V48.67a5.672 5.672 0 0 1 .582-2.64 4.095 4.095 0 0 1 1.707-1.742 5.65 5.65 0 0 1 2.75-.618 5.586 5.586 0 0 1 2.754.625 4.131 4.131 0 0 1 1.7 1.746 5.663 5.663 0 0 1 .577 2.63v1.046a5.626 5.626 0 0 1-.578 2.614zm-2.984-4.997a1.714 1.714 0 0 0-.574-.793 1.481 1.481 0 0 0-.895-.27 1.498 1.498 0 0 0-.898.27 1.701 1.701 0 0 0-.578.793 3.579 3.579 0 0 0-.204 1.29v1.109a3.61 3.61 0 0 0 .204 1.293 1.674 1.674 0 0 0 .578.793 1.514 1.514 0 0 0 .898.266 1.496 1.496 0 0 0 .895-.266 1.687 1.687 0 0 0 .574-.793 3.613 3.613 0 0 0 .203-1.293v-1.11a3.581 3.581 0 0 0-.203-1.289zm5.705 7.172V43.842h2.461L132.084 49h.125v-5.157h3.008v10.664h-2.438l-3.656-5.25h-.125v5.25zm21.258-1.328h-2.805v-3.031h-2.906v-2.711h2.906v-3.008h2.805v3.008h2.906v2.711h-2.906zm12.096-3.5a3.926 3.926 0 0 0 .184 1.29 1.668 1.668 0 0 0 .53.792 1.33 1.33 0 0 0 .84.27 1.345 1.345 0 0 0 .813-.238 1.443 1.443 0 0 0 .492-.645 2.422 2.422 0 0 0 .164-.914h3.102v.477a3.723 3.723 0 0 1-.59 2.097 3.903 3.903 0 0 1-1.629 1.387 5.504 5.504 0 0 1-2.383.492 5.286 5.286 0 0 1-2.668-.625 4.07 4.07 0 0 1-1.652-1.754 5.88 5.88 0 0 1-.562-2.652v-.961a5.874 5.874 0 0 1 .562-2.656 4.053 4.053 0 0 1 1.652-1.746 5.313 5.313 0 0 1 2.668-.622 5.903 5.903 0 0 1 1.852.278 4.272 4.272 0 0 1 1.457.8 3.65 3.65 0 0 1 .953 1.258 3.88 3.88 0 0 1 .34 1.649v.46h-3.102a2.423 2.423 0 0 0-.164-.913 1.419 1.419 0 0 0-.492-.64 1.362 1.362 0 0 0-.812-.235 1.33 1.33 0 0 0-.84.27 1.669 1.669 0 0 0-.531.792 3.955 3.955 0 0 0-.184 1.297zm15.441 4.828h-7.195V43.842h3.281v7.977h3.914zm10.815-2.175a4.083 4.083 0 0 1-1.7 1.738 6.444 6.444 0 0 1-5.503 0 4.1 4.1 0 0 1-1.707-1.738 5.594 5.594 0 0 1-.582-2.614V48.67a5.672 5.672 0 0 1 .582-2.64 4.095 4.095 0 0 1 1.707-1.742 5.65 5.65 0 0 1 2.75-.618 5.586 5.586 0 0 1 2.754.625 4.131 4.131 0 0 1 1.699 1.746 5.663 5.663 0 0 1 .578 2.63v1.046a5.626 5.626 0 0 1-.578 2.614zm-2.984-4.997a1.714 1.714 0 0 0-.575-.793 1.481 1.481 0 0 0-.894-.27 1.498 1.498 0 0 0-.899.27 1.701 1.701 0 0 0-.578.793 3.579 3.579 0 0 0-.203 1.29v1.109a3.61 3.61 0 0 0 .203 1.293 1.674 1.674 0 0 0 .578.793 1.514 1.514 0 0 0 .899.266 1.496 1.496 0 0 0 .894-.266 1.687 1.687 0 0 0 .575-.793 3.613 3.613 0 0 0 .203-1.293v-1.11a3.581 3.581 0 0 0-.203-1.289zm11.334 4.278a1.658 1.658 0 0 0 .41-1.254v-6.516h3.282v6.977a3.645 3.645 0 0 1-.57 2.043 3.706 3.706 0 0 1-1.63 1.347 6.898 6.898 0 0 1-5.039 0 3.704 3.704 0 0 1-1.629-1.347 3.644 3.644 0 0 1-.57-2.043v-6.977h3.281v6.516a1.654 1.654 0 0 0 .41 1.262 1.455 1.455 0 0 0 1.028.379 1.44 1.44 0 0 0 1.027-.387zm10.796-7.77a5.353 5.353 0 0 1 2.812.657 3.875 3.875 0 0 1 1.582 1.84 7.029 7.029 0 0 1 .504 2.769 7.211 7.211 0 0 1-.515 2.828 4.02 4.02 0 0 1-1.598 1.895 5.184 5.184 0 0 1-2.785.675h-4.633V43.842zm-1.352 8.14h.75a2.575 2.575 0 0 0 .997-.171 1.517 1.517 0 0 0 .66-.52 2.36 2.36 0 0 0 .367-.87 5.623 5.623 0 0 0 .117-1.22 4.993 4.993 0 0 0-.21-1.562 1.797 1.797 0 0 0-.68-.953 2.18 2.18 0 0 0-1.25-.32h-.75zm8.335 2.524V43.842h2.461L217.823 49h.125v-5.157h3.008v10.664h-2.438l-3.656-5.25h-.125v5.25zm10.902 0l3.234-10.664h4.156l3.204 10.664h-3.5l-.461-2.015h-2.914l-.477 2.015zm5.117-7.953l-.86 3.633h1.852l-.828-3.633zm8.477 7.953v-8.039h-2.711v-2.625h8.703v2.625h-2.71v8.04zm7.733 0V43.842h3.281v10.664zm4.934-10.664h3.828l1.492 7.305h.149l1.445-7.305h3.586l-3.063 10.664h-4.304zm19.755 10.664h-7.602V43.842h7.602v2.524h-4.36v1.68h4.07v2.28h-4.07v1.657h4.36zm5.272-4.828a3.925 3.925 0 0 0 .184 1.29 1.668 1.668 0 0 0 .53.792 1.33 1.33 0 0 0 .84.27 1.345 1.345 0 0 0 .813-.238 1.443 1.443 0 0 0 .492-.645 2.422 2.422 0 0 0 .165-.914h3.101v.477a3.723 3.723 0 0 1-.59 2.097 3.903 3.903 0 0 1-1.629 1.387 5.504 5.504 0 0 1-2.382.492 5.286 5.286 0 0 1-2.668-.625 4.07 4.07 0 0 1-1.653-1.754 5.88 5.88 0 0 1-.562-2.652v-.961a5.874 5.874 0 0 1 .562-2.656 4.053 4.053 0 0 1 1.653-1.746 5.313 5.313 0 0 1 2.668-.622 5.903 5.903 0 0 1 1.851.278 4.272 4.272 0 0 1 1.457.8 3.65 3.65 0 0 1 .953 1.258 3.88 3.88 0 0 1 .34 1.649v.46h-3.102a2.423 2.423 0 0 0-.164-.913 1.419 1.419 0 0 0-.492-.64 1.362 1.362 0 0 0-.812-.235 1.33 1.33 0 0 0-.84.27 1.669 1.669 0 0 0-.531.792 3.954 3.954 0 0 0-.184 1.297zm17.3 2.653a4.083 4.083 0 0 1-1.698 1.738 6.444 6.444 0 0 1-5.504 0 4.1 4.1 0 0 1-1.707-1.738 5.594 5.594 0 0 1-.582-2.614V48.67a5.672 5.672 0 0 1 .582-2.64 4.095 4.095 0 0 1 1.707-1.742 5.65 5.65 0 0 1 2.75-.618 5.586 5.586 0 0 1 2.754.625 4.131 4.131 0 0 1 1.699 1.746 5.663 5.663 0 0 1 .578 2.63v1.046a5.626 5.626 0 0 1-.578 2.614zm-2.983-4.997a1.714 1.714 0 0 0-.575-.793 1.481 1.481 0 0 0-.894-.27 1.498 1.498 0 0 0-.899.27 1.701 1.701 0 0 0-.578.793 3.578 3.578 0 0 0-.203 1.29v1.109a3.61 3.61 0 0 0 .203 1.293 1.674 1.674 0 0 0 .578.793 1.514 1.514 0 0 0 .899.266 1.496 1.496 0 0 0 .894-.266 1.687 1.687 0 0 0 .575-.793 3.613 3.613 0 0 0 .203-1.293v-1.11a3.581 3.581 0 0 0-.203-1.289zm5.705 7.172V43.842h2.461L300.035 49h.125v-5.157h3.008v10.664h-2.438l-3.656-5.25h-.125v5.25zm15.375-7.109v-.195a3.487 3.487 0 0 1 .234-1.239 3.396 3.396 0 0 1 .727-1.14 3.573 3.573 0 0 1 1.27-.836 4.96 4.96 0 0 1 1.87-.317 5.434 5.434 0 0 1 2.2.41 3.47 3.47 0 0 1 1.445 1.11 2.6 2.6 0 0 1 .512 1.574 3.078 3.078 0 0 1-.325 1.457 4.639 4.639 0 0 1-.777 1.078q-.453.465-.851.864l-1.72 1.687v.125h3.821v2.531h-8.195V52.5l3.71-3.57q.274-.259.536-.54a2.934 2.934 0 0 0 .433-.598 1.395 1.395 0 0 0 .172-.675.855.855 0 0 0-.132-.457 1.081 1.081 0 0 0-.364-.356.992.992 0 0 0-.527-.14.946.946 0 0 0-.871.511 1.05 1.05 0 0 0-.121.496c0 .042 0 .084.004.125l.004.102zm10.36 1.46a6.315 6.315 0 0 1 .555-2.741 4.224 4.224 0 0 1 1.57-1.805 4.81 4.81 0 0 1 4.77-.016 4.044 4.044 0 0 1 1.53 1.79 6.597 6.597 0 0 1 .536 2.773v.601a6.743 6.743 0 0 1-.32 2.141 4.795 4.795 0 0 1-.922 1.652 4.094 4.094 0 0 1-1.43 1.063 4.48 4.48 0 0 1-1.851.371 4.273 4.273 0 0 1-2.36-.637 4.164 4.164 0 0 1-1.535-1.812 6.571 6.571 0 0 1-.543-2.778zm3.29.595a6.421 6.421 0 0 0 .14 1.449 2.16 2.16 0 0 0 .406.91.818.818 0 0 0 1.289-.004 2.197 2.197 0 0 0 .406-.914 6.38 6.38 0 0 0 .14-1.441v-.586a6.276 6.276 0 0 0-.14-1.434 2.09 2.09 0 0 0-.406-.894.842.842 0 0 0-1.297 0 2.054 2.054 0 0 0-.402.89 6.435 6.435 0 0 0-.137 1.438zm7.678-2.055v-.195a3.487 3.487 0 0 1 .234-1.239 3.396 3.396 0 0 1 .727-1.14 3.573 3.573 0 0 1 1.27-.836 4.96 4.96 0 0 1 1.87-.317 5.434 5.434 0 0 1 2.2.41 3.47 3.47 0 0 1 1.445 1.11 2.6 2.6 0 0 1 .512 1.574 3.078 3.078 0 0 1-.325 1.457 4.638 4.638 0 0 1-.777 1.078q-.453.465-.852.864l-1.718 1.687v.125h3.82v2.531h-8.195V52.5l3.71-3.57q.274-.259.536-.54a2.934 2.934 0 0 0 .433-.598 1.395 1.395 0 0 0 .172-.675.855.855 0 0 0-.133-.457 1.081 1.081 0 0 0-.363-.356.992.992 0 0 0-.527-.14.946.946 0 0 0-.871.511 1.05 1.05 0 0 0-.121.496c0 .042 0 .084.004.125q.003.063.003.102zm10.36 1.46a6.315 6.315 0 0 1 .555-2.741 4.224 4.224 0 0 1 1.57-1.805 4.81 4.81 0 0 1 4.77-.016 4.044 4.044 0 0 1 1.53 1.79 6.597 6.597 0 0 1 .536 2.773v.601a6.743 6.743 0 0 1-.32 2.141 4.795 4.795 0 0 1-.922 1.652 4.094 4.094 0 0 1-1.43 1.063 4.48 4.48 0 0 1-1.852.371 4.273 4.273 0 0 1-2.359-.637 4.164 4.164 0 0 1-1.535-1.812 6.571 6.571 0 0 1-.543-2.778zm3.289.595a6.421 6.421 0 0 0 .14 1.449 2.16 2.16 0 0 0 .407.91.818.818 0 0 0 1.289-.004 2.197 2.197 0 0 0 .406-.914 6.38 6.38 0 0 0 .14-1.441v-.586a6.276 6.276 0 0 0-.14-1.434 2.09 2.09 0 0 0-.406-.894.842.842 0 0 0-1.297 0 2.053 2.053 0 0 0-.402.89 6.435 6.435 0 0 0-.137 1.438zM123.452 315.44l-34.426-43.208-34.427 43.208m297.667-142.77H196.28V69.073h155.986zm-150.986-5h145.986V74.073H201.28zM31.387 336.033h320.88v26.767H31.387z" class="cls-7"/><path d="M41.92 354.744v-9.33h6.631v2.241h-3.76v1.71h3.398v2.16H44.79v3.22zm14.738-8.931a2.795 2.795 0 0 1 1.237 1.125 3.326 3.326 0 0 1 .417 1.688 2.726 2.726 0 0 1-.298 1.32 3.03 3.03 0 0 1-.683.874 3.084 3.084 0 0 1-.653.452l1.832 3.472h-3.151l-1.497-3.11h-.718v3.11h-2.81v-9.33h4.28a4.648 4.648 0 0 1 2.044.399zm-2.482 3.907a1.315 1.315 0 0 0 .824-.27.988.988 0 0 0 .352-.838 1.023 1.023 0 0 0-.362-.858 1.287 1.287 0 0 0-.814-.283h-1.032v2.249zm13.895 3.12a3.572 3.572 0 0 1-1.487 1.521 5.638 5.638 0 0 1-4.816 0 3.587 3.587 0 0 1-1.493-1.52 4.895 4.895 0 0 1-.51-2.287v-.916a4.963 4.963 0 0 1 .51-2.31 3.583 3.583 0 0 1 1.493-1.525 4.943 4.943 0 0 1 2.406-.54 4.888 4.888 0 0 1 2.41.547 3.615 3.615 0 0 1 1.487 1.527 4.955 4.955 0 0 1 .506 2.3v.917a4.923 4.923 0 0 1-.506 2.286zm-2.611-4.371a1.5 1.5 0 0 0-.503-.694 1.296 1.296 0 0 0-.782-.236 1.311 1.311 0 0 0-.787.236 1.488 1.488 0 0 0-.505.694 3.131 3.131 0 0 0-.178 1.128v.97a3.16 3.16 0 0 0 .178 1.132 1.465 1.465 0 0 0 .505.694 1.324 1.324 0 0 0 .787.232 1.31 1.31 0 0 0 .782-.232 1.476 1.476 0 0 0 .503-.694 3.161 3.161 0 0 0 .177-1.132v-.97a3.133 3.133 0 0 0-.177-1.128zm4.992 6.275v-9.33h3.001l1.996 4.162h.096l2.003-4.163h2.973v9.331h-2.577v-5.202h-.13l-1.586 3.432h-1.504l-1.6-3.432h-.136v5.202zm21.32-5.243l3.179 5.243h-3.322l-1.949-3.37-.649.82v2.55H86.16v-9.33h2.871v3.656h.13l2.714-3.657h2.994zm9.38 2.71a1.451 1.451 0 0 0 .358-1.097v-5.7h2.871v6.104a3.19 3.19 0 0 1-.499 1.787 3.242 3.242 0 0 1-1.425 1.18 6.036 6.036 0 0 1-4.41 0 3.241 3.241 0 0 1-1.425-1.18 3.189 3.189 0 0 1-.499-1.787v-6.105h2.871v5.701a1.448 1.448 0 0 0 .36 1.104 1.273 1.273 0 0 0 .898.332 1.26 1.26 0 0 0 .9-.339zm5.392-6.798h4.505a3.675 3.675 0 0 1 2.184.598 1.957 1.957 0 0 1 .837 1.692 2.018 2.018 0 0 1-.26 1.06 1.878 1.878 0 0 1-.663.666 2.192 2.192 0 0 1-.84.29v.13a2.455 2.455 0 0 1 .963.247 2.162 2.162 0 0 1 .848.717 2.119 2.119 0 0 1 .349 1.265 2.34 2.34 0 0 1-.451 1.456 2.82 2.82 0 0 1-1.19.903 4.1 4.1 0 0 1-1.593.307h-4.69zm2.837 3.664h.888a1.196 1.196 0 0 0 .588-.126.807.807 0 0 0 .332-.328.906.906 0 0 0 .106-.428.803.803 0 0 0-.27-.625 1.113 1.113 0 0 0-.77-.243h-.874zm0 3.753h.977a1.192 1.192 0 0 0 .92-.31 1.055 1.055 0 0 0 .283-.736 1.042 1.042 0 0 0-.13-.523.883.883 0 0 0-.4-.359 1.587 1.587 0 0 0-.686-.13h-.964zm13.495 1.914h-6.651v-9.33h6.651v2.207h-3.814v1.47h3.562v1.996h-3.562v1.45h3.814zm4.614-4.224a3.435 3.435 0 0 0 .16 1.127 1.46 1.46 0 0 0 .465.694 1.163 1.163 0 0 0 .735.236 1.177 1.177 0 0 0 .71-.208 1.263 1.263 0 0 0 .432-.564 2.119 2.119 0 0 0 .143-.8h2.714v.417a3.257 3.257 0 0 1-.516 1.835 3.415 3.415 0 0 1-1.425 1.214 4.816 4.816 0 0 1-2.085.43 4.625 4.625 0 0 1-2.335-.547 3.562 3.562 0 0 1-1.446-1.534 5.145 5.145 0 0 1-.492-2.321v-.84a5.14 5.14 0 0 1 .492-2.325 3.546 3.546 0 0 1 1.446-1.528 4.65 4.65 0 0 1 2.335-.543 5.165 5.165 0 0 1 1.62.242 3.738 3.738 0 0 1 1.275.701 3.194 3.194 0 0 1 .834 1.1 3.395 3.395 0 0 1 .297 1.443v.403h-2.714a2.12 2.12 0 0 0-.143-.8 1.242 1.242 0 0 0-.431-.56 1.192 1.192 0 0 0-.711-.205 1.163 1.163 0 0 0-.735.236 1.46 1.46 0 0 0-.465.694 3.46 3.46 0 0 0-.16 1.134zm15.138 2.32a3.572 3.572 0 0 1-1.487 1.521 5.638 5.638 0 0 1-4.816 0 3.587 3.587 0 0 1-1.494-1.52 4.895 4.895 0 0 1-.509-2.287v-.916a4.963 4.963 0 0 1 .51-2.31 3.583 3.583 0 0 1 1.493-1.525 4.943 4.943 0 0 1 2.406-.54 4.888 4.888 0 0 1 2.41.547 3.615 3.615 0 0 1 1.487 1.527 4.955 4.955 0 0 1 .506 2.3v.917a4.923 4.923 0 0 1-.506 2.286zm-2.612-4.371a1.5 1.5 0 0 0-.502-.694 1.296 1.296 0 0 0-.783-.236 1.311 1.311 0 0 0-.786.236 1.488 1.488 0 0 0-.506.694 3.131 3.131 0 0 0-.177 1.128v.97a3.159 3.159 0 0 0 .177 1.132 1.465 1.465 0 0 0 .506.694 1.324 1.324 0 0 0 .786.232 1.31 1.31 0 0 0 .783-.232 1.476 1.476 0 0 0 .502-.694 3.161 3.161 0 0 0 .178-1.132v-.97a3.133 3.133 0 0 0-.178-1.128zm4.993 6.275v-9.33h2.153l3.179 4.51h.11v-4.51h2.631v9.33h-2.133l-3.199-4.594h-.11v4.594zm18.6-1.162h-2.454v-2.652h-2.543v-2.372h2.543v-2.632h2.454v2.632h2.543v2.372h-2.543zm10.584-3.062a3.435 3.435 0 0 0 .16 1.127 1.46 1.46 0 0 0 .466.694 1.163 1.163 0 0 0 .734.236 1.177 1.177 0 0 0 .711-.208 1.263 1.263 0 0 0 .431-.564 2.119 2.119 0 0 0 .144-.8h2.714v.417a3.257 3.257 0 0 1-.517 1.835 3.415 3.415 0 0 1-1.425 1.214 4.816 4.816 0 0 1-2.085.43 4.625 4.625 0 0 1-2.334-.547 3.562 3.562 0 0 1-1.446-1.534 5.145 5.145 0 0 1-.492-2.321v-.84a5.14 5.14 0 0 1 .492-2.325 3.546 3.546 0 0 1 1.446-1.528 4.65 4.65 0 0 1 2.334-.543 5.165 5.165 0 0 1 1.62.242 3.738 3.738 0 0 1 1.275.701 3.194 3.194 0 0 1 .834 1.1 3.395 3.395 0 0 1 .297 1.443v.403h-2.713a2.12 2.12 0 0 0-.144-.8 1.241 1.241 0 0 0-.43-.56 1.192 1.192 0 0 0-.712-.205 1.163 1.163 0 0 0-.734.236 1.46 1.46 0 0 0-.465.694 3.46 3.46 0 0 0-.16 1.134zm13.511 4.224h-6.296v-9.33h2.872v6.979h3.424zm9.462-1.904a3.572 3.572 0 0 1-1.487 1.521 5.638 5.638 0 0 1-4.816 0 3.587 3.587 0 0 1-1.494-1.52 4.895 4.895 0 0 1-.509-2.287v-.916a4.963 4.963 0 0 1 .51-2.31 3.583 3.583 0 0 1 1.493-1.525 4.943 4.943 0 0 1 2.406-.54 4.888 4.888 0 0 1 2.41.547 3.615 3.615 0 0 1 1.487 1.527 4.955 4.955 0 0 1 .506 2.3v.917a4.923 4.923 0 0 1-.506 2.286zm-2.612-4.371a1.5 1.5 0 0 0-.502-.694 1.296 1.296 0 0 0-.783-.236 1.311 1.311 0 0 0-.786.236 1.488 1.488 0 0 0-.506.694 3.131 3.131 0 0 0-.177 1.128v.97a3.16 3.16 0 0 0 .177 1.132 1.465 1.465 0 0 0 .506.694 1.324 1.324 0 0 0 .786.232 1.31 1.31 0 0 0 .783-.232 1.476 1.476 0 0 0 .502-.694 3.161 3.161 0 0 0 .178-1.132v-.97a3.133 3.133 0 0 0-.178-1.128zm9.918 3.742a1.451 1.451 0 0 0 .359-1.097v-5.7h2.871v6.104a3.19 3.19 0 0 1-.499 1.787 3.242 3.242 0 0 1-1.425 1.18 6.036 6.036 0 0 1-4.41 0 3.241 3.241 0 0 1-1.425-1.18 3.189 3.189 0 0 1-.499-1.787v-6.105h2.871v5.701a1.448 1.448 0 0 0 .36 1.104 1.274 1.274 0 0 0 .898.332 1.26 1.26 0 0 0 .9-.339zm9.446-6.798a4.684 4.684 0 0 1 2.461.574 3.391 3.391 0 0 1 1.385 1.61 6.15 6.15 0 0 1 .44 2.424 6.31 6.31 0 0 1-.45 2.474 3.517 3.517 0 0 1-1.399 1.658 4.536 4.536 0 0 1-2.437.591h-4.053v-9.33zm-1.182 7.123h.656a2.253 2.253 0 0 0 .872-.15 1.327 1.327 0 0 0 .577-.455 2.064 2.064 0 0 0 .322-.762 4.92 4.92 0 0 0 .102-1.066 4.369 4.369 0 0 0-.184-1.368 1.572 1.572 0 0 0-.595-.834 1.908 1.908 0 0 0-1.094-.28h-.656zm7.293 2.208v-9.331h2.153l3.179 4.512h.11v-4.512h2.631v9.331h-2.133l-3.199-4.594h-.11v4.594zm9.539 0l2.83-9.331h3.636l2.803 9.331h-3.062l-.404-1.764h-2.55l-.416 1.764zm4.477-6.959l-.752 3.179h1.62l-.724-3.179zm7.418 6.96v-7.035h-2.372v-2.297h7.615v2.297h-2.372v7.034zm6.766 0v-9.332h2.87v9.331zm4.317-9.332h3.35l1.305 6.392h.13l1.265-6.392h3.138l-2.68 9.331h-3.767zm17.286 9.331h-6.652v-9.331h6.652v2.208h-3.815v1.47h3.562v1.996h-3.562v1.45h3.815zm4.613-4.225a3.435 3.435 0 0 0 .16 1.128 1.46 1.46 0 0 0 .465.694 1.163 1.163 0 0 0 .735.236 1.177 1.177 0 0 0 .711-.208 1.263 1.263 0 0 0 .43-.564 2.119 2.119 0 0 0 .144-.8h2.714v.417a3.257 3.257 0 0 1-.516 1.835 3.415 3.415 0 0 1-1.425 1.214 4.816 4.816 0 0 1-2.085.43 4.625 4.625 0 0 1-2.335-.547 3.562 3.562 0 0 1-1.445-1.534 5.145 5.145 0 0 1-.493-2.321v-.84a5.14 5.14 0 0 1 .493-2.325 3.546 3.546 0 0 1 1.445-1.528 4.65 4.65 0 0 1 2.335-.543 5.165 5.165 0 0 1 1.62.242 3.738 3.738 0 0 1 1.275.701 3.194 3.194 0 0 1 .834 1.1 3.395 3.395 0 0 1 .297 1.443v.403h-2.714a2.12 2.12 0 0 0-.143-.8 1.242 1.242 0 0 0-.43-.56 1.192 1.192 0 0 0-.712-.205 1.163 1.163 0 0 0-.735.236 1.46 1.46 0 0 0-.464.694 3.46 3.46 0 0 0-.161 1.134zm15.138 2.321a3.572 3.572 0 0 1-1.487 1.521 5.638 5.638 0 0 1-4.816 0 3.587 3.587 0 0 1-1.493-1.52 4.895 4.895 0 0 1-.51-2.287v-.916a4.963 4.963 0 0 1 .51-2.31 3.583 3.583 0 0 1 1.493-1.525 4.943 4.943 0 0 1 2.407-.54 4.888 4.888 0 0 1 2.41.547 3.615 3.615 0 0 1 1.486 1.527 4.955 4.955 0 0 1 .506 2.3v.917a4.923 4.923 0 0 1-.506 2.286zm-2.611-4.371a1.5 1.5 0 0 0-.503-.694 1.296 1.296 0 0 0-.782-.236 1.311 1.311 0 0 0-.786.236 1.488 1.488 0 0 0-.506.694 3.131 3.131 0 0 0-.178 1.128v.97a3.159 3.159 0 0 0 .178 1.132 1.465 1.465 0 0 0 .506.694 1.324 1.324 0 0 0 .786.232 1.31 1.31 0 0 0 .782-.232 1.476 1.476 0 0 0 .503-.694 3.161 3.161 0 0 0 .178-1.132v-.97a3.133 3.133 0 0 0-.178-1.128zm4.992 6.275v-9.33h2.153l3.18 4.51h.109v-4.51h2.631v9.33h-2.132l-3.2-4.594h-.109v4.594zm13.453-6.22v-.171a3.051 3.051 0 0 1 .205-1.084 2.97 2.97 0 0 1 .636-.998 3.127 3.127 0 0 1 1.11-.731 4.34 4.34 0 0 1 1.638-.277 4.754 4.754 0 0 1 1.924.359 3.036 3.036 0 0 1 1.265.97 2.276 2.276 0 0 1 .448 1.378 2.693 2.693 0 0 1-.284 1.275 4.058 4.058 0 0 1-.68.943q-.397.407-.745.755l-1.504 1.477v.11h3.343v2.214h-7.171v-1.757l3.247-3.124q.239-.225.468-.471a2.566 2.566 0 0 0 .38-.523 1.22 1.22 0 0 0 .15-.592.748.748 0 0 0-.116-.4.946.946 0 0 0-.318-.31.868.868 0 0 0-.462-.124.828.828 0 0 0-.762.448.919.919 0 0 0-.106.434c0 .037.001.073.003.11q.004.054.004.088zm9.065 1.278a5.525 5.525 0 0 1 .486-2.4 3.696 3.696 0 0 1 1.374-1.579 4.209 4.209 0 0 1 4.173-.013 3.538 3.538 0 0 1 1.34 1.565 5.772 5.772 0 0 1 .468 2.427v.526a5.9 5.9 0 0 1-.28 1.873 4.195 4.195 0 0 1-.807 1.446 3.582 3.582 0 0 1-1.251.93 3.92 3.92 0 0 1-1.62.324 3.739 3.739 0 0 1-2.065-.557 3.644 3.644 0 0 1-1.343-1.586 5.75 5.75 0 0 1-.475-2.43zm2.878.52a5.619 5.619 0 0 0 .123 1.267 1.89 1.89 0 0 0 .356.797.716.716 0 0 0 1.128-.004 1.922 1.922 0 0 0 .355-.8 5.583 5.583 0 0 0 .123-1.26v-.513a5.491 5.491 0 0 0-.123-1.255 1.829 1.829 0 0 0-.355-.783.737.737 0 0 0-1.135 0 1.797 1.797 0 0 0-.352.78 5.631 5.631 0 0 0-.12 1.258zm8.865 4.422v-6.815h-.136l-.687.468q-.346.236-.687.472l-.684.468v-2.434q.547-.376 1.097-.745.55-.369 1.097-.745h2.844v9.331zm8.133-2.536a.567.567 0 0 0 .174.29 1.009 1.009 0 0 0 .355.212 1.334 1.334 0 0 0 .462.079 1.162 1.162 0 0 0 .629-.17 1.432 1.432 0 0 0 .461-.48 2.243 2.243 0 0 0 .274-.72 3.713 3.713 0 0 0 .065-.906h-.158a1.317 1.317 0 0 1-.359.502 1.98 1.98 0 0 1-.68.393 2.88 2.88 0 0 1-.977.15 3.48 3.48 0 0 1-1.44-.314 2.785 2.785 0 0 1-1.158-.97 2.873 2.873 0 0 1-.458-1.682 3.151 3.151 0 0 1 .492-1.778 3.217 3.217 0 0 1 1.354-1.148 4.592 4.592 0 0 1 1.969-.403 4.655 4.655 0 0 1 1.644.28 3.37 3.37 0 0 1 1.295.865 3.983 3.983 0 0 1 .848 1.49 6.873 6.873 0 0 1 .3 2.157 6.44 6.44 0 0 1-.485 2.645 3.568 3.568 0 0 1-1.408 1.64 4.228 4.228 0 0 1-2.236.561 4.567 4.567 0 0 1-1.592-.25 3.28 3.28 0 0 1-1.104-.652 2.766 2.766 0 0 1-.65-.875 2.478 2.478 0 0 1-.236-.916zm1.941-4.334a.963.963 0 0 0-.372-.397 1.114 1.114 0 0 0-.578-.143 1.141 1.141 0 0 0-.574.14.95.95 0 0 0-.38.397 1.28 1.28 0 0 0-.133.598 1.263 1.263 0 0 0 .133.591 1.002 1.002 0 0 0 .376.403 1.209 1.209 0 0 0 1.156 0 .974.974 0 0 0 .372-.406 1.313 1.313 0 0 0 .13-.595 1.271 1.271 0 0 0-.13-.588zM59.891 160.98a4.08 4.08 0 0 1-1.7 1.739 6.444 6.444 0 0 1-5.503 0 4.093 4.093 0 0 1-1.707-1.739 5.591 5.591 0 0 1-.582-2.613v-1.047a5.672 5.672 0 0 1 .582-2.64 4.097 4.097 0 0 1 1.707-1.743 5.652 5.652 0 0 1 2.75-.617 5.593 5.593 0 0 1 2.753.625 4.137 4.137 0 0 1 1.7 1.746 5.667 5.667 0 0 1 .578 2.63v1.046a5.626 5.626 0 0 1-.578 2.613zm-2.985-4.996a1.719 1.719 0 0 0-.574-.793 1.482 1.482 0 0 0-.894-.27 1.498 1.498 0 0 0-.899.27 1.701 1.701 0 0 0-.578.793 3.578 3.578 0 0 0-.203 1.29v1.109a3.604 3.604 0 0 0 .203 1.293 1.672 1.672 0 0 0 .578.793 1.51 1.51 0 0 0 .899.265 1.493 1.493 0 0 0 .894-.265 1.689 1.689 0 0 0 .574-.793 3.615 3.615 0 0 0 .203-1.293v-1.11a3.588 3.588 0 0 0-.203-1.289zm5.697 7.172v-10.664h7.578v2.563h-4.297v1.953h3.883v2.469h-3.883v3.68zm12.55 0l3.234-10.664h4.156l3.203 10.664h-3.5l-.46-2.015H78.87l-.476 2.015zm5.117-7.953l-.86 3.633h1.852l-.828-3.633zm8.48 7.953v-8.039h-2.71v-2.625h8.703v2.625h-2.711v8.04zm9.588 0v-8.039h-2.711v-2.625h8.703v2.625h-2.71v8.04zm15.321 0h-7.601v-10.664h7.601v2.524h-4.36v1.68h4.071v2.28h-4.07v1.657h4.36zm2.337 0v-10.664h2.461l3.633 5.156h.125v-5.156h3.008v10.664h-2.438l-3.656-5.25h-.125v5.25zm16.431-10.664a5.353 5.353 0 0 1 2.813.656 3.875 3.875 0 0 1 1.582 1.84 7.031 7.031 0 0 1 .504 2.77 7.21 7.21 0 0 1-.516 2.828 4.019 4.019 0 0 1-1.598 1.894 5.18 5.18 0 0 1-2.785.676h-4.633v-10.664zm-1.351 8.14h.75a2.564 2.564 0 0 0 .996-.171 1.512 1.512 0 0 0 .66-.52 2.355 2.355 0 0 0 .367-.87 5.62 5.62 0 0 0 .117-1.22 4.995 4.995 0 0 0-.21-1.562 1.798 1.798 0 0 0-.68-.953 2.185 2.185 0 0 0-1.25-.32h-.75zm15.923 2.524h-7.602v-10.664h7.602v2.524h-4.36v1.68h4.07v2.28h-4.07v1.657H147zm9.939 0h-7.602v-10.664h7.601v2.524h-4.359v1.68h4.07v2.28h-4.07v1.657h4.36zm4.961-3.265a.826.826 0 0 0 .11.37 1.1 1.1 0 0 0 .297.337 1.496 1.496 0 0 0 .484.242 2.245 2.245 0 0 0 .672.09 2.187 2.187 0 0 0 .793-.117.883.883 0 0 0 .422-.31.718.718 0 0 0 .129-.41.62.62 0 0 0-.387-.597 4.505 4.505 0 0 0-1.105-.308l-1.29-.227a5.225 5.225 0 0 1-1.562-.523 2.729 2.729 0 0 1-1.078-1.016 3.115 3.115 0 0 1-.39-1.633 3.148 3.148 0 0 1 .554-1.879 3.456 3.456 0 0 1 1.55-1.183 6.13 6.13 0 0 1 2.325-.407 5.407 5.407 0 0 1 2.473.496 3.452 3.452 0 0 1 1.43 1.27 3.086 3.086 0 0 1 .464 1.61h-2.969a.908.908 0 0 0-.156-.458 1.177 1.177 0 0 0-.453-.39 1.678 1.678 0 0 0-.781-.16 1.36 1.36 0 0 0-.907.246.76.76 0 0 0-.28.59.587.587 0 0 0 .37.535 3.404 3.404 0 0 0 1.02.293l1.367.21a5.005 5.005 0 0 1 1.43.438 2.823 2.823 0 0 1 1.133.984 3.084 3.084 0 0 1 .445 1.758 3.437 3.437 0 0 1-.504 1.852 3.37 3.37 0 0 1-1.527 1.277 6.274 6.274 0 0 1-2.586.465 6.855 6.855 0 0 1-2.192-.3 3.724 3.724 0 0 1-1.402-.805 2.984 2.984 0 0 1-.75-1.114 3.487 3.487 0 0 1-.227-1.226z" class="cls-6"/><path d="M31.387 469.392h320.88v32.567H31.387z" class="cls-7"/><g clip-path="url(#clip-path-8)"><path d="M330.253 481.397h.955v9.998h-.955z" class="cls-140"/><path d="M331.208 481.397h2.278v9.998h-2.278z" class="cls-141"/><path d="M333.486 481.397h2.278v9.998h-2.278z" class="cls-142"/><path d="M335.764 481.397h2.278v9.998h-2.278z" class="cls-143"/><path d="M338.042 481.397h1.996v9.998h-1.996z" class="cls-144"/><path d="M321.314 481.397h.782v9.998h-.782z" class="cls-136"/><path d="M322.096 481.397h2.278v9.998h-2.278z" class="cls-137"/><path d="M324.374 481.397h2.278v9.998h-2.278z" class="cls-138"/><path d="M326.652 481.397h2.278v9.998h-2.278z" class="cls-139"/><path d="M328.93 481.397h.543v9.998h-.543z" class="cls-140"/><path d="M316.825 481.397h.715v9.998h-.715z" class="cls-134"/><path d="M317.54 481.397h2.278v9.998h-2.278z" class="cls-135"/><path d="M319.818 481.397h.083v9.998h-.083z" class="cls-136"/><path d="M305.98 481.397h.17v9.998h-.17z" class="cls-129"/><path d="M306.149 481.397h2.278v9.998h-2.278z" class="cls-130"/><path d="M308.428 481.397h2.278v9.998h-2.278z" class="cls-131"/><path d="M310.706 481.397h2.278v9.998h-2.278z" class="cls-132"/><path d="M312.984 481.397h1.646v9.998h-1.646z" class="cls-133"/><path d="M295.04 481.397h1.997v10.166h-1.997z" class="cls-125"/><path d="M297.037 481.397h2.278v10.166h-2.278z" class="cls-126"/><path d="M299.315 481.397h2.278v10.166h-2.278z" class="cls-127"/><path d="M301.593 481.397h2.278v10.166h-2.278z" class="cls-128"/><path d="M303.871 481.397h.016v10.166h-.016z" class="cls-129"/><path d="M282.16 481.397h1.209v9.998h-1.209z" class="cls-119"/><path d="M283.369 481.397h2.278v9.998h-2.278z" class="cls-120"/><path d="M285.647 481.397h2.278v9.998h-2.278z" class="cls-121"/><path d="M287.925 481.397h2.278v9.998h-2.278z" class="cls-122"/><path d="M290.203 481.397h2.278v9.998h-2.278z" class="cls-123"/><path d="M292.481 481.397h.467v9.998h-.467z" class="cls-124"/><path d="M269.17 481.397h.531v9.998h-.531z" class="cls-113"/><path d="M269.701 481.397h2.278v9.998h-2.278z" class="cls-114"/><path d="M271.979 481.397h2.278v9.998h-2.278z" class="cls-115"/><path d="M274.257 481.397h2.278v9.998h-2.278z" class="cls-116"/><path d="M276.535 481.397h2.278v9.998h-2.278z" class="cls-117"/><path d="M278.813 481.397h1.146v9.998h-1.146z" class="cls-118"/><path d="M261.094 483.674h1.772v5.449h-1.772z" class="cls-110"/><path d="M262.866 483.674h1.37v5.449h-1.37z" class="cls-111"/><path d="M257.945 481.235h.366v10.327h-.366z" class="cls-108"/><path d="M258.31 481.235h2.278v10.327h-2.278z" class="cls-109"/><path d="M260.588 481.235h2.278v10.327h-2.278z" class="cls-110"/><path d="M262.866 481.235h2.278v10.327h-2.278z" class="cls-111"/><path d="M265.144 481.235h2.241v10.327h-2.241z" class="cls-112"/><path d="M247.7 481.235h1.499v10.327H247.7z" class="cls-104"/><path d="M249.198 481.235h2.278v10.327h-2.278z" class="cls-105"/><path d="M251.476 481.235h2.278v10.327h-2.278z" class="cls-106"/><path d="M253.754 481.235h2.278v10.327h-2.278z" class="cls-107"/><path d="M256.032 481.235h.559v10.327h-.559z" class="cls-108"/><path d="M237.44 483.601h.368v2.41h-.368z" class="cls-99"/><path d="M237.808 483.601h1.998v2.41h-1.998z" class="cls-100"/><path d="M234.43 481.397h1.1v9.998h-1.1z" class="cls-98"/><path d="M235.53 481.397h2.278v9.998h-2.278z" class="cls-99"/><path d="M237.808 481.397h2.278v9.998h-2.278z" class="cls-100"/><path d="M240.086 481.397h2.278v9.998h-2.278z" class="cls-101"/><path d="M242.364 481.397h.826v9.998h-.826z" class="cls-102"/><path d="M225.325 481.397h1.093v9.998h-1.093z" class="cls-94"/><path d="M226.418 481.397h2.278v9.998h-2.278z" class="cls-95"/><path d="M228.696 481.397h2.278v9.998h-2.278z" class="cls-96"/><path d="M230.974 481.397h1.478v9.998h-1.478z" class="cls-97"/><path d="M214.955 481.235h.072v10.327h-.072z" class="cls-89"/><path d="M215.027 481.235h2.278v10.327h-2.278z" class="cls-90"/><path d="M217.305 481.235h2.278v10.327h-2.278z" class="cls-91"/><path d="M219.583 481.235h2.278v10.327h-2.278z" class="cls-92"/><path d="M221.861 481.235h1.707v10.327h-1.707z" class="cls-93"/><path d="M204.44 481.397h1.475v10.166h-1.475z" class="cls-85"/><path d="M205.915 481.397h2.278v10.166h-2.278z" class="cls-86"/><path d="M208.193 481.397h2.278v10.166h-2.278z" class="cls-87"/><path d="M210.471 481.397h2.278v10.166h-2.278z" class="cls-88"/><path d="M212.749 481.397h.538v10.166h-.538z" class="cls-89"/><path d="M193.571 483.762h.954v5.266h-.954z" class="cls-80"/><path d="M194.525 483.762h1.756v5.266h-1.756z" class="cls-81"/><path d="M190.495 481.397h1.752v9.998h-1.752z" class="cls-79"/><path d="M192.247 481.397h2.278v9.998h-2.278z" class="cls-80"/><path d="M194.525 481.397h2.278v9.998h-2.278z" class="cls-81"/><path d="M196.803 481.397h2.278v9.998h-2.278z" class="cls-82"/><path d="M199.081 481.397h.349v9.998h-.349z" class="cls-83"/><path d="M179.65 481.397h1.207v9.998h-1.207z" class="cls-74"/><path d="M180.856 481.397h2.278v9.998h-2.278z" class="cls-75"/><path d="M183.134 481.397h2.278v9.998h-2.278z" class="cls-76"/><path d="M185.413 481.397h2.278v9.998h-2.278z" class="cls-77"/><path d="M187.691 481.397h.609v9.998h-.609z" class="cls-78"/><path d="M170.545 481.397h1.2v9.998h-1.2z" class="cls-70"/><path d="M171.744 481.397h2.278v9.998h-2.278z" class="cls-71"/><path d="M174.022 481.397h2.278v9.998h-2.278z" class="cls-72"/><path d="M176.3 481.397h1.371v9.998H176.3z" class="cls-73"/><path d="M158.049 481.397h.026v9.998h-.026z" class="cls-64"/><path d="M158.076 481.397h2.278v9.998h-2.278z" class="cls-65"/><path d="M160.354 481.397h2.278v9.998h-2.278z" class="cls-66"/><path d="M162.632 481.397h2.278v9.998h-2.278z" class="cls-67"/><path d="M164.91 481.397h.266v9.998h-.266z" class="cls-68"/><path d="M146.799 481.397h2.164v9.998h-2.164z" class="cls-60"/><path d="M148.964 481.397h2.278v9.998h-2.278z" class="cls-61"/><path d="M151.242 481.397h2.278v9.998h-2.278z" class="cls-62"/><path d="M153.52 481.397h2.278v9.998h-2.278z" class="cls-63"/><path d="M155.798 481.397h.047v9.998h-.047z" class="cls-64"/><path d="M137.233 481.397h.34v9.998h-.34z" class="cls-55"/><path d="M137.573 481.397h2.278v9.998h-2.278z" class="cls-56"/><path d="M139.851 481.397h2.278v9.998h-2.278z" class="cls-57"/><path d="M142.129 481.397h2.278v9.998h-2.278z" class="cls-58"/><path d="M144.408 481.397h.985v9.998h-.985z" class="cls-59"/><path d="M121.644 481.397h2.261v9.998h-2.261z" class="cls-49"/><path d="M123.905 481.397h2.278v9.998h-2.278z" class="cls-50"/><path d="M126.183 481.397h2.278v9.998h-2.278z" class="cls-51"/><path d="M128.461 481.397h2.278v9.998h-2.278z" class="cls-52"/><path d="M130.739 481.397h1.694v9.998h-1.694z" class="cls-53"/><path d="M113.569 483.674h1.224v5.449h-1.224z" class="cls-45"/><path d="M114.793 483.674h1.918v5.449h-1.918z" class="cls-46"/><path d="M110.419 481.235h2.096v10.327h-2.096z" class="cls-44"/><path d="M112.515 481.235h2.278v10.327h-2.278z" class="cls-45"/><path d="M114.793 481.235h2.278v10.327h-2.278z" class="cls-46"/><path d="M117.071 481.235h2.278v10.327h-2.278z" class="cls-47"/><path d="M119.349 481.235h.511v10.327h-.511z" class="cls-48"/><path d="M103.55 483.601h2.131v2.41h-2.131z" class="cls-41"/><path d="M105.681 483.601h.235v2.41h-.235z" class="cls-42"/><path d="M100.539 481.397h.585v9.998h-.585z" class="cls-39"/><path d="M101.124 481.397h2.278v9.998h-2.278z" class="cls-40"/><path d="M103.403 481.397h2.278v9.998h-2.278z" class="cls-41"/><path d="M105.681 481.397h2.278v9.998h-2.278z" class="cls-42"/><path d="M107.959 481.397h1.341v9.998h-1.341z" class="cls-43"/><path d="M91.749 481.397h.263v9.998h-.263z" class="cls-35"/><path d="M92.012 481.397h2.278v9.998h-2.278z" class="cls-36"/><path d="M94.29 481.397h2.278v9.998H94.29z" class="cls-37"/><path d="M96.568 481.397h2.278v9.998h-2.278z" class="cls-38"/><path d="M98.846 481.397h.007v9.998h-.007z" class="cls-39"/><path d="M79.254 481.397h1.368v9.998h-1.368z" class="cls-30"/><path d="M80.622 481.397H82.9v9.998h-2.278z" class="cls-31"/><path d="M82.9 481.397h2.278v9.998H82.9z" class="cls-32"/><path d="M85.178 481.397h1.203v9.998h-1.203z" class="cls-33"/><path d="M66.264 481.397h.689v9.998h-.689z" class="cls-24"/><path d="M66.954 481.397h2.278v9.998h-2.278z" class="cls-25"/><path d="M69.232 481.397h2.278v9.998h-2.278z" class="cls-26"/><path d="M71.51 481.397h2.278v9.998H71.51z" class="cls-27"/><path d="M73.788 481.397h2.278v9.998h-2.278z" class="cls-28"/><path d="M76.066 481.397h.987v9.998h-.987z" class="cls-29"/><path d="M58.974 483.938h1.146v3.406h-1.146z" class="cls-21"/><path d="M60.119 483.938h.59v3.406h-.59z" class="cls-22"/><path d="M54.982 481.397h.581v9.998h-.581z" class="cls-19"/><path d="M55.563 481.397h2.278v9.998h-2.278z" class="cls-20"/><path d="M57.841 481.397h2.278v9.998h-2.278z" class="cls-21"/><path d="M60.119 481.397h2.278v9.998h-2.278z" class="cls-22"/><path d="M62.398 481.397h2.278v9.998h-2.278z" class="cls-23"/><path d="M64.676 481.397h.238v9.998h-.238z" class="cls-24"/><path d="M45.177 481.235h1.275v10.327h-1.275z" class="cls-15"/><path d="M46.451 481.235h2.278v10.327h-2.278z" class="cls-16"/><path d="M48.729 481.235h2.278v10.327h-2.278z" class="cls-17"/><path d="M51.007 481.235h2.278v10.327h-2.278z" class="cls-18"/><path d="M53.285 481.235h.783v10.327h-.783z" class="cls-19"/></g></g></svg>