<svg xmlns="http://www.w3.org/2000/svg" viewBox="1.78 -1.22 271.44 160.69"><defs><clipPath id="clip-path"><path d="M-3.395-8h280.284v173.444H-3.395z" class="cls-1"/></clipPath><clipPath id="clip-path-2"><path d="M48.714 31.736h219.509v109.093H48.714z" class="cls-1"/></clipPath><clipPath id="clip-path-3"><path d="M-3.395-7.999h280.283v173.443H-3.395z" class="cls-1"/></clipPath><style>.cls-1,.cls-11,.cls-7{fill:none}.cls-3{fill:#fff}.cls-7{stroke-miterlimit:10;stroke:#000;stroke-width:.864px;opacity:0}.cls-8{fill:#515ea1}.cls-11{stroke-linecap:round;stroke-linejoin:round;stroke-width:1.296px;stroke:#515ea1}</style></defs><g clip-path="url(#clip-path)"><path d="M-3.395-7.932h280.283v173.309H-3.395z" class="cls-3"/><path fill="none" stroke="#333" stroke-miterlimit="10" stroke-width=".432" d="M48.691 140.852h219.555"/><path fill="none" stroke="#ccc" stroke-miterlimit="10" stroke-width=".432" d="M48.691 113.758h219.555M48.691 86.196h219.555M48.691 59.102h219.555M48.691 31.541h219.555"/><g clip-path="url(#clip-path-2)"><path d="M90.032 140.618H63.406v-9.81a.934.934 0 0 1 .934-.934h24.758a.934.934 0 0 1 .934.934z" class="cls-7"/><path d="M90.032 140.618H63.406v-9.81a.934.934 0 0 1 .934-.934h24.758a.934.934 0 0 1 .934.934z" class="cls-8"/><path d="M131.14 140.618h-26.626v-26.16a.934.934 0 0 1 .934-.934h24.759a.934.934 0 0 1 .934.934z" class="cls-7"/><path d="M131.14 140.618h-26.626v-26.16a.934.934 0 0 1 .934-.934h24.759a.934.934 0 0 1 .934.934z" class="cls-8"/><path d="M172.249 140.618h-26.627V92.503a.934.934 0 0 1 .935-.934h24.758a.934.934 0 0 1 .934.934z" class="cls-7"/><path d="M172.249 140.618h-26.627V92.503a.934.934 0 0 1 .935-.934h24.758a.934.934 0 0 1 .934.934z" class="cls-8"/><path d="M212.89 140.618h-26.626v-34.101a.934.934 0 0 1 .934-.934h24.758a.934.934 0 0 1 .934.934z" class="cls-7"/><path d="M212.89 140.618h-26.626v-34.101a.934.934 0 0 1 .934-.934h24.758a.934.934 0 0 1 .934.934z" class="cls-8"/><path d="M253.998 140.618h-26.626V46.256a.934.934 0 0 1 .934-.934h24.758a.934.934 0 0 1 .934.934z" class="cls-7"/><path d="M253.998 140.618h-26.626V46.256a.934.934 0 0 1 .934-.934h24.758a.934.934 0 0 1 .934.934z" class="cls-8"/></g><path fill="none" stroke="#fff" stroke-linecap="round" stroke-linejoin="round" stroke-width="1.296" d="M75.23 117.168h1.861v-2.935l-.095.168zm2.62 0h.833v.62h-.833v1.386h-.759v-1.386H74.37v-.445l2.678-4.146h.803z"/><path d="M75.23 117.168h1.861v-2.935l-.095.168zm2.62 0h.833v.62h-.833v1.386h-.759v-1.386H74.37v-.445l2.678-4.146h.803z" class="cls-8"/><g clip-path="url(#clip-path-3)"><path d="M121.082 121.269a2.706 2.706 0 0 0-.277-1.401 1.042 1.042 0 0 0-1.708 0 2.718 2.718 0 0 0-.27 1.343v1.218a2.851 2.851 0 0 0 .278 1.43.938.938 0 0 0 .854.46.911.911 0 0 0 .831-.43 2.714 2.714 0 0 0 .292-1.372zm.76 1.043a3.434 3.434 0 0 1-.46 1.978 1.612 1.612 0 0 1-1.423.65 1.633 1.633 0 0 1-1.417-.635 3.286 3.286 0 0 1-.474-1.89V121.4a3.396 3.396 0 0 1 .453-1.956 1.92 1.92 0 0 1 2.847-.022 3.25 3.25 0 0 1 .474 1.905zm-5.927 2.548h-.767v-5.066l-1.525.562v-.686l2.175-.818h.117z" class="cls-11"/><path d="M121.082 121.269a2.706 2.706 0 0 0-.277-1.401 1.042 1.042 0 0 0-1.708 0 2.718 2.718 0 0 0-.27 1.343v1.218a2.851 2.851 0 0 0 .278 1.43.938.938 0 0 0 .854.46.911.911 0 0 0 .831-.43 2.714 2.714 0 0 0 .292-1.372zm.76 1.043a3.434 3.434 0 0 1-.46 1.978 1.612 1.612 0 0 1-1.423.65 1.633 1.633 0 0 1-1.417-.635 3.286 3.286 0 0 1-.474-1.89V121.4a3.396 3.396 0 0 1 .453-1.956 1.92 1.92 0 0 1 2.847-.022 3.25 3.25 0 0 1 .474 1.905zm-5.927 2.548h-.767v-5.066l-1.525.562v-.686l2.175-.818h.117z" class="cls-3"/><path d="M161.06 97.604a.977.977 0 0 0-.723.277 1.017 1.017 0 0 0-.278.752 1.038 1.038 0 0 0 .27.744.987.987 0 0 0 .73.278.97.97 0 0 0 .73-.278 1.115 1.115 0 0 0-.007-1.481.965.965 0 0 0-.723-.292zm1.146 3.81a1.09 1.09 0 0 0-.322-.817 1.236 1.236 0 0 0-1.656-.008 1.13 1.13 0 0 0-.307.825 1.057 1.057 0 0 0 .3.795 1.167 1.167 0 0 0 .838.292 1.15 1.15 0 0 0 .84-.292 1.046 1.046 0 0 0 .307-.795zm.62-2.788a1.37 1.37 0 0 1-.24.795 1.591 1.591 0 0 1-.636.547 1.659 1.659 0 0 1 .737.584 1.462 1.462 0 0 1 .278.876 1.558 1.558 0 0 1-.526 1.234 2.3 2.3 0 0 1-2.76 0 1.57 1.57 0 0 1-.517-1.234 1.508 1.508 0 0 1 .263-.868 1.692 1.692 0 0 1 .737-.6 1.579 1.579 0 0 1-.636-.546 1.426 1.426 0 0 1-.226-.788 1.537 1.537 0 0 1 .482-1.197 2.053 2.053 0 0 1 2.554 0 1.524 1.524 0 0 1 .49 1.197zm-5.803 4.415h-.766v-5.065l-1.526.562v-.687l2.175-.817h.117z" class="cls-11"/><path d="M161.06 97.604a.977.977 0 0 0-.723.277 1.017 1.017 0 0 0-.278.752 1.038 1.038 0 0 0 .27.744.987.987 0 0 0 .73.278.97.97 0 0 0 .73-.278 1.115 1.115 0 0 0-.007-1.481.965.965 0 0 0-.723-.292m1.147 3.81a1.09 1.09 0 0 0-.322-.817 1.236 1.236 0 0 0-1.656-.008 1.13 1.13 0 0 0-.307.825 1.057 1.057 0 0 0 .3.795 1.167 1.167 0 0 0 .838.292 1.15 1.15 0 0 0 .84-.292 1.046 1.046 0 0 0 .306-.795m.621-2.788a1.37 1.37 0 0 1-.241.795 1.591 1.591 0 0 1-.635.548 1.659 1.659 0 0 1 .737.583 1.462 1.462 0 0 1 .277.876 1.558 1.558 0 0 1-.525 1.234 2.3 2.3 0 0 1-2.76 0 1.57 1.57 0 0 1-.517-1.234 1.508 1.508 0 0 1 .263-.868 1.692 1.692 0 0 1 .737-.6 1.579 1.579 0 0 1-.636-.546 1.426 1.426 0 0 1-.226-.788 1.537 1.537 0 0 1 .482-1.197 2.053 2.053 0 0 1 2.554 0 1.524 1.524 0 0 1 .49 1.197m-5.803 4.415h-.767v-5.065l-1.525.562v-.687l2.175-.817h.117z" class="cls-3"/><path d="M200.942 113.32h.576a1.235 1.235 0 0 0 .84-.285.944.944 0 0 0 .314-.744.929.929 0 0 0-1.051-1.05 1.097 1.097 0 0 0-.789.284.98.98 0 0 0-.292.745h-.759a1.512 1.512 0 0 1 .518-1.176 2.137 2.137 0 0 1 2.65-.029 1.605 1.605 0 0 1 .482 1.24 1.309 1.309 0 0 1-.256.76 1.515 1.515 0 0 1-.686.548 1.444 1.444 0 0 1 .759.518 1.422 1.422 0 0 1 .27.883 1.634 1.634 0 0 1-.525 1.277 1.988 1.988 0 0 1-1.372.467 2.02 2.02 0 0 1-1.366-.452 1.525 1.525 0 0 1-.526-1.205h.767a.988.988 0 0 0 .307.76 1.182 1.182 0 0 0 .825.276 1.151 1.151 0 0 0 .84-.284 1.1 1.1 0 0 0 .291-.825 1.002 1.002 0 0 0-.321-.802 1.392 1.392 0 0 0-.92-.285h-.577zm-3.278 3.358h-.766v-5.066l-1.526.563v-.687l2.176-.817h.116z" class="cls-11"/><path d="M200.942 113.32h.576a1.235 1.235 0 0 0 .84-.285.944.944 0 0 0 .314-.744.929.929 0 0 0-1.051-1.05 1.097 1.097 0 0 0-.789.284.98.98 0 0 0-.292.745h-.759a1.512 1.512 0 0 1 .518-1.176 2.137 2.137 0 0 1 2.65-.029 1.605 1.605 0 0 1 .482 1.24 1.309 1.309 0 0 1-.256.76 1.515 1.515 0 0 1-.686.548 1.444 1.444 0 0 1 .759.518 1.422 1.422 0 0 1 .27.883 1.634 1.634 0 0 1-.525 1.277 1.988 1.988 0 0 1-1.372.467 2.02 2.02 0 0 1-1.366-.452 1.525 1.525 0 0 1-.526-1.205h.767a.988.988 0 0 0 .307.76 1.182 1.182 0 0 0 .825.276 1.151 1.151 0 0 0 .84-.284 1.1 1.1 0 0 0 .291-.825 1.002 1.002 0 0 0-.321-.802 1.392 1.392 0 0 0-.92-.285h-.577zm-3.278 3.358h-.766v-5.066l-1.526.563v-.687l2.176-.817h.116z" class="cls-3"/><path d="M241.298 53.677l.307-2.977h3.058v.7h-2.416l-.182 1.628a1.942 1.942 0 0 1 1-.256 1.632 1.632 0 0 1 1.292.54 2.113 2.113 0 0 1 .48 1.46 2.056 2.056 0 0 1-.495 1.46 1.822 1.822 0 0 1-1.394.526 1.91 1.91 0 0 1-1.3-.438 1.746 1.746 0 0 1-.562-1.212h.716a1.233 1.233 0 0 0 .364.773 1.162 1.162 0 0 0 .782.256 1.026 1.026 0 0 0 .831-.358 1.529 1.529 0 0 0 .3-1 1.383 1.383 0 0 0-.329-.963 1.088 1.088 0 0 0-.86-.365 1.255 1.255 0 0 0-.782.219l-.205.167zm-3.92-.358h.577a1.235 1.235 0 0 0 .84-.284.946.946 0 0 0 .313-.745.929.929 0 0 0-1.05-1.05 1.097 1.097 0 0 0-.789.283.98.98 0 0 0-.292.745h-.759a1.513 1.513 0 0 1 .518-1.175 2.137 2.137 0 0 1 2.65-.03 1.607 1.607 0 0 1 .481 1.242 1.31 1.31 0 0 1-.255.76 1.505 1.505 0 0 1-.686.546 1.45 1.45 0 0 1 .759.518 1.422 1.422 0 0 1 .27.884 1.638 1.638 0 0 1-.525 1.278 1.988 1.988 0 0 1-1.373.467 2.019 2.019 0 0 1-1.365-.453 1.525 1.525 0 0 1-.526-1.205h.767a.985.985 0 0 0 .307.76 1.183 1.183 0 0 0 .825.277 1.152 1.152 0 0 0 .839-.285 1.097 1.097 0 0 0 .292-.824 1.004 1.004 0 0 0-.321-.804 1.392 1.392 0 0 0-.92-.284h-.577z" class="cls-11"/><path d="M241.298 53.677l.307-2.977h3.058v.7h-2.416l-.182 1.628a1.942 1.942 0 0 1 1-.256 1.632 1.632 0 0 1 1.292.54 2.113 2.113 0 0 1 .48 1.46 2.056 2.056 0 0 1-.495 1.46 1.822 1.822 0 0 1-1.394.526 1.91 1.91 0 0 1-1.3-.438 1.746 1.746 0 0 1-.562-1.212h.716a1.233 1.233 0 0 0 .364.773 1.162 1.162 0 0 0 .782.256 1.026 1.026 0 0 0 .831-.358 1.529 1.529 0 0 0 .3-1 1.383 1.383 0 0 0-.329-.963 1.088 1.088 0 0 0-.86-.365 1.255 1.255 0 0 0-.782.219l-.205.167zm-3.92-.358h.577a1.235 1.235 0 0 0 .84-.284.946.946 0 0 0 .313-.745.929.929 0 0 0-1.05-1.05 1.097 1.097 0 0 0-.789.283.98.98 0 0 0-.292.745h-.759a1.513 1.513 0 0 1 .518-1.175 2.137 2.137 0 0 1 2.65-.03 1.607 1.607 0 0 1 .481 1.242 1.31 1.31 0 0 1-.255.76 1.505 1.505 0 0 1-.686.546 1.45 1.45 0 0 1 .759.518 1.422 1.422 0 0 1 .27.884 1.638 1.638 0 0 1-.525 1.278 1.988 1.988 0 0 1-1.373.467 2.019 2.019 0 0 1-1.365-.453 1.525 1.525 0 0 1-.526-1.205h.767a.985.985 0 0 0 .307.76 1.183 1.183 0 0 0 .825.277 1.152 1.152 0 0 0 .839-.285 1.097 1.097 0 0 0 .292-.824 1.004 1.004 0 0 0-.321-.804 1.392 1.392 0 0 0-.92-.284h-.577z" class="cls-3"/><path fill="#424242" d="M12.84 66.187a.624.624 0 0 0-.534.256 2.47 2.47 0 0 0-.328.898 4.4 4.4 0 0 1-.329 1.022 1.457 1.457 0 0 1-.452.554 1.141 1.141 0 0 1-.635.175 1.27 1.27 0 0 1-1.022-.51 1.985 1.985 0 0 1-.423-1.314 2.031 2.031 0 0 1 .438-1.358 1.362 1.362 0 0 1 1.101-.525v.854a.752.752 0 0 0-.59.292 1.076 1.076 0 0 0-.256.737 1.162 1.162 0 0 0 .204.73.633.633 0 0 0 .526.255.52.52 0 0 0 .46-.24 3.088 3.088 0 0 0 .299-.877 4.339 4.339 0 0 1 .336-1.021 1.444 1.444 0 0 1 .467-.584 1.16 1.16 0 0 1 .671-.19 1.271 1.271 0 0 1 1.066.533 2.203 2.203 0 0 1 .402 1.372 2.476 2.476 0 0 1-.212 1.05 1.767 1.767 0 0 1-.584.716 1.432 1.432 0 0 1-.818.256v-.847a.872.872 0 0 0 .672-.335 1.336 1.336 0 0 0 .249-.84 1.36 1.36 0 0 0-.19-.766.598.598 0 0 0-.519-.293m-4.824 5h1.197v-.927h.65v.928h3.057a.712.712 0 0 0 .453-.124.531.531 0 0 0 .146-.424 1.926 1.926 0 0 0-.058-.401h.685a2.363 2.363 0 0 1 .096.65 1.062 1.062 0 0 1-.343.854 1.497 1.497 0 0 1-.979.284H9.862v.897h-.65v-.897H8.015zm5.533 3.833a1.223 1.223 0 0 0-.27-.788.98.98 0 0 0-.687-.373v-.803a1.592 1.592 0 0 1 .81.3 1.92 1.92 0 0 1 .614.714 2.074 2.074 0 0 1 .226.95 2.044 2.044 0 0 1-.672 1.605 2.72 2.72 0 0 1-1.847.592h-.138a2.996 2.996 0 0 1-1.285-.263 1.976 1.976 0 0 1-.869-.759 2.143 2.143 0 0 1-.313-1.168 1.974 1.974 0 0 1 .496-1.38 1.766 1.766 0 0 1 1.292-.59v.802a1.148 1.148 0 0 0-.78.365 1.1 1.1 0 0 0-.315.803 1.185 1.185 0 0 0 .467 1 2.178 2.178 0 0 0 1.336.35h.16a2.13 2.13 0 0 0 1.314-.35 1.188 1.188 0 0 0 .46-1.007M9.81 80.195a1.136 1.136 0 0 0 .373.861 1.813 1.813 0 0 0 1.043.423v-2.467h-.066a1.584 1.584 0 0 0-.992.35 1.042 1.042 0 0 0-.358.833m4.43-.103a2.176 2.176 0 0 1-.657 1.636 2.464 2.464 0 0 1-1.765.627h-.162a2.974 2.974 0 0 1-1.306-.277 2.236 2.236 0 0 1-.905-.788 1.963 1.963 0 0 1-.328-1.095 1.848 1.848 0 0 1 .634-1.497 2.759 2.759 0 0 1 1.818-.533h.35v3.343a1.753 1.753 0 0 0 1.183-.422 1.349 1.349 0 0 0 .446-1.037 1.467 1.467 0 0 0-.183-.76 1.9 1.9 0 0 0-.482-.546l.402-.512a2.072 2.072 0 0 1 .956 1.86m-6.343 4.447a.517.517 0 0 1-.344-.124.475.475 0 0 1-.146-.372.464.464 0 0 1 .146-.373.483.483 0 0 1 .825.373.476.476 0 0 1-.138.372.499.499 0 0 1-.343.124m1.314-.934h5.503q1.423 0 1.423 1.29a1.652 1.652 0 0 1-.08.52h-.679a1.627 1.627 0 0 0 .037-.387.564.564 0 0 0-.154-.43.738.738 0 0 0-.525-.147H9.212zm2.518 5.385a2.121 2.121 0 0 0 1.321-.38 1.23 1.23 0 0 0 .497-1.02 1.215 1.215 0 0 0-.504-1.023 2.3 2.3 0 0 0-1.41-.38 2.109 2.109 0 0 0-1.32.388 1.286 1.286 0 0 0-.008 2.036 2.307 2.307 0 0 0 1.424.38m-.095.847a2.903 2.903 0 0 1-1.306-.285 2.122 2.122 0 0 1-.899-.789 2.19 2.19 0 0 1-.313-1.167 2.068 2.068 0 0 1 .7-1.628 2.659 2.659 0 0 1 1.855-.628h.058a2.957 2.957 0 0 1 1.299.278 2.108 2.108 0 0 1 .89.796 2.16 2.16 0 0 1 .322 1.174 2.085 2.085 0 0 1-.701 1.628 2.685 2.685 0 0 1-1.847.621zm-1.672.664a2.692 2.692 0 0 0-.029.409 1.117 1.117 0 0 0 .708 1.13h3.503v.84H9.212v-.817l.569-.015a1.315 1.315 0 0 1-.664-1.175.811.811 0 0 1 .066-.372zm.869 7.445v-1.57a1.589 1.589 0 0 0-.328-1.08 1.232 1.232 0 0 0-.963-.372 1.233 1.233 0 0 0-.942.372 1.473 1.473 0 0 0-.373 1.03v1.62zm.715 0h2.598v.876H7.503v-2.446a2.457 2.457 0 0 1 .555-1.708 1.883 1.883 0 0 1 1.475-.62 1.873 1.873 0 0 1 1.496.606 2.59 2.59 0 0 1 .518 1.73zm2.598 6.205H9.862v.773h-.65v-.773H8.7a1.664 1.664 0 0 1-1.218-.424 1.612 1.612 0 0 1-.438-1.205 2.307 2.307 0 0 1 .072-.576l.687.043a2.615 2.615 0 0 0-.037.453.838.838 0 0 0 .241.642.957.957 0 0 0 .68.219h.525v-1.051h.65v1.05h4.283zm-2.415 4.926a2.121 2.121 0 0 0 1.321-.38 1.23 1.23 0 0 0 .497-1.022 1.215 1.215 0 0 0-.504-1.021 2.3 2.3 0 0 0-1.41-.38 2.109 2.109 0 0 0-1.32.387 1.286 1.286 0 0 0-.008 2.036 2.307 2.307 0 0 0 1.424.38m-.095.846a2.902 2.902 0 0 1-1.306-.284 2.122 2.122 0 0 1-.899-.788 2.19 2.19 0 0 1-.313-1.168 2.072 2.072 0 0 1 .7-1.628 2.658 2.658 0 0 1 1.855-.628h.058a2.957 2.957 0 0 1 1.299.277 2.115 2.115 0 0 1 .89.796 2.163 2.163 0 0 1 .322 1.175 2.086 2.086 0 0 1-.701 1.629 2.685 2.685 0 0 1-1.847.62zm.014 5.957v-1.205l-1.612-.32v1.204zm.628-1.088v1.205l1.868.364v.65l-1.868-.365v1.095h-.628v-1.211l-1.612-.315v1.175H9.4v-1.298l-1.898-.373v-.657l1.898.38v-1.205l-1.898-.38v-.656l1.898.379v-.934h.636v1.05l1.612.322v-1.028h.628v1.145l1.868.365v.658z"/><path fill="#757575" d="M43.327 140.04a2.705 2.705 0 0 0-.278-1.401 1.04 1.04 0 0 0-1.707 0 2.717 2.717 0 0 0-.27 1.343v1.218a2.838 2.838 0 0 0 .278 1.43.935.935 0 0 0 .853.46.913.913 0 0 0 .832-.43 2.714 2.714 0 0 0 .292-1.372zm.76 1.044a3.443 3.443 0 0 1-.46 1.977 1.613 1.613 0 0 1-1.424.65 1.631 1.631 0 0 1-1.416-.635 3.277 3.277 0 0 1-.474-1.89v-1.015a3.397 3.397 0 0 1 .452-1.956 1.92 1.92 0 0 1 2.847-.021 3.242 3.242 0 0 1 .474 1.905zm-.76-28.317a2.706 2.706 0 0 0-.277-1.401 1.042 1.042 0 0 0-1.708 0 2.729 2.729 0 0 0-.27 1.343v1.218a2.862 2.862 0 0 0 .277 1.43.938.938 0 0 0 .854.46.911.911 0 0 0 .832-.43 2.714 2.714 0 0 0 .292-1.372zm.76 1.044a3.434 3.434 0 0 1-.46 1.977 1.612 1.612 0 0 1-1.424.65 1.633 1.633 0 0 1-1.416-.635 3.286 3.286 0 0 1-.475-1.89v-1.015a3.396 3.396 0 0 1 .453-1.956 1.92 1.92 0 0 1 2.847-.022 3.25 3.25 0 0 1 .475 1.906zm-5.927 2.547h-.767v-5.066l-1.526.563v-.687l2.176-.817h.117zm5.167-30.864a2.706 2.706 0 0 0-.277-1.401 1.042 1.042 0 0 0-1.708 0 2.729 2.729 0 0 0-.27 1.343v1.218a2.85 2.85 0 0 0 .278 1.43.935.935 0 0 0 .853.46.912.912 0 0 0 .832-.43 2.714 2.714 0 0 0 .292-1.372zm.76 1.043a3.443 3.443 0 0 1-.46 1.978 1.613 1.613 0 0 1-1.424.65 1.631 1.631 0 0 1-1.416-.635 3.277 3.277 0 0 1-.474-1.89v-1.015a3.396 3.396 0 0 1 .453-1.956 1.92 1.92 0 0 1 2.845-.022 3.242 3.242 0 0 1 .475 1.905zm-4.504 2.548h-3.92v-.547l2.073-2.3a4.45 4.45 0 0 0 .628-.847 1.424 1.424 0 0 0 .175-.679 1.062 1.062 0 0 0-.285-.765.972.972 0 0 0-.751-.3 1.163 1.163 0 0 0-.884.329 1.22 1.22 0 0 0-.313.89h-.76a1.74 1.74 0 0 1 .534-1.328 1.964 1.964 0 0 1 1.422-.511 1.88 1.88 0 0 1 1.314.438 1.48 1.48 0 0 1 .489 1.16 3.42 3.42 0 0 1-1.123 2.103l-1.6 1.736h3zm3.744-30.865a2.705 2.705 0 0 0-.277-1.4 1.04 1.04 0 0 0-1.708 0 2.717 2.717 0 0 0-.27 1.342v1.219a2.851 2.851 0 0 0 .277 1.43.94.94 0 0 0 .854.46.914.914 0 0 0 .833-.43 2.714 2.714 0 0 0 .291-1.373zm.76 1.044a3.45 3.45 0 0 1-.46 1.979 1.89 1.89 0 0 1-2.84.014 3.275 3.275 0 0 1-.474-1.89v-1.015a3.399 3.399 0 0 1 .452-1.957 1.92 1.92 0 0 1 2.847-.021 3.242 3.242 0 0 1 .474 1.905zm-7.322-.81h.577a1.23 1.23 0 0 0 .84-.284.946.946 0 0 0 .313-.745.929.929 0 0 0-1.05-1.051 1.097 1.097 0 0 0-.789.284.98.98 0 0 0-.292.745h-.759a1.513 1.513 0 0 1 .518-1.175 2.137 2.137 0 0 1 2.65-.03 1.607 1.607 0 0 1 .481 1.242 1.31 1.31 0 0 1-.255.759 1.505 1.505 0 0 1-.686.547 1.45 1.45 0 0 1 .759.518 1.422 1.422 0 0 1 .27.883 1.638 1.638 0 0 1-.526 1.278 1.988 1.988 0 0 1-1.372.467 2.019 2.019 0 0 1-1.365-.453 1.525 1.525 0 0 1-.526-1.204h.767a.985.985 0 0 0 .307.759 1.183 1.183 0 0 0 .825.278 1.152 1.152 0 0 0 .84-.286 1.097 1.097 0 0 0 .291-.824 1.004 1.004 0 0 0-.321-.803 1.392 1.392 0 0 0-.92-.284h-.577zm6.563-27.507a2.705 2.705 0 0 0-.278-1.401 1.042 1.042 0 0 0-1.709 0 2.718 2.718 0 0 0-.269 1.343v1.218a2.859 2.859 0 0 0 .277 1.432.94.94 0 0 0 .854.46.915.915 0 0 0 .833-.43 2.716 2.716 0 0 0 .292-1.374zm.759 1.044a3.438 3.438 0 0 1-.46 1.978 1.614 1.614 0 0 1-1.424.65 1.631 1.631 0 0 1-1.416-.636 3.284 3.284 0 0 1-.474-1.89V31.08a3.399 3.399 0 0 1 .452-1.957 1.92 1.92 0 0 1 2.847-.022 3.252 3.252 0 0 1 .475 1.906zm-7.84.54h1.861v-2.934l-.095.168zm2.62 0h.833v.62h-.832v1.387h-.76v-1.386h-2.722v-.446l2.678-4.145h.804zm45.44 118.187a1.422 1.422 0 0 0-1.307.913v.314a2.202 2.202 0 0 0 .365 1.32 1.116 1.116 0 0 0 .927.505 1.064 1.064 0 0 0 .89-.417 2.026 2.026 0 0 0 0-2.212 1.054 1.054 0 0 0-.875-.423m1.102-2.992v.715h-.154a2.224 2.224 0 0 0-1.569.592 2.402 2.402 0 0 0-.671 1.59 1.797 1.797 0 0 1 1.43-.605 1.726 1.726 0 0 1 1.388.613 2.68 2.68 0 0 1-.045 3.226 1.932 1.932 0 0 1-1.496.613 1.897 1.897 0 0 1-1.547-.73 2.927 2.927 0 0 1-.592-1.89v-.328a4.38 4.38 0 0 1 .782-2.804 2.868 2.868 0 0 1 2.328-.992zm-5.671 6.65h-.854v-5.629l-1.701.629v-.767l2.423-.905h.132zm-4.591-3.986a3.037 3.037 0 0 0-.307-1.562 1.159 1.159 0 0 0-1.898-.007 3.062 3.062 0 0 0-.3 1.503v1.35a3.215 3.215 0 0 0 .308 1.592 1.038 1.038 0 0 0 .948.51 1.015 1.015 0 0 0 .928-.48 3.004 3.004 0 0 0 .32-1.527zm.839 1.153a3.877 3.877 0 0 1-.504 2.204 1.795 1.795 0 0 1-1.584.723 1.815 1.815 0 0 1-1.576-.708 3.666 3.666 0 0 1-.526-2.11v-1.124a3.77 3.77 0 0 1 .504-2.174 2.133 2.133 0 0 1 3.168-.023 3.664 3.664 0 0 1 .518 2.117zm-4.949 2.832h-4.35v-.605l2.299-2.555a5.473 5.473 0 0 0 .7-.942 1.557 1.557 0 0 0 .197-.751 1.198 1.198 0 0 0-.313-.855 1.093 1.093 0 0 0-.84-.336 1.303 1.303 0 0 0-.985.366 1.379 1.379 0 0 0-.343.992h-.847a1.946 1.946 0 0 1 .592-1.481 2.187 2.187 0 0 1 1.584-.57 2.08 2.08 0 0 1 1.46.489 1.66 1.66 0 0 1 .539 1.292 3.785 3.785 0 0 1-1.248 2.336l-1.78 1.934h3.335zm56.38-6.167l-2.752 6.167h-.883l2.744-5.949h-3.598v-.693h4.489zm-6.65 6.167h-.854v-5.628l-1.7.629v-.767l2.422-.905h.132zm-4.59-3.985a3.037 3.037 0 0 0-.308-1.562 1.159 1.159 0 0 0-1.897-.007 3.062 3.062 0 0 0-.3 1.503v1.35a3.216 3.216 0 0 0 .307 1.592 1.038 1.038 0 0 0 .949.51 1.015 1.015 0 0 0 .927-.48 3.004 3.004 0 0 0 .321-1.527zm.838 1.153a3.877 3.877 0 0 1-.504 2.204 1.795 1.795 0 0 1-1.583.723 1.815 1.815 0 0 1-1.577-.708 3.666 3.666 0 0 1-.525-2.11v-1.124a3.77 3.77 0 0 1 .503-2.174 2.133 2.133 0 0 1 3.168-.023 3.664 3.664 0 0 1 .518 2.117zm-4.948 2.832h-4.35v-.605l2.298-2.555a5.472 5.472 0 0 0 .701-.942 1.558 1.558 0 0 0 .197-.751 1.198 1.198 0 0 0-.314-.855 1.093 1.093 0 0 0-.839-.336 1.303 1.303 0 0 0-.986.366 1.379 1.379 0 0 0-.343.992h-.846a1.946 1.946 0 0 1 .591-1.481 2.187 2.187 0 0 1 1.584-.57 2.08 2.08 0 0 1 1.46.489 1.66 1.66 0 0 1 .54 1.292 3.785 3.785 0 0 1-1.248 2.336l-1.781 1.934h3.336zm54.16-6.044a1.07 1.07 0 0 0-.802.315 1.123 1.123 0 0 0-.308.831 1.148 1.148 0 0 0 .3.825 1.096 1.096 0 0 0 .81.307 1.083 1.083 0 0 0 .81-.307 1.118 1.118 0 0 0 .307-.817 1.14 1.14 0 0 0-.314-.832 1.072 1.072 0 0 0-.803-.322m1.27 4.234a1.21 1.21 0 0 0-.358-.905 1.256 1.256 0 0 0-2.174.905 1.187 1.187 0 0 0 .335.89 1.508 1.508 0 0 0 1.861 0 1.183 1.183 0 0 0 .336-.89m.693-3.102a1.545 1.545 0 0 1-.262.89 1.779 1.779 0 0 1-.715.607 1.837 1.837 0 0 1 .825.65 1.63 1.63 0 0 1 .306.97 1.753 1.753 0 0 1-.584 1.379 2.552 2.552 0 0 1-3.065 0 1.763 1.763 0 0 1-.578-1.38 1.674 1.674 0 0 1 .293-.963 1.862 1.862 0 0 1 .818-.664 1.736 1.736 0 0 1-.7-.605 1.565 1.565 0 0 1-.257-.884 1.704 1.704 0 0 1 .54-1.329 2.268 2.268 0 0 1 2.832 0 1.69 1.69 0 0 1 .547 1.33m-6.393 4.911h-.854v-5.628l-1.701.629v-.767l2.423-.905h.132zm-4.591-3.985a3.037 3.037 0 0 0-.307-1.562 1.159 1.159 0 0 0-1.898-.007 3.062 3.062 0 0 0-.3 1.503v1.35a3.215 3.215 0 0 0 .308 1.592 1.038 1.038 0 0 0 .948.51 1.015 1.015 0 0 0 .928-.48 3.004 3.004 0 0 0 .321-1.527zm.84 1.153a3.877 3.877 0 0 1-.505 2.204 1.795 1.795 0 0 1-1.584.723 1.815 1.815 0 0 1-1.576-.708 3.666 3.666 0 0 1-.526-2.11v-1.124a3.77 3.77 0 0 1 .504-2.174 2.133 2.133 0 0 1 3.168-.023 3.664 3.664 0 0 1 .518 2.117zm-4.95 2.832h-4.35v-.605l2.3-2.555a5.472 5.472 0 0 0 .7-.942 1.558 1.558 0 0 0 .197-.751 1.198 1.198 0 0 0-.314-.855 1.093 1.093 0 0 0-.839-.336 1.303 1.303 0 0 0-.986.366 1.379 1.379 0 0 0-.343.992h-.846a1.946 1.946 0 0 1 .591-1.481 2.187 2.187 0 0 1 1.584-.57 2.08 2.08 0 0 1 1.46.489 1.66 1.66 0 0 1 .54 1.292 3.785 3.785 0 0 1-1.249 2.336l-1.78 1.934h3.335zm54.03-2.92a1.31 1.31 0 0 0 .78-.255 1.52 1.52 0 0 0 .52-.65v-.335a2.336 2.336 0 0 0-.359-1.35 1.074 1.074 0 0 0-.912-.519 1.093 1.093 0 0 0-.898.43 1.747 1.747 0 0 0-.336 1.118 1.841 1.841 0 0 0 .329 1.124 1.039 1.039 0 0 0 .876.438m1.3 0a2.109 2.109 0 0 1-.636.51 1.712 1.712 0 0 1-.803.19 1.79 1.79 0 0 1-1.007-.284 1.873 1.873 0 0 1-.658-.796 2.827 2.827 0 0 1-.226-1.138 2.798 2.798 0 0 1 .249-1.197 1.9 1.9 0 0 1 .715-.819 2.055 2.055 0 0 1 1.087-.284 1.857 1.857 0 0 1 1.555.737 3.22 3.22 0 0 1 .57 2.015v.24a4.295 4.295 0 0 1-.767 2.833 2.967 2.967 0 0 1-2.313.92h-.162v-.716h.176a2.312 2.312 0 0 0 1.605-.54 2.364 2.364 0 0 0 .614-1.671m-5.598 2.92h-.854v-5.629l-1.701.629v-.767l2.423-.905h.132zm-4.591-3.986a3.037 3.037 0 0 0-.307-1.562 1.159 1.159 0 0 0-1.898-.007 3.062 3.062 0 0 0-.3 1.503v1.35a3.215 3.215 0 0 0 .308 1.592 1.038 1.038 0 0 0 .948.51 1.015 1.015 0 0 0 .928-.481 3.004 3.004 0 0 0 .32-1.526zm.839 1.153a3.877 3.877 0 0 1-.504 2.204 1.795 1.795 0 0 1-1.584.723 1.815 1.815 0 0 1-1.577-.708 3.666 3.666 0 0 1-.525-2.11v-1.124a3.77 3.77 0 0 1 .504-2.174 2.133 2.133 0 0 1 3.168-.023 3.664 3.664 0 0 1 .518 2.117zm-4.95 2.832h-4.349v-.605l2.299-2.555a5.472 5.472 0 0 0 .7-.942 1.558 1.558 0 0 0 .197-.752 1.198 1.198 0 0 0-.313-.854 1.093 1.093 0 0 0-.84-.336 1.303 1.303 0 0 0-.985.366 1.379 1.379 0 0 0-.343.992h-.847a1.946 1.946 0 0 1 .592-1.481 2.187 2.187 0 0 1 1.584-.57 2.08 2.08 0 0 1 1.46.489 1.66 1.66 0 0 1 .539 1.292 3.785 3.785 0 0 1-1.248 2.336l-1.78 1.934h3.335zm55.418-3.985a3.037 3.037 0 0 0-.307-1.562 1.159 1.159 0 0 0-1.898-.007 3.062 3.062 0 0 0-.3 1.503v1.35a3.216 3.216 0 0 0 .308 1.592 1.038 1.038 0 0 0 .948.51 1.013 1.013 0 0 0 .926-.48 2.991 2.991 0 0 0 .323-1.527zm.839 1.153a3.877 3.877 0 0 1-.504 2.204 1.795 1.795 0 0 1-1.584.723 1.815 1.815 0 0 1-1.577-.708 3.666 3.666 0 0 1-.525-2.11v-1.124a3.77 3.77 0 0 1 .504-2.174 2.133 2.133 0 0 1 3.168-.023 3.664 3.664 0 0 1 .518 2.117zm-4.95 2.832h-4.349v-.605l2.299-2.555a5.472 5.472 0 0 0 .7-.942 1.557 1.557 0 0 0 .197-.751 1.198 1.198 0 0 0-.313-.855 1.093 1.093 0 0 0-.84-.336 1.303 1.303 0 0 0-.986.366 1.379 1.379 0 0 0-.342.992h-.847a1.946 1.946 0 0 1 .592-1.481 2.187 2.187 0 0 1 1.584-.57 2.08 2.08 0 0 1 1.46.489 1.66 1.66 0 0 1 .539 1.292 3.785 3.785 0 0 1-1.248 2.336l-1.78 1.934h3.335zm-6.167-3.985a3.037 3.037 0 0 0-.307-1.562 1.159 1.159 0 0 0-1.897-.007 3.062 3.062 0 0 0-.3 1.503v1.35a3.215 3.215 0 0 0 .307 1.592 1.038 1.038 0 0 0 .949.51 1.015 1.015 0 0 0 .927-.48 3.004 3.004 0 0 0 .321-1.527zm.84 1.153a3.877 3.877 0 0 1-.504 2.204 1.795 1.795 0 0 1-1.584.723 1.815 1.815 0 0 1-1.577-.708 3.666 3.666 0 0 1-.525-2.11v-1.124a3.77 3.77 0 0 1 .503-2.174 2.133 2.133 0 0 1 3.168-.023 3.664 3.664 0 0 1 .518 2.117zm-4.95 2.832h-4.35v-.605l2.3-2.555a5.473 5.473 0 0 0 .7-.942 1.558 1.558 0 0 0 .197-.751 1.198 1.198 0 0 0-.314-.855 1.093 1.093 0 0 0-.839-.336 1.303 1.303 0 0 0-.986.366 1.379 1.379 0 0 0-.343.992h-.846a1.946 1.946 0 0 1 .591-1.481 2.187 2.187 0 0 1 1.584-.57 2.08 2.08 0 0 1 1.46.489 1.66 1.66 0 0 1 .54 1.292 3.785 3.785 0 0 1-1.248 2.336l-1.781 1.934h3.336zM221.964 12.273a3.964 3.964 0 0 0 .62 2.365 2.033 2.033 0 0 0 1.73.854 2.214 2.214 0 0 0 2.11-1.3v-4.08a2.228 2.228 0 0 0-2.095-1.255 2.04 2.04 0 0 0-1.745.861 4.364 4.364 0 0 0-.62 2.555m-1.518-.175a5.211 5.211 0 0 1 .964-3.285 3.301 3.301 0 0 1 5.013-.182V4.003h1.518v12.612h-1.393l-.073-.955a3.092 3.092 0 0 1-2.54 1.124 3.049 3.049 0 0 1-2.519-1.263 5.3 5.3 0 0 1-.97-3.306zm-5.007-3.285a2.038 2.038 0 0 0-1.548.672 3.268 3.268 0 0 0-.766 1.876h4.445v-.117a2.866 2.866 0 0 0-.628-1.788 1.883 1.883 0 0 0-1.503-.643m.19 7.971a3.872 3.872 0 0 1-2.942-1.19 4.413 4.413 0 0 1-1.132-3.175v-.278a5.335 5.335 0 0 1 .504-2.357 3.91 3.91 0 0 1 1.409-1.628 3.558 3.558 0 0 1 1.971-.59 3.307 3.307 0 0 1 2.686 1.145 4.917 4.917 0 0 1 .963 3.263v.634h-6.015a3.149 3.149 0 0 0 .767 2.125 2.42 2.42 0 0 0 1.868.81 2.619 2.619 0 0 0 1.358-.329 3.405 3.405 0 0 0 .985-.876l.928.723a3.727 3.727 0 0 1-3.35 1.723M208.393 5.58v2.154h1.657v1.175h-1.657v5.504a1.267 1.267 0 0 0 .22.81.954.954 0 0 0 .758.263 3.555 3.555 0 0 0 .722-.103v1.233a4.294 4.294 0 0 1-1.167.17 1.895 1.895 0 0 1-1.533-.614 2.675 2.675 0 0 1-.518-1.76V8.909h-1.621V7.733h1.62V5.58zm-5.416 6.52a3.91 3.91 0 0 0-.642-2.373 2.068 2.068 0 0 0-1.76-.87 2.226 2.226 0 0 0-2.065 1.22v4.248a2.229 2.229 0 0 0 2.08 1.219 2.048 2.048 0 0 0 1.737-.868 4.268 4.268 0 0 0 .65-2.577m1.518.175a5.325 5.325 0 0 1-.927 3.27 2.977 2.977 0 0 1-2.518 1.241 3.246 3.246 0 0 1-2.54-1.03v4.278h-1.518V7.733h1.386l.074.985a3.12 3.12 0 0 1 2.576-1.152 3.028 3.028 0 0 1 2.533 1.21 5.361 5.361 0 0 1 .934 3.358zm-12.882-3.46a2.035 2.035 0 0 0-1.548.672 3.268 3.268 0 0 0-.766 1.876h4.445v-.117a2.866 2.866 0 0 0-.628-1.788 1.883 1.883 0 0 0-1.503-.643m.19 7.971a3.872 3.872 0 0 1-2.942-1.19 4.413 4.413 0 0 1-1.132-3.175v-.278a5.32 5.32 0 0 1 .504-2.357 3.903 3.903 0 0 1 1.409-1.628 3.558 3.558 0 0 1 1.971-.59A3.307 3.307 0 0 1 194.3 8.71a4.917 4.917 0 0 1 .963 3.263v.634h-6.015a3.149 3.149 0 0 0 .767 2.125 2.42 2.42 0 0 0 1.868.81 2.619 2.619 0 0 0 1.358-.329 3.419 3.419 0 0 0 .985-.876l.928.723a3.727 3.727 0 0 1-3.35 1.723m-9.001-1.241a2.19 2.19 0 0 0 1.416-.489 1.747 1.747 0 0 0 .68-1.241h1.437a2.77 2.77 0 0 1-.533 1.46 3.498 3.498 0 0 1-1.292 1.102 3.712 3.712 0 0 1-1.708.41 3.668 3.668 0 0 1-2.89-1.213 4.844 4.844 0 0 1-1.065-3.314v-.255a5.36 5.36 0 0 1 .473-2.306 3.592 3.592 0 0 1 1.366-1.57 3.873 3.873 0 0 1 2.11-.561 3.558 3.558 0 0 1 2.48.897 3.182 3.182 0 0 1 1.06 2.321h-1.439a2.088 2.088 0 0 0-.657-1.416 2.016 2.016 0 0 0-1.445-.555 2.122 2.122 0 0 0-1.796.84 3.92 3.92 0 0 0-.634 2.408v.285a3.864 3.864 0 0 0 .627 2.364 2.144 2.144 0 0 0 1.81.833m-8.875 0a2.188 2.188 0 0 0 1.415-.489 1.743 1.743 0 0 0 .68-1.241h1.437a2.77 2.77 0 0 1-.533 1.46 3.498 3.498 0 0 1-1.292 1.102 3.71 3.71 0 0 1-1.707.41 3.67 3.67 0 0 1-2.891-1.213 4.844 4.844 0 0 1-1.065-3.314v-.255a5.344 5.344 0 0 1 .474-2.306 3.584 3.584 0 0 1 1.365-1.57 3.873 3.873 0 0 1 2.11-.562 3.558 3.558 0 0 1 2.48.898 3.177 3.177 0 0 1 1.06 2.321h-1.439a2.087 2.087 0 0 0-.656-1.416 2.019 2.019 0 0 0-1.445-.555 2.122 2.122 0 0 0-1.796.84 3.92 3.92 0 0 0-.635 2.408v.285a3.864 3.864 0 0 0 .628 2.364 2.14 2.14 0 0 0 1.81.833m-12-3.343h4.066l-2.037-5.591zm4.533 1.292h-5.015l-1.123 3.123h-1.62l4.56-11.955h1.38l4.577 11.955h-1.62zm-14.751.766a1.118 1.118 0 0 0-.467-.955 4.334 4.334 0 0 0-1.614-.585 7.832 7.832 0 0 1-1.832-.59 2.63 2.63 0 0 1-1-.826 1.97 1.97 0 0 1-.32-1.13 2.298 2.298 0 0 1 .919-1.848 3.612 3.612 0 0 1 2.364-.759 3.684 3.684 0 0 1 2.446.781 2.476 2.476 0 0 1 .942 1.993h-1.526a1.37 1.37 0 0 0-.533-1.074 1.964 1.964 0 0 0-1.329-.452 2.06 2.06 0 0 0-1.298.364 1.13 1.13 0 0 0-.467.942.934.934 0 0 0 .43.833 5.478 5.478 0 0 0 1.576.533 8.176 8.176 0 0 1 1.84.605 2.593 2.593 0 0 1 1.044.855 2.07 2.07 0 0 1 .343 1.204 2.289 2.289 0 0 1-.956 1.92 3.992 3.992 0 0 1-2.467.715 4.48 4.48 0 0 1-1.892-.38 3.112 3.112 0 0 1-1.284-1.058 2.57 2.57 0 0 1-.46-1.467h1.519a1.6 1.6 0 0 0 .613 1.218 2.37 2.37 0 0 0 1.504.446 2.427 2.427 0 0 0 1.38-.35 1.074 1.074 0 0 0 .525-.935m-8.716-8.679v2.154h1.657v1.175h-1.657v5.504a1.267 1.267 0 0 0 .22.81.957.957 0 0 0 .758.263 3.555 3.555 0 0 0 .723-.103v1.233a4.294 4.294 0 0 1-1.168.17 1.893 1.893 0 0 1-1.532-.614 2.67 2.67 0 0 1-.52-1.76V8.909h-1.619V7.733h1.62V5.58zm-7.372 9.964a2.191 2.191 0 0 0 1.416-.489 1.747 1.747 0 0 0 .68-1.241h1.437a2.779 2.779 0 0 1-.533 1.46 3.498 3.498 0 0 1-1.292 1.102 3.715 3.715 0 0 1-1.708.41 3.668 3.668 0 0 1-2.89-1.213 4.844 4.844 0 0 1-1.065-3.314v-.255a5.36 5.36 0 0 1 .473-2.306 3.593 3.593 0 0 1 1.366-1.57 3.873 3.873 0 0 1 2.11-.561 3.558 3.558 0 0 1 2.481.897 3.181 3.181 0 0 1 1.059 2.321h-1.439a2.088 2.088 0 0 0-.657-1.416 2.016 2.016 0 0 0-1.445-.555 2.12 2.12 0 0 0-1.795.84 3.912 3.912 0 0 0-.635 2.408v.285a3.864 3.864 0 0 0 .627 2.364 2.144 2.144 0 0 0 1.81.833m-8.94-6.73a2.034 2.034 0 0 0-1.548.672 3.262 3.262 0 0 0-.767 1.876h4.445v-.117a2.86 2.86 0 0 0-.628-1.788 1.883 1.883 0 0 0-1.503-.643m.19 7.971a3.872 3.872 0 0 1-2.942-1.19 4.413 4.413 0 0 1-1.132-3.175v-.278a5.335 5.335 0 0 1 .504-2.357 3.91 3.91 0 0 1 1.41-1.628 3.56 3.56 0 0 1 1.97-.59 3.307 3.307 0 0 1 2.686 1.145 4.917 4.917 0 0 1 .963 3.263v.634h-6.013a3.148 3.148 0 0 0 .765 2.125 2.42 2.42 0 0 0 1.87.81 2.615 2.615 0 0 0 1.357-.329 3.408 3.408 0 0 0 .986-.876l.926.723a3.727 3.727 0 0 1-3.35 1.723m-8-11.41a.897.897 0 0 1 .226-.619.818.818 0 0 1 .657-.262.85.85 0 0 1 .672.255.895.895 0 0 1 .234.627.937.937 0 0 1-1.57.613.893.893 0 0 1-.219-.613m1.672 2.358v9.912q0 2.562-2.321 2.562a2.713 2.713 0 0 1-.927-.153v-1.212a2.882 2.882 0 0 0 .685.066 1.017 1.017 0 0 0 .775-.277 1.343 1.343 0 0 0 .269-.957v-9.94zm-10.248 4.54a3.806 3.806 0 0 0 .686 2.372 2.32 2.32 0 0 0 3.671-.007 4.199 4.199 0 0 0 .68-2.547 3.78 3.78 0 0 0-.695-2.365 2.3 2.3 0 0 0-3.657-.015 4.13 4.13 0 0 0-.685 2.562m-1.533-.182a5.277 5.277 0 0 1 .511-2.351 3.836 3.836 0 0 1 1.43-1.606 3.897 3.897 0 0 1 2.095-.568 3.753 3.753 0 0 1 2.935 1.255 4.822 4.822 0 0 1 1.123 3.342v.11a5.232 5.232 0 0 1-.503 2.328 3.767 3.767 0 0 1-1.424 1.606 3.894 3.894 0 0 1-2.116.577 3.741 3.741 0 0 1-2.927-1.256 4.817 4.817 0 0 1-1.124-3.328zm-.905-3a5.151 5.151 0 0 0-.745-.052 2.001 2.001 0 0 0-2.029 1.27v6.306h-1.518V7.733h1.474l.022 1.022a2.377 2.377 0 0 1 2.124-1.19 1.54 1.54 0 0 1 .672.117zM94.63 10.644h2.832a2.854 2.854 0 0 0 1.942-.59 2.19 2.19 0 0 0 .671-1.724 2.252 2.252 0 0 0-.671-1.707 2.64 2.64 0 0 0-1.847-.665h-2.927zm0 1.292v4.678h-1.576V4.66h4.408a4.421 4.421 0 0 1 3.073 1 3.389 3.389 0 0 1 1.117 2.657 3.349 3.349 0 0 1-1.088 2.678 4.62 4.62 0 0 1-3.116.942zm-8.525-.598h-5.022v5.276h-1.577V4.66h7.408V5.96h-5.83v4.088h5.02zm-8.548 1.481a4.405 4.405 0 0 1-1.4 2.935 4.587 4.587 0 0 1-3.132 1.03 4.21 4.21 0 0 1-3.394-1.52 6.134 6.134 0 0 1-1.278-4.072v-1.146a6.84 6.84 0 0 1 .591-2.927 4.483 4.483 0 0 1 1.687-1.95 4.711 4.711 0 0 1 2.532-.677 4.302 4.302 0 0 1 3.052 1.065A4.451 4.451 0 0 1 77.558 8.5h-1.584a3.417 3.417 0 0 0-.89-2.067 2.703 2.703 0 0 0-1.92-.642 2.83 2.83 0 0 0-2.372 1.117 5.155 5.155 0 0 0-.854 3.182v1.154a5.3 5.3 0 0 0 .81 3.102 2.641 2.641 0 0 0 2.278 1.146 3.046 3.046 0 0 0 2.014-.591 3.341 3.341 0 0 0 .934-2.08zm-11.752 3.795h-1.583l-6.022-9.21v9.21h-1.584V4.66h1.584l6.037 9.256V4.66h1.568zM54.67 12.82a4.405 4.405 0 0 1-1.402 2.935 4.587 4.587 0 0 1-3.131 1.03 4.21 4.21 0 0 1-3.394-1.52 6.134 6.134 0 0 1-1.278-4.072v-1.146a6.84 6.84 0 0 1 .591-2.927 4.483 4.483 0 0 1 1.687-1.95 4.711 4.711 0 0 1 2.532-.677 4.302 4.302 0 0 1 3.052 1.065A4.451 4.451 0 0 1 54.669 8.5h-1.584a3.417 3.417 0 0 0-.89-2.067 2.703 2.703 0 0 0-1.92-.642 2.83 2.83 0 0 0-2.373 1.117 5.155 5.155 0 0 0-.854 3.182v1.154a5.3 5.3 0 0 0 .81 3.102 2.641 2.641 0 0 0 2.278 1.146 3.045 3.045 0 0 0 2.014-.591 3.341 3.341 0 0 0 .935-2.08z"/></g></g></svg>