<svg xmlns="http://www.w3.org/2000/svg" viewBox="2.73 -0.77 443.3 116.55"><defs><clipPath id="clip-path"><path d="M-12.817-7.204h579.174v136.511H-12.817z" class="cls-1"/></clipPath><clipPath id="clip-path-3"><path d="M286.88-1.091h159.84v109.512H286.88z" class="cls-1"/></clipPath><clipPath id="clip-path-4"><path d="M2.481.909h147.6v107.512H2.481z" class="cls-1"/></clipPath><clipPath id="clip-path-5"><path d="M31.844 60.578a11.203 11.203 0 0 1-5.005-3.479 8.102 8.102 0 0 1-1.721-5.102 8.373 8.373 0 0 1 .659-3.48 7.031 7.031 0 0 1 1.758-2.416 8.571 8.571 0 0 1 2.405-1.502 11.302 11.302 0 0 1 2.575-.732v-.39a11.322 11.322 0 0 1-3.198-1.466 6.316 6.316 0 0 1-2.112-2.38 7.657 7.657 0 0 1-.744-3.528 6.936 6.936 0 0 1 1.574-4.456 10.42 10.42 0 0 1 4.566-3.1 20.29 20.29 0 0 1 7.19-1.135 20.27 20.27 0 0 1 7.202 1.135 10.426 10.426 0 0 1 4.553 3.1 6.936 6.936 0 0 1 1.575 4.456 7.662 7.662 0 0 1-.745 3.528 6.359 6.359 0 0 1-2.1 2.38 11.098 11.098 0 0 1-3.21 1.465v.39a11.065 11.065 0 0 1 2.588.733 8.631 8.631 0 0 1 2.392 1.502 7.031 7.031 0 0 1 1.758 2.417 8.373 8.373 0 0 1 .66 3.479 8.102 8.102 0 0 1-1.722 5.102 11.205 11.205 0 0 1-5.005 3.48 22.279 22.279 0 0 1-7.946 1.256 22.276 22.276 0 0 1-7.947-1.257zm10.193-5.884a4.106 4.106 0 0 0 1.587-5.737 4.022 4.022 0 0 0-1.587-1.428 4.856 4.856 0 0 0-2.246-.513 4.8 4.8 0 0 0-2.222.513 4.02 4.02 0 0 0-1.587 1.428 4.004 4.004 0 0 0 1.587 5.737 4.895 4.895 0 0 0 2.222.5 4.952 4.952 0 0 0 2.246-.5zm-.403-14.172a3.4 3.4 0 0 0 0-6.006 3.833 3.833 0 0 0-1.843-.44 3.78 3.78 0 0 0-1.82.44 3.407 3.407 0 0 0 0 6.006 3.78 3.78 0 0 0 1.82.44 3.833 3.833 0 0 0 1.843-.44zm26.932 0h3.662a4.383 4.383 0 0 0 1.928-.39 3 3 0 0 0 1.233-1.038 2.538 2.538 0 0 0 .428-1.428 2.507 2.507 0 0 0-1.062-2.112 4.308 4.308 0 0 0-4.053-.5 3.662 3.662 0 0 0-1.184.78 3.587 3.587 0 0 0-.757 1.1 3.06 3.06 0 0 0-.269 1.244h-9.35a11.407 11.407 0 0 1 1.062-4.565 9.47 9.47 0 0 1 2.722-3.382 12.377 12.377 0 0 1 4.236-2.1 20.085 20.085 0 0 1 5.603-.72 18.86 18.86 0 0 1 6.872 1.124 10.02 10.02 0 0 1 4.42 3.137 7.487 7.487 0 0 1 1.55 4.7 6.607 6.607 0 0 1-1.062 3.881 7.18 7.18 0 0 1-2.515 2.283 8.32 8.32 0 0 1-2.6.94v.513a8.084 8.084 0 0 1 3.32 1 7.069 7.069 0 0 1 2.65 2.564 7.976 7.976 0 0 1 1.037 4.248 8.519 8.519 0 0 1-1.197 4.602 9.303 9.303 0 0 1-3.222 3.113 15.56 15.56 0 0 1-4.505 1.758 22.749 22.749 0 0 1-5.041.561 16.782 16.782 0 0 1-7.605-1.526 10.718 10.718 0 0 1-4.505-4.003 10.131 10.131 0 0 1-1.489-5.31h9.204a2.74 2.74 0 0 0 .574 1.72 3.775 3.775 0 0 0 1.538 1.16 5.408 5.408 0 0 0 2.16.415 5.2 5.2 0 0 0 2.113-.402 3.333 3.333 0 0 0 1.428-1.136 2.865 2.865 0 0 0 .513-1.684 3.158 3.158 0 0 0-.44-1.612 3.192 3.192 0 0 0-1.33-1.22 4.873 4.873 0 0 0-2.259-.464h-3.808zm23.674 1.77a8.84 8.84 0 0 1-2.32-6.409 8.841 8.841 0 0 1 2.32-6.408 9.184 9.184 0 0 1 12.378-.013 8.833 8.833 0 0 1 2.319 6.421 8.842 8.842 0 0 1-2.32 6.409 9.166 9.166 0 0 1-12.377 0zm4.297 18.982l10.424-17.139 7.154-16.186h8.764l-11.06 17.529-6.518 15.796zm3.295-23.071a4.655 4.655 0 0 0 .489-2.344 4.716 4.716 0 0 0-.489-2.368 1.554 1.554 0 0 0-1.416-.83 1.534 1.534 0 0 0-1.391.83 4.712 4.712 0 0 0-.488 2.368 4.664 4.664 0 0 0 .488 2.331 1.53 1.53 0 0 0 1.391.843 1.553 1.553 0 0 0 1.416-.83zm14.49 21.643a8.868 8.868 0 0 1-2.307-6.409 8.86 8.86 0 0 1 2.307-6.42 9.17 9.17 0 0 1 12.354 0 8.86 8.86 0 0 1 2.307 6.42 8.868 8.868 0 0 1-2.307 6.409 9.135 9.135 0 0 1-12.354 0zm7.556-4.09a4.655 4.655 0 0 0 .489-2.343 4.805 4.805 0 0 0-.476-2.38 1.53 1.53 0 0 0-1.404-.819 1.56 1.56 0 0 0-1.404.83 4.618 4.618 0 0 0-.5 2.369 4.571 4.571 0 0 0 .5 2.331 1.557 1.557 0 0 0 1.404.842 1.534 1.534 0 0 0 1.391-.83z" class="cls-1"/></clipPath><clipPath id="clip-path-7"><path d="M145.76.909h151.56v107.512H145.76z" class="cls-1"/></clipPath><clipPath id="clip-path-8"><path d="M181.02 50.44a2.025 2.025 0 0 0 .623 1.038 3.603 3.603 0 0 0 1.27.756 4.765 4.765 0 0 0 1.648.281 4.149 4.149 0 0 0 2.246-.61 5.113 5.113 0 0 0 1.648-1.71 8.014 8.014 0 0 0 .977-2.575 13.265 13.265 0 0 0 .232-3.235h-.562a4.702 4.702 0 0 1-1.282 1.795 7.072 7.072 0 0 1-2.429 1.403 10.285 10.285 0 0 1-3.491.538 12.427 12.427 0 0 1-5.14-1.123 9.945 9.945 0 0 1-4.137-3.467 10.261 10.261 0 0 1-1.636-6.006 11.254 11.254 0 0 1 1.758-6.348 11.49 11.49 0 0 1 4.834-4.101 16.4 16.4 0 0 1 7.03-1.44 16.626 16.626 0 0 1 5.872 1 12.037 12.037 0 0 1 4.627 3.089 14.224 14.224 0 0 1 3.027 5.322 24.547 24.547 0 0 1 1.074 7.703 23.002 23.002 0 0 1-1.733 9.448 12.743 12.743 0 0 1-5.03 5.86 15.098 15.098 0 0 1-7.983 2.001 16.31 16.31 0 0 1-5.688-.891 11.713 11.713 0 0 1-3.943-2.332 9.878 9.878 0 0 1-2.32-3.125 8.852 8.852 0 0 1-.842-3.271zm6.934-15.479a3.439 3.439 0 0 0-1.33-1.416 3.98 3.98 0 0 0-2.063-.512 4.076 4.076 0 0 0-2.05.5 3.396 3.396 0 0 0-1.356 1.416 4.568 4.568 0 0 0-.476 2.136 4.512 4.512 0 0 0 .476 2.112 3.58 3.58 0 0 0 1.343 1.44 4.316 4.316 0 0 0 4.126 0 3.48 3.48 0 0 0 1.33-1.452 4.69 4.69 0 0 0 .464-2.124 4.54 4.54 0 0 0-.464-2.1zm16.257 2.32v-.61a10.898 10.898 0 0 1 .733-3.87 10.61 10.61 0 0 1 2.27-3.565 11.166 11.166 0 0 1 3.967-2.612 15.497 15.497 0 0 1 5.848-.989 16.98 16.98 0 0 1 6.872 1.282 10.844 10.844 0 0 1 4.517 3.467 8.127 8.127 0 0 1 1.599 4.92 9.62 9.62 0 0 1-1.013 4.552 14.495 14.495 0 0 1-2.43 3.37q-1.416 1.452-2.66 2.697l-5.372 5.274v.39h11.939v7.91h-25.61v-6.274l11.596-11.157q.854-.806 1.672-1.685a9.168 9.168 0 0 0 1.355-1.867 4.36 4.36 0 0 0 .538-2.112 2.673 2.673 0 0 0-.415-1.428 3.379 3.379 0 0 0-1.136-1.111 3.1 3.1 0 0 0-1.648-.44 2.957 2.957 0 0 0-2.722 1.6 3.282 3.282 0 0 0-.378 1.55c0 .13.004.26.012.39q.012.196.012.318zm32.102 3.235a8.84 8.84 0 0 1-2.32-6.41 8.841 8.841 0 0 1 2.32-6.408 9.184 9.184 0 0 1 12.378-.012 8.833 8.833 0 0 1 2.32 6.42 8.842 8.842 0 0 1-2.32 6.41 9.166 9.166 0 0 1-12.378 0zm4.297 18.982l10.424-17.14 7.154-16.186h8.764l-11.06 17.53-6.518 15.796zm3.296-23.072a4.655 4.655 0 0 0 .488-2.344 4.717 4.717 0 0 0-.488-2.368 1.554 1.554 0 0 0-1.416-.83 1.534 1.534 0 0 0-1.392.83 4.712 4.712 0 0 0-.488 2.368 4.664 4.664 0 0 0 .488 2.332 1.53 1.53 0 0 0 1.392.842 1.553 1.553 0 0 0 1.416-.83zm14.49 21.643a8.868 8.868 0 0 1-2.308-6.408 8.86 8.86 0 0 1 2.307-6.421 9.17 9.17 0 0 1 12.354 0 8.86 8.86 0 0 1 2.307 6.42 8.868 8.868 0 0 1-2.307 6.41 9.135 9.135 0 0 1-12.354 0zm7.555-4.09a4.655 4.655 0 0 0 .489-2.343 4.805 4.805 0 0 0-.476-2.38 1.53 1.53 0 0 0-1.404-.818 1.56 1.56 0 0 0-1.404.83 4.618 4.618 0 0 0-.5 2.368 4.57 4.57 0 0 0 .5 2.332 1.557 1.557 0 0 0 1.404.842 1.534 1.534 0 0 0 1.392-.83z" class="cls-1"/></clipPath><clipPath id="clip-path-9"><path d="M322.292 55.502a11.202 11.202 0 0 1-5.005-3.48 8.102 8.102 0 0 1-1.721-5.102 8.373 8.373 0 0 1 .659-3.479 7.031 7.031 0 0 1 1.758-2.417 8.57 8.57 0 0 1 2.405-1.501 11.302 11.302 0 0 1 2.575-.733v-.39a11.322 11.322 0 0 1-3.198-1.465 6.316 6.316 0 0 1-2.112-2.38 7.657 7.657 0 0 1-.744-3.528 6.936 6.936 0 0 1 1.574-4.456 10.42 10.42 0 0 1 4.566-3.1 23.375 23.375 0 0 1 14.392 0 10.426 10.426 0 0 1 4.553 3.1 6.936 6.936 0 0 1 1.575 4.456 7.662 7.662 0 0 1-.745 3.527 6.359 6.359 0 0 1-2.1 2.38 11.098 11.098 0 0 1-3.21 1.466v.39a11.065 11.065 0 0 1 2.588.733 8.632 8.632 0 0 1 2.393 1.501 7.031 7.031 0 0 1 1.757 2.417 8.373 8.373 0 0 1 .66 3.48 8.102 8.102 0 0 1-1.722 5.102 11.205 11.205 0 0 1-5.005 3.479 25.742 25.742 0 0 1-15.893 0zm10.193-5.884a4.106 4.106 0 0 0 1.587-5.737 4.022 4.022 0 0 0-1.587-1.429 4.856 4.856 0 0 0-2.246-.512 4.8 4.8 0 0 0-2.222.512 4.02 4.02 0 0 0-1.587 1.429 4.004 4.004 0 0 0 1.587 5.737 4.895 4.895 0 0 0 2.222.5 4.952 4.952 0 0 0 2.246-.5zm-.403-14.172a3.4 3.4 0 0 0 0-6.006 3.833 3.833 0 0 0-1.843-.44 3.78 3.78 0 0 0-1.82.44 3.407 3.407 0 0 0 0 6.006 3.78 3.78 0 0 0 1.82.439 3.833 3.833 0 0 0 1.843-.44zm24.21 20.056a11.202 11.202 0 0 1-5.005-3.48 8.102 8.102 0 0 1-1.721-5.102 8.373 8.373 0 0 1 .659-3.479 7.031 7.031 0 0 1 1.758-2.417 8.57 8.57 0 0 1 2.404-1.501 11.301 11.301 0 0 1 2.576-.733v-.39a11.322 11.322 0 0 1-3.198-1.465 6.316 6.316 0 0 1-2.112-2.38 7.657 7.657 0 0 1-.745-3.528 6.936 6.936 0 0 1 1.575-4.456 10.42 10.42 0 0 1 4.565-3.1 23.375 23.375 0 0 1 14.393 0 10.426 10.426 0 0 1 4.553 3.1 6.936 6.936 0 0 1 1.574 4.456 7.662 7.662 0 0 1-.744 3.527 6.359 6.359 0 0 1-2.1 2.38 11.098 11.098 0 0 1-3.21 1.466v.39a11.065 11.065 0 0 1 2.588.733 8.632 8.632 0 0 1 2.392 1.501 7.031 7.031 0 0 1 1.758 2.417 8.373 8.373 0 0 1 .66 3.48 8.102 8.102 0 0 1-1.722 5.102 11.205 11.205 0 0 1-5.005 3.479 25.742 25.742 0 0 1-15.893 0zm10.192-5.884a4.106 4.106 0 0 0 1.587-5.737 4.022 4.022 0 0 0-1.587-1.429 4.856 4.856 0 0 0-2.246-.512 4.8 4.8 0 0 0-2.221.512 4.02 4.02 0 0 0-1.587 1.429 4.004 4.004 0 0 0 1.587 5.737 4.895 4.895 0 0 0 2.221.5 4.952 4.952 0 0 0 2.246-.5zm-.402-14.172a3.4 3.4 0 0 0 0-6.006 3.833 3.833 0 0 0-1.844-.44 3.78 3.78 0 0 0-1.818.44 3.407 3.407 0 0 0 0 6.006 3.78 3.78 0 0 0 1.818.439 3.833 3.833 0 0 0 1.844-.44zm18.655 1.77a8.84 8.84 0 0 1-2.32-6.41 8.841 8.841 0 0 1 2.32-6.408 9.184 9.184 0 0 1 12.378-.012 8.833 8.833 0 0 1 2.32 6.42 8.842 8.842 0 0 1-2.32 6.41 9.166 9.166 0 0 1-12.378 0zm4.297 18.981l10.425-17.138 7.153-16.187h8.765l-11.06 17.53-6.518 15.796zm3.296-23.07a4.655 4.655 0 0 0 .488-2.345 4.717 4.717 0 0 0-.488-2.368 1.554 1.554 0 0 0-1.416-.83 1.534 1.534 0 0 0-1.392.83 4.712 4.712 0 0 0-.488 2.368 4.664 4.664 0 0 0 .488 2.332 1.53 1.53 0 0 0 1.392.842 1.553 1.553 0 0 0 1.416-.83zm14.49 21.642a8.868 8.868 0 0 1-2.308-6.408 8.86 8.86 0 0 1 2.308-6.421 9.17 9.17 0 0 1 12.353 0 8.86 8.86 0 0 1 2.307 6.42 8.868 8.868 0 0 1-2.307 6.41 9.135 9.135 0 0 1-12.353 0zm7.556-4.09a4.655 4.655 0 0 0 .488-2.343 4.806 4.806 0 0 0-.476-2.38 1.53 1.53 0 0 0-1.404-.818 1.56 1.56 0 0 0-1.404.83 4.618 4.618 0 0 0-.5 2.368 4.571 4.571 0 0 0 .5 2.332 1.557 1.557 0 0 0 1.404.842 1.534 1.534 0 0 0 1.392-.83z" class="cls-1"/></clipPath><style>.cls-1{fill:none}.cls-2{clip-path:url(#clip-path)}.cls-3{opacity:.3}.cls-5{fill:#b9babb}.cls-8{fill:#2f48e4}.cls-9{fill:#2f47e5}.cls-10{fill:#2f46e5}.cls-11{fill:#2f45e5}.cls-12{fill:#2e44e6}.cls-13{fill:#314ee2}.cls-14{fill:#304de3}.cls-15{fill:#304ce3}.cls-16{fill:#304be3}.cls-17{fill:#304ae4}.cls-18{fill:#3049e4}.cls-25{fill:#345dde}.cls-26{fill:#335cde}.cls-27{fill:#335adf}.cls-28{fill:#3359df}.cls-29{fill:#3358df}.cls-30{fill:#3357e0}.cls-31{fill:#3256e0}.cls-32{fill:#3255e0}.cls-33{fill:#3254e1}.cls-34{fill:#3253e1}.cls-35{fill:#3152e1}.cls-36{fill:#3151e1}.cls-37{fill:#3150e2}.cls-38{fill:#314fe2}.cls-39{fill:#3562dc}.cls-40{fill:#3461dd}.cls-41{fill:#3460dd}.cls-42{fill:#345fdd}.cls-43{fill:#345ede}.cls-44{fill:#3b7ed4}.cls-45{fill:#3a7dd4}.cls-46{fill:#3a7cd4}.cls-47{fill:#3a7bd5}.cls-48{fill:#3a7ad5}.cls-49{fill:#3979d5}.cls-50{fill:#3978d6}.cls-51{fill:#3977d6}.cls-52{fill:#3976d6}.cls-53{fill:#3975d7}.cls-54{fill:#3874d7}.cls-55{fill:#3873d7}.cls-56{fill:#3872d8}.cls-57{fill:#3871d8}.cls-58{fill:#3870d8}.cls-59{fill:#376fd8}.cls-60{fill:#376ed9}.cls-61{fill:#376dd9}.cls-62{fill:#376cd9}.cls-63{fill:#376bda}.cls-64{fill:#366ada}.cls-65{fill:#3669da}.cls-66{fill:#3668db}.cls-68{fill:#3566db}.cls-69{fill:#3f93cd}.cls-70{fill:#3f92ce}.cls-71{fill:#3f91ce}.cls-72{fill:#3e90ce}.cls-73{fill:#3e8fcf}.cls-74{fill:#3e8ecf}.cls-75{fill:#3e8dcf}.cls-76{fill:#3d8ccf}.cls-77{fill:#3d8bd0}.cls-88{fill:#3d8ad0}.cls-89{fill:#3d89d0}.cls-90{fill:#3d88d1}.cls-91{fill:#3c87d1}.cls-92{fill:#3c86d1}.cls-93{fill:#3c85d2}.cls-94{fill:#3c84d2}.cls-95{fill:#3c83d2}.cls-96{fill:#3b82d3}.cls-99{fill:#3565dc}.cls-100{fill:#3564dc}.cls-101{fill:#3563dc}.cls-102{fill:#3b81d3}.cls-103{fill:#3b80d3}.cls-104{fill:#3b7fd3}</style></defs><g class="cls-2"><g class="cls-2"><g clip-path="url(#clip-path-3)" class=""><path d="M437.72 107.42H295.88V7.909h141.84zm-138.84-3h135.84V10.909H298.88z" class="cls-5"/></g><g clip-path="url(#clip-path-4)" class=""><path d="M141.08 107.42H11.48V7.909h129.6zm-126.6-3h123.6V10.909H14.48z" class="cls-5"/></g></g><g clip-path="url(#clip-path-5)"><path d="M118.582 50.214h.266v6.372h-.266z" class="cls-8"/><path d="M118.848 50.214h1.115v6.372h-1.115z" class="cls-9"/><path d="M119.963 50.214h1.115v6.372h-1.115z" class="cls-10"/><path d="M121.078 50.214h1.115v6.372h-1.115z" class="cls-11"/><path d="M122.193 50.214h.173v6.372h-.173z" class="cls-12"/><path d="M112.015 44.624h.142v17.627h-.142z" class="cls-13"/><path d="M112.157 44.624h1.115v17.627h-1.115z" class="cls-14"/><path d="M113.272 44.624h1.115v17.627h-1.115z" class="cls-15"/><path d="M114.387 44.624h1.115v17.627h-1.115z" class="cls-16"/><path d="M115.503 44.624h1.115v17.627h-1.115z" class="cls-17"/><path d="M116.618 44.624h1.115v17.627h-1.115z" class="cls-18"/><path d="M117.733 44.624h1.115v17.627h-1.115z" class="cls-8"/><path d="M118.848 44.624h1.115v17.627h-1.115z" class="cls-9"/><path d="M119.963 44.624h1.115v17.627h-1.115z" class="cls-10"/><path d="M121.078 44.624h1.115v17.627h-1.115z" class="cls-11"/><path d="M122.193 44.624h1.115v17.627h-1.115z" class="cls-12"/><path fill="#2e43e6" d="M123.308 44.624h1.115v17.627h-1.115z"/><path fill="#2e42e6" d="M124.424 44.624h1.115v17.627h-1.115z"/><path fill="#2e41e6" d="M125.539 44.624h1.115v17.627h-1.115z"/><path fill="#2e40e7" d="M126.654 44.624h1.115v17.627h-1.115z"/><path fill="#2d3fe7" d="M127.769 44.624h1.115v17.627h-1.115z"/><path fill="#2d3ee7" d="M128.884 44.624h.099v17.627h-.099z"/><path d="M96.537 32.661h.009v6.372h-.009z" class="cls-25"/><path d="M96.545 32.661h1.115v6.372h-1.115z" class="cls-26"/><path d="M97.66 32.661h1.115v6.372H97.66z" class="cls-27"/><path d="M98.776 32.661h1.115v6.372h-1.115z" class="cls-28"/><path d="M99.891 32.661h.43v6.372h-.43z" class="cls-29"/><path d="M96.537 27.949h.009v33.325h-.009z" class="cls-25"/><path d="M96.545 27.949h1.115v33.325h-1.115z" class="cls-26"/><path d="M97.66 27.949h1.115v33.325H97.66z" class="cls-27"/><path d="M98.776 27.949h1.115v33.325h-1.115z" class="cls-28"/><path d="M99.891 27.949h1.115v33.325h-1.115z" class="cls-29"/><path d="M101.006 27.949h1.115v33.325h-1.115z" class="cls-30"/><path d="M102.121 27.949h1.115v33.325h-1.115z" class="cls-31"/><path d="M103.236 27.949h1.115v33.325h-1.115z" class="cls-32"/><path d="M104.351 27.949h1.115v33.325h-1.115z" class="cls-33"/><path d="M105.466 27.949h1.115v33.325h-1.115z" class="cls-34"/><path d="M106.581 27.949h1.115v33.325h-1.115z" class="cls-35"/><path d="M107.697 27.949h1.115v33.325h-1.115z" class="cls-36"/><path d="M108.812 27.949h1.115v33.325h-1.115z" class="cls-37"/><path d="M109.927 27.949h1.115v33.325h-1.115z" class="cls-38"/><path d="M111.042 27.949h1.115v33.325h-1.115z" class="cls-13"/><path d="M112.157 27.949h1.115v33.325h-1.115z" class="cls-14"/><path d="M113.272 27.949h1.115v33.325h-1.115z" class="cls-15"/><path d="M114.387 27.949h1.115v33.325h-1.115z" class="cls-16"/><path d="M115.503 27.949h1.115v33.325h-1.115z" class="cls-17"/><path d="M116.618 27.949h1.115v33.325h-1.115z" class="cls-18"/><path d="M117.733 27.949h1.115v33.325h-1.115z" class="cls-8"/><path d="M118.848 27.949h1.115v33.325h-1.115z" class="cls-9"/><path d="M119.963 27.949h1.115v33.325h-1.115z" class="cls-10"/><path d="M121.078 27.949h1.115v33.325h-1.115z" class="cls-11"/><path d="M122.193 27.949h.686v33.325h-.686z" class="cls-12"/><path d="M89.92 27.07h1.049v17.627H89.92z" class="cls-39"/><path d="M90.97 27.07h1.115v17.627H90.97z" class="cls-40"/><path d="M92.085 27.07H93.2v17.627h-1.115z" class="cls-41"/><path d="M93.2 27.07h1.115v17.627H93.2z" class="cls-42"/><path d="M94.315 27.07h1.115v17.627h-1.115z" class="cls-43"/><path d="M95.43 27.07h1.115v17.627H95.43z" class="cls-25"/><path d="M96.545 27.07h1.115v17.627h-1.115z" class="cls-26"/><path d="M97.66 27.07h1.115v17.627H97.66z" class="cls-27"/><path d="M98.776 27.07h1.115v17.627h-1.115z" class="cls-28"/><path d="M99.891 27.07h1.115v17.627h-1.115z" class="cls-29"/><path d="M101.006 27.07h1.115v17.627h-1.115z" class="cls-30"/><path d="M102.121 27.07h1.115v17.627h-1.115z" class="cls-31"/><path d="M103.236 27.07h1.115v17.627h-1.115z" class="cls-32"/><path d="M104.351 27.07h1.115v17.627h-1.115z" class="cls-33"/><path d="M105.466 27.07h1.115v17.627h-1.115z" class="cls-34"/><path d="M106.581 27.07h.355v17.627h-.355z" class="cls-35"/><path d="M58.873 27.412h.873v34.424h-.873z" class="cls-44"/><path d="M59.746 27.412h1.115v34.424h-1.115z" class="cls-45"/><path d="M60.861 27.412h1.115v34.424h-1.115z" class="cls-46"/><path d="M61.976 27.412h1.115v34.424h-1.115z" class="cls-47"/><path d="M63.091 27.412h1.115v34.424h-1.115z" class="cls-48"/><path d="M64.206 27.412h1.115v34.424h-1.115z" class="cls-49"/><path d="M65.322 27.412h1.115v34.424h-1.115z" class="cls-50"/><path d="M66.437 27.412h1.115v34.424h-1.115z" class="cls-51"/><path d="M67.552 27.412h1.115v34.424h-1.115z" class="cls-52"/><path d="M68.667 27.412h1.115v34.424h-1.115z" class="cls-53"/><path d="M69.782 27.412h1.115v34.424h-1.115z" class="cls-54"/><path d="M70.897 27.412h1.115v34.424h-1.115z" class="cls-55"/><path d="M72.012 27.412h1.115v34.424h-1.115z" class="cls-56"/><path d="M73.127 27.412h1.115v34.424h-1.115z" class="cls-57"/><path d="M74.243 27.412h1.115v34.424h-1.115z" class="cls-58"/><path d="M75.358 27.412h1.115v34.424h-1.115z" class="cls-59"/><path d="M76.473 27.412h1.115v34.424h-1.115z" class="cls-60"/><path d="M77.588 27.412h1.115v34.424h-1.115z" class="cls-61"/><path d="M78.703 27.412h1.115v34.424h-1.115z" class="cls-62"/><path d="M79.818 27.412h1.115v34.424h-1.115z" class="cls-63"/><path d="M80.933 27.412h1.115v34.424h-1.115z" class="cls-64"/><path d="M82.049 27.412h1.115v34.424h-1.115z" class="cls-65"/><path d="M83.164 27.412h1.115v34.424h-1.115z" class="cls-66"/><path fill="#3667db" d="M84.279 27.412h1.115v34.424h-1.115z"/><path d="M85.394 27.412h1.043v34.424h-1.043z" class="cls-68"/><path d="M36.202 34.077h.126v6.885h-.126z" class="cls-69"/><path d="M36.328 34.077h1.115v6.885h-1.115z" class="cls-70"/><path d="M37.443 34.077h1.115v6.885h-1.115z" class="cls-71"/><path d="M38.558 34.077h1.115v6.885h-1.115z" class="cls-72"/><path d="M39.674 34.077h1.115v6.885h-1.115z" class="cls-73"/><path d="M40.789 34.077h1.115v6.885h-1.115z" class="cls-74"/><path d="M41.904 34.077h1.115v6.885h-1.115z" class="cls-75"/><path d="M43.019 34.077h.385v6.885h-.385z" class="cls-76"/><path d="M35.396 47.016h.932v8.179h-.932z" class="cls-69"/><path d="M36.328 47.016h1.115v8.179h-1.115z" class="cls-70"/><path d="M37.443 47.016h1.115v8.179h-1.115z" class="cls-71"/><path d="M38.558 47.016h1.115v8.179h-1.115z" class="cls-72"/><path d="M39.674 47.016h1.115v8.179h-1.115z" class="cls-73"/><path d="M40.789 47.016h1.115v8.179h-1.115z" class="cls-74"/><path d="M41.904 47.016h1.115v8.179h-1.115z" class="cls-75"/><path d="M43.019 47.016h1.115v8.179h-1.115z" class="cls-76"/><path d="M44.134 47.016h.075v8.179h-.075z" class="cls-77"/><path fill="#419dca" d="M25.118 27.412h.059v34.424h-.059z"/><path fill="#419ccb" d="M25.177 27.412h1.115v34.424h-1.115z"/><path fill="#419bcb" d="M26.292 27.412h1.115v34.424h-1.115z"/><path fill="#409acb" d="M27.407 27.412h1.115v34.424h-1.115z"/><path fill="#4099cc" d="M28.522 27.412h1.115v34.424h-1.115z"/><path fill="#4098cc" d="M29.637 27.412h1.115v34.424h-1.115z"/><path fill="#4097cc" d="M30.752 27.412h1.115v34.424h-1.115z"/><path fill="#4096cc" d="M31.868 27.412h1.115v34.424h-1.115z"/><path fill="#3f95cd" d="M32.983 27.412h1.115v34.424h-1.115z"/><path fill="#3f94cd" d="M34.098 27.412h1.115v34.424h-1.115z"/><path d="M35.213 27.412h1.115v34.424h-1.115z" class="cls-69"/><path d="M36.328 27.412h1.115v34.424h-1.115z" class="cls-70"/><path d="M37.443 27.412h1.115v34.424h-1.115z" class="cls-71"/><path d="M38.558 27.412h1.115v34.424h-1.115z" class="cls-72"/><path d="M39.674 27.412h1.115v34.424h-1.115z" class="cls-73"/><path d="M40.789 27.412h1.115v34.424h-1.115z" class="cls-74"/><path d="M41.904 27.412h1.115v34.424h-1.115z" class="cls-75"/><path d="M43.019 27.412h1.115v34.424h-1.115z" class="cls-76"/><path d="M44.134 27.412h1.115v34.424h-1.115z" class="cls-77"/><path d="M45.249 27.412h1.115v34.424h-1.115z" class="cls-88"/><path d="M46.364 27.412h1.115v34.424h-1.115z" class="cls-89"/><path d="M47.479 27.412h1.115v34.424h-1.115z" class="cls-90"/><path d="M48.595 27.412h1.115v34.424h-1.115z" class="cls-91"/><path d="M49.71 27.412h1.115v34.424H49.71z" class="cls-92"/><path d="M50.825 27.412h1.115v34.424h-1.115z" class="cls-93"/><path d="M51.94 27.412h1.115v34.424H51.94z" class="cls-94"/><path d="M53.055 27.412h1.115v34.424h-1.115z" class="cls-95"/><path d="M54.17 27.412h.293v34.424h-.293z" class="cls-96"/></g><g class="cls-2"><g clip-path="url(#clip-path-7)" class=""><path d="M288.32 107.42H154.76V7.909h133.56zm-130.56-3h127.56V10.909H157.76z" class="cls-5"/></g></g><g clip-path="url(#clip-path-8)"><path d="M262.656 48.438h.11v6.372h-.11z" class="cls-37"/><path d="M262.765 48.438h1.38v6.372h-1.38z" class="cls-38"/><path d="M264.145 48.438h1.38v6.372h-1.38z" class="cls-13"/><path d="M265.525 48.438h.914v6.372h-.914z" class="cls-14"/><path d="M256.088 42.847h1.157v17.627h-1.157z" class="cls-33"/><path d="M257.245 42.847h1.38v17.627h-1.38z" class="cls-34"/><path d="M258.625 42.847h1.38v17.627h-1.38z" class="cls-35"/><path d="M260.005 42.847h1.38v17.627h-1.38z" class="cls-36"/><path d="M261.385 42.847h1.38v17.627h-1.38z" class="cls-37"/><path d="M262.765 42.847h1.38v17.627h-1.38z" class="cls-38"/><path d="M264.145 42.847h1.38v17.627h-1.38z" class="cls-13"/><path d="M265.525 42.847h1.38v17.627h-1.38z" class="cls-14"/><path d="M266.905 42.847h1.38v17.627h-1.38z" class="cls-15"/><path d="M268.285 42.847h1.38v17.627h-1.38z" class="cls-16"/><path d="M269.665 42.847h1.38v17.627h-1.38z" class="cls-17"/><path d="M271.045 42.847h1.38v17.627h-1.38z" class="cls-18"/><path d="M272.425 42.847h.631v17.627h-.631z" class="cls-8"/><path d="M240.61 30.884h.076v6.372h-.076z" class="cls-40"/><path d="M240.685 30.884h1.38v6.372h-1.38z" class="cls-41"/><path d="M242.065 30.884h1.38v6.372h-1.38z" class="cls-42"/><path d="M243.445 30.884h.948v6.372h-.948z" class="cls-43"/><path d="M240.61 26.172h.076v33.325h-.076z" class="cls-40"/><path d="M240.685 26.172h1.38v33.325h-1.38z" class="cls-41"/><path d="M242.065 26.172h1.38v33.325h-1.38z" class="cls-42"/><path d="M243.445 26.172h1.38v33.325h-1.38z" class="cls-43"/><path d="M244.825 26.172h1.38v33.325h-1.38z" class="cls-25"/><path d="M246.205 26.172h1.38v33.325h-1.38z" class="cls-26"/><path d="M247.585 26.172h1.38v33.325h-1.38z" class="cls-27"/><path d="M248.965 26.172h1.38v33.325h-1.38z" class="cls-28"/><path d="M250.345 26.172h1.38v33.325h-1.38z" class="cls-29"/><path d="M251.725 26.172h1.38v33.325h-1.38z" class="cls-30"/><path d="M253.105 26.172h1.38v33.325h-1.38z" class="cls-31"/><path d="M254.485 26.172h1.38v33.325h-1.38z" class="cls-32"/><path d="M255.865 26.172h1.38v33.325h-1.38z" class="cls-33"/><path d="M257.245 26.172h1.38v33.325h-1.38z" class="cls-34"/><path d="M258.625 26.172h1.38v33.325h-1.38z" class="cls-35"/><path d="M260.005 26.172h1.38v33.325h-1.38z" class="cls-36"/><path d="M261.385 26.172h1.38v33.325h-1.38z" class="cls-37"/><path d="M262.765 26.172h1.38v33.325h-1.38z" class="cls-38"/><path d="M264.145 26.172h1.38v33.325h-1.38z" class="cls-13"/><path d="M265.525 26.172h1.38v33.325h-1.38z" class="cls-14"/><path d="M266.905 26.172h.047v33.325h-.047z" class="cls-15"/><path d="M233.993 25.293h1.172V42.92h-1.172z" class="cls-99"/><path d="M235.165 25.293h1.38V42.92h-1.38z" class="cls-100"/><path d="M236.545 25.293h1.38V42.92h-1.38z" class="cls-101"/><path d="M237.925 25.293h1.38V42.92h-1.38z" class="cls-39"/><path d="M239.305 25.293h1.38V42.92h-1.38z" class="cls-40"/><path d="M240.685 25.293h1.38V42.92h-1.38z" class="cls-41"/><path d="M242.065 25.293h1.38V42.92h-1.38z" class="cls-42"/><path d="M243.445 25.293h1.38V42.92h-1.38z" class="cls-43"/><path d="M244.825 25.293h1.38V42.92h-1.38z" class="cls-25"/><path d="M246.205 25.293h1.38V42.92h-1.38z" class="cls-26"/><path d="M247.585 25.293h1.38V42.92h-1.38z" class="cls-27"/><path d="M248.965 25.293h1.38V42.92h-1.38z" class="cls-28"/><path d="M250.345 25.293h.665V42.92h-.665z" class="cls-29"/><path d="M204.211 25.635h.594v33.862h-.594z" class="cls-47"/><path d="M204.805 25.635h1.38v33.862h-1.38z" class="cls-48"/><path d="M206.185 25.635h1.38v33.862h-1.38z" class="cls-49"/><path d="M207.565 25.635h1.38v33.862h-1.38z" class="cls-50"/><path d="M208.945 25.635h1.38v33.862h-1.38z" class="cls-51"/><path d="M210.325 25.635h1.38v33.862h-1.38z" class="cls-52"/><path d="M211.705 25.635h1.38v33.862h-1.38z" class="cls-53"/><path d="M213.085 25.635h1.38v33.862h-1.38z" class="cls-54"/><path d="M214.465 25.635h1.38v33.862h-1.38z" class="cls-55"/><path d="M215.845 25.635h1.38v33.862h-1.38z" class="cls-56"/><path d="M217.225 25.635h1.38v33.862h-1.38z" class="cls-57"/><path d="M218.605 25.635h1.38v33.862h-1.38z" class="cls-58"/><path d="M219.985 25.635h1.38v33.862h-1.38z" class="cls-59"/><path d="M221.365 25.635h1.38v33.862h-1.38z" class="cls-60"/><path d="M222.745 25.635h1.38v33.862h-1.38z" class="cls-61"/><path d="M224.125 25.635h1.38v33.862h-1.38z" class="cls-62"/><path d="M225.505 25.635h1.38v33.862h-1.38z" class="cls-63"/><path d="M226.885 25.635h1.38v33.862h-1.38z" class="cls-64"/><path d="M228.265 25.635h1.38v33.862h-1.38z" class="cls-65"/><path d="M229.645 25.635h.835v33.862h-.835z" class="cls-66"/><path d="M180.679 33.033h.666v8.13h-.666z" class="cls-76"/><path d="M181.345 33.033h1.38v8.13h-1.38z" class="cls-77"/><path d="M182.725 33.033h1.38v8.13h-1.38z" class="cls-88"/><path d="M184.105 33.033h1.38v8.13h-1.38z" class="cls-89"/><path d="M185.485 33.033h1.38v8.13h-1.38z" class="cls-90"/><path d="M186.865 33.033h1.38v8.13h-1.38z" class="cls-91"/><path d="M188.245 33.033h.173v8.13h-.173z" class="cls-92"/><path d="M170.987 25.635h.699v34.424h-.699z" class="cls-69"/><path d="M171.685 25.635h1.38v34.424h-1.38z" class="cls-70"/><path d="M173.065 25.635h1.38v34.424h-1.38z" class="cls-71"/><path d="M174.445 25.635h1.38v34.424h-1.38z" class="cls-72"/><path d="M175.825 25.635h1.38v34.424h-1.38z" class="cls-73"/><path d="M177.205 25.635h1.38v34.424h-1.38z" class="cls-74"/><path d="M178.585 25.635h1.38v34.424h-1.38z" class="cls-75"/><path d="M179.965 25.635h1.38v34.424h-1.38z" class="cls-76"/><path d="M181.345 25.635h1.38v34.424h-1.38z" class="cls-77"/><path d="M182.725 25.635h1.38v34.424h-1.38z" class="cls-88"/><path d="M184.105 25.635h1.38v34.424h-1.38z" class="cls-89"/><path d="M185.485 25.635h1.38v34.424h-1.38z" class="cls-90"/><path d="M186.865 25.635h1.38v34.424h-1.38z" class="cls-91"/><path d="M188.245 25.635h1.38v34.424h-1.38z" class="cls-92"/><path d="M189.625 25.635h1.38v34.424h-1.38z" class="cls-93"/><path d="M191.005 25.635h1.38v34.424h-1.38z" class="cls-94"/><path d="M192.385 25.635h1.38v34.424h-1.38z" class="cls-95"/><path d="M193.765 25.635h1.38v34.424h-1.38z" class="cls-96"/><path d="M195.145 25.635h1.38v34.424h-1.38z" class="cls-102"/><path d="M196.525 25.635h1.38v34.424h-1.38z" class="cls-103"/><path d="M197.905 25.635h1.304v34.424h-1.304z" class="cls-104"/></g><g clip-path="url(#clip-path-9)"><path d="M411.08 45.138h.463v6.372h-.463z" class="cls-33"/><path d="M411.543 45.138h1.678v6.372h-1.678z" class="cls-34"/><path d="M413.22 45.138h1.644v6.372h-1.644z" class="cls-35"/><path d="M404.512 39.547h.319v17.627h-.319z" class="cls-29"/><path d="M404.832 39.547h1.678v17.627h-1.678z" class="cls-30"/><path d="M406.509 39.547h1.678v17.627h-1.678z" class="cls-31"/><path d="M408.187 39.547h1.678v17.627h-1.678z" class="cls-32"/><path d="M409.865 39.547h1.678v17.627h-1.678z" class="cls-33"/><path d="M411.543 39.547h1.678v17.627h-1.678z" class="cls-34"/><path d="M413.22 39.547h1.678v17.627h-1.678z" class="cls-35"/><path d="M414.898 39.547h1.678v17.627h-1.678z" class="cls-36"/><path d="M416.576 39.547h1.678v17.627h-1.678z" class="cls-37"/><path d="M418.254 39.547h1.678v17.627h-1.678z" class="cls-38"/><path d="M419.932 39.547h1.549v17.627h-1.549z" class="cls-13"/><path d="M389.034 27.584h.698v6.372h-.698z" class="cls-39"/><path d="M389.732 27.584h1.678v6.372h-1.678z" class="cls-40"/><path d="M391.409 27.584h1.409v6.372h-1.409z" class="cls-41"/><path d="M389.034 22.872h.698v33.325h-.698z" class="cls-39"/><path d="M389.732 22.872h1.678v33.325h-1.678z" class="cls-40"/><path d="M391.409 22.872h1.678v33.325h-1.678z" class="cls-41"/><path d="M393.087 22.872h1.678v33.325h-1.678z" class="cls-42"/><path d="M394.765 22.872h1.678v33.325h-1.678z" class="cls-43"/><path d="M396.443 22.872h1.678v33.325h-1.678z" class="cls-25"/><path d="M398.12 22.872h1.678v33.325h-1.678z" class="cls-26"/><path d="M399.798 22.872h1.678v33.325h-1.678z" class="cls-27"/><path d="M401.476 22.872h1.678v33.325h-1.678z" class="cls-28"/><path d="M403.154 22.872h1.678v33.325h-1.678z" class="cls-29"/><path d="M404.832 22.872h1.678v33.325h-1.678z" class="cls-30"/><path d="M406.509 22.872h1.678v33.325h-1.678z" class="cls-31"/><path d="M408.187 22.872h1.678v33.325h-1.678z" class="cls-32"/><path d="M409.865 22.872h1.678v33.325h-1.678z" class="cls-33"/><path d="M411.543 22.872h1.678v33.325h-1.678z" class="cls-34"/><path d="M413.22 22.872h1.678v33.325h-1.678z" class="cls-35"/><path d="M414.898 22.872h.478v33.325h-.478z" class="cls-36"/><path d="M382.418 21.993h.603V39.62h-.603z" class="cls-68"/><path d="M383.02 21.993h1.678V39.62h-1.678z" class="cls-99"/><path d="M384.698 21.993h1.678V39.62h-1.678z" class="cls-100"/><path d="M386.376 21.993h1.678V39.62h-1.678z" class="cls-101"/><path d="M388.054 21.993h1.678V39.62h-1.678z" class="cls-39"/><path d="M389.732 21.993h1.678V39.62h-1.678z" class="cls-40"/><path d="M391.409 21.993h1.678V39.62h-1.678z" class="cls-41"/><path d="M393.087 21.993h1.678V39.62h-1.678z" class="cls-42"/><path d="M394.765 21.993h1.678V39.62h-1.678z" class="cls-43"/><path d="M396.443 21.993h1.678V39.62h-1.678z" class="cls-25"/><path d="M398.12 21.993h1.314V39.62h-1.314z" class="cls-26"/><path d="M360.649 29h.56v6.885h-.56z" class="cls-55"/><path d="M361.209 29h1.678v6.885h-1.678z" class="cls-56"/><path d="M362.887 29h1.678v6.885h-1.678z" class="cls-57"/><path d="M364.565 29h1.678v6.885h-1.678z" class="cls-58"/><path d="M366.243 29h1.609v6.885h-1.609z" class="cls-59"/><path d="M359.844 41.94h1.365v8.179h-1.365z" class="cls-55"/><path d="M361.209 41.94h1.678v8.179h-1.678z" class="cls-56"/><path d="M362.887 41.94h1.678v8.179h-1.678z" class="cls-57"/><path d="M364.565 41.94h1.678v8.179h-1.678z" class="cls-58"/><path d="M366.243 41.94h1.678v8.179h-1.678z" class="cls-59"/><path d="M367.92 41.94h.737v8.179h-.737z" class="cls-60"/><path d="M349.565 22.335h1.577v34.424h-1.577z" class="cls-49"/><path d="M351.143 22.335h1.678v34.424h-1.678z" class="cls-50"/><path d="M352.82 22.335h1.678v34.424h-1.678z" class="cls-51"/><path d="M354.498 22.335h1.678v34.424h-1.678z" class="cls-52"/><path d="M356.176 22.335h1.678v34.424h-1.678z" class="cls-53"/><path d="M357.854 22.335h1.678v34.424h-1.678z" class="cls-54"/><path d="M359.532 22.335h1.678v34.424h-1.678z" class="cls-55"/><path d="M361.209 22.335h1.678v34.424h-1.678z" class="cls-56"/><path d="M362.887 22.335h1.678v34.424h-1.678z" class="cls-57"/><path d="M364.565 22.335h1.678v34.424h-1.678z" class="cls-58"/><path d="M366.243 22.335h1.678v34.424h-1.678z" class="cls-59"/><path d="M367.92 22.335h1.678v34.424h-1.678z" class="cls-60"/><path d="M369.598 22.335h1.678v34.424h-1.678z" class="cls-61"/><path d="M371.276 22.335h1.678v34.424h-1.678z" class="cls-62"/><path d="M372.954 22.335h1.678v34.424h-1.678z" class="cls-63"/><path d="M374.632 22.335h1.678v34.424h-1.678z" class="cls-64"/><path d="M376.309 22.335h1.678v34.424h-1.678z" class="cls-65"/><path d="M377.987 22.335h.924v34.424h-.924z" class="cls-66"/><path d="M326.65 29h1.004v6.885h-1.004z" class="cls-91"/><path d="M327.654 29h1.678v6.885h-1.678z" class="cls-92"/><path d="M329.332 29h1.678v6.885h-1.678z" class="cls-93"/><path d="M331.009 29h1.678v6.885h-1.678z" class="cls-94"/><path d="M332.687 29h1.165v6.885h-1.165z" class="cls-95"/><path d="M325.844 41.94h.132v8.179h-.132z" class="cls-90"/><path d="M325.976 41.94h1.678v8.179h-1.678z" class="cls-91"/><path d="M327.654 41.94h1.678v8.179h-1.678z" class="cls-92"/><path d="M329.332 41.94h1.678v8.179h-1.678z" class="cls-93"/><path d="M331.009 41.94h1.678v8.179h-1.678z" class="cls-94"/><path d="M332.687 41.94h1.678v8.179h-1.678z" class="cls-95"/><path d="M334.365 41.94h.293v8.179h-.293z" class="cls-96"/><path d="M315.566 22.335h.343v34.424h-.343z" class="cls-74"/><path d="M315.909 22.335h1.678v34.424h-1.678z" class="cls-75"/><path d="M317.587 22.335h1.678v34.424h-1.678z" class="cls-76"/><path d="M319.265 22.335h1.678v34.424h-1.678z" class="cls-77"/><path d="M320.943 22.335h1.678v34.424h-1.678z" class="cls-88"/><path d="M322.62 22.335h1.678v34.424h-1.678z" class="cls-89"/><path d="M324.298 22.335h1.678v34.424h-1.678z" class="cls-90"/><path d="M325.976 22.335h1.678v34.424h-1.678z" class="cls-91"/><path d="M327.654 22.335h1.678v34.424h-1.678z" class="cls-92"/><path d="M329.332 22.335h1.678v34.424h-1.678z" class="cls-93"/><path d="M331.009 22.335h1.678v34.424h-1.678z" class="cls-94"/><path d="M332.687 22.335h1.678v34.424h-1.678z" class="cls-95"/><path d="M334.365 22.335h1.678v34.424h-1.678z" class="cls-96"/><path d="M336.043 22.335h1.678v34.424h-1.678z" class="cls-102"/><path d="M337.72 22.335h1.678v34.424h-1.678z" class="cls-103"/><path d="M339.398 22.335h1.678v34.424h-1.678z" class="cls-104"/><path d="M341.076 22.335h1.678v34.424h-1.678z" class="cls-44"/><path d="M342.754 22.335h1.678v34.424h-1.678z" class="cls-45"/><path d="M344.432 22.335h.48v34.424h-.48z" class="cls-46"/></g><path fill="#737578" d="M27.914 82.7V76.7h.796l1.955 4.596h.026l1.952-4.596h.79V82.7H32.7v-4.36h-.044l-1.652 3.833h-.66l-1.657-3.832h-.039v4.36zm7.383-.315a1.335 1.335 0 0 1-.42-1.03 1.265 1.265 0 0 1 .415-.983 1.751 1.751 0 0 1 1.21-.376h1.209v-.457a.793.793 0 0 0-.26-.654 1.094 1.094 0 0 0-.707-.211 1.38 1.38 0 0 0-.48.07.677.677 0 0 0-.29.194.788.788 0 0 0-.153.285h-.768a1.317 1.317 0 0 1 .151-.52 1.148 1.148 0 0 1 .345-.383 1.595 1.595 0 0 1 .527-.237 2.7 2.7 0 0 1 .695-.081 2.467 2.467 0 0 1 .872.148 1.336 1.336 0 0 1 .63.489 1.548 1.548 0 0 1 .238.905v3.155h-.765v-.615h-.035a1.54 1.54 0 0 1-.292.343 1.352 1.352 0 0 1-.433.253 1.73 1.73 0 0 1-.597.093 1.539 1.539 0 0 1-1.092-.388zm1.874-.408a1.062 1.062 0 0 0 .393-.352.902.902 0 0 0 .147-.508v-.513h-1.143a.92.92 0 0 0-.673.206.706.706 0 0 0-.206.518.66.66 0 0 0 .28.589 1.113 1.113 0 0 0 .64.188 1.194 1.194 0 0 0 .562-.128zm3.054-5.72a.55.55 0 0 1 .397-.153.577.577 0 0 1 .413.153.52.52 0 0 1 .163.395.513.513 0 0 1-.163.391.573.573 0 0 1-.413.154.547.547 0 0 1-.397-.154.514.514 0 0 1-.16-.39.522.522 0 0 1 .16-.396zm.006 1.82h.795v4.622h-.795zm2.551 0h.786v.839h.044a1.494 1.494 0 0 1 .202-.396 1.196 1.196 0 0 1 .431-.365 1.631 1.631 0 0 1 .77-.153 1.654 1.654 0 0 1 1.133.382 1.464 1.464 0 0 1 .435 1.16v3.155h-.795v-2.904a1.377 1.377 0 0 0-.121-.61.832.832 0 0 0-.345-.367 1.11 1.11 0 0 0-.536-.123 1.15 1.15 0 0 0-.675.19 1.135 1.135 0 0 0-.402.514 1.92 1.92 0 0 0-.132.725V82.7h-.795zm5.666-1.147h.786v1.16h1.046v.645h-1.046v2.663a.705.705 0 0 0 .163.547.917.917 0 0 0 .584.139c.056 0 .123-.003.199-.009l.167-.013v.637a1.727 1.727 0 0 1-.242.027 4.87 4.87 0 0 1-.326.012 1.93 1.93 0 0 1-.837-.142.755.755 0 0 1-.393-.44 2.277 2.277 0 0 1-.106-.754v-2.667h-.707v-.645h.712zm3.357 5.455a1.335 1.335 0 0 1-.42-1.03 1.265 1.265 0 0 1 .415-.983 1.751 1.751 0 0 1 1.21-.376h1.21v-.457a.793.793 0 0 0-.262-.654 1.091 1.091 0 0 0-.705-.211 1.386 1.386 0 0 0-.482.07.677.677 0 0 0-.29.194.786.786 0 0 0-.15.285h-.77a1.317 1.317 0 0 1 .15-.52 1.151 1.151 0 0 1 .347-.383 1.595 1.595 0 0 1 .527-.237 2.7 2.7 0 0 1 .694-.081 2.461 2.461 0 0 1 .872.148 1.338 1.338 0 0 1 .631.489 1.548 1.548 0 0 1 .238.905v3.155h-.765v-.615h-.035a1.545 1.545 0 0 1-.293.343 1.352 1.352 0 0 1-.433.253 1.73 1.73 0 0 1-.598.093 1.539 1.539 0 0 1-1.091-.388zm1.874-.408a1.063 1.063 0 0 0 .393-.352.903.903 0 0 0 .148-.508v-.513h-1.143a.922.922 0 0 0-.675.206.705.705 0 0 0-.204.518.662.662 0 0 0 .279.589 1.115 1.115 0 0 0 .64.188 1.194 1.194 0 0 0 .562-.128zm3.054-5.72a.55.55 0 0 1 .398-.153.577.577 0 0 1 .413.153.52.52 0 0 1 .162.395.512.512 0 0 1-.162.391.573.573 0 0 1-.413.154.547.547 0 0 1-.398-.154.515.515 0 0 1-.16-.39.523.523 0 0 1 .16-.396zm.006 1.82h.796v4.622h-.796zm2.542 0h.786v.839h.044a1.494 1.494 0 0 1 .203-.396 1.196 1.196 0 0 1 .43-.365 1.631 1.631 0 0 1 .77-.153 1.654 1.654 0 0 1 1.134.382 1.464 1.464 0 0 1 .434 1.16v3.155h-.795v-2.904a1.377 1.377 0 0 0-.121-.61.833.833 0 0 0-.345-.367 1.11 1.11 0 0 0-.536-.123 1.15 1.15 0 0 0-.675.19 1.135 1.135 0 0 0-.402.514 1.92 1.92 0 0 0-.132.725V82.7h-.795zm6.115 4.448a1.654 1.654 0 0 1-.68-.705 2.329 2.329 0 0 1-.235-1.08v-.704a2.221 2.221 0 0 1 .25-1.083 1.753 1.753 0 0 1 .682-.703 2.093 2.093 0 0 1 1.98.002 1.773 1.773 0 0 1 .68.707 2.243 2.243 0 0 1 .245 1.077v.558h-3.046v.233a1.38 1.38 0 0 0 .304.905 1.072 1.072 0 0 0 .88.37 1.363 1.363 0 0 0 .476-.078.951.951 0 0 0 .338-.202.598.598 0 0 0 .17-.265h.817a1.138 1.138 0 0 1-.148.395 1.52 1.52 0 0 1-.34.398 1.758 1.758 0 0 1-.545.305 2.23 2.23 0 0 1-.765.118 2.14 2.14 0 0 1-1.063-.248zm2.131-2.506v-.076a1.513 1.513 0 0 0-.14-.67 1.067 1.067 0 0 0-.394-.445 1.09 1.09 0 0 0-.59-.158 1.103 1.103 0 0 0-.594.158 1.058 1.058 0 0 0-.396.445 1.513 1.513 0 0 0-.14.67v.076zm2.247-1.943h.796v.712h.04a1.408 1.408 0 0 1 .202-.334 1.198 1.198 0 0 1 .4-.314 1.445 1.445 0 0 1 .663-.134 1.474 1.474 0 0 1 .147.007l.143.014v.726a1.001 1.001 0 0 0-.16-.02 3.023 3.023 0 0 0-.213-.006 1.38 1.38 0 0 0-.675.149 1 1 0 0 0-.406.4 1.172 1.172 0 0 0-.137.567v2.856h-.8zm6.059 3.103a1.036 1.036 0 0 0 .163.386 1.086 1.086 0 0 0 .306.294 1.47 1.47 0 0 0 .43.192 1.974 1.974 0 0 0 .539.068 1.85 1.85 0 0 0 .722-.127 1.043 1.043 0 0 0 .464-.361.931.931 0 0 0 .162-.549.759.759 0 0 0-.237-.582 1.679 1.679 0 0 0-.738-.35l-1.041-.272a2.344 2.344 0 0 1-.77-.334 1.452 1.452 0 0 1-.65-1.248 1.538 1.538 0 0 1 .272-.899 1.82 1.82 0 0 1 .745-.615 2.501 2.501 0 0 1 1.08-.221 2.559 2.559 0 0 1 1.045.2 1.822 1.822 0 0 1 .723.56 1.563 1.563 0 0 1 .314.812h-.813a.963.963 0 0 0-.224-.461 1.14 1.14 0 0 0-.44-.3 1.647 1.647 0 0 0-.62-.108 1.423 1.423 0 0 0-.913.276.878.878 0 0 0-.347.72.718.718 0 0 0 .218.533 1.348 1.348 0 0 0 .626.32l1.023.268a3.286 3.286 0 0 1 .875.356 1.428 1.428 0 0 1 .519.533 1.554 1.554 0 0 1 .17.75 1.66 1.66 0 0 1-.274.952 1.78 1.78 0 0 1-.777.629 2.966 2.966 0 0 1-1.198.221 2.897 2.897 0 0 1-.862-.119 2.03 2.03 0 0 1-.668-.338 1.677 1.677 0 0 1-.445-.52 1.657 1.657 0 0 1-.196-.666zm5.178 1.206a1.335 1.335 0 0 1-.42-1.03 1.265 1.265 0 0 1 .415-.983 1.751 1.751 0 0 1 1.21-.376h1.21v-.457a.793.793 0 0 0-.262-.654 1.091 1.091 0 0 0-.705-.211 1.386 1.386 0 0 0-.481.07.677.677 0 0 0-.29.194.786.786 0 0 0-.152.285h-.77a1.317 1.317 0 0 1 .152-.52 1.151 1.151 0 0 1 .346-.383 1.595 1.595 0 0 1 .527-.237 2.7 2.7 0 0 1 .694-.081 2.461 2.461 0 0 1 .872.148 1.338 1.338 0 0 1 .631.489 1.548 1.548 0 0 1 .238.905v3.155h-.765v-.615h-.035a1.545 1.545 0 0 1-.293.343 1.352 1.352 0 0 1-.433.253 1.73 1.73 0 0 1-.597.093 1.539 1.539 0 0 1-1.092-.388zm1.874-.408a1.062 1.062 0 0 0 .393-.352.903.903 0 0 0 .148-.508v-.513h-1.143a.922.922 0 0 0-.675.206.705.705 0 0 0-.204.518.662.662 0 0 0 .279.589 1.115 1.115 0 0 0 .64.188 1.194 1.194 0 0 0 .562-.128zm3.2-5.047h.787v1.16h1.046v.645h-1.046v2.663a.705.705 0 0 0 .163.547.917.917 0 0 0 .584.139c.056 0 .122-.003.198-.009l.167-.013v.637a1.728 1.728 0 0 1-.242.027 4.871 4.871 0 0 1-.325.012 1.93 1.93 0 0 1-.837-.142.755.755 0 0 1-.393-.44 2.277 2.277 0 0 1-.106-.754v-2.667h-.707v-.645h.712zm3.306-.673a.55.55 0 0 1 .397-.153.577.577 0 0 1 .413.153.52.52 0 0 1 .162.395.512.512 0 0 1-.162.391.573.573 0 0 1-.413.154.547.547 0 0 1-.397-.154.515.515 0 0 1-.162-.39.523.523 0 0 1 .162-.396zm.005 1.82h.796v4.622h-.796zm2.576.525a1.404 1.404 0 0 1 .636-.456 2.413 2.413 0 0 1 .842-.144 2.161 2.161 0 0 1 .872.162 1.372 1.372 0 0 1 .578.45 1.136 1.136 0 0 1 .206.679h-.738a.655.655 0 0 0-.118-.316.777.777 0 0 0-.31-.252 1.18 1.18 0 0 0-.516-.1 1.148 1.148 0 0 0-.666.18.59.59 0 0 0-.262.52.5.5 0 0 0 .106.331.723.723 0 0 0 .275.197 1.794 1.794 0 0 0 .371.113c.135.026.267.052.396.075a4.6 4.6 0 0 1 .793.204 1.33 1.33 0 0 1 .573.382 1.057 1.057 0 0 1 .216.705 1.319 1.319 0 0 1-.23.785 1.427 1.427 0 0 1-.647.49 2.603 2.603 0 0 1-.97.166 2.55 2.55 0 0 1-.904-.148 1.36 1.36 0 0 1-.612-.438 1.123 1.123 0 0 1-.22-.7h.779a.78.78 0 0 0 .14.355.692.692 0 0 0 .32.231 1.507 1.507 0 0 0 .533.081 1.446 1.446 0 0 0 .59-.101.73.73 0 0 0 .333-.264.652.652 0 0 0 .105-.364.5.5 0 0 0-.154-.396 1.038 1.038 0 0 0-.417-.209q-.264-.072-.585-.134a5.925 5.925 0 0 1-.784-.212 1.287 1.287 0 0 1-.565-.373 1.04 1.04 0 0 1-.21-.698 1.254 1.254 0 0 1 .244-.801zm5.017.133h-.777v-.645h.777v-.462a1.283 1.283 0 0 1 .34-.982 1.61 1.61 0 0 1 1.11-.314c.103 0 .206.003.308.008q.154.01.22.017V77a1.632 1.632 0 0 0-.189-.014 7.019 7.019 0 0 0-.224-.004.956.956 0 0 0-.593.147.69.69 0 0 0-.185.56v.4h1.073v.646h-1.064V82.7h-.796zm3.24 3.65a1.335 1.335 0 0 1-.42-1.03 1.265 1.265 0 0 1 .416-.983 1.751 1.751 0 0 1 1.21-.376h1.21v-.457a.793.793 0 0 0-.262-.654 1.091 1.091 0 0 0-.705-.211 1.386 1.386 0 0 0-.482.07.677.677 0 0 0-.29.194.786.786 0 0 0-.151.285h-.77a1.317 1.317 0 0 1 .152-.52 1.151 1.151 0 0 1 .345-.383 1.595 1.595 0 0 1 .528-.237 2.7 2.7 0 0 1 .694-.081 2.461 2.461 0 0 1 .872.148 1.338 1.338 0 0 1 .631.489 1.548 1.548 0 0 1 .237.905v3.155h-.764v-.615h-.035a1.545 1.545 0 0 1-.293.343 1.352 1.352 0 0 1-.433.253 1.73 1.73 0 0 1-.598.093 1.539 1.539 0 0 1-1.092-.388zm1.874-.408a1.062 1.062 0 0 0 .394-.352.903.903 0 0 0 .147-.508v-.513h-1.142a.922.922 0 0 0-.675.206.705.705 0 0 0-.204.518.662.662 0 0 0 .278.589 1.115 1.115 0 0 0 .64.188 1.194 1.194 0 0 0 .563-.128zM104.83 80a2.257 2.257 0 0 1 .234-1.057 1.677 1.677 0 0 1 .668-.696 2.315 2.315 0 0 1 1.998-.038 1.526 1.526 0 0 1 .593.532 1.308 1.308 0 0 1 .211.67h-.773a1.046 1.046 0 0 0-.121-.306.79.79 0 0 0-.301-.29 1.127 1.127 0 0 0-.567-.12 1.039 1.039 0 0 0-.855.36 1.498 1.498 0 0 0-.292.971v.739a1.422 1.422 0 0 0 .306.956 1.049 1.049 0 0 0 .841.358 1.375 1.375 0 0 0 .551-.093.758.758 0 0 0 .32-.244.88.88 0 0 0 .149-.327h.773a1.304 1.304 0 0 1-.21.652 1.417 1.417 0 0 1-.592.51 2.245 2.245 0 0 1-1.004.195 2.034 2.034 0 0 1-1.027-.246 1.67 1.67 0 0 1-.668-.698 2.303 2.303 0 0 1-.234-1.072zm5.315-3.071h.786v1.16h1.046v.645h-1.046v2.663a.705.705 0 0 0 .163.547.917.917 0 0 0 .584.139c.055 0 .122-.003.198-.009l.167-.013v.637a1.727 1.727 0 0 1-.242.027 4.87 4.87 0 0 1-.325.012 1.93 1.93 0 0 1-.837-.142.755.755 0 0 1-.394-.44 2.277 2.277 0 0 1-.105-.754v-2.667h-.707v-.645h.712zm3.304-.673a.55.55 0 0 1 .398-.153.577.577 0 0 1 .413.153.52.52 0 0 1 .162.395.512.512 0 0 1-.162.391.573.573 0 0 1-.413.154.547.547 0 0 1-.398-.154.515.515 0 0 1-.16-.39.523.523 0 0 1 .16-.396zm.006 1.82h.796v4.622h-.796zm5.353.164a1.745 1.745 0 0 1 .71.698 2.21 2.21 0 0 1 .258 1.102v.686a2.224 2.224 0 0 1-.258 1.109 1.745 1.745 0 0 1-.71.698 2.148 2.148 0 0 1-1.027.24 2.19 2.19 0 0 1-1.035-.237 1.712 1.712 0 0 1-.707-.697 2.24 2.24 0 0 1-.257-1.113v-.682a2.169 2.169 0 0 1 .259-1.086 1.822 1.822 0 0 1 .712-.707 2.088 2.088 0 0 1 1.028-.25 2.148 2.148 0 0 1 1.027.24zm-1.666.62a1.188 1.188 0 0 0-.417.505 1.771 1.771 0 0 0-.148.745v.558a1.853 1.853 0 0 0 .14.751 1.126 1.126 0 0 0 .412.502 1.157 1.157 0 0 0 .657.18 1.075 1.075 0 0 0 1.052-.682 1.87 1.87 0 0 0 .139-.751v-.558a1.838 1.838 0 0 0-.143-.748 1.178 1.178 0 0 0-.411-.503 1.108 1.108 0 0 0-.637-.182 1.13 1.13 0 0 0-.644.182zm4.043-.785h.786v.84h.044a1.494 1.494 0 0 1 .202-.396 1.196 1.196 0 0 1 .43-.365 1.631 1.631 0 0 1 .77-.153 1.654 1.654 0 0 1 1.134.382 1.464 1.464 0 0 1 .434 1.16v3.155h-.795v-2.904a1.377 1.377 0 0 0-.12-.61.833.833 0 0 0-.345-.367 1.11 1.11 0 0 0-.536-.123 1.15 1.15 0 0 0-.675.19 1.135 1.135 0 0 0-.403.513 1.92 1.92 0 0 0-.131.726v2.575h-.795zm53.952.997a1.335 1.335 0 0 1-.42-1.03 1.265 1.265 0 0 1 .415-.982 1.751 1.751 0 0 1 1.21-.376h1.209v-.457a.793.793 0 0 0-.261-.655 1.094 1.094 0 0 0-.706-.21 1.38 1.38 0 0 0-.48.07.677.677 0 0 0-.29.193.788.788 0 0 0-.153.285h-.768a1.317 1.317 0 0 1 .15-.52 1.148 1.148 0 0 1 .346-.382 1.595 1.595 0 0 1 .527-.238 2.7 2.7 0 0 1 .694-.08 2.466 2.466 0 0 1 .873.148 1.336 1.336 0 0 1 .63.488 1.548 1.548 0 0 1 .238.905v3.156h-.765v-.616h-.035a1.54 1.54 0 0 1-.292.343 1.352 1.352 0 0 1-.433.253 1.73 1.73 0 0 1-.598.094 1.539 1.539 0 0 1-1.091-.389zm1.874-.408a1.063 1.063 0 0 0 .393-.352.902.902 0 0 0 .147-.507v-.514h-1.143a.92.92 0 0 0-.674.206.706.706 0 0 0-.205.519.66.66 0 0 0 .28.588 1.113 1.113 0 0 0 .64.189 1.194 1.194 0 0 0 .562-.129zm2.75-3.9h.796v.712h.039a1.408 1.408 0 0 1 .202-.334 1.198 1.198 0 0 1 .4-.315 1.446 1.446 0 0 1 .663-.134c.05 0 .099.002.148.007.048.004.095.01.142.015v.725a1.001 1.001 0 0 0-.16-.02 3.017 3.017 0 0 0-.213-.006 1.38 1.38 0 0 0-.674.15 1 1 0 0 0-.407.399 1.172 1.172 0 0 0-.136.567v2.857h-.8zm3.937 4.449a1.654 1.654 0 0 1-.678-.705 2.329 2.329 0 0 1-.236-1.081v-.703a2.221 2.221 0 0 1 .25-1.083 1.753 1.753 0 0 1 .682-.704 2.093 2.093 0 0 1 1.98.002 1.773 1.773 0 0 1 .679.707 2.243 2.243 0 0 1 .246 1.078v.557h-3.046v.234a1.38 1.38 0 0 0 .304.905 1.072 1.072 0 0 0 .879.37 1.363 1.363 0 0 0 .476-.078.95.95 0 0 0 .34-.202.598.598 0 0 0 .168-.266h.818a1.138 1.138 0 0 1-.148.396 1.52 1.52 0 0 1-.34.397 1.759 1.759 0 0 1-.546.306 2.23 2.23 0 0 1-.764.118 2.14 2.14 0 0 1-1.064-.248zm2.132-2.507v-.075a1.513 1.513 0 0 0-.14-.67 1.067 1.067 0 0 0-.394-.445 1.09 1.09 0 0 0-.59-.159 1.103 1.103 0 0 0-.595.159 1.058 1.058 0 0 0-.395.445 1.513 1.513 0 0 0-.14.67v.075zm3.768-1.417a1.41 1.41 0 0 1 .636-.455 2.416 2.416 0 0 1 .842-.145 2.158 2.158 0 0 1 .872.163 1.366 1.366 0 0 1 .578.45 1.137 1.137 0 0 1 .207.678h-.738a.656.656 0 0 0-.12-.316.777.777 0 0 0-.309-.252 1.18 1.18 0 0 0-.516-.1 1.15 1.15 0 0 0-.666.181.592.592 0 0 0-.261.519.5.5 0 0 0 .105.332.72.72 0 0 0 .275.197 1.793 1.793 0 0 0 .371.112c.135.027.267.052.396.075a4.58 4.58 0 0 1 .793.204 1.328 1.328 0 0 1 .574.382 1.056 1.056 0 0 1 .215.705 1.319 1.319 0 0 1-.23.786 1.427 1.427 0 0 1-.647.49 2.603 2.603 0 0 1-.97.166 2.55 2.55 0 0 1-.904-.149 1.356 1.356 0 0 1-.61-.437 1.123 1.123 0 0 1-.22-.701h.777a.78.78 0 0 0 .14.355.695.695 0 0 0 .322.232 1.5 1.5 0 0 0 .531.08 1.443 1.443 0 0 0 .59-.1.726.726 0 0 0 .333-.265.652.652 0 0 0 .105-.364.5.5 0 0 0-.153-.395 1.043 1.043 0 0 0-.418-.21q-.264-.071-.584-.133a5.982 5.982 0 0 1-.785-.213 1.292 1.292 0 0 1-.565-.372 1.04 1.04 0 0 1-.21-.698 1.254 1.254 0 0 1 .244-.802zm4.508 3.783a1.335 1.335 0 0 1-.42-1.03 1.265 1.265 0 0 1 .416-.982 1.751 1.751 0 0 1 1.21-.376h1.208v-.457a.793.793 0 0 0-.26-.655 1.094 1.094 0 0 0-.706-.21 1.38 1.38 0 0 0-.48.07.677.677 0 0 0-.29.193.788.788 0 0 0-.153.285h-.769a1.317 1.317 0 0 1 .152-.52 1.148 1.148 0 0 1 .344-.382 1.595 1.595 0 0 1 .528-.238 2.7 2.7 0 0 1 .694-.08 2.466 2.466 0 0 1 .873.148 1.336 1.336 0 0 1 .63.488 1.548 1.548 0 0 1 .237.905v3.156h-.764v-.616h-.036a1.54 1.54 0 0 1-.292.343 1.352 1.352 0 0 1-.432.253 1.73 1.73 0 0 1-.598.094 1.539 1.539 0 0 1-1.092-.389zm1.874-.408a1.063 1.063 0 0 0 .394-.352.902.902 0 0 0 .146-.507v-.514h-1.142a.92.92 0 0 0-.674.206.706.706 0 0 0-.205.519.66.66 0 0 0 .28.588 1.113 1.113 0 0 0 .639.189 1.194 1.194 0 0 0 .562-.129zm2.931-5.047h.786v1.16h1.046v.646h-1.046v2.663a.705.705 0 0 0 .163.547.917.917 0 0 0 .584.138c.056 0 .122-.002.199-.008l.167-.013v.637a1.73 1.73 0 0 1-.243.026 4.872 4.872 0 0 1-.325.013 1.93 1.93 0 0 1-.837-.143.755.755 0 0 1-.393-.44 2.277 2.277 0 0 1-.106-.753v-2.667h-.707v-.646h.712zm3.034-.673a.55.55 0 0 1 .398-.153.577.577 0 0 1 .413.153.52.52 0 0 1 .163.396.513.513 0 0 1-.163.39.573.573 0 0 1-.413.155.547.547 0 0 1-.398-.155.514.514 0 0 1-.16-.39.522.522 0 0 1 .16-.396zm.007 1.82h.795v4.623h-.795zm2.296.525a1.404 1.404 0 0 1 .637-.455 2.412 2.412 0 0 1 .842-.145 2.161 2.161 0 0 1 .872.163 1.372 1.372 0 0 1 .578.45 1.136 1.136 0 0 1 .206.678h-.738a.655.655 0 0 0-.119-.316.777.777 0 0 0-.31-.252 1.18 1.18 0 0 0-.516-.1 1.148 1.148 0 0 0-.666.181.59.59 0 0 0-.262.519.5.5 0 0 0 .106.332.723.723 0 0 0 .275.197 1.793 1.793 0 0 0 .371.112c.135.027.267.052.396.075a4.603 4.603 0 0 1 .793.204 1.33 1.33 0 0 1 .573.382 1.057 1.057 0 0 1 .216.705 1.319 1.319 0 0 1-.23.786 1.427 1.427 0 0 1-.647.49 2.603 2.603 0 0 1-.969.166 2.55 2.55 0 0 1-.905-.149 1.36 1.36 0 0 1-.611-.437 1.123 1.123 0 0 1-.22-.701h.778a.78.78 0 0 0 .14.355.692.692 0 0 0 .321.232 1.507 1.507 0 0 0 .532.08 1.446 1.446 0 0 0 .591-.1.731.731 0 0 0 .332-.265.652.652 0 0 0 .106-.364.5.5 0 0 0-.155-.395 1.038 1.038 0 0 0-.417-.21q-.263-.071-.585-.133a5.925 5.925 0 0 1-.784-.213 1.287 1.287 0 0 1-.564-.372 1.04 1.04 0 0 1-.211-.698 1.254 1.254 0 0 1 .244-.802zm4.748.134h-.778v-.646h.778v-.462a1.282 1.282 0 0 1 .338-.982 1.612 1.612 0 0 1 1.112-.313c.103 0 .205.002.308.007q.154.01.22.018v.642a1.654 1.654 0 0 0-.19-.013 6.989 6.989 0 0 0-.223-.004.959.959 0 0 0-.594.146.69.69 0 0 0-.185.56v.401h1.072v.646h-1.063v3.964h-.795zm3.233-2.479a.55.55 0 0 1 .397-.153.577.577 0 0 1 .413.153.52.52 0 0 1 .162.396.512.512 0 0 1-.162.39.573.573 0 0 1-.413.155.547.547 0 0 1-.397-.155.515.515 0 0 1-.162-.39.523.523 0 0 1 .162-.396zm.005 1.82h.796v4.623h-.796zm2.962 4.449a1.662 1.662 0 0 1-.68-.705 2.34 2.34 0 0 1-.234-1.081v-.703a2.221 2.221 0 0 1 .248-1.083 1.756 1.756 0 0 1 .684-.704 2.091 2.091 0 0 1 1.98.002 1.773 1.773 0 0 1 .678.707 2.243 2.243 0 0 1 .246 1.078v.557h-3.045v.234a1.38 1.38 0 0 0 .303.905 1.072 1.072 0 0 0 .879.37 1.359 1.359 0 0 0 .476-.078.942.942 0 0 0 .34-.202.598.598 0 0 0 .168-.266h.818a1.118 1.118 0 0 1-.148.396 1.497 1.497 0 0 1-.34.397 1.759 1.759 0 0 1-.545.306 2.23 2.23 0 0 1-.764.118 2.14 2.14 0 0 1-1.064-.248zm2.131-2.507v-.075a1.513 1.513 0 0 0-.14-.67 1.06 1.06 0 0 0-.394-.445 1.088 1.088 0 0 0-.59-.159 1.1 1.1 0 0 0-.594.159 1.058 1.058 0 0 0-.395.445 1.513 1.513 0 0 0-.14.67v.075zm4.074-1.923a1.308 1.308 0 0 1 .46.262 1.068 1.068 0 0 1 .283.404h.04v-2.377h.794v6.315h-.764v-.739h-.04a.816.816 0 0 1-.175.328 1.174 1.174 0 0 1-.314.252 1.745 1.745 0 0 1-.415.165 1.94 1.94 0 0 1-.484.06 1.797 1.797 0 0 1-.938-.238 1.601 1.601 0 0 1-.618-.672 2.234 2.234 0 0 1-.22-1.02v-.896a2.192 2.192 0 0 1 .224-1.022 1.641 1.641 0 0 1 .63-.672 1.815 1.815 0 0 1 .94-.24 1.882 1.882 0 0 1 .597.09zm-1.052.76a1.09 1.09 0 0 0-.398.486 1.865 1.865 0 0 0-.14.76v.563a1.864 1.864 0 0 0 .142.767 1.077 1.077 0 0 0 .406.485 1.152 1.152 0 0 0 .63.167 1.165 1.165 0 0 0 .63-.165 1.11 1.11 0 0 0 .415-.465 1.587 1.587 0 0 0 .15-.714v-.8a1.31 1.31 0 0 0-.159-.648 1.154 1.154 0 0 0-.433-.444 1.212 1.212 0 0 0-.626-.16 1.092 1.092 0 0 0-.617.169zm10.276 3.844h-.791l-1.042-3.537h-.021l-1.016 3.537h-.795l-1.297-4.623h.884l.817 3.634h.03l1.011-3.634h.747l1.042 3.634h.03l.836-3.634h.796zm2.168-6.443a.55.55 0 0 1 .397-.153.577.577 0 0 1 .414.153.52.52 0 0 1 .163.396.513.513 0 0 1-.163.39.573.573 0 0 1-.414.155.547.547 0 0 1-.397-.155.514.514 0 0 1-.16-.39.522.522 0 0 1 .16-.396zm.007 1.82h.795v4.623h-.795zm2.521-1.147h.787v1.16h1.046v.646h-1.046v2.663a.705.705 0 0 0 .163.547.92.92 0 0 0 .585.138c.055 0 .12-.002.197-.008l.167-.013v.637a1.708 1.708 0 0 1-.241.026 4.872 4.872 0 0 1-.326.013 1.93 1.93 0 0 1-.837-.143.755.755 0 0 1-.393-.44 2.277 2.277 0 0 1-.106-.753v-2.667h-.708v-.646h.712zm2.945-.545h.796v2.531h.039a1.429 1.429 0 0 1 .2-.376 1.255 1.255 0 0 1 .45-.377 1.863 1.863 0 0 1 1.893.226 1.466 1.466 0 0 1 .441 1.164v3.147h-.796V76.49a1.344 1.344 0 0 0-.125-.612.836.836 0 0 0-.355-.372 1.15 1.15 0 0 0-.543-.123 1.125 1.125 0 0 0-.664.19 1.166 1.166 0 0 0-.405.513 1.865 1.865 0 0 0-.136.726v2.575h-.795zm7.62 3.757a2.743 2.743 0 0 0 .184 1.064 1.44 1.44 0 0 0 .536.67 1.516 1.516 0 0 0 .853.23 1.636 1.636 0 0 0 .686-.136 1.262 1.262 0 0 0 .485-.38 1.144 1.144 0 0 0 .226-.56h.8v.026a1.74 1.74 0 0 1-.34.91 2.027 2.027 0 0 1-.778.628 2.757 2.757 0 0 1-2.378-.086 2 2 0 0 1-.81-.912 3.416 3.416 0 0 1-.278-1.445v-.865a3.438 3.438 0 0 1 .282-1.455 2.073 2.073 0 0 1 .817-.93 2.445 2.445 0 0 1 1.283-.322 2.512 2.512 0 0 1 .84.135 2.132 2.132 0 0 1 .68.387 1.966 1.966 0 0 1 .473.589 1.884 1.884 0 0 1 .21.747v.026h-.8a1.262 1.262 0 0 0-.229-.604 1.348 1.348 0 0 0-.49-.413 1.495 1.495 0 0 0-.679-.152 1.466 1.466 0 0 0-.844.24 1.527 1.527 0 0 0-.54.685 2.753 2.753 0 0 0-.19 1.074zm4.96 2.558V73.39h.765l2.966 4.613h.04V73.39h.795v5.998h-.765l-2.974-4.62h-.031v4.62zm6.605-2.558a2.743 2.743 0 0 0 .185 1.064 1.44 1.44 0 0 0 .536.67 1.516 1.516 0 0 0 .852.23 1.636 1.636 0 0 0 .686-.136 1.254 1.254 0 0 0 .485-.38 1.134 1.134 0 0 0 .227-.56h.8v.026a1.74 1.74 0 0 1-.341.91 2.027 2.027 0 0 1-.777.628 2.757 2.757 0 0 1-2.378-.086 2 2 0 0 1-.811-.912 3.417 3.417 0 0 1-.276-1.445v-.865a3.438 3.438 0 0 1 .28-1.455 2.073 2.073 0 0 1 .818-.93 2.445 2.445 0 0 1 1.284-.322 2.506 2.506 0 0 1 .838.135 2.137 2.137 0 0 1 .682.387 1.962 1.962 0 0 1 .472.589 1.884 1.884 0 0 1 .209.747v.026h-.8a1.262 1.262 0 0 0-.229-.604 1.34 1.34 0 0 0-.49-.413 1.492 1.492 0 0 0-.679-.152 1.466 1.466 0 0 0-.843.24 1.526 1.526 0 0 0-.54.685 2.752 2.752 0 0 0-.19 1.074zm4.961 2.558V73.39h3.573v.716h-2.764v2.003h2.531v.708h-2.531v2.57zm-69.65 6.375h.796v.712h.04a1.408 1.408 0 0 1 .202-.334 1.194 1.194 0 0 1 .4-.315 1.45 1.45 0 0 1 .663-.134c.05 0 .099.002.148.007.048.004.095.01.142.015v.725a1.002 1.002 0 0 0-.16-.02 3.051 3.051 0 0 0-.214-.006 1.376 1.376 0 0 0-.674.15 1.003 1.003 0 0 0-.407.399 1.171 1.171 0 0 0-.136.567v2.857h-.8zm3.937 4.449a1.654 1.654 0 0 1-.678-.705 2.329 2.329 0 0 1-.236-1.081v-.703a2.221 2.221 0 0 1 .25-1.083 1.753 1.753 0 0 1 .682-.703 2.093 2.093 0 0 1 1.98.002 1.773 1.773 0 0 1 .679.707 2.243 2.243 0 0 1 .246 1.077v.557h-3.046v.234a1.38 1.38 0 0 0 .304.905 1.072 1.072 0 0 0 .879.37 1.363 1.363 0 0 0 .476-.078.951.951 0 0 0 .34-.202.598.598 0 0 0 .168-.266h.818a1.138 1.138 0 0 1-.148.396 1.52 1.52 0 0 1-.34.397 1.759 1.759 0 0 1-.546.306 2.23 2.23 0 0 1-.764.118 2.14 2.14 0 0 1-1.064-.248zm2.132-2.507v-.075a1.513 1.513 0 0 0-.14-.67 1.067 1.067 0 0 0-.394-.445 1.09 1.09 0 0 0-.591-.159 1.103 1.103 0 0 0-.594.159 1.058 1.058 0 0 0-.395.445 1.513 1.513 0 0 0-.14.67v.075zm1.932-1.417a1.404 1.404 0 0 1 .636-.455 2.413 2.413 0 0 1 .842-.145 2.161 2.161 0 0 1 .872.163 1.372 1.372 0 0 1 .578.45 1.136 1.136 0 0 1 .206.678h-.738a.655.655 0 0 0-.118-.316.777.777 0 0 0-.31-.252 1.18 1.18 0 0 0-.516-.1 1.148 1.148 0 0 0-.666.181.59.59 0 0 0-.262.519.5.5 0 0 0 .106.332.723.723 0 0 0 .275.197 1.792 1.792 0 0 0 .371.112c.135.027.267.052.396.075a4.602 4.602 0 0 1 .793.205 1.33 1.33 0 0 1 .573.381 1.056 1.056 0 0 1 .216.705 1.319 1.319 0 0 1-.23.786 1.427 1.427 0 0 1-.647.49 2.603 2.603 0 0 1-.97.166 2.55 2.55 0 0 1-.904-.149 1.359 1.359 0 0 1-.612-.437 1.123 1.123 0 0 1-.22-.701h.779a.78.78 0 0 0 .14.355.692.692 0 0 0 .32.232 1.507 1.507 0 0 0 .533.08 1.446 1.446 0 0 0 .59-.1.731.731 0 0 0 .333-.265.652.652 0 0 0 .105-.364.5.5 0 0 0-.154-.395 1.038 1.038 0 0 0-.417-.21q-.264-.071-.585-.133a5.929 5.929 0 0 1-.784-.213 1.287 1.287 0 0 1-.565-.372 1.04 1.04 0 0 1-.21-.698 1.254 1.254 0 0 1 .244-.802zm5.94 4.08a1.277 1.277 0 0 1-.45-.257 1.23 1.23 0 0 1-.299-.41h-.04v2.218h-.795v-6.16h.765v.738h.039a1.098 1.098 0 0 1 .2-.334 1.213 1.213 0 0 1 .312-.256 1.574 1.574 0 0 1 .402-.16 1.963 1.963 0 0 1 .47-.055 1.769 1.769 0 0 1 .941.243 1.6 1.6 0 0 1 .61.685 2.394 2.394 0 0 1 .216 1.055v.795a2.386 2.386 0 0 1-.218 1.058 1.589 1.589 0 0 1-.622.686 1.977 1.977 0 0 1-1.53.154zm1.041-.764a1.078 1.078 0 0 0 .394-.495 2.02 2.02 0 0 0 .136-.784v-.492a2.046 2.046 0 0 0-.136-.791 1.062 1.062 0 0 0-.4-.497 1.152 1.152 0 0 0-.641-.171 1.185 1.185 0 0 0-.631.162 1.06 1.06 0 0 0-.41.464 1.668 1.668 0 0 0-.142.718v.804a1.366 1.366 0 0 0 .151.653 1.1 1.1 0 0 0 .425.441 1.227 1.227 0 0 0 .628.158 1.101 1.101 0 0 0 .626-.17zm5.283-3.676a1.742 1.742 0 0 1 .71.698 2.21 2.21 0 0 1 .26 1.102v.685a2.224 2.224 0 0 1-.26 1.11 1.742 1.742 0 0 1-.71.698 2.148 2.148 0 0 1-1.026.239 2.187 2.187 0 0 1-1.035-.236 1.706 1.706 0 0 1-.707-.698 2.24 2.24 0 0 1-.258-1.113v-.682a2.169 2.169 0 0 1 .26-1.085 1.822 1.822 0 0 1 .712-.707 2.088 2.088 0 0 1 1.028-.25 2.149 2.149 0 0 1 1.026.239zm-1.666.619a1.188 1.188 0 0 0-.417.506 1.77 1.77 0 0 0-.147.745v.557a1.853 1.853 0 0 0 .14.751 1.126 1.126 0 0 0 .412.502 1.154 1.154 0 0 0 .656.18 1.076 1.076 0 0 0 1.053-.681 1.87 1.87 0 0 0 .138-.751v-.558a1.838 1.838 0 0 0-.142-.748 1.178 1.178 0 0 0-.411-.503 1.11 1.11 0 0 0-.638-.183 1.128 1.128 0 0 0-.644.183zm3.773-.784h.786v.84h.044a1.494 1.494 0 0 1 .202-.397 1.196 1.196 0 0 1 .43-.364 1.631 1.631 0 0 1 .77-.154 1.654 1.654 0 0 1 1.134.382 1.464 1.464 0 0 1 .435 1.16v3.156h-.795V87.48a1.377 1.377 0 0 0-.121-.609.832.832 0 0 0-.345-.367 1.11 1.11 0 0 0-.536-.123 1.15 1.15 0 0 0-.675.19 1.135 1.135 0 0 0-.402.513 1.92 1.92 0 0 0-.132.726v2.575h-.795zm5.17.525a1.41 1.41 0 0 1 .636-.455 2.416 2.416 0 0 1 .842-.145 2.158 2.158 0 0 1 .872.163 1.366 1.366 0 0 1 .578.45 1.136 1.136 0 0 1 .207.678h-.738a.656.656 0 0 0-.119-.316.777.777 0 0 0-.31-.252 1.18 1.18 0 0 0-.516-.1 1.15 1.15 0 0 0-.666.181.592.592 0 0 0-.26.519.5.5 0 0 0 .105.332.72.72 0 0 0 .274.197 1.793 1.793 0 0 0 .371.112c.135.027.267.052.396.075a4.579 4.579 0 0 1 .793.205 1.328 1.328 0 0 1 .574.381 1.056 1.056 0 0 1 .215.705 1.319 1.319 0 0 1-.23.786 1.427 1.427 0 0 1-.647.49 2.603 2.603 0 0 1-.97.166 2.55 2.55 0 0 1-.904-.149 1.356 1.356 0 0 1-.61-.437 1.123 1.123 0 0 1-.22-.701h.777a.78.78 0 0 0 .14.355.695.695 0 0 0 .322.232 1.501 1.501 0 0 0 .531.08 1.443 1.443 0 0 0 .59-.1.726.726 0 0 0 .333-.265.652.652 0 0 0 .105-.364.5.5 0 0 0-.153-.395 1.043 1.043 0 0 0-.418-.21q-.264-.071-.584-.133a5.986 5.986 0 0 1-.785-.213 1.292 1.292 0 0 1-.565-.372 1.04 1.04 0 0 1-.21-.698 1.254 1.254 0 0 1 .244-.802zm5.042 3.924a1.654 1.654 0 0 1-.679-.705 2.329 2.329 0 0 1-.235-1.081v-.703a2.221 2.221 0 0 1 .249-1.083 1.753 1.753 0 0 1 .682-.703 2.093 2.093 0 0 1 1.98.002 1.773 1.773 0 0 1 .68.707 2.243 2.243 0 0 1 .246 1.077v.557h-3.046v.234a1.38 1.38 0 0 0 .303.905 1.072 1.072 0 0 0 .88.37 1.363 1.363 0 0 0 .476-.078.95.95 0 0 0 .339-.202.598.598 0 0 0 .169-.266h.817a1.138 1.138 0 0 1-.147.396 1.52 1.52 0 0 1-.341.397 1.758 1.758 0 0 1-.545.306 2.23 2.23 0 0 1-.765.118 2.14 2.14 0 0 1-1.063-.248zm2.132-2.507v-.075a1.513 1.513 0 0 0-.141-.67 1.067 1.067 0 0 0-.394-.445 1.09 1.09 0 0 0-.59-.159 1.103 1.103 0 0 0-.594.159 1.058 1.058 0 0 0-.396.445 1.513 1.513 0 0 0-.14.67v.075zm4.002-3.089h.787v1.16h1.045v.646h-1.045v2.663a.705.705 0 0 0 .163.547.917.917 0 0 0 .584.139c.055 0 .122-.003.198-.01s.132-.009.167-.012v.637a1.728 1.728 0 0 1-.242.026 4.871 4.871 0 0 1-.325.013 1.93 1.93 0 0 1-.837-.143.755.755 0 0 1-.394-.44 2.277 2.277 0 0 1-.105-.753v-2.667h-.707v-.646h.712zm3.035-.673a.55.55 0 0 1 .397-.153.577.577 0 0 1 .413.153.52.52 0 0 1 .163.396.513.513 0 0 1-.163.39.573.573 0 0 1-.413.155.547.547 0 0 1-.397-.155.514.514 0 0 1-.16-.39.522.522 0 0 1 .16-.396zm.006 1.82h.795v4.623h-.795zm2.272 0h.786v.738h.044a1.299 1.299 0 0 1 .185-.354 1.085 1.085 0 0 1 .386-.323 1.452 1.452 0 0 1 .682-.135 1.541 1.541 0 0 1 .613.113 1.197 1.197 0 0 1 .431.312 1.182 1.182 0 0 1 .24.444h.034a1.455 1.455 0 0 1 .275-.424 1.35 1.35 0 0 1 .464-.322 1.668 1.668 0 0 1 .672-.123 1.578 1.578 0 0 1 1.116.375 1.39 1.39 0 0 1 .404 1.07v3.252h-.795v-3.028a1.158 1.158 0 0 0-.107-.516.789.789 0 0 0-.324-.341 1.048 1.048 0 0 0-.527-.123.977.977 0 0 0-.518.139 1.019 1.019 0 0 0-.366.38 1.115 1.115 0 0 0-.135.557v2.932h-.788v-2.997a1.143 1.143 0 0 0-.118-.533.862.862 0 0 0-.336-.353 1.043 1.043 0 0 0-.525-.125.998.998 0 0 0-.517.134.931.931 0 0 0-.353.376 1.181 1.181 0 0 0-.128.558v2.94h-.795zm8.376 4.449a1.662 1.662 0 0 1-.68-.705 2.34 2.34 0 0 1-.234-1.081v-.703a2.22 2.22 0 0 1 .248-1.083 1.756 1.756 0 0 1 .684-.703 2.091 2.091 0 0 1 1.979.002 1.773 1.773 0 0 1 .679.707 2.243 2.243 0 0 1 .246 1.077v.557h-3.045v.234a1.38 1.38 0 0 0 .303.905 1.072 1.072 0 0 0 .879.37 1.359 1.359 0 0 0 .476-.078.942.942 0 0 0 .339-.202.598.598 0 0 0 .169-.266h.817a1.118 1.118 0 0 1-.147.396 1.497 1.497 0 0 1-.34.397 1.758 1.758 0 0 1-.545.306 2.23 2.23 0 0 1-.765.118 2.14 2.14 0 0 1-1.063-.248zm2.13-2.507v-.075a1.513 1.513 0 0 0-.14-.67 1.06 1.06 0 0 0-.393-.445 1.088 1.088 0 0 0-.591-.159 1.1 1.1 0 0 0-.593.159 1.058 1.058 0 0 0-.395.445 1.513 1.513 0 0 0-.141.67v.075zm58.361-14.32l2.123-5.998h.839l2.118 5.998h-.852l-.59-1.776h-2.21l-.588 1.776zm2.519-5.072l-.88 2.65h1.794l-.884-2.65zm5.237-1.243h.796v6.315h-.796zm2.345 6a1.335 1.335 0 0 1-.42-1.03 1.265 1.265 0 0 1 .415-.982 1.751 1.751 0 0 1 1.21-.376h1.209v-.457a.793.793 0 0 0-.261-.655 1.094 1.094 0 0 0-.706-.21 1.38 1.38 0 0 0-.48.07.677.677 0 0 0-.29.193.788.788 0 0 0-.153.285h-.768a1.317 1.317 0 0 1 .151-.52 1.148 1.148 0 0 1 .345-.382 1.595 1.595 0 0 1 .527-.237 2.7 2.7 0 0 1 .694-.081 2.466 2.466 0 0 1 .873.148 1.336 1.336 0 0 1 .63.488 1.548 1.548 0 0 1 .238.906v3.155h-.765v-.615h-.035a1.54 1.54 0 0 1-.292.342 1.352 1.352 0 0 1-.433.253 1.73 1.73 0 0 1-.597.094 1.539 1.539 0 0 1-1.092-.389zm1.874-.408a1.062 1.062 0 0 0 .393-.351.902.902 0 0 0 .147-.508v-.514h-1.143a.92.92 0 0 0-.674.206.706.706 0 0 0-.205.519.66.66 0 0 0 .28.589 1.113 1.113 0 0 0 .64.188 1.194 1.194 0 0 0 .562-.129zm2.75-3.9h.796v.712h.04a1.408 1.408 0 0 1 .202-.334 1.193 1.193 0 0 1 .4-.315 1.45 1.45 0 0 1 .663-.134c.05 0 .099.002.148.007.048.004.095.01.142.015v.725a1.001 1.001 0 0 0-.16-.02 3.045 3.045 0 0 0-.214-.006 1.376 1.376 0 0 0-.674.15 1.003 1.003 0 0 0-.407.399 1.171 1.171 0 0 0-.135.567v2.857h-.8zm5.83 5.34a1.173 1.173 0 0 0 .3-.854v-.672h-.043a.983.983 0 0 1-.187.283 1.27 1.27 0 0 1-.288.229 1.515 1.515 0 0 1-.374.156 1.677 1.677 0 0 1-.448.057 1.867 1.867 0 0 1-.925-.23 1.665 1.665 0 0 1-.657-.669 2.122 2.122 0 0 1-.241-1.043v-.716a2.133 2.133 0 0 1 .24-1.048 1.693 1.693 0 0 1 .656-.671 1.856 1.856 0 0 1 .923-.233 1.628 1.628 0 0 1 .622.113 1.449 1.449 0 0 1 .459.288 1.025 1.025 0 0 1 .259.369h.04v-.7h.76v4.483a2.046 2.046 0 0 1-.152.826 1.5 1.5 0 0 1-.424.572 1.756 1.756 0 0 1-.643.329 2.98 2.98 0 0 1-.816.105 2.385 2.385 0 0 1-.986-.178 1.445 1.445 0 0 1-.6-.465 1.247 1.247 0 0 1-.238-.623h.809a.584.584 0 0 0 .163.3.916.916 0 0 0 .353.217 1.515 1.515 0 0 0 .526.081 1.228 1.228 0 0 0 .912-.306zm-1.492-4.551a1.17 1.17 0 0 0-.422.496 1.727 1.727 0 0 0-.15.74v.436a1.65 1.65 0 0 0 .157.736 1.19 1.19 0 0 0 .434.496 1.15 1.15 0 0 0 .635.178 1.048 1.048 0 0 0 .627-.182 1.161 1.161 0 0 0 .382-.472 1.499 1.499 0 0 0 .13-.616v-.699a1.495 1.495 0 0 0-.137-.633 1.196 1.196 0 0 0-.39-.476 1.041 1.041 0 0 0-.62-.182 1.149 1.149 0 0 0-.646.178zm4.646 3.66a1.662 1.662 0 0 1-.68-.705 2.34 2.34 0 0 1-.234-1.081v-.703a2.221 2.221 0 0 1 .248-1.083 1.756 1.756 0 0 1 .684-.703 2.091 2.091 0 0 1 1.98.002 1.773 1.773 0 0 1 .678.707 2.243 2.243 0 0 1 .246 1.077v.557h-3.045v.234a1.38 1.38 0 0 0 .303.905 1.072 1.072 0 0 0 .879.37 1.359 1.359 0 0 0 .476-.078.942.942 0 0 0 .34-.202.598.598 0 0 0 .168-.266h.817a1.118 1.118 0 0 1-.147.396 1.497 1.497 0 0 1-.34.397 1.759 1.759 0 0 1-.545.306 2.23 2.23 0 0 1-.764.118 2.14 2.14 0 0 1-1.064-.248zm2.131-2.507v-.075a1.513 1.513 0 0 0-.14-.67 1.06 1.06 0 0 0-.394-.445 1.088 1.088 0 0 0-.591-.159 1.1 1.1 0 0 0-.593.159 1.058 1.058 0 0 0-.395.445 1.513 1.513 0 0 0-.14.67v.075zm3.744-1.942h.786v.738h.044a1.3 1.3 0 0 1 .185-.354 1.085 1.085 0 0 1 .387-.323 1.452 1.452 0 0 1 .681-.135 1.541 1.541 0 0 1 .613.113 1.197 1.197 0 0 1 .431.312 1.182 1.182 0 0 1 .24.444h.035a1.455 1.455 0 0 1 .274-.424 1.35 1.35 0 0 1 .464-.322 1.668 1.668 0 0 1 .672-.124 1.578 1.578 0 0 1 1.116.376 1.39 1.39 0 0 1 .404 1.07v3.252h-.795v-3.028a1.158 1.158 0 0 0-.107-.516.789.789 0 0 0-.323-.341 1.048 1.048 0 0 0-.528-.123.977.977 0 0 0-.518.139 1.019 1.019 0 0 0-.365.38 1.115 1.115 0 0 0-.136.557v2.932h-.787v-2.997a1.143 1.143 0 0 0-.119-.533.862.862 0 0 0-.335-.353 1.043 1.043 0 0 0-.526-.125.998.998 0 0 0-.516.134.931.931 0 0 0-.354.376 1.181 1.181 0 0 0-.128.558v2.94h-.795zm7.842 4.308a1.335 1.335 0 0 1-.42-1.03 1.265 1.265 0 0 1 .415-.982 1.751 1.751 0 0 1 1.21-.376h1.21v-.457a.793.793 0 0 0-.262-.655 1.091 1.091 0 0 0-.705-.21 1.386 1.386 0 0 0-.481.07.677.677 0 0 0-.29.193.786.786 0 0 0-.152.285h-.77a1.317 1.317 0 0 1 .152-.52 1.151 1.151 0 0 1 .346-.382 1.595 1.595 0 0 1 .527-.237 2.7 2.7 0 0 1 .695-.082 2.461 2.461 0 0 1 .872.149 1.338 1.338 0 0 1 .63.488 1.548 1.548 0 0 1 .238.905v3.156h-.765v-.615h-.035a1.545 1.545 0 0 1-.293.342 1.352 1.352 0 0 1-.433.253 1.73 1.73 0 0 1-.597.094 1.539 1.539 0 0 1-1.092-.389zm1.874-.408a1.063 1.063 0 0 0 .394-.351.903.903 0 0 0 .147-.508v-.514h-1.143a.922.922 0 0 0-.674.206.705.705 0 0 0-.205.519.662.662 0 0 0 .279.589 1.115 1.115 0 0 0 .64.188 1.194 1.194 0 0 0 .562-.129zm3.595.832a2.086 2.086 0 0 1-.154.866 1.027 1.027 0 0 1-.44.49 1.416 1.416 0 0 1-.685.156 2.67 2.67 0 0 1-.253-.013 1.505 1.505 0 0 1-.191-.026v-.624a1.913 1.913 0 0 0 .286.022.554.554 0 0 0 .501-.214 1.232 1.232 0 0 0 .14-.665v-4.724h.796zm-.802-6.552a.55.55 0 0 1 .397-.153.577.577 0 0 1 .413.153.52.52 0 0 1 .164.396.513.513 0 0 1-.164.39.573.573 0 0 1-.413.155.547.547 0 0 1-.397-.154.514.514 0 0 1-.16-.391.522.522 0 0 1 .16-.396zm5.08 1.985a1.745 1.745 0 0 1 .71.698 2.209 2.209 0 0 1 .259 1.102v.685a2.224 2.224 0 0 1-.259 1.11 1.745 1.745 0 0 1-.71.698 2.149 2.149 0 0 1-1.026.239 2.19 2.19 0 0 1-1.036-.236 1.712 1.712 0 0 1-.707-.698 2.24 2.24 0 0 1-.256-1.113v-.682a2.169 2.169 0 0 1 .258-1.085 1.822 1.822 0 0 1 .712-.707 2.088 2.088 0 0 1 1.029-.25 2.148 2.148 0 0 1 1.026.239zm-1.666.619a1.188 1.188 0 0 0-.417.506 1.771 1.771 0 0 0-.147.745v.557a1.853 1.853 0 0 0 .14.751 1.126 1.126 0 0 0 .411.502 1.157 1.157 0 0 0 .658.18 1.075 1.075 0 0 0 1.051-.681 1.87 1.87 0 0 0 .139-.751v-.558a1.839 1.839 0 0 0-.143-.748 1.178 1.178 0 0 0-.41-.503 1.107 1.107 0 0 0-.637-.183 1.13 1.13 0 0 0-.645.183zm3.843-.784h.796v.712h.039a1.408 1.408 0 0 1 .202-.334 1.198 1.198 0 0 1 .4-.315 1.445 1.445 0 0 1 .663-.134c.05 0 .099.002.148.007.048.004.096.01.142.015v.725a1.001 1.001 0 0 0-.16-.02 3.017 3.017 0 0 0-.213-.006 1.38 1.38 0 0 0-.674.15 1 1 0 0 0-.407.399 1.172 1.172 0 0 0-.136.567v2.857h-.8zm3.36-1.82a.55.55 0 0 1 .398-.153.577.577 0 0 1 .413.153.52.52 0 0 1 .162.396.512.512 0 0 1-.162.39.573.573 0 0 1-.413.155.547.547 0 0 1-.398-.154.515.515 0 0 1-.161-.391.523.523 0 0 1 .161-.396zm.006 1.82h.796v4.623h-.796zm2.522-1.147h.787v1.16h1.045v.646h-1.045v2.663a.705.705 0 0 0 .163.547.917.917 0 0 0 .584.139c.055 0 .122-.003.198-.01s.132-.009.167-.012v.637a1.73 1.73 0 0 1-.242.026 4.872 4.872 0 0 1-.325.013 1.93 1.93 0 0 1-.837-.143.755.755 0 0 1-.394-.44 2.277 2.277 0 0 1-.105-.753V69.42h-.707v-.646h.711zm6.218 2.364q-.21.603-.417 1.184l-.404 1.14-.387 1.09-.096.252a2.406 2.406 0 0 1-.656 1.05 1.506 1.506 0 0 1-.984.31c-.07 0-.15-.002-.237-.01a1.89 1.89 0 0 1-.22-.028v-.642l.16.013c.072.006.132.01.179.01a.958.958 0 0 0 .606-.17 1.027 1.027 0 0 0 .32-.56l.05-.172-1.697-4.684h.883l1.221 3.845h.036l1.226-3.845h.844l-.427 1.217zm5.979-1.052a1.745 1.745 0 0 1 .71.698 2.209 2.209 0 0 1 .259 1.102v.685a2.224 2.224 0 0 1-.26 1.11 1.745 1.745 0 0 1-.71.698 2.149 2.149 0 0 1-1.026.239 2.19 2.19 0 0 1-1.035-.236 1.712 1.712 0 0 1-.707-.698 2.24 2.24 0 0 1-.257-1.113v-.682a2.169 2.169 0 0 1 .26-1.085 1.822 1.822 0 0 1 .711-.707 2.088 2.088 0 0 1 1.028-.25 2.148 2.148 0 0 1 1.027.239zm-1.666.619a1.188 1.188 0 0 0-.417.506 1.771 1.771 0 0 0-.148.745v.557a1.853 1.853 0 0 0 .14.751 1.126 1.126 0 0 0 .412.502 1.157 1.157 0 0 0 .657.18 1.075 1.075 0 0 0 1.052-.681 1.87 1.87 0 0 0 .139-.751v-.558a1.838 1.838 0 0 0-.143-.748 1.178 1.178 0 0 0-.411-.503 1.107 1.107 0 0 0-.637-.183 1.13 1.13 0 0 0-.644.183zm4.159-.125h-.777v-.646h.777v-.462a1.283 1.283 0 0 1 .339-.982 1.61 1.61 0 0 1 1.111-.313c.103 0 .205.003.308.007q.154.01.22.018v.643a1.63 1.63 0 0 0-.189-.014 7.019 7.019 0 0 0-.225-.004.956.956 0 0 0-.592.146.69.69 0 0 0-.185.561v.4h1.072v.646h-1.063v3.964h-.796zm4.767-.66h.788v.739h.044a1.3 1.3 0 0 1 .184-.354 1.085 1.085 0 0 1 .387-.323 1.448 1.448 0 0 1 .68-.135 1.541 1.541 0 0 1 .614.113 1.197 1.197 0 0 1 .43.312 1.182 1.182 0 0 1 .24.444h.035a1.476 1.476 0 0 1 .274-.424 1.359 1.359 0 0 1 .464-.322 1.673 1.673 0 0 1 .673-.124 1.578 1.578 0 0 1 1.116.376 1.39 1.39 0 0 1 .404 1.07v3.252h-.795v-3.028a1.158 1.158 0 0 0-.108-.516.789.789 0 0 0-.323-.341 1.048 1.048 0 0 0-.527-.123.977.977 0 0 0-.519.139 1.017 1.017 0 0 0-.364.38 1.115 1.115 0 0 0-.137.557v2.932h-.786v-2.997a1.143 1.143 0 0 0-.12-.533.862.862 0 0 0-.335-.353 1.043 1.043 0 0 0-.526-.125 1 1 0 0 0-.516.134.938.938 0 0 0-.354.376 1.18 1.18 0 0 0-.127.558v2.94h-.796zm7.834 4.31a1.335 1.335 0 0 1-.42-1.031 1.265 1.265 0 0 1 .416-.982 1.751 1.751 0 0 1 1.21-.376h1.21v-.457a.793.793 0 0 0-.262-.655 1.093 1.093 0 0 0-.705-.21 1.382 1.382 0 0 0-.482.07.677.677 0 0 0-.29.193.788.788 0 0 0-.152.285h-.769a1.317 1.317 0 0 1 .152-.52 1.14 1.14 0 0 1 .345-.382 1.577 1.577 0 0 1 .528-.237 2.687 2.687 0 0 1 .693-.081 2.466 2.466 0 0 1 .873.148 1.338 1.338 0 0 1 .631.488 1.548 1.548 0 0 1 .236.906v3.155h-.763v-.615h-.036a1.57 1.57 0 0 1-.293.342 1.352 1.352 0 0 1-.432.253 1.73 1.73 0 0 1-.598.094 1.539 1.539 0 0 1-1.092-.389zm1.874-.409a1.062 1.062 0 0 0 .394-.351.903.903 0 0 0 .147-.508v-.514h-1.142a.92.92 0 0 0-.675.206.705.705 0 0 0-.204.519.662.662 0 0 0 .278.589 1.115 1.115 0 0 0 .64.188 1.194 1.194 0 0 0 .562-.129zm2.785-5.72a.55.55 0 0 1 .397-.153.577.577 0 0 1 .413.153.52.52 0 0 1 .163.396.513.513 0 0 1-.163.39.573.573 0 0 1-.413.155.547.547 0 0 1-.397-.154.515.515 0 0 1-.161-.391.523.523 0 0 1 .16-.396zm.006 1.82h.795v4.623h-.795zm2.271 0h.786v.84h.045a1.488 1.488 0 0 1 .201-.397 1.2 1.2 0 0 1 .432-.364 1.624 1.624 0 0 1 .768-.154 1.654 1.654 0 0 1 1.134.382 1.464 1.464 0 0 1 .436 1.16v3.156h-.796V70.48a1.363 1.363 0 0 0-.121-.609.827.827 0 0 0-.345-.367 1.11 1.11 0 0 0-.536-.123 1.151 1.151 0 0 0-.675.19 1.135 1.135 0 0 0-.402.513 1.92 1.92 0 0 0-.131.726v2.575h-.796zm5.396-1.147h.787v1.16h1.046v.646h-1.046v2.663a.705.705 0 0 0 .162.547.92.92 0 0 0 .585.139c.055 0 .12-.003.198-.01l.166-.012v.637a1.708 1.708 0 0 1-.241.026 4.872 4.872 0 0 1-.325.013 1.93 1.93 0 0 1-.837-.143.755.755 0 0 1-.394-.44 2.277 2.277 0 0 1-.105-.753V69.42h-.707v-.646h.71zm3.087 5.455a1.335 1.335 0 0 1-.42-1.03 1.265 1.265 0 0 1 .415-.982 1.751 1.751 0 0 1 1.211-.376h1.21v-.457a.793.793 0 0 0-.262-.655 1.093 1.093 0 0 0-.705-.21 1.382 1.382 0 0 0-.482.07.677.677 0 0 0-.29.193.788.788 0 0 0-.152.285h-.769a1.317 1.317 0 0 1 .152-.52 1.141 1.141 0 0 1 .345-.382 1.577 1.577 0 0 1 .528-.237 2.687 2.687 0 0 1 .693-.081 2.466 2.466 0 0 1 .873.148 1.338 1.338 0 0 1 .63.488 1.548 1.548 0 0 1 .237.906v3.155h-.763v-.615h-.036a1.57 1.57 0 0 1-.293.342 1.352 1.352 0 0 1-.432.253 1.73 1.73 0 0 1-.598.094 1.539 1.539 0 0 1-1.092-.389zm1.874-.408a1.063 1.063 0 0 0 .394-.351.903.903 0 0 0 .147-.508v-.514h-1.142a.92.92 0 0 0-.675.206.705.705 0 0 0-.204.519.662.662 0 0 0 .278.589 1.115 1.115 0 0 0 .64.188 1.194 1.194 0 0 0 .562-.129zm2.785-5.72a.55.55 0 0 1 .397-.153.577.577 0 0 1 .413.153.52.52 0 0 1 .163.396.513.513 0 0 1-.163.39.573.573 0 0 1-.413.155.547.547 0 0 1-.397-.154.515.515 0 0 1-.162-.391.523.523 0 0 1 .162-.396zm.006 1.82h.795v4.623h-.795zm2.272 0h.786v.84h.045a1.488 1.488 0 0 1 .201-.397 1.2 1.2 0 0 1 .432-.364 1.624 1.624 0 0 1 .768-.154 1.654 1.654 0 0 1 1.134.382 1.464 1.464 0 0 1 .436 1.16v3.156h-.796V70.48a1.363 1.363 0 0 0-.121-.609.827.827 0 0 0-.345-.367 1.11 1.11 0 0 0-.536-.123 1.151 1.151 0 0 0-.675.19 1.135 1.135 0 0 0-.402.513 1.92 1.92 0 0 0-.131.726v2.575h-.796zm5.836 4.449a1.656 1.656 0 0 1-.68-.705 2.34 2.34 0 0 1-.234-1.081v-.703a2.221 2.221 0 0 1 .248-1.083 1.75 1.75 0 0 1 .683-.703 2.091 2.091 0 0 1 1.98.002 1.773 1.773 0 0 1 .679.707 2.243 2.243 0 0 1 .246 1.077v.557h-3.045v.234a1.38 1.38 0 0 0 .303.905 1.072 1.072 0 0 0 .878.37 1.359 1.359 0 0 0 .477-.078.942.942 0 0 0 .339-.202.598.598 0 0 0 .169-.266h.817a1.119 1.119 0 0 1-.147.396 1.515 1.515 0 0 1-.34.397 1.781 1.781 0 0 1-.545.306 2.24 2.24 0 0 1-.766.118 2.137 2.137 0 0 1-1.062-.248zm2.13-2.507v-.075a1.513 1.513 0 0 0-.14-.67 1.06 1.06 0 0 0-.393-.445 1.088 1.088 0 0 0-.591-.159 1.103 1.103 0 0 0-.594.159 1.05 1.05 0 0 0-.395.445 1.5 1.5 0 0 0-.14.67v.075zm1.978-1.942h.796v.712h.04a1.408 1.408 0 0 1 .201-.334 1.193 1.193 0 0 1 .4-.315 1.45 1.45 0 0 1 .664-.134c.05 0 .098.002.147.007.048.004.096.01.143.015v.725a1.001 1.001 0 0 0-.16-.02 3.045 3.045 0 0 0-.214-.006 1.376 1.376 0 0 0-.674.15.995.995 0 0 0-.406.399 1.161 1.161 0 0 0-.137.567v2.857h-.8zm3.272.525a1.41 1.41 0 0 1 .636-.455 2.417 2.417 0 0 1 .842-.144 2.158 2.158 0 0 1 .872.162 1.366 1.366 0 0 1 .578.45 1.136 1.136 0 0 1 .207.679h-.739a.645.645 0 0 0-.118-.317.777.777 0 0 0-.31-.252 1.18 1.18 0 0 0-.516-.1 1.15 1.15 0 0 0-.666.181.592.592 0 0 0-.26.519.5.5 0 0 0 .105.332.72.72 0 0 0 .274.197 1.793 1.793 0 0 0 .371.112c.135.027.267.052.396.076a4.58 4.58 0 0 1 .793.204 1.334 1.334 0 0 1 .574.381 1.062 1.062 0 0 1 .215.706 1.319 1.319 0 0 1-.23.785 1.427 1.427 0 0 1-.647.49 2.603 2.603 0 0 1-.969.166 2.55 2.55 0 0 1-.905-.148 1.35 1.35 0 0 1-.61-.438 1.118 1.118 0 0 1-.221-.701h.778a.78.78 0 0 0 .14.355.695.695 0 0 0 .322.232 1.501 1.501 0 0 0 .531.08 1.443 1.443 0 0 0 .591-.1.726.726 0 0 0 .332-.264.652.652 0 0 0 .105-.365.504.504 0 0 0-.153-.395 1.05 1.05 0 0 0-.418-.21 7.992 7.992 0 0 0-.584-.133 5.941 5.941 0 0 1-.785-.213 1.292 1.292 0 0 1-.564-.372 1.04 1.04 0 0 1-.211-.698 1.254 1.254 0 0 1 .244-.802zM318.146 84.383h-.791l-1.042-3.537h-.022l-1.016 3.537h-.795l-1.296-4.623h.883l.818 3.635h.03l1.01-3.635h.748l1.042 3.635h.03l.835-3.635h.796zm4.776-4.458a1.745 1.745 0 0 1 .71.698 2.209 2.209 0 0 1 .259 1.102v.685a2.224 2.224 0 0 1-.26 1.11 1.745 1.745 0 0 1-.71.698 2.148 2.148 0 0 1-1.025.239 2.19 2.19 0 0 1-1.036-.236 1.712 1.712 0 0 1-.707-.698 2.24 2.24 0 0 1-.256-1.113v-.681a2.169 2.169 0 0 1 .258-1.086 1.822 1.822 0 0 1 .712-.707 2.088 2.088 0 0 1 1.029-.25 2.149 2.149 0 0 1 1.026.239zm-1.666.619a1.188 1.188 0 0 0-.417.506 1.77 1.77 0 0 0-.148.745v.558a1.853 1.853 0 0 0 .141.75 1.126 1.126 0 0 0 .411.502 1.157 1.157 0 0 0 .657.18 1.075 1.075 0 0 0 1.052-.681 1.87 1.87 0 0 0 .139-.751v-.558a1.838 1.838 0 0 0-.143-.748 1.178 1.178 0 0 0-.41-.503 1.107 1.107 0 0 0-.638-.183 1.13 1.13 0 0 0-.644.183zm7.526 3.839h-.787v-.77h-.044a1.179 1.179 0 0 1-.234.383 1.362 1.362 0 0 1-.453.327 1.59 1.59 0 0 1-.688.134 2.128 2.128 0 0 1-.82-.148 1.17 1.17 0 0 1-.56-.478 1.625 1.625 0 0 1-.202-.863V79.76h.795v2.992a1.137 1.137 0 0 0 .139.604.763.763 0 0 0 .365.315 1.318 1.318 0 0 0 .503.093 1.251 1.251 0 0 0 .61-.148 1.148 1.148 0 0 0 .425-.397 1.017 1.017 0 0 0 .155-.545V79.76h.796zm1.393-6.315h.795v6.315h-.795zm4.354 1.711a1.313 1.313 0 0 1 .46.262 1.067 1.067 0 0 1 .283.404h.04v-2.377h.795v6.315h-.764v-.739h-.04a.816.816 0 0 1-.176.328 1.17 1.17 0 0 1-.313.253 1.753 1.753 0 0 1-.416.165 1.94 1.94 0 0 1-.484.06 1.793 1.793 0 0 1-.937-.24 1.603 1.603 0 0 1-.618-.671 2.234 2.234 0 0 1-.22-1.02v-.896a2.192 2.192 0 0 1 .224-1.022 1.64 1.64 0 0 1 .628-.672 1.815 1.815 0 0 1 .94-.24 1.882 1.882 0 0 1 .598.09zm-1.051.761a1.09 1.09 0 0 0-.399.485 1.865 1.865 0 0 0-.14.76v.563a1.863 1.863 0 0 0 .143.767 1.077 1.077 0 0 0 .406.486 1.148 1.148 0 0 0 .628.167 1.17 1.17 0 0 0 .631-.165 1.115 1.115 0 0 0 .415-.466 1.587 1.587 0 0 0 .15-.714v-.8a1.31 1.31 0 0 0-.159-.648 1.158 1.158 0 0 0-.432-.444 1.214 1.214 0 0 0-.626-.16 1.092 1.092 0 0 0-.617.169zm5.916-.78h.795v.712h.04a1.408 1.408 0 0 1 .202-.334 1.198 1.198 0 0 1 .4-.315 1.446 1.446 0 0 1 .663-.134c.05 0 .099.002.148.007l.142.015v.726a1.002 1.002 0 0 0-.16-.02 3.023 3.023 0 0 0-.213-.007 1.38 1.38 0 0 0-.675.15 1 1 0 0 0-.406.399 1.172 1.172 0 0 0-.137.567v2.857h-.8zm3.937 4.449a1.662 1.662 0 0 1-.68-.705 2.34 2.34 0 0 1-.234-1.081v-.703a2.22 2.22 0 0 1 .248-1.083 1.756 1.756 0 0 1 .684-.703 2.091 2.091 0 0 1 1.98.002 1.773 1.773 0 0 1 .678.707 2.243 2.243 0 0 1 .246 1.077v.557h-3.045v.234a1.38 1.38 0 0 0 .303.905 1.072 1.072 0 0 0 .879.37 1.359 1.359 0 0 0 .476-.078.942.942 0 0 0 .34-.202.598.598 0 0 0 .168-.266h.817a1.118 1.118 0 0 1-.147.396 1.497 1.497 0 0 1-.34.397 1.758 1.758 0 0 1-.545.306 2.23 2.23 0 0 1-.764.118 2.14 2.14 0 0 1-1.064-.248zm2.13-2.507v-.075a1.513 1.513 0 0 0-.14-.67 1.06 1.06 0 0 0-.393-.445 1.088 1.088 0 0 0-.591-.158 1.1 1.1 0 0 0-.593.158 1.058 1.058 0 0 0-.395.445 1.513 1.513 0 0 0-.141.67v.075zm1.684-.017a2.245 2.245 0 0 1 .235-1.057 1.665 1.665 0 0 1 .668-.696 2.313 2.313 0 0 1 1.997-.038 1.53 1.53 0 0 1 .594.532 1.308 1.308 0 0 1 .21.67h-.773a1.074 1.074 0 0 0-.12-.306.798.798 0 0 0-.302-.29 1.131 1.131 0 0 0-.567-.121 1.035 1.035 0 0 0-.855.361 1.493 1.493 0 0 0-.292.971v.738a1.422 1.422 0 0 0 .306.956 1.047 1.047 0 0 0 .84.359 1.383 1.383 0 0 0 .553-.093.761.761 0 0 0 .318-.244.88.88 0 0 0 .15-.327h.773a1.305 1.305 0 0 1-.211.652 1.42 1.42 0 0 1-.59.51 2.247 2.247 0 0 1-1.005.195 2.032 2.032 0 0 1-1.026-.246 1.658 1.658 0 0 1-.668-.698 2.292 2.292 0 0 1-.235-1.073zm7.596-1.76a1.742 1.742 0 0 1 .71.698 2.21 2.21 0 0 1 .259 1.102v.685a2.224 2.224 0 0 1-.26 1.11 1.742 1.742 0 0 1-.709.698 2.148 2.148 0 0 1-1.026.239 2.187 2.187 0 0 1-1.035-.236 1.706 1.706 0 0 1-.707-.698 2.24 2.24 0 0 1-.258-1.113v-.681a2.169 2.169 0 0 1 .26-1.086 1.822 1.822 0 0 1 .712-.707 2.088 2.088 0 0 1 1.028-.25 2.149 2.149 0 0 1 1.026.239zm-1.666.619a1.188 1.188 0 0 0-.417.506 1.771 1.771 0 0 0-.147.745v.558a1.853 1.853 0 0 0 .14.75 1.126 1.126 0 0 0 .412.502 1.154 1.154 0 0 0 .656.18 1.076 1.076 0 0 0 1.052-.681 1.87 1.87 0 0 0 .14-.751v-.558a1.839 1.839 0 0 0-.143-.748 1.178 1.178 0 0 0-.412-.503 1.11 1.11 0 0 0-.637-.183 1.128 1.128 0 0 0-.644.183zm3.773-.784h.786v.738h.044a1.299 1.299 0 0 1 .184-.353 1.085 1.085 0 0 1 .387-.324 1.452 1.452 0 0 1 .682-.135 1.541 1.541 0 0 1 .613.113 1.197 1.197 0 0 1 .43.312 1.182 1.182 0 0 1 .24.444h.035a1.455 1.455 0 0 1 .274-.424 1.35 1.35 0 0 1 .464-.322 1.668 1.668 0 0 1 .672-.123 1.578 1.578 0 0 1 1.116.375 1.39 1.39 0 0 1 .405 1.07v3.252h-.795v-3.028a1.158 1.158 0 0 0-.108-.516.789.789 0 0 0-.323-.34 1.048 1.048 0 0 0-.527-.124.977.977 0 0 0-.519.139 1.019 1.019 0 0 0-.365.38 1.115 1.115 0 0 0-.136.557v2.932h-.787v-2.997a1.143 1.143 0 0 0-.118-.532.862.862 0 0 0-.336-.354 1.043 1.043 0 0 0-.525-.125.998.998 0 0 0-.517.134.931.931 0 0 0-.354.376 1.181 1.181 0 0 0-.127.558v2.94h-.795zm7.685 0h.787v.738h.044a1.299 1.299 0 0 1 .185-.353 1.085 1.085 0 0 1 .387-.324 1.448 1.448 0 0 1 .68-.135 1.54 1.54 0 0 1 .613.113 1.197 1.197 0 0 1 .431.312 1.182 1.182 0 0 1 .24.444h.035a1.476 1.476 0 0 1 .274-.424 1.359 1.359 0 0 1 .464-.322 1.673 1.673 0 0 1 .673-.123 1.578 1.578 0 0 1 1.116.375 1.39 1.39 0 0 1 .404 1.07v3.252h-.796v-3.028a1.158 1.158 0 0 0-.107-.516.789.789 0 0 0-.323-.34 1.048 1.048 0 0 0-.528-.124.977.977 0 0 0-.518.139 1.017 1.017 0 0 0-.365.38 1.116 1.116 0 0 0-.136.557v2.932h-.786v-2.997a1.143 1.143 0 0 0-.12-.532.862.862 0 0 0-.335-.354 1.043 1.043 0 0 0-.526-.125 1 1 0 0 0-.516.134.938.938 0 0 0-.354.376 1.18 1.18 0 0 0-.127.558v2.94h-.796zm8.367 4.449a1.654 1.654 0 0 1-.678-.705 2.329 2.329 0 0 1-.236-1.081v-.703a2.221 2.221 0 0 1 .25-1.083 1.753 1.753 0 0 1 .682-.703 2.093 2.093 0 0 1 1.98.002 1.773 1.773 0 0 1 .68.707 2.243 2.243 0 0 1 .245 1.077v.557h-3.046v.234a1.38 1.38 0 0 0 .304.905 1.072 1.072 0 0 0 .879.37 1.363 1.363 0 0 0 .477-.078.95.95 0 0 0 .338-.202.598.598 0 0 0 .17-.266h.817a1.138 1.138 0 0 1-.148.396 1.52 1.52 0 0 1-.34.397 1.759 1.759 0 0 1-.545.306 2.23 2.23 0 0 1-.765.118 2.14 2.14 0 0 1-1.064-.248zm2.132-2.507v-.075a1.513 1.513 0 0 0-.14-.67 1.067 1.067 0 0 0-.394-.445 1.09 1.09 0 0 0-.59-.158 1.103 1.103 0 0 0-.595.158 1.058 1.058 0 0 0-.395.445 1.513 1.513 0 0 0-.14.67v.075zm1.906-1.942h.788v.84h.044a1.494 1.494 0 0 1 .202-.397 1.196 1.196 0 0 1 .43-.364 1.627 1.627 0 0 1 .769-.153 1.654 1.654 0 0 1 1.134.381 1.464 1.464 0 0 1 .435 1.16v3.156h-.796v-2.904a1.363 1.363 0 0 0-.12-.61.827.827 0 0 0-.345-.367 1.11 1.11 0 0 0-.537-.123 1.15 1.15 0 0 0-.674.19 1.133 1.133 0 0 0-.402.513 1.92 1.92 0 0 0-.132.726v2.575h-.796zm7.313.02a1.313 1.313 0 0 1 .46.261 1.067 1.067 0 0 1 .283.404h.04v-2.377h.795v6.315h-.764v-.739h-.04a.816.816 0 0 1-.176.328 1.17 1.17 0 0 1-.314.253 1.753 1.753 0 0 1-.416.165 1.94 1.94 0 0 1-.483.06 1.793 1.793 0 0 1-.938-.24 1.603 1.603 0 0 1-.618-.671 2.234 2.234 0 0 1-.22-1.02v-.896a2.192 2.192 0 0 1 .225-1.022 1.64 1.64 0 0 1 .628-.672 1.815 1.815 0 0 1 .94-.24 1.882 1.882 0 0 1 .598.09zm-1.052.76a1.09 1.09 0 0 0-.398.485 1.865 1.865 0 0 0-.14.76v.563a1.863 1.863 0 0 0 .143.767 1.077 1.077 0 0 0 .406.486 1.148 1.148 0 0 0 .628.167 1.17 1.17 0 0 0 .63-.165 1.115 1.115 0 0 0 .416-.466 1.587 1.587 0 0 0 .15-.714v-.8a1.31 1.31 0 0 0-.159-.648 1.158 1.158 0 0 0-.433-.444 1.214 1.214 0 0 0-.626-.16 1.092 1.092 0 0 0-.617.169zm4.7 3.669a1.656 1.656 0 0 1-.68-.705 2.34 2.34 0 0 1-.235-1.081v-.703a2.221 2.221 0 0 1 .248-1.083 1.756 1.756 0 0 1 .684-.703 2.093 2.093 0 0 1 1.98.002 1.777 1.777 0 0 1 .678.707 2.243 2.243 0 0 1 .246 1.077v.557h-3.045v.234a1.384 1.384 0 0 0 .303.905 1.075 1.075 0 0 0 .879.37 1.355 1.355 0 0 0 .477-.078.947.947 0 0 0 .34-.202.587.587 0 0 0 .167-.266h.819a1.103 1.103 0 0 1-.149.396 1.497 1.497 0 0 1-.34.397 1.758 1.758 0 0 1-.544.306 2.236 2.236 0 0 1-.766.118 2.137 2.137 0 0 1-1.063-.248zm2.13-2.507v-.075a1.513 1.513 0 0 0-.14-.67 1.065 1.065 0 0 0-.393-.445 1.09 1.09 0 0 0-.592-.158 1.106 1.106 0 0 0-.593.158 1.056 1.056 0 0 0-.395.445 1.513 1.513 0 0 0-.14.67v.075zm4.075-1.923a1.317 1.317 0 0 1 .459.262 1.067 1.067 0 0 1 .283.404h.039v-2.377h.796v6.315h-.765v-.739h-.039a.84.84 0 0 1-.176.328 1.19 1.19 0 0 1-.314.253 1.753 1.753 0 0 1-.416.165 1.937 1.937 0 0 1-.483.06 1.794 1.794 0 0 1-.938-.24 1.603 1.603 0 0 1-.618-.671 2.234 2.234 0 0 1-.219-1.02v-.896a2.192 2.192 0 0 1 .224-1.022 1.64 1.64 0 0 1 .628-.672 1.816 1.816 0 0 1 .94-.24 1.891 1.891 0 0 1 .599.09zm-1.053.761a1.09 1.09 0 0 0-.399.485 1.865 1.865 0 0 0-.14.76v.563a1.863 1.863 0 0 0 .143.767 1.077 1.077 0 0 0 .407.486 1.148 1.148 0 0 0 .627.167 1.168 1.168 0 0 0 .631-.165 1.117 1.117 0 0 0 .416-.466 1.6 1.6 0 0 0 .149-.714v-.8a1.31 1.31 0 0 0-.158-.648 1.151 1.151 0 0 0-.433-.444 1.212 1.212 0 0 0-.626-.16 1.092 1.092 0 0 0-.617.169zm6.47 1.285a2.743 2.743 0 0 0 .185 1.064 1.44 1.44 0 0 0 .536.67 1.516 1.516 0 0 0 .853.23 1.636 1.636 0 0 0 .685-.136 1.254 1.254 0 0 0 .486-.38 1.134 1.134 0 0 0 .226-.56h.8v.026a1.74 1.74 0 0 1-.34.91 2.026 2.026 0 0 1-.778.628 2.757 2.757 0 0 1-2.378-.086 2 2 0 0 1-.81-.912 3.417 3.417 0 0 1-.277-1.445v-.865a3.423 3.423 0 0 1 .281-1.455 2.066 2.066 0 0 1 .817-.93 2.445 2.445 0 0 1 1.283-.322 2.512 2.512 0 0 1 .84.135 2.147 2.147 0 0 1 .681.387 1.978 1.978 0 0 1 .472.59 1.884 1.884 0 0 1 .209.746v.027h-.8a1.262 1.262 0 0 0-.228-.605 1.34 1.34 0 0 0-.49-.413 1.492 1.492 0 0 0-.68-.151 1.466 1.466 0 0 0-.843.239 1.519 1.519 0 0 0-.54.685 2.734 2.734 0 0 0-.19 1.075zm4.961 2.558v-5.998h.766l2.966 4.613h.04v-4.613h.795v5.998h-.765l-2.975-4.62h-.03v4.62zm6.605-2.558a2.743 2.743 0 0 0 .184 1.064 1.44 1.44 0 0 0 .537.67 1.516 1.516 0 0 0 .852.23 1.636 1.636 0 0 0 .686-.136 1.254 1.254 0 0 0 .485-.38 1.134 1.134 0 0 0 .227-.56h.8v.026a1.74 1.74 0 0 1-.341.91 2.026 2.026 0 0 1-.778.628 2.757 2.757 0 0 1-2.378-.086 2 2 0 0 1-.81-.912 3.417 3.417 0 0 1-.277-1.445v-.865a3.423 3.423 0 0 1 .282-1.455 2.066 2.066 0 0 1 .816-.93 2.445 2.445 0 0 1 1.283-.322 2.512 2.512 0 0 1 .84.135 2.147 2.147 0 0 1 .682.387 1.978 1.978 0 0 1 .471.59 1.884 1.884 0 0 1 .21.746v.026h-.8a1.262 1.262 0 0 0-.229-.604 1.34 1.34 0 0 0-.49-.413 1.492 1.492 0 0 0-.679-.151 1.466 1.466 0 0 0-.844.239 1.519 1.519 0 0 0-.54.685 2.734 2.734 0 0 0-.189 1.075zm4.96 2.558v-5.998h3.574v.716h-2.765v2.004h2.532v.708h-2.532v2.57zm-82.991 7.034h-.778v-.646h.778v-.461a1.283 1.283 0 0 1 .339-.983 1.61 1.61 0 0 1 1.11-.313c.103 0 .206.003.308.007q.154.01.22.018v.643a1.632 1.632 0 0 0-.188-.014 7.019 7.019 0 0 0-.225-.004.956.956 0 0 0-.593.147.69.69 0 0 0-.184.56v.4h1.072v.646h-1.063v3.964h-.796zm5.561-.494a1.745 1.745 0 0 1 .71.698 2.21 2.21 0 0 1 .259 1.102v.685a2.224 2.224 0 0 1-.259 1.11 1.745 1.745 0 0 1-.71.698 2.148 2.148 0 0 1-1.026.24 2.19 2.19 0 0 1-1.035-.237 1.712 1.712 0 0 1-.707-.698 2.24 2.24 0 0 1-.257-1.113v-.681a2.169 2.169 0 0 1 .259-1.086 1.822 1.822 0 0 1 .712-.707 2.088 2.088 0 0 1 1.028-.25 2.149 2.149 0 0 1 1.026.239zm-1.666.619a1.188 1.188 0 0 0-.417.506 1.771 1.771 0 0 0-.147.745v.558a1.853 1.853 0 0 0 .14.75 1.126 1.126 0 0 0 .411.503 1.157 1.157 0 0 0 .658.18 1.075 1.075 0 0 0 1.051-.682 1.87 1.87 0 0 0 .14-.751v-.558a1.838 1.838 0 0 0-.143-.748 1.178 1.178 0 0 0-.412-.503 1.108 1.108 0 0 0-.636-.183 1.13 1.13 0 0 0-.645.183zm3.844-.784h.795v.712h.04a1.408 1.408 0 0 1 .202-.334 1.193 1.193 0 0 1 .4-.315 1.45 1.45 0 0 1 .663-.134 1.474 1.474 0 0 1 .148.007c.048.004.096.01.143.015v.726a1.002 1.002 0 0 0-.16-.02 3.051 3.051 0 0 0-.215-.007 1.376 1.376 0 0 0-.673.15 1.003 1.003 0 0 0-.408.399 1.171 1.171 0 0 0-.135.567v2.857h-.8zm7.894.165a1.742 1.742 0 0 1 .71.698 2.21 2.21 0 0 1 .26 1.102v.685a2.224 2.224 0 0 1-.26 1.11 1.742 1.742 0 0 1-.71.698 2.148 2.148 0 0 1-1.026.24 2.187 2.187 0 0 1-1.035-.237 1.706 1.706 0 0 1-.707-.698 2.24 2.24 0 0 1-.258-1.113v-.681a2.169 2.169 0 0 1 .26-1.086 1.822 1.822 0 0 1 .712-.707 2.088 2.088 0 0 1 1.028-.25 2.149 2.149 0 0 1 1.026.239zm-1.666.619a1.188 1.188 0 0 0-.417.506 1.77 1.77 0 0 0-.147.745v.558a1.853 1.853 0 0 0 .14.75 1.126 1.126 0 0 0 .412.503 1.154 1.154 0 0 0 .656.18 1.076 1.076 0 0 0 1.053-.682 1.87 1.87 0 0 0 .138-.751v-.558a1.838 1.838 0 0 0-.142-.748 1.178 1.178 0 0 0-.411-.503 1.11 1.11 0 0 0-.638-.183 1.128 1.128 0 0 0-.644.183zm4.023-1.93h.787v1.16h1.046v.645h-1.046v2.663a.705.705 0 0 0 .162.547.92.92 0 0 0 .585.139c.056 0 .121-.003.197-.01s.132-.009.167-.012v.637a1.706 1.706 0 0 1-.24.026 4.87 4.87 0 0 1-.326.013 1.93 1.93 0 0 1-.837-.143.755.755 0 0 1-.394-.44 2.277 2.277 0 0 1-.105-.753v-2.667h-.708v-.646h.712zm2.944-.546h.795v2.532h.04a1.421 1.421 0 0 1 .2-.376 1.259 1.259 0 0 1 .45-.378 1.861 1.861 0 0 1 1.892.226 1.466 1.466 0 0 1 .442 1.164v3.147h-.795v-2.897a1.344 1.344 0 0 0-.126-.612.836.836 0 0 0-.356-.372 1.151 1.151 0 0 0-.543-.123 1.122 1.122 0 0 0-.663.19 1.166 1.166 0 0 0-.404.513 1.865 1.865 0 0 0-.137.726v2.575h-.795zm5.849 6.141a1.654 1.654 0 0 1-.679-.705 2.329 2.329 0 0 1-.235-1.081v-.703a2.221 2.221 0 0 1 .249-1.083 1.753 1.753 0 0 1 .682-.703 2.093 2.093 0 0 1 1.98.002 1.773 1.773 0 0 1 .68.707 2.243 2.243 0 0 1 .246 1.077v.557h-3.046v.234a1.38 1.38 0 0 0 .303.905 1.072 1.072 0 0 0 .88.37 1.363 1.363 0 0 0 .476-.078.951.951 0 0 0 .339-.202.598.598 0 0 0 .169-.266h.817a1.138 1.138 0 0 1-.147.396 1.52 1.52 0 0 1-.341.397 1.758 1.758 0 0 1-.545.306 2.23 2.23 0 0 1-.765.118 2.14 2.14 0 0 1-1.063-.248zm2.132-2.507v-.075a1.513 1.513 0 0 0-.14-.67 1.067 1.067 0 0 0-.394-.445 1.09 1.09 0 0 0-.591-.158 1.103 1.103 0 0 0-.594.158 1.058 1.058 0 0 0-.396.445 1.513 1.513 0 0 0-.14.67v.075zm1.976-1.942h.796v.712h.04a1.408 1.408 0 0 1 .201-.334 1.198 1.198 0 0 1 .4-.315 1.445 1.445 0 0 1 .664-.134 1.474 1.474 0 0 1 .147.007c.048.004.096.01.143.015v.726a1.002 1.002 0 0 0-.16-.02 3.023 3.023 0 0 0-.213-.007 1.38 1.38 0 0 0-.675.15 1 1 0 0 0-.406.399 1.172 1.172 0 0 0-.137.567v2.857h-.8zm6.682 4.605a1.277 1.277 0 0 1-.45-.257 1.23 1.23 0 0 1-.3-.41h-.04v2.218h-.794v-6.16h.765v.738h.039a1.098 1.098 0 0 1 .2-.334 1.213 1.213 0 0 1 .311-.256 1.575 1.575 0 0 1 .403-.16 1.962 1.962 0 0 1 .47-.055 1.769 1.769 0 0 1 .94.243 1.6 1.6 0 0 1 .611.685A2.394 2.394 0 0 1 373 92.67v.795a2.386 2.386 0 0 1-.218 1.058 1.589 1.589 0 0 1-.622.686 1.977 1.977 0 0 1-1.531.154zm1.04-.764a1.078 1.078 0 0 0 .394-.495 2.02 2.02 0 0 0 .137-.784v-.492a2.046 2.046 0 0 0-.137-.79 1.062 1.062 0 0 0-.399-.498 1.152 1.152 0 0 0-.642-.17 1.185 1.185 0 0 0-.63.161 1.06 1.06 0 0 0-.41.464 1.669 1.669 0 0 0-.142.718v.805a1.366 1.366 0 0 0 .151.652 1.1 1.1 0 0 0 .425.441 1.227 1.227 0 0 0 .628.159 1.101 1.101 0 0 0 .626-.171zm2.553-3.841h.795v.712h.04a1.408 1.408 0 0 1 .202-.334 1.193 1.193 0 0 1 .4-.315 1.45 1.45 0 0 1 .663-.134 1.474 1.474 0 0 1 .148.007c.048.004.095.01.142.015v.726a1.002 1.002 0 0 0-.16-.02 3.052 3.052 0 0 0-.214-.007 1.376 1.376 0 0 0-.674.15 1.003 1.003 0 0 0-.407.399 1.171 1.171 0 0 0-.136.567v2.857h-.8zm6.049.165a1.742 1.742 0 0 1 .709.698 2.21 2.21 0 0 1 .26 1.102v.685a2.224 2.224 0 0 1-.26 1.11 1.742 1.742 0 0 1-.71.698 2.148 2.148 0 0 1-1.026.24 2.187 2.187 0 0 1-1.035-.237 1.706 1.706 0 0 1-.707-.698 2.24 2.24 0 0 1-.258-1.113v-.681a2.169 2.169 0 0 1 .26-1.086 1.822 1.822 0 0 1 .712-.707 2.088 2.088 0 0 1 1.028-.25 2.149 2.149 0 0 1 1.027.239zm-1.666.619a1.188 1.188 0 0 0-.417.506 1.771 1.771 0 0 0-.148.745v.558a1.853 1.853 0 0 0 .14.75 1.126 1.126 0 0 0 .412.503 1.154 1.154 0 0 0 .656.18 1.076 1.076 0 0 0 1.053-.682 1.87 1.87 0 0 0 .138-.751v-.558a1.839 1.839 0 0 0-.142-.748 1.178 1.178 0 0 0-.411-.503 1.11 1.11 0 0 0-.638-.183 1.128 1.128 0 0 0-.644.183zm4.677 3.948a2.085 2.085 0 0 1-.154.866 1.027 1.027 0 0 1-.44.49 1.416 1.416 0 0 1-.685.156 2.65 2.65 0 0 1-.252-.013 1.506 1.506 0 0 1-.191-.026v-.624a1.914 1.914 0 0 0 .285.022.554.554 0 0 0 .5-.214 1.232 1.232 0 0 0 .141-.665v-4.724h.796zm-.802-6.552a.55.55 0 0 1 .398-.153.577.577 0 0 1 .413.153.52.52 0 0 1 .162.396.512.512 0 0 1-.162.39.573.573 0 0 1-.413.155.547.547 0 0 1-.398-.154.515.515 0 0 1-.16-.391.523.523 0 0 1 .16-.396zm2.968 6.269a1.654 1.654 0 0 1-.678-.705 2.329 2.329 0 0 1-.236-1.081v-.703a2.221 2.221 0 0 1 .25-1.083 1.753 1.753 0 0 1 .682-.703 2.093 2.093 0 0 1 1.98.002 1.773 1.773 0 0 1 .679.707 2.243 2.243 0 0 1 .246 1.077v.557h-3.046v.234a1.38 1.38 0 0 0 .304.905 1.072 1.072 0 0 0 .879.37 1.363 1.363 0 0 0 .476-.078.95.95 0 0 0 .34-.202.598.598 0 0 0 .168-.266h.818a1.119 1.119 0 0 1-.148.396 1.497 1.497 0 0 1-.34.397 1.759 1.759 0 0 1-.545.306 2.24 2.24 0 0 1-.765.118 2.14 2.14 0 0 1-1.064-.248zm2.132-2.507v-.075a1.513 1.513 0 0 0-.14-.67 1.06 1.06 0 0 0-.394-.445 1.09 1.09 0 0 0-.59-.158 1.103 1.103 0 0 0-.595.158 1.058 1.058 0 0 0-.395.445 1.513 1.513 0 0 0-.14.67v.075zm1.684-.017a2.257 2.257 0 0 1 .234-1.057 1.677 1.677 0 0 1 .668-.696 2.315 2.315 0 0 1 1.998-.038 1.533 1.533 0 0 1 .593.532 1.308 1.308 0 0 1 .21.67h-.773a1.046 1.046 0 0 0-.12-.306.79.79 0 0 0-.302-.29 1.131 1.131 0 0 0-.567-.121 1.037 1.037 0 0 0-.854.361 1.498 1.498 0 0 0-.292.971v.738a1.422 1.422 0 0 0 .305.956 1.047 1.047 0 0 0 .841.359 1.38 1.38 0 0 0 .552-.093.764.764 0 0 0 .32-.244.877.877 0 0 0 .148-.327h.773a1.286 1.286 0 0 1-.21.652 1.408 1.408 0 0 1-.592.51 2.245 2.245 0 0 1-1.004.195 2.034 2.034 0 0 1-1.026-.246 1.67 1.67 0 0 1-.668-.698 2.303 2.303 0 0 1-.234-1.073zm5.043-3.072h.787v1.16h1.046v.646h-1.046v2.663a.705.705 0 0 0 .162.547.92.92 0 0 0 .585.139c.056 0 .12-.003.198-.01l.166-.012v.637a1.706 1.706 0 0 1-.241.026 4.871 4.871 0 0 1-.325.013 1.93 1.93 0 0 1-.837-.143.755.755 0 0 1-.394-.44 2.277 2.277 0 0 1-.105-.753v-2.667h-.707v-.646h.71zm2.956 1.672a1.41 1.41 0 0 1 .636-.455 2.417 2.417 0 0 1 .842-.144 2.158 2.158 0 0 1 .872.162 1.366 1.366 0 0 1 .578.45 1.136 1.136 0 0 1 .206.679h-.738a.645.645 0 0 0-.118-.317.777.777 0 0 0-.31-.252 1.18 1.18 0 0 0-.516-.1 1.15 1.15 0 0 0-.666.181.592.592 0 0 0-.26.519.5.5 0 0 0 .105.332.72.72 0 0 0 .274.197 1.794 1.794 0 0 0 .371.112c.135.027.267.052.396.076a4.578 4.578 0 0 1 .793.204 1.334 1.334 0 0 1 .574.382 1.062 1.062 0 0 1 .215.705 1.319 1.319 0 0 1-.23.785 1.427 1.427 0 0 1-.647.49 2.603 2.603 0 0 1-.97.166 2.55 2.55 0 0 1-.904-.148 1.35 1.35 0 0 1-.61-.438 1.118 1.118 0 0 1-.221-.701h.778a.78.78 0 0 0 .14.355.695.695 0 0 0 .322.232 1.501 1.501 0 0 0 .531.08 1.443 1.443 0 0 0 .59-.1.726.726 0 0 0 .333-.264.652.652 0 0 0 .105-.365.503.503 0 0 0-.153-.395 1.05 1.05 0 0 0-.418-.21 7.994 7.994 0 0 0-.584-.133 5.941 5.941 0 0 1-.785-.213 1.292 1.292 0 0 1-.565-.372 1.04 1.04 0 0 1-.21-.698 1.254 1.254 0 0 1 .244-.802z"/></g></svg>