<svg xmlns="http://www.w3.org/2000/svg" viewBox="-15.25 -10.75 819 264"><defs><clipPath id="clip-path"><path fill="none" d="M.496 3.564H823v234.127H.496z"/></clipPath><style>.cls-2{clip-path:url(#clip-path)}.cls-3{fill:#a6a6a6}.cls-4{fill:#373535}.cls-5{fill:#00c2cc}.cls-6{fill:#0096ba}</style></defs><g class="cls-2"><path d="M513.889 237.644h-283.22V6.059h283.22zm-282.22-1h281.22V7.059h-281.22zm-20.79-.027H.542V5.03H210.88zm-209.337-1H209.88V6.03H1.542z" class="cls-3"/></g><path d="M533.041 5.706h254.982v29.905H533.041zm-301.807 0h282.133v29.905H231.234zm-230.192 0h209.337v29.905H1.042z" class="cls-3"/><path d="M435.763 205.055l-1.882-4.662h-.027q.027.428.027.877v3.785h-.339v-5.05h.546l1.789 4.442h.021l1.789-4.441h.531v5.049h-.355v-3.827q0-.4.041-.829h-.028l-1.889 4.656zm5.311.069a1.636 1.636 0 0 1-1.276-.504 2.027 2.027 0 0 1-.457-1.413 2.201 2.201 0 0 1 .442-1.438 1.459 1.459 0 0 1 1.191-.541 1.286 1.286 0 0 1 1.047.463 1.912 1.912 0 0 1 .383 1.257v.276H439.7a1.777 1.777 0 0 0 .36 1.181 1.27 1.27 0 0 0 1.014.408 3.161 3.161 0 0 0 .565-.045 3.41 3.41 0 0 0 .616-.193v.31a2.737 2.737 0 0 1-.587.189 3.28 3.28 0 0 1-.594.05zm-.1-3.592a1.125 1.125 0 0 0-.87.358 1.685 1.685 0 0 0-.383 1.03h2.32a1.639 1.639 0 0 0-.283-1.02.935.935 0 0 0-.784-.368zm5.084 3.523v-2.435a1.186 1.186 0 0 0-.239-.824.962.962 0 0 0-.738-.257 1.28 1.28 0 0 0-.987.34 1.604 1.604 0 0 0-.312 1.103v2.073h-.342V201.3h.29l.066.514h.02a1.411 1.411 0 0 1 1.303-.587q1.277 0 1.277 1.371v2.456zm-13.893 4.589a1.56 1.56 0 0 1 1.034.328 1.097 1.097 0 0 1 .392.887 1.048 1.048 0 0 1-.243.684 2.208 2.208 0 0 1-.79.549 2.388 2.388 0 0 1 .933.597 1.192 1.192 0 0 1 .27.788 1.246 1.246 0 0 1-.438.998 2.084 2.084 0 0 1-2.343.024 1.263 1.263 0 0 1-.407-1.015 1.198 1.198 0 0 1 .286-.795 2.21 2.21 0 0 1 .888-.583 2.156 2.156 0 0 1-.784-.554 1.104 1.104 0 0 1-.228-.7 1.122 1.122 0 0 1 .183-.637 1.186 1.186 0 0 1 .513-.423 1.768 1.768 0 0 1 .734-.148zm-1.24 3.892a.899.899 0 0 0 .323.738 1.394 1.394 0 0 0 .903.263 1.411 1.411 0 0 0 .911-.278.917.917 0 0 0 .346-.755.936.936 0 0 0-.271-.695 3.184 3.184 0 0 0-1.045-.561 2.344 2.344 0 0 0-.901.542 1.078 1.078 0 0 0-.266.746zm1.233-3.582a1.201 1.201 0 0 0-.783.24.802.802 0 0 0-.295.658.828.828 0 0 0 .109.427 1.132 1.132 0 0 0 .314.335 3.578 3.578 0 0 0 .69.35 2.192 2.192 0 0 0 .808-.48.893.893 0 0 0 .245-.632.806.806 0 0 0-.292-.656 1.21 1.21 0 0 0-.796-.242zm2.487 2.673a4.488 4.488 0 0 1 .267-1.656 2.058 2.058 0 0 1 .76-.996 2.305 2.305 0 0 1 1.78-.245v.304a1.764 1.764 0 0 0-.608-.094 1.583 1.583 0 0 0-1.328.615 3.152 3.152 0 0 0-.533 1.79h.045a1.793 1.793 0 0 1 .6-.512 1.55 1.55 0 0 1 .715-.173 1.485 1.485 0 0 1 1.107.404 1.518 1.518 0 0 1 .4 1.116 1.713 1.713 0 0 1-.42 1.22 1.478 1.478 0 0 1-1.132.448 1.438 1.438 0 0 1-1.21-.585 2.656 2.656 0 0 1-.443-1.636zm1.653 1.917a1.114 1.114 0 0 0 .881-.356 1.486 1.486 0 0 0 .314-1.015 1.256 1.256 0 0 0-.31-.905 1.116 1.116 0 0 0-.847-.325 1.404 1.404 0 0 0-.654.156 1.298 1.298 0 0 0-.482.413.911.911 0 0 0-.18.526 1.67 1.67 0 0 0 .172.737 1.438 1.438 0 0 0 .462.562 1.088 1.088 0 0 0 .644.207zm2.49-.035q0-.338.277-.338.283 0 .283.338 0 .339-.283.339-.277 0-.276-.339zm3.478.27h-.339V211.1q0-.5.042-1.04c-.034.035-.07.068-.107.1s-.393.313-1.067.84l-.197-.246 1.37-1.025h.298zm4.058-3.544a2.224 2.224 0 0 1-.26 1.187.833.833 0 0 1-.745.406.81.81 0 0 1-.72-.416 2.218 2.218 0 0 1-.261-1.177 2.262 2.262 0 0 1 .248-1.173.807.807 0 0 1 .733-.405.83.83 0 0 1 .742.416 2.173 2.173 0 0 1 .263 1.162zm-1.648 0a2.309 2.309 0 0 0 .156.966.511.511 0 0 0 .487.323q.666 0 .666-1.289a2.088 2.088 0 0 0-.17-.954.538.538 0 0 0-.496-.32.511.511 0 0 0-.487.32 2.26 2.26 0 0 0-.156.954zm3.692-1.505l-2.8 5.049h-.332l2.8-5.049zm.898 3.536a2.25 2.25 0 0 1-.255 1.187.825.825 0 0 1-.743.405.812.812 0 0 1-.728-.42 2.819 2.819 0 0 1-.006-2.35.866.866 0 0 1 1.47.015 2.169 2.169 0 0 1 .262 1.163zm-1.647 0a2.272 2.272 0 0 0 .155.959.511.511 0 0 0 .487.319q.667 0 .667-1.278 0-1.274-.667-1.274a.511.511 0 0 0-.487.316 2.255 2.255 0 0 0-.155.958zM294.6 57.978h-.29l-1.109-3.896q-.137-.48-.207-.787-.055.3-.157.69-.102.391-1.114 3.993h-.297l-1.388-5.049h.37l.884 3.253.096.364a16.388 16.388 0 0 1 .147.598c.02.09.037.183.053.274q.083-.47.353-1.426l.863-3.063h.39l1.012 3.516q.177.608.253.98.044-.248.115-.528.07-.28 1.066-3.968h.355zm5.305-1.882a2.127 2.127 0 0 1-.446 1.435 1.537 1.537 0 0 1-1.23.516 1.59 1.59 0 0 1-.87-.238 1.522 1.522 0 0 1-.576-.684 2.484 2.484 0 0 1-.2-1.03 2.112 2.112 0 0 1 .445-1.43 1.535 1.535 0 0 1 1.222-.514 1.505 1.505 0 0 1 1.214.52 2.135 2.135 0 0 1 .44 1.425zm-2.964 0a1.907 1.907 0 0 0 .34 1.207 1.283 1.283 0 0 0 1.924 0 1.907 1.907 0 0 0 .34-1.207 1.88 1.88 0 0 0-.343-1.205 1.167 1.167 0 0 0-.966-.429 1.15 1.15 0 0 0-.958.427 1.905 1.905 0 0 0-.337 1.207zm8.693 1.882v-2.462a1.225 1.225 0 0 0-.215-.802.813.813 0 0 0-.655-.252 1.07 1.07 0 0 0-.853.318 1.496 1.496 0 0 0-.277.998v2.2h-.349v-2.566q0-.95-.87-.95a1.026 1.026 0 0 0-.86.344 1.788 1.788 0 0 0-.27 1.1v2.072h-.341v-3.754h.283l.073.515h.02a1.077 1.077 0 0 1 .442-.434 1.317 1.317 0 0 1 .633-.154 1.08 1.08 0 0 1 1.14.667h.013a1.277 1.277 0 0 1 .492-.494 1.415 1.415 0 0 1 .703-.173 1.206 1.206 0 0 1 .922.328 1.491 1.491 0 0 1 .307 1.044v2.455zm3.07.069a1.636 1.636 0 0 1-1.276-.504 2.027 2.027 0 0 1-.458-1.413 2.201 2.201 0 0 1 .442-1.438 1.459 1.459 0 0 1 1.192-.54 1.286 1.286 0 0 1 1.046.462 1.912 1.912 0 0 1 .383 1.258v.275h-2.704a1.777 1.777 0 0 0 .36 1.182 1.27 1.27 0 0 0 1.015.407 3.161 3.161 0 0 0 .565-.045 3.41 3.41 0 0 0 .616-.193v.31a2.737 2.737 0 0 1-.587.19 3.28 3.28 0 0 1-.594.049zm-.1-3.591a1.125 1.125 0 0 0-.87.357 1.685 1.685 0 0 0-.384 1.03h2.32a1.639 1.639 0 0 0-.282-1.02.935.935 0 0 0-.784-.367zm5.092 3.522v-2.435a1.186 1.186 0 0 0-.238-.823.962.962 0 0 0-.74-.258 1.28 1.28 0 0 0-.986.34 1.604 1.604 0 0 0-.312 1.104v2.072h-.342v-3.754h.29l.066.515h.02a1.411 1.411 0 0 1 1.303-.588q1.277 0 1.277 1.371v2.456zm-18.855 9.725h-.339v-3.678q0-.5.042-1.04c-.035.035-.07.069-.107.1s-.393.313-1.067.84l-.198-.245 1.372-1.026h.297zm5.062-3.86a1.122 1.122 0 0 1-.295.79 1.37 1.37 0 0 1-.793.411v.02a1.561 1.561 0 0 1 .926.388 1.117 1.117 0 0 1 .318.835 1.328 1.328 0 0 1-.482 1.097 2.165 2.165 0 0 1-1.387.388 2.964 2.964 0 0 1-1.343-.287v-.341a2.79 2.79 0 0 0 .651.238 2.922 2.922 0 0 0 .679.086 1.8 1.8 0 0 0 1.146-.309 1.057 1.057 0 0 0 .384-.872.88.88 0 0 0-.393-.77 2.032 2.032 0 0 0-1.15-.27h-.547v-.331h.553a1.536 1.536 0 0 0 .996-.298.989.989 0 0 0 .368-.81.843.843 0 0 0-.299-.676 1.168 1.168 0 0 0-.782-.254 2.13 2.13 0 0 0-.687.106 3.125 3.125 0 0 0-.698.36l-.17-.23a2.228 2.228 0 0 1 .709-.389 2.548 2.548 0 0 1 .839-.143 1.592 1.592 0 0 1 1.077.33 1.165 1.165 0 0 1 .38.93zm1.216 3.59q0-.338.277-.338.282 0 .283.339 0 .338-.283.338-.277 0-.277-.338zm4.7-2.638a4.618 4.618 0 0 1-.26 1.665 1.987 1.987 0 0 1-.76.991 2.184 2.184 0 0 1-1.208.321 2.344 2.344 0 0 1-.663-.09v-.297a1.928 1.928 0 0 0 .358.074 2.745 2.745 0 0 0 .32.026 1.604 1.604 0 0 0 1.336-.616 3.11 3.11 0 0 0 .538-1.797h-.041a1.751 1.751 0 0 1-.6.51 1.585 1.585 0 0 1-.73.177 1.354 1.354 0 0 1-1.484-1.485 1.75 1.75 0 0 1 .43-1.23 1.445 1.445 0 0 1 1.117-.47 1.48 1.48 0 0 1 .87.261 1.65 1.65 0 0 1 .575.766 3.213 3.213 0 0 1 .202 1.194zm-1.647-1.917a1.104 1.104 0 0 0-.87.369 1.468 1.468 0 0 0-.325 1.006 1.263 1.263 0 0 0 .3.912 1.141 1.141 0 0 0 .86.31 1.404 1.404 0 0 0 .651-.155 1.284 1.284 0 0 0 .48-.412.913.913 0 0 0 .178-.524 1.804 1.804 0 0 0-.16-.756 1.312 1.312 0 0 0-.45-.55 1.145 1.145 0 0 0-.664-.2zm4.482 1.282a2.224 2.224 0 0 1-.258 1.186.833.833 0 0 1-.747.406.81.81 0 0 1-.72-.416 2.218 2.218 0 0 1-.26-1.176 2.262 2.262 0 0 1 .248-1.174.807.807 0 0 1 .732-.404.83.83 0 0 1 .743.416 2.173 2.173 0 0 1 .262 1.162zm-1.647 0a2.309 2.309 0 0 0 .156.965.511.511 0 0 0 .486.323q.667 0 .667-1.288a2.088 2.088 0 0 0-.171-.955.538.538 0 0 0-.496-.32.511.511 0 0 0-.486.32 2.26 2.26 0 0 0-.156.955zm3.692-1.506l-2.801 5.05h-.332l2.801-5.05zm.898 3.536a2.25 2.25 0 0 1-.256 1.187.825.825 0 0 1-.742.406.812.812 0 0 1-.729-.42 2.819 2.819 0 0 1-.005-2.35.866.866 0 0 1 1.469.014 2.168 2.168 0 0 1 .263 1.163zm-1.648 0a2.272 2.272 0 0 0 .156.959.511.511 0 0 0 .487.32q.666 0 .666-1.279 0-1.274-.666-1.274a.511.511 0 0 0-.487.316 2.256 2.256 0 0 0-.156.958z" class="cls-4"/><g class="cls-2"><path d="M372.171 52.62q2.286 0 4.569.13 2.282.13 4.553.39 2.271.259 4.524.648 2.253.387 4.48.904 2.227.515 4.422 1.156 2.194.641 4.348 1.407 2.155.764 4.262 1.65 2.107.887 4.161 1.891 2.053 1.005 4.046 2.125 1.992 1.12 3.92 2.351 1.925 1.232 3.779 2.57 1.854 1.338 3.627 2.78 1.774 1.442 3.463 2.983 1.689 1.54 3.288 3.174 1.6 1.634 3.103 3.356 1.504 1.722 2.906 3.528 1.404 1.803 2.701 3.685 1.299 1.882 2.488 3.835 1.189 1.952 2.266 3.97 1.075 2.016 2.036 4.09.96 2.075 1.8 4.201.84 2.127 1.56 4.297.717 2.17 1.31 4.377.594 2.209 1.062 4.446.467 2.238.807 4.499t.548 4.537q.212 2.276.291 4.561.08 2.284.032 4.57-.05 2.286-.23 4.565-.178 2.279-.487 4.543-.308 2.266-.746 4.51-.436 2.243-1 4.46-.564 2.215-1.252 4.395-.689 2.18-1.501 4.317-.812 2.136-1.742 4.225-.933 2.087-1.98 4.118-1.05 2.032-2.213 4-1.163 1.969-2.435 3.868-1.273 1.898-2.651 3.723-1.379 1.823-2.858 3.565-1.48 1.743-3.058 3.398-1.575 1.656-3.244 3.218-1.669 1.564-3.422 3.03-1.754 1.466-3.59 2.829-1.834 1.364-3.743 2.621-1.91 1.258-3.888 2.405-1.977 1.146-4.017 2.178-2.04 1.033-4.135 1.948-2.095.913-4.239 1.708-2.142.794-4.328 1.466-2.186.67-4.406 1.217-2.22.546-4.467.964-2.248.42-4.515.709-2.268.29-4.549.451-2.28.161-4.565.192-2.286.03-4.57-.068-2.284-.098-4.56-.328-2.273-.228-4.532-.586-2.258-.357-4.491-.843-2.235-.485-4.437-1.097-2.203-.61-4.368-1.347-2.164-.736-4.283-1.593-2.118-.858-4.186-1.834-2.066-.978-4.075-2.07-2.009-1.093-3.95-2.297-1.943-1.205-3.815-2.518-1.87-1.314-3.664-2.732-1.794-1.416-3.503-2.935-1.71-1.516-3.332-3.129-1.62-1.612-3.146-3.314-1.529-1.7-2.955-3.487-1.428-1.785-2.751-3.65-1.325-1.864-2.54-3.799-1.216-1.936-2.319-3.938-1.103-2.003-2.092-4.064-.987-2.062-1.857-4.176-.869-2.114-1.616-4.275-.748-2.16-1.371-4.36-.625-2.2-1.121-4.43-.499-2.232-.868-4.487-.37-2.256-.611-4.53-.241-2.274-.353-4.556-.112-2.284-.093-4.57.02-2.287.167-4.567.15-2.28.426-4.55.277-2.27.685-4.519.406-2.25.94-4.473.532-2.223 1.192-4.412.66-2.189 1.442-4.336.782-2.15 1.685-4.249.904-2.1 1.925-4.145 1.021-2.046 2.157-4.03 1.136-1.983 2.382-3.9 1.246-1.916 2.6-3.758 1.355-1.842 2.81-3.604 1.457-1.763 3.01-3.44l58.947 54.633z" class="cls-5"/><path d="M310.568 81.373q1.41-1.682 2.908-3.285 1.499-1.602 3.084-3.12 1.584-1.519 3.248-2.947 1.664-1.43 3.405-2.767 1.74-1.336 3.55-2.576 1.81-1.24 3.685-2.378 1.875-1.14 3.81-2.174 1.933-1.036 3.922-1.963 1.987-.928 4.023-1.747 2.035-.818 4.112-1.524 2.078-.705 4.19-1.297 2.113-.59 4.254-1.066 2.141-.475 4.305-.834 2.165-.357 4.345-.596 2.18-.239 4.37-.36 2.19-.119 4.384-.118l.008 80.37z" class="cls-6"/></g><path d="M20.867 201.293h-.288l-1.099-3.862q-.137-.475-.205-.78-.055.297-.156.684-.1.387-1.104 3.958h-.295l-1.376-5.005h.366l.877 3.225.096.361q.044.166.08.312c.024.097.046.19.065.28q.03.136.053.273.082-.466.35-1.414l.855-3.037h.388l1.003 3.485q.175.602.25.973.044-.246.114-.524.07-.277 1.056-3.934h.353zm5.259-1.866a2.109 2.109 0 0 1-.442 1.423 1.524 1.524 0 0 1-1.219.512 1.578 1.578 0 0 1-.862-.237 1.51 1.51 0 0 1-.572-.677 2.466 2.466 0 0 1-.199-1.02 2.094 2.094 0 0 1 .442-1.42 1.521 1.521 0 0 1 1.212-.508 1.494 1.494 0 0 1 1.203.515 2.117 2.117 0 0 1 .437 1.412zm-2.938 0a1.894 1.894 0 0 0 .337 1.197 1.273 1.273 0 0 0 1.908 0 1.894 1.894 0 0 0 .337-1.197 1.865 1.865 0 0 0-.34-1.195 1.158 1.158 0 0 0-.958-.424 1.14 1.14 0 0 0-.95.423 1.892 1.892 0 0 0-.334 1.196zm8.618 1.866v-2.44a1.214 1.214 0 0 0-.212-.795.806.806 0 0 0-.651-.25 1.063 1.063 0 0 0-.846.315 1.484 1.484 0 0 0-.273.99v2.18h-.346v-2.544q0-.94-.863-.94a1.017 1.017 0 0 0-.853.34 1.778 1.778 0 0 0-.267 1.09v2.054h-.339v-3.721h.281l.072.51h.02a1.068 1.068 0 0 1 .439-.43 1.305 1.305 0 0 1 .626-.152 1.07 1.07 0 0 1 1.13.66h.014a1.267 1.267 0 0 1 .488-.49 1.408 1.408 0 0 1 .696-.17 1.196 1.196 0 0 1 .915.325 1.477 1.477 0 0 1 .305 1.034v2.434zm3.044.069a1.62 1.62 0 0 1-1.265-.5 2.007 2.007 0 0 1-.454-1.4 2.185 2.185 0 0 1 .438-1.426 1.447 1.447 0 0 1 1.181-.536 1.276 1.276 0 0 1 1.038.459 1.896 1.896 0 0 1 .38 1.246v.274h-2.68a1.76 1.76 0 0 0 .357 1.17 1.261 1.261 0 0 0 1.005.405 3.111 3.111 0 0 0 .56-.045 3.424 3.424 0 0 0 .611-.192v.308a2.748 2.748 0 0 1-.582.187 3.271 3.271 0 0 1-.59.05zm-.1-3.56a1.115 1.115 0 0 0-.862.354 1.668 1.668 0 0 0-.38 1.022h2.3a1.622 1.622 0 0 0-.28-1.012.927.927 0 0 0-.778-.365zm5.049 3.491v-2.413a1.176 1.176 0 0 0-.236-.817.953.953 0 0 0-.733-.255 1.269 1.269 0 0 0-.977.337 1.591 1.591 0 0 0-.31 1.094v2.054h-.34v-3.721h.288l.065.51h.02a1.399 1.399 0 0 1 1.292-.582q1.267 0 1.266 1.359v2.434zm-19.884 9.642l2.06-4.677h-2.831v-.329h3.24v.25l-2.07 4.756zm6.47-2.517a3.72 3.72 0 0 1-.402 1.952 1.345 1.345 0 0 1-1.217.633 1.318 1.318 0 0 1-1.191-.652 3.689 3.689 0 0 1-.408-1.933 3.728 3.728 0 0 1 .396-1.938 1.324 1.324 0 0 1 1.203-.63 1.34 1.34 0 0 1 1.205.653 3.601 3.601 0 0 1 .415 1.915zm-2.848 0a3.722 3.722 0 0 0 .305 1.721 1.054 1.054 0 0 0 1.867-.019 3.836 3.836 0 0 0 .296-1.702 3.789 3.789 0 0 0-.296-1.684.99.99 0 0 0-.943-.575.98.98 0 0 0-.938.575 3.84 3.84 0 0 0-.29 1.684zm3.794 2.25q0-.335.273-.335.281 0 .281.335t-.28.335q-.274 0-.274-.335zm1.561-1.866a4.458 4.458 0 0 1 .265-1.642 2.045 2.045 0 0 1 .754-.988 2.288 2.288 0 0 1 1.764-.243v.302a1.73 1.73 0 0 0-.602-.093 1.57 1.57 0 0 0-1.317.61 3.122 3.122 0 0 0-.528 1.773h.044a1.774 1.774 0 0 1 .596-.506 1.537 1.537 0 0 1 .708-.172 1.473 1.473 0 0 1 1.098.401 1.505 1.505 0 0 1 .395 1.106 1.697 1.697 0 0 1-.416 1.21 1.463 1.463 0 0 1-1.121.443 1.425 1.425 0 0 1-1.2-.58 2.632 2.632 0 0 1-.44-1.62zm1.64 1.9a1.104 1.104 0 0 0 .873-.352 1.471 1.471 0 0 0 .311-1.007 1.244 1.244 0 0 0-.308-.897 1.106 1.106 0 0 0-.839-.322 1.394 1.394 0 0 0-.648.154 1.283 1.283 0 0 0-.478.41.899.899 0 0 0-.178.521 1.663 1.663 0 0 0 .17.731 1.42 1.42 0 0 0 .459.557 1.077 1.077 0 0 0 .638.205zm4.27-3.28a2.199 2.199 0 0 1-.258 1.176.824.824 0 0 1-.739.402.802.802 0 0 1-.714-.412 2.197 2.197 0 0 1-.258-1.166 2.244 2.244 0 0 1 .246-1.164.8.8 0 0 1 .726-.4.823.823 0 0 1 .736.412 2.154 2.154 0 0 1 .26 1.152zm-1.634 0a2.301 2.301 0 0 0 .154.957.507.507 0 0 0 .483.32q.66 0 .66-1.277a2.07 2.07 0 0 0-.169-.946.533.533 0 0 0-.49-.317.507.507 0 0 0-.484.317 2.253 2.253 0 0 0-.154.946zm3.66-1.493l-2.776 5.006h-.33l2.778-5.006zm.89 3.507a2.23 2.23 0 0 1-.253 1.175.818.818 0 0 1-.736.403.806.806 0 0 1-.723-.416 2.799 2.799 0 0 1-.005-2.33.81.81 0 0 1 .728-.397.82.82 0 0 1 .73.41 2.155 2.155 0 0 1 .26 1.155zm-1.633 0a2.264 2.264 0 0 0 .154.95.507.507 0 0 0 .483.316q.66 0 .66-1.266 0-1.264-.66-1.264a.508.508 0 0 0-.483.313 2.249 2.249 0 0 0-.154.95zM179.578 69.727l-1.866-4.622h-.027q.027.424.027.87v3.752h-.336v-5.006h.541l1.774 4.404h.02l1.774-4.404h.527v5.006h-.353v-3.793c0-.266.014-.539.042-.822h-.028l-1.873 4.615zm5.265.068a1.62 1.62 0 0 1-1.264-.5 2.007 2.007 0 0 1-.454-1.4 2.185 2.185 0 0 1 .438-1.426 1.447 1.447 0 0 1 1.181-.535 1.276 1.276 0 0 1 1.038.458 1.896 1.896 0 0 1 .38 1.247v.274h-2.681a1.76 1.76 0 0 0 .357 1.17 1.261 1.261 0 0 0 1.005.404 3.11 3.11 0 0 0 .56-.044 3.424 3.424 0 0 0 .612-.192v.308a2.748 2.748 0 0 1-.582.187 3.27 3.27 0 0 1-.59.05zm-.099-3.56a1.115 1.115 0 0 0-.863.354 1.668 1.668 0 0 0-.38 1.022h2.301a1.622 1.622 0 0 0-.28-1.011.927.927 0 0 0-.778-.365zm5.042 3.492v-2.414a1.176 1.176 0 0 0-.237-.816.953.953 0 0 0-.732-.255 1.269 1.269 0 0 0-.978.337 1.591 1.591 0 0 0-.31 1.094v2.054h-.339v-3.722h.288l.065.51h.02a1.399 1.399 0 0 1 1.291-.581q1.268 0 1.267 1.359v2.434zm-12.25 9.642h-3.133v-.302l1.332-1.39a9.815 9.815 0 0 0 .788-.89 2.532 2.532 0 0 0 .332-.589 1.649 1.649 0 0 0 .106-.589.963.963 0 0 0-.295-.73 1.061 1.061 0 0 0-.763-.28 1.899 1.899 0 0 0-1.198.456l-.185-.237a2.107 2.107 0 0 1 1.39-.527 1.453 1.453 0 0 1 1.029.35 1.25 1.25 0 0 1 .375.962 1.988 1.988 0 0 1-.252.96 5.614 5.614 0 0 1-.92 1.145l-1.283 1.318v.014h2.677zm4.03-2.883a4.58 4.58 0 0 1-.258 1.65 1.97 1.97 0 0 1-.754.983 2.162 2.162 0 0 1-1.196.318 2.323 2.323 0 0 1-.658-.089v-.294a1.936 1.936 0 0 0 .355.073 2.776 2.776 0 0 0 .317.026 1.59 1.59 0 0 0 1.324-.611 3.084 3.084 0 0 0 .534-1.782h-.04a1.732 1.732 0 0 1-.596.505 1.568 1.568 0 0 1-.723.176 1.342 1.342 0 0 1-1.472-1.472 1.735 1.735 0 0 1 .426-1.219 1.432 1.432 0 0 1 1.108-.466 1.468 1.468 0 0 1 .863.259 1.632 1.632 0 0 1 .57.758 3.171 3.171 0 0 1 .2 1.185zm-1.633-1.9a1.093 1.093 0 0 0-.863.364 1.454 1.454 0 0 0-.321.998 1.25 1.25 0 0 0 .297.904 1.13 1.13 0 0 0 .853.308 1.391 1.391 0 0 0 .645-.154 1.28 1.28 0 0 0 .476-.409.903.903 0 0 0 .176-.519 1.79 1.79 0 0 0-.159-.75 1.3 1.3 0 0 0-.445-.546 1.138 1.138 0 0 0-.659-.197zm2.643 4.516q0-.336.274-.336.28 0 .28.336 0 .335-.28.335-.274 0-.274-.335zm5.02-1.01h-.863v1.277h-.322v-1.277h-2.575v-.23l2.482-3.527h.415v3.462h.863zm-1.185-.295v-1.431q0-1.034.048-1.736h-.027q-.07.127-.422.644l-1.766 2.523zm3.636-1.941a2.199 2.199 0 0 1-.257 1.176.824.824 0 0 1-.74.402.802.802 0 0 1-.713-.412 2.197 2.197 0 0 1-.259-1.166 2.244 2.244 0 0 1 .247-1.164.8.8 0 0 1 .726-.4.823.823 0 0 1 .736.412 2.154 2.154 0 0 1 .26 1.152zm-1.633 0a2.302 2.302 0 0 0 .154.957.507.507 0 0 0 .483.32q.66 0 .66-1.277a2.07 2.07 0 0 0-.169-.947.533.533 0 0 0-.491-.317.507.507 0 0 0-.483.317 2.253 2.253 0 0 0-.154.947zm3.66-1.493l-2.777 5.006h-.329l2.777-5.006zm.89 3.506a2.23 2.23 0 0 1-.253 1.176.818.818 0 0 1-.736.402.806.806 0 0 1-.723-.416 2.799 2.799 0 0 1-.005-2.33.81.81 0 0 1 .728-.397.82.82 0 0 1 .73.411 2.155 2.155 0 0 1 .259 1.154zm-1.633 0a2.264 2.264 0 0 0 .154.95.508.508 0 0 0 .483.317q.66 0 .66-1.267 0-1.263-.66-1.263a.508.508 0 0 0-.483.313 2.249 2.249 0 0 0-.154.95z" class="cls-4"/><g class="cls-2"><path fill="#6be5e8" d="M102.886 53.4q2.362 0 4.722.139 2.357.141 4.704.42 2.346.278 4.672.697 2.326.418 4.622.973 2.297.556 4.557 1.246 2.26.69 4.475 1.513t4.376 1.776q2.163.952 4.264 2.032 2.104 1.079 4.137 2.28 2.035 1.203 3.994 2.522t3.838 2.755q1.877 1.435 3.667 2.976 1.789 1.543 3.485 3.19 1.695 1.646 3.29 3.39 1.593 1.744 3.082 3.578 1.489 1.836 2.866 3.755 1.377 1.92 2.637 3.919 1.261 1.999 2.402 4.067 1.14 2.07 2.155 4.204 1.017 2.133 1.903 4.323.889 2.19 1.644 4.429.756 2.238 1.378 4.517.622 2.28 1.109 4.592.485 2.312.834 4.65.347 2.336.556 4.69.21 2.354.279 4.715.069 2.363-.002 4.724-.071 2.361-.282 4.716-.21 2.352-.56 4.69-.35 2.336-.838 4.649-.487 2.311-1.11 4.59-.626 2.28-1.383 4.517l-75.473-25.553z"/><path fill="#40b8d6" d="M179.542 154.83q-.503 1.77-1.087 3.518-.583 1.746-1.248 3.463-.662 1.717-1.405 3.403-.743 1.684-1.562 3.334-.82 1.647-1.715 3.257-.894 1.61-1.863 3.175-.969 1.568-2.008 3.087-1.04 1.52-2.148 2.99-1.108 1.47-2.284 2.887-1.176 1.417-2.415 2.779-1.24 1.36-2.54 2.664-1.302 1.302-2.661 2.544-1.36 1.241-2.775 2.419-1.417 1.177-2.885 2.287-1.469 1.11-2.987 2.153-1.518 1.04-3.084 2.01-1.564.971-3.172 1.869-1.608.897-3.256 1.718t-3.331 1.566q-1.684.746-3.4 1.411-1.717.666-3.462 1.253-1.746.585-3.517 1.09-1.77.506-3.563.929-1.792.421-3.601.762-1.81.34-3.634.594-1.823.256-3.656.427-1.835.17-3.672.256-1.84.087-3.682.088-1.841 0-3.68-.083-1.84-.084-3.673-.254-1.833-.169-3.657-.422-1.823-.252-3.633-.59t-3.603-.758q-1.793-.42-3.564-.924-1.77-.503-3.517-1.088-1.747-.583-3.463-1.248-1.718-.664-3.403-1.407-1.684-.742-3.332-1.563-1.65-.82-3.259-1.715-1.608-.895-3.174-1.863-1.566-.97-3.085-2.01-1.52-1.039-2.99-2.148-1.47-1.108-2.887-2.284-1.418-1.176-2.778-2.416t-2.664-2.54q-1.303-1.302-2.543-2.662-1.241-1.36-2.418-2.776-1.177-1.417-2.288-2.886-1.11-1.469-2.15-2.987t-2.012-3.083q-.97-1.566-1.867-3.173-.897-1.609-1.717-3.257-.821-1.647-1.566-3.332-.745-1.684-1.41-3.4t-1.252-3.462q-.585-1.746-1.09-3.517-.504-1.772-.927-3.563-.423-1.792-.761-3.602-.34-1.809-.594-3.634-.256-1.823-.426-3.656t-.256-3.672q-.085-1.84-.086-3.68 0-1.842.084-3.682.084-1.84.253-3.673.17-1.833.425-3.657.252-1.823.59-3.634.339-1.81.76-3.603.422-1.792.925-3.563.504-1.772 1.088-3.517.585-1.747 1.25-3.464.664-1.717 1.408-3.402.743-1.685 1.564-3.333.82-1.648 1.716-3.258.895-1.608 1.865-3.174.969-1.566 2.009-3.085t2.149-2.989q1.11-1.47 2.285-2.887 1.176-1.416 2.417-2.778 1.24-1.36 2.541-2.663t2.663-2.543q1.36-1.24 2.776-2.417 1.417-1.177 2.886-2.286 1.469-1.11 2.988-2.151 1.518-1.04 3.084-2.01 1.565-.97 3.173-1.866 1.608-.896 3.257-1.718 1.648-.82 3.332-1.564t3.401-1.409q1.717-.665 3.462-1.251 1.746-.585 3.516-1.089 1.77-.505 3.563-.926 1.792-.42 3.602-.76 1.81-.339 3.633-.593t3.656-.424q1.833-.17 3.673-.254 1.84-.086 3.68-.086l.008 79.682z"/></g><path fill="#2e8cba" d="M102.886 53.399v79.682l.008-79.682h-.008z"/><g class="cls-2"><path d="M709.628 199.041q-1.935 1.405-3.949 2.696-2.015 1.288-4.101 2.458-2.087 1.169-4.239 2.212-2.152 1.045-4.362 1.959-2.209.916-4.47 1.7-2.259.783-4.56 1.433-2.303.647-4.638 1.16-2.337.513-4.7.888-2.362.374-4.742.609-2.379.234-4.77.328-2.389.093-4.78.047-2.391-.048-4.776-.235-2.384-.187-4.754-.515-2.369-.328-4.715-.795-2.345-.466-4.66-1.07-2.315-.603-4.59-1.342-2.273-.74-4.5-1.611-2.229-.873-4.4-1.873-2.172-1.001-4.281-2.129-2.11-1.128-4.15-2.377-2.037-1.25-4.001-2.617-1.96-1.367-3.84-2.848-1.879-1.48-3.666-3.07-1.789-1.588-3.48-3.279-1.69-1.692-3.28-3.479-1.588-1.789-3.07-3.666-1.48-1.879-2.848-3.84-1.367-1.962-2.617-4.001-1.25-2.04-2.377-4.15-1.128-2.108-2.13-4.28-1-2.171-1.873-4.4-.872-2.227-1.61-4.501-.738-2.276-1.343-4.59-.605-2.313-1.071-4.66-.466-2.345-.794-4.716-.328-2.369-.516-4.753-.186-2.384-.234-4.776-.047-2.392.046-4.782.096-2.39.33-4.77.234-2.38.608-4.743.374-2.362.887-4.699.511-2.336 1.16-4.638.65-2.302 1.434-4.562.783-2.26 1.698-4.47.915-2.21 1.959-4.361 1.044-2.153 2.212-4.24 1.17-2.086 2.458-4.101 1.289-2.013 2.696-3.95 1.405-1.934 2.922-3.783 1.517-1.85 3.14-3.606 1.624-1.756 3.348-3.414 1.724-1.657 3.542-3.211 1.818-1.553 3.725-2.997 1.907-1.443 3.896-2.772 1.988-1.33 4.052-2.54 2.062-1.207 4.194-2.294 2.13-1.086 4.321-2.044 2.192-.96 4.435-1.786 2.244-.828 4.533-1.523 2.288-.694 4.613-1.253 2.327-.559 4.68-.978 2.355-.421 4.729-.702 2.376-.282 4.762-.422 2.39-.14 4.78-.14l.003 40.591q-1.195 0-2.389.071-1.194.07-2.382.211-1.187.141-2.364.351-1.177.212-2.34.49-1.162.28-2.307.627-1.145.346-2.266.76t-2.218.894q-1.095.48-2.161 1.023-1.066.543-2.097 1.148-1.032.605-2.026 1.269-.995.664-1.948 1.386-.954.723-1.862 1.498-.91.777-1.772 1.606-.86.83-1.673 1.707-.812.879-1.57 1.803-.76.924-1.462 1.892-.702.967-1.347 1.975-.646 1.006-1.23 2.05-.583 1.045-1.106 2.12-.521 1.075-.98 2.18-.457 1.105-.848 2.235-.392 1.13-.716 2.282-.325 1.15-.58 2.318-.257 1.169-.445 2.35-.186 1.18-.303 2.37-.117 1.191-.164 2.386-.048 1.195-.023 2.39.022 1.197.116 2.388.094 1.192.258 2.377.164 1.185.397 2.357.235 1.174.536 2.33.301 1.158.672 2.295.369 1.138.806 2.25.436 1.114.936 2.2t1.064 2.14q.564 1.055 1.189 2.075.625 1.02 1.308 2 .684.983 1.425 1.921.74.94 1.534 1.833.795.894 1.64 1.74.847.845 1.74 1.64.895.793 1.833 1.534.94.74 1.92 1.425.982.683 2.002 1.308 1.02.625 2.074 1.188 1.054.564 2.14 1.065 1.086.5 2.2.936 1.114.435 2.251.805 1.136.37 2.294.672 1.158.302 2.33.535 1.173.234 2.358.398 1.184.162 2.377.256 1.192.094 2.388.118 1.195.023 2.39-.024 1.196-.047 2.385-.164 1.19-.118 2.371-.305 1.182-.186 2.35-.442 1.168-.258 2.319-.582 1.15-.324 2.28-.716 1.13-.392 2.235-.849 1.105-.457 2.18-.98 1.078-.522 2.12-1.107 1.044-.583 2.051-1.228 1.007-.644 1.974-1.348z" class="cls-6"/></g><path d="M573.555 203.64h-.29l-1.107-3.889q-.138-.479-.207-.786-.055.3-.157.69t-1.111 3.986h-.297L569 198.6h.369l.882 3.247.097.364q.045.168.081.314.036.146.066.282.029.136.053.274.083-.468.352-1.424l.861-3.058h.39l1.01 3.51q.177.607.252.979.045-.248.116-.527.07-.28 1.063-3.962h.356zm5.296-1.878a2.122 2.122 0 0 1-.445 1.432 1.535 1.535 0 0 1-1.227.516 1.59 1.59 0 0 1-.87-.238 1.521 1.521 0 0 1-.575-.683 2.48 2.48 0 0 1-.2-1.027 2.108 2.108 0 0 1 .445-1.43 1.53 1.53 0 0 1 1.22-.512 1.503 1.503 0 0 1 1.212.52 2.13 2.13 0 0 1 .44 1.422zm-2.958 0a1.909 1.909 0 0 0 .339 1.204 1.282 1.282 0 0 0 1.92 0 1.905 1.905 0 0 0 .34-1.204 1.875 1.875 0 0 0-.343-1.204 1.165 1.165 0 0 0-.963-.427 1.148 1.148 0 0 0-.958.426 1.906 1.906 0 0 0-.335 1.205zm8.678 1.879v-2.459a1.223 1.223 0 0 0-.214-.8.811.811 0 0 0-.655-.251 1.07 1.07 0 0 0-.852.317 1.494 1.494 0 0 0-.276.996v2.197h-.348v-2.562q0-.948-.868-.948a1.024 1.024 0 0 0-.86.343 1.785 1.785 0 0 0-.268 1.098v2.069h-.341v-3.748h.283l.072.514h.02a1.075 1.075 0 0 1 .442-.433 1.314 1.314 0 0 1 .63-.154 1.077 1.077 0 0 1 1.138.666h.014a1.274 1.274 0 0 1 .492-.493 1.414 1.414 0 0 1 .702-.173 1.203 1.203 0 0 1 .92.328 1.487 1.487 0 0 1 .307 1.041v2.452zm3.065.069a1.631 1.631 0 0 1-1.274-.504 2.022 2.022 0 0 1-.457-1.41 2.198 2.198 0 0 1 .441-1.436 1.455 1.455 0 0 1 1.19-.54 1.283 1.283 0 0 1 1.044.463 1.907 1.907 0 0 1 .383 1.254v.276h-2.7a1.77 1.77 0 0 0 .36 1.18 1.268 1.268 0 0 0 1.013.406 3.14 3.14 0 0 0 .564-.045 3.423 3.423 0 0 0 .615-.193v.31a2.752 2.752 0 0 1-.586.189 3.254 3.254 0 0 1-.593.05zm-.1-3.586a1.123 1.123 0 0 0-.87.357 1.682 1.682 0 0 0-.382 1.029h2.317a1.637 1.637 0 0 0-.282-1.019.933.933 0 0 0-.783-.367zm5.075 3.517v-2.431a1.184 1.184 0 0 0-.238-.822.958.958 0 0 0-.738-.257 1.278 1.278 0 0 0-.984.34 1.6 1.6 0 0 0-.312 1.1v2.07h-.341v-3.748h.29l.064.514h.021a1.409 1.409 0 0 1 1.3-.587q1.276 0 1.276 1.37v2.45zm-17.863 7.667a4.482 4.482 0 0 1 .268-1.653 2.054 2.054 0 0 1 .758-.995 2.305 2.305 0 0 1 1.777-.245v.303a1.754 1.754 0 0 0-.606-.092 1.58 1.58 0 0 0-1.326.613 3.147 3.147 0 0 0-.533 1.786h.045a1.782 1.782 0 0 1 .6-.51 1.55 1.55 0 0 1 .714-.172 1.484 1.484 0 0 1 1.104.403 1.517 1.517 0 0 1 .399 1.114 1.71 1.71 0 0 1-.42 1.218 1.473 1.473 0 0 1-1.128.447 1.434 1.434 0 0 1-1.209-.585 2.65 2.65 0 0 1-.443-1.632zm1.652 1.913a1.11 1.11 0 0 0 .879-.355 1.482 1.482 0 0 0 .313-1.013 1.253 1.253 0 0 0-.31-.904 1.113 1.113 0 0 0-.844-.324 1.408 1.408 0 0 0-.654.155 1.298 1.298 0 0 0-.481.412.913.913 0 0 0-.179.526 1.68 1.68 0 0 0 .17.737 1.44 1.44 0 0 0 .462.56 1.086 1.086 0 0 0 .644.206zm5.565-2.3a3.741 3.741 0 0 1-.406 1.966 1.353 1.353 0 0 1-1.225.638 1.327 1.327 0 0 1-1.2-.657 4.899 4.899 0 0 1-.012-3.898 1.333 1.333 0 0 1 1.212-.634 1.35 1.35 0 0 1 1.213.656 3.63 3.63 0 0 1 .418 1.93zm-2.869 0a3.745 3.745 0 0 0 .307 1.733 1.06 1.06 0 0 0 1.88-.019 3.857 3.857 0 0 0 .299-1.714 3.81 3.81 0 0 0-.299-1.696 1.064 1.064 0 0 0-1.894 0 3.879 3.879 0 0 0-.293 1.696zm5.634-1.003a2.215 2.215 0 0 1-.259 1.185.832.832 0 0 1-.745.405.808.808 0 0 1-.718-.416 2.213 2.213 0 0 1-.26-1.174 2.259 2.259 0 0 1 .248-1.172.805.805 0 0 1 .73-.403.83.83 0 0 1 .742.415 2.172 2.172 0 0 1 .262 1.16zm-1.644 0a2.31 2.31 0 0 0 .155.964.51.51 0 0 0 .485.322q.666 0 .666-1.286a2.083 2.083 0 0 0-.17-.953.537.537 0 0 0-.496-.32.51.51 0 0 0-.485.32 2.266 2.266 0 0 0-.155.953zm3.685-1.503l-2.796 5.04h-.331l2.796-5.04zm.896 3.53a2.24 2.24 0 0 1-.255 1.185.823.823 0 0 1-.74.405.812.812 0 0 1-.728-.419 2.816 2.816 0 0 1-.006-2.346.865.865 0 0 1 1.467.014 2.17 2.17 0 0 1 .262 1.162zm-1.644 0a2.273 2.273 0 0 0 .155.957.51.51 0 0 0 .486.32q.665 0 .665-1.276 0-1.273-.665-1.273a.511.511 0 0 0-.486.316 2.262 2.262 0 0 0-.155.957zM739.376 68.602l-1.88-4.655h-.027q.027.427.027.876V68.6h-.337V63.56h.544l1.786 4.434h.021l1.786-4.434h.531v5.04h-.355v-3.82q0-.4.041-.827h-.027L739.6 68.6zm5.303.069a1.631 1.631 0 0 1-1.274-.504 2.022 2.022 0 0 1-.457-1.41 2.198 2.198 0 0 1 .441-1.436 1.455 1.455 0 0 1 1.19-.54 1.283 1.283 0 0 1 1.044.462 1.907 1.907 0 0 1 .383 1.255v.276h-2.7a1.77 1.77 0 0 0 .36 1.18 1.268 1.268 0 0 0 1.013.406 3.14 3.14 0 0 0 .564-.045 3.423 3.423 0 0 0 .615-.193v.31a2.752 2.752 0 0 1-.586.189 3.254 3.254 0 0 1-.593.05zm-.1-3.586a1.123 1.123 0 0 0-.87.357 1.682 1.682 0 0 0-.382 1.029h2.317a1.637 1.637 0 0 0-.282-1.019.933.933 0 0 0-.783-.367zm5.072 3.517V66.17a1.184 1.184 0 0 0-.238-.822.958.958 0 0 0-.738-.257 1.278 1.278 0 0 0-.985.34 1.6 1.6 0 0 0-.312 1.1v2.07h-.34v-3.748h.289l.065.514h.02a1.409 1.409 0 0 1 1.301-.587q1.275 0 1.276 1.369V68.6zm-9.088 8.53h-.869v1.286h-.324V77.13h-2.593V76.9l2.5-3.551h.417v3.485h.87zm-1.193-.297v-1.44q0-1.042.049-1.75h-.028q-.069.128-.424.649l-1.78 2.541zm4.927-.952a3.741 3.741 0 0 1-.405 1.966 1.353 1.353 0 0 1-1.226.638 1.327 1.327 0 0 1-1.2-.657 4.899 4.899 0 0 1-.011-3.898 1.333 1.333 0 0 1 1.211-.634 1.35 1.35 0 0 1 1.214.656 3.63 3.63 0 0 1 .417 1.93zm-2.868 0a3.745 3.745 0 0 0 .306 1.733 1.06 1.06 0 0 0 1.881-.019 3.857 3.857 0 0 0 .298-1.714 3.81 3.81 0 0 0-.298-1.696 1.064 1.064 0 0 0-1.895 0 3.879 3.879 0 0 0-.292 1.696zm5.634-1.003a2.215 2.215 0 0 1-.259 1.185.832.832 0 0 1-.745.405.808.808 0 0 1-.719-.416 2.213 2.213 0 0 1-.26-1.174 2.259 2.259 0 0 1 .248-1.172.805.805 0 0 1 .731-.403.83.83 0 0 1 .741.415 2.172 2.172 0 0 1 .263 1.16zm-1.645 0a2.31 2.31 0 0 0 .155.964.51.51 0 0 0 .486.322q.666 0 .666-1.286a2.083 2.083 0 0 0-.171-.953.537.537 0 0 0-.495-.32.51.51 0 0 0-.486.32 2.266 2.266 0 0 0-.155.953zm3.686-1.503l-2.797 5.04h-.33l2.796-5.04zm.896 3.53a2.24 2.24 0 0 1-.255 1.185.823.823 0 0 1-.741.405.812.812 0 0 1-.728-.419 2.815 2.815 0 0 1-.005-2.346.865.865 0 0 1 1.467.013 2.17 2.17 0 0 1 .262 1.163zm-1.645 0a2.273 2.273 0 0 0 .156.957.51.51 0 0 0 .486.32q.665 0 .665-1.276 0-1.273-.665-1.273a.511.511 0 0 0-.486.316 2.262 2.262 0 0 0-.156.957z" class="cls-4"/><g class="cls-2"><path d="M661.909 52.176q1.626 0 3.25.066 1.625.064 3.246.194 1.621.131 3.235.325 1.615.195 3.22.455 1.604.259 3.198.582 1.594.325 3.173.71 1.58.388 3.142.838 1.562.45 3.105.962 1.545.511 3.065 1.085 1.522.574 3.019 1.208t2.969 1.327q1.47.693 2.911 1.446 1.443.75 2.853 1.56 1.41.81 2.787 1.673 1.378.866 2.719 1.784 1.34.92 2.645 1.892 1.303.972 2.566 1.995 1.264 1.024 2.485 2.097 1.221 1.072 2.399 2.195 1.177 1.121 2.31 2.289 1.13 1.167 2.215 2.38 1.084 1.211 2.118 2.465 1.035 1.254 2.018 2.55.984 1.294 1.915 2.628.931 1.333 1.808 2.702t1.698 2.773q.82 1.403 1.586 2.838.764 1.435 1.47 2.9.706 1.464 1.354 2.956.646 1.492 1.234 3.008.587 1.516 1.113 3.055.524 1.54.989 3.097.462 1.56.864 3.135.4 1.576.738 3.166.338 1.592.611 3.194.274 1.603.483 3.215.208 1.612.353 3.232.145 1.619.224 3.243.08 1.625.093 3.25.015 1.626-.036 3.252-.05 1.624-.166 3.247-.116 1.622-.297 3.238-.18 1.616-.425 3.223-.246 1.607-.556 3.204-.31 1.596-.682 3.178-.374 1.584-.81 3.15-.436 1.566-.934 3.113-.499 1.548-1.058 3.075-.56 1.526-1.18 3.029-.622 1.503-1.303 2.98-.68 1.476-1.42 2.925-.737 1.448-1.534 2.866-.797 1.417-1.65 2.802-.852 1.385-1.76 2.733-.906 1.35-1.867 2.662-.96 1.311-1.973 2.585-1.012 1.272-2.075 2.503-1.062 1.23-2.174 2.417-1.11 1.187-2.268 2.33-1.157 1.142-2.36 2.236-1.203 1.095-2.447 2.14-1.246 1.046-2.531 2.04-1.287.996-2.612 1.939-1.324.943-2.686 1.83l-22.189-33.99q1.363-.89 2.649-1.885 1.287-.995 2.49-2.09 1.203-1.096 2.314-2.283 1.111-1.189 2.124-2.461 1.012-1.273 1.92-2.623.908-1.349 1.705-2.768.797-1.418 1.478-2.896.68-1.477 1.24-3.003.561-1.528.997-3.095.436-1.567.746-3.164.31-1.597.49-3.214.18-1.616.232-3.241.05-1.627-.03-3.251-.078-1.625-.288-3.239-.208-1.611-.547-3.203-.337-1.592-.8-3.15-.465-1.56-1.052-3.077t-1.293-2.982q-.707-1.466-1.528-2.87-.822-1.403-1.754-2.737-.93-1.333-1.966-2.589-1.034-1.254-2.167-2.423-1.132-1.167-2.354-2.24-1.223-1.075-2.526-2.048-1.303-.972-2.68-1.837-1.38-.864-2.82-1.617-1.444-.752-2.941-1.386-1.499-.634-3.042-1.146-1.544-.514-3.124-.9-1.58-.387-3.186-.647-1.605-.26-3.227-.39-1.621-.13-3.248-.13z" class="cls-5"/></g><path fill="#fff" d="M61.184 20.456a3.48 3.48 0 0 0 .163 1.145 1.476 1.476 0 0 0 .471.704 1.179 1.179 0 0 0 .746.24 1.195 1.195 0 0 0 .722-.212 1.28 1.28 0 0 0 .437-.573 2.15 2.15 0 0 0 .146-.812h2.754v.424a3.306 3.306 0 0 1-.524 1.862 3.466 3.466 0 0 1-1.447 1.232 4.893 4.893 0 0 1-2.116.437 4.693 4.693 0 0 1-2.369-.555 3.614 3.614 0 0 1-1.467-1.557 5.223 5.223 0 0 1-.5-2.356v-.853a5.217 5.217 0 0 1 .5-2.36 3.597 3.597 0 0 1 1.467-1.55 4.718 4.718 0 0 1 2.37-.551 5.246 5.246 0 0 1 1.644.246 3.796 3.796 0 0 1 1.294.71 3.243 3.243 0 0 1 .846 1.118 3.447 3.447 0 0 1 .302 1.464v.41H63.87a2.152 2.152 0 0 0-.146-.813 1.26 1.26 0 0 0-.437-.568 1.21 1.21 0 0 0-.722-.208 1.179 1.179 0 0 0-.746.239 1.48 1.48 0 0 0-.471.704 3.509 3.509 0 0 0-.163 1.152zm7.633 4.288v-9.471h2.185l3.227 4.579h.11v-4.579h2.672v9.47h-2.165L71.6 20.082h-.11v4.663zm13.4-4.288a3.48 3.48 0 0 0 .163 1.145 1.476 1.476 0 0 0 .472.704 1.179 1.179 0 0 0 .745.24 1.195 1.195 0 0 0 .722-.212 1.28 1.28 0 0 0 .437-.573 2.15 2.15 0 0 0 .146-.812h2.754v.424a3.306 3.306 0 0 1-.524 1.862 3.466 3.466 0 0 1-1.446 1.232 4.893 4.893 0 0 1-2.117.437 4.693 4.693 0 0 1-2.369-.555 3.614 3.614 0 0 1-1.467-1.557 5.223 5.223 0 0 1-.5-2.356v-.853a5.217 5.217 0 0 1 .5-2.36 3.597 3.597 0 0 1 1.467-1.55 4.718 4.718 0 0 1 2.37-.551 5.246 5.246 0 0 1 1.644.246 3.796 3.796 0 0 1 1.294.71 3.243 3.243 0 0 1 .846 1.118 3.447 3.447 0 0 1 .302 1.464v.41h-2.754a2.152 2.152 0 0 0-.146-.813 1.26 1.26 0 0 0-.437-.568 1.21 1.21 0 0 0-.722-.208 1.179 1.179 0 0 0-.745.239 1.48 1.48 0 0 0-.472.704 3.509 3.509 0 0 0-.163 1.152zm7.633 4.288v-9.471h6.73v2.276h-3.816v1.734h3.448v2.193h-3.448v3.268zm14.935-2.9a.73.73 0 0 0 .097.329.981.981 0 0 0 .264.298 1.33 1.33 0 0 0 .43.216 2.01 2.01 0 0 0 .597.08 1.942 1.942 0 0 0 .704-.105.785.785 0 0 0 .374-.274.642.642 0 0 0 .115-.364.55.55 0 0 0-.344-.53 3.942 3.942 0 0 0-.981-.275l-1.145-.2a4.682 4.682 0 0 1-1.388-.466 2.432 2.432 0 0 1-.957-.902 2.768 2.768 0 0 1-.347-1.45 2.797 2.797 0 0 1 .493-1.669 3.063 3.063 0 0 1 1.377-1.051 5.446 5.446 0 0 1 2.064-.36 4.79 4.79 0 0 1 2.196.44 3.064 3.064 0 0 1 1.27 1.127 2.736 2.736 0 0 1 .413 1.43h-2.637a.8.8 0 0 0-.139-.406 1.04 1.04 0 0 0-.402-.347 1.49 1.49 0 0 0-.694-.142 1.208 1.208 0 0 0-.805.218.673.673 0 0 0-.25.524.523.523 0 0 0 .33.475 3.044 3.044 0 0 0 .905.26l1.215.188a4.437 4.437 0 0 1 1.27.388 2.503 2.503 0 0 1 1.005.874 2.74 2.74 0 0 1 .396 1.562 3.055 3.055 0 0 1-.448 1.644 2.994 2.994 0 0 1-1.356 1.134 5.563 5.563 0 0 1-2.297.413 6.09 6.09 0 0 1-1.946-.267 3.317 3.317 0 0 1-1.245-.715 2.66 2.66 0 0 1-.666-.988 3.102 3.102 0 0 1-.202-1.09zm9.32 2.9v-7.14h-2.407v-2.331h7.73v2.332h-2.408v7.139zm5.853 0l2.873-9.471h3.69l2.845 9.47h-3.108l-.41-1.79h-2.587l-.424 1.79zm4.544-7.063l-.763 3.226h1.645l-.736-3.226zm6.67 7.063v-9.471h6.73v2.276h-3.816v1.734h3.448v2.193h-3.448v3.268zm8.855 0v-9.471h6.73v2.276h-3.816v1.734h3.448v2.193h-3.448v3.268zm109.612-3.58a3.81 3.81 0 0 0 .212 1.354 1.749 1.749 0 0 0 .617.84 1.655 1.655 0 0 0 .975.284 1.69 1.69 0 0 0 .864-.212 1.48 1.48 0 0 0 .565-.58 1.968 1.968 0 0 0 .23-.839h2.171v.27a3.054 3.054 0 0 1-.524 1.704 3.349 3.349 0 0 1-1.363 1.138 4.533 4.533 0 0 1-1.957.406 4.398 4.398 0 0 1-2.244-.534 3.45 3.45 0 0 1-1.395-1.513 5.269 5.269 0 0 1-.475-2.324v-1.055a5.277 5.277 0 0 1 .479-2.335 3.468 3.468 0 0 1 1.398-1.516 4.385 4.385 0 0 1 2.237-.534 4.76 4.76 0 0 1 1.52.233 3.61 3.61 0 0 1 1.207.67 3.142 3.142 0 0 1 1.117 2.4v.263H253.1a2.063 2.063 0 0 0-.232-.867 1.538 1.538 0 0 0-.566-.6 1.63 1.63 0 0 0-.86-.219 1.598 1.598 0 0 0-.971.295 1.846 1.846 0 0 0-.618.85 3.778 3.778 0 0 0-.215 1.36zm8.103 4.191v-9.47h1.804l3.796 5.627h.09v-5.627h2.123v9.47h-1.79l-3.81-5.682h-.09v5.682zm12.643-4.19a3.81 3.81 0 0 0 .212 1.353 1.749 1.749 0 0 0 .617.84 1.655 1.655 0 0 0 .975.284 1.69 1.69 0 0 0 .864-.212 1.48 1.48 0 0 0 .565-.58 1.968 1.968 0 0 0 .23-.839h2.17v.27a3.054 3.054 0 0 1-.523 1.704 3.349 3.349 0 0 1-1.363 1.138 4.533 4.533 0 0 1-1.957.406 4.398 4.398 0 0 1-2.244-.534 3.45 3.45 0 0 1-1.395-1.513 5.269 5.269 0 0 1-.475-2.324v-1.055a5.277 5.277 0 0 1 .478-2.335 3.468 3.468 0 0 1 1.398-1.516 4.385 4.385 0 0 1 2.238-.534 4.76 4.76 0 0 1 1.52.233 3.61 3.61 0 0 1 1.207.67 3.142 3.142 0 0 1 1.117 2.4v.263h-2.172a2.063 2.063 0 0 0-.232-.867 1.537 1.537 0 0 0-.566-.6 1.63 1.63 0 0 0-.86-.219 1.598 1.598 0 0 0-.972.295 1.846 1.846 0 0 0-.617.85 3.778 3.778 0 0 0-.215 1.36zm8.103 4.19v-9.47h6.307v1.831h-4.024v2.29h3.656v1.776h-3.656v3.573zm17.9-6.466a1.62 1.62 0 0 0-.18-.513 1.492 1.492 0 0 0-.347-.417 1.543 1.543 0 0 0-.503-.277 2.025 2.025 0 0 0-.648-.097 1.644 1.644 0 0 0-1.395.641 2.955 2.955 0 0 0-.486 1.815v1.11a4.022 4.022 0 0 0 .191 1.283 1.84 1.84 0 0 0 .618.899 1.794 1.794 0 0 0 1.127.33 1.982 1.982 0 0 0 .958-.209 1.386 1.386 0 0 0 .569-.548 1.5 1.5 0 0 0 .187-.735v-.417h-1.651v-1.602h3.802v1.845a3.886 3.886 0 0 1-.23 1.329 3.178 3.178 0 0 1-.703 1.13 3.32 3.32 0 0 1-1.215.785 5.494 5.494 0 0 1-3.639-.045 3.477 3.477 0 0 1-1.304-.926 3.818 3.818 0 0 1-.76-1.388 5.794 5.794 0 0 1-.246-1.724V20.02a4.925 4.925 0 0 1 .486-2.238 3.584 3.584 0 0 1 1.422-1.516 4.464 4.464 0 0 1 2.29-.548 4.793 4.793 0 0 1 1.637.257 3.496 3.496 0 0 1 1.193.704 3.167 3.167 0 0 1 .746 1.017 3.388 3.388 0 0 1 .302 1.193zm12.295 4.6a3.523 3.523 0 0 1-1.436 1.51 5.159 5.159 0 0 1-4.558 0 3.51 3.51 0 0 1-1.443-1.51 5.032 5.032 0 0 1-.496-2.303v-1.104a5.104 5.104 0 0 1 .496-2.327 3.486 3.486 0 0 1 1.443-1.51 4.62 4.62 0 0 1 2.279-.527 4.546 4.546 0 0 1 2.28.534 3.55 3.55 0 0 1 1.435 1.51 5.062 5.062 0 0 1 .496 2.32v1.104a5.034 5.034 0 0 1-.496 2.303zm-2.067-4.812a1.826 1.826 0 0 0-.663-.829 1.9 1.9 0 0 0-1.977 0 1.825 1.825 0 0 0-.663.83 3.468 3.468 0 0 0-.24 1.377v1.137a3.473 3.473 0 0 0 .24 1.374 1.822 1.822 0 0 0 .663.833 1.9 1.9 0 0 0 1.977 0 1.823 1.823 0 0 0 .663-.833 3.473 3.473 0 0 0 .24-1.374v-1.137a3.468 3.468 0 0 0-.24-1.378zm4.002-2.792h2.65l1.811 7.063h.104l1.783-7.063h2.512l-2.984 9.47h-2.858zm17.197 9.47h-6.349v-9.47h6.349v1.81h-4.094v2.061h3.844v1.665h-3.844v2.123h4.094zm8.536-9.085a2.711 2.711 0 0 1 1.18 1.082 3.212 3.212 0 0 1 .402 1.634 2.828 2.828 0 0 1-.27 1.273 2.887 2.887 0 0 1-.663.892 2.778 2.778 0 0 1-.76.5l1.887 3.704h-2.525l-1.603-3.385h-1.311v3.385h-2.241v-9.47h4.003a4.252 4.252 0 0 1 1.901.385zm-2.262 4.083a1.668 1.668 0 0 0 1.083-.337 1.23 1.23 0 0 0 .416-1.016 1.3 1.3 0 0 0-.423-1.048 1.57 1.57 0 0 0-1.055-.36h-1.422v2.761zm6.333 5.002v-9.47h1.804l3.795 5.627h.09v-5.627h2.123v9.47h-1.79l-3.809-5.682h-.09v5.682zm9.84 0l3.052-9.47h2.775l3.04 9.47h-2.422l-.618-2.185h-2.935l-.617 2.185zm4.322-7.43l-1.006 3.6h2.102l-.992-3.6zm6.57 7.43v-9.47h1.803l3.796 5.627h.09v-5.627h2.123v9.47h-1.79l-3.81-5.682h-.09v5.682zm12.642-4.19a3.81 3.81 0 0 0 .212 1.353 1.749 1.749 0 0 0 .617.84 1.655 1.655 0 0 0 .975.284 1.69 1.69 0 0 0 .864-.212 1.48 1.48 0 0 0 .565-.58 1.967 1.967 0 0 0 .23-.839h2.17v.27a3.054 3.054 0 0 1-.523 1.704 3.35 3.35 0 0 1-1.363 1.138 4.533 4.533 0 0 1-1.957.406 4.398 4.398 0 0 1-2.244-.534 3.45 3.45 0 0 1-1.395-1.513 5.269 5.269 0 0 1-.475-2.324v-1.055a5.277 5.277 0 0 1 .478-2.335 3.468 3.468 0 0 1 1.398-1.516 4.385 4.385 0 0 1 2.238-.534 4.76 4.76 0 0 1 1.52.233 3.61 3.61 0 0 1 1.207.67 3.142 3.142 0 0 1 1.117 2.4v.263h-2.172a2.063 2.063 0 0 0-.232-.867 1.538 1.538 0 0 0-.566-.6 1.63 1.63 0 0 0-.86-.219 1.598 1.598 0 0 0-.971.295 1.846 1.846 0 0 0-.618.85 3.778 3.778 0 0 0-.215 1.36zm14.452 4.19h-6.349v-9.47h6.349v1.81h-4.094v2.061h3.844v1.665h-3.844v2.123h4.094zm10.72-1.235h-1.928v-2.844h-2.671v-1.874h2.671v-2.768h1.929v2.768h2.678v1.874h-2.678zm15.105 1.235h-6.085v-9.47h2.283v7.57h3.802zm8.535 0h-6.349v-9.47h6.349v1.81h-4.094v2.061h3.844v1.665h-3.844v2.123h4.094zm1.771 0l3.053-9.47h2.775l3.04 9.47h-2.422l-.617-2.185h-2.935l-.618 2.185zm4.323-7.43l-1.006 3.6h2.102l-.992-3.6zm10.282-2.04a4.676 4.676 0 0 1 2.424.565 3.402 3.402 0 0 1 1.402 1.617 6.316 6.316 0 0 1 .454 2.515 6.428 6.428 0 0 1-.46 2.546 3.481 3.481 0 0 1-1.41 1.651 4.577 4.577 0 0 1-2.41.576h-3.712v-9.47zm-1.43 7.66h1.069a2.72 2.72 0 0 0 1.04-.18 1.702 1.702 0 0 0 .715-.542 2.426 2.426 0 0 0 .413-.909 5.363 5.363 0 0 0 .135-1.277 4.815 4.815 0 0 0-.24-1.63 1.905 1.905 0 0 0-.748-.989 2.384 2.384 0 0 0-1.315-.33h-1.069zm14.482 1.81h-6.349v-9.47h6.349v1.81h-4.094v2.061h3.844v1.665h-3.844v2.123h4.094zm8.536-9.085a2.711 2.711 0 0 1 1.18 1.082 3.212 3.212 0 0 1 .402 1.634 2.828 2.828 0 0 1-.27 1.273 2.887 2.887 0 0 1-.663.892 2.778 2.778 0 0 1-.76.5l1.887 3.704h-2.525l-1.603-3.385h-1.311v3.385h-2.241v-9.47h4.003a4.252 4.252 0 0 1 1.9.385zm-2.262 4.083a1.668 1.668 0 0 0 1.082-.337A1.23 1.23 0 0 0 459.81 19a1.3 1.3 0 0 0-.424-1.048 1.57 1.57 0 0 0-1.054-.36h-1.422v2.761zm7.99 2.296a1.069 1.069 0 0 0 .157.438 1.244 1.244 0 0 0 .35.364 1.79 1.79 0 0 0 .528.246 2.448 2.448 0 0 0 .694.09 2.314 2.314 0 0 0 .877-.142 1.1 1.1 0 0 0 .51-.388.974.974 0 0 0 .167-.559.768.768 0 0 0-.354-.68 3.067 3.067 0 0 0-1.048-.382l-1.339-.29a4.236 4.236 0 0 1-1.322-.487 2.41 2.41 0 0 1-.88-.877 2.608 2.608 0 0 1-.316-1.329 2.652 2.652 0 0 1 .468-1.571 2.998 2.998 0 0 1 1.297-1.02 4.83 4.83 0 0 1 1.926-.358 4.505 4.505 0 0 1 1.987.392 2.963 2.963 0 0 1 1.218 1.03 2.659 2.659 0 0 1 .444 1.374h-2.11a1.137 1.137 0 0 0-.225-.527 1.329 1.329 0 0 0-.513-.395 1.918 1.918 0 0 0-.808-.153 1.609 1.609 0 0 0-1.051.302.946.946 0 0 0-.365.76.722.722 0 0 0 .337.617 2.457 2.457 0 0 0 .933.354l1.374.284a4.621 4.621 0 0 1 1.315.451 2.443 2.443 0 0 1 .933.86 2.609 2.609 0 0 1 .347 1.416 2.879 2.879 0 0 1-.444 1.592 2.933 2.933 0 0 1-1.308 1.08 5.216 5.216 0 0 1-2.14.388 5.499 5.499 0 0 1-1.714-.236 3.271 3.271 0 0 1-1.173-.645 2.63 2.63 0 0 1-.68-.927 2.974 2.974 0 0 1-.243-1.072zm13.75 2.706v-3.878h-3.49v3.878h-2.283v-9.47h2.282v3.746h3.49v-3.746h2.283v9.47zm5.168 0v-9.47h2.283v9.47zm10.983-9.023a2.908 2.908 0 0 1 1.106 1.194 3.603 3.603 0 0 1 .375 1.64 3.55 3.55 0 0 1-.378 1.641 2.833 2.833 0 0 1-1.12 1.173 3.594 3.594 0 0 1-1.84.434h-1.692v2.941h-2.276v-9.47h3.997a3.45 3.45 0 0 1 1.828.447zm-1.239 1.697a1.54 1.54 0 0 0-1.117-.396h-1.2V20.7h1.2a1.73 1.73 0 0 0 .815-.18 1.24 1.24 0 0 0 .528-.524 1.736 1.736 0 0 0 .184-.83 1.51 1.51 0 0 0-.41-1.137zm56.276 3.166a3.48 3.48 0 0 0 .163 1.144 1.476 1.476 0 0 0 .472.704 1.18 1.18 0 0 0 .745.24 1.195 1.195 0 0 0 .722-.212 1.28 1.28 0 0 0 .437-.572 2.15 2.15 0 0 0 .146-.812h2.754v.423a3.306 3.306 0 0 1-.524 1.863 3.466 3.466 0 0 1-1.446 1.232 4.893 4.893 0 0 1-2.117.437 4.693 4.693 0 0 1-2.369-.555 3.614 3.614 0 0 1-1.467-1.558 5.223 5.223 0 0 1-.5-2.355v-.854a5.217 5.217 0 0 1 .5-2.359 3.597 3.597 0 0 1 1.467-1.55 4.718 4.718 0 0 1 2.37-.552 5.246 5.246 0 0 1 1.644.246 3.796 3.796 0 0 1 1.294.711 3.243 3.243 0 0 1 .846 1.118 3.447 3.447 0 0 1 .302 1.463v.41h-2.754a2.152 2.152 0 0 0-.146-.812 1.26 1.26 0 0 0-.437-.569 1.21 1.21 0 0 0-.722-.208 1.179 1.179 0 0 0-.745.24 1.48 1.48 0 0 0-.472.704 3.509 3.509 0 0 0-.163 1.152zm7.633 4.287v-9.47h2.186l3.226 4.579h.111v-4.58h2.671v9.471H564.9l-3.247-4.662h-.11v4.662zm13.4-4.287a3.48 3.48 0 0 0 .163 1.144 1.476 1.476 0 0 0 .472.704 1.18 1.18 0 0 0 .745.24 1.195 1.195 0 0 0 .722-.212 1.28 1.28 0 0 0 .437-.572 2.15 2.15 0 0 0 .146-.812h2.754v.423a3.306 3.306 0 0 1-.523 1.863 3.466 3.466 0 0 1-1.447 1.232 4.893 4.893 0 0 1-2.116.437 4.693 4.693 0 0 1-2.37-.555 3.614 3.614 0 0 1-1.467-1.558 5.223 5.223 0 0 1-.5-2.355v-.854a5.217 5.217 0 0 1 .5-2.359 3.598 3.598 0 0 1 1.467-1.55 4.718 4.718 0 0 1 2.37-.552 5.246 5.246 0 0 1 1.644.246 3.796 3.796 0 0 1 1.294.711 3.243 3.243 0 0 1 .847 1.118 3.447 3.447 0 0 1 .301 1.463v.41h-2.754a2.152 2.152 0 0 0-.146-.812 1.26 1.26 0 0 0-.437-.569 1.21 1.21 0 0 0-.722-.208 1.179 1.179 0 0 0-.745.24 1.48 1.48 0 0 0-.472.704 3.509 3.509 0 0 0-.163 1.152zm7.633 4.287v-9.47h6.73v2.276h-3.816v1.734h3.449v2.192h-3.449v3.268zm19.355 0h-6.751v-9.47h6.75v2.24h-3.87v1.493h3.614v2.026h-3.615v1.47h3.872zm8.073-4.766l2.81 4.766h-3.24l-1.464-2.74h-.11l-1.451 2.74h-3.074l2.678-4.766-2.691-4.704h3.392l1.305 2.865h.117l1.305-2.865h3.24zm11.082 4.766h-6.75v-9.47h6.75v2.24h-3.872v1.493h3.615v2.026h-3.615v1.47h3.872zm5.012-4.287a3.48 3.48 0 0 0 .163 1.144 1.476 1.476 0 0 0 .472.704 1.18 1.18 0 0 0 .745.24 1.195 1.195 0 0 0 .722-.212 1.28 1.28 0 0 0 .437-.572 2.15 2.15 0 0 0 .146-.812h2.754v.423a3.306 3.306 0 0 1-.524 1.863 3.466 3.466 0 0 1-1.446 1.232 4.893 4.893 0 0 1-2.117.437 4.693 4.693 0 0 1-2.369-.555 3.614 3.614 0 0 1-1.467-1.558 5.223 5.223 0 0 1-.5-2.355v-.854a5.217 5.217 0 0 1 .5-2.359 3.598 3.598 0 0 1 1.467-1.55 4.718 4.718 0 0 1 2.37-.552 5.246 5.246 0 0 1 1.644.246 3.796 3.796 0 0 1 1.294.711 3.243 3.243 0 0 1 .846 1.118 3.447 3.447 0 0 1 .302 1.463v.41h-2.754a2.152 2.152 0 0 0-.146-.812 1.26 1.26 0 0 0-.437-.569 1.21 1.21 0 0 0-.722-.208 1.179 1.179 0 0 0-.745.24 1.48 1.48 0 0 0-.472.704 3.509 3.509 0 0 0-.163 1.152zm12.632 1.717a1.472 1.472 0 0 0 .364-1.114v-5.786h2.914v6.196a3.239 3.239 0 0 1-.506 1.814 3.293 3.293 0 0 1-1.447 1.197 6.125 6.125 0 0 1-4.475 0 3.293 3.293 0 0 1-1.447-1.197 3.239 3.239 0 0 1-.506-1.814v-6.196h2.914v5.786a1.47 1.47 0 0 0 .364 1.121 1.294 1.294 0 0 0 .913.336 1.277 1.277 0 0 0 .912-.343zm7.457 2.57v-7.139h-2.407v-2.331h7.729v2.331h-2.408v7.14zm7.183 0v-9.47h2.914v9.47zm4.692-9.47h3.4l1.325 6.487h.132l1.283-6.487h3.185l-2.72 9.47h-3.823zm17.868 9.47h-6.75v-9.47h6.75v2.24h-3.871v1.493H673v2.026h-3.614v1.47h3.871zm12.555 0h-6.39v-9.47h2.914v7.084h3.476zm8.808 0h-6.751v-9.47h6.75v2.24h-3.871v1.493h3.615v2.026h-3.615v1.47h3.872zm1.611 0l2.873-9.47h3.69l2.846 9.47h-3.109l-.409-1.79h-2.588l-.423 1.79zm4.545-7.063l-.763 3.227h1.644l-.735-3.227zm10.784-2.407a4.753 4.753 0 0 1 2.498.583 3.442 3.442 0 0 1 1.404 1.634 6.241 6.241 0 0 1 .448 2.459 6.406 6.406 0 0 1-.458 2.512 3.568 3.568 0 0 1-1.419 1.682 4.606 4.606 0 0 1-2.473.6h-4.115v-9.47zm-1.2 7.23h.665a2.291 2.291 0 0 0 .885-.153 1.352 1.352 0 0 0 .587-.462 2.106 2.106 0 0 0 .326-.773 4.993 4.993 0 0 0 .104-1.082 4.43 4.43 0 0 0-.188-1.388 1.6 1.6 0 0 0-.603-.847 1.94 1.94 0 0 0-1.11-.284h-.667zm14.467 2.24h-6.75v-9.47h6.75v2.24h-3.871v1.493h3.614v2.026h-3.614v1.47h3.871zm8.835-9.065a2.84 2.84 0 0 1 1.255 1.142 3.375 3.375 0 0 1 .424 1.714 2.767 2.767 0 0 1-.302 1.339 3.085 3.085 0 0 1-.694.888 3.148 3.148 0 0 1-.662.458l1.859 3.524h-3.199l-1.52-3.156h-.728v3.156h-2.851v-9.47h4.343a4.72 4.72 0 0 1 2.075.405zm-2.519 3.966a1.335 1.335 0 0 0 .836-.274 1.003 1.003 0 0 0 .357-.85 1.037 1.037 0 0 0-.367-.87 1.306 1.306 0 0 0-.826-.289h-1.048v2.283zm8.703 2.199a.73.73 0 0 0 .097.33.981.981 0 0 0 .264.298 1.33 1.33 0 0 0 .43.215 2.01 2.01 0 0 0 .596.08 1.942 1.942 0 0 0 .704-.104.785.785 0 0 0 .375-.274.642.642 0 0 0 .115-.364.55.55 0 0 0-.344-.531 3.942 3.942 0 0 0-.981-.274l-1.145-.201a4.682 4.682 0 0 1-1.388-.465 2.432 2.432 0 0 1-.958-.902 2.768 2.768 0 0 1-.346-1.45 2.797 2.797 0 0 1 .492-1.669 3.063 3.063 0 0 1 1.377-1.051 5.446 5.446 0 0 1 2.064-.36 4.79 4.79 0 0 1 2.197.44 3.064 3.064 0 0 1 1.27 1.127 2.736 2.736 0 0 1 .412 1.43h-2.636a.8.8 0 0 0-.14-.406 1.04 1.04 0 0 0-.402-.348 1.49 1.49 0 0 0-.693-.142 1.208 1.208 0 0 0-.806.22.673.673 0 0 0-.249.523.523.523 0 0 0 .33.475 3.044 3.044 0 0 0 .905.26l1.214.187a4.438 4.438 0 0 1 1.27.39 2.503 2.503 0 0 1 1.006.873 2.74 2.74 0 0 1 .395 1.562 3.055 3.055 0 0 1-.447 1.644 2.994 2.994 0 0 1-1.357 1.134 5.563 5.563 0 0 1-2.296.413 6.09 6.09 0 0 1-1.946-.267 3.317 3.317 0 0 1-1.246-.715 2.66 2.66 0 0 1-.666-.989 3.102 3.102 0 0 1-.201-1.089zm13.288 2.9v-3.586h-2.74v3.586h-2.915v-9.47h2.915v3.573h2.74v-3.573h2.914v9.47zm5.525 0v-9.47h2.914v9.47zm11.817-8.978a3.053 3.053 0 0 1 1.145 1.287 3.946 3.946 0 0 1 .375 1.704 3.833 3.833 0 0 1-.382 1.703 2.968 2.968 0 0 1-1.166 1.253 3.796 3.796 0 0 1-1.984.471h-1.374v2.56h-2.907v-9.47h4.323a3.6 3.6 0 0 1 1.97.492zm-1.79 1.995a1.383 1.383 0 0 0-.971-.336h-.638v2.664h.638a1.513 1.513 0 0 0 .704-.156 1.11 1.11 0 0 0 .468-.455 1.456 1.456 0 0 0 .167-.721 1.283 1.283 0 0 0-.368-.996z"/><g class="cls-2"><path d="M787.977 237.032h-254.89V5.446h254.89zm-253.89-1h252.89V6.446h-252.89z" class="cls-3"/></g></svg>