<svg xmlns="http://www.w3.org/2000/svg" id="Layer_1" data-name="Layer 1" viewBox="0 0 361 545"><defs><style>.cls-1,.cls-14{fill:none}.cls-2{clip-path:url(#clip-path)}.cls-3{opacity:.2}.cls-4{clip-path:url(#clip-path-3)}.cls-5{fill:#a6a6a6}.cls-6{clip-path:url(#clip-path-4)}.cls-15,.cls-7{font-size:7.2583px}.cls-7{fill:#2c2960}.cls-15,.cls-16,.cls-17,.cls-20,.cls-27,.cls-7{font-family:ArialMT,Arial}.cls-8{letter-spacing:-.01709em}.cls-9{letter-spacing:-.10992em}.cls-10{letter-spacing:-.00013em}.cls-11{letter-spacing:.00094em}.cls-12{letter-spacing:.00013em}.cls-13{fill:#ffecd1}.cls-14{stroke:#202020;stroke-width:.726px}.cls-15,.cls-16,.cls-17,.cls-20,.cls-27{fill:#202020}.cls-16,.cls-17,.cls-20,.cls-27{font-size:5.0808px}.cls-17{letter-spacing:-.01788em}.cls-18{letter-spacing:-.00019em}.cls-19{fill:#b3d1bd}.cls-20{letter-spacing:-.0369em}.cls-21{fill:#83af83}.cls-22{clip-path:url(#clip-path-7)}.cls-23{letter-spacing:-.07292em}.cls-24,.cls-27{letter-spacing:-.10994em}.cls-25{clip-path:url(#clip-path-10)}.cls-26{letter-spacing:-.07198em}.cls-28{letter-spacing:-.05382em}</style><clipPath id="clip-path"><path class="cls-1" d="M-609.426 -2.255H360.669V548.545H-609.426z"/></clipPath><clipPath id="clip-path-3"><path class="cls-1" d="M-33.346 -9.255H369.669V549.545H-33.346z"/></clipPath><clipPath id="clip-path-4"><path class="cls-1" d="M51.773 23.745H304.079V181.97400000000002H51.773z"/></clipPath><clipPath id="clip-path-7"><path class="cls-1" d="M51.773 192.905H304.079V351.135H51.773z"/></clipPath><clipPath id="clip-path-10"><path class="cls-1" d="M51.773 363.985H304.079V522.215H51.773z"/></clipPath></defs><g class="cls-2"><g class="cls-2"><g class="cls-3"><g class="cls-4"><path class="cls-5" d="M-24.346 -2.255H360.669V548.545H-24.346z"/></g></g></g><g class="cls-6"><text class="cls-7" transform="translate(51.632 29.101)">CNCF<tspan class="cls-8" x="20.159" y="0"> </tspan><tspan class="cls-9" x="22.052" y="0">T</tspan><tspan class="cls-10" x="25.688" y="0">echnology</tspan><tspan class="cls-11" x="58.778" y="0"> </tspan><tspan class="cls-12" x="60.802" y="0">Radar</tspan></text><text class="cls-7" transform="translate(190.033 29.101)">Database Storage, November 2020</text><path class="cls-13" d="M177.926 181.539L52.209 108.956a145.166 145.166 0 0 1 251.434 0z"/><path class="cls-14" d="M177.926 181.539L52.209 108.956a145.166 145.166 0 0 1 251.434 0z"/></g><text class="cls-15" transform="translate(163.402 63.954)">ASSESS</text><text class="cls-16" transform="translate(90.067 80.83)">MariaDB</text><text class="cls-16" transform="translate(162.254 47.261)">CockroachDB</text><text class="cls-17" transform="translate(249.03 80.83)">V<tspan class="cls-18" x="3.298" y="0">itess</tspan></text><g class="cls-6"><path class="cls-19" d="M177.926 181.539l-94.288-54.437a108.874 108.874 0 0 1 188.576 0z"/><path class="cls-14" d="M177.926 181.539l-94.288-54.437a108.874 108.874 0 0 1 188.576 0z"/></g><text class="cls-15" transform="translate(167.641 100.246)">TRIAL</text><text class="cls-16" transform="translate(95.028 120.297)">Consul</text><text class="cls-16" transform="translate(110.433 108.047)">BigQuery</text><text class="cls-16" transform="translate(129.673 95.797)">Cassandra</text><text class="cls-20" transform="translate(158.537 83.548)">A<tspan class="cls-18" x="3.201" y="0">WS DynamoDB</tspan></text><text class="cls-16" transform="translate(202.171 95.797)">CloudSQL</text><text class="cls-16" transform="translate(223.53 108.047)">MongoDB</text><text class="cls-16" transform="translate(245.292 120.297)">Aurora</text><g class="cls-6"><path class="cls-21" d="M177.926 181.539l-62.86-36.291a72.583 72.583 0 0 1 125.719 0z"/><path class="cls-14" d="M177.926 181.539l-62.86-36.291a72.583 72.583 0 0 1 125.719 0z"/></g><text class="cls-15" transform="translate(165.424 164.119)">ADOPT</text><text class="cls-16" transform="translate(126.479 144.21)">MySQL</text><text class="cls-16" transform="translate(133.689 135.913)">Memcached</text><text class="cls-16" transform="translate(147.9 127.617)">Elasticsearch</text><text class="cls-16" transform="translate(179.015 127.617)">PostgreSQL</text><text class="cls-16" transform="translate(201.837 135.913)">Kafka</text><text class="cls-16" transform="translate(214.412 144.21)">Redis</text><g class="cls-22"><text class="cls-7" transform="translate(51.632 198.262)">CNCF<tspan class="cls-8" x="20.159" y="0"> </tspan><tspan class="cls-9" x="22.052" y="0">T</tspan><tspan class="cls-10" x="25.688" y="0">echnology</tspan><tspan class="cls-11" x="58.778" y="0"> </tspan><tspan class="cls-12" x="60.802" y="0">Radar</tspan></text><text class="cls-7" transform="translate(205.109 198.262)">Observabilit<tspan class="cls-23" x="38.322" y="0">y</tspan><tspan x="41.422" y="0">, September 2020</tspan></text><path class="cls-13" d="M177.926 350.699L52.209 278.116a145.166 145.166 0 0 1 251.434 0z"/><path class="cls-14" d="M177.926 350.699L52.209 278.116a145.166 145.166 0 0 1 251.434 0z"/></g><text class="cls-15" transform="translate(163.402 233.115)">ASSESS</text><text class="cls-16" transform="translate(91.474 249.99)">Thanos</text><text class="cls-16" transform="translate(160.7 216.421)">Open<tspan class="cls-24" x="12.429" y="0">T</tspan><tspan x="14.974" y="0">elemetry</tspan></text><text class="cls-16" transform="translate(251.103 249.99)">Kiali</text><g class="cls-22"><path class="cls-19" d="M177.926 350.699l-94.288-54.437a108.874 108.874 0 0 1 188.576 0z"/><path class="cls-14" d="M177.926 350.699l-94.288-54.437a108.874 108.874 0 0 1 188.576 0z"/></g><text class="cls-15" transform="translate(167.641 269.406)">TRIAL</text><text class="cls-16" transform="translate(97.635 287.707)">Splunk</text><text class="cls-16" transform="translate(119.279 273.71)">Sentry</text><text class="cls-16" transform="translate(139.47 259.712)">Cloudwatch</text><text class="cls-16" transform="translate(192.798 259.712)">Lightstep</text><text class="cls-16" transform="translate(222.028 273.71)">Statsd</text><text class="cls-16" transform="translate(242.681 287.707)">Jaeger</text><g class="cls-22"><path class="cls-21" d="M177.926 350.699l-62.86-36.291a72.583 72.583 0 0 1 125.719 0z"/><path class="cls-14" d="M177.926 350.699l-62.86-36.291a72.583 72.583 0 0 1 125.719 0z"/></g><text class="cls-15" transform="translate(165.424 333.28)">ADOPT</text><text class="cls-16" transform="translate(129.449 311.988)">Elastic</text><text class="cls-16" transform="translate(138.502 302.309)">Prometheus</text><text class="cls-16" transform="translate(163.525 292.63)">OpenMetrics</text><text class="cls-16" transform="translate(194.045 302.309)">Datadog</text><text class="cls-16" transform="translate(209.74 311.988)">Grafana</text><g class="cls-25"><text class="cls-7" transform="translate(51.632 369.342)">CNCF<tspan class="cls-8" x="20.159" y="0"> </tspan><tspan class="cls-9" x="22.052" y="0">T</tspan><tspan class="cls-10" x="25.688" y="0">echnology</tspan><tspan class="cls-11" x="58.778" y="0"> </tspan><tspan class="cls-12" x="60.802" y="0">Radar</tspan></text><text class="cls-7" transform="translate(201.871 369.342)">Continuous Deliver<tspan class="cls-26" x="61.323" y="0">y</tspan><tspan x="64.43" y="0">, June 2020</tspan></text><path class="cls-13" d="M177.926 521.779L52.209 449.196a145.166 145.166 0 0 1 251.434 0z"/><path class="cls-14" d="M177.926 521.779L52.209 449.196a145.166 145.166 0 0 1 251.434 0z"/></g><text class="cls-15" transform="translate(163.402 404.194)">ASSESS</text><text class="cls-16" transform="translate(60.762 441.212)">Argo CD</text><text class="cls-16" transform="translate(78.682 427.783)">Jenkins X</text><text class="cls-16" transform="translate(99.346 414.354)">Spinnaker</text><text class="cls-27" transform="translate(123.937 400.927)">T<tspan class="cls-18" x="2.545" y="0">eam City</tspan></text><text class="cls-16" transform="translate(161.119 387.498)">GitHub<tspan class="cls-28" x="15.813" y="0"> </tspan><tspan x="16.95" y="0">Actions</tspan></text><text class="cls-27" transform="translate(208.755 400.927)">T<tspan class="cls-18" x="2.545" y="0">ekton CD</tspan></text><text class="cls-20" transform="translate(234.993 414.354)">T<tspan class="cls-18" x="2.916" y="0">ravis CI</tspan></text><text class="cls-16" transform="translate(257.536 427.783)">Jenkins</text><text class="cls-16" transform="translate(277.148 441.212)">jsonnet</text><g class="cls-25"><path class="cls-19" d="M177.926 521.779l-94.288-54.437a108.874 108.874 0 0 1 188.576 0z"/><path class="cls-14" d="M177.926 521.779l-94.288-54.437a108.874 108.874 0 0 1 188.576 0z"/></g><text class="cls-15" transform="translate(167.641 440.486)">TRIAL</text><text class="cls-16" transform="translate(111.285 448.289)">Circle CI</text><text class="cls-16" transform="translate(166.066 423.794)">Kustomize</text><text class="cls-16" transform="translate(227.345 448.289)">GitLab</text><g class="cls-25"><path class="cls-21" d="M177.926 521.779l-62.86-36.291a72.583 72.583 0 0 1 125.719 0z"/><path class="cls-14" d="M177.926 521.779l-62.86-36.291a72.583 72.583 0 0 1 125.719 0z"/></g><text class="cls-15" transform="translate(165.424 504.36)">ADOPT</text><text class="cls-16" transform="translate(147.4 473.39)">Flux</text><text class="cls-16" transform="translate(197.726 473.39)">Helm</text></g></svg>