<svg width="38" height="31" viewBox="0 0 38 31" fill="none" xmlns="http://www.w3.org/2000/svg"><path d="M37.023 3.988a15.184 15.184 0 0 1-4.364 1.192A7.586 7.586 0 0 0 35.992.99c-1.49.886-3.121 1.51-4.823 1.845a7.627 7.627 0 0 0-9.124-1.484 7.59 7.59 0 0 0-3.336 3.55 7.556 7.556 0 0 0-.484 4.84 21.629 21.629 0 0 1-8.67-2.303 21.559 21.559 0 0 1-6.98-5.621 7.561 7.561 0 0 0-.828 5.515 7.583 7.583 0 0 0 3.18 4.588 7.586 7.586 0 0 1-3.448-.942v.096a7.56 7.56 0 0 0 1.724 4.799 7.606 7.606 0 0 0 4.385 2.623 7.66 7.66 0 0 1-3.43.131 7.577 7.577 0 0 0 2.702 3.763 7.617 7.617 0 0 0 4.394 1.494 15.27 15.27 0 0 1-9.442 3.242c-.605 0-1.21-.036-1.812-.107a21.542 21.542 0 0 0 11.644 3.402c13.972 0 21.611-11.535 21.611-21.541 0-.329 0-.655-.02-.98a15.4 15.4 0 0 0 3.788-3.913z" fill="currentColor"/></svg>