<svg height="410" viewBox="0 0 500 410" width="500" xmlns="http://www.w3.org/2000/svg" xmlns:xlink="http://www.w3.org/1999/xlink"><linearGradient id="a"><stop offset="0" stop-color="#cbdb2a"/><stop offset="1" stop-color="#82b040"/></linearGradient><linearGradient id="b" gradientUnits="userSpaceOnUse" x1="208.191" x2="299.926" xlink:href="#a" y1="232.936" y2="232.936"/><linearGradient id="c" gradientUnits="userSpaceOnUse" x1="256.19" x2="347.926" xlink:href="#a" y1="206.936" y2="206.936"/><linearGradient id="d" gradientUnits="userSpaceOnUse" x1="304.19" x2="395.926" xlink:href="#a" y1="180.936" y2="180.936"/><linearGradient id="e" gradientUnits="userSpaceOnUse" x1="160.191" x2="251.926" xlink:href="#a" y1="206.936" y2="206.936"/><linearGradient id="f" gradientUnits="userSpaceOnUse" x1="208.191" x2="299.926" xlink:href="#a" y1="180.936" y2="180.936"/><linearGradient id="g" gradientUnits="userSpaceOnUse" x1="256.19" x2="347.926" xlink:href="#a" y1="154.936" y2="154.936"/><linearGradient id="h" gradientUnits="userSpaceOnUse" x1="112.191" x2="203.926" xlink:href="#a" y1="180.936" y2="180.936"/><linearGradient id="i" gradientUnits="userSpaceOnUse" x1="160.191" x2="251.926" xlink:href="#a" y1="154.936" y2="154.936"/><linearGradient id="j" gradientUnits="userSpaceOnUse" x1="208.191" x2="299.926" xlink:href="#a" y1="128.936" y2="128.936"/><linearGradient id="k"><stop offset="0" stop-color="#0d4d95"/><stop offset="1" stop-color="#0f213c"/></linearGradient><linearGradient id="l" gradientUnits="userSpaceOnUse" x1="111.4" x2="157" xlink:href="#k" y1="127.798" y2="127.798"/><linearGradient id="m" gradientUnits="userSpaceOnUse" x1="207.4" x2="253" xlink:href="#k" y1="178.999" y2="178.999"/><linearGradient id="n" gradientUnits="userSpaceOnUse" x1="159.2" x2="204.8" xlink:href="#k" y1="153.599" y2="153.599"/><linearGradient id="o" gradientUnits="userSpaceOnUse" x1="111.4" x2="157" xlink:href="#k" y1="216.798" y2="216.798"/><linearGradient id="p" gradientUnits="userSpaceOnUse" x1="207.4" x2="253" xlink:href="#k" y1="267.998" y2="267.998"/><linearGradient id="q" gradientUnits="userSpaceOnUse" x1="159.2" x2="204.8" xlink:href="#k" y1="242.599" y2="242.599"/><linearGradient id="r" gradientUnits="userSpaceOnUse" x1="111.4" x2="157" xlink:href="#k" y1="260.799" y2="260.799"/><linearGradient id="s" gradientUnits="userSpaceOnUse" x1="207.4" x2="253" xlink:href="#k" y1="311.998" y2="311.998"/><linearGradient id="t" gradientUnits="userSpaceOnUse" x1="159.2" x2="204.8" xlink:href="#k" y1="286.599" y2="286.599"/><linearGradient id="u"><stop offset="0" stop-color="#ed3823"/><stop offset="1" stop-color="#be1e22"/></linearGradient><linearGradient id="v" gradientUnits="userSpaceOnUse" x1="351" x2="396.6" xlink:href="#u" y1="127.798" y2="127.798"/><linearGradient id="w" gradientUnits="userSpaceOnUse" x1="255" x2="300.6" xlink:href="#u" y1="178.999" y2="178.999"/><linearGradient id="x" gradientUnits="userSpaceOnUse" x1="303.2" x2="348.8" xlink:href="#u" y1="153.599" y2="153.599"/><linearGradient id="y" gradientUnits="userSpaceOnUse" x1="351" x2="396.6" xlink:href="#u" y1="216.798" y2="216.798"/><linearGradient id="z" gradientUnits="userSpaceOnUse" x1="255" x2="300.6" xlink:href="#u" y1="267.998" y2="267.998"/><linearGradient id="A" gradientUnits="userSpaceOnUse" x1="303.2" x2="348.8" xlink:href="#u" y1="242.599" y2="242.599"/><linearGradient id="B" gradientUnits="userSpaceOnUse" x1="351" x2="396.6" xlink:href="#u" y1="260.799" y2="260.799"/><linearGradient id="C" gradientUnits="userSpaceOnUse" x1="255" x2="300.6" xlink:href="#u" y1="311.998" y2="311.998"/><linearGradient id="D" gradientUnits="userSpaceOnUse" x1="303.2" x2="348.8" xlink:href="#u" y1="286.599" y2="286.599"/><linearGradient id="E"><stop offset="0" stop-color="#ffc80b"/><stop offset="1" stop-color="#f8991d"/></linearGradient><linearGradient id="F" gradientUnits="userSpaceOnUse" x1="208.191" x2="299.926" xlink:href="#E" y1="143.936" y2="143.936"/><linearGradient id="G" gradientUnits="userSpaceOnUse" x1="256.19" x2="347.926" xlink:href="#E" y1="117.936" y2="117.936"/><linearGradient id="H" gradientUnits="userSpaceOnUse" x1="304.19" x2="395.926" xlink:href="#E" y1="91.936" y2="91.936"/><linearGradient id="I" gradientUnits="userSpaceOnUse" x1="160.191" x2="251.926" xlink:href="#E" y1="117.936" y2="117.936"/><linearGradient id="J" gradientUnits="userSpaceOnUse" x1="208.191" x2="299.926" xlink:href="#E" y1="91.936" y2="91.936"/><linearGradient id="K" gradientUnits="userSpaceOnUse" x1="256.19" x2="347.926" xlink:href="#E" y1="65.936" y2="65.936"/><linearGradient id="L" gradientUnits="userSpaceOnUse" x1="112.191" x2="203.926" xlink:href="#E" y1="91.936" y2="91.936"/><linearGradient id="M" gradientUnits="userSpaceOnUse" x1="160.191" x2="251.926" xlink:href="#E" y1="65.936" y2="65.936"/><linearGradient id="N" gradientUnits="userSpaceOnUse" x1="208.191" x2="299.926" xlink:href="#E" y1="39.937" y2="39.937"/><path d="m253.84 103.695-145.478 77.479v89l145.478 77.478 145.477-77.478v-89z" fill="#fff"/><path d="m254.059 208.24-45.868 24.697 45.868 24.696 45.867-24.696z" fill="url(#b)"/><path d="m302.059 182.24-45.869 24.697 45.869 24.696 45.867-24.696z" fill="url(#c)"/><path d="m350.059 156.24-45.869 24.697 45.869 24.696 45.867-24.696z" fill="url(#d)"/><path d="m206.058 182.24-45.867 24.697 45.867 24.696 45.868-24.696z" fill="url(#e)"/><path d="m254.059 156.24-45.868 24.697 45.868 24.696 45.867-24.696z" fill="url(#f)"/><path d="m302.059 130.24-45.869 24.697 45.869 24.696 45.867-24.696z" fill="url(#g)"/><path d="m158.058 156.24-45.867 24.697 45.867 24.696 45.868-24.696z" fill="url(#h)"/><path d="m206.058 130.24-45.867 24.697 45.867 24.696 45.868-24.696z" fill="url(#i)"/><path d="m254.059 104.24-45.868 24.697 45.868 24.696 45.867-24.696z" fill="url(#j)"/><path d="m253.84 13.195-145.478 77.479v46.5l145.478 77.478 145.477-77.478v-46.5z" fill="#fff"/><path d="m35.842 363.825-16.352 28.897h6.72l3.36-6.328h18.312l3.472 6.328h7.56l-16.576-28.896h-6.496zm-3.416 17.361 6.44-11.76 6.216 11.76zm69.608-11.061c-.896-.728-2.501-1.092-4.816-1.092h-17.136c-2.352 0-3.967.384-4.844 1.148-.877.766-1.316 2.249-1.316 4.451v12.488c0 2.203.429 3.688 1.288 4.452.858.766 2.482 1.148 4.872 1.148h17.136c2.389 0 4.013-.383 4.872-1.148.858-.765 1.288-2.249 1.288-4.452v-8.176h-15.064v4.2h9.408v5.04h-18.032v-14.784h18.032v2.52l5.656-.951v-.616c0-2.09-.448-3.499-1.344-4.228zm19.599 22.597h5.768v-23.688h-5.768zm30.519-23.689h-5.824v23.688h24.416v-4.368h-18.592zm39.311 19.321v-5.88h11.424v-4.088h-11.424v-5.152h19.6v-4.2h-25.423v23.688h25.704v-4.368z" fill="#f99f1c"/><path d="m254.351 375.081h-18.032v-6.216h18.928v3.304l5.936-1.399v-.616c0-2.427-.532-4.088-1.596-4.984s-2.922-1.344-5.572-1.344h-16.408c-2.763 0-4.648.468-5.656 1.4-1.008.934-1.512 2.744-1.512 5.432v3.192c0 2.688.504 4.499 1.512 5.432 1.008.934 2.893 1.4 5.656 1.4h18.032v6.607h-20.44v-3.416l-5.936 1.232v.784c0 2.688.513 4.499 1.54 5.432 1.026.934 2.921 1.4 5.684 1.4h17.864c2.763 0 4.657-.467 5.684-1.4 1.026-.933 1.54-2.744 1.54-5.432v-3.977c0-2.688-.514-4.498-1.54-5.432-1.027-.931-2.922-1.399-5.684-1.399zm24.359-1.792h11.424v19.433h5.769v-19.433h11.479v-4.256h-28.672zm54.992-4.256-14.057 23.688h5.769l2.968-5.208h15.68l2.969 5.208h6.496l-14.28-23.688zm-2.856 14.113 5.32-9.8 5.544 9.8zm57.343-14.113h-14.784c-2.39 0-4.014.384-4.872 1.148-.858.766-1.287 2.249-1.287 4.451v12.488c0 2.166.429 3.641 1.287 4.424.858.784 2.482 1.177 4.872 1.177h14.784c2.389 0 4.022-.383 4.9-1.148.877-.765 1.315-2.249 1.315-4.452v-2.8l-5.823-1.176v5.04h-15.568v-14.784h15.568v4.368l5.823-.84v-2.297c0-2.202-.438-3.686-1.315-4.451-.877-.764-2.511-1.148-4.9-1.148zm52.081 0h-8.344l-13.832 9.576v-9.576h-5.824v23.688h5.824v-10.696l14.896 10.696h9.128l-18.199-12.712zm40.992 10.388c-.859-.765-2.483-1.147-4.872-1.147h-15.4v-4.984h16.296v2.521l4.984-1.064v-.56c0-2.017-.468-3.379-1.4-4.088-.934-.709-2.539-1.064-4.815-1.064h-14.057c-2.352 0-3.976.384-4.872 1.148-.896.766-1.344 2.249-1.344 4.451v2.633c0 2.203.448 3.687 1.344 4.452.896.766 2.521 1.147 4.872 1.147h15.344v5.432h-17.416v-2.8l-5.151.952v.672c0 2.203.438 3.688 1.315 4.452.877.766 2.511 1.148 4.9 1.148h15.4c2.389 0 4.013-.383 4.872-1.148.857-.765 1.287-2.249 1.287-4.452v-3.248c0-2.203-.43-3.687-1.287-4.453z" fill="#163b6c"/><path d="m111.4 94.805v41.6l45.6 24.387v-41.601z" fill="url(#l)"/><path d="m207.4 146.005v41.6l45.6 24.387v-41.6z" fill="url(#m)"/><path d="m159.2 120.605v41.6l45.6 24.387v-41.6z" fill="url(#n)"/><path d="m111.4 183.805v41.6l45.6 24.387v-41.601z" fill="url(#o)"/><path d="m207.4 235.005v41.6l45.6 24.387v-41.6z" fill="url(#p)"/><path d="m159.2 209.605v41.6l45.6 24.387v-41.6z" fill="url(#q)"/><path d="m111.4 227.805v41.6l45.6 24.387v-41.601z" fill="url(#r)"/><path d="m207.4 279.005v41.6l45.6 24.387v-41.6z" fill="url(#s)"/><path d="m159.2 253.605v41.6l45.6 24.387v-41.6z" fill="url(#t)"/><path d="m351 119.191v41.601l45.6-24.387v-41.6z" fill="url(#v)"/><path d="m255 170.392v41.6l45.6-24.387v-41.6z" fill="url(#w)"/><path d="m303.2 144.992v41.6l45.6-24.387v-41.6z" fill="url(#x)"/><path d="m351 208.191v41.601l45.6-24.387v-41.6z" fill="url(#y)"/><path d="m255 259.392v41.6l45.6-24.387v-41.6z" fill="url(#z)"/><path d="m303.2 233.992v41.6l45.6-24.387v-41.6z" fill="url(#A)"/><path d="m351 252.191v41.601l45.6-24.387v-41.6z" fill="url(#B)"/><path d="m255 303.392v41.6l45.6-24.387v-41.6z" fill="url(#C)"/><path d="m303.2 277.992v41.6l45.6-24.387v-41.6z" fill="url(#D)"/><path d="m254.059 119.24-45.868 24.697 45.868 24.696 45.867-24.696z" fill="url(#F)"/><path d="m302.059 93.24-45.869 24.697 45.869 24.696 45.867-24.696z" fill="url(#G)"/><path d="m350.059 67.24-45.869 24.697 45.869 24.696 45.867-24.696z" fill="url(#H)"/><path d="m206.058 93.24-45.867 24.697 45.867 24.696 45.868-24.696z" fill="url(#I)"/><path d="m254.059 67.24-45.868 24.697 45.868 24.696 45.867-24.696z" fill="url(#J)"/><path d="m302.059 41.24-45.869 24.697 45.869 24.696 45.867-24.696z" fill="url(#K)"/><path d="m158.058 67.24-45.867 24.697 45.867 24.696 45.868-24.696z" fill="url(#L)"/><path d="m206.058 41.24-45.867 24.697 45.867 24.696 45.868-24.696z" fill="url(#M)"/><path d="m254.059 15.24-45.868 24.697 45.868 24.696 45.867-24.696z" fill="url(#N)"/></svg>