<svg height="245" viewBox="0 0 400 245" width="400" xmlns="http://www.w3.org/2000/svg"><path d="m0 0h400v245h-400z" fill="none" pointer-events="none"/><g fill="#373c41"><path d="m19.776 95.376c-4.05.82-8.402 4.067-10.21 7.615s-1.874 4.419-1.874 19.348c0 7.967.134 14.528.335 15.566a15.224 15.224 0 0 0 12.017 12.017c1.841.335 25.809.502 25.809.134 0-.268-2.042-8.302-2.143-8.402-.033-.067-4.284-1.004-9.44-2.11-12.017-2.61-11.648-2.51-12.653-3.715l-.87-1.037v-24.302l.87-1.055c1.005-1.205.636-1.105 12.654-3.715 5.155-1.105 9.406-2.042 9.44-2.11.1-.1 2.142-8.134 2.142-8.401 0-.318-24.47-.168-26.077.167zm38.797.05c.033.603 1.908 7.967 2.109 8.168.066.1 4.652 1.138 10.142 2.31s10.377 2.376 10.812 2.61a4.09 4.09 0 0 1 1.44 1.406c.535.938.602 1.942.602 12.72s-.067 11.783-.602 12.72a4.402 4.402 0 0 1 -1.44 1.407c-.435.234-5.289 1.405-10.812 2.61s-10.076 2.21-10.142 2.31c-.201.201-2.076 7.565-2.11 8.168 0 .368 2.41.435 12.989.335 14.594-.134 14.762-.168 18.477-2.678a15.28 15.28 0 0 0 5.758-7.532c.77-2.243.77-2.444.77-17.34s0-15.096-.77-17.339a15.28 15.28 0 0 0 -5.758-7.532c-3.715-2.51-3.883-2.544-18.477-2.677-10.578-.1-12.988-.05-12.988.334zm62.295 11.381c-2.31 4.82-4.62 10.779-6.996 18.01-1.607 4.853-4.754 15.699-4.754 16.301.89.087 1.784.12 2.678.1h2.645l.368-1.439c.234-.77.803-2.845 1.305-4.586l.904-3.18h18.377l.938 3.348a318.684 318.684 0 0 0 1.272 4.586l.334 1.272h2.645c1.473 0 2.678-.034 2.678-.1s-.67-2.545-1.507-5.557c-3.046-11.013-6.929-21.859-10.21-28.654l-1.74-3.515h-7.297zm7.933 6.695c1.64 3.85 4.753 12.285 4.753 12.854 0 .067-3.314.134-7.364.134s-7.364-.134-7.364-.268c0-.569 3.38-9.573 5.02-13.423 1.273-2.979 1.909-4.05 2.344-4.05s1.105 1.238 2.611 4.753zm17.808 8.804v18.913h5.356v-37.826h-5.356zm12.05-18.478a4.352 4.352 0 0 0 -1.472 1.674c-.536 1.138-.57 1.406-.134 2.51a3.294 3.294 0 0 0 4.084 2.076c1.673-.536 2.376-1.506 2.376-3.247 0-1.272-.167-1.64-1.104-2.477-1.172-1.038-2.377-1.239-3.75-.536zm9.708 18.41v18.88l4.117.301c2.243.134 5.758.302 7.766.302 3.381 0 3.85-.067 5.624-.971a7.81 7.81 0 0 0 4.285-4.988c.2-.803.3-4.351.234-9.205-.1-7.465-.134-8-.837-9.34-1.305-2.41-3.28-3.58-6.929-4.083-1.941-.268-6.762 0-8.235.469-.636.2-.669.067-.669-4.988v-5.222h-5.356v18.846zm15.23-3.614a2.742 2.742 0 0 1 1.507 1.339c.435 1.138.435 13.59 0 14.695-.502 1.372-2.142 2.008-5.356 2.008a30.776 30.776 0 0 1 -4.418-.268l-1.607-.234v-17.306l1.941-.335c2.98-.502 6.628-.468 7.934.1zm37.994 3.648v18.88l3.28.167c1.774.134 4.854.301 6.829.435 4.586.268 7.464-.468 9.339-2.443 2.41-2.477 2.477-2.779 2.578-11.214.1-6.126.033-7.967-.402-9.373-.904-3.146-3.515-5.121-7.498-5.59-2.009-.234-7.264.033-8.335.469-.335.1-.435-1.038-.435-5.021v-5.189h-5.356v18.88zm15.03-3.799c.569.2 1.205.636 1.372.97.368.67.469 14.662.134 15.566-.57 1.473-5.088 2.11-9.574 1.373l-1.606-.235v-17.289l1.941-.335c2.678-.435 6.46-.468 7.732-.05zm53.19-14.745c-3.348.602-5.055 1.406-6.796 3.146-2.678 2.678-2.845 3.649-2.845 15.767s.167 13.088 2.879 15.8c1.406 1.439 2.142 1.874 4.184 2.51 2.142.67 3.18.77 7.666.77 3.883 0 5.891-.168 7.9-.636a22.338 22.338 0 0 0 3.146-.87c.268-.168.234-.77-.167-2.377a14.59 14.59 0 0 0 -.77-2.377c-.134-.134-.971-.033-1.841.234-2.98.904-8.201 1.272-11.448.87s-4.452-.937-5.49-2.242c-.67-.87-.703-1.239-.703-11.682s.033-10.812.703-11.683c1.038-1.305 2.21-1.807 5.49-2.243s8.468-.033 11.448.87c.903.269 1.707.503 1.807.503.268 0 1.44-4.653 1.239-4.854-.1-.1-1.34-.468-2.812-.87-2.946-.77-10.812-1.138-13.59-.636zm21.155 18.578v18.913h5.021v-37.826h-5.02v18.913zm75.986-13.892v5.021l-1.908-.2c-1.071-.101-2.276-.235-2.678-.335-1.138-.201-5.356.468-6.56 1.07a8.988 8.988 0 0 0 -3.683 3.65c-.67 1.238-.736 1.941-.837 8.77-.134 9.138.134 10.477 2.578 12.854 2.175 2.109 4.753 2.811 9.138 2.51 1.707-.1 4.519-.301 6.226-.401l3.08-.201v-37.759h-5.356zm-.57 10.21c.536.234.57.97.57 8.904v8.636l-1.239.234c-2.142.436-6.226.335-7.397-.167-.603-.268-1.239-.736-1.406-1.071s-.335-3.883-.335-7.9c0-7.967.067-8.235 1.841-8.804 1.071-.334 6.963-.2 7.967.168zm-183.537-5.507c-1.497.201-2.983.48-4.452.837-1.807.435-2.242.67-2.109 1.105.1.301.335 1.272.57 2.209s.468 1.774.602 1.875 1.573-.067 3.213-.402c5.59-1.172 9.373-.636 9.909 1.372.168.895.258 1.802.268 2.712l.033 1.874-3.18-.167c-8.502-.435-13.624 2.745-13.69 8.469-.034 2.711.836 4.82 2.644 6.494 2.108 1.941 4.351 2.51 8.67 2.242 1.874-.1 5.02-.3 6.995-.401l3.616-.235-.1-11.247-.101-11.247-.938-1.573c-1.874-3.164-6.326-4.636-11.95-3.917zm7.8 16.938c.334.2.301 6.126-.034 6.126-.167 0-1.874.167-3.816.368-5.59.536-7.632-.301-7.632-3.18 0-1.239.168-1.607 1.004-2.343a5.577 5.577 0 0 1 2.611-1.038c.87-.1 1.808-.268 2.076-.335.602-.134 5.423.184 5.79.419v-.017zm45.591-16.988a45.02 45.02 0 0 0 -4.452.87c-2.243.536-2.443.67-2.276 1.306.1.368.368 1.506.602 2.477.369 1.674.436 1.774 1.239 1.573 4.486-1.171 8.804-1.506 10.51-.87 1.574.602 1.909 1.272 1.909 3.816v2.41h-4.084c-5.255 0-7.666.67-9.975 2.745-2.009 1.807-2.845 3.983-2.578 6.695.57 5.49 4.452 8.1 11.415 7.665 1.874-.1 5.021-.301 6.996-.401l3.615-.235-.1-11.08c-.1-10.644-.134-11.146-.837-12.452-1.908-3.582-6.226-5.188-11.984-4.519zm6.628 16.77h.904v6.327l-1.908.234c-3.682.469-7.264.369-8.201-.267-1.875-1.239-1.808-4.486.1-5.49 1.306-.67 4.419-1.138 6.494-.937.937.067 2.075.133 2.611.133zm64.872-16.736c-1.941.401-4.083 1.707-5.188 3.146-1.707 2.243-1.874 3.347-1.874 11.381 0 8.235.234 9.206 2.443 11.515 2.142 2.243 3.214 2.578 8.268 2.578 5.189 0 6.36-.402 8.503-2.879 2.041-2.41 2.276-3.615 2.142-12.084-.1-6.896-.167-7.565-.837-8.837a10.042 10.042 0 0 0 -4.385-4.218c-1.707-.77-6.728-1.105-9.071-.602zm7.365 5.556c1.707.87 1.975 2.076 1.975 8.67 0 6.26-.235 7.431-1.674 8.703-1.038.937-5.757 1.172-7.465.335-2.008-.937-2.242-1.908-2.242-9.038 0-6.829.2-7.733 1.941-8.67 1.272-.703 6.126-.703 7.465 0zm-177.446 8.67v13.892h5.022v-27.784h-5.022zm188.593-13.457c-.1.268-.134 5.29-.067 11.147.1 9.64.167 10.779.736 11.85 1.975 3.716 5.322 5.255 10.779 4.887 1.74-.1 4.586-.301 6.326-.401l3.18-.201v-27.717h-5.02v22.729l-1.574.234c-2.912.469-6.528.302-7.7-.3-.602-.336-1.137-.637-1.17-.67s-.168-4.955-.268-10.946l-.168-10.88-2.443-.1c-1.842-.067-2.478 0-2.611.368z"/><path d="m43.643 121.938c-.107.358-.13.736-.067 1.104.1.57.703.603 8.57.703l8.435.067v-2.343h-8.368c-6.996 0-8.436.067-8.57.469z"/></g></svg>