<svg height="245" viewBox="0 0 400 245" width="400" xmlns="http://www.w3.org/2000/svg"><path d="m0 0h400v245h-400z" fill="none" pointer-events="none"/><path d="m97.964 141.505c-.453 1.13-1.131 1.81-2.489 1.81s-2.489-.905-3.846-1.584c-.226-.226-.453-.453-.453-.679 0-.452.453-1.131.453-1.584.226-.678.452-1.13.679-1.81.452-1.13.905-2.488 1.583-3.62.68-1.357 1.358-2.94 1.81-4.298.68-1.584 1.584-3.168 2.263-4.978l2.715-5.43c0-.226.226-.452.226-.678 1.81-3.62 3.62-7.466 5.43-11.312a139.138 139.138 0 0 0 3.62-8.598c.679-1.81 1.583-3.846 1.131-5.882-.226-1.357-1.357-2.262-1.81-3.62-.679-2.262 4.525-2.489 5.656-2.489 1.81-.226 3.846-.452 5.656-.452h4.525c1.131 0 2.715-.226 3.846.452 1.358.905 1.358 2.942 1.584 4.073.452 2.262.452 4.298.679 6.56 0 1.358 0 2.49.226 3.847.226 3.846.226 7.919.226 11.765v8.145c0 6.56.453 11.086 1.584 13.574.452.905.905 1.584 1.357 1.584.905 0 1.584-.226 2.49-.679.452-.226.904-.679 1.583-.905.452-.226.905-.452 1.357 0l.679 1.358c.226.452.679.678.452 1.13 0 .453-.678.68-.904.906-.453.452-.905.679-1.358 1.131-.905.679-1.81 1.358-2.715 1.81-.452.226-1.131.679-1.584.905-2.488 1.131-4.75 1.81-6.787 1.81-1.131 0-2.262-.453-3.167-.679-.905-.452-1.81-.905-2.489-1.81-1.81-2.488-2.489-5.656-2.489-8.597v-2.941c0-.679 0-1.358.227-2.263 0-.678.452-1.583 0-2.036-.453-.905-1.132-.905-1.81-.905-3.394-.226-7.014 0-10.408.226-1.357 0-2.94 0-3.846 1.132-.679.905-.905 2.262-1.357 3.393-.453 1.358-1.132 2.715-1.584 4.073-.226.678-.679 1.583-.905 2.262-.226.905-.679 1.81-.905 2.715-.452 1.131-.905 2.263-1.131 3.168zm21.72-22.172v-9.276c0-8.145-.453-13.575-1.132-16.29-.452 0-.679 0-.905.226-1.584 4.073-2.941 7.466-4.072 10.407-1.358 2.942-2.715 5.883-4.299 9.05s-2.489 5.204-2.715 6.109h13.122v-.226z" fill="#193d4b"/><path d="m142.534 108.7c.226-.227.679-.227 1.131-.227.679-.226 1.358-.226 2.036-.226 1.81-.227 3.394-.227 5.204-.453h3.394c.452 0 .905-.226 1.13.226.227.227.227.68.227.905 0 .453.226.68.226 1.132s.227.678.227 1.13v1.358c4.072-3.393 7.466-4.977 10.18-4.977s4.978 1.131 6.562 3.394c1.583 2.262 2.488 5.656 2.488 9.954 0 7.693-1.357 13.349-4.298 17.195-2.715 3.62-6.788 5.882-11.312 5.656-1.358 0-3.168-.226-4.525-.679-.68-.226-1.358-.452-1.358-1.131 0-.452.226-1.131.453-1.357.226-.227.678-.227.905-.453.452-.226.678-.452 1.13-.679.68-.452 1.585-1.13 2.037-1.583 1.584-1.584 2.715-3.394 3.62-5.43 1.81-4.299 2.715-9.729 1.357-14.254-.452-1.357-1.13-2.715-2.488-3.167-1.131-.453-2.263 0-3.168.679-2.488 2.036-2.94 5.656-3.393 8.597-.68 4.525-1.358 9.05-2.263 13.575-.679 2.94-1.131 5.882-1.583 9.05-.453 2.714-.68 5.43-.905 7.918v2.262c0 .453 0 1.132-.453 1.358-.452.452-1.357.452-2.036.679-1.131.226-2.036.452-3.168.678-.678 0-1.13.227-1.81.227s-1.357.226-2.036.226c-.452 0-.905.226-1.357-.226h-.226c-.453-.453-.453-1.132-.453-1.584v-2.036c0-1.358.226-2.715.453-4.073l.678-3.393c.227-1.358.453-2.942.905-4.3.453-1.809.679-3.619 1.131-5.429 0-.226 0-.452.227-.679 2.036-9.502 3.167-16.742 3.167-21.945 0-.905-.226-2.037-.679-3.168-.226-.679-.678-1.357-1.13-2.036-.227-.226-.453-.679-.68-.905-.226-.226-.452-.679-.452-.905.452-.679.679-.679.905-.905zm99.321 23.529c0 3.393-1.583 6.108-4.525 8.144-1.13.679-2.036 1.132-3.393 1.584l-2.037.679c-1.583.452-2.94.678-4.524.905-3.168.226-6.788-.227-9.503-2.036-2.262-1.584-3.167-4.3-1.81-6.562 1.132-2.262 3.847-3.846 6.561-3.62 2.715.453 4.073 3.168 4.978 5.43.226.453.452 1.132.452 1.584.227.679.905 1.358 1.584 1.131a2.455 2.455 0 0 0 1.81-1.81c0-.226.226-.678.226-.905 0-2.488-2.036-5.882-6.335-10.407s-6.334-8.145-6.334-10.633c0-2.715 1.13-4.751 3.62-6.109s5.203-2.262 8.597-2.262 5.882.678 7.692 1.81c1.584 1.13 2.489 2.715 2.489 4.75s-1.584 4.978-4.751 8.372c.452.452.905.905 1.357 1.583.679.68 1.358 1.81 2.263 3.394 1.13 1.81 1.583 3.394 1.583 4.978zm-4.298-18.1c0-1.81-1.358-2.715-3.847-2.715-1.13 0-2.262.226-2.94.679-.906.452-1.132 1.131-1.132 1.81 0 1.13 1.131 2.715 3.394 4.977l1.13 1.131c2.263-2.262 3.395-4.072 3.395-5.882z" fill="#193d4b"/><path d="m264.253 143.54c-4.977 0-9.05-2.035-12.217-6.108s-4.75-9.276-4.75-15.61c0-6.562 1.13-12.444 3.393-17.648 2.262-5.43 5.43-9.728 9.502-13.122s8.597-4.977 13.348-4.977 8.598 1.13 11.313 3.167c2.94 2.036 4.298 4.751 4.298 7.692 0 1.358-.226 2.715-.678 4.073-.227.905-.68 1.81-1.358 2.715-.905 1.13-1.81.678-3.167.452-1.132-.226-2.263-.452-3.168-.905-1.357-.452-2.715-1.131-4.072-2.036-1.131-.679-.679-1.584-.453-2.715.227-.679.227-1.584.453-2.262s.226-1.584.452-2.263c.227-1.357-.226-1.81-1.583-2.262-1.132-.226-2.263-.453-3.168-.453-3.167 0-6.108 2.715-8.597 8.371s-3.846 12.444-3.846 20.589c0 5.43.905 9.276 2.715 11.764 1.81 2.489 3.846 3.62 6.56 3.62 1.584 0 3.394-.226 4.752-.905 1.81-.679 3.394-1.584 4.751-2.715.453-.452.905-.905 1.584-1.357.226-.226.452-.679.905-.679.452 0 .678.226.905.453.452.452 1.13.905 1.583 1.357.453.453.905.905.453 1.584-.226.452-.679.678-1.131 1.131-.453.679-1.132 1.131-1.81 1.584-1.584 1.583-2.941 2.715-4.525 3.62s-3.394 1.81-5.656 2.715c-2.036.678-4.525 1.13-6.788 1.13zm35.521 0c-3.62 0-6.561-1.357-8.598-3.845-2.036-2.49-3.167-6.109-3.167-10.86 0-5.883 1.584-10.86 4.751-15.159 3.168-4.298 7.466-6.334 13.122-6.334l2.942.226c.905-.453 1.81-.679 2.94-.679 4.3 0 6.336 3.846 6.336 11.765 2.262 0 4.298-.453 6.56-.905l1.358-.226.453 3.167c-1.81.679-4.073 1.358-7.014 2.036l-1.584.226c-.905 5.657-2.94 10.408-6.108 14.48-3.168 4.073-7.24 6.109-11.991 6.109zm4.298-6.787c2.263 0 4.3-1.357 6.109-4.298s2.941-5.883 3.62-9.05c-5.656 0-8.597-2.036-8.597-6.335 0-1.81.452-3.394 1.13-4.751l.453-.905c-.226 0-.452-.226-.905-.226-.226 0-.452 0-.678.226-1.358.905-2.49 2.941-3.847 5.882s-1.81 6.788-1.81 10.634c.227 5.882 1.584 8.823 4.525 8.823z" fill="#00a651"/><path d="m358.824 137.658s0 .227-.227.227c-.452.678-1.357 1.13-2.036 1.583-.905.68-1.81 1.358-2.715 1.81-1.357.905-2.941 1.584-4.525 1.81-.678.226-1.583.226-2.262.226-3.394 0-5.43-1.583-5.883-5.203-1.583 1.584-3.393 2.941-5.43 3.846s-3.62 1.357-5.203 1.357c-2.489 0-4.751-1.13-6.561-3.393s-2.715-5.656-2.715-10.407c0-7.014 1.584-12.444 4.525-16.516 2.941-4.073 6.335-6.109 9.955-6.109 3.846 0 6.787.905 9.502 2.489.679-3.168 1.131-6.335 1.584-9.502.452-2.49.678-4.978.678-7.693.227-1.81 0-3.393-.226-5.203-.226-.905 0-1.584 1.131-1.81.453 0 .905-.227 1.584-.453 1.357-.452 2.715-.679 4.072-.905.68 0 1.584-.226 2.263-.226 1.131 0 2.715-.679 2.941 1.131.453 2.489 0 4.978-.226 7.466l-.679 4.751c-.226 2.037-.679 3.847-.905 5.657l-1.357 6.787c0 .226-.227.679-.227.905-2.262 11.765-3.393 19.91-3.393 24.208 0 1.357.226 1.81.905 1.81.452 0 .905-.226 1.357-.453.453-.226.679-.452 1.131-.678.453-.227.68-.453 1.132-.679s.678 0 .678.452c.227.453.453.68.68 1.132.225.905.452 1.357.452 1.583zm-19.005-25.565c-1.81 0-3.394 1.81-4.751 5.43s-2.036 7.24-2.036 10.86.226 5.882.678 6.787 1.358 1.583 2.263 1.583c1.81 0 3.394-.678 5.203-2.036.227-2.036 1.358-9.276 3.62-21.267-2.036-.905-3.62-1.357-4.977-1.357zm21.041 16.742c0-6.561 2.036-11.765 6.108-15.611s8.598-5.656 13.575-5.656c3.167 0 5.656.679 7.692 2.262s2.941 3.62 2.941 6.109-.678 4.751-2.036 6.561c-1.357 1.81-2.94 3.167-4.75 4.072-3.847 1.81-7.24 2.942-10.408 3.394l-1.81.226c.452 4.978 2.489 7.466 6.109 7.466 1.357 0 2.714-.226 4.072-.905.679-.226 1.357-.452 1.81-.905.679-.452 1.131-.905 1.584-1.357s.905-.679 1.357-.226c.226.226.679.678.905 1.13.226.227.679.68.453 1.132s-.453.679-.68.905c-.452.453-1.13.905-1.583 1.358-1.357.905-2.489 1.81-3.62 2.488-3.167 1.584-6.335 2.489-10.18 2.489s-6.562-1.357-8.598-3.846-2.941-6.561-2.941-11.086zm17.873-6.109c1.584-1.81 2.489-4.072 2.489-7.013s-.905-4.299-2.489-4.299c-2.036 0-3.62 1.81-4.751 5.204s-1.584 6.56-1.584 9.502c2.489-.453 4.525-1.584 6.335-3.394z" fill="#00a651"/><path d="m180.543 108.7c.226-.227.679-.227 1.131-.227.679-.226 1.358-.226 2.036-.226 1.81-.227 3.394-.227 5.204-.453h3.394c.452 0 .905-.226 1.13.226.227.227.227.68.227.905 0 .453.226.68.226 1.132s.227.678.227 1.13v1.358c4.072-3.393 7.466-4.977 10.18-4.977s4.978 1.131 6.562 3.394c1.583 2.262 2.488 5.656 2.488 9.954 0 7.693-1.357 13.349-4.298 17.195-2.715 3.62-6.788 5.882-11.312 5.656-1.358 0-3.168-.226-4.525-.679-.679-.226-1.358-.452-1.358-1.131 0-.452.226-1.131.453-1.357.226-.227.678-.227.905-.453.452-.226.678-.452 1.13-.679.68-.452 1.585-1.13 2.037-1.583 1.584-1.584 2.715-3.394 3.62-5.43 1.81-4.299 2.715-9.729 1.357-14.254-.452-1.357-1.13-2.715-2.488-3.167-1.131-.453-2.263 0-3.168.679-2.488 2.036-2.94 5.656-3.393 8.597-.679 4.525-1.358 9.05-2.263 13.575-.678 2.94-1.131 5.882-1.583 9.05-.453 2.714-.68 5.43-.905 7.918v2.262c0 .453 0 1.132-.453 1.358-.452.452-1.357.452-2.036.679-1.131.226-2.036.452-3.168.678-.678 0-1.13.227-1.81.227s-1.357.226-2.036.226c-.452 0-.905.226-1.357-.226h-.226c-.453-.453-.453-1.132-.453-1.584v-2.036c0-1.358.226-2.715.453-4.073l.678-3.393c.227-1.358.453-2.942.905-4.3.453-1.809.679-3.619 1.132-5.429 0-.226 0-.452.226-.679 2.036-9.502 3.167-16.742 3.167-21.945 0-.905-.226-2.037-.679-3.168-.226-.679-.678-1.357-1.13-2.036-.227-.226-.453-.679-.68-.905-.226-.226-.452-.679-.452-.905.453-.679.679-.679.905-.905z" fill="#193d4b"/><path d="m82.127 153.27c0 3.167-2.489 5.655-5.656 5.655h-61.991c-3.168 0-5.656-2.488-5.656-5.656v-61.989c0-3.168 2.488-5.657 5.656-5.657h61.99c3.168 0 5.657 2.489 5.657 5.656z" fill="#173d4b"/><path d="m51.584 118.88v10.181c0 4.751.678 8.824 5.656 9.05 2.036 0 3.394-.905 4.298-1.81.905-.905 1.358-2.489 1.358-4.525-.226-2.262 1.131-5.43 4.977-6.109h1.132c1.81 0 3.62.68 4.75 1.81.68.68 1.584 2.037 1.584 3.847v.226c0 5.882-1.81 10.407-5.203 13.122-2.715 2.489-6.335 3.62-9.955 4.072-4.072.453-8.597.68-12.217-1.13-2.941-1.358-4.751-3.847-6.335-6.336-2.262-3.62-2.489-7.24-2.489-11.312v-9.05c0-3.62 0-7.24-.226-10.86-.226-4.072 1.584-8.144 4.525-10.86 4.525-4.524 12.443-5.429 18.552-4.298 4.072.679 7.919 2.715 10.181 6.109 2.262 3.167 3.394 7.466 3.167 11.312-.226 2.941-2.036 5.204-4.977 5.656-3.167.679-6.561-.905-7.24-4.299-.452-1.583 0-3.393-.679-4.977-.226-.905-.905-1.584-1.583-2.036-1.81-1.131-4.978-1.131-6.788-.226-2.036.905-2.488 3.167-2.488 5.203z" fill="#fff"/><path d="m51.584 129.287c0 1.584.226 2.942.452 4.299.226 1.584 1.131 3.167 2.489 4.072.452.227 1.131.453 1.584.905 2.036 1.584 2.488 4.525 1.583 6.788-.452 1.583-1.81 3.167-3.393 3.62-2.037.678-4.073 0-5.883-.68-.905-.452-1.81-.904-2.488-1.357l-.905-.678c-3.168 2.036-7.014 3.167-11.539 3.167-5.43 0-9.728-1.357-13.122-4.299-3.394-2.94-5.204-7.24-5.204-13.122v-19.457c0-5.882 1.81-10.407 5.204-13.122 3.167-2.715 7.692-4.299 13.122-4.299s9.729 1.358 13.122 4.3l.68.678s4.298 3.393 4.298 12.67v9.954c.226 2.036 0 4.299 0 6.561zm-12.444-16.742c0-2.262-.452-3.846-1.357-4.75-.905-.906-2.263-1.358-4.299-1.358-4.072 0-5.656 1.583-5.656 6.108v19.457c0 4.299 1.584 6.109 5.656 6.109 2.036 0 3.394-.453 4.299-1.358s1.357-2.488 1.357-4.524z" fill="#00a551"/></svg>