<svg xmlns="http://www.w3.org/2000/svg" id="Layer_1" data-name="Layer 1" viewBox="0 0 237.473 328.42"><defs><style>.cls-1{fill:none}.cls-2{clip-path:url(#clip-path)}.cls-3{fill:#fff}.cls-4{fill:#336be5}.cls-5{fill:#336ee5}</style><clipPath id="clip-path"><path class="cls-1" d="M8.272 16.05h219.096v295.934H8.272z"/></clipPath></defs><g class="cls-2"><path class="cls-3" d="M97.422 265.96a2.849 2.849 0 0 0-.988-.783 3.09 3.09 0 0 0-1.462-.306 3.222 3.222 0 0 0-1.463.306 2.845 2.845 0 0 0-1.02.75 3.608 3.608 0 0 0-.647 1.121 7.694 7.694 0 0 0-.307 1.26h6.705a4.81 4.81 0 0 0-.24-1.26 2.81 2.81 0 0 0-.578-1.088m-22.919-.885a6.206 6.206 0 0 0-1.566.204 4.442 4.442 0 0 0-1.224.51v9.222q.373.07.951.137c.386.023.805.033 1.26.033a3.645 3.645 0 0 0 3.131-1.429 6.218 6.218 0 0 0 1.054-3.777q0-4.899-3.606-4.9m77.222.885a2.873 2.873 0 0 0-.988-.783 3.088 3.088 0 0 0-1.461-.306 3.231 3.231 0 0 0-1.464.306 2.845 2.845 0 0 0-1.02.75 3.662 3.662 0 0 0-.648 1.121 7.691 7.691 0 0 0-.306 1.26h6.704a4.756 4.756 0 0 0-.239-1.26 2.81 2.81 0 0 0-.578-1.088m34.296 0a2.856 2.856 0 0 0-.987-.783 3.093 3.093 0 0 0-1.462-.306 3.222 3.222 0 0 0-1.463.306 2.839 2.839 0 0 0-1.022.75 3.633 3.633 0 0 0-.646 1.121 7.691 7.691 0 0 0-.306 1.26h6.704a4.755 4.755 0 0 0-.239-1.26 2.83 2.83 0 0 0-.579-1.088"/><path class="cls-3" d="M206.37 278.177a9.83 9.83 0 0 1-5.614 1.361 16.39 16.39 0 0 1-3.98-.409 16.064 16.064 0 0 1-2.18-.68l.85-4.118a17.86 17.86 0 0 0 2.657.818 13.734 13.734 0 0 0 2.688.272 5.083 5.083 0 0 0 1.973-.272 1.054 1.054 0 0 0 .578-1.055 1.256 1.256 0 0 0-.75-1.057 13.055 13.055 0 0 0-2.278-1.054q-1.19-.443-2.18-.92a6.68 6.68 0 0 1-1.63-1.122 4.785 4.785 0 0 1-1.057-1.6 5.87 5.87 0 0 1-.374-2.211 4.785 4.785 0 0 1 1.873-3.982 8.136 8.136 0 0 1 5.137-1.463 15.633 15.633 0 0 1 3.132.306 13.577 13.577 0 0 1 2.381.614l-.885 3.947a17.863 17.863 0 0 0-1.94-.544 10.145 10.145 0 0 0-2.314-.24q-2.381 0-2.38 1.328a1.389 1.389 0 0 0 .1.545 1.288 1.288 0 0 0 .41.476q.306.205.817.476.543.24 1.36.545a19.254 19.254 0 0 1 2.757 1.224 5.807 5.807 0 0 1 1.7 1.294 3.621 3.621 0 0 1 .886 1.531 6.515 6.515 0 0 1 .272 1.974 4.544 4.544 0 0 1-2.008 4.016m-14.666-7.317c-.023.34-.045.646-.069.92h-11.502a3.366 3.366 0 0 0 1.464 2.483 5.874 5.874 0 0 0 3.47.92 15.527 15.527 0 0 0 2.723-.238 10.903 10.903 0 0 0 2.212-.648l.68 4.118a6.976 6.976 0 0 1-1.089.409 11.882 11.882 0 0 1-1.53.339 18.757 18.757 0 0 1-3.676.375 11.42 11.42 0 0 1-4.219-.714 8.495 8.495 0 0 1-2.961-1.94 8.256 8.256 0 0 1-1.737-2.962 12.002 12.002 0 0 1-.544-3.675 11.074 11.074 0 0 1 .715-4.15 9.126 9.126 0 0 1 1.94-2.996 8.003 8.003 0 0 1 2.723-1.803 8.7 8.7 0 0 1 3.199-.613 7.884 7.884 0 0 1 6.023 2.348q2.212 2.314 2.211 6.84c0 .295-.01.624-.033.987m-20.685 8.338a11.947 11.947 0 0 1-2.757.272 9.333 9.333 0 0 1-3.436-.544 5.606 5.606 0 0 1-2.177-1.566 6.114 6.114 0 0 1-1.159-2.45 15.168 15.168 0 0 1-.305-3.165v-15.042l5.07-.816v5.274h6.091v4.22h-6.09v6.295a5.142 5.142 0 0 0 .542 2.553 2.454 2.454 0 0 0 2.28.953 10.586 10.586 0 0 0 1.669-.137 9.549 9.549 0 0 0 1.6-.442l.714 3.948a14.585 14.585 0 0 1-2.042.647m-13.613-8.338c-.021.34-.045.646-.068.92h-11.502a3.366 3.366 0 0 0 1.464 2.483 5.883 5.883 0 0 0 3.473.92 15.545 15.545 0 0 0 2.721-.238 10.953 10.953 0 0 0 2.212-.648l.68 4.118a6.977 6.977 0 0 1-1.088.409 11.953 11.953 0 0 1-1.533.339 18.757 18.757 0 0 1-3.675.375 11.415 11.415 0 0 1-4.22-.714 8.501 8.501 0 0 1-2.96-1.94 8.22 8.22 0 0 1-1.736-2.962 12.002 12.002 0 0 1-.544-3.675 11.048 11.048 0 0 1 .715-4.15 9.102 9.102 0 0 1 1.94-2.996 8.015 8.015 0 0 1 2.721-1.803 8.706 8.706 0 0 1 3.2-.613 7.88 7.88 0 0 1 6.023 2.348q2.212 2.314 2.212 6.84 0 .443-.035.987m-20.548 8.202h-5.07v-9.495a6.824 6.824 0 0 0-.648-3.47 2.635 2.635 0 0 0-2.414-1.022 10.582 10.582 0 0 0-1.159.068q-.611.035-1.087.102v13.817h-5.072v-17.288a26.543 26.543 0 0 1 3.334-.68 26.059 26.059 0 0 1 4.288-.342 10.03 10.03 0 0 1 3.778.614 5.552 5.552 0 0 1 2.416 1.667 6.543 6.543 0 0 1 1.26 2.586 13.73 13.73 0 0 1 .374 3.336zm-19.02-13.408a25.677 25.677 0 0 0-1.599-.34 9.041 9.041 0 0 0-1.973-.206 7.982 7.982 0 0 0-1.157.103 5.694 5.694 0 0 0-.987.17v13.681h-5.07v-16.948a28.56 28.56 0 0 1 3.198-.885 18.042 18.042 0 0 1 4.151-.442 8.398 8.398 0 0 1 .987.068 10.382 10.382 0 0 1 1.158.136 10.714 10.714 0 0 1 1.157.204 4.81 4.81 0 0 1 .987.272zm-14.733 5.206c-.024.34-.046.646-.068.92H91.535a3.374 3.374 0 0 0 1.464 2.482 5.877 5.877 0 0 0 3.47.92 15.516 15.516 0 0 0 2.723-.237 10.927 10.927 0 0 0 2.212-.648l.68 4.118a7.028 7.028 0 0 1-1.088.409 12.003 12.003 0 0 1-1.532.339 18.785 18.785 0 0 1-3.675.375 11.425 11.425 0 0 1-4.22-.714 8.507 8.507 0 0 1-2.961-1.94 8.235 8.235 0 0 1-1.735-2.962 11.962 11.962 0 0 1-.544-3.675 11.049 11.049 0 0 1 .713-4.15 9.144 9.144 0 0 1 1.94-2.996 8.026 8.026 0 0 1 2.724-1.803 8.683 8.683 0 0 1 3.198-.613 7.882 7.882 0 0 1 6.024 2.348q2.211 2.314 2.212 6.84 0 .443-.033.987m-20.472 3.13a7.975 7.975 0 0 1-1.802 2.96 8.176 8.176 0 0 1-2.929 1.907 11.251 11.251 0 0 1-3.945.646q-.921 0-1.942-.102-.986-.067-1.973-.203-.954-.136-1.837-.307-.884-.203-1.566-.41v-25.01l5.072-.817v8.916a9.458 9.458 0 0 1 1.768-.58 9.132 9.132 0 0 1 1.974-.203 7.91 7.91 0 0 1 3.37.681 6.454 6.454 0 0 1 2.45 1.872 8.489 8.489 0 0 1 1.496 2.96 13.189 13.189 0 0 1 .51 3.812 11.046 11.046 0 0 1-.646 3.878m-20.787 4.458a26.285 26.285 0 0 1-3.335.681 26.05 26.05 0 0 1-4.287.34 10.303 10.303 0 0 1-3.812-.612 5.838 5.838 0 0 1-2.382-1.701 6.865 6.865 0 0 1-1.26-2.655 14.154 14.154 0 0 1-.373-3.369v-9.971h5.069v9.358a7.25 7.25 0 0 0 .647 3.54 2.571 2.571 0 0 0 2.416 1.09c.364 0 .749-.013 1.157-.035.408-.045.772-.09 1.09-.136v-13.817h5.07zm-23.458.614q-.548-.886-1.26-1.941-.68-1.087-1.463-2.143a24.883 24.883 0 0 0-1.668-2.076 13.083 13.083 0 0 0-1.702-1.668v7.828h-5.07v-25.591l5.07-.817v14.973q.75-.816 1.532-1.701.816-.886 1.564-1.736.75-.885 1.396-1.667.68-.783 1.158-1.362h6.023q-1.804 2.076-3.54 3.982-1.7 1.873-3.743 3.88a22.043 22.043 0 0 1 2.11 2.21q1.09 1.26 2.11 2.622 1.02 1.362 1.872 2.723.85 1.36 1.428 2.484zm44.02-39.24l-34.777-43.239a9.514 9.514 0 0 1-.547-.76 9.463 9.463 0 0 1-1.304-7.305l12.395-53.926a9.548 9.548 0 0 1 5.2-6.464l50.242-24.007a9.69 9.69 0 0 1 8.342 0l50.25 23.994a9.546 9.546 0 0 1 5.2 6.464l12.413 53.926a9.47 9.47 0 0 1-1.856 8.064l-34.765 43.247a9.634 9.634 0 0 1-7.512 3.58l-55.77.012a9.638 9.638 0 0 1-7.51-3.586m-68.486 66.493h206.932V73.567H13.925z"/><path class="cls-4" d="M177.549 54.1c.446 0 .86-.017 1.24-.05.38-.034.69-.072.937-.118v-9.078a4.338 4.338 0 0 0-1.223-.503 5.884 5.884 0 0 0-1.523-.201q-3.553 0-3.551 4.824a6.104 6.104 0 0 0 1.038 3.719 3.586 3.586 0 0 0 3.082 1.407M78.3 46.093a3.118 3.118 0 0 0-.57-1.072 3.067 3.067 0 0 0-.971-.77 3.164 3.164 0 0 0-1.458-.302 3.343 3.343 0 0 0-1.44.285 2.988 2.988 0 0 0-1.006.753 3.361 3.361 0 0 0-.618 1.09 7.205 7.205 0 0 0-.319 1.255h6.6a5.214 5.214 0 0 0-.218-1.24m81.979.001a3.118 3.118 0 0 0-.57-1.072 3.053 3.053 0 0 0-.972-.77 3.164 3.164 0 0 0-1.457-.302 3.343 3.343 0 0 0-1.44.285 2.982 2.982 0 0 0-1.006.753 3.364 3.364 0 0 0-.62 1.09 7.205 7.205 0 0 0-.318 1.255h6.6a5.216 5.216 0 0 0-.217-1.24"/><path class="cls-3" d="M53.04 55.708a7.812 7.812 0 0 0 2.864 1.96 10.849 10.849 0 0 0 4.153.72 14.413 14.413 0 0 0 2.882-.268 11.611 11.611 0 0 0 2.178-.636l-.705-4.088a8.242 8.242 0 0 1-1.909.537 12.322 12.322 0 0 1-1.942.168 4.281 4.281 0 0 1-3.57-1.308 5.855 5.855 0 0 1-1.021-3.684 5.654 5.654 0 0 1 1.09-3.618 3.952 3.952 0 0 1 3.3-1.374 8.04 8.04 0 0 1 1.875.201 12.456 12.456 0 0 1 1.541.468l1.039-3.987a12.668 12.668 0 0 0-2.278-.72 12.309 12.309 0 0 0-2.58-.251 9.397 9.397 0 0 0-3.82.738 8.43 8.43 0 0 0-4.64 4.941 10.365 10.365 0 0 0-.62 3.602 12.37 12.37 0 0 0 .521 3.667 7.63 7.63 0 0 0 1.641 2.932m19.198-9.632a3.328 3.328 0 0 1 .619-1.088 2.977 2.977 0 0 1 1.005-.754 3.353 3.353 0 0 1 1.44-.285 3.164 3.164 0 0 1 1.458.302 3.018 3.018 0 0 1 .971.77 3.094 3.094 0 0 1 .57 1.072 5.152 5.152 0 0 1 .217 1.24h-6.599a6.876 6.876 0 0 1 .319-1.257m-3.184 9.682a8.076 8.076 0 0 0 2.915 1.927 11.114 11.114 0 0 0 4.137.703 17.615 17.615 0 0 0 1.877-.1q.936-.1 1.758-.252a14.353 14.353 0 0 0 1.491-.35 6.91 6.91 0 0 0 1.072-.403l-.67-4.054a10.158 10.158 0 0 1-2.161.62 14.523 14.523 0 0 1-2.697.25 5.788 5.788 0 0 1-3.416-.904 3.311 3.311 0 0 1-1.44-2.445H83.24c.023-.269.044-.574.067-.921q.033-.519.034-.955 0-4.456-2.177-6.751a7.79 7.79 0 0 0-5.93-2.295 8.43 8.43 0 0 0-3.132.604 7.864 7.864 0 0 0-2.699 1.775 8.803 8.803 0 0 0-1.892 2.93 10.796 10.796 0 0 0-.72 4.105 11.46 11.46 0 0 0 .553 3.618 7.628 7.628 0 0 0 1.708 2.898m23.135-11.306a6.725 6.725 0 0 1 .988-.185 9.103 9.103 0 0 1 1.122-.084 9.771 9.771 0 0 1 1.944.185c.601.122 1.128.24 1.574.352l.837-4.121a5.444 5.444 0 0 0-.971-.285q-.57-.116-1.14-.202-.57-.08-1.138-.134-.57-.05-.971-.05a18.274 18.274 0 0 0-4.071.42 30.288 30.288 0 0 0-3.166.887v16.684h4.992zm10.419 11.775a5.318 5.318 0 0 0 2.144 1.542 8.949 8.949 0 0 0 3.383.552 11.764 11.764 0 0 0 2.714-.267 14.252 14.252 0 0 0 2.011-.637l-.704-3.887a8.509 8.509 0 0 1-1.558.42 9.521 9.521 0 0 1-1.66.15 2.37 2.37 0 0 1-2.226-.937 4.927 4.927 0 0 1-.553-2.513v-6.198h5.997v-4.155h-5.997v-5.193l-4.992.805v14.808a14.093 14.093 0 0 0 .319 3.115 5.725 5.725 0 0 0 1.122 2.395"/></g><path class="cls-3" d="M116.207 40.298h4.992v17.621h-4.992z"/><g class="cls-2"><path class="cls-3" d="M118.687 38.153a3.053 3.053 0 0 0 2.093-.787 3.075 3.075 0 0 0 0-4.322 3.178 3.178 0 0 0-4.187 0 3.072 3.072 0 0 0 0 4.322 3.048 3.048 0 0 0 2.094.787m23.718 0a3.056 3.056 0 0 0 2.095-.787 3.072 3.072 0 0 0 0-4.322 3.18 3.18 0 0 0-4.188 0 3.072 3.072 0 0 0 0 4.322 3.053 3.053 0 0 0 2.093.787"/></g><path class="cls-3" d="M139.926 40.298h4.992v17.621h-4.992z"/><g class="cls-2"><path class="cls-3" d="M130.88 44.452h6.165v-4.155h-6.165v-.87a5.372 5.372 0 0 1 .151-1.308 2.654 2.654 0 0 1 .503-1.038 2.343 2.343 0 0 1 .972-.687 4.089 4.089 0 0 1 1.524-.252 8.705 8.705 0 0 1 1.324.102 4.787 4.787 0 0 1 1.189.334l.87-3.919a11.046 11.046 0 0 0-1.558-.503 9.663 9.663 0 0 0-2.328-.235 7.552 7.552 0 0 0-5.713 2.011 7.516 7.516 0 0 0-1.926 5.427v18.56h4.992zm23.335 1.624a3.35 3.35 0 0 1 .619-1.088 2.982 2.982 0 0 1 1.006-.754 3.343 3.343 0 0 1 1.44-.285 3.164 3.164 0 0 1 1.457.302 3.018 3.018 0 0 1 .971.77 3.118 3.118 0 0 1 .57 1.072 5.215 5.215 0 0 1 .219 1.24h-6.6a6.983 6.983 0 0 1 .318-1.257m-3.184 9.682a8.076 8.076 0 0 0 2.916 1.927 11.122 11.122 0 0 0 4.138.703 17.59 17.59 0 0 0 1.875-.1q.937-.1 1.758-.252a14.274 14.274 0 0 0 1.491-.35 6.91 6.91 0 0 0 1.072-.403l-.67-4.054a10.144 10.144 0 0 1-2.16.62 14.533 14.533 0 0 1-2.697.25 5.792 5.792 0 0 1-3.417-.904 3.319 3.319 0 0 1-1.44-2.445h11.322c.023-.269.045-.574.068-.921.02-.346.033-.665.033-.955q0-4.456-2.177-6.751a7.79 7.79 0 0 0-5.93-2.295 8.441 8.441 0 0 0-3.134.604 7.883 7.883 0 0 0-2.697 1.775 8.82 8.82 0 0 0-1.89 2.93 10.77 10.77 0 0 0-.722 4.105 11.46 11.46 0 0 0 .553 3.618 7.645 7.645 0 0 0 1.708 2.898M176.98 44.15a5.948 5.948 0 0 1 1.524.2 4.377 4.377 0 0 1 1.223.503v9.08c-.247.044-.56.084-.94.117-.38.034-.791.05-1.239.05a3.587 3.587 0 0 1-3.081-1.407 6.124 6.124 0 0 1-1.039-3.719q0-4.825 3.551-4.824m-6.231 11.742a7.8 7.8 0 0 0 2.88 1.827 11.085 11.085 0 0 0 3.888.636q.903 0 1.892-.084.989-.083 1.944-.218.954-.134 1.825-.318.87-.185 1.54-.385V31.922l-4.99.803V40.7a10.156 10.156 0 0 0-1.66-.57 7.842 7.842 0 0 0-1.86-.202 8.255 8.255 0 0 0-3.332.637 6.597 6.597 0 0 0-2.463 1.844 8.396 8.396 0 0 0-1.54 2.93 12.98 12.98 0 0 0-.536 3.87 10.996 10.996 0 0 0 .619 3.801 7.925 7.925 0 0 0 1.793 2.882"/></g><path class="cls-4" d="M135.69 201.4l.076-.052zm3.993-3.307l.017-.017zm-1.91 1.725l.023-.02z"/><g class="cls-2"><path class="cls-4" d="M142.235 195.22a30.936 30.936 0 0 0 4.916-8.855l-15.614-2.64-.026.033-.016-.002a2.556 2.556 0 0 0-.603-.045 2.638 2.638 0 0 0-2.28 3.666l.006.012-.018.028 6.06 14.64a30.824 30.824 0 0 0 7.575-6.838M101.004 202L107 187.506l-.045-.058.007-.014a2.626 2.626 0 0 0-2.374-3.658l-.032-.001a2.81 2.81 0 0 0-.484.043l-.015.004-.025-.032-15.48 2.628A31.123 31.123 0 0 0 101.004 202m-5.057-48.455l12.897 9.142.027-.012.011.009a2.626 2.626 0 0 0 4.17-2.011v-.015l.065-.032.89-15.73a31.783 31.783 0 0 0-3.174.548 31.03 31.03 0 0 0-14.886 8.1m35.37-5.776a31.054 31.054 0 0 0-9.718-2.872l.89 15.704.013.007.002.014a2.63 2.63 0 0 0 4.174 2.006l.011-.01.045.02 12.817-9.086a31.26 31.26 0 0 0-8.234-5.783m.426 23.636a2.622 2.622 0 0 0 1.864 3.12l.016.003.014.065 15.17 4.37a31.502 31.502 0 0 0-4.513-19.476l-11.714 10.483.007.032-.01.01a2.602 2.602 0 0 0-.834 1.393m-6.964 34.766a31.583 31.583 0 0 0 3.027-.844l-7.63-13.788h-.06l-.006-.014a2.655 2.655 0 0 0-2.31-1.383l-.095.003a2.638 2.638 0 0 0-2.221 1.386l-.007.013h-.014l-7.612 13.764a31.151 31.151 0 0 0 16.928.863"/></g><path class="cls-4" d="M141.417 196.247l.047-.056z"/><g class="cls-2"><path class="cls-4" d="M91.222 159.48a30.926 30.926 0 0 0-4.379 19.533l15.096-4.357.013-.052.014-.004a2.625 2.625 0 0 0 1.032-4.512l-.012-.01.013-.063z"/></g><path class="cls-4" d="M115.389 170.846l-2.998 3.733 1.075 4.667 4.333 2.085 4.323-2.078 1.073-4.667-2.991-3.74h-4.815z"/><g class="cls-2"><path class="cls-4" d="M97.412 210.703l-.004-.01.004-.01.538-1.29a39.175 39.175 0 0 1-17.327-21.636l-1.298.223-.01-.005-.133-.077a2.978 2.978 0 0 0-1.58-.531 27.769 27.769 0 0 0-5.144 1.508l-.093.032c-.31.12-.603.245-.888.368a12.772 12.772 0 0 1-1.812.668 11.48 11.48 0 0 1-.543.124l-.236.05-.025.008-.033.01-.025.004-.02.004a3.044 3.044 0 1 1-1.348-5.91l.022-.007.022-.006.012-.004.016-.004.235-.056c.2-.049.405-.099.567-.13a12.267 12.267 0 0 1 1.904-.178c.316-.013.644-.026.984-.054l.073-.008a27.852 27.852 0 0 0 5.314-.877 3.543 3.543 0 0 0 1.156-1.136l.122-.159.005-.008.008-.002 1.238-.36a38.932 38.932 0 0 1 6.133-27.106l-.956-.854-.001-.009-.021-.138a3.006 3.006 0 0 0-.575-1.583 28.373 28.373 0 0 0-4.467-3.138 22.846 22.846 0 0 0-.86-.472 12.397 12.397 0 0 1-1.636-.987c-.13-.098-.293-.23-.45-.36l-.175-.143-.019-.013-.025-.018a3.532 3.532 0 0 1-1.308-2.177 2.868 2.868 0 0 1 .564-2.294 2.912 2.912 0 0 1 2.305-1.072l.112.002a3.623 3.623 0 0 1 2.11.797l.184.142c.165.129.352.277.486.392a12.59 12.59 0 0 1 1.337 1.382c.203.234.415.476.645.72l.051.053a27.822 27.822 0 0 0 3.998 3.607 2.082 2.082 0 0 0 1.555.2l.216-.031.009-.002.009.007c.178.131.743.536 1.066.757a38.713 38.713 0 0 1 19.648-11.217 39.146 39.146 0 0 1 5.418-.833l.07-1.26.008-.007a3.27 3.27 0 0 0 .97-1.543 27.949 27.949 0 0 0-.33-5.395l-.005-.052c-.048-.331-.107-.649-.163-.954a12.56 12.56 0 0 1-.25-1.907 9.943 9.943 0 0 1 .003-.515l.005-.258-.005-.036-.003-.046a3.05 3.05 0 1 1 6.067 0l.004.29c.003.199.007.404 0 .565a12.246 12.246 0 0 1-.247 1.907c-.057.307-.116.623-.162.955l-.021.16a27.565 27.565 0 0 0-.32 5.289 2.077 2.077 0 0 0 .811 1.335l.166.152.006.008v.01c.01.227.044.93.07 1.321a38.968 38.968 0 0 1 13.61 3.785 39.43 39.43 0 0 1 11.334 8.267l1.134-.81.007.002.159.01a2.986 2.986 0 0 0 1.652-.207 27.355 27.355 0 0 0 3.945-3.56l.104-.105c.225-.238.435-.478.638-.71a12.81 12.81 0 0 1 1.349-1.392c.133-.115.312-.253.482-.387l.189-.147a3.049 3.049 0 1 1 3.776 4.744l-.209.171c-.157.13-.32.265-.454.363a12.023 12.023 0 0 1-1.635.983c-.28.15-.572.303-.866.477a28.293 28.293 0 0 0-4.468 3.138 2.078 2.078 0 0 0-.54 1.468l-.017.218-.001.012-.008.005c-.08.075-.256.232-.46.414-.205.182-.43.385-.589.529a39.103 39.103 0 0 1 6.259 27.043l1.203.35.005.007.087.127a2.99 2.99 0 0 0 1.198 1.168 27.817 27.817 0 0 0 5.327.88l.058.005c.338.028.666.041.982.054a12.414 12.414 0 0 1 1.905.178c.158.031.357.079.55.128.117.028.23.057.326.079a3.044 3.044 0 1 1-1.348 5.91l-.02-.003-.024-.004-.036-.011-.023-.008-.288-.06a8.906 8.906 0 0 1-.491-.108 12.219 12.219 0 0 1-1.795-.665c-.29-.125-.589-.254-.906-.376l-.083-.03a27.66 27.66 0 0 0-5.156-1.51l-.171-.007a2.127 2.127 0 0 0-1.31.5l-.184.125-.009.007-.011-.003a45.839 45.839 0 0 0-1.26-.22 39.187 39.187 0 0 1-17.324 21.791c.044.107.097.248.15.397a4.695 4.695 0 0 0 .337.79l.01.011-.004.015-.084.211a2.063 2.063 0 0 0-.147 1.545 28.083 28.083 0 0 0 2.665 4.768c.187.281.38.544.565.797a12.375 12.375 0 0 1 1.048 1.602c.08.152.177.356.271.552l.122.258a3.217 3.217 0 0 1-1.292 4.307 2.871 2.871 0 0 1-2.36.044 3.54 3.54 0 0 1-1.832-1.758l-.107-.218c-.095-.194-.196-.395-.264-.553a12.415 12.415 0 0 1-.608-1.832c-.082-.3-.168-.61-.268-.929l-.023-.067a27.814 27.814 0 0 0-2.037-4.984 2.084 2.084 0 0 0-1.313-.855l-.21-.065-.008-.004-.005-.007c-.05-.087-.172-.31-.302-.545-.116-.209-.239-.432-.33-.593a39.274 39.274 0 0 1-5.142 1.548 38.881 38.881 0 0 1-22.589-1.62l-.674 1.225-.012.003a2.429 2.429 0 0 0-1.282.623 11.329 11.329 0 0 0-1.682 3.607c-.2.587-.405 1.192-.643 1.788-.101.321-.187.636-.27.94a12.125 12.125 0 0 1-.598 1.817c-.065.148-.158.335-.247.514l-.123.246-.002.011-.01.012a3.394 3.394 0 0 1-2.98 1.976 2.745 2.745 0 0 1-1.203-.272 3.22 3.22 0 0 1-1.29-4.307l.137-.293c.085-.183.173-.374.25-.517a12.602 12.602 0 0 1 1.052-1.615c.184-.252.374-.514.56-.791a29.074 29.074 0 0 0 2.72-4.887 2.957 2.957 0 0 0-.267-1.682m48.28 32.692a9.634 9.634 0 0 0 7.51-3.58l34.765-43.246a9.47 9.47 0 0 0 1.857-8.064l-12.414-53.926a9.543 9.543 0 0 0-5.198-6.464l-50.25-23.994a9.69 9.69 0 0 0-8.342 0l-50.243 24.007a9.548 9.548 0 0 0-5.2 6.464l-12.395 53.926a9.463 9.463 0 0 0 1.304 7.306 9.25 9.25 0 0 0 .546.758l34.777 43.24a9.643 9.643 0 0 0 7.512 3.586z"/><path class="cls-3" d="M139.7 198.077l-.017.017zm-3.933 3.27l-.077.054zm2.029-1.55l-.025.02zm-5.214-29.828l11.711-10.483a31.513 31.513 0 0 1 4.515 19.475l-15.172-4.369-.013-.065-.014-.003a2.62 2.62 0 0 1-1.865-3.12 2.59 2.59 0 0 1 .833-1.394l.01-.009zm8.882 26.221l-.047.057zm-12.865-8.774l.02-.027-.006-.013a2.637 2.637 0 0 1 2.277-3.666 2.713 2.713 0 0 1 .605.045l.015.003.025-.032 15.615 2.64a30.98 30.98 0 0 1-12.49 15.692zm-6.478-8.164l-4.321 2.078-4.334-2.083-1.075-4.668 2.998-3.733h4.814l2.993 3.74zm-6.657 12.292h.013l.006-.014a2.637 2.637 0 0 1 2.222-1.386l.095-.002a2.65 2.65 0 0 1 2.31 1.381l.007.014h.059l7.63 13.788a31.47 31.47 0 0 1-19.955-.018zm-2.348-30.918l-.064.032-.001.015a2.626 2.626 0 0 1-4.168 2.012l-.013-.01-.024.012-12.898-9.142a31.029 31.029 0 0 1 14.887-8.101 31.735 31.735 0 0 1 3.171-.548zm13.574 1.992l-.012.009a2.63 2.63 0 0 1-4.174-2.006v-.014l-.014-.007-.891-15.704a31.208 31.208 0 0 1 17.951 8.655l-12.815 9.086zm-22.658 21.172l.025.032.015-.002a2.584 2.584 0 0 1 .482-.045h.034a2.627 2.627 0 0 1 2.374 3.66l-.006.013.045.058L101.004 202a31.135 31.135 0 0 1-12.453-15.582zm-1.036-13.701a2.623 2.623 0 0 1-1.03 4.51l-.014.005-.014.052-15.096 4.356a30.959 30.959 0 0 1 4.38-19.531l11.776 10.533-.011.065zm-8.036 47.183c-.187.279-.377.54-.561.79a12.603 12.603 0 0 0-1.053 1.616c-.076.143-.164.333-.249.517l-.138.293a3.22 3.22 0 0 0 1.291 4.307 2.745 2.745 0 0 0 1.202.272 3.393 3.393 0 0 0 2.981-1.976l.01-.012.002-.011.123-.245c.089-.18.183-.365.247-.515a12.091 12.091 0 0 0 .599-1.817c.082-.305.167-.618.27-.94.237-.595.442-1.202.642-1.787a11.342 11.342 0 0 1 1.682-3.608 2.41 2.41 0 0 1 1.282-.623l.011-.003.675-1.224a38.949 38.949 0 0 0 27.73.071c.092.161.215.385.33.594.13.236.252.457.304.544l.004.008.009.002.209.066a2.09 2.09 0 0 1 1.313.855 27.853 27.853 0 0 1 2.037 4.984l.023.069c.102.317.185.628.268.927a12.503 12.503 0 0 0 .608 1.83c.068.16.169.36.264.555l.108.218a3.533 3.533 0 0 0 1.83 1.758 2.881 2.881 0 0 0 2.361-.042 3.219 3.219 0 0 0 1.291-4.308l-.12-.258c-.095-.197-.192-.4-.272-.553a12.597 12.597 0 0 0-1.047-1.602 20.27 20.27 0 0 1-.566-.795 28.14 28.14 0 0 1-2.665-4.77 2.067 2.067 0 0 1 .148-1.546l.083-.21.005-.014-.01-.012a4.647 4.647 0 0 1-.337-.79 13.126 13.126 0 0 0-.151-.397 39.187 39.187 0 0 0 17.323-21.791c.388.06 1.044.177 1.262.22l.01.003.01-.006.185-.127a2.138 2.138 0 0 1 1.308-.5l.171.007a27.67 27.67 0 0 1 5.156 1.512l.084.03c.316.121.615.25.905.376a12.219 12.219 0 0 0 1.795.665c.14.037.318.073.491.108l.288.06.023.007.036.012.023.004.021.002a3.044 3.044 0 1 0 1.348-5.91c-.097-.022-.209-.05-.326-.079-.193-.048-.393-.098-.55-.126a12.103 12.103 0 0 0-1.904-.18 22.628 22.628 0 0 1-.983-.052l-.058-.008a27.914 27.914 0 0 1-5.326-.877 3.005 3.005 0 0 1-1.2-1.17l-.086-.127-.005-.007-1.203-.35a39.102 39.102 0 0 0-6.259-27.043c.159-.144.384-.345.59-.529.203-.181.38-.339.459-.414l.007-.006.002-.009.016-.22a2.078 2.078 0 0 1 .541-1.467 28.438 28.438 0 0 1 4.468-3.14c.294-.173.586-.326.867-.476a11.972 11.972 0 0 0 1.634-.984c.133-.097.297-.23.454-.361l.21-.172a3.049 3.049 0 1 0-3.777-4.744l-.187.147c-.172.133-.35.272-.483.386a13.077 13.077 0 0 0-1.35 1.394c-.203.231-.413.47-.636.71l-.106.104a27.355 27.355 0 0 1-3.945 3.56 2.986 2.986 0 0 1-1.652.208l-.157-.012h-.01l-1.133.809a39.43 39.43 0 0 0-11.335-8.267 38.995 38.995 0 0 0-13.608-3.785c-.027-.39-.06-1.095-.07-1.32v-.011l-.007-.008-.166-.15a2.083 2.083 0 0 1-.81-1.337 27.471 27.471 0 0 1 .32-5.289l.02-.16c.046-.332.105-.65.162-.955a12.22 12.22 0 0 0 .248-1.908c.006-.16.002-.365 0-.564l-.004-.291a3.05 3.05 0 1 0-6.068 0l.003.047.005.037-.005.259c-.004.18-.008.365-.003.512a12.552 12.552 0 0 0 .25 1.908c.056.305.115.623.163.954l.005.052a27.949 27.949 0 0 1 .33 5.395 3.277 3.277 0 0 1-.97 1.543l-.007.007-.071 1.26a39.143 39.143 0 0 0-5.418.833A38.713 38.713 0 0 0 89.4 148.906a46.25 46.25 0 0 1-1.066-.757l-.01-.006h-.008l-.216.033a2.078 2.078 0 0 1-1.554-.201 27.903 27.903 0 0 1-3.999-3.607l-.051-.053c-.23-.243-.442-.486-.645-.72a12.698 12.698 0 0 0-1.337-1.383c-.134-.114-.321-.261-.486-.391l-.183-.142a3.601 3.601 0 0 0-2.11-.796l-.111-.003a2.908 2.908 0 0 0-2.307 1.072 2.87 2.87 0 0 0-.563 2.294 3.532 3.532 0 0 0 1.308 2.177l.024.018.02.013.175.143c.156.13.318.262.449.359a12.495 12.495 0 0 0 1.637.988c.278.147.566.3.859.472a28.288 28.288 0 0 1 4.467 3.138 3.006 3.006 0 0 1 .575 1.583l.022.14.001.007.955.853a38.944 38.944 0 0 0-6.133 27.108l-1.238.359-.008.002-.005.007-.122.16a3.525 3.525 0 0 1-1.156 1.135 27.84 27.84 0 0 1-5.314.88l-.073.007c-.34.029-.667.04-.984.053a12.266 12.266 0 0 0-1.904.178c-.162.031-.367.08-.567.13l-.235.056-.016.004-.012.003-.022.007-.022.005a3.044 3.044 0 1 0 1.348 5.912l.02-.003.025-.003.033-.012.025-.008.236-.05c.19-.041.39-.083.543-.124a12.618 12.618 0 0 0 1.812-.668c.285-.123.578-.249.888-.366l.092-.035a27.857 27.857 0 0 1 5.145-1.507 2.997 2.997 0 0 1 1.581.53l.133.078.009.004 1.298-.222a39.17 39.17 0 0 0 17.327 21.637l-.537 1.29-.005.01.004.009a2.957 2.957 0 0 1 .267 1.682 29.024 29.024 0 0 1-2.72 4.887"/><path class="cls-5" d="M40.907 273.855q-1.021-1.36-2.11-2.62a22.375 22.375 0 0 0-2.109-2.213q2.04-2.007 3.742-3.88 1.736-1.905 3.54-3.98h-6.023q-.478.577-1.157 1.361-.648.782-1.396 1.668-.749.85-1.566 1.735-.781.884-1.53 1.701v-14.974l-5.07.817v25.59h5.07v-7.825A12.91 12.91 0 0 1 34 272.902a24.867 24.867 0 0 1 1.666 2.076q.784 1.055 1.463 2.144.714 1.055 1.26 1.939h5.82q-.58-1.122-1.43-2.483-.851-1.362-1.872-2.723m15.871 1.123c-.319.045-.681.091-1.09.135q-.612.035-1.156.035a2.568 2.568 0 0 1-2.416-1.09 7.233 7.233 0 0 1-.647-3.538v-9.358h-5.071v9.97a14.202 14.202 0 0 0 .374 3.369 6.85 6.85 0 0 0 1.26 2.654 5.844 5.844 0 0 0 2.381 1.703 10.336 10.336 0 0 0 3.812.611 26.17 26.17 0 0 0 4.288-.339 26.307 26.307 0 0 0 3.335-.681v-17.287h-5.07zm20.277-1.225a3.647 3.647 0 0 1-3.132 1.43c-.452 0-.873-.012-1.259-.035-.385-.046-.704-.09-.951-.136v-9.223a4.37 4.37 0 0 1 1.224-.51 6.156 6.156 0 0 1 1.566-.203q3.606 0 3.606 4.899a6.227 6.227 0 0 1-1.054 3.778m4.22-10.413a6.46 6.46 0 0 0-2.45-1.872 7.911 7.911 0 0 0-3.37-.681 9.058 9.058 0 0 0-1.974.205 9.362 9.362 0 0 0-1.768.578v-8.916l-5.072.817v25.012q.68.203 1.566.41.884.167 1.836.305c.66.09 1.316.158 1.974.204q1.024.102 1.941.101a11.264 11.264 0 0 0 3.947-.646 8.176 8.176 0 0 0 2.926-1.906 7.991 7.991 0 0 0 1.804-2.96 11.05 11.05 0 0 0 .647-3.88 13.188 13.188 0 0 0-.511-3.81 8.467 8.467 0 0 0-1.496-2.961m10.26 4.967a7.829 7.829 0 0 1 .307-1.259 3.607 3.607 0 0 1 .646-1.122 2.841 2.841 0 0 1 1.02-.75 3.24 3.24 0 0 1 1.465-.305 3.113 3.113 0 0 1 1.462.305 2.856 2.856 0 0 1 .987.783 2.78 2.78 0 0 1 .578 1.09 4.737 4.737 0 0 1 .239 1.258zm3.37-7.622a8.683 8.683 0 0 0-3.198.613 8.032 8.032 0 0 0-2.725 1.803 9.157 9.157 0 0 0-1.94 2.995 11.051 11.051 0 0 0-.713 4.152 12.02 12.02 0 0 0 .543 3.675 8.243 8.243 0 0 0 1.736 2.96 8.499 8.499 0 0 0 2.96 1.94 11.405 11.405 0 0 0 4.221.715 17.814 17.814 0 0 0 1.907-.103 18.292 18.292 0 0 0 1.768-.27 11.983 11.983 0 0 0 1.532-.343 6.89 6.89 0 0 0 1.088-.407l-.68-4.118a11.02 11.02 0 0 1-2.212.647 15.393 15.393 0 0 1-2.723.238 5.872 5.872 0 0 1-3.471-.92 3.367 3.367 0 0 1-1.463-2.484h11.503c.022-.27.044-.578.067-.918q.035-.544.035-.987 0-4.526-2.212-6.839a7.878 7.878 0 0 0-6.024-2.349m21.643.306a9.827 9.827 0 0 0-1.156-.135 8.47 8.47 0 0 0-.988-.07 18.032 18.032 0 0 0-4.151.444 28.502 28.502 0 0 0-3.2.883v16.948h5.07v-13.679a5.57 5.57 0 0 1 .988-.171 8.114 8.114 0 0 1 1.157-.102 9.132 9.132 0 0 1 1.974.203c.613.115 1.145.227 1.6.341l.85-4.186a4.765 4.765 0 0 0-.987-.272 10.306 10.306 0 0 0-1.157-.204m18.679 2.042a5.566 5.566 0 0 0-2.417-1.668 10.055 10.055 0 0 0-3.777-.612 26.038 26.038 0 0 0-4.287.34 26.775 26.775 0 0 0-3.336.681v17.287h5.07v-13.816q.478-.067 1.09-.102a10.576 10.576 0 0 1 1.156-.068 2.64 2.64 0 0 1 2.417 1.02 6.84 6.84 0 0 1 .647 3.472v9.495h5.07v-10.107a13.796 13.796 0 0 0-.374-3.336 6.595 6.595 0 0 0-1.259-2.586m10.612 5.274a7.827 7.827 0 0 1 .306-1.259 3.659 3.659 0 0 1 .646-1.122 2.857 2.857 0 0 1 1.022-.75 3.248 3.248 0 0 1 1.464-.305 3.113 3.113 0 0 1 1.462.305 2.88 2.88 0 0 1 .987.783 2.797 2.797 0 0 1 .578 1.09 4.736 4.736 0 0 1 .239 1.258zm3.37-7.622a8.69 8.69 0 0 0-3.2.613 8.04 8.04 0 0 0-2.723 1.803 9.116 9.116 0 0 0-1.94 2.995 11.051 11.051 0 0 0-.713 4.152 12.02 12.02 0 0 0 .543 3.675 8.243 8.243 0 0 0 1.736 2.96 8.499 8.499 0 0 0 2.96 1.94 11.405 11.405 0 0 0 4.221.715 17.808 17.808 0 0 0 1.905-.103 18.321 18.321 0 0 0 1.77-.27 11.912 11.912 0 0 0 1.531-.343 6.86 6.86 0 0 0 1.089-.407l-.68-4.118a11.02 11.02 0 0 1-2.212.647 15.4 15.4 0 0 1-2.722.238 5.87 5.87 0 0 1-3.472-.92 3.367 3.367 0 0 1-1.463-2.484h11.502a44.3 44.3 0 0 0 .067-.918c.023-.363.036-.692.036-.987q0-4.526-2.213-6.839a7.873 7.873 0 0 0-6.023-2.349m21.541 14.361a10.599 10.599 0 0 1-1.668.137 2.453 2.453 0 0 1-2.28-.954 5.146 5.146 0 0 1-.544-2.552v-6.295h6.091v-4.22h-6.09v-5.275l-5.073.816v15.042a15.164 15.164 0 0 0 .307 3.165 6.138 6.138 0 0 0 1.157 2.45 5.616 5.616 0 0 0 2.178 1.566 9.345 9.345 0 0 0 3.437.544 11.955 11.955 0 0 0 2.757-.272 14.531 14.531 0 0 0 2.042-.646l-.715-3.949a9.584 9.584 0 0 1-1.6.443m9.388-6.739a7.827 7.827 0 0 1 .306-1.259 3.633 3.633 0 0 1 .646-1.122 2.835 2.835 0 0 1 1.022-.75 3.239 3.239 0 0 1 1.462-.305 3.106 3.106 0 0 1 1.463.305 2.856 2.856 0 0 1 .987.783 2.817 2.817 0 0 1 .58 1.09 4.737 4.737 0 0 1 .238 1.258zm3.368-7.622a8.683 8.683 0 0 0-3.198.613 8.044 8.044 0 0 0-2.724 1.803 9.134 9.134 0 0 0-1.939 2.995 11.026 11.026 0 0 0-.713 4.152 12.02 12.02 0 0 0 .542 3.675 8.262 8.262 0 0 0 1.736 2.96 8.51 8.51 0 0 0 2.96 1.94 11.405 11.405 0 0 0 4.22.715 17.79 17.79 0 0 0 1.906-.103 18.26 18.26 0 0 0 1.77-.27 11.934 11.934 0 0 0 1.532-.343 6.84 6.84 0 0 0 1.088-.407l-.68-4.118a10.994 10.994 0 0 1-2.212.647 15.379 15.379 0 0 1-2.722.238 5.876 5.876 0 0 1-3.472-.92 3.361 3.361 0 0 1-1.462-2.484h11.502c.022-.27.045-.578.067-.918q.035-.544.035-.987 0-4.526-2.212-6.839a7.878 7.878 0 0 0-6.024-2.349m23.718 9.971a5.758 5.758 0 0 0-1.701-1.294 19.233 19.233 0 0 0-2.755-1.224 27.66 27.66 0 0 1-1.362-.546 9.604 9.604 0 0 1-.818-.476 1.278 1.278 0 0 1-.408-.476 1.366 1.366 0 0 1-.102-.544q0-1.327 2.384-1.327a10.246 10.246 0 0 1 2.314.237 17.966 17.966 0 0 1 1.938.546l.886-3.949a13.726 13.726 0 0 0-2.383-.612 15.62 15.62 0 0 0-3.13-.306 8.143 8.143 0 0 0-5.14 1.463 4.782 4.782 0 0 0-1.871 3.982 5.87 5.87 0 0 0 .374 2.212 4.801 4.801 0 0 0 1.055 1.6 6.713 6.713 0 0 0 1.633 1.122q.989.477 2.179.92a13.267 13.267 0 0 1 2.28 1.053 1.257 1.257 0 0 1 .749 1.057 1.05 1.05 0 0 1-.578 1.053 5.062 5.062 0 0 1-1.975.273 13.655 13.655 0 0 1-2.688-.273 17.934 17.934 0 0 1-2.655-.816l-.85 4.119a16.077 16.077 0 0 0 2.177.68 16.408 16.408 0 0 0 3.982.408 9.83 9.83 0 0 0 5.615-1.36 4.539 4.539 0 0 0 2.007-4.016 6.52 6.52 0 0 0-.27-1.975 3.63 3.63 0 0 0-.887-1.531"/><path class="cls-4" d="M220.857 306.315H13.925V73.567h206.932zM51.9 45.707a8.427 8.427 0 0 1 4.642-4.941 9.388 9.388 0 0 1 3.819-.737 12.334 12.334 0 0 1 2.58.252 12.517 12.517 0 0 1 2.276.72l-1.037 3.987a12.612 12.612 0 0 0-1.542-.47 8.11 8.11 0 0 0-1.876-.201 3.954 3.954 0 0 0-3.3 1.374 5.657 5.657 0 0 0-1.088 3.619 5.862 5.862 0 0 0 1.021 3.685 4.284 4.284 0 0 0 3.568 1.306 12.181 12.181 0 0 0 1.943-.168 8.207 8.207 0 0 0 1.91-.535l.703 4.086a11.659 11.659 0 0 1-2.178.637 14.408 14.408 0 0 1-2.88.269 10.824 10.824 0 0 1-4.154-.721 7.837 7.837 0 0 1-2.866-1.96 7.646 7.646 0 0 1-1.641-2.932 12.413 12.413 0 0 1-.519-3.667 10.407 10.407 0 0 1 .62-3.603m16.014-.367a8.778 8.778 0 0 1 1.893-2.932 7.86 7.86 0 0 1 2.697-1.775 8.429 8.429 0 0 1 3.131-.604 7.787 7.787 0 0 1 5.931 2.295q2.177 2.295 2.179 6.75c0 .291-.012.609-.035.956-.022.347-.044.652-.067.92H72.322a3.311 3.311 0 0 0 1.44 2.446 5.79 5.79 0 0 0 3.418.905 14.533 14.533 0 0 0 2.697-.25 10.321 10.321 0 0 0 2.16-.621l.671 4.053a6.754 6.754 0 0 1-1.073.402 14.144 14.144 0 0 1-1.49.352c-.548.101-1.134.185-1.76.252a17.55 17.55 0 0 1-1.876.1 11.1 11.1 0 0 1-4.138-.704 8.04 8.04 0 0 1-2.914-1.926 7.657 7.657 0 0 1-1.71-2.898 11.46 11.46 0 0 1-.551-3.618 10.775 10.775 0 0 1 .72-4.103m19.682-3.904a29.921 29.921 0 0 1 3.167-.887 18.186 18.186 0 0 1 4.07-.42q.402 0 .97.051c.381.034.76.077 1.141.134q.569.083 1.14.2a5.366 5.366 0 0 1 .97.286l-.838 4.12a38.293 38.293 0 0 0-1.572-.352 9.783 9.783 0 0 0-1.944-.183 9.054 9.054 0 0 0-1.123.083 6.545 6.545 0 0 0-.989.184V58.12h-4.992zm13.971-5.327l4.992-.803v5.193h5.998v4.153h-5.998v6.198a4.923 4.923 0 0 0 .553 2.513 2.368 2.368 0 0 0 2.227.938 9.433 9.433 0 0 0 1.66-.151 8.462 8.462 0 0 0 1.558-.418l.702 3.886a14.018 14.018 0 0 1-2.01.636 11.748 11.748 0 0 1-2.714.268 8.926 8.926 0 0 1-3.383-.553 5.29 5.29 0 0 1-2.145-1.541 5.744 5.744 0 0 1-1.123-2.394 14.196 14.196 0 0 1-.317-3.117zm20.034 22.011h-4.992V40.499h4.992zm-4.607-24.874a3.175 3.175 0 0 1 4.187 0 3.07 3.07 0 0 1 0 4.32 3.178 3.178 0 0 1-4.187 0 3.07 3.07 0 0 1 0-4.32m9.297 6.314a7.524 7.524 0 0 1 1.926-5.428 7.56 7.56 0 0 1 5.713-2.01 9.663 9.663 0 0 1 2.328.235 11.292 11.292 0 0 1 1.558.503l-.872 3.92a4.717 4.717 0 0 0-1.19-.336 8.673 8.673 0 0 0-1.321-.1 4.063 4.063 0 0 0-1.525.251 2.358 2.358 0 0 0-.971.687 2.639 2.639 0 0 0-.505 1.038 5.439 5.439 0 0 0-.15 1.307v.872h6.164v4.153h-6.163V58.12h-4.992zm19.03 18.56h-4.992V40.499h4.992zm-4.608-24.874a3.176 3.176 0 0 1 4.188 0 3.074 3.074 0 0 1 0 4.32 3.18 3.18 0 0 1-4.188 0 3.074 3.074 0 0 1 0-4.32m8.67 12.094a8.816 8.816 0 0 1 1.892-2.932 7.877 7.877 0 0 1 2.698-1.775 8.437 8.437 0 0 1 3.133-.604 7.785 7.785 0 0 1 5.929 2.295q2.177 2.295 2.178 6.75c0 .291-.012.609-.034.956s-.044.652-.066.92H153.79a3.314 3.314 0 0 0 1.442 2.446 5.785 5.785 0 0 0 3.417.905 14.543 14.543 0 0 0 2.697-.25 10.359 10.359 0 0 0 2.162-.621l.668 4.053a6.685 6.685 0 0 1-1.072.402 14.067 14.067 0 0 1-1.49.352q-.822.151-1.76.252a17.592 17.592 0 0 1-1.876.1 11.093 11.093 0 0 1-4.137-.704 8.035 8.035 0 0 1-2.915-1.926 7.674 7.674 0 0 1-1.71-2.898 11.46 11.46 0 0 1-.551-3.618 10.775 10.775 0 0 1 .72-4.103m19.126.2a8.41 8.41 0 0 1 1.542-2.931 6.614 6.614 0 0 1 2.462-1.843 8.274 8.274 0 0 1 3.334-.636 7.83 7.83 0 0 1 1.86.201 10.016 10.016 0 0 1 1.657.569v-7.973l4.993-.805v25.43q-.671.198-1.543.384c-.58.123-1.19.228-1.825.318q-.956.134-1.944.218a22.58 22.58 0 0 1-1.892.084 11.07 11.07 0 0 1-3.885-.637 7.793 7.793 0 0 1-2.882-1.825 7.901 7.901 0 0 1-1.793-2.882 10.973 10.973 0 0 1-.62-3.803 13.034 13.034 0 0 1 .536-3.87m58.824 25.065v-19.72A34.936 34.936 0 0 0 192.5 16.05H43.106A34.936 34.936 0 0 0 8.272 50.884v261.1h219.096V70.604z"/><path class="cls-4" d="M160.173 46.294a3.106 3.106 0 0 0-.57-1.072 3.041 3.041 0 0 0-.972-.771 3.179 3.179 0 0 0-1.456-.3 3.35 3.35 0 0 0-1.44.284 2.966 2.966 0 0 0-1.007.754 3.375 3.375 0 0 0-.62 1.088 7.205 7.205 0 0 0-.318 1.257h6.6a5.216 5.216 0 0 0-.217-1.24m17.015 8.006c.447 0 .86-.015 1.24-.05q.57-.05.938-.117v-9.078a4.338 4.338 0 0 0-1.223-.503 5.877 5.877 0 0 0-1.524-.201q-3.552 0-3.552 4.824a6.121 6.121 0 0 0 1.038 3.719 3.586 3.586 0 0 0 3.083 1.407m-98.484-8.007a3.125 3.125 0 0 0-.57-1.072 3.075 3.075 0 0 0-.972-.771 3.175 3.175 0 0 0-1.456-.3 3.345 3.345 0 0 0-1.441.284 2.966 2.966 0 0 0-1.006.754 3.375 3.375 0 0 0-.62 1.088 7.204 7.204 0 0 0-.318 1.257h6.6a5.216 5.216 0 0 0-.217-1.24"/><path class="cls-3" d="M53.442 55.909a7.8 7.8 0 0 0 2.866 1.96 10.815 10.815 0 0 0 4.154.72 14.431 14.431 0 0 0 2.882-.268 11.74 11.74 0 0 0 2.177-.636l-.704-4.088a8.196 8.196 0 0 1-1.91.536 12.193 12.193 0 0 1-1.943.169 4.28 4.28 0 0 1-3.568-1.308 5.855 5.855 0 0 1-1.022-3.684 5.667 5.667 0 0 1 1.089-3.62 3.958 3.958 0 0 1 3.3-1.373 8.137 8.137 0 0 1 1.878.2 12.795 12.795 0 0 1 1.54.47L65.219 41a12.599 12.599 0 0 0-2.278-.72 12.321 12.321 0 0 0-2.581-.251 9.416 9.416 0 0 0-3.818.737 8.42 8.42 0 0 0-4.64 4.941 10.377 10.377 0 0 0-.62 3.603 12.413 12.413 0 0 0 .52 3.667 7.646 7.646 0 0 0 1.64 2.932m19.198-9.631a3.338 3.338 0 0 1 .619-1.09 2.97 2.97 0 0 1 1.006-.754 3.365 3.365 0 0 1 1.44-.285 3.175 3.175 0 0 1 1.457.302 3.058 3.058 0 0 1 .973.771 3.125 3.125 0 0 1 .569 1.072 5.204 5.204 0 0 1 .218 1.24h-6.6a7.093 7.093 0 0 1 .318-1.256m-3.182 9.682a8.052 8.052 0 0 0 2.914 1.925 11.095 11.095 0 0 0 4.138.705 17.939 17.939 0 0 0 1.876-.1q.935-.102 1.759-.252a13.99 13.99 0 0 0 1.49-.353 6.876 6.876 0 0 0 1.071-.4l-.67-4.055a10.144 10.144 0 0 1-2.16.62 14.523 14.523 0 0 1-2.697.25 5.795 5.795 0 0 1-3.417-.903 3.319 3.319 0 0 1-1.44-2.446h11.323c.024-.268.044-.574.067-.921.022-.347.034-.664.034-.955q0-4.456-2.177-6.751a7.788 7.788 0 0 0-5.93-2.295 8.436 8.436 0 0 0-3.133.604 7.859 7.859 0 0 0-2.697 1.775 8.802 8.802 0 0 0-1.893 2.93 10.77 10.77 0 0 0-.72 4.105 11.502 11.502 0 0 0 .553 3.618 7.64 7.64 0 0 0 1.709 2.899M92.59 44.652a6.714 6.714 0 0 1 .99-.184 9.067 9.067 0 0 1 1.122-.084 9.781 9.781 0 0 1 1.944.184q.901.184 1.572.353l.839-4.122a5.477 5.477 0 0 0-.972-.285q-.57-.116-1.139-.2c-.38-.055-.76-.1-1.14-.135q-.569-.048-.971-.05a18.285 18.285 0 0 0-4.071.419 29.954 29.954 0 0 0-3.166.889V58.12h4.992zm10.42 11.776a5.3 5.3 0 0 0 2.144 1.542 8.946 8.946 0 0 0 3.382.552 11.69 11.69 0 0 0 2.715-.268 14.071 14.071 0 0 0 2.01-.636l-.703-3.887a8.507 8.507 0 0 1-1.558.42 9.532 9.532 0 0 1-1.659.15 2.37 2.37 0 0 1-2.226-.937 4.93 4.93 0 0 1-.554-2.513v-6.198h5.997v-4.155h-5.997v-5.193l-4.992.805v14.807a14.179 14.179 0 0 0 .318 3.116 5.742 5.742 0 0 0 1.123 2.395"/></g><path class="cls-3" d="M116.611 40.499h4.992V58.12h-4.992z"/><g class="cls-2"><path class="cls-3" d="M119.09 38.354a3.058 3.058 0 0 0 2.095-.787 3.075 3.075 0 0 0 0-4.322 3.18 3.18 0 0 0-4.189 0 3.072 3.072 0 0 0 0 4.322 3.05 3.05 0 0 0 2.094.787m12.195 6.298h6.163V40.5h-6.163v-.872a5.438 5.438 0 0 1 .15-1.307 2.654 2.654 0 0 1 .502-1.038 2.35 2.35 0 0 1 .972-.686 4.07 4.07 0 0 1 1.524-.253 8.667 8.667 0 0 1 1.324.102 4.771 4.771 0 0 1 1.19.334l.87-3.919a11.046 11.046 0 0 0-1.557-.503 9.737 9.737 0 0 0-2.328-.235 7.552 7.552 0 0 0-5.713 2.011 7.518 7.518 0 0 0-1.926 5.427v18.56h4.992zm11.525-6.298a3.053 3.053 0 0 0 2.093-.787 3.072 3.072 0 0 0 0-4.322 3.178 3.178 0 0 0-4.187 0 3.072 3.072 0 0 0 0 4.322 3.05 3.05 0 0 0 2.094.787"/></g><path class="cls-3" d="M140.331 40.499h4.992V58.12h-4.992z"/><g class="cls-2"><path class="cls-3" d="M154.109 46.278a3.337 3.337 0 0 1 .62-1.09 2.969 2.969 0 0 1 1.005-.754 3.367 3.367 0 0 1 1.44-.285 3.177 3.177 0 0 1 1.457.302 3.025 3.025 0 0 1 .972.771 3.106 3.106 0 0 1 .57 1.072 5.205 5.205 0 0 1 .218 1.24h-6.6a7.093 7.093 0 0 1 .318-1.256m-3.182 9.682a8.063 8.063 0 0 0 2.914 1.925 11.095 11.095 0 0 0 4.138.705 17.957 17.957 0 0 0 1.877-.1q.934-.102 1.758-.252a13.99 13.99 0 0 0 1.49-.353 6.927 6.927 0 0 0 1.071-.4l-.669-4.055a10.144 10.144 0 0 1-2.16.62 14.533 14.533 0 0 1-2.698.25 5.795 5.795 0 0 1-3.417-.903 3.319 3.319 0 0 1-1.44-2.446h11.323c.024-.268.044-.574.067-.921.022-.347.034-.664.034-.955q0-4.456-2.177-6.751a7.788 7.788 0 0 0-5.93-2.295 8.448 8.448 0 0 0-3.135.604 7.866 7.866 0 0 0-2.695 1.775 8.803 8.803 0 0 0-1.893 2.93 10.77 10.77 0 0 0-.72 4.105 11.502 11.502 0 0 0 .553 3.618 7.64 7.64 0 0 0 1.709 2.899m25.692-11.609a5.893 5.893 0 0 1 1.525.2 4.339 4.339 0 0 1 1.222.503v9.079a10.43 10.43 0 0 1-.939.118q-.568.05-1.24.05a3.587 3.587 0 0 1-3.08-1.407 6.113 6.113 0 0 1-1.039-3.719q0-4.825 3.551-4.824m-6.231 11.742a7.792 7.792 0 0 0 2.88 1.825 11.055 11.055 0 0 0 3.888.638q.903 0 1.892-.084.989-.083 1.944-.218.954-.134 1.825-.319c.58-.121 1.093-.25 1.541-.384V32.123l-4.991.804v7.972a10.103 10.103 0 0 0-1.66-.568 7.842 7.842 0 0 0-1.86-.202 8.266 8.266 0 0 0-3.334.638 6.613 6.613 0 0 0-2.46 1.842 8.408 8.408 0 0 0-1.54 2.93 13.037 13.037 0 0 0-.538 3.871 10.996 10.996 0 0 0 .62 3.802 7.942 7.942 0 0 0 1.793 2.881"/></g></svg>