<svg viewBox="0 0 393.28786 404.20971" xmlns="http://www.w3.org/2000/svg"><g fill="#FFFFFF"><path d="m253.152 318.61c-8.95 10.905-23.093 21.229-44.028 32.677 2.31-7.395 4.727-14.154 6.852-20.805 3.227-10.15 5.787-20.125 5.787-31.345a79.98 79.98 0 0 0 -2.842-20.685 329.278 329.278 0 0 0 46.44-35.383 221.886 221.886 0 0 1 2.352 29.493c-.065 19.642-4.124 33.263-14.561 46.048m-45.125-46.472q-6.341 3.822-12.905 7.39c-20.272-20.267-64.788-64.783-85.055-85.05q3.928-7.278 8.183-14.241a5.038 5.038 0 0 0 .337-.544c57.22-93.34 156.396-145.394 243.989-152.68-7.248 87.196-58.866 185.868-151.409 243.202a5.95 5.95 0 0 0 -.51.135 5.497 5.497 0 0 0 -2.63 1.788m-117.808-104.54c-11.215 0-21.19 2.56-31.346 5.787-6.645 2.125-13.41 4.542-20.8 6.857 11.449-20.94 21.767-35.09 32.678-44.033 12.784-10.443 26.4-14.496 46.048-14.561a223.521 223.521 0 0 1 29.884 2.407 328.775 328.775 0 0 0 -35.442 46.467 79.954 79.954 0 0 0 -21.022-2.924m283.903-146.252a5.56 5.56 0 0 0 -5.874-5.873c-71.976 4.298-151.69 37.719-212.187 98.731-14.811-2.288-27.694-3.668-39.262-3.673-21.141-.065-38.284 4.814-53.112 17.099-14.828 12.247-27.303 31.15-41.539 59.002a5.554 5.554 0 0 0 4.956 8.08 5.628 5.628 0 0 0 1.369-.175c13.23-3.385 24.01-7.454 33.78-10.562 9.78-3.119 18.468-5.27 27.966-5.27a67.003 67.003 0 0 1 14.99 1.765 315.756 315.756 0 0 0 -6.895 12.443 5.547 5.547 0 0 0 .99 6.51c19.473 19.473 71.395 71.395 90.863 90.868a5.56 5.56 0 0 0 6.51.99q6.259-3.285 12.284-6.804a66.866 66.866 0 0 1 1.696 14.66c0 9.498-2.152 18.186-5.27 27.971-3.109 9.77-7.178 20.55-10.564 33.775a5.56 5.56 0 0 0 7.906 6.33c27.852-14.236 46.755-26.717 58.997-41.545 12.285-14.822 17.164-31.97 17.099-53.106-.006-11.46-1.364-24.222-3.603-38.86 61.11-60.513 94.597-140.319 98.9-212.356"/><path d="m244.607 107.417a26.563 26.563 0 1 1 -7.786 18.74 26.456 26.456 0 0 1 7.786-18.74m18.778 56.464h.033a37.567 37.567 0 0 0 26.618-11.035l-3.928-3.928 3.928 3.928a37.687 37.687 0 1 0 -26.651 11.035m-125.045 19.686a5.565 5.565 0 1 0 3.928 1.63 5.58 5.58 0 0 0 -3.928-1.63m15.532 15.53a5.556 5.556 0 1 0 3.928 1.624 5.607 5.607 0 0 0 -3.928-1.624m31.066 31.066a5.556 5.556 0 1 0 3.928 1.625 5.607 5.607 0 0 0 -3.928-1.625m15.534 15.537a5.556 5.556 0 1 0 3.928 1.625 5.598 5.598 0 0 0 -3.928-1.625m-31.066-31.07a5.565 5.565 0 1 0 3.928 1.63 5.58 5.58 0 0 0 -3.928-1.63m-127.229 101.05 76.862-76.867a5.556 5.556 0 0 0 -7.857-7.857l-76.862 76.867a5.556 5.556 0 0 0 7.857 7.857m96.66-64.928a5.559 5.559 0 0 0 -7.857 0l-117.444 117.445a5.557 5.557 0 1 0 7.862 7.856l117.44-117.444a5.549 5.549 0 0 0 0-7.856m11.942 19.801-31.835 31.834a5.556 5.556 0 0 0 7.857 7.857l31.835-31.835a5.556 5.556 0 1 0 -7.857-7.856"/></g></svg>