<svg xmlns="http://www.w3.org/2000/svg" width="400" height="245"><path fill="none" pointer-events="none" d="M0 0h400v245H0z"/><path fill="#282F37" d="M30.71 206.8c-1.8 0-3.399.398-4.801 1.195-1.4.797-2.5 1.918-3.295 3.373-.797 1.45-1.192 3.131-1.192 5.031 0 1.904.388 3.581 1.167 5.033.778 1.454 1.851 2.587 3.217 3.4 1.368.814 2.933 1.218 4.698 1.218 1.763 0 3.354-.294 4.774-.881 1.418-.59 2.592-1.437 3.528-2.543l2.75 2.801c-1.244 1.558-2.83 2.751-4.75 3.581-1.918.831-4.09 1.245-6.512 1.245-2.663 0-5.034-.586-7.109-1.764a12.458 12.458 0 0 1-4.85-4.904c-1.161-2.093-1.74-4.489-1.74-7.187 0-2.697.579-5.102 1.74-7.212 1.158-2.11 2.775-3.755 4.85-4.932 2.076-1.175 4.448-1.764 7.11-1.764 2.316 0 4.402.356 6.253 1.065 1.85.709 3.4 1.738 4.646 3.088l-2.648 3.322c-2.178-2.11-4.792-3.165-7.837-3.165m24.468 1.142c-1.4.829-2.49 1.98-3.269 3.452-.778 1.468-1.167 3.14-1.167 5.007 0 1.902.389 3.598 1.167 5.085.78 1.489 1.868 2.638 3.27 3.451s3.001 1.22 4.8 1.22c1.764 0 3.346-.407 4.75-1.22 1.398-.812 2.49-1.962 3.267-3.45.779-1.489 1.167-3.185 1.167-5.086 0-1.867-.388-3.539-1.167-5.007-.779-1.472-1.869-2.623-3.268-3.452-1.403-.83-2.985-1.246-4.749-1.246-1.799 0-3.4.417-4.8 1.246m12.09-3.686a12.707 12.707 0 0 1 4.982 4.905c1.193 2.093 1.79 4.489 1.79 7.188 0 2.698-.597 5.102-1.79 7.212a12.647 12.647 0 0 1-4.982 4.931c-2.128 1.176-4.558 1.765-7.29 1.765-2.767 0-5.216-.588-7.345-1.765a12.682 12.682 0 0 1-4.98-4.903c-1.192-2.094-1.79-4.505-1.79-7.24 0-2.698.598-5.094 1.79-7.186 1.192-2.09 2.855-3.729 4.98-4.906 2.13-1.173 4.578-1.763 7.345-1.763 2.734-.001 5.163.588 7.29 1.762m37.649 1.066c1.833 1.886 2.749 4.489 2.749 7.811V230.1h-4.825v-15.67c0-2.316-.648-4.125-1.945-5.422-1.298-1.3-3.089-1.947-5.372-1.947-2.456.033-4.454.82-5.993 2.361-1.541 1.54-2.413 3.536-2.621 5.993V230.1h-4.826v-27.45h4.826v5.81c1.832-3.909 5.31-5.896 10.43-5.967 3.217 0 5.742.944 7.577 2.829m27.399 22.962c-2.11 1.35-4.255 2.024-6.435 2.024-2.18 0-3.944-.648-5.292-1.947-1.352-1.298-2.025-3.26-2.025-5.89v-15.204h-3.891v-3.686h3.891v-7.367h4.879v7.367h8.405v3.686h-8.405v14.323c0 1.521.275 2.611.828 3.268.554.66 1.384.985 2.491.985 1.316 0 2.732-.43 4.256-1.295l1.298 3.736zm21.044-3.607c1.572-1.088 2.514-2.532 2.828-4.333v-2.75h-8.045c-2.178 0-3.796.331-4.852.987-1.056.657-1.583 1.694-1.583 3.113 0 1.418.536 2.543 1.61 3.372 1.07.83 2.506 1.247 4.306 1.247 2.249 0 4.16-.547 5.735-1.636zm2.879 5.422v-3.84c-2.041 2.699-5.241 4.05-9.6 4.05-1.903 0-3.574-.364-5.008-1.09-1.436-.727-2.543-1.728-3.321-3.01-.779-1.278-1.167-2.716-1.167-4.308 0-2.454.908-4.402 2.723-5.836 1.819-1.436 4.35-2.171 7.603-2.207h8.72v-1.297c0-1.938-.599-3.434-1.793-4.488-1.193-1.056-2.933-1.584-5.213-1.584-2.77 0-5.59.986-8.461 2.959l-2.025-3.32c1.973-1.282 3.797-2.205 5.477-2.778 1.677-.571 3.674-.855 5.994-.855 3.424 0 6.07.84 7.939 2.519 1.87 1.675 2.82 4.019 2.856 7.03l.05 18.057h-4.774zm14.684.001h4.826v-27.451h-4.826v27.45zm4.54-37.52c.573.59.857 1.334.857 2.232 0 .9-.284 1.644-.856 2.232-.572.589-1.29.882-2.154.882-.865 0-1.581-.293-2.154-.882-.57-.588-.856-1.331-.856-2.232 0-.898.286-1.642.856-2.231.573-.588 1.288-.882 2.154-.882.865.001 1.582.294 2.154.882zm33.81 12.742c1.833 1.886 2.75 4.489 2.75 7.811V230.1h-4.826v-15.67c0-2.316-.648-4.125-1.946-5.422-1.299-1.3-3.088-1.947-5.371-1.947-2.458.033-4.455.82-5.993 2.361-1.542 1.54-2.414 3.536-2.62 5.993V230.1h-4.828v-27.45h4.827v5.81c1.832-3.909 5.31-5.896 10.43-5.967 3.218 0 5.743.944 7.577 2.829m32.225 9.212c-.138-2.493-.969-4.456-2.491-5.892-1.524-1.436-3.528-2.154-6.02-2.154-2.421 0-4.437.727-6.045 2.18s-2.57 3.407-2.881 5.864h17.437zm1.09-8.278c2.18 2.507 3.27 5.993 3.27 10.456 0 .692-.017 1.213-.053 1.557h-21.691c.382 2.456 1.41 4.41 3.087 5.864 1.68 1.453 3.747 2.18 6.204 2.18 1.624 0 3.14-.296 4.54-.883a10.95 10.95 0 0 0 3.659-2.493l2.645 2.75c-1.349 1.452-2.976 2.58-4.878 3.374-1.903.797-4.014 1.192-6.33 1.192-2.7 0-5.094-.579-7.188-1.737a12.217 12.217 0 0 1-4.878-4.904c-1.16-2.11-1.738-4.516-1.738-7.214 0-2.697.578-5.092 1.738-7.187a12.656 12.656 0 0 1 4.854-4.93c2.075-1.194 4.444-1.79 7.108-1.79 4.253.002 7.471 1.257 9.652 3.765zm19.823-2.179c1.66-1.02 3.63-1.548 5.915-1.583v4.672c-2.801-.106-5.068.62-6.797 2.178s-2.716 3.65-2.96 6.28v14.479h-4.824V202.65h4.825v5.915c.9-1.973 2.18-3.468 3.841-4.488"/><path fill="#00F4CB" d="M289.992 207.061c-1.367-.416-2.672-.623-3.918-.623-1.455 0-2.621.268-3.504.804-.882.537-1.323 1.357-1.323 2.466 0 1.107.494 1.946 1.48 2.516.985.57 2.483 1.15 4.488 1.737 1.904.554 3.458 1.108 4.671 1.662a8.283 8.283 0 0 1 3.088 2.44c.849 1.073 1.27 2.49 1.27 4.256 0 2.59-.978 4.564-2.931 5.913-1.955 1.349-4.385 2.024-7.29 2.024-2.043 0-4.023-.326-5.943-.987-1.92-.656-3.537-1.587-4.852-2.8l1.817-3.528c1.14 1.038 2.55 1.867 4.228 2.492 1.678.62 3.315.932 4.905.932 1.59 0 2.87-.294 3.839-.882.969-.588 1.453-1.488 1.453-2.698 0-1.246-.512-2.178-1.531-2.802-1.02-.622-2.569-1.247-4.646-1.867-1.833-.519-3.33-1.048-4.486-1.583a7.92 7.92 0 0 1-2.959-2.363c-.812-1.036-1.218-2.387-1.218-4.047 0-2.56.933-4.48 2.801-5.761 1.868-1.278 4.202-1.919 7.006-1.919 1.661 0 3.296.234 4.903.7 1.61.468 3.002 1.099 4.179 1.895l-1.766 3.685a16.261 16.261 0 0 0-3.761-1.662m37.078-1.739c1.834 1.886 2.75 4.489 2.75 7.811V230.1h-4.827v-15.67c0-2.316-.65-4.125-1.946-5.422-1.299-1.3-3.088-1.947-5.37-1.947-2.665.033-4.775.934-6.332 2.697-1.556 1.766-2.334 4.048-2.334 6.852v13.49h-4.828v-38.504h4.828v16.969c1.833-3.977 5.325-6 10.48-6.072 3.22 0 5.745.944 7.58 2.829m12.661 24.778h4.825v-27.451h-4.825v27.45zm4.54-37.52c.572.59.856 1.334.856 2.232 0 .9-.286 1.644-.856 2.232-.572.589-1.291.882-2.153.882-.866 0-1.583-.293-2.153-.882-.572-.588-.858-1.331-.858-2.232 0-.898.288-1.642.858-2.231.57-.588 1.287-.882 2.153-.882.862.001 1.58.294 2.153.882zm30.045 32.228c1.4-.83 2.49-1.99 3.27-3.476.778-1.488 1.169-3.168 1.169-5.035 0-1.833-.399-3.494-1.194-4.98-.797-1.488-1.888-2.648-3.27-3.476-1.385-.832-2.958-1.247-4.723-1.247-1.764 0-3.347.415-4.747 1.247-1.4.828-2.5 1.989-3.294 3.476-.798 1.487-1.194 3.147-1.194 4.98 0 1.903.396 3.591 1.194 5.058.794 1.473 1.893 2.625 3.294 3.454 1.4.83 2.984 1.245 4.747 1.245 1.765-.001 3.347-.415 4.748-1.246m3.035-20.55c2.005 1.175 3.562 2.82 4.67 4.93 1.107 2.11 1.66 4.53 1.66 7.265 0 2.697-.543 5.093-1.633 7.185-1.088 2.094-2.63 3.722-4.619 4.88-1.99 1.16-4.263 1.738-6.823 1.738-2.32 0-4.359-.484-6.124-1.452-1.764-.97-3.148-2.353-4.15-4.152v15.518h-4.828v-37.52h4.828v5.447c1-1.8 2.377-3.18 4.125-4.151 1.747-.969 3.76-1.453 6.044-1.453 2.561-.001 4.843.588 6.85 1.763M244.121 58.145c-.28-.518-.65-1.03-1.421-1.42l-11.003-6.352a1.953 1.953 0 0 0-.484-.198c-.058-.015-.114-.015-.172-.022-.112-.02-.224-.041-.34-.04l-.022-.001v.005c-.32.008-.64.088-.928.255l-24.753 14.292-.023-.04-2 1.153a7.775 7.775 0 0 1-7.781 0l-10.82-6.245c-1.296-.751-1.296-2.623 0-3.371l10.82-6.245a7.775 7.775 0 0 1 7.782 0l2.606 1.506a1.956 1.956 0 0 0 1.947 0l10.074-5.82c1.298-.749 1.298-2.62 0-3.37l-14.627-8.447a7.791 7.791 0 0 0-7.782 0L159.36 54.477c-2.596 1.498-2.596 5.242 0 6.739l35.833 20.691a7.786 7.786 0 0 0 7.781 0L230.68 65.91v36.437l-8.904 5.156-18.8 10.887a7.914 7.914 0 0 1-1.894.781 7.779 7.779 0 0 1-5.888-.782l-25.759-14.873a3.887 3.887 0 0 1-1.945-3.368v-21.24c0-.694-.37-1.338-.973-1.684l-10.076-5.82c-1.296-.747-2.917.188-2.917 1.686v35.121c0 1.392.741 2.675 1.946 3.372l39.724 22.936a7.766 7.766 0 0 0 3.838 1.036v.002h.027c.19 0 .377-.02.569-.033.147-.012.296-.012.44-.027.204-.026.399-.073.596-.117.134-.026.273-.041.405-.08.213-.055.421-.135.63-.21.114-.04.232-.068.343-.113.32-.13.63-.283.933-.457l34.267-19.789 5.435-3.082a3.893 3.893 0 0 0 1.97-3.385V60.093a3.87 3.87 0 0 0-.525-1.948"/><path fill="#282F37" d="M202.974 21.982a7.748 7.748 0 0 0-3.8-1.037 7.775 7.775 0 0 0-3.805 1.037l-48.004 27.716a7.775 7.775 0 0 0-3.89 6.738v55.432a7.776 7.776 0 0 0 3.89 6.738l48.004 27.717a7.82 7.82 0 0 0 3.86 1.041 7.826 7.826 0 0 0 3.859-1.041l47.791-27.593a7.777 7.777 0 0 0 3.89-6.736v-16.02c0-.694.37-1.336.974-1.685l10.175-5.874c1.297-.747 2.918.186 2.918 1.685v29.834a7.76 7.76 0 0 1-.922 3.643c-.147.737-.948 1.607-2.081 2.492-.026.022-.055.04-.084.067-2.873 2.231-7.63 4.543-8.47 5.029l-54.192 31.287a7.796 7.796 0 0 1-3.994 1.036v.002l-.022-.002-.04.002v-.005a7.768 7.768 0 0 1-3.663-1.033l-61.972-35.78a7.786 7.786 0 0 1-3.89-6.738V48.373c0-1.25.156-2.522.706-3.6.076-.279.826-1.654 2.372-2.784.584-.392 1.615-.923 2.583-1.48l60.025-34.655a7.787 7.787 0 0 1 3.98-1.036 7.767 7.767 0 0 1 3.977 1.036l55.387 31.977c.128.076.226.17.333.257l.703.4c1.885 1 4.835 2.521 6.43 3.738l.137.097c.017.015.043.032.06.047.059.046.1.093.152.143a6.922 6.922 0 0 1 1.475 1.715c.008.008.02.02.026.029l-.005.002a6.98 6.98 0 0 1 .989 3.576v26.203c0 .695-.37 1.337-.973 1.685L257.687 81.6c-1.298.747-2.918-.188-2.918-1.687V56.284a7.787 7.787 0 0 0-3.9-6.745l-47.895-27.557z"/></svg>