<svg viewBox="0 0 500 409.5" xmlns="http://www.w3.org/2000/svg" xmlns:xlink="http://www.w3.org/1999/xlink"><linearGradient id="a" gradientTransform="matrix(.70710678 -.70710678 .70710678 .70710678 1569.059687 3756.545177)" gradientUnits="userSpaceOnUse" x1="1529.228" x2="1727.24" y1="-3532.645" y2="-3532.645"><stop offset="0" stop-color="#623392"/><stop offset=".589" stop-color="#432c7d"/><stop offset="1" stop-color="#2b266d"/></linearGradient><linearGradient id="b" x1="1529.228" x2="1727.24" xlink:href="#a" y1="-3505.752" y2="-3505.752"/><linearGradient id="c" gradientTransform="matrix(.70710678 -.70710678 .70710678 .70710678 1569.059687 3756.545177)" gradientUnits="userSpaceOnUse" x1="1529.228" x2="1727.24" y1="-3543.346" y2="-3543.346"><stop offset="0" stop-color="#754f9f"/><stop offset=".205" stop-color="#6d4b9a"/><stop offset=".517" stop-color="#583f8b"/><stop offset=".896" stop-color="#362c74"/><stop offset="1" stop-color="#2b266d"/></linearGradient><linearGradient id="d" x1="1529.227" x2="1727.239" xlink:href="#c" y1="-3449.26" y2="-3449.26"/><linearGradient id="e" x1="1529.228" x2="1727.24" xlink:href="#a" y1="-3495.928" y2="-3495.928"/><linearGradient id="f" x1="1510.455" x2="1748.26" xlink:href="#c" y1="-3495.928" y2="-3495.928"/><linearGradient id="g" x1="1510.455" x2="1748.26" xlink:href="#a" y1="-3471.611" y2="-3471.611"/><linearGradient id="h" x1="1510.455" x2="1748.26" xlink:href="#a" y1="-3485.198" y2="-3485.198"/><linearGradient id="i" x1="1510.455" x2="1748.26" xlink:href="#a" y1="-3519.588" y2="-3519.588"/><path d="m59.194 304.317c12.15 0 21.205 4.052 28.947 11.078a1.517 1.517 0 0 1 .12 2.147l-1.908 2.023c-.713.715-1.31.597-2.023-.118a37.393 37.393 0 1 0 -25.136 65.28c10.244 0 17.989-4.05 25.136-10.007a1.496 1.496 0 0 1 1.905-.239l2.026 2.026a1.371 1.371 0 0 1 0 2.026 41.176 41.176 0 0 1 -29.067 11.555 42.886 42.886 0 1 1 0-85.771zm63.856 35.737c13.342 0 23.943 11.317 23.943 24.898 0 13.938-10.6 25.136-23.943 25.136-13.461 0-23.944-11.198-23.944-25.136 0-13.58 10.483-24.898 23.944-24.898zm0 45.15c10.483 0 18.702-8.935 18.702-20.252 0-10.96-8.22-19.894-18.702-19.894-10.602 0-18.82 8.934-18.82 19.894 0 11.317 8.218 20.251 18.82 20.251zm38.48-42.408a1.575 1.575 0 0 1 1.55-1.55h1.428a1.42 1.42 0 0 1 1.428 1.311l.477 4.883a18.284 18.284 0 0 1 14.892-7.386 19.686 19.686 0 0 1 7.385 1.431c1.072.357 1.667 1.19 1.31 2.144l-.953 2.383c-.357.833-1.072.951-1.906.595a15.149 15.149 0 0 0 -6.193-1.429c-9.293 0-13.82 7.504-14.176 8.219v33.95a1.385 1.385 0 0 1 -1.548 1.549h-2.383a1.386 1.386 0 0 1 -1.31-1.549zm58.254-2.742c12.506 0 21.561 9.173 21.561 21.8 0 1.906 0 4.647-1.787 4.647h-38.002c.477 10.245 7.862 18.82 18.584 18.82a25.424 25.424 0 0 0 14.056-4.405c1.072-.716 1.548-.836 2.146 0l1.19 1.666c.356.477.238 1.193-.477 1.906-2.382 2.382-9.886 5.6-17.271 5.6-14.533 0-23.467-11.198-23.467-25.136 0-13.58 8.934-24.898 23.467-24.898zm16.32 22.157c0-9.291-5.601-17.392-16.32-17.392-10.484 0-17.513 7.624-18.108 17.392z" fill="#434343"/><path d="m257.072 307.058a1.56 1.56 0 0 1 1.429-1.549h25.256a41.694 41.694 0 1 1 0 83.387h-25.256a1.56 1.56 0 0 1 -1.429-1.549zm25.732 76.717c20.846 0 36.927-15.846 36.927-36.692 0-20.607-16.081-36.452-36.927-36.452h-20.134v73.144zm62.186-77.909a1.639 1.639 0 0 1 1.787-1.549h2.026l57.179 74.452h.118v-71.71a1.578 1.578 0 0 1 1.549-1.55h2.382a1.576 1.576 0 0 1 1.549 1.55v81.48c0 1.072-.952 1.55-1.906 1.55h-1.549c-.118 0-1.071-.36-57.655-75.168h-.12v72.426a1.576 1.576 0 0 1 -1.547 1.549h-2.264a1.578 1.578 0 0 1 -1.549-1.549zm86.848 71.952 1.072-1.431c.834-.952 1.667-1.31 2.621-.475 1.192 1.072 10.006 9.173 22.038 9.173 10.84 0 20.013-7.267 20.013-15.963 0-10.604-8.696-15.369-23.11-20.251-13.817-4.885-22.99-9.768-22.99-23.47 0-8.934 7.147-21.084 25.73-21.084a39.117 39.117 0 0 1 20.488 6.075 1.71 1.71 0 0 1 .477 2.503 10.965 10.965 0 0 0 -.952 1.549c-.715.951-1.43 1.31-2.62.595-.36-.239-8.34-5.598-17.513-5.598-14.652 0-20.133 9.052-20.133 15.843 0 10.126 7.745 14.532 19.777 18.463 16.32 5.6 26.683 11.317 26.683 25.136 0 11.912-12.269 21.205-25.97 21.205a38.791 38.791 0 0 1 -25.254-9.77c-.713-.595-1.31-1.19-.357-2.5z" fill="#999"/><path d="m190.962 137.879a26.607 26.607 0 0 0 -4.756 6.455 26.607 26.607 0 0 1 4.756-6.455z" fill="url(#a)"/><path d="m271.362 80.979a14.198 14.198 0 0 1 10.076 4.164l8.262 8.262-8.262-8.262a14.198 14.198 0 0 0 -10.076-4.164z" fill="url(#b)"/><path d="m190.925 90.923a23.468 23.468 0 0 1 33.189 0l6.902 6.901 21.472-21.472a26.721 26.721 0 0 1 37.746-.004l8.262 8.261 20.657-20.657-44.986-44.985a33.421 33.421 0 0 0 -47.126 0l-92.89 92.89a33.427 33.427 0 0 0 -4.927 40.766l.289-.288z" fill="url(#c)"/><path d="m312.193 171.755a23.473 23.473 0 0 1 -33.195-.002l-8.18-8.18-27.08 27.081a26.721 26.721 0 0 1 -37.747.001l-6.978-6.978-20.084 20.084 41.361 41.36a33.42 33.42 0 0 0 47.126 0l92.89-92.89a33.434 33.434 0 0 0 7.352-35.94l-3.015 3.014z" fill="url(#d)"/><path d="m234.941 181.858a14.173 14.173 0 0 1 -4.712 3.125 14.286 14.286 0 0 1 -15.442-3.124l-6.978-6.978-8.054-8.054a14.252 14.252 0 0 1 .003-20.152l40.054-40.054 21.472-21.472a14.178 14.178 0 0 1 7.355-3.91 14.39 14.39 0 0 1 2.723-.26 14.198 14.198 0 0 1 10.076 4.164l8.262 8.262 8.796-8.796-8.262-8.261a26.721 26.721 0 0 0 -37.746.004l-21.472 21.472-40.054 40.055a26.607 26.607 0 0 0 -4.756 6.455q-.61 1.162-1.098 2.37a26.673 26.673 0 0 0 5.85 28.919l8.055 8.054 6.978 6.978a26.721 26.721 0 0 0 37.746 0l27.081-27.082-8.796-8.796z" fill="#fff"/><path d="m364.643 119.305 3.015-3.014a32.974 32.974 0 0 0 -4.456-7.819c.64 3.592 1.133 7.206 1.441 10.833z" fill="#2b266d"/><path d="m129.513 152.335-.289.288c.187.31.353.629.55.934-.083-.408-.18-.814-.261-1.222z" fill="#5a2d81"/><path d="m261.771 121.334 27.929-27.929-8.262-8.262a14.198 14.198 0 0 0 -10.076-4.164 14.39 14.39 0 0 0 -2.723.26 14.178 14.178 0 0 0 -7.355 3.91l-21.472 21.472 1.534 1.534a23.47 23.47 0 0 1 0 33.19l-33.536 33.535 6.978 6.978a14.253 14.253 0 0 0 20.154-.001l27.081-27.08-.253-.253a23.471 23.471 0 0 1 .002-33.191z" fill="url(#e)"/><path d="m261.771 121.334 27.929-27.929-8.262-8.262a14.198 14.198 0 0 0 -10.076-4.164 14.39 14.39 0 0 0 -2.723.26 14.178 14.178 0 0 0 -7.355 3.91l-21.472 21.472 1.534 1.534a23.47 23.47 0 0 1 0 33.19l-33.536 33.535 6.978 6.978a14.253 14.253 0 0 0 20.154-.001l27.081-27.08-.253-.253a23.471 23.471 0 0 1 .002-33.191z" fill="url(#f)"/><path d="m234.941 181.858a14.178 14.178 0 0 1 -4.712 3.125 14.173 14.173 0 0 0 4.712-3.125z" fill="#fff"/><path d="m234.941 181.858a14.178 14.178 0 0 1 -4.712 3.125 14.173 14.173 0 0 0 4.712-3.125z" fill="url(#g)"/><path d="m207.809 174.881 6.978 6.978a14.206 14.206 0 0 0 10.077 4.167 14.206 14.206 0 0 1 -10.077-4.167z" fill="#fff"/><path d="m207.809 174.881 6.978 6.978a14.206 14.206 0 0 0 10.077 4.167 14.206 14.206 0 0 1 -10.077-4.167z" fill="url(#h)"/><path d="m261.284 85.149a14.178 14.178 0 0 1 7.355-3.91 14.178 14.178 0 0 0 -7.355 3.91z" fill="#fff"/><path d="m261.284 85.149a14.178 14.178 0 0 1 7.355-3.91 14.178 14.178 0 0 0 -7.355 3.91z" fill="url(#i)"/><path d="m134.151 158.983a33.105 33.105 0 0 1 -4.376-5.426c-.198-.305-.364-.624-.55-.934l-8.837 8.836a23.466 23.466 0 0 0 0 33.19l17.232 17.232a23.483 23.483 0 0 0 33.19 0l5.497-5.498 1.965-1.964.657-.658z" fill="#2b266d"/><g fill="#5a2d81"><path d="m190.959 175.623a26.673 26.673 0 0 1 -5.852-28.92q.49-1.205 1.098-2.369a26.607 26.607 0 0 1 4.757-6.455l40.054-40.055-6.902-6.901a23.468 23.468 0 0 0 -33.19 0l-61.411 61.412c.08.408.178.814.262 1.222a33.108 33.108 0 0 0 4.376 5.426l44.778 44.778 20.084-20.084z"/><path d="m185.107 146.703a26.82 26.82 0 0 0 1.097 22.464 26.82 26.82 0 0 1 -1.097-22.464zm22.702 28.178 33.537-33.537a23.47 23.47 0 0 0 0-33.189l-1.534-1.534-40.054 40.054a14.266 14.266 0 0 0 -.003 20.152z"/><path d="m199.755 166.827a14.202 14.202 0 0 1 -4.166-10.075 14.202 14.202 0 0 0 4.166 10.075l8.054 8.054zm.003-20.152a14.176 14.176 0 0 0 -3.126 4.711 14.18 14.18 0 0 1 3.126-4.711z"/></g><path d="m289.7 93.405-27.929 27.929a23.471 23.471 0 0 0 -.002 33.19l.253.253 34.445-34.445a14.176 14.176 0 0 0 3.909-7.355 14.392 14.392 0 0 0 .26-2.723 14.202 14.202 0 0 0 -4.165-10.078z" fill="#2b266d"/><path d="m296.467 120.332a14.176 14.176 0 0 0 3.909-7.355 14.176 14.176 0 0 1 -3.909 7.355z" fill="#2b266d"/><path d="m296.47 100.176a14.202 14.202 0 0 1 4.166 10.078 14.202 14.202 0 0 0 -4.165-10.078l-6.771-6.77zm8.793 28.952a26.544 26.544 0 0 0 5.854-8.825 26.55 26.55 0 0 1 -5.854 8.825z" fill="#623392"/><path d="m311.117 120.303q.489-1.206.855-2.446a26.711 26.711 0 0 0 -6.706-26.477l-6.77-6.77-8.796 8.795 6.77 6.771a14.202 14.202 0 0 1 4.166 10.078 14.392 14.392 0 0 1 -.26 2.723 14.176 14.176 0 0 1 -3.909 7.355l-34.445 34.445 8.796 8.796 34.445-34.445a26.55 26.55 0 0 0 5.854-8.825zm71.606-52.275-17.229-17.228a23.47 23.47 0 0 0 -31.493-1.533c-.583.48-1.152.99-1.698 1.535l-11.123 11.123-1.963 1.963-.064.064 41.153 41.154a34.968 34.968 0 0 1 7.352 11.185l15.067-15.068a23.473 23.473 0 0 0 -.002-33.195z" fill="#623392"/><path d="m305.266 91.38a26.711 26.711 0 0 1 6.706 26.477q-.367 1.24-.855 2.446a26.544 26.544 0 0 1 -5.854 8.825l-34.445 34.445 8.18 8.18a23.473 23.473 0 0 0 33.195.002l52.45-52.45c-.308-3.627-.801-7.24-1.44-10.833a33.145 33.145 0 0 0 -2.897-3.366l-41.153-41.154-20.657 20.657z" fill="#2b266d"/><path d="m305.266 91.38a26.711 26.711 0 0 1 6.706 26.477 26.711 26.711 0 0 0 -6.706-26.477l-6.77-6.77z" fill="#2b266d"/></svg>