<svg viewBox="-4.86 3.32 939.12 513.76" xmlns="http://www.w3.org/2000/svg"><g fill="#183690"><path d="m57.8 441.8c.3 2.1.5 4.2.5 6.5v1.8c-.4.1-.7.1-.9.1s-.4 0-.7-.1c-1.1-3.2-3-5.6-5.6-7.4-2.6-1.7-5.8-2.6-9.6-2.6-2 0-3.7.2-5.1.7-2.5.8-4.6 2-6.5 3.5s-3.4 3.3-4.7 5.3c-1.3 2.1-2.3 4.5-3 7.5-.7 2.9-1.1 5.9-1.1 9 0 5.8.9 10.6 2.7 14.4s4.2 6.5 7.3 8.1 6.2 2.4 9.3 2.4h1.9c2.2-.3 3.7-.5 4.5-.8 2-.6 3.6-1.2 4.9-2s2.6-1.9 3.8-3.3 2.3-3.1 3.2-4.9l.5-.2c.1 0 .3.1.6.2 0 .7-.1 1.1-.1 1.3-1.1 4.6-2 7.8-2.5 9.4-.4.1-1 .3-1.6.5-3.2 1.1-7.4 1.6-12.8 1.6-4.3 0-7.5-.3-9.7-.9-2.1-.6-4.5-1.5-7-2.7s-4.7-2.9-6.6-4.9-3.4-4.6-4.6-7.7-1.8-6.5-1.8-10.2c0-3.5.5-6.5 1.4-9.1s2.4-5.2 4.3-7.9 4.2-4.9 6.8-6.7 5.5-3 8.8-3.8c2.3-.5 5.5-.7 9.6-.7 3 0 5.9.4 8.5 1.2s4.4 1.6 5.3 2.4zm12 48.7c4-.5 6.2-.8 6.7-1 .4-.1.7-.5 1-1.2v-.4c0-.7.1-3.1.3-7.4.1-1.2.1-2.4.1-3.5l-.1-4.9.1-5.5v-17.5c0-3.1-.2-5-.7-5.7s-1.8-1.2-3.9-1.4c-2.1-.3-3.3-.5-3.5-.6s-.3-.4-.3-.7c0-.2 0-.4.1-.7.3-.2.9-.4 1.9-.4.1 0 .5 0 1.1-.1s1.2-.1 1.7-.1h3.4l10.7-.1c6.1 0 10.3.4 12.8 1.3 2.4.9 4.4 2.4 5.8 4.6 1.4 2.1 2.2 4.5 2.2 7.2 0 5-2.6 8.8-7.9 11.5-.9.5-1.6.9-2.1 1.2.9 2 2.2 4.3 3.9 7.1l5.2 8.9c2.1 3.3 3.5 5.3 4.3 6.2.8.8 1.7 1.5 2.9 2.1 1.1.5 3 1.1 5.7 1.6v1.3c-3.7.1-8.1.1-13.1.1-.4 0-.8 0-1.5-.1-1.9-3.7-4.2-7.8-6.8-12.2l-6-11c-.8-1.1-1.5-1.9-2-2.1-.5-.3-1.2-.4-2.1-.4h-4.6c-.1.9-.1 2.7-.1 5.4v14c0 .5.1 1.2.3 2.2.2.5.6.9 1.1 1.2s2.1.8 4.6 1.4l1.7.4c.2.3.3.6.3 1.1-.7.1-1.3.2-1.6.2-2.4 0-4.2 0-5.2-.1h-1.3l-5.5.1h-5.4c-.2 0-1.5 0-3.7.1l-.8-.2-.1-.4c-.2-.9 0-1.2.4-1.5zm15.1-26.7h1.6c2 0 4.2-.2 6.8-.7 1.8-.4 3.3-.9 4.4-1.7s2-2 2.8-3.6c.7-1.6 1.1-3.2 1.1-4.9 0-1.8-.6-3.8-1.8-5.9-.9-1.6-2.4-2.9-4.6-4-2.1-1.1-4.7-1.6-7.7-1.6-.7 0-1.7 0-2.9.1-.1 1.4-.2 2.5-.2 3.3l.2 7.6v3.1c.2 2.3.2 5 .3 8.3zm41.1 27.3c.3-.2.5-.4.7-.4.5-.1 1.3-.2 2.4-.3 2.6-.2 4.3-.4 4.9-.7.4-.5.6-1.3.6-2.3v-13.3l-.1-4.9v-10.3l-.2-11.7c0-2.8-.2-4.4-.5-4.7-.5-.5-1.9-.8-4.4-.9-1 0-1.9-.1-2.7-.2-.4-.2-.5-.4-.5-.7 0-.2.1-.5.2-.8.2-.1.5-.2.7-.2h1.4c1.6.2 3.3.2 5 .2l3-.1 7.2.2c3.6 0 6.4 0 8.4-.1s3.4-.1 4.1-.1c.6 0 2.2.1 4.7.2h5.8l.7.1 3.4-.1.4.2c.1.2.2.4.3.7 0 .4-.1 1-.2 1.8s-.2 1.3-.2 1.5c0 2.8.1 5.2.3 7.2 0 .2-.1.3-.2.3-.3 0-.6 0-.8-.1-.3-.5-.7-1.4-1.2-2.7s-1.3-2.8-2.3-4.5c-.7-1.1-1.2-1.8-1.6-2s-1.2-.3-2.4-.3c-.2 0-1.5 0-3.7-.1h-1.8l-11.7.2h-1c-1.5 0-2.4.2-2.7.6-.5.7-.7 2.6-.7 5.8 0 .3.1 3.6.2 9.8v5.7c.3.1.6.1 1 .1h2.7c1.4.1 2.4.1 2.9.1h.9c2.9-.1 6.7-.2 11.4-.2 1.4-.2 2.3-.5 2.5-.9.4-.5.7-1.8.9-3.8.2-2.1.7-3.2 1.4-3.5.4 0 .7.1 1 .2.1.2.1.4.1.6s0 .5-.1.9c-.1 1-.2 4.2-.2 9.5 0 1.4.1 3 .2 4.7s.2 2.7.2 2.8c0 .2 0 .6-.1 1-.2.1-.4.2-.5.2h-.3c-.4-.8-.9-1.9-1.3-3.6-.7-2.8-1.5-4.5-2.2-5.2-.8-.7-2-1-3.8-1-.4 0-1.1 0-2.1.1-1 0-2.5.1-4.5.1h-2.7c-3.8 0-6.3.1-7.4.2v18.1c0 2.8.2 4.4.5 4.8.5.6 1.5.9 3 .9h2.5c.2 0 1.1 0 2.6.1 1.5 0 3.3.1 5.5.1 5.3 0 8.8-.2 10.5-.7s3.2-1.2 4.3-2.4c1.1-1.1 2.6-3.6 4.3-7.4.5-1.1 1-1.7 1.6-1.7.2 0 .5.1.8.3-.8 2.7-1.2 4.5-1.3 5.3-.3 1.9-.5 3.9-.5 5.8 0 .9-.2 1.6-.7 2.2h-.9l-11.5.1h-5.1l-12.3.2h-6.8c-4.9.2-8.5.3-10.8.3-.4 0-.7-.1-.8-.2-.2-.1-.2-.3-.2-.6zm58-.6c.4-.2.7-.3 1-.3h1.9c2.1-.2 3.3-.4 3.7-.6 1-.5 1.8-1.4 2.5-2.7 1.4-2.8 3-6.7 4.8-11.8.8-2.4 1.4-3.9 1.6-4.4.7-1.6 1.3-3.4 2-5.1l3.8-10.7c.6-1.7 2-5.6 4.3-11.6.6-1.5 1.3-3.6 2.1-6.1l1.2-.1h1.4c1.2 2.3 2.2 4.8 3.1 7.5.5 1.4 1.3 3.5 2.4 6.3l6.2 16.8 3.3 9.1c1.7 5.2 2.9 8.4 3.4 9.5.5 1.2 1 2 1.5 2.4.1.1.6.3 1.5.5s1.5.4 1.9.5c1.3.4 2.1.7 2.6.9.1.3.2.5.2.7 0 .1 0 .3-.1.6h-1.8c-1.4 0-3.8 0-7.4-.1l-4.1-.1-4.9.1h-2.8c-.3 0-.6-.1-.8-.2 0-.4.1-.7.2-1.1.3-.2.6-.3.9-.3l4.3-.3c1.1-.1 2-.2 2.5-.5.2-.5.2-.9.2-1.1 0-.5-.4-1.8-1.1-3.8-.5-1.4-.9-2.7-1.3-3.9s-1.8-5.3-4.3-12.1c-1.1-.2-2.1-.3-2.9-.3l-8.7.1h-2.6c-.9 0-1.9.1-3.1.2-.4.8-.6 1.4-.7 1.8l-3.6 11.2c-1.5 4.3-2.3 6.6-2.3 7.1 0 .2.1.7.4 1.2.6.2 1.3.3 2.3.4l5.6.5c.3.2.4.5.4.7 0 .1 0 .3-.1.6h-2.8c-2.2 0-4.7-.1-7.6-.2-1.3-.1-2.3-.1-2.9-.1s-1.6 0-3 .1c-.9.1-1.6.1-2 .1-.7 0-1.5 0-2.5-.1v-.2c.1-.6.1-.8.2-1.1zm19.5-24.6c2.9.2 6.2.2 10 .2 2.1 0 4-.1 5.6-.2-.3-1.1-.6-2.1-.9-3-1.8-4.7-2.7-7.4-2.9-7.8l-3.7-9.4-.4-.7c-.2.3-.8 1.7-1.8 4.2-1.7 4.2-3 7.6-3.8 9.9-.4 1.1-.7 2.1-1.1 3.2-.4 1-.6 1.8-.7 2.2s-.2.9-.4 1.3zm43.3-20.3 1.7-6.2c.1-.8.3-1.3.5-1.6.2-.2.4-.3.7-.3.5 0 1 .6 1.7 1.8.5.8.8 1.4 1.1 1.6s.7.4 1.3.5h.4l1.8.2 9.6.1h14.8l6.3-.1c.3 0 .6 0 1 .1 1.9.2 3 .2 3.4.2s.7-.1 1-.4c.1-.1.5-1 1.3-2.7.4-.8.8-1.2 1.3-1.2.2 0 .5.1.8.2.1.5.2 1 .2 1.5v5c0 .8-.1 3.5-.2 8.1 0 .3-.1.6-.2.8-.3.2-.6.3-.8.3s-.4-.1-.6-.3-.4-.8-.6-1.9c-.5-2.4-1.2-4.2-2-5.2-.5-.7-1.3-1.2-2.3-1.5s-3.5-.4-7.3-.4h-6.9c-.1 1.1-.1 2.1-.1 3l.3 25.4c0 1-.1 2.9-.2 5.7v8.4c0 1 .2 1.6.5 2s1.2.8 2.7 1.2c2.5.6 4.2 1 5 1.1.5.1.9.2 1.3.3v1.2l-5.8-.1c-3.2 0-5.6-.1-7.2-.2l-6 .3-4.4.2c-1.2 0-2 0-2.2-.1l-.6-.2c.1-.6.2-1 .4-1.2s.7-.3 1.5-.4c1.1-.2 2.5-.5 4-.9 1.6-.4 2.6-.9 3.1-1.3.3-.2.5-.7.6-1.2.2-1.2.4-3.6.4-7.1v-6.9l-.2-15.2-.2-3.3v-10.9h-6.6c-3.9 0-6.3.2-7.1.7-1.3.7-3.3 2.9-6 6.5-.9 1.3-1.6 2-2.3 2l-.4-.1c-.1-.2-.2-.3-.2-.4 0-.3.2-1.3.7-2.9.6-2.1.9-3.5 1-4.2zm56.7 44.9c.6-.2 1.2-.4 1.8-.4 4.2-.3 6.6-.8 7.1-1.5.6-.7.9-4.2.9-10.5v-8.8l-.2-4.9.1-2.9v-7l-.1-1.7.1-2.1v-1.7c0-1.7-.1-3.5-.2-5.4-.1-.4-.3-.7-.4-1.1-1-.5-2.6-.9-4.9-1-2.2-.2-3.5-.4-3.8-.6-.2-.2-.3-.6-.4-1.3h3.4l10.8.2c2.8 0 6.5-.1 11.1-.2 0 .4 0 .8-.1 1.2-.5.1-1.5.3-2.7.4-2.6.3-4.2.6-4.7.9-.4.1-.6.4-.8.7-.3.5-.4 1.4-.5 2.7l-.2 5.3.2 18.2v7.2c-.1 2.3-.1 3.8-.1 4.6 0 3.1.1 5 .2 5.8.2.8.4 1.5.8 1.8.4.4 1 .7 1.8.9 1.3.3 2.2.5 2.9.5 1.5.1 2.5.3 2.9.7.1.4.1.7.1.9v.3c-2.5.1-4.3.1-5.5.1-.7 0-1.9 0-3.6-.1l-5.6.1h-10.4zm35.9-24.8c0-2.8.3-5.2 1-7.4s1.8-4.5 3.4-7 3.5-4.7 5.7-6.4 5.3-3.2 9.3-4.5c2.8-.9 6.3-1.3 10.5-1.3 2.9 0 5.7.4 8.4 1.1 2.7.8 5.2 1.8 7.5 3.2 2.2 1.4 4.5 3.5 6.7 6.3 1.6 2 2.7 4.1 3.5 6.3 1 3 1.6 6 1.6 9.2 0 3.6-.3 6.6-1 8.9-.7 2.4-1.9 4.7-3.5 7-1.3 1.8-3.5 3.9-6.6 6.2-2.1 1.6-4.6 2.9-7.7 3.8-3.1 1-6.4 1.5-10 1.5s-6.9-.4-9.7-1.3c-2.8-.8-5.2-1.9-7.1-3.1s-3.8-3-5.8-5.4-3.5-5-4.6-7.8c-1.1-2.9-1.6-6-1.6-9.3zm28.4 25.4c2.3 0 4.7-.3 7.1-1 2.5-.6 4.7-1.7 6.6-3.2s3.4-3.2 4.5-5.1 1.9-4.3 2.6-7.3 1-5.9 1-8.9c0-3.7-.5-7.4-1.6-11-.8-2.8-2.2-5.2-4.1-7.4s-4.2-3.8-6.9-5-5.6-1.8-8.6-1.8c-2.5 0-4.9.4-7.3 1.2s-4.3 1.9-5.8 3.1c-1.5 1.3-2.9 3.1-4.2 5.4s-2.3 4.9-3 7.7-1 5.3-1 7.4c0 2.3.3 4.8 1 7.7s1.6 5.3 2.8 7.4 2.6 4 4.4 5.6c1.7 1.6 3.7 2.9 5.8 3.7 1.9 1 4.2 1.5 6.7 1.5zm39.2-49.3v-2c4.2 0 7.3-.1 9.3-.3.8-.1 1.3-.1 1.6-.1h1.1c1.1 1 2.2 2 3.2 3.3.2.2.5.5.7.8l8.6 9.5 1.2 1.5c1.7 2 3.3 3.8 4.8 5.2 1.4 1.4 4.2 4.5 8.4 9l9.8 10.8c1 1.1 2.2 2.4 3.7 4v-.7c-.2-3.8-.2-5.8-.2-6l.2-2.5-.1-3.8v-1.8c0-1.1-.1-4.6-.3-10.3 0-.8-.1-2.3-.3-4.5s-.3-4.1-.3-5.8c0-3-.2-4.7-.5-5.2-.2-.4-1.4-.7-3.5-1.1-.5 0-1.3-.1-2.3-.2-1.2-.1-1.9-.1-2.2-.2-.2-.1-.4-.3-.7-.7.1-.4.2-.8.4-1.2.7-.2 1.5-.3 2.2-.3.8 0 1.7.1 2.8.3s2.1.3 3 .3c1.3 0 3.2-.1 5.8-.2 1.5-.1 2.5-.2 3.1-.2h.7l-.1 1.3c-.4.2-1 .3-1.8.3s-1.5.2-2.1.3c-1 .3-1.6.6-1.8.8-.7.7-1 1.4-1 2.2l.5 12.9.3 5.9v1.7l.2 8.2c.2 5.6.2 10.5.2 14.6 0 .9-.1 2.8-.2 5.8l-1.9.2c-1-1.1-4.2-4.5-9.9-10.3-1.3-1.3-2.2-2.3-2.7-2.8l-3.5-4c-1.4-1.5-2.2-2.5-2.7-2.9l-.9-.9c-3-3.4-6.8-7.6-11.6-12.7-1.3-1.4-3.2-3.5-5.6-6.4-1.6-1.8-2.5-2.9-2.9-3.4-.4-.4-1-.9-1.7-1.4l-.1 1.4c0 5.3.1 12.6.4 22l.3 13.5c0 1.1.1 2.2.2 3.3l1.4.3c2.6.2 5.1.6 7.6 1.1.2.2.4.3.5.4v1.6c-.4.1-.8.2-1.1.2s-.7 0-1.1-.1c-2.7-.2-6-.3-9.8-.3-2.7 0-5.1.1-7.2.2h-.6c-.2 0-.6 0-1.1-.1v-1.2l1.1-.5 1.9-.3c1.7-.2 3-.5 3.8-.8.5-.2.9-.5 1.3-.9.3-1.9.4-4.6.4-8.3 0-1.7 0-4.8-.1-9.3v-5.6l-.1-11.6c-.1-5.2-.2-8.2-.5-9.2-.2-.5-.5-.9-1-1.3-1-.7-2.4-1.2-4.1-1.4-1.6.2-2.7 0-3.1-.1zm68.7 50.2c0-.4.1-.8.3-1.1 2.1-.6 4.2-1 6.2-1.1 1.3-.1 2.2-.4 2.6-.9.3-.4.4-1.7.5-3.9l.3-10.8v-19.4c0-5.8 0-9.3-.1-10.8 0-.3-.1-.7-.3-1.1-.7-.3-1.3-.5-1.8-.7-.5-.1-2.6-.5-6.4-1.2v-.7-.7c.5 0 1.4 0 2.5.1l6.2.2 3.6.1h1.1c.1 0 .5 0 1.2.1h2.8l3.3-.2c2.2 0 3.8 0 4.7.1 0 .5-.1 1-.3 1.6-.3.1-1.7.1-4.2.2s-4 .3-4.4.5c-.6.4-.9 1.4-.9 3.3 0 .4 0 1.3-.1 2.7v12.7l.1 13.5-.1 11.5v2.5c0 .8.1 1.3.4 1.5.7 0 2.7.1 6 .1h2.8l7.1-.2c1.9-.1 3.2-.2 4-.6.8-.3 2.1-1.2 4-2.8 1.1-1 2-2 2.6-3 .1-.2.4-.5.7-1 .5-.7 1.2-2.1 2.1-4.2h1.3c-.2 1-.3 1.9-.5 2.8-.8 3.8-1.3 7-1.6 9.6-.1.5-.1 1-.2 1.5l-15.3-.4c-13.1 0-20.9.1-23.4.4-.8.1-1.6.1-2.4.1h-4.4zm54.2-1.5c.6-.2 1.2-.4 1.8-.4 4.2-.3 6.5-.8 7.1-1.5s.9-4.2.9-10.5v-8.8l-.2-4.9.1-2.9v-7l-.1-1.7.1-2.1v-1.7c0-1.7-.1-3.5-.2-5.4-.1-.4-.3-.7-.4-1.1-1-.5-2.6-.9-4.9-1-2.2-.2-3.5-.4-3.8-.6-.2-.2-.3-.6-.4-1.3h3.4l10.8.2c2.8 0 6.5-.1 11.1-.2 0 .4 0 .8-.1 1.2-.5.1-1.5.3-2.7.4-2.6.3-4.2.6-4.7.9-.4.1-.6.4-.8.7-.3.5-.4 1.4-.5 2.7l-.2 5.3.2 18.2v7.2c-.1 2.3-.1 3.8-.1 4.6 0 3.1.1 5 .2 5.8.2.8.4 1.5.8 1.8.4.4 1 .7 1.8.9 1.3.3 2.2.5 2.9.5 1.5.1 2.5.3 2.9.7.1.4.1.7.1.9v.3c-2.5.1-4.3.1-5.5.1-.7 0-1.9 0-3.6-.1l-5.6.1h-10.3zm33.2-48.7v-2c4.2 0 7.3-.1 9.3-.3.8-.1 1.3-.1 1.6-.1h1.1c1.1 1 2.2 2 3.2 3.3.2.2.5.5.7.8l8.6 9.5 1.2 1.5c1.7 2 3.3 3.8 4.8 5.2 1.4 1.4 4.2 4.5 8.4 9l9.8 10.8c1 1.1 2.2 2.4 3.7 4v-.7c-.2-3.8-.2-5.8-.2-6l.2-2.5-.1-3.8v-1.8c0-1.1-.1-4.6-.3-10.3 0-.8-.1-2.3-.3-4.5s-.3-4.1-.3-5.8c0-3-.2-4.7-.5-5.2-.2-.4-1.4-.7-3.5-1.1-.5 0-1.3-.1-2.3-.2-1.2-.1-2-.1-2.2-.2s-.4-.3-.7-.7c.1-.4.2-.8.4-1.2.7-.2 1.5-.3 2.2-.3.8 0 1.7.1 2.8.3s2.1.3 3 .3c1.3 0 3.2-.1 5.8-.2 1.5-.1 2.5-.2 3.1-.2h.7l-.1 1.3c-.4.2-1 .3-1.8.3s-1.5.2-2.1.3c-1 .3-1.6.6-1.8.8-.7.7-1 1.4-1 2.2l.4 12.9.3 5.9v1.7l.2 8.2c.2 5.6.2 10.5.2 14.6 0 .9-.1 2.8-.2 5.8l-1.9.2c-1-1.1-4.2-4.5-9.8-10.3-1.3-1.3-2.2-2.3-2.7-2.8l-3.5-4c-1.4-1.5-2.2-2.5-2.7-2.9l-.9-.9c-3-3.4-6.8-7.6-11.6-12.7-1.3-1.4-3.2-3.5-5.6-6.4-1.6-1.8-2.5-2.9-2.9-3.4-.4-.4-1-.9-1.7-1.4l-.1 1.4c0 5.3.1 12.6.4 22l.3 13.5c0 1.1.1 2.2.2 3.3l1.4.3c2.6.2 5.1.6 7.6 1.1.2.2.4.3.5.4v1.6c-.4.1-.8.2-1.1.2s-.7 0-1.1-.1c-2.7-.2-6-.3-9.8-.3-2.7 0-5.1.1-7.2.2h-.6c-.2 0-.6 0-1.1-.1v-1.2l1.1-.5 1.9-.3c1.7-.2 3-.5 3.8-.8.5-.2.9-.5 1.3-.9.3-1.9.4-4.6.4-8.3 0-1.7 0-4.8-.1-9.3v-5.6l-.1-11.6c-.1-5.2-.2-8.2-.5-9.2-.2-.5-.5-.9-1-1.3-1-.7-2.4-1.2-4.1-1.4-1.6.2-2.6 0-3.1-.1zm71 49.3c.3-.2.5-.4.7-.4.5-.1 1.3-.2 2.4-.3 2.6-.2 4.3-.4 4.9-.7.4-.5.6-1.3.6-2.3v-13.3l-.1-4.9v-10.3l-.2-11.7c0-2.8-.2-4.4-.5-4.7-.5-.5-1.9-.8-4.4-.9-1 0-2-.1-2.7-.2-.4-.2-.5-.4-.5-.7 0-.2.1-.5.2-.8.2-.1.5-.2.7-.2h1.4c1.6.2 3.3.2 5 .2l3-.1 7.2.2c3.6 0 6.4 0 8.4-.1s3.4-.1 4.1-.1c.6 0 2.2.1 4.7.2h5.8l.7.1 3.4-.1.4.2c.1.2.2.4.3.7 0 .4-.1 1-.2 1.8s-.2 1.3-.2 1.5c0 2.8.1 5.2.3 7.2 0 .2-.1.3-.2.3-.3 0-.6 0-.8-.1-.3-.5-.7-1.4-1.2-2.7s-1.3-2.8-2.3-4.5c-.7-1.1-1.2-1.8-1.6-2s-1.2-.3-2.4-.3c-.2 0-1.5 0-3.7-.1h-1.8l-11.7.2h-1c-1.5 0-2.4.2-2.7.6-.5.7-.7 2.6-.7 5.8 0 .3.1 3.6.2 9.8v5.7c.3.1.6.1 1 .1h2.7c1.4.1 2.4.1 2.9.1h.9c2.9-.1 6.7-.2 11.4-.2 1.4-.2 2.3-.5 2.5-.9.4-.5.7-1.8.9-3.8.2-2.1.7-3.2 1.4-3.5.4 0 .7.1 1 .2.1.2.1.4.1.6s0 .5-.1.9c-.1 1-.2 4.2-.2 9.5 0 1.4.1 3 .2 4.7s.2 2.7.2 2.8c0 .2 0 .6-.1 1-.2.1-.4.2-.5.2h-.3c-.4-.8-.9-1.9-1.3-3.6-.7-2.8-1.5-4.5-2.2-5.2-.8-.7-2-1-3.8-1-.4 0-1.1 0-2.1.1-1 0-2.5.1-4.5.1h-2.7c-3.8 0-6.3.1-7.4.2v18.1c0 2.8.2 4.4.5 4.8.5.6 1.5.9 3 .9h2.5c.2 0 1.1 0 2.6.1 1.5 0 3.3.1 5.5.1 5.3 0 8.8-.2 10.5-.7s3.2-1.2 4.3-2.4c1.1-1.1 2.6-3.6 4.3-7.4.5-1.1 1-1.7 1.6-1.7.2 0 .5.1.8.3-.8 2.7-1.2 4.5-1.3 5.3-.3 1.9-.5 3.9-.5 5.8 0 .9-.2 1.6-.7 2.2h-.9l-11.5.1h-5.1l-12.3.2h-6.8c-4.9.2-8.5.3-10.8.3-.4 0-.7-.1-.8-.2-.2-.1-.2-.3-.2-.6zm60.6 15.2v-1.3c.3-.2.7-.3 1-.4 2.9-1.4 4.8-2.8 5.7-4.2 1-1.5 1.5-2.8 1.5-3.9 0-.8-.3-1.4-.8-2s-1.5-1-2.8-1.3-2.2-.5-2.6-.7c-.3-.1-.6-.4-1-.8-.3-.6-.4-1.1-.4-1.6 0-1.3.3-2.2.8-2.6 1.1-1 2.2-1.4 3.4-1.4 2.1 0 3.9.8 5.4 2.4s2.3 3.6 2.3 6c0 1.7-.5 3.5-1.6 5.4s-2.7 3.5-4.9 4.7c-2.4 1.1-4.4 1.7-6 1.7zm46.5-15.8c.6-.2 1.2-.4 1.8-.4 4.2-.3 6.5-.8 7.1-1.5s.9-4.2.9-10.5v-8.8l-.2-4.9.1-2.9v-7l-.1-1.7.1-2.1v-1.7c0-1.7-.1-3.5-.2-5.4-.1-.4-.3-.7-.4-1.1-1-.5-2.6-.9-4.9-1-2.2-.2-3.5-.4-3.8-.6-.2-.2-.3-.6-.4-1.3h3.4l10.8.2c2.8 0 6.5-.1 11.1-.2 0 .4 0 .8-.1 1.2-.5.1-1.5.3-2.7.4-2.6.3-4.2.6-4.7.9-.4.1-.6.4-.8.7-.3.5-.4 1.4-.5 2.7l-.2 5.3.2 18.2v7.2c-.1 2.3-.1 3.8-.1 4.6 0 3.1.1 5 .2 5.8.2.8.4 1.5.8 1.8.4.4 1 .7 1.8.9 1.2.3 2.2.5 2.9.5 1.5.1 2.5.3 2.9.7.1.4.1.7.1.9v.3c-2.5.1-4.3.1-5.5.1-.7 0-1.9 0-3.6-.1l-5.6.1h-10.4zm33.9-48.7v-2c4.2 0 7.3-.1 9.3-.3.8-.1 1.3-.1 1.6-.1h1.1c1.1 1 2.2 2 3.2 3.3.2.2.5.5.7.8l8.6 9.5 1.2 1.5c1.7 2 3.3 3.8 4.8 5.2 1.4 1.4 4.2 4.5 8.4 9l9.8 10.8c1 1.1 2.2 2.4 3.7 4v-.7c-.2-3.8-.2-5.8-.2-6l.2-2.5-.1-3.8v-1.8c0-1.1-.1-4.6-.3-10.3 0-.8-.1-2.3-.3-4.5s-.3-4.1-.3-5.8c0-3-.2-4.7-.5-5.2-.2-.4-1.4-.7-3.5-1.1-.5 0-1.3-.1-2.3-.2-1.2-.1-1.9-.1-2.2-.2-.2-.1-.4-.3-.7-.7.1-.4.2-.8.4-1.2.7-.2 1.5-.3 2.2-.3.8 0 1.7.1 2.8.3s2.1.3 3 .3c1.3 0 3.2-.1 5.8-.2 1.5-.1 2.5-.2 3.1-.2h.7l-.1 1.3c-.4.2-1 .3-1.8.3s-1.5.2-2.1.3c-1 .3-1.6.6-1.8.8-.7.7-1 1.4-1 2.2l.4 12.9.3 5.9v1.7l.2 8.2c.2 5.6.2 10.5.2 14.6 0 .9-.1 2.8-.2 5.8l-1.9.2c-1-1.1-4.2-4.5-9.9-10.3-1.3-1.3-2.2-2.3-2.7-2.8l-3.5-4c-1.4-1.5-2.2-2.5-2.7-2.9l-.9-.9c-3-3.4-6.8-7.6-11.6-12.7-1.3-1.4-3.2-3.5-5.6-6.4-1.6-1.8-2.5-2.9-2.9-3.4-.4-.4-1-.9-1.7-1.4l-.1 1.4c0 5.3.1 12.6.4 22l.3 13.5c0 1.1.1 2.2.2 3.3l1.4.3c2.6.2 5.1.6 7.6 1.1.2.2.4.3.5.4v1.6c-.4.1-.8.2-1.1.2s-.7 0-1.1-.1c-2.7-.2-6-.3-9.8-.3-2.7 0-5.1.1-7.2.2h-.6c-.2 0-.6 0-1.1-.1v-1.2l1.1-.5 1.9-.3c1.7-.2 3-.5 3.8-.8.5-.2.9-.5 1.3-.9.3-1.9.4-4.6.4-8.3 0-1.7 0-4.8-.1-9.3v-5.6l-.1-11.6c-.1-5.2-.2-8.2-.5-9.2-.2-.5-.5-.9-1-1.3-1-.7-2.4-1.2-4.1-1.4-1.4.2-2.5 0-3-.1zm115.7 0c.3 2.1.5 4.2.5 6.5v1.8c-.4.1-.7.1-.9.1s-.4 0-.7-.1c-1.1-3.2-3-5.6-5.6-7.4-2.6-1.7-5.8-2.6-9.6-2.6-2 0-3.7.2-5.1.7-2.4.8-4.6 2-6.5 3.5s-3.4 3.3-4.7 5.3c-1.3 2.1-2.3 4.5-3 7.5-.7 2.9-1.1 5.9-1.1 9 0 5.8.9 10.6 2.7 14.4s4.2 6.5 7.3 8.1 6.2 2.4 9.3 2.4h1.9c2.2-.3 3.7-.5 4.5-.8 2-.6 3.6-1.2 4.9-2s2.6-1.9 3.8-3.3 2.3-3.1 3.2-4.9l.5-.2c.1 0 .3.1.6.2 0 .7-.1 1.1-.1 1.3-1.1 4.6-2 7.8-2.5 9.4-.4.1-1 .3-1.6.5-3.2 1.1-7.5 1.6-12.8 1.6-4.3 0-7.5-.3-9.7-.9-2.1-.6-4.5-1.5-7-2.7s-4.7-2.9-6.6-4.9-3.4-4.6-4.6-7.7-1.8-6.5-1.8-10.2c0-3.5.5-6.5 1.4-9.1s2.4-5.2 4.3-7.9 4.2-4.9 6.8-6.7 5.6-3 8.8-3.8c2.3-.5 5.5-.7 9.6-.7 3 0 5.9.4 8.5 1.2s4.4 1.6 5.3 2.4zm15.7 46.7c0-1.2.4-2.2 1.3-3.1s1.9-1.3 3.1-1.3 2.1.4 2.9 1.3c.8.8 1.2 1.9 1.2 3.2s-.4 2.4-1.3 3.2c-.8.9-1.8 1.3-3 1.3s-2.2-.4-3-1.3c-.8-1.1-1.2-2.1-1.2-3.3z"/><path d="m462.8 13.5-146.2 84.4v168.8l146.2 84.4 146.2-84.3v-168.9zm-50.4 198v52.4l-45.4-26.3v-52.4zm-45.4-30.1v-52.4l45.4 26.2v52.4zm48.7 84.4v-52.4l45.4 26.2v52.4zm45.4-30.1-45.4-26.2v-52.4l45.4 26.2zm-43.7-137.8 45.4-26.2 45.4 26.2-45.4 26.2zm92.4 222.2-45.4 26.2v-50.4l45.4-26.2zm0-54.3-45.3 26.2v-52.4l45.4-26.2v52.4zm0-56.3-45.4 26.2v-52.4l45.4-26.2zm-43.6-83.4 45.4-26.2 45.4 26.2-45.4 26.2zm92.4 165.9-45.4 26.2v-50.4l45.4-26.2zm0-54.4-45.4 26.2v-52.4l45.4-26.2zm0-56.2-45.4 26.2v-52.4l45.4-26.2zm47 83.4-43.6 25.2v-50.4l43.7-25.2v50.4zm0-54.3-43.6 25.2v-52.4l43.7-25.2v52.4zm0-56.3-43.6 25.2v-52.4l43.7-25.2v52.4z"/></g></svg>