<svg height="245" viewBox="0 0 400 245" width="400" xmlns="http://www.w3.org/2000/svg"><path d="m0 0h400v245h-400z" fill="none" pointer-events="none"/><g fill="#ff5433" transform="matrix(.79095 0 0 .79095 0 43.211)"><path d="m303.76 7.15v90a.57.57 0 0 0 0 .08 5.54 5.54 0 0 1 -5.56 5.5h-4.11a5.54 5.54 0 0 1 -5.56-5.51v-.08a.54.54 0 0 0 0-.08v-89.87a.35.35 0 0 0 0-.11 5.54 5.54 0 0 1 5.56-5.5h4.11a5.54 5.54 0 0 1 5.56 5.51zm70.35 38.57c-4.28-1.13-8.28-1.82-12.52-2.55a120.81 120.81 0 0 1 -18.47-4.26c-5.35-1.77-10-6.77-8.18-12.55 2.06-6.44 9.23-9.67 13.32-11 13.79-4.56 25.41 3.24 31.1 8.3 2.43 2.19 4.27 2.09 7 1.11a13.09 13.09 0 0 0 3.31-2.14c2-1.88 3.41-4.86 1.65-7.58-.09-.15-.54-.83-1-1.43a6.57 6.57 0 0 0 -.7-.78 46.6 46.6 0 0 0 -63-.84c-6.93 6.1-8.93 15-6.5 24.35 1.88 7.24 6.61 12.47 15.14 15.65a120 120 0 0 0 16.66 4.44l.54.12c2.37.51 4.89.91 7.33 1.28 5.08.79 10.33 1.61 15 3.57 3.13 1.33 7 4.51 8 8.32 1.21 4.41-1.6 8.51-3.37 10.56-5.05 5.83-16.25 10.78-28.89 7.87-7.06-1.62-16.21-9.61-18.18-11.39l-.14-.14c-2.73-2.8-4.64-2.79-7.66-1.71a13.09 13.09 0 0 0 -3.31 2.14c-2 1.88-3.41 4.86-1.65 7.58.11.18.73 1.13 1.24 1.76a49.3 49.3 0 0 0 9.76 9.21 46.55 46.55 0 0 0 27.17 8.63h.1a46.57 46.57 0 0 0 27.25-8.75c10.28-7.38 15.29-19 12.76-29.56-2.39-9.88-10.37-16.68-23.76-20.21zm-277.39 33.11.28-.43a9.1 9.1 0 0 0 1.76-4.64 6.9 6.9 0 0 0 -2.62-5.19c-2.15-1.75-5.5-3.32-8.16-2.9a4.2 4.2 0 0 0 -3 1.94c-.51.79-.91 1.52-1.29 2.22s-.7 1.28-1.11 1.92a36.27 36.27 0 0 1 -64.44-6.58 36.71 36.71 0 0 1 17.41-45.32 36.3 36.3 0 0 1 47.65 13.73l.48.82a15.15 15.15 0 0 0 2.45 3.43 3.81 3.81 0 0 0 2.91 1 12.59 12.59 0 0 0 7.91-3.83c3.13-3.46 1.31-7.07-.83-10.47a52.59 52.59 0 0 0 -7.95-9.81 52 52 0 0 0 -77.45 69.12 52.63 52.63 0 0 0 45.63 20.23 52.13 52.13 0 0 0 40.37-25.24zm61.72-62.32c4.1-.15 5.27-2.26 5.92-5.84a23.39 23.39 0 0 0 .11-4.09 6 6 0 0 0 -6-5.82c-27.45 0-49.77 23.32-49.77 51.92v41.26c-.07 2.13-.16 4.55 1 6.24 1.77 2.58 4.52 2.56 7.42 2.52h.17a7.38 7.38 0 0 0 5.22-2 5.15 5.15 0 0 0 1.44-3.82v-44.74c.28-19.64 15.71-35.6 34.5-35.63zm109.61-15h-4.05a5.57 5.57 0 0 0 -5.56 5.56.66.66 0 0 1 0 .09v45.78c-.28 19.59-15.75 35.49-34.58 35.49s-34.3-15.9-34.58-35.49v-45.7a.54.54 0 0 1 0-.09v-.08a5.57 5.57 0 0 0 -5.56-5.58h-4.11a5.57 5.57 0 0 0 -5.61 5.57.78.78 0 0 1 0 .09v45.6c.18 28.43 22.53 51.56 49.81 51.56s49.63-23.13 49.81-51.56v-45.51a.64.64 0 0 1 0-.09v-.09a5.57 5.57 0 0 0 -5.56-5.57zm231.59 83.07a50.47 50.47 0 0 0 3.26-4.58l.49-.75c1.1-1.68 2.34-3.59 2.33-5.58a6.89 6.89 0 0 0 -2.61-5.18l-.12-.1a13 13 0 0 0 -6.76-2.87h-.16c-2.69 0-4.05 2.18-5.5 4.48l-.5.78a39.94 39.94 0 0 1 -13 12.64 36.18 36.18 0 0 1 -54.07-27.12 36.87 36.87 0 0 1 16.9-35 36.44 36.44 0 0 1 44.45 5.1l.19.19-28.3 18.46c-3.69 2.4-8.77 4.94-5.87 10.08 1.27 2.25 3.17 5.19 5.87 5.94a5.72 5.72 0 0 0 4.63-.83c1.62-1 40.34-26.28 40.34-26.28a7.32 7.32 0 0 0 2.84-2.78c1.51-3-.2-5.59-1.86-8.08a52.4 52.4 0 0 0 -43.25-23.1h-1.08a52.09 52.09 0 0 0 -48.51 67.82 52.06 52.06 0 0 0 90.29 16.74z"/><path d="m183 150.23a8.49 8.49 0 1 0 0 17h33.57a8.49 8.49 0 1 0 0-17zm162.34 8.49a8.49 8.49 0 1 0 8.49-8.49 8.51 8.51 0 0 0 -8.49 8.49zm-106.34 0a8.49 8.49 0 1 0 8.49-8.49 8.51 8.51 0 0 0 -8.49 8.49zm-112.23 0a8.61 8.61 0 0 0 8.68 8.49h16.45a8.49 8.49 0 1 0 0-17h-16.46a8.61 8.61 0 0 0 -8.67 8.51zm151.57-8.49a8.49 8.49 0 1 0 0 17h50.54a8.49 8.49 0 1 0 0-17zm112.49 0a8.49 8.49 0 1 0 8.49 8.49 8.51 8.51 0 0 0 -8.49-8.49z" opacity=".5"/><path d="m301.36 183.66a8.42 8.42 0 1 0 8.42 8.42 8.44 8.44 0 0 0 -8.42-8.42zm21.93 0a8.42 8.42 0 1 0 8.42 8.42 8.44 8.44 0 0 0 -8.42-8.42zm-113.91 0a8.42 8.42 0 1 0 0 16.84h67a8.42 8.42 0 1 0 0-16.84zm-32.38 8.42a8.42 8.42 0 1 0 8.42-8.42 8.44 8.44 0 0 0 -8.42 8.42z" opacity=".25"/><path d="m43.5 128.48a8.42 8.42 0 1 0 8.42-8.42 8.44 8.44 0 0 0 -8.42 8.42zm44.68-8.42a8.42 8.42 0 1 0 0 16.84h16.46a8.42 8.42 0 1 0 0-16.84zm41.11 0a8.42 8.42 0 1 0 0 16.84h16.46a8.42 8.42 0 1 0 0-16.84zm121.78 0a8.42 8.42 0 1 0 0 16.84h33.11a8.42 8.42 0 1 0 0-16.84zm-83.16 8.42a8.42 8.42 0 1 0 8.42-8.42 8.44 8.44 0 0 0 -8.42 8.42zm43.85 0a8.42 8.42 0 1 0 8.42-8.42 8.44 8.44 0 0 0 -8.42 8.42zm180.31 0a8.42 8.42 0 1 0 8.42-8.42 8.44 8.44 0 0 0 -8.42 8.42zm36.93 0a8.42 8.42 0 1 0 8.42-8.42 8.44 8.44 0 0 0 -8.42 8.42zm32.68-8.42a8.42 8.42 0 1 0 8.42 8.42 8.44 8.44 0 0 0 -8.42-8.42zm-152.53 0a8.42 8.42 0 1 0 0 16.84h16.46a8.42 8.42 0 1 0 0-16.84zm38.76 8.42a8.42 8.42 0 1 0 8.42-8.42 8.44 8.44 0 0 0 -8.42 8.42z" opacity=".75"/></g></svg>