<svg viewBox="0 0 786.94578 553.30872" xmlns="http://www.w3.org/2000/svg" xmlns:xlink="http://www.w3.org/1999/xlink"><clipPath id="a"><path d="m177.224 151.764c43.351-74.931 124.33-125.492 216.948-125.492 86.478 0 162.856 44.05 207.892 110.886l-12.085 18.87-19.546 2.601a212.234 212.234 0 0 0 -176.261-94.118c-76.137 0-143.01 40.313-180.479 100.693l-9.65-13.44zm433.964.116-11.638 18.836-20.79 1.441a210.894 210.894 0 0 1 27.69 104.632c0 113.64-89.766 206.695-202.112 212.02l-8.565 19.357 9.168 18.867c133.155-5.665 239.748-115.72 239.748-250.244a248.886 248.886 0 0 0 -33.501-124.909zm-232.938 356.788 10.27-19.744c-114.44-3.015-206.626-96.98-206.626-212.135a210.898 210.898 0 0 1 23.972-97.813l-9.286-11.35-27.621-.446a248.97 248.97 0 0 0 -25.303 109.608c0 135.931 108.842 246.843 243.942 250.351z"/></clipPath><clipPath id="b"><path d="m266.054 140.896a184.79 184.79 0 0 1 216.929-28.915l-2.525 17.27-11.594 7.214a156.7 156.7 0 0 0 -180.311 22.016l-3.788-11.634zm227.434-3.314-12.072 6.495a156.925 156.925 0 0 1 69.717 130.408c0 4.812-.252 9.565-.678 14.267l14.545 10.518 13.113-3.25a184.526 184.526 0 0 0 -82.31-176.286zm-263.938 195.89 18.994-.538a156.563 156.563 0 0 1 29.848-164.304l-4.145-10.443-18.761-6.302a184.699 184.699 0 0 0 -32.995 192.032zm332.67-18.987-13.758-11.334a157.3 157.3 0 0 1 -132.143 126.702l-1.95 11.564 12.92 15.278a185.71 185.71 0 0 0 148.505-145.808zm-162.722 131.18 3.39-14.474c-2.887.159-5.79.254-8.716.254a157.097 157.097 0 0 1 -140.04-86.209l-16.675 1.529-8.254 11.798c30.694 59.978 93.093 101.156 164.97 101.156 5.7 0 11.33-.298 16.9-.804z"/></clipPath><g clip-path="url(#a)"><path d="m143.656 167.18h3.825v359.959h-3.825z" fill="#fff"/><path d="m147.48 167.18h3.825v359.959h-3.825zm3.825 0h3.825v359.959h-3.825z" fill="#fff"/><path d="m155.13 167.18h3.825v359.959h-3.825z" fill="#fefeff"/><path d="m158.954 167.18h3.825v359.959h-3.825z" fill="#fefeff"/><path d="m162.779 167.18h3.825v359.959h-3.825zm3.825 0h3.825v359.959h-3.825z" fill="#fdfdff"/><path d="m170.428 167.18h3.825v359.959h-3.825zm3.825 0h3.825v359.959h-3.825z" fill="#fcfcff"/><path d="m178.078 167.18h3.825v359.959h-3.825z" fill="#fbfbff"/><path d="m181.902 167.18h3.825v359.959h-3.825z" fill="#fbfbff"/><path d="m185.727 167.18h3.825v359.959h-3.825z" fill="#fafaff"/><path d="m189.552 167.18h3.825v359.959h-3.825z" fill="#fafafe"/><path d="m193.377 167.18h3.825v359.959h-3.825z" fill="#f9f9fe"/><path d="m197.201 167.18h3.825v359.959h-3.825zm3.825 0h3.825v359.959h-3.825z" fill="#f8f8fe"/><path d="m204.851 167.18h3.825v359.959h-3.825z" fill="#f7f7fe"/><path d="m208.675 167.18h3.825v359.959h-3.825zm3.825 0h3.825v359.959h-3.825z" fill="#f6f6fe"/><path d="m216.325 167.18h3.825v359.959h-3.825z" fill="#f5f5fe"/><path d="m220.149 167.18h3.825v359.959h-3.825zm3.825 0h3.825v359.959h-3.825z" fill="#f4f4fe"/><path d="m227.799 167.18h3.825v359.959h-3.825z" fill="#f3f3fe"/><path d="m231.623 167.18h3.825v359.959h-3.825z" fill="#f2f2fe"/><path d="m235.448 167.18h3.825v359.959h-3.825zm3.825 0h3.825v359.959h-3.825z" fill="#f1f1fe"/><path d="m243.097 167.18h3.825v359.959h-3.825z" fill="#f0f0fe"/><path d="m246.922 167.18h3.825v359.959h-3.825z" fill="#efeffd"/><path d="m250.747 167.18h3.825v359.959h-3.825z" fill="#eeeefd"/><path d="m254.571 167.18h3.825v359.959h-3.825z" fill="#eeeefd"/><path d="m258.396 167.18h3.825v359.959h-3.825z" fill="#ededfd"/><path d="m262.221 167.18h3.825v359.959h-3.825z" fill="#ececfd"/><path d="m266.046 167.18h3.825v359.959h-3.825z" fill="#ebebfd"/><path d="m269.87 167.18h3.825v359.959h-3.825z" fill="#eaeafd"/><path d="m273.695 167.18h3.825v359.959h-3.825zm3.825 0h3.825v359.959h-3.825z" fill="#e9e9fd"/><path d="m281.344 167.18h3.825v359.959h-3.825z" fill="#e8e8fd"/><path d="m285.169 167.18h3.825v359.959h-3.825z" fill="#e7e7fd"/><path d="m288.994 167.18h3.825v359.959h-3.825z" fill="#e6e6fd"/><path d="m292.818 167.18h3.825v359.959h-3.825z" fill="#e5e5fc"/><path d="m296.643 167.18h3.825v359.959h-3.825z" fill="#e4e4fc"/><path d="m300.468 167.18h3.825v359.959h-3.825z" fill="#e3e3fc"/><path d="m304.292 167.18h3.825v359.959h-3.825z" fill="#e2e2fc"/><path d="m308.117 167.18h3.825v359.959h-3.825z" fill="#e1e1fc"/><path d="m311.942 167.18h3.825v359.959h-3.825z" fill="#e0e0fc"/><path d="m315.766 167.18h3.825v359.959h-3.825z" fill="#e0e0fc"/><path d="m319.591 167.18h3.825v359.959h-3.825z" fill="#dfdffc"/><path d="m323.416 167.18h3.825v359.959h-3.825z" fill="#dedefc"/><path d="m327.24 167.18h3.825v359.959h-3.825z" fill="#ddddfc"/><path d="m331.065 167.18h3.825v359.959h-3.825z" fill="#dcdcfb"/><path d="m334.89 167.18h3.825v359.959h-3.825z" fill="#dbdbfb"/><path d="m338.715 167.18h3.825v359.959h-3.825z" fill="#dadafb"/><path d="m342.539 167.18h3.825v359.959h-3.825z" fill="#d9d9fb"/><path d="m346.364 167.18h3.825v359.959h-3.825z" fill="#d8d8fb"/><path d="m350.189 167.18h3.825v359.959h-3.825z" fill="#d7d7fb"/><path d="m354.013 167.18h3.825v359.959h-3.825z" fill="#d6d6fb"/><path d="m357.838 167.18h3.825v359.959h-3.825z" fill="#d5d5fb"/><path d="m361.663 167.18h3.825v359.959h-3.825z" fill="#d4d4fb"/><path d="m365.487 167.18h3.825v359.959h-3.825z" fill="#d3d3fb"/><path d="m369.312 167.18h3.825v359.959h-3.825z" fill="#d2d2fb"/><path d="m373.137 167.18h3.825v359.959h-3.825z" fill="#d1d1fa"/><path d="m376.961 167.18h3.825v359.959h-3.825z" fill="#d0d0fa"/><path d="m380.786 167.18h3.825v359.959h-3.825z" fill="#cfcffa"/><path d="m384.611 167.18h3.825v359.959h-3.825z" fill="#cecefa"/><path d="m388.435 167.18h.085v359.959h-.085z" fill="#ccccfa"/><path d="m395.773 151.88h.312v375.153h-.312z" fill="#cbcbfa"/><path d="m396.085 151.88h3.825v375.153h-3.825z" fill="#cacafa"/><path d="m399.91 151.88h3.825v375.153h-3.825z" fill="#c9c9fa"/><path d="m403.734 151.88h3.825v375.153h-3.825z" fill="#c8c8fa"/><path d="m407.559 151.88h3.825v375.153h-3.825z" fill="#c7c7f9"/><path d="m411.384 151.88h3.825v375.153h-3.825z" fill="#c6c6f9"/><path d="m415.208 151.88h3.825v375.153h-3.825z" fill="#c5c5f9"/><path d="m419.033 151.88h3.825v375.153h-3.825z" fill="#c4c4f9"/><path d="m422.858 151.88h3.825v375.153h-3.825z" fill="#c3c3f9"/><path d="m426.682 151.88h3.825v375.153h-3.825z" fill="#c2c2f9"/><path d="m430.507 151.88h3.825v375.153h-3.825z" fill="#c0c0f9"/><path d="m434.332 151.88h3.825v375.153h-3.825z" fill="#bfbff9"/><path d="m438.156 151.88h3.825v375.153h-3.825z" fill="#bebef9"/><path d="m441.981 151.88h3.825v375.153h-3.825z" fill="#bdbdf8"/><path d="m445.806 151.88h3.825v375.153h-3.825z" fill="#bcbcf8"/><path d="m449.63 151.88h3.825v375.153h-3.825z" fill="#bbbbf8"/><path d="m453.455 151.88h3.825v375.153h-3.825z" fill="#babaf8"/><path d="m457.28 151.88h3.825v375.153h-3.825z" fill="#b8b8f8"/><path d="m461.104 151.88h3.825v375.153h-3.825z" fill="#b7b7f8"/><path d="m464.929 151.88h3.825v375.153h-3.825z" fill="#b6b6f8"/><path d="m468.754 151.88h3.825v375.153h-3.825z" fill="#b5b5f8"/><path d="m472.579 151.88h3.825v375.153h-3.825z" fill="#b4b4f8"/><path d="m476.403 151.88h3.825v375.153h-3.825z" fill="#b3b3f7"/><path d="m480.228 151.88h3.825v375.153h-3.825z" fill="#b1b1f7"/><path d="m484.053 151.88h3.825v375.153h-3.825z" fill="#b0b0f7"/><path d="m487.877 151.88h3.825v375.153h-3.825z" fill="#afaff7"/><path d="m491.702 151.88h3.825v375.153h-3.825z" fill="#aeaef7"/><path d="m495.527 151.88h3.825v375.153h-3.825z" fill="#adadf7"/><path d="m499.351 151.88h3.825v375.153h-3.825z" fill="#ababf7"/><path d="m503.176 151.88h3.825v375.153h-3.825z" fill="#aaaaf7"/><path d="m507.001 151.88h3.825v375.153h-3.825z" fill="#a9a9f6"/><path d="m510.825 151.88h3.825v375.153h-3.825z" fill="#a8a8f6"/><path d="m514.65 151.88h3.825v375.153h-3.825z" fill="#a7a7f6"/><path d="m518.475 151.88h3.825v375.153h-3.825z" fill="#a5a5f6"/><path d="m522.299 151.88h3.825v375.153h-3.825z" fill="#a4a4f6"/><path d="m526.124 151.88h3.825v375.153h-3.825z" fill="#a3a3f6"/><path d="m529.949 151.88h3.825v375.153h-3.825z" fill="#a2a2f6"/><path d="m533.774 151.88h3.825v375.153h-3.825z" fill="#a0a0f6"/><path d="m537.598 151.88h3.825v375.153h-3.825z" fill="#9f9ff5"/><path d="m541.423 151.88h3.825v375.153h-3.825z" fill="#9e9ef5"/><path d="m545.248 151.88h3.825v375.153h-3.825z" fill="#9d9df5"/><path d="m549.072 151.88h3.825v375.153h-3.825z" fill="#9b9bf5"/><path d="m552.897 151.88h3.825v375.153h-3.825z" fill="#9a9af5"/><path d="m556.722 151.88h3.825v375.153h-3.825z" fill="#9999f5"/><path d="m560.546 151.88h3.825v375.153h-3.825z" fill="#9898f5"/><path d="m564.371 151.88h3.825v375.153h-3.825z" fill="#9696f5"/><path d="m568.196 151.88h3.825v375.153h-3.825z" fill="#9595f4"/><path d="m572.02 151.88h3.825v375.153h-3.825z" fill="#9494f4"/><path d="m575.845 151.88h3.825v375.153h-3.825z" fill="#9292f4"/><path d="m579.67 151.88h3.825v375.153h-3.825z" fill="#9191f4"/><path d="m583.494 151.88h3.825v375.153h-3.825z" fill="#9090f4"/><path d="m587.319 151.88h3.825v375.153h-3.825z" fill="#8f8ff4"/><path d="m591.144 151.88h3.825v375.153h-3.825z" fill="#8d8df4"/><path d="m594.968 151.88h3.825v375.153h-3.825z" fill="#8c8cf4"/><path d="m598.793 151.88h3.825v375.153h-3.825z" fill="#8b8bf3"/><path d="m602.618 151.88h3.825v375.153h-3.825z" fill="#8989f3"/><path d="m606.443 151.88h3.825v375.153h-3.825z" fill="#8888f3"/><path d="m610.267 151.88h3.825v375.153h-3.825z" fill="#8787f3"/><path d="m614.092 151.88h3.825v375.153h-3.825z" fill="#8585f3"/><path d="m617.917 151.88h3.825v375.153h-3.825z" fill="#8484f3"/><path d="m621.741 151.88h3.825v375.153h-3.825z" fill="#8383f3"/><path d="m625.566 151.88h3.825v375.153h-3.825z" fill="#8181f3"/><path d="m629.391 151.88h3.825v375.153h-3.825z" fill="#8080f2"/><path d="m633.215 151.88h3.825v375.153h-3.825z" fill="#7f7ff2"/><path d="m637.04 151.88h3.825v375.153h-3.825z" fill="#7d7df2"/><path d="m640.865 151.88h3.825v375.153h-3.825z" fill="#7c7cf2"/><path d="m177.224 26.272h.854v138.932h-.854z" fill="#fcfcff"/><path d="m178.078 26.272h3.825v138.932h-3.825z" fill="#fbfbff"/><path d="m181.902 26.272h3.825v138.932h-3.825z" fill="#fbfbff"/><path d="m185.727 26.272h3.825v138.932h-3.825z" fill="#fafaff"/><path d="m189.552 26.272h3.825v138.932h-3.825z" fill="#fafafe"/><path d="m193.377 26.272h3.825v138.932h-3.825z" fill="#f9f9fe"/><path d="m197.201 26.272h3.825v138.932h-3.825zm3.825 0h3.825v138.932h-3.825z" fill="#f8f8fe"/><path d="m204.851 26.272h3.825v138.932h-3.825z" fill="#f7f7fe"/><path d="m208.675 26.272h3.825v138.932h-3.825zm3.825 0h3.825v138.932h-3.825z" fill="#f6f6fe"/><path d="m216.325 26.272h3.825v138.932h-3.825z" fill="#f5f5fe"/><path d="m220.149 26.272h3.825v138.932h-3.825zm3.825 0h3.825v138.932h-3.825z" fill="#f4f4fe"/><path d="m227.799 26.272h3.825v138.932h-3.825z" fill="#f3f3fe"/><path d="m231.623 26.272h3.825v138.932h-3.825z" fill="#f2f2fe"/><path d="m235.448 26.272h3.825v138.932h-3.825zm3.825 0h3.825v138.932h-3.825z" fill="#f1f1fe"/><path d="m243.097 26.272h3.825v138.932h-3.825z" fill="#f0f0fe"/><path d="m246.922 26.272h3.825v138.932h-3.825z" fill="#efeffd"/><path d="m250.747 26.272h3.825v138.932h-3.825z" fill="#eeeefd"/><path d="m254.571 26.272h3.825v138.932h-3.825z" fill="#eeeefd"/><path d="m258.396 26.272h3.825v138.932h-3.825z" fill="#ededfd"/><path d="m262.221 26.272h3.825v138.932h-3.825z" fill="#ececfd"/><path d="m266.046 26.272h3.825v138.932h-3.825z" fill="#ebebfd"/><path d="m269.87 26.272h3.825v138.932h-3.825z" fill="#eaeafd"/><path d="m273.695 26.272h3.825v138.932h-3.825zm3.825 0h3.825v138.932h-3.825z" fill="#e9e9fd"/><path d="m281.344 26.272h3.825v138.932h-3.825z" fill="#e8e8fd"/><path d="m285.169 26.272h3.825v138.932h-3.825z" fill="#e7e7fd"/><path d="m288.994 26.272h3.825v138.932h-3.825z" fill="#e6e6fd"/><path d="m292.818 26.272h3.825v138.932h-3.825z" fill="#e5e5fc"/><path d="m296.643 26.272h3.825v138.932h-3.825z" fill="#e4e4fc"/><path d="m300.468 26.272h3.825v138.932h-3.825z" fill="#e3e3fc"/><path d="m304.292 26.272h3.825v138.932h-3.825z" fill="#e2e2fc"/><path d="m308.117 26.272h3.825v138.932h-3.825z" fill="#e1e1fc"/><path d="m311.942 26.272h3.825v138.932h-3.825z" fill="#e0e0fc"/><path d="m315.766 26.272h3.825v138.932h-3.825z" fill="#e0e0fc"/><path d="m319.591 26.272h3.825v138.932h-3.825z" fill="#dfdffc"/><path d="m323.416 26.272h3.825v138.932h-3.825z" fill="#dedefc"/><path d="m327.24 26.272h3.825v138.932h-3.825z" fill="#ddddfc"/><path d="m331.065 26.272h3.825v138.932h-3.825z" fill="#dcdcfb"/><path d="m334.89 26.272h3.825v138.932h-3.825z" fill="#dbdbfb"/><path d="m338.715 26.272h3.825v138.932h-3.825z" fill="#dadafb"/><path d="m342.539 26.272h3.825v138.932h-3.825z" fill="#d9d9fb"/><path d="m346.364 26.272h3.825v138.932h-3.825z" fill="#d8d8fb"/><path d="m350.189 26.272h3.825v138.932h-3.825z" fill="#d7d7fb"/><path d="m354.013 26.272h3.825v138.932h-3.825z" fill="#d6d6fb"/><path d="m357.838 26.272h3.825v138.932h-3.825z" fill="#d5d5fb"/><path d="m361.663 26.272h3.825v138.932h-3.825z" fill="#d4d4fb"/><path d="m365.487 26.272h3.825v138.932h-3.825z" fill="#d3d3fb"/><path d="m369.312 26.272h3.825v138.932h-3.825z" fill="#d2d2fb"/><path d="m373.137 26.272h3.825v138.932h-3.825z" fill="#d1d1fa"/><path d="m376.961 26.272h3.825v138.932h-3.825z" fill="#d0d0fa"/><path d="m380.786 26.272h3.825v138.932h-3.825z" fill="#cfcffa"/><path d="m384.611 26.272h3.825v138.932h-3.825z" fill="#cecefa"/><path d="m388.435 26.272h3.825v138.932h-3.825z" fill="#ccccfa"/><path d="m392.26 26.272h3.825v138.932h-3.825z" fill="#cbcbfa"/><path d="m396.085 26.272h3.825v138.932h-3.825z" fill="#cacafa"/><path d="m399.91 26.272h3.825v138.932h-3.825z" fill="#c9c9fa"/><path d="m403.734 26.272h3.825v138.932h-3.825z" fill="#c8c8fa"/><path d="m407.559 26.272h3.825v138.932h-3.825z" fill="#c7c7f9"/><path d="m411.384 26.272h3.825v138.932h-3.825z" fill="#c6c6f9"/><path d="m415.208 26.272h3.825v138.932h-3.825z" fill="#c5c5f9"/><path d="m419.033 26.272h3.825v138.932h-3.825z" fill="#c4c4f9"/><path d="m422.858 26.272h3.825v138.932h-3.825z" fill="#c3c3f9"/><path d="m426.682 26.272h3.825v138.932h-3.825z" fill="#c2c2f9"/><path d="m430.507 26.272h3.825v138.932h-3.825z" fill="#c0c0f9"/><path d="m434.332 26.272h3.825v138.932h-3.825z" fill="#bfbff9"/><path d="m438.156 26.272h3.825v138.932h-3.825z" fill="#bebef9"/><path d="m441.981 26.272h3.825v138.932h-3.825z" fill="#bdbdf8"/><path d="m445.806 26.272h3.825v138.932h-3.825z" fill="#bcbcf8"/><path d="m449.63 26.272h3.825v138.932h-3.825z" fill="#bbbbf8"/><path d="m453.455 26.272h3.825v138.932h-3.825z" fill="#babaf8"/><path d="m457.28 26.272h3.825v138.932h-3.825z" fill="#b8b8f8"/><path d="m461.104 26.272h3.825v138.932h-3.825z" fill="#b7b7f8"/><path d="m464.929 26.272h3.825v138.932h-3.825z" fill="#b6b6f8"/><path d="m468.754 26.272h3.825v138.932h-3.825z" fill="#b5b5f8"/><path d="m472.579 26.272h3.825v138.932h-3.825z" fill="#b4b4f8"/><path d="m476.403 26.272h3.825v138.932h-3.825z" fill="#b3b3f7"/><path d="m480.228 26.272h3.825v138.932h-3.825z" fill="#b1b1f7"/><path d="m484.053 26.272h3.825v138.932h-3.825z" fill="#b0b0f7"/><path d="m487.877 26.272h3.825v138.932h-3.825z" fill="#afaff7"/><path d="m491.702 26.272h3.825v138.932h-3.825z" fill="#aeaef7"/><path d="m495.527 26.272h3.825v138.932h-3.825z" fill="#adadf7"/><path d="m499.351 26.272h3.825v138.932h-3.825z" fill="#ababf7"/><path d="m503.176 26.272h3.825v138.932h-3.825z" fill="#aaaaf7"/><path d="m507.001 26.272h3.825v138.932h-3.825z" fill="#a9a9f6"/><path d="m510.825 26.272h3.825v138.932h-3.825z" fill="#a8a8f6"/><path d="m514.65 26.272h3.825v138.932h-3.825z" fill="#a7a7f6"/><path d="m518.475 26.272h3.825v138.932h-3.825z" fill="#a5a5f6"/><path d="m522.299 26.272h3.825v138.932h-3.825z" fill="#a4a4f6"/><path d="m526.124 26.272h3.825v138.932h-3.825z" fill="#a3a3f6"/><path d="m529.949 26.272h3.825v138.932h-3.825z" fill="#a2a2f6"/><path d="m533.774 26.272h3.825v138.932h-3.825z" fill="#a0a0f6"/><path d="m537.598 26.272h3.825v138.932h-3.825z" fill="#9f9ff5"/><path d="m541.423 26.272h3.825v138.932h-3.825z" fill="#9e9ef5"/><path d="m545.248 26.272h3.825v138.932h-3.825z" fill="#9d9df5"/><path d="m549.072 26.272h3.825v138.932h-3.825z" fill="#9b9bf5"/><path d="m552.897 26.272h3.825v138.932h-3.825z" fill="#9a9af5"/><path d="m556.722 26.272h3.825v138.932h-3.825z" fill="#9999f5"/><path d="m560.546 26.272h3.825v138.932h-3.825z" fill="#9898f5"/><path d="m564.371 26.272h3.825v138.932h-3.825z" fill="#9696f5"/><path d="m568.196 26.272h3.825v138.932h-3.825z" fill="#9595f4"/><path d="m572.02 26.272h3.825v138.932h-3.825z" fill="#9494f4"/><path d="m575.845 26.272h3.825v138.932h-3.825z" fill="#9292f4"/><path d="m579.67 26.272h3.825v138.932h-3.825z" fill="#9191f4"/><path d="m583.494 26.272h3.825v138.932h-3.825z" fill="#9090f4"/><path d="m587.319 26.272h3.825v138.932h-3.825z" fill="#8f8ff4"/><path d="m591.144 26.272h3.825v138.932h-3.825z" fill="#8d8df4"/><path d="m594.968 26.272h3.825v138.932h-3.825z" fill="#8c8cf4"/><path d="m598.793 26.272h3.271v138.932h-3.271z" fill="#8b8bf3"/></g><path d="m335.834 171.461v-14.703h4.341a6.828 6.828 0 0 1 3.46.867 5.913 5.913 0 0 1 2.336 2.465 7.815 7.815 0 0 1 .83 3.657v.736a7.781 7.781 0 0 1 -.834 3.675 5.843 5.843 0 0 1 -2.374 2.445 7.112 7.112 0 0 1 -3.529.858zm2.553-12.644v10.584h1.669a3.84 3.84 0 0 0 3.084-1.254 5.463 5.463 0 0 0 1.095-3.604v-.816a5.59 5.59 0 0 0 -1.04-3.648 3.687 3.687 0 0 0 -3.02-1.261zm15.531 12.845a5.073 5.073 0 0 1 -3.78-1.469 5.327 5.327 0 0 1 -1.45-3.913v-.303a6.558 6.558 0 0 1 .63-2.923 4.797 4.797 0 0 1 1.773-2.004 4.692 4.692 0 0 1 2.546-.717 4.284 4.284 0 0 1 3.447 1.422 6.022 6.022 0 0 1 1.217 4.031v.99h-7.14a3.29 3.29 0 0 0 .906 2.14 2.715 2.715 0 0 0 1.993.789 3.33 3.33 0 0 0 2.748-1.363l1.323 1.26a4.43 4.43 0 0 1 -1.752 1.52 5.482 5.482 0 0 1 -2.46.54zm-.292-9.36a2.065 2.065 0 0 0 -1.63.706 3.674 3.674 0 0 0 -.794 1.97h4.677v-.183a2.983 2.983 0 0 0 -.657-1.863 2.05 2.05 0 0 0 -1.596-.63zm10.304 6.048 2.311-7.816h2.536l-3.788 10.927h-2.13l-3.82-10.927h2.547zm11.054 3.312a5.073 5.073 0 0 1 -3.78-1.469 5.327 5.327 0 0 1 -1.45-3.913v-.303a6.557 6.557 0 0 1 .63-2.923 4.797 4.797 0 0 1 1.773-2.004 4.692 4.692 0 0 1 2.546-.717 4.284 4.284 0 0 1 3.447 1.422 6.022 6.022 0 0 1 1.217 4.031v.99h-7.14a3.29 3.29 0 0 0 .906 2.14 2.715 2.715 0 0 0 1.993.789 3.33 3.33 0 0 0 2.748-1.363l1.323 1.26a4.43 4.43 0 0 1 -1.752 1.52 5.482 5.482 0 0 1 -2.46.54zm-.292-9.36a2.065 2.065 0 0 0 -1.63.706 3.674 3.674 0 0 0 -.794 1.97h4.677v-.183a2.983 2.983 0 0 0 -.657-1.863 2.05 2.05 0 0 0 -1.596-.63zm9.191 9.159h-2.454v-15.51h2.454zm2.212-5.564a6.435 6.435 0 0 1 .635-2.894 4.658 4.658 0 0 1 1.788-1.98 5.048 5.048 0 0 1 2.646-.69 4.777 4.777 0 0 1 3.59 1.422 5.604 5.604 0 0 1 1.49 3.78l.01.574a6.497 6.497 0 0 1 -.621 2.888 4.585 4.585 0 0 1 -1.777 1.969 5.078 5.078 0 0 1 -2.672.696 4.742 4.742 0 0 1 -3.702-1.54 5.899 5.899 0 0 1 -1.387-4.103zm2.454.212a4.396 4.396 0 0 0 .696 2.64 2.263 2.263 0 0 0 1.938.955 2.24 2.24 0 0 0 1.934-.969 4.86 4.86 0 0 0 .693-2.838 4.34 4.34 0 0 0 -.713-2.626 2.401 2.401 0 0 0 -3.843-.016 4.778 4.778 0 0 0 -.705 2.854zm19.347.001a6.503 6.503 0 0 1 -1.15 4.044 4.001 4.001 0 0 1 -5.97.327v5.181h-2.453v-15.128h2.26l.103 1.11a3.607 3.607 0 0 1 2.938-1.311 3.727 3.727 0 0 1 3.137 1.489 6.685 6.685 0 0 1 1.135 4.135zm-2.443-.213a4.543 4.543 0 0 0 -.652-2.595 2.118 2.118 0 0 0 -1.863-.96 2.258 2.258 0 0 0 -2.162 1.243v4.847a2.282 2.282 0 0 0 2.182 1.273 2.117 2.117 0 0 0 1.834-.945 5.025 5.025 0 0 0 .661-2.863zm9.332 5.765a5.073 5.073 0 0 1 -3.78-1.469 5.327 5.327 0 0 1 -1.45-3.913v-.303a6.558 6.558 0 0 1 .63-2.923 4.797 4.797 0 0 1 1.773-2.004 4.692 4.692 0 0 1 2.546-.717 4.284 4.284 0 0 1 3.447 1.422 6.022 6.022 0 0 1 1.217 4.031v.99h-7.14a3.29 3.29 0 0 0 .905 2.14 2.715 2.715 0 0 0 1.994.789 3.33 3.33 0 0 0 2.747-1.363l1.323 1.26a4.43 4.43 0 0 1 -1.752 1.52 5.482 5.482 0 0 1 -2.46.54zm-.292-9.36a2.065 2.065 0 0 0 -1.63.706 3.674 3.674 0 0 0 -.795 1.97h4.677v-.183a2.983 2.983 0 0 0 -.657-1.863 2.05 2.05 0 0 0 -1.595-.63zm12.299.473a6.163 6.163 0 0 0 -1-.08 2.253 2.253 0 0 0 -2.273 1.293v7.473h-2.453v-10.927h2.343l.06 1.221a2.765 2.765 0 0 1 2.464-1.422 2.291 2.291 0 0 1 .87.142zm-86.61 31.98a5.322 5.322 0 0 1 -1.737 3.673 5.927 5.927 0 0 1 -4.03 1.316 5.74 5.74 0 0 1 -3.096-.832 5.465 5.465 0 0 1 -2.064-2.37 8.535 8.535 0 0 1 -.757-3.563v-1.374a8.614 8.614 0 0 1 .737-3.666 5.555 5.555 0 0 1 2.115-2.443 5.89 5.89 0 0 1 3.186-.858 5.68 5.68 0 0 1 3.918 1.316 5.504 5.504 0 0 1 1.728 3.733h-2.545a3.633 3.633 0 0 0 -.924-2.288 3.062 3.062 0 0 0 -2.177-.701 2.982 2.982 0 0 0 -2.56 1.217 6.094 6.094 0 0 0 -.914 3.573v1.305a6.463 6.463 0 0 0 .854 3.64 2.831 2.831 0 0 0 2.498 1.251 3.302 3.302 0 0 0 2.263-.677 3.532 3.532 0 0 0 .96-2.252zm1.586-.776a6.436 6.436 0 0 1 .635-2.894 4.659 4.659 0 0 1 1.788-1.98 5.048 5.048 0 0 1 2.646-.69 4.777 4.777 0 0 1 3.59 1.422 5.604 5.604 0 0 1 1.49 3.779l.01.575a6.497 6.497 0 0 1 -.621 2.887 4.585 4.585 0 0 1 -1.777 1.97 5.078 5.078 0 0 1 -2.672.696 4.742 4.742 0 0 1 -3.702-1.54 5.899 5.899 0 0 1 -1.387-4.104zm2.454.212a4.396 4.396 0 0 0 .696 2.64 2.263 2.263 0 0 0 1.938.955 2.24 2.24 0 0 0 1.934-.969 4.86 4.86 0 0 0 .692-2.838 4.34 4.34 0 0 0 -.712-2.626 2.401 2.401 0 0 0 -3.843-.016 4.778 4.778 0 0 0 -.705 2.854zm12.086-5.575.07 1.141a3.931 3.931 0 0 1 3.15-1.342 3.017 3.017 0 0 1 3 1.677 3.871 3.871 0 0 1 3.355-1.677 3.4 3.4 0 0 1 2.69 1 4.413 4.413 0 0 1 .905 2.949v7.179h-2.456v-7.11a2.172 2.172 0 0 0 -.453-1.525 1.991 1.991 0 0 0 -1.505-.485 2.05 2.05 0 0 0 -1.37.45 2.39 2.39 0 0 0 -.74 1.176l.008 7.494h-2.453v-7.19a1.75 1.75 0 0 0 -1.97-1.93 2.162 2.162 0 0 0 -2.09 1.202v7.918h-2.453v-10.927zm17.995 0 .07 1.141a3.93 3.93 0 0 1 3.151-1.342 3.017 3.017 0 0 1 3 1.677 3.871 3.871 0 0 1 3.354-1.677 3.4 3.4 0 0 1 2.69 1 4.412 4.412 0 0 1 .905 2.949v7.179h-2.455v-7.11a2.172 2.172 0 0 0 -.454-1.525 1.991 1.991 0 0 0 -1.504-.485 2.05 2.05 0 0 0 -1.37.45 2.39 2.39 0 0 0 -.74 1.176l.008 7.494h-2.454v-7.19a1.75 1.75 0 0 0 -1.969-1.93 2.162 2.162 0 0 0 -2.09 1.202v7.918h-2.454v-10.927zm22.31 9.856a3.798 3.798 0 0 1 -3.069 1.272 3.39 3.39 0 0 1 -2.692-1.04 4.428 4.428 0 0 1 -.914-3.009v-7.08h2.453v7.05q0 2.08 1.728 2.08a2.426 2.426 0 0 0 2.414-1.282v-7.847h2.453v10.927h-2.312zm7.15-9.856.07 1.263a3.921 3.921 0 0 1 3.18-1.464q3.415 0 3.476 3.907v7.22h-2.456v-7.079a2.246 2.246 0 0 0 -.45-1.54 1.883 1.883 0 0 0 -1.468-.5 2.366 2.366 0 0 0 -2.21 1.343v7.777h-2.456v-10.927zm9.23-2.847a1.32 1.32 0 0 1 .358-.947 1.35 1.35 0 0 1 1.025-.376 1.372 1.372 0 0 1 1.03.376 1.315 1.315 0 0 1 .364.947 1.282 1.282 0 0 1 -.363.93 1.379 1.379 0 0 1 -1.031.373 1.356 1.356 0 0 1 -1.025-.372 1.287 1.287 0 0 1 -.358-.931zm2.604 13.774h-2.454v-10.927h2.454zm5.748-13.582v2.655h1.929v1.818h-1.93v6.1a1.334 1.334 0 0 0 .248.903 1.146 1.146 0 0 0 .883.278 3.698 3.698 0 0 0 .859-.101v1.898a6.034 6.034 0 0 1 -1.615.232q-2.828 0-2.828-3.12v-6.19h-1.796v-1.818h1.796v-2.655zm7.623 10.069 2.222-7.414h2.615l-4.341 12.584q-1.002 2.754-3.394 2.756a4.39 4.39 0 0 1 -1.181-.183v-1.907l.464.03a2.383 2.383 0 0 0 1.399-.338 2.25 2.25 0 0 0 .743-1.135l.352-.94-3.836-10.867h2.646zm-169.131 65.043v5.454h-2.553v-14.704h5.624a5.687 5.687 0 0 1 3.914 1.283 4.324 4.324 0 0 1 1.449 3.399 4.172 4.172 0 0 1 -1.418 3.365 5.964 5.964 0 0 1 -3.976 1.203zm0-2.06h3.071a3.023 3.023 0 0 0 2.08-.641 2.356 2.356 0 0 0 .717-1.854 2.543 2.543 0 0 0 -.726-1.903 2.8 2.8 0 0 0 -2-.732h-3.142zm16.845 7.514a3.805 3.805 0 0 1 -.28-1.02 4.132 4.132 0 0 1 -5.556.283 3.008 3.008 0 0 1 -1.04-2.323 3.102 3.102 0 0 1 1.297-2.681 6.301 6.301 0 0 1 3.712-.934h1.504v-.717a1.911 1.911 0 0 0 -.475-1.358 1.876 1.876 0 0 0 -1.443-.511 2.151 2.151 0 0 0 -1.374.42 1.298 1.298 0 0 0 -.535 1.064h-2.454a2.73 2.73 0 0 1 .596-1.681 3.973 3.973 0 0 1 1.621-1.226 5.687 5.687 0 0 1 2.288-.445 4.581 4.581 0 0 1 3.06.965 3.433 3.433 0 0 1 1.17 2.71v4.93a5.603 5.603 0 0 0 .414 2.351v.173zm-2.694-1.768a2.775 2.775 0 0 0 1.367-.354 2.347 2.347 0 0 0 .964-.95v-2.059h-1.323a3.62 3.62 0 0 0 -2.05.476 1.535 1.535 0 0 0 -.686 1.343 1.437 1.437 0 0 0 .469 1.126 1.825 1.825 0 0 0 1.259.418zm13.075-6.919a6.163 6.163 0 0 0 -1-.079 2.253 2.253 0 0 0 -2.272 1.292v7.474h-2.454v-10.927h2.343l.06 1.221a2.765 2.765 0 0 1 2.464-1.423 2.291 2.291 0 0 1 .87.142zm5.13-4.895v2.655h1.93v1.818h-1.93v6.1a1.334 1.334 0 0 0 .248.902 1.146 1.146 0 0 0 .883.28 3.697 3.697 0 0 0 .858-.103v1.899a6.034 6.034 0 0 1 -1.615.232q-2.827 0-2.827-3.12v-6.19h-1.797v-1.818h1.797v-2.655zm3.81-.193a1.32 1.32 0 0 1 .358-.946 1.35 1.35 0 0 1 1.025-.377 1.372 1.372 0 0 1 1.03.377 1.314 1.314 0 0 1 .363.946 1.281 1.281 0 0 1 -.362.932 1.379 1.379 0 0 1 -1.031.372 1.356 1.356 0 0 1 -1.025-.372 1.287 1.287 0 0 1 -.358-.932zm2.604 13.775h-2.454v-10.927h2.454zm7.159-1.757a2.228 2.228 0 0 0 1.527-.535 1.84 1.84 0 0 0 .646-1.323h2.312a3.591 3.591 0 0 1 -.638 1.902 4.15 4.15 0 0 1 -1.615 1.398 4.79 4.79 0 0 1 -2.2.516 4.65 4.65 0 0 1 -3.636-1.485 5.883 5.883 0 0 1 -1.343-4.1v-.251a5.783 5.783 0 0 1 1.332-3.994 4.618 4.618 0 0 1 3.635-1.5 4.493 4.493 0 0 1 3.177 1.135 4.068 4.068 0 0 1 1.288 2.985h-2.312a2.252 2.252 0 0 0 -.642-1.544 2.062 2.062 0 0 0 -1.53-.607 2.155 2.155 0 0 0 -1.837.863 4.401 4.401 0 0 0 -.657 2.622v.394a4.466 4.466 0 0 0 .641 2.65 2.156 2.156 0 0 0 1.852.874zm6.343-12.018a1.32 1.32 0 0 1 .358-.946 1.35 1.35 0 0 1 1.025-.377 1.372 1.372 0 0 1 1.03.377 1.314 1.314 0 0 1 .363.946 1.281 1.281 0 0 1 -.362.932 1.379 1.379 0 0 1 -1.031.372 1.356 1.356 0 0 1 -1.025-.372 1.287 1.287 0 0 1 -.358-.932zm2.604 13.775h-2.454v-10.927h2.454zm12.241-5.352a6.503 6.503 0 0 1 -1.15 4.044 4.001 4.001 0 0 1 -5.97.328v5.18h-2.453v-15.127h2.261l.102 1.11a3.607 3.607 0 0 1 2.938-1.312 3.727 3.727 0 0 1 3.137 1.49 6.685 6.685 0 0 1 1.135 4.134zm-2.443-.212a4.543 4.543 0 0 0 -.652-2.596 2.118 2.118 0 0 0 -1.863-.96 2.258 2.258 0 0 0 -2.161 1.244v4.847a2.282 2.282 0 0 0 2.18 1.272 2.117 2.117 0 0 0 1.835-.945 5.025 5.025 0 0 0 .661-2.862zm11.047 5.564a3.806 3.806 0 0 1 -.281-1.02 4.132 4.132 0 0 1 -5.555.283 3.008 3.008 0 0 1 -1.04-2.323 3.102 3.102 0 0 1 1.296-2.681 6.302 6.302 0 0 1 3.713-.934h1.504v-.717a1.911 1.911 0 0 0 -.476-1.358 1.876 1.876 0 0 0 -1.442-.511 2.151 2.151 0 0 0 -1.374.42 1.298 1.298 0 0 0 -.535 1.064h-2.454a2.73 2.73 0 0 1 .595-1.681 3.973 3.973 0 0 1 1.622-1.226 5.687 5.687 0 0 1 2.287-.445 4.581 4.581 0 0 1 3.06.965 3.433 3.433 0 0 1 1.17 2.71v4.93a5.603 5.603 0 0 0 .414 2.351v.173zm-2.695-1.768a2.775 2.775 0 0 0 1.367-.354 2.347 2.347 0 0 0 .965-.95v-2.059h-1.323a3.62 3.62 0 0 0 -2.05.476 1.535 1.535 0 0 0 -.687 1.343 1.437 1.437 0 0 0 .47 1.126 1.825 1.825 0 0 0 1.258.418zm10.429-11.814v2.655h1.93v1.818h-1.93v6.1a1.334 1.334 0 0 0 .248.902 1.146 1.146 0 0 0 .883.28 3.697 3.697 0 0 0 .858-.103v1.899a6.034 6.034 0 0 1 -1.615.232q-2.827 0-2.827-3.12v-6.19h-1.797v-1.818h1.797v-2.655zm3.81-.193a1.32 1.32 0 0 1 .358-.946 1.35 1.35 0 0 1 1.025-.377 1.372 1.372 0 0 1 1.03.377 1.314 1.314 0 0 1 .364.946 1.281 1.281 0 0 1 -.363.932 1.379 1.379 0 0 1 -1.031.372 1.356 1.356 0 0 1 -1.025-.372 1.287 1.287 0 0 1 -.358-.932zm2.604 13.775h-2.454v-10.927h2.454zm2.212-5.564a6.435 6.435 0 0 1 .635-2.894 4.659 4.659 0 0 1 1.788-1.98 5.048 5.048 0 0 1 2.646-.69 4.777 4.777 0 0 1 3.59 1.422 5.604 5.604 0 0 1 1.49 3.779l.01.575a6.497 6.497 0 0 1 -.621 2.887 4.585 4.585 0 0 1 -1.777 1.97 5.078 5.078 0 0 1 -2.672.696 4.742 4.742 0 0 1 -3.701-1.54 5.899 5.899 0 0 1 -1.388-4.104zm2.454.212a4.396 4.396 0 0 0 .697 2.64 2.263 2.263 0 0 0 1.938.955 2.24 2.24 0 0 0 1.933-.969 4.86 4.86 0 0 0 .693-2.838 4.34 4.34 0 0 0 -.713-2.626 2.401 2.401 0 0 0 -3.842-.016 4.778 4.778 0 0 0 -.706 2.854zm12.058-5.575.07 1.263a3.921 3.921 0 0 1 3.18-1.465q3.414 0 3.475 3.907v7.222h-2.456v-7.08a2.246 2.246 0 0 0 -.449-1.54 1.883 1.883 0 0 0 -1.469-.5 2.366 2.366 0 0 0 -2.21 1.343v7.777h-2.456v-10.927zm-54.113 109.842 4.241 11.27 4.23-11.27h3.303v14.703h-2.544v-4.847l.252-6.485-4.343 11.332h-1.827l-4.332-11.32.252 6.473v4.847h-2.544v-14.703zm21.083 14.703a3.806 3.806 0 0 1 -.28-1.02 4.132 4.132 0 0 1 -5.555.283 3.008 3.008 0 0 1 -1.04-2.323 3.102 3.102 0 0 1 1.296-2.681 6.301 6.301 0 0 1 3.712-.934h1.505v-.716a1.911 1.911 0 0 0 -.476-1.359 1.876 1.876 0 0 0 -1.442-.51 2.151 2.151 0 0 0 -1.374.42 1.298 1.298 0 0 0 -.535 1.064h-2.454a2.73 2.73 0 0 1 .595-1.682 3.973 3.973 0 0 1 1.622-1.225 5.687 5.687 0 0 1 2.287-.445 4.581 4.581 0 0 1 3.06.964 3.433 3.433 0 0 1 1.17 2.71v4.93a5.603 5.603 0 0 0 .414 2.352v.172zm-2.694-1.768a2.776 2.776 0 0 0 1.367-.354 2.347 2.347 0 0 0 .965-.949v-2.06h-1.323a3.62 3.62 0 0 0 -2.05.476 1.535 1.535 0 0 0 -.687 1.343 1.437 1.437 0 0 0 .47 1.126 1.825 1.825 0 0 0 1.258.418zm13.077-6.917a6.163 6.163 0 0 0 -1-.08 2.253 2.253 0 0 0 -2.272 1.292v7.473h-2.453v-10.927h2.343l.06 1.221a2.764 2.764 0 0 1 2.464-1.422 2.29 2.29 0 0 1 .87.141zm5.102 4-1.09 1.121v3.564h-2.454v-15.51h2.453v8.946l.768-.96 3.02-3.403h2.947l-4.06 4.555 4.496 6.372h-2.839zm11.854 4.886a5.073 5.073 0 0 1 -3.78-1.469 5.327 5.327 0 0 1 -1.45-3.913v-.303a6.558 6.558 0 0 1 .63-2.923 4.797 4.797 0 0 1 1.773-2.004 4.692 4.692 0 0 1 2.546-.717 4.284 4.284 0 0 1 3.447 1.422 6.022 6.022 0 0 1 1.217 4.031v.99h-7.14a3.29 3.29 0 0 0 .905 2.14 2.715 2.715 0 0 0 1.994.788 3.33 3.33 0 0 0 2.747-1.362l1.323 1.26a4.43 4.43 0 0 1 -1.752 1.52 5.482 5.482 0 0 1 -2.46.54zm-.292-9.36a2.065 2.065 0 0 0 -1.63.706 3.674 3.674 0 0 0 -.795 1.97h4.677v-.183a2.983 2.983 0 0 0 -.657-1.863 2.05 2.05 0 0 0 -1.595-.63zm9.653-4.423v2.655h1.929v1.819h-1.93v6.1a1.334 1.334 0 0 0 .248.902 1.146 1.146 0 0 0 .883.279 3.697 3.697 0 0 0 .858-.102v1.898a6.036 6.036 0 0 1 -1.615.232q-2.827 0-2.827-3.119v-6.19h-1.796v-1.819h1.796v-2.655zm9.929 10.613a1.117 1.117 0 0 0 -.54-1 5.769 5.769 0 0 0 -1.794-.606 9.202 9.202 0 0 1 -2.091-.666 2.792 2.792 0 0 1 -1.836-2.575 2.907 2.907 0 0 1 1.19-2.363 4.714 4.714 0 0 1 3.03-.95 4.906 4.906 0 0 1 3.167.97 3.08 3.08 0 0 1 1.206 2.515h-2.454a1.513 1.513 0 0 0 -.524-1.177 2.013 2.013 0 0 0 -1.394-.469 2.184 2.184 0 0 0 -1.319.372 1.18 1.18 0 0 0 -.51 1 .993.993 0 0 0 .475.878 6.479 6.479 0 0 0 1.918.633 9.143 9.143 0 0 1 2.268.757 3.21 3.21 0 0 1 1.221 1.055 2.681 2.681 0 0 1 .4 1.495 2.842 2.842 0 0 1 -1.223 2.388 5.198 5.198 0 0 1 -3.201.913 5.645 5.645 0 0 1 -2.392-.484 3.95 3.95 0 0 1 -1.637-1.332 3.167 3.167 0 0 1 -.586-1.83h2.385a1.728 1.728 0 0 0 .655 1.339 2.549 2.549 0 0 0 1.606.471 2.491 2.491 0 0 0 1.475-.37 1.14 1.14 0 0 0 .505-.964zm45.119-28.601v5.453h-2.553v-14.703h5.623a5.687 5.687 0 0 1 3.914 1.283 4.324 4.324 0 0 1 1.45 3.398 4.172 4.172 0 0 1 -1.419 3.365 5.964 5.964 0 0 1 -3.975 1.204zm0-2.06h3.07a3.023 3.023 0 0 0 2.08-.642 2.356 2.356 0 0 0 .717-1.854 2.542 2.542 0 0 0 -.726-1.902 2.8 2.8 0 0 0 -2-.733h-3.141zm16.148-1.173a6.162 6.162 0 0 0 -1-.08 2.253 2.253 0 0 0 -2.272 1.293v7.473h-2.454v-10.927h2.343l.06 1.221a2.765 2.765 0 0 1 2.464-1.422 2.291 2.291 0 0 1 .87.141zm.728 3.122a6.435 6.435 0 0 1 .635-2.894 4.658 4.658 0 0 1 1.787-1.98 5.048 5.048 0 0 1 2.646-.69 4.777 4.777 0 0 1 3.591 1.422 5.604 5.604 0 0 1 1.489 3.78l.01.574a6.497 6.497 0 0 1 -.62 2.888 4.585 4.585 0 0 1 -1.777 1.969 5.078 5.078 0 0 1 -2.673.696 4.742 4.742 0 0 1 -3.701-1.54 5.899 5.899 0 0 1 -1.387-4.103zm2.453.212a4.396 4.396 0 0 0 .697 2.64 2.263 2.263 0 0 0 1.938.955 2.24 2.24 0 0 0 1.934-.969 4.86 4.86 0 0 0 .692-2.838 4.34 4.34 0 0 0 -.712-2.626 2.401 2.401 0 0 0 -3.843-.016 4.778 4.778 0 0 0 -.706 2.854zm9.323-.192a6.497 6.497 0 0 1 1.17-4.055 3.752 3.752 0 0 1 3.142-1.53 3.564 3.564 0 0 1 2.808 1.213v-5.595h2.453v15.511h-2.221l-.122-1.13a3.623 3.623 0 0 1 -2.938 1.331 3.733 3.733 0 0 1 -3.106-1.544 6.732 6.732 0 0 1 -1.186-4.201zm2.454.212a4.53 4.53 0 0 0 .641 2.6 2.078 2.078 0 0 0 1.823.933 2.317 2.317 0 0 0 2.201-1.342v-4.664a2.283 2.283 0 0 0 -2.18-1.314 2.096 2.096 0 0 0 -1.84.944 5.064 5.064 0 0 0 -.645 2.843zm16.296 4.261a3.798 3.798 0 0 1 -3.069 1.272 3.39 3.39 0 0 1 -2.692-1.04 4.428 4.428 0 0 1 -.914-3.008v-7.08h2.454v7.049q0 2.08 1.728 2.08a2.426 2.426 0 0 0 2.413-1.282v-7.847h2.454v10.927h-2.312zm9.363-.686a2.228 2.228 0 0 0 1.526-.535 1.84 1.84 0 0 0 .646-1.323h2.312a3.591 3.591 0 0 1 -.637 1.903 4.15 4.15 0 0 1 -1.615 1.398 4.79 4.79 0 0 1 -2.201.515 4.65 4.65 0 0 1 -3.635-1.484 5.883 5.883 0 0 1 -1.343-4.1v-.252a5.784 5.784 0 0 1 1.332-3.993 4.618 4.618 0 0 1 3.635-1.5 4.493 4.493 0 0 1 3.177 1.135 4.068 4.068 0 0 1 1.287 2.984h-2.312a2.252 2.252 0 0 0 -.641-1.544 2.062 2.062 0 0 0 -1.531-.606 2.155 2.155 0 0 0 -1.837.863 4.402 4.402 0 0 0 -.657 2.621v.394a4.466 4.466 0 0 0 .642 2.65 2.156 2.156 0 0 0 1.852.874zm9.411-11.825v2.655h1.93v1.819h-1.93v6.1a1.334 1.334 0 0 0 .248.902 1.146 1.146 0 0 0 .883.279 3.697 3.697 0 0 0 .858-.102v1.898a6.035 6.035 0 0 1 -1.615.232q-2.827 0-2.827-3.12v-6.19h-1.797v-1.818h1.797v-2.655zm9.929 10.614a1.117 1.117 0 0 0 -.54-1 5.769 5.769 0 0 0 -1.794-.607 9.203 9.203 0 0 1 -2.09-.666 2.792 2.792 0 0 1 -1.837-2.575 2.907 2.907 0 0 1 1.19-2.363 4.714 4.714 0 0 1 3.031-.95 4.906 4.906 0 0 1 3.166.97 3.08 3.08 0 0 1 1.206 2.515h-2.453a1.513 1.513 0 0 0 -.525-1.177 2.013 2.013 0 0 0 -1.394-.469 2.184 2.184 0 0 0 -1.318.372 1.18 1.18 0 0 0 -.511 1 .993.993 0 0 0 .475.878 6.478 6.478 0 0 0 1.919.633 9.142 9.142 0 0 1 2.267.757 3.21 3.21 0 0 1 1.221 1.055 2.681 2.681 0 0 1 .4 1.496 2.842 2.842 0 0 1 -1.223 2.387 5.198 5.198 0 0 1 -3.2.913 5.645 5.645 0 0 1 -2.392-.484 3.95 3.95 0 0 1 -1.638-1.332 3.167 3.167 0 0 1 -.586-1.83h2.385a1.728 1.728 0 0 0 .655 1.339 2.549 2.549 0 0 0 1.606.471 2.491 2.491 0 0 0 1.476-.37 1.14 1.14 0 0 0 .504-.964zm-71.041-122.577h-4.586v12.643h-2.536v-12.643h-4.544v-2.06h11.666zm5.604 12.845a5.073 5.073 0 0 1 -3.781-1.47 5.327 5.327 0 0 1 -1.45-3.913v-.303a6.558 6.558 0 0 1 .631-2.923 4.797 4.797 0 0 1 1.772-2.004 4.692 4.692 0 0 1 2.547-.717 4.284 4.284 0 0 1 3.447 1.423 6.022 6.022 0 0 1 1.216 4.03v.99h-7.139a3.29 3.29 0 0 0 .905 2.141 2.715 2.715 0 0 0 1.993.788 3.33 3.33 0 0 0 2.748-1.363l1.323 1.261a4.43 4.43 0 0 1 -1.752 1.52 5.482 5.482 0 0 1 -2.46.54zm-.292-9.36a2.065 2.065 0 0 0 -1.63.705 3.674 3.674 0 0 0 -.795 1.971h4.677v-.183a2.984 2.984 0 0 0 -.657-1.863 2.05 2.05 0 0 0 -1.595-.63zm11.066 7.402a2.227 2.227 0 0 0 1.527-.536 1.84 1.84 0 0 0 .646-1.323h2.311a3.59 3.59 0 0 1 -.637 1.903 4.15 4.15 0 0 1 -1.615 1.398 4.79 4.79 0 0 1 -2.201.516 4.65 4.65 0 0 1 -3.635-1.485 5.883 5.883 0 0 1 -1.343-4.1v-.251a5.783 5.783 0 0 1 1.332-3.994 4.618 4.618 0 0 1 3.635-1.5 4.493 4.493 0 0 1 3.177 1.135 4.068 4.068 0 0 1 1.288 2.985h-2.312a2.252 2.252 0 0 0 -.642-1.545 2.062 2.062 0 0 0 -1.531-.606 2.155 2.155 0 0 0 -1.836.863 4.401 4.401 0 0 0 -.657 2.622v.394a4.466 4.466 0 0 0 .641 2.65 2.157 2.157 0 0 0 1.852.874zm8.757-7.978a3.839 3.839 0 0 1 3.037-1.394q3.495 0 3.547 3.99v7.138h-2.456v-7.048a2.158 2.158 0 0 0 -.49-1.602 2.006 2.006 0 0 0 -1.437-.469 2.361 2.361 0 0 0 -2.201 1.314v7.805h-2.456v-15.51h2.456zm11.34-1.192.071 1.263a3.921 3.921 0 0 1 3.18-1.465q3.414 0 3.475 3.907v7.221h-2.456v-7.08a2.246 2.246 0 0 0 -.45-1.539 1.883 1.883 0 0 0 -1.468-.5 2.366 2.366 0 0 0 -2.21 1.343v7.776h-2.456v-10.926zm8.766 5.362a6.435 6.435 0 0 1 .635-2.893 4.658 4.658 0 0 1 1.787-1.98 5.048 5.048 0 0 1 2.646-.69 4.778 4.778 0 0 1 3.59 1.422 5.604 5.604 0 0 1 1.49 3.778l.01.576a6.497 6.497 0 0 1 -.62 2.887 4.585 4.585 0 0 1 -1.777 1.969 5.078 5.078 0 0 1 -2.673.697 4.742 4.742 0 0 1 -3.701-1.54 5.899 5.899 0 0 1 -1.387-4.104zm2.453.213a4.396 4.396 0 0 0 .697 2.64 2.263 2.263 0 0 0 1.938.955 2.24 2.24 0 0 0 1.934-.97 4.86 4.86 0 0 0 .692-2.838 4.34 4.34 0 0 0 -.712-2.626 2.401 2.401 0 0 0 -3.843-.015 4.778 4.778 0 0 0 -.706 2.854zm12.392 5.351h-2.454v-15.51h2.454zm2.212-5.564a6.435 6.435 0 0 1 .635-2.893 4.658 4.658 0 0 1 1.788-1.98 5.048 5.048 0 0 1 2.646-.69 4.777 4.777 0 0 1 3.59 1.422 5.604 5.604 0 0 1 1.49 3.778l.01.576a6.497 6.497 0 0 1 -.621 2.887 4.585 4.585 0 0 1 -1.777 1.969 5.078 5.078 0 0 1 -2.673.697 4.742 4.742 0 0 1 -3.7-1.54 5.899 5.899 0 0 1 -1.388-4.104zm2.453.213a4.396 4.396 0 0 0 .697 2.64 2.263 2.263 0 0 0 1.938.955 2.24 2.24 0 0 0 1.934-.97 4.86 4.86 0 0 0 .692-2.838 4.34 4.34 0 0 0 -.712-2.626 2.401 2.401 0 0 0 -3.843-.015 4.778 4.778 0 0 0 -.706 2.854zm9.35-.193a6.396 6.396 0 0 1 1.197-4.064 3.842 3.842 0 0 1 3.177-1.52 3.593 3.593 0 0 1 2.938 1.303l.11-1.101h2.213v10.592a4.403 4.403 0 0 1 -1.339 3.394 5.099 5.099 0 0 1 -3.61 1.243 5.838 5.838 0 0 1 -2.348-.5 4.167 4.167 0 0 1 -1.74-1.31l1.16-1.473a3.5 3.5 0 0 0 2.786 1.343 2.712 2.712 0 0 0 1.93-.661 2.534 2.534 0 0 0 .707-1.945v-.737a3.616 3.616 0 0 1 -2.827 1.182 3.83 3.83 0 0 1 -3.137-1.525 6.603 6.603 0 0 1 -1.217-4.22zm2.445.213a4.409 4.409 0 0 0 .67 2.59 2.166 2.166 0 0 0 1.865.943 2.36 2.36 0 0 0 2.201-1.272v-4.806a2.327 2.327 0 0 0 -2.181-1.243 2.174 2.174 0 0 0 -1.885.96 4.931 4.931 0 0 0 -.67 2.828zm13.532 1.818 2.222-7.413h2.615l-4.34 12.584q-1.003 2.754-3.395 2.756a4.39 4.39 0 0 1 -1.181-.183v-1.908l.465.031a2.383 2.383 0 0 0 1.398-.338 2.25 2.25 0 0 0 .743-1.135l.352-.94-3.836-10.867h2.646z" fill="#7c7cf2"/><g clip-path="url(#b)"><path d="m229.203 345.236h.905v114.483h-.905z" fill="#7c7bef"/><path d="m230.108 345.236h2.646v114.483h-2.646z" fill="#7c7aef"/><path d="m232.754 345.236h2.646v114.483h-2.646zm2.647 0h2.646v114.483h-2.646z" fill="#7c7aee"/><path d="m238.047 345.236h2.646v114.483h-2.646z" fill="#7c7aed"/><path d="m240.693 345.236h2.646v114.483h-2.646z" fill="#7c79ed"/><path d="m243.339 345.236h2.646v114.483h-2.646zm2.646 0h2.646v114.483h-2.646z" fill="#7c79ec"/><path d="m248.632 345.236h2.646v114.483h-2.646z" fill="#7c78eb"/><path d="m251.278 345.236h2.646v114.483h-2.646zm2.646 0h2.646v114.483h-2.646z" fill="#7c78ea"/><path d="m256.57 345.236h2.646v114.483h-2.646z" fill="#7c77e9"/><path d="m259.216 345.236h2.646v114.483h-2.646zm2.647 0h2.646v114.483h-2.646z" fill="#7c77e8"/><path d="m264.509 345.236h2.646v114.483h-2.646z" fill="#7c76e7"/><path d="m267.155 345.236h2.646v114.483h-2.646zm2.646 0h2.646v114.483h-2.646z" fill="#7c76e6"/><path d="m272.447 345.236h2.646v114.483h-2.646z" fill="#7c75e5"/><path d="m275.094 345.236h2.646v114.483h-2.646z" fill="#7c75e4"/><path d="m277.74 345.236h2.646v114.483h-2.646zm2.646 0h2.646v114.483h-2.646z" fill="#7d74e3"/><path d="m283.032 345.236h2.646v114.483h-2.646z" fill="#7d74e2"/><path d="m285.678 345.236h2.646v114.483h-2.646z" fill="#7d73e1"/><path d="m288.325 345.236h2.646v114.483h-2.646z" fill="#7d73e0"/><path d="m290.971 345.236h2.646v114.483h-2.646zm2.646 0h2.646v114.483h-2.646z" fill="#7d72df"/><path d="m296.263 345.236h2.646v114.483h-2.646z" fill="#7d72de"/><path d="m298.909 345.236h2.646v114.483h-2.646z" fill="#7d71dd"/><path d="m301.556 345.236h2.646v114.483h-2.646z" fill="#7d71dc"/><path d="m304.202 345.236h2.646v114.483h-2.646z" fill="#7d70db"/><path d="m306.848 345.236h2.646v114.483h-2.646z" fill="#7d70da"/><path d="m309.494 345.236h2.646v114.483h-2.646z" fill="#7d6fda"/><path d="m312.14 345.236h2.646v114.483h-2.646z" fill="#7d6fd9"/><path d="m314.787 345.236h2.646v114.483h-2.646z" fill="#7d6fd8"/><path d="m317.433 345.236h2.646v114.483h-2.646z" fill="#7d6ed7"/><path d="m320.079 345.236h2.646v114.483h-2.646z" fill="#7d6ed6"/><path d="m322.725 345.236h2.646v114.483h-2.646z" fill="#7d6dd5"/><path d="m325.371 345.236h2.646v114.483h-2.646z" fill="#7d6dd4"/><path d="m328.018 345.236h2.646v114.483h-2.646z" fill="#7d6cd3"/><path d="m330.664 345.236h2.646v114.483h-2.646z" fill="#7d6cd2"/><path d="m333.31 345.236h2.646v114.483h-2.646z" fill="#7d6bd1"/><path d="m335.956 345.236h2.646v114.483h-2.646z" fill="#7d6bd0"/><path d="m338.602 345.236h2.646v114.483h-2.646z" fill="#7d6ad0"/><path d="m341.249 345.236h2.646v114.483h-2.646z" fill="#7d6acf"/><path d="m343.895 345.236h2.646v114.483h-2.646z" fill="#7d69ce"/><path d="m346.541 345.236h2.646v114.483h-2.646z" fill="#7d69cd"/><path d="m349.187 345.236h2.646v114.483h-2.646z" fill="#7d68cc"/><path d="m351.833 345.236h2.646v114.483h-2.646z" fill="#7d68cb"/><path d="m354.48 345.236h2.646v114.483h-2.646z" fill="#7d67ca"/><path d="m357.126 345.236h2.646v114.483h-2.646z" fill="#7d67c9"/><path d="m359.772 345.236h2.646v114.483h-2.646z" fill="#7e66c8"/><path d="m362.418 345.236h2.646v114.483h-2.646z" fill="#7e66c7"/><path d="m365.064 345.236h2.646v114.483h-2.646z" fill="#7e65c6"/><path d="m367.711 345.236h2.646v114.483h-2.646z" fill="#7e65c5"/><path d="m370.357 345.236h2.646v114.483h-2.646z" fill="#7e64c4"/><path d="m373.003 345.236h2.646v114.483h-2.646z" fill="#7e64c3"/><path d="m375.649 345.236h2.646v114.483h-2.646z" fill="#7e63c2"/><path d="m378.295 345.236h2.646v114.483h-2.646z" fill="#7e63c1"/><path d="m380.942 345.236h2.646v114.483h-2.646z" fill="#7e62c0"/><path d="m383.588 345.236h2.646v114.483h-2.646z" fill="#7e62bf"/><path d="m386.234 345.236h2.646v114.483h-2.646z" fill="#7e61be"/><path d="m388.88 345.236h2.646v114.483h-2.646z" fill="#7e60bc"/><path d="m391.526 345.236h2.646v114.483h-2.646z" fill="#7e60bb"/><path d="m394.173 345.236h2.646v114.483h-2.646z" fill="#7e5fba"/><path d="m396.819 345.236h2.646v114.483h-2.646z" fill="#7e5fb9"/><path d="m399.465 345.236h2.646v114.483h-2.646z" fill="#7e5eb8"/><path d="m402.111 345.236h2.646v114.483h-2.646z" fill="#7e5eb7"/><path d="m404.757 345.236h2.646v114.483h-2.646z" fill="#7e5db6"/><path d="m407.404 345.236h2.646v114.483h-2.646z" fill="#7e5db5"/><path d="m410.05 345.236h1.024v114.483h-1.024z" fill="#7e5cb4"/><path d="m414.37 303.151h.972v153.544h-.972z" fill="#7e5bb3"/><path d="m415.342 303.151h2.646v153.544h-2.646z" fill="#7e5bb2"/><path d="m417.988 303.151h2.646v153.544h-2.646z" fill="#7e5ab0"/><path d="m420.635 303.151h2.646v153.544h-2.646z" fill="#7e5aaf"/><path d="m423.281 303.151h2.646v153.544h-2.646z" fill="#7e59ae"/><path d="m425.927 303.151h2.646v153.544h-2.646z" fill="#7e59ad"/><path d="m428.573 303.151h2.646v153.544h-2.646z" fill="#7e58ac"/><path d="m431.219 303.151h2.646v153.544h-2.646z" fill="#7f57ab"/><path d="m433.865 303.151h2.646v153.544h-2.646z" fill="#7f57aa"/><path d="m436.512 303.151h2.646v153.544h-2.646z" fill="#7f56a9"/><path d="m439.158 303.151h2.646v153.544h-2.646z" fill="#7f56a7"/><path d="m441.804 303.151h2.646v153.544h-2.646z" fill="#7f55a6"/><path d="m444.45 303.151h2.646v153.544h-2.646z" fill="#7f54a5"/><path d="m447.096 303.151h2.646v153.544h-2.646z" fill="#7f54a4"/><path d="m449.743 303.151h2.646v153.544h-2.646z" fill="#7f53a3"/><path d="m452.389 303.151h2.646v153.544h-2.646z" fill="#7f53a2"/><path d="m455.035 303.151h2.646v153.544h-2.646z" fill="#7f52a0"/><path d="m457.681 303.151h2.646v153.544h-2.646z" fill="#7f519f"/><path d="m460.327 303.151h2.646v153.544h-2.646z" fill="#7f519e"/><path d="m462.974 303.151h2.646v153.544h-2.646z" fill="#7f509d"/><path d="m465.62 303.151h2.646v153.544h-2.646z" fill="#7f509c"/><path d="m468.266 303.151h2.646v153.544h-2.646z" fill="#7f4f9a"/><path d="m470.912 303.151h2.646v153.544h-2.646z" fill="#7f4e99"/><path d="m473.558 303.151h2.646v153.544h-2.646z" fill="#7f4e98"/><path d="m476.205 303.151h2.646v153.544h-2.646z" fill="#7f4d97"/><path d="m478.851 303.151h2.646v153.544h-2.646z" fill="#7f4d96"/><path d="m481.497 303.151h2.646v153.544h-2.646z" fill="#7f4c94"/><path d="m484.143 303.151h2.646v153.544h-2.646z" fill="#7f4b93"/><path d="m486.789 303.151h2.646v153.544h-2.646z" fill="#7f4b92"/><path d="m489.436 303.151h2.646v153.544h-2.646z" fill="#7f4a91"/><path d="m492.082 303.151h2.646v153.544h-2.646z" fill="#804990"/><path d="m494.728 303.151h2.646v153.544h-2.646z" fill="#80498e"/><path d="m497.374 303.151h2.646v153.544h-2.646z" fill="#80488d"/><path d="m500.02 303.151h2.646v153.544h-2.646z" fill="#80478c"/><path d="m502.667 303.151h2.646v153.544h-2.646z" fill="#80478b"/><path d="m505.313 303.151h2.646v153.544h-2.646z" fill="#804689"/><path d="m507.959 303.151h2.646v153.544h-2.646z" fill="#804588"/><path d="m510.605 303.151h2.646v153.544h-2.646z" fill="#804587"/><path d="m513.251 303.151h2.646v153.544h-2.646z" fill="#804485"/><path d="m515.898 303.151h2.646v153.544h-2.646z" fill="#804484"/><path d="m518.544 303.151h2.646v153.544h-2.646z" fill="#804383"/><path d="m521.19 303.151h2.646v153.544h-2.646z" fill="#804282"/><path d="m523.836 303.151h2.646v153.544h-2.646z" fill="#804280"/><path d="m526.482 303.151h2.646v153.544h-2.646z" fill="#80417f"/><path d="m529.129 303.151h2.646v153.544h-2.646z" fill="#80407e"/><path d="m531.775 303.151h2.646v153.544h-2.646z" fill="#80407d"/><path d="m534.421 303.151h2.646v153.544h-2.646z" fill="#803f7b"/><path d="m537.067 303.151h2.646v153.544h-2.646z" fill="#803e7a"/><path d="m539.713 303.151h2.646v153.544h-2.646z" fill="#803e79"/><path d="m542.36 303.151h2.646v153.544h-2.646z" fill="#803d77"/><path d="m545.006 303.151h2.646v153.544h-2.646z" fill="#803c76"/><path d="m547.652 303.151h2.646v153.544h-2.646z" fill="#803c75"/><path d="m550.298 303.151h2.646v153.544h-2.646z" fill="#813b73"/><path d="m552.944 303.151h2.646v153.544h-2.646z" fill="#813a72"/><path d="m555.591 303.151h2.646v153.544h-2.646z" fill="#813a71"/><path d="m558.237 303.151h2.646v153.544h-2.646z" fill="#81396f"/><path d="m560.883 303.151h2.646v153.544h-2.646z" fill="#81386e"/><path d="m563.529 303.151h2.646v153.544h-2.646z" fill="#81376d"/><path d="m566.175 303.151h2.646v153.544h-2.646z" fill="#81376b"/><path d="m568.822 303.151h2.646v153.544h-2.646z" fill="#81366a"/><path d="m571.468 303.151h2.646v153.544h-2.646z" fill="#813569"/><path d="m574.114 303.151h1.68v153.544h-1.68z" fill="#813567"/><path d="m208.939 151.885h2.646v192.032h-2.646zm2.646 0h2.646v192.032h-2.646zm2.646 0h2.646v192.032h-2.646z" fill="#7c7cf2"/><path d="m216.877 151.885h2.646v192.032h-2.646z" fill="#7c7cf1"/><path d="m219.523 151.885h2.646v192.032h-2.646z" fill="#7c7bf1"/><path d="m222.17 151.885h2.646v192.032h-2.646zm2.646 0h2.646v192.032h-2.646z" fill="#7c7bf0"/><path d="m227.462 151.885h2.646v192.032h-2.646z" fill="#7c7bef"/><path d="m230.108 151.885h2.646v192.032h-2.646z" fill="#7c7aef"/><path d="m232.754 151.885h2.646v192.032h-2.646zm2.647 0h2.646v192.032h-2.646z" fill="#7c7aee"/><path d="m238.047 151.885h2.646v192.032h-2.646z" fill="#7c7aed"/><path d="m240.693 151.885h2.646v192.032h-2.646z" fill="#7c79ed"/><path d="m243.339 151.885h2.646v192.032h-2.646zm2.646 0h2.646v192.032h-2.646z" fill="#7c79ec"/><path d="m248.632 151.885h2.646v192.032h-2.646z" fill="#7c78eb"/><path d="m251.278 151.885h2.646v192.032h-2.646zm2.646 0h2.646v192.032h-2.646z" fill="#7c78ea"/><path d="m256.57 151.885h2.646v192.032h-2.646z" fill="#7c77e9"/><path d="m259.216 151.885h2.646v192.032h-2.646zm2.647 0h2.646v192.032h-2.646z" fill="#7c77e8"/><path d="m264.509 151.885h2.646v192.032h-2.646z" fill="#7c76e7"/><path d="m267.155 151.885h2.646v192.032h-2.646zm2.646 0h2.646v192.032h-2.646z" fill="#7c76e6"/><path d="m272.447 151.885h2.646v192.032h-2.646z" fill="#7c75e5"/><path d="m275.094 151.885h2.646v192.032h-2.646z" fill="#7c75e4"/><path d="m277.74 151.885h.652v192.032h-.652z" fill="#7d74e3"/><path d="m481.416 119.734h.081v179.536h-.081z" fill="#7f4d96"/><path d="m481.497 119.734h2.646v179.536h-2.646z" fill="#7f4c94"/><path d="m484.143 119.734h2.646v179.536h-2.646z" fill="#7f4b93"/><path d="m486.789 119.734h2.646v179.536h-2.646z" fill="#7f4b92"/><path d="m489.436 119.734h2.646v179.536h-2.646z" fill="#7f4a91"/><path d="m492.082 119.734h2.646v179.536h-2.646z" fill="#804990"/><path d="m494.728 119.734h2.646v179.536h-2.646z" fill="#80498e"/><path d="m497.374 119.734h2.646v179.536h-2.646z" fill="#80488d"/><path d="m500.02 119.734h2.646v179.536h-2.646z" fill="#80478c"/><path d="m502.667 119.734h2.646v179.536h-2.646z" fill="#80478b"/><path d="m505.313 119.734h2.646v179.536h-2.646z" fill="#804689"/><path d="m507.959 119.734h2.646v179.536h-2.646z" fill="#804588"/><path d="m510.605 119.734h2.646v179.536h-2.646z" fill="#804587"/><path d="m513.251 119.734h2.646v179.536h-2.646z" fill="#804485"/><path d="m515.898 119.734h2.646v179.536h-2.646z" fill="#804484"/><path d="m518.544 119.734h2.646v179.536h-2.646z" fill="#804383"/><path d="m521.19 119.734h2.646v179.536h-2.646z" fill="#804282"/><path d="m523.836 119.734h2.646v179.536h-2.646z" fill="#804280"/><path d="m526.482 119.734h2.646v179.536h-2.646z" fill="#80417f"/><path d="m529.129 119.734h2.646v179.536h-2.646z" fill="#80407e"/><path d="m531.775 119.734h2.646v179.536h-2.646z" fill="#80407d"/><path d="m534.421 119.734h2.646v179.536h-2.646z" fill="#803f7b"/><path d="m537.067 119.734h2.646v179.536h-2.646z" fill="#803e7a"/><path d="m539.713 119.734h2.646v179.536h-2.646z" fill="#803e79"/><path d="m542.36 119.734h2.646v179.536h-2.646z" fill="#803d77"/><path d="m545.006 119.734h2.646v179.536h-2.646z" fill="#803c76"/><path d="m547.652 119.734h2.646v179.536h-2.646z" fill="#803c75"/><path d="m550.298 119.734h2.646v179.536h-2.646z" fill="#813b73"/><path d="m552.944 119.734h2.646v179.536h-2.646z" fill="#813a72"/><path d="m555.591 119.734h2.646v179.536h-2.646z" fill="#813a71"/><path d="m558.237 119.734h2.646v179.536h-2.646z" fill="#81396f"/><path d="m560.883 119.734h2.646v179.536h-2.646z" fill="#81386e"/><path d="m563.529 119.734h2.646v179.536h-2.646z" fill="#81376d"/><path d="m566.175 119.734h2.646v179.536h-2.646z" fill="#81376b"/><path d="m568.822 119.734h2.646v179.536h-2.646z" fill="#81366a"/><path d="m571.468 119.734h2.646v179.536h-2.646z" fill="#813569"/><path d="m574.114 119.734h2.646v179.536h-2.646z" fill="#813567"/><path d="m576.76 119.734h2.646v179.536h-2.646z" fill="#813466"/><path d="m266.054 89.251h1.101v69.23h-1.101z" fill="#7c76e7"/><path d="m267.155 89.251h2.646v69.23h-2.646zm2.646 0h2.646v69.23h-2.646z" fill="#7c76e6"/><path d="m272.447 89.251h2.646v69.23h-2.646z" fill="#7c75e5"/><path d="m275.094 89.251h2.646v69.23h-2.646z" fill="#7c75e4"/><path d="m277.74 89.251h2.646v69.23h-2.646zm2.646 0h2.646v69.23h-2.646z" fill="#7d74e3"/><path d="m283.032 89.251h2.646v69.23h-2.646z" fill="#7d74e2"/><path d="m285.678 89.251h2.646v69.23h-2.646z" fill="#7d73e1"/><path d="m288.325 89.251h2.646v69.23h-2.646z" fill="#7d73e0"/><path d="m290.971 89.251h2.646v69.23h-2.646zm2.646 0h2.646v69.23h-2.646z" fill="#7d72df"/><path d="m296.263 89.251h2.646v69.23h-2.646z" fill="#7d72de"/><path d="m298.909 89.251h2.646v69.23h-2.646z" fill="#7d71dd"/><path d="m301.556 89.251h2.646v69.23h-2.646z" fill="#7d71dc"/><path d="m304.202 89.251h2.646v69.23h-2.646z" fill="#7d70db"/><path d="m306.848 89.251h2.646v69.23h-2.646z" fill="#7d70da"/><path d="m309.494 89.251h2.646v69.23h-2.646z" fill="#7d6fda"/><path d="m312.14 89.251h2.646v69.23h-2.646z" fill="#7d6fd9"/><path d="m314.787 89.251h2.646v69.23h-2.646z" fill="#7d6fd8"/><path d="m317.433 89.251h2.646v69.23h-2.646z" fill="#7d6ed7"/><path d="m320.079 89.251h2.646v69.23h-2.646z" fill="#7d6ed6"/><path d="m322.725 89.251h2.646v69.23h-2.646z" fill="#7d6dd5"/><path d="m325.371 89.251h2.646v69.23h-2.646z" fill="#7d6dd4"/><path d="m328.018 89.251h2.646v69.23h-2.646z" fill="#7d6cd3"/><path d="m330.664 89.251h2.646v69.23h-2.646z" fill="#7d6cd2"/><path d="m333.31 89.251h2.646v69.23h-2.646z" fill="#7d6bd1"/><path d="m335.956 89.251h2.646v69.23h-2.646z" fill="#7d6bd0"/><path d="m338.602 89.251h2.646v69.23h-2.646z" fill="#7d6ad0"/><path d="m341.249 89.251h2.646v69.23h-2.646z" fill="#7d6acf"/><path d="m343.895 89.251h2.646v69.23h-2.646z" fill="#7d69ce"/><path d="m346.541 89.251h2.646v69.23h-2.646z" fill="#7d69cd"/><path d="m349.187 89.251h2.646v69.23h-2.646z" fill="#7d68cc"/><path d="m351.833 89.251h2.646v69.23h-2.646z" fill="#7d68cb"/><path d="m354.48 89.251h2.646v69.23h-2.646z" fill="#7d67ca"/><path d="m357.126 89.251h2.646v69.23h-2.646z" fill="#7d67c9"/><path d="m359.772 89.251h2.646v69.23h-2.646z" fill="#7e66c8"/><path d="m362.418 89.251h2.646v69.23h-2.646z" fill="#7e66c7"/><path d="m365.064 89.251h2.646v69.23h-2.646z" fill="#7e65c6"/><path d="m367.711 89.251h2.646v69.23h-2.646z" fill="#7e65c5"/><path d="m370.357 89.251h2.646v69.23h-2.646z" fill="#7e64c4"/><path d="m373.003 89.251h2.646v69.23h-2.646z" fill="#7e64c3"/><path d="m375.649 89.251h2.646v69.23h-2.646z" fill="#7e63c2"/><path d="m378.295 89.251h2.646v69.23h-2.646z" fill="#7e63c1"/><path d="m380.942 89.251h2.646v69.23h-2.646z" fill="#7e62c0"/><path d="m383.588 89.251h2.646v69.23h-2.646z" fill="#7e62bf"/><path d="m386.234 89.251h2.646v69.23h-2.646z" fill="#7e61be"/><path d="m388.88 89.251h2.646v69.23h-2.646z" fill="#7e60bc"/><path d="m391.526 89.251h2.646v69.23h-2.646z" fill="#7e60bb"/><path d="m394.173 89.251h2.646v69.23h-2.646z" fill="#7e5fba"/><path d="m396.819 89.251h2.646v69.23h-2.646z" fill="#7e5fb9"/><path d="m399.465 89.251h2.646v69.23h-2.646z" fill="#7e5eb8"/><path d="m402.111 89.251h2.646v69.23h-2.646z" fill="#7e5eb7"/><path d="m404.757 89.251h2.646v69.23h-2.646z" fill="#7e5db6"/><path d="m407.404 89.251h2.646v69.23h-2.646z" fill="#7e5db5"/><path d="m410.05 89.251h2.646v69.23h-2.646z" fill="#7e5cb4"/><path d="m412.696 89.251h2.646v69.23h-2.646z" fill="#7e5bb3"/><path d="m415.342 89.251h2.646v69.23h-2.646z" fill="#7e5bb2"/><path d="m417.988 89.251h2.646v69.23h-2.646z" fill="#7e5ab0"/><path d="m420.635 89.251h2.646v69.23h-2.646z" fill="#7e5aaf"/><path d="m423.281 89.251h2.646v69.23h-2.646z" fill="#7e59ae"/><path d="m425.927 89.251h2.646v69.23h-2.646z" fill="#7e59ad"/><path d="m428.573 89.251h2.646v69.23h-2.646z" fill="#7e58ac"/><path d="m431.219 89.251h2.646v69.23h-2.646z" fill="#7f57ab"/><path d="m433.865 89.251h2.646v69.23h-2.646z" fill="#7f57aa"/><path d="m436.512 89.251h2.646v69.23h-2.646z" fill="#7f56a9"/><path d="m439.158 89.251h2.646v69.23h-2.646z" fill="#7f56a7"/><path d="m441.804 89.251h2.646v69.23h-2.646z" fill="#7f55a6"/><path d="m444.45 89.251h2.646v69.23h-2.646z" fill="#7f54a5"/><path d="m447.096 89.251h2.646v69.23h-2.646z" fill="#7f54a4"/><path d="m449.743 89.251h2.646v69.23h-2.646z" fill="#7f53a3"/><path d="m452.389 89.251h2.646v69.23h-2.646z" fill="#7f53a2"/><path d="m455.035 89.251h2.646v69.23h-2.646z" fill="#7f52a0"/><path d="m457.681 89.251h2.646v69.23h-2.646z" fill="#7f519f"/><path d="m460.327 89.251h2.646v69.23h-2.646z" fill="#7f519e"/><path d="m462.974 89.251h2.646v69.23h-2.646z" fill="#7f509d"/><path d="m465.62 89.251h2.646v69.23h-2.646z" fill="#7f509c"/><path d="m468.266 89.251h2.646v69.23h-2.646z" fill="#7f4f9a"/><path d="m470.912 89.251h2.646v69.23h-2.646z" fill="#7f4e99"/><path d="m473.558 89.251h2.646v69.23h-2.646z" fill="#7f4e98"/><path d="m476.205 89.251h2.646v69.23h-2.646z" fill="#7f4d97"/><path d="m478.851 89.251h2.646v69.23h-2.646z" fill="#7f4d96"/><path d="m481.497 89.251h1.486v69.23h-1.486z" fill="#7f4c94"/></g><path d="m54.804 64.842h-3.895v8.01h-4.482v-22.046h8.377c5.29 0 7.642 3.234 7.642 7.018 0 3.822-2.351 7.018-7.642 7.018zm-.735-10.84h-3.16v7.644h3.16c2.903 0 3.931-1.727 3.931-3.822 0-2.057-1.028-3.821-3.93-3.821zm29.576 18.85h-4.924l-6.099-8.782h-2.756v8.782h-4.482v-22.046h8.67c5.218 0 7.46 3.087 7.46 6.65a6.01 6.01 0 0 1 -4.41 6.137zm-13.779-11.941h3.454c2.792 0 3.784-1.47 3.784-3.418 0-1.984-.992-3.49-3.784-3.49h-3.454zm27.775 12.566c-6.76 0-12.015-4.887-12.015-11.648s5.254-11.647 12.015-11.647c6.724 0 11.905 4.886 11.905 11.647s-5.18 11.648-11.905 11.648zm0-19.731c-4.41 0-7.312 3.307-7.312 8.083s2.903 8.084 7.312 8.084c4.336 0 7.202-3.308 7.202-8.084s-2.866-8.083-7.202-8.083zm14.804 26.418a5.353 5.353 0 0 1 -3.564-1.213v-2.829a4.343 4.343 0 0 0 2.351.956c1.507 0 2.131-.699 2.131-3.16v-23.113h4.483v23.552c0 3.308-1.764 5.806-5.401 5.806zm10.25-7.312v-22.046h14.367v3.49h-9.884v5.182h8.047v3.49h-8.047v6.393h9.883v3.491zm28.585.478c-6.357 0-11.832-4.373-11.832-11.5s5.475-11.501 11.831-11.501a13.283 13.283 0 0 1 7.68 2.24v4.08a10.722 10.722 0 0 0 -7.202-2.72c-4.373 0-7.606 2.94-7.606 7.9 0 4.924 3.233 7.9 7.606 7.9a10.722 10.722 0 0 0 7.201-2.72v4.08a13.283 13.283 0 0 1 -7.679 2.24zm21.565-19.033v18.555h-4.483v-18.555h-7.459v-3.49h19.4v3.49zm16.312 18.996a11.803 11.803 0 0 1 -7.827-2.756l1.03-3.527a9.958 9.958 0 0 0 6.797 2.976c2.204 0 3.894-1.102 3.894-3.05 0-1.837-1.029-2.792-4.63-3.674-4.629-1.139-6.466-3.6-6.466-6.76 0-3.602 2.866-6.21 7.606-6.21a11.165 11.165 0 0 1 6.614 2.168l-.956 3.123a11.099 11.099 0 0 0 -5.695-1.911c-2.168 0-3.454.955-3.454 2.536 0 1.285.772 2.277 3.784 3.012 5.145 1.286 7.35 3.454 7.35 7.276 0 4.74-3.895 6.797-8.047 6.797zm-134.353 410.443h-3.895v8.01h-4.482v-22.046h8.377c5.29 0 7.642 3.234 7.642 7.019 0 3.821-2.351 7.017-7.642 7.017zm-.735-10.839h-3.16v7.643h3.16c2.903 0 3.931-1.728 3.931-3.821 0-2.058-1.028-3.822-3.93-3.822zm29.576 18.849h-4.924l-6.099-8.781h-2.756v8.781h-4.482v-22.046h8.67c5.218 0 7.46 3.087 7.46 6.65a6.01 6.01 0 0 1 -4.41 6.137zm-13.779-11.941h3.454c2.792 0 3.784-1.47 3.784-3.417 0-1.985-.992-3.49-3.784-3.49h-3.454zm27.775 12.566c-6.76 0-12.015-4.887-12.015-11.647s5.254-11.648 12.015-11.648c6.724 0 11.905 4.887 11.905 11.648s-5.18 11.647-11.905 11.647zm0-19.731c-4.41 0-7.312 3.307-7.312 8.084s2.903 8.083 7.312 8.083c4.336 0 7.202-3.307 7.202-8.083s-2.866-8.084-7.202-8.084zm20.205.551v5.328h7.79v3.454h-7.79v9.773h-4.483v-22.046h14.11v3.491zm12.491 18.555v-22.046h4.482v22.046zm19.215-18.555v18.555h-4.483v-18.555h-7.459v-3.49h19.4v3.49zm16.312 18.997a11.803 11.803 0 0 1 -7.826-2.756l1.028-3.528a9.96 9.96 0 0 0 6.798 2.977c2.205 0 3.895-1.103 3.895-3.05 0-1.838-1.029-2.793-4.63-3.675-4.63-1.138-6.466-3.6-6.466-6.76 0-3.601 2.865-6.21 7.606-6.21a11.167 11.167 0 0 1 6.613 2.168l-.955 3.124a11.099 11.099 0 0 0 -5.696-1.912c-2.168 0-3.453.955-3.453 2.536 0 1.286.771 2.278 3.785 3.012 5.143 1.286 7.348 3.454 7.348 7.276 0 4.74-3.895 6.798-8.047 6.798zm433.186-8.452h-3.894v8.011h-4.482v-22.046h8.377c5.29 0 7.642 3.234 7.642 7.018 0 3.821-2.351 7.017-7.642 7.017zm-.734-10.839h-3.16v7.643h3.16c2.903 0 3.931-1.727 3.931-3.821 0-2.058-1.028-3.822-3.93-3.822zm29.576 18.85h-4.924l-6.099-8.782h-2.756v8.782h-4.482v-22.046h8.67c5.219 0 7.46 3.086 7.46 6.65a6.01 6.01 0 0 1 -4.41 6.136zm-13.779-11.941h3.454c2.792 0 3.785-1.47 3.785-3.418 0-1.984-.993-3.49-3.785-3.49h-3.454zm27.775 12.565c-6.761 0-12.015-4.887-12.015-11.647s5.254-11.648 12.015-11.648c6.724 0 11.905 4.887 11.905 11.648s-5.18 11.647-11.905 11.647zm0-19.73c-4.41 0-7.312 3.306-7.312 8.083s2.902 8.084 7.312 8.084c4.336 0 7.202-3.308 7.202-8.084s-2.866-8.083-7.202-8.083zm23.475 19.106h-7.753v-22.046h7.753c8.819 0 12.53 4.96 12.53 11.023s-3.711 11.023-12.53 11.023zm-.22-18.445h-3.05v14.844h3.05c6.026 0 8.157-3.013 8.157-7.422s-2.131-7.422-8.157-7.422zm26.672 19.069c-5.805 0-10.14-3.344-10.14-10.802v-11.868h4.555v11.72c0 4.777 2.058 7.093 5.659 7.093s5.659-2.316 5.659-7.092v-11.72h4.372v11.867c0 7.458-4.299 10.802-10.105 10.802zm25.755-.146c-6.357 0-11.833-4.373-11.833-11.501s5.476-11.5 11.832-11.5a13.276 13.276 0 0 1 7.679 2.24v4.079a10.722 10.722 0 0 0 -7.201-2.719c-4.373 0-7.607 2.94-7.607 7.9 0 4.923 3.234 7.9 7.607 7.9a10.718 10.718 0 0 0 7.201-2.72v4.08a13.284 13.284 0 0 1 -7.679 2.24zm21.565-19.034v18.556h-4.484v-18.556h-7.458v-3.49h19.4v3.49zm16.311 18.997a11.8 11.8 0 0 1 -7.826-2.756l1.03-3.528a9.958 9.958 0 0 0 6.796 2.977c2.205 0 3.895-1.103 3.895-3.05 0-1.837-1.029-2.792-4.63-3.674-4.629-1.14-6.466-3.601-6.466-6.76 0-3.602 2.865-6.21 7.606-6.21a11.163 11.163 0 0 1 6.614 2.167l-.956 3.123a11.096 11.096 0 0 0 -5.696-1.91c-2.167 0-3.453.955-3.453 2.535 0 1.286.772 2.278 3.785 3.013 5.144 1.286 7.348 3.454 7.348 7.276 0 4.739-3.894 6.796-8.047 6.796z" fill="#fff"/></svg>