<svg viewBox=".64 15.2 876.72 124.8" xmlns="http://www.w3.org/2000/svg"><path d="m214 106h-42.2l13.5-71.2h41.7c18.6 0 31.6 4.3 38.6 12.9 5 6 6.7 14 5 23-3.2 17.1-19.8 35.3-56.6 35.3zm-15.9-19.2h18c18.1 0 27.9-5.4 30.1-16.6.8-4.3.2-7.6-1.8-10.1-3.2-3.9-10.5-5.9-21.5-5.9h-18.5zm97 19.2h-22.6l13.5-71.2h22.6zm109.7 0h-26.1l-5.3-15.2h-38.1l-11.2 15.2h-25.8l52.3-71.3h29zm-58-31.9h21.4l-6.3-20h-.9zm171.1 31.9h-22.4l8.2-42.8-34.7 42.8h-11.8l-18.2-43.3-8.2 43.3h-22.3l13.5-71.2h30.4l16.9 40 32.1-40h30zm109.9 0h-26.1l-5.3-15.2h-38.1l-11.2 15.2h-25.8l52.3-71.3h29zm-57.9-31.9h21.4l-6.3-20h-1zm151.3 31.9h-24.2l-34.5-45.1-8.5 45.1h-22.5l13.5-71.2h27.3l32.1 42.3 8-42.3h22.4zm62.7 0h-22.7l9.9-51.8h-33.3l3.7-19.4h89.4l-3.7 19.4h-33.4zm62.6 0h-22.6l13.5-71.2h22.6zm-757 31.2-71.4-88.5 25.1-31.2h61.3l24.4 29.9-39.8 49.2-11.8-14.6 27.5-34-9.1-11.7h-44.1l-10 12.4 47.9 59.3 47.8-59.3-25-31.2h23.3l25.1 31.2z" fill="#4fd928"/></svg>