<svg viewBox="0 0 500 409.5" xmlns="http://www.w3.org/2000/svg" xmlns:xlink="http://www.w3.org/1999/xlink"><linearGradient id="a" gradientTransform="matrix(1 0 0 -1 0 412)" gradientUnits="userSpaceOnUse" x1="103.7" x2="278.211" y1="257.776" y2="257.776"><stop offset="0" stop-color="#006934" stop-opacity="0"/><stop offset="1" stop-color="#006934"/></linearGradient><path d="m87.522 324.84a23.703 23.703 0 0 1 11.198 2.545 24.345 24.345 0 0 1 8.056 6.64 30.985 30.985 0 0 1 4.914 9.494 37.425 37.425 0 0 1 1.792 10.911 36.296 36.296 0 0 1 -1.482 10.911 28.97 28.97 0 0 1 -4.89 9.606 24.057 24.057 0 0 1 -8.145 6.64 24.788 24.788 0 0 1 -11.531 2.544h-22.133v-59.291zm-1.284 51.169a16.665 16.665 0 0 0 10.446-3.32 19.432 19.432 0 0 0 6.02-7.967 25.341 25.341 0 0 0 1.815-10.314 27.023 27.023 0 0 0 -2.213-10.313 20.34 20.34 0 0 0 -6.02-7.902 14.85 14.85 0 0 0 -9.517-3.187h-12.571v42.936zm59.159-24.279a11.708 11.708 0 0 0 -2.833-2.213 8.454 8.454 0 0 0 -9.495 1.86 9.65 9.65 0 0 0 -2.5 6.993v25.806h-8.5v-42.317h8.41v4.427a11.332 11.332 0 0 1 4.626-3.696 15.492 15.492 0 0 1 6.64-1.395 16.4 16.4 0 0 1 5.6.886 12.836 12.836 0 0 1 4.67 3.098zm35.455 32.512v-3.829a13.479 13.479 0 0 1 -4.847 3.342 18.525 18.525 0 0 1 -6.64.974 20.826 20.826 0 0 1 -6.639-.93 11.575 11.575 0 0 1 -4.714-2.965 10.158 10.158 0 0 1 -2.213-3.94 15.337 15.337 0 0 1 -.797-5.046 11.664 11.664 0 0 1 3.652-8.853 15.183 15.183 0 0 1 10.756-3.43h11.287v-2.966a7.724 7.724 0 0 0 -2.213-6.02 10.623 10.623 0 0 0 -7.193-2.08 14.031 14.031 0 0 0 -5.51.885 9.473 9.473 0 0 0 -3.741 3.187l-5.6-5.179a16.046 16.046 0 0 1 6.485-4.847 25.319 25.319 0 0 1 8.698-1.283q17.484 0 17.484 14.43v28.417zm-.177-18.657h-10.004a8.853 8.853 0 0 0 -5.687 1.571 5.4 5.4 0 0 0 -1.948 4.427 5.533 5.533 0 0 0 1.903 4.537 9.185 9.185 0 0 0 5.887 1.571 20.183 20.183 0 0 0 4.427-.42 7.392 7.392 0 0 0 3.607-2.214 8.366 8.366 0 0 0 1.86-6.197zm35.655-24.368a18.236 18.236 0 0 1 6.64 1.196 18.746 18.746 0 0 1 5.554 3.32v-3.874h7.724v39.108a19.034 19.034 0 0 1 -1.57 7.68 19.498 19.498 0 0 1 -4.427 6.285 20.598 20.598 0 0 1 -22.177 4.25 19.919 19.919 0 0 1 -6.44-4.206l5.51-5.422a12.35 12.35 0 0 0 3.985 2.412 13.28 13.28 0 0 0 4.714.841 13.014 13.014 0 0 0 4.869-.93 12.328 12.328 0 0 0 6.64-6.33 10.712 10.712 0 0 0 1.017-4.625v-1.704a17.706 17.706 0 0 1 -12.04 4.692 17.529 17.529 0 0 1 -6.108-1.062 17.882 17.882 0 0 1 -5.179-2.922 17.152 17.152 0 0 1 -3.85-4.426 20.472 20.472 0 0 1 -2.324-5.555 25.516 25.516 0 0 1 -.687-4.205 41.915 41.915 0 0 1 -.132-4.205 32.799 32.799 0 0 1 .287-3.851 30.981 30.981 0 0 1 .598-3.187 17.175 17.175 0 0 1 2.412-5.223 17.705 17.705 0 0 1 3.94-4.161 19.254 19.254 0 0 1 5.09-2.767 17.24 17.24 0 0 1 5.954-1.129zm1.704 34.969a8.853 8.853 0 0 0 6.374-2.634 12.859 12.859 0 0 0 3.475-6.44 15.315 15.315 0 0 0 .332-2.501v-2.722a16.766 16.766 0 0 0 -.177-2.501 9.45 9.45 0 0 0 -.377-1.948 11.664 11.664 0 0 0 -3.253-6.13 8.963 8.963 0 0 0 -6.374-2.368 8.698 8.698 0 0 0 -6.241 2.368 11.796 11.796 0 0 0 -3.364 6.042 24.168 24.168 0 0 0 -.598 5.732 21.093 21.093 0 0 0 .42 3.94 13.7 13.7 0 0 0 3.431 6.484 8.41 8.41 0 0 0 6.352 2.656zm44.286-34.969a17.462 17.462 0 0 1 10.867 3.232 19.919 19.919 0 0 1 6.33 8.056 24.345 24.345 0 0 1 1.903 10.446 27.355 27.355 0 0 1 -2.324 10.446 20.472 20.472 0 0 1 -6.396 8.056 16.6 16.6 0 0 1 -10.358 3.232 17.197 17.197 0 0 1 -10.645-3.232 19.92 19.92 0 0 1 -6.397-8.056 26.713 26.713 0 0 1 0-20.87 20.096 20.096 0 0 1 6.374-8.056 17.174 17.174 0 0 1 10.646-3.254zm0 35.544a9.14 9.14 0 0 0 6.108-2.08 13.279 13.279 0 0 0 3.74-5.135 17.816 17.816 0 0 0 1.307-6.64 17.263 17.263 0 0 0 -1.196-6.639 12.793 12.793 0 0 0 -3.74-5.134 9.428 9.428 0 0 0 -6.241-2.08 8.985 8.985 0 0 0 -6.064 2.08 12.77 12.77 0 0 0 -3.608 5.134 17.706 17.706 0 0 0 -1.15 6.64 18.945 18.945 0 0 0 1.239 6.64 12.748 12.748 0 0 0 3.607 5.134 8.853 8.853 0 0 0 5.998 2.08zm53.449 7.481v-25.894a9.295 9.295 0 0 0 -2.457-7.171 8.61 8.61 0 0 0 -6.02-2.213 9.185 9.185 0 0 0 -6.241 2.213 9.008 9.008 0 0 0 -2.59 7.17v25.873h-8.476v-42.36h8.322v4.426a13.81 13.81 0 0 1 5.134-3.652 16.201 16.201 0 0 1 6.153-1.195 15.846 15.846 0 0 1 6.485 1.24 13.013 13.013 0 0 1 4.625 3.385 13.921 13.921 0 0 1 2.767 5.046 20.672 20.672 0 0 1 .885 6.109v27.156zm31.914-34.792v34.792h-8.41v-34.791h-6.286v-6.64h6.286v-6.263a13.28 13.28 0 0 1 .73-4.427 11.641 11.641 0 0 1 2.213-3.74 9.96 9.96 0 0 1 3.564-2.634 12.416 12.416 0 0 1 5.134-.974h6.286v7.304h-4.847q-4.581 0-4.581 4.847v5.931h9.428v6.64zm28.329 34.792a13.28 13.28 0 0 1 -5.179-.93 9.672 9.672 0 0 1 -3.607-2.545 10.469 10.469 0 0 1 -2.08-3.74 14.319 14.319 0 0 1 -.687-4.426v-47.673h8.565v47.186a5.865 5.865 0 0 0 .974 3.696 4.271 4.271 0 0 0 3.519 1.24h5.6v7.214zm30.963 8.521a23.66 23.66 0 0 1 -1.815 3.696 9.074 9.074 0 0 1 -2.368 2.59 10.004 10.004 0 0 1 -3.232 1.526 16.4 16.4 0 0 1 -4.426.51h-3.475v-7.725h2.213a6.374 6.374 0 0 0 3.94-.973 7.968 7.968 0 0 0 2.213-3.52l2.368-6.639-14.85-40.369h8.985l10.093 29.878 9.937-29.878h9.251z" fill="#898989"/><g fill="#4aba58"><path d="m282.305 35.619-39.749-22.951-39.727 22.951 39.727 22.929z"/><path d="m220.911 185.364 5.666 104.684 15.979 9.229 16.002-9.229 5.665-104.684-21.667-12.505z"/><path d="m312.028 98.828 69.384-40.059-29.06-16.798a22.132 22.132 0 0 0 -11.065-3.076 20.893 20.893 0 0 0 -10.668 2.877l-58.694 33.906z"/><path d="m311.962 132.778 69.384 40.06-29.082 16.797a22.132 22.132 0 0 1 -11.066 3.077 20.893 20.893 0 0 1 -10.667-2.877l-58.672-33.884z"/><path d="m202.453 115.781-98.753 57.034 29.081 16.776a22.132 22.132 0 0 0 11.066 3.077 20.893 20.893 0 0 0 10.668-2.878l88.085-50.903z"/><path d="m242.556 138.931-138.856-80.161 29.06-16.798a22.132 22.132 0 0 1 11.065-3.077 20.893 20.893 0 0 1 10.668 2.878l128.187 74.007z"/></g><path d="m202.453 115.781-98.753 57.034 29.081 16.776a22.132 22.132 0 0 0 11.066 3.077 20.893 20.893 0 0 0 10.668-2.878l63.74-36.827a16.001 16.001 0 0 0 .642-27.71c-9.074-5.09-16.444-9.472-16.444-9.472z" fill="url(#a)"/></svg>