<svg viewBox="0 0 543.61361 592.47038" xmlns="http://www.w3.org/2000/svg"><path d="m25.26 493.445a25.699 25.699 0 0 0 2.92 12.221 30.397 30.397 0 0 0 7.676 9.407 35.404 35.404 0 0 0 11.031 6.055 39.445 39.445 0 0 0 12.975 2.164 29.04 29.04 0 0 0 15.79-4.217 50.922 50.922 0 0 0 12.326-11.139l14.705 11.248q-16.22 20.978-45.416 20.976a56.507 56.507 0 0 1 -21.95-4.108 47.724 47.724 0 0 1 -16.655-11.356 50.335 50.335 0 0 1 -10.488-17.083 60.362 60.362 0 0 1 -3.677-21.304 56.002 56.002 0 0 1 4.002-21.303 52.836 52.836 0 0 1 11.028-17.083 50.345 50.345 0 0 1 16.763-11.356 53.938 53.938 0 0 1 21.194-4.108q13.625 0 23.032 4.76a45.539 45.539 0 0 1 15.464 12.434 49.177 49.177 0 0 1 8.758 17.3 72.097 72.097 0 0 1 2.704 19.573v6.92zm61.42-15.57a41.138 41.138 0 0 0 -2.056-11.895 26.2 26.2 0 0 0 -5.513-9.407 25.44 25.44 0 0 0 -9.192-6.272 33.65 33.65 0 0 0 -12.869-2.272 31.264 31.264 0 0 0 -13.083 2.704 31.942 31.942 0 0 0 -10.058 7.028 32.53 32.53 0 0 0 -6.38 9.626 26.49 26.49 0 0 0 -2.27 10.489zm37.63-42.821h19.464v15.787h.432q3.674-8.217 12.76-13.3a42.254 42.254 0 0 1 20.977-5.082 44.51 44.51 0 0 1 14.165 2.27 32.033 32.033 0 0 1 11.896 7.028 33.966 33.966 0 0 1 8.11 12.221 46.733 46.733 0 0 1 3.03 17.626v65.961h-19.467v-60.555a34.238 34.238 0 0 0 -1.945-12.218 22.367 22.367 0 0 0 -5.192-8.219 19.49 19.49 0 0 0 -7.46-4.542 27.543 27.543 0 0 0 -8.758-1.407 31.807 31.807 0 0 0 -11.248 1.947 23.487 23.487 0 0 0 -9.083 6.163 29.065 29.065 0 0 0 -6.055 10.706 48.736 48.736 0 0 0 -2.162 15.355v52.77h-19.463zm97.102 0h22.493l30.711 78.506 29.413-78.506h20.76l-40.224 102.512h-21.41zm104.678 51.255a52.232 52.232 0 0 1 4.217-20.977 54.687 54.687 0 0 1 11.57-17.086 55.073 55.073 0 0 1 77.426 0 54.732 54.732 0 0 1 11.57 17.086 52.232 52.232 0 0 1 4.217 20.977 53.303 53.303 0 0 1 -15.787 38.173 54.976 54.976 0 0 1 -17.302 11.462 56.468 56.468 0 0 1 -42.822 0 54.886 54.886 0 0 1 -17.302-11.462 53.303 53.303 0 0 1 -15.787-38.173zm20.763 0a42.059 42.059 0 0 0 2.378 14.382 32.347 32.347 0 0 0 6.705 11.247 30.916 30.916 0 0 0 10.597 7.352 37.897 37.897 0 0 0 28.114 0 31.017 31.017 0 0 0 10.597-7.352 32.468 32.468 0 0 0 6.705-11.247 44.672 44.672 0 0 0 0-28.762 32.542 32.542 0 0 0 -6.705-11.248 31.17 31.17 0 0 0 -10.597-7.353 37.897 37.897 0 0 0 -28.114 0 31.067 31.067 0 0 0 -10.597 7.353 32.42 32.42 0 0 0 -6.705 11.248 42.065 42.065 0 0 0 -2.378 14.38zm89.747-51.255h22.493l30.354 80.019h.437l29.116-80.019h20.76l-48.66 124.57a132.827 132.827 0 0 1 -5.385 12.221 36.864 36.864 0 0 1 -6.674 9.407 27.005 27.005 0 0 1 -9.372 6.055 36.91 36.91 0 0 1 -13.46 2.164 71.844 71.844 0 0 1 -8.723-.543 31.565 31.565 0 0 1 -8.507-2.27l2.367-17.733a30.39 30.39 0 0 0 11.602 2.378 21.603 21.603 0 0 0 7.629-1.188 15.11 15.11 0 0 0 5.372-3.462 20.29 20.29 0 0 0 3.762-5.299q1.5-3.031 3.008-6.92l6.3-16.22z" fill="#490e67"/><path d="m158.87 170.18.642 27.181 28.622 17.746-.641-27.198zm69.857 112.969-.626-26.62-25.083-15.542c-.373-.232-.703-.506-1.064-.75l.634 26.711zm-89.37 35.841-65.44-40.55-1.591-68.052 32.081-13.834-.643-27.18-51.203 22.074a9.99 9.99 0 0 0 -6.208 9.54l1.92 81.642a13.558 13.558 0 0 0 6.7 10.861l78.481 48.636a14.494 14.494 0 0 0 11.786 1.705c.394-.124.752-.265 1.11-.406l48.158-20.761-26.12-16.193z" fill="#b11cab"/><path d="m350.81 168.625c-.12-4.894-3.094-9.741-7.817-12.658l-95.28-59.052-2.943 1.268.675 28.575 75.449 46.744 1.804 76.454 28.855 17.88 1.573-.678zm-114.115 134.201-88.522-54.86-2.173-92.088 40.33-17.373-.748-31.715-62.62 26.994a11.674 11.674 0 0 0 -7.243 11.133l2.55 107.95c.095 4.903 3.082 9.718 7.805 12.634l103.756 64.32a16.898 16.898 0 0 0 13.75 1.993 12.106 12.106 0 0 0 1.295-.491l61.29-26.42-30.478-18.886z" fill="#cf63ce"/><path d="m485.717 93.012-133.037-82.459a19.264 19.264 0 0 0 -15.762-2.261q-.737.233-1.447.534l-129.762 55.96a13.285 13.285 0 0 0 -8.286 12.702l3.262 138.394c.132 5.607 3.547 11.113 8.935 14.453l133.025 82.434a19.263 19.263 0 0 0 15.718 2.281c.492-.155.998-.343 1.492-.554l129.773-55.935a13.306 13.306 0 0 0 8.275-12.726l-3.25-138.37c-.132-5.607-3.547-11.114-8.936-14.453zm-135.207 188.92-115.623-71.648-2.841-120.258 112.781-48.61 115.61 71.623 2.843 120.258z" fill="#df3faf"/></svg>