<svg xmlns="http://www.w3.org/2000/svg" id="Layer_1" data-name="Layer 1" viewBox="0 0 680.841 286.736"><defs><style>.cls-1{fill:none}.cls-2{fill:#999}.cls-3{clip-path:url(#clip-path)}.cls-4{fill:#f5ab3f}.cls-5{fill:#e2156b}.cls-6{fill:#4d4d4d}.cls-7{fill:#dc3832}.cls-8{fill:#5c83bc}</style><clipPath id="clip-path"><path class="cls-1" d="M5.225 10.374h669.3v261.781H5.225z"/></clipPath></defs><path class="cls-2" d="M38.572 80.854h635.953v.191H38.572zm0 49.448h635.953v.191H38.572zm0 49.447h635.953v.191H38.572zm0 48.862h635.953v.191H38.572z"/><g class="cls-3"><path class="cls-4" d="M279.701 167.841a3.556 3.556 0 1 1-3.557-3.555h.002a3.556 3.556 0 0 1 3.555 3.555"/><path class="cls-5" d="M439.693 127.958a1.798 1.798 0 1 1-1.798-1.798 1.798 1.798 0 0 1 1.798 1.798"/><path class="cls-6" d="M99.34 237.534a2.99 2.99 0 0 0-1.916.586 1.825 1.825 0 0 0-.737 1.492 1.923 1.923 0 0 0 1.023 1.676 6.1 6.1 0 0 0 1.44.608 4.2 4.2 0 0 1 1.253.539.908.908 0 0 1 .347.762.885.885 0 0 1-.342.727 1.6 1.6 0 0 1-1.022.275 1.848 1.848 0 0 1-1.207-.349 1.213 1.213 0 0 1-.422-.987h-1.301a2.067 2.067 0 0 0 .378 1.234 2.498 2.498 0 0 0 1.059.83 3.64 3.64 0 0 0 1.493.301 3.114 3.114 0 0 0 1.948-.553 1.781 1.781 0 0 0 .717-1.489 1.992 1.992 0 0 0-.247-1.006 2.265 2.265 0 0 0-.776-.76 5.762 5.762 0 0 0-1.405-.591 4.364 4.364 0 0 1-1.254-.533.814.814 0 0 1-.381-.684.901.901 0 0 1 .353-.758 1.594 1.594 0 0 1 .989-.27 1.525 1.525 0 0 1 1.051.328 1.157 1.157 0 0 1 .369.911h1.295a2.11 2.11 0 0 0-.349-1.181 2.3 2.3 0 0 0-.962-.82 3.23 3.23 0 0 0-1.393-.288"/></g><path class="cls-6" d="M107.95 237.637h-4.757v7.489h1.301v-3.164h3.014v-1.049h-3.014v-2.226h3.456v-1.05zm9.591 0h-1.29v5.333l-3.348-5.333h-1.301v7.489h1.301v-5.313l3.337 5.313h1.301v-7.489z"/><g class="cls-3"><path class="cls-6" d="M121.305 239.458a2.569 2.569 0 0 0-1.346.351 2.374 2.374 0 0 0-.911 1.01 3.286 3.286 0 0 0-.324 1.472v.063a3.01 3.01 0 0 0 .707 2.09 2.418 2.418 0 0 0 1.885.784 2.595 2.595 0 0 0 1.36-.354 2.345 2.345 0 0 0 .905-1.005 3.3 3.3 0 0 0 .317-1.47l-.006-.294a2.856 2.856 0 0 0-.758-1.923 2.435 2.435 0 0 0-1.829-.724m.011 4.772a1.15 1.15 0 0 1-.987-.486 2.237 2.237 0 0 1-.355-1.345 2.423 2.423 0 0 1 .36-1.453 1.223 1.223 0 0 1 1.957.008 2.211 2.211 0 0 1 .362 1.337 2.469 2.469 0 0 1-.353 1.445 1.138 1.138 0 0 1-.984.494"/></g><path class="cls-6" d="M129.308 239.561h-1.291l-1.178 3.98-1.192-3.98h-1.297l1.945 5.564h1.084l1.929-5.564z"/><g class="cls-3"><path class="cls-6" d="M133.52 237.092a2.49 2.49 0 0 0-.671.86 2.39 2.39 0 0 0-.269 1.033v.71h1.095v-.781a2.577 2.577 0 0 1 .483-1.427z"/></g><path class="cls-6" d="M138.318 237.612h-.159l-2.921 1.074v1.049l1.837-.625v6.016h1.243v-7.514z"/><g class="cls-3"><path class="cls-6" d="M145.682 237.637h-4.02l-.407 3.775.997.247a1.365 1.365 0 0 1 1.09-.443 1.24 1.24 0 0 1 .978.4 1.572 1.572 0 0 1 .355 1.082 1.775 1.775 0 0 1-.322 1.12 1.071 1.071 0 0 1-.897.413 1.2 1.2 0 0 1-.834-.291 1.325 1.325 0 0 1-.39-.836h-1.208a2.112 2.112 0 0 0 .731 1.54 2.521 2.521 0 0 0 1.706.585 2.41 2.41 0 0 0 1.806-.677 2.504 2.504 0 0 0 .658-1.82 2.707 2.707 0 0 0-.596-1.84 2.081 2.081 0 0 0-1.662-.682 2.318 2.318 0 0 0-1.173.296l.206-1.79h2.982z"/></g><path class="cls-6" d="M86.535 250.276h-1.301v7.489h4.7v-1.049h-3.399v-6.44z"/><g class="cls-3"><path class="cls-6" d="M93.158 252.097a2.569 2.569 0 0 0-1.346.352 2.374 2.374 0 0 0-.911 1.009 3.286 3.286 0 0 0-.323 1.473v.06a3.011 3.011 0 0 0 .706 2.093 2.413 2.413 0 0 0 1.885.784 2.595 2.595 0 0 0 1.36-.355 2.345 2.345 0 0 0 .905-1.004 3.3 3.3 0 0 0 .317-1.47l-.006-.294a2.857 2.857 0 0 0-.757-1.923 2.436 2.436 0 0 0-1.83-.725m.011 4.773a1.15 1.15 0 0 1-.987-.486 2.237 2.237 0 0 1-.355-1.345 2.423 2.423 0 0 1 .36-1.453 1.223 1.223 0 0 1 1.957.008 2.211 2.211 0 0 1 .362 1.337 2.47 2.47 0 0 1-.353 1.445 1.138 1.138 0 0 1-.984.494m6.454-4.773a2 2 0 0 0-1.62.746l-.036-.642H96.79v5.564h1.25v-3.96a1.204 1.204 0 0 1 1.126-.684.958.958 0 0 1 .748.254 1.141 1.141 0 0 1 .23.784v3.606h1.25v-3.677q-.034-1.99-1.77-1.99m7.683-2.233h-1.25v2.849a1.82 1.82 0 0 0-1.429-.617 1.907 1.907 0 0 0-1.6.78 3.303 3.303 0 0 0-.596 2.065 3.427 3.427 0 0 0 .605 2.138 1.898 1.898 0 0 0 1.58.787 1.84 1.84 0 0 0 1.497-.68l.062.577h1.131zm-2.37 6.984a1.06 1.06 0 0 1-.929-.475 2.31 2.31 0 0 1-.326-1.325 2.572 2.572 0 0 1 .33-1.448 1.067 1.067 0 0 1 .935-.48 1.164 1.164 0 0 1 1.11.668v2.376a1.182 1.182 0 0 1-1.12.684m6.021-4.752a2.569 2.569 0 0 0-1.347.352 2.374 2.374 0 0 0-.91 1.009 3.286 3.286 0 0 0-.324 1.473v.06a3.005 3.005 0 0 0 .708 2.093 2.41 2.41 0 0 0 1.884.784 2.59 2.59 0 0 0 1.36-.355 2.345 2.345 0 0 0 .905-1.004 3.3 3.3 0 0 0 .317-1.47l-.006-.294a2.856 2.856 0 0 0-.758-1.923 2.435 2.435 0 0 0-1.83-.725m.012 4.773a1.15 1.15 0 0 1-.987-.486 2.237 2.237 0 0 1-.355-1.345 2.423 2.423 0 0 1 .36-1.453 1.223 1.223 0 0 1 1.957.008 2.211 2.211 0 0 1 .362 1.337 2.47 2.47 0 0 1-.353 1.445 1.138 1.138 0 0 1-.984.494m6.454-4.773a2 2 0 0 0-1.62.746l-.036-.642h-1.178v5.564h1.25v-3.96a1.204 1.204 0 0 1 1.126-.684.958.958 0 0 1 .749.254 1.141 1.141 0 0 1 .23.784v3.606h1.249v-3.677q-.03-1.99-1.77-1.99"/></g><path class="cls-6" d="M130.892 250.276h-1.681l-2.156 5.74-2.16-5.74h-1.686v7.489h1.295v-2.469l-.128-3.297 2.206 5.766h.931l2.212-5.77-.128 3.301v2.469h1.295v-7.489z"/><g class="cls-3"><path class="cls-6" d="M134.544 252.097a2.893 2.893 0 0 0-1.166.227 2.03 2.03 0 0 0-.824.624 1.382 1.382 0 0 0-.303.856h1.248a.663.663 0 0 1 .273-.542 1.106 1.106 0 0 1 .7-.214.957.957 0 0 1 .736.26.977.977 0 0 1 .24.692v.365h-.765a3.205 3.205 0 0 0-1.89.477 1.577 1.577 0 0 0-.661 1.365 1.531 1.531 0 0 0 .53 1.183 1.964 1.964 0 0 0 1.368.478 1.944 1.944 0 0 0 1.46-.624 1.918 1.918 0 0 0 .144.52h1.275v-.087a2.873 2.873 0 0 1-.21-1.198v-2.509a1.757 1.757 0 0 0-.596-1.382 2.342 2.342 0 0 0-1.56-.491m-.282 4.768a.928.928 0 0 1-.64-.214.73.73 0 0 1-.24-.574.786.786 0 0 1 .35-.684 1.843 1.843 0 0 1 1.044-.24h.673v1.048a1.18 1.18 0 0 1-.49.482 1.418 1.418 0 0 1-.697.182m6.223-4.768a1.411 1.411 0 0 0-1.256.725l-.032-.622h-1.192v5.565h1.25v-3.806a1.146 1.146 0 0 1 1.156-.659 3.208 3.208 0 0 1 .51.04l.006-1.17a1.163 1.163 0 0 0-.442-.073m5.044-2.232h-1.095v.812a2.578 2.578 0 0 1-.478 1.425l.637.396a2.54 2.54 0 0 0 .666-.856 2.344 2.344 0 0 0 .27-1.067z"/></g><path class="cls-6" d="M149.92 250.251h-.159l-2.921 1.075v1.048l1.837-.625v6.016h1.243v-7.514z"/><g class="cls-3"><path class="cls-6" d="M156.411 250.24h-.128a3.442 3.442 0 0 0-2.76 1.116 4.586 4.586 0 0 0-.958 3.087v.426a3.25 3.25 0 0 0 .697 2.17 2.258 2.258 0 0 0 1.817.828 2.32 2.32 0 0 0 1.762-.706 2.581 2.581 0 0 0 .672-1.85 2.764 2.764 0 0 0-.574-1.806 1.921 1.921 0 0 0-1.567-.698 2.02 2.02 0 0 0-1.537.633 2.403 2.403 0 0 1 .745-1.589 2.472 2.472 0 0 1 1.677-.576h.154zm-1.342 6.62a1.07 1.07 0 0 1-.906-.491 2.246 2.246 0 0 1-.35-1.325v-.381a1.344 1.344 0 0 1 .504-.617 1.307 1.307 0 0 1 .753-.231 1.053 1.053 0 0 1 .874.426 1.763 1.763 0 0 1 .328 1.106 1.733 1.733 0 0 1-.323 1.095 1.054 1.054 0 0 1-.88.417m91.308-19.764a2.99 2.99 0 0 0-1.916.586 1.823 1.823 0 0 0-.738 1.492 1.925 1.925 0 0 0 1.024 1.676 6.037 6.037 0 0 0 1.44.606 4.234 4.234 0 0 1 1.253.54.906.906 0 0 1 .346.763.885.885 0 0 1-.342.726 1.6 1.6 0 0 1-1.021.275 1.848 1.848 0 0 1-1.208-.348 1.216 1.216 0 0 1-.422-.99h-1.3a2.069 2.069 0 0 0 .377 1.237 2.51 2.51 0 0 0 1.06.83 3.665 3.665 0 0 0 1.493.3 3.114 3.114 0 0 0 1.948-.552 1.783 1.783 0 0 0 .717-1.49 1.988 1.988 0 0 0-.247-1.005 2.237 2.237 0 0 0-.776-.76 5.702 5.702 0 0 0-1.405-.591 4.408 4.408 0 0 1-1.254-.533.816.816 0 0 1-.381-.684.901.901 0 0 1 .353-.758 1.584 1.584 0 0 1 .988-.272 1.525 1.525 0 0 1 1.052.33 1.157 1.157 0 0 1 .368.91h1.295a2.106 2.106 0 0 0-.348-1.18 2.3 2.3 0 0 0-.962-.82 3.23 3.23 0 0 0-1.394-.288m6.038 1.924a2.38 2.38 0 0 0-1.295.364 2.453 2.453 0 0 0-.903 1.02 3.346 3.346 0 0 0-.322 1.489v.154a2.718 2.718 0 0 0 .737 1.994 2.593 2.593 0 0 0 1.926.748 2.8 2.8 0 0 0 1.253-.275 2.247 2.247 0 0 0 .892-.773l-.673-.644a1.69 1.69 0 0 1-1.398.694 1.387 1.387 0 0 1-1.017-.4 1.675 1.675 0 0 1-.46-1.09h3.636v-.505a3.067 3.067 0 0 0-.619-2.051 2.185 2.185 0 0 0-1.757-.725m-1.24 2.365a1.865 1.865 0 0 1 .404-1.003 1.16 1.16 0 0 1 1.64-.041l.003.002a1.516 1.516 0 0 1 .335.95v.092zm6.82-2.366a2.888 2.888 0 0 0-1.166.226 2.03 2.03 0 0 0-.824.625 1.382 1.382 0 0 0-.303.856h1.25a.661.661 0 0 1 .271-.542 1.106 1.106 0 0 1 .7-.214.961.961 0 0 1 .734.26.971.971 0 0 1 .242.692v.365h-.765a3.202 3.202 0 0 0-1.89.477 1.577 1.577 0 0 0-.661 1.363 1.532 1.532 0 0 0 .53 1.184 1.964 1.964 0 0 0 1.368.478 1.944 1.944 0 0 0 1.46-.623 1.918 1.918 0 0 0 .144.52h1.275v-.087a2.87 2.87 0 0 1-.211-1.198v-2.51a1.751 1.751 0 0 0-.595-1.382 2.342 2.342 0 0 0-1.56-.49m-.282 4.767a.928.928 0 0 1-.64-.214.73.73 0 0 1-.24-.573.786.786 0 0 1 .35-.684 1.843 1.843 0 0 1 1.044-.24h.673v1.048a1.18 1.18 0 0 1-.49.482 1.401 1.401 0 0 1-.697.182m5.313-6.018h-1.25v1.353h-.915v.926h.915v3.151q0 1.591 1.44 1.59a3.037 3.037 0 0 0 .822-.118v-.967a1.91 1.91 0 0 1-.436.051.583.583 0 0 1-.45-.14.686.686 0 0 1-.126-.461v-3.106h.982v-.926h-.982zm3.502 0h-1.25v1.353h-.915v.926h.915v3.151q0 1.591 1.44 1.59a3.037 3.037 0 0 0 .822-.118v-.967a1.91 1.91 0 0 1-.435.051.583.583 0 0 1-.45-.14.686.686 0 0 1-.127-.461v-3.106h.983v-.926h-.983z"/></g><path class="cls-6" d="M268.543 236.786h1.251v7.9h-1.251z"/><g class="cls-3"><path class="cls-6" d="M273.46 239.019a2.381 2.381 0 0 0-1.296.364 2.453 2.453 0 0 0-.903 1.02 3.346 3.346 0 0 0-.322 1.489v.154a2.713 2.713 0 0 0 .739 1.994 2.587 2.587 0 0 0 1.924.748 2.8 2.8 0 0 0 1.253-.275 2.263 2.263 0 0 0 .894-.773l-.675-.644a1.687 1.687 0 0 1-1.398.694 1.387 1.387 0 0 1-1.017-.4 1.675 1.675 0 0 1-.46-1.09h3.636v-.505a3.067 3.067 0 0 0-.619-2.051 2.184 2.184 0 0 0-1.756-.725m-1.24 2.365a1.865 1.865 0 0 1 .403-1.003 1.16 1.16 0 0 1 1.641-.041l.002.002a1.516 1.516 0 0 1 .335.95v.092z"/></g><path class="cls-6" d="M285.489 237.197h-1.291v5.333l-3.347-5.333h-1.302v7.489h1.302v-5.313l3.336 5.313h1.302v-7.489z"/><g class="cls-3"><path class="cls-6" d="M289.254 239.018a2.57 2.57 0 0 0-1.348.351 2.374 2.374 0 0 0-.911 1.01 3.286 3.286 0 0 0-.323 1.473v.06a3.005 3.005 0 0 0 .707 2.092 2.415 2.415 0 0 0 1.884.785 2.595 2.595 0 0 0 1.36-.355 2.345 2.345 0 0 0 .905-1.005 3.3 3.3 0 0 0 .318-1.47l-.007-.293a2.856 2.856 0 0 0-.757-1.923 2.434 2.434 0 0 0-1.828-.725m.01 4.772a1.15 1.15 0 0 1-.988-.486 2.248 2.248 0 0 1-.355-1.345 2.427 2.427 0 0 1 .36-1.452 1.223 1.223 0 0 1 1.957.007 2.211 2.211 0 0 1 .362 1.338 2.469 2.469 0 0 1-.353 1.445 1.138 1.138 0 0 1-.984.493"/></g><path class="cls-6" d="M297.256 239.121h-1.292l-1.177 3.98-1.193-3.98h-1.297l1.945 5.564h1.084l1.93-5.564z"/><g class="cls-3"><path class="cls-6" d="M301.467 236.652a2.486 2.486 0 0 0-.67.861 2.394 2.394 0 0 0-.27 1.033v.709h1.095v-.781a2.577 2.577 0 0 1 .483-1.426z"/></g><path class="cls-6" d="M306.266 237.172h-.159l-2.921 1.075v1.048l1.837-.625v6.016h1.243v-7.514z"/><g class="cls-3"><path class="cls-6" d="M312.756 237.161h-.128a3.438 3.438 0 0 0-2.76 1.117 4.58 4.58 0 0 0-.958 3.086v.426a3.25 3.25 0 0 0 .697 2.17 2.259 2.259 0 0 0 1.818.828 2.318 2.318 0 0 0 1.76-.706 2.581 2.581 0 0 0 .673-1.85 2.764 2.764 0 0 0-.574-1.806 1.921 1.921 0 0 0-1.567-.698 2.02 2.02 0 0 0-1.537.633 2.41 2.41 0 0 1 .745-1.59 2.472 2.472 0 0 1 1.677-.576h.154zm-1.342 6.62a1.065 1.065 0 0 1-.904-.491 2.234 2.234 0 0 1-.352-1.325v-.381a1.362 1.362 0 0 1 .503-.617 1.31 1.31 0 0 1 .753-.231 1.05 1.05 0 0 1 .875.426 1.763 1.763 0 0 1 .328 1.106 1.733 1.733 0 0 1-.323 1.095 1.054 1.054 0 0 1-.88.417m-62.064 6.056h-2.566v7.49h2.73a2.947 2.947 0 0 0 1.937-.566 2 2 0 0 0 .677-1.62 1.803 1.803 0 0 0-.333-1.094 1.651 1.651 0 0 0-.939-.62 1.774 1.774 0 0 0 .812-.637 1.613 1.613 0 0 0 .278-.926 1.791 1.791 0 0 0-.663-1.517 3.129 3.129 0 0 0-1.933-.51m-1.265 3.153v-2.103h1.265a1.59 1.59 0 0 1 .984.247 1.113 1.113 0 0 1-.017 1.573l-.008.008a1.472 1.472 0 0 1-.95.275zm0 3.287v-2.33h1.553a1.19 1.19 0 0 1 .848 2.028 1.4 1.4 0 0 1-.956.302zm7.528-4.618a2.38 2.38 0 0 0-1.295.364 2.448 2.448 0 0 0-.903 1.022 3.334 3.334 0 0 0-.322 1.487v.155a2.718 2.718 0 0 0 .738 1.993 2.593 2.593 0 0 0 1.926.748 2.801 2.801 0 0 0 1.253-.275 2.263 2.263 0 0 0 .893-.773l-.675-.643a1.692 1.692 0 0 1-1.398.693 1.385 1.385 0 0 1-1.017-.4 1.675 1.675 0 0 1-.459-1.092h3.635v-.503a3.067 3.067 0 0 0-.618-2.05 2.183 2.183 0 0 0-1.758-.726m-1.239 2.366a1.865 1.865 0 0 1 .403-1.003 1.16 1.16 0 0 1 1.641-.042l.003.003a1.516 1.516 0 0 1 .334.95v.092zm7.062-2.366a1.411 1.411 0 0 0-1.256.724l-.03-.621h-1.193v5.564h1.25v-3.805a1.146 1.146 0 0 1 1.156-.66 3.207 3.207 0 0 1 .51.041l.005-1.172a1.163 1.163 0 0 0-.442-.071"/></g><path class="cls-6" d="M262.741 249.425h1.25v7.9h-1.25z"/><g class="cls-3"><path class="cls-6" d="M266.06 249.636a.683.683 0 0 0-.523.192.672.672 0 0 0-.182.481.657.657 0 0 0 .182.475.687.687 0 0 0 .522.19.7.7 0 0 0 .525-.19.653.653 0 0 0 .186-.475.667.667 0 0 0-.186-.48.695.695 0 0 0-.525-.193m.623 2.125h-1.25v5.564h1.25zm4.175-.103a2.003 2.003 0 0 0-1.62.745l-.036-.642h-1.178v5.564h1.25v-3.96a1.204 1.204 0 0 1 1.126-.684.958.958 0 0 1 .749.254 1.141 1.141 0 0 1 .23.785v3.605h1.249v-3.677q-.03-1.99-1.77-1.99"/></g><path class="cls-6" d="M284.326 249.837h-1.68l-2.156 5.741-2.161-5.741h-1.685v7.489h1.295v-2.47l-.128-3.296 2.205 5.766h.932l2.21-5.771-.128 3.301v2.47h1.296v-7.489z"/><g class="cls-3"><path class="cls-6" d="M287.978 251.657a2.888 2.888 0 0 0-1.165.227 2.029 2.029 0 0 0-.825.625 1.382 1.382 0 0 0-.303.856h1.25a.661.661 0 0 1 .271-.542 1.103 1.103 0 0 1 .7-.214.955.955 0 0 1 .734.259.971.971 0 0 1 .243.692v.366h-.766a3.202 3.202 0 0 0-1.89.476 1.577 1.577 0 0 0-.66 1.364 1.532 1.532 0 0 0 .529 1.184 2.102 2.102 0 0 0 2.829-.145 1.918 1.918 0 0 0 .143.52h1.275v-.088a2.87 2.87 0 0 1-.21-1.198v-2.509a1.748 1.748 0 0 0-.597-1.382 2.334 2.334 0 0 0-1.558-.49m-.283 4.767a.925.925 0 0 1-.64-.214.73.73 0 0 1-.24-.573.786.786 0 0 1 .35-.685 1.843 1.843 0 0 1 1.044-.24h.674v1.048a1.18 1.18 0 0 1-.491.483 1.405 1.405 0 0 1-.697.18m6.223-4.766a1.411 1.411 0 0 0-1.256.724l-.03-.621h-1.193v5.564h1.25v-3.805a1.146 1.146 0 0 1 1.156-.66 3.224 3.224 0 0 1 .51.041l.005-1.172a1.163 1.163 0 0 0-.442-.071m5.044-2.233h-1.095v.812a2.587 2.587 0 0 1-.478 1.427l.638.395a2.54 2.54 0 0 0 .665-.856 2.344 2.344 0 0 0 .27-1.067z"/></g><path class="cls-6" d="M303.355 249.811h-.16l-2.921 1.075v1.048l1.837-.624v6.015h1.244v-7.514zm7.586.026h-5.189v1.003h3.872l-2.988 6.486h1.312l2.993-6.794v-.695z"/><g class="cls-3"><path class="cls-6" d="M240.92 262.373a2.983 2.983 0 0 0-1.915.586 1.82 1.82 0 0 0-.738 1.492 1.925 1.925 0 0 0 1.023 1.676 6.099 6.099 0 0 0 1.44.608 4.181 4.181 0 0 1 1.253.539.906.906 0 0 1 .347.762.884.884 0 0 1-.342.726 1.599 1.599 0 0 1-1.02.275 1.85 1.85 0 0 1-1.21-.348 1.216 1.216 0 0 1-.421-.989h-1.302a2.08 2.08 0 0 0 .378 1.236 2.51 2.51 0 0 0 1.06.83 3.668 3.668 0 0 0 1.494.3 3.112 3.112 0 0 0 1.947-.552 1.783 1.783 0 0 0 .717-1.489 1.988 1.988 0 0 0-.247-1.006 2.237 2.237 0 0 0-.776-.76 5.701 5.701 0 0 0-1.405-.591 4.409 4.409 0 0 1-1.254-.533.816.816 0 0 1-.381-.684.901.901 0 0 1 .353-.758 1.584 1.584 0 0 1 .989-.272 1.532 1.532 0 0 1 1.052.33 1.156 1.156 0 0 1 .368.91h1.295a2.106 2.106 0 0 0-.349-1.18 2.3 2.3 0 0 0-.962-.82 3.23 3.23 0 0 0-1.393-.288m4.963-.309h-1.25v7.9h1.25v-3.976a1.204 1.204 0 0 1 1.121-.668 1.022 1.022 0 0 1 .733.239 1.102 1.102 0 0 1 .248.815v3.59h1.252v-3.637q-.028-2.031-1.806-2.03a1.954 1.954 0 0 0-1.548.709zm6.85 2.232a2.888 2.888 0 0 0-1.166.227 2.019 2.019 0 0 0-.824.624 1.382 1.382 0 0 0-.303.856h1.25a.661.661 0 0 1 .271-.542 1.105 1.105 0 0 1 .7-.214.955.955 0 0 1 .734.26.971.971 0 0 1 .242.692v.365h-.765a3.202 3.202 0 0 0-1.89.477 1.577 1.577 0 0 0-.661 1.364 1.532 1.532 0 0 0 .53 1.184 1.964 1.964 0 0 0 1.368.478 1.944 1.944 0 0 0 1.46-.624 1.918 1.918 0 0 0 .144.52h1.275v-.087a2.87 2.87 0 0 1-.211-1.198v-2.509a1.751 1.751 0 0 0-.595-1.382 2.342 2.342 0 0 0-1.56-.49m-.282 4.767a.928.928 0 0 1-.64-.214.73.73 0 0 1-.24-.574.782.782 0 0 1 .35-.684 1.843 1.843 0 0 1 1.044-.24h.673v1.048a1.18 1.18 0 0 1-.49.483 1.405 1.405 0 0 1-.697.18m6.561-4.767a2 2 0 0 0-1.62.746l-.036-.642h-1.177v5.564h1.25v-3.96a1.205 1.205 0 0 1 1.126-.684.958.958 0 0 1 .748.254 1.141 1.141 0 0 1 .23.785v3.605h1.25v-3.677q-.031-1.99-1.77-1.99m5.05-.001a1.957 1.957 0 0 0-1.617.775 3.25 3.25 0 0 0-.61 2.07 3.365 3.365 0 0 0 .62 2.15 1.956 1.956 0 0 0 1.598.776 1.846 1.846 0 0 0 1.44-.602v.375a1.29 1.29 0 0 1-.361.99 1.379 1.379 0 0 1-.983.336 1.78 1.78 0 0 1-1.418-.682l-.592.75a2.122 2.122 0 0 0 .887.666 2.975 2.975 0 0 0 1.195.253 2.595 2.595 0 0 0 1.839-.63 2.243 2.243 0 0 0 .681-1.73V264.4h-1.126l-.057.56a1.832 1.832 0 0 0-1.496-.663m.31 4.752a1.105 1.105 0 0 1-.95-.48 2.244 2.244 0 0 1-.343-1.32 2.51 2.51 0 0 1 .342-1.44 1.107 1.107 0 0 1 .96-.489 1.188 1.188 0 0 1 1.112.633v2.448a1.204 1.204 0 0 1-1.122.648m4.886-6.985h-1.25v7.9h1.25v-3.976a1.204 1.204 0 0 1 1.122-.668 1.022 1.022 0 0 1 .732.239 1.102 1.102 0 0 1 .249.815v3.59h1.25v-3.637q-.027-2.031-1.805-2.03a1.954 1.954 0 0 0-1.548.709zm6.85 2.232a2.893 2.893 0 0 0-1.165.227 2.019 2.019 0 0 0-.825.624 1.382 1.382 0 0 0-.303.856h1.248a.663.663 0 0 1 .273-.542 1.102 1.102 0 0 1 .7-.214.95.95 0 0 1 .734.26.971.971 0 0 1 .243.692v.365h-.766a3.205 3.205 0 0 0-1.89.477 1.577 1.577 0 0 0-.66 1.364 1.532 1.532 0 0 0 .529 1.184 1.964 1.964 0 0 0 1.368.478 1.944 1.944 0 0 0 1.46-.624 1.917 1.917 0 0 0 .145.52h1.274v-.087a2.848 2.848 0 0 1-.21-1.198v-2.509a1.754 1.754 0 0 0-.597-1.382 2.335 2.335 0 0 0-1.558-.49m-.283 4.767a.925.925 0 0 1-.64-.214.73.73 0 0 1-.24-.574.782.782 0 0 1 .35-.684 1.843 1.843 0 0 1 1.044-.24h.674v1.048a1.188 1.188 0 0 1-.49.483 1.405 1.405 0 0 1-.698.18m4.455-6.788a.685.685 0 0 0-.523.192.666.666 0 0 0-.182.482.657.657 0 0 0 .182.474.696.696 0 0 0 .522.19.705.705 0 0 0 .525-.19.653.653 0 0 0 .186-.474.662.662 0 0 0-.186-.482.695.695 0 0 0-.525-.192m.624 2.125h-1.25v5.564h1.25z"/></g><path class="cls-6" d="M290.945 262.475h-1.291v5.333l-3.347-5.333h-1.302v7.489h1.302v-5.313l3.336 5.313h1.302v-7.489z"/><g class="cls-3"><path class="cls-6" d="M294.71 264.297a2.569 2.569 0 0 0-1.347.351 2.374 2.374 0 0 0-.911 1.01 3.281 3.281 0 0 0-.323 1.472v.061a3.011 3.011 0 0 0 .706 2.092 2.418 2.418 0 0 0 1.885.784 2.581 2.581 0 0 0 1.36-.356 2.332 2.332 0 0 0 .905-1.003 3.305 3.305 0 0 0 .317-1.47l-.006-.294a2.853 2.853 0 0 0-.758-1.923 2.435 2.435 0 0 0-1.829-.724m.011 4.772a1.154 1.154 0 0 1-.987-.486 2.24 2.24 0 0 1-.355-1.345 2.423 2.423 0 0 1 .36-1.453 1.145 1.145 0 0 1 .971-.486 1.158 1.158 0 0 1 .986.494 2.208 2.208 0 0 1 .362 1.337 2.472 2.472 0 0 1-.353 1.445 1.138 1.138 0 0 1-.984.494"/></g><path class="cls-6" d="M302.712 264.399h-1.292l-1.176 3.981-1.193-3.981h-1.297l1.945 5.565h1.084l1.929-5.565z"/><g class="cls-3"><path class="cls-6" d="M306.924 261.93a2.49 2.49 0 0 0-.671.861 2.39 2.39 0 0 0-.269 1.033v.71h1.095v-.783a2.576 2.576 0 0 1 .483-1.425z"/></g><path class="cls-6" d="M311.722 262.45h-.159l-2.921 1.075v1.048l1.837-.625v6.016h1.243v-7.514z"/><g class="cls-3"><path class="cls-6" d="M316.752 262.374a2.381 2.381 0 0 0-1.667.56 1.947 1.947 0 0 0-.617 1.517 1.756 1.756 0 0 0 .28.978 1.962 1.962 0 0 0 .764.678 2.038 2.038 0 0 0-.895.734 1.921 1.921 0 0 0-.319 1.081 1.969 1.969 0 0 0 .672 1.564 3.03 3.03 0 0 0 3.566.002 1.966 1.966 0 0 0 .669-1.566 1.88 1.88 0 0 0-.316-1.07 2.134 2.134 0 0 0-.903-.745 1.974 1.974 0 0 0 .772-.678 1.733 1.733 0 0 0 .283-.978 1.947 1.947 0 0 0-.617-1.517 2.385 2.385 0 0 0-1.672-.56m.005 3.244a.983.983 0 0 1-.76-.304 1.34 1.34 0 0 1 0-1.638 1.085 1.085 0 0 1 1.516.016 1.31 1.31 0 0 1 .003 1.622.983.983 0 0 1-.759.304m0 3.45a1.18 1.18 0 0 1-.887-.329 1.205 1.205 0 0 1-.322-.88 1.246 1.246 0 0 1 .326-.899 1.155 1.155 0 0 1 .872-.339 1.168 1.168 0 0 1 .878.342 1.236 1.236 0 0 1 .331.897 1.208 1.208 0 0 1-.315.89 1.187 1.187 0 0 1-.883.319"/></g><path class="cls-6" d="M401.18 237.197h-1.167l-2.829 7.488h1.353l.608-1.743h2.899l.612 1.743h1.358zm-1.671 4.695l1.085-3.105 1.084 3.105z"/><g class="cls-3"><path class="cls-6" d="M409.265 239.121h-1.25v3.996a1.234 1.234 0 0 1-1.23.653q-.88 0-.879-1.06v-3.589h-1.25v3.605a2.25 2.25 0 0 0 .466 1.533 1.728 1.728 0 0 0 1.37.53 1.94 1.94 0 0 0 1.564-.649l.03.545h1.179zm3.352-.103a2.407 2.407 0 0 0-1.543.483 1.488 1.488 0 0 0-.606 1.204 1.421 1.421 0 0 0 .935 1.31 4.755 4.755 0 0 0 1.066.341 2.904 2.904 0 0 1 .912.308.566.566 0 0 1 .277.51.582.582 0 0 1-.258.49 1.267 1.267 0 0 1-.752.187 1.304 1.304 0 0 1-.818-.237.889.889 0 0 1-.334-.683h-1.214a1.6 1.6 0 0 0 .3.931 1.995 1.995 0 0 0 .832.68 2.882 2.882 0 0 0 1.219.247 2.664 2.664 0 0 0 1.63-.466 1.452 1.452 0 0 0 .623-1.217 1.365 1.365 0 0 0-.204-.76 1.627 1.627 0 0 0-.621-.538 4.603 4.603 0 0 0-1.155-.386 3.318 3.318 0 0 1-.978-.322.506.506 0 0 1-.242-.446.6.6 0 0 1 .261-.51 1.106 1.106 0 0 1 .67-.19 1.03 1.03 0 0 1 .711.239.776.776 0 0 1 .267.6h1.25a1.565 1.565 0 0 0-.616-1.281 2.492 2.492 0 0 0-1.612-.494m4.923-1.25h-1.25v1.353h-.916v.926h.916v3.151q0 1.591 1.44 1.59a3.037 3.037 0 0 0 .822-.118v-.967a1.909 1.909 0 0 1-.436.051.583.583 0 0 1-.45-.14.686.686 0 0 1-.126-.461v-3.106h.982v-.926h-.982zm2.643-.771a.683.683 0 0 0-.522.192.671.671 0 0 0-.182.481.656.656 0 0 0 .182.475.687.687 0 0 0 .522.189.702.702 0 0 0 .525-.19.658.658 0 0 0 .184-.474.673.673 0 0 0-.184-.481.697.697 0 0 0-.525-.192m.622 2.124h-1.25v5.565h1.25zm4.176-.103a2 2 0 0 0-1.62.745l-.036-.642h-1.178v5.565h1.25v-3.96a1.204 1.204 0 0 1 1.126-.685.958.958 0 0 1 .749.255 1.141 1.141 0 0 1 .23.784v3.606h1.249v-3.678q-.03-1.989-1.77-1.99m7.997-1.821h-2.21v7.489h2.154a3.64 3.64 0 0 0 1.798-.437 2.979 2.979 0 0 0 1.209-1.245 3.965 3.965 0 0 0 .423-1.872v-.376a3.978 3.978 0 0 0-.422-1.86 3.02 3.02 0 0 0-1.19-1.257 3.48 3.48 0 0 0-1.762-.442m-.91 6.44v-5.39h.91a1.88 1.88 0 0 1 1.539.642 2.852 2.852 0 0 1 .53 1.857v.416a2.778 2.778 0 0 1-.559 1.835 1.955 1.955 0 0 1-1.571.64zm7.767-4.618a2.381 2.381 0 0 0-1.296.364 2.453 2.453 0 0 0-.903 1.02 3.346 3.346 0 0 0-.322 1.489v.154a2.713 2.713 0 0 0 .739 1.994 2.587 2.587 0 0 0 1.924.748 2.8 2.8 0 0 0 1.253-.275 2.262 2.262 0 0 0 .894-.773l-.675-.644a1.69 1.69 0 0 1-1.398.694 1.387 1.387 0 0 1-1.017-.4 1.675 1.675 0 0 1-.46-1.09h3.636v-.505a3.067 3.067 0 0 0-.619-2.051 2.184 2.184 0 0 0-1.756-.725m-1.24 2.365a1.865 1.865 0 0 1 .403-1.003 1.16 1.16 0 0 1 1.64-.041l.003.002a1.516 1.516 0 0 1 .335.95v.092zm6.881-2.366a2.347 2.347 0 0 0-1.851.764 2.947 2.947 0 0 0-.68 2.034v.128a2.999 2.999 0 0 0 .685 2.089 2.37 2.37 0 0 0 1.85.756 2.453 2.453 0 0 0 1.122-.263 2.141 2.141 0 0 0 .824-.712 1.845 1.845 0 0 0 .323-.97h-1.178a.93.93 0 0 1-.33.673 1.122 1.122 0 0 1-.776.274 1.1 1.1 0 0 1-.944-.446 2.274 2.274 0 0 1-.326-1.35v-.2a2.24 2.24 0 0 1 .334-1.335 1.1 1.1 0 0 1 .936-.439 1.045 1.045 0 0 1 .78.31 1.146 1.146 0 0 1 .326.785h1.178a2.072 2.072 0 0 0-.656-1.52 2.283 2.283 0 0 0-1.617-.578m6.649-2.366a2.468 2.468 0 0 0-.67.861 2.372 2.372 0 0 0-.27 1.033v.709h1.095v-.781a2.576 2.576 0 0 1 .483-1.426z"/></g><path class="cls-6" d="M456.924 237.172h-.16l-2.921 1.075v1.048l1.837-.625v6.016h1.244v-7.514zm7.586.025h-5.19v1.003h3.873l-2.989 6.486h1.313l2.993-6.794v-.695z"/><g class="cls-3"><path class="cls-6" d="M385.217 249.735a2.999 2.999 0 0 0-1.623.437 2.828 2.828 0 0 0-1.076 1.243 4.368 4.368 0 0 0-.377 1.867v.7a4.36 4.36 0 0 0 .386 1.815 2.788 2.788 0 0 0 1.051 1.206 2.921 2.921 0 0 0 1.577.425 3.011 3.011 0 0 0 2.052-.672 2.7 2.7 0 0 0 .884-1.87h-1.296a1.795 1.795 0 0 1-.488 1.149 1.686 1.686 0 0 1-1.153.343 1.441 1.441 0 0 1-1.271-.637 3.286 3.286 0 0 1-.436-1.854v-.664a3.111 3.111 0 0 1 .466-1.82 1.52 1.52 0 0 1 1.304-.62 1.551 1.551 0 0 1 1.108.358 1.85 1.85 0 0 1 .47 1.165h1.296a2.807 2.807 0 0 0-.88-1.901 2.896 2.896 0 0 0-1.994-.67m6.263 1.922a2.569 2.569 0 0 0-1.347.352 2.374 2.374 0 0 0-.91 1.01 3.286 3.286 0 0 0-.324 1.472v.061a3.011 3.011 0 0 0 .706 2.092 2.418 2.418 0 0 0 1.886.784 2.595 2.595 0 0 0 1.36-.355 2.345 2.345 0 0 0 .905-1.004 3.3 3.3 0 0 0 .317-1.47l-.006-.294a2.856 2.856 0 0 0-.758-1.923 2.435 2.435 0 0 0-1.829-.725m.01 4.773a1.15 1.15 0 0 1-.986-.486 2.237 2.237 0 0 1-.355-1.345 2.427 2.427 0 0 1 .36-1.453 1.223 1.223 0 0 1 1.957.008 2.211 2.211 0 0 1 .362 1.337 2.469 2.469 0 0 1-.353 1.445 1.138 1.138 0 0 1-.984.494m6.335-4.773a1.837 1.837 0 0 0-1.496.669l-.052-.565h-1.151v7.704h1.25v-2.638a1.895 1.895 0 0 0 1.465.601 1.875 1.875 0 0 0 1.573-.769 3.32 3.32 0 0 0 .587-2.06v-.077a3.416 3.416 0 0 0-.578-2.107 1.903 1.903 0 0 0-1.598-.758m-.339 4.773a1.16 1.16 0 0 1-1.11-.649v-2.468a1.148 1.148 0 0 1 1.1-.632 1.082 1.082 0 0 1 .95.489 2.331 2.331 0 0 1 .33 1.321 2.562 2.562 0 0 1-.336 1.458 1.077 1.077 0 0 1-.934.48m5.878-4.771a2.38 2.38 0 0 0-1.295.364 2.448 2.448 0 0 0-.903 1.022 3.334 3.334 0 0 0-.322 1.487v.155a2.718 2.718 0 0 0 .738 1.993 2.594 2.594 0 0 0 1.927.748 2.799 2.799 0 0 0 1.252-.275 2.263 2.263 0 0 0 .893-.773l-.675-.643a1.692 1.692 0 0 1-1.398.693 1.387 1.387 0 0 1-1.017-.4 1.675 1.675 0 0 1-.459-1.092h3.635v-.503a3.067 3.067 0 0 0-.619-2.05 2.183 2.183 0 0 0-1.757-.726m-1.239 2.366a1.865 1.865 0 0 1 .403-1.003 1.16 1.16 0 0 1 1.641-.042l.003.003a1.516 1.516 0 0 1 .334.95v.092zm7.401-2.366a2 2 0 0 0-1.62.745l-.036-.642h-1.178v5.564h1.25v-3.96a1.204 1.204 0 0 1 1.126-.684.958.958 0 0 1 .749.254 1.141 1.141 0 0 1 .23.785v3.605h1.249v-3.677q-.03-1.99-1.77-1.99m4.274-2.233h-1.25v7.9h1.25v-3.976a1.204 1.204 0 0 1 1.122-.668 1.022 1.022 0 0 1 .732.239 1.102 1.102 0 0 1 .249.815v3.59h1.251v-3.635q-.028-2.034-1.806-2.033a1.958 1.958 0 0 0-1.548.71zm6.85 2.232a2.893 2.893 0 0 0-1.165.227 2.03 2.03 0 0 0-.825.625 1.382 1.382 0 0 0-.303.856h1.248a.663.663 0 0 1 .274-.542 1.106 1.106 0 0 1 .7-.214.957.957 0 0 1 .735.259.977.977 0 0 1 .24.692v.366h-.765a3.205 3.205 0 0 0-1.89.476 1.576 1.576 0 0 0-.66 1.364 1.532 1.532 0 0 0 .529 1.184 1.964 1.964 0 0 0 1.368.478 1.944 1.944 0 0 0 1.46-.623 1.917 1.917 0 0 0 .145.52h1.274v-.088a2.848 2.848 0 0 1-.21-1.198v-2.509a1.757 1.757 0 0 0-.596-1.382 2.342 2.342 0 0 0-1.559-.49m-.283 4.767a.928.928 0 0 1-.64-.214.73.73 0 0 1-.239-.573.786.786 0 0 1 .35-.685 1.843 1.843 0 0 1 1.043-.24h.674v1.048a1.179 1.179 0 0 1-.49.483 1.401 1.401 0 0 1-.697.18m5.753-4.767a1.953 1.953 0 0 0-1.616.775 3.25 3.25 0 0 0-.61 2.07 3.356 3.356 0 0 0 .62 2.15 1.947 1.947 0 0 0 1.597.776 1.846 1.846 0 0 0 1.44-.602v.375a1.29 1.29 0 0 1-.36.99 1.379 1.379 0 0 1-.983.336 1.783 1.783 0 0 1-1.419-.682l-.592.75a2.132 2.132 0 0 0 .888.667 2.95 2.95 0 0 0 1.195.253 2.595 2.595 0 0 0 1.838-.631 2.243 2.243 0 0 0 .682-1.73v-5.394h-1.127l-.056.561a1.832 1.832 0 0 0-1.497-.664m.31 4.752a1.1 1.1 0 0 1-.949-.48 2.233 2.233 0 0 1-.343-1.32 2.498 2.498 0 0 1 .343-1.44 1.102 1.102 0 0 1 .958-.489 1.188 1.188 0 0 1 1.112.633v2.448a1.204 1.204 0 0 1-1.121.648m5.96-4.751a2.38 2.38 0 0 0-1.295.364 2.447 2.447 0 0 0-.903 1.022 3.313 3.313 0 0 0-.322 1.487v.155a2.718 2.718 0 0 0 .738 1.993 2.593 2.593 0 0 0 1.926.748 2.801 2.801 0 0 0 1.253-.275 2.247 2.247 0 0 0 .892-.773l-.674-.643a1.694 1.694 0 0 1-1.398.693 1.385 1.385 0 0 1-1.017-.4 1.675 1.675 0 0 1-.459-1.092h3.635v-.503a3.067 3.067 0 0 0-.618-2.05 2.185 2.185 0 0 0-1.758-.726m-1.239 2.366a1.865 1.865 0 0 1 .403-1.003 1.16 1.16 0 0 1 1.641-.042l.003.003a1.516 1.516 0 0 1 .334.95v.092zm7.4-2.366a2 2 0 0 0-1.62.745l-.036-.642h-1.178v5.564h1.25v-3.96a1.205 1.205 0 0 1 1.126-.684.958.958 0 0 1 .749.254 1.141 1.141 0 0 1 .23.785v3.605h1.249v-3.677q-.03-1.99-1.77-1.99"/></g><path class="cls-6" d="M452.023 249.837h-1.681l-2.156 5.741-2.16-5.741h-1.686v7.489h1.295v-2.47l-.128-3.296 2.206 5.766h.931l2.212-5.771-.128 3.301v2.47h1.295v-7.489z"/><g class="cls-3"><path class="cls-6" d="M455.674 251.657a2.893 2.893 0 0 0-1.165.227 2.03 2.03 0 0 0-.825.625 1.382 1.382 0 0 0-.303.856h1.25a.661.661 0 0 1 .271-.542 1.106 1.106 0 0 1 .7-.214.957.957 0 0 1 .736.259.977.977 0 0 1 .24.692v.366h-.765a3.205 3.205 0 0 0-1.89.476 1.576 1.576 0 0 0-.66 1.364 1.532 1.532 0 0 0 .529 1.184 1.964 1.964 0 0 0 1.368.478 1.944 1.944 0 0 0 1.46-.623 1.918 1.918 0 0 0 .144.52h1.275v-.088a2.848 2.848 0 0 1-.21-1.198v-2.509a1.753 1.753 0 0 0-.598-1.382 2.334 2.334 0 0 0-1.557-.49m-.283 4.767a.928.928 0 0 1-.64-.214.73.73 0 0 1-.24-.573.786.786 0 0 1 .35-.685 1.843 1.843 0 0 1 1.044-.24h.674v1.048a1.179 1.179 0 0 1-.491.483 1.4 1.4 0 0 1-.697.18m8.08-4.664h-1.332l-1.131 3.775-1.178-3.775h-1.348l1.954 5.535-.18.478a1.144 1.144 0 0 1-.378.578 1.222 1.222 0 0 1-.712.172l-.236-.016v.972a2.21 2.21 0 0 0 .602.094 1.798 1.798 0 0 0 1.727-1.405zm4.535-2.335h-1.095v.812a2.587 2.587 0 0 1-.478 1.427l.638.395a2.541 2.541 0 0 0 .665-.856 2.344 2.344 0 0 0 .27-1.067z"/></g><path class="cls-6" d="M472.398 249.811h-.159l-2.921 1.075v1.048l1.837-.624v6.015h1.243v-7.514z"/><g class="cls-3"><path class="cls-6" d="M477.43 249.734a2.388 2.388 0 0 0-1.667.561 1.947 1.947 0 0 0-.617 1.517 1.757 1.757 0 0 0 .28.98 1.958 1.958 0 0 0 .763.676 2.048 2.048 0 0 0-.895.734 1.922 1.922 0 0 0-.319 1.081 1.966 1.966 0 0 0 .672 1.564 3.03 3.03 0 0 0 3.566.001 1.966 1.966 0 0 0 .669-1.565 1.884 1.884 0 0 0-.316-1.07 2.135 2.135 0 0 0-.903-.745 1.97 1.97 0 0 0 .772-.676 1.735 1.735 0 0 0 .283-.98 1.947 1.947 0 0 0-.617-1.517 2.393 2.393 0 0 0-1.672-.56m.005 3.244a.987.987 0 0 1-.76-.303 1.343 1.343 0 0 1 0-1.639 1.085 1.085 0 0 1 1.516.016 1.312 1.312 0 0 1 .003 1.623.987.987 0 0 1-.759.303m0 3.45a1.181 1.181 0 0 1-.887-.329 1.202 1.202 0 0 1-.322-.88 1.246 1.246 0 0 1 .326-.9 1.155 1.155 0 0 1 .872-.338 1.168 1.168 0 0 1 .878.342 1.236 1.236 0 0 1 .331.897 1.208 1.208 0 0 1-.315.89 1.19 1.19 0 0 1-.883.319"/></g><g class="cls-3"><path class="cls-7" d="M279.701 192.656a3.556 3.556 0 1 1-3.555-3.557 3.557 3.557 0 0 1 3.555 3.557m159.952-67.242a3.556 3.556 0 1 1 0-.002v.002"/><path class="cls-8" d="M598.295 33.983a3.556 3.556 0 1 1-3.557-3.557 3.556 3.556 0 0 1 3.557 3.557"/><path d="M9.353 81.413a1.306 1.306 0 0 0-.753.232 1.354 1.354 0 0 0-.503.617v.38a2.249 2.249 0 0 0 .35 1.325 1.071 1.071 0 0 0 .906.49 1.054 1.054 0 0 0 .88-.416 1.733 1.733 0 0 0 .323-1.095 1.763 1.763 0 0 0-.328-1.106 1.05 1.05 0 0 0-.875-.427m1.342-3.574v1.034h-.155a2.479 2.479 0 0 0-1.676.575 2.406 2.406 0 0 0-.745 1.589 2.023 2.023 0 0 1 1.537-.631 1.916 1.916 0 0 1 1.565.698 2.756 2.756 0 0 1 .575 1.806 2.581 2.581 0 0 1-.671 1.85 2.318 2.318 0 0 1-1.761.706 2.259 2.259 0 0 1-1.818-.828 3.25 3.25 0 0 1-.697-2.17v-.427a4.586 4.586 0 0 1 .958-3.086 3.442 3.442 0 0 1 2.76-1.116zm2.355 9.211l-.673-.402a3.723 3.723 0 0 0 .41-.814 2.484 2.484 0 0 0 .115-.707v-.972h1.126l-.006.9a2.51 2.51 0 0 1-.275 1.092 2.704 2.704 0 0 1-.696.903m5.688-6.24a3.167 3.167 0 0 0-.287-1.544 1.102 1.102 0 0 0-1.817-.025 2.933 2.933 0 0 0-.303 1.452v1.697a3.25 3.25 0 0 0 .293 1.564.983.983 0 0 0 .92.514.968.968 0 0 0 .89-.475 3.068 3.068 0 0 0 .304-1.49zm1.25 1.4a4.083 4.083 0 0 1-.605 2.436 2.134 2.134 0 0 1-1.839.82 2.162 2.162 0 0 1-1.827-.8 3.907 3.907 0 0 1-.631-2.368V81a4.016 4.016 0 0 1 .604-2.421 2.155 2.155 0 0 1 1.845-.808 2.163 2.163 0 0 1 1.832.788 3.897 3.897 0 0 1 .62 2.354zm4.736-1.4a3.167 3.167 0 0 0-.287-1.544 1.102 1.102 0 0 0-1.817-.025 2.933 2.933 0 0 0-.303 1.452v1.697a3.25 3.25 0 0 0 .293 1.564.982.982 0 0 0 .92.514.968.968 0 0 0 .891-.475 3.068 3.068 0 0 0 .303-1.49zm1.25 1.4a4.083 4.083 0 0 1-.605 2.436 2.134 2.134 0 0 1-1.838.82 2.162 2.162 0 0 1-1.828-.8 3.907 3.907 0 0 1-.631-2.368V81a4.016 4.016 0 0 1 .604-2.421 2.155 2.155 0 0 1 1.845-.808 2.165 2.165 0 0 1 1.833.788 3.897 3.897 0 0 1 .62 2.354zm4.736-1.4a3.167 3.167 0 0 0-.287-1.544 1.102 1.102 0 0 0-1.817-.025 2.933 2.933 0 0 0-.303 1.452v1.697a3.25 3.25 0 0 0 .294 1.564.982.982 0 0 0 .92.514.968.968 0 0 0 .89-.475 3.068 3.068 0 0 0 .303-1.49zm1.25 1.4a4.083 4.083 0 0 1-.605 2.436 2.134 2.134 0 0 1-1.838.82 2.162 2.162 0 0 1-1.828-.8 3.907 3.907 0 0 1-.631-2.368V81a4.016 4.016 0 0 1 .604-2.421 2.155 2.155 0 0 1 1.845-.808 2.163 2.163 0 0 1 1.833.788 3.897 3.897 0 0 1 .62 2.354z"/></g><path d="M9.657 129.374l.091-.163v3.102H7.803zm.051-1.843l-3.205 5.022.036.756h3.21v1.65h1.24v-1.65h.923v-.996h-.924v-4.782z"/><path d="M13.05 136.598l-.674-.402a3.723 3.723 0 0 0 .41-.813 2.484 2.484 0 0 0 .115-.708v-.972h1.125l-.005.9a2.51 2.51 0 0 1-.275 1.092 2.703 2.703 0 0 1-.696.903m5.688-6.239a3.167 3.167 0 0 0-.287-1.545 1.102 1.102 0 0 0-1.817-.025 2.929 2.929 0 0 0-.303 1.453v1.696a3.25 3.25 0 0 0 .294 1.564.983.983 0 0 0 .92.514.966.966 0 0 0 .89-.477 3.056 3.056 0 0 0 .303-1.488zm1.25 1.4a4.083 4.083 0 0 1-.605 2.435 2.134 2.134 0 0 1-1.838.82 2.162 2.162 0 0 1-1.828-.8 3.907 3.907 0 0 1-.631-2.368v-1.296a4.016 4.016 0 0 1 .604-2.422 2.155 2.155 0 0 1 1.845-.807 2.163 2.163 0 0 1 1.833.787 3.897 3.897 0 0 1 .62 2.354zm4.736-1.4a3.167 3.167 0 0 0-.287-1.545 1.102 1.102 0 0 0-1.817-.025 2.929 2.929 0 0 0-.303 1.453v1.696a3.25 3.25 0 0 0 .294 1.564.982.982 0 0 0 .92.514.966.966 0 0 0 .89-.477 3.056 3.056 0 0 0 .303-1.488zm1.25 1.4a4.083 4.083 0 0 1-.605 2.435 2.134 2.134 0 0 1-1.838.82 2.162 2.162 0 0 1-1.828-.8 3.907 3.907 0 0 1-.631-2.368v-1.296a4.016 4.016 0 0 1 .605-2.422 2.155 2.155 0 0 1 1.844-.807 2.163 2.163 0 0 1 1.833.787 3.897 3.897 0 0 1 .62 2.354zm4.736-1.4a3.167 3.167 0 0 0-.287-1.545 1.102 1.102 0 0 0-1.817-.025 2.929 2.929 0 0 0-.303 1.453v1.696a3.25 3.25 0 0 0 .294 1.564.983.983 0 0 0 .92.514.966.966 0 0 0 .89-.477 3.056 3.056 0 0 0 .303-1.488zm1.25 1.4a4.083 4.083 0 0 1-.604 2.435 2.134 2.134 0 0 1-1.84.82 2.162 2.162 0 0 1-1.827-.8 3.907 3.907 0 0 1-.63-2.368v-1.296a4.016 4.016 0 0 1 .604-2.422 2.155 2.155 0 0 1 1.845-.807 2.163 2.163 0 0 1 1.832.787 3.897 3.897 0 0 1 .62 2.354zm-21.556 51.177H5.369v-.86l2.495-2.719a6.314 6.314 0 0 0 .768-1.006 1.637 1.637 0 0 0 .228-.81 1.235 1.235 0 0 0-.3-.865 1.044 1.044 0 0 0-.81-.328 1.2 1.2 0 0 0-.94.37 1.452 1.452 0 0 0-.335 1.013h-1.25a2.44 2.44 0 0 1 .311-1.231 2.14 2.14 0 0 1 .89-.852 2.819 2.819 0 0 1 1.335-.303 2.539 2.539 0 0 1 1.72.547 1.903 1.903 0 0 1 .63 1.516 2.57 2.57 0 0 1-.317 1.174 6.6 6.6 0 0 1-1.037 1.397l-1.83 1.959h3.477zm1.208 1.687l-.673-.402a3.723 3.723 0 0 0 .41-.814 2.484 2.484 0 0 0 .115-.708v-.971h1.126l-.006.9a2.51 2.51 0 0 1-.275 1.092 2.704 2.704 0 0 1-.697.902m5.688-6.238a3.167 3.167 0 0 0-.287-1.545 1.102 1.102 0 0 0-1.817-.025 2.933 2.933 0 0 0-.303 1.452v1.697a3.25 3.25 0 0 0 .294 1.564.982.982 0 0 0 .92.514.968.968 0 0 0 .89-.475 3.068 3.068 0 0 0 .304-1.49zm1.25 1.4a4.083 4.083 0 0 1-.604 2.435 2.134 2.134 0 0 1-1.839.82 2.162 2.162 0 0 1-1.828-.8 3.907 3.907 0 0 1-.63-2.368v-1.297a4.016 4.016 0 0 1 .604-2.421 2.155 2.155 0 0 1 1.845-.808 2.163 2.163 0 0 1 1.832.788 3.897 3.897 0 0 1 .62 2.354zm4.737-1.4a3.167 3.167 0 0 0-.288-1.545 1.102 1.102 0 0 0-1.817-.025 2.933 2.933 0 0 0-.303 1.452v1.697a3.25 3.25 0 0 0 .294 1.564.983.983 0 0 0 .92.514.968.968 0 0 0 .89-.475 3.068 3.068 0 0 0 .304-1.49zm1.25 1.4a4.083 4.083 0 0 1-.605 2.435 2.134 2.134 0 0 1-1.839.82 2.162 2.162 0 0 1-1.828-.8 3.907 3.907 0 0 1-.63-2.368v-1.297a4.016 4.016 0 0 1 .604-2.421 2.155 2.155 0 0 1 1.845-.808 2.163 2.163 0 0 1 1.832.788 3.897 3.897 0 0 1 .62 2.354zm4.736-1.4a3.167 3.167 0 0 0-.287-1.545 1.102 1.102 0 0 0-1.817-.025 2.933 2.933 0 0 0-.303 1.452v1.697a3.25 3.25 0 0 0 .293 1.564.982.982 0 0 0 .92.514.968.968 0 0 0 .89-.475 3.068 3.068 0 0 0 .304-1.49zm1.25 1.4a4.083 4.083 0 0 1-.605 2.435 2.134 2.134 0 0 1-1.839.82 2.162 2.162 0 0 1-1.827-.8 3.907 3.907 0 0 1-.631-2.368v-1.297a4.016 4.016 0 0 1 .604-2.421 2.155 2.155 0 0 1 1.845-.808 2.165 2.165 0 0 1 1.832.788 3.897 3.897 0 0 1 .62 2.354z" class=""/><path d="M249.835 10.785v5.335l-3.347-5.335h-1.3v7.488h1.3V12.96l3.338 5.313h1.3v-7.488h-1.291z"/><path d="M253.56 15.548a2.248 2.248 0 0 0 .354 1.345 1.15 1.15 0 0 0 .987.486 1.136 1.136 0 0 0 .984-.494 2.469 2.469 0 0 0 .353-1.445 2.211 2.211 0 0 0-.362-1.337 1.223 1.223 0 0 0-1.958-.008 2.434 2.434 0 0 0-.359 1.453m-1.25-.108a3.28 3.28 0 0 1 .324-1.473 2.374 2.374 0 0 1 .91-1.01 2.57 2.57 0 0 1 1.349-.35 2.434 2.434 0 0 1 1.827.724 2.857 2.857 0 0 1 .758 1.923l.006.294a3.32 3.32 0 0 1-.315 1.47 2.358 2.358 0 0 1-.906 1.004 2.587 2.587 0 0 1-1.361.355 2.417 2.417 0 0 1-1.884-.784 3.005 3.005 0 0 1-.708-2.092zm9.144-1.59a3.186 3.186 0 0 0-.509-.04 1.145 1.145 0 0 0-1.156.657v3.807h-1.251V12.71h1.193l.031.622a1.406 1.406 0 0 1 1.255-.725 1.158 1.158 0 0 1 .442.072zm2.613-2.494v1.353h.982v.925h-.982v3.107a.683.683 0 0 0 .126.46.583.583 0 0 0 .45.141 1.908 1.908 0 0 0 .436-.051v.967a3.04 3.04 0 0 1-.823.118q-1.439 0-1.439-1.588v-3.154h-.915v-.925h.915v-1.353zm3.168 1.96a1.954 1.954 0 0 1 1.548-.71q1.779 0 1.806 2.031v3.637h-1.251v-3.59a1.102 1.102 0 0 0-.249-.815 1.022 1.022 0 0 0-.732-.24 1.204 1.204 0 0 0-1.122.67v3.975h-1.25v-7.9h1.25z" class=""/><path d="M277.336 12.376l1.083 3.105h-2.169zm-.583-1.59l-2.829 7.487h1.353l.608-1.744h2.9l.612 1.744h1.357l-2.832-7.488z"/><path d="M282.411 12.71l.036.58a2.002 2.002 0 0 1 1.604-.684 1.54 1.54 0 0 1 1.528.853 1.974 1.974 0 0 1 1.708-.853 1.735 1.735 0 0 1 1.37.51 2.238 2.238 0 0 1 .46 1.5v3.658h-1.25v-3.621a1.111 1.111 0 0 0-.23-.777 1.016 1.016 0 0 0-.767-.247 1.038 1.038 0 0 0-.697.23 1.202 1.202 0 0 0-.378.598l.005 3.817h-1.25v-3.662a.891.891 0 0 0-1.002-.983 1.101 1.101 0 0 0-1.065.613v4.032h-1.25v-5.565zm10.292.899a1.055 1.055 0 0 0-.831.36 1.878 1.878 0 0 0-.405 1.004h2.382v-.094a1.524 1.524 0 0 0-.334-.948 1.049 1.049 0 0 0-.812-.322m.148 4.768a2.588 2.588 0 0 1-1.926-.749 2.714 2.714 0 0 1-.737-1.993v-.155a3.345 3.345 0 0 1 .32-1.488 2.453 2.453 0 0 1 .903-1.02 2.386 2.386 0 0 1 1.296-.366 2.187 2.187 0 0 1 1.756.725 3.063 3.063 0 0 1 .62 2.053v.503h-3.636a1.67 1.67 0 0 0 .46 1.09 1.376 1.376 0 0 0 1.016.401 1.696 1.696 0 0 0 1.4-.693l.673.642a2.261 2.261 0 0 1-.892.775 2.81 2.81 0 0 1-1.253.275m6.114-4.527a3.186 3.186 0 0 0-.509-.04 1.145 1.145 0 0 0-1.156.657v3.807h-1.251V12.71h1.193l.032.622a1.406 1.406 0 0 1 1.254-.725 1.158 1.158 0 0 1 .442.072zm2.12 4.424h-1.25V12.71h1.25zm-1.328-7.016a.678.678 0 0 1 .183-.482.69.69 0 0 1 .522-.19.7.7 0 0 1 .525.19.674.674 0 0 1 .186.482.653.653 0 0 1-.186.475.705.705 0 0 1-.525.19.696.696 0 0 1-.522-.19.657.657 0 0 1-.183-.475m4.973 6.121a1.125 1.125 0 0 0 .777-.274.93.93 0 0 0 .33-.673h1.177a1.834 1.834 0 0 1-.324.97 2.126 2.126 0 0 1-.822.713 2.454 2.454 0 0 1-1.122.262 2.37 2.37 0 0 1-1.85-.756 2.992 2.992 0 0 1-.685-2.089v-.128a2.947 2.947 0 0 1 .68-2.034 2.347 2.347 0 0 1 1.85-.764 2.284 2.284 0 0 1 1.617.578 2.084 2.084 0 0 1 .656 1.52h-1.177a1.146 1.146 0 0 0-.327-.785 1.051 1.051 0 0 0-.78-.31 1.098 1.098 0 0 0-.935.44 2.232 2.232 0 0 0-.334 1.335v.2a2.274 2.274 0 0 0 .326 1.35 1.098 1.098 0 0 0 .944.445m5.179-.005a1.418 1.418 0 0 0 .696-.181 1.18 1.18 0 0 0 .49-.483v-1.05h-.673a1.842 1.842 0 0 0-1.043.242.786.786 0 0 0-.35.685.73.73 0 0 0 .239.573.928.928 0 0 0 .64.214m1.373.9a1.918 1.918 0 0 1-.143-.52 1.944 1.944 0 0 1-1.46.623 1.964 1.964 0 0 1-1.37-.478 1.532 1.532 0 0 1-.529-1.184 1.576 1.576 0 0 1 .66-1.364 3.193 3.193 0 0 1 1.891-.477h.766v-.365a.977.977 0 0 0-.241-.692.963.963 0 0 0-.736-.26 1.105 1.105 0 0 0-.7.215.661.661 0 0 0-.271.542h-1.25a1.382 1.382 0 0 1 .303-.856 2.04 2.04 0 0 1 .825-.625 2.894 2.894 0 0 1 1.165-.227 2.334 2.334 0 0 1 1.558.49 1.753 1.753 0 0 1 .598 1.382v2.51a2.873 2.873 0 0 0 .21 1.198v.088z" class=""/><path d="M353.523 10.785v7.488h4.895v-1.049h-3.596v-2.293h3.078v-1.029h-3.078v-2.069h3.56v-1.048h-4.859z"/><g class="cls-3"><path d="M362.641 17.729a1.943 1.943 0 0 1-1.564.648 1.721 1.721 0 0 1-1.37-.531 2.245 2.245 0 0 1-.467-1.533V12.71h1.252v3.589q0 1.061.88 1.06a1.233 1.233 0 0 0 1.227-.653V12.71h1.251v5.565h-1.18zm5.395-3.879a3.186 3.186 0 0 0-.51-.04 1.145 1.145 0 0 0-1.156.657v3.807h-1.25V12.71h1.193l.03.622a1.406 1.406 0 0 1 1.255-.725 1.158 1.158 0 0 1 .442.072zm1.619 1.698a2.248 2.248 0 0 0 .355 1.345 1.15 1.15 0 0 0 .987.486 1.136 1.136 0 0 0 .984-.494 2.469 2.469 0 0 0 .353-1.445 2.211 2.211 0 0 0-.362-1.337 1.223 1.223 0 0 0-1.957-.008 2.434 2.434 0 0 0-.36 1.453m-1.25-.108a3.281 3.281 0 0 1 .324-1.473 2.384 2.384 0 0 1 .91-1.01 2.57 2.57 0 0 1 1.349-.35 2.434 2.434 0 0 1 1.828.724 2.856 2.856 0 0 1 .757 1.923l.006.294a3.32 3.32 0 0 1-.315 1.47 2.358 2.358 0 0 1-.906 1.004 2.587 2.587 0 0 1-1.36.355 2.417 2.417 0 0 1-1.885-.784 3.005 3.005 0 0 1-.707-2.092zm9.859 0a2.324 2.324 0 0 0-.331-1.321 1.076 1.076 0 0 0-.95-.49 1.15 1.15 0 0 0-1.1.634v2.468a1.16 1.16 0 0 0 1.111.648 1.08 1.08 0 0 0 .934-.481 2.562 2.562 0 0 0 .336-1.458m1.245.108a3.312 3.312 0 0 1-.586 2.06 2.035 2.035 0 0 1-3.04.166v2.639h-1.25V12.71h1.153l.05.565a1.835 1.835 0 0 1 1.497-.668 1.9 1.9 0 0 1 1.598.757 3.402 3.402 0 0 1 .578 2.108zm3.359-1.939a1.055 1.055 0 0 0-.831.36 1.878 1.878 0 0 0-.405 1.004h2.383v-.094a1.524 1.524 0 0 0-.335-.948 1.049 1.049 0 0 0-.812-.322m.149 4.768a2.588 2.588 0 0 1-1.927-.749 2.714 2.714 0 0 1-.737-1.993v-.155a3.345 3.345 0 0 1 .32-1.488 2.453 2.453 0 0 1 .903-1.02 2.386 2.386 0 0 1 1.297-.366 2.187 2.187 0 0 1 1.756.725 3.063 3.063 0 0 1 .62 2.053v.503h-3.637a1.67 1.67 0 0 0 .461 1.09 1.376 1.376 0 0 0 1.015.401 1.696 1.696 0 0 0 1.4-.693l.673.642a2.262 2.262 0 0 1-.892.775 2.81 2.81 0 0 1-1.252.275m48.442-2.541a2.697 2.697 0 0 1-.885 1.868 3.014 3.014 0 0 1-2.052.672 2.92 2.92 0 0 1-1.576-.423 2.797 2.797 0 0 1-1.052-1.206 4.341 4.341 0 0 1-.386-1.815v-.7a4.386 4.386 0 0 1 .375-1.867 2.835 2.835 0 0 1 1.078-1.245 2.999 2.999 0 0 1 1.623-.437 2.89 2.89 0 0 1 1.995.671 2.803 2.803 0 0 1 .88 1.9h-1.297a1.845 1.845 0 0 0-.47-1.164 1.551 1.551 0 0 0-1.108-.358 1.52 1.52 0 0 0-1.304.62 3.111 3.111 0 0 0-.466 1.82v.664a3.28 3.28 0 0 0 .436 1.853 1.439 1.439 0 0 0 1.272.639 1.686 1.686 0 0 0 1.153-.345 1.795 1.795 0 0 0 .487-1.147zm2.273-2.52a1.954 1.954 0 0 1 1.548-.71q1.778 0 1.806 2.031v3.637h-1.252v-3.59a1.102 1.102 0 0 0-.248-.815 1.022 1.022 0 0 0-.733-.24 1.204 1.204 0 0 0-1.121.67v3.975h-1.25v-7.9h1.25zm5.946 4.958h-1.25V12.71h1.25zm-1.328-7.016a.678.678 0 0 1 .183-.482.69.69 0 0 1 .521-.19.7.7 0 0 1 .525.19.673.673 0 0 1 .186.482.653.653 0 0 1-.186.475.706.706 0 0 1-.525.19.696.696 0 0 1-.521-.19.656.656 0 0 1-.183-.475m3.847 1.452l.036.641a2 2 0 0 1 1.62-.745q1.739 0 1.77 1.99v3.678h-1.25v-3.606a1.141 1.141 0 0 0-.23-.784.964.964 0 0 0-.748-.255 1.204 1.204 0 0 0-1.126.685v3.96h-1.25v-5.565zm6.65 4.664a1.418 1.418 0 0 0 .696-.181 1.18 1.18 0 0 0 .491-.483v-1.05h-.673a1.842 1.842 0 0 0-1.044.242.786.786 0 0 0-.35.685.73.73 0 0 0 .24.573.928.928 0 0 0 .64.214m1.373.9a1.918 1.918 0 0 1-.144-.52 1.944 1.944 0 0 1-1.46.623 1.964 1.964 0 0 1-1.369-.478 1.532 1.532 0 0 1-.53-1.184 1.576 1.576 0 0 1 .661-1.364 3.193 3.193 0 0 1 1.89-.477h.766v-.365a.977.977 0 0 0-.24-.692.963.963 0 0 0-.736-.26 1.106 1.106 0 0 0-.7.215.661.661 0 0 0-.272.542h-1.25a1.382 1.382 0 0 1 .303-.856 2.04 2.04 0 0 1 .825-.625 2.893 2.893 0 0 1 1.166-.227 2.334 2.334 0 0 1 1.557.49 1.752 1.752 0 0 1 .598 1.382v2.51a2.873 2.873 0 0 0 .21 1.198v.088z"/><path class="cls-7" d="M345.798 15.286a3.556 3.556 0 1 1 0-.003v.003"/><path class="cls-4" d="M419.874 15.133a3.556 3.556 0 1 1-3.557-3.555 3.557 3.557 0 0 1 3.557 3.555"/><path class="cls-8" d="M236.985 14.243a3.556 3.556 0 1 1-3.555-3.557 3.557 3.557 0 0 1 3.555 3.557"/></g><path class="cls-7" d="M117.412 218.534l-.233-1.502 162.314-25.113 158.108-66.459.587 1.399-158.277 66.534-.093.014-162.406 25.127z"/><path class="cls-8" d="M112.897 218.918l-.199-2.268 163.91-14.369 162.547-75.328L594.146 32.49l1.186 1.945-155.103 94.53-.057.026-162.969 75.525-.199.018-164.107 14.384z"/><g class="cls-3"><path class="cls-4" d="M269.779 184.734h-5.024v-.982l2.318-2.623a5.796 5.796 0 0 0 .737-1.036 1.706 1.706 0 0 0 .219-.78 1.12 1.12 0 0 0-.231-.74.848.848 0 0 0-.694-.278.892.892 0 0 0-.756.355 1.46 1.46 0 0 0-.267.901h-1.46l-.012-.03a2.232 2.232 0 0 1 .658-1.691 2.468 2.468 0 0 1 1.837-.69 2.547 2.547 0 0 1 1.79.587 2.052 2.052 0 0 1 .638 1.582 2.225 2.225 0 0 1-.358 1.23 13.955 13.955 0 0 1-1.233 1.537l-1.232 1.48.01.026h3.06z"/></g><path class="cls-4" d="M272.34 184.668l-.817 1.62h-1.004l.36-1.667v-1.172h1.461v1.219z"/><g class="cls-3"><path class="cls-4" d="M273.625 181.433l.433-4.187h4.175v1.203h-2.946l-.206 1.75a1.816 1.816 0 0 1 .53-.255 2.558 2.558 0 0 1 .693-.11 1.985 1.985 0 0 1 1.618.644 2.747 2.747 0 0 1 .574 1.855 2.618 2.618 0 0 1-.624 1.804 2.405 2.405 0 0 1-1.902.706 2.881 2.881 0 0 1-1.769-.548 1.71 1.71 0 0 1-.709-1.505l.01-.026 1.444-.066a.945.945 0 0 0 .283.73 1.047 1.047 0 0 0 .74.262.882.882 0 0 0 .78-.35 1.732 1.732 0 0 0 .245-.998 1.767 1.767 0 0 0-.268-1.03.902.902 0 0 0-.792-.384 1.153 1.153 0 0 0-.661.16.882.882 0 0 0-.327.432zm9.386-1.626a1.942 1.942 0 0 0-.275-1.115.882.882 0 0 0-.763-.397.87.87 0 0 0-.764.397 1.968 1.968 0 0 0-.27 1.115v2.362a1.975 1.975 0 0 0 .271 1.128.885.885 0 0 0 .772.394.867.867 0 0 0 .76-.394 1.988 1.988 0 0 0 .27-1.128zm1.497 2.217a2.94 2.94 0 0 1-.692 2.068 2.633 2.633 0 0 1-3.68 0 2.933 2.933 0 0 1-.694-2.068v-2.062a2.953 2.953 0 0 1 .692-2.068 2.617 2.617 0 0 1 3.677 0 2.94 2.94 0 0 1 .697 2.068zm4.546-2.217a1.942 1.942 0 0 0-.275-1.115.882.882 0 0 0-.764-.397.87.87 0 0 0-.764.397 1.968 1.968 0 0 0-.27 1.115v2.362a1.975 1.975 0 0 0 .272 1.128.885.885 0 0 0 .772.394.867.867 0 0 0 .759-.394 1.989 1.989 0 0 0 .27-1.128zm1.497 2.217a2.94 2.94 0 0 1-.692 2.068 2.633 2.633 0 0 1-3.68 0 2.933 2.933 0 0 1-.694-2.068v-2.062a2.953 2.953 0 0 1 .692-2.068 2.617 2.617 0 0 1 3.677 0 2.94 2.94 0 0 1 .697 2.068z"/></g><path class="cls-7" d="M267.556 206.714h-1.497v-6.181h-1.548v-1.148l3.045-.266v7.595zm4.094-.067l-.817 1.62h-1.005l.361-1.666v-1.172h1.461v1.218z"/><g class="cls-3"><path class="cls-7" d="M272.935 203.413l.432-4.187h4.176v1.203h-2.946l-.206 1.75a1.816 1.816 0 0 1 .53-.255 2.558 2.558 0 0 1 .693-.111 1.984 1.984 0 0 1 1.618.645 2.747 2.747 0 0 1 .573 1.854 2.625 2.625 0 0 1-.621 1.805 2.41 2.41 0 0 1-1.905.706 2.872 2.872 0 0 1-1.768-.548 1.71 1.71 0 0 1-.71-1.505l.01-.026 1.445-.066a.945.945 0 0 0 .283.73 1.047 1.047 0 0 0 .74.262.882.882 0 0 0 .78-.35 1.731 1.731 0 0 0 .245-.998 1.767 1.767 0 0 0-.268-1.03.902.902 0 0 0-.792-.384 1.153 1.153 0 0 0-.661.16.882.882 0 0 0-.327.432zm9.386-1.626a1.942 1.942 0 0 0-.275-1.115.882.882 0 0 0-.764-.397.87.87 0 0 0-.764.397 1.968 1.968 0 0 0-.27 1.115v2.362a1.975 1.975 0 0 0 .272 1.128.885.885 0 0 0 .772.394.867.867 0 0 0 .759-.394 1.988 1.988 0 0 0 .27-1.128zm1.497 2.217a2.94 2.94 0 0 1-.692 2.068 2.633 2.633 0 0 1-3.68 0 2.933 2.933 0 0 1-.694-2.068v-2.062a2.953 2.953 0 0 1 .692-2.069 2.617 2.617 0 0 1 3.677 0 2.94 2.94 0 0 1 .697 2.069zm4.546-2.217a1.942 1.942 0 0 0-.275-1.115.882.882 0 0 0-.764-.397.87.87 0 0 0-.764.397 1.968 1.968 0 0 0-.27 1.115v2.362a1.975 1.975 0 0 0 .271 1.128.885.885 0 0 0 .772.394.867.867 0 0 0 .76-.394 1.988 1.988 0 0 0 .27-1.128zm1.496 2.217a2.94 2.94 0 0 1-.692 2.068 2.633 2.633 0 0 1-3.68 0 2.933 2.933 0 0 1-.694-2.068v-2.062a2.953 2.953 0 0 1 .692-2.069 2.617 2.617 0 0 1 3.677 0 2.94 2.94 0 0 1 .697 2.069z"/></g><path class="cls-8" d="M266.796 220.02h-1.497v-6.181h-1.548v-1.148l3.045-.266v7.595zm4.094-.067l-.817 1.62h-1.005l.361-1.666v-1.172h1.461v1.218z"/><g class="cls-3"><path class="cls-8" d="M275.518 215.093a1.942 1.942 0 0 0-.275-1.115.882.882 0 0 0-.764-.397.87.87 0 0 0-.764.397 1.968 1.968 0 0 0-.27 1.115v2.362a1.975 1.975 0 0 0 .272 1.128.885.885 0 0 0 .772.394.867.867 0 0 0 .759-.394 1.988 1.988 0 0 0 .27-1.128zm1.497 2.217a2.94 2.94 0 0 1-.692 2.068 2.633 2.633 0 0 1-3.68 0 2.933 2.933 0 0 1-.694-2.068v-2.062a2.953 2.953 0 0 1 .692-2.069 2.618 2.618 0 0 1 3.677 0 2.94 2.94 0 0 1 .697 2.069zm4.422-2.767a1.018 1.018 0 0 0-.23-.701.768.768 0 0 0-.602-.261.913.913 0 0 0-.675.254.967.967 0 0 0-.252.708 1.045 1.045 0 0 0 .258.737.872.872 0 0 0 .678.282.733.733 0 0 0 .597-.278 1.13 1.13 0 0 0 .226-.74m.247 3.317a1.13 1.13 0 0 0-.31-.822 1.028 1.028 0 0 0-.77-.32 1.164 1.164 0 0 0-.838.32 1.087 1.087 0 0 0-.334.822 1.05 1.05 0 0 0 .332.812 1.212 1.212 0 0 0 .85.304 1.043 1.043 0 0 0 .767-.304 1.105 1.105 0 0 0 .303-.812m1.25-3.385a1.727 1.727 0 0 1-.288.986 1.935 1.935 0 0 1-.793.67 2.295 2.295 0 0 1 .973.723 1.73 1.73 0 0 1 .36 1.078 1.956 1.956 0 0 1-.722 1.617 2.864 2.864 0 0 1-1.85.578 3.094 3.094 0 0 1-1.934-.578 1.921 1.921 0 0 1-.754-1.617 1.686 1.686 0 0 1 .372-1.078 2.37 2.37 0 0 1 1.01-.723 2.01 2.01 0 0 1-.83-.67 1.68 1.68 0 0 1-.3-.986 1.821 1.821 0 0 1 .672-1.518 2.737 2.737 0 0 1 1.755-.533 2.556 2.556 0 0 1 1.68.533 1.849 1.849 0 0 1 .649 1.518m4.67.617a1.942 1.942 0 0 0-.275-1.115.882.882 0 0 0-.764-.397.87.87 0 0 0-.764.397 1.968 1.968 0 0 0-.27 1.115v2.362a1.975 1.975 0 0 0 .271 1.128.885.885 0 0 0 .772.394.867.867 0 0 0 .76-.394 1.988 1.988 0 0 0 .27-1.128zm1.496 2.217a2.94 2.94 0 0 1-.692 2.068 2.633 2.633 0 0 1-3.68 0 2.933 2.933 0 0 1-.694-2.068v-2.062a2.953 2.953 0 0 1 .692-2.069 2.617 2.617 0 0 1 3.677 0 2.94 2.94 0 0 1 .697 2.069z"/></g><path class="cls-8" d="M424.545 150.903h1.758v-2.72l-.031-.006-.154.334zm3.26 0h.844v1.162h-.843v1.624h-1.503v-1.624h-3.05l-.071-.9 3.107-4.963h1.517zm3.277 2.72l-.817 1.62h-1.005l.361-1.666v-1.172h1.461v1.218zm4.664.067h-1.496v-6.181h-1.548v-1.147l3.044-.267v7.595z"/><g class="cls-3"><path class="cls-8" d="M441.753 148.763a1.942 1.942 0 0 0-.275-1.115.882.882 0 0 0-.764-.397.871.871 0 0 0-.763.397 1.968 1.968 0 0 0-.27 1.115v2.362a1.975 1.975 0 0 0 .271 1.128.885.885 0 0 0 .772.393.867.867 0 0 0 .76-.393 1.989 1.989 0 0 0 .27-1.128zm1.497 2.217a2.94 2.94 0 0 1-.692 2.068 2.63 2.63 0 0 1-3.68 0 2.933 2.933 0 0 1-.694-2.068v-2.062a2.953 2.953 0 0 1 .692-2.069 2.618 2.618 0 0 1 3.677 0 2.94 2.94 0 0 1 .697 2.069zm4.546-2.217a1.942 1.942 0 0 0-.275-1.115.882.882 0 0 0-.764-.397.871.871 0 0 0-.764.397 1.968 1.968 0 0 0-.27 1.115v2.362a1.975 1.975 0 0 0 .272 1.128.885.885 0 0 0 .771.393.867.867 0 0 0 .76-.393 1.989 1.989 0 0 0 .27-1.128zm1.496 2.217a2.94 2.94 0 0 1-.692 2.068 2.629 2.629 0 0 1-3.68 0 2.933 2.933 0 0 1-.694-2.068v-2.062a2.953 2.953 0 0 1 .692-2.069 2.618 2.618 0 0 1 3.678 0 2.94 2.94 0 0 1 .696 2.069z"/></g><path class="cls-7" d="M425.305 137.996h1.757v-2.72l-.031-.006-.153.334zm3.26 0h.843v1.162h-.843v1.627h-1.503v-1.627h-3.05l-.071-.9 3.106-4.962h1.518zm3.276 2.721l-.817 1.62h-1.004l.361-1.667v-1.171h1.46v1.218z"/><g class="cls-3"><path class="cls-7" d="M435.389 136.381a1.043 1.043 0 0 0 .795-.276 1.11 1.11 0 0 0 .26-.783.961.961 0 0 0-.273-.7 1.025 1.025 0 0 0-.762-.278.998.998 0 0 0-.692.253.825.825 0 0 0-.28.642h-1.45l-.01-.03a1.701 1.701 0 0 1 .68-1.45 2.704 2.704 0 0 1 1.752-.57 2.879 2.879 0 0 1 1.847.546 1.896 1.896 0 0 1 .684 1.572 1.627 1.627 0 0 1-.295.943 2.002 2.002 0 0 1-.811.677 1.885 1.885 0 0 1 .906.671 1.832 1.832 0 0 1 .319 1.088 1.95 1.95 0 0 1-.744 1.616 3.263 3.263 0 0 1-3.694.035 1.76 1.76 0 0 1-.742-1.56l.01-.03h1.461a.946.946 0 0 0 .295.707 1.055 1.055 0 0 0 .764.286 1.163 1.163 0 0 0 .834-.303 1.02 1.02 0 0 0 .319-.767 1.164 1.164 0 0 0-.298-.876 1.22 1.22 0 0 0-.875-.286h-.828v-1.127zm7.124-.525a1.942 1.942 0 0 0-.275-1.115.882.882 0 0 0-.764-.397.87.87 0 0 0-.764.397 1.968 1.968 0 0 0-.27 1.115v2.362a1.975 1.975 0 0 0 .272 1.128.885.885 0 0 0 .771.394.867.867 0 0 0 .76-.394 1.989 1.989 0 0 0 .27-1.128zm1.496 2.217a2.94 2.94 0 0 1-.692 2.068 2.63 2.63 0 0 1-3.68 0 2.933 2.933 0 0 1-.694-2.068v-2.062a2.953 2.953 0 0 1 .692-2.068 2.618 2.618 0 0 1 3.678 0 2.94 2.94 0 0 1 .696 2.068zm4.546-2.217a1.942 1.942 0 0 0-.275-1.115.882.882 0 0 0-.764-.397.87.87 0 0 0-.764.397 1.968 1.968 0 0 0-.27 1.115v2.362a1.975 1.975 0 0 0 .272 1.128.885.885 0 0 0 .772.394.867.867 0 0 0 .759-.394 1.988 1.988 0 0 0 .27-1.128zm1.497 2.217a2.94 2.94 0 0 1-.692 2.068 2.63 2.63 0 0 1-3.68 0 2.933 2.933 0 0 1-.694-2.068v-2.062a2.953 2.953 0 0 1 .692-2.068 2.618 2.618 0 0 1 3.677 0 2.94 2.94 0 0 1 .697 2.068z"/><path class="cls-8" d="M588.786 43.963a1.018 1.018 0 0 0-.232-.701.768.768 0 0 0-.601-.261.913.913 0 0 0-.675.254.967.967 0 0 0-.251.708 1.045 1.045 0 0 0 .257.737.872.872 0 0 0 .678.282.731.731 0 0 0 .597-.278 1.13 1.13 0 0 0 .227-.74m.247 3.317a1.13 1.13 0 0 0-.311-.822 1.028 1.028 0 0 0-.769-.32 1.164 1.164 0 0 0-.839.32 1.086 1.086 0 0 0-.334.822 1.05 1.05 0 0 0 .333.812 1.212 1.212 0 0 0 .85.304 1.043 1.043 0 0 0 .766-.304 1.105 1.105 0 0 0 .303-.812m1.25-3.385a1.727 1.727 0 0 1-.287.986 1.94 1.94 0 0 1-.792.67 2.3 2.3 0 0 1 .971.723 1.72 1.72 0 0 1 .36 1.078 1.956 1.956 0 0 1-.722 1.617 2.864 2.864 0 0 1-1.85.578 3.094 3.094 0 0 1-1.934-.578 1.921 1.921 0 0 1-.754-1.617 1.686 1.686 0 0 1 .372-1.078 2.37 2.37 0 0 1 1.01-.723 2.01 2.01 0 0 1-.83-.67 1.68 1.68 0 0 1-.3-.986 1.821 1.821 0 0 1 .673-1.518 2.74 2.74 0 0 1 1.754-.533 2.553 2.553 0 0 1 1.68.533 1.848 1.848 0 0 1 .65 1.518"/></g><path class="cls-8" d="M593.417 49.096l-.81 1.607h-.997l.358-1.653v-1.163h1.449v1.209z"/><g class="cls-3"><path class="cls-8" d="M597.668 44.513a1.942 1.942 0 0 0-.275-1.116.882.882 0 0 0-.764-.396.871.871 0 0 0-.764.396 1.969 1.969 0 0 0-.27 1.116v2.362a1.975 1.975 0 0 0 .272 1.128.885.885 0 0 0 .771.393.867.867 0 0 0 .76-.393 1.989 1.989 0 0 0 .27-1.128zm1.496 2.217a2.94 2.94 0 0 1-.692 2.068 2.633 2.633 0 0 1-3.68 0 2.933 2.933 0 0 1-.694-2.068v-2.062a2.953 2.953 0 0 1 .692-2.069 2.618 2.618 0 0 1 3.677 0 2.94 2.94 0 0 1 .697 2.069zm4.547-2.217a1.942 1.942 0 0 0-.275-1.116.882.882 0 0 0-.764-.396.871.871 0 0 0-.764.396 1.969 1.969 0 0 0-.27 1.116v2.362a1.975 1.975 0 0 0 .272 1.128.885.885 0 0 0 .772.393.867.867 0 0 0 .759-.393 1.989 1.989 0 0 0 .27-1.128zm1.497 2.217a2.94 2.94 0 0 1-.693 2.068 2.633 2.633 0 0 1-3.68 0 2.933 2.933 0 0 1-.694-2.068v-2.062a2.953 2.953 0 0 1 .692-2.069 2.617 2.617 0 0 1 3.678 0 2.94 2.94 0 0 1 .696 2.069zm4.545-2.217a1.942 1.942 0 0 0-.274-1.116.882.882 0 0 0-.764-.396.871.871 0 0 0-.764.396 1.969 1.969 0 0 0-.27 1.116v2.362a1.975 1.975 0 0 0 .271 1.128.885.885 0 0 0 .772.393.867.867 0 0 0 .76-.393 1.989 1.989 0 0 0 .27-1.128zm1.497 2.217a2.94 2.94 0 0 1-.692 2.068 2.633 2.633 0 0 1-3.68 0 2.933 2.933 0 0 1-.694-2.068v-2.062a2.953 2.953 0 0 1 .692-2.069 2.617 2.617 0 0 1 3.677 0 2.94 2.94 0 0 1 .697 2.069z"/></g><path class="cls-6" d="M560.621 242.896a.885.885 0 0 0-.305-.702 3.056 3.056 0 0 0-1.067-.499 6.069 6.069 0 0 1-1.988-.93 1.762 1.762 0 0 1-.679-1.46 1.837 1.837 0 0 1 .765-1.52 3.53 3.53 0 0 1 3.972.044 1.98 1.98 0 0 1 .742 1.663l-.011.031h-1.47a1.104 1.104 0 0 0-.344-.87 1.405 1.405 0 0 0-.962-.304 1.275 1.275 0 0 0-.868.27.883.883 0 0 0-.306.69.756.756 0 0 0 .333.632 4.43 4.43 0 0 0 1.148.523 4.928 4.928 0 0 1 1.902.923 1.889 1.889 0 0 1 .656 1.499 1.805 1.805 0 0 1-.76 1.533 3.297 3.297 0 0 1-2.006.561 3.586 3.586 0 0 1-2.097-.608 2.004 2.004 0 0 1-.85-1.813l.01-.032h1.472a1.19 1.19 0 0 0 .395.988 1.666 1.666 0 0 0 1.07.317 1.46 1.46 0 0 0 .928-.255.824.824 0 0 0 .32-.68zm4.959 2.084a2.531 2.531 0 0 1-1.966-.772 2.828 2.828 0 0 1-.706-1.987v-.208a3.08 3.08 0 0 1 .686-2.069 2.333 2.333 0 0 1 1.886-.8 2.182 2.182 0 0 1 1.739.694 2.737 2.737 0 0 1 .605 1.868v.784h-3.351l-.016.031a1.51 1.51 0 0 0 .35.936 1.173 1.173 0 0 0 .933.36 3.116 3.116 0 0 0 .865-.105 3.554 3.554 0 0 0 .736-.316l.411.934a2.808 2.808 0 0 1-.915.463 4.049 4.049 0 0 1-1.258.187zm-.1-4.668a.844.844 0 0 0-.704.315 1.573 1.573 0 0 0-.298.835l.01.025h1.85v-.114a1.313 1.313 0 0 0-.202-.776.75.75 0 0 0-.656-.285zm6.544 4.559a3.198 3.198 0 0 1-.143-.405 2.852 2.852 0 0 1-.086-.437 2.065 2.065 0 0 1-.618.681 1.555 1.555 0 0 1-.915.27 1.895 1.895 0 0 1-1.362-.455 1.63 1.63 0 0 1-.478-1.239 1.484 1.484 0 0 1 .637-1.281 3.177 3.177 0 0 1 1.858-.455h.853v-.447a.879.879 0 0 0-.213-.63.84.84 0 0 0-.635-.222.823.823 0 0 0-.568.179.626.626 0 0 0-.2.49h-1.462l-.01-.03a1.43 1.43 0 0 1 .62-1.229 2.7 2.7 0 0 1 1.719-.517 2.52 2.52 0 0 1 1.64.51 1.774 1.774 0 0 1 .626 1.46v2.323a4.373 4.373 0 0 0 .06.743 3.79 3.79 0 0 0 .19.691zm-1.387-1.014a1.288 1.288 0 0 0 .706-.197 1.066 1.066 0 0 0 .427-.457v-.796h-.853a1.013 1.013 0 0 0-.73.24.788.788 0 0 0-.248.587.585.585 0 0 0 .185.455.728.728 0 0 0 .513.168zm5.607-5.987v1.377h.951v1.066h-.95v2.864a.653.653 0 0 0 .137.468.483.483 0 0 0 .361.14 1.436 1.436 0 0 0 .208-.013 1.637 1.637 0 0 0 .202-.044l.125 1.096a3.157 3.157 0 0 1-.444.117 2.707 2.707 0 0 1-.47.04 1.614 1.614 0 0 1-1.209-.432 1.892 1.892 0 0 1-.424-1.367v-2.87h-.82v-1.065h.82v-1.377zm3.706 0v1.377h.951v1.066h-.95v2.864a.653.653 0 0 0 .137.468.483.483 0 0 0 .361.14 1.436 1.436 0 0 0 .208-.013 1.638 1.638 0 0 0 .202-.044l.125 1.096a3.158 3.158 0 0 1-.444.117 2.707 2.707 0 0 1-.47.04 1.614 1.614 0 0 1-1.209-.432 1.892 1.892 0 0 1-.424-1.367v-2.87h-.82v-1.065h.82v-1.377zm3.483 7.001h-1.518v-8.108h1.518zm3.684.109a2.531 2.531 0 0 1-1.965-.772 2.828 2.828 0 0 1-.706-1.987v-.208a3.08 3.08 0 0 1 .686-2.069 2.333 2.333 0 0 1 1.887-.8 2.182 2.182 0 0 1 1.738.694 2.737 2.737 0 0 1 .605 1.868v.784h-3.351l-.016.031a1.51 1.51 0 0 0 .35.936 1.173 1.173 0 0 0 .933.36 3.116 3.116 0 0 0 .866-.105 3.553 3.553 0 0 0 .735-.316l.411.934a2.808 2.808 0 0 1-.915.463 4.049 4.049 0 0 1-1.258.187zm-.098-4.668a.844.844 0 0 0-.705.315 1.573 1.573 0 0 0-.298.835l.01.025h1.85v-.114a1.313 1.313 0 0 0-.202-.776.75.75 0 0 0-.655-.285zm5.991 4.559v-7.567h2.641a3.127 3.127 0 0 1 2.287.885 3.058 3.058 0 0 1 .899 2.275v1.252a3.048 3.048 0 0 1-.899 2.274 3.135 3.135 0 0 1-2.287.881zm1.518-6.398v5.234h1.123a1.484 1.484 0 0 0 1.206-.559 2.19 2.19 0 0 0 .457-1.432v-1.263a2.17 2.17 0 0 0-.457-1.424 1.485 1.485 0 0 0-1.206-.556zm7.848 6.507a2.531 2.531 0 0 1-1.965-.772 2.828 2.828 0 0 1-.706-1.987v-.208a3.08 3.08 0 0 1 .686-2.069 2.333 2.333 0 0 1 1.886-.8 2.182 2.182 0 0 1 1.739.694 2.737 2.737 0 0 1 .605 1.868v.784h-3.351l-.016.031a1.51 1.51 0 0 0 .35.936 1.173 1.173 0 0 0 .933.36 3.116 3.116 0 0 0 .865-.105 3.553 3.553 0 0 0 .736-.316l.41.934a2.808 2.808 0 0 1-.914.463 4.049 4.049 0 0 1-1.258.187zm-.099-4.668a.844.844 0 0 0-.704.315 1.573 1.573 0 0 0-.299.835l.011.025h1.85v-.114a1.313 1.313 0 0 0-.202-.776.75.75 0 0 0-.656-.285zm5.577 3.504a.845.845 0 0 0 .63-.237.86.86 0 0 0 .233-.63h1.383l.01.03a1.757 1.757 0 0 1-.634 1.427 2.37 2.37 0 0 1-1.622.574 2.396 2.396 0 0 1-1.928-.797 3.032 3.032 0 0 1-.68-2.04v-.157a3.048 3.048 0 0 1 .678-2.04 2.374 2.374 0 0 1 1.92-.802 2.318 2.318 0 0 1 1.658.592 1.976 1.976 0 0 1 .607 1.559l-.01.031h-1.382a1.12 1.12 0 0 0-.232-.724.777.777 0 0 0-.641-.29.866.866 0 0 0-.834.471 2.574 2.574 0 0 0-.247 1.203v.157a2.565 2.565 0 0 0 .247 1.21.877.877 0 0 0 .844.463zm5.952-5.016l.53-1.496h.748v2.827h-1.278zm6.298 6.071h-1.511v-6.247h-1.565v-1.16l3.076-.27zm7.459-5.602a1.742 1.742 0 0 1-.291.995 1.96 1.96 0 0 1-.8.677 2.318 2.318 0 0 1 .981.73 1.742 1.742 0 0 1 .364 1.09 1.975 1.975 0 0 1-.73 1.635 2.895 2.895 0 0 1-1.868.585 3.123 3.123 0 0 1-1.954-.585 1.94 1.94 0 0 1-.765-1.635 1.708 1.708 0 0 1 .377-1.09 2.395 2.395 0 0 1 1.021-.73 2.016 2.016 0 0 1-.838-.677 1.689 1.689 0 0 1-.305-.995 1.846 1.846 0 0 1 .68-1.537 2.777 2.777 0 0 1 1.773-.538 2.594 2.594 0 0 1 1.7.538 1.875 1.875 0 0 1 .654 1.537zm-1.263 3.42a1.142 1.142 0 0 0-.315-.83 1.039 1.039 0 0 0-.777-.325 1.17 1.17 0 0 0-.847.325 1.1 1.1 0 0 0-.338.83 1.06 1.06 0 0 0 .335.82 1.226 1.226 0 0 0 .86.307 1.053 1.053 0 0 0 .775-.306 1.113 1.113 0 0 0 .307-.822zm-.25-3.353a1.029 1.029 0 0 0-.234-.71.777.777 0 0 0-.608-.262.917.917 0 0 0-.68.257.973.973 0 0 0-.256.715 1.063 1.063 0 0 0 .26.746.89.89 0 0 0 .687.283.739.739 0 0 0 .602-.281 1.148 1.148 0 0 0 .229-.748z"/><path d="M30.666 228.263a3.167 3.167 0 0 0-.288-1.545 1.102 1.102 0 0 0-1.816-.025 2.933 2.933 0 0 0-.303 1.453v1.696a3.25 3.25 0 0 0 .293 1.564.983.983 0 0 0 .92.514.968.968 0 0 0 .89-.475 3.068 3.068 0 0 0 .304-1.49zm1.25 1.4a4.083 4.083 0 0 1-.605 2.435 2.134 2.134 0 0 1-1.839.82 2.162 2.162 0 0 1-1.827-.8 3.907 3.907 0 0 1-.631-2.368v-1.296a4.016 4.016 0 0 1 .604-2.422 2.155 2.155 0 0 1 1.845-.807 2.163 2.163 0 0 1 1.832.787 3.897 3.897 0 0 1 .62 2.354z"/></svg>