<svg viewBox="0 0 301.45687 582.09331" xmlns="http://www.w3.org/2000/svg" xmlns:xlink="http://www.w3.org/1999/xlink"><clipPath id="a"><path d="m-9-1.775h336.62v584.16h-336.62z"/></clipPath><clipPath id="b"><path d="m-9-1.775h336.621v584.16h-336.621z"/></clipPath><clipPath id="c"><path d="m6.608 148.821h292.352v71.332h-292.352z"/></clipPath><g clip-path="url(#a)"><g clip-path="url(#a)"><g clip-path="url(#b)" opacity=".7"><path d="m0-11.052h318.621v612.946h-318.621z" fill="#d2d2d2"/></g><g clip-path="url(#c)" fill="#9ea0a0" opacity=".8"><path d="m145.8 167.661a13.16 13.16 0 0 0 -4.776.91 9.297 9.297 0 0 0 -3.748 2.201 14.063 14.063 0 0 0 -5.033 10.837s-1.113 13.655-4.63 15.611c0 0 3.342 2.663 11.768 2.684v3.714c-.783 2.466-10.15 2.3-18.59 5.49a1.85 1.85 0 0 0 -1.194 1.725v6.473a1.853 1.853 0 0 0 1.858 1.847h48.69a1.852 1.852 0 0 0 1.858-1.847v-6.473a1.847 1.847 0 0 0 -1.193-1.726c-8.441-3.186-17.803-3.019-18.591-5.489v-3.714c8.427-.02 11.769-2.684 11.769-2.684-3.518-1.956-4.63-15.61-4.63-15.61a14.09 14.09 0 0 0 -4.621-10.474 9.104 9.104 0 0 0 -4.422-2.667 13.172 13.172 0 0 0 -4.514-.808m-96.037.159c-7.57 0-11.174 4.087-11.174 10.062v5.787a4.13 4.13 0 0 0 .826 6.068 16.238 16.238 0 0 0 3.937 7.047v1.553c-.778 2.458-10.133 7.446-18.552 10.632a1.84 1.84 0 0 0 -1.193 1.721v6.465a1.85 1.85 0 0 0 1.853 1.84h48.6a1.848 1.848 0 0 0 1.858-1.84v-6.465a1.835 1.835 0 0 0 -1.193-1.72 94.185 94.185 0 0 1 -2.67-1.06l-.265-.109c-.866-.36-1.73-.737-2.581-1.118l-.291-.134a80.019 80.019 0 0 1 -2.524-1.185l-.206-.1a81.152 81.152 0 0 1 -2.441-1.248c-4.077-2.178-7.145-4.313-7.58-5.679v-1.553l.11-.126.017-.02a14.41 14.41 0 0 0 2.234-3.04l.129-.265c.264-.502.526-1.017.752-1.565a19.013 19.013 0 0 0 .7-2.03 4.12 4.12 0 0 0 .823-6.069v-5.787a14 14 0 0 0 -.064-1.31l-.01-.105c-.516-5.192-3.957-8.647-11.095-8.647m200.085.834a12.112 12.112 0 0 0 -4.396.833 8.642 8.642 0 0 0 -3.453 2.03l-.23.215a15.243 15.243 0 0 1 1.193 6.15v4.703a7.665 7.665 0 0 1 .977 3.73 7.788 7.788 0 0 1 -2.273 5.495 20.487 20.487 0 0 1 -3.017 5.79c.136.11.29.227.462.349a30.244 30.244 0 0 0 4.83.377v2.533a91.807 91.807 0 0 0 10.413 4.69 5.537 5.537 0 0 1 3.595 5.142v6.465a5.347 5.347 0 0 1 -.347 1.838h14.649a1.701 1.701 0 0 0 1.707-1.696v-5.962a1.688 1.688 0 0 0 -1.1-1.583c-7.762-2.94-16.381-5.213-17.105-7.483v-3.944c7.755-.021 10.827-2.475 10.827-2.475-3.23-1.796-4.258-14.36-4.258-14.36a12.958 12.958 0 0 0 -4.257-9.642 8.333 8.333 0 0 0 -4.066-2.45 11.989 11.989 0 0 0 -4.151-.745"/><path d="m228.049 167.82c-7.57 0-11.174 4.087-11.174 10.062v5.787a4.133 4.133 0 0 0 .822 6.068 16.285 16.285 0 0 0 3.942 7.047v1.553c-.78 2.458-10.134 7.446-18.552 10.632a1.84 1.84 0 0 0 -1.194 1.721v6.465a1.849 1.849 0 0 0 1.853 1.84h48.603a1.85 1.85 0 0 0 1.855-1.84v-6.465a1.84 1.84 0 0 0 -1.193-1.72 95.389 95.389 0 0 1 -2.67-1.06l-.265-.109c-.865-.36-1.73-.737-2.581-1.118l-.296-.134a86.524 86.524 0 0 1 -2.52-1.185l-.205-.1a81.076 81.076 0 0 1 -2.44-1.248c-4.078-2.178-7.146-4.313-7.578-5.679v-1.553l.107-.126.017-.02a14.342 14.342 0 0 0 2.234-3.04l.124-.265a17.158 17.158 0 0 0 .757-1.565 19.46 19.46 0 0 0 .698-2.03 4.118 4.118 0 0 0 .825-6.069v-5.787a14 14 0 0 0 -.064-1.31l-.012-.105c-.514-5.192-3.955-8.647-11.093-8.647"/></g></g><path d="m227.4 278.794h3.832v1.529h-3.832zm-111.156-3.686h-1.349l-2.226 6.695-2.161-6.669h-1.724l3.16 9.055h1.371l2.226-6.461 2.229 6.461h1.37l3.162-9.055h-1.672l-2.16 6.669z" fill="#9ea0a0"/><g clip-path="url(#a)"><path d="m127.8 274.998a4.629 4.629 0 0 0 -4.753 4.65v.027a4.74 4.74 0 0 0 9.477-.026v-.026a4.584 4.584 0 0 0 -4.723-4.625m0 7.85a3.09 3.09 0 0 1 -3.082-3.2v-.025a3.047 3.047 0 0 1 3.056-3.17 3.093 3.093 0 0 1 3.082 3.196v.026a3.052 3.052 0 0 1 -3.056 3.174" fill="#9ea0a0"/></g><path d="m143.368 275.154h-1.697l-2.758 4.253-2.759-4.253h-1.693v8.99h1.567v-6.422l2.832 4.214h.053l2.862-4.24v6.448h1.593zm9.058 0h-6.723v8.99h6.788v-1.412h-5.194v-2.416h4.544v-1.412h-4.544v-2.338h5.129zm9.858 0h-1.566v6.214l-4.858-6.214h-1.474v8.99h1.566v-6.396l4.998 6.396h1.334zm-119.209 0h-1.692l-2.76 4.248-2.758-4.248h-1.697v8.99h1.565v-6.422l2.838 4.214h.052l2.859-4.24v6.448h1.593zm9.062 0h-6.722v8.99h6.784v-1.412h-5.19v-2.416h4.544v-1.412h-4.544v-2.338h5.128zm9.854 0h-1.565v6.214l-4.854-6.214h-1.477v8.99h1.564v-6.396l5.001 6.396h1.331zm142.269-.003h-1.568v6.219l-4.853-6.219h-1.479v8.994h1.567v-6.396l4.997 6.396h1.336z" fill="#9ea0a0"/><g clip-path="url(#a)"><path d="m210.946 275a4.626 4.626 0 0 0 -4.754 4.65v.027a4.742 4.742 0 0 0 9.481-.026v-.026a4.582 4.582 0 0 0 -4.727-4.625m0 7.847a3.092 3.092 0 0 1 -3.082-3.196v-.026a3.05 3.05 0 0 1 3.055-3.174 3.09 3.09 0 0 1 3.082 3.2v.026a3.048 3.048 0 0 1 -3.055 3.17" fill="#9ea0a0"/></g><path d="m225.506 275.151h-1.567v6.219l-4.857-6.219h-1.476v8.994h1.567v-6.396l4.997 6.396h1.336z" fill="#9ea0a0"/><g clip-path="url(#a)"><path d="m237.194 275.151h-4.067v8.995h4.193c2.021 0 3.356-.862 3.356-2.469v-.026a2.21 2.21 0 0 0 -1.802-2.182 2.138 2.138 0 0 0 1.296-2.005v-.026a2.013 2.013 0 0 0 -.606-1.49 3.29 3.29 0 0 0 -2.37-.797m-2.5 3.79v-2.387h2.29c1.026 0 1.593.433 1.593 1.144v.021c0 .823-.685 1.222-1.71 1.222zm0 3.806v-2.468h2.522c1.256 0 1.868.45 1.868 1.208v.022c0 .81-.663 1.238-1.75 1.238z" fill="#9ea0a0"/></g><path d="m242.572 275.152h1.593v8.994h-1.593zm11.915-.001h-1.567v6.219l-4.859-6.219h-1.474v8.994h1.566v-6.396l4.998 6.396h1.336zm7.021-.032h-1.474l-3.99 9.06h1.632l.93-2.174h4.287l.92 2.174h1.685zm-2.316 5.487 1.554-3.594 1.566 3.594z" fill="#9ea0a0"/><g clip-path="url(#a)"><path d="m271.098 275.152h-4.042v8.994h1.593v-3.135h1.994l2.227 3.135h1.877l-2.45-3.408a2.695 2.695 0 0 0 2.165-2.72v-.026a2.698 2.698 0 0 0 -.75-1.94 3.664 3.664 0 0 0 -2.614-.9m-2.449 4.46v-3.018h2.317c1.18 0 1.878.524 1.878 1.489v.022c0 .914-.724 1.507-1.865 1.507z" fill="#9ea0a0"/></g><path d="m283.974 275.151h-1.828l-2.563 3.984-2.54-3.984h-1.878l3.602 5.448v3.546h1.605v-3.585z" fill="#9ea0a0"/><g clip-path="url(#a)"><path d="m224.022 265.453h-5.33v-27.812h-5.277v-3.327a21.384 21.384 0 0 0 7.474-5.236h3.132zm28.418-5.398c0 2.18.44 2.89 1.814 2.89 1.32 0 1.759-.71 1.759-2.89v-7.907c0-2.183-.44-2.891-1.76-2.891-1.373 0-1.813.708-1.813 2.89zm6.87-.6c0 4.308-1.648 6.38-5.056 6.38-3.463 0-5.111-2.072-5.111-6.38v-6.762c0-4.253 1.648-6.326 5.11-6.326 3.409 0 5.058 2.073 5.058 6.326zm-4.011-30.376-15.171 36.375h-3.022l15.17-36.375zm-18.908 13.306c0 2.182.44 2.89 1.813 2.89 1.319 0 1.76-.708 1.76-2.89v-7.906c0-2.182-.441-2.892-1.76-2.892-1.373 0-1.813.71-1.813 2.892zm6.87-.545c0 4.255-1.65 6.326-5.057 6.326-3.406 0-5.112-2.071-5.112-6.326v-6.763c0-4.308 1.65-6.38 5.112-6.38 3.408 0 5.058 2.072 5.058 6.38z" fill="#bf1e6c"/></g><path d="m278.444 116.59h-53.112v1.245h53.112zm-52.698.415h52.285v.418h-52.285zm-149.856-.415h-53.107v1.245h53.107zm-52.695.415h52.281v.418h-52.281z" fill="#402e6e"/><g clip-path="url(#a)" fill="#201a55"><path d="m38.012 97.675q-.363-.586-.85-1.265-.491-.68-1.067-1.359-.577-.678-1.197-1.307a12.618 12.618 0 0 0 -1.238-1.108v5.039h-2.682v-11.92h2.682v4.506q1.05-1.101 2.107-2.296 1.06-1.194 1.97-2.21h3.182q-1.222 1.446-2.45 2.787-1.23 1.342-2.589 2.7a20.57 20.57 0 0 1 2.76 2.821 33.882 33.882 0 0 1 2.554 3.612zm11.833-.31a13.96 13.96 0 0 1 -1.688.352 13.688 13.688 0 0 1 -2.166.164 5.125 5.125 0 0 1 -1.917-.31 2.902 2.902 0 0 1 -1.213-.868 3.365 3.365 0 0 1 -.636-1.333 7.122 7.122 0 0 1 -.189-1.703v-5.04h2.562v4.731a3.67 3.67 0 0 0 .327 1.789 1.302 1.302 0 0 0 1.22.549 9.307 9.307 0 0 0 1.135-.085v-6.984h2.565zm8.34-4.282q0-2.478-1.824-2.477a3.017 3.017 0 0 0 -.782.104 2.236 2.236 0 0 0 -.629.257v4.66c.127.023.287.043.482.062q.294.024.636.024a1.844 1.844 0 0 0 1.583-.722 3.142 3.142 0 0 0 .533-1.908m2.615.069a5.703 5.703 0 0 1 -.32 1.96 4.147 4.147 0 0 1 -.919 1.496 4.036 4.036 0 0 1 -1.48.954 5.54 5.54 0 0 1 -1.995.335c-.308 0-.633-.013-.972-.042-.337-.028-.67-.066-.997-.112s-.64-.1-.936-.163q-.447-.096-.792-.198v-12.641l2.562-.412v4.504a4.912 4.912 0 0 1 .896-.291 4.553 4.553 0 0 1 .998-.102 4.097 4.097 0 0 1 1.702.334 3.319 3.319 0 0 1 1.237.955 4.314 4.314 0 0 1 .758 1.487 6.83 6.83 0 0 1 .258 1.936m1.683.068a5.553 5.553 0 0 1 .37-2.106 4.547 4.547 0 0 1 .971-1.506 4.009 4.009 0 0 1 1.386-.91 4.295 4.295 0 0 1 1.607-.312 3.999 3.999 0 0 1 3.045 1.18 4.848 4.848 0 0 1 1.118 3.464c0 .149-.006.312-.018.491-.01.178-.023.335-.033.473h-5.814a1.703 1.703 0 0 0 .74 1.255 2.972 2.972 0 0 0 1.754.464 7.479 7.479 0 0 0 1.384-.128 5.2 5.2 0 0 0 1.11-.319l.343 2.082a3.371 3.371 0 0 1 -.55.206 7.162 7.162 0 0 1 -.764.182c-.283.05-.583.093-.904.128a9.424 9.424 0 0 1 -.963.052 5.693 5.693 0 0 1 -2.124-.362 4.142 4.142 0 0 1 -1.497-.988 3.979 3.979 0 0 1 -.877-1.488 5.896 5.896 0 0 1 -.284-1.858m6.02-.98a2.602 2.602 0 0 0 -.112-.636 1.569 1.569 0 0 0 -.292-.551 1.518 1.518 0 0 0 -.5-.395 1.61 1.61 0 0 0 -.747-.156 1.71 1.71 0 0 0 -.74.147 1.533 1.533 0 0 0 -.515.387 1.707 1.707 0 0 0 -.319.558 3.495 3.495 0 0 0 -.163.646zm10.198 5.676a5.797 5.797 0 0 1 -4.428-1.617 6.45 6.45 0 0 1 -1.522-4.592 7.066 7.066 0 0 1 .464-2.64 5.707 5.707 0 0 1 1.273-1.962 5.307 5.307 0 0 1 1.927-1.211 6.921 6.921 0 0 1 2.424-.414 7.926 7.926 0 0 1 1.377.112 9.137 9.137 0 0 1 1.083.258 5.1 5.1 0 0 1 .773.302 4.943 4.943 0 0 1 .447.241l-.773 2.166a6.52 6.52 0 0 0 -1.28-.499 6.143 6.143 0 0 0 -1.66-.206 3.672 3.672 0 0 0 -1.213.206 2.748 2.748 0 0 0 -1.05.663 3.288 3.288 0 0 0 -.73 1.178 4.95 4.95 0 0 0 -.275 1.754 6.296 6.296 0 0 0 .18 1.54 3.26 3.26 0 0 0 .584 1.229 2.82 2.82 0 0 0 1.058.816 3.761 3.761 0 0 0 1.582.302 7.186 7.186 0 0 0 1.05-.069 7.327 7.327 0 0 0 .825-.164 4.568 4.568 0 0 0 .638-.214c.183-.081.35-.155.497-.224l.74 2.149a6.201 6.201 0 0 1 -1.6.62 9.297 9.297 0 0 1 -2.39.276m13.93-4.782a5.868 5.868 0 0 1 -.31 1.952 4.27 4.27 0 0 1 -.894 1.515 4.022 4.022 0 0 1 -1.402.97 4.666 4.666 0 0 1 -1.832.345 4.61 4.61 0 0 1 -1.813-.345 4.017 4.017 0 0 1 -1.403-.97 4.476 4.476 0 0 1 -.912-1.515 5.646 5.646 0 0 1 -.326-1.952 5.4 5.4 0 0 1 .335-1.944 4.373 4.373 0 0 1 .93-1.495 4.14 4.14 0 0 1 1.41-.964 4.808 4.808 0 0 1 3.576 0 4.069 4.069 0 0 1 1.403.964 4.397 4.397 0 0 1 .912 1.495 5.557 5.557 0 0 1 .326 1.944m-2.614 0a3.217 3.217 0 0 0 -.474-1.866 1.543 1.543 0 0 0 -1.35-.679 1.565 1.565 0 0 0 -1.357.679 3.17 3.17 0 0 0 -.483 1.866 3.254 3.254 0 0 0 .483 1.883 1.553 1.553 0 0 0 1.357.696 1.532 1.532 0 0 0 1.35-.696 3.302 3.302 0 0 0 .474-1.883m4.728-4.197a14.362 14.362 0 0 1 1.686-.352 13.84 13.84 0 0 1 2.168-.164 5.273 5.273 0 0 1 1.917.302 2.873 2.873 0 0 1 1.212.85 3.347 3.347 0 0 1 .636 1.307 6.918 6.918 0 0 1 .19 1.686v5.109h-2.564v-4.799a3.44 3.44 0 0 0 -.327-1.754 1.334 1.334 0 0 0 -1.222-.516 9.538 9.538 0 0 0 -1.134.085v6.984h-2.563zm-3.615-33.987c-1.893 2.373-2.759 3.46-4.653 5.832l-6.037 7.572c-1.547 1.941-2.629 2-5.183 2h-17.359c-3.326 0-3.545-.009-5.576-2.556l-5.596-7.016c-1.571-1.972-1.975-2.479-3.547-4.449-2.448-3.07-2.845-4.159.944-5.024l11.737-2.678a11.445 11.445 0 0 0 4.933 5.961l-.516 1.246a.803.803 0 0 1 -.323.386 1.96 1.96 0 0 0 -.817.859 1.362 1.362 0 1 0 2.454 1.182 1.777 1.777 0 0 0 .188-.733c.005-.167-.022-.328-.03-.495a.662.662 0 0 1 .084-.401l.67-1.214a11.467 11.467 0 0 0 8.238-.015l.658 1.191a.791.791 0 0 1 .1.493 1.96 1.96 0 0 0 .162 1.174 1.362 1.362 0 1 0 2.454-1.182 1.787 1.787 0 0 0 -.456-.602l-.406-.287a.65.65 0 0 1 -.26-.316l-.543-1.307a11.461 11.461 0 0 0 4.896-5.942l12.946 2.956c2.514.574 2.33 1.494.837 3.365m-32.474-6.958 3.957-.904a4.632 4.632 0 0 0 .86 1.065l-.106.247-1.468 3.535a8.612 8.612 0 0 1 -3.243-3.943m11.938-.904 3.957.904a8.603 8.603 0 0 1 -3.207 3.918l-1.574-3.79a4.597 4.597 0 0 0 .824-1.032m-3.21 2.222a4.774 4.774 0 0 1 -.78.065 4.668 4.668 0 0 1 -.735-.058l-.14.255-1.835 3.33a8.597 8.597 0 0 0 5.46-.014l-1.815-3.289zm2.617-26.049c2.135 1.029 3.696 1.781 5.833 2.809l8.954 4.312 2.213 9.69c.44 1.923.675 2.96 1.115 4.886.686 3.005.618 3.265-2.484 2.558l-7.656-1.747c.03-.334.045-.67.045-1.005a11.378 11.378 0 0 0 -1.97-6.413l1.09-.973a.777.777 0 0 1 .46-.208 1.95 1.95 0 0 0 1.107-.421 1.362 1.362 0 1 0 -1.699-2.129 1.803 1.803 0 0 0 -.488.579c-.076.15-.123.305-.186.46a.674.674 0 0 1 -.25.324l-1.24.881a11.388 11.388 0 0 0 -6.77-3.422v-8.736c0-2.05.181-2.285 1.927-1.445m5.17 21.867-3.974-.907a4.59 4.59 0 0 0 -.327-1.253l.11-.096 2.924-2.61a8.536 8.536 0 0 1 1.275 4.502zm-7.098-4.762v-4.051a8.55 8.55 0 0 1 4.424 2.219l-3.198 2.271-.132.098a4.634 4.634 0 0 0 -1.094-.537m-23.059 5.282c1.41-6.173 2.597-11.37 4.004-17.545.638-2.788 1.045-3.498 3.558-4.942l9.796-5.631c2.32-1.333 2.761-1.232 2.761 1.61v14.302a11.392 11.392 0 0 0 -6.795 3.447l-1.238-.881a.808.808 0 0 1 -.305-.401 1.936 1.936 0 0 0 -.656-.987 1.362 1.362 0 0 0 -1.698 2.129 1.793 1.793 0 0 0 .673.347c.163.041.326.053.49.08a.673.673 0 0 1 .372.171l1.16 1.036a11.366 11.366 0 0 0 -1.949 6.381 11.943 11.943 0 0 0 .065 1.226l-2.502.536a1.707 1.707 0 0 0 -.52.048l-.36.139c-1.642.351-3.298.706-4.986 1.07-2.29.494-2.367.045-1.87-2.135m20.12-9.333v4.051a4.64 4.64 0 0 0 -1.129.56l-.39-.287-2.929-2.082a8.54 8.54 0 0 1 4.447-2.242m-5.61 8.763-1.472.314q-.023-.313-.022-.628a8.535 8.535 0 0 1 1.254-4.467l2.884 2.574.156.134a4.544 4.544 0 0 0 -.327 1.365l-.285.08z"/><path d="m91.13 54.951-4.653 5.831a19991.95 19991.95 0 0 1 -6.037 7.573c-1.547 1.94-2.629 1.999-5.182 1.999h-8.656v-14.174a11.434 11.434 0 0 0 4.14-.773l.656 1.191a.791.791 0 0 1 .1.493 1.967 1.967 0 0 0 .163 1.174 1.362 1.362 0 0 0 2.454-1.182 1.774 1.774 0 0 0 -.456-.602l-.405-.287a.652.652 0 0 1 -.26-.316l-.544-1.307a11.456 11.456 0 0 0 4.896-5.942l12.947 2.956c2.513.574 2.33 1.494.837 3.366m-24.528-1.611v-3.965a4.787 4.787 0 0 0 .781-.065l.155.289 1.815 3.289a8.538 8.538 0 0 1 -2.75.452m3.99-6.251 3.958.903a8.611 8.611 0 0 1 -3.208 3.918l-1.574-3.79a4.586 4.586 0 0 0 .824-1.031m-.593-23.828c2.135 1.029 3.696 1.781 5.833 2.809l8.954 4.312 2.213 9.69c.44 1.923.676 2.96 1.115 4.886.687 3.005.618 3.265-2.483 2.558l-7.657-1.747c.03-.334.045-.67.045-1.005a11.377 11.377 0 0 0 -1.97-6.413l1.09-.973a.777.777 0 0 1 .46-.208 1.95 1.95 0 0 0 1.107-.421 1.362 1.362 0 1 0 -1.698-2.129 1.794 1.794 0 0 0 -.489.579c-.076.15-.123.305-.185.46a.676.676 0 0 1 -.25.324l-1.24.881a11.388 11.388 0 0 0 -6.772-3.422v-8.736c0-2.05.183-2.285 1.928-1.445m5.171 21.867-3.975-.907a4.588 4.588 0 0 0 -.327-1.253l.11-.096 2.924-2.61a8.535 8.535 0 0 1 1.275 4.502zm-7.099-4.762v-4.051a8.55 8.55 0 0 1 4.424 2.219l-3.197 2.271-.133.098a4.618 4.618 0 0 0 -1.094-.537"/></g><path d="m187.057 54.464h-6.878v16.037h16.041v-6.874h-9.163zm34.367.05v9.113h-9.117l-.05-.051v6.924h16.041v-16.037h-6.929zm-41.245-16.087h6.928l-.05-.055v-9.112h9.112l.051.05v-6.924h-16.041zm32.078-16.041v6.874h9.167v9.167h6.874v-16.041z" fill="#201a55"/><path d="m212.257 22.386h-16.037v6.924l9.116 9.117h6.072l-9.163-9.167h10.012zm-9.113 32.078h-6.077l7.595 7.595 1.573 1.568h-10.015v6.874h16.037v-6.924l-4.555-4.559zm25.154-16.037h-6.874v10.011l-1.569-1.569-7.598-7.594v6.076l4.558 4.554 4.554 4.559h6.929zm-41.192 0h-6.928v16.037h6.878v-10.015l9.163 9.163v-6.076z" fill="#402e6e"/><g clip-path="url(#a)"><path d="m146.638 87.996-1.742 2.062a4.047 4.047 0 0 0 -2.975-1.54 3.461 3.461 0 0 0 0 6.916 4.438 4.438 0 0 0 2.975-1.387l1.759 1.86a7.149 7.149 0 0 1 -4.886 2.163 6.04 6.04 0 1 1 .1-12.07 6.876 6.876 0 0 1 4.769 1.996" fill="#201a55"/></g><path d="m148.091 85.392h2.925v12.544h-2.925z" fill="#201a55"/><g clip-path="url(#a)"><path d="m155.614 93.405a2.06 2.06 0 1 0 2.046-2.368 2.104 2.104 0 0 0 -2.046 2.368m7.016-.034c0 2.805-1.995 4.665-4.97 4.665-2.991 0-4.986-1.86-4.986-4.665 0-2.807 1.995-4.65 4.986-4.65 2.975 0 4.97 1.843 4.97 4.65m10.447 4.565h-2.924v-1.504a3.199 3.199 0 0 1 -2.958 1.62 3.16 3.16 0 0 1 -3.263-3.481v-5.746h2.924v4.918c0 1.083.592 1.742 1.523 1.742 1.115-.017 1.774-.931 1.774-2.165v-4.495h2.924zm8.589-4.531a2.06 2.06 0 1 0 -4.073 0 2.062 2.062 0 1 0 4.073 0m2.924 4.53h-2.924v-1.2a3.295 3.295 0 0 1 -2.738 1.318c-2.57 0-4.261-1.893-4.261-4.716 0-2.79 1.675-4.631 4.194-4.631a3.376 3.376 0 0 1 2.805 1.319v-4.633h2.924z" fill="#201a55"/></g><path d="m195.292 97.936-5.444-7.285v7.285h-2.822v-11.833h2.655l5.459 7.302v-7.302h2.806v11.833z" fill="#201a55"/><g clip-path="url(#a)"><path d="m205.486 94.842v-.811h-1.843c-.878 0-1.317.303-1.317.98 0 .659.472 1.082 1.284 1.082a1.846 1.846 0 0 0 1.876-1.251m2.874-2.857v5.95h-2.856v-1.047a3.338 3.338 0 0 1 -2.79 1.182 2.82 2.82 0 0 1 -3.126-2.856c0-1.725 1.234-2.74 3.498-2.756h2.4v-.134c0-.897-.592-1.437-1.775-1.437a6.43 6.43 0 0 0 -2.722.759l-.828-1.926a9.626 9.626 0 0 1 4.227-1.032c2.501 0 3.955 1.235 3.972 3.297m7.88 5.459a4.96 4.96 0 0 1 -2.436.625 2.743 2.743 0 0 1 -3.026-2.889v-4.024h-1.268v-1.91h1.268v-2.535h2.907v2.52h2.385v1.925h-2.385v3.567c0 .711.306 1.014.846.997a3.195 3.195 0 0 0 1.133-.303zm1.47-8.62h2.907v9.111h-2.907zm3.01-2.62a1.539 1.539 0 1 1 -1.54-1.539 1.489 1.489 0 0 1 1.54 1.538" fill="#201a55"/></g><path d="m225.148 97.936-3.432-9.111h3.009l1.963 6.44 1.977-6.44h2.907l-3.431 9.111z" fill="#201a55"/><g clip-path="url(#a)"><path d="m238.402 92.593a1.7 1.7 0 0 0 -1.758-1.842 1.958 1.958 0 0 0 -1.894 1.842zm2.806 1.573h-6.405a2.102 2.102 0 0 0 2.145 1.69 3.077 3.077 0 0 0 2.18-.93l1.54 1.505a5.241 5.241 0 0 1 -3.973 1.605c-2.976 0-4.836-1.86-4.836-4.63a4.464 4.464 0 0 1 4.751-4.684c3.212 0 4.8 2.112 4.598 5.444m11.919-6.17-1.742 2.062a4.046 4.046 0 0 0 -2.975-1.54 3.461 3.461 0 0 0 0 6.916 4.436 4.436 0 0 0 2.975-1.387l1.759 1.86a7.147 7.147 0 0 1 -4.886 2.163 6.04 6.04 0 1 1 .102-12.07 6.875 6.875 0 0 1 4.767 1.996m3.213 5.409a2.06 2.06 0 1 0 2.045-2.368 2.104 2.104 0 0 0 -2.046 2.368m7.016-.034c0 2.805-1.995 4.665-4.97 4.665-2.993 0-4.987-1.86-4.987-4.665 0-2.807 1.994-4.65 4.987-4.65 2.975 0 4.97 1.843 4.97 4.65m10.871-1.183v5.748h-2.908v-4.937a1.551 1.551 0 0 0 -1.606-1.723 1.858 1.858 0 0 0 -1.86 1.84v4.82h-2.924v-9.112h2.925v1.488a3.381 3.381 0 0 1 3.043-1.623 3.206 3.206 0 0 1 3.33 3.499" fill="#201a55"/></g><path d="m120.805 16.634h-1.243v84.94h1.243zm-.832.413h.418v84.114h-.418z" fill="#402e6e"/><path d="m119.973 17.047h.418v84.114h-.418z" fill="#402e6e"/><g clip-path="url(#a)"><path d="m95.727 112.838h-1.75v4.343c0 .498.029 1.341.093 2.535h-.042l-3.99-6.878h-2.454v9.184h1.738v-4.322q0-.785-.117-2.627h.054l3.996 6.949h2.472zm5.157 2.029a3.319 3.319 0 0 0 -2.527.953 3.766 3.766 0 0 0 -.898 2.678 4.266 4.266 0 0 0 .418 1.935 2.924 2.924 0 0 0 1.185 1.269 3.524 3.524 0 0 0 1.784.443 3.269 3.269 0 0 0 2.516-.966 3.766 3.766 0 0 0 .908-2.681 4.236 4.236 0 0 0 -.414-1.928 2.94 2.94 0 0 0 -1.189-1.265 3.56 3.56 0 0 0 -1.783-.438m-.012 5.739a1.223 1.223 0 0 1 -1.114-.531 2.922 2.922 0 0 1 -.342-1.577 2.886 2.886 0 0 1 .338-1.57 1.217 1.217 0 0 1 1.103-.518 1.238 1.238 0 0 1 1.115.523 2.93 2.93 0 0 1 .337 1.565 2.992 2.992 0 0 1 -.337 1.577 1.201 1.201 0 0 1 -1.1.53m8.9-5.739a2.176 2.176 0 0 0 -1.21.363 2.625 2.625 0 0 0 -.881.948h-.097l-.284-1.18h-1.45v7.025h1.92v-3.576a1.705 1.705 0 0 1 .51-1.32 2.044 2.044 0 0 1 1.43-.472 2.194 2.194 0 0 1 .564.063l.144-1.796a3.09 3.09 0 0 0 -.646-.055m4.042-1.362h-1.224l-.552 1.48-1.054.641v.81h.918v3.386a2.526 2.526 0 0 0 .522 1.742 2.16 2.16 0 0 0 1.675.581 4.279 4.279 0 0 0 1.758-.32v-1.424a4.161 4.161 0 0 1 -1.205.22.899.899 0 0 1 -.608-.195.75.75 0 0 1 -.23-.603v-3.386h1.968v-1.438h-1.969zm5.379-1.256h-1.919v9.775h1.92v-3.306a3.305 3.305 0 0 1 .357-1.771 1.282 1.282 0 0 1 1.16-.544c.755 0 1.13.506 1.13 1.518v4.103h1.914v-4.58a2.627 2.627 0 0 0 -.64-1.91 2.468 2.468 0 0 0 -1.876-.666 2.213 2.213 0 0 0 -2.033 1.029h-.1l.041-.565c.03-.574.046-.937.046-1.093zm14.493.552h-2.378l-3.243 9.222h2.101l.662-2.188h3.347l.667 2.188h2.096zm-2.369 5.402q.98-3.176 1.188-3.977c.034.152.09.355.17.616.076.262.42 1.379 1.038 3.36zm14.873-3.336a2.761 2.761 0 0 0 -1.24.27 1.929 1.929 0 0 0 -.83.76h-.169a2.213 2.213 0 0 0 -2.139-1.03 2.653 2.653 0 0 0 -1.222.274 1.948 1.948 0 0 0 -.819.755h-.105l-.256-.898h-1.465v7.025h1.915v-3.306a3.486 3.486 0 0 1 .334-1.775 1.154 1.154 0 0 1 1.065-.54.89.89 0 0 1 .802.38 2.066 2.066 0 0 1 .258 1.138v4.103h1.914v-3.525a2.844 2.844 0 0 1 .346-1.594 1.192 1.192 0 0 1 1.054-.502.9.9 0 0 1 .801.38 2.07 2.07 0 0 1 .253 1.138v4.103h1.924v-4.58a2.716 2.716 0 0 0 -.61-1.965 2.458 2.458 0 0 0 -1.81-.61m7.282 0a3.14 3.14 0 0 0 -2.443.965 3.908 3.908 0 0 0 -.88 2.729 3.536 3.536 0 0 0 .953 2.648 3.63 3.63 0 0 0 2.652.936 6.858 6.858 0 0 0 1.392-.122 4.584 4.584 0 0 0 1.075-.371v-1.485a6.002 6.002 0 0 1 -1.181.422 5.467 5.467 0 0 1 -1.197.13 1.687 1.687 0 0 1 -1.27-.46 1.837 1.837 0 0 1 -.485-1.272h4.529v-.928a3.207 3.207 0 0 0 -.83-2.345 3.09 3.09 0 0 0 -2.315-.847m-1.341 2.846a1.772 1.772 0 0 1 .396-1.096 1.22 1.22 0 0 1 .958-.388 1.25 1.25 0 0 1 .964.388 1.579 1.579 0 0 1 .373 1.096zm9.964-2.847a2.17 2.17 0 0 0 -1.21.363 2.59 2.59 0 0 0 -.881.948h-.097l-.283-1.18h-1.451v7.025h1.915v-3.576a1.708 1.708 0 0 1 .516-1.32 2.038 2.038 0 0 1 1.429-.472 2.2 2.2 0 0 1 .564.063l.144-1.796a3.083 3.083 0 0 0 -.646-.055m2.88-2.618c-.696 0-1.041.312-1.041.936 0 .628.345.94 1.041.94a1.084 1.084 0 0 0 .781-.248.899.899 0 0 0 .261-.692c0-.624-.346-.936-1.042-.936m.954 2.749h-1.915v7.025h1.915zm5.03-.131a3.348 3.348 0 0 0 -2.555.945 3.846 3.846 0 0 0 -.89 2.736q0 3.6 3.276 3.597a5.214 5.214 0 0 0 1.197-.114 3.055 3.055 0 0 0 .942-.409v-1.636a3.606 3.606 0 0 1 -.945.46 3.315 3.315 0 0 1 -1.025.148c-.994 0-1.493-.684-1.493-2.058q0-2.125 1.493-2.126a2.607 2.607 0 0 1 .779.118c.263.076.54.178.844.3l.566-1.484a4.902 4.902 0 0 0 -2.189-.477m6.472-.012a5.713 5.713 0 0 0 -2.689.633l.637 1.294a4.99 4.99 0 0 1 1.977-.506.954.954 0 0 1 1.091 1.067v.308l-1.217.038a4.522 4.522 0 0 0 -2.358.586 1.847 1.847 0 0 0 -.784 1.649 2.2 2.2 0 0 0 .583 1.644 2.14 2.14 0 0 0 1.588.578 3.302 3.302 0 0 0 1.337-.232 2.889 2.889 0 0 0 .994-.847h.052l.371.957h1.336v-4.681a2.259 2.259 0 0 0 -.755-1.872 3.344 3.344 0 0 0 -2.163-.616m-.447 5.89c-.619 0-.932-.27-.932-.81a.946.946 0 0 1 .41-.842 2.406 2.406 0 0 1 1.244-.3l.741-.025v.578a1.34 1.34 0 0 1 -.4 1.016 1.46 1.46 0 0 1 -1.063.384m11.442-8.038a5.05 5.05 0 0 0 -1.181.127 4.177 4.177 0 0 0 -.97.366 7.081 7.081 0 0 0 -1.126.818l1.054 1.25a5.593 5.593 0 0 1 1.05-.697 2.303 2.303 0 0 1 1.038-.245 1.187 1.187 0 0 1 .814.27 1.05 1.05 0 0 1 .303.822 1.88 1.88 0 0 1 -.14.717 3.267 3.267 0 0 1 -.45.751c-.211.27-.658.755-1.336 1.455l-2.307 2.328v1.353h6.417v-1.636h-4.001v-.089l1.18-1.109a16.937 16.937 0 0 0 1.65-1.665 4.614 4.614 0 0 0 .69-1.139 3.184 3.184 0 0 0 .225-1.193 2.357 2.357 0 0 0 -.363-1.29 2.442 2.442 0 0 0 -1.026-.882 3.471 3.471 0 0 0 -1.521-.312m7.243-.013a2.722 2.722 0 0 0 -2.416 1.152 6.449 6.449 0 0 0 -.788 3.584 6.28 6.28 0 0 0 .809 3.521 2.696 2.696 0 0 0 2.396 1.193 2.725 2.725 0 0 0 2.425-1.155 6.395 6.395 0 0 0 .789-3.559 6.297 6.297 0 0 0 -.815-3.53 2.7 2.7 0 0 0 -2.4-1.206m0 7.886a1.002 1.002 0 0 1 -.981-.73 10.11 10.11 0 0 1 0-4.849 1.018 1.018 0 0 1 1.957 0 6.844 6.844 0 0 1 .307 2.43 6.933 6.933 0 0 1 -.303 2.411 1.022 1.022 0 0 1 -.98.738m8.987-7.742h-1.595l-2.959 2.353.935 1.168 1.056-.848c.125-.101.35-.307.674-.632l-.034.953-.016.873v5.317h1.94zm5.709-.118a3.467 3.467 0 0 0 -2.128.607 1.9 1.9 0 0 0 -.82 1.594 2.324 2.324 0 0 0 .348 1.24 3.487 3.487 0 0 0 1.13 1.062 3.46 3.46 0 0 0 -1.342 1.071 2.42 2.42 0 0 0 -.417 1.396 2.13 2.13 0 0 0 .86 1.813 3.877 3.877 0 0 0 2.369.641 3.702 3.702 0 0 0 2.333-.687 2.187 2.187 0 0 0 .882-1.818 2.148 2.148 0 0 0 -.447-1.315 4.417 4.417 0 0 0 -1.481-1.15 3.372 3.372 0 0 0 1.256-.984 2.106 2.106 0 0 0 .393-1.256 1.921 1.921 0 0 0 -.81-1.616 3.488 3.488 0 0 0 -2.126-.598m0 3.64a2.657 2.657 0 0 1 -.877-.613 1.04 1.04 0 0 1 -.24-.674.854.854 0 0 1 .305-.684 1.208 1.208 0 0 1 .8-.252 1.253 1.253 0 0 1 .806.252.84.84 0 0 1 .313.684 1.052 1.052 0 0 1 -.246.695 2.406 2.406 0 0 1 -.861.591m-.024 4.36a1.616 1.616 0 0 1 -1.03-.299 1.023 1.023 0 0 1 -.38-.844q0-.942 1.339-1.556a4.47 4.47 0 0 1 1.154.78 1.12 1.12 0 0 1 .354.79 1.028 1.028 0 0 1 -.358.817 1.614 1.614 0 0 1 -1.08.312" fill="#402e6e"/><path d="m23.46 527.395a7.191 7.191 0 0 1 -5.33-2.362c.054-.157.415-1.2.654-1.678a2.83 2.83 0 0 1 .923-1.096c.577-.519-1.153-.75-1.557-1.153a8.99 8.99 0 0 0 -1.066-.77c-.345-.274-.545.94-.624 1.566a7.178 7.178 0 0 1 1.088-5.835c-.23.712-.436 1.75.458 1.435.98-.347 1.067-.75 1.067-.75l.576-1.009a9.628 9.628 0 0 0 .203 1.614c.115.202.576.78.75-.029.317-1.483.37-1.902.919-1.902.547 0 1.675-.433 1.79.893.116 1.327-.115.548-.836.894-.72.346-.894 1.557-.231 1.701a20.737 20.737 0 0 1 2.163.75l.749.836.232.894s.143 1.01.143 1.095v.924s.03 1.816.693 1.383c.663-.432 2.479-3.258 2.104-4.325s-.403-1.182.288-1.557c.693-.375 1.183-.836 1.154-1.355-.02-.364.017-.586.02-.825a7.208 7.208 0 0 1 -6.33 10.661m0-15.616a8.406 8.406 0 1 0 8.407 8.405 8.414 8.414 0 0 0 -8.406-8.405" fill="#737678"/><path d="m29.797 536.403v18.054c0 3.354-.397 5.07-1.51 6.589a6.546 6.546 0 0 1 -5.48 2.397 6.582 6.582 0 0 1 -5.523-2.397c-1.111-1.518-1.508-3.235-1.508-6.59v-18.053h4.09v18.733c0 3.154.834 4.433 2.94 4.433 2.065 0 2.899-1.28 2.899-4.433v-18.733zm14.256 7.429c-.637-2.636-1.827-3.954-3.495-3.954a2.629 2.629 0 0 0 -2.662 2.716 4.017 4.017 0 0 0 1.112 2.676c.676.759.676.759 3.495 2.915a22.09 22.09 0 0 1 3.932 3.595 7.804 7.804 0 0 1 1.708 4.873c0 4.033-2.94 6.789-7.27 6.789-4.526 0-7.186-2.435-8.02-7.509l3.93-1.158c.517 3.196 1.909 4.793 4.09 4.793a2.886 2.886 0 0 0 3.02-3.035c0-1.679-.834-2.756-3.932-5.192-3.693-2.917-3.852-3.076-4.845-4.353a7.255 7.255 0 0 1 -1.47-4.435c0-3.833 2.86-6.549 6.912-6.549 3.773 0 6.315 2.277 7.427 6.669z" fill="#201a55"/></g><path d="m58.148 541.515-2.144 11.942h4.33zm-2.779 15.736-1.073 5.792h-4.01l5.083-26.64h5.6l5.361 26.64h-4.209l-1.112-5.792zm17.671 5.792-2.344 5.512h-1.509l1.748-5.512h-1.748v-4.274h3.853z" fill="#201a55"/><g clip-path="url(#a)"><path d="m92.618 545.07v-.559c0-3.076-1.072-4.633-3.098-4.633a2.588 2.588 0 0 0 -2.423 1.318c-.516.877-.635 1.677-.635 3.833v8.868a11.5 11.5 0 0 0 .436 3.954 2.756 2.756 0 0 0 2.622 1.717c1.508 0 2.502-.879 2.94-2.636a15.142 15.142 0 0 0 .237-3.235h4.131v.918c0 5.792-2.503 8.827-7.269 8.827a6.536 6.536 0 0 1 -5.918-2.956c-.993-1.638-1.27-3.194-1.27-7.148v-7.47c0-4.233.317-5.71 1.55-7.389a6.625 6.625 0 0 1 5.6-2.475c4.526 0 7.188 3.036 7.188 8.266v.8z" fill="#201a55"/></g><path d="m107.073 541.515-2.144 11.942h4.329zm-2.78 15.736-1.072 5.792h-4.011l5.084-26.64h5.6l5.36 26.64h-4.21l-1.11-5.792zm28.476 5.792h-3.653l-7.15-17.734v17.734h-3.892v-26.64h4.132l6.671 16.575v-16.575h3.892zm11.116-21.528-2.143 11.942h4.33zm-2.779 15.736-1.072 5.792h-4.01l5.082-26.64h5.6l5.361 26.64h-4.209l-1.112-5.792z" fill="#201a55"/><g clip-path="url(#a)"><path d="m161.002 559.249c2.9 0 3.932-1.518 3.932-5.671v-7.71c0-4.192-1.032-5.671-3.932-5.671h-2.026v19.052zm-6.117-22.846h6.475c5.202 0 7.665 2.676 7.665 8.348v9.945c0 5.67-2.463 8.347-7.665 8.347h-6.475z" fill="#201a55"/></g><path d="m179.388 541.515-2.144 11.942h4.33zm-2.779 15.736-1.073 5.792h-4.01l5.083-26.64h5.6l5.361 26.64h-4.21l-1.11-5.792zm17.67 5.792-2.343 5.512h-1.51l1.748-5.512h-1.748v-4.274h3.853z" fill="#201a55"/><g clip-path="url(#a)"><path d="m210.124 536.403v20.13c0 2.795-.278 3.954-1.152 5.033-.834 1.038-2.104 1.477-4.13 1.477h-2.461v-3.874h.951c1.986 0 2.702-.76 2.702-2.956v-19.81z" fill="#201a55"/></g><path d="m220.887 541.515-2.144 11.942h4.33zm-2.779 15.736-1.073 5.792h-4.01l5.083-26.64h5.6l5.361 26.64h-4.209l-1.112-5.792z" fill="#201a55"/><g clip-path="url(#a)"><path d="m237.766 548.465c3.297 0 4.33-.998 4.33-4.153 0-3.115-1.033-4.115-4.33-4.115h-1.787v8.268zm-1.787 14.578h-4.092v-26.64h6.792c2.661 0 4.33.52 5.561 1.718 1.43 1.358 2.105 3.355 2.105 6.19 0 2.875-.676 4.872-2.105 6.23-1.232 1.198-2.9 1.718-5.56 1.718h-2.7z" fill="#201a55"/></g><path d="m255.278 541.515-2.144 11.942h4.329zm-2.779 15.736-1.073 5.792h-4.011l5.084-26.64h5.6l5.361 26.64h-4.209l-1.112-5.792zm28.475 5.792h-3.653l-7.15-17.734v17.734h-3.892v-26.64h4.132l6.672 16.575v-16.575h3.891z" fill="#201a55"/><path d="m43.106 517.348h-2.981v-1.478h7.691v1.478h-2.981v8.086h-1.729z" fill="#737678"/><g clip-path="url(#a)"><path d="m53.872 517.203a3.461 3.461 0 1 0 3.264 3.456 3.209 3.209 0 0 0 -3.264-3.456m0-1.49a4.947 4.947 0 1 1 -5.034 4.946 4.814 4.814 0 0 1 5.034-4.946m11.165 1.635h-2.362v3.04h2.362a1.527 1.527 0 1 0 0-3.04m-4.09-1.478h4.326a3.004 3.004 0 1 1 0 5.993h-2.598v3.571h-1.728zm13.749 7.083a3.731 3.731 0 0 0 2.732 1.161c1.3 0 2.053-.573 2.053-1.462 0-.946-.783-1.348-2.186-1.348-.412 0-.989 0-1.136.015v-1.507c.177.016.753.016 1.136.016 1.152 0 2.023-.387 2.023-1.262 0-.889-.886-1.348-1.992-1.348a3.513 3.513 0 0 0 -2.54 1.061l-.886-1.047a4.62 4.62 0 0 1 3.587-1.505c2.126 0 3.558.975 3.558 2.581a2.368 2.368 0 0 1 -2.14 2.194 2.438 2.438 0 0 1 2.288 2.323c0 1.62-1.432 2.781-3.706 2.781a4.62 4.62 0 0 1 -3.72-1.549zm12.334-2.293a4.88 4.88 0 0 1 5.092-4.947 4.514 4.514 0 0 1 4.03 2.15l-1.476.731a2.974 2.974 0 0 0 -2.554-1.39 3.458 3.458 0 0 0 0 6.911 2.942 2.942 0 0 0 2.554-1.39l1.476.73a4.533 4.533 0 0 1 -4.03 2.151 4.88 4.88 0 0 1 -5.093-4.947m15.476-3.456a3.461 3.461 0 1 0 3.263 3.456 3.208 3.208 0 0 0 -3.263-3.456m0-1.49a4.947 4.947 0 1 1 -5.034 4.946 4.814 4.814 0 0 1 5.034-4.946m7.075.157h1.742v5.735a2.517 2.517 0 0 0 5.034 0v-5.735h1.744v5.778c0 2.381-1.404 3.958-4.252 3.958-2.866 0-4.269-1.59-4.269-3.942z" fill="#737678"/></g><path d="m122.297 518.466v6.968h-1.729v-9.564h1.773l5.034 6.782v-6.782h1.728v9.564h-1.669zm11.622-1.118h-2.981v-1.478h7.691v1.478h-2.981v8.086h-1.729z" fill="#737678"/><g clip-path="url(#a)"><path d="m144.551 517.347h-2.362v3.04h2.362a1.528 1.528 0 1 0 0-3.04m-.65 4.516h-1.712v3.571h-1.728v-9.564h4.327a2.95 2.95 0 0 1 3.217 2.996 2.707 2.707 0 0 1 -2.332 2.812l2.407 3.756h-1.994z" fill="#737678"/></g><path d="m150.106 515.871h1.728v9.564h-1.728zm4.195-.001h6.747v1.478h-5.018v2.48h4.916v1.477h-4.916v2.653h5.018v1.476h-6.747z" fill="#737678"/><g clip-path="url(#a)"><path d="m163.516 522.797a4.307 4.307 0 0 0 3.115 1.318c1.417 0 1.978-.674 1.978-1.304 0-.86-1.048-1.118-2.243-1.42-1.61-.387-3.5-.845-3.5-2.867 0-1.578 1.432-2.796 3.588-2.796a5.216 5.216 0 0 1 3.69 1.332l-.988 1.249a4.07 4.07 0 0 0 -2.85-1.09c-1.02 0-1.668.473-1.668 1.189 0 .747 1.004.99 2.17 1.277 1.625.402 3.559.889 3.559 2.968 0 1.592-1.153 2.954-3.81 2.954a5.35 5.35 0 0 1 -4-1.52zm16.497-5.804h-2.36v3.04h2.36a1.528 1.528 0 1 0 0-3.04m-.649 4.516h-1.712v3.57h-1.728v-9.563h4.326a2.95 2.95 0 0 1 3.218 2.996 2.707 2.707 0 0 1 -2.332 2.812l2.407 3.756h-1.994z" fill="#737678"/></g><path d="m185.568 515.515h6.748v1.478h-5.019v2.48h4.916v1.477h-4.916v2.653h5.019v1.476h-6.748z" fill="#737678"/><g clip-path="url(#a)"><path d="m198.549 516.993h-2.362v3.04h2.362a1.527 1.527 0 1 0 0-3.04m-4.091-1.478h4.326a3.004 3.004 0 1 1 0 5.993h-2.597v3.571h-1.729zm13.439 1.478h-2.362v3.04h2.362a1.528 1.528 0 1 0 0-3.04m-.65 4.516h-1.712v3.57h-1.728v-9.563h4.326a2.95 2.95 0 0 1 3.218 2.996 2.707 2.707 0 0 1 -2.333 2.812l2.408 3.756h-1.994z" fill="#737678"/></g><path d="m213.451 515.515h6.748v1.478h-5.019v2.48h4.917v1.477h-4.917v2.653h5.019v1.476h-6.748z" fill="#737678"/><g clip-path="url(#a)"><path d="m222.667 522.44a4.296 4.296 0 0 0 3.114 1.32c1.418 0 1.978-.674 1.978-1.303 0-.861-1.047-1.12-2.243-1.421-1.61-.386-3.499-.845-3.499-2.867 0-1.577 1.431-2.796 3.587-2.796a5.207 5.207 0 0 1 3.691 1.334l-.988 1.247a4.076 4.076 0 0 0 -2.85-1.09c-1.019 0-1.668.473-1.668 1.19 0 .746 1.004.99 2.17 1.276 1.624.402 3.558.889 3.558 2.968 0 1.592-1.152 2.954-3.809 2.954a5.35 5.35 0 0 1 -4.001-1.52z" fill="#737678"/></g><path d="m231.484 515.515h6.747v1.478h-5.019v2.48h4.917v1.477h-4.917v2.653h5.019v1.476h-6.747zm10.62 2.597v6.968h-1.73v-9.564h1.773l5.033 6.782v-6.782h1.729v9.564h-1.669zm11.621-1.119h-2.981v-1.478h7.691v1.478h-2.981v8.086h-1.729zm6.543-1.478h6.748v1.478h-5.019v2.48h4.916v1.477h-4.916v2.653h5.019v1.476h-6.748z" fill="#737678"/><g clip-path="url(#a)"><path d="m272.82 523.603a3.187 3.187 0 0 0 3.381-3.299 3.143 3.143 0 0 0 -3.38-3.31h-1.934v6.61zm-3.662-8.088h3.662c3.071 0 5.153 1.98 5.153 4.79s-2.082 4.774-5.153 4.774h-3.662zm11.609 7.715a1.004 1.004 0 1 1 -1.034 1.003 1.031 1.031 0 0 1 1.034-1.003m0-5.177a1.004 1.004 0 1 1 -1.034 1.005 1.031 1.031 0 0 1 1.034-1.005" fill="#737678"/></g><path d="m24.677 491.558-.959 1.089v3.202h-1.187v-9.537h1.187v4.933l4.219-4.933h1.488l-3.976 4.532 4.319 5.005h-1.474z" fill="#737678"/><g clip-path="url(#a)"><path d="m35.815 494.877a3.387 3.387 0 0 1 -2.461 1.145 1.943 1.943 0 0 1 -2.202-2.203v-4.877h1.073v4.548c0 1.213.614 1.573 1.543 1.573a2.642 2.642 0 0 0 2.047-1.046v-5.075h1.07v6.906h-1.07zm6.704.186c1.402 0 2.23-1.129 2.23-2.662 0-1.529-.828-2.674-2.23-2.674a2.563 2.563 0 0 0 -2.06 1.117v3.13a2.54 2.54 0 0 0 2.06 1.09m-3.132-8.753h1.073v3.673a2.866 2.866 0 0 1 2.33-1.213c1.803 0 3.075 1.43 3.075 3.63 0 2.246-1.272 3.621-3.075 3.621a2.91 2.91 0 0 1 -2.33-1.204v1.03h-1.073zm9.307 5.647h4.533a2.24 2.24 0 0 0 -2.275-2.302 2.303 2.303 0 0 0 -2.258 2.302m2.272-3.186c2.089 0 3.318 1.629 3.318 3.7v.274h-5.59a2.435 2.435 0 0 0 2.488 2.389 3.023 3.023 0 0 0 2.13-.872l.515.698a3.745 3.745 0 0 1 -2.746 1.06 3.63 3.63 0 0 1 -.115-7.25m5.405.171h1.073v1.114a2.935 2.935 0 0 1 2.302-1.257v1.102a1.929 1.929 0 0 0 -.43-.044 2.523 2.523 0 0 0 -1.872 1.102v4.89h-1.073zm9.736 2.389c0-1.216-.615-1.604-1.545-1.604a2.661 2.661 0 0 0 -2.044 1.074v5.047h-1.074v-6.906h1.074v1.002a3.415 3.415 0 0 1 2.458-1.172 1.963 1.963 0 0 1 2.203 2.23v4.846h-1.072zm4.303.627h4.532a2.24 2.24 0 0 0 -2.274-2.302 2.302 2.302 0 0 0 -2.258 2.302m2.272-3.186c2.088 0 3.318 1.629 3.318 3.7v.274h-5.59a2.434 2.434 0 0 0 2.488 2.389 3.025 3.025 0 0 0 2.13-.872l.514.698a3.74 3.74 0 0 1 -2.745 1.06 3.63 3.63 0 0 1 -.115-7.25m5.62 5.635v-4.52h-1.145v-.944h1.145v-1.89h1.072v1.89h1.403v.944h-1.403v4.29c0 .515.23.888.7.888a1.047 1.047 0 0 0 .73-.286l.315.8a1.755 1.755 0 0 1 -1.288.444 1.413 1.413 0 0 1 -1.53-1.616m5.075-2.448h4.532a2.24 2.24 0 0 0 -2.274-2.302 2.302 2.302 0 0 0 -2.258 2.302m2.272-3.186c2.088 0 3.318 1.629 3.318 3.7v.274h-5.59a2.433 2.433 0 0 0 2.488 2.389 3.025 3.025 0 0 0 2.13-.872l.514.698a3.742 3.742 0 0 1 -2.746 1.06 3.63 3.63 0 0 1 -.114-7.25m5.362 5.389a3.122 3.122 0 0 0 2.275.988c1.058 0 1.629-.472 1.629-1.142 0-.76-.842-1.002-1.773-1.232-1.173-.27-2.502-.586-2.502-2.016 0-1.071.929-1.986 2.573-1.986a3.5 3.5 0 0 1 2.562.999l-.501.745a2.695 2.695 0 0 0 -2.061-.872c-.943 0-1.53.428-1.53 1.042 0 .673.787.888 1.688 1.102 1.202.273 2.588.614 2.588 2.146 0 1.158-.93 2.088-2.717 2.088a3.676 3.676 0 0 1 -2.79-1.09z" fill="#737678"/></g><path d="m25.089 390.53h-3.274v-1.669h8.448v1.669h-3.277v9.146h-1.897z" fill="#737678"/><g clip-path="url(#a)"><path d="m36.91 390.369a3.922 3.922 0 1 0 3.582 3.909 3.584 3.584 0 0 0 -3.583-3.909m0-1.685a5.594 5.594 0 1 1 -5.528 5.594 5.366 5.366 0 0 1 5.528-5.594m12.259 1.846h-2.595v3.438h2.595a1.724 1.724 0 1 0 0-3.438m-4.492-1.67h4.752a3.392 3.392 0 1 1 0 6.78h-2.855v4.036h-1.897z" fill="#737678"/></g><path d="m62.089 390.53h-3.275v-1.669h8.448v1.669h-3.277v9.146h-1.896zm14.707 4.427h-5.627v4.719h-1.896v-10.815h1.896v4.427h5.627v-4.427h1.896v10.815h-1.896z" fill="#737678"/><g clip-path="url(#a)"><path d="m85.892 390.53h-2.595v3.438h2.595a1.723 1.723 0 1 0 0-3.437m-.713 5.109h-1.882v4.036h-1.897v-10.816h4.752a3.284 3.284 0 0 1 3.535 3.388 3.036 3.036 0 0 1 -2.563 3.18l2.643 4.247h-2.19z" fill="#737678"/></g><path d="m91.986 388.861h7.41v1.669h-5.513v2.808h5.4v1.669h-5.4v3h5.513v1.669h-7.41zm9.762 0h7.41v1.669h-5.513v2.808h5.4v1.669h-5.4v3h5.513v1.669h-7.41z" fill="#737678"/><g clip-path="url(#a)"><path d="m120.572 390.53h-2.595v3.438h2.595a1.724 1.724 0 1 0 0-3.438m-4.492-1.67h4.751a3.392 3.392 0 1 1 0 6.78h-2.854v4.036h-1.897zm14.755 1.67h-2.595v3.438h2.595a1.723 1.723 0 1 0 0-3.437m-.713 5.109h-1.882v4.036h-1.897v-10.816h4.752a3.284 3.284 0 0 1 3.535 3.388 3.036 3.036 0 0 1 -2.564 3.18l2.644 4.247h-2.189zm11.853-5.271a3.922 3.922 0 1 0 3.583 3.909 3.584 3.584 0 0 0 -3.583-3.909m0-1.685a5.594 5.594 0 1 1 -5.528 5.594 5.366 5.366 0 0 1 5.528-5.594m7.295 8.609a2.47 2.47 0 0 0 1.85.89 1.803 1.803 0 0 0 1.895-1.96v-7.362h1.898v7.393a3.332 3.332 0 0 1 -3.649 3.617 3.76 3.76 0 0 1 -2.87-1.135z" fill="#737678"/></g><path d="m157.62 388.861h7.41v1.669h-5.513v2.808h5.4v1.669h-5.4v3h5.513v1.669h-7.41z" fill="#737678"/><g clip-path="url(#a)"><path d="m166.897 394.278a5.434 5.434 0 0 1 5.594-5.594 4.928 4.928 0 0 1 4.426 2.433l-1.623.825a3.247 3.247 0 0 0 -2.804-1.573 3.917 3.917 0 0 0 0 7.815 3.207 3.207 0 0 0 2.804-1.573l1.623.828a4.955 4.955 0 0 1 -4.427 2.433 5.436 5.436 0 0 1 -5.594-5.594" fill="#737678"/></g><path d="m181.424 390.53h-3.275v-1.669h8.448v1.669h-3.277v9.146h-1.896zm11.755-1.669h1.896v10.815h-1.896zm6.501 2.935v7.88h-1.897v-10.815h1.947l5.528 7.669v-7.669h1.898v10.815h-1.832zm12.76-1.266h-3.275v-1.669h8.448v1.669h-3.277v9.146h-1.896zm7.184-1.669h7.41v1.669h-5.514v2.808h5.401v1.669h-5.401v3h5.514v1.669h-7.41z" fill="#737678"/><g clip-path="url(#a)"><path d="m233.876 390.53h-2.595v3.438h2.595a1.723 1.723 0 1 0 0-3.437m-.713 5.109h-1.882v4.036h-1.897v-10.816h4.752a3.284 3.284 0 0 1 3.535 3.388 3.036 3.036 0 0 1 -2.564 3.18l2.644 4.247h-2.189z" fill="#737678"/></g><path d="m239.971 388.861h7.41v1.669h-5.513v2.808h5.4v1.669h-5.4v3h5.513v1.669h-7.41z" fill="#737678"/><g clip-path="url(#a)"><path d="m250.09 396.695a4.667 4.667 0 0 0 3.422 1.489c1.556 0 2.172-.76 2.172-1.473 0-.975-1.152-1.266-2.464-1.608-1.77-.437-3.844-.955-3.844-3.242 0-1.783 1.573-3.161 3.94-3.161a5.629 5.629 0 0 1 4.055 1.508l-1.088 1.41a4.39 4.39 0 0 0 -3.13-1.233c-1.117 0-1.831.536-1.831 1.346 0 .844 1.102 1.12 2.383 1.443 1.784.456 3.908 1.005 3.908 3.357 0 1.799-1.264 3.34-4.183 3.34a5.787 5.787 0 0 1 -4.394-1.718z" fill="#737678"/></g><path d="m262.185 390.53h-3.274v-1.669h8.447v1.669h-3.277v9.146h-1.896z" fill="#737678"/><g clip-path="url(#a)"><path d="m269.643 396.695a4.667 4.667 0 0 0 3.422 1.489c1.556 0 2.172-.76 2.172-1.473 0-.975-1.152-1.266-2.464-1.608-1.768-.437-3.844-.955-3.844-3.242 0-1.783 1.573-3.161 3.94-3.161a5.624 5.624 0 0 1 4.055 1.508l-1.087 1.41a4.392 4.392 0 0 0 -3.13-1.233c-1.118 0-1.831.536-1.831 1.346 0 .844 1.102 1.12 2.383 1.443 1.783.456 3.907 1.005 3.907 3.357 0 1.799-1.264 3.34-4.183 3.34a5.789 5.789 0 0 1 -4.394-1.718zm-148.576 90.675h-2.501v3.632h2.5a1.819 1.819 0 1 0 0-3.633m-3.687-1.058h3.833a2.877 2.877 0 1 1 0 5.75h-2.646v3.787h-1.187zm8.705 2.631h1.073v1.114a2.936 2.936 0 0 1 2.302-1.257v1.102a1.923 1.923 0 0 0 -.43-.044 2.525 2.525 0 0 0 -1.872 1.102v4.89h-1.073zm10.382 3.448a2.322 2.322 0 1 0 -2.288 2.673 2.402 2.402 0 0 0 2.288-2.674m-5.707 0a3.425 3.425 0 1 1 3.419 3.633 3.387 3.387 0 0 1 -3.42-3.633m17.272-1.232c0-.872-.386-1.43-1.273-1.43a2.417 2.417 0 0 0 -1.83 1.061v5.06h-1.073v-4.69c0-.873-.372-1.43-1.27-1.43a2.413 2.413 0 0 0 -1.819 1.072v5.048h-1.073v-6.906h1.073v1.002a2.983 2.983 0 0 1 2.232-1.173 1.772 1.772 0 0 1 1.858 1.285 2.914 2.914 0 0 1 2.318-1.285c1.257 0 1.93.698 1.93 2.088v4.99h-1.073zm4.304.801h4.532a2.24 2.24 0 0 0 -2.275-2.302 2.302 2.302 0 0 0 -2.257 2.302m2.272-3.186c2.088 0 3.317 1.629 3.317 3.7v.274h-5.589a2.433 2.433 0 0 0 2.487 2.389 3.023 3.023 0 0 0 2.13-.872l.515.698a3.742 3.742 0 0 1 -2.746 1.06 3.63 3.63 0 0 1 -.114-7.25m5.617 5.635v-4.52h-1.145v-.944h1.145v-1.89h1.072v1.89h1.403v.944h-1.403v4.29c0 .515.23.888.7.888a1.045 1.045 0 0 0 .73-.286l.315.8a1.754 1.754 0 0 1 -1.287.444 1.413 1.413 0 0 1 -1.53-1.616m9.02-3.106c0-1.213-.63-1.573-1.559-1.573a2.712 2.712 0 0 0 -2.045 1.074v5.047h-1.073v-9.537h1.073v3.633a3.427 3.427 0 0 1 2.475-1.173 1.94 1.94 0 0 1 2.201 2.2v4.877h-1.072zm4.303.658h4.533a2.24 2.24 0 0 0 -2.275-2.302 2.303 2.303 0 0 0 -2.258 2.302m2.273-3.186c2.088 0 3.317 1.629 3.317 3.7v.274h-5.59a2.435 2.435 0 0 0 2.488 2.389 3.023 3.023 0 0 0 2.13-.872l.515.698a3.743 3.743 0 0 1 -2.746 1.06 3.63 3.63 0 0 1 -.114-7.25m10.064 6.106a3.383 3.383 0 0 1 -2.46 1.145 1.943 1.943 0 0 1 -2.202-2.203v-4.877h1.073v4.548c0 1.213.614 1.573 1.543 1.573a2.64 2.64 0 0 0 2.046-1.046v-5.075h1.072v6.906h-1.072zm3.531-.717a3.12 3.12 0 0 0 2.273.988c1.06 0 1.63-.472 1.63-1.142 0-.76-.842-1.002-1.773-1.232-1.173-.27-2.503-.586-2.503-2.016 0-1.071.93-1.986 2.574-1.986a3.498 3.498 0 0 1 2.561.999l-.5.745a2.692 2.692 0 0 0 -2.06-.872c-.944 0-1.53.428-1.53 1.042 0 .673.786.888 1.687 1.102 1.201.273 2.587.614 2.587 2.146 0 1.158-.928 2.088-2.716 2.088a3.674 3.674 0 0 1 -2.789-1.09z" fill="#737678"/></g><path d="m233.359 491.474h-5.578v4.374h-1.187v-9.536h1.187v4.104h5.578v-4.104h1.187v9.536h-1.187z" fill="#737678"/><g clip-path="url(#a)"><path d="m237.818 491.958h4.533a2.24 2.24 0 0 0 -2.275-2.302 2.303 2.303 0 0 0 -2.258 2.302m2.273-3.186c2.088 0 3.317 1.629 3.317 3.7v.274h-5.59a2.435 2.435 0 0 0 2.488 2.389 3.023 3.023 0 0 0 2.13-.872l.515.698a3.743 3.743 0 0 1 -2.746 1.06 3.63 3.63 0 0 1 -.114-7.25" fill="#737678"/></g><path d="m245.493 486.312h1.073v9.537h-1.073z" fill="#737678"/><g clip-path="url(#a)"><path d="m257.405 491.157c0-.872-.387-1.43-1.273-1.43a2.415 2.415 0 0 0 -1.83 1.061v5.06h-1.073v-4.69c0-.873-.373-1.43-1.272-1.43a2.413 2.413 0 0 0 -1.817 1.072v5.048h-1.073v-6.906h1.073v1.002a2.983 2.983 0 0 1 2.231-1.173 1.772 1.772 0 0 1 1.858 1.285 2.914 2.914 0 0 1 2.318-1.285c1.258 0 1.93.698 1.93 2.088v4.99h-1.072z" fill="#737678"/><path d="m245.85 417.425a12.058 12.058 0 0 1 -.367 3.33c-.077.295-.008.343.266.374a23.225 23.225 0 0 1 9.96 3.495c.36.23.429.103.56-.22a14.1 14.1 0 0 1 4.003-5.574 4.467 4.467 0 0 1 2.057-1.107 1.081 1.081 0 0 1 1.402 1.07 4.982 4.982 0 0 1 -.386 2.308 14.09 14.09 0 0 1 -3.994 5.704c-.274.236-.323.35-.03.622a23.358 23.358 0 0 1 3.737 4.525c.169.265.176.399-.116.568q-1.274.738-2.515 1.525c-.273.174-.414.174-.601-.127a19.616 19.616 0 0 0 -14.564-9.033 19.457 19.457 0 0 0 -17.85 7.658l-.255.335c-.647.909-.647.909-1.566.315-.617-.398-1.228-.807-1.854-1.191-.272-.166-.363-.287-.148-.6a23.886 23.886 0 0 1 3.705-4.277c.289-.26.322-.376.02-.667a13.413 13.413 0 0 1 -3.906-6.413 3.557 3.557 0 0 1 -.06-1.408 1.047 1.047 0 0 1 1.278-.933 4.402 4.402 0 0 1 2.162 1.126 14.009 14.009 0 0 1 3.837 5.188c.166.377.286.403.627.2a22.587 22.587 0 0 1 9.81-3.12c.464-.037.517-.19.43-.62a14.07 14.07 0 0 1 .24-7.005 4.56 4.56 0 0 1 .766-1.542 1.156 1.156 0 0 1 2.044.018 6.468 6.468 0 0 1 1.088 2.813 12.384 12.384 0 0 1 .22 2.663m-4.681 53.753a14.328 14.328 0 0 1 .233-2.663c.079-.325.087-.515-.377-.556a23.075 23.075 0 0 1 -9.991-3.25c-.321-.192-.41-.12-.553.182a14.134 14.134 0 0 1 -3.691 4.855 4.522 4.522 0 0 1 -2.057 1.109 1.081 1.081 0 0 1 -1.405-1.065 5.067 5.067 0 0 1 .383-2.312 13.996 13.996 0 0 1 3.305-5.061c.35-.35.296-.501-.032-.796a21.916 21.916 0 0 1 -2.92-3.3c-.198-.268-.22-.407.084-.606q1.203-.794 2.373-1.647c.29-.213.435-.196.653.105a19.7 19.7 0 0 0 19.094 7.866 19.394 19.394 0 0 0 12.86-7.883c.204-.274.345-.357.653-.127a55.149 55.149 0 0 0 2.374 1.647c.28.186.325.307.109.597a23.03 23.03 0 0 1 -2.721 3.128c-.256.24-.205.339.024.555a13.513 13.513 0 0 1 4.088 6.6 3.51 3.51 0 0 1 .059 1.358 1.054 1.054 0 0 1 -1.307.957 4.398 4.398 0 0 1 -2.114-1.104 14.174 14.174 0 0 1 -3.897-5.278c-.143-.327-.242-.354-.533-.163a22.888 22.888 0 0 1 -9.988 3.568c-.343.039-.324.157-.274.43a14.639 14.639 0 0 1 -.184 6.406 4.943 4.943 0 0 1 -.935 1.977 1.126 1.126 0 0 1 -1.944-.016 7.055 7.055 0 0 1 -1.215-3.313 19.498 19.498 0 0 1 -.154-2.2m20.645-28.755a56.472 56.472 0 0 1 .628 10.508c-.003.476-.13.585-.584.569a57.286 57.286 0 0 0 -3.102-.003c-.33.008-.406-.094-.406-.414q.015-8.2 0-16.401c-.001-.343.09-.444.436-.44 1.314.02 2.63.027 3.943-.002a.589.589 0 0 1 .664.484c1.099 3.098 2.355 6.139 3.194 9.326l.132.32a2.517 2.517 0 0 0 .352-.952c.835-3.001 1.973-5.9 2.972-8.846a.43.43 0 0 1 .497-.328c1.349.014 2.699.019 4.048-.001.34-.006.4.119.399.425q-.012 8.2 0 16.4c0 .297-.04.438-.391.43q-1.656-.035-3.311-.001c-.348.008-.396-.13-.398-.43a58.413 58.413 0 0 1 .483-9.802 5.058 5.058 0 0 0 .034-.628 1.418 1.418 0 0 0 -.073-.24c-.174.518-.315.938-.454 1.36-.885 2.674-1.92 5.293-2.872 7.942a.526.526 0 0 1 -.611.41 19.666 19.666 0 0 0 -1.63 0 .405.405 0 0 1 -.458-.314c-1.086-2.99-2.28-5.942-3.171-9.003a.417.417 0 0 0 -.321-.37m-35.85 2.45c0 2.697-.008 5.395.008 8.093 0 .384-.058.55-.503.536a73.34 73.34 0 0 0 -3.572-.003c-.364.007-.475-.084-.472-.46.019-1.944 0-3.889.018-5.833.003-.396-.076-.548-.513-.537-1.365.03-2.734.031-4.1 0-.458-.01-.538.15-.534.566.022 1.927-.004 3.854.02 5.78.005.408-.12.492-.5.484a109.513 109.513 0 0 0 -3.625-.003c-.308.005-.422-.059-.421-.399q.015-8.224 0-16.45c0-.337.109-.407.42-.402 1.209.016 2.418.022 3.626-.003.384-.008.505.084.499.487-.023 1.787.003 3.574-.02 5.361-.005.417.079.576.536.565a90.344 90.344 0 0 1 4.099 0c.437.01.516-.14.513-.535-.02-1.806 0-3.61-.017-5.414-.004-.374.105-.47.47-.462 1.19.021 2.383.031 3.573-.005.446-.013.504.157.503.54-.016 2.697-.008 5.395-.008 8.094m3.688.022c0-2.716.008-5.432-.008-8.15-.003-.371.064-.506.478-.504q5.048.027 10.093.003c.376-.002.52.07.506.482a49.727 49.727 0 0 0 -.002 2.89c.008.357-.114.436-.446.433-1.858-.014-3.715.005-5.572-.016-.4-.004-.54.08-.53.514.02.932.026.75.002 1.682-.01.404.086.538.514.53 1.524-.026 3.048.006 4.573-.022.43-.007.523.134.512.532a58.93 58.93 0 0 0 -.002 2.943c.008.347-.098.445-.44.442-1.543-.017-3.085.005-4.627-.017-.39-.005-.54.068-.534.509.012.709-.009 1.415.002 2.102.005.378.113.464.473.46 1.945-.017 3.89.004 5.835-.017.406-.004.54.093.525.517a51.603 51.603 0 0 0 -.003 2.837c.005.324-.059.455-.425.453q-5.257-.021-10.513.002c-.376 0-.417-.143-.417-.457.011-2.716.006-5.432.006-8.148m14.721-.037c0-2.7.008-5.397-.011-8.096-.003-.411.101-.53.519-.521q1.76.046 3.52 0c.438-.012.508.143.508.532-.014 4.119-.002 8.236-.018 12.354-.002.44.074.597.562.588 1.823-.036 3.646-.002 5.467-.025.406-.005.498.118.487.503a59.243 59.243 0 0 0 -.002 2.89c.007.322-.084.415-.409.415q-5.1-.018-10.198 0c-.351.002-.434-.102-.433-.44.013-2.734.008-5.467.008-8.2m-101.641 19.008c-.024 3.952 4.027 6.896 9.03 6.682 4.148-.177 7.817-3.42 7.503-6.682zm22.032-7.198h-27.481v4.745h27.48zm-22.592-30.218a9.858 9.858 0 0 1 -.535 5.161c-.381 1.151-.904 2.259-1.217 3.425a39.074 39.074 0 0 0 -1.315 5.821c-.31 2.826.809 5.316 2.72 7.79l-8.787-1.84a2.42 2.42 0 0 0 .03.47 20.037 20.037 0 0 0 3.94 6.413 1.247 1.247 0 0 0 .863.31q13.146.026 26.288.005a1.204 1.204 0 0 0 .8-.227 17.638 17.638 0 0 0 4.21-7.013c-3.216.627-6.263 1.219-9.3 1.81a28.482 28.482 0 0 0 1.716-3.401 13.554 13.554 0 0 0 -1.171-11.376c-1.587-2.891-3.05-5.77-2.258-9.256a10.569 10.569 0 0 0 -2.728 5.897c-.401 2.126-.64 4.283-.95 6.439l-.11-.169a6.087 6.087 0 0 1 -.082-.683 28.153 28.153 0 0 0 -2.348-10.187c-.862-1.912-1.813-3.869-.924-6.15a5.1 5.1 0 0 0 -1.534 1.075 7.691 7.691 0 0 0 -1.77 4.695 38.683 38.683 0 0 1 -.53 4.483 10.638 10.638 0 0 1 -1.808 4.496c-.423-3.044-.47-6.055-3.2-7.988m8.926-10.188c16.145.003 29.396 13.088 29.376 29.006-.022 16.161-13.22 29.064-29.715 29.053a29.205 29.205 0 0 1 -29.155-29.289c.012-15.819 13.29-28.773 29.494-28.77" fill="#bf1e6c"/><path d="m43.914 370.854a1.422 1.422 0 0 0 -1.144-.489.872.872 0 1 0 0 1.718 1.424 1.424 0 0 0 1.144-.488zm0 1.123a1.843 1.843 0 0 1 -1.376.546 1.355 1.355 0 0 1 -1.453-1.303 1.333 1.333 0 0 1 1.453-1.295 1.787 1.787 0 0 1 1.376.537v-.708c0-.529-.447-.83-1.049-.83a1.689 1.689 0 0 0 -1.272.546l-.3-.424a2.232 2.232 0 0 1 1.658-.65c.877 0 1.608.373 1.608 1.325v2.704h-.645zm2.277-.374v-2.573h-.688v-.537h.688v-1.075h.645v1.075h.842v.537h-.842v2.442c0 .294.137.506.42.506a.644.644 0 0 0 .44-.163l.188.456a1.09 1.09 0 0 1 -.774.252.825.825 0 0 1 -.919-.92m2.742 0v-2.573h-.687v-.537h.687v-1.075h.645v1.075h.843v.537h-.843v2.442c0 .294.138.506.42.506a.646.646 0 0 0 .44-.163l.189.456a1.09 1.09 0 0 1 -.774.252.826.826 0 0 1 -.92-.92m3.051-1.393h2.725a1.308 1.308 0 0 0 -1.367-1.311 1.346 1.346 0 0 0 -1.358 1.31m1.366-1.814a1.952 1.952 0 0 1 1.995 2.108v.156h-3.361a1.429 1.429 0 0 0 1.496 1.359 1.867 1.867 0 0 0 1.28-.496l.31.398a2.325 2.325 0 0 1 -1.651.603 2.064 2.064 0 1 1 -.07-4.128m6.053 1.457c0-.693-.37-.912-.929-.912a1.63 1.63 0 0 0 -1.229.611v2.874h-.646v-3.933h.646v.57a2.107 2.107 0 0 1 1.478-.667c.87 0 1.325.415 1.325 1.27v2.76h-.645zm5.157-.277a1.582 1.582 0 0 0 -1.246-.635 1.532 1.532 0 0 0 0 3.038 1.565 1.565 0 0 0 1.246-.62zm0 2.264a1.779 1.779 0 0 1 -1.401.684 2.076 2.076 0 0 1 0-4.128 1.767 1.767 0 0 1 1.4.692v-2.092h.646v5.43h-.645zm2.587-1.629h2.724a1.307 1.307 0 0 0 -1.367-1.311 1.345 1.345 0 0 0 -1.357 1.31m1.366-1.814a1.953 1.953 0 0 1 1.995 2.108v.156h-3.361a1.428 1.428 0 0 0 1.496 1.359 1.868 1.868 0 0 0 1.28-.496l.31.398a2.326 2.326 0 0 1 -1.652.603 2.064 2.064 0 1 1 -.068-4.128m3.688 1.815h2.724a1.307 1.307 0 0 0 -1.367-1.311 1.345 1.345 0 0 0 -1.357 1.31m1.366-1.814a1.953 1.953 0 0 1 1.995 2.108v.156h-3.36a1.428 1.428 0 0 0 1.495 1.359 1.867 1.867 0 0 0 1.28-.496l.31.398a2.325 2.325 0 0 1 -1.65.603 2.064 2.064 0 1 1 -.07-4.128m3.222 3.069a1.932 1.932 0 0 0 1.367.562c.637 0 .98-.269.98-.651 0-.432-.506-.571-1.066-.701-.705-.154-1.505-.333-1.505-1.148 0-.61.56-1.131 1.548-1.131a2.163 2.163 0 0 1 1.54.57l-.3.423a1.664 1.664 0 0 0 -1.24-.497c-.567 0-.92.245-.92.595 0 .382.473.505 1.015.627.722.154 1.556.35 1.556 1.221 0 .659-.559 1.189-1.633 1.189a2.277 2.277 0 0 1 -1.677-.619z" fill="#737678"/><path d="m23.797 335.124c0 2.804 1.05 4.25 3.057 4.25 2.005 0 3.055-1.446 3.055-4.205 0-2.894-1.003-4.296-3.055-4.296-2.054 0-3.057 1.447-3.057 4.251m-.238 13.521c0 3.346 1.05 4.974 3.295 4.974q3.294 0 3.295-4.884c0-3.481-1.052-5.064-3.295-5.064-2.245 0-3.295 1.628-3.295 4.974m11.364.09c0 3.166-.621 5.201-2.101 6.784a8.022 8.022 0 0 1 -5.968 2.261 8.024 8.024 0 0 1 -5.97-2.261c-1.481-1.628-2.102-3.618-2.102-6.784 0-4.16 1.05-6.195 3.869-7.28-2.58-1.221-3.486-2.894-3.486-6.648 0-5.246 2.722-8.095 7.689-8.095 4.965 0 7.687 2.849 7.687 8.095 0 3.754-.907 5.427-3.485 6.648 2.817 1.085 3.867 3.12 3.867 7.28" fill="#201a55"/></g><path d="m43.23 357.327-2.818 6.24h-1.814l2.102-6.24h-2.102v-4.839h4.632z" fill="#201a55"/><g clip-path="url(#a)"><path d="m51.49 348.69c0 2.08.095 2.668.573 3.528a3.486 3.486 0 0 0 5.588 0c.477-.86.572-1.402.572-3.528v-12.888c0-2.125-.095-2.668-.572-3.527a3.485 3.485 0 0 0 -5.588 0c-.478.859-.573 1.402-.573 3.527zm11.366-.95c0 3.437-.478 5.427-1.672 7.146a7.495 7.495 0 0 1 -6.304 2.894 7.524 7.524 0 0 1 -6.35-2.894c-1.195-1.72-1.672-3.754-1.672-7.145v-10.988c0-3.393.477-5.427 1.672-7.146a7.524 7.524 0 0 1 6.35-2.894 7.495 7.495 0 0 1 6.304 2.894c1.194 1.719 1.672 3.708 1.672 7.146zm8.211.95c0 2.08.096 2.668.574 3.528a3.485 3.485 0 0 0 5.587 0c.477-.86.573-1.402.573-3.528v-12.888c0-2.125-.096-2.668-.573-3.527a3.484 3.484 0 0 0 -5.587 0c-.478.859-.574 1.402-.574 3.527zm11.366-.95c0 3.437-.478 5.427-1.671 7.146a7.496 7.496 0 0 1 -6.304 2.894 7.525 7.525 0 0 1 -6.351-2.894c-1.194-1.72-1.671-3.754-1.671-7.145v-10.988c0-3.393.477-5.427 1.67-7.146a7.526 7.526 0 0 1 6.352-2.894 7.496 7.496 0 0 1 6.304 2.894c1.193 1.719 1.67 3.708 1.67 7.146zm8.211.95c0 2.08.095 2.668.573 3.528a3.486 3.486 0 0 0 5.588 0c.477-.86.572-1.402.572-3.528v-12.888c0-2.125-.095-2.668-.572-3.527a3.485 3.485 0 0 0 -5.588 0c-.478.859-.573 1.402-.573 3.527zm11.366-.95c0 3.437-.478 5.427-1.672 7.146a8.363 8.363 0 0 1 -12.654 0c-1.195-1.72-1.672-3.754-1.672-7.145v-10.988c0-3.393.477-5.427 1.672-7.146a8.363 8.363 0 0 1 12.654 0c1.194 1.719 1.672 3.708 1.672 7.146z" fill="#201a55"/><path d="m113.154 369.77h.646v3.934h-.646zm-.112-1.041a.435.435 0 0 1 .87 0 .435.435 0 0 1 -.87 0m-2.14 1.58h-.688v-.538h.687v-.301a1.15 1.15 0 0 1 1.204-1.278 1.244 1.244 0 0 1 .628.139l-.164.463a.686.686 0 0 0 -.369-.098c-.422 0-.654.278-.654.774v.3h.843v.539h-.843v3.395h-.645zm4.408-.538h.647v.635a1.787 1.787 0 0 1 1.383-.716v.627a1.213 1.213 0 0 0 -.259-.025 1.533 1.533 0 0 0 -1.124.627v2.785h-.646zm3.027 2.972a1.928 1.928 0 0 0 1.367.562c.636 0 .979-.27.979-.651 0-.432-.506-.571-1.066-.701-.705-.154-1.505-.333-1.505-1.148 0-.61.56-1.131 1.548-1.131a2.166 2.166 0 0 1 1.54.57l-.301.423a1.662 1.662 0 0 0 -1.24-.497c-.566 0-.92.245-.92.595 0 .382.474.505 1.016.627.722.154 1.556.349 1.556 1.22 0 .66-.56 1.19-1.633 1.19a2.28 2.28 0 0 1 -1.677-.62zm4.365.138v-2.573h-.688v-.537h.688v-1.075h.645v1.075h.842v.537h-.842v2.442c0 .294.137.506.421.506a.641.641 0 0 0 .438-.163l.19.456a1.09 1.09 0 0 1 -.774.252.825.825 0 0 1 -.92-.92" fill="#737678"/></g><path d="m124.929 371.466h2.062v.536h-2.062z" fill="#737678"/><g clip-path="url(#a)"><path d="m128.237 372.881v-2.573h-.688v-.537h.688v-1.075h.645v1.075h.842v.537h-.842v2.442c0 .294.137.506.421.506a.641.641 0 0 0 .438-.163l.19.456a1.09 1.09 0 0 1 -.774.252.825.825 0 0 1 -.92-.92m2.611-3.111h.646v3.934h-.646zm-.11-1.041a.434.434 0 0 1 .867 0 .435.435 0 0 1 -.868 0m7.273 2.304c0-.496-.23-.814-.765-.814a1.473 1.473 0 0 0 -1.1.603v2.882h-.644v-2.671c0-.496-.224-.814-.765-.814a1.465 1.465 0 0 0 -1.092.611v2.874h-.646v-3.933h.646v.57a1.822 1.822 0 0 1 1.34-.667 1.063 1.063 0 0 1 1.119.732 1.767 1.767 0 0 1 1.392-.732 1.046 1.046 0 0 1 1.16 1.189v2.841h-.644zm2.588.456h2.724a1.307 1.307 0 0 0 -1.367-1.311 1.345 1.345 0 0 0 -1.357 1.31m1.366-1.814a1.953 1.953 0 0 1 1.995 2.108v.156h-3.361a1.428 1.428 0 0 0 1.495 1.359 1.87 1.87 0 0 0 1.28-.497l.31.399a2.326 2.326 0 0 1 -1.651.603 2.064 2.064 0 1 1 -.068-4.128m8.277 2.459a1.421 1.421 0 0 0 -1.143-.489.872.872 0 1 0 0 1.718 1.424 1.424 0 0 0 1.143-.488zm0 1.123a1.839 1.839 0 0 1 -1.375.546 1.355 1.355 0 0 1 -1.453-1.303 1.333 1.333 0 0 1 1.453-1.295 1.783 1.783 0 0 1 1.375.537v-.708c0-.529-.446-.83-1.048-.83a1.69 1.69 0 0 0 -1.273.546l-.3-.424a2.232 2.232 0 0 1 1.66-.651c.876 0 1.607.374 1.607 1.326v2.704h-.646zm2.278-.375v-2.573h-.687v-.537h.687v-1.075h.645v1.075h.843v.537h-.843v2.442c0 .294.138.506.42.506a.646.646 0 0 0 .44-.163l.189.456a1.09 1.09 0 0 1 -.774.252.826.826 0 0 1 -.92-.92m2.741 0v-2.573h-.687v-.537h.688v-1.075h.645v1.075h.842v.537h-.842v2.442c0 .294.137.506.42.506a.646.646 0 0 0 .44-.163l.188.456a1.088 1.088 0 0 1 -.773.252.825.825 0 0 1 -.92-.92m3.051-1.392h2.725a1.308 1.308 0 0 0 -1.368-1.311 1.345 1.345 0 0 0 -1.357 1.31m1.366-1.814a1.952 1.952 0 0 1 1.995 2.108v.156h-3.361a1.429 1.429 0 0 0 1.496 1.359 1.867 1.867 0 0 0 1.28-.497l.31.399a2.325 2.325 0 0 1 -1.651.603 2.064 2.064 0 1 1 -.07-4.128m6.053 1.457c0-.692-.37-.912-.928-.912a1.627 1.627 0 0 0 -1.23.611v2.874h-.646v-3.933h.647v.57a2.107 2.107 0 0 1 1.477-.667c.87 0 1.325.415 1.325 1.27v2.76h-.645zm5.157-.278a1.584 1.584 0 0 0 -1.247-.635 1.532 1.532 0 0 0 0 3.038 1.567 1.567 0 0 0 1.247-.62zm0 2.264a1.779 1.779 0 0 1 -1.401.684 2.076 2.076 0 0 1 0-4.127 1.768 1.768 0 0 1 1.4.691v-2.092h.646v5.43h-.645zm2.587-1.628h2.724a1.307 1.307 0 0 0 -1.367-1.311 1.345 1.345 0 0 0 -1.357 1.31m1.366-1.814a1.952 1.952 0 0 1 1.994 2.108v.156h-3.36a1.427 1.427 0 0 0 1.495 1.359 1.87 1.87 0 0 0 1.28-.497l.31.399a2.326 2.326 0 0 1 -1.651.603 2.064 2.064 0 1 1 -.068-4.128m3.688 1.815h2.724a1.307 1.307 0 0 0 -1.367-1.311 1.345 1.345 0 0 0 -1.357 1.31m1.366-1.814a1.952 1.952 0 0 1 1.994 2.108v.156h-3.36a1.428 1.428 0 0 0 1.495 1.359 1.87 1.87 0 0 0 1.281-.497l.31.399a2.326 2.326 0 0 1 -1.652.603 2.064 2.064 0 1 1 -.068-4.128m3.222 3.069a1.932 1.932 0 0 0 1.367.562c.637 0 .98-.27.98-.651 0-.432-.507-.571-1.067-.701-.705-.154-1.504-.333-1.504-1.148 0-.61.56-1.131 1.547-1.131a2.166 2.166 0 0 1 1.54.57l-.3.423a1.665 1.665 0 0 0 -1.24-.497c-.566 0-.919.245-.919.595 0 .382.473.505 1.015.627.722.154 1.556.349 1.556 1.22 0 .66-.559 1.19-1.633 1.19a2.281 2.281 0 0 1 -1.678-.62zm13.282-3.334a1.556 1.556 0 0 0 -1.237.627v1.775a1.563 1.563 0 0 0 1.237.635 1.531 1.531 0 0 0 0-3.037m-1.883 4.983v-5.431h.646v.587a1.765 1.765 0 0 1 1.4-.684 2.077 2.077 0 0 1 0 4.128 1.727 1.727 0 0 1 -1.4-.692v2.092zm7.745-3.069a1.422 1.422 0 0 0 -1.144-.489.872.872 0 1 0 0 1.718 1.425 1.425 0 0 0 1.144-.488zm0 1.123a1.843 1.843 0 0 1 -1.376.546 1.354 1.354 0 0 1 -1.452-1.303 1.332 1.332 0 0 1 1.452-1.295 1.786 1.786 0 0 1 1.376.537v-.708c0-.529-.447-.83-1.05-.83a1.689 1.689 0 0 0 -1.271.546l-.301-.424a2.233 2.233 0 0 1 1.659-.65c.877 0 1.609.373 1.609 1.325v2.704h-.646zm2.148-3.485h.646v.635a1.789 1.789 0 0 1 1.383-.716v.627a1.206 1.206 0 0 0 -.258-.025 1.536 1.536 0 0 0 -1.125.627v2.785h-.646zm3.181 3.111v-2.573h-.688v-.537h.688v-1.075h.644v1.075h.843v.537h-.843v2.442c0 .294.138.506.42.506a.646.646 0 0 0 .44-.163l.189.456a1.09 1.09 0 0 1 -.774.252.825.825 0 0 1 -.92-.92m2.612-3.112h.646v3.934h-.645zm-.11-1.041a.435.435 0 1 1 .429.407.42.42 0 0 1 -.43-.407m4.091.945a1.812 1.812 0 0 1 1.523.684l-.43.374a1.257 1.257 0 0 0 -1.057-.513 1.52 1.52 0 0 0 0 3.037 1.275 1.275 0 0 0 1.058-.513l.429.374a1.81 1.81 0 0 1 -1.522.685 2.064 2.064 0 1 1 0-4.128m2.637.096h.646v3.934h-.646zm-.11-1.041a.435.435 0 1 1 .429.407.42.42 0 0 1 -.429-.407m4.144 1.49a1.559 1.559 0 0 0 -1.238.627v1.775a1.565 1.565 0 0 0 1.238.635 1.532 1.532 0 0 0 0-3.037m-1.883 4.983v-5.431h.645v.587a1.765 1.765 0 0 1 1.4-.684 2.076 2.076 0 0 1 0 4.128 1.729 1.729 0 0 1 -1.4-.692v2.092zm7.744-3.069a1.422 1.422 0 0 0 -1.144-.489.872.872 0 1 0 0 1.718 1.425 1.425 0 0 0 1.144-.488zm0 1.123a1.843 1.843 0 0 1 -1.376.546 1.354 1.354 0 0 1 -1.452-1.303 1.332 1.332 0 0 1 1.452-1.295 1.786 1.786 0 0 1 1.376.537v-.708c0-.529-.447-.83-1.05-.83a1.69 1.69 0 0 0 -1.271.546l-.301-.424a2.233 2.233 0 0 1 1.659-.65c.877 0 1.609.373 1.609 1.325v2.704h-.646zm2.278-.374v-2.573h-.688v-.537h.688v-1.075h.645v1.075h.842v.537h-.842v2.442c0 .294.137.506.421.506a.642.642 0 0 0 .438-.163l.19.456a1.09 1.09 0 0 1 -.774.252.825.825 0 0 1 -.92-.92m2.611-3.112h.646v3.934h-.646zm-.11-1.041a.434.434 0 0 1 .867 0 .435.435 0 0 1 -.868 0m5.064 2.402c0-.692-.37-.912-.93-.912a1.627 1.627 0 0 0 -1.228.611v2.874h-.646v-3.933h.646v.57a2.107 2.107 0 0 1 1.478-.667c.869 0 1.325.415 1.325 1.27v2.76h-.645zm5.149-.277a1.558 1.558 0 0 0 -1.24-.635 1.509 1.509 0 0 0 0 2.997 1.564 1.564 0 0 0 1.24-.643zm-2.683 3.404a1.63 1.63 0 0 0 1.35.537c.687 0 1.333-.317 1.333-1.18v-.563a1.764 1.764 0 0 1 -1.394.7 2.05 2.05 0 0 1 0-4.078 1.754 1.754 0 0 1 1.394.692v-.594h.644v3.818c0 1.303-.963 1.71-1.977 1.71a2.195 2.195 0 0 1 -1.677-.586zm9.094-4.584a1.812 1.812 0 0 1 1.522.684l-.429.374a1.257 1.257 0 0 0 -1.058-.513 1.52 1.52 0 0 0 0 3.037 1.275 1.275 0 0 0 1.058-.513l.43.374a1.81 1.81 0 0 1 -1.523.685 2.064 2.064 0 1 1 0-4.128m5.829 2.06a1.387 1.387 0 1 0 -1.376 1.523 1.396 1.396 0 0 0 1.376-1.523m-3.431 0a2.055 2.055 0 1 1 2.055 2.068 1.978 1.978 0 0 1 -2.055-2.068m10.384-.701c0-.496-.232-.814-.766-.814a1.47 1.47 0 0 0 -1.1.603v2.882h-.645v-2.67c0-.497-.223-.815-.764-.815a1.467 1.467 0 0 0 -1.093.611v2.874h-.646v-3.933h.646v.57a1.823 1.823 0 0 1 1.342-.667 1.061 1.061 0 0 1 1.117.732 1.77 1.77 0 0 1 1.393-.732 1.047 1.047 0 0 1 1.16 1.19v2.84h-.644zm4.03-.814a1.556 1.556 0 0 0 -1.237.627v1.775a1.563 1.563 0 0 0 1.237.635 1.531 1.531 0 0 0 0-3.037m-1.883 4.983v-5.431h.646v.587a1.762 1.762 0 0 1 1.4-.684 2.076 2.076 0 0 1 0 4.128 1.727 1.727 0 0 1 -1.4-.692v2.092zm7.744-3.069a1.422 1.422 0 0 0 -1.143-.489.872.872 0 1 0 0 1.718 1.424 1.424 0 0 0 1.143-.488zm0 1.123a1.839 1.839 0 0 1 -1.375.546 1.354 1.354 0 0 1 -1.452-1.303 1.332 1.332 0 0 1 1.452-1.295 1.783 1.783 0 0 1 1.375.537v-.708c0-.529-.446-.83-1.048-.83a1.69 1.69 0 0 0 -1.273.546l-.3-.424a2.232 2.232 0 0 1 1.66-.65c.875 0 1.607.373 1.607 1.325v2.704h-.646zm4.952-2.125c0-.692-.37-.912-.929-.912a1.625 1.625 0 0 0 -1.228.611v2.874h-.646v-3.933h.646v.57a2.102 2.102 0 0 1 1.477-.667c.87 0 1.325.415 1.325 1.27v2.76h-.645zm2.147-1.361h.646v3.934h-.646zm-.11-1.041a.434.434 0 0 1 .867 0 .435.435 0 0 1 -.868 0m2.7 2.76h2.725a1.308 1.308 0 0 0 -1.368-1.311 1.345 1.345 0 0 0 -1.357 1.311m1.366-1.815a1.953 1.953 0 0 1 1.995 2.108v.156h-3.361a1.429 1.429 0 0 0 1.496 1.359 1.867 1.867 0 0 0 1.28-.497l.31.399a2.325 2.325 0 0 1 -1.651.603 2.064 2.064 0 1 1 -.07-4.128m3.225 3.069a1.928 1.928 0 0 0 1.367.562c.636 0 .98-.269.98-.651 0-.432-.507-.571-1.067-.701-.705-.154-1.505-.333-1.505-1.148 0-.61.56-1.131 1.548-1.131a2.161 2.161 0 0 1 1.54.57l-.3.423a1.662 1.662 0 0 0 -1.24-.497c-.567 0-.92.245-.92.595 0 .382.473.505 1.015.627.722.154 1.556.349 1.556 1.221 0 .659-.559 1.189-1.633 1.189a2.279 2.279 0 0 1 -1.677-.619z" fill="#737678"/></g><path d="m134.97 329.986-7.116 26.952h-4.822l7.019-26.093h-10.362v-4.069h15.281z" fill="#201a55"/><g clip-path="url(#a)"><path d="m145.903 338.985c1.957-.045 2.578-.271 3.247-.95a4.874 4.874 0 0 0 .907-3.301c0-2.85-.955-4.25-2.913-4.25-1.862 0-2.96 1.31-3.009 3.527v.452h-4.63v-.542c0-4.523 3.15-7.598 7.783-7.598 4.727 0 7.401 3.03 7.401 8.32 0 3.664-1.003 5.337-3.82 6.332 3.247.904 4.346 2.713 4.346 7.145 0 3.075-.668 5.2-2.15 6.828a7.795 7.795 0 0 1 -6.016 2.442 7.546 7.546 0 0 1 -7.975-7.96v-1.084h4.775v.633c0 2.713 1.194 4.25 3.247 4.25 2.197 0 3.343-1.717 3.343-5.11 0-3.572-1.146-4.837-4.536-4.928zm30.323 13.476c0 1.81.38 2.397 1.575 2.397 1.145 0 1.528-.588 1.528-2.397v-6.558c0-1.808-.383-2.396-1.528-2.396-1.195 0-1.575.588-1.575 2.396zm5.968-.497c0 3.572-1.432 5.29-4.393 5.29-3.008 0-4.442-1.718-4.442-5.29v-5.608c0-3.527 1.434-5.246 4.442-5.246 2.961 0 4.393 1.72 4.393 5.246zm-3.486-25.188-13.18 30.162h-2.626l13.18-30.162zm-16.427 11.033c0 1.81.382 2.397 1.575 2.397 1.147 0 1.529-.588 1.529-2.397v-6.556c0-1.81-.382-2.397-1.529-2.397-1.193 0-1.575.587-1.575 2.397zm5.969-.452c0 3.527-1.432 5.246-4.394 5.246-2.96 0-4.44-1.719-4.44-5.246v-5.607c0-3.573 1.433-5.29 4.44-5.29 2.962 0 4.394 1.717 4.394 5.29zm37.487 18.496h-4.633v-23.063h-4.583v-2.758a18.586 18.586 0 0 0 6.493-4.341h2.723z" fill="#201a55"/></g><path d="m216.862 355.853-2.817 6.24h-1.814l2.101-6.24h-2.101v-4.839h4.631z" fill="#201a55"/><g clip-path="url(#a)"><path d="m225.41 333.65c0 2.803 1.05 4.25 3.056 4.25s3.056-1.447 3.056-4.206c0-2.894-1.004-4.296-3.056-4.296-2.054 0-3.056 1.447-3.056 4.251m-.239 13.521c0 3.346 1.051 4.974 3.295 4.974q3.294 0 3.295-4.884c0-3.48-1.05-5.064-3.295-5.064s-3.295 1.628-3.295 4.974m11.365.09c0 3.166-.62 5.201-2.102 6.784a9.01 9.01 0 0 1 -11.938 0c-1.48-1.628-2.1-3.618-2.1-6.784 0-4.16 1.05-6.195 3.868-7.28-2.58-1.22-3.487-2.894-3.487-6.647 0-5.247 2.723-8.096 7.69-8.096s7.686 2.85 7.686 8.096c0 3.753-.907 5.426-3.484 6.647 2.817 1.085 3.867 3.12 3.867 7.28m18.813 8.593h-15.52v-4.07c10.124-12.572 11.366-14.561 11.366-18.586 0-2.487-1.051-3.798-3.057-3.798a3.138 3.138 0 0 0 -2.912 1.763 7.122 7.122 0 0 0 -.431 3.302h-4.632c0-3.302.335-4.748 1.337-6.106a8.004 8.004 0 0 1 6.734-3.12c4.823 0 7.735 2.985 7.735 8.004a12.897 12.897 0 0 1 -2.005 6.92c-1.528 2.44-1.528 2.44-7.115 9.54-.525.725-1.1 1.403-1.623 2.08h10.123z" fill="#201a55"/></g><path d="m268.336 333.061-5.54 11.08h5.54zm-9.838 15.15v-4.704l9.407-17.817h5.062v18.45h3.582v4.07h-3.582v7.642h-4.631v-7.642z" fill="#201a55"/><path d="m28.256 155.993h-5.696v-16.196h5.695c6.478 0 9.204 3.644 9.204 8.098 0 4.453-2.726 8.098-9.204 8.098zm-.162-13.55h-2.24v10.904h2.24c4.427 0 5.992-2.213 5.992-5.452 0-3.24-1.565-5.453-5.992-5.453zm13.204 13.55v-16.196h10.555v2.564h-7.263v3.806h5.911v2.564h-5.91v4.697h7.26v2.565zm29.291 0v-9.934c0-.378.08-1.43.108-1.539l-.594 1.54-4.346 9.933h-2.024l-4.346-9.934a32.688 32.688 0 0 1 -.567-1.539c0 .081.081 1.161.081 1.54v9.933h-2.888v-16.196h3.509l5.345 11.85 5.317-11.85h3.401v16.196zm15.716.459a8.559 8.559 0 1 1 8.746-8.557 8.49 8.49 0 0 1 -8.746 8.557zm0-14.496c-3.24 0-5.372 2.43-5.372 5.939s2.133 5.938 5.372 5.938c3.185 0 5.29-2.43 5.29-5.938 0-3.51-2.105-5.939-5.29-5.939zm20.465 14.496a8.322 8.322 0 0 1 -8.61-8.557c0-5.237 4.103-8.449 8.826-8.449a10.113 10.113 0 0 1 5.75 1.647v2.996a8.028 8.028 0 0 0 -5.425-1.998c-3.374 0-5.723 2.214-5.723 5.939 0 3.644 2.294 5.938 5.534 5.938a6.801 6.801 0 0 0 3.13-.675v-3.158h-2.86v-2.43h6.019v7.154a16.588 16.588 0 0 1 -6.64 1.593zm24.704-.459h-3.617l-4.48-6.452h-2.025v6.452h-3.293v-16.196h6.37c3.833 0 5.48 2.267 5.48 4.885a4.414 4.414 0 0 1 -3.24 4.508zm-10.122-8.773h2.537c2.052 0 2.78-1.08 2.78-2.51 0-1.458-.728-2.565-2.78-2.565h-2.537zm24.918 8.773-1.646-3.996h-6.56l-1.646 3.996h-3.185l6.883-16.196h2.565l6.882 16.196zm-4.913-12.174-2.402 5.884h4.778zm17.469 6.289h-2.861v5.885h-3.293v-16.196h6.154c3.888 0 5.615 2.375 5.615 5.155 0 2.808-1.727 5.156-5.615 5.156zm-.539-7.963h-2.322v5.615h2.322a2.808 2.808 0 1 0 0-5.615zm20.329 13.848v-7.154h-7.64v7.154h-3.292v-16.196h3.293v6.262h7.64v-6.262h3.292v16.196zm7.941 0v-16.196h3.293v16.196zm15.847.351c-4.67 0-8.691-3.213-8.691-8.45 0-5.236 4.021-8.448 8.691-8.448a9.754 9.754 0 0 1 5.642 1.647v2.996a7.879 7.879 0 0 0 -5.291-1.998c-3.212 0-5.587 2.16-5.587 5.804 0 3.617 2.375 5.803 5.587 5.803a7.879 7.879 0 0 0 5.29-1.997v2.996a9.758 9.758 0 0 1 -5.64 1.647zm21.114-.351h-5.696v-16.196h5.696c6.478 0 9.205 3.644 9.205 8.098 0 4.453-2.727 8.098-9.205 8.098zm-.162-13.55h-2.24v10.904h2.24c4.427 0 5.993-2.213 5.993-5.452 0-3.24-1.566-5.453-5.993-5.453zm23.624 13.55-1.648-3.996h-6.559l-1.646 3.996h-3.186l6.883-16.196h2.565l6.883 16.196zm-4.914-12.174-2.402 5.884h4.777zm16.524-1.458v13.632h-3.293v-13.633h-5.48v-2.564h14.253v2.564zm18.062 13.632-1.647-3.996h-6.559l-1.646 3.996h-3.186l6.883-16.196h2.565l6.883 16.196zm-4.913-12.174-2.402 5.884h4.777z" fill="#c4226e"/><g clip-path="url(#a)" fill="#bf1e6c"><path d="m36.945 451.039.02-.005.01-.003c.107-.025.244-.06.342-.079a10.63 10.63 0 0 1 1.231-.099 11.973 11.973 0 0 0 2.3-.378 1.784 1.784 0 0 0 .55-.556l.537-.156a16.592 16.592 0 0 1 2.617-11.57l-.41-.367a1.435 1.435 0 0 0 -.259-.74 12.058 12.058 0 0 0 -1.907-1.34 10.58 10.58 0 0 1 -1.063-.622c-.078-.058-.182-.145-.266-.214l-.02-.014a1.359 1.359 0 0 1 -.315-1.89 1.234 1.234 0 0 1 1.022-.452 1.525 1.525 0 0 1 .894.336c.087.07.207.161.285.228a10.784 10.784 0 0 1 .844.896 11.95 11.95 0 0 0 1.73 1.562 1.011 1.011 0 0 0 .761.074c.073.054.321.232.463.329a16.505 16.505 0 0 1 8.38-4.788 16.8 16.8 0 0 1 2.318-.356l.03-.542a1.407 1.407 0 0 0 .417-.663 12.04 12.04 0 0 0 -.143-2.327 10.832 10.832 0 0 1 -.175-1.219c-.004-.094.001-.222.003-.329l-.003-.036a1.29 1.29 0 1 1 2.565 0c0 .112.006.262.002.365a10.608 10.608 0 0 1 -.175 1.219 11.976 11.976 0 0 0 -.145 2.327 1.016 1.016 0 0 0 .42.641c.003.093.018.402.03.572a16.808 16.808 0 0 1 10.645 5.144l.488-.348a1.427 1.427 0 0 0 .78-.085 12.025 12.025 0 0 0 1.727-1.564 10.841 10.841 0 0 1 .847-.897c.08-.067.198-.157.285-.227a1.29 1.29 0 1 1 1.598 2.006c-.087.069-.2.166-.283.227a10.6 10.6 0 0 1 -1.065.622 12.07 12.07 0 0 0 -1.908 1.34 1.016 1.016 0 0 0 -.24.726c-.072.066-.323.288-.455.409a16.67 16.67 0 0 1 2.671 11.542l.518.151a1.442 1.442 0 0 0 .554.556 11.945 11.945 0 0 0 2.3.378 10.617 10.617 0 0 1 1.23.099c.106.02.262.063.372.087a1.287 1.287 0 1 1 -.57 2.5.124.124 0 0 0 -.019-.003l-.025-.008c-.106-.023-.239-.047-.33-.072a10.395 10.395 0 0 1 -1.152-.444 12.011 12.011 0 0 0 -2.237-.657 1.013 1.013 0 0 0 -.718.266c-.093-.019-.382-.07-.548-.096a16.69 16.69 0 0 1 -7.393 9.3 4.298 4.298 0 0 0 .214.518 1.006 1.006 0 0 0 -.099.756 12.025 12.025 0 0 0 1.137 2.037 10.52 10.52 0 0 1 .688 1.022c.051.096.118.243.167.345a1.288 1.288 0 1 1 -2.318 1.096c-.049-.1-.118-.234-.159-.329a10.728 10.728 0 0 1 -.373-1.175 12 12 0 0 0 -.879-2.157 1.013 1.013 0 0 0 -.655-.397l-.274-.493a16.87 16.87 0 0 1 -2.2.663 16.573 16.573 0 0 1 -9.636-.694l-.29.526a1.04 1.04 0 0 0 -.553.27 8.98 8.98 0 0 0 -.993 2.304 10.488 10.488 0 0 1 -.37 1.175c-.04.094-.11.226-.158.326v.003l-.003.003a1.288 1.288 0 1 1 -2.316-1.099c.05-.102.114-.249.165-.345a10.69 10.69 0 0 1 .687-1.025 12.54 12.54 0 0 0 1.161-2.086 1.269 1.269 0 0 0 -.114-.726l.233-.559a16.69 16.69 0 0 1 -7.396-9.235l-.559.096a1.427 1.427 0 0 0 -.737-.26 11.982 11.982 0 0 0 -2.236.657 10.675 10.675 0 0 1 -1.15.442c-.094.025-.227.05-.333.074l-.024.008a.107.107 0 0 0 -.019.003 1.288 1.288 0 1 1 -.57-2.5m52.19 1.812-5.294-22.996a4.133 4.133 0 0 0 -2.217-2.757l-21.429-10.232a4.123 4.123 0 0 0 -3.557 0l-21.427 10.237a4.137 4.137 0 0 0 -2.217 2.757l-5.285 22.997a4.078 4.078 0 0 0 .556 3.115 3.907 3.907 0 0 0 .233.324l14.83 18.439a4.17 4.17 0 0 0 3.203 1.529l23.784-.005a4.171 4.171 0 0 0 3.203-1.527l14.825-18.442a4.1 4.1 0 0 0 .792-3.439"/><path d="m54.611 441.849a1.131 1.131 0 0 0 1.795-.866l.027-.014.381-6.727a13.438 13.438 0 0 0 -1.367.236 13.207 13.207 0 0 0 -6.363 3.466l5.516 3.91z"/></g><path d="m56.562 448.911 1.858.893 1.853-.89.46-2.001-1.283-1.603h-2.063l-1.285 1.601z" fill="#bf1e6c"/><g clip-path="url(#a)"><path d="m60.416 440.96a1.115 1.115 0 0 0 .247.656 1.13 1.13 0 0 0 1.55.208l.02.008 5.48-3.885a13.32 13.32 0 0 0 -7.684-3.705l.38 6.716zm-1.001 13.173a1.13 1.13 0 0 0 -1.992.003h-.006l-3.255 5.886a13.265 13.265 0 0 0 7.237.373q.668-.151 1.304-.365l-3.264-5.897zm5.3-9.177a1.116 1.116 0 0 0 -.36.6 1.132 1.132 0 0 0 .804 1.343l.006.027 6.489 1.869a13.464 13.464 0 0 0 -1.932-8.336l-5.01 4.483zm-10.844 6.747a1.13 1.13 0 0 0 -1.085-.88 1.046 1.046 0 0 0 -.222.02l-.01-.014-6.62 1.124a13.274 13.274 0 0 0 5.33 6.669l2.563-6.198-.019-.025a1.112 1.112 0 0 0 .063-.696m10.392-.888a1.08 1.08 0 0 0 -.26-.019 1.112 1.112 0 0 0 -.433.112 1.132 1.132 0 0 0 -.548 1.466l-.008.011 2.592 6.262a13.223 13.223 0 0 0 5.346-6.717l-6.678-1.129zm-12.598-3.861.006-.022a1.13 1.13 0 0 0 .444-1.943l.005-.027-5.036-4.505a13.204 13.204 0 0 0 -1.875 8.36z" fill="#bf1e6c"/></g><path d="m39.099 253.978c0 3.71-.69 6.095-2.332 7.95a8.647 8.647 0 0 1 -6.624 2.649 8.647 8.647 0 0 1 -6.624-2.65c-1.643-1.907-2.332-4.24-2.332-7.949 0-4.875 1.166-7.26 4.292-8.531-2.862-1.432-3.869-3.392-3.869-7.79 0-6.148 3.021-9.487 8.533-9.487s8.531 3.34 8.531 9.486c0 4.399-1.006 6.36-3.868 7.79 3.127 1.272 4.293 3.657 4.293 8.532zm-12.613-.106c0 3.922 1.166 5.83 3.657 5.83q3.656 0 3.656-5.724c0-4.08-1.166-5.935-3.656-5.935s-3.657 1.908-3.657 5.83zm.265-15.845c0 3.286 1.166 4.982 3.392 4.982s3.391-1.696 3.391-4.929c0-3.391-1.113-5.034-3.391-5.034s-3.392 1.696-3.392 4.981zm28.831 26.02h-5.14v-27.027h-5.088v-3.232a20.624 20.624 0 0 0 7.207-5.087h3.02zm18.549-22.947c0 4.134-1.59 6.148-4.875 6.148s-4.928-2.014-4.928-6.147v-6.571c0-4.187 1.59-6.2 4.928-6.2 3.285 0 4.875 2.013 4.875 6.2zm-6.624.53c0 2.12.424 2.81 1.749 2.81 1.272 0 1.696-.69 1.696-2.81v-7.683c0-2.12-.424-2.809-1.696-2.809-1.325 0-1.749.689-1.749 2.809zm18.23-12.93-14.626 35.347h-2.915l14.626-35.346zm3.869 29.518c0 4.187-1.59 6.2-4.876 6.2-3.338 0-4.928-2.013-4.928-6.2v-6.571c0-4.134 1.59-6.148 4.928-6.148 3.286 0 4.876 2.014 4.876 6.148zm-6.624.583c0 2.12.423 2.809 1.748 2.809 1.272 0 1.696-.69 1.696-2.81v-7.683c0-2.12-.424-2.81-1.696-2.81-1.325 0-1.748.69-1.748 2.81zm42.028 5.246h-5.14v-27.027h-5.087v-3.232a20.624 20.624 0 0 0 7.207-5.087h3.02zm7.898-8.956v-5.511l10.44-20.88h5.618v21.622h3.974v4.77h-3.974v8.955h-5.14v-8.956zm10.917-17.753-6.147 12.984h6.147zm21.465 3.762c0 4.134-1.59 6.148-4.876 6.148s-4.929-2.014-4.929-6.147v-6.571c0-4.187 1.59-6.2 4.93-6.2 3.284 0 4.874 2.013 4.874 6.2zm-6.625.53c0 2.12.424 2.81 1.75 2.81 1.27 0 1.694-.69 1.694-2.81v-7.683c0-2.12-.423-2.809-1.695-2.809-1.325 0-1.749.689-1.749 2.809zm18.23-12.93-14.626 35.347h-2.915l14.627-35.346zm3.869 29.518c0 4.187-1.59 6.2-4.876 6.2-3.34 0-4.928-2.013-4.928-6.2v-6.571c0-4.134 1.589-6.148 4.928-6.148 3.286 0 4.876 2.014 4.876 6.148zm-6.625.583c0 2.12.424 2.809 1.749 2.809 1.272 0 1.696-.69 1.696-2.81v-7.683c0-2.12-.424-2.81-1.696-2.81-1.325 0-1.75.69-1.75 2.81z" fill="#bf1e6c"/><path d="m75.898 307.71v3.675h-2.898v-3.674h-6.898v-1.55l7.423-9.897h2.374v9.322h2.725v2.125zm-2.898-7.571-4.074 5.448h4.074zm11.875 3.347a3.744 3.744 0 1 1 3.499-3.748 3.52 3.52 0 0 1 -3.499 3.748zm0-5.924c-.85 0-1.475.625-1.475 2.176 0 1.574.625 2.2 1.475 2.2s1.5-.626 1.5-2.2c0-1.55-.65-2.176-1.5-2.176zm-.3 14.272-.975-.5 9.573-15.396 1 .5zm8.323-.15a3.745 3.745 0 1 1 3.499-3.749 3.52 3.52 0 0 1 -3.499 3.75zm0-5.922c-.85 0-1.475.624-1.475 2.173 0 1.575.625 2.2 1.475 2.2s1.5-.625 1.5-2.2c0-1.55-.65-2.173-1.5-2.173z" fill="#c4226e"/><path d="m109.7 311.385h-3.376v-9.604h3.377c3.841 0 5.458 2.16 5.458 4.802s-1.617 4.802-5.458 4.802zm-.095-8.036h-1.329v6.467h1.329c2.625 0 3.553-1.312 3.553-3.233s-.928-3.234-3.553-3.234zm7.823 8.036v-9.604h1.952v9.604zm8.065 0h-3.377v-9.604h3.377c3.841 0 5.458 2.16 5.458 4.802s-1.617 4.802-5.458 4.802zm-.096-8.036h-1.329v6.467h1.329c2.625 0 3.553-1.312 3.553-3.233s-.928-3.234-3.553-3.234zm14.593 8.036-5.026-6.338v6.338h-1.744v-9.604h1.36l5.026 6.338v-6.338h1.745v9.604zm4.349-5.682-.288-.48a1.753 1.753 0 0 0 .896-1.633h-.864v-1.809h1.809v1.52a2.353 2.353 0 0 1 -1.553 2.402zm9.234-2.403v8.085h-1.953v-8.085h-3.249v-1.52h8.451v1.52zm15.313 8.085-.977-2.37h-3.89l-.976 2.37h-1.889l4.082-9.604h1.52l4.082 9.604zm-2.913-7.22-1.425 3.49h2.833zm13.472 7.22-5.026-6.338v6.338h-1.744v-9.604h1.36l5.027 6.338v-6.338h1.744v9.604zm6.959.191a5.14 5.14 0 0 1 -3.409-1.2l.448-1.536a4.34 4.34 0 0 0 2.961 1.297c.96 0 1.697-.48 1.697-1.33 0-.8-.449-1.215-2.017-1.6-2.017-.496-2.817-1.568-2.817-2.945 0-1.569 1.249-2.706 3.313-2.706a4.868 4.868 0 0 1 2.882.945l-.417 1.36a4.84 4.84 0 0 0 -2.48-.832c-.945 0-1.505.416-1.505 1.105 0 .56.335.993 1.648 1.312 2.241.56 3.201 1.505 3.201 3.17 0 2.065-1.696 2.96-3.505 2.96zm14.866-.191h-1.424l-1.905-5.746a5.103 5.103 0 0 1 -.192-.737c-.016.016-.145.544-.208.737l-1.905 5.746h-1.424l-3.298-9.604h1.937l1.937 6.034c.064.208.176.832.191.897l.24-.897 1.858-6.034h1.392l1.873 6.034c.064.224.224.897.224.897a8.536 8.536 0 0 1 .192-.897l1.92-6.034h1.874zm5.117 0v-9.604h6.259v1.52h-4.307v2.257h3.506v1.521h-3.506v2.785h4.307v1.52zm16.675 0h-2.145l-2.657-3.827h-1.201v3.827h-1.953v-9.604h3.778c2.272 0 3.249 1.344 3.249 2.897a2.619 2.619 0 0 1 -1.921 2.673zm-6.003-5.203h1.504c1.217 0 1.649-.64 1.649-1.489 0-.863-.432-1.52-1.649-1.52h-1.504z" fill="#9ea0a0"/></g></svg>