<svg viewBox="0 0 500 409.5" xmlns="http://www.w3.org/2000/svg" xmlns:xlink="http://www.w3.org/1999/xlink"><linearGradient id="a" gradientTransform="matrix(1 0 0 -1 0 412)" gradientUnits="userSpaceOnUse" x1="97.434" x2="406.221" y1="278.094" y2="278.094"><stop offset="0" stop-color="#2a59a2"/><stop offset="1" stop-color="#2a59a2"/></linearGradient><linearGradient id="b" gradientTransform="matrix(1 0 0 -1 0 412)" gradientUnits="userSpaceOnUse" x1="84.966" x2="411.57" y1="330.815" y2="330.815"><stop offset="0" stop-color="#91d3f2"/><stop offset=".266" stop-color="#6fb2de"/><stop offset=".521" stop-color="#5598ce"/><stop offset=".673" stop-color="#4b8fc8"/></linearGradient><linearGradient id="c" gradientTransform="matrix(1 0 0 -1 0 412)" gradientUnits="userSpaceOnUse" x1="97.459" x2="408.5" y1="206.209" y2="206.209"><stop offset="0" stop-color="#2c9ec7"/><stop offset=".404" stop-color="#2c63a5"/><stop offset="1" stop-color="#395da1"/></linearGradient><linearGradient id="d" gradientTransform="matrix(1 0 0 -1 0 412)" gradientUnits="userSpaceOnUse" x1="97.454" x2="408.495" y1="271.468" y2="271.468"><stop offset="0" stop-color="#4faac4"/><stop offset=".002" stop-color="#2f75b1"/><stop offset="1" stop-color="#356eac"/></linearGradient><linearGradient id="e" gradientTransform="matrix(1 0 0 -1 0 412)" gradientUnits="userSpaceOnUse" x1="208.954" x2="410.283" y1="319.619" y2="319.619"><stop offset="0" stop-color="#4faac4"/><stop offset=".002" stop-color="#2f81b6"/><stop offset="1" stop-color="#3b5ea9"/></linearGradient><linearGradient id="f" gradientTransform="matrix(1 0 0 -1 0 412)" gradientUnits="userSpaceOnUse" x1="208.946" x2="410.276" y1="242.54" y2="242.54"><stop offset="0" stop-color="#4faac4"/><stop offset=".002" stop-color="#1e3773"/><stop offset="1" stop-color="#203370"/></linearGradient><linearGradient id="g" gradientTransform="matrix(1 0 0 -1 0 412)" gradientUnits="userSpaceOnUse" x1="339.247" x2="339.247" y1="225.725" y2="336.125"><stop offset="0" stop-color="#4faac4"/><stop offset=".002" stop-color="#2c5a9a"/><stop offset="1" stop-color="#374580"/></linearGradient><linearGradient id="h" gradientTransform="matrix(1 0 0 -1 0 412)" gradientUnits="userSpaceOnUse" x1="63.877" x2="292.987" y1="239.146" y2="239.146"><stop offset=".112" stop-color="#38b1da"/><stop offset="1" stop-color="#326fb5"/></linearGradient><path d="m404.574 115.322h-5.513c-10.03-.125-29.265.948-46.704 16.016-41.639 36.05-51.144 89.116-122.397 117.757-59.352 23.85-132.526 1.272-132.526 1.272s65.29-4.54 73.947-54.362c6.761-38.97-28.69-66.637-50.944-101.79-22.629-35.8-28.442-65.54-17.54-78.388 30.913-36.5 116.037 62.173 158.3 75.47 41.364 12.997 69.281-17.19 103.536-12.75 10.927 1.398 16.266 6.113 19.809 12.126 1.197 2.02 4.141 8.906 6.76 11.45 2.57 2.496 5.988 4.342 9.182 6.213 4.066 2.395 8.083 6.986 4.091 6.986z" fill="url(#a)"/><path d="m208.954 58.24c-10.23-7.784-20.782-15.942-31.16-23.377a520.309 520.309 0 0 0 -7.011-4.915c-27.818-19.036-53.615-30.96-67.885-14.12-10.903 12.848-5.09 42.586 17.564 78.387.224.374.474.724.698 1.098 11.8 18.262 46.03 61.049 127.162 59.227 5.34-5.663 13.447-16.366 23.926-28.017-16.99-27.468-42.587-51.418-63.294-68.283z" fill="url(#b)"/><path d="m290.735 187.323a96.887 96.887 0 0 0 -6.113-35.776 286.623 286.623 0 0 1 -36.3 2.994c-9.93 10.553-32.607 38.744-70.18 64.142-50.021 33.83-80.683 31.684-80.683 31.684s73.199 22.579 132.526-1.272c21.281-8.557 37.073-19.285 49.847-31.11 2.096-1.997 10.454-12.425 10.903-30.662z" fill="url(#c)"/><path d="m272.273 126.523c-10.479 11.626-18.612 22.354-23.926 28.017a285.827 285.827 0 0 0 36.3-2.993 114.243 114.243 0 0 0 -4.29-10.254 157.823 157.823 0 0 0 -8.084-14.77z" fill="url(#d)"/><path d="m333.097 82.39c-21.905 6.636-43.784 17.738-71.901 8.906-13.922-4.366-32.508-18.013-52.242-33.056 20.707 16.865 46.304 40.79 63.319 68.283 15.518-17.19 36.225-36.4 60.824-44.133z" fill="url(#e)"/><path d="m284.647 151.547a96.887 96.887 0 0 1 6.113 35.776c-.474 18.212-8.832 28.64-10.928 30.661 29.963-27.717 43.36-61.373 72.55-86.646a64.376 64.376 0 0 1 16.491-10.403h-.025c-19.135 8.033-39.892 23.925-84.2 30.612z" fill="url(#f)"/><path d="m404.574 115.322c3.992 0-.025-4.59-4.066-6.961-3.194-1.896-6.612-3.742-9.181-6.212-2.645-2.545-5.589-9.456-6.761-11.452-3.568-6.037-8.882-10.727-19.81-12.124-10.977-1.423-21.305.723-31.634 3.842-24.6 7.734-45.331 26.944-60.85 44.133a151.882 151.882 0 0 1 8.084 14.745c1.597 3.393 3.044 6.81 4.291 10.254 44.333-6.687 65.066-22.579 84.201-30.612h.025a72.352 72.352 0 0 1 30.213-5.613z" fill="url(#g)"/><path d="m178.142 218.683c37.573-25.398 60.25-53.59 70.18-64.143-81.132 1.822-115.361-40.965-127.162-59.227 22.28 34.653 56.932 62.146 50.246 100.692-8.657 49.822-73.947 54.362-73.947 54.362s30.662 2.146 80.683-31.684z" fill="url(#h)"/><ellipse cx="362.486" cy="97.134" fill="#fff" rx="6.487" ry="6.437"/><path d="m235.648 324.315a33.082 33.082 0 0 0 -33.18 32.931v9.78a33.098 33.098 0 0 0 33.18 32.932h21.107v-11.95h-21.107a21.104 21.104 0 0 1 -21.106-19.884h43.36a10.935 10.935 0 0 0 10.953-10.878 33.104 33.104 0 0 0 -33.207-32.931zm-21.106 31.859a21.144 21.144 0 0 1 42.213 0zm-174.838-48.226a25.484 25.484 0 0 0 -7.285 17.814v1.596h-6.961v11.95h6.96v60.625h12.05v-60.623h16.217v-11.95h-16.215v-1.597c0-7.31 5.987-13.498 13.098-13.498h8.906v-11.975h-8.906a24.82 24.82 0 0 0 -17.863 7.66zm45.705-7.734h12.05v99.769h-12.05zm85.224 68.983a18.961 18.961 0 0 1 -37.922 0v-44.882h-12.05v44.882a31.012 31.012 0 0 0 62.022 0v-44.882h-12.05zm141.333-44.882a30.926 30.926 0 0 0 -31.011 30.76v44.883h12.05v-44.882a18.961 18.961 0 0 1 37.922 0v44.882h12.05v-44.882a30.926 30.926 0 0 0 -31.011-30.761zm65.888 50.195v-38.22h16.317v-11.975h-16.317v-24.1h-12.05v24.1h-10.702v11.95h10.702v38.22a25.086 25.086 0 0 0 25.148 24.974h5.34v-11.975h-5.34a13.022 13.022 0 0 1 -13.098-12.973zm78.638-74.296v30.562a31.046 31.046 0 0 0 -49.972 24.325v14.12a31.012 31.012 0 0 0 62.022 0v-69.007zm0 61.598v7.385a18.961 18.961 0 0 1 -37.922 0v-14.121a18.961 18.961 0 0 1 37.922 0z" fill="#191d1e"/></svg>