<svg xmlns="http://www.w3.org/2000/svg" width="400" height="245"><defs><clipPath id="a"><path d="M297 782.84l2574-.043.01 398.159-2574 .044z"/></clipPath></defs><path fill="none" pointer-events="none" d="M0 0h400v245H0z"/><g clip-path="url(#a)" transform="matrix(.71324 0 0 -.71324 113.917 245)"><path d="M117.019 326.912s12.063-64.528-2.124-189.263c35.67 2.118 73.247 1.657 83.996-8.248 0 0-13.67 132.177-84.25 214.102 0 0 1.489-5.977 2.378-16.594z" fill="#0b8bb3"/><path d="M197.031 124.963s-23.604 20.516-155.565.088c0 0 69.058 5.878 105.677 4.053 30.608-1.527 47.111-7.298 49.548-15.364 0 0 7.23 6.19.34 11.223" fill="#0b8bb3"/><path d="M116.602 285.643l.005.89-.436-.852c-4.645-40.114-22.57-97.685-74.79-156.325 0 0 32.008 5.479 66.874 7.867 1.91 13.168 10.35 76.272 8.347 148.42" fill="#9acce8"/><path d="M30.2 56.928l-8.065 21.817L14.8 56.928zM1.692 35.294l20.17 58.117h.731l22-58.117h-6.6L31.67 51.98H13.52L8.017 35.294zm48.172 57.107h5.042l14.118-27.956 14.39 28.05h4.855v-57.2H82.22v43.082L69.847 55.371h-2.475l-11.55 22.731V35.294h-5.958zm49.042-57.107V92.4h7.424c0-.426-.136-.914-.412-1.464a3.66 3.66 0 0 1-.412-1.65V35.294zm17.233 57.107h7.06c.06-.062.09-.15.09-.274 0-.184-.075-.428-.23-.73-.15-.31-.257-.705-.318-1.196V67.926h22.366v24.475h7.054c.064-.062.092-.15.092-.274 0-.245-.092-.504-.27-.778a2.368 2.368 0 0 1-.367-.962V35.205h-6.603v27.407H122.74V35.294h-6.602zm68.979-35.473l-8.068 21.817-7.33-21.817zM156.61 35.294l20.167 58.117h.736l21.996-58.117h-6.6l-6.323 16.686h-18.153l-5.497-16.686zm47.162 0V92.4h6.235l24.013-42.347v42.44h6.786c0-.367-.11-.764-.322-1.192a2.797 2.797 0 0 1-.32-1.282V35.294h-5.04l-25.21 44.915V35.294z" fill="#0b8bb3"/></g><g clip-path="url(#a)" transform="matrix(.71324 0 0 -.71324 113.917 245)"><path d="M117.019 326.912s12.063-64.528-2.124-189.263c35.67 2.118 73.247 1.657 83.996-8.248 0 0-13.67 132.177-84.25 214.102 0 0 1.489-5.977 2.378-16.594z" fill="#0b8bb3"/><path d="M197.031 124.963s-23.604 20.516-155.565.088c0 0 69.058 5.878 105.677 4.053 30.608-1.527 47.111-7.298 49.548-15.364 0 0 7.23 6.19.34 11.223" fill="#0b8bb3"/><path d="M116.602 285.643l.005.89-.436-.852c-4.645-40.114-22.57-97.685-74.79-156.325 0 0 32.008 5.479 66.874 7.867 1.91 13.168 10.35 76.272 8.347 148.42" fill="#9acce8"/><path d="M30.2 56.928l-8.065 21.817L14.8 56.928zM1.692 35.294l20.17 58.117h.731l22-58.117h-6.6L31.67 51.98H13.52L8.017 35.294zm48.172 57.107h5.042l14.118-27.956 14.39 28.05h4.855v-57.2H82.22v43.082L69.847 55.371h-2.475l-11.55 22.731V35.294h-5.958zm49.042-57.107V92.4h7.424c0-.426-.136-.914-.412-1.464a3.66 3.66 0 0 1-.412-1.65V35.294zm17.233 57.107h7.06c.06-.062.09-.15.09-.274 0-.184-.075-.428-.23-.73-.15-.31-.257-.705-.318-1.196V67.926h22.366v24.475h7.054c.064-.062.092-.15.092-.274 0-.245-.092-.504-.27-.778a2.368 2.368 0 0 1-.367-.962V35.205h-6.603v27.407H122.74V35.294h-6.602zm68.979-35.473l-8.068 21.817-7.33-21.817zM156.61 35.294l20.167 58.117h.736l21.996-58.117h-6.6l-6.323 16.686h-18.153l-5.497-16.686zm47.162 0V92.4h6.235l24.013-42.347v42.44h6.786c0-.367-.11-.764-.322-1.192a2.797 2.797 0 0 1-.32-1.282V35.294h-5.04l-25.21 44.915V35.294z" fill="#0b8bb3"/></g><g clip-path="url(#a)" transform="matrix(.41157 0 0 -.41157 26.751 245)"><path d="M300.764 305.537c0 12.702-6.938 21.309-18.91 21.309H269.45v-42.41h13.373c11.435 0 17.94 8.506 17.94 21.1m20.168.21c0-21.937-14.92-36.844-39.401-36.844h-31.82v73.586h32.573c23.946 0 38.648-14.907 38.648-36.742m61.406 36.741l-.108-15.326h-36.672v-16.374h33.866v-15.326h-33.866v-26.558h-19.738v73.584zm22.613-36.845c0-11.967 9.598-21.204 20.815-21.204 11.327 0 20.386 9.237 20.386 21.204s-9.059 20.994-20.386 20.994c-11.323 0-20.815-9.027-20.815-20.994m61.477.104c0-21.518-17.47-37.683-40.876-37.683-23.405 0-40.877 16.165-40.877 37.683 0 21.416 17.472 37.266 40.877 37.266 23.406 0 40.876-15.956 40.876-37.266m24.622 36.741v-57.209h32.034v-16.375h-51.771v73.584zm86.718-73.584l-19.631 28.447-9.707-10.497v-17.95h-19.74v73.583h19.74v-30.86l28.366 30.86h22.866l-28.042-30.44 29.768-43.143z" fill="#808184" fill-rule="evenodd"/><path d="M633.85 327.686c-4.746 0-7.874-1.678-7.874-5.038 0-12.177 39.799-5.248 39.799-31.7 0-15.012-13.59-22.675-30.417-22.675-9.101 0-19.132 2.683-27.054 6.708-3.061 1.558-5.257 3.03-7.784 5.049l7.659 15.01c7.766-6.508 19.522-11.126 27.397-11.126 5.824 0 9.49 2.099 9.49 5.983 0 12.49-39.798 4.934-39.798 30.966 0 13.752 11.97 22.465 30.198 22.465 11.109 0 22.326-3.36 30.199-8.294l-7.442-15.221c-7.98 4.41-18.12 7.873-24.373 7.873m53.709-50.49c0-5.354-3.881-9.133-9.274-9.133-5.393 0-9.167 3.779-9.167 9.133 0 5.354 3.774 9.027 9.167 9.027s9.274-3.673 9.274-9.027" fill="#808184" fill-rule="evenodd"/><path d="M222.448 288.783v11.536h-17.926c-6.965 0-10.445-2.44-10.445-7.59 0-5.013 3.759-8.27 10.166-8.27 8.743 0 12.502-1.227 18.205 4.324m-41.673 49.372c9.574 3.588 19.62 5.26 29.872 5.26 20.748 0 32.865-9.758 33.003-26.564v-47.705h-21.202s-16.671-.243-26.837-.243c-9.693 0-23.205 8.648-23.205 22.064 0 13.96 8.583 21.954 27.242 22.227h22.8v.81c0 9.624-8.04 10.98-17.51 10.98-6.264 0-16.065-2.034-24.14-5.828z" fill="#119981" fill-rule="evenodd"/><path d="M155.316 339.323h6.321v-1.181h-2.482v-6.628h-1.367v6.628h-2.472zm8.301 0h1.925l2.155-6.113h.022l2.1 6.113h1.902v-7.809h-1.3v6.026h-.023l-2.166-6.026h-1.126l-2.165 6.026h-.022v-6.026h-1.302z" fill="#808184"/></g><g transform="translate(0 40.519) scale(2.74464)"><path class="cls-1" d="M135.305 27.766h-5.721V5.216h5.385v2.525a5.416 5.416 0 0 1 4.543-3.029c3.703-.168 6.227 2.02 6.227 6.731v16.323h-5.89V10.77c0-2.019 0-3.702-1.346-4.038a2.446 2.446 0 0 0-2.02.504 4.502 4.502 0 0 0-1.178 3.534v16.996zM38.04 6.732a7.578 7.578 0 0 0-5.049-2.02 7.929 7.929 0 0 0-5.048 2.02c-2.356 2.02-3.87 5.72-3.87 9.76 0 4.206 1.514 7.74 3.87 9.76a7.93 7.93 0 0 0 5.048 2.019 7.58 7.58 0 0 0 5.049-2.02c2.524-2.02 3.87-5.553 3.87-9.76 0-4.038-1.346-7.74-3.87-9.76zm-2.188 9.76c0 4.206 0 7.572-.673 9.255a2.254 2.254 0 0 1-2.188 1.346 2.03 2.03 0 0 1-2.019-1.346c-.841-1.683-.841-5.049-.841-9.255 0-4.04 0-7.573.841-9.256a2.03 2.03 0 0 1 2.02-1.346 2.254 2.254 0 0 1 2.187 1.346c.842 1.683.673 5.217.673 9.256zM96.77 36.348v6.058h-1.178c-.673-2.523-1.683-4.71-4.376-4.88a2.921 2.921 0 0 0-3.365 2.357c-.168 1.514.336 2.86 3.365 4.543 3.87 2.188 6.9 3.197 6.9 7.74 0 4.881-4.207 7.237-7.74 7.237h-6.732V50.99h1.178c.841 4.375 2.187 7.068 5.385 7.236a3.225 3.225 0 0 0 3.533-3.366c0-2.187-1.346-3.533-4.543-5.385-3.534-2.187-5.721-3.534-5.721-6.563 0-4.039 2.86-6.563 7.403-6.563zm7.404-8.582V11.443c0-4.711-2.524-6.9-6.227-6.731a5.684 5.684 0 0 0-4.712 3.197c-.841-2.356-2.692-3.365-5.384-3.197a5.417 5.417 0 0 0-4.544 3.029V5.217h-5.216v22.55h5.721V10.77c0-1.683.168-2.692 1.178-3.534a2.111 2.111 0 0 1 1.85-.504c1.347.336 1.347 2.02 1.347 4.038v16.996h5.722V10.602a4.34 4.34 0 0 1 1.178-3.366 2.11 2.11 0 0 1 1.85-.504c1.347.336 1.515 2.02 1.515 4.038v16.996zM45.781.505h5.89v27.261h-5.89V.505zm26.757 27.261V.506h-5.89V6.9a3.464 3.464 0 0 0-3.366-2.02c-4.207 0-7.573 4.375-7.741 11.107-.168 4.543 1.346 12.116 7.236 12.116a4.38 4.38 0 0 0 4.207-2.524v2.187zm-6.9-20.698c1.178 1.683 1.178 5.721 1.178 8.919 0 3.365.168 7.74-1.178 9.592a2.111 2.111 0 0 1-1.851 1.01c-1.178 0-1.851-1.347-2.188-3.535-.168-2.019-.168-4.543-.168-7.235 0-4.544.336-9.593 2.524-9.593a2.071 2.071 0 0 1 1.683.842zm56.037-1.178c1.515.842 2.524 2.188 2.524 5.217v16.66h-5.553v-2.525c-.673 1.851-2.524 3.029-5.049 3.029-2.02 0-5.553-1.01-5.553-6.226 0-4.88 3.198-5.89 6.732-7.405 3.197-1.345 3.533-1.514 3.533-2.86V8.078c0-1.515-.84-2.188-2.524-2.188-.672.168-1.85.505-1.85 1.346-.17 1.01 1.008 1.01 1.178 2.524.167 2.357-1.684 3.198-3.366 3.03a2.59 2.59 0 0 1-2.693-2.525c-.168-3.03 3.197-5.553 7.909-5.553a8.787 8.787 0 0 1 4.712 1.178zm-3.366 8.414l-1.85 1.178a5.096 5.096 0 0 0-2.357 4.376 20.312 20.312 0 0 0 0 4.543c.168 1.85 1.347 2.187 2.356 1.85 1.179-.504 1.851-2.691 1.851-5.048v-6.899zM38.376 37.359c1.515 1.01 2.357 2.187 2.357 5.216v16.828h-5.385V56.88c-.674 1.683-2.524 2.86-5.05 2.86-2.187 0-5.553-.841-5.553-6.057 0-4.88 3.198-5.89 6.564-7.405 3.365-1.515 3.702-1.683 3.702-2.86v-3.703c0-1.682-.842-2.355-2.524-2.188-.674 0-1.851.337-1.851 1.178-.169 1.179 1.01 1.179 1.177 2.693.17 2.188-1.682 3.029-3.365 3.029a2.879 2.879 0 0 1-2.693-2.693c-.168-2.86 3.198-5.385 7.91-5.385a8.913 8.913 0 0 1 4.711 1.01zm-3.365 8.413l-1.85 1.178c-1.852 1.178-2.189 2.693-2.357 4.375a20.39 20.39 0 0 0 0 4.544c0 2.02 1.178 2.356 2.187 1.851 1.347-.505 2.02-2.524 2.02-5.048v-6.9zM79.1 43.08c0-4.712-2.524-7.068-6.226-6.732a5.74 5.74 0 0 0-4.207 2.188v-6.562h-5.722v15.481c0 5.722-4.038 11.107-8.077 10.938-2.86 0-3.534-2.187-3.87-4.543a51.155 51.155 0 0 1-.169-11.444c.337-2.692 1.01-4.88 3.03-4.88 1.514 0 1.682 1.01 1.01 1.683-.675.842-1.684 1.683-1.179 3.534.504 2.02 3.702 2.356 5.217.842a4.317 4.317 0 0 0 .168-4.88c-1.01-1.683-2.692-2.357-5.217-2.357-3.197 0-9.255 2.861-9.255 11.949 0 9.76 6.226 11.442 9.76 11.442 4.039 0 7.573-3.533 8.582-6.395v6.06h5.722V42.405a4.503 4.503 0 0 1 1.177-3.534 2.446 2.446 0 0 1 2.02-.504c1.347.336 1.347 2.02 1.347 4.038v16.997h5.89V43.08zM20.202 0v9.592h-1.178c-1.01-4.712-3.197-8.246-6.226-8.414-2.02-.168-3.197 1.01-4.207 2.693-1.01 2.02-1.515 6.226-1.515 11.274a59.38 59.38 0 0 0 .673 10.77c.337 1.178 1.179 3.03 3.366 3.03a2.953 2.953 0 0 0 2.524-1.01c.842-1.01 1.01-3.03 1.01-4.375v-4.544c0-1.683-.504-2.693-1.346-3.197a13.25 13.25 0 0 0-2.188-.506v-1.178h9.424V38.2H19.36a19.427 19.427 0 0 0-1.682-4.712 5.57 5.57 0 0 0-4.88-3.197c-2.693-.169-4.712 1.514-4.712 4.038 0 3.366 2.02 4.207 5.721 6.226 3.535 2.02 8.078 3.703 8.078 9.592 0 5.722-4.88 9.256-10.433 9.256H2.533V47.792h1.178c1.514 8.75 5.217 10.265 7.741 10.265 3.197 0 4.711-2.02 4.711-4.88-.168-3.703-2.692-5.049-6.226-6.9-5.048-2.86-7.404-4.207-7.404-8.918.168-4.04 3.366-6.564 6.9-7.573-7.405-.841-9.592-7.572-9.424-14.81C.009 7.742 4.216 0 12.46 0z" fill="#6994c3" fill-rule="evenodd"/></g></svg>