<svg xmlns="http://www.w3.org/2000/svg" width="400" height="245"><path fill="none" pointer-events="none" d="M0 0h400v245H0z"/><path fill="#EA4335" d="M218.255 34.756h4.11l11.714-11.714.575-4.973C212.853-1.174 179.58.9 160.337 22.7a52.665 52.665 0 0 0-11.34 21.056 6.372 6.372 0 0 1 4.11-.246l23.429-3.864s1.191-1.973 1.809-1.85c10.42-11.445 27.96-12.78 39.991-3.042h-.08z"/><path fill="#4285F4" d="M250.768 43.757a52.781 52.781 0 0 0-15.906-25.647l-16.441 16.44a29.222 29.222 0 0 1 10.727 23.182v2.918c8.083 0 14.632 6.551 14.632 14.633s-6.55 14.633-14.632 14.633h-29.264l-2.92 2.96v17.55l2.92 2.919h29.264c21.021.162 38.192-16.744 38.356-37.765a38.06 38.06 0 0 0-16.736-31.823z"/><path fill="#34A853" d="M170.576 113.18h29.266V89.752h-29.266c-2.084 0-4.144-.45-6.042-1.316l-4.109 1.275-11.797 11.712-1.027 4.112a37.861 37.861 0 0 0 22.975 7.645z"/><path fill="#FBBC05" d="M170.576 37.18c-21.02.126-37.957 17.269-37.832 38.289a38.053 38.053 0 0 0 14.857 29.94l16.974-16.974c-7.364-3.327-10.636-11.994-7.308-19.36 3.327-7.364 11.993-10.637 19.359-7.31a14.631 14.631 0 0 1 7.31 7.31L200.909 52.1a38.018 38.018 0 0 0-30.333-14.92z"/><path d="M39.243 225.058a25.294 25.294 0 0 1-18.328-7.526 24.43 24.43 0 0 1-7.692-18.104 24.463 24.463 0 0 1 7.692-18.107 25.301 25.301 0 0 1 18.328-7.665 24.556 24.556 0 0 1 17.578 7.082l-4.942 5.027a17.805 17.805 0 0 0-12.635-5 17.606 17.606 0 0 0-13.052 5.555 18.134 18.134 0 0 0-5.36 13.19 18.132 18.132 0 0 0 5.36 13.024c7.151 7.126 18.677 7.262 25.994.305a14.778 14.778 0 0 0 3.804-8.636H39.327v-7.11h23.577a22.62 22.62 0 0 1 .277 4.333 22.223 22.223 0 0 1-6.081 16.385 23.635 23.635 0 0 1-17.857 7.247zm54.817-4.72c-6.573 6.302-16.947 6.302-23.52 0a15.832 15.832 0 0 1-4.805-11.802 15.854 15.854 0 0 1 4.805-11.802c6.58-6.288 16.941-6.288 23.52 0a15.854 15.854 0 0 1 4.805 11.802 15.828 15.828 0 0 1-4.832 11.802h.027zM75.733 215.7a8.998 8.998 0 0 0 13.135 0 9.887 9.887 0 0 0 2.777-7.164 9.915 9.915 0 0 0-2.777-7.193c-3.492-3.642-9.275-3.765-12.917-.273a9.916 9.916 0 0 0-3.05 7.466 9.882 9.882 0 0 0 2.804 7.164h.028zm54.485 4.638c-6.575 6.302-16.947 6.302-23.522 0a15.829 15.829 0 0 1-4.804-11.802 15.85 15.85 0 0 1 4.804-11.802c6.575-6.303 16.947-6.303 23.522 0a15.853 15.853 0 0 1 4.804 11.802 15.836 15.836 0 0 1-4.804 11.802zm-18.33-4.638c3.398 3.627 9.092 3.814 12.718.418a8.24 8.24 0 0 0 .418-.418 9.89 9.89 0 0 0 2.778-7.164 9.912 9.912 0 0 0-2.778-7.193 9.137 9.137 0 0 0-12.918-.273 9.916 9.916 0 0 0-3.05 7.466 9.888 9.888 0 0 0 2.805 7.164h.028zm42.1 24.187a14.548 14.548 0 0 1-9.248-2.942 17.039 17.039 0 0 1-5.387-6.832l6.332-2.637a10.675 10.675 0 0 0 3.137 4.136 7.912 7.912 0 0 0 5.193 1.75 8.33 8.33 0 0 0 6.47-2.499 10.139 10.139 0 0 0 2.306-7.22v-2.388h-.25a10.58 10.58 0 0 1-8.692 3.75 15.072 15.072 0 0 1-11.108-4.833 15.97 15.97 0 0 1-4.75-11.635 16.135 16.135 0 0 1 4.75-11.72 15.05 15.05 0 0 1 11.108-4.859 11.924 11.924 0 0 1 5.11 1.139 10.264 10.264 0 0 1 3.61 2.638h.25v-2.638h6.886v29.575a17.241 17.241 0 0 1-4.416 12.913 15.552 15.552 0 0 1-11.301 4.302zm.5-21.326c2.4.052 4.7-.965 6.276-2.778a10.27 10.27 0 0 0 2.527-7.108 10.5 10.5 0 0 0-2.527-7.249 8.056 8.056 0 0 0-6.276-2.777 8.583 8.583 0 0 0-6.498 2.777 10.134 10.134 0 0 0-2.778 7.192 9.94 9.94 0 0 0 2.778 7.11 8.61 8.61 0 0 0 6.498 2.833zm27.464-43.044v48.542h-7.248v-48.542h7.248zm19.884 49.541a15.773 15.773 0 0 1-11.692-4.747 16.084 16.084 0 0 1-4.693-11.775 16.28 16.28 0 0 1 4.526-11.886 14.89 14.89 0 0 1 11.108-4.638c1.905-.02 3.795.35 5.553 1.084a13.073 13.073 0 0 1 4.25 2.776 19.396 19.396 0 0 1 2.776 3.362 19.832 19.832 0 0 1 1.639 3.248l.75 1.888-22.216 9.137a8.329 8.329 0 0 0 7.998 4.997 9.464 9.464 0 0 0 8.136-4.58l5.553 3.748a18.302 18.302 0 0 1-5.331 5.054 15.103 15.103 0 0 1-8.357 2.332zm-9.276-17.023l14.774-6.137a5.118 5.118 0 0 0-2.305-2.528 7.557 7.557 0 0 0-3.804-.972 8.586 8.586 0 0 0-5.972 2.64 8.803 8.803 0 0 0-2.693 6.997zm61.455 17.023c-12.636.218-23.056-9.848-23.273-22.483a20.41 20.41 0 0 1 .002-.926c-.293-12.635 9.71-23.114 22.344-23.407.31-.007.619-.01.927-.003a20.717 20.717 0 0 1 16.467 7.331l-3.999 3.888a15.109 15.109 0 0 0-12.441-5.692 16.967 16.967 0 0 0-12.358 4.942 17.334 17.334 0 0 0-5.026 12.941 17.33 17.33 0 0 0 5.026 12.94 16.966 16.966 0 0 0 12.358 4.945 17.668 17.668 0 0 0 13.885-6.5l4 4a21.815 21.815 0 0 1-7.693 5.859 23.537 23.537 0 0 1-10.219 2.165zm28.658-.999h-5.748V179.21h5.748v44.848zm9.387-26.993c6.269-6.226 16.39-6.226 22.66 0a16.247 16.247 0 0 1 4.443 11.664 16.249 16.249 0 0 1-4.443 11.663c-6.27 6.227-16.391 6.227-22.66 0a16.25 16.25 0 0 1-4.444-11.663 16.247 16.247 0 0 1 4.443-11.664zm4.275 19.718c3.679 3.887 9.813 4.057 13.702.378.13-.122.255-.249.378-.378a11.12 11.12 0 0 0 2.971-8.054 11.117 11.117 0 0 0-2.971-8.054c-3.679-3.887-9.813-4.056-13.7-.38-.13.124-.257.25-.38.38a11.107 11.107 0 0 0-2.97 8.054 11.1 11.1 0 0 0 2.998 8.024l-.028.03zm54.679 7.275h-5.553v-4.25h-.167a10.689 10.689 0 0 1-4.055 3.833 11.334 11.334 0 0 1-5.692 1.528 10.807 10.807 0 0 1-8.72-3.5 13.881 13.881 0 0 1-2.971-9.387V193.4h5.748v17.829c0 5.719 2.527 8.58 7.58 8.58a7.052 7.052 0 0 0 5.832-2.777 10.471 10.471 0 0 0 2.25-6.637V193.4h5.748v30.658zm19.522.999a13.49 13.49 0 0 1-10.275-4.692 16.664 16.664 0 0 1-4.304-11.636 16.66 16.66 0 0 1 4.304-11.637 13.501 13.501 0 0 1 10.275-4.693 13.05 13.05 0 0 1 6.276 1.5 10.648 10.648 0 0 1 4.166 3.749h.25l-.25-4.248v-14.19h5.748v44.848h-5.554v-4.25h-.25a10.62 10.62 0 0 1-4.166 3.75 13.017 13.017 0 0 1-6.22 1.499zm.945-5.249a9.17 9.17 0 0 0 6.914-2.998 11.248 11.248 0 0 0 2.777-8.081 11.245 11.245 0 0 0-2.777-8.081c-3.488-3.835-9.424-4.114-13.259-.627-.218.2-.427.409-.625.627a11.1 11.1 0 0 0-2.777 8.053 11.101 11.101 0 0 0 2.777 8.053 9.16 9.16 0 0 0 6.97 3.054z" fill="#5F6368"/></svg>