<svg viewBox="-2.97 -2.84 147.68 56.8" xmlns="http://www.w3.org/2000/svg"><g fill="none" fill-rule="evenodd"><path d="m0 0h144v56h-144z" fill="none"/><path d="m32.742 23.083-3.333-2.987c.119-.668.153-1.389.153-2.092s-.034-1.423-.153-2.091l3.333-2.988a.667.667 0 0 0 .204-.79c-.68-2.162-1.854-4.218-3.3-5.923-.203-.246-.492-.334-.765-.21l-4.2 1.51a12.8 12.8 0 0 0 -3.47-2.09l-.833-4.5c-.051-.28-.29-.544-.579-.58a16.055 16.055 0 0 0 -6.598 0c-.29.036-.528.3-.579.58l-.833 4.5c-1.259.51-2.466 1.212-3.47 2.09l-4.2-1.51c-.273-.123-.562-.036-.766.21-1.446 1.705-2.62 3.761-3.3 5.923a.667.667 0 0 0 .204.79l3.334 2.988c-.119.668-.153 1.389-.153 2.091 0 .703.034 1.424.153 2.092l-3.333 2.987a.667.667 0 0 0 -.204.79c.68 2.163 1.854 4.219 3.3 5.923.203.246.493.334.765.211l4.2-1.511c1.004.879 2.212 1.582 3.47 2.091l.833 4.5c.051.28.29.544.579.58 1.088.21 2.176.333 3.3.333 1.122 0 2.21-.123 3.298-.334.29-.035.528-.299.579-.58l.833-4.499a12.792 12.792 0 0 0 3.47-2.091l4.2 1.511c.273.123.562.035.766-.21 1.446-1.705 2.62-3.761 3.3-5.923a.667.667 0 0 0 -.205-.79zm-15.992 6.417c-6.213 0-11.25-5.149-11.25-11.5s5.037-11.5 11.25-11.5 11.25 5.149 11.25 11.5-5.037 11.5-11.25 11.5zm6.063-11.437c.103 0 .187.084.187.187a6.257 6.257 0 0 1 -6.25 6.25 6.257 6.257 0 0 1 -6.25-6.25 6.257 6.257 0 0 1 6.25-6.25c1.272 0 2.497.38 3.542 1.1a.187.187 0 0 1 .048.26l-2.048 2.978a.187.187 0 0 1 -.253.052 2.226 2.226 0 0 0 -1.187-.342 2.24 2.24 0 0 0 -2.237 2.237 2.24 2.24 0 0 0 2.237 2.238 2.246 2.246 0 0 0 1.63-.708l.005-.004a.166.166 0 0 0 0-.222l-.946-1.225a.187.187 0 0 1 .147-.3h5.125zm-6.063 10.437c5.385 0 9.75-4.589 9.75-10.25s-4.365-10.25-9.75-10.25-9.75 4.589-9.75 10.25 4.365 10.25 9.75 10.25z" fill="#1a237e" fill-rule="nonzero"/><path d="m58.78 12.615h-4.191c-.042-1.168-.494-2.15-1.355-2.946s-2.048-1.194-3.56-1.194c-1.744 0-3.062.514-3.955 1.541-.893 1.028-1.34 2.448-1.34 4.261v3.325c0 1.873.431 3.344 1.293 4.412.86 1.068 2.205 1.601 4.033 1.601 1.554 0 2.773-.403 3.655-1.208.882-.806 1.323-1.814 1.323-3.022v-.303h-4.947v-3.445h9.264v2.75c0 2.559-.856 4.634-2.568 6.226-1.712 1.591-3.975 2.387-6.79 2.387-3.13 0-5.52-.886-7.169-2.66-1.649-1.771-2.473-4.048-2.473-6.828v-3.082c0-2.881.845-5.173 2.536-6.875 1.691-1.705 4.028-2.555 7.011-2.555 2.794 0 5.015.71 6.664 2.13 1.65 1.42 2.505 3.25 2.568 5.485zm4.22 14.385v-15.878h3.857v3.084c.459-2.136 2.013-3.206 4.665-3.206h.478v4.122h-.837c-2.731 0-4.097 1.517-4.097 4.55v7.328zm16.182 0c-1.862 0-3.358-.453-4.487-1.36-1.13-.905-1.695-2.14-1.695-3.702 0-1.708.591-2.994 1.773-3.859 1.182-.864 2.788-1.297 4.817-1.297 1.653 0 3.033.459 4.142 1.375v-2.218c0-.771-.256-1.402-.769-1.891-.512-.49-1.197-.735-2.055-.735-1.36 0-2.301.51-2.824 1.532h-3.954c.46-1.563 1.297-2.76 2.51-3.594 1.214-.833 2.71-1.25 4.488-1.25 2.05 0 3.708.573 4.973 1.719 1.266 1.145 1.899 2.655 1.899 4.53v10.375h-4.11v-1.5c-.377.542-1.016.99-1.915 1.344-.9.354-1.83.531-2.793.531zm1.151-3c1 0 1.861-.244 2.584-.733.722-.49 1.083-1.1 1.083-1.834 0-.755-.328-1.35-.983-1.783-.656-.433-1.506-.65-2.55-.65-1.09 0-1.94.211-2.55.633-.611.423-.917 1.034-.917 1.834 0 .777.311 1.394.933 1.85.623.455 1.423.683 2.4.683zm25.667-13-5.353 16h-4.294l-5.353-16h4.113l3.387 11.723 3.387-11.723zm2 16v-16h4v16zm.696-18.696c-.464-.485-.696-1.087-.696-1.804s.237-1.313.712-1.788 1.07-.712 1.788-.712c.717 0 1.313.237 1.788.712s.712 1.07.712 1.788c0 .717-.237 1.313-.712 1.788s-1.07.712-1.788.712c-.717 0-1.319-.232-1.804-.696zm14.167 18.696c-1.511 0-2.65-.407-3.416-1.221-.766-.815-1.149-1.972-1.149-3.474v-8.311h-2.298v-3.49h2.298v-4.504h4.255v4.505h3.447v3.489h-3.447v7.994c0 .55.114.941.341 1.174.228.232.622.349 1.18.349h1.709v3.489zm12.174 5h-4.11l1.594-5.326-5.521-15.674h4.172l3.435 11.287 3.253-11.287h4.14z" fill="#1a237e"/><path d="m12.468 43.3v7.7h-1.474v-4.73l-1.441 2.86h-1.364l-1.441-2.86v4.73h-1.474v-7.7h1.419l2.178 4.4 2.178-4.4zm5.423 0 2.761 7.7h-1.529l-.517-1.617h-2.992l-.517 1.617h-1.529l2.761-7.7zm-.781 1.386-1.111 3.476h2.211zm4.642-1.386h3.124c1.005 0 1.782.279 2.332.836s.825 1.287.825 2.189v1.65c0 .902-.275 1.632-.825 2.189s-1.327.836-2.332.836h-3.124zm4.752 4.686v-1.672c0-.565-.161-1-.484-1.303-.323-.305-.792-.457-1.408-.457h-1.331v5.192h1.331c.616 0 1.085-.152 1.408-.457.323-.304.484-.738.484-1.303zm2.981 3.014v-7.7h5.39v1.276h-3.85v1.881h3.52v1.287h-3.52v1.98h3.861v1.276zm9.218 0v-7.7h3.454c.667 0 1.2.18 1.6.539.4.36.6.829.6 1.408 0 .814-.323 1.404-.968 1.771.418.088.76.288 1.028.6.268.311.402.716.402 1.215 0 .645-.242 1.168-.726 1.568s-1.111.599-1.881.599zm1.496-1.21h1.936c.367 0 .649-.093.847-.28.198-.188.297-.446.297-.776 0-.323-.103-.577-.308-.765-.205-.187-.488-.28-.847-.28h-1.925zm0-3.3h1.617c.315 0 .561-.093.737-.28.176-.188.264-.435.264-.743 0-.293-.09-.526-.27-.698-.18-.173-.427-.259-.742-.259h-1.606zm8.778 1.738v2.772h-1.54v-2.772l-2.64-4.928h1.672l1.738 3.432 1.738-3.432h1.672zm12.32-2.31h-1.463a1.507 1.507 0 0 0 -.473-1.072c-.3-.29-.715-.435-1.243-.435-.609 0-1.069.187-1.38.561-.312.374-.468.891-.468 1.551v1.21c0 .682.15 1.217.451 1.606.3.389.77.583 1.408.583.543 0 .968-.147 1.276-.44s.462-.66.462-1.1v-.11h-1.727v-1.254h3.234v1.001c0 .931-.299 1.687-.897 2.266-.597.58-1.387.869-2.37.869-1.093 0-1.927-.323-2.502-.968-.576-.645-.864-1.474-.864-2.486v-1.122c0-1.049.295-1.883.886-2.503.59-.62 1.406-.929 2.447-.929.975 0 1.75.258 2.327.776.575.517.874 1.182.896 1.996zm6.105 5.082-1.408-2.464h-1.617v2.464h-1.54v-7.7h3.476c.88 0 1.564.242 2.052.726.487.484.731 1.115.731 1.892 0 .543-.134 1.023-.401 1.441-.268.418-.64.73-1.117.935l1.606 2.706zm-3.025-3.707h1.749c.462 0 .816-.126 1.061-.38.246-.253.369-.588.369-1.006s-.123-.748-.368-.99c-.246-.242-.6-.363-1.062-.363h-1.749zm9.977-3.993 2.761 7.7h-1.529l-.517-1.617h-2.992l-.517 1.617h-1.529l2.761-7.7zm-.781 1.386-1.111 3.476h2.211zm9.889-1.386-2.552 7.7h-1.738l-2.552-7.7h1.573l1.848 6.017 1.848-6.017zm1.144 7.7v-7.7h1.54v7.7zm4.906 0v-6.424h-2.178v-1.276h5.896v1.276h-2.178v6.424zm7.865-7.7 2.761 7.7h-1.529l-.517-1.617h-2.992l-.517 1.617h-1.529l2.761-7.7zm-.781 1.386-1.111 3.476h2.211zm5.544 6.314v-6.424h-2.178v-1.276h5.896v1.276h-2.178v6.424zm4.906 0v-7.7h1.54v7.7zm9.922-4.411v1.122c0 1.02-.297 1.848-.891 2.486s-1.441.957-2.541.957c-1.093 0-1.938-.319-2.535-.957-.598-.638-.897-1.467-.897-2.486v-1.122c0-1.02.299-1.848.897-2.486.597-.638 1.442-.957 2.535-.957 1.1 0 1.947.319 2.541.957s.891 1.467.891 2.486zm-4.851 2.728c.323.374.796.561 1.419.561s1.094-.189 1.413-.566c.32-.378.479-.886.479-1.524v-1.276c0-.638-.16-1.146-.478-1.523-.32-.378-.79-.567-1.414-.567-.623 0-1.094.189-1.413.567-.32.377-.479.885-.479 1.523v1.276c0 .638.158 1.148.473 1.529zm6.314 1.683v-7.7h1.463l3.355 5.126v-5.126h1.507v7.7h-1.463l-3.355-5.126v5.126zm11.748-7.7 2.761 7.7h-1.529l-.517-1.617h-2.992l-.517 1.617h-1.529l2.761-7.7zm-.781 1.386-1.111 3.476h2.211zm4.642 6.314v-7.7h1.54v6.424h3.542v1.276z" fill="#475962"/></g></svg>