<svg viewBox="0 0 360 445.14264" xmlns="http://www.w3.org/2000/svg" xmlns:xlink="http://www.w3.org/1999/xlink"><clipPath id="a"><path d="m174.401 302.089-68.654-30.253-3.822 43.201 75.497 23.987z"/></clipPath><linearGradient id="b" gradientTransform="matrix(30.42866 0 0 -30.42866 -7955.215 29272.28)" gradientUnits="userSpaceOnUse" x1="264.788" x2="267.269" y1="951.959" y2="951.959"><stop offset="0" stop-color="#60b932"/><stop offset=".282" stop-color="#60b932"/><stop offset="1" stop-color="#367c34"/></linearGradient><clipPath id="c"><path d="m119.188 134.954h38.554v32.892h-9.15v-14.05a10.128 10.128 0 1 0 -20.255 0v14.05h-9.15zm-7.703 72.04 57.2 25.207-3.944-48.237h7.486v-16.118h-5.554v-32.892h5.554v-9.455l-30.85-30.187v-2.124a2.912 2.912 0 0 0 -5.823 0v2.124l-30.851 30.188v9.455h5.555v32.892h-5.555v16.118h8.82z"/></clipPath><linearGradient id="d" gradientTransform="matrix(27.2148 0 0 -27.2148 -7073.85 26157.32)" x1="263.774" x2="266.255" xlink:href="#b" y1="955.219" y2="955.219"/><clipPath id="e"><path d="m108.135 244.851 63.888 28.156-.959-11.725-61.968-27.305z"/></clipPath><linearGradient id="f" gradientTransform="matrix(25.74947 0 0 -25.74947 -6671.128 24800.762)" x1="263.278" x2="265.759" xlink:href="#b" y1="953.312" y2="953.312"/><clipPath id="g"><path d="m106.46 263.78 67.23 29.629-.956-11.721-65.311-28.781z"/></clipPath><linearGradient id="h" gradientTransform="matrix(27.09707 0 0 -27.09707 -7040.897 26090.446)" x1="263.769" x2="266.25" xlink:href="#b" y1="952.771" y2="952.771"/><clipPath id="i"><path d="m110.773 215.048-.963 10.877 60.544 26.677-.958-11.721z"/></clipPath><linearGradient id="j" gradientTransform="matrix(24.40187 0 0 -24.40187 -6301.36 23511.076)" x1="262.733" x2="265.214" xlink:href="#b" y1="953.913" y2="953.913"/><clipPath id="k"><path d="m313.126 67.16a175.312 175.312 0 0 0 -29.75-28.133 179.67 179.67 0 0 0 -4.788-3.42l-22.558 23.461-82.34 85.632 113.38-58.677 29.07-15.042c-1.006-1.274-1.976-2.577-3.014-3.821z"/></clipPath><linearGradient id="l" gradientTransform="matrix(53.11116307 -39.33319702 -39.33319702 -53.11116307 23273.038073 61554.283984)" gradientUnits="userSpaceOnUse" x1="272.14" x2="274.621" y1="954.718" y2="954.718"><stop offset="0" stop-color="#4596d8"/><stop offset=".2" stop-color="#4596d8"/><stop offset="1" stop-color="#fff"/></linearGradient><clipPath id="m"><path d="m353.588 177.179c-.017-1.99-.136-3.952-.219-5.925l-32.214-2.312-147.465-10.584 144.67 50.191 30.41 10.551c.09-.36.192-.714.278-1.078a173.652 173.652 0 0 0 4.572-39.47c0-.46-.03-.913-.033-1.373z"/></clipPath><linearGradient id="n" gradientTransform="matrix(76.22216648 15.55606985 15.55606985 -76.22216648 -35265.607168 68510.948964)" gradientUnits="userSpaceOnUse" x1="270.651" x2="273.133" y1="951.955" y2="951.955"><stop offset="0" stop-color="#4194d7"/><stop offset=".2" stop-color="#4194d7"/><stop offset="1" stop-color="#fff"/></linearGradient><clipPath id="o"><path d="m348.84 138.18a172.551 172.551 0 0 0 -13.83-37.7l-30.939 9.94-128.148 41.182 141.98-4.834 32.502-1.107c-.483-2.506-.976-5.01-1.564-7.482z"/></clipPath><linearGradient id="p" gradientTransform="matrix(70.22226922 -12.66661518 -12.66661518 -70.22226922 -6776.41399 70529.223289)" gradientUnits="userSpaceOnUse" x1="270.972" x2="273.453" y1="953.318" y2="953.318"><stop offset="0" stop-color="#4194d7"/><stop offset=".333" stop-color="#4496d8"/><stop offset="1" stop-color="#fff"/></linearGradient><path d="m30.888 178.552a148.868 148.868 0 1 1 148.869 148.868 148.868 148.868 0 0 1 -148.869-148.868" fill="#fff"/><g fill="#696566"><path d="m4.566 384.183a3.3 3.3 0 0 1 3.224-3.307 3.316 3.316 0 0 1 3.305 3.307v22.814h33.395v-22.814a3.265 3.265 0 1 1 6.528 0v52.074a3.265 3.265 0 1 1 -6.528 0v-23.144h-33.395v23.144a3.316 3.316 0 0 1 -3.305 3.307 3.3 3.3 0 0 1 -3.224-3.307z"/><path d="m102.188 417.907-13.307-29.59-13.308 29.59zm-40.914 16.946 23.474-51.33a4.266 4.266 0 0 1 4.133-2.894h.331a4.165 4.165 0 0 1 4.05 2.893l23.473 51.246a4.404 4.404 0 0 1 .414 1.654 3.14 3.14 0 0 1 -3.14 3.142 3.564 3.564 0 0 1 -3.224-2.398l-6.033-13.308h-31.742l-6.034 13.474a3.273 3.273 0 0 1 -3.143 2.232 2.964 2.964 0 0 1 -2.975-2.977 3.766 3.766 0 0 1 .415-1.734"/><path d="m151.374 410.798c8.68 0 14.878-4.462 14.878-11.902v-.165c0-7.108-5.454-11.408-14.795-11.408h-17.855v23.475zm-24.3-26.201a3.3 3.3 0 0 1 3.223-3.307h21.654c7.11 0 12.813 2.15 16.45 5.786a15.98 15.98 0 0 1 4.464 11.407v.165c0 9.506-6.447 15.044-15.457 16.78l14.382 18.514a3.556 3.556 0 0 1 1.075 2.398 3.415 3.415 0 0 1 -3.308 3.224 3.805 3.805 0 0 1 -3.057-1.736l-16.284-21.16h-16.614v19.589a3.265 3.265 0 1 1 -6.529 0v-51.66"/><path d="m210.147 433.28c8.762 0 14.217-3.883 14.217-10.33v-.166c0-6.282-5.29-9.92-15.374-9.92h-18.266v20.417zm-2.315-26.201c7.854 0 13.308-3.554 13.308-10.332v-.166c0-5.703-4.545-9.422-12.81-9.422h-17.606v19.92zm-23.556-22.482a3.3 3.3 0 0 1 3.224-3.307h21.408c6.612 0 11.82 1.9 15.126 5.124a12.853 12.853 0 0 1 3.72 9.259v.164c0 7.523-4.63 11.408-9.175 13.39 6.86 2.067 12.398 6.035 12.398 13.97v.165c0 9.919-8.35 15.787-20.995 15.787h-22.482a3.3 3.3 0 0 1 -3.224-3.305z"/><path d="m291.072 410.385v-.165c0-13.142-9.588-23.887-22.814-23.887-13.225 0-22.648 10.58-22.648 23.721v.166c0 13.142 9.589 23.888 22.813 23.888 13.227 0 22.65-10.58 22.65-23.723zm-52.239 0v-.165c0-15.952 11.985-29.921 29.59-29.921 17.608 0 29.427 13.803 29.427 29.755v.166c0 15.953-11.986 29.923-29.592 29.923s-29.425-13.805-29.425-29.758"/><path d="m333.398 410.798c8.68 0 14.879-4.462 14.879-11.902v-.165c0-7.108-5.455-11.408-14.796-11.408h-17.854v23.475zm-24.3-26.201a3.3 3.3 0 0 1 3.224-3.307h21.654c7.11 0 12.813 2.15 16.45 5.786a15.98 15.98 0 0 1 4.464 11.407v.165c0 9.506-6.448 15.044-15.457 16.78l14.382 18.514a3.556 3.556 0 0 1 1.075 2.398 3.415 3.415 0 0 1 -3.308 3.224 3.805 3.805 0 0 1 -3.057-1.736l-16.283-21.16h-16.615v19.589a3.265 3.265 0 1 1 -6.53 0v-51.66"/></g><g clip-path="url(#a)"><path d="m174.401 302.089-68.654-30.253-3.822 43.201 75.497 23.987-3.02-36.935" fill="url(#b)"/></g><g clip-path="url(#c)"><path d="m119.188 134.954h38.554v32.892h-9.15v-14.05a10.128 10.128 0 1 0 -20.255 0v14.05h-9.15zm-7.703 72.04 57.2 25.207-3.944-48.237h7.486v-16.118h-5.554v-32.892h5.554v-9.455l-30.85-30.187v-2.124a2.912 2.912 0 0 0 -5.823 0v2.124l-30.851 30.188v9.455h5.555v32.892h-5.555v16.118h8.82l-2.038 23.03" fill="url(#d)"/></g><g clip-path="url(#e)"><path d="m108.135 244.851 63.888 28.156-.96-11.725-61.967-27.305z" fill="url(#f)"/></g><g clip-path="url(#g)"><path d="m106.46 263.78 67.23 29.629-.956-11.72-65.31-28.782z" fill="url(#h)"/></g><g clip-path="url(#i)"><path d="m110.773 215.048-.963 10.877 60.544 26.677-.958-11.72z" fill="url(#j)"/></g><path d="m304.071 110.42 30.938-9.94c-.112-.219-.205-.45-.317-.665a174.408 174.408 0 0 0 -18.553-28.834l-29.068 15.042a142.712 142.712 0 0 1 16.726 23.868c.096.172.178.354.274.53" fill="#696566"/><path d="m321.155 168.942 32.214 2.311a172.861 172.861 0 0 0 -2.964-25.592l-32.502 1.107a140.969 140.969 0 0 1 3.252 22.174" fill="#696566"/><path d="m182.022 320.377c-78.203 0-141.828-63.623-141.828-141.825 0-78.201 63.625-141.824 141.828-141.824a140.929 140.929 0 0 1 76.273 22.34l22.559-23.461a172.86 172.86 0 0 0 -98.832-30.925c-95.871 0-173.867 78-173.867 173.87 0 95.871 77.996 173.87 173.867 173.87 81.904 0 150.69-56.956 169.014-133.322l-30.412-10.55c-13.805 63.838-70.692 111.827-138.602 111.827" fill="#696566"/><g clip-path="url(#k)"><path d="m313.126 67.16a175.312 175.312 0 0 0 -29.75-28.133 179.67 179.67 0 0 0 -4.788-3.42l-22.558 23.461-82.34 85.632 113.38-58.677 29.07-15.042c-1.006-1.274-1.976-2.577-3.014-3.821" fill="url(#l)"/></g><g clip-path="url(#m)"><path d="m353.588 177.179c-.017-1.99-.136-3.952-.219-5.925l-32.214-2.312-147.465-10.584 144.67 50.191 30.41 10.551c.09-.36.192-.714.278-1.078a173.652 173.652 0 0 0 4.572-39.47c0-.46-.03-.913-.033-1.373" fill="url(#n)"/></g><g clip-path="url(#o)"><path d="m348.84 138.18a172.551 172.551 0 0 0 -13.83-37.7l-30.939 9.94-128.148 41.182 141.98-4.834 32.502-1.107c-.483-2.506-.976-5.01-1.564-7.482" fill="url(#p)"/></g></svg>