<svg enable-background="new 0 0 336 235.2" height="245" viewBox="0 0 400 245" width="400" xmlns="http://www.w3.org/2000/svg" xmlns:xlink="http://www.w3.org/1999/xlink"><filter id="a" filterUnits="userSpaceOnUse" height="198.62" width="224.49" x="7.93" y="8.26"><feColorMatrix values="1 0 0 0 0 0 1 0 0 0 0 0 1 0 0 0 0 0 1 0"/></filter><mask id="b" height="198.62" maskUnits="userSpaceOnUse" width="224.49" x="7.93" y="8.26"><g filter="url(#a)"><path d="m-17.04-5.3h271.76v226.82h-271.76z"/><path d="m37.72 87.65c-.74 0-1.48-.2-2.12-.57l-20.06-11.58a4.42 4.42 0 0 1 -2.09-5.23 4.258 4.258 0 0 1 5.44-2.57c.24.08.47.19.69.32l20.06 11.58a4.411 4.411 0 0 1 1.85 5.77 4.25 4.25 0 0 1 -3.77 2.28zm34.68-34.67c-1.52 0-2.92-.81-3.68-2.13l-11.59-20.06c-1.1-1.81-.77-4.15.81-5.58a4.25 4.25 0 0 1 5.99.5c.16.19.31.4.44.62l11.58 20.05c1.18 1.94.7 4.47-1.12 5.83-.72.51-1.57.77-2.43.77zm43.1-17.21v-22.86a4.437 4.437 0 0 1 4.06-4.52 4.255 4.255 0 0 1 4.44 4.05v23.6c0 2.35-1.9 4.25-4.25 4.25h-.19a4.437 4.437 0 0 1 -4.06-4.52zm51.6 17.21c-.87 0-1.71-.27-2.42-.76a4.422 4.422 0 0 1 -1.12-5.84l11.57-20.04a4.264 4.264 0 0 1 5.81-1.56c.22.13.43.27.62.44a4.407 4.407 0 0 1 .81 5.58l-11.58 20.06a4.282 4.282 0 0 1 -3.69 2.12zm34.68 34.67a4.26 4.26 0 0 1 -3.77-2.27 4.399 4.399 0 0 1 1.85-5.77l19.89-11.48a4.376 4.376 0 0 1 5.52.8 4.246 4.246 0 0 1 -.45 5.99c-.2.17-.41.33-.64.46l-20.28 11.7c-.65.37-1.38.57-2.12.57z" fill="#fff"/><path d="m65.84 184.67c-29.77-29.78-29.76-78.06.02-107.83 29.77-29.76 78.03-29.76 107.8 0 2.15 2.15 4.18 4.43 6.06 6.83 1.31 1.66 2.56 3.39 3.71 5.13l-7.09 4.68a68.247 68.247 0 0 0 -3.29-4.56 69.18 69.18 0 0 0 -5.4-6.08c-26.46-26.44-69.35-26.44-95.81.02-26.45 26.46-26.45 69.35 0 95.8z" fill="url(#c)"/><path d="m174.1 207h-117.34c-27.2-.19-49.09-22.38-48.91-49.58v-.03l8.5.06c-.17 22.51 17.94 40.89 40.44 41.05h117.28c27.48.01 49.76-22.25 49.77-49.73 0-12.25-4.51-24.07-12.67-33.19l6.33-5.66c21.45 23.98 19.4 60.8-4.58 82.25a58.202 58.202 0 0 1 -38.82 14.83z" fill="#fff"/><path d="m16.35 157.45-8.5-.06c.15-23.9 17.46-44.23 41.04-48.2l1.42 8.38c-19.51 3.28-33.84 20.11-33.96 39.88z" fill="url(#d)"/><path d="m124.34 148.38-8.49-.06c.24-32.17 26.51-58.05 58.68-57.81 16.42.12 32.03 7.17 42.97 19.41l-6.33 5.66c-18.32-20.48-49.77-22.23-70.25-3.91a49.813 49.813 0 0 0 -16.58 36.71z" fill="url(#e)"/></g></mask><linearGradient id="c" gradientTransform="matrix(-.40418224 -.40418224 -.40418224 .40418224 2670.691302 -3788.367912)" gradientUnits="userSpaceOnUse" x1="-1715.326" x2="-1561.168" y1="8007.917" y2="7980.736"><stop offset=".195" stop-color="#fff" stop-opacity="0"/><stop offset=".287" stop-color="#fff" stop-opacity=".03"/><stop offset=".501" stop-color="#fff" stop-opacity=".2"/><stop offset=".793" stop-color="#fff" stop-opacity=".74"/><stop offset="1" stop-color="#fff"/></linearGradient><linearGradient id="d" gradientTransform="matrix(.5716 0 0 -.5716 -944.203 -1183.804)" gradientUnits="userSpaceOnUse" x1="1656.833" x2="1747.19" y1="-2331.214" y2="-2279.046"><stop offset=".08" stop-color="#fff"/><stop offset=".753" stop-color="#fff" stop-opacity=".07"/><stop offset=".875" stop-color="#fff" stop-opacity="0"/></linearGradient><linearGradient id="e" gradientTransform="matrix(.5716 0 0 -.5716 -944.203 -1183.804)" gradientUnits="userSpaceOnUse" x1="1863.37" x2="2000.813" y1="-2341.058" y2="-2225.73"><stop offset=".138" stop-color="#fff" stop-opacity="0"/><stop offset=".32" stop-color="#fff" stop-opacity=".07"/><stop offset=".847" stop-color="#fff" stop-opacity=".764"/><stop offset=".947" stop-color="#fff"/></linearGradient><linearGradient id="f" gradientTransform="matrix(1 0 0 -1 0 159.746)" gradientUnits="userSpaceOnUse" x1="177.537" x2="64.369" y1="137.109" y2="-58.904"><stop offset="0" stop-color="#50ffd2"/><stop offset="1" stop-color="#0064ff"/></linearGradient><path d="m0 0h400v245h-400z" fill="none" pointer-events="none"/><path d="m133.826 152.26v-3.881h5.438v-30.949h-5.438v-3.882h15.528v3.882h-5.437v30.949h5.437v3.882h-15.528zm24.019-38.712h15.918c6.379 0 10.314 3.936 10.314 9.983 0 5.77-3.716 7.822-6.266 8.208v.332c2.774.165 7.598 2.55 7.598 8.983 0 6.379-4.272 11.202-9.983 11.202h-17.581zm4.657 16.752h10.705c3.662 0 5.877-1.941 5.877-5.38v-1.887c0-3.438-2.22-5.379-5.877-5.379h-10.705zm0 17.859h11.48c3.995 0 6.433-2.107 6.433-5.989v-1.887c0-3.882-2.438-5.989-6.433-5.989h-11.48zm61.673-28.51h-.278l-3.272 6.49-9.261 16.86-9.208-16.86-3.272-6.432h-.278v32.558h-4.55v-38.717h6.1l11.096 20.854h.22l11.148-20.854h6.1v38.713h-4.55v-32.612zm23.35 13.533c0-13.09 6.711-20.297 17.138-20.297 7.1 0 11.646 2.882 14.475 9.095l-7.267 3.77c-1-3.219-3.053-5.38-7.213-5.38-4.935 0-8.207 3.327-8.207 9.428v6.213c0 6.1 3.272 9.427 8.207 9.427 4.16 0 6.545-2.604 7.71-5.77l6.877 3.995c-2.882 5.877-7.486 9.261-14.587 9.261-10.422.005-17.132-6.652-17.132-19.742zm45.312 19.079c-5.604 0-8.154-2.829-8.154-7.989v-33.05h8.207v34.664h3.663v6.38h-3.716zm6.822-14.587c0-9.373 5.102-15.196 13.646-15.196 8.54 0 13.645 5.823 13.645 15.196s-5.101 15.255-13.645 15.255c-8.54 0-13.646-5.882-13.646-15.255zm18.747 2.999v-5.935c0-3.663-1.887-5.77-5.101-5.77-3.219 0-5.102 2.107-5.102 5.77v5.935c0 3.662 1.888 5.77 5.102 5.77 3.218-.005 5.1-2.112 5.1-5.77zm31.558 6.71h-.278c-1 2.941-3.384 5.546-8.154 5.546-5.935 0-9.095-4.16-9.095-11.48v-18.304h8.208v17.582c0 3.55 1.165 5.545 4.16 5.545 2.55 0 5.16-1.444 5.16-4.214v-18.913h8.207v29.12h-8.208zm33.723 0h-.277c-.834 3.16-4.048 5.546-7.823 5.546-7.378 0-11.202-5.38-11.202-15.255 0-9.871 3.828-15.196 11.202-15.196 3.77 0 6.989 2.33 7.823 5.545h.277v-16.801h8.208v41.043h-8.208zm0-5.383v-8.598c0-2.663-2.272-4.272-5.379-4.272s-5.379 2.385-5.379 6.047v5.048c0 3.662 2.273 6.047 5.38 6.047s5.378-1.61 5.378-4.272z" fill="#231f20"/><path d="m37.81 87.52c-.74 0-1.48-.2-2.12-.57l-20.06-11.58a4.42 4.42 0 0 1 -2.09-5.23 4.258 4.258 0 0 1 5.44-2.57c.24.08.47.19.69.32l20.06 11.59a4.411 4.411 0 0 1 1.85 5.77 4.28 4.28 0 0 1 -3.77 2.27zm34.67-34.67c-1.52 0-2.92-.81-3.68-2.13l-11.58-20.06c-1.1-1.81-.77-4.15.81-5.57a4.25 4.25 0 0 1 5.99.5c.16.19.31.4.44.62l11.57 20.05c1.18 1.94.7 4.47-1.12 5.83-.71.49-1.56.76-2.43.76zm43.11-17.21v-22.86a4.437 4.437 0 0 1 4.06-4.52 4.255 4.255 0 0 1 4.44 4.05c0 .06.01.13.01.19v23.41c0 2.35-1.9 4.25-4.25 4.25h-.19c-2.35-.2-4.13-2.18-4.07-4.52zm51.6 17.21c-.87 0-1.71-.27-2.42-.76a4.422 4.422 0 0 1 -1.12-5.84l11.57-20.04a4.26 4.26 0 0 1 5.81-1.56c.22.13.43.27.62.44a4.42 4.42 0 0 1 .81 5.57l-11.58 20.06a4.27 4.27 0 0 1 -3.69 2.13zm34.67 34.67a4.26 4.26 0 0 1 -3.77-2.27c-1.01-2.11-.2-4.65 1.85-5.77l19.89-11.48c1.8-1.09 4.11-.76 5.52.8a4.246 4.246 0 0 1 -.45 5.99c-.2.17-.41.33-.64.46l-20.28 11.71c-.64.36-1.37.56-2.12.56zm-135.94 97.02c-29.77-29.78-29.76-78.06.02-107.83 29.77-29.76 78.03-29.76 107.8 0a75.72 75.72 0 0 1 6.07 6.83c1.31 1.66 2.56 3.39 3.7 5.13l-7.09 4.68a68.247 68.247 0 0 0 -3.29-4.56 69.18 69.18 0 0 0 -5.4-6.08c-26.46-26.45-69.36-26.45-95.81.01s-26.45 69.35 0 95.8zm108.27 22.33h-117.34c-27.2-.19-49.09-22.38-48.91-49.58v-.03l8.49.06c-.17 22.51 17.94 40.89 40.44 41.05h117.28c27.48.01 49.76-22.25 49.77-49.73.01-12.25-4.5-24.06-12.67-33.19l6.33-5.66c21.45 23.98 19.39 60.8-4.58 82.25a58.196 58.196 0 0 1 -38.81 14.83zm-157.76-49.55-8.49-.06c.15-23.9 17.46-44.23 41.04-48.2l1.42 8.38c-19.52 3.28-33.84 20.1-33.97 39.88zm108-9.07-8.5-.06c.24-32.17 26.51-58.05 58.68-57.81 16.42.12 32.03 7.17 42.98 19.41l-6.33 5.66c-18.32-20.48-49.77-22.23-70.25-3.91a49.74 49.74 0 0 0 -16.58 36.71z" fill="url(#f)" mask="url(#b)" transform="matrix(.44827 0 0 .44827 4.012 74.307)"/></svg>