<svg xmlns="http://www.w3.org/2000/svg" width="53.35" height="10.85"><path fill="#010101" d="M36.8 4.1c0-1.01.35-1.77 1.11-1.77.88 0 1.14.69 1.14 1.75 0 1.51-.48 1.71-1.14 1.71-.71 0-1.11-.26-1.11-1.69m3.78-2.28c-.16.05-.27.19-.32.43-.04.22-.13.35-.24.39-.11.03-.24.02-.39-.03-.28-.26-.81-.57-1.75-.57-1.51 0-2.18 1.08-2.18 2.06 0 1.15.44 1.71 1.41 1.91.06.01.06.08.01.09-.83.17-1.56.41-1.56 1.2 0 .47.27.74.62.88.39.16.93.24 1.61.25.59.01 1.02.03 1.29.06.3.03.53.12.71.25.18.14.27.34.27.61 0 .36-.19.66-.58.88-.36.2-.86.31-1.47.31-.53 0-.96-.06-1.35-.3-.29-.18-.35-.53-.28-.78.05-.26-.04-.52-.33-.58a.478.478 0 0 0-.46.21c-.09.14-.12.3-.12.5 0 .65.5.95.88 1.06.58.18.97.22 1.51.22.71 0 1.29-.11 1.7-.32s.7-.46.85-.76c.16-.29.24-.6.24-.89 0-.39-.09-.71-.25-.95-.54-.74-1.31-.65-3.03-.73-.83 0-.99-.15-.99-.41 0-.37.31-.52 1.51-.71 1.18-.18 2.28-.62 2.28-2.06 0-.42-.1-.77-.22-1.02.24.06.47.06.68-.01.24-.07.39-.19.48-.36.09-.17.11-.33.06-.48-.08-.25-.21-.38-.41-.38-.06 0-.12.01-.18.03m8.63 1.34h-.1l-.19-.99h-1.69v.28c.32.01.84.02.84.02v3.75c0 .29-.02.5-.07.64-.04.17-.15.28-.31.35-.1.04-.26.07-.47.08v.34h2.68v-.35c-.27-.02-.45-.09-.55-.23-.1-.15-.15-.4-.15-.77V4.83c0-.6 0-1.18.2-1.54.22-.39.63-.61 1.08-.61.41 0 .62.13.76.39.11.21.18.84.18 1.27l-.01 1.78c0 .3.04.52.01.66-.03.16-.1.29-.23.38-.09.06-.24.1-.43.11v.35h2.59v-.34c-.33-.02-.54-.1-.64-.25-.11-.16-.19-.42-.19-.81l.01-2.47c0-.36-.05-.66-.18-.91-.14-.24-.33-.43-.56-.55-.24-.12-.52-.18-.82-.18-1.08-.01-1.52.66-1.76 1.05m-6.63 3.1c0-1.01 1.39-1.52 2.15-1.52v1.75l-.02.04-.02.02c-.53.48-.94.66-1.24.66-.76 0-.87-.64-.87-.95m-.41-3.8c-.35.27-.49.52-.49.88 0 .17.04.28.14.36.09.08.2.12.34.12.31 0 .48-.16.55-.56.05-.3.11-.47.26-.63.16-.17.41-.25.74-.25.39 0 .66.1.82.31.14.2.22.47.22.8v.91c-1 .09-3.34.28-3.24 2.07.04.7.66 1.31 1.45 1.31.88 0 1.44-.5 1.82-.9.06.38.41.83 1.06.83.72 0 1.15-.35 1.2-1.24h-.19c-.05.38-.29.59-.48.59-.33 0-.44-.18-.46-.49l-.02-.7V3.59c0-.49-.08-.82-.37-1.11-.29-.29-.84-.44-1.64-.44-.78 0-1.35.14-1.71.42m-9.69.8h-.07c-.01 0-.14-.84-.19-1.08h-1.85v.28h1s-.01.85-.01 1.16v2.61c0 .37-.04.63-.12.79-.1.19-.33.28-.71.28h-.16v.33h3.1v-.34h-.17c-.41 0-.58-.09-.69-.27-.1-.16-.14-.42-.14-.8V4.27c0-.66.5-1.41 1.09-1.41.62 0 .61.96 1.31.57.38-.21.32-1.31-.87-1.31-.96 0-1.26.57-1.52 1.14m-6.66 1.72c0-1.49.09-2.6 1.39-2.6 1.4 0 1.41 1.16 1.41 2.51 0 1.95-.33 2.62-1.41 2.62-1.2 0-1.39-.6-1.39-2.53m-1.19-.03c0 2.71 2.11 2.89 2.57 2.89.9 0 2.61-.56 2.61-2.94 0-1.85-1.09-2.86-2.58-2.86-1.6 0-2.6 1.06-2.6 2.91M21.98.02c-.03.07-2.33 5.81-2.33 5.81l-.05.03-.05-.03L17.07.02H14.9v.25h.94v5.9l-.02.53c-.02.14-.06.27-.13.37-.07.11-.19.19-.35.25-.1.03-.25.06-.44.06v.25h2.15v-.25c-.18-.01-.26-.03-.37-.06a.614.614 0 0 1-.35-.24.749.749 0 0 1-.13-.38l-.02-.54v-5.1h.13s2.78 6.48 2.81 6.56h.23l2.63-6.48h.07v5.25c0 .22-.02.4-.07.53-.05.16-.16.28-.33.36-.12.05-.3.09-.55.09v.25h3v-.24c-.24-.01-.42-.04-.55-.1a.628.628 0 0 1-.34-.36c-.04-.14-.06-.3-.06-.52V.27l.8-.01V.02h-1.97zM9.54.3l.57-.01c1.83 0 2.23.75 2.23 1.98s-.72 1.86-2.17 1.86h-.63V.3zM7.51 0v.27h.9v5.94c0 .47-.03.59-.08.72-.05.15-.18.27-.36.35-.14.06-.35.09-.63.1v.25h3.31v-.25c-.28-.01-.49-.04-.63-.09-.21-.08-.34-.19-.4-.35a1.19 1.19 0 0 1-.08-.48V4.42h.82c2.38 0 3.04-.94 3.04-2.22 0-1.29-.41-2.2-2.82-2.2H7.51zm4.82 6.78c-.12.12-.18.26-.18.44 0 .17.06.31.18.43.13.12.27.18.44.18.17 0 .32-.06.44-.18.12-.11.18-.26.18-.43 0-.18-.06-.32-.18-.44a.604.604 0 0 0-.44-.18c-.17.01-.32.06-.44.18m-6.96 0c-.12.12-.18.26-.18.44 0 .17.06.31.18.43s.26.17.43.17c.17 0 .32-.06.44-.18.12-.11.18-.26.18-.43 0-.18-.06-.32-.18-.44a.613.613 0 0 0-.44-.16c-.17 0-.32.05-.43.17M2.24 0v.27h1v5.21c0 1.57-.43 2-1.4 2-.61 0-.71-.46-.71-.7 0-.57-.03-.92-.55-.92S0 6.39 0 6.55c0 .72.32 1.27 1.74 1.27 1.7 0 2.61-.57 2.61-2.48V.27h1.03V0H2.24z"/></svg>