<svg viewBox="0 0 645.8 366.1" xmlns="http://www.w3.org/2000/svg" xmlns:xlink="http://www.w3.org/1999/xlink"><clipPath id="a"><path d="m4.4 10.2h634.6v346.1h-634.6z"/></clipPath><clipPath id="b"><path d="m4.4 10.2h634.6v346.1h-634.6z"/></clipPath><clipPath id="c"><path d="m4.4 10.2h634.6v346.1h-634.6z"/></clipPath><clipPath id="d"><path d="m4.4 10.2h634.6v346.1h-634.6z"/></clipPath><clipPath id="e"><path d="m4.4 10.2h634.6v346.1h-634.6z"/></clipPath><clipPath id="f"><path d="m4.4 10.2h634.6v346.1h-634.6z"/></clipPath><path d="m4.4 258.1v6.3h36.3v90.7h7.6v-90.7h36.3v-6.3z" fill="#0096d6"/><path clip-path="url(#a)" d="m103.9 264.4v38h16.1c8.2 0 14.4-1.7 18.7-5s6.5-8 6.5-14.1c0-6-2.2-10.6-6.6-14-4.4-3.3-10.7-5-18.9-5h-15.8zm-7.5-6.3h24.8c10.4 0 18.3 2.3 23.8 6.8s8.2 10.6 8.2 18.3c0 11.2-6.1 19.1-18.4 23.6 3.2 1.5 7.5 6.5 12.9 14.8l21.9 33.5h-8.9l-16.9-26.6c-5.6-8.9-10-14.4-13.2-16.6-3.1-2.2-7.7-3.3-13.8-3.3h-13.1v46.5h-7.5v-97z" fill="#0096d6"/><path d="m222.3 269.6 20.9 45.7h-41.6zm-2-12.2-44.7 97.7h7.9l15.3-33.5h47.2l15.3 33.5h7.9l-44.7-97.7zm60.5.7h7.5v97h-7.5zm109.2 0v84.8l-73.4-84.8h-6.3v97h7.4v-84.8l73.6 84.8h6.2v-97zm29.7 0h7.5v97h-7.5zm109.2 0v84.8l-73.4-84.8h-6.3v97h7.5v-84.8l73.5 84.8h6.2v-97z" fill="#0096d6"/><path clip-path="url(#b)" d="m636.8 265.1v8.5c-11.5-6.5-22.9-9.8-34.3-9.8-12.2 0-22.4 4.1-30.6 12.2-8.1 8.1-12.2 18.4-12.2 30.6 0 12.3 4 22.5 12.1 30.6 8 8.1 19 12.2 32.8 12.2 10 0 18.8-2 26.5-6v-26.2h-20.4v-6.2h28v37.1c-11.4 5.5-22.9 8.2-34.4 8.2-15 0-27.5-4.8-37.6-14.3-10-9.5-15.1-21.4-15.1-35.7 0-14.2 4.9-25.9 14.8-35.4 9.9-9.4 22.2-14.1 37.2-14.1 10.2.1 21.3 2.8 33.2 8.3" fill="#0096d6"/><g fill="#003764"><path d="m251.7 11v3.7h16v42.2h4.3v-42.2h16v-3.7zm72.1 0v19.9h-27.1v-19.9h-4.4v45.9h4.4v-22.3h27.1v22.3h4.4v-45.9zm13.6 0v45.9h31.9v-3.8h-27.5v-18.1h25.5v-3.7h-25.5v-16.6h27.2v-3.7zm-85.7 159.6h29.1v3.8h-24.7v16.5h21.9v3.8h-21.9v21.8h-4.4z"/><path clip-path="url(#c)" d="m305.3 213.7c12.1 0 17.2-10.1 17.2-20.2 0-10-5.1-20.2-17.2-20.2s-17.2 10.1-17.2 20.2 5.1 20.2 17.2 20.2m0-44c14.4 0 21.5 11.3 21.5 23.9s-7.2 23.9-21.5 23.9c-14.4 0-21.6-11.3-21.6-23.9s7.2-23.9 21.6-23.9m27.9.9h4.4v28.4c0 10.6 4.9 14.7 13.4 14.7s13.5-4.1 13.5-14.7v-28.4h4.4v29.4c0 9.4-5.1 17.5-17.8 17.5-12.6 0-17.8-8-17.8-17.5v-29.4z"/><path d="m377.5 170.6h4.9l26.6 38.8h.2v-38.8h4.3v45.9h-4.9l-26.6-38.8h-.1v38.8h-4.4z"/><path clip-path="url(#d)" d="m427.1 212.8h9.3c13.1 0 18.8-5.5 18.8-19.2s-5.7-19.2-18.8-19.2h-9.3zm-4.4-42.2h15.8c13.8.3 21 7.8 21 22.9 0 15.2-7.2 22.6-21 22.9h-15.8z"/><path d="m473.1 198.5h18l-8.8-23.5zm6.9-27.9h4.9l17.9 45.9h-4.7l-5.6-14.3h-20.8l-5.5 14.3h-4.7zm17.7 0h36.3v3.8h-16v42.1h-4.3v-42.1h-16zm40.9 0h4.4v45.9h-4.4z"/><path clip-path="url(#e)" d="m571.7 213.7c12.1 0 17.2-10.1 17.2-20.2 0-10-5.1-20.2-17.2-20.2s-17.2 10.1-17.2 20.2c-.1 10.1 5.1 20.2 17.2 20.2m0-44c14.4 0 21.5 11.3 21.5 23.9s-7.2 23.9-21.5 23.9c-14.4 0-21.6-11.3-21.6-23.9s7.2-23.9 21.6-23.9"/><path d="m600 170.6h4.8l26.7 38.8h.1v-38.8h4.4v45.9h-4.9l-26.7-38.8h-.1v38.8h-4.3zm-348.3-100.1h25.2v61h36.3v21.1h-61.5zm78 0h25.2v82h-25.2zm44 0h25.8l23.9 43.9h.2v-43.9h23.9v82.1h-24.6l-25.1-44.9h-.2v44.9h-23.9z"/><path clip-path="url(#f)" d="m540.7 120.8c0 22.9-12 33.7-37.3 33.7-25.2 0-37.4-10.8-37.4-33.7v-50.3h25.2v44.7c0 8.3-.1 18.8 12.3 18.8 11.9 0 11.9-10.6 11.9-18.8v-44.7h25.2v50.3z"/><path d="m608 70.5-12.1 22.3-12.4-22.3h-29.6l26.9 38.4-29.6 43.7h28.9l14.5-24.5 14 24.5h30.4l-29.3-43.5 26.3-38.6z"/></g><path d="m51.4 175.3v-82.5h-41.3v123.7h123.6v-41.2z" fill="#009bde"/><path d="m10.2 10.2v61.9h41.1v-20.5h123.5v123.7h-20.5v41.2h61.7v-206.3z" fill="#003764"/></svg>