<svg viewBox="0 0 678.54999 200.67" xmlns="http://www.w3.org/2000/svg"><path d="m9.448 21.592a1.338 1.338 0 0 0 -1.444 1.395 1.44 1.44 0 0 0 2.878 0 1.346 1.346 0 0 0 -1.434-1.395m-1.935 6.14a1.834 1.834 0 0 0 1.925 1.846 1.848 1.848 0 1 0 0-3.694 1.817 1.817 0 0 0 -1.925 1.847m1.935 3.193c-2.141 0-3.89-1.18-3.89-3.016a3.005 3.005 0 0 1 2.21-2.829 2.43 2.43 0 0 1 -1.61-2.279c0-1.464 1.561-2.475 3.29-2.475 1.71 0 3.28 1.011 3.28 2.475a2.434 2.434 0 0 1 -1.6 2.279 2.998 2.998 0 0 1 2.19 2.829c0 1.827-1.729 3.016-3.87 3.016m9.862-9.047c-1.296 0-2.082 1.277-2.082 3.742 0 2.476.795 3.762 2.082 3.762 1.297 0 2.083-1.277 2.083-3.762 0-2.465-.786-3.742-2.083-3.742m0 9.047c-2.308 0-4.096-1.985-4.096-5.305 0-3.31 1.778-5.285 4.096-5.285 2.328 0 4.097 1.975 4.097 5.285 0 3.32-1.769 5.305-4.097 5.305m6.336 1.925-.334-.501a1.95 1.95 0 0 0 1.012-1.71h-1.002v-2.013h2.014v1.71a2.531 2.531 0 0 1 -1.69 2.514m7.741-10.972c-1.297 0-2.083 1.277-2.083 3.742 0 2.476.796 3.762 2.083 3.762 1.296 0 2.082-1.277 2.082-3.762 0-2.465-.786-3.742-2.082-3.742m0 9.047c-2.309 0-4.096-1.985-4.096-5.305 0-3.31 1.778-5.285 4.096-5.285 2.328 0 4.096 1.975 4.096 5.285 0 3.32-1.768 5.305-4.096 5.305m10.098-9.047c-1.297 0-2.083 1.277-2.083 3.742 0 2.476.796 3.762 2.083 3.762 1.297 0 2.082-1.277 2.082-3.762 0-2.465-.785-3.742-2.082-3.742m0 9.047c-2.309 0-4.096-1.985-4.096-5.305 0-3.31 1.778-5.285 4.096-5.285 2.328 0 4.096 1.975 4.096 5.285 0 3.32-1.768 5.305-4.096 5.305m10.098-9.047c-1.297 0-2.082 1.277-2.082 3.742 0 2.476.795 3.762 2.082 3.762 1.297 0 2.082-1.277 2.082-3.762 0-2.465-.785-3.742-2.082-3.742m0 9.047c-2.308 0-4.096-1.985-4.096-5.305 0-3.31 1.778-5.285 4.096-5.285 2.328 0 4.096 1.975 4.096 5.285 0 3.32-1.768 5.305-4.096 5.305m-45.658 31.944c0 1.415.816 2.181 1.73 2.181a1.78 1.78 0 0 0 1.748-1.994c0-1.15-.57-2.014-1.68-2.014a1.776 1.776 0 0 0 -1.798 1.827m1.818 3.537c-1.592 0-3.772-.816-3.772-4.725 0-3.556 1.512-5.835 4.41-5.835a4.286 4.286 0 0 1 2.377.668v1.513a4.285 4.285 0 0 0 -2.19-.698c-1.483 0-2.574.845-2.643 3.438a2.862 2.862 0 0 1 2.328-1.11 3.076 3.076 0 0 1 3.114 3.34 3.444 3.444 0 0 1 -3.624 3.409m9.567-9.047c-1.296 0-2.082 1.277-2.082 3.742 0 2.476.795 3.762 2.082 3.762 1.297 0 2.083-1.277 2.083-3.762-.01-2.465-.786-3.742-2.083-3.742m0 9.047c-2.308 0-4.096-1.985-4.096-5.305 0-3.31 1.778-5.285 4.096-5.285 2.328 0 4.097 1.975 4.097 5.285 0 3.33-1.769 5.305-4.097 5.305m6.336 1.935-.334-.501a1.95 1.95 0 0 0 1.012-1.71h-1.002v-2.013h2.014v1.709a2.531 2.531 0 0 1 -1.69 2.515m7.741-10.982c-1.297 0-2.083 1.277-2.083 3.742 0 2.476.796 3.762 2.083 3.762 1.296 0 2.082-1.277 2.082-3.762 0-2.465-.786-3.742-2.082-3.742m0 9.047c-2.309 0-4.096-1.985-4.096-5.305 0-3.31 1.778-5.285 4.096-5.285 2.328 0 4.096 1.975 4.096 5.285 0 3.33-1.768 5.305-4.096 5.305m10.098-9.047c-1.297 0-2.083 1.277-2.083 3.742 0 2.476.796 3.762 2.083 3.762 1.297 0 2.082-1.277 2.082-3.762 0-2.465-.785-3.742-2.082-3.742m0 9.047c-2.309 0-4.096-1.985-4.096-5.305 0-3.31 1.778-5.285 4.096-5.285 2.328 0 4.096 1.975 4.096 5.285 0 3.33-1.768 5.305-4.096 5.305m10.098-9.047c-1.297 0-2.082 1.277-2.082 3.742 0 2.476.795 3.762 2.082 3.762 1.297 0 2.082-1.277 2.082-3.762 0-2.465-.785-3.742-2.082-3.742m0 9.047c-2.308 0-4.096-1.985-4.096-5.305 0-3.31 1.778-5.285 4.096-5.285 2.328 0 4.096 1.975 4.096 5.285 0 3.33-1.768 5.305-4.096 5.305m-43.752 27.72-2.711 3.625h2.71zm1.925 5.04v2.445h-1.925v-2.445h-4.597v-1.032l4.94-6.591h1.582v6.208h1.818v1.415zm7.554-6.327c-1.296 0-2.082 1.277-2.082 3.743 0 2.475.795 3.762 2.082 3.762 1.297 0 2.083-1.277 2.083-3.762-.01-2.456-.786-3.743-2.083-3.743m0 9.057c-2.308 0-4.096-1.974-4.096-5.304 0-3.31 1.778-5.295 4.096-5.295 2.328 0 4.097 1.985 4.097 5.295 0 3.32-1.769 5.304-4.097 5.304m6.336 1.925-.334-.5a1.95 1.95 0 0 0 1.012-1.71h-1.002v-2.013h2.014v1.709a2.531 2.531 0 0 1 -1.69 2.515m7.741-10.983c-1.297 0-2.083 1.277-2.083 3.743 0 2.475.796 3.762 2.083 3.762 1.296 0 2.082-1.277 2.082-3.762 0-2.456-.786-3.743-2.082-3.743m0 9.057c-2.309 0-4.096-1.974-4.096-5.304 0-3.31 1.778-5.295 4.096-5.295 2.328 0 4.096 1.985 4.096 5.295 0 3.32-1.768 5.304-4.096 5.304m10.098-9.057c-1.297 0-2.083 1.277-2.083 3.743 0 2.475.796 3.762 2.083 3.762 1.297 0 2.082-1.277 2.082-3.762 0-2.456-.785-3.743-2.082-3.743m0 9.057c-2.309 0-4.096-1.974-4.096-5.304 0-3.31 1.778-5.295 4.096-5.295 2.328 0 4.096 1.985 4.096 5.295 0 3.32-1.768 5.304-4.096 5.304m10.098-9.057c-1.297 0-2.082 1.277-2.082 3.743 0 2.475.795 3.762 2.082 3.762 1.297 0 2.082-1.277 2.082-3.762 0-2.456-.785-3.743-2.082-3.743m0 9.057c-2.308 0-4.096-1.974-4.096-5.304 0-3.31 1.778-5.295 4.096-5.295 2.328 0 4.096 1.985 4.096 5.295 0 3.32-1.768 5.304-4.096 5.304m-46.915 35.196v-1.12l2.613-2.71c.933-.963 1.817-1.965 1.817-3.213a1.497 1.497 0 0 0 -1.61-1.65 4.005 4.005 0 0 0 -2.565 1.08v-1.66a5.217 5.217 0 0 1 2.908-1.011 2.982 2.982 0 0 1 3.29 2.996 5.274 5.274 0 0 1 -2.023 3.772l-2.043 1.925h4.293v1.582h-6.68zm12.642-8.761c-1.296 0-2.082 1.276-2.082 3.742 0 2.475.795 3.762 2.082 3.762 1.297 0 2.083-1.277 2.083-3.762-.01-2.466-.786-3.743-2.083-3.743m0 9.047c-2.308 0-4.096-1.984-4.096-5.304 0-3.31 1.778-5.285 4.096-5.285 2.328 0 4.097 1.974 4.097 5.285 0 3.33-1.769 5.304-4.097 5.304m6.336 1.935-.334-.5a1.95 1.95 0 0 0 1.012-1.71h-1.002v-2.013h2.014v1.709a2.54 2.54 0 0 1 -1.69 2.514m7.741-10.981c-1.297 0-2.083 1.276-2.083 3.742 0 2.475.796 3.762 2.083 3.762 1.296 0 2.082-1.277 2.082-3.762 0-2.466-.786-3.743-2.082-3.743m0 9.047c-2.309 0-4.096-1.984-4.096-5.304 0-3.31 1.778-5.285 4.096-5.285 2.328 0 4.096 1.974 4.096 5.285 0 3.33-1.768 5.304-4.096 5.304m10.098-9.046c-1.297 0-2.083 1.276-2.083 3.742 0 2.475.796 3.762 2.083 3.762 1.297 0 2.082-1.277 2.082-3.762 0-2.466-.785-3.743-2.082-3.743m0 9.047c-2.309 0-4.096-1.984-4.096-5.304 0-3.31 1.778-5.285 4.096-5.285 2.328 0 4.096 1.974 4.096 5.285 0 3.33-1.768 5.304-4.096 5.304m10.098-9.046c-1.297 0-2.082 1.276-2.082 3.742 0 2.475.795 3.762 2.082 3.762 1.297 0 2.082-1.277 2.082-3.762 0-2.466-.785-3.743-2.082-3.743m0 9.047c-2.308 0-4.096-1.984-4.096-5.304 0-3.31 1.778-5.285 4.096-5.285 2.328 0 4.096 1.974 4.096 5.285 0 3.33-1.768 5.304-4.096 5.304m0 26.434c-1.297 0-2.082 1.277-2.082 3.743 0 2.475.795 3.762 2.082 3.762 1.297 0 2.082-1.277 2.082-3.762 0-2.456-.785-3.743-2.082-3.743m0 9.057c-2.308 0-4.096-1.984-4.096-5.304 0-3.31 1.778-5.285 4.096-5.285 2.328 0 4.096 1.974 4.096 5.285 0 3.32-1.768 5.304-4.096 5.304m36.837-154.782h.972v159.409h-.972zm130.096-.973h.972v159.409h-.972zm120.372 0h.972v159.409h-.972zm120.372 0h.972v159.409h-.972zm120.372 0h.972v159.409h-.972z" fill="#fff"/><path d="m90.96 176.944v.972h579.836v-.972z" fill="#fff"/><path d="m256.547 136.158c-6.729 3.458-14.43 3.036-21.905 3.556a6.45 6.45 0 0 0 -2.81.344.409.409 0 0 0 -.304.03c-.796.02-1.611 0-2.407.078-13.742 1.434-27.465 2.947-41.227 4.293-8.232.805-16.444 1.493-24.509 3.28-14.489 3.203-28.85 6.887-43.899 8.291a15.201 15.201 0 0 0 -8.723 3.38c-.363.029-.707.068-.864.383-6.022 4.774-11.012 10.206-16.022 15.638-.461.5-.619 1.66-2.004 1.208-1.267-.412-.992-1.356-.982-2.17a2.17 2.17 0 0 1 .56-1.641c5.196-5.472 10.108-11.14 16.513-15.806.825-.599 1.719-1.149 2.573-1.728a1 1 0 0 0 .413-.118c5.275-2.368 11.237-2.446 16.974-3.36a369.154 369.154 0 0 0 31.326-6.365c9.38-2.338 19.037-3.173 28.703-4.145q21.336-2.152 42.652-4.382a4.897 4.897 0 0 0 .893-.265c3.88-.285 7.79-.177 11.64-.707a23.509 23.509 0 0 0 14.902-4.696c7.436-5.49 16.1-9.086 25.698-11.463 8.231-2.043 15.923-5.236 24.056-7.475 9.676-2.662 19.754-4.146 29.627-6.248a133.62 133.62 0 0 0 13.172-3.065c.167-.03.334-.049.501-.078a175.823 175.823 0 0 0 22.868-7.338c.767-.314 1.464-.737 2.191-1.11.216-.098.422-.197.639-.295 1.08-.412 2.21-.776 3.241-1.257a88.418 88.418 0 0 1 23.625-7.083c9.862-1.552 18.88-5.098 28.162-8.005q17.977-5.629 35.972-11.238a15.24 15.24 0 0 0 3.9-1.473.99.99 0 0 0 .423-.099 243.162 243.162 0 0 0 28.447-12.337c.216-.099.432-.207.649-.305 19.773-7.583 40.667-13.33 59.134-23.045 7.78-4.096 16.503-4.813 25.462-4.853 1.61-.01 3.222-.078 4.833-.127l.638-.03a12.02 12.02 0 0 0 8.212-2.023 20.677 20.677 0 0 0 2.83-2.093c5.009-5.186 11.944-7.288 19.753-8.182a57.256 57.256 0 0 0 8.88-1.523 2.841 2.841 0 0 0 1.955-.285c5.246-.383 10.177-1.807 15.167-3.005 3.694-.885 7.358-1.847 11.012-2.82 3.762-1.002 7.652-.599 11.493-.687.835-.02 1.14.324 1.188.933.07.884-.805.835-1.483.923-6.69.855-13.055 2.682-19.528 4.195-.668.226-1.346.452-2.014.668-10.658 2.819-21.856 3.713-32.72 5.825a16.086 16.086 0 0 0 -7.456 3.36c-.668.56-1.425 1.05-2.043 1.64a21.147 21.147 0 0 1 -15.344 6.277c-.167 0-.334.01-.501.01a150.758 150.758 0 0 0 -17.132.776c-4.43.54-8.27 2.446-12.15 4.155-8.183 3.605-16.395 7.18-24.549 10.825-6.512 2.917-13.644 4.567-20.569 6.66a23.353 23.353 0 0 0 -6.031 2.318 1.07 1.07 0 0 0 -.943.334c-3.026 1.326-6.11 2.593-9.077 3.998q-13.703 6.527-28.123 11.955c-.167.088-.344.176-.511.265q-18.02 5.584-36.031 11.15c-10.963 3.368-21.61 7.435-33.241 9.302a62.48 62.48 0 0 0 -14.843 3.939c-.55.235-1.218.343-1.572.825-.196.088-.393.186-.599.275a11.003 11.003 0 0 0 -1.552.49c-9.754 4.696-20.226 8.075-30.962 11.022-.61.167-1.179.393-1.768.6-.187.029-.374.058-.56.078q-18.713 3.831-37.426 7.672a74.384 74.384 0 0 0 -9.99 2.858c-7.574 2.712-15.354 4.99-23.202 7.122a48.57 48.57 0 0 0 -15.108 6.7c-2.485 1.728-5.118 3.3-7.692 4.95a1.896 1.896 0 0 1 -.5.344" fill="#efeeee"/><g fill="#fff"><path d="m95.415 193.424c0 2.77-1.444 3.846-3.197 3.846a3.531 3.531 0 0 1 -2.8-1.223l.472-.486a2.764 2.764 0 0 0 2.342 1.09c1.37 0 2.49-.87 2.49-3.242v-6.557h.693zm10.078-.162a3.849 3.849 0 1 1 -7.69 0v-6.41h.692v6.395c0 2.166 1.179 3.403 3.138 3.403 1.96 0 3.168-1.237 3.168-3.403v-6.395h.692z"/><path d="m109.428 197.166h-.707v-10.314h.707zm5.29 0h-5.29v-.633h5.29z"/><path d="m119.546 192.334v4.832h-.693v-4.832l-3.801-5.482h.78l3.36 4.907 3.374-4.907h.78zm10.078-5.482h.958l-1.43 2.918h-.574zm4.213 10.314h-.692v-9.694h-1.311v-.62h2.003z"/><path d="m140.268 191.42a3.193 3.193 0 0 1 1.768-.56 3.229 3.229 0 1 1 -3.33 3.213 6.544 6.544 0 0 1 1.768-3.95l2.475-3.27h.81zm-.87 2.653a2.637 2.637 0 0 0 5.275 0 2.524 2.524 0 0 0 -2.623-2.55 2.411 2.411 0 0 0 -2.652 2.55z"/><path d="m201.504 193.424c0 2.77-1.444 3.846-3.197 3.846a3.531 3.531 0 0 1 -2.8-1.223l.472-.486a2.764 2.764 0 0 0 2.343 1.09c1.37 0 2.49-.87 2.49-3.242v-6.557h.692zm8.222.443h-5.054l-1.444 3.3h-.766l4.686-10.432h.088l4.685 10.431h-.75zm-.265-.59-2.269-5.158-2.254 5.158zm11.743 3.978h-.015l-7.381-8.737v8.648h-.707v-10.402h.029l7.382 8.767v-8.679h.692zm6.646-10.403h.958l-1.43 2.918h-.574zm4.213 10.314h-.692v-9.694h-1.312v-.62h2.004z"/><path d="m237.545 197.166h-.707l3.757-9.694h-4.994v-.62h5.922z"/><path d="m323.064 193.424c0 2.77-1.443 3.846-3.196 3.846a3.531 3.531 0 0 1 -2.8-1.223l.471-.486a2.764 2.764 0 0 0 2.343 1.09c1.37 0 2.49-.87 2.49-3.242v-6.557h.692z"/><path d="m333.551 193.262a3.849 3.849 0 1 1 -7.691 0v-6.41h.692v6.395c0 2.166 1.18 3.403 3.138 3.403 1.96 0 3.169-1.237 3.169-3.403v-6.395h.692z"/><path d="m337.058 197.166h-.707v-10.314h.707zm5.289 0h-5.29v-.633h5.29z"/><path d="m347.186 192.334v4.832h-.693v-4.832l-3.802-5.482h.781l3.36 4.907 3.373-4.907h.781z"/><path d="m359.793 186.852h.958l-1.43 2.918h-.574z"/><path d="m365.687 197.166h-.692v-9.694h-1.312v-.62h2.004z"/><path d="m371.05 197.166h-.706l3.756-9.694h-4.994v-.62h5.923z"/><path d="m454.449 193.424c0 2.77-1.444 3.846-3.197 3.846a3.529 3.529 0 0 1 -2.8-1.223l.472-.486a2.763 2.763 0 0 0 2.342 1.09c1.37 0 2.49-.87 2.49-3.242v-6.557h.693z"/><path d="m464.576 193.867h-5.053l-1.444 3.3h-.767l4.688-10.433h.088l4.685 10.431h-.751zm-.265-.59-2.268-5.158-2.255 5.158z"/><path d="m477.273 197.255h-.015l-7.382-8.737v8.648h-.707v-10.402h.029l7.383 8.767v-8.679h.692zm6.644-10.403h.959l-1.43 2.918h-.574zm4.215 10.314h-.692v-9.694h-1.313v-.62h2.005z"/><path d="m498.623 194.234a3.264 3.264 0 0 1 -6.513 0 2.961 2.961 0 0 1 1.93-2.8 2.4 2.4 0 0 1 -1.385-2.15 2.718 2.718 0 0 1 5.423 0 2.4 2.4 0 0 1 -1.385 2.15 2.961 2.961 0 0 1 1.93 2.8zm-.693 0a2.568 2.568 0 1 0 -2.563 2.416 2.43 2.43 0 0 0 2.563-2.416zm-2.563-3.05a1.955 1.955 0 0 0 2.019-1.915 2.022 2.022 0 0 0 -4.038 0 1.955 1.955 0 0 0 2.02 1.915z"/><path d="m555.135 193.424c0 2.77-1.443 3.846-3.197 3.846a3.529 3.529 0 0 1 -2.8-1.223l.472-.486a2.763 2.763 0 0 0 2.343 1.09c1.37 0 2.49-.87 2.49-3.242v-6.557h.692zm10.86-.162a3.849 3.849 0 1 1 -7.691 0v-6.41h.692v6.395c0 2.166 1.179 3.403 3.137 3.403 1.961 0 3.169-1.237 3.169-3.403v-6.395h.693z"/><path d="m569.148 197.166h-.707v-10.314h.707zm5.29 0h-5.29v-.633h5.29z"/><path d="m579.256 192.334v4.832h-.693v-4.832l-3.8-5.482h.78l3.36 4.907 3.373-4.907h.781zm10.078-5.482h.958l-1.43 2.918h-.574zm4.214 10.314h-.693v-9.694h-1.31v-.62h2.003z"/><path d="m602.954 194.234a3.264 3.264 0 0 1 -6.513 0 2.961 2.961 0 0 1 1.93-2.8 2.4 2.4 0 0 1 -1.385-2.15 2.718 2.718 0 0 1 5.423 0 2.4 2.4 0 0 1 -1.385 2.15 2.961 2.961 0 0 1 1.93 2.8zm-.693 0a2.568 2.568 0 1 0 -2.563 2.416 2.43 2.43 0 0 0 2.563-2.416zm-2.563-3.05a1.955 1.955 0 0 0 2.018-1.915 2.023 2.023 0 0 0 -4.037 0 1.955 1.955 0 0 0 2.019 1.915z"/></g></svg>