<svg viewBox="0 0 2000 614.75862" xmlns="http://www.w3.org/2000/svg" xmlns:xlink="http://www.w3.org/1999/xlink"><linearGradient id="a" gradientTransform="matrix(-.9771 -.323 .2901 -.8773 1473.447 -35.83)" gradientUnits="userSpaceOnUse" x1="1190.76" x2="1020.215" y1="-838.267" y2="-839.432"><stop offset=".231" stop-color="#999875"/><stop offset=".563" stop-color="#9b9977"/><stop offset=".683" stop-color="#a09f7e"/><stop offset=".768" stop-color="#a9a889"/><stop offset=".837" stop-color="#b7b69a"/><stop offset=".896" stop-color="#c9c7b0"/><stop offset=".948" stop-color="#deddcb"/><stop offset=".994" stop-color="#f8f6eb"/><stop offset="1" stop-color="#fbf9ef"/></linearGradient><linearGradient id="b" gradientTransform="matrix(-.9771 -.323 .2901 -.8773 1473.447 -35.83)" gradientUnits="userSpaceOnUse" x1="1217.026" x2="971.668" y1="-539.785" y2="-964.758"><stop offset="0" stop-color="#48a547"/><stop offset="1" stop-color="#3f9143"/></linearGradient><linearGradient id="c" gradientTransform="matrix(-.9771 -.323 .2901 -.8773 1473.447 -35.83)" gradientUnits="userSpaceOnUse" x1="1239.503" x2="1065.588" y1="-845.282" y2="-728.463"><stop offset="0" stop-color="#41a247"/><stop offset=".352" stop-color="#4ba74b"/><stop offset=".956" stop-color="#67b554"/><stop offset="1" stop-color="#69b655"/></linearGradient><path d="m162.473 579.257-14.467-4.791s1.844-73.222-24.563-78.348c-17.414-20.178 2.679-861.894 65.942-2.886 0 0-21.654 10.874-25.752 29.335-4.097 18.475-1.16 56.69-1.16 56.69z" fill="url(#a)"/><path d="m170.273 508.548s125.715-82.8 96.262-254.757c-28.364-124.93-95.328-165.997-102.525-181.679-7.921-11.095-15.9-30.761-15.9-30.761l5.347 348.088s-11.062 106.288 16.816 119.109z" fill="url(#b)"/><path d="m140.645 513.174s-117.925-80.446-111.139-222.388c6.786-141.943 90.075-211.732 106.297-224.394 10.487-11.182 10.92-15.49 11.732-26.517 7.351 15.787 6.13 235.85 6.908 261.57 3.023 100.127-5.545 192.83-13.798 211.73z" fill="url(#c)"/><path d="m1486.286 249.26c6.748 0 32.408 1.177 44.33 1.177 22.24 0 37.728-1.177 79.428-1.177 34.957 0 64.353 9.416 85.401 27.457 25.423 21.97 38.924 52.564 38.924 89.828 0 52.956-24.226 83.551-48.453 100.812-24.231 18.042-55.613 28.242-100.491 28.242-23.834 0-64.75-.785-98.907-1.173h-.468c-1.585-3.143 2.927-15.375 5.722-15.692 9.23-1.046 11.732-1.4 16.022-3.167 7.207-2.965 8.914-6.64 9.713-19.587 1.187-24.317.794-53.343.794-86.297 0-23.533.393-69.428-.401-83.943-1.192-12.16-6.346-15.295-16.68-17.652a221.862 221.862 0 0 0 -22.24-3.53c-.795-2.352 5.32-12.946 7.306-15.298zm79.277 218.097c8.342 6.67 25.022 9.416 39.724 9.416 19.062 0 37.733-3.536 56-20.003 18.666-16.874 31.377-42.76 31.377-83.948 0-39.618-15.094-71.784-46.07-90.613-17.482-10.982-40.115-15.295-65.936-15.295-7.547 0-15.095.39-19.465 2.351-1.191.785-3.575 3.924-3.575 5.496-.794 7.058-.794 60.797-.794 92.569 0 32.556 0 78.058.794 83.555.403 4.703 2.781 12.941 7.945 16.472zm202.257-218.097c3.576 0 14.15 1.177 41.153 1.177 25.423 0 46.07-.782 70.698-.782 30.582 0 72.685 10.982 72.685 56.485 0 22.356-15.885 40.402-36.537 49.032-1.196.393-1.196 1.178 0 1.57 29.391 7.45 55.207 25.495 55.207 60.013 0 33.733-21.048 54.918-51.631 68.256-18.67 8.234-41.706 10.98-65.147 10.98-17.87 0-65.766-1.962-92.381-1.565-2.786-1.181 2.549-13.735 4.923-15.692a74.579 74.579 0 0 0 18.018-2.812c9.528-2.353 10.658-5.426 11.85-19.549.8-12.157.8-55.698.8-86.69 0-42.364.392-70.997 0-85.117-.402-10.985-4.375-14.516-11.923-16.478-5.953-1.174-15.88-2.353-23.824-3.53-1.99-1.961 4.124-13.728 6.11-15.298zm161.898 176.126c0-34.518-25.418-54.129-71.895-54.129-1.981 0-16.684-.397-20.254.392-1.192.388-2.379 1.173-2.379 1.957 0 24.716-.402 64.334.79 80.02.794 6.67 5.566 16.085 11.52 18.83 6.36 3.532 20.65 4.317 30.582 4.317 27.409 0 51.636-15.3 51.636-51.387zm-90.163-156.903c-1.584.392-3.576 4.316-3.576 6.278-.392 14.117-.789 50.99-.789 76.484a2.53 2.53 0 0 0 1.986 1.962c5.164.397 17.867.789 28.591.789 15.096 0 23.84-1.966 28.602-4.32 12.712-6.272 18.665-20.003 18.665-34.908 0-34.126-23.83-47.072-59.174-47.072a105.808 105.808 0 0 0 -14.305.787z" fill="#c0bfbe"/><path d="m346.874 495.426c-.662-1.055-1.362-4.175-1.215-7.93.108-2.854.676-4.665 1.21-5.287a131.458 131.458 0 0 0 15.247-3.105c7.022-1.743 9.67-5.535 10.082-14.516 1.154-21.156 1.22-60.825.799-88.725l.005-.822c.033-2.993.08-7.085-3.68-9.971-5.508-3.629-12.375-6.632-21.067-9.238-3.325-.985-5.164-2.733-5.065-4.778.104-1.966 2.19-4.465 6.526-5.3 11.5-1.186 41.658-8.365 53.49-13.824a7.797 7.797 0 0 1 1.593 5.637c-.09 1.237-.198 2.53-.307 3.871-.336 3.942-.714 8.412-.714 12.867a2.911 2.911 0 0 0 2.932 2.555 2.88 2.88 0 0 0 2.053-.87c22.552-17.648 42.722-23.948 53.106-23.948 17.062 0 30.341 8.145 40.603 24.888a2.773 2.773 0 0 0 2.313 1.354 2.613 2.613 0 0 0 2.151-1.154c20.738-15.71 41.29-25.088 55.027-25.088 32.516 0 51.939 24.313 51.939 65.024 0 11.699-.118 26.527-.222 40.37-.1 12.143-.185 23.528-.185 31.407 0 1.91 2.554 7.206 6.412 8.266 4.753 2.312 11.624 3.494 20.297 4.989l.336.055c.657 2.331-.723 11.41-2.043 13.269-2.151-.019-5.136-.173-8.848-.36-6.753-.346-16.003-.812-26.775-.812-21.607 0-32.895.425-43.678 1.12-.813-2.694-1.096-11.38-.108-13.193a116.404 116.404 0 0 0 13.175-3.087c6.876-2.266 8.857-5.38 9.26-14.502.155-6.491 1.404-63.585-.81-77.143-2.037-14.048-12.64-30.492-35.826-30.492-8.598 0-22.497 3.573-35.742 13.604a5.28 5.28 0 0 0 -1.296 3.367l.024.262c1.56 7.319 1.56 15.851 1.56 28.765 0 7.36-.047 15.168-.09 22.92-.09 15.74-.174 30.605.09 41.832 0 7.655 4.635 9.481 8.361 10.957 2.024.449 3.632.836 5.24 1.219 3.121.752 6.351 1.527 11.133 2.293.651 1.509.713 6.015-.185 9.868a7.685 7.685 0 0 1 -1.381 3.373c-12.017-.412-24.345-.771-42.131-.771-5.39 0-14.196.233-21.961.439-6.294.168-12.258.332-15.644.345-.492-.775-1.177-3.26-1.177-6.837 0-3.325.61-5.67 1.239-6.393 1.669-.309 3.258-.59 4.776-.86 4.171-.742 7.774-1.377 11.231-2.227 5.888-1.794 8.096-5.063 8.527-12.54 1.149-17.458 2.047-67.743-.426-80.338-4.209-20.208-15.729-30.45-34.228-30.45-10.849 0-24.54 5.212-35.733 13.595-1.877 1.382-3.296 4.862-3.296 8.075 0 5.987-.019 13.118-.043 20.764-.075 25.256-.165 56.692.45 70.297.378 4.18 1.834 9.158 9.727 10.994 1.721.48 4.705.98 8.162 1.55 1.991.331 4.167.691 6.404 1.093.804 2.162.311 10.638-1.065 13.277-3.451-.023-7.698-.22-12.57-.434-7.443-.327-16.697-.742-27.247-.742-12.414 0-21.059.415-28 .742-4.655.22-8.693.415-12.722.434zm400.403 3.531c-59.676 0-80.937-43.723-80.937-84.634 0-28.578 11.7-50.925 34.786-66.412 16.41-10.074 35.998-15.87 53.694-15.87 45.54 0 77.352 32.707 77.352 79.54 0 31.842-12.712 56.972-36.754 72.679-11.53 7.066-31.538 14.697-48.141 14.697zm-6.36-150.238c-7.232 0-13.98 1.892-19.002 5.33-13.795 8.377-20.813 25.106-20.813 49.681 0 46.021 23.069 78.157 56.096 78.157 9.742 0 17.687-2.797 24.288-8.556 10.149-8.27 15.53-25.163 15.53-48.814 0-45.338-22.547-75.798-56.1-75.798zm624.311 150.238c-59.68 0-80.94-43.718-80.94-84.63 0-28.587 11.708-50.934 34.795-66.42 16.405-10.074 35.992-15.865 53.689-15.865 45.544 0 77.356 32.71 77.356 79.535 0 31.85-12.716 56.981-36.758 72.678-11.53 7.071-31.534 14.702-48.142 14.702zm-6.355-150.238c-7.24 0-13.993 1.892-19.01 5.33-13.786 8.377-20.808 25.102-20.808 49.681 0 46.021 23.063 78.157 56.095 78.157 9.746 0 17.686-2.797 24.288-8.56 10.149-8.267 15.53-25.154 15.53-48.805 0-45.339-22.543-75.803-56.095-75.803zm-199.694 244.386c-21.423 0-36.859-4.516-50.048-14.65-12.825-9.892-18.57-24.557-18.57-34.692a27.111 27.111 0 0 1 7.027-17.643c3.736-4.236 12.38-12.167 32.35-25.888a1.647 1.647 0 0 0 1.04-1.57 1.629 1.629 0 0 0 -1.252-1.634c-16.462-6.295-21.427-16.626-22.921-22.23-.024-.201-.095-.524-.166-.865-.473-2.199-.913-4.277 2.061-6.412 2.304-1.643 6.007-3.834 9.927-6.145 5.788-3.415 12.343-7.282 15.975-10.392a2.597 2.597 0 0 0 -.662-4.068c-24.36-8.177-36.627-26.251-36.627-53.778a53.544 53.544 0 0 1 22.505-44.073c9.794-7.734 34.39-17.033 50.322-17.033l.928.01c16.39.388 25.63 3.815 38.417 8.546 6.943 2.569 13.516 3.61 22.71 3.61 13.567 0 19.492-4.296 24.576-9.228.293.612.984 2.55 1.296 7.015a26.424 26.424 0 0 1 -4.408 16.116c-2.775 3.84-9.202 6.623-15.274 6.623a17.14 17.14 0 0 1 -1.783-.088 50.464 50.464 0 0 1 -9.212-1.537l-1.533.533c-.482.705-.17 1.489.227 2.48a5.233 5.233 0 0 1 .227.612 109.093 109.093 0 0 1 2.214 15.042c0 28.867-11.402 41.458-23.726 50.766a81.07 81.07 0 0 1 -40.99 15.827h-.015c-.317 0-1.783.131-4.743.392-1.906.174-4.285.388-4.635.388l-.35.047c-2.69.761-9.675 4.077-9.675 10.251 0 5.138 3.169 11.503 18.268 12.642 3.06.23 6.347.458 9.775.692 19.938 1.387 44.836 3.115 56.554 7.085 16.117 5.866 26.147 20.287 26.147 37.633 0 25.906-18.439 50.261-49.323 65.145a107.188 107.188 0 0 1 -46.633 10.471zm-2.38-91.014a30.339 30.339 0 0 0 -14.938 3.694c-14.56 9.322-21.31 18.635-21.31 29.353 0 10.111 3.93 18.144 12.372 25.285 10.224 8.654 24.009 12.861 42.144 12.861 35.667 0 51.66-19.157 51.66-38.146 0-13.212-6.639-22.072-20.296-27.078-10.527-3.844-28.11-5.97-49.631-5.97zm2.38-154.936c-18.397 0-30.285 14.51-30.285 36.965 0 22.665 10.224 49.126 39.028 49.126 4.947 0 13.913-2.195 18.353-7.089 6.692-6.141 11.062-18.83 11.062-32.234 0-29.287-14.267-46.768-38.158-46.768zm-96.967 133.854c-8.734-1.177-15.095-2.354-22.638-5.884-1.192-.785-2.785-4.316-2.785-5.492-.794-12.161-.794-47.464-.794-70.606 0-18.83-3.174-35.303-11.118-47.076-9.534-13.334-23.036-21.18-40.514-21.18-15.487 0-36.144 10.592-53.22 25.108-.398.392-3.022 2.877-2.965-.986.061-3.857.657-11.708 1.017-16.654a8.55 8.55 0 0 0 -2.602-7.271c-11.122 5.491-42.442 12.927-54.01 14.122-8.453 1.626-10.583 9.744-1.583 12.548v.002c0 .014.086.029.135.043 9.422 2.831 15.769 5.857 20.507 8.98 3.575 2.746 3.175 6.668 3.175 9.807.397 26.28.396 66.687-.796 88.651-.397 8.63-2.781 11.764-9.136 13.338l.58-.196a123.916 123.916 0 0 1 -14.697 2.746c-1.986 1.957-1.986 13.334 0 15.692 3.972 0 24.231-1.181 40.91-1.181 23.035 0 34.952 1.181 40.911 1.181 2.383-2.75 3.178-13.343 1.59-15.692a84.656 84.656 0 0 1 -16.288-2.354c-6.356-1.569-7.945-4.707-8.337-11.768-.795-18.434-.795-57.66-.795-84.337 0-7.453 1.986-10.984 4.37-12.946 7.94-7.06 21.05-11.763 32.569-11.763 11.118 0 18.665 3.53 24.226 8.233 7.548 6.277 10.328 15.3 11.123 21.969 1.589 14.908 1.187 44.718 1.187 70.605 0 14.123-1.187 17.654-6.351 19.223-2.384 1.177-8.74 2.354-16.287 3.138-2.378 2.349-1.588 13.334 0 15.692 10.328 0 22.245-1.181 39.72-1.181 21.847 0 35.746 1.181 41.307 1.181 2.384-2.75 3.173-12.95 1.589-15.692z" fill="#484748"/></svg>