<svg xmlns="http://www.w3.org/2000/svg" width="400" height="245"><defs><clipPath id="b"><path d="M408.422 686.809h188.652v53.661H408.422v-53.661z"/></clipPath><clipPath id="a"><path d="M303.833 657H612v86.667H303.833V657z"/></clipPath></defs><path fill="none" pointer-events="none" d="M0 0h400v245H0z"/><g clip-path="url(#a)" transform="matrix(2.48478 0 0 -2.48478 -1054.891 1902.276)"><g clip-path="url(#b)"><path d="M478.149 710.015c0-5.043-2.878-7.253-7.319-7.253s-7.23 2.232-7.23 7.141v9.304h4.396v-9.237c0-2.23 1.138-3.303 2.879-3.303 1.74 0 2.878 1.005 2.878 3.192v9.348h4.396m6.561-16.198h-4.24v12.072h4.24v-1.696c.78 1.004 1.896 1.919 3.614 1.919 2.566 0 4.106-1.696 4.106-4.441v-7.855h-4.24v6.493c0 1.34-.69 2.053-1.696 2.053-1.026 0-1.785-.714-1.785-2.053m9.997-6.493h4.24v12.072h-4.24v-12.072zm0 13.448h4.24v2.751h-4.24v-2.751zm12.428-4.723c-1.56 0-2.52-1.183-2.52-2.678 0-1.517 1.07-2.722 2.564-2.722 1.563 0 2.522 1.183 2.522 2.678 0 1.518-1.07 2.722-2.566 2.722zm0-8.971c-3.86 0-6.65 2.79-6.65 6.249 0 3.458 2.812 6.293 6.694 6.293 3.861 0 6.65-2.79 6.65-6.249 0-3.458-2.812-6.293-6.694-6.293m12.366.247h-4.24v12.072h4.24v-1.696c.78 1.004 1.898 1.919 3.616 1.919 2.565 0 4.105-1.696 4.105-4.441v-7.855h-4.24v6.493c0 1.34-.691 2.053-1.695 2.053-1.027 0-1.785-.714-1.785-2.053m21.507-1.865c-.005-1.613-1.335-2.593-3.694-2.61h-5.123v5.153h4.806c1.359.001 2.376-.246 3.034-.676.654-.433.972-1.024.977-1.822v-.045zm-8.817 9.555h4.623c2.219-.019 3.299-.942 3.309-2.362v-.045c-.003-.869-.341-1.496-.933-1.935-.595-.438-1.464-.676-2.511-.675h-4.488v5.017zm7.993-5.774c1.129.615 2.178 1.728 2.173 3.615v.045a3.709 3.709 0 0 1-1.08 2.67c-.962.932-2.45 1.461-4.303 1.461H530v-16.2h7.267c1.769 0 3.253.407 4.309 1.18 1.057.772 1.667 1.923 1.665 3.335v.045c.005 2.082-1.363 3.236-3.058 3.849m12.781-3.917c-.002-.856-.4-1.575-1.063-2.096-.663-.52-1.595-.83-2.63-.83-.758 0-1.453.207-1.947.572-.494.367-.793.877-.795 1.543v.046c.002 1.246 1.085 2.12 3.218 2.136 1.324 0 2.386-.216 3.217-.445v-.925zm-3.103 7.763c-1.759 0-3.049-.42-4.354-1.011l-.176-.08.666-1.813.207.094c1.073.489 2.125.814 3.475.815 1.067 0 1.88-.262 2.421-.747.54-.485.84-1.205.841-2.201v-.088a12.43 12.43 0 0 1-3.376.43c-1.516 0-2.813-.331-3.746-1.006-.934-.673-1.48-1.704-1.479-3.012v-.045c-.002-1.26.584-2.24 1.45-2.878.864-.641 2-.96 3.14-.96h.008c1.84 0 3.14.739 4.003 1.634v-1.386h2.144v7.333c.002 1.524-.423 2.718-1.287 3.574-.89.885-2.245 1.347-3.937 1.347m13.318.067c-1.783.004-2.998-.776-3.807-1.812v1.564h-2.167v-12.074h2.167v6.882c.009 2.09 1.396 3.436 3.308 3.446 1.96-.018 3.014-1.219 3.035-3.31v-7.018h2.167v7.447c0 1.426-.428 2.65-1.24 3.515-.81.867-2 1.362-3.463 1.36m12.551-5.48l5.146 5.232h-2.767l-6.032-6.251v10.377h-2.166v-16.2h2.166v3.167l2.154 2.16 4.114-5.326h2.614" fill="#3142a0"/><path d="M451.452 724.271v-12.09c0-9.95-8.978-13.708-17.179-12.489 2.877.732 5.535 2.663 5.535 7.922v5.544c0 5.231 1.636 10.24 11.644 11.113" fill="#db1f26"/><path d="M424.621 733.07v-21.048c0-9.548 5.721-10.98 7.586-11.276 1.958-.31 4.457.613 5.546 2.263-1.365.824-1.488 3.599-1.488 6.866v12.457c0 8.039-5.698 10.738-11.644 10.738" fill="#db1f26"/><path d="M583.913 713.535c.213 0 .333.112.333.267 0 .176-.12.27-.333.27h-.396v-.537h.396zm-.712.813h.74c.362 0 .631-.176.631-.518 0-.268-.158-.434-.381-.499l.435-.62h-.38l-.388.564h-.341v-.564h-.316v1.637zm2.055-.85v.009c0 .786-.611 1.433-1.426 1.433a1.428 1.428 0 0 1-1.424-1.442v-.01c0-.786.609-1.434 1.424-1.434a1.43 1.43 0 0 1 1.426 1.444zm-3.034-.01v.01c0 .878.711 1.619 1.608 1.619.907 0 1.61-.731 1.61-1.61v-.009a1.62 1.62 0 0 0-1.61-1.621c-.908 0-1.608.732-1.608 1.611" fill="#3142a0"/></g></g></svg>