<svg viewBox="0 0 500 409.5" xmlns="http://www.w3.org/2000/svg"><path d="m5.277 249.862h49.243l28.239 26.138v-26.138h37.69v-93.352h-115.171zm18.553-71.532h21.587l41.542 38.74v-38.74h13.769v50.06h-20.886l-42.242-39.44v39.44h-13.77z" fill="#27aae1"/><path d="m37.6 188.95 42.242 39.441h20.887v-50.06h-13.769v38.741l-41.542-38.741h-21.587v50.06h13.769z" fill="#fff"/><path d="m186.729 186.966-14.936 21.354h29.872z" fill="#34a574"/><path d="m130.135 249.862h115.172v-93.352h-115.172zm47.843-71.765h18.32l35.94 50.41h-16.453l-6.768-9.685h-44.459l-6.768 9.685h-15.753z" fill="#34a574"/><path d="m164.558 218.705h44.459l6.768 9.686h16.453l-35.94-50.294h-18.32l-35.94 50.41h15.752zm22.171-31.74 14.936 21.355h-29.872z" fill="#fff"/><path d="m254.993 249.862h115.172v-93.352h-115.172zm18.087-71.531h77.831v11.319h-31.74v38.74h-14.235v-38.74h-31.857v-11.32z" fill="#375c93"/><path d="m304.936 228.391h14.236v-38.741h31.739v-11.319h-77.831v11.319h31.856z" fill="#fff"/><path d="m379.85 156.51v93.352h115.173v-93.352zm89.268 66.163c-3.734 3.734-11.902 6.651-31.273 6.651-14.353 0-28.122-2.217-35.824-5.484v-11.67c7.352 3.268 23.455 6.419 35.824 6.419 10.852 0 18.437-.35 20.42-2.45a3.041 3.041 0 0 0 .818-2.335 2.647 2.647 0 0 0 -.817-2.1c-1.167-1.167-3.034-1.984-20.304-2.45-18.32-.467-27.305-2.334-31.506-6.535-1.984-1.984-3.034-5.134-3.034-8.752 0-3.85.7-7.235 3.85-10.385 4.201-4.201 12.486-6.185 29.29-6.185 12.602 0 25.205 1.984 31.856 4.668v11.786c-7.585-3.268-20.77-5.602-31.74-5.602-12.135 0-17.27.7-18.903 2.334a3.394 3.394 0 0 0 -.117 4.551c1.517 1.517 7.118 1.984 20.187 2.217 19.137.467 27.422 2.1 31.506 6.068a12.858 12.858 0 0 1 3.268 8.985c.116 3.734-.7 7.468-3.501 10.269z" fill="#8dc63f"/><path d="m438.079 197.235c-13.07-.234-18.67-.7-20.188-2.218a3.394 3.394 0 0 1 .117-4.55c1.517-1.517 6.768-2.334 18.904-2.334 10.969 0 24.154 2.334 31.74 5.6v-11.668c-6.652-2.684-19.371-4.668-31.857-4.668-16.92 0-25.205 2.1-29.29 6.185-3.15 3.15-3.85 6.534-3.85 10.385a12.804 12.804 0 0 0 3.034 8.752c4.2 4.2 13.186 6.068 31.506 6.535 17.27.466 19.137 1.283 20.304 2.45a2.647 2.647 0 0 1 .817 2.1 3.194 3.194 0 0 1 -.817 2.334c-2.1 2.1-9.685 2.45-20.42 2.45-12.37 0-28.356-3.033-35.824-6.417v11.785c7.701 3.268 21.47 5.485 35.824 5.485 19.37 0 27.538-2.917 31.272-6.651 2.8-2.801 3.618-6.535 3.618-10.386a12.657 12.657 0 0 0 -3.268-8.985c-4.2-4.084-12.485-5.718-31.622-6.184z" fill="#fff"/></svg>