<svg height="781.53" viewBox="78.08 3.24 1142.61 781.53" width="1142.61" xmlns="http://www.w3.org/2000/svg"><path d="m107.53 757.34v-57.06h28.53v57.06h28.53v23.93h-85.59v-23.93zm263.19-14.72v-14.72h-43.25v14.72zm14.73 2.76v11.96h-71.78v-43.25h57.98v-14.72h14.72v46.01zm133.43 21.16v-9.2h-57.06v-71.78h14.72v57.06h43.25v-57.06h13.8v95.71h-358.9v-14.72h344.19zm-248.46-80.98v-23.93h14.72v23.93h100.31v14.72h-101.23v57.06h-14.72v-57.06h-14.72v-14.72zm-191.42-23.93h86.5v23.93h-86.5zm95.71 23.93h14.72v71.78h-14.72zm57.06 0h14.72v71.78h-14.72zm-43.26 57.06h43.25v14.72h-43.25zm0-57.06h43.25v14.72h-43.25zm95.71 57.06h14.72v14.72h-14.72zm110.43-57.06h57.06v14.72h-57.06zm0 13.8h14.72v57.06h-14.72zm-315.65-13.8h14.72v71.78h-14.72zm71.78 0h14.72v71.78h-14.72zm78.22-173.93v-302.76h151.85v302.76h150.92v126.08h-453.69v-126.08zm-150.92-504.3h453.68v126.07h-453.68z"/><path d="m78.08 133.41h75.46v378.22h-75.46zm378.23 0h75.46v378.22h-75.46zm463.7 389.79a9.154 9.154 0 0 1 -6.59-2.93c-3-3.65-2.51-9.04 1.1-12.09l284.93-243.18a65.861 65.861 0 0 0 3.66-18.68c0-53.47-35.16-98.89-35.53-99.25 0-.37-.37-.37-.37-.73-48.71-76.18-117.2-100.35-150.16-112.07-18.68-6.59-87.17-26.37-180.19-3.3a279.68 279.68 0 0 0 -178.36 139.54c-17.95 33.33-21.24 58.23-20.88 72.88.03 2.7.27 5.4.73 8.06a114.622 114.622 0 0 1 90.46-37.36 119.118 119.118 0 0 1 93.76 55.3c33.2-54.74 104.49-72.2 159.22-39 15.7 9.52 28.91 22.64 38.55 38.26 19.63-32.78 54.48-53.45 92.66-54.94 4.75-.3 8.85 3.3 9.16 8.06s-3.3 8.85-8.06 9.16c-37.39 1.7-70.52 24.6-85.33 58.96a8.262 8.262 0 0 1 -7.69 5.49 9.107 9.107 0 0 1 -8.06-4.76c-31.5-64.09-93.03-59.7-93.76-59.7h-.37c-38.43 1.61-72.69 24.69-88.63 59.7a8.262 8.262 0 0 1 -7.69 5.49 8.418 8.418 0 0 1 -8.06-5.13c-26.37-58.6-85.7-60.06-86.07-60.06h-.37c-57.13-1.83-86.43 43.58-86.8 44.32a8.622 8.622 0 0 1 -7.69 4.03 8.786 8.786 0 0 1 -7.33-4.4c-.73-1.83-21.24-41.02 16.85-112.07 39.24-74.05 108.07-127.97 189.37-148.31 97.79-24.17 169.94-2.93 190.08 4.03 31.86 11.35 106.94 37.72 158.95 118.66 3.66 4.76 39.19 52.37 39.19 109.51-.45 9.02-2.3 17.92-5.49 26.37a8.36 8.36 0 0 1 -2.56 3.66l-286.77 244.65a8.626 8.626 0 0 1 -5.86 1.83z"/><path d="m918.54 522.1c-2.04-.01-4.01-.8-5.49-2.2l-284.57-242.81c-3.64-3.03-4.13-8.45-1.1-12.09s8.45-4.13 12.09-1.1l284.93 242.82c3.61 3.05 4.1 8.43 1.1 12.09a9.008 9.008 0 0 1 -6.96 3.29z"/><path d="m919.64 522.1a8.783 8.783 0 0 1 -8.06-5.13l-97.78-225.23c-1.92-4.35.05-9.43 4.39-11.35 4.35-1.92 9.43.05 11.35 4.4l97.79 225.24c1.92 4.34-.04 9.42-4.38 11.35 0 0-.01 0-.01.01-1.06.4-2.17.65-3.3.71z"/><path d="m920.01 523.2c-1.13-.07-2.24-.32-3.3-.73a8.595 8.595 0 0 1 -4.4-11.34s0-.01.01-.01l99.62-227.07c1.92-4.35 7-6.32 11.35-4.4s6.32 7 4.4 11.35l-99.62 227.07a8.793 8.793 0 0 1 -8.06 5.13z"/><path d="m1020.36 683.62h-202.9a8.512 8.512 0 0 1 -8.42-8.42v-160.05a8.512 8.512 0 0 1 8.42-8.42h50.54a8.42 8.42 0 0 1 0 16.84h-42.12v142.83h186.05v-142.83h-90.46a8.42 8.42 0 0 1 0-16.84h99.25c4.63.05 8.37 3.79 8.42 8.42v160.05c-.1 4.75-4.03 8.52-8.77 8.42z"/><circle cx="863.24" cy="515.15" r="19.41"/><circle cx="1115.58" cy="222.88" r="19.41"/><path d="m979.7 647.36a8.512 8.512 0 0 1 -8.42-8.42v-87.9a9.157 9.157 0 0 1 5.49-8.06 8.421 8.421 0 0 1 9.52 1.83l18.68 18.68c3.33 3.34 3.32 8.76-.03 12.09-3.33 3.32-8.73 3.32-12.06 0l-4.03-4.03v67.02c-.47 4.78-4.35 8.5-9.15 8.79z"/><path d="m960.66 578.14c-4.75.05-8.65-3.76-8.7-8.51-.03-2.3.87-4.51 2.48-6.14l18.68-18.68c3.33-3.34 8.74-3.36 12.09-.03s3.36 8.74.03 12.09l-.03.03-18.68 18.68a7.336 7.336 0 0 1 -5.87 2.56zm-151.06 139.43h59.02v9.93h-23.18v55.71h-12.76v-55.71h-23.08zm77.6 0h12.76v38.24c0 2.24.12 4.48.36 6.71.21 2.17.9 4.26 2.04 6.11 1.26 1.93 3.03 3.47 5.11 4.46a27.518 27.518 0 0 0 19.3 0c2.08-.99 3.85-2.53 5.1-4.46a14.16 14.16 0 0 0 2.04-6.11c.24-2.23.35-4.47.36-6.71v-38.24h12.76v42.01c.09 3.79-.64 7.55-2.15 11.03a21.365 21.365 0 0 1 -6.08 7.86c-2.79 2.2-6.01 3.82-9.44 4.74a48.916 48.916 0 0 1 -24.51 0c-3.44-.92-6.65-2.53-9.45-4.74-2.61-2.1-4.7-4.8-6.08-7.86a26.28 26.28 0 0 1 -2.14-11.03v-42.01zm85.47 0h50.34v9.93h-37.58v17.19h32.98v9.38h-32.98v29.14h-12.76z"/></svg>