<svg xmlns="http://www.w3.org/2000/svg" width="400" height="245"><path fill="none" pointer-events="none" d="M0 0h400v245H0z"/><path fill="none" pointer-events="none" d="M0 0h400v245H0z"/><g transform="translate(8.455) scale(4.45455)"><path d="M85.084 35.654c-.322.024-.413.485-1.744.586l-2.925.222-.01-.008-53.694 4.075a2.392 2.392 0 0 0-1.551.752l-6.142 6.535-.003-6.074a.627.627 0 0 0-.69-.63l-7.348.558-8.66.57c-1.103.084-2.02 1.106-2.02 2.602 0 .635.185 1.437.506 1.412.322-.024.413-.485 1.745-.585l12.37-.94a.66.66 0 0 1 .704.664l.004 8.222c0 .941 1.153 1.326 1.827.609l9.101-9.683c.42-.447.99-.723 1.584-.768l36.872-2.799 18.561-1.306c1.102-.084 2.02-1.105 2.018-2.601 0-.635-.184-1.438-.505-1.413m-2.049-11.606c.573-2.96 3.155-.919 2.772.641-.86 2.65-3.202 7.662-7.552 8.007-3.776.299-6.261-3.806-6.261-6.96 0-1.482 4.445-3.364 4.445-7.761 0-1.195-.621-1.959-1.53-1.887-1.147.091-3.298 1.791-4.78 6.975v8.22c0 .91.048 2.052-1.338 2.162-.95.076-2.275-.151-2.292-1.89-1.048 1.304-2.43 2.264-4.256 2.409-2.246.178-4.923-.853-4.923-5.06 0-3.058 1.042-5.387 2.571-9.619l-4.339-.803c-.048 1.868-.335 6.048-1.195 8.889-.015.05-.036.087-.053.133-.863 3.179-2.78 7.309-6.734 7.622-1.673.132-2.963-.578-3.68-1.669-.956 1.175-2.295 2.142-4.11 2.286-2.162.171-3.724-.77-4.66-2.377-1.237 1.632-2.912 2.976-5.091 3.15-3.68.29-5.64-2.088-5.64-5.864V13.803c-1 .857-2.104 1.635-2.915 2.024.19 1.324.286 2.606.286 3.754 0 12.092-5.257 18.005-10.85 18.448C3.932 38.582.3 31.843.3 23.287.3 7.037 9.953 2.544 10.336 2.37c.143-.059.334-.122.526-.137 1.05-.084 1.673 1.301 1.673 2.353 0 .621-.192 1.114-.622 1.148-.096.008-.143.012-.239-.029-1.673 1.089-7.552 4.566-7.552 16.802 0 8.65 3.537 12.194 6.93 11.926 3.968-.314 6.931-5.615 6.98-14.558 0-.907-.049-1.907-.144-2.904l-.908.072c-3.968.314-7.17-1.774-7.17-5.454 0-2.486 1.768-4.681 4.35-4.886 3.489-.276 5.496 2.337 6.548 5.6 1.322-.62 2.895-2.143 3.68-2.979v-.42c0-3.584 1.96-6.272 4.35-6.462 4.205-.333 4.253 4.682 4.253 7.358 0 7.027-4.35 17.026-4.97 17.649v2.772c0 1.912.764 3.238 2.532 3.098 1.552-.123 2.816-1.724 3.578-3.407-.024-.305-.04-.616-.04-.936 0-7.982 5.544-13.297 11.375-13.758 1.29-.103 2.199.59 2.199 1.833 0 .813-.144 1.11-.622 1.148-.43.035-.908-.023-1.386.015-3.632.287-7.887 3.731-7.887 10.613 0 2.486 1.052 3.837 2.725 3.705 1.29-.103 2.151-1.318 2.677-2.698v-7.36c0-.909-.191-1.18-.191-1.515 0-.478.573-.858 1.242-.911 1.578-.125 2.581.751 2.581 1.899v7.886c0 1.051.478 2.16 1.626 2.07 1.911-.151 2.772-3.279 3.202-5.415.008-.043.02-.08.028-.12.007-.041.009-.082.02-.123.525-1.954.716-5.936.764-8.378-1.195-.574-2.055-1.51-2.055-2.896 0-1.339 1.147-2.29 2.39-2.388 1.146-.09 2.485.377 3.01 2.295 2.214.3 5.2.927 5.2.927 1.261.258 2.486 1.38 2.295 2.495 0 .573-2.332 5.25-2.332 10.03 0 1.339.621 2.532 1.912 2.43 2.198-.174 3.011-3.297 3.441-5.435.048-.253.113-.471.191-.658V2.846c0-1.387-.478-1.444-.478-1.779 0-.335.86-.593 1.53-.647 1.577-.125 2.58.752 2.58 1.9v14.912c1.53-2.224 3.442-4.24 5.593-4.41 2.963-.235 4.254 2.148 4.254 4.825 0 3.68-2.677 6.617-4.589 8.154.478 2.018 1.53 3.846 3.394 3.699 2.198-.174 3.824-3.315 4.254-5.452zM16.837 13.757l.574-.045c-.478-2.161-1.434-3.71-2.916-3.593-.956.075-1.195.763-1.195 1.29 0 1.146 1.052 2.544 3.537 2.348zm11.184-6.191v13.622c1.004-2.087 2.008-8.476 2.008-11.105 0-3.155-.526-4.546-1.29-4.486-.526.042-.718 1.204-.718 1.969z" fill="#231F20" fill-rule="evenodd"/></g></svg>