<svg viewBox="0 0 604.5 534.59998" xmlns="http://www.w3.org/2000/svg"><path d="m188.9 5.4s-23.4 78.7-21.7 102.1c1.2 16.4 31.7 37.9 31.7 37.9s-16.6 19.7-23 30.8c-6.6 11.4-16.7 37.6-16.7 37.6s-50-58.7-45.9-87.5c4.9-34.8 75.6-120.9 75.6-120.9zm227.1 0s23.4 78.7 21.7 102.1c-1.2 16.4-31.7 37.9-31.7 37.9s16.6 19.7 23 30.8c6.6 11.4 16.7 37.6 16.7 37.6s50-58.7 45.9-87.5c-4.9-34.8-75.6-120.9-75.6-120.9z" fill="#bfbfbf"/><path d="m303.2 97.6c-66.3 0-124.8 46.9-144.1 115.7l144.1 47.8z" fill="#7d9199"/><path d="m303.1 97.3c66.3 0 124.8 47 144.1 115.7l-144.1 47.8z" fill="#566366"/><path d="m302.8 213.2h-144v100.7s58.2 22.8 82.2 41.2c19.9 15.3 58.3 69.4 58.3 69.4h3.6v-211.3z" fill="#7d9199"/><path d="m302.9 211.8h144v100.7s-58.2 22.8-82.2 41.2c-20.5 15.7-58.5 70.7-58.5 70.7h-3.5z" fill="#566366"/><circle cx="303" cy="208.4" fill="#fff" r="18.1"/><path d="m51 490.8a32.679 32.679 0 0 1 -2.6 13.4 19.66 19.66 0 0 1 -18.7 12 19.766 19.766 0 0 1 -18.6-11.9 30.51 30.51 0 0 1 -2.7-13.2v-2.9a31.116 31.116 0 0 1 2.7-13.4 20.082 20.082 0 0 1 7.5-8.9 19.737 19.737 0 0 1 11.1-3.1 19.737 19.737 0 0 1 11.1 3.1 20.357 20.357 0 0 1 7.5 8.8 30.969 30.969 0 0 1 2.7 13.3zm-8.9-2.7c0-5.8-1.1-10.2-3.2-13.3a10.353 10.353 0 0 0 -9.1-4.6 10.183 10.183 0 0 0 -9 4.6c-2.2 3.1-3.3 7.4-3.3 13v3c0 5.7 1.1 10.1 3.3 13.3a10.555 10.555 0 0 0 9.1 4.7 10.353 10.353 0 0 0 9.1-4.6c2.1-3 3.2-7.5 3.2-13.4v-2.7zm50.3 8.4c0 6-1.3 10.8-4 14.3a12.741 12.741 0 0 1 -10.8 5.3 12.699 12.699 0 0 1 -10-4.2v18.3h-8.6v-53.5h7.9l.4 3.9c2.5-3.1 5.9-4.6 10.3-4.6a12.8 12.8 0 0 1 10.9 5.3c2.6 3.5 4 8.4 4 14.6v.6zm-8.5-.8a16.47 16.47 0 0 0 -2.3-9.2 7.287 7.287 0 0 0 -6.5-3.4 7.83 7.83 0 0 0 -7.5 4.4v17.2a7.991 7.991 0 0 0 7.6 4.5 7.368 7.368 0 0 0 6.4-3.3c1.5-2.3 2.3-5.6 2.3-10.2zm32.6 20.4c-5.4 0-9.8-1.7-13.2-5.2s-5.1-8.1-5.1-13.8v-1.1a22.619 22.619 0 0 1 2.2-10.3 17.164 17.164 0 0 1 6.2-7.1 16.171 16.171 0 0 1 8.9-2.5c5.2 0 9.2 1.7 12 5 2.8 3.4 4.2 8.1 4.2 14.3v3.5h-24.9a11.795 11.795 0 0 0 3.2 7.6 9.269 9.269 0 0 0 7 2.8 11.66 11.66 0 0 0 9.6-4.8l4.6 4.5a15.937 15.937 0 0 1 -6.1 5.4 21.99 21.99 0 0 1 -8.6 1.7zm-1.1-33.1a7.227 7.227 0 0 0 -5.7 2.5 13.6 13.6 0 0 0 -2.8 7h16.3v-.6a11.031 11.031 0 0 0 -2.3-6.6 6.873 6.873 0 0 0 -5.5-2.3zm30.9-6.2.2 4.5a13.47 13.47 0 0 1 11.1-5.2c7.9 0 12 4.6 12.1 13.8v25.5h-8.6v-25c0-2.5-.5-4.3-1.6-5.4-1-1.2-2.8-1.8-5.1-1.8a8.169 8.169 0 0 0 -7.7 4.8v27.5h-8.6v-38.7zm59.9 19.3v19.3h-8.9v-52h19.7c5.7 0 10.3 1.5 13.7 4.5a15.21 15.21 0 0 1 5.1 12c0 5.1-1.7 9.1-5 11.9s-7.9 4.3-13.9 4.3zm0-7.3h10.8c3.2 0 5.6-.8 7.3-2.3s2.5-3.7 2.5-6.6a8.825 8.825 0 0 0 -2.5-6.7c-1.7-1.7-4-2.5-7-2.6h-11v18.2zm34.4 6.9a22.48 22.48 0 0 1 2.2-10.2 16.957 16.957 0 0 1 6.2-7 17.785 17.785 0 0 1 9.2-2.4 16.72 16.72 0 0 1 12.5 5c3.2 3.4 4.9 7.8 5.2 13.4v2a22.48 22.48 0 0 1 -2.2 10.2 16.226 16.226 0 0 1 -6.2 7 17.952 17.952 0 0 1 -9.3 2.5q-8.1 0-12.9-5.4c-3.2-3.6-4.8-8.5-4.8-14.5v-.6zm8.5.8q0 6 2.4 9.3a7.796 7.796 0 0 0 6.8 3.4 7.623 7.623 0 0 0 6.7-3.4c1.6-2.3 2.4-5.6 2.4-10 0-3.9-.8-7-2.5-9.3a8.301 8.301 0 0 0 -13.4 0c-1.6 2.2-2.4 5.5-2.4 10zm43.3 18.9h-8.6v-54.9h8.6zm9.3-48.7a4.297 4.297 0 0 1 1.3-3.3 4.546 4.546 0 0 1 3.6-1.3 4.688 4.688 0 0 1 3.6 1.3 4.872 4.872 0 0 1 1.3 3.3 4.446 4.446 0 0 1 -1.3 3.3 4.546 4.546 0 0 1 -3.6 1.3 4.688 4.688 0 0 1 -3.6-1.3 4.446 4.446 0 0 1 -1.3-3.3zm9.1 48.7h-8.6v-38.7h8.6zm25-6.2a7.506 7.506 0 0 0 5.3-1.9 6.644 6.644 0 0 0 2.3-4.7h8.1a12.444 12.444 0 0 1 -2.2 6.7 14.77 14.77 0 0 1 -5.6 4.9 16.488 16.488 0 0 1 -7.7 1.8c-5.3 0-9.6-1.8-12.7-5.3s-4.7-8.3-4.7-14.5v-.9c0-5.9 1.6-10.6 4.7-14.1s7.3-5.3 12.7-5.3a15.612 15.612 0 0 1 11.1 4 14.232 14.232 0 0 1 4.5 10.6h-8.1a8.245 8.245 0 0 0 -2.2-5.5 7.237 7.237 0 0 0 -5.3-2.1 7.318 7.318 0 0 0 -6.4 3.1c-1.5 2-2.3 5.1-2.3 9.3v1.4c0 4.2.7 7.3 2.2 9.4 1.3 2.1 3.5 3.1 6.3 3.1zm35.4-6.2 7.8-26.2h9.1l-15.2 44.5c-2.3 6.5-6.3 9.8-11.8 9.8a16.244 16.244 0 0 1 -4.1-.6v-6.8l1.6.1a8.23 8.23 0 0 0 4.9-1.2 7.564 7.564 0 0 0 2.6-4l1.2-3.3-13.4-38.5h9.2zm69.3.3h-19.9l-4.2 12.1h-9.3l19.4-52h8l19.4 52h-9.3zm-17.3-7.3h14.8l-7.4-21.6zm34.3-.2q0-9 4.2-14.4a13.374 13.374 0 0 1 11.1-5.4 12.561 12.561 0 0 1 10.3 4.6l.4-3.9h7.7v37.5c0 5.1-1.6 9.1-4.7 12s-7.3 4.4-12.6 4.4a19.904 19.904 0 0 1 -8.2-1.8 14.703 14.703 0 0 1 -6.1-4.6l4.1-5.2a12.114 12.114 0 0 0 9.7 4.8 9.548 9.548 0 0 0 6.7-2.3 9.381 9.381 0 0 0 2.5-6.9v-2.6a12.63 12.63 0 0 1 -9.9 4.2 13.137 13.137 0 0 1 -10.9-5.4c-2.9-3.6-4.3-8.6-4.3-15zm8.5.8a16.47 16.47 0 0 0 2.3 9.2 7.54 7.54 0 0 0 6.5 3.3 8.235 8.235 0 0 0 7.7-4.5v-17a8.174 8.174 0 0 0 -7.6-4.4 7.569 7.569 0 0 0 -6.6 3.4c-1.5 2.2-2.3 5.6-2.3 10zm50.7 19.5c-5.4 0-9.8-1.7-13.2-5.2s-5.1-8.1-5.1-13.8v-1.1a22.619 22.619 0 0 1 2.2-10.3 17.164 17.164 0 0 1 6.2-7.1 16.171 16.171 0 0 1 8.9-2.5c5.2 0 9.2 1.7 12 5 2.8 3.4 4.2 8.1 4.2 14.3v3.5h-24.9a11.794 11.794 0 0 0 3.2 7.6 9.269 9.269 0 0 0 7 2.8 11.66 11.66 0 0 0 9.6-4.8l4.6 4.5a15.937 15.937 0 0 1 -6.1 5.4 21.631 21.631 0 0 1 -8.6 1.7zm-1-33.1a7.227 7.227 0 0 0 -5.7 2.5 13.6 13.6 0 0 0 -2.8 7h16.3v-.6a11.032 11.032 0 0 0 -2.3-6.6 6.873 6.873 0 0 0 -5.5-2.3zm30.9-6.2.2 4.5a13.47 13.47 0 0 1 11.1-5.2c7.9 0 12 4.6 12.1 13.8v25.5h-8.6v-25c0-2.5-.5-4.3-1.6-5.4-1-1.2-2.8-1.8-5.1-1.8a8.169 8.169 0 0 0 -7.7 4.8v27.5h-8.6v-38.7zm42.9-9.4v9.4h6.7v6.4h-6.7v21.6a4.705 4.705 0 0 0 .9 3.2 3.855 3.855 0 0 0 3.1 1 10.323 10.323 0 0 0 3-.4v6.7a22.915 22.915 0 0 1 -5.6.8c-6.6 0-9.9-3.7-9.9-11v-21.9h-6.3v-6.4h6.3v-9.4z"/></svg>