<svg viewBox="0 0 500 409.5" xmlns="http://www.w3.org/2000/svg"><path d="m78.88 261.18h-11.65v20.27h11.386c7.634 0 12.635-4.081 12.635-10.136v-.131c0-6.582-4.935-10.004-12.372-10.004zm-51.4-.79c-10.53 0-18.032 8.423-18.032 18.887v.132c0 10.464 7.634 19.02 18.164 19.02s18.032-8.424 18.032-18.888v-.132c0-10.464-7.634-19.02-18.164-19.02zm347.296 11.122v-.132c0-4.936-3.554-7.634-9.543-7.634h-11.78v15.466h11.846c5.791 0 9.477-3.028 9.477-7.7z" fill="none"/><path d="m27.612 255.585c-14.018 0-23.56 11.123-23.56 23.824v.132c0 12.701 9.41 23.692 23.428 23.692s23.56-11.122 23.56-23.824v-.132c0-12.701-9.41-23.692-23.428-23.692zm18.032 23.956c0 10.464-7.502 18.887-18.032 18.887s-18.164-8.555-18.164-19.02v-.13c0-10.465 7.502-18.889 18.032-18.889s18.164 8.556 18.164 19.02zm33.631-23.166h-17.243v46.068h5.2v-16.255h11.187c9.806 0 18.098-5.133 18.098-15.071v-.132c0-9.082-6.844-14.61-17.242-14.61zm11.977 14.94c0 6.054-5.001 10.134-12.635 10.134h-11.387v-20.27h11.65c7.437 0 12.372 3.422 12.372 10.004zm19.942 10.266h25.141v-4.738h-25.141v-15.73h28.102v-4.738h-33.301v46.068h33.63v-4.738h-28.431zm72.789 11.714-29.023-36.92h-4.87v46.068h5.068v-37.776l29.747 37.776h4.146v-46.068h-5.068zm40.146-15.136-14.018-21.784h-8.621v46.068h7.963v-32.906l14.413 21.587h.263l14.545-21.718v33.037h8.095v-46.068h-8.622zm42.582 4.672h23.1v-7.239h-23.1v-11.977h26.061v-7.24h-34.156v46.068h34.485v-7.239h-26.39zm32.709-18.954h14.61v38.566h8.161v-38.566h14.61v-7.502h-37.381zm83.582 7.174v-.132a13.924 13.924 0 0 0 -3.817-9.937c-2.961-2.896-7.503-4.607-13.294-4.607h-20.533v46.068h8.095v-16.058h10.135l11.32 16.058h9.542l-12.438-17.44c6.449-1.843 10.99-6.384 10.99-13.952zm-29.55 8.16v-15.465h11.78c5.99 0 9.544 2.698 9.544 7.634v.132c0 4.672-3.686 7.7-9.477 7.7zm39.949-22.836h8.095v46.068h-8.095zm42.053 39.421c-8.819 0-15.202-7.37-15.202-16.387v-.132c0-9.016 6.383-16.255 15.202-16.255 5.265 0 9.214 2.303 12.9 5.726l5.198-5.99c-4.409-4.211-9.542-7.173-18.032-7.173-13.952 0-23.758 10.728-23.758 23.824v.132c0 13.228 10.003 23.692 23.43 23.692 8.62 0 13.885-3.159 18.69-8.16l-5.2-5.266c-3.948 3.686-7.568 5.99-13.228 5.99zm44.687-20.072c-8.819-2.106-10.924-3.686-10.924-7.24v-.131c0-3.028 2.764-5.462 7.502-5.462 4.212 0 8.358 1.645 12.504 4.738l4.344-6.12a25.534 25.534 0 0 0 -16.716-5.792c-9.148 0-15.73 5.462-15.73 13.36v.131c0 8.49 5.529 11.386 15.335 13.755 8.555 1.974 10.398 3.751 10.398 7.042v.131c0 3.488-3.159 5.792-8.16 5.792-5.726 0-10.136-2.172-14.545-5.989l-4.87 5.791a28.378 28.378 0 0 0 19.217 7.371c9.674 0 16.453-5.133 16.453-13.754v-.132c0-7.634-5.068-11.122-14.808-13.491z" fill="#191919"/><path d="m317.086 157.347c-1.06-39.69-39.648-71.311-78.634-64.273-39.495 7.13-63.87 43.01-55.927 82.316 7.468 36.958 47.612 61.295 83.772 51.224 2.554-.842 4.528-1.702 4.528-1.702l-2.506-12.427s-3.152 1.205-4.794 1.762a50.456 50.456 0 0 1 -22.377 1.361c-31.148-4.726-52.878-34.797-46.956-64.546 6.492-32.612 37.113-52.323 68.94-44.375 39.388 9.836 54.99 61.138 27.494 90.214-.489-1.772-.811-2.584-1.073-3.751-3.876-17.272-7.758-34.543-11.518-51.84-.968-4.456-1.912-8.9-7.405-9.483-5.44-.579-7.555 3.264-9.25 7.636-3.87 9.978-8.034 20.708-12.373 30.303-1.528-2.69-1.711-3.056-2.533-4.416-3.77-6.246-7.18-12.701-10.816-19.026-1.676-2.916-4.123-4.812-7.644-4.445a7.123 7.123 0 0 0 -6.47 5.16c-3.728 12.313-7.044 24.661-10.856 37.532l13.078-.565s.924-3.544 1.454-6.24c1.166-5.942 2.978-11.757 4.828-18.856 3.991 7.616 7.36 14.022 10.708 20.44 1.967 3.768 4.77 6.535 9.268 6.247 4.438-.283 6.248-4.307 7.796-7.833 1.087-2.476 7.152-18.357 10.397-27.33.408 2.118.679 2.915.931 4.137 4.13 19.995 8.53 39.94 12.257 60.01.39 2.104 1.154 5.36 1.154 5.36a43.33 43.33 0 0 0 4.962-2.997c20.167-14.758 30.238-34.435 29.565-59.597z" fill="#c42227"/></svg>