<svg height="245" viewBox="0 0 400 245" width="400" xmlns="http://www.w3.org/2000/svg"><path d="m0 0h400v245h-400z" fill="none" pointer-events="none"/><path d="m0 0h400v245h-400z" fill="none" pointer-events="none"/><g transform="matrix(.39177 0 0 .39177 0 74.704)"><path d="m402 87h32v102h-32zm39 0h31v14h1c8-11 17-17 31-17s35 16 35 38v66h-32v-59c0-11-5-18-16-18s-18 9-18 21v56h-32zm-4-27a19 19 0 0 1 -19 19 19 19 0 0 1 -19-19 19 19 0 0 1 19-19 19 19 0 0 1 19 19zm330 26h-3c-12 0-21 5-28 17h-1v-16h-31v102h32v-46c0-21 12-31 30-29zm158 39c-13-2-24-3-24-11s6-9 14-9 15 3 16 12h30c-2-20-17-33-46-33s-44 11-44 33 19 29 36 32 26 3 26 12-6 10-16 10-16-4-18-12h-30c2 21 21 34 49 34s46-11 46-34-21-31-39-34zm-106 43c-13 0-21-9-23-22h73c0-21-6-38-18-49s-20-13-35-13c-31 0-52 23-52 54s21 54 54 54c13 0 23-3 32-9a41 41 0 0 0 17-24h-32c-2 6-8 9-16 9zm-2-61c11 0 18 8 19 20h-40c2-12 8-20 21-20zm204 58h-5c-7 0-11-2-11-10v-48h17v-20h-17v-32h-32v32h-10v20h10v55c0 22 13 28 32 28h16zm-424 0h-4c-7 0-11-2-11-10v-48h15v-20h-15v-32h-32v32h-10v20h11v55c0 22 13 28 32 28h15z" fill="#bd081c"/><path d="m596 138c0-30 21-54 52-54 14 0 26 5 35 13s18 29 18 49h-74c2 14 10 22 23 22s14-4 17-10h32a41 41 0 0 1 -17 24c-9 6-19 9-32 9-34 1-54-23-54-53zm72-11c-1-12-9-20-19-20s-19 8-21 20zm-380-80h56c17 0 30 5 39 13s14 21 14 35c0 27-19 46-48 46h-28v47h-33zm57 67c13 0 20-8 20-19s-7-18-20-18h-24v37z" fill="#bd081c"/><path d="m244 122a122 122 0 0 1 -122 122 122 122 0 0 1 -122-122 122 122 0 0 1 122-122 122 122 0 0 1 122 122z" fill="#fff"/><path d="m122 0a122 122 0 0 0 -44 236c-1-10-2-24 0-35l14-61a44 44 0 0 1 -4-18c0-17 10-30 22-30s15 8 15 17-7 26-10 41 6 22 18 22 38-23 38-56-21-50-51-50-54 27-54 54c0 10 4 22 9 28a4 4 0 0 1 1 3l-3 14c-1 2-2 3-4 2-15-7-25-29-25-47 0-38 28-74 81-74s75 30 75 70-27 76-63 76c-12 0-24-6-28-14l-8 29c-3 11-10 24-15 32a122 122 0 1 0 36-239z" fill="#bd081c"/></g></svg>