<svg xmlns="http://www.w3.org/2000/svg" width="400" height="245"><path fill="none" pointer-events="none" d="M0 0h400v245H0z"/><path fill="#38A89B" d="M77.936 78.71h13.429v12.968h-13.43V78.71zm0 22.495h13.429v64.386h-13.43v-64.386zm91.022 0l-18.713 55.665c-3.214 9.065-8.953 10.328-13.659 10.328-6.886 0-11.018-3.213-13.43-10.328l-15.609-46.254h-6.197v-9.411h16.068l16.07 51.76c.689 2.182 1.148 3.559 3.098 3.559 2.066 0 2.41-1.377 3.1-3.559l16.412-51.76h12.86zm33.046 0c17.457 0 29.496 11.477 29.496 27.888v10.101c0 16.413-12.04 28.005-29.496 28.005-17.334 0-29.496-11.592-29.496-28.005v-10.1c0-16.411 12.162-27.889 29.496-27.889zm0 55.319c10.45 0 16.874-7.805 16.874-17.33v-10.1c0-9.41-6.425-17.33-16.874-17.33-11.016 0-16.874 7.92-16.874 17.33v10.1c0 9.525 6.088 17.33 16.874 17.33zm136.818-53.254c-6.777-1.721-17.21-2.983-24.907-2.983-17.669 0-28.578 11.133-28.578 29.037v7.116c0 17.905 10.909 29.152 28.578 29.152.46 0 3.566 0 4.943-.115v-10.789c-.458 0-4.605.115-4.943.115-9.638 0-16.063-7.344-16.063-18.363v-7.116c0-11.017 6.425-18.364 16.063-18.364 4.361 0 10.91.345 13.203.805l.69.115v53.711h13.417v-60.14c0-1.147 0-1.491-2.403-2.18zm15.375-24.56h13.433v86.881h-13.433zm-98.815 8.608v13.887h21.923v10.445h-21.923v37.529c0 5.854 3.779 6.083 9.18 6.083h12.743v10.329H260.08c-12.622 0-18.238-5.05-18.238-16.413V89.153l13.54-1.835zM31.452 78.71l-23.76.115v86.766h14.692V91.91h7.346c1.723 0 3.328 0 4.82.114 12.053.23 18.021 3.902 18.021 13.198 0 .46.115.69.115 1.033 0 8.722-4.821 14.461-17.906 14.461-1.262 0-3.213-.23-3.213-.23v11.937h3.213c18.823 0 32.138-7.346 32.138-26.053v-1.034c0-19.28-14.461-26.626-35.466-26.626zm345.939 6.77a7.437 7.437 0 0 1 7.45-7.458 7.45 7.45 0 0 1 7.467 7.459 7.452 7.452 0 0 1-7.467 7.46 7.438 7.438 0 0 1-7.45-7.46zm7.45-6.77c-3.779 0-6.762 3.098-6.762 6.77 0 3.789 2.983 6.888 6.762 6.888 3.673 0 6.777-3.1 6.777-6.887 0-3.673-3.104-6.77-6.777-6.77zm-1.147 10.673h-1.942v-7.92h3.318c2.066 0 3.107 1.035 3.107 2.527 0 1.033-.46 1.952-1.5 2.296l1.958 3.097h-2.187l-1.485-2.754-1.269.115v2.64zm1.04-4.016c1.026 0 1.484-.459 1.484-1.262 0-.69-.458-1.148-1.484-1.148h-1.04v2.41h1.04z"/></svg>