<svg viewBox="-2.72 -1.34 141.44 54.08" xmlns="http://www.w3.org/2000/svg"><path d="m131.3 38.6c-2.6 0-4.8 2.1-4.8 4.7 0 2.5 2.1 4.7 4.7 4.7.4 0 .8-.1.9-.1l-2.6 3.6c-.1.1-.1.2-.1.3s.2.2.3.2h.8c.2 0 .5-.2.7-.3l3.7-5.2c.1-.2.3-.5.4-.6 0-.1.8-1.5.8-2.5-.1-2.7-2.1-4.8-4.8-4.8zm3.3 4.7c0 1.8-1.5 3.3-3.3 3.3s-3.3-1.5-3.3-3.3 1.5-3.3 3.3-3.3 3.3 1.5 3.3 3.3z" fill="#00aae7"/><path d="m35.8 39.3c-.1-.2-.2-.3-.3-.3h-1c-.2 0-.3.2-.4.3l-5.8 12.3c-.1.1-.1.3-.1.4 0 0 .1.1.2.1h1.2c.1 0 .3 0 .3-.1.1-.1.1-.2.1-.3l1.2-2.6c.1-.1.1-.2.1-.2h7.2c.1 0 .1 0 .1.1l1.3 2.7c.1.1.1.3.4.3h1.2c.1 0 .2-.1.2-.1s.1-.1 0-.2zm2.2 8.1h-6l3-6.3zm-13.8 3.1h-6.9v-11.3c0-.2-.1-.3-.3-.3h-1c-.3 0-.3.1-.3.3v12.5c0 .2.1.3.3.3h8.1c.2 0 .3-.1.3-.3l-.1-.9c0-.1 0-.2-.1-.3zm-17.9-11.5h-5.9c-.4 0-.4.2-.4.5v12.3c0 .1.1.2.3.2h.9c.2 0 .3-.1.3-.4v-5.3c0-.1 0-.2.2-.2h4.9c2.3 0 3.9-1.5 3.9-3.6 0-1.7-1.3-3.5-4.2-3.5zm2.7 3.6c0 1.1-.9 2.2-2.6 2.2h-4.6c-.1 0-.2-.1-.2-.2v-4.1c0-.1.1-.1.1-.1h4.7c.9 0 1.6.3 2 .7s.6.9.6 1.5zm46.4-3.7h-13.2c-.2 0-.2.1-.2.3v.8c0 .2 0 .3.3.3h5.7v11.3c0 .2.1.3.3.3h1c.2 0 .3-.1.3-.3v-11.1-.1h5.7c.3 0 .3-.1.3-.3v-.9c.1-.3-.1-.3-.2-.3zm47.3 3.6c0-1.8-1.3-3.6-4.2-3.6h-5.9c-.4 0-.4.3-.4.5v12.3c0 .2.1.3.3.3h.9c.2 0 .3-.1.3-.4v-5.3c0-.1 0-.2.2-.2h2c.5.7 2.9 3.5 4.6 5.6 0 0 .2.2.5.2h1.2s.5 0 .3-.2l-.2-.2c-1.6-2-3.8-4.6-4.5-5.5h.8c2.5.2 4.1-1.3 4.1-3.5zm-1.5.1c0 1.1-.9 2.2-2.6 2.2h-4.6c-.1 0-.2-.1-.2-.2v-4.1c0-.1.1-.1.1-.1h4.7c.9 0 1.6.3 2 .7s.6.9.6 1.5zm-30.9-3.5h-10.1c-.2 0-.4.2-.4.4v12.4c0 .2.1.3.2.3h1.1c.1 0 .2-.1.2-.2v-5.6h7.6c.1 0 .2-.1.2-.2v-1c0-.1-.1-.2-.2-.2h-7.6v-4.1c0-.1 0-.1.1-.1h8.9c.2 0 .3-.1.3-.3v-.9c0-.1 0-.2-.1-.2 0-.3-.1-.3-.2-.3zm50-.2h-.8c-.2 0-.3.1-.4.2l-4.8 4.9-.1.1s-.1 0-.1-.1l-4.8-4.9s-.2-.1-.4-.1h-.8c-.1 0-.3 0-.3.3v12.5c0 .3.1.3.3.3h1c.1 0 .3 0 .3-.3v-10l4.3 4.2s.2.2.5.2.5-.2.5-.2l4.3-4.3v10.1c0 .2.1.3.3.3h1.1c.2 0 .3-.1.3-.3v-12.5c-.1-.1-.1-.3-.4-.4zm-39.8-.3c-4 0-7.2 3.1-7.2 6.9s3.2 6.9 7.2 6.9 7.2-3.1 7.2-6.9-3.2-6.9-7.2-6.9zm5.6 6.8c0 2.9-2.5 5.3-5.6 5.3s-5.6-2.4-5.6-5.3 2.5-5.3 5.6-5.3c3.1.1 5.6 2.4 5.6 5.3z" fill="#00000a"/><path d="m95 11-8.3-3.4-1.5-.6-7-2.8-1.5-.6s-8.3-3.4-8.5-3.5-.3 0-.3 0l-8.4 3.4-1.5.6-7 2.9-1.5.6-8.5 3.4s-.1.1 0 .1c0 0 4.3 1.8 9.4 3.8 7.2 3 16.2 6.6 17.5 7.2h.3c1.2-.5 10.2-4.2 17.4-7.1 5-2.1 9.3-3.8 9.4-3.8.3-.1 0-.2 0-.2zm-11.4-3.4-7 2.8-7-2.8 7-2.9zm-8.5 3.5-7 2.9-7-2.8 7-2.9zm-7.1-9.8 7 2.9-7 2.9-7-2.9zm-8.5 3.4 7 2.9-7 2.9-7.1-2.9zm-15.5 6.4 7-2.8 7 2.9-7 2.8zm8.6 3.5 7-2.9 7 2.9-7 2.8zm15.4 6.3-7-2.9 7-2.9 7 2.8zm8.6-3.5-7-2.8 7-2.9 7 2.8zm8.6-3.5-7-2.8 7-2.8 7 2.8z" fill="#00aae7"/><path d="m75.1 11.1-7 2.9-7-2.9 7-2.9zm8.5 3.5-7 2.8-7-2.8 7-2.9zm-8.6 3.5-7 2.8-6.9-2.8 7-2.9z" fill="#008ccc"/><path d="m94 18.5-26.1 10.7-26.2-10.7 8.6-3.5c7.2 3 16.2 6.6 17.5 7.2h.3c1.2-.5 10.2-4.2 17.4-7.1z" fill="#007bb6"/><path d="m58 11.1-7 2.9-7-2.9 6.9-2.9z" fill="#68cef2"/><path d="m66.5 14.6-7 2.9-6.9-2.9 6.9-2.8z" fill="#008ccc"/><path d="m66.6 7.6-7.1 2.9-7-2.9 7-2.9zm8.5-3.5-7 2.9-7-2.9 6.9-2.8zm8.5 3.5-7 2.9-7-2.9 7-2.8zm8.5 3.5-6.9 2.8-7-2.8 6.9-2.9z" fill="#68cef2"/></svg>