<svg viewBox="0 0 500 409.5" xmlns="http://www.w3.org/2000/svg" xmlns:xlink="http://www.w3.org/1999/xlink"><radialGradient id="a" cx="-694.629" cy="618.592" gradientTransform="matrix(-38.7287 45.0999 -45.1 -38.7286 1247.153 55375.108)" gradientUnits="userSpaceOnUse" r="3.165"><stop offset="0" stop-color="#7f7f7f"/><stop offset="1"/></radialGradient><ellipse cx="250.379" cy="383.131" fill="#e4e4e4" rx="66.585" ry="7.957"/><path d="m157.348 243.729-14.51-19.309 3.159-2.34 12.872 16.968 1.405-4.447-12.288-16.266 3.16-2.34 10.532 14.043 1.404-4.447-10.064-13.224 3.16-2.34 8.308 11 5.851-18.606s-19.425-32.883-23.404-40.84c-6.553-13.575-46.925-2.107-45.872 22.467 1.053 24.224 50.319 79.106 50.319 79.106z"/><path d="m341.772 231.793 14.51-19.309-3.159-2.34-12.872 16.968-1.404-4.447 12.287-16.266-3.16-2.34-10.532 14.042-1.404-4.446 10.064-13.224-3.16-2.34-8.308 11-5.851-18.606s19.425-32.883 23.404-40.84c6.553-13.575 46.925-2.107 45.872 22.467s-50.319 79.106-50.319 79.106z"/><path d="m213.635 343.695a2.45 2.45 0 0 0 -2.34 2.458l.936 27.733a2.45 2.45 0 0 0 2.457 2.34l11.117-.35a2.45 2.45 0 0 0 2.34-2.458l-.936-27.734a2.45 2.45 0 0 0 -2.457-2.34z"/><path d="m197.72 377.631a4.445 4.445 0 0 1 4.447-4.447h21.063c2.458 0 4.447 1.99 4.447 3.745v-3.745c0 2.107-1.99 4.096-4.33 4.447l-10.765 1.755-10.415 2.458a3.348 3.348 0 0 1 -4.33-3.394v-.819z"/><path d="m290.985 343.695a2.45 2.45 0 0 1 2.34 2.458l-.935 27.733a2.45 2.45 0 0 1 -2.458 2.34l-11.117-.35a2.45 2.45 0 0 1 -2.34-2.458l.936-27.734a2.45 2.45 0 0 1 2.457-2.34z"/><path d="m307.017 377.631a4.445 4.445 0 0 0 -4.447-4.447h-21.063c-2.458 0-4.447 1.99-4.447 3.745v-3.745c0 2.107 1.99 4.096 4.33 4.447l10.765 1.755 10.415 2.458a3.348 3.348 0 0 0 4.33-3.394v-.819z"/><path d="m142.837 121.56c-7.02-58.979 35.458-106.84 94.904-106.84h23.287c59.446 0 101.925 47.861 94.904 106.84l-21.883 183.605c-2.809 23.989-24.692 43.414-48.915 43.414h-71.616c-24.106 0-45.99-19.425-48.915-43.414z"/><path d="m251.315 51.464v-28.787" fill="none" stroke="#4a4a4a" stroke-linecap="square" stroke-width="12"/><path d="m159.922 68.315a31.863 31.863 0 0 0 -31.83 31.83v58.159c0 17.553 14.16 30.074 31.596 27.968l75.245-9.245a158.372 158.372 0 0 1 31.595 0l75.244 9.245c17.436 2.106 31.596-10.415 31.596-27.968v-58.16a31.863 31.863 0 0 0 -31.83-31.829z" fill="url(#a)" stroke="#000" stroke-width="2"/><ellipse cx="149.625" cy="91.836" fill="#80ff00" rx="5.617" ry="5.734"/><path d="m157.933 259.527s27.5 21.648 82.031 18.02c54.415-3.744 101.691-30.308 101.691-30.308s6.32 28.787 4.447 46.458-4.915 20.83-4.915 20.83c-4.33 11.233-16.85 24.34-27.85 29.254l-1.171.468-8.543 17.202a5.76 5.76 0 0 1 -5.734 3.043l-24.106-3.043a8.668 8.668 0 0 1 -5.85-3.978l-2.81-5.032a7.535 7.535 0 0 0 -5.967-3.394h-11.702a9.211 9.211 0 0 0 -6.436 3.16l-4.447 5.617a11.674 11.674 0 0 1 -6.436 3.744l-19.894 2.809a5.593 5.593 0 0 1 -5.617-3.043l-5.149-10.766a10.751 10.751 0 0 0 -5.5-4.914l-10.414-3.745c-8.309-3.043-17.67-12.053-20.83-20.128l-1.17-2.925c-4.447-11.234-7.021-30.074-5.617-42.01z" fill="#cf0019"/><path d="m280.687 288.08-.35-1.288a3.592 3.592 0 0 1 .35-3.16 4.8 4.8 0 0 1 2.575-1.872 7.569 7.569 0 0 1 1.521-.468 15.533 15.533 0 0 1 4.915-.585l.82 3.043q-1.932.35-4.916 1.053a3.936 3.936 0 0 0 -1.17.468c-.234.117-.234.468-.117.82l.117.233a1.075 1.075 0 0 0 .468.702 1.582 1.582 0 0 0 1.053 0l1.873-.468a3.393 3.393 0 0 1 3.861 1.17 5.94 5.94 0 0 1 1.054 2.107l.234.702c.819 3.043-.117 4.915-2.926 5.617a39.165 39.165 0 0 1 -3.862.936 9.31 9.31 0 0 1 -2.574 0l-.82-3.042a40.046 40.046 0 0 0 5.267-1.17c.468-.118.702-.235.819-.469a.774.774 0 0 0 .117-.702l-.117-.35a.824.824 0 0 0 -1.287-.586l-1.873.468a3.907 3.907 0 0 1 -1.99.117 2.569 2.569 0 0 1 -1.403-.585 3.561 3.561 0 0 1 -.936-.936 6.101 6.101 0 0 1 -.703-1.755zm14.745 6.436-3.979-14.862 6.67-1.755a4.719 4.719 0 0 1 3.628.234 5.418 5.418 0 0 1 2.224 3.393 6.728 6.728 0 0 1 .234 3.628 6.713 6.713 0 0 0 -.469.82c-.117.233-.35.35-.702.584l4.096 4.915-4.447 1.17-3.276-4.68h-1.288l1.522 5.5zm1.755-9.479 2.224-.585a1.158 1.158 0 0 0 .819-.585 2.182 2.182 0 0 0 -.117-1.17 1.465 1.465 0 0 0 -.585-1.054.883.883 0 0 0 -.936-.117l-2.224.586zm9.245 1.99-.82-3.16 6.32-1.755.819 3.16zm5.149-8.894-.936-3.51 9.712-2.575 1.405 1.287-1.054 14.51-4.212 1.17.936-12.403zm16.85-8.309 3.98 14.862-3.98 1.053-2.925-11.117-2.223 1.053-.702-2.457 1.99-2.34z" fill="#fff"/><path d="m246.752 184.4a4.027 4.027 0 0 1 5.617 0l19.659 19.659a6.171 6.171 0 0 1 1.17 6.436l-20.83 44.585c-.936 1.99-2.457 1.99-3.51 0l-22.819-44.585a5.691 5.691 0 0 1 .936-6.319z" fill="#f5a623"/><path d="m152.901 118.049h-5.5v-3.745h15.33v3.745h-5.383v16.032h-4.447zm12.872-3.745h12.405v3.745h-7.958v3.979h6.787v3.744h-6.787v4.564h8.192v3.745h-12.639zm16.617 0h4.447v16.032h7.84v3.745h-12.287zm15.564 0h12.404v3.745h-7.957v3.979h6.787v3.744h-6.787v4.564h8.191v3.745h-12.638zm16.617 0h7.255c4.33 0 7.724 1.522 7.724 6.32 0 4.68-3.511 6.67-7.724 6.67h-2.808v6.67h-4.447zm6.904 9.479c2.458 0 3.628-1.053 3.628-3.16s-1.287-2.808-3.628-2.808h-2.457v5.968zm22.117 10.297-3.745-7.137h-2.457v7.138h-4.447v-19.777h7.138c4.213 0 7.607 1.405 7.607 6.202a5.827 5.827 0 0 1 -3.51 5.734l4.446 7.958h-5.032zm-6.202-10.648h2.223c2.34 0 3.628-1.053 3.628-2.926 0-1.989-1.287-2.574-3.628-2.574h-2.223zm14.16-9.128h12.404v3.745h-7.958v3.979h6.787v3.744h-6.787v4.564h8.192v3.745h-12.756v-19.777zm17.786 14.276a8.06 8.06 0 0 0 4.798 2.107c1.873 0 2.809-.702 2.809-1.872 0-1.287-1.17-1.638-2.809-2.34l-2.574-1.054a5.725 5.725 0 0 1 -3.979-5.383c0-3.276 2.926-5.85 7.021-5.85a9.255 9.255 0 0 1 6.32 2.574l-2.224 2.808a6.15 6.15 0 0 0 -4.096-1.521c-1.52 0-2.457.702-2.457 1.755 0 1.17 1.287 1.639 3.043 2.34l2.574 1.054a5.448 5.448 0 0 1 3.862 5.383c0 3.276-2.692 6.085-7.373 6.085a11.18 11.18 0 0 1 -7.372-2.809zm15.564-14.276h12.404v3.745h-7.957v3.979h6.787v3.744h-6.787v4.564h8.191v3.745h-12.755v-19.777zm16.5 0h4.564l5.149 9.83 1.99 4.33h.116a70.067 70.067 0 0 1 -.585-7.255v-7.022h4.213v19.777h-4.564l-5.149-9.83-1.99-4.33h-.116a70.457 70.457 0 0 1 .585 7.139v7.02h-4.33v-19.659zm28.553-.351a8.058 8.058 0 0 1 5.851 2.575l-2.457 2.808a4.806 4.806 0 0 0 -3.394-1.521c-2.808 0-4.915 2.34-4.915 6.319 0 4.096 1.873 6.436 4.798 6.436a4.785 4.785 0 0 0 3.745-1.755l2.457 2.691a8.294 8.294 0 0 1 -6.319 2.926c-5.149 0-9.362-3.51-9.362-10.18.234-6.437 4.564-10.299 9.596-10.299zm9.127.351h12.405v3.745h-7.958v3.979h6.788v3.744h-6.788v4.564h8.192v3.745h-12.755v-19.777z" fill="#fff"/></svg>