<svg height="245" viewBox="0 0 400 245" width="400" xmlns="http://www.w3.org/2000/svg"><path d="m0 0h400v245h-400z" fill="none" pointer-events="none"/><path d="m265.478 228.932c0-.241-.241-.362-.483-.241-3.02 3.382-7.61 6.04-13.289 6.04-8.577 0-14.135-5.92-14.135-15.1 0-9.303 5.316-15.102 13.773-15.102 4.953 0 10.027 2.295 13.168 5.557.241.242.483 0 .483-.241v-4.591c-3.503-3.141-8.457-5.074-13.651-5.074-5.316 0-9.907 1.933-13.048 5.436s-4.832 8.336-4.832 14.135c0 11.718 7.37 19.571 18.242 19.571 5.195 0 10.269-1.933 13.772-5.195zm-233.16-27.786v4.108h12.805v32.98h4.35v-32.98h12.926v-4.108zm331.378 12.685c-2.296-2.537-6.162-3.382-8.82-3.382-3.744 0-7.006 1.329-9.302 3.866-2.416 2.537-3.624 6.16-3.624 10.268 0 9.907 6.524 14.256 13.048 14.256 3.745 0 6.886-1.33 8.819-3.745v3.14h4.349v-37.208h-4.47zm-.121 10.873c0 5.074-2.9 10.148-8.577 10.148-4.229 0-8.82-3.141-8.82-10.027 0-5.074 2.658-10.51 8.457-10.51 6.645.12 8.94 5.678 8.94 10.39zm-92.298-23.437h4.47v37.089h-4.47zm-129.144 30.203c0-.242-.242-.363-.484-.242-2.899 2.658-7.127 3.624-8.94 3.624-5.92 0-9.785-3.987-9.785-10.148s3.866-10.148 9.786-10.148c1.812 0 5.92.483 8.94 3.141.241.121.362 0 .362-.241v-4.108c-1.812-1.087-5.678-2.9-9.665-2.9-8.215 0-13.772 5.679-13.772 14.256s5.557 14.256 13.772 14.256c3.383 0 6.765-.967 9.665-2.9l.12-4.59zm-58.109-.846c0-.242-.363-.363-.484-.121-1.933 2.537-6.765 4.711-9.543 4.711-2.78 0-5.437-.845-6.766-2.416a9.92 9.92 0 0 1 -2.658-6.765h20.78v-.362c0-5.92-.967-9.182-3.625-11.84-2.174-2.174-5.074-3.382-8.698-3.382-7.732 0-12.806 5.557-12.806 14.134.242 8.94 5.437 14.256 13.652 14.256 3.986 0 7.248-1.33 10.268-3.987zm-2.9-8.457h-16.55v-.12c.241-2.296 1.208-4.35 3.02-5.92 1.45-1.208 3.382-1.812 5.315-1.812 4.833 0 7.974 3.02 8.215 7.852zm251.282 2.779c0 7.37-4.228 10.027-7.973 10.027-3.504 0-7.37-2.416-7.37-7.007v-16.792h-4.107v16.792c0 6.524 4.59 11.114 11.356 11.114 3.745 0 6.524-1.208 8.457-3.624v2.9h3.986v-27.182h-4.228l-.12 13.772zm-229.657-14.497c-3.383 0-6.282 1.087-8.215 3.262v-2.537h-4.228v27.182h4.228v-15.586c0-2.537.846-4.711 2.175-6.161 1.57-1.45 3.382-2.175 5.798-2.054 3.383.121 6.766 2.296 6.766 7.128v16.672h4.349v-16.914c0-3.382-1.088-6.16-3.141-8.094-1.812-1.933-4.591-2.9-7.732-2.9zm67.291 20.175c0-.242-.363-.363-.484-.121-1.933 2.537-6.765 4.711-9.544 4.711s-5.436-.845-6.765-2.416a9.92 9.92 0 0 1 -2.658-6.765h20.78v-.362c0-5.92-.967-9.182-3.625-11.84-2.174-2.174-5.074-3.382-8.698-3.382-7.732 0-12.806 5.557-12.806 14.134.242 8.94 5.437 14.256 13.651 14.256 3.987 0 7.249-1.33 10.27-3.987l-.122-4.228zm-2.9-8.457h-16.55v-.12c.24-2.296 1.207-4.35 3.02-5.92 1.45-1.208 3.382-1.812 5.315-1.812 4.712 0 7.853 3.02 8.215 7.852zm21.504-11.718c-3.383 0-6.282 1.087-8.215 3.262v-2.537h-4.228v27.182h4.228v-15.586c0-2.537.846-4.711 2.175-6.161 1.57-1.45 3.382-2.175 5.798-2.054 3.383.121 6.766 2.296 6.766 7.128v16.672h4.228v-16.914c0-3.382-1.087-6.16-3.141-8.094-1.691-1.933-4.35-2.9-7.611-2.9zm24.886 28.269c2.538-.12 5.558-1.208 5.558-1.208v-4.108c0-.241-.242-.362-.363-.241-1.087.362-3.382 1.087-4.59 1.208-.484.12-.846.12-1.088-.121-.241-.242-.241-.362-.241-.846v-18.242h7.852v-3.986h-7.852v-7.37h-4.47v7.249h-4.47v3.986h4.47v18.726c0 1.57.483 2.9 1.45 3.745.966.725 2.295 1.208 3.745 1.208zm81.426-28.269c-7.853 0-13.169 5.678-13.169 14.255 0 8.457 5.316 14.256 13.169 14.256s13.168-5.678 13.168-14.256c0-8.456-5.316-14.255-13.168-14.255zm-9.182 14.255c0-6.04 3.624-10.027 9.06-10.027s9.061 4.108 9.061 10.148-3.624 10.148-9.06 10.148c-5.316-.12-9.06-4.228-9.06-10.269z"/><path d="m301.963 82.512c-9.786-10.027-23.437-16.309-38.66-16.309-13.047 0-24.403 4.59-34.309 12.564-4.35 3.504-8.819 7.611-14.497 13.168-2.9 2.658-84.566 82.15-84.566 82.15 4.35.604 10.148.725 15.463.846h102.93c7.852 0 13.047 0 18.604-.362 12.685-.967 24.645-5.558 34.31-15.102 21.383-21.141 21.745-55.45.725-76.955m-15.706 61.734c-4.228 4.107-11.597 8.819-23.799 9.302-5.678.241-12.202.241-15.343.241h-65.599c23.8-23.195 44.7-43.49 46.995-45.665 2.174-2.054 7.007-6.766 11.235-10.51 9.302-8.216 17.517-10.028 23.316-9.907 9.182.12 17.517 3.866 23.558 9.906 12.926 12.927 12.685 33.827-.363 46.633" fill="#00a1ff"/><path d="m170.04 77.438c-9.665-7.127-20.417-11.235-32.619-11.235-15.222 0-28.873 6.282-38.659 16.31-21.02 21.503-20.779 55.813.846 76.954 8.698 8.578 19.088 13.048 30.202 14.74l21.142-20.418c-3.504 0-8.215-.12-12.564-.241-12.202-.363-19.692-5.074-23.8-9.302-13.047-12.806-13.41-33.706-.604-46.753 5.92-6.04 14.376-9.786 23.558-9.907 5.799 0 13.53 1.57 22.47 9.06 4.229 3.504 13.53 11.72 17.638 15.464.242.242.484.242.725 0l14.497-14.255c.242-.242.242-.604 0-.725-7.127-6.523-16.913-15.222-22.833-19.692" fill="#00c4d6"/><path d="m268.982 54.001c-10.027-28.269-37.089-48.565-68.62-48.565-36.484 0-66.565 26.7-72.002 61.492 3.02-.483 5.92-.725 9.061-.725 4.35 0 8.457.483 12.202 1.45h.241c4.954-23.437 25.733-40.954 50.378-40.954 20.658 0 38.658 12.443 46.753 29.96.12.242.362.363.604.363 6.16-1.692 13.41-2.658 20.537-2.054.725 0 .967-.362.846-.967" fill="#006eff"/></svg>