<svg viewBox="-3.66 1.38 294.32 84.24" xmlns="http://www.w3.org/2000/svg"><path d="m100 28.9-33.6 55.2h29.3c15.7 0 28.5-12.4 28.5-27.8 0-13.9-10.5-25.4-24.2-27.4z" fill="#0095da"/><path d="m96.3 28.5c-3.2-13.7-15.9-24.1-31.3-24.9v76.2z" fill="#00b8de"/><path d="m61.6 3.6c-15.4.7-28.1 11-31.4 24.6l31.4 51.5z" fill="#0095da"/><path d="m2.1 56.3c0 15.3 12.8 27.8 28.5 27.8h29.7l-33.7-55.3c-13.9 1.9-24.5 13.5-24.5 27.5z" fill="#00b8de"/><g fill="#262626"><path d="m138.4 73.5c0-.7 0-1.2-.2-1.9h2c-.1.7-.2 1.2-.2 1.9v.6h1.2c1.1 0 1.7 0 2.4-.1v1.2c-.7-.1-1.3-.1-2.4-.1h-1.2v5.9c0 .5.1.8.2 1 .2.2.7.3 1.3.3s1.2-.1 1.9-.5l.6 1.2c-.9.3-1.7.4-2.6.4-1 0-1.9-.2-2.4-.6-.4-.4-.6-.8-.6-1.8v-5.8h-1c-1 0-1.5 0-2.1.1v-1.3c.7.1 1.1.1 2.1.1h1zm9.6 5.3c.1 1.3.3 1.9.9 2.5s1.6 1 2.6 1 1.9-.3 2.5-.9c.4-.3.5-.6.7-1.1l1.6.5c-.4.8-.7 1.1-1.3 1.5-.9.7-2.1 1.1-3.6 1.1-3.2 0-5.2-1.8-5.2-4.7 0-1.7.7-3 1.8-3.9.8-.6 1.9-.9 3.2-.9 2.9 0 4.8 1.6 5 4.3v.6zm6.7-1c-.1-.9-.3-1.4-.9-1.9-.6-.6-1.4-.9-2.4-.9s-1.8.3-2.4.9c-.5.5-.7 1-.9 1.9zm3.6 5.4c.1-.7.1-1.2.1-1.9v-5.3c0-.8 0-1.3-.1-1.9h1.8v.9c0 .3 0 .5-.1.8.4-.6.6-.8 1.2-1.2.9-.5 1.8-.8 2.9-.8 2.3 0 3.7 1.1 3.7 3.1v4.3c0 .9 0 1.3.1 1.9h-1.9c.1-.6.1-1.1.1-1.9v-3.9c0-1.6-.8-2.4-2.5-2.4-1.8 0-3.6 1.5-3.6 3.1v3.2c0 .7 0 1.2.1 1.9h-1.8zm13.1-7.7c-.6-.7-.9-1-1.3-1.3h2.1c.1.2.6.9.8 1.1l2 2.4 2-2.4c.3-.3.6-.8.8-1.1h2c-.4.4-.8.8-1.3 1.4l-2.6 3 2.7 3.1c.4.5 1 1.1 1.5 1.6h-2.1c-.3-.5-.3-.5-.9-1.2l-2.2-2.6-2.2 2.7c-.4.4-.4.5-.8 1.1h-2.1l.3-.3c.1-.1.4-.5 1.1-1.2l2.8-3.3zm18.7 1.4c-.3-.6-.5-.9-.8-1.2-.5-.5-1.3-.7-2.2-.7-2.2 0-3.6 1.4-3.6 3.7s1.4 3.7 3.7 3.7c.9 0 1.7-.3 2.2-.8.3-.3.5-.6.8-1.2l1.6.4c-.3.7-.6 1-.9 1.4-.8.8-2.1 1.3-3.8 1.3-3.2 0-5.3-1.8-5.3-4.7s2-4.8 5.2-4.8c1.7 0 3.1.5 3.9 1.5.3.3.4.6.7 1.1zm7.2-6.5c-.1.6-.2 1.1-.2 1.9v9c0 .7 0 1.2.2 1.9h-2c.1-.7.2-1.2.2-1.9v-9c0-.8 0-1.3-.2-1.9zm3.2 8.2c0-2.9 2-4.7 5.2-4.7s5.2 1.8 5.2 4.7c0 1.6-.7 3-1.8 3.8-.9.6-2 .9-3.4.9-3.2.1-5.2-1.7-5.2-4.7zm5.3 3.7c2.2 0 3.5-1.4 3.5-3.7s-1.3-3.7-3.5-3.7-3.5 1.4-3.5 3.7c-.1 2.3 1.3 3.7 3.5 3.7zm16.6-8.2c-.1.7-.1 1.2-.1 1.9v5.3c0 .8 0 1.3.1 1.9h-1.8v-.9c0-.3 0-.6.1-.9-.4.7-.7.9-1.2 1.2-.8.5-1.8.7-2.9.7-2.3 0-3.7-1.1-3.7-3.1v-4.2c0-.8 0-1.3-.1-1.9h1.9c-.1.6-.1 1.1-.1 1.9v3.9c0 1.6.8 2.4 2.4 2.4.6 0 1.3-.2 1.8-.4 1.1-.6 1.9-1.7 1.9-2.7v-3.2c0-.7 0-1.2-.1-1.9zm9.9 8.2c0-.2 0-.5.1-.7-.3.5-.4.6-.9.9-.8.5-1.7.8-2.8.8s-2.2-.3-2.8-.8c-1-.8-1.6-2.3-1.6-3.9 0-1.7.6-3.1 1.6-3.9.7-.5 1.7-.8 2.8-.8s2 .3 2.8.7c.4.3.6.5.9 1v-.2-3c0-.7 0-1.3-.1-1.9h1.9c-.1.7-.1 1.2-.1 1.9v8.9c0 .9 0 1.3.1 2h-1.8v-1zm-3.2 0c2 0 3.3-1.4 3.3-3.6s-1.3-3.7-3.3-3.7c-1.9 0-3 1.3-3 3.6 0 2.4 1 3.7 3 3.7z"/><path d="m255.3 77.6c-.3-.6-.4-.9-.8-1.2-.5-.5-1.2-.7-2.1-.7-2.1 0-3.5 1.3-3.5 3.5s1.3 3.5 3.6 3.5c.9 0 1.7-.2 2.2-.7.3-.3.5-.5.7-1.2l1.6.3c-.3.7-.6 1-.9 1.3-.8.8-2.1 1.2-3.7 1.2-3.2 0-5.1-1.7-5.1-4.4 0-2.8 2-4.5 5.1-4.5 1.7 0 3 .5 3.8 1.4.3.3.4.5.7 1zm3 1.6c0-2.7 2-4.5 5.1-4.5s5.1 1.7 5.1 4.5c0 1.5-.6 2.8-1.8 3.6-.8.6-2 .9-3.3.9-3.1 0-5.1-1.7-5.1-4.5zm5.1 3.5c2.1 0 3.4-1.3 3.4-3.5 0-2.1-1.3-3.5-3.4-3.5s-3.5 1.3-3.5 3.5c.1 2.2 1.4 3.5 3.5 3.5zm20.1.2h-1.6v-4.5c0-.9-.2-1.5-.5-1.8-.3-.4-.8-.6-1.5-.6-.6 0-1.1.2-1.5.7s-.6 1.1-.6 1.7v4.5h-1.6v-4.7c0-1.5-.7-2.3-2-2.3-.6 0-1.1.2-1.5.7s-.6 1-.6 1.8v4.5h-1.6v-7.9h1.6v1.3c.6-1 1.6-1.4 2.8-1.4.6 0 1.1.1 1.6.4s.8.7 1 1.2c.7-1.1 1.7-1.6 3-1.6 2 0 3 1.1 3 3.2z"/><path d="m240.6 81.5h2.4v2.4h-2.4zm-45.4-58.5-9.1-2.7v4.5l9.1 2.9zm15.5 26.3c.8-3.2.8-6.3.8-6.3h2.6v17.2h5v-17.3h9.6s4.8.8 4.8-3.9v-6.7s0-.4-.1-1c-.6-2.4-3.4-2.1-3.4-2.1h-10.9v-3.7h13.5l1.3-3.6h-14.8v-3.7h-5.4v3.8h-13.6v3.6h13.8v3.7h-10.1c-.3 0-3.6-.3-3.6 3.6-.1 4.3 0 6.7 0 6.7s0 3.3 3.7 3.5c3.3-.1 3.3 0 3.3 0s.4 9.4-8.1 11.9v3.7s8.8-.2 11.6-9.4zm8.4-17h9.2s1.1-.2 1.1 1.1v5.8s-.1.9-.8 1c-1.1.1-9.4 0-9.4 0v-7.9zm-13.5 7.9c-1.2-.1-1.2-1.1-1.2-1.1v-5.6c0-1.3 1.3-1.1 1.3-1.1h8.3v7.9c0-.1-7.2 0-8.4-.1zm74.7-18.1-39.2-.1v3.6h37.4zm-54 23.2h-4.6c1.4 12.9 12.7 13.3 12.7 13.3s.1-.3 0-3.5c-7-2.1-8.1-9.8-8.1-9.8zm-21.5 17.8c-3.1-.5-8-1.8-9.8-4.7-.1-4.5 0-25.7 0-25.7h-9.3v3.6h4.7v22.7l-4.3 5.2.2.1 3.3 2.8 4-4.8s5.5 5 20.5 5.2c5.2.1 15.6-.6 23-2.4v-3.6s-18.9 4.6-32.3 1.6zm67.7-14.9 5 13.7s-14 4.4-29.5.4c-.6-.6-.5-.6-.1-2s5.7-19 5.7-19h-5.2l-5.8 19s-1.7 4.1 2.5 5.5c2.6.6 19.9 4.8 37.9-1.6-1.6-4.7-6-16-6-16zm-103.5 7.7v-4c-7.3-5.5-7.2-18.8-7.2-18.8h-3.7c0 21.3 10.9 22.8 10.9 22.8zm68.2-20.1v3.5h46.2l1.2-3.5zm-95-13.9c-4 .4-5.9 1.3-7.3 3.1v40.1s3.2 3.1 10.4 2.4c2.9-.3 5.7-1.6 6.2-2.6.2-1.4 0-39.4 0-39.4s-1.7-4.1-9.3-3.6zm5.2 18.2h-5.7v2.6h5.7v20.3s-3.6 1.9-8.2.3c0-4.7-.2-36.8-.2-36.8s3.6-2.8 8.3.1c.3 9 .1 13.5.1 13.5zm30.8-22h-4.4v7.9l-18.7.2v4h18.7v31.7s-3.6 3-14.8.8c-.1 3.1 0 3.5 0 3.5s13.3 3.3 19.2-2.4c.2-6.7 0-33.6 0-33.6h3.6l1.3-4.1h-4.9z"/></g></svg>