<svg viewBox="0 0 500 409.5" xmlns="http://www.w3.org/2000/svg"><path d="m244.797 400.564h-35.76l-36.043-51.732-13.569 13.71v37.88h-28.693v-119.859h28.693v49.894l47.067-49.894h34.206l-48.199 48.763zm46.643 0-39.717-120.001h31.519l23.746 84.948h1.838l22.332-84.948h31.944l-40.566 120.001z" fill="#353558"/><path d="m247.132 8.879-117.675 61.208v122.273l117.675 61.065 117.245-61.065v-122.273z" fill="#ec1a3b"/><path d="m239.086 89.34v114.227l-28.736-14.942v-84.342l-36.926 19.254v-30.605l73.565-38.219 29.311 15.23zm58.766 91.813-29.167 15.23v-91.956l29.167-15.087z" fill="#fff"/></svg>