<svg height="245" viewBox="0 0 400 245" width="400" xmlns="http://www.w3.org/2000/svg" xmlns:xlink="http://www.w3.org/1999/xlink"><clipPath id="a"><path d="m297 782.84 2574-.043.01 398.159-2574 .044z"/></clipPath><clipPath id="b"><path d="m0 0h500v149.8h-500z"/></clipPath><path d="m0 0h400v245h-400z" fill="none" pointer-events="none"/><g clip-path="url(#a)" transform="matrix(.71324 0 0 -.71324 113.917 245)"><path d="m117.019 326.912s12.063-64.528-2.124-189.263c35.67 2.118 73.247 1.657 83.996-8.248 0 0-13.67 132.177-84.25 214.102 0 0 1.489-5.977 2.378-16.594z" fill="#0b8bb3"/><path d="m197.031 124.963s-23.604 20.516-155.565.088c0 0 69.058 5.878 105.677 4.053 30.608-1.527 47.111-7.298 49.548-15.364 0 0 7.23 6.19.34 11.223" fill="#0b8bb3"/><path d="m116.602 285.643.005.89-.436-.852c-4.645-40.114-22.57-97.685-74.79-156.325 0 0 32.008 5.479 66.874 7.867 1.91 13.168 10.35 76.272 8.347 148.42" fill="#9acce8"/><path d="m30.2 56.928-8.065 21.817-7.335-21.817zm-28.508-21.634 20.17 58.117h.731l22-58.117h-6.6l-6.323 16.686h-18.15l-5.503-16.686zm48.172 57.107h5.042l14.118-27.956 14.39 28.05h4.855v-57.2h-6.049v43.082l-12.373-23.006h-2.475l-11.55 22.731v-42.808h-5.958zm49.042-57.107v57.106h7.424c0-.426-.136-.914-.412-1.464a3.66 3.66 0 0 1 -.412-1.65v-53.992zm17.233 57.107h7.06c.06-.062.09-.15.09-.274 0-.184-.075-.428-.23-.73-.15-.31-.257-.705-.318-1.196v-22.275h22.366v24.475h7.054c.064-.062.092-.15.092-.274 0-.245-.092-.504-.27-.778a2.368 2.368 0 0 1 -.367-.962v-55.182h-6.603v27.407h-22.273v-27.318h-6.602zm68.979-35.473-8.068 21.817-7.33-21.817zm-28.508-21.634 20.167 58.117h.736l21.996-58.117h-6.6l-6.323 16.686h-18.153l-5.497-16.686zm47.162 0v57.106h6.235l24.013-42.347v42.44h6.786c0-.367-.11-.764-.322-1.192a2.797 2.797 0 0 1 -.32-1.282v-54.725h-5.04l-25.21 44.915v-44.915z" fill="#0b8bb3"/></g><g clip-path="url(#a)" transform="matrix(.71324 0 0 -.71324 113.917 245)"><path d="m117.019 326.912s12.063-64.528-2.124-189.263c35.67 2.118 73.247 1.657 83.996-8.248 0 0-13.67 132.177-84.25 214.102 0 0 1.489-5.977 2.378-16.594z" fill="#0b8bb3"/><path d="m197.031 124.963s-23.604 20.516-155.565.088c0 0 69.058 5.878 105.677 4.053 30.608-1.527 47.111-7.298 49.548-15.364 0 0 7.23 6.19.34 11.223" fill="#0b8bb3"/><path d="m116.602 285.643.005.89-.436-.852c-4.645-40.114-22.57-97.685-74.79-156.325 0 0 32.008 5.479 66.874 7.867 1.91 13.168 10.35 76.272 8.347 148.42" fill="#9acce8"/><path d="m30.2 56.928-8.065 21.817-7.335-21.817zm-28.508-21.634 20.17 58.117h.731l22-58.117h-6.6l-6.323 16.686h-18.15l-5.503-16.686zm48.172 57.107h5.042l14.118-27.956 14.39 28.05h4.855v-57.2h-6.049v43.082l-12.373-23.006h-2.475l-11.55 22.731v-42.808h-5.958zm49.042-57.107v57.106h7.424c0-.426-.136-.914-.412-1.464a3.66 3.66 0 0 1 -.412-1.65v-53.992zm17.233 57.107h7.06c.06-.062.09-.15.09-.274 0-.184-.075-.428-.23-.73-.15-.31-.257-.705-.318-1.196v-22.275h22.366v24.475h7.054c.064-.062.092-.15.092-.274 0-.245-.092-.504-.27-.778a2.368 2.368 0 0 1 -.367-.962v-55.182h-6.603v27.407h-22.273v-27.318h-6.602zm68.979-35.473-8.068 21.817-7.33-21.817zm-28.508-21.634 20.167 58.117h.736l21.996-58.117h-6.6l-6.323 16.686h-18.153l-5.497-16.686zm47.162 0v57.106h6.235l24.013-42.347v42.44h6.786c0-.367-.11-.764-.322-1.192a2.797 2.797 0 0 1 -.32-1.282v-54.725h-5.04l-25.21 44.915v-44.915z" fill="#0b8bb3"/></g><g clip-path="url(#a)" transform="matrix(.41157 0 0 -.41157 26.751 245)"><g fill-rule="evenodd"><path d="m300.764 305.537c0 12.702-6.938 21.309-18.91 21.309h-12.404v-42.41h13.373c11.435 0 17.94 8.506 17.94 21.1m20.168.21c0-21.937-14.92-36.844-39.401-36.844h-31.82v73.586h32.573c23.946 0 38.648-14.907 38.648-36.742m61.406 36.741-.108-15.326h-36.672v-16.374h33.866v-15.326h-33.866v-26.558h-19.738v73.584zm22.613-36.845c0-11.967 9.598-21.204 20.815-21.204 11.327 0 20.386 9.237 20.386 21.204s-9.059 20.994-20.386 20.994c-11.323 0-20.815-9.027-20.815-20.994m61.477.104c0-21.518-17.47-37.683-40.876-37.683-23.405 0-40.877 16.165-40.877 37.683 0 21.416 17.472 37.266 40.877 37.266 23.406 0 40.876-15.956 40.876-37.266m24.622 36.741v-57.209h32.034v-16.375h-51.771v73.584zm86.718-73.584-19.631 28.447-9.707-10.497v-17.95h-19.74v73.583h19.74v-30.86l28.366 30.86h22.866l-28.042-30.44 29.768-43.143z" fill="#808184"/><path d="m633.85 327.686c-4.746 0-7.874-1.678-7.874-5.038 0-12.177 39.799-5.248 39.799-31.7 0-15.012-13.59-22.675-30.417-22.675-9.101 0-19.132 2.683-27.054 6.708-3.061 1.558-5.257 3.03-7.784 5.049l7.659 15.01c7.766-6.508 19.522-11.126 27.397-11.126 5.824 0 9.49 2.099 9.49 5.983 0 12.49-39.798 4.934-39.798 30.966 0 13.752 11.97 22.465 30.198 22.465 11.109 0 22.326-3.36 30.199-8.294l-7.442-15.221c-7.98 4.41-18.12 7.873-24.373 7.873m53.709-50.49c0-5.354-3.881-9.133-9.274-9.133s-9.167 3.779-9.167 9.133 3.774 9.027 9.167 9.027 9.274-3.673 9.274-9.027" fill="#808184"/><path d="m222.448 288.783v11.536h-17.926c-6.965 0-10.445-2.44-10.445-7.59 0-5.013 3.759-8.27 10.166-8.27 8.743 0 12.502-1.227 18.205 4.324m-41.673 49.372c9.574 3.588 19.62 5.26 29.872 5.26 20.748 0 32.865-9.758 33.003-26.564v-47.705h-21.202s-16.671-.243-26.837-.243c-9.693 0-23.205 8.648-23.205 22.064 0 13.96 8.583 21.954 27.242 22.227h22.8v.81c0 9.624-8.04 10.98-17.51 10.98-6.264 0-16.065-2.034-24.14-5.828z" fill="#119981"/></g><path d="m155.316 339.323h6.321v-1.181h-2.482v-6.628h-1.367v6.628h-2.472zm8.301 0h1.925l2.155-6.113h.022l2.1 6.113h1.902v-7.809h-1.3v6.026h-.023l-2.166-6.026h-1.126l-2.165 6.026h-.022v-6.026h-1.302z" fill="#808184"/></g><g clip-path="url(#b)" transform="matrix(3.92471 0 0 3.92471 -780.383 -171.7)"><path d="m214.55 71.2c0 1.7-1.4 3.1-3.1 3.1s-3.1-1.4-3.1-3.1 1.4-3.1 3.1-3.1 3.1 1.4 3.1 3.1zm-3.1 4.3c-1.7 0-3.1 1.4-3.1 3.1s1.4 3.1 3.1 3.1 3.1-1.4 3.1-3.1-1.4-3.1-3.1-3.1zm18.7-.6c0 8.3-6.7 15-15 15s-15-6.7-15-15 6.7-15 15-15 15 6.7 15 15zm-4 0c0-6.1-4.9-11-11-11s-11 4.9-11 11 4.9 11 11 11 11-4.9 11-11zm-7.3.6c-1.7 0-3.1 1.4-3.1 3.1s1.4 3.1 3.1 3.1 3.1-1.4 3.1-3.1-1.4-3.1-3.1-3.1zm0-7.4c-1.7 0-3.1 1.4-3.1 3.1s1.4 3.1 3.1 3.1 3.1-1.4 3.1-3.1-1.4-3.1-3.1-3.1zm51.6-2.3c.1 0 .2.1.3.2v3.2c0 .2-.2.3-.3.3h-5.3c-.2 0-.3-.2-.3-.3v-3.1c0-.2.2-.3.3-.3zm-.1 4.5h-10.2c-.1 0-.3.1-.3.3l-1.3 5-.1.3-1.6-5.3c0-.1-.2-.3-.3-.3h-4c-.1 0-.3.1-.3.3l-1.5 5-.1.3-.1-.3-.6-2.5-.6-2.5c0-.1-.2-.3-.3-.3h-8v-4.3c0-.1-.2-.3-.4-.2l-5 1.6c-.2 0-.3.1-.3.3v2.7h-1.3c-.1 0-.3.1-.3.3v3.8c0 .1.1.3.3.3h1.3v4.7c0 3.3 1.8 4.8 5.1 4.8 1.4 0 2.7-.3 3.6-.8v-4c0-.2-.2-.3-.3-.2-.5.2-1 .3-1.4.3-.9 0-1.4-.4-1.4-1.4v-3.4h2.9c.1 0 .3-.1.3-.3v-3.2l3.8 12.6c0 .1.2.3.3.3h4.2c.1 0 .3-.1.3-.3l1.8-5.6.9 2.9.8 2.7c0 .1.2.3.3.3h4.2c.1 0 .3-.1.3-.3l3.8-12.6v12.6c0 .1.1.3.3.3h5.1c.1 0 .3-.1.3-.3v-13.3c0-.1-.1-.3-.2-.3zm6.7-4.5h-5.1c-.1 0-.3.1-.3.3v17.7c0 .1.1.3.3.3h5.1c.1 0 .3-.1.3-.3v-17.8c0-.1-.1-.2-.3-.2zm6.8 0h-5.3c-.1 0-.3.1-.3.3v3.1c0 .1.1.3.3.3h5.3c.1 0 .3-.1.3-.3v-3.2c0-.1-.1-.2-.3-.2zm-.1 4.5h-5.1c-.1 0-.3.1-.3.3v13.1c0 .1.1.3.3.3h5.1c.1 0 .3-.1.3-.3v-13.1c0-.1-.1-.3-.3-.3zm16.1 6.8c0 3.8-3.2 7.1-7.7 7.1-4.4 0-7.6-3.3-7.6-7.1s3.2-7.1 7.7-7.1c4.4 0 7.6 3.3 7.6 7.1zm-5.4.1c0-1.4-1-2.5-2.2-2.4-1.3 0-2.2 1.1-2.2 2.4s1 2.4 2.2 2.4c1.3 0 2.2-1.1 2.2-2.4z" fill="#f22f46"/></g></svg>