<svg height="245" viewBox="0 0 400 245" width="400" xmlns="http://www.w3.org/2000/svg"><path d="m0 0h400v245h-400z" fill="none" pointer-events="none"/><path d="m250.22 93.22v112.86h-93.48zm0-40.51a46.74 46.74 0 1 1 -93.48 0zm15.4 153.37a46.74 46.74 0 0 1 93.48 0zm0-40.51v-112.86h93.49zm52.29 137.06a18.22 18.22 0 0 0 12.95-5l6.42 6.93c-4.24 4.36-10.12 7.6-19.26 7.6-15.67 0-25.79-10.39-25.79-24.46a24 24 0 0 1 24.37-24.47c15.56 0 24.38 11.84 23.61 28.26h-36.78c1.3 6.82 6.09 11.17 14.47 11.17m11.21-19c-1-6.37-4.79-11.06-12.41-11.06-7.07 0-12 4-13.27 11.06zm-252.71 18.46 28.31-28.76h-27.64v-9.02h40.76v9.21l-28.31 28.75h28.69v9.03h-41.81zm73.6.51a18.22 18.22 0 0 0 12.95-5l6.42 6.93c-4.24 4.36-10.12 7.6-19.26 7.6-15.67 0-25.79-10.39-25.79-24.46a24 24 0 0 1 24.37-24.47c15.56 0 24.38 11.84 23.61 28.26h-36.78c1.3 6.82 6.09 11.17 14.47 11.17m11.21-19c-1-6.37-4.79-11.06-12.41-11.06-7.07 0-12 4-13.27 11.06zm72.22 4.03c0-15 11.23-24.44 23.59-24.44a20.34 20.34 0 0 1 15.67 7.05v-27.72h10v68.61h-10v-6.49a20.1 20.1 0 0 1 -15.76 7.42c-12 0-23.5-9.49-23.5-24.43m39.82-.09a14.92 14.92 0 1 0 -14.91 15.32c8.59 0 14.91-6.86 14.91-15.32m73.48 13.62 9.06-4.7a13.44 13.44 0 0 0 12.08 6.86c5.66 0 8.59-2.91 8.59-6.2 0-3.76-5.47-4.61-11.42-5.83-8-1.69-16.33-4.33-16.33-14 0-7.43 7.07-14.29 18.21-14.19 8.77 0 15.29 3.48 19 9.11l-8.4 4.61a12.19 12.19 0 0 0 -10.57-5.36c-5.38 0-8.12 2.63-8.12 5.64 0 3.38 4.34 4.32 11.14 5.83 7.74 1.69 16.51 4.23 16.51 14 0 6.48-5.66 15.22-19.06 15.13-9.81 0-16.7-3.95-20.67-10.9m66.88-10.9-7.93 8.65v12.21h-10v-68.61h10v44.93l21.23-23.31h12.18l-18.41 20.11 18.88 26.88h-11.32zm-210.43-27.08c-11.89 0-21.85 7.71-21.85 20.49v27.45h10.19v-26.18c0-7.71 4.43-12.32 12-12.32s11.33 4.61 11.33 12.32v26.18h10.14v-27.45c0-12.78-10-20.49-21.85-20.49" transform="matrix(.93215 0 0 .93215 -37.833 -46.657)"/></svg>