<svg width="64" height="76" viewBox="0 0 64 76" fill="none" xmlns="http://www.w3.org/2000/svg">
<path d="M56 62H41L32 73L22 62H8C4.69 62 2 59.31 2 56V8C2 4.69 4.69 2 8 2H56C59.31 2 62 4.69 62 8V56C62 59.31 59.31 62 56 62Z" fill="white" stroke="black" stroke-width="3"/>
<path d="M37.344 26.0206L30.4815 19.1694H38.019V14H25.9814V19.1694L32.844 26.0206H37.344Z" fill="#93EAFF"/>
<path d="M31.1565 37.9795H26.6564L32.3377 43.6551L33.4627 44.8307H25.9814V50.0001H38.019V44.7745L34.5877 41.3995L31.1565 37.9795Z" fill="#93EAFF"/>
<path d="M44.8813 26.0205V33.4905L43.7001 32.3093L38.0188 26.6336V31.1843L41.3938 34.5593L44.8251 37.9849H50.0001V26.0205H44.8813Z" fill="#93EAFF"/>
<path d="M25.9813 32.8155L19.175 26.0205H14V37.9793H19.1188V30.5093L25.9813 37.3661V32.8155Z" fill="#93EAFF"/>
<path d="M19.1188 37.9795H14V50.0001H25.9813V44.8307H19.1188V37.9795Z" fill="#0086FF"/>
<path d="M44.8813 38.0357V44.8307H38.0188V50.0001H50.0001V37.9795H44.8251L44.8813 38.0357Z" fill="#0086FF"/>
<path d="M14 26.0206H19.175L19.1188 25.9644V19.1694H25.9813V14H14V26.0206Z" fill="#0086FF"/>
<path d="M38.0188 14V19.1694H44.8813V26.0206H50.0001V14H38.0188Z" fill="#0086FF"/>
</svg>
