<svg width="64" height="76" viewBox="0 0 64 76" fill="none" xmlns="http://www.w3.org/2000/svg">
<path d="M56 62H41L32 73L22 62H8C4.69 62 2 59.31 2 56V8C2 4.69 4.69 2 8 2H56C59.31 2 62 4.69 62 8V56C62 59.31 59.31 62 56 62Z" fill="white" stroke="black" stroke-width="3"/>
<path d="M49.9428 35.0942L46.8498 21.7631C46.7667 21.4183 46.6074 21.096 46.3835 20.8196C46.1596 20.5432 45.8767 20.3196 45.5551 20.1648L33.0355 14.2334C32.711 14.0797 32.356 14 31.9965 14C31.637 14 31.282 14.0797 30.9575 14.2334L18.4404 20.168C18.1187 20.3226 17.8357 20.5462 17.6117 20.8226C17.3878 21.099 17.2285 21.4212 17.1453 21.7661L14.0573 35.097C13.9811 35.4339 13.9809 35.7834 14.0566 36.1205C14.0789 36.2232 14.108 36.3243 14.1438 36.4231C14.2042 36.5918 14.2842 36.753 14.3822 36.9033C14.4246 36.9676 14.4693 37.0302 14.518 37.0908L18.9697 42.5829C18.9791 42.5104 18.9873 42.4377 18.9972 42.3652C19.0749 41.797 18.8962 41.2967 18.7074 40.788C18.3861 39.9224 17.9505 39.0996 17.8262 38.1624C17.6852 37.0983 17.7198 36.0323 17.7366 34.9679C17.7461 34.3717 17.5816 33.8311 17.4016 33.284C17.1618 32.5547 16.8404 31.85 16.7318 31.0816C16.6775 30.6978 16.6646 30.3176 16.7854 29.9396C16.8618 29.7005 16.9972 29.5137 17.2539 29.5087C17.5135 29.5037 17.6734 29.6983 17.7355 29.9272C17.8635 30.3988 17.9708 30.8764 18.071 31.3548C18.2152 32.0393 18.433 32.7065 18.7208 33.3448C18.9082 33.7624 19.063 33.769 19.3484 33.4087C19.4843 33.2244 19.5561 33.0014 19.553 32.7732C19.6151 31.4823 19.6897 30.192 19.751 28.9011C19.7812 28.4824 19.8701 28.0699 20.0151 27.6756C20.1148 27.3809 20.3402 27.1264 20.6785 27.1799C21.0304 27.2355 21.0515 27.5704 21.0277 27.8508C20.93 29.141 20.9004 30.4353 20.9392 31.7285C20.945 32.0036 20.9268 32.2849 21.1452 32.6494C21.1563 30.9245 21.6605 29.3877 21.8671 27.8028C21.8857 27.5939 21.945 27.3905 22.0417 27.2041C22.1955 26.933 22.4522 26.8017 22.7533 26.8618C23.0685 26.9247 23.0794 27.2087 23.0503 27.4528C22.9449 28.3362 22.798 29.2152 22.7084 30.0999C22.6136 31.0362 22.5663 31.9772 22.4923 32.9984C22.7573 32.7984 22.7582 32.5581 22.814 32.3647C23.0559 31.5264 23.3044 30.6889 23.39 29.8138C23.4222 29.5891 23.482 29.3692 23.5681 29.1589C23.6809 28.8469 23.9375 28.6391 24.251 28.6862C24.587 28.7367 24.5369 29.0779 24.5445 29.335C24.5777 30.461 24.3345 31.5561 24.1771 32.6622C23.9799 33.977 23.9608 35.312 24.1201 36.6318C24.1443 36.7873 24.1852 36.9399 24.2421 37.0868C24.4395 37.6375 24.6925 37.7244 25.2009 37.4169C25.3393 37.3395 25.469 37.2476 25.5875 37.1426C26.3639 36.4033 27.2424 36.5112 28.1515 36.8195C28.3554 36.8822 28.5281 37.0186 28.6354 37.2016C28.8744 37.6088 28.7658 37.9005 28.304 37.8588C26.9887 37.7399 26.2275 38.5107 25.5062 39.4106C25.0576 39.9703 24.3835 40.1912 23.7406 40.4082C23.1947 40.5925 23.0243 40.8945 23.0337 41.4472C23.0686 43.4932 23.06 45.54 23.0735 47.5864C23.0736 47.6074 23.0754 47.6283 23.0762 47.6492L23.1822 47.78C23.22 47.8265 23.2617 47.869 23.3031 47.9122C23.439 48.0558 23.5925 48.182 23.76 48.2879C23.9719 48.4202 24.2028 48.5198 24.4448 48.5833C24.6432 48.6373 24.8479 48.6653 25.0537 48.6667H25.1885L30.5588 48.6063C30.5734 47.5957 30.588 46.5851 30.6025 45.5745C30.6228 44.0635 31.0868 42.6174 31.2634 41.1308C31.4953 39.141 31.4907 37.1311 31.2498 35.1424C31.1753 34.5124 30.922 34.0814 30.2594 33.8355C29.5738 33.581 29.2262 32.8798 28.7372 32.3699C27.274 30.8445 26.2008 28.9913 24.639 27.5467C24.4752 27.3952 24.4079 27.2023 24.5122 26.996C24.5769 26.8559 24.6838 26.7392 24.8181 26.6618C24.9524 26.5845 25.1076 26.5504 25.2622 26.5643C25.909 26.5964 26.4276 26.9018 26.8674 27.3543C27.3634 27.8647 27.8465 28.3895 28.4181 28.8199C29.0338 29.2834 29.2317 29.2153 29.5512 28.5352C30.1389 27.2838 30.1671 26.0073 29.827 24.6899C29.474 23.3225 28.9687 21.985 29.038 20.5329C29.0784 19.686 29.2717 19.1848 29.7133 19.2035C30.4504 19.2347 30.361 19.9089 30.4453 20.3522C30.7215 21.8058 30.9845 23.259 31.5311 24.6429C31.6054 24.8308 31.6109 25.168 31.9135 25.0902C32.1547 25.0281 32.0393 24.746 32.0254 24.5542C31.9012 22.8398 31.7308 21.1256 32.0441 19.4129C32.0986 19.115 32.1222 18.8073 32.3365 18.5621C32.5214 18.3505 32.7407 18.1996 33.0305 18.2857C33.2955 18.3644 33.4122 18.5896 33.4172 18.8488C33.4296 19.4954 33.4595 20.1447 33.4181 20.7888C33.3384 22.0317 33.5718 23.2484 33.6806 24.4752C33.6946 24.6336 33.6808 24.9039 33.9068 24.9083C34.0934 24.9119 34.1926 24.6794 34.2334 24.5076C34.5421 23.2078 35.0301 21.9525 35.21 20.6208C35.2559 20.2806 35.2985 19.9401 35.4652 19.6252C35.6076 19.3561 35.7988 19.2374 36.1076 19.2872C36.4407 19.341 36.6181 19.5234 36.6314 19.8549C36.6447 20.016 36.6399 20.178 36.617 20.338C36.3077 21.9693 36.1648 23.6327 35.6597 25.2262C35.6378 25.3044 35.6217 25.384 35.6117 25.4646C35.5836 25.6435 35.5126 25.8794 35.6886 25.9685C35.9087 26.0801 36.0537 25.8568 36.1811 25.7043C36.8459 24.9089 37.485 24.0963 37.9201 23.1457C37.9933 22.9789 38.0948 22.8258 38.2202 22.693C38.4103 22.5008 38.6461 22.3573 38.9328 22.4826C39.2711 22.6304 39.1536 22.9084 39.11 23.1662C39.0519 23.5904 38.8935 23.9949 38.6479 24.3468C37.237 26.2396 36.7742 28.4044 36.7851 30.6986C36.7831 31.3883 36.6201 32.0681 36.3088 32.6847C36.0173 33.2881 36.0012 33.9091 36.0395 34.5736C36.1647 36.741 36.6075 38.8651 36.8615 41.0143C37.1628 43.5629 37.2801 46.1108 37.0816 48.6639L38.9478 48.6635C39.0314 48.6631 39.115 48.6582 39.1981 48.6489C39.3173 48.6355 39.4354 48.6132 39.5512 48.5823C39.6342 48.5606 39.7161 48.5346 39.7964 48.5044C39.859 48.4806 39.9215 48.4569 39.9819 48.4281C40.0723 48.3852 40.16 48.3368 40.2445 48.2833C40.4625 48.1473 40.6566 47.9768 40.8191 47.7786L40.9272 47.5368C41.1502 44.8991 40.8807 42.265 40.7479 39.639C40.6769 38.2358 39.3672 36.6028 37.6129 36.5622C37.2923 36.5548 36.8535 36.6538 36.8488 36.1381C36.8448 35.7021 37.1373 35.4449 37.5634 35.3785C38.1123 35.2958 38.6734 35.3517 39.1948 35.5409C40.272 35.915 40.8859 35.3824 40.589 34.2394C40.2715 33.0156 40.0623 31.7666 39.9638 30.5067C39.9371 30.1694 39.8755 29.836 39.9725 29.502C40.0665 29.1782 40.2177 28.8958 40.6129 28.9135C41.0383 28.9326 41.0026 29.2978 41.0509 29.5722C41.2372 30.6299 41.4756 31.6697 42.0094 32.738C42.2531 32.3249 42.2838 31.9463 42.308 31.6001C42.3642 30.7955 42.6332 30.032 42.7148 29.2347C42.7372 29.0889 42.7899 28.9494 42.8694 28.8248C43.0035 28.5967 43.1903 28.4138 43.4855 28.4759C43.8173 28.5458 43.9186 28.8051 43.8974 29.1013C43.8432 29.8575 43.7668 30.6121 43.7044 31.3678C43.668 31.8085 43.6415 32.25 43.7213 32.725C44.0192 31.8776 44.317 31.0302 44.6145 30.1826C44.7628 29.7582 44.8047 29.1307 45.4591 29.3266C46.0447 29.5018 45.7269 30.0506 45.6509 30.4222C45.444 31.4337 45.177 32.4329 44.9444 33.4393C44.8894 33.6772 44.7725 33.9747 45.074 34.1162C45.3458 34.2437 45.4943 33.968 45.6404 33.8072C46.2384 33.1492 46.8094 32.4668 47.414 31.8151C47.5823 31.6337 47.7734 31.2997 48.0925 31.5225C48.3818 31.7246 48.3044 32.0471 48.1794 32.3309C47.9448 32.8516 47.6315 33.3337 47.2502 33.7605C46.6857 34.406 46.2681 35.1196 46.1296 35.9932C46.0506 36.5579 45.8908 37.1085 45.655 37.6284C44.9657 39.0631 44.9309 40.5354 45.1636 42.0709C45.1783 42.1682 45.192 42.2658 45.2063 42.3632L49.4803 37.0873C49.6412 36.887 49.7677 36.6617 49.8545 36.4205C49.8908 36.3213 49.9204 36.2198 49.9433 36.1168C50.0191 35.7801 50.0189 35.4309 49.9428 35.0942Z" fill="#0828B2"/>
</svg>
