<svg width="54" height="65" viewBox="0 0 54 65" fill="none" xmlns="http://www.w3.org/2000/svg"><path d="M47 52.702H34.5L27 61.998l-8.333-9.296H7c-2.758 0-5-2.273-5-5.07V7.07C2 4.273 4.242 2 7 2h40c2.758 0 5 2.273 5 5.07v40.562c0 2.797-2.242 5.07-5 5.07Z" fill="#fff" stroke="#000" stroke-width="3"/><path d="M43.946 30.113 41.025 17.49a2.264 2.264 0 0 0-1.223-1.514L27.978 10.36a2.289 2.289 0 0 0-1.963 0l-11.821 5.62a2.278 2.278 0 0 0-1.224 1.513l-2.916 12.621a2.21 2.21 0 0 0 .082 1.256 2.176 2.176 0 0 0 .353.632l4.205 5.2c.008-.069.016-.137.026-.206.073-.538-.096-1.012-.274-1.493-.304-.82-.715-1.599-.832-2.486-.134-1.008-.1-2.017-.085-3.025.009-.564-.146-1.076-.316-1.594-.227-.69-.53-1.358-.633-2.085-.051-.364-.063-.724.05-1.082.073-.226.2-.403.443-.408.245-.005.396.18.455.396.12.447.222.9.317 1.352.136.648.342 1.28.614 1.884.177.396.323.402.592.06a.993.993 0 0 0 .194-.6c.058-1.223.129-2.445.187-3.667.028-.396.112-.787.249-1.16.094-.28.307-.52.627-.47.332.053.352.37.33.636a34.89 34.89 0 0 0-.084 3.671c.005.26-.012.527.194.872.01-1.633.487-3.088.682-4.589.018-.198.074-.39.165-.567.145-.256.388-.38.672-.324.298.06.308.329.28.56-.099.836-.238 1.668-.322 2.506-.09.886-.135 1.777-.205 2.744.25-.189.252-.417.304-.6.229-.793.463-1.586.544-2.415a2.62 2.62 0 0 1 .169-.62c.106-.295.348-.492.645-.447.317.047.27.37.277.614.031 1.066-.199 2.103-.347 3.15a14.05 14.05 0 0 0-.054 3.759c.023.147.061.291.115.43.187.522.426.604.906.313.13-.073.253-.16.365-.26.733-.7 1.563-.598 2.421-.306.193.06.356.189.457.362.226.386.123.662-.313.622-1.242-.112-1.96.617-2.642 1.47-.424.53-1.06.739-1.668.944-.515.175-.676.46-.667.984.033 1.937.025 3.875.037 5.813 0 .02.002.04.003.059l.1.124c.036.044.075.084.114.125a2.244 2.244 0 0 0 1.078.635c.188.051.381.078.576.08h.127l5.072-.058.041-2.87c.02-1.431.458-2.8.624-4.208a24.084 24.084 0 0 0-.013-5.67c-.07-.596-.31-1.004-.935-1.237-.647-.241-.976-.905-1.438-1.388-1.381-1.444-2.395-3.199-3.87-4.566-.155-.144-.218-.326-.12-.522a.706.706 0 0 1 .709-.409c.61.03 1.1.32 1.515.748.469.484.925.98 1.465 1.388.582.439.768.375 1.07-.27.555-1.184.582-2.393.26-3.64-.333-1.295-.81-2.561-.744-3.936.038-.802.22-1.277.637-1.259.697.03.612.668.692 1.088.26 1.376.509 2.752 1.025 4.062.07.178.076.498.361.424.228-.059.12-.326.106-.508-.117-1.623-.278-3.246.018-4.868.051-.282.073-.573.276-.805.174-.2.382-.343.655-.262.25.075.36.288.365.533.012.613.04 1.227.001 1.837-.075 1.177.145 2.329.248 3.49.014.15 0 .406.214.41.176.004.27-.216.308-.379.292-1.23.753-2.419.923-3.68.043-.322.083-.644.24-.943.135-.254.316-.367.607-.32.315.051.482.224.495.538.013.152.008.306-.014.457-.292 1.545-.427 3.12-.904 4.629a1.69 1.69 0 0 0-.045.225c-.026.17-.094.393.073.477.208.106.344-.105.465-.25.628-.753 1.231-1.522 1.642-2.422.07-.158.165-.303.284-.429.18-.182.402-.318.673-.2.32.14.208.404.167.648a2.564 2.564 0 0 1-.436 1.118c-1.333 1.792-1.77 3.842-1.76 6.014a4.207 4.207 0 0 1-.45 1.88c-.275.572-.29 1.16-.254 1.789.118 2.052.537 4.063.776 6.098.285 2.413.396 4.825.208 7.243h1.763a2.171 2.171 0 0 0 .57-.078 2.314 2.314 0 0 0 .654-.283c.206-.129.39-.29.543-.478l.102-.228c.21-2.498-.044-4.992-.17-7.478-.066-1.329-1.303-2.875-2.96-2.913-.303-.008-.717.086-.722-.402-.003-.413.273-.656.675-.72a3.139 3.139 0 0 1 1.541.155c1.017.354 1.597-.15 1.317-1.233a20.457 20.457 0 0 1-.59-3.534c-.026-.32-.084-.635.008-.951.088-.307.231-.574.604-.557.402.018.368.364.414.623.176 1.002.401 1.986.905 2.998.23-.391.26-.75.282-1.078.053-.761.307-1.484.385-2.24a.97.97 0 0 1 .146-.387c.126-.216.303-.39.581-.33.314.066.41.311.39.591-.052.716-.124 1.431-.183 2.146-.034.418-.06.836.016 1.285l.844-2.407c.14-.401.18-.996.797-.81.553.166.253.685.181 1.037-.195.958-.447 1.904-.667 2.857-.052.225-.162.507.123.64.256.121.397-.14.535-.292.564-.623 1.104-1.269 1.675-1.886.159-.172.34-.488.64-.277.274.191.2.497.083.765-.222.493-.518.95-.878 1.354-.533.611-.928 1.287-1.058 2.114a5.65 5.65 0 0 1-.449 1.548c-.65 1.358-.684 2.752-.464 4.206l.04.277L43.51 32a2.195 2.195 0 0 0 .437-.92 2.192 2.192 0 0 0 0-.967Z" fill="#0086ff"/></svg>