<svg xmlns="http://www.w3.org/2000/svg" id="Layer_1" data-name="Layer 1" viewBox="0 0 1768 897"><defs><style>.cls-1{fill:none}.cls-2{fill:#bfbfbf}.cls-3{clip-path:url(#clip-path)}.cls-4{fill:#bd2e70}.cls-5{fill:#80298a}.cls-6{fill:#4f2ba1}.cls-7{fill:#8c2154}.cls-8{fill:#611f66}.cls-9{fill:#3d2178}.cls-10{clip-path:url(#clip-path-2)}.cls-11{fill:#333}.cls-12{clip-path:url(#clip-path-4)}.cls-13{clip-path:url(#clip-path-8)}.cls-14{clip-path:url(#clip-path-11)}.cls-15{clip-path:url(#clip-path-14)}.cls-16{clip-path:url(#clip-path-18)}.cls-17{clip-path:url(#clip-path-24)}.cls-18{clip-path:url(#clip-path-27)}.cls-19{clip-path:url(#clip-path-30)}.cls-20{clip-path:url(#clip-path-35)}.cls-21{clip-path:url(#clip-path-36)}.cls-22{clip-path:url(#clip-path-37)}.cls-23{clip-path:url(#clip-path-40)}.cls-24{fill:#fff}.cls-25{clip-path:url(#clip-path-42)}.cls-26{clip-path:url(#clip-path-48)}.cls-27{clip-path:url(#clip-path-51)}.cls-28{clip-path:url(#clip-path-53)}</style><clipPath id="clip-path"><path class="cls-1" d="M54.907 73H1695V829.374H54.907z"/></clipPath><clipPath id="clip-path-2"><path class="cls-1" d="M275.447 740.725H364.98V759.004H275.447z"/></clipPath><clipPath id="clip-path-4"><path class="cls-1" d="M540.442 745.424H671.9390000000001V763.703H540.442z"/></clipPath><clipPath id="clip-path-8"><path class="cls-1" d="M838.964 740.725H963.8570000000001V758.995H838.964z"/></clipPath><clipPath id="clip-path-11"><path class="cls-1" d="M842.794 773.885H962.457V792.155H842.794z"/></clipPath><clipPath id="clip-path-14"><path class="cls-1" d="M1137.128 740.725H1267.9009999999998V759.004H1137.128z"/></clipPath><clipPath id="clip-path-18"><path class="cls-1" d="M1117.931 806.656H1302.8410000000001V829.3739999999999H1117.931z"/></clipPath><clipPath id="clip-path-24"><path class="cls-1" d="M1438.23 745.42H1557.761V768.3629999999999H1438.23z"/></clipPath><clipPath id="clip-path-27"><path class="cls-1" d="M1423.472 776.04H1572.519V798.983H1423.472z"/></clipPath><clipPath id="clip-path-30"><path class="cls-1" d="M1417.84 806.656H1579.1709999999998V829.3739999999999H1417.84z"/></clipPath><clipPath id="clip-path-35"><path class="cls-1" d="M1168.429 303.598H1238.738V328.476H1168.429z"/></clipPath><clipPath id="clip-path-36"><path class="cls-1" d="M877.54 536.122H937.751V561H877.54z"/></clipPath><clipPath id="clip-path-37"><path class="cls-1" d="M585.445 560.196H640.926V585.0740000000001H585.445z"/></clipPath><clipPath id="clip-path-40"><path class="cls-1" d="M303.275 630.28H343.23299999999995V651.885H303.275z"/></clipPath><clipPath id="clip-path-42"><path class="cls-1" d="M686.971 75.677H822.779V94.68H686.971z"/></clipPath><clipPath id="clip-path-48"><path class="cls-1" d="M892.059 75.672H944.0319999999999V94.697H892.059z"/></clipPath><clipPath id="clip-path-51"><path class="cls-1" d="M1008.82 76.543H1072.8300000000002V99.34H1008.82z"/></clipPath><clipPath id="clip-path-53"><path class="cls-1" d="M1460.912 91.614H1535.042V116.49600000000001H1460.912z"/></clipPath></defs><path class="cls-2" d="M130.724 596.656H1693.206V597.707H130.724z"/><path class="cls-2" d="M130.724 469.466H1693.206V470.517H130.724z"/><g class="cls-3"><path d="M108.81 220.387c0 4.992.614 7.183 2.456 7.183 1.86 0 2.448-2.001 2.448-7.205 0-5.168-.623-6.82-2.395-6.82-1.762 0-2.509 1.842-2.509 6.842m7.033-.044c0 6.224-1.175 9.016-4.603 8.998-3.388-.009-4.585-2.933-4.585-8.91 0-6.462 1.705-8.67 4.69-8.67 3.186 0 4.498 2.473 4.498 8.582m-19.052.044c0 4.992.614 7.183 2.456 7.183 1.86 0 2.447-2.001 2.447-7.205 0-5.168-.623-6.82-2.394-6.82-1.762 0-2.509 1.842-2.509 6.842m7.032-.044c0 6.224-1.17 9.016-4.598 8.998-3.392-.009-4.59-2.933-4.59-8.91 0-6.462 1.71-8.67 4.692-8.67 3.184 0 4.496 2.473 4.496 8.582m-19.051.044c0 4.992.614 7.183 2.46 7.183 1.855 0 2.443-2.001 2.443-7.205 0-5.168-.623-6.82-2.39-6.82-1.762 0-2.513 1.842-2.513 6.842m7.036-.044c0 6.224-1.175 9.016-4.602 8.998-3.393-.009-4.59-2.933-4.59-8.91 0-6.462 1.71-8.67 4.691-8.67 3.185 0 4.501 2.473 4.501 8.582m-14.81 11.591a21.925 21.925 0 0 0 1.404-6.166h1.988a16.093 16.093 0 0 1-1.714 6.166zm-8.486-11.547c0 4.992.614 7.183 2.46 7.183 1.856 0 2.443-2.001 2.443-7.205 0-5.168-.623-6.82-2.39-6.82-1.762 0-2.513 1.842-2.513 6.842m7.037-.044c0 6.224-1.175 9.016-4.603 8.998-3.393-.009-4.59-2.933-4.59-8.91 0-6.462 1.705-8.67 4.691-8.67 3.185 0 4.502 2.473 4.502 8.582m-20.642 8.76v-.16c.013-2.327 1.25-4.721 3.852-7.646 1.987-2.257 2.835-3.003 2.835-4.92 0-1.37-.366-2.867-2.102-2.867-1.542 0-2.244 1.064-2.337 3.224h-2.058c.057-2.712 1.259-4.974 4.452-4.974 3.07 0 4.236 1.935 4.236 4.612 0 2.195-.927 3.362-3.25 5.91-1.896 2.068-2.903 3.724-3.19 4.987h6.834l-.292 1.833zm53.9 115.469c0 4.992.614 7.182 2.46 7.182 1.856 0 2.443-2 2.443-7.204 0-5.168-.623-6.82-2.39-6.82-1.762 0-2.513 1.842-2.513 6.842m7.037-.044c0 6.224-1.175 9.015-4.603 8.998-3.393-.01-4.59-2.933-4.59-8.91 0-6.462 1.71-8.67 4.691-8.67 3.185 0 4.502 2.473 4.502 8.582m-19.052.044c0 4.992.61 7.182 2.456 7.182 1.86 0 2.447-2 2.447-7.204 0-5.168-.627-6.82-2.394-6.82-1.762 0-2.509 1.842-2.509 6.842m7.032-.044c0 6.224-1.175 9.015-4.603 8.998-3.388-.01-4.585-2.933-4.585-8.91 0-6.462 1.705-8.67 4.692-8.67 3.18 0 4.496 2.473 4.496 8.582m-19.051.044c0 4.992.614 7.183 2.456 7.183 1.86 0 2.447-2.001 2.447-7.205 0-5.168-.623-6.82-2.394-6.82-1.763 0-2.51 1.842-2.51 6.842m7.033-.044c0 6.224-1.175 9.016-4.603 8.998-3.388-.009-4.585-2.933-4.585-8.91 0-6.462 1.705-8.67 4.691-8.67 3.185 0 4.497 2.473 4.497 8.582m-14.811 11.59a21.773 21.773 0 0 0 1.405-6.166h1.987a16.015 16.015 0 0 1-1.714 6.167zm-2.08-18.101h-5.416c-.102 1.643-.35 4.104-.45 5.173a3.121 3.121 0 0 1 2.703-1.184c2.791 0 3.993 2.204 3.993 5.517 0 3.048-.941 5.994-4.634 5.994-3.158 0-4.307-2.014-4.43-4.408h2.12c.11 1.312.64 2.654 2.368 2.654 1.903 0 2.416-1.886 2.416-4.09 0-2.288-.526-3.887-2.32-3.887-1.532 0-2.067.95-2.429 2.094l-1.965-.323c.265-2.005.702-7.13.834-9.4h7.474zm-13.796 15.27v-14.643a7.573 7.573 0 0 1-2.314.619v-1.586a5.861 5.861 0 0 0 2.973-1.582h1.448v17.192zm47.69 115.47c0 4.991.614 7.182 2.46 7.182 1.855 0 2.443-2 2.443-7.204 0-5.168-.623-6.82-2.394-6.82-1.758 0-2.51 1.841-2.51 6.842m7.037-.044c0 6.224-1.175 9.015-4.602 8.998-3.393-.01-4.59-2.933-4.59-8.91 0-6.462 1.71-8.671 4.691-8.671 3.185 0 4.501 2.474 4.501 8.583m-19.051.044c0 4.991.61 7.182 2.456 7.182 1.855 0 2.443-2 2.443-7.204 0-5.168-.623-6.82-2.39-6.82-1.763 0-2.51 1.842-2.51 6.842m7.033-.044c0 6.224-1.175 9.015-4.603 8.998-3.388-.01-4.59-2.933-4.59-8.91 0-6.462 1.71-8.671 4.696-8.671 3.18 0 4.497 2.474 4.497 8.583m-19.051.044c0 4.991.61 7.182 2.456 7.182 1.86 0 2.447-2 2.447-7.204 0-5.168-.628-6.82-2.394-6.82-1.763 0-2.51 1.842-2.51 6.842m7.033-.044c0 6.224-1.175 9.015-4.603 8.998-3.388-.01-4.585-2.933-4.585-8.91 0-6.462 1.705-8.67 4.691-8.67 3.185 0 4.497 2.473 4.497 8.582m-14.811 11.59a21.773 21.773 0 0 0 1.404-6.166h1.988a16.015 16.015 0 0 1-1.714 6.167zm-8.481-11.546c0 4.991.614 7.182 2.456 7.182 1.86 0 2.447-2 2.447-7.204 0-5.168-.623-6.82-2.394-6.82-1.763 0-2.51 1.842-2.51 6.842m7.033-.044c0 6.224-1.175 9.015-4.603 8.998-3.388-.01-4.585-2.933-4.585-8.91 0-6.462 1.705-8.67 4.691-8.67 3.185 0 4.497 2.473 4.497 8.582m-14.882 8.759v-14.643a7.573 7.573 0 0 1-2.314.618v-1.586a5.861 5.861 0 0 0 2.972-1.58h1.45v17.191zm48.147 115.47c0 4.99.61 7.182 2.456 7.182 1.86 0 2.447-2.001 2.447-7.205 0-5.168-.623-6.82-2.394-6.82-1.763 0-2.51 1.846-2.51 6.842m7.033-.044c0 6.228-1.175 9.016-4.603 9.002-3.388-.013-4.585-2.937-4.585-8.91 0-6.466 1.705-8.675 4.691-8.675 3.185 0 4.497 2.474 4.497 8.583m-19.051.044c0 4.992.614 7.183 2.46 7.183 1.855 0 2.443-2.001 2.443-7.205 0-5.168-.623-6.82-2.39-6.82-1.763 0-2.513 1.846-2.513 6.842m7.036-.044c0 6.228-1.175 9.016-4.603 9.002-3.392-.013-4.59-2.937-4.59-8.91 0-6.466 1.706-8.675 4.692-8.675 3.185 0 4.501 2.474 4.501 8.583m-19.051.044c0 4.992.61 7.183 2.456 7.183 1.855 0 2.442-2.001 2.442-7.205 0-5.168-.622-6.82-2.39-6.82-1.762 0-2.508 1.846-2.508 6.842m7.032-.044c0 6.228-1.175 9.016-4.603 9.002-3.388-.013-4.59-2.937-4.59-8.91 0-6.466 1.71-8.675 4.696-8.675 3.18 0 4.497 2.474 4.497 8.583m-14.811 11.59a21.773 21.773 0 0 0 1.405-6.166h1.987a16.093 16.093 0 0 1-1.714 6.167zm-2.085-18.101h-5.411c-.106 1.643-.354 4.103-.455 5.172a3.127 3.127 0 0 1 2.703-1.183c2.792 0 3.993 2.204 3.993 5.517 0 3.048-.94 5.994-4.633 5.994-3.159 0-4.307-2.014-4.43-4.408h2.12c.114 1.312.64 2.654 2.367 2.654 1.904 0 2.42-1.886 2.42-4.09 0-2.288-.53-3.887-2.318-3.887-1.538 0-2.068.95-2.43 2.094l-1.966-.323c.261-2.005.703-7.13.83-9.4h7.48zm33.898 130.74c0 4.99.61 7.182 2.456 7.182 1.86 0 2.447-2.001 2.447-7.205 0-5.168-.627-6.816-2.394-6.816-1.762 0-2.509 1.842-2.509 6.838m7.033-.044c0 6.229-1.175 9.016-4.603 9.003-3.388-.014-4.585-2.933-4.585-8.91 0-6.462 1.705-8.676 4.69-8.676 3.186 0 4.498 2.479 4.498 8.583"/></g><path class="cls-4" d="M224.118 705.983H414.36400000000003V718.3119999999999H224.118z"/><path class="cls-4" d="M518.917 677.792H709.163V705.9780000000001H518.917z"/><path class="cls-4" d="M813.017 579.371H1003.263V686.0169999999999H813.017z"/><path class="cls-4" d="M1109.317 350.262H1299.563V548.619H1109.317z"/><path class="cls-5" d="M518.917 705.978H709.163V720.073H518.917z"/><path class="cls-5" d="M813.017 678.971H1003.263V720.073H813.017z"/><path class="cls-5" d="M1109.317 548.614H1299.563V614.378H1109.317z"/><path class="cls-6" d="M1109.317 614.378H1299.563V720.0740000000001H1109.317z"/><path class="cls-2" d="M132.518 217.506H1695V218.557H132.518z"/><path class="cls-2" d="M132.518 342.271H1695V343.322H132.518z"/><path class="cls-2" d="M414.36 717.786v.525H224.118v-.525h-91.6v1.047h386.394v-1.047zm294.803 1.047h103.858v-1.052H709.163zm294.1 0h106.054v-1.052h-106.054zm296.3 0H1695v-1.052h-395.436z"/><path class="cls-7" d="M224.118 717.786H414.36400000000003V718.3119999999999H224.118z"/><path class="cls-8" d="M518.912 717.781H709.163V718.832H518.912z"/><path class="cls-8" d="M813.021 717.781H1003.2669999999999V718.832H813.021z"/><path class="cls-9" d="M1109.317 717.781H1299.563V718.832H1109.317z"/><g class="cls-10"><path class="cls-11" d="M277.554 754.198c.137 1.696.932 3.07 2.752 3.07 1.74 0 2.575-.972 2.575-2.814 0-1.723-.72-2.659-3.021-3.763-2.73-1.303-3.905-2.5-3.905-4.992a4.09 4.09 0 0 1 4.404-4.307c3.415 0 4.32 2.417 4.369 4.466h-2.072c-.088-.861-.34-2.734-2.359-2.734a2.128 2.128 0 0 0-2.235 2.394c0 1.564.698 2.297 2.818 3.304 3.013 1.427 4.161 2.845 4.161 5.456 0 2.703-1.555 4.726-4.797 4.726-3.53 0-4.669-2.297-4.797-4.806z"/></g><path class="cls-11" d="M288.042 741.627L296.103 741.627 296.103 743.495 290.135 743.495 290.135 748.964 295.736 748.964 295.736 750.806 290.135 750.806 290.135 758.757 288.042 758.757 288.042 741.627z"/><g class="cls-3"><path class="cls-11" d="M304.149 758.755v-17.13h2.535c4.51 11.406 5.177 13.053 5.394 13.817h.026c-.124-2.257-.155-4.823-.155-7.61v-6.207h1.948v17.13h-2.425c-4.677-12.006-5.291-13.627-5.495-14.325h-.022c.124 2.138.142 4.89.142 7.969v6.356zm14.97-6.514c0 3.348.79 4.978 2.411 4.978 1.604 0 2.368-1.643 2.368-4.982 0-3.203-.75-4.758-2.376-4.758-1.564 0-2.403 1.423-2.403 4.762m6.886-.053c0 4.546-1.56 6.807-4.505 6.807-3 0-4.488-2.173-4.488-6.758 0-4.475 1.77-6.542 4.58-6.542 2.863 0 4.413 2.186 4.413 6.493m3.92-6.281c1.008 4.064 2.2 8.878 2.465 10.566h.022c.186-1.524 1.948-7.735 2.602-10.566h2.08l-3.657 12.85h-2.24l-3.471-12.85zm16.915-5.174a23.667 23.667 0 0 0-.879 5.915h-1.987a17.16 17.16 0 0 1 1.223-5.915zm3.635 18.022v-14.21a7.296 7.296 0 0 1-2.253.579v-1.635a6.496 6.496 0 0 0 2.924-1.444h1.396v16.71zm13.56-14.839h-5.218c-.106 1.484-.375 4.06-.463 4.943a3.052 3.052 0 0 1 2.597-1.091c2.694 0 3.892 2.16 3.892 5.164 0 3.264-1.03 6.051-4.555 6.051-3.096 0-4.174-2.063-4.276-4.377h2.072c.093 1.14.433 2.659 2.266 2.659 1.86 0 2.346-1.79 2.346-4.1 0-2.133-.477-3.666-2.235-3.666-1.392 0-1.966.866-2.315 1.997l-1.917-.318c.274-1.935.698-6.64.861-9.073h7.2z"/></g><g class="cls-12"><path class="cls-11" d="M542.55 758.895c.137 1.696.932 3.07 2.752 3.07 1.74 0 2.575-.972 2.575-2.814 0-1.723-.72-2.66-3.021-3.763-2.73-1.304-3.905-2.5-3.905-4.992a4.09 4.09 0 0 1 4.404-4.307c3.414 0 4.32 2.416 4.368 4.466h-2.071c-.089-.861-.34-2.734-2.36-2.734a2.128 2.128 0 0 0-2.234 2.394c0 1.564.698 2.297 2.818 3.304 3.012 1.427 4.16 2.845 4.16 5.455 0 2.704-1.554 4.727-4.796 4.727-3.53 0-4.67-2.297-4.797-4.806z"/></g><g class="cls-3"><path class="cls-11" d="M559.16 755.866c0-2.023-.407-3.719-2.222-3.719-2.226 0-2.341 2.832-2.368 3.72zm-4.625 1.59c0 2.346.384 4.47 2.346 4.47a2.25 2.25 0 0 0 2.221-2.181h2.015a4.14 4.14 0 0 1-4.259 3.944c-3.856 0-4.395-3.472-4.395-6.679 0-4.068 1.423-6.617 4.488-6.617 3.446 0 4.267 2.783 4.267 6.017 0 .287-.013.75-.04 1.047zm15.172-.003a7.871 7.871 0 0 0-1.21-.062c-2.17 0-3.04 1.033-3.04 2.39a1.916 1.916 0 0 0 1.896 2.155c1.806 0 2.354-1.29 2.354-3.838zm1.983 3.626c0 .769.067 1.935.102 2.372h-1.89a8.004 8.004 0 0 1-.129-1.409 3 3 0 0 1-3.008 1.635c-2.47 0-3.37-1.935-3.37-3.729 0-2.407 1.63-4.134 4.978-4.134a11.737 11.737 0 0 1 1.285.04v-1.652c0-.959-.172-2.147-1.824-2.147-1.758 0-1.882 1.241-1.957 2.098h-1.988c.049-1.846.932-3.76 4.016-3.76 2.548 0 3.785 1.216 3.785 3.605zm2.061-10.475h1.789v-3.38h2.054v3.38h2.187v1.754h-2.187v8.158c0 .853.181 1.383 1.144 1.383a4.798 4.798 0 0 0 .87-.062v1.568a4.691 4.691 0 0 1-1.572.226c-1.617 0-2.496-.645-2.496-2.721v-8.552h-1.789zm6.462 0h1.79v-3.38h2.053v3.38h2.187v1.754h-2.187v8.158c0 .853.181 1.383 1.14 1.383a4.818 4.818 0 0 0 .875-.062v1.568a4.691 4.691 0 0 1-1.573.226c-1.617 0-2.496-.645-2.496-2.721v-8.552h-1.789z"/></g><path class="cls-11" d="M588.607 745.495H590.674V763.451H588.607z"/><g class="cls-3"><path class="cls-11" d="M600.366 755.866c0-2.023-.407-3.719-2.222-3.719-2.226 0-2.341 2.832-2.368 3.72zm-4.625 1.59c0 2.346.384 4.47 2.345 4.47a2.25 2.25 0 0 0 2.222-2.181h2.015a4.14 4.14 0 0 1-4.259 3.944c-3.856 0-4.395-3.472-4.395-6.679 0-4.068 1.423-6.617 4.488-6.617 3.446 0 4.267 2.783 4.267 6.017 0 .287-.013.75-.04 1.047zm15.164 5.996v-17.13h2.54c4.505 11.405 5.172 13.053 5.389 13.817h.026c-.123-2.257-.154-4.823-.154-7.61v-6.207h1.948v17.13h-2.425c-4.678-12.006-5.292-13.627-5.495-14.325h-.023c.124 2.138.142 4.89.142 7.969v6.356zm14.995-6.514c0 3.349.79 4.979 2.411 4.979 1.604 0 2.368-1.644 2.368-4.983 0-3.202-.75-4.757-2.376-4.757-1.564 0-2.403 1.422-2.403 4.761m6.886-.053c0 4.546-1.56 6.807-4.506 6.807-2.999 0-4.488-2.173-4.488-6.758 0-4.475 1.772-6.542 4.581-6.542 2.863 0 4.413 2.187 4.413 6.493m3.92-6.28c1.008 4.063 2.2 8.878 2.465 10.565h.022c.186-1.524 1.948-7.734 2.602-10.566h2.08l-3.657 12.85h-2.24l-3.471-12.85zm16.915-5.175a23.665 23.665 0 0 0-.879 5.915h-1.987a17.161 17.161 0 0 1 1.223-5.915zm3.635 18.022v-14.21a7.296 7.296 0 0 1-2.253.579v-1.635a6.497 6.497 0 0 0 2.924-1.444h1.396v16.71zm12.437-5.449c0-2.407-.631-3.737-2.292-3.737-1.78 0-2.465 1.453-2.465 3.088 0 2.248.49 4.642 2.408 4.642 1.497 0 2.35-1.32 2.35-3.993m-.239-7.668c-.049-.336-.186-2.037-1.93-2.037-2.439 0-2.514 3.746-2.58 5.902a3.21 3.21 0 0 1 2.968-1.674c2.518 0 3.865 1.983 3.865 5.278 0 3.119-1.135 5.888-4.448 5.888-3.68 0-4.457-3.37-4.457-8.123 0-5.429 1.07-8.967 4.749-8.967a3.616 3.616 0 0 1 3.785 3.733z"/></g><path class="cls-11" d="M541.479 777.919L541.479 795.049 549.368 795.049 549.651 793.212 543.577 793.212 543.577 777.919 541.479 777.919z"/><g class="cls-3"><path class="cls-11" d="M553.36 788.534c0 3.348.791 4.978 2.412 4.978 1.604 0 2.368-1.643 2.368-4.982 0-3.203-.751-4.758-2.377-4.758-1.563 0-2.403 1.423-2.403 4.762m6.887-.053c0 4.545-1.56 6.807-4.506 6.807-2.999 0-4.488-2.173-4.488-6.758 0-4.475 1.772-6.542 4.581-6.542 2.862 0 4.413 2.186 4.413 6.493m2.963-2.303c0-2.628-.013-3.366-.026-3.98h2a14.977 14.977 0 0 1 .071 1.621 3.027 3.027 0 0 1 3.004-1.842c1.908 0 3.3 1.109 3.3 3.914v9.157h-2.08v-8.729c0-1.51-.465-2.517-1.874-2.517-1.616 0-2.31 1.038-2.31 3.542v7.704h-2.085zm13.406 2.34c0 3.564.782 4.942 2.297 4.942 1.904 0 2.399-1.603 2.399-5.013 0-3.596-.469-4.647-2.262-4.647-1.462 0-2.434 1.259-2.434 4.717m6.719-11.427v14.608c0 1.294 0 2.593.026 3.352h-2c-.036-.33-.071-1.14-.071-1.656a2.796 2.796 0 0 1-2.991 1.882c-2.677 0-3.803-2.306-3.803-6.78 0-4.069 1.466-6.507 4.227-6.507 1.608 0 2.262.671 2.544 1.272v-6.171zm5.071 11.444c0 3.348.791 4.978 2.412 4.978 1.604 0 2.368-1.643 2.368-4.982 0-3.203-.751-4.758-2.377-4.758-1.563 0-2.403 1.423-2.403 4.762m6.887-.053c0 4.545-1.56 6.807-4.506 6.807-2.999 0-4.488-2.173-4.488-6.758 0-4.475 1.772-6.542 4.581-6.542 2.862 0 4.413 2.186 4.413 6.493m2.936-2.303c0-2.628-.013-3.366-.026-3.98h2a14.978 14.978 0 0 1 .071 1.621 3.027 3.027 0 0 1 3.004-1.842c1.908 0 3.3 1.109 3.3 3.914v9.157h-2.08v-8.729c0-1.51-.465-2.517-1.874-2.517-1.616 0-2.31 1.038-2.31 3.542v7.704h-2.085zm27.737 1.747c0-3.141.053-6.375.102-8.203h-.049c-.623 3.017-2.063 9.881-3.383 15.328h-1.988c-.99-4.798-2.496-12.17-3.11-15.364h-.07c.097 1.993.176 5.73.176 8.671v6.693h-1.97v-17.13h3.14c1.29 5.256 2.527 11.453 2.925 13.742h.027c.322-1.944 1.877-8.69 3.153-13.743h3.097v17.13h-2.05zm11.305 1.123a7.835 7.835 0 0 0-1.21-.062c-2.17 0-3.04 1.034-3.04 2.39a1.916 1.916 0 0 0 1.896 2.156c1.806 0 2.354-1.29 2.354-3.839zm1.983 3.627c0 .768.067 1.935.102 2.372h-1.89a8.005 8.005 0 0 1-.129-1.41 3 3 0 0 1-3.008 1.635c-2.47 0-3.37-1.935-3.37-3.728 0-2.407 1.634-4.134 4.978-4.134a11.74 11.74 0 0 1 1.285.04v-1.653c0-.954-.172-2.147-1.824-2.147-1.758 0-1.882 1.242-1.957 2.099h-1.988c.05-1.847.932-3.76 4.016-3.76 2.548 0 3.785 1.215 3.785 3.605zm3.614-6.103c0-2.058 0-3.45-.026-4.373h1.988c.026.314.062.897.062 2.258a3.465 3.465 0 0 1 3.392-2.456v2.297c-2.191.044-3.348 1.285-3.348 3.661v7.09h-2.068zm15.173-9.546a23.665 23.665 0 0 0-.88 5.915h-1.987a17.161 17.161 0 0 1 1.224-5.915zm3.633 18.022v-14.21a7.296 7.296 0 0 1-2.253.579v-1.635a6.496 6.496 0 0 0 2.924-1.444h1.396v16.71zm12.439-5.449c0-2.407-.632-3.737-2.293-3.737-1.78 0-2.464 1.453-2.464 3.088 0 2.248.49 4.642 2.407 4.642 1.497 0 2.35-1.32 2.35-3.993m-.238-7.668c-.049-.336-.186-2.037-1.93-2.037-2.44 0-2.514 3.746-2.58 5.902a3.21 3.21 0 0 1 2.968-1.674c2.518 0 3.865 1.983 3.865 5.278 0 3.119-1.135 5.889-4.448 5.889-3.68 0-4.457-3.37-4.457-8.124 0-5.429 1.069-8.967 4.748-8.967a3.616 3.616 0 0 1 3.786 3.733z"/></g><g class="cls-13"><path class="cls-11" d="M846.181 751.674c-.927-4.028-1.546-6.656-1.78-8.07h-.066c-.226 1.506-.897 4.492-1.697 8.07zm-3.944 1.86l-1.171 5.221h-2.107l4.104-17.13h2.734l4.21 17.13h-2.227l-1.184-5.22z"/></g><g class="cls-3"><path class="cls-11" d="M860.483 755.188c0 1.666 0 2.942.026 3.565h-1.974a11.779 11.779 0 0 1-.097-1.648 2.931 2.931 0 0 1-3.017 1.878c-1.555 0-3.212-.672-3.212-3.843v-9.232h2.085v8.75c0 1.568.42 2.514 1.816 2.514 1.36 0 2.288-.817 2.288-3.45v-7.814h2.085zm4.67-.17a2.134 2.134 0 0 0 2.156 2.3 1.757 1.757 0 0 0 1.957-1.894c0-1.246-.628-1.838-2.28-2.474-2.725-1.038-3.494-2.01-3.494-3.816 0-1.723 1.065-3.45 3.773-3.45a3.458 3.458 0 0 1 3.799 3.723h-2.015a1.835 1.835 0 0 0-1.846-2.062 1.52 1.52 0 0 0-1.661 1.66c0 .99.45 1.467 2.187 2.13 2.522.967 3.613 1.899 3.613 4.077 0 2.376-1.489 3.768-4.13 3.768a3.728 3.728 0 0 1-4.104-3.963zm7.644-9.111h1.789v-3.38h2.054v3.38h2.186v1.753h-2.186v8.16c0 .852.181 1.382 1.144 1.382a4.798 4.798 0 0 0 .87-.062v1.568a4.692 4.692 0 0 1-1.572.225c-1.617 0-2.496-.645-2.496-2.72v-8.553h-1.79z"/></g><path class="cls-11" d="M881.268 758.756h2.072v-12.85h-2.072zm.013-15.253h2.067v-2.708h-2.067z"/><g class="cls-3"><path class="cls-11" d="M886.923 749.885c0-2.628-.013-3.366-.026-3.98h2a14.975 14.975 0 0 1 .071 1.621 3.027 3.027 0 0 1 3.004-1.842c1.908 0 3.3 1.109 3.3 3.914v9.157h-2.08v-8.729c0-1.51-.465-2.517-1.874-2.517-1.616 0-2.31 1.038-2.31 3.542v7.704h-2.085zm19.545 7.092h1.475c2.995 0 3.954-2.354 3.954-7.16 0-4.435-1.083-6.392-3.927-6.392h-1.502zm-2.12-15.35h3.93c4.038 0 5.8 2.774 5.8 8.132 0 5.809-1.616 8.998-6.069 8.998h-3.661zm19.176 9.542c0-2.023-.406-3.72-2.222-3.72-2.226 0-2.341 2.832-2.367 3.72zm-4.625 1.59c0 2.346.384 4.47 2.346 4.47a2.25 2.25 0 0 0 2.222-2.182h2.014a4.14 4.14 0 0 1-4.258 3.945c-3.857 0-4.395-3.472-4.395-6.679 0-4.068 1.422-6.617 4.488-6.617 3.445 0 4.267 2.783 4.267 6.016 0 .288-.014.751-.04 1.047zm17.66 1.99c-.052.75-.317 4.231-4.169 4.231-3.419 0-4.325-2.96-4.325-6.705 0-3.57 1.162-6.59 4.493-6.59a3.861 3.861 0 0 1 4.002 4.12h-2.107c-.027-.516-.177-2.358-1.908-2.358-1.75 0-2.373 1.912-2.373 4.823 0 3.114.641 4.948 2.293 4.948 1.767 0 1.966-1.78 2.058-2.47zm10.151-14.016a23.665 23.665 0 0 0-.879 5.915h-1.987a17.161 17.161 0 0 1 1.223-5.915zm3.635 18.022v-14.21a7.296 7.296 0 0 1-2.253.579v-1.635a6.497 6.497 0 0 0 2.925-1.444h1.395v16.71zm13.331-16.65v1.67a44.515 44.515 0 0 0-4.801 14.979h-2.191a45.365 45.365 0 0 1 4.907-14.811h-6.28v-1.838z"/></g><g class="cls-14"><path class="cls-11" d="M844.863 790.207h2.209c1.926 0 2.977-1.135 2.977-3.322 0-2.19-1.087-3.308-3.33-3.308h-1.856zm1.873-8.34c2.103 0 2.836-.914 2.836-2.685a2.382 2.382 0 0 0-2.624-2.664h-2.085v5.35zm-3.945-7.08h4.603a3.868 3.868 0 0 1 4.227 4.2c0 2.27-1.09 3.278-2.08 3.631 1.28.46 2.628 1.643 2.628 4.276 0 3.114-1.908 5.022-4.894 5.022h-4.484z"/></g><g class="cls-3"><path class="cls-11" d="M861.4 784.329c0-2.023-.407-3.72-2.223-3.72-2.226 0-2.341 2.832-2.367 3.72zm-4.626 1.59c0 2.346.384 4.47 2.346 4.47a2.25 2.25 0 0 0 2.222-2.182h2.014a4.14 4.14 0 0 1-4.258 3.945c-3.857 0-4.396-3.472-4.396-6.679 0-4.068 1.423-6.617 4.488-6.617 3.446 0 4.267 2.783 4.267 6.016 0 .287-.013.751-.04 1.047zm9.583-2.48c0-2.059 0-3.45-.026-4.373h1.988c.026.313.061.896.061 2.257a3.465 3.465 0 0 1 3.393-2.456v2.297c-2.191.044-3.348 1.285-3.348 3.662v7.09h-2.068z"/></g><path class="cls-11" d="M874.16 773.955H876.227V791.9110000000001H874.16z"/><path class="cls-11" d="M879.815 791.912h2.067v-12.846h-2.067zm.013-15.249h2.067v-2.708h-2.067z"/><g class="cls-3"><path class="cls-11" d="M885.496 783.044c0-2.628-.014-3.366-.027-3.98h2.001a14.975 14.975 0 0 1 .07 1.622 3.027 3.027 0 0 1 3.004-1.842c1.909 0 3.3 1.108 3.3 3.913v9.157h-2.08v-8.728c0-1.51-.464-2.518-1.873-2.518-1.617 0-2.31 1.038-2.31 3.543v7.703h-2.085zm27.712 1.747c0-3.14.053-6.374.101-8.203h-.048c-.623 3.017-2.063 9.886-3.384 15.328h-1.988c-.99-4.797-2.496-12.17-3.11-15.363h-.07c.097 1.992.177 5.729.177 8.67v6.693h-1.97v-17.13h3.14c1.29 5.256 2.527 11.454 2.924 13.742h.027c.322-1.944 1.877-8.689 3.154-13.742h3.096v17.13h-2.05zm11.329 1.124a7.835 7.835 0 0 0-1.21-.062c-2.17 0-3.04 1.034-3.04 2.39a1.916 1.916 0 0 0 1.896 2.155c1.806 0 2.354-1.29 2.354-3.838zm1.983 3.626c0 .769.067 1.935.102 2.372h-1.89a8.005 8.005 0 0 1-.129-1.409 3 3 0 0 1-3.008 1.635c-2.47 0-3.37-1.935-3.37-3.729 0-2.407 1.634-4.134 4.978-4.134a11.737 11.737 0 0 1 1.285.04v-1.652c0-.959-.172-2.147-1.824-2.147-1.758 0-1.882 1.241-1.957 2.098h-1.988c.049-1.846.932-3.759 4.016-3.759 2.548 0 3.785 1.215 3.785 3.604zm3.588-6.102c0-2.059 0-3.45-.027-4.373h1.988c.027.313.062.896.062 2.257a3.465 3.465 0 0 1 3.393-2.456v2.297c-2.191.044-3.349 1.285-3.349 3.662v7.09h-2.067zm15.172-9.547a23.665 23.665 0 0 0-.879 5.915h-1.987a17.161 17.161 0 0 1 1.223-5.915zm3.635 18.023v-14.21a7.296 7.296 0 0 1-2.253.578v-1.634a6.497 6.497 0 0 0 2.925-1.445h1.396v16.71zm13.331-16.65v1.67a44.515 44.515 0 0 0-4.801 14.979h-2.191a45.365 45.365 0 0 1 4.907-14.811h-6.281v-1.838z"/></g><g class="cls-15"><path class="cls-11" d="M1139.236 754.198c.137 1.696.932 3.07 2.752 3.07 1.74 0 2.575-.972 2.575-2.814 0-1.723-.72-2.659-3.021-3.763-2.73-1.303-3.905-2.5-3.905-4.992a4.09 4.09 0 0 1 4.404-4.307c3.414 0 4.32 2.417 4.369 4.466h-2.072c-.088-.861-.34-2.734-2.359-2.734a2.128 2.128 0 0 0-2.235 2.394c0 1.564.698 2.297 2.818 3.304 3.013 1.427 4.161 2.845 4.161 5.456 0 2.703-1.555 4.726-4.797 4.726-3.53 0-4.669-2.297-4.797-4.806z"/></g><g class="cls-3"><path class="cls-11" d="M1155.846 751.17c0-2.024-.406-3.72-2.222-3.72-2.226 0-2.34 2.831-2.367 3.72zm-4.625 1.59c0 2.345.385 4.47 2.346 4.47a2.25 2.25 0 0 0 2.222-2.183h2.014a4.14 4.14 0 0 1-4.258 3.945c-3.856 0-4.395-3.472-4.395-6.679 0-4.068 1.422-6.617 4.488-6.617 3.445 0 4.267 2.783 4.267 6.016 0 .288-.014.751-.04 1.047zm15.172-.005a7.87 7.87 0 0 0-1.21-.062c-2.169 0-3.04 1.034-3.04 2.39a1.916 1.916 0 0 0 1.896 2.156c1.806 0 2.354-1.29 2.354-3.839zm1.984 3.627c0 .768.066 1.935.101 2.372h-1.89a8.005 8.005 0 0 1-.129-1.41 3 3 0 0 1-3.008 1.635c-2.469 0-3.37-1.935-3.37-3.728 0-2.407 1.63-4.134 4.978-4.134a11.737 11.737 0 0 1 1.286.04v-1.653c0-.958-.173-2.151-1.825-2.151-1.758 0-1.881 1.246-1.957 2.103h-1.987c.048-1.847.932-3.76 4.015-3.76 2.549 0 3.786 1.215 3.786 3.605zm2.06-10.475h1.79v-3.38h2.054v3.38h2.186v1.753h-2.186v8.16c0 .852.18 1.382 1.14 1.382a4.818 4.818 0 0 0 .874-.062v1.568a4.692 4.692 0 0 1-1.573.225c-1.616 0-2.495-.645-2.495-2.72v-8.553h-1.79zm6.463 0h1.789v-3.38h2.054v3.38h2.186v1.753h-2.186v8.16c0 .852.18 1.382 1.14 1.382a4.818 4.818 0 0 0 .874-.062v1.568a4.692 4.692 0 0 1-1.573.225c-1.616 0-2.495-.645-2.495-2.72v-8.553h-1.79z"/></g><path class="cls-11" d="M1185.294 740.795H1187.366V758.756H1185.294z"/><g class="cls-3"><path class="cls-11" d="M1197.052 751.17c0-2.024-.406-3.72-2.222-3.72-2.226 0-2.341 2.831-2.367 3.72zm-4.625 1.59c0 2.345.384 4.47 2.346 4.47a2.251 2.251 0 0 0 2.222-2.183h2.014a4.14 4.14 0 0 1-4.258 3.945c-3.857 0-4.396-3.472-4.396-6.679 0-4.068 1.423-6.617 4.488-6.617 3.446 0 4.267 2.783 4.267 6.016 0 .288-.013.751-.04 1.047zm17.285 4.217h1.48c2.99 0 3.949-2.354 3.949-7.16 0-4.435-1.083-6.392-3.927-6.392h-1.502zm-2.12-15.35h3.93c4.038 0 5.8 2.774 5.8 8.132 0 5.809-1.616 8.998-6.069 8.998h-3.661zm19.178 9.542c0-2.023-.406-3.72-2.222-3.72-2.222 0-2.341 2.832-2.368 3.72zm-4.625 1.59c0 2.346.384 4.47 2.346 4.47a2.251 2.251 0 0 0 2.222-2.182h2.014a4.14 4.14 0 0 1-4.258 3.945c-3.857 0-4.396-3.472-4.396-6.679 0-4.068 1.423-6.617 4.488-6.617 3.446 0 4.267 2.783 4.267 6.016 0 .288-.013.751-.04 1.047zm17.685 1.99c-.053.75-.318 4.231-4.17 4.231-3.418 0-4.324-2.96-4.324-6.705 0-3.57 1.162-6.59 4.492-6.59a3.861 3.861 0 0 1 4.002 4.12h-2.107c-.026-.516-.176-2.358-1.908-2.358-1.75 0-2.372 1.912-2.372 4.823 0 3.114.64 4.948 2.293 4.948 1.767 0 1.965-1.78 2.058-2.47zm10.15-14.016a23.662 23.662 0 0 0-.878 5.915h-1.988a17.16 17.16 0 0 1 1.224-5.915zm3.634 18.022v-14.21a7.297 7.297 0 0 1-2.253.579v-1.635a6.496 6.496 0 0 0 2.924-1.444h1.396v16.71zm7.699-12.528c0 1.696.534 2.796 2.04 2.796 1.326 0 2.015-.84 2.015-2.765 0-1.484-.552-2.668-2.04-2.668s-2.015 1.25-2.015 2.637m4.355 7.81c0-2.213-.729-3.291-2.363-3.291-1.74 0-2.341 1.294-2.341 3.247 0 1.89.685 3.304 2.35 3.304 1.656 0 2.354-1.255 2.354-3.26m-6.776.009c0-2.642 1.255-3.742 2.12-4.201a3.798 3.798 0 0 1-1.705-3.552c0-2.376 1.321-4.377 4.108-4.377 2.611 0 3.945 1.789 3.945 4.192 0 2.217-.852 3.277-1.754 3.697 1.162.508 2.134 1.745 2.134 4.263 0 2.853-1.471 4.912-4.51 4.912-2.915 0-4.338-2.063-4.338-4.934m-126.204 33.313c.137 1.696.927 3.07 2.747 3.07 1.745 0 2.58-.972 2.58-2.814 0-1.722-.72-2.659-3.021-3.763-2.73-1.303-3.905-2.5-3.905-4.992a4.09 4.09 0 0 1 4.404-4.306c3.414 0 4.315 2.416 4.364 4.465h-2.067c-.089-.861-.34-2.734-2.36-2.734a2.128 2.128 0 0 0-2.234 2.394c0 1.564.698 2.297 2.818 3.304 3.013 1.427 4.157 2.845 4.157 5.456 0 2.703-1.555 4.726-4.798 4.726-3.524 0-4.664-2.297-4.792-4.806zm12.505-13.4v6.612a3.047 3.047 0 0 1 3.04-1.727c1.934 0 3.228 1.22 3.228 3.949v9.126h-2.085v-8.702c0-1.515-.41-2.549-1.921-2.549-1.679 0-2.262 1.365-2.262 3.499v7.752h-2.085v-17.96zm15.31 11.958a7.9 7.9 0 0 0-1.215-.062c-2.165 0-3.035 1.034-3.035 2.39a1.916 1.916 0 0 0 1.895 2.155c1.807 0 2.354-1.29 2.354-3.838zm1.983 3.626c0 .77.066 1.935.101 2.373h-1.89a8.005 8.005 0 0 1-.128-1.41 3 3 0 0 1-3.009 1.635c-2.469 0-3.37-1.935-3.37-3.728 0-2.408 1.63-4.135 4.978-4.135a11.61 11.61 0 0 1 1.281.04v-1.652c0-.954-.168-2.147-1.82-2.147-1.758 0-1.881 1.241-1.956 2.098h-1.993c.053-1.846.937-3.759 4.02-3.759 2.549 0 3.786 1.215 3.786 3.605zm3.612-6.497c0-2.628-.018-3.366-.027-3.98h2.001a14.978 14.978 0 0 1 .07 1.621 3.025 3.025 0 0 1 3-1.842c1.908 0 3.304 1.11 3.304 3.914v9.157h-2.08v-8.728c0-1.511-.464-2.518-1.873-2.518-1.617 0-2.31 1.038-2.31 3.542v7.704h-2.085zm13.412 2.552c0 3.026.809 4.47 2.337 4.47 1.895 0 2.39-1.859 2.39-4.8 0-2.885-.354-4.6-2.249-4.6-1.612 0-2.478 1.68-2.478 4.93m6.737 5.456c0 3.428-.862 5.769-4.586 5.769-3.383 0-4.108-2.156-4.183-3.574h2.085a1.922 1.922 0 0 0 2.17 1.833c2.053 0 2.468-1.506 2.468-4.028v-1.06a2.876 2.876 0 0 1-2.942 1.877c-2.623 0-3.882-2.235-3.882-6.228 0-4.577 1.692-6.785 4.156-6.785 1.732 0 2.439.835 2.668 1.612a11.254 11.254 0 0 1 .098-1.4h1.983c-.022.693-.035 1.992-.035 3.737zm5.683-17.095v6.612a3.039 3.039 0 0 1 3.04-1.727c1.93 0 3.228 1.22 3.228 3.949v9.126h-2.085v-8.702c0-1.515-.41-2.549-1.926-2.549-1.678 0-2.257 1.365-2.257 3.499v7.752h-2.085v-17.96zm15.31 11.958a7.934 7.934 0 0 0-1.215-.062c-2.169 0-3.039 1.034-3.039 2.39a1.916 1.916 0 0 0 1.895 2.155c1.811 0 2.359-1.29 2.359-3.838zm1.979 3.626c0 .77.066 1.935.101 2.373h-1.89a8.012 8.012 0 0 1-.128-1.41 2.995 2.995 0 0 1-3.008 1.635c-2.47 0-3.366-1.935-3.366-3.728 0-2.408 1.63-4.135 4.973-4.135a11.696 11.696 0 0 1 1.286.04v-1.652c0-.954-.172-2.147-1.824-2.147-1.759 0-1.882 1.241-1.953 2.098h-1.992c.049-1.846.932-3.759 4.015-3.759 2.549 0 3.786 1.215 3.786 3.605z"/></g><path class="cls-11" d="M1212.804 791.916h2.072v-12.85h-2.072zm.014-15.248h2.071v-2.708h-2.071z"/><g class="cls-3"><path class="cls-11" d="M1224.07 791.917v-17.13h2.536c4.51 11.405 5.177 13.053 5.393 13.817h.023c-.124-2.257-.15-4.824-.15-7.611v-6.206h1.947v17.13h-2.425c-4.678-12.006-5.292-13.623-5.495-14.325h-.026c.128 2.138.141 4.89.141 7.968v6.357zm14.993-6.514c0 3.348.79 4.978 2.412 4.978 1.608 0 2.368-1.643 2.368-4.983 0-3.202-.751-4.757-2.377-4.757-1.564 0-2.403 1.422-2.403 4.762m6.887-.053c0 4.545-1.56 6.807-4.506 6.807-3 0-4.488-2.174-4.488-6.759 0-4.474 1.771-6.542 4.58-6.542 2.863 0 4.414 2.187 4.414 6.494m3.92-6.282c1.007 4.064 2.204 8.88 2.46 10.566h.031c.181-1.524 1.944-7.734 2.597-10.566h2.081l-3.657 12.85h-2.24l-3.472-12.85zm16.914-5.173a23.662 23.662 0 0 0-.879 5.914h-1.987a17.147 17.147 0 0 1 1.228-5.914zm3.637 18.022v-14.21a7.324 7.324 0 0 1-2.257.578v-1.634a6.515 6.515 0 0 0 2.928-1.445h1.396v16.71zm7.698-12.533c0 1.7.534 2.8 2.04 2.8 1.326 0 2.015-.838 2.015-2.764 0-1.485-.553-2.668-2.041-2.668s-2.014 1.25-2.014 2.632m4.35 7.814c0-2.213-.724-3.295-2.363-3.295-1.736 0-2.336 1.299-2.336 3.251 0 1.89.68 3.304 2.35 3.304 1.656 0 2.35-1.254 2.35-3.26m-6.772.01c0-2.642 1.254-3.742 2.116-4.202a3.804 3.804 0 0 1-1.7-3.551c0-2.377 1.32-4.378 4.107-4.378 2.61 0 3.945 1.79 3.945 4.192 0 2.218-.853 3.278-1.754 3.698 1.162.508 2.13 1.745 2.13 4.262 0 2.854-1.467 4.912-4.506 4.912-2.916 0-4.338-2.063-4.338-4.934"/></g><g class="cls-16"><path class="cls-11" d="M1127.682 819.9c-.075.972-.49 5.05-4.748 5.05-4.62 0-5.01-4.719-5.01-8.928 0-5.089 1.379-8.711 5.208-8.711 4.21 0 4.462 3.87 4.51 4.978h-2.111c-.035-.578-.128-3.127-2.434-3.127-2.553 0-2.977 3.432-2.977 6.877 0 3.543.389 7.081 2.862 7.081 2.196 0 2.505-2.394 2.58-3.22zm4.464-1.726c0 3.348.787 4.978 2.412 4.978 1.604 0 2.368-1.643 2.368-4.983 0-3.202-.751-4.757-2.381-4.757-1.56 0-2.399 1.422-2.399 4.762m6.887-.053c0 4.545-1.56 6.807-4.51 6.807-3 0-4.484-2.173-4.484-6.759 0-4.474 1.767-6.541 4.581-6.541 2.858 0 4.413 2.186 4.413 6.493m9.677.055c0-3.203-.725-4.736-2.324-4.736-1.895 0-2.398 1.803-2.398 4.736 0 3.03.265 4.938 2.297 4.938 1.612 0 2.425-1.85 2.425-4.938m-4.647 5.26v5.96h-2.072v-13.809c0-1.754 0-2.942-.022-3.746h1.997c.035.248.07 1.06.07 1.666a2.972 2.972 0 0 1 3.03-1.878c2.421 0 3.75 2.134 3.75 6.45 0 4.7-1.616 6.846-4.13 6.846a2.62 2.62 0 0 1-2.623-1.488"/></g><g class="cls-3"><path class="cls-11" d="M1159.91 817.102c0-2.023-.406-3.72-2.226-3.72-2.222 0-2.337 2.832-2.363 3.72zm-4.624 1.59c0 2.346.384 4.47 2.345 4.47a2.25 2.25 0 0 0 2.222-2.182h2.01a4.134 4.134 0 0 1-4.254 3.945c-3.86 0-4.395-3.472-4.395-6.68 0-4.067 1.422-6.616 4.483-6.616 3.45 0 4.272 2.783 4.272 6.016 0 .287-.013.751-.04 1.047zm9.583-2.874c0-2.629-.018-3.366-.027-3.98h2.001a14.978 14.978 0 0 1 .071 1.62 3.025 3.025 0 0 1 3-1.841c1.908 0 3.303 1.109 3.303 3.914v9.157h-2.08v-8.729c0-1.51-.464-2.518-1.873-2.518-1.617 0-2.31 1.038-2.31 3.543v7.704h-2.085zm14.038-9.088v6.612a3.047 3.047 0 0 1 3.04-1.727c1.934 0 3.228 1.22 3.228 3.95v9.125h-2.085v-8.702c0-1.515-.41-2.549-1.921-2.549-1.679 0-2.262 1.365-2.262 3.499v7.752h-2.085v-17.96z"/></g><g class="cls-16"><path class="cls-11" d="M1194.217 818.688a7.9 7.9 0 0 0-1.215-.062c-2.165 0-3.035 1.038-3.035 2.39a1.916 1.916 0 0 0 1.895 2.156c1.807 0 2.355-1.29 2.355-3.839zm1.983 3.627c0 .768.066 1.934.101 2.372h-1.89a8.011 8.011 0 0 1-.128-1.41 3 3 0 0 1-3.008 1.635c-2.47 0-3.37-1.935-3.37-3.728 0-2.408 1.63-4.135 4.978-4.135a11.606 11.606 0 0 1 1.28.04v-1.652c0-.959-.167-2.147-1.82-2.147-1.757 0-1.881 1.241-1.956 2.098h-1.992c.053-1.846.932-3.759 4.02-3.759 2.548 0 3.785 1.215 3.785 3.605zm5.082-3.945c0 3.025.809 4.47 2.337 4.47 1.89 0 2.39-1.86 2.39-4.802 0-2.884-.353-4.598-2.249-4.598-1.612 0-2.478 1.678-2.478 4.93m6.737 5.455c0 3.428-.862 5.769-4.585 5.769-3.384 0-4.108-2.151-4.184-3.574h2.085a1.924 1.924 0 0 0 2.174 1.833c2.05 0 2.465-1.506 2.465-4.028v-1.06a2.876 2.876 0 0 1-2.942 1.877c-2.624 0-3.883-2.235-3.883-6.228 0-4.577 1.692-6.785 4.156-6.785 1.732 0 2.439.835 2.668 1.612a11.243 11.243 0 0 1 .098-1.4h1.983c-.022.693-.035 1.992-.035 3.737z"/></g><g class="cls-3"><path class="cls-11" d="M1217.727 817.102c0-2.023-.407-3.72-2.222-3.72-2.222 0-2.337 2.832-2.368 3.72zm-4.625 1.59c0 2.346.384 4.47 2.346 4.47a2.256 2.256 0 0 0 2.226-2.182h2.01a4.138 4.138 0 0 1-4.254 3.945c-3.86 0-4.4-3.472-4.4-6.68 0-4.067 1.423-6.616 4.488-6.616 3.446 0 4.267 2.783 4.267 6.016 0 .287-.013.751-.04 1.047zm9.584-2.874c0-2.629-.014-3.366-.027-3.98h2.001a14.98 14.98 0 0 1 .07 1.62 3.027 3.027 0 0 1 3.005-1.841c1.908 0 3.3 1.109 3.3 3.914v9.157h-2.081v-8.729c0-1.51-.46-2.518-1.873-2.518-1.612 0-2.31 1.038-2.31 3.543v7.704h-2.085zm27.739 1.746c0-3.14.053-6.374.101-8.203h-.048c-.619 3.017-2.063 9.886-3.384 15.328h-1.988c-.985-4.797-2.495-12.17-3.105-15.363h-.075c.097 1.992.177 5.733.177 8.67v6.693h-1.97v-17.13h3.14c1.29 5.256 2.527 11.454 2.924 13.742h.027c.327-1.944 1.877-8.689 3.158-13.742h3.092v17.13h-2.05z"/></g><g class="cls-16"><path class="cls-11" d="M1261.731 818.688a7.9 7.9 0 0 0-1.215-.062c-2.164 0-3.034 1.038-3.034 2.39a1.916 1.916 0 0 0 1.895 2.156c1.806 0 2.354-1.29 2.354-3.839zm1.984 3.627c0 .768.066 1.934.101 2.372h-1.89a8.011 8.011 0 0 1-.129-1.41 3 3 0 0 1-3.008 1.635c-2.469 0-3.37-1.935-3.37-3.728 0-2.408 1.63-4.135 4.978-4.135a11.606 11.606 0 0 1 1.281.04v-1.652c0-.959-.168-2.147-1.82-2.147-1.758 0-1.882 1.241-1.957 2.098h-1.992c.053-1.846.937-3.759 4.02-3.759 2.549 0 3.786 1.215 3.786 3.605zm4.278-10.475c1.298 5.132 2.332 8.918 2.5 10.327h.022c.265-1.546 1.36-5.822 2.513-10.327h2.125l-3.75 13.481c-1.052 3.808-2.138 4.263-3.954 4.263a4.931 4.931 0 0 1-.958-.089v-1.815a5.137 5.137 0 0 0 .86.066c1.304 0 1.68-.848 2.161-2.814l-3.781-13.092z"/></g><g class="cls-3"><path class="cls-11" d="M1284.846 806.666a23.662 23.662 0 0 0-.88 5.914h-1.987a17.147 17.147 0 0 1 1.228-5.914zm3.608 18.022v-14.21a7.297 7.297 0 0 1-2.253.578v-1.634a6.473 6.473 0 0 0 2.924-1.444h1.4v16.71zm7.726-12.528c0 1.696.534 2.796 2.04 2.796 1.326 0 2.015-.84 2.015-2.765 0-1.484-.552-2.668-2.04-2.668s-2.015 1.25-2.015 2.637m4.35 7.81c0-2.213-.724-3.296-2.362-3.296-1.736 0-2.337 1.299-2.337 3.251 0 1.89.68 3.304 2.35 3.304 1.656 0 2.35-1.254 2.35-3.26m-6.772.01c0-2.642 1.255-3.742 2.116-4.201a3.804 3.804 0 0 1-1.7-3.552c0-2.376 1.32-4.377 4.107-4.377 2.611 0 3.945 1.789 3.945 4.192 0 2.217-.852 3.277-1.754 3.697 1.162.508 2.13 1.745 2.13 4.262 0 2.854-1.467 4.912-4.506 4.912-2.915 0-4.338-2.062-4.338-4.934"/></g><g class="cls-17"><path class="cls-11" d="M1440.337 758.895c.137 1.696.932 3.07 2.752 3.07 1.74 0 2.575-.972 2.575-2.814 0-1.723-.72-2.66-3.022-3.763-2.73-1.304-3.904-2.5-3.904-4.992a4.09 4.09 0 0 1 4.404-4.307c3.414 0 4.32 2.416 4.368 4.466h-2.071c-.089-.861-.34-2.734-2.36-2.734a2.128 2.128 0 0 0-2.234 2.394c0 1.564.698 2.297 2.818 3.304 3.012 1.427 4.16 2.845 4.16 5.455 0 2.704-1.554 4.727-4.796 4.727-3.53 0-4.67-2.297-4.797-4.806z"/></g><g class="cls-3"><path class="cls-11" d="M1456.639 757.453a7.873 7.873 0 0 0-1.21-.062c-2.17 0-3.04 1.033-3.04 2.39a1.916 1.916 0 0 0 1.895 2.155c1.807 0 2.355-1.29 2.355-3.838zm1.983 3.626c0 .769.066 1.935.101 2.372h-1.89a8.012 8.012 0 0 1-.128-1.409 3 3 0 0 1-3.008 1.635c-2.47 0-3.37-1.935-3.37-3.729 0-2.407 1.63-4.134 4.978-4.134a11.736 11.736 0 0 1 1.285.04v-1.652c0-.959-.172-2.147-1.824-2.147-1.758 0-1.882 1.241-1.957 2.098h-1.988c.049-1.846.932-3.76 4.015-3.76 2.549 0 3.786 1.216 3.786 3.605zm3.612-6.497c0-2.628-.013-3.366-.026-3.98h2a14.98 14.98 0 0 1 .072 1.621 3.027 3.027 0 0 1 3.003-1.842c1.908 0 3.3 1.109 3.3 3.914v9.157h-2.08v-8.729c0-1.51-.464-2.518-1.873-2.518-1.617 0-2.31 1.038-2.31 3.543v7.704h-2.086zm19.543 7.092h1.48c2.99 0 3.953-2.355 3.953-7.16 0-4.436-1.087-6.388-3.932-6.388h-1.501zm-2.12-15.35h3.93c4.038 0 5.8 2.774 5.8 8.132 0 5.809-1.616 8.998-6.069 8.998h-3.662z"/></g><path class="cls-11" d="M1492.483 763.451h2.067v-12.85h-2.067zm.013-15.248h2.067v-2.708h-2.067z"/><g class="cls-3"><path class="cls-11" d="M1504.212 755.866c0-2.023-.406-3.719-2.222-3.719-2.226 0-2.341 2.832-2.368 3.72zm-4.625 1.59c0 2.346.384 4.47 2.346 4.47a2.251 2.251 0 0 0 2.222-2.181h2.014a4.14 4.14 0 0 1-4.258 3.944c-3.857 0-4.396-3.472-4.396-6.679 0-4.068 1.423-6.617 4.488-6.617 3.446 0 4.267 2.783 4.267 6.017 0 .287-.013.75-.04 1.047zm11.256-.322c0 3.026.812 4.47 2.336 4.47 1.89 0 2.39-1.86 2.39-4.801 0-2.885-.353-4.598-2.248-4.598-1.613 0-2.478 1.678-2.478 4.93m6.736 5.454c0 3.428-.861 5.77-4.585 5.77-3.38 0-4.108-2.152-4.183-3.574h2.085a1.922 1.922 0 0 0 2.169 1.833c2.054 0 2.469-1.506 2.469-4.029v-1.06a2.876 2.876 0 0 1-2.942 1.878c-2.624 0-3.879-2.235-3.879-6.229 0-4.576 1.688-6.785 4.153-6.785 1.731 0 2.438.835 2.668 1.613a11.24 11.24 0 0 1 .097-1.4h1.983c-.022.693-.035 1.992-.035 3.736zm5.123-5.65c0 3.348.79 4.978 2.412 4.978 1.603 0 2.368-1.644 2.368-4.983 0-3.202-.751-4.757-2.377-4.757-1.564 0-2.403 1.422-2.403 4.761m6.887-.053c0 4.546-1.56 6.807-4.506 6.807-3 0-4.488-2.173-4.488-6.758 0-4.475 1.771-6.542 4.58-6.542 2.863 0 4.414 2.187 4.414 6.493m10.333-11.455a23.662 23.662 0 0 0-.879 5.915h-1.988a17.16 17.16 0 0 1 1.224-5.915zm3.633 18.022v-14.21a7.297 7.297 0 0 1-2.253.579v-1.635a6.497 6.497 0 0 0 2.924-1.444h1.396v16.71zm7.4-11.572c0 1.988.623 3.383 2.253 3.383 1.572 0 2.279-1.228 2.279-3.136 0-1.961-.323-3.794-2.257-3.794-1.462 0-2.275 1.201-2.275 3.547m.106 8.203a1.916 1.916 0 0 0 2.005 1.89c2.333 0 2.408-3.9 2.478-6.59a2.854 2.854 0 0 1-2.805 1.599c-2.411 0-3.856-1.763-3.856-4.943 0-3.534 1.648-5.438 4.36-5.438 2.854 0 4.36 1.745 4.36 7.068 0 7.191-1.078 10.023-4.634 10.023a3.628 3.628 0 0 1-3.922-3.61z"/></g><g class="cls-18"><path class="cls-11" d="M1425.58 789.513c.137 1.696.932 3.07 2.752 3.07 1.74 0 2.575-.972 2.575-2.814 0-1.723-.72-2.659-3.022-3.763-2.73-1.303-3.904-2.5-3.904-4.992a4.09 4.09 0 0 1 4.404-4.307c3.414 0 4.32 2.417 4.368 4.466h-2.071c-.089-.861-.34-2.734-2.36-2.734a2.128 2.128 0 0 0-2.234 2.394c0 1.564.697 2.297 2.818 3.304 3.012 1.427 4.16 2.845 4.16 5.456 0 2.703-1.554 4.726-4.796 4.726-3.53 0-4.67-2.301-4.797-4.806z"/></g><g class="cls-3"><path class="cls-11" d="M1438.087 776.112v6.612a3.047 3.047 0 0 1 3.04-1.727c1.93 0 3.228 1.22 3.228 3.949v9.126h-2.085v-8.702c0-1.515-.41-2.549-1.926-2.549-1.674 0-2.257 1.365-2.257 3.499v7.752h-2.085v-17.96zm15.307 11.958a7.836 7.836 0 0 0-1.21-.062c-2.17 0-3.04 1.034-3.04 2.39a1.916 1.916 0 0 0 1.896 2.156c1.806 0 2.354-1.29 2.354-3.839zm1.984 3.627c0 .769.066 1.935.101 2.372h-1.89a8.012 8.012 0 0 1-.129-1.41 3 3 0 0 1-3.008 1.635c-2.469 0-3.37-1.935-3.37-3.728 0-2.407 1.63-4.134 4.978-4.134a11.739 11.739 0 0 1 1.285.04v-1.653c0-.954-.172-2.146-1.824-2.146-1.758 0-1.882 1.24-1.957 2.098h-1.987c.048-1.847.932-3.76 4.015-3.76 2.549 0 3.786 1.215 3.786 3.605zm3.612-6.497c0-2.628-.013-3.366-.027-3.98h2.001a14.983 14.983 0 0 1 .071 1.621 3.027 3.027 0 0 1 3.004-1.842c1.908 0 3.3 1.109 3.3 3.914v9.157h-2.081v-8.729c0-1.51-.464-2.517-1.873-2.517-1.617 0-2.31 1.038-2.31 3.542v7.704h-2.085zm13.412 2.552c0 3.026.813 4.47 2.337 4.47 1.89 0 2.39-1.86 2.39-4.801 0-2.885-.353-4.599-2.248-4.599-1.613 0-2.479 1.679-2.479 4.93m6.737 5.455c0 3.428-.862 5.77-4.585 5.77-3.38 0-4.108-2.157-4.183-3.574h2.085a1.924 1.924 0 0 0 2.173 1.833c2.05 0 2.465-1.507 2.465-4.029v-1.06a2.876 2.876 0 0 1-2.942 1.877c-2.624 0-3.879-2.235-3.879-6.228 0-4.576 1.688-6.785 4.152-6.785 1.732 0 2.439.835 2.668 1.612a11.24 11.24 0 0 1 .098-1.4h1.983c-.022.694-.035 1.992-.035 3.737zm5.684-17.095v6.612a3.047 3.047 0 0 1 3.039-1.727c1.93 0 3.228 1.22 3.228 3.949v9.126h-2.084v-8.702c0-1.515-.411-2.549-1.926-2.549-1.674 0-2.257 1.365-2.257 3.499v7.752h-2.085v-17.96zm15.306 11.958a7.836 7.836 0 0 0-1.21-.062c-2.17 0-3.04 1.034-3.04 2.39a1.916 1.916 0 0 0 1.896 2.156c1.806 0 2.354-1.29 2.354-3.839zm1.983 3.627c0 .769.067 1.935.102 2.372h-1.89a8.011 8.011 0 0 1-.129-1.41 3 3 0 0 1-3.008 1.635c-2.469 0-3.37-1.935-3.37-3.728 0-2.407 1.634-4.134 4.978-4.134a11.739 11.739 0 0 1 1.285.04v-1.653c0-.954-.172-2.146-1.824-2.146-1.758 0-1.882 1.24-1.957 2.098h-1.987c.048-1.847.932-3.76 4.015-3.76 2.549 0 3.785 1.215 3.785 3.605z"/></g><path class="cls-11" d="M1505.699 794.072h2.071v-12.85h-2.071zm.013-15.249h2.067v-2.712h-2.067z"/><g class="cls-3"><path class="cls-11" d="M1520.365 789.887c0 2.434-.415 4.408-3.468 4.408a8.165 8.165 0 0 1-1.413-.124v-1.784a8.155 8.155 0 0 0 1.1.075c1.444 0 1.674-.83 1.674-2.407V776.94h2.107zm11.688.616c0 1.665 0 2.942.026 3.569h-1.974a11.878 11.878 0 0 1-.098-1.652 2.931 2.931 0 0 1-3.017 1.877c-1.554 0-3.21-.671-3.21-3.843v-9.232h2.084v8.75c0 1.569.42 2.514 1.816 2.514 1.36 0 2.288-.817 2.288-3.45v-7.814h2.085zm3.414-5.303c0-2.628-.013-3.366-.026-3.98h2a14.98 14.98 0 0 1 .072 1.621 3.027 3.027 0 0 1 3.003-1.842c1.909 0 3.3 1.109 3.3 3.914v9.157h-2.08v-8.729c0-1.51-.464-2.517-1.873-2.517-1.617 0-2.31 1.038-2.31 3.542v7.704h-2.086zm19.212-9.152a23.662 23.662 0 0 0-.879 5.915h-1.987a17.16 17.16 0 0 1 1.223-5.915zm3.635 18.022v-14.21a7.297 7.297 0 0 1-2.252.579v-1.635a6.497 6.497 0 0 0 2.924-1.444h1.396v16.71zm7.374-11.572c0 1.987.622 3.383 2.252 3.383 1.573 0 2.28-1.228 2.28-3.136 0-1.961-.323-3.795-2.257-3.795-1.463 0-2.275 1.202-2.275 3.548m.106 8.202a1.92 1.92 0 0 0 2.005 1.89c2.328 0 2.408-3.9 2.478-6.59a2.857 2.857 0 0 1-2.805 1.604c-2.412 0-3.856-1.767-3.856-4.947 0-3.534 1.643-5.438 4.36-5.438 2.853 0 4.36 1.745 4.36 7.068 0 7.19-1.078 10.022-4.634 10.022a3.628 3.628 0 0 1-3.923-3.609z"/></g><g class="cls-19"><path class="cls-11" d="M1419.911 822.978h2.209c1.926 0 2.977-1.135 2.977-3.322 0-2.19-1.087-3.308-3.33-3.308h-1.856zm1.873-8.34c2.103 0 2.836-.914 2.836-2.685a2.382 2.382 0 0 0-2.624-2.664h-2.085v5.35zm-3.945-7.08h4.603a3.868 3.868 0 0 1 4.227 4.2c0 2.27-1.09 3.278-2.08 3.631 1.28.46 2.628 1.643 2.628 4.276 0 3.114-1.908 5.023-4.894 5.023h-4.484z"/></g><g class="cls-3"><path class="cls-11" d="M1435.96 818.686a7.872 7.872 0 0 0-1.21-.062c-2.17 0-3.04 1.034-3.04 2.39a1.916 1.916 0 0 0 1.895 2.155c1.807 0 2.355-1.29 2.355-3.838zm1.983 3.626c0 .769.066 1.935.102 2.372h-1.891a8.011 8.011 0 0 1-.128-1.409 3 3 0 0 1-3.008 1.635c-2.47 0-3.37-1.935-3.37-3.728 0-2.408 1.63-4.135 4.978-4.135a11.736 11.736 0 0 1 1.285.04v-1.652c0-.954-.172-2.147-1.824-2.147-1.758 0-1.882 1.241-1.957 2.098h-1.988c.049-1.846.932-3.759 4.015-3.759 2.55 0 3.786 1.215 3.786 3.605zm3.612-6.102c0-2.058 0-3.45-.026-4.373h1.987c.027.314.062.897.062 2.257a3.465 3.465 0 0 1 3.393-2.456v2.297c-2.191.044-3.349 1.286-3.349 3.662v7.09h-2.067zm15.501 4.47c-.053.75-.318 4.231-4.17 4.231-3.418 0-4.324-2.96-4.324-6.705 0-3.574 1.162-6.59 4.492-6.59a3.861 3.861 0 0 1 4.002 4.12h-2.107c-.026-.516-.176-2.358-1.908-2.358-1.75 0-2.372 1.912-2.372 4.823 0 3.114.64 4.948 2.293 4.948 1.767 0 1.965-1.78 2.058-2.47zm8.981-3.58c0-2.023-.41-3.72-2.222-3.72-2.226 0-2.34 2.832-2.367 3.72zm-4.625 1.59c0 2.346.385 4.47 2.346 4.47a2.251 2.251 0 0 0 2.222-2.182h2.014a4.14 4.14 0 0 1-4.258 3.945c-3.86 0-4.395-3.472-4.395-6.679 0-4.068 1.422-6.617 4.488-6.617 3.445 0 4.267 2.783 4.267 6.016 0 .288-.014.751-.04 1.047z"/></g><path class="cls-11" d="M1470.997 806.727H1473.064V824.688H1470.997z"/><g class="cls-3"><path class="cls-11" d="M1478.166 818.172c0 3.348.79 4.978 2.411 4.978 1.604 0 2.368-1.643 2.368-4.982 0-3.203-.75-4.758-2.376-4.758-1.564 0-2.403 1.423-2.403 4.762m6.886-.053c0 4.545-1.56 6.807-4.506 6.807-2.999 0-4.487-2.173-4.487-6.758 0-4.475 1.77-6.542 4.58-6.542 2.863 0 4.413 2.186 4.413 6.493m2.936-2.303c0-2.629-.013-3.366-.026-3.98h2a14.983 14.983 0 0 1 .071 1.62 3.027 3.027 0 0 1 3.004-1.841c1.908 0 3.3 1.108 3.3 3.913v9.157h-2.08v-8.728c0-1.51-.465-2.518-1.874-2.518-1.616 0-2.31 1.038-2.31 3.543v7.703h-2.085zm17.403 2.87a7.872 7.872 0 0 0-1.21-.062c-2.169 0-3.039 1.034-3.039 2.39a1.916 1.916 0 0 0 1.895 2.155c1.807 0 2.354-1.29 2.354-3.838zm1.984 3.626c0 .769.066 1.935.101 2.372h-1.89a8.011 8.011 0 0 1-.128-1.409 3 3 0 0 1-3.009 1.635c-2.469 0-3.37-1.935-3.37-3.728 0-2.408 1.63-4.135 4.978-4.135a11.736 11.736 0 0 1 1.286.04v-1.652c0-.954-.173-2.147-1.825-2.147-1.758 0-1.881 1.241-1.956 2.098h-1.988c.049-1.846.932-3.759 4.015-3.759 2.549 0 3.786 1.215 3.786 3.605zm19.51-4.75c0-3.14.053-6.374.101-8.203h-.048c-.623 3.017-2.063 9.886-3.384 15.328h-1.988c-.99-4.797-2.495-12.17-3.11-15.363h-.07c.097 1.992.177 5.73.177 8.671v6.692h-1.97v-17.13h3.14c1.29 5.257 2.527 11.454 2.924 13.742h.027c.322-1.944 1.877-8.689 3.154-13.742h3.096v17.13h-2.05z"/></g><g class="cls-19"><path class="cls-11" d="M1538.214 818.686a7.836 7.836 0 0 0-1.21-.062c-2.17 0-3.04 1.034-3.04 2.39a1.916 1.916 0 0 0 1.896 2.155c1.806 0 2.354-1.29 2.354-3.838zm1.983 3.626c0 .769.067 1.935.102 2.372h-1.89a8.012 8.012 0 0 1-.129-1.409 3 3 0 0 1-3.008 1.635c-2.469 0-3.37-1.935-3.37-3.728 0-2.408 1.63-4.135 4.978-4.135a11.736 11.736 0 0 1 1.285.04v-1.652c0-.954-.172-2.147-1.824-2.147-1.758 0-1.882 1.241-1.957 2.098h-1.987c.048-1.846.932-3.759 4.015-3.759 2.549 0 3.785 1.215 3.785 3.605zm4.258-10.475c1.299 5.133 2.333 8.919 2.5 10.328h.023c.26-1.546 1.36-5.822 2.509-10.328h2.124l-3.746 13.482c-1.05 3.807-2.137 4.262-3.953 4.262a4.974 4.974 0 0 1-.963-.088v-1.815a5.15 5.15 0 0 0 .866.066c1.303 0 1.678-.848 2.16-2.814l-3.781-13.093z"/></g><g class="cls-3"><path class="cls-11" d="M1561.306 806.663a23.662 23.662 0 0 0-.879 5.915h-1.988a17.16 17.16 0 0 1 1.224-5.915zm3.635 18.023v-14.21a7.297 7.297 0 0 1-2.253.578v-1.634a6.497 6.497 0 0 0 2.924-1.445h1.396v16.71zm7.373-11.573c0 1.988.623 3.384 2.253 3.384 1.572 0 2.279-1.228 2.279-3.137 0-1.96-.322-3.794-2.257-3.794-1.462 0-2.275 1.201-2.275 3.547m.106 8.203a1.916 1.916 0 0 0 2.005 1.89c2.328 0 2.408-3.9 2.478-6.59a2.857 2.857 0 0 1-2.805 1.603c-2.411 0-3.856-1.767-3.856-4.947 0-3.534 1.648-5.438 4.36-5.438 2.854 0 4.36 1.745 4.36 7.068 0 7.191-1.078 10.023-4.634 10.023a3.628 3.628 0 0 1-3.922-3.61z"/></g><g class="cls-20"><path class="cls-11" d="M1171.28 324.902v-17.97a9.358 9.358 0 0 1-2.854.729v-2.063a8.295 8.295 0 0 0 3.702-1.829h1.771v21.133zm14.034-13.221c0-1.93.013-3.963.092-5.592-.918 2.429-3.547 7.862-5.11 11.131h5.018zm0 13.22v-5.477h-7.545v-2.2l6.67-13.38h3.348v13.376h2.037l-.261 2.204h-1.776v5.478zm5.675 3.58a27.736 27.736 0 0 0 1.776-7.801h2.513a20.296 20.296 0 0 1-2.168 7.8zm10.277-19.426c0 2.15.68 3.538 2.58 3.538 1.674 0 2.549-1.06 2.549-3.494 0-1.877-.698-3.38-2.58-3.38-1.886 0-2.549 1.582-2.549 3.336m5.509 9.881c0-2.8-.928-4.165-2.995-4.165-2.196 0-2.955 1.638-2.955 4.112 0 2.385.865 4.174 2.968 4.174s2.982-1.585 2.982-4.12m-8.57.008c0-3.34 1.586-4.731 2.677-5.31-1.263-.742-2.151-2.177-2.151-4.492 0-3.004 1.67-5.535 5.195-5.535 3.3 0 4.987 2.257 4.987 5.3 0 2.806-1.078 4.14-2.218 4.679 1.467.64 2.695 2.204 2.695 5.389 0 3.604-1.855 6.21-5.699 6.21-3.688 0-5.486-2.61-5.486-6.241m17.118-4.878c0 5.87.543 8.905 3.008 8.905 2.434 0 2.995-2.885 2.995-8.844 0-6.095-.663-8.29-2.96-8.29-2.204 0-3.043 2.128-3.043 8.229m8.653.088c0 7.77-1.555 11.052-5.659 11.052-4.223 0-5.645-3.587-5.645-11.07 0-8.092 2.156-10.544 5.738-10.544 3.826 0 5.566 2.863 5.566 10.562m6.054-.088c0 5.87.543 8.905 3.008 8.905 2.43 0 2.99-2.885 2.99-8.844 0-6.095-.662-8.29-2.959-8.29-2.2 0-3.039 2.128-3.039 8.229m8.654.088c0 7.77-1.555 11.052-5.663 11.052-4.219 0-5.646-3.587-5.646-11.07 0-8.092 2.16-10.544 5.743-10.544 3.83 0 5.566 2.863 5.566 10.562"/></g><g class="cls-21"><path class="cls-11" d="M887.688 538.657h-6.6c-.132 1.873-.477 5.133-.587 6.25a3.849 3.849 0 0 1 3.282-1.378c3.41 0 4.925 2.73 4.925 6.529 0 4.126-1.298 7.65-5.76 7.65-3.918 0-5.274-2.601-5.407-5.534h2.624c.115 1.44.544 3.361 2.858 3.361 2.355 0 2.973-2.261 2.973-5.181 0-2.699-.605-4.638-2.827-4.638-1.762 0-2.487 1.095-2.933 2.53l-2.425-.406c.349-2.447.883-8.397 1.095-11.471h9.109zm2.757 22.345a27.437 27.437 0 0 0 1.776-7.8h2.513a20.3 20.3 0 0 1-2.164 7.8zm15.444-10.47c0-3.047-.8-4.726-2.902-4.726-2.248 0-3.114 1.838-3.114 3.905 0 2.84.618 5.87 3.039 5.87 1.895 0 2.977-1.673 2.977-5.048m-.305-9.7c-.057-.424-.234-2.576-2.442-2.576-3.08 0-3.176 4.74-3.256 7.461a4.04 4.04 0 0 1 3.75-2.111c3.18 0 4.886 2.504 4.886 6.674 0 3.945-1.431 7.448-5.623 7.448-4.652 0-5.637-4.268-5.637-10.275 0-6.869 1.352-11.339 6.003-11.339 3.971 0 4.727 3.225 4.789 4.718zm8.784 5.755c0 5.87.543 8.905 3.008 8.905 2.43 0 2.99-2.884 2.99-8.843 0-6.096-.662-8.291-2.959-8.291-2.204 0-3.039 2.129-3.039 8.23m8.653.088c0 7.77-1.554 11.052-5.663 11.052-4.218 0-5.645-3.587-5.645-11.07 0-8.092 2.16-10.544 5.743-10.544 3.825 0 5.565 2.862 5.565 10.562m6.05-.089c0 5.87.544 8.905 3.009 8.905 2.434 0 2.995-2.884 2.995-8.843 0-6.096-.663-8.291-2.96-8.291-2.204 0-3.043 2.129-3.043 8.23m8.653.088c0 7.77-1.555 11.052-5.658 11.052-4.223 0-5.646-3.587-5.646-11.07 0-8.092 2.156-10.544 5.738-10.544 3.83 0 5.566 2.862 5.566 10.562"/></g><g class="cls-22"><path class="cls-11" d="M588.297 581.496v-17.965a9.482 9.482 0 0 1-2.854.725v-2.063a8.295 8.295 0 0 0 3.702-1.829h1.766v21.132zm5.383 3.58a27.74 27.74 0 0 0 1.776-7.801h2.513a20.3 20.3 0 0 1-2.164 7.8z"/></g><g class="cls-3"><path class="cls-11" d="M610.89 562.73h-6.599c-.132 1.873-.477 5.133-.587 6.25a3.852 3.852 0 0 1 3.286-1.378c3.406 0 4.921 2.73 4.921 6.53 0 4.125-1.299 7.65-5.76 7.65-3.918 0-5.274-2.602-5.407-5.535h2.624c.115 1.44.543 3.361 2.863 3.361 2.35 0 2.968-2.261 2.968-5.18 0-2.7-.605-4.639-2.827-4.639-1.763 0-2.487 1.095-2.929 2.531l-2.425-.406c.345-2.448.88-8.398 1.091-11.472h9.109z"/></g><g class="cls-22"><path class="cls-11" d="M618.158 565.65c0 2.15.676 3.537 2.575 3.537 1.674 0 2.549-1.06 2.549-3.494 0-1.877-.698-3.379-2.58-3.379-1.886 0-2.544 1.581-2.544 3.335m5.504 9.882c0-2.801-.923-4.166-2.99-4.166-2.2 0-2.96 1.639-2.96 4.112 0 2.386.866 4.175 2.973 4.175 2.098 0 2.977-1.586 2.977-4.122m-8.57.01c0-3.34 1.586-4.732 2.677-5.31-1.263-.742-2.146-2.178-2.146-4.493 0-3.003 1.665-5.534 5.19-5.534 3.304 0 4.987 2.257 4.987 5.3 0 2.805-1.078 4.14-2.213 4.678 1.466.64 2.694 2.204 2.694 5.39 0 3.604-1.86 6.214-5.702 6.214-3.684 0-5.487-2.615-5.487-6.246m17.12-4.877c0 5.87.543 8.905 3.008 8.905 2.434 0 2.99-2.884 2.99-8.843 0-6.096-.658-8.292-2.955-8.292-2.208 0-3.043 2.13-3.043 8.23m8.653.088c0 7.77-1.555 11.052-5.663 11.052-4.218 0-5.645-3.587-5.645-11.07 0-8.096 2.16-10.544 5.743-10.544 3.825 0 5.565 2.863 5.565 10.562"/></g><g class="cls-23"><path class="cls-11" d="M313.42 632.814h-6.6c-.132 1.873-.477 5.133-.587 6.25a3.852 3.852 0 0 1 3.286-1.378c3.406 0 4.92 2.73 4.92 6.529 0 4.125-1.298 7.65-5.76 7.65-3.917 0-5.273-2.601-5.406-5.534h2.624c.115 1.44.543 3.361 2.862 3.361 2.35 0 2.969-2.262 2.969-5.181 0-2.7-.605-4.638-2.827-4.638-1.763 0-2.487 1.095-2.929 2.53l-2.425-.406c.345-2.447.88-8.397 1.091-11.471h9.108zm14.196 0h-6.6c-.132 1.873-.476 5.133-.587 6.25a3.852 3.852 0 0 1 3.287-1.378c3.405 0 4.92 2.73 4.92 6.529 0 4.125-1.298 7.65-5.76 7.65-3.918 0-5.274-2.601-5.406-5.534h2.624c.114 1.44.543 3.361 2.858 3.361 2.354 0 2.972-2.262 2.972-5.181 0-2.7-.605-4.638-2.827-4.638-1.762 0-2.487 1.095-2.928 2.53l-2.425-.406c.344-2.447.879-8.397 1.09-11.471h9.105zm6.932 7.931c0 5.87.543 8.905 3.008 8.905 2.434 0 2.99-2.884 2.99-8.843 0-6.096-.657-8.291-2.954-8.291-2.209 0-3.044 2.129-3.044 8.229m8.654.088c0 7.77-1.555 11.052-5.663 11.052-4.219 0-5.646-3.586-5.646-11.07 0-8.092 2.16-10.543 5.743-10.543 3.825 0 5.566 2.862 5.566 10.561"/></g><g class="cls-3"><path class="cls-4" d="M314.249 674.167h-6.507c-.102 1.356-.375 3.689-.477 4.634a4.057 4.057 0 0 1 3.013-1.003c3.467 0 5.141 2.717 5.141 6.516 0 4.32-1.378 7.858-6.37 7.858-3.97 0-5.768-2.416-5.87-5.849h3.764c.101 1.387.52 2.805 2.221 2.805 1.988 0 2.346-1.842 2.346-4.302 0-2.531-.455-3.953-2.337-3.953-1.435 0-1.917.99-2.261 2.146l-3.472-.486c.402-2.553.99-8.816 1.183-11.635h10.045zm14.993 0h-6.506c-.102 1.356-.376 3.689-.477 4.634a4.064 4.064 0 0 1 3.012-1.003c3.468 0 5.142 2.717 5.142 6.516 0 4.32-1.378 7.858-6.37 7.858-3.975 0-5.769-2.416-5.87-5.849h3.763c.102 1.387.521 2.805 2.222 2.805 1.988 0 2.345-1.842 2.345-4.302 0-2.531-.455-3.953-2.336-3.953-1.436 0-1.917.99-2.262 2.146l-3.472-.486c.398-2.553.99-8.816 1.184-11.635h10.045zm8.047 6.894c0 5.252.243 7.96 2.328 7.96 2.054 0 2.302-2.602 2.302-7.894 0-5.499-.292-7.301-2.293-7.301-1.877 0-2.337 2.063-2.337 7.235m8.45.146c0 8.08-1.81 10.968-6.148 10.968-4.316 0-6.118-3.052-6.118-10.972 0-8.5 2.562-10.558 6.215-10.558 3.852 0 6.052 2.346 6.052 10.562m240.122-36.377v-16.623a15.12 15.12 0 0 1-2.297.036v-2.893a6.507 6.507 0 0 0 3.578-1.6h2.53v21.08zm6.185 3.376a33.31 33.31 0 0 0 1.886-8.265h3.613a21.802 21.802 0 0 1-2.491 8.265zm12.07-14.2c0 5.252.243 7.96 2.328 7.96 2.054 0 2.302-2.602 2.302-7.894 0-5.5-.292-7.302-2.293-7.302-1.877 0-2.337 2.063-2.337 7.236m8.45.145c0 8.08-1.81 10.968-6.148 10.968-4.316 0-6.123-3.052-6.123-10.972 0-8.499 2.567-10.557 6.22-10.557 3.852 0 6.052 2.345 6.052 10.561m7.122-4.853c0 2.036.623 2.969 2.036 2.969 1.392 0 2.006-.981 2.006-2.885 0-1.785-.579-2.836-2.037-2.836-1.409 0-2.005 1.122-2.005 2.752m4.324 9.391c0-2.434-.8-3.406-2.35-3.406-1.603 0-2.297 1.105-2.297 3.42 0 2.142.69 3.454 2.346 3.454 1.586 0 2.301-1.22 2.301-3.468m-8.432.075c0-2.999 1.52-4.5 2.553-5.049a4.806 4.806 0 0 1-2.04-4.4c0-3.423 2.035-5.697 5.724-5.697 3.317 0 5.53 1.864 5.53 5.42 0 2.685-1.011 4.05-2.107 4.642 1.317.61 2.558 2.028 2.558 5.142 0 3.754-2.103 6.294-6.26 6.294-3.82 0-5.958-2.367-5.958-6.352m19.065-4.758c0 5.252.243 7.96 2.328 7.96 2.054 0 2.3-2.602 2.3-7.894 0-5.5-.29-7.302-2.292-7.302-1.877 0-2.336 2.063-2.336 7.236m8.45.145c0 8.08-1.811 10.968-6.149 10.968-4.316 0-6.118-3.052-6.118-10.972 0-8.499 2.562-10.557 6.215-10.557 3.852 0 6.052 2.345 6.052 10.561"/><path class="cls-5" d="M603.104 655.77h-6.506c-.102 1.355-.376 3.688-.477 4.633a4.057 4.057 0 0 1 3.012-1.003c3.468 0 5.142 2.717 5.142 6.516 0 4.32-1.378 7.858-6.37 7.858-3.975 0-5.769-2.416-5.87-5.848h3.763c.102 1.387.522 2.805 2.222 2.805 1.988 0 2.346-1.842 2.346-4.303 0-2.53-.455-3.953-2.337-3.953-1.436 0-1.917.99-2.262 2.147l-3.472-.486c.398-2.558.99-8.817 1.184-11.635h10.045zm8.047 6.893c0 5.252.243 7.96 2.328 7.96 2.054 0 2.302-2.602 2.302-7.894 0-5.5-.292-7.302-2.293-7.302-1.877 0-2.337 2.063-2.337 7.236m8.45.146c0 8.079-1.81 10.968-6.148 10.968-4.316 0-6.118-3.053-6.118-10.973 0-8.499 2.562-10.557 6.215-10.557 3.852 0 6.052 2.346 6.052 10.562m6.989-.146c0 5.252.243 7.96 2.328 7.96 2.054 0 2.301-2.602 2.301-7.894 0-5.5-.291-7.302-2.292-7.302-1.878 0-2.337 2.063-2.337 7.236m8.45.146c0 8.079-1.811 10.968-6.149 10.968-4.315 0-6.122-3.053-6.122-10.973 0-8.499 2.566-10.557 6.22-10.557 3.851 0 6.051 2.346 6.051 10.562"/><path class="cls-24" d="M888.908 603.757c0-1.921.044-3.37.106-4.872-.6 1.93-2.354 6.025-3.44 8.565h3.334zm0 10.624v-4.276h-6.352v-2.677l5.186-11.039h4.174v11.061h1.644l-.287 2.655h-1.357v4.276zm5.57 2.892a28.424 28.424 0 0 0 1.617-7.08h3.101a18.764 18.764 0 0 1-2.138 7.08zm7.692-2.892v-14.246a14.372 14.372 0 0 1-1.966.03v-2.482a5.6 5.6 0 0 0 3.066-1.369h2.169v18.067zm9.99-9.278c0 4.5.208 6.82 1.997 6.82 1.763 0 1.975-2.226 1.975-6.763 0-4.713-.256-6.26-1.97-6.26-1.608 0-2.001 1.768-2.001 6.203m7.244.123c0 6.931-1.555 9.405-5.274 9.405-3.693 0-5.243-2.62-5.243-9.405 0-7.288 2.2-9.055 5.327-9.055 3.304 0 5.19 2.014 5.19 9.055m5.994-.123c0 4.5.208 6.82 1.997 6.82 1.762 0 1.974-2.226 1.974-6.763 0-4.713-.256-6.26-1.97-6.26-1.608 0-2 1.768-2 6.203m7.244.123c0 6.931-1.555 9.405-5.275 9.405-3.693 0-5.243-2.62-5.243-9.405 0-7.288 2.2-9.055 5.327-9.055 3.304 0 5.19 2.014 5.19 9.055m-48.757 102.382v-14.245a14.439 14.439 0 0 1-1.97.03v-2.482a5.584 5.584 0 0 0 3.066-1.37h2.173v18.067zm5.273 2.893a28.033 28.033 0 0 0 1.616-7.08h3.101a18.764 18.764 0 0 1-2.138 7.08zm16.606-18.081h-5.574c-.089 1.166-.323 3.162-.411 3.975a3.467 3.467 0 0 1 2.584-.857c2.964 0 4.404 2.328 4.404 5.58 0 3.7-1.184 6.736-5.455 6.736-3.41 0-4.947-2.072-5.036-5.014h3.225c.088 1.193.45 2.407 1.908 2.407 1.7 0 2.01-1.581 2.01-3.688 0-2.173-.393-3.388-2.006-3.388-1.228 0-1.638.844-1.939 1.838l-2.977-.416c.345-2.19.853-7.558 1.02-9.974h8.61zm6.901 5.91c0 4.502.208 6.821 1.997 6.821 1.762 0 1.974-2.226 1.974-6.763 0-4.713-.252-6.259-1.966-6.259-1.612 0-2.005 1.767-2.005 6.202m7.244.124c0 6.93-1.555 9.404-5.274 9.404-3.693 0-5.243-2.62-5.243-9.404 0-7.289 2.2-9.051 5.327-9.051 3.304 0 5.19 2.01 5.19 9.05m5.997-.123c0 4.501.207 6.82 1.996 6.82 1.758 0 1.975-2.226 1.975-6.763 0-4.713-.256-6.259-1.97-6.259-1.613 0-2.001 1.767-2.001 6.202m7.244.124c0 6.93-1.555 9.404-5.274 9.404-3.697 0-5.248-2.62-5.248-9.404 0-7.289 2.2-9.051 5.332-9.051 3.304 0 5.19 2.01 5.19 9.05m246.482-335.36c0 1.746.535 2.54 1.75 2.54 1.188 0 1.718-.838 1.718-2.468 0-1.529-.495-2.43-1.75-2.43-1.205 0-1.718.959-1.718 2.359m3.706 8.048c0-2.085-.684-2.92-2.01-2.92-1.378 0-1.97.95-1.97 2.929 0 1.838.592 2.964 2.015 2.964 1.352 0 1.965-1.047 1.965-2.973m-7.226.066a4.63 4.63 0 0 1 2.19-4.329 4.12 4.12 0 0 1-1.748-3.772 4.511 4.511 0 0 1 4.903-4.88c2.844 0 4.74 1.598 4.74 4.646 0 2.297-.862 3.468-1.803 3.976 1.127.525 2.191 1.736 2.191 4.408 0 3.22-1.798 5.398-5.362 5.398-3.278 0-5.111-2.032-5.111-5.447m11.683 8.092a28.033 28.033 0 0 0 1.617-7.081h3.1a18.764 18.764 0 0 1-2.137 7.08zm10.381-12.17c0 4.5.208 6.82 1.997 6.82 1.758 0 1.974-2.227 1.974-6.763 0-4.713-.256-6.26-1.97-6.26-1.612 0-2 1.768-2 6.202m7.244.124c0 6.93-1.555 9.404-5.274 9.404-3.698 0-5.248-2.619-5.248-9.404 0-7.288 2.2-9.055 5.331-9.055 3.305 0 5.19 2.014 5.19 9.055m5.993-.124c0 4.502.207 6.82 1.996 6.82 1.763 0 1.975-2.226 1.975-6.762 0-4.713-.252-6.26-1.966-6.26-1.612 0-2.005 1.768-2.005 6.202m7.244.124c0 6.93-1.555 9.404-5.274 9.404-3.693 0-5.243-2.619-5.243-9.404 0-7.288 2.2-9.055 5.327-9.055 3.304 0 5.19 2.014 5.19 9.055m5.993-.124c0 4.502.208 6.82 1.997 6.82 1.762 0 1.974-2.226 1.974-6.762 0-4.713-.252-6.26-1.966-6.26-1.612 0-2.005 1.768-2.005 6.202m7.244.124c0 6.93-1.555 9.404-5.274 9.404-3.693 0-5.243-2.619-5.243-9.404 0-7.288 2.2-9.055 5.327-9.055 3.304 0 5.19 2.014 5.19 9.055m-55.934 212.118v-.181c.026-3.066 1.33-5.217 4.055-8.287 2.076-2.363 2.566-3.03 2.566-4.837 0-1.352-.287-2.293-1.621-2.293-1.383 0-1.745 1.136-1.807 2.938h-3.15c.027-2.832 1.237-5.548 5.058-5.548 3.477 0 4.864 2.032 4.864 5.013 0 2.134-.535 3.296-2.85 5.747a14.773 14.773 0 0 0-3.343 4.647h6.665l-.432 2.8zm11.782 2.893a28.034 28.034 0 0 0 1.616-7.081h3.101a18.764 18.764 0 0 1-2.138 7.08zm16.606-18.082h-5.574c-.089 1.166-.323 3.163-.411 3.976a3.467 3.467 0 0 1 2.584-.857c2.964 0 4.404 2.327 4.404 5.583 0 3.697-1.184 6.732-5.456 6.732-3.41 0-4.947-2.072-5.035-5.014h3.224c.089 1.193.451 2.408 1.909 2.408 1.7 0 2.01-1.582 2.01-3.689 0-2.173-.394-3.388-2.006-3.388-1.228 0-1.639.844-1.939 1.838l-2.977-.415c.344-2.191.852-7.558 1.02-9.975h8.61zm6.9 5.911c0 4.501.208 6.82 1.997 6.82 1.763 0 1.975-2.226 1.975-6.762 0-4.714-.252-6.26-1.966-6.26-1.612 0-2.006 1.767-2.006 6.202m7.245.124c0 6.93-1.555 9.404-5.274 9.404-3.693 0-5.244-2.62-5.244-9.404 0-7.289 2.2-9.056 5.327-9.056 3.305 0 5.19 2.015 5.19 9.056m5.998-.124c0 4.501.207 6.82 1.996 6.82 1.758 0 1.975-2.226 1.975-6.762 0-4.714-.257-6.26-1.97-6.26-1.613 0-2.001 1.767-2.001 6.202m7.244.124c0 6.93-1.555 9.404-5.274 9.404-3.697 0-5.248-2.62-5.248-9.404 0-7.289 2.2-9.056 5.332-9.056 3.304 0 5.19 2.015 5.19 9.056m-49.399 63.99c0-1.921.045-3.37.106-4.872-.6 1.93-2.354 6.025-3.44 8.565h3.334zm0 10.624v-4.276h-6.352v-2.677l5.186-11.039h4.175v11.061h1.643l-.287 2.655h-1.356v4.276zm5.571 2.893a28.43 28.43 0 0 0 1.617-7.08h3.1a18.764 18.764 0 0 1-2.137 7.08zm7.415-16.025c0-2.354 1.06-5.075 4.903-5.075 3.23 0 4.687 1.815 4.687 4.62 0 2.213-.967 3.291-2.169 3.75v.053c1.48.477 2.717 1.67 2.717 4.303 0 3.096-1.206 5.729-5.35 5.729-3.405 0-4.951-1.988-5.03-4.947h3.14c.08 1.219.521 2.359 1.97 2.359 1.52 0 1.97-1.136 1.97-3.062 0-2.036-.645-2.87-2.756-2.87h-.813v-2.678h.742c1.683 0 2.332-.508 2.332-2.416 0-1.338-.3-2.235-1.638-2.235-1.41 0-1.652 1.378-1.71 2.47zm15.956 3.854c0 4.501.208 6.82 1.997 6.82 1.762 0 1.974-2.226 1.974-6.762 0-4.714-.256-6.26-1.97-6.26-1.608 0-2 1.767-2 6.202m7.244.124c0 6.926-1.555 9.404-5.275 9.404-3.693 0-5.243-2.62-5.243-9.404 0-7.289 2.2-9.055 5.327-9.055 3.304 0 5.19 2.014 5.19 9.055m5.995-.124c0 4.501.208 6.82 1.997 6.82 1.762 0 1.974-2.226 1.974-6.762 0-4.714-.256-6.26-1.97-6.26-1.608 0-2 1.767-2 6.202m7.244.124c0 6.926-1.555 9.404-5.275 9.404-3.693 0-5.243-2.62-5.243-9.404 0-7.289 2.2-9.055 5.327-9.055 3.304 0 5.19 2.014 5.19 9.055"/></g><path class="cls-4" d="M648.647 73H668.613V92.96600000000001H648.647z"/><g class="cls-25"><path class="cls-11" d="M686.97 94.429v-17.89h2.651c4.709 11.909 5.407 13.631 5.632 14.426h.022c-.124-2.354-.155-5.035-.155-7.95v-6.476h2.037v17.89h-2.536c-4.89-12.541-5.53-14.233-5.738-14.962h-.026c.132 2.231.146 5.107.146 8.322v6.64zm15.622-6.806c0 3.503.826 5.2 2.522 5.2 1.674 0 2.47-1.715 2.47-5.204 0-3.344-.778-4.965-2.483-4.965-1.63 0-2.51 1.484-2.51 4.969m7.197-.053c0 4.749-1.626 7.107-4.71 7.107-3.131 0-4.69-2.266-4.69-7.054 0-4.678 1.855-6.838 4.788-6.838 2.99 0 4.612 2.284 4.612 6.785"/></g><g class="cls-3"><path class="cls-11" d="M712.845 85.577c0-2.151 0-3.605-.026-4.568h2.071c.031.327.067.937.067 2.36a3.625 3.625 0 0 1 3.542-2.567v2.394c-2.283.053-3.494 1.347-3.494 3.825v7.408h-2.16z"/></g><g class="cls-25"><path class="cls-11" d="M720.21 81.009h1.863v-3.534h2.147v3.534h2.288v1.829h-2.288v8.52c0 .897.19 1.45 1.197 1.45a5.118 5.118 0 0 0 .906-.067v1.639a4.868 4.868 0 0 1-1.644.234c-1.683 0-2.606-.671-2.606-2.845v-8.931h-1.864zm10.927-5.338v6.908a3.185 3.185 0 0 1 3.171-1.806c2.019 0 3.375 1.272 3.375 4.125v9.528h-2.178V85.34c0-1.581-.428-2.66-2.01-2.66-1.749 0-2.358 1.423-2.358 3.658v8.088h-2.178V75.671z"/></g><g class="cls-3"><path class="cls-11" d="M753.17 87.034c-.967-4.21-1.612-6.953-1.859-8.432h-.062c-.243 1.577-.94 4.695-1.776 8.432zm-4.116 1.94l-1.224 5.455h-2.2l4.285-17.89h2.858l4.395 17.89h-2.328l-1.236-5.456z"/></g><g class="cls-25"><path class="cls-11" d="M759.706 85.034c0-2.438 0-3.4-.027-4.024h2.076a14.306 14.306 0 0 1 .075 1.648 3.097 3.097 0 0 1 2.99-1.873 2.594 2.594 0 0 1 2.77 1.966 3.373 3.373 0 0 1 3.26-1.966c1.714 0 3.278.844 3.278 3.927v9.718h-2.138v-9.365c0-1.298-.389-2.385-1.807-2.385-1.616 0-2.173 1.405-2.173 3.18v8.57h-2.147v-9.312c0-1.577-.525-2.425-1.775-2.425-1.533 0-2.231 1.339-2.231 3.335v8.402h-2.151zm24.512 1.47c0-2.11-.424-3.886-2.319-3.886-2.319 0-2.438 2.96-2.47 3.887zm-4.828 1.662c0 2.447.402 4.669 2.452 4.669a2.344 2.344 0 0 0 2.319-2.28h2.102a4.317 4.317 0 0 1-4.443 4.122c-4.033 0-4.59-3.627-4.59-6.98 0-4.249 1.48-6.908 4.682-6.908 3.6 0 4.462 2.902 4.462 6.286 0 .296-.013.782-.04 1.09zm10.003-2.59c0-2.15 0-3.604-.031-4.567h2.076c.03.327.066.937.066 2.36a3.625 3.625 0 0 1 3.543-2.567v2.394c-2.284.053-3.494 1.347-3.494 3.825v7.408h-2.16z"/></g><path class="cls-11" d="M797.455 94.428h2.164v-13.42h-2.164zm.013-15.928h2.165v-2.827h-2.165z"/><g class="cls-3"><path class="cls-11" d="M811.584 90.245c-.053.782-.331 4.422-4.351 4.422-3.578 0-4.528-3.096-4.528-7.01 0-3.724 1.22-6.882 4.7-6.882 3.993 0 4.166 3.64 4.179 4.307h-2.204c-.022-.54-.181-2.465-1.988-2.465-1.829 0-2.482 1.996-2.482 5.04 0 3.247.67 5.164 2.398 5.164 1.842 0 2.054-1.86 2.147-2.576zm8.835-2.08a7.875 7.875 0 0 0-1.263-.066c-2.266 0-3.176 1.078-3.176 2.496a2.006 2.006 0 0 0 1.983 2.252c1.886 0 2.456-1.347 2.456-4.01zm2.072 3.786c0 .804.07 2.018.106 2.478h-1.97a8.306 8.306 0 0 1-.133-1.471 3.151 3.151 0 0 1-3.15 1.71c-2.575 0-3.516-2.024-3.516-3.901 0-2.514 1.701-4.32 5.2-4.32a11.584 11.584 0 0 1 1.342.044v-1.727c0-.999-.18-2.244-1.908-2.244-1.833 0-1.961 1.298-2.04 2.195h-2.081c.053-1.93.976-3.927 4.196-3.927 2.664 0 3.954 1.272 3.954 3.764z"/></g><g class="cls-26"><path class="cls-11" d="M902.254 89.427c-.08 1.012-.513 5.275-4.965 5.275-4.824 0-5.226-4.926-5.226-9.325 0-5.319 1.436-9.1 5.438-9.1 4.395 0 4.66 4.042 4.709 5.204h-2.205c-.04-.605-.137-3.269-2.54-3.269-2.668 0-3.114 3.587-3.114 7.182 0 3.702.407 7.395 2.99 7.395 2.293 0 2.616-2.5 2.695-3.362zm5.205-13.756v6.908a3.187 3.187 0 0 1 3.176-1.806c2.014 0 3.37 1.272 3.37 4.125v9.528h-2.178V85.34c0-1.581-.424-2.66-2.01-2.66-1.749 0-2.358 1.423-2.358 3.658v8.088h-2.178V75.671z"/></g><path class="cls-11" d="M917.732 94.428h2.165v-13.42h-2.165zm.013-15.928h2.16v-2.827h-2.16z"/><g class="cls-3"><path class="cls-11" d="M923.66 85.164c0-2.748-.013-3.516-.026-4.157h2.089a15.923 15.923 0 0 1 .075 1.692 3.165 3.165 0 0 1 3.136-1.926c1.992 0 3.45 1.162 3.45 4.09v9.564h-2.178V85.31c0-1.577-.481-2.629-1.952-2.629-1.687 0-2.416 1.083-2.416 3.698v8.048h-2.178zm18.145 3.001a7.908 7.908 0 0 0-1.263-.066c-2.266 0-3.176 1.078-3.176 2.496a2.005 2.005 0 0 0 1.979 2.252c1.89 0 2.46-1.347 2.46-4.01zm2.072 3.785c0 .805.066 2.02.106 2.479h-1.974a8.741 8.741 0 0 1-.133-1.471 3.14 3.14 0 0 1-3.145 1.71c-2.575 0-3.52-2.024-3.52-3.901 0-2.514 1.704-4.32 5.203-4.32a11.503 11.503 0 0 1 1.338.044v-1.727c0-.999-.176-2.244-1.904-2.244-1.833 0-1.96 1.298-2.045 2.195h-2.076c.053-1.93.976-3.927 4.197-3.927 2.659 0 3.953 1.272 3.953 3.764z"/></g><path class="cls-5" d="M864.169 74.118H884.135V94.084H864.169z"/><path class="cls-6" d="M976.292 74.118H996.258V94.084H976.292z"/><path class="cls-11" d="M1008.822 76.541L1008.822 94.427 1017.298 94.427 1017.585 92.501 1010.995 92.501 1010.995 85.963 1016.923 85.963 1016.923 84.024 1010.995 84.024 1010.995 78.489 1017.214 78.489 1017.214 76.541 1008.822 76.541z"/><g class="cls-3"><path class="cls-11" d="M1028.582 90.701c0 1.74 0 3.07.026 3.728h-2.063a12.827 12.827 0 0 1-.101-1.727 3.062 3.062 0 0 1-3.15 1.962c-1.63 0-3.352-.694-3.352-4.011V81.01h2.173v9.14c0 1.638.437 2.623 1.895 2.623 1.418 0 2.394-.853 2.394-3.604v-8.16h2.178zm3.554-5.124c0-2.151 0-3.605-.026-4.568h2.076c.026.327.066.937.066 2.36a3.616 3.616 0 0 1 3.538-2.567v2.394c-2.283.053-3.494 1.347-3.494 3.825v7.408h-2.16z"/></g><g class="cls-27"><path class="cls-11" d="M1041.675 87.623c0 3.503.826 5.2 2.522 5.2 1.674 0 2.47-1.715 2.47-5.204 0-3.344-.778-4.965-2.483-4.965-1.63 0-2.51 1.484-2.51 4.969m7.197-.053c0 4.749-1.626 7.107-4.71 7.107-3.131 0-4.69-2.266-4.69-7.054 0-4.678 1.855-6.838 4.788-6.838 2.99 0 4.612 2.284 4.612 6.785m10.073.057c0-3.344-.76-4.947-2.43-4.947-1.978 0-2.504 1.886-2.504 4.947 0 3.167.278 5.16 2.403 5.16 1.679 0 2.531-1.935 2.531-5.16m-4.854 5.495v6.22h-2.16V84.918c0-1.829 0-3.07-.031-3.91h2.089c.04.257.075 1.11.075 1.741a3.104 3.104 0 0 1 3.163-1.961c2.53 0 3.918 2.23 3.918 6.736 0 4.908-1.692 7.152-4.311 7.152a2.734 2.734 0 0 1-2.743-1.555"/></g><g class="cls-3"><path class="cls-11" d="M1070.625 86.505c0-2.112-.424-3.887-2.319-3.887-2.319 0-2.438 2.96-2.469 3.887zm-4.828 1.66c0 2.448.402 4.67 2.452 4.67a2.344 2.344 0 0 0 2.319-2.28h2.103a4.317 4.317 0 0 1-4.444 4.122c-4.033 0-4.59-3.627-4.59-6.98 0-4.249 1.48-6.908 4.683-6.908 3.6 0 4.461 2.902 4.461 6.286 0 .296-.013.782-.04 1.09z"/></g><path class="cls-4" d="M1403.581 139.992H1593.827V439.64H1403.581z"/><path class="cls-5" d="M1403.581 439.645H1593.827V526.395H1403.581z"/><path class="cls-6" d="M1403.581 525.565H1593.827V720.0740000000001H1403.581z"/><g class="cls-28"><path class="cls-11" d="M1460.916 112.917v-.172c.013-2.787 1.493-5.597 4.757-9.205 2.641-2.92 3.41-3.954 3.41-6.313 0-1.828-.495-3.445-2.575-3.445-1.935 0-2.704 1.502-2.805 3.931h-2.562c.035-3.127 1.47-6.104 5.424-6.104 3.839 0 5.217 2.504 5.217 5.658 0 2.814-.91 4.24-3.675 7.165-2.43 2.593-3.773 4.709-4.161 6.197h8.41l-.366 2.288zm14.253-15.889c.018-2.301 1.087-5.42 5.177-5.42 3.551 0 4.938 2.266 4.938 5.27 0 2.672-1.17 3.989-2.557 4.497v.044c1.85.614 3.194 2.09 3.194 5.296 0 3.3-1.295 6.49-5.72 6.49-3.919 0-5.328-2.616-5.425-5.527h2.526c.08 1.617.822 3.366 2.96 3.366 2.412 0 2.995-2.072 2.995-4.254 0-3.216-1.391-4.134-3.76-4.134h-.922v-2.2h.896c2.032 0 3.19-.786 3.19-3.432 0-1.886-.561-3.243-2.465-3.243-2.27 0-2.54 2.218-2.606 3.247zm12.51 19.469a27.735 27.735 0 0 0 1.775-7.801h2.513a20.22 20.22 0 0 1-2.169 7.8zm7.18-3.58v-.172c.014-2.787 1.493-5.597 4.758-9.205 2.641-2.92 3.414-3.954 3.414-6.313 0-1.828-.499-3.445-2.58-3.445-1.934 0-2.703 1.502-2.804 3.931h-2.562c.035-3.127 1.47-6.104 5.424-6.104 3.839 0 5.217 2.504 5.217 5.658 0 2.814-.91 4.24-3.675 7.165-2.43 2.593-3.768 4.709-4.162 6.197h8.415l-.37 2.288zm16.773-10.835c0 5.87.543 8.905 3.008 8.905 2.434 0 2.99-2.884 2.99-8.843 0-6.096-.658-8.291-2.955-8.291-2.209 0-3.043 2.13-3.043 8.23m8.653.088c0 7.77-1.555 11.052-5.663 11.052-4.218 0-5.645-3.587-5.645-11.07 0-8.092 2.16-10.544 5.742-10.544 3.826 0 5.566 2.862 5.566 10.562m6.02-.089c0 5.87.543 8.905 3.007 8.905 2.434 0 2.995-2.884 2.995-8.843 0-6.096-.662-8.291-2.96-8.291-2.203 0-3.043 2.13-3.043 8.23m8.654.088c0 7.77-1.555 11.052-5.659 11.052-4.223 0-5.65-3.587-5.65-11.07 0-8.092 2.16-10.544 5.743-10.544 3.825 0 5.566 2.862 5.566 10.562"/></g><g class="cls-3"><path class="cls-24" d="M1468.022 167.37v-14.245a13.712 13.712 0 0 1-1.965.03v-2.482a5.6 5.6 0 0 0 3.065-1.37h2.17v18.067zm6.265 0v-.18c.027-3.066 1.33-5.218 4.055-8.288 2.076-2.363 2.562-3.03 2.562-4.837 0-1.351-.282-2.297-1.616-2.297-1.387 0-1.745 1.14-1.807 2.942h-3.15c.027-2.831 1.237-5.548 5.054-5.548 3.476 0 4.868 2.032 4.868 5.014 0 2.133-.535 3.295-2.85 5.747a14.702 14.702 0 0 0-3.343 4.647h6.665l-.433 2.8zm11.811 2.893a28.43 28.43 0 0 0 1.617-7.08h3.1a18.764 18.764 0 0 1-2.137 7.08zm10.35-12.17c0 4.5.208 6.82 1.997 6.82 1.763 0 1.975-2.226 1.975-6.763 0-4.713-.257-6.26-1.97-6.26-1.608 0-2.001 1.768-2.001 6.203m7.244.123c0 6.93-1.555 9.405-5.274 9.405-3.693 0-5.244-2.62-5.244-9.405 0-7.288 2.2-9.055 5.328-9.055 3.304 0 5.19 2.014 5.19 9.055m5.994-.123c0 4.5.208 6.82 1.997 6.82 1.762 0 1.974-2.226 1.974-6.763 0-4.713-.256-6.26-1.97-6.26-1.608 0-2 1.768-2 6.203m7.243.123c0 6.93-1.555 9.405-5.274 9.405-3.693 0-5.243-2.62-5.243-9.405 0-7.288 2.2-9.055 5.327-9.055 3.304 0 5.19 2.014 5.19 9.055m5.995-.123c0 4.5.208 6.82 1.997 6.82 1.762 0 1.974-2.226 1.974-6.763 0-4.713-.256-6.26-1.97-6.26-1.608 0-2 1.768-2 6.203m7.243.123c0 6.93-1.555 9.405-5.274 9.405-3.693 0-5.243-2.62-5.243-9.405 0-7.288 2.2-9.055 5.327-9.055 3.304 0 5.19 2.014 5.19 9.055m-59.632 298.643c.004-2.354 1.06-5.075 4.903-5.075 3.229 0 4.686 1.811 4.686 4.62 0 2.209-.967 3.291-2.169 3.75v.05c1.48.48 2.717 1.673 2.717 4.306 0 3.097-1.201 5.725-5.345 5.725-3.405 0-4.952-1.988-5.036-4.948h3.146c.075 1.224.516 2.364 1.965 2.364 1.52 0 1.97-1.136 1.97-3.061 0-2.037-.645-2.872-2.756-2.872h-.813v-2.677h.742c1.683 0 2.328-.512 2.328-2.416 0-1.338-.291-2.235-1.634-2.235-1.41 0-1.652 1.378-1.71 2.47zm11.514 16.025a28.43 28.43 0 0 0 1.617-7.08h3.097a18.63 18.63 0 0 1-2.138 7.08zm16.578-18.081h-5.575c-.092 1.161-.327 3.162-.41 3.97a3.485 3.485 0 0 1 2.584-.856c2.964 0 4.404 2.328 4.404 5.583 0 3.702-1.184 6.737-5.46 6.737-3.41 0-4.948-2.072-5.031-5.014h3.224c.089 1.188.446 2.407 1.904 2.407 1.705 0 2.014-1.581 2.014-3.688 0-2.173-.397-3.392-2.005-3.392-1.228 0-1.643.848-1.94 1.842l-2.977-.42c.34-2.187.853-7.554 1.016-9.97h8.61zm6.9 5.91c0 4.502.208 6.821 1.997 6.821 1.758 0 1.974-2.23 1.974-6.767 0-4.709-.256-6.255-1.97-6.255-1.612 0-2 1.767-2 6.202m7.244.124c0 6.926-1.555 9.404-5.274 9.404-3.698 0-5.248-2.62-5.248-9.409 0-7.284 2.2-9.05 5.331-9.05 3.305 0 5.19 2.013 5.19 9.055m5.993-.124c0 4.501.208 6.82 1.997 6.82 1.762 0 1.974-2.23 1.974-6.767 0-4.709-.251-6.255-1.965-6.255-1.613 0-2.006 1.767-2.006 6.202m7.245.124c0 6.926-1.555 9.404-5.275 9.404-3.693 0-5.243-2.62-5.243-9.409 0-7.284 2.2-9.05 5.327-9.05 3.304 0 5.19 2.013 5.19 9.055m-43.484 78.596v2.553a43.236 43.236 0 0 0-4.877 15.438h-3.445a44.59 44.59 0 0 1 5.053-15.182h-6.299v-2.81zm-1.983 20.882a28.431 28.431 0 0 0 1.617-7.081h3.101a18.764 18.764 0 0 1-2.138 7.08zm16.48-20.882v2.553a43.236 43.236 0 0 0-4.877 15.438h-3.446a44.69 44.69 0 0 1 5.05-15.182h-6.295v-2.81zm5.332 8.711c0 4.501.207 6.82 1.996 6.82 1.763 0 1.975-2.226 1.975-6.762 0-4.713-.256-6.26-1.97-6.26-1.608 0-2.001 1.767-2.001 6.202m7.244.124c0 6.93-1.555 9.404-5.274 9.404-3.693 0-5.243-2.62-5.243-9.404 0-7.288 2.2-9.05 5.327-9.05 3.304 0 5.19 2.009 5.19 9.05m5.995-.124c0 4.501.207 6.82 1.996 6.82 1.763 0 1.975-2.226 1.975-6.762 0-4.713-.256-6.26-1.97-6.26-1.608 0-2.001 1.767-2.001 6.202m7.244.124c0 6.93-1.555 9.404-5.274 9.404-3.693 0-5.243-2.62-5.243-9.404 0-7.288 2.2-9.05 5.327-9.05 3.304 0 5.19 2.009 5.19 9.05"/></g></svg>