<svg viewBox="0 0 934 426" xmlns="http://www.w3.org/2000/svg" xmlns:xlink="http://www.w3.org/1999/xlink"><clipPath id="a"><path d="m-25.00467-14.24311h980.92572v431.24311h-980.92572z"/></clipPath><clipPath id="b"><path d="m300.16822 57h345.66356v308h-345.66356z"/></clipPath><clipPath id="c"><path d="m362.28442 66.84606c-8.35462 9.84606-3.90019 32.63537 13.44035 60.07071 17.05375 26.93785 44.22123 48.14034 39.0401 78.00353-6.63395 38.17977-56.66742 41.65915-56.66742 41.65915s56.07455 17.30248 101.5578-.97486c54.60261-21.9481 61.88678-62.61328 93.79566-90.2396 13.36385-11.54761 28.10428-12.3697 35.78993-12.27411h4.225c3.05916 0-.01892-3.51782-3.13505-5.35319a36.35538 36.35538 0 0 1 -7.03564-4.76053c-2.00763-1.95011-4.26382-7.22682-5.18131-8.77542-2.715-4.60757-6.80622-8.221-15.17995-9.29162-11.68162-1.51438-22.4016 2.22655-33.49592 5.96729-13.83589 4.6651-28.25416 9.33043-45.84629 3.80229-27.38371-8.616-78.24884-64.00358-107.62928-64.00339a17.03914 17.03914 0 0 0 -13.678 6.16975"/></clipPath><linearGradient id="d" gradientUnits="userSpaceOnUse" x1="358.09045191552" x2="594.72616578732" y1="162.28870691359" y2="162.28870691359"><stop offset="0" stop-color="#2a59a2"/><stop offset="1" stop-color="#2a59a2"/></linearGradient><clipPath id="e"><path d="m362.28442 66.84606c-8.35462 9.84606-3.90019 32.63537 13.45946 60.07071.17208.28657.36345.55424.53533.841 9.04307 13.9948 35.27373 46.78311 97.44711 45.38746 4.09175-4.3399 10.30509-12.54177 18.33489-21.47015-13.01994-21.04953-32.63539-39.40335-48.50379-52.32749-7.83861-5.965-15.92576-12.21676-23.87909-17.91408-1.79714-1.281-3.59447-2.54278-5.37231-3.76637-14.17679-9.70132-27.66953-16.99258-38.33386-16.99295a17.05423 17.05423 0 0 0 -13.68774 6.17185"/></clipPath><linearGradient id="f" gradientUnits="userSpaceOnUse" x1="348.54073874606" x2="598.81776313018" y1="117.61832397804" y2="117.61832397804"><stop offset="0" stop-color="#91d3f2"/><stop offset=".2664" stop-color="#6fb2de"/><stop offset=".5214" stop-color="#5598ce"/><stop offset=".6729" stop-color="#4b8fc8"/><stop offset="1" stop-color="#4b8fc8"/></linearGradient><clipPath id="g"><path d="m473.72632 173.14525c-7.609 8.08715-24.98778 29.69094-53.78032 49.15363-38.33272 25.92515-61.82943 24.28057-61.82943 24.28057s56.09386 17.30248 101.55779-.97486a121.65383 121.65383 0 0 0 38.19888-23.841c1.606-1.52948 8.01068-9.52085 8.35462-23.49652a74.24345 74.24345 0 0 0 -4.68384-27.416 219.68067 219.68067 0 0 1 -27.8177 2.29423"/></clipPath><linearGradient id="h" gradientUnits="userSpaceOnUse" x1="358.11983839911" x2="596.47044643085" y1="217.37269331701" y2="217.37269331701"><stop offset="0" stop-color="#2c9ec7"/><stop offset=".4037" stop-color="#2c63a5"/><stop offset="1" stop-color="#395da1"/></linearGradient><clipPath id="i"><path d="m473.74563 173.14525a219.07372 219.07372 0 0 0 27.81769-2.29423c-.95611-2.65748-2.065-5.27671-3.28838-7.85772a121.00347 121.00347 0 0 0 -6.19462-11.3182c-8.03 8.90927-14.26225 17.13025-18.33469 21.47015"/></clipPath><linearGradient id="j" gradientUnits="userSpaceOnUse" x1="358.11456732824" x2="596.47766564297" y1="162.40291217715" y2="162.40291217715"><stop offset="0" stop-color="#4faac4"/><stop offset=".00155" stop-color="#2f75b1"/><stop offset="1" stop-color="#356eac"/></linearGradient><clipPath id="k"><path d="m492.08032 151.6751c11.89175-13.17288 27.76015-27.894 46.61105-33.82092-16.78629 5.08574-33.55308 13.5935-55.09968 6.82552-10.66817-3.34575-24.9115-13.80359-40.03427-25.33209 15.8684 12.92414 35.48385 31.25885 48.5229 52.32749"/></clipPath><linearGradient id="l" gradientUnits="userSpaceOnUse" x1="443.54965971666" x2="597.8369096457" y1="125.53429670446" y2="125.53429670446"><stop offset="0" stop-color="#4faac4"/><stop offset=".00155" stop-color="#2f81b6"/><stop offset="1" stop-color="#3b5ea9"/></linearGradient><clipPath id="m"><path d="m566.08846 147.39256c-14.66414 6.15617-30.57077 18.33468-64.52514 23.45846a74.25106 74.25106 0 0 1 4.68386 27.416c-.36326 13.95655-6.768 21.94811-8.37394 23.49652 22.96139-21.24053 33.22825-47.03147 55.597-66.39857a49.33185 49.33185 0 0 1 12.63718-7.97243z"/></clipPath><linearGradient id="n" gradientUnits="userSpaceOnUse" x1="443.5615003251" x2="597.84065556177" y1="184.54866174422" y2="184.54866174422"><stop offset="0" stop-color="#4faac4"/><stop offset=".00155" stop-color="#1e3773"/><stop offset="1" stop-color="#203370"/></linearGradient><clipPath id="o"><path d="m538.71069 117.8735c-18.85129 5.92675-34.73862 20.648-46.63037 33.82074a116.4121 116.4121 0 0 1 6.19462 11.29906c1.22338 2.60012 2.33208 5.21956 3.28819 7.85772 33.97349-5.12378 49.861-17.30229 64.52514-23.45846h.01912a55.445 55.445 0 0 1 23.15261-4.30168h4.20589c3.05916 0-.01892-3.51782-3.11612-5.33408a38.16939 38.16939 0 0 1 -7.03564-4.76052c-2.02656-1.95009-4.28275-7.24594-5.18094-8.77543-2.73433-4.62668-6.80639-8.221-15.18033-9.29161a41.91156 41.91156 0 0 0 -5.39469-.34356c-6.44217 0-12.64462 1.415-18.84744 3.28782"/></clipPath><linearGradient id="p" gradientTransform="matrix(0 -442.5155 442.5155 0 -3017214.44824 -620660.25024)" gradientUnits="userSpaceOnUse" x1="-1403.01913" x2="-1402.82794" y1="6819.55487" y2="6819.55487"><stop offset="0" stop-color="#4faac4"/><stop offset=".00155" stop-color="#2c5a9a"/><stop offset="1" stop-color="#374580"/></linearGradient><clipPath id="q"><path d="m414.784 204.9203c-6.63433 38.17977-56.66742 41.65915-56.66742 41.65915s23.49671 1.64458 61.82943-24.28057c28.79254-19.46269 46.17132-41.06648 53.78032-49.15363-62.17338 1.39565-88.404-31.39266-97.44711-45.38746 17.07287 26.55568 43.62855 47.62434 38.50478 77.16251"/></clipPath><linearGradient id="r" gradientUnits="userSpaceOnUse" x1="332.37343995273" x2="507.94963328913" y1="188.01131979283" y2="188.01131979283"><stop offset="0" stop-color="#38b1da"/><stop offset=".1115" stop-color="#38b1da"/><stop offset="1" stop-color="#326fb5"/></linearGradient><g clip-path="url(#a)"><g clip-path="url(#a)"><g clip-path="url(#a)" opacity=".3"><path d="m920.25781 413.03735h-909.59863v-399.54187h909.59863zm-897.71093-11.88794h885.82226v-375.76599h-885.82226z" fill="#b9babb"/></g></g></g><g clip-path="url(#b)"><g clip-path="url(#c)"><path d="m353.9298 60.67615h242.59517v203.2058h-242.59517z" fill="url(#d)"/></g><g clip-path="url(#e)"><path d="m353.9298 60.67402h138.1314v113.86689h-138.1314z" fill="url(#f)"/></g><g clip-path="url(#g)"><path d="m358.11657 170.85104h148.36v93.0309h-148.36z" fill="url(#h)"/></g><g clip-path="url(#i)"><path d="m473.74564 151.67512h27.81768v21.47013h-27.81768z" fill="url(#j)"/></g><g clip-path="url(#k)"><path d="m443.55742 99.34761h95.13395v52.32749h-95.13395z" fill="url(#l)"/></g><g clip-path="url(#m)"><path d="m497.87322 147.39258h68.23414v74.37098h-68.23414z" fill="url(#n)"/></g><g clip-path="url(#o)"><path d="m492.08031 114.58568h104.44468v56.26535h-104.44468z" fill="url(#p)"/></g><g clip-path="url(#q)"><path d="m358.11657 127.75779h115.60974v120.46624h-115.60974z" fill="url(#r)"/></g><g clip-path="url(#b)"><path d="m561.21311 124.22088a4.93274 4.93274 0 1 1 -4.97083 4.93259 4.95188 4.95188 0 0 1 4.97083-4.93259" fill="#fff"/><g fill="#191d1e"><path d="m464.01425 303.24709a25.35169 25.35169 0 0 0 -25.42768 25.2365v7.49447a25.364 25.364 0 0 0 25.42768 25.2365h16.1743v-9.15779h-16.1743a16.17215 16.17215 0 0 1 -16.17425-15.23768h33.228a8.37969 8.37969 0 0 0 8.393-8.3355 25.36813 25.36813 0 0 0 -25.4468-25.2365m-16.1742 24.4144a16.20309 16.20309 0 0 1 32.34859 0z"/><path d="m313.85713 290.70535a19.52846 19.52846 0 0 0 -5.58262 13.65046v1.22378h-5.33408v9.1576h5.33408v46.4581h9.23426v-46.4581h12.42706v-9.1576h-12.42706v-1.22378a10.328 10.328 0 0 1 10.03723-10.34294h6.82533v-9.17687h-6.82533a19.01862 19.01862 0 0 0 -13.68888 5.86939"/><path d="m348.88231 284.77852h9.23427v76.45493h-9.23427z"/><path d="m414.19129 337.64142a14.53056 14.53056 0 0 1 -29.06021 0v-34.39429h-9.23427v34.39429a23.76515 23.76515 0 0 0 47.52874 0v-34.39429h-9.23426z"/><path d="m522.498 303.24705a23.69966 23.69966 0 0 0 -23.76457 23.57319v34.39429h9.23446v-34.39429a14.53056 14.53056 0 0 1 29.06021 0v34.39429h9.23425v-34.39429a23.69947 23.69947 0 0 0 -23.76435-23.57319"/><path d="m572.99007 341.71363v-29.28963h12.50352v-9.17691h-12.50352v-18.46852h-9.23428v18.46852h-8.20186v9.15779h8.20186v29.28944a19.22386 19.22386 0 0 0 19.27152 19.13787h4.09136v-9.17691h-4.09136a9.97923 9.97923 0 0 1 -10.03724-9.94165"/><path d="m633.25181 284.77868v23.42023a23.791 23.791 0 0 0 -38.29449 18.6406v10.82091a23.76515 23.76515 0 0 0 47.52874 0v-52.88174zm0 47.20353v5.65929a14.53056 14.53056 0 0 1 -29.06021 0v-10.8213a14.53056 14.53056 0 0 1 29.06021 0v5.162z"/></g></g></g></svg>