<svg xmlns="http://www.w3.org/2000/svg" id="Layer_1" data-name="Layer 1" viewBox="0 0 1768 464"><defs><style>.cls-1{fill:none}.cls-2{clip-path:url(#clip-path)}.cls-3{opacity:.3}.cls-4{clip-path:url(#clip-path-3)}.cls-5{fill:#b9babb}.cls-6{clip-path:url(#clip-path-5)}.cls-7{clip-path:url(#clip-path-7)}.cls-8{fill:#8f9193}.cls-9{fill:#8174e8}</style><clipPath id="clip-path"><path class="cls-1" d="M-425.913 -6.667H2222.914V483H-425.913z"/></clipPath><clipPath id="clip-path-3"><path class="cls-1" d="M-7.492 1.352H627.181V432.452H-7.492z"/></clipPath><clipPath id="clip-path-5"><path class="cls-1" d="M585.636 1.352H1220.309V432.452H585.636z"/></clipPath><clipPath id="clip-path-7"><path class="cls-1" d="M1177.048 -6.667H1773.817V432.45300000000003H1177.048z"/></clipPath></defs><g class="cls-2"><g class="cls-2"><g class="cls-3"><g class="cls-4"><path class="cls-5" d="M591.093 428.443H28.597V29.42h562.496zm-550.467-12.03h538.438V41.45H40.626z"/></g></g></g><g class="cls-2"><g class="cls-3"><g class="cls-6"><path class="cls-5" d="M1184.22 428.443H621.725V29.42h562.497zm-550.466-12.03h538.438V41.45H633.754z"/></g></g></g><g class="cls-2"><g class="cls-3"><g class="cls-7"><path class="cls-5" d="M1737.725 428.443h-524.589V29.42h524.589zm-512.56-12.03h500.53V41.45h-500.53z"/></g></g></g><path class="cls-8" d="M142.565 298.897c0-5.514.088-11.16.176-14.335h-.044c-1.103 5.249-3.618 17.246-5.955 26.773h-3.44c-1.721-8.38-4.367-21.26-5.426-26.861h-.131c.175 3.484.308 10.012.308 15.173v11.689h-3.44v-29.95h5.469c2.25 9.219 4.41 20.025 5.117 24.039h.044c.573-3.396 3.263-15.173 5.513-24.039h5.425v29.95h-3.616zm23.243 8.292c0 1.368.089 3.397.177 4.147h-3.309a12.457 12.457 0 0 1-.22-2.47c-.838 1.764-2.47 2.867-5.249 2.867-4.322 0-5.91-3.397-5.91-6.529 0-4.19 2.866-7.233 8.689-7.233a16.048 16.048 0 0 1 2.25.088v-2.911c0-1.632-.31-3.75-3.176-3.75-3.088 0-3.308 2.206-3.44 3.706h-3.44c.087-3.264 1.587-6.617 7.012-6.617 4.455 0 6.616 2.162 6.616 6.308zm-3.484-6.351a13.75 13.75 0 0 0-2.117-.088c-3.794 0-5.293 1.808-5.293 4.19 0 1.896.97 3.749 3.308 3.749 3.132 0 4.102-2.25 4.102-6.704zm9.792-16.144v-4.764h3.616v4.764zm0 4.19h3.616v22.451h-3.616zm9.88 6.97c0-4.632-.045-5.911-.045-6.97h3.485c.045.53.132 1.456.132 2.823a5.295 5.295 0 0 1 5.25-3.22c3.307 0 5.778 1.941 5.778 6.837v16.012h-3.661v-15.262c0-2.647-.795-4.41-3.265-4.41-2.823 0-4.058 1.808-4.058 6.218v13.454h-3.617zm18.083-6.97h3.132v-5.91h3.572v5.91h3.838v3.044h-3.838v14.291c0 1.5.354 2.382 2.03 2.382a7.834 7.834 0 0 0 1.499-.088v2.734a8.559 8.559 0 0 1-2.735.397c-2.823 0-4.366-1.102-4.366-4.763v-14.953h-3.132zm28.008 18.305c0 1.368.089 3.397.177 4.147h-3.309a12.457 12.457 0 0 1-.22-2.47c-.838 1.764-2.47 2.867-5.249 2.867-4.322 0-5.91-3.397-5.91-6.529 0-4.19 2.866-7.233 8.689-7.233a16.048 16.048 0 0 1 2.25.088v-2.911c0-1.632-.31-3.75-3.176-3.75-3.088 0-3.308 2.206-3.44 3.706h-3.44c.087-3.264 1.587-6.617 7.012-6.617 4.455 0 6.616 2.162 6.616 6.308zm-3.484-6.351a13.75 13.75 0 0 0-2.117-.088c-3.794 0-5.293 1.808-5.293 4.19 0 1.896.97 3.749 3.308 3.749 3.132 0 4.102-2.25 4.102-6.704zm9.792-16.144v-4.764h3.616v4.764zm0 4.19h3.616v22.451h-3.616zm9.924 6.97c0-4.632-.045-5.911-.045-6.97h3.486c.044.53.131 1.456.131 2.823a5.295 5.295 0 0 1 5.25-3.22c3.307 0 5.778 1.941 5.778 6.837v16.012h-3.661v-15.262c0-2.647-.795-4.41-3.264-4.41-2.823 0-4.059 1.808-4.059 6.218v13.454h-3.616zm23.333 4.984c0 4.102.66 7.85 4.101 7.85 3.353 0 3.793-3.13 3.882-3.836h3.528c-.088.617-.661 6.88-7.454 6.88-6.749 0-7.675-6.042-7.675-11.644 0-7.102 2.47-11.6 7.851-11.6 6 0 7.455 4.896 7.455 10.541 0 .485-.044 1.324-.089 1.809zm8.071-2.78c0-3.528-.705-6.483-3.882-6.483-3.881 0-4.058 4.94-4.102 6.484zm8.733-1.543c0-3.573 0-6.043-.044-7.63h3.44c.045.529.132 1.543.132 3.925a6.077 6.077 0 0 1 5.91-4.278v4.013c-3.837.089-5.822 2.25-5.822 6.396v12.395h-3.616zm25.228 6.837c.265 3 1.632 5.381 4.808 5.381 3.044 0 4.543-1.676 4.543-4.896 0-3.043-1.28-4.675-5.292-6.616-4.764-2.25-6.837-4.367-6.837-8.69 0-4.278 2.734-7.542 7.719-7.542 5.954 0 7.542 4.234 7.63 7.807h-3.617c-.176-1.5-.617-4.764-4.146-4.764-2.734 0-3.881 1.853-3.881 4.147 0 2.734 1.19 4.058 4.896 5.778 5.248 2.514 7.278 4.984 7.278 9.571 0 4.72-2.735 8.249-8.381 8.249-6.176 0-8.16-4.014-8.38-8.425zm32.023 3.837c0 1.368.088 3.397.177 4.147h-3.309a12.457 12.457 0 0 1-.22-2.47c-.839 1.764-2.47 2.867-5.25 2.867-4.321 0-5.91-3.397-5.91-6.529 0-4.19 2.867-7.233 8.69-7.233a16.048 16.048 0 0 1 2.25.088v-2.911c0-1.632-.31-3.75-3.177-3.75-3.088 0-3.307 2.206-3.44 3.706h-3.44c.087-3.264 1.588-6.617 7.013-6.617 4.454 0 6.616 2.162 6.616 6.308zm-3.484-6.351a13.75 13.75 0 0 0-2.118-.088c-3.793 0-5.292 1.808-5.292 4.19 0 1.896.97 3.749 3.307 3.749 3.132 0 4.103-2.25 4.103-6.704zm7.056-11.954h3.132v-5.91h3.572v5.91h3.838v3.044h-3.838v14.291c0 1.5.353 2.382 2.03 2.382a7.834 7.834 0 0 0 1.499-.088v2.734a8.559 8.559 0 0 1-2.735.397c-2.823 0-4.366-1.102-4.366-4.763v-14.953h-3.132zm14.643-4.19v-4.764h3.617v4.764zm0 4.19h3.617v22.451h-3.617zm11.82 15.924c.133 2.249 1.324 4.013 3.794 4.013a3.063 3.063 0 0 0 3.397-3.308c0-2.161-1.059-3.22-3.97-4.322-4.764-1.809-6.087-3.53-6.087-6.66 0-3.044 1.852-6.044 6.572-6.044 5.205 0 6.616 3.529 6.66 6.528h-3.528c-.044-1.014-.265-3.616-3.22-3.616a2.666 2.666 0 0 0-2.912 2.91c0 1.72.795 2.559 3.793 3.706 4.412 1.676 6.353 3.308 6.353 7.145 0 4.146-2.603 6.572-7.235 6.572-4.763 0-7.1-2.867-7.189-6.925zm16.233 6.528v-19.408h-2.867v-3.044h2.867v-2.91c0-3.397 1.322-6.308 5.469-6.308a7.557 7.557 0 0 1 1.897.264v3.132a6.565 6.565 0 0 0-1.455-.176c-1.722 0-2.295 1.058-2.295 3.22v2.778h3.485v3.044h-3.485v19.408zm23.95-4.147c0 1.368.088 3.397.177 4.147h-3.309a12.536 12.536 0 0 1-.22-2.47c-.839 1.764-2.47 2.867-5.25 2.867-4.321 0-5.91-3.397-5.91-6.529 0-4.19 2.867-7.233 8.69-7.233a16.048 16.048 0 0 1 2.25.088v-2.911c0-1.632-.31-3.75-3.177-3.75-3.088 0-3.307 2.206-3.44 3.706h-3.44c.087-3.264 1.588-6.617 7.013-6.617 4.454 0 6.616 2.162 6.616 6.308zm-3.484-6.351a13.75 13.75 0 0 0-2.118-.088c-3.793 0-5.292 1.808-5.292 4.19 0 1.896.97 3.749 3.307 3.749 3.132 0 4.103-2.25 4.103-6.704zm23.553 3.484c-.089 1.323-.574 7.41-7.279 7.41-5.998 0-7.587-5.16-7.587-11.732 0-6.22 2.03-11.513 7.852-11.513 6.704 0 6.97 6.087 7.014 7.19h-3.705c-.045-.882-.31-4.102-3.31-4.102-3.087 0-4.146 3.352-4.146 8.425 0 5.425 1.103 8.645 3.97 8.645 3.088 0 3.441-3.088 3.617-4.323zm2.954-15.438h3.132v-5.91h3.573v5.91h3.837v3.044h-3.837v14.291c0 1.5.353 2.382 2.029 2.382a7.834 7.834 0 0 0 1.499-.088v2.734a8.559 8.559 0 0 1-2.735.397c-2.823 0-4.366-1.102-4.366-4.763v-14.953h-3.132zm14.643-4.19v-4.764h3.617v4.764zm0 4.19h3.617v22.451h-3.617zm24.525 10.983c0 7.94-2.735 11.866-7.896 11.866-5.249 0-7.852-3.794-7.852-11.777 0-7.852 3.088-11.469 8.029-11.469 4.984 0 7.719 3.838 7.719 11.38zm-12.043.089c0 5.866 1.368 8.689 4.191 8.689s4.147-2.867 4.147-8.69c0-5.601-1.324-8.336-4.147-8.336-2.735 0-4.19 2.514-4.19 8.337zm17.247-4.102c0-4.632-.044-5.911-.044-6.97h3.485c.044.53.132 1.456.132 2.823a5.295 5.295 0 0 1 5.25-3.22c3.307 0 5.777 1.941 5.777 6.837v16.012h-3.66v-15.262c0-2.647-.795-4.41-3.265-4.41-2.823 0-4.058 1.808-4.058 6.218v13.454h-3.617zM104.498 341.02c2.073 10.497 3.043 15.393 3.397 18.48h.088c.396-2.954 1.323-6.439 3.969-18.48h3.441c2.426 11.115 3.484 15.879 3.793 18.349h.045c.308-2.426 1.101-6.264 3.572-18.35h3.661l-5.513 22.452h-3.794c-1.544-7.234-3.132-14.16-3.616-17.6h-.045c-.397 3.309-1.985 9.704-3.837 17.6h-3.882l-5.117-22.451zm26.331-4.19v-4.764h3.617v4.763zm0 4.19h3.617v22.45h-3.617zm7.587 0h3.132v-5.911h3.573v5.91h3.837v3.044h-3.837v14.291c0 1.5.353 2.382 2.029 2.382a7.833 7.833 0 0 0 1.499-.088v2.734a8.559 8.559 0 0 1-2.735.397c-2.823 0-4.366-1.102-4.366-4.763v-14.953h-3.132zm18.304-8.954v11.556c.794-1.72 2.471-3 5.294-3 3.396 0 5.646 2.118 5.646 6.882v15.967h-3.617v-15.218c0-2.646-.75-4.455-3.397-4.455-2.911 0-3.926 2.382-3.926 6.131v13.542h-3.66v-31.405zm42.873 23.024c-.132 1.72-.838 8.822-8.292 8.822-8.072 0-8.778-8.249-8.778-15.57 0-8.91 2.427-15.262 9.13-15.262 7.323 0 7.808 6.793 7.852 8.733h-3.661c-.088-1.014-.22-5.469-4.278-5.469-4.456 0-5.205 5.999-5.205 11.998 0 6.219.705 12.394 5.028 12.394 3.838 0 4.367-4.19 4.5-5.646zm5.072 8.38v-29.949h4.41c7.896 19.937 9.043 22.804 9.44 24.171h.044c-.22-3.97-.265-8.468-.265-13.32v-10.85h3.397v29.949h-4.235c-8.16-20.996-9.263-23.819-9.615-25.01h-.044c.22 3.705.264 8.513.264 13.894v11.116zm39.873-8.38c-.132 1.72-.838 8.822-8.292 8.822-8.072 0-8.778-8.249-8.778-15.57 0-8.91 2.427-15.262 9.13-15.262 7.323 0 7.808 6.793 7.852 8.733h-3.66c-.09-1.014-.222-5.469-4.279-5.469-4.456 0-5.205 5.999-5.205 11.998 0 6.219.705 12.394 5.028 12.394 3.838 0 4.367-4.19 4.5-5.646zm5.028-21.569h14.07v3.264h-10.41v9.572h9.793v3.22h-9.792v13.894h-3.661zm31.89 16.364v13.586h-3.662v-29.95h8.072c5.072 0 7.807 2.867 7.807 7.807 0 4.455-2.206 6.352-3.97 6.97 2.69 1.014 3.573 3.396 3.573 7.63v1.191a33.366 33.366 0 0 0 .441 6.352h-3.66a29.064 29.064 0 0 1-.442-6.44v-1.015c0-4.234-.882-6.13-4.808-6.13zm0-3.087h3.572c3.572 0 4.896-1.941 4.896-5.337 0-2.912-1.324-4.852-4.543-4.852h-3.926zm20.552 6.175c0 4.102.662 7.851 4.102 7.851 3.353 0 3.793-3.132 3.881-3.837h3.529c-.088.617-.661 6.88-7.454 6.88-6.75 0-7.675-6.042-7.675-11.644 0-7.101 2.47-11.6 7.851-11.6 6 0 7.454 4.896 7.454 10.542 0 .485-.044 1.323-.088 1.808zm8.072-2.779c0-3.529-.706-6.484-3.882-6.484-3.882 0-4.058 4.94-4.102 6.484zm10.938 6.749c.133 2.25 1.324 4.013 3.794 4.013a3.063 3.063 0 0 0 3.397-3.308c0-2.16-1.06-3.22-3.97-4.322-4.764-1.809-6.088-3.529-6.088-6.66 0-3.044 1.853-6.043 6.572-6.043 5.206 0 6.617 3.528 6.66 6.528h-3.528c-.044-1.015-.265-3.617-3.22-3.617a2.666 2.666 0 0 0-2.911 2.91c0 1.721.795 2.56 3.793 3.706 4.412 1.676 6.352 3.308 6.352 7.145 0 4.147-2.603 6.573-7.234 6.573-4.764 0-7.101-2.867-7.19-6.925zm15.482 14.732v-24.127c0-3.044 0-5.117-.044-6.528h3.485c.044.44.131 1.852.131 2.91.75-1.852 2.294-3.308 5.294-3.308 4.234 0 6.528 3.75 6.528 11.292 0 8.204-2.823 11.954-7.19 11.954-2.647 0-3.97-1.191-4.588-2.603v10.41zm7.675-27.877c-3.308 0-4.19 3.176-4.19 8.293 0 5.293.44 8.645 4.013 8.645 2.823 0 4.235-3.264 4.235-8.645 0-5.602-1.28-8.293-4.058-8.293zm27.7 8.205c0 7.939-2.736 11.865-7.897 11.865-5.248 0-7.851-3.794-7.851-11.777 0-7.851 3.088-11.468 8.028-11.468 4.984 0 7.72 3.837 7.72 11.38zm-12.043.088c0 5.866 1.368 8.69 4.19 8.69s4.147-2.868 4.147-8.69c0-5.602-1.324-8.337-4.147-8.337-2.734 0-4.19 2.514-4.19 8.337zm17.245-4.102c0-4.632-.044-5.91-.044-6.97h3.485c.045.53.132 1.456.132 2.823a5.295 5.295 0 0 1 5.25-3.22c3.307 0 5.778 1.941 5.778 6.837v16.012h-3.661V348.21c0-2.646-.795-4.41-3.265-4.41-2.823 0-4.058 1.808-4.058 6.219v13.453h-3.617zm22.805 8.954c.132 2.25 1.323 4.013 3.793 4.013a3.063 3.063 0 0 0 3.397-3.308c0-2.16-1.059-3.22-3.97-4.322-4.764-1.809-6.087-3.529-6.087-6.66 0-3.044 1.852-6.043 6.572-6.043 5.205 0 6.616 3.528 6.66 6.528h-3.528c-.045-1.015-.265-3.617-3.22-3.617a2.666 2.666 0 0 0-2.912 2.91c0 1.721.795 2.56 3.793 3.706 4.412 1.676 6.353 3.308 6.353 7.145 0 4.147-2.603 6.573-7.235 6.573-4.763 0-7.1-2.867-7.189-6.925zm18.26-3.97c0 4.102.662 7.851 4.102 7.851 3.353 0 3.794-3.132 3.882-3.837h3.528c-.088.617-.661 6.88-7.454 6.88-6.749 0-7.675-6.042-7.675-11.644 0-7.101 2.47-11.6 7.852-11.6 5.999 0 7.454 4.896 7.454 10.542 0 .485-.044 1.323-.088 1.808zm8.072-2.779c0-3.529-.705-6.484-3.881-6.484-3.882 0-4.059 4.94-4.103 6.484zm22.23-13.409h-6.617v-3.264h16.938v3.264h-6.66v26.686h-3.662zm13.805.044v-4.763h3.617v4.763zm0 4.19h3.617v22.452h-3.617zm9.88 6.75c0-4.103 0-5.69-.044-6.75h3.485a23.798 23.798 0 0 1 .131 2.735 5.167 5.167 0 0 1 4.985-3.131 4.345 4.345 0 0 1 4.631 3.308 5.668 5.668 0 0 1 5.47-3.308c2.866 0 5.47 1.411 5.47 6.572v16.276h-3.574v-15.659c0-2.205-.661-4.014-2.999-4.014-2.735 0-3.661 2.382-3.661 5.337v14.336h-3.573v-15.57c0-2.647-.882-4.059-3-4.059-2.558 0-3.705 2.25-3.705 5.558v14.07h-3.616zm32.904 5.204c0 4.102.662 7.851 4.102 7.851 3.353 0 3.793-3.132 3.882-3.837h3.528c-.088.617-.661 6.88-7.454 6.88-6.75 0-7.675-6.042-7.675-11.644 0-7.101 2.47-11.6 7.851-11.6 6 0 7.455 4.896 7.455 10.542 0 .485-.045 1.323-.089 1.808zm8.072-2.779c0-3.529-.706-6.484-3.882-6.484-3.881 0-4.058 4.94-4.102 6.484zm174.408-31.89v-24.127c0-3.044 0-5.117-.044-6.528h3.486c.044.44.131 1.852.131 2.911.75-1.852 2.294-3.308 5.294-3.308 4.234 0 6.528 3.75 6.528 11.292 0 8.204-2.823 11.953-7.19 11.953-2.647 0-3.97-1.19-4.588-2.602v10.41zm7.675-27.876c-3.307 0-4.19 3.176-4.19 8.292 0 5.293.441 8.645 4.014 8.645 2.823 0 4.235-3.264 4.235-8.645 0-5.602-1.28-8.292-4.059-8.292zm12.923 4.852c0-3.573 0-6.043-.044-7.631h3.44c.045.53.132 1.544.132 3.926a6.077 6.077 0 0 1 5.911-4.279v4.014c-3.837.088-5.822 2.25-5.822 6.396V310.1h-3.617zm28.053 3.352c0 7.94-2.735 11.865-7.896 11.865-5.249 0-7.852-3.793-7.852-11.777 0-7.851 3.088-11.468 8.028-11.468 4.985 0 7.72 3.837 7.72 11.38zm-12.043.088c0 5.867 1.368 8.69 4.19 8.69s4.148-2.868 4.148-8.69c0-5.602-1.324-8.336-4.147-8.336-2.735 0-4.19 2.514-4.19 8.336zm21.04-11.071v23.642c0 4.19-.53 7.366-5.073 7.366a9.95 9.95 0 0 1-1.544-.132v-3.176a10.036 10.036 0 0 0 1.059.044c1.676 0 1.94-1.014 1.94-3.352V287.65zm-3.573-4.19v-4.764h3.616v4.764zm12.394 16.143c0 4.102.662 7.852 4.102 7.852 3.352 0 3.793-3.132 3.881-3.838h3.529c-.089.618-.662 6.881-7.455 6.881-6.748 0-7.675-6.043-7.675-11.644 0-7.102 2.471-11.601 7.852-11.601 6 0 7.454 4.896 7.454 10.542 0 .485-.044 1.323-.088 1.808zm8.072-2.779c0-3.528-.706-6.483-3.882-6.483-3.882 0-4.058 4.94-4.103 6.483zm22.848 6.264c-.088 1.323-.574 7.41-7.279 7.41-5.998 0-7.586-5.16-7.586-11.733 0-6.22 2.029-11.512 7.851-11.512 6.705 0 6.97 6.087 7.014 7.19h-3.705c-.044-.883-.31-4.102-3.309-4.102-3.088 0-4.146 3.352-4.146 8.424 0 5.426 1.103 8.645 3.97 8.645 3.088 0 3.44-3.087 3.616-4.322zm2.998-15.438h3.132v-5.91h3.573v5.91h3.838v3.043h-3.838v14.291c0 1.5.353 2.382 2.03 2.382a7.833 7.833 0 0 0 1.498-.088v2.735a8.559 8.559 0 0 1-2.734.397c-2.823 0-4.367-1.103-4.367-4.764v-14.953H787.9zm17.114 15.923c.132 2.25 1.323 4.014 3.793 4.014a3.063 3.063 0 0 0 3.397-3.308c0-2.161-1.059-3.22-3.97-4.323-4.764-1.808-6.087-3.529-6.087-6.66 0-3.044 1.852-6.043 6.572-6.043 5.205 0 6.616 3.529 6.66 6.528h-3.528c-.044-1.015-.265-3.617-3.22-3.617a2.666 2.666 0 0 0-2.912 2.911c0 1.72.795 2.559 3.794 3.705 4.411 1.676 6.352 3.308 6.352 7.146 0 4.146-2.603 6.572-7.235 6.572-4.763 0-7.1-2.867-7.189-6.925zm38.638 2.382c0 1.367.088 3.396.176 4.146h-3.308a12.536 12.536 0 0 1-.22-2.47c-.84 1.764-2.47 2.867-5.25 2.867-4.322 0-5.91-3.396-5.91-6.528 0-4.19 2.867-7.234 8.69-7.234a16.046 16.046 0 0 1 2.249.088v-2.91c0-1.633-.31-3.75-3.176-3.75-3.088 0-3.308 2.206-3.44 3.705h-3.44c.087-3.264 1.587-6.616 7.012-6.616 4.455 0 6.617 2.161 6.617 6.307zm-3.485-6.352a13.752 13.752 0 0 0-2.117-.088c-3.793 0-5.293 1.809-5.293 4.19 0 1.897.97 3.75 3.308 3.75 3.132 0 4.102-2.25 4.102-6.705zm9.792-4.322c0-3.573 0-6.043-.044-7.631h3.44c.045.53.132 1.544.132 3.926a6.076 6.076 0 0 1 5.911-4.279v4.014c-3.838.088-5.823 2.25-5.823 6.396V310.1h-3.616zm15.879 4.322c0 4.102.66 7.852 4.101 7.852 3.353 0 3.793-3.132 3.882-3.838h3.528c-.088.618-.661 6.881-7.454 6.881-6.749 0-7.675-6.043-7.675-11.644 0-7.102 2.47-11.601 7.851-11.601 6 0 7.455 4.896 7.455 10.542 0 .485-.044 1.323-.089 1.808zm8.071-2.779c0-3.528-.705-6.483-3.882-6.483-3.881 0-4.058 4.94-4.102 6.483zm18.17-1.543c0-3.573 0-6.043-.043-7.631h3.44c.045.53.132 1.544.132 3.926a6.076 6.076 0 0 1 5.911-4.279v4.014c-3.837.088-5.822 2.25-5.822 6.396V310.1h-3.617zm15.924 4.322c0 4.102.661 7.852 4.101 7.852 3.353 0 3.794-3.132 3.882-3.838h3.528c-.088.618-.661 6.881-7.454 6.881-6.749 0-7.675-6.043-7.675-11.644 0-7.102 2.47-11.601 7.852-11.601 5.999 0 7.454 4.896 7.454 10.542 0 .485-.044 1.323-.088 1.808zm8.071-2.779c0-3.528-.705-6.483-3.881-6.483-3.882 0-4.059 4.94-4.103 6.483zm8.689 21.481v-24.127c0-3.044 0-5.117-.044-6.528h3.485c.044.44.131 1.852.131 2.911.751-1.852 2.294-3.308 5.294-3.308 4.234 0 6.528 3.75 6.528 11.292 0 8.204-2.823 11.953-7.19 11.953-2.647 0-3.97-1.19-4.587-2.602v10.41zm7.675-27.876c-3.308 0-4.19 3.176-4.19 8.292 0 5.293.44 8.645 4.013 8.645 2.823 0 4.235-3.264 4.235-8.645 0-5.602-1.28-8.292-4.058-8.292zm12.923 4.852c0-3.573 0-6.043-.044-7.631h3.441c.044.53.132 1.544.132 3.926a6.076 6.076 0 0 1 5.91-4.279v4.014c-3.837.088-5.822 2.25-5.822 6.396V310.1h-3.617zm15.923 4.322c0 4.102.662 7.852 4.102 7.852 3.352 0 3.793-3.132 3.881-3.838h3.529c-.089.618-.662 6.881-7.454 6.881-6.75 0-7.675-6.043-7.675-11.644 0-7.102 2.47-11.601 7.851-11.601 6 0 7.454 4.896 7.454 10.542 0 .485-.044 1.323-.088 1.808zm8.072-2.779c0-3.528-.706-6.483-3.882-6.483-3.882 0-4.058 4.94-4.102 6.483zm10.893 6.749c.132 2.25 1.324 4.014 3.793 4.014a3.063 3.063 0 0 0 3.397-3.308c0-2.161-1.058-3.22-3.97-4.323-4.763-1.808-6.087-3.529-6.087-6.66 0-3.044 1.852-6.043 6.572-6.043 5.205 0 6.616 3.529 6.66 6.528h-3.528c-.044-1.015-.265-3.617-3.22-3.617a2.666 2.666 0 0 0-2.912 2.911c0 1.72.795 2.559 3.794 3.705 4.411 1.676 6.352 3.308 6.352 7.146 0 4.146-2.603 6.572-7.234 6.572-4.764 0-7.101-2.867-7.19-6.925zm18.305-3.97c0 4.102.662 7.852 4.102 7.852 3.353 0 3.793-3.132 3.881-3.838h3.529c-.089.618-.662 6.881-7.454 6.881-6.75 0-7.675-6.043-7.675-11.644 0-7.102 2.47-11.601 7.851-11.601 6 0 7.454 4.896 7.454 10.542 0 .485-.044 1.323-.088 1.808zm8.072-2.779c0-3.528-.706-6.483-3.882-6.483-3.882 0-4.058 4.94-4.102 6.483zm8.688-2.205c0-4.631-.044-5.91-.044-6.97h3.485c.045.53.132 1.457.132 2.824a5.295 5.295 0 0 1 5.25-3.22c3.307 0 5.778 1.94 5.778 6.837V310.1h-3.661V294.84c0-2.647-.795-4.411-3.265-4.411-2.823 0-4.058 1.808-4.058 6.219v13.453h-3.617zm18.13-6.97h3.131v-5.91h3.573v5.91h3.837v3.044h-3.837v14.291c0 1.5.353 2.382 2.029 2.382a7.833 7.833 0 0 0 1.499-.088v2.735a8.559 8.559 0 0 1-2.735.397c-2.823 0-4.366-1.103-4.366-4.764v-14.953h-3.132zm16.937 11.954c0 4.102.661 7.852 4.101 7.852 3.353 0 3.793-3.132 3.882-3.838h3.528c-.088.618-.661 6.881-7.454 6.881-6.749 0-7.675-6.043-7.675-11.644 0-7.102 2.47-11.601 7.852-11.601 5.999 0 7.454 4.896 7.454 10.542 0 .485-.044 1.323-.089 1.808zm8.071-2.779c0-3.528-.705-6.483-3.882-6.483-3.881 0-4.058 4.94-4.102 6.483zm23.421-18.128v25.539c0 2.293 0 4.543.045 5.866h-3.485a26.952 26.952 0 0 1-.132-2.911c-.706 1.897-2.118 3.308-5.25 3.308-4.675 0-6.616-4.014-6.616-11.865 0-7.101 2.56-11.38 7.367-11.38 2.823 0 3.969 1.19 4.455 2.25v-10.807zm-7.719 28.626c3.309 0 4.191-2.823 4.191-8.777 0-6.264-.838-8.116-3.97-8.116-2.558 0-4.235 2.205-4.235 8.248 0 6.263 1.368 8.645 4.014 8.645zm23.464-23.862v-4.764h3.616v4.764zm0 4.19h3.616V310.1h-3.616zm9.924 6.97c0-4.632-.045-5.911-.045-6.97h3.486c.044.53.131 1.456.131 2.823a5.295 5.295 0 0 1 5.25-3.22c3.307 0 5.778 1.94 5.778 6.837V310.1h-3.66V294.84c0-2.647-.796-4.411-3.265-4.411-2.823 0-4.059 1.808-4.059 6.219v13.453h-3.616zm-440.407 45.166h3.132v-5.91h3.572v5.91h3.838v3.044h-3.838v14.29c0 1.5.354 2.382 2.03 2.382a7.834 7.834 0 0 0 1.499-.088v2.735a8.559 8.559 0 0 1-2.735.397c-2.823 0-4.366-1.103-4.366-4.764V342.83h-3.132zm18.26-8.954v11.557c.795-1.72 2.47-3 5.294-3 3.396 0 5.645 2.117 5.645 6.881v15.967h-3.616V347.02c0-2.647-.75-4.455-3.397-4.455-2.911 0-3.926 2.382-3.926 6.13v13.542h-3.66v-31.405zm19.673 20.907c0 4.102.662 7.852 4.102 7.852 3.352 0 3.793-3.132 3.881-3.838h3.529c-.089.618-.662 6.881-7.455 6.881-6.748 0-7.675-6.043-7.675-11.644 0-7.102 2.471-11.6 7.852-11.6 6 0 7.454 4.895 7.454 10.541 0 .485-.044 1.323-.088 1.808zm8.072-2.778c0-3.529-.706-6.484-3.882-6.484-3.882 0-4.058 4.94-4.103 6.484zm18.215-2.426c0-4.102 0-5.69-.045-6.749h3.486a23.797 23.797 0 0 1 .131 2.735 5.166 5.166 0 0 1 4.985-3.132 4.345 4.345 0 0 1 4.631 3.308 5.668 5.668 0 0 1 5.47-3.308c2.866 0 5.47 1.412 5.47 6.572v16.276h-3.574V346.58c0-2.206-.661-4.014-2.999-4.014-2.735 0-3.662 2.382-3.662 5.337v14.335h-3.572v-15.57c0-2.647-.882-4.058-3-4.058-2.558 0-3.705 2.25-3.705 5.558v14.07h-3.616zm43.401 11.556c0 1.367.089 3.396.177 4.146h-3.309a12.457 12.457 0 0 1-.22-2.47c-.839 1.764-2.47 2.867-5.249 2.867-4.322 0-5.91-3.396-5.91-6.528 0-4.19 2.866-7.234 8.689-7.234a16.048 16.048 0 0 1 2.25.089v-2.911c0-1.633-.31-3.75-3.176-3.75-3.088 0-3.308 2.206-3.44 3.705h-3.44c.087-3.264 1.587-6.616 7.012-6.616 4.455 0 6.616 2.161 6.616 6.308zm-3.484-6.352a13.752 13.752 0 0 0-2.117-.088c-3.794 0-5.293 1.809-5.293 4.19 0 1.897.97 3.75 3.308 3.75 3.132 0 4.102-2.25 4.102-6.705zm9.791-16.143v-4.764h3.617v4.764zm0 4.19h3.617v22.451h-3.617zm9.88 6.97c0-4.632-.044-5.911-.044-6.97h3.485c.044.53.132 1.456.132 2.823a5.295 5.295 0 0 1 5.25-3.22c3.307 0 5.778 1.94 5.778 6.837v16.011h-3.661v-15.261c0-2.647-.795-4.411-3.265-4.411-2.823 0-4.058 1.808-4.058 6.22v13.452h-3.617zm18.128-6.97h3.132v-5.91h3.572v5.91h3.838v3.044h-3.838v14.29c0 1.5.354 2.382 2.03 2.382a7.834 7.834 0 0 0 1.499-.088v2.735a8.559 8.559 0 0 1-2.735.397c-2.823 0-4.366-1.103-4.366-4.764V342.83h-3.132zm27.964 18.305c0 1.367.089 3.396.177 4.146h-3.309a12.457 12.457 0 0 1-.22-2.47c-.838 1.764-2.47 2.867-5.249 2.867-4.322 0-5.91-3.396-5.91-6.528 0-4.19 2.866-7.234 8.689-7.234a16.048 16.048 0 0 1 2.25.089v-2.911c0-1.633-.31-3.75-3.176-3.75-3.088 0-3.308 2.206-3.44 3.705h-3.44c.087-3.264 1.587-6.616 7.012-6.616 4.455 0 6.616 2.161 6.616 6.308zm-3.484-6.352a13.752 13.752 0 0 0-2.117-.088c-3.794 0-5.293 1.809-5.293 4.19 0 1.897.97 3.75 3.308 3.75 3.132 0 4.102-2.25 4.102-6.705zm9.791-16.143v-4.764h3.617v4.764zm0 4.19h3.617v22.451h-3.617zm9.88 6.97c0-4.632-.044-5.911-.044-6.97h3.485c.044.53.132 1.456.132 2.823a5.295 5.295 0 0 1 5.25-3.22c3.307 0 5.778 1.94 5.778 6.837v16.011h-3.661v-15.261c0-2.647-.795-4.411-3.265-4.411-2.823 0-4.058 1.808-4.058 6.22v13.452h-3.617zm23.377 4.983c0 4.102.662 7.852 4.102 7.852 3.353 0 3.793-3.132 3.882-3.838h3.528c-.088.618-.661 6.881-7.454 6.881-6.75 0-7.675-6.043-7.675-11.644 0-7.102 2.47-11.6 7.851-11.6 6 0 7.455 4.895 7.455 10.541 0 .485-.045 1.323-.089 1.808zm8.072-2.778c0-3.529-.706-6.484-3.882-6.484-3.881 0-4.058 4.94-4.102 6.484zm8.688-1.544c0-3.573 0-6.043-.044-7.63h3.441c.044.528.132 1.543.132 3.925a6.076 6.076 0 0 1 5.91-4.279v4.014c-3.837.088-5.822 2.25-5.822 6.396v12.394h-3.617zm25.01 8.292c.132 2.25 1.323 4.014 3.793 4.014a3.063 3.063 0 0 0 3.397-3.308c0-2.161-1.059-3.22-3.97-4.323-4.764-1.808-6.088-3.528-6.088-6.66 0-3.044 1.853-6.043 6.572-6.043 5.206 0 6.617 3.529 6.66 6.528h-3.528c-.044-1.014-.265-3.617-3.22-3.617a2.666 2.666 0 0 0-2.911 2.911c0 1.72.795 2.559 3.793 3.705 4.412 1.677 6.353 3.309 6.353 7.146 0 4.146-2.604 6.572-7.235 6.572-4.764 0-7.1-2.867-7.19-6.925zm29.949.309c0 2.911 0 5.116.044 6.22h-3.484c-.089-.662-.133-1.589-.177-2.868-.838 2.162-2.646 3.264-5.25 3.264-2.734 0-5.601-1.147-5.601-6.704v-16.144h3.616v15.306c0 2.734.751 4.366 3.177 4.366 2.382 0 4.014-1.411 4.014-5.998v-13.674h3.66zm5.997-8.601c0-3.573 0-6.043-.044-7.63h3.44c.045.528.132 1.543.132 3.925a6.077 6.077 0 0 1 5.911-4.279v4.014c-3.838.088-5.823 2.25-5.823 6.396v12.394h-3.616zm16.408-7.63c1.72 7.1 3.837 15.525 4.278 18.48h.045c.309-2.69 3.396-13.54 4.543-18.48h3.66l-6.395 22.45h-3.926l-6.086-22.45zm18.922 11.952c0 4.102.661 7.852 4.101 7.852 3.353 0 3.794-3.132 3.882-3.838h3.528c-.088.618-.66 6.881-7.454 6.881-6.748 0-7.675-6.043-7.675-11.644 0-7.102 2.471-11.6 7.852-11.6 5.999 0 7.454 4.895 7.454 10.541 0 .485-.044 1.323-.088 1.808zm8.071-2.778c0-3.529-.705-6.484-3.881-6.484-3.882 0-4.059 4.94-4.103 6.484zm10.629-9.175c2.294 8.954 4.102 15.57 4.367 18.04h.044c.44-2.69 2.382-10.189 4.41-18.04h3.706l-6.572 23.554c-1.809 6.66-3.705 7.454-6.882 7.454a9.931 9.931 0 0 1-1.675-.132v-3.176a13.053 13.053 0 0 0 1.5.088c2.249 0 2.91-1.455 3.75-4.896l-6.617-22.892zm26.067 7.63c0-3.572 0-6.042-.044-7.63h3.441c.045.53.132 1.544.132 3.926a6.077 6.077 0 0 1 5.91-4.279v4.014c-3.837.088-5.822 2.25-5.822 6.396v12.394h-3.617zm15.923 4.323c0 4.102.662 7.852 4.102 7.852 3.353 0 3.793-3.132 3.882-3.838h3.528c-.088.618-.661 6.881-7.454 6.881-6.749 0-7.675-6.043-7.675-11.644 0-7.102 2.47-11.6 7.851-11.6 6 0 7.455 4.895 7.455 10.541 0 .485-.045 1.323-.089 1.808zm8.072-2.778c0-3.529-.706-6.484-3.882-6.484-3.881 0-4.058 4.94-4.102 6.484zm10.938 6.748c.133 2.25 1.324 4.014 3.794 4.014a3.063 3.063 0 0 0 3.397-3.308c0-2.161-1.06-3.22-3.97-4.323-4.764-1.808-6.088-3.528-6.088-6.66 0-3.044 1.853-6.043 6.572-6.043 5.206 0 6.617 3.529 6.66 6.528h-3.528c-.044-1.014-.265-3.617-3.22-3.617a2.666 2.666 0 0 0-2.911 2.911c0 1.72.795 2.559 3.793 3.705 4.412 1.677 6.352 3.309 6.352 7.146 0 4.146-2.603 6.572-7.234 6.572-4.764 0-7.101-2.867-7.19-6.925zm29.95.309c0 2.911 0 5.116.044 6.22h-3.484c-.089-.662-.133-1.589-.177-2.868-.838 2.162-2.646 3.264-5.25 3.264-2.734 0-5.601-1.147-5.601-6.704v-16.144h3.616v15.306c0 2.734.751 4.366 3.177 4.366 2.382 0 4.014-1.411 4.014-5.998v-13.674h3.66zm6.262 6.22v-31.406h3.616v31.405zm7.585-22.452h3.132v-5.91h3.573v5.91h3.837v3.044h-3.837v14.29c0 1.5.353 2.382 2.029 2.382a7.834 7.834 0 0 0 1.5-.088v2.735a8.559 8.559 0 0 1-2.735.397c-2.823 0-4.367-1.103-4.367-4.764V342.83h-3.132zm17.115 15.923c.132 2.25 1.323 4.014 3.793 4.014a3.063 3.063 0 0 0 3.397-3.308c0-2.161-1.059-3.22-3.97-4.323-4.764-1.808-6.088-3.528-6.088-6.66 0-3.044 1.853-6.043 6.573-6.043 5.205 0 6.616 3.529 6.66 6.528h-3.528c-.045-1.014-.265-3.617-3.22-3.617a2.666 2.666 0 0 0-2.912 2.911c0 1.72.795 2.559 3.793 3.705 4.412 1.677 6.353 3.309 6.353 7.146 0 4.146-2.603 6.572-7.235 6.572-4.764 0-7.1-2.867-7.189-6.925zm134.09-67.688l-1.932 8.516H1259l6.705-27.934h4.444l6.87 27.934h-3.662l-1.933-8.516zm6.419-3.044c-1.522-6.541-2.51-10.82-2.92-13.124h-.083c-.37 2.428-1.482 7.323-2.757 13.124zm16.865 11.56v-29.291h3.374v29.291zm20.488-3.867c0 1.276.083 3.168.165 3.867h-3.086a11.619 11.619 0 0 1-.205-2.303c-.782 1.645-2.304 2.674-4.896 2.674-4.031 0-5.513-3.168-5.513-6.09 0-3.907 2.674-6.746 8.105-6.746a14.968 14.968 0 0 1 2.098.082v-2.715c0-1.522-.288-3.497-2.962-3.497-2.88 0-3.085 2.057-3.209 3.456h-3.208c.081-3.045 1.48-6.171 6.54-6.171 4.155 0 6.171 2.016 6.171 5.883zm-3.25-5.924a12.826 12.826 0 0 0-1.974-.082c-3.538 0-4.937 1.687-4.937 3.908 0 1.769.905 3.497 3.085 3.497 2.921 0 3.827-2.098 3.827-6.253zm8.104-4.032c0-3.332 0-5.636-.042-7.117h3.21c.041.494.123 1.44.123 3.661a5.667 5.667 0 0 1 5.513-3.99v3.744c-3.58.082-5.431 2.098-5.431 5.965v11.56h-3.373zm24.725 12.425c0 5.595-1.398 9.38-7.488 9.38-5.512 0-6.706-3.497-6.83-5.801h3.415c.083 1.028.66 2.962 3.538 2.962 3.334 0 4.033-2.427 4.033-6.541v-1.728a4.713 4.713 0 0 1-4.814 3.044c-4.279 0-6.336-3.62-6.336-10.162 0-7.446 2.757-11.066 6.789-11.066 2.838 0 3.99 1.398 4.36 2.633a15.062 15.062 0 0 1 .166-2.263h3.208c-.041 1.11-.041 3.25-.041 6.089zm-7.2-1.605c3.086 0 3.909-3.044 3.909-7.858 0-4.69-.577-7.487-3.662-7.487-2.633 0-4.032 2.756-4.032 8.063 0 4.937 1.317 7.282 3.785 7.282zm14.44-6.788c0 3.826.617 7.323 3.825 7.323 3.128 0 3.538-2.921 3.62-3.58h3.292c-.083.577-.617 6.419-6.953 6.419-6.294 0-7.158-5.637-7.158-10.861 0-6.624 2.304-10.82 7.323-10.82 5.595 0 6.953 4.566 6.953 9.832 0 .453-.042 1.234-.083 1.687zm7.528-2.592c0-3.291-.658-6.047-3.62-6.047-3.62 0-3.786 4.607-3.827 6.047zm14.933-2.263c0-3.826 0-5.307-.041-6.294h3.25a22.198 22.198 0 0 1 .123 2.55 4.82 4.82 0 0 1 4.65-2.92 4.052 4.052 0 0 1 4.319 3.085 5.287 5.287 0 0 1 5.101-3.085c2.674 0 5.102 1.316 5.102 6.13v15.18h-3.333v-14.604c0-2.057-.617-3.744-2.797-3.744-2.551 0-3.415 2.221-3.415 4.978v13.37h-3.332v-14.522c0-2.468-.823-3.785-2.798-3.785-2.386 0-3.456 2.098-3.456 5.184v13.123h-3.373zm39.495 10.78c0 1.275.082 3.167.164 3.866h-3.086a11.692 11.692 0 0 1-.205-2.303c-.782 1.645-2.304 2.674-4.896 2.674-4.031 0-5.513-3.168-5.513-6.09 0-3.907 2.674-6.746 8.105-6.746a14.968 14.968 0 0 1 2.098.082v-2.715c0-1.522-.288-3.497-2.962-3.497-2.88 0-3.085 2.057-3.209 3.456h-3.208c.081-3.045 1.48-6.171 6.54-6.171 4.155 0 6.172 2.016 6.172 5.883zm-3.25-5.925a12.826 12.826 0 0 0-1.975-.082c-3.538 0-4.937 1.687-4.937 3.908 0 1.769.905 3.497 3.085 3.497 2.922 0 3.827-2.098 3.827-6.253zm11.517-11.149v22.051c0 3.908-.493 6.87-4.73 6.87a9.28 9.28 0 0 1-1.44-.123v-2.962a9.363 9.363 0 0 0 .987.041c1.563 0 1.81-.946 1.81-3.127v-22.75zm-3.332-3.908v-4.443h3.373v4.443zm21.887 14.152c0 7.405-2.551 11.067-7.365 11.067-4.895 0-7.323-3.538-7.323-10.985 0-7.323 2.88-10.696 7.488-10.696 4.649 0 7.2 3.579 7.2 10.614zm-11.232.082c0 5.472 1.275 8.105 3.908 8.105s3.868-2.674 3.868-8.105c0-5.225-1.235-7.775-3.868-7.775-2.55 0-3.908 2.345-3.908 7.775zm15.057-3.209c0-3.332 0-5.636-.041-7.117h3.21c.04.494.122 1.44.122 3.661a5.667 5.667 0 0 1 5.513-3.99v3.744c-3.58.082-5.43 2.098-5.43 5.965v11.56h-3.374zm11.56-11.025v-4.443h3.373v4.443zm0 3.908h3.373v20.94h-3.373zm6.088 0h2.922v-5.513h3.332v5.513h3.579v2.839h-3.58v13.33c0 1.398.33 2.22 1.893 2.22a7.307 7.307 0 0 0 1.399-.082v2.551a7.983 7.983 0 0 1-2.55.37c-2.634 0-4.073-1.028-4.073-4.443v-13.946h-2.922zm15.14 0c2.139 8.352 3.826 14.523 4.073 16.826h.04c.412-2.51 2.222-9.503 4.115-16.826h3.455l-6.13 21.969c-1.686 6.212-3.455 6.953-6.418 6.953a9.263 9.263 0 0 1-1.563-.124v-2.962a12.174 12.174 0 0 0 1.4.082c2.097 0 2.714-1.357 3.496-4.566l-6.17-21.352zm35.914 10.244c0 7.405-2.55 11.067-7.364 11.067-4.895 0-7.323-3.538-7.323-10.985 0-7.323 2.88-10.696 7.488-10.696 4.649 0 7.2 3.579 7.2 10.614zm-11.232.082c0 5.472 1.276 8.105 3.91 8.105s3.867-2.674 3.867-8.105c0-5.225-1.235-7.775-3.868-7.775-2.55 0-3.909 2.345-3.909 7.775zm15.551 10.614v-18.101h-2.674v-2.839h2.674v-2.715c0-3.168 1.234-5.883 5.101-5.883a7.048 7.048 0 0 1 1.77.247v2.92a6.123 6.123 0 0 0-1.358-.164c-1.605 0-2.14.987-2.14 3.003v2.592h3.25v2.839h-3.25v18.101zm16.454-14.646c0-3.826 0-5.307-.041-6.294h3.25a22.198 22.198 0 0 1 .123 2.55 4.818 4.818 0 0 1 4.65-2.92 4.052 4.052 0 0 1 4.319 3.085 5.287 5.287 0 0 1 5.101-3.085c2.674 0 5.102 1.316 5.102 6.13v15.18h-3.333v-14.604c0-2.057-.617-3.744-2.797-3.744-2.551 0-3.415 2.221-3.415 4.978v13.37h-3.332v-14.522c0-2.468-.823-3.785-2.798-3.785-2.386 0-3.456 2.098-3.456 5.184v13.123h-3.373zm39.495 10.78c0 1.275.082 3.167.164 3.866h-3.086a11.62 11.62 0 0 1-.205-2.303c-.782 1.645-2.304 2.674-4.896 2.674-4.031 0-5.513-3.168-5.513-6.09 0-3.907 2.674-6.746 8.105-6.746a14.968 14.968 0 0 1 2.098.082v-2.715c0-1.522-.288-3.497-2.962-3.497-2.88 0-3.085 2.057-3.209 3.456h-3.208c.081-3.045 1.48-6.171 6.54-6.171 4.155 0 6.172 2.016 6.172 5.883zm-3.25-5.925a12.826 12.826 0 0 0-1.975-.082c-3.538 0-4.937 1.687-4.937 3.908 0 1.769.905 3.497 3.085 3.497 2.922 0 3.827-2.098 3.827-6.253zm8.103-15.057v-4.443h3.373v4.443zm0 3.908h3.373v20.94h-3.373zm8.228 6.5c0-4.32-.041-5.513-.041-6.5h3.25c.042.494.123 1.358.123 2.633a4.938 4.938 0 0 1 4.897-3.003c3.085 0 5.389 1.81 5.389 6.377v14.933h-3.415v-14.234c0-2.469-.74-4.114-3.044-4.114-2.633 0-3.786 1.687-3.786 5.8v12.548h-3.373zm15.88-6.5h2.922v-5.513h3.332v5.513h3.579v2.839h-3.58v13.33c0 1.398.33 2.22 1.893 2.22a7.307 7.307 0 0 0 1.399-.082v2.551a7.983 7.983 0 0 1-2.55.37c-2.634 0-4.073-1.028-4.073-4.443v-13.946h-2.922zm25.095 17.073c0 1.276.083 3.168.165 3.867h-3.086a11.692 11.692 0 0 1-.205-2.303c-.782 1.645-2.304 2.674-4.896 2.674-4.031 0-5.513-3.168-5.513-6.09 0-3.907 2.674-6.746 8.105-6.746a14.967 14.967 0 0 1 2.098.082v-2.715c0-1.522-.288-3.497-2.962-3.497-2.88 0-3.085 2.057-3.209 3.456h-3.208c.081-3.045 1.48-6.171 6.54-6.171 4.155 0 6.171 2.016 6.171 5.883zm-3.25-5.924a12.826 12.826 0 0 0-1.974-.082c-3.538 0-4.937 1.687-4.937 3.908 0 1.769.905 3.497 3.085 3.497 2.921 0 3.827-2.098 3.827-6.253zm8.104-15.057v-4.443h3.373v4.443zm0 3.908h3.373v20.94h-3.373zm8.228 6.5c0-4.32-.041-5.513-.041-6.5h3.25c.042.494.123 1.358.123 2.633a4.938 4.938 0 0 1 4.896-3.003c3.085 0 5.39 1.81 5.39 6.377v14.933h-3.415v-14.234c0-2.469-.741-4.114-3.044-4.114-2.633 0-3.786 1.687-3.786 5.8v12.548h-3.373zm20.775 4.649c0 3.826.617 7.323 3.826 7.323 3.127 0 3.538-2.921 3.62-3.58h3.291c-.082.577-.617 6.419-6.952 6.419-6.295 0-7.159-5.637-7.159-10.861 0-6.624 2.305-10.82 7.323-10.82 5.596 0 6.953 4.566 6.953 9.832 0 .453-.041 1.234-.082 1.687zm7.529-2.592c0-3.291-.658-6.047-3.62-6.047-3.621 0-3.786 4.607-3.827 6.047zm7.116-1.44c0-3.332 0-5.636-.041-7.117h3.21c.04.494.122 1.44.122 3.661a5.668 5.668 0 0 1 5.513-3.99v3.744c-3.58.082-5.43 2.098-5.43 5.965v11.56h-3.374zm13.658 7.735c.124 2.098 1.235 3.743 3.538 3.743a2.857 2.857 0 0 0 3.169-3.085c0-2.016-.988-3.003-3.703-4.032-4.443-1.687-5.678-3.291-5.678-6.212 0-2.839 1.728-5.636 6.13-5.636 4.855 0 6.17 3.291 6.212 6.089h-3.29c-.042-.947-.248-3.374-3.005-3.374a2.486 2.486 0 0 0-2.715 2.715c0 1.605.741 2.386 3.538 3.456 4.115 1.563 5.925 3.086 5.925 6.665 0 3.867-2.428 6.13-6.748 6.13-4.443 0-6.623-2.674-6.705-6.46zm-394.478 30.03c1.934 9.791 2.839 14.358 3.168 17.238h.083c.37-2.757 1.233-6.007 3.702-17.238h3.21c2.261 10.367 3.249 14.81 3.537 17.114h.041c.288-2.262 1.028-5.842 3.333-17.114h3.414l-5.142 20.94h-3.538c-1.44-6.747-2.922-13.206-3.374-16.415h-.04c-.372 3.086-1.852 9.051-3.58 16.415h-3.62l-4.773-20.94zm36.944 10.244c0 7.405-2.55 11.067-7.364 11.067-4.896 0-7.324-3.538-7.324-10.985 0-7.323 2.88-10.696 7.488-10.696 4.65 0 7.2 3.579 7.2 10.614zm-11.232.082c0 5.472 1.276 8.105 3.909 8.105s3.867-2.674 3.867-8.105c0-5.225-1.234-7.775-3.867-7.775-2.55 0-3.909 2.345-3.909 7.775zm28.51 4.814c0 2.715 0 4.772.04 5.8h-3.249c-.082-.617-.124-1.48-.165-2.674-.781 2.016-2.468 3.045-4.896 3.045-2.55 0-5.225-1.07-5.225-6.254V320.48h3.374v14.276c0 2.55.7 4.073 2.962 4.073 2.222 0 3.744-1.317 3.744-5.596V320.48h3.415zm4.812 5.8v-29.292h3.373v29.292zm21.557-29.292v23.82c0 2.14 0 4.238.04 5.472h-3.249a25.138 25.138 0 0 1-.124-2.715c-.658 1.77-1.975 3.086-4.896 3.086-4.36 0-6.17-3.744-6.17-11.067 0-6.624 2.386-10.614 6.87-10.614 2.633 0 3.702 1.11 4.155 2.098v-10.08zm-7.2 26.7c3.086 0 3.909-2.633 3.909-8.187 0-5.841-.782-7.57-3.703-7.57-2.386 0-3.95 2.058-3.95 7.694 0 5.842 1.276 8.063 3.744 8.063zm19.828-11.23c0-3.333 0-5.637-.041-7.118h3.21c.04.494.122 1.44.122 3.661a5.667 5.667 0 0 1 5.513-3.99v3.744c-3.58.082-5.43 2.098-5.43 5.965v11.56h-3.374zm13.823 4.03c0 3.827.617 7.324 3.825 7.324 3.128 0 3.538-2.921 3.62-3.58h3.292c-.083.577-.617 6.419-6.953 6.419-6.294 0-7.158-5.637-7.158-10.861 0-6.624 2.304-10.82 7.323-10.82 5.595 0 6.953 4.566 6.953 9.832 0 .453-.042 1.234-.083 1.687zm7.528-2.59c0-3.292-.658-6.049-3.62-6.049-3.62 0-3.785 4.608-3.827 6.048zm20.282 5.841c-.082 1.234-.535 6.912-6.788 6.912-5.595 0-7.077-4.814-7.077-10.944 0-5.8 1.893-10.737 7.324-10.737 6.253 0 6.5 5.677 6.541 6.705h-3.455c-.042-.822-.289-3.826-3.086-3.826-2.88 0-3.868 3.127-3.868 7.858 0 5.06 1.029 8.064 3.703 8.064 2.88 0 3.21-2.88 3.373-4.032zm17.361-4.155c0 7.405-2.55 11.067-7.364 11.067-4.895 0-7.323-3.538-7.323-10.985 0-7.323 2.88-10.696 7.488-10.696 4.649 0 7.2 3.579 7.2 10.614zm-11.232.082c0 5.472 1.276 8.105 3.91 8.105s3.867-2.674 3.867-8.105c0-5.225-1.235-7.775-3.868-7.775-2.55 0-3.909 2.345-3.909 7.775zm15.057-4.032c0-3.826 0-5.307-.041-6.294h3.25a22.195 22.195 0 0 1 .123 2.55 4.82 4.82 0 0 1 4.649-2.92 4.052 4.052 0 0 1 4.32 3.085 5.287 5.287 0 0 1 5.1-3.085c2.675 0 5.103 1.316 5.103 6.13v15.18h-3.333v-14.604c0-2.057-.617-3.744-2.797-3.744-2.551 0-3.415 2.221-3.415 4.978v13.37h-3.332v-14.522c0-2.469-.823-3.785-2.798-3.785-2.386 0-3.456 2.098-3.456 5.184v13.123h-3.373zm27.357 0c0-3.826 0-5.307-.041-6.294h3.25a22.198 22.198 0 0 1 .123 2.55 4.818 4.818 0 0 1 4.65-2.92 4.052 4.052 0 0 1 4.32 3.085 5.287 5.287 0 0 1 5.1-3.085c2.674 0 5.102 1.316 5.102 6.13v15.18h-3.333v-14.604c0-2.057-.616-3.744-2.796-3.744-2.552 0-3.416 2.221-3.416 4.978v13.37h-3.332v-14.522c0-2.469-.823-3.785-2.798-3.785-2.386 0-3.455 2.098-3.455 5.184v13.123h-3.374zm29.703 4.855c0 3.826.617 7.323 3.826 7.323 3.127 0 3.538-2.921 3.62-3.58h3.291c-.082.577-.617 6.419-6.953 6.419-6.294 0-7.158-5.637-7.158-10.861 0-6.624 2.304-10.82 7.323-10.82 5.596 0 6.953 4.566 6.953 9.832 0 .453-.041 1.234-.083 1.687zm7.528-2.592c0-3.291-.658-6.048-3.62-6.048-3.62 0-3.785 4.608-3.826 6.048zm7.118-2.057c0-4.32-.041-5.513-.041-6.5h3.25c.042.494.123 1.358.123 2.633a4.939 4.939 0 0 1 4.896-3.003c3.085 0 5.39 1.81 5.39 6.376v14.934h-3.415v-14.234c0-2.469-.741-4.114-3.045-4.114-2.633 0-3.785 1.687-3.785 5.8v12.548h-3.373zm31.8-14.852v23.82c0 2.14 0 4.238.042 5.472h-3.25a25.138 25.138 0 0 1-.124-2.715c-.658 1.77-1.975 3.086-4.896 3.086-4.36 0-6.171-3.744-6.171-11.067 0-6.624 2.387-10.614 6.871-10.614 2.633 0 3.702 1.11 4.155 2.098v-10.08zm-7.2 26.7c3.087 0 3.91-2.633 3.91-8.187 0-5.841-.782-7.57-3.703-7.57-2.386 0-3.95 2.058-3.95 7.694 0 5.842 1.275 8.063 3.744 8.063zm14.359-7.2c0 3.827.617 7.324 3.825 7.324 3.128 0 3.539-2.921 3.62-3.58h3.292c-.082.577-.617 6.419-6.953 6.419-6.294 0-7.158-5.637-7.158-10.861 0-6.624 2.304-10.82 7.323-10.82 5.595 0 6.953 4.566 6.953 9.832 0 .453-.042 1.234-.083 1.687zm7.528-2.59c0-3.292-.658-6.049-3.62-6.049-3.62 0-3.785 4.608-3.827 6.048zm20.816-16.91v23.82c0 2.14 0 4.238.041 5.472h-3.25a25.138 25.138 0 0 1-.123-2.715c-.658 1.77-1.975 3.086-4.896 3.086-4.361 0-6.172-3.744-6.172-11.067 0-6.624 2.387-10.614 6.872-10.614 2.633 0 3.702 1.11 4.155 2.098v-10.08zm-7.2 26.7c3.086 0 3.909-2.633 3.909-8.187 0-5.841-.782-7.57-3.703-7.57-2.386 0-3.95 2.058-3.95 7.694 0 5.842 1.276 8.063 3.744 8.063zm34.968-5.224c-.123 1.604-.781 8.228-7.734 8.228-7.53 0-8.187-7.694-8.187-14.523 0-8.31 2.263-14.234 8.516-14.234 6.83 0 7.282 6.335 7.323 8.145h-3.415c-.082-.946-.206-5.1-3.99-5.1-4.156 0-4.855 5.594-4.855 11.19 0 5.8.658 11.56 4.69 11.56 3.58 0 4.073-3.909 4.197-5.266zm3.703 7.816v-27.934h4.114c7.364 18.595 8.434 21.27 8.804 22.545h.04c-.205-3.703-.246-7.899-.246-12.424v-10.12h3.168v27.933h-3.95c-7.61-19.582-8.639-22.215-8.968-23.326h-.04c.204 3.456.245 7.94.245 12.959v10.367zm36.161-7.816c-.123 1.604-.781 8.228-7.734 8.228-7.529 0-8.187-7.694-8.187-14.523 0-8.31 2.263-14.234 8.516-14.234 6.83 0 7.282 6.335 7.323 8.145h-3.414c-.083-.946-.206-5.1-3.99-5.1-4.156 0-4.856 5.594-4.856 11.19 0 5.8.658 11.56 4.69 11.56 3.58 0 4.073-3.909 4.197-5.266zm3.702-20.118h13.124v3.045h-9.71v8.927h9.134v3.003h-9.133v12.96h-3.415zm-298.09 72.819v-18.102h-2.674v-2.839h2.675v-2.715c0-3.168 1.233-5.883 5.1-5.883a7.041 7.041 0 0 1 1.77.247v2.92a6.123 6.123 0 0 0-1.357-.164c-1.606 0-2.14.988-2.14 3.003v2.592h3.25v2.839h-3.25v18.102zm22.545-10.697c0 7.405-2.55 11.067-7.364 11.067-4.896 0-7.324-3.538-7.324-10.985 0-7.323 2.88-10.696 7.488-10.696 4.65 0 7.2 3.58 7.2 10.614zm-11.232.082c0 5.472 1.276 8.105 3.909 8.105s3.867-2.674 3.867-8.105c0-5.224-1.234-7.775-3.867-7.775-2.55 0-3.909 2.345-3.909 7.775zm15.057-3.209c0-3.332 0-5.636-.042-7.117h3.21c.041.494.123 1.44.123 3.662a5.668 5.668 0 0 1 5.513-3.99v3.743c-3.58.082-5.431 2.098-5.431 5.965v11.56h-3.373zm33.117 3.127c0 7.405-2.55 11.067-7.364 11.067-4.896 0-7.324-3.538-7.324-10.985 0-7.323 2.88-10.696 7.488-10.696 4.65 0 7.2 3.58 7.2 10.614zm-11.232.082c0 5.472 1.276 8.105 3.909 8.105s3.867-2.674 3.867-8.105c0-5.224-1.234-7.775-3.867-7.775-2.55 0-3.909 2.345-3.909 7.775zm12.588-10.326h2.922v-5.513h3.332v5.513h3.58v2.839h-3.58v13.33c0 1.398.33 2.22 1.892 2.22a7.307 7.307 0 0 0 1.399-.081v2.55a7.983 7.983 0 0 1-2.55.37c-2.634 0-4.073-1.028-4.073-4.443v-13.946h-2.922zm16.044-8.351v10.779c.74-1.605 2.305-2.798 4.938-2.798 3.167 0 5.266 1.975 5.266 6.418v14.893h-3.374V372.11c0-2.468-.7-4.155-3.168-4.155-2.715 0-3.662 2.222-3.662 5.719v12.63h-3.414v-29.292zm17.362 19.5c0 3.826.617 7.323 3.826 7.323 3.127 0 3.538-2.92 3.62-3.58h3.291c-.082.577-.617 6.419-6.953 6.419-6.294 0-7.158-5.636-7.158-10.861 0-6.624 2.304-10.82 7.323-10.82 5.596 0 6.953 4.567 6.953 9.832 0 .453-.041 1.235-.083 1.687zm7.528-2.592c0-3.29-.658-6.047-3.62-6.047-3.62 0-3.785 4.607-3.826 6.047zm7.117-1.44c0-3.332 0-5.636-.041-7.117h3.21c.04.494.122 1.44.122 3.662a5.667 5.667 0 0 1 5.513-3.99v3.743c-3.58.082-5.43 2.098-5.43 5.965v11.56h-3.374zm19.457 21.476v-22.504c0-2.839 0-4.772-.04-6.089h3.25c.041.412.123 1.728.123 2.715a4.825 4.825 0 0 1 4.937-3.085c3.949 0 6.089 3.497 6.089 10.532 0 7.652-2.633 11.149-6.706 11.149-2.469 0-3.703-1.11-4.28-2.427v9.709zm7.159-26.001c-3.085 0-3.908 2.962-3.908 7.734 0 4.937.411 8.064 3.743 8.064 2.633 0 3.95-3.044 3.95-8.064 0-5.224-1.193-7.734-3.785-7.734zm11.025 4.525c0-3.332 0-5.636-.041-7.117h3.21c.04.494.122 1.44.122 3.662a5.667 5.667 0 0 1 5.513-3.99v3.743c-3.58.082-5.43 2.098-5.43 5.965v11.56h-3.374zm25.178 3.127c0 7.405-2.551 11.067-7.365 11.067-4.895 0-7.323-3.538-7.323-10.985 0-7.323 2.88-10.696 7.488-10.696 4.649 0 7.2 3.58 7.2 10.614zm-11.232.082c0 5.472 1.275 8.105 3.908 8.105s3.868-2.674 3.868-8.105c0-5.224-1.235-7.775-3.868-7.775-2.55 0-3.908 2.345-3.908 7.775zm18.594-10.326v22.051c0 3.909-.493 6.87-4.73 6.87a9.28 9.28 0 0 1-1.44-.123V391.2a9.363 9.363 0 0 0 .987.041c1.563 0 1.81-.946 1.81-3.126v-22.75zm-3.332-3.908v-4.443h3.373v4.443zm10.573 15.057c0 3.826.617 7.323 3.825 7.323 3.128 0 3.538-2.92 3.62-3.58h3.292c-.083.577-.617 6.419-6.953 6.419-6.294 0-7.158-5.636-7.158-10.861 0-6.624 2.304-10.82 7.323-10.82 5.595 0 6.953 4.567 6.953 9.832 0 .453-.042 1.235-.083 1.687zm7.528-2.592c0-3.29-.658-6.047-3.62-6.047-3.62 0-3.785 4.607-3.827 6.047zm20.282 5.842c-.082 1.234-.535 6.912-6.788 6.912-5.595 0-7.077-4.813-7.077-10.943 0-5.801 1.893-10.738 7.324-10.738 6.253 0 6.5 5.677 6.541 6.706h-3.455c-.041-.823-.289-3.826-3.086-3.826-2.88 0-3.868 3.126-3.868 7.858 0 5.06 1.029 8.063 3.703 8.063 2.88 0 3.21-2.88 3.373-4.032zm1.727-14.399h2.922v-5.513h3.332v5.513h3.58v2.839h-3.58v13.33c0 1.398.33 2.22 1.892 2.22a7.307 7.307 0 0 0 1.399-.081v2.55a7.983 7.983 0 0 1-2.55.37c-2.634 0-4.073-1.028-4.073-4.443v-13.946h-2.922zm14.975 14.852c.124 2.098 1.235 3.744 3.539 3.744a2.857 2.857 0 0 0 3.168-3.086c0-2.016-.988-3.003-3.703-4.032-4.443-1.686-5.678-3.29-5.678-6.212 0-2.838 1.728-5.636 6.13-5.636 4.855 0 6.171 3.291 6.212 6.089h-3.29c-.042-.947-.248-3.374-3.004-3.374a2.486 2.486 0 0 0-2.716 2.715c0 1.605.742 2.387 3.539 3.456 4.114 1.564 5.924 3.086 5.924 6.665 0 3.867-2.428 6.13-6.747 6.13-4.443 0-6.623-2.674-6.706-6.46z"/></g><path class="cls-9" d="M158.056 198.462c.757 5.197 2.194 11.805 10.605 11.805 13.292 0 12.776-26.85 13.006-41.81-5.383 7.483-13.49 9.703-22.446 9.703-22.428 0-36.465-15.851-36.465-46.049 0-31.64 15.702-51.302 46.49-51.302 33.448 0 47.192 21.005 47.192 67.973 0 63.131-10.978 87.598-49.548 87.598-38.801 0-41.89-29.36-42.282-37.918zm-.541-69.086c0 15.808 3.848 22.416 12.489 22.416 7.976 0 11.663-5.794 11.663-20.775 0-15.95-2.058-24.188-12.03-24.188-8.71 0-12.122 7.274-12.122 22.547zm168.35 27.804c0 65.098-19.789 79.05-47.49 79.05-27.161 0-46.938-14.468-46.938-79.534 0-65.733 23.6-75.887 47.547-75.887 24.922 0 46.881 11.51 46.881 76.371zm-59.52-.907c0 39.558.989 53.329 12.34 53.329 11.123 0 12.11-13.728 12.11-53.03 0-39.54-.895-48.984-12.11-48.984-10.294 0-12.34 10.923-12.34 48.685zm139.332-32.479c0 27.7-11.165 43.27-32.741 43.42-22.123 0-32.915-14.023-32.915-43.04 0-26.544 10.375-43.365 32.983-43.365 21.811 0 32.673 14.577 32.673 42.985zm-41.221.15c0 17.087 2.331 23.292 8.629 23.292 5.986 0 8.548-6.26 8.548-23.442 0-17.697-2.182-23.155-8.548-23.155-5.838 0-8.629 5.365-8.629 23.304zm.94 109.974l81.295-150.865h18.63l-81.363 150.865zm126.072-41.443c0 27.457-11.165 43.433-32.741 43.582-21.234 0-32.915-13.862-32.915-43.041 0-26.544 10.619-43.364 32.983-43.364 21.57 0 32.673 15.384 32.673 42.823zm-41.22.31c0 17.09 2.33 23.293 8.628 23.293 5.986 0 8.548-6.26 8.548-23.441 0-17.698-2.182-23.156-8.548-23.156-5.838 0-8.629 5.365-8.629 23.305zm240.247 41.133V119.193c-4.016-.161-10.463-.932-14.037-1.473V93.242c11.053-.988 20.62-5.738 25.126-10.879h24.062v151.555zM840.09 157.18c0 65.098-19.79 79.05-47.49 79.05-27.162 0-46.939-14.468-46.939-79.534 0-65.733 23.6-75.887 47.548-75.887 24.922 0 46.88 11.51 46.88 76.371zm-59.52-.907c0 39.558.989 53.329 12.34 53.329 11.122 0 12.11-13.728 12.11-53.03 0-39.54-.895-48.984-12.11-48.984-10.295 0-12.34 10.923-12.34 48.685zm169 .907c0 65.098-19.79 79.05-47.49 79.05-27.162 0-46.94-14.468-46.94-79.534 0-65.733 23.601-75.887 47.548-75.887 24.922 0 46.881 11.51 46.881 76.371zm-59.521-.907c0 39.558.99 53.329 12.34 53.329 11.123 0 12.111-13.728 12.111-53.03 0-39.54-.896-48.984-12.11-48.984-10.295 0-12.341 10.923-12.341 48.685zm139.332-32.479c0 27.7-11.165 43.27-32.741 43.42-22.122 0-32.914-14.023-32.914-43.04 0-26.544 10.375-43.365 32.982-43.365 21.812 0 32.673 14.577 32.673 42.985zm-41.22.15c0 17.087 2.33 23.292 8.628 23.292 5.986 0 8.548-6.26 8.548-23.442 0-17.697-2.182-23.155-8.548-23.155-5.838 0-8.629 5.365-8.629 23.304zm.94 109.974l81.295-150.865h18.63l-81.364 150.865zm126.07-41.443c0 27.457-11.164 43.433-32.74 43.582-21.234 0-32.914-13.862-32.914-43.041 0-26.544 10.618-43.364 32.982-43.364 21.57 0 32.673 15.384 32.673 42.823zm-41.22.31c0 17.09 2.331 23.293 8.63 23.293 5.985 0 8.547-6.26 8.547-23.441 0-17.698-2.182-23.156-8.548-23.156-5.838 0-8.629 5.365-8.629 23.305zm215.082-2.877c0-19.718 9.761-31.242 18.574-35.798-9.305-5.9-14.893-15.584-14.893-31.752 0-24.722 14.682-41.4 44.015-41.4 27.07 0 43.284 14.105 43.284 40.3 0 18.12-7.373 27.929-15.516 32.46 9.524 4.45 18.816 14.34 18.816 36.246 0 28.097-15.236 46.267-48.492 46.267-29.768 0-45.788-17.207-45.788-46.323zm59.36-1.094c0-16.062-4.228-21.303-12.41-21.303-8.33 0-12.19 5.689-12.19 21.614 0 15.273 3.63 22.006 12.49 22.006 8.491 0 12.11-6.515 12.11-22.317zm-23.257-65.81c0 13.601 3.562 18.786 11.065 18.786 7.815 0 10.998-5.93 10.998-18.5 0-12.003-3.183-17.38-11.147-17.38-7.342 0-10.916 5.837-10.916 17.094zm71.767 1.747c.323-19.73 8.473-43.942 44.42-43.942 28.812 0 42.66 14.789 42.66 39.342 0 18.965-8.373 27.935-18.573 31.683v.46c11.463 3.507 22.85 13.477 22.85 35.246 0 27.649-10.592 48.53-47.938 48.53-32.547 0-44.327-18.201-44.936-43.221h33.112c.528 10.293 2.94 17.822 12.191 17.822 9.239 0 12.11-7 12.11-21.633 0-16.702-3.817-22.62-19.979-22.62h-8.03v-25.834h7.42c13.223 0 17.58-3.022 17.58-18.12 0-10.822-1.827-16.35-10.307-16.35-8.641 0-10.227 8.735-10.606 18.637zm169.924-.957c0 27.7-11.165 43.27-32.741 43.42-22.122 0-32.914-14.023-32.914-43.04 0-26.544 10.375-43.365 32.982-43.365 21.812 0 32.673 14.577 32.673 42.985zm-41.22.15c0 17.087 2.33 23.292 8.628 23.292 5.987 0 8.548-6.26 8.548-23.442 0-17.697-2.181-23.155-8.548-23.155-5.838 0-8.629 5.365-8.629 23.304zm.94 109.974l81.295-150.865h18.63l-81.364 150.865zm126.071-41.443c0 27.457-11.165 43.433-32.741 43.582-21.233 0-32.914-13.862-32.914-43.041 0-26.544 10.618-43.364 32.982-43.364 21.57 0 32.673 15.384 32.673 42.823zm-41.22.31c0 17.09 2.33 23.293 8.628 23.293 5.987 0 8.548-6.26 8.548-23.441 0-17.698-2.181-23.156-8.548-23.156-5.838 0-8.629 5.365-8.629 23.305z"/></svg>