<svg xmlns="http://www.w3.org/2000/svg" id="Layer_1" data-name="Layer 1" viewBox="0 0 1975 1669"><defs><style>.cls-1{fill:none}.cls-2{clip-path:url(#clip-path)}.cls-3{fill:#dadada}.cls-4{fill:#fff}.cls-5{fill:#66666b}.cls-6{fill:#241f21}.cls-7{fill:#416ba9}.cls-8{fill:#73c3d5}.cls-9{fill:#838388}</style><clipPath id="clip-path"><path class="cls-1" d="M79.592 61.65H2849.111V1669H79.592z"/></clipPath></defs><g class="cls-2"><path class="cls-3" d="M144.104 1033.763c-.529-5.265-4.418-8.887-7.47-12.647-9.521-11.722-16.217-24.99-23.632-37.876a14.863 14.863 0 0 1-1.9-4.151c-2.702-13.075-9.343-24.82-13.586-37.357-4-11.818-7.225-23.89-10.484-35.924a160.882 160.882 0 0 1-4.225-19.896c-1.343-9.701-2.356-19.467-2.927-29.233-.483-8.312.065-16.678-.193-25.004-.824-26.637 3.801-52.516 10.631-78.228 8.05-30.297 21.276-58.49 36.772-85.767 12.27-21.598 29.316-41.185 48.295-56.93a475.513 475.513 0 0 1 50.873-36.739c3.259-2.043 6.37-4.294 9.734-6.576-1.823-5.436-3.143-10.59-5.247-15.427-10.953-25.179-17.483-51.623-24.598-77.906-1.386-5.113-1.28-10.47-2.02-15.666-1.377-9.665-3.765-19.251-3.452-29.183.428-13.631.041-27.282.128-40.923.046-7.543.023-14.989 1.786-22.541 1.694-7.267 1.38-14.916 2.596-22.422a395.757 395.757 0 0 1 12.205-52.884 335.505 335.505 0 0 1 31.166-72.154 369.367 369.367 0 0 1 23.126-34.213 255.858 255.858 0 0 1 35.722-39.201c19.78-17.364 40.44-33.5 63.585-46.768 14.984-8.592 30.844-15.196 46.717-21.837 12.66-5.293 26.458-7.005 39.823-10.102 9.356-2.172 18.712-2.21 28.16-2.205 8.694.01 17.383-.064 26.077.01 3.999.036 7.91-.037 11.376-2.306 39.763-.815 77.368 7.796 113.256 23.885 52.125 23.37 92.353 59.99 125.76 104.144 6.485 8.574 13.172 17.037 18.901 26.099 4.303 6.811 7.709 6.94 12.992.46 18.036-22.127 38.99-41.622 61.403-59.612a201.683 201.683 0 0 1 63.483-34.333c.962-.386 1.96-.713 2.945-1.03 1.372-.525 2.771-1.022 4.152-1.529a35.466 35.466 0 0 1 4.017-1.16c1.28-.4 2.555-.828 3.811-1.306a23.278 23.278 0 0 1 2.54-.815c1.266-.396 2.527-.796 3.765-1.289.8-.395 1.625-.736 2.448-1.081a38.541 38.541 0 0 1 3.77-1.574 29.303 29.303 0 0 1 4.073-.93 53.324 53.324 0 0 0 5.462-1.505 25.434 25.434 0 0 1 4.359-.819 39.635 39.635 0 0 0 7.386-1.555 32.43 32.43 0 0 1 6.24-.92 34.588 34.588 0 0 0 7.894-1.423 42.42 42.42 0 0 1 6.677-1.03c2.992-.102 5.808-1.023 8.694-1.658 56.087-4.478 108.06 7.304 155.66 36.275 8.657 5.27 17.029 10.963 25.7 16.204 30.323 21.953 53.96 49.52 73.47 80.567 8.752 13.921 17.695 27.751 24.685 42.602 3.098 6.577 6.742 7.829 13.793 4.253 37.628-19.09 77.612-31.599 119.915-36.376 21.93-2.476 44.103-.474 66.162-.88a311.11 311.11 0 0 1 140.63 42.456c50.26 29.45 90.193 69.31 121.466 117.113 8.514 13.02 13.19 27.192 20.77 41.374 96.579 180.686 0 377.735 0 377.735-6.61 24.332-22.28 43.887-37.481 63.433-41.581 53.482-95.887 91.188-159.96 116.417-35.57 13.485-72.489 21.028-110.71 20.894-25.68-.092-50.72-6.328-75.96-10.396-15.633-2.518-16.53-2.614-23.075 10.571a296.745 296.745 0 0 1-51.324 73.143c-13.64 14.317-29.597 26.04-46.072 37.149-35.097 21.055-73.498 33.127-114.499 36.822-32.814 2.96-64.205-4.087-94.676-15.684-15.473-5.886-29.625-14.166-44.32-21.442-8.413-4.165-12.55-2.407-16.112 5.868-6.618 15.367-12.67 31.01-20.959 45.682-2.245 3.967-3.792 8.366-7.764 11.27a14.367 14.367 0 0 1-7.708 2.5c-31.659.312-63.327 1.78-94.94-.746-6.534-2.807-3.359-7.166-.924-10.148 30.3-37.144 45.442-81.257 62.594-124.453a147.045 147.045 0 0 1 8.215-16.402c15.335-27.844 44.573-37.38 74.446-23.794 20.35 9.26 40.568 19.053 59.704 30.31 57.353 33.735 123.261 16.591 164.01-14.501a158.355 158.355 0 0 0 45.823-55.747 441.107 441.107 0 0 1 21.69-39.155c16.642-26.127 40.486-36.878 72.182-32.906 18.431 2.31 36.785 4.883 54.904 8.813 43.882 9.522 85.555 2.393 125.912-15.008 86.462-37.273 138.32-101.76 162.136-188.709 7.069-25.8 12.2-51.936 13.18-78.394.967-26.113-3.354-52.11-9.37-77.694-11.763-50.013-33.145-95.574-68.2-134.702-42.856-47.845-95.09-78.781-162.034-85.155-57.11-5.435-109.869 5.523-159.113 33.384-9.844 5.574-19.154 12.077-30.149 15.708-24.746 8.164-46.192 2.65-62.737-16.78a115.736 115.736 0 0 1-16.034-25.133c-18.1-37.577-36.312-75.356-69.227-103.637-50.293-43.215-107.894-57.247-173.774-39.289-41.517 11.322-72.333 36.371-99.427 66.764-13.35 14.976-25.887 30.623-38.562 46.147-29.283 35.865-67.947 25.625-86.89.041-15.79-21.331-30.48-43.366-46.49-64.55-24.687-32.653-53.014-61.205-91.493-79.08-22.339-10.374-45.944-15.726-70.662-17.622-20.103-1.546-40.072-3.857-60.156.055-51.913 10.107-94.101 36.606-126.068 75.67-63.115 77.128-75.357 163.843-45.36 256.706 5.141 15.92 10.484 31.815 17.871 46.984 7.497 15.4 10.447 31.544 9.904 48.609-.612 19.2-9.02 34.254-23.987 46.257-14.308 11.478-30.581 20.259-46.344 29.633-53.75 31.958-80.456 80.691-90.378 138.136-11.441 66.253 4.409 127.5 50.762 178.33 35.948 39.419 82.159 60.543 138.876 55.117 18.589-1.777 36.662-5.518 54.725-9.646 6.545-1.496 13.09-2.996 19.735-3.93 26.49-3.733 48.447 6.829 61.513 29.352 6.779 11.694 10.994 24.31 14.897 37.062 10.972 35.874 25.52 70.105 49.327 100.218 2.683 3.396 9.614 7.469 2.126 12.987-18 2.9-36.123 1.095-54.173 1.27-15.316.147-30.683 1.082-45.962-.75-7.074-1.795-8.376-8.183-11.363-13.213a28.68 28.68 0 0 1-1.33-2.821c-.607-1.302-1.164-2.656-1.73-3.981a17.02 17.02 0 0 1-.902-2.527c-.382-1.22-.741-2.453-1.234-3.645-.4-.74-.745-1.504-1.104-2.264a60.73 60.73 0 0 1-1.643-3.396 16.342 16.342 0 0 1-.824-2.38 32.464 32.464 0 0 0-1.289-3.59c-.446-.79-.833-1.596-1.233-2.41-.902-1.731-1.84-3.425-2.65-5.21a26.61 26.61 0 0 1-1.188-3.061c-2.43-6.024-4.676-12.104-6.508-18.285-2.444-8.26-7.589-10.419-16.094-8.606a374.979 374.979 0 0 1-70.368 7.714c-45.999.994-86.77-13.987-125.364-35.681-24.94-14.023-47.665-30.996-65.466-53.35a73.29 73.29 0 0 1-6.485-9.43"/><path class="cls-4" d="M563.849 1197.236c-4.934-6.346-10.056-12.569-14.764-19.067-12.91-17.815-22.431-37.26-30.66-57.435-6.48-15.883-11.243-32.234-16.55-48.448-2.738-8.362-6.074-16.563-11.095-23.78-15.616-22.45-32.515-29.748-58.232-25.712-18.961 2.978-37.614 7.773-56.4 11.763a7.338 7.338 0 0 1-1.123.354c-12.988.277-25.75 4.198-38.774 2.863-16.812-1.726-33.325-4.676-49.28-10.695-15.965-6.025-30.297-14.557-44.246-23.762-13.733-9.057-24.967-20.622-34.89-33.518-19.278-25.054-31.791-53.05-39.252-83.083-3.723-14.985-6.457-30.31-5.79-45.921.143-3.41.097-6.83.01-10.24-.488-18.685 2.996-36.845 8.601-54.592a429.545 429.545 0 0 1 13.747-37.415c5.643-13.38 14.318-25.147 23.214-36.758 12.33-16.09 27.89-28.681 45.11-39.57 10.2-6.448 20.54-12.693 30.72-19.164 6.895-4.381 14.115-8.45 20.32-13.618 13.258-11.05 21.878-24.562 22.14-42.174.19-12.937-.073-25.727-5.053-37.982-2.002-4.93-3.912-9.904-6.167-14.732-11.487-24.58-19.38-50.357-26.053-76.383-3.92-15.293-6.521-31.083-5.61-47.09.212-3.778.143-7.584.01-11.372-.535-15.178 2.052-30.03 4.265-44.986a249.027 249.027 0 0 1 9.624-39.598c9.365-29.2 24.203-55.682 43.642-79.95 17.825-22.251 40.123-39.4 64.491-54.365 21.115-12.965 43.703-22.215 68.702-26.044a164.732 164.732 0 0 1 51.687-.148 56.8 56.8 0 0 0 7.092.392c24.346.814 47.385 6.756 69.425 16.439a191.385 191.385 0 0 1 31.681 17.64 195.878 195.878 0 0 1 21.12 16.342c17.498 15.97 32.671 33.702 46.505 52.71 10.378 14.266 20.245 28.841 30.513 43.168 6.475 9.03 13.236 17.87 21.248 25.731 13.209 12.942 38.286 17.604 56.433 4.97a79.536 79.536 0 0 0 17.023-15.541c7.668-9.577 15.717-18.874 23.568-28.313 4.906-5.9 9.752-11.841 14.617-17.769.488-.594.842-1.302 1.38-1.845 21.3-21.382 42.695-42.69 71.408-55.213 15.469-6.747 31.682-11.395 48.232-15.017 18.349-4.022 36.95-2.126 55.443-2.085 5.78.014 11.62 1.763 17.327 3.13a196 196 0 0 1 109.335 71.154 304.358 304.358 0 0 1 27.87 44.71c6.48 12.546 12.864 25.134 19.021 37.84 6.324 13.057 15.206 24.742 28.714 32.381 11.892 6.729 24.272 7.801 37.545 4.672 10.99-2.587 20.162-8.445 29.698-13.729 7.16-3.971 14.1-8.334 21.386-12.08 22.431-11.543 46.634-17.94 71.436-22.91a244.02 244.02 0 0 1 59.92-4.087c11.713.561 23.398 2.559 34.986 4.505 22.238 3.733 43.62 10.19 63.57 20.466a263.477 263.477 0 0 1 40.238 25.74 303.084 303.084 0 0 1 28.529 25.547 269.694 269.694 0 0 1 48.259 64.11c8.297 15.509 15.96 31.234 21.437 47.917 6.268 19.09 11.676 38.429 14.966 58.136 1.597 9.577 4.22 19.274 3.065 29.237-.345 3.001.36 5.974 1.142 8.966a50.49 50.49 0 0 1 .395 22.56c-1.044 5.274-1.081 10.497-1.72 15.725-1.377 11.211-2.435 22.556-5.146 33.495-4.179 16.867-7.856 33.914-13.972 50.293-10.967 29.367-24.958 57.224-45.323 81.79-6.853 8.27-13.59 16.68-21.073 24.406-15.386 15.887-33.44 28.764-52.622 40.072-24.282 14.317-49.76 26.205-77.658 32.726-20.415 4.768-41.125 7.11-62.065 5.536-10.526-.791-20.94-3.12-31.35-5.039-9.246-1.707-18.345-4.906-27.637-5.458-11.795-.695-23.365-2.96-35.239-3.222-15.684-.345-28.327 5.73-39.952 14.608a52.165 52.165 0 0 0-11.634 12.766 399.633 399.633 0 0 0-20.093 34.715c-4.994 9.439-9.325 19.2-15.616 28.027-8.914 12.509-18.639 24.07-30.876 33.941a168.93 168.93 0 0 1-35.359 22.464c-13.222 6.093-27.282 9.678-41.452 13.029-12.062 2.848-24.286 2.535-36.477 2.13a76.288 76.288 0 0 1-18.565-2.857c-13.94-4.064-28.078-7.87-40.122-16.31a24.406 24.406 0 0 0-3.12-1.625c-18.193-9.113-36.597-17.87-54.514-27.457-11.703-6.264-24.037-6.936-36.72-6.061a28.604 28.604 0 0 0-13.26 4.432c-9.72 6.14-17.663 13.59-23.144 23.71-6.586 12.16-11.128 25.036-16.186 37.743-8.303 20.844-16.73 41.623-27.098 61.638a225.437 225.437 0 0 1-24.663 37.291c-2.633 3.286-4.883 6.853-7.309 10.29-4.487 4.134-10.221 3.567-15.661 3.577q-127.808.145-255.611-.005c-5.436-.005-11.18.562-15.634-3.622"/></g><path class="cls-5" d="M451.851 1199.469H1395.856V1337.857H451.851z"/><path class="cls-5" d="M368.22 1362.571H1455.166V1500.9589999999998H368.22z"/><path class="cls-5" d="M296.071 1530.612H1543.6889999999999V1669H296.071z"/><g class="cls-2"><path class="cls-6" d="M659.32 751.146a22.36 22.36 0 0 0 18.252-8.832l9.706 9.996q-11.55 13.013-27.231 13.01-15.678 0-25.823-9.898-10.148-9.907-10.144-25 0-15.097 10.337-25.192a34.823 34.823 0 0 1 25.289-10.097q16.7 0 27.958 12.716l-9.416 10.681q-7.18-8.933-17.86-8.933a20.819 20.819 0 0 0-14.613 5.583q-6.068 5.585-6.066 15.049 0 9.464 5.73 15.187a18.876 18.876 0 0 0 13.88 5.73"/></g><path class="cls-6" d="M699.22 764.544L699.22 696.684 714.366 696.684 714.366 751.05 743.295 751.05 743.295 764.544 699.22 764.544z"/><g class="cls-2"><path class="cls-6" d="M804.453 730.227a22.222 22.222 0 0 0-5.821-15.487 19.217 19.217 0 0 0-28.64 0 23.427 23.427 0 0 0 0 30.923 19.3 19.3 0 0 0 28.64 0 22.042 22.042 0 0 0 5.821-15.436m5.146 24.948q-10.293 10.045-25.336 10.047-15.049 0-25.34-10.047-10.292-10.05-10.29-24.999 0-14.946 10.29-24.994 10.287-10.052 25.34-10.047 15.043 0 25.336 10.047 10.286 10.044 10.29 24.994 0 14.953-10.29 25m41.062-8.154a13.34 13.34 0 0 0 20.342 0q3.735-4.708 3.733-12.863v-37.471h15.145v37.954q0 14.76-8.155 22.67-8.153 7.912-20.875 7.912-12.716 0-20.917-7.962-8.202-7.96-8.201-22.62v-37.954h15.14v37.47q0 8.154 3.788 12.864m95.67-1.116q5.579-5.247 5.583-15.243 0-9.996-5.582-15.385-5.585-5.392-17.134-5.39h-8.445v41.26h9.609q10.39 0 15.97-5.242m11.114-40.339q9.706 8.885 9.71 24.71 0 15.822-9.466 25.045-9.465 9.223-28.884 9.223h-23.2v-67.86h23.978q18.156 0 27.862 8.882"/></g><path class="cls-6" d="M1053.361 696.686L1068.507 696.686 1068.507 764.541 1053.361 764.541 1021.035 722.021 1021.035 764.541 1005.889 764.541 1005.889 696.686 1020.064 696.686 1053.361 740.37 1053.361 696.686z"/><path class="cls-6" d="M1113.063 716.879l-8.542 19.707h16.987zm20.484 47.665l-6.31-14.658h-28.446l-6.31 14.658h-16.116l29.32-67.86h14.659l29.316 67.86z"/><path class="cls-6" d="M1181.31 709.791L1181.31 764.543 1166.165 764.543 1166.165 709.791 1146.946 709.791 1146.946 696.688 1200.529 696.688 1200.529 709.791 1181.31 709.791z"/><path class="cls-6" d="M1211.598 696.686H1226.744V764.541H1211.598z"/><path class="cls-6" d="M1268.484 739.886L1285.765 696.685 1302.172 696.685 1274.89 764.545 1262.078 764.545 1234.796 696.685 1251.207 696.685 1268.484 739.886z"/><path class="cls-6" d="M1359.154 696.686L1359.154 710.18 1325.374 710.18 1325.374 724.156 1355.758 724.156 1355.758 737.07 1325.374 737.07 1325.374 751.144 1360.222 751.144 1360.222 764.541 1310.228 764.541 1310.228 696.686 1359.154 696.686z"/><g class="cls-2"><path class="cls-6" d="M641.957 822.335a12.526 12.526 0 0 0 10.23-4.952l5.44 5.606q-6.475 7.29-15.26 7.294a19.856 19.856 0 0 1-14.475-5.554 20.104 20.104 0 0 1 .106-28.134 19.519 19.519 0 0 1 14.175-5.66 20.11 20.11 0 0 1 15.675 7.128l-5.279 5.988a12.38 12.38 0 0 0-10.014-5.007 11.68 11.68 0 0 0-8.192 3.13 10.914 10.914 0 0 0-3.396 8.435 11.51 11.51 0 0 0 3.207 8.514 10.602 10.602 0 0 0 7.783 3.212m50.66-11.728a12.45 12.45 0 0 0-3.263-8.68 10.768 10.768 0 0 0-16.052 0 13.125 13.125 0 0 0 0 17.332 10.814 10.814 0 0 0 16.052 0 12.344 12.344 0 0 0 3.263-8.652m2.886 13.986a20.72 20.72 0 0 1-28.405 0 19.894 19.894 0 0 1 0-28.023 20.72 20.72 0 0 1 28.405 0 19.906 19.906 0 0 1 0 28.023"/></g><path class="cls-6" d="M742.52 805.9L732.234 826.689 727.171 826.689 716.945 805.9 716.945 829.846 708.454 829.846 708.454 791.808 719.936 791.808 729.73 812.703 739.579 791.808 751.011 791.808 751.011 829.846 742.52 829.846 742.52 805.9z"/><g class="cls-2"><path class="cls-6" d="M780.339 810.175a7.314 7.314 0 0 0 1.523-5.008q0-3.292-1.984-4.68-1.988-1.388-6.176-1.39h-4.846v12.79h5.716q4.246 0 5.767-1.712m6.231-14.967q4.004 3.404 4 10.447 0 7.048-4.106 10.314-4.114 3.265-12.545 3.263h-5.063v10.612h-8.486v-38.037h13.443q8.753 0 12.757 3.401m20.705 24.814a6.949 6.949 0 0 0 5.716 2.637 6.857 6.857 0 0 0 5.684-2.637 11.292 11.292 0 0 0 2.094-7.211v-21.005h8.49v21.276q0 8.277-4.57 12.707a17.651 17.651 0 0 1-23.43-.023q-4.597-4.466-4.597-12.684v-21.276h8.491v21.005a11.216 11.216 0 0 0 2.122 7.211"/></g><path class="cls-6" d="M854.183 799.154L854.183 829.846 845.696 829.846 845.696 799.154 834.918 799.154 834.918 791.809 864.956 791.809 864.956 799.154 854.183 799.154z"/><path class="cls-6" d="M871.159 791.805H879.65V829.842H871.159z"/><path class="cls-6" d="M915.62 791.807L924.111 791.807 924.111 829.844 915.62 829.844 897.496 806.01 897.496 829.844 889.01 829.844 889.01 791.807 896.953 791.807 915.62 816.296 915.62 791.807z"/><g class="cls-2"><path class="cls-6" d="M958.174 810.472h8.541v13.494q-5.66 6.316-15.67 6.314a19.358 19.358 0 0 1-14.07-5.55 20.11 20.11 0 0 1 .111-28.133 19.281 19.281 0 0 1 13.986-5.661 20.685 20.685 0 0 1 14.23 5.39l-4.409 6.364a16.857 16.857 0 0 0-4.708-3.074 12.63 12.63 0 0 0-4.652-.842 11.13 11.13 0 0 0-8.16 3.29 13.132 13.132 0 0 0-.138 17.304 10.289 10.289 0 0 0 7.593 3.24 14.551 14.551 0 0 0 7.346-1.689z"/></g><path class="cls-6" d="M1014.768 791.807L1014.768 799.263 997.137 799.263 997.137 807.478 1013.898 807.478 1013.898 814.938 997.137 814.938 997.137 829.844 988.646 829.844 988.646 791.807 1014.768 791.807z"/><g class="cls-2"><path class="cls-6" d="M1051.062 810.607a12.45 12.45 0 0 0-3.263-8.68 10.768 10.768 0 0 0-16.052 0 13.125 13.125 0 0 0 0 17.332 10.814 10.814 0 0 0 16.052 0 12.344 12.344 0 0 0 3.263-8.652m2.886 13.986a20.72 20.72 0 0 1-28.405 0 19.894 19.894 0 0 1 0-28.023 20.72 20.72 0 0 1 28.405 0 19.906 19.906 0 0 1 0 28.023m23.018-4.57a6.949 6.949 0 0 0 5.716 2.636 6.857 6.857 0 0 0 5.684-2.637 11.292 11.292 0 0 0 2.094-7.211v-21.005h8.49v21.276q0 8.277-4.57 12.707a17.651 17.651 0 0 1-23.43-.023q-4.597-4.466-4.597-12.684v-21.276h8.491v21.005a11.216 11.216 0 0 0 2.122 7.211"/></g><path class="cls-6" d="M1134.376 791.807L1142.867 791.807 1142.867 829.844 1134.376 829.844 1116.253 806.01 1116.253 829.844 1107.766 829.844 1107.766 791.807 1115.71 791.807 1134.376 816.296 1134.376 791.807z"/><g class="cls-2"><path class="cls-6" d="M1175.054 819.397q3.127-2.934 3.13-8.542 0-5.605-3.13-8.629-3.134-3.017-9.61-3.019h-4.73v23.13h5.384q5.826 0 8.956-2.94m6.231-22.61q5.433 4.983 5.44 13.847 0 8.878-5.306 14.042-5.302 5.17-16.191 5.168h-13.006v-38.037h13.443q10.176 0 15.62 4.98"/></g><path class="cls-6" d="M1208.601 803.124l-4.786 11.05h9.522zm11.483 26.72l-3.535-8.214h-15.947l-3.539 8.214h-9.03l16.435-38.037h8.215l16.435 38.037z"/><path class="cls-6" d="M1246.859 799.154L1246.859 829.846 1238.368 829.846 1238.368 799.154 1227.594 799.154 1227.594 791.809 1257.633 791.809 1257.633 799.154 1246.859 799.154z"/><path class="cls-6" d="M1263.833 791.805H1272.324V829.842H1263.833z"/><g class="cls-2"><path class="cls-6" d="M1310.796 810.607a12.45 12.45 0 0 0-3.263-8.68 10.768 10.768 0 0 0-16.052 0 13.125 13.125 0 0 0 0 17.332 10.814 10.814 0 0 0 16.052 0 12.343 12.343 0 0 0 3.263-8.652m2.886 13.986a20.72 20.72 0 0 1-28.405 0 19.894 19.894 0 0 1 0-28.023 20.72 20.72 0 0 1 28.405 0 19.906 19.906 0 0 1 0 28.023"/></g><path class="cls-6" d="M1353.242 791.807L1361.733 791.807 1361.733 829.844 1353.242 829.844 1335.119 806.01 1335.119 829.844 1326.632 829.844 1326.632 791.807 1334.576 791.807 1353.242 816.296 1353.242 791.807z"/><path class="cls-7" d="M461.372 784.79L440.474 784.79 440.474 833.541 489.225 833.541 489.225 812.647 461.372 812.647 461.372 784.79z"/><path class="cls-7" d="M565.83 784.945L565.83 812.646 538.129 812.646 537.978 812.494 537.978 833.54 586.724 833.54 586.724 784.789 565.674 784.789 565.83 784.945z"/><path class="cls-7" d="M440.476 736.048L461.527 736.048 461.375 735.887 461.375 708.19 461.375 708.186 489.071 708.186 489.223 708.342 489.223 687.296 440.476 687.296 440.476 736.048z"/><path class="cls-7" d="M537.975 687.294L537.975 708.188 565.828 708.188 565.828 736.045 586.722 736.045 586.722 687.294 537.975 687.294z"/><path class="cls-8" d="M535.396 736.048L507.534 708.186 537.973 708.186 537.973 687.296 489.222 687.296 489.222 708.342 516.927 736.048 535.396 736.048z"/><path class="cls-8" d="M489.223 833.54L537.974 833.54 537.974 812.494 524.122 798.641 510.269 784.789 491.805 784.789 514.89 807.873 519.667 812.646 510.122 812.646 489.223 812.646 489.223 833.54z"/><path class="cls-8" d="M565.83 736.048L565.83 756.937 565.83 766.482 561.058 761.705 537.978 738.625 537.978 757.094 551.821 770.942 565.674 784.79 586.724 784.79 586.724 736.048 565.83 736.048z"/><path class="cls-8" d="M489.224 763.74L461.528 736.048 440.478 736.048 440.478 784.79 461.372 784.79 461.372 754.351 489.224 782.208 489.224 763.74z"/><path class="cls-9" d="M443.582 479.596v-1.252c.156-19.717 7.041-30.983 22.846-48.822 11.11-12.518 13.3-15.648 13.3-25.818 0-6.103-.938-10.641-6.572-10.641-6.259 0-7.511 5.32-7.824 15.648h-21.907c0-16.743 6.26-33.33 30.67-33.33 21.594 0 29.574 12.362 29.574 29.574 0 12.519-3.129 19.09-16.117 33.017-8.45 9.233-14.396 16.274-16.43 22.22h35.051l-2.973 19.404zm137.386-52.264c0 44.283-13.457 53.829-32.235 53.829-18.62 0-31.921-9.859-31.921-54.142 0-44.753 15.96-51.638 32.234-51.638 17.057 0 31.922 7.824 31.922 51.95zm-40.528-.626c0 26.914.782 36.303 8.45 36.303 7.51 0 8.293-9.232 8.293-35.99 0-26.915-.626-33.33-8.293-33.33-7.042 0-8.45 7.354-8.45 33.017zm62.12 52.89v-78.083c-2.817-.157-7.198-.626-9.545-.94v-16.742c7.51-.626 13.926-3.913 17.056-7.355h16.274v103.12zm64.466-24.098c.626 3.442 1.565 7.98 7.354 7.98 8.92 0 8.607-18.308 8.763-28.479-3.599 5.164-9.232 6.729-15.178 6.729-15.335 0-24.88-10.797-24.88-31.453 0-21.437 10.64-34.894 31.608-34.894 22.69 0 32.078 14.396 32.078 46.318 0 42.875-7.51 59.618-33.642 59.618-26.445 0-28.48-20.03-28.793-25.819zm-.313-47.1c0 10.797 2.66 15.335 8.45 15.335 5.477 0 7.98-3.912 7.98-14.084 0-10.953-1.408-16.586-8.137-16.586-5.946 0-8.293 5.007-8.293 15.335zM495.22 588.034h-27.833v21.86h31.5l-2.445 16.971H446.75V535.22h49.693v17.243h-29.055v18.329h27.833zm16.152 38.831V535.22h23.082c13.984 43.176 17.107 53.63 18.057 57.703h.408c-.95-11.54-1.222-26.611-1.222-40.867v-16.836h18.6v91.646h-22.673c-14.528-47.656-17.244-56.888-18.194-60.826h-.407c.679 10.998 1.086 27.97 1.086 42.904v17.922zm76.028-91.646h26.204c23.896 0 33.672 13.577 33.672 43.99 0 32.585-9.64 47.656-34.486 47.656H587.4zm21.18 75.625h3.938c9.776 0 12.627-6.925 12.627-31.907 0-20.909-2.58-27.562-12.491-27.562h-4.073zm100.33-75.625v64.084c0 5.974 1.221 12.763 8.689 12.763 7.195 0 8.418-5.838 8.418-12.627v-64.22h21.18v63.541c0 18.737-9.097 29.87-30.142 29.87-21.18 0-29.327-11.133-29.327-30.005v-63.406zm71.546 65.035c.543 7.603 2.58 12.763 8.96 12.763 6.11 0 8.012-4.074 8.012-9.37 0-6.245-3.123-10.046-13.985-15.613-15.885-8.146-21.86-15.07-21.86-28.512 0-15.75 9.505-26.068 27.698-26.068 21.452 0 27.562 13.441 27.698 27.426h-20.23c-.408-6.381-1.63-11.813-7.604-11.813-4.616 0-6.788 2.988-6.788 8.147 0 5.295 2.037 8.01 12.083 12.898 16.972 8.554 24.168 15.886 24.168 31.228 0 15.206-8.825 27.29-29.463 27.29-22.266 0-29.055-12.762-29.462-28.376zm99.789-12.22h-27.834v21.86h31.5l-2.444 16.971h-49.693V535.22h49.693v17.243h-29.056v18.329h27.834zm36.925 1.358v37.473h-20.774V535.22h30.957c17.65 0 26.747 8.69 26.747 25.39 0 12.626-6.246 18.6-11.812 20.772 7.196 3.26 10.59 9.097 10.59 22.267v3.259a151.58 151.58 0 0 0 .95 19.958h-20.366c-1.086-3.53-1.493-11.676-1.493-20.637v-3.123c0-10.862-2.173-13.713-10.183-13.713zm0-15.886h4.888c8.01 0 10.997-2.85 10.997-11.812 0-7.467-2.715-10.861-9.64-10.861h-6.245zm95.577 33.672l-3.123 19.687H988.58l18.058-91.646h29.598l18.33 91.646h-21.86l-3.258-19.687zm13.984-17.65c-2.172-13.442-4.209-28.377-5.295-36.795h-.679c-.95 8.826-3.123 23.353-5.295 36.795zm44.664 37.337l-15.207-91.646h22.131c1.901 16.971 4.888 46.57 5.974 62.998h.543c2.58-17.922 6.653-43.718 9.504-62.998h17.922c2.58 16.7 6.653 43.99 8.961 62.32h.68c1.493-18.059 5.023-48.336 6.516-62.32h20.366l-16.292 91.646h-21.181c-2.715-16.157-6.517-36.523-8.825-54.852h-.543c-2.309 18.058-6.517 39.103-9.233 54.852zm102.503-19.687l-3.123 19.687h-21.045l18.058-91.646h29.598l18.33 91.646h-21.86l-3.258-19.687zm13.984-17.65c-2.172-13.442-4.209-28.377-5.295-36.795h-.679c-.95 8.826-3.123 23.353-5.295 36.795zm59.055-.136v37.473h-20.773V535.22h30.957c17.65 0 26.747 8.69 26.747 25.39 0 12.626-6.246 18.6-11.812 20.772 7.195 3.26 10.59 9.097 10.59 22.267v3.259a151.625 151.625 0 0 0 .95 19.958h-20.366c-1.086-3.53-1.493-11.676-1.493-20.637v-3.123c0-10.862-2.173-13.713-10.183-13.713zm0-15.886h4.888c8.01 0 10.998-2.85 10.998-11.812 0-7.467-2.715-10.861-9.64-10.861h-6.246zm50.911-38.287h26.204c23.896 0 33.672 13.577 33.672 43.99 0 32.585-9.64 47.656-34.486 47.656h-25.39zm21.18 75.625h3.938c9.776 0 12.627-6.925 12.627-31.907 0-20.909-2.58-27.562-12.491-27.562h-4.073z"/></svg>