<svg xmlns="http://www.w3.org/2000/svg" id="Layer_1" data-name="Layer 1" viewBox="0 0 934 426"><defs><style>.cls-1{fill:none}.cls-2{clip-path:url(#clip-path)}.cls-3{opacity:.3}.cls-4{fill:#b9babb}.cls-5{fill:#27799f}</style><clipPath id="clip-path"><path class="cls-1" d="M-25.005 -14.243H955.921V417H-25.005z"/></clipPath></defs><g class="cls-2"><g class="cls-2"><g class="cls-3"><g class="cls-2"><path class="cls-4" d="M920.258 413.037H10.659V13.495h909.599zM22.547 401.15h885.822V25.383H22.547z"/></g></g></g></g><path class="cls-5" d="M476.315 90.042a57.266 57.266 0 0 1-1.75 15.85c-.363 1.4-.034 1.631 1.273 1.781a110.531 110.531 0 0 1 47.415 16.641c1.705 1.086 2.04.484 2.661-1.054a67.169 67.169 0 0 1 19.054-26.532c2.875-2.425 5.964-4.57 9.79-5.271 3.851-.705 6.281 1.165 6.672 5.094a23.793 23.793 0 0 1-1.833 10.992 67.095 67.095 0 0 1-19.015 27.149c-1.302 1.123-1.533 1.666-.14 2.963a110.987 110.987 0 0 1 17.786 21.541c.806 1.26.836 1.897-.558 2.703q-6.053 3.508-11.962 7.257c-1.302.826-1.973.826-2.868-.607a90.224 90.224 0 0 0-21.747-23.935c-14.064-10.817-29.877-17.486-47.574-19.069-34.809-3.103-63.115 9.25-84.975 36.462a36.307 36.307 0 0 0-1.212 1.595c-3.081 4.325-3.079 4.325-7.453 1.5-2.939-1.9-5.849-3.844-8.832-5.672-1.295-.792-1.715-1.367-.7-2.85a113.492 113.492 0 0 1 17.644-20.365c1.376-1.238 1.523-1.789.09-3.18-8.821-8.551-15.579-18.412-18.594-30.525a16.865 16.865 0 0 1-.285-6.706 4.99 4.99 0 0 1 6.087-4.438c4.04.597 7.266 2.838 10.281 5.365a66.703 66.703 0 0 1 18.276 24.696c.786 1.789 1.351 1.917 2.983.958a107.634 107.634 0 0 1 46.702-14.862c2.199-.172 2.457-.9 2.04-2.949-2.266-11.188-2.212-22.337 1.137-33.348a21.79 21.79 0 0 1 3.652-7.34c3.069-3.866 6.684-3.858 9.736.086 3.042 3.934 4.229 8.625 5.172 13.387a59.494 59.494 0 0 1 1.05 12.683zm-22.28 255.873c.196-4.241.125-8.51 1.115-12.68.364-1.543.41-2.447-1.799-2.641a109.898 109.898 0 0 1-47.562-15.47c-1.528-.916-1.949-.572-2.634.866a67.314 67.314 0 0 1-17.57 23.109c-2.89 2.41-5.967 4.575-9.79 5.28-3.858.713-6.291-1.152-6.69-5.076a24.119 24.119 0 0 1 1.824-10.997 66.621 66.621 0 0 1 15.727-24.1c1.674-1.655 1.41-2.383-.147-3.784a104.36 104.36 0 0 1-13.899-15.71c-.941-1.27-1.044-1.936.393-2.882q5.747-3.778 11.3-7.841c1.383-1.015 2.076-.934 3.11.496a91.11 91.11 0 0 0 31.142 27.301c18.76 10.05 38.708 13.587 59.746 10.15 25.482-4.166 45.854-16.826 61.227-37.532.966-1.302 1.634-1.695 3.108-.604 3.686 2.727 7.47 5.32 11.294 7.846 1.34.885 1.548 1.457.521 2.84a109.774 109.774 0 0 1-12.955 14.89c-1.219 1.142-.973 1.614.118 2.641 9.28 8.731 16.332 18.873 19.462 31.42a16.79 16.79 0 0 1 .278 6.463c-.484 3.352-2.863 5.07-6.22 4.55-3.949-.606-7.111-2.793-10.067-5.258a67.43 67.43 0 0 1-18.55-25.114c-.686-1.558-1.146-1.683-2.54-.782a108.939 108.939 0 0 1-47.544 16.986c-1.632.184-1.538.744-1.305 2.052a69.551 69.551 0 0 1-.872 30.488 23.505 23.505 0 0 1-4.453 9.411c-2.951 3.49-6.389 3.514-9.252-.076-3.666-4.595-4.782-10.17-5.78-15.773a90.997 90.997 0 0 1-.737-10.469zm98.273-136.876c3.043 16.744 3.072 33.37 2.986 50.016-.012 2.264-.62 2.787-2.78 2.713-4.914-.167-9.843-.118-14.763-.014-1.573.032-1.936-.455-1.934-1.971q.07-39.035 0-78.075c-.005-1.632.43-2.116 2.08-2.091 6.253.093 12.512.123 18.766-.017 1.877-.042 2.58.675 3.16 2.307 5.224 14.744 11.21 29.225 15.209 44.39a13.869 13.869 0 0 0 .624 1.533c1.105-1.455 1.265-3.062 1.673-4.534 3.974-14.29 9.395-28.087 14.15-42.111a2.05 2.05 0 0 1 2.366-1.56c6.423.063 12.847.085 19.268-.01 1.63-.025 1.904.572 1.902 2.022q-.055 39.035 0 78.075c0 1.408-.192 2.08-1.868 2.044q-7.88-.164-15.761 0c-1.656.032-1.885-.622-1.892-2.05-.064-15.596-.256-31.193 2.297-46.66a23.349 23.349 0 0 0 .163-2.992 6.07 6.07 0 0 0-.344-1.143c-.826 2.465-1.502 4.467-2.165 6.475-4.21 12.729-9.132 25.198-13.663 37.806a2.513 2.513 0 0 1-2.917 1.959q-3.876-.169-7.755-.008a1.936 1.936 0 0 1-2.185-1.494c-5.168-14.238-10.852-28.291-15.09-42.856a1.971 1.971 0 0 0-1.526-1.754zM381.651 220.69c0 12.842-.035 25.687.036 38.53.01 1.832-.272 2.611-2.388 2.55-5.667-.167-11.34-.123-17.01-.017-1.722.034-2.258-.394-2.238-2.187.093-9.255-.005-18.512.08-27.768.018-1.88-.358-2.603-2.44-2.556q-9.749.217-19.51 0c-2.183-.05-2.569.713-2.547 2.696.101 9.17-.017 18.346.094 27.517.024 1.941-.565 2.337-2.379 2.3q-8.63-.148-17.26-.012c-1.465.02-2.006-.28-2-1.9q.077-39.153 0-78.305c-.003-1.603.515-1.934 1.997-1.917 5.755.078 11.51.108 17.263-.01 1.83-.04 2.403.393 2.379 2.315-.113 8.505.012 17.012-.094 25.517-.024 1.988.369 2.742 2.546 2.69q9.753-.22 19.512 0c2.08.05 2.46-.665 2.44-2.55-.089-8.588.012-17.177-.081-25.765-.018-1.777.5-2.237 2.238-2.205 5.67.109 11.343.15 17.01-.017 2.126-.061 2.398.745 2.389 2.568-.07 12.842-.037 25.684-.037 38.526zm17.56.106c0-12.926.034-25.856-.037-38.784-.01-1.777.3-2.42 2.278-2.408q24.022.136 48.044.012c1.791-.008 2.477.332 2.41 2.297q-.206 6.88-.01 13.762c.042 1.69-.543 2.069-2.128 2.056-8.841-.068-17.683.02-26.524-.073-1.905-.022-2.57.378-2.524 2.445.098 4.435.128 3.568.007 8-.054 1.93.413 2.566 2.453 2.53 7.254-.133 14.513.029 21.767-.104 2.052-.04 2.49.632 2.438 2.531q-.178 7.004-.005 14.01c.037 1.653-.472 2.115-2.106 2.098-7.34-.08-14.68.022-22.018-.074-1.865-.024-2.58.325-2.54 2.416.058 3.379-.048 6.733.009 10.006.03 1.807.538 2.21 2.25 2.195 9.26-.081 18.52.015 27.776-.084 1.934-.02 2.57.443 2.5 2.458-.16 4.501-.106 9.008-.02 13.513.03 1.543-.28 2.162-2.02 2.155q-25.023-.104-50.047.002c-1.784.01-1.985-.676-1.98-2.172.049-12.928.027-25.856.027-38.787zm70.074-.18c0-12.844.041-25.688-.05-38.53-.012-1.96.482-2.532 2.468-2.482 5.585.142 11.18.154 16.761-.005 2.084-.06 2.416.678 2.41 2.538-.06 19.6-.004 39.202-.083 58.804-.01 2.101.354 2.841 2.679 2.797 8.674-.165 17.349-.003 26.023-.116 1.931-.024 2.369.566 2.317 2.391q-.174 6.88-.007 13.761c.032 1.534-.4 1.979-1.954 1.971q-24.27-.084-48.542.005c-1.666.008-2.064-.491-2.057-2.096.062-13.012.035-26.023.035-39.035z"/></svg>