<svg xmlns="http://www.w3.org/2000/svg" id="Layer_1" data-name="Layer 1" viewBox="0 0 657 351"><defs><style>.cls-1,.cls-3{fill:none}.cls-2{fill:#fff}.cls-3{stroke:#fff;stroke-miterlimit:10;stroke-width:2px}</style></defs><path class="cls-1" d="M-529.04 -334.592H797.27V1035.978H-529.04z"/><path class="cls-2" d="M622.689 65.331h11.47V24.78h9.768v-9.398h-31.08v9.398h9.842zm-34.853-41.44h3.404c3.774 0 5.254 1.85 5.254 5.92 0 4.884-1.628 6.438-5.994 6.438h-2.664zm2.516 21.016c4.366 0 5.55 1.554 5.55 7.474v1.702c0 4.884.222 9.324.814 11.248h11.1a82.623 82.623 0 0 1-.518-10.878v-1.776c0-7.178-1.85-10.36-5.772-12.136 3.034-1.184 6.438-4.44 6.438-11.322 0-9.102-4.958-13.838-14.578-13.838h-16.872v49.95h11.322V44.907zm-38.998-21.386c4.144 0 5.106 4.366 5.106 16.28 0 12.654-.962 17.464-5.106 17.464-3.922 0-5.032-5.18-5.032-17.464 0-11.692 1.11-16.28 5.032-16.28m.148-9.102c-11.47 0-17.168 7.622-17.168 25.382 0 18.426 5.106 26.492 16.724 26.492 12.432 0 17.39-7.918 17.39-26.27 0-17.39-5.18-25.604-16.946-25.604m-43.141 9.546h3.256c3.182 0 5.18 1.776 5.18 6.438 0 4.736-1.48 6.66-5.476 6.66h-2.96zm-11.396 41.366h11.396V45.795h4.514c9.842 0 15.392-4.884 15.392-15.318 0-10.286-6.216-15.096-14.874-15.096h-16.428zM488.16 34.77h-15.17v-9.99h15.836v-9.398h-27.084v49.95h27.084l1.332-9.25H472.99V44.167h15.17zm-54.242-10.878h3.404c3.774 0 5.254 1.85 5.254 5.92 0 4.884-1.628 6.438-5.994 6.438h-2.664zm2.516 21.016c4.366 0 5.55 1.554 5.55 7.474v1.702c0 4.884.222 9.324.814 11.248h11.1a82.64 82.64 0 0 1-.518-10.878v-1.776c0-7.178-1.85-10.36-5.772-12.136 3.034-1.184 6.438-4.44 6.438-11.322 0-9.102-4.958-13.838-14.578-13.838h-16.872v49.95h11.322V44.907zm-61.788 20.424h26.27l1.036-9.324h-15.836V15.381h-11.47zm-27.01-20.35c1.185-7.326 2.369-15.244 2.887-20.054h.37c.592 4.588 1.702 12.728 2.886 20.054zm7.623 9.62l1.776 10.73h11.914l-9.99-49.95h-16.132l-9.842 49.95h11.47l1.702-10.73zm-59.645-39.22V49.94c0 10.286 4.44 16.354 15.984 16.354 11.47 0 16.428-6.068 16.428-16.28V15.381h-11.544v35.002c0 3.7-.666 6.882-4.588 6.882-4.07 0-4.736-3.7-4.736-6.956V15.381zm-30.857 49.95v-9.768c0-8.14-.222-17.39-.592-23.384h.222c.518 2.146 1.998 7.178 9.916 33.152h12.358v-49.95h-10.138v9.176c0 7.77.148 15.984.666 22.274h-.222c-.518-2.22-2.22-7.918-9.842-31.45h-12.58v49.95zm-41.514 0v-9.768c0-8.14-.222-17.39-.592-23.384h.222c.518 2.146 1.998 7.178 9.916 33.152h12.358v-49.95h-10.138v9.176c0 7.77.148 15.984.666 22.274h-.222c-.518-2.22-2.22-7.918-9.842-31.45h-12.58v49.95zm-37.221-20.35c1.184-7.326 2.368-15.244 2.886-20.054h.37c.592 4.588 1.702 12.728 2.886 20.054zm7.622 9.62l1.776 10.73h11.914l-9.99-49.95h-16.132l-9.842 49.95h11.47l1.702-10.73zm-65.12 10.73h7.697V42.983h16.132V36.25H136.22V22.041h17.168V15.16h-24.864zm-15.687-14.356c-.222 2.146-.888 8.584-6.66 8.584-6.438 0-7.474-9.472-7.474-19.314 0-10.878 1.332-19.166 7.77-19.166 5.994 0 6.216 6.734 6.29 8.436h7.77c-.148-3.7-1.11-15.096-13.986-15.096-11.47 0-15.91 9.99-15.91 25.678 0 12.95 1.406 26.048 15.392 26.048 13.246 0 14.356-12.506 14.578-15.17zM58.596 65.331v-16.28c0-9.028 0-16.724-.37-22.94h.074c.592 2.22 2.516 7.326 14.43 39.22h8.658V15.16h-7.03v15.688c0 8.214.074 15.614.444 21.904h-.074c-.592-2.368-2.59-7.474-14.134-37.592h-9.028v50.172zM35.878 50.975c-.222 2.146-.888 8.584-6.66 8.584-6.438 0-7.474-9.472-7.474-19.314 0-10.878 1.332-19.166 7.77-19.166 5.994 0 6.216 6.734 6.29 8.436h7.77c-.148-3.7-1.11-15.096-13.986-15.096-11.47 0-15.91 9.99-15.91 25.678 0 12.95 1.406 26.048 15.392 26.048 13.246 0 14.356-12.506 14.578-15.17z"/><path class="cls-3" d="M558.927 136.274c15.826 0 19.09 13.072 19.09 38.385 0 23.775-5.85 32.97-18.508 32.97-13.713 0-19.821-10.488-19.821-35.575 0-24.237 5.417-35.78 19.239-35.78zm-71.461 145.42c.622 13.582 5.525 60.174 67.1 60.174 61.21 0 78.634-38.828 78.634-139.016 0-74.538-21.811-107.872-74.894-107.872-48.861 0-73.78 31.204-73.78 81.415 0 47.924 22.277 73.08 57.869 73.08 14.216 0 27.08-3.523 35.623-15.4-.365 23.742.454 66.352-20.64 66.352-13.348 0-15.628-10.487-16.831-18.734zm-42.171 56.268V97.446H407.11c-7.153 8.16-22.335 15.696-39.875 17.264v38.847c5.673.86 15.904 2.082 22.276 2.338v182.067zM264.422 137.477c17.798 0 19.219 14.987 19.219 77.736 0 62.374-1.57 84.16-19.22 84.16-18.014 0-19.583-21.856-19.583-84.633 0-59.928 3.246-77.263 19.584-77.263zm.474-42.497c-38.003 0-75.457 16.114-75.457 120.431 0 103.26 31.386 126.221 74.49 126.221 43.962 0 75.367-22.143 75.367-125.452 0-102.935-34.85-121.2-74.4-121.2zM157.254 337.962l6.718-45.258H82.228c4.706-13.97 18.637-30.436 38.544-51.803 30.277-32.357 37.636-47.944 37.636-76.857 0-40.367-18.705-69.064-69.252-69.064-56.92 0-71.313 38.532-71.55 77.498H69c.473-23.764 3.61-36.185 17.926-36.185 13.368 0 15.628 10.437 15.628 24.772 0 23.745-5.456 30.878-31.184 60.236-36.777 41.52-53.015 67.851-53.252 113.593v3.068z"/></svg>