<svg xmlns="http://www.w3.org/2000/svg" id="Layer_1" data-name="Layer 1" viewBox="0 0 1237 91"><defs><style>.cls-1{fill:#fff}</style></defs><path class="cls-1" d="M19.894 16.472h19.229c10.172 0 17.482 5.63 17.482 17.762 0 12.244-6.555 17.961-18.08 17.961h-5.256v22.876H19.894zm13.375 25.423h3.497c4.64 0 6.404-2.263 6.404-7.773 0-5.453-2.341-7.538-6.127-7.538h-3.774zm42.43 9.198V75.07H62.41v-58.6H82.2c11.304 0 17.064 5.615 17.064 16.227 0 8.114-3.99 11.91-7.519 13.308 4.583 2.048 6.748 5.814 6.748 14.243v2.038a91.509 91.509 0 0 0 .628 12.784H86.06c-.684-2.262-.92-7.476-.92-13.206V59.85c0-6.931-1.395-8.756-6.54-8.756zm.03-10.082h3.12c5.034 0 6.976-1.82 6.976-7.548 0-4.83-1.703-6.94-6.122-6.94H75.73zm69.043 4.387c0 21.476-5.86 30.776-20.425 30.776-13.58 0-19.605-9.456-19.605-31.07 0-20.764 6.7-29.71 20.156-29.71 13.814 0 19.874 9.617 19.874 30.004zm-25.968-.29c0 14.465 1.304 20.484 5.925 20.484 4.877 0 5.982-5.599 5.982-20.485 0-13.909-1.162-19.074-5.982-19.074-4.642 0-5.925 5.416-5.925 19.074zm49.863 13.372c0 10.95-2.273 17.433-15.22 17.433a37.242 37.242 0 0 1-6.205-.49V64.867c.985.087 2.134.23 3.396.23 4.051 0 4.593-1.69 4.593-5.333V16.472h13.436zm39.136-8.246H190.06V64.2h20.086l-1.572 10.872h-31.716v-58.6h31.751v11.016h-18.55v11.788h17.744zm44.857 6.472c-.169 6.064-2.338 19.468-18.66 19.468-16.19 0-19.583-11.793-19.583-30.494 0-21.205 6.729-30.254 20.13-30.254 15.637 0 17.944 11.96 18.113 18.949h-13.414c-.113-3.275-.2-8.342-4.903-8.342-4.616 0-5.808 5.353-5.808 19.694 0 12.588.706 19.952 5.639 19.952 4.59 0 4.877-5.458 5.046-8.973zm14.775-29.219h-11.556V16.472h36.486v11.015h-11.494v47.584h-13.436zm57.757-11.015v41.03c0 3.816.798 8.12 5.557 8.12 4.59 0 5.44-3.71 5.44-8.063V16.472h13.527v40.65c0 11.933-5.842 19.052-19.262 19.052-13.583 0-18.727-7.056-18.727-19.17V16.473zm32.493 0h19.228c10.172 0 17.483 5.63 17.483 17.762 0 12.244-6.556 17.961-18.08 17.961h-5.257v22.876h-13.374zm13.374 25.423h3.498c4.64 0 6.403-2.263 6.403-7.773 0-5.453-2.34-7.538-6.127-7.538h-3.774zM400.2 16.472h16.738c15.294 0 21.536 8.682 21.536 28.172 0 20.76-6.16 30.427-22.012 30.427H400.2zm13.523 48.37h2.5c6.265 0 8.102-4.422 8.102-20.412 0-13.382-1.651-17.617-8.015-17.617h-2.587zm42.862-2.314l-1.994 12.543h-13.466l11.56-58.6h18.924l11.708 58.6h-13.986l-2.055-12.543zm8.908-11.325c-1.33-8.55-2.612-18.087-3.353-23.474h-.444c-.572 5.619-2.004 14.92-3.39 23.474zm26.238-23.716h-11.555V16.472h36.486v11.015H505.17v47.584h-13.437zm61.063 22.747h-17.743V64.2h20.086l-1.572 10.872h-31.715v-58.6h31.75v11.016h-18.55v11.788h17.744zm19.794 7.871c.338 4.813 1.707 8.124 5.73 8.124 3.91 0 5.162-2.63 5.162-5.961 0-4.055-2.038-6.44-8.93-9.973-10.18-5.255-14.024-9.69-14.024-18.303 0-10.023 6.126-16.597 17.736-16.597 13.654 0 17.561 8.533 17.674 17.53h-12.961c-.226-4.08-.972-7.586-4.795-7.586-2.995 0-4.335 1.942-4.335 5.212 0 3.356 1.31 5.087 7.681 8.271C592.39 44.291 597 48.917 597 58.77c0 9.685-5.662 17.404-18.814 17.404-14.25 0-18.6-8.12-18.885-18.069zm57.1 4.423l-1.994 12.543H614.23l11.561-58.6h18.924l11.708 58.6h-13.986l-2.055-12.543zm8.909-11.325c-1.33-8.55-2.613-18.087-3.354-23.474h-.443c-.572 5.619-2.004 14.92-3.39 23.474zm22.256 23.868v-58.6h14.732c8.908 27.62 10.977 34.26 11.58 36.935h.24c-.583-7.373-.765-17.03-.765-26.175v-10.76h11.89v58.6h-14.517c-9.255-30.459-10.993-36.362-11.653-38.895h-.27c.465 7.05.709 17.905.709 27.491v11.404zm46.507-58.6H724.1c15.294 0 21.535 8.683 21.535 28.173 0 20.76-6.16 30.427-22.012 30.427h-16.262zm13.523 48.37h2.5c6.265 0 8.102-4.421 8.102-20.411 0-13.382-1.651-17.617-8.015-17.617h-2.587zm57.346-6.736c.338 4.813 1.707 8.124 5.73 8.124 3.911 0 5.163-2.63 5.163-5.961 0-4.055-2.038-6.44-8.93-9.973-10.18-5.255-14.024-9.69-14.024-18.303 0-10.023 6.126-16.597 17.735-16.597 13.655 0 17.562 8.533 17.675 17.53h-12.962c-.225-4.08-.971-7.586-4.795-7.586-2.995 0-4.335 1.942-4.335 5.212 0 3.356 1.309 5.087 7.682 8.271 10.861 5.469 15.473 10.095 15.473 19.948 0 9.685-5.663 17.404-18.815 17.404-14.25 0-18.598-8.12-18.885-18.069zm43.217 4.423l-1.994 12.543h-13.466l11.56-58.6h18.925l11.708 58.6h-13.987l-2.054-12.543zm8.908-11.325c-1.33-8.55-2.612-18.087-3.353-23.474h-.443c-.573 5.619-2.004 14.92-3.39 23.474zm26.239-23.716h-11.556V16.472h36.486v11.015H870.03v47.584h-13.436zm43.583-11.015v58.6H886.71v-58.6zm19.484 41.633c.338 4.813 1.707 8.124 5.73 8.124 3.91 0 5.163-2.63 5.163-5.961 0-4.055-2.038-6.44-8.931-9.973-10.18-5.255-14.023-9.69-14.023-18.303 0-10.023 6.126-16.597 17.735-16.597 13.654 0 17.561 8.533 17.675 17.53h-12.962c-.226-4.08-.972-7.586-4.795-7.586-2.995 0-4.335 1.942-4.335 5.212 0 3.356 1.31 5.087 7.682 8.271 10.86 5.469 15.472 10.095 15.472 19.948 0 9.685-5.662 17.404-18.814 17.404-14.25 0-18.599-8.12-18.885-18.069zm30.737-41.633h31.716v10.984h-18.367v12.626h17.208v10.903h-17.208v24.086h-13.349zm46.93 46.056l-1.994 12.543h-13.466l11.56-58.6h18.925l11.708 58.6h-13.987l-2.054-12.543zm8.908-11.325c-1.33-8.55-2.612-18.087-3.353-23.474h-.444c-.572 5.619-2.003 14.92-3.39 23.474zm58.84 5.503c-.17 6.064-2.34 19.468-18.661 19.468-16.19 0-19.583-11.793-19.583-30.494 0-21.205 6.729-30.254 20.13-30.254 15.637 0 17.944 11.96 18.113 18.949h-13.415c-.112-3.275-.199-8.342-4.902-8.342-4.616 0-5.808 5.353-5.808 19.694 0 12.588.706 19.952 5.639 19.952 4.59 0 4.877-5.458 5.046-8.973zm14.774-29.219h-11.556V16.472h36.486v11.015h-11.494v47.584h-13.436zm43.583-11.015v58.6h-13.466v-58.6zm47.463 28.926c0 21.476-5.862 30.776-20.426 30.776-13.58 0-19.605-9.456-19.605-31.07 0-20.764 6.701-29.71 20.156-29.71 13.814 0 19.875 9.617 19.875 30.004zm-25.97-.29c0 14.465 1.305 20.484 5.927 20.484 4.876 0 5.981-5.599 5.981-20.485 0-13.909-1.161-19.074-5.981-19.074-4.643 0-5.926 5.416-5.926 19.074zm33.154 29.963v-58.6h14.733c8.908 27.62 10.977 34.26 11.58 36.935h.239c-.582-7.373-.765-17.03-.765-26.175v-10.76h11.89v58.6h-14.517c-9.255-30.459-10.993-36.362-11.652-38.895h-.27c.464 7.05.708 17.905.708 27.491v11.404z"/></svg>