<svg xmlns="http://www.w3.org/2000/svg" id="Layer_1" data-name="Layer 1" viewBox="0 0 939 91"><defs><style>.cls-1{fill:#fff}</style></defs><path class="cls-1" d="M27.02 15.771h13.466v47.663H59.08L57.824 74.37H27.02zM100.706 44.7c0 21.475-5.862 30.775-20.426 30.775-13.58 0-19.605-9.456-19.605-31.07 0-20.763 6.701-29.709 20.156-29.709 13.814 0 19.875 9.616 19.875 30.004zm-25.97-.29c0 14.464 1.305 20.484 5.926 20.484 4.877 0 5.982-5.6 5.982-20.485 0-13.91-1.162-19.075-5.982-19.075-4.642 0-5.925 5.417-5.925 19.075zm71.956.29c0 21.475-5.86 30.775-20.425 30.775-13.58 0-19.605-9.456-19.605-31.07 0-20.763 6.7-29.709 20.156-29.709 13.814 0 19.874 9.616 19.874 30.004zm-25.968-.29c0 14.464 1.304 20.484 5.925 20.484 4.877 0 5.982-5.6 5.982-20.485 0-13.91-1.162-19.075-5.982-19.075-4.642 0-5.925 5.417-5.925 19.075zm33.153-28.638h13.14v24.437c2.824-5.969 8.482-17.853 11.932-24.437h14.897l-13.198 22.95 13.459 35.65h-14.682l-8.263-24.063-4.145 6.313v17.75h-13.14zm57.284 0v58.6h-13.466v-58.6zm9.006 58.6v-58.6H234.9c8.909 27.62 10.977 34.26 11.58 36.936h.24c-.582-7.373-.765-17.031-.765-26.176v-10.76h11.89v58.6h-14.517c-9.256-30.459-10.994-36.362-11.653-38.895h-.27c.465 7.05.709 17.905.709 27.49v11.405zm83.876 0h-9.896a39.77 39.77 0 0 1-.49-4.625c-2.534 4.56-6.903 5.728-11.508 5.728-11.69 0-17.048-8.768-17.048-30.03 0-23.217 8.011-30.718 20.798-30.718 16.558 0 17.883 13.09 18.027 17.66H290.45c-.142-2.857-.542-7.053-4.99-7.053-5.019 0-6.241 6.565-6.241 20.202 0 14.091 1.2 19.358 6.043 19.358 4.088 0 5.31-3.428 5.31-9.745v-3.75h-5.76V40.826h19.231zm22.59-58.6h31.716v10.985H339.98v12.626h17.208v10.903h-17.208v24.086h-13.348zm76.46 28.928c0 21.475-5.862 30.775-20.426 30.775-13.58 0-19.604-9.456-19.604-31.07 0-20.763 6.7-29.709 20.156-29.709 13.813 0 19.874 9.616 19.874 30.004zm-25.969-.29c0 14.464 1.305 20.484 5.926 20.484 4.876 0 5.981-5.6 5.981-20.485 0-13.91-1.16-19.075-5.981-19.075-4.643 0-5.926 5.417-5.926 19.075zm46.441 5.984V74.37h-13.287v-58.6h19.79c11.304 0 17.065 5.616 17.065 16.227 0 8.113-3.99 11.91-7.52 13.309 4.583 2.047 6.747 5.813 6.747 14.242v2.039a91.457 91.457 0 0 0 .63 12.783h-13.063c-.686-2.263-.92-7.476-.92-13.205v-2.018c0-6.93-1.396-8.755-6.542-8.755zm.032-10.082h3.12c5.033 0 6.975-1.82 6.975-7.547 0-4.83-1.703-6.94-6.122-6.94h-3.973zm37.307 34.06l-9.706-58.6h14.187c1.248 10.895 3.15 29.787 3.804 40.256h.332c1.634-11.452 4.268-27.912 6.128-40.256h11.377c1.657 10.711 4.316 28.131 5.783 39.832h.417c.935-11.507 3.18-30.865 4.117-39.832h13.104l-10.46 58.6h-13.542c-1.712-10.299-4.182-23.283-5.617-35.02h-.356c-1.462 11.55-4.193 24.965-5.905 35.02zm63.287-12.543l-1.994 12.543h-13.466l11.561-58.6h18.924l11.708 58.6h-13.986l-2.055-12.543zm8.909-11.324c-1.33-8.55-2.613-18.088-3.354-23.475h-.443c-.573 5.62-2.004 14.92-3.39 23.475zm35.543-.111V74.37h-13.288v-58.6h19.79c11.304 0 17.065 5.616 17.065 16.227 0 8.113-3.99 11.91-7.52 13.309 4.583 2.047 6.747 5.813 6.747 14.242v2.039a91.457 91.457 0 0 0 .63 12.783h-13.063c-.686-2.263-.92-7.476-.92-13.205v-2.018c0-6.93-1.396-8.755-6.542-8.755zm.03-10.082h3.12c5.034 0 6.977-1.82 6.977-7.547 0-4.83-1.704-6.94-6.123-6.94h-3.973zm30.5-24.54h16.74c15.293 0 21.534 8.683 21.534 28.172 0 20.76-6.159 30.428-22.011 30.428h-16.262zm13.523 48.37h2.5c6.266 0 8.103-4.42 8.103-20.41 0-13.383-1.652-17.618-8.016-17.618h-2.587zm54.581-37.354h-11.555V15.771h36.486v11.016h-11.494v47.584h-13.437zm67.36 17.912c0 21.475-5.86 30.775-20.425 30.775-13.58 0-19.605-9.456-19.605-31.07 0-20.763 6.702-29.709 20.157-29.709 13.813 0 19.874 9.616 19.874 30.004zm-25.968-.29c0 14.464 1.305 20.484 5.926 20.484 4.876 0 5.981-5.6 5.981-20.485 0-13.91-1.161-19.075-5.981-19.075-4.643 0-5.926 5.417-5.926 19.075zm45.654 29.962v-.728c.057-10.875 3.917-17.135 12.66-27.007 6.118-6.98 7.414-8.675 7.414-14.32 0-3.409-.537-5.89-3.714-5.89-3.405 0-4.15 2.953-4.263 8.603H754.2c.057-9.264 3.479-18.425 17.01-18.425 12.018 0 16.465 6.822 16.465 16.42 0 6.873-1.75 10.58-8.947 18.272-4.733 5.08-8.045 8.995-9.164 12.315H789l-1.597 10.76zm74.186-28.953c0 24.563-7.467 29.826-17.92 29.826-10.246 0-17.708-5.459-17.708-30.008 0-24.8 8.904-28.632 17.94-28.632 9.403 0 17.688 4.342 17.688 28.814zm-22.457-.342c0 14.926.373 20.121 4.655 20.121 4.196 0 4.57-5.18 4.57-20.008 0-14.918-.338-18.482-4.57-18.482-3.884 0-4.655 4.121-4.655 18.37zm27.75 29.295v-.728c.057-10.875 3.918-17.135 12.66-27.007 6.118-6.98 7.415-8.675 7.415-14.32 0-3.409-.537-5.89-3.715-5.89-3.404 0-4.15 2.953-4.263 8.603h-12.218c.056-9.264 3.478-18.425 17.01-18.425 12.018 0 16.464 6.822 16.464 16.42 0 6.873-1.749 10.58-8.947 18.272-4.732 5.08-8.045 8.995-9.163 12.315h19.434l-1.597 10.76zm74.187-28.953c0 24.563-7.467 29.826-17.919 29.826-10.247 0-17.709-5.459-17.709-30.008 0-24.8 8.905-28.632 17.94-28.632 9.403 0 17.688 4.342 17.688 28.814zm-22.457-.342c0 14.926.373 20.121 4.656 20.121 4.196 0 4.569-5.18 4.569-20.008 0-14.918-.338-18.482-4.57-18.482-3.883 0-4.655 4.121-4.655 18.37z"/></svg>