<svg xmlns="http://www.w3.org/2000/svg" id="Layer_1" data-name="Layer 1" viewBox="0 0 647 91"><defs><style>.cls-1{fill:#fff}</style></defs><path class="cls-1" d="M22.437 75.025l-9.706-58.6h14.186c1.248 10.895 3.15 29.787 3.805 40.257h.33c1.636-11.453 4.27-27.913 6.13-40.256H48.56c1.656 10.71 4.316 28.13 5.782 39.83h.417c.936-11.506 3.181-30.863 4.117-39.83H71.98l-10.46 58.6H47.978c-1.712-10.3-4.182-23.284-5.618-35.02h-.356c-1.462 11.548-4.191 24.965-5.904 35.02zm85.309-24.837H90.002v13.965h20.087l-1.572 10.872H76.801v-58.6h31.751v11.016h-18.55V39.23h17.744zm34.292 12.294l-1.994 12.543h-13.466l11.561-58.6h18.923l11.709 58.6h-13.987l-2.055-12.543zm8.909-11.325c-1.33-8.55-2.613-18.087-3.355-23.474h-.443c-.572 5.619-2.003 14.92-3.39 23.474zm35.543-.11v23.978h-13.288v-58.6h19.79c11.304 0 17.065 5.615 17.065 16.227 0 8.114-3.99 11.91-7.52 13.308 4.583 2.048 6.748 5.814 6.748 14.243v2.038a91.51 91.51 0 0 0 .629 12.784H196.85c-.685-2.262-.92-7.476-.92-13.206v-2.016c0-6.93-1.395-8.756-6.541-8.756zm.03-10.082h3.12c5.034 0 6.976-1.82 6.976-7.548 0-4.83-1.703-6.94-6.121-6.94h-3.974zm61.444 9.223h-17.743v13.965h20.087l-1.572 10.872H217.02v-58.6h31.751v11.016h-18.55V39.23h17.743zm53.798 0h-17.743v13.965h20.085l-1.57 10.872h-31.717v-58.6h31.751v11.016h-18.55V39.23h17.744zm32.011 24.837l-6.053-20.551h-.21l-6.349 20.551h-13.92l11.954-29.815-11.613-28.784h14.938l5.62 18.403.239-.056 5.69-18.347h13.83l-11.627 27.503 12.439 31.096zm18.434-58.6h19.229c10.171 0 17.482 5.632 17.482 17.763 0 12.244-6.556 17.961-18.08 17.961h-5.257v22.876h-13.374zm13.374 25.424h3.498c4.64 0 6.403-2.263 6.403-7.773 0-5.453-2.34-7.538-6.127-7.538h-3.774zm37.545 20.633l-1.994 12.543h-13.466l11.56-58.6h18.924l11.708 58.6h-13.986l-2.055-12.543zm8.908-11.325c-1.33-8.55-2.612-18.087-3.353-23.474h-.444c-.572 5.619-2.004 14.92-3.39 23.474zm22.257 23.868v-58.6h14.732c8.909 27.62 10.978 34.26 11.58 36.935h.24c-.582-7.373-.765-17.03-.765-26.174v-10.76h11.89v58.6h-14.517c-9.255-30.46-10.993-36.363-11.652-38.896h-.27c.464 7.05.708 17.905.708 27.491v11.404zm46.508-58.6h16.738c15.294 0 21.535 8.683 21.535 28.173 0 20.76-6.159 30.427-22.011 30.427h-16.262zm13.522 48.37h2.5c6.266 0 8.103-4.421 8.103-20.411 0-13.382-1.652-17.616-8.016-17.616h-2.587zm45.325-48.37v58.6H526.18v-58.6zm9.005 58.6v-58.6h14.733c8.908 27.62 10.977 34.26 11.58 36.935h.24c-.583-7.373-.766-17.03-.766-26.174v-10.76h11.891v58.6h-14.517c-9.255-30.46-10.994-36.363-11.653-38.896h-.27c.465 7.05.709 17.905.709 27.491v11.404zm83.877 0h-9.897a40.247 40.247 0 0 1-.49-4.625c-2.534 4.56-6.903 5.728-11.506 5.728-11.693 0-17.05-8.768-17.05-30.03 0-23.217 8.013-30.718 20.8-30.718 16.557 0 17.883 13.09 18.025 17.66h-13.474c-.144-2.856-.542-7.053-4.99-7.053-5.02 0-6.242 6.566-6.242 20.202 0 14.091 1.201 19.357 6.042 19.357 4.089 0 5.31-3.427 5.31-9.743v-3.75h-5.76V41.48h19.232z"/></svg>