<svg xmlns="http://www.w3.org/2000/svg" id="Layer_1" data-name="Layer 1" viewBox="0 0 623 91"><defs><style>.cls-1{fill:#fff}</style></defs><path class="cls-1" d="M44.566 50.118H26.823v13.965h20.086l-1.572 10.872H13.622v-58.6h31.75v11.016h-18.55V39.16h17.744zm7.928 24.837v-58.6h14.733c8.909 27.62 10.978 34.26 11.58 36.935h.24c-.582-7.373-.765-17.03-.765-26.175v-10.76h11.89v58.6H75.655C66.4 44.496 64.661 38.593 64.002 36.06h-.27c.465 7.05.709 17.905.709 27.49v11.405zm46.508-58.6h16.74c15.293 0 21.534 8.683 21.534 28.172 0 20.76-6.159 30.428-22.011 30.428H99.002zm13.523 48.37h2.5c6.266 0 8.102-4.421 8.102-20.412 0-13.381-1.65-17.616-8.015-17.616h-2.587zm59.67-48.37v41.03c0 3.817.798 8.12 5.557 8.12 4.591 0 5.44-3.71 5.44-8.063V16.355h13.527v40.65c0 11.933-5.841 19.053-19.262 19.053-13.582 0-18.728-7.056-18.728-19.17V16.356zm43.49 41.634c.338 4.813 1.709 8.124 5.731 8.124 3.91 0 5.163-2.63 5.163-5.962 0-4.054-2.038-6.44-8.932-9.972-10.178-5.255-14.023-9.69-14.023-18.303 0-10.023 6.127-16.598 17.736-16.598 13.654 0 17.562 8.533 17.674 17.532h-12.962c-.225-4.08-.97-7.587-4.794-7.587-2.996 0-4.335 1.942-4.335 5.212 0 3.356 1.309 5.086 7.681 8.271 10.862 5.469 15.473 10.095 15.473 19.947 0 9.686-5.662 17.405-18.815 17.405-14.25 0-18.598-8.12-18.884-18.069zm61.682-7.87h-17.743v13.964h20.086l-1.571 10.872h-31.717v-58.6h31.752v11.016h-18.55V39.16h17.743zm21.216.858v23.978h-13.287v-58.6h19.789c11.305 0 17.065 5.615 17.065 16.227 0 8.113-3.99 11.91-7.52 13.308 4.584 2.047 6.748 5.814 6.748 14.243v2.038a91.485 91.485 0 0 0 .629 12.784h-13.063c-.685-2.263-.92-7.476-.92-13.206v-2.017c0-6.93-1.395-8.755-6.542-8.755zm.031-10.082h3.12c5.034 0 6.976-1.82 6.976-7.548 0-4.83-1.703-6.94-6.122-6.94h-3.974zm56.604 21.517l-1.994 12.543h-13.466l11.56-58.6h18.924l11.708 58.6h-13.986l-2.055-12.543zm8.908-11.325c-1.33-8.55-2.612-18.087-3.354-23.475h-.443c-.572 5.62-2.004 14.921-3.39 23.475zm26.202 23.868l-9.706-58.6h14.187c1.248 10.895 3.15 29.787 3.804 40.256h.331c1.635-11.452 4.269-27.913 6.13-40.256h11.376c1.656 10.711 4.317 28.13 5.782 39.832h.417c.936-11.507 3.181-30.865 4.118-39.832h13.104l-10.46 58.6h-13.542c-1.712-10.299-4.182-23.283-5.617-35.02h-.356c-1.462 11.548-4.193 24.965-5.905 35.02zm63.287-12.543l-1.994 12.543h-13.466l11.56-58.6h18.925l11.708 58.6H466.36l-2.054-12.543zm8.908-11.325c-1.33-8.55-2.612-18.087-3.353-23.475h-.443c-.573 5.62-2.004 14.921-3.39 23.475zm35.544-.11v23.978H484.78v-58.6h19.79c11.304 0 17.065 5.615 17.065 16.227 0 8.113-3.99 11.91-7.52 13.308 4.583 2.047 6.747 5.814 6.747 14.243v2.038a91.485 91.485 0 0 0 .63 12.784h-13.063c-.686-2.263-.92-7.476-.92-13.206v-2.017c0-6.93-1.396-8.755-6.542-8.755zm.032-10.082h3.119c5.034 0 6.976-1.82 6.976-7.548 0-4.83-1.703-6.94-6.122-6.94H498.1zm30.499-24.54h16.738c15.294 0 21.535 8.683 21.535 28.172 0 20.76-6.16 30.428-22.012 30.428h-16.261zm13.522 48.37h2.5c6.266 0 8.103-4.421 8.103-20.412 0-13.381-1.652-17.616-8.016-17.616h-2.587zm42.509-6.736c.338 4.813 1.707 8.124 5.73 8.124 3.91 0 5.162-2.63 5.162-5.962 0-4.054-2.038-6.44-8.93-9.972-10.18-5.255-14.024-9.69-14.024-18.303 0-10.023 6.126-16.598 17.736-16.598 13.654 0 17.561 8.533 17.675 17.532h-12.962c-.226-4.08-.972-7.587-4.795-7.587-2.995 0-4.335 1.942-4.335 5.212 0 3.356 1.308 5.086 7.681 8.271 10.862 5.469 15.473 10.095 15.473 19.947 0 9.686-5.662 17.405-18.814 17.405-14.25 0-18.6-8.12-18.885-18.069z"/></svg>