<svg xmlns="http://www.w3.org/2000/svg" id="Layer_1" data-name="Layer 1" viewBox="0 0 885 91"><defs><style>.cls-1{fill:#fff}</style></defs><path class="cls-1" d="M57.354 56.24c-.169 6.064-2.338 19.468-18.66 19.468-16.19 0-19.583-11.793-19.583-30.494 0-21.205 6.728-30.254 20.13-30.254 15.636 0 17.944 11.96 18.113 18.95H43.939c-.112-3.276-.2-8.343-4.902-8.343-4.617 0-5.808 5.353-5.808 19.694 0 12.589.706 19.952 5.639 19.952 4.59 0 4.877-5.458 5.046-8.973zm44.738-11.307c0 21.475-5.862 30.775-20.426 30.775-13.58 0-19.604-9.456-19.604-31.07 0-20.764 6.7-29.71 20.155-29.71 13.814 0 19.875 9.617 19.875 30.005zm-25.969-.291c0 14.465 1.305 20.484 5.925 20.484 4.877 0 5.982-5.599 5.982-20.484 0-13.91-1.161-19.075-5.982-19.075-4.642 0-5.925 5.416-5.925 19.075zm68.848 11.193c0-9.104.143-21.225.317-28.299h-.383c-1.721 12.222-4.163 32.032-6.802 47.07h-10.88c-2.05-15.642-4.487-35.362-6.096-47.212h-.439c.287 6.885.547 18.73.547 28.882v18.33h-11.846v-58.6h18.954c1.928 12.231 3.85 26.94 4.734 35.155h.27c1.123-8.726 3.328-21.454 5.53-35.155h18.765v58.6h-12.671zm57.093 0c0-9.104.144-21.225.317-28.299H202c-1.722 12.222-4.164 32.032-6.802 47.07h-10.88c-2.05-15.642-4.487-35.362-6.096-47.212h-.439c.286 6.885.547 18.73.547 28.882v18.33h-11.846v-58.6h18.954c1.928 12.231 3.85 26.94 4.734 35.155h.27c1.123-8.726 3.328-21.454 5.53-35.155h18.765v58.6h-12.672zm34.202-39.83v41.031c0 3.817.797 8.12 5.557 8.12 4.59 0 5.44-3.71 5.44-8.063V16.006h13.527v40.65c0 11.933-5.842 19.052-19.263 19.052-13.582 0-18.727-7.056-18.727-19.169V16.006zm32.492 58.6v-58.6h14.732c8.908 27.62 10.978 34.26 11.58 36.935h.24c-.582-7.373-.765-17.03-.765-26.174v-10.76h11.89v58.6h-14.517c-9.255-30.46-10.993-36.363-11.652-38.896h-.27c.464 7.05.708 17.905.708 27.491v11.404zm59.974-58.6v58.6h-13.465v-58.6zm16.807 11.016h-11.556V16.006h36.487V27.02h-11.494v47.584h-13.437zm41.979 47.584v-19.02a7.132 7.132 0 0 0-.465-2.697l-13.746-36.882h14.859c2.423 8.842 5.123 19.022 6.554 26.223 1.62-6.636 4.534-17.602 6.7-26.223h13.922l-13.95 37.024a7.084 7.084 0 0 0-.378 2.327v19.248zm77.045-24.836H446.82v13.964h20.086l-1.571 10.872h-31.716v-58.6h31.751v11.016h-18.55V38.81h17.743zm7.93 24.836v-58.6h14.732c8.908 27.62 10.977 34.26 11.58 36.935h.239c-.582-7.373-.765-17.03-.765-26.174v-10.76h11.89v58.6h-14.517C486.397 44.145 484.66 38.242 484 35.71h-.27c.464 7.05.708 17.905.708 27.491v11.405zm83.875 0h-9.897a40.245 40.245 0 0 1-.49-4.625c-2.534 4.56-6.903 5.728-11.506 5.728-11.693 0-17.05-8.768-17.05-30.03 0-23.217 8.013-30.718 20.8-30.718 16.557 0 17.882 13.09 18.025 17.66h-13.475c-.143-2.856-.542-7.053-4.99-7.053-5.02 0-6.241 6.566-6.241 20.203 0 14.09 1.201 19.356 6.042 19.356 4.089 0 5.31-3.427 5.31-9.743v-3.75h-5.76V41.06h19.232zm19.972-12.543l-1.994 12.544H560.88l11.56-58.6h18.924l11.708 58.6h-13.986l-2.055-12.543zm8.908-11.325c-1.33-8.55-2.612-18.087-3.353-23.474h-.444c-.572 5.619-2.004 14.92-3.39 23.474zm59.54 23.868h-9.898a40.245 40.245 0 0 1-.49-4.625c-2.534 4.56-6.903 5.728-11.506 5.728-11.693 0-17.05-8.768-17.05-30.03 0-23.217 8.012-30.718 20.8-30.718 16.557 0 17.882 13.09 18.025 17.66h-13.475c-.143-2.856-.542-7.053-4.99-7.053-5.02 0-6.241 6.566-6.241 20.203 0 14.09 1.201 19.356 6.042 19.356 4.089 0 5.31-3.427 5.31-9.743v-3.75h-5.76V41.06h19.232zm38.867-24.836h-17.743v13.964h20.086l-1.571 10.872H652.71v-58.6h31.75v11.016h-18.549V38.81h17.743zm43.277 6.066c0-9.104.142-21.225.316-28.299h-.383c-1.721 12.222-4.163 32.032-6.802 47.07h-10.88c-2.05-15.642-4.487-35.362-6.096-47.212h-.439c.287 6.885.547 18.73.547 28.882v18.33H691.35v-58.6h18.954c1.928 12.231 3.85 26.94 4.733 35.155h.27c1.124-8.726 3.329-21.454 5.53-35.155h18.766v58.6h-12.671zm52.343-6.066h-17.743v13.964h20.086l-1.571 10.872H748.33v-58.6h31.751v11.016h-18.55V38.81h17.743zm7.93 24.836v-58.6h14.732c8.908 27.62 10.977 34.26 11.58 36.935h.239c-.582-7.373-.765-17.03-.765-26.174v-10.76h11.89v58.6h-14.517c-9.255-30.46-10.993-36.363-11.652-38.896h-.27c.464 7.05.708 17.905.708 27.491v11.404zm54.308-47.584h-11.556V16.006h36.486V27.02H854.95v47.584h-13.436z"/></svg>