<svg xmlns="http://www.w3.org/2000/svg" id="Layer_1" data-name="Layer 1" viewBox="0 0 1105 378"><defs><style>.cls-1{fill:#fff}</style></defs><path class="cls-1" d="M48.502 241.774L17 51.918h45.848c3.937 35.16 10.125 96.475 12.374 130.508h1.126C81.692 145.3 90.13 91.856 96.036 51.918h37.129c5.343 34.596 13.782 91.13 18.562 129.101h1.407c3.094-37.408 10.407-100.13 13.5-129.1h42.191l-33.751 189.855h-43.879c-5.625-33.47-13.5-75.66-18.282-113.632h-1.125c-4.782 37.409-13.501 81.005-19.126 113.632zm283.505-80.442h-57.659v45.283h65.254l-5.062 35.16H231.594V51.917H334.54v35.72h-60.192v37.972h57.66zm33.46-109.414h43.596v154.417h60.192l-3.937 35.44h-99.852zM605.94 182.146c-.562 19.687-7.595 63.284-60.474 63.284-52.597 0-63.566-38.252-63.566-99.007 0-68.629 21.657-97.88 65.254-97.88 50.63 0 58.224 38.815 58.786 61.315h-43.597c-.282-10.687-.562-27.002-15.75-27.002s-18.846 17.44-18.846 63.85c0 40.784 2.25 64.69 18.282 64.69 14.908 0 15.752-17.718 16.314-29.25zm152.156-36.566c0 69.755-18.845 99.85-66.099 99.85-44.158 0-63.566-30.658-63.566-100.693 0-67.506 21.657-96.474 65.254-96.474 44.722 0 64.41 31.22 64.41 97.317zm-84.1-.843c0 46.69 4.22 66.38 19.127 66.38 15.75 0 19.408-18.284 19.408-66.38 0-45.286-3.657-61.881-19.408-61.881-14.907 0-19.127 17.44-19.127 61.88zm229.223 36.282c0-29.531.563-68.909 1.126-91.975h-1.126c-5.625 39.661-13.501 104.071-22.22 152.73h-35.158c-6.751-50.628-14.627-114.758-19.689-153.01h-1.406c.843 22.22 1.688 60.755 1.688 93.662v59.348H787.9V51.918h61.598c6.188 39.658 12.376 87.194 15.189 113.913h.844c3.656-28.408 10.969-69.473 18.001-113.913h60.754v189.856H903.22zm177.186-19.687h-57.66v45.283H1088l-5.062 35.16H979.993V51.917h102.945v35.72h-60.192v37.972h57.66z"/><path class="cls-1" d="M24.083 293.829H1083.164V315.798H24.083z"/></svg>