<svg fill="none" height="701" viewBox="0 0 1221 701" width="1221" xmlns="http://www.w3.org/2000/svg"><path d="m531.216 690.63v-8.864h-2.368v10.992h7.84v-2.128zm13.382 2.32c3.168 0 5.824-2.608 5.824-5.696s-2.656-5.68-5.824-5.68-5.856 2.592-5.856 5.68 2.688 5.696 5.856 5.696zm0-2.144c-1.856 0-3.424-1.632-3.424-3.552 0-1.904 1.568-3.536 3.424-3.536 1.84 0 3.408 1.632 3.408 3.536 0 1.92-1.568 3.552-3.408 3.552zm13.604-2.384h2.544v1.68c-.608.448-1.392.704-2.128.704-1.888 0-3.472-1.632-3.472-3.552 0-1.904 1.584-3.536 3.472-3.536 1.008 0 2.064.48 2.72 1.232l1.712-1.536c-1.088-1.152-2.8-1.84-4.432-1.84-3.2 0-5.904 2.592-5.904 5.68s2.704 5.696 5.904 5.696c1.632 0 3.344-.688 4.432-1.84v-4.528h-4.848zm15.951 4.336h2.656l-4.48-10.992h-2.64l-4.48 10.992h2.64l.768-1.888h4.768zm-4.784-3.728 1.632-4.016 1.632 4.016zm19.127-3.552c0-2.176-1.744-3.712-4.144-3.712h-4.944v10.992h2.368v-3.568h1.424l2.512 3.568h2.688l-2.64-3.76c1.648-.48 2.736-1.792 2.736-3.52zm-6.72-1.552h2.336c1.168 0 1.968.608 1.968 1.552s-.8 1.552-1.968 1.552h-2.336zm9.697 8.832h2.368v-10.992h-2.368zm8.501 0h2.352v-8.864h3.44v-2.128h-9.216v2.128h3.424zm15.85-10.992v4.32h-5.008v-4.32h-2.368v10.992h2.368v-4.544h5.008v4.544h2.352v-10.992zm5.956 10.992h2.368v-6.848l3.392 6.208 3.408-6.208v6.848h2.352v-10.992h-2.352l-3.408 6.208-3.392-6.208h-2.368zm15.112 0h2.368v-10.992h-2.368zm11.156.192c1.664 0 3.184-.72 4.256-1.84l-1.712-1.536c-.624.736-1.536 1.232-2.544 1.232-1.856 0-3.424-1.632-3.424-3.552 0-1.904 1.568-3.536 3.424-3.536.992 0 1.92.496 2.544 1.232l1.712-1.536c-1.072-1.136-2.592-1.84-4.256-1.84-3.168 0-5.856 2.592-5.856 5.68s2.688 5.696 5.856 5.696zm17.319 0c1.664 0 3.184-.72 4.256-1.84l-1.712-1.536c-.624.736-1.536 1.232-2.544 1.232-1.856 0-3.424-1.632-3.424-3.552 0-1.904 1.568-3.536 3.424-3.536.992 0 1.92.496 2.544 1.232l1.712-1.536c-1.072-1.136-2.592-1.84-4.256-1.84-3.168 0-5.856 2.592-5.856 5.68s2.688 5.696 5.856 5.696zm12.159 0c3.168 0 5.824-2.608 5.824-5.696s-2.656-5.68-5.824-5.68-5.856 2.592-5.856 5.68 2.688 5.696 5.856 5.696zm0-2.144c-1.856 0-3.424-1.632-3.424-3.552 0-1.904 1.568-3.536 3.424-3.536 1.84 0 3.408 1.632 3.408 3.536 0 1.92-1.568 3.552-3.408 3.552zm8.772 1.952h2.368v-6.848l3.392 6.208 3.408-6.208v6.848h2.352v-10.992h-2.352l-3.408 6.208-3.392-6.208h-2.368zm15.113 0h2.368v-6.848l3.392 6.208 3.408-6.208v6.848h2.352v-10.992h-2.352l-3.408 6.208-3.392-6.208h-2.368zm15.112 0h2.368v-10.992h-2.368zm8.501 0h2.352v-8.864h3.44v-2.128h-9.216v2.128h3.424zm12.538.192c2.672 0 4.272-1.392 4.272-3.488 0-2.032-1.568-2.736-3.936-3.264-1.696-.384-2.368-.64-2.368-1.44 0-.656.624-1.184 1.616-1.184 1.056 0 2.16.432 3.152 1.232l1.232-1.712c-1.136-.96-2.512-1.52-4.304-1.52-2.416 0-4.08 1.392-4.08 3.424 0 2.128 1.664 2.784 3.984 3.312 1.68.384 2.32.624 2.32 1.408 0 .688-.608 1.232-1.808 1.232-1.392 0-2.576-.544-3.616-1.44l-1.344 1.616c1.28 1.184 2.96 1.824 4.88 1.824z" fill="#000"/><path d="m531.216 690.63v-8.864h-2.368v10.992h7.84v-2.128zm13.382 2.32c3.168 0 5.824-2.608 5.824-5.696s-2.656-5.68-5.824-5.68-5.856 2.592-5.856 5.68 2.688 5.696 5.856 5.696zm0-2.144c-1.856 0-3.424-1.632-3.424-3.552 0-1.904 1.568-3.536 3.424-3.536 1.84 0 3.408 1.632 3.408 3.536 0 1.92-1.568 3.552-3.408 3.552zm13.604-2.384h2.544v1.68c-.608.448-1.392.704-2.128.704-1.888 0-3.472-1.632-3.472-3.552 0-1.904 1.584-3.536 3.472-3.536 1.008 0 2.064.48 2.72 1.232l1.712-1.536c-1.088-1.152-2.8-1.84-4.432-1.84-3.2 0-5.904 2.592-5.904 5.68s2.704 5.696 5.904 5.696c1.632 0 3.344-.688 4.432-1.84v-4.528h-4.848zm15.951 4.336h2.656l-4.48-10.992h-2.64l-4.48 10.992h2.64l.768-1.888h4.768zm-4.784-3.728 1.632-4.016 1.632 4.016zm19.127-3.552c0-2.176-1.744-3.712-4.144-3.712h-4.944v10.992h2.368v-3.568h1.424l2.512 3.568h2.688l-2.64-3.76c1.648-.48 2.736-1.792 2.736-3.52zm-6.72-1.552h2.336c1.168 0 1.968.608 1.968 1.552s-.8 1.552-1.968 1.552h-2.336zm9.697 8.832h2.368v-10.992h-2.368zm8.501 0h2.352v-8.864h3.44v-2.128h-9.216v2.128h3.424zm15.85-10.992v4.32h-5.008v-4.32h-2.368v10.992h2.368v-4.544h5.008v4.544h2.352v-10.992zm5.956 10.992h2.368v-6.848l3.392 6.208 3.408-6.208v6.848h2.352v-10.992h-2.352l-3.408 6.208-3.392-6.208h-2.368zm15.112 0h2.368v-10.992h-2.368zm11.156.192c1.664 0 3.184-.72 4.256-1.84l-1.712-1.536c-.624.736-1.536 1.232-2.544 1.232-1.856 0-3.424-1.632-3.424-3.552 0-1.904 1.568-3.536 3.424-3.536.992 0 1.92.496 2.544 1.232l1.712-1.536c-1.072-1.136-2.592-1.84-4.256-1.84-3.168 0-5.856 2.592-5.856 5.68s2.688 5.696 5.856 5.696zm17.319 0c1.664 0 3.184-.72 4.256-1.84l-1.712-1.536c-.624.736-1.536 1.232-2.544 1.232-1.856 0-3.424-1.632-3.424-3.552 0-1.904 1.568-3.536 3.424-3.536.992 0 1.92.496 2.544 1.232l1.712-1.536c-1.072-1.136-2.592-1.84-4.256-1.84-3.168 0-5.856 2.592-5.856 5.68s2.688 5.696 5.856 5.696zm12.159 0c3.168 0 5.824-2.608 5.824-5.696s-2.656-5.68-5.824-5.68-5.856 2.592-5.856 5.68 2.688 5.696 5.856 5.696zm0-2.144c-1.856 0-3.424-1.632-3.424-3.552 0-1.904 1.568-3.536 3.424-3.536 1.84 0 3.408 1.632 3.408 3.536 0 1.92-1.568 3.552-3.408 3.552zm8.772 1.952h2.368v-6.848l3.392 6.208 3.408-6.208v6.848h2.352v-10.992h-2.352l-3.408 6.208-3.392-6.208h-2.368zm15.113 0h2.368v-6.848l3.392 6.208 3.408-6.208v6.848h2.352v-10.992h-2.352l-3.408 6.208-3.392-6.208h-2.368zm15.112 0h2.368v-10.992h-2.368zm8.501 0h2.352v-8.864h3.44v-2.128h-9.216v2.128h3.424zm12.538.192c2.672 0 4.272-1.392 4.272-3.488 0-2.032-1.568-2.736-3.936-3.264-1.696-.384-2.368-.64-2.368-1.44 0-.656.624-1.184 1.616-1.184 1.056 0 2.16.432 3.152 1.232l1.232-1.712c-1.136-.96-2.512-1.52-4.304-1.52-2.416 0-4.08 1.392-4.08 3.424 0 2.128 1.664 2.784 3.984 3.312 1.68.384 2.32.624 2.32 1.408 0 .688-.608 1.232-1.808 1.232-1.392 0-2.576-.544-3.616-1.44l-1.344 1.616c1.28 1.184 2.96 1.824 4.88 1.824z" fill="#000" fill-opacity=".2"/><path d="m18 384.143v-2.368h-3.568v-2.576c0-2.4-1.536-4.144-3.712-4.144s-3.712 1.744-3.712 4.144v4.944zm-5.728-2.368h-3.104v-2.336c0-1.168.608-1.968 1.552-1.968s1.552.8 1.552 1.968zm-1.552-18.645c-2.176 0-3.712 1.744-3.712 4.144v4.944h10.992v-2.368h-3.568v-1.424l3.568-2.512v-2.688l-3.76 2.64c-.48-1.648-1.792-2.736-3.52-2.736zm-1.552 6.72v-2.336c0-1.168.608-1.968 1.552-1.968s1.552.8 1.552 1.968v2.336zm9.024-13.762c0-2.672-1.392-4.272-3.488-4.272-2.032 0-2.736 1.568-3.264 3.936-.384 1.696-.64 2.368-1.44 2.368-.656 0-1.184-.624-1.184-1.616 0-1.056.432-2.16 1.232-3.152l-1.712-1.232c-.96 1.136-1.52 2.512-1.52 4.304 0 2.416 1.392 4.08 3.424 4.08 2.128 0 2.784-1.664 3.312-3.984.384-1.68.624-2.32 1.408-2.32.688 0 1.232.608 1.232 1.808 0 1.392-.544 2.576-1.44 3.616l1.616 1.344c1.184-1.28 1.824-2.96 1.824-4.88zm-6.48-19.629v2.848h-2.912v2.016h2.912v2.864h1.904v-2.864h2.912v-2.016h-2.912v-2.848zm6.288-8.304v-2.368h-10.992v2.368zm.192-10.02c0-2.672-1.392-4.272-3.488-4.272-2.032 0-2.736 1.568-3.264 3.936-.384 1.696-.64 2.368-1.44 2.368-.656 0-1.184-.624-1.184-1.616 0-1.056.432-2.16 1.232-3.152l-1.712-1.232c-.96 1.136-1.52 2.512-1.52 4.304 0 2.416 1.392 4.08 3.424 4.08 2.128 0 2.784-1.664 3.312-3.984.384-1.68.624-2.32 1.408-2.32.688 0 1.232.608 1.232 1.808 0 1.392-.544 2.576-1.44 3.616l1.616 1.344c1.184-1.28 1.824-2.96 1.824-4.88zm0-11.237c0-2.672-1.392-4.272-3.488-4.272-2.032 0-2.736 1.568-3.264 3.936-.384 1.696-.64 2.368-1.44 2.368-.656 0-1.184-.624-1.184-1.616 0-1.056.432-2.16 1.232-3.152l-1.712-1.232c-.96 1.136-1.52 2.512-1.52 4.304 0 2.416 1.392 4.08 3.424 4.08 2.128 0 2.784-1.664 3.312-3.984.384-1.68.624-2.32 1.408-2.32.688 0 1.232.608 1.232 1.808 0 1.392-.544 2.576-1.44 3.616l1.616 1.344c1.184-1.28 1.824-2.96 1.824-4.88zm0-11.91c0-2.912-2.048-4.976-4.944-4.976h-6.24v2.368h6.144c1.696 0 2.896 1.088 2.896 2.608 0 1.536-1.2 2.624-2.896 2.624h-6.144v2.352h6.24c2.896 0 4.944-2.048 4.944-4.976zm-9.056-16.778h-2.128v8.464h10.992v-8.464h-2.128v6.096h-2.416v-5.536h-2.128v5.536h-2.192zm9.056-7.15c0-2.672-1.392-4.272-3.488-4.272-2.032 0-2.736 1.568-3.264 3.936-.384 1.696-.64 2.368-1.44 2.368-.656 0-1.184-.624-1.184-1.616 0-1.056.432-2.16 1.232-3.152l-1.712-1.232c-.96 1.136-1.52 2.512-1.52 4.304 0 2.416 1.392 4.08 3.424 4.08 2.128 0 2.784-1.664 3.312-3.984.384-1.68.624-2.32 1.408-2.32.688 0 1.232.608 1.232 1.808 0 1.392-.544 2.576-1.44 3.616l1.616 1.344c1.184-1.28 1.824-2.96 1.824-4.88z" fill="#000"/><path d="m18 384.143v-2.368h-3.568v-2.576c0-2.4-1.536-4.144-3.712-4.144s-3.712 1.744-3.712 4.144v4.944zm-5.728-2.368h-3.104v-2.336c0-1.168.608-1.968 1.552-1.968s1.552.8 1.552 1.968zm-1.552-18.645c-2.176 0-3.712 1.744-3.712 4.144v4.944h10.992v-2.368h-3.568v-1.424l3.568-2.512v-2.688l-3.76 2.64c-.48-1.648-1.792-2.736-3.52-2.736zm-1.552 6.72v-2.336c0-1.168.608-1.968 1.552-1.968s1.552.8 1.552 1.968v2.336zm9.024-13.762c0-2.672-1.392-4.272-3.488-4.272-2.032 0-2.736 1.568-3.264 3.936-.384 1.696-.64 2.368-1.44 2.368-.656 0-1.184-.624-1.184-1.616 0-1.056.432-2.16 1.232-3.152l-1.712-1.232c-.96 1.136-1.52 2.512-1.52 4.304 0 2.416 1.392 4.08 3.424 4.08 2.128 0 2.784-1.664 3.312-3.984.384-1.68.624-2.32 1.408-2.32.688 0 1.232.608 1.232 1.808 0 1.392-.544 2.576-1.44 3.616l1.616 1.344c1.184-1.28 1.824-2.96 1.824-4.88zm-6.48-19.629v2.848h-2.912v2.016h2.912v2.864h1.904v-2.864h2.912v-2.016h-2.912v-2.848zm6.288-8.304v-2.368h-10.992v2.368zm.192-10.02c0-2.672-1.392-4.272-3.488-4.272-2.032 0-2.736 1.568-3.264 3.936-.384 1.696-.64 2.368-1.44 2.368-.656 0-1.184-.624-1.184-1.616 0-1.056.432-2.16 1.232-3.152l-1.712-1.232c-.96 1.136-1.52 2.512-1.52 4.304 0 2.416 1.392 4.08 3.424 4.08 2.128 0 2.784-1.664 3.312-3.984.384-1.68.624-2.32 1.408-2.32.688 0 1.232.608 1.232 1.808 0 1.392-.544 2.576-1.44 3.616l1.616 1.344c1.184-1.28 1.824-2.96 1.824-4.88zm0-11.237c0-2.672-1.392-4.272-3.488-4.272-2.032 0-2.736 1.568-3.264 3.936-.384 1.696-.64 2.368-1.44 2.368-.656 0-1.184-.624-1.184-1.616 0-1.056.432-2.16 1.232-3.152l-1.712-1.232c-.96 1.136-1.52 2.512-1.52 4.304 0 2.416 1.392 4.08 3.424 4.08 2.128 0 2.784-1.664 3.312-3.984.384-1.68.624-2.32 1.408-2.32.688 0 1.232.608 1.232 1.808 0 1.392-.544 2.576-1.44 3.616l1.616 1.344c1.184-1.28 1.824-2.96 1.824-4.88zm0-11.91c0-2.912-2.048-4.976-4.944-4.976h-6.24v2.368h6.144c1.696 0 2.896 1.088 2.896 2.608 0 1.536-1.2 2.624-2.896 2.624h-6.144v2.352h6.24c2.896 0 4.944-2.048 4.944-4.976zm-9.056-16.778h-2.128v8.464h10.992v-8.464h-2.128v6.096h-2.416v-5.536h-2.128v5.536h-2.192zm9.056-7.15c0-2.672-1.392-4.272-3.488-4.272-2.032 0-2.736 1.568-3.264 3.936-.384 1.696-.64 2.368-1.44 2.368-.656 0-1.184-.624-1.184-1.616 0-1.056.432-2.16 1.232-3.152l-1.712-1.232c-.96 1.136-1.52 2.512-1.52 4.304 0 2.416 1.392 4.08 3.424 4.08 2.128 0 2.784-1.664 3.312-3.984.384-1.68.624-2.32 1.408-2.32.688 0 1.232.608 1.232 1.808 0 1.392-.544 2.576-1.44 3.616l1.616 1.344c1.184-1.28 1.824-2.96 1.824-4.88z" fill="#000" fill-opacity=".2"/><path d="m149.697 10.707v613.051" stroke="#000" stroke-miterlimit="10" stroke-opacity=".4"/><path d="m234.296 10.707v613.051" stroke="#000" stroke-miterlimit="10" stroke-opacity=".4"/><path d="m342.64 10.707v613.051" stroke="#000" stroke-miterlimit="10" stroke-opacity=".4"/><path d="m294.954 10.707v613.051" stroke="#000" stroke-miterlimit="10" stroke-opacity=".4"/><path d="m487 10.707v613.051" stroke="#000" stroke-miterlimit="10" stroke-opacity=".4"/><path d="m775.548 10.707v613.051" stroke="#000" stroke-miterlimit="10" stroke-opacity=".4"/><path d="m714.048 10.707v613.051" stroke="#000" stroke-miterlimit="10" stroke-opacity=".4"/><path d="m629.548 10.707v613.051" stroke="#000" stroke-miterlimit="10" stroke-opacity=".4"/><path d="m821.393 10.707v613.051" stroke="#000" stroke-miterlimit="10" stroke-opacity=".4"/><path d="m964.9 10.707v613.051" stroke="#000" stroke-miterlimit="10" stroke-opacity=".4"/><path d="m1110.15 10.707v613.051" stroke="#000" stroke-miterlimit="10" stroke-opacity=".4"/><path d="m1194.4 10.707v613.051" stroke="#000" stroke-miterlimit="10" stroke-opacity=".4"/><path d="m82.5 578.258h1112" stroke="#000" stroke-miterlimit="10" stroke-opacity=".4"/><path d="m82.5 503.633h1112" stroke="#000" stroke-miterlimit="10" stroke-opacity=".4"/><path d="m82.5 333.758h1112" stroke="#000" stroke-miterlimit="10" stroke-opacity=".4"/><path d="m82.5 258.883h1112" stroke="#000" stroke-miterlimit="10" stroke-opacity=".4"/><path d="m82.5 87.3828h1112" stroke="#000" stroke-miterlimit="10" stroke-opacity=".4"/><path d="m88.5 14.7578h1112" stroke="#000" stroke-miterlimit="10" stroke-opacity=".4"/><path d="m1179.6 67.3143c0 6.743-1.99 13.3347-5.74 18.9413-3.74 5.6067-9.06 9.9766-15.28 12.557s-13.07 3.2554-19.67 1.9404c-6.61-1.3158-12.67-4.5629-17.44-9.3309-4.76-4.7681-8-10.843-9.32-17.4565-1.31-6.6135-.64-13.4686 1.94-19.6984s6.94-11.5544 12.54-15.3007c5.6-3.7462 12.19-5.7458 18.92-5.7458 9.03 0 17.69 3.592 24.08 9.9858 6.38 6.3938 9.97 15.0656 9.97 24.1078z" fill="#5c2cff"/><path d="m1179.6 67.3143c0 6.743-1.99 13.3347-5.74 18.9413-3.74 5.6067-9.06 9.9766-15.28 12.557s-13.07 3.2554-19.67 1.9404c-6.61-1.3158-12.67-4.5629-17.44-9.3309-4.76-4.7681-8-10.843-9.32-17.4565-1.31-6.6135-.64-13.4686 1.94-19.6984s6.94-11.5544 12.54-15.3007c5.6-3.7462 12.19-5.7458 18.92-5.7458 9.03 0 17.69 3.592 24.08 9.9858 6.38 6.3938 9.97 15.0656 9.97 24.1078z" fill="#000" fill-opacity=".2"/><path d="m960.747 119.617c0 4.926-1.459 9.741-4.192 13.837-2.733 4.095-6.618 7.287-11.163 9.172s-9.546 2.378-14.371 1.417-9.257-3.333-12.736-6.815c-3.478-3.483-5.847-7.921-6.807-12.752s-.467-9.838 1.415-14.389c1.883-4.551 5.071-8.44 9.162-11.177 4.09-2.7365 8.899-4.1971 13.818-4.1971 6.597 0 12.924 2.6238 17.589 7.2941 4.664 4.671 7.285 11.005 7.285 17.61z" fill="#dc3912" fill-opacity=".8"/><path d="m791.651 222.013c0 4.599-1.363 9.095-3.916 12.919s-6.182 6.803-10.427 8.561-8.915 2.216-13.42 1.315-8.641-3.12-11.886-6.376c-3.245-3.255-5.453-7.402-6.343-11.914s-.424-9.188 1.341-13.434c1.764-4.247 4.748-7.874 8.572-10.422 3.824-2.549 8.317-3.904 12.911-3.894 6.149.012 12.042 2.467 16.385 6.825 4.344 4.358 6.783 10.263 6.783 16.42z" fill="#f90" fill-opacity=".8"/><path d="m898.096 275.961c0 4.212-1.247 8.33-3.584 11.832-2.338 3.502-5.66 6.232-9.546 7.844-3.887 1.612-8.164 2.033-12.29 1.212-4.126-.822-7.916-2.85-10.89-5.829-2.975-2.978-5.001-6.773-5.822-10.904-.82-4.131-.399-8.414 1.211-12.305 1.61-3.892 4.336-7.218 7.834-9.558s7.61-3.589 11.817-3.589c5.641 0 11.051 2.244 15.04 6.238s6.23 9.411 6.23 15.059z" fill="#109618" fill-opacity=".8"/><path d="m553.943 307.537c0 3.602-1.067 7.124-3.066 10.12-1.998 2.996-4.839 5.331-8.163 6.711-3.324 1.379-6.982 1.741-10.511 1.04s-6.772-2.434-9.318-4.98-4.28-5.791-4.985-9.324c-.704-3.533-.347-7.196 1.027-10.525 1.374-3.33 3.703-6.177 6.693-8.182 2.99-2.004 6.506-3.076 10.104-3.081 2.392-.004 4.761.464 6.972 1.378s4.22 2.256 5.912 3.948c1.693 1.693 3.035 3.703 3.95 5.915.916 2.213 1.386 4.585 1.385 6.98z" fill="#84bb33"/><path d="m542.943 321.037c0 3.602-1.067 7.124-3.066 10.12-1.998 2.996-4.839 5.331-8.163 6.711-3.324 1.379-6.982 1.741-10.511 1.04s-6.772-2.434-9.318-4.98-4.28-5.791-4.985-9.324c-.704-3.533-.347-7.196 1.027-10.525 1.374-3.33 3.703-6.177 6.693-8.182 2.99-2.004 6.506-3.076 10.104-3.081 2.392-.004 4.761.464 6.972 1.378s4.22 2.256 5.912 3.948c1.693 1.693 3.035 3.703 3.95 5.915.916 2.213 1.386 4.585 1.385 6.98z" fill="#5b055b" fill-opacity=".8"/><path d="m789.71 252.343c0 3.642-1.079 7.202-3.1 10.23-2.02 3.028-4.893 5.388-8.253 6.782s-7.058 1.758-10.626 1.048c-3.567-.711-6.844-2.464-9.416-5.039-2.572-2.576-4.323-5.857-5.033-9.428-.71-3.572-.345-7.275 1.047-10.639 1.392-3.365 3.749-6.241 6.773-8.264s6.58-3.103 10.217-3.103c4.878 0 9.555 1.94 13.004 5.393s5.387 8.137 5.387 13.02z" fill="#0099c6" fill-opacity=".8"/><path d="m673.933 322.601c0 3.394-1.005 6.711-2.888 9.532s-4.559 5.02-7.69 6.319c-3.131 1.298-6.576 1.638-9.9.976s-6.377-2.296-8.773-4.695c-2.397-2.4-4.029-5.457-4.69-8.784-.661-3.328-.321-6.778.975-9.913 1.297-3.135 3.494-5.814 6.311-7.699 2.818-1.885 6.131-2.892 9.52-2.892 4.543.003 8.9 1.812 12.113 5.028 3.213 3.217 5.019 7.579 5.022 12.128z" fill="#d47" fill-opacity=".8"/><path d="m695.938 338.851c0 2.949-.873 5.831-2.509 8.282s-3.961 4.362-6.681 5.49-5.714 1.423-8.602.848-5.54-1.995-7.622-4.079c-2.082-2.085-3.5-4.741-4.075-7.632-.574-2.892-.279-5.889.847-8.613 1.127-2.724 3.035-5.052 5.484-6.69 2.448-1.637 5.326-2.512 8.271-2.512 3.947.003 7.733 1.574 10.524 4.369s4.361 6.585 4.363 10.537z" fill="#daa13f"/><path d="m462.612 346.215c0 3.272-.969 6.47-2.785 9.19-1.815 2.721-4.396 4.841-7.415 6.093s-6.341 1.58-9.546.942c-3.205-.639-6.149-2.214-8.459-4.528-2.311-2.313-3.885-5.261-4.522-8.47-.638-3.209-.31-6.535.94-9.558 1.251-3.023 3.368-5.606 6.085-7.424s5.912-2.788 9.18-2.788c4.381.003 8.582 1.746 11.68 4.848 3.097 3.102 4.839 7.308 4.842 11.695z" fill="#ad33ad"/><path d="m523.119 390.215c0 2.338-.693 4.624-1.991 6.569-1.297 1.944-3.142 3.46-5.299 4.355-2.158.895-4.533 1.129-6.824.673-2.29-.457-4.395-1.583-6.046-3.236-1.652-1.654-2.776-3.761-3.232-6.055-.456-2.293-.222-4.671.672-6.831.894-2.161 2.407-4.007 4.349-5.307 1.942-1.299 4.226-1.992 6.561-1.992 3.132.002 6.134 1.248 8.349 3.465 2.214 2.217 3.459 5.223 3.461 8.359z" fill="#395b06" fill-opacity=".8"/><path d="m322.421 424.411c0 2.541-.753 5.025-2.162 7.137-1.41 2.113-3.414 3.759-5.759 4.732-2.344.972-4.924 1.227-7.413.731s-4.775-1.719-6.569-3.516c-1.795-1.797-3.017-4.086-3.512-6.578s-.241-5.075.73-7.422c.972-2.348 2.616-4.354 4.726-5.766 2.11-1.411 4.591-2.165 7.128-2.165 3.403 0 6.667 1.354 9.073 3.763s3.758 5.677 3.758 9.084z" fill="#b82e2e" fill-opacity=".8"/><path d="m571.5 300.015c0 3.156-.934 6.24-2.685 8.864-1.751 2.623-4.239 4.668-7.151 5.875-2.911 1.208-6.115 1.524-9.206.908-3.09-.616-5.929-2.135-8.158-4.366-2.228-2.231-3.745-5.074-4.36-8.168-.615-3.095-.299-6.302.907-9.217s3.248-5.407 5.868-7.16 5.701-2.689 8.852-2.689c4.226 0 8.278 1.681 11.266 4.673s4.667 7.05 4.667 11.28z" fill="#316395" fill-opacity=".8"/><path d="m854.409 342.085c-.002 2.507-.746 4.958-2.139 7.042-1.393 2.085-3.371 3.709-5.686 4.667-2.314.959-4.861 1.208-7.317.718s-4.712-1.699-6.482-3.473c-1.771-1.773-2.976-4.033-3.464-6.493-.488-2.459-.237-5.009.722-7.325.959-2.317 2.582-4.297 4.665-5.69s4.531-2.136 7.035-2.136c1.664 0 3.312.328 4.849.966 1.538.638 2.934 1.572 4.11 2.751 1.177 1.178 2.109 2.577 2.745 4.117s.963 3.19.962 4.856z" fill="#949" fill-opacity=".8"/><path d="m224.644 399.366c0 3.045-.902 6.022-2.592 8.553-1.69 2.532-4.092 4.505-6.903 5.669-2.81 1.164-5.902 1.468-8.884.872-2.983-.596-5.722-2.064-7.871-4.218-2.149-2.155-3.611-4.899-4.202-7.887-.591-2.987-.283-6.082.884-8.894s3.14-5.214 5.671-6.903 5.505-2.588 8.546-2.583c4.073.008 7.975 1.633 10.853 4.518 2.878 2.886 4.495 6.796 4.498 10.873z" fill="#2a9" fill-opacity=".8"/><path d="m185.384 483.008c0 1.904-.564 3.765-1.621 5.349-1.057 1.583-2.559 2.816-4.316 3.544-1.758.729-3.691.918-5.556.546-1.865-.373-3.578-1.291-4.922-2.638-1.344-1.348-2.258-3.064-2.628-4.932-.369-1.868-.177-3.803.553-5.562.729-1.758 1.964-3.261 3.546-4.317 1.583-1.056 3.443-1.618 5.345-1.615 2.546.005 4.987 1.021 6.786 2.826 1.8 1.804 2.811 4.249 2.813 6.799z" fill="#e91f2b" fill-opacity=".8"/><path d="m220.638 476.508c0 1.261-.373 2.494-1.073 3.543-.7 1.048-1.695 1.865-2.859 2.347-1.164.483-2.445.608-3.68.362-1.235-.247-2.37-.855-3.26-1.748-.89-.892-1.496-2.029-1.74-3.266-.245-1.237-.118-2.519.366-3.684.483-1.165 1.3-2.16 2.349-2.859 1.048-.7 2.28-1.072 3.539-1.07 1.687.003 3.304.676 4.495 1.871 1.192 1.196 1.862 2.815 1.863 4.504z" fill="#dff26a" fill-opacity=".8"/><path d="m267.513 469.258c0 1.261-.373 2.494-1.073 3.543-.7 1.048-1.695 1.865-2.859 2.347-1.164.483-2.445.608-3.68.362-1.235-.247-2.37-.855-3.26-1.748-.89-.892-1.496-2.029-1.74-3.266-.245-1.237-.118-2.519.366-3.684.483-1.165 1.3-2.16 2.349-2.859 1.048-.7 2.28-1.072 3.539-1.07 1.687.003 3.304.676 4.495 1.871 1.192 1.196 1.862 2.815 1.863 4.504z" fill="#f28b6a" fill-opacity=".8"/><path d="m330.598 394.498c.002 2.719-.802 5.379-2.31 7.641-1.508 2.263-3.652 4.027-6.161 5.069s-5.271 1.316-7.935.787c-2.665-.53-5.113-1.838-7.034-3.761-1.922-1.922-3.231-4.372-3.762-7.04-.53-2.667-.259-5.433.78-7.946s2.799-4.661 5.058-6.172c2.259-1.512 4.914-2.318 7.631-2.318 3.64 0 7.132 1.447 9.707 4.023 2.575 2.577 4.023 6.072 4.026 9.717z" fill="#aa1" fill-opacity=".8"/><g opacity=".6"><path d="m334.133 353.277c-.004 2.57-.768 5.082-2.197 7.217s-3.459 3.798-5.831 4.779c-2.373.981-4.983 1.236-7.5.732-2.518-.504-4.829-1.743-6.643-3.562s-3.049-4.135-3.548-6.656c-.499-2.522-.241-5.134.742-7.509.983-2.374 2.648-4.403 4.782-5.831 2.135-1.427 4.644-2.189 7.212-2.189 1.706.001 3.395.339 4.971.994s3.008 1.614 4.213 2.823c1.206 1.209 2.162 2.644 2.814 4.223s.986 3.271.985 4.979z" fill="#4b378d"/><path d="m334.133 353.277c-.004 2.57-.768 5.082-2.197 7.217s-3.459 3.798-5.831 4.779c-2.373.981-4.983 1.236-7.5.732-2.518-.504-4.829-1.743-6.643-3.562s-3.049-4.135-3.548-6.656c-.499-2.522-.241-5.134.742-7.509.983-2.374 2.648-4.403 4.782-5.831 2.135-1.427 4.644-2.189 7.212-2.189 1.706.001 3.395.339 4.971.994s3.008 1.614 4.213 2.823c1.206 1.209 2.162 2.644 2.814 4.223s.986 3.271.985 4.979z" fill="#000" fill-opacity=".2"/></g><path d="m108.845 591.25c0 1.485-.439 2.936-1.263 4.171s-1.995 2.197-3.365 2.765c-1.371.568-2.878.717-4.3328.427-1.4546-.289-2.7907-1.004-3.8393-2.054-1.0487-1.05-1.7629-2.388-2.0522-3.844-.2893-1.457-.1408-2.966.4267-4.338.5676-1.372 1.5286-2.545 2.7617-3.37 1.2332-.825 2.6829-1.265 4.1659-1.265 1.989 0 3.896.791 5.302 2.199s2.196 3.318 2.196 5.309z" fill="#00e617" fill-opacity=".8"/><g fill="#000"><path d="m144.799 644.215h1.01v-1.58h.99v-.89h-.99v-4.4h-1.2l-3.33 4.48.11.81h3.41zm-2.41-2.47 2.41-3.25v3.25zm7.694 2.59c1.71 0 2.92-1.47 2.92-3.56 0-2.08-1.21-3.55-2.92-3.55-1.73 0-2.94 1.47-2.94 3.55 0 2.09 1.21 3.56 2.94 3.56zm0-.93c-1.12 0-1.91-1.09-1.91-2.63s.79-2.62 1.91-2.62c1.11 0 1.89 1.08 1.89 2.62s-.78 2.63-1.89 2.63zm6.483.93c1.71 0 2.92-1.47 2.92-3.56 0-2.08-1.21-3.55-2.92-3.55-1.73 0-2.94 1.47-2.94 3.55 0 2.09 1.21 3.56 2.94 3.56zm0-.93c-1.12 0-1.91-1.09-1.91-2.63s.79-2.62 1.91-2.62c1.11 0 1.89 1.08 1.89 2.62s-.78 2.63-1.89 2.63z" fill-opacity=".7"/><path d="m229.559 639.875c-.75 0-1.44.33-1.86.9.04-1.51.82-2.64 1.86-2.64.63 0 1.07.27 1.49.66l.52-.78c-.52-.47-1.15-.79-2-.79-1.67 0-2.9 1.58-2.9 3.66 0 1.96.8 3.45 2.71 3.45 1.45 0 2.49-.99 2.49-2.31 0-1.36-1.05-2.15-2.31-2.15zm-.21 3.6c-.91 0-1.4-.66-1.57-1.65.19-.66.79-1.1 1.55-1.1.83 0 1.51.51 1.51 1.35 0 .69-.56 1.4-1.49 1.4zm5.989.86c1.71 0 2.92-1.47 2.92-3.56 0-2.08-1.21-3.55-2.92-3.55-1.73 0-2.94 1.47-2.94 3.55 0 2.09 1.21 3.56 2.94 3.56zm0-.93c-1.12 0-1.91-1.09-1.91-2.63s.79-2.62 1.91-2.62c1.11 0 1.89 1.08 1.89 2.62s-.78 2.63-1.89 2.63zm6.483.93c1.71 0 2.92-1.47 2.92-3.56 0-2.08-1.21-3.55-2.92-3.55-1.73 0-2.94 1.47-2.94 3.55 0 2.09 1.21 3.56 2.94 3.56zm0-.93c-1.12 0-1.91-1.09-1.91-2.63s.79-2.62 1.91-2.62c1.11 0 1.89 1.08 1.89 2.62s-.78 2.63-1.89 2.63z" fill-opacity=".7"/><path d="m287.861 644.335c1.44 0 2.59-.74 2.59-1.93 0-.84-.63-1.45-1.45-1.74.7-.27 1.28-.78 1.28-1.6 0-1.14-1.14-1.84-2.42-1.84-1.24 0-2.41.67-2.41 1.84 0 .78.53 1.3 1.28 1.6-.82.28-1.46.89-1.46 1.74 0 1.18 1.14 1.93 2.59 1.93zm0-4.05c-.61-.04-1.4-.4-1.4-1.11 0-.61.61-1.06 1.4-1.06s1.41.45 1.41 1.06c0 .69-.78 1.07-1.41 1.11zm0 3.16c-.88 0-1.57-.46-1.57-1.13 0-.73.9-1.17 1.57-1.19.68.02 1.57.46 1.57 1.19 0 .67-.69 1.13-1.57 1.13zm6.149.89c1.71 0 2.92-1.47 2.92-3.56 0-2.08-1.21-3.55-2.92-3.55-1.73 0-2.94 1.47-2.94 3.55 0 2.09 1.21 3.56 2.94 3.56zm0-.93c-1.12 0-1.91-1.09-1.91-2.63s.79-2.62 1.91-2.62c1.11 0 1.89 1.08 1.89 2.62s-.78 2.63-1.89 2.63zm6.483.93c1.71 0 2.92-1.47 2.92-3.56 0-2.08-1.21-3.55-2.92-3.55-1.73 0-2.94 1.47-2.94 3.55 0 2.09 1.21 3.56 2.94 3.56zm0-.93c-1.12 0-1.91-1.09-1.91-2.63s.79-2.62 1.91-2.62c1.11 0 1.89 1.08 1.89 2.62s-.78 2.63-1.89 2.63z" fill-opacity=".7"/><path d="m334.6 644.215h1.01v-6.87h-.81l-1.81 1.23.42.73 1.19-.76zm4.988.12c1.71 0 2.92-1.47 2.92-3.56 0-2.08-1.21-3.55-2.92-3.55-1.73 0-2.94 1.47-2.94 3.55 0 2.09 1.21 3.56 2.94 3.56zm0-.93c-1.12 0-1.91-1.09-1.91-2.63s.79-2.62 1.91-2.62c1.11 0 1.89 1.08 1.89 2.62s-.78 2.63-1.89 2.63zm6.483.93c1.71 0 2.92-1.47 2.92-3.56 0-2.08-1.21-3.55-2.92-3.55-1.73 0-2.94 1.47-2.94 3.55 0 2.09 1.21 3.56 2.94 3.56zm0-.93c-1.12 0-1.91-1.09-1.91-2.63s.79-2.62 1.91-2.62c1.11 0 1.89 1.08 1.89 2.62s-.78 2.63-1.89 2.63zm6.482.93c1.71 0 2.92-1.47 2.92-3.56 0-2.08-1.21-3.55-2.92-3.55-1.73 0-2.94 1.47-2.94 3.55 0 2.09 1.21 3.56 2.94 3.56zm0-.93c-1.12 0-1.91-1.09-1.91-2.63s.79-2.62 1.91-2.62c1.11 0 1.89 1.08 1.89 2.62s-.78 2.63-1.89 2.63z" fill-opacity=".7"/><path d="m472.424 644.215h4.89v-.94h-3.29l1.61-1.36c1.18-.96 1.62-1.69 1.62-2.61 0-1.25-1.02-2.08-2.3-2.08-1.09 0-1.9.5-2.5 1.33l.68.6c.48-.62 1.03-1.02 1.78-1.02.68 0 1.3.44 1.3 1.19 0 .62-.35 1.21-1.27 1.98l-2.52 2.08zm8.441.12c1.71 0 2.92-1.47 2.92-3.56 0-2.08-1.21-3.55-2.92-3.55-1.73 0-2.94 1.47-2.94 3.55 0 2.09 1.21 3.56 2.94 3.56zm0-.93c-1.12 0-1.91-1.09-1.91-2.63s.79-2.62 1.91-2.62c1.11 0 1.89 1.08 1.89 2.62s-.78 2.63-1.89 2.63zm6.482.93c1.71 0 2.92-1.47 2.92-3.56 0-2.08-1.21-3.55-2.92-3.55-1.73 0-2.94 1.47-2.94 3.55 0 2.09 1.21 3.56 2.94 3.56zm0-.93c-1.12 0-1.91-1.09-1.91-2.63s.79-2.62 1.91-2.62c1.11 0 1.89 1.08 1.89 2.62s-.78 2.63-1.89 2.63zm6.483.93c1.71 0 2.92-1.47 2.92-3.56 0-2.08-1.21-3.55-2.92-3.55-1.73 0-2.94 1.47-2.94 3.55 0 2.09 1.21 3.56 2.94 3.56zm0-.93c-1.12 0-1.91-1.09-1.91-2.63s.79-2.62 1.91-2.62c1.11 0 1.89 1.08 1.89 2.62s-.78 2.63-1.89 2.63z" fill-opacity=".7"/><path d="m620.517 644.215h1.01v-1.58h.99v-.89h-.99v-4.4h-1.2l-3.33 4.48.11.81h3.41zm-2.41-2.47 2.41-3.25v3.25zm7.694 2.59c1.71 0 2.92-1.47 2.92-3.56 0-2.08-1.21-3.55-2.92-3.55-1.73 0-2.94 1.47-2.94 3.55 0 2.09 1.21 3.56 2.94 3.56zm0-.93c-1.12 0-1.91-1.09-1.91-2.63s.79-2.62 1.91-2.62c1.11 0 1.89 1.08 1.89 2.62s-.78 2.63-1.89 2.63zm6.483.93c1.71 0 2.92-1.47 2.92-3.56 0-2.08-1.21-3.55-2.92-3.55-1.73 0-2.94 1.47-2.94 3.55 0 2.09 1.21 3.56 2.94 3.56zm0-.93c-1.12 0-1.91-1.09-1.91-2.63s.79-2.62 1.91-2.62c1.11 0 1.89 1.08 1.89 2.62s-.78 2.63-1.89 2.63zm6.482.93c1.71 0 2.92-1.47 2.92-3.56 0-2.08-1.21-3.55-2.92-3.55-1.73 0-2.94 1.47-2.94 3.55 0 2.09 1.21 3.56 2.94 3.56zm0-.93c-1.12 0-1.91-1.09-1.91-2.63s.79-2.62 1.91-2.62c1.11 0 1.89 1.08 1.89 2.62s-.78 2.63-1.89 2.63z" fill-opacity=".7"/><path d="m704.278 639.875c-.75 0-1.44.33-1.86.9.04-1.51.82-2.64 1.86-2.64.63 0 1.07.27 1.49.66l.52-.78c-.52-.47-1.15-.79-2-.79-1.67 0-2.9 1.58-2.9 3.66 0 1.96.8 3.45 2.71 3.45 1.45 0 2.49-.99 2.49-2.31 0-1.36-1.05-2.15-2.31-2.15zm-.21 3.6c-.91 0-1.4-.66-1.57-1.65.19-.66.79-1.1 1.55-1.1.83 0 1.51.51 1.51 1.35 0 .69-.56 1.4-1.49 1.4zm5.99.86c1.71 0 2.92-1.47 2.92-3.56 0-2.08-1.21-3.55-2.92-3.55-1.73 0-2.94 1.47-2.94 3.55 0 2.09 1.21 3.56 2.94 3.56zm0-.93c-1.12 0-1.91-1.09-1.91-2.63s.79-2.62 1.91-2.62c1.11 0 1.89 1.08 1.89 2.62s-.78 2.63-1.89 2.63zm6.482.93c1.71 0 2.92-1.47 2.92-3.56 0-2.08-1.21-3.55-2.92-3.55-1.73 0-2.94 1.47-2.94 3.55 0 2.09 1.21 3.56 2.94 3.56zm0-.93c-1.12 0-1.91-1.09-1.91-2.63s.79-2.62 1.91-2.62c1.11 0 1.89 1.08 1.89 2.62s-.78 2.63-1.89 2.63zm6.483.93c1.71 0 2.92-1.47 2.92-3.56 0-2.08-1.21-3.55-2.92-3.55-1.73 0-2.94 1.47-2.94 3.55 0 2.09 1.21 3.56 2.94 3.56zm0-.93c-1.12 0-1.91-1.09-1.91-2.63s.79-2.62 1.91-2.62c1.11 0 1.89 1.08 1.89 2.62s-.78 2.63-1.89 2.63z" fill-opacity=".7"/><path d="m766.62 644.335c1.44 0 2.59-.74 2.59-1.93 0-.84-.63-1.45-1.45-1.74.7-.27 1.28-.78 1.28-1.6 0-1.14-1.14-1.84-2.42-1.84-1.24 0-2.41.67-2.41 1.84 0 .78.53 1.3 1.28 1.6-.82.28-1.46.89-1.46 1.74 0 1.18 1.14 1.93 2.59 1.93zm0-4.05c-.61-.04-1.4-.4-1.4-1.11 0-.61.61-1.06 1.4-1.06s1.41.45 1.41 1.06c0 .69-.78 1.07-1.41 1.11zm0 3.16c-.88 0-1.57-.46-1.57-1.13 0-.73.9-1.17 1.57-1.19.68.02 1.57.46 1.57 1.19 0 .67-.69 1.13-1.57 1.13zm6.149.89c1.71 0 2.92-1.47 2.92-3.56 0-2.08-1.21-3.55-2.92-3.55-1.73 0-2.94 1.47-2.94 3.55 0 2.09 1.21 3.56 2.94 3.56zm0-.93c-1.12 0-1.91-1.09-1.91-2.63s.79-2.62 1.91-2.62c1.11 0 1.89 1.08 1.89 2.62s-.78 2.63-1.89 2.63zm6.482.93c1.71 0 2.92-1.47 2.92-3.56 0-2.08-1.21-3.55-2.92-3.55-1.73 0-2.94 1.47-2.94 3.55 0 2.09 1.21 3.56 2.94 3.56zm0-.93c-1.12 0-1.91-1.09-1.91-2.63s.79-2.62 1.91-2.62c1.11 0 1.89 1.08 1.89 2.62s-.78 2.63-1.89 2.63zm6.483.93c1.71 0 2.92-1.47 2.92-3.56 0-2.08-1.21-3.55-2.92-3.55-1.73 0-2.94 1.47-2.94 3.55 0 2.09 1.21 3.56 2.94 3.56zm0-.93c-1.12 0-1.91-1.09-1.91-2.63s.79-2.62 1.91-2.62c1.11 0 1.89 1.08 1.89 2.62s-.78 2.63-1.89 2.63z" fill-opacity=".7"/><path d="m809.214 644.215h1.01v-6.87h-.81l-1.81 1.23.42.73 1.19-.76zm4.988.12c1.71 0 2.92-1.47 2.92-3.56 0-2.08-1.21-3.55-2.92-3.55-1.73 0-2.94 1.47-2.94 3.55 0 2.09 1.21 3.56 2.94 3.56zm0-.93c-1.12 0-1.91-1.09-1.91-2.63s.79-2.62 1.91-2.62c1.11 0 1.89 1.08 1.89 2.62s-.78 2.63-1.89 2.63zm6.483.93c1.71 0 2.92-1.47 2.92-3.56 0-2.08-1.21-3.55-2.92-3.55-1.73 0-2.94 1.47-2.94 3.55 0 2.09 1.21 3.56 2.94 3.56zm0-.93c-1.12 0-1.91-1.09-1.91-2.63s.79-2.62 1.91-2.62c1.11 0 1.89 1.08 1.89 2.62s-.78 2.63-1.89 2.63zm6.482.93c1.71 0 2.92-1.47 2.92-3.56 0-2.08-1.21-3.55-2.92-3.55-1.73 0-2.94 1.47-2.94 3.55 0 2.09 1.21 3.56 2.94 3.56zm0-.93c-1.12 0-1.91-1.09-1.91-2.63s.79-2.62 1.91-2.62c1.11 0 1.89 1.08 1.89 2.62s-.78 2.63-1.89 2.63zm6.482.93c1.71 0 2.92-1.47 2.92-3.56 0-2.08-1.21-3.55-2.92-3.55-1.73 0-2.94 1.47-2.94 3.55 0 2.09 1.21 3.56 2.94 3.56zm0-.93c-1.12 0-1.91-1.09-1.91-2.63s.79-2.62 1.91-2.62c1.11 0 1.89 1.08 1.89 2.62s-.78 2.63-1.89 2.63z" fill-opacity=".7"/><path d="m959.929 644.215h4.89v-.94h-3.29l1.61-1.36c1.18-.96 1.62-1.69 1.62-2.61 0-1.25-1.02-2.08-2.3-2.08-1.09 0-1.9.5-2.5 1.33l.68.6c.48-.62 1.03-1.02 1.78-1.02.68 0 1.3.44 1.3 1.19 0 .62-.35 1.21-1.27 1.98l-2.52 2.08zm8.441.12c1.71 0 2.92-1.47 2.92-3.56 0-2.08-1.21-3.55-2.92-3.55-1.73 0-2.94 1.47-2.94 3.55 0 2.09 1.21 3.56 2.94 3.56zm0-.93c-1.12 0-1.91-1.09-1.91-2.63s.79-2.62 1.91-2.62c1.11 0 1.89 1.08 1.89 2.62s-.78 2.63-1.89 2.63zm6.482.93c1.71 0 2.92-1.47 2.92-3.56 0-2.08-1.21-3.55-2.92-3.55-1.73 0-2.94 1.47-2.94 3.55 0 2.09 1.21 3.56 2.94 3.56zm0-.93c-1.12 0-1.91-1.09-1.91-2.63s.79-2.62 1.91-2.62c1.11 0 1.89 1.08 1.89 2.62s-.78 2.63-1.89 2.63zm6.483.93c1.71 0 2.92-1.47 2.92-3.56 0-2.08-1.21-3.55-2.92-3.55-1.73 0-2.94 1.47-2.94 3.55 0 2.09 1.21 3.56 2.94 3.56zm0-.93c-1.12 0-1.91-1.09-1.91-2.63s.79-2.62 1.91-2.62c1.11 0 1.89 1.08 1.89 2.62s-.78 2.63-1.89 2.63zm6.482.93c1.71 0 2.92-1.47 2.92-3.56 0-2.08-1.21-3.55-2.92-3.55-1.73 0-2.94 1.47-2.94 3.55 0 2.09 1.21 3.56 2.94 3.56zm0-.93c-1.12 0-1.91-1.09-1.91-2.63s.79-2.62 1.91-2.62c1.11 0 1.89 1.08 1.89 2.62s-.78 2.63-1.89 2.63z" fill-opacity=".7"/><path d="m1099.73 644.215h1.01v-1.58h.99v-.89h-.99v-4.4h-1.2l-3.33 4.48.11.81h3.41zm-2.41-2.47 2.41-3.25v3.25zm7.69 2.59c1.71 0 2.92-1.47 2.92-3.56 0-2.08-1.21-3.55-2.92-3.55-1.73 0-2.94 1.47-2.94 3.55 0 2.09 1.21 3.56 2.94 3.56zm0-.93c-1.12 0-1.91-1.09-1.91-2.63s.79-2.62 1.91-2.62c1.11 0 1.89 1.08 1.89 2.62s-.78 2.63-1.89 2.63zm6.48.93c1.71 0 2.92-1.47 2.92-3.56 0-2.08-1.21-3.55-2.92-3.55-1.73 0-2.94 1.47-2.94 3.55 0 2.09 1.21 3.56 2.94 3.56zm0-.93c-1.12 0-1.91-1.09-1.91-2.63s.79-2.62 1.91-2.62c1.11 0 1.89 1.08 1.89 2.62s-.78 2.63-1.89 2.63zm6.49.93c1.71 0 2.92-1.47 2.92-3.56 0-2.08-1.21-3.55-2.92-3.55-1.73 0-2.94 1.47-2.94 3.55 0 2.09 1.21 3.56 2.94 3.56zm0-.93c-1.12 0-1.91-1.09-1.91-2.63s.79-2.62 1.91-2.62c1.11 0 1.89 1.08 1.89 2.62s-.78 2.63-1.89 2.63zm6.48.93c1.71 0 2.92-1.47 2.92-3.56 0-2.08-1.21-3.55-2.92-3.55-1.73 0-2.94 1.47-2.94 3.55 0 2.09 1.21 3.56 2.94 3.56zm0-.93c-1.12 0-1.91-1.09-1.91-2.63s.79-2.62 1.91-2.62c1.11 0 1.89 1.08 1.89 2.62s-.78 2.63-1.89 2.63z" fill-opacity=".7"/><path d="m1184.82 639.875c-.75 0-1.44.33-1.86.9.04-1.51.82-2.64 1.86-2.64.63 0 1.07.27 1.49.66l.52-.78c-.52-.47-1.15-.79-2-.79-1.67 0-2.9 1.58-2.9 3.66 0 1.96.8 3.45 2.71 3.45 1.45 0 2.49-.99 2.49-2.31 0-1.36-1.05-2.15-2.31-2.15zm-.21 3.6c-.91 0-1.4-.66-1.57-1.65.19-.66.79-1.1 1.55-1.1.83 0 1.51.51 1.51 1.35 0 .69-.56 1.4-1.49 1.4zm5.99.86c1.71 0 2.92-1.47 2.92-3.56 0-2.08-1.21-3.55-2.92-3.55-1.73 0-2.94 1.47-2.94 3.55 0 2.09 1.21 3.56 2.94 3.56zm0-.93c-1.12 0-1.91-1.09-1.91-2.63s.79-2.62 1.91-2.62c1.11 0 1.89 1.08 1.89 2.62s-.78 2.63-1.89 2.63zm6.48.93c1.71 0 2.92-1.47 2.92-3.56 0-2.08-1.21-3.55-2.92-3.55-1.73 0-2.94 1.47-2.94 3.55 0 2.09 1.21 3.56 2.94 3.56zm0-.93c-1.12 0-1.91-1.09-1.91-2.63s.79-2.62 1.91-2.62c1.11 0 1.89 1.08 1.89 2.62s-.78 2.63-1.89 2.63zm6.48.93c1.71 0 2.92-1.47 2.92-3.56 0-2.08-1.21-3.55-2.92-3.55-1.73 0-2.94 1.47-2.94 3.55 0 2.09 1.21 3.56 2.94 3.56zm0-.93c-1.12 0-1.91-1.09-1.91-2.63s.79-2.62 1.91-2.62c1.11 0 1.89 1.08 1.89 2.62s-.78 2.63-1.89 2.63zm6.49.93c1.71 0 2.92-1.47 2.92-3.56 0-2.08-1.21-3.55-2.92-3.55-1.73 0-2.94 1.47-2.94 3.55 0 2.09 1.21 3.56 2.94 3.56zm0-.93c-1.12 0-1.91-1.09-1.91-2.63s.79-2.62 1.91-2.62c1.11 0 1.89 1.08 1.89 2.62s-.78 2.63-1.89 2.63z" fill-opacity=".7"/><path d="m57.4413 579.268c1.48 0 2.53-.91 2.53-2.3 0-1.37-1.03-2.15-2.27-2.15-.6 0-1.06.2-1.42.44l.06-2.04h3.26v-.94h-4.22l-.1 3.59.71.32c.41-.31.89-.5 1.46-.5.89 0 1.51.53 1.51 1.32 0 .77-.61 1.37-1.5 1.37-.73 0-1.37-.36-1.89-.91l-.63.72c.58.64 1.41 1.08 2.5 1.08zm6.0254 0c1.71 0 2.92-1.47 2.92-3.56 0-2.08-1.21-3.55-2.92-3.55-1.73 0-2.94 1.47-2.94 3.55 0 2.09 1.21 3.56 2.94 3.56zm0-.93c-1.12 0-1.91-1.09-1.91-2.63s.79-2.62 1.91-2.62c1.11 0 1.89 1.08 1.89 2.62s-.78 2.63-1.89 2.63zm6.4824.93c1.71 0 2.92-1.47 2.92-3.56 0-2.08-1.21-3.55-2.92-3.55-1.73 0-2.94 1.47-2.94 3.55 0 2.09 1.21 3.56 2.94 3.56zm0-.93c-1.12 0-1.91-1.09-1.91-2.63s.79-2.62 1.91-2.62c1.11 0 1.89 1.08 1.89 2.62s-.78 2.63-1.89 2.63z" fill-opacity=".7"/><path d="m51.9957 506.586h1.01v-6.87h-.81l-1.81 1.23.42.73 1.19-.76zm4.9886.12c1.71 0 2.92-1.47 2.92-3.56 0-2.08-1.21-3.55-2.92-3.55-1.73 0-2.94 1.47-2.94 3.55 0 2.09 1.21 3.56 2.94 3.56zm0-.93c-1.12 0-1.91-1.09-1.91-2.63s.79-2.62 1.91-2.62c1.11 0 1.89 1.08 1.89 2.62s-.78 2.63-1.89 2.63zm6.4824.93c1.71 0 2.92-1.47 2.92-3.56 0-2.08-1.21-3.55-2.92-3.55-1.73 0-2.94 1.47-2.94 3.55 0 2.09 1.21 3.56 2.94 3.56zm0-.93c-1.12 0-1.91-1.09-1.91-2.63s.79-2.62 1.91-2.62c1.11 0 1.89 1.08 1.89 2.62s-.78 2.63-1.89 2.63zm6.4824.93c1.71 0 2.92-1.47 2.92-3.56 0-2.08-1.21-3.55-2.92-3.55-1.73 0-2.94 1.47-2.94 3.55 0 2.09 1.21 3.56 2.94 3.56zm0-.93c-1.12 0-1.91-1.09-1.91-2.63s.79-2.62 1.91-2.62c1.11 0 1.89 1.08 1.89 2.62s-.78 2.63-1.89 2.63z" fill-opacity=".7"/><path d="m50.9589 336.915c1.48 0 2.53-.91 2.53-2.3 0-1.37-1.03-2.15-2.27-2.15-.6 0-1.06.2-1.42.44l.06-2.04h3.26v-.94h-4.22l-.1 3.59.71.32c.41-.31.89-.5 1.46-.5.89 0 1.51.53 1.51 1.32 0 .77-.61 1.37-1.5 1.37-.73 0-1.37-.36-1.89-.91l-.63.72c.58.64 1.41 1.08 2.5 1.08zm6.0254 0c1.71 0 2.92-1.47 2.92-3.56 0-2.08-1.21-3.55-2.92-3.55-1.73 0-2.94 1.47-2.94 3.55 0 2.09 1.21 3.56 2.94 3.56zm0-.93c-1.12 0-1.91-1.09-1.91-2.63s.79-2.62 1.91-2.62c1.11 0 1.89 1.08 1.89 2.62s-.78 2.63-1.89 2.63zm6.4824.93c1.71 0 2.92-1.47 2.92-3.56 0-2.08-1.21-3.55-2.92-3.55-1.73 0-2.94 1.47-2.94 3.55 0 2.09 1.21 3.56 2.94 3.56zm0-.93c-1.12 0-1.91-1.09-1.91-2.63s.79-2.62 1.91-2.62c1.11 0 1.89 1.08 1.89 2.62s-.78 2.63-1.89 2.63zm6.4824.93c1.71 0 2.92-1.47 2.92-3.56 0-2.08-1.21-3.55-2.92-3.55-1.73 0-2.94 1.47-2.94 3.55 0 2.09 1.21 3.56 2.94 3.56zm0-.93c-1.12 0-1.91-1.09-1.91-2.63s.79-2.62 1.91-2.62c1.11 0 1.89 1.08 1.89 2.62s-.78 2.63-1.89 2.63z" fill-opacity=".7"/><path d="m45.307 262.047h1.01v-6.87h-.81l-1.81 1.23.42.73 1.19-.76zm4.9886.12c1.71 0 2.92-1.47 2.92-3.56 0-2.08-1.21-3.55-2.92-3.55-1.73 0-2.94 1.47-2.94 3.55 0 2.09 1.21 3.56 2.94 3.56zm0-.93c-1.12 0-1.91-1.09-1.91-2.63s.79-2.62 1.91-2.62c1.11 0 1.89 1.08 1.89 2.62s-.78 2.63-1.89 2.63zm6.4824.93c1.71 0 2.92-1.47 2.92-3.56 0-2.08-1.21-3.55-2.92-3.55-1.73 0-2.94 1.47-2.94 3.55 0 2.09 1.21 3.56 2.94 3.56zm0-.93c-1.12 0-1.91-1.09-1.91-2.63s.79-2.62 1.91-2.62c1.11 0 1.89 1.08 1.89 2.62s-.78 2.63-1.89 2.63zm6.4824.93c1.71 0 2.92-1.47 2.92-3.56 0-2.08-1.21-3.55-2.92-3.55-1.73 0-2.94 1.47-2.94 3.55 0 2.09 1.21 3.56 2.94 3.56zm0-.93c-1.12 0-1.91-1.09-1.91-2.63s.79-2.62 1.91-2.62c1.11 0 1.89 1.08 1.89 2.62s-.78 2.63-1.89 2.63zm6.4825.93c1.71 0 2.92-1.47 2.92-3.56 0-2.08-1.21-3.55-2.92-3.55-1.73 0-2.94 1.47-2.94 3.55 0 2.09 1.21 3.56 2.94 3.56zm0-.93c-1.12 0-1.91-1.09-1.91-2.63s.79-2.62 1.91-2.62c1.11 0 1.89 1.08 1.89 2.62s-.78 2.63-1.89 2.63z" fill-opacity=".7"/><path d="m44.2702 91.1473c1.48 0 2.53-.91 2.53-2.3 0-1.37-1.03-2.15-2.27-2.15-.6 0-1.06.2-1.42.44l.06-2.04h3.26v-.94h-4.22l-.1 3.59.71.32c.41-.31.89-.5 1.46-.5.89 0 1.51.53 1.51 1.32 0 .77-.61 1.37-1.5 1.37-.73 0-1.37-.36-1.89-.91l-.63.72c.58.64 1.41 1.08 2.5 1.08zm6.0254 0c1.71 0 2.92-1.47 2.92-3.56 0-2.08-1.21-3.55-2.92-3.55-1.73 0-2.94 1.47-2.94 3.55 0 2.09 1.21 3.56 2.94 3.56zm0-.93c-1.12 0-1.91-1.09-1.91-2.63s.79-2.62 1.91-2.62c1.11 0 1.89 1.08 1.89 2.62s-.78 2.63-1.89 2.63zm6.4824.93c1.71 0 2.92-1.47 2.92-3.56 0-2.08-1.21-3.55-2.92-3.55-1.73 0-2.94 1.47-2.94 3.55 0 2.09 1.21 3.56 2.94 3.56zm0-.93c-1.12 0-1.91-1.09-1.91-2.63s.79-2.62 1.91-2.62c1.11 0 1.89 1.08 1.89 2.62s-.78 2.63-1.89 2.63zm6.4824.93c1.71 0 2.92-1.47 2.92-3.56 0-2.08-1.21-3.55-2.92-3.55-1.73 0-2.94 1.47-2.94 3.55 0 2.09 1.21 3.56 2.94 3.56zm0-.93c-1.12 0-1.91-1.09-1.91-2.63s.79-2.62 1.91-2.62c1.11 0 1.89 1.08 1.89 2.62s-.78 2.63-1.89 2.63zm6.4825.93c1.71 0 2.92-1.47 2.92-3.56 0-2.08-1.21-3.55-2.92-3.55-1.73 0-2.94 1.47-2.94 3.55 0 2.09 1.21 3.56 2.94 3.56zm0-.93c-1.12 0-1.91-1.09-1.91-2.63s.79-2.62 1.91-2.62c1.11 0 1.89 1.08 1.89 2.62s-.78 2.63-1.89 2.63z" fill-opacity=".7"/><path d="m32.3422 16h1.01v-6.87h-.81l-1.81 1.23.42.73 1.19-.76zm4.9885.12c1.71 0 2.92-1.47 2.92-3.56 0-2.08-1.21-3.55-2.92-3.55-1.73 0-2.94 1.47-2.94 3.55 0 2.09 1.21 3.56 2.94 3.56zm0-.93c-1.12 0-1.91-1.09-1.91-2.63s.79-2.62 1.91-2.62c1.11 0 1.89 1.08 1.89 2.62s-.78 2.63-1.89 2.63zm6.4825.93c1.71 0 2.92-1.47 2.92-3.56 0-2.08-1.21-3.55-2.92-3.55-1.73 0-2.94 1.47-2.94 3.55 0 2.09 1.21 3.56 2.94 3.56zm0-.93c-1.12 0-1.91-1.09-1.91-2.63s.79-2.62 1.91-2.62c1.11 0 1.89 1.08 1.89 2.62s-.78 2.63-1.89 2.63zm6.4824.93c1.71 0 2.92-1.47 2.92-3.56 0-2.08-1.21-3.55-2.92-3.55-1.73 0-2.94 1.47-2.94 3.55 0 2.09 1.21 3.56 2.94 3.56zm0-.93c-1.12 0-1.91-1.09-1.91-2.63s.79-2.62 1.91-2.62c1.11 0 1.89 1.08 1.89 2.62s-.78 2.63-1.89 2.63zm6.4824.93c1.71 0 2.92-1.47 2.92-3.56 0-2.08-1.21-3.55-2.92-3.55-1.73 0-2.94 1.47-2.94 3.55 0 2.09 1.21 3.56 2.94 3.56zm0-.93c-1.12 0-1.91-1.09-1.91-2.63s.79-2.62 1.91-2.62c1.11 0 1.89 1.08 1.89 2.62s-.78 2.63-1.89 2.63zm6.4824.93c1.71 0 2.92-1.47 2.92-3.56 0-2.08-1.21-3.55-2.92-3.55-1.73 0-2.94 1.47-2.94 3.55 0 2.09 1.21 3.56 2.94 3.56zm0-.93c-1.12 0-1.91-1.09-1.91-2.63s.79-2.62 1.91-2.62c1.11 0 1.89 1.08 1.89 2.62s-.78 2.63-1.89 2.63zm6.4825.93c1.71 0 2.92-1.47 2.92-3.56 0-2.08-1.21-3.55-2.92-3.55-1.73 0-2.94 1.47-2.94 3.55 0 2.09 1.21 3.56 2.94 3.56zm0-.93c-1.12 0-1.91-1.09-1.91-2.63s.79-2.62 1.91-2.62c1.11 0 1.89 1.08 1.89 2.62s-.78 2.63-1.89 2.63z" fill-opacity=".7"/></g><path d="m787.41 313.581c0 3.397-1.013 6.718-2.91 9.543s-4.594 5.026-7.749 6.326c-3.154 1.3-6.626 1.641-9.975.978s-6.426-2.299-8.84-4.701c-2.415-2.402-4.059-5.463-4.725-8.795-.667-3.332-.325-6.786.982-9.924 1.307-3.139 3.52-5.821 6.359-7.709 2.839-1.887 6.178-2.895 9.592-2.895 4.579 0 8.971 1.81 12.209 5.031 3.238 3.222 5.057 7.59 5.057 12.146z" fill="#8b0707" fill-opacity=".8"/></svg>