<svg fill="none" height="408" viewBox="0 0 782 408" width="782" xmlns="http://www.w3.org/2000/svg" xmlns:xlink="http://www.w3.org/1999/xlink"><mask id="a" height="282" maskUnits="userSpaceOnUse" width="724" x="54" y="78"><path d="m72.6407 347.64c-2.7505 0-5.8802-.727-8.8204 0-2.4217.599-6.8383 3.169-8.3203 4.057-.3172.19-.1847.11-.5.303v7h29 692l1-234.5-2-45c-1.981.5866-7.924 2.5208-9.82 2.8477-2.846.4905-5.691.2344-8.536.6708s-5.88 1.2857-8.821 2.0123c-2.94.7267-5.975 1.6337-8.82 2.3477-2.845.7141-5.69 1.136-8.536 2.0124-2.845.8763-5.975 1.9185-8.82 3.3539-2.845 1.4353-5.691 4.3636-8.536 5.3662-2.845 1.0025-6.165-.2128-8.82.6707-2.656.8836-5.311 2.9533-7.967 4.6953s-5.88 5.534-8.82 6.373c-2.94.838-5.975-2.299-8.821-1.342-2.845.957-5.69 5.382-8.535 7.043-2.8 1.634-5.875 2.341-8.683 2.987l-.138.032c-2.845.654-5.69-.893-8.536 1.006-2.845 1.899-5.88 7.937-8.82 10.732s-5.975 3.051-8.82 6.037c-2.846 2.986-5.691 10.116-8.536 12.074s-5.975-.449-8.82-.335c-2.846.113-5.691.46-8.536 1.006s-6.165 1.379-8.821 2.348c-2.655.968-5.311 2.67-7.966 3.689-2.656 1.019-5.881 2.515-8.821 2.683s-5.975-2.133-8.82-1.677-5.691 3.093-8.536 4.36c-2.845 1.268-5.975 1.863-8.82 3.354s-5.691 4.697-8.536 5.702c-2.845 1.004-5.88.111-8.82.335s-5.975.62-8.821 1.006c-2.845.386-5.69 1.226-8.535 1.342-2.846.115-5.976-.675-8.821-.671-2.756.004-5.513.322-8.27.64l-.266.031c-2.845.328-6.07.238-8.82 1.341-2.75 1.104-5.501 3.217-8.251 5.367-2.751 2.149-5.88 6.763-8.821 8.049-2.94 1.286-5.975-.729-8.82-.335-2.845.393-5.69 1.37-8.536 2.683-2.845 1.312-5.975 3.215-8.82 5.366s-5.691 5.725-8.536 7.714-5.88 2.626-8.82 4.36-8.915 5.905-12.235 8.385c-3.319 2.479-6.639 5.729-9.958 8.049-3.32 2.32-9.579 5.729-12.519 7.378-2.941 1.649-6.165 3.039-8.821 4.696-2.655 1.657-5.596 4.07-7.967 5.701s-4.742 4.069-7.113 4.696-7.303-2.211-10.243-1.342c-2.94.87-7.208 5.287-8.82 6.373-1.612 1.085-3.225 1.811-4.837 3.018s-5.122 4.63-7.682 6.708c-2.561 2.078-6.26 4.332-9.39 7.043s-6.828 7.479-10.243 10.062c-3.414 2.582-8.441 4.363-11.381 6.037s-5.975 3.718-8.82 5.366-5.691 3.047-8.536 4.695c-2.845 1.649-6.165 4-8.82 5.367-2.656 1.366-5.311 2.492-7.967 3.354-2.656.861-8.726 2.001-8.82 2.012-.095.011-.19-.027-.285 0s-5.88 3.499-8.82 5.031c-2.94 1.531-14.227 7.21-17.072 8.049-2.845.838-5.69.298-8.536 1.006-2.845.709-5.88 2.18-8.82 3.354s-5.975 2.423-8.82 3.689c-2.846 1.266-5.691 2.867-8.536 4.025s-5.975 2.42-8.82 3.018c-2.846.599-5.691.343-8.536.671-2.846.328-6.165.804-8.821 1.342-2.655.537-5.311 1.273-7.966 2.012-2.656.739-5.881 2.068-8.821 2.683s-5.975.565-8.82 1.006c-2.845.442-5.691 1.127-8.536 1.677s-5.975 1.407-8.82 1.677c-2.846.271-5.691 0-8.536 0s-5.88-.112-8.82 0c-2.941.112-5.975.339-8.821.671-2.845.332-5.69.956-8.536 1.342-2.845.385-5.975.732-8.8199 1.006-2.8453.274-5.6905.505-8.5358.671-2.8453.165-6.0699.283-8.8203.335-2.7505.052-5.5009 0-8.2513 0z" fill="#d9d9d9" stroke="#000" stroke-linecap="round" stroke-miterlimit="10"/></mask><path d="m0 359h782" stroke="#b7b7b7" stroke-miterlimit="10"/><path d="m1 159h781" stroke="#b7b7b7" stroke-miterlimit="10" stroke-width=".5"/><path d="m1 93h781" stroke="#b7b7b7" stroke-miterlimit="10" stroke-width=".5"/><path d="m1 226h781" stroke="#b7b7b7" stroke-miterlimit="10" stroke-width=".5"/><path d="m1 292h781" stroke="#b7b7b7" stroke-miterlimit="10" stroke-width=".5"/><path d="m1 26h781" stroke="#b7b7b7" stroke-miterlimit="10" stroke-width=".5"/><g clip-rule="evenodd" fill="#747474" fill-rule="evenodd" mask="url(#a)"><path d="m594.42 407.757-520.4094-617.963.6691-.794 520.4093 617.963z"/><path d="m321.915 407.757-520.409-617.963.669-.794 520.409 617.963z"/><path d="m866.925 407.757-520.409-617.963.669-.794 520.409 617.963z"/><path d="m185.661 407.757-520.409-617.963.669-.794 520.409 617.963z"/><path d="m730.673 407.757-520.409-617.963.669-.794 520.409 617.963z"/><path d="m458.167 407.757-520.4093-617.963.6691-.794 520.4092 617.963z"/><path d="m1003.18 407.757-520.412-617.963.67-.794 520.412 617.963z"/><path d="m117.535 407.757-520.409-617.963.669-.794 520.409 617.963z"/><path d="m662.547 407.757-520.409-617.963.669-.794 520.409 617.963z"/><path d="m390.041 407.757-520.409-617.963.669-.794 520.409 617.963z"/><path d="m935.051 407.757-520.41-617.963.67-.794 520.409 617.963z"/><path d="m253.789 407.757-520.409-617.963.669-.794 520.409 617.963z"/><path d="m798.799 407.757-520.409-617.963.669-.794 520.409 617.963z"/><path d="m526.294 407.757-520.40935-617.963.66906-.794 520.40929 617.963z"/><path d="m1071.3 407.757-520.405-617.963.669-.794 520.406 617.963z"/><path d="m83.4724 407.757-520.4094-617.963.669-.794 520.4094 617.963z"/><path d="m628.484 407.757-520.41-617.963.669-.794 520.41 617.963z"/><path d="m355.978 407.757-520.41-617.963.669-.794 520.41 617.963z"/><path d="m900.987 407.757-520.409-617.963.669-.794 520.409 617.963z"/><path d="m219.726 407.757-520.41-617.963.669-.794 520.41 617.963z"/><path d="m764.736 407.757-520.41-617.963.669-.794 520.41 617.963z"/><path d="m492.231 407.757-520.4098-617.963.669-.794 520.4098 617.963z"/><path d="m1037.24 407.757-520.408-617.963.669-.794 520.409 617.963z"/><path d="m151.599 407.757-520.409-617.963.669-.794 520.409 617.963z"/><path d="m696.61 407.757-520.41-617.963.669-.794 520.41 617.963z"/><path d="m424.105 407.757-520.4098-617.963.6691-.794 520.4097 617.963z"/><path d="m969.115 407.757-520.409-617.963.669-.794 520.409 617.963z"/><path d="m287.852 407.757-520.41-617.963.669-.794 520.41 617.963z"/><path d="m832.861 407.757-520.409-617.963.669-.794 520.41 617.963z"/><path d="m560.357 407.757-520.4099-617.963.6691-.794 520.4098 617.963z"/><path d="m1105.37 407.757-520.412-617.963.669-.794 520.413 617.963z"/><path d="m66.4406 407.757-520.4096-617.963.669-.794 520.4097 617.963z"/><path d="m611.452 407.757-520.4091-617.963.669-.794 520.4091 617.963z"/><path d="m338.946 407.757-520.409-617.963.669-.794 520.41 617.963z"/><path d="m883.957 407.757-520.409-617.963.669-.794 520.409 617.963z"/><path d="m202.694 407.757-520.41-617.963.669-.794 520.41 617.963z"/><path d="m747.704 407.757-520.409-617.963.669-.794 520.409 617.963z"/><path d="m475.199 407.757-520.4091-617.963.6691-.794 520.409 617.963z"/><path d="m1020.21 407.757-520.41-617.963.669-.794 520.411 617.963z"/><path d="m134.567 407.757-520.409-617.963.669-.794 520.409 617.963z"/><path d="m679.579 407.757-520.409-617.963.669-.794 520.409 617.963z"/><path d="m407.072 407.757-520.409-617.963.669-.794 520.41 617.963z"/><path d="m952.083 407.757-520.409-617.963.669-.794 520.409 617.963z"/><path d="m270.82 407.757-520.409-617.963.669-.794 520.409 617.963z"/><path d="m815.83 407.757-520.409-617.963.669-.794 520.409 617.963z"/><path d="m543.325 407.757-520.4091-617.963.6691-.794 520.409 617.963z"/><path d="m1088.34 407.757-520.413-617.963.669-.794 520.414 617.963z"/><path d="m100.504 407.757-520.409-617.963.669-.794 520.409 617.963z"/><path d="m645.515 407.757-520.41-617.963.669-.794 520.41 617.963z"/><path d="m373.01 407.757-520.41-617.963.67-.794 520.409 617.963z"/><path d="m918.02 407.757-520.41-617.963.669-.794 520.41 617.963z"/><path d="m236.757 407.757-520.409-617.963.669-.794 520.409 617.963z"/><path d="m781.768 407.757-520.41-617.963.669-.794 520.41 617.963z"/><path d="m509.262 407.757-520.4096-617.963.6691-.794 520.4095 617.963z"/><path d="m1054.27 407.757-520.407-617.963.669-.794 520.408 617.963z"/><path d="m168.63 407.757-520.409-617.963.669-.794 520.409 617.963z"/><path d="m713.641 407.757-520.41-617.963.669-.794 520.41 617.963z"/><path d="m441.136 407.757-520.4096-617.963.6691-.794 520.4095 617.963z"/><path d="m986.147 407.757-520.41-617.963.669-.794 520.41 617.963z"/><path d="m304.883 407.757-520.409-617.963.669-.794 520.409 617.963z"/><path d="m849.893 407.757-520.41-617.963.669-.794 520.41 617.963z"/><path d="m577.389 407.757-520.4096-617.963.669-.794 520.4096 617.963z"/><path d="m1122.4 407.757-520.411-617.963.669-.794 520.412 617.963z"/></g><path d="m55 352s5.8802-3.633 8.8203-4.36c2.9402-.727 6.0699 0 8.8204 0 2.7504 0 5.5008.052 8.2513 0 2.7504-.052 5.975-.17 8.8203-.335 2.8453-.166 5.6905-.397 8.5358-.671 2.8449-.274 5.9749-.621 8.8199-1.006 2.846-.386 5.691-1.01 8.536-1.342 2.846-.332 5.88-.559 8.821-.671 2.94-.112 5.975 0 8.82 0s5.69.271 8.536 0c2.845-.27 5.975-1.127 8.82-1.677s5.691-1.235 8.536-1.677c2.845-.441 5.88-.391 8.82-1.006s6.165-1.944 8.821-2.683c2.655-.739 5.311-1.475 7.966-2.012 2.656-.538 5.975-1.014 8.821-1.342 2.845-.328 5.69-.072 8.536-.671 2.845-.598 5.975-1.86 8.82-3.018s5.69-2.759 8.536-4.025c2.845-1.266 5.88-2.515 8.82-3.689s5.975-2.645 8.82-3.354c2.846-.708 5.691-.168 8.536-1.006 2.845-.839 14.132-6.518 17.072-8.049 2.94-1.532 8.725-5.004 8.82-5.031s.19.011.285 0c.094-.011 6.164-1.151 8.82-2.012 2.656-.862 5.311-1.988 7.967-3.354 2.655-1.367 5.975-3.718 8.82-5.367 2.845-1.648 5.691-3.047 8.536-4.695s5.88-3.692 8.82-5.366 7.967-3.455 11.381-6.037c3.415-2.583 7.113-7.351 10.243-10.062s6.829-4.965 9.39-7.043c2.56-2.078 6.07-5.501 7.682-6.708s3.225-1.933 4.837-3.018c1.612-1.086 5.88-5.503 8.82-6.373 2.94-.869 7.872 1.969 10.243 1.342s4.742-3.065 7.113-4.696 5.312-4.044 7.967-5.701c2.656-1.657 5.88-3.047 8.821-4.696 2.94-1.649 9.199-5.058 12.519-7.378 3.319-2.32 6.639-5.57 9.958-8.049 3.32-2.48 9.295-6.651 12.235-8.385s5.975-2.371 8.82-4.36 5.691-5.563 8.536-7.714 5.975-4.054 8.82-5.366c2.846-1.313 5.691-2.29 8.536-2.683 2.845-.394 5.88 1.621 8.82.335 2.941-1.286 6.07-5.9 8.821-8.049 2.75-2.15 5.501-4.263 8.251-5.367 2.75-1.103 5.975-1.013 8.82-1.341 2.846-.328 5.691-.667 8.536-.671s5.975.786 8.821.671c2.845-.116 5.69-.956 8.535-1.342 2.846-.386 5.881-.782 8.821-1.006s5.975.669 8.82-.335c2.845-1.005 5.691-4.211 8.536-5.702s5.975-2.086 8.82-3.354c2.845-1.267 5.691-3.904 8.536-4.36s5.88 1.845 8.82 1.677 6.165-1.664 8.821-2.683c2.655-1.019 5.311-2.721 7.966-3.689 2.656-.969 5.976-1.802 8.821-2.348s5.69-.893 8.536-1.006c2.845-.114 5.975 2.293 8.82.335s5.69-9.088 8.536-12.074c2.845-2.986 5.88-3.242 8.82-6.037s5.975-8.833 8.82-10.732c2.846-1.899 5.691-.352 8.536-1.006 2.846-.655 5.975-1.358 8.821-3.019 2.845-1.661 5.69-6.086 8.535-7.043 2.846-.957 5.881 2.18 8.821 1.342 2.94-.839 6.164-4.631 8.82-6.373s5.311-3.8117 7.967-4.6953c2.655-.8835 5.975.3318 8.82-.6707 2.845-1.0026 5.691-3.9309 8.536-5.3662 2.845-1.4354 5.975-2.4776 8.82-3.3539 2.846-.8764 5.691-1.2983 8.536-2.0124 2.845-.714 5.88-1.621 8.82-2.3477 2.941-.7266 5.976-1.5759 8.821-2.0123s5.69-.1803 8.536-.6708c2.845-.4904 8.82-2.3477 8.82-2.3477" stroke="#5c2cff" stroke-linecap="round" stroke-miterlimit="10" stroke-width="7"/><g fill="#0f0b47"><path d="m44.684 400h9.09v-2.052h-5.598l2.592-2.088c2.124-1.638 2.88-2.952 2.88-4.59 0-2.286-1.872-3.852-4.32-3.852-1.998 0-3.492.882-4.662 2.412l1.458 1.35c.9-1.08 1.836-1.746 3.132-1.746 1.116 0 2.106.72 2.106 1.89 0 1.008-.558 1.944-2.124 3.204l-4.554 3.636zm15.4751.216c3.168 0 5.418-2.646 5.418-6.408 0-3.744-2.25-6.39-5.418-6.39-3.186 0-5.418 2.646-5.418 6.39 0 3.762 2.232 6.408 5.418 6.408zm0-2.052c-1.836 0-3.132-1.8-3.132-4.356s1.296-4.338 3.132-4.338 3.114 1.782 3.114 4.338-1.278 4.356-3.114 4.356zm8.875 1.836h2.25v-12.366h-1.8l-3.474 2.358.9 1.584 2.124-1.35zm9.4905-7.902c-1.26 0-2.43.522-3.204 1.386.162-2.412 1.386-4.086 3.132-4.086 1.08 0 1.854.45 2.61 1.116l1.098-1.71c-.99-.846-2.16-1.386-3.708-1.386-3.204 0-5.454 2.79-5.454 6.606 0 3.564 1.548 6.192 5.076 6.192 2.664 0 4.608-1.764 4.608-4.212 0-2.466-1.89-3.906-4.158-3.906zm-.558 6.21c-1.494 0-2.268-1.026-2.538-2.682.36-1.026 1.296-1.692 2.502-1.692 1.35 0 2.466.81 2.466 2.16 0 1.134-.918 2.214-2.43 2.214z"/><path d="m147.684 400h9.09v-2.052h-5.598l2.592-2.088c2.124-1.638 2.88-2.952 2.88-4.59 0-2.286-1.872-3.852-4.32-3.852-1.998 0-3.492.882-4.662 2.412l1.458 1.35c.9-1.08 1.836-1.746 3.132-1.746 1.116 0 2.106.72 2.106 1.89 0 1.008-.558 1.944-2.124 3.204l-4.554 3.636zm15.475.216c3.168 0 5.418-2.646 5.418-6.408 0-3.744-2.25-6.39-5.418-6.39-3.186 0-5.418 2.646-5.418 6.39 0 3.762 2.232 6.408 5.418 6.408zm0-2.052c-1.836 0-3.132-1.8-3.132-4.356s1.296-4.338 3.132-4.338 3.114 1.782 3.114 4.338-1.278 4.356-3.114 4.356zm8.875 1.836h2.25v-12.366h-1.8l-3.474 2.358.9 1.584 2.124-1.35zm4.739 0h2.556l5.094-10.674v-1.692h-8.928v2.052h6.318z"/><path d="m248.684 400h9.09v-2.052h-5.598l2.592-2.088c2.124-1.638 2.88-2.952 2.88-4.59 0-2.286-1.872-3.852-4.32-3.852-1.998 0-3.492.882-4.662 2.412l1.458 1.35c.9-1.08 1.836-1.746 3.132-1.746 1.116 0 2.106.72 2.106 1.89 0 1.008-.558 1.944-2.124 3.204l-4.554 3.636zm15.475.216c3.168 0 5.418-2.646 5.418-6.408 0-3.744-2.25-6.39-5.418-6.39-3.186 0-5.418 2.646-5.418 6.39 0 3.762 2.232 6.408 5.418 6.408zm0-2.052c-1.836 0-3.132-1.8-3.132-4.356s1.296-4.338 3.132-4.338 3.114 1.782 3.114 4.338-1.278 4.356-3.114 4.356zm8.875 1.836h2.25v-12.366h-1.8l-3.474 2.358.9 1.584 2.124-1.35zm8.717.216c2.664 0 4.824-1.296 4.824-3.51 0-1.458-1.062-2.538-2.52-3.096 1.242-.504 2.196-1.422 2.196-2.862 0-2.088-2.106-3.33-4.5-3.33-2.322 0-4.482 1.206-4.482 3.33 0 1.404.918 2.322 2.196 2.862-1.44.522-2.52 1.602-2.52 3.096 0 2.196 2.124 3.51 4.806 3.51zm0-7.416c-1.026-.054-2.268-.666-2.268-1.764 0-.972.972-1.71 2.268-1.71s2.286.738 2.286 1.71c0 1.08-1.224 1.71-2.286 1.764zm0 5.49c-1.458 0-2.556-.72-2.556-1.8 0-1.152 1.422-1.836 2.556-1.89 1.152.054 2.556.738 2.556 1.89 0 1.08-1.116 1.8-2.556 1.8z"/><path d="m351.684 400h9.09v-2.052h-5.598l2.592-2.088c2.124-1.638 2.88-2.952 2.88-4.59 0-2.286-1.872-3.852-4.32-3.852-1.998 0-3.492.882-4.662 2.412l1.458 1.35c.9-1.08 1.836-1.746 3.132-1.746 1.116 0 2.106.72 2.106 1.89 0 1.008-.558 1.944-2.124 3.204l-4.554 3.636zm15.475.216c3.168 0 5.418-2.646 5.418-6.408 0-3.744-2.25-6.39-5.418-6.39-3.186 0-5.418 2.646-5.418 6.39 0 3.762 2.232 6.408 5.418 6.408zm0-2.052c-1.836 0-3.132-1.8-3.132-4.356s1.296-4.338 3.132-4.338 3.114 1.782 3.114 4.338-1.278 4.356-3.114 4.356zm8.875 1.836h2.25v-12.366h-1.8l-3.474 2.358.9 1.584 2.124-1.35zm8.393-12.582c-2.664 0-4.608 1.764-4.608 4.212 0 2.466 1.89 3.906 4.158 3.906 1.26 0 2.43-.522 3.204-1.386-.162 2.412-1.386 4.086-3.132 4.086-1.08 0-1.854-.45-2.61-1.116l-1.098 1.71c.99.846 2.16 1.386 3.708 1.386 3.204 0 5.454-2.79 5.454-6.606 0-3.564-1.548-6.192-5.076-6.192zm.144 6.282c-1.35 0-2.466-.81-2.466-2.16 0-1.134.918-2.214 2.43-2.214 1.494 0 2.268 1.026 2.538 2.682-.36 1.026-1.296 1.692-2.502 1.692z"/><path d="m454.684 400h9.09v-2.052h-5.598l2.592-2.088c2.124-1.638 2.88-2.952 2.88-4.59 0-2.286-1.872-3.852-4.32-3.852-1.998 0-3.492.882-4.662 2.412l1.458 1.35c.9-1.08 1.836-1.746 3.132-1.746 1.116 0 2.106.72 2.106 1.89 0 1.008-.558 1.944-2.124 3.204l-4.554 3.636zm15.475.216c3.168 0 5.418-2.646 5.418-6.408 0-3.744-2.25-6.39-5.418-6.39-3.186 0-5.418 2.646-5.418 6.39 0 3.762 2.232 6.408 5.418 6.408zm0-2.052c-1.836 0-3.132-1.8-3.132-4.356s1.296-4.338 3.132-4.338 3.114 1.782 3.114 4.338-1.278 4.356-3.114 4.356zm6.139 1.836h9.09v-2.052h-5.598l2.592-2.088c2.124-1.638 2.88-2.952 2.88-4.59 0-2.286-1.872-3.852-4.32-3.852-1.998 0-3.492.882-4.662 2.412l1.458 1.35c.9-1.08 1.836-1.746 3.132-1.746 1.116 0 2.106.72 2.106 1.89 0 1.008-.558 1.944-2.124 3.204l-4.554 3.636zm15.475.216c3.168 0 5.418-2.646 5.418-6.408 0-3.744-2.25-6.39-5.418-6.39-3.186 0-5.418 2.646-5.418 6.39 0 3.762 2.232 6.408 5.418 6.408zm0-2.052c-1.836 0-3.132-1.8-3.132-4.356s1.296-4.338 3.132-4.338 3.114 1.782 3.114 4.338-1.278 4.356-3.114 4.356z"/><path d="m562.684 400h9.09v-2.052h-5.598l2.592-2.088c2.124-1.638 2.88-2.952 2.88-4.59 0-2.286-1.872-3.852-4.32-3.852-1.998 0-3.492.882-4.662 2.412l1.458 1.35c.9-1.08 1.836-1.746 3.132-1.746 1.116 0 2.106.72 2.106 1.89 0 1.008-.558 1.944-2.124 3.204l-4.554 3.636zm15.475.216c3.168 0 5.418-2.646 5.418-6.408 0-3.744-2.25-6.39-5.418-6.39-3.186 0-5.418 2.646-5.418 6.39 0 3.762 2.232 6.408 5.418 6.408zm0-2.052c-1.836 0-3.132-1.8-3.132-4.356s1.296-4.338 3.132-4.338 3.114 1.782 3.114 4.338-1.278 4.356-3.114 4.356zm6.139 1.836h9.09v-2.052h-5.598l2.592-2.088c2.124-1.638 2.88-2.952 2.88-4.59 0-2.286-1.872-3.852-4.32-3.852-1.998 0-3.492.882-4.662 2.412l1.458 1.35c.9-1.08 1.836-1.746 3.132-1.746 1.116 0 2.106.72 2.106 1.89 0 1.008-.558 1.944-2.124 3.204l-4.554 3.636zm12.541 0h2.25v-12.366h-1.8l-3.474 2.358.9 1.584 2.124-1.35z"/><path d="m664.684 400h9.09v-2.052h-5.598l2.592-2.088c2.124-1.638 2.88-2.952 2.88-4.59 0-2.286-1.872-3.852-4.32-3.852-1.998 0-3.492.882-4.662 2.412l1.458 1.35c.9-1.08 1.836-1.746 3.132-1.746 1.116 0 2.106.72 2.106 1.89 0 1.008-.558 1.944-2.124 3.204l-4.554 3.636zm15.475.216c3.168 0 5.418-2.646 5.418-6.408 0-3.744-2.25-6.39-5.418-6.39-3.186 0-5.418 2.646-5.418 6.39 0 3.762 2.232 6.408 5.418 6.408zm0-2.052c-1.836 0-3.132-1.8-3.132-4.356s1.296-4.338 3.132-4.338 3.114 1.782 3.114 4.338-1.278 4.356-3.114 4.356zm6.139 1.836h9.09v-2.052h-5.598l2.592-2.088c2.124-1.638 2.88-2.952 2.88-4.59 0-2.286-1.872-3.852-4.32-3.852-1.998 0-3.492.882-4.662 2.412l1.458 1.35c.9-1.08 1.836-1.746 3.132-1.746 1.116 0 2.106.72 2.106 1.89 0 1.008-.558 1.944-2.124 3.204l-4.554 3.636zm9.805 0h9.09v-2.052h-5.598l2.592-2.088c2.124-1.638 2.88-2.952 2.88-4.59 0-2.286-1.872-3.852-4.32-3.852-1.998 0-3.492.882-4.662 2.412l1.458 1.35c.9-1.08 1.836-1.746 3.132-1.746 1.116 0 2.106.72 2.106 1.89 0 1.008-.558 1.944-2.124 3.204l-4.554 3.636z"/><path d="m1.32795 286h7.824v-1.504h-5.264l2.576-2.176c1.888-1.536 2.592-2.704 2.592-4.176 0-2-1.632-3.328-3.68-3.328-1.744 0-3.04.8-4 2.128l1.088.96c.768-.992 1.648-1.632 2.848-1.632 1.088 0 2.08.704 2.08 1.904 0 .992-.56 1.936-2.032 3.168l-4.032 3.328zm14.30525.192c2.736 0 4.672-2.352 4.672-5.696 0-3.328-1.936-5.68-4.672-5.68-2.768 0-4.704 2.352-4.704 5.68 0 3.344 1.936 5.696 4.704 5.696zm0-1.488c-1.792 0-3.056-1.744-3.056-4.208s1.264-4.192 3.056-4.192c1.776 0 3.024 1.728 3.024 4.192s-1.248 4.208-3.024 4.208zm11.1719 1.488c2.736 0 4.672-2.352 4.672-5.696 0-3.328-1.936-5.68-4.672-5.68-2.768 0-4.704 2.352-4.704 5.68 0 3.344 1.936 5.696 4.704 5.696zm0-1.488c-1.792 0-3.056-1.744-3.056-4.208s1.264-4.192 3.056-4.192c1.776 0 3.024 1.728 3.024 4.192s-1.248 4.208-3.024 4.208z"/><path d="m6.83195 219h1.616v-2.528h1.58405v-1.424h-1.58405v-7.04h-1.92l-5.328 7.168.176 1.296h5.456zm-3.856-3.952 3.856-5.2v5.2zm13.11035 4.144c2.736 0 4.672-2.352 4.672-5.696 0-3.328-1.936-5.68-4.672-5.68-2.768 0-4.704 2.352-4.704 5.68 0 3.344 1.936 5.696 4.704 5.696zm0-1.488c-1.792 0-3.056-1.744-3.056-4.208s1.264-4.192 3.056-4.192c1.776 0 3.024 1.728 3.024 4.192s-1.248 4.208-3.024 4.208zm11.1719 1.488c2.736 0 4.672-2.352 4.672-5.696 0-3.328-1.936-5.68-4.672-5.68-2.768 0-4.704 2.352-4.704 5.68 0 3.344 1.936 5.696 4.704 5.696zm0-1.488c-1.792 0-3.056-1.744-3.056-4.208s1.264-4.192 3.056-4.192c1.776 0 3.024 1.728 3.024 4.192s-1.248 4.208-3.024 4.208z"/><path d="m6.31995 145.056c-1.2 0-2.304.528-2.976 1.44.064-2.416 1.312-4.224 2.976-4.224 1.008 0 1.712.432 2.384 1.056l.832-1.248c-.832-.752-1.84-1.264-3.2-1.264-2.672 0-4.64 2.528-4.64 5.856 0 3.136 1.28 5.52 4.336 5.52 2.32 0 3.98405-1.584 3.98405-3.696 0-2.176-1.68005-3.44-3.69605-3.44zm-.336 5.76c-1.456 0-2.24-1.056-2.512-2.64.304-1.056 1.264-1.76 2.48-1.76 1.328 0 2.416.816 2.416 2.16 0 1.104-.896 2.24-2.384 2.24zm10.38365 1.376c2.736 0 4.672-2.352 4.672-5.696 0-3.328-1.936-5.68-4.672-5.68-2.768 0-4.704 2.352-4.704 5.68 0 3.344 1.936 5.696 4.704 5.696zm0-1.488c-1.792 0-3.056-1.744-3.056-4.208s1.264-4.192 3.056-4.192c1.776 0 3.024 1.728 3.024 4.192s-1.248 4.208-3.024 4.208zm11.1719 1.488c2.736 0 4.672-2.352 4.672-5.696 0-3.328-1.936-5.68-4.672-5.68-2.768 0-4.704 2.352-4.704 5.68 0 3.344 1.936 5.696 4.704 5.696zm0-1.488c-1.792 0-3.056-1.744-3.056-4.208s1.264-4.192 3.056-4.192c1.776 0 3.024 1.728 3.024 4.192s-1.248 4.208-3.024 4.208z"/><path d="m5.77595 85.192c2.304 0 4.144-1.184 4.144-3.088 0-1.344-1.008-2.32-2.32-2.784 1.12-.432 2.048-1.248 2.048-2.56 0-1.824-1.824-2.944-3.872-2.944-1.984 0-3.856 1.072-3.856 2.944 0 1.248.848 2.08 2.048 2.56-1.312.448-2.336 1.424-2.336 2.784 0 1.888 1.824 3.088 4.144 3.088zm0-6.48c-.976-.064-2.24-.64-2.24-1.776 0-.976.976-1.696 2.24-1.696s2.256.72 2.256 1.696c0 1.104-1.248 1.712-2.256 1.776zm0 5.056c-1.408 0-2.512-.736-2.512-1.808 0-1.168 1.44-1.872 2.512-1.904 1.088.032 2.512.736 2.512 1.904 0 1.072-1.104 1.808-2.512 1.808zm10.63855 1.424c2.736 0 4.672-2.352 4.672-5.696 0-3.328-1.936-5.68-4.672-5.68-2.768 0-4.704 2.352-4.704 5.68 0 3.344 1.936 5.696 4.704 5.696zm0-1.488c-1.792 0-3.056-1.744-3.056-4.208s1.264-4.192 3.056-4.192c1.776 0 3.024 1.728 3.024 4.192s-1.248 4.208-3.024 4.208zm11.1718 1.488c2.736 0 4.672-2.352 4.672-5.696 0-3.328-1.936-5.68-4.672-5.68-2.768 0-4.704 2.352-4.704 5.68 0 3.344 1.936 5.696 4.704 5.696zm0-1.488c-1.792 0-3.056-1.744-3.056-4.208s1.264-4.192 3.056-4.192c1.776 0 3.024 1.728 3.024 4.192s-1.248 4.208-3.024 4.208z"/><path d="m3.66395 18h1.616v-10.992h-1.296l-2.896 1.968.672 1.168 1.904-1.216zm5.46975 2.192c1.024-1.168 1.392-1.856 1.392-2.608 0-.88-.464-1.52-1.168-1.52-.608 0-1.056.496-1.056 1.056 0 .592.464 1.072 1.04 1.072-.128.496-.432 1.008-.88 1.488zm8.4058-2c2.736 0 4.672-2.352 4.672-5.696 0-3.328-1.936-5.68-4.672-5.68-2.768 0-4.704 2.352-4.704 5.68 0 3.344 1.936 5.696 4.704 5.696zm0-1.488c-1.792 0-3.056-1.744-3.056-4.208s1.264-4.192 3.056-4.192c1.776 0 3.024 1.728 3.024 4.192s-1.248 4.208-3.024 4.208zm11.1718 1.488c2.736 0 4.672-2.352 4.672-5.696 0-3.328-1.936-5.68-4.672-5.68-2.768 0-4.704 2.352-4.704 5.68 0 3.344 1.936 5.696 4.704 5.696zm0-1.488c-1.792 0-3.056-1.744-3.056-4.208s1.264-4.192 3.056-4.192c1.776 0 3.024 1.728 3.024 4.192s-1.248 4.208-3.024 4.208zm11.1719 1.488c2.736 0 4.672-2.352 4.672-5.696 0-3.328-1.936-5.68-4.672-5.68-2.768 0-4.704 2.352-4.704 5.68 0 3.344 1.936 5.696 4.704 5.696zm0-1.488c-1.792 0-3.056-1.744-3.056-4.208s1.264-4.192 3.056-4.192c1.776 0 3.024 1.728 3.024 4.192s-1.248 4.208-3.024 4.208z"/></g></svg>