<svg fill="none" height="183" viewBox="0 0 380 183" width="380" xmlns="http://www.w3.org/2000/svg" xmlns:xlink="http://www.w3.org/1999/xlink"><mask id="a" height="61" maskUnits="userSpaceOnUse" width="380" x="0" y="78"><path d="m0 78.5859h380v60.0001h-380z" fill="#5c2cff"/></mask><g clip-rule="evenodd" fill="#d0d0d0" fill-rule="evenodd" mask="url(#a)"><path d="m839.36 921.084-938.4992-900.2489 1.2066-1.1574 938.4996 900.2493z"/><path d="m1084.59 921.482-938.115-900.6464 1.206-1.1579 938.119 900.6463z"/><path d="m961.786 921.482-938.119-900.6464 1.206-1.1579 938.119 900.6463z"/><path d="m1207.4 921.482-938.115-900.6464 1.206-1.1579 938.119 900.6463z"/><path d="m900.381 921.481-938.1193-900.6454 1.2061-1.1579 938.1192 900.6463z"/><path d="m1146 921.482-938.119-900.6464 1.206-1.1579 938.123 900.6463z"/><path d="m1023.19 921.481-938.1187-900.6454 1.206-1.1579 938.1227 900.6463z"/><path d="m1268.81 921.482-938.122-900.6464 1.207-1.1579 938.115 900.6463z"/><path d="m869.679 921.481-938.1185-900.6454 1.2061-1.1579 938.1184 900.6463z"/><path d="m1115.3 921.482-938.122-900.6464 1.206-1.1579 938.116 900.6463z"/><path d="m992.487 921.482-938.1189-900.6464 1.2061-1.1579 938.1188 900.6463z"/><path d="m1238.11 921.482-938.124-900.6464 1.206-1.1579 938.118 900.6463z"/><path d="m931.084 921.482-938.11919-900.6464 1.20609-1.1579 938.1191 900.6463z"/><path d="m1176.7 921.482-938.118-900.6464 1.206-1.1579 938.122 900.6463z"/><path d="m1053.89 921.481-938.116-900.6454 1.206-1.1579 938.12 900.6453z"/><path d="m1299.51 921.482-938.12-900.6464 1.206-1.1579 938.114 900.6463z"/></g><path d="m.5 79.0859h379v59.0001h-379z" stroke="#d0d0d0"/><path d="m22.8 78.5859v60.0001h-22.8v-60.0001z" fill="#0f0b47"/><path d="m21.96 51.934c11.808 0 19.656-6.696 19.656-17.208 0-10.08-7.56-15.696-16.344-15.696-4.032 0-7.2 1.296-9.648 3.024l.288-10.944h23.04v-9.57596h-32.832l-.72 26.71196 7.128 2.88c2.664-2.016 5.832-3.24 9.576-3.24 5.4 0 8.928 2.88 8.928 7.2 0 4.248-3.384 7.56-9 7.56-4.752 0-9.216-2.304-12.96-5.832l-6.264 7.488c4.608 4.608 10.872 7.632 19.152 7.632zm35.2131-.072c3.528 0 6.408-3.024 6.408-6.696 0-3.384-2.88-6.408-6.408-6.408-3.816 0-6.696 3.024-6.696 6.408 0 3.672 2.88 6.696 6.696 6.696zm35.339 0c10.8719 0 19.8719-5.112 19.8719-14.112 0-5.688-3.888-10.008-9.72-12.312 4.968-2.16 8.496-5.76 8.496-11.304 0-8.49596-8.784-13.463957-18.6479-13.463957-9.648 0-18.576 4.752007-18.576 13.463957 0 5.616 3.528 9.216 8.424 11.304-5.688 2.16-9.72 6.48-9.72 12.312 0 8.928 8.928 14.112 19.872 14.112zm0-30.096c-3.888-.288-7.992-2.448-7.992-6.264 0-3.384 3.24-5.90396 7.992-5.90396s8.0639 2.51996 8.0639 5.90396c0 3.672-4.1759 5.976-8.0639 6.264zm0 21.168c-5.256 0-9.072-2.592-9.072-6.336 0-3.888 4.824-6.336 9.072-6.48 4.248.144 9.1439 2.592 9.1439 6.48 0 3.744-3.8879 6.336-9.1439 6.336zm39.4939-16.56c7.272 0 12.384-5.544 12.384-12.672 0-6.98395-4.896-12.67195-12.384-12.67195-7.416 0-12.312 5.61599-12.312 12.74395 0 7.056 4.896 12.6 12.312 12.6zm-5.832 24.624h8.28l34.416-49.46396h-8.352zm5.832-30.816c-2.952 0-5.256-2.592-5.256-6.48 0-3.88796 2.16-6.40796 5.256-6.40796 3.024 0 5.256 2.592 5.256 6.40796 0 3.96-2.232 6.48-5.256 6.48zm30.888 31.608c7.272 0 12.312-5.544 12.312-12.672 0-6.984-4.824-12.672-12.312-12.672-7.344 0-12.384 5.616-12.384 12.672s5.04 12.672 12.384 12.672zm0-6.264c-3.024 0-5.256-2.592-5.256-6.408 0-3.96 2.16-6.48 5.256-6.48 2.952 0 5.256 2.592 5.256 6.48s-2.16 6.408-5.256 6.408z" fill="#5c2cff"/><path d="m3.76 175.12v-8.864h-2.368v10.992h7.84v-2.128zm15.846-6.736v-2.128h-8.464v10.992h2.368v-4.352h5.536v-2.128h-5.536v-2.384zm11.2274 4.528h2.544v1.68c-.608.448-1.392.704-2.128.704-1.888 0-3.472-1.632-3.472-3.552 0-1.904 1.584-3.536 3.472-3.536 1.008 0 2.064.48 2.72 1.232l1.712-1.536c-1.088-1.152-2.8-1.84-4.432-1.84-3.2 0-5.904 2.592-5.904 5.68s2.704 5.696 5.904 5.696c1.632 0 3.344-.688 4.432-1.84v-4.528h-4.848zm15.6632-4.528v-2.128h-8.464v10.992h8.464v-2.128h-6.096v-2.416h5.536v-2.128h-5.536v-2.192zm2.286 8.864h2.368v-7.104l5.296 7.104h2.368v-10.992h-2.368v7.104l-5.296-7.104h-2.368zm21.2765-8.864v-2.128h-8.464v10.992h8.464v-2.128h-6.096v-2.416h5.536v-2.128h-5.536v-2.192zm11.374 1.584c0-2.176-1.744-3.712-4.144-3.712h-4.944v10.992h2.368v-3.568h1.424l2.512 3.568h2.688l-2.64-3.76c1.648-.48 2.736-1.792 2.736-3.52zm-6.72-1.552h2.336c1.168 0 1.968.608 1.968 1.552s-.8 1.552-1.968 1.552h-2.336zm16.8497 8.832h2.656l-4.48-10.992h-2.64l-4.48 10.992h2.64l.768-1.888h4.768zm-4.784-3.728 1.632-4.016 1.632 4.016zm11.6062 1.6v-8.864h-2.368v10.992h7.84v-2.128zm21.213 1.52-1.728-1.824c.544-.736 1.04-1.584 1.52-2.544l-1.712-.8c-.288.72-.64 1.408-1.056 2.016-.672-.72-1.216-1.328-1.696-1.888 1.728-.8 2.496-1.472 2.496-2.704 0-1.584-1.296-2.784-3.088-2.784-1.744 0-3.12 1.264-3.12 2.8 0 .816.192 1.392.768 2.24-1.664.752-2.368 1.664-2.368 3.104 0 2 1.568 3.184 3.696 3.184 1.248 0 2.288-.416 3.184-1.168l1.184 1.232zm-5.232-8.848c.608 0 1.056.48 1.056 1.12 0 .72-.432 1.056-1.52 1.488-.448-.56-.688-.976-.688-1.488 0-.656.512-1.12 1.152-1.12zm-.768 7.872c-.912 0-1.664-.592-1.664-1.568 0-.64.336-1.152 1.088-1.6.56.656 1.28 1.472 2.256 2.496-.544.416-1.104.672-1.68.672zm20.48 1.584h2.656l-4.48-10.992h-2.64l-4.48 10.992h2.64l.768-1.888h4.768zm-4.784-3.728 1.632-4.016 1.632 4.016zm9.239 3.728h3.952c3.696 0 6.32-2.288 6.32-5.504s-2.624-5.488-6.32-5.488h-3.952zm2.368-2.144v-6.704h1.888c2.096 0 3.584 1.392 3.584 3.344 0 1.968-1.488 3.36-3.584 3.36zm10.022 2.144h2.368v-6.848l3.392 6.208 3.408-6.208v6.848h2.352v-10.992h-2.352l-3.408 6.208-3.392-6.208h-2.368zm14.313 0h2.368v-10.992h-2.368zm5.156 0h2.368v-7.104l5.296 7.104h2.368v-10.992h-2.368v7.104l-5.296-7.104h-2.368zm12.813 0h2.368v-10.992h-2.368zm9.22.192c2.672 0 4.272-1.392 4.272-3.488 0-2.032-1.568-2.736-3.936-3.264-1.696-.384-2.368-.64-2.368-1.44 0-.656.624-1.184 1.616-1.184 1.056 0 2.16.432 3.152 1.232l1.232-1.712c-1.136-.96-2.512-1.52-4.304-1.52-2.416 0-4.08 1.392-4.08 3.424 0 2.128 1.664 2.784 3.984 3.312 1.68.384 2.32.624 2.32 1.408 0 .688-.608 1.232-1.808 1.232-1.392 0-2.576-.544-3.616-1.44l-1.344 1.616c1.28 1.184 2.96 1.824 4.88 1.824zm8.917-.192h2.352v-8.864h3.44v-2.128h-9.216v2.128h3.424zm16.763-7.28c0-2.176-1.744-3.712-4.144-3.712h-4.944v10.992h2.368v-3.568h1.424l2.512 3.568h2.688l-2.64-3.76c1.648-.48 2.736-1.792 2.736-3.52zm-6.72-1.552h2.336c1.168 0 1.968.608 1.968 1.552s-.8 1.552-1.968 1.552h-2.336zm16.85 8.832h2.656l-4.48-10.992h-2.64l-4.48 10.992h2.64l.768-1.888h4.768zm-4.784-3.728 1.632-4.016 1.632 4.016zm11.782 3.728h2.352v-8.864h3.44v-2.128h-9.216v2.128h3.424zm7.675 0h2.368v-10.992h-2.368zm13.124-10.992-3.136 7.744-3.152-7.744h-2.656l4.48 10.992h2.64l4.48-10.992zm12.933 2.128v-2.128h-8.464v10.992h8.464v-2.128h-6.096v-2.416h5.536v-2.128h-5.536v-2.192z" fill="#0f0b47"/></svg>