<svg fill="none" height="183" viewBox="0 0 380 183" width="380" xmlns="http://www.w3.org/2000/svg" xmlns:xlink="http://www.w3.org/1999/xlink"><mask id="a" height="61" maskUnits="userSpaceOnUse" width="380" x="0" y="78"><path d="m0 78.584h380v60h-380z" fill="#5c2cff"/></mask><g clip-rule="evenodd" fill="#d0d0d0" fill-rule="evenodd" mask="url(#a)"><path d="m839.36 921.082-938.4992-900.2488 1.2066-1.1574 938.4996 900.2492z"/><path d="m1084.59 921.48-938.115-900.6463 1.206-1.1579 938.119 900.6462z"/><path d="m961.786 921.48-938.119-900.6463 1.206-1.1579 938.119 900.6462z"/><path d="m1207.4 921.48-938.115-900.6463 1.206-1.1579 938.119 900.6462z"/><path d="m900.381 921.479-938.1193-900.6453 1.2061-1.1579 938.1192 900.6462z"/><path d="m1146 921.48-938.119-900.6463 1.206-1.1579 938.123 900.6462z"/><path d="m1023.19 921.479-938.1187-900.6453 1.206-1.1579 938.1227 900.6462z"/><path d="m1268.81 921.48-938.122-900.6463 1.207-1.1579 938.115 900.6462z"/><path d="m869.679 921.479-938.1185-900.6453 1.2061-1.1579 938.1184 900.6462z"/><path d="m1115.3 921.48-938.122-900.6463 1.206-1.1579 938.116 900.6462z"/><path d="m992.487 921.48-938.1189-900.6463 1.2061-1.1579 938.1188 900.6462z"/><path d="m1238.11 921.48-938.124-900.6463 1.206-1.1579 938.118 900.6462z"/><path d="m931.084 921.48-938.11919-900.6463 1.20609-1.1579 938.1191 900.6462z"/><path d="m1176.7 921.48-938.118-900.6463 1.206-1.1579 938.122 900.6462z"/><path d="m1053.89 921.479-938.116-900.6453 1.206-1.1579 938.12 900.6452z"/><path d="m1299.51 921.48-938.12-900.6463 1.206-1.1579 938.114 900.6462z"/></g><path d="m.5 79.084h379v59h-379z" stroke="#d0d0d0"/><path d="m41 78.584v60h-41v-60z" fill="#0f0b47"/><path d="m14.328 50.9961h10.584v-49.46401h-8.496l-14.832 9.93601 4.32 7.488 8.424-5.256zm42.3135.864c13.032 0 22.176-10.584 22.176-25.632 0-14.976-9.144-25.560011-22.176-25.560011s-22.248 10.584011-22.248 25.560011c0 15.048 9.216 25.632 22.248 25.632zm0-9.648c-6.624 0-11.304-6.696-11.304-15.984s4.68-15.912 11.304-15.912 11.304 6.624 11.304 15.912-4.68 15.984-11.304 15.984zm38.0081 9.648c3.528 0 6.4084-3.024 6.4084-6.696 0-3.384-2.8804-6.408-6.4084-6.408-3.816 0-6.696 3.024-6.696 6.408 0 3.672 2.88 6.696 6.696 6.696zm35.3394 0c10.872 0 19.872-5.112 19.872-14.112 0-5.688-3.888-10.008-9.72-12.312 4.968-2.16 8.496-5.76 8.496-11.304 0-8.49601-8.784-13.464011-18.648-13.464011-9.648 0-18.576 4.752001-18.576 13.464011 0 5.616 3.528 9.216 8.424 11.304-5.688 2.16-9.72 6.48-9.72 12.312 0 8.928 8.928 14.112 19.872 14.112zm0-30.096c-3.888-.288-7.992-2.448-7.992-6.264 0-3.384 3.24-5.90401 7.992-5.90401s8.064 2.52001 8.064 5.90401c0 3.672-4.176 5.976-8.064 6.264zm0 21.168c-5.256 0-9.072-2.592-9.072-6.336 0-3.888 4.824-6.336 9.072-6.48 4.248.144 9.144 2.592 9.144 6.48 0 3.744-3.888 6.336-9.144 6.336zm39.494-16.56c7.272 0 12.384-5.544 12.384-12.672 0-6.98401-4.896-12.67201-12.384-12.67201-7.416 0-12.312 5.616-12.312 12.74401 0 7.056 4.896 12.6 12.312 12.6zm-5.832 24.624h8.28l34.416-49.46401h-8.352zm5.832-30.816c-2.952 0-5.256-2.592-5.256-6.48 0-3.88801 2.16-6.40801 5.256-6.40801 3.024 0 5.256 2.592 5.256 6.40801 0 3.96-2.232 6.48-5.256 6.48zm30.888 31.608c7.272 0 12.312-5.544 12.312-12.672 0-6.984-4.824-12.672-12.312-12.672-7.344 0-12.384 5.616-12.384 12.672s5.04 12.672 12.384 12.672zm0-6.264c-3.024 0-5.256-2.592-5.256-6.408 0-3.96 2.16-6.48 5.256-6.48 2.952 0 5.256 2.592 5.256 6.48s-2.16 6.408-5.256 6.408z" fill="#5c2cff"/><path d="m3.76 175.118v-8.864h-2.368v10.992h7.84v-2.128zm15.846-6.736v-2.128h-8.464v10.992h8.464v-2.128h-6.096v-2.416h5.536v-2.128h-5.536v-2.192zm10.238 8.864h2.656l-4.48-10.992h-2.64l-4.48 10.992h2.64l.768-1.888h4.768zm-4.784-3.728 1.632-4.016 1.632 4.016zm9.2383 3.728h3.952c3.6959 0 6.32-2.288 6.32-5.504s-2.6241-5.488-6.32-5.488h-3.952zm2.368-2.144v-6.704h1.888c2.096 0 3.584 1.392 3.584 3.344 0 1.968-1.488 3.36-3.584 3.36zm18.4866-6.72v-2.128h-8.464v10.992h8.464v-2.128h-6.096v-2.416h5.536v-2.128h-5.536v-2.192zm11.374 1.584c0-2.176-1.744-3.712-4.144-3.712h-4.944v10.992h2.368v-3.568h1.424l2.512 3.568h2.688l-2.64-3.76c1.648-.48 2.736-1.792 2.736-3.52zm-6.72-1.552h2.336c1.168 0 1.968.608 1.968 1.552s-.8 1.552-1.968 1.552h-2.336zm12.9616 9.024c2.672 0 4.272-1.392 4.272-3.488 0-2.032-1.568-2.736-3.936-3.264-1.696-.384-2.368-.64-2.368-1.44 0-.656.624-1.184 1.616-1.184 1.056 0 2.16.432 3.152 1.232l1.232-1.712c-1.136-.96-2.512-1.52-4.304-1.52-2.416 0-4.08 1.392-4.08 3.424 0 2.128 1.664 2.784 3.984 3.312 1.68.384 2.32.624 2.32 1.408 0 .688-.608 1.232-1.808 1.232-1.392 0-2.576-.544-3.616-1.44l-1.344 1.616c1.28 1.184 2.96 1.824 4.88 1.824zm13.7495-11.184v4.32h-5.008v-4.32h-2.368v10.992h2.368v-4.544h5.008v4.544h2.352v-10.992zm5.1553 10.992h2.368v-10.992h-2.368zm5.1562 0h2.368v-3.568h2.5765c2.4 0 4.144-1.536 4.144-3.712s-1.744-3.712-4.144-3.712h-4.9445zm2.368-5.728v-3.104h2.3365c1.168 0 1.968.608 1.968 1.552s-.8 1.552-1.968 1.552zm22.5885 5.12-1.728-1.824c.544-.736 1.04-1.584 1.52-2.544l-1.712-.8c-.288.72-.64 1.408-1.056 2.016-.672-.72-1.216-1.328-1.696-1.888 1.728-.8 2.496-1.472 2.496-2.704 0-1.584-1.296-2.784-3.088-2.784-1.744 0-3.12 1.264-3.12 2.8 0 .816.192 1.392.768 2.24-1.664.752-2.368 1.664-2.368 3.104 0 2 1.568 3.184 3.696 3.184 1.248 0 2.288-.416 3.184-1.168l1.184 1.232zm-5.232-8.848c.608 0 1.056.48 1.056 1.12 0 .72-.432 1.056-1.52 1.488-.448-.56-.688-.976-.688-1.488 0-.656.512-1.12 1.152-1.12zm-.768 7.872c-.912 0-1.664-.592-1.664-1.568 0-.64.336-1.152 1.088-1.6.56.656 1.28 1.472 2.256 2.496-.544.416-1.104.672-1.68.672zm17.728 1.776c1.664 0 3.184-.72 4.256-1.84l-1.712-1.536c-.624.736-1.536 1.232-2.544 1.232-1.856 0-3.424-1.632-3.424-3.552 0-1.904 1.568-3.536 3.424-3.536.992 0 1.92.496 2.544 1.232l1.712-1.536c-1.072-1.136-2.592-1.84-4.256-1.84-3.168 0-5.856 2.592-5.856 5.68s2.688 5.696 5.856 5.696zm11.359 0c3.168 0 5.824-2.608 5.824-5.696s-2.656-5.68-5.824-5.68-5.856 2.592-5.856 5.68 2.688 5.696 5.856 5.696zm0-2.144c-1.856 0-3.424-1.632-3.424-3.552 0-1.904 1.568-3.536 3.424-3.536 1.84 0 3.408 1.632 3.408 3.536 0 1.92-1.568 3.552-3.408 3.552zm13.172 2.144c3.168 0 5.824-2.608 5.824-5.696s-2.656-5.68-5.824-5.68-5.856 2.592-5.856 5.68 2.688 5.696 5.856 5.696zm0-2.144c-1.856 0-3.424-1.632-3.424-3.552 0-1.904 1.568-3.536 3.424-3.536 1.84 0 3.408 1.632 3.408 3.536 0 1.92-1.568 3.552-3.408 3.552zm17.06-5.328c0-2.176-1.744-3.712-4.144-3.712h-4.944v10.992h2.368v-3.568h1.424l2.512 3.568h2.688l-2.64-3.76c1.648-.48 2.736-1.792 2.736-3.52zm-6.72-1.552h2.336c1.168 0 1.968.608 1.968 1.552s-.8 1.552-1.968 1.552h-2.336zm8.898 8.832h3.952c3.696 0 6.32-2.288 6.32-5.504s-2.624-5.488-6.32-5.488h-3.952zm2.368-2.144v-6.704h1.888c2.096 0 3.584 1.392 3.584 3.344 0 1.968-1.488 3.36-3.584 3.36zm10.022 2.144h2.368v-10.992h-2.368zm5.157 0h2.368v-7.104l5.296 7.104h2.368v-10.992h-2.368v7.104l-5.296-7.104h-2.368zm20.764 0h2.656l-4.48-10.992h-2.64l-4.48 10.992h2.64l.768-1.888h4.768zm-4.784-3.728 1.632-4.016 1.632 4.016zm11.782 3.728h2.352v-8.864h3.44v-2.128h-9.216v2.128h3.424zm7.675 0h2.368v-10.992h-2.368zm10.356.192c3.168 0 5.824-2.608 5.824-5.696s-2.656-5.68-5.824-5.68-5.856 2.592-5.856 5.68 2.688 5.696 5.856 5.696zm0-2.144c-1.856 0-3.424-1.632-3.424-3.552 0-1.904 1.568-3.536 3.424-3.536 1.84 0 3.408 1.632 3.408 3.536 0 1.92-1.568 3.552-3.408 3.552zm7.972 1.952h2.368v-7.104l5.296 7.104h2.368v-10.992h-2.368v7.104l-5.296-7.104h-2.368z" fill="#0f0b47"/></svg>