<svg fill="none" height="183" viewBox="0 0 380 183" width="380" xmlns="http://www.w3.org/2000/svg" xmlns:xlink="http://www.w3.org/1999/xlink"><mask id="a" height="61" maskUnits="userSpaceOnUse" width="380" x="0" y="78"><path d="m0 78.584h380v60h-380z" fill="#5c2cff"/></mask><g clip-rule="evenodd" fill="#d0d0d0" fill-rule="evenodd" mask="url(#a)"><path d="m839.36 921.082-938.4992-900.2488 1.2066-1.1574 938.4996 900.2492z"/><path d="m1084.59 921.48-938.115-900.6463 1.206-1.1579 938.119 900.6462z"/><path d="m961.786 921.48-938.119-900.6463 1.206-1.1579 938.119 900.6462z"/><path d="m1207.4 921.48-938.115-900.6463 1.206-1.1579 938.119 900.6462z"/><path d="m900.381 921.479-938.1193-900.6453 1.2061-1.1579 938.1192 900.6462z"/><path d="m1146 921.48-938.119-900.6463 1.206-1.1579 938.123 900.6462z"/><path d="m1023.19 921.479-938.1187-900.6453 1.206-1.1579 938.1227 900.6462z"/><path d="m1268.81 921.48-938.122-900.6463 1.207-1.1579 938.115 900.6462z"/><path d="m869.679 921.479-938.1185-900.6453 1.2061-1.1579 938.1184 900.6462z"/><path d="m1115.3 921.48-938.122-900.6463 1.206-1.1579 938.116 900.6462z"/><path d="m992.487 921.48-938.1189-900.6463 1.2061-1.1579 938.1188 900.6462z"/><path d="m1238.11 921.48-938.124-900.6463 1.206-1.1579 938.118 900.6462z"/><path d="m931.084 921.48-938.11919-900.6463 1.20609-1.1579 938.1191 900.6462z"/><path d="m1176.7 921.48-938.118-900.6463 1.206-1.1579 938.122 900.6462z"/><path d="m1053.89 921.479-938.116-900.6453 1.206-1.1579 938.12 900.6452z"/><path d="m1299.51 921.48-938.12-900.6463 1.206-1.1579 938.114 900.6462z"/></g><path d="m.5 79.084h379v59h-379z" stroke="#d0d0d0"/><path d="m192 78.584v60h-192v-60z" fill="#0f0b47"/><path d="m21.96 51.9321c11.808 0 19.656-6.696 19.656-17.208 0-10.08-7.56-15.696-16.344-15.696-4.032 0-7.2 1.296-9.648 3.024l.288-10.944h23.04v-9.57601h-32.832l-.72 26.71201 7.128 2.88c2.664-2.016 5.832-3.24 9.576-3.24 5.4 0 8.928 2.88 8.928 7.2 0 4.248-3.384 7.56-9 7.56-4.752 0-9.216-2.304-12.96-5.832l-6.264 7.488c4.608 4.608 10.872 7.632 19.152 7.632zm48.5331-.072c13.032 0 22.176-10.584 22.176-25.632 0-14.976-9.144-25.560011-22.176-25.560011s-22.248 10.584011-22.248 25.560011c0 15.048 9.216 25.632 22.248 25.632zm0-9.648c-6.624 0-11.304-6.696-11.304-15.984s4.68-15.912 11.304-15.912 11.304 6.624 11.304 15.912-4.68 15.984-11.304 15.984zm38.0079 9.648c3.528 0 6.408-3.024 6.408-6.696 0-3.384-2.88-6.408-6.408-6.408-3.816 0-6.696 3.024-6.696 6.408 0 3.672 2.88 6.696 6.696 6.696zm34.115.072c11.808 0 19.656-6.696 19.656-17.208 0-10.08-7.56-15.696-16.344-15.696-4.032 0-7.2 1.296-9.648 3.024l.288-10.944h23.04v-9.57601h-32.832l-.72 26.71201 7.128 2.88c2.664-2.016 5.832-3.24 9.576-3.24 5.4 0 8.928 2.88 8.928 7.2 0 4.248-3.384 7.56-9 7.56-4.752 0-9.216-2.304-12.96-5.832l-6.264 7.488c4.608 4.608 10.872 7.632 19.152 7.632zm39.101-25.56c7.272 0 12.384-5.544 12.384-12.672 0-6.98401-4.896-12.67201-12.384-12.67201-7.416 0-12.312 5.616-12.312 12.74401 0 7.056 4.896 12.6 12.312 12.6zm-5.832 24.624h8.28l34.416-49.46401h-8.352zm5.832-30.816c-2.952 0-5.256-2.592-5.256-6.48 0-3.88801 2.16-6.40801 5.256-6.40801 3.024 0 5.256 2.592 5.256 6.40801 0 3.96-2.232 6.48-5.256 6.48zm30.888 31.608c7.272 0 12.312-5.544 12.312-12.672 0-6.984-4.824-12.672-12.312-12.672-7.344 0-12.384 5.616-12.384 12.672s5.04 12.672 12.384 12.672zm0-6.264c-3.024 0-5.256-2.592-5.256-6.408 0-3.96 2.16-6.48 5.256-6.48 2.952 0 5.256 2.592 5.256 6.48s-2.16 6.408-5.256 6.408z" fill="#5c2cff"/><path d="m9.856 168.382v-2.128h-8.464v10.992h8.464v-2.128h-6.096v-2.416h5.536v-2.128h-5.536v-2.192zm10.254-2.128-3.136 7.744-3.152-7.744h-2.656l4.48 10.992h2.64l4.48-10.992zm12.9335 2.128v-2.128h-8.464v10.992h8.464v-2.128h-6.096v-2.416h5.536v-2.128h-5.536v-2.192zm2.286 8.864h2.368v-7.104l5.296 7.104h2.368v-10.992h-2.368v7.104l-5.296-7.104h-2.368zm15.3565 0h2.352v-8.864h3.44v-2.128h-9.216v2.128h3.424zm11.7388.192c2.672 0 4.272-1.392 4.272-3.488 0-2.032-1.568-2.736-3.936-3.264-1.696-.384-2.368-.64-2.368-1.44 0-.656.624-1.184 1.616-1.184 1.056 0 2.16.432 3.152 1.232l1.232-1.712c-1.136-.96-2.512-1.52-4.304-1.52-2.416 0-4.08 1.392-4.08 3.424 0 2.128 1.664 2.784 3.984 3.312 1.68.384 2.32.624 2.32 1.408 0 .688-.608 1.232-1.808 1.232-1.392 0-2.576-.544-3.616-1.44l-1.344 1.616c1.28 1.184 2.96 1.824 4.88 1.824z" fill="#0f0b47"/></svg>