<svg fill="none" height="183" viewBox="0 0 380 183" width="380" xmlns="http://www.w3.org/2000/svg" xmlns:xlink="http://www.w3.org/1999/xlink"><mask id="a" height="61" maskUnits="userSpaceOnUse" width="380" x="0" y="78"><path d="m0 78.584h380v60h-380z" fill="#5c2cff"/></mask><g clip-rule="evenodd" fill="#d0d0d0" fill-rule="evenodd" mask="url(#a)"><path d="m839.36 921.082-938.4992-900.2488 1.2066-1.1574 938.4996 900.2492z"/><path d="m1084.59 921.48-938.115-900.6463 1.206-1.1579 938.119 900.6462z"/><path d="m961.786 921.48-938.119-900.6463 1.206-1.1579 938.119 900.6462z"/><path d="m1207.4 921.48-938.115-900.6463 1.206-1.1579 938.119 900.6462z"/><path d="m900.381 921.479-938.1193-900.6453 1.2061-1.1579 938.1192 900.6462z"/><path d="m1146 921.48-938.119-900.6463 1.206-1.1579 938.123 900.6462z"/><path d="m1023.19 921.479-938.1187-900.6453 1.206-1.1579 938.1227 900.6462z"/><path d="m1268.81 921.48-938.122-900.6463 1.207-1.1579 938.115 900.6462z"/><path d="m869.679 921.479-938.1185-900.6453 1.2061-1.1579 938.1184 900.6462z"/><path d="m1115.3 921.48-938.122-900.6463 1.206-1.1579 938.116 900.6462z"/><path d="m992.487 921.48-938.1189-900.6463 1.2061-1.1579 938.1188 900.6462z"/><path d="m1238.11 921.48-938.124-900.6463 1.206-1.1579 938.118 900.6462z"/><path d="m931.084 921.48-938.11919-900.6463 1.20609-1.1579 938.1191 900.6462z"/><path d="m1176.7 921.48-938.118-900.6463 1.206-1.1579 938.122 900.6462z"/><path d="m1053.89 921.479-938.116-900.6453 1.206-1.1579 938.12 900.6452z"/><path d="m1299.51 921.48-938.12-900.6463 1.206-1.1579 938.114 900.6462z"/></g><path d="m.5 79.084h379v59h-379z" stroke="#d0d0d0"/><path d="m6.8 78.584v60h-6.8v-60z" fill="#0f0b47"/><path d="m14.328 50.9961h10.584v-49.46401h-8.496l-14.832 9.93601 4.32 7.488 8.424-5.256zm28.9935.864c3.528 0 6.408-3.024 6.408-6.696 0-3.384-2.88-6.408-6.408-6.408-3.816 0-6.696 3.024-6.696 6.408 0 3.672 2.88 6.696 6.696 6.696zm15.1071-.864h37.368v-9.576h-20.952l9-6.984c8.64-6.264 11.52-11.376 11.52-18 0-9.28801-7.632-15.768011-18.144-15.768011-7.992 0-14.256 3.456001-19.152 9.648011l6.768 6.552c3.6-4.104 7.272-6.552 12.096-6.552 4.032 0 7.488 2.448 7.488 6.552 0 3.456-1.872 6.696-7.776 11.376l-18.216 14.112zm57.3354-24.624c7.272 0 12.384-5.544 12.384-12.672 0-6.98401-4.896-12.67201-12.384-12.67201-7.416 0-12.312 5.616-12.312 12.74401 0 7.056 4.896 12.6 12.312 12.6zm-5.832 24.624h8.28l34.416-49.46401h-8.352zm5.832-30.816c-2.952 0-5.256-2.592-5.256-6.48 0-3.88801 2.16-6.40801 5.256-6.40801 3.024 0 5.256 2.592 5.256 6.40801 0 3.96-2.232 6.48-5.256 6.48zm30.888 31.608c7.272 0 12.312-5.544 12.312-12.672 0-6.984-4.824-12.672-12.312-12.672-7.344 0-12.384 5.616-12.384 12.672s5.04 12.672 12.384 12.672zm0-6.264c-3.024 0-5.256-2.592-5.256-6.408 0-3.96 2.16-6.48 5.256-6.48 2.952 0 5.256 2.592 5.256 6.48s-2.16 6.408-5.256 6.408z" fill="#5c2cff"/><path d="m3.76 175.118v-8.864h-2.368v10.992h7.84v-2.128zm15.846-6.736v-2.128h-8.464v10.992h8.464v-2.128h-6.096v-2.416h5.536v-2.128h-5.536v-2.192zm7.118 4.528h2.544v1.68c-.608.448-1.392.704-2.128.704-1.888 0-3.472-1.632-3.472-3.552 0-1.904 1.584-3.536 3.472-3.536 1.008 0 2.064.48 2.72 1.232l1.712-1.536c-1.088-1.152-2.8-1.84-4.432-1.84-3.2 0-5.904 2.592-5.904 5.68s2.704 5.696 5.904 5.696c1.632 0 3.344-.688 4.432-1.84v-4.528h-4.848zm15.1513 4.336h2.656l-4.48-10.992h-2.64l-4.48 10.992h2.64l.768-1.888h4.768zm-4.784-3.728 1.632-4.016 1.632 4.016zm11.6062 1.6v-8.864h-2.368v10.992h7.84v-2.128z" fill="#0f0b47"/></svg>