<svg fill="none" height="277" viewBox="0 0 586 277" width="586" xmlns="http://www.w3.org/2000/svg"><path d="m44.0927 234.996h36.33v-9.31h-20.37l8.75-6.79c8.4-6.09 11.2-11.06 11.2-17.5 0-9.03-7.42-15.33-17.64-15.33-7.77 0-13.86 3.36-18.62 9.38l6.58 6.37c3.5-3.99 7.07-6.37 11.76-6.37 3.92 0 7.28 2.38 7.28 6.37 0 3.36-1.82 6.51-7.56 11.06l-17.71 13.72zm46.6429 0h11.6204l19.46-40.32v-7.77h-35.7704v9.31h23.8004zm45.3104.84c3.43 0 6.23-2.94 6.23-6.51 0-3.29-2.8-6.23-6.23-6.23-3.71 0-6.51 2.94-6.51 6.23 0 3.57 2.8 6.51 6.51 6.51zm33.097-49.77c-10.5 0-18.41 6.79-18.41 16.66 0 9.52 7.35 15.26 16.24 15.26 4.55 0 8.96-1.75 11.9-4.62-.91 8.12-5.11 13.37-11.41 13.37-4.06 0-6.86-1.47-9.8-3.92l-4.9 7.84c3.92 3.15 8.75 5.18 14.7 5.18 13.37 0 22.12-10.71 22.12-25.69 0-14-6.44-24.08-20.44-24.08zm.84 23.52c-4.69 0-8.61-2.73-8.61-7.35 0-3.85 3.22-7.42 8.33-7.42 5.39 0 7.98 3.29 8.89 9.17-1.47 3.43-4.69 5.6-8.61 5.6zm38.954 1.47c7.07 0 12.04-5.39 12.04-12.32 0-6.79-4.76-12.32-12.04-12.32-7.21 0-11.97 5.46-11.97 12.39 0 6.86 4.76 12.25 11.97 12.25zm-5.67 23.94h8.05l33.46-48.09h-8.12zm5.67-29.96c-2.87 0-5.11-2.52-5.11-6.3s2.1-6.23 5.11-6.23c2.94 0 5.11 2.52 5.11 6.23 0 3.85-2.17 6.3-5.11 6.3zm30.03 30.73c7.07 0 11.97-5.39 11.97-12.32 0-6.79-4.69-12.32-11.97-12.32-7.14 0-12.04 5.46-12.04 12.32s4.9 12.32 12.04 12.32zm0-6.09c-2.94 0-5.11-2.52-5.11-6.23 0-3.85 2.1-6.3 5.11-6.3 2.87 0 5.11 2.52 5.11 6.3s-2.1 6.23-5.11 6.23z" fill="#5c2cff"/><path d="m65.2466 263.132v-2.128h-8.464v10.992h8.464v-2.128h-6.096v-2.416h5.536v-2.128h-5.536v-2.192zm10.254-2.128-3.136 7.744-3.152-7.744h-2.656l4.48 10.992h2.64l4.48-10.992zm12.9335 2.128v-2.128h-8.464v10.992h8.464v-2.128h-6.096v-2.416h5.536v-2.128h-5.536v-2.192zm2.286 8.864h2.368v-7.104l5.296 7.104h2.3679v-10.992h-2.3679v7.104l-5.296-7.104h-2.368zm15.3569 0h2.352v-8.864h3.44v-2.128h-9.216v2.128h3.424zm21.122-7.28c0-2.176-1.744-3.712-4.144-3.712h-4.944v10.992h2.368v-3.568h1.424l2.512 3.568h2.688l-2.64-3.76c1.648-.48 2.736-1.792 2.736-3.52zm-6.72-1.552h2.336c1.168 0 1.968.608 1.968 1.552s-.8 1.552-1.968 1.552h-2.336zm17.361-.032v-2.128h-8.464v10.992h8.464v-2.128h-6.096v-2.416h5.536v-2.128h-5.536v-2.192zm7.118 4.528h2.544v1.68c-.608.448-1.392.704-2.128.704-1.888 0-3.472-1.632-3.472-3.552 0-1.904 1.584-3.536 3.472-3.536 1.008 0 2.064.48 2.72 1.232l1.712-1.536c-1.088-1.152-2.8-1.84-4.432-1.84-3.2 0-5.904 2.592-5.904 5.68s2.704 5.696 5.904 5.696c1.632 0 3.344-.688 4.432-1.84v-4.528h-4.848zm7.2 4.336h2.368v-10.992h-2.368zm9.22.192c2.672 0 4.272-1.392 4.272-3.488 0-2.032-1.568-2.736-3.936-3.264-1.696-.384-2.368-.64-2.368-1.44 0-.656.624-1.184 1.616-1.184 1.056 0 2.16.432 3.152 1.232l1.232-1.712c-1.136-.96-2.512-1.52-4.304-1.52-2.416 0-4.08 1.392-4.08 3.424 0 2.128 1.664 2.784 3.984 3.312 1.68.384 2.32.624 2.32 1.408 0 .688-.608 1.232-1.808 1.232-1.392 0-2.576-.544-3.616-1.44l-1.344 1.616c1.28 1.184 2.96 1.824 4.88 1.824zm8.917-.192h2.352v-8.864h3.44v-2.128h-9.216v2.128h3.424zm16.763-7.28c0-2.176-1.744-3.712-4.144-3.712h-4.944v10.992h2.368v-3.568h1.424l2.512 3.568h2.688l-2.64-3.76c1.648-.48 2.736-1.792 2.736-3.52zm-6.72-1.552h2.336c1.168 0 1.968.608 1.968 1.552s-.8 1.552-1.968 1.552h-2.336zm16.85 8.832h2.656l-4.48-10.992h-2.64l-4.48 10.992h2.64l.768-1.888h4.768zm-4.784-3.728 1.632-4.016 1.632 4.016zm11.782 3.728h2.352v-8.864h3.44v-2.128h-9.216v2.128h3.424zm7.675 0h2.368v-10.992h-2.368zm10.356.192c3.168 0 5.824-2.608 5.824-5.696s-2.656-5.68-5.824-5.68-5.856 2.592-5.856 5.68 2.688 5.696 5.856 5.696zm0-2.144c-1.856 0-3.424-1.632-3.424-3.552 0-1.904 1.568-3.536 3.424-3.536 1.84 0 3.408 1.632 3.408 3.536 0 1.92-1.568 3.552-3.408 3.552zm7.972 1.952h2.368v-7.104l5.296 7.104h2.368v-10.992h-2.368v7.104l-5.296-7.104h-2.368z" fill="#000"/><path d="m220.025 139.996c-.012-10.554-2.064-20.967-6.073-30.625-3.998-9.6586-9.941-18.5385-17.371-25.9679-7.429-7.4293-16.321-13.3728-25.967-17.3705-9.658-4.0095-20.071-6.0615-30.626-6.0732-10.554.0117-20.967 2.0637-30.625 6.0732-9.6584 3.9977-18.5383 9.9412-25.9677 17.3705-7.4293 7.4294-13.3728 16.3211-17.3705 25.9679-4.0095 9.658-6.0615 20.071-6.0733 30.625h-58.963219c0-18.125 3.573179-36.38 10.578019-53.2084 6.9694-16.8399 17.288-32.2293 30.142-45.0833s28.2434-23.1725 45.0833-30.142c16.8164-6.99303 35.0714-10.566206 53.1964-10.566206 18.114 0 36.381 3.573176 53.209 10.578006 16.84 6.9695 32.229 17.288 45.083 30.142s23.173 28.2434 30.142 45.0833c6.993 16.8286 10.578 35.0836 10.578 53.2086h-58.963z" fill="#c4c4c4"/><path d="m88.9851 78.3198c-9.0096 7.5355-16.4626 17.005-21.4273 27.6182-4.9765 10.614-7.5827 22.241-7.6063 34.057h-58.963219c0-20.295 4.540169-40.7551 13.231319-59.1988 8.6676-18.4791 21.5216-34.8709 37.1587-47.89z" fill="#5c2cff"/><path d="m402.22 235.908c11.27 0 18.55-6.02 18.55-14.35 0-6.37-4.83-10.08-10.08-11.27 5.32-1.54 9.03-5.53 9.03-11.06 0-7.63-6.79-13.16-17.57-13.16-8.54 0-14.28 3.71-18.27 8.54l5.95 6.3c3.22-3.36 6.79-5.6 11.27-5.6 4.76 0 8.12 2.24 8.12 5.74 0 3.43-3.15 5.39-8.4 5.39l-5.53-.07v8.82h5.53c6.44-.07 9.38 1.82 9.38 5.53 0 3.43-3.15 5.88-8.4 5.88-4.83 0-9.38-2.03-12.81-5.67l-6.09 6.86c4.06 4.69 10.71 8.12 19.32 8.12zm44.533-.07c10.57 0 19.32-4.97 19.32-13.72 0-5.53-3.78-9.73-9.45-11.97 4.83-2.1 8.26-5.6 8.26-10.99 0-8.26-8.54-13.09-18.13-13.09-9.38 0-18.06 4.62-18.06 13.09 0 5.46 3.43 8.96 8.19 10.99-5.53 2.1-9.45 6.3-9.45 11.97 0 8.68 8.68 13.72 19.32 13.72zm0-29.26c-3.78-.28-7.77-2.38-7.77-6.09 0-3.29 3.15-5.74 7.77-5.74s7.84 2.45 7.84 5.74c0 3.57-4.06 5.81-7.84 6.09zm0 20.58c-5.11 0-8.82-2.52-8.82-6.16 0-3.78 4.69-6.16 8.82-6.3 4.13.14 8.89 2.52 8.89 6.3 0 3.64-3.78 6.16-8.89 6.16zm38.397-16.1c7.07 0 12.04-5.39 12.04-12.32 0-6.79-4.76-12.32-12.04-12.32-7.21 0-11.97 5.46-11.97 12.39 0 6.86 4.76 12.25 11.97 12.25zm-5.67 23.94h8.05l33.46-48.09h-8.12zm5.67-29.96c-2.87 0-5.11-2.52-5.11-6.3s2.1-6.23 5.11-6.23c2.94 0 5.11 2.52 5.11 6.23 0 3.85-2.17 6.3-5.11 6.3zm30.03 30.73c7.07 0 11.97-5.39 11.97-12.32 0-6.79-4.69-12.32-11.97-12.32-7.14 0-12.04 5.46-12.04 12.32s4.9 12.32 12.04 12.32zm0-6.09c-2.94 0-5.11-2.52-5.11-6.23 0-3.85 2.1-6.3 5.11-6.3 2.87 0 5.11 2.52 5.11 6.3s-2.1 6.23-5.11 6.23z" fill="#5c2cff"/><path d="m373.856 263.134v-2.128h-8.464v10.992h8.464v-2.128h-6.096v-2.416h5.536v-2.128h-5.536v-2.192zm10.254-2.128-3.136 7.744-3.152-7.744h-2.656l4.48 10.992h2.64l4.48-10.992zm12.934 2.128v-2.128h-8.464v10.992h8.464v-2.128h-6.096v-2.416h5.536v-2.128h-5.536v-2.192zm2.286 8.864h2.368v-7.104l5.296 7.104h2.368v-10.992h-2.368v7.104l-5.296-7.104h-2.368zm15.356 0h2.352v-8.864h3.44v-2.128h-9.216v2.128h3.424zm16.098.192c2.672 0 4.272-1.392 4.272-3.488 0-2.032-1.568-2.736-3.936-3.264-1.696-.384-2.368-.64-2.368-1.44 0-.656.624-1.184 1.616-1.184 1.056 0 2.16.432 3.152 1.232l1.232-1.712c-1.136-.96-2.512-1.52-4.304-1.52-2.416 0-4.08 1.392-4.08 3.424 0 2.128 1.664 2.784 3.984 3.312 1.68.384 2.32.624 2.32 1.408 0 .688-.608 1.232-1.808 1.232-1.392 0-2.576-.544-3.616-1.44l-1.344 1.616c1.28 1.184 2.96 1.824 4.88 1.824zm6.374-.192h2.368v-3.568h2.576c2.4 0 4.144-1.536 4.144-3.712s-1.744-3.712-4.144-3.712h-4.944zm2.368-5.728v-3.104h2.336c1.168 0 1.968.608 1.968 1.552s-.8 1.552-1.968 1.552zm13.957 5.92c3.168 0 5.824-2.608 5.824-5.696s-2.656-5.68-5.824-5.68-5.856 2.592-5.856 5.68 2.688 5.696 5.856 5.696zm0-2.144c-1.856 0-3.424-1.632-3.424-3.552 0-1.904 1.568-3.536 3.424-3.536 1.84 0 3.408 1.632 3.408 3.536 0 1.92-1.568 3.552-3.408 3.552zm7.972 1.952h2.368v-7.104l5.296 7.104h2.368v-10.992h-2.368v7.104l-5.296-7.104h-2.368zm16.876.192c2.672 0 4.272-1.392 4.272-3.488 0-2.032-1.568-2.736-3.936-3.264-1.696-.384-2.368-.64-2.368-1.44 0-.656.624-1.184 1.616-1.184 1.056 0 2.16.432 3.152 1.232l1.232-1.712c-1.136-.96-2.512-1.52-4.304-1.52-2.416 0-4.08 1.392-4.08 3.424 0 2.128 1.664 2.784 3.984 3.312 1.68.384 2.32.624 2.32 1.408 0 .688-.608 1.232-1.808 1.232-1.392 0-2.576-.544-3.616-1.44l-1.344 1.616c1.28 1.184 2.96 1.824 4.88 1.824zm11.574 0c3.168 0 5.824-2.608 5.824-5.696s-2.656-5.68-5.824-5.68-5.856 2.592-5.856 5.68 2.688 5.696 5.856 5.696zm0-2.144c-1.856 0-3.424-1.632-3.424-3.552 0-1.904 1.568-3.536 3.424-3.536 1.84 0 3.407 1.632 3.407 3.536 0 1.92-1.567 3.552-3.407 3.552zm17.059-5.328c0-2.176-1.744-3.712-4.144-3.712h-4.944v10.992h2.368v-3.568h1.424l2.512 3.568h2.688l-2.64-3.76c1.648-.48 2.736-1.792 2.736-3.52zm-6.72-1.552h2.336c1.168 0 1.968.608 1.968 1.552s-.8 1.552-1.968 1.552h-2.336zm12.962 9.024c2.672 0 4.272-1.392 4.272-3.488 0-2.032-1.568-2.736-3.936-3.264-1.696-.384-2.368-.64-2.368-1.44 0-.656.624-1.184 1.616-1.184 1.056 0 2.16.432 3.152 1.232l1.232-1.712c-1.136-.96-2.512-1.52-4.304-1.52-2.416 0-4.08 1.392-4.08 3.424 0 2.128 1.664 2.784 3.984 3.312 1.68.384 2.32.624 2.32 1.408 0 .688-.608 1.232-1.808 1.232-1.392 0-2.576-.544-3.616-1.44l-1.344 1.616c1.28 1.184 2.96 1.824 4.88 1.824zm13.75-11.184v4.32h-5.008v-4.32h-2.368v10.992h2.368v-4.544h5.008v4.544h2.352v-10.992zm5.155 10.992h2.368v-10.992h-2.368zm5.156 0h2.368v-3.568h2.576c2.4 0 4.144-1.536 4.144-3.712s-1.744-3.712-4.144-3.712h-4.944zm2.368-5.728v-3.104h2.336c1.168 0 1.968.608 1.968 1.552s-.8 1.552-1.968 1.552z" fill="#000"/><path d="m528.512 138.996c-.011-10.288-2.011-20.438-5.92-29.853-3.897-9.4145-9.69-18.0704-16.932-25.3124s-15.91-13.0356-25.313-16.9325c-9.414-3.9083-19.565-5.9085-29.853-5.92-10.288.0115-20.438 2.0117-29.853 5.92-9.414 3.8969-18.07 9.6905-25.312 16.9325s-13.036 15.9094-16.933 25.3124c-3.908 9.415-5.908 19.565-5.92 29.853h-57.476c0-17.668 3.483-35.463 10.311-51.8663 6.794-16.4151 16.852-31.4164 29.382-43.9462s27.531-22.5881 43.946-29.3818c16.392-6.81669 34.187-10.29975 51.855-10.29975s35.463 3.48306 51.867 10.31125c16.415 6.7937 31.416 16.852 43.946 29.3818s22.588 27.5311 29.382 43.9462c6.816 16.4038 10.311 34.1988 10.311 51.8668h-57.476z" fill="#c4c4c4"/><path d="m421.779 66.4628c-14.403 5.6671-27.094 15.8519-35.83 28.7036-8.794 12.8406-13.484 28.2096-13.473 43.8316h-57.476c.057-6.714.517-13.438 1.494-20.117 1.046-6.667 2.495-13.265 4.472-19.7258 2.023-6.4488 4.472-12.7482 7.368-18.8406 2.955-6.0695 6.334-11.9091 10.105-17.4958 15.15-22.2892 37.037-39.8769 62.166-49.7973l21.174 53.4298z" fill="#5c2cff"/></svg>