<svg fill="none" height="277" viewBox="0 0 585 277" width="585" xmlns="http://www.w3.org/2000/svg"><path d="m67.927 234.996h11.62l19.46-40.32v-7.77h-35.77v9.31h23.8zm45.31.84c3.43 0 6.23-2.94 6.23-6.51 0-3.29-2.8-6.23-6.23-6.23-3.71 0-6.51 2.94-6.51 6.23 0 3.57 2.8 6.51 6.51 6.51zm25.748-.84h10.29v-48.09h-8.26l-14.42 9.66 4.2 7.28 8.19-5.11zm31.968-23.94c7.07 0 12.04-5.39 12.04-12.32 0-6.79-4.76-12.32-12.04-12.32-7.21 0-11.97 5.46-11.97 12.39 0 6.86 4.76 12.25 11.97 12.25zm-5.67 23.94h8.05l33.46-48.09h-8.12zm5.67-29.96c-2.87 0-5.11-2.52-5.11-6.3s2.1-6.23 5.11-6.23c2.94 0 5.11 2.52 5.11 6.23 0 3.85-2.17 6.3-5.11 6.3zm30.03 30.73c7.07 0 11.97-5.39 11.97-12.32 0-6.79-4.69-12.32-11.97-12.32-7.14 0-12.04 5.46-12.04 12.32s4.9 12.32 12.04 12.32zm0-6.09c-2.94 0-5.11-2.52-5.11-6.23 0-3.85 2.1-6.3 5.11-6.3 2.87 0 5.11 2.52 5.11 6.3s-2.1 6.23-5.11 6.23z" fill="#5c2cff"/><path d="m102.006 271.996h2.352v-8.864h3.44v-2.128h-9.2157v2.128h3.4237zm16.763-7.28c0-2.176-1.744-3.712-4.144-3.712h-4.944v10.992h2.368v-3.568h1.424l2.512 3.568h2.688l-2.64-3.76c1.648-.48 2.736-1.792 2.736-3.52zm-6.72-1.552h2.336c1.168 0 1.968.608 1.968 1.552s-.8 1.552-1.968 1.552h-2.336zm16.85 8.832h2.656l-4.48-10.992h-2.64l-4.48 10.992h2.64l.768-1.888h4.768zm-4.784-3.728 1.632-4.016 1.632 4.016zm9.238 3.728h2.368v-10.992h-2.368zm5.156 0h2.368v-7.104l5.296 7.104h2.368v-10.992h-2.368v7.104l-5.296-7.104h-2.368zm12.813 0h2.368v-10.992h-2.368zm5.156 0h2.368v-7.104l5.296 7.104h2.368v-10.992h-2.368v7.104l-5.296-7.104h-2.368zm17.644-4.336h2.544v1.68c-.608.448-1.392.704-2.128.704-1.888 0-3.472-1.632-3.472-3.552 0-1.904 1.584-3.536 3.472-3.536 1.008 0 2.064.48 2.72 1.232l1.712-1.536c-1.088-1.152-2.8-1.84-4.432-1.84-3.2 0-5.904 2.592-5.904 5.68s2.704 5.696 5.904 5.696c1.632 0 3.344-.688 4.432-1.84v-4.528h-4.848z" fill="#000"/><path d="m219.027 139.984c-.011-10.553-2.063-20.965-6.073-30.623-3.997-9.657-9.94-18.5361-17.369-25.9648-7.429-7.4288-16.321-13.3718-25.967-17.3691-9.657-4.0092-20.07-6.061-30.624-6.0727-10.554.0117-20.966 2.0635-30.624 6.0727-9.6579 3.9973-18.5374 9.9403-25.9664 17.3691-7.4291 7.4287-13.3723 16.3196-17.3699 25.9648-4.0093 9.658-6.0611 20.07-6.0729 30.623h-58.9608c0-18.123 3.57302-36.377 10.5776-53.2036 6.9691-16.8385 17.2873-32.2266 30.1407-45.0795 12.8535-12.8529 28.2422-23.1706 45.0814-30.1395 16.8153-6.99244 35.0703-10.565306 53.1943-10.565306 18.125 0 36.379 3.572866 53.206 10.577106 16.84 6.9689 32.228 17.2866 45.082 30.1395 12.853 12.8529 23.171 28.241 30.14 45.0795 6.993 16.8268 10.578 35.0798 10.578 53.2038h-58.961z" fill="#c4c4c4"/><path d="m61 122.678c-1.2755 5.652-1.9369 11.456-1.9487 17.318h-59.0513c0-10.043 1.12197-20.144 3.35411-30z" fill="#5c2cff"/><path d="m344.961 234.996h36.33v-9.31h-20.37l8.75-6.79c8.4-6.09 11.2-11.06 11.2-17.5 0-9.03-7.42-15.33-17.64-15.33-7.77 0-13.86 3.36-18.62 9.38l6.58 6.37c3.5-3.99 7.07-6.37 11.76-6.37 3.92 0 7.28 2.38 7.28 6.37 0 3.36-1.82 6.51-7.56 11.06l-17.71 13.72zm66.033-31.08c-4.55 0-8.96 1.75-11.9 4.62.91-8.12 5.11-13.37 11.41-13.37 4.06 0 6.86 1.47 9.8 3.92l4.9-7.84c-3.92-3.15-8.75-5.18-14.7-5.18-13.37 0-22.12 10.71-22.12 25.69 0 14 6.44 24.08 20.44 24.08 10.5 0 18.41-6.79 18.41-16.66 0-9.52-7.35-15.26-16.24-15.26zm-2.73 23.17c-5.39 0-7.98-3.29-8.89-9.17 1.47-3.43 4.69-5.6 8.61-5.6 4.69 0 8.61 2.73 8.61 7.35 0 3.85-3.22 7.42-8.33 7.42zm33.914 8.75c3.43 0 6.23-2.94 6.23-6.51 0-3.29-2.8-6.23-6.23-6.23-3.71 0-6.51 2.94-6.51 6.23 0 3.57 2.8 6.51 6.51 6.51zm33.097-49.77c-10.5 0-18.41 6.79-18.41 16.66 0 9.52 7.35 15.26 16.24 15.26 4.55 0 8.96-1.75 11.9-4.62-.91 8.12-5.11 13.37-11.41 13.37-4.06 0-6.86-1.47-9.8-3.92l-4.9 7.84c3.92 3.15 8.75 5.18 14.7 5.18 13.37 0 22.12-10.71 22.12-25.69 0-14-6.44-24.08-20.44-24.08zm.84 23.52c-4.69 0-8.61-2.73-8.61-7.35 0-3.85 3.22-7.42 8.33-7.42 5.39 0 7.98 3.29 8.89 9.17-1.47 3.43-4.69 5.6-8.61 5.6zm38.954 1.47c7.07 0 12.04-5.39 12.04-12.32 0-6.79-4.76-12.32-12.04-12.32-7.21 0-11.97 5.46-11.97 12.39 0 6.86 4.76 12.25 11.97 12.25zm-5.67 23.94h8.05l33.46-48.09h-8.12zm5.67-29.96c-2.87 0-5.11-2.52-5.11-6.3s2.1-6.23 5.11-6.23c2.94 0 5.11 2.52 5.11 6.23 0 3.85-2.17 6.3-5.11 6.3zm30.03 30.73c7.07 0 11.97-5.39 11.97-12.32 0-6.79-4.69-12.32-11.97-12.32-7.14 0-12.04 5.46-12.04 12.32s4.9 12.32 12.04 12.32zm0-6.09c-2.94 0-5.11-2.52-5.11-6.23 0-3.85 2.1-6.3 5.11-6.3 2.87 0 5.11 2.52 5.11 6.3s-2.1 6.23-5.11 6.23z" fill="#5c2cff"/><path d="m396.798 271.996h2.368v-6.848l3.392 6.208 3.408-6.208v6.848h2.352v-10.992h-2.352l-3.408 6.208-3.392-6.208h-2.368zm22.777-8.864v-2.128h-8.464v10.992h8.464v-2.128h-6.096v-2.416h5.536v-2.128h-5.536v-2.192zm2.286 8.864h2.368v-6.848l3.392 6.208 3.408-6.208v6.848h2.352v-10.992h-2.352l-3.408 6.208-3.392-6.208h-2.368zm14.312 0h5.792c2.096 0 3.6-1.216 3.6-2.976 0-1.216-.736-2.24-2.016-2.816.976-.512 1.536-1.328 1.536-2.448 0-1.6-1.376-2.752-3.344-2.752h-5.568zm2.352-6.56v-2.416h2.64c.88 0 1.504.512 1.504 1.2 0 .704-.624 1.216-1.504 1.216zm0 4.544v-2.688h2.992c.96 0 1.632.56 1.632 1.344s-.672 1.344-1.632 1.344zm17.659-6.848v-2.128h-8.464v10.992h8.464v-2.128h-6.096v-2.416h5.536v-2.128h-5.536v-2.192zm11.374 1.584c0-2.176-1.744-3.712-4.144-3.712h-4.944v10.992h2.368v-3.568h1.424l2.512 3.568h2.688l-2.64-3.76c1.648-.48 2.736-1.792 2.736-3.52zm-6.72-1.552h2.336c1.168 0 1.968.608 1.968 1.552s-.8 1.552-1.968 1.552h-2.336zm12.962 9.024c2.672 0 4.272-1.392 4.272-3.488 0-2.032-1.568-2.736-3.936-3.264-1.696-.384-2.368-.64-2.368-1.44 0-.656.624-1.184 1.616-1.184 1.056 0 2.16.432 3.152 1.232l1.232-1.712c-1.136-.96-2.512-1.52-4.304-1.52-2.416 0-4.08 1.392-4.08 3.424 0 2.128 1.664 2.784 3.984 3.312 1.68.384 2.32.624 2.32 1.408 0 .688-.608 1.232-1.808 1.232-1.392 0-2.576-.544-3.616-1.44l-1.344 1.616c1.28 1.184 2.96 1.824 4.88 1.824zm13.749-11.184v4.32h-5.008v-4.32h-2.368v10.992h2.368v-4.544h5.008v4.544h2.352v-10.992zm5.156 10.992h2.368v-10.992h-2.368zm5.156 0h2.368v-3.568h2.576c2.4 0 4.144-1.536 4.144-3.712s-1.744-3.712-4.144-3.712h-4.944zm2.368-5.728v-3.104h2.336c1.168 0 1.968.608 1.968 1.552s-.8 1.552-1.968 1.552z" fill="#000"/><path d="m526.237 139.996c-.012-10.554-2.056-20.967-6.051-30.625-3.984-9.6586-9.906-18.5385-17.308-25.9679-7.403-7.4293-16.263-13.3728-25.874-17.3705-9.624-4.0095-19.999-6.0615-30.516-6.0732-10.516.0117-20.892 2.0637-30.515 6.0732-9.624 3.9977-18.471 9.9412-25.874 17.3705-7.403 7.4294-13.325 16.3211-17.308 25.9679-3.995 9.658-6.04 20.071-6.052 30.625h-58.751c0-18.125 3.561-36.38 10.54-53.2084 6.945-16.8399 17.226-32.2293 30.034-45.0833s28.142-23.1725 44.921-30.142c16.756-6.99303 34.945-10.566206 53.005-10.566206s36.25 3.573176 53.017 10.578006c16.78 6.9695 32.114 17.288 44.921 30.142 12.808 12.854 23.09 28.2434 30.034 45.0833 6.968 16.8286 10.54 35.0836 10.54 53.2086h-58.751z" fill="#c4c4c4"/><path d="m393.777 79.9724c-8.507 7.4648-15.346 16.8164-19.976 27.1116-4.641 10.295-7.061 21.521-7.061 32.913h-58.752c-.023-19.576 4.183-39.305 12.279-57.2179 8.073-17.9366 19.941-34.0808 34.64-47.0291l38.87 44.2107z" fill="#5c2cff"/></svg>