<svg fill="none" height="222" viewBox="0 0 387 222" width="387" xmlns="http://www.w3.org/2000/svg" xmlns:xlink="http://www.w3.org/1999/xlink"><mask id="a" height="61" maskUnits="userSpaceOnUse" width="305" x="76" y="78"><path d="m76 78.3379h305v60.0001h-305z" fill="#5c2cff"/></mask><path d="m6.69715 54h36.32995v-9.31h-20.3699l8.75-6.79c8.3999-6.09 11.1999-11.06 11.1999-17.5 0-9.03-7.42-15.33-17.64-15.33-7.77 0-13.86 3.36-18.61995 9.38l6.57995 6.37c3.5-3.99 7.07-6.37 11.76-6.37 3.92 0 7.28 2.38 7.28 6.37 0 3.36-1.82 6.51-7.56 11.06l-17.70995 13.72zm64.91295.84c12.67 0 21.56-10.29 21.56-24.92 0-14.56-8.89-24.85-21.56-24.85s-21.63 10.29-21.63 24.85c0 14.63 8.96 24.92 21.63 24.92zm0-9.38c-6.44 0-10.99-6.51-10.99-15.54s4.55-15.47 10.99-15.47 10.99 6.44 10.99 15.47-4.55 15.54-10.99 15.54zm34.4039-29.824c4.242 0 7.224-3.234 7.224-7.392 0-4.074-2.856-7.392-7.224-7.392-4.326 0-7.1815 3.276-7.1815 7.434 0 4.116 2.8555 7.35 7.1815 7.35zm-3.402 14.364h4.83l20.076-28.854h-4.872zm3.402-17.976c-1.722 0-3.066-1.512-3.066-3.78s1.26-3.738 3.066-3.738c1.764 0 3.066 1.512 3.066 3.738 0 2.31-1.302 3.78-3.066 3.78zm18.018 18.438c4.242 0 7.182-3.234 7.182-7.392 0-4.074-2.814-7.392-7.182-7.392-4.284 0-7.224 3.276-7.224 7.392s2.94 7.392 7.224 7.392zm0-3.654c-1.764 0-3.066-1.512-3.066-3.738 0-2.31 1.26-3.78 3.066-3.78 1.722 0 3.066 1.512 3.066 3.78s-1.26 3.738-3.066 3.738z" fill="#0f0b47"/><path d="m252.367 214.84c10.57 0 19.32-4.97 19.32-13.72 0-5.53-3.78-9.73-9.45-11.97 4.83-2.1 8.26-5.6 8.26-10.99 0-8.26-8.54-13.09-18.13-13.09-9.38 0-18.06 4.62-18.06 13.09 0 5.46 3.43 8.96 8.19 10.99-5.53 2.1-9.45 6.3-9.45 11.97 0 8.68 8.68 13.72 19.32 13.72zm0-29.26c-3.78-.28-7.77-2.38-7.77-6.09 0-3.29 3.15-5.74 7.77-5.74s7.84 2.45 7.84 5.74c0 3.57-4.06 5.81-7.84 6.09zm0 20.58c-5.11 0-8.82-2.52-8.82-6.16 0-3.78 4.69-6.16 8.82-6.3 4.13.14 8.89 2.52 8.89 6.3 0 3.64-3.78 6.16-8.89 6.16zm47.567 8.68c12.67 0 21.56-10.29 21.56-24.92 0-14.56-8.89-24.85-21.56-24.85s-21.63 10.29-21.63 24.85c0 14.63 8.96 24.92 21.63 24.92zm0-9.38c-6.44 0-10.99-6.51-10.99-15.54s4.55-15.47 10.99-15.47 10.99 6.44 10.99 15.47-4.55 15.54-10.99 15.54zm40.733-15.4c7.07 0 12.04-5.39 12.04-12.32 0-6.79-4.76-12.32-12.04-12.32-7.21 0-11.97 5.46-11.97 12.39 0 6.86 4.76 12.25 11.97 12.25zm-5.67 23.94h8.05l33.46-48.09h-8.12zm5.67-29.96c-2.87 0-5.11-2.52-5.11-6.3s2.1-6.23 5.11-6.23c2.94 0 5.11 2.52 5.11 6.23 0 3.85-2.17 6.3-5.11 6.3zm30.03 30.73c7.07 0 11.97-5.39 11.97-12.32 0-6.79-4.69-12.32-11.97-12.32-7.14 0-12.04 5.46-12.04 12.32s4.9 12.32 12.04 12.32zm0-6.09c-2.94 0-5.11-2.52-5.11-6.23 0-3.85 2.1-6.3 5.11-6.3 2.87 0 5.11 2.52 5.11 6.3s-2.1 6.23-5.11 6.23z" fill="#5c2cff"/><path d="m182.792 52h2.384l2.608-7.552 2.592 7.552h2.384l3.328-10.992h-2.576l-2.016 7.376-2.432-7.376h-2.576l-2.432 7.376-2.032-7.376h-2.56zm20.347.192c3.168 0 5.824-2.608 5.824-5.696s-2.656-5.68-5.824-5.68-5.856 2.592-5.856 5.68 2.688 5.696 5.856 5.696zm0-2.144c-1.856 0-3.424-1.632-3.424-3.552 0-1.904 1.568-3.536 3.424-3.536 1.84 0 3.408 1.632 3.408 3.536 0 1.92-1.568 3.552-3.408 3.552zm7.972 1.952h2.368v-6.848l3.392 6.208 3.408-6.208v6.848h2.352v-10.992h-2.352l-3.408 6.208-3.392-6.208h-2.368zm22.776-8.864v-2.128h-8.464v10.992h8.464v-2.128h-6.096v-2.416h5.536v-2.128h-5.536v-2.192zm2.286 8.864h2.368v-7.104l5.296 7.104h2.368v-10.992h-2.368v7.104l-5.296-7.104h-2.368z" fill="#000"/><path d="m184.392 212h2.368v-6.848l3.392 6.208 3.408-6.208v6.848h2.352v-10.992h-2.352l-3.408 6.208-3.392-6.208h-2.368zm22.777-8.864v-2.128h-8.464v10.992h8.464v-2.128h-6.096v-2.416h5.536v-2.128h-5.536v-2.192zm2.286 8.864h2.368v-7.104l5.296 7.104h2.368v-10.992h-2.368v7.104l-5.296-7.104h-2.368z" fill="#000"/><g clip-rule="evenodd" fill-rule="evenodd" mask="url(#a)"><path d="m915.36 920.836-938.4992-900.2489 1.2066-1.1574 938.4996 900.2493z" fill="#5c2cff"/><path d="m1160.59 921.233-938.115-900.6454 1.206-1.1579 938.119 900.6463z" fill="#5c2cff"/><path d="m1037.79 921.234-938.123-900.6464 1.206-1.1579 938.117 900.6463z" fill="#5c2cff"/><path d="m1283.4 921.234-938.115-900.6464 1.206-1.1579 938.119 900.6463z" fill="#747474"/><g fill="#5c2cff"><path d="m976.381 921.233-938.1193-900.6454 1.2061-1.1579 938.1192 900.6453z"/><path d="m1222 921.233-938.119-900.6454 1.206-1.1579 938.123 900.6463z"/><path d="m1099.19 921.233-938.119-900.6454 1.206-1.1579 938.123 900.6453z"/><path d="m945.679 921.233-938.11849-900.6454 1.20609-1.1579 938.1184 900.6453z"/><path d="m1191.3 921.234-938.122-900.6464 1.206-1.1579 938.116 900.6463z"/><path d="m1068.49 921.234-938.122-900.6464 1.206-1.1579 938.116 900.6463z"/></g><path d="m1314.11 921.234-938.124-900.6464 1.206-1.1579 938.118 900.6463z" fill="#747474"/><path d="m1007.08 921.234-938.1152-900.6464 1.2061-1.1579 938.1191 900.6463z" fill="#5c2cff"/><path d="m1252.7 921.234-938.118-900.6464 1.206-1.1579 938.122 900.6463z" fill="#5c2cff"/><path d="m1129.89 921.233-938.116-900.6454 1.206-1.1579 938.12 900.6453z" fill="#5c2cff"/></g><path d="m73.5 78.8379h307v59.0001h-307z" stroke="#5c2cff"/><path d="m81 78.3379v60.0001h-80.5v-60.0001z" fill="#0f0b47"/></svg>