<svg fill="none" height="262" viewBox="0 0 632 262" width="632" xmlns="http://www.w3.org/2000/svg"><path d="m364.399 108h12.125c4.552 0 7.803-2.984 7.803-7.191 0-2.8688-1.798-5.355-4.743-6.6938 2.295-1.1475 3.71-3.06 3.71-5.8522 0-3.825-2.983-6.5408-7.229-6.5408h-11.666zm2.448-14.8793v-9.1417h8.721c3.098 0 5.278 1.9125 5.278 4.5517 0 2.6775-2.142 4.59-5.125 4.59zm0 12.6223v-10.3655h9.18c3.404 0 5.852 2.142 5.852 5.1635 0 3.022-2.448 5.202-5.852 5.202zm34.467 2.716c6.273 0 10.71-4.59 10.71-11.0925v-15.6443h-2.448v15.6443c0 5.1635-3.443 8.8355-8.262 8.8355-4.858 0-8.262-3.672-8.262-8.8355v-15.6443h-2.448v15.6443c0 6.5025 4.437 11.0925 10.71 11.0925zm18.741-.459h2.448v-26.2778h-2.448zm13.655-2.333v-23.9448h-2.448v26.2778h17.059v-2.333zm19.665 2.333h8.912c8.186 0 13.961-5.47 13.961-13.158 0-7.6883-5.775-13.1198-13.961-13.1198h-8.912zm2.448-2.257v-21.764h6.464c6.732 0 11.475 4.5135 11.475 10.863 0 6.388-4.743 10.901-11.475 10.901zm26.986 2.257h2.448v-26.2778h-2.448zm11.206 0h2.448v-22.2998l16.83 22.2998h2.448v-26.2778h-2.448v22.2998l-16.83-22.2998h-2.448zm41.382-11.2455h8.071v6.6935c-2.066 1.683-5.011 2.716-7.727 2.716-5.967 0-11.016-5.164-11.016-11.322 0-6.12 5.049-11.2838 11.016-11.2838 3.06 0 6.426 1.3005 8.492 3.4043l1.683-1.7213c-2.525-2.448-6.464-3.978-10.175-3.978-7.305 0-13.464 6.1965-13.464 13.5788 0 7.382 6.159 13.617 13.464 13.617 3.711 0 7.65-1.568 10.175-3.978v-10.0598h-10.519zm-152.447 37.3005v-2.333h-18.551v26.278h2.448v-12.202h14.535v-2.371h-14.535v-9.372zm16.899 24.404c7.306 0 13.426-6.235 13.426-13.617s-6.12-13.579-13.426-13.579c-7.305 0-13.464 6.197-13.464 13.579s6.159 13.617 13.464 13.617zm0-2.295c-5.967 0-11.016-5.164-11.016-11.322 0-6.12 5.049-11.284 11.016-11.284 5.929 0 10.94 5.164 10.94 11.284 0 6.158-5.011 11.322-10.94 11.322zm40.292-16.142c0-4.857-4.093-8.3-9.486-8.3h-10.786v26.278h2.448v-9.716h6.234l6.847 9.716h2.831l-6.847-9.754c5.049-.268 8.759-3.595 8.759-8.224zm-17.824-5.967h7.879c4.437 0 7.459 2.295 7.459 5.967 0 3.634-3.022 5.929-7.459 5.929h-7.879zm40.036 23.945h2.448v-23.945h9.104v-2.333h-20.655v2.333h9.103zm35.084-26.278v11.705h-16.027v-11.705h-2.448v26.278h2.448v-12.202h16.027v12.202h2.448v-26.278zm29.543 2.333v-2.333h-18.322v26.278h18.322v-2.333h-15.874v-9.869h14.42v-2.371h-14.42v-9.372zm-142.309 55.967c0-4.857-4.092-8.3-9.486-8.3h-10.786v26.278h2.448v-9.716h6.235l6.846 9.716h2.831l-6.847-9.754c5.049-.268 8.759-3.595 8.759-8.224zm-17.824-5.967h7.879c4.437 0 7.459 2.295 7.459 5.967 0 3.634-3.022 5.929-7.459 5.929h-7.879zm35.318 24.404c7.306 0 13.426-6.235 13.426-13.617s-6.12-13.579-13.426-13.579-13.464 6.197-13.464 13.579 6.158 13.617 13.464 13.617zm0-2.295c-5.967 0-11.016-5.164-11.016-11.322 0-6.12 5.049-11.284 11.016-11.284 5.929 0 10.94 5.164 10.94 11.284 0 6.158-5.011 11.322-10.94 11.322zm39.642 1.836h2.677l-11.589-26.278h-2.678l-11.59 26.278h2.678l2.716-6.197h15.07zm-16.715-8.568 6.464-14.688 6.464 14.688zm24.585 8.568h8.912c8.186 0 13.961-5.47 13.961-13.158s-5.775-13.12-13.961-13.12h-8.912zm2.448-2.257v-21.764h6.464c6.732 0 11.475 4.513 11.475 10.863 0 6.388-4.743 10.901-11.475 10.901zm57.217 2.257h2.678l-11.59-26.278h-2.678l-11.589 26.278h2.677l2.716-6.197h15.07zm-16.715-8.568 6.464-14.688 6.464 14.688zm43.06-17.71v11.705h-16.027v-11.705h-2.448v26.278h2.448v-12.202h16.027v12.202h2.448v-26.278zm29.543 2.333v-2.333h-18.322v26.278h18.322v-2.333h-15.874v-9.869h14.42v-2.371h-14.42v-9.372zm26.14 23.945h2.678l-11.59-26.278h-2.677l-11.59 26.278h2.677l2.716-6.197h15.071zm-16.715-8.568 6.464-14.688 6.465 14.688zm24.585 8.568h8.913c8.185 0 13.961-5.47 13.961-13.158s-5.776-13.12-13.961-13.12h-8.913zm2.448-2.257v-21.764h6.465c6.732 0 11.475 4.513 11.475 10.863 0 6.388-4.743 10.901-11.475 10.901z" fill="#0f0b47"/><path d="m35.392 125h14.016l-16.896-43.968h-14.016l-16.896 43.968h14.016l2.24-5.888h15.296zm-14.016-15.04 4.16-10.688 4.096 10.688zm43.896 15.04h12.416v-23.552l17.152 23.552h12.416v-43.968h-12.416v23.552l-17.152-23.552h-12.416zm60.912 0h12.416v-23.552l17.152 23.552h12.416v-43.968h-12.416v23.552l-17.152-23.552h-12.416zm80.945.768c12.288 0 20.928-8.384 20.928-20.288v-24.448h-12.416v23.808c0 5.632-3.52 9.664-8.512 9.664s-8.512-4.032-8.512-9.664v-23.808h-12.416v24.448c0 11.904 8.64 20.288 20.928 20.288zm69.725-.768h14.016l-16.896-43.968h-14.016l-16.896 43.968h14.016l2.24-5.888h15.296zm-14.016-15.04 4.16-10.688 4.096 10.688zm56.313 3.968v-32.896h-12.416v43.968h32.896v-11.072zm-275.631 94.072-10.304-14.656c5.696-2.368 9.344-7.424 9.344-13.952 0-9.024-6.976-15.36-16.832-15.36h-21.056v43.968h12.416v-13.248h3.008l9.28 13.248zm-26.432-32.704h7.616c2.944 0 5.056 1.728 5.056 4.096s-2.112 4.096-5.056 4.096h-7.616zm78.2635-.192v-11.072h-35.392v43.968h35.392v-11.072h-22.976v-5.824h20.928v-11.072h-20.928v-4.928zm17.8325 32.896h12.416v-13.248h8.64c9.857 0 16.832-6.336 16.832-15.36s-6.975-15.36-16.832-15.36h-21.056zm12.416-24.512v-8.192h7.616c2.944 0 5.056 1.728 5.056 4.096s-2.112 4.096-5.056 4.096zm63.946 25.28c12.992 0 23.936-10.432 23.936-22.784s-10.944-22.72-23.936-22.72-23.936 10.368-23.936 22.72 10.944 22.784 23.936 22.784zm0-11.264c-6.016 0-11.136-5.248-11.136-11.52 0-6.208 5.12-11.456 11.136-11.456s11.136 5.248 11.136 11.456c0 6.272-5.12 11.52-11.136 11.52zm79.624 10.496-10.304-14.656c5.696-2.368 9.344-7.424 9.344-13.952 0-9.024-6.976-15.36-16.832-15.36h-21.056v43.968h12.416v-13.248h3.008l9.28 13.248zm-26.432-32.704h7.616c2.944 0 5.056 1.728 5.056 4.096s-2.112 4.096-5.056 4.096h-7.616zm53.496 32.704h12.416v-32.896h12.992v-11.072h-38.4v11.072h12.992z" fill="#0f0b47"/><path d="m14.832 38.432c3.744 0 7.164-1.62 9.576-4.14l-3.852-3.456c-1.404 1.656-3.456 2.772-5.724 2.772-4.176 0-7.704-3.672-7.704-7.992 0-4.284 3.528-7.956 7.704-7.956 2.232 0 4.32 1.116 5.724 2.772l3.852-3.456c-2.412-2.556-5.832-4.14-9.576-4.14-7.128 0-13.176 5.832-13.176 12.78s6.048 12.816 13.176 12.816zm19.2586-.432h5.328v-15.984l11.916 15.984h5.328v-24.732h-5.328v15.984l-11.916-15.984h-5.328zm45.9281.432c3.744 0 7.164-1.62 9.576-4.14l-3.852-3.456c-1.404 1.656-3.456 2.772-5.724 2.772-4.176 0-7.704-3.672-7.704-7.992 0-4.284 3.528-7.956 7.704-7.956 2.232 0 4.32 1.116 5.724 2.772l3.852-3.456c-2.412-2.556-5.832-4.14-9.576-4.14-7.128 0-13.176 5.832-13.176 12.78s6.048 12.816 13.176 12.816zm38.3023-20.376v-4.788h-19.0437v24.732h5.3277v-9.792h12.456v-4.788h-12.456v-5.364zm23.534 19.944h18.684v-4.788h-10.476l4.5-3.492c4.32-3.132 5.76-5.688 5.76-9 0-4.644-3.816-7.884-9.072-7.884-3.996 0-7.128 1.728-9.576 4.824l3.384 3.276c1.8-2.052 3.636-3.276 6.048-3.276 2.016 0 3.744 1.224 3.744 3.276 0 1.728-.936 3.348-3.888 5.688l-9.108 7.056zm38.784.432c6.516 0 11.088-5.292 11.088-12.816 0-7.488-4.572-12.78-11.088-12.78s-11.124 5.292-11.124 12.78c0 7.524 4.608 12.816 11.124 12.816zm0-4.824c-3.312 0-5.652-3.348-5.652-7.992s2.34-7.956 5.652-7.956 5.652 3.312 5.652 7.956-2.34 7.992-5.652 7.992zm19.688 4.392h18.684v-4.788h-10.476l4.5-3.492c4.32-3.132 5.76-5.688 5.76-9 0-4.644-3.816-7.884-9.072-7.884-3.996 0-7.128 1.728-9.576 4.824l3.384 3.276c1.8-2.052 3.636-3.276 6.048-3.276 2.016 0 3.744 1.224 3.744 3.276 0 1.728-.936 3.348-3.888 5.688l-9.108 7.056zm27.408 0h18.684v-4.788h-10.476l4.5-3.492c4.32-3.132 5.76-5.688 5.76-9 0-4.644-3.816-7.884-9.072-7.884-3.996 0-7.128 1.728-9.576 4.824l3.384 3.276c1.8-2.052 3.636-3.276 6.048-3.276 2.016 0 3.744 1.224 3.744 3.276 0 1.728-.936 3.348-3.888 5.688l-9.108 7.056z" fill="#5c2cff"/><path d="m6 261.5h615" opacity=".5" stroke="#0f0b47"/></svg>