<svg fill="none" height="252" viewBox="0 0 261 252" width="261" xmlns="http://www.w3.org/2000/svg"><path d="m1 251.001 256-.001" stroke="#0f0b47"/><path d="m1.26722 205.801h4.19921c1.52812 0 2.62141-.957 2.62141-2.323 0-.945-.57149-1.715-1.55297-2.199.77027-.435 1.2051-.994 1.2051-1.889 0-1.242-.99389-2.124-2.42262-2.124h-4.05013zm1.25479-4.982v-2.448h2.47232c.85724 0 1.466.522 1.466 1.23 0 .709-.60876 1.218-1.466 1.218zm0 3.876v-2.808h2.6711c.9442 0 1.61508.584 1.61508 1.404s-.67088 1.404-1.61508 1.404zm12.80869 1.255c2.1368 0 3.665-1.553 3.665-3.74v-4.944h-1.2673v4.919c0 1.529-.9939 2.622-2.3977 2.622-1.4163 0-2.4102-1.093-2.4102-2.622v-4.919h-1.2548v4.944c0 2.187 1.5157 3.74 3.665 3.74zm7.7746-.149h1.2548v-8.535h-1.2548zm6.8416-1.168v-7.367h-1.2548v8.535h5.777v-1.168zm7.9232 1.168h2.9444c2.7581 0 4.7086-1.777 4.7086-4.274s-1.9505-4.261-4.7086-4.261h-2.9444zm1.2548-1.143v-6.249h1.7642c1.9629 0 3.3544 1.292 3.3544 3.118 0 1.839-1.3915 3.131-3.3544 3.131zm10.1313 1.143h1.2548v-8.535h-1.2548zm5.5868 0h1.2548v-6.473l4.895 6.473h1.2672v-8.535h-1.2672v6.472l-4.895-6.472h-1.2548zm15.3906-3.504h2.2984v1.789c-.5964.448-1.4039.708-2.1245.708-1.7145 0-3.1556-1.49-3.1556-3.267 0-1.764 1.4411-3.255 3.1556-3.255.8821 0 1.9008.398 2.4847 1.031l.8821-.845c-.8199-.832-2.1493-1.341-3.3668-1.341-2.3978 0-4.4353 2.012-4.4353 4.41s2.0375 4.423 4.4353 4.423c1.2175 0 2.5469-.522 3.3668-1.342v-3.404h-3.5407zm18.9634-3.863v-1.168h-6.274v8.535h1.2673v-3.715h4.5222v-1.168h-4.5222v-2.484zm7.349 7.516c2.4102 0 4.423-2.025 4.423-4.423s-2.0128-4.41-4.423-4.41c-2.3853 0-4.4228 2.012-4.4228 4.41s2.0375 4.423 4.4228 4.423zm0-1.156c-1.702 0-3.1432-1.49-3.1432-3.267 0-1.764 1.4412-3.255 3.1432-3.255 1.7021 0 3.1432 1.491 3.1432 3.255 0 1.777-1.4411 3.267-3.1432 3.267zm14.913-4.745c0-1.628-1.379-2.783-3.168-2.783h-3.591v8.535h1.255v-2.969h1.628l2.087 2.969h1.441l-2.124-3.032c1.441-.248 2.472-1.304 2.472-2.72zm-5.504-1.615h2.15c1.229 0 2.074.608 2.074 1.615 0 1.006-.845 1.615-2.074 1.615h-2.15zm16.272 7.367h1.255v-7.367h2.795v-1.168h-6.858v1.168h2.808zm13.361-8.535v3.603h-4.647v-3.603h-1.254v8.535h1.254v-3.765h4.647v3.765h1.255v-8.535zm11.868 1.168v-1.168h-6.274v8.535h6.274v-1.168h-5.007v-2.597h4.522v-1.167h-4.522v-2.435zm15.735 1.615c0-1.628-1.379-2.783-3.168-2.783h-3.591v8.535h1.255v-2.969h1.627l2.088 2.969h1.441l-2.125-3.032c1.441-.248 2.473-1.304 2.473-2.72zm-5.504-1.615h2.149c1.23 0 2.075.608 2.075 1.615 0 1.006-.845 1.615-2.075 1.615h-2.149zm12.999 7.516c2.41 0 4.423-2.025 4.423-4.423s-2.013-4.41-4.423-4.41c-2.385 0-4.423 2.012-4.423 4.41s2.038 4.423 4.423 4.423zm0-1.156c-1.702 0-3.143-1.49-3.143-3.267 0-1.764 1.441-3.255 3.143-3.255s3.143 1.491 3.143 3.255c0 1.777-1.441 3.267-3.143 3.267zm14.528 1.007h1.391l-3.665-8.535h-1.391l-3.665 8.535h1.391l.758-1.777h4.423zm-4.709-2.87 1.739-4.05 1.74 4.05zm9.479 2.87h2.944c2.758 0 4.709-1.777 4.709-4.274s-1.951-4.261-4.709-4.261h-2.944zm1.255-1.143v-6.249h1.764c1.963 0 3.354 1.292 3.354 3.118 0 1.839-1.391 3.131-3.354 3.131zm21.715 1.143h1.392l-3.665-8.535h-1.392l-3.665 8.535h1.392l.757-1.777h4.423zm-4.709-2.87 1.74-4.05 1.739 4.05zm15.38-5.665v3.603h-4.646v-3.603h-1.255v8.535h1.255v-3.765h4.646v3.765h1.255v-8.535zm11.868 1.168v-1.168h-6.273v8.535h6.273v-1.168h-5.006v-2.597h4.522v-1.167h-4.522v-2.435zm10.139 7.367h1.392l-3.665-8.535h-1.392l-3.665 8.535h1.392l.758-1.777h4.422zm-4.708-2.87 1.739-4.05 1.739 4.05zm9.478 2.87h2.945c2.758 0 4.708-1.777 4.708-4.274s-1.95-4.261-4.708-4.261h-2.945zm1.255-1.143v-6.249h1.764c1.963 0 3.355 1.292 3.355 3.118 0 1.839-1.392 3.131-3.355 3.131z" fill="#0c093a"/><path d="m29.0891 93h9.4235l-13.35-33.7185h-9.4235l-13.34997 33.7185h9.42347l2.0614-5.1535h13.1537zm-12.7119-11.4849 4.0737-10.3561 4.0737 10.3561zm33.6759 11.4849h8.3928v-19.9268l14.7243 19.9268h8.3437v-33.7185h-8.3437v19.9268l-14.7243-19.9268h-8.3928zm45.7314 0h8.3925v-19.9268l14.725 19.9268h8.343v-33.7185h-8.343v19.9268l-14.725-19.9268h-8.3925zm60.6525.589c9.227 0 15.656-6.3315 15.656-15.3623v-18.9452h-8.343v18.5525c0 4.7609-3.043 8.1474-7.313 8.1474-4.221 0-7.264-3.3865-7.264-8.1474v-18.5525h-8.393v18.9452c0 9.0308 6.478 15.3623 15.657 15.3623zm53.181-.589h9.424l-13.35-33.7185h-9.424l-13.35 33.7185h9.424l2.061-5.1535h13.154zm-12.712-11.4849 4.074-10.3561 4.074 10.3561zm42.069 3.9755v-26.2091h-8.393v33.7185h24.639v-7.5094zm-205.2232 71.5094-8.0002-11.338c4.7608-1.668 7.8038-5.644 7.8038-10.797 0-6.823-5.3498-11.584-12.81-11.584h-15.65683v33.719h8.39283v-10.552h3.3375l7.4112 10.552zm-20.2704-26.062h6.5277c2.8958 0 4.9081 1.571 4.9081 3.927 0 2.355-2.0123 3.926-4.9081 3.926h-6.5277zm62.7736-.147v-7.51h-26.5527v33.719h26.5527v-7.509h-18.1599v-5.939h16.4911v-7.51h-16.4911v-5.251zm16.4792 26.209h8.3928v-10.552h7.264c7.46 0 12.81-4.761 12.81-11.583 0-6.823-5.35-11.584-12.81-11.584h-15.6568zm8.3928-18.209v-7.853h6.528c2.896 0 4.908 1.571 4.908 3.927 0 2.355-2.012 3.926-4.908 3.926zm52.086 18.798c9.816 0 18.11-8 18.11-17.473 0-9.472-8.294-17.423-18.11-17.423-9.866 0-18.16 7.951-18.16 17.423 0 9.473 8.294 17.473 18.16 17.473zm0-7.608c-5.154 0-9.522-4.515-9.522-9.865 0-5.301 4.368-9.816 9.522-9.816 5.153 0 9.472 4.515 9.472 9.816 0 5.35-4.319 9.865-9.472 9.865zm62.684 7.019-8-11.338c4.761-1.668 7.804-5.644 7.804-10.797 0-6.823-5.35-11.584-12.81-11.584h-15.657v33.719h8.393v-10.552h3.337l7.411 10.552zm-20.27-26.062h6.528c2.895 0 4.908 1.571 4.908 3.927 0 2.355-2.013 3.926-4.908 3.926h-6.528zm44.172 26.062h8.393v-26.209h10.257v-7.51h-28.859v7.51h10.209z" fill="#0c093a"/><path d="m9.11364 23.2654c2.30056 0 4.40196-.9954 5.88406-2.5438l-2.3669-2.1236c-.8627 1.0176-2.1236 1.7033-3.51716 1.7033-2.56598 0-4.73378-2.2563-4.73378-4.9107 0-2.6324 2.1678-4.8887 4.73378-4.8887 1.37146 0 2.65446.6858 3.51716 1.7033l2.3669-2.1236c-1.4821-1.57052-3.5835-2.54382-5.88406-2.54382-4.37986 0-8.0961 3.58352-8.0961 7.85282 0 4.2692 3.71624 7.8748 8.0961 7.8748zm11.83356-.2654h3.2739v-9.8215l7.3218 9.8215h3.2739v-15.19677h-3.2739v9.82147l-7.3218-9.82147h-3.2739zm28.2209.2654c2.3006 0 4.402-.9954 5.8841-2.5438l-2.3669-2.1236c-.8627 1.0176-2.1236 1.7033-3.5172 1.7033-2.5659 0-4.7338-2.2563-4.7338-4.9107 0-2.6324 2.1679-4.8887 4.7338-4.8887 1.3715 0 2.6545.6858 3.5172 1.7033l2.3669-2.1236c-1.4821-1.57052-3.5835-2.54382-5.8841-2.54382-4.3798 0-8.0961 3.58352-8.0961 7.85282 0 4.2692 3.7163 7.8748 8.0961 7.8748zm23.5354-12.5201v-2.94207h-11.7018v15.19677h3.2739v-6.0168h7.6536v-2.942h-7.6536v-3.2959zm14.4604 12.2547h11.4805v-2.942h-6.4371l2.7651-2.1457c2.6545-1.9245 3.5393-3.495 3.5393-5.5301 0-2.85357-2.3448-4.84442-5.5744-4.84442-2.4554 0-4.3798 1.06178-5.884 2.96412l2.0793 2.013c1.106-1.2609 2.2342-2.013 3.7162-2.013 1.2388 0 2.3006.7521 2.3006 2.013 0 1.0618-.5752 2.0572-2.3891 3.495l-5.5964 4.3356zm23.8311.2654c4.004 0 6.813-3.2517 6.813-7.8748 0-4.6011-2.809-7.85282-6.813-7.85282s-6.835 3.25172-6.835 7.85282c0 4.6231 2.831 7.8748 6.835 7.8748zm0-2.9641c-2.035 0-3.473-2.0572-3.473-4.9107 0-2.8536 1.438-4.8887 3.473-4.8887s3.473 2.0351 3.473 4.8887c0 2.8535-1.438 4.9107-3.473 4.9107zm12.097 2.6987h11.481v-2.942h-6.437l2.765-2.1457c2.654-1.9245 3.539-3.495 3.539-5.5301 0-2.85357-2.345-4.84442-5.574-4.84442-2.456 0-4.38 1.06178-5.884 2.96412l2.079 2.013c1.106-1.2609 2.234-2.013 3.716-2.013 1.239 0 2.301.7521 2.301 2.013 0 1.0618-.575 2.0572-2.389 3.495l-5.597 4.3356zm16.841 0h11.481v-2.942h-6.437l2.765-2.1457c2.654-1.9245 3.539-3.495 3.539-5.5301 0-2.85357-2.345-4.84442-5.574-4.84442-2.456 0-4.38 1.06178-5.884 2.96412l2.079 2.013c1.106-1.2609 2.234-2.013 3.716-2.013 1.239 0 2.301.7521 2.301 2.013 0 1.0618-.575 2.0572-2.389 3.495l-5.597 4.3356z" fill="#5c2cff"/></svg>