<svg fill="none" height="75" viewBox="0 0 72 75" width="72" xmlns="http://www.w3.org/2000/svg"><g clip-rule="evenodd" fill-rule="evenodd"><path d="m41.4643 45.185-8.9828 4.4856c-.2835.1415-.5351.3397-.7391.5823-.2039.2425-.356.5244-.4468.828l-3.47 11.5643c-.1046.348-.1259.7157-.0621 1.0734.0637.3577.2107.6955.4291.9859l6.7898 9.0531c.2165.2882.497.522.8194.6831.3225.1611.678.2449 1.0384.2449h11.326c.3604 0 .7159-.0838 1.0383-.2449.3225-.1611.603-.3949.8195-.6831l6.7898-9.0531c.2183-.2904.3653-.6282.4291-.9859s.0425-.7254-.0621-1.0734l-3.47-11.5643c-.0908-.3036-.2429-.5855-.4468-.828-.204-.2426-.4556-.4408-.7392-.5823l-8.9827-4.4917c-.3232-.1598-.6791-.2424-1.0396-.2414-.3606.0011-.7159.0858-1.0382.2475z" fill="#5c2cff"/><path d="m58.5378 16.6672-7.2638 3.6325c-.2293.1147-.4328.2752-.5977.4716s-.2879.4246-.3614.6705l-2.8059 9.365c-.0846.2818-.1018.5796-.0502.8693.0515.2896.1704.5631.347.7983l5.4905 7.3314c.175.2333.4019.4227.6626.5532.2608.1304.5482.1983.8397.1983h9.1586c.2915 0 .579-.0679.8397-.1983.2607-.1305.4876-.3199.6626-.5532l5.4905-7.3314c.1766-.2352.2955-.5087.3471-.7983.0515-.2897.0343-.5875-.0503-.8693l-2.8059-9.365c-.0735-.2459-.1964-.4741-.3614-.6705-.1649-.1964-.3684-.3569-.5977-.4716l-7.2638-3.6374c-.2614-.1294-.5491-.1963-.8407-.1955-.2915.0009-.5789.0695-.8395.2004z" fill="#92efdf"/><path d="m18.4008 1.10638-12.03267 5.99859c-.37987.18929-.71683.45431-.99007.77869s-.47696.70124-.59858 1.10729l-4.648123 15.46495c-.14010823.4654-.1686146.9571-.0832127 1.4355.0854017.4784.2823207.93.5748427 1.3184l9.095113 12.1067c.2899.3854.6657.6982 1.0977.9136.4319.2154.9081.3275 1.3909.3275h15.1714c.4828 0 .959-.1121 1.391-.3275.4319-.2154.8077-.5282 1.0976-.9136l9.0951-12.1067c.2926-.3884.4895-.84.5749-1.3184s.0569-.9701-.0832-1.4355l-4.6482-15.46495c-.1216-.40605-.3253-.78291-.5986-1.10729-.2732-.32438-.6101-.5894-.99-.77869l-12.0327-6.00671c-.4329-.213743-.9096-.324264-1.3925-.322856-.483.001407-.959.114713-1.3907.330976z" fill="#0f0b47"/></g></svg>