<svg fill="none" height="49" viewBox="0 0 82 49" width="82" xmlns="http://www.w3.org/2000/svg"><g stroke-linecap="round" stroke-linejoin="round" stroke-width="6.4"><path d="m60.0409 45.1732v-4.5748c-.0015-2.0273-.6762-3.9967-1.9183-5.5989-1.242-1.6022-2.981-2.7466-4.9439-3.2534" stroke="#92efdf"/><path d="m78.3222 45.1732v-4.5748c-.0015-2.0273-.6763-3.9967-1.9183-5.5989-1.2421-1.6022-2.981-2.7466-4.9439-3.2534" stroke="#5c2cff"/><path d="m44.0293 4.29688c1.9681.50391 3.7125 1.64853 4.9583 3.2534 1.2457 1.60487 1.9219 3.57872 1.9219 5.61032s-.6762 4.0054-1.9219 5.6103c-1.2458 1.6049-2.9902 2.7495-4.9583 3.2534" stroke="#92efdf"/><path d="m62.3105 4.29688c1.9682.50391 3.7126 1.64853 4.9583 3.2534s1.9219 3.57872 1.9219 5.61032-.6762 4.0054-1.9219 5.6103-2.9901 2.7495-4.9583 3.2534" stroke="#5c2cff"/><g stroke="#0c093a"><path d="m40.5985 45.1737v-4.5748c0-2.4267-.9639-4.7539-2.6798-6.4698s-4.0432-2.6799-6.4698-2.6799h-18.2993c-2.4266 0-4.75384.964-6.46973 2.6799s-2.67987 4.0431-2.67987 6.4698v4.5748"/><path d="m22.2991 22.2993c5.0532 0 9.1496-4.0965 9.1496-9.1497 0-5.05317-4.0964-9.1496-9.1496-9.1496-5.0533 0-9.1497 4.09643-9.1497 9.1496 0 5.0532 4.0964 9.1497 9.1497 9.1497z"/></g></g></svg>