<svg fill="none" height="64" viewBox="0 0 64 64" width="64" xmlns="http://www.w3.org/2000/svg"><g stroke-linecap="round"><path d="m53.3339 52.7512v-5.4167c0-2.8733-1.1414-5.6288-3.1731-7.6605-2.0316-2.0316-4.7872-3.173-7.6604-3.173h-21.6669c-2.8732 0-5.6288 1.1414-7.6604 3.173-2.0317 2.0317-3.1731 4.7872-3.1731 7.6605v5.4167" stroke="#0c093a" stroke-linejoin="round" stroke-width="6.4"/><path d="m31.6665 25.667c5.9831 0 10.8335-4.8504 10.8335-10.8335 0-5.98319-4.8504-10.8335-10.8335-10.8335-5.9832 0-10.8335 4.85031-10.8335 10.8335 0 5.9831 4.8503 10.8335 10.8335 10.8335z" stroke="#0c093a" stroke-linejoin="round" stroke-width="6.4"/><path d="m3.24219 3 57.75731 57.7574" stroke="#5c2cff" stroke-width="6"/></g></svg>