<svg fill="none" height="25" viewBox="0 0 23 25" width="23" xmlns="http://www.w3.org/2000/svg"><g fill="#0f0b47"><path d="m19.6092 2.27185h-2.262v-1.13471c.0003-.14922-.0286-.297034-.0852-.434984-.0566-.137949-.1397-.263325-.2445-.36895-.1048-.105624-.2294-.189423-.3664-.2465993-.1371-.0571761-.2841-.08660704-.4325-.0866067-.2999 0-.5876.119806-.7997.33306s-.3313.502489-.3313.80408v1.13471h-6.78102v-1.13471c0-.301591-.11916-.590826-.33126-.80408s-.49977-.33306-.79972-.33306c-.14841-.00000034-.29537.0294306-.43245.0866067-.13708.0571763-.2616.1409753-.36643.2465993-.10483.105625-.18791.231001-.24448.36895-.05657.13795-.08553.285764-.08521.434984v1.13471h-2.26197c-.89883.00128-1.76048.36085-2.39606.99988-.635567.63903-.993193 1.50537-.994469 2.4091v15.91017c.001276.9037.358902 1.7701.994469 2.4091.63558.639 1.49723.9986 2.39606.9999h15.82414c.8988-.0013 1.7604-.3609 2.396-.9999s.9932-1.5054.9945-2.4091v-15.91017c-.0013-.90373-.3589-1.77007-.9945-2.4091s-1.4972-.9986-2.396-.99988zm1.1285 19.31915c0 .3012-.1188.5901-.3304.8032-.2116.2132-.4986.3333-.7981.334h-15.82414c-.29953-.0007-.58658-.1208-.79816-.334-.21158-.2131-.33041-.502-.33041-.8032v-15.91017c.00064-.30075.11975-.589.33126-.80166s.49819-.33241.79731-.33305h15.82414c.2991.00064.5858.12039.7973.33305s.3306.50091.3312.80166z"/><path d="m11.6973 15.9111c1.1986-.002 2.3475-.4815 3.1951-1.3337.8475-.8521 1.3245-2.0073 1.3264-3.2125-.0006-1.2057-.4771-2.36188-1.3249-3.21469-.8477-.85281-1.9974-1.33252-3.1966-1.3338-1.1988.00128-2.34812.48066-3.19579 1.33294-.84767.85229-1.32445 2.00785-1.32573 3.21315.00128 1.2056.47798 2.3614 1.32559 3.2141.8476.8526 1.99693 1.3325 3.19593 1.3345zm0-6.82042c.5995.00064 1.1742.24053 1.5979.66697.4237.42645.6616 1.00455.6616 1.60725-.0006.6024-.2389 1.1799-.6625 1.6058s-.9979.6655-1.597.6661c-.5991-.0006-1.1734-.2402-1.597-.6661-.42365-.4259-.66192-1.0034-.66256-1.6058 0-.6027.23799-1.1808.66166-1.60725.4237-.42644.9984-.66633 1.5979-.66697z"/><path d="m18.0052 18.9628c-1.7701-1.2729-3.897-1.9179-6.3085-1.9179-2.22759.0115-4.40462.669-6.26979 1.8936-.25188.1635-.42892.4207-.49222.7153s-.00769.6025.15461.8559c.10208.1601.24264.2918.40869.3829.16606.0911.35226.1387.54143.1384.21649-.0007.42824-.0638.61011-.1819 1.50092-.9877 3.25343-1.5189 5.04717-1.5299 1.9292 0 3.6172.5019 4.9942 1.4911.1207.087.2573.1492.402.1831.1447.0338.2946.0386.4411.014.1465-.0245.2868-.0779.4128-.1571.1259-.0792.2351-.1826.3212-.3043.1734-.2451.2431-.5494.1939-.8462-.0493-.2967-.2135-.5618-.4567-.737z"/></g></svg>