<svg fill="none" height="79" viewBox="0 0 79 79" width="79" xmlns="http://www.w3.org/2000/svg"><circle cx="39.5" cy="39.5" r="36.5" stroke="#000" stroke-width="5"/><g stroke-linecap="round" stroke-linejoin="round" stroke-width="3.98182"><path d="m44.6349 37.5816-18.0283 18.0313c-.8431.8432-1.9866 1.3169-3.179 1.3169-1.1923 0-2.3358-.4737-3.1789-1.3169h-.0043c-.843-.8433-1.3167-1.9869-1.3167-3.1795 0-1.1925.4737-2.3362 1.3167-3.1795l18.0283-18.0312" stroke="#000"/><path d="m34.7842 25.8554 8.5977-8.2538 12.8966 12.3807h6.4483l-.2795 1.3371c-.5682 2.7282-1.8776 5.2637-3.7956 7.3496-1.9179 2.0858-4.3762 3.6478-7.1256 4.5276l-3.8453 1.2298v-6.1903z" stroke="#5c2cff"/></g></svg>