<svg fill="none" height="69" viewBox="0 0 69 69" width="69" xmlns="http://www.w3.org/2000/svg"><g stroke-linecap="round" stroke-linejoin="round" stroke-width="6"><path d="m43.9512 62.8492v-12.6c0-1.6708.6637-3.2733 1.8452-4.4548 1.1815-1.1814 2.7839-1.8452 4.4548-1.8452h12.6" stroke="#5c2cff"/><path d="m18.751 9.2998v6.3c.6795 1.9325 1.9685 3.5918 3.673 4.728 1.7044 1.1363 3.7318 1.688 5.777 1.572 1.6708 0 3.2733.6638 4.4547 1.8452 1.1815 1.1815 1.8453 2.7839 1.8453 4.4548s.6637 3.2733 1.8452 4.4548 2.7839 1.8452 4.4548 1.8452c1.6708 0 3.2733-.6637 4.4547-1.8452 1.1815-1.1815 1.8453-2.7839 1.8453-4.4548s.6637-3.2733 1.8452-4.4548c1.1815-1.1814 2.7839-1.8452 4.4548-1.8452h9.45" stroke="#92efdf"/><g stroke="#0c093a"><path d="m6.14941 31.3506h6.29999c1.6709 0 3.2733.6637 4.4548 1.8452s1.8452 2.7839 1.8452 4.4548v3.15c0 1.6708.6638 3.2733 1.8452 4.4548 1.1815 1.1814 2.784 1.8452 4.4548 1.8452 1.6709 0 3.2733.6637 4.4548 1.8452s1.8452 2.7839 1.8452 4.4548v12.6"/><path d="m34.5 66c17.397 0 31.5-14.103 31.5-31.5s-14.103-31.5-31.5-31.5-31.5 14.103-31.5 31.5 14.103 31.5 31.5 31.5z"/></g></g></svg>