<svg fill="none" height="19" viewBox="0 0 20 19" width="20" xmlns="http://www.w3.org/2000/svg"><g clip-rule="evenodd" fill="#0f0b47" fill-rule="evenodd"><path d="m17.8369.388672c.8284 0 1.5.671568 1.5 1.499998v14.81483c0 .8284-.6716 1.5-1.5 1.5s-1.5-.6716-1.5-1.5v-14.81483c0-.82843.6716-1.499998 1.5-1.499998z"/><path d="m10.0586 5.94531c.8284 0 1.5.67158 1.5 1.5v9.25929c0 .8284-.6716 1.5-1.5 1.5-.82843 0-1.50001-.6716-1.50001-1.5v-9.25929c0-.82842.67158-1.5 1.50001-1.5z"/><path d="m2.28125 11.5c.82843 0 1.5.6716 1.5 1.5v3.7037c0 .8284-.67157 1.5-1.5 1.5s-1.5-.6716-1.5-1.5v-3.7037c0-.8284.67157-1.5 1.5-1.5z"/></g></svg>