<svg fill="none" height="61" viewBox="0 0 95 61" width="95" xmlns="http://www.w3.org/2000/svg"><g fill="#000"><path d="m0 55.4002c.208039-.7846.35802-1.5886.631373-2.349 1.301447-3.6204 3.795497-6.0396 7.433757-7.2723 2.17227-.7362 4.34947-1.4627 6.52907-2.1771.7039-.23 1.2337-.5909 1.3933-1.5208h-1.0232c-2.9029 0-5.80576.0024-8.70862 0-1.46353-.0024-1.89412-.4335-1.89412-1.8913 0-7.0543-.01694-14.1087.00242-21.163.02419-9.51237 6.67172-17.2908 16.03352-18.799501 10.0657-1.622519 19.9015 5.632821 21.3481 15.772401.1524 1.0752.2226 2.1698.225 3.2547.0194 6.9333.0121 13.8665.0097 20.7998 0 1.6685-.3605 2.0245-2.0272 2.0245-2.8424 0-5.6848 0-8.5272 0-.3217 0-.6434 0-.999 0 .0459.9687.6313 1.2811 1.3232 1.5111 2.3199.775 4.6688 1.4724 6.9451 2.3539 4.7172 1.8259 7.2693 5.3204 7.6152 10.3817.0726 1.0559.0508 2.119.0266 3.1773-.0218.9154-.5951 1.5062-1.3619 1.4966-.7669-.0097-1.2942-.603-1.3426-1.5257-.0823-1.5378.0266-3.1118-.2685-4.606-.6072-3.0756-2.5352-5.1558-5.426-6.323-.895-.3608-1.9207-1.0099-2.7166-.8185-.7402.1767-1.27 1.2859-1.8651 2.0051-2.6295 3.1797-5.7742 5.7563-9.2117 8.0012-.658.4311-1.2773.4359-1.9377 0-4.0132-2.6541-7.7022-5.6594-10.4406-9.6867-.2637-.3875-.4935-.5134-.9604-.3221-.7233.2979-1.4877.4916-2.22551.7604-3.5415 1.2859-5.81299 4.4898-5.85895 8.2604-.00968.787-.01694 1.5741 0 2.3611.01693.7677-.0629 1.4675-.90231 1.792-.851508.3318-1.347414-.1985-1.81913-.7749 0-1.5741 0-3.1482 0-4.7223zm16.227-16.1041c-.3314-.5303-.4765-.9832-.7862-1.2229-2.4553-1.9011-4.1366-4.3227-4.8695-7.3401-.65801-2.7075-.4935-5.4779-.2879-8.2216.1718-2.2909 1.807-3.9086 2.9682-5.7297.4959-.7774 1.2869-.9299 1.9497-.4916.6604.4383.7887 1.2084.2903 1.9979-.566.8936-1.2458 1.7266-1.7248 2.6614-.4015.787-.7547 1.6709-.8321 2.5379-.1306 1.5014-.0798 3.0247-.0169 4.5358.2201 5.3277 4.3252 9.447 9.7778 9.8538 4.9276.3681 9.6544-3.3032 10.5156-8.3669.3121-1.8308.1427-3.7391.2371-5.6086.0387-.7652-.1887-1.4046-.7814-1.8332-1.3426-.9711-2.6319-2.0875-4.1124-2.7752-3.7181-1.7267-7.5281-3.2596-11.3091-4.8482-1.016-.4263-1.4369-1.0244-1.1635-1.8163.2854-.8209 1.0305-1.1721 2.003-.7677 3.8729 1.6032 7.7772 3.1482 11.5655 4.9354 1.7489.8258 3.3116 2.0899 4.8598 3.2862 1.2023.9299 1.7659 2.2449 1.6668 3.8335-.075 1.206.0725 2.429-.0387 3.6301-.1355 1.4337-.2903 2.8988-.704 4.2694-.7813 2.5937-2.419 4.6351-4.5599 6.2867-.2588.201-.3483.6224-.5153.942.3097.1042.6169.2931.9265.2955 2.3272.0242 4.6567.0145 6.9838.0145h.9967c0-.402 0-.695 0-.9904 0-6.386.0097-12.7744-.0121-19.1603-.0048-1.0535-.0822-2.119-.2467-3.1603-1.3547-8.56792-10.0802-14.68992-18.5735-13.05045-7.995 1.54503-13.34113 8.02545-13.35081 16.19375-.00725 6.386 0 12.7743 0 19.1603v.9469h9.14641zm-2.0925 7.2602c.0992.2349.1186.3245.1694.3923 2.315 3.2039 5.2929 5.6934 8.5271 7.8995.1815.1235.6338.046.8515-.1017 2.5352-1.7146 4.8696-3.6713 6.9089-5.9622.5733-.6441 1.0813-1.3416 1.7175-2.1383-1.5917-.5013-3.2536-.8161-3.9019-2.2933-.5903-1.3489-.7427-2.8915-1.0693-4.2622-1.3329.1671-2.7915.494-4.2478.4892-1.4442-.0073-2.886-.3512-4.4487-.5618.5516 3.5404-.7571 5.8701-4.5091 6.5409z"/><path d="m95 60.1753c-.4402.541-.9029 1.0387-1.6997.7296-.7833-.3023-.8397-.9591-.8465-1.6796-.0135-1.191.0452-2.4001-.149-3.566-.5169-3.1093-2.3204-5.2412-5.2323-6.3708-1.5485-.6-3.1398-1.0932-4.7289-1.5773-.2686-.0818-.7178.0318-.9323.225-7.1555 6.5071-17.0693 6.5026-24.2339-.0091-.2099-.1909-.6568-.2863-.9322-.2091-1.1377.3205-2.2505.7341-3.3769 1.0955-.878.2819-1.5417-.0091-1.7945-.75-.246-.7205.1309-1.3751 1.0113-1.6751 2.0518-.7 4.1127-1.3796 6.1691-2.066 1.4378-.4795 1.6455-.7659 1.65-2.2569 0-.1136-.009-.2273 0-.3409.2032-2.1955-.149-4.0865-1.7155-5.9048-1.8103-2.1023-2.4694-4.8502-2.3318-7.6503.1061-2.1705-.3453-3.9797-1.6568-5.8116-2.0699-2.8933-2.9638-6.2616-2.1963-9.8526.693-3.24563 2.6455-5.44799 5.8282-6.47985.228-.075.5079-.16819.6388-.34774 1.8533-2.56146 4.51-3.70697 7.4738-4.2229 4.2549-.740934 8.4986-.636384 12.6181.75913 6.2368 2.11144 9.2299 7.35029 8.0674 13.87326-.5801 3.2524-1.8193 6.2435-3.3972 9.1186-.2573.4682-.4198 1.0591-.4153 1.5887.0271 2.3796-.0971 4.7456-1.1873 6.8957-.6862 1.35-1.6478 2.5569-2.4604 3.8433-.1964.3114-.4086.6819-.4221 1.0342-.0497 1.3046-.0023 2.6137-.0249 3.9183-.0158.8955.3838 1.4182 1.2257 1.6955 2.4627.8091 4.9163 1.6478 7.37 2.4842 4.2188 1.4364 6.7559 4.3479 7.5505 8.7776.018.1046.0858.2023.1309.3023v4.432zm-37.9128-50.89745c-1.4402.74325-2.5643 2.56825-2.7268 4.41385-.3183 3.5751 1.106 6.5389 3.3001 9.1935.5056.6137.7088 1.2251.7223 2.0046.0316 1.8978-.0677 3.8343.2596 5.6866.9006 5.1025 5.8102 8.9413 10.9116 8.7345 5.4354-.2205 10.0109-4.207 10.5255-9.4822.2935-3.0138.1174-6.0707.1829-9.1072.0406-1.866-.8217-3.1706-2.4401-3.9274-.8036-.3773-1.7087-.7114-2.5778-.7364-4.0314-.1159-8.0652-.1273-12.0989-.1546-.7291-.0045-1.2076.4137-1.4424 1.1069-.2257.6705-.4288 1.3523-.6749 2.0137-.3025.8091-.948 1.1387-1.6636.8887-.6478-.2273-.9571-.8955-.7336-1.6887.1693-.6001.3905-1.1842.5892-1.7751.7245-2.1478 2.0383-3.1069 4.3023-3.1138 2.8216-.0068 5.6431-.0363 8.4647.0114 1.4898.025 3.0021.0523 4.4603.3227 2.8916.5364 5.1353 2.0001 6.0878 4.9889.1219.3818.2009.7796.3409 1.325.8284-2.0682 1.3476-4.0365 1.4288-6.0934.1671-4.20471-1.8487-7.33211-5.7153-8.95035-1.9503-.81595-4.0022-1.16596-6.0969-1.2796-2.975-.16137-5.9321-.07273-8.7401 1.08413-2.6387 1.08641-4.2346 2.93648-4.1443 5.97072.0226.7932-.5034 1.3432-1.2031 1.3705-.6975.0273-1.2528-.4864-1.3115-1.2751-.0384-.4977-.0067-1-.0067-1.53412zm5.3384 30.71945c.079 2.7183.325 5.4002-2.7945 6.5661 4.984 4.7116 13.8595 5.0411 19.3695.0046-3.1805-1.1455-2.86-3.882-2.8058-6.5685-4.6161 2.4592-9.1125 2.4774-13.7692-.0022z"/></g></svg>