<svg fill="none" height="47" viewBox="0 0 57 47" width="57" xmlns="http://www.w3.org/2000/svg"><g clip-rule="evenodd" fill-rule="evenodd"><path d="m12.4642 29.5797c1.3797.3793 2.1907 1.8053 1.8114 3.185-.2406.875-.3071 1.7891-.1956 2.6901.1115.9009.3987 1.7706.8449 2.5595.4462.7888 1.0426 1.4811 1.7546 2.0377.712.5567 1.5258.9667 2.3949 1.2073.869.2405 1.7766.307 2.671.1955.8945-.1114 1.7586-.3986 2.5432-.8454s1.4744-1.0446 2.0296-1.7597c.5553-.7152.9651-1.5335 1.2057-2.4085.3793-1.3797 1.8053-2.1907 3.185-1.8114s2.1907 1.8053 1.8114 3.185c-.4204 1.5291-1.137 2.9607-2.1092 4.2128-.9722 1.2522-2.1812 2.3005-3.5582 3.0847-1.3769.7841-2.8948 1.2887-4.4668 1.4846-1.5721.1958-3.1672.0791-4.6941-.3436-1.5268-.4226-2.9553-1.1427-4.2039-2.1188s-2.2928-2.189-3.0734-3.569c-.78066-1.3801-1.28251-2.9005-1.47727-4.4744-.19477-1.5739-.07868-3.1709.34171-4.7.37933-1.3798 1.80536-2.1907 3.18506-1.8114z" fill="#5c2cff"/><path d="m55.9438.503458c.664.488213 1.0562 1.263252 1.0562 2.087472v38.86367c0 .7978-.3676 1.5511-.9964 2.0421-.6289.491-1.4489.6649-2.2229.4714l-51.81818-12.9545c-1.153386-.2884-1.96252-1.3247-1.96252-2.5136v-9.7159c0-1.1332.736465-2.1349 1.81811-2.473l51.81819-16.193141c.7867-.245843 1.6434-.1027135 2.3075.385499zm-50.76198 20.185442v5.7882l46.63638 11.6591v-32.02114z" fill="#000"/></g></svg>