<svg fill="none" height="53" viewBox="0 0 44 53" width="44" xmlns="http://www.w3.org/2000/svg"><g stroke-linecap="round" stroke-linejoin="round"><path d="m15 50.75v-8h14v8" stroke="#0c093a" stroke-width="4"/><path d="m36.158 2.75h-28.42114c-2.6161 0-4.73686 2.14904-4.73686 4.80002v38.40018c0 2.651 2.12076 4.8 4.73686 4.8h28.42114c2.6161 0 4.7369-2.149 4.7369-4.8v-38.40018c0-2.65098-2.1208-4.80002-4.7369-4.80002z" stroke="#0c093a" stroke-width="4.5"/><g stroke="#d62293" stroke-width="5.68423"><path d="m12.4746 12.3506h.0236"/><path d="m31.4209 12.3506h.0235"/><path d="m21.9463 12.3506h.0235"/><path d="m21.9473 21.9492h.0235"/><path d="m21.9473 31.5498h.0235"/><path d="m31.4209 21.9492h.0235"/><path d="m31.4209 31.5498h.0235"/><path d="m12.4746 21.9492h.0236"/><path d="m12.4746 31.5498h.0236"/></g></g></svg>