<svg fill="none" height="65" viewBox="0 0 111 65" width="111" xmlns="http://www.w3.org/2000/svg"><g stroke-linecap="round" stroke-linejoin="round" stroke-width="6.4"><path d="m81.849 61.6004v-6.4c-.0021-2.8361-.946-5.5911-2.6836-7.8326s-4.1704-3.8424-6.9164-4.5514" stroke="#92efdf"/><path d="m107.423 61.6004v-6.4c-.002-2.8361-.946-5.5911-2.683-7.8326-1.738-2.2415-4.171-3.8424-6.9168-4.5514" stroke="#5c2cff"/><path d="m59.4492 4.41602c2.7533.70496 5.1937 2.30624 6.9365 4.55139 1.7427 2.24519 2.6886 5.00649 2.6886 7.84859 0 2.8422-.9459 5.6035-2.6886 7.8486-1.7428 2.2452-4.1832 3.8465-6.9365 4.5514" stroke="#92efdf"/><path d="m85.0234 4.41602c2.7534.70496 5.1938 2.30624 6.9365 4.55139 1.7427 2.24519 2.6886 5.00649 2.6886 7.84859 0 2.8422-.9459 5.6035-2.6886 7.8486-1.7427 2.2452-4.1831 3.8465-6.9365 4.5514" stroke="#5c2cff"/><g stroke="#0c093a"><path d="m54.6492 61.6004v-6.4c0-3.3948-1.3485-6.6505-3.749-9.051-2.4005-2.4004-5.6562-3.749-9.051-3.749h-25.6c-3.3948 0-6.65048 1.3486-9.05095 3.749-2.40046 2.4005-3.74903 5.6562-3.74903 9.051v6.4"/><path d="m29.049 29.6c7.0693 0 12.8-5.7308 12.8-12.8 0-7.06925-5.7307-12.8-12.8-12.8-7.0692 0-12.8 5.73075-12.8 12.8 0 7.0692 5.7308 12.8 12.8 12.8z"/></g></g></svg>