<svg fill="none" height="23" viewBox="0 0 23 23" width="23" xmlns="http://www.w3.org/2000/svg"><g clip-rule="evenodd" fill="#0f0b47" fill-rule="evenodd"><path d="m14.2929 14.2929c.3905-.3905 1.0237-.3905 1.4142 0l5.2929 5.2929v-3.1858c0-.5523.4477-1 1-1s1 .4477 1 1v5.6c0 .1356-.027.2649-.0759.3828-.0484.1171-.1201.2268-.2149.3222-.0014.0014-.0028.0028-.0042.0042-.0954.0948-.2051.1665-.3222.2149-.1179.0489-.2472.0759-.3828.0759h-5.6c-.5523 0-1-.4477-1-1s.4477-1 1-1h3.1858l-5.2929-5.2929c-.3905-.3905-.3905-1.0237 0-1.4142z"/><path d="m8.70711 14.2929c.39052.3905.39052 1.0237 0 1.4142l-5.2929 5.2929h3.18579c.55228 0 1 .4477 1 1s-.44772 1-1 1h-5.6c-.13559 0-.264877-.027-.382784-.0759-.117075-.0484-.226816-.1201-.322199-.2149-.001418-.0014-.002832-.0028-.004241-.0042-.094825-.0954-.166457-.2051-.2148973-.3222-.0488932-.1179-.0758787-.2472-.0758787-.3828 0-.0001 0-.0001 0-.0002v-5.5998c0-.5523.447715-1 1-1 .55228 0 1 .4477 1 1v3.1858l5.29289-5.2929c.39053-.3905 1.02369-.3905 1.41422 0z"/><path d="m15.4 1c0-.552285.4477-1 1-1h5.5998.0002c.1356 0 .2649.0269856.3828.0758788.1171.0484402.2268.1200722.3222.2148972.0014.001409.0028.002823.0042.004241.0948.095383.1665.205124.2149.322199.0489.117907.0759.247194.0759.382784v5.6c0 .55228-.4477 1-1 1s-1-.44772-1-1v-3.18579l-5.2929 5.2929c-.3905.39052-1.0237.39052-1.4142 0-.3905-.39053-.3905-1.02369 0-1.41422l5.2929-5.29289h-3.1858c-.5523 0-1-.44772-1-1z"/><path d="m3.41421 2 5.2929 5.29289c.39052.39053.39052 1.02369 0 1.41422-.39053.39052-1.02369.39052-1.41422 0l-5.29289-5.2929v3.18579c0 .55228-.44772 1-1 1-.552285 0-1-.44772-1-1v-5.59983c0-.00005 0-.00011 0-.00017 0-.255922.0976311-.511845.292893-.707107.095877-.095876.206378-.168215.324323-.2170143.117907-.0488932.247194-.0758787.382784-.0758787h.00017 5.59983c.55228 0 1 .447715 1 1 0 .55228-.44772 1-1 1z"/></g></svg>