<svg fill="none" height="44" viewBox="0 0 75 44" width="75" xmlns="http://www.w3.org/2000/svg"><g clip-rule="evenodd" fill-rule="evenodd"><path d="m46.5553 28.5217c.2763-1.0695 1.3672-1.7124 2.4367-1.4361 2.2849.5903 4.309 1.9231 5.7545 3.789 1.4455 1.8658 2.2307 4.159 2.2324 6.5195v4.3289c0 1.1046-.8954 2-2 2-1.1045 0-2-.8954-2-2v-4.3259c0-.0002 0 .0002 0 0-.0012-1.4746-.4918-2.9076-1.3945-4.0728-.9028-1.1653-2.1667-1.9974-3.593-2.3659-1.0694-.2763-1.7124-1.3673-1.4361-2.4367z" fill="#92efdf"/><path d="m63.8375 28.5217c.2763-1.0695 1.3673-1.7124 2.4367-1.4361 2.2849.5903 4.309 1.9231 5.7545 3.789 1.4455 1.8658 2.2307 4.159 2.2324 6.5195v4.3289c0 1.1046-.8954 2-2 2-1.1045 0-2-.8954-2-2v-4.3259c0-.0002 0 .0002 0 0-.0012-1.4746-.4918-2.9076-1.3945-4.0728-.9028-1.1653-2.1666-1.9974-3.593-2.3659-1.0694-.2763-1.7124-1.3673-1.4361-2.4367z" fill="#5c2cff"/><path d="m37.9049 2.56076c.2741-1.07001 1.3637-1.715198 2.4337-1.44107 2.2911.58696 4.3215 1.92012 5.7713 3.78904 1.4498 1.86891 2.2366 4.1673 2.2366 6.53287 0 2.3655-.7868 4.6639-2.2366 6.5328s-3.4802 3.2021-5.7713 3.789c-1.07.2742-2.1596-.371-2.4337-1.441-.2742-1.07.371-2.1597 1.441-2.4338 1.4301-.3664 2.6979-1.1987 3.6034-2.366.9056-1.1672 1.3972-2.6031 1.3972-4.081 0-1.47802-.4916-2.91383-1.3972-4.08111-.9055-1.16726-2.1733-1.99955-3.6034-2.36594-1.07-.27413-1.7152-1.36378-1.441-2.43379z" fill="#92efdf"/><path d="m55.1861 2.56076c.2741-1.07001 1.3638-1.715198 2.4338-1.44107 2.291.58696 4.3214 1.92012 5.7712 3.78904 1.4498 1.86891 2.2366 4.1673 2.2366 6.53287 0 2.3655-.7868 4.6639-2.2366 6.5328s-3.4802 3.2021-5.7712 3.789c-1.07.2742-2.1597-.371-2.4338-1.441s.3711-2.1597 1.4411-2.4338c1.4301-.3664 2.6979-1.1987 3.6034-2.366.9055-1.1672 1.3971-2.6031 1.3971-4.081 0-1.47802-.4916-2.91383-1.3971-4.08111-.9055-1.16726-2.1733-1.99955-3.6034-2.36594-1.07-.27413-1.7152-1.36378-1.4411-2.43379z" fill="#5c2cff"/><g fill="#0f0b47"><path d="m3.11878 29.8614c1.9971-1.9983 4.706-3.1212 7.53082-3.1212h17.2993c2.8249 0 5.5338 1.1229 7.5309 3.1212 1.997 1.9983 3.1187 4.7083 3.1187 7.5337v4.3275c0 1.1046-.8954 2-2 2-1.1045 0-2-.8954-2-2v-4.3275c0-1.7653-.7008-3.4582-1.948-4.7061s-2.9384-1.9488-4.7016-1.9488h-17.2993c-1.76316 0-3.45439.7009-4.70154 1.9488-1.24718 1.2479-1.94806 2.9408-1.94806 4.7061v4.3275c0 1.1046-.89543 2-2 2s-2-.8954-2-2v-4.3275c0-2.8254 1.12172-5.5354 3.11878-7.5337z"/><path d="m19.2991 4.77539c-3.6714 0-6.6497 2.97835-6.6497 6.65491 0 3.6765 2.9783 6.6549 6.6497 6.6549 3.6713 0 6.6496-2.9784 6.6496-6.6549 0-3.67656-2.9783-6.65491-6.6496-6.65491zm-10.64969 6.65491c0-5.8834 4.76689-10.654909 10.64969-10.654909 5.8827 0 10.6496 4.771509 10.6496 10.654909s-4.7669 10.6549-10.6496 10.6549c-5.8828 0-10.64969-4.7715-10.64969-10.6549z"/></g></g></svg>