<svg fill="none" height="63" viewBox="0 0 57 63" width="57" xmlns="http://www.w3.org/2000/svg"><path d="m48.4208 5.72505h-5.7001v-2.85947c.0008-.37602-.0722-.74851-.2147-1.09615-.1426-.34763-.352-.66358-.6161-.929751-.2642-.266174-.578-.477346-.9234-.62143-.3455-.1440839-.7158-.21824986-1.0898-.218249-.7559 0-1.4808.301911-2.0153.839311-.5345.537399-.8348 1.266269-.8348 2.026269v2.85947h-17.0882v-2.85947c0-.76-.3003-1.48887-.8348-2.026269-.5345-.5374-1.2594-.839311-2.0153-.839311-.374-.00000086-.7443.0741651-1.0898.218249-.3454.144084-.6592.355256-.9234.62143-.2641.266171-.4735.582121-.6161.929751-.1425.34764-.2155.72013-.2147 1.09615v2.85947h-5.70016c-2.26506.00324-4.43643.90935-6.03807 2.51971-1.601638 1.61035-2.50285486 3.79354-2.50607 6.07094v40.0937c.00321514 2.2774.904432 4.4605 2.50607 6.0709 1.60164 1.6103 3.77301 2.5165 6.03807 2.5197h39.87666c2.2651-.0032 4.4365-.9094 6.0381-2.5197 1.6017-1.6104 2.5029-3.7935 2.5061-6.0709v-40.0937c-.0032-2.2774-.9044-4.46059-2.5061-6.07094-1.6016-1.61036-3.773-2.51647-6.0381-2.51971zm2.844 48.68435c0 .7589-.2994 1.4869-.8326 2.0241s-1.2565.8398-2.0114.8414h-39.87666c-.75483-.0016-1.4782-.3042-2.01138-.8414-.53317-.5372-.83261-1.2652-.83261-2.0241v-40.0937c.0016-.7579.30175-1.4843.83476-2.0202.533-.5359 1.25545-.8377 2.00923-.8393h39.87666c.7538.0016 1.4763.3034 2.0093.8393s.8331 1.2623.8347 2.0202z" fill="#0c093a"/><g fill="#5c2cff"><path d="m28.4821 40.0933c3.0205-.0048 5.9158-1.2134 8.0516-3.3608s3.3378-5.0585 3.3426-8.0954c-.0016-3.0384-1.2024-5.952-3.3387-8.1011s-5.0335-3.358-8.0555-3.3612c-3.0209.0032-5.9172 1.2113-8.0534 3.359-2.1361 2.1478-3.3376 5.0598-3.3408 8.0972.0032 3.038 1.2045 5.9506 3.3405 8.0994 2.1359 2.1487 5.0322 3.3581 8.0537 3.3629zm0-17.1873c1.5107.0016 2.959.6061 4.0267 1.6807 1.0677 1.0747 1.6674 2.5315 1.6674 4.0504-.0016 1.5179-.6021 2.9732-1.6696 4.0465s-2.5148 1.677-4.0245 1.6786c-1.5097-.0016-2.957-.6053-4.0245-1.6786s-1.668-2.5286-1.6696-4.0465c0-1.5189.5997-2.9757 1.6674-4.0504 1.0677-1.0746 2.516-1.6791 4.0267-1.6807z"/><path d="m44.3798 47.7861c-4.4605-3.2077-9.8203-4.833-15.8972-4.833-5.6137.0289-11.0998 1.6858-15.8 4.7719-.6347.4119-1.0809 1.0602-1.2404 1.8026s-.0194 1.5181.3896 2.1567c.2573.4035.6115.7354 1.0299.965.4185.2296.8877.3495 1.3644.3486.5456-.0016 1.0792-.1607 1.5375-.4582 3.7823-2.489 8.1987-3.8277 12.719-3.8554 4.8615 0 9.1153 1.2648 12.5853 3.7576.3042.2193.6485.3761 1.0131.4613s.7423.0973 1.1115.0354c.3693-.0619.7227-.1964 1.0401-.396.3174-.1995.5925-.46.8096-.7667.437-.6178.6126-1.3846.4885-2.1324-.1242-.7479-.538-1.4157-1.1509-1.8574z"/></g></svg>