<svg fill="none" height="68" viewBox="0 0 55 68" width="55" xmlns="http://www.w3.org/2000/svg"><g stroke-linecap="round" stroke-linejoin="round"><path d="m17.7891 65.9993v-12.8001h18.9474v12.8001" stroke="#0f0b47" stroke-width="4"/><path d="m46.2107 2h-37.89489c-3.48813 0-6.31581 2.86539-6.31581 6.40002v51.20018c0 3.5346 2.82768 6.4 6.31581 6.4h37.89489c3.4881 0 6.3158-2.8654 6.3158-6.4v-51.20018c0-3.53463-2.8277-6.40002-6.3158-6.40002z" stroke="#0f0b47" stroke-width="4"/><path d="m14.6328 14.8008h.0314" stroke="#5c2cff" stroke-width="7.57897"/><path d="m39.8945 14.8008h.0314" stroke="#5c2cff" stroke-width="7.57897"/><path d="m27.2627 14.8008h.0314" stroke="#5c2cff" stroke-width="7.57897"/><path d="m27.2637 27.5977h.0314" stroke="#5c2cff" stroke-width="7.57897"/><path d="m27.2637 40.3984h.0314" stroke="#5c2cff" stroke-width="7.57897"/><path d="m39.8945 27.5977h.0314" stroke="#5c2cff" stroke-width="7.57897"/><path d="m39.8945 40.3984h.0314" stroke="#5c2cff" stroke-width="7.57897"/><path d="m14.6328 27.5977h.0314" stroke="#5c2cff" stroke-width="7.57897"/><path d="m14.6328 40.3984h.0314" stroke="#5c2cff" stroke-width="7.57897"/></g><path d="m2 2h50.5265v64.0002h-50.5265z" stroke="#0f0b47"/></svg>