<svg fill="none" height="63" viewBox="0 0 66 63" width="66" xmlns="http://www.w3.org/2000/svg"><g stroke-linecap="round" stroke-linejoin="round" stroke-width="6"><path d="m50.9998 47.94h-17.9699c-3.3 0-5.85 2.82-7.44 5.6999-1.2586 2.3618-3.2706 4.235-5.7161 5.3219-2.4455 1.087-5.1842 1.3252-7.7806.677-2.5965-.6483-4.90176-2.1459-6.54937-4.2547-1.64761-2.1089-2.54299-4.708-2.54383-7.3841.03-2.1.6-4.2 1.70999-6" stroke="#92efdf"/><path d="m15 48.0018 9.39-17.3399c1.5899-2.91.3-6.54-1.5-9.3-.8496-1.3587-1.4184-2.8737-1.673-4.4558-.2545-1.5821-.1896-3.1992.1909-4.7557.3806-1.5566 1.069-3.02125 2.0247-4.30747s2.1594-2.368 3.54-3.18152c1.3805-.81351 2.91-1.34228 4.4983-1.5551 1.5882-.21283 3.203-.1054 4.749.31595 1.5461.42134 2.992 1.14807 4.2527 2.1373 1.2606.98922 2.3104 2.22092 3.0873 3.62241" stroke="#5c2cff"/><path d="m33 15 9.39 17.1899c1.5899 2.91 5.3099 3.81 8.6099 3.81 3.1826 0 6.2348 1.2643 8.4853 3.5147 2.2504 2.2504 3.5147 5.3027 3.5147 8.4852 0 3.1826-1.2643 6.2349-3.5147 8.4853-2.2505 2.2504-5.3027 3.5147-8.4853 3.5147" stroke="#0f0b47"/></g></svg>