<svg fill="none" height="72" viewBox="0 0 70 72" width="70" xmlns="http://www.w3.org/2000/svg"><g stroke-linecap="round" stroke-linejoin="round" stroke-width="4.6"><g stroke="#000"><path d="m19.0607 45.8375-15.16467-26.1966c-.65391-1.1303-.96145-2.4278-.88442-3.7313s.53522-2.5557 1.31769-3.6011l5.36597-7.13242c.62093-.82786 1.42603-1.4998 2.35163-1.96259s1.9462-.70372 2.981-.70372h39.9948c1.0348 0 2.0554.24093 2.981.70372s1.7307 1.13473 2.3516 1.96259l5.3327 7.13242c.7876 1.042 1.2517 2.2925 1.3347 3.5961s-.2189 2.6028-.8681 3.7363l-15.1647 26.1966"/><path d="m31.6912 35.8382-19.5974-32.66242"/><path d="m38.3564 35.8382 19.5975-32.66242"/><path d="m21.6924 19.1758h26.6632"/><path d="m35.0229 69.1688c9.2035 0 16.6645-7.4609 16.6645-16.6645 0-9.2035-7.461-16.6645-16.6645-16.6645-9.2036 0-16.6645 7.461-16.6645 16.6645 0 9.2036 7.4609 16.6645 16.6645 16.6645z"/></g><path d="m35.0229 55.8377v-6.6658h-1.6665" stroke="#5c2cff"/></g></svg>