<svg fill="none" height="56" viewBox="0 0 176 56" width="176" xmlns="http://www.w3.org/2000/svg"><g fill="#27b6e0"><path d="m27.8568 56.0002c-15.179.0477-28.235452-12.4871-27.84891871-28.7559.35065771-14.7011 12.35401871-27.574115 28.54791871-27.23709509 14.9058.31029109 27.3235 12.45579509 27.2182 28.22719509-.103 15.3426-12.4466 27.767-27.916 27.7658zm-15.8201-18.8894c0 .5021-.015.8705.0035 1.2377.0428.8879-.2176 2.6195.9119 2.8414.9988.1964 2.6965-.846 3.6513-1.14 2.929-.903 5.857-1.24 8.8983-1.4748 2.9187-.2254 5.8061-.0732 8.7051.3347 1.4154.1987 2.8134.5032 4.1871.896 1.2973.3719 2.7844 1.1854 4.1257 1.3167 1.9257.1883 1.2476-4.0059 1.2047-5.2424-.0497-1.4085-.1735-2.8147-.3483-4.2139-.1088-.8681-.7002-2.2917-.5266-3.1285.1759-.8495 1.6469-1.6607 2.2267-2.3231.6712-.767 1.2406-1.6247 1.6641-2.5544.9872-2.165.9629-4.6404.0799-6.8368-.2986-.7438-1.2059-3.1831-2.0114-3.4806-1.2614-.4661-1.0346 1.3132-.9987 1.9826.1099 2.0848-.0208 3.9722-1.457 5.6143-.5903.6752-1.361 1.2981-2.1862 1.6595-1.1688.5113-1.7313-.4625-2.5992-1.1621-1.7927-1.4446-3.9637-2.3848-6.1927-2.9112-4.68-1.1052-9.8427.1557-13.5413 3.2284-.4873.4044-.9583 1.0622-1.6017 1.0552-.4109-.0046-.9687-.4207-1.3112-.6333-.8159-.5067-1.5057-1.1378-2.0299-1.9501-.6099-.9471-.9177-2.0442-1.0045-3.1622-.0695-.896.4814-2.5869.0324-3.3435-1.1203-1.8873-3.09462 3.3714-3.29483 4.1524-.55665 2.1685-.35876 4.4928.73951 6.4591.57401 1.0274 1.36562 1.8943 2.21042 2.702.9108.8705 1.4454 1.1052 1.177 2.3708-.5347 2.5148-.765 5.1355-.7129 7.705z"/><path d="m122.192 37.5337c-3.533 3.1994-9.25 3.6863-12.989.416-3.988-3.4876-3.304-9.2843-3.303-14.0444 0-1.9234-.552-5.4598 2.324-5.5411 2.953-.0837 2.424 3.5898 2.422 5.5004-.004 4.6881-.789 11.8898 5.839 11.8829 6.379-.007 5.726-6.9264 5.733-11.3867.003-1.9361-.57-6.0396 2.429-5.9722 2.854.0639 2.32 3.5666 2.321 5.4679.001 3.0297.005 6.0582.004 9.0879-.002 2.81.254 5.7816-.138 8.5684-.741 5.2564-4.805 8.0328-9.861 8.2489-2.778.1186-5.765-.4381-7.928-2.2975-.922-.7926-1.945-1.8606-1.512-3.1878.357-1.097 1.53-1.7304 2.629-1.462 1.198.2917 1.823 1.6538 2.904 2.2279 1.188.631 2.659.8204 3.987.6949 3.007-.2835 4.998-2.2847 5.131-5.3493.039-.9053.008-1.8129.008-2.8542z"/><path d="m171.455 36.9827c-1.944 1.8269-3.533 3.003-6.297 3.3633-2.697.3509-5.351-.1453-7.634-1.6758-4.157-2.7857-5.552-8.6952-3.981-13.3216 3.491-10.2826 19.825-9.8713 22.051 1.0796.652 3.2087.321 6.7822.32 10.0467 0 1.2655-.054 2.7891-1.43 3.3063-1.111.4183-2.581-.2243-2.837-1.4434-.087-.4126-.121-.8368-.193-1.3539zm-6.992-1.0075c.423 0 .861.0697 1.268-.0117 7.8-1.5723 6.692-14.0642-1.495-13.6876-3.76.1731-6.511 3.0146-6.527 6.8345-.016 3.7491 2.826 7.1785 6.754 6.8648z"/><path d="m90.104 18.292c2.3412.1406 4.7067.0523 7.0514.05 1.648-.0012 4.2726-.172 4.1556 2.265-.117 2.4382-2.9752 2.0372-4.6567 2.0361-2.1769-.0012-4.3746-.0919-6.548.0302-.1307 1.4445-.0601 2.9158-.0613 4.3661 0 1.7839-.1597 3.6538.0278 5.4272.3206 3.032 3.6906 4.5161 6.2308 2.8461 1.1064-.7275 1.1342-1.7653 1.7452-2.8124.7708-1.3213 2.4392-1.6002 3.5872-.5892 1.828 1.6096.169 4.7532-1.187 6.1489-3.642 3.7491-11.5763 3.0855-14.1212-1.6049-1.4836-2.7345-1.1307-6.2302-1.1156-9.2332.0185-3.6317.0428-7.2634.0613-10.8951.0104-2.0639-.9709-8.6428 2.9766-7.64336 1.4315.36259 1.7695 1.59796 1.7984 2.90536.044 1.9989-.0232 4.0001.0011 5.999.0024.2068.0313.4137.0544.703z"/><path d="m72.2888 40.3983c-2.2868-.0186-9.499-1.5596-7.7006-5.304.8252-1.7177 2.7289-1.5073 3.8723-.3568 1.3332 1.3422 2.965 1.7699 4.8664 1.4712 1.5461-.2428 3.4175-1.2249 3.0552-3.0866-.3645-1.8734-3.1536-1.7943-4.5979-2.0326-3.282-.5404-7.3036-1.1482-7.8533-5.125-.5196-3.7619 1.5831-6.8218 5.1927-7.8421 3.0796-.8705 8.2538-.5776 10.1795 2.4753.7858 1.2458.2824 2.8949-1.1469 3.3981-1.9245.6764-2.6791-1.4573-4.3039-1.9605-1.523-.4718-3.8133-.2696-4.8189 1.1424-1.2499 1.7536.206 2.9541 1.7984 3.3818 3.5309.9483 9.1923.5776 10.1841 5.1262.9166 4.2023-1.8852 7.5888-5.9253 8.3732-.9212.179-1.8667.2301-2.8006.3394z"/><path d="m136.911 32.0157c0 2.0791.973 6.6974-1.563 7.6841-.863.3359-1.973.0907-2.603-.5997-.805-.8832-.579-2.2847-.579-3.369 0-3.0901-.143-6.2198.016-9.3052.128-2.5045 1.037-5.06 3.027-6.6742 3.479-2.8205 9.899-2.6764 13.088.5508 1.341 1.3563 3.139 4.4359 1.648 6.1745-.752.8762-2.045 1.1307-3.052.5078-.956-.5915-.98-1.6839-1.472-2.588-1.327-2.4394-4.959-2.8926-7.042-1.1517-2.26 1.8896-1.466 6.1767-1.467 8.7718z"/></g></svg>