<svg fill="none" height="31" viewBox="0 0 100 31" width="100" xmlns="http://www.w3.org/2000/svg"><path d="m.405633 27.0117c-.014217-1.9104 1.606477-3.4783 3.710547-3.5837 4.10861-.224 7.10832-2.6746 7.80492-6.3901.0853-.4348.0853-.8828.1564-1.3044.327-1.8973 2.0898-3.2412 4.0375-3.0963 2.0472.1581 3.5826 1.6338 3.6537 3.5047.0569 1.8841-1.4501 3.4652-3.5399 3.6497-1.4359.1185-2.8149.382-4.0518 1.0935-2.53055 1.4362-3.86691 3.5442-4.0233 6.2848-.11373 1.9631-1.87659 3.5046-3.95222 3.4388-2.10407-.0527-3.795847-1.6601-3.795847-3.597zm13.605367.0527c-.0143-1.9236 1.578-3.5178 3.6536-3.6232 4.5494-.2635 7.6628-3.1095 7.9614-7.2993.1421-2.0158 1.8055-3.5047 3.8953-3.4783 2.0614.0263 3.7816 1.5547 3.8527 3.4651.0711 1.9105-1.5212 3.597-3.6536 3.7024-4.919.2503-7.9045 3.8472-7.9898 7.4705-.0427 1.95-1.9477 3.4125-4.0375 3.3334-2.0046-.0922-3.6679-1.7128-3.6821-3.5706zm-13.605367-12.688c.028433-1.9895 1.620697-3.4652 3.866927-3.5837 3.49729-.1845 6.21264-2.09495 7.29314-5.17803.2417-.6983.3554-1.44931.4407-2.17397.2133-2.02903 1.905-3.4783384 4.0375-3.4256362 1.9619.0527022 3.6253 1.6205962 3.6964 3.4519962.0711 1.9368-1.4928 3.54422-3.6395 3.7155-4.7341.39527-7.62011 3.09624-8.00396 7.52324-.1706 1.8973-1.9619 3.3598-4.02331 3.2675-2.03298-.079-3.696331-1.6996-3.667897-3.5969zm25.220367-10.85664c.0568-1.97633 1.8197-3.5573984 3.938-3.5046962 2.1182.0527022 3.8385 1.6996462 3.7958 3.6496262-.0426 1.97633-1.8055 3.57057-3.9096 3.53104-2.1751-.02635-3.8811-1.66011-3.8242-3.67597z" fill="#e95132"/><path d="m8.15358 3.65035c-.05687 2.02903-1.80551 3.58375-3.96644 3.54422-2.10407-.03952-3.810062-1.69964-3.767412-3.67597.04265-1.97634 1.862382-3.5574013 4.023312-3.51787471 2.04719.06587771 3.75319 1.72599471 3.71054 3.64962471zm25.20612 23.41295c0 1.9631-1.7344 3.5574-3.8812 3.5574-2.1182 0-3.8669-1.6338-3.8527-3.5838.0143-2.0026 1.7771-3.6232 3.9238-3.5969 2.1325.0132 3.8243 1.6338 3.8101 3.6233z" fill="#e95132"/><g fill="#000"><path d="m37.6963 11.8966c0-1.5942.3981-2.87226 1.2084-3.8209.8104-.94864 1.8766-1.43613 3.213-1.43613 1.2652 0 2.2604.40844 2.9855 1.22533l.1137-1.04087h2.2462v9.97387c0 1.3439-.4549 2.4111-1.3506 3.1885-.9098.7774-2.1182 1.1726-3.6536 1.1726-.8104 0-1.6065-.1581-2.3742-.4743s-1.3648-.7247-1.7629-1.2253l1.1658-1.3835c.7677.8433 1.706 1.2649 2.8291 1.2649.8246 0 1.4785-.2108 1.9619-.6193.4834-.4216.7108-1.0277.7108-1.8314v-.6983c-.7108.7379-1.6775 1.1068-2.8717 1.1068-1.2937 0-2.36-.4743-3.1846-1.4362-.8245-.9486-1.2368-2.2793-1.2368-3.9658zm2.4879.1976c0 1.0277.2275 1.8446.6824 2.4375s1.0805.8828 1.8908.8828c1.0094 0 1.7487-.3953 2.232-1.199v-4.5192c-.4691-.77736-1.2084-1.17263-2.2178-1.17263-.8245 0-1.4501.30304-1.905.90912-.4549.60611-.6824 1.48881-.6824 2.66141zm9.3688-.2239c0-1.0014.2132-1.91049.6397-2.72738.4265-.80371 1.0378-1.42296 1.8055-1.85775.7819-.43479 1.6776-.6456 2.687-.6456 1.4927 0 2.7011.44797 3.6394 1.34391.9383.89593 1.4359 2.08172 1.507 3.55742l.0142.5402c0 1.0145-.2132 1.9236-.6255 2.7141-.4123.7906-1.0236 1.423-1.8055 1.8578s-1.6776.6588-2.7012.6588c-1.5638 0-2.8149-.4875-3.7532-1.4494-.9383-.9618-1.4074-2.253-1.4074-3.8604zm2.4879.1976c0 1.054.2417 1.8841.7108 2.4902.4692.5929 1.1231.8959 1.9619.8959s1.4928-.303 1.9619-.9091c.4692-.6061.6966-1.502.6966-2.6746 0-1.0409-.2417-1.8578-.725-2.47704-.4834-.60608-1.1374-.90911-1.9619-.90911-.8104 0-1.4643.30303-1.9335.89593-.4691.60608-.7108 1.50202-.7108 2.68782zm12.5675 5.0462h-2.4879v-14.59848h2.4879zm2.2462-5.2175c0-1.5811.3981-2.85908 1.1942-3.8209.7962-.96181 1.8482-1.43613 3.1845-1.43613 1.18 0 2.1183.38209 2.8434 1.14627v-5.27022h2.4879v14.59848h-2.2462l-.128-1.0672c-.7393.8301-1.7344 1.2517-2.9855 1.2517-1.2937 0-2.3457-.4875-3.1419-1.4493-.8103-.975-1.2084-2.2926-1.2084-3.9527zm2.4879.1976c0 1.0409.2133 1.8578.654 2.4507.4265.5797 1.052.8828 1.8482.8828 1.0236 0 1.7628-.4217 2.232-1.2649v-4.40063c-.455-.83006-1.1942-1.2385-2.2178-1.2385-.8104 0-1.4217.28986-1.8624.88276-.4407.60607-.654 1.48887-.654 2.68777zm14.6858 5.2044c-1.578 0-2.8575-.4612-3.8385-1.3834-.9809-.9223-1.4643-2.1477-1.4643-3.6892v-.2899c0-1.0277.2133-1.94994.6398-2.75365s1.0236-1.43613 1.7913-1.8841 1.6349-.67196 2.5732-.67196c1.5069 0 2.6727.44797 3.4973 1.34391.8245.89594 1.2368 2.1608 1.2368 3.7946v.9354h-7.2363c.0711.8433.3839 1.5152.9099 2.0159.5402.5006 1.2084.7378 2.0188.7378 1.1373 0 2.0614-.4216 2.7864-1.278l1.3364 1.1858c-.4407.6192-1.0378 1.0935-1.7771 1.4361-.725.3294-1.5496.5007-2.4737.5007zm-.2985-8.81445c-.6824 0-1.2369.22398-1.6492.67195-.4265.44797-.6823 1.0672-.8103 1.8578h4.7341v-.1713c-.0568-.7774-.2701-1.35711-.6681-1.75238-.3697-.40844-.9099-.60607-1.6065-.60607zm8.9849-1.66012.0711 1.1858c.8246-.92229 1.8908-1.38344 3.2272-1.38344 2.3031 0 3.483 1.22533 3.5257 3.67601v6.7986h-2.4879v-6.6537c0-.65878-.1564-1.1331-.455-1.44931-.2985-.31621-.7961-.47432-1.4927-.47432-1.0094 0-1.7486.42162-2.2462 1.26485v7.32558h-2.4879v-10.29007z"/><path d="m53.7052 26.4027c0-.3425-.1563-.6192-.4549-.83-.2985-.2108-.7535-.3689-1.3506-.4875s-1.0662-.2504-1.4074-.4085c-.327-.1581-.5829-.3425-.7393-.5665s-.2417-.4875-.2417-.8037c0-.5007.2275-.9091.6682-1.2385.4549-.3294 1.0236-.4875 1.7202-.4875.7535 0 1.3648.1713 1.8198.527.4549.3426.6823.8037.6823 1.3571h-.7534c0-.3689-.1706-.672-.4976-.9223s-.7535-.3689-1.2653-.3689c-.4976 0-.8956.1054-1.1942.303-.2985.2108-.4549.4743-.4549.7906 0 .3162.1279.5533.3696.7378.2559.1713.7108.3294 1.3648.4743s1.1516.303 1.4785.4611c.327.1582.5687.3558.7393.5929.1564.224.2417.5139.2417.8301 0 .527-.2275.9618-.6966 1.278-.4692.3162-1.0663.4744-1.8198.4744-.7961 0-1.4358-.1845-1.9334-.5402-.4976-.3558-.7393-.8038-.7393-1.3571h.7535c.0284.4084.2132.7246.5544.9486s.7962.3426 1.3506.3426c.526 0 .9525-.1054 1.2653-.3162.3696-.1977.5402-.4612.5402-.7906zm2.0188-1.6469c0-.6061.1279-1.1595.3838-1.6338.2559-.4875.6114-.8696 1.0805-1.1331.4692-.2767.981-.4084 1.5781-.4084.9098 0 1.6349.2898 2.2035.8827.5545.5929.8388 1.3703.8388 2.3453v.1449c0 .6061-.1279 1.1595-.3838 1.647s-.6113.8696-1.0663 1.1331c-.4549.2635-.9809.3952-1.578.3952-.8957 0-1.6349-.2898-2.2036-.8827s-.8388-1.3703-.8388-2.3453v-.1449zm.7535.1976c0 .751.2132 1.3703.6255 1.8578.4265.4875.9667.7246 1.6491.7246s1.2227-.2371 1.6492-.7246.6255-1.1199.6255-1.9237v-.1317c0-.4875-.0995-.9223-.2843-1.3307-.1991-.3953-.4692-.7115-.8104-.9355s-.7392-.3294-1.1942-.3294c-.6682 0-1.2226.2503-1.6349.7378-.4265.4875-.6397 1.1331-.6397 1.9237v.1317zm7.7196 3.0567h-.7535v-8.9593h.7535zm6.4117-.8037c-.4549.6061-1.18.9223-2.1751.9223-.7251 0-1.2795-.1976-1.6492-.5929-.3838-.3952-.5686-.975-.5828-1.7391v-4.1108h.7534v4.0317c0 1.199.5261 1.8051 1.5781 1.8051 1.0947 0 1.7771-.4217 2.0614-1.2517v-4.5719h.7535v6.311h-.7251zm3.8669-7.1279v1.6206h1.4075v.5665h-1.4075v4.2162c0 .3557.0711.6061.1991.7773.1421.1713.3696.2636.6824.2636.1279 0 .327-.0132.6113-.0527l.0284.5665c-.199.0659-.4691.0922-.8103.0922-.5118 0-.8957-.1449-1.1231-.4216-.2417-.2767-.3555-.6851-.3555-1.2253v-4.2162h-1.2368v-.5665h1.2511v-1.6206zm2.9287-.2108c0-.1318.0426-.2372.1421-.3294.0853-.0923.2133-.1318.3839-.1318.1564 0 .2843.0395.3838.1318.0996.0922.1422.1976.1422.3294 0 .1317-.0426.2371-.1422.3294-.0995.0922-.2274.1317-.3838.1317s-.2843-.0395-.3839-.1317c-.0995-.0923-.1421-.1977-.1421-.3294zm.8814 8.1424h-.7535v-6.311h.7535zm1.6349-3.2543c0-.6061.128-1.1595.3839-1.6338.2559-.4875.6113-.8696 1.0804-1.1331.4692-.2767.981-.4084 1.5781-.4084.9098 0 1.6349.2898 2.2036.8827.5544.5929.8387 1.3703.8387 2.3453v.1449c0 .6061-.1279 1.1595-.3838 1.647s-.6113.8696-1.0663 1.1331c-.4549.2635-.9809.3952-1.578.3952-.8956 0-1.6349-.2898-2.2036-.8827-.5686-.5929-.8388-1.3703-.8388-2.3453v-.1449zm.7535.1976c0 .751.2132 1.3703.6255 1.8578.4265.4875.9668.7246 1.6492.7246s1.2226-.2371 1.6491-.7246.6255-1.1199.6255-1.9237v-.1317c0-.4875-.0995-.9223-.2843-1.3307-.199-.3953-.4692-.7115-.8104-.9355s-.7392-.3294-1.1942-.3294c-.6681 0-1.2226.2503-1.6349.7378-.4265.4875-.6397 1.1331-.6397 1.9237v.1317zm7.5775-3.2675.0284 1.0804c.2559-.3953.5687-.6851.9525-.896.3839-.2108.7962-.303 1.2653-.303.725 0 1.2653.1845 1.6349.5666.3554.382.5402.9486.5402 1.7128v4.1371h-.7534v-4.1503c0-.5665-.128-.9882-.3839-1.2648-.2559-.2767-.6539-.4085-1.2226-.4085-.4692 0-.8814.1318-1.2369.4085-.3554.2766-.6255.6324-.7961 1.0935v4.3216h-.7393v-6.3111h.7109zm10.435 4.7168c0-.3425-.1564-.6192-.4549-.83-.2986-.2108-.7535-.3689-1.3506-.4875s-1.0663-.2504-1.4075-.4085c-.327-.1581-.5829-.3425-.7392-.5665-.1564-.224-.2417-.4875-.2417-.8037 0-.5007.2274-.9091.6682-1.2385.4549-.3294 1.0236-.4875 1.7202-.4875.7535 0 1.3648.1713 1.8197.527.4549.3426.6824.8037.6824 1.3571h-.7535c0-.3689-.1706-.672-.4976-.9223-.3269-.2503-.7535-.3689-1.2652-.3689-.4976 0-.8957.1054-1.1942.303-.2986.2108-.455.4743-.455.7906 0 .3162.128.5533.3697.7378.2559.1713.7108.3294 1.3648.4743.6539.1449 1.1515.303 1.4785.4611.327.1582.5687.3558.7393.5929.1563.224.2416.5139.2416.8301 0 .527-.2274.9618-.6966 1.278-.4691.3162-1.0662.4744-1.8197.4744-.7961 0-1.4359-.1845-1.9335-.5402-.4976-.3558-.7392-.8038-.7392-1.3571h.7534c.0285.4084.2133.7246.5545.9486s.7961.3426 1.3506.3426c.526 0 .9525-.1054 1.2653-.3162.3696-.1977.5402-.4612.5402-.7906z"/></g></svg>