<svg fill="none" height="80" viewBox="0 0 77 80" width="77" xmlns="http://www.w3.org/2000/svg"><path d="m2.98129 66.7794c0 .6184.14265 1.1681.41367 1.6766.27103.5084.64191.9345 1.09837 1.2918.45647.3573.96999.6321 1.5691.8382.59911.1924 1.21249.3024 1.85439.3024.87014 0 1.61189-.1924 2.25378-.5772.6419-.3848 1.2268-.8933 1.7546-1.5254l2.0968 1.5391c-1.5405 1.924-3.7087 2.886-6.47606 2.886-1.15543 0-2.19674-.1924-3.1382-.5635-.94146-.371-1.72601-.8932-2.38217-1.5666-.64191-.6597-1.141168-1.443-1.497782-2.35-.356613-.907-.527788-1.8827-.527788-2.9271 0-1.0445.185439-2.0202.570582-2.9272.385142-.907.898668-1.6903 1.569098-2.3499.67044-.6597 1.46925-1.1819 2.39645-1.5667.92719-.371 1.92571-.5634 3.02408-.5634 1.29807 0 2.39644.2199 3.28089.6596.8986.4398 1.6261 1.0032 2.211 1.7041.5705.7009.9985 1.4979 1.2552 2.3774.2568.8796.3852 1.7728.3852 2.6936v.9482zm8.75841-2.1301c-.0142-.5909-.1141-1.1406-.2995-1.6353-.1712-.4948-.4422-.9208-.7846-1.2918-.3566-.3711-.78454-.6597-1.31232-.8658-.52779-.2062-1.14117-.3161-1.84013-.3161-.6847 0-1.29807.1237-1.86866.3711-.57058.2473-1.04131.5634-1.44071.9619-.38515.3986-.69897.8383-.91294 1.3193-.21396.481-.32808.962-.32808 1.443h8.78694zm5.3635-5.8818h2.7816v2.1713h.057c.3424-.7558.9558-1.3605 1.8259-1.8277s1.8544-.7009 2.9955-.7009c.699 0 1.3694.11 2.0256.3161.6419.2061 1.2125.536 1.6975.962.485.4397.8701.9894 1.1554 1.6766.2853.6871.428 1.4979.428 2.4186v9.0701h-2.7816v-8.328c0-.6596-.0856-1.2093-.2711-1.6766-.1854-.4672-.4279-.8382-.7417-1.1268s-.6562-.4948-1.0698-.6184c-.3995-.1237-.8131-.1924-1.2553-.1924-.5706 0-1.1127.0962-1.5977.2611-.4992.1786-.9272.4672-1.298.852-.3709.3848-.6562.8795-.8702 1.4704-.1997.591-.3138 1.2918-.3138 2.1164v7.256h-2.7816v-14.0998zm13.8509 0h3.2095l4.3792 10.7879 4.1938-10.7879h2.967l-5.7343 14.0861h-3.0527zm14.9349 7.0362c0-1.0307.1997-1.9927.5991-2.8859.3995-.8933.9558-1.6766 1.6547-2.35.699-.6734 1.5263-1.2093 2.4678-1.5941s1.9685-.5772 3.0526-.5772 2.1112.1924 3.0526.5772c.9415.3848 1.7688.9207 2.4678 1.5941s1.2553 1.4567 1.6547 2.35c.3994.8932.5991 1.8552.5991 2.8859s-.1997 1.9926-.5991 2.8996-.9557 1.6904-1.6547 2.35-1.5263 1.1818-2.4678 1.5804c-.9414.3848-1.9685.5772-3.0526.5772s-2.1111-.1924-3.0526-.5772-1.7688-.907-2.4678-1.5804c-.6989-.6734-1.2552-1.443-1.6547-2.35-.3994-.907-.5991-1.8689-.5991-2.8996zm2.9671 0c0 .7146.1141 1.3742.3423 1.9789s.5421 1.1131.9557 1.5391c.4137.4261.913.7696 1.5121 1.017s1.2695.371 2.0113.371c.7417 0 1.4122-.1236 2.0113-.371s1.0983-.5909 1.512-1.017c.4137-.426.7275-.9344.9557-1.5391.2283-.6047.3424-1.2643.3424-1.9789s-.1141-1.3743-.3424-1.9789c-.2282-.6047-.542-1.1132-.9557-1.5392s-.9129-.7558-1.512-1.0169c-.5991-.2474-1.2696-.3711-2.0113-.3711-.7418 0-1.4122.1237-2.0113.3711-.5991.2473-1.0984.5909-1.5121 1.0169-.4136.426-.7275.9482-.9557 1.5392-.2425.6046-.3423 1.2643-.3423 1.9789zm12.7953-7.0362h3.2095l4.3364 10.994h.0571l4.1509-10.994h2.9671l-6.9469 17.1231c-.2425.6185-.4992 1.1682-.7702 1.6766-.2711.5085-.5849.9345-.9558 1.2918s-.8131.6322-1.3408.8383c-.5278.1924-1.1555.3023-1.9258.3023-.4136 0-.8273-.0274-1.241-.0687-.4136-.0549-.8273-.1511-1.2125-.3161l.3424-2.4324c.5563.2199 1.0984.3299 1.6547.3299.4279 0 .7845-.055 1.0841-.165.2995-.1099.5563-.2611.7703-.4809.2139-.2062.3994-.4535.542-.7284.1427-.2748.2853-.5909.428-.9482l.8986-2.2263z" fill="#4a0d66"/><path d="m22.0396 22.3639.0856 3.738 4.0797 2.4324-.0856-3.738zm9.9567 15.5153-.0856-3.6555-3.5804-2.1301c-.0571-.0275-.0999-.0687-.1569-.0962l.0856 3.6692zm-12.7382 4.9335-9.32906-5.5794-.22823-9.3587 4.57889-1.8964-.0856-3.738-7.30341 3.0371c-.55632.2336-.89867.7284-.8844 1.3056l.27103 11.2138c.01426.5772.38514 1.1406.95572 1.4979l11.19766 6.6789c.5278.3161 1.1554.3985 1.6832.2336.0571-.0137.1141-.0412.1569-.055l6.8755-2.8584-3.723-2.2263z" fill="#b31aab"/><path d="m49.4128 22.1444c-.0143-.6733-.4422-1.333-1.1127-1.7453l-13.5941-8.1218-.4137.1787.0999 3.9303 10.7555 6.4178.2567 10.513 4.1225 2.4599.2282-.0962zm-16.2759 18.4424-12.6241-7.5308-.3138-12.6569 5.7486-2.3911-.0999-4.3564-8.9296 3.7105c-.6561.2748-1.0555.852-1.027 1.5254l.3709 14.8418c.0142.6734.4422 1.3331 1.1126 1.7316l14.8066 8.8364c.6134.3573 1.3409.4672 1.9685.2748.0571-.0137.1284-.0412.1854-.0687l8.7442-3.628-4.3792-2.5973z" fill="#d163ce"/><path d="m68.6553 11.7549-18.9718-11.337514c-.699-.41227374-1.5406-.522213-2.2538-.316076-.0714.027484-.1427.041227-.1998.068712l-18.5153 7.695778c-.7561.31608-1.1983.97572-1.184 1.7453l.4707 19.0196c.0143.7695.4993 1.5254 1.2696 1.9926l18.9718 11.3238c.699.4123 1.5263.536 2.2396.3161.0713-.0275.1426-.0412.2139-.0825l18.5154-7.682c.756-.3161 1.1982-.9757 1.184-1.7453l-.4708-19.0196c-.0142-.7558-.4992-1.5116-1.2695-1.9789zm-19.2857 25.9595-16.4898-9.8396-.4137-16.5322 16.0904-6.67879 16.4899 9.83959.3994 16.5322z" fill="#e13eaf"/></svg>