<svg fill="none" height="60" viewBox="0 0 260 60" width="260" xmlns="http://www.w3.org/2000/svg"><path d="m30.0818 5.07617v12.50283h-12.5028v12.5028h-12.50283v25.0055h225.04983v-12.5028h12.503v-12.5027h12.503v-25.00563z" fill="#59cfe6"/><path d="m12.2197 46.1551h210.7623v-12.5028h10.716v-10.7168h23.403" fill="#59cfe6"/><path d="m12.2197 46.1551h210.7623v-12.5028h10.716v-10.7168h23.403" stroke="#fff" stroke-linecap="round" stroke-width="5.33335"/><path d="m42.0455 39.3879c1.1698 0 2.3163-.234 3.3692-.6785 1.0528-.4445 1.9653-1.0763 2.7608-1.8717.7955-.7956 1.4272-1.708 1.8718-2.7609.4445-1.0529.6785-2.1993.6785-3.3692 0-1.1698-.234-2.3163-.6785-3.3691-.4446-1.0529-1.0763-1.9654-1.8718-2.7609s-1.708-1.4272-2.7608-1.8717c-1.0529-.4446-2.1994-.6786-3.3692-.6786-1.1699 0-2.3163.234-3.3692.6786-1.0528.4445-1.9653 1.0762-2.7608 1.8717s-1.4273 1.708-1.8718 2.7609c-.4445 1.0528-.6785 2.1993-.6785 3.3691 0 1.1699.234 2.3163.6785 3.3692s1.0763 1.9653 1.8718 2.7609c.7955.7954 1.708 1.4272 2.7608 1.8717 1.0529.4445 2.1993.6785 3.3692.6785m0-15.2548c1.7548 0 3.4159.6785 4.656 1.9185 1.2401 1.2401 1.9186 2.9013 1.9186 4.656 0 1.7548-.6785 3.416-1.9186 4.656-1.2401 1.2401-2.9012 1.9186-4.656 1.9186s-3.416-.6785-4.656-1.9186c-1.24-1.24-1.9186-2.9012-1.9186-4.656 0-1.7547.6786-3.4159 1.9186-4.656 1.24-1.24 2.9012-1.9185 4.656-1.9185" fill="#fff"/><path d="m42.0455 39.3879c1.1698 0 2.3163-.234 3.3692-.6785 1.0528-.4445 1.9653-1.0763 2.7608-1.8717.7955-.7956 1.4272-1.708 1.8718-2.7609.4445-1.0529.6785-2.1993.6785-3.3692 0-1.1698-.234-2.3163-.6785-3.3691-.4446-1.0529-1.0763-1.9654-1.8718-2.7609s-1.708-1.4272-2.7608-1.8717c-1.0529-.4446-2.1994-.6786-3.3692-.6786-1.1699 0-2.3163.234-3.3692.6786-1.0528.4445-1.9653 1.0762-2.7608 1.8717s-1.4273 1.708-1.8718 2.7609c-.4445 1.0528-.6785 2.1993-.6785 3.3691 0 1.1699.234 2.3163.6785 3.3692s1.0763 1.9653 1.8718 2.7609c.7955.7954 1.708 1.4272 2.7608 1.8717 1.0529.4445 2.1993.6785 3.3692.6785m0-15.2548c1.7548 0 3.4159.6785 4.656 1.9185 1.2401 1.2401 1.9186 2.9013 1.9186 4.656 0 1.7548-.6785 3.416-1.9186 4.656-1.2401 1.2401-2.9012 1.9186-4.656 1.9186s-3.416-.6785-4.656-1.9186c-1.24-1.24-1.9186-2.9012-1.9186-4.656 0-1.7547.6786-3.4159 1.9186-4.656 1.24-1.24 2.9012-1.9185 4.656-1.9185" stroke="#fff" stroke-width="2.133"/><path d="m65.2566 39.3879c1.0061 0 1.9888-.1871 2.9013-.5849.889-.3744 1.6846-.9125 2.3631-1.591s1.2166-1.474 1.5909-2.3631c.3978-.9125.585-1.8952.585-2.9012v-9.9204h-2.1057v9.9204c0 1.4272-.5616 2.7608-1.5677 3.7669-1.006 1.006-2.3396 1.5676-3.7669 1.5676-1.4272 0-2.7608-.5616-3.7669-1.5676-1.006-1.0061-1.5676-2.3397-1.5676-3.7669v-9.9204h-2.1057v9.9204c0 1.006.1872 1.9887.5849 2.9012.3744.8891.9125 1.6846 1.591 2.3631s1.474 1.2166 2.3631 1.591c.9125.3978 1.8952.5849 2.9012.5849" fill="#fff"/><path d="m65.2566 39.3879c1.0061 0 1.9888-.1871 2.9013-.5849.889-.3744 1.6846-.9125 2.3631-1.591s1.2166-1.474 1.5909-2.3631c.3978-.9125.585-1.8952.585-2.9012v-9.9204h-2.1057v9.9204c0 1.4272-.5616 2.7608-1.5677 3.7669-1.006 1.006-2.3396 1.5676-3.7669 1.5676-1.4272 0-2.7608-.5616-3.7669-1.5676-1.006-1.0061-1.5676-2.3397-1.5676-3.7669v-9.9204h-2.1057v9.9204c0 1.006.1872 1.9887.5849 2.9012.3744.8891.9125 1.6846 1.591 2.3631s1.474 1.2166 2.3631 1.591c.9125.3978 1.8952.5849 2.9012.5849" stroke="#fff" stroke-width="2.133"/><path d="m93.5113 22.0273h-13.7574v2.1058h5.8258v15.2548h2.1058v-15.2548h5.8258z" fill="#fff"/><path d="m93.5113 22.0273h-13.7574v2.1058h5.8258v15.2548h2.1058v-15.2548h5.8258z" stroke="#fff" stroke-width="2.133"/><path d="m111.538 39.3879h2.573l-4.96-7.0191c1.217-.0936 2.34-.6317 3.206-1.4974.982-.9827 1.52-2.2695 1.52-3.6733 0-1.3804-.538-2.6673-1.52-3.65-.983-.9826-2.27-1.5208-3.65-1.5208h-7.534v17.3606h2.106v-6.9957h3.299zm-8.259-15.2548h5.428c1.684 0 3.065 1.3804 3.065 3.065 0 1.708-1.381 3.0884-3.065 3.0884h-5.428z" fill="#fff" stroke="#fff" stroke-width="2.133"/><path d="m124.532 37.2822v-6.1534h7.043v-2.1057h-7.043v-4.89h8.283v-2.1058h-10.388v17.3606h1.053 9.873v-2.1057z" fill="#fff"/><path d="m124.532 37.2822v-6.1534h7.043v-2.1057h-7.043v-4.89h8.283v-2.1058h-10.388v17.3606h1.053 9.873v-2.1057z" stroke="#fff" stroke-width="2.133"/><path d="m147.849 22.0273-7.768 17.3606h2.316l1.802-4.0243h9.71l1.801 4.0243h2.317l-7.792-17.3606zm-2.714 11.2306 3.907-8.7505 3.931 8.7505z" fill="#fff" stroke="#fff" stroke-width="2.133"/><path d="m171.625 39.3879c1.169 0 2.316-.234 3.369-.6785s1.965-1.0763 2.761-1.8717l-1.474-1.4741c-1.24 1.2401-2.902 1.9186-4.656 1.9186-1.755 0-3.416-.6785-4.656-1.9186-1.24-1.24-1.919-2.9012-1.919-4.656 0-1.7547.679-3.4159 1.919-4.656 1.24-1.24 2.901-1.9185 4.656-1.9185 1.754 0 3.416.6785 4.656 1.9185l1.474-1.474c-.796-.7955-1.708-1.4272-2.761-1.8717-1.053-.4446-2.2-.6786-3.369-.6786-1.17 0-2.317.234-3.37.6786-1.052.4445-1.965 1.0762-2.76 1.8717-.796.7955-1.428 1.708-1.872 2.7609-.445 1.0528-.679 2.1993-.679 3.3691 0 1.1699.234 2.3163.679 3.3692.444 1.0529 1.076 1.9653 1.872 2.7609.795.7954 1.708 1.4272 2.76 1.8717 1.053.4445 2.2.6785 3.37.6785" fill="#fff"/><path d="m171.625 39.3879c1.169 0 2.316-.234 3.369-.6785s1.965-1.0763 2.761-1.8717l-1.474-1.4741c-1.24 1.2401-2.902 1.9186-4.656 1.9186-1.755 0-3.416-.6785-4.656-1.9186-1.24-1.24-1.919-2.9012-1.919-4.656 0-1.7547.679-3.4159 1.919-4.656 1.24-1.24 2.901-1.9185 4.656-1.9185 1.754 0 3.416.6785 4.656 1.9185l1.474-1.474c-.796-.7955-1.708-1.4272-2.761-1.8717-1.053-.4446-2.2-.6786-3.369-.6786-1.17 0-2.317.234-3.37.6786-1.052.4445-1.965 1.0762-2.76 1.8717-.796.7955-1.428 1.708-1.872 2.7609-.445 1.0528-.679 2.1993-.679 3.3691 0 1.1699.234 2.3163.679 3.3692.444 1.0529 1.076 1.9653 1.872 2.7609.795.7954 1.708 1.4272 2.76 1.8717 1.053.4445 2.2.6785 3.37.6785" stroke="#fff" stroke-width="2.133"/><path d="m196.488 22.0977v6.9957h-9.546v-6.9957h-2.106v17.2903h2.106v-8.1889h9.546v8.2591h2.105v-17.3605z" fill="#fff"/><path d="m196.488 22.0977v6.9957h-9.546v-6.9957h-2.106v17.2903h2.106v-8.1889h9.546v8.2591h2.105v-17.3605z" stroke="#fff" stroke-width="2.133"/><path d="m217.188 22.0273-4.469 6.2237-4.445-6.2237h-2.597l5.989 8.3762v8.9844h2.106v-8.9844l6.013-8.3762z" fill="#fff"/><path d="m217.188 22.0273-4.469 6.2237-4.445-6.2237h-2.597l5.989 8.3762v8.9844h2.106v-8.9844l6.013-8.3762z" stroke="#fff" stroke-width="2.133"/></svg>