<svg fill="none" height="68" viewBox="0 0 100 68" width="100" xmlns="http://www.w3.org/2000/svg" xmlns:xlink="http://www.w3.org/1999/xlink"><linearGradient id="a" gradientUnits="userSpaceOnUse" x1="49.6502" x2="49.6502" y1="48.5814" y2="0"><stop offset="0" stop-color="#eb5520"/><stop offset=".247" stop-color="#eb511f"/><stop offset=".503" stop-color="#eb441d"/><stop offset=".763" stop-color="#eb301a"/><stop offset="1" stop-color="#eb1616"/></linearGradient><path d="m41.64 13.3394-6.3883-6.38837c-.1324-.1324-.1324-.331 0-.4634l6.3883-6.3883295c.1324-.1324007.331-.1324007.4634 0l6.3883 6.3883295c.1324.1324.1324.331 0 .4634l-6.3883 6.38837c-.1324.1324-.3641.1324-.4634 0zm-1.7212.9268-5.627-5.62706c-.1324-.1324-.331-.1324-.4634 0l-5.6271 5.62706c-.1324.1324-.1324.331 0 .4634l5.6271 5.627c.1324.1324.331.1324.4634 0l5.627-5.627c.1324-.0993.1324-.331 0-.4634zm15.5902 0-5.627-5.62706c-.1325-.1324-.3311-.1324-.4635 0l-5.627 5.62706c-.1324.1324-.1324.331 0 .4634l5.627 5.627c.1324.1324.331.1324.4635 0l5.627-5.627c.1324-.0993.1324-.331 0-.4634zm-24.13 7.8116-4.8658-4.8657c-.1324-.1324-.331-.1324-.4634 0l-4.8657 4.8657c-.1324.1324-.1324.331 0 .4634l4.8657 4.8657c.1324.1324.331.1324.4634 0l4.8658-4.8657c.1324-.1324.1324-.331 0-.4634zm15.5901 0-4.8657-4.8657c-.1324-.1324-.331-.1324-.4634 0l-4.8657 4.8657c-.1324.1324-.1324.331 0 .4634l4.8657 4.8657c.1324.1324.331.1324.4634 0l4.8657-4.8657c.1324-.1324.1324-.331 0-.4634zm15.5571 0-4.8657-4.8657c-.1324-.1324-.331-.1324-.4634 0l-4.8657 4.8657c-.1324.1324-.1324.331 0 .4634l4.8657 4.8657c.1324.1324.331.1324.4634 0l4.8657-4.8657c.1324-.1324.1324-.331 0-.4634zm-39.6871 7.7785-4.1044-4.1044c-.1324-.1324-.331-.1324-.4634 0l-4.1044 4.1044c-.1324.1324-.1324.331 0 .4634l4.1044 4.1045c.1324.1324.331.1324.4634 0l4.1044-4.1045c.1324-.1324.1324-.331 0-.4634zm15.5571 0-4.1044-4.1044c-.1324-.1324-.331-.1324-.4634 0l-4.1044 4.1044c-.1324.1324-.1324.331 0 .4634l4.1044 4.1045c.1324.1324.331.1324.4634 0l4.1044-4.1045c.1324-.1324.1324-.331 0-.4634zm15.5902 0-4.1044-4.1044c-.1325-.1324-.3311-.1324-.4635 0l-4.1044 4.1044c-.1324.1324-.1324.331 0 .4634l4.1044 4.1045c.1324.1324.331.1324.4635 0l4.1044-4.1045c.1324-.1324.1324-.331 0-.4634zm15.5902 0-4.1045-4.1044c-.1324-.1324-.331-.1324-.4634 0l-4.1044 4.1044c-.1324.1324-.1324.331 0 .4634l4.1044 4.1045c.1324.1324.331.1324.4634 0l4.1045-4.1045c.1324-.1324.1324-.331 0-.4634zm-55.3104 7.7786-3.3431-3.3431c-.1324-.1324-.331-.1324-.4634 0l-3.34316 3.3431c-.1324.1324-.1324.331 0 .4634l3.34316 3.3431c.1324.1324.331.1324.4634 0l3.3431-3.3431c.1324-.0993.1324-.331 0-.4634zm15.5901 0-3.3431-3.3431c-.1324-.1324-.331-.1324-.4634 0l-3.3431 3.3431c-.1324.1324-.1324.331 0 .4634l3.3431 3.3431c.1324.1324.331.1324.4634 0l3.3431-3.3431c.1325-.0993.1325-.331 0-.4634zm15.5902 0-3.3431-3.3431c-.1324-.1324-.331-.1324-.4634 0l-3.3431 3.3431c-.1324.1324-.1324.331 0 .4634l3.3431 3.3431c.1324.1324.331.1324.4634 0l3.3431-3.3431c.1324-.0993.1324-.331 0-.4634zm15.5571 0-3.3431-3.3431c-.1324-.1324-.331-.1324-.4634 0l-3.3431 3.3431c-.1324.1324-.1324.331 0 .4634l3.3431 3.3431c.1324.1324.331.1324.4634 0l3.3431-3.3431c.1324-.0993.1324-.331 0-.4634zm15.5902 0-3.3431-3.3431c-.1324-.1324-.331-.1324-.4634 0l-3.3431 3.3431c-.1324.1324-.1324.331 0 .4634l3.3431 3.3431c.1324.1324.331.1324.4634 0l3.3431-3.3431c.1324-.0993.1324-.331 0-.4634zm-70.86747 7.8116-2.58181-2.5818c-.1324-.1324-.33101-.1324-.46341 0l-2.5818095 2.5818c-.1324007.1324-.1324007.331 0 .4634l2.5818095 2.5818c.1324.1324.33101.1324.46341 0l2.58181-2.5818c.1324-.1324.1324-.331 0-.4634zm15.59017 0-2.5818-2.5818c-.1324-.1324-.331-.1324-.4634 0l-2.5818 2.5818c-.1324.1324-.1324.331 0 .4634l2.5818 2.5818c.1324.1324.331.1324.4634 0l2.5818-2.5818c.1324-.1324.1324-.331 0-.4634zm15.5571 0-2.5818-2.5818c-.1324-.1324-.331-.1324-.4634 0l-2.5818 2.5818c-.1324.1324-.1324.331 0 .4634l2.5818 2.5818c.1324.1324.331.1324.4634 0l2.5818-2.5818c.1324-.1324.1324-.331 0-.4634zm15.5902-.0662-2.5818-2.5818c-.1325-.1324-.3311-.1324-.4635 0l-2.5818 2.5818c-.1324.1324-.1324.331 0 .4634l2.5818 2.5818c.1324.1324.331.1324.4635 0l2.5818-2.5818c.1324-.1324.1324-.331 0-.4634zm15.5901 0-2.5818-2.5818c-.1324-.1324-.331-.1324-.4634 0l-2.5818 2.5818c-.1324.1324-.1324.331 0 .4634l2.5818 2.5818c.1324.1324.331.1324.4634 0l2.5818-2.5818c.1324-.1324.1324-.331 0-.4634zm15.5571 0-2.5818-2.5818c-.1324-.1324-.331-.1324-.4634 0l-2.5818 2.5818c-.1324.1324-.1324.331 0 .4634l2.5818 2.5818c.1324.1324.331.1324.4634 0l2.5818-2.5818c.1324-.1324.1324-.331 0-.4634zm-25.9505-32.0409 6.3883-6.38837c.1324-.1324.1324-.331 0-.4634l-6.3883-6.3883295c-.1324-.1324007-.331-.1324007-.4634 0l-6.3883 6.3883295c-.1324.1324-.1324.331 0 .4634l6.3883 6.38837c.1324.1324.3641.1324.4634 0zm7.8116 7.0172 5.6271-5.627c.1324-.1324.1324-.331 0-.4634l-5.6271-5.62706c-.1324-.1324-.331-.1324-.4634 0l-5.627 5.62706c-.1324.1324-.1324.331 0 .4634l5.627 5.627c.1324.1324.331.1324.4634 0zm7.7786 7.0503 4.8657-4.8657c.1324-.1324.1324-.331 0-.4634l-4.8657-4.8657c-.1324-.1324-.331-.1324-.4634 0l-4.8658 4.8657c-.1324.1324-.1324.331 0 .4634l4.8658 4.8657c.1324.1324.331.1324.4634 0zm7.7785 7.0173 4.1044-4.1045c.1324-.1324.1324-.331 0-.4634l-4.1044-4.1044c-.1324-.1324-.331-.1324-.4634 0l-4.1044 4.1044c-.1324.1324-.1324.331 0 .4634l4.1044 4.1045c.1324.1324.3641.1324.4634 0zm7.8116 7.0172 3.3432-3.3431c.1324-.1324.1324-.331 0-.4634l-3.3432-3.3431c-.1324-.1324-.331-.1324-.4634 0l-3.3431 3.3431c-.1324.1324-.1324.331 0 .4634l3.3431 3.3431c.1324.1324.331.1324.4634 0zm7.7786 6.9841 2.5818-2.5818c.1324-.1324.1324-.331 0-.4634l-2.5818-2.5818c-.1324-.1324-.331-.1324-.4634 0l-2.5818 2.5818c-.1324.1324-.1324.331 0 .4634l2.5818 2.5818c.1324.1324.331.1324.4634 0z" fill="url(#a)"/><path d="m28.1685 67.624h-6.3884c-2.0191 0-3.641-1.6219-3.641-3.641v-1.8205c0-2.0191 1.6219-3.641 3.641-3.641h6.3884c2.0191 0 3.641 1.6219 3.641 3.641v1.8205c0 2.0191-1.6219 3.641-3.641 3.641zm-6.3884-7.282c-.993 0-1.8205.8275-1.8205 1.8205v1.8205c0 .993.8275 1.8205 1.8205 1.8205h6.3884c.993 0 1.8205-.8275 1.8205-1.8205v-1.8205c0-.993-.8275-1.8205-1.8205-1.8205zm20.9856 7.282h-6.2229c-2.0191 0-3.641-1.6219-3.641-3.641v-5.296c0-.0993.0662-.1655.1655-.1655h1.4895c.0993 0 .1655.0662.1655.1655v5.296c0 .993.8275 1.8205 1.8205 1.8205h6.2229c.0993 0 .1655.0662.1655.1655v1.4895c0 .0993-.0662.1655-.1655.1655zm-26.9105-9.0363-5.0974 7.2489c-.0662.0993-.1986.0993-.2648 0l-5.06434-7.2489c-.0331-.0331-.0662-.0662-.1324-.0662h-1.82051c-.1324 0-.1986.1655-.1324.2648l6.15663 8.7715c.0331.0331.0662.0662.13241.0662h2.05221c.0662 0 .0993-.0331.1324-.0662l6.1566-8.7715c.0662-.0993 0-.2648-.1324-.2648h-1.8205c-.0662 0-.1324.0331-.1655.0662zm76.4945 9.0363h-6.3883c-2.0191 0-3.641-1.6219-3.641-3.641v-1.8205c0-2.0191 1.6219-3.641 3.641-3.641h6.3883c2.0191 0 3.641 1.6219 3.641 3.641v1.8205c0 2.0191-1.6219 3.641-3.641 3.641zm-6.3883-7.282c-.993 0-1.8205.8275-1.8205 1.8205v1.8205c0 .993.8275 1.8205 1.8205 1.8205h6.3883c.993 0 1.8205-.8275 1.8205-1.8205v-1.8205c0-.993-.8275-1.8205-1.8205-1.8205zm-31.1473 7.282h-7.1496c-2.0191 0-3.641-1.6219-3.641-3.641v-1.8205c0-2.0191 1.6219-3.641 3.641-3.641h7.1165c.0993 0 .1655.0662.1655.1655v1.4895c0 .0993-.0662.1655-.1655.1655h-7.1165c-.993 0-1.8205.8275-1.8205 1.8205v1.8205c0 .993.8275 1.8205 1.8205 1.8205h7.1165c.0993 0 .1655.0662.1655.1655v1.4895c.0331.0993-.0331.1655-.1324.1655zm9.6322-9.1025h-4.5348c-2.0191 0-3.641 1.6219-3.641 3.641v5.296c0 .0993.0662.1655.1655.1655h1.4895c.0993 0 .1655-.0662.1655-.1655v-3.31c0-.0993.0662-.1655.1655-.1655h7.8779c.0993 0 .1655.0662.1655.1655v3.31c0 .0993.0662.1655.1655.1655h1.4895c.0993 0 .1655-.0662.1655-.1655v-5.296c-.0331-2.0191-1.655-3.641-3.6741-3.641zm-6.1898 3.641c-.0993 0-.1655-.0662-.1655-.1655.0993-.9268.8606-1.655 1.8205-1.655h4.5679c.9599 0 1.7212.7282 1.8205 1.655 0 .0993-.0662.1655-.1655.1655zm21.151-3.4755v6.5207c0 .1324-.1655.2317-.2648.1324l-7.4475-6.7524c-.0331-.0331-.0662-.0331-.0993-.0331h-2.0522c-.0993 0-.1655.0662-.1655.1655v8.7715c0 .0993.0662.1655.1655.1655h1.4895c.0993 0 .1655-.0662.1655-.1655v-6.5207c0-.1324.1655-.2317.2648-.1324l7.4475 6.7524c.0331.0331.0662.0331.0993.0331h2.0522c.0993 0 .1655-.0662.1655-.1655v-8.7715c0-.0993-.0662-.1655-.1655-.1655h-1.4895c-.0993 0-.1655.0662-.1655.1655z" fill="#0f0f0f"/></svg>