<svg fill="none" height="18" viewBox="0 0 103 18" width="103" xmlns="http://www.w3.org/2000/svg"><g fill="#747373"><path d="m44.697 15.136-4.352-11.47c-.038-.143-.151-.358-.151-.538 0-.501.454-.967 1.06-.967.567 0 .907.322 1.097.824l3.594 9.857 3.632-9.893c.152-.466.492-.824 1.06-.824h.113c.568 0 .946.322 1.098.824l3.594 9.893 3.633-9.893c.15-.43.454-.788 1.021-.788.606 0 1.06.43 1.06.932 0 .179-.076.394-.152.537l-4.351 11.47c-.227.61-.681.896-1.173.896h-.076c-.567 0-.983-.323-1.173-.896l-3.556-9.713-3.595 9.749c-.189.609-.605.896-1.173.896h-.075c-.492 0-.946-.323-1.136-.896zm31.593-11.972c0-.537.454-1.04 1.06-1.04.605 0 1.097.431 1.097 1.04v2.33c1.06-2.258 3.368-3.333 4.919-3.333.643 0 1.06.43 1.06 1.003 0 .538-.379.932-.947 1.04-2.762.322-5.032 2.294-5.032 6.2v4.588c0 .538-.454 1.004-1.06 1.004-.605 0-1.097-.43-1.097-1.004zm14.946 12.976c-3.86 0-7-2.831-7-6.989v-.072c0-3.87 2.838-6.989 6.735-6.989 4.162 0 6.508 3.226 6.508 6.81 0 .538-.454.932-.984.932h-10.14c.303 2.903 2.422 4.552 4.919 4.552 1.74 0 2.989-.645 4.048-1.541.152-.144.341-.215.606-.215.53 0 .908.394.908.86a.852.852 0 0 1 -.34.645c-1.287 1.219-2.876 2.007-5.26 2.007zm4.162-7.742c-.227-2.437-1.665-4.552-4.465-4.552-2.46 0-4.275 1.936-4.54 4.552zm-34.205 3.549v-.036c0-2.832 2.498-4.373 6.092-4.373 1.816 0 3.103.251 4.39.574v-.502c0-2.438-1.59-3.692-4.239-3.692-1.437 0-2.27.18-3.33.61-.15.035-.264.071-.377.071-.492 0-.946-.394-.946-.86 0-.43.189-.681.567-.825 1.4-.573 2.46-.752 4.276-.752 2.005 0 3.556.502 4.616 1.505.984.932 1.475 2.222 1.475 3.943v7.455c0 .573-.454 1.003-1.021 1.003-.605 0-1.022-.43-1.022-.931v-1.29c-.984 1.218-2.648 2.33-5.146 2.33-2.648-.037-5.335-1.47-5.335-4.23zm10.52-1.04v-1.29a15.79 15.79 0 0 0 -4.2-.574c-2.687 0-4.163 1.112-4.163 2.796v.036c0 1.685 1.665 2.688 3.595 2.688 2.61 0 4.767-1.541 4.767-3.656zm-65.687-7.886c-.454-.968-1.627-1.434-2.686-.968-1.098.466-1.476 1.577-1.022 2.545l4.54 9.319c.72 1.47 1.476 2.222 2.876 2.222 1.514 0 2.157-.824 2.876-2.222 0 0 3.935-8.136 3.973-8.244.037-.071.15-.358.567-.358.34 0 .643.25.643.61v7.956c0 1.219.72 2.222 2.12 2.222s2.118-1.003 2.118-2.222v-6.487c0-1.255.946-2.08 2.233-2.08 1.286 0 2.156.861 2.156 2.08v6.523c0 1.219.72 2.222 2.119 2.222 1.4 0 2.119-1.003 2.119-2.222v-6.523c0-1.255.946-2.08 2.232-2.08 1.287 0 2.157.861 2.157 2.08v6.523c0 1.219.719 2.222 2.119 2.222 1.362 0 2.119-1.003 2.119-2.222v-7.42c0-2.723-2.308-4.623-5.07-4.623-2.8 0-4.54 1.828-4.54 1.828-.909-1.147-2.195-1.828-4.352-1.828-2.27 0-4.276 1.828-4.276 1.828-.946-1.147-2.497-1.828-3.821-1.828-2.006 0-3.633.824-4.616 2.975l-2.875 6.451-3.708-8.28zm91.641.788c0-.931.795-1.684 1.779-1.684.983 0 1.778.753 1.778 1.684 0 .932-.795 1.685-1.778 1.685-1.022 0-1.779-.753-1.779-1.685zm3.179 0c0-.752-.606-1.362-1.438-1.362-.795 0-1.438.61-1.438 1.362 0 .753.605 1.362 1.438 1.362.794 0 1.438-.609 1.438-1.362z"/><path d="m98.577 3.13c0-.107.076-.179.19-.179h.605c.227 0 .378.072.492.18.113.071.151.214.151.358 0 .25-.151.394-.34.502l.264.286c.038.036.076.072.076.144 0 .107-.076.179-.19.179a.21.21 0 0 1 -.188-.108l-.379-.43h-.302v.359c0 .107-.076.179-.19.179-.113 0-.189-.072-.189-.18zm.757.61c.19 0 .303-.108.303-.215 0-.144-.114-.215-.303-.215h-.379v.466h.379z"/></g></svg>