<svg enable-background="new 0 0 166 216.2" viewBox="-3.27 -2.77 172.53 221.78" xmlns="http://www.w3.org/2000/svg"><g fill="#000100"><path d="m83 143.5c-.7 0-1.3-.3-1.8-.8-.8-1-.7-2.5.3-3.3l77.8-66.4c.9-2.6 1-4.8 1-5.1 0-14.6-9.6-27-9.7-27.1 0-.1-.1-.1-.1-.2-13.3-20.8-32-27.4-41-30.6-5.1-1.8-23.8-7.2-49.2-.9-20.7 5.1-38.4 19-48.7 38.1-4.9 9.1-5.8 15.9-5.7 19.9 0 .8.1 1.6.2 2.2 4.1-4.4 12.3-10.8 24.7-10.2 1.2 0 16.6.7 25.6 15.1 3.4-5.4 11.3-14.3 26.1-15.2.5 0 5.4-.3 11.3 1.7 4.9 1.7 11.5 5.4 16.6 13.3 3.3-5.4 10.9-14.2 25.3-15 1.3-.1 2.4.9 2.5 2.2s-.9 2.4-2.2 2.5c-17.3 1-23.1 15.5-23.3 16.1-.3.9-1.2 1.5-2.1 1.5s-1.8-.5-2.2-1.3c-8.6-17.5-25.4-16.3-25.6-16.3h-.1c-17.9 1-23.9 15.7-24.2 16.3-.3.9-1.2 1.5-2.1 1.5-1 0-1.8-.5-2.2-1.4-7.2-16-23.4-16.4-23.5-16.4h-.1c-15.6-.5-23.6 11.9-23.7 12.1-.4.7-1.2 1.1-2.1 1.1-.8 0-1.6-.5-2-1.2-.2-.5-5.8-11.2 4.6-30.6 10.8-20.3 29.7-35.1 51.7-40.5 26.7-6.6 46.4-.8 51.9 1.1 8.7 3.1 29.2 10.3 43.4 32.4 1 1.3 10.7 14.3 10.7 29.9 0 .2-.1 3.5-1.5 7.2-.1.4-.4.7-.7 1l-78.3 66.8c-.5.4-1 .5-1.6.5z"/><path d="m82.6 143.2c-.5 0-1.1-.2-1.5-.6l-77.7-66.3c-1-.8-1.1-2.3-.3-3.3s2.3-1.1 3.3-.3l77.8 66.3c1 .8 1.1 2.3.3 3.3-.5.6-1.2.9-1.9.9z"/><path d="m82.9 143.2c-.9 0-1.8-.5-2.2-1.4l-26.7-61.5c-.5-1.2 0-2.6 1.2-3.1s2.6 0 3.1 1.2l26.7 61.5c.5 1.2 0 2.6-1.2 3.1-.3.1-.6.2-.9.2z"/><path d="m83 143.5c-.3 0-.6-.1-.9-.2-1.2-.5-1.7-1.9-1.2-3.1l27.2-62c.5-1.2 1.9-1.7 3.1-1.2s1.7 1.9 1.2 3.1l-27.2 62c-.4.9-1.3 1.4-2.2 1.4z"/><path d="m110.4 187.3h-55.4c-1.3 0-2.3-1.1-2.3-2.3v-43.7c0-1.3 1.1-2.3 2.3-2.3h13.8c1.3 0 2.3 1.1 2.3 2.3 0 1.3-1.1 2.3-2.3 2.3h-11.5v39h50.8v-39h-24.7c-1.3 0-2.3-1.1-2.3-2.3 0-1.3 1.1-2.3 2.3-2.3h27.1c1.3 0 2.3 1.1 2.3 2.3v43.7c0 1.3-1.1 2.3-2.4 2.3z"/></g><circle cx="67.5" cy="141.3" fill="#0082ca" r="5.3"/><circle cx="136.4" cy="61.5" fill="#0082ca" r="5.3"/><path d="m99.3 177.4c-1.3 0-2.3-1.1-2.3-2.3v-24c0-.9.6-1.8 1.5-2.2s1.9-.2 2.6.5l5.1 5.1c.9.9.9 2.4 0 3.3s-2.4.9-3.3 0l-1.1-1.1v18.3c-.2 1.3-1.2 2.4-2.5 2.4z" fill="#000100"/><path d="m94.1 158.5c-.6 0-1.2-.2-1.7-.7-.9-.9-.9-2.4 0-3.3l5.1-5.1c.9-.9 2.4-.9 3.3 0s.9 2.4 0 3.3l-5.1 5.1c-.4.5-1 .7-1.6.7z" fill="#000100"/><path d="m52.9 196.6h16.1v2.7h-6.3v15.2h-3.5v-15.2h-6.3zm21.1 0h3.5v10.4c0 .6 0 1.2.1 1.8s.3 1.2.6 1.7.8.9 1.4 1.2 1.5.5 2.6.5 2-.2 2.6-.5 1.1-.7 1.4-1.2.5-1 .6-1.7c.1-.6.1-1.2.1-1.8v-10.4h3.5v11.4c0 1.2-.2 2.2-.6 3-.4.9-.9 1.6-1.7 2.1-.7.6-1.6 1-2.6 1.3s-2.1.4-3.3.4-2.3-.1-3.3-.4-1.9-.7-2.6-1.3-1.3-1.3-1.7-2.1-.6-1.9-.6-3zm23.4 0h13.7v2.7h-10.3v4.7h9v2.6h-9v8h-3.5v-18z"/></svg>