<svg fill="none" height="32" viewBox="0 0 198 32" width="198" xmlns="http://www.w3.org/2000/svg" xmlns:xlink="http://www.w3.org/1999/xlink"><linearGradient id="a" gradientUnits="userSpaceOnUse" x1="25.3392" x2="3.43373" y1="-.922004" y2="28.4591"><stop offset=".0364583" stop-color="#409ff8"/><stop offset=".5" stop-color="#1673ff"/><stop offset="1" stop-color="#516ff7"/></linearGradient><g fill="#111"><path d="m51.3088 22.2733c.2275.0207.4855.0413.775.062h1.0849c2.4178 0 4.2052-.6097 5.3626-1.8289 1.1779-1.2192 1.7669-2.9035 1.7669-5.0526 0-2.2526-.558-3.9575-1.6739-5.1147-1.1159-1.15726-2.8828-1.73591-5.3006-1.73591-.3305 0-.6715.01034-1.023.031-.1385 0-.2741.00325-.4063.00967-.3365.0164-.5856.30374-.5856.64039zm13.9801-6.8195c0 1.8598-.2895 3.482-.868 4.8666s-1.4053 2.5315-2.4798 3.4408c-1.0539.9092-2.3454 1.5912-3.8747 2.0459-1.5294.4546-3.2444.6819-5.1457.6819-.8679 0-1.8804-.0413-3.0378-.124-.9714-.052-1.9286-.1624-2.8708-.3309-.3145-.0562-.539-.3324-.539-.6517v-20.37497c1.116-.20664 2.2733-.34097 3.4718-.40297 1.2194-.08265 2.2629-.12399 3.1308-.12399 1.8393 0 3.5028.20668 4.9907.61996 1.5084.41331 2.8002 1.06427 3.8747 1.95286 1.0745.88864 1.9013 2.02521 2.4798 3.40981s.868 3.0481.868 4.9907z"/><path d="m75.0156 15.4537c0 1.0539.124 2.0045.3719 2.8518.2686.8473.6405 1.5809 1.116 2.2009.4959.5992 1.095 1.0642 1.7978 1.3949.7025.3306 1.5085.4959 2.4179.4959.8885 0 1.6839-.1653 2.3868-.4959.7231-.3307 1.3225-.7957 1.7979-1.3949.496-.62.8679-1.3536 1.1159-2.2009.2685-.8473.403-1.7979.403-2.8518s-.1345-2.0046-.403-2.8518c-.248-.868-.6199-1.6016-1.1159-2.2009-.4754-.61995-1.0748-1.09523-1.7979-1.4259-.7029-.33063-1.4983-.49597-2.3868-.49597-.9094 0-1.7154.17568-2.4179.52697-.7028.33067-1.3019.80594-1.7978 1.4259-.4755.5993-.8474 1.3329-1.116 2.2009-.2479.8472-.3719 1.7875-.3719 2.8208zm16.3979 0c0 1.8392-.279 3.4614-.837 4.8667-.5374 1.3845-1.2814 2.5521-2.2318 3.5027-.9509.93-2.0874 1.6326-3.4098 2.1079-1.3019.4753-2.7073.7129-4.2157.7129-1.4674 0-2.8518-.2376-4.1537-.7129-1.302-.4753-2.4388-1.1779-3.4098-2.1079-.9714-.9506-1.7359-2.1182-2.2939-3.5027-.5579-1.4053-.8369-3.0275-.8369-4.8667s.2891-3.4511.8679-4.8357c.5785-1.40522 1.3535-2.58314 2.3249-3.53377.9919-.95059 2.1284-1.66354 3.4098-2.13886 1.3019-.47527 2.6658-.71295 4.0917-.71295 1.467 0 2.8518.23768 4.1537.71295 1.3019.47532 2.4384 1.18827 3.4098 2.13886.971.95063 1.7358 2.12855 2.2938 3.53377.558 1.3846.837 2.9965.837 4.8357z"/><path d="m103.52 4.48047c3.203 0 5.662.56831 7.377 1.70488 1.715 1.11593 2.573 2.95515 2.573 5.51765 0 2.5831-.868 4.4534-2.604 5.6106-1.736 1.1366-4.215 1.7049-7.439 1.7049h-.848c-.37 0-.671.3007-.671.6717v6.5198h-4.1642c-.3709 0-.6715-.3007-.6715-.6717v-20.49987c1.0535-.20664 2.1698-.35128 3.3477-.43397 1.178-.08265 2.211-.12399 3.1-.12399zm.31 4.12272c-.352 0-.703.01034-1.054.031-.087.00545-.171.01087-.252.01628-.349.0233-.616.31442-.616.66373v5.5816h1.519c1.674 0 2.934-.2273 3.782-.682.847-.4546 1.27-1.3019 1.27-2.5418 0-.5993-.113-1.0953-.34-1.4879-.207-.39265-.517-.70262-.93-.92995-.393-.24799-.879-.41329-1.457-.49597-.579-.1033-1.22-.15499-1.922-.15499z"/><path d="m125.096 4.48047c3.203 0 5.662.56831 7.377 1.70488 1.715 1.11593 2.573 2.95515 2.573 5.51765 0 2.5831-.868 4.4534-2.604 5.6106-1.736 1.1366-4.216 1.7049-7.439 1.7049h-.848c-.371 0-.671.3007-.671.6717v6.5198h-4.165c-.37 0-.671-.3007-.671-.6717v-20.49987c1.054-.20664 2.17-.35128 3.348-.43397 1.178-.08265 2.211-.12399 3.1-.12399zm.309 4.12272c-.351 0-.702.01034-1.053.031-.087.00545-.171.01087-.252.01628-.349.0233-.616.31442-.616.66373v5.5816h1.519c1.673 0 2.934-.2273 3.781-.682.848-.4546 1.271-1.3019 1.271-2.5418 0-.5993-.113-1.0953-.341-1.4879-.206-.39265-.516-.70262-.93-.92995-.392-.24799-.878-.41329-1.457-.49597-.578-.1033-1.219-.15499-1.922-.15499z"/><path d="m153.772 22.0561c.124 0 .224.1002.224.2239v3.706c0 .1236-.1.2239-.224.2239h-12.876c-.371 0-.671-.3008-.671-.6717v-18.96462c0-.30247.201-.56767.493-.64808l4.342-1.19723v17.32783z"/><path d="m159.99 26.2099c-.371 0-.671-.3008-.671-.6717v-20.80993h14.921c.149 0 .257.14338.215.28668l-1.055 3.61293c-.028.0955-.116.16112-.215.16112h-8.359c-.371 0-.671.30071-.671.67168v3.54402h7.699c.149 0 .256.1432.214.2865l-1.025 3.52c-.027.0956-.115.1613-.215.1613h-6.002c-.371 0-.671.3007-.671.6716v4.505h10.498c.149 0 .257.1431.215.2863l-1.049 3.613c-.027.0956-.115.1615-.215.1615z"/><path d="m186.037 4.48047c3.223 0 5.693.57865 7.408 1.73588 1.716 1.13662 2.573 2.9138 2.573 5.33165 0 1.5086-.351 2.7381-1.054 3.6887-.682.93-1.674 1.6636-2.976 2.2009.434.5373.889 1.1573 1.364 1.8599.476.682.941 1.4052 1.395 2.1699.476.7439.93 1.5292 1.364 2.3558.375.6969.728 1.3862 1.056 2.0677.072.148-.036.3191-.201.3191h-4.939c-.081 0-.156-.0439-.196-.1146-.372-.6655-.754-1.3403-1.145-2.0242-.392-.7233-.806-1.4259-1.24-2.1079-.413-.6819-.826-1.3226-1.239-1.9218-.414-.62-.827-1.178-1.24-1.6739h-1.715c-.372 0-.672.3006-.672.6716v7.1708h-4.164c-.371 0-.672-.3007-.672-.6717v-20.49987c1.054-.20664 2.139-.35128 3.255-.43397 1.136-.08265 2.149-.12399 3.038-.12399zm.279 4.12272c-.352 0-.672.01034-.961.031-.054.00411-.107.00821-.159.01232-.348.02723-.616.31838-.616.66769v5.2096h1.364c1.818 0 3.12-.2273 3.905-.682.786-.4546 1.178-1.2295 1.178-2.3248 0-1.0539-.403-1.79789-1.209-2.23186-.785-.45462-1.952-.68195-3.502-.68195z"/></g><path clip-rule="evenodd" d="m1.16674.108887c-.247587 0-.394229.273552-.260931.482193l5.557361 8.69849c.45955.71933 1.25183 1.15463 2.10543 1.15463h7.5167c2.7551 0 4.4774 2.436 4.4673 5.1636-.01 2.7276-1.8454 5.1394-4.4673 5.1394h-8.02499c-.46045 0-.83202.3733-.83202.8337v8.693c0 .46.37078.8329.83075.8329h10.25126c8.8702 0 13.28-8.4156 13.2853-15.499.0054-7.08328-4.3527-15.498913-13.2853-15.498913zm3.64615 20.662513h-1.99567c-1.22583 0-2.219564 1.1563-2.219564 2.5828v4.0938 3.4308c0 .1236.100238.2239.223887.2239h1.995677c1.22583 0 2.21956-1.1564 2.21956-2.5829v-7.5245c0-.1237-.10024-.2239-.22389-.2239z" fill="url(#a)" fill-rule="evenodd"/></svg>