<svg enable-background="new 0 0 182 44.8" viewBox="-2.6 -2.6 187.07 50.07" xmlns="http://www.w3.org/2000/svg"><path d="m151 1v43h30v-43zm25 38h-20v-19h14v-7h6z"/><path d="m162 25h8v9h-8z"/><path d="m65 14h-4v7h-3v4h3v14h8v-4h-4v-10h4v-4h-4zm10 11h10v3h-14v11h18v-18h-14zm10 10h-10v-3h10zm6-14h4v18h-4zm-47 0h-3v18h4v-14h7v14h4v-18h-3zm-43 0v18h18v-4h-14v-10h14v-4h-15zm20 3.5v14.5h18v-18h-18zm4 .5h10v10h-10zm66-11h4v4h-4zm46 7h-4v18h4v-14h11v-4zm-36.5 0h-3.5v18h4v-14h7v14h4v-18h-3.5zm13.5 0v18h15v-4h-11v-3h13v-11zm4 4h9v3h-9z" opacity=".66"/></svg>