<svg fill="none" height="81" viewBox="0 0 72 81" width="72" xmlns="http://www.w3.org/2000/svg"><path clip-rule="evenodd" d="m54.1192 0h-36.6378v42.5609c0 1.9061 1.5379 3.4509 3.4349 3.4509h29.7681c1.8972 0 3.4348-1.5448 3.4348-3.4509z" fill="#878ede" fill-rule="evenodd"/><path d="m23.1182 5.61035h5.6365v12.90575h-5.6365z" fill="#4028a0"/><path d="m23.1182 17.3936h5.6365v23.0058h-5.6365z" fill="#fff"/><path d="m31.5723 34.79h16.9098v5.6113h-16.9098z" fill="#fff"/><g fill="#1c0732"><path d="m9.5845 78.2629v2.2439h-9.5845v-21.2773h2.81947v19.0334z"/><path d="m15.7815 80.5072h-2.8156v-15.7153h2.8156zm-1.4094-18.4917c-.4639 0-.8672-.1491-1.21-.4472-.3227-.3177-.4785-.7346-.4785-1.2512 0-.5165.1558-.924.4785-1.2221.3428-.318.7461-.4768 1.21-.4768.4638 0 .857.1588 1.1798.4768.3429.2981.5142.7053.5142 1.2218s-.1713.9338-.5142 1.2515c-.3228.2981-.716.4472-1.1798.4472z"/><path d="m21.9868 64.7923h3.9461v2.2051h-3.9461l-.0016 8.3263c0 1.0727.1917 1.8275.5748 2.2646.4034.4173.9379.6259 1.6034.6259.3429 0 .6655-.0498.968-.149.3227-.0993.5949-.2188.8168-.3577l.5143 2.0563c-.8269.4768-1.9199.7151-2.8476.7151-1.4924 0-2.6117-.4072-3.3579-1.2215-.726-.8345-1.089-2.2054-1.089-4.1127l.0016-14.5543 2.8172-.4468z"/><path d="m29.3164 64.4685c.7202-.2254 1.5022-.41 2.3458-.5534.8437-.1642 1.6151-.2462 2.3149-.2462.72 0 1.3681.0924 1.9443.2767.5969.1847 1.1214.4923 1.5741.9228.5351-.3486 1.1113-.6357 1.7284-.861.6174-.2256 1.2965-.3385 2.0372-.3385.7406 0 1.4093.1129 2.0061.3385.6174.2049 1.142.5635 1.5741 1.0763.4321.5124.7717 1.2095 1.0185 2.091.247.861.3706 1.9372.3706 3.2287v10.1033h-2.6543v-9.8878c0-1.5993-.1853-2.7676-.556-3.5057-.3703-.7381-1.0697-1.1071-2.0986-1.1071-.3909 0-.792.0718-1.2038.2152-.3909.1434-.7612.3385-1.1109.5843.1644.4715.2879 1.0047.3703 1.5991.0824.5947.1232 1.2609.1232 1.9987v10.1033h-2.6543v-9.8878c0-1.5993-.185-2.7676-.5553-3.5057s-1.0701-1.1071-2.0986-1.1071c-.5354 0-1.1424.1024-1.8212.3076v14.193h-2.6545z"/><path d="m59.7293 79.7323c-.2622.0996-.585.1988-.9683.2981-.3631.0794-.7562.1491-1.1797.2086-.4033.0795-.8167.139-1.2402.1787-.4033.0596-.7764.0895-1.1195.0895-.8268 0-1.583-.0992-2.2688-.2981-.6858-.1787-1.2706-.5064-1.7546-.9833-.4841-.4768-.8569-1.1225-1.1192-1.9369-.2623-.8345-.3935-1.8773-.3935-3.1291v-9.3678h2.6018v9.2783c0 1.5297.2318 2.6126.6959 3.2483.4841.6158 1.2098.9237 2.1779.9237.3228 0 .6453-.0098.9681-.0297.3228-.0397.6554-.1093.9984-.2086v-13.212h2.6017z"/><path d="m66.2981 78.2452c.8192 0 1.4334-.2136 1.843-.6416.4312-.4482.6466-1.0287.6466-1.7418 0-.4482-.0862-.8251-.2585-1.1308-.1723-.3259-.3988-.6111-.6792-.8556-.28-.2443-.6034-.4583-.97-.6417-.3662-.2036-.7327-.4175-1.0992-.6416-.3662-.2036-.7219-.4381-1.0669-.7028-.345-.2852-.6573-.601-.9377-.9473-.2585-.3669-.4742-.7744-.6465-1.2225-.1508-.4686-.2265-1.0085-.2265-1.6196 0-1.3242.4311-2.3935 1.2934-3.2085.8838-.815 2.0692-1.2225 3.5565-1.2225.6253 0 1.218.0817 1.7784.2446.5604.1424 1.0238.3057 1.3903.4891l-.6142 2.1084c-.3881-.2036-.7761-.3565-1.1642-.4583-.3877-.1021-.8084-.1528-1.2608-.1528-.6899 0-1.2395.1935-1.6491.5805-.4096.3668-.6142.9067-.6142 1.6195 0 .4075.0754.764.2261 1.0697.1511.2852.345.5499.5823.7945.2585.224.5388.438.8404.6416.3234.2039.6576.3974 1.0023.5808.4096.2241.8084.4683 1.1965.7334.4096.2647.765.5805 1.0669.9473.3231.3464.5819.7639.7758 1.2527.1941.4687.2911 1.0391.2911 1.7113 0 1.4056-.4419 2.5363-1.3257 3.3919-.862.8557-2.1339 1.2836-3.815 1.2836-.8623 0-1.6384-.1121-2.328-.3362-.69-.2241-1.2073-.4277-1.5519-.6111l.5819-2.1698c.3234.1632.7543.3464 1.2931.5503.5604.2035 1.1749.3053 1.843.3053z"/></g></svg>