<svg fill="none" height="76" viewBox="0 0 47 76" width="47" xmlns="http://www.w3.org/2000/svg"><path d="m6.40873 13.0901c-.20042-.1303-.36512-.3086-.47914-.5187-.11401-.2101-.17373-.4454-.17373-.6845 0-.239.05972-.4743.17373-.6844.11402-.2101.27872-.3884.47914-.5187l16.07657-10.451884c.2329-.1513544.5046-.231916.7823-.231916.2776 0 .5494.0805616.7822.231916l16.0766 10.451884c.2004.1303.3651.3086.4791.5187s.1738.4454.1738.6844c0 .2391-.0598.4744-.1738.6845s-.2787.3884-.4791.5187l-16.0766 10.4518c-.2328.1514-.5046.232-.7822.232-.2777 0-.5494-.0806-.7823-.232z" fill="#326ce5"/><path d="m25.8067 14.9345h1.1152c.1485.0001.2944-.039.4231-.1133.1286-.0743.2354-.1811.3097-.3097.0742-.1286.1133-.2745.1133-.423 0-.1486-.0391-.2945-.1133-.4231l-3.6536-6.32829c-.0743-.12862-.1811-.23543-.3097-.30969-.1287-.07426-.2746-.11336-.4231-.11336s-.2944.0391-.4231.11336c-.1286.07426-.2354.18107-.3097.30969l-3.6536 6.32829c-.0742.1286-.1133.2745-.1133.4231 0 .1485.039.2944.1133.423s.1811.2354.3097.3097.2745.1134.4231.1133h1.1152c.2244 0 .4396.0892.5983.2479.1586.1586.2478.3738.2478.5982v7.2239l.7484.4866c.2809.1826.6088.2798.9439.2798s.6629-.0972.9439-.2798l.7484-.4866v-7.2239c0-.1111.0219-.2211.0644-.3237.0425-.1027.1049-.196.1834-.2745.0786-.0786.1719-.1409.2745-.1834.1027-.0426.2127-.0645.3238-.0645z" fill="#c1d2f7"/><path d="m28.8378 28.9007-3.8774-2.5208v1.1945c1.2612.5287 2.5566.9718 3.8774 1.3263zm-3.8774.8216v1.6771c1.2813.391 2.5775.7122 3.8609 1.0286 4.1905 1.0329 8.1486 2.0086 11.3316 5.1917.1614.1614.3133.3261.4635.4914.166-.3169.2078-.6844.1173-1.0304-.0906-.3461-.3071-.6459-.607-.8409l-6.2975-4.0941c-1.5284-.5047-3.0862-.8903-4.6252-1.2696-1.4512-.3577-2.8711-.7148-4.2436-1.1538zm-3.3846-1.3755c-.5495-.2784-1.082-.589-1.5948-.9301l-1.4401.9362c.9494.6932 1.9662 1.2891 3.0349 1.7787zm4.8189 5.3386c-.4816-.1187-.9597-.238-1.4343-.3577v1.6482c.3511.0881.7017.1752 1.0516.2614 4.1906 1.0328 8.1487 2.0086 11.3318 5.1916.0054.0055.0102.0112.0156.0167l1.3615-.8852c-.0831-.087-.161-.1758-.2469-.2617-3.498-3.498-7.8605-4.5735-12.0793-5.6133zm-4.8189-1.3393c-1.8407-.5908-3.5712-1.4817-5.1215-2.6366l-1.41.9167c2.0049 1.6537 4.2371 2.657 6.5315 3.4009zm0 3.6421c-3.1346-.8214-6.0822-1.8242-8.6007-4.0168l-1.386.901c2.9578 2.7252 6.4766 3.8644 9.9867 4.7667zm3.3846 2.4991c3.279.8464 6.3624 1.8588 8.9741 4.1849l1.3784-.8961c-3.0516-2.8684-6.714-4.0137-10.3525-4.9385zm-15.41895-4.2836-1.36811.8894c.04809.0494.09185.1003.14089.1494 3.49797 3.498 7.86047 4.5734 12.07917 5.6134 3.6535.9004 7.1298 1.7586 10.0703 4.0727l1.402-.9114c-3.3127-2.7893-7.2592-3.7692-11.0896-4.7132-4.1485-1.0226-8.0681-1.9926-11.23465-5.1003zm-2.90625 2.7178c-.15924-.1592-.30895-.3218-.4574-.4848-.15035.1507-.26519.333-.33616.5337s-.09627.4147-.07407.6264.09135.4158.2024.5974c.11106.1816.26123.3361.43956.4523l4.73387 3.0776c2.0951.8675 4.2864 1.4099 6.4409 1.941 3.3639.8292 6.577 1.6242 9.3608 3.5511l1.432-.931c-3.1659-2.3798-6.8385-3.2916-10.4102-4.172-4.1905-1.0329-8.14864-2.0086-11.3317-5.1917zm15.4043 11.8865c.3151.1531.6268.3142.9334.4877.3712.0796.7587.0085 1.0775-.1976l.7947-.5166c-2.5524-1.7072-5.3903-2.5717-8.2181-3.2924z" fill="#326ce5"/><path d="m6.67081 54.2745c-1.27348 0-2.29939.4144-3.07773 1.2432-.77843.8291-1.16755 2.0015-1.16736 3.5173v1.1218h-2.42572v2.0316h2.42572v12.6138h2.27414v-12.6138h2.97158v-2.0316h-2.97158v-1.1218c0-.9296.19711-1.6421.59131-2.1377.20685-.25.46984-.4476.76754-.5767.2977-.1292.6217-.1861.94559-.1663.25171-.0045.50251.0313.74288.1062.19643.0637.38472.1503.56103.2578l.57606-1.7284c-.30677-.1912-.64587-.3248-1.00063-.3943-.39902-.0821-.80545-.1227-1.21283-.1211zm4.65649.3031h2.2742v20.2245h-2.2742zm16.2585 16.3435c-.4875.6409-1.1082 1.1685-1.8192 1.5464-.7661.4388-1.6339.6688-2.5167.6669-.4493.0044-.8974-.0465-1.3342-.1514-.3885-.0926-.7479-.2801-1.0461-.5458-.3057-.2819-.5352-.6365-.667-1.0309-.1658-.5191-.2427-1.0625-.2275-1.6072v-9.6423h-2.2741v10.3398c0 1.5971.3942 2.7746 1.1825 3.5323.7885.7581 1.9508 1.1371 3.487 1.1371 1.0456.0112 2.0775-.2389 3.0019-.7275.8347-.4272 1.5847-1.0026 2.2134-1.6981v2.0618h2.2742v-14.6454h-2.2742zm13.3113-3.6386 5.3062-7.1256h-2.6381l-4.0629 5.579-4.0632-5.579h-2.6382l5.3065 7.1256-5.6095 7.5198h2.6076l4.3968-6.0037 4.3964 6.0037h2.6381z" fill="#1a1a1a"/></svg>