<svg fill="none" height="74" viewBox="0 0 50 74" width="50" xmlns="http://www.w3.org/2000/svg" xmlns:xlink="http://www.w3.org/1999/xlink"><linearGradient id="a" gradientUnits="userSpaceOnUse" x1="10.542" x2="40.703" y1="46.2705" y2="8.19005"><stop offset="0" stop-color="#0cb0d1"/><stop offset="1" stop-color="#9aca3e"/></linearGradient><path d="m9.18427 60.2308c.14213.0157.23688.0785.23688.2199v.754c0 .157-.06317.2513-.22109.2513h-3.72686c-1.43706 0-2.16348.4869-2.16348 1.4608v.2827c0 .8482.26846 1.288 1.23176 1.6807l3.60053 1.4764c1.43706.5969 1.89499 1.4608 1.89499 2.8588v.5183c0 .9738-.34739 1.6807-.85273 2.0891-.25267.2199-.5685.3769-.9633.4869-.78959.2199-1.50022.2827-2.54248.2827-1.38968 0-2.71619-.0785-4.02691-.2356-.12633-.0314-.20529-.1099-.20529-.267v-.7383c0-.1413.07896-.2356.23688-.2356h4.51645c1.46864 0 2.14769-.4084 2.14769-1.445v-.3142c0-.8953-.28426-1.3822-1.24756-1.7749l-3.91636-1.5707c-1.18439-.4555-1.5476-1.398-1.5476-2.7959v-.3927c0-.9738.34742-1.6807.82117-2.0733.25267-.22.5843-.3613.9633-.4713.78959-.2513 1.48443-.2984 2.54248-.2984.82118 0 1.87923.0785 3.22153.2513zm11.07003.4869c.837.5969 1.1054 1.5551 1.1054 3.2671 0 1.7593-.3158 2.6546-1.0738 3.2357-.2369.1571-.5369.2985-.9633.3927-.8054.1728-1.5792.2356-2.9215.2356h-2.0845v4.3981c0 .2042-.0474.2513-.2527.2513h-1.1686c-.2052 0-.2526-.0471-.2526-.2513v-11.9061c0-.2042.0474-.2356.2526-.2514 1.0897-.0785 2.2583-.1099 3.5216-.1099 1.974 0 3.032.1571 3.8374.7382zm-5.9377.7226v4.9949h1.9424c.4422 0 .8054 0 1.058-.0157.5054-.0157 1.1529-.0629 1.4371-.2042.6948-.2985.9475-.8639.9317-2.199 0-1.0995-.2211-1.8064-.6632-2.1205-.4264-.3142-1.3581-.4555-2.7636-.4555zm11.0227-1.3823c.1579 0 .2527.0786.2527.2671v11.9218c0 .157-.079.2513-.2527.2513h-1.1686c-.1579 0-.2527-.0786-.2527-.2513v-11.9218c0-.1728.079-.2671.2527-.2671zm11.1332.6597c.837.5969 1.1054 1.5551 1.1054 3.2671 0 1.3037-.2053 2.2148-.6159 2.7645-.3947.5498-1.0896.8639-2.1003 1.0053l2.7952 4.4137c.1263.1728.0474.3299-.2053.3299h-1.0423c-.3474 0-.4737-.0943-.6632-.3613l-2.7162-4.2881h-2.4951v4.3981c0 .2042-.0474.2513-.2527.2513h-1.1686c-.2053 0-.2526-.0471-.2526-.2513v-11.9061c0-.2042.0473-.2356.2526-.2514 1.0897-.0785 2.2583-.1099 3.5216-.1099 1.974 0 3.032.1571 3.8374.7382zm-5.9377.7226v4.9949h1.9424c.4421 0 .8054 0 1.058-.0157.5054-.0157 1.1528-.0629 1.4371-.2042.6948-.2985.9475-.8639.9317-2.199 0-1.0995-.2211-1.8064-.6633-2.1205-.4263-.3142-1.3581-.4555-2.7635-.4555zm17.7973-1.3823c.158 0 .2527.0786.2527.2513v.9739c0 .1571-.0789.2513-.2527.2513h-6.3009v4.2096h5.7482c.1579 0 .2527.0785.2527.2513v.9581c0 .1571-.079.2513-.2527.2513h-5.7482v3.8483h6.3009c.158 0 .2527.0785.2527.2513v.9739c0 .157-.0789.2513-.2527.2513h-7.7221c-.158 0-.2527-.0785-.2527-.2513v-11.9375c0-.1571.0789-.2514.2527-.2514h7.7221z" fill="#595a5c"/><path d="m38.9514 1.50216c-.9001-.15707-1.7529.4241-1.9108 1.31941l-1.9582 10.71233h3.3637l1.8476-10.13116c.1579-.87961-.4421-1.7435-1.3423-1.90058zm-25.9301 1.31941c-.1737-.89531-1.0265-1.47648-1.9266-1.31941-.9001.15708-1.48444 1.02097-1.32652 1.90058l1.83182 10.13116h3.3795zm31.8521 44.27873-6.7589-28.3045h3.5689c.8212 0 1.5002-.6754 1.5002-1.4921 0-.8011-.679-1.4765-1.5002-1.4765h-13.0914v3.1414h2.6057l-4.5165 3.4399v-13.4611c0-.91102-.7422-1.63355-1.6581-1.63355-.916 0-1.6424.73824-1.6424 1.63355v13.4611l-4.5164-3.4399h2.5898v-3.1414h-13.09139c-.82117 0-1.48443.6754-1.48443 1.4765 0 .8167.66326 1.4921 1.48443 1.4921h3.56899l-6.77472 28.3359c-.2053.8796.33162 1.775 1.21596 1.9791.12634.0315.25267.0315.37901.0315.74221 0 1.42126-.5027 1.59497-1.2566l3.61628-15.079 11.4017 8.3406v13.1783c0 .9111.7422 1.6336 1.6424 1.6336.9159 0 1.6581-.7382 1.6581-1.6336v-13.1783l11.3859-8.3406 3.6005 15.0476c.1895.7539.8528 1.2565 1.6108 1.2565.1263 0 .2684-.0157.379-.0471.9001-.2042 1.4528-1.0838 1.2318-1.9634zm-21.4927-10.0212-7.3905-5.419h5.4639v-3.2828h-8.417l1.974-8.1992 8.3696 6.3771zm10.6911-5.419-7.3906 5.419v-10.5396l8.3697-6.3771 1.9581 8.1992h-8.417v3.2985z" fill="url(#a)"/></svg>