<svg fill="none" height="67" viewBox="0 0 61 67" width="61" xmlns="http://www.w3.org/2000/svg"><path d="m24.9588.0669414-19.7073 9.4906186c-.09177.04419-.1724.10849-.2359.18813s-.10824.17256-.13089.27191l-4.8676967 21.3252c-.02267461.0993-.02268449.2024-.000029.3017.0226554.0993.0673939.1922.1308917.2719l13.637924 17.1017c.0635.0796.1442.144.2361.1881.0918.0442.1924.0671.2943.067h21.8738c.1018 0 .2023-.0229.2941-.0671.0918-.0441.1724-.1084.2359-.188l13.6381-17.1017c.0635-.0797.1083-.1726.1309-.2719.0227-.0993.0227-.2024 0-.3017l-4.8673-21.3252c-.0227-.09935-.0674-.19227-.1309-.27191s-.1442-.14394-.2359-.18813l-19.7079-9.4904303c-.0917-.0441849-.1923-.0671297-.2941-.0671297s-.2024.0229448-.2941.0671297z" fill="#0766ae"/><path d="m48.6731.135699-7.7482 2.820031c-.0749.02725-.1379.08006-.1777.14913l-4.1227 7.14074c-.0398.069-.0541.1499-.0402.2284l1.4317 8.1204c.0139.0785.055.1496.116.2007l6.3164 5.3003c.0611.0511.1382.0791.2179.079h8.2456c.0797.0001.1568-.0279.2179-.079l6.3164-5.3004c.061-.0512.102-.1222.116-.2006l1.4317-8.1204c.0139-.0785-.0003-.1593-.0401-.2284l-4.1228-7.14074c-.0399-.06907-.1028-.12188-.1778-.14913l-7.7481-2.820031c-.0749-.027286-.1571-.027286-.232 0z" fill="#6694c9"/><path d="m47.3254 9.33684c.1477-.14305.3043-.27663.4688-.39993.1617-.12037.3344-.22504.516-.31257.1882-.08929.3857-.15749.5889-.20335.2255-.05004.4559-.07448.6869-.07287.3718-.00698.7409.06489 1.0829.21089.3062.13412.5782.33542.7961.58897.2222.26398.388.57067.4871.90112.1124.3724.1675.7597.1636 1.1486v4.7608h-1.9991v-4.761c.0216-.3477-.0815-.6917-.2907-.9702-.1075-.1187-.2406-.2115-.3892-.27126-.1486-.05979-.3089-.08506-.4686-.07391-.2746-.00144-.5458.06068-.7924.18147-.2606.1309-.4986.3027-.7048.509v5.3861h-2.0064v-7.49403h1.2358c.1109-.00789.2212.02245.3124.08597.0913.06351.158.15638.1892.26312zm-28.885 8.18046h4.233v8.3545h.0842c.4204-.7293.8689-1.4018 1.2896-2.075l4.2892-6.2795h5.2422l-6.2514 8.0457 6.5877 10.8493h-4.9897l-4.6255-8.1581-1.6263 1.9907v6.1674h-4.2328z" fill="#fff"/><path d="m7.4901 55.7012v4.2826l4.0368-4.2826h2.8356l-4.0365 4.0802 4.4271 6.25h-2.8502l-3.11058-4.6444-1.30222 1.3167v3.3277h-2.27135v-10.3302zm9.9105 2.8503v1.0418h.0433c.2349-.4103.5878-.7405 1.0128-.9476.3967-.1935.8319-.295 1.2733-.2968.4613-.0154.9211.0608 1.3528.2243.3271.1308.6139.3454.8319.6221.2124.2875.3582.6186.4269.9693.0853.4165.1265.8409.1229 1.2661v4.6009h-2.0546v-4.2247c0-.6172-.0964-1.0778-.2892-1.3817-.1932-.3038-.5357-.4557-1.0274-.4557-.5594 0-.9646.1664-1.2154.499-.2508.3329-.3761.8803-.376 1.6423v3.9208h-2.0544v-7.4801zm6.9013 1.0996c.2077-.3142.4848-.5766.81-.7669.3433-.1986.7176-.338 1.1071-.4123.4073-.0817.8216-.1229 1.2369-.123.3824.0006.7642.0272 1.1429.0797.3663.0473.7227.1523 1.0562.311.3096.147.578.3682.7814.644.2163.3218.3228.7049.3037 1.0923v3.8919c-.0009.324.0184.6478.0578.9694.0184.243.0874.4796.2026.6944h-2.0834c-.0388-.1161-.0702-.2344-.0942-.3544-.0243-.1219-.0411-.2451-.0505-.369-.3185.3319-.7172.5761-1.1576.7091-.4407.1345-.899.2027-1.3598.2024-.3372.0026-.6732-.0413-.9985-.1303-.2943-.0796-.5698-.2173-.81-.405-.2333-.1854-.4192-.4233-.5427-.6945-.1372-.3145-.2039-.6552-.1953-.9983-.0138-.3628.0632-.7233.2241-1.0488.1381-.2622.3365-.4878.5788-.6584.2468-.1688.5209-.2937.8102-.3691.3026-.0816.6093-.1468.9189-.1952.3084-.0481.6122-.0867.9113-.1158.2682-.0237.5342-.0673.7959-.1303.1997-.0428.3875-.1292.5498-.2531.0686-.0593.1215-.1345.1544-.2189.0328-.0845.0444-.1757.0339-.2657.0085-.1824-.0288-.364-.1086-.5282-.0677-.1253-.1676-.2302-.2894-.3039-.1291-.0751-.2716-.1242-.4195-.1446-.1701-.0248-.3418-.0369-.5137-.0362-.3382-.0191-.6734.0723-.955.2606-.1253.1076-.2263.2407-.2961.3904s-.107.3125-.1089.4777h-2.0546c.0111-.4254.136-.8401.3615-1.201zm4.0582 2.9009c-.1374.0452-.2776.0815-.4197.1086-.1495.0289-.3062.053-.4702.0723-.1642.0193-.3281.0434-.4918.0723-.1542.029-.3065.0677-.4558.1158-.14.0434-.2719.1094-.3906.1953-.1113.0824-.2028.1886-.2677.311-.0727.1484-.1075.3124-.1013.4775-.0053.1603.0295.3194.1013.4628.0638.1215.1586.2239.2749.2968.1243.0755.2617.127.405.1519.1575.0292.3174.0437.4775.0433.326.0184.6508-.0516.9403-.2024.2031-.1163.3727-.2833.492-.4846.102-.1759.1684-.3702.1953-.5717.0212-.1534.0333-.3079.0363-.4628v-.7671c-.095.0819-.2058.1435-.3255.181zm8.0805-4.0005v1.3745h-1.5048v3.7039c0 .3472.0578.5788.1736.6946.1158.1155.3474.1733.6946.1733.1156 0 .2265-.0048.3327-.0144.102-.0088.2035-.0233.3039-.0433v1.5913c-.1916.0307-.3849.05-.5788.0578-.2123.0095-.4196.0144-.6221.0147-.3027.0011-.605-.0207-.9044-.0652-.2644-.0365-.5195-.1225-.7522-.2532-.2183-.1264-.3964-.312-.5137-.5353-.1368-.2837-.2015-.5967-.1881-.9114v-4.4129h-1.2442v-1.3746h1.2442v-2.2425h2.0545v2.2425zm1.0416-1.1574v-1.6927h2.0543v1.6927zm2.0543 1.1574v7.4799h-2.0543v-7.4801zm3.4723 7.4801-2.5608-7.4801h2.1557l1.5772 5.1074h.0288l1.5771-5.1074h2.0399l-2.5319 7.4799zm7.8707-1.7939c.3086.2989.7522.4483 1.331.4483.3806.0102.7548-.0986 1.0707-.311.2529-.1504.4469-.3826.5498-.6583h1.8085c-.2893.897-.7331 1.5385-1.3312 1.9244-.6513.4005-1.4056.6016-2.1699.5786-.5436.0082-1.0837-.0876-1.5914-.2821-.4546-.1758-.8647-.4501-1.2009-.803-.3352-.3588-.5937-.7822-.7596-1.2443-.1833-.5103-.274-1.0492-.2678-1.5914-.0047-.5333.0885-1.063.275-1.5626.171-.4651.4359-.89.7781-1.2484.3422-.3585.7545-.6427 1.2111-.8351.492-.2074 1.0216-.3109 1.5555-.3039.5763-.0136 1.1473.113 1.6638.3691.46.2353.8588.5746 1.1647.9909.3088.4258.5324.9072.6583 1.4179.1361.5435.1849 1.1051.1446 1.6639h-5.3964c.0288.6656.1976 1.1479.5063 1.447zm2.3222-3.9354c-.246-.2699-.6199-.405-1.1215-.4053-.2817-.0096-.5618.0474-.8173.1665-.2013.0984-.3789.2391-.5208.4124-.125.1538-.2184.3308-.275.5208-.0488.1601-.0804.3251-.0941.492h3.3422c-.0582-.4354-.2359-.8461-.5135-1.1864z" fill="#000"/></svg>