<svg fill="none" height="56" viewBox="0 0 118 56" width="118" xmlns="http://www.w3.org/2000/svg"><path d="m53.8709 45.5671c-.0402-.0394-.0719-.0868-.0931-.1391-.0213-.0524-.0317-.1086-.0305-.1652v-24.1849c-.001-.0565.0094-.1127.0307-.165.0212-.0524.0528-.0997.0929-.1392.0391-.0405.0861-.0726.1379-.0941.0519-.0215.1075-.032.1635-.031h3.2516c.0557-.0007.111.01.1625.0315s.0981.0533.1371.0936c.0399.0396.0714.087.0927.1393.0212.0523.0317.1084.0309.1649v24.1849c.001.0566-.0094.1128-.0306.1651-.0213.0523-.0529.0997-.093.1392-.0389.0404-.0855.0723-.137.0938-.0516.0215-.1069.0321-.1626.0312h-3.2516c-.056.0012-.1117-.0093-.1635-.0308-.0519-.0215-.0988-.0536-.1379-.0942zm11.5561-.3229c-1.0106-.3641-1.9072-.9938-2.5979-1.8246-.5977-.729-.924-1.6471-.9219-2.5945v-.322c-.0011-.0566.0093-.1127.0305-.1651.0213-.0523.0529-.0997.093-.1391.0389-.0407.0857-.0729.1374-.0945.0517-.0217.1072-.0324.1631-.0315h3.1106c.0559-.0009.1114.0098.1631.0315.0517.0216.0985.0538.1374.0945.04.0395.0716.0869.0928.1392s.0317.1085.0307.165v.0719c.0166.3219.1147.6341.2849.9065.1702.2725.4067.496.6868.6492.7343.4657 1.5903.6963 2.456.6617.8066.0365 1.6058-.169 2.2974-.5907.2627-.1476.4825-.3625.6375-.623.155-.2606.2397-.5578.2457-.8619.0083-.2542-.0555-.5056-.1839-.7242-.1284-.2187-.3161-.3955-.5407-.5096-.7501-.3763-1.5379-.6701-2.35-.8763l-1.3432-.4293c-1.0433-.297-2.0608-.68-3.0423-1.1451-.8081-.3917-1.5204-.9601-2.0854-1.6641-.5878-.7712-.8882-1.7276-.8481-2.7009-.023-.7752.1423-1.5444.4813-2.24.3389-.6956.8413-1.2964 1.463-1.7497 1.5-1.0524 3.3011-1.5743 5.124-1.4848 1.2935-.0268 2.579.2107 3.7798.698.9964.3975 1.8649 1.0661 2.5095 1.9319.5863.8149.8961 1.8002.8832 2.8082.0011.0566-.0092.1129-.0305.1652-.0212.0524-.0529.0997-.0931.1391-.0388.0405-.0854.0725-.137.0941-.0515.0215-.1069.032-.1626.0309h-3.0036c-.0559.0012-.1114-.0092-.1632-.0308-.0517-.0215-.0984-.0536-.1373-.0942-.0401-.0395-.0717-.0868-.093-.1392-.0212-.0523-.0316-.1085-.0306-.1651-.0059-.3158-.092-.6247-.2498-.8972-.1579-.2724-.3824-.4992-.6518-.6585-.7379-.4547-1.5943-.673-2.4569-.6263-.7806-.0332-1.5558.146-2.2449.5189-.2629.1364-.4832.3442-.6359.6003-.1528.256-.232.55-.2288.8491-.0031.2761.0738.547.2213.7793.1475.2322.359.4156.6084.5273.89.4217 1.8197.7515 2.775.9846l.7771.2137c1.0728.3167 2.1237.7052 3.1456 1.1629.83.3801 1.5662.942 2.1554 1.6454.6121.774.926 1.7467.8832 2.7373.0269.7795-.1402 1.5534-.4859 2.2506-.3457.6971-.8589 1.2951-1.4925 1.7391-1.5593 1.0356-3.4034 1.5428-5.266 1.4484-1.3282.0259-2.6496-.1985-3.8969-.6616zm24.0343-14.5965c-.0389.0408-.0857.073-.1374.0946-.0517.0217-.1072.0324-.1632.0314h-3.6056c-.024-.0034-.0485-.0012-.0714.0066-.023.0078-.0439.0209-.061.0383s-.0299.0386-.0375.0619c-.0076.0234-.0097.0481-.0062.0724v8.6225c-.0636.7073.1451 1.4122.5827 1.9674.2529.2227.5477.3914.8665.4959.3189.1046.6554.1429.9893.1126h1.0602c.0557-.0009.111.0097.1625.0312.0516.0215.0982.0534.1371.0938.0402.0394.0718.0868.0931.1391.0213.0524.0316.1086.0304.1652v2.6832c.0036.059-.0045.1181-.024.1739-.0195.0557-.05.1069-.0895.1505s-.0873.0786-.1405.103c-.0532.0245-.1107.0378-.1691.0392l-1.8383.0364c-1.454.1023-2.9053-.2339-4.1707-.966-.9189-.6439-1.39-1.8603-1.4133-3.6491v-10.1969c.0033-.0243.0011-.049-.0066-.0722-.0076-.0232-.0205-.0443-.0375-.0617-.0171-.0173-.0379-.0304-.0608-.0383s-.0472-.0103-.0712-.007h-2.0153c-.056.0011-.1116-.0096-.1633-.0312-.0517-.0217-.0984-.054-.1373-.0948-.0401-.0394-.0718-.0867-.0931-.1391-.0212-.0523-.0316-.1086-.0304-.1651v-2.504c-.0012-.0566.0092-.1128.0304-.1652.0213-.0523.053-.0997.0931-.1391.039-.0407.0857-.0728.1374-.0945s.1072-.0324.1632-.0315h2.0153c.024.0035.0485.0012.0714-.0066.023-.0078.0439-.0209.061-.0383s.0299-.0386.0375-.0619.0097-.0481.0062-.0724v-4.1857c-.0014-.0566.0089-.1129.0302-.1652.0212-.0524.053-.0998.0933-.139.0388-.0406.0854-.0727.1369-.0942.0516-.0215.107-.032.1627-.0309h3.0755c.0558-.0009.1111.0097.1626.0312s.0982.0534.137.0939c.0403.0393.0722.0866.0936.139.0214.0523.0319.1086.0309.1652v4.1857c-.0035.0243-.0014.0491.0062.0724.0075.0233.0204.0445.0375.0619s.038.0305.0609.0383c.023.0078.0475.0101.0715.0066h3.6056c.0559-.0008.1114.01.1631.0317.0517.0216.0984.0537.1374.0943.04.0396.0715.087.0927.1393.0213.0523.0318.1084.0309.165v2.504c.0007.0561-.0097.1119-.0308.1638-.0211.052-.0523.0991-.0918.1385zm4.2915-6.4582c-.2347-.2392-.4185-.5244-.5401-.8382-.1217-.3138-.1785-.6495-.1671-.9864-.0111-.3368.0458-.6724.1674-.9862.1216-.3137.3053-.599.5398-.8383.2363-.2374.5182-.4233.8281-.5464s.6414-.1808.9742-.1695c.3327-.0113.6643.0464.9742.1695s.5917.309.8281.5464c.2344.2393.418.5246.5396.8384.1216.3137.1786.6493.1675.9861.0114.3369-.0455.6725-.1671.9863s-.3054.5991-.54.8383c-.2362.2375-.518.4235-.828.5466-.31.1232-.6415.1807-.9743.1692-.3328.0116-.6644-.046-.9744-.1691-.3099-.1231-.5917-.3092-.8279-.5467zm-.1946 21.3776c-.0401-.0394-.0718-.0868-.0931-.1391-.0212-.0524-.0316-.1086-.0304-.1652v-17.4588c-.001-.0565.0094-.1127.0307-.165.0212-.0523.0528-.0997.0928-.1392.0391-.0404.0859-.0724.1376-.0939s.1071-.0321.163-.0312h3.2516c.0558-.0009.1113.0097.1629.0312.0517.0215.0985.0535.1376.0939.04.0395.0715.0869.0928.1392.0212.0523.0317.1085.0307.165v17.4588c.0011.0566-.0093.1128-.0306.1651-.0212.0523-.0528.0997-.0929.1392-.039.0405-.0858.0725-.1375.0941-.0517.0215-.1072.032-.163.0309h-3.2516c-.0559.0011-.1114-.0094-.1631-.0309-.0517-.0216-.0985-.0536-.1375-.0941zm11.5568-1.0164c-1.344-.9725-2.332-2.3692-2.809-3.9711-.406-1.3202-.608-2.6957-.601-4.0784-.021-1.3812.17-2.7574.566-4.0793.48-1.5856 1.477-2.9599 2.827-3.8992 1.433-.9591 3.124-1.4479 4.842-1.3999 1.656-.0398 3.282.4501 4.647 1.3999 1.318.9449 2.293 2.3026 2.774 3.8637.451 1.3101.667 2.6914.636 4.0784.018 1.3833-.185 2.7605-.6 4.0784-.478 1.6015-1.458 3.002-2.792 3.9898-1.372.9826-3.021 1.4908-4.701 1.4494-1.706.0471-3.382-.4541-4.789-1.4317zm7.034-2.8931c.654-.5475 1.129-1.2838 1.36-2.1111.26-.9797.379-1.9921.353-3.0061.035-1.0141-.084-2.0276-.353-3.0051-.208-.8282-.68-1.5639-1.343-2.0933-.675-.5012-1.496-.7591-2.333-.7327-.814-.019-1.61.239-2.262.7327-.667.5328-1.151 1.2655-1.383 2.0933-.253.9806-.372 1.9918-.353 3.0051-.019 1.0137.1 2.0252.353 3.0061.213.8356.691 1.5772 1.361 2.1111.678.5091 1.506.7721 2.35.7466.814.0205 1.609-.2465 2.25-.755zm-98.2237-11.7378v14.5264c.0002.0131-.0042.0259-.0125.036s-.0199.0168-.0326.0191l-13.8167162 2.3975c-.0097421.0015-.019696.0003-.028833-.0034-.0091371-.0037-.0171257-.0098-.0231406-.0177-.0060148-.0079-.00983756-.0173-.01107322-.0272s.00016061-.02.00404451-.0291l13.81671851-31.2367c.0054-.0113.0144-.0205.0256-.026s.0239-.007.036-.0043c.0122.0027.0231.0094.0309.0192.0079.0097.0123.0218.0126.0344zm2.3288-8.3715v22.9586c.0001.0136.0052.0267.0142.0368.009.0102.0213.0166.0347.0182l20.696 2.3397c.0096.0011.0193-.0005.0282-.0045.0088-.004.0165-.0103.0222-.0183.0057-.0079.0092-.0172.0102-.027.001-.0097-.0005-.0196-.0044-.0286l-20.696-46.7915422c-.0054-.0112712-.0143-.0203952-.0254-.02591569-.0111-.00552047-.0237-.00711917-.0358-.00454091s-.023.0091848-.031.0187652c-.0079.0095804-.0125.0215823-.0129.03409zm20.5863 27.4952-22.8938 6.9529c-.0128.0048-.0269.0048-.0397 0l-13.834197-6.9529c-.0116113-.0051-.0210824-.0142-.0267774-.0257s-.0072562-.0246-.0044139-.0371c.0028422-.0125.0099094-.0236.0199808-.0314s.0225145-.0118.0351801-.0112h36.7280274c.0116.0019.0222.0074.0305.0159.0082.0084.0136.0193.0153.031.0018.0117-.0002.0237-.0056.0342-.0054.0106-.014.0191-.0245.0243z" fill="#000"/></svg>