<svg fill="none" height="81" viewBox="0 0 69 81" width="69" xmlns="http://www.w3.org/2000/svg" xmlns:xlink="http://www.w3.org/1999/xlink"><linearGradient id="a"><stop offset="0" stop-color="#3f8dbb"/><stop offset="1" stop-color="#0f578b"/></linearGradient><linearGradient id="b" gradientUnits="userSpaceOnUse" x1="5.57377" x2="63.3941" xlink:href="#a" y1="34.4579" y2="24.2625"/><linearGradient id="c" gradientUnits="userSpaceOnUse" x1="60.2138" x2="24.2009" y1="30.5571" y2="46.5912"><stop offset="0" stop-color="#3282b4"/><stop offset="1" stop-color="#0f578b"/></linearGradient><linearGradient id="d" gradientUnits="userSpaceOnUse" x1="19.018" x2="18.9589" xlink:href="#a" y1="28.9343" y2="28.9932"/><linearGradient id="e"><stop offset="0" stop-color="#4798c7"/><stop offset="1" stop-color="#0a5183"/></linearGradient><linearGradient id="f" gradientUnits="userSpaceOnUse" x1="25.3334" x2="25.2325" xlink:href="#e" y1="41.8707" y2="41.8124"/><linearGradient id="g" gradientUnits="userSpaceOnUse" x1="25.9662" x2="25.8403" xlink:href="#e" y1="42.3129" y2="42.2402"/><linearGradient id="h" gradientUnits="userSpaceOnUse" x1="27.2937" x2="27.1185" xlink:href="#e" y1="43.1055" y2="43.0044"/><linearGradient id="i" gradientUnits="userSpaceOnUse" x1="26.6171" x2="26.4689" xlink:href="#e" y1="42.7243" y2="42.6387"/><linearGradient id="j" gradientUnits="userSpaceOnUse" x1="27.9921" x2="27.789" xlink:href="#e" y1="43.4567" y2="43.3394"/><linearGradient id="k" gradientUnits="userSpaceOnUse" x1="23.577" x2="23.552" xlink:href="#e" y1="40.3747" y2="40.3603"/><linearGradient id="l" gradientUnits="userSpaceOnUse" x1="24.7225" x2="24.6483" xlink:href="#e" y1="41.3987" y2="41.356"/><linearGradient id="m" gradientUnits="userSpaceOnUse" x1="23.0469" x2="23.0404" xlink:href="#e" y1="39.8271" y2="39.8234"/><linearGradient id="n" gradientUnits="userSpaceOnUse" x1="24.1376" x2="24.0881" xlink:href="#e" y1="40.9003" y2="40.8718"/><linearGradient id="o" gradientUnits="userSpaceOnUse" x1="48.7142" x2="48.5844" xlink:href="#e" y1="55.119" y2="55.0442"/><linearGradient id="p" gradientUnits="userSpaceOnUse" x1="33.3638" x2="32.9646" xlink:href="#e" y1="44.9268" y2="44.6964"/><linearGradient id="q" gradientUnits="userSpaceOnUse" x1="34.3968" x2="33.7905" xlink:href="#e" y1="45.0366" y2="44.6866"/><linearGradient id="r" gradientUnits="userSpaceOnUse" x1="51.3979" x2="13.6042" xlink:href="#e" y1="49.0605" y2="27.2397"/><linearGradient id="s" gradientUnits="userSpaceOnUse" x1="28.706" x2="28.4778" xlink:href="#e" y1="43.7728" y2="43.6411"/><linearGradient id="t" gradientUnits="userSpaceOnUse" x1="32.5349" x2="32.1772" xlink:href="#e" y1="44.8249" y2="44.6186"/><linearGradient id="u" gradientUnits="userSpaceOnUse" x1="31.7219" x2="31.4053" xlink:href="#e" y1="44.684" y2="44.5013"/><linearGradient id="v" gradientUnits="userSpaceOnUse" x1="29.4411" x2="29.1855" xlink:href="#e" y1="44.0575" y2="43.9098"/><linearGradient id="w" gradientUnits="userSpaceOnUse" x1="30.9473" x2="30.6494" xlink:href="#e" y1="44.5111" y2="44.339"/><linearGradient id="x" gradientUnits="userSpaceOnUse" x1="30.1921" x2="29.9092" xlink:href="#e" y1="44.3052" y2="44.1422"/><linearGradient id="y" gradientUnits="userSpaceOnUse" x1="59.6943" x2="59.6924" xlink:href="#e" y1="44.4247" y2="44.4232"/><linearGradient id="z" gradientUnits="userSpaceOnUse" x1="59.027" x2="59.0155" xlink:href="#e" y1="45.4971" y2="45.4905"/><linearGradient id="A" gradientUnits="userSpaceOnUse" x1="60.2559" x2="60.254" xlink:href="#e" y1="43.4449" y2="43.4435"/><linearGradient id="B" gradientUnits="userSpaceOnUse" x1="60.8447" x2="60.8293" xlink:href="#e" y1="42.3288" y2="42.3204"/><linearGradient id="C" gradientUnits="userSpaceOnUse" x1="61.3315" x2="61.32" xlink:href="#e" y1="41.2891" y2="41.2829"/><linearGradient id="D" gradientUnits="userSpaceOnUse" x1="56.1174" x2="56.0694" xlink:href="#e" y1="49.2526" y2="49.2246"/><linearGradient id="E" gradientUnits="userSpaceOnUse" x1="56.9463" x2="56.9119" xlink:href="#e" y1="48.3005" y2="48.2814"/><linearGradient id="F" gradientUnits="userSpaceOnUse" x1="57.6442" x2="57.6153" xlink:href="#e" y1="47.4362" y2="47.4196"/><linearGradient id="G" gradientUnits="userSpaceOnUse" x1="58.3963" x2="58.3789" xlink:href="#e" y1="46.4203" y2="46.4095"/><linearGradient id="H" gradientUnits="userSpaceOnUse" x1="62.6308" x2="62.577" xlink:href="#e" y1="37.8558" y2="37.8258"/><linearGradient id="I" gradientUnits="userSpaceOnUse" x1="61.8271" x2="61.7925" xlink:href="#e" y1="40.1374" y2="40.1182"/><linearGradient id="J" gradientUnits="userSpaceOnUse" x1="52.6578" x2="52.5674" xlink:href="#e" y1="52.4828" y2="52.4309"/><linearGradient id="K" gradientUnits="userSpaceOnUse" x1="51.7369" x2="51.685" xlink:href="#e" y1="53.1546" y2="53.1251"/><linearGradient id="L" gradientUnits="userSpaceOnUse" x1="50.743" x2="50.6322" xlink:href="#e" y1="53.8793" y2="53.8155"/><linearGradient id="M" gradientUnits="userSpaceOnUse" x1="53.6079" x2="53.5579" xlink:href="#e" y1="51.6769" y2="51.6471"/><linearGradient id="N" gradientUnits="userSpaceOnUse" x1="49.7334" x2="49.6934" xlink:href="#e" y1="54.4789" y2="54.4558"/><linearGradient id="O" gradientUnits="userSpaceOnUse" x1="54.452" x2="54.3828" xlink:href="#e" y1="50.9377" y2="50.8979"/><linearGradient id="P" gradientUnits="userSpaceOnUse" x1="62.227" x2="62.2156" xlink:href="#e" y1="39.0276" y2="39.0209"/><linearGradient id="Q" gradientUnits="userSpaceOnUse" x1="55.3462" x2="55.302" xlink:href="#e" y1="50.0555" y2="50.0297"/><linearGradient id="R"><stop offset="0" stop-color="#51a2d1"/><stop offset="1" stop-color="#0e5688"/></linearGradient><linearGradient id="S" gradientUnits="userSpaceOnUse" x1="34.0726" x2="44.3081" xlink:href="#R" y1="34.5425" y2="24.3069"/><linearGradient id="T" gradientUnits="userSpaceOnUse" x1="22.4529" x2="34.8022" xlink:href="#R" y1="33.9126" y2="21.5633"/><path d="m5.13281 29.3589c0 16.2146 13.14449 29.3591 29.35869 29.3591 13.692 0 25.1949-9.3725 28.443-22.0514h-14.758c-2.6127 4.8827-7.76 8.2052-13.685 8.2052-8.5673 0-15.5125-6.9454-15.5125-15.5129 0-8.5673 6.9452-15.5127 15.5125-15.5127 6.4306 0 11.947 3.9127 14.2989 9.4871h14.4402c-2.7788-13.3239-14.5898-23.3333-28.7391-23.3333-16.2142 0-29.35869 13.1443-29.35869 29.3589z" fill="url(#b)"/><path d="m18.9795 29.6156c0 14.8116 12.7602 25.7464 28.6237 26.0193 7.5202-3.76 13.201-10.6527 15.3318-18.9681h-14.758c-2.6127 4.8827-7.76 8.2052-13.685 8.2052-8.5362 0-15.46-6.8954-15.5102-15.4199-.0006.0545-.0023.1089-.0023.1635z" fill="url(#c)"/><path d="m18.9902 28.9062c-.0012.0385-.0021.0768-.0029.1152.0008-.0384.0017-.0767.0029-.1152z" fill="url(#d)" opacity=".04218053364"/><path d="m25.3307 41.8753c-.0315-.0231-.0644-.0444-.0953-.0677.0309.0233.0638.0446.0953.0677z" fill="url(#f)"/><path d="m25.9645 42.3158c-.0404-.0268-.0823-.0514-.1227-.0785.0404.0271.0823.0517.1227.0785z" fill="url(#g)"/><path d="m27.2962 43.1011c-.06-.0314-.121-.0602-.18-.0923.059.0321.12.0609.18.0923z" fill="url(#h)"/><path d="m26.6171 42.7241c-.0489-.029-.0996-.0558-.1483-.0854.0487.0296.0994.0564.1483.0854z" fill="url(#i)"/><path d="m27.998 43.4465c-.0715-.0329-.1444-.0629-.2148-.0969.0704.034.1433.064.2148.0969z" fill="url(#j)"/><path d="m23.5751 40.3776c-.007-.0069-.0145-.0133-.0214-.0202.0069.0069.0144.0133.0214.0202z" fill="url(#k)"/><path d="m24.7192 41.4041c-.0223-.0183-.0455-.0352-.0678-.0535.0223.0183.0455.0352.0678.0535z" fill="url(#l)"/><path d="m23.0463 39.828c-.0018-.0018-.0035-.0038-.0053-.0057.0018.0019.0035.0039.0053.0057z" fill="url(#m)"/><path d="m24.1347 40.9051c-.0143-.0131-.0293-.0248-.0439-.0379.0146.0131.0296.0248.0439.0379z" fill="url(#n)"/><path d="m48.5225 55.1515c.0846-.0461.1692-.0929.2538-.1398-.0846.0469-.1692.0937-.2538.1398z" fill="url(#o)"/><path d="m33.419 44.831c-.1702-.0117-.3414-.0217-.5098-.039.1684.0173.3396.0273.5098.039z" fill="url(#p)"/><path d="m34.4918 44.8716c-.2671 0-.5326-.0068-.7965-.02.2639.0132.5294.02.7965.02z" fill="url(#q)"/><path d="m10.2607 41.2818c0 2.1291.3543 4.1429 1.0054 6.0354 5.37 6.935 13.7758 11.4006 23.2255 11.4006 4.7127 0 9.1657-1.1106 13.1123-3.0838-.0008.0002-.001.0005-.0012.0005-15.8635-.2728-28.6237-11.2077-28.6237-26.0192 0-.0546.0018-.1091.0023-.1635-.0002-.0311-.0023-.0619-.0023-.0931 0-7.7386 5.6668-14.1519 13.0768-15.321v-.11c-12.7539 2.177-21.7951 13.0701-21.7951 27.3541z" fill="url(#r)"/><path d="m28.716 43.7559c-.0826-.0331-.1665-.0633-.2482-.0977.0817.0344.1656.0646.2482.0977z" fill="url(#s)"/><path d="m32.5782 44.7501c-.1483-.0185-.2973-.0344-.4444-.0567.1471.0223.2961.0382.4444.0567z" fill="url(#t)"/><path d="m31.755 44.6269c-.1277-.0229-.2562-.0427-.3829-.0683.1267.0256.2552.0454.3829.0683z" fill="url(#u)"/><path d="m29.4559 44.0319c-.095-.0325-.1912-.0623-.285-.0964.0938.0341.19.0639.285.0964z" fill="url(#v)"/><path d="m30.9736 44.4655c-.1167-.0273-.235-.0511-.3506-.0807.1156.0296.2339.0534.3506.0807z" fill="url(#w)"/><path d="m30.2125 44.2695c-.1077-.0308-.2169-.0587-.3238-.0918.1069.0331.2161.061.3238.0918z" fill="url(#x)"/><path d="m59.6309 44.5297c.0423-.0704.0827-.1411.125-.2113-.0423.0702-.0827.1409-.125.2113z" fill="url(#y)"/><path d="m58.9639 45.5786c.0382-.0566.0765-.1128.1147-.1694-.0382.0566-.0765.1128-.1147.1694z" fill="url(#z)"/><path d="m60.2139 43.5194c.0267-.0503.0554-.1.0841-.1503-.0287.0503-.0574.1-.0841.1503z" fill="url(#A)"/><path d="m60.7812 42.4384c.0385-.0754.075-.1515.1116-.2275-.0366.076-.0731.1521-.1116.2275z" fill="url(#B)"/><path d="m61.2988 41.3456c.0173-.04.0366-.0792.0539-.119-.0173.0398-.0366.079-.0539.119z" fill="url(#C)"/><path d="m56.0078 49.3309c.0558-.0615.1135-.1221.1712-.1844-.0577.0617-.1154.1229-.1712.1844z" fill="url(#D)"/><path d="m56.8564 48.3768c.0498-.0568.0957-.1144.1454-.1717-.0497.0573-.0956.1149-.1454.1717z" fill="url(#E)"/><path d="m57.5596 47.5179c.0461-.06.0942-.1196.1423-.18-.0481.0604-.0962.12-.1423.18z" fill="url(#F)"/><path d="m58.3193 46.5116c.0462-.064.0904-.1288.1366-.1932-.0462.0644-.0904.1292-.1366.1932z" fill="url(#G)"/><path d="m62.5654 37.966c.027-.0833.052-.1667.075-.2502-.023.0835-.048.1669-.075.2502z" fill="url(#H)"/><path d="m61.7637 40.2478c.0307-.0798.0615-.1598.0942-.24-.0327.0802-.0635.1602-.0942.24z" fill="url(#I)"/><path d="m52.5039 52.5423c.0731-.0568.1462-.1137.2173-.1712-.0711.0575-.1442.1144-.2173.1712z" fill="url(#J)"/><path d="m51.6504 53.1838c.0404-.0289.0788-.0589.1192-.0881-.0404.0292-.0788.0592-.1192.0881z" fill="url(#K)"/><path d="m50.5684 53.926c.0798-.0523.1592-.1044.2388-.1574-.0796.053-.159.1051-.2388.1574z" fill="url(#L)"/><path d="m53.5137 51.7221c.0461-.0394.0923-.0805.1384-.1205-.0461.04-.0923.0811-.1384.1205z" fill="url(#M)"/><path d="m49.6719 54.4933c.0281-.0169.0553-.0348.083-.0519-.0277.0171-.0549.035-.083.0519z" fill="url(#N)"/><path d="m54.3193 51.0075c.0654-.0596.1308-.1192.1962-.1794-.0654.0602-.1308.1194-.1962.1794z" fill="url(#O)"/><path d="m62.208 39.0603c.0095-.0243.0171-.0477.0266-.072-.0095.0243-.0171.0477-.0266.072z" fill="url(#P)"/><path d="m55.252 50.1166c.048-.0486.0961-.0986.1442-.1478-.0481.0492-.0962.0992-.1442.1478z" fill="url(#Q)"/><path d="m36.2343 22.4879c-.7435.3761-1.3008.8928-1.671 1.5498-.3707.6573-.5559 1.3556-.5559 2.0948 0 1.1246.3621 2.05 1.0859 2.7761.7183.7256 1.92 1.3079 3.6054 1.746 1.0293.2616 1.6852.5394 1.9679.8339.2827.2942.4242.6278.4242 1.0007 0 .3923-.1488.7371-.4457 1.0348-.2964.2977-.7195.4462-1.2677.4462-.7354 0-1.301-.2908-1.6969-.8731-.2431-.3594-.4041-.8829-.4835-1.5692l-3.656.2648c.1075 1.4519.5683 2.6485 1.3825 3.5904.8146.9417 2.2793 1.4125 4.3943 1.4125 1.2046 0 2.2027-.201 2.9946-.6033.7917-.4023 1.4081-.9927 1.8492-1.7706.441-.7784.6618-1.6286.6618-2.5507 0-.7847-.1656-1.4945-.4964-2.1287-.3308-.6344-.8598-1.166-1.5865-1.5942-.7266-.4281-1.9297-.8518-3.6095-1.2704-.6784-.1635-1.1079-.34-1.2892-.5298-.1864-.1831-.28-.3891-.28-.6179 0-.3139.1131-.5806.3392-.7996.2264-.2189.5629-.3285 1.0095-.3285.543 0 .9684.1473 1.2769.4414.3083.2944.51.7653.6065 1.4125l3.6218-.245c-.1579-1.4912-.6545-2.5783-1.4885-3.262-.8341-.6834-2.0456-1.025-3.6348-1.025-1.295 0-2.3145.1881-3.0581.5641z" fill="url(#S)"/><path d="m25.0791 22.1797v14.3591h3.8541v-5.8672h5.3305v-1.6757c-.2821-.3402-.5209-.7572-.6925-1.2233h-4.638v-2.5075h4.4398c.254-1.2725 1.0305-2.3546 2.0455-3.0854z" fill="url(#T)"/><path d="m6.57905 78.4902c1.57404 0 2.59232-.7556 3.0552-2.2667l2.23945 1.0383c-.3125 1.0726-.9258 1.9148-1.84 2.5261-.91445.6114-2.04849.9171-3.40253.9171-1.29616 0-2.4477-.3115-3.45444-.9344-1.00692-.6113-1.78807-1.4765-2.343458-2.5954-.555578-1.119-.833272-2.4109-.833272-3.876 0-1.4534.277694-2.7398.833272-3.8586.555388-1.1191 1.336538-1.99 2.343458-2.6129 1.00674-.6229 2.15828-.9342 3.45444-.9342 1.35404 0 2.48808.3055 3.40253.9169.9142.6 1.5275 1.4361 1.84 2.509l-2.23945 1.0556c-.46288-1.5111-1.48116-2.2667-3.0552-2.2667-.75212 0-1.42346.219-2.01366.6575-.57865.4267-1.03 1.0323-1.35404 1.8167s-.48596 1.69-.48596 2.7167c0 1.0266.16192 1.9322.48596 2.7166s.77539 1.3958 1.35404 1.8342c.5902.4268 1.26154.6402 2.01366.6402zm14.05155 1.9725c-.0694-.4036-.1098-.9284-.1215-1.5746-.7985 1.2114-2.031 1.8169-3.6975 1.8169-1.1341 0-2.0252-.3404-2.6733-1.0209-.6481-.6806-.9721-1.6323-.9721-2.855v-7.0079h2.5171v6.5927c0 1.4534.6887 2.1802 2.0658 2.1802.7754 0 1.3886-.2539 1.84-.7614.4513-.5192.6771-1.2229.6771-2.111v-5.9005h2.5169v8.2019c0 .9919.0291 1.8052.0869 2.4396zm14.4825-5.3121c0 1.0844-.2025 2.0477-.6075 2.8898-.405.8419-.9548 1.4939-1.649 1.9552-.6944.4729-1.4583.7094-2.2915.7094-.7522 0-1.4235-.1557-2.0137-.4671-.5902-.3-1.0819-.7383-1.4754-1.3152-.0117.6231-.0521 1.1364-.1215 1.54h-2.2395c.0579-.6344.087-1.4477.087-2.4396v-12.5104h2.5169v5.5371c.3819-.4731.8508-.8363 1.4062-1.0902.5555-.2538 1.1688-.3805 1.84-.3805.8332 0 1.5971.2363 2.2915.7094.6942.4613 1.244 1.1188 1.649 1.9725.405.8421.6075 1.8054.6075 2.8896zm-2.5344 0c0-1.0842-.2429-1.9494-.729-2.5954-.486-.6575-1.1225-.9863-1.9094-.9863-.787 0-1.4235.3288-1.9097.9863-.4744.6575-.7117 1.5227-.7117 2.5954 0 1.0729.2373 1.9381.7117 2.5956.4862.6459 1.1227.969 1.9097.969.7869 0 1.4234-.3231 1.9094-.969.4861-.6575.729-1.5227.729-2.5956zm13.4685.6748h-7.2735c.081.946.3587 1.6669.8333 2.1631.486.4844 1.1167.7267 1.8921.7267.6017 0 1.0762-.1269 1.4235-.3808.3586-.2653.6365-.6401.8333-1.1246l2.083.9862c-.7059 1.6727-2.1409 2.509-4.3052 2.509-1.0761 0-2.0136-.2365-2.8121-.7094-.7985-.4613-1.4119-1.1133-1.84-1.9552-.4283-.8421-.6423-1.8054-.6423-2.8898 0-1.0842.214-2.0475.6423-2.8896.4398-.8421 1.0358-1.4996 1.7879-1.9725.7523-.4731 1.5971-.7094 2.5344-.7094.9954 0 1.8575.2305 2.5866.6921.7407.4613 1.3077 1.113 1.7011 1.9552.3935.8305.5904 1.8054.5904 2.9242 0 .2423-.0117.4673-.0348.6748zm-7.2214-1.7994h4.687c-.0925-.8075-.3356-1.4189-.7291-1.8342-.3934-.4152-.9259-.6229-1.5971-.6229-.625 0-1.1457.2134-1.5623.6402-.4165.4269-.6827 1.0325-.7985 1.8169zm11.6322-5.6237v3.5991h5.5383v2.284h-5.5383v6.1773h-2.7254v-14.3444h8.6617v2.284zm7.4806 1.6439c0-.8075.198-1.5227.5904-2.1456.4057-.6344.9846-1.1248 1.7365-1.4708.7519-.3577 1.6365-.5363 2.6558-.5363 1.2961 0 2.3615.2594 3.1942.7784.8327.5077 1.4058 1.2518 1.7192 2.2323l-2.1711 1.0035c-.2192-.5652-.5442-.9919-.9712-1.2804-.4173-.2884-.9846-.4327-1.7019-.4327-.775 0-1.3596.15-1.7538.45-.3808.2883-.5712.7152-.5712 1.2804 0 .5421.2019.9575.6077 1.246.4038.2882 1.1154.5248 2.1346.7094 1.6308.2883 2.8173.7902 3.5577 1.5054s1.1116 1.7071 1.1116 2.9762c0 .8305-.225 1.5803-.677 2.2494-.4404.6575-1.0654 1.1707-1.875 1.54-.7981.369-1.7077.5536-2.725.5536-1.4115 0-2.5865-.2884-3.525-.8652-.9365-.5767-1.5615-1.3957-1.8731-2.4571l2.1866-1.0207c.2077.669.5846 1.1765 1.1288 1.5226.5423.346 1.2327.5191 2.0654.5191s1.4635-.1673 1.8923-.5017c.4385-.3462.6596-.8364.6596-1.4708 0-.6-.2326-1.0729-.6942-1.4191-.4519-.3459-1.2385-.6229-2.3615-.8304-1.4808-.2653-2.575-.7382-3.2808-1.419-.7058-.6806-1.0596-1.586-1.0596-2.7165z" fill="#212121"/></svg>