<svg enable-background="new 0 0 500 409.5" viewBox="-4.32 -4.32 510.64 416.64" xmlns="http://www.w3.org/2000/svg" xmlns:xlink="http://www.w3.org/1999/xlink"><linearGradient id="a"><stop offset="0" stop-color="#2beda7"/><stop offset="1" stop-color="#018afd"/></linearGradient><linearGradient id="b" gradientUnits="userSpaceOnUse" x1="371.964" x2="371.964" xlink:href="#a" y1="50.626" y2="157.724"/><linearGradient id="c" gradientUnits="userSpaceOnUse" x1="132.783" x2="132.783" xlink:href="#a" y1="50.628" y2="157.73"/><linearGradient id="d" gradientUnits="userSpaceOnUse" x1="371.964" x2="371.964" xlink:href="#a" y1="98.035" y2="196.975"/><linearGradient id="e" gradientUnits="userSpaceOnUse" x1="332.694" x2="332.694" xlink:href="#a" y1="120.707" y2="219.647"/><linearGradient id="f" gradientUnits="userSpaceOnUse" x1="293.424" x2="293.424" xlink:href="#a" y1="143.378" y2="244.376"/><linearGradient id="g" gradientUnits="userSpaceOnUse" x1="211.331" x2="211.331" xlink:href="#a" y1="143.378" y2="244.375"/><linearGradient id="h" gradientUnits="userSpaceOnUse" x1="172.062" x2="172.062" xlink:href="#a" y1="120.707" y2="219.647"/><linearGradient id="i" gradientUnits="userSpaceOnUse" x1="132.792" x2="132.792" xlink:href="#a" y1="98.034" y2="196.974"/><path d="m5.6 396.1v-67.1c0-3.2 2.7-5.9 6-5.9 3.2 0 5.8 2.7 5.8 5.9v63h31c2.8 0 5.3 2.2 5.3 5.1s-2.5 5.3-5.3 5.3h-36.4c-4.2 0-6.4-2.3-6.4-6.3zm66.4.9v-68c0-3.2 2.7-5.9 6-5.9 3.2 0 5.8 2.7 5.8 5.9v68c0 3.2-2.6 5.9-5.8 5.9s-6-2.7-6-5.9zm88.9 2.9-41.8-57.9v55c0 3.2-2.6 5.9-5.8 5.9-3.3 0-6-2.7-6-5.9v-66.2c0-4.2 3.4-7.8 7.8-7.8 2.5 0 4.8 1.2 6.3 3.2l40.9 56.4v-53.6c0-3.2 2.6-5.9 5.8-5.9 3.3 0 6 2.7 6 5.9v66.7c0 4-3.3 7.3-7.3 7.3-2.5-.1-4.6-1.1-5.9-3.1zm95.5-2.6c0 3.1-2.4 5.7-5.4 5.7-1.5 0-2.9-.4-4.1-1.7l-30-32.9-7.6 8v20.6c0 3.2-2.6 5.9-5.9 5.9-3.2 0-5.9-2.7-5.9-5.9v-68c0-3.2 2.7-5.9 5.9-5.9 3.3 0 5.9 2.7 5.9 5.9v34l34.7-38.1c1.2-1.3 2.6-1.8 4.1-1.8 2.9 0 5.5 2.4 5.5 5.4 0 1.4-.4 2.7-1.5 3.8l-27.4 29.1 30.1 32.1c1 1.1 1.6 2.5 1.6 3.8zm19.1-1.2v-66.2c0-4 2.2-6.3 6.4-6.3h41.8c2.8 0 5.3 2.4 5.3 5.3 0 2.8-2.5 5.1-5.3 5.1h-36.3v23h35.5c2.8 0 5.3 2.2 5.3 5.1s-2.5 5.3-5.3 5.3h-35.5v24.6h36.3c2.8 0 5.3 2.2 5.3 5.1s-2.5 5.3-5.3 5.3h-41.8c-4.2 0-6.4-2.3-6.4-6.3zm132.2 1.4c0 2.5-2.2 5.4-5.5 5.4-2 0-3.9-.9-5-2.5l-19.7-28.4h-16.6v25c0 3.2-2.6 5.9-5.8 5.9-3.3 0-6-2.7-6-5.9v-67.1c0-4 2.2-6.3 6.4-6.3h26.8c15 0 25.3 9.7 25.3 24.2 0 13.2-8.3 20.8-17.6 22.7l16.6 23.4c.6.8 1.1 1.7 1.1 3.6zm-46.9-35.8h19.8c8.5 0 14.6-5.5 14.6-13.8s-6.1-13.8-14.6-13.8h-19.8zm67 34.4v-66.2c0-4 2.2-6.3 6.4-6.3h21.7c24.5 0 40.8 16.8 40.8 39.4 0 22.8-16.3 39.3-40.8 39.3h-21.7c-4.1.1-6.4-2.2-6.4-6.2zm28.1-4.1c18.2 0 28.7-13 28.7-28.9 0-16.2-10.2-29-28.7-29h-16.3v57.9z"/><path d="m363 50.6v96.8l17.9 10.3v-96.8z" fill="url(#b)"/><path d="m123.9 157.7 17.8-10.3v-96.8l-17.8 10.3z" fill="url(#c)"/><path d="m211.3 156.8 82.1 47.4v-20.6l-76.8-44.4-5.3 3zm86.8 74.8-86.8-50.1v20.6l23.2 13.4-27.9 16.1c-1.9 1.1-1.9 3.8 0 4.9l13.6 7.9 32.1-18.5 32.1 18.5 13.6-7.9c2-1.1 2-3.8.1-4.9z" fill="#2beda7"/><path d="m363 108.3v85.8c0 2.2 2.3 3.5 4.2 2.4l12.2-7.1c.9-.5 1.4-1.4 1.4-2.4v-89z" fill="url(#d)"/><path d="m328 219.3 11.5-6.6c1.3-.8 2.1-2.1 2.1-3.7v-88.3l-17.8 10.3v85.8c0 2.2 2.3 3.5 4.2 2.5z" fill="url(#e)"/><path d="m284.5 244.4 16.4-9.5c.9-.5 1.4-1.4 1.4-2.4v-89.1l-17.9 10.3v90.7z" fill="url(#f)"/><path d="m203.8 234.9 16.4 9.5v-90.7l-17.8-10.3v89.1c0 1 .5 1.9 1.4 2.4z" fill="url(#g)"/><path d="m165.2 212.6 11.5 6.6c1.9 1.1 4.2-.3 4.2-2.4v-85.8l-17.8-10.3v88.3c0 1.5.8 2.9 2.1 3.6z" fill="url(#h)"/><path d="m126 189.9 11.5 6.6c1.9 1.1 4.2-.3 4.2-2.4v-85.8l-17.8-10.3v88.3c0 1.5.8 2.9 2.1 3.6z" fill="url(#i)"/><path d="m380.9 60.9-17.9-10.3-32.1 18.5-21.4-12.4 27.9-16.1c1.9-1.1 1.9-3.8 0-4.9l-11.5-6.6c-1.3-.8-2.9-.8-4.2 0l-30 17.3-21.4-12.4 27.8-16c1.9-1.1 1.9-3.8 0-4.9l-11.5-6.6c-1.3-.8-2.9-.8-4.2 0l-30 17.3-30-17.3c-1.3-.8-2.9-.8-4.2 0l-11.5 6.6c-1.9 1.1-1.9 3.8 0 4.9l156.3 90.3 17.9-10.3-32.1-18.6zm-202-31.7-11.5 6.6c-1.9 1.1-1.9 3.8 0 4.9l156.4 90.3 17.9-10.3-158.6-91.5c-1.3-.8-2.9-.8-4.2 0zm-55 31.7 32.1 18.6-32.1 18.5 17.8 10.3 32.2-18.5 21.4 12.4-32.2 18.5 17.9 10.3 32.1-18.5 21.4 12.3-32.1 18.6 17.8 10.3 32.2-18.6 32.1 18.6 17.8-10.3-160.6-92.8z" fill="#2beda7"/></svg>