<svg fill="none" height="80" viewBox="0 0 81 80" width="81" xmlns="http://www.w3.org/2000/svg"><path d="m10.6981 64.4031c-.4365.4657-.91694.9898-1.45546 1.5719-.53852.5822-1.10622 1.1646-1.70287 1.7757-.58217.5969-1.16458 1.1936-1.74675 1.776-.58218.5824-1.13517 1.1204-1.64475 1.63.66588.4696 1.29815.9852 1.89218 1.543.67897.6206 1.3298 1.2714 1.95054 1.9503.64029.6986 1.23717 1.3973 1.80488 2.1251.51693.6529.98403 1.3438 1.39733 2.0668h-2.3726c-.43754-.6853-.91886-1.3417-1.44096-1.965-.54175-.658-1.11494-1.2895-1.71758-1.8922-.5826-.5886-1.19474-1.1472-1.83405-1.6737-.56736-.4819-1.17066-.9198-1.80464-1.31v6.8409h-2.02337v-14.4388h2.02337v6.3752c.48016-.4512 1.01868-.9753 1.60109-1.5574.5824-.5822 1.16434-1.1499 1.73204-1.7321s1.10623-1.1351 1.61534-1.6737c.50911-.5385.93185-1.0044 1.28106-1.412zm10.509 14.1185c-.4513.1167-1.0334.233-1.7613.3495-.838.1286-1.6848.1918-2.5327.1891-.7157.0178-1.4279-.1058-2.0957-.3637-.5415-.2138-1.0146-.5711-1.3684-1.0334-.3593-.4635-.6127-1.0002-.7423-1.5722-.1571-.6579-.2352-1.3322-.2327-2.0086v-6.0694h1.9358v5.662c0 1.3245.2038 2.2559.6259 2.8383.422.5675 1.1207.8586 2.0959.8586.2038 0 .4221 0 .6405-.0145.2185-.0145.4366-.0292.6256-.0584.1893-.0144.3787-.0434.5243-.0581.1189-.0102.2361-.0345.3492-.0726v-9.1553h1.9359zm5.138-10.0283c.3377-.2041.6995-.3654 1.077-.4804.535-.1766 1.0963-.2603 1.6595-.2475.7117-.0149 1.4178.1293 2.0667.4221.5934.2635 1.1167.6623 1.5283 1.1643.4358.525.7579 1.1346.9461 1.7904.2223.7411.3303 1.5117.3203 2.2853.013.802-.1151 1.6-.3784 2.3576-.2343.6625-.6064 1.2678-1.0918 1.776-.4799.4922-1.0609.8746-1.7028 1.1207-.7148.2747-1.4761.4082-2.2417.3931-.8045.0094-1.6083-.0539-2.4015-.1891-.6986-.1312-1.2663-.2474-1.7031-.3786v-15.4869l1.9358-.3348zm0 8.6602c.2688.0674.5408.1208.8151.1601.4394.0537.8819.078 1.3245.0729.4672.0194.9331-.0629 1.3654-.2414.4323-.1784.8206-.4487 1.1381-.792.6258-.684.9314-1.6595.9314-2.9256-.002-.5231-.0556-1.0448-.1599-1.5574-.0997-.4518-.2823-.8812-.5385-1.2664-.2479-.3507-.5777-.6355-.9608-.8296-.4436-.2162-.9331-.3212-1.4263-.3058-.4985-.0027-.9928.0913-1.4556.2766-.3689.1311-.7133.323-1.019.5677zm9.6065-3.7115c-.0188-.8525.1194-1.7011.4076-2.5036.2486-.6587.6245-1.2621 1.1062-1.7757.4463-.464.9874-.8265 1.5864-1.0625.5836-.2318 1.2061-.3504 1.8341-.3495 1.4554 0 2.5761.4513 3.3476 1.3684.7715.9024 1.1643 2.2997 1.1643 4.148v.6842h-7.423c.0873 1.1209.4075 1.9795.9752 2.5619s1.4555.873 2.6635.873c.5776.0149 1.1547-.0437 1.7175-.1743.3589-.0857.7096-.2027 1.0481-.3495l.2764 1.6156c-.3973.1745-.812.3063-1.2372.3931-.659.1476-1.3333.216-2.0086.2038-.8342.0126-1.6635-.1306-2.4452-.4221-.6455-.2588-1.2231-.6621-1.6884-1.179-.4515-.5154-.7889-1.1206-.9897-1.7757-.2411-.7271-.3543-1.4904-.3348-2.2561zm7.4231-1.0626c.045-.7731-.1873-1.5369-.655-2.1541-.2217-.2779-.5061-.4993-.8299-.646-.3238-.1468-.6778-.2147-1.0329-.1983-.4084-.0087-.813.0812-1.1793.2621-.3342.1602-.6277.3941-.8585.684-.2371.2869-.4242.6117-.5532.9608-.1316.3567-.2196.7281-.262 1.106zm16.4621-7.9763c-.524 1.5283-1.0334 2.9403-1.4993 4.2356-.4802 1.2955-.9461 2.5327-1.4118 3.6971-.4512 1.1643-.9169 2.2852-1.3681 3.3476-.4512 1.0623-.9171 2.1251-1.3828 3.1585h-1.8922c-.4657-1.0481-.9314-2.096-1.3829-3.1583-.4514-1.0623-.9024-2.1835-1.3681-3.3478-.4657-1.1644-.9461-2.4016-1.4262-3.6971-.4802-1.2955-.9898-2.7073-1.4994-4.2356h2.227c.7423 2.198 1.4846 4.3084 2.2124 6.3316.7278 2.0231 1.4701 3.93 2.2269 5.7057.7568-1.7612 1.4991-3.6534 2.2269-5.691.7279-2.0376 1.4557-4.1483 2.1833-6.3318zm2.7073 1.6448c-.3301.0037-.6488-.1216-.8879-.3492-.2341-.2538-.364-.5864-.364-.9317 0-.3452.1299-.6778.364-.9316.2411-.2245.5584-.3493.8878-.3493.3295 0 .6467.1248.8879.3493.234.2538.364.5864.364.9316 0 .3453-.13.6779-.364.9317-.1157.1165-.2543.2078-.4072.2679-.1528.0601-.3165.0878-.4806.0813zm.9751 12.7795h-1.9359v-10.8148h1.9359zm7.2048-11.0475c.1601 0 .3641.0147.5677.0292.2152.0148.4292.0439.6405.0873.2038.0292.3929.0728.5677.102l.3929.0873-.3348 1.6884c-.685-.2255-1.4043-.329-2.1251-.3058-.362.0028-.7228.0419-1.0771.1167-.3492.0724-.5821.1307-.6986.1599v9.097h-1.9358v-10.3778c.5573-.1908 1.1262-.3463 1.7031-.4657.7579-.1448 1.5278-.2179 2.2995-.2185zm5.7349.233h4.1046v1.6302h-4.1046v4.9924c-.0149.4502.0291.9004.1309 1.3392.0592.3024.1888.5866.3784.8296.1596.2025.3785.3501.6261.422.2828.0872.5771.1313.873.131.4793.0193.958-.0498 1.4122-.2038.3493-.131.5967-.2183.7423-.2766l.3782 1.6013c-.3315.1428-.6717.2643-1.0187.3637-.5383.1592-1.0983.2329-1.6594.2185-.6182.0185-1.2346-.0752-1.8194-.2766-.4528-.1718-.8503-.4637-1.1499-.8443-.3084-.4071-.5177-.8805-.6113-1.3826-.1309-.6269-.1894-1.2667-.1746-1.9069v-9.6647l1.9358-.3347z" fill="#000"/><path d="m28.5643 31.9417-7.6798-15.6795h12.9595l5.1838 9.5676-1.7918 3.296-.0642.032-5.2475-9.7277h-5.7281l9.0239 19.1354 1.2799-2.4321c.1994-.3777.5407-.6606.9488-.7866.408-.1261.8494-.0848 1.2271.1146.3776.1995.6606.5408.7866.9488.126.4081.0848.8495-.1147 1.2271l-2.3359 4.3839-1.792 3.328 5.2479 10.5276 4.9599-9.7916c-.2535.3394-.6298.5662-1.0483.632-.4186.0658-.8462-.0347-1.1917-.28-.3056-.2174-.5224-.5379-.6106-.9024-.0882-.3646-.0418-.7487.1307-1.0818l1.152-2.3039c.1038-.182.2428-.3414.4089-.4691.166-.1276.3559-.221.5584-.2746s.4136-.0664.6211-.0375c.2075.0288.4071.0986.5874.2053.3254.1933.5736.4936.702.8497.1285.3561.1292.7457.002 1.1022l2.3359-4.6079c-.2393.3184-.5887.5362-.9799.6108-.3912.0747-.7963.0009-1.136-.2069-.3398-.2079-.5899-.5348-.7016-.9172-.1116-.3823-.0769-.7925.0976-1.1505l2.3039-4.5757c.1946-.3713.5274-.6512.9267-.7791.3992-.1279.8327-.0936 1.2068.0956.3741.1891.6588.5179.7924.9152.1337.3973.1057.8313-.078 1.2081l-.5759 1.12 2.9438-5.8239c-.2284.3307-.5732.5631-.9654.6508s-.8031.0242-1.1506-.1779c-.3475-.202-.6059-.5276-.7238-.9119-.1179-.3842-.0865-.7988.0879-1.1609l2.272-4.5759c.1932-.3738.5262-.6561.9265-.7856.4004-.1294.8357-.0955 1.2112.0944.3754.1899.6607.5204.7937.9196.133.3991.103.8347-.0836 1.2118l-1.2799 2.5918 3.6478-7.1999c-.1021.1836-.2396.3452-.4046.4753-.1649.1301-.354.2263-.5564.2828-.2023.0566-.4139.0724-.6224.0467-.2085-.0258-.4099-.0926-.5924-.1967-.194-.1134-.3624-.2658-.4946-.4476-.1322-.1817-.2252-.3889-.2734-.6084h-1.9199c-.4243 0-.8313-.1686-1.1313-.4686-.3001-.3001-.4687-.707-.4687-1.1314 0-.4243.1686-.8312.4687-1.1313.3-.3.707-.4686 1.1313-.4686h6.6877l-1.5999 3.1679 3.9356-7.7755c-.1198-.1161-.2481-.2231-.3837-.3203-.2241-.1599-.4482-.3198-.6721-.448l-19.7112-9.43938-.1921-.09594c-.1321-.06157-.2721-.10461-.416-.12792-.1249-.03689-.2539-.05844-.384-.06419-.2015-.02659-.4047-.03728-.6078-.03198-.4065-.01056-.8131.01091-1.2162.06419-.1279.03198-.2559.03198-.4158.06396l-19.7114 9.50336c-.2417.1078-.4677.2477-.6718.416l-.0323.032zm16.0315-10.3998 2.8158-5.3759h1.0239c.2578-.0008.5114.0654.736.1922.3753.2017.6561.543.7819.9501.1257.4072.0863.8474-.1099 1.2257l-2.4319 4.5119c-.0965.1888-.2297.3565-.3918.4932-.162.1367-.3497.2398-.552.3033-.2023.0634-.4153.0859-.6264.0661s-.4162-.0814-.6032-.1813-.3523-.2361-.4861-.4005c-.1339-.1645-.2336-.354-.2934-.5574-.0598-.2035-.0785-.4168-.055-.6275.0236-.2107.0889-.4147.1921-.5999zm-4.928 9.3437 2.3999-4.5119c.2018-.3753.5432-.6562.9504-.7819.4071-.1257.8474-.0862 1.2257.1101.1884.0972.3556.231.4917.3936.1361.1625.2384.3506.301.5532.0625.2026.0841.4157.0633.6267s-.0834.4157-.1842.6023l-2.3997 4.5119c-.2017.3754-.5431.6563-.9502.782-.4072.1258-.8475.0863-1.2258-.1099-.1877-.0981-.3541-.2323-.4897-.395-.1355-.1627-.2375-.3506-.3-.5529s-.0843-.415-.0642-.6258c.0202-.2108.0819-.4156.1816-.6024z" fill="#00aab2"/><path d="m15.8601 13.03-4.832 21.2475v.0639c-.1227.7051-.1039 1.4276.0555 2.1253.1593.6978.456 1.3568.8727 1.9387l.0319.0318.032.0319 13.5996 16.8957.032.0639.064.032c1.017 1.0199 2.3709 1.6342 3.8081 1.7278h21.7914c1.6958 0 3.1039-.672 3.9998-1.8557l13.6316-16.8637.0319-.0319.032-.032c.8307-1.157 1.1858-2.5887.9921-3.9998l-.0322-.1279-4.9277-21.1513v-.0962c-.4472-1.359-1.4133-2.4862-2.688-3.13589h-.0639l-19.7115-9.439647c-.6786-.322275-1.425-.4759457-2.1758-.44795103-.6441-.02635507-1.2891.02735523-1.92.15989903l-.1279.032213-.1281.06396-19.7113 9.503616c-.6614.3067-1.2443.76-1.7045 1.3255s-.7855 1.2284-.9514 1.9383zm3.2319-2.1118 19.6795-9.50364c.1249-.03681.2538-.05829.384-.06396.4137-.05328.8309-.07474 1.2479-.06419.2031-.00531.4064.00538.6078.03198.1282.03221.2881.03221.416.06419.1428.0279.2822.07078.416.12792l.1921.09594 19.7112 9.43986c.2405.1229.466.2731.6721.4477.1357.0971.264.2041.384.3201.3613.3479.6543.7604.8639 1.2161.057.1227.0999.2515.1281.3838l4.9277 21.1513c.064.5241.0314 1.0555-.0959 1.5679 0 .0642-.032.1282-.032.1921-.1338.4916-.3502.9569-.6401 1.3759l-3.4559 4.2881-10.1756 12.5755c-.26.3467-.5861.6384-.9596.8581s-.7869.3631-1.2162.4218c-.2652.0372-.5323.0586-.8.064h-21.7593c-.128 0-.2881-.032-.416-.032-.1846-.0274-.3665-.0702-.5439-.1279-.7665-.2276-1.4683-.6333-2.0481-1.184l-4.5437-5.632-9.0557-11.2636c-.3939-.5609-.6464-1.2086-.736-1.888-.0265-.1262-.0372-.2552-.032-.384-.0105-.2788.0109-.558.064-.8319l4.8637-21.2472c.1908-.7868.6419-1.486 1.2802-1.984.1991-.1751.4262-.3157.6718-.4159z" fill="#fff"/><path d="m40.4674 55.9087-5.2475-10.5276-.0642.0959-6.5916-13.5354-10.2398-20.5754c-.6191.4903-1.0489 1.1801-1.216 1.9519l-4.832 21.2473c-.0529.2739-.0743.5531-.0637.8319-.0041.1395.0066.279.032.4162.101.6764.3525 1.3215.736 1.8877l9.0874 11.2637 4.5442 5.5678c.5643.5544 1.2567.9611 2.0159 1.1839.1764.0614.3586.1043.5439.1282.1369.0265.2765.0372.4159.032h10.8797z" fill="#00797f"/><path d="m58.6423 20.0059-3.6478 7.1999-.9921 1.984c-.0246.0573-.0568.1111-.0957.1599l-2.944 5.7918-1.7281 3.4559c-.0319.064-.0957.1599-.1279.2241l-2.3359 4.6397c0 .0319 0 .0319-.032.0639l-1.152 2.304c-.0319.0639-.0959.1601-.1279.2241l-4.9599 9.7916h10.8475c.2678-.0054.535-.0267.8002-.0639.8645-.1265 1.6453-.5859 2.1758-1.2802l10.1756-12.5755 3.456-4.2879c.2956-.4156.5126-.8819.64-1.3758.0261-.0605.0371-.1264.032-.1921.1283-.5123.1609-1.0439.0959-1.568l-4.8957-21.1192c-.032-.128-.0961-.2559-.1281-.384-.2096-.4557-.5025-.8681-.8637-1.216l-3.9361 7.7438z" fill="#3accc5"/><path d="m40.3079 33.0294c.1868.0997.3915.1614.6022.1816.2108.0202.4234-.0016.6257-.0641.2023-.0624.3902-.1643.5529-.2998s.297-.3018.395-.4895l2.3999-4.5119c.1929-.377.2295-.8148.1019-1.2186s-.4091-.7411-.7836-.9388c-.3744-.1978-.8117-.2401-1.2171-.1178s-.7464.3993-.949.7712l-2.3999 4.5119c-.1886.3797-.224.8173-.0989 1.2223s.4011.7464.7709.9535zm6.4317 10.5277c0-.032 0-.032.032-.064.0775-.195.1149-.4036.1099-.6134s-.0521-.4165-.1388-.6076c-.0866-.1912-.2108-.3629-.3653-.505-.1544-.142-.336-.2515-.5337-.3218-.3558-.1347-.7481-.1378-1.106-.0087s-.6579.3819-.8459.7127l-1.152 2.3039c-.0928.1891-.1473.3945-.1606.6047-.0132.2102.0152.4209.0836.62.0684.1992.1754.3829.3149.5406s.3088.2864.4981.3785c.379.183.8141.2119 1.214.0806.3998-.1313.7331-.4126.9298-.7846zm-11.5195 1.824 1.7918-3.3278 2.3359-4.3838c.0988-.187.1598-.3916.1795-.6021.0197-.2106-.0023-.4229-.0647-.625s-.1639-.3899-.2989-.5527-.3007-.2974-.4877-.3962-.3916-.1597-.6021-.1794c-.2106-.0197-.4229.0023-.625.0646-.2021.0624-.3899.164-.5527.299-.1628.1349-.2974.3006-.3962.4876l-1.2799 2.4321-9.0237-19.1673h5.7277l5.248 9.7277.0639-.0322 1.7601-3.2958-5.184-9.5996h-12.9596l7.6799 15.6795 6.6555 13.5354zm23.6471-25.7909 1.5999-3.1681h-6.6877c-.4243 0-.8313.1686-1.1313.4686-.3001.3-.4686.707-.4686 1.1313s.1685.8313.4686 1.1313c.3.3001.707.4686 1.1313.4686h1.9199c.0941.4155.349.7767.7088 1.0047.3599.2279.7954.304 1.2112.2115.2195-.0481.4266-.1412.6083-.2734s.3341-.3006.4475-.4946l.0322-.0322zm-3.8719 7.6476 1.2799-2.592c.0993-.186.1598-.3902.178-.6003.0182-.21-.0063-.4216-.072-.6219-.0658-.2003-.1715-.3852-.3106-.5436-.1392-.1584-.309-.287-.4992-.378-.1868-.0956-.3906-.1532-.5998-.1696-.2092-.0163-.4196.009-.619.0744-.1993.0655-.3837.1698-.5425.3069-.1589.1371-.2889.3044-.3827.4921v.032l-2.272 4.5759c-.0928.189-.1474.3945-.1606.6047-.0133.2102.0151.4209.0835.6201s.1754.3829.3149.5407c.1396.1577.3089.2864.4982.3785.379.1831.8142.212 1.2141.0807s.7332-.4126.93-.7847zm-4.0318 7.9677.5759-1.12c.185-.377.2139-.8117.0805-1.2098s-.4183-.7277-.793-.9171c-.3747-.1895-.809-.2237-1.2087-.0951s-.7327.4095-.9266.7819l-2.272 4.576c-.0928.189-.1474.3945-.1607.6047-.0132.2102.0152.4209.0836.6201.0683.1992.1754.3829.3149.5406.1395.1578.3088.2864.4982.3786.379.183.8141.2118 1.214.0805.3998-.1313.7331-.4125.9298-.7845zm-5.6959-11.4876c.1843.0997.3867.1614.5952.1814.2085.0201.419-.0018.6189-.0645s.3852-.1648.5449-.3004c.1598-.1355.2907-.3017.3851-.4887l2.3996-4.5118c.0997-.1867.1614-.3914.1816-.6022.0202-.2107-.0016-.4234-.0641-.6257-.0624-.2023-.1643-.3902-.2998-.5529s-.3018-.2969-.4895-.395c-.2245-.1267-.4781-.193-.736-.1921h-.9921l-2.8158 5.3759c-.1863.3801-.2205.817-.0955 1.2214.1249.4044.3995.7459.7678.9546z" fill="#fff"/></svg>