<svg enable-background="new 0 0 263.1 159.1" viewBox="0 0 263.1 159.1" xmlns="http://www.w3.org/2000/svg"><path d="m12.9 151.5c.7 0 1.3-.1 2-.4.6-.3 1.1-.7 1.5-1.2l1.9 1.9c-.6.7-1.4 1.4-2.3 1.8s-1.9.6-2.9.6c-.9 0-1.8-.1-2.6-.4s-1.6-.8-2.3-1.4c-.6-.6-1.1-1.3-1.5-2.1-.3-.8-.5-1.6-.5-2.5s.1-1.7.5-2.5c.3-.8.8-1.5 1.5-2.1.6-.6 1.4-1.1 2.2-1.4s1.7-.5 2.6-.5c1 0 2 .2 2.9.6s1.7 1 2.4 1.8l-1.8 2c-.4-.5-.9-1-1.5-1.2-.6-.3-1.3-.4-1.9-.4-1 0-2 .4-2.8 1.1-.4.4-.7.8-.9 1.3s-.3 1-.3 1.5.1 1 .2 1.5c.2.5.5.9.8 1.3s.7.6 1.2.8c.6-.1 1.1-.1 1.6-.1zm18.1.8c-1.3 1.2-3 1.9-4.8 1.9-.9 0-1.8-.1-2.6-.5-.8-.3-1.6-.8-2.2-1.4-1.2-1.2-1.9-2.9-1.9-4.6s.7-3.4 1.9-4.6c1.3-1.2 3-1.9 4.8-1.9.9 0 1.8.1 2.6.5.8.3 1.6.8 2.2 1.4 1.2 1.2 1.9 2.9 1.9 4.6s-.7 3.3-1.9 4.6zm-.9-4.6c0-1.1-.4-2.1-1.1-2.9-.3-.4-.8-.7-1.2-.9-.5-.2-1-.3-1.5-.3s-1 .1-1.5.3-.9.5-1.2.9c-.4.4-.7.8-.8 1.3s-.3 1-.2 1.5c0 1.1.4 2.1 1.1 2.9.3.4.8.7 1.2.9.5.2 1 .3 1.5.3s1-.1 1.5-.3.9-.5 1.2-.9c.6-.8 1-1.8 1-2.8zm16.9-1.6-3.5 6.9h-1.7l-3.5-6.9v7.9h-2.9v-12.7h3.9l3.3 6.9 3.3-6.9h3.9v12.7h-2.8zm14.9-3.5c.5.4.9 1 1.1 1.6s.3 1.3.3 1.9c0 1.6-.5 2.7-1.4 3.4-.9.8-2.3 1.1-4.3 1.1h-1.6v3.5h-2.9v-12.6h4.6c1.9 0 3.3.3 4.2 1.1zm-2.1 4.9c.4-.5.6-1.1.5-1.7 0-.3 0-.6-.1-.9s-.3-.5-.6-.7c-.6-.3-1.4-.5-2.1-.5h-1.5v4.2h1.9c.3 0 .7 0 1-.1.4.1.7-.1.9-.3zm9.2 3.3c.2.3.5.5.9.7.3.2.7.2 1.1.2s.7-.1 1.1-.2c.3-.2.6-.4.9-.7.5-.7.8-1.6.7-2.4v-7h2.9v7c0 .8-.1 1.5-.3 2.3-.3.7-.7 1.4-1.2 2-1.1.9-2.5 1.4-4 1.4s-2.9-.6-3.9-1.5c-.5-.6-.9-1.2-1.2-2-.3-.7-.4-1.5-.3-2.3v-7h2.9v7c-.4.9-.1 1.7.4 2.5zm15.9-6.9v10.1h-2.9v-10.1h-3.6v-2.4h10.2v2.4zm5.8-2.4h2.9v12.6h-2.9zm15 0h2.9v12.6h-2.9l-6.1-7.9v7.9h-2.9v-12.6h2.7l6.4 8.1zm14.5 6.2h2.9v4.5c-.7.7-1.5 1.3-2.4 1.6-.9.4-1.9.5-2.9.5-1.8 0-3.5-.6-4.8-1.8-.6-.6-1.1-1.3-1.5-2.1s-.5-1.6-.5-2.5.1-1.7.5-2.5c.3-.8.8-1.5 1.4-2.1s1.4-1.1 2.2-1.4 1.7-.5 2.6-.5c1.8 0 3.5.6 4.8 1.8l-1.5 2.1c-.4-.5-1-.8-1.6-1-.5-.2-1-.3-1.6-.3-1 0-2 .4-2.8 1.1-.4.4-.7.8-.9 1.3s-.3 1-.3 1.6c0 1.1.4 2.1 1.1 2.9.3.3.7.6 1.2.8.4.2.9.3 1.4.3.9 0 1.7-.1 2.5-.5v-3.6c0-.2.2-.2.2-.2zm19.2-6.2v2.5h-6v2.7h5.7v2.5h-5.7v4.9h-2.9v-12.6zm13.3 10.8c-1.3 1.2-3 1.9-4.8 1.9-.9 0-1.8-.1-2.6-.5-.8-.3-1.6-.8-2.2-1.4-1.2-1.2-1.9-2.9-1.9-4.6s.7-3.4 1.9-4.6c1.3-1.2 3-1.9 4.8-1.9.9 0 1.8.1 2.6.5.8.3 1.6.8 2.2 1.4 1.2 1.2 1.9 2.9 1.9 4.6s-.6 3.3-1.9 4.6zm-1-4.6c0-1.1-.4-2.1-1.1-2.9-.3-.4-.8-.7-1.2-.9-.5-.2-1-.3-1.5-.3s-1 .1-1.5.3-.9.5-1.2.9c-.4.4-.7.8-.8 1.3-.2.5-.3 1-.2 1.5 0 1.1.4 2.1 1.1 2.9.3.4.8.7 1.2.9.5.2 1 .3 1.5.3s1-.1 1.5-.3.9-.5 1.2-.9c.4-.4.7-.8.8-1.3.2-.5.3-1 .2-1.5zm8.9 3.1c.2.3.5.5.9.7.3.2.7.2 1.1.2s.7-.1 1.1-.2c.3-.2.6-.4.9-.7.5-.7.8-1.6.7-2.4v-7h2.9v7c0 .8-.1 1.5-.3 2.3-.3.7-.7 1.4-1.2 2-1.1.9-2.5 1.4-4 1.4s-2.9-.6-3.9-1.5c-.5-.6-.9-1.2-1.2-2-.3-.7-.4-1.5-.3-2.3v-7h2.9v7c-.5.9-.2 1.8.4 2.5zm19.4-9.3h2.9v12.6h-2.9l-6.1-7.9v7.9h-2.9v-12.6h2.7l6.4 8.1zm15.9 1.6c.6.6 1.1 1.3 1.4 2.1s.5 1.6.4 2.5c0 .8-.1 1.7-.4 2.5s-.8 1.5-1.4 2.1c-1.2 1.1-3 1.7-5.5 1.7h-4.4v-12.6h4.6c2.4.1 4.2.6 5.3 1.7zm-2.1 7.5c.4-.4.7-.8.8-1.3.2-.5.3-1 .2-1.5 0-.5-.1-1.1-.2-1.5-.2-.5-.5-.9-.8-1.3-.4-.4-1-.6-1.5-.8-.6-.2-1.1-.2-1.7-.2h-1.6v7.6h1.9c1 0 2.1-.3 2.9-1zm15.3 3.4-1.2-2.7h-5.4l-1.2 2.7h-3.1l5.6-12.6h2.8l5.6 12.6zm-3.9-8.8-1.6 3.6h3.3zm13.1-1.3v10.1h-2.9v-10.1h-3.7v-2.4h10.2v2.4zm5.7-2.4h2.9v12.6h-2.9zm16.9 10.8c-1.3 1.2-3 1.9-4.8 1.9-.9 0-1.8-.1-2.6-.5-.8-.3-1.6-.8-2.2-1.4-1.2-1.2-1.9-2.9-1.9-4.6s.7-3.4 1.9-4.6c1.3-1.2 3-1.9 4.8-1.9.9 0 1.8.1 2.6.5.8.3 1.6.8 2.2 1.4 1.2 1.2 1.9 2.9 1.9 4.6s-.7 3.3-1.9 4.6zm-.9-4.6c0-1.1-.4-2.1-1.1-2.9-.3-.4-.8-.7-1.2-.9-.5-.2-1-.3-1.5-.3s-1 .1-1.5.3-.9.5-1.2.9c-.4.4-.7.8-.8 1.3-.2.5-.3 1-.2 1.5 0 1.1.4 2.1 1.1 2.9.3.4.8.7 1.2.9.5.2 1 .3 1.5.3s1-.1 1.5-.3.9-.5 1.2-.9c.6-.8 1-1.8 1-2.8zm14.3-6.2h2.9v12.6h-2.9l-6.1-7.9v7.9h-2.9v-12.6h2.7l6.4 8.1zm-237.2-13.7c1.2 0 2.4-.2 3.5-.8s2-1.3 2.8-2.2l3.4 3.4c-2.7 2.9-5.7 4.4-9.4 4.4-1.6.1-3.3-.2-4.8-.8s-2.9-1.4-4.1-2.5c-1.1-1.1-2-2.4-2.6-3.8s-.9-3-.8-4.5c0-1.6.2-3.1.9-4.6.6-1.5 1.5-2.8 2.7-3.9s2.7-2 4.3-2.6 3.3-.8 5-.7 3.4.5 4.9 1.2 2.9 1.8 4 3l-3.2 3.6c-.7-.9-1.6-1.7-2.7-2.2s-2.2-.8-3.4-.8c-1.9 0-3.7.6-5 1.8-.7.6-1.3 1.4-1.6 2.3-.4.9-.5 1.8-.5 2.8 0 .9.1 1.9.4 2.8s.9 1.7 1.5 2.4c1.3 1.1 2.9 1.7 4.7 1.7zm13.8 4.4v-22.8h5.1v18.3h10v4.5zm37.9-3.1c-2.4 2.2-5.5 3.4-8.7 3.4s-6.4-1.2-8.7-3.4c-1.2-1.1-2.1-2.4-2.7-3.8s-.9-3-.9-4.5c0-1.6.2-3.1.9-4.5.6-1.4 1.5-2.7 2.7-3.8 2.4-2.2 5.5-3.4 8.7-3.4s6.4 1.2 8.7 3.4c1.2 1.1 2.1 2.4 2.7 3.8s.9 3 .9 4.5c0 1.6-.2 3.1-.9 4.5-.6 1.4-1.5 2.7-2.7 3.8zm-1.8-8.4c0-1.9-.7-3.8-2-5.2-.6-.7-1.4-1.2-2.2-1.6-.9-.4-1.8-.6-2.7-.6s-1.9.2-2.7.6c-.9.4-1.6.9-2.2 1.6-1.3 1.4-2.1 3.3-2 5.2 0 1.9.7 3.8 2 5.2.6.7 1.4 1.2 2.2 1.6.9.4 1.8.6 2.7.6s1.9-.2 2.7-.6c.9-.4 1.6-.9 2.2-1.6.7-.7 1.2-1.5 1.6-2.4.3-.9.4-1.8.4-2.8zm16 5.7c.4.5 1 .9 1.6 1.2s1.3.4 2 .4 1.3-.1 1.9-.4 1.1-.7 1.5-1.2c.9-1.3 1.3-2.8 1.3-4.3v-12.6h5.2v12.7c0 3.3-.9 5.8-2.8 7.6-.9.9-2.1 1.6-3.3 2-1.2.5-2.5.7-3.9.6-1.3 0-2.6-.2-3.9-.6s-2.4-1.2-3.3-2c-1.9-1.8-2.8-4.3-2.8-7.6v-12.7h5.2v12.6c-.2 1.6.3 3.1 1.3 4.3zm36.7-13.9c2.2 2 3.4 4.8 3.4 8.3s-1.1 6.4-3.2 8.4c-2.1 2.1-5.5 3.1-9.9 3.1h-8.1v-22.8h8.3c4 0 7.3 1 9.5 3zm-3.8 13.5c1.3-1.2 1.9-2.9 1.9-5.1s-.6-4-1.9-5.1c-1.3-1.2-3.2-1.8-5.9-1.8h-2.9v13.9h3.3c2 0 3.9-.6 5.5-1.9zm36.8-16.5h5.2v22.8h-5.2l-11.2-14.3v14.3h-5.2v-22.8h4.9l11.5 14.6zm27.6 22.7-2.2-4.9h-9.8l-2.2 4.9h-5.6l10.1-22.8h5l10.1 22.8zm-7-15.9-2.9 6.6h5.8zm23.5-2.4v18.4h-5.2v-18.4h-6.6v-4.4h18.5v4.4zm10.3-4.4h5.2v22.8h-5.2zm19.6 14.4 6-14.5h5.7l-9.4 22.8h-4.4l-9.4-22.8h5.7zm31.2-14.4v4.5h-11.6v4.7h10.5v4.4h-10.5v4.8h12v4.6h-17.2v-22.8z"/><g fill="#0086ff"><path d="m98.7 58.9h-11.4v27h26.9v-11.7h-15.5z"/><path d="m156.5 59v15.2h-15.4v11.6h26.9v-27h-11.6z"/><path d="m87.3 32h11.6l-.1-.1v-15.2h15.4v-11.6h-26.9z"/><path d="m141.1 5.1v11.6h15.4v15.3h11.5v-27c0 .1-26.9.1-26.9.1z"/></g><path d="m139.6 32-15.4-15.4h16.9v-11.5h-27v11.6l15.4 15.3z" fill="#93eaff"/><path d="m125.7 58.9h-10.1l12.7 12.7 2.5 2.6h-16.8v11.6h27v-11.7l-7.7-7.6z" fill="#93eaff"/><path d="m156.5 32v16.8l-2.7-2.6-12.7-12.7v10.2l7.6 7.6 7.7 7.7h11.6v-27z" fill="#93eaff"/><path d="m114.1 47.3-15.2-15.3h-11.6v26.8h11.5v-16.7l15.4 15.4v-10.2z" fill="#93eaff"/></svg>