<svg fill="none" height="65" viewBox="0 0 87 65" width="87" xmlns="http://www.w3.org/2000/svg"><path d="m66.8958 35.5885c-.1604-.4105-.5019-.4864-.9228-.3565-.8481.2617-1.7126.4717-2.5549.7501-.0833.0425-.1754.0647-.2688.0648-.0935 0-.1856-.022-.269-.0645-.2214-.463-.5465-.8681-.9496-1.1834s-.8733-.5322-1.3737-.6338c-.1358-.1572-.2139-.3566-.2212-.5648-.2698-1.8399-.7217-3.648-1.3489-5.3973-.1022-.2056-.1223-.4428-.0562-.6628.394-.2723.7244-.6276.9684-1.0412.2441-.4137.3959-.8758.4449-1.3543.2405-.2492.5629-.4014.9069-.4282 1.7184-.3409 3.4073-.8089 5.0834-1.3202.4262-.13.7202-.3978.584-.8774-.1377-.4849-.5207-.5431-.9547-.413-.212.0635-.4244.1256-.6361.1903-1.5591.4759-3.1427.8553-4.7319 1.2126-.0847.0315-.1752.0439-.2651.036-.09-.0078-.1771-.0356-.2551-.0813-.2816-.6473-.7624-1.1863-1.3715-1.5374-.609-.3512-1.314-.4959-2.011-.4129-.1254-.0859-.2132-.2171-.2452-.3663-.4895-1.6909-.8583-3.4148-1.1035-5.1586-.0271-.112-.03-.2285-.0086-.3416.0215-.1132.0669-.2204.1331-.3144.601-.2086 1.1293-.5877 1.5214-1.0915.3922-.5038.6314-1.1109.6889-1.7484l8.6714-2.2456c.4375-.1349.6933-.41353.5634-.88926-.1292-.47279-.5195-.4646-.9063-.40555-.0963.02235-.1909.05143-.2832.08701-2.5559.75584-5.1495 1.3757-7.7701 1.857-.1748.0513-.3611.046-.5326-.0152-.1867-.4317-.4622-.8187-.8082-1.13542-.346-.31673-.7548-.55606-1.1993-.7022-.0211-.00692-.043-.01187-.0643-.01836.0255-.16973.225-1.49999.2948-1.95653.2573-2.0523.7847-4.06098 1.5686-5.9731.184-.422185.1803-.783196-.2716-1.0043579-.4685-.2293361-.7424.0333279-.9344.4359529-.064.134258-.1226.271255-.1808.408212-1.0254 2.410743-1.4276 4.934363-1.9369 7.528393-.011.18859-.0893.36681-.2207.50174-.64.14783-1.2218.48457-1.6707.96714-.4489.48253-.7446 1.08903-.8492 1.74173-.0526.0797-.1255.1437-.211.1853s-.1806.0594-.2753.0514c-1.6033.1013-3.205.2275-4.8073.3448l-.7427.0061c-.1779.0518-.3665.0533-.5452.0043-.1787-.0491-.3405-.1468-.4676-.2824-.1606-.5343-.452-1.0194-.8476-1.4105-.3956-.3912-.8825-.67592-1.416-.82796-.0615-.08208-.1038-.17715-.1235-.27804s-.0165-.20498.0096-.30441c.1251-.78346.216-1.573.36-2.35272.3485-1.97967.9327-3.90982 1.74-5.74871.1995-.445305.1234-.781686-.3129-.9876233-.4351-.2054017-.6998.0466963-.8877.4133043-.079.15395-.1421.31626-.2097.47591-1.0855 2.585049-1.752 5.328769-1.9739 8.126469-.0023.22012-.0746.43369-.2063.60944-.5586.12585-1.0751.39564-1.4991.78284-.4239.3873-.7407.8787-.9192 1.4263-.5399.3029-1.2526.1373-1.9197.1259-.1235-.0021-.2468-.0166-.37-.0272-.0878-.0127-.1773-.007-.2629.0166-.0855.0236-.1654.0646-.2345.1206-.0691.0559-.1261.1256-.1674.2047-.0412.0791-.0659.1658-.0724.2549-.0066.0891.0051.1785.0344.2629.0292.0843.0754.1616.1356.2272.0602.0657.1332.1181.2143.1541.0812.036.1689.0548.2576.0553.6406.0483 1.2798.1172 1.9208.1565.131-.0021.2589.0398.3635.1192.1347.6795.4771 1.2996.9792 1.7735s1.1387.7779 1.8209.8695c.1073.1052.1704.2479.1763.3985.2326 1.7454.6221 3.4659 1.1638 5.1404.0693.1339.0829.29.0379.434-.045.1441-.145.2642-.2779.334-.0096.005-.0192.0097-.0291.0141-.8234.5259-1.4113 1.3536-1.6392 2.3081-.1015.447-.2954.5411-.709.5221-1.6792-.0771-3.3545-.1936-5.0269-.3654-.1136.0051-.2267-.0183-.3292-.0681-.1024-.0498-.191-.1244-.2577-.2171-.0734-.8766-.4897-1.6878-1.1572-2.2553-.6676-.5675-1.5317-.8448-2.4023-.7709-.0192.0017-.0385.0035-.0577.0055-.2079-.0973-.297-.2886-.3783-.5759-.4793-1.6676-.8439-3.3663-1.0913-5.0843-.0808-.5764-.1742-1.1243.0894-1.5165.7724-.2494 1.422-.7848 1.8172-1.498.6602-.0893 1.328-.1082 1.9921-.0563.3971.0148.6865-.1213.7597-.5229.0827-.4538-.1911-.7038-.5993-.7893-.3864-.0867-.7795-.1398-1.1749-.1585-.2982-.0096-.484-.0842-.5872-.2921-.0301-.3733-.1255-.7384-.2818-1.0782-.1492-.38526-.3754-.73552-.6647-1.02905-.2893-.29354-.6354-.52408-1.0169-.67732-.0663-.01826-.1283-.0495-.1826-.09192s-.0998-.09519-.1339-.15531c-.034-.06012-.056-.12639-.0646-.19505s-.0037-.13836.0144-.20511c.0033-.0119.0069-.02368.011-.03533.1752-1.15205.4198-2.29232.7324-3.41449.321-1.14464.7186-2.26609 1.19-3.356676.0437-.075735.0708-.160002.0796-.247161.0088-.087158-.001-.175197-.0288-.258222s-.0728-.15912-.1322-.223191c-.0593-.064071-.1316-.114639-.2119-.1483189-.0745-.0462676-.1581-.075625-.2451-.08602769-.0869-.01040266-.175-.00160041-.2582.02579369s-.1595.0727219-.2235.1328249c-.0641.060104-.1143.133539-.1473.21519-.1336.237433-.2489.484807-.345.739958-.8405 2.09423-1.428 4.28261-1.7496 6.51804-.0576.36807-.1513.5425-.5323.64132-.3637.08265-.7063.24103-1.0056.46494s-.5487.50841-.7323.8352c-.2783.51851-.5958.46061-1.0266.31804-.9606-.31785-1.924-.62878-2.895-.91211-.3845-.11218-.8226-.17397-.9829.3518-.1568.51467.1245.78528.593.92808 1.0849.3307 2.1611.6923 3.2537.9944.14.0162.2696.0828.3649.1874s.15.2403.154.3822c.0622.5189.2534 1.0137.556 1.4385s.7067.7659 1.175.9916c.2065.1182.4257.2125.6532.2813.1276.0914.2298.2142.297.3566.0671.1424.097.2998.0868.4571.166 1.9539.5419 3.8838 1.121 5.7561.1673.3838.2161.8093.1401 1.2213-.4895.3617-.8707.8521-1.1019 1.4174-.1592.068-.3379.0744-.5015.018-1.9245-.4371-3.8258-.9716-5.6969-1.6013-.4572-.1555-.9084-.2473-1.0923.3344-.1782.564.2078.7758.6793.9385 1.8689.636 3.7696 1.173 5.6943 1.6087.245.0566.5193.0437.688.2842.0823.8182.463 1.5766 1.0686 2.1285s1.393.8579 2.2099.859c.0894 0 .1772-.0065.2648-.0135.075.0249.1424.069.1956.1279.0531.0589.0903.1306.1077.2082.7099 2.0116 1.1917 4.0976 1.4364 6.2181.0224.0924.0259.1884.0104.2822s-.0498.1834-.1008.2635c-.4933.1199-.9526.3527-1.3423.6801-.3896.3275-.6991.7409-.9045 1.2082-.471.2633-1.0591.0668-1.6416-.0482-.3626-.0716-.7197-.1704-1.0818-.2448-2.1512-.4374-4.2698-1.0238-6.3408-1.7547-.4103-.1457-.7537-.096-.9262.3205-.1853.4475.0248.7662.4515.9466.1362.0575.2815.0932.4218.1411 2.69.9074 5.4452 1.6053 8.2414 2.0876.2394.0185.4628.1282.6245.3069.0778.6043.3191 1.1754.6975 1.6508.3785.4755.8795.837 1.4484 1.045.2136.2546.1992.5723.0999.9988-.2907 1.4581-.6648 2.8982-1.1204 4.3129-.1393.3897-.1481.8167.3516.9907.5305.1848.7675-.1581.9301-.5903.0436-.1157.095-.2291.1295-.3474.4839-1.5375.8487-3.1104 1.0914-4.7047.0048-.1847.0689-.3629.1828-.5078.5607-.0957 1.0874-.3356 1.529-.6965s.7831-.8306.9913-1.3634c.075-.0703.1653-.1216.2638-.1499.0984-.0284.2021-.0328.3026-.013 2.0439.1917 4.0966.2728 6.1492.2431.1616-.0157.3228.0324.4498.1341.1332.5319.395 1.0223.762 1.4275.3671.4053.8279.7129 1.3416.8955.0385.0657.0623.1392.0697.2151.0074.076-.0017.1527-.0268.2247-.2696 1.387-.6215 2.7565-1.0539 4.101-.1601.4528-.2845.9055.2892 1.1203.5548.2077.7877-.1585.9527-.6358.4762-1.3817.8391-2.8002 1.0853-4.2415.0165-.242.1209-.4694.2932-.639.5809-.0923 1.1265-.3401 1.5797-.7176.107-.0845.2058-.1791.2949-.2825.4111-.4372.696-.979.8239-1.5671.0099-.0458.0148-.0933.0229-.1397l1.8609-.3883c.1602-.0209.3056-.105.4043-.2338.0986-.1288.1424-.2917.1217-.453l-.0018-.0128c.0021-.0818-.0134-.1631-.0455-.2383s-.08-.1425-.1404-.1973-.1319-.0957-.2095-.12-.1595-.0314-.2401-.0208c-.4446.0114-.8899.0724-1.3298.091-.3661.0156-.4195.0388-.5509-.0776-.1763-.5086-.4726-.9665-.8634-1.3343-.3909-.3678-.8646-.6346-1.3805-.7774-.0499-.0463-.0897-.1025-.1171-.1651-.0273-.0626-.0415-.1302-.0417-.1985-.1253-1.8313-.4387-3.6445-.9351-5.4107-.0807-.2737.032-.3976.2427-.5393.4798-.3081.8918-.7121 1.2104-1.187s.537-1.0105.6418-1.5737c.0018-.1256.0531-.2453.1426-.3329.0894-.0875.2098-.1356.3345-.1338.0128.0002.0256.0009.0383.0021 1.5265-.1178 3.0507-.2657 4.5724-.4434.1158-.0264.2359-.0282.3525-.0053s.2272.0699.3248.138c.2874.6321.7659 1.1565 1.3669 1.4985.6011.3421 1.2941.4842 1.9802.4062.1454.1022.2488.2544.2908.4279.5802 1.7398 1.0293 3.5212 1.3437 5.3289.0189.0637.0223.131.0099.1962-.0124.0653-.0403.1266-.0812.1787-.6294.1863-1.1894.5572-1.6085 1.0653s-.6784 1.1304-.7447 1.7876c-.3597.4331-.9393.501-1.5685.5696-.2212.0241-.4443.0398-.6629.0794-.4396.0796-.7456.2945-.6693.8017.0727.4834.4302.5728.8321.5237.6119-.0748 1.2235-.1622 1.8289-.2775.1773-.0544.3682-.0416.5368.0358.1956.4203.4764.7948.8243 1.0994.3478.3047.7551.5328 1.1956.6697.0718.1226.1163.2595.1303.4011.014.1417-.0028.2847-.0492.4191-.2831 1.9634-.7433 3.8967-1.3748 5.776-.0379.0794-.0584.1662-.0598.2543-.0015.0881.016.1755.0513.2561s.0875.1526.1531.211c.0656.0583.143.1017.2268.127.0837.0422.1757.0648.2693.0664.0935.0015.1862-.0181.2712-.0575s.1602-.0974.2199-.17c.0598-.0725.1026-.1576.1253-.249.0387-.091.0802-.1814.1109-.2752.6481-1.9538 1.0968-3.969 1.3393-6.0143.0001-.2562.0999-.5021.2781-.685.6975-.1609 1.3241-.5459 1.7852-1.0969s.7316-1.2381.7707-1.9576c.0565-.0853.1301-.1579.2161-.2129s.1825-.0913.2833-.1064c.9069-.2367 1.8085-.4954 2.705-.7693.0998-.0145.1948-.0525.2774-.1107.0825-.0583.1504-.1352.1981-.2246s.074-.1888.0766-.2903c.0027-.1015-.0184-.2022-.0613-.294zm-17.1667 3.8835c.0053-.0748.0126-.149.0126-.2251.0002.0752-.0039.1503-.0126.2251zm-6.4617-1.0837s-1.1024.1321-1.4756.1526c-1.6762.0919-3.3525-.0983-5.0298-.1646-.0874.0089-.1756-.0024-.258-.0332s-.1566-.0801-.2171-.1443c-.0863-.6555-.3649-1.2702-.8002-1.7654-.4353-.4951-1.0075-.8482-1.6433-1.0139-.1197-.1303-.186-.3013-.1857-.4787-.1907-2.2239-.6684-4.4133-1.4213-6.5128-.1029-.2116-.1208-.4551-.0498-.6796.4577-.3138.8301-.7379 1.0832-1.2337.4156-.2517.9505-.2008 1.5384-.1301 1.4679.1766 2.9512.2325 4.4295.3085.3698.019.5628.1026.671.4967.5758 2.0961 2.2533 3.3527 4.3767 3.2347.5215-.029.6559.1307.7665.5909.3647 1.4908.6191 3.0067.7612 4.5354.0197.2201.0077.3596-.0922.4624-.5846.1343-1.1219.4263-1.5541.8448-.4322.4184-.7431.9475-.8994 1.5303zm10.5152-13.8157c-.0416.0519-.0946.0935-.1548.1213-.0602.0279-.126.0413-.1923.0393-1.4982.1392-2.9945.2988-4.4901.4639-.4153.0459-.6187-.0321-.779-.5071-.2889-.9064-.8725-1.6884-1.6567-2.2202-.7843-.5318-1.7234-.7822-2.6663-.7111-.1763.0359-.3595-.0002-.5094-.1003-.1499-.1002-.2541-.2561-.2898-.4336-.0039-.0195-.0069-.0392-.0092-.059-.4166-1.4767-.7562-2.9743-1.0173-4.4867-.0359-.1097-.0443-.2266-.0244-.3404.0199-.1137.0674-.2208.1383-.3115.4786-.1874.9072-.4845 1.2519-.8677s.596-.842.7339-1.34c.0581-.0893.1401-.1603.2364-.2049.0964-.0445.2033-.0609.3084-.0471 1.9789-.007 3.9561-.1158 5.9239-.326.1317-.0582.2792-.0693.418-.0314s.2606.1225.345.2397c.2124.5212.5528.9796.9894 1.3321.4365.3524.9548.5874 1.5063.6829.0587.0598.1051.1307.1365.2086s.0472.1613.0466.2454c.1921 1.8987.5826 3.7717 1.1653 5.5879.0766.1801.0808.3831.0116.5663-.4085.2821-.7485.6534-.9948 1.0862-.2462.4327-.3923.9158-.4274 1.4133z" fill="#172d73"/><path d="m44.0696 23.0902c-.3895-.0023-.7756.0727-1.1364.2206-.3607.1479-.689.366-.9661.6417-.277.2756-.4975.6036-.6486.965-.1512.3615-.2302.7494-.2325 1.1415-.0001.0211 0 .0423.0003.0634-.0037.7823.3014 1.5341.8482 2.0899.5468.5559 1.2905.8703 2.0675.874.0143.0001.0285.0001.0428-.0001.3795.0148.7582-.0458 1.1144-.1784.3563-.1326.6831-.3345.9618-.5943.2788-.2597.504-.5722.6627-.9196.1588-.3474.2481-.7228.2628-1.1049.0023-.0599.0028-.1198.0014-.1797.0086-.3877-.0586-.7733-.198-1.1348-.1393-.3616-.348-.6919-.6142-.9722-.2662-.2804-.5845-.5051-.937-.6616-.3524-.1564-.732-.2414-1.1171-.2501-.0373-.0009-.0746-.001-.112-.0004z" fill="#fefefe"/><path d="m57.0709 22.9227c-.2394-.0071-.4779.0334-.7019.1192-.2239.0858-.4288.2151-.6031.3806s-.3145.364-.4126.584c-.0981.2201-.1522.4575-.1592.6986-.0008.0298-.001.0596-.0004.0894-.0032.4995.1906.9799.539 1.3355.3484.3557.8228.5575 1.3189.5612.4961.0036.9733-.1912 1.3268-.5417s.5544-.8279.5584-1.3274c0-.0054 0-.0107 0-.016.011-.4884-.1711-.9612-.5064-1.3144-.3352-.3532-.7961-.5579-1.2811-.5689-.0262-.0006-.0523-.0007-.0784-.0001zm.6646 1.9726c-.0017.0871-.022.1728-.0595.2513-.0376.0786-.0916.148-.1582.2036-.0667.0555-.1444.096-.228.1186-.0836.0225-.1711.0267-.2564.0121-.0928.0052-.1855-.0109-.2712-.0473-.0856-.0364-.1618-.092-.2228-.1627-.0609-.0706-.105-.1543-.1289-.2447s-.0269-.1852-.0088-.277c.0259-.433.3477-.6035.6699-.7627.4148.2029.7159.4366.6639.9088z" fill="#4ccaf8"/><path d="m33.0499 36.7178c-.499.0036-.9771.2028-1.3328.5553-.3557.3524-.561.8305-.5726 1.3329-.0003.3726.1089.737.3137 1.0474s.4962.5529.8375.697c.3414.1441.7174.1834 1.0808.113.3635-.0705.6981-.2475.9619-.509.2638-.2614.4449-.5954.5207-.9602.0757-.3648.0426-.7439-.0951-1.0898s-.3738-.6431-.6788-.8543c-.305-.2111-.6652-.3267-1.0353-.3323zm-.0077 2.633c-.4906.011-.6963-.2775-.7009-.7653-.012-.0972-.0018-.1958.03-.2883s.0843-.1765.1533-.2454c.0691-.0689.153-.1209.2452-.152.0921-.0312.1902-.0406.2866-.0275.1905.008.3705.0904.5019.2296.1313.1393.2037.3245.2019.5165s-.0778.3758-.2118.5125-.3155.2155-.5062.2198z" fill="#f488a5"/><path d="m30.3178 23.1193c-.4994.011-.974.2211-1.3197.5841s-.5342.8493-.5241 1.3521c.0131.502.2187.9794.5738 1.3321s.832.5533 1.3307.5596c.4988-.0191.9703-.2343 1.3134-.5994s.5303-.851.5217-1.3535c-.0012-.2474-.0507-.4922-.1459-.7203-.0951-.2282-.2339-.4352-.4084-.6093-.1746-.1741-.3816-.3119-.609-.4055-.2275-.0936-.4711-.1412-.7168-.14zm.0066 2.6551c-.4543-.0051-.6416-.2925-.6604-.7111.0037-.4754.2022-.7735.6963-.7641.4497.0085.651.2809.6556.7184.0049.4703-.2009.7623-.6915.7568z" fill="#4bcaf8"/><path d="m29.4574 11.3742c.0013-.3763-.1083-.7446-.3149-1.0582-.2065-.3137-.5009-.55857-.8457-.70378-.3448-.14522-.7247-.18423-1.0915-.11209s-.7042.25218-.9694.51737c-.2652.2652-.4464.6036-.5206.9724s-.038.7515.1038 1.0997.383.6462.6931.8564c.31.2101.675.323 1.0488.3243h.016c.2464.0005.4905-.0478.7183-.1422.2279-.0945.435-.2332.6096-.4082s.3133-.383.4081-.612.1439-.4745.1444-.7226c0-.0037 0-.0074 0-.0111zm-1.8889.6941c-.4328-.0229-.7017-.2086-.709-.6585-.008-.492.2837-.6932.7384-.6972.4306.0116.7449.1905.7171.6466.0083.0989-.0057.1985-.0409.2913-.0352.0927-.0908.1763-.1625.2445-.0718.0681-.1579.1191-.2519.1491-.0941.03-.1936.0383-.2912.0242z" fill="#f488a5"/><path d="m42.8842 12.9884c.0097-.5071-.1811-.9973-.5302-1.363-.3492-.3656-.8283-.5767-1.3319-.5869-.5037-.0102-.9908.1813-1.3543.5324-.3636.3512-.5737.8333-.5844 1.3404-.0006.0284-.0005.0568.0002.0852.0127.4996.219.9744.5748 1.3229.3559.3485.833.543 1.3294.5419.4964-.001.9727-.1975 1.3271-.5475s.5587-.8257.5693-1.3254zm-2.639-.0427c-.0015-.0923.0151-.1839.0488-.2697.0338-.0858.084-.1641.1477-.2304.0638-.0663.1399-.1192.224-.1559s.1746-.0563.2662-.0577c.0058-.0001.0116-.0002.0174-.0001.0991-.0115.1995-.0005.2938.0324.0944.0328.1801.0865.251.1572.071.0707.1252.1565.1587.2512.0335.0946.0455.1956.035.2955.0007.4317-.2721.6619-.7189.737-.4017-.0774-.728-.309-.7237-.7595z" fill="#4bcbf9"/><path d="m54.3397 14.0973c.3768.0125.7488-.0886 1.0682-.2904.3194-.2017.5718-.4948.7246-.8418.1529-.3471.1994-.7321.1335-1.1059s-.2411-.7193-.5033-.9922c-.2621-.2728-.5992-.4607-.968-.5394-.3689-.0788-.7527-.0448-1.1023.0975-.3495.1422-.6489.3864-.8598.7011s-.3237.6856-.3238 1.0652c-.0003.4948.1906.9704.5323 1.3261.3417.3556.8074.5636 1.2986.5798zm-.725-1.9794c.0135-.0985.0461-.1932.096-.2789s.116-.1607.1947-.2207c.0787-.0599.1683-.1037.2638-.1288s.1949-.031.2927-.0174l.0162.0024c.4592.0497.6135.3583.5834.8122-.0855.3852-.3074.7078-.7451.628-.3885-.0709-.8026-.2954-.7017-.7968z" fill="#f589a5"/><path d="m59.9216 35.507c-.3754-.0045-.7437.1032-1.0583.3095-.3146.2062-.5613.5018-.7091.8492-.1478.3475-.1899.7313-.121 1.1029.0689.3715.2456.7142.5079.9846s.5984.4565.9657.5346.7494.0448 1.0979-.0957.6479-.3819.8601-.6936c.2123-.3118.3279-.68.3324-1.0579.0001-.0087.0001-.0174.0001-.0261-.0022-.5019-.2-.9829-.5507-1.3396-.3508-.3567-.8265-.5606-1.325-.5679zm-.0149 2.6462c-.502.0129-.691-.3039-.6859-.8247-.0059-.0901.0081-.1804.0409-.2645s.0837-.1598.149-.2218.1433-.1087.2286-.1367c.0853-.0281.1757-.0368.2647-.0256.0995-.0058.1992.009.2928.0433.0937.0343.1794.0875.2519.1563.0725.0689.1304.1518.1699.2439.0396.0921.0601.1914.0603.2917.0002.1004-.0199.1997-.0592.2919-.0392.0923-.0968.1755-.169.2446-.0723.069-.1578.1226-.2513.1572-.0936.0347-.1931.0498-.2927.0444z" fill="#f489a5"/><path d="m44.5449 39.2464c.0189.5016.2264.9772.5804 1.3306s.8281.5582 1.3264.573c.4991-.0101.975-.2138 1.3285-.5687.3534-.3548.557-.8335.5683-1.3359-.0035-.499-.2037-.9762-.5566-1.3266s-.8297-.5453-1.3253-.5418l-.015.0002c-.498-.0031-.9772.1913-1.3339.5411-.3568.3497-.5626.8268-.5728 1.3281zm1.9294-.7175c.0942-.0058.1885.0086.2766.0424.0882.0337.1682.0859.2348.1532.0666.0672.1182.148.1514.2369.0331.0889.0471.1839.041.2786-.0299.432-.2386.7621-.6478.7221-.5522-.0191-.8101-.2347-.8114-.6895-.0062-.1007.0092-.2016.0452-.2959.036-.0942.0917-.1795.1634-.25.0717-.0706.1577-.1248.252-.1589.0944-.0342.1949-.0474.2948-.0389z" fill="#4bcaf8"/><path d="m57.0722 23.9863c-.3222.1593-.644.3297-.6699.7628-.0181.0917-.0151.1865.0088.2769s.068.1741.129.2448c.0609.0706.1371.1262.2227.1626.0857.0364.1784.0526.2712.0473.0853.0146.1728.0104.2564-.0121.0836-.0226.1613-.063.228-.1186.0666-.0556.1206-.125.1582-.2035.0375-.0785.0578-.1643.0595-.2514.0521-.4721-.2491-.7059-.6639-.9088z" fill="#10a5f5"/><path d="m33.0569 37.8739c-.0964-.0131-.1945-.0037-.2867.0275-.0921.0311-.176.0831-.2451.152-.069.0689-.1215.1529-.1533.2454s-.042.1911-.03.2883c.0045.4878.2103.7763.7009.7653.1907-.0044.3722-.0832.5062-.2199s.21-.3204.2118-.5125c.0019-.192-.0706-.3772-.2019-.5165-.1314-.1392-.3114-.2216-.5019-.2296z" fill="#ef5e7f"/><path d="m30.3613 24.299c-.4941-.0094-.6926.2887-.6963.7641.0188.4187.2061.7061.6604.7112.4906.0054.6964-.2865.6915-.7568-.0046-.4375-.2059-.7099-.6556-.7185z" fill="#13a5f6"/><path d="m27.597 10.7119c-.4547.004-.7465.2053-.7384.6972.0073.45.2762.6357.7089.6586.0977.0141.1972.0058.2913-.0242.094-.03.1801-.081.2518-.1492.0718-.0681.1274-.1517.1626-.2445.0352-.0927.0492-.1923.0409-.2913.0278-.456-.2866-.635-.7171-.6466z" fill="#ef5e80"/><path d="m41.6859 12.9683c.0105-.0999-.0015-.2009-.035-.2956-.0335-.0946-.0878-.1804-.1587-.2511s-.1567-.1245-.251-.1573-.1947-.0439-.2939-.0323c-.0916-.0009-.1825.0165-.2675.051-.085.0346-.1624.0856-.2278.1503s-.1175.1417-.1533.2266-.0547.1761-.0555.2684c-.0001.0058 0 .0116.0001.0174-.0043.4506.322.6822.7237.7596.4468-.0751.7196-.3054.7189-.737z" fill="#12a5f5"/><path d="m54.3157 12.9145c.4377.0799.6597-.2427.7452-.6279.03-.4539-.1243-.7626-.5835-.8122-.0974-.0157-.197-.012-.293.011-.096.0229-.1865.0647-.2665.123-.0799.0582-.1477.1317-.1994.2163-.0518.0846-.0864.1786-.1021.2767l-.0024.0163c-.1008.5015.3132.726.7017.7968z" fill="#f05f7f"/><path d="m59.9042 36.6805c-.089-.0112-.1794-.0025-.2647.0256s-.1633.0747-.2286.1367-.1162.1377-.149.2218-.0468.1744-.0409.2646c-.005.5207.1839.8375.6859.8246.0996.0054.1991-.0097.2927-.0443.0935-.0347.179-.0882.2513-.1573s.1298-.1523.1691-.2445c.0392-.0923.0594-.1916.0592-.292-.0002-.1003-.0207-.1996-.0603-.2917s-.0974-.175-.17-.2439c-.0725-.0688-.1582-.122-.2519-.1563-.0936-.0343-.1933-.0491-.2928-.0433z" fill="#ef5f80"/><path d="m46.5295 39.9621c.4093.04.6179-.2901.6479-.7221.0061-.0948-.0079-.1897-.0411-.2786s-.0848-.1697-.1514-.2369c-.0665-.0673-.1466-.1195-.2347-.1533-.0882-.0337-.1825-.0481-.2766-.0423-.0999-.0085-.2005.0047-.2948.0388-.0944.0342-.1803.0884-.252.1589-.0717.0706-.1275.1559-.1635.2501s-.0514.1951-.0452.2959c.0014.4548.2592.6703.8114.6895z" fill="#13a6f6"/><path d="m1.47762 54.8556c.41943-.4449.92747-.7955 1.49086-1.0289.56339-.2335 1.16941-.3444 1.77835-.3256 1.77014 0 3.06446.6053 3.88297 1.816.42476.602.67663 1.3101.72797 2.0467h-2.22214c-.09664-.4309-.28207-.8366-.5443-1.1908-.39583-.4763-.98243-.7145-1.75981-.7145-.37216-.0092-.74035.0789-1.06864.2556-.32829.1768-.60549.4361-.80457.7529-.45701.6723-.68551 1.6238-.68552 2.8542 0 1.2307.24115 2.1523.72343 2.7649.21186.2892.48912.5235.80881.6834.3197.1599.67262.2408 1.02955.236.33226.0198.66437-.0415.96795-.1789.30359-.1374.56962-.3468.77539-.6102.26594-.383.45309-.8158.55043-1.2727h2.20785c-.14711 1.11-.66132 2.1378-1.45968 2.9175-.40351.3773-.87692.6707-1.39316.8635-.51624.1929-1.06518.2814-1.61542.2605-1.51315 0-2.70278-.5062-3.56888-1.5185-.866002-1.0169-1.29902222-2.4112-1.29906-4.1827.0000115-1.9152.492553-3.3913 1.47762-4.4284zm15.15358 1.7568c.391.1705.7279.4463.9735.797.2039.2755.3393.5961.395.935.0583.5205.0824 1.0443.0719 1.5679v4.7677h-2.0995v-4.9401c.0154-.3651-.0584-.7284-.2149-1.058-.1862-.3775-.5396-.5663-1.06-.5664-.2348-.0144-.4695.0294-.6836.1275-.2142.098-.4012.2475-.5447.4351-.3077.4759-.4546 1.039-.4189 1.6057v4.3962h-2.0562v-10.9333h2.0562v3.8701c.2433-.4208.601-.7629 1.0309-.986.3847-.1848.8058-.2802 1.232-.2791.4527-.0062.9016.0826 1.3183.2607zm6.5957 3.1331c.2807-.0252.5569-.0878.8213-.1861.1278-.0403.2396-.1203.3192-.2287.0797-.1083.1232-.2393.1242-.3741.014-.1355-.0105-.2721-.0707-.394-.0603-.1219-.1537-.2241-.2694-.2945-.3124-.1444-.6551-.2095-.9983-.1897-.4924 0-.841.124-1.0458.3721-.1603.2181-.2612.4747-.2926.7442h-1.984c.0157-.6281.2176-1.2371.5796-1.7489.5459-.7146 1.4831-1.0718 2.8116-1.0718.7993-.0152 1.5902.1662 2.3041.5284.6716.3524 1.0074 1.0172 1.0074 1.9946v3.7215c0 .2578.0047.5704.0142.9376-.0054.1959.0368.3901.1229.5657.0774.1076.1819.1924.3028.2455v.3127h-2.2364c-.0585-.149-.102-.3037-.1299-.4615-.0241-.1437-.0433-.3075-.0576-.4912-.287.3186-.6197.592-.9872.8112-.4584.2665-.9801.4029-1.5095.3946-.6492.0241-1.2833-.2008-1.7743-.6291-.2391-.2274-.4258-.5049-.5468-.8129s-.1734-.639-.1535-.9696c0-.9972.3755-1.7192 1.1266-2.1657.5667-.2898 1.1837-.4667 1.8171-.5211zm1.2574.9899c-.1258.0814-.2594.1499-.3987.2046-.1795.0644-.3642.1129-.5521.1452l-.4681.0893c-.3287.0439-.648.142-.9451.2903-.1561.0898-.2843.2216-.3701.3807-.0858.159-.1259.339-.1158.5197-.0134.145.0063.2912.0578.4274.0514.1361.1332.2586.2389.358.2048.1636.4603.2492.7217.2418.4456.0012.8803-.1394 1.2418-.4018.3786-.2681.5751-.7569.5897-1.4663zm10.5228 2.9521c-.6639.8453-1.6716 1.2679-3.0231 1.2677-1.3518 0-2.3595-.4225-3.0231-1.2677-.6468-.8824-.9958-1.9503-.9958-3.047s.349-2.1645.9958-3.047c.6638-.8576 1.6715-1.2865 3.0231-1.2865 1.3515 0 2.3592.4288 3.0231 1.2865.6466.8825.9955 1.9504.9955 3.047 0 1.0967-.3489 2.1645-.9955 3.047zm-1.6451-1.1724c.3222-.4409.4833-1.0676.4834-1.8802 0-.8126-.1612-1.4381-.4834-1.8765-.1688-.2058-.3807-.3714-.6205-.4851s-.5016-.1727-.7666-.1727c-.2651 0-.5269.059-.7667.1727s-.4516.2793-.6205.4851c-.3246.4384-.4869 1.0639-.4869 1.8765s.1623 1.4393.4869 1.8802c.1682.2068.3799.3734.6197.4878.2399.1144.5021.1737.7675.1737s.5275-.0593.7674-.1737.4516-.281.6197-.4878zm5.8165-.3934c.0111.2906.1096.5708.2826.8037.2563.283.73.4244 1.421.4242.3326.015.6641-.0487.9678-.186.1081-.0467.2-.1247.2639-.2241s.097-.2157.0951-.3341c.0045-.1084-.0199-.2159-.0708-.3115s-.1264-.1757-.2185-.2318c-.1927-.1239-.9098-.3373-2.1511-.6401-.8936-.2281-1.5231-.5134-1.8886-.8559-.1899-.1894-.3371-.4177-.4317-.6693-.0947-.2517-.1345-.5209-.1168-.7895-.0025-.3648.0727-.726.2205-1.0591.1478-.3332.3648-.6306.6363-.8722.5712-.5383 1.375-.8075 2.4115-.8075.8428-.0369 1.678.1739 2.404.6066.6193.4044.9748 1.1028 1.0666 2.095h-2.0565c-.0144-.2324-.0919-.4564-.224-.6475-.2268-.2876-.6127-.4315-1.1577-.4316-.3339-.0287-.6686.0467-.9587.2157-.0849.0547-.1552.1294-.205.2176-.0497.0882-.0774.1872-.0806.2886-.0061.1083.0194.2161.0733.31.054.0939.1341.1698.2305.2184.2025.1142.9181.3102 2.147.588.6827.1297 1.3187.4406 1.8421.9006.199.1992.3555.4374.4597.6998s.154.5435.1462.826c.0106.3728-.0622.7433-.2129 1.0841-.1508.3407-.3758.643-.6582.8844-.581.5086-1.4786.7628-2.693.7627-1.2387 0-2.1531-.2691-2.7434-.8073-.2879-.2571-.5164-.5746-.6694-.9301s-.2268-.7405-.2163-1.1278zm18.2288-8.4122h3.2768v10.9705h-2.122v-7.4204c0-.2133.0025-.5122.0075-.8969.0049-.3843.0073-.6808.0072-.8893l-2.0652 9.2066h-2.2131l-2.0503-9.2066c0 .2084.0024.5049.0074.8893.0049.3846.0074.6836.0074.8969v7.4204h-2.1219v-10.9705h3.3135l1.9838 8.626zm10.5759 3.0223c.5407.2656.9941.6822 1.3061 1.2001.3192.5084.5247 1.0807.6022 1.6771.0606.5344.0824 1.0725.0652 1.6101h-5.5049c.0307.8137.2942 1.3843.7905 1.7118.3244.21.7042.3163 1.0896.3052.399.0178.7903-.1149 1.0973-.3722.1708-.1573.309-.347.4067-.5582h2.0177c-.0878.5533-.3438 1.0655-.7327 1.4661-.6771.7891-1.6249 1.1835-2.8435 1.1834-.9794.01-1.9278-.3456-2.6622-.998-.7691-.6654-1.1536-1.748-1.1533-3.2478 0-1.4055.347-2.4831 1.0412-3.2329.3443-.3713.7638-.6639 1.23-.8579.4663-.1941.9685-.2851 1.4727-.267.6134-.0096 1.2209.1204 1.7774.3802zm-2.9563 1.8324c-.299.3544-.4827.7927-.5265 1.2557h3.4047c-.0009-.4805-.1901-.9412-.5265-1.2819-.3196-.2933-.7399-.4502-1.1721-.4374-.2182-.0131-.4367.0216-.6403.1016s-.3876.2035-.5393.362zm8.1054 3.5711c.0111.2906.1097.5709.2827.8037.2563.283.7299.4244 1.4209.4242.3326.0151.6641-.0487.9678-.186.1081-.0467.2-.1247.2639-.2241.064-.0994.097-.2157.0951-.3341.0045-.1084-.0199-.2159-.0708-.3115s-.1263-.1757-.2185-.2318c-.1927-.1239-.9097-.3373-2.151-.6401-.8936-.2281-1.5232-.5134-1.8887-.8559-.1898-.1894-.3371-.4177-.4317-.6693-.0946-.2517-.1345-.5209-.1168-.7895-.0024-.3648.0728-.726.2206-1.0591.1478-.3332.3647-.6306.6362-.8722.5712-.5383 1.375-.8075 2.4115-.8075.8428-.0369 1.6781.1739 2.404.6066.6193.4044.9749 1.1028 1.0666 2.095h-2.0564c-.0144-.2324-.0919-.4564-.2241-.6475-.2268-.2876-.6127-.4315-1.1576-.4316-.334-.0286-.6687.0467-.9588.2158-.0848.0546-.1552.1293-.205.2175-.0497.0882-.0774.1872-.0806.2886-.0061.1083.0194.2161.0734.31.0539.0939.134.1698.2304.2184.2025.1142.9182.3102 2.147.588.6827.1297 1.3187.4406 1.8421.9006.199.1992.3555.4374.4597.6998s.154.5435.1462.826c.0106.3728-.0621.7433-.2129 1.0841-.1508.3407-.3757.643-.6582.8844-.5809.5086-1.4786.7628-2.693.7627-1.2386 0-2.1531-.2691-2.7434-.8073-.2879-.2571-.5164-.5746-.6694-.9301s-.2268-.7405-.2162-1.1278zm12.3329-5.523c.3911.1706.7278.4464.9733.7971.2039.2754.3394.596.395.935.0584.5205.0825 1.0442.072 1.5679v4.7677h-2.0996v-4.9401c.0155-.3651-.0582-.7284-.2147-1.058-.1862-.3775-.5395-.5663-1.06-.5664-.2348-.0144-.4695.0294-.6836.1275-.2142.098-.4011.2475-.5446.4351-.3078.4758-.4548 1.039-.4189 1.6057v4.3962h-2.0564v-10.9333h2.0564v3.8701c.2432-.4208.6008-.763 1.0307-.986.3847-.1848.8058-.2802 1.2321-.2791.4526-.0062.9016.0826 1.3183.2607z" fill="#172d73"/></svg>