<svg fill="none" height="87" viewBox="0 0 73 87" width="73" xmlns="http://www.w3.org/2000/svg" xmlns:xlink="http://www.w3.org/1999/xlink"><linearGradient id="a" gradientUnits="userSpaceOnUse" x1="36.453" x2="36.453" y1="121.956" y2="2.34245"><stop offset="0" stop-color="#f79422"/><stop offset=".984" stop-color="#f4c91d"/><stop offset="1" stop-color="#f4c91d"/></linearGradient><path d="m46.2537 44.8937-9.7913 5.3881-9.8492-5.5619v-11.1238l9.8492-5.6198 9.7913 5.0984zm.0579-22.5373-9.7912-5.6198-9.8492 5.6198-9.7913-5.6778v33.8929l19.7563 11.1238 19.4667-11.1238.2317-33.8929z" fill="#fff"/><path d="m0 36.5c0 20.1619 16.3381 36.5 36.5 36.5s36.5-16.3381 36.5-36.5-16.3381-36.5-36.5-36.5-36.5 16.3381-36.5 36.5z" fill="url(#a)"/><g fill="#fff"><path d="m37.9805 19.417 6.9523 3.9976v8.0532l-6.9523-3.9976z"/><path d="m28.2441 23.441 6.9524-3.9977v8.0532l-6.9524 3.9976z"/><path d="m18.5059 19.4173 6.9523 3.9976v9.6754l-6.9523 3.9976z"/><path d="m18.5059 40.3052 6.9523-3.9976v8.0532l-6.9523 3.9976z"/><path d="m35.2132 59.5967-15.2952-8.8643 6.9524-3.9976 8.3428 4.8087z"/><path d="m37.9805 59.5967v-8.0532l8.3428-4.8087 6.9524 3.9976z"/><path d="m54.6858 48.3535-6.9524-3.9976v-8.0532l6.9524 3.9976z"/><path d="m54.6858 37.1084-6.9524-3.9976v-9.6175l6.9524-3.9976z"/></g><path d="m54.6853 37.109-6.9524-3.9977v-9.6174l6.9524-3.9976zm0 11.2396-6.9524-3.9976v-8.0532l6.9524 3.9977zm-16.6857 11.2397v-8.0532l8.3428-4.8087 6.9524 3.9976zm6.9524-23.2905v8.0532l-6.9524 3.9976v-8.0531zm-15.2953-2.4333 6.9524-3.9976 6.9524 3.9976-6.9524 3.9976zm5.5619 14.4841-6.9524-3.9976v-8.0532l6.9524 3.9977zm0 11.2397-15.3532-8.8063 6.9524-3.9977 8.3429 4.8088c.0579-.058.0579 7.9952.0579 7.9952zm-16.6857-19.2928 6.9524-3.9977v8.0532l-6.9524 3.9976zm0-20.8572 6.9524 3.9976v9.6754l-6.9524 3.9977zm9.7333 3.9976 6.9524-3.9976v8.0532l-6.9524 3.9976zm9.7334-3.9976 6.9524 3.9976v8.0532l-6.9524-3.9976zm8.3428 1.6222-9.7333-5.6198-9.7333 5.6198-11.1238-6.4309v36.9055l20.8571 12.0508 20.8571-12.0508v-36.9055z" fill="#87752e"/><path d="m7.23295 81.6744c-.51107.5153-.76713 1.2508-.76713 2.2034 0 .882.2255 1.5764.6744 2.0822.44995.5037 1.06745.7555 1.85249.7555.63435 0 1.15489-.1865 1.56169-.5595.4057-.372.6586-.8567.7576-1.4521h-1.1296c-.0769.2814-.1728.4932-.28979.6333-.2097.2624-.51423.3931-.91465.3931-.38989 0-.71234-.1528-.96524-.4573-.2529-.3056-.37935-.764-.37935-1.3762 0-.6123.12013-1.0865.35933-1.4205.2392-.3351.56691-.5026.98209-.5026.40675 0 .71445.119.92204.3561.11587.1328.21077.3309.28557.5922h1.1401c-.0168-.3403-.1433-.6796-.3772-1.0189-.4247-.6017-1.09695-.9031-2.01581-.9031-.686 0-1.25186.2245-1.69654.6744zm5.94205 4.8894v-5.4605h-1.0558v5.4605zm3.5533-1.0738c-.1655.2192-.4026.3299-.7113.3299s-.5469-.1107-.7134-.3299c-.1665-.2202-.2497-.5321-.2497-.9378 0-.4046.0832-.7166.2497-.9357.1665-.2182.4047-.3278.7134-.3278s.5458.1096.7113.3278c.1654.2191.2476.5311.2476.9357 0 .4057-.0822.7176-.2476.9378zm.844.5828c.3414-.4205.5111-.9273.5111-1.5206 0-.5827-.1697-1.0875-.5111-1.5153-.3403-.4268-.8577-.6407-1.5521-.6407-.6934 0-1.2108.2139-1.5522.6407-.3404.4278-.5111.9326-.5111 1.5153 0 .5933.1707 1.1001.5111 1.5206.3414.4215.8588.6322 1.5522.6322.6944 0 1.2118-.2107 1.5521-.6322zm2.3193-3.547h-1.0811v2.4342c0 .4615.0579.8114.1739 1.0485.2075.4299.6101.6449 1.2076.6449.2075 0 .3877-.0274.5426-.0822.1539-.0538.314-.1549.4795-.3035.0548-.0474.1012-.1012.1412-.1633.039-.0612.0643-.0991.0738-.1107v.5701h1.0263v-4.038h-1.0706v2.1971c0 .2592-.0348.4679-.1043.6259-.1328.2919-.3804.4373-.7408.4373-.2814 0-.47-.1022-.5669-.3077-.0538-.1159-.0812-.2887-.0812-.5184zm5.724.0654c-.1907-.1075-.4078-.1613-.6523-.1613-.5311 0-.9547.1971-1.2729.5922-.3172.3952-.4752.9379-.4752 1.627 0 .5975.1612 1.0864.4826 1.469.3224.3814.7197.5721 1.1918.5721.2866 0 .5258-.0547.7186-.1633.1918-.1085.3636-.2824.5143-.5226v.5595h1.0263v-5.4532h-1.0706v1.9263c-.118-.1897-.2729-.3383-.4626-.4457zm.2592 2.8767c-.1559.2213-.3825.333-.6818.333-.2992 0-.5216-.1117-.6691-.3351-.1465-.2234-.2202-.5216-.2202-.8946 0-.3457.0727-.6355.2171-.8694.1443-.2329.3709-.3498.6796-.3498.2023 0 .3804.0642.5332.1928.2498.2118.3741.5659.3741 1.059 0 .3541-.078.6418-.2329.8641zm4.9569-3.7935c-.5111.5153-.7672 1.2508-.7672 2.2034 0 .882.2245 1.5764.6744 2.0822.4489.5037 1.0664.7555 1.8525.7555.6344 0 1.1549-.1865 1.5606-.5595.4068-.372.6597-.8567.7577-1.4521h-1.1296c-.077.2814-.1729.4932-.2888.6333-.2097.2624-.5153.3931-.9146.3931-.391 0-.7124-.1528-.9653-.4573-.2529-.3056-.3804-.764-.3804-1.3762 0-.6123.1202-1.0865.3594-1.4205.2402-.3351.5669-.5026.9821-.5026.4078 0 .7155.119.922.3561.1169.1328.2118.3309.2856.5922h1.1412c-.0169-.3403-.1434-.6796-.3783-1.0189-.4247-.6017-1.0959-.9031-2.0148-.9031-.687 0-1.2519.2245-1.6965.6744zm5.9157.8514h-1.0811v2.4342c0 .4615.0579.8114.1738 1.0485.2076.4299.6102.6449 1.2076.6449.2076 0 .3878-.0274.5427-.0822.1539-.0538.314-.1549.4795-.3035.0548-.0474.1011-.1012.1412-.1633.039-.0612.0642-.0991.0737-.1107v.5701h1.0264v-4.038h-1.0706v2.1971c0 .2592-.0348.4679-.1033.6259-.1338.2919-.3804.4373-.7418.4373-.2814 0-.47-.1022-.5659-.3077-.0548-.1159-.0822-.2887-.0822-.5184zm4.4047 2.7493h-1.0706c0 .4141.1517.7555.4541 1.0242.3025.2677.7714.4015 1.4057.4015.6228 0 1.0822-.1265 1.3805-.3794.2971-.2529.4457-.5795.4457-.98 0-.3034-.1033-.5574-.3109-.7597-.2097-.2002-.5247-.3488-.9452-.4478-.6291-.1381-.9958-.2361-1.1001-.293-.1033-.0537-.1549-.1422-.1549-.2624 0-.0969.0485-.1812.1465-.2529.0969-.0706.2603-.1064.49-.1064.2792 0 .4773.0706.5932.2139.0611.079.1001.1865.1149.3225h1.0558c-.0474-.4932-.2297-.8409-.5469-1.0422-.3171-.2013-.7281-.3024-1.2318-.3024-.5311 0-.942.1338-1.235.4025-.2929.2677-.4394.588-.4394.961 0 .3161.0938.5585.2814.7261.1886.1707.51.3119.9673.4257.6344.1507 1.0011.2571 1.1001.3193.0991.0611.1486.1517.1486.2697 0 .1233-.0611.216-.1834.2782-.1222.0611-.2876.0927-.4952.0927-.353 0-.5943-.0706-.7261-.2118-.0737-.079-.1222-.2118-.1443-.3993zm2.9821-1.96h.5638v2.4858c0 .2518.059.4383.177.5595.1833.1897.5237.2761 1.0232.2593l.4994-.019v-.7893c-.0337.0032-.0695.0053-.1053.0063-.0359.0011-.0696.0021-.1022.0021-.214 0-.3425-.021-.3847-.0621-.0421-.0401-.0632-.1433-.0632-.3088v-2.1338h.6554v-.7524h-.6554v-1.1254h-1.0442v1.1254h-.5638zm5.4647 2.1749c-.1654.2192-.4025.3299-.7112.3299-.3088 0-.5469-.1107-.7134-.3299-.1665-.2202-.2498-.5321-.2498-.9378 0-.4046.0833-.7166.2498-.9357.1665-.2182.4046-.3278.7134-.3278.3087 0 .5458.1096.7112.3278.1655.2191.2477.5311.2477.9357 0 .4057-.0822.7176-.2477.9378zm.8441.5828c.3414-.4205.5121-.9273.5121-1.5206 0-.5827-.1707-1.0875-.5121-1.5153-.3404-.4268-.8578-.6407-1.5522-.6407-.6933 0-1.2107.2139-1.5522.6407-.3403.4278-.511.9326-.511 1.5153 0 .5933.1707 1.1001.511 1.5206.3415.4215.8589.6322 1.5522.6322.6944 0 1.2118-.2107 1.5522-.6322zm3.4089-3.4816c-.1908-.1075-.4078-.1613-.6523-.1613-.5311 0-.9547.1971-1.2729.5922-.3172.3952-.4753.9379-.4753 1.627 0 .5975.1613 1.0864.4826 1.469.3225.3814.7198.5721 1.1918.5721.2867 0 .5259-.0547.7187-.1633.1928-.1085.3635-.2824.5142-.5226v.5595h1.0264v-5.4532h-1.0706v1.9263c-.1181-.1897-.273-.3383-.4626-.4457zm.2592 2.8767c-.156.2213-.3825.333-.6818.333-.2992 0-.5216-.1117-.6691-.3351-.1465-.2234-.2202-.5216-.2202-.8946 0-.3457.0727-.6354.217-.8694.1444-.2329.3709-.3498.6797-.3498.2023 0 .3804.0642.5332.1928.2497.2118.3741.5659.3741 1.059 0 .3541-.077.6418-.2329.8641zm3.3193-3.4236v-.9748h-1.0706v.9748zm-1.0706.4815v4.038h1.0706v-4.038zm4.3193 2.0749v.393c-.0074.353-.1064.5964-.2982.7292-.1918.1338-.4004.2002-.628.2002-.1433 0-.2645-.04-.3646-.1201s-.1497-.2108-.1497-.3909c0-.2024.0812-.352.2445-.4489.0959-.0569.255-.1044.4774-.1444l.2371-.0443c.119-.0221.2118-.0463.2792-.0716.0685-.0264.1359-.0601.2023-.1022zm-.6407-.4932-.3593.0443c-.4078.0527-.7165.1391-.9262.2602-.3826.2224-.5743.5817-.5743 1.078 0 .3825.119.6786.3572.8873.2381.2086.5406.3129.9062.3129.2866 0 .5437-.0653.7703-.197.1907-.1106.3583-.2455.5037-.4036.0065.0819.0164.1634.0295.2445.0126.0716.0348.1486.0674.2297h1.1486v-.156c-.0695-.0316-.1212-.0727-.1559-.1222-.0348-.0485-.0559-.1422-.0633-.2813-.0052-.1823-.0073-.3383-.0073-.4668v-1.8515c0-.4868-.1718-.8177-.5153-.9937-.3425-.1749-.7355-.2624-1.1781-.2624-.6786 0-1.1581.1771-1.4373.5332-.1749.2276-.274.5174-.2961.8704h1.019c.0242-.1559.0737-.2792.1485-.3698.1033-.1244.2803-.1855.529-.1855.2224 0 .391.0316.5058.0938.1149.0632.1728.1781.1728.3435 0 .1359-.0758.235-.2265.2993-.0843.0379-.2234.0685-.4184.0927zm5.8958-1.3498c-.2656-.2192-.607-.3278-1.0243-.3278-.333 0-.609.0812-.8261.2445-.1212.0906-.2498.2403-.3857.4479v-.5891h-1.0179v4.0306h1.0516v-2.1855c0-.2497.0348-.4541.1033-.6154.1338-.3034.3793-.4552.7376-.4552.2919 0 .489.1033.5933.3109.0558.1138.0843.2771.0843.4889v2.4563h1.0822v-2.7187c0-.5068-.1328-.8693-.3983-1.0874z" fill="#000"/></svg>