<svg fill="none" height="73" viewBox="0 0 76 73" width="76" xmlns="http://www.w3.org/2000/svg" xmlns:xlink="http://www.w3.org/1999/xlink"><linearGradient id="a"><stop offset="0" stop-color="#fff200"/><stop offset="1" stop-color="#f15a29"/></linearGradient><linearGradient id="b" gradientUnits="userSpaceOnUse" x1="53.305" x2="53.305" xlink:href="#a" y1="75.742" y2="62.4927"/><linearGradient id="c" gradientUnits="userSpaceOnUse" x1="59.1286" x2="59.1286" xlink:href="#a" y1="75.7422" y2="62.4928"/><linearGradient id="d" gradientUnits="userSpaceOnUse" x1="66.6795" x2="66.6795" xlink:href="#a" y1="75.7422" y2="62.4928"/><linearGradient id="e" gradientUnits="userSpaceOnUse" x1="72.415" x2="72.415" xlink:href="#a" y1="75.7422" y2="62.4928"/><linearGradient id="f" gradientUnits="userSpaceOnUse" x1="37.8456" x2="37.8456" xlink:href="#a" y1="70.6017" y2="19.0371"/><path d="m10.6682 66.9775c-.1002 2.5575-2.1055 4.5481-4.59966 4.5481-2.63201 0-4.58709-2.1418-4.58709-4.7245 0-2.608 2.11809-4.7497 4.69983-4.7497 1.16557 0 2.30613.504 3.27116 1.411l-.75198.9325c-.73947-.6426-1.62929-1.0835-2.51918-1.0835-1.89246 0-3.44654 1.5621-3.44654 3.4897 0 1.9528 1.46636 3.4647 3.3338 3.4647 1.6794 0 2.99548-1.2347 3.25857-2.8221h-3.81001v-1.1213h5.1511zm4.3733-.6173h-.7018c-.7752 0-1.4037.6317-1.4037 1.411v3.6788h-1.2533v-6.2993h1.0277v.5292c.3384-.3402.8774-.5291 1.4789-.5291h1.3535zm5.5481 2.3932c.2956-1.2803-.6687-2.4437-1.9265-2.4437-1.0904 0-1.9676.8945-1.9676 1.978 0 1.2256 1.0717 2.1738 2.3184 1.9605.768-.1315 1.3994-.7318 1.5757-1.4948zm1.2819 2.6966h-1.0652v-.7937c-.824.8095-2.1237 1.197-3.4391.6162-.9762-.431-1.7016-1.325-1.8946-2.3791-.3733-2.0372 1.1855-3.8434 3.178-3.8434.8397 0 1.5916.34 2.1431.8943v-.7935h1.0778zm2.5262-6.6521v.3529h1.9928v1.1086h-1.9928v5.1907h-1.2407v-6.6143c0-1.3859.99-2.2047 2.2308-2.2047h1.5041l-.5014 1.1841h-1.0027c-.5514 0-.9901.441-.9901.9827zm7.353 3.9555c.2956-1.2803-.6686-2.4437-1.9265-2.4437-1.0904 0-1.9676.8945-1.9676 1.978 0 1.2256 1.0718 2.1738 2.3184 1.9605.7681-.1315 1.3995-.7318 1.5757-1.4948zm1.282 2.6966h-1.0652v-.7937c-.8241.8095-2.1238 1.197-3.4392.6162-.9762-.431-1.7015-1.325-1.8946-2.3791-.3733-2.0372 1.1855-3.8434 3.1779-3.8434.8399 0 1.5918.34 2.1432.8943v-.7935h1.0779zm6.6946-3.7291v3.7291h-1.2533v-3.7292c0-.7811-.6391-1.4111-1.4037-1.4111-.7895 0-1.4162.63-1.4162 1.411v3.7293h-1.2533v-6.2993h1.0402v.5417c.4512-.4032 1.0528-.6424 1.6794-.6424 1.4538 0 2.6069 1.1967 2.6069 2.6708m6.087 1.0326c.2957-1.2803-.6686-2.4437-1.9265-2.4437-1.0903 0-1.9676.8945-1.9676 1.978 0 1.2256 1.0718 2.1738 2.3184 1.9605.7681-.1315 1.3994-.7318 1.5757-1.4948zm1.2819 2.6966h-1.0652v-.7937c-.8239.8095-2.1236 1.197-3.439.6162-.9762-.431-1.7015-1.325-1.8946-2.3791-.3733-2.0372 1.1855-3.8434 3.178-3.8434.8397 0 1.5916.34 2.1431.8943v-.7935h1.0778z" fill="#2a2a2a"/><path d="m50.9414 62.0721v9.3771h4.7273v-1.2799h-3.4667v-8.0972z" fill="url(#b)"/><path d="m55.8828 68.2688c0 1.8121 1.4495 3.282 3.2522 3.282.8447 0 1.6136-.3549 2.1683-.8998v.7984h1.0713v-6.3358h-1.0838v.7982c-.5547-.5575-1.3111-.8997-2.1558-.8997-1.8027 0-3.2522 1.47-3.2522 3.2567zm1.2857 0c0-1.0898.8824-1.9894 1.979-1.9894 1.1093 0 1.9919.8996 1.9919 1.9894 0 1.115-.8826 2.0021-1.9919 2.0021-1.0966 0-1.979-.8871-1.979-2.0021z" fill="url(#c)"/><path d="m63.4336 62.5792v8.8702h1.0588v-.7984c.5547.5449 1.3363.8998 2.181.8998 1.7897 0 3.2519-1.4699 3.2519-3.2694 0-1.8121-1.4622-3.2693-3.2519-3.2693-.7692 0-1.4751.2916-1.992.7603v-3.1932zm1.2478 5.7022c0-1.1024.8951-1.9894 1.9792-1.9894s1.9793.887 1.9793 1.9894c0 1.0897-.8952 1.9768-1.9793 1.9768s-1.9792-.8871-1.9792-1.9768z" fill="url(#d)"/><path d="m70.3286 66.7736c0 1.1277 1.0213 1.5458 1.6516 1.7993.8696.3421 1.2605.5829 1.2605 1.0137 0 .3675-.2773.7476-.9075.7476-.5168 0-1.1977-.2661-1.5632-.4815l-.4917 1.0518c.5297.3294 1.311.6463 2.0928.6463 1.2855 0 2.1806-.8871 2.1806-1.9388 0-1.0391-.8823-1.7234-1.8909-2.0782-.6178-.2281-1.1092-.3928-1.1092-.8237 0-.3928.4286-.6336.9076-.6336.5042 0 .958.2535 1.2228.4182l.5547-.9251c-.5297-.3167-1.1093-.5575-1.8152-.5575-1.1977 0-2.0929.7097-2.0929 1.7615z" fill="url(#e)"/><path d="m35.0226 7.92221s-.0199.08287-.0452.2226c-.2337.06639-.4675.13388-.7012.20917-.3238.09811-.6433.21956-.9656.33547-.3193.12559-.641.24924-.9582.39085-.6363.27595-1.2679.58408-1.8849.932-.604.3412-1.1909.712-1.7587 1.111-.0821-.0383-.1478-.067-.1478-.067-5.8426-2.2443-11.0306.4551-11.0306.4551-.473 6.2475 2.3322 10.184 2.8893 10.8987-.1376.3869-.2666.7769-.3867 1.1696-.4324 1.4152-.7554 2.8695-.9551 4.3705-.0291.2164-.0551.4332-.0781.6503-5.3997 2.6793-6.9988 8.1723-6.9988 8.1723 4.5047 5.2096 9.7591 5.5311 9.7591 5.5311.0048-.0042.0094-.0084.0142-.0125.6688 1.2002 1.4419 2.3386 2.3104 3.4017.365.4444.7463.8749 1.1434 1.2905-1.6432 4.7219.2307 8.6531.2307 8.6531 5.0158.189 8.3119-2.2054 9.0051-2.76.5003.1686 1.0055.3214 1.5158.4539 1.5374.3975 3.1117.6333 4.6976.7035.3936.0174.7875.0248 1.1815.0222l.1908-.0008.1248-.0034.2494-.0077.2454-.0119.006.008c2.3626 3.3882 6.5191 3.8677 6.5191 3.8677 2.9572-3.1336 3.1259-6.2402 3.1257-6.913l.0002.0002s-.0002-.0218-.0007-.0443c-.0007-.0559-.0021-.0945-.0021-.0945s-.0005-.0002-.0006-.0005c-.0017-.0478-.0042-.0956-.0077-.1434.6198-.4367 1.2128-.9074 1.7716-1.4121 1.1748-1.0701 2.2079-2.2874 3.0741-3.6222.0804-.1242.1592-.2494.2366-.3756 3.3446.193 5.7042-2.081 5.7042-2.081-.5546-3.5041-2.5411-5.2137-2.9552-5.5364l.0004-.0001s-.018-.0141-.0427-.0326c-.0233-.0173-.0384-.0283-.0384-.0283h-.0006c-.0214-.015-.0457-.0301-.0725-.047.0205-.2109.0387-.4218.0513-.6325.0257-.3781.034-.7557.0367-1.1318l-.0028-.2818-.002-.1406-.0011-.0703c-.0013-.0966-.0019-.0606-.0028-.0973l-.0101-.2348-.0181-.318c-.0058-.1117-.0151-.2046-.0235-.3026-.0086-.0974-.0167-.1946-.0284-.2916l-.0337-.2909-.0402-.2895c-.0573-.3845-.1297-.7665-.2169-1.1452-.3464-1.4917-.9234-2.9196-1.7098-4.2317-.7748-1.2884-1.7378-2.4301-2.8247-3.3911-1.086-.9629-2.3032-1.7371-3.5797-2.3139-1.277-.5781-2.6183-.9486-3.9537-1.1195-.6675-.0877-1.3341-.1216-1.9911-.1144l-.2459.006-.0614.0016c-.0156.0003-.0925.0019-.084.0028l-.1027.0061-.2441.0158c-.0931.0066-.1892.0132-.2704.0223-.3372.0322-.6728.0799-1.0057.1429-1.3256.249-2.577.7312-3.6785 1.3939-1.1022.6625-2.0608 1.4941-2.8395 2.4323-.7776.939-1.3834 1.9773-1.8002 3.0539-.4169 1.0768-.6496 2.1871-.7153 3.2677-.0157.2702-.0227.5387-.0177.8046.0007.0664.0017.1327.0048.1987l.0078.2166c.0098.1295.0197.2583.0295.3868.0508.5338.1503 1.0618.2975 1.5773.2803.974.7318 1.8898 1.3331 2.704.5533.7481 1.2268 1.3984 1.9927 1.924.7001.4809 1.4709.8486 2.2842 1.0899.7739.2307 1.5433.3274 2.268.3258.0907.0009.1807-.0025.27-.0047.0484-.0011.0966-.0047.1446-.0066l.1437-.0084.2301-.0231c.0176-.0015.0424-.0048.0659-.0079l.0704-.0094c.0466-.0064.093-.0128.1395-.019.0951-.0115.1773-.0304.2635-.0465.0852-.0158.1695-.0333.2525-.0553.1668-.038.3281-.0879.4863-.1367.305-.1016.6018-.2262.8881-.3727.2762-.1428.5307-.3036.7672-.4704.067-.0486.133-.0985.1981-.1496.2544-.1996.2946-.5713.0903-.8225-.0854-.1051-.2047-.1766-.3372-.2022-.1325-.0255-.2697-.0035-.3877.0623-.0601.0335-.1209.0658-.1822.097-.2108.1025-.4317.197-.6648.2736-.2386.0763-.4821.1365-.7288.18-.1267.0182-.2541.038-.3845.047-.0651.007-.1305.0111-.1961.0125-.0649.002-.1341.0076-.1932.0043l-.1882-.0031-.2358-.0116c-.0006-.0007-.0407-.0007-.0089-.0017l-.0262-.0025-.0527-.0049c-.0352-.0036-.0704-.006-.1058-.0105-.0703-.0087-.1411-.0161-.2119-.0273-.5664-.0803-1.14-.2454-1.694-.4977-.5542-.2517-1.0856-.5988-1.5627-1.0307-.4777-.4307-.8959-.953-1.2223-1.5402-.3332-.5979-.5578-1.2507-.6631-1.9277-.054-.3452-.0764-.6947-.0668-1.044l.0132-.2872c.0009.026.0019-.013.0029-.0163l.003-.0352.0059-.0705c.0034-.0471.0084-.094.0139-.1409.0187-.188.0474-.3754.0808-.5623.2627-1.4938 1.0048-2.949 2.1557-4.0581.2889-.2776.599-.5319.9275-.7607.3322-.2289.6827-.4297 1.0479-.6004.3683-.1697.7499-.3086 1.1408-.4153.394-.106.7964-.1771 1.2027-.2123.2038-.0182.4093-.0259.6153-.0251.055-.0011.0954.0017.1388.0029l.1662.0052.103.0036c.0429.0004.0001.0012.0188.0024l.0417.0029.1661.0111c.4425.0361.8839.0988 1.3185.1975.8762.1963 1.7197.518 2.5049.9554 1.5768.8797 2.922 2.2524 3.7469 3.9087.4184.8276.7051 1.7159.8498 2.6327.0351.2296.0609.461.081.6931l.0126.1744.0084.1749c.0037.0582.0041.1167.0056.1752.0008.0577.0034.1208.0017.1654l-.0009.1509-.003.1691c-.0054.113-.0142.2978-.0195.4108-.019.2535-.0397.5068-.0738.7586-.0298.2503-.073.4988-.1178.7466-.0495.2471-.1018.4935-.1651.7375-.123.4896-.2777.9706-.4633 1.4398-.3681.9409-.8638 1.8338-1.4572 2.6583-1.1926 1.6458-2.818 2.9909-4.6669 3.8366-.9252.4204-1.9004.7278-2.9027.8944-.5004.0859-1.0077.1352-1.5171.1532l-.0937.0035-.0812.0006-.1634.0028-.2496-.0015-.1248-.0003c.0694-.0004-.0102-.0011-.008-.0017l-.051-.0015c-.2726-.0069-.5446-.0203-.8161-.0407-1.0829-.0814-2.1546-.2757-3.1975-.58-1.0403-.3019-2.0495-.7086-3.0054-1.2182-1.907-1.0244-3.614-2.4319-4.9501-4.1257-.6718-.8428-1.257-1.7506-1.7408-2.705-.4848-.9542-.8646-1.9551-1.1461-2.9779-.2789-1.0214-.4534-2.0687-.5206-3.1257l-.0123-.1975-.003-.0494-.0014-.0435-.003-.0869-.0069-.1739-.0019-.0434-.0009-.0594-.0014-.1228-.0033-.2453-.0007-.0479c.0001.0073.0001.0086.0001-.0164l.0009-.0956c-.0003-.1264.0048-.2568.0076-.3857.021-.521.0621-1.0555.1302-1.5921.0682-.5391.1564-1.0753.2645-1.6077.11-.5319.2389-1.0597.3866-1.5823.2959-1.0408.6651-2.048 1.1033-3.0004.8773-1.9053 2.0261-3.5875 3.4062-4.941.3426-.337.701-.6573 1.0741-.9598.3716-.3.7576-.5782 1.1543-.8382.3944-.2635.8045-.5016 1.2239-.7213.2079-.1131.4234-.2124.636-.3163l.325-.1444c.1079-.0492.217-.0958.3271-.1398.4366-.1859.8862-.3429 1.3394-.4888l.342-.1045c.1135-.0355.23-.0632.3448-.0956.2292-.0657.4625-.1204.6942-.1777.1155-.0305.234-.0518.3505-.0776.1173-.0245.2336-.0515.3514-.074l.3537-.0642.1765-.0325.178-.027c.1187-.018.2373-.0362.3556-.054.132-.0217.267-.0329.3994-.0533l.3978-.0482.2511-.0259.1674-.0178.0838-.0091.0995-.0067.403-.0263.2008-.013c-.0014-.001.0739-.0025.0097-.003l.0428-.0019.0859-.0039.3428-.0157c.456-.0147.9093-.0149 1.3587.0008.8981.0378 1.7805.1363 2.6382.2957 1.7149.321 3.3309.8755 4.7899 1.6008 1.4636.7194 2.7727 1.6031 3.9111 2.565l.2124.1805.2065.1841c.1391.121.2696.2481.4031.3713.1328.1239.2601.2511.3888.3756.1242.1284.2514.2531.3713.382.4828.5134.9298 1.0327 1.3317 1.5572.8092 1.0462 1.4539 2.0994 1.969 3.0958.0325.0624.0646.1243.0964.1858l.0905.1856c.0598.123.1206.244.175.3656.0557.1211.1126.2402.1652.359.0517.1193.1026.2369.1529.3525.1927.4664.3677.9103.5101 1.3317.237.6769.4081 1.2895.5426 1.8195.0261.103.088.1934.1745.2546.0865.0613.192.0895.2973.0796.1085-.01.2095-.0598.2837-.1399.0743-.0801.1167-.1848.119-.2942.0115-.5703-.0022-1.2407-.0682-2.0045-.0854-.9477-.2467-2.0422-.5637-3.2468-.3124-1.2052-.7771-2.5218-1.4531-3.8906-.678-1.3656-1.5629-2.7881-2.7146-4.1628-.4616-.5549-.9514-1.0855-1.4674-1.5896.7888-3.1565-.9625-5.89314-.9625-5.89314-3.0223-.19081-4.9445.94275-5.6557 1.46169-.1194-.05165-.2392-.10221-.3594-.15169-.5148-.20971-1.0435-.40467-1.5866-.57807-.5431-.17198-1.0985-.3307-1.6663-.46598-.5746-.13474-1.154-.24766-1.7371-.33851-.1031-.01554-.2068-.02976-.3104-.04421-1.3133-4.23297-5.0971-6.00295-5.0971-6.00295-4.2182 2.68921-5.0218 6.45417-5.0218 6.45417z" fill="url(#f)"/></svg>