<svg fill="none" height="51" viewBox="0 0 211 51" width="211" xmlns="http://www.w3.org/2000/svg"><path d="m54.3255 26.6254v-24.22619h7.5063v1.60118c0 .88084.0133 1.60143.0295 1.60143.0164 0 .4901-.29031 1.0529-.64506 6.6386-4.185177 16.2894-5.445546 24.9447-3.2576 7.798 1.97127 13.4511 6.65045 15.4611 12.79774 1.174 3.5922 1.109 7.587-.18 11.061-1.603 4.3216-4.899 7.7961-9.6531 10.1764-4.1604 2.0829-8.9104 3.1259-14.236 3.1259-4.4147 0-8.5322-.7411-12.1567-2.1877-1.4381-.574-3.2817-1.5162-4.4-2.2491l-.8624-.565v16.9937h-7.5063zm28.5563 5.7942c4.2222-.6028 7.4981-1.9512 9.9541-4.0972 1.8593-1.6243 3.1539-3.8802 3.6445-6.35.2007-1.0101.2012-3.3954.0012-4.4025-.5776-2.9066-2.2324-5.4456-4.7093-7.2259-.9985-.7175-3.0266-1.74019-4.3212-2.17849-3.6557-1.23771-8.0883-1.60426-12.1481-1.00452-7.0485 1.0411-11.8124 4.56001-13.0907 9.66851-.5639 2.254-.4631 4.6874.2821 6.814 1.6926 4.8307 6.6842 8.0454 13.7379 8.8476 1.4182.1614 5.312.1194 6.6497-.0715zm24.8852-5.7942v-24.22619h7.506v1.60118c0 .88084.016 1.60143.036 1.60143s.433-.26034.918-.57826c1.122-.7364 3.337-1.83769 4.757-2.3652 6.131-2.277633 13.617-2.6451226 20.167-.98965 10.679 2.69846 16.967 10.09149 16.374 19.24919-.454 6.9903-5.075 12.7323-12.676 15.7499-2.479.9842-5.02 1.6049-8.2 2.0031-1.679.2101-6.202.2101-7.954-.0005-4.96-.5954-9.314-2.0777-12.708-4.3263l-.714-.4727v16.9807h-7.506zm28.738 5.7585c5.847-.8789 9.968-3.25 12.133-6.9816 1.258-2.1676 1.729-5.0511 1.263-7.7283-.97-5.5645-5.829-9.41502-13.267-10.51419-4.91-.7253-10.453-.00283-14.222 1.8535-3.847 1.89499-6.162 4.72429-6.952 8.49639-.207.9904-.207 3.5361.001 4.5066.56 2.6128 1.825 4.7746 3.745 6.3991 2.644 2.2371 6.085 3.5692 10.549 4.0842 1.477.1702 5.281.105 6.75-.1157zm-113.1839 6.4263c-3.9817-.3541-7.3802-1.1436-10.27-2.386-6.5733-2.8259-10.72496-7.5955-11.85169-13.6155-.215262-1.1497-.297334-3.7401-.15781-4.9778.81368-7.2173 6.09583-12.93409 14.447-15.63538 4.4441-1.437391 9.9143-1.907079 14.8245-1.272646 8.9958 1.162656 15.8005 5.361286 18.7914 11.594926 2.4354 5.0755 2.1264 11.2406-.801 15.9805-1.3188 2.1351-3.4897 4.3386-5.727 5.8123-3.4808 2.2927-7.638 3.719-12.6873 4.3528-1.0114.1269-5.6299.2301-6.5681.1468zm5.3248-6.3113c3.9155-.4182 7.2094-1.5436 9.6877-3.3091 2.026-1.4435 3.6295-3.571 4.3489-5.7705.4212-1.2873.5046-1.8918.5046-3.6511 0-1.7541-.0823-2.3536-.5001-3.6418-1.3734-4.2345-5.3903-7.38452-11.0028-8.62789-4.921-1.09044-10.66-.71138-14.9118.98445-3.0676 1.22355-5.4887 3.20424-6.90878 5.65134-1.50965 2.6022-1.85248 6.1463-.88919 9.2007 1.03787 3.2911 3.77177 6.0453 7.53397 7.5901 2.0492.8414 4.5864 1.4279 7.0983 1.6403.9637.0815 4.0325.0409 5.0392-.0665zm154.8361 6.3141c-.157-.0179-.707-.0732-1.224-.1223-4.143-.3953-8.499-1.7123-11.693-3.5354-4.317-2.4645-7.324-5.9676-8.697-10.1313-.929-2.8177-1.087-5.9844-.445-8.8979.97-4.4054 3.635-8.14611 7.772-10.91278 5.456-3.64846 13.478-5.2690017 21.223-4.286669 6.433.815939 11.734 3.184439 15.423 6.891429 2.809 2.82312 4.424 6.13122 4.89 10.01802.122 1.0102.103 3.053-.038 4.1248-1.012 7.7182-7.091 13.6174-16.4 15.9156-2.822.6967-4.594.9077-7.914.9422-1.436.0148-2.739.0122-2.897-.0057zm4.936-6.2759c4.957-.4588 8.996-2.103 11.59-4.7164 1.756-1.7695 2.775-3.7174 3.176-6.0718.166-.97.164-2.9925-.004-3.9987-.904-5.4172-5.649-9.34418-12.681-10.49291-1.688-.27591-2.811-.36584-4.569-.36584-7.884 0-14 2.99208-16.353 7.99885-.701 1.4924-1.025 3.0324-1.025 4.8779 0 2.4351.564 4.3665 1.837 6.2908 2.336 3.5328 6.768 5.7896 12.633 6.4345 1.209.1328 4.175.1569 5.397.0439z" fill="#006b33"/></svg>