<svg fill="none" height="397" viewBox="0 0 550 397" width="550" xmlns="http://www.w3.org/2000/svg"><g stroke="#b7b7b7" stroke-miterlimit="10"><path d="m2.9834 343h545.0166"/><path d="m2.75195 223h545.24805" stroke-width=".5"/><path d="m2.75195 263h545.24805" stroke-width=".5"/><path d="m2.75195 303h545.24805" stroke-width=".5"/><path d="m2.75195 143h545.24805" stroke-width=".5"/><path d="m2.75195 183h545.24805" stroke-width=".5"/><path d="m2.75195 103h545.24805" stroke-width=".5"/><path d="m2.75195 63h545.24805" stroke-width=".5"/><path d="m2.75195 23h545.24805" stroke-width=".5"/></g><path d="m1.18395 257h5.868v-1.128h-3.948l1.932-1.632c1.416-1.152 1.944-2.028 1.944-3.132 0-1.5-1.224-2.496-2.76-2.496-1.308 0-2.28.6-3 1.596l.816.72c.576-.744 1.236-1.224 2.136-1.224.816 0 1.56.528 1.56 1.428 0 .744-.42 1.452-1.524 2.376l-3.024 2.496zm10.72895.144c2.052 0 3.504-1.764 3.504-4.272 0-2.496-1.452-4.26-3.504-4.26-2.07601 0-3.52801 1.764-3.52801 4.26 0 2.508 1.452 4.272 3.52801 4.272zm0-1.116c-1.344 0-2.29201-1.308-2.29201-3.156s.94801-3.144 2.29201-3.144c1.332 0 2.268 1.296 2.268 3.144s-.936 3.156-2.268 3.156zm8.3789 1.116c2.052 0 3.504-1.764 3.504-4.272 0-2.496-1.452-4.26-3.504-4.26-2.076 0-3.528 1.764-3.528 4.26 0 2.508 1.452 4.272 3.528 4.272zm0-1.116c-1.344 0-2.292-1.308-2.292-3.156s.948-3.144 2.292-3.144c1.332 0 2.268 1.296 2.268 3.144s-.936 3.156-2.268 3.156z" fill="#000" fill-opacity=".7"/><path d="m5.31195 177h1.212v-1.896h1.188v-1.068h-1.188v-5.28h-1.44l-3.996 5.376.132.972h4.092zm-2.892-2.964 2.892-3.9v3.9zm9.83275 3.108c2.052 0 3.504-1.764 3.504-4.272 0-2.496-1.452-4.26-3.504-4.26-2.076 0-3.52797 1.764-3.52797 4.26 0 2.508 1.45197 4.272 3.52797 4.272zm0-1.116c-1.344 0-2.29197-1.308-2.29197-3.156s.94797-3.144 2.29197-3.144c1.332 0 2.268 1.296 2.268 3.144s-.936 3.156-2.268 3.156zm8.3789 1.116c2.052 0 3.504-1.764 3.504-4.272 0-2.496-1.452-4.26-3.504-4.26-2.076 0-3.528 1.764-3.528 4.26 0 2.508 1.452 4.272 3.528 4.272zm0-1.116c-1.344 0-2.292-1.308-2.292-3.156s.948-3.144 2.292-3.144c1.332 0 2.268 1.296 2.268 3.144s-.936 3.156-2.268 3.156z" fill="#000" fill-opacity=".7"/><path d="m2.93595 297h1.212v-8.244h-.972l-2.172 1.476.504.876 1.428-.912zm6.58632.144c2.05203 0 3.50403-1.764 3.50403-4.272 0-2.496-1.452-4.26-3.50403-4.26-2.076 0-3.528 1.764-3.528 4.26 0 2.508 1.452 4.272 3.528 4.272zm0-1.116c-1.344 0-2.292-1.308-2.292-3.156s.948-3.144 2.292-3.144c1.33203 0 2.26803 1.296 2.26803 3.144s-.936 3.156-2.26803 3.156zm8.37893 1.116c2.052 0 3.504-1.764 3.504-4.272 0-2.496-1.452-4.26-3.504-4.26-2.076 0-3.528 1.764-3.528 4.26 0 2.508 1.452 4.272 3.528 4.272zm0-1.116c-1.344 0-2.292-1.308-2.292-3.156s.948-3.144 2.292-3.144c1.332 0 2.268 1.296 2.268 3.144s-.936 3.156-2.268 3.156z" fill="#000" fill-opacity=".7"/><path d="m4.95195 335.144c2.052 0 3.504-1.764 3.504-4.272 0-2.496-1.452-4.26-3.504-4.26-2.076 0-3.528 1.764-3.528 4.26 0 2.508 1.452 4.272 3.528 4.272zm0-1.116c-1.344 0-2.292-1.308-2.292-3.156s.948-3.144 2.292-3.144c1.332 0 2.268 1.296 2.268 3.144s-.936 3.156-2.268 3.156z" fill="#000" fill-opacity=".7"/><path d="m5.176 91.792c-.9 0-1.728.396-2.232 1.08.048-1.812.984-3.168 2.232-3.168.756 0 1.284.324 1.788.792l.624-.936c-.624-.564-1.38-.948-2.4-.948-2.004 0-3.48 1.896-3.48 4.392 0 2.352.96 4.14 3.252 4.14 1.74 0 2.988-1.188 2.988-2.772 0-1.632-1.26-2.58-2.772-2.58zm-.252 4.32c-1.092 0-1.68-.792-1.884-1.98.228-.792.948-1.32 1.86-1.32.996 0 1.812.612 1.812 1.62 0 .828-.672 1.68-1.788 1.68zm7.7877 1.032c2.052 0 3.504-1.764 3.504-4.272 0-2.496-1.452-4.26-3.504-4.26-2.076 0-3.52798 1.764-3.52798 4.26 0 2.508 1.45198 4.272 3.52798 4.272zm0-1.116c-1.344 0-2.292-1.308-2.292-3.156s.948-3.144 2.292-3.144c1.332 0 2.268 1.296 2.268 3.144s-.936 3.156-2.268 3.156zm8.3789 1.116c2.052 0 3.504-1.764 3.504-4.272 0-2.496-1.452-4.26-3.504-4.26-2.076 0-3.528 1.764-3.528 4.26 0 2.508 1.452 4.272 3.528 4.272zm0-1.116c-1.344 0-2.292-1.308-2.292-3.156s.948-3.144 2.292-3.144c1.332 0 2.268 1.296 2.268 3.144s-.936 3.156-2.268 3.156z" fill="#000" fill-opacity=".7"/><path d="m3.456 217.144c1.788 0 2.964-1.008 2.964-2.4 0-1.152-.9-1.776-1.752-1.968.864-.264 1.572-.9 1.572-1.92 0-1.32-1.152-2.244-2.82-2.244-1.344 0-2.28.624-2.916 1.452l.756.744c.576-.672 1.212-1.104 2.076-1.104.96 0 1.68.552 1.68 1.32 0 .828-.732 1.284-1.776 1.284l-.9-.012v1.08h.9c1.224-.012 1.944.432 1.944 1.284 0 .828-.684 1.392-1.752 1.392-.948 0-1.752-.444-2.304-1.116l-.78.804c.636.792 1.704 1.404 3.108 1.404zm7.869 0c2.052 0 3.504-1.764 3.504-4.272 0-2.496-1.452-4.26-3.504-4.26-2.076 0-3.528 1.764-3.528 4.26 0 2.508 1.452 4.272 3.528 4.272zm0-1.116c-1.344 0-2.292-1.308-2.292-3.156s.948-3.144 2.292-3.144c1.332 0 2.268 1.296 2.268 3.144s-.936 3.156-2.268 3.156zm8.3789 1.116c2.052 0 3.504-1.764 3.504-4.272 0-2.496-1.452-4.26-3.504-4.26-2.076 0-3.528 1.764-3.528 4.26 0 2.508 1.452 4.272 3.528 4.272zm0-1.116c-1.344 0-2.292-1.308-2.292-3.156s.948-3.144 2.292-3.144c1.332 0 2.268 1.296 2.268 3.144s-.936 3.156-2.268 3.156z" fill="#000" fill-opacity=".7"/><path d="m3.6 137.144c1.776 0 3.036-1.092 3.036-2.76 0-1.644-1.236-2.58-2.724-2.58-.72 0-1.272.24-1.704.528l.072-2.448h3.912v-1.128h-5.064l-.12 4.308.852.384c.492-.372 1.068-.6 1.752-.6 1.068 0 1.812.636 1.812 1.584 0 .924-.732 1.644-1.8 1.644-.876 0-1.644-.432-2.268-1.092l-.756.864c.696.768 1.692 1.296 3 1.296zm7.8305 0c2.052 0 3.504-1.764 3.504-4.272 0-2.496-1.452-4.26-3.504-4.26-2.07603 0-3.52803 1.764-3.52803 4.26 0 2.508 1.452 4.272 3.52803 4.272zm0-1.116c-1.344 0-2.29203-1.308-2.29203-3.156s.94803-3.144 2.29203-3.144c1.332 0 2.268 1.296 2.268 3.144s-.936 3.156-2.268 3.156zm8.3789 1.116c2.052 0 3.504-1.764 3.504-4.272 0-2.496-1.452-4.26-3.504-4.26-2.076 0-3.528 1.764-3.528 4.26 0 2.508 1.452 4.272 3.528 4.272zm0-1.116c-1.344 0-2.292-1.308-2.292-3.156s.948-3.144 2.292-3.144c1.332 0 2.268 1.296 2.268 3.144s-.936 3.156-2.268 3.156z" fill="#000" fill-opacity=".7"/><path d="m4.51995 57.144c1.728 0 3.108-.888 3.108-2.316 0-1.008-.756-1.74-1.74-2.088.84-.324 1.536-.936 1.536-1.92 0-1.368-1.368-2.208-2.904-2.208-1.488 0-2.892.804-2.892 2.208 0 .936.636 1.56 1.536 1.92-.984.336-1.752 1.068-1.752 2.088 0 1.416 1.368 2.316 3.108 2.316zm0-4.86c-.732-.048-1.68-.48-1.68-1.332 0-.732.732-1.272 1.68-1.272s1.692.54 1.692 1.272c0 .828-.936 1.284-1.692 1.332zm0 3.792c-1.056 0-1.884-.552-1.884-1.356 0-.876 1.08-1.404 1.884-1.428.816.024 1.884.552 1.884 1.428 0 .804-.828 1.356-1.884 1.356zm7.97885 1.068c2.052 0 3.504-1.764 3.504-4.272 0-2.496-1.452-4.26-3.504-4.26-2.076 0-3.52797 1.764-3.52797 4.26 0 2.508 1.45197 4.272 3.52797 4.272zm0-1.116c-1.344 0-2.292-1.308-2.292-3.156s.948-3.144 2.292-3.144c1.332 0 2.268 1.296 2.268 3.144s-.936 3.156-2.268 3.156zm8.3789 1.116c2.052 0 3.504-1.764 3.504-4.272 0-2.496-1.452-4.26-3.504-4.26-2.076 0-3.528 1.764-3.528 4.26 0 2.508 1.452 4.272 3.528 4.272zm0-1.116c-1.344 0-2.292-1.308-2.292-3.156s.948-3.144 2.292-3.144c1.332 0 2.268 1.296 2.268 3.144s-.936 3.156-2.268 3.156z" fill="#000" fill-opacity=".7"/><path d="m4.30395 8.612c-1.74 0-2.988 1.188-2.988 2.772 0 1.632 1.26 2.58 2.772 2.58.9 0 1.728-.396 2.232-1.08-.048 1.812-.984 3.168-2.232 3.168-.756 0-1.284-.324-1.788-.792l-.624.936c.624.564 1.38.948 2.4.948 2.004 0 3.48-1.896 3.48-4.392 0-2.352-.96-4.14-3.252-4.14zm.06 4.332c-.996 0-1.812-.612-1.812-1.62 0-.828.672-1.68 1.788-1.68 1.092 0 1.68.792 1.884 1.98-.228.792-.948 1.32-1.86 1.32zm8.09975 4.2c2.052 0 3.504-1.764 3.504-4.272 0-2.496-1.452-4.26-3.504-4.26-2.076 0-3.52803 1.764-3.52803 4.26 0 2.508 1.45203 4.272 3.52803 4.272zm0-1.116c-1.344 0-2.292-1.308-2.292-3.156s.948-3.144 2.292-3.144c1.332 0 2.268 1.296 2.268 3.144s-.936 3.156-2.268 3.156zm8.3789 1.116c2.052 0 3.504-1.764 3.504-4.272 0-2.496-1.452-4.26-3.504-4.26-2.076 0-3.528 1.764-3.528 4.26 0 2.508 1.452 4.272 3.528 4.272zm0-1.116c-1.344 0-2.292-1.308-2.292-3.156s.948-3.144 2.292-3.144c1.332 0 2.268 1.296 2.268 3.144s-.936 3.156-2.268 3.156z" fill="#000" fill-opacity=".7"/><path d="m42.684 389h9.09v-2.052h-5.598l2.592-2.088c2.124-1.638 2.88-2.952 2.88-4.59 0-2.286-1.872-3.852-4.32-3.852-1.998 0-3.492.882-4.662 2.412l1.458 1.35c.9-1.08 1.836-1.746 3.132-1.746 1.116 0 2.106.72 2.106 1.89 0 1.008-.558 1.944-2.124 3.204l-4.554 3.636zm16.3751.216c3.168 0 5.418-2.646 5.418-6.408 0-3.744-2.25-6.39-5.418-6.39-3.186 0-5.418 2.646-5.418 6.39 0 3.762 2.232 6.408 5.418 6.408zm0-2.052c-1.836 0-3.132-1.8-3.132-4.356s1.296-4.338 3.132-4.338 3.114 1.782 3.114 4.338-1.278 4.356-3.114 4.356zm9.775 1.836h2.25v-12.366h-1.8l-3.474 2.358.9 1.584 2.124-1.35zm10.3905-7.902c-1.26 0-2.43.522-3.204 1.386.162-2.412 1.386-4.086 3.132-4.086 1.08 0 1.854.45 2.61 1.116l1.098-1.71c-.99-.846-2.16-1.386-3.708-1.386-3.204 0-5.454 2.79-5.454 6.606 0 3.564 1.548 6.192 5.076 6.192 2.664 0 4.608-1.764 4.608-4.212 0-2.466-1.89-3.906-4.158-3.906zm-.558 6.21c-1.494 0-2.268-1.026-2.538-2.682.36-1.026 1.296-1.692 2.502-1.692 1.35 0 2.466.81 2.466 2.16 0 1.134-.918 2.214-2.43 2.214z" fill="#0f0b47"/><path d="m119.684 389h9.09v-2.052h-5.598l2.592-2.088c2.124-1.638 2.88-2.952 2.88-4.59 0-2.286-1.872-3.852-4.32-3.852-1.998 0-3.492.882-4.662 2.412l1.458 1.35c.9-1.08 1.836-1.746 3.132-1.746 1.116 0 2.106.72 2.106 1.89 0 1.008-.558 1.944-2.124 3.204l-4.554 3.636zm16.375.216c3.168 0 5.418-2.646 5.418-6.408 0-3.744-2.25-6.39-5.418-6.39-3.186 0-5.418 2.646-5.418 6.39 0 3.762 2.232 6.408 5.418 6.408zm0-2.052c-1.836 0-3.132-1.8-3.132-4.356s1.296-4.338 3.132-4.338 3.114 1.782 3.114 4.338-1.278 4.356-3.114 4.356zm9.775 1.836h2.25v-12.366h-1.8l-3.474 2.358.9 1.584 2.124-1.35zm5.639 0h2.556l5.094-10.674v-1.692h-8.928v2.052h6.318z" fill="#0f0b47"/><path d="m194.684 389h9.09v-2.052h-5.598l2.592-2.088c2.124-1.638 2.88-2.952 2.88-4.59 0-2.286-1.872-3.852-4.32-3.852-1.998 0-3.492.882-4.662 2.412l1.458 1.35c.9-1.08 1.836-1.746 3.132-1.746 1.116 0 2.106.72 2.106 1.89 0 1.008-.558 1.944-2.124 3.204l-4.554 3.636zm16.375.216c3.168 0 5.418-2.646 5.418-6.408 0-3.744-2.25-6.39-5.418-6.39-3.186 0-5.418 2.646-5.418 6.39 0 3.762 2.232 6.408 5.418 6.408zm0-2.052c-1.836 0-3.132-1.8-3.132-4.356s1.296-4.338 3.132-4.338 3.114 1.782 3.114 4.338-1.278 4.356-3.114 4.356zm9.775 1.836h2.25v-12.366h-1.8l-3.474 2.358.9 1.584 2.124-1.35zm9.617.216c2.664 0 4.824-1.296 4.824-3.51 0-1.458-1.062-2.538-2.52-3.096 1.242-.504 2.196-1.422 2.196-2.862 0-2.088-2.106-3.33-4.5-3.33-2.322 0-4.482 1.206-4.482 3.33 0 1.404.918 2.322 2.196 2.862-1.44.522-2.52 1.602-2.52 3.096 0 2.196 2.124 3.51 4.806 3.51zm0-7.416c-1.026-.054-2.268-.666-2.268-1.764 0-.972.972-1.71 2.268-1.71s2.286.738 2.286 1.71c0 1.08-1.224 1.71-2.286 1.764zm0 5.49c-1.458 0-2.556-.72-2.556-1.8 0-1.152 1.422-1.836 2.556-1.89 1.152.054 2.556.738 2.556 1.89 0 1.08-1.116 1.8-2.556 1.8z" fill="#0f0b47"/><path d="m271.684 389h9.09v-2.052h-5.598l2.592-2.088c2.124-1.638 2.88-2.952 2.88-4.59 0-2.286-1.872-3.852-4.32-3.852-1.998 0-3.492.882-4.662 2.412l1.458 1.35c.9-1.08 1.836-1.746 3.132-1.746 1.116 0 2.106.72 2.106 1.89 0 1.008-.558 1.944-2.124 3.204l-4.554 3.636zm16.375.216c3.168 0 5.418-2.646 5.418-6.408 0-3.744-2.25-6.39-5.418-6.39-3.186 0-5.418 2.646-5.418 6.39 0 3.762 2.232 6.408 5.418 6.408zm0-2.052c-1.836 0-3.132-1.8-3.132-4.356s1.296-4.338 3.132-4.338 3.114 1.782 3.114 4.338-1.278 4.356-3.114 4.356zm9.775 1.836h2.25v-12.366h-1.8l-3.474 2.358.9 1.584 2.124-1.35zm9.293-12.582c-2.664 0-4.608 1.764-4.608 4.212 0 2.466 1.89 3.906 4.158 3.906 1.26 0 2.43-.522 3.204-1.386-.162 2.412-1.386 4.086-3.132 4.086-1.08 0-1.854-.45-2.61-1.116l-1.098 1.71c.99.846 2.16 1.386 3.708 1.386 3.204 0 5.454-2.79 5.454-6.606 0-3.564-1.548-6.192-5.076-6.192zm.144 6.282c-1.35 0-2.466-.81-2.466-2.16 0-1.134.918-2.214 2.43-2.214 1.494 0 2.268 1.026 2.538 2.682-.36 1.026-1.296 1.692-2.502 1.692z" fill="#0f0b47"/><path d="m348.684 389h9.09v-2.052h-5.598l2.592-2.088c2.124-1.638 2.88-2.952 2.88-4.59 0-2.286-1.872-3.852-4.32-3.852-1.998 0-3.492.882-4.662 2.412l1.458 1.35c.9-1.08 1.836-1.746 3.132-1.746 1.116 0 2.106.72 2.106 1.89 0 1.008-.558 1.944-2.124 3.204l-4.554 3.636zm16.375.216c3.168 0 5.418-2.646 5.418-6.408 0-3.744-2.25-6.39-5.418-6.39-3.186 0-5.418 2.646-5.418 6.39 0 3.762 2.232 6.408 5.418 6.408zm0-2.052c-1.836 0-3.132-1.8-3.132-4.356s1.296-4.338 3.132-4.338 3.114 1.782 3.114 4.338-1.278 4.356-3.114 4.356zm7.039 1.836h9.09v-2.052h-5.598l2.592-2.088c2.124-1.638 2.88-2.952 2.88-4.59 0-2.286-1.872-3.852-4.32-3.852-1.998 0-3.492.882-4.662 2.412l1.458 1.35c.9-1.08 1.836-1.746 3.132-1.746 1.116 0 2.106.72 2.106 1.89 0 1.008-.558 1.944-2.124 3.204l-4.554 3.636zm16.375.216c3.168 0 5.418-2.646 5.418-6.408 0-3.744-2.25-6.39-5.418-6.39-3.186 0-5.418 2.646-5.418 6.39 0 3.762 2.232 6.408 5.418 6.408zm0-2.052c-1.836 0-3.132-1.8-3.132-4.356s1.296-4.338 3.132-4.338 3.114 1.782 3.114 4.338-1.278 4.356-3.114 4.356z" fill="#0f0b47"/><path d="m429.684 389h9.09v-2.052h-5.598l2.592-2.088c2.124-1.638 2.88-2.952 2.88-4.59 0-2.286-1.872-3.852-4.32-3.852-1.998 0-3.492.882-4.662 2.412l1.458 1.35c.9-1.08 1.836-1.746 3.132-1.746 1.116 0 2.106.72 2.106 1.89 0 1.008-.558 1.944-2.124 3.204l-4.554 3.636zm16.375.216c3.168 0 5.418-2.646 5.418-6.408 0-3.744-2.25-6.39-5.418-6.39-3.186 0-5.418 2.646-5.418 6.39 0 3.762 2.232 6.408 5.418 6.408zm0-2.052c-1.836 0-3.132-1.8-3.132-4.356s1.296-4.338 3.132-4.338 3.114 1.782 3.114 4.338-1.278 4.356-3.114 4.356zm7.039 1.836h9.09v-2.052h-5.598l2.592-2.088c2.124-1.638 2.88-2.952 2.88-4.59 0-2.286-1.872-3.852-4.32-3.852-1.998 0-3.492.882-4.662 2.412l1.458 1.35c.9-1.08 1.836-1.746 3.132-1.746 1.116 0 2.106.72 2.106 1.89 0 1.008-.558 1.944-2.124 3.204l-4.554 3.636zm13.441 0h2.25v-12.366h-1.8l-3.474 2.358.9 1.584 2.124-1.35z" fill="#0f0b47"/><path d="m505.684 389h9.09v-2.052h-5.598l2.592-2.088c2.124-1.638 2.88-2.952 2.88-4.59 0-2.286-1.872-3.852-4.32-3.852-1.998 0-3.492.882-4.662 2.412l1.458 1.35c.9-1.08 1.836-1.746 3.132-1.746 1.116 0 2.106.72 2.106 1.89 0 1.008-.558 1.944-2.124 3.204l-4.554 3.636zm16.375.216c3.168 0 5.418-2.646 5.418-6.408 0-3.744-2.25-6.39-5.418-6.39-3.186 0-5.418 2.646-5.418 6.39 0 3.762 2.232 6.408 5.418 6.408zm0-2.052c-1.836 0-3.132-1.8-3.132-4.356s1.296-4.338 3.132-4.338 3.114 1.782 3.114 4.338-1.278 4.356-3.114 4.356zm7.039 1.836h9.09v-2.052h-5.598l2.592-2.088c2.124-1.638 2.88-2.952 2.88-4.59 0-2.286-1.872-3.852-4.32-3.852-1.998 0-3.492.882-4.662 2.412l1.458 1.35c.9-1.08 1.836-1.746 3.132-1.746 1.116 0 2.106.72 2.106 1.89 0 1.008-.558 1.944-2.124 3.204l-4.554 3.636zm10.705 0h9.09v-2.052h-5.598l2.592-2.088c2.124-1.638 2.88-2.952 2.88-4.59 0-2.286-1.872-3.852-4.32-3.852-1.998 0-3.492.882-4.662 2.412l1.458 1.35c.9-1.08 1.836-1.746 3.132-1.746 1.116 0 2.106.72 2.106 1.89 0 1.008-.558 1.944-2.124 3.204l-4.554 3.636z" fill="#0f0b47"/><circle cx="444" cy="82" fill="#5c2cff" r="4"/><circle cx="371" cy="123" fill="#5c2cff" r="4"/><circle cx="296" cy="155" fill="#5c2cff" r="4"/><circle cx="217" cy="216" fill="#5c2cff" r="4"/><circle cx="140" cy="282" fill="#5c2cff" r="4"/><path d="m63 323 77-40.5 77-66 77-61 77.5-32.5 76.5-43.5 76.5-40.5" stroke="#5c2cff" stroke-width="3"/><circle cx="524" cy="39" fill="#5c2cff" r="4"/><circle cx="63" cy="323" fill="#5c2cff" r="4"/><circle cx="63" cy="336" fill="#92efdf" r="4"/><circle cx="140" cy="333" fill="#92efdf" r="4"/><circle cx="217" cy="324" fill="#92efdf" r="4"/><circle cx="294" cy="320" fill="#92efdf" r="4"/><circle cx="371" cy="308" fill="#92efdf" r="4"/><circle cx="448" cy="295" fill="#92efdf" r="4"/><path d="m63.5 335 76-2.5 77-8 77-4 77-12 77.5-14 78-13" stroke="#92efdf" stroke-width="3"/><circle cx="524" cy="282" fill="#92efdf" r="4"/><circle cx="63" cy="335" fill="#d62293" r="4"/><circle cx="140" cy="324" fill="#d62293" r="4"/><circle cx="217" cy="312" fill="#d62293" r="4"/><circle cx="294" cy="290" fill="#d62293" r="4"/><circle cx="371" cy="286" fill="#d62293" r="4"/><circle cx="448" cy="280" fill="#d62293" r="4"/><path d="m63.5 335.5 76.5-10.5 77-12.5 77-22.5 77-4 77-6.5 77-4" stroke="#d62293" stroke-width="3"/><circle cx="525" cy="275" fill="#d62293" r="4"/></svg>