<svg width="548" height="397" viewBox="0 0 548 397" fill="none" xmlns="http://www.w3.org/2000/svg">
<path d="M0.983398 347H546" stroke="#B7B7B7" stroke-miterlimit="10"/>
<path d="M0.751953 239H546" stroke="#B7B7B7" stroke-width="0.5" stroke-miterlimit="10"/>
<path d="M0.751953 275H546" stroke="#B7B7B7" stroke-width="0.5" stroke-miterlimit="10"/>
<path d="M0.751953 311H546" stroke="#B7B7B7" stroke-width="0.5" stroke-miterlimit="10"/>
<path d="M0.751953 167H546" stroke="#B7B7B7" stroke-width="0.5" stroke-miterlimit="10"/>
<path d="M0.751953 203H546" stroke="#B7B7B7" stroke-width="0.5" stroke-miterlimit="10"/>
<path d="M0.751953 95H546" stroke="#B7B7B7" stroke-width="0.5" stroke-miterlimit="10"/>
<path d="M0.751953 131H546" stroke="#B7B7B7" stroke-width="0.5" stroke-miterlimit="10"/>
<path d="M0.751953 59H546" stroke="#B7B7B7" stroke-width="0.5" stroke-miterlimit="10"/>
<path d="M0.751953 23H546" stroke="#B7B7B7" stroke-width="0.5" stroke-miterlimit="10"/>
<path d="M1.432 269H7.3V267.872H3.352L5.284 266.24C6.7 265.088 7.228 264.212 7.228 263.108C7.228 261.608 6.004 260.612 4.468 260.612C3.16 260.612 2.188 261.212 1.468 262.208L2.284 262.928C2.86 262.184 3.52 261.704 4.42 261.704C5.236 261.704 5.98 262.232 5.98 263.132C5.98 263.876 5.56 264.584 4.456 265.508L1.432 268.004V269ZM12.1609 269.144C14.2129 269.144 15.6649 267.38 15.6649 264.872C15.6649 262.376 14.2129 260.612 12.1609 260.612C10.0849 260.612 8.63294 262.376 8.63294 264.872C8.63294 267.38 10.0849 269.144 12.1609 269.144ZM12.1609 268.028C10.8169 268.028 9.86894 266.72 9.86894 264.872C9.86894 263.024 10.8169 261.728 12.1609 261.728C13.4929 261.728 14.4289 263.024 14.4289 264.872C14.4289 266.72 13.4929 268.028 12.1609 268.028ZM20.5398 269.144C22.5918 269.144 24.0438 267.38 24.0438 264.872C24.0438 262.376 22.5918 260.612 20.5398 260.612C18.4638 260.612 17.0118 262.376 17.0118 264.872C17.0118 267.38 18.4638 269.144 20.5398 269.144ZM20.5398 268.028C19.1958 268.028 18.2478 266.72 18.2478 264.872C18.2478 263.024 19.1958 261.728 20.5398 261.728C21.8718 261.728 22.8078 263.024 22.8078 264.872C22.8078 266.72 21.8718 268.028 20.5398 268.028Z" fill="black" fill-opacity="0.7"/>
<path d="M5.56 197H6.772V195.104H7.96V194.036H6.772V188.756H5.332L1.336 194.132L1.468 195.104H5.56V197ZM2.668 194.036L5.56 190.136V194.036H2.668ZM12.5008 197.144C14.5528 197.144 16.0048 195.38 16.0048 192.872C16.0048 190.376 14.5528 188.612 12.5008 188.612C10.4248 188.612 8.97278 190.376 8.97278 192.872C8.97278 195.38 10.4248 197.144 12.5008 197.144ZM12.5008 196.028C11.1568 196.028 10.2088 194.72 10.2088 192.872C10.2088 191.024 11.1568 189.728 12.5008 189.728C13.8328 189.728 14.7688 191.024 14.7688 192.872C14.7688 194.72 13.8328 196.028 12.5008 196.028ZM20.8797 197.144C22.9317 197.144 24.3837 195.38 24.3837 192.872C24.3837 190.376 22.9317 188.612 20.8797 188.612C18.8037 188.612 17.3517 190.376 17.3517 192.872C17.3517 195.38 18.8037 197.144 20.8797 197.144ZM20.8797 196.028C19.5357 196.028 18.5877 194.72 18.5877 192.872C18.5877 191.024 19.5357 189.728 20.8797 189.728C22.2117 189.728 23.1477 191.024 23.1477 192.872C23.1477 194.72 22.2117 196.028 20.8797 196.028Z" fill="black" fill-opacity="0.7"/>
<path d="M3.184 305H4.396V296.756H3.424L1.252 298.232L1.756 299.108L3.184 298.196V305ZM9.77031 305.144C11.8223 305.144 13.2743 303.38 13.2743 300.872C13.2743 298.376 11.8223 296.612 9.77031 296.612C7.69431 296.612 6.24231 298.376 6.24231 300.872C6.24231 303.38 7.69431 305.144 9.77031 305.144ZM9.77031 304.028C8.42631 304.028 7.47831 302.72 7.47831 300.872C7.47831 299.024 8.42631 297.728 9.77031 297.728C11.1023 297.728 12.0383 299.024 12.0383 300.872C12.0383 302.72 11.1023 304.028 9.77031 304.028ZM18.1492 305.144C20.2012 305.144 21.6532 303.38 21.6532 300.872C21.6532 298.376 20.2012 296.612 18.1492 296.612C16.0732 296.612 14.6212 298.376 14.6212 300.872C14.6212 303.38 16.0732 305.144 18.1492 305.144ZM18.1492 304.028C16.8052 304.028 15.8572 302.72 15.8572 300.872C15.8572 299.024 16.8052 297.728 18.1492 297.728C19.4812 297.728 20.4172 299.024 20.4172 300.872C20.4172 302.72 19.4812 304.028 18.1492 304.028Z" fill="black" fill-opacity="0.7"/>
<path d="M5.2 341.144C7.252 341.144 8.704 339.38 8.704 336.872C8.704 334.376 7.252 332.612 5.2 332.612C3.124 332.612 1.672 334.376 1.672 336.872C1.672 339.38 3.124 341.144 5.2 341.144ZM5.2 340.028C3.856 340.028 2.908 338.72 2.908 336.872C2.908 335.024 3.856 333.728 5.2 333.728C6.532 333.728 7.468 335.024 7.468 336.872C7.468 338.72 6.532 340.028 5.2 340.028Z" fill="black" fill-opacity="0.7"/>
<path d="M2.188 89H3.58L7.06 81.668V80.756H1.288V81.884H5.632L2.188 89ZM11.6102 89.144C13.6622 89.144 15.1142 87.38 15.1142 84.872C15.1142 82.376 13.6622 80.612 11.6102 80.612C9.53416 80.612 8.08216 82.376 8.08216 84.872C8.08216 87.38 9.53416 89.144 11.6102 89.144ZM11.6102 88.028C10.2662 88.028 9.31816 86.72 9.31816 84.872C9.31816 83.024 10.2662 81.728 11.6102 81.728C12.9422 81.728 13.8782 83.024 13.8782 84.872C13.8782 86.72 12.9422 88.028 11.6102 88.028ZM19.9891 89.144C22.0411 89.144 23.4931 87.38 23.4931 84.872C23.4931 82.376 22.0411 80.612 19.9891 80.612C17.9131 80.612 16.4611 82.376 16.4611 84.872C16.4611 87.38 17.9131 89.144 19.9891 89.144ZM19.9891 88.028C18.6451 88.028 17.6971 86.72 17.6971 84.872C17.6971 83.024 18.6451 81.728 19.9891 81.728C21.3211 81.728 22.2571 83.024 22.2571 84.872C22.2571 86.72 21.3211 88.028 19.9891 88.028Z" fill="black" fill-opacity="0.7"/>
<path d="M5.176 119.792C4.276 119.792 3.448 120.188 2.944 120.872C2.992 119.06 3.928 117.704 5.176 117.704C5.932 117.704 6.46 118.028 6.964 118.496L7.588 117.56C6.964 116.996 6.208 116.612 5.188 116.612C3.184 116.612 1.708 118.508 1.708 121.004C1.708 123.356 2.668 125.144 4.96 125.144C6.7 125.144 7.948 123.956 7.948 122.372C7.948 120.74 6.688 119.792 5.176 119.792ZM4.924 124.112C3.832 124.112 3.244 123.32 3.04 122.132C3.268 121.34 3.988 120.812 4.9 120.812C5.896 120.812 6.712 121.424 6.712 122.432C6.712 123.26 6.04 124.112 4.924 124.112ZM12.7117 125.144C14.7637 125.144 16.2157 123.38 16.2157 120.872C16.2157 118.376 14.7637 116.612 12.7117 116.612C10.6357 116.612 9.18372 118.376 9.18372 120.872C9.18372 123.38 10.6357 125.144 12.7117 125.144ZM12.7117 124.028C11.3677 124.028 10.4197 122.72 10.4197 120.872C10.4197 119.024 11.3677 117.728 12.7117 117.728C14.0437 117.728 14.9797 119.024 14.9797 120.872C14.9797 122.72 14.0437 124.028 12.7117 124.028ZM21.0906 125.144C23.1426 125.144 24.5946 123.38 24.5946 120.872C24.5946 118.376 23.1426 116.612 21.0906 116.612C19.0146 116.612 17.5626 118.376 17.5626 120.872C17.5626 123.38 19.0146 125.144 21.0906 125.144ZM21.0906 124.028C19.7466 124.028 18.7986 122.72 18.7986 120.872C18.7986 119.024 19.7466 117.728 21.0906 117.728C22.4226 117.728 23.3586 119.024 23.3586 120.872C23.3586 122.72 22.4226 124.028 21.0906 124.028Z" fill="black" fill-opacity="0.7"/>
<path d="M4.456 233.144C6.244 233.144 7.42 232.136 7.42 230.744C7.42 229.592 6.52 228.968 5.668 228.776C6.532 228.512 7.24 227.876 7.24 226.856C7.24 225.536 6.088 224.612 4.42 224.612C3.076 224.612 2.14 225.236 1.504 226.064L2.26 226.808C2.836 226.136 3.472 225.704 4.336 225.704C5.296 225.704 6.016 226.256 6.016 227.024C6.016 227.852 5.284 228.308 4.24 228.308L3.34 228.296V229.376H4.24C5.464 229.364 6.184 229.808 6.184 230.66C6.184 231.488 5.5 232.052 4.432 232.052C3.484 232.052 2.68 231.608 2.128 230.936L1.348 231.74C1.984 232.532 3.052 233.144 4.456 233.144ZM12.325 233.144C14.377 233.144 15.829 231.38 15.829 228.872C15.829 226.376 14.377 224.612 12.325 224.612C10.249 224.612 8.797 226.376 8.797 228.872C8.797 231.38 10.249 233.144 12.325 233.144ZM12.325 232.028C10.981 232.028 10.033 230.72 10.033 228.872C10.033 227.024 10.981 225.728 12.325 225.728C13.657 225.728 14.593 227.024 14.593 228.872C14.593 230.72 13.657 232.028 12.325 232.028ZM20.7039 233.144C22.7559 233.144 24.2079 231.38 24.2079 228.872C24.2079 226.376 22.7559 224.612 20.7039 224.612C18.6279 224.612 17.1759 226.376 17.1759 228.872C17.1759 231.38 18.6279 233.144 20.7039 233.144ZM20.7039 232.028C19.3599 232.028 18.4119 230.72 18.4119 228.872C18.4119 227.024 19.3599 225.728 20.7039 225.728C22.0359 225.728 22.9719 227.024 22.9719 228.872C22.9719 230.72 22.0359 232.028 20.7039 232.028Z" fill="black" fill-opacity="0.7"/>
<path d="M4.6 161.144C6.376 161.144 7.636 160.052 7.636 158.384C7.636 156.74 6.4 155.804 4.912 155.804C4.192 155.804 3.64 156.044 3.208 156.332L3.28 153.884H7.192V152.756H2.128L2.008 157.064L2.86 157.448C3.352 157.076 3.928 156.848 4.612 156.848C5.68 156.848 6.424 157.484 6.424 158.432C6.424 159.356 5.692 160.076 4.624 160.076C3.748 160.076 2.98 159.644 2.356 158.984L1.6 159.848C2.296 160.616 3.292 161.144 4.6 161.144ZM12.4305 161.144C14.4825 161.144 15.9345 159.38 15.9345 156.872C15.9345 154.376 14.4825 152.612 12.4305 152.612C10.3545 152.612 8.90247 154.376 8.90247 156.872C8.90247 159.38 10.3545 161.144 12.4305 161.144ZM12.4305 160.028C11.0865 160.028 10.1385 158.72 10.1385 156.872C10.1385 155.024 11.0865 153.728 12.4305 153.728C13.7625 153.728 14.6985 155.024 14.6985 156.872C14.6985 158.72 13.7625 160.028 12.4305 160.028ZM20.8094 161.144C22.8614 161.144 24.3134 159.38 24.3134 156.872C24.3134 154.376 22.8614 152.612 20.8094 152.612C18.7334 152.612 17.2814 154.376 17.2814 156.872C17.2814 159.38 18.7334 161.144 20.8094 161.144ZM20.8094 160.028C19.4654 160.028 18.5174 158.72 18.5174 156.872C18.5174 155.024 19.4654 153.728 20.8094 153.728C22.1414 153.728 23.0774 155.024 23.0774 156.872C23.0774 158.72 22.1414 160.028 20.8094 160.028Z" fill="black" fill-opacity="0.7"/>
<path d="M4.768 53.144C6.496 53.144 7.876 52.256 7.876 50.828C7.876 49.82 7.12 49.088 6.136 48.74C6.976 48.416 7.672 47.804 7.672 46.82C7.672 45.452 6.304 44.612 4.768 44.612C3.28 44.612 1.876 45.416 1.876 46.82C1.876 47.756 2.512 48.38 3.412 48.74C2.428 49.076 1.66 49.808 1.66 50.828C1.66 52.244 3.028 53.144 4.768 53.144ZM4.768 48.284C4.036 48.236 3.088 47.804 3.088 46.952C3.088 46.22 3.82 45.68 4.768 45.68C5.716 45.68 6.46 46.22 6.46 46.952C6.46 47.78 5.524 48.236 4.768 48.284ZM4.768 52.076C3.712 52.076 2.884 51.524 2.884 50.72C2.884 49.844 3.964 49.316 4.768 49.292C5.584 49.316 6.652 49.844 6.652 50.72C6.652 51.524 5.824 52.076 4.768 52.076ZM12.7469 53.144C14.7989 53.144 16.2509 51.38 16.2509 48.872C16.2509 46.376 14.7989 44.612 12.7469 44.612C10.6709 44.612 9.21888 46.376 9.21888 48.872C9.21888 51.38 10.6709 53.144 12.7469 53.144ZM12.7469 52.028C11.4029 52.028 10.4549 50.72 10.4549 48.872C10.4549 47.024 11.4029 45.728 12.7469 45.728C14.0789 45.728 15.0149 47.024 15.0149 48.872C15.0149 50.72 14.0789 52.028 12.7469 52.028ZM21.1258 53.144C23.1778 53.144 24.6298 51.38 24.6298 48.872C24.6298 46.376 23.1778 44.612 21.1258 44.612C19.0498 44.612 17.5978 46.376 17.5978 48.872C17.5978 51.38 19.0498 53.144 21.1258 53.144ZM21.1258 52.028C19.7818 52.028 18.8338 50.72 18.8338 48.872C18.8338 47.024 19.7818 45.728 21.1258 45.728C22.4578 45.728 23.3938 47.024 23.3938 48.872C23.3938 50.72 22.4578 52.028 21.1258 52.028Z" fill="black" fill-opacity="0.7"/>
<path d="M4.552 8.612C2.812 8.612 1.564 9.8 1.564 11.384C1.564 13.016 2.824 13.964 4.336 13.964C5.236 13.964 6.064 13.568 6.568 12.884C6.52 14.696 5.584 16.052 4.336 16.052C3.58 16.052 3.052 15.728 2.548 15.26L1.924 16.196C2.548 16.76 3.304 17.144 4.324 17.144C6.328 17.144 7.804 15.248 7.804 12.752C7.804 10.4 6.844 8.612 4.552 8.612ZM4.612 12.944C3.616 12.944 2.8 12.332 2.8 11.324C2.8 10.496 3.472 9.644 4.588 9.644C5.68 9.644 6.268 10.436 6.472 11.624C6.244 12.416 5.524 12.944 4.612 12.944ZM12.7117 17.144C14.7637 17.144 16.2157 15.38 16.2157 12.872C16.2157 10.376 14.7637 8.612 12.7117 8.612C10.6357 8.612 9.18372 10.376 9.18372 12.872C9.18372 15.38 10.6357 17.144 12.7117 17.144ZM12.7117 16.028C11.3677 16.028 10.4197 14.72 10.4197 12.872C10.4197 11.024 11.3677 9.728 12.7117 9.728C14.0437 9.728 14.9797 11.024 14.9797 12.872C14.9797 14.72 14.0437 16.028 12.7117 16.028ZM21.0906 17.144C23.1426 17.144 24.5946 15.38 24.5946 12.872C24.5946 10.376 23.1426 8.612 21.0906 8.612C19.0146 8.612 17.5626 10.376 17.5626 12.872C17.5626 15.38 19.0146 17.144 21.0906 17.144ZM21.0906 16.028C19.7466 16.028 18.7986 14.72 18.7986 12.872C18.7986 11.024 19.7466 9.728 21.0906 9.728C22.4226 9.728 23.3586 11.024 23.3586 12.872C23.3586 14.72 22.4226 16.028 21.0906 16.028Z" fill="black" fill-opacity="0.7"/>
<path d="M40.684 389H49.774V386.948H44.176L46.768 384.86C48.892 383.222 49.648 381.908 49.648 380.27C49.648 377.984 47.776 376.418 45.328 376.418C43.33 376.418 41.836 377.3 40.666 378.83L42.124 380.18C43.024 379.1 43.96 378.434 45.256 378.434C46.372 378.434 47.362 379.154 47.362 380.324C47.362 381.332 46.804 382.268 45.238 383.528L40.684 387.164V389ZM57.0591 389.216C60.2271 389.216 62.4771 386.57 62.4771 382.808C62.4771 379.064 60.2271 376.418 57.0591 376.418C53.8731 376.418 51.6411 379.064 51.6411 382.808C51.6411 386.57 53.8731 389.216 57.0591 389.216ZM57.0591 387.164C55.2231 387.164 53.9271 385.364 53.9271 382.808C53.9271 380.252 55.2231 378.47 57.0591 378.47C58.8951 378.47 60.1731 380.252 60.1731 382.808C60.1731 385.364 58.8951 387.164 57.0591 387.164ZM66.8341 389H69.0841V376.634H67.2841L63.8101 378.992L64.7101 380.576L66.8341 379.226V389ZM77.2246 381.098C75.9646 381.098 74.7946 381.62 74.0206 382.484C74.1826 380.072 75.4066 378.398 77.1526 378.398C78.2326 378.398 79.0066 378.848 79.7626 379.514L80.8606 377.804C79.8706 376.958 78.7006 376.418 77.1526 376.418C73.9486 376.418 71.6986 379.208 71.6986 383.024C71.6986 386.588 73.2466 389.216 76.7746 389.216C79.4386 389.216 81.3826 387.452 81.3826 385.004C81.3826 382.538 79.4926 381.098 77.2246 381.098ZM76.6666 387.308C75.1726 387.308 74.3986 386.282 74.1286 384.626C74.4886 383.6 75.4246 382.934 76.6306 382.934C77.9806 382.934 79.0966 383.744 79.0966 385.094C79.0966 386.228 78.1786 387.308 76.6666 387.308Z" fill="#0F0B47"/>
<path d="M117.684 389H126.774V386.948H121.176L123.768 384.86C125.892 383.222 126.648 381.908 126.648 380.27C126.648 377.984 124.776 376.418 122.328 376.418C120.33 376.418 118.836 377.3 117.666 378.83L119.124 380.18C120.024 379.1 120.96 378.434 122.256 378.434C123.372 378.434 124.362 379.154 124.362 380.324C124.362 381.332 123.804 382.268 122.238 383.528L117.684 387.164V389ZM134.059 389.216C137.227 389.216 139.477 386.57 139.477 382.808C139.477 379.064 137.227 376.418 134.059 376.418C130.873 376.418 128.641 379.064 128.641 382.808C128.641 386.57 130.873 389.216 134.059 389.216ZM134.059 387.164C132.223 387.164 130.927 385.364 130.927 382.808C130.927 380.252 132.223 378.47 134.059 378.47C135.895 378.47 137.173 380.252 137.173 382.808C137.173 385.364 135.895 387.164 134.059 387.164ZM143.834 389H146.084V376.634H144.284L140.81 378.992L141.71 380.576L143.834 379.226V389ZM149.473 389H152.029L157.123 378.326V376.634H148.195V378.686H154.513L149.473 389Z" fill="#0F0B47"/>
<path d="M192.684 389H201.774V386.948H196.176L198.768 384.86C200.892 383.222 201.648 381.908 201.648 380.27C201.648 377.984 199.776 376.418 197.328 376.418C195.33 376.418 193.836 377.3 192.666 378.83L194.124 380.18C195.024 379.1 195.96 378.434 197.256 378.434C198.372 378.434 199.362 379.154 199.362 380.324C199.362 381.332 198.804 382.268 197.238 383.528L192.684 387.164V389ZM209.059 389.216C212.227 389.216 214.477 386.57 214.477 382.808C214.477 379.064 212.227 376.418 209.059 376.418C205.873 376.418 203.641 379.064 203.641 382.808C203.641 386.57 205.873 389.216 209.059 389.216ZM209.059 387.164C207.223 387.164 205.927 385.364 205.927 382.808C205.927 380.252 207.223 378.47 209.059 378.47C210.895 378.47 212.173 380.252 212.173 382.808C212.173 385.364 210.895 387.164 209.059 387.164ZM218.834 389H221.084V376.634H219.284L215.81 378.992L216.71 380.576L218.834 379.226V389ZM228.451 389.216C231.115 389.216 233.275 387.92 233.275 385.706C233.275 384.248 232.213 383.168 230.755 382.61C231.997 382.106 232.951 381.188 232.951 379.748C232.951 377.66 230.845 376.418 228.451 376.418C226.129 376.418 223.969 377.624 223.969 379.748C223.969 381.152 224.887 382.07 226.165 382.61C224.725 383.132 223.645 384.212 223.645 385.706C223.645 387.902 225.769 389.216 228.451 389.216ZM228.451 381.8C227.425 381.746 226.183 381.134 226.183 380.036C226.183 379.064 227.155 378.326 228.451 378.326C229.747 378.326 230.737 379.064 230.737 380.036C230.737 381.116 229.513 381.746 228.451 381.8ZM228.451 387.29C226.993 387.29 225.895 386.57 225.895 385.49C225.895 384.338 227.317 383.654 228.451 383.6C229.603 383.654 231.007 384.338 231.007 385.49C231.007 386.57 229.891 387.29 228.451 387.29Z" fill="#0F0B47"/>
<path d="M269.684 389H278.774V386.948H273.176L275.768 384.86C277.892 383.222 278.648 381.908 278.648 380.27C278.648 377.984 276.776 376.418 274.328 376.418C272.33 376.418 270.836 377.3 269.666 378.83L271.124 380.18C272.024 379.1 272.96 378.434 274.256 378.434C275.372 378.434 276.362 379.154 276.362 380.324C276.362 381.332 275.804 382.268 274.238 383.528L269.684 387.164V389ZM286.059 389.216C289.227 389.216 291.477 386.57 291.477 382.808C291.477 379.064 289.227 376.418 286.059 376.418C282.873 376.418 280.641 379.064 280.641 382.808C280.641 386.57 282.873 389.216 286.059 389.216ZM286.059 387.164C284.223 387.164 282.927 385.364 282.927 382.808C282.927 380.252 284.223 378.47 286.059 378.47C287.895 378.47 289.173 380.252 289.173 382.808C289.173 385.364 287.895 387.164 286.059 387.164ZM295.834 389H298.084V376.634H296.284L292.81 378.992L293.71 380.576L295.834 379.226V389ZM305.127 376.418C302.463 376.418 300.519 378.182 300.519 380.63C300.519 383.096 302.409 384.536 304.677 384.536C305.937 384.536 307.107 384.014 307.881 383.15C307.719 385.562 306.495 387.236 304.749 387.236C303.669 387.236 302.895 386.786 302.139 386.12L301.041 387.83C302.031 388.676 303.201 389.216 304.749 389.216C307.953 389.216 310.203 386.426 310.203 382.61C310.203 379.046 308.655 376.418 305.127 376.418ZM305.271 382.7C303.921 382.7 302.805 381.89 302.805 380.54C302.805 379.406 303.723 378.326 305.235 378.326C306.729 378.326 307.503 379.352 307.773 381.008C307.413 382.034 306.477 382.7 305.271 382.7Z" fill="#0F0B47"/>
<path d="M346.684 389H355.774V386.948H350.176L352.768 384.86C354.892 383.222 355.648 381.908 355.648 380.27C355.648 377.984 353.776 376.418 351.328 376.418C349.33 376.418 347.836 377.3 346.666 378.83L348.124 380.18C349.024 379.1 349.96 378.434 351.256 378.434C352.372 378.434 353.362 379.154 353.362 380.324C353.362 381.332 352.804 382.268 351.238 383.528L346.684 387.164V389ZM363.059 389.216C366.227 389.216 368.477 386.57 368.477 382.808C368.477 379.064 366.227 376.418 363.059 376.418C359.873 376.418 357.641 379.064 357.641 382.808C357.641 386.57 359.873 389.216 363.059 389.216ZM363.059 387.164C361.223 387.164 359.927 385.364 359.927 382.808C359.927 380.252 361.223 378.47 363.059 378.47C364.895 378.47 366.173 380.252 366.173 382.808C366.173 385.364 364.895 387.164 363.059 387.164ZM370.098 389H379.188V386.948H373.59L376.182 384.86C378.306 383.222 379.062 381.908 379.062 380.27C379.062 377.984 377.19 376.418 374.742 376.418C372.744 376.418 371.25 377.3 370.08 378.83L371.538 380.18C372.438 379.1 373.374 378.434 374.67 378.434C375.786 378.434 376.776 379.154 376.776 380.324C376.776 381.332 376.218 382.268 374.652 383.528L370.098 387.164V389ZM386.473 389.216C389.641 389.216 391.891 386.57 391.891 382.808C391.891 379.064 389.641 376.418 386.473 376.418C383.287 376.418 381.055 379.064 381.055 382.808C381.055 386.57 383.287 389.216 386.473 389.216ZM386.473 387.164C384.637 387.164 383.341 385.364 383.341 382.808C383.341 380.252 384.637 378.47 386.473 378.47C388.309 378.47 389.587 380.252 389.587 382.808C389.587 385.364 388.309 387.164 386.473 387.164Z" fill="#0F0B47"/>
<path d="M427.684 389H436.774V386.948H431.176L433.768 384.86C435.892 383.222 436.648 381.908 436.648 380.27C436.648 377.984 434.776 376.418 432.328 376.418C430.33 376.418 428.836 377.3 427.666 378.83L429.124 380.18C430.024 379.1 430.96 378.434 432.256 378.434C433.372 378.434 434.362 379.154 434.362 380.324C434.362 381.332 433.804 382.268 432.238 383.528L427.684 387.164V389ZM444.059 389.216C447.227 389.216 449.477 386.57 449.477 382.808C449.477 379.064 447.227 376.418 444.059 376.418C440.873 376.418 438.641 379.064 438.641 382.808C438.641 386.57 440.873 389.216 444.059 389.216ZM444.059 387.164C442.223 387.164 440.927 385.364 440.927 382.808C440.927 380.252 442.223 378.47 444.059 378.47C445.895 378.47 447.173 380.252 447.173 382.808C447.173 385.364 445.895 387.164 444.059 387.164ZM451.098 389H460.188V386.948H454.59L457.182 384.86C459.306 383.222 460.062 381.908 460.062 380.27C460.062 377.984 458.19 376.418 455.742 376.418C453.744 376.418 452.25 377.3 451.08 378.83L452.538 380.18C453.438 379.1 454.374 378.434 455.67 378.434C456.786 378.434 457.776 379.154 457.776 380.324C457.776 381.332 457.218 382.268 455.652 383.528L451.098 387.164V389ZM464.539 389H466.789V376.634H464.989L461.515 378.992L462.415 380.576L464.539 379.226V389Z" fill="#0F0B47"/>
<path d="M503.684 389H512.774V386.948H507.176L509.768 384.86C511.892 383.222 512.648 381.908 512.648 380.27C512.648 377.984 510.776 376.418 508.328 376.418C506.33 376.418 504.836 377.3 503.666 378.83L505.124 380.18C506.024 379.1 506.96 378.434 508.256 378.434C509.372 378.434 510.362 379.154 510.362 380.324C510.362 381.332 509.804 382.268 508.238 383.528L503.684 387.164V389ZM520.059 389.216C523.227 389.216 525.477 386.57 525.477 382.808C525.477 379.064 523.227 376.418 520.059 376.418C516.873 376.418 514.641 379.064 514.641 382.808C514.641 386.57 516.873 389.216 520.059 389.216ZM520.059 387.164C518.223 387.164 516.927 385.364 516.927 382.808C516.927 380.252 518.223 378.47 520.059 378.47C521.895 378.47 523.173 380.252 523.173 382.808C523.173 385.364 521.895 387.164 520.059 387.164ZM527.098 389H536.188V386.948H530.59L533.182 384.86C535.306 383.222 536.062 381.908 536.062 380.27C536.062 377.984 534.19 376.418 531.742 376.418C529.744 376.418 528.25 377.3 527.08 378.83L528.538 380.18C529.438 379.1 530.374 378.434 531.67 378.434C532.786 378.434 533.776 379.154 533.776 380.324C533.776 381.332 533.218 382.268 531.652 383.528L527.098 387.164V389ZM537.803 389H546.893V386.948H541.295L543.887 384.86C546.011 383.222 546.767 381.908 546.767 380.27C546.767 377.984 544.895 376.418 542.447 376.418C540.449 376.418 538.955 377.3 537.785 378.83L539.243 380.18C540.143 379.1 541.079 378.434 542.375 378.434C543.491 378.434 544.481 379.154 544.481 380.324C544.481 381.332 543.923 382.268 542.357 383.528L537.803 387.164V389Z" fill="#0F0B47"/>
<circle cx="449" cy="83" r="4" fill="#5C2CFF"/>
<path d="M374 127C374 129.209 372.209 131 370 131C367.791 131 366 129.209 366 127C366 124.791 367.791 123 370 123C372.209 123 374 124.791 374 127Z" fill="#5C2CFF"/>
<circle cx="291" cy="159" r="4" fill="#5C2CFF"/>
<circle cx="215" cy="221" r="4" fill="#5C2CFF"/>
<circle cx="138" cy="286" r="4" fill="#5C2CFF"/>
<path d="M61 324L138.5 286L215 221L291 159L371 127L450 83L527 43" stroke="#5C2CFF" stroke-width="3"/>
<circle cx="526" cy="43" r="4" fill="#5C2CFF"/>
<circle cx="61" cy="324" r="4" fill="#5C2CFF"/>
<circle cx="61" cy="346" r="4" fill="#92EFDF"/>
<circle cx="138" cy="342" r="4" fill="#92EFDF"/>
<circle cx="215" cy="335" r="4" fill="#92EFDF"/>
<circle cx="291" cy="331" r="4" fill="#92EFDF"/>
<circle cx="370" cy="318" r="4" fill="#92EFDF"/>
<path d="M453 304C453 306.209 451.209 308 449 308C446.791 308 445 306.209 445 304C445 301.791 446.791 300 449 300C451.209 300 453 301.791 453 304Z" fill="#92EFDF"/>
<path d="M61 346L138 342L215 335L291 331L370 318L449 304L526 294.5" stroke="#92EFDF" stroke-width="3"/>
<circle cx="526" cy="294" r="4" fill="#92EFDF"/>
<circle cx="61" cy="345" r="4" fill="#D62293"/>
<circle cx="138" cy="335" r="4" fill="#D62293"/>
<circle cx="215" cy="322" r="4" fill="#D62293"/>
<circle cx="291" cy="300" r="4" fill="#D62293"/>
<circle cx="370" cy="295" r="4" fill="#D62293"/>
<circle cx="449" cy="289" r="4" fill="#D62293"/>
<path d="M61 345L138.5 335L215 322L291.5 300L370.5 294.5L449.5 288.5L527 284" stroke="#D62293" stroke-width="3"/>
<circle cx="526" cy="285" r="4" fill="#D62293"/>
</svg>
