<svg fill="none" height="65" viewBox="0 0 213 65" width="213" xmlns="http://www.w3.org/2000/svg"><path d="m80.2531 56.101h.9811l2.1196 8.2274h-2.452l-1.4081-5.6438-1.6253 5.6438h-2.5218l3.028-10.158h2.4334zm-5.0701-.9856 1.3846-4.7651h2.461l-.2701.8941h4.5953v3.5888h-2.3121v-1.8992h-2.6671l-.7074 2.1814zm-2.8916-3.9777h3.0612l-.7884 1.7586h-2.6149l-.6274 3.16h.5352v-1.7357h2.3427v1.7357h1.1777l.0129 1.651h-1.1906v2.0312h1.2002l-.0096 1.7414h-1.1906v2.3109l-2.3427.9475v-3.2584h-2.7009v-1.7414h2.7009v-2.0312h-2.777v-1.5311l.7109-3.2799h-.6905v-1.7586h.9696l.1617-.8467h2.2432z" fill="#4f4c4d"/><path d="m95.8287 58.0295h1.5514v-.8563h-1.5514zm0-2.3893h1.5514v-.884h-1.5514zm7.6583-4.0527-1.297 1.6133h1.297v6.8892s.09.7535-.575 1.2972c-.667.5414-1.271.4905-1.271.4905h-1.417v-1.577h.994v-5.5447h-1.5462v.8842h1.3892l.001 1.5333h-1.3902v.856h1.3582l.003 1.5288h-1.3612v1.7344l-2.2917.7352v-2.4696h-1.5514v1.5744l-2.2765.745v-8.6769h1.4311l-.573-.9304 2.5775-.0081.6273.9385h1.9464l1.0085-1.2853h-7.0178v-1.5476h9.9348zm-12.1688-1.4703c.2338.0046.4595.0651.6891.184.2277.1185.4075.2918.5378.5196.1326.2263.1986.4651.201.7107.0024.2494-.0598.4808-.1901.698-.1295.2239-.3039.3947-.525.5196-.2222.1234-.4596.1851-.7128.1851-.2628.005-.5056-.0531-.7267-.1814-.2216-.1274-.3979-.2981-.5282-.5212-.1272-.2177-.1894-.454-.1829-.7071 0-.2363.0643-.47.1964-.7001.132-.2288.31-.4057.5347-.5257.2247-.1209.4608-.1815.7067-.1815zm1.199 11.4491 2.1704 1.1143h8.9704l-.728 1.5372h-9.4474l-1.069-.7948-2.3864 1.3349v-11.1505h2.49zm25.8928-8.7036h-1.269v-1.7268h1.469l.101-.9025h2.375l-.099.9025h3.371v11.271s.136.6651-.464 1.256c-.599.5922-1.345.5328-1.345.5328h-1.562v-1.7888h1.036v-9.5442h-1.24l-1.306 11.4095h-2.376zm-7.987-.6068v-1.7731h6.577l-.747 1.7731zm1.293 3.5233h-1.353v-1.8022h6.9l-.804 1.8022h-2.461l-1.4 6.6459h1.889l-.513-4.6001h2.215l.748 6.5164h-2.242l-.162-1.5842-.652 1.4859-3.644-.0086v-1.4847zm18.496 8.4855 2.365-10.8861h-2.305v-1.8712l2.522.0073.129-1.1505h2.717l-.132 1.1432h8.205v10.8703s.051.7415-.641 1.3627c-.69.626-1.525.5243-1.525.5243h-4.612v-1.887h4.194v-8.9991h-5.88l-2.312 10.8861zm19.03-6.1065h63.42v-1.4426h-63.42zm-148.86993 0h63.42003v-1.4426h-63.42003z" fill="#4f4c4d"/><path d="m16.2902.550865c-.0983-.096722-.2326-.152427-.3721-.152427h-.3451c-.9204.009526-2.5289.091827-4.6399.461385-3.86018.672427-6.67493 2.751767-8.40337 5.345027-1.580517 2.37388-2.270941 6.00745-2.270941 9.16635v5.862c0-.6722.356062-2.8911 1.689801-4.5094 3.19675-3.8807 7.56609-4.8701 10.37471-4.8701h2.4274v-.0011c.5365.0011.9253.0011 1.0851.0011h.0811c.1407 0 .2744-.0544.3725-.1513.0992-.0981.1545-.229.1545-.3671v-10.416067c0-.138006-.0545-.27138-.1537-.368368z" fill="#d91920"/><path d="m48.2986 32.2181c0-3.5792 2.604-6.4932 5.8063-6.4932 3.2012 0 5.804 2.914 5.804 6.4932 0 3.5793-2.6028 6.4919-5.804 6.4919-3.2023 0-5.8063-2.9126-5.8063-6.4919zm-5.8568-12.3213-.0361.0846v12.347c.0567 6.9773 5.0863 12.2414 11.6992 12.2414 6.6688 0 11.6988-5.3099 11.6988-12.3517 0-7.7431-4.9475-12.3505-11.6153-12.3505l-11.6619-.0035zm109.9222 12.3213c0-3.5792 2.605-6.4932 5.805-6.4932 3.202 0 5.806 2.914 5.806 6.4932 0 3.5793-2.604 6.4919-5.806 6.4919-3.2 0-5.805-2.9126-5.805-6.4919zm-5.856-12.3213-.038.0846v12.347c.057 6.9773 5.086 12.2414 11.699 12.2414 6.67 0 11.699-5.3099 11.699-12.3517 0-7.7431-4.948-12.3505-11.615-12.3505l-11.661-.0035zm48.877-.0268c-.074 0-.132.0582-.132.1282v24.0023c0 .0702.058.1284.132.1284h17.159c.072 0 .129-.0582.129-.1284v-5.1187c0-.0714-.057-.1294-.129-.1294h-10.718c-.224 0-.407-.1781-.407-.401v-3.2627c0-.2233.183-.4012.407-.4012h10.213c.071 0 .131-.0581.131-.1281v-5.1198c0-.0704-.06-.1273-.131-.1273h-10.213c-.224 0-.407-.179-.407-.402v-3.263c0-.223.183-.4009.407-.4009h10.718c.072 0 .129-.0583.129-.1294v-5.1188c0-.07-.057-.1282-.129-.1282zm-10.752 0-.092.0375-.038.0907v11.1068c0 .1866-.133.3511-.319.3913-.187.0398-.375-.0547-.454-.2255l-5.231-11.305c-.025-.0535-.079-.0958-.119-.0958h-5.819l-.093.0375-.037.0907.002 24.0023c0 .0702.057.1284.13.1284h5.818l.093-.0387.037-.0897v-11.086c0-.1902.133-.3515.318-.3912.188-.0414.377.0532.457.2228l5.23 11.3078c.022.0444.069.075.12.075h5.845l.093-.0387.038-.0897-.002-24.0023c0-.07-.058-.1282-.13-.1282zm-157.9606-8.5146c-3.9201.5657-6.9438 2.5495-8.2974 5.4442-.5527 1.1822-.8237 2.3825-.8237 3.5476 0 2.1535.9661 4.2864 2.7568 5.8997 1.1633 1.0501 2.7003 1.9148 4.4032 2.6089.0012 0 2.4332.8394 2.4332.8394 1.4064.4517 2.9967 1.096 3.9909 1.6132 1.2281.6419 2.2778 1.6872 2.2778 3.1928 0 .4263-.098 1.0321-.3035 1.4896-.6469 1.4379-2.4442 2.4889-4.8338 2.448-3.8661-.0691-6.4872-2.3158-8.2947-4.2187l-1.1587-1.3299c-.4682-.6056-.6126-.8515-.8418-.8537-.2156-.0038-.2168.1887-.2168.5814v6.0594c-.0029.6239-.0067 1.3284.3561 1.704 2.5095 2.5884 6.343 4.1932 10.0051 4.1883 3.8219-.0022 6.7409-1.1821 8.9015-3.2872 2.65-2.582 3.5404-6.9014 2.2287-10.3314-.9201-2.4113-3.6179-4.5903-8.4335-6.2035-3.4471-1.1531-5.2275-2.0712-6.0304-2.994-.71-.8176-.842-1.8109-.4786-2.6658.444-1.0442 1.6121-1.7223 3.1516-1.92 1.3062-.1669 3.0897-.0993 5.5939 1.0114 1.0366.4617 3.1399 1.6267 4.3122 2.9348.258.2859.4808.2531.5148.1102.0243-.1053.017-.3329.017-.5535v-4.9621l.0037-.3042c.0122-.523.0169-.7182-.3342-1.033-.6656-.5937-2.6325-1.737-4.5348-2.3703-2.1644-.7207-4.5044-.9134-6.3646-.6456zm41.9885 8.5146c-.0726 0-.1308.0582-.1308.1282v24.0023c0 .0702.0582.1284.1308.1284h6.0487c.0727 0 .132-.0582.132-.1284l-.0011-6.6422c0-.1079.0423-.2083.1187-.2849.0762-.0761.1791-.1184.287-.1184h9.176c.0714 0 .132-.058.132-.1285v-5.1184c0-.0702-.0606-.1295-.132-.1295h-9.176c-.2252 0-.4057-.1781-.4057-.4021v-5.5292c0-.223.1805-.4009.4057-.4009h9.8905c.0726 0 .1319-.0583.1319-.1294v-5.1188c0-.07-.0593-.1282-.1319-.1282zm18.9104 0c-.0727 0-.1309.0582-.1309.1282v5.1188c0 .0711.0582.1294.1309.1294h4.3869c.224 0 .4046.1779.4046.4009v18.3532c0 .0702.0593.1284.1319.1284h6.0489c.0713 0 .1307-.0582.1307-.1284v-18.3532c0-.223.1805-.4009.4057-.4009h4.383c.073 0 .131-.0583.131-.1294v-5.1188c0-.07-.058-.1282-.131-.1282zm40.6677 0c-.073 0-.132.0582-.132.1282v5.1188c0 .0711.059.1294.132.1294h4.387c.224 0 .405.1779.405.4009v18.3532c0 .0702.059.1284.13.1284h6.049c.073 0 .132-.0582.132-.1284v-18.3532c0-.223.182-.4009.406-.4009h4.383c.073 0 .131-.0583.131-.1294v-5.1188c0-.07-.058-.1282-.131-.1282zm-13.54-8.5146c-3.919.5657-6.942 2.5495-8.295 5.4442-.553 1.1822-.825 2.3825-.825 3.5476 0 2.1535.967 4.2864 2.758 5.8997 1.162 1.0501 2.7 1.9148 4.403 2.6089.001 0 2.432.8394 2.432.8394 1.406.4517 2.998 1.096 3.992 1.6132 1.228.6419 2.278 1.6872 2.278 3.1928 0 .4263-.099 1.0321-.305 1.4896-.647 1.4379-2.443 2.4889-4.834 2.448-3.866-.0691-6.486-2.3158-8.294-4.2187l-1.16-1.3299c-.467-.6056-.611-.8515-.841-.8537-.214-.0038-.216.1887-.216.5814v6.0594c-.002.6239-.006 1.3284.356 1.704 2.51 2.5884 6.343 4.1932 10.006 4.1883 3.82-.0022 6.74-1.1821 8.901-3.2872 2.65-2.582 3.539-6.9014 2.229-10.3314-.921-2.4113-3.618-4.5903-8.434-6.2035-3.447-1.1531-5.227-2.0712-6.031-2.994-.709-.8176-.842-1.8109-.479-2.6658.445-1.0442 1.613-1.7223 3.153-1.92 1.306-.1669 3.09-.0993 5.593 1.0114 1.037.4617 3.14 1.6267 4.313 2.9348.257.2859.481.2531.514.1102.025-.1053.016-.3329.016-.5535v-4.9621l.005-.3042c.013-.523.017-.7182-.334-1.033-.666-.5937-2.633-1.737-4.535-2.3703-2.164-.7207-4.504-.9134-6.366-.6456zm-107.35493 32.7736c2.66223 0 5.60393-2.1198 5.62233-4.7421h.0018v-22.2154h-.6451c-4.8041 0-8.2987 1.4911-10.53351 4.2512-1.8712119 2.3112-1.531028 4.0647-1.531028 6.7924v15.9139z" fill="#4f4c4d"/></svg>