<svg fill="none" height="40" viewBox="0 0 213 40" width="213" xmlns="http://www.w3.org/2000/svg"><path d="m43.0275 11.4693c-7.7047 0-13.7248 5.9004-13.7248 13.7994 0 7.8989 5.868 13.7489 13.7248 13.7489 7.8567 0 13.8267-5.9509 13.8267-13.7994 0-7.798-5.868-13.7489-13.8267-13.7489zm.052 21.8557c-4.3876 0-7.6026-3.4377-7.6026-8.0544 0-4.669 3.163-8.1048 7.5506-8.1048 4.4395 0 7.6526 3.4882 7.6526 8.1048 0 4.6167-3.2131 8.0544-7.6006 8.0544zm15.4574-15.8523h3.8272v21.0341h6.1222v-26.5247h-9.9494zm-44.6415-.3088c3.2151 0 5.766 2.0004 6.7343 4.9759h6.4803c-1.1744-6.3607-6.3782-10.6705-13.1626-10.6705-7.70465 0-13.724744 5.9004-13.724744 13.8013s5.868004 13.7489 13.724744 13.7489c6.6323 0 11.9381-4.3097 13.1125-10.7229h-6.4302c-.9183 2.9755-3.4692 5.0284-6.6842 5.0284-4.43955 0-7.55066-3.4377-7.55066-8.0544.00192-4.669 3.06298-8.1067 7.50056-8.1067zm160.9656 5.5411-4.489-.6662c-2.143-.3069-3.674-1.0255-3.674-2.7191 0-1.847 1.991-2.7696 4.694-2.7696 2.959 0 4.848 1.2819 5.256 3.3853h5.918c-.664-5.3352-4.746-8.4641-11.02-8.4641-6.48 0-10.766 3.3347-10.766 8.0543 0 4.5137 2.807 7.1318 8.469 7.9514l4.49.6662c2.194.3068 3.419 1.1808 3.419 2.822 0 2.1034-2.143 2.9754-5.102 2.9754-3.623 0-5.664-1.4877-5.97-3.7445h-6.02c.562 5.1818 4.592 8.8234 11.938 8.8234 6.684 0 11.122-3.0784 11.122-8.3631 0-4.7196-3.213-7.1823-8.265-7.9514zm-109.4358-21.6498c-2.2448 0-3.9293 1.64116-3.9293 3.89801 0 2.25684 1.6826 3.89801 3.9293 3.89801 2.2448 0 3.9293-1.64117 3.9293-3.89801 0-2.25685-1.6845-3.89801-3.9293-3.89801zm89.8448 20.0086c0-5.745-3.469-9.5925-10.815-9.5925-6.939 0-10.816 3.5406-11.582 8.9788h6.072c.306-2.1034 1.938-3.8475 5.407-3.8475 3.114 0 4.644 1.3848 4.644 3.0784 0 2.2063-2.807 2.7696-6.276 3.1289-4.694.5127-10.51 2.1539-10.51 8.3107 0 4.772 3.521 7.8484 9.133 7.8484 4.388 0 7.143-1.847 8.521-4.772.204 2.6162 2.143 4.3098 4.848 4.3098h3.571v-5.4887h-3.011v-11.9543zm-6.02 6.6696c0 3.5406-3.061 6.1568-6.786 6.1568-2.297 0-4.236-.975-4.236-3.026 0-2.6162 3.113-3.3348 5.97-3.6416 2.755-.2564 4.286-.8721 5.052-2.053zm-32.499-16.2641c-3.419 0-6.276 1.4372-8.317 3.8475v-14.517972h-6.122v37.707972h6.02v-3.4882c2.041 2.5132 4.95 4.0009 8.419 4.0009 7.347 0 12.908-5.848 12.908-13.7489s-5.664-13.8013-12.908-13.8013zm-.918 21.8557c-4.388 0-7.603-3.4377-7.603-8.0544 0-4.6166 3.265-8.1048 7.653-8.1048 4.439 0 7.55 3.4377 7.55 8.1048 0 4.6167-3.213 8.0544-7.6 8.0544zm-28.1641-21.8557c-3.9793 0-6.5822 1.6412-8.1127 3.9505v-3.4377h-6.0721v26.5227h6.1221v-14.415c0-4.0534 2.5509-6.9259 6.3262-6.9259 3.5212 0 5.714 2.5132 5.714 6.1568v15.1861h6.1221v-15.6464c.0019-6.6715-3.4153-11.3911-10.0996-11.3911zm124.6411 12.9293c0-7.5921-5.51-12.9273-12.908-12.9273-7.857 0-13.623 5.9509-13.623 13.7993 0 8.2602 6.174 13.7489 13.725 13.7489 6.378 0 11.378-3.797 12.652-9.1827h-6.378c-.919 2.3597-3.163 3.694-6.174 3.694-3.93 0-6.889-2.4627-7.551-6.7724h20.255v-2.3598zm-19.899-2.0529c.97-3.6941 3.725-5.4887 6.889-5.4887 3.469 0 6.122 2.0005 6.734 5.4887z" fill="#0052ff"/></svg>