<svg fill="none" height="29" viewBox="0 0 214 29" width="214" xmlns="http://www.w3.org/2000/svg"><path d="m107.343 19.1582c-.262 0-.474-.212-.474-.4735v-8.0378c0-.2615.212-.4735.474-.4735.261 0 .473.212.473.4735v8.0378c0 .2615-.212.4735-.473.4735z" fill="#888"/><path d="m107.343 19.1582c-.262 0-.474-.212-.474-.4735v-8.0378c0-.2615.212-.4735.474-.4735.261 0 .473.212.473.4735v8.0378c0 .2615-.212.4735-.473.4735z" fill="#888"/><path clip-rule="evenodd" d="m47.7045 5.11786-.1614-.16382h-.3233l-.1615.16382v.16292h.6462v-.16292h.1619zm42.0245 8.16094-.1616-.1636h-.1613l-.1617-.1629v.1629h-.162v.1636l-.1613.1638v.8155l.1613.3267v2.1217l.162.653.1617.653v.6527h.1613l.1616.1636.3234.1632.1615.1628.3234.1632h.1621l.1612-.4892.1621-.3267v-.4896l.1612-.4897v-2.1221h.4848l.1613-.1628h.1623l.3234-.1638h.161l.1615-.1628.1617-.1633v.8159l-.3232.3267-.3228.3263-.3239.4896-.1613.3263v1.1429l.808.3264h1.6166l.8082-.1635.6467-.1629.1612-.1632v-.8158l-.1612-.1639h-.1616v-.1625h-.1618v-.327l.1618-.3264v-.979l.1616-.3266v-.8167l-.3234-.3263-.1616-.3257-.3233-.3274-.3233-.1629h-1.1313l-.4854.3265h-.1617l-.1615.1638-.3228.1629-.3239.1628h-.1613l-.1617.164-.4843.3258h-.3233l-.1621-.1635-.3234-.3263-.1615-.3257zm2.101-5.87603v.16277l-.6461.16357h-.1612l-.1621.16312v.16361l.1621.16312v.16346l.1612.16283.1618.16312h.1613l.1617.16327h.1613l.1623.16356.3234.16283h.161l.3232.16341.4854.16292h.808l.1612-.16292h.1621l.1616-.16341v-.32639l.1617-.16327v-.16312l-.1617-.16283v-.16346l-.3237-.32673h-.1612l-.1618-.16312-.3229-.16357zm2.1015-3.42784-.4843-.32629-.1619-.16327h-.3233l-.6463-.16312c-1.1318-.32624-1.4551.32639-2.2633 1.3059v.16312h.3233l.1616-.16312h.1621v.16312h.6463l.1613.16277h.1617l.1613.16382.1623.16292.1616.16312-.1616.16327-.8084.16381-.6466.16277-.6467.16312-.8082.16293h-.6467l-.323.16356h-.3233l-.1615.16317h-.1621v.48985l.1621.16312v.16327h.6461l.6471-.16327.6463-.16312.6465-.16351.6467-.16253h3.3939l.3237-.16381h.485l.8078-.16317v-.32649l.1618-.16312v-.16277l.162-.32708v-.16312h-2.1015v-1.14298zm-8.5663 2.12194-.1616.16293v.32673l-.1617.48985v.32639l-.3234.48946-.1616.32673-.1617.48941-.1608.48966-.4854.81617-.3234.3264-.1619.3267v.1631l-.1618.1635v.3261l-.1611.3267v.4899l.1611.1631v.1629h.1618v.98l.1619.1629h.1617v-.1629l.1617-.3274.1613-.1629.4849-.4897.4855-.4897.4845-.3262.1614.1628.1619.3271v.1631l.1614.326v1.1426l-.1614.6534v.4896l-.1619.3266v.4888l-.1614.1639v1.3061h-.1616v1.1419l.1616.3266.1614.1636h.1619l.1614-.1636v-.1631l.1612-.1635.1622-.1629h.1613l.162-.1632.1613-.1638.162-.3259.1617-.1633v-.4892l.1613-.1638v-2.7742l.1617-.3268v-1.3058l.1612-.1631v-.1637l-.1612-.1634v-.6527h.1612v-.3264l.1621-.1631v-.1632l-.1621-.1635v-.1629l-.1612-.1635-.1617-.16291h-.323l-.162-.1639h-.3233v-.16303h-.1613l.1613-.16292v-.4898l.162-.32639v-.48941l-.3233-.4903-.1622-.48916-.3226-.48985zm-8.8899 4.24373v.8162l-.1617.3263h-.162v.1636l-.1607.1628-.4855.1634-.3234.1637h-.3227l-.1619.1631h-.1614v-.1631l-.1619-.3271v-.6527l.4852-.3264.4847-.1631.4847-.1632.3229-.1635zm.6463-2.44837v.16361l-.1617.16312-.1617.16346-.1613.16283-.1616.16312h-.3237l-.1607.16327-.1622.16356h-.3233v.16283h-.9694l-.1619-.16283v-.16356h-.1617v-.32639l.3236-.32629v-.16312l1.2927-.4903h.8082l.1613.16357h.1617v.16312zm-6.9505 6.04007-.1612-.164v-.3257l.1612-.3274v-.326l.1617-.3266.3238-.1629.1616-.1631h.4849l.1622.1631v.8155l-.1622.3274v.1629l-.3237.1628-.3228.164h-.3238zm3.2332-9.30415h-.1617v.32589l-.1616.32674v.16312l-.1612.32708-.162.65238v.48951l-.1612.16351v.32639l-.1622.32634v.16312l-.4849.16361-.3229.32658-.4851.16283-.3233.32639.3233.16356.3238.16283h.1613l.4848-.16283-.1619.32624v.32595l-.1617.32681-.1612.1635v.1629l-.1613.1635-.3238.3263-.1621.1635h-.1612l-.1616.1629v-1.63244l-.4855-.65272-.3228-.65268h-.1617v.48941l-.1613.32683h-.1614v.16283l-.1619.16341v.16292l-.1615.16303-.1619.32681v.3264l.1619.3267v1.3056l-.1619.3268v.326l-.1614.1635v.4896l-.1619.1638v.652l.1619.1635v.1636h.1614l.1619.1631.1615.1632h.3233l.1613.3261.1617.1638.1616.1628h.3229l.162.1632.4846.1628h.1621l.1616.6533v.3265l.1622.3263.3225.49.1617.3259.3236.1638.1613.3261.3234.1635h.162l.4845.1631.8081.1636.8086.1632h.8077l.4849-.1632.6463-.1636.485-.1631.6471-.1635.4849-.1629c.4847-.1632.9689-.327 1.6162-.4902 0-.1627.4849-.6527.6466-.8152l-.1617-.1638v-.1632l-.1616-.3264-.1627-.1628-.1606-.1635-.3236-.1639-.8079.3274-.6469.1628-.4845.1631-.3237.1633h-.3229l-.4854.1632-.6466.1638h-1.1306l-.485-.1638-.1619-.3265-.1617-.1631-.1616-.653h.1616v-.1632l.1617-.1628.4852-.3266 3.0709-.6532h.1618l.1615-.3258.1612-.164.1622-.3257.1609-.1638v-.9791l-.3231-.653.1622-.4899.1609-.3264.1617-.4898v-.48931l.1621-.48985v-.4898l.1614-.32639v-.65302l-.8083-1.3057-.3227-.32673-.4855-.16293h-.9696l-.8082.48966-.8077.48985h-.3236v-.16351l-.1614-.16253h.1614v-1.46956l-.1614-.16292v-.16382l-.3236-.16277-.1616-.16312h-.4847zm-19.0729 3.42769v-.65307l-.6462-1.3059-.162.32649-.1613.32698v.16253l-.1616.4899v1.95867l-.1621 1.46896v.6527l-.1608.8166-.1622 1.4686v3.102l.1622.1625.1608.1639.1621.1628h.1616l.1613-.3267.162-.1625v-.9797l.1613-.1639-.1613-.1628v-2.2851l.1613-.8162.1617-.8159.1617-.4899v-.3264l.1615-.8162v-.81617l.1621-.16283-.1621-.81624zm-12.769.48941.162-.16283.1616.48922.1617.32639v1.30607l-.1617.1632-.1616.1631-.162.1635-.1618.1629-.3228.1632h-.1621l-.1612.1631h-.4846l-.3234.1636-.6466.1628-.4854.1634-.4846.4897h-.162v-.1629l.162-.4902.1619-.4895.3227-.4896.3234-.3263.3239-.4899.3227-.16291.3232-.32693.4852-.32633h.1616v-.16283h.1612l.1621-.16356.1613-.16327zm7.1117-2.93808v.81619l-.1614.16317-.1616.16381v.16253h-.1617v.4899l-.323.32634-.3233.48985-.1615.16346-.1618.16283-.1615.16312-.1618.16327h-.97v-1.95877l.1618-.16253.162-.16381.1613-.16317h.3237l.1612-.16356h.3233l.1618-.16293h.3229v-.16312h.1619l.1618-.16277h.1612l.1617-.16381h.1616zm.4852.81619v-.65238h-.1618v-.16381l-.1614-.16327-.162-.16312h-.4847.1617-.1617v.16312h-.1612l-.1618-.16312h-.4848l-.3233.16312h-.323l.1612-.16312v-.16292h-.1612l-.1617-.16382h-.8086v.48986l-.323-.16312h-.4847l-.3236-.32674-.1621-.16277-.1609-.16312v-.32654l-.1618-.48935-.3234-.32689-.1615-.32589-.3233-.16346-.3234-.32684-.3232-.16282-.4851-.16381h-.323v.32663l.1617.4903v3.10032l-.3233.16356v.48951h-.162l-.6467.16351-.808.32639-.6459.32634-.6473.48985-.1609-.65342v-.48916l-.1618-.32604-.1619-.16381v-.16317h-.162c-.646 1.46887-1.2923 2.93808-1.7773 4.08074v.6527h-.1621v.8161h.1621v.4897l.1612.3266.1614.1631.1624.1629h.323l.1616.1636h.6464v.1638h.1613v.3257l.162.3263.1619.1635h.1618l.3229.1636h.3234l1.293-.4894 1.2931-.3268.1617.6526v1.3058l.1613.8161v1.3055l.1617.1632v.327h-.1617l.1617.6531.1616.8162v.3263-.1631h.1618v-.3271.1639-.9798l.1612.1636.162.1632v.1628l.1617.3263v.1639l.1617.1632-.1617.326v.4898l.1617.3265h.1617l.1616.1628.1615-.1628v-.1633l.1617-.1632v-.4898h.1617v-.326l.1618-.1632v-.1639l.1609-.1631v-1.6325l.1621-.1627v-.1633l.1613-.3267.1623-.4895.1613-.3264v-1.6321l.3234-.6525.323-.4897.1615-.3274v-.1629l.1618-.1631.162-.4895.1613-.1631.3237-.1637h.323l.3233-.1634h.3229v-.1628h.1619v-.3267h.1618v-.1632l.1612-.3264.1617-.3263v-.3264l.1616-.49031v-.81575l.3234-.48922v-.97965l.1614-.4899v-.48951zm5.9802-.65238v.16277l.4853-.16277h1.131l.162-.16381h.3233l.4847-.16327.3232-.16312.3234-.16292.485-.16382.4849-.32589.808-.16327h1.94l.1613.16327.1613.32589.1617.16382.162.32604v1.14263l-.162.48985v1.46887l-.1617.16312v2.12203l-.1613.1635-.1613-.1635-.1614-.1631-.1621-.1632-.3235-.1635h-.4848v.4898l-.1616.1635v.3261l-.1618.1631v.1636l-.1615.1628-.1612.1634h.4845l.4849-.1634h.485l.4848-.1628v.8159l.1613.8162v.8158l.1617.8167-.323.6526v1.3064l-.1613-.1638-.1614-.1632-.1621-.1633-.3235-.1631h-.3237l.3237.8159.3235.9797.3235.8163.4843.9794.3236.1631.3236.1629.3233.1628.3226.1635.3234-.1635.1621-.1628v-.1629l.1612-.3263.1617-.327v-2.4477l-.1617-.1638v-.3265l.1617-.3259v-4.2446l-.1617-.1628v-3.42774l-.1612-.32673v-.65273l.1612-.16312v-.81658l-.1612-.16293v-.81609l.1612-.16292v-.81625l-.3233-.32668-.3234-.32629-.4842-.65262h-1.2932l-.3235.16346h-.6472l-.4845.32589h-.8083l-.6465.16327h-.4846l-.485.16362-.646.16267-.3236.32668-.4853.16327-.4843.32639-.9701.32659-.97.16292zm-12.2842 14.52602v-.1628h-.1612v.4898l.1612.1632v-.1632h.162v.3265-.49h.1617v-.1635zm1.2936-.1628v.3263h.1618v.1635-.327h-.1618zm17.2944-4.8963-4.8488 1.6324h-1.9397l-.1613.1625.1613.3267.1622.326.1612.327.1613.3261.4853-.1629h.4851l.4846-.1632.1613-.1638h.3237l.3229-.1632.1623-.1627h.3227l.1616-.1633h.1617l.3229-.1628.8087-.4902.646-.4896zm30.3867-5.2237h-.9694l-.3233.1635h-.3234v.3264l.1618.1632v.1631l.1616.1635.1621.1629.1612.1632.3233.3267h.4848l.3236.1628h.4844l.3232.1634v.1637l.3234-.1637h.3239l.3228-.1634h.3233l.6466-1.3054v-.1635l-.1617-.1629h-.3237l-.323-.1635h-.9695zm-31.1949-3.59084-.3227-.32649v-.32589l-.1621-.16381h-.162l-.808.16381-.6467.32589-.8078.16293-.6463.32673-.6464.16381-.6466.32604-.647.32639-.646.32634.3235.48985.1612.16346.1613.32595h.1619v.16327l.1616.16356h1.2928v1.1425l-.3227.1629-.485.1635h-.3233l-.1618.1632-.3235.1631-.1613.1635-.1612.1629-.1622.3263v.4898l.4847.3268.3235.326h.3235v.1635h.1616v.4896h-.1616v.1638l-.3235.1629-.1616.1628-.1619.3263v.3271l-.1613.1631v.3265l.1613.3266v.326l.1619.1628h.8085l.3232-.1628.6464-.1632.3229-.1628h.1623l.1611-.1638.3232-.1628h.3234l.6467-.3265.485-.3267.4842-.3258.6468-.3268v-.4903l-.1615-.1629-.1612-.1631-.1621-.1635h-.808l.1618-.326v-.4902l.1615-.1628.1612-.1636h.1615l.162-.3263.1621-.1629v-.1635l.1612-.1631v-.1632l.1615-.1635v-.3264l-.6468-.48984-.4842-.48916v-.16356l.1615-.48922.3227-.32658.3241-.32673.3227-.32634v-.65243l.1618-.32698z" fill="#185196" fill-rule="evenodd"/><path clip-rule="evenodd" d="m10.367 2.34181c.162.32659.3232.81688.3232 1.14283-3.07091 1.46867-5.17196 3.1011-5.33375 5.22299.16179 1.79567 1.93951 2.44847 4.36389 2.77467.64666-4.89656 2.10216-9.95638 5.65746-10.77228 2.5861-.489361 4.3641 1.7956 5.4951 4.08051-.4844.16278-.8077.32659-1.2928.48946-.4849-.48946-.9694-.81584-1.6162-.48946-1.7782 1.30561-2.4242 3.59116-2.7478 6.03907 4.2025-.4897 9.8596-3.42762 9.8596-6.20223 0-1.79615-1.2929-2.28556-2.9095-2.6116-.1614-.48985-.1614-1.142483-.3233-1.63199 4.8491-.163121 9.0514 2.44744 8.5665 5.54918-1.2928 6.36594-9.8599 8.97754-15.1933 10.12044 0 4.8963.8083 7.8347 2.5859 8.3236.8087 0 1.6166-1.3053 2.4248-5.549.8081-.1635 1.4547-.4902 2.2627-.653-.808 6.6919-3.5556 10.6094-6.1421 10.7723-2.4244.1638-4.5249-2.2848-5.8184-6.0392-.4853-1.7956-.96976-3.9169-.96976-6.3656-4.52613-.4891-8.4049-1.632-8.566589-5.0602-.161987-3.59081 4.202249-7.34523 9.374349-9.14049z" fill="#185196" fill-rule="evenodd"/><path clip-rule="evenodd" d="m90.2139 22.9078v3.7543h1.1318v-2.9381h.1613l.9697 2.9381h.9705l.8073-2.9381h.1621v2.9381h1.1316v-3.7543h-1.7782l-.808 2.2851h-.1621l-.646-2.2851zm-4.2028 1.7952v-.4891c.1622-.1635.1622-.3261.3235-.3261 0-.1638.162-.1638.3233-.1638.162-.1631.3237-.1631.485-.1631.1617 0 .3229 0 .3229.1631.1621 0 .3236 0 .486.1638 0 0 .1609.1626.1609.3261v.979c0 .1635-.1609.327-.1609.4898-.1624 0-.3239.1632-.3239.1632h-.97c-.1613 0-.3233-.1632-.3233-.1632-.1613-.1628-.1613-.3263-.3235-.3263zm-1.2926 0v.6534c.1622.1635.1622.3263.3234.4895 0 .1632.1617.3267.3233.3267.1614.1629.3233.1629.4847.3267.3234.1628.808.1628 1.293.1628h.6465c.3233-.1628.4846-.1628.6463-.1628.1621-.1638.3241-.3267.4854-.3267.1613-.1635.1613-.3267.3233-.3267 0-.1632.1617-.326.1617-.4895s.1613-.4899.1613-.6534c0-.3263-.1613-.4891-.1613-.8152-.1617-.1638-.3237-.3269-.485-.4906-.4854-.3258-1.1317-.4894-1.7782-.4894h-1.1318c-.1612.1636-.4845.3266-.6459.4894-.3233.1637-.4845.3268-.4845.4906-.1622.3261-.1622.4889-.1622.8152zm-1.7777.4899v.327c-.1618 0-.1618.1628-.3238.1628 0 .1632-.1612.1632-.1612.1632h-.9701s-.1615-.1632-.3226-.1632c0-.1628-.1616-.1628-.1616-.3263v-1.1425s.1616-.1635.1616-.3261c.1611 0 .3226-.1638.3226-.1638.1621-.1631.3238-.1631.485-.1631h.3238s.1613 0 .1613.1631h.1612c.162 0 .162.1638.162.1638s.1618 0 .1618.1626l1.1315-.1626c0-.1638-.162-.3269-.3233-.3269 0-.1637-.1617-.3265-.3233-.4895-.162 0-.3238-.1636-.6467-.1636h-1.7775c-.3235.1636-.4851.3266-.8084.4894-.1619.1637-.3236.3268-.3236.4906-.162.3261-.162.4889-.162.8152v.6534c.162.1635.162.3263.3237.4895.1619.1632.1619.3267.3225.3267.1627.1629.3243.3267.486.3267.1618 0 .3234.1628.4845.1628h1.2928c.162 0 .3238-.1628.4849-.1628.1618 0 .3238-.1638.3238-.1638.1616 0 .3233-.1629.3233-.1629.1613-.1635.1613-.3267.3233-.3267v-.326zm-7.7587-2.2851v3.7543h3.8795v-.8162h-2.5863v-.8165h2.2625v-.6527h-2.2625v-.8158h2.4242v-.6531zm-4.3639 0v3.7543h3.7178v-.8162h-2.4246v-2.9381zm-4.6876 0v3.7543h3.8793v-.8162h-2.5862v-.8165h2.4246v-.6527h-2.4246v-.8158h2.5862v-.6531zm-5.011 0v.8162h1.617v2.9381h1.2929v-2.9381h1.4549v-.8162zm-3.8784 2.2851.1612.1635h-1.2925v-.1635l.4846-1.4689h.1613zm.3235.8162.3227.653h1.2929l-1.7779-3.7543h-1.4543l-1.7782 3.7543h1.4549l.1617-.653zm-8.2436-3.1013v3.7543h1.1315v-2.122h.1622l1.7775 2.122h1.2929v-3.7543h-1.2929v2.1216h-.162l-1.7777-2.1216zm-2.4246 3.7543h1.2929v-3.7543h-1.2929zm-5.4959-3.7543v3.7543h1.2935v-1.6327h1.7775v1.6327h1.2934v-3.7543h-1.2934v1.3061h-1.7775v-1.3061zm-1.9388 2.2851v.327c-.1619 0-.1619.1628-.3239.1628 0 .1632-.1613.1632-.3234.1632h-.8079s-.161-.1632-.3234-.1632c0-.1628-.1613-.1628-.1613-.3263v-1.1425s.1613-.1635.1613-.3261c.1624 0 .1624-.1638.3234-.1638.1613-.1631.3233-.1631.4852-.1631h.3227s.1621 0 .1621.1631h.1613l.162.1638.1619.1626 1.1311-.1626c0-.1638-.1617-.3269-.323-.3269 0-.1637-.1622-.3265-.3234-.4895-.162 0-.4847-.1636-.6466-.1636h-1.778c-.3233.1636-.4845.3266-.8087.4894-.1614.1637-.3226.3268-.3226.4906-.1621.3261-.1621.4889-.1621.8152v.6534c0 .1635.1621.3263.3233.4895 0 .1632.1614.3267.3238.3267.1618.1629.323.3267.4846.3267.1617 0 .323.1628.4854.1628h1.2923c.162 0 .3239-.1628.4853-.1628.1613 0 .1613-.1638.3233-.1638.1612 0 .1612-.1629.3234-.1629.1613-.1635.1613-.3267.1613-.3267.1617-.1632.1617-.326.1617-.326z" fill="#185196" fill-rule="evenodd"/><g fill="#de0429"><path d="m171.917 15.119v-4.1744h6.255v-1.44675h-14.996v1.44675h6.254v4.172.0142h-6.748v1.4469h6.571c-.436 2.0912-1.879 5.0221-6.571 6.3028v1.4965c4.59-.6933 6.863-3.132 7.992-5.4005 1.129 2.2685 3.402 4.7072 7.992 5.4005v-1.4965c-4.692-1.2807-6.136-4.2115-6.571-6.3028h6.571v-1.4469h-6.748c0-.0038 0-.008-.001-.0118z"/><path d="m212.937 9.49656h-14.996v1.44684h14.996z"/><path d="m213.432 16.4175v-1.4467h-15.985v1.4467h2.957l-2.049 6.0521c-.154.4533-.079.956.2 1.3449s.731.621 1.21.621h11.728c.491 0 .949-.2412 1.227-.6455.278-.4038.339-.9185.163-1.376l-1.498-3.9068h-2.18l1.633 4.2598h-10.429l2.151-6.3495z"/><path d="m185.751 20.2929h4.724v.8163h-4.724zm0-1.7896h4.724v.8163h-4.724zm-3.411-1.6808h4.854v.7601h-4.854zm4.854-.7365h-4.854v-.7601h4.854zm6.693 0h-4.855v-.7601h4.855zm-4.855.7365h4.855v.7601h-4.855zm3.623 5.2601h3.237v-.9734h-3.331v-.8163h3.331v-.9733h-3.331v-.8163h2.568c.329 0 .596-.2667.596-.5958v-2.9064c0-.3292-.267-.5959-.596-.5959h-14.032c-.329 0-.596.2667-.596.5959v2.9064c0 .3291.267.5958.596.5958h2.568v.8163h-3.331v.9733h3.331v.8163h-3.331v.9734h3.237c-.192.5097-.838 1.0377-1.75 1.1861-.47.0764-.86.1159-1.504.1305v1.0442c1.025 0 1.875-.072 2.675-.226 1.33-.2561 2.307-1.0734 2.637-2.1348h4.968c.33 1.0614 1.307 1.8787 2.637 2.1348.799.154 1.649.226 2.674.226v-1.0442c-.643-.0146-1.033-.0541-1.503-.1305-.912-.1484-1.559-.6764-1.75-1.1861z"/><path d="m186.287 13.6816h.181c.694 0 1.255-.5619 1.255-1.2552v-1.6741c0-.6933-.561-1.25522-1.255-1.25522h-6.099v.93272h5.158c.198 0 .358.1605.358.3583v.433h-5.184v.7365h5.184v.4329c0 .1979-.16.3583-.358.3583h-5.158v.9328h5.516z"/><path d="m194.42 13.6816h.181c.693 0 1.255-.5619 1.255-1.2552v-1.6741c0-.6933-.562-1.25522-1.255-1.25522h-6.099v.93272h5.157c.198 0 .359.1605.359.3583v.433h-5.184v.7365h5.184v.4329c0 .1979-.161.3583-.359.3583h-5.157v.9328h5.516z"/><path d="m150.024 9.8943c-1.13-2.8298-4.134-4.44302-7.108-3.83266-1.779-1.94902-4.343-3.17417-7.194-3.17417-3.745 0-6.998 2.11904-8.62 5.22359h-.013c-4.81 0-8.712 3.89804-8.712 8.71174 0 4.8092 3.902 8.7118 8.712 8.7118.003 0 .007-.0003.011-.0003h13.668c.117 0 .173-.1409.088-.2232-.948-.9277-1.716-2.04-2.245-3.2786-.034-.0794-.111-.1313-.197-.1313h-11.322c-2.166-.0007-4.227-1.3858-4.896-3.6984-.612-2.1162.262-4.4409 2.113-5.636 1.662-1.0738 3.63-1.0514 5.188-.214.175-3.03373 2.497-5.60498 5.62-5.97443 2.893-.3424 5.558 1.30876 6.633 3.86683.001.0001.001.0001.001.0002.968-1.10625 2.609-1.4254 3.942-.67852 1.334.74682 1.92 2.31192 1.483 3.71532 2.108-.5765 4.438.4374 5.359 2.589.879 2.0559.066 4.5187-1.86 5.6557-2.205 1.302-5.033.517-6.259-1.7098-.274-.4977-.439-1.0245-.513-1.5555h2.245c.147 0 .221-.1783.117-.2825l-4.328-4.324c-.081-.0806-.212-.0806-.292.0001l-4.324 4.324c-.105.1042-.031.2824.117.2824h2.125c.022 1.0596.245 2.0711.633 2.9955 1.26 3.0435 4.259 5.1843 7.761 5.1843 4.643 0 8.402-3.7628 8.402-8.4021 0-3.9287-2.695-7.2249-6.335-8.145z"/></g></svg>