<svg fill="none" height="500" viewBox="0 0 1193 500" width="1193" xmlns="http://www.w3.org/2000/svg"><path d="m276.664 499.715v-474.0002" stroke="#000" stroke-opacity=".4"/><path d="m488.664 499.715v-474.0002" stroke="#000" stroke-opacity=".4"/><path d="m699.664 499.715v-474.0002" stroke="#000" stroke-opacity=".4"/><path d="m911.664 499.715v-474.0002" stroke="#000" stroke-opacity=".4"/><path d="m270.474 18h1.818v-12.366h-1.458l-3.258 2.214.756 1.314 2.142-1.368zm8.98.216c3.078 0 5.256-2.646 5.256-6.408 0-3.744-2.178-6.39-5.256-6.39-3.114 0-5.292 2.646-5.292 6.39 0 3.762 2.178 6.408 5.292 6.408zm0-1.674c-2.016 0-3.438-1.962-3.438-4.734s1.422-4.716 3.438-4.716c1.998 0 3.402 1.944 3.402 4.716s-1.404 4.734-3.402 4.734z" fill="#000" fill-opacity=".7"/><path d="m696.647 18.216c2.682 0 4.446-1.512 4.446-3.6 0-1.728-1.35-2.664-2.628-2.952 1.296-.396 2.358-1.35 2.358-2.88 0-1.98-1.728-3.366-4.23-3.366-2.016 0-3.42.936-4.374 2.178l1.134 1.116c.864-1.008 1.818-1.656 3.114-1.656 1.44 0 2.52.828 2.52 1.98 0 1.242-1.098 1.926-2.664 1.926l-1.35-.018v1.62h1.35c1.836-.018 2.916.648 2.916 1.926 0 1.242-1.026 2.088-2.628 2.088-1.422 0-2.628-.666-3.456-1.674l-1.17 1.206c.954 1.188 2.556 2.106 4.662 2.106zm10.904 0c3.078 0 5.256-2.646 5.256-6.408 0-3.744-2.178-6.39-5.256-6.39-3.114 0-5.292 2.646-5.292 6.39 0 3.762 2.178 6.408 5.292 6.408zm0-1.674c-2.016 0-3.438-1.962-3.438-4.734s1.422-4.716 3.438-4.716c1.998 0 3.402 1.944 3.402 4.716s-1.404 4.734-3.402 4.734z" fill="#000" fill-opacity=".7"/><path d="m481.65 18h8.802v-1.692h-5.922l2.898-2.448c2.124-1.728 2.916-3.042 2.916-4.698 0-2.25-1.836-3.744-4.14-3.744-1.962 0-3.42.9-4.5 2.394l1.224 1.08c.864-1.116 1.854-1.836 3.204-1.836 1.224 0 2.34.792 2.34 2.142 0 1.116-.63 2.178-2.286 3.564l-4.536 3.744zm15.194.216c3.078 0 5.256-2.646 5.256-6.408 0-3.744-2.178-6.39-5.256-6.39-3.114 0-5.292 2.646-5.292 6.39 0 3.762 2.178 6.408 5.292 6.408zm0-1.674c-2.016 0-3.438-1.962-3.438-4.734s1.422-4.716 3.438-4.716c1.998 0 3.402 1.944 3.402 4.716s-1.404 4.734-3.402 4.734z" fill="#000" fill-opacity=".7"/><path d="m906.748 18h1.818v-2.844h1.782v-1.602h-1.782v-7.92h-2.16l-5.994 8.064.198 1.458h6.138zm-4.338-4.446 4.338-5.85v5.85zm13.85 4.662c3.078 0 5.256-2.646 5.256-6.408 0-3.744-2.178-6.39-5.256-6.39-3.114 0-5.292 2.646-5.292 6.39 0 3.762 2.178 6.408 5.292 6.408zm0-1.674c-2.016 0-3.438-1.962-3.438-4.734s1.422-4.716 3.438-4.716c1.998 0 3.402 1.944 3.402 4.716s-1.404 4.734-3.402 4.734z" fill="#000" fill-opacity=".7"/><g fill="#0f0b47"><path d="m.656 55.7148h8.304v-2.128h-4.656l2-1.552c1.92-1.392 2.56-2.528 2.56-4 0-2.064-1.696-3.504-4.032-3.504-1.776 0-3.168.768-4.256 2.144l1.504 1.456c.8-.912 1.616-1.456 2.688-1.456.896 0 1.664.544 1.664 1.456 0 .768-.416 1.488-1.728 2.528l-4.048 3.136zm14.8373.192c2.896 0 4.928-2.352 4.928-5.696 0-3.328-2.032-5.68-4.928-5.68s-4.944 2.352-4.944 5.68c0 3.344 2.048 5.696 4.944 5.696zm0-2.144c-1.472 0-2.512-1.488-2.512-3.552s1.04-3.536 2.512-3.536 2.5119 1.472 2.5119 3.536-1.0399 3.552-2.5119 3.552zm8.8782 1.952h2.352v-10.992h-1.888l-3.296 2.208.96 1.664 1.872-1.168zm9.659-7.104c-1.04 0-2.048.4-2.72 1.056.208-1.856 1.168-3.056 2.608-3.056.928 0 1.568.336 2.24.896l1.12-1.792c-.896-.72-2-1.184-3.36-1.184-3.056 0-5.056 2.448-5.056 5.872 0 3.2 1.472 5.504 4.672 5.504 2.4 0 4.208-1.552 4.208-3.808 0-2.176-1.68-3.488-3.712-3.488zm-.624 5.296c-1.232 0-1.824-.752-2.032-2.096.336-.784 1.072-1.28 1.968-1.28 1.072 0 1.968.624 1.968 1.68 0 .88-.736 1.696-1.904 1.696z"/><path d="m.656 120.953h8.304v-2.128h-4.656l2-1.552c1.92-1.392 2.56-2.528 2.56-4 0-2.064-1.696-3.504-4.032-3.504-1.776 0-3.168.768-4.256 2.144l1.504 1.456c.8-.912 1.616-1.456 2.688-1.456.896 0 1.664.544 1.664 1.456 0 .768-.416 1.488-1.728 2.528l-4.048 3.136zm14.8373.192c2.896 0 4.928-2.352 4.928-5.696 0-3.328-2.032-5.68-4.928-5.68s-4.944 2.352-4.944 5.68c0 3.344 2.048 5.696 4.944 5.696zm0-2.144c-1.472 0-2.512-1.488-2.512-3.552s1.04-3.536 2.512-3.536 2.5119 1.472 2.5119 3.536-1.0399 3.552-2.5119 3.552zm8.8782 1.952h2.352v-10.992h-1.888l-3.296 2.208.96 1.664 1.872-1.168zm5.227 0h2.656l4.448-9.216v-1.776h-8.176v2.128h5.44z"/><path d="m.656 189.184h8.304v-2.128h-4.656l2-1.552c1.92-1.392 2.56-2.528 2.56-4 0-2.064-1.696-3.504-4.032-3.504-1.776 0-3.168.768-4.256 2.144l1.504 1.456c.8-.912 1.616-1.456 2.688-1.456.896 0 1.664.544 1.664 1.456 0 .768-.416 1.488-1.728 2.528l-4.048 3.136zm14.8373.192c2.896 0 4.928-2.352 4.928-5.696 0-3.328-2.032-5.68-4.928-5.68s-4.944 2.352-4.944 5.68c0 3.344 2.048 5.696 4.944 5.696zm0-2.144c-1.472 0-2.512-1.488-2.512-3.552s1.04-3.536 2.512-3.536 2.5119 1.472 2.5119 3.536-1.0399 3.552-2.5119 3.552zm8.8782 1.952h2.352v-10.992h-1.888l-3.296 2.208.96 1.664 1.872-1.168zm8.843.192c2.416 0 4.416-1.136 4.416-3.136 0-1.264-.864-2.224-2.16-2.736 1.104-.48 1.888-1.28 1.888-2.512 0-1.888-1.952-2.992-4.144-2.992-2.144 0-4.128 1.056-4.128 2.992 0 1.248.784 2.048 1.872 2.512-1.264.48-2.16 1.44-2.16 2.736 0 1.984 1.984 3.136 4.416 3.136zm0-6.688c-.864-.064-1.776-.544-1.776-1.392 0-.752.72-1.312 1.776-1.312s1.792.56 1.792 1.312c0 .816-.928 1.328-1.792 1.392zm0 4.704c-1.168 0-2.016-.576-2.016-1.408 0-.864 1.072-1.408 2.016-1.44.944.032 2.032.576 2.032 1.44 0 .832-.864 1.408-2.032 1.408z"/><path d="m.656 258.422h8.304v-2.128h-4.656l2-1.552c1.92-1.392 2.56-2.528 2.56-4 0-2.064-1.696-3.504-4.032-3.504-1.776 0-3.168.768-4.256 2.144l1.504 1.456c.8-.912 1.616-1.456 2.688-1.456.896 0 1.664.544 1.664 1.456 0 .768-.416 1.488-1.728 2.528l-4.048 3.136zm14.8373.192c2.896 0 4.928-2.352 4.928-5.696 0-3.328-2.032-5.68-4.928-5.68s-4.944 2.352-4.944 5.68c0 3.344 2.048 5.696 4.944 5.696zm0-2.144c-1.472 0-2.512-1.488-2.512-3.552s1.04-3.536 2.512-3.536 2.5119 1.472 2.5119 3.536-1.0399 3.552-2.5119 3.552zm8.8782 1.952h2.352v-10.992h-1.888l-3.296 2.208.96 1.664 1.872-1.168zm8.555-11.184c-2.4 0-4.208 1.552-4.208 3.808 0 2.176 1.68 3.488 3.712 3.488 1.04 0 2.048-.4 2.72-1.056-.208 1.856-1.168 3.056-2.608 3.056-.928 0-1.568-.336-2.24-.896l-1.12 1.792c.896.72 2 1.184 3.36 1.184 3.056 0 5.056-2.448 5.056-5.872 0-3.2-1.472-5.504-4.672-5.504zm.192 5.376c-1.072 0-1.968-.624-1.968-1.68 0-.88.736-1.696 1.904-1.696 1.232 0 1.824.752 2.032 2.096-.336.784-1.072 1.28-1.968 1.28z"/><path d="m.656 325.654h8.304v-2.128h-4.656l2-1.552c1.92-1.392 2.56-2.528 2.56-4 0-2.064-1.696-3.504-4.032-3.504-1.776 0-3.168.768-4.256 2.144l1.504 1.456c.8-.912 1.616-1.456 2.688-1.456.896 0 1.664.544 1.664 1.456 0 .768-.416 1.488-1.728 2.528l-4.048 3.136zm14.8373.192c2.896 0 4.928-2.352 4.928-5.696 0-3.328-2.032-5.68-4.928-5.68s-4.944 2.352-4.944 5.68c0 3.344 2.048 5.696 4.944 5.696zm0-2.144c-1.472 0-2.512-1.488-2.512-3.552s1.04-3.536 2.512-3.536 2.5119 1.472 2.5119 3.536-1.0399 3.552-2.5119 3.552zm6.3502 1.952h8.304v-2.128h-4.656l2-1.552c1.92-1.392 2.56-2.528 2.56-4 0-2.064-1.696-3.504-4.032-3.504-1.776 0-3.168.768-4.256 2.144l1.504 1.456c.8-.912 1.616-1.456 2.688-1.456.896 0 1.664.544 1.664 1.456 0 .768-.416 1.488-1.728 2.528l-4.048 3.136zm14.8373.192c2.896 0 4.928-2.352 4.928-5.696 0-3.328-2.032-5.68-4.928-5.68s-4.944 2.352-4.944 5.68c0 3.344 2.048 5.696 4.944 5.696zm0-2.144c-1.472 0-2.512-1.488-2.512-3.552s1.04-3.536 2.512-3.536 2.5119 1.472 2.5119 3.536-1.0399 3.552-2.5119 3.552z"/><path d="m.656 392.887h8.304v-2.128h-4.656l2-1.552c1.92-1.392 2.56-2.528 2.56-4 0-2.064-1.696-3.504-4.032-3.504-1.776 0-3.168.768-4.256 2.144l1.504 1.456c.8-.912 1.616-1.456 2.688-1.456.896 0 1.664.544 1.664 1.456 0 .768-.416 1.488-1.728 2.528l-4.048 3.136zm14.8373.192c2.896 0 4.928-2.352 4.928-5.696 0-3.328-2.032-5.68-4.928-5.68s-4.944 2.352-4.944 5.68c0 3.344 2.048 5.696 4.944 5.696zm0-2.144c-1.472 0-2.512-1.488-2.512-3.552s1.04-3.536 2.512-3.536 2.5119 1.472 2.5119 3.536-1.0399 3.552-2.5119 3.552zm6.3502 1.952h8.304v-2.128h-4.656l2-1.552c1.92-1.392 2.56-2.528 2.56-4 0-2.064-1.696-3.504-4.032-3.504-1.776 0-3.168.768-4.256 2.144l1.504 1.456c.8-.912 1.616-1.456 2.688-1.456.896 0 1.664.544 1.664 1.456 0 .768-.416 1.488-1.728 2.528l-4.048 3.136zm12.3093 0h2.352v-10.992h-1.888l-3.296 2.208.96 1.664 1.872-1.168z"/><path d="m.656 464.229h8.304v-2.128h-4.656l2-1.552c1.92-1.392 2.56-2.528 2.56-4 0-2.064-1.696-3.504-4.032-3.504-1.776 0-3.168.768-4.256 2.144l1.504 1.456c.8-.912 1.616-1.456 2.688-1.456.896 0 1.664.544 1.664 1.456 0 .768-.416 1.488-1.728 2.528l-4.048 3.136zm14.8373.192c2.896 0 4.928-2.352 4.928-5.696 0-3.328-2.032-5.68-4.928-5.68s-4.944 2.352-4.944 5.68c0 3.344 2.048 5.696 4.944 5.696zm0-2.144c-1.472 0-2.512-1.488-2.512-3.552s1.04-3.536 2.512-3.536 2.5119 1.472 2.5119 3.536-1.0399 3.552-2.5119 3.552zm6.3502 1.952h8.304v-2.128h-4.656l2-1.552c1.92-1.392 2.56-2.528 2.56-4 0-2.064-1.696-3.504-4.032-3.504-1.776 0-3.168.768-4.256 2.144l1.504 1.456c.8-.912 1.616-1.456 2.688-1.456.896 0 1.664.544 1.664 1.456 0 .768-.416 1.488-1.728 2.528l-4.048 3.136zm9.7813 0h8.304v-2.128h-4.656l2-1.552c1.9199-1.392 2.56-2.528 2.56-4 0-2.064-1.696-3.504-4.032-3.504-1.776 0-3.168.768-4.256 2.144l1.504 1.456c.8-.912 1.616-1.456 2.688-1.456.896 0 1.664.544 1.664 1.456 0 .768-.416 1.488-1.7281 2.528l-4.0479 3.136z"/></g><path d="m813 477.131v-41.24-1.891h-7.629-732.7417-7.6293v1.891 41.24 1.869h7.6293 732.7417 7.629z" fill="#5c2cff"/><path d="m996.115 219.148h2.96v-8.88l6.625 8.88h2.96v-13.74h-2.96v8.88l-6.625-8.88h-2.96zm26.995-11.08v-2.66h-10.58v13.74h10.58v-2.66h-7.62v-3.02h6.92v-2.66h-6.92v-2.74zm6.26 11.08h2.98l3.26-9.44 3.24 9.44h2.98l4.16-13.74h-3.22l-2.52 9.22-3.04-9.22h-3.22l-3.04 9.22-2.54-9.22h-3.2zm25.18 0h2.96v-4.46h3.22c3 0 5.18-1.92 5.18-4.64s-2.18-4.64-5.18-4.64h-6.18zm2.96-7.16v-3.88h2.92c1.46 0 2.46.76 2.46 1.94s-1 1.94-2.46 1.94zm22.71-1.94c0-2.72-2.18-4.64-5.18-4.64h-6.18v13.74h2.96v-4.46h1.78l3.14 4.46h3.36l-3.3-4.7c2.06-.6 3.42-2.24 3.42-4.4zm-8.4-1.94h2.92c1.46 0 2.46.76 2.46 1.94s-1 1.94-2.46 1.94h-2.92zm18.02 11.28c3.96 0 7.28-3.26 7.28-7.12s-3.32-7.1-7.28-7.1-7.32 3.24-7.32 7.1 3.36 7.12 7.32 7.12zm0-2.68c-2.32 0-4.28-2.04-4.28-4.44 0-2.38 1.96-4.42 4.28-4.42 2.3 0 4.26 2.04 4.26 4.42 0 2.4-1.96 4.44-4.26 4.44zm13.72 2.68c2.76 0 4.72-1.96 4.72-4.72v-9.26h-2.96v9.02c0 1.34-.86 2.28-2.08 2.28-.92 0-1.9-.62-2.34-1.52l-1.96 1.92c.94 1.34 2.84 2.28 4.62 2.28zm18.99-11.32v-2.66h-10.58v13.74h10.58v-2.66h-7.62v-3.02h6.92v-2.66h-6.92v-2.74zm9.76 11.32c2.08 0 3.98-.9 5.32-2.3l-2.14-1.92c-.78.92-1.92 1.54-3.18 1.54-2.32 0-4.28-2.04-4.28-4.44 0-2.38 1.96-4.42 4.28-4.42 1.24 0 2.4.62 3.18 1.54l2.14-1.92c-1.34-1.42-3.24-2.3-5.32-2.3-3.96 0-7.32 3.24-7.32 7.1s3.36 7.12 7.32 7.12zm11.28-.24h2.94v-11.08h4.3v-2.66h-11.52v2.66h4.28zm15.07.24c3.34 0 5.34-1.74 5.34-4.36 0-2.54-1.96-3.42-4.92-4.08-2.12-.48-2.96-.8-2.96-1.8 0-.82.78-1.48 2.02-1.48 1.32 0 2.7.54 3.94 1.54l1.54-2.14c-1.42-1.2-3.14-1.9-5.38-1.9-3.02 0-5.1 1.74-5.1 4.28 0 2.66 2.08 3.48 4.98 4.14 2.1.48 2.9.78 2.9 1.76 0 .86-.76 1.54-2.26 1.54-1.74 0-3.22-.68-4.52-1.8l-1.68 2.02c1.6 1.48 3.7 2.28 6.1 2.28zm-152.6 23.76h3.32l-5.6-13.74h-3.3l-5.605 13.74h3.3l.96-2.36h5.965zm-5.98-4.66 2.04-5.02 2.04 5.02zm18.44 4.9c2.08 0 3.98-.9 5.32-2.3l-2.14-1.92c-.78.92-1.92 1.54-3.18 1.54-2.32 0-4.28-2.04-4.28-4.44 0-2.38 1.96-4.42 4.28-4.42 1.24 0 2.4.62 3.18 1.54l2.14-1.92c-1.34-1.42-3.24-2.3-5.32-2.3-3.96 0-7.32 3.24-7.32 7.1s3.36 7.12 7.32 7.12zm14.6 0c2.08 0 3.98-.9 5.32-2.3l-2.14-1.92c-.78.92-1.92 1.54-3.18 1.54-2.32 0-4.28-2.04-4.28-4.44 0-2.38 1.96-4.42 4.28-4.42 1.24 0 2.4.62 3.18 1.54l2.14-1.92c-1.34-1.42-3.24-2.3-5.32-2.3-3.96 0-7.32 3.24-7.32 7.1s3.36 7.12 7.32 7.12zm18.68-11.32v-2.66h-10.58v13.74h10.58v-2.66h-7.62v-3.02h6.92v-2.66h-6.92v-2.74zm3.26 11.08h2.96v-4.46h3.22c3 0 5.18-1.92 5.18-4.64s-2.18-4.64-5.18-4.64h-6.18zm2.96-7.16v-3.88h2.92c1.46 0 2.46.76 2.46 1.94s-1 1.94-2.46 1.94zm14.53 7.16h2.94v-11.08h4.3v-2.66h-11.52v2.66h4.28zm20.57-11.08v-2.66h-10.58v13.74h10.58v-2.66h-7.62v-3.02h6.92v-2.66h-6.92v-2.74zm3.26 11.08h4.94c4.62 0 7.9-2.86 7.9-6.88s-3.28-6.86-7.9-6.86h-4.94zm2.96-2.68v-8.38h2.36c2.62 0 4.48 1.74 4.48 4.18 0 2.46-1.86 4.2-4.48 4.2zm18.77 2.68h7.24c2.62 0 4.5-1.52 4.5-3.72 0-1.52-.92-2.8-2.52-3.52 1.22-.64 1.92-1.66 1.92-3.06 0-2-1.72-3.44-4.18-3.44h-6.96zm2.94-8.2v-3.02h3.3c1.1 0 1.88.64 1.88 1.5 0 .88-.78 1.52-1.88 1.52zm0 5.68v-3.36h3.74c1.2 0 2.04.7 2.04 1.68s-.84 1.68-2.04 1.68zm16 2.52h2.98v-4.96l5.36-8.78h-3.3l-3.56 6.02-3.42-6.02h-3.44l5.38 8.78zm-134.43 24.24c2.08 0 3.98-.9 5.32-2.3l-2.14-1.92c-.78.92-1.92 1.54-3.18 1.54-2.32 0-4.285-2.04-4.285-4.44 0-2.38 1.965-4.42 4.285-4.42 1.24 0 2.4.62 3.18 1.54l2.14-1.92c-1.34-1.42-3.24-2.3-5.32-2.3-3.965 0-7.325 3.24-7.325 7.1s3.36 7.12 7.325 7.12zm8.09-.24h2.96v-8.88l6.62 8.88h2.96v-13.74h-2.96v8.88l-6.62-8.88h-2.96zm22.92.24c2.08 0 3.98-.9 5.32-2.3l-2.14-1.92c-.78.92-1.92 1.54-3.18 1.54-2.32 0-4.28-2.04-4.28-4.44 0-2.38 1.96-4.42 4.28-4.42 1.24 0 2.4.62 3.18 1.54l2.14-1.92c-1.34-1.42-3.24-2.3-5.32-2.3-3.96 0-7.32 3.24-7.32 7.1s3.36 7.12 7.32 7.12zm18.68-11.32v-2.66h-10.58v13.74h2.96v-5.44h6.92v-2.66h-6.92v-2.98zm11.97 11.08h2.94v-11.08h4.3v-2.66h-11.52v2.66h4.28zm16.5.24c3.96 0 7.28-3.26 7.28-7.12s-3.32-7.1-7.28-7.1-7.32 3.24-7.32 7.1 3.36 7.12 7.32 7.12zm0-2.68c-2.32 0-4.28-2.04-4.28-4.44 0-2.38 1.96-4.42 4.28-4.42 2.3 0 4.26 2.04 4.26 4.42 0 2.4-1.96 4.44-4.26 4.44zm16.86 2.68c2.08 0 3.98-.9 5.32-2.3l-2.14-1.92c-.78.92-1.92 1.54-3.18 1.54-2.32 0-4.28-2.04-4.28-4.44 0-2.38 1.96-4.42 4.28-4.42 1.24 0 2.4.62 3.18 1.54l2.14-1.92c-1.34-1.42-3.24-2.3-5.32-2.3-3.96 0-7.32 3.24-7.32 7.1s3.36 7.12 7.32 7.12zm13.03-.24h10.38v-2.66h-5.82l2.5-1.94c2.4-1.74 3.2-3.16 3.2-5 0-2.58-2.12-4.38-5.04-4.38-2.22 0-3.96.96-5.32 2.68l1.88 1.82c1-1.14 2.02-1.82 3.36-1.82 1.12 0 2.08.68 2.08 1.82 0 .96-.52 1.86-2.16 3.16l-5.06 3.92zm18.95.24c3.62 0 6.16-2.94 6.16-7.12 0-4.16-2.54-7.1-6.16-7.1s-6.18 2.94-6.18 7.1c0 4.18 2.56 7.12 6.18 7.12zm0-2.68c-1.84 0-3.14-1.86-3.14-4.44s1.3-4.42 3.14-4.42 3.14 1.84 3.14 4.42-1.3 4.44-3.14 4.44zm8.33 2.44h10.38v-2.66h-5.82l2.5-1.94c2.4-1.74 3.2-3.16 3.2-5 0-2.58-2.12-4.38-5.04-4.38-2.22 0-3.96.96-5.32 2.68l1.88 1.82c1-1.14 2.02-1.82 3.36-1.82 1.12 0 2.08.68 2.08 1.82 0 .96-.52 1.86-2.16 3.16l-5.06 3.92zm12.63 0h10.38v-2.66h-5.82l2.5-1.94c2.4-1.74 3.2-3.16 3.2-5 0-2.58-2.12-4.38-5.04-4.38-2.22 0-3.96.96-5.32 2.68l1.88 1.82c1-1.14 2.02-1.82 3.36-1.82 1.12 0 2.08.68 2.08 1.82 0 .96-.52 1.86-2.16 3.16l-5.06 3.92z" fill="#0f0b47"/><path d="m1016.06 182.96c10.08 0 18-7.04 18-15.92 0-7.12-4.64-11.84-10.72-13.2 5.6-1.68 9.52-6.24 9.52-12.8 0-8.32-7.6-14.96-17.04-14.96-7.44 0-13.36 3.68-18.245 10.24l2.805 2.48c4.32-5.84 9.2-8.88 15.11-8.88 7.29 0 13.29 5.12 13.29 11.6 0 6.8-5.44 10.8-14 10.72h-5.36v3.84h5.28c9.52 0 15.28 3.84 15.28 10.8 0 6.88-6.08 12.24-13.92 12.24-6.88 0-12.4-3.2-16.405-9.04l-2.8 2.72c4.885 6.48 11.285 10.16 19.205 10.16zm47.55 0c10.16 0 18.24-7.92 18.24-18.08 0-9.52-7.84-16.56-17.2-16.56-5.04 0-9.6 1.6-12.72 4.08l.56-21.44h27.04v-3.92h-30.96l-.72 27.84 3.44 1.76c3.76-2.88 8.16-4.56 12.48-4.56 7.84 0 14.08 5.76 14.08 13.04 0 7.76-6.32 14.08-14.16 14.08-6.48 0-12.56-3.04-16.96-7.92l-2.64 2.96c4.72 5.36 11.68 8.72 19.52 8.72z" fill="#0f0b47"/><path d="m820 457h282" stroke="#000" stroke-dasharray="5 5"/><path d="m1101.54 308.715v148.535" stroke="#000" stroke-dasharray="5 5"/><ellipse fill="#d62293" rx="7.10423" ry="7.09967" transform="matrix(0 1 1 0 811.1 457.698)"/><path d="m961.664 408.37v-40.626-1.863h-9.149-878.7019-9.149v1.863 40.626 1.842h9.149 878.7019 9.149z" fill="#5c2cff"/><path d="m957.943 388.09h27.432" stroke="#000" stroke-dasharray="5 5"/><path d="m1015.28 402.928h2.2v-7.876h4.84v-2.112h-4.84v-20.24h-2.77l-14.962 20.328.312 2.024h15.22zm-12.89-9.988 12.89-17.6v17.6zm22.51 9.988h20.55v-2.156h-17.25l9.68-8.272c4.75-4.092 6.95-7.656 6.95-11.484 0-4.884-3.87-8.844-9.28-8.844-4.01 0-7.75 1.936-10.39 5.808l1.63 1.32c2.33-3.256 5.41-5.104 8.76-5.104 4.18 0 7.08 3.168 7.08 6.864 0 2.992-1.85 6.16-6.2 9.9l-11.53 9.856z" fill="#0f0b47"/><ellipse fill="#d62293" rx="7.10423" ry="7.09967" transform="matrix(0 1 1 0 960.844 388.354)"/><path d="m810.656 340.034v-40.626-1.842h-9.149-727.6939-9.149v1.842 40.626 1.842h9.149 727.6939 9.149z" fill="#5c2cff"/><path d="m1010.92 334.081c5.55 0 9.9-3.872 9.9-8.756 0-3.916-2.55-6.512-5.89-7.26 3.08-.924 5.23-3.432 5.23-7.04 0-4.576-4.18-8.228-9.37-8.228-4.09 0-7.35 2.024-10.03 5.632l1.54 1.364c2.38-3.212 5.06-4.884 8.32-4.884 4 0 7.3 2.816 7.3 6.38 0 3.74-2.99 5.94-7.7 5.896h-2.95v2.112h2.91c5.23 0 8.4 2.112 8.4 5.94 0 3.784-3.34 6.732-7.66 6.732-3.78 0-6.82-1.76-9.02-4.972l-1.54 1.496c2.69 3.564 6.21 5.588 10.56 5.588zm26.16 0c5.58 0 10.03-4.356 10.03-9.944 0-5.236-4.31-9.108-9.46-9.108-2.77 0-5.28.88-7 2.244l.31-11.792h14.87v-2.156h-17.03l-.39 15.312 1.89.968c2.07-1.584 4.49-2.508 6.86-2.508 4.32 0 7.75 3.168 7.75 7.172 0 4.268-3.48 7.744-7.79 7.744-3.56 0-6.91-1.672-9.33-4.356l-1.45 1.628c2.6 2.948 6.42 4.796 10.74 4.796z" fill="#0f0b47"/><path d="m812.6 320.053h170.775" stroke="#000" stroke-dasharray="5 5"/><ellipse fill="#d62293" rx="7.10423" ry="7.09967" transform="matrix(0 1 1 0 810.675 319.63)"/><path d="m339.258 271.694v-40.626-1.841h-9.149-256.2959-9.149v1.841 40.626 1.842h9.149 256.2959 9.149z" fill="#5c2cff"/><path d="m565.408 265.213h2.2v-30.228h-1.76l-7.832 5.06 1.056 1.716 6.336-4.004zm19.219.528c5.544 0 9.9-3.872 9.9-8.756 0-3.916-2.552-6.512-5.896-7.26 3.08-.924 5.236-3.432 5.236-7.04 0-4.576-4.18-8.228-9.372-8.228-4.092 0-7.348 2.024-10.032 5.632l1.54 1.364c2.376-3.212 5.06-4.884 8.316-4.884 4.004 0 7.304 2.816 7.304 6.38 0 3.74-2.992 5.94-7.7 5.896h-2.948v2.112h2.904c5.236 0 8.404 2.112 8.404 5.94 0 3.784-3.344 6.732-7.656 6.732-3.784 0-6.82-1.76-9.02-4.972l-1.54 1.496c2.684 3.564 6.204 5.588 10.56 5.588z" fill="#0f0b47"/><path d="m337.664 251.713h209" stroke="#000" stroke-dasharray="5 5"/><circle fill="#d62293" r="7.08" transform="matrix(0 1 1 0 339.744 251.293)"/><path d="m449.096 203.356v-40.626-1.841h-9.149-366.1339-9.149v1.841 40.626 1.842h9.149 366.1339 9.149z" fill="#5c2cff"/><path d="m565.408 196.213h2.2v-30.228h-1.76l-7.832 5.06 1.056 1.716 6.336-4.004zm20.627.528c5.72 0 10.428-3.608 10.428-8.36 0-3.564-2.816-6.6-6.644-7.744 3.344-1.144 5.896-3.916 5.896-7.26 0-4.488-4.488-7.92-9.68-7.92-5.148 0-9.636 3.388-9.636 7.92 0 3.256 2.464 6.028 5.852 7.26-3.828 1.1-6.644 4.18-6.644 7.744 0 4.708 4.708 8.36 10.428 8.36zm0-17.116c-4.004-.264-7.392-2.552-7.392-6.028 0-3.344 3.344-6.028 7.392-6.028s7.436 2.684 7.436 6.028c0 3.432-3.432 5.764-7.436 6.028zm0 15.004c-4.488 0-8.184-2.816-8.184-6.38 0-3.74 3.828-6.292 8.184-6.424 4.4.132 8.184 2.684 8.184 6.424 0 3.564-3.74 6.38-8.184 6.38z" fill="#0f0b47"/><path d="m448.664 182.713h98" stroke="#000" stroke-dasharray="5 5"/><circle fill="#d62293" r="7.08" transform="matrix(0 1 1 0 448.744 182.293)"/><path d="m275.19 135.018v-40.6255-1.8417h-9.149-192.2279-9.149v1.8417 40.6255 1.864h9.149 192.2279 9.149z" fill="#5c2cff"/><path d="m565.408 128.213h2.2v-30.2281h-1.76l-7.832 5.0601 1.056 1.716 6.336-4.004zm22.123.528c6.996 0 11.924-6.468 11.924-15.664 0-9.152-4.928-15.6201-11.924-15.6201-7.04 0-11.968 6.4681-11.968 15.6201 0 9.196 4.928 15.664 11.968 15.664zm0-2.112c-5.72 0-9.724-5.632-9.724-13.552s4.004-13.5081 9.724-13.5081c5.676 0 9.68 5.5881 9.68 13.5081s-4.004 13.552-9.68 13.552z" fill="#0f0b47"/><path d="m274.664 114.713h272" stroke="#000" stroke-dasharray="5 5"/><circle fill="#d62293" r="7.08" transform="matrix(0 1 1 0 276.744 115.293)"/><path d="m147.03 66.7021v-40.6475-1.8417h-9.149-64.0679-9.149v1.8417 40.6475 1.8417h9.149 64.0679 9.149z" fill="#5c2cff"/><path d="m573.944 59.2129h2.2v-7.876h4.84v-2.112h-4.84v-20.24h-2.772l-14.96 20.328.308 2.024h15.224zm-12.892-9.988 12.892-17.6v17.6z" fill="#0f0b47"/><path d="m145.664 45.7129h401" stroke="#000" stroke-dasharray="5 5"/><ellipse fill="#d62293" rx="7.07907" ry="7.07143" transform="matrix(0 1 1 0 145.735 46.292)"/><path d="m65.6641 499.715v-474.0002" stroke="#000"/></svg>