<svg fill="none" height="585" viewBox="0 0 585 585" width="585" xmlns="http://www.w3.org/2000/svg"><path d="m585 292.5c0-161.552-130.948-292.5-292.5-292.5s-292.5 130.948-292.5 292.5c0 26.447 3.54058 52.089 10.1121 76.471h564.7759c6.571-24.382 10.112-49.997 10.112-76.471z" fill="#0f0b47"/><path d="m10.1123 368.971c33.6087 124.456 147.2827 216.029 282.3877 216.029s248.753-91.573 282.388-216.029z" fill="#5c2cff"/><path d="m255.003 200.032c-4.68 0-9.216 1.8-12.24 4.752.936-8.352 5.256-13.752 11.736-13.752 4.176 0 7.056 1.512 10.08 4.032l5.04-8.064c-4.032-3.24-9-5.328-15.12-5.328-13.752 0-22.752 11.016-22.752 26.424 0 14.4 6.624 24.768 21.024 24.768 10.8 0 18.936-6.984 18.936-17.136 0-9.792-7.56-15.696-16.704-15.696zm-2.808 23.832c-5.544 0-8.208-3.384-9.144-9.432 1.512-3.528 4.824-5.76 8.856-5.76 4.824 0 8.856 2.808 8.856 7.56 0 3.96-3.312 7.632-8.568 7.632zm33.227 8.136h10.584v-49.464h-8.496l-14.832 9.936 4.32 7.488 8.424-5.256zm29.281-24.624c7.272 0 12.384-5.544 12.384-12.672 0-6.984-4.896-12.672-12.384-12.672-7.416 0-12.312 5.616-12.312 12.744 0 7.056 4.896 12.6 12.312 12.6zm-5.832 24.624h8.28l34.416-49.464h-8.352zm5.832-30.816c-2.952 0-5.256-2.592-5.256-6.48s2.16-6.408 5.256-6.408c3.024 0 5.256 2.592 5.256 6.408 0 3.96-2.232 6.48-5.256 6.48zm30.888 31.608c7.272 0 12.312-5.544 12.312-12.672 0-6.984-4.824-12.672-12.312-12.672-7.344 0-12.384 5.616-12.384 12.672s5.04 12.672 12.384 12.672zm0-6.264c-3.024 0-5.256-2.592-5.256-6.408 0-3.96 2.16-6.48 5.256-6.48 2.952 0 5.256 2.592 5.256 6.48s-2.16 6.408-5.256 6.408z" fill="#fff"/><path d="m243.213 469.936c11.592 0 19.08-6.192 19.08-14.76 0-6.552-4.968-10.368-10.368-11.592 5.472-1.584 9.288-5.688 9.288-11.376 0-7.848-6.984-13.536-18.072-13.536-8.784 0-14.688 3.816-18.792 8.784l6.12 6.48c3.312-3.456 6.984-5.76 11.592-5.76 4.896 0 8.352 2.304 8.352 5.904 0 3.528-3.24 5.544-8.64 5.544l-5.688-.072v9.072h5.688c6.624-.072 9.648 1.872 9.648 5.688 0 3.528-3.24 6.048-8.64 6.048-4.968 0-9.648-2.088-13.176-5.832l-6.264 7.056c4.176 4.824 11.016 8.352 19.872 8.352zm40.909-51.264c-10.8 0-18.936 6.984-18.936 17.136 0 9.792 7.56 15.696 16.704 15.696 4.68 0 9.216-1.8 12.24-4.752-.936 8.352-5.256 13.752-11.736 13.752-4.176 0-7.056-1.512-10.08-4.032l-5.04 8.064c4.032 3.24 9 5.328 15.12 5.328 13.752 0 22.752-11.016 22.752-26.424 0-14.4-6.624-24.768-21.024-24.768zm.864 24.192c-4.824 0-8.856-2.808-8.856-7.56 0-3.96 3.312-7.632 8.568-7.632 5.544 0 8.208 3.384 9.144 9.432-1.512 3.528-4.824 5.76-8.856 5.76zm36.467 1.512c7.272 0 12.384-5.544 12.384-12.672 0-6.984-4.896-12.672-12.384-12.672-7.416 0-12.312 5.616-12.312 12.744 0 7.056 4.896 12.6 12.312 12.6zm-5.832 24.624h8.28l34.416-49.464h-8.352zm5.832-30.816c-2.952 0-5.256-2.592-5.256-6.48s2.16-6.408 5.256-6.408c3.024 0 5.256 2.592 5.256 6.408 0 3.96-2.232 6.48-5.256 6.48zm30.888 31.608c7.272 0 12.312-5.544 12.312-12.672 0-6.984-4.824-12.672-12.312-12.672-7.344 0-12.384 5.616-12.384 12.672s5.04 12.672 12.384 12.672zm0-6.264c-3.024 0-5.256-2.592-5.256-6.408 0-3.96 2.16-6.48 5.256-6.48 2.952 0 5.256 2.592 5.256 6.48s-2.16 6.408-5.256 6.408z" fill="#fff"/><path d="m256.869 275.613h2.98l3.26-9.44 3.24 9.44h2.98l4.16-13.74h-3.22l-2.52 9.22-3.04-9.22h-3.22l-3.04 9.22-2.54-9.22h-3.2zm25.434.24c3.96 0 7.28-3.26 7.28-7.12s-3.32-7.1-7.28-7.1-7.32 3.24-7.32 7.1 3.36 7.12 7.32 7.12zm0-2.68c-2.32 0-4.28-2.04-4.28-4.44 0-2.38 1.96-4.42 4.28-4.42 2.3 0 4.259 2.04 4.259 4.42 0 2.4-1.959 4.44-4.259 4.44zm9.964 2.44h2.96v-8.56l4.24 7.76 4.26-7.76v8.56h2.94v-13.74h-2.94l-4.26 7.76-4.24-7.76h-2.96zm28.471-11.08v-2.66h-10.58v13.74h10.58v-2.66h-7.62v-3.02h6.92v-2.66h-6.92v-2.74zm2.857 11.08h2.96v-8.88l6.62 8.88h2.96v-13.74h-2.96v8.88l-6.62-8.88h-2.96z" fill="#fefefe"/><path d="m278.051 501.471h2.337v-6.756l3.346 6.124 3.362-6.124v6.756h2.32v-10.844h-2.32l-3.362 6.124-3.346-6.124h-2.337zm22.47-8.745v-2.099h-8.35v10.844h8.35v-2.1h-6.014v-2.383h5.461v-2.099h-5.461v-2.163zm2.255 8.745h2.336v-7.008l5.224 7.008h2.336v-10.844h-2.336v7.008l-5.224-7.008h-2.336z" fill="#fff"/></svg>