<svg version="1.2" baseProfile="tiny-ps" xmlns="http://www.w3.org/2000/svg" viewBox="0 0 935 150"><title>kartinkia-svg</title><defs><clipPath clipPathUnits="userSpaceOnUse" id="cp1"><path d="M0 0L935 0L935 150L0 150L0 0Z" /></clipPath><clipPath clipPathUnits="userSpaceOnUse" id="cp2"><path d="M-28 -110L310 -110L310 228L-28 228L-28 -110Z" /></clipPath></defs><style>tspan { white-space:pre }.shp0 { fill: #116c7d } .shp1 { opacity: 0.412;fill: #e1e2fe } .shp2 { opacity: 0.31;fill: #e1e2fe } .shp3 { opacity: 0.102;fill: #ecf1f7 } .shp4 { opacity: 0.102;fill: #e1e2fe } .shp5 { opacity: 0.051;fill: #e1e2fe } .shp6 { fill: #ffffff } .shp7 { opacity: 0.812;fill: #ffffff } .shp8 { opacity: 0.659;fill: #ffffff } .shp9 { fill: #c5d9ff } .shp10 { fill: #599af2 } .shp11 { opacity: 0.361;fill: #4c65ba } .shp12 { opacity: 0.388;fill: #f7a9b4 } .shp13 { opacity: 0.471;fill: #ffffff } </style><g clip-path="url(#cp1)"><g ><path class="shp0" d="M0 1L935 1L935 151L0 151L0 1Z" /><g style="opacity: 0.412"><g style="opacity: 0.412"><g style="opacity: 0.412"><path class="shp1" d="M635.08 197.72C634.5 192.16 634.35 186.6 634.72 180.96C636.33 154.75 648.18 129.5 666.56 111.2C673.14 104.69 680.68 98.68 684.71 90.34C691.52 76.21 690.2 60.47 698.84 46.35C707.55 32.29 720.65 20.94 735.73 14.72C780.75 -3.94 846.26 19.04 843.34 75.77C843.34 75.99 843.34 76.28 843.34 76.65C843.19 88.44 852.63 97.8 864.12 97.44C906.51 96.19 944.57 127.6 954.45 169.32C960.82 196.19 954.09 226.34 935.64 246.55C921.88 261.63 902.77 270.56 883.6 277C845.09 289.88 804.1 294.35 763.62 292.37C725.78 290.47 685.44 281.54 659.6 253.21C645.77 238.13 637.28 218.29 635.08 197.72Z" /></g></g></g><g style="opacity: 0.31"><path class="shp2" d="M828.62 11.36C828.91 16.7 833.38 20.87 838.65 20.58C843.92 20.29 847.95 15.75 847.65 10.33C847.36 4.99 842.9 0.81 837.63 1.11C832.43 1.4 828.33 6.01 828.62 11.36Z" /></g><g style="opacity: 0.31"><path class="shp2" d="M676.66 11.14C676.8 13.92 679.08 16.04 681.86 15.89C684.57 15.75 686.69 13.41 686.54 10.62C686.39 7.84 684.13 5.72 681.34 5.87C678.63 6.01 676.51 8.35 676.66 11.14Z" /></g><path class="shp3" d="M632.81 47.74C628.13 39.46 630.91 28.85 638.96 24.09C647.09 19.26 663.04 18.75 667.73 27.02C672.41 35.29 659.97 43.27 655.14 51.47C648.48 62.89 637.5 56.01 632.81 47.74Z" /><path class="shp4" d="M912.95 -6.21C919.24 -12.87 929.64 -13.02 936.08 -6.58C942.52 -0.14 947.21 14.94 940.91 21.53C934.62 28.19 924.08 18.46 915.36 16.04C903.29 12.67 906.65 0.45 912.95 -6.21Z" /><path class="shp5" d="M646.94 84.48C642.69 96.78 641.52 110.17 644.3 122.84C648.04 139.9 660.77 154.9 658.58 173.05C657.26 183.96 657.48 193.99 657.26 204.68C656.75 226.71 672.12 244.94 690.13 254.01C704.77 261.41 721.46 263.38 737.56 261.99C752.05 260.75 766.33 256.94 780.09 252.18C793.34 247.65 806.22 242.01 820.5 242.45C832.36 242.81 843.41 247.21 854.68 250.28C881.62 257.6 913.53 256.57 936.37 240.69C961.48 223.27 971.58 190.26 962.87 161.41C958.19 145.9 951.89 132.5 954.16 116.03C955.26 107.91 956.94 99.63 955.4 91.58C954.01 84.19 949.91 77.53 945.08 71.75C932.13 56.08 913.61 46.13 894.43 40.27C872.62 33.61 848.46 29.95 825.77 33.46C781.77 40.12 772.18 33.68 726.14 27.09C695.33 22.7 666.34 47.22 652.36 72.55C650.23 76.28 648.4 80.31 646.94 84.48Z" /><g style="opacity: 0.831"><path class="shp4" d="M668.24 119.91C674.61 111.57 684.42 105.86 689.18 96.27C694.96 84.78 693.72 71.16 698.84 59.45C706.45 42.1 720.14 27.31 737.41 19.19C745.69 15.31 754.84 12.89 763.69 13.55C777.38 14.58 789.17 22.77 798.39 32.51C812.15 47 821.82 67.57 838.36 79.14C847.43 85.51 858.12 78.77 867.78 76.58C878.69 74.16 890.04 74.75 900.43 77.67C919.61 83.16 936.15 96.85 944.42 115.01C953.28 134.33 951.96 161.12 935.42 177.74C927.74 185.43 917.34 190.55 911.7 199.77C904.6 211.34 903.73 227 901.75 239.81C899.55 254.01 893.48 267.85 884.33 279.34C884.25 279.49 884.11 279.63 884.03 279.71C868.15 299.4 841.14 306.06 818.3 296.18L769.77 275.17C720.58 253.87 683.17 219.54 665.24 169.69C661.36 158.93 659.97 135.94 664.87 125.4C665.83 123.42 667 121.59 668.24 119.91Z" /></g><g style="opacity: 0.22"><path fill-rule="evenodd" class="shp6" d="M913.27 96.23C913.27 99.31 910.77 101.82 907.69 101.82C904.61 101.82 902.11 99.31 902.11 96.23C902.11 93.16 904.61 90.65 907.69 90.65C910.77 90.65 913.27 93.16 913.27 96.23ZM911.1 96.23C911.1 94.35 909.57 92.82 907.69 92.82C905.8 92.82 904.27 94.35 904.27 96.23C904.27 98.12 905.8 99.65 907.69 99.65C909.57 99.65 911.1 98.12 911.1 96.23Z" /><path class="shp6" d="M907.73 125.33C907.7 125.26 907.66 125.2 907.63 125.14C907.59 125.08 907.54 125.03 907.49 124.98C907.44 124.93 907.39 124.88 907.33 124.84C907.27 124.8 907.21 124.77 907.14 124.74C907.08 124.72 907.01 124.69 906.94 124.68C906.8 124.65 906.65 124.65 906.51 124.68C906.45 124.69 906.38 124.72 906.31 124.74C906.25 124.77 906.18 124.8 906.13 124.84C906.07 124.88 906.01 124.93 905.96 124.98C905.91 125.03 905.87 125.08 905.83 125.14C905.79 125.2 905.75 125.26 905.73 125.33C905.7 125.39 905.68 125.46 905.66 125.53C905.65 125.6 905.64 125.67 905.64 125.74C905.64 125.81 905.65 125.88 905.66 125.95C905.68 126.02 905.7 126.09 905.73 126.16C905.75 126.22 905.79 126.28 905.83 126.34C905.87 126.4 905.91 126.46 905.96 126.51C905.99 126.53 906.01 126.56 906.04 126.58C906.07 126.6 906.1 126.62 906.13 126.64C906.18 126.68 906.25 126.71 906.31 126.74C906.38 126.77 906.45 126.79 906.51 126.8C906.58 126.82 906.66 126.83 906.73 126.83C906.8 126.83 906.87 126.82 906.94 126.8C907.01 126.79 907.08 126.77 907.14 126.74C907.21 126.71 907.27 126.68 907.33 126.64C907.36 126.62 907.39 126.6 907.41 126.58C907.44 126.56 907.47 126.53 907.49 126.51C907.54 126.46 907.59 126.4 907.63 126.34C907.66 126.28 907.7 126.22 907.73 126.16C907.75 126.09 907.77 126.02 907.79 125.95C907.8 125.88 907.81 125.81 907.81 125.74C907.81 125.67 907.8 125.6 907.79 125.53C907.77 125.46 907.75 125.39 907.73 125.33Z" /><path class="shp6" d="M890.68 82.46C890.65 82.4 890.62 82.33 890.58 82.27C890.54 82.21 890.49 82.16 890.44 82.11C890.39 82.06 890.34 82.01 890.28 81.97C890.22 81.94 890.16 81.9 890.09 81.87C890.03 81.85 889.96 81.83 889.89 81.81C889.75 81.78 889.61 81.78 889.47 81.81C889.4 81.83 889.33 81.85 889.26 81.87C889.2 81.9 889.13 81.94 889.08 81.97C889.02 82.01 888.96 82.06 888.91 82.11C888.86 82.16 888.82 82.21 888.78 82.27C888.74 82.33 888.71 82.4 888.68 82.46C888.65 82.53 888.63 82.59 888.62 82.66C888.6 82.73 888.6 82.8 888.6 82.88C888.6 82.95 888.6 83.02 888.62 83.09C888.63 83.16 888.65 83.22 888.68 83.29C888.71 83.35 888.74 83.42 888.78 83.48C888.82 83.53 888.86 83.59 888.91 83.64C888.96 83.69 889.02 83.74 889.08 83.78C889.13 83.81 889.2 83.85 889.26 83.88C889.33 83.9 889.4 83.92 889.47 83.94C889.54 83.95 889.61 83.96 889.68 83.96C889.75 83.96 889.82 83.95 889.89 83.94C889.96 83.92 890.03 83.9 890.09 83.88C890.16 83.85 890.22 83.81 890.28 83.78C890.34 83.74 890.39 83.69 890.44 83.64C890.49 83.59 890.54 83.53 890.58 83.48C890.62 83.42 890.65 83.35 890.68 83.29C890.71 83.22 890.73 83.16 890.74 83.09C890.75 83.02 890.76 82.95 890.76 82.88C890.76 82.8 890.75 82.73 890.74 82.66C890.73 82.59 890.71 82.53 890.68 82.46Z" /><path fill-rule="evenodd" class="shp6" d="M922 88.02L922 125.14C922 128.57 919.21 131.37 915.77 131.37L878.65 131.37C875.71 131.37 873.24 129.32 872.59 126.57C869.24 126.48 866.54 123.72 866.54 120.35L866.54 86.36C866.54 81.2 870.74 77 875.9 77L909.89 77C912.83 77 915.3 79.05 915.95 81.8C919.3 81.89 922 84.65 922 88.02ZM919.83 117.44L916.12 114.03L913.95 112.05L913.7 111.82C912.95 111.13 911.79 111.1 911.01 111.75L906.14 115.79C905.27 116.51 904.18 116.87 903.08 116.82L905.6 121.45C905.88 121.98 905.69 122.64 905.16 122.92C905 123.01 904.82 123.06 904.65 123.06C904.26 123.06 903.89 122.85 903.7 122.49L895.92 108.21L890.57 98.38C890.21 97.73 889.55 97.33 888.81 97.32C888.07 97.31 887.39 97.68 887.02 98.32L874.59 119.39L874.59 125.14C874.59 125.65 874.68 126.13 874.85 126.58C875.43 128.11 876.92 129.2 878.65 129.2L915.77 129.2C918.01 129.2 919.83 127.38 919.83 125.14L919.83 117.44ZM919.83 88.02C919.83 85.9 918.2 84.15 916.12 83.97L913.95 83.96L894.01 83.96C893.41 83.96 892.93 83.47 892.93 82.87C892.93 82.28 893.41 81.79 894.01 81.79L913.69 81.79C913.1 80.26 911.62 79.17 909.89 79.17L875.9 79.17C871.93 79.17 868.7 82.39 868.7 86.36L868.7 120.35C868.7 122.47 870.34 124.22 872.42 124.4L872.42 88.02C872.42 84.59 875.22 81.79 878.65 81.79L885.35 81.79C885.94 81.79 886.43 82.28 886.43 82.87C886.43 83.47 885.94 83.96 885.35 83.96L878.65 83.96C876.41 83.96 874.59 85.78 874.59 88.02L874.59 115.13L885.15 97.22C885.93 95.9 887.31 95.13 888.85 95.15C890.38 95.18 891.74 96 892.47 97.35L895.91 103.67L897.82 107.17L901.24 113.45C901.57 114.06 902.15 114.48 902.84 114.62C903.52 114.75 904.22 114.57 904.76 114.12L909.63 110.08C910.86 109.06 912.54 108.86 913.95 109.45L916.12 111.1L919.83 114.5L919.83 88.02Z" /></g><g style="opacity: 0.4"><g style="opacity: 0.812"><path class="shp7" d="M724.99 123.06L715.62 123.06C715.24 123.06 714.99 122.81 714.99 122.43C714.99 122.05 715.24 121.8 715.62 121.8L724.99 121.8C725.37 121.8 725.62 122.05 725.62 122.43C725.62 122.75 725.37 123.06 724.99 123.06Z" /><path class="shp7" d="M724.99 138.44L715.62 138.44C715.24 138.44 714.99 138.18 714.99 137.8C714.99 137.42 715.24 137.17 715.62 137.17L724.99 137.17C725.37 137.17 725.62 137.42 725.62 137.8C725.62 138.18 725.37 138.44 724.99 138.44Z" /><g style="opacity: 0.812"><g style="opacity: 0.812"><g style="opacity: 0.812"><path fill-rule="evenodd" class="shp7" d="M731.75 154L674.56 154C673.61 154 672.85 153.24 672.85 152.29L672.85 104.46C672.85 103.51 673.61 102.75 674.56 102.75L731.75 102.75C732.7 102.75 733.46 103.51 733.46 104.46L733.46 152.29C733.46 153.24 732.7 154 731.75 154ZM674.56 104.02C674.31 104.02 674.12 104.21 674.12 104.46L674.12 152.29C674.12 152.54 674.31 152.74 674.56 152.74L731.75 152.74C732.01 152.74 732.2 152.54 732.2 152.29L732.2 104.46C732.2 104.21 732.01 104.02 731.75 104.02L674.56 104.02Z" /><path fill-rule="evenodd" class="shp8" d="M731.75 154L674.56 154C673.61 154 672.85 153.24 672.85 152.29L672.85 104.46C672.85 103.51 673.61 102.75 674.56 102.75L731.75 102.75C732.7 102.75 733.46 103.51 733.46 104.46L733.46 152.29C733.46 153.24 732.7 154 731.75 154ZM674.56 104.02C674.31 104.02 674.12 104.21 674.12 104.46L674.12 152.29C674.12 152.54 674.31 152.74 674.56 152.74L731.75 152.74C732.01 152.74 732.2 152.54 732.2 152.29L732.2 104.46C732.2 104.21 732.01 104.02 731.75 104.02L674.56 104.02Z" /></g></g><path class="shp7" d="M724.99 115.53L680.38 115.53C680 115.53 679.75 115.28 679.75 114.9C679.75 114.52 680 114.27 680.38 114.27L724.99 114.27C725.37 114.27 725.62 114.52 725.62 114.9C725.62 115.28 725.37 115.53 724.99 115.53Z" /><path class="shp7" d="M724.99 130.53L680.38 130.53C680 130.53 679.75 130.28 679.75 129.9C679.75 129.52 680 129.26 680.38 129.26L724.99 129.26C725.37 129.26 725.62 129.52 725.62 129.9C725.62 130.21 725.37 130.53 724.99 130.53Z" /><path class="shp7" d="M704.42 123.06L680.38 123.06C680 123.06 679.75 122.81 679.75 122.43C679.75 122.05 680 121.8 680.38 121.8L704.42 121.8C704.8 121.8 705.06 122.05 705.06 122.43C705.06 122.75 704.8 123.06 704.42 123.06Z" /><path class="shp7" d="M704.42 138.44L680.38 138.44C680 138.44 679.75 138.18 679.75 137.8C679.75 137.42 680 137.17 680.38 137.17L704.42 137.17C704.8 137.17 705.06 137.42 705.06 137.8C705.06 138.18 704.8 138.44 704.42 138.44Z" /><path class="shp7" d="M696.58 145.59L680.38 145.59C680 145.59 679.75 145.33 679.75 144.95C679.75 144.57 680 144.32 680.38 144.32L696.58 144.32C696.96 144.32 697.21 144.57 697.21 144.95C697.21 145.33 696.96 145.59 696.58 145.59Z" /></g></g></g><path class="shp9" d="M791.99 74.66L752.01 74.66C745.38 74.66 740 69.27 740 62.65C740 56.02 745.38 50.64 752.01 50.64L791.99 50.64C798.62 50.64 804 56.02 804 62.65C804 69.27 798.62 74.66 791.99 74.66Z" /><path class="shp10" d="M771.98 69.34C781.32 69.34 788.88 61.77 788.88 52.44C788.88 43.11 781.32 35.55 771.98 35.55C762.65 35.55 755.09 43.11 755.09 52.44C755.09 61.77 762.65 69.34 771.98 69.34Z" /><path class="shp10" d="M791.99 71.11L752.01 71.11C745.38 71.11 740 65.73 740 59.1C740 52.47 745.38 47.09 752.01 47.09L791.99 47.09C798.62 47.09 804 52.47 804 59.1C804 65.73 798.62 71.11 791.99 71.11Z" /><path class="shp10" d="M771.98 65.79C781.32 65.79 788.88 58.23 788.88 48.89C788.88 39.56 781.32 32 771.98 32C762.65 32 755.09 39.56 755.09 48.89C755.09 58.23 762.65 65.79 771.98 65.79Z" /><g style="opacity: 0.212"><g style="opacity: 0.349"><path class="shp3" d="M791.99 71.11L752.01 71.11C745.38 71.11 740 65.73 740 59.1C740 52.47 745.38 47.09 752.01 47.09L791.99 47.09C798.62 47.09 804 52.47 804 59.1C804 65.73 798.62 71.11 791.99 71.11Z" /><path class="shp3" d="M771.98 65.79C781.32 65.79 788.88 58.23 788.88 48.89C788.88 39.56 781.32 32 771.98 32C762.65 32 755.09 39.56 755.09 48.89C755.09 58.23 762.65 65.79 771.98 65.79Z" /></g></g><path class="shp6" d="M768.03 51.41C767.85 51.41 767.63 51.35 767.47 51.2C767.16 50.89 767.16 50.39 767.47 50.11L772.02 45.66L776.5 50.14C776.81 50.45 776.81 50.95 776.5 51.23C776.18 51.54 775.69 51.54 775.41 51.23L772.05 47.87L768.62 51.26C768.44 51.35 768.25 51.41 768.03 51.41Z" /><path class="shp6" d="M771.98 57.61C771.55 57.61 771.21 57.26 771.21 56.83L771.21 46.72C771.21 46.28 771.55 45.94 771.98 45.94C772.42 45.94 772.76 46.28 772.76 46.72L772.76 56.83C772.76 57.26 772.42 57.61 771.98 57.61Z" /><path class="shp6" d="M779.36 62.4L764.55 62.4C763.49 62.4 762.62 61.53 762.62 60.47L762.62 55.09C762.62 54.65 762.96 54.31 763.4 54.31C763.83 54.31 764.17 54.65 764.17 55.09L764.17 60.47C764.17 60.69 764.33 60.84 764.55 60.84L779.36 60.84C779.64 60.84 779.86 60.62 779.86 60.34L779.86 55.09C779.86 54.65 780.2 54.31 780.63 54.31C781.07 54.31 781.41 54.65 781.41 55.09L781.41 60.38C781.38 61.5 780.48 62.4 779.36 62.4Z" /><path class="shp11" d="M887.14 64.03L855.66 64.03C854.63 64.03 853.77 63.2 853.77 62.14L853.77 30.69C853.77 29.66 854.6 28.8 855.66 28.8L887.11 28.8C888.14 28.8 889 29.63 889 30.69L889 62.14C889 63.17 888.17 64.03 887.14 64.03Z" /><path class="shp6" d="M885.34 62.23L853.89 62.23C852.86 62.23 852 61.4 852 60.34L852 28.89C852 27.86 852.83 27 853.89 27L885.34 27C886.37 27 887.23 27.83 887.23 28.89L887.23 60.34C887.23 61.4 886.37 62.23 885.34 62.23Z" /><path class="shp12" d="M884.18 30.01L854.99 30.01L854.99 59.21L884.18 59.21L884.18 30.01Z" /><path fill-rule="evenodd" class="shp13" d="M854.57 59.48L854.57 52.71L859.77 46.68C860.51 45.83 861.81 45.65 862.73 46.33L867.51 49.76C867.75 49.93 868.08 49.9 868.31 49.73L875.2 43.82C876.71 42.52 878.95 42.54 880.43 43.85L884.66 47.6L884.66 59.48L854.57 59.48ZM883.77 58.59L883.77 47.98L879.84 44.5C878.69 43.46 876.94 43.46 875.76 44.47L868.88 50.38C868.34 50.85 867.57 50.88 866.98 50.46L862.2 47.04C861.63 46.62 860.87 46.74 860.42 47.24L855.43 53.01L855.43 58.59L883.77 58.59Z" /><path fill-rule="evenodd" class="shp13" d="M871.39 42.04C869.35 42.04 867.69 40.39 867.69 38.35C867.69 36.31 869.35 34.65 871.39 34.65C873.43 34.65 875.08 36.31 875.08 38.35C875.08 40.39 873.43 42.04 871.39 42.04ZM871.39 35.54C869.82 35.54 868.58 36.81 868.58 38.35C868.58 39.88 869.85 41.16 871.39 41.16C872.92 41.16 874.19 39.88 874.19 38.35C874.19 36.81 872.95 35.54 871.39 35.54Z" /><path class="shp11" d="M843.41 120.5L821.27 128.78C820.06 129.22 818.7 128.63 818.26 127.42L809.98 105.28C809.54 104.07 810.13 102.71 811.35 102.27L833.48 93.99C834.69 93.55 836.05 94.14 836.5 95.35L844.77 117.49C845.21 118.7 844.62 120.06 843.41 120.5Z" /><path class="shp6" d="M841.57 119.66L819.43 127.93C818.22 128.37 816.86 127.78 816.42 126.57L808.15 104.44C807.71 103.22 808.29 101.86 809.51 101.42L831.64 93.15C832.86 92.7 834.22 93.29 834.66 94.51L842.93 116.64C843.37 117.86 842.75 119.22 841.57 119.66Z" /><path class="shp9" d="M832.4 95.42L810.4 103.67L818.64 125.67L840.64 117.43L832.4 95.42Z" /><path fill-rule="evenodd" class="shp13" d="M818.29 126.24L816.31 120.91L818.55 114.84C818.92 113.89 819.91 113.37 820.9 113.63L825.47 114.84C825.61 114.88 825.76 114.8 825.83 114.69L829.33 108.3C830.13 106.83 831.94 106.16 833.52 106.75L837.86 108.41L841.31 117.64L818.29 126.24ZM817.49 120.87L818.96 124.81L839.92 116.94L837.01 109.22L833.15 107.74C832.08 107.34 830.87 107.78 830.32 108.77L826.83 115.17C826.5 115.76 825.83 116.02 825.21 115.87L820.65 114.66C820.21 114.55 819.77 114.77 819.62 115.21L817.49 120.87Z" /><path fill-rule="evenodd" class="shp13" d="M825.1 108.48C823.81 108.48 822.6 107.71 822.12 106.42C821.49 104.77 822.34 102.96 823.96 102.34C825.58 101.71 827.41 102.56 828.04 104.18C828.66 105.83 827.82 107.63 826.2 108.26C825.83 108.41 825.47 108.48 825.1 108.48ZM825.1 103.26C824.84 103.26 824.62 103.3 824.36 103.41C823.3 103.81 822.74 104.99 823.15 106.05C823.55 107.12 824.73 107.67 825.8 107.27C826.86 106.86 827.41 105.69 827.01 104.62C826.72 103.77 825.94 103.26 825.1 103.26Z" /><g clip-path="url(#cp2)"><g ><g style="opacity: 0.412"><g style="opacity: 0.412"><g style="opacity: 0.412"><path class="shp1" d="M-58.53 84.76C-59.07 79.62 -59.21 74.49 -58.87 69.28C-57.38 45.08 -46.43 21.76 -29.46 4.86C-23.38 -1.16 -16.42 -6.7 -12.7 -14.41C-6.41 -27.46 -7.63 -41.99 0.35 -55.04C8.39 -68.02 20.49 -78.49 34.42 -84.24C75.99 -101.48 136.5 -80.25 133.79 -27.86C133.79 -27.66 133.79 -27.39 133.79 -27.05C133.66 -16.17 142.38 -7.51 152.99 -7.85C192.13 -9 227.28 20 236.41 58.53C242.29 83.34 236.07 111.19 219.03 129.85C206.32 143.78 188.68 152.02 170.97 157.97C135.41 169.87 97.56 173.99 60.17 172.17C25.23 170.41 -12.02 162.16 -35.89 136C-48.66 122.08 -56.5 103.76 -58.53 84.76Z" /></g></g></g><g style="opacity: 0.31"><path class="shp2" d="M241.14 17.23C241.21 18.92 242.63 20.2 244.32 20.13C246.01 20.07 247.22 18.58 247.16 16.89C247.09 15.2 245.67 13.92 243.98 13.98C242.36 14.12 241.07 15.54 241.14 17.23Z" /></g><path class="shp5" d="M-47.58 -19.82C-51.5 -8.46 -52.58 3.91 -50.01 15.61C-46.57 31.36 -34.8 45.21 -36.83 61.98C-38.05 72.05 -37.85 81.31 -38.05 91.18C-38.52 111.53 -24.33 128.36 -7.7 136.75C5.82 143.57 21.24 145.4 36.11 144.11C49.49 142.96 62.68 139.45 75.38 135.06C87.62 130.86 99.52 125.66 112.7 126.06C123.65 126.4 133.86 130.46 144.27 133.3C169.15 140.06 198.62 139.11 219.71 124.44C242.9 108.35 252.23 77.87 244.18 51.23C239.85 36.9 234.04 24.53 236.14 9.32C237.15 1.82 238.71 -5.82 237.29 -13.26C236 -20.09 232.22 -26.24 227.75 -31.58C215.79 -46.05 198.69 -55.24 180.98 -60.65C160.83 -66.8 138.52 -70.18 117.57 -66.93C76.94 -60.78 68.08 -66.73 25.56 -72.82C-2.9 -76.87 -29.67 -54.23 -42.58 -30.84C-44.54 -27.39 -46.23 -23.67 -47.58 -19.82Z" /><g style="opacity: 0.831"><path class="shp4" d="M-27.91 12.9C-22.03 5.2 -12.97 -0.08 -8.57 -8.93C-3.23 -19.55 -4.38 -32.12 0.35 -42.94C7.38 -58.96 20.02 -72.61 35.97 -80.12C43.61 -83.7 52.06 -85.93 60.24 -85.32C72.88 -84.37 83.77 -76.8 92.28 -67.81C104.99 -54.43 113.92 -35.43 129.19 -24.75C137.58 -18.87 147.45 -25.09 156.37 -27.12C166.44 -29.35 176.92 -28.81 186.52 -26.1C204.23 -21.03 219.51 -8.39 227.15 8.37C235.33 26.22 234.11 50.96 218.83 66.31C211.73 73.4 202.13 78.14 196.93 86.65C190.37 97.33 189.56 111.8 187.74 123.63C185.71 136.75 180.1 149.52 171.65 160.13C171.58 160.27 171.44 160.41 171.38 160.47C156.71 178.66 131.76 184.81 110.67 175.68L65.85 156.28C20.43 136.61 -14.12 104.91 -30.68 58.87C-34.26 48.93 -35.55 27.71 -31.02 17.97C-30.14 16.15 -29.06 14.46 -27.91 12.9Z" /></g><g style="opacity: 0.659"><g style="opacity: 0.659"><g style="opacity: 0.659"><path fill-rule="evenodd" class="shp8" d="M110.11 166.75L105.64 166.75C103.75 166.75 102.13 165.2 102.13 163.24L102.13 158.24C102.13 157.36 101.59 156.55 100.71 156.21C100.17 156.01 99.7 155.8 99.16 155.53C98.34 155.13 97.33 155.33 96.72 155.94L93.21 159.45C92.53 160.13 91.65 160.47 90.77 160.47C89.83 160.47 88.95 160.13 88.34 159.45L85.23 156.34C84.55 155.67 84.22 154.79 84.22 153.91C84.22 152.96 84.55 152.09 85.23 151.48L88.75 147.96C89.35 147.35 89.56 146.34 89.15 145.53C88.95 144.99 88.68 144.51 88.48 143.97C88.14 143.16 87.39 142.55 86.45 142.55L81.51 142.55C79.62 142.55 78 141 78 139.04L78 134.71C78 132.82 79.55 131.2 81.51 131.2L86.51 131.2C87.39 131.2 88.2 130.66 88.54 129.78C88.75 129.24 88.95 128.69 89.22 128.22C89.62 127.41 89.42 126.4 88.81 125.79L85.3 122.27C84.62 121.6 84.28 120.72 84.28 119.84C84.28 118.89 84.62 118.02 85.3 117.41L88.41 114.3C89.76 112.94 91.99 112.94 93.34 114.3L96.86 117.81C97.47 118.42 98.48 118.62 99.29 118.22C99.76 118.02 100.31 117.74 100.85 117.54C101.66 117.2 102.27 116.46 102.27 115.51L102.27 110.51C102.27 108.62 103.82 107 105.78 107L110.24 107C112.14 107 113.76 108.55 113.76 110.51L113.76 115.51C113.76 116.39 114.3 117.2 115.18 117.54C115.72 117.74 116.26 117.95 116.73 118.22C117.54 118.62 118.56 118.42 119.17 117.81L122.68 114.3C124.03 112.94 126.26 112.94 127.61 114.3L130.72 117.41C131.4 118.08 131.74 118.96 131.74 119.84C131.74 120.79 131.4 121.67 130.72 122.27L127.21 125.79C126.6 126.4 126.4 127.41 126.8 128.22C127.01 128.69 127.28 129.24 127.48 129.78C127.82 130.59 128.56 131.2 129.51 131.2L134.51 131.2C136.4 131.2 138.03 132.75 138.03 134.71L138.03 139.17C138.03 141.07 136.47 142.69 134.51 142.69L129.51 142.69C128.63 142.69 127.82 143.23 127.48 144.11C127.28 144.65 127.08 145.19 126.8 145.66C126.4 146.47 126.6 147.49 127.21 148.1L130.72 151.61C131.4 152.29 131.74 153.17 131.74 154.05C131.74 154.99 131.4 155.87 130.72 156.48L127.61 159.59C126.94 160.26 126.06 160.6 125.18 160.6C124.3 160.6 123.36 160.26 122.75 159.59L119.23 156.07C118.63 155.47 117.61 155.26 116.8 155.67C116.26 155.94 115.78 156.14 115.25 156.34C114.43 156.68 113.83 157.43 113.83 158.37L113.83 163.37C113.56 165.2 112 166.75 110.11 166.75ZM98.28 154.11C98.75 154.11 99.29 154.25 99.76 154.45C100.24 154.65 100.71 154.86 101.25 155.06C102.6 155.53 103.55 156.88 103.55 158.3L103.55 163.31C103.55 164.46 104.5 165.47 105.71 165.47L110.17 165.47C111.32 165.47 112.34 164.52 112.34 163.31L112.34 158.3C112.34 156.82 113.28 155.53 114.64 155.06C115.11 154.86 115.58 154.65 116.12 154.45C117.47 153.84 119.03 154.11 120.04 155.13L123.56 158.64C124.37 159.45 125.79 159.45 126.6 158.64L129.71 155.53C130.12 155.13 130.32 154.59 130.32 154.05C130.32 153.5 130.12 152.96 129.71 152.56L126.2 149.04C125.18 148.03 124.91 146.41 125.52 145.12C125.72 144.65 125.92 144.18 126.13 143.63C126.6 142.28 127.95 141.34 129.37 141.34L134.38 141.34C135.53 141.34 136.54 140.39 136.54 139.17L136.54 134.71C136.54 133.56 135.59 132.55 134.38 132.55L129.37 132.55C127.89 132.55 126.6 131.6 126.13 130.25C125.92 129.78 125.72 129.24 125.52 128.76C124.91 127.41 125.18 125.86 126.2 124.84L129.71 121.33C130.12 120.92 130.32 120.38 130.32 119.84C130.32 119.3 130.12 118.76 129.71 118.35L126.6 115.24C125.79 114.43 124.44 114.43 123.56 115.24L120.04 118.76C119.03 119.77 117.41 120.04 116.12 119.43C115.65 119.23 115.18 119.03 114.64 118.83C113.28 118.35 112.34 117 112.34 115.58L112.34 110.58C112.34 109.43 111.39 108.42 110.17 108.42L105.71 108.42C104.56 108.42 103.55 109.36 103.55 110.58L103.55 115.58C103.55 117.07 102.6 118.35 101.25 118.83C100.78 119.03 100.24 119.23 99.76 119.43C98.41 120.04 96.86 119.77 95.84 118.76L92.33 115.24C91.52 114.43 90.17 114.43 89.29 115.24L86.18 118.35C85.77 118.76 85.57 119.3 85.57 119.84C85.57 120.38 85.77 120.92 86.18 121.33L89.69 124.84C90.71 125.86 90.98 127.48 90.37 128.76C90.17 129.24 89.96 129.71 89.76 130.25C89.29 131.6 87.93 132.55 86.51 132.55L81.51 132.55C80.36 132.55 79.35 133.5 79.35 134.71L79.35 139.17C79.35 140.32 80.3 141.34 81.51 141.34L86.51 141.34C88 141.34 89.29 142.28 89.76 143.63C89.96 144.11 90.17 144.65 90.37 145.12C90.98 146.47 90.71 148.03 89.69 149.04L86.18 152.56C85.77 152.96 85.57 153.5 85.57 154.05C85.57 154.59 85.77 155.13 86.18 155.53L89.29 158.64C90.1 159.45 91.52 159.45 92.33 158.64L95.84 155.13C96.52 154.45 97.4 154.11 98.28 154.11ZM107.88 152.63C99.22 152.63 92.19 145.6 92.19 136.94C92.19 128.29 99.22 121.26 107.88 121.26C116.53 121.26 123.56 128.29 123.56 136.94C123.56 145.53 116.53 152.63 107.88 152.63ZM107.88 122.54C99.97 122.54 93.55 128.97 93.55 136.88C93.55 144.78 99.97 151.21 107.88 151.21C115.78 151.21 122.21 144.78 122.21 136.88C122.21 128.97 115.78 122.54 107.88 122.54Z" /></g></g></g><g style="opacity: 0.502"><path class="shp7" d="M171.21 55.27L162.43 55.27C162.02 55.27 161.75 55 161.75 54.59C161.75 54.18 162.02 53.91 162.43 53.91L171.21 53.91C171.62 53.91 171.89 54.18 171.89 54.59C171.89 55 171.62 55.27 171.21 55.27Z" /><path class="shp7" d="M171.21 69.8L162.43 69.8C162.02 69.8 161.75 69.53 161.75 69.12C161.75 68.72 162.02 68.45 162.43 68.45L171.21 68.45C171.62 68.45 171.89 68.72 171.89 69.12C171.89 69.53 171.62 69.8 171.21 69.8Z" /><g style="opacity: 0.812"><g style="opacity: 0.812"><g style="opacity: 0.812"><path fill-rule="evenodd" class="shp7" d="M177.43 84.47L123.83 84.47C122.81 84.47 122 83.66 122 82.64L122 37.83C122 36.81 122.81 36 123.83 36L177.43 36C178.45 36 179.26 36.81 179.26 37.83L179.26 82.64C179.32 83.66 178.45 84.47 177.43 84.47ZM123.89 37.35C123.62 37.35 123.42 37.55 123.42 37.83L123.42 82.64C123.42 82.91 123.62 83.12 123.89 83.12L177.5 83.12C177.77 83.12 177.97 82.91 177.97 82.64L177.97 37.83C177.97 37.55 177.77 37.35 177.5 37.35L123.89 37.35Z" /><path fill-rule="evenodd" class="shp8" d="M177.43 84.47L123.83 84.47C122.81 84.47 122 83.66 122 82.64L122 37.83C122 36.81 122.81 36 123.83 36L177.43 36C178.45 36 179.26 36.81 179.26 37.83L179.26 82.64C179.32 83.66 178.45 84.47 177.43 84.47ZM123.89 37.35C123.62 37.35 123.42 37.55 123.42 37.83L123.42 82.64C123.42 82.91 123.62 83.12 123.89 83.12L177.5 83.12C177.77 83.12 177.97 82.91 177.97 82.64L177.97 37.83C177.97 37.55 177.77 37.35 177.5 37.35L123.89 37.35Z" /></g></g><path class="shp7" d="M171.21 48.24L129.23 48.24C128.83 48.24 128.56 47.97 128.56 47.56C128.56 47.15 128.83 46.88 129.23 46.88L171.21 46.88C171.62 46.88 171.89 47.15 171.89 47.56C171.89 47.97 171.62 48.24 171.21 48.24Z" /><path class="shp7" d="M171.21 62.3L129.23 62.3C128.83 62.3 128.56 62.03 128.56 61.62C128.56 61.22 128.83 60.94 129.23 60.94L171.21 60.94C171.62 60.94 171.89 61.22 171.89 61.62C171.89 62.03 171.62 62.3 171.21 62.3Z" /><path class="shp7" d="M151.88 55.27L129.23 55.27C128.83 55.27 128.56 55 128.56 54.59C128.56 54.18 128.83 53.91 129.23 53.91L151.88 53.91C152.28 53.91 152.56 54.18 152.56 54.59C152.56 55 152.28 55.27 151.88 55.27Z" /><path class="shp7" d="M151.88 69.8L129.23 69.8C128.83 69.8 128.56 69.53 128.56 69.12C128.56 68.72 128.83 68.45 129.23 68.45L151.88 68.45C152.28 68.45 152.56 68.72 152.56 69.12C152.56 69.53 152.28 69.8 151.88 69.8Z" /><path class="shp7" d="M144.51 76.56L129.23 76.56C128.83 76.56 128.56 76.29 128.56 75.88C128.56 75.48 128.83 75.21 129.23 75.21L144.51 75.21C144.92 75.21 145.19 75.48 145.19 75.88C145.19 76.22 144.85 76.56 144.51 76.56Z" /></g></g><g style="opacity: 0.812"><path class="shp7" d="M75.7 18.7L65.7 18.7C65.29 18.7 65.02 18.43 65.02 18.02C65.02 17.62 65.29 17.35 65.7 17.35L75.7 17.35C76.11 17.35 76.38 17.62 76.38 18.02C76.38 18.36 76.11 18.7 75.7 18.7Z" /><path class="shp7" d="M75.7 35.13L65.7 35.13C65.29 35.13 65.02 34.86 65.02 34.45C65.02 34.04 65.29 33.77 65.7 33.77L75.7 33.77C76.11 33.77 76.38 34.04 76.38 34.45C76.38 34.86 76.11 35.13 75.7 35.13Z" /><g style="opacity: 0.812"><g style="opacity: 0.812"><g style="opacity: 0.812"><path fill-rule="evenodd" class="shp7" d="M82.94 51.76L21.83 51.76C20.81 51.76 20 50.94 20 49.93L20 -1.17C20 -2.19 20.81 -3 21.83 -3L82.94 -3C83.95 -3 84.76 -2.19 84.76 -1.17L84.76 49.93C84.76 50.94 83.95 51.76 82.94 51.76ZM21.83 -1.65C21.55 -1.65 21.35 -1.45 21.35 -1.17L21.35 49.93C21.35 50.2 21.55 50.4 21.83 50.4L82.94 50.4C83.21 50.4 83.41 50.2 83.41 49.93L83.41 -1.17C83.41 -1.45 83.21 -1.65 82.94 -1.65L21.83 -1.65Z" /><path fill-rule="evenodd" class="shp8" d="M82.94 51.76L21.83 51.76C20.81 51.76 20 50.94 20 49.93L20 -1.17C20 -2.19 20.81 -3 21.83 -3L82.94 -3C83.95 -3 84.76 -2.19 84.76 -1.17L84.76 49.93C84.76 50.94 83.95 51.76 82.94 51.76ZM21.83 -1.65C21.55 -1.65 21.35 -1.45 21.35 -1.17L21.35 49.93C21.35 50.2 21.55 50.4 21.83 50.4L82.94 50.4C83.21 50.4 83.41 50.2 83.41 49.93L83.41 -1.17C83.41 -1.45 83.21 -1.65 82.94 -1.65L21.83 -1.65Z" /></g></g><path class="shp7" d="M75.7 10.66L28.04 10.66C27.64 10.66 27.37 10.38 27.37 9.98C27.37 9.57 27.64 9.3 28.04 9.3L75.7 9.3C76.11 9.3 76.38 9.57 76.38 9.98C76.38 10.38 76.11 10.66 75.7 10.66Z" /><path class="shp7" d="M75.7 26.68L28.04 26.68C27.64 26.68 27.37 26.41 27.37 26C27.37 25.59 27.64 25.32 28.04 25.32L75.7 25.32C76.11 25.32 76.38 25.59 76.38 26C76.38 26.34 76.11 26.68 75.7 26.68Z" /><path class="shp7" d="M53.73 18.7L28.04 18.7C27.64 18.7 27.37 18.43 27.37 18.02C27.37 17.62 27.64 17.35 28.04 17.35L53.73 17.35C54.14 17.35 54.41 17.62 54.41 18.02C54.41 18.36 54.14 18.7 53.73 18.7Z" /><path class="shp7" d="M53.73 35.13L28.04 35.13C27.64 35.13 27.37 34.86 27.37 34.45C27.37 34.04 27.64 33.77 28.04 33.77L53.73 33.77C54.14 33.77 54.41 34.04 54.41 34.45C54.41 34.86 54.14 35.13 53.73 35.13Z" /><path class="shp7" d="M45.35 42.77L28.04 42.77C27.64 42.77 27.37 42.49 27.37 42.09C27.37 41.68 27.64 41.41 28.04 41.41L45.35 41.41C45.76 41.41 46.03 41.68 46.03 42.09C46.03 42.49 45.76 42.77 45.35 42.77Z" /></g></g><path fill-rule="evenodd" class="shp8" d="M130.11 24L126.89 24C125.53 24 124.46 22.89 124.46 21.57L124.46 17.95C124.46 17.29 124.05 16.67 123.39 16.42C123.02 16.3 122.65 16.13 122.28 15.97C121.66 15.68 120.92 15.8 120.43 16.3L117.87 18.85C117.42 19.3 116.8 19.55 116.14 19.55C115.48 19.55 114.87 19.3 114.41 18.85L112.15 16.59C111.2 15.64 111.2 14.07 112.15 13.13L114.7 10.57C115.2 10.08 115.32 9.34 115.03 8.72C114.87 8.35 114.7 7.98 114.58 7.61C114.33 6.99 113.71 6.54 113.06 6.54L109.43 6.54C108.07 6.54 107 5.42 107 4.11L107 0.89C107 -0.47 108.11 -1.54 109.43 -1.54L113.06 -1.54C113.71 -1.54 114.33 -1.95 114.58 -2.61C114.7 -2.98 114.87 -3.35 115.03 -3.72C115.32 -4.34 115.2 -5.08 114.7 -5.57L112.15 -8.13C111.2 -9.07 111.2 -10.64 112.15 -11.59L114.41 -13.85C115.36 -14.8 116.93 -14.8 117.87 -13.85L120.43 -11.3C120.92 -10.8 121.66 -10.68 122.28 -10.97C122.65 -11.13 123.02 -11.3 123.39 -11.42C124.01 -11.67 124.46 -12.29 124.46 -12.95L124.46 -16.57C124.46 -17.93 125.58 -19 126.89 -19L130.11 -19C131.47 -19 132.54 -17.89 132.54 -16.57L132.54 -12.95C132.54 -12.29 132.95 -11.67 133.61 -11.42C133.98 -11.3 134.35 -11.13 134.72 -10.97C135.34 -10.68 136.08 -10.8 136.57 -11.3L139.13 -13.85C140.07 -14.8 141.64 -14.8 142.59 -13.85L144.85 -11.59C145.8 -10.64 145.8 -9.07 144.85 -8.13L142.3 -5.57C141.8 -5.08 141.68 -4.34 141.97 -3.72C142.13 -3.35 142.3 -2.98 142.42 -2.61C142.67 -1.99 143.29 -1.54 143.94 -1.54L147.57 -1.54C148.93 -1.54 150 -0.42 150 0.89L150 4.11C150 5.47 148.89 6.54 147.57 6.54L143.94 6.54C143.29 6.54 142.67 6.95 142.42 7.61C142.3 7.98 142.13 8.35 141.97 8.72C141.68 9.34 141.8 10.08 142.3 10.57L144.85 13.13C145.8 14.07 145.8 15.64 144.85 16.59L142.59 18.85C142.13 19.3 141.51 19.55 140.86 19.55C140.2 19.55 139.58 19.3 139.13 18.85L136.57 16.3C136.08 15.8 135.34 15.68 134.72 15.97C134.35 16.13 133.98 16.3 133.61 16.42C132.99 16.67 132.54 17.29 132.54 17.95L132.54 21.57C132.58 22.89 131.47 24 130.11 24ZM121.58 14.98C121.95 14.98 122.28 15.06 122.61 15.23C122.94 15.39 123.31 15.52 123.68 15.68C124.63 16.05 125.29 16.96 125.29 17.99L125.29 21.61C125.29 22.52 126.03 23.22 126.89 23.22L130.11 23.22C131.01 23.22 131.71 22.48 131.71 21.61L131.71 17.99C131.71 16.96 132.37 16.05 133.32 15.68C133.69 15.56 134.02 15.39 134.39 15.23C135.34 14.77 136.45 14.98 137.15 15.72L139.7 18.27C140.32 18.89 141.35 18.89 142.01 18.27L144.28 16.01C144.89 15.39 144.89 14.36 144.28 13.7L141.72 11.15C140.98 10.41 140.81 9.3 141.23 8.39C141.39 8.06 141.56 7.69 141.68 7.32C142.05 6.37 142.96 5.71 143.99 5.71L147.61 5.71C148.52 5.71 149.22 4.97 149.22 4.11L149.22 0.89C149.22 -0.01 148.48 -0.71 147.61 -0.71L143.99 -0.71C142.96 -0.71 142.05 -1.37 141.68 -2.32C141.56 -2.69 141.39 -3.02 141.23 -3.39C140.77 -4.34 140.98 -5.45 141.72 -6.15L144.28 -8.7C144.89 -9.32 144.89 -10.35 144.28 -11.01L142.01 -13.27C141.39 -13.89 140.36 -13.89 139.7 -13.27L137.15 -10.72C136.41 -9.98 135.3 -9.82 134.39 -10.23C134.06 -10.39 133.69 -10.56 133.32 -10.68C132.37 -11.05 131.71 -11.96 131.71 -12.99L131.71 -16.61C131.71 -17.52 130.97 -18.22 130.11 -18.22L126.89 -18.22C125.99 -18.22 125.29 -17.48 125.29 -16.61L125.29 -12.99C125.29 -11.96 124.63 -11.05 123.68 -10.68C123.31 -10.56 122.98 -10.39 122.61 -10.23C121.66 -9.77 120.55 -9.98 119.85 -10.72L117.3 -13.27C116.68 -13.89 115.65 -13.89 114.99 -13.27L112.72 -11.01C112.11 -10.39 112.11 -9.36 112.72 -8.7L115.28 -6.15C116.02 -5.41 116.19 -4.3 115.77 -3.39C115.61 -3.06 115.48 -2.69 115.32 -2.32C114.95 -1.37 114.04 -0.71 113.01 -0.71L109.39 -0.71C108.48 -0.71 107.78 0.03 107.78 0.89L107.78 4.11C107.78 5.01 108.52 5.71 109.39 5.71L113.01 5.71C114.04 5.71 114.95 6.37 115.32 7.32C115.44 7.69 115.61 8.02 115.77 8.39C116.23 9.34 116.02 10.45 115.28 11.15L112.72 13.7C112.11 14.32 112.11 15.35 112.72 16.01L114.99 18.27C115.61 18.89 116.64 18.89 117.3 18.27L119.85 15.72C120.3 15.23 120.92 14.98 121.58 14.98ZM128.5 13.74C122.28 13.74 117.17 8.68 117.17 2.46C117.17 -3.76 122.24 -8.87 128.5 -8.87C134.72 -8.87 139.83 -3.8 139.83 2.46C139.83 8.68 134.76 13.74 128.5 13.74ZM128.5 -8.04C122.73 -8.04 118 -3.35 118 2.46C118 8.23 122.69 12.92 128.5 12.92C134.27 12.92 139 8.23 139 2.46C139 -3.35 134.31 -8.04 128.5 -8.04Z" /></g></g></g></g></svg>
