<svg width="42" height="42" viewBox="0 0 42 42" fill="none" xmlns="http://www.w3.org/2000/svg">
<g clip-path="url(#clip0)">
<path d="M24.9375 0H4.8125C2.1525 0 0 2.1525 0 4.8125V31.9375C0 34.5975 2.1525 36.75 4.8125 36.75H13.3875C13.5625 36.05 13.8775 35.385 14.28 34.7725L23.415 19.9325C24.5875 17.92 26.8625 16.625 29.3125 16.625C29.4525 16.625 29.61 16.625 29.75 16.6425V4.8125C29.75 2.1525 27.5975 0 24.9375 0Z" fill="#ECEFF1"/>
<path d="M14.875 0H4.8125C2.1525 0 0 2.1525 0 4.8125V31.9375C0 34.5975 2.1525 36.75 4.8125 36.75H14.875V30.1875V0Z" fill="#CDD0D2"/>
<path d="M22.75 17.5H7C6.034 17.5 5.25 16.716 5.25 15.75C5.25 14.784 6.034 14 7 14H22.75C23.716 14 24.5 14.784 24.5 15.75C24.5 16.716 23.716 17.5 22.75 17.5Z" fill="#92D4E2"/>
<path d="M15.75 24.5H7C6.034 24.5 5.25 23.716 5.25 22.75C5.25 21.784 6.034 21 7 21H15.75C16.716 21 17.5 21.784 17.5 22.75C17.5 23.716 16.716 24.5 15.75 24.5Z" fill="#92D4E2"/>
<path d="M14 10.5H7C6.034 10.5 5.25 9.716 5.25 8.75C5.25 7.784 6.034 7 7 7H14C14.966 7 15.75 7.784 15.75 8.75C15.75 9.716 14.966 10.5 14 10.5Z" fill="#92D4E2"/>
<path d="M15.75 8.75H5.25C5.25 9.71775 6.034 10.5 7 10.5H14C14.966 10.5 15.75 9.71775 15.75 8.75Z" fill="#1FBEC9"/>
<path d="M24.5 15.75H5.25C5.25 16.7177 6.034 17.5 7 17.5H22.75C23.716 17.5 24.5 16.7177 24.5 15.75Z" fill="#1FBEC9"/>
<path d="M17.5 22.75H5.25C5.25 23.7177 6.034 24.5 7 24.5H15.75C16.716 24.5 17.5 23.7177 17.5 22.75Z" fill="#1FBEC9"/>
<path d="M38.5665 41.9999H20.0585C18.165 41.9999 16.625 40.4652 16.625 38.5787C16.625 37.9067 16.8157 37.2697 17.1762 36.7324L26.3918 21.7577C26.978 20.7619 28.105 20.1232 29.3125 20.1232C30.52 20.1232 31.647 20.7602 32.2508 21.7874L41.4873 36.7902C41.8093 37.2697 42 37.9067 42 38.5787C42 40.4652 40.46 41.9999 38.5665 41.9999Z" fill="#EC2C25"/>
<path d="M29.3125 34.125C28.3447 34.125 27.5625 33.3428 27.5625 32.375V28.875C27.5625 27.9073 28.3447 27.125 29.3125 27.125C30.2802 27.125 31.0625 27.9073 31.0625 28.875V32.375C31.0625 33.3428 30.2802 34.125 29.3125 34.125Z" fill="white"/>
<path d="M31.0625 36.75C31.0625 37.7178 30.2802 38.5 29.3125 38.5C28.3447 38.5 27.5625 37.7178 27.5625 36.75C27.5625 35.7823 28.3447 35 29.3125 35C30.2802 35 31.0625 35.7823 31.0625 36.75Z" fill="white"/>
<path d="M29.3125 20.125C28.105 20.125 26.978 20.762 26.3917 21.7595L17.1762 36.7325C16.8157 37.2698 16.625 37.9068 16.625 38.5788C16.625 40.4653 18.165 42 20.0585 42H29.3125V38.5C28.3447 38.5 27.5625 37.7178 27.5625 36.75C27.5625 35.7823 28.3447 35 29.3125 35V34.125C28.3447 34.125 27.5625 33.3428 27.5625 32.375V28.875C27.5625 27.9073 28.3447 27.125 29.3125 27.125V20.125Z" fill="#C22828"/>
<path d="M29.3125 27.125C28.3448 27.125 27.5625 27.9073 27.5625 28.875V32.375C27.5625 33.3428 28.3448 34.125 29.3125 34.125V27.125Z" fill="#DEDEDE"/>
<path d="M29.3125 35C28.3448 35 27.5625 35.7823 27.5625 36.75C27.5625 37.7178 28.3448 38.5 29.3125 38.5V35Z" fill="#DEDEDE"/>
</g>
<defs>
<clipPath id="clip0">
<rect width="42" height="42" fill="white"/>
</clipPath>
</defs>
</svg>
