<svg width="328" height="317" viewBox="0 0 328 317" fill="none" xmlns="http://www.w3.org/2000/svg">
<path d="M1 76.6211C1 74.9642 2.34315 73.6211 4 73.6211H325C326.657 73.6211 328 74.9642 328 76.6211V84.6211C328 86.2779 326.657 87.6211 325 87.6211H3.99999C2.34314 87.6211 1 86.2779 1 84.6211V76.6211Z" fill="#F36A11"/>
<path d="M136 73.6211H325C326.657 73.6211 328 74.9642 328 76.6211V84.6211C328 86.2779 326.657 87.6211 325 87.6211H136V73.6211Z" fill="#FFE86C"/>
<path d="M136 73.6211H174V87.6211H136V73.6211Z" fill="#FFA636"/>
<path d="M174 73.6211H179V87.6211H174V73.6211Z" fill="#FBFF36"/>
<path d="M1 305.621C1 303.964 2.34315 302.621 4 302.621H171V316.621H4C2.34315 316.621 1 315.278 1 313.621V305.621Z" fill="#ACD666"/>
<path d="M136 302.621H325C326.657 302.621 328 303.964 328 305.621V313.621C328 315.278 326.657 316.621 325 316.621H136V302.621Z" fill="#E3EDAC"/>
<path d="M9.28189 56.6406H16.4639V27.7866H10.7099L1.55389 33.9186L4.40989 38.9166L9.28189 35.8926V56.6406ZM33.3932 57.1446C39.9032 57.1446 45.3632 54.2466 45.3632 48.8286C45.3632 45.6366 43.2632 43.1586 39.9032 41.7306C42.7592 40.4286 44.6072 38.3286 44.6072 35.1786C44.6072 30.1386 39.3572 27.2826 33.3932 27.2826C27.5552 27.2826 22.2212 30.0546 22.2212 35.1786C22.2212 38.4546 24.1952 40.5126 26.8832 41.7306C23.6492 43.0326 21.4652 45.5106 21.4652 48.8286C21.4652 54.2046 26.8412 57.1446 33.3932 57.1446ZM33.3932 39.2946C31.2932 39.1686 29.3192 37.9926 29.3192 36.1866C29.3192 34.5066 30.9152 33.2046 33.3932 33.2046C35.8712 33.2046 37.5092 34.5066 37.5092 36.1866C37.5092 37.9506 35.4932 39.1686 33.3932 39.2946ZM33.3932 51.1806C30.6212 51.1806 28.7312 49.9206 28.7312 48.0306C28.7312 46.1406 31.0832 44.9646 33.3932 44.8386C35.7032 44.9646 38.0972 46.1406 38.0972 48.0306C38.0972 49.9206 36.1232 51.1806 33.3932 51.1806ZM53.5246 62.9826C56.6746 60.1266 58.3546 57.1026 58.3546 54.3306C58.3546 50.9286 56.5486 48.4926 53.9026 48.4926C51.5926 48.4926 49.6186 50.4666 49.6186 52.8606C49.6186 55.1706 51.5086 57.1446 53.7766 57.1446C53.3986 58.5306 52.4746 59.9586 51.0886 61.1346L53.5246 62.9826ZM73.9799 57.1866C81.2459 57.1866 85.9079 53.2386 85.9079 46.9806C85.9079 41.0586 81.4139 37.7826 76.3739 37.7826C74.0639 37.7826 72.2579 38.4546 70.8719 39.4626L71.0399 34.2126H84.3119V27.7866H64.4459L64.0259 43.6206L68.7719 45.4686C70.2419 44.3346 72.0479 43.6626 74.1059 43.6626C76.9619 43.6626 78.7259 45.0906 78.7259 47.2326C78.7259 49.2906 77.0459 50.9706 74.0219 50.9706C71.4179 50.9706 68.8139 49.6686 66.6299 47.7366L62.5139 52.8186C65.3279 55.5066 69.0239 57.1866 73.9799 57.1866ZM100.476 57.1866C107.742 57.1866 112.404 53.2386 112.404 46.9806C112.404 41.0586 107.91 37.7826 102.87 37.7826C100.56 37.7826 98.754 38.4546 97.368 39.4626L97.536 34.2126H110.808V27.7866H90.942L90.522 43.6206L95.268 45.4686C96.738 44.3346 98.544 43.6626 100.602 43.6626C103.458 43.6626 105.222 45.0906 105.222 47.2326C105.222 49.2906 103.542 50.9706 100.518 50.9706C97.914 50.9706 95.31 49.6686 93.126 47.7366L89.01 52.8186C91.824 55.5066 95.52 57.1866 100.476 57.1866ZM129.198 57.1446C137.01 57.1446 142.512 50.9706 142.512 42.1926C142.512 33.4566 137.01 27.2826 129.198 27.2826C121.428 27.2826 115.926 33.4566 115.926 42.1926C115.926 50.9706 121.428 57.1446 129.198 57.1446ZM129.198 50.6346C125.754 50.6346 123.318 47.1066 123.318 42.1926C123.318 37.2786 125.754 33.7926 129.198 33.7926C132.684 33.7926 135.12 37.2786 135.12 42.1926C135.12 47.1066 132.684 50.6346 129.198 50.6346Z" fill="black"/>
<path d="M3.948 284.408H12.012L23.394 260.972V255.554H1.302V261.98H15.12L3.948 284.408ZM31.1164 290.75C34.2664 287.894 35.9464 284.87 35.9464 282.098C35.9464 278.696 34.1404 276.26 31.4944 276.26C29.1844 276.26 27.2104 278.234 27.2104 280.628C27.2104 282.938 29.1004 284.912 31.3684 284.912C30.9904 286.298 30.0664 287.726 28.6804 288.902L31.1164 290.75ZM53.7977 284.912C61.6097 284.912 67.1117 278.738 67.1117 269.96C67.1117 261.224 61.6097 255.05 53.7977 255.05C46.0277 255.05 40.5257 261.224 40.5257 269.96C40.5257 278.738 46.0277 284.912 53.7977 284.912ZM53.7977 278.402C50.3537 278.402 47.9177 274.874 47.9177 269.96C47.9177 265.046 50.3537 261.56 53.7977 261.56C57.2837 261.56 59.7197 265.046 59.7197 269.96C59.7197 274.874 57.2837 278.402 53.7977 278.402ZM82.6393 284.912C89.1493 284.912 94.6093 282.014 94.6093 276.596C94.6093 273.404 92.5093 270.926 89.1493 269.498C92.0053 268.196 93.8533 266.096 93.8533 262.946C93.8533 257.906 88.6033 255.05 82.6393 255.05C76.8013 255.05 71.4673 257.822 71.4673 262.946C71.4673 266.222 73.4413 268.28 76.1293 269.498C72.8953 270.8 70.7113 273.278 70.7113 276.596C70.7113 281.972 76.0873 284.912 82.6393 284.912ZM82.6393 267.062C80.5393 266.936 78.5653 265.76 78.5653 263.954C78.5653 262.274 80.1613 260.972 82.6393 260.972C85.1173 260.972 86.7553 262.274 86.7553 263.954C86.7553 265.718 84.7393 266.936 82.6393 267.062ZM82.6393 278.948C79.8673 278.948 77.9773 277.688 77.9773 275.798C77.9773 273.908 80.3293 272.732 82.6393 272.606C84.9493 272.732 87.3433 273.908 87.3433 275.798C87.3433 277.688 85.3693 278.948 82.6393 278.948ZM112.263 284.408H119.445V278.906H123.099V272.942H119.445V255.596H110.709L97.6467 273.446L98.2767 278.906H112.263V284.408ZM105.081 272.942L112.263 263.03V272.942H105.081Z" fill="black"/>
<path d="M185.212 265.763C182.692 265.763 180.214 266.645 178.492 268.073C179.122 263.957 181.306 261.521 184.75 261.521C187.06 261.521 188.698 262.319 190.462 263.705L193.78 258.287C191.302 256.397 188.32 255.263 184.708 255.263C176.224 255.263 170.89 261.563 170.89 270.719C170.89 279.203 175.006 285.125 183.616 285.125C190.042 285.125 194.956 281.093 194.956 275.003C194.956 269.249 190.546 265.763 185.212 265.763ZM183.154 279.035C180.256 279.035 178.954 277.481 178.492 274.331C179.332 272.609 181.012 271.517 182.986 271.517C185.464 271.517 187.564 272.903 187.564 275.297C187.564 277.355 185.842 279.035 183.154 279.035ZM209.457 285.167C216.723 285.167 221.385 281.219 221.385 274.961C221.385 269.039 216.891 265.763 211.851 265.763C209.541 265.763 207.735 266.435 206.349 267.443L206.517 262.193H219.789V255.767H199.923L199.503 271.601L204.249 273.449C205.719 272.315 207.525 271.643 209.583 271.643C212.439 271.643 214.203 273.071 214.203 275.213C214.203 277.271 212.523 278.951 209.499 278.951C206.895 278.951 204.291 277.649 202.106 275.717L197.991 280.799C200.805 283.487 204.501 285.167 209.457 285.167ZM232.593 270.341C236.961 270.341 239.985 267.107 239.985 262.907C239.985 258.833 237.087 255.473 232.593 255.473C228.141 255.473 225.243 258.791 225.243 262.907C225.243 267.107 228.183 270.341 232.593 270.341ZM229.107 284.621H234.525L254.685 255.767H249.267L229.107 284.621ZM232.593 266.267C231.039 266.267 229.863 264.965 229.863 262.907C229.863 260.807 230.997 259.547 232.593 259.547C234.147 259.547 235.365 260.849 235.365 262.907C235.365 265.007 234.189 266.267 232.593 266.267ZM251.115 285.083C255.483 285.083 258.507 281.807 258.507 277.649C258.507 273.533 255.609 270.173 251.157 270.173C246.747 270.173 243.765 273.449 243.765 277.649C243.765 281.765 246.705 285.083 251.115 285.083ZM251.157 281.009C249.561 281.009 248.385 279.707 248.385 277.649C248.385 275.507 249.519 274.289 251.115 274.289C252.669 274.289 253.887 275.591 253.887 277.649C253.887 279.749 252.711 281.009 251.157 281.009Z" fill="black"/>
<path d="M1.64148 238.621H3.12148L3.12148 231.751H1.64148L1.64148 238.621ZM5.06414 238.621H6.54414L6.54414 234.181L9.85414 238.621H11.3341L11.3341 231.751H9.85414L9.85414 236.191L6.54414 231.751H5.06414L5.06414 238.621ZM16.1966 238.621H17.6766V236.391H19.2866C20.7866 236.391 21.8766 235.431 21.8766 234.071C21.8766 232.711 20.7866 231.751 19.2866 231.751H16.1966V238.621ZM17.6766 235.041V233.101H19.1366C19.8666 233.101 20.3666 233.481 20.3666 234.071C20.3666 234.661 19.8666 235.041 19.1366 235.041H17.6766ZM28.6397 233.081V231.751H23.3497V238.621H28.6397V237.291H24.8297V235.781H28.2897V234.451H24.8297V233.081H28.6397ZM35.9484 234.071C35.9484 232.711 34.8584 231.751 33.3584 231.751H30.2684V238.621H31.7484V236.391H32.6384L34.2084 238.621H35.8884L34.2384 236.271C35.2684 235.971 35.9484 235.151 35.9484 234.071ZM31.7484 233.101H33.2084C33.9384 233.101 34.4384 233.481 34.4384 234.071C34.4384 234.661 33.9384 235.041 33.2084 235.041H31.7484V233.101ZM40.0495 238.741C41.7195 238.741 42.7195 237.871 42.7195 236.561C42.7195 235.291 41.7395 234.851 40.2595 234.521C39.1995 234.281 38.7795 234.121 38.7795 233.621C38.7795 233.211 39.1695 232.881 39.7895 232.881C40.4495 232.881 41.1395 233.151 41.7595 233.651L42.5295 232.581C41.8195 231.981 40.9595 231.631 39.8395 231.631C38.3295 231.631 37.2895 232.501 37.2895 233.771C37.2895 235.101 38.3295 235.511 39.7795 235.841C40.8295 236.081 41.2295 236.231 41.2295 236.721C41.2295 237.151 40.8495 237.491 40.0995 237.491C39.2295 237.491 38.4895 237.151 37.8395 236.591L36.9995 237.601C37.7995 238.341 38.8495 238.741 40.0495 238.741ZM47.4829 238.741C49.4629 238.741 51.1229 237.111 51.1229 235.181C51.1229 233.251 49.4629 231.631 47.4829 231.631C45.5029 231.631 43.8229 233.251 43.8229 235.181C43.8229 237.111 45.5029 238.741 47.4829 238.741ZM47.4829 237.401C46.3229 237.401 45.3429 236.381 45.3429 235.181C45.3429 233.991 46.3229 232.971 47.4829 232.971C48.6329 232.971 49.6129 233.991 49.6129 235.181C49.6129 236.381 48.6329 237.401 47.4829 237.401ZM52.6653 238.621H54.1453V234.181L57.4553 238.621H58.9353V231.751H57.4553V236.191L54.1453 231.751H52.6653V238.621Z" fill="black"/>
<path d="M7.02852 6.07109C7.02852 4.71109 5.93852 3.75109 4.43852 3.75109L1.34852 3.75109L1.34852 10.6211H2.82852L2.82852 8.39109H3.71852L5.28852 10.6211L6.96852 10.6211L5.31852 8.27109C6.34852 7.97109 7.02852 7.15109 7.02852 6.07109ZM2.82852 5.10109L4.28852 5.10109C5.01852 5.10109 5.51852 5.48109 5.51852 6.07109C5.51852 6.66109 5.01852 7.04109 4.28852 7.04109L2.82852 7.04109V5.10109ZM13.8795 5.08109V3.75109L8.58953 3.75109L8.58953 10.6211H13.8795V9.29109H10.0695V7.78109H13.5295V6.45109H10.0695L10.0695 5.08109H13.8795ZM18.5283 7.91109L20.1183 7.91109V8.96109C19.7383 9.24109 19.2483 9.40109 18.7883 9.40109C17.6083 9.40109 16.6183 8.38109 16.6183 7.18109C16.6183 5.99109 17.6083 4.97109 18.7883 4.97109C19.4183 4.97109 20.0783 5.27109 20.4883 5.74109L21.5583 4.78109C20.8783 4.06109 19.8083 3.63109 18.7883 3.63109C16.7883 3.63109 15.0983 5.25109 15.0983 7.18109C15.0983 9.11109 16.7883 10.7411 18.7883 10.7411C19.8083 10.7411 20.8783 10.3111 21.5583 9.59109V6.76109L18.5283 6.76109V7.91109ZM23.2278 10.6211H24.7078V3.75109L23.2278 3.75109V10.6211ZM29.1905 10.7411C30.8605 10.7411 31.8605 9.87109 31.8605 8.56109C31.8605 7.29109 30.8805 6.85109 29.4005 6.52109C28.3405 6.28109 27.9205 6.12109 27.9205 5.62109C27.9205 5.21109 28.3105 4.88109 28.9305 4.88109C29.5905 4.88109 30.2805 5.15109 30.9005 5.65109L31.6705 4.58109C30.9605 3.98109 30.1005 3.63109 28.9805 3.63109C27.4705 3.63109 26.4305 4.50109 26.4305 5.77109C26.4305 7.10109 27.4705 7.51109 28.9205 7.84109C29.9705 8.08109 30.3705 8.23109 30.3705 8.72109C30.3705 9.15109 29.9905 9.49109 29.2405 9.49109C28.3705 9.49109 27.6305 9.15109 26.9805 8.59109L26.1405 9.60109C26.9405 10.3411 27.9905 10.7411 29.1905 10.7411ZM34.9639 10.6211H36.4339V5.08109L38.5839 5.08109V3.75109L32.8239 3.75109V5.08109H34.9639V10.6211ZM45.2506 5.08109V3.75109L39.9606 3.75109V10.6211H45.2506V9.29109H41.4406V7.78109L44.9006 7.78109V6.45109L41.4406 6.45109V5.08109L45.2506 5.08109ZM52.5594 6.07109C52.5594 4.71109 51.4694 3.75109 49.9694 3.75109L46.8794 3.75109V10.6211H48.3594V8.39109H49.2494L50.8194 10.6211H52.4994L50.8494 8.27109C51.8794 7.97109 52.5594 7.15109 52.5594 6.07109ZM48.3594 5.10109H49.8194C50.5494 5.10109 51.0494 5.48109 51.0494 6.07109C51.0494 6.66109 50.5494 7.04109 49.8194 7.04109H48.3594V5.10109ZM59.4104 5.08109V3.75109L54.1204 3.75109V10.6211H59.4104V9.29109H55.6004V7.78109L59.0604 7.78109V6.45109L55.6004 6.45109V5.08109L59.4104 5.08109ZM61.0391 10.6211L63.5091 10.6211C65.8191 10.6211 67.4591 9.19109 67.4591 7.18109C67.4591 5.17109 65.8191 3.75109 63.5091 3.75109L61.0391 3.75109V10.6211ZM62.5191 9.28109V5.09109H63.6991C65.0091 5.09109 65.9391 5.96109 65.9391 7.18109C65.9391 8.41109 65.0091 9.28109 63.6991 9.28109H62.5191Z" fill="black"/>
<path d="M177.578 233.081V231.751H172.288V238.621H173.768V235.901H177.228V234.571H173.768V233.081H177.578ZM179.05 238.621H180.53V231.751H179.05V238.621ZM188.153 234.071C188.153 232.711 187.063 231.751 185.563 231.751H182.473V238.621H183.953V236.391H184.843L186.413 238.621H188.093L186.443 236.271C187.473 235.971 188.153 235.151 188.153 234.071ZM183.953 233.101H185.413C186.143 233.101 186.643 233.481 186.643 234.071C186.643 234.661 186.143 235.041 185.413 235.041H183.953V233.101ZM192.254 238.741C193.924 238.741 194.924 237.871 194.924 236.561C194.924 235.291 193.944 234.851 192.464 234.521C191.404 234.281 190.984 234.121 190.984 233.621C190.984 233.211 191.374 232.881 191.994 232.881C192.654 232.881 193.344 233.151 193.964 233.651L194.734 232.581C194.024 231.981 193.164 231.631 192.044 231.631C190.534 231.631 189.494 232.501 189.494 233.771C189.494 235.101 190.534 235.511 191.984 235.841C193.034 236.081 193.434 236.231 193.434 236.721C193.434 237.151 193.054 237.491 192.304 237.491C191.434 237.491 190.694 237.151 190.044 236.591L189.204 237.601C190.004 238.341 191.054 238.741 192.254 238.741ZM198.028 238.621H199.498V233.081H201.648V231.751H195.888V233.081H198.028V238.621ZM207.539 238.621H209.009V233.081H211.159V231.751H205.399V233.081H207.539V238.621ZM212.536 238.621H214.016V231.751H212.536V238.621ZM215.958 238.621H217.438V234.341L219.558 238.221L221.688 234.341V238.621H223.158V231.751H221.688L219.558 235.631L217.438 231.751H215.958V238.621ZM230.394 233.081V231.751H225.104V238.621H230.394V237.291H226.584V235.781H230.044V234.451H226.584V233.081H230.394ZM237.702 234.071C237.702 232.711 236.612 231.751 235.112 231.751H232.022V238.621H233.502V236.391H234.392L235.962 238.621H237.642L235.992 236.271C237.022 235.971 237.702 235.151 237.702 234.071ZM233.502 233.101H234.962C235.692 233.101 236.192 233.481 236.192 234.071C236.192 234.661 235.692 235.041 234.962 235.041H233.502V233.101ZM241.803 238.741C243.473 238.741 244.473 237.871 244.473 236.561C244.473 235.291 243.493 234.851 242.013 234.521C240.953 234.281 240.533 234.121 240.533 233.621C240.533 233.211 240.923 232.881 241.543 232.881C242.203 232.881 242.893 233.151 243.513 233.651L244.283 232.581C243.573 231.981 242.713 231.631 241.593 231.631C240.083 231.631 239.043 232.501 239.043 233.771C239.043 235.101 240.083 235.511 241.533 235.841C242.583 236.081 242.983 236.231 242.983 236.721C242.983 237.151 242.603 237.491 241.853 237.491C240.983 237.491 240.243 237.151 239.593 236.591L238.753 237.601C239.553 238.341 240.603 238.741 241.803 238.741Z" fill="black"/>
<path d="M20.292 121.621H22.686V119.787H23.904V117.799H22.686V112.017H19.774L15.42 117.967L15.63 119.787H20.292V121.621ZM17.898 117.799L20.292 114.495V117.799H17.898ZM28.6632 121.803C31.0852 121.803 32.6392 120.487 32.6392 118.401C32.6392 116.427 31.1412 115.335 29.4612 115.335C28.6912 115.335 28.0892 115.559 27.6272 115.895L27.6832 114.145H32.1072V112.003H25.4852L25.3452 117.281L26.9272 117.897C27.4172 117.519 28.0192 117.295 28.7052 117.295C29.6572 117.295 30.2452 117.771 30.2452 118.485C30.2452 119.171 29.6852 119.731 28.6772 119.731C27.8092 119.731 26.9412 119.297 26.2132 118.653L24.8412 120.347C25.7792 121.243 27.0112 121.803 28.6632 121.803ZM35.6473 121.789C36.4173 121.789 37.0613 121.131 37.0613 120.319C37.0613 119.563 36.4173 118.905 35.6473 118.905C34.8073 118.905 34.1773 119.563 34.1773 120.319C34.1773 121.131 34.8073 121.789 35.6473 121.789ZM38.6391 121.621H46.1291V119.479H42.3071L43.8191 118.401C45.4991 117.253 46.0311 116.259 46.0311 114.985C46.0311 113.151 44.5191 111.835 42.3631 111.835C40.7811 111.835 39.5351 112.493 38.5131 113.725L40.0111 115.209C40.7391 114.439 41.4111 114.005 42.3071 114.005C43.0071 114.005 43.5811 114.425 43.5811 115.083C43.5811 115.671 43.2731 116.203 42.1951 117.015L38.6391 119.675V121.621ZM49.9788 116.861C51.4348 116.861 52.4428 115.783 52.4428 114.383C52.4428 113.025 51.4768 111.905 49.9788 111.905C48.4948 111.905 47.5288 113.011 47.5288 114.383C47.5288 115.783 48.5088 116.861 49.9788 116.861ZM48.8168 121.621H50.6228L57.3428 112.003H55.5368L48.8168 121.621ZM49.9788 115.503C49.4608 115.503 49.0688 115.069 49.0688 114.383C49.0688 113.683 49.4468 113.263 49.9788 113.263C50.4968 113.263 50.9028 113.697 50.9028 114.383C50.9028 115.083 50.5108 115.503 49.9788 115.503ZM56.1528 121.775C57.6088 121.775 58.6168 120.683 58.6168 119.297C58.6168 117.925 57.6508 116.805 56.1668 116.805C54.6968 116.805 53.7028 117.897 53.7028 119.297C53.7028 120.669 54.6828 121.775 56.1528 121.775ZM56.1668 120.417C55.6348 120.417 55.2428 119.983 55.2428 119.297C55.2428 118.583 55.6208 118.177 56.1528 118.177C56.6708 118.177 57.0768 118.611 57.0768 119.297C57.0768 119.997 56.6848 120.417 56.1668 120.417ZM28.0056 138.335C27.1656 138.335 26.3396 138.629 25.7656 139.105C25.9756 137.733 26.7036 136.921 27.8516 136.921C28.6216 136.921 29.1676 137.187 29.7556 137.649L30.8616 135.843C30.0356 135.213 29.0416 134.835 27.8376 134.835C25.0096 134.835 23.2316 136.935 23.2316 139.987C23.2316 142.815 24.6036 144.789 27.4736 144.789C29.6156 144.789 31.2536 143.445 31.2536 141.415C31.2536 139.497 29.7836 138.335 28.0056 138.335ZM27.3196 142.759C26.3536 142.759 25.9196 142.241 25.7656 141.191C26.0456 140.617 26.6056 140.253 27.2636 140.253C28.0896 140.253 28.7896 140.715 28.7896 141.513C28.7896 142.199 28.2156 142.759 27.3196 142.759ZM34.2391 144.789C35.0091 144.789 35.6531 144.131 35.6531 143.319C35.6531 142.563 35.0091 141.905 34.2391 141.905C33.3991 141.905 32.7691 142.563 32.7691 143.319C32.7691 144.131 33.3991 144.789 34.2391 144.789ZM40.9269 144.803C43.3489 144.803 44.9029 143.487 44.9029 141.401C44.9029 139.427 43.4049 138.335 41.7249 138.335C40.9549 138.335 40.3529 138.559 39.8909 138.895L39.9469 137.145H44.3709V135.003H37.7489L37.6089 140.281L39.1909 140.897C39.6809 140.519 40.2829 140.295 40.9689 140.295C41.9209 140.295 42.5089 140.771 42.5089 141.485C42.5089 142.171 41.9489 142.731 40.9409 142.731C40.0729 142.731 39.2049 142.297 38.4769 141.653L37.1049 143.347C38.0429 144.243 39.2749 144.803 40.9269 144.803ZM48.6389 139.861C50.0949 139.861 51.1029 138.783 51.1029 137.383C51.1029 136.025 50.1369 134.905 48.6389 134.905C47.1549 134.905 46.1889 136.011 46.1889 137.383C46.1889 138.783 47.1689 139.861 48.6389 139.861ZM47.4769 144.621H49.2829L56.0029 135.003H54.1969L47.4769 144.621ZM48.6389 138.503C48.1209 138.503 47.7289 138.069 47.7289 137.383C47.7289 136.683 48.1069 136.263 48.6389 136.263C49.1569 136.263 49.5629 136.697 49.5629 137.383C49.5629 138.083 49.1709 138.503 48.6389 138.503ZM54.8129 144.775C56.2689 144.775 57.2769 143.683 57.2769 142.297C57.2769 140.925 56.3109 139.805 54.8269 139.805C53.3569 139.805 52.3629 140.897 52.3629 142.297C52.3629 143.669 53.3429 144.775 54.8129 144.775ZM54.8269 143.417C54.2949 143.417 53.9029 142.983 53.9029 142.297C53.9029 141.583 54.2809 141.177 54.8129 141.177C55.3309 141.177 55.7369 141.611 55.7369 142.297C55.7369 142.997 55.3449 143.417 54.8269 143.417ZM35.2431 167.789C37.8471 167.789 39.6811 165.731 39.6811 162.805C39.6811 159.893 37.8471 157.835 35.2431 157.835C32.6531 157.835 30.8191 159.893 30.8191 162.805C30.8191 165.731 32.6531 167.789 35.2431 167.789ZM35.2431 165.619C34.0951 165.619 33.2831 164.443 33.2831 162.805C33.2831 161.167 34.0951 160.005 35.2431 160.005C36.4051 160.005 37.2171 161.167 37.2171 162.805C37.2171 164.443 36.4051 165.619 35.2431 165.619ZM42.743 167.789C43.513 167.789 44.157 167.131 44.157 166.319C44.157 165.563 43.513 164.905 42.743 164.905C41.903 164.905 41.273 165.563 41.273 166.319C41.273 167.131 41.903 167.789 42.743 167.789ZM50.4248 167.621H52.8188V165.787H54.0368V163.799H52.8188V158.017H49.9068L45.5528 163.967L45.7628 165.787H50.4248V167.621ZM48.0308 163.799L50.4248 160.495V163.799H48.0308ZM57.676 162.861C59.132 162.861 60.14 161.783 60.14 160.383C60.14 159.025 59.174 157.905 57.676 157.905C56.192 157.905 55.226 159.011 55.226 160.383C55.226 161.783 56.206 162.861 57.676 162.861ZM56.514 167.621H58.32L65.04 158.003H63.234L56.514 167.621ZM57.676 161.503C57.158 161.503 56.766 161.069 56.766 160.383C56.766 159.683 57.144 159.263 57.676 159.263C58.194 159.263 58.6 159.697 58.6 160.383C58.6 161.083 58.208 161.503 57.676 161.503ZM63.85 167.775C65.306 167.775 66.314 166.683 66.314 165.297C66.314 163.925 65.348 162.805 63.864 162.805C62.394 162.805 61.4 163.897 61.4 165.297C61.4 166.669 62.38 167.775 63.85 167.775ZM63.864 166.417C63.332 166.417 62.94 165.983 62.94 165.297C62.94 164.583 63.318 164.177 63.85 164.177C64.368 164.177 64.774 164.611 64.774 165.297C64.774 165.997 64.382 166.417 63.864 166.417ZM43.0967 190.621H45.4907V188.787H46.7087V186.799H45.4907V181.017H42.5787L38.2247 186.967L38.4347 188.787H43.0967V190.621ZM40.7027 186.799L43.0967 183.495V186.799H40.7027ZM48.4859 190.621H51.1739L54.9679 182.809V181.003H47.6039V183.145H52.2099L48.4859 190.621ZM57.8641 190.789C58.6341 190.789 59.2781 190.131 59.2781 189.319C59.2781 188.563 58.6341 187.905 57.8641 187.905C57.0241 187.905 56.3941 188.563 56.3941 189.319C56.3941 190.131 57.0241 190.789 57.8641 190.789ZM64.5659 180.835C62.4239 180.835 60.7859 182.179 60.7859 184.209C60.7859 186.127 62.2559 187.289 64.0339 187.289C64.8739 187.289 65.6999 186.995 66.2739 186.519C66.0639 187.891 65.3359 188.703 64.1879 188.703C63.4179 188.703 62.8719 188.437 62.2839 187.975L61.1779 189.781C62.0039 190.411 62.9979 190.789 64.2019 190.789C67.0299 190.789 68.8079 188.689 68.8079 185.637C68.8079 182.809 67.4359 180.835 64.5659 180.835ZM64.7759 185.371C63.9499 185.371 63.2499 184.909 63.2499 184.111C63.2499 183.425 63.8239 182.865 64.7199 182.865C65.6859 182.865 66.1199 183.383 66.2739 184.433C65.9939 185.007 65.4339 185.371 64.7759 185.371ZM72.6194 185.861C74.0754 185.861 75.0834 184.783 75.0834 183.383C75.0834 182.025 74.1174 180.905 72.6194 180.905C71.1354 180.905 70.1694 182.011 70.1694 183.383C70.1694 184.783 71.1494 185.861 72.6194 185.861ZM71.4574 190.621H73.2634L79.9834 181.003H78.1774L71.4574 190.621ZM72.6194 184.503C72.1014 184.503 71.7094 184.069 71.7094 183.383C71.7094 182.683 72.0874 182.263 72.6194 182.263C73.1374 182.263 73.5434 182.697 73.5434 183.383C73.5434 184.083 73.1514 184.503 72.6194 184.503ZM78.7934 190.775C80.2494 190.775 81.2574 189.683 81.2574 188.297C81.2574 186.925 80.2914 185.805 78.8074 185.805C77.3374 185.805 76.3434 186.897 76.3434 188.297C76.3434 189.669 77.3234 190.775 78.7934 190.775ZM78.8074 189.417C78.2754 189.417 77.8834 188.983 77.8834 188.297C77.8834 187.583 78.2614 187.177 78.7934 187.177C79.3114 187.177 79.7174 187.611 79.7174 188.297C79.7174 188.997 79.3254 189.417 78.8074 189.417Z" fill="black"/>
<path d="M67.526 121.621H68.618V114.355L72.188 121.061L75.758 114.355V121.621H76.85V112.003H75.758L72.188 118.709L68.618 112.003H67.526V121.621ZM87.081 113.039V112.003H80.179V121.621H87.081V120.585H81.285V117.239H86.507V116.203H81.285V113.039H87.081ZM89.6739 121.621H90.7659V113.795L96.7299 121.621H97.8219V112.003H96.7299V119.829L90.7659 112.003H89.6739V121.621ZM77.9809 144.621H79.0589L81.7469 136.431L84.4209 144.621H85.4989L88.7889 135.003H87.5569L84.8969 142.787L82.3489 135.003H81.1309L78.5829 142.787L75.9229 135.003H74.6909L77.9809 144.621ZM95.2063 144.789C97.8803 144.789 100.12 142.507 100.12 139.805C100.12 137.103 97.8803 134.835 95.2063 134.835C92.5463 134.835 90.2783 137.103 90.2783 139.805C90.2783 142.507 92.5463 144.789 95.2063 144.789ZM95.2063 143.781C93.1343 143.781 91.3843 141.961 91.3843 139.805C91.3843 137.663 93.1343 135.843 95.2063 135.843C97.2783 135.843 99.0143 137.663 99.0143 139.805C99.0143 141.961 97.2783 143.781 95.2063 143.781ZM102.73 144.621H103.822V137.355L107.392 144.061L110.962 137.355V144.621H112.054V135.003H110.962L107.392 141.709L103.822 135.003H102.73V144.621ZM122.285 136.039V135.003H115.383V144.621H122.285V143.585H116.489V140.239H121.711V139.203H116.489V136.039H122.285ZM124.878 144.621H125.97V136.795L131.934 144.621H133.026V135.003H131.934V142.829L125.97 135.003H124.878V144.621ZM84.0679 167.621H85.1599V159.795L91.1239 167.621H92.2159V158.003H91.1239V165.829L85.1599 158.003H84.0679V167.621ZM99.7311 167.789C102.405 167.789 104.645 165.507 104.645 162.805C104.645 160.103 102.405 157.835 99.7311 157.835C97.0711 157.835 94.8031 160.103 94.8031 162.805C94.8031 165.507 97.0711 167.789 99.7311 167.789ZM99.7311 166.781C97.6591 166.781 95.9091 164.961 95.9091 162.805C95.9091 160.663 97.6591 158.843 99.7311 158.843C101.803 158.843 103.539 160.663 103.539 162.805C103.539 164.961 101.803 166.781 99.7311 166.781ZM107.255 167.621H108.347V159.795L114.311 167.621H115.403V158.003H114.311V165.829L108.347 158.003H107.255V167.621ZM118.41 164.331H122.036V163.309H118.41V164.331ZM125.041 167.621H129.619C131.285 167.621 132.475 166.529 132.475 164.989C132.475 163.939 131.831 163.071 130.725 162.511C131.593 162.007 132.097 161.419 132.097 160.397C132.097 158.997 131.005 158.003 129.451 158.003H125.041V167.621ZM126.133 162.077V158.997H129.171C130.235 158.997 130.991 159.641 130.991 160.537C130.991 161.433 130.235 162.077 129.171 162.077H126.133ZM126.133 166.627V163.071H129.339C130.529 163.071 131.369 163.813 131.369 164.849C131.369 165.885 130.529 166.627 129.339 166.627H126.133ZM135.165 167.621H136.257V158.003H135.165V167.621ZM139.588 167.621H140.68V159.795L146.644 167.621H147.736V158.003H146.644V165.829L140.68 158.003H139.588V167.621ZM158.373 167.621H159.563L155.321 158.003H154.131L149.889 167.621H151.079L152.045 165.437H157.407L158.373 167.621ZM152.493 164.401L154.733 159.347L156.959 164.401H152.493ZM169.17 161.083C169.17 159.277 167.616 158.003 165.628 158.003H161.722V167.621H162.814V164.163H164.942L167.378 167.621H168.624L166.174 164.135C167.896 163.925 169.17 162.721 169.17 161.083ZM162.814 159.039H165.432C167 159.039 168.064 159.795 168.064 161.083C168.064 162.371 167 163.127 165.432 163.127H162.814V159.039ZM174.286 167.621H175.434V163.701L179.298 158.003H177.982L174.86 162.665L171.766 158.003H170.408L174.286 163.701V167.621ZM183.977 168.657H185.167L190.081 157.219H188.891L183.977 168.657ZM200.202 167.789C202.876 167.789 205.116 165.507 205.116 162.805C205.116 160.103 202.876 157.835 200.202 157.835C197.542 157.835 195.274 160.103 195.274 162.805C195.274 165.507 197.542 167.789 200.202 167.789ZM200.202 166.781C198.13 166.781 196.38 164.961 196.38 162.805C196.38 160.663 198.13 158.843 200.202 158.843C202.274 158.843 204.01 160.663 204.01 162.805C204.01 164.961 202.274 166.781 200.202 166.781ZM209.784 167.621H210.876V159.039H214.11V158.003H206.55V159.039H209.784V167.621ZM223.026 158.003V162.203H217.356V158.003H216.264V167.621H217.356V163.239H223.026V167.621H224.118V158.003H223.026ZM234.356 159.039V158.003H227.454V167.621H234.356V166.585H228.56V163.239H233.782V162.203H228.56V159.039H234.356ZM244.397 161.083C244.397 159.277 242.843 158.003 240.855 158.003H236.949V167.621H238.041V164.163H240.169L242.605 167.621H243.851L241.401 164.135C243.123 163.925 244.397 162.721 244.397 161.083ZM238.041 159.039H240.659C242.227 159.039 243.291 159.795 243.291 161.083C243.291 162.371 242.227 163.127 240.659 163.127H238.041V159.039ZM255.104 163.589H257.862V165.885C257.148 166.431 256.112 166.781 255.216 166.781C253.144 166.781 251.394 164.961 251.394 162.805C251.394 160.663 253.144 158.843 255.216 158.843C256.266 158.843 257.512 159.319 258.212 160.061L258.954 159.305C258.058 158.395 256.546 157.835 255.216 157.835C252.556 157.835 250.288 160.103 250.288 162.805C250.288 165.507 252.556 167.789 255.216 167.789C256.546 167.789 258.058 167.215 258.954 166.319V162.553H255.104V163.589ZM268.712 159.039V158.003H261.81V167.621H268.712V166.585H262.916V163.239H268.138V162.203H262.916V159.039H268.712ZM271.305 167.621H272.397V159.795L278.361 167.621H279.453V158.003H278.361V165.829L272.397 158.003H271.305V167.621ZM282.783 167.621H286.031C289.083 167.621 291.239 165.619 291.239 162.805C291.239 159.991 289.083 158.003 286.031 158.003H282.783V167.621ZM283.875 166.627V158.997H286.031C288.439 158.997 290.133 160.579 290.133 162.805C290.133 165.045 288.439 166.627 286.031 166.627H283.875ZM300.724 159.039V158.003H293.822V167.621H300.724V166.585H294.928V163.239H300.15V162.203H294.928V159.039H300.724ZM310.765 161.083C310.765 159.277 309.211 158.003 307.223 158.003H303.317V167.621H304.409V164.163H306.537L308.973 167.621H310.219L307.769 164.135C309.491 163.925 310.765 162.721 310.765 161.083ZM304.409 159.039H307.027C308.595 159.039 309.659 159.795 309.659 161.083C309.659 162.371 308.595 163.127 307.027 163.127H304.409V159.039ZM316.175 167.775C318.415 167.775 319.563 166.529 319.563 165.003C319.563 163.309 318.247 162.651 316.413 162.217C314.775 161.825 313.823 161.475 313.823 160.481C313.823 159.599 314.691 158.829 315.881 158.829C316.889 158.829 317.841 159.291 318.639 160.061L319.311 159.207C318.429 158.395 317.365 157.835 315.937 157.835C314.089 157.835 312.717 159.025 312.717 160.565C312.717 162.231 313.935 162.833 315.867 163.281C317.547 163.673 318.457 164.079 318.457 165.101C318.457 165.969 317.701 166.781 316.217 166.781C314.873 166.781 313.879 166.207 313.067 165.395L312.381 166.249C313.347 167.201 314.593 167.775 316.175 167.775ZM92.3388 190.621H93.4308V187.163H96.2448C98.2328 187.163 99.7868 185.889 99.7868 184.083C99.7868 182.277 98.2328 181.003 96.2448 181.003H92.3388V190.621ZM93.4308 186.127V182.039H96.0488C97.6168 182.039 98.6808 182.795 98.6808 184.083C98.6808 185.371 97.6168 186.127 96.0488 186.127H93.4308ZM109.651 184.083C109.651 182.277 108.097 181.003 106.109 181.003H102.203V190.621H103.295V187.163H105.423L107.859 190.621H109.105L106.655 187.135C108.377 186.925 109.651 185.721 109.651 184.083ZM103.295 182.039H105.913C107.481 182.039 108.545 182.795 108.545 184.083C108.545 185.371 107.481 186.127 105.913 186.127H103.295V182.039ZM119.051 182.039V181.003H112.149V190.621H119.051V189.585H113.255V186.239H118.477V185.203H113.255V182.039H119.051ZM128.546 182.039V181.003H121.644V190.621H122.75V186.239H127.972V185.203H122.75V182.039H128.546ZM137.767 182.039V181.003H130.865V190.621H137.767V189.585H131.971V186.239H137.193V185.203H131.971V182.039H137.767ZM147.808 184.083C147.808 182.277 146.254 181.003 144.266 181.003H140.36V190.621H141.452V187.163H143.58L146.016 190.621H147.262L144.812 187.135C146.534 186.925 147.808 185.721 147.808 184.083ZM141.452 182.039H144.07C145.638 182.039 146.702 182.795 146.702 184.083C146.702 185.371 145.638 186.127 144.07 186.127H141.452V182.039ZM154.441 190.621H155.533V182.795L161.497 190.621H162.589V181.003H161.497V188.829L155.533 181.003H154.441V190.621ZM170.105 190.789C172.779 190.789 175.019 188.507 175.019 185.805C175.019 183.103 172.779 180.835 170.105 180.835C167.445 180.835 165.177 183.103 165.177 185.805C165.177 188.507 167.445 190.789 170.105 190.789ZM170.105 189.781C168.033 189.781 166.283 187.961 166.283 185.805C166.283 183.663 168.033 181.843 170.105 181.843C172.177 181.843 173.913 183.663 173.913 185.805C173.913 187.961 172.177 189.781 170.105 189.781ZM179.686 190.621H180.778V182.039H184.012V181.003H176.452V182.039H179.686V190.621ZM192.36 190.621H193.452V182.039H196.686V181.003H189.126V182.039H192.36V190.621ZM203.025 190.789C205.699 190.789 207.939 188.507 207.939 185.805C207.939 183.103 205.699 180.835 203.025 180.835C200.365 180.835 198.097 183.103 198.097 185.805C198.097 188.507 200.365 190.789 203.025 190.789ZM203.025 189.781C200.953 189.781 199.203 187.961 199.203 185.805C199.203 183.663 200.953 181.843 203.025 181.843C205.097 181.843 206.833 183.663 206.833 185.805C206.833 187.961 205.097 189.781 203.025 189.781ZM221.993 190.621H223.183L218.941 181.003H217.751L213.509 190.621H214.699L215.665 188.437H221.027L221.993 190.621ZM216.113 187.401L218.353 182.347L220.579 187.401H216.113ZM225.342 190.621H226.434V182.795L232.398 190.621H233.49V181.003H232.398V188.829L226.434 181.003H225.342V190.621ZM239.731 190.775C241.971 190.775 243.119 189.529 243.119 188.003C243.119 186.309 241.803 185.651 239.969 185.217C238.331 184.825 237.379 184.475 237.379 183.481C237.379 182.599 238.247 181.829 239.437 181.829C240.445 181.829 241.397 182.291 242.195 183.061L242.867 182.207C241.985 181.395 240.921 180.835 239.493 180.835C237.645 180.835 236.273 182.025 236.273 183.565C236.273 185.231 237.491 185.833 239.423 186.281C241.103 186.673 242.013 187.079 242.013 188.101C242.013 188.969 241.257 189.781 239.773 189.781C238.429 189.781 237.435 189.207 236.623 188.395L235.937 189.249C236.903 190.201 238.149 190.775 239.731 190.775ZM247.855 190.621H248.933L251.621 182.431L254.295 190.621H255.373L258.663 181.003H257.431L254.771 188.787L252.223 181.003H251.005L248.457 188.787L245.797 181.003H244.565L247.855 190.621ZM267.796 182.039V181.003H260.894V190.621H267.796V189.585H262V186.239H267.222V185.203H262V182.039H267.796ZM277.837 184.083C277.837 182.277 276.283 181.003 274.295 181.003H270.389V190.621H271.481V187.163H273.609L276.045 190.621H277.291L274.841 187.135C276.563 186.925 277.837 185.721 277.837 184.083ZM271.481 182.039H274.099C275.667 182.039 276.731 182.795 276.731 184.083C276.731 185.371 275.667 186.127 274.099 186.127H271.481V182.039Z" fill="#747474"/>
</svg>
