<svg width="1100" height="365" viewBox="0 0 1100 365" fill="none" xmlns="http://www.w3.org/2000/svg">
<path d="M0.614258 144.398C0.614258 138.876 5.09141 134.398 10.6143 134.398H1090C1095.52 134.398 1100 138.876 1100 144.398V154.398C1100 159.921 1095.52 164.398 1090 164.398H10.6142C5.09138 164.398 0.614258 159.921 0.614258 154.398V144.398Z" fill="#F36A11"/>
<path d="M451.027 134.398H1090C1095.52 134.398 1100 138.876 1100 144.398V154.398C1100 159.921 1095.52 164.398 1090 164.398H451.027V134.398Z" fill="#FFE86C"/>
<path d="M451.027 134.398H580.799V164.398H451.027V134.398Z" fill="#FFA636"/>
<path d="M580.8 134.398H597.109V164.398H580.8V134.398Z" fill="#FBFF36"/>
<path d="M0.614258 344.689C0.614258 339.167 5.09141 334.689 10.6143 334.689H358.485V364.689H10.6142C5.0914 364.689 0.614258 360.212 0.614258 354.689V344.689Z" fill="#ACD666"/>
<path d="M358.485 334.689H1090C1095.52 334.689 1100 339.167 1100 344.689V354.689C1100 360.212 1095.52 364.689 1090 364.689H358.485V334.689Z" fill="#E3EDAC"/>
<path d="M17.7905 99.3984H31.4705V44.4384H20.5105L3.07047 56.1184L8.51047 65.6384L17.7905 59.8784V99.3984ZM63.7167 100.358C76.1167 100.358 86.5167 94.8384 86.5167 84.5184C86.5167 78.4384 82.5167 73.7184 76.1167 70.9984C81.5567 68.5184 85.0767 64.5184 85.0767 58.5184C85.0767 48.9184 75.0767 43.4784 63.7167 43.4784C52.5967 43.4784 42.4367 48.7584 42.4367 58.5184C42.4367 64.7584 46.1967 68.6784 51.3167 70.9984C45.1567 73.4784 40.9967 78.1984 40.9967 84.5184C40.9967 94.7584 51.2367 100.358 63.7167 100.358ZM63.7167 66.3584C59.7167 66.1184 55.9567 63.8784 55.9567 60.4384C55.9567 57.2384 58.9967 54.7584 63.7167 54.7584C68.4367 54.7584 71.5567 57.2384 71.5567 60.4384C71.5567 63.7984 67.7167 66.1184 63.7167 66.3584ZM63.7167 88.9984C58.4367 88.9984 54.8367 86.5984 54.8367 82.9984C54.8367 79.3984 59.3167 77.1584 63.7167 76.9184C68.1167 77.1584 72.6767 79.3984 72.6767 82.9984C72.6767 86.5984 68.9167 88.9984 63.7167 88.9984ZM102.062 111.478C108.062 106.038 111.262 100.278 111.262 94.9984C111.262 88.5184 107.822 83.8784 102.782 83.8784C98.3823 83.8784 94.6223 87.6384 94.6223 92.1984C94.6223 96.5984 98.2223 100.358 102.542 100.358C101.822 102.998 100.062 105.718 97.4223 107.958L102.062 111.478ZM141.025 100.438C154.865 100.438 163.745 92.9184 163.745 80.9984C163.745 69.7184 155.185 63.4784 145.585 63.4784C141.185 63.4784 137.745 64.7584 135.105 66.6784L135.425 56.6784H160.705V44.4384H122.865L122.065 74.5984L131.105 78.1184C133.905 75.9584 137.345 74.6784 141.265 74.6784C146.705 74.6784 150.065 77.3984 150.065 81.4784C150.065 85.3984 146.865 88.5984 141.105 88.5984C136.145 88.5984 131.185 86.1184 127.025 82.4384L119.185 92.1184C124.545 97.2384 131.585 100.438 141.025 100.438ZM191.494 100.438C205.334 100.438 214.214 92.9184 214.214 80.9984C214.214 69.7184 205.654 63.4784 196.054 63.4784C191.654 63.4784 188.214 64.7584 185.574 66.6784L185.894 56.6784H211.174V44.4384H173.334L172.534 74.5984L181.574 78.1184C184.374 75.9584 187.814 74.6784 191.734 74.6784C197.174 74.6784 200.534 77.3984 200.534 81.4784C200.534 85.3984 197.334 88.5984 191.574 88.5984C186.614 88.5984 181.654 86.1184 177.494 82.4384L169.654 92.1184C175.014 97.2384 182.054 100.438 191.494 100.438ZM246.202 100.358C261.082 100.358 271.562 88.5984 271.562 71.8784C271.562 55.2384 261.082 43.4784 246.202 43.4784C231.402 43.4784 220.922 55.2384 220.922 71.8784C220.922 88.5984 231.402 100.358 246.202 100.358ZM246.202 87.9584C239.642 87.9584 235.002 81.2384 235.002 71.8784C235.002 62.5184 239.642 55.8784 246.202 55.8784C252.842 55.8784 257.482 62.5184 257.482 71.8784C257.482 81.2384 252.842 87.9584 246.202 87.9584Z" fill="black"/>
<path d="M7.52 306H22.88L44.56 261.36V251.04H2.48V263.28H28.8L7.52 306ZM59.2694 318.08C65.2694 312.64 68.4694 306.88 68.4694 301.6C68.4694 295.12 65.0294 290.48 59.9894 290.48C55.5894 290.48 51.8294 294.24 51.8294 298.8C51.8294 303.2 55.4294 306.96 59.7494 306.96C59.0294 309.6 57.2694 312.32 54.6294 314.56L59.2694 318.08ZM102.472 306.96C117.352 306.96 127.832 295.2 127.832 278.48C127.832 261.84 117.352 250.08 102.472 250.08C87.6719 250.08 77.1919 261.84 77.1919 278.48C77.1919 295.2 87.6719 306.96 102.472 306.96ZM102.472 294.56C95.9119 294.56 91.2719 287.84 91.2719 278.48C91.2719 269.12 95.9119 262.48 102.472 262.48C109.112 262.48 113.752 269.12 113.752 278.48C113.752 287.84 109.112 294.56 102.472 294.56ZM157.408 306.96C169.808 306.96 180.208 301.44 180.208 291.12C180.208 285.04 176.208 280.32 169.808 277.6C175.248 275.12 178.768 271.12 178.768 265.12C178.768 255.52 168.768 250.08 157.408 250.08C146.288 250.08 136.128 255.36 136.128 265.12C136.128 271.36 139.888 275.28 145.008 277.6C138.848 280.08 134.688 284.8 134.688 291.12C134.688 301.36 144.928 306.96 157.408 306.96ZM157.408 272.96C153.408 272.72 149.648 270.48 149.648 267.04C149.648 263.84 152.688 261.36 157.408 261.36C162.128 261.36 165.248 263.84 165.248 267.04C165.248 270.4 161.408 272.72 157.408 272.96ZM157.408 295.6C152.128 295.6 148.528 293.2 148.528 289.6C148.528 286 153.008 283.76 157.408 283.52C161.808 283.76 166.368 286 166.368 289.6C166.368 293.2 162.608 295.6 157.408 295.6ZM213.834 306H227.514V295.52H234.474V284.16H227.514V251.12H210.874L185.994 285.12L187.194 295.52H213.834V306ZM200.154 284.16L213.834 265.28V284.16H200.154Z" fill="black"/>
<path d="M383.88 269.795C379.08 269.795 374.36 271.475 371.08 274.195C372.28 266.355 376.44 261.715 383 261.715C387.4 261.715 390.52 263.235 393.88 265.875L400.2 255.555C395.48 251.955 389.8 249.795 382.92 249.795C366.76 249.795 356.6 261.795 356.6 279.235C356.6 295.395 364.44 306.675 380.84 306.675C393.08 306.675 402.44 298.995 402.44 287.395C402.44 276.435 394.04 269.795 383.88 269.795ZM379.96 295.075C374.44 295.075 371.96 292.115 371.08 286.115C372.68 282.835 375.88 280.755 379.64 280.755C384.36 280.755 388.36 283.395 388.36 287.955C388.36 291.875 385.08 295.075 379.96 295.075ZM430.06 306.755C443.9 306.755 452.78 299.235 452.78 287.315C452.78 276.035 444.22 269.795 434.62 269.795C430.22 269.795 426.78 271.075 424.14 272.995L424.46 262.995H449.74V250.755H411.9L411.1 280.915L420.14 284.435C422.94 282.275 426.38 280.995 430.3 280.995C435.74 280.995 439.1 283.715 439.1 287.795C439.1 291.715 435.9 294.915 430.14 294.915C425.18 294.915 420.22 292.435 416.06 288.755L408.22 298.435C413.58 303.555 420.62 306.755 430.06 306.755ZM474.129 278.515C482.449 278.515 488.209 272.355 488.209 264.355C488.209 256.595 482.689 250.195 474.129 250.195C465.649 250.195 460.129 256.515 460.129 264.355C460.129 272.355 465.729 278.515 474.129 278.515ZM467.489 305.715H477.809L516.209 250.755H505.889L467.489 305.715ZM474.129 270.755C471.169 270.755 468.929 268.275 468.929 264.355C468.929 260.355 471.089 257.955 474.129 257.955C477.089 257.955 479.409 260.435 479.409 264.355C479.409 268.355 477.169 270.755 474.129 270.755ZM509.409 306.595C517.729 306.595 523.489 300.355 523.489 292.435C523.489 284.595 517.969 278.195 509.489 278.195C501.089 278.195 495.409 284.435 495.409 292.435C495.409 300.275 501.009 306.595 509.409 306.595ZM509.489 298.835C506.449 298.835 504.209 296.355 504.209 292.435C504.209 288.355 506.369 286.035 509.409 286.035C512.369 286.035 514.689 288.515 514.689 292.435C514.689 296.435 512.449 298.835 509.489 298.835Z" fill="black"/>
<path d="M3.22376 227.215H5.96176L5.96176 214.505H3.22376L3.22376 227.215ZM9.55567 227.215H12.2937L12.2937 219.001L18.4172 227.215H21.1552L21.1552 214.505H18.4172L18.4172 222.719L12.2937 214.505H9.55567L9.55567 227.215ZM30.1507 227.215H32.8887V223.089H35.8672C38.6422 223.089 40.6587 221.313 40.6587 218.797C40.6587 216.281 38.6422 214.505 35.8672 214.505H30.1507L30.1507 227.215ZM32.8887 220.592V217.003H35.5897C36.9402 217.003 37.8652 217.706 37.8652 218.797C37.8652 219.889 36.9402 220.592 35.5897 220.592H32.8887ZM53.1704 216.966V214.505H43.3839V227.215H53.1704V224.754H46.1219V221.961H52.5229V219.5H46.1219V216.966H53.1704ZM66.6916 218.797C66.6916 216.281 64.6751 214.505 61.9001 214.505H56.1836V227.215H58.9216V223.089H60.5681L63.4726 227.215H66.5806L63.5281 222.867C65.4336 222.312 66.6916 220.795 66.6916 218.797ZM58.9216 217.003H61.6226C62.9731 217.003 63.8981 217.706 63.8981 218.797C63.8981 219.889 62.9731 220.592 61.6226 220.592H58.9216V217.003ZM74.2785 227.437C77.368 227.437 79.218 225.827 79.218 223.404C79.218 221.054 77.405 220.24 74.667 219.63C72.706 219.186 71.929 218.89 71.929 217.965C71.929 217.206 72.6505 216.596 73.7975 216.596C75.0185 216.596 76.295 217.095 77.442 218.02L78.8665 216.041C77.553 214.931 75.962 214.283 73.89 214.283C71.0965 214.283 69.1725 215.893 69.1725 218.242C69.1725 220.703 71.0965 221.461 73.779 222.072C75.7215 222.516 76.4615 222.793 76.4615 223.7C76.4615 224.495 75.7585 225.124 74.371 225.124C72.7615 225.124 71.3925 224.495 70.19 223.459L68.636 225.328C70.116 226.697 72.0585 227.437 74.2785 227.437ZM88.0304 227.437C91.6934 227.437 94.7644 224.421 94.7644 220.851C94.7644 217.28 91.6934 214.283 88.0304 214.283C84.3674 214.283 81.2594 217.28 81.2594 220.851C81.2594 224.421 84.3674 227.437 88.0304 227.437ZM88.0304 224.958C85.8844 224.958 84.0714 223.071 84.0714 220.851C84.0714 218.649 85.8844 216.762 88.0304 216.762C90.1579 216.762 91.9709 218.649 91.9709 220.851C91.9709 223.071 90.1579 224.958 88.0304 224.958ZM97.6178 227.215H100.356V219.001L106.479 227.215H109.217V214.505H106.479V222.719L100.356 214.505H97.6178V227.215Z" fill="black"/>
<path d="M13.1175 11.2973C13.1175 8.78134 11.101 7.00534 8.326 7.00534L2.6095 7.00534L2.6095 19.7148H5.3475V15.5893L6.994 15.5893L9.8985 19.7148L13.0065 19.7148L9.954 15.3673C11.8595 14.8123 13.1175 13.2953 13.1175 11.2973ZM5.3475 9.50284L8.0485 9.50284C9.399 9.50284 10.324 10.2058 10.324 11.2973C10.324 12.3888 9.399 13.0918 8.0485 13.0918L5.3475 13.0918V9.50284ZM25.7919 9.46584V7.00534L16.0054 7.00534L16.0054 19.7148H25.7919V17.2543H18.7434V14.4608H25.1444V12.0003H18.7434L18.7434 9.46584H25.7919ZM34.3921 14.7013H37.3336V16.6438C36.6306 17.1618 35.7241 17.4578 34.8731 17.4578C32.6901 17.4578 30.8586 15.5708 30.8586 13.3508C30.8586 11.1493 32.6901 9.26234 34.8731 9.26234C36.0386 9.26234 37.2596 9.81734 38.0181 10.6868L39.9976 8.91084C38.7396 7.57884 36.7601 6.78334 34.8731 6.78334C31.1731 6.78334 28.0466 9.78034 28.0466 13.3508C28.0466 16.9213 31.1731 19.9368 34.8731 19.9368C36.7601 19.9368 38.7396 19.1413 39.9976 17.8093V12.5738L34.3921 12.5738V14.7013ZM43.0862 19.7148H45.8242V7.00534H43.0862V19.7148ZM54.1171 19.9368C57.2066 19.9368 59.0566 18.3273 59.0566 15.9038C59.0566 13.5543 57.2436 12.7403 54.5056 12.1298C52.5446 11.6858 51.7676 11.3898 51.7676 10.4648C51.7676 9.70634 52.4891 9.09584 53.6361 9.09584C54.8571 9.09584 56.1336 9.59534 57.2806 10.5203L58.7051 8.54084C57.3916 7.43084 55.8006 6.78334 53.7286 6.78334C50.9351 6.78334 49.0111 8.39284 49.0111 10.7423C49.0111 13.2028 50.9351 13.9613 53.6176 14.5718C55.5601 15.0158 56.3001 15.2933 56.3001 16.1998C56.3001 16.9953 55.5971 17.6243 54.2096 17.6243C52.6001 17.6243 51.2311 16.9953 50.0286 15.9593L48.4746 17.8278C49.9546 19.1968 51.8971 19.9368 54.1171 19.9368ZM64.798 19.7148H67.5175V9.46584H71.495V7.00534L60.839 7.00534V9.46584L64.798 9.46584V19.7148ZM83.8284 9.46584V7.00534L74.0419 7.00534V19.7148L83.8284 19.7148V17.2543L76.7799 17.2543V14.4608H83.1809V12.0003H76.7799V9.46584H83.8284ZM97.3496 11.2973C97.3496 8.78134 95.3331 7.00534 92.5581 7.00534L86.8416 7.00534V19.7148H89.5796V15.5893H91.2261L94.1306 19.7148H97.2386L94.1861 15.3673C96.0916 14.8123 97.3496 13.2953 97.3496 11.2973ZM89.5796 9.50284H92.2806C93.6311 9.50284 94.5561 10.2058 94.5561 11.2973C94.5561 12.3888 93.6311 13.0918 92.2806 13.0918H89.5796V9.50284ZM110.024 9.46584V7.00534L100.237 7.00534V19.7148L110.024 19.7148V17.2543H102.975V14.4608L109.376 14.4608V12.0003L102.975 12.0003V9.46584L110.024 9.46584ZM113.037 19.7148H117.607C121.88 19.7148 124.914 17.0693 124.914 13.3508C124.914 9.63234 121.88 7.00534 117.607 7.00534L113.037 7.00534V19.7148ZM115.775 17.2358V9.48434L117.958 9.48434C120.382 9.48434 122.102 11.0938 122.102 13.3508C122.102 15.6263 120.382 17.2358 117.958 17.2358H115.775Z" fill="black"/>
<path d="M370.063 222.121V219.29H360.054V232H363.218V227.227H369.434V224.396H363.218V222.121H370.063ZM372.673 232H375.837V219.29H372.673V232ZM389.972 232L386.956 227.726C388.751 227.097 389.898 225.599 389.898 223.656C389.898 221.085 387.881 219.29 385.069 219.29H379.168V232H382.331V228.022H383.589L386.383 232H389.972ZM382.331 222.176H384.792C385.883 222.176 386.642 222.768 386.642 223.656C386.642 224.544 385.883 225.136 384.792 225.136H382.331V222.176ZM397.63 232.222C400.775 232.222 402.718 230.631 402.718 228.078C402.718 225.691 400.886 224.877 398.037 224.267C396.15 223.86 395.54 223.601 395.54 222.824C395.54 222.195 396.113 221.714 397.131 221.714C398.315 221.714 399.591 222.176 400.757 223.064L402.366 220.807C401.016 219.697 399.351 219.068 397.205 219.068C394.319 219.068 392.358 220.696 392.358 223.138C392.358 225.691 394.374 226.431 397.094 227.042C398.944 227.486 399.536 227.652 399.536 228.411C399.536 229.095 398.925 229.576 397.741 229.576C396.187 229.576 394.8 228.984 393.56 227.967L391.766 230.094C393.32 231.482 395.373 232.222 397.63 232.222ZM408.324 232H411.488V222.121H415.354V219.29H404.476V222.121H408.324V232ZM426.227 232H429.391V222.121H433.257V219.29H422.379V222.121H426.227V232ZM435.741 232H438.904V219.29H435.741V232ZM442.235 232H445.399V224.637L449.062 231.26L452.725 224.637V232H455.888V219.29H452.725L449.062 225.913L445.399 219.29H442.235V232ZM469.235 222.121V219.29H459.227V232H469.235V229.169H462.39V226.931H468.606V224.1H462.39V222.121H469.235ZM482.921 232L479.905 227.726C481.7 227.097 482.847 225.599 482.847 223.656C482.847 221.085 480.83 219.29 478.018 219.29H472.117V232H475.28V228.022H476.538L479.332 232H482.921ZM475.28 222.176H477.741C478.832 222.176 479.591 222.768 479.591 223.656C479.591 224.544 478.832 225.136 477.741 225.136H475.28V222.176ZM490.579 232.222C493.724 232.222 495.667 230.631 495.667 228.078C495.667 225.691 493.835 224.877 490.986 224.267C489.099 223.86 488.489 223.601 488.489 222.824C488.489 222.195 489.062 221.714 490.08 221.714C491.264 221.714 492.54 222.176 493.706 223.064L495.315 220.807C493.965 219.697 492.3 219.068 490.154 219.068C487.268 219.068 485.307 220.696 485.307 223.138C485.307 225.691 487.323 226.431 490.043 227.042C491.893 227.486 492.485 227.652 492.485 228.411C492.485 229.095 491.874 229.576 490.69 229.576C489.136 229.576 487.749 228.984 486.509 227.967L484.715 230.094C486.269 231.482 488.322 232.222 490.579 232.222Z" fill="black"/>
<path d="M316.993 21H320.157V18.5765H321.766V15.9495H320.157V8.309H316.309L310.555 16.1715L310.833 18.5765H316.993V21ZM313.83 15.9495L316.993 11.5835V15.9495H313.83ZM328.425 21.2405C331.625 21.2405 333.679 19.5015 333.679 16.745C333.679 14.1365 331.699 12.6935 329.479 12.6935C328.462 12.6935 327.666 12.9895 327.056 13.4335L327.13 11.121H332.976V8.2905H324.225L324.04 15.265L326.131 16.079C326.778 15.5795 327.574 15.2835 328.48 15.2835C329.738 15.2835 330.515 15.9125 330.515 16.856C330.515 17.7625 329.775 18.5025 328.443 18.5025C327.296 18.5025 326.149 17.929 325.187 17.078L323.374 19.3165C324.614 20.5005 326.242 21.2405 328.425 21.2405ZM338.024 21.222C339.041 21.222 339.892 20.3525 339.892 19.2795C339.892 18.2805 339.041 17.411 338.024 17.411C336.914 17.411 336.081 18.2805 336.081 19.2795C336.081 20.3525 336.914 21.222 338.024 21.222ZM342.347 21H352.245V18.1695H347.194L349.192 16.745C351.412 15.228 352.115 13.9145 352.115 12.231C352.115 9.8075 350.117 8.0685 347.268 8.0685C345.178 8.0685 343.531 8.938 342.181 10.566L344.16 12.527C345.122 11.5095 346.01 10.936 347.194 10.936C348.119 10.936 348.878 11.491 348.878 12.3605C348.878 13.1375 348.471 13.8405 347.046 14.9135L342.347 18.4285V21ZM357.702 14.71C359.626 14.71 360.958 13.2855 360.958 11.4355C360.958 9.641 359.681 8.161 357.702 8.161C355.741 8.161 354.464 9.6225 354.464 11.4355C354.464 13.2855 355.759 14.71 357.702 14.71ZM356.166 21H358.553L367.433 8.2905H365.046L356.166 21ZM357.702 12.9155C357.017 12.9155 356.499 12.342 356.499 11.4355C356.499 10.5105 356.999 9.9555 357.702 9.9555C358.386 9.9555 358.923 10.529 358.923 11.4355C358.923 12.3605 358.405 12.9155 357.702 12.9155ZM365.86 21.2035C367.784 21.2035 369.116 19.7605 369.116 17.929C369.116 16.116 367.84 14.636 365.879 14.636C363.936 14.636 362.623 16.079 362.623 17.929C362.623 19.742 363.918 21.2035 365.86 21.2035ZM365.879 19.409C365.176 19.409 364.658 18.8355 364.658 17.929C364.658 16.9855 365.157 16.449 365.86 16.449C366.545 16.449 367.081 17.0225 367.081 17.929C367.081 18.854 366.563 19.409 365.879 19.409ZM327.926 38.6935C326.816 38.6935 325.724 39.082 324.966 39.711C325.243 37.898 326.205 36.825 327.722 36.825C328.74 36.825 329.461 37.1765 330.238 37.787L331.7 35.4005C330.608 34.568 329.295 34.0685 327.704 34.0685C323.967 34.0685 321.617 36.8435 321.617 40.8765C321.617 44.6135 323.43 47.222 327.223 47.222C330.053 47.222 332.218 45.446 332.218 42.7635C332.218 40.229 330.275 38.6935 327.926 38.6935ZM327.019 44.5395C325.743 44.5395 325.169 43.855 324.966 42.4675C325.336 41.709 326.076 41.228 326.945 41.228C328.037 41.228 328.962 41.8385 328.962 42.893C328.962 43.7995 328.203 44.5395 327.019 44.5395ZM336.533 47.222C337.551 47.222 338.402 46.3525 338.402 45.2795C338.402 44.2805 337.551 43.411 336.533 43.411C335.423 43.411 334.591 44.2805 334.591 45.2795C334.591 46.3525 335.423 47.222 336.533 47.222ZM345.741 47.2405C348.941 47.2405 350.995 45.5015 350.995 42.745C350.995 40.1365 349.015 38.6935 346.795 38.6935C345.778 38.6935 344.982 38.9895 344.372 39.4335L344.446 37.121H350.292V34.2905H341.541L341.356 41.265L343.447 42.079C344.094 41.5795 344.89 41.2835 345.796 41.2835C347.054 41.2835 347.831 41.9125 347.831 42.856C347.831 43.7625 347.091 44.5025 345.759 44.5025C344.612 44.5025 343.465 43.929 342.503 43.078L340.69 45.3165C341.93 46.5005 343.558 47.2405 345.741 47.2405ZM356.301 40.71C358.225 40.71 359.557 39.2855 359.557 37.4355C359.557 35.641 358.281 34.161 356.301 34.161C354.34 34.161 353.064 35.6225 353.064 37.4355C353.064 39.2855 354.359 40.71 356.301 40.71ZM354.766 47H357.152L366.032 34.2905H363.646L354.766 47ZM356.301 38.9155C355.617 38.9155 355.099 38.342 355.099 37.4355C355.099 36.5105 355.598 35.9555 356.301 35.9555C356.986 35.9555 357.522 36.529 357.522 37.4355C357.522 38.3605 357.004 38.9155 356.301 38.9155ZM364.46 47.2035C366.384 47.2035 367.716 45.7605 367.716 43.929C367.716 42.116 366.439 40.636 364.478 40.636C362.536 40.636 361.222 42.079 361.222 43.929C361.222 45.742 362.517 47.2035 364.46 47.2035ZM364.478 45.409C363.775 45.409 363.257 44.8355 363.257 43.929C363.257 42.9855 363.757 42.449 364.46 42.449C365.144 42.449 365.681 43.0225 365.681 43.929C365.681 44.854 365.163 45.409 364.478 45.409ZM338.23 73.222C341.671 73.222 344.094 70.5025 344.094 66.636C344.094 62.788 341.671 60.0685 338.23 60.0685C334.807 60.0685 332.384 62.788 332.384 66.636C332.384 70.5025 334.807 73.222 338.23 73.222ZM338.23 70.3545C336.713 70.3545 335.64 68.8005 335.64 66.636C335.64 64.4715 336.713 62.936 338.23 62.936C339.765 62.936 340.838 64.4715 340.838 66.636C340.838 68.8005 339.765 70.3545 338.23 70.3545ZM348.51 73.222C349.528 73.222 350.379 72.3525 350.379 71.2795C350.379 70.2805 349.528 69.411 348.51 69.411C347.4 69.411 346.568 70.2805 346.568 71.2795C346.568 72.3525 347.4 73.222 348.51 73.222ZM359.031 73H362.195V70.5765H363.804V67.9495H362.195V60.309H358.347L352.593 68.1715L352.871 70.5765H359.031V73ZM355.868 67.9495L359.031 63.5835V67.9495H355.868ZM368.983 66.71C370.907 66.71 372.239 65.2855 372.239 63.4355C372.239 61.641 370.963 60.161 368.983 60.161C367.022 60.161 365.746 61.6225 365.746 63.4355C365.746 65.2855 367.041 66.71 368.983 66.71ZM367.448 73H369.834L378.714 60.2905H376.328L367.448 73ZM368.983 64.9155C368.299 64.9155 367.781 64.342 367.781 63.4355C367.781 62.5105 368.28 61.9555 368.983 61.9555C369.668 61.9555 370.204 62.529 370.204 63.4355C370.204 64.3605 369.686 64.9155 368.983 64.9155ZM377.142 73.2035C379.066 73.2035 380.398 71.7605 380.398 69.929C380.398 68.116 379.121 66.636 377.16 66.636C375.218 66.636 373.904 68.079 373.904 69.929C373.904 71.742 375.199 73.2035 377.142 73.2035ZM377.16 71.409C376.457 71.409 375.939 70.8355 375.939 69.929C375.939 68.9855 376.439 68.449 377.142 68.449C377.826 68.449 378.363 69.0225 378.363 69.929C378.363 70.854 377.845 71.409 377.16 71.409ZM349.348 99H352.511V96.5765H354.121V93.9495H352.511V86.309H348.663L342.91 94.1715L343.187 96.5765H349.348V99ZM346.184 93.9495L349.348 89.5835V93.9495H346.184ZM356.839 99H360.391L365.405 88.677V86.2905H355.674V89.121H361.76L356.839 99ZM369.602 99.222C370.619 99.222 371.47 98.3525 371.47 97.2795C371.47 96.2805 370.619 95.411 369.602 95.411C368.492 95.411 367.659 96.2805 367.659 97.2795C367.659 98.3525 368.492 99.222 369.602 99.222ZM380.123 99H383.286V96.5765H384.896V93.9495H383.286V86.309H379.438L373.685 94.1715L373.962 96.5765H380.123V99ZM376.959 93.9495L380.123 89.5835V93.9495H376.959ZM390.075 92.71C391.999 92.71 393.331 91.2855 393.331 89.4355C393.331 87.641 392.054 86.161 390.075 86.161C388.114 86.161 386.837 87.6225 386.837 89.4355C386.837 91.2855 388.132 92.71 390.075 92.71ZM388.539 99H390.926L399.806 86.2905H397.419L388.539 99ZM390.075 90.9155C389.39 90.9155 388.872 90.342 388.872 89.4355C388.872 88.5105 389.372 87.9555 390.075 87.9555C390.759 87.9555 391.296 88.529 391.296 89.4355C391.296 90.3605 390.778 90.9155 390.075 90.9155ZM398.233 99.2035C400.157 99.2035 401.489 97.7605 401.489 95.929C401.489 94.116 400.213 92.636 398.252 92.636C396.309 92.636 394.996 94.079 394.996 95.929C394.996 97.742 396.291 99.2035 398.233 99.2035ZM398.252 97.409C397.549 97.409 397.031 96.8355 397.031 95.929C397.031 94.9855 397.53 94.449 398.233 94.449C398.918 94.449 399.454 95.0225 399.454 95.929C399.454 96.854 398.936 97.409 398.252 97.409Z" fill="black"/>
<path d="M393.839 21.3984H395.282V11.7969L399.999 20.6584L404.717 11.7969V21.3984H406.16V8.68894H404.717L399.999 17.5504L395.282 8.68894H393.839V21.3984ZM419.679 10.0579V8.68894H410.559V21.3984H419.679V20.0294H412.02V15.6079H418.921V14.2389H412.02V10.0579H419.679ZM423.106 21.3984H424.549V11.0569L432.43 21.3984H433.873V8.68894H432.43V19.0304L424.549 8.68894H423.106V21.3984ZM407.654 47.3984H409.079L412.631 36.5759L416.164 47.3984H417.589L421.936 34.6889H420.308L416.793 44.9749L413.426 34.6889H411.817L408.45 44.9749L404.935 34.6889H403.307L407.654 47.3984ZM430.416 47.6204C433.95 47.6204 436.91 44.6049 436.91 41.0344C436.91 37.4639 433.95 34.4669 430.416 34.4669C426.901 34.4669 423.904 37.4639 423.904 41.0344C423.904 44.6049 426.901 47.6204 430.416 47.6204ZM430.416 46.2884C427.678 46.2884 425.366 43.8834 425.366 41.0344C425.366 38.2039 427.678 35.7989 430.416 35.7989C433.154 35.7989 435.448 38.2039 435.448 41.0344C435.448 43.8834 433.154 46.2884 430.416 46.2884ZM440.358 47.3984H441.801V37.7969L446.519 46.6584L451.236 37.7969V47.3984H452.679V34.6889H451.236L446.519 43.5504L441.801 34.6889H440.358V47.3984ZM466.199 36.0579V34.6889H457.078V47.3984H466.199V46.0294H458.54V41.6079H465.44V40.2389H458.54V36.0579H466.199ZM469.625 47.3984H471.068V37.0569L478.949 47.3984H480.392V34.6889H478.949V45.0304L471.068 34.6889H469.625V47.3984ZM415.698 73.3984H417.141V63.0569L425.022 73.3984H426.465V60.6889H425.022V71.0304L417.141 60.6889H415.698V73.3984ZM436.396 73.6204C439.929 73.6204 442.889 70.6049 442.889 67.0344C442.889 63.4639 439.929 60.4669 436.396 60.4669C432.881 60.4669 429.884 63.4639 429.884 67.0344C429.884 70.6049 432.881 73.6204 436.396 73.6204ZM436.396 72.2884C433.658 72.2884 431.345 69.8834 431.345 67.0344C431.345 64.2039 433.658 61.7989 436.396 61.7989C439.134 61.7989 441.428 64.2039 441.428 67.0344C441.428 69.8834 439.134 72.2884 436.396 72.2884ZM446.338 73.3984H447.781V63.0569L455.662 73.3984H457.105V60.6889H455.662V71.0304L447.781 60.6889H446.338V73.3984ZM461.078 69.0509H465.87V67.7004H461.078V69.0509ZM469.841 73.3984H475.891C478.092 73.3984 479.665 71.9554 479.665 69.9204C479.665 68.5329 478.814 67.3859 477.352 66.6459C478.499 65.9799 479.165 65.2029 479.165 63.8524C479.165 62.0024 477.722 60.6889 475.669 60.6889H469.841V73.3984ZM471.284 66.0724V62.0024H475.299C476.705 62.0024 477.704 62.8534 477.704 64.0374C477.704 65.2214 476.705 66.0724 475.299 66.0724H471.284ZM471.284 72.0849V67.3859H475.521C477.093 67.3859 478.203 68.3664 478.203 69.7354C478.203 71.1044 477.093 72.0849 475.521 72.0849H471.284ZM483.219 73.3984H484.662V60.6889H483.219V73.3984ZM489.063 73.3984H490.506V63.0569L498.387 73.3984H499.83V60.6889H498.387V71.0304L490.506 60.6889H489.063V73.3984ZM513.887 73.3984H515.459L509.854 60.6889H508.281L502.676 73.3984H504.248L505.525 70.5124H512.61L513.887 73.3984ZM506.117 69.1434L509.077 62.4649L512.018 69.1434H506.117ZM528.154 64.7589C528.154 62.3724 526.1 60.6889 523.473 60.6889L518.312 60.6889V73.3984H519.755V68.8289H522.567L525.786 73.3984H527.432L524.195 68.7919C526.47 68.5144 528.154 66.9234 528.154 64.7589ZM519.755 62.0579L523.214 62.0579C525.286 62.0579 526.692 63.0569 526.692 64.7589C526.692 66.4609 525.286 67.4599 523.214 67.4599H519.755V62.0579ZM534.914 73.3984H536.431V68.2184L541.537 60.6889H539.798L535.673 66.8494L531.584 60.6889H529.79L534.914 68.2184V73.3984ZM542.256 74.7674H543.829L550.322 59.6529H548.75L542.256 74.7674ZM558.232 73.6204C561.765 73.6204 564.725 70.6049 564.725 67.0344C564.725 63.4639 561.765 60.4669 558.232 60.4669C554.717 60.4669 551.72 63.4639 551.72 67.0344C551.72 70.6049 554.717 73.6204 558.232 73.6204ZM558.232 72.2884C555.494 72.2884 553.181 69.8834 553.181 67.0344C553.181 64.2039 555.494 61.7989 558.232 61.7989C560.97 61.7989 563.264 64.2039 563.264 67.0344C563.264 69.8834 560.97 72.2884 558.232 72.2884ZM570.893 73.3984H572.336V62.0579H576.61V60.6889H566.62V62.0579H570.893V73.3984ZM588.391 60.6889V66.2389H580.899V60.6889H579.456V73.3984H580.899V67.6079H588.391V73.3984H589.834V60.6889H588.391ZM603.363 62.0579V60.6889H594.243V73.3984H603.363V72.0294H595.704V67.6079H602.605V66.2389H595.704V62.0579H603.363ZM616.632 64.7589C616.632 62.3724 614.578 60.6889 611.951 60.6889H606.79V73.3984H608.233V68.8289H611.045L614.264 73.3984H615.91L612.673 68.7919C614.948 68.5144 616.632 66.9234 616.632 64.7589ZM608.233 62.0579H611.692C613.764 62.0579 615.17 63.0569 615.17 64.7589C615.17 66.4609 613.764 67.4599 611.692 67.4599H608.233V62.0579ZM630.781 68.0704H634.425V71.1044C633.482 71.8259 632.113 72.2884 630.929 72.2884C628.191 72.2884 625.878 69.8834 625.878 67.0344C625.878 64.2039 628.191 61.7989 630.929 61.7989C632.316 61.7989 633.963 62.4279 634.888 63.4084L635.868 62.4094C634.684 61.2069 632.686 60.4669 630.929 60.4669C627.414 60.4669 624.417 63.4639 624.417 67.0344C624.417 70.6049 627.414 73.6204 630.929 73.6204C632.686 73.6204 634.684 72.8619 635.868 71.6779V66.7014H630.781V68.0704ZM648.763 62.0579V60.6889H639.642V73.3984L648.763 73.3984V72.0294L641.104 72.0294V67.6079H648.004V66.2389H641.104V62.0579H648.763ZM652.189 73.3984H653.632V63.0569L661.513 73.3984H662.956V60.6889H661.513V71.0304L653.632 60.6889H652.189V73.3984ZM667.355 73.3984H671.647C675.68 73.3984 678.529 70.7529 678.529 67.0344C678.529 63.3159 675.68 60.6889 671.647 60.6889H667.355V73.3984ZM668.798 72.0849V62.0024H671.647C674.829 62.0024 677.068 64.0929 677.068 67.0344C677.068 69.9944 674.829 72.0849 671.647 72.0849H668.798ZM691.064 62.0579V60.6889H681.944V73.3984H691.064V72.0294H683.405V67.6079H690.306V66.2389H683.405V62.0579H691.064ZM704.332 64.7589C704.332 62.3724 702.279 60.6889 699.652 60.6889H694.49V73.3984H695.933V68.8289H698.745L701.964 73.3984H703.611L700.373 68.7919C702.649 68.5144 704.332 66.9234 704.332 64.7589ZM695.933 62.0579H699.393C701.465 62.0579 702.871 63.0569 702.871 64.7589C702.871 66.4609 701.465 67.4599 699.393 67.4599H695.933V62.0579ZM711.481 73.6019C714.441 73.6019 715.958 71.9554 715.958 69.9389C715.958 67.7004 714.219 66.8309 711.796 66.2574C709.631 65.7394 708.373 65.2769 708.373 63.9634C708.373 62.7979 709.52 61.7804 711.093 61.7804C712.425 61.7804 713.683 62.3909 714.737 63.4084L715.625 62.2799C714.46 61.2069 713.054 60.4669 711.167 60.4669C708.725 60.4669 706.912 62.0394 706.912 64.0744C706.912 66.2759 708.521 67.0714 711.074 67.6634C713.294 68.1814 714.497 68.7179 714.497 70.0684C714.497 71.2154 713.498 72.2884 711.537 72.2884C709.761 72.2884 708.447 71.5299 707.374 70.4569L706.468 71.5854C707.744 72.8434 709.391 73.6019 711.481 73.6019ZM426.627 99.3984H428.07V94.8289H431.789C434.416 94.8289 436.469 93.1454 436.469 90.7589C436.469 88.3724 434.416 86.6889 431.789 86.6889H426.627V99.3984ZM428.07 93.4599V88.0579H431.53C433.602 88.0579 435.008 89.0569 435.008 90.7589C435.008 92.4609 433.602 93.4599 431.53 93.4599H428.07ZM449.504 90.7589C449.504 88.3724 447.45 86.6889 444.823 86.6889H439.662V99.3984H441.105V94.8289H443.917L447.136 99.3984H448.782L445.545 94.7919C447.82 94.5144 449.504 92.9234 449.504 90.7589ZM441.105 88.0579H444.564C446.636 88.0579 448.042 89.0569 448.042 90.7589C448.042 92.4609 446.636 93.4599 444.564 93.4599H441.105V88.0579ZM461.925 88.0579V86.6889H452.805V99.3984H461.925V98.0294H454.266V93.6079H461.167V92.2389H454.266V88.0579H461.925ZM474.472 88.0579V86.6889H465.351V99.3984H466.813V93.6079H473.713V92.2389H466.813V88.0579H474.472ZM486.657 88.0579V86.6889H477.537V99.3984H486.657V98.0294H478.998V93.6079H485.899V92.2389H478.998V88.0579H486.657ZM499.926 90.7589C499.926 88.3724 497.872 86.6889 495.245 86.6889H490.084V99.3984H491.527V94.8289H494.339L497.558 99.3984H499.204L495.967 94.7919C498.242 94.5144 499.926 92.9234 499.926 90.7589ZM491.527 88.0579H494.986C497.058 88.0579 498.464 89.0569 498.464 90.7589C498.464 92.4609 497.058 93.4599 494.986 93.4599H491.527V88.0579ZM508.691 99.3984H510.134V89.0569L518.015 99.3984H519.458V86.6889H518.015V97.0304L510.134 86.6889H508.691V99.3984ZM529.389 99.6204C532.923 99.6204 535.883 96.6049 535.883 93.0344C535.883 89.4639 532.923 86.4669 529.389 86.4669C525.874 86.4669 522.877 89.4639 522.877 93.0344C522.877 96.6049 525.874 99.6204 529.389 99.6204ZM529.389 98.2884C526.651 98.2884 524.339 95.8834 524.339 93.0344C524.339 90.2039 526.651 87.7989 529.389 87.7989C532.127 87.7989 534.421 90.2039 534.421 93.0344C534.421 95.8834 532.127 98.2884 529.389 98.2884ZM542.051 99.3984H543.494V88.0579H547.767V86.6889H537.777V88.0579H542.051V99.3984ZM558.797 99.3984H560.24V88.0579H564.514V86.6889H554.524V88.0579H558.797V99.3984ZM572.892 99.6204C576.425 99.6204 579.385 96.6049 579.385 93.0344C579.385 89.4639 576.425 86.4669 572.892 86.4669C569.377 86.4669 566.38 89.4639 566.38 93.0344C566.38 96.6049 569.377 99.6204 572.892 99.6204ZM572.892 98.2884C570.154 98.2884 567.841 95.8834 567.841 93.0344C567.841 90.2039 570.154 87.7989 572.892 87.7989C575.63 87.7989 577.924 90.2039 577.924 93.0344C577.924 95.8834 575.63 98.2884 572.892 98.2884ZM597.955 99.3984H599.528L593.922 86.6889H592.35L586.744 99.3984H588.317L589.593 96.5124H596.679L597.955 99.3984ZM590.185 95.1434L593.145 88.4649L596.087 95.1434H590.185ZM602.381 99.3984H603.824V89.0569L611.705 99.3984H613.148V86.6889H611.705V97.0304L603.824 86.6889H602.381V99.3984ZM621.395 99.6019C624.355 99.6019 625.872 97.9554 625.872 95.9389C625.872 93.7004 624.133 92.8309 621.71 92.2574C619.545 91.7394 618.287 91.2769 618.287 89.9634C618.287 88.7979 619.434 87.7804 621.007 87.7804C622.339 87.7804 623.597 88.3909 624.651 89.4084L625.539 88.2799C624.374 87.2069 622.968 86.4669 621.081 86.4669C618.639 86.4669 616.826 88.0394 616.826 90.0744C616.826 92.2759 618.435 93.0714 620.988 93.6634C623.208 94.1814 624.411 94.7179 624.411 96.0684C624.411 97.2154 623.412 98.2884 621.451 98.2884C619.675 98.2884 618.361 97.5299 617.288 96.4569L616.382 97.5854C617.658 98.8434 619.305 99.6019 621.395 99.6019ZM632.131 99.3984H633.555L637.107 88.5759L640.641 99.3984H642.065L646.413 86.6889H644.785L641.27 96.9749L637.903 86.6889H636.293L632.926 96.9749L629.411 86.6889H627.783L632.131 99.3984ZM658.482 88.0579V86.6889H649.361V99.3984H658.482V98.0294H650.823V93.6079H657.723V92.2389H650.823V88.0579H658.482ZM671.75 90.7589C671.75 88.3724 669.697 86.6889 667.07 86.6889H661.908V99.3984H663.351V94.8289H666.163L669.382 99.3984H671.029L667.791 94.7919C670.067 94.5144 671.75 92.9234 671.75 90.7589ZM663.351 88.0579H666.811C668.883 88.0579 670.289 89.0569 670.289 90.7589C670.289 92.4609 668.883 93.4599 666.811 93.4599H663.351V88.0579Z" fill="black"/>
</svg>
