<svg width="790" height="481" viewBox="0 0 790 481" fill="none" xmlns="http://www.w3.org/2000/svg">
<path d="M1.99951 347.563H790" stroke="#B7B7B7" stroke-width="0.5" stroke-miterlimit="10"/>
<path d="M1.99951 139.749H790" stroke="#B7B7B7" stroke-width="0.5" stroke-miterlimit="10"/>
<path d="M1.99951 1.20605H790" stroke="#B7B7B7" stroke-width="0.5" stroke-miterlimit="10"/>
<path d="M1.99951 278.292H790" stroke="#B7B7B7" stroke-width="0.5" stroke-miterlimit="10"/>
<path d="M1.99951 209.021H790" stroke="#B7B7B7" stroke-width="0.5" stroke-miterlimit="10"/>
<path d="M1.99951 70.4775H790" stroke="#B7B7B7" stroke-width="0.5" stroke-miterlimit="10"/>
<path d="M103.654 453.827H111.958V451.699H107.302L109.302 450.147C111.222 448.755 111.862 447.619 111.862 446.147C111.862 444.083 110.166 442.643 107.83 442.643C106.054 442.643 104.662 443.411 103.574 444.787L105.078 446.243C105.878 445.331 106.694 444.787 107.766 444.787C108.662 444.787 109.43 445.331 109.43 446.243C109.43 447.011 109.014 447.731 107.702 448.771L103.654 451.907V453.827ZM118.491 454.019C121.387 454.019 123.419 451.667 123.419 448.323C123.419 444.995 121.387 442.643 118.491 442.643C115.595 442.643 113.547 444.995 113.547 448.323C113.547 451.667 115.595 454.019 118.491 454.019ZM118.491 451.875C117.019 451.875 115.979 450.387 115.979 448.323C115.979 446.259 117.019 444.787 118.491 444.787C119.963 444.787 121.003 446.259 121.003 448.323C121.003 450.387 119.963 451.875 118.491 451.875ZM127.37 453.827H129.722V442.835H127.834L124.538 445.043L125.498 446.707L127.37 445.539V453.827ZM132.597 453.827H135.253L139.701 444.611V442.835H131.525V444.963H136.965L132.597 453.827Z" fill="black"/>
<path d="M104.742 474.827H109.974C111.878 474.827 113.238 473.579 113.238 471.819C113.238 470.619 112.502 469.627 111.238 468.987C112.23 468.411 112.806 467.739 112.806 466.571C112.806 464.971 111.558 463.835 109.782 463.835H104.742V474.827ZM105.99 468.491V464.971H109.462C110.678 464.971 111.542 465.707 111.542 466.731C111.542 467.755 110.678 468.491 109.462 468.491H105.99ZM105.99 473.691V469.627H109.654C111.014 469.627 111.974 470.475 111.974 471.659C111.974 472.843 111.014 473.691 109.654 473.691H105.99ZM119.128 473.947C117.496 473.947 116.36 472.763 116.184 471.147H122.952C122.952 468.251 121.528 466.363 119.032 466.363C116.808 466.363 114.952 468.203 114.952 470.667C114.952 473.211 116.936 475.019 119.144 475.019C120.296 475.019 121.752 474.523 122.472 473.739L121.736 472.955C121.224 473.515 120.104 473.947 119.128 473.947ZM119.08 467.435C120.728 467.435 121.608 468.587 121.768 470.075H116.2C116.424 468.475 117.608 467.435 119.08 467.435ZM126.168 468.171V466.555H124.968V474.827H126.168V470.203C126.168 468.587 127.496 467.435 129.368 467.435V466.363C127.848 466.363 126.664 467.067 126.168 468.171ZM131.312 474.827H132.512V463.643H131.312V474.827ZM135.904 465.051C136.336 465.051 136.688 464.683 136.688 464.251C136.688 463.835 136.336 463.467 135.904 463.467C135.456 463.467 135.104 463.835 135.104 464.251C135.104 464.683 135.456 465.051 135.904 465.051ZM135.296 474.827H136.496V466.555H135.296V474.827ZM143.201 466.363C142.017 466.363 140.961 466.987 140.481 467.867V466.555H139.281V474.827H140.481V469.563C140.481 468.395 141.633 467.435 143.041 467.435C144.257 467.435 145.105 468.363 145.105 469.723V474.827H146.305V469.563C146.305 467.659 145.041 466.363 143.201 466.363Z" fill="#747474"/>
<path d="M218.854 453.827H227.158V451.699H222.502L224.502 450.147C226.422 448.755 227.062 447.619 227.062 446.147C227.062 444.083 225.366 442.643 223.03 442.643C221.254 442.643 219.862 443.411 218.774 444.787L220.278 446.243C221.078 445.331 221.894 444.787 222.966 444.787C223.862 444.787 224.63 445.331 224.63 446.243C224.63 447.011 224.214 447.731 222.902 448.771L218.854 451.907V453.827ZM233.691 454.019C236.587 454.019 238.619 451.667 238.619 448.323C238.619 444.995 236.587 442.643 233.691 442.643C230.795 442.643 228.747 444.995 228.747 448.323C228.747 451.667 230.795 454.019 233.691 454.019ZM233.691 451.875C232.219 451.875 231.179 450.387 231.179 448.323C231.179 446.259 232.219 444.787 233.691 444.787C235.163 444.787 236.203 446.259 236.203 448.323C236.203 450.387 235.163 451.875 233.691 451.875ZM242.57 453.827H244.922V442.835H243.034L239.738 445.043L240.698 446.707L242.57 445.539V453.827ZM251.413 454.019C253.829 454.019 255.829 452.883 255.829 450.883C255.829 449.619 254.965 448.659 253.669 448.147C254.773 447.667 255.557 446.867 255.557 445.635C255.557 443.747 253.605 442.643 251.413 442.643C249.269 442.643 247.285 443.699 247.285 445.635C247.285 446.883 248.069 447.683 249.157 448.147C247.893 448.627 246.997 449.587 246.997 450.883C246.997 452.867 248.981 454.019 251.413 454.019ZM251.413 447.331C250.549 447.267 249.637 446.787 249.637 445.939C249.637 445.187 250.357 444.627 251.413 444.627C252.469 444.627 253.205 445.187 253.205 445.939C253.205 446.755 252.277 447.267 251.413 447.331ZM251.413 452.035C250.245 452.035 249.397 451.459 249.397 450.627C249.397 449.763 250.469 449.219 251.413 449.187C252.357 449.219 253.445 449.763 253.445 450.627C253.445 451.459 252.581 452.035 251.413 452.035Z" fill="black"/>
<path d="M224.726 475.019C226.246 475.019 227.654 474.363 228.678 473.339L227.83 472.475C227.03 473.323 225.926 473.867 224.726 473.867C222.358 473.867 220.358 471.787 220.358 469.323C220.358 466.875 222.358 464.795 224.726 464.795C225.926 464.795 227.03 465.339 227.83 466.187L228.678 465.323C227.654 464.283 226.246 463.643 224.726 463.643C221.686 463.643 219.094 466.235 219.094 469.323C219.094 472.411 221.686 475.019 224.726 475.019ZM234.22 475.019C236.556 475.019 238.476 473.067 238.476 470.683C238.476 468.299 236.556 466.363 234.22 466.363C231.868 466.363 229.948 468.299 229.948 470.683C229.948 473.067 231.868 475.019 234.22 475.019ZM234.22 473.947C232.556 473.947 231.196 472.475 231.196 470.683C231.196 468.891 232.556 467.435 234.22 467.435C235.868 467.435 237.228 468.891 237.228 470.683C237.228 472.475 235.868 473.947 234.22 473.947ZM244.751 466.363C243.423 466.363 242.367 467.019 241.743 468.107V466.555H240.543V477.579H241.743V473.275C242.367 474.363 243.423 475.019 244.751 475.019C246.927 475.019 248.559 473.227 248.559 470.683C248.559 468.155 246.927 466.363 244.751 466.363ZM244.527 473.947C242.895 473.947 241.743 472.587 241.743 470.683C241.743 468.779 242.895 467.435 244.527 467.435C246.143 467.435 247.295 468.779 247.295 470.683C247.295 472.587 246.143 473.947 244.527 473.947ZM254.188 473.947C252.556 473.947 251.42 472.763 251.244 471.147H258.012C258.012 468.251 256.588 466.363 254.092 466.363C251.868 466.363 250.012 468.203 250.012 470.667C250.012 473.211 251.996 475.019 254.204 475.019C255.356 475.019 256.812 474.523 257.532 473.739L256.796 472.955C256.284 473.515 255.164 473.947 254.188 473.947ZM254.14 467.435C255.788 467.435 256.668 468.587 256.828 470.075H251.26C251.484 468.475 252.668 467.435 254.14 467.435ZM263.948 466.363C262.764 466.363 261.708 466.987 261.228 467.867V466.555H260.028V474.827H261.228V469.563C261.228 468.395 262.38 467.435 263.788 467.435C265.004 467.435 265.852 468.363 265.852 469.723V474.827H267.052V469.563C267.052 467.659 265.788 466.363 263.948 466.363ZM273.557 466.363C272.373 466.363 271.317 466.987 270.837 467.867V463.643H269.637V474.827H270.837V469.563C270.837 468.395 271.989 467.435 273.397 467.435C274.613 467.435 275.461 468.363 275.461 469.723V474.827H276.661V469.563C276.661 467.659 275.397 466.363 273.557 466.363ZM282.206 466.363C281.406 466.363 280.414 466.571 279.23 467.163L279.71 468.139C280.462 467.755 281.294 467.387 282.126 467.387C283.918 467.387 284.366 468.667 284.366 469.787V470.091C283.518 469.819 282.574 469.627 281.678 469.627C279.902 469.627 278.43 470.731 278.43 472.379C278.43 474.011 279.71 475.019 281.454 475.019C282.542 475.019 283.774 474.507 284.366 473.531V474.827H285.566V469.787C285.566 467.787 284.462 466.363 282.206 466.363ZM281.662 473.963C280.494 473.963 279.598 473.355 279.598 472.331C279.598 471.339 280.638 470.635 281.87 470.635C282.766 470.635 283.614 470.763 284.366 470.971V472.235C284.046 473.403 282.75 473.963 281.662 473.963ZM294.249 466.555V467.979C293.609 466.971 292.553 466.363 291.241 466.363C289.017 466.363 287.433 467.979 287.433 470.283C287.433 472.587 289.017 474.219 291.241 474.219C292.553 474.219 293.609 473.611 294.249 472.603V473.947C294.249 475.563 293.129 476.507 291.225 476.507C290.201 476.507 289.209 476.139 288.569 475.531L288.041 476.475C288.793 477.115 290.041 477.579 291.385 477.579C293.769 477.579 295.449 476.075 295.449 473.947V466.555H294.249ZM291.465 473.147C289.849 473.147 288.697 471.963 288.697 470.283C288.697 468.619 289.849 467.435 291.465 467.435C293.097 467.435 294.249 468.619 294.249 470.283C294.249 471.963 293.097 473.147 291.465 473.147ZM301.719 473.947C300.087 473.947 298.951 472.763 298.775 471.147H305.543C305.543 468.251 304.119 466.363 301.623 466.363C299.399 466.363 297.543 468.203 297.543 470.667C297.543 473.211 299.527 475.019 301.735 475.019C302.887 475.019 304.343 474.523 305.063 473.739L304.327 472.955C303.815 473.515 302.695 473.947 301.719 473.947ZM301.671 467.435C303.319 467.435 304.199 468.587 304.359 470.075H298.791C299.015 468.475 300.199 467.435 301.671 467.435ZM311.479 466.363C310.295 466.363 309.239 466.987 308.759 467.867V466.555H307.559V474.827H308.759V469.563C308.759 468.395 309.911 467.435 311.319 467.435C312.535 467.435 313.383 468.363 313.383 469.723V474.827H314.583V469.563C314.583 467.659 313.319 466.363 311.479 466.363Z" fill="#747474"/>
<path d="M342.054 453.827H350.358V451.699H345.702L347.702 450.147C349.622 448.755 350.262 447.619 350.262 446.147C350.262 444.083 348.566 442.643 346.23 442.643C344.454 442.643 343.062 443.411 341.974 444.787L343.478 446.243C344.278 445.331 345.094 444.787 346.166 444.787C347.062 444.787 347.83 445.331 347.83 446.243C347.83 447.011 347.414 447.731 346.102 448.771L342.054 451.907V453.827ZM356.892 454.019C359.788 454.019 361.82 451.667 361.82 448.323C361.82 444.995 359.788 442.643 356.892 442.643C353.996 442.643 351.948 444.995 351.948 448.323C351.948 451.667 353.996 454.019 356.892 454.019ZM356.892 451.875C355.42 451.875 354.38 450.387 354.38 448.323C354.38 446.259 355.42 444.787 356.892 444.787C358.364 444.787 359.404 446.259 359.404 448.323C359.404 450.387 358.364 451.875 356.892 451.875ZM365.77 453.827H368.122V442.835H366.234L362.938 445.043L363.898 446.707L365.77 445.539V453.827ZM374.325 442.643C371.925 442.643 370.117 444.195 370.117 446.451C370.117 448.627 371.797 449.939 373.829 449.939C374.869 449.939 375.877 449.539 376.549 448.883C376.341 450.739 375.381 451.939 373.941 451.939C373.013 451.939 372.373 451.603 371.701 451.043L370.581 452.835C371.477 453.555 372.581 454.019 373.941 454.019C376.997 454.019 378.997 451.571 378.997 448.147C378.997 444.947 377.525 442.643 374.325 442.643ZM374.517 448.019C373.445 448.019 372.549 447.395 372.549 446.339C372.549 445.459 373.285 444.643 374.453 444.643C375.685 444.643 376.277 445.395 376.485 446.739C376.149 447.523 375.413 448.019 374.517 448.019Z" fill="black"/>
<path d="M343.142 474.827H348.374C350.278 474.827 351.638 473.579 351.638 471.819C351.638 470.619 350.902 469.627 349.638 468.987C350.63 468.411 351.206 467.739 351.206 466.571C351.206 464.971 349.958 463.835 348.182 463.835H343.142V474.827ZM344.39 468.491V464.971H347.862C349.078 464.971 349.942 465.707 349.942 466.731C349.942 467.755 349.078 468.491 347.862 468.491H344.39ZM344.39 473.691V469.627H348.054C349.414 469.627 350.374 470.475 350.374 471.659C350.374 472.843 349.414 473.691 348.054 473.691H344.39ZM357 466.363C356.2 466.363 355.208 466.571 354.024 467.163L354.504 468.139C355.256 467.755 356.088 467.387 356.92 467.387C358.712 467.387 359.16 468.667 359.16 469.787V470.091C358.312 469.819 357.368 469.627 356.472 469.627C354.696 469.627 353.224 470.731 353.224 472.379C353.224 474.011 354.504 475.019 356.248 475.019C357.336 475.019 358.568 474.507 359.16 473.531V474.827H360.36V469.787C360.36 467.787 359.256 466.363 357 466.363ZM356.456 473.963C355.288 473.963 354.392 473.355 354.392 472.331C354.392 471.339 355.432 470.635 356.664 470.635C357.56 470.635 358.408 470.763 359.16 470.971V472.235C358.84 473.403 357.544 473.963 356.456 473.963ZM364.147 468.171V466.555H362.947V474.827H364.147V470.203C364.147 468.587 365.475 467.435 367.347 467.435V466.363C365.827 466.363 364.643 467.067 364.147 468.171ZM372.842 475.019C373.994 475.019 375.05 474.539 375.834 473.755L375.002 472.939C374.442 473.563 373.674 473.947 372.842 473.947C371.194 473.947 369.818 472.459 369.818 470.683C369.818 468.923 371.194 467.435 372.842 467.435C373.658 467.435 374.41 467.803 374.954 468.395L375.786 467.579C375.002 466.827 373.962 466.363 372.842 466.363C370.522 466.363 368.554 468.331 368.554 470.683C368.554 473.035 370.522 475.019 372.842 475.019ZM381.075 473.947C379.443 473.947 378.307 472.763 378.131 471.147H384.899C384.899 468.251 383.475 466.363 380.979 466.363C378.755 466.363 376.899 468.203 376.899 470.667C376.899 473.211 378.883 475.019 381.091 475.019C382.243 475.019 383.699 474.523 384.419 473.739L383.683 472.955C383.171 473.515 382.051 473.947 381.075 473.947ZM381.027 467.435C382.675 467.435 383.555 468.587 383.715 470.075H378.147C378.371 468.475 379.555 467.435 381.027 467.435ZM386.915 474.827H388.115V463.643H386.915V474.827ZM394.452 475.019C396.788 475.019 398.708 473.067 398.708 470.683C398.708 468.299 396.788 466.363 394.452 466.363C392.1 466.363 390.18 468.299 390.18 470.683C390.18 473.067 392.1 475.019 394.452 475.019ZM394.452 473.947C392.788 473.947 391.428 472.475 391.428 470.683C391.428 468.891 392.788 467.435 394.452 467.435C396.1 467.435 397.46 468.891 397.46 470.683C397.46 472.475 396.1 473.947 394.452 473.947ZM404.695 466.363C403.511 466.363 402.455 466.987 401.975 467.867V466.555H400.775V474.827H401.975V469.563C401.975 468.395 403.127 467.435 404.535 467.435C405.751 467.435 406.599 468.363 406.599 469.723V474.827H407.799V469.563C407.799 467.659 406.535 466.363 404.695 466.363ZM413.344 466.363C412.544 466.363 411.552 466.571 410.368 467.163L410.848 468.139C411.6 467.755 412.432 467.387 413.264 467.387C415.056 467.387 415.504 468.667 415.504 469.787V470.091C414.656 469.819 413.712 469.627 412.816 469.627C411.04 469.627 409.568 470.731 409.568 472.379C409.568 474.011 410.848 475.019 412.592 475.019C413.68 475.019 414.912 474.507 415.504 473.531V474.827H416.704V469.787C416.704 467.787 415.6 466.363 413.344 466.363ZM412.8 473.963C411.632 473.963 410.736 473.355 410.736 472.331C410.736 471.339 411.776 470.635 413.008 470.635C413.904 470.635 414.752 470.763 415.504 470.971V472.235C415.184 473.403 413.888 473.963 412.8 473.963Z" fill="#747474"/>
<path d="M460.255 453.827H468.559V451.699H463.903L465.903 450.147C467.823 448.755 468.463 447.619 468.463 446.147C468.463 444.083 466.767 442.643 464.431 442.643C462.655 442.643 461.263 443.411 460.175 444.787L461.679 446.243C462.479 445.331 463.295 444.787 464.367 444.787C465.263 444.787 466.031 445.331 466.031 446.243C466.031 447.011 465.615 447.731 464.303 448.771L460.255 451.907V453.827ZM475.092 454.019C477.988 454.019 480.02 451.667 480.02 448.323C480.02 444.995 477.988 442.643 475.092 442.643C472.196 442.643 470.148 444.995 470.148 448.323C470.148 451.667 472.196 454.019 475.092 454.019ZM475.092 451.875C473.62 451.875 472.58 450.387 472.58 448.323C472.58 446.259 473.62 444.787 475.092 444.787C476.564 444.787 477.604 446.259 477.604 448.323C477.604 450.387 476.564 451.875 475.092 451.875ZM481.442 453.827H489.746V451.699H485.09L487.09 450.147C489.01 448.755 489.65 447.619 489.65 446.147C489.65 444.083 487.954 442.643 485.618 442.643C483.842 442.643 482.45 443.411 481.362 444.787L482.866 446.243C483.666 445.331 484.482 444.787 485.554 444.787C486.45 444.787 487.218 445.331 487.218 446.243C487.218 447.011 486.802 447.731 485.49 448.771L481.442 451.907V453.827ZM496.279 454.019C499.175 454.019 501.207 451.667 501.207 448.323C501.207 444.995 499.175 442.643 496.279 442.643C493.383 442.643 491.335 444.995 491.335 448.323C491.335 451.667 493.383 454.019 496.279 454.019ZM496.279 451.875C494.807 451.875 493.767 450.387 493.767 448.323C493.767 446.259 494.807 444.787 496.279 444.787C497.751 444.787 498.791 446.259 498.791 448.323C498.791 450.387 497.751 451.875 496.279 451.875Z" fill="black"/>
<path d="M469.695 463.835L465.535 473.291L461.359 463.835H459.999L464.847 474.827H466.207L471.055 463.835H469.695ZM473.458 465.051C473.89 465.051 474.242 464.683 474.242 464.251C474.242 463.835 473.89 463.467 473.458 463.467C473.01 463.467 472.658 463.835 472.658 464.251C472.658 464.683 473.01 465.051 473.458 465.051ZM472.85 474.827H474.05V466.555H472.85V474.827ZM478.034 468.171V466.555H476.834V474.827H478.034V470.203C478.034 468.587 479.362 467.435 481.234 467.435V466.363C479.714 466.363 478.53 467.067 478.034 468.171ZM486.378 473.611C486.202 473.803 485.882 473.947 485.514 473.947C485.034 473.947 484.618 473.515 484.618 472.907V467.627H486.65V466.555H484.618V464.283H483.418V466.555H482.122V467.627H483.418V472.907C483.418 474.139 484.25 475.019 485.434 475.019C485.994 475.019 486.538 474.827 486.97 474.491L486.378 473.611ZM494.326 466.555V471.819C494.326 472.987 493.174 473.947 491.766 473.947C490.55 473.947 489.702 473.019 489.702 471.659V466.555H488.502V471.819C488.502 473.723 489.766 475.019 491.606 475.019C492.79 475.019 493.846 474.395 494.326 473.515V474.827H495.526V466.555H494.326ZM501.263 466.363C500.463 466.363 499.471 466.571 498.287 467.163L498.767 468.139C499.519 467.755 500.351 467.387 501.183 467.387C502.975 467.387 503.423 468.667 503.423 469.787V470.091C502.575 469.819 501.631 469.627 500.735 469.627C498.959 469.627 497.487 470.731 497.487 472.379C497.487 474.011 498.767 475.019 500.511 475.019C501.599 475.019 502.831 474.507 503.423 473.531V474.827H504.623V469.787C504.623 467.787 503.519 466.363 501.263 466.363ZM500.719 473.963C499.551 473.963 498.655 473.355 498.655 472.331C498.655 471.339 499.695 470.635 500.927 470.635C501.823 470.635 502.671 470.763 503.423 470.971V472.235C503.103 473.403 501.807 473.963 500.719 473.963ZM507.209 474.827H508.409V463.643H507.209V474.827Z" fill="#747474"/>
<path d="M577.455 453.827H585.759V451.699H581.103L583.103 450.147C585.023 448.755 585.663 447.619 585.663 446.147C585.663 444.083 583.967 442.643 581.631 442.643C579.855 442.643 578.463 443.411 577.375 444.787L578.879 446.243C579.679 445.331 580.495 444.787 581.567 444.787C582.463 444.787 583.231 445.331 583.231 446.243C583.231 447.011 582.815 447.731 581.503 448.771L577.455 451.907V453.827ZM592.292 454.019C595.188 454.019 597.22 451.667 597.22 448.323C597.22 444.995 595.188 442.643 592.292 442.643C589.396 442.643 587.348 444.995 587.348 448.323C587.348 451.667 589.396 454.019 592.292 454.019ZM592.292 451.875C590.82 451.875 589.78 450.387 589.78 448.323C589.78 446.259 590.82 444.787 592.292 444.787C593.764 444.787 594.804 446.259 594.804 448.323C594.804 450.387 593.764 451.875 592.292 451.875ZM598.642 453.827H606.946V451.699H602.29L604.29 450.147C606.21 448.755 606.85 447.619 606.85 446.147C606.85 444.083 605.154 442.643 602.818 442.643C601.042 442.643 599.65 443.411 598.562 444.787L600.066 446.243C600.866 445.331 601.682 444.787 602.754 444.787C603.65 444.787 604.418 445.331 604.418 446.243C604.418 447.011 604.002 447.731 602.69 448.771L598.642 451.907V453.827ZM610.952 453.827H613.304V442.835H611.416L608.12 445.043L609.08 446.707L610.952 445.539V453.827Z" fill="black"/>
<path d="M586.895 463.835L582.735 473.291L578.559 463.835H577.199L582.047 474.827H583.407L588.255 463.835H586.895ZM590.658 465.051C591.09 465.051 591.442 464.683 591.442 464.251C591.442 463.835 591.09 463.467 590.658 463.467C590.21 463.467 589.858 463.835 589.858 464.251C589.858 464.683 590.21 465.051 590.658 465.051ZM590.05 474.827H591.25V466.555H590.05V474.827ZM595.235 468.171V466.555H594.035V474.827H595.235V470.203C595.235 468.587 596.563 467.435 598.435 467.435V466.363C596.915 466.363 595.731 467.067 595.235 468.171ZM603.578 473.611C603.402 473.803 603.082 473.947 602.714 473.947C602.234 473.947 601.818 473.515 601.818 472.907V467.627H603.85V466.555H601.818V464.283H600.618V466.555H599.322V467.627H600.618V472.907C600.618 474.139 601.45 475.019 602.634 475.019C603.194 475.019 603.738 474.827 604.17 474.491L603.578 473.611ZM611.526 466.555V471.819C611.526 472.987 610.374 473.947 608.966 473.947C607.75 473.947 606.902 473.019 606.902 471.659V466.555H605.702V471.819C605.702 473.723 606.966 475.019 608.806 475.019C609.99 475.019 611.046 474.395 611.526 473.515V474.827H612.726V466.555H611.526ZM618.463 466.363C617.663 466.363 616.671 466.571 615.487 467.163L615.967 468.139C616.719 467.755 617.551 467.387 618.383 467.387C620.175 467.387 620.623 468.667 620.623 469.787V470.091C619.775 469.819 618.831 469.627 617.935 469.627C616.159 469.627 614.687 470.731 614.687 472.379C614.687 474.011 615.967 475.019 617.711 475.019C618.799 475.019 620.031 474.507 620.623 473.531V474.827H621.823V469.787C621.823 467.787 620.719 466.363 618.463 466.363ZM617.919 473.963C616.751 473.963 615.855 473.355 615.855 472.331C615.855 471.339 616.895 470.635 618.127 470.635C619.023 470.635 619.871 470.763 620.623 470.971V472.235C620.303 473.403 619.007 473.963 617.919 473.963ZM624.41 474.827H625.61V463.643H624.41V474.827Z" fill="#747474"/>
<path d="M689.655 453.827H697.959V451.699H693.303L695.303 450.147C697.223 448.755 697.863 447.619 697.863 446.147C697.863 444.083 696.167 442.643 693.831 442.643C692.055 442.643 690.663 443.411 689.575 444.787L691.079 446.243C691.879 445.331 692.695 444.787 693.767 444.787C694.663 444.787 695.431 445.331 695.431 446.243C695.431 447.011 695.015 447.731 693.703 448.771L689.655 451.907V453.827ZM704.492 454.019C707.388 454.019 709.42 451.667 709.42 448.323C709.42 444.995 707.388 442.643 704.492 442.643C701.596 442.643 699.548 444.995 699.548 448.323C699.548 451.667 701.596 454.019 704.492 454.019ZM704.492 451.875C703.02 451.875 701.98 450.387 701.98 448.323C701.98 446.259 703.02 444.787 704.492 444.787C705.964 444.787 707.004 446.259 707.004 448.323C707.004 450.387 705.964 451.875 704.492 451.875ZM710.843 453.827H719.147V451.699H714.491L716.491 450.147C718.411 448.755 719.051 447.619 719.051 446.147C719.051 444.083 717.355 442.643 715.019 442.643C713.243 442.643 711.851 443.411 710.763 444.787L712.267 446.243C713.067 445.331 713.883 444.787 714.955 444.787C715.851 444.787 716.619 445.331 716.619 446.243C716.619 447.011 716.203 447.731 714.891 448.771L710.843 451.907V453.827ZM720.624 453.827H728.928V451.699H724.272L726.272 450.147C728.192 448.755 728.832 447.619 728.832 446.147C728.832 444.083 727.136 442.643 724.8 442.643C723.024 442.643 721.632 443.411 720.544 444.787L722.048 446.243C722.848 445.331 723.664 444.787 724.736 444.787C725.632 444.787 726.4 445.331 726.4 446.243C726.4 447.011 725.984 447.731 724.672 448.771L720.624 451.907V453.827Z" fill="black"/>
<path d="M699.095 463.835L694.935 473.291L690.759 463.835H689.399L694.247 474.827H695.607L700.455 463.835H699.095ZM705.21 466.363C704.41 466.363 703.418 466.571 702.234 467.163L702.714 468.139C703.466 467.755 704.298 467.387 705.13 467.387C706.922 467.387 707.37 468.667 707.37 469.787V470.091C706.522 469.819 705.578 469.627 704.682 469.627C702.906 469.627 701.434 470.731 701.434 472.379C701.434 474.011 702.714 475.019 704.458 475.019C705.546 475.019 706.778 474.507 707.37 473.531V474.827H708.57V469.787C708.57 467.787 707.466 466.363 705.21 466.363ZM704.666 473.963C703.498 473.963 702.602 473.355 702.602 472.331C702.602 471.339 703.642 470.635 704.874 470.635C705.77 470.635 706.618 470.763 707.37 470.971V472.235C707.05 473.403 705.754 473.963 704.666 473.963ZM711.157 474.827H712.357V463.643H711.157V474.827ZM718.629 473.947C716.997 473.947 715.861 472.763 715.685 471.147H722.453C722.453 468.251 721.029 466.363 718.533 466.363C716.309 466.363 714.453 468.203 714.453 470.667C714.453 473.211 716.437 475.019 718.645 475.019C719.797 475.019 721.253 474.523 721.973 473.739L721.237 472.955C720.725 473.515 719.605 473.947 718.629 473.947ZM718.581 467.435C720.229 467.435 721.109 468.587 721.269 470.075H715.701C715.925 468.475 717.109 467.435 718.581 467.435ZM728.389 466.363C727.205 466.363 726.149 466.987 725.669 467.867V466.555H724.469V474.827H725.669V469.563C725.669 468.395 726.821 467.435 728.229 467.435C729.445 467.435 730.293 468.363 730.293 469.723V474.827H731.493V469.563C731.493 467.659 730.229 466.363 728.389 466.363ZM737.631 475.019C738.783 475.019 739.839 474.539 740.623 473.755L739.791 472.939C739.231 473.563 738.463 473.947 737.631 473.947C735.983 473.947 734.607 472.459 734.607 470.683C734.607 468.923 735.983 467.435 737.631 467.435C738.447 467.435 739.199 467.803 739.743 468.395L740.575 467.579C739.791 466.827 738.751 466.363 737.631 466.363C735.311 466.363 733.343 468.331 733.343 470.683C733.343 473.035 735.311 475.019 737.631 475.019ZM742.983 465.051C743.415 465.051 743.767 464.683 743.767 464.251C743.767 463.835 743.415 463.467 742.983 463.467C742.535 463.467 742.183 463.835 742.183 464.251C742.183 464.683 742.535 465.051 742.983 465.051ZM742.375 474.827H743.575V466.555H742.375V474.827ZM749.32 466.363C748.52 466.363 747.528 466.571 746.344 467.163L746.824 468.139C747.576 467.755 748.408 467.387 749.24 467.387C751.032 467.387 751.48 468.667 751.48 469.787V470.091C750.632 469.819 749.688 469.627 748.792 469.627C747.016 469.627 745.544 470.731 745.544 472.379C745.544 474.011 746.824 475.019 748.568 475.019C749.656 475.019 750.888 474.507 751.48 473.531V474.827H752.68V469.787C752.68 467.787 751.576 466.363 749.32 466.363ZM748.776 473.963C747.608 473.963 746.712 473.355 746.712 472.331C746.712 471.339 747.752 470.635 748.984 470.635C749.88 470.635 750.728 470.763 751.48 470.971V472.235C751.16 473.403 749.864 473.963 748.776 473.963Z" fill="#747474"/>
<rect x="225" y="342" width="31.5732" height="17" fill="#FDFDFD"/>
<path d="M2.57551 164.562H10.3995V163.058H5.13551L7.71151 160.882C9.59951 159.346 10.3035 158.178 10.3035 156.706C10.3035 154.706 8.67151 153.378 6.62351 153.378C4.87951 153.378 3.58351 154.178 2.62351 155.506L3.71151 156.466C4.47951 155.474 5.35951 154.834 6.55951 154.834C7.64751 154.834 8.63951 155.538 8.63951 156.738C8.63951 157.73 8.07951 158.674 6.60751 159.906L2.57551 163.234V164.562ZM16.8808 164.755C19.6168 164.755 21.5528 162.402 21.5528 159.058C21.5528 155.73 19.6168 153.378 16.8808 153.378C14.1128 153.378 12.1768 155.73 12.1768 159.058C12.1768 162.402 14.1128 164.755 16.8808 164.755ZM16.8808 163.266C15.0888 163.266 13.8248 161.522 13.8248 159.058C13.8248 156.594 15.0888 154.866 16.8808 154.866C18.6568 154.866 19.9048 156.594 19.9048 159.058C19.9048 161.522 18.6568 163.266 16.8808 163.266ZM24.7406 166.755C25.7646 165.587 26.1326 164.899 26.1326 164.146C26.1326 163.266 25.6686 162.626 24.9646 162.626C24.3566 162.626 23.9086 163.122 23.9086 163.682C23.9086 164.274 24.3726 164.755 24.9486 164.755C24.8206 165.251 24.5166 165.763 24.0686 166.243L24.7406 166.755ZM33.1464 164.755C35.8824 164.755 37.8184 162.402 37.8184 159.058C37.8184 155.73 35.8824 153.378 33.1464 153.378C30.3784 153.378 28.4424 155.73 28.4424 159.058C28.4424 162.402 30.3784 164.755 33.1464 164.755ZM33.1464 163.266C31.3544 163.266 30.0904 161.522 30.0904 159.058C30.0904 156.594 31.3544 154.866 33.1464 154.866C34.9224 154.866 36.1704 156.594 36.1704 159.058C36.1704 161.522 34.9224 163.266 33.1464 163.266ZM44.3183 164.755C47.0543 164.755 48.9903 162.402 48.9903 159.058C48.9903 155.73 47.0543 153.378 44.3183 153.378C41.5503 153.378 39.6143 155.73 39.6143 159.058C39.6143 162.402 41.5503 164.755 44.3183 164.755ZM44.3183 163.266C42.5263 163.266 41.2623 161.522 41.2623 159.058C41.2623 156.594 42.5263 154.866 44.3183 154.866C46.0943 154.866 47.3423 156.594 47.3423 159.058C47.3423 161.522 46.0943 163.266 44.3183 163.266ZM55.4901 164.755C58.2261 164.755 60.1621 162.402 60.1621 159.058C60.1621 155.73 58.2261 153.378 55.4901 153.378C52.7221 153.378 50.7861 155.73 50.7861 159.058C50.7861 162.402 52.7221 164.755 55.4901 164.755ZM55.4901 163.266C53.6981 163.266 52.4341 161.522 52.4341 159.058C52.4341 156.594 53.6981 154.866 55.4901 154.866C57.2661 154.866 58.5141 156.594 58.5141 159.058C58.5141 161.522 57.2661 163.266 55.4901 163.266Z" fill="black"/>
<path d="M5.91005 233.061H7.52605V222.069H6.23005L3.33405 224.037L4.00605 225.205L5.91005 223.989V233.061ZM13.8918 233.253C16.2598 233.253 17.9398 231.797 17.9398 229.573C17.9398 227.381 16.2918 226.133 14.3078 226.133C13.3478 226.133 12.6118 226.453 12.0358 226.837L12.1318 223.573H17.3478V222.069H10.5958L10.4358 227.813L11.5718 228.325C12.2278 227.829 12.9958 227.525 13.9078 227.525C15.3318 227.525 16.3238 228.373 16.3238 229.637C16.3238 230.869 15.3478 231.829 13.9238 231.829C12.7558 231.829 11.7318 231.253 10.8998 230.373L9.8918 231.525C10.8198 232.549 12.1478 233.253 13.8918 233.253ZM21.0204 235.253C22.0444 234.085 22.4124 233.397 22.4124 232.645C22.4124 231.765 21.9484 231.125 21.2444 231.125C20.6364 231.125 20.1884 231.621 20.1884 232.181C20.1884 232.773 20.6524 233.253 21.2284 233.253C21.1004 233.749 20.7964 234.261 20.3484 234.741L21.0204 235.253ZM29.4262 233.253C32.1622 233.253 34.0982 230.901 34.0982 227.557C34.0982 224.229 32.1622 221.877 29.4262 221.877C26.6582 221.877 24.7222 224.229 24.7222 227.557C24.7222 230.901 26.6582 233.253 29.4262 233.253ZM29.4262 231.765C27.6342 231.765 26.3702 230.021 26.3702 227.557C26.3702 225.093 27.6342 223.365 29.4262 223.365C31.2022 223.365 32.4502 225.093 32.4502 227.557C32.4502 230.021 31.2022 231.765 29.4262 231.765ZM40.598 233.253C43.334 233.253 45.27 230.901 45.27 227.557C45.27 224.229 43.334 221.877 40.598 221.877C37.83 221.877 35.894 224.229 35.894 227.557C35.894 230.901 37.83 233.253 40.598 233.253ZM40.598 231.765C38.806 231.765 37.542 230.021 37.542 227.557C37.542 225.093 38.806 223.365 40.598 223.365C42.374 223.365 43.622 225.093 43.622 227.557C43.622 230.021 42.374 231.765 40.598 231.765ZM51.7699 233.253C54.5059 233.253 56.4419 230.901 56.4419 227.557C56.4419 224.229 54.5059 221.877 51.7699 221.877C49.0019 221.877 47.0659 224.229 47.0659 227.557C47.0659 230.901 49.0019 233.253 51.7699 233.253ZM51.7699 231.765C49.9779 231.765 48.7139 230.021 48.7139 227.557C48.7139 225.093 49.9779 223.365 51.7699 223.365C53.5459 223.365 54.7939 225.093 54.7939 227.557C54.7939 230.021 53.5459 231.765 51.7699 231.765Z" fill="black"/>
<path d="M5.91005 306.142H7.52605V295.15H6.23005L3.33405 297.118L4.00605 298.286L5.91005 297.07V306.142ZM14.6918 306.334C17.4278 306.334 19.3638 303.982 19.3638 300.638C19.3638 297.31 17.4278 294.958 14.6918 294.958C11.9238 294.958 9.9878 297.31 9.9878 300.638C9.9878 303.982 11.9238 306.334 14.6918 306.334ZM14.6918 304.846C12.8998 304.846 11.6358 303.102 11.6358 300.638C11.6358 298.174 12.8998 296.446 14.6918 296.446C16.4678 296.446 17.7158 298.174 17.7158 300.638C17.7158 303.102 16.4678 304.846 14.6918 304.846ZM22.5517 308.334C23.5757 307.166 23.9437 306.478 23.9437 305.726C23.9437 304.846 23.4797 304.206 22.7757 304.206C22.1677 304.206 21.7197 304.702 21.7197 305.262C21.7197 305.854 22.1837 306.334 22.7597 306.334C22.6317 306.83 22.3277 307.342 21.8797 307.822L22.5517 308.334ZM30.9574 306.334C33.6934 306.334 35.6294 303.982 35.6294 300.638C35.6294 297.31 33.6934 294.958 30.9574 294.958C28.1894 294.958 26.2534 297.31 26.2534 300.638C26.2534 303.982 28.1894 306.334 30.9574 306.334ZM30.9574 304.846C29.1654 304.846 27.9014 303.102 27.9014 300.638C27.9014 298.174 29.1654 296.446 30.9574 296.446C32.7334 296.446 33.9814 298.174 33.9814 300.638C33.9814 303.102 32.7334 304.846 30.9574 304.846ZM42.1293 306.334C44.8653 306.334 46.8013 303.982 46.8013 300.638C46.8013 297.31 44.8653 294.958 42.1293 294.958C39.3613 294.958 37.4253 297.31 37.4253 300.638C37.4253 303.982 39.3613 306.334 42.1293 306.334ZM42.1293 304.846C40.3373 304.846 39.0733 303.102 39.0733 300.638C39.0733 298.174 40.3373 296.446 42.1293 296.446C43.9053 296.446 45.1533 298.174 45.1533 300.638C45.1533 303.102 43.9053 304.846 42.1293 304.846ZM53.3012 306.334C56.0372 306.334 57.9732 303.982 57.9732 300.638C57.9732 297.31 56.0372 294.958 53.3012 294.958C50.5332 294.958 48.5972 297.31 48.5972 300.638C48.5972 303.982 50.5332 306.334 53.3012 306.334ZM53.3012 304.846C51.5092 304.846 50.2452 303.102 50.2452 300.638C50.2452 298.174 51.5092 296.446 53.3012 296.446C55.0772 296.446 56.3252 298.174 56.3252 300.638C56.3252 303.102 55.0772 304.846 53.3012 304.846Z" fill="black"/>
<path d="M7.79805 371.374C10.166 371.374 11.846 369.918 11.846 367.694C11.846 365.502 10.198 364.254 8.21405 364.254C7.25405 364.254 6.51805 364.574 5.94205 364.958L6.03805 361.694H11.254V360.19H4.50205L4.34205 365.934L5.47805 366.446C6.13405 365.95 6.90205 365.646 7.81405 365.646C9.23805 365.646 10.23 366.494 10.23 367.758C10.23 368.99 9.25405 369.95 7.83005 369.95C6.66205 369.95 5.63805 369.374 4.80605 368.494L3.79805 369.646C4.72605 370.67 6.05405 371.374 7.79805 371.374ZM14.9267 373.374C15.9507 372.206 16.3187 371.518 16.3187 370.766C16.3187 369.886 15.8547 369.246 15.1507 369.246C14.5427 369.246 14.0947 369.742 14.0947 370.302C14.0947 370.894 14.5587 371.374 15.1347 371.374C15.0067 371.87 14.7027 372.382 14.2547 372.862L14.9267 373.374ZM23.3324 371.374C26.0684 371.374 28.0044 369.022 28.0044 365.678C28.0044 362.35 26.0684 359.998 23.3324 359.998C20.5644 359.998 18.6284 362.35 18.6284 365.678C18.6284 369.022 20.5644 371.374 23.3324 371.374ZM23.3324 369.886C21.5404 369.886 20.2764 368.142 20.2764 365.678C20.2764 363.214 21.5404 361.486 23.3324 361.486C25.1084 361.486 26.3564 363.214 26.3564 365.678C26.3564 368.142 25.1084 369.886 23.3324 369.886ZM34.5043 371.374C37.2403 371.374 39.1763 369.022 39.1763 365.678C39.1763 362.35 37.2403 359.998 34.5043 359.998C31.7363 359.998 29.8003 362.35 29.8003 365.678C29.8003 369.022 31.7363 371.374 34.5043 371.374ZM34.5043 369.886C32.7123 369.886 31.4483 368.142 31.4483 365.678C31.4483 363.214 32.7123 361.486 34.5043 361.486C36.2803 361.486 37.5283 363.214 37.5283 365.678C37.5283 368.142 36.2803 369.886 34.5043 369.886ZM45.6762 371.374C48.4122 371.374 50.3482 369.022 50.3482 365.678C50.3482 362.35 48.4122 359.998 45.6762 359.998C42.9082 359.998 40.9722 362.35 40.9722 365.678C40.9722 369.022 42.9082 371.374 45.6762 371.374ZM45.6762 369.886C43.8842 369.886 42.6202 368.142 42.6202 365.678C42.6202 363.214 43.8842 361.486 45.6762 361.486C47.4522 361.486 48.7002 363.214 48.7002 365.678C48.7002 368.142 47.4522 369.886 45.6762 369.886Z" fill="black"/>
<path d="M113.395 386.916H114.304V380.733H113.575L111.946 381.84L112.324 382.497L113.395 381.813V386.916ZM116.472 388.149C117.048 387.492 117.255 387.105 117.255 386.682C117.255 386.187 116.994 385.827 116.598 385.827C116.256 385.827 116.004 386.106 116.004 386.421C116.004 386.754 116.265 387.024 116.589 387.024C116.517 387.303 116.346 387.591 116.094 387.861L116.472 388.149ZM120.75 387.024C122.082 387.024 123.027 386.205 123.027 384.954C123.027 383.721 122.1 383.019 120.984 383.019C120.444 383.019 120.03 383.199 119.706 383.415L119.76 381.579H122.694V380.733H118.896L118.806 383.964L119.445 384.252C119.814 383.973 120.246 383.802 120.759 383.802C121.56 383.802 122.118 384.279 122.118 384.99C122.118 385.683 121.569 386.223 120.768 386.223C120.111 386.223 119.535 385.899 119.067 385.404L118.5 386.052C119.022 386.628 119.769 387.024 120.75 387.024ZM126.065 387.024C127.406 387.024 128.288 386.268 128.288 385.224C128.288 384.36 127.613 383.892 126.974 383.748C127.622 383.55 128.153 383.073 128.153 382.308C128.153 381.318 127.289 380.625 126.038 380.625C125.03 380.625 124.328 381.093 123.851 381.714L124.418 382.272C124.85 381.768 125.327 381.444 125.975 381.444C126.695 381.444 127.235 381.858 127.235 382.434C127.235 383.055 126.686 383.397 125.903 383.397L125.228 383.388V384.198H125.903C126.821 384.189 127.361 384.522 127.361 385.161C127.361 385.782 126.848 386.205 126.047 386.205C125.336 386.205 124.733 385.872 124.319 385.368L123.734 385.971C124.211 386.565 125.012 387.024 126.065 387.024ZM131.516 387.024C132.848 387.024 133.793 386.205 133.793 384.954C133.793 383.721 132.866 383.019 131.75 383.019C131.21 383.019 130.796 383.199 130.472 383.415L130.526 381.579H133.46V380.733H129.662L129.572 383.964L130.211 384.252C130.58 383.973 131.012 383.802 131.525 383.802C132.326 383.802 132.884 384.279 132.884 384.99C132.884 385.683 132.335 386.223 131.534 386.223C130.877 386.223 130.301 385.899 129.833 385.404L129.266 386.052C129.788 386.628 130.535 387.024 131.516 387.024Z" fill="black"/>
<path d="M231.815 351.063H232.724V349.641H233.615V348.84H232.724V344.88H231.644L228.647 348.912L228.746 349.641H231.815V351.063ZM229.646 348.84L231.815 345.915V348.84H229.646ZM235.157 352.296C235.733 351.639 235.94 351.252 235.94 350.829C235.94 350.334 235.679 349.974 235.283 349.974C234.941 349.974 234.689 350.253 234.689 350.568C234.689 350.901 234.95 351.171 235.274 351.171C235.202 351.45 235.031 351.738 234.779 352.008L235.157 352.296ZM239.327 351.171C240.668 351.171 241.55 350.415 241.55 349.371C241.55 348.507 240.875 348.039 240.236 347.895C240.884 347.697 241.415 347.22 241.415 346.455C241.415 345.465 240.551 344.772 239.3 344.772C238.292 344.772 237.59 345.24 237.113 345.861L237.68 346.419C238.112 345.915 238.589 345.591 239.237 345.591C239.957 345.591 240.497 346.005 240.497 346.581C240.497 347.202 239.948 347.544 239.165 347.544L238.49 347.535V348.345H239.165C240.083 348.336 240.623 348.669 240.623 349.308C240.623 349.929 240.11 350.352 239.309 350.352C238.598 350.352 237.995 350.019 237.581 349.515L236.996 350.118C237.473 350.712 238.274 351.171 239.327 351.171ZM245.229 351.171C246.768 351.171 247.857 349.848 247.857 347.967C247.857 346.095 246.768 344.772 245.229 344.772C243.672 344.772 242.583 346.095 242.583 347.967C242.583 349.848 243.672 351.171 245.229 351.171ZM245.229 350.334C244.221 350.334 243.51 349.353 243.51 347.967C243.51 346.581 244.221 345.609 245.229 345.609C246.228 345.609 246.93 346.581 246.93 347.967C246.93 349.353 246.228 350.334 245.229 350.334ZM251.513 351.171C253.052 351.171 254.141 349.848 254.141 347.967C254.141 346.095 253.052 344.772 251.513 344.772C249.956 344.772 248.867 346.095 248.867 347.967C248.867 349.848 249.956 351.171 251.513 351.171ZM251.513 350.334C250.505 350.334 249.794 349.353 249.794 347.967C249.794 346.581 250.505 345.609 251.513 345.609C252.512 345.609 253.214 346.581 253.214 347.967C253.214 349.353 252.512 350.334 251.513 350.334Z" fill="black"/>
<path d="M346.411 293.676H347.455L350.065 288.177V287.493H345.736V288.339H348.994L346.411 293.676ZM351.614 294.909C352.19 294.252 352.397 293.865 352.397 293.442C352.397 292.947 352.136 292.587 351.74 292.587C351.398 292.587 351.146 292.866 351.146 293.181C351.146 293.514 351.407 293.784 351.731 293.784C351.659 294.063 351.488 294.351 351.236 294.621L351.614 294.909ZM354.083 293.676H355.127L357.737 288.177V287.493H353.408V288.339H356.666L354.083 293.676ZM361.15 293.784C362.689 293.784 363.778 292.461 363.778 290.58C363.778 288.708 362.689 287.385 361.15 287.385C359.593 287.385 358.504 288.708 358.504 290.58C358.504 292.461 359.593 293.784 361.15 293.784ZM361.15 292.947C360.142 292.947 359.431 291.966 359.431 290.58C359.431 289.194 360.142 288.222 361.15 288.222C362.149 288.222 362.851 289.194 362.851 290.58C362.851 291.966 362.149 292.947 361.15 292.947ZM367.434 293.784C368.973 293.784 370.062 292.461 370.062 290.58C370.062 288.708 368.973 287.385 367.434 287.385C365.877 287.385 364.788 288.708 364.788 290.58C364.788 292.461 365.877 293.784 367.434 293.784ZM367.434 292.947C366.426 292.947 365.715 291.966 365.715 290.58C365.715 289.194 366.426 288.222 367.434 288.222C368.433 288.222 369.135 289.194 369.135 290.58C369.135 291.966 368.433 292.947 367.434 292.947Z" fill="black"/>
<path d="M463.471 150.56H464.38V144.377H463.651L462.022 145.484L462.4 146.141L463.471 145.457V150.56ZM468.087 150.668C469.383 150.668 470.418 150.002 470.418 148.931C470.418 148.175 469.851 147.626 469.113 147.365C469.743 147.122 470.265 146.663 470.265 145.925C470.265 144.899 469.239 144.269 468.087 144.269C466.971 144.269 465.918 144.872 465.918 145.925C465.918 146.627 466.395 147.095 467.07 147.365C466.332 147.617 465.756 148.166 465.756 148.931C465.756 149.993 466.782 150.668 468.087 150.668ZM468.087 147.023C467.538 146.987 466.827 146.663 466.827 146.024C466.827 145.475 467.376 145.07 468.087 145.07C468.798 145.07 469.356 145.475 469.356 146.024C469.356 146.645 468.654 146.987 468.087 147.023ZM468.087 149.867C467.295 149.867 466.674 149.453 466.674 148.85C466.674 148.193 467.484 147.797 468.087 147.779C468.699 147.797 469.5 148.193 469.5 148.85C469.5 149.453 468.879 149.867 468.087 149.867ZM472.208 151.793C472.784 151.136 472.991 150.749 472.991 150.326C472.991 149.831 472.73 149.471 472.334 149.471C471.992 149.471 471.74 149.75 471.74 150.065C471.74 150.398 472.001 150.668 472.325 150.668C472.253 150.947 472.082 151.235 471.83 151.505L472.208 151.793ZM476.918 146.654C476.243 146.654 475.622 146.951 475.244 147.464C475.28 146.105 475.982 145.088 476.918 145.088C477.485 145.088 477.881 145.331 478.259 145.682L478.727 144.98C478.259 144.557 477.692 144.269 476.927 144.269C475.424 144.269 474.317 145.691 474.317 147.563C474.317 149.327 475.037 150.668 476.756 150.668C478.061 150.668 478.997 149.777 478.997 148.589C478.997 147.365 478.052 146.654 476.918 146.654ZM476.729 149.894C475.91 149.894 475.469 149.3 475.316 148.409C475.487 147.815 476.027 147.419 476.711 147.419C477.458 147.419 478.07 147.878 478.07 148.634C478.07 149.255 477.566 149.894 476.729 149.894ZM482.246 150.668C483.542 150.668 484.577 150.002 484.577 148.931C484.577 148.175 484.01 147.626 483.272 147.365C483.902 147.122 484.424 146.663 484.424 145.925C484.424 144.899 483.398 144.269 482.246 144.269C481.13 144.269 480.077 144.872 480.077 145.925C480.077 146.627 480.554 147.095 481.229 147.365C480.491 147.617 479.915 148.166 479.915 148.931C479.915 149.993 480.941 150.668 482.246 150.668ZM482.246 147.023C481.697 146.987 480.986 146.663 480.986 146.024C480.986 145.475 481.535 145.07 482.246 145.07C482.957 145.07 483.515 145.475 483.515 146.024C483.515 146.645 482.813 146.987 482.246 147.023ZM482.246 149.867C481.454 149.867 480.833 149.453 480.833 148.85C480.833 148.193 481.643 147.797 482.246 147.779C482.858 147.797 483.659 148.193 483.659 148.85C483.659 149.453 483.038 149.867 482.246 149.867ZM485.404 150.56H489.805V149.714H486.844L488.293 148.49C489.355 147.626 489.751 146.969 489.751 146.141C489.751 145.016 488.833 144.269 487.681 144.269C486.7 144.269 485.971 144.719 485.431 145.466L486.043 146.006C486.475 145.448 486.97 145.088 487.645 145.088C488.257 145.088 488.815 145.484 488.815 146.159C488.815 146.717 488.5 147.248 487.672 147.941L485.404 149.813V150.56Z" fill="black"/>
<path d="M578.635 39.3418H583.036V38.4958H580.075L581.524 37.2718C582.586 36.4078 582.982 35.7508 582.982 34.9228C582.982 33.7978 582.064 33.0508 580.912 33.0508C579.931 33.0508 579.202 33.5008 578.662 34.2478L579.274 34.7878C579.706 34.2298 580.201 33.8698 580.876 33.8698C581.488 33.8698 582.046 34.2658 582.046 34.9408C582.046 35.4988 581.731 36.0298 580.903 36.7228L578.635 38.5948V39.3418ZM586.664 35.4358C585.989 35.4358 585.368 35.7328 584.99 36.2458C585.026 34.8868 585.728 33.8698 586.664 33.8698C587.231 33.8698 587.627 34.1128 588.005 34.4638L588.473 33.7618C588.005 33.3388 587.438 33.0508 586.673 33.0508C585.17 33.0508 584.063 34.4728 584.063 36.3448C584.063 38.1088 584.783 39.4498 586.502 39.4498C587.807 39.4498 588.743 38.5588 588.743 37.3708C588.743 36.1468 587.798 35.4358 586.664 35.4358ZM586.475 38.6758C585.656 38.6758 585.215 38.0818 585.062 37.1908C585.233 36.5968 585.773 36.2008 586.457 36.2008C587.204 36.2008 587.816 36.6598 587.816 37.4158C587.816 38.0368 587.312 38.6758 586.475 38.6758ZM590.453 40.5748C591.029 39.9178 591.236 39.5308 591.236 39.1078C591.236 38.6128 590.975 38.2528 590.579 38.2528C590.237 38.2528 589.985 38.5318 589.985 38.8468C589.985 39.1798 590.246 39.4498 590.57 39.4498C590.498 39.7288 590.327 40.0168 590.075 40.2868L590.453 40.5748ZM595.163 35.4358C594.488 35.4358 593.867 35.7328 593.489 36.2458C593.525 34.8868 594.227 33.8698 595.163 33.8698C595.73 33.8698 596.126 34.1128 596.504 34.4638L596.972 33.7618C596.504 33.3388 595.937 33.0508 595.172 33.0508C593.669 33.0508 592.562 34.4728 592.562 36.3448C592.562 38.1088 593.282 39.4498 595.001 39.4498C596.306 39.4498 597.242 38.5588 597.242 37.3708C597.242 36.1468 596.297 35.4358 595.163 35.4358ZM594.974 38.6758C594.155 38.6758 593.714 38.0818 593.561 37.1908C593.732 36.5968 594.272 36.2008 594.956 36.2008C595.703 36.2008 596.315 36.6598 596.315 37.4158C596.315 38.0368 595.811 38.6758 594.974 38.6758ZM601.085 39.3418H601.994V37.9198H602.885V37.1188H601.994V33.1588H600.914L597.917 37.1908L598.016 37.9198H601.085V39.3418ZM598.916 37.1188L601.085 34.1938V37.1188H598.916ZM605.966 39.4498C607.262 39.4498 608.297 38.7838 608.297 37.7128C608.297 36.9568 607.73 36.4078 606.992 36.1468C607.622 35.9038 608.144 35.4448 608.144 34.7068C608.144 33.6808 607.118 33.0508 605.966 33.0508C604.85 33.0508 603.797 33.6538 603.797 34.7068C603.797 35.4088 604.274 35.8768 604.949 36.1468C604.211 36.3988 603.635 36.9478 603.635 37.7128C603.635 38.7748 604.661 39.4498 605.966 39.4498ZM605.966 35.8048C605.417 35.7688 604.706 35.4448 604.706 34.8058C604.706 34.2568 605.255 33.8518 605.966 33.8518C606.677 33.8518 607.235 34.2568 607.235 34.8058C607.235 35.4268 606.533 35.7688 605.966 35.8048ZM605.966 38.6488C605.174 38.6488 604.553 38.2348 604.553 37.6318C604.553 36.9748 605.363 36.5788 605.966 36.5608C606.578 36.5788 607.379 36.9748 607.379 37.6318C607.379 38.2348 606.758 38.6488 605.966 38.6488Z" fill="black"/>
<path d="M695.657 154.404H696.566V148.221H695.837L694.208 149.328L694.586 149.985L695.657 149.301V154.404ZM700.273 154.512C701.569 154.512 702.604 153.846 702.604 152.775C702.604 152.019 702.037 151.47 701.299 151.209C701.929 150.966 702.451 150.507 702.451 149.769C702.451 148.743 701.425 148.113 700.273 148.113C699.157 148.113 698.104 148.716 698.104 149.769C698.104 150.471 698.581 150.939 699.256 151.209C698.518 151.461 697.942 152.01 697.942 152.775C697.942 153.837 698.968 154.512 700.273 154.512ZM700.273 150.867C699.724 150.831 699.013 150.507 699.013 149.868C699.013 149.319 699.562 148.914 700.273 148.914C700.984 148.914 701.542 149.319 701.542 149.868C701.542 150.489 700.84 150.831 700.273 150.867ZM700.273 153.711C699.481 153.711 698.86 153.297 698.86 152.694C698.86 152.037 699.67 151.641 700.273 151.623C700.885 151.641 701.686 152.037 701.686 152.694C701.686 153.297 701.065 153.711 700.273 153.711ZM704.394 155.637C704.97 154.98 705.177 154.593 705.177 154.17C705.177 153.675 704.916 153.315 704.52 153.315C704.178 153.315 703.926 153.594 703.926 153.909C703.926 154.242 704.187 154.512 704.511 154.512C704.439 154.791 704.268 155.079 704.016 155.349L704.394 155.637ZM708.672 154.512C710.004 154.512 710.949 153.693 710.949 152.442C710.949 151.209 710.022 150.507 708.906 150.507C708.366 150.507 707.952 150.687 707.628 150.903L707.682 149.067H710.616V148.221H706.818L706.728 151.452L707.367 151.74C707.736 151.461 708.168 151.29 708.681 151.29C709.482 151.29 710.04 151.767 710.04 152.478C710.04 153.171 709.491 153.711 708.69 153.711C708.033 153.711 707.457 153.387 706.989 152.892L706.422 153.54C706.944 154.116 707.691 154.512 708.672 154.512ZM714.095 154.512C715.427 154.512 716.372 153.693 716.372 152.442C716.372 151.209 715.445 150.507 714.329 150.507C713.789 150.507 713.375 150.687 713.051 150.903L713.105 149.067H716.039V148.221H712.241L712.151 151.452L712.79 151.74C713.159 151.461 713.591 151.29 714.104 151.29C714.905 151.29 715.463 151.767 715.463 152.478C715.463 153.171 714.914 153.711 714.113 153.711C713.456 153.711 712.88 153.387 712.412 152.892L711.845 153.54C712.367 154.116 713.114 154.512 714.095 154.512ZM719.968 154.512C721.507 154.512 722.596 153.189 722.596 151.308C722.596 149.436 721.507 148.113 719.968 148.113C718.411 148.113 717.322 149.436 717.322 151.308C717.322 153.189 718.411 154.512 719.968 154.512ZM719.968 153.675C718.96 153.675 718.249 152.694 718.249 151.308C718.249 149.922 718.96 148.95 719.968 148.95C720.967 148.95 721.669 149.922 721.669 151.308C721.669 152.694 720.967 153.675 719.968 153.675Z" fill="black"/>
<rect x="102.998" y="398.061" width="40" height="19" fill="#F59E20"/>
<rect x="337.998" y="304.061" width="40" height="113" fill="#F59E20"/>
<rect x="572.998" y="51.0605" width="40" height="366" fill="#A2DD3F"/>
<rect x="220.998" y="363.061" width="40" height="54" fill="#F59E20"/>
<rect x="455.998" y="159.061" width="40" height="258" fill="#A2DD3F"/>
<rect x="690.581" y="164.061" width="39.959" height="146" fill="#A2DD3F"/>
<rect x="690.581" y="310.061" width="40" height="107" fill="#F59E20"/>
<path d="M-0.000488281 416.835H787.5" stroke="#333333" stroke-miterlimit="10"/>
<path d="M2.57551 95.4814H10.3995V93.9774H5.13551L7.71151 91.8014C9.59951 90.2654 10.3035 89.0974 10.3035 87.6254C10.3035 85.6254 8.67151 84.2974 6.62351 84.2974C4.87951 84.2974 3.58351 85.0974 2.62351 86.4254L3.71151 87.3854C4.47951 86.3934 5.35951 85.7534 6.55951 85.7534C7.64751 85.7534 8.63951 86.4574 8.63951 87.6574C8.63951 88.6494 8.07951 89.5934 6.60751 90.8254L2.57551 94.1534V95.4814ZM16.0808 95.6734C18.4488 95.6734 20.1288 94.2174 20.1288 91.9934C20.1288 89.8014 18.4808 88.5534 16.4968 88.5534C15.5368 88.5534 14.8008 88.8734 14.2248 89.2574L14.3208 85.9934H19.5368V84.4894H12.7848L12.6248 90.2334L13.7608 90.7454C14.4168 90.2494 15.1848 89.9454 16.0968 89.9454C17.5208 89.9454 18.5128 90.7934 18.5128 92.0574C18.5128 93.2894 17.5368 94.2494 16.1128 94.2494C14.9448 94.2494 13.9208 93.6734 13.0888 92.7934L12.0808 93.9454C13.0088 94.9694 14.3368 95.6734 16.0808 95.6734ZM23.2094 97.6734C24.2334 96.5054 24.6014 95.8174 24.6014 95.0654C24.6014 94.1854 24.1374 93.5454 23.4334 93.5454C22.8254 93.5454 22.3774 94.0414 22.3774 94.6014C22.3774 95.1934 22.8414 95.6734 23.4174 95.6734C23.2894 96.1694 22.9854 96.6814 22.5374 97.1614L23.2094 97.6734ZM31.6151 95.6734C34.3511 95.6734 36.2871 93.3214 36.2871 89.9774C36.2871 86.6494 34.3511 84.2974 31.6151 84.2974C28.8471 84.2974 26.9111 86.6494 26.9111 89.9774C26.9111 93.3214 28.8471 95.6734 31.6151 95.6734ZM31.6151 94.1854C29.8231 94.1854 28.5591 92.4414 28.5591 89.9774C28.5591 87.5134 29.8231 85.7854 31.6151 85.7854C33.3911 85.7854 34.6391 87.5134 34.6391 89.9774C34.6391 92.4414 33.3911 94.1854 31.6151 94.1854ZM42.787 95.6734C45.523 95.6734 47.459 93.3214 47.459 89.9774C47.459 86.6494 45.523 84.2974 42.787 84.2974C40.019 84.2974 38.083 86.6494 38.083 89.9774C38.083 93.3214 40.019 95.6734 42.787 95.6734ZM42.787 94.1854C40.995 94.1854 39.731 92.4414 39.731 89.9774C39.731 87.5134 40.995 85.7854 42.787 85.7854C44.563 85.7854 45.811 87.5134 45.811 89.9774C45.811 92.4414 44.563 94.1854 42.787 94.1854ZM53.9589 95.6734C56.6949 95.6734 58.6309 93.3214 58.6309 89.9774C58.6309 86.6494 56.6949 84.2974 53.9589 84.2974C51.1909 84.2974 49.2549 86.6494 49.2549 89.9774C49.2549 93.3214 51.1909 95.6734 53.9589 95.6734ZM53.9589 94.1854C52.1669 94.1854 50.9029 92.4414 50.9029 89.9774C50.9029 87.5134 52.1669 85.7854 53.9589 85.7854C55.7349 85.7854 56.9829 87.5134 56.9829 89.9774C56.9829 92.4414 55.7349 94.1854 53.9589 94.1854Z" fill="black"/>
<path d="M6.60751 25.5924C8.99151 25.5924 10.5595 24.2484 10.5595 22.3924C10.5595 20.8564 9.35951 20.0244 8.22351 19.7684C9.37551 19.4164 10.3195 18.5684 10.3195 17.2084C10.3195 15.4484 8.78351 14.2164 6.55951 14.2164C4.76751 14.2164 3.51951 15.0484 2.67151 16.1524L3.67951 17.1444C4.44751 16.2484 5.29551 15.6724 6.44751 15.6724C7.72751 15.6724 8.68751 16.4084 8.68751 17.4324C8.68751 18.5364 7.71151 19.1444 6.31951 19.1444L5.11951 19.1284V20.5684H6.31951C7.95151 20.5524 8.91151 21.1444 8.91151 22.2804C8.91151 23.3844 7.99951 24.1364 6.57551 24.1364C5.31151 24.1364 4.23951 23.5444 3.50351 22.6484L2.46351 23.7204C3.31151 24.7764 4.73551 25.5924 6.60751 25.5924ZM17.0995 25.5924C19.8355 25.5924 21.7715 23.2404 21.7715 19.8964C21.7715 16.5684 19.8355 14.2164 17.0995 14.2164C14.3315 14.2164 12.3955 16.5684 12.3955 19.8964C12.3955 23.2404 14.3315 25.5924 17.0995 25.5924ZM17.0995 24.1044C15.3075 24.1044 14.0435 22.3604 14.0435 19.8964C14.0435 17.4324 15.3075 15.7044 17.0995 15.7044C18.8755 15.7044 20.1235 17.4324 20.1235 19.8964C20.1235 22.3604 18.8755 24.1044 17.0995 24.1044ZM24.9594 27.5924C25.9834 26.4244 26.3514 25.7364 26.3514 24.9844C26.3514 24.1044 25.8874 23.4644 25.1834 23.4644C24.5754 23.4644 24.1274 23.9604 24.1274 24.5204C24.1274 25.1124 24.5914 25.5924 25.1674 25.5924C25.0394 26.0884 24.7354 26.6004 24.2874 27.0804L24.9594 27.5924ZM33.3651 25.5924C36.1011 25.5924 38.0371 23.2404 38.0371 19.8964C38.0371 16.5684 36.1011 14.2164 33.3651 14.2164C30.5971 14.2164 28.6611 16.5684 28.6611 19.8964C28.6611 23.2404 30.5971 25.5924 33.3651 25.5924ZM33.3651 24.1044C31.5731 24.1044 30.3091 22.3604 30.3091 19.8964C30.3091 17.4324 31.5731 15.7044 33.3651 15.7044C35.1411 15.7044 36.3891 17.4324 36.3891 19.8964C36.3891 22.3604 35.1411 24.1044 33.3651 24.1044ZM44.537 25.5924C47.273 25.5924 49.209 23.2404 49.209 19.8964C49.209 16.5684 47.273 14.2164 44.537 14.2164C41.769 14.2164 39.833 16.5684 39.833 19.8964C39.833 23.2404 41.769 25.5924 44.537 25.5924ZM44.537 24.1044C42.745 24.1044 41.481 22.3604 41.481 19.8964C41.481 17.4324 42.745 15.7044 44.537 15.7044C46.313 15.7044 47.561 17.4324 47.561 19.8964C47.561 22.3604 46.313 24.1044 44.537 24.1044ZM55.7089 25.5924C58.4449 25.5924 60.3809 23.2404 60.3809 19.8964C60.3809 16.5684 58.4449 14.2164 55.7089 14.2164C52.9409 14.2164 51.0049 16.5684 51.0049 19.8964C51.0049 23.2404 52.9409 25.5924 55.7089 25.5924ZM55.7089 24.1044C53.9169 24.1044 52.6529 22.3604 52.6529 19.8964C52.6529 17.4324 53.9169 15.7044 55.7089 15.7044C57.4849 15.7044 58.7329 17.4324 58.7329 19.8964C58.7329 22.3604 57.4849 24.1044 55.7089 24.1044Z" fill="black"/>
<path d="M744.94 325.725H745.984L748.594 320.226V319.542H744.265V320.388H747.523L744.94 325.725ZM750.143 326.958C750.719 326.301 750.926 325.914 750.926 325.491C750.926 324.996 750.665 324.636 750.269 324.636C749.927 324.636 749.675 324.915 749.675 325.23C749.675 325.563 749.936 325.833 750.26 325.833C750.188 326.112 750.017 326.4 749.765 326.67L750.143 326.958ZM754.872 325.833C756.411 325.833 757.5 324.51 757.5 322.629C757.5 320.757 756.411 319.434 754.872 319.434C753.315 319.434 752.226 320.757 752.226 322.629C752.226 324.51 753.315 325.833 754.872 325.833ZM754.872 324.996C753.864 324.996 753.153 324.015 753.153 322.629C753.153 321.243 753.864 320.271 754.872 320.271C755.871 320.271 756.573 321.243 756.573 322.629C756.573 324.015 755.871 324.996 754.872 324.996ZM760.832 325.833C762.128 325.833 763.163 325.167 763.163 324.096C763.163 323.34 762.596 322.791 761.858 322.53C762.488 322.287 763.01 321.828 763.01 321.09C763.01 320.064 761.984 319.434 760.832 319.434C759.716 319.434 758.663 320.037 758.663 321.09C758.663 321.792 759.14 322.26 759.815 322.53C759.077 322.782 758.501 323.331 758.501 324.096C758.501 325.158 759.527 325.833 760.832 325.833ZM760.832 322.188C760.283 322.152 759.572 321.828 759.572 321.189C759.572 320.64 760.121 320.235 760.832 320.235C761.543 320.235 762.101 320.64 762.101 321.189C762.101 321.81 761.399 322.152 760.832 322.188ZM760.832 325.032C760.04 325.032 759.419 324.618 759.419 324.015C759.419 323.358 760.229 322.962 760.832 322.944C761.444 322.962 762.245 323.358 762.245 324.015C762.245 324.618 761.624 325.032 760.832 325.032ZM767.086 325.725H767.995V324.303H768.886V323.502H767.995V319.542H766.915L763.918 323.574L764.017 324.303H767.086V325.725ZM764.917 323.502L767.086 320.577V323.502H764.917Z" fill="black"/>
</svg>
