<svg width="285" height="16" fill="none" xmlns="http://www.w3.org/2000/svg"><path d="M24.934 11.629h.936V3.385h-.936v8.244zm6.227-6.348c-.888 0-1.68.468-2.04 1.128v-.984h-.9v6.204h.9V7.68c0-.876.864-1.596 1.92-1.596.912 0 1.548.696 1.548 1.716v3.828h.9V7.68c0-1.428-.948-2.4-2.328-2.4zm4.255 3.528h3.108v-.876h-3.108v.876zm8.336-3.528c-.996 0-1.788.492-2.256 1.308V5.425h-.9v8.268h.9v-3.228c.468.816 1.26 1.308 2.256 1.308 1.632 0 2.856-1.344 2.856-3.252 0-1.896-1.224-3.24-2.856-3.24zm-.168 5.688c-1.224 0-2.088-1.02-2.088-2.448s.864-2.436 2.088-2.436c1.212 0 2.076 1.008 2.076 2.436s-.864 2.448-2.076 2.448zm7.245 0c-1.224 0-2.076-.888-2.208-2.1h5.076c0-2.172-1.068-3.588-2.94-3.588-1.668 0-3.06 1.38-3.06 3.228 0 1.908 1.488 3.264 3.144 3.264.864 0 1.956-.372 2.496-.96l-.552-.588c-.384.42-1.224.744-1.956.744zm-.036-4.884c1.236 0 1.896.864 2.016 1.98h-4.176c.168-1.2 1.056-1.98 2.16-1.98zm5.316.552V5.425h-.9v6.204h.9V8.16c0-1.212.996-2.076 2.4-2.076V5.28c-1.14 0-2.028.528-2.4 1.356zm5.778 5.136c1.284 0 2.268-.732 2.268-1.872 0-1.176-1.032-1.512-2.028-1.824-1.152-.372-1.608-.54-1.608-1.08 0-.6.576-.912 1.272-.912.552 0 1.164.192 1.788.588l.432-.696c-.66-.432-1.452-.696-2.22-.696-1.236 0-2.172.696-2.172 1.824 0 .888.576 1.332 2.076 1.764.84.24 1.56.456 1.56 1.128 0 .588-.552.972-1.368.972-.684 0-1.392-.264-2.1-.78l-.468.66c.744.6 1.704.924 2.568.924zm6.474 0c1.752 0 3.192-1.464 3.192-3.252 0-1.788-1.44-3.24-3.192-3.24-1.764 0-3.204 1.452-3.204 3.24 0 1.788 1.44 3.252 3.204 3.252zm0-.804c-1.248 0-2.268-1.104-2.268-2.448 0-1.344 1.02-2.436 2.268-2.436 1.236 0 2.256 1.092 2.256 2.436 0 1.344-1.02 2.448-2.256 2.448zm7.683-5.688c-.888 0-1.68.468-2.04 1.128v-.984h-.9v6.204h.9V7.68c0-.876.864-1.596 1.92-1.596.912 0 1.548.696 1.548 1.716v3.828h.9V7.68c0-1.428-.948-2.4-2.328-2.4z" fill="#000"/><circle cx="7.5" cy="8.129" r="7.5" fill="#F59E20"/><path d="M152.198 3.385l-3.12 7.092-3.132-7.092h-1.02l3.636 8.244h1.02l3.636-8.244h-1.02zm2.823.912a.6.6 0 0 0 .588-.6.597.597 0 0 0-.588-.588.6.6 0 0 0-.6.588c0 .324.264.6.6.6zm-.456 7.332h.9V5.425h-.9v6.204zm3.888-4.992V5.425h-.9v6.204h.9V8.16c0-1.212.996-2.076 2.4-2.076V5.28c-1.14 0-2.028.528-2.4 1.356zm6.258 4.08c-.132.144-.372.252-.648.252-.36 0-.672-.324-.672-.78v-3.96h1.524v-.804h-1.524V3.72h-.9v1.704h-.972v.804h.972v3.96c0 .924.624 1.584 1.512 1.584.42 0 .828-.144 1.152-.396l-.444-.66zm5.96-5.292v3.948c0 .876-.864 1.596-1.92 1.596-.912 0-1.548-.696-1.548-1.716V5.425h-.9v3.948c0 1.428.948 2.4 2.328 2.4.888 0 1.68-.468 2.04-1.128v.984h.9V5.425h-.9zm5.203-.144c-.6 0-1.344.156-2.232.6l.36.732c.564-.288 1.188-.564 1.812-.564 1.344 0 1.68.96 1.68 1.8v.228c-.636-.204-1.344-.348-2.016-.348-1.332 0-2.436.828-2.436 2.064 0 1.224.96 1.98 2.268 1.98.816 0 1.74-.384 2.184-1.116v.972h.9v-3.78c0-1.5-.828-2.568-2.52-2.568zm-.408 5.7c-.876 0-1.548-.456-1.548-1.224 0-.744.78-1.272 1.704-1.272a7.06 7.06 0 0 1 1.872.252v.948c-.24.876-1.212 1.296-2.028 1.296zm4.868.648h.9V3.24h-.9v8.388z" fill="#000"/><circle cx="131.431" cy="8.129" r="7.5" fill="#A2DD3F"/><path d="M252.73 3.385v3.6h-4.86v-3.6h-.936v8.244h.936V7.873h4.86v3.756h.936V3.385h-.936zm3.832 10.404c.852-.012 1.452-.408 1.884-1.464l2.832-6.9h-.972l-2.052 5.16-2.172-5.16h-.996l2.7 6.228-.36.768c-.24.42-.504.552-.9.552-.264 0-.516-.048-.732-.156l-.216.768c.288.132.624.204.984.204zm9.049-8.508c-.996 0-1.788.492-2.256 1.308V3.24h-.9v8.388h.9v-1.164c.468.816 1.26 1.308 2.256 1.308 1.632 0 2.856-1.344 2.856-3.252 0-1.896-1.224-3.24-2.856-3.24zm-.168 5.688c-1.224 0-2.088-1.02-2.088-2.448s.864-2.436 2.088-2.436c1.212 0 2.076 1.008 2.076 2.436s-.864 2.448-2.076 2.448zm5.529-4.332V5.425h-.9v6.204h.9V8.16c0-1.212.996-2.076 2.4-2.076V5.28c-1.14 0-2.028.528-2.4 1.356zm4.314-2.34a.6.6 0 0 0 .588-.6.597.597 0 0 0-.588-.588.6.6 0 0 0-.6.588c0 .324.264.6.6.6zm-.456 7.332h.9V5.425h-.9v6.204zm7.62-8.388v3.348c-.468-.816-1.26-1.308-2.256-1.308-1.632 0-2.856 1.344-2.856 3.24 0 1.908 1.224 3.252 2.856 3.252.996 0 1.788-.492 2.256-1.308v1.164h.9V3.24h-.9zm-2.088 7.728c-1.212 0-2.076-1.02-2.076-2.448s.864-2.436 2.076-2.436c1.224 0 2.088 1.008 2.088 2.436s-.864 2.448-2.088 2.448z" fill="#000"/><circle cx="229.431" cy="8.129" r="7.5" fill="#F36A11"/></svg>