<svg width="1027" height="517" viewBox="0 0 1027 517" fill="none" xmlns="http://www.w3.org/2000/svg">
<g opacity="0.05" clip-path="url(#clip0_2218_111)">
<path d="M501.977 177.086C503.635 177.968 504.976 175.81 505.314 173.489C505.325 173.402 505.325 173.325 505.336 173.238C505.358 173.064 505.38 172.878 505.391 172.704C505.391 172.551 505.391 172.399 505.391 172.246C505.391 172.137 505.391 172.028 505.391 171.93C505.314 170.666 504.867 169.543 503.951 169.053C502.075 170.088 501.628 171.516 501.628 173.129C501.628 174.383 501.901 175.734 501.977 177.086V177.086Z" fill="black"/>
<path d="M523.353 15.9937C521.554 16.6694 519.765 17.3452 517.442 18.2172C519.711 21.596 521.794 22.6314 523.757 22.4788C524.946 22.3916 526.102 21.8576 527.236 21.1491C530.868 18.8711 534.293 14.7185 538.099 17.1817C540.924 21.4761 543.792 20.942 547.609 18.8057C538.873 11.8955 528.425 10.0971 521.205 10.4132C516.537 10.6203 513.221 11.7102 512.6 12.8764C511.88 14.228 514.77 15.6776 523.343 15.9828L523.353 15.9937Z" fill="black"/>
<path d="M623.202 298.016C623.136 298.016 623.071 298.016 622.994 298.016C622.918 298.016 622.853 298.016 622.776 298.027C622.296 298.049 621.784 298.136 621.217 298.256C618.087 298.877 614.04 300.523 611.248 301.297C610.55 301.471 609.863 301.613 609.198 301.7C606.362 300.174 603.81 298.256 601.465 296.054C598.728 291.04 594.485 286.768 590.962 282.157C588.847 278.43 586.949 274.451 585.16 270.364C584.931 269.089 584.811 267.759 584.844 266.364C583.284 264.686 582.008 262.473 580.863 259.988C580.002 257.841 579.162 255.694 578.311 253.568C576.359 248.151 574.526 242.505 571.822 238.647C571.691 238.374 571.549 238.091 571.418 237.829C568.528 232.184 560.981 233.699 553.848 233.35C547.13 230.974 540.368 227.028 536.725 231.649C535.885 232.489 535.165 233.459 534.413 234.309C529.189 233.72 524.99 233.034 521.652 232.271C516.963 229.448 512.218 228.51 509.688 226.549C507.736 223.747 509.274 220.914 508.783 218.908C509.186 217.949 509.71 216.881 510.386 215.693C504.976 214.755 499.469 215.322 493.972 216.358C486.948 216.815 476.685 217.982 461.7 220.096C458.101 221.72 455.8 224.042 454.109 226.614C452.746 227.856 451.524 229.186 450.488 230.876C449.834 235.65 447.336 239.464 444.25 243.018C442.941 243.966 441.381 244.729 439.418 245.241C438.317 247.792 436.724 250.309 435.099 252.86C431.566 257.067 428.817 261.765 428.763 268.01C434.412 278.048 423.091 289.024 431.326 297.678C431.446 297.809 431.555 297.94 431.686 298.06C436.866 302.561 441.719 312.272 447.827 317.646C449.332 318.976 450.913 320.044 452.604 320.687C455.44 321.777 458.559 321.711 462.082 319.793C468.047 322.017 475.278 318.125 481.571 316.392C486.316 315.084 490.525 314.986 493.263 319.662C496.219 322.224 500.374 322.18 503.144 323.128C505.685 324 507.049 325.722 505.26 331.052C505.162 331.335 505.064 331.619 504.955 331.913C504.758 332.731 504.627 333.526 504.54 334.311C503.253 346.736 515.806 355.968 516.112 369.32C517.322 374.039 515.523 378.334 513.767 382.628C511.477 388.23 509.284 393.833 513.974 400.416C514.389 401.059 514.77 401.746 515.141 402.454C519.122 410.062 520.998 421.267 524.008 430.88C526.397 438.52 529.527 445.136 535.002 448.123C535.689 448.504 536.409 448.842 537.183 449.093C537.652 449.115 538.099 449.115 538.557 449.115C549.027 449.3 556.313 445.616 562.006 439.894C567.503 434.4 571.505 427.011 575.399 419.25C575.606 418.847 575.803 418.455 576.01 418.051C579.522 416.798 580.558 414.749 580.645 412.362C580.645 412.296 580.645 412.231 580.645 412.166C580.645 412.133 580.645 412.089 580.645 412.057C580.645 406.65 576.064 399.642 583.71 396.198C583.862 396.132 583.993 396.056 584.135 395.991C590.079 393.157 593.056 389.342 594.191 384.797C595.336 380.328 594.681 375.14 593.296 369.407C593.275 369.331 593.264 369.255 593.242 369.178C592.827 368.121 592.489 367.086 592.206 366.061C589.196 355.053 594.016 346.366 600.865 338.082C610.103 326.921 623.016 316.491 625.372 302.081V302.06C626.517 298.942 625.35 297.961 623.191 298.005L623.202 298.016Z" fill="black"/>
<path d="M904.815 399.772C891.913 381.733 890.299 358.964 885.642 395.499C860.437 384.502 880.756 376.665 866.676 375.466C858.136 372.861 853.98 380.512 849.258 386.191C843.859 376.785 838.81 387.782 834 392.197C831.088 403.292 809.45 400.349 806.756 413.865C810.911 423.402 807.694 455.282 820.607 450.029C874.026 426.116 859.903 454.225 876.24 444.819C879.621 455.969 889.83 465.942 901.903 462.465C927.337 452.536 926.573 415.173 904.826 399.783L904.815 399.772Z" fill="black"/>
<path d="M710.649 304.555C709.395 305.285 708.718 306.887 708.566 308.696C708.489 309.634 708.555 310.637 708.751 311.607C709.22 313.819 710.42 315.879 712.318 316.729C714.292 314.811 714.662 313.056 714.259 311.334C713.735 309.111 711.936 306.953 710.649 304.555Z" fill="black"/>
<path d="M235.087 43.7647C236.581 43.1435 237.726 42.5985 238.577 42.1189C247.836 36.9635 222.206 39.6993 210.384 36.3967C210.166 36.3313 209.947 36.266 209.729 36.2006H209.708C208.17 35.7101 206.905 35.1106 206.043 34.3477C207.155 48.833 224.66 42.0208 235.076 43.7538L235.087 43.7647Z" fill="black"/>
<path d="M521.27 184.531C521.27 184.313 521.27 184.095 521.249 183.91C521.249 183.844 521.227 183.79 521.216 183.714C521.194 183.539 521.172 183.354 521.129 183.201C521.129 183.179 521.118 183.169 521.107 183.158C521.052 182.961 520.998 182.787 520.921 182.635C520.867 182.515 520.791 182.417 520.725 182.318C520.692 182.275 520.671 182.22 520.638 182.177C519.558 180.825 517.159 181.207 514.029 181.294C513.483 182.591 514.345 183.441 515.654 184.16C517.322 185.076 519.754 185.774 521.02 186.918C521.15 186.166 521.216 185.523 521.249 184.956C521.249 184.891 521.26 184.814 521.26 184.76C521.26 184.684 521.26 184.618 521.26 184.542L521.27 184.531Z" fill="black"/>
<path d="M198.409 42.3705C200.121 42.7955 202.466 42.8173 204.702 43.7547C202.749 36.7682 200.83 38.9698 195.889 40.0598C196.129 41.4767 197.078 42.0435 198.409 42.3705Z" fill="black"/>
<path d="M246.484 47.9933C245.48 47.8952 244.335 47.8734 243.212 47.8407C241.718 47.7971 240.267 47.699 239.253 47.3066C240.834 51.8844 243.19 51.6555 245.524 51.0887C245.753 51.0342 245.993 50.9688 246.222 50.9143C246.451 50.8599 246.691 50.7945 246.92 50.7509C247.051 50.7182 247.182 50.6964 247.313 50.6746C247.52 50.631 247.727 50.5983 247.934 50.5765C248.491 50.5111 249.036 50.5329 249.538 50.6964C250.05 48.7781 248.545 48.2113 246.473 48.0042L246.484 47.9933Z" fill="black"/>
<path d="M357.293 345.592C348.066 344.034 337.432 340.186 332.415 332.382C328.849 320.785 326.024 318.278 314.092 316.741C305.269 315.15 301.277 302.409 292.683 301.624C285.343 304.785 279.879 300.545 273.652 296.915C270.063 306.965 268.558 306.736 269.998 296.087C260.008 296.403 255.318 315.815 249.123 307.433C245.339 299.858 240.311 307.161 235.054 303.891C224.3 297.711 239.896 278.049 224.158 279.062C211.78 284.185 226.296 242.179 211.9 264.937C190.567 289.101 183.009 216.718 210.384 229.023C219.97 229.11 207.602 221.154 227.681 227.246C237.279 226.734 232.36 243.977 239.984 244.544C241.434 231.257 232.393 217.121 248.839 209.36C256.539 206.777 247.454 184.183 252.809 197.458C257.597 188.237 270.391 169.61 282.311 169.044C272.386 181.066 299.554 168.128 294.995 163.964C287.884 171.147 275.298 159.027 284.787 156.051C279.366 151.147 275.244 157.011 270.521 156.378C281.995 147.55 328.456 147.702 294.701 130.721C284.983 121.838 288.746 107.222 274.633 118.71C266.279 106.939 242.067 92.7258 247.04 119.222C254.522 127.19 251.032 128.378 242.95 133.533C244.862 140.625 243.543 144.941 238.991 146.482C239.209 123.408 198.43 130.95 201.637 111.233C212.587 96.4861 225.729 91.6032 236.526 86.8183C239.264 74.4039 226.34 74.3385 223.264 84.6276C215.717 89.7721 221.443 72.6709 213.786 80.7474C187.84 53.6078 207.363 80.1479 197.012 85.4232C179.453 76.9653 162.832 87.4069 145.97 83.2542C140.048 74.1314 125.837 80.0171 117.941 75.9189C114.222 80.5948 112.531 75.8862 111.092 74.7963C100.578 73.6845 91.3949 79.3958 82.2771 79.2214C55.7746 73.3031 25.7711 64.9541 2.21335 82.2624C23.6444 92.5078 14.5594 85.0962 -0.0224609 92.486C5.2017 100.355 16.4026 91.5596 18.0058 99.7995C12.6289 101.129 6.03058 100.421 4.59094 107.168C3.24946 114.132 16.6643 111.462 15.8463 118.296C50.3105 116.312 -14.757 140.4 22.3684 131.593C23.7644 125.38 35.2052 123.974 38.139 118.252C38.5534 112.922 43.2323 111.843 46.3951 109.217C35.4015 120.051 77.0203 107.832 90.5878 119.942C95.8556 120.367 89.6062 133.588 96.9789 132.716C104.995 130.972 104.668 146.809 113.688 148.792C129.665 154.406 114.8 168.215 119.708 183.834C119.882 204.358 140.659 213.121 146.778 231.628C145.632 236.26 146.189 237.753 150.366 239.65C154.499 242.244 155.721 254.331 160.4 252.468C157.455 245.884 137.267 211.028 150.584 224.652C160.4 239.388 168.449 256.544 176.814 270.092C193.119 282.801 218.498 279.629 226.285 301.962C274.393 325.81 242.481 312.382 243.103 356.176C282.638 419.229 276.782 394.182 263.203 471.524C269.278 474.162 263.945 488.396 262.789 478.641C254.293 493.759 257.892 524.441 286.467 514.925C265.723 505.923 289.804 496.56 284.427 489.159C279.007 485.966 292.301 477.9 289.782 469.911C295.006 472.276 297.362 469.66 297.504 465.039C307.167 462.543 318.422 458.543 308.672 448.548C329.35 454.924 330.997 426.782 342.82 415.512C362.898 412.918 362.888 394.214 366.05 378.487C380.698 364.928 378.189 348.797 357.293 345.614V345.592Z" fill="black"/>
<path d="M389.117 9.61704C411.236 -3.44046 345.448 1.32258 329.481 2.63051C342.307 17.1049 323.047 1.40978 320.778 6.6524C311.3 5.97663 267.086 12.4182 282.497 17.3338C280.708 23.4157 275.669 20.6363 272.31 21.7481C238.566 27.5248 297.482 29.9989 266.246 30.4458C271.612 41.6722 290.404 31.0562 299.402 37.8901C304.996 43.7431 311.606 49.1165 307.756 55.5363C313.209 60.877 328.064 62.61 310.94 61.2803C314.376 65.4874 322.621 63.3184 320.571 70.2505C298.453 78.4904 341.075 139.898 349.287 95.9186C352.57 80.3978 385.813 75.3623 399.751 64.7572C385.137 64.6918 391.299 57.52 401.387 63.6127C401.638 58.4682 399.566 56.5499 396.457 55.1221C384.548 44.8112 405.619 52.9967 406.786 45.2254C408.618 25.5738 397.941 21.0832 427.05 10.5871C407.582 7.11017 399.817 11.5353 389.128 9.60614L389.117 9.61704Z" fill="black"/>
<path d="M266.955 60.0049C259.735 54.9585 252.035 51.6778 245.971 53.2255C243.768 53.4435 241.587 53.5198 238.555 51.8304C238.38 51.4707 238.217 51.0565 238.075 50.5879C236.69 48.8984 234.978 48.0265 233.287 47.8085H233.254C231.869 47.6341 230.495 47.9066 229.306 48.5606C227.529 49.3126 226.514 50.6097 226.209 52.5171C225.707 54.3046 225.849 56.5171 227.005 59.0131C226.95 58.9804 226.918 58.9368 226.863 58.9041C224.987 57.5199 224.475 54.1956 224.028 51.3072C224.344 49.923 224.922 48.4952 225.576 47.0128C224.606 46.9257 223.711 46.9039 222.893 46.9583C222.283 46.0646 221.334 46.0319 219.643 47.6014C216.742 48.6696 215.302 50.9039 214.932 53.389C214.659 53.7705 214.397 54.1411 214.114 54.5661C213.928 55.5144 214.419 56.3645 215.106 57.1493C215.477 58.806 216.219 60.3646 217.211 61.5745C216.829 61.8142 216.306 62.0431 215.564 62.2829C216.404 62.4355 217.353 62.5881 218.367 62.7407C219.36 63.5364 220.494 64.005 221.705 63.9832C223.406 63.8851 225.391 63.896 227.539 64.005C236.232 65.1931 246.484 66.7517 253.398 69.4438C258.263 71.6346 261.48 74.4576 261.186 77.8909C260.64 80.5394 258.001 83.6894 252.482 87.4715C252.602 87.1554 252.711 86.8502 252.81 86.5777C254.184 82.5558 253.235 81.9564 251.697 82.97C249.876 84.158 247.225 87.5805 246.571 90.2944C246.855 90.4906 247.138 90.6541 247.433 90.8176C250.606 92.5397 254.369 92.0601 257.652 92.6705C259.801 93.0738 261.731 93.9457 263.138 96.2346H263.16C265.625 99.7333 269.9 101.848 273.455 102.752C275.68 103.679 277.24 103.853 277.84 103.243C280.021 103.036 280.425 101.793 276.902 99.6679C276.509 99.0902 276.007 98.4363 275.397 97.7169C276.531 97.8477 277.523 97.9022 278.396 97.8913C284.067 100.42 284.176 99.0793 282.529 96.3C283.097 94.7741 281.417 92.1691 277.447 88.6159C276.913 87.7113 276.455 86.8393 276.138 86.0327C279.028 86.2834 281.613 86.2834 283.74 86.0545C288.31 88.0927 289.728 87.0682 288.964 84.3651C290.949 82.6975 289.859 79.9291 284.078 76.2015C282.006 73.5747 279.421 70.7082 276.509 67.9288C277.24 64.1903 272.157 61.945 266.955 60.0267V60.0049Z" fill="black"/>
<path d="M621.173 376.697C612.578 387.4 603.297 390.507 604.628 404.513C604.093 412.273 604.628 416.578 605.827 418.377C607.834 421.428 611.684 417.254 615.207 410.431C617.912 405.199 620.431 398.409 621.772 392.131C623.147 385.7 623.299 379.814 621.173 376.697V376.697Z" fill="black"/>
<path d="M821.021 321.068C818.011 314.147 807.41 318.953 800.637 326.714C795.37 332.741 792.414 340.545 797.136 346.006C802.502 344.861 809.733 350.474 813.289 348.458C814.281 347.891 814.99 346.736 815.296 344.665C817.837 341.559 818.568 338.463 818.753 335.444C818.753 335.411 818.753 335.379 818.753 335.346C818.753 335.313 818.753 335.281 818.753 335.248C818.982 330.997 818.175 326.888 819.8 323.15C820.105 322.441 820.498 321.744 821.011 321.068H821.021Z" fill="black"/>
<path d="M877.56 28.9205C877.56 28.9205 877.647 28.9423 877.691 28.9532C884.573 30.7843 896.646 31.6563 897.497 26.8933C890.779 24.1466 880.712 23.3073 873.95 27.5908C874.583 27.9505 875.499 28.2993 876.59 28.6372C876.895 28.7352 877.222 28.8224 877.56 28.9205V28.9205Z" fill="black"/>
<path d="M855.06 207.615C855.213 208.41 855.377 209.206 855.54 210.023C856.26 209.37 856.871 208.683 857.373 207.985C857.809 207.397 858.158 206.797 858.441 206.22C858.463 206.165 858.496 206.121 858.518 206.067C858.649 205.784 858.758 205.5 858.845 205.217C858.856 205.173 858.889 205.13 858.899 205.075C858.998 204.759 859.074 204.454 859.128 204.16V204.127C859.172 203.942 859.183 203.767 859.194 203.582C859.194 203.462 859.227 203.342 859.227 203.222C859.227 203.168 859.227 203.113 859.227 203.059C859.205 200.552 857.329 198.917 853.512 199.952C854.101 202.895 854.57 205.239 855.039 207.615H855.06Z" fill="black"/>
<path d="M826.311 261.927C826.551 262.831 827.009 263.747 827.685 264.63C827.74 264.695 827.772 264.76 827.827 264.826C828.656 262.341 829.376 260.172 830.063 258.112C830.477 256.88 830.87 255.681 831.273 254.493C830.15 254.188 829.027 254.559 828.1 255.354C828.067 255.376 828.034 255.398 828.001 255.431C827.947 255.485 827.903 255.54 827.849 255.594C826.627 256.804 825.853 258.798 826.125 260.946C826.158 261.175 826.213 261.403 826.256 261.632C826.278 261.73 826.289 261.818 826.311 261.905V261.927Z" fill="black"/>
<path d="M978.728 469.507C972.228 475.164 966.186 480.406 959.925 485.845C961.583 486.63 962.935 487.262 964.07 487.731C964.833 488.036 965.498 488.276 966.087 488.417C966.382 488.494 966.665 488.548 966.927 488.581C969.588 488.919 970.821 487.12 973.809 482.434C973.962 482.216 974.147 481.998 974.333 481.769C975.685 480.178 977.779 478.466 979.48 476.81C980.604 475.72 981.553 474.652 982 473.649C982.731 472.014 982.12 470.553 978.717 469.496L978.728 469.507Z" fill="black"/>
<path d="M992.611 459.49C991.99 459.174 991.39 458.901 990.834 458.694C987.322 457.375 984.999 458.04 983.875 459.893C983.854 459.937 983.821 459.969 983.799 460.013C983.777 460.057 983.755 460.111 983.734 460.155C982.545 462.444 982.981 466.313 985.075 470.487C985.381 471.098 985.719 471.719 986.089 472.329C989.089 468.362 992.012 464.493 994.836 460.765C994.095 460.296 993.397 459.893 992.731 459.544C992.688 459.522 992.655 459.512 992.611 459.49Z" fill="black"/>
<path d="M1016.87 63.7317C1005.28 55.2519 980.975 43.862 971.726 54.9576C969.708 55.1974 966.785 55.4045 967.418 51.557C947.601 49.6823 927.326 48.8758 908.545 40.9083C890.779 36.93 874.168 44.1672 856.555 46.3907C850.567 45.9547 853.174 40.2652 851.505 36.712C845.386 36.8755 839.432 32.2542 832.975 37.8674C817.03 34.0308 766.413 39.9383 807.203 28.6792C804.542 20.0032 794.912 22.4338 787.43 21.8888C782.489 19.4474 777.538 16.3955 772.237 20.7989C749.116 29.1914 728.895 28.5811 710.18 37.1371C725.547 50.8813 685.052 30.2705 691.214 50.4453C693.908 57.0285 700.473 50.5107 703.854 57.955C690.854 49.4316 694.486 67.7863 682.39 64.6036C697.158 57.955 685.902 23.0442 672.433 44.7994C669.019 49.6823 674.712 52.5707 677.592 56.9958C668.899 55.0884 636.845 42.3252 653.729 54.38C641.688 60.767 626.364 50.7178 616.189 61.6063C613.288 64.1459 610.899 64.1241 608.652 60.7125C618.446 55.132 599.676 52.8105 605.588 65.1268C599.927 63.5137 592.904 66.7944 592.718 72.0152C588.247 71.067 579.511 69.2359 587.941 74.3695C579.772 77.127 570.993 60.1676 577.842 64.3093C626.441 69.4975 562.911 43.862 552.212 47.3499C541.371 45.3444 529.985 53.3554 519.089 55.241C524.248 66.8707 497.724 75.6229 491.365 85.0727C489.893 91.8304 496.677 105.28 504.682 96.3645C515.719 92.9639 512.654 123.373 525.393 102.228C534.042 92.3644 529.625 92.7459 528.392 82.5441C534.707 77.7047 541.436 62.7616 550.772 69.8244C534.707 77.7265 534.751 97.9885 555.756 89.6614C577.253 92.8985 539.124 89.8794 547.293 98.3155C549.202 109.073 536.332 93.7596 537.979 111.493C527.258 115.46 498.88 121.084 508.248 101.324C495.4 103.318 504.747 111.863 502.653 115.678C491.998 118.567 486.937 124.605 480.328 132.322C444.304 144.812 483.033 136.344 471.919 159.069C444.577 147.755 442.199 194.132 468.102 187.004C477.318 187.44 482.324 159.014 490.645 159.494C497.527 163.897 502.588 150.785 507.332 158.306C512.196 166.382 525.611 170.175 523.223 181.173C528.283 181.238 523.157 169.303 530.661 173.075C526.691 166.6 507.332 158.044 515.861 150.306C530.366 158.949 535.569 173.064 542.352 187.091C550.467 182.197 546.082 177.413 541.742 171.538C562.955 168.115 546.268 173.99 557.458 185.511C561.94 191.037 575.137 187.124 582.357 188.17C579.838 199.713 579.052 209.282 566.085 213.065C573.457 215.31 574.712 218.002 571.56 223.473C590.275 215.528 595.794 280.848 607.464 284.968C629.822 269.36 662.944 258.232 640.837 230.525C636.366 233.599 634.893 241.457 627.041 237.621C628.709 231.299 613.048 224.651 618.861 214.351C627.171 216.956 629.647 233.185 641.11 227.386C654.296 241.283 670.873 225.871 679.097 245.174C676.239 247.627 679.13 250.373 681.267 251.267C694.126 250.776 690.788 289.36 701.357 305.481C711.75 293.84 708.282 285.033 711.194 273.175C727.216 251.049 749.072 229.643 750.097 272.085C771.474 261.785 756.107 297.742 766.74 310.146C766.621 319.541 781.279 343.203 777.527 322.723C774.931 308.402 759.291 298.113 769.151 282.112C778.105 294.004 783.46 305.328 794.017 288.51C795.021 282.679 792.458 275.921 799.231 271.518C786.023 274.886 779.283 258.624 789.404 250.842C804.771 250.482 823.574 241.13 829.125 221.272C830.085 219.462 835.32 215.386 828.841 212.966C817.75 173.336 846.739 191.2 819.887 180.29C818.568 174.165 827.391 172.355 831.732 169.074C826.366 180.181 833.389 175.233 840.937 174.077C839.497 180.192 838.254 182.186 844.001 183.2C842.703 191.843 842.736 202.743 852.083 192.628C841.275 146.905 884.355 173.184 886.416 120.507C886.427 111.744 879.033 117.629 874.343 115.504C868.312 101.367 901.107 90.1083 914.522 93.2037C927.49 103.798 928.177 76.8001 942.759 86.1191C975.467 76.484 911.141 102.076 931.885 129.695C955.388 108.212 944.078 91.1001 957.919 90.7731C973.1 91.8631 981.476 80.1789 998.458 81.6503C991.281 74.3368 999.483 64.5491 1006.86 69.2359C1019.66 82.1299 1039.07 59.3719 1016.85 63.7317H1016.87Z" fill="black"/>
<path d="M834.076 309.557C833.422 309.95 832.92 310.309 832.658 310.626C832.102 311.28 832.626 311.715 835.101 311.726C840.784 322.419 847.557 311.051 842.409 305.307C840.729 306.364 836.443 308.151 834.087 309.568L834.076 309.557Z" fill="black"/>
<path d="M149.057 70.1515C152.504 71.7538 155.841 72.9418 159.986 71.078C161.022 70.7837 162.025 70.5548 162.985 70.3804C172.408 68.6474 178.341 71.6775 183.871 65.7809C178.472 61.5083 175.374 59.0123 173.782 56.8216C173.728 56.7453 173.684 56.669 173.629 56.5927C173.575 56.5164 173.52 56.4292 173.466 56.3529C171.786 53.737 172.244 51.4046 173.4 46.7832C173.128 46.8595 172.866 46.9358 172.604 47.0121C166.289 48.7996 161.96 49.3555 165.068 56.4183C160.356 53.0177 152.951 50.1402 146.374 50.162C141.543 50.1729 137.169 51.7533 134.628 55.8406C134.606 55.8624 134.595 55.8951 134.574 55.9169C134.552 55.9496 134.541 55.9823 134.519 56.015C134.345 56.2984 134.181 56.5927 134.028 56.9088C135.948 57.4319 137.944 57.748 138.762 58.2494H138.784C139.558 58.7508 139.165 59.4265 136.439 60.6364C136.417 60.6364 136.395 60.6582 136.373 60.6691C136.373 60.6691 136.45 60.7018 136.493 60.7127C141.826 62.8053 145.458 63.056 147.105 63.0124C147.41 63.0124 147.65 62.9906 147.814 62.9688C146.92 63.1541 144.029 63.9498 138.882 66.7618C142.786 66.958 145.96 68.7346 149.057 70.1733V70.1515Z" fill="black"/>
<path d="M857.143 338.878C857.056 338.736 857.11 338.834 857.329 339.259L857.361 339.237C857.699 339.804 858.365 340.883 859.27 342.169C861.037 344.731 863.742 348.142 866.763 350.104C868.409 351.183 870.144 351.815 871.845 351.63C871.867 351.63 871.889 351.63 871.91 351.63C874.19 352.262 875.673 353.112 876.666 354.093C878.443 355.837 878.651 357.984 879 360.001C879.24 361.385 879.556 362.704 880.483 363.783C881.301 364.731 882.61 365.494 884.736 365.963C885.271 366.082 885.827 366.181 886.47 366.268C887.55 366.595 888.674 367.031 889.742 367.031C891.018 367.031 892.207 366.442 893.167 364.328C897.366 359.27 900.649 363.336 904.651 366.998C907.345 369.461 910.345 371.728 914.162 370.944C914.227 370.933 914.293 370.922 914.369 370.911C903.79 361.396 888.728 331.237 869.282 348.284C867.384 345.515 866.632 342.496 865.585 340.393C865.083 339.39 864.505 338.594 863.709 338.147C862.411 337.428 860.524 337.613 857.383 339.259C857.209 338.965 857.132 338.834 857.154 338.899L857.143 338.878Z" fill="black"/>
<path d="M459.867 106.655C460.369 107.843 461.176 108.966 462.147 110.045C464.045 112.17 466.542 114.176 468.462 116.29C458.711 122.121 470.948 126.361 461.667 131.364C461.95 131.353 462.212 131.331 462.485 131.32C470.076 130.961 475.016 129.991 477.797 128.356C477.95 128.269 478.07 128.17 478.212 128.083C478.332 127.996 478.474 127.92 478.594 127.833C481.451 125.674 481.211 122.525 478.855 118.306C478.812 118.219 478.768 118.143 478.725 118.056C478.725 118.034 478.703 118.023 478.692 118.001C476.827 114.753 473.74 110.884 469.869 106.361C471.155 104.726 471.559 103.058 471.374 101.565C471.155 99.8429 470.141 98.3824 468.756 97.5322C466.553 96.1698 463.412 96.3442 461.078 99.5486C460.86 99.8429 460.674 100.126 460.5 100.421C459.093 102.742 459.082 104.78 459.878 106.655H459.867Z" fill="black"/>
<path d="M767.242 326.724C762.814 323.411 758.299 320.348 754.71 317.678C754.83 318.31 755.005 318.975 755.223 319.672C758.582 330.343 773.284 348.316 782.402 354.877H782.413C788.913 345.079 778.377 335.084 767.242 326.735V326.724Z" fill="black"/>
<path d="M633.159 46.4565C635.624 47.165 639.19 47.5574 644.055 47.5356C634.479 40.1131 641.917 34.3255 652.332 30.26L652.409 30.2273C652.594 30.151 652.79 30.0856 652.987 30.0093C653.096 29.9657 653.205 29.9221 653.325 29.8785C653.467 29.824 653.619 29.7695 653.761 29.715C653.925 29.6605 654.077 29.5951 654.241 29.5406C654.317 29.5079 654.405 29.4861 654.492 29.4534C655.648 29.0393 656.815 28.6469 658.004 28.2763L658.091 28.2545C658.375 28.1673 658.669 28.0801 658.953 27.982C658.996 27.9711 659.04 27.9602 659.083 27.9493C659.356 27.8621 659.629 27.7858 659.912 27.6986C660.152 27.6332 660.392 27.5569 660.621 27.4915C660.698 27.4697 660.774 27.4479 660.85 27.4261C667.165 25.6059 673.262 24.3634 676.501 23.6985C672.411 20.1998 662.726 21.5841 653.129 25.0174C648.853 26.5433 644.589 28.4834 640.848 30.587C630.203 36.5489 623.78 43.7644 633.181 46.4565H633.159Z" fill="black"/>
<path d="M417.213 85.5313C414.137 85.128 409.513 85.9564 403.024 88.8229C402.38 86.8828 401.289 85.9455 400.122 85.6512C398.977 85.3678 397.756 85.6839 396.774 86.2616C395.007 87.3079 394.026 89.1935 395.716 89.9783C396.545 90.3706 398.007 90.4796 400.351 90.1091C398.672 90.9374 397.581 91.5369 396.927 91.9728H396.916L396.894 92.0055C393.459 94.338 402.729 92.0274 399.599 96.8667C404.845 99.9839 409.567 100.42 413.319 99.4498C413.385 99.428 413.45 99.4063 413.515 99.3954C413.701 99.3409 413.875 99.2973 414.05 99.2428C418.5 97.8258 421.423 94.4034 422.001 91.3189C422.524 88.5395 421.139 86.0436 417.213 85.5313V85.5313Z" fill="black"/>
<path d="M878.105 183.692C877.92 183.91 877.724 184.128 877.538 184.335C871.387 190.983 864.178 191.932 861.811 193.033C861.19 193.316 860.906 193.61 861.059 194.024C861.386 194.951 863.949 196.466 869.937 199.757C882.991 195.736 894.759 179.779 885.434 168.574C885.282 169.185 885.129 169.773 884.955 170.351C883.275 176.226 880.865 180.476 878.203 183.583C878.171 183.615 878.138 183.648 878.105 183.692V183.692Z" fill="black"/>
<path d="M127.091 57.857C127.451 57.6935 127.822 57.5082 128.182 57.312C132.73 54.8706 137.343 50.162 142.186 47.7532C137.245 44.4507 129.044 42.6523 123.143 44.7341C122.969 44.7995 122.794 44.8758 122.62 44.9412C122.489 44.9957 122.358 45.0393 122.227 45.0938C122.194 45.1047 122.162 45.1265 122.118 45.1483C118.617 46.7396 116.141 49.9004 116.054 55.2193C119.741 59.4592 123.394 59.5137 127.07 57.8461L127.091 57.857Z" fill="black"/>
<path d="M201.8 21.1699C207.264 26.358 218.323 30.1619 224.704 19.3497C233.527 21.9982 226.699 24.4179 215.52 32.5707C218.105 35.4154 252.831 37.3773 243.921 29.8785C254.369 20.8756 309.097 4.59186 278.756 3.45832C255.394 3.02234 233.036 5.00604 209.784 8.13417C219 19.2189 255.394 12.0253 227.048 17.0063C225.489 18.9137 223.286 19.0554 220.854 18.4341C214.026 15.9708 205.41 9.71458 200.142 13.246C199.51 13.5403 199.074 13.9436 198.834 14.4231C197.907 15.4913 197.132 16.9845 196.554 19.0445C198.441 19.5677 200.175 20.3306 201.8 21.1699V21.1699Z" fill="black"/>
<path d="M138.02 41.1813C138.991 41.1813 140.877 41.2467 143.277 41.3339C149.624 41.5737 159.484 41.9116 165.231 41.1595C171.404 40.353 172.844 38.293 160.095 33.4863C160.247 36.0913 159.756 37.3992 158.829 37.9224C157.575 38.6309 155.525 37.9006 153.147 36.9632C147.901 34.9033 141.117 31.8514 138.02 41.1704V41.1813Z" fill="black"/>
<path d="M747.098 11.5032C747.174 11.5359 747.251 11.5577 747.338 11.5904L747.382 11.6122C750.294 12.6912 753.805 13.7049 757.099 13.9229C757.154 13.9229 757.208 13.9229 757.263 13.9229C757.535 13.9447 757.819 13.9556 758.092 13.9556C758.19 13.9556 758.277 13.9556 758.375 13.9556C758.604 13.9556 758.833 13.9556 759.062 13.9556C759.182 13.9556 759.302 13.9338 759.422 13.9338C759.619 13.9229 759.815 13.912 760.011 13.8902H760.044C763.13 13.5632 765.737 12.2226 767.035 9.12712C766.762 9.10532 766.49 9.08352 766.228 9.03992C766.173 9.03992 766.13 9.01812 766.075 9.01812C765.857 8.98543 765.65 8.95273 765.443 8.90913C763.24 8.47315 761.178 7.5358 759.128 6.62025C756.041 5.23603 752.998 3.9063 749.585 4.45127C747.153 4.83275 744.535 6.15158 741.59 9.07262C742.583 9.58489 744.611 10.5549 747.131 11.5032H747.098Z" fill="black"/>
<path d="M822.679 340.677C822.636 340.818 822.603 340.971 822.57 341.113C822.548 341.211 822.516 341.309 822.494 341.407C821.774 344.709 822.603 349.135 826.246 354.966C826.235 353.429 826.246 352.154 826.311 351.118C826.486 347.946 826.998 347.009 827.925 347.521C829.114 348.186 830.99 351.271 833.706 355.107C834.36 353.669 834.153 352.219 833.607 350.769C832.179 346.922 828.449 343.074 832.32 339.499C832.877 338.987 833.575 338.486 834.469 337.995C832.549 338.627 830.586 339.619 829.049 339.848C827.86 340.033 826.922 339.75 826.507 338.475C826.289 337.821 826.213 336.894 826.289 335.652C826.344 335.608 826.398 335.576 826.453 335.532C834.862 334.551 837.566 333.439 837.305 332.873C837.185 332.578 836.258 332.426 834.927 332.524C832.648 332.676 829.179 333.516 826.453 335.532C826.398 335.532 826.344 335.543 826.289 335.554C826.289 335.587 826.289 335.619 826.289 335.652C824.675 336.884 823.334 338.529 822.679 340.687V340.677Z" fill="black"/>
<path d="M460.98 112.801C460.642 112.496 460.304 112.235 459.965 111.995C459.813 111.886 459.671 111.777 459.518 111.69C456.835 110.011 454.469 110.6 452.582 112.202C449.626 114.731 447.87 119.777 447.914 122.644C449.724 131.93 463.03 119.472 460.969 112.791L460.98 112.801Z" fill="black"/>
<path d="M194.94 57.0085C196.565 56.3109 196.478 54.3491 192.77 50.24C192.923 49.9675 193.01 49.7059 193.075 49.4552C193.883 46.5015 189.324 45.4006 185.964 45.9783C185.746 46.011 185.539 46.0546 185.343 46.1091C182.507 46.8176 180.969 48.834 185.441 52.0166C183.805 51.7768 182.562 51.6569 181.656 51.646C181.656 51.646 181.635 51.646 181.624 51.646C181.395 51.646 181.198 51.646 181.013 51.6569C178.21 51.7986 179.944 53.2809 183.085 54.6869C186.859 56.3872 192.639 57.9895 194.951 56.9976L194.94 57.0085Z" fill="black"/>
<path d="M784.507 358.028C788.237 360.284 797.322 363.085 803.659 364.088C803.735 364.099 803.8 364.11 803.877 364.121C810.366 365.112 813.791 364.153 805.153 358.627C803.746 358.965 802.208 358.976 800.583 358.823C795.686 358.366 789.895 356.447 784.005 357.712C784.158 357.821 784.322 357.919 784.496 358.028H784.507Z" fill="black"/>
<path d="M893.778 135.537C894.192 135.319 894.661 135.123 895.196 134.938C894.323 124.245 893.145 119.09 891.989 117.488C888.455 112.55 885.162 140.987 891.4 145.608C891.804 145.913 892.262 146.109 892.753 146.197C890.659 139.744 890.866 137.063 893.778 135.537V135.537Z" fill="black"/>
<path d="M888.826 154.253C885.86 155.582 884.039 160.204 883.166 166.482C884.453 165.468 885.685 164.923 886.929 164.585C888.248 164.215 889.579 164.073 890.964 163.822C892.513 163.55 894.127 163.157 895.894 162.187C897.017 161.577 898.195 160.727 899.46 159.539C895.239 154.808 891.913 153.283 889.361 154.056C889.219 154.1 889.077 154.155 888.935 154.209C888.903 154.22 888.859 154.231 888.826 154.253V154.253Z" fill="black"/>
<path d="M829.594 295.563C828.962 293.416 828.951 292.337 829.311 291.868C830.63 290.234 836.814 296.588 836.956 291.487C834.666 291.204 833.171 290.659 832.212 289.917C830.772 288.806 830.554 287.269 830.75 285.514C831.012 283.084 832.059 280.261 831.765 277.634C822.2 272.533 826.05 291.291 829.605 295.563H829.594Z" fill="black"/>
<path d="M249.21 268.216C250.944 269.131 252.668 269.981 254.467 270.537C256.648 271.213 258.961 271.453 261.567 270.864C258.383 268.837 255.492 267.115 252.864 265.709C241.489 259.605 235.25 259.224 233.331 263.551C239.962 262.886 244.651 265.796 249.221 268.216H249.21Z" fill="black"/>
<path d="M192.301 35.7869C191.047 34.8496 189.782 34.4354 188.495 34.2937C188.069 34.0866 187.611 33.8795 187.12 33.6615C186.902 33.8795 186.684 34.0757 186.466 34.2501C184.459 34.3591 182.354 34.7951 180.064 34.7515C178.21 34.2501 176.203 33.5198 174 33.1602C175.167 36.9096 178.799 39.024 182.551 39.9178C186.597 41.6399 190.752 41.9996 192.017 39.1984C192.65 38.6753 192.846 37.9995 192.41 37.2147C192.41 36.7788 192.388 36.3101 192.312 35.7869H192.301Z" fill="black"/>
<path d="M198.463 50.7508C201.146 58.5439 208.17 50.0424 212.652 48.2767C210.983 44.8652 203.425 44.124 200.066 47.2194C200.023 47.263 199.979 47.3066 199.935 47.3502C199.848 47.4374 199.761 47.5246 199.684 47.6118C198.965 48.4293 198.507 49.4756 198.463 50.7508Z" fill="black"/>
<path d="M222.708 99.7008H240.845C231.306 94.7742 225.26 94.7742 222.708 99.7008Z" fill="black"/>
<path d="M142.513 28.168C135.675 30.5767 129.469 32.7566 121.889 35.427C131.258 37.9992 141.324 34.5332 142.513 28.168Z" fill="black"/>
<path d="M263.203 276.827C263.639 276.925 264.425 277.023 265.428 277.121C269.387 277.502 276.825 277.829 280.108 277.415C278.407 275.78 276.28 274.32 274.208 273.241C273.771 273.012 273.335 272.805 272.899 272.609C272.877 272.609 272.855 272.587 272.834 272.576C270.609 271.595 268.569 271.159 267.315 271.529C265.886 271.955 265.483 273.448 266.988 276.434C263.029 276.434 262.254 276.62 263.225 276.827H263.203Z" fill="black"/>
<path d="M554.655 8.45117H532.144C539.604 9.32312 546.933 15.3178 554.655 8.45117Z" fill="black"/>
<path d="M176.051 25.1265C177.108 25.5297 178.254 25.7804 179.442 25.9984C181.624 26.3908 183.958 26.6524 186.226 27.4698C187.001 27.7532 187.775 28.102 188.517 28.538C188.004 27.4044 187.262 26.369 186.368 25.4534C185.768 24.8431 185.092 24.2763 184.372 23.7749C182.932 22.7722 181.296 21.9874 179.661 21.4861C178.799 21.2245 177.937 21.0392 177.098 20.9411C175.123 20.6904 173.258 20.8975 171.852 21.6495C171.917 21.7694 172.004 21.8566 172.07 21.9656C173.128 23.5787 174.491 24.527 176.04 25.1265H176.051Z" fill="black"/>
<path d="M783.994 15.9708C775.324 9.95429 769.958 10.7935 766.337 17.5294C771.736 17.0498 777.341 16.5593 783.994 15.9708Z" fill="black"/>
<path d="M906.135 471.862C906.135 471.862 906.113 471.829 906.102 471.818C904.924 470.194 901.543 469.278 897.181 469.268C898.718 472.581 900.071 475.48 901.641 478.848C901.925 478.663 902.198 478.478 902.459 478.303C902.503 478.271 902.547 478.238 902.59 478.205C902.797 478.053 903.005 477.911 903.201 477.769C903.626 477.453 904.008 477.137 904.346 476.832C904.379 476.799 904.412 476.777 904.444 476.745C906.571 474.804 906.996 473.18 906.2 471.949C906.178 471.916 906.168 471.894 906.146 471.862H906.135Z" fill="black"/>
<path d="M648.308 1.11523C643.651 2.63025 639.419 4.00358 634.838 5.4859C643.869 8.07996 647.719 6.80473 648.308 1.11523V1.11523Z" fill="black"/>
<path d="M835.887 370.824C839.071 368.709 842.245 366.595 846.76 363.598C840.544 363.827 837.315 365.985 835.887 370.824Z" fill="black"/>
<path d="M199.837 24.8659C196.914 24.0375 194.351 23.3072 190.643 22.25C193.61 28.3101 195.824 28.8332 199.837 24.8659Z" fill="black"/>
<path d="M918.328 351.65C915.373 352.675 912.144 353.798 908.938 354.898C913.551 358.125 916.78 356.849 918.328 351.65Z" fill="black"/>
</g>
<g filter="url(#filter0_d_2218_111)">
<path d="M847.648 133.799H906.75V165.635L860.443 165.635L847.648 182.877V165.635V133.799Z" fill="#00A941"/>
</g>
<path d="M862.162 155.463H864.882V152.873H866.565V150.579H864.882V142.772H861.589L855.687 150.764L855.946 152.873H862.162V155.463ZM858.555 150.579L862.162 145.658V150.579H858.555ZM870.347 155.685C871.254 155.685 871.994 154.908 871.994 153.964C871.994 153.095 871.254 152.318 870.347 152.318C869.367 152.318 868.627 153.095 868.627 153.964C868.627 154.908 869.367 155.685 870.347 155.685ZM875.246 155.463H878.317L883.46 144.807V142.753H874.007V145.214H880.297L875.246 155.463ZM888.22 149.136C890.089 149.136 891.402 147.711 891.402 145.88C891.402 144.085 890.144 142.624 888.22 142.624C886.315 142.624 885.057 144.067 885.057 145.898C885.057 147.711 886.315 149.136 888.22 149.136ZM886.722 155.463H888.849L897.692 142.753H895.546L886.722 155.463ZM888.22 147.545C887.462 147.545 886.87 146.879 886.87 145.88C886.87 144.881 887.425 144.233 888.22 144.233C888.997 144.233 889.571 144.899 889.571 145.88C889.571 146.897 888.997 147.545 888.22 147.545ZM896.157 155.666C898.025 155.666 899.32 154.242 899.32 152.41C899.32 150.616 898.081 149.154 896.157 149.154C894.27 149.154 892.975 150.597 892.975 152.41C892.975 154.223 894.27 155.666 896.157 155.666ZM896.157 154.057C895.38 154.057 894.806 153.391 894.806 152.41C894.806 151.393 895.361 150.745 896.157 150.745C896.915 150.745 897.507 151.411 897.507 152.41C897.507 153.409 896.952 154.057 896.157 154.057Z" fill="white"/>
<g filter="url(#filter1_d_2218_111)">
<path d="M847.641 113.701H766V157.422H828.751L847.641 182.877V157.422V113.701Z" fill="#00622B"/>
</g>
<path d="M778.599 142.67H788.979V140.01H783.159L785.659 138.07C788.059 136.33 788.859 134.91 788.859 133.07C788.859 130.49 786.739 128.69 783.819 128.69C781.599 128.69 779.859 129.65 778.499 131.37L780.379 133.19C781.379 132.05 782.399 131.37 783.739 131.37C784.859 131.37 785.819 132.05 785.819 133.19C785.819 134.15 785.299 135.05 783.659 136.35L778.599 140.27V142.67ZM796.065 142.93C799.285 142.93 801.365 141.21 801.365 138.83C801.365 137.01 799.985 135.95 798.485 135.61C800.005 135.17 801.065 134.03 801.065 132.45C801.065 130.27 799.125 128.69 796.045 128.69C793.605 128.69 791.965 129.75 790.825 131.13L792.525 132.93C793.445 131.97 794.465 131.33 795.745 131.33C797.105 131.33 798.065 131.97 798.065 132.97C798.065 133.95 797.165 134.51 795.665 134.51L794.085 134.49V137.01H795.665C797.505 136.99 798.345 137.53 798.345 138.59C798.345 139.57 797.445 140.27 795.945 140.27C794.565 140.27 793.265 139.69 792.285 138.65L790.545 140.61C791.705 141.95 793.605 142.93 796.065 142.93ZM805.789 142.91C806.769 142.91 807.569 142.07 807.569 141.05C807.569 140.11 806.769 139.27 805.789 139.27C804.729 139.27 803.929 140.11 803.929 141.05C803.929 142.07 804.729 142.91 805.789 142.91ZM815.266 142.93C818.546 142.93 820.726 141.07 820.726 138.15C820.726 135.35 818.626 133.79 816.186 133.79C815.066 133.79 814.186 134.15 813.506 134.63L813.586 131.59H819.986V128.93H810.866L810.666 136.35L812.646 137.15C813.386 136.59 814.266 136.25 815.306 136.25C816.806 136.25 817.786 137.05 817.786 138.25C817.786 139.43 816.846 140.35 815.286 140.35C813.966 140.35 812.726 139.71 811.686 138.73L809.946 140.81C811.226 142.09 812.966 142.93 815.266 142.93ZM826.127 135.83C828.147 135.83 829.567 134.29 829.567 132.31C829.567 130.37 828.207 128.79 826.127 128.79C824.067 128.79 822.707 130.35 822.707 132.33C822.707 134.29 824.067 135.83 826.127 135.83ZM824.507 142.67H826.807L836.367 128.93H834.047L824.507 142.67ZM826.127 134.11C825.307 134.11 824.667 133.39 824.667 132.31C824.667 131.23 825.267 130.53 826.127 130.53C826.967 130.53 827.587 131.25 827.587 132.31C827.587 133.41 826.967 134.11 826.127 134.11ZM834.707 142.89C836.727 142.89 838.127 141.35 838.127 139.37C838.127 137.43 836.787 135.85 834.707 135.85C832.667 135.85 831.267 137.41 831.267 139.37C831.267 141.33 832.667 142.89 834.707 142.89ZM834.707 141.15C833.867 141.15 833.247 140.43 833.247 139.37C833.247 138.27 833.847 137.57 834.707 137.57C835.527 137.57 836.167 138.29 836.167 139.37C836.167 140.45 835.567 141.15 834.707 141.15Z" fill="white"/>
<g filter="url(#filter2_d_2218_111)">
<path d="M848.526 360.877H778.243V402.642H830.482L848.526 426.959V402.642V360.877Z" fill="#00622B"/>
</g>
<path d="M794.801 387.738C798.421 387.738 800.961 384.798 800.961 380.618C800.961 376.458 798.421 373.518 794.801 373.518C791.181 373.518 788.621 376.458 788.621 380.618C788.621 384.798 791.181 387.738 794.801 387.738ZM794.801 385.058C792.961 385.058 791.661 383.198 791.661 380.618C791.661 378.038 792.961 376.198 794.801 376.198C796.641 376.198 797.941 378.038 797.941 380.618C797.941 383.198 796.641 385.058 794.801 385.058ZM805.358 387.738C806.338 387.738 807.138 386.898 807.138 385.878C807.138 384.938 806.338 384.098 805.358 384.098C804.298 384.098 803.498 384.938 803.498 385.878C803.498 386.898 804.298 387.738 805.358 387.738ZM814.815 373.518C811.815 373.518 809.555 375.458 809.555 378.278C809.555 380.998 811.655 382.638 814.195 382.638C815.495 382.638 816.755 382.138 817.595 381.318C817.335 383.638 816.135 385.138 814.335 385.138C813.175 385.138 812.375 384.718 811.535 384.018L810.135 386.258C811.255 387.158 812.635 387.738 814.335 387.738C818.155 387.738 820.655 384.678 820.655 380.398C820.655 376.398 818.815 373.518 814.815 373.518ZM815.055 380.238C813.715 380.238 812.595 379.458 812.595 378.138C812.595 377.038 813.515 376.018 814.975 376.018C816.515 376.018 817.255 376.958 817.515 378.638C817.095 379.618 816.175 380.238 815.055 380.238ZM826.185 380.658C828.205 380.658 829.625 379.118 829.625 377.138C829.625 375.198 828.265 373.618 826.185 373.618C824.125 373.618 822.765 375.178 822.765 377.158C822.765 379.118 824.125 380.658 826.185 380.658ZM824.565 387.498H826.865L836.425 373.758H834.105L824.565 387.498ZM826.185 378.938C825.365 378.938 824.725 378.218 824.725 377.138C824.725 376.058 825.325 375.358 826.185 375.358C827.025 375.358 827.645 376.078 827.645 377.138C827.645 378.238 827.025 378.938 826.185 378.938ZM834.765 387.718C836.785 387.718 838.185 386.178 838.185 384.198C838.185 382.258 836.845 380.678 834.765 380.678C832.725 380.678 831.325 382.238 831.325 384.198C831.325 386.158 832.725 387.718 834.765 387.718ZM834.765 385.978C833.925 385.978 833.305 385.258 833.305 384.198C833.305 383.098 833.905 382.398 834.765 382.398C835.585 382.398 836.225 383.118 836.225 384.198C836.225 385.278 835.625 385.978 834.765 385.978Z" fill="white"/>
<g filter="url(#filter3_d_2218_111)">
<path d="M848.526 371.012H908.022V406.709H864.229L848.526 427.87V406.709V371.012Z" fill="#00A941"/>
</g>
<path d="M861.641 395.363C864.99 395.363 867.339 392.643 867.339 388.777C867.339 384.929 864.99 382.209 861.641 382.209C858.293 382.209 855.925 384.929 855.925 388.777C855.925 392.643 858.293 395.363 861.641 395.363ZM861.641 392.884C859.939 392.884 858.737 391.163 858.737 388.777C858.737 386.39 859.939 384.688 861.641 384.688C863.343 384.688 864.546 386.39 864.546 388.777C864.546 391.163 863.343 392.884 861.641 392.884ZM871.407 395.363C872.314 395.363 873.054 394.586 873.054 393.642C873.054 392.773 872.314 391.996 871.407 391.996C870.427 391.996 869.687 392.773 869.687 393.642C869.687 394.586 870.427 395.363 871.407 395.363ZM875.289 395.141H884.89V392.68H879.507L881.819 390.886C884.039 389.276 884.779 387.963 884.779 386.261C884.779 383.874 882.818 382.209 880.117 382.209C878.064 382.209 876.454 383.097 875.196 384.688L876.935 386.372C877.86 385.317 878.804 384.688 880.043 384.688C881.079 384.688 881.967 385.317 881.967 386.372C881.967 387.26 881.486 388.092 879.969 389.295L875.289 392.921V395.141ZM890.021 388.814C891.889 388.814 893.203 387.389 893.203 385.558C893.203 383.763 891.945 382.302 890.021 382.302C888.115 382.302 886.857 383.745 886.857 385.576C886.857 387.389 888.115 388.814 890.021 388.814ZM888.522 395.141H890.65L899.493 382.431H897.347L888.522 395.141ZM890.021 387.223C889.262 387.223 888.67 386.557 888.67 385.558C888.67 384.559 889.225 383.911 890.021 383.911C890.798 383.911 891.371 384.577 891.371 385.558C891.371 386.575 890.798 387.223 890.021 387.223ZM897.957 395.344C899.826 395.344 901.121 393.92 901.121 392.088C901.121 390.294 899.881 388.832 897.957 388.832C896.07 388.832 894.775 390.275 894.775 392.088C894.775 393.901 896.07 395.344 897.957 395.344ZM897.957 393.735C897.18 393.735 896.607 393.069 896.607 392.088C896.607 391.071 897.162 390.423 897.957 390.423C898.716 390.423 899.308 391.089 899.308 392.088C899.308 393.087 898.753 393.735 897.957 393.735Z" fill="white"/>
<g filter="url(#filter4_d_2218_111)">
<path d="M312.158 343.455H246.123V378.818H296.879L312.158 399.408V378.818V343.455Z" fill="#00622B"/>
</g>
<path d="M262.212 366.938C265.191 366.938 267.115 365.347 267.115 363.145C267.115 361.462 265.838 360.481 264.451 360.167C265.857 359.76 266.837 358.705 266.837 357.244C266.837 355.227 265.043 353.766 262.194 353.766C259.937 353.766 258.42 354.746 257.365 356.023L258.938 357.688C259.789 356.8 260.732 356.208 261.916 356.208C263.174 356.208 264.062 356.8 264.062 357.725C264.062 358.631 263.23 359.149 261.842 359.149L260.381 359.131V361.462H261.842C263.544 361.443 264.321 361.943 264.321 362.923C264.321 363.83 263.489 364.477 262.101 364.477C260.825 364.477 259.622 363.941 258.716 362.979L257.106 364.792C258.179 366.031 259.937 366.938 262.212 366.938ZM271.207 366.919C272.113 366.919 272.853 366.142 272.853 365.199C272.853 364.329 272.113 363.552 271.207 363.552C270.226 363.552 269.486 364.329 269.486 365.199C269.486 366.142 270.226 366.919 271.207 366.919ZM281.342 366.697H284.061V364.107H285.745V361.813H284.061V354.006H280.768L274.867 361.998L275.126 364.107H281.342V366.697ZM277.734 361.813L281.342 356.892V361.813H277.734ZM290.525 360.37C292.394 360.37 293.707 358.946 293.707 357.114C293.707 355.32 292.449 353.858 290.525 353.858C288.62 353.858 287.362 355.301 287.362 357.133C287.362 358.946 288.62 360.37 290.525 360.37ZM289.027 366.697H291.154L299.997 353.988H297.851L289.027 366.697ZM290.525 358.779C289.767 358.779 289.175 358.113 289.175 357.114C289.175 356.115 289.73 355.468 290.525 355.468C291.302 355.468 291.876 356.134 291.876 357.114C291.876 358.132 291.302 358.779 290.525 358.779ZM298.462 366.901C300.33 366.901 301.625 365.476 301.625 363.645C301.625 361.85 300.386 360.389 298.462 360.389C296.575 360.389 295.28 361.832 295.28 363.645C295.28 365.458 296.575 366.901 298.462 366.901ZM298.462 365.291C297.685 365.291 297.111 364.625 297.111 363.645C297.111 362.627 297.666 361.98 298.462 361.98C299.22 361.98 299.812 362.646 299.812 363.645C299.812 364.644 299.257 365.291 298.462 365.291Z" fill="white"/>
<g filter="url(#filter5_d_2218_111)">
<path d="M312.158 353.951H354.15V383.037H324.953L312.158 400.279V383.037V353.951Z" fill="#FF9700"/>
</g>
<path d="M321.323 372.76H323.154V364.204H321.684L319.119 365.923L319.866 367.218L321.323 366.309V372.76ZM326.338 372.909C326.948 372.909 327.446 372.386 327.446 371.751C327.446 371.166 326.948 370.643 326.338 370.643C325.678 370.643 325.18 371.166 325.18 371.751C325.18 372.386 325.678 372.909 326.338 372.909ZM328.951 372.76H335.414V371.103H331.79L333.347 369.895C334.842 368.812 335.34 367.928 335.34 366.782C335.34 365.175 334.02 364.055 332.201 364.055C330.819 364.055 329.736 364.652 328.889 365.723L330.059 366.857C330.682 366.147 331.317 365.723 332.152 365.723C332.849 365.723 333.447 366.147 333.447 366.857C333.447 367.454 333.123 368.015 332.102 368.824L328.951 371.265V372.76ZM338.868 368.501C340.126 368.501 341.01 367.542 341.01 366.309C341.01 365.101 340.163 364.117 338.868 364.117C337.585 364.117 336.739 365.088 336.739 366.321C336.739 367.542 337.585 368.501 338.868 368.501ZM337.859 372.76H339.292L345.245 364.204H343.8L337.859 372.76ZM338.868 367.43C338.358 367.43 337.959 366.981 337.959 366.309C337.959 365.636 338.333 365.2 338.868 365.2C339.391 365.2 339.777 365.649 339.777 366.309C339.777 366.994 339.391 367.43 338.868 367.43ZM344.211 372.897C345.469 372.897 346.34 371.938 346.34 370.705C346.34 369.497 345.506 368.513 344.211 368.513C342.941 368.513 342.069 369.484 342.069 370.705C342.069 371.925 342.941 372.897 344.211 372.897ZM344.211 371.813C343.688 371.813 343.302 371.365 343.302 370.705C343.302 370.02 343.675 369.584 344.211 369.584C344.721 369.584 345.12 370.032 345.12 370.705C345.12 371.377 344.746 371.813 344.211 371.813Z" fill="white"/>
<g filter="url(#filter6_d_2218_111)">
<path d="M312.158 352.006H368.5V383.037H324.953L312.158 400.279V383.037V352.006Z" fill="#00A941"/>
</g>
<path d="M323.666 372.951H326.386V360.242H324.203L320.392 362.795L321.502 364.719L323.666 363.368V372.951ZM331.116 373.173C332.023 373.173 332.763 372.396 332.763 371.453C332.763 370.583 332.023 369.806 331.116 369.806C330.136 369.806 329.396 370.583 329.396 371.453C329.396 372.396 330.136 373.173 331.116 373.173ZM334.998 372.951H344.599V370.491H339.216L341.528 368.696C343.748 367.087 344.488 365.773 344.488 364.071C344.488 361.685 342.527 360.02 339.826 360.02C337.773 360.02 336.163 360.908 334.905 362.499L336.644 364.182C337.569 363.128 338.513 362.499 339.752 362.499C340.788 362.499 341.676 363.128 341.676 364.182C341.676 365.07 341.195 365.903 339.678 367.105L334.998 370.731V372.951ZM349.73 366.624C351.598 366.624 352.912 365.2 352.912 363.368C352.912 361.574 351.654 360.112 349.73 360.112C347.824 360.112 346.566 361.555 346.566 363.387C346.566 365.2 347.824 366.624 349.73 366.624ZM348.231 372.951H350.359L359.202 360.242H357.056L348.231 372.951ZM349.73 365.033C348.971 365.033 348.379 364.367 348.379 363.368C348.379 362.369 348.934 361.722 349.73 361.722C350.507 361.722 351.08 362.388 351.08 363.368C351.08 364.386 350.507 365.033 349.73 365.033ZM357.666 373.155C359.535 373.155 360.83 371.73 360.83 369.899C360.83 368.104 359.59 366.643 357.666 366.643C355.779 366.643 354.484 368.086 354.484 369.899C354.484 371.712 355.779 373.155 357.666 373.155ZM357.666 371.545C356.889 371.545 356.316 370.879 356.316 369.899C356.316 368.881 356.871 368.234 357.666 368.234C358.425 368.234 359.017 368.9 359.017 369.899C359.017 370.898 358.462 371.545 357.666 371.545Z" fill="white"/>
<g filter="url(#filter7_d_2218_111)">
<path d="M188.549 133.256H125.476V172.194L169.161 172.194L188.549 198.321V172.194V133.256Z" fill="#00622B"/>
</g>
<path d="M143.936 158.488H146.876V144.748H144.516L140.396 147.508L141.596 149.588L143.936 148.128V158.488ZM150.469 158.488H153.789L159.349 146.968V144.748H149.129V147.408H155.929L150.469 158.488ZM164.495 151.648C166.515 151.648 167.935 150.108 167.935 148.128C167.935 146.188 166.575 144.608 164.495 144.608C162.435 144.608 161.075 146.168 161.075 148.148C161.075 150.108 162.435 151.648 164.495 151.648ZM162.875 158.488H165.175L174.735 144.748H172.415L162.875 158.488ZM164.495 149.928C163.675 149.928 163.035 149.208 163.035 148.128C163.035 147.048 163.635 146.348 164.495 146.348C165.335 146.348 165.955 147.068 165.955 148.128C165.955 149.228 165.335 149.928 164.495 149.928ZM173.075 158.708C175.095 158.708 176.495 157.168 176.495 155.188C176.495 153.248 175.155 151.668 173.075 151.668C171.035 151.668 169.635 153.228 169.635 155.188C169.635 157.148 171.035 158.708 173.075 158.708ZM173.075 156.968C172.235 156.968 171.615 156.248 171.615 155.188C171.615 154.088 172.215 153.388 173.075 153.388C173.895 153.388 174.535 154.108 174.535 155.188C174.535 156.268 173.935 156.968 173.075 156.968Z" fill="white"/>
<g filter="url(#filter8_d_2218_111)">
<path d="M188.549 124.756H262.847V168.478H211.173L188.549 198.965V168.478V124.756Z" fill="#00A941"/>
</g>
<path d="M212.537 152.67H215.477V138.93H213.117L208.997 141.69L210.197 143.77L212.537 142.31V152.67ZM223.231 138.69C220.231 138.69 217.971 140.63 217.971 143.45C217.971 146.17 220.071 147.81 222.611 147.81C223.911 147.81 225.171 147.31 226.011 146.49C225.751 148.81 224.551 150.31 222.751 150.31C221.591 150.31 220.791 149.89 219.951 149.19L218.551 151.43C219.671 152.33 221.051 152.91 222.751 152.91C226.571 152.91 229.071 149.85 229.071 145.57C229.071 141.57 227.231 138.69 223.231 138.69ZM223.471 145.41C222.131 145.41 221.011 144.63 221.011 143.31C221.011 142.21 221.931 141.19 223.391 141.19C224.931 141.19 225.671 142.13 225.931 143.81C225.511 144.79 224.591 145.41 223.471 145.41ZM234.601 145.83C236.621 145.83 238.041 144.29 238.041 142.31C238.041 140.37 236.681 138.79 234.601 138.79C232.541 138.79 231.181 140.35 231.181 142.33C231.181 144.29 232.541 145.83 234.601 145.83ZM232.981 152.67H235.281L244.841 138.93H242.521L232.981 152.67ZM234.601 144.11C233.781 144.11 233.141 143.39 233.141 142.31C233.141 141.23 233.741 140.53 234.601 140.53C235.441 140.53 236.061 141.25 236.061 142.31C236.061 143.41 235.441 144.11 234.601 144.11ZM243.181 152.89C245.201 152.89 246.601 151.35 246.601 149.37C246.601 147.43 245.261 145.85 243.181 145.85C241.141 145.85 239.741 147.41 239.741 149.37C239.741 151.33 241.141 152.89 243.181 152.89ZM243.181 151.15C242.341 151.15 241.721 150.43 241.721 149.37C241.721 148.27 242.321 147.57 243.181 147.57C244.001 147.57 244.641 148.29 244.641 149.37C244.641 150.45 244.041 151.15 243.181 151.15Z" fill="white"/>
<g filter="url(#filter9_d_2218_111)">
<path d="M507.339 21.5586H643.15V104.726H546.668L507.339 157.724V104.726V21.5586Z" fill="#00A941"/>
</g>
<g filter="url(#filter10_d_2218_111)">
<path d="M507.339 51.6934H388.753V118.707H478.385L507.339 157.724V118.707V51.6934Z" fill="#00622B"/>
</g>
<path d="M532.406 78.6211H539.801L552.184 52.9623V48.0177H529.421V53.9424H544.567L532.406 78.6211ZM570.461 78.6211H577.01V72.3846H581.063V66.8608H577.01V48.0622H569.08L554.87 67.3063L555.494 72.3846H570.461V78.6211ZM561.775 66.8608L570.461 55.0115V66.8608H561.775ZM592.575 63.3862C597.074 63.3862 600.237 59.9561 600.237 55.546C600.237 51.225 597.208 47.7059 592.575 47.7059C587.987 47.7059 584.957 51.1805 584.957 55.5906C584.957 59.9561 587.987 63.3862 592.575 63.3862ZM588.967 78.6211H594.089L615.383 48.0177H610.215L588.967 78.6211ZM592.575 59.5552C590.748 59.5552 589.323 57.9515 589.323 55.546C589.323 53.1405 590.659 51.5814 592.575 51.5814C594.446 51.5814 595.827 53.1851 595.827 55.546C595.827 57.9961 594.446 59.5552 592.575 59.5552ZM611.685 79.1111C616.185 79.1111 619.303 75.681 619.303 71.2709C619.303 66.9499 616.318 63.4308 611.685 63.4308C607.142 63.4308 604.023 66.9054 604.023 71.2709C604.023 75.6365 607.142 79.1111 611.685 79.1111ZM611.685 75.2356C609.814 75.2356 608.433 73.6319 608.433 71.2709C608.433 68.8209 609.77 67.2617 611.685 67.2617C613.512 67.2617 614.937 68.8654 614.937 71.2709C614.937 73.6764 613.601 75.2356 611.685 75.2356Z" fill="white"/>
<path d="M417.374 94.5714C421.996 94.5714 425.068 91.9506 425.068 87.8361C425.068 83.8907 422.109 81.6925 418.671 81.6925C417.092 81.6925 415.852 82.1998 414.894 82.8762L415.007 78.5926H424.025V74.8445H411.174L410.892 85.2998L413.682 86.427C414.725 85.6379 415.965 85.1588 417.431 85.1588C419.544 85.1588 420.925 86.2861 420.925 87.977C420.925 89.6397 419.601 90.936 417.402 90.936C415.542 90.936 413.795 90.0342 412.33 88.6533L409.878 91.5842C411.682 93.3878 414.133 94.5714 417.374 94.5714ZM434.849 94.5714C439.386 94.5714 442.317 92.1478 442.317 88.7942C442.317 86.2297 440.372 84.7361 438.259 84.257C440.4 83.6371 441.894 82.0307 441.894 79.8044C441.894 76.7326 439.16 74.5063 434.82 74.5063C431.382 74.5063 429.071 75.9999 427.465 77.9444L429.861 80.4807C431.157 79.128 432.594 78.2262 434.398 78.2262C436.314 78.2262 437.667 79.128 437.667 80.5371C437.667 81.918 436.399 82.7071 434.285 82.7071L432.059 82.6789V86.2297H434.285C436.878 86.2016 438.061 86.9625 438.061 88.4561C438.061 89.837 436.793 90.8233 434.68 90.8233C432.735 90.8233 430.903 90.006 429.522 88.5406L427.071 91.3024C428.705 93.1905 431.382 94.5714 434.849 94.5714ZM448.55 94.5433C449.931 94.5433 451.058 93.3596 451.058 91.9224C451.058 90.5979 449.931 89.4142 448.55 89.4142C447.056 89.4142 445.929 90.5979 445.929 91.9224C445.929 93.3596 447.056 94.5433 448.55 94.5433ZM458.916 94.2051H463.058V74.8445H459.733L453.928 78.7335L455.619 81.6644L458.916 79.6071V94.2051ZM471.786 84.567C474.632 84.567 476.633 82.3971 476.633 79.6071C476.633 76.8735 474.717 74.6472 471.786 74.6472C468.883 74.6472 466.967 76.8453 466.967 79.6353C466.967 82.3971 468.883 84.567 471.786 84.567ZM469.503 94.2051H472.744L486.215 74.8445H482.946L469.503 94.2051ZM471.786 82.1434C470.63 82.1434 469.729 81.1289 469.729 79.6071C469.729 78.0853 470.574 77.099 471.786 77.099C472.969 77.099 473.843 78.1135 473.843 79.6071C473.843 81.1571 472.969 82.1434 471.786 82.1434ZM483.876 94.5151C486.722 94.5151 488.695 92.3451 488.695 89.5551C488.695 86.8216 486.807 84.5952 483.876 84.5952C481.001 84.5952 479.028 86.7934 479.028 89.5551C479.028 92.3169 481.001 94.5151 483.876 94.5151ZM483.876 92.0633C482.692 92.0633 481.818 91.0488 481.818 89.5551C481.818 88.0052 482.664 87.0188 483.876 87.0188C485.031 87.0188 485.933 88.0334 485.933 89.5551C485.933 91.0769 485.087 92.0633 483.876 92.0633Z" fill="white"/>
<path d="M488.97 178.108V176.604H480.89V187.596H488.97V186.092H482.522V182.748H488.346V181.244H482.522V178.108H488.97ZM496.715 179.324V184.46C496.715 185.548 495.707 186.412 494.443 186.412C493.323 186.412 492.539 185.564 492.539 184.316V179.324H490.987V184.588C490.987 186.492 492.251 187.788 494.075 187.788C495.211 187.788 496.219 187.228 496.715 186.412V187.596H498.299V179.324H496.715ZM502.497 180.94V179.324H500.913V187.596H502.497V183.196C502.497 181.596 503.745 180.508 505.569 180.508V179.132C504.129 179.132 503.009 179.836 502.497 180.94ZM511.109 187.788C513.493 187.788 515.461 185.836 515.461 183.452C515.461 181.068 513.493 179.132 511.109 179.132C508.725 179.132 506.757 181.068 506.757 183.452C506.757 185.836 508.725 187.788 511.109 187.788ZM511.109 186.412C509.589 186.412 508.341 185.084 508.341 183.452C508.341 181.82 509.589 180.508 511.109 180.508C512.629 180.508 513.877 181.82 513.877 183.452C513.877 185.084 512.629 186.412 511.109 186.412ZM521.894 179.132C520.63 179.132 519.606 179.74 518.966 180.732V179.324H517.382V190.348H518.966V186.172C519.606 187.18 520.63 187.788 521.894 187.788C524.086 187.788 525.702 185.996 525.702 183.452C525.702 180.924 524.086 179.132 521.894 179.132ZM521.526 186.412C520.022 186.412 518.966 185.18 518.966 183.452C518.966 181.724 520.022 180.508 521.526 180.508C523.03 180.508 524.102 181.724 524.102 183.452C524.102 185.18 523.03 186.412 521.526 186.412ZM531.294 186.476C529.822 186.476 528.798 185.42 528.606 183.964H535.214C535.214 181.02 533.742 179.132 531.214 179.132C528.926 179.132 527.054 180.956 527.054 183.436C527.054 185.98 529.038 187.788 531.326 187.788C532.494 187.788 533.95 187.292 534.67 186.508L533.742 185.532C533.23 186.076 532.19 186.476 531.294 186.476ZM531.246 180.444C532.686 180.444 533.518 181.468 533.678 182.796H528.622C528.862 181.372 529.918 180.444 531.246 180.444Z" fill="black"/>
<path d="M526.082 365.715H527.874L523.154 354.723H521.362L516.642 365.715H518.434L519.41 363.427H525.106L526.082 365.715ZM520.018 362.019L522.258 356.803L524.498 362.019H520.018ZM531.457 356.531C531.457 355.955 531.841 355.539 532.305 355.539C532.657 355.539 532.977 355.667 533.153 355.843L533.729 354.787C533.281 354.419 532.673 354.195 532.081 354.195C530.801 354.195 529.905 355.123 529.905 356.451V357.443H528.657V358.787H529.905V365.715H531.457V358.787H533.409V357.443H531.457V356.531ZM536.497 359.059V357.443H534.913V365.715H536.497V361.315C536.497 359.715 537.745 358.627 539.569 358.627V357.251C538.129 357.251 537.009 357.955 536.497 359.059ZM542.228 356.067C542.756 356.067 543.172 355.619 543.172 355.107C543.172 354.611 542.756 354.163 542.228 354.163C541.7 354.163 541.268 354.611 541.268 355.107C541.268 355.619 541.7 356.067 542.228 356.067ZM541.428 365.715H543.012V357.443H541.428V365.715ZM549.28 365.907C550.512 365.907 551.584 365.395 552.384 364.579L551.312 363.603C550.784 364.179 550.048 364.531 549.28 364.531C547.776 364.531 546.512 363.187 546.512 361.571C546.512 359.971 547.776 358.627 549.28 358.627C550.032 358.627 550.752 358.963 551.264 359.523L552.336 358.531C551.536 357.747 550.48 357.251 549.28 357.251C546.928 357.251 544.912 359.219 544.912 361.571C544.912 363.923 546.912 365.907 549.28 365.907ZM557.174 357.251C556.262 357.251 555.222 357.491 554.038 358.083L554.63 359.251C555.35 358.883 556.134 358.563 556.95 358.563C558.598 358.563 559.078 359.667 559.078 360.707V360.963C558.278 360.691 557.398 360.515 556.582 360.515C554.758 360.515 553.27 361.619 553.27 363.267C553.27 364.883 554.582 365.907 556.326 365.907C557.35 365.907 558.47 365.443 559.078 364.595V365.715H560.63V360.707C560.63 358.659 559.398 357.251 557.174 357.251ZM556.646 364.659C555.59 364.659 554.79 364.115 554.79 363.219C554.79 362.323 555.718 361.699 556.822 361.699C557.638 361.699 558.39 361.811 559.078 362.019V363.123C558.806 364.147 557.67 364.659 556.646 364.659Z" fill="black"/>
<path d="M295.068 425.725C297.66 425.725 299.068 424.317 299.068 422.461C299.068 420.493 297.548 419.757 295.356 419.245C293.548 418.813 292.604 418.461 292.604 417.437C292.604 416.557 293.468 415.789 294.7 415.789C295.82 415.789 296.924 416.285 297.852 417.133L298.78 415.917C297.724 414.973 296.46 414.365 294.78 414.365C292.556 414.365 290.956 415.741 290.956 417.581C290.956 419.565 292.444 420.237 294.684 420.765C296.524 421.181 297.436 421.581 297.436 422.621C297.436 423.501 296.652 424.301 295.132 424.301C293.644 424.301 292.492 423.693 291.516 422.765L290.556 423.965C291.708 425.085 293.228 425.725 295.068 425.725ZM304.844 425.741C307.228 425.741 309.196 423.789 309.196 421.405C309.196 419.021 307.228 417.085 304.844 417.085C302.46 417.085 300.492 419.021 300.492 421.405C300.492 423.789 302.46 425.741 304.844 425.741ZM304.844 424.365C303.324 424.365 302.076 423.037 302.076 421.405C302.076 419.773 303.324 418.461 304.844 418.461C306.364 418.461 307.612 419.773 307.612 421.405C307.612 423.037 306.364 424.365 304.844 424.365ZM316.669 417.277V422.413C316.669 423.501 315.661 424.365 314.397 424.365C313.277 424.365 312.493 423.517 312.493 422.269V417.277H310.941V422.541C310.941 424.445 312.205 425.741 314.029 425.741C315.165 425.741 316.173 425.181 316.669 424.365V425.549H318.253V417.277H316.669ZM324.403 424.061C324.243 424.237 323.923 424.365 323.571 424.365C323.107 424.365 322.707 423.949 322.707 423.373V418.621H324.659V417.277H322.707V415.005H321.155V417.277H319.923V418.621H321.155V423.485C321.155 424.813 322.051 425.741 323.331 425.741C323.923 425.741 324.547 425.517 324.995 425.149L324.403 424.061ZM330.872 417.085C329.736 417.085 328.712 417.661 328.232 418.493V414.365H326.648V425.549H328.232V420.413C328.232 419.325 329.256 418.461 330.52 418.461C331.64 418.461 332.424 419.309 332.424 420.557V425.549H333.96V420.285C333.96 418.381 332.696 417.085 330.872 417.085ZM290.215 446.549H292.007L287.287 435.557H285.495L280.775 446.549H282.567L283.543 444.261H289.239L290.215 446.549ZM284.151 442.853L286.391 437.637L288.631 442.853H284.151ZM302.967 438.085C301.671 438.085 300.663 438.885 300.407 440.053C299.991 438.853 298.951 438.085 297.639 438.085C296.567 438.085 295.703 438.613 295.287 439.461V438.277H293.703V446.549H295.287V441.381C295.287 440.245 296.119 439.461 297.319 439.461C298.343 439.461 299.063 440.309 299.063 441.525V446.549H300.615V441.381C300.615 440.245 301.463 439.461 302.647 439.461C303.671 439.461 304.407 440.309 304.407 441.525V446.549H305.943V441.285C305.943 439.413 304.695 438.085 302.967 438.085ZM311.959 445.429C310.487 445.429 309.463 444.373 309.271 442.917H315.879C315.879 439.973 314.407 438.085 311.879 438.085C309.591 438.085 307.719 439.909 307.719 442.389C307.719 444.933 309.703 446.741 311.991 446.741C313.159 446.741 314.615 446.245 315.335 445.461L314.407 444.485C313.895 445.029 312.855 445.429 311.959 445.429ZM311.911 439.397C313.351 439.397 314.183 440.421 314.343 441.749H309.287C309.527 440.325 310.583 439.397 311.911 439.397ZM319.318 439.893V438.277H317.734V446.549H319.318V442.149C319.318 440.549 320.566 439.461 322.39 439.461V438.085C320.95 438.085 319.83 438.789 319.318 439.893ZM325.05 436.901C325.578 436.901 325.994 436.453 325.994 435.941C325.994 435.445 325.578 434.997 325.05 434.997C324.522 434.997 324.09 435.445 324.09 435.941C324.09 436.453 324.522 436.901 325.05 436.901ZM324.25 446.549H325.834V438.277H324.25V446.549ZM332.101 446.741C333.333 446.741 334.405 446.229 335.205 445.413L334.133 444.437C333.605 445.013 332.869 445.365 332.101 445.365C330.597 445.365 329.333 444.021 329.333 442.405C329.333 440.805 330.597 439.461 332.101 439.461C332.853 439.461 333.573 439.797 334.085 440.357L335.157 439.365C334.357 438.581 333.301 438.085 332.101 438.085C329.749 438.085 327.733 440.053 327.733 442.405C327.733 444.757 329.733 446.741 332.101 446.741ZM339.995 438.085C339.083 438.085 338.043 438.325 336.859 438.917L337.451 440.085C338.171 439.717 338.955 439.397 339.771 439.397C341.419 439.397 341.899 440.501 341.899 441.541V441.797C341.099 441.525 340.219 441.349 339.403 441.349C337.579 441.349 336.091 442.453 336.091 444.101C336.091 445.717 337.403 446.741 339.147 446.741C340.171 446.741 341.291 446.277 341.899 445.429V446.549H343.451V441.541C343.451 439.493 342.219 438.085 339.995 438.085ZM339.467 445.493C338.411 445.493 337.611 444.949 337.611 444.053C337.611 443.157 338.539 442.533 339.643 442.533C340.459 442.533 341.211 442.645 341.899 442.853V443.957C341.627 444.981 340.491 445.493 339.467 445.493Z" fill="black"/>
<path d="M167.922 225.629H169.538V217.293L175.842 225.629H177.474V214.637H175.842V222.973L169.538 214.637H167.922V225.629ZM184.063 225.821C186.447 225.821 188.415 223.869 188.415 221.485C188.415 219.101 186.447 217.165 184.063 217.165C181.679 217.165 179.711 219.101 179.711 221.485C179.711 223.869 181.679 225.821 184.063 225.821ZM184.063 224.445C182.543 224.445 181.295 223.117 181.295 221.485C181.295 219.853 182.543 218.541 184.063 218.541C185.583 218.541 186.831 219.853 186.831 221.485C186.831 223.117 185.583 224.445 184.063 224.445ZM191.92 218.973V217.357H190.336V225.629H191.92V221.229C191.92 219.629 193.168 218.541 194.992 218.541V217.165C193.552 217.165 192.432 217.869 191.92 218.973ZM200.388 224.141C200.228 224.317 199.908 224.445 199.556 224.445C199.092 224.445 198.692 224.029 198.692 223.453V218.701H200.644V217.357H198.692V215.085H197.14V217.357H195.908V218.701H197.14V223.565C197.14 224.893 198.036 225.821 199.316 225.821C199.908 225.821 200.532 225.597 200.98 225.229L200.388 224.141ZM206.857 217.165C205.721 217.165 204.697 217.741 204.217 218.573V214.445H202.633V225.629H204.217V220.493C204.217 219.405 205.241 218.541 206.505 218.541C207.625 218.541 208.409 219.389 208.409 220.637V225.629H209.945V220.365C209.945 218.461 208.681 217.165 206.857 217.165ZM166.419 246.629H168.211L163.491 235.637H161.699L156.979 246.629H158.771L159.747 244.341H165.443L166.419 246.629ZM160.355 242.933L162.595 237.717L164.835 242.933H160.355ZM179.17 238.165C177.874 238.165 176.866 238.965 176.61 240.133C176.194 238.933 175.154 238.165 173.842 238.165C172.77 238.165 171.906 238.693 171.49 239.541V238.357H169.906V246.629H171.49V241.461C171.49 240.325 172.322 239.541 173.522 239.541C174.546 239.541 175.266 240.389 175.266 241.605V246.629H176.818V241.461C176.818 240.325 177.666 239.541 178.85 239.541C179.874 239.541 180.61 240.389 180.61 241.605V246.629H182.146V241.365C182.146 239.493 180.898 238.165 179.17 238.165ZM188.163 245.509C186.691 245.509 185.667 244.453 185.475 242.997H192.083C192.083 240.053 190.611 238.165 188.083 238.165C185.795 238.165 183.923 239.989 183.923 242.469C183.923 245.013 185.907 246.821 188.195 246.821C189.363 246.821 190.819 246.325 191.539 245.541L190.611 244.565C190.099 245.109 189.059 245.509 188.163 245.509ZM188.115 239.477C189.555 239.477 190.387 240.501 190.547 241.829H185.491C185.731 240.405 186.787 239.477 188.115 239.477ZM195.522 239.973V238.357H193.938V246.629H195.522V242.229C195.522 240.629 196.77 239.541 198.594 239.541V238.165C197.154 238.165 196.034 238.869 195.522 239.973ZM201.253 236.981C201.781 236.981 202.197 236.533 202.197 236.021C202.197 235.525 201.781 235.077 201.253 235.077C200.725 235.077 200.293 235.525 200.293 236.021C200.293 236.533 200.725 236.981 201.253 236.981ZM200.453 246.629H202.037V238.357H200.453V246.629ZM208.305 246.821C209.537 246.821 210.609 246.309 211.409 245.493L210.337 244.517C209.809 245.093 209.073 245.445 208.305 245.445C206.801 245.445 205.537 244.101 205.537 242.485C205.537 240.885 206.801 239.541 208.305 239.541C209.057 239.541 209.777 239.877 210.289 240.437L211.361 239.445C210.561 238.661 209.505 238.165 208.305 238.165C205.953 238.165 203.937 240.133 203.937 242.485C203.937 244.837 205.937 246.821 208.305 246.821ZM216.199 238.165C215.287 238.165 214.247 238.405 213.063 238.997L213.655 240.165C214.375 239.797 215.159 239.477 215.975 239.477C217.623 239.477 218.103 240.581 218.103 241.621V241.877C217.303 241.605 216.423 241.429 215.607 241.429C213.783 241.429 212.295 242.533 212.295 244.181C212.295 245.797 213.607 246.821 215.351 246.821C216.375 246.821 217.495 246.357 218.103 245.509V246.629H219.655V241.621C219.655 239.573 218.423 238.165 216.199 238.165ZM215.671 245.573C214.615 245.573 213.815 245.029 213.815 244.133C213.815 243.237 214.743 242.613 215.847 242.613C216.663 242.613 217.415 242.725 218.103 242.933V244.037C217.831 245.061 216.695 245.573 215.671 245.573Z" fill="black"/>
<path d="M841.24 207.096H843.032L838.312 196.104H836.52L831.8 207.096H833.592L834.568 204.808H840.264L841.24 207.096ZM835.176 203.4L837.416 198.184L839.656 203.4H835.176ZM847.448 207.288C849.272 207.288 850.584 206.296 850.584 204.728C850.584 203.08 849.144 202.632 847.784 202.232C846.376 201.8 845.816 201.608 845.816 200.968C845.816 200.28 846.488 199.912 847.32 199.912C848.072 199.912 848.904 200.2 849.72 200.712L850.376 199.592C849.496 199 848.392 198.632 847.32 198.632C845.576 198.632 844.312 199.624 844.312 201.144C844.312 202.488 845.272 203.032 847.16 203.56C848.216 203.848 849.08 204.104 849.08 204.888C849.08 205.56 848.456 206.008 847.464 206.008C846.552 206.008 845.56 205.64 844.648 204.968L843.928 206.056C844.92 206.856 846.232 207.288 847.448 207.288ZM853.309 197.448C853.837 197.448 854.253 197 854.253 196.488C854.253 195.992 853.837 195.544 853.309 195.544C852.781 195.544 852.349 195.992 852.349 196.488C852.349 197 852.781 197.448 853.309 197.448ZM852.509 207.096H854.093V198.824H852.509V207.096ZM859.817 198.632C858.905 198.632 857.865 198.872 856.681 199.464L857.273 200.632C857.993 200.264 858.777 199.944 859.593 199.944C861.241 199.944 861.721 201.048 861.721 202.088V202.344C860.921 202.072 860.041 201.896 859.225 201.896C857.401 201.896 855.913 203 855.913 204.648C855.913 206.264 857.225 207.288 858.969 207.288C859.993 207.288 861.113 206.824 861.721 205.976V207.096H863.273V202.088C863.273 200.04 862.041 198.632 859.817 198.632ZM859.289 206.04C858.233 206.04 857.433 205.496 857.433 204.6C857.433 203.704 858.361 203.08 859.465 203.08C860.281 203.08 861.033 203.192 861.721 203.4V204.504C861.449 205.528 860.313 206.04 859.289 206.04Z" fill="black"/>
<path d="M825.222 455.549H827.014L822.294 444.557H820.502L815.782 455.549H817.574L818.55 453.261H824.246L825.222 455.549ZM819.158 451.853L821.398 446.637L823.638 451.853H819.158ZM834.262 447.277V452.413C834.262 453.501 833.254 454.365 831.99 454.365C830.87 454.365 830.086 453.517 830.086 452.269V447.277H828.534V452.541C828.534 454.445 829.798 455.741 831.622 455.741C832.758 455.741 833.766 455.181 834.262 454.365V455.549H835.846V447.277H834.262ZM841.18 455.741C843.004 455.741 844.316 454.749 844.316 453.181C844.316 451.533 842.876 451.085 841.516 450.685C840.108 450.253 839.548 450.061 839.548 449.421C839.548 448.733 840.22 448.365 841.052 448.365C841.804 448.365 842.636 448.653 843.452 449.165L844.108 448.045C843.228 447.453 842.124 447.085 841.052 447.085C839.308 447.085 838.044 448.077 838.044 449.597C838.044 450.941 839.004 451.485 840.892 452.013C841.948 452.301 842.812 452.557 842.812 453.341C842.812 454.013 842.188 454.461 841.196 454.461C840.284 454.461 839.292 454.093 838.38 453.421L837.66 454.509C838.652 455.309 839.964 455.741 841.18 455.741ZM849.777 454.061C849.617 454.237 849.297 454.365 848.945 454.365C848.481 454.365 848.081 453.949 848.081 453.373V448.621H850.033V447.277H848.081V445.005H846.529V447.277H845.297V448.621H846.529V453.485C846.529 454.813 847.425 455.741 848.705 455.741C849.297 455.741 849.921 455.517 850.369 455.149L849.777 454.061ZM853.606 448.893V447.277H852.022V455.549H853.606V451.149C853.606 449.549 854.854 448.461 856.678 448.461V447.085C855.238 447.085 854.118 447.789 853.606 448.893ZM861.674 447.085C860.762 447.085 859.722 447.325 858.538 447.917L859.13 449.085C859.85 448.717 860.634 448.397 861.45 448.397C863.098 448.397 863.578 449.501 863.578 450.541V450.797C862.778 450.525 861.898 450.349 861.082 450.349C859.258 450.349 857.77 451.453 857.77 453.101C857.77 454.717 859.082 455.741 860.826 455.741C861.85 455.741 862.97 455.277 863.578 454.429V455.549H865.13V450.541C865.13 448.493 863.898 447.085 861.674 447.085ZM861.146 454.493C860.09 454.493 859.29 453.949 859.29 453.053C859.29 452.157 860.218 451.533 861.322 451.533C862.138 451.533 862.89 451.645 863.578 451.853V452.957C863.306 453.981 862.17 454.493 861.146 454.493ZM867.553 455.549H869.137V444.365H867.553V455.549ZM872.525 445.901C873.053 445.901 873.469 445.453 873.469 444.941C873.469 444.445 873.053 443.997 872.525 443.997C871.997 443.997 871.565 444.445 871.565 444.941C871.565 445.453 871.997 445.901 872.525 445.901ZM871.725 455.549H873.309V447.277H871.725V455.549ZM879.033 447.085C878.121 447.085 877.081 447.325 875.897 447.917L876.489 449.085C877.209 448.717 877.993 448.397 878.809 448.397C880.457 448.397 880.937 449.501 880.937 450.541V450.797C880.137 450.525 879.257 450.349 878.441 450.349C876.617 450.349 875.129 451.453 875.129 453.101C875.129 454.717 876.441 455.741 878.185 455.741C879.209 455.741 880.329 455.277 880.937 454.429V455.549H882.489V450.541C882.489 448.493 881.257 447.085 879.033 447.085ZM878.505 454.493C877.449 454.493 876.649 453.949 876.649 453.053C876.649 452.157 877.577 451.533 878.681 451.533C879.497 451.533 880.249 451.645 880.937 451.853V452.957C880.665 453.981 879.529 454.493 878.505 454.493ZM821.028 476.069L819.22 474.229C819.78 473.445 820.292 472.533 820.756 471.525L819.492 470.949C819.172 471.797 818.772 472.581 818.308 473.269C817.412 472.325 816.724 471.557 816.068 470.805C817.7 470.101 818.692 469.429 818.692 468.053C818.692 466.597 817.508 465.429 815.924 465.429C814.244 465.429 813.028 466.597 813.028 468.069C813.028 468.885 813.284 469.573 813.908 470.437C812.212 471.189 811.428 472.181 811.428 473.605C811.428 475.557 812.964 476.741 814.964 476.741C816.292 476.741 817.364 476.213 818.276 475.333C818.676 475.749 819.124 476.213 819.62 476.709L821.028 476.069ZM815.94 466.693C816.692 466.693 817.22 467.301 817.22 468.069C817.22 468.917 816.644 469.349 815.3 469.877C814.756 469.189 814.484 468.629 814.484 468.069C814.484 467.221 815.124 466.693 815.94 466.693ZM815.092 475.429C813.956 475.429 813.012 474.725 813.012 473.541C813.012 472.645 813.604 471.941 814.66 471.413C815.348 472.229 816.164 473.141 817.364 474.389C816.676 475.029 815.908 475.429 815.092 475.429ZM832.809 476.741C835.913 476.741 838.505 474.133 838.505 471.045C838.505 467.957 835.913 465.365 832.809 465.365C829.737 465.365 827.113 467.957 827.113 471.045C827.113 474.133 829.737 476.741 832.809 476.741ZM832.809 475.253C830.617 475.253 828.761 473.333 828.761 471.045C828.761 468.773 830.617 466.853 832.809 466.853C835.001 466.853 836.857 468.773 836.857 471.045C836.857 473.333 835.001 475.253 832.809 475.253ZM844.335 476.741C845.567 476.741 846.639 476.229 847.439 475.413L846.367 474.437C845.839 475.013 845.103 475.365 844.335 475.365C842.831 475.365 841.567 474.021 841.567 472.405C841.567 470.805 842.831 469.461 844.335 469.461C845.087 469.461 845.807 469.797 846.319 470.357L847.391 469.365C846.591 468.581 845.535 468.085 844.335 468.085C841.983 468.085 839.967 470.053 839.967 472.405C839.967 474.757 841.967 476.741 844.335 476.741ZM852.692 475.429C851.22 475.429 850.196 474.373 850.004 472.917H856.612C856.612 469.973 855.14 468.085 852.612 468.085C850.324 468.085 848.452 469.909 848.452 472.389C848.452 474.933 850.436 476.741 852.724 476.741C853.892 476.741 855.348 476.245 856.068 475.461L855.14 474.485C854.628 475.029 853.588 475.429 852.692 475.429ZM852.644 469.397C854.084 469.397 854.916 470.421 855.076 471.749H850.02C850.26 470.325 851.316 469.397 852.644 469.397ZM861.603 468.085C860.691 468.085 859.651 468.325 858.467 468.917L859.059 470.085C859.779 469.717 860.563 469.397 861.379 469.397C863.027 469.397 863.507 470.501 863.507 471.541V471.797C862.707 471.525 861.827 471.349 861.011 471.349C859.187 471.349 857.699 472.453 857.699 474.101C857.699 475.717 859.011 476.741 860.755 476.741C861.779 476.741 862.899 476.277 863.507 475.429V476.549H865.059V471.541C865.059 469.493 863.827 468.085 861.603 468.085ZM861.075 475.493C860.019 475.493 859.219 474.949 859.219 474.053C859.219 473.157 860.147 472.533 861.251 472.533C862.067 472.533 862.819 472.645 863.507 472.853V473.957C863.235 474.981 862.099 475.493 861.075 475.493ZM871.707 468.085C870.571 468.085 869.547 468.661 869.067 469.493V468.277H867.483V476.549H869.067V471.413C869.067 470.325 870.091 469.461 871.355 469.461C872.475 469.461 873.259 470.309 873.259 471.557V476.549H874.795V471.285C874.795 469.381 873.531 468.085 871.707 468.085ZM878.017 466.901C878.545 466.901 878.961 466.453 878.961 465.941C878.961 465.445 878.545 464.997 878.017 464.997C877.489 464.997 877.057 465.445 877.057 465.941C877.057 466.453 877.489 466.901 878.017 466.901ZM877.217 476.549H878.801V468.277H877.217V476.549ZM885.069 476.741C886.301 476.741 887.373 476.229 888.173 475.413L887.101 474.437C886.573 475.013 885.837 475.365 885.069 475.365C883.565 475.365 882.301 474.021 882.301 472.405C882.301 470.805 883.565 469.461 885.069 469.461C885.821 469.461 886.541 469.797 887.053 470.357L888.125 469.365C887.325 468.581 886.269 468.085 885.069 468.085C882.717 468.085 880.701 470.053 880.701 472.405C880.701 474.757 882.701 476.741 885.069 476.741Z" fill="black"/>
<g filter="url(#filter11_d_2218_111)">
<path d="M539.145 272.117H473V313.893H521.096L539.145 338.215V313.893V272.117Z" fill="#00622B"/>
</g>
<path d="M487.914 299.535H490.854V285.795H488.494L484.374 288.555L485.574 290.635L487.914 289.175V299.535ZM495.967 299.775C496.947 299.775 497.747 298.935 497.747 297.915C497.747 296.975 496.947 296.135 495.967 296.135C494.907 296.135 494.107 296.975 494.107 297.915C494.107 298.935 494.907 299.775 495.967 299.775ZM505.424 285.555C502.424 285.555 500.164 287.495 500.164 290.315C500.164 293.035 502.264 294.675 504.804 294.675C506.104 294.675 507.364 294.175 508.204 293.355C507.944 295.675 506.744 297.175 504.944 297.175C503.784 297.175 502.984 296.755 502.144 296.055L500.744 298.295C501.864 299.195 503.244 299.775 504.944 299.775C508.764 299.775 511.264 296.715 511.264 292.435C511.264 288.435 509.424 285.555 505.424 285.555ZM505.664 292.275C504.324 292.275 503.204 291.495 503.204 290.175C503.204 289.075 504.124 288.055 505.584 288.055C507.124 288.055 507.864 288.995 508.124 290.675C507.704 291.655 506.784 292.275 505.664 292.275ZM516.793 292.695C518.813 292.695 520.233 291.155 520.233 289.175C520.233 287.235 518.873 285.655 516.793 285.655C514.733 285.655 513.373 287.215 513.373 289.195C513.373 291.155 514.733 292.695 516.793 292.695ZM515.173 299.535H517.473L527.033 285.795H524.713L515.173 299.535ZM516.793 290.975C515.973 290.975 515.333 290.255 515.333 289.175C515.333 288.095 515.933 287.395 516.793 287.395C517.633 287.395 518.253 288.115 518.253 289.175C518.253 290.275 517.633 290.975 516.793 290.975ZM525.373 299.755C527.393 299.755 528.793 298.215 528.793 296.235C528.793 294.295 527.453 292.715 525.373 292.715C523.333 292.715 521.933 294.275 521.933 296.235C521.933 298.195 523.333 299.755 525.373 299.755ZM525.373 298.015C524.533 298.015 523.913 297.295 523.913 296.235C523.913 295.135 524.513 294.435 525.373 294.435C526.193 294.435 526.833 295.155 526.833 296.235C526.833 297.315 526.233 298.015 525.373 298.015Z" fill="white"/>
<g filter="url(#filter12_d_2218_111)">
<path d="M539 284.006H602V315.43H555.628L539 337.838V315.43V284.006Z" fill="#00A941"/>
</g>
<path d="M554.287 306.759C557.636 306.759 559.985 304.04 559.985 300.173C559.985 296.325 557.636 293.606 554.287 293.606C550.939 293.606 548.571 296.325 548.571 300.173C548.571 304.04 550.939 306.759 554.287 306.759ZM554.287 304.28C552.585 304.28 551.383 302.56 551.383 300.173C551.383 297.787 552.585 296.085 554.287 296.085C555.989 296.085 557.192 297.787 557.192 300.173C557.192 302.56 555.989 304.28 554.287 304.28ZM564.053 306.759C564.96 306.759 565.7 305.982 565.7 305.039C565.7 304.169 564.96 303.392 564.053 303.392C563.073 303.392 562.333 304.169 562.333 305.039C562.333 305.982 563.073 306.759 564.053 306.759ZM574.188 306.537H576.907V303.947H578.591V301.653H576.907V293.846H573.614L567.713 301.838L567.972 303.947H574.188V306.537ZM570.58 301.653L574.188 296.732V301.653H570.58ZM583.371 300.21C585.24 300.21 586.553 298.786 586.553 296.954C586.553 295.16 585.295 293.698 583.371 293.698C581.466 293.698 580.208 295.141 580.208 296.973C580.208 298.786 581.466 300.21 583.371 300.21ZM581.873 306.537H584L592.843 293.828H590.697L581.873 306.537ZM583.371 298.619C582.613 298.619 582.021 297.953 582.021 296.954C582.021 295.955 582.576 295.308 583.371 295.308C584.148 295.308 584.722 295.974 584.722 296.954C584.722 297.972 584.148 298.619 583.371 298.619ZM591.308 306.741C593.176 306.741 594.471 305.316 594.471 303.485C594.471 301.69 593.232 300.229 591.308 300.229C589.421 300.229 588.126 301.672 588.126 303.485C588.126 305.298 589.421 306.741 591.308 306.741ZM591.308 305.131C590.531 305.131 589.957 304.465 589.957 303.485C589.957 302.467 590.512 301.82 591.308 301.82C592.066 301.82 592.658 302.486 592.658 303.485C592.658 304.484 592.103 305.131 591.308 305.131Z" fill="white"/>
<defs>
<filter id="filter0_d_2218_111" x="846.091" y="133.487" width="62.215" height="52.1915" filterUnits="userSpaceOnUse" color-interpolation-filters="sRGB">
<feFlood flood-opacity="0" result="BackgroundImageFix"/>
<feColorMatrix in="SourceAlpha" type="matrix" values="0 0 0 0 0 0 0 0 0 0 0 0 0 0 0 0 0 0 127 0" result="hardAlpha"/>
<feOffset dy="1.24537"/>
<feGaussianBlur stdDeviation="0.778356"/>
<feComposite in2="hardAlpha" operator="out"/>
<feColorMatrix type="matrix" values="0 0 0 0 0 0 0 0 0 0 0 0 0 0 0 0 0 0 0.1 0"/>
<feBlend mode="normal" in2="BackgroundImageFix" result="effect1_dropShadow_2218_111"/>
<feBlend mode="normal" in="SourceGraphic" in2="effect1_dropShadow_2218_111" result="shape"/>
</filter>
<filter id="filter1_d_2218_111" x="763.701" y="113.242" width="86.2376" height="73.7723" filterUnits="userSpaceOnUse" color-interpolation-filters="sRGB">
<feFlood flood-opacity="0" result="BackgroundImageFix"/>
<feColorMatrix in="SourceAlpha" type="matrix" values="0 0 0 0 0 0 0 0 0 0 0 0 0 0 0 0 0 0 127 0" result="hardAlpha"/>
<feOffset dy="1.83859"/>
<feGaussianBlur stdDeviation="1.14912"/>
<feComposite in2="hardAlpha" operator="out"/>
<feColorMatrix type="matrix" values="0 0 0 0 0 0 0 0 0 0 0 0 0 0 0 0 0 0 0.1 0"/>
<feBlend mode="normal" in2="BackgroundImageFix" result="effect1_dropShadow_2218_111"/>
<feBlend mode="normal" in="SourceGraphic" in2="effect1_dropShadow_2218_111" result="shape"/>
</filter>
<filter id="filter2_d_2218_111" x="776.227" y="360.474" width="74.3161" height="70.1149" filterUnits="userSpaceOnUse" color-interpolation-filters="sRGB">
<feFlood flood-opacity="0" result="BackgroundImageFix"/>
<feColorMatrix in="SourceAlpha" type="matrix" values="0 0 0 0 0 0 0 0 0 0 0 0 0 0 0 0 0 0 127 0" result="hardAlpha"/>
<feOffset dy="1.61317"/>
<feGaussianBlur stdDeviation="1.00823"/>
<feComposite in2="hardAlpha" operator="out"/>
<feColorMatrix type="matrix" values="0 0 0 0 0 0 0 0 0 0 0 0 0 0 0 0 0 0 0.1 0"/>
<feBlend mode="normal" in2="BackgroundImageFix" result="effect1_dropShadow_2218_111"/>
<feBlend mode="normal" in="SourceGraphic" in2="effect1_dropShadow_2218_111" result="shape"/>
</filter>
<filter id="filter3_d_2218_111" x="846.865" y="370.68" width="62.818" height="60.1813" filterUnits="userSpaceOnUse" color-interpolation-filters="sRGB">
<feFlood flood-opacity="0" result="BackgroundImageFix"/>
<feColorMatrix in="SourceAlpha" type="matrix" values="0 0 0 0 0 0 0 0 0 0 0 0 0 0 0 0 0 0 127 0" result="hardAlpha"/>
<feOffset dy="1.32878"/>
<feGaussianBlur stdDeviation="0.830488"/>
<feComposite in2="hardAlpha" operator="out"/>
<feColorMatrix type="matrix" values="0 0 0 0 0 0 0 0 0 0 0 0 0 0 0 0 0 0 0.1 0"/>
<feBlend mode="normal" in2="BackgroundImageFix" result="effect1_dropShadow_2218_111"/>
<feBlend mode="normal" in="SourceGraphic" in2="effect1_dropShadow_2218_111" result="shape"/>
</filter>
<filter id="filter4_d_2218_111" x="244.782" y="343.187" width="68.7155" height="58.6335" filterUnits="userSpaceOnUse" color-interpolation-filters="sRGB">
<feFlood flood-opacity="0" result="BackgroundImageFix"/>
<feColorMatrix in="SourceAlpha" type="matrix" values="0 0 0 0 0 0 0 0 0 0 0 0 0 0 0 0 0 0 127 0" result="hardAlpha"/>
<feOffset dy="1.07215"/>
<feGaussianBlur stdDeviation="0.670092"/>
<feComposite in2="hardAlpha" operator="out"/>
<feColorMatrix type="matrix" values="0 0 0 0 0 0 0 0 0 0 0 0 0 0 0 0 0 0 0.1 0"/>
<feBlend mode="normal" in2="BackgroundImageFix" result="effect1_dropShadow_2218_111"/>
<feBlend mode="normal" in="SourceGraphic" in2="effect1_dropShadow_2218_111" result="shape"/>
</filter>
<filter id="filter5_d_2218_111" x="310.601" y="353.64" width="45.1061" height="49.4415" filterUnits="userSpaceOnUse" color-interpolation-filters="sRGB">
<feFlood flood-opacity="0" result="BackgroundImageFix"/>
<feColorMatrix in="SourceAlpha" type="matrix" values="0 0 0 0 0 0 0 0 0 0 0 0 0 0 0 0 0 0 127 0" result="hardAlpha"/>
<feOffset dy="1.24537"/>
<feGaussianBlur stdDeviation="0.778356"/>
<feComposite in2="hardAlpha" operator="out"/>
<feColorMatrix type="matrix" values="0 0 0 0 0 0 0 0 0 0 0 0 0 0 0 0 0 0 0.1 0"/>
<feBlend mode="normal" in2="BackgroundImageFix" result="effect1_dropShadow_2218_111"/>
<feBlend mode="normal" in="SourceGraphic" in2="effect1_dropShadow_2218_111" result="shape"/>
</filter>
<filter id="filter6_d_2218_111" x="310.601" y="351.695" width="59.4552" height="51.3869" filterUnits="userSpaceOnUse" color-interpolation-filters="sRGB">
<feFlood flood-opacity="0" result="BackgroundImageFix"/>
<feColorMatrix in="SourceAlpha" type="matrix" values="0 0 0 0 0 0 0 0 0 0 0 0 0 0 0 0 0 0 127 0" result="hardAlpha"/>
<feOffset dy="1.24537"/>
<feGaussianBlur stdDeviation="0.778356"/>
<feComposite in2="hardAlpha" operator="out"/>
<feColorMatrix type="matrix" values="0 0 0 0 0 0 0 0 0 0 0 0 0 0 0 0 0 0 0.1 0"/>
<feBlend mode="normal" in2="BackgroundImageFix" result="effect1_dropShadow_2218_111"/>
<feBlend mode="normal" in="SourceGraphic" in2="effect1_dropShadow_2218_111" result="shape"/>
</filter>
<filter id="filter7_d_2218_111" x="123.117" y="132.784" width="67.7911" height="69.7823" filterUnits="userSpaceOnUse" color-interpolation-filters="sRGB">
<feFlood flood-opacity="0" result="BackgroundImageFix"/>
<feColorMatrix in="SourceAlpha" type="matrix" values="0 0 0 0 0 0 0 0 0 0 0 0 0 0 0 0 0 0 127 0" result="hardAlpha"/>
<feOffset dy="1.88713"/>
<feGaussianBlur stdDeviation="1.17945"/>
<feComposite in2="hardAlpha" operator="out"/>
<feColorMatrix type="matrix" values="0 0 0 0 0 0 0 0 0 0 0 0 0 0 0 0 0 0 0.1 0"/>
<feBlend mode="normal" in2="BackgroundImageFix" result="effect1_dropShadow_2218_111"/>
<feBlend mode="normal" in="SourceGraphic" in2="effect1_dropShadow_2218_111" result="shape"/>
</filter>
<filter id="filter8_d_2218_111" x="185.796" y="124.205" width="79.8031" height="79.7142" filterUnits="userSpaceOnUse" color-interpolation-filters="sRGB">
<feFlood flood-opacity="0" result="BackgroundImageFix"/>
<feColorMatrix in="SourceAlpha" type="matrix" values="0 0 0 0 0 0 0 0 0 0 0 0 0 0 0 0 0 0 127 0" result="hardAlpha"/>
<feOffset dy="2.2021"/>
<feGaussianBlur stdDeviation="1.37631"/>
<feComposite in2="hardAlpha" operator="out"/>
<feColorMatrix type="matrix" values="0 0 0 0 0 0 0 0 0 0 0 0 0 0 0 0 0 0 0.1 0"/>
<feBlend mode="normal" in2="BackgroundImageFix" result="effect1_dropShadow_2218_111"/>
<feBlend mode="normal" in="SourceGraphic" in2="effect1_dropShadow_2218_111" result="shape"/>
</filter>
<filter id="filter9_d_2218_111" x="502.554" y="20.6016" width="145.381" height="145.734" filterUnits="userSpaceOnUse" color-interpolation-filters="sRGB">
<feFlood flood-opacity="0" result="BackgroundImageFix"/>
<feColorMatrix in="SourceAlpha" type="matrix" values="0 0 0 0 0 0 0 0 0 0 0 0 0 0 0 0 0 0 127 0" result="hardAlpha"/>
<feOffset dy="3.82799"/>
<feGaussianBlur stdDeviation="2.3925"/>
<feComposite in2="hardAlpha" operator="out"/>
<feColorMatrix type="matrix" values="0 0 0 0 0 0 0 0 0 0 0 0 0 0 0 0 0 0 0.1 0"/>
<feBlend mode="normal" in2="BackgroundImageFix" result="effect1_dropShadow_2218_111"/>
<feBlend mode="normal" in="SourceGraphic" in2="effect1_dropShadow_2218_111" result="shape"/>
</filter>
<filter id="filter10_d_2218_111" x="385.23" y="50.9888" width="125.632" height="113.077" filterUnits="userSpaceOnUse" color-interpolation-filters="sRGB">
<feFlood flood-opacity="0" result="BackgroundImageFix"/>
<feColorMatrix in="SourceAlpha" type="matrix" values="0 0 0 0 0 0 0 0 0 0 0 0 0 0 0 0 0 0 127 0" result="hardAlpha"/>
<feOffset dy="2.81814"/>
<feGaussianBlur stdDeviation="1.76134"/>
<feComposite in2="hardAlpha" operator="out"/>
<feColorMatrix type="matrix" values="0 0 0 0 0 0 0 0 0 0 0 0 0 0 0 0 0 0 0.1 0"/>
<feBlend mode="normal" in2="BackgroundImageFix" result="effect1_dropShadow_2218_111"/>
<feBlend mode="normal" in="SourceGraphic" in2="effect1_dropShadow_2218_111" result="shape"/>
</filter>
<filter id="filter11_d_2218_111" x="470.895" y="271.696" width="70.3554" height="70.3075" filterUnits="userSpaceOnUse" color-interpolation-filters="sRGB">
<feFlood flood-opacity="0" result="BackgroundImageFix"/>
<feColorMatrix in="SourceAlpha" type="matrix" values="0 0 0 0 0 0 0 0 0 0 0 0 0 0 0 0 0 0 127 0" result="hardAlpha"/>
<feOffset dy="1.68395"/>
<feGaussianBlur stdDeviation="1.05247"/>
<feComposite in2="hardAlpha" operator="out"/>
<feColorMatrix type="matrix" values="0 0 0 0 0 0 0 0 0 0 0 0 0 0 0 0 0 0 0.1 0"/>
<feBlend mode="normal" in2="BackgroundImageFix" result="effect1_dropShadow_2218_111"/>
<feBlend mode="normal" in="SourceGraphic" in2="effect1_dropShadow_2218_111" result="shape"/>
</filter>
<filter id="filter12_d_2218_111" x="536.976" y="283.601" width="67.0462" height="57.8782" filterUnits="userSpaceOnUse" color-interpolation-filters="sRGB">
<feFlood flood-opacity="0" result="BackgroundImageFix"/>
<feColorMatrix in="SourceAlpha" type="matrix" values="0 0 0 0 0 0 0 0 0 0 0 0 0 0 0 0 0 0 127 0" result="hardAlpha"/>
<feOffset dy="1.61847"/>
<feGaussianBlur stdDeviation="1.01154"/>
<feComposite in2="hardAlpha" operator="out"/>
<feColorMatrix type="matrix" values="0 0 0 0 0 0 0 0 0 0 0 0 0 0 0 0 0 0 0.1 0"/>
<feBlend mode="normal" in2="BackgroundImageFix" result="effect1_dropShadow_2218_111"/>
<feBlend mode="normal" in="SourceGraphic" in2="effect1_dropShadow_2218_111" result="shape"/>
</filter>
<clipPath id="clip0_2218_111">
<rect width="1027" height="516" fill="white" transform="translate(-0.000488281 0.701172)"/>
</clipPath>
</defs>
</svg>
