<svg width="372" height="82" fill="none" xmlns="http://www.w3.org/2000/svg"><g clip-path="url(#clip0_2355_4155)" fill="#006CE3"><path d="M302.518 54.615h-11.454V81.44h26.702V69.965h-15.248v-15.35zm57.336.07v15.28h-15.178l-.137-.137V81.44h26.769V54.615h-11.52l.071.07h-.005zm-68.79-26.892h11.52l-.07-.07v-15.28h15.177l.071.137V.967H291.06v26.826h.004zM344.535.967v11.476h15.319v15.35h11.454V.967h-26.773z"/><path opacity=".8" d="M343.148 27.793l-15.319-15.35h16.698V.967h-26.769V12.58l15.248 15.208h10.142v.005zm-13.799 26.826h-10.142l12.695 12.722 2.624 2.628h-16.768v11.476h26.769V69.832l-7.589-7.606-7.589-7.607zm30.497-26.826v16.733l-2.624-2.629-12.695-12.65V39.41l7.659 7.607 7.589 7.606h11.52v-26.83h-11.454.005zm-42.088 15.209l-15.178-15.21h-11.591V54.62h11.521V37.886l15.248 15.28V43.002z"/><path d="M.406 70.12c0-6.397 5.6-11.768 12.267-11.768 3.547 0 6.762 1.524 9.015 3.913l-4.143 3.68c-1.162-1.493-2.951-2.452-4.873-2.452-3.48 0-6.431 3.048-6.431 6.63 0 3.583 2.95 6.662 6.431 6.662 1.957 0 3.711-.963 4.908-2.452l4.113 3.645c-2.253 2.42-5.469 3.944-9.016 3.944C6.016 81.922.41 76.52.41 70.124l-.004-.005zm41.6 6.329v5.071h-16.64V58.75h5.668v17.7h10.973zm2.556-6.33c0-6.396 5.601-11.767 12.267-11.767 6.665 0 12.231 5.371 12.231 11.767 0 6.396-5.6 11.799-12.231 11.799-6.63 0-12.267-5.403-12.267-11.799zm18.663 0c0-3.578-2.915-6.63-6.396-6.63s-6.432 3.048-6.432 6.63c0 3.583 2.951 6.661 6.432 6.661 3.48 0 6.396-3.047 6.396-6.66zm9.439 1.427V58.749h5.667v12.532c0 3.216 2.054 5.504 4.907 5.504 2.854 0 4.939-2.288 4.939-5.504V58.749h5.636v12.797c0 6.1-4.342 10.376-10.575 10.376-6.232 0-10.574-4.276-10.574-10.376zm25.991-12.797h8.322c7.823 0 13.358 4.709 13.358 11.37S114.8 81.52 106.977 81.52h-8.322V58.75zm9.184 17.634c3.913 0 6.661-2.62 6.661-6.264s-2.752-6.233-6.661-6.233h-3.512v12.497h3.512zm25.512-17.634h5.667l9.943 13.46v-13.46h5.637V81.52h-5.637l-9.943-13.46v13.46h-5.667V58.75zm41.405 19.295h-8.883l-1.392 3.48h-6.365l9.016-22.77h6.365l9.016 22.77h-6.365l-1.392-3.48zm-1.692-4.276l-2.752-6.992-2.752 6.992h5.504zm18.291-9.948h-6.895V58.75h19.489v5.071h-6.926v17.7h-5.668v-17.7zm16.371-5.071h5.667V81.52h-5.667V58.75zm33.592 0l-8.985 22.771h-6.396l-8.985-22.771h6.365l5.836 14.683 5.8-14.683h6.365zm9.207 5.071v3.547h11.136v5.071h-11.136v4.011h12.267v5.071h-17.934V58.75h17.934v5.071h-12.267zM32.924 1.555v40.692h-3.79V23.349H4.313v18.898H.523V1.555h3.79v18.124h24.82V1.555h3.79zM69.59 11.622v30.625h-3.67v-5.093c-1.657 3.436-5.566 5.804-10.072 5.804-6.811 0-11.49-4.74-11.49-11.67V11.622h3.672v19.193c0 5.213 3.436 8.768 8.29 8.768 5.39 0 9.595-3.67 9.595-8.472V11.622h3.675zm54.081 11.136v19.665H120V23.23c0-5.154-3.14-8.768-7.522-8.768-5.036 0-8.587 3.437-8.587 8.291V42.42h-3.671V23.231c0-5.155-3.14-8.769-7.58-8.769-5.036 0-8.587 3.437-8.587 8.291v19.49h-3.671V11.621h3.67v4.74c1.48-3.198 4.86-5.27 9.122-5.27 4.797 0 8.587 2.845 10.01 7.284.83-4.325 4.74-7.284 9.771-7.284 6.277 0 10.721 4.859 10.721 11.67l-.005-.004zm32.991.83v18.659h-3.67v-4.86c-2.253 3.614-7.108 5.567-11.255 5.567-6.397 0-11.136-3.852-11.136-9.776 0-5.923 5.269-10.186 12.143-10.186 3.317 0 6.988.768 10.248 1.837v-1.245c0-4.501-2.015-9.418-8.883-9.418-3.079 0-6.277 1.184-9.065 2.726l-1.479-3.022c4.028-2.133 7.818-2.964 10.84-2.964 8.057 0 12.262 5.27 12.262 12.678l-.005.004zm-3.67 9.065v-4.917c-2.902-.888-6.277-1.542-9.714-1.542-5.093 0-9.064 2.845-9.064 6.812s3.556 6.635 8.114 6.635c4.263 0 9.48-2.253 10.664-6.988zm38.922-10.072v19.665h-3.671V23.053c0-5.212-3.437-8.768-8.291-8.768-5.389 0-9.595 3.67-9.595 8.472v19.49h-3.67V11.62h3.67v5.094c1.657-3.437 5.566-5.805 10.072-5.805 6.811 0 11.489 4.74 11.489 11.67h-.004zm6.569 15.813l2.015-2.725c3.494 2.549 7.226 3.91 10.663 3.91 4.263 0 7.346-2.134 7.346-5.094 0-3.317-3.198-4.74-8.115-6.22-7.346-2.133-10.186-4.443-10.186-8.768 0-5.093 4.621-8.587 10.482-8.587 3.733 0 7.7 1.303 10.96 3.437l-1.838 2.845c-3.021-1.896-6.22-2.903-9.122-2.903-3.732 0-6.811 1.838-6.811 4.798 0 2.782 2.368 4.028 8.291 5.98 5.685 1.776 10.01 3.733 10.01 9.065 0 5.331-4.859 8.826-11.017 8.826-4.267 0-9.002-1.657-12.678-4.564zm36.226-2.434c0-5.53 4.709-10.173 10.301-10.173 3.759 0 6.918 3.159 6.918 6.918 0 5.495-4.74 10.172-10.332 10.172-3.729 0-6.887-3.158-6.887-6.917zm15.637-3.127c0-3.035-2.527-5.593-5.53-5.593-4.643 0-8.53 3.95-8.53 8.623 0 3 2.496 5.561 5.495 5.561 4.643 0 8.561-3.949 8.561-8.591h.004zm15.79-12.006l-.981 1.104c-.442-.503-1.135-.729-1.767-.729-1.453 0-2.624 1.202-2.937 2.779l-.442 2.182h4.391l-.314 1.453h-4.391l-3.096 14.882h-1.546l3.096-14.882h-2.747l.282-1.453h2.779l.473-2.306c.503-2.434 2.274-4.108 4.298-4.108 1.17 0 2.146.41 2.906 1.073l-.004.005z"/></g><defs><clipPath id="clip0_2355_4155"><path fill="#fff" transform="translate(.402 .923)" d="M0 0H371.135V80.999H0z"/></clipPath></defs></svg>