<svg width="64" height="46" fill="none" xmlns="http://www.w3.org/2000/svg"><path d="M32.169 43.437c-6.74 0-18.757-.586-23.74-1.759-2.05-.586-3.516-2.051-4.102-4.103-.88-3.223-1.466-9.964-1.466-14.653 0-4.69.586-11.43 1.466-14.654.586-2.052 2.051-3.517 4.103-4.103 4.982-1.172 16.998-1.759 23.739-1.759 6.74 0 18.757.587 23.739 1.759 2.051.586 3.517 2.051 4.103 4.103.88 3.224 1.465 9.965 1.465 14.654s-.586 11.43-1.465 14.653c-.586 2.052-2.052 3.517-4.103 4.103-4.982 1.173-16.998 1.759-23.74 1.759z" stroke="#000" stroke-width="4.274" stroke-linecap="round" stroke-linejoin="round"/><path d="M26.308 31.714L40.96 22.92 26.308 14.13v17.585z" stroke="#000" stroke-width="4.274" stroke-linecap="round" stroke-linejoin="round"/></svg>