<svg width="113" height="66" fill="none" xmlns="http://www.w3.org/2000/svg"><path d="M83.161 62.771v-6.517a13.036 13.036 0 0 0-9.777-12.612" stroke="#000" stroke-width="6.4" stroke-linecap="round" stroke-linejoin="round"/><path d="M109.206 62.771v-6.517a13.038 13.038 0 0 0-9.777-12.612" stroke="#747474" stroke-width="6.4" stroke-linecap="round" stroke-linejoin="round"/><path d="M60.349 4.536a13.036 13.036 0 0 1 0 25.257" stroke="#000" stroke-width="6.4" stroke-linecap="round" stroke-linejoin="round"/><path d="M86.394 4.536a13.036 13.036 0 0 1 0 25.257" stroke="#747474" stroke-width="6.4" stroke-linecap="round" stroke-linejoin="round"/><path d="M55.46 62.773v-6.518A13.036 13.036 0 0 0 42.425 43.22H16.354A13.035 13.035 0 0 0 3.318 56.255v6.518m26.071-32.591c7.2 0 13.036-5.837 13.036-13.036 0-7.2-5.836-13.036-13.036-13.036-7.2 0-13.035 5.837-13.035 13.036 0 7.2 5.836 13.036 13.035 13.036z" stroke="#F36A11" stroke-width="6.4" stroke-linecap="round" stroke-linejoin="round"/></svg>