<svg width="27" height="23" fill="none" xmlns="http://www.w3.org/2000/svg"><path d="M4.909 11.041v7.348c0 .487.232.954.645 1.298.414.345.974.538 1.559.538h13.225c.585 0 1.146-.193 1.56-.538.413-.344.645-.811.645-1.298V11.04H4.909z" stroke="#000" stroke-width="1.5" stroke-linecap="round" stroke-linejoin="round"/><path d="M4.909 11.04l-.97-2.635a1.547 1.547 0 0 1-.087-.714 1.62 1.62 0 0 1 .248-.688c.136-.213.322-.402.545-.555.224-.154.482-.27.76-.34l12.652-3.214a2.604 2.604 0 0 1 1.679.131c.517.227.904.616 1.076 1.081l.96 2.636L4.908 11.05v-.01zm2.865-5.519L11.5 9.38m2.071-5.336L17.297 7.9" stroke="#000" stroke-width="1.5" stroke-linecap="round" stroke-linejoin="round"/></svg>