<svg xmlns="http://www.w3.org/2000/svg" viewBox="-20.44 -20.44 1062.88 449.88"><defs><style>.cls-3{fill:#fff}</style></defs><path fill="#111" d="M349.18 381q-16.28 0-27.71-5A47.72 47.72 0 0 1 303 362.34a54.84 54.84 0 0 1-10.26-20.4 95.33 95.33 0 0 1-3.19-25.12V214h16v100.69a75.53 75.53 0 0 0 3.19 23.24 44.82 44.82 0 0 0 8.84 16.15 34.55 34.55 0 0 0 13.68 9.44 53.89 53.89 0 0 0 35.86 0 34.55 34.55 0 0 0 13.68-9.44 44.82 44.82 0 0 0 8.84-16.15 75.53 75.53 0 0 0 3.19-23.24V214h16v102.82a95.33 95.33 0 0 1-3.19 25.12 54.84 54.84 0 0 1-10.26 20.4A47.72 47.72 0 0 1 376.89 376q-11.43 5-27.71 5zm112.3-118.2q4-3.06 12.85-6.48a57.83 57.83 0 0 1 20.88-3.42 55.65 55.65 0 0 1 23.46 4.71A48.88 48.88 0 0 1 536 270.82 58.27 58.27 0 0 1 546.74 291a85.17 85.17 0 0 1 3.66 25.59 76.59 76.59 0 0 1-4.4 26.64 57.39 57.39 0 0 1-12.27 20 52.74 52.74 0 0 1-18.83 12.67 65.49 65.49 0 0 1-24.41 4.37q-16.28 0-26.89-2.13a137.39 137.39 0 0 1-17.46-4.48V197.23l15.34-2.83zm0 100.25a67.37 67.37 0 0 0 10.52 2.24 125.81 125.81 0 0 0 18.28 1.06q19.81 0 31.84-12.86t12-36.91a83.93 83.93 0 0 0-2.12-19.22 45.18 45.18 0 0 0-6.84-15.81 34.33 34.33 0 0 0-12.38-10.73q-7.66-4-19-4a49.91 49.91 0 0 0-10.38 1.06 60.53 60.53 0 0 0-9.2 2.72 50.27 50.27 0 0 0-12.73 7.07zM674 373.19q-6.85 1.89-18.4 4.25a144.53 144.53 0 0 1-28.3 2.35q-13.7 0-22.88-4a37 37 0 0 1-14.86-11.32 45.73 45.73 0 0 1-8.14-17.69 98.62 98.62 0 0 1-2.42-22.89v-68.4h15.33v63.45a108.35 108.35 0 0 0 1.89 21.94q1.89 9 6.13 14.5a23.91 23.91 0 0 0 11 8 47.64 47.64 0 0 0 16.39 2.48 130.93 130.93 0 0 0 18.87-1.18q8-1.18 10.15-2.12V255.49H674zm36.24-113.45q6.84-1.89 18.4-4.25a144.42 144.42 0 0 1 28.36-2.36q13.9 0 23.23 4A35.81 35.81 0 0 1 795 268.58a46.69 46.69 0 0 1 7.9 17.81 103.5 103.5 0 0 1 2.36 22.88v68.17H790v-63.22a115.38 115.38 0 0 0-1.77-21.93 36.66 36.66 0 0 0-5.9-14.63 23 23 0 0 0-10.85-8.14q-6.72-2.47-16.86-2.47a128.3 128.3 0 0 0-18.75 1.18q-7.9 1.18-10.27 2.12v107.09h-15.36zm144.66-4.25h48.59v13H854.9v64.87a65.79 65.79 0 0 0 1.77 16.86 23.57 23.57 0 0 0 5.07 10 16 16 0 0 0 8 4.71 42.53 42.53 0 0 0 10.38 1.18q9.66 0 15.56-2.24a65.83 65.83 0 0 0 9.2-4.13l3.78 12.74q-3.31 2.13-11.56 4.84a57.4 57.4 0 0 1-17.91 2.68c-7.54 0-13.88-1-19-2.95a27.39 27.39 0 0 1-12.27-9 36.72 36.72 0 0 1-6.49-15 104.13 104.13 0 0 1-1.88-21.23V219.64l15.33-2.83zm167.47 117.7q-6.86 1.89-18.4 4.25a144.57 144.57 0 0 1-28.31 2.35q-13.68 0-22.88-4a37.14 37.14 0 0 1-14.86-11.32 45.87 45.87 0 0 1-8.13-17.69 98.62 98.62 0 0 1-2.48-22.88v-68.4h15.33v63.45a108.35 108.35 0 0 0 1.89 21.94q1.88 9 6.13 14.5a23.91 23.91 0 0 0 11 8 47.64 47.64 0 0 0 16.34 2.49 131 131 0 0 0 18.87-1.18q8-1.18 10.14-2.12V255.49h15.34zM319.45 172.14a32.57 32.57 0 0 1-12.69-2.44 28.7 28.7 0 0 1-10.19-7.14 33.65 33.65 0 0 1-6.83-11.56 45.91 45.91 0 0 1-2.5-15.75 42.81 42.81 0 0 1 2.7-15.74 35 35 0 0 1 7.19-11.57 29.76 29.76 0 0 1 10.39-7.08 32.47 32.47 0 0 1 12.33-2.4 47.15 47.15 0 0 1 7.24.51 39.93 39.93 0 0 1 5.7 1.28 39 39 0 0 1 4.18 1.53 17.82 17.82 0 0 1 2.65 1.37l-2.24 6a41.12 41.12 0 0 0-6.47-3 31.76 31.76 0 0 0-21.3.76 22.88 22.88 0 0 0-8.3 6.32 27.31 27.31 0 0 0-5.05 9.68 43.21 43.21 0 0 0-1.68 12.43 44.51 44.51 0 0 0 1.68 12.66 27.25 27.25 0 0 0 4.94 9.63 21.91 21.91 0 0 0 8 6.12 26.24 26.24 0 0 0 10.86 2.14 42.31 42.31 0 0 0 11.26-1.28 32.28 32.28 0 0 0 6.88-2.6l1.93 5.91a11.54 11.54 0 0 1-2.44 1.18 47.78 47.78 0 0 1-10.5 2.54 58.6 58.6 0 0 1-7.74.5zm48.19-55.43a23.43 23.43 0 0 1 8.81 1.47 15.2 15.2 0 0 1 5.86 4.08 16.13 16.13 0 0 1 3.26 6.16 28.1 28.1 0 0 1 1 7.75v33.22a28.68 28.68 0 0 1-2.95.66c-1.3.24-2.79.5-4.49.77s-3.58.49-5.65.66-4.2.25-6.37.25a30.57 30.57 0 0 1-7.7-.91 16.89 16.89 0 0 1-6.11-2.91 13.75 13.75 0 0 1-4.08-5.09 17.65 17.65 0 0 1-1.48-7.59 15.48 15.48 0 0 1 1.63-7.34 14 14 0 0 1 4.59-5 20.6 20.6 0 0 1 7-2.9 40.47 40.47 0 0 1 8.87-.92 28.78 28.78 0 0 1 3 .16 42.333 42.333 0 0 1 5.61.91 8.6 8.6 0 0 1 1.48.46v-3.26a34.71 34.71 0 0 0-.41-5.35 11.86 11.86 0 0 0-1.78-4.69 9.93 9.93 0 0 0-3.88-3.36 14.47 14.47 0 0 0-6.57-1.27 34.16 34.16 0 0 0-8.66.81c-1.9.55-3.3 1-4.18 1.33l-.92-5.81a24 24 0 0 1 5.35-1.53 45.47 45.47 0 0 1 8.77-.76zm.61 49.11q3.87 0 6.77-.25a47 47 0 0 0 5-.66v-18.55a20.11 20.11 0 0 0-3.57-1.07 31.82 31.82 0 0 0-6.73-.56 37.72 37.72 0 0 0-5.09.36 14.71 14.71 0 0 0-4.89 1.52 10.26 10.26 0 0 0-3.67 3.21 9.26 9.26 0 0 0-1.43 5.41 11.5 11.5 0 0 0 1 5 8 8 0 0 0 2.75 3.26 12.11 12.11 0 0 0 4.28 1.78 25.59 25.59 0 0 0 5.58.55zm33.69-46.06q3-.81 7.95-1.83a62.13 62.13 0 0 1 12.22-1 25.54 25.54 0 0 1 10 1.73 15.5 15.5 0 0 1 6.42 4.94 20.15 20.15 0 0 1 3.42 7.7 45.19 45.19 0 0 1 1 9.88v29.45h-6.62V143.3a49.85 49.85 0 0 0-.76-9.47 15.75 15.75 0 0 0-2.55-6.32 10 10 0 0 0-4.69-3.52 21.34 21.34 0 0 0-7.29-1.07 55.75 55.75 0 0 0-8.1.51 25 25 0 0 0-4.43.92v46.26h-6.62zm101.56 24.56a34 34 0 0 1-1.79 11.31 25.27 25.27 0 0 1-5 8.67 22.91 22.91 0 0 1-7.59 5.55 24.56 24.56 0 0 1-19.37 0 22.91 22.91 0 0 1-7.59-5.55 25.27 25.27 0 0 1-5-8.67 36.82 36.82 0 0 1 0-22.62 25.74 25.74 0 0 1 5-8.71 22.54 22.54 0 0 1 7.59-5.61 24.68 24.68 0 0 1 19.37 0 22.54 22.54 0 0 1 7.59 5.61 25.74 25.74 0 0 1 5 8.71 34.05 34.05 0 0 1 1.79 11.31zm-7 0q0-9.88-4.58-15.74a16.12 16.12 0 0 0-24.87 0q-4.58 5.85-4.58 15.74T467 160a16.23 16.23 0 0 0 24.87 0q4.6-5.8 4.59-15.68zm19.97-24.56q3-.81 7.95-1.83a62.13 62.13 0 0 1 12.22-1 25.54 25.54 0 0 1 10 1.73 15.5 15.5 0 0 1 6.42 4.94 20.15 20.15 0 0 1 3.42 7.7 45.19 45.19 0 0 1 1 9.88v29.45h-6.62V143.3a49.85 49.85 0 0 0-.76-9.47 15.75 15.75 0 0 0-2.55-6.32 10 10 0 0 0-4.69-3.52 21.38 21.38 0 0 0-7.29-1.07 55.75 55.75 0 0 0-8.1.51 25 25 0 0 0-4.43.92v46.26h-6.62zM580.76 102a4.94 4.94 0 0 1-1.43 3.72 5 5 0 0 1-6.93 0 5.55 5.55 0 0 1 0-7.44 5.07 5.07 0 0 1 6.93 0 4.94 4.94 0 0 1 1.43 3.72zm-1.53 68.58h-6.62v-52.65h6.62zm37.63 1.15a28.16 28.16 0 0 1-10.8-1.93 20.24 20.24 0 0 1-7.79-5.56 24.51 24.51 0 0 1-4.74-8.66 39 39 0 0 1 .05-22.47 25.41 25.41 0 0 1 4.84-8.76 21.35 21.35 0 0 1 7.64-5.66 24.72 24.72 0 0 1 10.09-2 42.15 42.15 0 0 1 8 .71 20.22 20.22 0 0 1 5.76 1.83l-1.73 5.77a21.52 21.52 0 0 0-4.59-1.63 30.28 30.28 0 0 0-6.83-.61q-8.76 0-13.3 5.65t-4.53 16a34.25 34.25 0 0 0 1 8.62 17.36 17.36 0 0 0 3.31 6.72 15.46 15.46 0 0 0 5.91 4.38 21.87 21.87 0 0 0 8.82 1.58 22.83 22.83 0 0 0 7.18-1 28.11 28.11 0 0 0 4.23-1.68l1.42 5.71a25 25 0 0 1-5.75 2 34.44 34.44 0 0 1-8.19.99zm40.92-55.02a23.43 23.43 0 0 1 8.81 1.47 15.2 15.2 0 0 1 5.86 4.08 16 16 0 0 1 3.26 6.16 28.1 28.1 0 0 1 1 7.75v33.22a28.68 28.68 0 0 1-3 .66c-1.29.24-2.79.5-4.49.77s-3.58.49-5.65.66-4.2.25-6.37.25a30.57 30.57 0 0 1-7.7-.91 16.89 16.89 0 0 1-6.11-2.91 13.75 13.75 0 0 1-4.08-5.09 17.65 17.65 0 0 1-1.47-7.59 15.36 15.36 0 0 1 1.63-7.34 13.85 13.85 0 0 1 4.58-5 20.68 20.68 0 0 1 7-2.9A40.53 40.53 0 0 1 660 139a29.11 29.11 0 0 1 3 .16 42.333 42.333 0 0 1 5.6.91 8.31 8.31 0 0 1 1.48.46v-3.26a34.71 34.71 0 0 0-.41-5.35 11.86 11.86 0 0 0-1.78-4.69 9.93 9.93 0 0 0-3.88-3.36 14.47 14.47 0 0 0-6.57-1.27 34.16 34.16 0 0 0-8.66.81c-1.9.55-3.3 1-4.18 1.33l-.92-5.81a24 24 0 0 1 5.35-1.53 45.54 45.54 0 0 1 8.75-.69zm.61 49.11q3.87 0 6.78-.25a47.13 47.13 0 0 0 4.94-.66v-18.55a20.11 20.11 0 0 0-3.57-1.07 31.78 31.78 0 0 0-6.72-.56 38 38 0 0 0-5.1.36 14.71 14.71 0 0 0-4.89 1.52 10.26 10.26 0 0 0-3.67 3.21 9.26 9.26 0 0 0-1.43 5.41 11.65 11.65 0 0 0 1 5 8 8 0 0 0 2.75 3.26 12.11 12.11 0 0 0 4.28 1.78 25.59 25.59 0 0 0 5.63.55zm46.91 5.71a22.42 22.42 0 0 1-5.86-.87 10.23 10.23 0 0 1-4.18-2.34 9.94 9.94 0 0 1-2.55-4.08 19.23 19.23 0 0 1-.87-6.26V92.76l6.63-1.23v66.24a13.55 13.55 0 0 0 .46 3.93 5.29 5.29 0 0 0 1.37 2.3 5.51 5.51 0 0 0 2.4 1.27 29.39 29.39 0 0 0 3.51.72z"/><path fill="#e95420" d="M0 0h233.93v409.52H0z"/><circle cx="51.02" cy="287.04" r="24.55" class="cls-3"/><circle cx="153.26" cy="233.21" r="24.55" class="cls-3"/><path d="M106.39 350.22a59.81 59.81 0 0 1-40.77-31.1 35.3 35.3 0 0 1-21 2.58 80.36 80.36 0 0 0 75 50 35.11 35.11 0 0 1-7.19-20.52c-2.04-.18-4.06-.54-6.04-.96z" class="cls-3"/><circle cx="147.73" cy="350.36" r="24.55" class="cls-3"/><path d="M181.89 341.34a80.32 80.32 0 0 0 4-94.24 35.39 35.39 0 0 1-13.81 16.17 60.23 60.23 0 0 1-2 59.78 35.21 35.21 0 0 1 11.81 18.29zM49.13 251.83c.62 0 1.24-.05 1.87-.05a35.75 35.75 0 0 1 7.41.79 35.06 35.06 0 0 1 11.2 4.51 59.91 59.91 0 0 1 48.22-25.78 35.62 35.62 0 0 1 7.44-19.91 80.68 80.68 0 0 0-76.14 40.44z" class="cls-3"/></svg>