<svg xmlns="http://www.w3.org/2000/svg" viewBox="-3.83 43.17 406.9 158.4"><defs><linearGradient id="a" x1="23.339" x2="23.339" y1="51.492" y2="95.644" gradientTransform="matrix(1 0 0 -1 0 245.33)" gradientUnits="userSpaceOnUse"><stop offset="0" stop-color="#ff7825"/><stop offset=".15" stop-color="#f46822"/><stop offset=".5" stop-color="#df481c"/><stop offset=".8" stop-color="#d23418"/><stop offset="1" stop-color="#cd2d17"/></linearGradient><linearGradient id="b" x1="4" x2="78.5" y1="117.657" y2="117.657" gradientTransform="matrix(1 0 0 -1 0 245.33)" gradientUnits="userSpaceOnUse"><stop offset="0" stop-color="#ff7825"/><stop offset=".32" stop-color="#f5601b"/><stop offset=".75" stop-color="#ea4610"/><stop offset="1" stop-color="#e63c0c"/></linearGradient><linearGradient id="c" x1="4.305" x2="81.158" y1="168.697" y2="168.697" gradientTransform="matrix(1 0 0 -1 0 245.33)" gradientUnits="userSpaceOnUse"><stop offset="0" stop-color="#e63c0c"/><stop offset=".24" stop-color="#e8410e"/><stop offset=".52" stop-color="#ee5014"/><stop offset=".83" stop-color="#f8681e"/><stop offset="1" stop-color="#ff7825"/></linearGradient><radialGradient id="d" cx="385.979" cy="135.161" r="7.618" gradientTransform="matrix(1 0 0 -1 0 245.33)" gradientUnits="userSpaceOnUse"><stop offset="0" stop-color="#e63c0c"/><stop offset="1" stop-color="#cd2d17"/></radialGradient></defs><path fill="url(#a)" fill-rule="evenodd" d="M42.678 193.838L4 175.322l38.678-25.636v44.152z"/><path fill="url(#b)" fill-rule="evenodd" d="M4 175.322l38.905-25.789 38.253-25.354-33.307-22.076 33.31 22.076V80.024l-33.31 22.079L4 131.169v44.153z"/><path fill="url(#c)" fill-rule="evenodd" d="M47.851 102.103l33.307-22.079-43.49-28.826-.056-.036L4.305 73.238l.136.091 43.41 28.774z"/><path fill="url(#d)" fill-rule="evenodd" d="M378.601 111.063l4.549 6.957 10.206-15.703h-9.602l-5.153 8.746z"/><path fill="#515254" fill-rule="evenodd" d="M116.179 102.314h4.708v6.094a14.47 14.47 0 0 1 5.8-5.02 17.634 17.634 0 0 1 8.021-1.895 18.745 18.745 0 0 1 13.954 5.61 20.263 20.263 0 0 1 .058 27.733 18.236 18.236 0 0 1-13.629 5.63 18.526 18.526 0 0 1-8.161-1.742 15.735 15.735 0 0 1-6.043-5.115v17.933h-4.708zm4.708 18.344a15.406 15.406 0 0 0 4.2 10.875 13.037 13.037 0 0 0 9.874 4.507 13.593 13.593 0 0 0 10.027-4.28 14.387 14.387 0 0 0 4.219-10.488 15.245 15.245 0 0 0-4.2-10.913 13.532 13.532 0 0 0-10.23-4.433 12.998 12.998 0 0 0-9.697 4.446 14.45 14.45 0 0 0-4.193 10.286zm44.013.198a14.818 14.818 0 0 0 3.975 10.505 13.065 13.065 0 0 0 9.963 4.257 12.91 12.91 0 0 0 9.839-4.238 14.875 14.875 0 0 0 3.946-10.582 14.608 14.608 0 0 0-4.001-10.582 13.59 13.59 0 0 0-10.213-4.147 12.601 12.601 0 0 0-9.51 4.26 14.818 14.818 0 0 0-3.999 10.527zm-4.867.088a18.947 18.947 0 0 1 5.474-13.658 17.482 17.482 0 0 1 12.98-5.676 19.047 19.047 0 0 1 19.01 18.88 19.445 19.445 0 0 1-5.442 13.863 17.434 17.434 0 0 1-13.217 5.724 17.903 17.903 0 0 1-13.344-5.624 18.734 18.734 0 0 1-5.461-13.522zm48.257 18.559h-4.78v-37.189h4.5v4.293a12.147 12.147 0 0 1 3.82-3.615 9.161 9.161 0 0 1 2.272-.899 10.06 10.06 0 0 1 2.596-.324l.032 5.17q-4.497.415-6.474 2.673t-1.966 7.425zm20.749 0v-32.399h-7.065v-4.78h7.065V90.281h4.773v12.043h7.065v4.78h-7.065v32.399h-4.773zm40.787-21.687l-6.545 21.693h-4.923l-12.883-37.195h8.74l6.593 21.213 6.49-21.239 5.264.03 6.432 21.209 6.623-21.184h8.674L281.34 139.51h-4.91zm25.938 3.115a20.532 20.532 0 0 1 1.298-7.327 18.822 18.822 0 0 1 4.001-6.283 20.317 20.317 0 0 1 6.214-4.481 17.254 17.254 0 0 1 7.354-1.655 19.415 19.415 0 0 1 7.519 1.43 18.88 18.88 0 0 1 6.253 4.31 20.1 20.1 0 0 1 4.173 6.29 18.715 18.715 0 0 1 1.486 7.268 20.934 20.934 0 0 1-1.343 7.425 19.272 19.272 0 0 1-3.846 6.263 20.093 20.093 0 0 1-2.979 2.677 20.652 20.652 0 0 1-3.404 2.041 18.133 18.133 0 0 1-7.506 1.594 19.065 19.065 0 0 1-7.528-1.467 18.464 18.464 0 0 1-6.188-4.352 21.012 21.012 0 0 1-4.073-6.337 22.67 22.67 0 0 1-1.074-3.645 18.877 18.877 0 0 1-.357-3.751zm8.437-.065a11.457 11.457 0 0 0 3.102 8.207 10.157 10.157 0 0 0 7.701 3.245 9.888 9.888 0 0 0 7.564-3.274 11.629 11.629 0 0 0 3.077-8.243 11.451 11.451 0 0 0-3.07-8.245 10.598 10.598 0 0 0-15.246.064 11.46 11.46 0 0 0-3.134 8.246zm43.069-16.157a10.65 10.65 0 0 1 2.23-1.704 10.384 10.384 0 0 1 5.191-1.298h.925v8.515h-.925a8.178 8.178 0 0 0-3.225.607 5.841 5.841 0 0 0-2.246 1.623c-1.376 1.622-1.623 4.426-1.623 6.467v20.603h-8.167v-37.214h7.836v2.414zm29.241 22.238l-8.032 12.562-9.274-.016 12.565-19.286-11.137-17.886 9.313-.017 23.462 37.208-9.265-.016z"/><path fill="#ff5000" d="M203.675 165.08h2.687v6.838h.163a4.146 4.146 0 0 1 3.962-2.418c3.336 0 5.796 2.635 5.796 7.11s-2.424 7.139-5.77 7.139a4.212 4.212 0 0 1-3.988-2.418h-.224v2.149h-2.625zm6.237 16.381c2.399 0 3.658-2.109 3.658-4.867s-1.224-4.8-3.658-4.8c-2.346 0-3.605 1.915-3.605 4.8s1.295 4.867 3.606 4.867zm8.383 6.903l.649-2.2c1.473.405 2.437.25 3.118-1.584l.325-.915-5.053-13.983h2.878l3.495 10.708h.143l3.498-10.708h2.885l-5.692 15.644c-.798 2.178-2.2 3.336-4.42 3.336a5.056 5.056 0 0 1-1.826-.298zm21.998-23.284h6.561c4.277 0 6.374 2.57 6.374 5.958s-2.113 5.978-6.383 5.978h-3.774v6.47h-2.778zm6.302 9.58c2.713 0 3.835-1.539 3.835-3.622s-1.122-3.57-3.871-3.57h-3.488v7.198zm17.951-4.978h2.697v13.804h-2.641v-2.391h-.146a4.287 4.287 0 0 1-4.125 2.57c-2.651 0-4.543-1.779-4.543-5.192v-8.762h2.687v8.457a2.792 2.792 0 0 0 2.813 3.082 3.26 3.26 0 0 0 3.246-3.462zm6.173 0h2.596v2.197h.142a3.592 3.592 0 0 1 3.505-2.399 11.031 11.031 0 0 1 1.142.062v2.57a6.47 6.47 0 0 0-1.402-.159 3.102 3.102 0 0 0-3.3 3.109v8.437h-2.687zm8.732 6.99c0-4.242 2.534-7.172 6.38-7.172 3.128 0 6.11 1.947 6.11 6.938v.957h-9.813c.072 2.661 1.623 4.15 3.92 4.15a3.105 3.105 0 0 0 3.18-1.966l2.545.458c-.614 2.245-2.742 3.728-5.754 3.728-4.07-.003-6.568-2.8-6.568-7.093zm9.859-1.298a3.407 3.407 0 0 0-3.46-3.66 3.71 3.71 0 0 0-3.712 3.66zm19.382-8.146c-2.271 0-3.693 1.159-3.693 2.723 0 1.762 1.905 2.434 3.343 2.804l1.798.467c2.336.574 5.296 1.86 5.296 5.176 0 3.118-2.493 5.393-6.815 5.393-4.124 0-6.704-2.057-6.883-5.393h2.785c.162 2.005 1.947 2.956 4.082 2.956 2.362 0 4.079-1.184 4.079-2.982 0-1.623-1.519-2.272-3.485-2.804l-2.178-.594c-2.956-.801-4.79-2.3-4.79-4.867 0-3.174 2.833-5.286 6.526-5.286s6.344 2.138 6.425 5.088h-2.677c-.198-1.694-1.7-2.68-3.813-2.68zm16.261 4.608h-2.83v7.597c0 1.554.783 1.84 1.652 1.84a4.38 4.38 0 0 0 .945-.117l.487 2.22a5.192 5.192 0 0 1-1.746.289c-2.12.045-4.034-1.169-4.027-3.677v-8.152h-2.022v-2.154h2.009v-3.32h2.69v3.31h2.83zm1.561 4.81c0-4.297 2.544-7.14 6.435-7.14s6.435 2.85 6.435 7.14-2.544 7.116-6.435 7.116-6.435-2.85-6.435-7.116zm10.157 0c0-2.642-1.187-4.887-3.712-4.887s-3.729 2.245-3.729 4.887 1.185 4.867 3.729 4.867 3.712-2.226 3.712-4.877zm5.546-6.964h2.596v2.197h.143a3.592 3.592 0 0 1 3.505-2.399 11.032 11.032 0 0 1 1.142.062v2.57a6.49 6.49 0 0 0-1.402-.159 3.102 3.102 0 0 0-3.3 3.109v8.437h-2.687zm8.944 9.904c0-3.138 2.677-3.82 5.292-4.128 2.48-.286 3.489-.27 3.489-1.25v-.058c0-1.564-.893-2.47-2.625-2.47a3.223 3.223 0 0 0-3.21 1.922l-2.525-.575c.9-2.518 3.2-3.524 5.699-3.524 2.193 0 5.354.802 5.354 4.82v9.166h-2.622v-1.875h-.11a4.304 4.304 0 0 1-4.08 2.193c-2.625-.016-4.662-1.509-4.662-4.221zm8.787-1.081v-1.778c-.386.386-2.453.62-3.323.736-1.554.208-2.833.72-2.833 2.158 0 1.33 1.097 2.012 2.616 2.012a3.238 3.238 0 0 0 3.54-3.128zm5.99 7.327l2.311-.954a3.735 3.735 0 0 0 3.57 1.915c2.04 0 3.524-.935 3.524-3.099v-2.73h-.172a4.15 4.15 0 0 1-3.998 2.311c-3.265 0-5.77-2.346-5.77-6.75s2.453-7.028 5.786-7.028a4.2 4.2 0 0 1 4.001 2.417h.198v-2.235h2.632v14.109c0 3.55-2.713 5.156-6.227 5.156-3.284.004-5.124-1.434-5.854-3.112zm9.447-9.33c0-2.793-1.26-4.708-3.602-4.708-2.427 0-3.65 2.058-3.65 4.709 0 2.713 1.249 4.543 3.65 4.543 2.317.003 3.602-1.704 3.602-4.553zm5.474.17c0-4.242 2.535-7.172 6.383-7.172 3.125 0 6.11 1.947 6.11 6.938v.957h-9.812c.071 2.661 1.622 4.15 3.917 4.15a3.1 3.1 0 0 0 3.18-1.966l2.544.458c-.61 2.245-2.739 3.728-5.75 3.728-4.083-.003-6.572-2.8-6.572-7.093zm9.859-1.298a3.405 3.405 0 0 0-3.46-3.66 3.711 3.711 0 0 0-3.712 3.66zm.928-7.714a1.827 1.827 0 1 1 1.83 1.824h-.003a1.827 1.827 0 0 1-1.827-1.824zm3.2 0a1.376 1.376 0 1 0-1.38 1.373h.007a1.373 1.373 0 0 0 1.373-1.373zm-2.019-.863h.84a.532.532 0 0 1 .54.525v.02a.548.548 0 0 1-.273.487l.324.649h-.431l-.283-.568h-.324v.568h-.393zm.71.824a.26.26 0 0 0 .248-.271v-.008a.234.234 0 0 0-.24-.256h-.325v.535z"/><path fill="#515254" d="M389.757 97.96a1.827 1.827 0 1 1 1.83 1.823h-.003a1.827 1.827 0 0 1-1.827-1.824zm3.197 0a1.373 1.373 0 1 0-1.373 1.372h.003a1.373 1.373 0 0 0 1.37-1.373zm-2.015-.864h.847a.535.535 0 0 1 .538.532v.013a.558.558 0 0 1-.272.487l.324.649h-.431l-.283-.568h-.324v.568h-.393zm.71.824a.26.26 0 0 0 .244-.274v-.005a.234.234 0 0 0-.237-.256h-.325v.535z"/></svg>