<svg xmlns="http://www.w3.org/2000/svg" viewBox="52.91 0.41 290.42 242.17"><path d="M144.393 93.695c4.177 0 8.364.172 12.528-.057 3.088-.17 4.75 1.005 6.22 3.727 7.304 13.512 18.824 20.604 34.145 20.756 19.995.198 36.76-15.628 38.272-35.6a38.552 38.552 0 0 0-32.665-40.812 38.106 38.106 0 0 0-39.807 20.377c-1.424 2.794-3.157 3.775-6.218 3.71-8.445-.179-16.895-.061-25.344-.062-5.47-.001-6.515-1.447-4.924-6.808 8.908-30.003 34.944-50.602 66.527-52.637 37.505-2.415 71.581 25.343 76.743 62.514 5.542 39.917-19.895 75.521-59.501 83.283-36.605 7.173-74.422-16.433-84.037-52.457-1.169-4.381.048-5.93 4.676-5.934q6.693-.007 13.385 0zm167.655 114.908c-2.704.485-5.112-.341-7.356-3.545-4.11-5.867-12.806-6.094-18.094-1.1a12.462 12.462 0 0 0-.65 17.611q.31.333.641.642c5.254 4.955 14.014 4.684 18.108-1.136 2.092-2.973 4.295-3.882 7.542-3.476a13.873 13.873 0 0 0 1.707.01c5.341.002 5.526.276 3.454 5.134a24.175 24.175 0 1 1 .256-18.754c1.68 4.253 1.432 4.612-3.177 4.614h-2.43zm-68.729 6.836c-5.881 0-11.767.115-17.643-.053-2.598-.075-2.825.802-2.041 2.931 2.232 6.066 6.363 10.049 12.674 11.496 6.48 1.486 12.203-.34 16.398-5.373 2.446-2.935 5.262-2.136 7.997-1.936 1.895.14.805 1.714.293 2.588-3.991 6.816-9.943 10.982-17.74 11.923-9.76 1.177-17.844-2.287-23.315-10.53-5.445-8.206-5.736-16.997-.788-25.538 4.955-8.554 12.744-12.575 22.58-11.983a24.033 24.033 0 0 1 22.477 23.05c.096 2.488-.443 3.589-3.249 3.488-5.874-.211-11.761-.064-17.643-.064zm-3.466-6.944c4.64 0 9.281-.07 13.919.03 2.214.048 3.013-.417 1.845-2.683-3.293-6.387-8.476-9.936-15.643-9.913-7.298.025-12.48 3.73-15.723 10.257-1.035 2.084-.18 2.364 1.684 2.334 4.638-.076 9.279-.025 13.918-.025z"/><path d="M197.187 62.28a17.435 17.435 0 1 1-.06 34.87 17.35 17.35 0 0 1-17.522-17.175q-.002-.154 0-.307a17.323 17.323 0 0 1 17.582-17.389zM84.058 237.257c-12.885-.09-22.901-8.297-24.96-19.316-2.209-11.81 3.915-23.134 14.813-27.392a24.214 24.214 0 0 1 29.373 9.633c.56.904 1.717 1.849.99 3.04-.624 1.024-1.906.507-2.908.613a6.573 6.573 0 0 1-6.142-2.47 16.956 16.956 0 0 0-24.635-.415 17.161 17.161 0 0 0 .12 24.27q.217.214.442.421a16.722 16.722 0 0 0 24.345-1.189c2.455-2.922 5.25-2.144 7.986-1.953 1.896.133.834 1.708.31 2.58-4.78 7.966-11.888 11.936-19.734 12.178zm90.214.003c-12.336-.065-22.308-8.21-24.518-19.288a24.213 24.213 0 0 1 44.045-18.035c.632.987 1.855 2.043 1.121 3.293-.648 1.106-2.085.461-3.171.608-2.454.33-4.12-.597-5.84-2.507a17.005 17.005 0 0 0-24.64-.37 17.179 17.179 0 1 0 25.177 23.35c1.405-1.644 6.147-2.801 7.989-1.86 1.5.766.527 1.815.056 2.619a23.902 23.902 0 0 1-15.213 11.498 20.396 20.396 0 0 1-5.006.692zm150.924-24.234c0-6.913.06-13.827-.04-20.74-.028-1.883.561-2.483 2.417-2.365 2.358.15 4.736.099 7.1.014 1.41-.05 2.042.336 2.038 1.88q-.06 21.025.002 42.05c.005 1.798-.771 2.279-2.418 2.204a58.25 58.25 0 0 0-6.531.008c-2.005.134-2.631-.619-2.604-2.594.093-6.818.036-13.638.036-20.457zm-193.163-15.56c4.109-4.934 8.568-7.526 14.06-8.41 2.33-.375 3.236.122 3.278 2.673.045 2.746-.357 4.117-3.61 4.627-8.077 1.27-13.6 8.614-13.709 17.519-.08 6.55-.16 13.104.046 19.648.095 3.029-1.733 2.512-3.48 2.52-1.773.008-3.542.454-3.513-2.539q.197-20.502.014-41.008c-.022-2.962 1.822-2.522 3.6-2.54 1.715-.017 3.6-.351 3.337 2.435-.131 1.389-.023 2.8-.023 5.074zm70.026 7.832c0-9.096.107-18.193-.065-27.285-.053-2.812 1.25-3.06 3.441-2.99 2.001.066 3.583-.143 3.561 2.854q-.196 27.712.005 55.426c.027 3.377-1.972 2.601-3.857 2.768-2.233.198-3.183-.401-3.143-2.918.146-9.283.058-18.57.058-27.855zm-83.782 7.392c0 6.914-.137 13.832.064 20.74.085 2.903-1.525 2.648-3.395 2.632-1.916-.017-3.64.352-3.607-2.726.152-13.637.107-27.276.02-40.915-.012-2.013.573-2.558 2.549-2.513 4.366.1 4.369-.007 4.369 4.313zm212.666-24.977a6.826 6.826 0 0 1-6.969-6.68v-.038a7.01 7.01 0 0 1 6.972-7.048h.019a6.755 6.755 0 0 1 6.867 6.641q.003.218-.007.435a6.596 6.596 0 0 1-6.882 6.69zm-211.498-6.707a4.43 4.43 0 0 1-4.801 4.423 4.573 4.573 0 0 1 .27-9.14 4.46 4.46 0 0 1 4.537 4.382q.003.167-.006.335z"/></svg>