<svg width="143" height="49" fill="none" xmlns="http://www.w3.org/2000/svg"><path d="M11.346 34.255l13.266 2.878v-25.26l-13.266 2.868v19.514zm17.217 8.13L8.165 36.773v-24.56l20.37-5.57.028 35.742" fill="#32AD65"/><path d="M4.12 39.222l12.17 3.822V5.984L4.12 9.805v29.416zm16.077 9.181L.633 41.18V7.85L20.197.623v47.78z" fill="#32AD65"/><path d="M20.197 12.826l1.93-.415V8.395l-1.93.527v3.904zm0 27.257l1.93.531v-4.02l-1.93-.42v3.909" fill="#288852"/><path d="M48.985 22.372c-3.809-.56-4.546-1.46-4.546-3.263 0-1.71 1.29-2.922 3.779-2.922 2.485 0 3.8.974 4.218 3.239l3.593-.989c-.776-3.544-3.499-5.358-7.812-5.358-4.577 0-7.65 2.735-7.65 6.372 0 4.164 2.489 5.78 7.743 6.495 3.563.59 4.578 1.368 4.578 3.419s-1.72 3.419-4.148 3.419c-3.717 0-4.609-1.865-4.885-4.103h-.012l-3.786 1.042c.634 3.642 3.202 6.169 8.683 6.169 4.854 0 8.08-3.015 8.08-6.869 0-4.445-2.673-5.936-7.835-6.651zm13.06 3.388c.368-2.518 1.873-4.04 4.117-4.04 2.304 0 3.717 1.243 3.9 4.04h-8.017zm4.117-6.776c-4.578 0-7.989 3.357-7.989 8.392v.249c0 5.128 3.41 8.267 8.142 8.267 4.117 0 6.852-1.865 7.373-5.284h-3.594c-.276 1.585-1.444 2.487-3.687 2.487-2.765 0-4.301-1.74-4.424-4.818H73.75V27.19c0-5.812-3.595-8.205-7.588-8.205zm17.482 14.017c-2.735 0-4.455-1.864-4.455-5.407v-.25C79.189 23.989 81 22 83.552 22c1.965 0 3.38.901 3.686 3.077h3.595c-.43-4.476-3.78-6.092-7.343-6.092-4.485 0-8.11 3.263-8.11 8.423v.248c0 5.19 3.502 8.237 8.11 8.237 4.363 0 7.159-2.642 7.436-6.372h-3.411c-.215 2.3-1.905 3.481-3.87 3.481zm13.163-2.3v-8.547h3.533v-2.828h-3.533v-5.225l-3.718 1.023v15.92c0 3.076 1.66 4.817 4.855 4.817 1.137 0 1.935-.187 2.519-.404v-2.984c-.522.218-1.075.31-1.813.31-1.167 0-1.843-.652-1.843-2.082zm6.483 4.88h3.717V19.326h-3.717v16.255zm18.619-8.019c0 3.326-1.66 5.408-4.425 5.408-2.826 0-4.455-2.082-4.455-5.408v-.248c0-3.357 1.691-5.377 4.455-5.377 2.765 0 4.425 2.051 4.425 5.407v.218zm-4.425-8.578c-4.731 0-8.264 3.357-8.264 8.392v.249c0 4.941 3.502 8.267 8.233 8.267 4.732 0 8.265-3.295 8.265-8.36v-.25c0-4.972-3.533-8.298-8.234-8.298zm19.266 0c-2.643 0-4.425 1.337-5.193 2.922v-2.58h-3.717v16.255h3.717v-9.573c0-2.58 1.69-3.885 3.779-3.885 2.212 0 3.195 1.12 3.195 3.575v9.883h3.717V25.356c0-4.476-2.273-6.372-5.498-6.372zm-33.46-1.887h3.717v-3.76h-3.717v3.76" fill="#100F0D"/></svg>