<svg xmlns="http://www.w3.org/2000/svg" viewBox="31.48 48.48 338.78 139.28"><path fill="#00c7fd" d="M38.097 56.73h23.566v23.566H38.097z"/><path fill="#0168b5" d="M61.087 179.67V94.634H38.674v84.953h22.413zm148.4.824v-20.847a53.33 53.33 0 0 1-8.075-.495 8.54 8.54 0 0 1-5.274-2.39 10.204 10.204 0 0 1-2.39-5.108 54.982 54.982 0 0 1-.493-8.24V113.75h16.232V94.634h-16.232V61.592h-22.413v82.152a75.047 75.047 0 0 0 1.73 17.55 24.37 24.37 0 0 0 5.933 11.207 23.49 23.49 0 0 0 10.877 6.097 66.269 66.269 0 0 0 17.056 1.813l3.05.083zm128.213-.824V55h-22.413v124.67zm-188.364-76.631c-6.18-6.675-14.914-10.053-26.038-10.053a31.982 31.982 0 0 0-14.667 3.296 30.55 30.55 0 0 0-11.124 9.064l-1.154 1.565V94.634H74.188v84.953h22.248v-43.589c.247-7.992 2.142-13.843 5.85-17.633a19.196 19.196 0 0 1 14.173-6.015c6.427 0 11.453 1.977 14.667 5.85s4.861 9.311 4.861 16.315v45.155h22.578v-48.286c.164-12.113-3.05-21.671-9.23-28.345zm154.416 33.948a46.04 46.04 0 0 0-3.214-17.221 45.308 45.308 0 0 0-8.982-14.008 40.424 40.424 0 0 0-13.843-9.394 44.787 44.787 0 0 0-17.798-3.378 43.555 43.555 0 0 0-17.303 3.46 45.959 45.959 0 0 0-14.008 9.394 43.175 43.175 0 0 0-9.394 14.008 41.902 41.902 0 0 0-3.46 17.304 44.928 44.928 0 0 0 3.295 17.304 42.534 42.534 0 0 0 9.147 14.007 41.386 41.386 0 0 0 14.172 9.394 45.721 45.721 0 0 0 18.21 3.543c18.952 0 30.735-8.652 37.74-16.727l-16.069-12.195c-3.378 4.038-11.453 9.476-21.506 9.476-6.262 0-11.536-1.4-15.408-4.367a22.036 22.036 0 0 1-8.075-11.866l-.248-.741h66.744v-7.993zm-66.579-7.745c0-6.18 7.169-17.057 22.495-17.14 15.326 0 22.577 10.795 22.577 17.057zm126.07 39.633a9.127 9.127 0 0 0-1.73-2.636 7.347 7.347 0 0 0-2.637-1.73 8.293 8.293 0 0 0-3.213-.66 8.616 8.616 0 0 0-3.214.66 8.14 8.14 0 0 0-2.637 1.73 7.347 7.347 0 0 0-1.73 2.636 8.293 8.293 0 0 0-.66 3.214 8.616 8.616 0 0 0 .66 3.214 9.127 9.127 0 0 0 1.73 2.636 7.347 7.347 0 0 0 2.637 1.73 8.293 8.293 0 0 0 3.214.66 8.617 8.617 0 0 0 3.213-.66 9.127 9.127 0 0 0 2.637-1.73 7.347 7.347 0 0 0 1.73-2.636 8.293 8.293 0 0 0 .66-3.214 8.96 8.96 0 0 0-.66-3.214zm-1.318 5.933a6.247 6.247 0 0 1-3.543 3.543 6.962 6.962 0 0 1-2.72.495 7.91 7.91 0 0 1-2.718-.495 6.247 6.247 0 0 1-3.544-3.543 6.962 6.962 0 0 1-.494-2.719 7.91 7.91 0 0 1 .495-2.72 6.247 6.247 0 0 1 3.543-3.542 6.962 6.962 0 0 1 2.719-.495 7.91 7.91 0 0 1 2.719.495 6.247 6.247 0 0 1 3.543 3.543 6.962 6.962 0 0 1 .495 2.719 7.573 7.573 0 0 1-.495 2.72zm-4.697-1.977a2.55 2.55 0 0 0 1.566-.742 2.428 2.428 0 0 0 .66-1.813 2.505 2.505 0 0 0-.825-2.06 3.64 3.64 0 0 0-2.554-.741h-3.708v9.475h1.73v-3.872h1.236l2.39 3.872h1.813zm-.988-1.401h-2.06v-2.72h2.06a2.406 2.406 0 0 1 .741.165.844.844 0 0 1 .495.412c.164.165.164.412.164.742a1.645 1.645 0 0 1-.164.742 2.185 2.185 0 0 1-.495.412 1.329 1.329 0 0 1-.741.247z"/></svg>