<svg width="107" height="102" fill="none" xmlns="http://www.w3.org/2000/svg"><path d="M13.825 94.424a6.656 6.656 0 1 1-13.309-.255 6.854 6.854 0 0 1 6.808-6.845 6.974 6.974 0 0 1 4.74 2.034l-1.09 1.344a5.775 5.775 0 0 0-3.65-1.562 5.02 5.02 0 0 0-4.992 5.03 4.854 4.854 0 0 0 4.83 4.992 4.788 4.788 0 0 0 4.72-4.067h-5.52V93.48h7.463v.945zm6.335-.89h-1.017a2.034 2.034 0 0 0-2.033 2.033v5.302h-1.816v-9.078h1.489v.762a3.022 3.022 0 0 1 2.142-.762h1.961l-.726 1.743zm9.894 7.335h-1.543v-1.144a4.45 4.45 0 0 1-4.982.888 4.673 4.673 0 0 1 1.859-8.967 4.362 4.362 0 0 1 3.104 1.288v-1.143h1.562v9.078zm-1.857-3.886a2.86 2.86 0 1 0-5.566-1.323 2.86 2.86 0 0 0 5.566 1.323zm5.517-5.7v.508h2.887v1.598h-2.887v7.48h-1.798v-9.532c0-1.997 1.435-3.177 3.232-3.177h2.179l-.726 1.706h-1.453a1.421 1.421 0 0 0-1.434 1.416zm12.509 9.586h-1.544v-1.144a4.45 4.45 0 0 1-4.982.888 4.673 4.673 0 0 1 1.86-8.967 4.362 4.362 0 0 1 3.104 1.288v-1.143h1.562v9.078zm-1.858-3.886a2.859 2.859 0 1 0-5.562-1.323 2.859 2.859 0 0 0 5.563 1.323zm11.556-1.488v5.374h-1.815v-5.374a2.043 2.043 0 1 0-4.086 0v5.374h-1.815v-9.078h1.507v.78a3.685 3.685 0 0 1 2.433-.925 3.8 3.8 0 0 1 3.776 3.849zm10.675 5.374h-1.543v-1.144a4.45 4.45 0 0 1-4.982.888 4.673 4.673 0 0 1-1.097-7.92 4.675 4.675 0 0 1 2.956-1.047 4.362 4.362 0 0 1 3.104 1.288v-1.143h1.562v9.078zm-1.857-3.886a2.86 2.86 0 1 0-5.564-1.323 2.86 2.86 0 0 0 5.564 1.323z" fill="#2B2B2B"/><path d="M79.012 100.867h-6.848V87.354h1.826v11.669h5.022v1.844z" fill="url(#paint0_linear_2375_498)"/><path d="M88.728 100.866h-1.552v-1.15a4.51 4.51 0 0 1-3.141 1.297 4.713 4.713 0 0 1 0-9.423 4.386 4.386 0 0 1 3.122 1.296v-1.15h1.57v9.13zm-1.79-4.583a2.877 2.877 0 1 0-5.754.018 2.877 2.877 0 0 0 5.754-.018z" fill="url(#paint1_linear_2375_498)"/><path d="M99.666 96.302a4.723 4.723 0 0 1-4.711 4.711 4.555 4.555 0 0 1-3.16-1.297v1.151h-1.534V88.084h1.808v4.602a4.312 4.312 0 0 1 2.886-1.095 4.71 4.71 0 0 1 4.71 4.71v.001zm-1.862 0a2.867 2.867 0 1 0-5.734-.036 2.867 2.867 0 0 0 5.734.036z" fill="url(#paint2_linear_2375_498)"/><path d="M105.912 92.393l-.803 1.334a3.5 3.5 0 0 0-1.772-.603c-.694 0-1.315.347-1.315.913 0 .62.712.858 1.607 1.186 1.461.512 2.74 1.498 2.74 2.996 0 1.515-1.297 2.794-3.159 2.794a6.062 6.062 0 0 1-3.032-.932l.712-1.515a5.24 5.24 0 0 0 2.265.693c.912 0 1.314-.547 1.314-1.077 0-.62-.566-.968-1.826-1.46-.913-.366-2.392-.968-2.392-2.594 0-1.515 1.296-2.538 3.031-2.538a5.02 5.02 0 0 1 2.63.803z" fill="url(#paint3_linear_2375_498)"/><path d="M90.528 35.901a28.116 28.116 0 0 0-.816-4.68 29.153 29.153 0 0 0-2.105-5.605 30.736 30.736 0 0 0-6.058-8.29c1.143-4.55-1.395-8.493-1.395-8.493-4.378-.275-7.163 1.359-8.193 2.106a31.559 31.559 0 0 0-2.819-1.052 34.598 34.598 0 0 0-2.414-.67 34.408 34.408 0 0 0-2.516-.489l-.45-.064c-1.903-6.1-7.384-8.65-7.384-8.65-6.11 3.875-7.275 9.3-7.275 9.3s-.028.12-.065.322a31.08 31.08 0 0 0-1.016.301c-.47.142-.932.317-1.398.484-.463.18-.93.359-1.389.563a29.275 29.275 0 0 0-5.278 2.944l-.214-.097c-8.464-3.234-15.98.656-15.98.656-.685 9.003 3.379 14.676 4.186 15.707a39.016 39.016 0 0 0-2.057 8.92c-7.823 3.861-10.14 11.778-10.14 11.778 6.527 7.507 14.138 7.97 14.138 7.97l.021-.017a33.582 33.582 0 0 0 3.347 4.902c.529.64 1.08 1.26 1.656 1.86a17.588 17.588 0 0 0 .335 12.47 20.274 20.274 0 0 0 13.045-3.978c.724.244 1.456.462 2.196.654a33.179 33.179 0 0 0 8.517 1.046l.276-.001.18-.005.362-.011.355-.017.01.011c3.422 4.883 9.443 5.574 9.443 5.574 4.284-4.516 4.529-8.993 4.528-9.962v-.064l-.004-.136a5.479 5.479 0 0 0-.011-.207 27.208 27.208 0 0 0 2.566-2.035 26.809 26.809 0 0 0 4.796-5.761c4.845.277 8.264-3 8.264-3-.804-5.05-3.682-7.513-4.282-7.978l-.061-.047a7.24 7.24 0 0 0-.056-.041c-.032-.022-.067-.043-.106-.068a27.018 27.018 0 0 0 .127-2.543l-.004-.405-.002-.203-.001-.101c-.003-.14-.004-.088-.005-.14l-.014-.34-.026-.457c-.01-.161-.022-.295-.035-.436-.012-.14-.024-.28-.04-.42l-.05-.42-.058-.417a20.895 20.895 0 0 0-6.883-12.635 20.633 20.633 0 0 0-5.185-3.335 20.183 20.183 0 0 0-5.728-1.614 20.508 20.508 0 0 0-2.884-.164l-.357.009-.089.001c-.022.001-.134.003-.121.005l-.149.008-.354.023c-.135.01-.274.02-.392.032-.49.048-.976.116-1.456.206a16.155 16.155 0 0 0-9.443 5.514 15.948 15.948 0 0 0-2.608 4.401 15.65 15.65 0 0 0-1.036 4.71 14.88 14.88 0 0 0-.019 1.445l.012.312.043.558a12.25 12.25 0 0 0 2.362 6.17 12.09 12.09 0 0 0 2.886 2.772 11.765 11.765 0 0 0 3.31 1.57c1.066.316 2.173.474 3.285.47.131.002.262-.003.391-.006.07-.002.14-.007.21-.01l.208-.012.333-.033c.026-.002.062-.007.095-.012l.102-.013.203-.028c.137-.016.256-.043.381-.066a9.771 9.771 0 0 0 1.07-.277 9.264 9.264 0 0 0 1.287-.537c.385-.2.757-.427 1.111-.678.099-.071.194-.143.287-.216a.834.834 0 0 0-.919-1.387 8.354 8.354 0 0 1-.264.14 7.703 7.703 0 0 1-.963.394c-.346.11-.698.197-1.056.26-.183.026-.368.054-.556.068a3.42 3.42 0 0 1-.285.017c-.094.003-.194.011-.28.007l-.272-.005-.342-.017s-.059 0-.013-.002l-.038-.004-.076-.007c-.05-.005-.102-.008-.153-.015-.102-.012-.205-.023-.307-.039a9.011 9.011 0 0 1-2.454-.717 8.828 8.828 0 0 1-2.264-1.485 8.664 8.664 0 0 1-1.77-2.22 8.314 8.314 0 0 1-1.058-4.283l.019-.413c.002.037.003-.02.004-.024l.004-.051.01-.101c.029-.34.074-.678.136-1.013.4-2.23 1.492-4.277 3.123-5.849a10.554 10.554 0 0 1 2.862-1.962 10.094 10.094 0 0 1 4.286-.94c.08-.002.138.002.201.004l.241.007.15.006c.061 0 0 .001.026.003l.06.004.242.016a13.57 13.57 0 0 1 5.538 1.662 13.361 13.361 0 0 1 5.428 5.633 12.796 12.796 0 0 1 1.348 4.792l.019.251.012.253c.006.084.006.168.008.252.002.084.005.174.003.239l-.001.217-.005.244-.028.592c-.05.728-.142 1.452-.278 2.17-.072.355-.148.71-.24 1.062a17.312 17.312 0 0 1-9.543 11.435 16.927 16.927 0 0 1-4.204 1.289 16.5 16.5 0 0 1-2.198.22l-.136.005-.117.001-.237.005-.361-.003h-.18c.1-.001-.016-.002-.013-.003l-.073-.002a22.992 22.992 0 0 1-10.168-2.65A22.822 22.822 0 0 1 37.544 48.66a22.425 22.425 0 0 1-.754-4.505l-.018-.285-.004-.07-.002-.063-.005-.126-.01-.25-.002-.063-.002-.085-.002-.177-.004-.354-.002-.069v-.023l.002-.138c0-.182.007-.37.011-.556.03-.75.09-1.521.189-2.294.099-.773.225-1.549.383-2.317.16-.768.346-1.53.56-2.28.42-1.48.955-2.926 1.598-4.324a23.974 23.974 0 0 1 4.935-7.12c.5-.489 1.018-.95 1.556-1.384.537-.43 1.095-.833 1.672-1.208a19.355 19.355 0 0 1 1.773-1.04c.301-.162.613-.306.921-.455l.47-.208a22.97 22.97 0 0 1 2.414-.906l.497-.15c.164-.052.333-.092.499-.139.332-.094.67-.173 1.006-.256.167-.044.339-.074.508-.112.17-.035.338-.073.508-.106l.513-.093.255-.046.259-.04.515-.077c.19-.032.386-.048.578-.077l.576-.07.364-.037.243-.026.121-.013.144-.01.584-.037.29-.02s.108-.003.015-.003l.062-.003.124-.006.497-.022c.66-.022 1.317-.021 1.968.001a27.28 27.28 0 0 1 3.822.426 26.725 26.725 0 0 1 6.939 2.307 27.816 27.816 0 0 1 5.666 3.697l.308.26.298.265c.202.174.391.358.585.535.192.178.377.361.563.541.18.185.364.365.538.55a29.262 29.262 0 0 1 4.781 6.706l.14.268.131.267c.087.178.175.352.254.527.08.175.163.347.239.517l.221.509a31.323 31.323 0 0 1 1.526 4.54.643.643 0 0 0 1.266-.143 26.957 26.957 0 0 0-.099-2.889z" fill="url(#paint4_linear_2375_498)"/><defs><linearGradient id="paint0_linear_2375_498" x1="75.588" y1="107.054" x2="75.588" y2="87.96" gradientUnits="userSpaceOnUse"><stop stop-color="#FFF200"/><stop offset="1" stop-color="#F15A29"/></linearGradient><linearGradient id="paint1_linear_2375_498" x1="84.025" y1="107.053" x2="84.025" y2="87.959" gradientUnits="userSpaceOnUse"><stop stop-color="#FFF200"/><stop offset="1" stop-color="#F15A29"/></linearGradient><linearGradient id="paint2_linear_2375_498" x1="94.963" y1="107.054" x2="94.963" y2="87.96" gradientUnits="userSpaceOnUse"><stop stop-color="#FFF200"/><stop offset="1" stop-color="#F15A29"/></linearGradient><linearGradient id="paint3_linear_2375_498" x1="103.273" y1="107.053" x2="103.273" y2="87.959" gradientUnits="userSpaceOnUse"><stop stop-color="#FFF200"/><stop offset="1" stop-color="#F15A29"/></linearGradient><linearGradient id="paint4_linear_2375_498" x1="53.193" y1="99.643" x2="53.193" y2="25.332" gradientUnits="userSpaceOnUse"><stop stop-color="#FFF200"/><stop offset="1" stop-color="#F15A29"/></linearGradient></defs></svg>