<svg xmlns="http://www.w3.org/2000/svg" id="Layer_1" data-name="Layer 1" viewBox="0 0 400 245"><defs><style>.cls-1{fill:#77787b}.cls-2{fill:#f26522}.cls-3{fill:#8dc63f}.cls-4{fill:#00aeef}.cls-5{fill:#ffc20e}</style></defs><path class="cls-1" d="M169.482 99.403l-2.107 5.9h-.114a56.087 56.087 0 0 0-1.978-5.836l-11.285-28.253H143v44.926h7.263V88.52c0-1.7-.043-3.764-.114-6.12-.029-1.197-.171-2.147-.207-2.872h.164a39.212 39.212 0 0 0 1.028 3.842l13.506 32.771h5.078l13.413-33.074a30.856 30.856 0 0 0 .92-3.539h.158c-.164 3.271-.321 6.256-.336 8.067v28.546h7.735V71.214h-10.57z"/><path class="cls-1" d="M198.907 83.948H206.49200000000002V116.13999999999999H198.907z"/><path class="cls-1" d="M202.778 70.264a4.539 4.539 0 0 0-3.228 1.264 4.163 4.163 0 0 0-1.35 3.153 4.087 4.087 0 0 0 1.336 3.103 4.626 4.626 0 0 0 3.242 1.229 4.69 4.69 0 0 0 3.264-1.229 4.093 4.093 0 0 0 1.343-3.103 4.244 4.244 0 0 0-1.321-3.12 4.485 4.485 0 0 0-3.286-1.297m30.525 13.355a20.861 20.861 0 0 0-4.243-.45 18.7 18.7 0 0 0-9.205 2.218 14.955 14.955 0 0 0-6.071 6.242 19.88 19.88 0 0 0-2.093 9.26 17.162 17.162 0 0 0 2.029 8.284 14.18 14.18 0 0 0 5.67 5.724 16.835 16.835 0 0 0 8.286 2.018 18.163 18.163 0 0 0 9.127-2.132l.114-.057v-6.945l-.321.232a14.488 14.488 0 0 1-3.714 1.932 11.062 11.062 0 0 1-3.628.7 9.297 9.297 0 0 1-7.093-2.761 10.767 10.767 0 0 1-2.606-7.653 11.066 11.066 0 0 1 2.728-7.863 9.234 9.234 0 0 1 7.092-2.928 12.158 12.158 0 0 1 7.22 2.51l.322.232v-7.316l-.114-.057a12.789 12.789 0 0 0-3.5-1.19m24.954-.232a7.734 7.734 0 0 0-5.063 1.81 10.258 10.258 0 0 0-2.915 4.318h-.078v-5.567h-7.57v32.192h7.57V99.674a11.443 11.443 0 0 1 1.885-6.842 5.764 5.764 0 0 1 4.9-2.589 8.822 8.822 0 0 1 2.271.34 5.714 5.714 0 0 1 1.764.714l.322.229v-7.639l-.114-.057a7.99 7.99 0 0 0-2.972-.443m20.555-.225c-5.292 0-9.506 1.56-12.513 4.632-3.007 3.06-4.535 7.313-4.535 12.62 0 5.042 1.493 9.095 4.42 12.052 2.93 2.953 6.93 4.45 11.864 4.45 5.135 0 9.285-1.572 12.291-4.69 2.993-3.11 4.521-7.309 4.521-12.495 0-5.12-1.42-9.205-4.25-12.137-2.813-2.943-6.784-4.432-11.798-4.432m6.042 24.797a7.708 7.708 0 0 1-6.37 2.686 8.102 8.102 0 0 1-6.514-2.735c-1.57-1.833-2.357-4.44-2.357-7.743 0-3.417.786-6.089 2.357-7.945a8.819 8.819 0 0 1 12.741-.122c1.522 1.78 2.3 4.425 2.3 7.882 0 3.488-.729 6.181-2.157 7.977m26.804-10.713a16.443 16.443 0 0 1-4.55-2.364 3.308 3.308 0 0 1-.914-2.474 2.746 2.746 0 0 1 1.172-2.3 5.19 5.19 0 0 1 3.249-.918 13.186 13.186 0 0 1 3.893.597 12.398 12.398 0 0 1 3.392 1.574l.307.211v-7.003l-.129-.046a16.093 16.093 0 0 0-3.428-.968 21.356 21.356 0 0 0-3.777-.386 13.83 13.83 0 0 0-8.878 2.743 8.757 8.757 0 0 0-3.47 7.145 9.994 9.994 0 0 0 .749 3.99 8.05 8.05 0 0 0 2.3 3 19.436 19.436 0 0 0 4.65 2.602 34.576 34.576 0 0 1 3.877 1.803 5.35 5.35 0 0 1 1.707 1.4 3.174 3.174 0 0 1 .479 1.825c0 2.168-1.622 3.221-4.95 3.221a13.665 13.665 0 0 1-4.2-.764 16.101 16.101 0 0 1-4.292-2.178l-.32-.232v7.381l.114.057a18.389 18.389 0 0 0 4.078 1.246 21.077 21.077 0 0 0 4.327.508c3.936 0 7.092-.933 9.378-2.761a8.913 8.913 0 0 0 3.5-7.317 8.436 8.436 0 0 0-1.88-5.532 16.185 16.185 0 0 0-6.384-4.06m28.625-14.084c-5.306 0-9.52 1.56-12.527 4.632-3.007 3.06-4.535 7.313-4.535 12.62 0 5.042 1.493 9.095 4.42 12.052 2.93 2.953 6.929 4.45 11.857 4.45 5.156 0 9.292-1.572 12.298-4.69 3.007-3.11 4.521-7.309 4.521-12.495 0-5.12-1.42-9.205-4.25-12.137-2.813-2.943-6.784-4.432-11.784-4.432m6.028 24.797a7.703 7.703 0 0 1-6.364 2.686 8.133 8.133 0 0 1-6.528-2.735c-1.563-1.833-2.349-4.44-2.349-7.743 0-3.417.786-6.089 2.35-7.945a7.977 7.977 0 0 1 6.456-2.782 7.862 7.862 0 0 1 6.292 2.66c1.529 1.78 2.3 4.425 2.3 7.882 0 3.488-.729 6.181-2.157 7.977m50.394-17.84v-6.171h-7.67v-9.606l-.258.079-7.206 2.203-.143.042v7.282h-11.362V79.89a6.492 6.492 0 0 1 1.25-4.296 4.453 4.453 0 0 1 3.52-1.432 8.09 8.09 0 0 1 3.329.757l.278.122v-6.503l-.129-.043a12.766 12.766 0 0 0-4.264-.571 12.427 12.427 0 0 0-6.035 1.45 10.278 10.278 0 0 0-4.156 4.1 12.222 12.222 0 0 0-1.464 6.013v4.46h-5.342v6.17h5.342v26.022h7.67V90.118h11.363v16.538c0 6.803 3.214 10.26 9.542 10.26a15.878 15.878 0 0 0 3.264-.358 8.79 8.79 0 0 0 2.364-.753l.107-.058v-6.238l-.307.211a5.496 5.496 0 0 1-1.543.668 5.799 5.799 0 0 1-1.521.257 4.098 4.098 0 0 1-3.257-1.182c-.7-.8-1.042-2.19-1.042-4.143V90.118z"/><path class="cls-2" d="M3.535 71.349H54.105999999999995V121.93H3.535z"/><path class="cls-3" d="M59.358 71.349H109.939V121.93H59.358z"/><path class="cls-4" d="M3.535 127.207H54.105999999999995V177.79899999999998H3.535z"/><path class="cls-5" d="M59.358 127.207H109.939V177.79899999999998H59.358z"/><path class="cls-1" d="M182.545 177.374h-8.242l-4.072-11.526h-17.809l-3.914 11.526H140.3l16.956-45.279h8.46zm-14.302-17.651l-6.285-18.061a21.606 21.606 0 0 1-.598-2.84h-.127a18.529 18.529 0 0 1-.633 2.84l-6.219 18.06zm42.278-11.62l-17.459 23.556h17.395v5.715H182.8v-2.747l17.84-23.87h-16.136v-5.715h26.018zm33.063 29.27h-7.326v-5.115h-.127a10.543 10.543 0 0 1-9.913 5.874q-11.46 0-11.462-13.767v-19.323h7.325v18.565q0 8.715 6.725 8.715a6.794 6.794 0 0 0 5.35-2.4 9.186 9.186 0 0 0 2.102-6.284v-18.596h7.326zm26.993-25.354a6.065 6.065 0 0 0-3.818-1.041 6.537 6.537 0 0 0-5.43 2.936 13.124 13.124 0 0 0-2.179 7.988v15.472h-7.325v-32.332h7.325v6.66h.124a11.252 11.252 0 0 1 3.3-5.318 7.449 7.449 0 0 1 4.973-1.911 6.157 6.157 0 0 1 3.03.6zm30.695 11.177h-22.04a9.311 9.311 0 0 0 2.763 6.916 10.274 10.274 0 0 0 7.246 2.43 15.971 15.971 0 0 0 9.503-3.093v5.904q-4.42 2.778-11.681 2.779-7.14 0-11.195-4.405-4.058-4.404-4.057-12.394 0-7.545 4.467-12.298a14.618 14.618 0 0 1 11.1-4.752q6.629 0 10.263 4.263 3.63 4.263 3.631 11.84zm-7.074-5.177a9.445 9.445 0 0 0-1.864-6.141 6.224 6.224 0 0 0-5.052-2.196 7.11 7.11 0 0 0-5.35 2.305 10.54 10.54 0 0 0-2.7 6.032z"/></svg>