<svg xmlns="http://www.w3.org/2000/svg" id="Layer_1" data-name="Layer 1" viewBox="0 0 400 245"><defs><style>.cls-1{fill:#0096d6}</style></defs><path class="cls-1" d="M135.143 147.693h13.285v51.896h-13.285zM253.88 162.64c-.416-.414-4.568-2.906-11.21-2.906-8.304 0-14.531 5.812-14.531 13.701s5.812 13.7 14.531 13.7a23.06 23.06 0 0 0 11.21-2.906v14.116a47.375 47.375 0 0 1-12.04 1.66c-14.946 0-27.817-9.963-27.817-26.985 0-15.361 11.625-26.986 27.817-26.986 6.227 0 10.794 1.66 12.04 1.66zm-137.006 0c-.415-.414-4.566-2.906-11.21-2.906-8.302 0-14.53 5.812-14.53 13.701s5.812 13.7 14.53 13.7a23.06 23.06 0 0 0 11.21-2.906v14.116a47.374 47.374 0 0 1-12.04 1.66c-14.53 0-27.816-9.963-27.816-26.985 0-15.361 11.625-26.986 27.817-26.986 6.227 0 10.794 1.66 12.04 1.66zm205.508 11.21c0 14.946-11.625 26.986-27.401 26.986s-27.401-12.04-27.401-26.986 11.624-26.986 27.4-26.986c16.193 0 27.402 12.04 27.402 26.986zm-27.401-13.7a13.7 13.7 0 1 0 13.701 13.7 13.556 13.556 0 0 0-13.41-13.7q-.146-.002-.291 0zm-97.149-.416a45.926 45.926 0 0 0-10.379-1.66c-5.398 0-8.304 1.66-8.304 4.152 0 3.321 3.737 4.151 5.812 4.982l3.737 1.245c8.304 2.906 12.455 8.719 12.455 14.946 0 12.87-11.624 17.437-21.588 17.437a100.723 100.723 0 0 1-14.116-1.245v-12.04a42.873 42.873 0 0 0 12.455 2.075c6.642 0 9.549-2.075 9.549-4.981 0-2.492-2.491-4.152-5.812-4.982a7.697 7.697 0 0 0-2.907-.83c-7.473-2.492-13.285-6.644-13.285-15.362 0-9.55 7.473-16.191 19.513-16.191a67.272 67.272 0 0 1 12.87 1.66zM63.32 92.061a6.558 6.558 0 0 0-6.472-6.643h-.17a6.558 6.558 0 0 0-6.644 6.472v13.872a6.558 6.558 0 0 0 6.473 6.642h.17a6.558 6.558 0 0 0 6.643-6.472v-.17zM99.023 74.21a6.558 6.558 0 0 0-6.472-6.643h-.17c-3.737 0-6.228 2.906-6.228 6.643v31.553a6.643 6.643 0 1 0 13.285.142V74.21zm36.12-24.495a6.643 6.643 0 0 0-13.286 0v68.918a6.643 6.643 0 1 0 13.286.143v-.143zm35.704 24.495a6.643 6.643 0 0 0-13.285 0v31.553a6.643 6.643 0 1 0 13.285.143v-.143zm35.705 17.852a6.643 6.643 0 0 0-13.286 0v13.701a6.643 6.643 0 0 0 13.286 0zm35.704-17.852a6.643 6.643 0 1 0-13.286-.143v31.696a6.643 6.643 0 1 0 13.286.143v-.143zm35.704-24.495a6.643 6.643 0 1 0-13.285-.143v69.061a6.643 6.643 0 1 0 13.285.143v-.143zm35.705 24.495a6.643 6.643 0 0 0-13.285-.143v31.696a6.643 6.643 0 1 0 13.285.143v-.143zm35.704 17.852a6.643 6.643 0 1 0-13.286 0v13.701a6.643 6.643 0 1 0 13.286 0z"/></svg>