<svg xmlns="http://www.w3.org/2000/svg" viewBox="1.37 64.37 396.76 114.01"><defs><clipPath id="clip-path"><path fill="none" d="M9 72.072h381.741v98.856H9z"/></clipPath><style>.cls-2{fill:#323e48}.cls-3{clip-path:url(#clip-path)}.cls-4{fill:#76bc21}</style></defs><path d="M9 88.354v14.149h22.827v65.047h14.789v-65.047h22.826V88.354H9z" class="cls-2"/><g class="cls-3"><path d="M109.478 137.867h-9.752v29.685H85.15V88.355h29.471c18.113 0 26.58 11.896 26.58 24.755 0 9.647-5.038 19.291-16.614 23.042l19.935 31.4H127.16zm-9.752-13.183h13.29c9.536 0 13.18-5.68 13.18-11.466 0-6.002-3.965-11.252-11.575-11.252H99.726z" class="cls-2"/></g><path d="M163.138 88.357h14.682v79.197h-14.682zm39.073-.003h14.683v65.159h40.722v14.038h-55.405V88.354zm71.619.003h14.683v79.197H273.83z" class="cls-2"/><g class="cls-3"><path d="M348.877 165.218a36.025 36.025 0 0 0 25.81-10.53 36.736 36.736 0 0 0 10.461-26.415c0-20.795-15.932-37.085-36.27-37.085h-4.17v2.868h4.17c18.732 0 33.404 15.034 33.404 34.229a33.887 33.887 0 0 1-9.63 24.384 33.179 33.179 0 0 1-23.775 9.683c-19.044 0-33.403-14.65-33.403-34.08a34.8 34.8 0 0 1 8.283-22.775l-2.046-2.044a37.658 37.658 0 0 0-9.103 24.819c0 21.063 15.592 36.946 36.27 36.946" class="cls-4"/><path d="M348.879 170.928a41.571 41.571 0 0 0 29.787-12.153 42.395 42.395 0 0 0 12.073-30.49c0-23.889-18.295-42.688-41.652-42.8l-1.542-.007V72.072l-19.473 20.665 19.473 20.664V99.764h1.334c15.595 0 27.812 12.523 27.812 28.509a28.202 28.202 0 0 1-8.019 20.307 27.611 27.611 0 0 1-19.793 8.061c-15.858 0-27.814-12.201-27.814-28.381a29.028 29.028 0 0 1 6.711-18.744l-2.043-2.044a31.884 31.884 0 0 0-7.534 20.788c0 17.815 13.19 31.247 30.68 31.247a30.473 30.473 0 0 0 21.83-8.909 31.072 31.072 0 0 0 8.847-22.337c0-17.585-13.476-31.36-30.677-31.362h-4.2v9.283l-12.671-13.445 12.67-13.447v9.055h4.2c21.867 0 38.995 17.548 38.995 39.951a39.543 39.543 0 0 1-11.24 28.46 38.732 38.732 0 0 1-27.754 11.306c-22.231 0-38.996-17.102-38.996-39.778a40.59 40.59 0 0 1 9.856-26.806l-2.04-2.038a43.438 43.438 0 0 0-10.68 28.844c0 24.31 17.996 42.644 41.86 42.644" class="cls-4"/></g></svg>