<svg xmlns="http://www.w3.org/2000/svg" viewBox="-14.42 -13.92 723.84 112.34"><path fill="#20125e" d="M122.187 83.407c-12.347-3.7-18.388-19.001-14.302-36.226 4.56-19.22 23.969-26.376 37.285-13.746 5.425 5.146 6.358 7.562 7.095 18.368 1.578 23.158-11.701 37.111-30.078 31.604zm15.68-13.448c4.26-4.521 4.151-23.199-.164-28.26-3.322-3.897-7.79-4.758-13.218-2.547-6.473 2.637-8.235 23.89-2.608 31.475 2.701 3.64 12.31 3.238 15.99-.668zm149.89 14.238c-6.523-2.5-9.788-7.603-9.788-15.3 0-10.479 6.893-16.452 18.985-16.452 8.548 0 8.66-.091 8.056-6.544-.337-3.599-2.019-7.477-3.736-8.617-4.134-2.746-13.516-.127-13.516 3.772 0 1.693-1.762 3.077-3.915 3.077-3.035 0-3.915-1.385-3.915-6.16 0-7.786 4.474-10.463 17.489-10.463 15.27 0 17.747 3.77 17.747 27.013 0 15.238.543 18.7 2.936 18.7 1.827 0 2.936 1.963 2.936 5.195 0 4.552-.848 5.195-6.851 5.195-6.167 0-6.853-.57-6.861-5.714l-.01-5.714-4.395 5.535c-4.677 5.89-10.357 8.317-15.161 6.476zm14.038-12.334c4.903-4.71 4.77-13.185-.208-13.185-11.09 0-17.436 7.809-11.48 14.13 3.255 3.456 7.461 3.115 11.688-.945zm32.943 11.344c-7.088-2.783-7.768-5.057-7.8-26.087-.025-15.686-.57-19.221-2.967-19.221-1.827 0-2.936-1.963-2.936-5.195s1.11-5.195 2.936-5.195c1.92 0 2.936-2.04 2.936-5.9 0-4.277 1.347-6.551 4.894-8.267 4.774-2.309 4.894-2.164 4.894 5.9 0 8.063.17 8.267 6.851 8.267 6.004 0 6.852.644 6.852 5.195 0 4.58-.835 5.195-7.059 5.195h-7.058l.715 16.711c.747 17.479 2.885 21.681 10.093 19.842 2.684-.685 3.395.154 2.936 3.47-.73 5.266-8.497 7.951-15.287 5.285zM396.4 84.28c-12.944-2.913-18.597-11.327-18.597-27.68 0-11.78 3.622-20.948 10.212-25.848 4.946-3.677 19.478-4.315 25.132-1.103 9.785 5.559 13.667 30.572 6.691 43.109-4.83 8.681-14.64 13.504-23.439 11.523zm14.262-20.279c2.051-6.668 2.051-9.746 0-16.623-2.166-7.261-3.379-8.528-8.691-9.076-7.99-.823-12.423 5.548-12.423 17.86 0 13.492 2.69 17.428 11.384 16.66 6.478-.571 7.469-1.47 9.73-8.82zm155.13 19c-3.856-1.423-8.714-5.551-11.256-9.565-7.78-12.283-4.844-34.815 5.544-42.538 6.841-5.086 19.714-4.416 24.748 1.287 4.873 5.522 8.302 14.375 8.302 21.434 0 4.94-.373 5.06-15.66 5.06-16.738 0-18.348 1.236-12.722 9.763 3.653 5.536 11.717 7.528 20.062 4.956 5.904-1.82 6.362-1.608 6.362 2.949 0 2.9-1.402 5.328-3.426 5.933-9.324 2.787-15.78 2.999-21.955.72zm15.593-35.888c0-10.577-13.138-16.022-17.549-7.272-4.232 8.393-2.66 10.526 7.761 10.526 7.578 0 9.788-.735 9.788-3.254zm31.321 35.86c-7.833-2.83-15.691-16.583-15.617-27.332.057-8.462 6.51-23.103 11.407-25.886 5.006-2.844 17.015-2.902 21.936-.106 4.717 2.68 8.787 11.105 10.259 21.237l1.132 7.793h-16.516c-9.084 0-16.516.423-16.516.94s.995 3.26 2.211 6.094c3.143 7.323 11.946 10.776 20.426 8.013 6.388-2.08 6.726-1.936 6.726 2.875 0 2.786-1.101 5.43-2.447 5.877-7.449 2.472-16.967 2.676-23.001.495zm16.404-34.28c.536-.921-.093-3.96-1.398-6.754-3.41-7.299-11.859-7.9-16.031-1.14-1.775 2.876-2.66 6.205-1.965 7.399 1.477 2.536 17.96 2.957 19.394.494zM0 78.418c0-3.232 1.11-5.194 2.936-5.194 2.47 0 2.937-4.618 2.937-29.091s-.466-29.091-2.937-29.091C1.305 15.043 0 13.196 0 10.887 0 7.193 1.305 6.73 11.745 6.73c10.219 0 11.745.511 11.745 3.933 0 2.164-1.321 4.472-2.936 5.13-2.441.994-2.937 6.814-2.937 34.508v33.312H8.808C.718 83.614 0 83.191 0 78.42zm27.406 0c0-2.857.88-5.194 1.957-5.194 1.152 0 1.958-7.273 1.958-17.662 0-14.315-.557-17.662-2.936-17.662-1.827 0-2.937-1.963-2.937-5.195 0-4.747.736-5.195 8.538-5.195 8.051 0 8.484.296 7.602 5.195-.515 2.857-.299 5.195.479 5.195s3.147-2.338 5.264-5.195c2.922-3.943 5.676-5.195 11.427-5.195 11.771 0 13.672 4.543 13.672 32.67v23.434h-6.85c-6.003 0-6.852-.643-6.852-5.195 0-2.857.881-5.195 1.958-5.195 2.843 0 2.488-29.774-.392-32.83-3.459-3.673-10.286-3.035-13.987 1.306-2.519 2.954-3.24 8.04-3.24 22.857v19.057h-7.83c-7.047 0-7.83-.52-7.83-5.195zm52.854 0c0-3.232 1.11-5.194 2.936-5.194 2.38 0 2.937-3.348 2.937-17.662 0-14.315-.557-17.662-2.937-17.662-1.827 0-2.936-1.963-2.936-5.195s1.11-5.195 2.936-5.195c2.114 0 2.937-2.296 2.937-8.196 0-13.748 8.52-20.545 23.98-19.13 2.022.184 3.425 2.015 3.425 4.468 0 3.215-1.305 4.156-5.761 4.156-6.486 0-11.856 6.328-11.856 13.97 0 3.662 1.106 4.732 4.893 4.732 3.916 0 4.894 1.039 4.894 5.195s-.978 5.194-4.894 5.194h-4.893v45.715h-7.83c-7.048 0-7.83-.52-7.83-5.194zm76.344 0c0-3.232 1.11-5.194 2.936-5.194 2.38 0 2.937-3.348 2.937-17.662 0-14.315-.557-17.662-2.937-17.662-1.827 0-2.936-1.963-2.936-5.195 0-4.676.783-5.195 7.83-5.195 7.497 0 7.837.287 7.985 6.753.085 3.715.64 5.351 1.234 3.637 2.067-5.966 7.078-10.39 11.771-10.39 3.993 0 4.513.722 3.369 4.675-.745 2.572-1.465 4.676-1.6 4.676-.136 0-2.853 1.416-6.038 3.148-6.941 3.773-8.438 8.685-8.695 28.54l-.195 15.065h-7.83c-7.048 0-7.83-.52-7.83-5.195zm39.151 0c0-2.857.88-5.194 1.957-5.194 1.152 0 1.958-7.273 1.958-17.662 0-14.315-.557-17.662-2.936-17.662-1.827 0-2.937-1.963-2.937-5.195 0-4.676.783-5.195 7.83-5.195 7.193 0 7.83.455 7.83 5.584v5.583l5.491-5.583c3.564-3.624 7.636-5.584 11.605-5.584 6.16 0 12.267 4.46 12.267 8.958 0 1.336 2.238-.134 4.973-3.265 5.617-6.43 15.237-7.656 21.57-2.748 3.327 2.58 3.88 6.066 4.452 28.052l.654 25.107h-7.015c-6.178 0-7.016-.62-7.016-5.195 0-2.857.881-5.194 1.958-5.194 1.116 0 1.957-6.185 1.957-14.397 0-15.272-2.653-20.928-9.816-20.928-6.952 0-9.76 7.904-9.76 27.475v18.239h-7.83c-7.046 0-7.83-.52-7.83-5.195 0-3.422 1.092-5.195 3.2-5.195 2.749 0 3.061-2.044 2.22-14.515-1.018-15.116-3.555-20.81-9.271-20.81-7.413 0-9.851 6.6-9.851 26.657v19.057h-7.83c-7.048 0-7.83-.52-7.83-5.195zm160.52 0c0-2.857.88-5.194 1.957-5.194 1.152 0 1.958-7.273 1.958-17.662 0-10.39-.806-17.662-1.958-17.662-1.076 0-1.957-2.338-1.957-5.195 0-4.676.783-5.195 7.83-5.195h7.83v56.104h-7.83c-7.047 0-7.83-.52-7.83-5.195zm72.429 0c0-2.857.88-5.194 1.957-5.194 1.152 0 1.958-7.273 1.958-17.662 0-14.315-.557-17.662-2.936-17.662-1.827 0-2.937-1.963-2.937-5.195 0-4.676.783-5.195 7.83-5.195 7.163 0 7.83.469 7.83 5.498v5.499l4.801-5.499c3.34-3.825 6.764-5.488 11.256-5.466 12.711.063 15.264 5.769 15.264 34.117v21.955h-7.83c-7.047 0-7.83-.52-7.83-5.195 0-3.232 1.11-5.195 2.936-5.195 2.273 0 2.93-2.7 2.91-11.948-.035-15.465-1.497-20.872-6.058-22.409-10.649-3.587-15.449 5.57-15.449 29.472v15.274h-6.85c-6.004 0-6.852-.643-6.852-5.194zm51.873-28.27c-5.255-18.405-10.708-33.934-12.118-34.508-1.41-.574-2.563-2.813-2.563-4.977 0-3.18 1.448-3.934 7.565-3.934h7.565l7.606 30.127c4.184 16.57 8.06 30.13 8.613 30.13.553.002 3.427-9.256 6.386-20.574 4.15-15.872 4.938-21.81 3.446-25.974-1.063-2.968-2.836-5.397-3.939-5.397s-2.006-1.927-2.006-4.281c0-3.654 1.04-4.187 7.091-3.637l7.091.645 6.352 27.603c3.494 15.182 6.847 28.128 7.452 28.771 1.035 1.1 5.83-14.455 11.56-37.498 2.025-8.14 2.044-10.392.094-11.082-1.346-.476-2.447-2.659-2.447-4.85 0-3.38 1.444-3.982 9.539-3.982h9.538l-22.145 75.845-12.275 1.277-3.343-16.223c-5.023-24.378-5.693-24.556-11.756-3.112-5.324 18.832-5.485 19.098-11.576 19.098h-6.176zm163.46 28.27c0-2.857.88-5.194 1.957-5.194 1.218 0 1.958-11.775 1.958-31.17 0-26.32-.457-31.168-2.936-31.168-1.827 0-2.937-1.963-2.937-5.195 0-4.772.718-5.195 8.81-5.195h8.808V53.26l6.932-7.132c3.813-3.923 6.015-7.457 4.894-7.854-1.12-.397-2.038-2.98-2.038-5.743 0-4.812.549-5.021 13.157-5.021h13.157l-24.007 25.974 10.543 13.507c5.799 7.428 10.565 14.208 10.592 15.065.027.857-5.237 1.558-11.697 1.558-11.223 0-11.745-.23-11.745-5.195 0-2.857.936-5.195 2.08-5.195 1.143 0-.84-4.32-4.405-9.602l-6.484-9.602-.575 14.797-.575 14.797h-7.745c-6.955 0-7.744-.529-7.744-5.195zM358.987 18.28c-1.9-5.256.138-10.49 4.333-11.13 5.244-.8 9.299 4.42 7.67 9.87-1.494 4.994-10.318 5.92-12.003 1.26z"/></svg>