<svg viewBox="-2.81 91.69 406.38 62.38" xmlns="http://www.w3.org/2000/svg"><path d="m5.03 100.668v8.073h11.492v36.796h9.958v-36.796h11.25v-8.073zm256.264 0v8.073h11.495v36.796h9.954v-36.796h11.25v-8.073zm-219.904 44.87h10.082v-19.465h12.518v19.464h9.958v-44.951h-10.143v17.414h-12.397v-17.414h-10.018zm154.308-44.952h-10.02v44.951l10.05-21.596z" fill="#00aff4"/><path d="m195.728 123.94.031 21.597 10.842-23.36v-21.591z" fill="#ff3287"/><path d="m185.678 145.537h10.081l-.032-21.596z" fill="#c87296"/><path d="m216.62 100.586-10.019 21.59v23.361l10.05-21.596z" fill="#00aff4"/><path d="m206.601 100.586v21.59l10.018-21.59z" fill="#c87296"/><path d="m227.524 100.586-10.874 23.354.032 21.596 20.86-44.951z" fill="#ff3287"/><path d="m206.601 145.537h10.081l-.032-21.596z" fill="#c87296"/><path d="m152.432 145.454h28.254v-8.072h-18.296v-11.31h13.95v-8.072h-14.073v-9.26h18.42v-8.072h-28.255z" fill="#ff3287"/><path d="m80.038 145.454h28.253v-8.072h-18.295v-11.31h13.951v-8.072h-14.073v-9.26h18.417v-8.072h-28.253z" fill="#00aff4"/><path d="m114.446 145.537h8.755v-20.96c0-1.169-.225-6.893-.274-8.185h.274c2.51 5.472 2.583 5.668 3.637 7.449l11.358 21.697h7.884v-44.952h-8.755v16.792c0 1.72 0 2.088.163 5.174l.217 4.546h-.265c-.177-.307-.841-1.965-1.037-2.334q-.789-1.56-1.66-3.075l-11.14-21.102h-9.156z" fill="#ff3287"/><path d="m300.132 100.678-12.726 44.858h9.653l2.336-9.22h13.83l2.273 9.22h9.65l-13.03-44.858zm11.127 28.59h-10.14l4.916-20.537h.246zm13.775-.018c0 9.221 2.336 11.688 4.14 13.4 2.755 2.652 6.3 3.831 11.413 3.831 1.925 0 6.533-.41 9.731-2.886a11.919 11.919 0 0 0 4.735-7.829 28.376 28.376 0 0 0 .43-5.532h-9.958c0 4.855-1.198 8.174-5.174 8.174-5.355 0-5.355-4.73-5.355-7.19v-17.16c0-1.24.063-3.455 1.625-4.926a5.98 5.98 0 0 1 3.793-1.415c4.928 0 5.049 4.917 5.11 7.138h9.96c-.124-3.636-.615-9.128-4.703-12.26a16.727 16.727 0 0 0 -9.942-2.951c-10.408 0-15.806 5.724-15.806 16.012v13.594zm33.744 16.287h10.082v-44.951h-10.082zm24.095-44.951-13.64 21.688 14.934 23.264h11.863l-16.042-24 13.77-20.951zm-131.847.082c-9.414 0-14.175 5.204-14.175 12.59 0 8.83 5.205 10.787 12.006 13.409 7.466 2.612 9.507 3.34 9.507 6.69 0 4.076-4.272 5.05-6.65 5.05a9.11 9.11 0 0 1 -8.9-6.084l-6.886 5.05c3.688 7.213 7.806 9.107 16.258 9.107 2.51 0 6.597-.676 9.13-2.263a13.034 13.034 0 0 0 6.144-11.834 13.761 13.761 0 0 0 -2.43-7.848 16.003 16.003 0 0 0 -7.476-5.234l-6.322-2.07c-3.052-.984-6.31-1.23-6.31-4.393 0-.473.124-3.781 5.1-4.1h7.858v-8.07z" fill="#00aff4"/></svg>