<svg fill="none" height="119" viewBox="0 0 293 119" width="293" xmlns="http://www.w3.org/2000/svg" xmlns:xlink="http://www.w3.org/1999/xlink"><mask id="a" height="44" maskUnits="userSpaceOnUse" width="42" x="6" y="25"><path d="m6.23877 46.8233c0 11.7039 10.25853 22.0398 22.03693 22.0398h.7599.4559.152.4559.152l.456-.076h.1519l.456-.076h.076l.5319-.076h.076c.3039-.076.6079-.076.9119-.152h.1519c.228-.076.456-.076.6839-.152h.152c.228-.076.5319-.152.7599-.228h.076c5.2433-1.5199 9.1947-4.8639 12.5383-8.8919-.532-.76-.8359-1.368-.9879-1.672l-4.0274-6.3079c-.9879 1.4439-2.1277 2.7359-3.2676 4.0279-1.8997 1.976-3.9514 3.42-6.2311 4.18-.38.152-.7599.228-1.2159.304-.3799.076-.8358.152-1.2158.228-.152 0-.3039.076-.4559.076h-.228c-.152 0-.3799 0-.5319.076h-.7599c-.7599 0-1.5958-.076-2.3557-.228-.6079-.152-1.1398-.304-1.6717-.532-.38-.152-.7599-.304-1.1399-.456-.3799-.228-.7599-.38-1.1398-.608-1.6718-.988-3.1156-2.356-4.3314-3.876-.228-.38-.532-.684-.7599-1.064-.076-.152-.228-.38-.304-.608-.2279-.3799-.3799-.7599-.6079-1.2159-1.2158-2.964-1.2158-6.232 0-9.196.152-.38.38-.836.6079-1.216.076-.228.228-.38.304-.608.2279-.38.4559-.76.7599-1.064 1.1398-1.596 2.6596-2.8879 4.3314-3.8759.3799-.228.7599-.38 1.1398-.608.38-.152.7599-.304 1.1399-.456.5319-.228 1.1398-.38 1.7477-.532.7599-.152 1.5198-.228 2.3557-.228h.7599c.152 0 .3799 0 .5319.076h.228.2279c.456.076.9119.152 1.3678.228.228.076.456.076.608.152 1.0638.304 2.0517.76 2.9635 1.292.38.228.7599.456 1.1399.76.7599.532 1.4438 1.14 2.1277 1.8239.3799.304.6839.684.9879 1.064.9878 1.14 1.8997 2.28 2.8116 3.496 1.3678-2.128 3.4195-5.3959 4.1794-6.5359.3039-.456.6079-.836.9119-1.292-3.4196-4.18-7.523-7.6-12.9942-9.12h-.152c-.304-.076-.5319-.152-.8359-.228h-.076c-.228-.076-.5319-.076-.7599-.152h-.152c-.3039-.076-.6079-.076-.9118-.152-.152 0-.38-.076-.532-.076h-.0759l-.456-.076h-.152-.4559-.152-.4559-.9119c-11.7783-.152-21.96093 10.108-21.96093 21.8119z" fill="#fff"/></mask><mask id="b" height="64" maskUnits="userSpaceOnUse" width="50" x="45" y="5"><path d="m60.6472 54.1185c-.076-.076-.076-.076-.076-.152-.152-.152-.304-.38-.456-.532-.1519-.228-.3039-.38-.4559-.532s-.228-.304-.304-.456c-.5319-.684-.9878-1.3679-1.5197-2.1279-.152-.228-.38-.532-.532-.76-.076-.152-.2279-.304-.3039-.456-.152-.228-.38-.532-.532-.76l-.1519-.152c-.304-.456-.6079-.912-.9119-1.444.5319-.76.9879-1.52 1.4438-2.204s.9879-1.368 1.4438-2.052.9119-1.292 1.4438-1.9c.4559-.608.9119-1.14 1.4438-1.672.3039-.38.6839-.76.9879-1.064.3799-.304.6839-.684 1.0638-.988.38-.304.6839-.6079 1.0639-.8359.6079-.456 1.2918-.836 1.9757-1.14.076-.076.152-.076.228-.152h.0759c.38-.152.6839-.304 1.0639-.456l.152-.076c.076 0 .152 0 .2279-.076.304-.076.532-.152.8359-.228l.38-.076c.3799-.076.7599-.152 1.2158-.228h.228.2279c.152 0 .38 0 .532-.076h.7599c.3799 0 .7599 0 1.1398.076.6079.076 1.1398.152 1.7478.304.3799.076.7599.228 1.1398.38s.7599.304 1.1398.456c.38.152.7599.38 1.1399.608.3799.228.7599.456 1.0638.684.38.228.6839.5319.9879.8359.8359.684 1.5958 1.52 2.2037 2.356.228.38.5319.684.7599 1.064.6079.912.9879 1.976 1.3678 3.04.152.456.228.836.3039 1.292.152.684.152 1.368.152 2.052 0 9.0439-4.0274 13.1479-13.1461 13.1479h-.7599c-.152 0-.38 0-.532-.076h-.2279c-.152 0-.304 0-.456-.076-.8358-.076-1.5957-.304-2.4316-.608-.6079-.228-1.1399-.456-1.6718-.684-.5319-.304-1.0638-.608-1.5958-.988-.2279-.152-.5319-.38-.7599-.532-.7599-.608-1.5198-1.292-2.2037-1.976-.3039-.076-.6079-.456-.9118-.76zm24.8485-48.48764v23.86384c-3.7995-3.04-8.4348-4.712-13.2981-4.712h-.7599-.456-.1519-.456-.152l-.4559.076h-.076c-.152 0-.3799 0-.5319.076h-.076c-.304.076-.6079.076-.9119.152h-.152c-.3039.076-.5319.076-.7599.152h-.0759c-7.675 1.748-12.6903 7.296-16.8697 13.2999-.152.228-.304.532-.5319.76-.5319.836-1.3678 2.128-2.2037 3.344-1.0639 1.672-2.1277 3.268-2.5077 3.952l5.2433 8.1319s5.5472 10.184 15.5778 12.9959h.076c.228.076.532.152.7599.228h.152c.228.076.4559.076.6839.152h.152c.3039.076.6079.076.9119.152h.0759l.532.076h.076l.4559.076h.152l.4559.076h.152.4559.152.4559.7599c13.8301 0 21.809-7.8279 21.961-21.5078v-41.34374c-.076 0-8.8148 0-8.8148 0z" fill="#fff"/></mask><path d="m6.23877 46.8233c0 11.7039 10.25853 22.0398 22.03693 22.0398h.7599.4559.152.4559.152l.456-.076h.1519l.456-.076h.076l.5319-.076h.076c.3039-.076.6079-.076.9119-.152h.1519c.228-.076.456-.076.6839-.152h.152c.228-.076.5319-.152.7599-.228h.076c5.2433-1.5199 9.1947-4.8639 12.5383-8.8919-.532-.76-.8359-1.368-.9879-1.672l-4.0274-6.3079c-.9879 1.4439-2.1277 2.7359-3.2676 4.0279-1.8997 1.976-3.9514 3.42-6.2311 4.18-.38.152-.7599.228-1.2159.304-.3799.076-.8358.152-1.2158.228-.152 0-.3039.076-.4559.076h-.228c-.152 0-.3799 0-.5319.076h-.7599c-.7599 0-1.5958-.076-2.3557-.228-.6079-.152-1.1398-.304-1.6717-.532-.38-.152-.7599-.304-1.1399-.456-.3799-.228-.7599-.38-1.1398-.608-1.6718-.988-3.1156-2.356-4.3314-3.876-.228-.38-.532-.684-.7599-1.064-.076-.152-.228-.38-.304-.608-.2279-.3799-.3799-.7599-.6079-1.2159-1.2158-2.964-1.2158-6.232 0-9.196.152-.38.38-.836.6079-1.216.076-.228.228-.38.304-.608.2279-.38.4559-.76.7599-1.064 1.1398-1.596 2.6596-2.8879 4.3314-3.8759.3799-.228.7599-.38 1.1398-.608.38-.152.7599-.304 1.1399-.456.5319-.228 1.1398-.38 1.7477-.532.7599-.152 1.5198-.228 2.3557-.228h.7599c.152 0 .3799 0 .5319.076h.228.2279c.456.076.9119.152 1.3678.228.228.076.456.076.608.152 1.0638.304 2.0517.76 2.9635 1.292.38.228.7599.456 1.1399.76.7599.532 1.4438 1.14 2.1277 1.8239.3799.304.6839.684.9879 1.064.9878 1.14 1.8997 2.28 2.8116 3.496 1.3678-2.128 3.4195-5.3959 4.1794-6.5359.3039-.456.6079-.836.9119-1.292-3.4196-4.18-7.523-7.6-12.9942-9.12h-.152c-.304-.076-.5319-.152-.8359-.228h-.076c-.228-.076-.5319-.076-.7599-.152h-.152c-.3039-.076-.6079-.076-.9118-.152-.152 0-.38-.076-.532-.076h-.0759l-.456-.076h-.152-.4559-.152-.4559-.9119c-11.7783-.152-21.96093 10.108-21.96093 21.8119z" fill="#fff"/><g mask="url(#a)"><path d="m4.55591 24.9238 42.60019-1.6174 1.7239 45.4159-42.60026 1.6174z" fill="#fff"/></g><path d="m60.6472 54.1185c-.076-.076-.076-.076-.076-.152-.152-.152-.304-.38-.456-.532-.1519-.228-.3039-.38-.4559-.532s-.228-.304-.304-.456c-.5319-.684-.9878-1.3679-1.5197-2.1279-.152-.228-.38-.532-.532-.76-.076-.152-.2279-.304-.3039-.456-.152-.228-.38-.532-.532-.76l-.1519-.152c-.304-.456-.6079-.912-.9119-1.444.5319-.76.9879-1.52 1.4438-2.204s.9879-1.368 1.4438-2.052.9119-1.292 1.4438-1.9c.4559-.608.9119-1.14 1.4438-1.672.3039-.38.6839-.76.9879-1.064.3799-.304.6839-.684 1.0638-.988.38-.304.6839-.6079 1.0639-.8359.6079-.456 1.2918-.836 1.9757-1.14.076-.076.152-.076.228-.152h.0759c.38-.152.6839-.304 1.0639-.456l.152-.076c.076 0 .152 0 .2279-.076.304-.076.532-.152.8359-.228l.38-.076c.3799-.076.7599-.152 1.2158-.228h.228.2279c.152 0 .38 0 .532-.076h.7599c.3799 0 .7599 0 1.1398.076.6079.076 1.1398.152 1.7478.304.3799.076.7599.228 1.1398.38s.7599.304 1.1398.456c.38.152.7599.38 1.1399.608.3799.228.7599.456 1.0638.684.38.228.6839.5319.9879.8359.8359.684 1.5958 1.52 2.2037 2.356.228.38.5319.684.7599 1.064.6079.912.9879 1.976 1.3678 3.04.152.456.228.836.3039 1.292.152.684.152 1.368.152 2.052 0 9.0439-4.0274 13.1479-13.1461 13.1479h-.7599c-.152 0-.38 0-.532-.076h-.2279c-.152 0-.304 0-.456-.076-.8358-.076-1.5957-.304-2.4316-.608-.6079-.228-1.1399-.456-1.6718-.684-.5319-.304-1.0638-.608-1.5958-.988-.2279-.152-.5319-.38-.7599-.532-.7599-.608-1.5198-1.292-2.2037-1.976-.3039-.076-.6079-.456-.9118-.76zm24.8485-48.48764v23.86384c-3.7995-3.04-8.4348-4.712-13.2981-4.712h-.7599-.456-.1519-.456-.152l-.4559.076h-.076c-.152 0-.3799 0-.5319.076h-.076c-.304.076-.6079.076-.9119.152h-.152c-.3039.076-.5319.076-.7599.152h-.0759c-7.675 1.748-12.6903 7.296-16.8697 13.2999-.152.228-.304.532-.5319.76-.5319.836-1.3678 2.128-2.2037 3.344-1.0639 1.672-2.1277 3.268-2.5077 3.952l5.2433 8.1319s5.5472 10.184 15.5778 12.9959h.076c.228.076.532.152.7599.228h.152c.228.076.4559.076.6839.152h.152c.3039.076.6079.076.9119.152h.0759l.532.076h.076l.4559.076h.152l.4559.076h.152.4559.152.4559.7599c13.8301 0 21.809-7.8279 21.961-21.5078v-41.34374c-.076 0-8.8148 0-8.8148 0z" fill="#fff"/><g mask="url(#b)"><path d="m42.5232 5.75781 51.6315-2.02797 2.5495 64.92756-51.6315 2.028z" fill="#fff"/></g><g fill="#fff"><path d="m185.726 50.3959c0 .6079-.456 1.0639-1.064 1.0639h7.067c-.608 0-1.14-.456-1.14-1.0639 0-.608.456-1.14 1.064-1.14h-6.991c.532 0 1.064.532 1.064 1.14z" opacity=".6"/><path d="m193.021 40.0595c0 .608-.456 1.064-1.064 1.064h3.039c.38-.38.76-.76 1.064-1.064l1.064-1.064h-5.167c.608-.076 1.064.456 1.064 1.064z" opacity=".8"/><path d="m190.589 40.0595c0 .608.456 1.064 1.064 1.064h.228c.608 0 1.064-.456 1.064-1.064s-.456-1.064-1.064-1.064h-.228c-.532-.076-1.064.456-1.064 1.064z" opacity=".6"/><path d="m190.589 40.0595c0 .608.456 1.064 1.064 1.064h.228c.608 0 1.064-.456 1.064-1.064s-.456-1.064-1.064-1.064h-.228c-.532-.076-1.064.456-1.064 1.064z" opacity=".8"/><path d="m196.744 36.4878c0-.608-.456-1.064-1.064-1.064h-12.31c-.304.684-.608 1.444-.912 2.204h13.222c.532-.076 1.064-.532 1.064-1.14z" opacity=".9"/><path d="m208.371 35.4238c.152.152.304.304.532.532s.531.532.759.76c.152-.456.38-.836.532-1.292z" opacity=".7"/><path d="m196.744 36.4876c0 .608-.456 1.064-1.064 1.064h2.888l2.203-2.2039h-5.015c.456.076.988.532.988 1.1399z" opacity=".7"/><path d="m187.701 33.0679c0 .608-.456 1.064-1.064 1.064h8.815c-.608 0-1.064-.456-1.064-1.064s.456-1.064 1.064-1.064h-8.815c.532 0 1.064.456 1.064 1.064z" opacity=".5"/><path d="m183.978 34.0566-.076.152h.608c-.152 0-.304-.076-.532-.152z" opacity=".7"/><path d="m186.562 34.2081c.608 0 1.063-.456 1.063-1.064s-.455-1.064-1.063-1.064h-1.292l-.076.076-.152.304c-.076.076-.076.152-.152.228s-.076.152-.152.304-.076.152-.152.228-.076.152-.152.304-.076.152-.152.228l-.152.304-.076.152c.152.076.38.152.532.152z" opacity=".5"/><path d="m186.562 34.2081c.608 0 1.063-.456 1.063-1.064s-.455-1.064-1.063-1.064h-1.292l-.076.076-.152.304c-.076.076-.076.152-.152.228s-.076.152-.152.304-.076.152-.152.228-.076.152-.152.304-.076.152-.152.228l-.152.304-.076.152c.152.076.38.152.532.152z" opacity=".7"/><path d="m204.951 32.0037c.76.76 1.444 1.444 2.204 2.204h3.647c.38-.76.836-1.52 1.368-2.204zm-10.639 1.064c0 .608.456 1.064 1.064 1.064h6.459l2.204-2.204h-8.663c-.532.076-1.064.532-1.064 1.14z"/><path d="m208.295 29.5716c0 .608-.456 1.064-1.064 1.064h6.003c.608-.76 1.292-1.52 1.976-2.204h-7.979c.532 0 1.064.532 1.064 1.14z" opacity=".5"/><path d="m196.744 26.1519c0-.608.456-1.064 1.064-1.064h-5.167l-.076.076-.152.076c-.076.076-.228.152-.304.152l-.152.076-.304.228-.152.076c-.152.076-.304.228-.456.304l-.076.076c-.152.076-.228.152-.38.304l-.152.076-.304.228-.152.152c-.076.076-.152.152-.304.228l-.152.152-.076.076h8.207c-.456-.152-.912-.608-.912-1.216z" opacity=".7"/><path d="m218.021 25.7719-.152-.076-.304-.228-.152-.076c-.076-.076-.228-.152-.304-.152l-.152-.076-.076-.076h-18.921c.608 0 1.064.456 1.064 1.064s-.456 1.064-1.064 1.064h18.541c.532-.456 1.14-.912 1.748-1.292z" opacity=".6"/><path d="m199.024 26.1519c0-.608-.456-1.064-1.064-1.064h-.076c-.608 0-1.064.456-1.064 1.064s.456 1.064 1.064 1.064h.076c.532 0 1.064-.456 1.064-1.064z" opacity=".8"/><path d="m204.723 21.7441c-3.268 0-6.459.684-9.423 1.976h18.922c-3.04-1.292-6.231-1.976-9.499-1.976z"/><path d="m186.03 43.4037c0 .608-.456 1.064-1.064 1.064h6.611l2.204-2.204h-8.815c.532.076 1.064.532 1.064 1.14z" opacity=".7"/><path d="m186.03 43.4038c0-.608-.456-1.064-1.064-1.064h-.076c.608 0 1.064.456 1.064 1.064s-.456 1.064-1.064 1.064h.076c.532.076 1.064-.456 1.064-1.064z"/><path d="m201.076 46.8998c0-.38 0-.684-.076-1.064v-.076h-19.91c0 .76.076 1.444.152 2.204h19.91c0-.304-.076-.684-.076-1.064z" opacity=".9"/><path d="m190.589 50.3955c0 .608.456 1.064 1.064 1.064h9.802c-.076-.456-.152-.988-.228-1.444 0-.228-.076-.456-.076-.684h-9.498c-.532-.076-1.064.456-1.064 1.064z" opacity=".8"/><path d="m183.446 50.396c0-.608.456-1.064 1.064-1.064h-3.116v.152l.076.228c0 .076 0 .228.076.304s0 .152.076.228.076.228.076.304.076.152.076.228.076.228.076.304.076.152.076.228v.076h2.66c-.684.076-1.14-.38-1.14-.988z" opacity=".6"/><path d="m183.446 50.3959c0 .6079.456 1.0639 1.064 1.0639h.076c.608 0 1.14-.456 1.14-1.0639 0-.608-.456-1.14-1.064-1.14h-.152c-.532 0-1.064.532-1.064 1.14z" opacity=".9"/><path d="m196.06 52.752c.152 0 .228.076.38.152.076 0 .152.076.152.152l.076.076.152.152c.076.1519.152.2279.152.3799.076.304 0 .608-.228.912-.076.076-.076.152-.152.152-.076.076-.076.076-.152.152-.076 0-.076.076-.152.076-.152.076-.228.076-.38.076h6.459c-.152-.38-.228-.76-.304-1.064s-.228-.76-.304-1.1399z" opacity=".7"/><path d="m195.908 54.9561c-.608 0-1.064-.456-1.064-1.064s.456-1.064 1.064-1.064h-13.678v.076l.076.304c0 .076.076.152.076.304s.076.228.076.304.076.152.076.228l.076.304.076.228c.076.076.076.152.152.304 0 .076.076.076.076.152z" opacity=".6"/><path d="m203.203 57.0844c-.076-.228-.152-.456-.228-.684h-19.149l.076.076c.076.076.076.228.152.304s.076.152.152.228.152.228.228.304c0 .076.076.152.076.228.076.152.152.228.228.38l.076.152c.076.152.228.304.304.532h18.693c-.152-.456-.38-.988-.608-1.52z" opacity=".7"/><path d="m194.313 61.0367c0-.608.456-1.064 1.063-1.064h-9.27c.152.152.304.38.38.532l.076.076c.076.152.228.304.38.38.076.076.076.0759.152.1519.076.152.228.228.304.38l.152.152c.151.152.303.304.455.456h7.371c-.532 0-1.063-.456-1.063-1.0639z" opacity=".6"/><path d="m194.312 61.0365c0 .608.456 1.064 1.064 1.064h10.411c-.228-.38-.456-.684-.684-1.064s-.38-.76-.608-1.14h-9.119c-.608 0-1.064.532-1.064 1.14z" opacity=".6"/><path d="m194.312 61.0365c0 .608.456 1.064 1.064 1.064h10.411c-.228-.38-.456-.684-.684-1.064s-.38-.76-.608-1.14h-9.119c-.608 0-1.064.532-1.064 1.14z" opacity=".8"/><path d="m216.045 63.3926c.228.152.38.38.608.532.228.228.456.38.684.532s.456.38.684.532l.076-.076c-.76-.456-1.444-.988-2.052-1.52z" opacity=".6"/><path d="m198.416 64.4566c0 .608-.456 1.064-1.064 1.064h5.547c-.608 0-1.064-.456-1.064-1.064s.456-1.064 1.064-1.064h-5.547c.532 0 1.064.456 1.064 1.064z" opacity=".6"/><path d="m196.212 64.4566c0-.608.456-1.064 1.064-1.064h-7.903l.228.152.076.076c.152.076.304.228.38.304l.076.076c.076.076.228.152.304.228l.152.076.304.228.152.076c.076.076.228.152.304.228l.152.076c.152.076.228.152.38.228h.076c.152.076.304.152.38.228h4.863c-.532.228-.988-.304-.988-.912z" opacity=".6"/><path d="m196.212 64.4566c0 .608.456 1.064 1.064 1.064s1.064-.456 1.064-1.064-.456-1.064-1.064-1.064-1.064.456-1.064 1.064z" opacity=".6"/><path d="m196.212 64.4566c0 .608.456 1.064 1.064 1.064s1.064-.456 1.064-1.064-.456-1.064-1.064-1.064-1.064.456-1.064 1.064z" opacity=".8"/><path d="m201.76 64.4564c0 .608.455 1.064 1.063 1.064h5.548c-.076-.076-.152-.152-.228-.304-.228-.304-.532-.608-.76-.912s-.532-.684-.76-.988h-3.8c-.532.076-1.063.532-1.063 1.14z" opacity=".6"/><path d="m201.76 64.4564c0 .608.455 1.064 1.063 1.064h5.548c-.076-.076-.152-.152-.228-.304-.228-.304-.532-.608-.76-.912s-.532-.684-.76-.988h-3.8c-.532.076-1.063.532-1.063 1.14z" opacity=".8"/><path d="m210.574 67.9517c-.228-.304-.532-.532-.76-.836h-14.362c4.864 2.052 10.259 2.432 15.35 1.064-.076-.076-.152-.076-.228-.228zm-24.62-24.5479c0-.608-.456-1.064-1.064-1.064h-3.572v.152c0 .152 0 .228-.076.38v.228.38.228.38.228.228h3.724c.456 0 .988-.532.988-1.14z"/><path d="m185.954 43.4038c0-.608-.456-1.064-1.064-1.064h-3.572v.152c0 .152 0 .228-.076.38v.228.38.228.38.228.228h3.724c.456 0 .988-.532.988-1.14z" opacity=".8"/><path d="m194.844 53.8156c0 .608.456 1.064 1.064 1.064.152 0 .228 0 .38-.076.076 0 .076 0 .152-.076.076 0 .152-.076.152-.152.076-.076.076-.076.152-.152.304-.38.304-.912.076-1.292 0-.076-.076-.076-.152-.152l-.076-.076c-.076-.076-.076-.076-.152-.152-.152-.076-.228-.076-.38-.152h-.152c-.532.152-1.064.608-1.064 1.216z" opacity=".6"/><path d="m194.844 53.8156c0 .608.456 1.064 1.064 1.064.152 0 .228 0 .38-.076.076 0 .076 0 .152-.076.076 0 .152-.076.152-.152.076-.076.076-.076.152-.152.304-.38.304-.912.076-1.292 0-.076-.076-.076-.152-.152l-.076-.076c-.076-.076-.076-.076-.152-.152-.152-.076-.228-.076-.38-.152h-.152c-.532.152-1.064.608-1.064 1.216z" opacity=".8"/><path d="m195.908 54.9569c.152 0 .228 0 .38-.076z" opacity=".7"/><path d="m195.908 54.9569c.152 0 .228 0 .38-.076z" opacity=".6"/><path d="m195.908 54.9569c.152 0 .228 0 .38-.076z" opacity=".8"/><path d="m195.908 54.9569c.152 0 .228 0 .38-.076z" opacity=".7"/><path d="m195.908 54.9569c.152 0 .228 0 .38-.076z" opacity=".6"/><path d="m195.908 54.9569c.152 0 .228 0 .38-.076z" opacity=".6"/><path d="m195.908 54.9569c.152 0 .228 0 .38-.076z" opacity=".8"/><path d="m208.295 29.5716c0-.608-.456-1.064-1.064-1.14h-18.922l-.076.076c-.152.076-.228.228-.38.38l-.152.152c-.152.152-.304.304-.456.456l-.076.076c-.152.152-.228.304-.38.456l-.151.152c-.076.152-.228.228-.304.38l-.076.076h20.897c.608 0 1.14-.456 1.14-1.064z" opacity=".9"/><path d="m212.17 32.0038c-.456.684-.912 1.444-1.368 2.204-.228.38-.38.836-.608 1.216s-.38.836-.532 1.292c2.888 2.8879 5.776 5.8519 8.663 8.7399h.152 9.423.608c-.076-.456-.076-.988-.152-1.444s-.076-.912-.152-1.368c-.304-2.128-.836-4.256-1.596-6.2319-.304-.836-.684-1.596-1.14-2.356-.228-.38-.456-.76-.684-1.14-.304-.532-.684-1.064-1.064-1.596-.228-.228-.38-.532-.608-.76-.379-.532-.835-.988-1.215-1.444-.684-.684-1.368-1.368-2.052-1.976-.532-.38-.988-.836-1.52-1.216-.608.38-1.14.836-1.748 1.292-.456.38-.911.76-1.367 1.216-.684.684-1.368 1.444-1.976 2.204-.38.456-.76.912-1.064 1.368z"/><path d="m191.957 41.1241h-.228c-.608 0-1.064-.456-1.064-1.064s.456-1.064 1.064-1.064h-9.727c-.076.38-.228.76-.304 1.064v.152c0 .152-.076.228-.076.38 0 .076 0 .152-.076.228 0 .076-.076.228-.076.304z" opacity=".6"/><path d="m231.623 21.7441c-2.127 0-4.255.304-6.307.836l.228.152c.076.076.152.152.228.228 1.064 1.216 2.204 2.356 3.192 3.572 1.747 2.204 3.115 4.712 4.179 7.296.912 2.2799 1.596 4.7119 1.9 7.1439.152 1.368.152 2.736.304 4.104v.228h10.41c-.152.152-.228.228-.228.304-4.483 4.4839-8.966 8.9679-13.374 13.3759-.228.228-.38.228-.608 0-1.368-1.368-2.735-2.66-4.103-4.028-3.116-3.192-6.307-6.3079-9.423-9.4999h-.152c-3.115 0-6.307 0-9.422 0h-.608c.076.988.152 1.9.304 2.812.456 3.4959 1.519 6.7639 3.419 9.7279.988 1.52 2.052 2.964 3.344 4.256.38.304.684.684 1.063.988.608.532 1.292 1.064 1.976 1.5959 10.715 7.524 25.533 4.94 33.056-5.8519s4.939-25.5358-5.852-33.0598c-3.875-2.66-8.662-4.104-13.526-4.18z"/></g><path d="m121.287 71.9033h-5.776v-3.268h5.776v-5.7759h3.267v5.7759h5.775v3.268h-5.775v5.7h-3.267z" fill="#fcfcfc"/><path d="m16.8013 101.619 2.6596.304c-.3039 1.824-.9878 3.192-2.2037 4.256-1.2158.988-2.6596 1.52-4.3314 1.52-2.1277 0-3.87542-.684-5.16724-2.128s-1.97572-3.42-1.97572-6.0798c0-1.672.30395-3.192.83588-4.484s1.4438-2.204 2.58364-2.8879c1.13984-.608 2.43164-.988 3.79944-.988 1.7478 0 3.1156.4559 4.1795 1.2919 1.0638.836 1.8237 2.128 2.1277 3.724l-2.5837.38c-.228-1.064-.6839-1.824-1.2918-2.356s-1.3678-.836-2.2797-.836c-1.3678 0-2.4317.456-3.26753 1.444-.83589.988-1.29182 2.508-1.29182 4.56 0 2.1278.37994 3.6478 1.21583 4.6358.83592.988 1.89972 1.444 3.19152 1.444 1.0639 0 1.8998-.304 2.6597-.988.4559-.456.9118-1.444 1.1398-2.812zm15.1219 5.776v-1.976c-.9879 1.596-2.4317 2.356-4.4074 2.356-1.2918 0-2.4316-.38-3.4955-1.064s-1.8997-1.672-2.4317-2.888c-.5319-1.216-.8358-2.66-.8358-4.2558 0-1.596.2279-2.964.7598-4.256.532-1.292 1.2919-2.28 2.3557-2.964 1.0639-.6839 2.2037-.9879 3.4955-.9879.9119 0 1.8238.228 2.5077.6079.6839.38 1.3678.912 1.8237 1.596v-7.8279h2.6597v21.7357h-2.4317zm-8.4348-7.8278c0 2.0518.4559 3.4958 1.2918 4.5598.8359.988 1.8237 1.52 3.0396 1.52 1.1398 0 2.1277-.456 2.9636-1.444.8358-.988 1.2158-2.432 1.2158-4.4078 0-2.128-.38-3.724-1.2158-4.712-.8359-.988-1.8238-1.52-3.0396-1.52-1.2159 0-2.2037.456-2.9636 1.444-.9119.912-1.2918 2.432-1.2918 4.56zm31.0037.228 2.8876.7598c-.608 2.356-1.6718 4.18-3.2676 5.396s-3.4955 1.9-5.7752 1.9c-2.3557 0-4.2554-.456-5.6992-1.444s-2.5836-2.356-3.3435-4.18-1.1399-3.7238-1.1399-5.8518c0-2.28.456-4.256 1.2918-5.9279.8359-1.672 2.1278-2.964 3.7235-3.876 1.5958-.912 3.3436-1.292 5.2433-1.292 2.2037 0 4.0274.532 5.4712 1.672s2.5077 2.66 3.1156 4.7119l-2.8116.684c-.5319-1.5959-1.2158-2.7359-2.2037-3.4959s-2.2037-1.064-3.6475-1.064c-1.6718 0-3.0396.38-4.1794 1.216s-1.8997 1.9-2.3557 3.1919c-.4559 1.368-.6839 2.736-.6839 4.18 0 1.824.304 3.496.8359 4.8638.5319 1.368 1.3678 2.432 2.5076 3.116 1.1399.684 2.3557.988 3.7235.988 1.5958 0 2.9636-.456 4.1035-1.368.9878-.988 1.7477-2.356 2.2037-4.1798zm5.0912-.228c0-2.888.8359-5.092 2.4317-6.46 1.3678-1.14 3.0396-1.7479 4.9393-1.7479 2.2037 0 3.9515.6839 5.3193 2.1279s2.0517 3.42 2.0517 5.852c0 2.0518-.304 3.6478-.9119 4.7878s-1.5198 2.052-2.6596 2.736c-1.1399.608-2.4317.988-3.7995.988-2.2037 0-4.0274-.684-5.3192-2.128-1.3678-1.444-2.0518-3.496-2.0518-6.1558zm2.7357 0c0 2.0518.4559 3.4958 1.2918 4.5598.9119.988 1.9757 1.52 3.3435 1.52 1.2918 0 2.4317-.532 3.3436-1.52.9118-.988 1.2918-2.584 1.2918-4.6358 0-1.976-.456-3.42-1.2918-4.408-.9119-.988-1.9758-1.52-3.2676-1.52-1.3678 0-2.4316.532-3.3435 1.52-.9119.912-1.3678 2.432-1.3678 4.484zm15.1219 7.8278v-15.7318h2.4316v2.204c1.1399-1.748 2.8116-2.5839 5.0153-2.5839.9119 0 1.8238.152 2.5837.532.7599.3039 1.3678.7599 1.8237 1.3679.38.532.6839 1.216.8359 1.976.076.532.152 1.368.152 2.584v9.7278h-2.6597v-9.5758c0-1.064-.0759-1.9-.3039-2.432s-.6079-.988-1.1399-1.292c-.5319-.304-1.1398-.456-1.8997-.456-1.1398 0-2.1277.38-2.9636 1.064-.8359.76-1.2158 2.128-1.2158 4.104v8.5878h-2.6596z" fill="#fcfcfc"/><path d="m151.834 98.8832v-2.584h9.195v8.1318c-1.444 1.14-2.887 1.976-4.407 2.508s-3.04.836-4.636.836c-2.127 0-4.103-.456-5.851-1.368s-3.039-2.204-3.951-3.952-1.368-3.6478-1.368-5.7758.456-4.104 1.292-5.9279c.912-1.824 2.127-3.192 3.799-4.104s3.572-1.368 5.775-1.368c1.596 0 2.964.228 4.256.76s2.279 1.216 2.963 2.128c.76.912 1.292 2.128 1.672 3.572l-2.583.6839c-.304-1.1399-.76-1.9759-1.216-2.5839s-1.14-1.14-2.052-1.52-1.9-.608-2.964-.608c-1.291 0-2.431.228-3.419.608s-1.748.912-2.356 1.596-1.064 1.368-1.368 2.1279c-.532 1.368-.835 2.812-.835 4.408 0 1.976.303 3.5718.987 4.8638s1.672 2.28 2.888 2.888c1.292.608 2.66.912 4.103.912 1.216 0 2.432-.228 3.648-.684s2.052-.988 2.736-1.52v-4.0278zm13.071-10.1079v-3.04h2.659v3.04zm0 18.6197v-15.7318h2.659v15.7318zm12.614-2.356.38 2.356c-.76.152-1.444.228-2.052.228-.988 0-1.748-.152-2.28-.456s-.912-.684-1.139-1.216c-.228-.532-.304-1.52-.304-3.192v-9.0438h-1.976v-2.052h1.976v-3.8759l2.659-1.596v5.4719h2.66v2.052h-2.66v9.1958c0 .76.076 1.216.152 1.444s.228.38.456.532.532.228.912.228c.304 0 .684 0 1.216-.076zm2.052-8.2078c0-3.648.987-6.4599 2.887-8.5119 1.976-2.052 4.408-3.04 7.523-3.04 1.976 0 3.8.456 5.395 1.444 1.596.988 2.812 2.28 3.724 4.028.836 1.7479 1.292 3.6479 1.292 5.8519s-.456 4.1798-1.368 5.9278-2.128 3.04-3.8 3.952c-1.595.912-3.419 1.368-5.319 1.368-2.052 0-3.875-.532-5.471-1.52s-2.812-2.356-3.648-4.028c-.76-1.748-1.215-3.5718-1.215-5.4718zm2.963.076c0 2.584.684 4.7118 2.128 6.2318s3.191 2.28 5.319 2.28c2.204 0 3.952-.76 5.319-2.28 1.368-1.52 2.128-3.7238 2.128-6.4598 0-1.748-.304-3.344-.912-4.636-.608-1.2919-1.444-2.3559-2.659-3.0399-1.216-.684-2.432-1.064-3.876-1.064-2.052 0-3.799.684-5.243 2.128-1.444 1.216-2.204 3.5719-2.204 6.8399zm21.201 16.5678v-21.8118h2.432v2.052c.608-.836 1.216-1.368 1.976-1.824.759-.4559 1.595-.6079 2.659-.6079 1.368 0 2.508.38 3.572 1.0639 1.064.684 1.823 1.672 2.355 2.964s.76 2.66.76 4.18c0 1.5958-.304 3.0398-.836 4.3318s-1.443 2.28-2.507 2.964c-1.14.684-2.28 1.064-3.496 1.064-.912 0-1.672-.152-2.431-.532-.684-.38-1.292-.836-1.748-1.444v7.676h-2.736zm2.432-13.8318c0 2.0518.38 3.4958 1.216 4.4838s1.823 1.444 2.963 1.444c1.216 0 2.204-.532 3.04-1.52s1.292-2.584 1.292-4.6358c0-1.976-.38-3.496-1.216-4.484s-1.824-1.52-2.964-1.52-2.127.532-3.039 1.596c-.836 1.064-1.292 2.584-1.292 4.636zm13.45 3.1158 2.66-.38c.152 1.064.532 1.9 1.215 2.432.684.532 1.596.836 2.812.836s2.128-.228 2.736-.76.912-1.064.912-1.748c0-.608-.228-1.064-.76-1.444-.38-.228-1.292-.532-2.736-.912-1.976-.532-3.344-.9118-4.103-1.2918-.76-.38-1.368-.836-1.748-1.52s-.608-1.368-.608-2.128c0-.684.152-1.368.456-1.976s.76-1.064 1.292-1.52c.38-.304.988-.532 1.671-.7599.684-.228 1.52-.304 2.28-.304 1.216 0 2.356.152 3.268.532.912.3799 1.595.8359 2.051 1.4439s.76 1.444.912 2.432l-2.583.38c-.152-.836-.456-1.444-1.064-1.9-.532-.456-1.368-.684-2.432-.684-1.216 0-2.128.228-2.66.608-.531.38-.759.912-.759 1.444 0 .38.076.684.304.912.228.304.531.532.987.684.304.076 1.064.304 2.356.684 1.9.532 3.192.912 3.951 1.216.76.304 1.368.76 1.748 1.3678.456.608.608 1.368.608 2.28s-.228 1.748-.76 2.508-1.292 1.368-2.279 1.824c-.988.456-2.052.608-3.344.608-2.052 0-3.571-.456-4.711-1.292-.684-.684-1.368-1.9-1.672-3.572zm32.143-2.9638 2.888.7598c-.608 2.356-1.672 4.18-3.267 5.396-1.596 1.216-3.496 1.9-5.776 1.9-2.355 0-4.255-.456-5.699-1.444s-2.584-2.356-3.343-4.18c-.76-1.824-1.14-3.7238-1.14-5.8518 0-2.28.456-4.256 1.292-5.9279.835-1.672 2.127-2.964 3.723-3.876s3.344-1.292 5.243-1.292c2.204 0 4.028.532 5.472 1.672 1.519 1.14 2.507 2.66 3.115 4.7119l-2.811.684c-.532-1.5959-1.216-2.7359-2.204-3.4959s-2.204-1.064-3.648-1.064c-1.671 0-3.039.38-4.179 1.216s-1.9 1.9-2.356 3.1919c-.456 1.292-.684 2.736-.684 4.18 0 1.824.304 3.496.836 4.8638.532 1.368 1.368 2.432 2.508 3.116s2.356.988 3.723.988c1.596 0 2.964-.456 4.104-1.368.988-.988 1.748-2.356 2.203-4.1798zm5.092-.228c0-2.888.836-5.092 2.431-6.46 1.368-1.14 3.04-1.7479 4.94-1.7479 2.203 0 3.951.6839 5.319 2.1279s2.052 3.344 2.052 5.852c0 2.0518-.304 3.6478-.912 4.7878s-1.52 2.052-2.66 2.736c-1.14.608-2.431.988-3.799.988-2.204 0-4.028-.684-5.32-2.128-1.367-1.444-2.051-3.496-2.051-6.1558zm2.735 0c0 2.0518.456 3.4958 1.292 4.5598.912.988 1.976 1.52 3.344 1.52 1.292 0 2.431-.532 3.343-1.52s1.292-2.584 1.292-4.6358c0-1.976-.456-3.42-1.292-4.408-.912-.988-1.975-1.52-3.267-1.52-1.368 0-2.432.532-3.344 1.52-.912.912-1.368 2.432-1.368 4.484zm15.122 7.8278v-15.7318h2.432v2.204c1.14-1.748 2.812-2.5839 5.015-2.5839.912 0 1.824.152 2.584.532.76.3799 1.368.7599 1.824 1.3679.38.532.684 1.216.836 1.976.076.532.151 1.368.151 2.584v9.7278h-2.659v-9.5758c0-1.064-.076-1.9-.304-2.432s-.608-.988-1.14-1.292-1.14-.456-1.9-.456c-1.139 0-2.127.38-2.963 1.064s-1.216 2.128-1.216 4.104v8.5878h-2.66z" fill="#fcfcfc"/></svg>