<svg fill="none" height="185" viewBox="0 0 625 185" width="625" xmlns="http://www.w3.org/2000/svg"><path d="m0 183.502h620" stroke="#fff"/><g fill="#fff"><path d="m14.52 57.1406v-32.04h-12.48v-9.18h35.28v9.18h-12.54v32.04zm73.695 0h-11.64l-9.06-12.9h-4.08v12.9h-10.26v-41.22h19.14c9.12 0 15.66 5.82 15.66 14.16 0 6.3-3.72 11.16-9.54 13.2zm-24.78-31.86v9.6h7.98c3.54 0 6-1.92 6-4.8s-2.46-4.8-6-4.8zm70.619 31.86-2.52-6.3h-16.08l-2.52 6.3h-11.52l16.32-41.22h11.52l16.32 41.22zm-15.54-14.04h9.96l-4.98-12.66zm42.368 14.04v-41.22h10.26l18 24.36v-24.36h10.2v41.22h-10.2l-18-24.36v24.36zm73.246.72c-7.32 0-13.98-2.4-19.02-6.9l5.82-6.9c4.02 3.3 8.52 5.22 13.56 5.22 3.84 0 5.82-1.56 5.82-3.78 0-2.46-1.92-3-7.92-4.44-8.82-1.98-15.36-4.38-15.36-12.66 0-7.92 6.36-13.2 15.72-13.2 6.96 0 12.36 2.04 16.74 5.64l-5.22 7.32c-3.78-2.88-7.92-4.38-11.76-4.38-3.3 0-5.16 1.56-5.16 3.6 0 2.52 1.98 3.36 8.1 4.68 9.24 1.98 15.18 4.62 15.18 12.36 0 8.28-6.3 13.44-16.5 13.44zm32.762-.72v-41.22h19.14c9.12 0 15.66 5.82 15.66 14.16s-6.54 14.16-15.66 14.16h-8.88v12.9zm10.26-22.26h7.98c3.54 0 6-1.92 6-4.8s-2.46-4.8-6-4.8h-7.98zm70.033 22.26-2.52-6.3h-16.08l-2.52 6.3h-11.52l16.32-41.22h11.52l16.32 41.22zm-15.54-14.04h9.96l-4.98-12.66zm77.408 14.04h-11.64l-9.06-12.9h-4.08v12.9h-10.26v-41.22h19.14c9.12 0 15.66 5.82 15.66 14.16 0 6.3-3.72 11.16-9.54 13.2zm-24.78-31.86v9.6h7.98c3.54 0 6-1.92 6-4.8s-2.46-4.8-6-4.8zm73.739-.18h-22.2v6.42h20.16v9.18h-20.16v7.26h22.2v9.18h-32.46v-41.22h32.46zm17.145 32.04v-41.22h10.26l18 24.36v-24.36h10.2v41.22h-10.2l-18-24.36v24.36zm77.086.72c-12.06 0-22.2-9.78-22.2-21.36s10.14-21.3 22.2-21.3c6.42 0 12.24 2.76 16.32 7.08l-7.5 6.66c-2.1-2.7-5.34-4.44-8.82-4.44-6.3 0-11.64 5.52-11.64 12 0 6.54 5.34 12.06 11.64 12.06 3.54 0 6.72-1.74 8.88-4.44l7.44 6.6c-4.08 4.38-9.9 7.14-16.32 7.14zm44.569-.72v-14.22l-15.96-27h11.82l9.3 17.4 9.72-17.4h11.4l-15.96 27v14.22zm-556.97 78.0004h-11.64l-9.06-12.9h-4.08v12.9h-10.26v-41.2204h19.14c9.12 0 15.66 5.82 15.66 14.1604 0 6.3-3.72 11.16-9.54 13.2zm-24.78-31.86v9.6h7.98c3.54 0 6-1.92 6-4.8s-2.46-4.8-6-4.8zm73.7391-.18h-22.2v6.42h20.16v9.18h-20.16v7.26h22.2v9.18h-32.46v-41.2204h32.46zm17.1459 32.04v-41.2204h19.14c9.12 0 15.66 5.82 15.66 14.1604 0 8.34-6.54 14.16-15.66 14.16h-8.88v12.9zm10.26-22.26h7.98c3.54 0 6-1.92 6-4.8s-2.46-4.8-6-4.8h-7.98zm60.673 22.98c-12.06 0-22.2-9.78-22.2-21.36s10.14-21.3004 22.2-21.3004c12 0 22.14 9.7204 22.14 21.3004s-10.14 21.36-22.14 21.36zm0-9.3c6.3 0 11.58-5.52 11.58-12.06 0-6.48-5.28-12-11.58-12s-11.64 5.52-11.64 12c0 6.54 5.34 12.06 11.64 12.06zm73.63 8.58h-11.64l-9.06-12.9h-4.08v12.9h-10.26v-41.2204h19.14c9.12 0 15.66 5.82 15.66 14.1604 0 6.3-3.72 11.16-9.54 13.2zm-24.78-31.86v9.6h7.98c3.54 0 6-1.92 6-4.8s-2.46-4.8-6-4.8zm50.999 31.86v-32.04h-12.48v-9.1804h35.28v9.1804h-12.54v32.04zm61.724 0v-8.34l15.24-11.4c4.62-3.48 5.94-5.76 5.94-8.28 0-2.82-2.46-4.62-5.46-4.62-3.84 0-6.72 1.86-9.84 5.16l-6.42-6.36c4.38-5.2804 9.72-8.1004 16.5-8.1004 9.24 0 15.72 5.64 15.72 13.5004 0 5.46-2.28 9.72-9.48 14.64l-6.48 4.62h16.38v9.18zm65.579.72c-11.1 0-18.96-8.82-18.96-21.36 0-12.48 7.86-21.3004 18.96-21.3004 11.16 0 19.02 8.8204 19.02 21.3004 0 12.54-7.86 21.36-19.02 21.36zm0-9.3c4.98 0 8.46-5.04 8.46-12.06s-3.48-12-8.46-12c-4.92 0-8.4 4.98-8.4 12s3.48 12.06 8.4 12.06zm33.222 8.58v-8.34l15.24-11.4c4.62-3.48 5.94-5.76 5.94-8.28 0-2.82-2.46-4.62-5.46-4.62-3.84 0-6.72 1.86-9.84 5.16l-6.42-6.36c4.38-5.2804 9.72-8.1004 16.5-8.1004 9.24 0 15.72 5.64 15.72 13.5004 0 5.46-2.28 9.72-9.48 14.64l-6.48 4.62h16.38v9.18zm62.638.78c-7.62 0-13.44-2.82-17.1-6.9l5.88-6.78c3 3 6.84 4.5 10.68 4.5 4.14 0 6.42-1.74 6.42-4.14 0-2.58-1.92-3.9-7.2-3.9l-4.86.06v-8.64h4.86c4.14.06 6.36-1.32 6.36-3.72 0-2.52-2.46-4.02-6.18-4.02-3.66 0-6.66 1.74-9.36 4.38l-5.76-6.24c3.54-4.1404 8.58-7.3204 16.2-7.3204 9.72 0 15.6 4.8 15.6 11.2804 0 4.62-3.06 8.1-7.68 9.42 4.62 1.08 8.58 4.32 8.58 9.6 0 7.26-6.48 12.42-16.44 12.42z"/><path d="m14.52 57.1406h-1v1h1zm0-32.04h1v-1h-1zm-12.48 0h-1v1h1zm0-9.18v-1h-1v1zm35.28 0h1v-1h-1zm0 9.18v1h1v-1zm-12.54 0v-1h-1v1zm0 32.04v1h1v-1zm-9.26 0v-32.04h-2v32.04zm-1-33.04h-12.48v2h12.48zm-11.48 1v-9.18h-2v9.18zm-1-8.18h35.28v-2h-35.28zm34.28-1v9.18h2v-9.18zm1 8.18h-12.54v2h12.54zm-13.54 1v32.04h2v-32.04zm1 31.04h-10.26v2h10.26zm63.435 1v1h1.9295l-1.1124-1.5765zm-11.64 0-.8183.5748.2986.4252h.5197zm-9.06-12.9.8183-.5747-.2986-.4253h-.5197zm-4.08 0v-1h-1v1zm0 12.9v1h1v-1zm-10.26 0h-1v1h1zm0-41.22v-1h-1v1zm25.26 27.36-.3308-.9437-1.2499.4381.7636 1.0822zm-15-18v-1h-1v1zm0 9.6h-1v1h1zm24.78 21.26h-11.64v2h11.64zm-10.8217.4253-9.06-12.9-1.6366 1.1495 9.06 12.9zm-9.8783-13.3253h-4.08v2h4.08zm-5.08 1v12.9h2v-12.9zm1 11.9h-10.26v2h10.26zm-9.26 1v-41.22h-2v41.22zm-1-40.22h19.14v-2h-19.14zm19.14 0c4.3481 0 8.0142 1.3857 10.581 3.6958 2.5592 2.3033 4.079 5.5708 4.079 9.4642h2c0-4.4465-1.7502-8.259-4.741-10.9508-2.9832-2.6848-7.1471-4.2092-11.919-4.2092zm14.66 13.16c0 5.8486-3.4259 10.3478-8.8708 12.2563l.6616 1.8874c6.1951-2.1715 10.2092-7.3923 10.2092-14.1437zm-9.3571 13.7766 9.78 13.86 1.6342-1.1531-9.78-13.86zm-15.1829-18.5766v9.6h2v-9.6zm1 10.6h7.98v-2h-7.98zm7.98 0c1.9424 0 3.6773-.5264 4.9495-1.5369 1.2906-1.0252 2.0505-2.5109 2.0505-4.2631h-2c0 1.1278-.4701 2.0422-1.2945 2.697-.8428.6695-2.1079 1.103-3.7055 1.103zm7-5.8c0-1.7522-.7599-3.2378-2.0505-4.263-1.2722-1.0105-3.0071-1.537-4.9495-1.537v2c1.5976 0 2.8627.4336 3.7055 1.1031.8244.6548 1.2945 1.5691 1.2945 2.6969zm-7-5.8h-7.98v2h7.98zm62.639 32.86-.928.3714.251.6286h.677zm-2.52-6.3.929-.3714-.252-.6286h-.677zm-16.08 0v-1h-.677l-.251.6286zm-2.52 6.3v1h.677l.252-.6286zm-11.52 0-.93-.3681-.5414 1.3681h1.4714zm16.32-41.22v-1h-.68l-.25.6319zm11.52 0 .93-.3681-.25-.6319h-.68zm16.32 41.22v1h1.472l-.542-1.3681zm-27.06-14.04-.931-.366-.537 1.366h1.468zm9.96 0v1h1.468l-.537-1.366zm-4.98-12.66.931-.366-.931-2.3658-.931 2.3658zm11.489 26.3286-2.52-6.3-1.857.7428 2.52 6.3zm-3.449-6.9286h-16.08v2h16.08zm-17.008.6286-2.52 6.3 1.857.7428 2.52-6.3zm-1.592 5.6714h-11.52v2h11.52zm-10.59 1.3681 16.32-41.22-1.86-.7362-16.32 41.22zm15.39-40.5881h11.52v-2h-11.52zm10.59-.6319 16.32 41.22 1.86-.7362-16.32-41.22zm17.25 39.8519h-11.52v2h11.52zm-27.06-12.04h9.96v-2h-9.96zm10.891-1.366-4.98-12.66-1.862.7321 4.98 12.66zm-6.842-12.66-4.98 12.66 1.862.7321 4.98-12.66zm38.319 27.066h-1v1h1zm0-41.22v-1h-1v1zm10.26 0 .804-.5943-.3-.4057h-.504zm18 24.36-.804.5943 1.804 2.4418v-3.0361zm0-24.36v-1h-1v1zm10.2 0h1v-1h-1zm0 41.22v1h1v-1zm-10.2 0-.804.5943.3.4057h.504zm-18-24.36.804-.5943-1.804-2.4417v3.036zm0 24.36v1h1v-1zm-9.26 0v-41.22h-2v41.22zm-1-40.22h10.26v-2h-10.26zm9.456-.4057 18 24.36 1.608-1.1886-18-24.36zm19.804 23.7657v-24.36h-2v24.36zm-1-23.36h10.2v-2h-10.2zm9.2-1v41.22h2v-41.22zm1 40.22h-10.2v2h10.2zm-9.396.4057-18-24.36-1.608 1.1886 18 24.36zm-19.804-23.7657v24.36h2v-24.36zm1 23.36h-10.26v2h10.26zm43.965-5.18-.764-.6447-.627.7431.725.6476zm5.821-6.9.634-.7729-.763-.6261-.636.7543zm11.459-3 .234-.9724-.007-.0017-.007-.0016zm17.101-20.22.814.5806.542-.7602-.722-.5929zm-5.22 7.32-.607.7955.821.6255.6-.8404zm-8.821 3.9-.21.9775.001.0003zm-1.319 24.8c-7.1 0-13.515-2.3253-18.354-6.6459l-1.333 1.4919c5.241 4.6794 12.146 7.154 19.687 7.154zm-18.256-5.2552 5.82-6.9-1.529-1.2895-5.82 6.9zm4.421-6.7718c4.161 3.4159 8.879 5.447 14.195 5.447v-2c-4.765 0-9.047-1.8089-12.926-4.9929zm14.195 5.447c2.036 0 3.715-.4109 4.914-1.2323 1.239-.8483 1.905-2.0978 1.905-3.5477h-2c0 .7701-.323 1.4106-1.034 1.8974-.751.5136-1.982.8826-3.785.8826zm6.819-4.78c0-.7487-.147-1.45-.556-2.0759-.403-.6166-.995-1.061-1.702-1.4188-1.36-.6884-3.481-1.2103-6.428-1.9177l-.467 1.9448c3.053.7327 4.892 1.2007 5.992 1.7574.523.2646.786.5065.931.7281.138.2122.23.5008.23.9821zm-8.7-5.4157c-4.419-.9918-8.081-2.0554-10.64-3.8158-2.469-1.6977-3.94-4.061-3.94-7.8685h-2c0 4.4725 1.8 7.4493 4.806 9.5165 2.916 2.0047 6.934 3.1311 11.335 4.1192zm-14.58-11.6843c0-3.6707 1.464-6.6874 3.992-8.8031 2.544-2.1286 6.23-3.3969 10.728-3.3969v-2c-4.861 0-9.035 1.3718-12.011 3.8632-2.992 2.5043-4.709 6.0875-4.709 10.3368zm14.72-12.2c6.743 0 11.915 1.9686 16.106 5.4126l1.269-1.5451c-4.569-3.756-10.197-5.8675-17.375-5.8675zm15.926 4.0594-5.22 7.32 1.629 1.1612 5.22-7.32zm-3.799 7.1052c-3.921-2.9872-8.269-4.5846-12.366-4.5846v2c3.582 0 7.514 1.4027 11.153 4.1755zm-12.366-4.5846c-1.796 0-3.314.4234-4.41 1.2293-1.119.8223-1.75 2.0144-1.75 3.3707h2c0-.6836.298-1.2916.934-1.7592.659-.4841 1.721-.8408 3.226-.8408zm-6.16 4.6c0 .7654.152 1.4854.555 2.1356.399.6438.99 1.1322 1.719 1.5315 1.41.772 3.583 1.3366 6.615 1.9904l.421-1.955c-3.088-.6661-4.965-1.1816-6.075-1.7896-.531-.2906-.817-.5673-.981-.831-.159-.2573-.254-.5873-.254-1.0819zm8.89 5.6578c4.612.9884 8.227 2.1115 10.685 3.8575 2.373 1.6852 3.705 3.9747 3.705 7.5247h2c0-4.19-1.639-7.0905-4.546-9.1553-2.822-2.004-6.797-3.1908-11.425-4.1825zm14.39 11.3822c0 3.8639-1.459 6.9299-4.058 9.0502-2.622 2.1392-6.5 3.3898-11.442 3.3898v2c5.257 0 9.629-1.3294 12.707-3.8401 3.101-2.5298 4.793-6.1837 4.793-10.5999zm17.262 12.72h-1v1h1zm0-41.22v-1h-1v1zm10.26 28.32v-1h-1v1zm0 12.9v1h1v-1zm0-22.26h-1v1h1zm0-9.6v-1h-1v1zm-9.26 31.86v-41.22h-2v41.22zm-1-40.22h19.14v-2h-19.14zm19.14 0c4.348 0 8.014 1.3857 10.581 3.6958 2.559 2.3033 4.079 5.5708 4.079 9.4642h2c0-4.4465-1.75-8.259-4.741-10.9508-2.983-2.6848-7.147-4.2092-11.919-4.2092zm14.66 13.16c0 3.8935-1.52 7.161-4.079 9.4642-2.567 2.3102-6.233 3.6958-10.581 3.6958v2c4.772 0 8.936-1.5243 11.919-4.2092 2.991-2.6917 4.741-6.5042 4.741-10.9508zm-14.66 13.16h-8.88v2h8.88zm-9.88 1v12.9h2v-12.9zm1 11.9h-10.26v2h10.26zm0-20.26h7.98v-2h-7.98zm7.98 0c1.942 0 3.677-.5264 4.949-1.5369 1.291-1.0252 2.051-2.5109 2.051-4.2631h-2c0 1.1278-.47 2.0422-1.295 2.697-.842.6695-2.108 1.103-3.705 1.103zm7-5.8c0-1.7522-.76-3.2378-2.051-4.263-1.272-1.0105-3.007-1.537-4.949-1.537v2c1.597 0 2.863.4336 3.705 1.1031.825.6548 1.295 1.5691 1.295 2.6969zm-7-5.8h-7.98v2h7.98zm-8.98 1v9.6h2v-9.6zm71.033 31.86-.929.3714.252.6286h.677zm-2.52-6.3.928-.3714-.251-.6286h-.677zm-16.08 0v-1h-.677l-.252.6286zm-2.52 6.3v1h.677l.251-.6286zm-11.52 0-.93-.3681-.541 1.3681h1.471zm16.32-41.22v-1h-.68l-.25.6319zm11.52 0 .93-.3681-.25-.6319h-.68zm16.32 41.22v1h1.471l-.541-1.3681zm-27.06-14.04-.931-.366-.537 1.366h1.468zm9.96 0v1h1.468l-.537-1.366zm-4.98-12.66.931-.366-.931-2.3658-.931 2.3658zm11.488 26.3286-2.52-6.3-1.857.7428 2.52 6.3zm-3.448-6.9286h-16.08v2h16.08zm-17.009.6286-2.52 6.3 1.857.7428 2.52-6.3zm-1.591 5.6714h-11.52v2h11.52zm-10.59 1.3681 16.32-41.22-1.86-.7362-16.32 41.22zm15.39-40.5881h11.52v-2h-11.52zm10.59-.6319 16.32 41.22 1.86-.7362-16.32-41.22zm17.25 39.8519h-11.52v2h11.52zm-27.06-12.04h9.96v-2h-9.96zm10.891-1.366-4.98-12.66-1.862.7321 4.98 12.66zm-6.842-12.66-4.98 12.66 1.862.7321 4.98-12.66zm73.359 27.066v1h1.929l-1.112-1.5765zm-11.64 0-.818.5748.298.4252h.52zm-9.06-12.9.818-.5747-.298-.4253h-.52zm-4.08 0v-1h-1v1zm0 12.9v1h1v-1zm-10.26 0h-1v1h1zm0-41.22v-1h-1v1zm25.26 27.36-.331-.9437-1.25.4381.764 1.0822zm-15-18v-1h-1v1zm0 9.6h-1v1h1zm24.78 21.26h-11.64v2h11.64zm-10.822.4253-9.06-12.9-1.636 1.1495 9.06 12.9zm-9.878-13.3253h-4.08v2h4.08zm-5.08 1v12.9h2v-12.9zm1 11.9h-10.26v2h10.26zm-9.26 1v-41.22h-2v41.22zm-1-40.22h19.14v-2h-19.14zm19.14 0c4.348 0 8.014 1.3857 10.581 3.6958 2.559 2.3033 4.079 5.5708 4.079 9.4642h2c0-4.4465-1.75-8.259-4.741-10.9508-2.983-2.6848-7.147-4.2092-11.919-4.2092zm14.66 13.16c0 5.8486-3.426 10.3478-8.871 12.2563l.662 1.8874c6.195-2.1715 10.209-7.3923 10.209-14.1437zm-9.357 13.7766 9.78 13.86 1.634-1.1531-9.78-13.86zm-15.183-18.5766v9.6h2v-9.6zm1 10.6h7.98v-2h-7.98zm7.98 0c1.942 0 3.677-.5264 4.949-1.5369 1.291-1.0252 2.051-2.5109 2.051-4.2631h-2c0 1.1278-.47 2.0422-1.295 2.697-.842.6695-2.107 1.103-3.705 1.103zm7-5.8c0-1.7522-.76-3.2378-2.051-4.263-1.272-1.0105-3.007-1.537-4.949-1.537v2c1.598 0 2.863.4336 3.705 1.1031.825.6548 1.295 1.5691 1.295 2.6969zm-7-5.8h-7.98v2h7.98zm65.759.82v1h1v-1zm-22.2 0v-1h-1v1zm0 6.42h-1v1h1zm20.16 0h1v-1h-1zm0 9.18v1h1v-1zm-20.16 0v-1h-1v1zm0 7.26h-1v1h1zm22.2 0h1v-1h-1zm0 9.18v1h1v-1zm-32.46 0h-1v1h1zm0-41.22v-1h-1v1zm32.46 0h1v-1h-1zm0 8.18h-22.2v2h22.2zm-23.2 1v6.42h2v-6.42zm1 7.42h20.16v-2h-20.16zm19.16-1v9.18h2v-9.18zm1 8.18h-20.16v2h20.16zm-21.16 1v7.26h2v-7.26zm1 8.26h22.2v-2h-22.2zm21.2-1v9.18h2v-9.18zm1 8.18h-32.46v2h32.46zm-31.46 1v-41.22h-2v41.22zm-1-40.22h32.46v-2h-32.46zm31.46-1v9.18h2v-9.18zm18.145 41.22h-1v1h1zm0-41.22v-1h-1v1zm10.26 0 .805-.5943-.3-.4057h-.505zm18 24.36-.804.5943 1.804 2.4418v-3.0361zm0-24.36v-1h-1v1zm10.2 0h1v-1h-1zm0 41.22v1h1v-1zm-10.2 0-.804.5943.3.4057h.504zm-18-24.36.805-.5943-1.805-2.4417v3.036zm0 24.36v1h1v-1zm-9.26 0v-41.22h-2v41.22zm-1-40.22h10.26v-2h-10.26zm9.456-.4057 18 24.36 1.609-1.1886-18-24.36zm19.804 23.7657v-24.36h-2v24.36zm-1-23.36h10.2v-2h-10.2zm9.2-1v41.22h2v-41.22zm1 40.22h-10.2v2h10.2zm-9.395.4057-18-24.36-1.609 1.1886 18 24.36zm-19.805-23.7657v24.36h2v-24.36zm1 23.36h-10.26v2h10.26zm83.146-33.86.664.7478.771-.6847-.708-.7497zm-7.5 6.66-.789.614.655.8425.798-.7087zm.06 15.18.664-.748-.788-.6983-.657.8216zm7.44 6.6.732.6816.698-.7497-.766-.68zm-16.32 6.14c-11.544 0-21.2-9.3676-21.2-20.36h-2c0 12.1676 10.624 22.36 23.2 22.36zm-21.2-20.36c0-10.9888 9.653-20.3 21.2-20.3v-2c-12.573 0-23.2 10.1289-23.2 22.3zm21.2-20.3c6.129 0 11.69 2.6346 15.593 6.7666l1.454-1.3732c-4.258-4.508-10.336-7.3934-17.047-7.3934zm15.656 5.3323-7.5 6.66 1.328 1.4955 7.5-6.66zm-6.047 6.7938c-2.272-2.9213-5.793-4.8261-9.609-4.8261v2c3.144 0 6.103 1.5753 8.031 4.054zm-9.609-4.8261c-6.882 0-12.64 5.9975-12.64 13h2c0-5.9574 4.922-11 10.64-11zm-12.64 13c0 7.0593 5.755 13.06 12.64 13.06v-2c-5.715 0-10.64-5.0392-10.64-11.06zm12.64 13.06c3.88 0 7.335-1.9083 9.661-4.8153l-1.562-1.2494c-1.994 2.4931-4.9 4.0647-8.099 4.0647zm8.216-4.6919 7.44 6.6 1.328-1.4962-7.44-6.5999zm7.372 5.1703c-3.901 4.1878-9.46 6.8216-15.588 6.8216v2c6.712 0 12.793-2.8861 17.052-7.4584zm28.981 7.1016h-1v1h1zm0-14.22h1v-.2734l-.139-.2354zm-15.96-27v-1h-1.753l.892 1.5089zm11.82 0 .882-.4714-.282-.5286h-.6zm9.3 17.4-.882.4714.863 1.6138.892-1.5975zm9.72-17.4v-1h-.587l-.286.5123zm11.4 0 .861.5089.892-1.5089h-1.753zm-15.96 27-.861-.5088-.139.2354v.2734zm0 14.22v1h1v-1zm-9.32 0v-14.22h-2v14.22zm-.139-14.7288-15.96-27-1.722 1.0177 15.96 27zm-16.821-25.4912h11.82v-2h-11.82zm10.938-.5286 9.3 17.4 1.764-.9428-9.3-17.4zm11.055 17.4163 9.72-17.4-1.746-.9754-9.72 17.4zm8.847-16.8877h11.4v-2h-11.4zm10.539-1.5088-15.96 27 1.722 1.0177 15.96-27zm-16.099 27.5088v14.22h2v-14.22zm1 13.22h-10.32v2h10.32zm-567.29 79.0004v1h1.9295l-1.1124-1.577zm-11.64 0-.8183.574.2986.426h.5197zm-9.06-12.9.8183-.575-.2986-.425h-.5197zm-4.08 0v-1h-1v1zm0 12.9v1h1v-1zm-10.26 0h-1v1h1zm0-41.2204v-1h-1v1zm25.26 27.3604-.3308-.944-1.2499.438.7636 1.082zm-15-18v-1h-1v1zm0 9.6h-1v1h1zm24.78 21.26h-11.64v2h11.64zm-10.8217.425-9.06-12.9-1.6366 1.149 9.06 12.9zm-9.8783-13.325h-4.08v2h4.08zm-5.08 1v12.9h2v-12.9zm1 11.9h-10.26v2h10.26zm-9.26 1v-41.2204h-2v41.2204zm-1-40.2204h19.14v-2h-19.14zm19.14 0c4.3481 0 8.0142 1.3857 10.581 3.6958 2.5592 2.3036 4.079 5.5706 4.079 9.4646h2c0-4.447-1.7502-8.2594-4.741-10.9512-2.9832-2.6848-7.1471-4.2092-11.919-4.2092zm14.66 13.1604c0 5.848-3.4259 10.347-8.8708 12.256l.6616 1.887c6.1951-2.171 10.2092-7.392 10.2092-14.143zm-9.3571 13.776 9.78 13.86 1.6342-1.153-9.78-13.86zm-15.1829-18.576v9.6h2v-9.6zm1 10.6h7.98v-2h-7.98zm7.98 0c1.9424 0 3.6773-.527 4.9495-1.537 1.2906-1.026 2.0505-2.511 2.0505-4.263h-2c0 1.127-.4701 2.042-1.2945 2.697-.8428.669-2.1079 1.103-3.7055 1.103zm7-5.8c0-1.753-.7599-3.238-2.0505-4.263-1.2722-1.011-3.0071-1.537-4.9495-1.537v2c1.5976 0 2.8627.433 3.7055 1.103.8244.654 1.2945 1.569 1.2945 2.697zm-7-5.8h-7.98v2h7.98zm65.7591.82v1h1v-1zm-22.2 0v-1h-1v1zm0 6.42h-1v1h1zm20.16 0h1v-1h-1zm0 9.18v1h1v-1zm-20.16 0v-1h-1v1zm0 7.26h-1v1h1zm22.2 0h1v-1h-1zm0 9.18v1h1v-1zm-32.46 0h-1v1h1zm0-41.2204v-1h-1v1zm32.46 0h1v-1h-1zm0 8.1804h-22.2v2h22.2zm-23.2 1v6.42h2v-6.42zm1 7.42h20.16v-2h-20.16zm19.16-1v9.18h2v-9.18zm1 8.18h-20.16v2h20.16zm-21.16 1v7.26h2v-7.26zm1 8.26h22.2v-2h-22.2zm21.2-1v9.18h2v-9.18zm1 8.18h-32.46v2h32.46zm-31.46 1v-41.2204h-2v41.2204zm-1-40.2204h32.46v-2h-32.46zm31.46-1v9.1804h2v-9.1804zm18.1459 41.2204h-1v1h1zm0-41.2204v-1h-1v1zm10.26 28.3204v-1h-1v1zm0 12.9v1h1v-1zm0-22.26h-1v1h1zm0-9.6v-1h-1v1zm-9.26 31.86v-41.2204h-2v41.2204zm-1-40.2204h19.14v-2h-19.14zm19.14 0c4.348 0 8.014 1.3857 10.581 3.6958 2.559 2.3036 4.079 5.5706 4.079 9.4646h2c0-4.447-1.751-8.2594-4.742-10.9512-2.983-2.6848-7.147-4.2092-11.918-4.2092zm14.66 13.1604c0 3.893-1.52 7.161-4.079 9.464-2.567 2.31-6.233 3.696-10.581 3.696v2c4.771 0 8.935-1.525 11.918-4.21 2.991-2.691 4.742-6.504 4.742-10.95zm-14.66 13.16h-8.88v2h8.88zm-9.88 1v12.9h2v-12.9zm1 11.9h-10.26v2h10.26zm0-20.26h7.98v-2h-7.98zm7.98 0c1.942 0 3.677-.527 4.949-1.537 1.291-1.026 2.051-2.511 2.051-4.263h-2c0 1.127-.471 2.042-1.295 2.697-.843.669-2.108 1.103-3.705 1.103zm7-5.8c0-1.753-.76-3.238-2.051-4.263-1.272-1.011-3.007-1.537-4.949-1.537v2c1.597 0 2.862.433 3.705 1.103.824.654 1.295 1.569 1.295 2.697zm-7-5.8h-7.98v2h7.98zm-8.98 1v9.6h2v-9.6zm61.673 31.58c-11.544 0-21.2-9.368-21.2-20.36h-2c0 12.167 10.623 22.36 23.2 22.36zm-21.2-20.36c0-10.989 9.652-20.3004 21.2-20.3004v-2c-12.573 0-23.2 10.1284-23.2 22.3004zm21.2-20.3004c11.485 0 21.14 9.3094 21.14 20.3004h2c0-12.17-10.626-22.3004-23.14-22.3004zm21.14 20.3004c0 10.994-9.658 20.36-21.14 20.36v2c12.518 0 23.14-10.195 23.14-22.36zm-21.14 13.06c6.891 0 12.58-6.008 12.58-13.06h-2c0 6.027-4.872 11.06-10.58 11.06zm12.58-13.06c0-6.996-5.692-13-12.58-13v2c5.712 0 10.58 5.035 10.58 11zm-12.58-13c-6.882 0-12.64 5.997-12.64 13h2c0-5.958 4.921-11 10.64-11zm-12.64 13c0 7.059 5.755 13.06 12.64 13.06v-2c-5.716 0-10.64-5.04-10.64-11.06zm86.27 20.64v1h1.929l-1.112-1.577zm-11.64 0-.818.574.298.426h.52zm-9.06-12.9.818-.575-.298-.425h-.52zm-4.08 0v-1h-1v1zm0 12.9v1h1v-1zm-10.26 0h-1v1h1zm0-41.2204v-1h-1v1zm25.26 27.3604-.331-.944-1.25.438.764 1.082zm-15-18v-1h-1v1zm0 9.6h-1v1h1zm24.78 21.26h-11.64v2h11.64zm-10.822.425-9.06-12.9-1.636 1.149 9.06 12.9zm-9.878-13.325h-4.08v2h4.08zm-5.08 1v12.9h2v-12.9zm1 11.9h-10.26v2h10.26zm-9.26 1v-41.2204h-2v41.2204zm-1-40.2204h19.14v-2h-19.14zm19.14 0c4.348 0 8.014 1.3857 10.581 3.6958 2.559 2.3036 4.079 5.5706 4.079 9.4646h2c0-4.447-1.75-8.2594-4.741-10.9512-2.983-2.6848-7.147-4.2092-11.919-4.2092zm14.66 13.1604c0 5.848-3.426 10.347-8.871 12.256l.662 1.887c6.195-2.171 10.209-7.392 10.209-14.143zm-9.357 13.776 9.78 13.86 1.634-1.153-9.78-13.86zm-15.183-18.576v9.6h2v-9.6zm1 10.6h7.98v-2h-7.98zm7.98 0c1.942 0 3.677-.527 4.949-1.537 1.291-1.026 2.051-2.511 2.051-4.263h-2c0 1.127-.47 2.042-1.295 2.697-.842.669-2.107 1.103-3.705 1.103zm7-5.8c0-1.753-.76-3.238-2.051-4.263-1.272-1.011-3.007-1.537-4.949-1.537v2c1.598 0 2.863.433 3.705 1.103.825.654 1.295 1.569 1.295 2.697zm-7-5.8h-7.98v2h7.98zm43.019 32.86h-1v1h1zm0-32.04h1v-1h-1zm-12.48 0h-1v1h1zm0-9.1804v-1h-1v1zm35.28 0h1v-1h-1zm0 9.1804v1h1v-1zm-12.54 0v-1h-1v1zm0 32.04v1h1v-1zm-9.26 0v-32.04h-2v32.04zm-1-33.04h-12.48v2h12.48zm-11.48 1v-9.1804h-2v9.1804zm-1-8.1804h35.28v-2h-35.28zm34.28-1v9.1804h2v-9.1804zm1 8.1804h-12.54v2h12.54zm-13.54 1v32.04h2v-32.04zm1 31.04h-10.26v2h10.26zm51.464 1h-1v1h1zm0-8.34-.599-.801-.401.3v.501zm15.24-11.4.599.8.003-.002zm-9.36-7.74-.704.71.728.72.703-.743zm-6.42-6.36-.77-.639-.584.705.65.644zm22.74 20.04-.564-.826-.008.006-.008.005zm-6.48 4.62-.58-.815-2.545 1.815h3.125zm16.38 0h1v-1h-1zm0 9.18v1h1v-1zm-31.1 0v-8.34h-2v8.34zm-.401-7.54 15.24-11.4-1.198-1.601-15.24 11.4zm15.243-11.402c4.682-3.526 6.338-6.066 6.338-9.078h-2c0 2.027-.983 4.047-5.542 7.481zm6.338-9.078c0-3.559-3.114-5.62-6.46-5.62v2c2.654 0 4.46 1.538 4.46 3.62zm-6.46-5.62c-4.24 0-7.366 2.087-10.567 5.473l1.454 1.374c3.039-3.215 5.673-4.847 9.113-4.847zm-9.136 5.449-6.42-6.36-1.408 1.421 6.42 6.36zm-6.354-5.011c4.213-5.0794 9.283-7.7384 15.73-7.7384v-2c-7.113 0-12.723 2.981-17.27 8.4614zm15.73-7.7384c8.832 0 14.72 5.3264 14.72 12.5004h2c0-8.5467-7.072-14.5004-16.72-14.5004zm14.72 12.5004c0 2.574-.533 4.815-1.889 6.994-1.369 2.201-3.618 4.403-7.155 6.82l1.128 1.651c3.663-2.502 6.155-4.89 7.725-7.415 1.584-2.545 2.191-5.165 2.191-8.05zm-9.06 13.825-6.48 4.62 1.161 1.629 6.48-4.62zm-5.9 6.435h16.38v-2h-16.38zm15.38-1v9.18h2v-9.18zm1 8.18h-32.1v2h32.1zm33.479.72c-5.27 0-9.736-2.087-12.895-5.642-3.167-3.564-5.065-8.656-5.065-14.718h-2c0 6.477 2.031 12.065 5.57 16.046 3.545 3.99 8.559 6.314 14.39 6.314zm-17.96-20.36c0-12.04 7.518-20.3004 17.96-20.3004v-2c-11.759 0-19.96 9.3804-19.96 22.3004zm17.96-20.3004c5.301 0 9.782 2.0878 12.949 5.6359 3.173 3.5555 5.071 8.6325 5.071 14.6645h2c0-6.449-2.033-12.022-5.579-15.9962-3.554-3.982-8.582-6.3042-14.441-6.3042zm18.02 20.3004c0 6.062-1.899 11.154-5.072 14.717-3.166 3.555-7.648 5.643-12.948 5.643v2c5.859 0 10.888-2.323 14.441-6.313 3.547-3.982 5.579-9.57 5.579-16.047zm-18.02 13.06c2.868 0 5.269-1.465 6.917-3.825 1.636-2.343 2.543-5.572 2.543-9.235h-2c0 3.356-.834 6.158-2.183 8.09-1.337 1.914-3.165 2.97-5.277 2.97zm9.46-13.06c0-3.664-.907-6.879-2.545-9.208-1.65-2.347-4.052-3.792-6.915-3.792v2c2.116 0 3.945 1.045 5.279 2.942 1.347 1.916 2.181 4.701 2.181 8.058zm-9.46-13c-2.838 0-5.224 1.449-6.865 3.794-1.629 2.328-2.535 5.542-2.535 9.206h2c0-3.357.833-6.143 2.174-8.06 1.329-1.899 3.143-2.94 5.226-2.94zm-9.4 13c0 3.663.906 6.891 2.533 9.233 1.639 2.358 4.025 3.827 6.867 3.827v-2c-2.078 0-3.892-1.052-5.224-2.968-1.343-1.933-2.176-4.736-2.176-8.092zm42.622 20.64h-1v1h1zm0-8.34-.599-.801-.401.3v.501zm15.24-11.4.599.8.003-.002zm-9.36-7.74-.704.71.727.72.704-.743zm-6.42-6.36-.77-.639-.584.705.65.644zm22.74 20.04-.564-.826-.009.006-.008.005zm-6.48 4.62-.581-.815-2.544 1.815h3.125zm16.38 0h1v-1h-1zm0 9.18v1h1v-1zm-31.1 0v-8.34h-2v8.34zm-.401-7.54 15.24-11.4-1.198-1.601-15.24 11.4zm15.243-11.402c4.681-3.526 6.338-6.066 6.338-9.078h-2c0 2.027-.984 4.047-5.542 7.481zm6.338-9.078c0-3.559-3.114-5.62-6.46-5.62v2c2.654 0 4.46 1.538 4.46 3.62zm-6.46-5.62c-4.24 0-7.366 2.087-10.567 5.473l1.454 1.374c3.039-3.215 5.673-4.847 9.113-4.847zm-9.136 5.449-6.42-6.36-1.408 1.421 6.42 6.36zm-6.354-5.011c4.213-5.0794 9.283-7.7384 15.73-7.7384v-2c-7.113 0-12.723 2.981-17.27 8.4614zm15.73-7.7384c8.832 0 14.72 5.3264 14.72 12.5004h2c0-8.5467-7.072-14.5004-16.72-14.5004zm14.72 12.5004c0 2.574-.533 4.815-1.889 6.994-1.37 2.201-3.618 4.403-7.155 6.82l1.128 1.651c3.663-2.502 6.154-4.89 7.725-7.415 1.584-2.545 2.191-5.165 2.191-8.05zm-9.061 13.825-6.48 4.62 1.161 1.629 6.48-4.62zm-5.899 6.435h16.38v-2h-16.38zm15.38-1v9.18h2v-9.18zm1 8.18h-32.1v2h32.1zm13.438-5.12-.755-.656-.578.667.589.656zm5.88-6.78.708-.707-.76-.76-.703.811zm9.9-3.54v-1h-.012zm-4.86.06h-1v1.012l1.013-.012zm0-8.64v-1h-1v1zm4.86 0 .015-1h-.007-.008zm-9.18-3.36-.734.678.698.756.736-.719zm-5.76-6.24-.76-.6503-.577.6753.603.653zm24.12 13.38-.274-.962-3.704 1.058 3.751.877zm-7.86 21.02c-7.363 0-12.903-2.719-16.355-6.568l-1.489 1.335c3.868 4.312 9.968 7.233 17.844 7.233zm-16.344-5.245 5.88-6.78-1.511-1.311-5.88 6.78zm4.417-6.728c3.189 3.188 7.283 4.793 11.387 4.793v-2c-3.576 0-7.161-1.396-9.972-4.207zm11.387 4.793c2.194 0 4.017-.459 5.323-1.342 1.338-.904 2.097-2.238 2.097-3.798h-2c0 .839-.38 1.575-1.217 2.141-.869.587-2.256.999-4.203.999zm7.42-5.14c0-.769-.143-1.508-.502-2.173-.362-.671-.91-1.206-1.621-1.613-1.376-.787-3.396-1.114-6.077-1.114v2c2.6 0 4.179.332 5.084.85.429.246.691.525.854.827.166.307.262.701.262 1.223zm-8.212-4.9-4.86.06.025 2 4.86-.06zm-3.848 1.06v-8.64h-2v8.64zm-1-7.64h4.86v-2h-4.86zm4.846 0c2.158.031 3.96-.307 5.258-1.078 1.359-.808 2.116-2.071 2.116-3.642h-2c0 .828-.352 1.455-1.138 1.923-.847.503-2.225.825-4.207.797zm7.374-4.72c0-1.642-.824-2.947-2.156-3.798-1.294-.827-3.048-1.222-5.024-1.222v2c1.745 0 3.081.354 3.947.907.828.529 1.233 1.234 1.233 2.113zm-7.18-5.02c-4.016 0-7.253 1.922-10.059 4.665l1.399 1.43c2.594-2.537 5.357-4.095 8.66-4.095zm-8.625 4.701-5.76-6.2397-1.469 1.3567 5.76 6.24zm-5.734-4.911c3.376-3.9498 8.151-6.9704 15.439-6.9704v-2c-7.951 0-13.257 3.3395-16.96 7.6701zm15.439-6.9704c4.706 0 8.378 1.1628 10.846 3.0106 2.448 1.8326 3.754 4.3628 3.754 7.2698h2c0-3.574-1.633-6.6836-4.555-8.8709-2.902-2.1722-7.03-3.4095-12.045-3.4095zm14.6 10.2804c0 4.096-2.684 7.238-6.954 8.458l.549 1.923c4.97-1.42 8.405-5.237 8.405-10.381zm-6.907 10.393c4.349 1.017 7.807 3.975 7.807 8.627h2c0-5.909-4.461-9.431-9.352-10.574zm7.807 8.627c0 3.302-1.462 6.12-4.093 8.139-2.65 2.032-6.53 3.281-11.347 3.281v2c5.144 0 9.484-1.332 12.564-3.694 3.099-2.377 4.876-5.769 4.876-9.726z"/></g></svg>