<svg fill="none" height="46" viewBox="0 0 50 46" width="50" xmlns="http://www.w3.org/2000/svg"><path d="m43.6802 6.95167c-1.1144-1.1182-2.4385-2.00544-3.8964-2.61083-1.458-.60538-3.0211-.91701-4.5997-.91701-1.5787 0-3.1418.31163-4.5998.91701-1.4579.60539-2.782 1.49263-3.8963 2.61083l-1.7104 1.73254-1.7103-1.73254c-1.1143-1.1182-2.4384-2.00544-3.8964-2.61083-1.4579-.60538-3.0211-.91701-4.5997-.91701s-3.1418.31163-4.5997.91701c-1.45797.60539-2.78208 1.49263-3.89641 2.61083-4.70895 4.70893-4.9977 12.66083.93291 18.70253l17.7696 17.7696 17.7696-17.7696c5.9307-6.0417 5.6419-13.9936.933-18.70253z" stroke="#002c4e" stroke-linecap="round" stroke-linejoin="round" stroke-width="5"/></svg>