<svg width="49" height="49" viewBox="0 0 49 49" fill="none" xmlns="http://www.w3.org/2000/svg">
<path d="M11.1152 46.6553V7.3084C11.1152 6.7182 11.1152 6.10613 11.2633 5.51593C11.3927 4.9271 11.6793 4.38759 12.0906 3.95868C12.5018 3.52977 13.0212 3.22866 13.5897 3.08954C14.203 2.93652 16.8889 2.93652 17.46 2.93652H32.2643C32.8354 2.93652 33.4275 2.93652 33.9986 3.08954C34.5683 3.22333 35.0902 3.51958 35.5052 3.94462C35.9202 4.36967 36.2115 4.90647 36.3461 5.49407C36.4942 6.10613 36.4942 6.7182 36.4942 7.3084V46.6553H11.1152Z" stroke="#EF7B4D" stroke-width="4.4" stroke-linecap="round" stroke-linejoin="round"/>
<path d="M2.21271 29.49V42.364C2.21271 44.7242 4.11613 46.6553 6.44253 46.6553H10.6724V25.1987H6.44253C5.8715 25.1987 5.27933 25.1987 4.7083 25.3489C4.13728 25.4991 3.60855 25.7781 3.18557 26.2072C2.78374 26.6149 2.5088 27.1513 2.36075 27.7306C2.24137 28.3088 2.19165 28.8996 2.21271 29.49Z" stroke="#EF7B4D" stroke-width="4.4" stroke-linecap="round" stroke-linejoin="round"/>
<path d="M43.7951 18.6711C43.2252 18.5492 42.6428 18.4984 42.0609 18.5199H37.8311V46.5928H42.0609C43.1827 46.5928 44.2586 46.1377 45.0518 45.3278C45.8451 44.5178 46.2907 43.4193 46.2907 42.2739V22.8388C46.2907 22.2342 46.2907 21.6511 46.1427 21.0681C45.9946 20.485 45.7197 19.9452 45.2967 19.5133C44.8949 19.103 44.3661 18.8223 43.7951 18.6711Z" stroke="#EF7B4D" stroke-width="4.4" stroke-linecap="round" stroke-linejoin="round"/>
<path d="M20.0205 11.8418H28.9254" stroke="#EF7B4D" stroke-width="4.4" stroke-linecap="round" stroke-linejoin="round"/>
<path d="M20.0205 20.7461H28.9254" stroke="#B5D2F3" stroke-width="4.4" stroke-linecap="round" stroke-linejoin="round"/>
<path d="M20.0205 29.6514H28.9254" stroke="#B5D2F3" stroke-width="4.4" stroke-linecap="round" stroke-linejoin="round"/>
<path d="M20.0205 38.5557H28.9254" stroke="#B5D2F3" stroke-width="4.4" stroke-linecap="round" stroke-linejoin="round"/>
</svg>
