<svg width="101" height="101" fill="none" viewBox="0 0 101 101" xmlns="http://www.w3.org/2000/svg"><circle cx="50.5" cy="50.535" r="50" fill="#FF85C1"/><path fill="#fff" d="M36.77 75.755 25.623 64.597c-.04-.54-.095-1.079-.11-1.622-.119-3.69.68-7.212 1.999-10.63 1.751-4.542 4.352-8.563 7.524-12.234 3.542-4.1 7.545-7.668 12.2-10.46 4.341-2.6 8.97-4.388 14.054-4.77 1.314-.098 2.649.024 3.97.047l11.15 11.158c.024 1.272.142 2.548.06 3.813-.296 4.442-1.662 8.59-3.795 12.461-4.612 8.366-11.125 14.888-19.453 19.555-3.904 2.186-8.091 3.596-12.59 3.9-1.278.086-2.573-.032-3.86-.056v-.004ZM68.736 35.09c-.094-.126-.13-.19-.181-.237-1.716-1.717-3.424-3.442-5.156-5.143-.157-.154-.448-.24-.673-.237-2.786.032-5.45.69-8.036 1.69-3.691 1.426-6.981 3.529-10.027 6.026-.626.512-5.333 5.132-5.392 5.195-2.716 2.985-5.01 6.258-6.698 9.937-1.405 3.064-2.318 6.25-2.425 9.645-.011.374.091.646.363.914 1.61 1.587 3.203 3.194 4.805 4.797.122.122.256.236.437.402.043-.165.074-.264.094-.366.827-4.34 2.554-8.315 4.892-12.036 2.723-4.329 6.104-8.082 9.965-11.418 3.372-2.919 7.052-5.349 11.16-7.098a32.297 32.297 0 0 1 6.864-2.067l.008-.004Zm3.117 4.226c-1.385.252-2.672.492-3.963.717-.394.067-.59.264-.756.65-.677 1.57-1.338 3.158-2.145 4.663-2.534 4.73-5.946 8.77-9.878 12.39-4.089 3.77-8.626 6.822-13.853 8.795-.192.075-.42.307-.46.504-.248 1.233-.449 2.474-.657 3.714-.024.134.004.276.008.433.334-.027.625-.039.913-.074 4.876-.583 9.205-2.549 13.215-5.286 3.668-2.505 6.883-5.518 9.725-8.933 2.857-3.434 5.183-7.175 6.62-11.433.656-1.942 1.101-3.927 1.23-6.144v.004Zm-10.89 3.54c-7.442 4.171-13.247 9.989-17.426 17.436 7.45-4.159 13.263-9.968 17.426-17.436Z"/></svg>