<svg width="101" height="101" fill="none" viewBox="0 0 101 101" xmlns="http://www.w3.org/2000/svg"><circle cx="50.5" cy="50.863" r="50" fill="#7340AE"/><path stroke="#fff" stroke-miterlimit="10" stroke-width="3" d="M41.76 38.667a7.78 7.78 0 0 1 .74 3.315c0 4.352-3.582 7.88-8 7.88s-8-3.528-8-7.88c0-1.699.39-2.244 1.385-4.12"/><path stroke="#fff" stroke-linecap="round" stroke-linejoin="round" stroke-width="3" d="m27.5 38.863 6.998-14 7.002 14m-6.029 20.148-5.318-1.99s-3.363-3.345-4.948-3.841c-1.582-.496-3.167 0-3.167 0s-1.633-2.316-3.563-1.565c-1.315.51-1.285 3.711 0 5.406 1.03 1.354 4.34 6.057 5.622 7.881.333.478.807.84 1.356 1.04l16.303 5.994a14.984 14.984 0 0 0 9.096.407 44.516 44.516 0 0 0 3.134-.977c5.059-1.78 9.31-3.063 15.151-.395L72.5 56.144s-6.43-.988-7.422-1.68c-.989-.692-7.719-5.402-14.148-2.85-6.43 2.554-11.081 5.126-13.752 5.618-2.67.495-2.574 7.215 2.967 5.731 5.54-1.483 13.84-4.051 13.84-4.051m19.242-4.049L69.5 72.764l10.17 4.099 4.83-22H73.227Z"/></svg>