<svg width="101" height="101" viewBox="0 0 101 101" fill="none" xmlns="http://www.w3.org/2000/svg">
<circle cx="50.998" cy="50.0312" r="50" fill="#EA62A5"/>
<path d="M47.462 53.4576C44.2133 50.36 41.7044 47.0919 40.1732 44.1858C34.1387 45.6505 29.6748 50.8646 29.6748 57.0739C29.6748 64.4184 35.9199 70.373 43.6228 70.373C50.1276 70.373 55.5912 66.1261 57.1347 60.3841C54.0991 58.9217 50.6911 56.5366 47.462 53.4576ZM47.462 53.4576C46.0042 52.0677 44.6984 50.645 43.5591 49.2341C39.0461 49.2668 35.3981 52.7638 35.3981 57.0739C35.3981 61.3839 39.0804 64.916 43.6228 64.916C48.1651 64.916 51.8059 61.4423 51.8451 57.1439C50.38 56.0647 48.9026 54.8313 47.462 53.4576ZM73.7507 37.0889C74.1477 42.6113 69.5808 46.7321 63.9311 47.1433C57.5708 47.6035 55.329 51.3295 55.329 51.3295L55.0938 51.18C53.0823 49.8882 51.3624 48.2225 50.037 46.2859L49.8336 45.9869C49.8336 45.9869 53.271 43.7794 54.0868 37.7593C54.7851 32.6223 58.4871 28.3801 63.9163 28.3731C69.0516 28.366 73.4004 32.2089 73.7507 37.0936V37.0889ZM55.3266 51.3295L55.0914 51.18C53.0799 49.8882 51.36 48.2225 50.0345 46.2859L49.8312 45.9869C49.8312 45.9869 52.2763 44.4171 53.5307 40.3127C47.5404 35.8181 41.7191 33.9516 39.4357 36.1288C36.6304 38.8036 40.2246 46.5639 47.4595 53.4623C54.6945 60.3607 62.8334 63.7877 65.6387 61.1129C67.9344 58.924 65.9425 53.3315 61.1821 47.5918C56.9093 48.7061 55.3266 51.3318 55.3266 51.3318V51.3295Z" stroke="white" stroke-width="3" stroke-linecap="round" stroke-linejoin="round"/>
</svg>
