<svg width="75" height="53" viewBox="0 0 75 53" fill="none" xmlns="http://www.w3.org/2000/svg">
<path d="M37.5 52.7893C28.99 52.7893 13.82 52.0493 7.53 50.5693C4.94 49.8293 3.09 47.9793 2.35 45.3893C1.24 41.3193 0.5 32.8093 0.5 26.8893C0.5 20.9693 1.24 12.4593 2.35 8.38926C3.09 5.79926 4.94 3.94926 7.53 3.20926C13.82 1.72926 28.99 0.989258 37.5 0.989258C46.01 0.989258 61.18 1.72926 67.47 3.20926C70.06 3.94926 71.91 5.79926 72.65 8.38926C73.76 12.4593 74.5 20.9693 74.5 26.8893C74.5 32.8093 73.76 41.3193 72.65 45.3893C71.91 47.9793 70.06 49.8293 67.47 50.5693C61.18 52.0493 46.01 52.7893 37.5 52.7893Z" fill="#1E0060"/>
<path d="M30.1006 37.9891L48.6006 26.8891L30.1006 15.7891V37.9891Z" fill="white"/>
</svg>
