<svg width="54" height="71" fill="none" viewBox="0 0 54 71" xmlns="http://www.w3.org/2000/svg"><path fill="#002C95" d="M.4 63.627c.239-.9.41-1.823.724-2.696 1.494-4.154 4.356-6.93 8.531-8.345a789.613 789.613 0 0 1 7.492-2.498c.808-.264 1.416-.678 1.6-1.746h-1.175c-3.331 0-6.662.003-9.993 0-1.68-.002-2.174-.497-2.174-2.17 0-8.095-.02-16.19.003-24.285C5.435 10.97 13.064 2.045 23.807.313c11.55-1.861 22.838 6.464 24.498 18.1.175 1.234.255 2.49.258 3.735.022 7.956.014 15.912.011 23.868 0 1.915-.414 2.324-2.326 2.324H35.316c.053 1.111.724 1.47 1.518 1.734 2.663.889 5.358 1.69 7.97 2.7 5.413 2.096 8.342 6.106 8.739 11.914.083 1.212.058 2.432.03 3.646-.025 1.05-.682 1.729-1.562 1.718-.88-.011-1.486-.692-1.541-1.751-.094-1.765.03-3.571-.308-5.286-.697-3.529-2.91-5.916-6.227-7.255-1.027-.415-2.204-1.16-3.117-.94-.85.203-1.457 1.476-2.14 2.301-3.018 3.649-6.627 6.606-10.571 9.182-.755.495-1.466.5-2.224 0-4.605-3.046-8.838-6.494-11.98-11.116-.303-.445-.567-.59-1.103-.37-.83.342-1.707.565-2.554.873-4.064 1.476-6.67 5.152-6.723 9.48a80.16 80.16 0 0 0 0 2.709c.02.88-.072 1.684-1.036 2.056-.977.38-1.546-.228-2.087-.89v-5.418Zm18.621-18.48c-.38-.609-.547-1.129-.902-1.404-2.818-2.181-4.747-4.96-5.588-8.423-.755-3.107-.566-6.286-.33-9.434.197-2.63 2.073-4.486 3.406-6.575.569-.892 1.477-1.068 2.237-.565.758.503.905 1.387.333 2.293-.65 1.025-1.43 1.981-1.98 3.054-.46.903-.865 1.918-.954 2.913-.15 1.722-.092 3.47-.02 5.205.253 6.113 4.964 10.84 11.221 11.307 5.655.422 11.079-3.79 12.067-9.601.358-2.101.164-4.29.272-6.436.045-.879-.216-1.612-.897-2.104-1.54-1.114-3.02-2.395-4.719-3.185-4.266-1.981-8.638-3.74-12.977-5.563-1.166-.49-1.65-1.176-1.335-2.084.327-.943 1.182-1.345 2.298-.881 4.444 1.84 8.925 3.612 13.272 5.663 2.007.948 3.8 2.398 5.577 3.771 1.38 1.067 2.026 2.576 1.912 4.4-.086 1.383.084 2.787-.044 4.165-.155 1.645-.333 3.326-.808 4.9-.896 2.976-2.776 5.318-5.232 7.214-.297.23-.4.714-.592 1.08.356.12.708.337 1.063.34 2.67.027 5.344.016 8.015.016h1.143v-1.136c0-7.328.011-14.66-.014-21.987a24.042 24.042 0 0 0-.283-3.627C43.608 8.63 33.595 1.606 23.85 3.487 14.674 5.26 8.539 12.697 8.528 22.07c-.008 7.328 0 14.66 0 21.987v1.087h10.496l-.003.003Zm-2.401 8.331c.114.27.136.372.194.45 2.657 3.677 6.074 6.534 9.785 9.065.209.142.728.053.978-.117 2.909-1.967 5.588-4.212 7.928-6.841.658-.74 1.24-1.54 1.97-2.454-1.826-.576-3.733-.937-4.477-2.632-.677-1.548-.852-3.318-1.227-4.89-1.53.19-3.203.566-4.875.56-1.657-.008-3.311-.402-5.105-.644.633 4.063-.868 6.736-5.174 7.506l.003-.003Z"/></svg>