<svg width="101" height="101" viewBox="0 0 101 101" fill="none" xmlns="http://www.w3.org/2000/svg">
<circle cx="50.998" cy="50.3594" r="50" fill="#E5AE20"/>
<path d="M64.7404 40.3407V34.909C64.7404 31.2608 60.6319 29.1398 57.6787 31.2608L43.6287 41.3531C42.3238 42.2916 40.7589 42.7942 39.1523 42.7942H37.1287C33.9375 42.7942 31.3252 45.4176 31.3252 48.6224V52.1746C31.3252 55.3794 33.9375 58.0028 37.1287 58.0028H39.1523C40.7564 58.0028 42.3213 58.5078 43.6287 59.4439L44.8478 60.3184M50.9505 64.703L57.6787 69.5361C60.6344 71.6595 64.7404 69.5361 64.7404 65.8879V50.3984M33.6579 71.5586L75.479 29.5586" stroke="white" stroke-width="3" stroke-linecap="round" stroke-linejoin="round"/>
</svg>
