<svg width="61" height="71" fill="none" viewBox="0 0 61 71" xmlns="http://www.w3.org/2000/svg"><path fill="#002C95" d="M30.608 63.431c-.579.422-3.766 2.644-4.705 3.37-.9.698-1.897 1.329-3.03 1.039-.847-.217-1.795-.665-2.349-1.315-2.184-2.57-4.234-5.256-6.32-7.908-.24-.304-.402-.664-.655-1.092-2.513.785-5.062 1.464-7.52 2.396-1.587.602-2.409 6.337-2.409 8.085 0 3.066-3.22 2.345-3.22.087 0-4.214 1.858-10.509 5.853-11.73 2.897-.887 5.794-1.783 8.705-2.622.772-.222 1.293-.608 1.727-1.283.68-1.053 1.14-2.396 2.644-2.486.326-1.484-.078-2.469-1.248-3.488-3.532-3.083-5.53-7.075-6.148-11.773-.053-.4-.401-.915-.752-1.098-3.38-1.754-4.184-5.712-1.755-8.66.281-.343.429-.895.44-1.35.058-3.064-.092-6.14.114-9.192C10.554 6.031 16.73.203 25.06.093c4.852-.062 9.708-.045 14.56 0 3.485.031 5.984 1.616 7.277 4.977.122.316.326.597.588.808 2.512 2.016 3.668 4.656 3.66 7.86-.008 3.302-.02 6.605.02 9.907.005.425.222 1.05.495 1.376 2.338 2.801 1.552 6.912-1.71 8.494-.607.292-.841.639-.914 1.272-.546 4.715-2.607 8.68-6.15 11.748-1.162 1.005-1.447 1.998-1.16 3.437 1.46.101 1.925 1.388 2.583 2.421.451.707.98 1.123 1.8 1.357 3.083.881 6.156 1.813 9.212 2.792 3.229 1.036 5.282 7.241 5.279 10.338 0 1.084-.513 1.74-1.415 1.821-.93.082-1.65-.442-1.736-1.503-.2-2.45-1.593-7.201-3.819-7.81-2.062-.562-4.095-1.218-5.992-1.79-2.474 3.11-4.842 6.168-7.304 9.15-1.104 1.337-2.753 1.545-4.263.641-1.008-.602-1.919-1.368-2.877-2.058-.307-.22-2.123-1.573-2.586-1.9ZM13.064 23.166c.769 0 1.304-.042 1.833.008.746.07 1.072-.185 1.195-.976.25-1.6.607-3.181.95-4.764.566-2.61 2.226-3.682 4.791-3.063 6.452 1.56 12.851 1.535 19.189-.596 1.206-.406 2.1-.045 2.393.892.303.969-.184 1.729-1.385 2.176-3.04 1.135-6.193 1.65-9.416 1.79-3.83.17-7.63-.033-11.349-1.066-.713-.197-1.044-.026-1.159.743-.17 1.137-.479 2.255-.64 3.395-.533 3.73-1.789 4.958-5.617 4.71-.072-.006-.142 0-.214 0-1.365.034-2.284.802-2.373 1.984-.095 1.245.601 2.095 1.96 2.388 1.4.304 1.683.633 1.798 2.105.027.36.055.718.091 1.079.828 8.324 7.703 14.349 16.105 14.112 7.87-.22 14.436-6.877 14.781-14.982.072-1.67.326-1.996 1.922-2.326.928-.191 1.527-.695 1.783-1.632.262-.963-.05-1.729-.808-2.275-.752-.543-.986-1.227-.978-2.131.031-3.643-.005-7.286.02-10.926.017-2.33-.855-4.16-2.716-5.57a3.786 3.786 0 0 1-1.215-1.676c-.746-2.142-2.02-3.21-4.273-3.22-4.959-.029-9.92-.07-14.879.01-5.21.085-9.505 3.196-11.084 8.004-1.257 3.826-.438 7.787-.705 11.813v-.006Zm17.453 35.992c2.19-1.844 4.265-3.781 6.54-5.442 1.516-1.106 1.477-2.413 1.249-4.062-5.22 2.3-10.408 2.232-15.667-.011 0 .796-.053 1.413.019 2.012.05.423.153.966.44 1.214 2.432 2.114 4.909 4.172 7.421 6.289h-.002ZM17.3 57.336c1.858 2.354 3.647 4.637 5.466 6.892.15.186.632.355.766.259 1.462-1.047 2.886-2.15 4.384-3.288-2.874-2.421-5.627-4.738-8.454-7.123-.741 1.118-1.43 2.157-2.165 3.26h.003Zm20.534 7.45 5.903-7.444-2.165-3.268a10510.63 10510.63 0 0 0-8.457 7.13c1.568 1.191 3.044 2.309 4.722 3.581h-.003Z"/></svg>