<svg width="101" height="101" viewBox="0 0 101 101" fill="none" xmlns="http://www.w3.org/2000/svg">
<circle cx="50.998" cy="50.3594" r="50" fill="#0098CC"/>
<path d="M69.4269 33.5039H33.8162C31.4996 33.5039 29.6216 35.3819 29.6216 37.6986V62.4755C29.6216 64.7921 31.4996 66.6701 33.8162 66.6701H69.4269C71.7436 66.6701 73.6216 64.7921 73.6216 62.4755V37.6986C73.6216 35.3819 71.7436 33.5039 69.4269 33.5039Z" stroke="white" stroke-width="4" stroke-linecap="round" stroke-linejoin="round"/>
<mask id="path-3-inside-1_4915_2292" fill="white">
<path d="M35.6455 50.0756C35.6455 45.4165 39.6275 41.5078 44.3331 41.5078C46.7702 41.5078 49.0142 42.5467 50.608 44.1869L48.4593 46.1889C47.4204 45.0058 45.9488 44.2578 44.3331 44.2578C41.2922 44.2578 38.7084 46.9125 38.7084 50.0756C38.7084 53.2387 41.2897 55.9154 44.3331 55.9154C45.9488 55.9154 47.4228 55.1674 48.4837 53.9843L50.608 55.9643C49.0142 57.6289 46.7702 58.6678 44.3331 58.6678C39.6275 58.6678 35.6455 54.7347 35.6455 50.0756Z"/>
</mask>
<path d="M35.6455 50.0756C35.6455 45.4165 39.6275 41.5078 44.3331 41.5078C46.7702 41.5078 49.0142 42.5467 50.608 44.1869L48.4593 46.1889C47.4204 45.0058 45.9488 44.2578 44.3331 44.2578C41.2922 44.2578 38.7084 46.9125 38.7084 50.0756C38.7084 53.2387 41.2897 55.9154 44.3331 55.9154C45.9488 55.9154 47.4228 55.1674 48.4837 53.9843L50.608 55.9643C49.0142 57.6289 46.7702 58.6678 44.3331 58.6678C39.6275 58.6678 35.6455 54.7347 35.6455 50.0756Z" fill="#EA62A5"/>
<path d="M50.608 44.1869L53.3347 47.1135L56.3233 44.3289L53.4767 41.3994L50.608 44.1869ZM48.4593 46.1889L45.4536 48.8282L48.1719 51.9239L51.1861 49.1155L48.4593 46.1889ZM48.4837 53.9843L51.2111 51.0582L48.2281 48.2778L45.5057 51.3138L48.4837 53.9843ZM50.608 55.9643L53.4972 58.7305L56.3007 55.8023L53.3353 53.0382L50.608 55.9643ZM39.6455 50.0756C39.6455 47.6833 41.7785 45.5078 44.3331 45.5078V37.5078C37.4765 37.5078 31.6455 43.1496 31.6455 50.0756H39.6455ZM44.3331 45.5078C45.6229 45.5078 46.851 46.0603 47.7392 46.9744L53.4767 41.3994C51.1774 39.0331 47.9174 37.5078 44.3331 37.5078V45.5078ZM47.8812 41.2604L45.7325 43.2624L51.1861 49.1155L53.3347 47.1135L47.8812 41.2604ZM51.465 43.5496C49.7507 41.5974 47.2215 40.2578 44.3331 40.2578V48.2578C44.6762 48.2578 45.0901 48.4142 45.4536 48.8282L51.465 43.5496ZM44.3331 40.2578C38.9646 40.2578 34.7084 44.8236 34.7084 50.0756H42.7084C42.7084 49.0013 43.6197 48.2578 44.3331 48.2578V40.2578ZM34.7084 50.0756C34.7084 55.3065 38.9419 59.9154 44.3331 59.9154V51.9154C43.6376 51.9154 42.7084 51.1709 42.7084 50.0756H34.7084ZM44.3331 59.9154C47.2251 59.9154 49.7408 58.5739 51.4618 56.6547L45.5057 51.3138C45.1049 51.7608 44.6726 51.9154 44.3331 51.9154V59.9154ZM45.7564 56.9103L47.8806 58.8903L53.3353 53.0382L51.2111 51.0582L45.7564 56.9103ZM47.7187 53.198C46.8374 54.1185 45.6198 54.6678 44.3331 54.6678V62.6678C47.9205 62.6678 51.191 61.1393 53.4972 58.7305L47.7187 53.198ZM44.3331 54.6678C41.7934 54.6678 39.6455 52.4825 39.6455 50.0756H31.6455C31.6455 56.9869 37.4617 62.6678 44.3331 62.6678V54.6678Z" fill="white" mask="url(#path-3-inside-1_4915_2292)"/>
<mask id="path-5-inside-2_4915_2292" fill="white">
<path d="M52.6328 50.0756C52.6328 45.4165 56.6148 41.5078 61.3204 41.5078C63.7575 41.5078 66.0015 42.5467 67.5953 44.1869L65.4466 46.1889C64.4077 45.0058 62.9361 44.2578 61.3204 44.2578C58.2795 44.2578 55.6957 46.9125 55.6957 50.0756C55.6957 53.2387 58.277 55.9154 61.3204 55.9154C62.9361 55.9154 64.4101 55.1674 65.471 53.9843L67.5953 55.9643C66.0015 57.6289 63.7575 58.6678 61.3204 58.6678C56.6148 58.6678 52.6328 54.7347 52.6328 50.0756Z"/>
</mask>
<path d="M52.6328 50.0756C52.6328 45.4165 56.6148 41.5078 61.3204 41.5078C63.7575 41.5078 66.0015 42.5467 67.5953 44.1869L65.4466 46.1889C64.4077 45.0058 62.9361 44.2578 61.3204 44.2578C58.2795 44.2578 55.6957 46.9125 55.6957 50.0756C55.6957 53.2387 58.277 55.9154 61.3204 55.9154C62.9361 55.9154 64.4101 55.1674 65.471 53.9843L67.5953 55.9643C66.0015 57.6289 63.7575 58.6678 61.3204 58.6678C56.6148 58.6678 52.6328 54.7347 52.6328 50.0756Z" fill="#EA62A5"/>
<path d="M67.5953 44.1869L70.322 47.1135L73.3106 44.3289L70.464 41.3994L67.5953 44.1869ZM65.4466 46.1889L62.4409 48.8282L65.1592 51.9239L68.1734 49.1155L65.4466 46.1889ZM65.471 53.9843L68.1984 51.0582L65.2154 48.2778L62.493 51.3138L65.471 53.9843ZM67.5953 55.9643L70.4845 58.7305L73.288 55.8023L70.3226 53.0382L67.5953 55.9643ZM56.6328 50.0756C56.6328 47.6833 58.7658 45.5078 61.3204 45.5078V37.5078C54.4638 37.5078 48.6328 43.1496 48.6328 50.0756H56.6328ZM61.3204 45.5078C62.6102 45.5078 63.8383 46.0603 64.7265 46.9744L70.464 41.3994C68.1647 39.0331 64.9047 37.5078 61.3204 37.5078V45.5078ZM64.8685 41.2604L62.7198 43.2624L68.1734 49.1155L70.322 47.1135L64.8685 41.2604ZM68.4523 43.5496C66.738 41.5974 64.2088 40.2578 61.3204 40.2578V48.2578C61.6635 48.2578 62.0774 48.4142 62.4409 48.8282L68.4523 43.5496ZM61.3204 40.2578C55.9519 40.2578 51.6957 44.8236 51.6957 50.0756H59.6957C59.6957 49.0013 60.607 48.2578 61.3204 48.2578V40.2578ZM51.6957 50.0756C51.6957 55.3065 55.9292 59.9154 61.3204 59.9154V51.9154C60.6249 51.9154 59.6957 51.1709 59.6957 50.0756H51.6957ZM61.3204 59.9154C64.2124 59.9154 66.7281 58.5739 68.4491 56.6547L62.493 51.3138C62.0922 51.7608 61.6599 51.9154 61.3204 51.9154V59.9154ZM62.7437 56.9103L64.8679 58.8903L70.3226 53.0382L68.1984 51.0582L62.7437 56.9103ZM64.706 53.198C63.8247 54.1185 62.6071 54.6678 61.3204 54.6678V62.6678C64.9078 62.6678 68.1783 61.1393 70.4845 58.7305L64.706 53.198ZM61.3204 54.6678C58.7807 54.6678 56.6328 52.4825 56.6328 50.0756H48.6328C48.6328 56.9869 54.449 62.6678 61.3204 62.6678V54.6678Z" fill="white" mask="url(#path-5-inside-2_4915_2292)"/>
</svg>
