<svg width="53" height="71" fill="none" viewBox="0 0 53 71" xmlns="http://www.w3.org/2000/svg"><path fill="#002C95" d="M52.4 69.09c-.518.632-1.063 1.212-2 .852-.923-.353-.99-1.12-.997-1.96-.016-1.39.053-2.8-.176-4.16-.608-3.628-2.732-6.115-6.16-7.433-1.823-.7-3.696-1.275-5.567-1.84-.316-.095-.845.037-1.097.263-8.424 7.591-20.096 7.586-28.53-.011-.248-.223-.774-.334-1.098-.244-1.34.374-2.65.857-3.975 1.278-1.034.329-1.815-.01-2.113-.875-.29-.84.154-1.604 1.19-1.954 2.416-.817 4.842-1.61 7.263-2.41 1.693-.56 1.938-.894 1.943-2.633 0-.133-.01-.266 0-.398.239-2.562-.176-4.768-2.02-6.89-2.131-2.452-2.907-5.658-2.745-8.924.125-2.533-.407-4.643-1.95-6.78-2.437-3.376-3.49-7.306-2.586-11.495.816-3.787 3.114-6.356 6.861-7.56.269-.088.598-.196.752-.406 2.182-2.988 5.31-4.325 8.799-4.927 5.01-.864 10.005-.742 14.855.886 7.342 2.463 10.866 8.575 9.497 16.185-.682 3.795-2.141 7.285-3.999 10.639-.303.546-.494 1.235-.489 1.853.032 2.776-.114 5.537-1.398 8.045-.808 1.575-1.94 2.983-2.896 4.484-.232.364-.481.796-.497 1.207-.059 1.522-.003 3.049-.03 4.571-.018 1.045.452 1.655 1.444 1.978 2.899.944 5.787 1.923 8.676 2.898 4.967 1.676 7.954 5.073 8.889 10.241.021.122.1.236.154.353v5.17-.002ZM7.766 9.71c-1.695.867-3.018 2.997-3.21 5.15-.375 4.17 1.302 7.628 3.885 10.726.596.715.835 1.429.85 2.338.038 2.214-.079 4.474.306 6.635 1.06 5.953 6.84 10.431 12.846 10.19 6.4-.258 11.786-4.908 12.392-11.063.345-3.516.138-7.082.215-10.625.048-2.177-.967-3.699-2.873-4.582-.946-.44-2.011-.83-3.035-.859-4.746-.135-9.494-.149-14.243-.18-.858-.006-1.422.482-1.698 1.291-.266.782-.505 1.578-.795 2.35-.356.943-1.116 1.328-1.958 1.036-.763-.265-1.127-1.045-.864-1.97.2-.7.46-1.381.694-2.07.853-2.507 2.4-3.626 5.065-3.634 3.321-.008 6.643-.042 9.965.014 1.754.029 3.534.06 5.25.376 3.405.626 6.047 2.334 7.168 5.82.143.446.236.91.401 1.546.975-2.413 1.587-4.709 1.682-7.109.197-4.905-2.176-8.554-6.728-10.442-2.296-.952-4.712-1.36-7.178-1.493-3.502-.188-6.983-.084-10.29 1.265-3.106 1.268-4.985 3.426-4.878 6.966.026.926-.593 1.567-1.417 1.599-.82.032-1.475-.567-1.544-1.488-.045-.58-.008-1.166-.008-1.79v.003Zm6.285 35.84c.093 3.17.383 6.3-3.29 7.66 5.868 5.497 16.317 5.881 22.803.005-3.744-1.336-3.366-4.529-3.303-7.663-5.434 2.87-10.728 2.89-16.21-.002Z"/></svg>