<svg width="101" height="101" viewBox="0 0 101 101" fill="none" xmlns="http://www.w3.org/2000/svg">
<circle cx="50.998" cy="50.8301" r="50" fill="#FF412F"/>
<path d="M47.516 28.1562H40.6862V47.96M40.6862 47.96H29.8311V68.1563H72.8311V47.96H40.6862ZM51.5914 48.1563V68.1563M55.4328 28.1562H62.4609V47.96M51.5914 41.6211H46.4004L51.6177 32.6133L56.8327 41.6211H51.6416M39.0283 56.212L40.7435 52.901L42.5161 56.1852L46.4171 56.6847L43.6197 59.2711L44.3173 62.8898L40.8176 61.2064L37.3465 62.9433L37.9796 59.3157L35.1368 56.7716L39.0283 56.212ZM67.7547 58.3079C67.7547 61.0699 65.3557 63.309 62.3964 63.309C59.4371 63.309 57.0381 61.0699 57.0381 58.3079C57.0381 55.5458 59.4371 53.3068 62.3964 53.3068C65.3557 53.3068 67.7547 55.5458 67.7547 58.3079Z" stroke="white" stroke-width="2" stroke-linecap="round" stroke-linejoin="round"/>
</svg>
