<svg width="101" height="101" viewBox="0 0 101 101" fill="none" xmlns="http://www.w3.org/2000/svg">
<circle cx="50.6904" cy="50.2578" r="50" fill="#A4BD0B"/>
<path d="M36.699 39.0055C38.0841 39.0055 39.2626 39.9203 39.7013 41.1935L39.8681 41.6303C39.8754 41.6527 39.8863 41.6714 39.8935 41.6938L42.2396 50.427C42.3955 51.0057 42.0655 51.6069 41.5035 51.7637C41.4092 51.7898 41.3149 51.8047 41.2206 51.8047C40.7565 51.8047 40.3323 51.4874 40.2017 51.0057L38.1784 43.4748H37.591L38.6933 48.3025L40.3685 55.643H37.5728V65.0744C37.5728 65.9332 36.8911 66.6388 36.0535 66.6388C35.2159 66.6388 34.5342 65.9369 34.5342 65.0744V55.643H33.8344V65.0744C33.8344 65.9332 33.1527 66.6388 32.3151 66.6388C31.4811 66.6388 30.7957 65.9369 30.7957 65.0744V55.643H28.0109L29.6862 48.3025L30.7885 43.4748H30.2953L28.272 51.0057C28.1415 51.4874 27.7172 51.8047 27.2531 51.8047C27.1588 51.8047 27.0645 51.7935 26.9702 51.7637C26.4082 51.6031 26.0782 51.0057 26.2342 50.427L28.5802 41.6938C28.5875 41.6602 28.602 41.6341 28.6129 41.6042C28.9211 40.1219 30.1974 39.0093 31.7313 39.0093H36.699M36.699 37.1424H31.7313C29.4432 37.1424 27.4271 38.774 26.8796 41.0479C26.8651 41.0927 26.847 41.1412 26.8325 41.1972L24.49 49.9267C24.0694 51.4986 24.965 53.1265 26.4916 53.5633C26.5315 53.5745 26.575 53.5857 26.6185 53.5969L26.2487 55.2174C26.1218 55.7737 26.2487 56.3562 26.5931 56.8042C26.9376 57.2523 27.4598 57.5136 28.0146 57.5136H28.9863V65.0781C28.9863 66.9711 30.4803 68.5094 32.3187 68.5094C33.0113 68.5094 33.6531 68.2892 34.1861 67.9195C34.7191 68.2929 35.3609 68.5094 36.0535 68.5094C37.8919 68.5094 39.3859 66.9711 39.3859 65.0781V57.5136H40.3685C40.9233 57.5136 41.4455 57.2523 41.7899 56.8042C42.1344 56.3562 42.2613 55.7737 42.1344 55.2174L41.7682 53.6156C41.8407 53.6007 41.9132 53.582 41.9857 53.5633C43.5123 53.1302 44.4079 51.4986 43.9873 49.9267L41.6413 41.1935C41.6268 41.1412 41.6123 41.0927 41.5978 41.0516C41.5869 41.018 41.576 40.9807 41.5615 40.9471L41.4056 40.5364C40.6912 38.5015 38.8057 37.1387 36.7062 37.1387L36.699 37.1424Z" fill="white"/>
<path d="M34.2366 29.8122C35.8067 29.8122 37.0831 31.1227 37.0831 32.7432C37.0831 34.3636 35.8103 35.6741 34.2366 35.6741C32.6629 35.6741 31.3902 34.3636 31.3902 32.7432C31.3902 31.1227 32.6629 29.8122 34.2366 29.8122ZM34.2366 27.9453C31.6694 27.9453 29.5771 30.0959 29.5771 32.7432C29.5771 35.3904 31.6658 37.541 34.2366 37.541C36.8075 37.541 38.8961 35.3904 38.8961 32.7432C38.8961 30.0959 36.8039 27.9453 34.2366 27.9453Z" fill="white"/>
<path d="M54.7059 39.0544C56.3956 39.0544 57.7699 40.4396 57.8171 42.1683H57.8207V42.2579V51.3197C57.8207 51.9208 57.3493 52.4062 56.7655 52.4062C56.1817 52.4062 55.7103 51.9208 55.7103 51.3197V43.449H55.0105V65.0747C55.0105 65.9335 54.3288 66.6391 53.4912 66.6391C52.6536 66.6391 51.9719 65.9372 51.9719 65.0747V52.4062H51.272V65.0747C51.272 65.9335 50.5903 66.6391 49.7527 66.6391C48.9151 66.6391 48.2334 65.9372 48.2334 65.0747V43.449H47.6423V51.3197C47.6423 51.9208 47.171 52.4062 46.5872 52.4062C46.0034 52.4062 45.532 51.9208 45.532 51.3197V42.2616V42.1683H45.5356C45.5864 40.4396 46.957 39.0544 48.6468 39.0544H54.7059ZM54.7059 37.1875H48.6468C46.0179 37.1875 43.8894 39.2635 43.7298 41.9443C43.7226 42.0189 43.7153 42.0899 43.7153 42.1683V51.3197C43.7153 52.8916 44.9156 54.1834 46.4204 54.2693V65.0747C46.4204 66.9677 47.9143 68.506 49.7527 68.506C50.4453 68.506 51.0871 68.2894 51.6201 67.9161C52.1532 68.2894 52.795 68.506 53.4876 68.506C55.326 68.506 56.8199 66.9677 56.8199 65.0747V54.273C58.3755 54.2432 59.6337 52.9289 59.6337 51.3197V42.1683C59.6337 42.0936 59.6301 42.0189 59.6192 41.9443C59.4597 39.2635 57.3312 37.1875 54.7023 37.1875H54.7059Z" fill="white"/>
<path d="M51.6746 29.8122C53.2447 29.8122 54.5211 31.1227 54.5211 32.7432C54.5211 34.3636 53.2483 35.6741 51.6746 35.6741C50.1009 35.6741 48.8282 34.3636 48.8282 32.7432C48.8282 31.1227 50.1009 29.8122 51.6746 29.8122ZM51.6746 27.9453C49.1074 27.9453 47.0151 30.0959 47.0151 32.7432C47.0151 35.3904 49.1037 37.541 51.6746 37.541C54.2455 37.541 56.3341 35.3904 56.3341 32.7432C56.3341 30.0959 54.2455 27.9453 51.6746 27.9453Z" fill="white"/>
<path d="M72.0711 39.0057C73.7608 39.0057 75.1351 40.3909 75.1822 42.1196H75.1858V43.404V51.2747C75.1858 51.8759 74.7145 52.3612 74.1307 52.3612C73.5469 52.3612 73.0755 51.8759 73.0755 51.2747V43.404H72.4445V65.0746C72.4445 65.9333 71.7628 66.639 70.9252 66.639C70.0912 66.639 69.4059 65.9371 69.4059 65.0746V55.6432H68.7061V65.0746C68.7061 65.9333 68.0244 66.639 67.1868 66.639C66.3491 66.639 65.6674 65.9371 65.6674 65.0746V55.6432H62.879L64.5542 48.3027L65.6566 43.475H65.1344L63.1111 51.0059C62.9805 51.4876 62.5563 51.8049 62.0922 51.8049C61.9979 51.8049 61.9036 51.7937 61.8093 51.7639C61.2473 51.6033 60.9173 51.0059 61.0732 50.4272L63.4193 41.694C63.4265 41.6604 63.441 41.6343 63.4519 41.6044C63.7601 40.1221 65.0365 39.0094 66.5703 39.0094H72.0674M72.0674 37.1426H66.5703C64.2823 37.1426 62.2662 38.7742 61.7187 41.0481C61.7042 41.0929 61.686 41.1414 61.6715 41.1974L59.3255 49.9306C58.9049 51.5025 59.8005 53.1304 61.3271 53.5672C61.3778 53.5822 61.4286 53.5934 61.4794 53.6046L61.1095 55.2175C60.9826 55.7739 61.1095 56.3563 61.454 56.8044C61.7984 57.2524 62.3206 57.5138 62.8754 57.5138H63.8508V65.0783C63.8508 66.9713 65.3447 68.5096 67.1831 68.5096C67.8757 68.5096 68.5175 68.2931 69.0506 67.9197C69.5836 68.2931 70.2254 68.5096 70.918 68.5096C72.7564 68.5096 74.2503 66.9713 74.2503 65.0783V54.2281C75.7733 54.1609 76.9952 52.8616 76.9952 51.2747V42.2167V42.1234C76.9952 42.0487 76.9916 41.974 76.9807 41.8993C76.8212 39.2185 74.6927 37.1426 72.0638 37.1426H72.0674Z" fill="white"/>
<path d="M69.076 29.8122C70.6461 29.8122 71.9224 31.1227 71.9224 32.7432C71.9224 34.3636 70.6497 35.6741 69.076 35.6741C67.5023 35.6741 66.2295 34.3636 66.2295 32.7432C66.2295 31.1227 67.5023 29.8122 69.076 29.8122ZM69.076 27.9453C66.5087 27.9453 64.4165 30.0959 64.4165 32.7432C64.4165 35.3904 66.5051 37.541 69.076 37.541C71.6469 37.541 73.7355 35.3904 73.7355 32.7432C73.7355 30.0959 71.6469 27.9453 69.076 27.9453Z" fill="white"/>
</svg>
