<svg width="101" height="101" fill="none" viewBox="0 0 101 101" xmlns="http://www.w3.org/2000/svg"><circle cx="50.5" cy="50.598" r="50" fill="#002C95"/><g fill="#fff" clip-path="url(#a)"><path d="M84.135 41.143c0-1.865-.802-3.307-2.32-4.178-1.554-.891-3.21-.84-4.787.144-.297.188-.594.375-.89.567a47.38 47.38 0 0 1-1.827 1.133c-.112.067-.309.086-.37.063l-1.334-.516c-1.935-.746-3.939-1.516-5.854-2.372-2.856-1.274-5.731-2.634-8.514-3.951l-2.378-1.126c-3.596-1.696-7.215-1.56-10.75.402-6.058 3.366-11.804 5.843-17.57 7.582-.297.09-.416.055-.586-.062a32.43 32.43 0 0 0-1.168-.746c-.424-.262-.86-.532-1.268-.817-1.422-.993-3.09-1.2-4.586-.563-1.36.578-2.37 1.778-2.671 3.158l-.127.133v13.932l.015.133c.459 2.017 1.9 3.068 2.949 3.686a93.458 93.458 0 0 1 2.825 1.763c.697.445 1.418.906 2.135 1.348.293.18.331.277.316.547-.1 2.052.705 3.791 2.393 5.17 4.174 3.409 8.857 5.949 13.921 7.547 3.407 1.075 6.626 1.61 9.732 1.61 1.83 0 3.619-.187 5.38-.554 6.263-1.317 11.852-4.221 17.093-8.884 1.357-1.207 2.028-2.732 1.993-4.537-.004-.223.023-.293.281-.454 1.36-.844 2.737-1.72 4.063-2.563l1.61-1.024c1.52-.962 2.29-2.373 2.29-4.186V41.143h.004Zm-8.24.73c0-.218.027-.242.162-.324a72.868 72.868 0 0 0 2.586-1.626c.327-.215.624-.32.917-.32.224 0 .443.062.67.191.482.274.698.704.698 1.396-.008 4.107-.008 8.215 0 12.322 0 .801-.277 1.083-.49 1.22a241.842 241.842 0 0 1-3.826 2.462 56.84 56.84 0 0 1-.706.445v-7c0-2.923 0-5.85-.008-8.773l-.003.008Zm-3.195.122c-.012 5.213-.012 10.427-.012 15.637v4.181c0 .813-.285 1.462-.867 1.982-5.566 4.975-11.497 7.777-18.134 8.567-3.256.387-6.64-.008-10.656-1.25-4.976-1.537-9.481-3.96-13.386-7.2-.728-.602-1.067-1.278-1.067-2.126V41.999c.377-.13.755-.255 1.133-.383 1.087-.368 2.208-.743 3.307-1.138 4.366-1.567 8.783-3.611 13.5-6.257 2.718-1.524 5.462-1.587 8.387-.195 4.093 1.946 8.175 3.802 13.043 5.995 1.214.547 2.474 1.012 3.692 1.466l.948.351c.058.024.089.04.1.04 0 .015.008.05.008.109l.004.008Zm-51.68-2.212c.204-.122.431-.184.659-.184.227 0 .478.066.705.195.86.489 1.761 1.06 2.914 1.841a.7.7 0 0 1 .054.246c.011 3.846.011 7.692.011 11.537v3.803l-.663-.418a348.763 348.763 0 0 1-3.827-2.45c-.347-.227-.524-.587-.524-1.067v-2.22c-.008-3.307-.015-6.723.004-10.084 0-.52.243-.957.659-1.203l.008.004Z"/><path d="M67.585 46.548c-11.273 3.995-22.678 3.995-33.901 0l-.54-.191-1.094 3.06.55.195c5.99 2.127 12.018 3.19 18.042 3.19 6.024 0 12.052-1.063 18.03-3.19l.55-.195-1.101-3.056-.54.191.004-.004Zm0 9.392c-11.273 3.993-22.678 3.993-33.901 0l-.54-.192-1.094 3.06.55.195c5.99 2.126 12.018 3.19 18.042 3.19 6.024 0 12.048-1.064 18.026-3.19l.55-.195-1.097-3.056-.54.191.004-.004Z"/></g><defs><clipPath id="a"><path fill="#fff" d="M17.135 29.731h67v46h-67z"/></clipPath></defs></svg>