<svg width="174" height="76" viewBox="0 0 174 76" fill="none" xmlns="http://www.w3.org/2000/svg">
<g clip-path="url(#clip0_4750_1218)">
<path d="M58.3432 69.252V70.134H61.1077V71.3943H58.3432V72.3917H61.3899V73.6521H56.9385V67.998H61.3899V69.2584H58.3432V69.252Z" fill="#2B0F6A"/>
<path d="M66.5053 69.3906V73.6464H65.1134V73.1686C64.8504 73.5213 64.4047 73.7458 63.8691 73.7458C62.9486 73.7458 62.2976 73.0627 62.2976 72.1006V69.3938H63.6382V71.7895C63.6382 72.2578 63.9332 72.5881 64.363 72.5881C64.7927 72.5881 65.1134 72.2674 65.1134 71.8472V69.3938H66.5053V69.3906Z" fill="#2B0F6A"/>
<path d="M70.3634 69.2891V70.45C69.5007 70.45 68.9651 70.9439 68.9651 71.7264V73.6443H67.5732V69.3885H68.9651V70.1614C69.2441 69.6258 69.7476 69.2891 70.3634 69.2891Z" fill="#2B0F6A"/>
<path d="M70.9246 71.5116C70.9246 70.2865 71.9861 69.2891 73.2946 69.2891C74.6031 69.2891 75.6486 70.2865 75.6486 71.5116C75.6486 72.7367 74.5935 73.7437 73.2946 73.7437C71.9957 73.7437 70.9246 72.7399 70.9246 71.5116ZM74.3241 71.5116C74.3241 70.9279 73.8622 70.45 73.2946 70.45C72.7269 70.45 72.2491 70.9279 72.2491 71.5116C72.2491 72.0953 72.7173 72.5827 73.2946 72.5827C73.8719 72.5827 74.3241 72.0985 74.3241 71.5116Z" fill="#2B0F6A"/>
<path d="M81.1776 71.5116C81.1776 72.8201 80.363 73.7437 79.2277 73.7437C78.6504 73.7437 78.1661 73.5064 77.8294 73.0927V75.0586H76.4375V69.3885H77.8294V69.9401C78.1661 69.5296 78.6536 69.2891 79.2277 69.2891C80.363 69.2891 81.1776 70.2127 81.1776 71.5116ZM79.837 71.5116C79.837 70.8958 79.4105 70.45 78.8011 70.45C78.2335 70.45 77.8294 70.8958 77.8294 71.5116C77.8294 72.1273 78.2335 72.5827 78.8011 72.5827C79.4105 72.5827 79.837 72.1369 79.837 71.5116Z" fill="#2B0F6A"/>
<path d="M85.0133 72.3064L85.7862 73.0889C85.4078 73.477 84.683 73.7463 84.0415 73.7463C82.7234 73.7463 81.7292 72.8163 81.7292 71.5078C81.7292 70.1993 82.6914 69.2949 83.9774 69.2949C85.3276 69.2949 86.1518 70.257 86.1518 71.8702H83.0474C83.1532 72.3545 83.4996 72.6848 83.987 72.6848C84.3494 72.6848 84.7375 72.5373 85.0165 72.3064H85.0133ZM83.0634 71.0877H84.8177C84.7182 70.6515 84.4232 70.3533 83.987 70.3533C83.5509 70.3533 83.1981 70.6419 83.0666 71.0877H83.0634Z" fill="#2B0F6A"/>
<path d="M88.9515 72.4992L91.0425 70.9341C91.6775 70.4563 91.8571 70.1452 91.8571 69.7988C91.8571 69.4108 91.5203 69.1638 91.1066 69.1638C90.5807 69.1638 90.1862 69.4204 89.7565 69.8726L88.8745 69.0003C89.4742 68.2755 90.2087 67.8906 91.1387 67.8906C92.4055 67.8906 93.2939 68.6635 93.2939 69.7443C93.2939 70.4916 92.9796 71.0785 91.9918 71.7519L91.1034 72.3869H93.3516V73.6473H88.9483V72.5024L88.9515 72.4992Z" fill="#2B0F6A"/>
<path d="M94.1116 70.8123C94.1116 69.0997 95.1891 67.8906 96.7125 67.8906C98.2359 67.8906 99.3231 69.0997 99.3231 70.8123C99.3231 72.5249 98.2455 73.7435 96.7125 73.7435C95.1795 73.7435 94.1116 72.5345 94.1116 70.8123ZM97.8735 70.8123C97.8735 69.8501 97.3956 69.167 96.7125 69.167C96.0294 69.167 95.5612 69.8501 95.5612 70.8123C95.5612 71.7744 96.039 72.4671 96.7125 72.4671C97.386 72.4671 97.8735 71.7744 97.8735 70.8123Z" fill="#2B0F6A"/>
<path d="M100.038 72.4992L102.129 70.9341C102.764 70.4563 102.944 70.1452 102.944 69.7988C102.944 69.4108 102.607 69.1638 102.194 69.1638C101.668 69.1638 101.273 69.4204 100.843 69.8726L99.9614 69.0003C100.561 68.2755 101.296 67.8906 102.226 67.8906C103.492 67.8906 104.381 68.6635 104.381 69.7443C104.381 70.4916 104.066 71.0785 103.079 71.7519L102.19 72.3869H104.439V73.6473H100.035V72.5024L100.038 72.4992Z" fill="#2B0F6A"/>
<path d="M105.048 72.8051L105.856 71.8751C106.267 72.2856 106.796 72.4908 107.322 72.4908C107.889 72.4908 108.204 72.2503 108.204 71.9232C108.204 71.5704 107.941 71.3876 107.216 71.3876L106.549 71.3972V70.2106H107.216C107.783 70.2202 108.088 70.031 108.088 69.7007C108.088 69.3543 107.751 69.1491 107.242 69.1491C106.732 69.1491 106.327 69.3896 105.959 69.7488L105.17 68.8925C105.654 68.3248 106.347 67.8887 107.392 67.8887C108.726 67.8887 109.531 68.5461 109.531 69.4377C109.531 70.0727 109.111 70.5473 108.476 70.7301C109.111 70.8777 109.653 71.3235 109.653 72.0483C109.653 73.0457 108.765 73.7512 107.399 73.7512C106.353 73.7512 105.555 73.3631 105.054 72.8051H105.048Z" fill="#2B0F6A"/>
<path d="M48.7572 51.3482C49.0747 51.2616 49.4499 51.1751 49.9406 51.0885C50.4377 51.0051 50.938 50.9666 51.4415 50.973C51.8937 50.9538 52.3427 51.0211 52.7692 51.1751C53.0964 51.3001 53.385 51.5086 53.6063 51.7812C53.818 52.0538 53.9655 52.3681 54.0392 52.7048C54.1323 53.0929 54.1804 53.4906 54.1836 53.8882V57.4673H52.4229V54.0903C52.4517 53.6734 52.3716 53.2564 52.192 52.878C51.9835 52.6182 51.6564 52.4867 51.3261 52.5316C51.1914 52.5284 51.0567 52.5381 50.922 52.5605C50.7776 52.5605 50.6622 52.5894 50.5467 52.5894V57.4641H48.7572V51.3482ZM45.4667 54.2635C45.486 53.8081 45.3769 53.3591 45.1492 52.9646C44.7355 52.4386 43.9722 52.3488 43.4463 52.7626C43.3725 52.8203 43.3052 52.8876 43.2442 52.9646C42.9941 53.3495 42.8722 53.8049 42.8979 54.2635C42.8786 54.7317 42.9973 55.1935 43.2442 55.5912C43.6194 56.1172 44.3507 56.239 44.8766 55.8638C44.9825 55.79 45.0755 55.697 45.1492 55.5912C45.3769 55.1871 45.486 54.7285 45.4667 54.2635ZM47.2851 54.2635C47.2948 54.7253 47.2274 55.1807 47.0831 55.6201C46.9452 56.0145 46.7303 56.3769 46.4481 56.688C45.8708 57.3134 45.0466 57.6501 44.1967 57.6117C43.7638 57.6117 43.334 57.5347 42.9267 57.3807C42.5547 57.2204 42.2212 56.9863 41.9454 56.688C41.6631 56.3801 41.4451 56.0177 41.3104 55.6201C41.0025 54.7413 41.0025 53.7856 41.3104 52.9069C41.4515 52.522 41.6663 52.1692 41.9454 51.8678C42.2212 51.5791 42.5547 51.3547 42.9267 51.2039C43.318 51.0404 43.7413 50.9602 44.1679 50.973C44.5912 50.973 45.0145 51.05 45.409 51.2039C45.7746 51.3643 46.1049 51.5888 46.3904 51.8678C46.6662 52.1692 46.8843 52.522 47.0254 52.9069C47.2018 53.3366 47.2916 53.7984 47.2851 54.2635ZM37.5613 57.6117C36.2047 57.6117 35.1656 57.2364 34.4729 56.486C33.7513 55.7355 33.4049 54.6676 33.4049 53.2821C33.3985 52.6535 33.5075 52.0281 33.7224 51.4348C34.1137 50.4086 34.9379 49.6068 35.9738 49.2412C36.519 49.0391 37.0963 48.9429 37.6767 48.9525C37.9974 48.9525 38.3149 48.9782 38.6292 49.0391C38.9179 49.0969 39.1777 49.1546 39.3797 49.2123C39.5657 49.27 39.7485 49.3374 39.9281 49.4144C40.0436 49.4529 40.1494 49.5106 40.2456 49.5875L39.6972 51.0885C39.415 50.9345 39.1135 50.8159 38.8024 50.7421C38.424 50.6459 38.0391 50.5978 37.6479 50.5978C37.3624 50.601 37.0802 50.6491 36.8108 50.7421C36.535 50.8319 36.2881 50.9923 36.0892 51.2039C35.8712 51.4412 35.6948 51.7138 35.5697 52.0121C35.4382 52.4034 35.3676 52.8107 35.3676 53.2244C35.3612 53.5836 35.3997 53.9428 35.4831 54.2923C35.5633 54.6034 35.7012 54.8953 35.8872 55.1582C36.0924 55.402 36.349 55.6008 36.6376 55.7355C36.984 55.883 37.3592 55.9504 37.7345 55.9376C37.975 55.9376 38.2155 55.9151 38.4561 55.8798C38.6517 55.8606 38.8441 55.8221 39.0333 55.7644C39.1809 55.7259 39.3252 55.6778 39.4663 55.6201C39.5753 55.5591 39.6908 55.511 39.8127 55.4757L40.3322 56.9767C39.9858 57.1851 39.6042 57.3294 39.2065 57.4096C38.6709 57.5571 38.1161 57.6277 37.5613 57.6117ZM30.4352 53.6573C30.4352 53.5098 30.4063 53.3623 30.3486 53.2244C30.2973 53.0897 30.2299 52.9646 30.1465 52.8491C30.0503 52.7305 29.9349 52.6343 29.8002 52.5605C29.6366 52.49 29.4602 52.4483 29.2806 52.4451C29.101 52.4354 28.9214 52.4739 28.7611 52.5605C28.6232 52.6118 28.5045 52.7016 28.4147 52.8203C28.3153 52.9422 28.2383 53.0768 28.1838 53.2244C28.1293 53.3751 28.0908 53.529 28.0683 53.6862H30.4352V53.6573ZM26.2531 54.3212C26.2435 53.8177 26.3333 53.3206 26.5129 52.8491C26.6604 52.4547 26.8978 52.0987 27.2056 51.8101C27.4782 51.5375 27.8021 51.3226 28.1581 51.1751C28.5173 51.0371 28.899 50.9698 29.2838 50.973C30.0792 50.9281 30.8553 51.22 31.4197 51.7812C31.9393 52.3296 32.199 53.1378 32.199 54.2057V54.5521C32.199 54.6676 32.1702 54.783 32.1702 54.8696H28.1036C28.1229 55.2256 28.3153 55.5527 28.6232 55.7355C28.9888 55.9568 29.4089 56.0658 29.8354 56.053C30.1561 56.053 30.4736 56.0242 30.7879 55.9664C31.0541 55.9183 31.3171 55.8414 31.5673 55.7355L31.7982 57.1787C31.6763 57.2364 31.5512 57.2845 31.4229 57.323C31.2433 57.3775 31.0605 57.416 30.8745 57.4385C30.6725 57.4673 30.4704 57.4962 30.2395 57.5251C30.0182 57.5475 29.7969 57.5571 29.5757 57.5539C29.0721 57.5668 28.5718 57.4802 28.1036 57.2942C27.7091 57.1466 27.3532 56.9093 27.0645 56.6014C26.7759 56.3128 26.5674 55.9568 26.4584 55.5623C26.3109 55.1647 26.2435 54.7445 26.2563 54.3212M25.0729 54.2923C25.0729 54.7542 24.996 55.2128 24.842 55.6489C24.7009 56.0338 24.486 56.3866 24.207 56.688C23.9152 56.9831 23.5592 57.2108 23.1679 57.3519C22.7221 57.509 22.2539 57.586 21.7825 57.5828C21.5515 57.586 21.3206 57.5764 21.0897 57.5539L20.397 57.4673C20.1725 57.4417 19.9512 57.4032 19.7331 57.3519C19.5311 57.2942 19.329 57.2653 19.1847 57.2076V48.3785L20.9743 48.0898V51.236C21.1795 51.1526 21.3912 51.0853 21.6093 51.0339C21.837 50.9858 22.0679 50.9666 22.302 50.9762C22.7093 50.973 23.1102 51.05 23.4854 51.2071C23.8254 51.3514 24.1236 51.5791 24.3513 51.871C24.5919 52.1789 24.7683 52.5316 24.8709 52.9101C25.0152 53.3559 25.0825 53.8241 25.0729 54.2955M23.2545 54.2378C23.2545 53.0833 22.8216 52.506 21.9845 52.506C21.8017 52.5124 21.6157 52.5316 21.4361 52.5637C21.2886 52.6118 21.1443 52.6696 21.0031 52.7369V55.9985C21.1154 56.0242 21.2341 56.0338 21.3495 56.0274C21.4938 56.0274 21.6381 56.0562 21.7825 56.0562C22.2058 56.0851 22.6163 55.8991 22.8793 55.5655C23.1391 55.1743 23.2705 54.7093 23.2545 54.2378ZM17.4272 57.2396C17.1097 57.3262 16.7345 57.4128 16.2438 57.4994C15.7467 57.5828 15.2464 57.6213 14.7429 57.6149C14.2907 57.6341 13.8417 57.5668 13.4152 57.4128C13.0881 57.2877 12.7994 57.0793 12.5781 56.8067C12.3729 56.5309 12.2254 56.2166 12.1452 55.883C12.049 55.495 12.0009 55.0973 12.0009 54.6996V51.1783H13.7616V54.4687C13.7359 54.8953 13.8161 55.3218 13.9925 55.7099C14.1849 55.9889 14.5216 56.1332 14.8584 56.0851C14.9931 56.0883 15.1278 56.0787 15.2625 56.0562C15.4068 56.0562 15.5222 56.0274 15.6377 56.0274V51.1526H17.4272V57.2396ZM9.17544 57.4417C9.00226 57.1819 8.80021 56.8644 8.5693 56.5469C8.33839 56.2166 8.08824 55.8991 7.81884 55.5944C7.55907 55.2769 7.27043 54.9883 6.9818 54.6708C6.7092 54.395 6.41735 54.1352 6.11589 53.8914V57.4128H4.23975V49.1033H6.11589V52.2494C6.60657 51.7299 7.09725 51.2103 7.58793 50.6331C8.07862 50.0846 8.54044 49.5651 8.97339 49.1033H11.1959C10.6186 49.7671 10.0702 50.431 9.49294 51.0371C8.91567 51.6722 8.30953 52.2783 7.67453 52.9133C8.37688 53.5098 9.0215 54.1641 9.60839 54.876C10.2562 55.6746 10.8527 56.5148 11.3979 57.3872H9.17544V57.4449V57.4417Z" fill="#2B0F6A"/>
<path d="M84.9651 50.6829L83.7528 52.1261C83.2461 51.4879 82.4893 51.0999 81.6747 51.0582C80.395 51.0614 79.3624 52.1037 79.3656 53.3833C79.3656 53.4058 79.3656 53.4314 79.3656 53.4539C79.3014 54.7271 80.2796 55.8111 81.5528 55.8752C81.5913 55.8752 81.633 55.8752 81.6714 55.8752C82.4668 55.8303 83.2108 55.4807 83.7496 54.8938L84.9908 56.1927C84.0896 57.1067 82.8709 57.6455 81.5849 57.6936C79.279 57.777 77.3419 55.9714 77.2585 53.6655C77.2585 53.595 77.2553 53.5244 77.2585 53.4539C77.2585 51.0582 79.1635 49.2686 81.6714 49.2686C82.9062 49.3135 84.0768 49.817 84.9619 50.6829H84.9651ZM85.9753 57.607V48.8645H88.0247V57.607H85.9753ZM96.1322 54.432C96.1322 56.3948 94.7467 57.6936 92.6685 57.6936C90.5903 57.6936 89.176 56.3948 89.176 54.432C89.176 52.4693 90.5615 51.1993 92.6685 51.1993C94.7756 51.1993 96.1322 52.4693 96.1322 54.432ZM91.2285 54.4609C91.2285 55.4422 91.8058 56.1061 92.6429 56.1061C93.4799 56.1061 94.0572 55.4422 94.0572 54.4609C94.0572 53.4795 93.4799 52.8157 92.6429 52.8157C91.8058 52.8157 91.2285 53.4795 91.2285 54.4609ZM103.431 57.607H101.382V56.5679C100.959 57.3056 100.154 57.7417 99.304 57.6936C97.9185 57.6936 97.0237 56.7411 97.0237 55.2691V51.257H99.0731V54.6918C99.0731 55.4422 99.4771 55.9041 100.141 55.9041C100.92 55.9041 101.382 55.2691 101.382 54.4032V51.257H103.431V57.6038V57.607ZM111.452 57.607H109.403V56.77C108.951 57.3633 108.245 57.7032 107.498 57.6936C105.708 57.6936 104.525 56.3659 104.525 54.4032C104.525 52.4404 105.68 51.1704 107.44 51.1704C108.207 51.1384 108.938 51.4847 109.403 52.0941V48.8613H111.452V57.6038V57.607ZM109.403 54.4609C109.403 53.4795 108.826 52.8157 107.989 52.8157C107.152 52.8157 106.574 53.4795 106.574 54.4609C106.574 55.4422 107.152 56.135 107.989 56.135C108.855 56.1061 109.403 55.4422 109.403 54.4609Z" fill="#2B0F6A"/>
<path d="M118.922 57.6096L115.115 52.5328V57.6096H113.152V49.3577H115L118.806 54.4634V49.3577H120.769V57.6096H118.922ZM128.04 53.4532V57.6096H126.048V56.888C125.577 57.462 124.855 57.7731 124.114 57.725C122.758 57.725 121.92 56.888 121.92 55.7334C121.92 54.5211 122.786 53.8284 124.374 53.7996H126.048V53.713C126.048 53.078 125.644 52.7027 124.807 52.7027C124.143 52.7444 123.495 52.9208 122.902 53.2223L122.325 51.8657C123.235 51.4007 124.242 51.1537 125.269 51.1441C127.029 51.173 128.04 52.0389 128.04 53.4532ZM126.048 55.4736V54.8964H124.749C124.143 54.8964 123.825 55.0984 123.825 55.5891C123.825 56.0509 124.143 56.3396 124.72 56.3396C125.307 56.378 125.846 56.0253 126.048 55.4736ZM133.549 57.2921C133.027 57.5743 132.443 57.7218 131.846 57.725C130.605 57.725 129.739 57.0323 129.739 55.7046V52.9048H128.845V51.577H129.739V49.8164H131.76V51.577H133.434V52.9336H131.76V55.4159C131.76 55.9066 131.962 56.1375 132.337 56.1086C132.606 56.0862 132.869 56.0188 133.116 55.9066L133.549 57.2921ZM136.667 49.4443C136.689 50.0248 136.237 50.5155 135.656 50.5412C135.637 50.5412 135.618 50.5412 135.602 50.5412C135.005 50.5347 134.528 50.0441 134.534 49.4443C134.54 48.8574 135.015 48.3828 135.602 48.3764C136.16 48.3475 136.638 48.7741 136.67 49.3353C136.67 49.3706 136.67 49.4091 136.67 49.4443H136.667ZM134.56 57.6096V51.2628H136.58V57.6096H134.56ZM139.752 57.6096L137.356 51.2628H139.463L140.82 55.7623L142.205 51.2628H144.226L141.83 57.6096H139.752ZM150.973 54.983H146.503C146.65 55.6885 147.282 56.1888 148.004 56.1664C148.575 56.1568 149.12 55.9291 149.533 55.5314L150.601 56.5705C149.886 57.3305 148.873 57.741 147.83 57.6961C145.752 57.6961 144.453 56.3973 144.453 54.4634C144.453 52.5295 145.81 51.2018 147.773 51.2018C149.995 51.2018 151.092 52.6739 150.977 54.983H150.973ZM149.011 53.8861C149.068 53.2287 148.578 52.6482 147.92 52.5905C147.869 52.5873 147.821 52.5841 147.77 52.5873C147.048 52.5873 146.586 53.1068 146.442 53.8861H149.011Z" fill="#2B0F6A"/>
<path d="M159.286 50.6839L158.074 52.127C157.567 51.4888 156.81 51.1008 155.995 51.0591C154.716 51.0623 153.683 52.1046 153.686 53.3842C153.686 53.4067 153.686 53.4323 153.686 53.4548C153.622 54.728 154.6 55.812 155.874 55.8761C155.912 55.8761 155.954 55.8761 155.992 55.8761C156.788 55.8312 157.532 55.4816 158.07 54.8947L159.312 56.1936C158.41 57.1076 157.192 57.6464 155.906 57.6945C153.6 57.7779 151.663 55.9723 151.579 53.6664C151.579 53.5959 151.576 53.5253 151.579 53.4548C151.579 51.0591 153.484 49.2695 155.992 49.2695C157.224 49.3208 158.394 49.8244 159.283 50.6839H159.286ZM166.412 54.4361C166.412 56.3989 165.027 57.6977 162.948 57.6977C160.87 57.6977 159.456 56.3989 159.456 54.4361C159.456 52.4734 160.841 51.2034 162.948 51.2034C165.055 51.2034 166.412 52.4734 166.412 54.4361ZM161.537 54.465C161.537 55.4464 162.115 56.1102 162.952 56.1102C163.789 56.1102 164.366 55.4464 164.366 54.465C164.366 53.4836 163.789 52.8198 162.952 52.8198C162.115 52.8198 161.537 53.4836 161.537 54.465ZM174 53.5991V57.6111H171.98V54.1764C172.05 53.5798 171.624 53.0411 171.027 52.9705C170.969 52.9641 170.912 52.9609 170.854 52.9641C170.103 52.9641 169.642 53.4836 169.555 54.263V57.64H167.506V51.2932H169.555V52.3323C170.004 51.5915 170.825 51.1585 171.691 51.2066C173.076 51.1777 174 52.1302 174 53.6023V53.5991Z" fill="#2B0F6A"/>
<path d="M116.959 71.1445H173.33" stroke="#0F387A" stroke-width="0.519768" stroke-miterlimit="10"/>
<path d="M0 71.1445H49.7706" stroke="#0F387A" stroke-width="0.519768" stroke-miterlimit="10"/>
<path d="M66.3542 1.17188H66.6429V59.887H66.3542V1.17188Z" stroke="#B3B2B3" stroke-width="0.270279" stroke-miterlimit="10"/>
<path d="M66.6429 1.17188H66.3542V59.8871H66.6429V1.17188Z" stroke="#B3B2B3" stroke-width="0.270279" stroke-miterlimit="10"/>
<path d="M66.6429 1.17188H66.3542V59.8871H66.6429V1.17188Z" stroke="#B3B2B3" stroke-width="0.270279" stroke-miterlimit="10"/>
<path d="M66.6429 1.17188V59.887H66.3542" stroke="#0F387A" stroke-width="0.519768" stroke-miterlimit="10"/>
<path fill-rule="evenodd" clip-rule="evenodd" d="M23.9664 20.871L22.9177 21.1051C22.9177 20.9608 22.8888 20.8133 22.8888 20.6689C22.8856 19.5625 23.1871 18.4753 23.7612 17.526L25.7976 19.3316C25.8297 19.3669 25.8714 19.3957 25.9131 19.4182C25.788 19.7261 25.7111 20.05 25.679 20.3771C25.6213 20.406 25.5347 20.406 25.4737 20.4348L23.96 20.871H23.9664ZM27.9239 14.7038V17.5549C27.6385 17.6447 27.3755 17.7826 27.1382 17.9622C27.0516 17.9044 26.965 17.8179 26.8752 17.7569L24.8099 16.3009C25.6565 15.4574 26.7437 14.8962 27.9239 14.7006M13.7519 21.2783C14.7396 16.9423 15.5863 13.2766 16.5741 8.94066C17.0103 6.99076 17.3021 6.468 19.0756 5.44815C21.5194 4.021 23.3539 3.00436 25.9708 1.49062C27.6 0.560565 27.9207 0.618293 27.9207 2.62592V12.6929C26.0959 12.9174 24.409 13.7705 23.1486 15.1079L22.2763 14.4953C22.1672 14.4344 22.0935 14.3253 22.071 14.2035C21.9908 13.9277 21.8273 13.6871 21.606 13.5043C21.1955 13.1772 20.5958 13.2414 20.2686 13.6519C19.9415 14.0624 20.0057 14.6589 20.413 14.9892C20.5445 15.1047 20.7048 15.188 20.878 15.2233C20.9934 15.2522 21.1121 15.2522 21.2276 15.2811C21.3206 15.3003 21.4104 15.342 21.4905 15.3965L22.3051 16.1245C21.4104 17.4458 20.9325 19.0077 20.9389 20.6048C20.9389 20.8966 20.9678 21.1853 20.9967 21.4771L19.2231 21.8556C19.0949 21.8524 18.9698 21.862 18.8447 21.8844L18.5817 21.971C17.4176 22.2051 16.2534 22.4649 15.0604 22.7279C13.46 23.1063 13.4023 22.7856 13.7519 21.2719M29.9893 17.5485V14.6974C31.1567 14.909 32.2407 15.4542 33.1034 16.2688L30.8616 17.8692C30.8328 17.898 30.8039 17.9269 30.775 17.9269C30.5313 17.7665 30.2683 17.6383 29.9893 17.5485ZM34.9956 20.8934L32.2022 20.252C32.1733 19.9506 32.0931 19.6555 31.9681 19.3797C31.9969 19.3508 32.0258 19.322 32.0547 19.322L34.12 17.4875C34.7069 18.44 35.018 19.5401 35.0212 20.6593C34.9955 20.7331 34.9859 20.8133 34.9923 20.8934M31.3555 5.49947C32.8693 6.22747 33.9468 6.75023 35.4574 7.47823C37.5516 8.49808 39.649 9.51473 41.7721 10.5057C42.2949 12.7763 42.8208 15.0437 43.3147 17.3143C43.6354 18.6806 43.7797 19.4086 44.1004 20.7491C44.5943 22.8722 44.5366 23.0486 42.3558 22.5547L36.9711 21.3328C36.9968 21.1019 37.0064 20.8678 37 20.6337C37.0128 19.0205 36.5221 17.4458 35.6017 16.1245L36.3586 15.4254C36.4484 15.3484 36.5606 15.2971 36.6793 15.2811C36.9647 15.2586 37.2341 15.1592 37.465 14.9892C37.8755 14.6589 37.9429 14.0624 37.6125 13.6519C37.2822 13.2414 36.6857 13.174 36.2752 13.5043C36.1276 13.6102 36.009 13.7513 35.9256 13.9116C35.8679 14.0271 35.839 14.1169 35.7813 14.2323C35.7492 14.3286 35.6883 14.4087 35.6081 14.4665L34.7358 15.079C33.4722 13.7481 31.7853 12.8918 29.9636 12.6641V6.52573C29.9925 5.09858 30.108 4.9254 31.3619 5.50588M29.4986 23.8375C29.3158 23.8728 29.1298 23.8921 28.947 23.8953C28.7706 23.9017 28.5974 23.8889 28.4242 23.8664L28.3377 24.0396L27.058 26.3968C27.677 26.6052 28.3248 26.7143 28.9791 26.7175C29.6429 26.7143 30.3004 26.6052 30.929 26.3968L29.6493 24.0684C29.5916 23.9979 29.5403 23.9209 29.505 23.8343M31.7756 22.2917L34.569 22.9331C34.1104 24.062 33.3182 25.0274 32.2984 25.6976L31.192 23.0197C31.41 22.7984 31.6057 22.5547 31.7724 22.2917M23.3635 22.9043L26.1568 22.2629C26.3268 22.5387 26.5321 22.7952 26.7694 23.0197L26.6828 23.1929L25.663 25.6944C24.6271 25.0209 23.8253 24.046 23.3635 22.9011M46.2332 27.8175C44.8958 29.4756 44.2832 30.2613 42.9459 31.9194C41.4322 33.8116 40.2103 35.3542 38.6965 37.2431C37.6189 38.6093 36.8332 38.6414 35.0597 38.6414H22.8375C20.5092 38.6414 20.336 38.6414 18.9088 36.8358C17.4817 35.0623 16.3785 33.664 14.9802 31.8905C13.8737 30.4922 13.5819 30.1459 12.4787 28.7476C10.7629 26.5956 10.471 25.8099 13.1489 25.2262L21.4136 23.3629C22.055 25.114 23.2769 26.5924 24.8772 27.5545L24.4988 28.4269C24.4539 28.5391 24.3705 28.6321 24.2647 28.6898C24.0081 28.8245 23.8061 29.0394 23.6842 29.3024C23.4469 29.7738 23.6393 30.3479 24.1107 30.5852C24.5822 30.8226 25.1562 30.6301 25.3936 30.1587C25.3936 30.1555 25.3968 30.1523 25.4 30.1491C25.4801 29.9823 25.5283 29.8059 25.5443 29.6231C25.5475 29.5044 25.5379 29.389 25.5154 29.2735C25.5058 29.1741 25.525 29.0715 25.5732 28.9817L26.0382 28.1382C26.9586 28.4846 27.9336 28.6642 28.9181 28.661C29.9155 28.6674 30.9033 28.4782 31.827 28.1094L32.292 28.9528C32.3561 29.0587 32.3754 29.1837 32.3497 29.3024C32.2984 29.5782 32.3401 29.8636 32.4652 30.117C32.6929 30.5916 33.2637 30.7937 33.7416 30.566C34.2162 30.3383 34.4183 29.7674 34.1906 29.2896C34.1906 29.2864 34.1874 29.2799 34.1842 29.2767C34.1104 29.1068 34.0014 28.956 33.8634 28.8374C33.7737 28.7604 33.6774 28.6931 33.5716 28.6321C33.4818 28.584 33.4209 28.4974 33.3984 28.398L33.02 27.4679C34.6171 26.5154 35.8326 25.0306 36.4548 23.2763L45.5629 25.3417C47.3973 25.8355 47.2787 26.477 46.2332 27.8143" fill="#2B0F6A"/>
<path d="M113.203 27.2804H108.354V38.611H119.656V33.7619H113.203V27.2804ZM137.471 27.3092V33.7619H131.048L130.99 33.7041V38.611H142.32V27.2804H137.442L137.471 27.3092ZM108.354 15.9497H113.232L113.203 15.9209V9.46824H119.627L119.656 9.52597V4.61914H108.354V15.9497ZM130.987 4.61914V9.46824H137.468V15.9497H142.317V4.61914H130.987Z" fill="#2B0F6A"/>
<g opacity="0.65">
<path d="M130.403 15.9478L123.921 9.46629H130.99V4.61719H119.659V9.52402L126.112 15.9478H130.406H130.403ZM124.563 27.2784H120.269L125.64 32.6503L126.75 33.7599H119.653V38.609H130.983V33.7022L127.77 30.4887L124.556 27.2752L124.563 27.2784ZM137.471 15.9478V23.0162L136.362 21.9065L130.99 16.5636V20.8578L134.232 24.0713L137.446 27.2848H142.324V15.9542H137.475L137.471 15.9478ZM119.656 22.3716L113.232 15.9478H108.325V27.2784H113.203V20.21L119.656 26.6626V22.3684V22.3716Z" fill="#2B0F6A"/>
</g>
</g>
<defs>
<clipPath id="clip0_4750_1218">
<rect width="174" height="74.1541" fill="white" transform="translate(0 0.910156)"/>
</clipPath>
</defs>
</svg>
