<svg width="21" height="20" fill="none" viewBox="0 0 21 20" xmlns="http://www.w3.org/2000/svg"><path stroke="#1E0060" stroke-linecap="round" stroke-linejoin="round" stroke-width="1.5" d="M2.067 9.102v7.347c0 .487.232.954.646 1.299.413.345.974.538 1.558.538h13.226c.584 0 1.145-.194 1.558-.538.414-.345.646-.812.646-1.299V9.102H2.067Z"/><path stroke="#1E0060" stroke-linecap="round" stroke-linejoin="round" stroke-width="1.5" d="m2.067 9.101-.97-2.636a1.547 1.547 0 0 1-.087-.714 1.62 1.62 0 0 1 .248-.687c.136-.213.322-.402.546-.556.223-.153.481-.269.759-.339L15.215.955a2.604 2.604 0 0 1 1.679.13c.517.228.904.617 1.077 1.082l.958 2.636L2.067 9.11v-.009Zm2.866-5.519 3.725 3.857m2.072-5.335 3.725 3.857"/></svg>