<svg width="790" height="470" viewBox="0 0 790 470" fill="none" xmlns="http://www.w3.org/2000/svg">
<path d="M-0.000488281 347.148H790" stroke="#B7B7B7" stroke-width="0.5" stroke-miterlimit="10"/>
<path d="M-0.000488281 139.334H790" stroke="#B7B7B7" stroke-width="0.5" stroke-miterlimit="10"/>
<path d="M-0.000488281 0.791016H790" stroke="#B7B7B7" stroke-width="0.5" stroke-miterlimit="10"/>
<path d="M-0.000488281 277.877H790" stroke="#B7B7B7" stroke-width="0.5" stroke-miterlimit="10"/>
<path d="M-0.000488281 208.605H790" stroke="#B7B7B7" stroke-width="0.5" stroke-miterlimit="10"/>
<path d="M-0.000488281 70.0625H790" stroke="#B7B7B7" stroke-width="0.5" stroke-miterlimit="10"/>
<path d="M103.574 449.432V447.752L107.116 445.008C108.264 444.098 108.628 443.468 108.628 442.796C108.628 441.998 107.956 441.522 107.172 441.522C106.234 441.522 105.52 441.998 104.82 442.796L103.504 441.522C104.456 440.318 105.674 439.646 107.228 439.646C109.272 439.646 110.756 440.906 110.756 442.712C110.756 444 110.196 444.994 108.516 446.212L106.766 447.57H110.84V449.432H103.574ZM116.557 449.6C114.023 449.6 112.231 447.542 112.231 444.616C112.231 441.704 114.023 439.646 116.557 439.646C119.091 439.646 120.869 441.704 120.869 444.616C120.869 447.542 119.091 449.6 116.557 449.6ZM116.557 447.724C117.845 447.724 118.755 446.422 118.755 444.616C118.755 442.81 117.845 441.522 116.557 441.522C115.269 441.522 114.359 442.81 114.359 444.616C114.359 446.422 115.269 447.724 116.557 447.724ZM124.325 449.432V442.18L122.687 443.202L121.847 441.746L124.731 439.814H126.383V449.432H124.325ZM128.899 449.432L132.721 441.676H127.961V439.814H135.115V441.368L131.223 449.432H128.899Z" fill="#1E1D40"/>
<path d="M104.526 467.432V457.814H108.936C110.49 457.814 111.582 458.808 111.582 460.208C111.582 461.23 111.078 461.818 110.21 462.322C111.316 462.882 111.96 463.75 111.96 464.8C111.96 466.34 110.77 467.432 109.104 467.432H104.526ZM105.618 461.888H108.656C109.72 461.888 110.476 461.244 110.476 460.348C110.476 459.452 109.72 458.808 108.656 458.808H105.618V461.888ZM105.618 466.438H108.824C110.014 466.438 110.854 465.696 110.854 464.66C110.854 463.624 110.014 462.882 108.824 462.882H105.618V466.438ZM117.114 466.662C117.968 466.662 118.948 466.284 119.396 465.794L120.04 466.48C119.41 467.166 118.136 467.6 117.128 467.6C115.196 467.6 113.46 466.018 113.46 463.792C113.46 461.636 115.084 460.026 117.03 460.026C119.214 460.026 120.46 461.678 120.46 464.212H114.538C114.692 465.626 115.686 466.662 117.114 466.662ZM117.072 460.964C115.784 460.964 114.748 461.874 114.552 463.274H119.424C119.284 461.972 118.514 460.964 117.072 460.964ZM123.274 461.608C123.708 460.642 124.744 460.026 126.074 460.026V460.964C124.436 460.964 123.274 461.972 123.274 463.386V467.432H122.224V460.194H123.274V461.608ZM127.775 467.432V457.646H128.825V467.432H127.775ZM131.793 458.878C131.401 458.878 131.093 458.556 131.093 458.178C131.093 457.814 131.401 457.492 131.793 457.492C132.171 457.492 132.479 457.814 132.479 458.178C132.479 458.556 132.171 458.878 131.793 458.878ZM131.261 467.432V460.194H132.311V467.432H131.261ZM138.177 460.026C139.787 460.026 140.893 461.16 140.893 462.826V467.432H139.843V462.966C139.843 461.776 139.101 460.964 138.037 460.964C136.805 460.964 135.797 461.804 135.797 462.826V467.432H134.747V460.194H135.797V461.342C136.217 460.572 137.141 460.026 138.177 460.026Z" fill="#747474"/>
<path d="M203.074 449.432V447.752L206.616 445.008C207.764 444.098 208.128 443.468 208.128 442.796C208.128 441.998 207.456 441.522 206.672 441.522C205.734 441.522 205.02 441.998 204.32 442.796L203.004 441.522C203.956 440.318 205.174 439.646 206.728 439.646C208.772 439.646 210.256 440.906 210.256 442.712C210.256 444 209.696 444.994 208.016 446.212L206.266 447.57H210.34V449.432H203.074ZM216.057 449.6C213.523 449.6 211.731 447.542 211.731 444.616C211.731 441.704 213.523 439.646 216.057 439.646C218.591 439.646 220.369 441.704 220.369 444.616C220.369 447.542 218.591 449.6 216.057 449.6ZM216.057 447.724C217.345 447.724 218.255 446.422 218.255 444.616C218.255 442.81 217.345 441.522 216.057 441.522C214.769 441.522 213.859 442.81 213.859 444.616C213.859 446.422 214.769 447.724 216.057 447.724ZM223.825 449.432V442.18L222.187 443.202L221.347 441.746L224.231 439.814H225.883V449.432H223.825ZM231.563 449.6C229.435 449.6 227.699 448.592 227.699 446.856C227.699 445.722 228.483 444.882 229.589 444.462C228.637 444.056 227.951 443.356 227.951 442.264C227.951 440.57 229.687 439.646 231.563 439.646C233.481 439.646 235.189 440.612 235.189 442.264C235.189 443.342 234.503 444.042 233.537 444.462C234.671 444.91 235.427 445.75 235.427 446.856C235.427 448.606 233.677 449.6 231.563 449.6ZM231.563 443.748C232.319 443.692 233.131 443.244 233.131 442.53C233.131 441.872 232.487 441.382 231.563 441.382C230.639 441.382 230.009 441.872 230.009 442.53C230.009 443.272 230.807 443.692 231.563 443.748ZM231.563 447.864C232.585 447.864 233.341 447.36 233.341 446.632C233.341 445.876 232.389 445.4 231.563 445.372C230.737 445.4 229.799 445.876 229.799 446.632C229.799 447.36 230.541 447.864 231.563 447.864Z" fill="#1E1D40"/>
<path d="M208.212 467.6C205.552 467.6 203.284 465.318 203.284 462.616C203.284 459.914 205.552 457.646 208.212 457.646C209.542 457.646 210.774 458.206 211.67 459.116L210.928 459.872C210.228 459.13 209.262 458.654 208.212 458.654C206.14 458.654 204.39 460.474 204.39 462.616C204.39 464.772 206.14 466.592 208.212 466.592C209.262 466.592 210.228 466.116 210.928 465.374L211.67 466.13C210.774 467.026 209.542 467.6 208.212 467.6ZM216.519 467.6C214.461 467.6 212.781 465.892 212.781 463.806C212.781 461.72 214.461 460.026 216.519 460.026C218.563 460.026 220.243 461.72 220.243 463.806C220.243 465.892 218.563 467.6 216.519 467.6ZM216.519 466.662C217.961 466.662 219.151 465.374 219.151 463.806C219.151 462.238 217.961 460.964 216.519 460.964C215.063 460.964 213.873 462.238 213.873 463.806C213.873 465.374 215.063 466.662 216.519 466.662ZM225.734 460.026C227.638 460.026 229.066 461.594 229.066 463.806C229.066 466.032 227.638 467.6 225.734 467.6C224.572 467.6 223.648 467.026 223.102 466.074V469.84H222.052V460.194H223.102V461.552C223.648 460.6 224.572 460.026 225.734 460.026ZM225.538 466.662C226.952 466.662 227.96 465.472 227.96 463.806C227.96 462.14 226.952 460.964 225.538 460.964C224.11 460.964 223.102 462.14 223.102 463.806C223.102 465.472 224.11 466.662 225.538 466.662ZM233.991 466.662C234.845 466.662 235.825 466.284 236.273 465.794L236.917 466.48C236.287 467.166 235.013 467.6 234.005 467.6C232.073 467.6 230.337 466.018 230.337 463.792C230.337 461.636 231.961 460.026 233.907 460.026C236.091 460.026 237.337 461.678 237.337 464.212H231.415C231.569 465.626 232.563 466.662 233.991 466.662ZM233.949 460.964C232.661 460.964 231.625 461.874 231.429 463.274H236.301C236.161 461.972 235.391 460.964 233.949 460.964ZM242.531 460.026C244.141 460.026 245.247 461.16 245.247 462.826V467.432H244.197V462.966C244.197 461.776 243.455 460.964 242.391 460.964C241.159 460.964 240.151 461.804 240.151 462.826V467.432H239.101V460.194H240.151V461.342C240.571 460.572 241.495 460.026 242.531 460.026ZM250.939 460.026C252.549 460.026 253.655 461.16 253.655 462.826V467.432H252.605V462.966C252.605 461.776 251.863 460.964 250.799 460.964C249.567 460.964 248.559 461.804 248.559 462.826V467.432H247.509V457.646H248.559V461.342C248.979 460.572 249.903 460.026 250.939 460.026ZM258.507 460.026C260.481 460.026 261.447 461.272 261.447 463.022V467.432H260.397V466.298C259.879 467.152 258.801 467.6 257.849 467.6C256.323 467.6 255.203 466.718 255.203 465.29C255.203 463.848 256.491 462.882 258.045 462.882C258.829 462.882 259.655 463.05 260.397 463.288V463.022C260.397 462.042 260.005 460.922 258.437 460.922C257.709 460.922 256.981 461.244 256.323 461.58L255.903 460.726C256.939 460.208 257.807 460.026 258.507 460.026ZM258.031 466.676C258.983 466.676 260.117 466.186 260.397 465.164V464.058C259.739 463.876 258.997 463.764 258.213 463.764C257.135 463.764 256.225 464.38 256.225 465.248C256.225 466.144 257.009 466.676 258.031 466.676ZM269.044 460.194H270.094V466.662C270.094 468.524 268.624 469.84 266.538 469.84C265.362 469.84 264.27 469.434 263.612 468.874L264.074 468.048C264.634 468.58 265.502 468.902 266.398 468.902C268.064 468.902 269.044 468.076 269.044 466.662V465.486C268.484 466.368 267.56 466.9 266.412 466.9C264.466 466.9 263.08 465.472 263.08 463.456C263.08 461.44 264.466 460.026 266.412 460.026C267.56 460.026 268.484 460.558 269.044 461.44V460.194ZM266.608 465.962C268.036 465.962 269.044 464.926 269.044 463.456C269.044 462 268.036 460.964 266.608 460.964C265.194 460.964 264.186 462 264.186 463.456C264.186 464.926 265.194 465.962 266.608 465.962ZM275.581 466.662C276.435 466.662 277.415 466.284 277.863 465.794L278.507 466.48C277.877 467.166 276.603 467.6 275.595 467.6C273.663 467.6 271.927 466.018 271.927 463.792C271.927 461.636 273.551 460.026 275.497 460.026C277.681 460.026 278.927 461.678 278.927 464.212H273.005C273.159 465.626 274.153 466.662 275.581 466.662ZM275.539 460.964C274.251 460.964 273.215 461.874 273.019 463.274H277.891C277.751 461.972 276.981 460.964 275.539 460.964ZM284.121 460.026C285.731 460.026 286.837 461.16 286.837 462.826V467.432H285.787V462.966C285.787 461.776 285.045 460.964 283.981 460.964C282.749 460.964 281.741 461.804 281.741 462.826V467.432H280.691V460.194H281.741V461.342C282.161 460.572 283.085 460.026 284.121 460.026Z" fill="#747474"/>
<path d="M302.574 449.432V447.752L306.116 445.008C307.264 444.098 307.628 443.468 307.628 442.796C307.628 441.998 306.956 441.522 306.172 441.522C305.234 441.522 304.52 441.998 303.82 442.796L302.504 441.522C303.456 440.318 304.674 439.646 306.228 439.646C308.272 439.646 309.756 440.906 309.756 442.712C309.756 444 309.196 444.994 307.516 446.212L305.766 447.57H309.84V449.432H302.574ZM315.557 449.6C313.023 449.6 311.231 447.542 311.231 444.616C311.231 441.704 313.023 439.646 315.557 439.646C318.091 439.646 319.869 441.704 319.869 444.616C319.869 447.542 318.091 449.6 315.557 449.6ZM315.557 447.724C316.845 447.724 317.755 446.422 317.755 444.616C317.755 442.81 316.845 441.522 315.557 441.522C314.269 441.522 313.359 442.81 313.359 444.616C313.359 446.422 314.269 447.724 315.557 447.724ZM323.325 449.432V442.18L321.687 443.202L320.847 441.746L323.731 439.814H325.383V449.432H323.325ZM330.811 439.646C333.611 439.646 334.899 441.662 334.899 444.462C334.899 447.458 333.149 449.6 330.475 449.6C329.285 449.6 328.319 449.194 327.535 448.564L328.515 446.996C329.103 447.486 329.663 447.78 330.475 447.78C331.735 447.78 332.575 446.73 332.757 445.106C332.169 445.68 331.287 446.03 330.377 446.03C328.599 446.03 327.129 444.882 327.129 442.978C327.129 441.004 328.711 439.646 330.811 439.646ZM330.979 444.35C331.763 444.35 332.407 443.916 332.701 443.23C332.519 442.054 332.001 441.396 330.923 441.396C329.901 441.396 329.257 442.11 329.257 442.88C329.257 443.804 330.041 444.35 330.979 444.35Z" fill="#1E1D40"/>
<path d="M303.526 467.432V457.814H307.936C309.49 457.814 310.582 458.808 310.582 460.208C310.582 461.23 310.078 461.818 309.21 462.322C310.316 462.882 310.96 463.75 310.96 464.8C310.96 466.34 309.77 467.432 308.104 467.432H303.526ZM304.618 461.888H307.656C308.72 461.888 309.476 461.244 309.476 460.348C309.476 459.452 308.72 458.808 307.656 458.808H304.618V461.888ZM304.618 466.438H307.824C309.014 466.438 309.854 465.696 309.854 464.66C309.854 463.624 309.014 462.882 307.824 462.882H304.618V466.438ZM315.652 460.026C317.626 460.026 318.592 461.272 318.592 463.022V467.432H317.542V466.298C317.024 467.152 315.946 467.6 314.994 467.6C313.468 467.6 312.348 466.718 312.348 465.29C312.348 463.848 313.636 462.882 315.19 462.882C315.974 462.882 316.8 463.05 317.542 463.288V463.022C317.542 462.042 317.15 460.922 315.582 460.922C314.854 460.922 314.126 461.244 313.468 461.58L313.048 460.726C314.084 460.208 314.952 460.026 315.652 460.026ZM315.176 466.676C316.128 466.676 317.262 466.186 317.542 465.164V464.058C316.884 463.876 316.142 463.764 315.358 463.764C314.28 463.764 313.37 464.38 313.37 465.248C313.37 466.144 314.154 466.676 315.176 466.676ZM321.905 461.608C322.339 460.642 323.375 460.026 324.705 460.026V460.964C323.067 460.964 321.905 461.972 321.905 463.386V467.432H320.855V460.194H321.905V461.608ZM329.514 467.6C327.484 467.6 325.762 465.864 325.762 463.806C325.762 461.748 327.484 460.026 329.514 460.026C330.494 460.026 331.404 460.432 332.09 461.09L331.362 461.804C330.886 461.286 330.228 460.964 329.514 460.964C328.072 460.964 326.868 462.266 326.868 463.806C326.868 465.36 328.072 466.662 329.514 466.662C330.242 466.662 330.914 466.326 331.404 465.78L332.132 466.494C331.446 467.18 330.522 467.6 329.514 467.6ZM336.717 466.662C337.571 466.662 338.551 466.284 338.999 465.794L339.643 466.48C339.013 467.166 337.739 467.6 336.731 467.6C334.799 467.6 333.063 466.018 333.063 463.792C333.063 461.636 334.687 460.026 336.633 460.026C338.817 460.026 340.063 461.678 340.063 464.212H334.141C334.295 465.626 335.289 466.662 336.717 466.662ZM336.675 460.964C335.387 460.964 334.351 461.874 334.155 463.274H339.027C338.887 461.972 338.117 460.964 336.675 460.964ZM341.827 467.432V457.646H342.877V467.432H341.827ZM348.422 467.6C346.364 467.6 344.684 465.892 344.684 463.806C344.684 461.72 346.364 460.026 348.422 460.026C350.466 460.026 352.146 461.72 352.146 463.806C352.146 465.892 350.466 467.6 348.422 467.6ZM348.422 466.662C349.864 466.662 351.054 465.374 351.054 463.806C351.054 462.238 349.864 460.964 348.422 460.964C346.966 460.964 345.776 462.238 345.776 463.806C345.776 465.374 346.966 466.662 348.422 466.662ZM357.384 460.026C358.994 460.026 360.1 461.16 360.1 462.826V467.432H359.05V462.966C359.05 461.776 358.308 460.964 357.244 460.964C356.012 460.964 355.004 461.804 355.004 462.826V467.432H353.954V460.194H355.004V461.342C355.424 460.572 356.348 460.026 357.384 460.026ZM364.953 460.026C366.927 460.026 367.893 461.272 367.893 463.022V467.432H366.843V466.298C366.325 467.152 365.247 467.6 364.295 467.6C362.769 467.6 361.649 466.718 361.649 465.29C361.649 463.848 362.937 462.882 364.491 462.882C365.275 462.882 366.101 463.05 366.843 463.288V463.022C366.843 462.042 366.451 460.922 364.883 460.922C364.155 460.922 363.427 461.244 362.769 461.58L362.349 460.726C363.385 460.208 364.253 460.026 364.953 460.026ZM364.477 466.676C365.429 466.676 366.563 466.186 366.843 465.164V464.058C366.185 463.876 365.443 463.764 364.659 463.764C363.581 463.764 362.671 464.38 362.671 465.248C362.671 466.144 363.455 466.676 364.477 466.676Z" fill="#747474"/>
<path d="M402.074 449.432V447.752L405.616 445.008C406.764 444.098 407.128 443.468 407.128 442.796C407.128 441.998 406.456 441.522 405.672 441.522C404.734 441.522 404.02 441.998 403.32 442.796L402.004 441.522C402.956 440.318 404.174 439.646 405.728 439.646C407.772 439.646 409.256 440.906 409.256 442.712C409.256 444 408.696 444.994 407.016 446.212L405.266 447.57H409.34V449.432H402.074ZM415.057 449.6C412.523 449.6 410.731 447.542 410.731 444.616C410.731 441.704 412.523 439.646 415.057 439.646C417.591 439.646 419.369 441.704 419.369 444.616C419.369 447.542 417.591 449.6 415.057 449.6ZM415.057 447.724C416.345 447.724 417.255 446.422 417.255 444.616C417.255 442.81 416.345 441.522 415.057 441.522C413.769 441.522 412.859 442.81 412.859 444.616C412.859 446.422 413.769 447.724 415.057 447.724ZM420.613 449.432V447.752L424.155 445.008C425.303 444.098 425.667 443.468 425.667 442.796C425.667 441.998 424.995 441.522 424.211 441.522C423.273 441.522 422.559 441.998 421.859 442.796L420.543 441.522C421.495 440.318 422.713 439.646 424.267 439.646C426.311 439.646 427.795 440.906 427.795 442.712C427.795 444 427.235 444.994 425.555 446.212L423.805 447.57H427.879V449.432H420.613ZM433.596 449.6C431.062 449.6 429.27 447.542 429.27 444.616C429.27 441.704 431.062 439.646 433.596 439.646C436.13 439.646 437.908 441.704 437.908 444.616C437.908 447.542 436.13 449.6 433.596 449.6ZM433.596 447.724C434.884 447.724 435.794 446.422 435.794 444.616C435.794 442.81 434.884 441.522 433.596 441.522C432.308 441.522 431.398 442.81 431.398 444.616C431.398 446.422 432.308 447.724 433.596 447.724Z" fill="#1E1D40"/>
<path d="M410.334 457.814H411.524L407.282 467.432H406.092L401.85 457.814H403.04L406.694 466.088L410.334 457.814ZM413.627 458.878C413.235 458.878 412.927 458.556 412.927 458.178C412.927 457.814 413.235 457.492 413.627 457.492C414.005 457.492 414.313 457.814 414.313 458.178C414.313 458.556 414.005 458.878 413.627 458.878ZM413.095 467.432V460.194H414.145V467.432H413.095ZM417.631 461.608C418.065 460.642 419.101 460.026 420.431 460.026V460.964C418.793 460.964 417.631 461.972 417.631 463.386V467.432H416.581V460.194H417.631V461.608ZM424.932 466.368L425.45 467.138C425.072 467.432 424.596 467.6 424.106 467.6C423.07 467.6 422.342 466.83 422.342 465.752V461.132H421.208V460.194H422.342V458.206H423.392V460.194H425.17V461.132H423.392V465.752C423.392 466.284 423.756 466.662 424.176 466.662C424.498 466.662 424.778 466.536 424.932 466.368ZM431.886 460.194H432.936V467.432H431.886V466.284C431.466 467.054 430.542 467.6 429.506 467.6C427.896 467.6 426.79 466.466 426.79 464.8V460.194H427.84V464.66C427.84 465.85 428.582 466.662 429.646 466.662C430.878 466.662 431.886 465.822 431.886 464.8V460.194ZM437.956 460.026C439.93 460.026 440.896 461.272 440.896 463.022V467.432H439.846V466.298C439.328 467.152 438.25 467.6 437.298 467.6C435.772 467.6 434.652 466.718 434.652 465.29C434.652 463.848 435.94 462.882 437.494 462.882C438.278 462.882 439.104 463.05 439.846 463.288V463.022C439.846 462.042 439.454 460.922 437.886 460.922C437.158 460.922 436.43 461.244 435.772 461.58L435.352 460.726C436.388 460.208 437.256 460.026 437.956 460.026ZM437.48 466.676C438.432 466.676 439.566 466.186 439.846 465.164V464.058C439.188 463.876 438.446 463.764 437.662 463.764C436.584 463.764 435.674 464.38 435.674 465.248C435.674 466.144 436.458 466.676 437.48 466.676ZM443.159 467.432V457.646H444.209V467.432H443.159Z" fill="#747474"/>
<path d="M501.574 449.432V447.752L505.116 445.008C506.264 444.098 506.628 443.468 506.628 442.796C506.628 441.998 505.956 441.522 505.172 441.522C504.234 441.522 503.52 441.998 502.82 442.796L501.504 441.522C502.456 440.318 503.674 439.646 505.228 439.646C507.272 439.646 508.756 440.906 508.756 442.712C508.756 444 508.196 444.994 506.516 446.212L504.766 447.57H508.84V449.432H501.574ZM514.557 449.6C512.023 449.6 510.231 447.542 510.231 444.616C510.231 441.704 512.023 439.646 514.557 439.646C517.091 439.646 518.869 441.704 518.869 444.616C518.869 447.542 517.091 449.6 514.557 449.6ZM514.557 447.724C515.845 447.724 516.755 446.422 516.755 444.616C516.755 442.81 515.845 441.522 514.557 441.522C513.269 441.522 512.359 442.81 512.359 444.616C512.359 446.422 513.269 447.724 514.557 447.724ZM520.113 449.432V447.752L523.655 445.008C524.803 444.098 525.167 443.468 525.167 442.796C525.167 441.998 524.495 441.522 523.711 441.522C522.773 441.522 522.059 441.998 521.359 442.796L520.043 441.522C520.995 440.318 522.213 439.646 523.767 439.646C525.811 439.646 527.295 440.906 527.295 442.712C527.295 444 526.735 444.994 525.055 446.212L523.305 447.57H527.379V449.432H520.113ZM530.884 449.432V442.18L529.246 443.202L528.406 441.746L531.29 439.814H532.942V449.432H530.884Z" fill="#1E1D40"/>
<path d="M509.834 457.814H511.024L506.782 467.432H505.592L501.35 457.814H502.54L506.194 466.088L509.834 457.814ZM513.127 458.878C512.735 458.878 512.427 458.556 512.427 458.178C512.427 457.814 512.735 457.492 513.127 457.492C513.505 457.492 513.813 457.814 513.813 458.178C513.813 458.556 513.505 458.878 513.127 458.878ZM512.595 467.432V460.194H513.645V467.432H512.595ZM517.131 461.608C517.565 460.642 518.601 460.026 519.931 460.026V460.964C518.293 460.964 517.131 461.972 517.131 463.386V467.432H516.081V460.194H517.131V461.608ZM524.432 466.368L524.95 467.138C524.572 467.432 524.096 467.6 523.606 467.6C522.57 467.6 521.842 466.83 521.842 465.752V461.132H520.708V460.194H521.842V458.206H522.892V460.194H524.67V461.132H522.892V465.752C522.892 466.284 523.256 466.662 523.676 466.662C523.998 466.662 524.278 466.536 524.432 466.368ZM531.386 460.194H532.436V467.432H531.386V466.284C530.966 467.054 530.042 467.6 529.006 467.6C527.396 467.6 526.29 466.466 526.29 464.8V460.194H527.34V464.66C527.34 465.85 528.082 466.662 529.146 466.662C530.378 466.662 531.386 465.822 531.386 464.8V460.194ZM537.456 460.026C539.43 460.026 540.396 461.272 540.396 463.022V467.432H539.346V466.298C538.828 467.152 537.75 467.6 536.798 467.6C535.272 467.6 534.152 466.718 534.152 465.29C534.152 463.848 535.44 462.882 536.994 462.882C537.778 462.882 538.604 463.05 539.346 463.288V463.022C539.346 462.042 538.954 460.922 537.386 460.922C536.658 460.922 535.93 461.244 535.272 461.58L534.852 460.726C535.888 460.208 536.756 460.026 537.456 460.026ZM536.98 466.676C537.932 466.676 539.066 466.186 539.346 465.164V464.058C538.688 463.876 537.946 463.764 537.162 463.764C536.084 463.764 535.174 464.38 535.174 465.248C535.174 466.144 535.958 466.676 536.98 466.676ZM542.659 467.432V457.646H543.709V467.432H542.659Z" fill="#747474"/>
<path d="M600.355 449.432V447.752L603.897 445.008C605.045 444.098 605.409 443.468 605.409 442.796C605.409 441.998 604.737 441.522 603.953 441.522C603.015 441.522 602.301 441.998 601.601 442.796L600.285 441.522C601.237 440.318 602.455 439.646 604.009 439.646C606.053 439.646 607.537 440.906 607.537 442.712C607.537 444 606.977 444.994 605.297 446.212L603.547 447.57H607.621V449.432H600.355ZM613.337 449.6C610.803 449.6 609.011 447.542 609.011 444.616C609.011 441.704 610.803 439.646 613.337 439.646C615.871 439.646 617.649 441.704 617.649 444.616C617.649 447.542 615.871 449.6 613.337 449.6ZM613.337 447.724C614.625 447.724 615.535 446.422 615.535 444.616C615.535 442.81 614.625 441.522 613.337 441.522C612.049 441.522 611.139 442.81 611.139 444.616C611.139 446.422 612.049 447.724 613.337 447.724ZM618.894 449.432V447.752L622.436 445.008C623.584 444.098 623.948 443.468 623.948 442.796C623.948 441.998 623.276 441.522 622.492 441.522C621.554 441.522 620.84 441.998 620.14 442.796L618.824 441.522C619.776 440.318 620.994 439.646 622.548 439.646C624.592 439.646 626.076 440.906 626.076 442.712C626.076 444 625.516 444.994 623.836 446.212L622.086 447.57H626.16V449.432H618.894ZM627.452 449.432V447.752L630.994 445.008C632.142 444.098 632.506 443.468 632.506 442.796C632.506 441.998 631.834 441.522 631.05 441.522C630.112 441.522 629.398 441.998 628.698 442.796L627.382 441.522C628.334 440.318 629.552 439.646 631.106 439.646C633.15 439.646 634.634 440.906 634.634 442.712C634.634 444 634.074 444.994 632.394 446.212L630.644 447.57H634.718V449.432H627.452Z" fill="#1E1D40"/>
<path d="M608.615 457.814H609.805L605.563 467.432H604.373L600.131 457.814H601.321L604.975 466.088L608.615 457.814ZM613.966 460.026C615.94 460.026 616.906 461.272 616.906 463.022V467.432H615.856V466.298C615.338 467.152 614.26 467.6 613.308 467.6C611.782 467.6 610.662 466.718 610.662 465.29C610.662 463.848 611.95 462.882 613.504 462.882C614.288 462.882 615.114 463.05 615.856 463.288V463.022C615.856 462.042 615.464 460.922 613.896 460.922C613.168 460.922 612.44 461.244 611.782 461.58L611.362 460.726C612.398 460.208 613.266 460.026 613.966 460.026ZM613.49 466.676C614.442 466.676 615.576 466.186 615.856 465.164V464.058C615.198 463.876 614.456 463.764 613.672 463.764C612.594 463.764 611.684 464.38 611.684 465.248C611.684 466.144 612.468 466.676 613.49 466.676ZM619.169 467.432V457.646H620.219V467.432H619.169ZM625.707 466.662C626.561 466.662 627.541 466.284 627.989 465.794L628.633 466.48C628.003 467.166 626.729 467.6 625.721 467.6C623.789 467.6 622.053 466.018 622.053 463.792C622.053 461.636 623.677 460.026 625.623 460.026C627.807 460.026 629.053 461.678 629.053 464.212H623.131C623.285 465.626 624.279 466.662 625.707 466.662ZM625.665 460.964C624.377 460.964 623.341 461.874 623.145 463.274H628.017C627.877 461.972 627.107 460.964 625.665 460.964ZM634.247 460.026C635.857 460.026 636.963 461.16 636.963 462.826V467.432H635.913V462.966C635.913 461.776 635.171 460.964 634.107 460.964C632.875 460.964 631.867 461.804 631.867 462.826V467.432H630.817V460.194H631.867V461.342C632.287 460.572 633.211 460.026 634.247 460.026ZM642.333 467.6C640.303 467.6 638.581 465.864 638.581 463.806C638.581 461.748 640.303 460.026 642.333 460.026C643.313 460.026 644.223 460.432 644.909 461.09L644.181 461.804C643.705 461.286 643.047 460.964 642.333 460.964C640.891 460.964 639.687 462.266 639.687 463.806C639.687 465.36 640.891 466.662 642.333 466.662C643.061 466.662 643.733 466.326 644.223 465.78L644.951 466.494C644.265 467.18 643.341 467.6 642.333 467.6ZM647.017 458.878C646.625 458.878 646.317 458.556 646.317 458.178C646.317 457.814 646.625 457.492 647.017 457.492C647.395 457.492 647.703 457.814 647.703 458.178C647.703 458.556 647.395 458.878 647.017 458.878ZM646.485 467.432V460.194H647.535V467.432H646.485ZM652.561 460.026C654.535 460.026 655.501 461.272 655.501 463.022V467.432H654.451V466.298C653.933 467.152 652.855 467.6 651.903 467.6C650.377 467.6 649.257 466.718 649.257 465.29C649.257 463.848 650.545 462.882 652.099 462.882C652.883 462.882 653.709 463.05 654.451 463.288V463.022C654.451 462.042 654.059 460.922 652.491 460.922C651.763 460.922 651.035 461.244 650.377 461.58L649.957 460.726C650.993 460.208 651.861 460.026 652.561 460.026ZM652.085 466.676C653.037 466.676 654.171 466.186 654.451 465.164V464.058C653.793 463.876 653.051 463.764 652.267 463.764C651.189 463.764 650.279 464.38 650.279 465.248C650.279 466.144 651.063 466.676 652.085 466.676Z" fill="#747474"/>
<path d="M700.574 449.432V447.752L704.116 445.008C705.264 444.098 705.628 443.468 705.628 442.796C705.628 441.998 704.956 441.522 704.172 441.522C703.234 441.522 702.52 441.998 701.82 442.796L700.504 441.522C701.456 440.318 702.674 439.646 704.228 439.646C706.272 439.646 707.756 440.906 707.756 442.712C707.756 444 707.196 444.994 705.516 446.212L703.766 447.57H707.84V449.432H700.574ZM713.557 449.6C711.023 449.6 709.231 447.542 709.231 444.616C709.231 441.704 711.023 439.646 713.557 439.646C716.091 439.646 717.869 441.704 717.869 444.616C717.869 447.542 716.091 449.6 713.557 449.6ZM713.557 447.724C714.845 447.724 715.755 446.422 715.755 444.616C715.755 442.81 714.845 441.522 713.557 441.522C712.269 441.522 711.359 442.81 711.359 444.616C711.359 446.422 712.269 447.724 713.557 447.724ZM719.113 449.432V447.752L722.655 445.008C723.803 444.098 724.167 443.468 724.167 442.796C724.167 441.998 723.495 441.522 722.711 441.522C721.773 441.522 721.059 441.998 720.359 442.796L719.043 441.522C719.995 440.318 721.213 439.646 722.767 439.646C724.811 439.646 726.295 440.906 726.295 442.712C726.295 444 725.735 444.994 724.055 446.212L722.305 447.57H726.379V449.432H719.113ZM731.34 449.614C729.618 449.614 728.288 448.928 727.476 447.99L728.694 446.618C729.38 447.346 730.29 447.752 731.256 447.752C732.306 447.752 732.936 447.262 732.936 446.576C732.936 445.834 732.348 445.456 731.06 445.47H729.954V443.706L731.06 443.72C732.11 443.72 732.74 443.328 732.74 442.642C732.74 441.942 732.068 441.494 731.116 441.494C730.22 441.494 729.506 441.942 728.862 442.614L727.672 441.354C728.47 440.388 729.618 439.646 731.326 439.646C733.482 439.646 734.84 440.752 734.84 442.278C734.84 443.384 734.098 444.182 733.034 444.49C734.084 444.728 735.05 445.47 735.05 446.744C735.05 448.41 733.594 449.614 731.34 449.614Z" fill="#1E1D40"/>
<path d="M708.834 467.432L707.868 465.248H702.506L701.54 467.432H700.35L704.592 457.814H705.782L710.024 467.432H708.834ZM702.954 464.212H707.42L705.194 459.158L702.954 464.212ZM719.421 460.026C720.933 460.026 721.997 461.188 721.997 462.826V467.432H720.947V462.966C720.947 461.79 720.261 460.964 719.281 460.964C718.133 460.964 717.321 461.734 717.321 462.826V467.432H716.271V462.966C716.271 461.79 715.585 460.964 714.605 460.964C713.457 460.964 712.645 461.734 712.645 462.826V467.432H711.595V460.194H712.645V461.258C713.009 460.502 713.793 460.026 714.745 460.026C715.893 460.026 716.789 460.698 717.153 461.748C717.377 460.726 718.273 460.026 719.421 460.026ZM726.509 467.6C725.501 467.6 724.381 467.222 723.513 466.522L724.059 465.752C724.885 466.354 725.711 466.662 726.509 466.662C727.461 466.662 728.105 466.214 728.105 465.528C728.105 464.744 727.265 464.492 726.285 464.212C724.535 463.708 723.863 463.19 723.863 462.154C723.863 460.838 724.955 460.026 726.397 460.026C727.293 460.026 728.217 460.334 728.987 460.838L728.483 461.65C727.755 461.188 727.041 460.964 726.397 460.964C725.585 460.964 724.913 461.328 724.913 462.028C724.913 462.658 725.445 462.854 726.789 463.288C727.951 463.652 729.155 464.044 729.155 465.416C729.155 466.746 728.007 467.6 726.509 467.6ZM733.754 466.368L734.272 467.138C733.894 467.432 733.418 467.6 732.928 467.6C731.892 467.6 731.164 466.83 731.164 465.752V461.132H730.03V460.194H731.164V458.206H732.214V460.194H733.992V461.132H732.214V465.752C732.214 466.284 732.578 466.662 732.998 466.662C733.32 466.662 733.6 466.536 733.754 466.368ZM738.833 466.662C739.687 466.662 740.667 466.284 741.115 465.794L741.758 466.48C741.129 467.166 739.855 467.6 738.847 467.6C736.915 467.6 735.179 466.018 735.179 463.792C735.179 461.636 736.803 460.026 738.749 460.026C740.933 460.026 742.179 461.678 742.179 464.212H736.257C736.41 465.626 737.405 466.662 738.833 466.662ZM738.791 460.964C737.503 460.964 736.467 461.874 736.271 463.274H741.143C741.003 461.972 740.233 460.964 738.791 460.964ZM744.993 461.608C745.427 460.642 746.463 460.026 747.793 460.026V460.964C746.155 460.964 744.993 461.972 744.993 463.386V467.432H743.943V460.194H744.993V461.608ZM754.897 457.646H755.947V467.432H754.897V466.074C754.351 467.026 753.427 467.6 752.265 467.6C750.361 467.6 748.933 466.032 748.933 463.806C748.933 461.594 750.361 460.026 752.265 460.026C753.427 460.026 754.351 460.6 754.897 461.552V457.646ZM752.461 466.662C753.889 466.662 754.897 465.472 754.897 463.806C754.897 462.14 753.889 460.964 752.461 460.964C751.047 460.964 750.039 462.14 750.039 463.806C750.039 465.472 751.047 466.662 752.461 466.662ZM760.97 460.026C762.944 460.026 763.91 461.272 763.91 463.022V467.432H762.86V466.298C762.342 467.152 761.264 467.6 760.312 467.6C758.786 467.6 757.666 466.718 757.666 465.29C757.666 463.848 758.954 462.882 760.508 462.882C761.292 462.882 762.118 463.05 762.86 463.288V463.022C762.86 462.042 762.468 460.922 760.9 460.922C760.172 460.922 759.444 461.244 758.786 461.58L758.366 460.726C759.402 460.208 760.27 460.026 760.97 460.026ZM760.494 466.676C761.446 466.676 762.58 466.186 762.86 465.164V464.058C762.202 463.876 761.46 463.764 760.676 463.764C759.598 463.764 758.688 464.38 758.688 465.248C758.688 466.144 759.472 466.676 760.494 466.676ZM773.999 460.026C775.511 460.026 776.575 461.188 776.575 462.826V467.432H775.525V462.966C775.525 461.79 774.839 460.964 773.859 460.964C772.711 460.964 771.899 461.734 771.899 462.826V467.432H770.849V462.966C770.849 461.79 770.163 460.964 769.183 460.964C768.035 460.964 767.223 461.734 767.223 462.826V467.432H766.173V460.194H767.223V461.258C767.587 460.502 768.371 460.026 769.323 460.026C770.471 460.026 771.367 460.698 771.731 461.748C771.955 460.726 772.851 460.026 773.999 460.026Z" fill="#747474"/>
<rect x="103" y="396.012" width="40" height="21.2853" fill="#002C95"/>
<rect x="302" y="309.83" width="40" height="106.773" fill="#002C95"/>
<rect x="401.5" y="157.83" width="40" height="259.057" fill="#0098CC"/>
<rect x="501" y="46.8301" width="40" height="369.519" fill="#0098CC"/>
<rect x="202.5" y="356.83" width="40" height="59.6267" fill="#002C95"/>
<rect x="640" y="417.057" width="40" height="257.227" transform="rotate(-180 640 417.057)" fill="#0098CC"/>
<rect x="740" y="416.715" width="40" height="223.142" transform="rotate(-180 740 416.715)" fill="#002C95"/>
<rect x="640" y="416.887" width="40" height="98.2315" transform="rotate(-180 640 416.887)" fill="#002C95"/>
<path d="M740 271.516L700 271.516L700 193.466L740 193.466L740 271.516Z" fill="#0098CC"/>
<path d="M114.464 386.83V382.294L113.512 382.902L113.176 382.318L114.624 381.334H115.272V386.83H114.464ZM117.199 387.926L116.863 387.67C117.087 387.43 117.239 387.174 117.303 386.926C117.015 386.926 116.783 386.686 116.783 386.39C116.783 386.11 117.007 385.862 117.311 385.862C117.663 385.862 117.895 386.182 117.895 386.622C117.895 386.998 117.711 387.342 117.199 387.926ZM121.002 386.926C120.13 386.926 119.466 386.574 119.002 386.062L119.506 385.486C119.922 385.926 120.434 386.214 121.018 386.214C121.73 386.214 122.218 385.734 122.218 385.118C122.218 384.486 121.722 384.062 121.01 384.062C120.554 384.062 120.17 384.214 119.842 384.462L119.274 384.206L119.354 381.334H122.73V382.086H120.122L120.074 383.718C120.362 383.526 120.73 383.366 121.21 383.366C122.202 383.366 123.026 383.99 123.026 385.086C123.026 386.198 122.186 386.926 121.002 386.926ZM125.726 386.926C124.79 386.926 124.078 386.518 123.654 385.99L124.174 385.454C124.542 385.902 125.078 386.198 125.71 386.198C126.422 386.198 126.878 385.822 126.878 385.27C126.878 384.702 126.398 384.406 125.582 384.414H124.982V383.694L125.582 383.702C126.278 383.702 126.766 383.398 126.766 382.846C126.766 382.334 126.286 381.966 125.646 381.966C125.07 381.966 124.646 382.254 124.262 382.702L123.758 382.206C124.182 381.654 124.806 381.238 125.702 381.238C126.814 381.238 127.582 381.854 127.582 382.734C127.582 383.414 127.11 383.838 126.534 384.014C127.102 384.142 127.702 384.558 127.702 385.326C127.702 386.254 126.918 386.926 125.726 386.926ZM130.572 386.926C129.7 386.926 129.036 386.574 128.572 386.062L129.076 385.486C129.492 385.926 130.004 386.214 130.588 386.214C131.3 386.214 131.788 385.734 131.788 385.118C131.788 384.486 131.292 384.062 130.58 384.062C130.124 384.062 129.74 384.214 129.412 384.462L128.844 384.206L128.924 381.334H132.3V382.086H129.692L129.644 383.718C129.932 383.526 130.3 383.366 130.78 383.366C131.772 383.366 132.596 383.99 132.596 385.086C132.596 386.198 131.756 386.926 130.572 386.926Z" fill="#1E1D40"/>
<path d="M213.372 348.586V347.322H210.644L210.556 346.674L213.22 343.09H214.18V346.61H214.972V347.322H214.18V348.586H213.372ZM211.444 346.61H213.372V344.01L211.444 346.61ZM216.343 349.682L216.007 349.426C216.231 349.186 216.383 348.93 216.447 348.682C216.159 348.682 215.927 348.442 215.927 348.146C215.927 347.866 216.151 347.618 216.455 347.618C216.807 347.618 217.039 347.938 217.039 348.378C217.039 348.754 216.855 349.098 216.343 349.682ZM220.05 348.682C219.114 348.682 218.402 348.274 217.978 347.746L218.498 347.21C218.866 347.658 219.402 347.954 220.034 347.954C220.746 347.954 221.202 347.578 221.202 347.026C221.202 346.458 220.722 346.162 219.906 346.17H219.306V345.45L219.906 345.458C220.602 345.458 221.09 345.154 221.09 344.602C221.09 344.09 220.61 343.722 219.97 343.722C219.394 343.722 218.97 344.01 218.586 344.458L218.082 343.962C218.506 343.41 219.13 342.994 220.026 342.994C221.138 342.994 221.906 343.61 221.906 344.49C221.906 345.17 221.434 345.594 220.858 345.77C221.426 345.898 222.026 346.314 222.026 347.082C222.026 348.01 221.242 348.682 220.05 348.682ZM225.296 348.682C223.912 348.682 222.944 347.506 222.944 345.834C222.944 344.17 223.912 342.994 225.296 342.994C226.664 342.994 227.632 344.17 227.632 345.834C227.632 347.506 226.664 348.682 225.296 348.682ZM225.296 347.938C226.184 347.938 226.808 347.066 226.808 345.834C226.808 344.602 226.184 343.738 225.296 343.738C224.4 343.738 223.768 344.602 223.768 345.834C223.768 347.066 224.4 347.938 225.296 347.938ZM230.882 348.682C229.498 348.682 228.53 347.506 228.53 345.834C228.53 344.17 229.498 342.994 230.882 342.994C232.25 342.994 233.218 344.17 233.218 345.834C233.218 347.506 232.25 348.682 230.882 348.682ZM230.882 347.938C231.77 347.938 232.394 347.066 232.394 345.834C232.394 344.602 231.77 343.738 230.882 343.738C229.986 343.738 229.354 344.602 229.354 345.834C229.354 347.066 229.986 347.938 230.882 347.938Z" fill="#1E1D40"/>
<path d="M312.159 296.83L314.455 292.086H311.559V291.334H315.407V291.942L313.087 296.83H312.159ZM316.785 297.926L316.449 297.67C316.673 297.43 316.825 297.174 316.889 296.926C316.601 296.926 316.369 296.686 316.369 296.39C316.369 296.11 316.593 295.862 316.897 295.862C317.249 295.862 317.481 296.182 317.481 296.622C317.481 296.998 317.297 297.342 316.785 297.926ZM318.98 296.83L321.276 292.086H318.38V291.334H322.227V291.942L319.908 296.83H318.98ZM325.261 296.926C323.877 296.926 322.909 295.75 322.909 294.078C322.909 292.414 323.877 291.238 325.261 291.238C326.629 291.238 327.597 292.414 327.597 294.078C327.597 295.75 326.629 296.926 325.261 296.926ZM325.261 296.182C326.149 296.182 326.773 295.31 326.773 294.078C326.773 292.846 326.149 291.982 325.261 291.982C324.365 291.982 323.733 292.846 323.733 294.078C323.733 295.31 324.365 296.182 325.261 296.182ZM330.847 296.926C329.463 296.926 328.495 295.75 328.495 294.078C328.495 292.414 329.463 291.238 330.847 291.238C332.215 291.238 333.183 292.414 333.183 294.078C333.183 295.75 332.215 296.926 330.847 296.926ZM330.847 296.182C331.735 296.182 332.359 295.31 332.359 294.078C332.359 292.846 331.735 291.982 330.847 291.982C329.951 291.982 329.319 292.846 329.319 294.078C329.319 295.31 329.951 296.182 330.847 296.182Z" fill="#1E1D40"/>
<path d="M408.425 148.83V144.294L407.473 144.902L407.137 144.318L408.585 143.334H409.233V148.83H408.425ZM412.528 148.926C411.368 148.926 410.456 148.326 410.456 147.382C410.456 146.702 410.968 146.214 411.624 145.99C411.024 145.75 410.6 145.334 410.6 144.71C410.6 143.774 411.536 143.238 412.528 143.238C413.552 143.238 414.464 143.798 414.464 144.71C414.464 145.366 414 145.774 413.44 145.99C414.096 146.222 414.6 146.71 414.6 147.382C414.6 148.334 413.68 148.926 412.528 148.926ZM412.528 145.686C413.032 145.654 413.656 145.35 413.656 144.798C413.656 144.31 413.16 143.95 412.528 143.95C411.896 143.95 411.408 144.31 411.408 144.798C411.408 145.366 412.04 145.654 412.528 145.686ZM412.528 148.214C413.232 148.214 413.784 147.846 413.784 147.31C413.784 146.726 413.072 146.374 412.528 146.358C411.992 146.374 411.272 146.726 411.272 147.31C411.272 147.846 411.824 148.214 412.528 148.214ZM416.191 149.926L415.855 149.67C416.079 149.43 416.231 149.174 416.295 148.926C416.007 148.926 415.775 148.686 415.775 148.39C415.775 148.11 415.999 147.862 416.303 147.862C416.655 147.862 416.887 148.182 416.887 148.622C416.887 148.998 416.703 149.342 416.191 149.926ZM420.378 145.358C421.386 145.358 422.226 145.99 422.226 147.078C422.226 148.134 421.394 148.926 420.234 148.926C418.706 148.926 418.066 147.734 418.066 146.166C418.066 144.502 419.05 143.238 420.386 143.238C421.066 143.238 421.57 143.494 421.986 143.87L421.57 144.494C421.234 144.182 420.882 143.966 420.378 143.966C419.546 143.966 418.922 144.87 418.89 146.078C419.226 145.622 419.778 145.358 420.378 145.358ZM420.21 148.238C420.954 148.238 421.402 147.67 421.402 147.118C421.402 146.446 420.858 146.038 420.194 146.038C419.586 146.038 419.106 146.39 418.954 146.918C419.09 147.71 419.482 148.238 420.21 148.238ZM425.114 148.926C423.954 148.926 423.042 148.326 423.042 147.382C423.042 146.702 423.554 146.214 424.21 145.99C423.61 145.75 423.186 145.334 423.186 144.71C423.186 143.774 424.122 143.238 425.114 143.238C426.138 143.238 427.05 143.798 427.05 144.71C427.05 145.366 426.586 145.774 426.026 145.99C426.682 146.222 427.186 146.71 427.186 147.382C427.186 148.334 426.266 148.926 425.114 148.926ZM425.114 145.686C425.618 145.654 426.242 145.35 426.242 144.798C426.242 144.31 425.746 143.95 425.114 143.95C424.482 143.95 423.994 144.31 423.994 144.798C423.994 145.366 424.626 145.654 425.114 145.686ZM425.114 148.214C425.818 148.214 426.37 147.846 426.37 147.31C426.37 146.726 425.658 146.374 425.114 146.358C424.578 146.374 423.858 146.726 423.858 147.31C423.858 147.846 424.41 148.214 425.114 148.214ZM427.921 148.83V148.166L429.937 146.502C430.673 145.886 430.953 145.414 430.953 144.918C430.953 144.318 430.457 143.966 429.913 143.966C429.313 143.966 428.873 144.286 428.489 144.782L427.945 144.302C428.425 143.638 429.073 143.238 429.945 143.238C430.969 143.238 431.785 143.902 431.785 144.902C431.785 145.638 431.433 146.222 430.489 146.99L429.201 148.078H431.833V148.83H427.921ZM436.521 145.806V146.518H435.025V148.022H434.289V146.518H432.785V145.806H434.289V144.286H435.025V145.806H436.521Z" fill="#1E1D40"/>
<path d="M505.358 37.8301V37.1661L507.374 35.5021C508.11 34.8861 508.39 34.4141 508.39 33.9181C508.39 33.3181 507.894 32.9661 507.35 32.9661C506.75 32.9661 506.31 33.2861 505.926 33.7821L505.382 33.3021C505.862 32.6381 506.51 32.2381 507.382 32.2381C508.406 32.2381 509.222 32.9021 509.222 33.9021C509.222 34.6381 508.87 35.2221 507.926 35.9901L506.638 37.0781H509.27V37.8301H505.358ZM512.495 34.3581C513.503 34.3581 514.343 34.9901 514.343 36.0781C514.343 37.1341 513.511 37.9261 512.351 37.9261C510.823 37.9261 510.183 36.7341 510.183 35.1661C510.183 33.5021 511.167 32.2381 512.503 32.2381C513.183 32.2381 513.687 32.4941 514.103 32.8701L513.687 33.4941C513.351 33.1821 512.999 32.9661 512.495 32.9661C511.663 32.9661 511.039 33.8701 511.007 35.0781C511.343 34.6221 511.895 34.3581 512.495 34.3581ZM512.327 37.2381C513.071 37.2381 513.519 36.6701 513.519 36.1181C513.519 35.4461 512.975 35.0381 512.311 35.0381C511.703 35.0381 511.223 35.3901 511.071 35.9181C511.207 36.7101 511.599 37.2381 512.327 37.2381ZM515.863 38.9261L515.527 38.6701C515.751 38.4301 515.903 38.1741 515.967 37.9261C515.679 37.9261 515.447 37.6861 515.447 37.3901C515.447 37.1101 515.671 36.8621 515.975 36.8621C516.327 36.8621 516.559 37.1821 516.559 37.6221C516.559 37.9981 516.375 38.3421 515.863 38.9261ZM520.05 34.3581C521.058 34.3581 521.898 34.9901 521.898 36.0781C521.898 37.1341 521.066 37.9261 519.906 37.9261C518.378 37.9261 517.738 36.7341 517.738 35.1661C517.738 33.5021 518.722 32.2381 520.058 32.2381C520.738 32.2381 521.242 32.4941 521.658 32.8701L521.242 33.4941C520.906 33.1821 520.554 32.9661 520.05 32.9661C519.218 32.9661 518.594 33.8701 518.562 35.0781C518.898 34.6221 519.45 34.3581 520.05 34.3581ZM519.882 37.2381C520.626 37.2381 521.074 36.6701 521.074 36.1181C521.074 35.4461 520.53 35.0381 519.866 35.0381C519.258 35.0381 518.778 35.3901 518.626 35.9181C518.762 36.7101 519.154 37.2381 519.882 37.2381ZM525.313 37.8301V36.5661H522.585L522.497 35.9181L525.161 32.3341H526.121V35.8541H526.913V36.5661H526.121V37.8301H525.313ZM523.385 35.8541H525.313V33.2541L523.385 35.8541ZM529.653 37.9261C528.493 37.9261 527.581 37.3261 527.581 36.3821C527.581 35.7021 528.093 35.2141 528.749 34.9901C528.149 34.7501 527.725 34.3341 527.725 33.7101C527.725 32.7741 528.661 32.2381 529.653 32.2381C530.677 32.2381 531.589 32.7981 531.589 33.7101C531.589 34.3661 531.125 34.7741 530.565 34.9901C531.221 35.2221 531.725 35.7101 531.725 36.3821C531.725 37.3341 530.805 37.9261 529.653 37.9261ZM529.653 34.6861C530.157 34.6541 530.781 34.3501 530.781 33.7981C530.781 33.3101 530.285 32.9501 529.653 32.9501C529.021 32.9501 528.533 33.3101 528.533 33.7981C528.533 34.3661 529.165 34.6541 529.653 34.6861ZM529.653 37.2141C530.357 37.2141 530.909 36.8461 530.909 36.3101C530.909 35.7261 530.197 35.3741 529.653 35.3581C529.117 35.3741 528.397 35.7261 528.397 36.3101C528.397 36.8461 528.949 37.2141 529.653 37.2141ZM536.42 34.8061V35.5181H534.924V37.0221H534.188V35.5181H532.684V34.8061H534.188V33.2861H534.924V34.8061H536.42Z" fill="#1E1D40"/>
<path d="M608.53 148.83V144.294L607.578 144.902L607.242 144.318L608.69 143.334H609.338V148.83H608.53ZM612.633 148.926C611.473 148.926 610.561 148.326 610.561 147.382C610.561 146.702 611.073 146.214 611.729 145.99C611.129 145.75 610.705 145.334 610.705 144.71C610.705 143.774 611.641 143.238 612.633 143.238C613.657 143.238 614.569 143.798 614.569 144.71C614.569 145.366 614.105 145.774 613.545 145.99C614.201 146.222 614.705 146.71 614.705 147.382C614.705 148.334 613.785 148.926 612.633 148.926ZM612.633 145.686C613.137 145.654 613.761 145.35 613.761 144.798C613.761 144.31 613.265 143.95 612.633 143.95C612.001 143.95 611.513 144.31 611.513 144.798C611.513 145.366 612.145 145.654 612.633 145.686ZM612.633 148.214C613.337 148.214 613.889 147.846 613.889 147.31C613.889 146.726 613.177 146.374 612.633 146.358C612.097 146.374 611.377 146.726 611.377 147.31C611.377 147.846 611.929 148.214 612.633 148.214ZM616.296 149.926L615.96 149.67C616.184 149.43 616.336 149.174 616.4 148.926C616.112 148.926 615.88 148.686 615.88 148.39C615.88 148.11 616.104 147.862 616.408 147.862C616.76 147.862 616.992 148.182 616.992 148.622C616.992 148.998 616.808 149.342 616.296 149.926ZM620.099 148.926C619.227 148.926 618.563 148.574 618.099 148.062L618.603 147.486C619.019 147.926 619.531 148.214 620.115 148.214C620.827 148.214 621.315 147.734 621.315 147.118C621.315 146.486 620.819 146.062 620.107 146.062C619.651 146.062 619.267 146.214 618.939 146.462L618.371 146.206L618.451 143.334H621.827V144.086H619.219L619.171 145.718C619.459 145.526 619.827 145.366 620.307 145.366C621.299 145.366 622.123 145.99 622.123 147.086C622.123 148.198 621.283 148.926 620.099 148.926ZM624.92 148.926C624.048 148.926 623.384 148.574 622.92 148.062L623.424 147.486C623.84 147.926 624.352 148.214 624.936 148.214C625.648 148.214 626.136 147.734 626.136 147.118C626.136 146.486 625.64 146.062 624.928 146.062C624.472 146.062 624.088 146.214 623.76 146.462L623.192 146.206L623.272 143.334H626.648V144.086H624.04L623.992 145.718C624.28 145.526 624.648 145.366 625.128 145.366C626.12 145.366 626.944 145.99 626.944 147.086C626.944 148.198 626.104 148.926 624.92 148.926ZM630.14 148.926C628.756 148.926 627.788 147.75 627.788 146.078C627.788 144.414 628.756 143.238 630.14 143.238C631.508 143.238 632.476 144.414 632.476 146.078C632.476 147.75 631.508 148.926 630.14 148.926ZM630.14 148.182C631.028 148.182 631.652 147.31 631.652 146.078C631.652 144.846 631.028 143.982 630.14 143.982C629.244 143.982 628.612 144.846 628.612 146.078C628.612 147.31 629.244 148.182 630.14 148.182Z" fill="#1E1D40"/>
<path d="M708.538 182.83V178.294L707.586 178.902L707.25 178.318L708.698 177.334H709.346V182.83H708.538ZM712.913 179.358C713.921 179.358 714.761 179.99 714.761 181.078C714.761 182.134 713.929 182.926 712.769 182.926C711.241 182.926 710.601 181.734 710.601 180.166C710.601 178.502 711.585 177.238 712.921 177.238C713.601 177.238 714.105 177.494 714.521 177.87L714.105 178.494C713.769 178.182 713.417 177.966 712.913 177.966C712.081 177.966 711.457 178.87 711.425 180.078C711.761 179.622 712.313 179.358 712.913 179.358ZM712.745 182.238C713.489 182.238 713.937 181.67 713.937 181.118C713.937 180.446 713.393 180.038 712.729 180.038C712.121 180.038 711.641 180.39 711.489 180.918C711.625 181.71 712.017 182.238 712.745 182.238ZM716.281 183.926L715.945 183.67C716.169 183.43 716.321 183.174 716.385 182.926C716.097 182.926 715.865 182.686 715.865 182.39C715.865 182.11 716.089 181.862 716.393 181.862C716.745 181.862 716.977 182.182 716.977 182.622C716.977 182.998 716.793 183.342 716.281 183.926ZM720.484 182.926C719.1 182.926 718.132 181.75 718.132 180.078C718.132 178.414 719.1 177.238 720.484 177.238C721.852 177.238 722.82 178.414 722.82 180.078C722.82 181.75 721.852 182.926 720.484 182.926ZM720.484 182.182C721.372 182.182 721.996 181.31 721.996 180.078C721.996 178.846 721.372 177.982 720.484 177.982C719.588 177.982 718.956 178.846 718.956 180.078C718.956 181.31 719.588 182.182 720.484 182.182ZM725.638 177.238C727.166 177.238 727.806 178.43 727.806 179.998C727.806 181.662 726.822 182.926 725.486 182.926C724.806 182.926 724.302 182.67 723.886 182.294L724.302 181.67C724.638 181.982 724.99 182.198 725.494 182.198C726.326 182.198 726.95 181.294 726.982 180.086C726.646 180.542 726.094 180.806 725.494 180.806C724.486 180.806 723.646 180.174 723.646 179.086C723.646 178.03 724.478 177.238 725.638 177.238ZM725.678 180.126C726.286 180.126 726.766 179.774 726.918 179.246C726.782 178.454 726.39 177.926 725.662 177.926C724.918 177.926 724.47 178.494 724.47 179.046C724.47 179.718 725.014 180.126 725.678 180.126ZM728.565 182.83V182.166L730.581 180.502C731.317 179.886 731.597 179.414 731.597 178.918C731.597 178.318 731.101 177.966 730.557 177.966C729.957 177.966 729.517 178.286 729.133 178.782L728.589 178.302C729.069 177.638 729.717 177.238 730.589 177.238C731.613 177.238 732.429 177.902 732.429 178.902C732.429 179.638 732.077 180.222 731.133 180.99L729.845 182.078H732.477V182.83H728.565Z" fill="#1E1D40"/>
<path d="M751.456 371.465V366.929L750.504 367.537L750.168 366.953L751.616 365.969H752.264V371.465H751.456ZM755.847 371.561C754.463 371.561 753.495 370.385 753.495 368.713C753.495 367.049 754.463 365.873 755.847 365.873C757.215 365.873 758.183 367.049 758.183 368.713C758.183 370.385 757.215 371.561 755.847 371.561ZM755.847 370.817C756.735 370.817 757.359 369.945 757.359 368.713C757.359 367.481 756.735 366.617 755.847 366.617C754.951 366.617 754.319 367.481 754.319 368.713C754.319 369.945 754.951 370.817 755.847 370.817ZM759.777 372.561L759.441 372.305C759.665 372.065 759.817 371.809 759.881 371.561C759.593 371.561 759.361 371.321 759.361 371.025C759.361 370.745 759.585 370.497 759.889 370.497C760.241 370.497 760.473 370.817 760.473 371.257C760.473 371.633 760.289 371.977 759.777 372.561ZM763.58 371.561C762.708 371.561 762.044 371.209 761.58 370.697L762.084 370.121C762.5 370.561 763.012 370.849 763.596 370.849C764.308 370.849 764.796 370.369 764.796 369.753C764.796 369.121 764.3 368.697 763.588 368.697C763.132 368.697 762.748 368.849 762.42 369.097L761.852 368.841L761.932 365.969H765.308V366.721H762.7L762.652 368.353C762.94 368.161 763.308 368.001 763.788 368.001C764.78 368.001 765.604 368.625 765.604 369.721C765.604 370.833 764.764 371.561 763.58 371.561ZM768.8 371.561C767.416 371.561 766.448 370.385 766.448 368.713C766.448 367.049 767.416 365.873 768.8 365.873C770.168 365.873 771.136 367.049 771.136 368.713C771.136 370.385 770.168 371.561 768.8 371.561ZM768.8 370.817C769.688 370.817 770.312 369.945 770.312 368.713C770.312 367.481 769.688 366.617 768.8 366.617C767.904 366.617 767.272 367.481 767.272 368.713C767.272 369.945 767.904 370.817 768.8 370.817ZM772.378 371.465L774.674 366.721H771.778V365.969H775.626V366.577L773.306 371.465H772.378Z" fill="#1E1D40"/>
<path d="M752.4 234.561C751.528 234.561 750.864 234.209 750.4 233.697L750.904 233.121C751.32 233.561 751.832 233.849 752.416 233.849C753.128 233.849 753.616 233.369 753.616 232.753C753.616 232.121 753.12 231.697 752.408 231.697C751.952 231.697 751.568 231.849 751.24 232.097L750.672 231.841L750.752 228.969H754.128V229.721H751.52L751.472 231.353C751.76 231.161 752.128 231.001 752.608 231.001C753.6 231.001 754.424 231.625 754.424 232.721C754.424 233.833 753.584 234.561 752.4 234.561ZM755.964 235.561L755.628 235.305C755.852 235.065 756.004 234.809 756.068 234.561C755.78 234.561 755.548 234.321 755.548 234.025C755.548 233.745 755.772 233.497 756.076 233.497C756.428 233.497 756.66 233.817 756.66 234.257C756.66 234.633 756.476 234.977 755.964 235.561ZM759.767 234.561C758.895 234.561 758.231 234.209 757.767 233.697L758.271 233.121C758.687 233.561 759.199 233.849 759.783 233.849C760.495 233.849 760.983 233.369 760.983 232.753C760.983 232.121 760.487 231.697 759.775 231.697C759.319 231.697 758.935 231.849 758.607 232.097L758.039 231.841L758.119 228.969H761.495V229.721H758.887L758.839 231.353C759.127 231.161 759.495 231.001 759.975 231.001C760.967 231.001 761.791 231.625 761.791 232.721C761.791 233.833 760.951 234.561 759.767 234.561ZM764.7 234.561C763.54 234.561 762.628 233.961 762.628 233.017C762.628 232.337 763.14 231.849 763.796 231.625C763.196 231.385 762.772 230.969 762.772 230.345C762.772 229.409 763.708 228.873 764.7 228.873C765.724 228.873 766.636 229.433 766.636 230.345C766.636 231.001 766.172 231.409 765.612 231.625C766.268 231.857 766.772 232.345 766.772 233.017C766.772 233.969 765.852 234.561 764.7 234.561ZM764.7 231.321C765.204 231.289 765.828 230.985 765.828 230.433C765.828 229.945 765.332 229.585 764.7 229.585C764.068 229.585 763.58 229.945 763.58 230.433C763.58 231.001 764.212 231.289 764.7 231.321ZM764.7 233.849C765.404 233.849 765.956 233.481 765.956 232.945C765.956 232.361 765.244 232.009 764.7 231.993C764.164 232.009 763.444 232.361 763.444 232.945C763.444 233.481 763.996 233.849 764.7 233.849ZM769.619 234.561C768.747 234.561 768.083 234.209 767.619 233.697L768.123 233.121C768.539 233.561 769.051 233.849 769.635 233.849C770.347 233.849 770.835 233.369 770.835 232.753C770.835 232.121 770.339 231.697 769.627 231.697C769.171 231.697 768.787 231.849 768.459 232.097L767.891 231.841L767.971 228.969H771.347V229.721H768.739L768.691 231.353C768.979 231.161 769.347 231.001 769.827 231.001C770.819 231.001 771.643 231.625 771.643 232.721C771.643 233.833 770.803 234.561 769.619 234.561Z" fill="#1E1D40"/>
<path d="M650.792 371.465L653.088 366.721H650.192V365.969H654.04V366.577L651.72 371.465H650.792ZM655.417 372.561L655.081 372.305C655.305 372.065 655.457 371.809 655.521 371.561C655.233 371.561 655.001 371.321 655.001 371.025C655.001 370.745 655.225 370.497 655.529 370.497C655.881 370.497 656.113 370.817 656.113 371.257C656.113 371.633 655.929 371.977 655.417 372.561ZM659.62 371.561C658.236 371.561 657.268 370.385 657.268 368.713C657.268 367.049 658.236 365.873 659.62 365.873C660.988 365.873 661.956 367.049 661.956 368.713C661.956 370.385 660.988 371.561 659.62 371.561ZM659.62 370.817C660.508 370.817 661.132 369.945 661.132 368.713C661.132 367.481 660.508 366.617 659.62 366.617C658.724 366.617 658.092 367.481 658.092 368.713C658.092 369.945 658.724 370.817 659.62 370.817ZM664.918 371.561C663.758 371.561 662.846 370.961 662.846 370.017C662.846 369.337 663.358 368.849 664.014 368.625C663.414 368.385 662.99 367.969 662.99 367.345C662.99 366.409 663.926 365.873 664.918 365.873C665.942 365.873 666.854 366.433 666.854 367.345C666.854 368.001 666.39 368.409 665.83 368.625C666.486 368.857 666.99 369.345 666.99 370.017C666.99 370.969 666.07 371.561 664.918 371.561ZM664.918 368.321C665.422 368.289 666.046 367.985 666.046 367.433C666.046 366.945 665.55 366.585 664.918 366.585C664.286 366.585 663.798 366.945 663.798 367.433C663.798 368.001 664.43 368.289 664.918 368.321ZM664.918 370.849C665.622 370.849 666.174 370.481 666.174 369.945C666.174 369.361 665.462 369.009 664.918 368.993C664.382 369.009 663.662 369.361 663.662 369.945C663.662 370.481 664.214 370.849 664.918 370.849ZM670.478 371.465V370.201H667.75L667.662 369.553L670.326 365.969H671.286V369.489H672.078V370.201H671.286V371.465H670.478ZM668.55 369.489H670.478V366.889L668.55 369.489Z" fill="black"/>
<path d="M651.456 245.465V240.929L650.504 241.537L650.168 240.953L651.616 239.969H652.264V245.465H651.456ZM654.503 245.465V240.929L653.551 241.537L653.215 240.953L654.663 239.969H655.311V245.465H654.503ZM657.238 246.561L656.902 246.305C657.126 246.065 657.278 245.809 657.342 245.561C657.054 245.561 656.822 245.321 656.822 245.025C656.822 244.745 657.046 244.497 657.35 244.497C657.702 244.497 657.934 244.817 657.934 245.257C657.934 245.633 657.75 245.977 657.238 246.561ZM661.681 245.465V244.201H658.953L658.865 243.553L661.529 239.969H662.489V243.489H663.281V244.201H662.489V245.465H661.681ZM659.753 243.489H661.681V240.889L659.753 243.489ZM666.292 241.993C667.3 241.993 668.14 242.625 668.14 243.713C668.14 244.769 667.308 245.561 666.148 245.561C664.62 245.561 663.98 244.369 663.98 242.801C663.98 241.137 664.964 239.873 666.3 239.873C666.98 239.873 667.484 240.129 667.9 240.505L667.484 241.129C667.148 240.817 666.796 240.601 666.292 240.601C665.46 240.601 664.836 241.505 664.804 242.713C665.14 242.257 665.692 241.993 666.292 241.993ZM666.124 244.873C666.868 244.873 667.316 244.305 667.316 243.753C667.316 243.081 666.772 242.673 666.108 242.673C665.5 242.673 665.02 243.025 664.868 243.553C665.004 244.345 665.396 244.873 666.124 244.873ZM671.3 241.993C672.308 241.993 673.148 242.625 673.148 243.713C673.148 244.769 672.316 245.561 671.156 245.561C669.628 245.561 668.988 244.369 668.988 242.801C668.988 241.137 669.972 239.873 671.308 239.873C671.988 239.873 672.492 240.129 672.908 240.505L672.492 241.129C672.156 240.817 671.804 240.601 671.3 240.601C670.468 240.601 669.844 241.505 669.812 242.713C670.148 242.257 670.7 241.993 671.3 241.993ZM671.132 244.873C671.876 244.873 672.324 244.305 672.324 243.753C672.324 243.081 671.78 242.673 671.116 242.673C670.508 242.673 670.028 243.025 669.876 243.553C670.012 244.345 670.404 244.873 671.132 244.873Z" fill="#1E1D40"/>
<path d="M-0.000488281 416.42H787.5" stroke="#333333" stroke-miterlimit="10"/>
<path d="M2.60751 164.146V162.514L6.65551 159.282C8.04751 158.162 8.54351 157.33 8.54351 156.434C8.54351 155.394 7.66351 154.754 6.67151 154.754C5.51951 154.754 4.68751 155.346 3.88751 156.306L2.59151 155.106C3.63151 153.746 4.95951 152.962 6.73551 152.962C8.91151 152.962 10.5755 154.354 10.5755 156.386C10.5755 157.842 9.90351 159.01 8.01551 160.466L5.71151 162.322H10.6875V164.146H2.60751ZM17.1631 164.338C14.3311 164.338 12.3471 161.986 12.3471 158.642C12.3471 155.314 14.3311 152.962 17.1631 152.962C19.9791 152.962 21.9791 155.314 21.9791 158.642C21.9791 161.986 19.9791 164.338 17.1631 164.338ZM17.1631 162.514C18.7951 162.514 19.9311 160.914 19.9311 158.642C19.9311 156.37 18.7951 154.786 17.1631 154.786C15.5311 154.786 14.3791 156.37 14.3791 158.642C14.3791 160.914 15.5311 162.514 17.1631 162.514ZM25.148 166.418L24.396 165.842C24.86 165.362 25.18 164.85 25.324 164.338C24.652 164.338 24.092 163.762 24.092 163.074C24.092 162.402 24.652 161.826 25.34 161.826C26.156 161.826 26.684 162.562 26.684 163.57C26.684 164.434 26.236 165.266 25.148 166.418ZM33.6319 164.338C30.7999 164.338 28.8159 161.986 28.8159 158.642C28.8159 155.314 30.7999 152.962 33.6319 152.962C36.4479 152.962 38.4479 155.314 38.4479 158.642C38.4479 161.986 36.4479 164.338 33.6319 164.338ZM33.6319 162.514C35.2639 162.514 36.3999 160.914 36.3999 158.642C36.3999 156.37 35.2639 154.786 33.6319 154.786C31.9999 154.786 30.8479 156.37 30.8479 158.642C30.8479 160.914 31.9999 162.514 33.6319 162.514ZM44.9288 164.338C42.0968 164.338 40.1128 161.986 40.1128 158.642C40.1128 155.314 42.0968 152.962 44.9288 152.962C47.7448 152.962 49.7448 155.314 49.7448 158.642C49.7448 161.986 47.7448 164.338 44.9288 164.338ZM44.9288 162.514C46.5608 162.514 47.6968 160.914 47.6968 158.642C47.6968 156.37 46.5608 154.786 44.9288 154.786C43.2968 154.786 42.1448 156.37 42.1448 158.642C42.1448 160.914 43.2968 162.514 44.9288 162.514ZM56.2256 164.338C53.3936 164.338 51.4096 161.986 51.4096 158.642C51.4096 155.314 53.3936 152.962 56.2256 152.962C59.0416 152.962 61.0416 155.314 61.0416 158.642C61.0416 161.986 59.0416 164.338 56.2256 164.338ZM56.2256 162.514C57.8576 162.514 58.9936 160.914 58.9936 158.642C58.9936 156.37 57.8576 154.786 56.2256 154.786C54.5936 154.786 53.4416 156.37 53.4416 158.642C53.4416 160.914 54.5936 162.514 56.2256 162.514Z" fill="#1E0060"/>
<path d="M6.03805 232.645V223.957L4.15005 225.157L3.35005 223.749L6.43805 221.653H8.03805V232.645H6.03805ZM14.33 232.837C12.538 232.837 11.194 232.165 10.218 231.141L11.402 229.717C12.234 230.549 13.258 231.109 14.362 231.109C15.69 231.109 16.554 230.245 16.554 229.173C16.554 228.053 15.674 227.301 14.362 227.301C13.498 227.301 12.746 227.589 12.122 228.069L10.762 227.493L10.922 221.653H17.946V223.477H12.794L12.698 226.309C13.258 225.925 13.978 225.637 14.922 225.637C16.874 225.637 18.554 226.885 18.554 229.093C18.554 231.365 16.842 232.837 14.33 232.837ZM21.6309 234.917L20.8789 234.341C21.3429 233.861 21.6629 233.349 21.8069 232.837C21.1349 232.837 20.5749 232.261 20.5749 231.573C20.5749 230.901 21.1349 230.325 21.8229 230.325C22.6389 230.325 23.1669 231.061 23.1669 232.069C23.1669 232.933 22.7189 233.765 21.6309 234.917ZM30.1148 232.837C27.2828 232.837 25.2988 230.485 25.2988 227.141C25.2988 223.813 27.2828 221.461 30.1148 221.461C32.9308 221.461 34.9308 223.813 34.9308 227.141C34.9308 230.485 32.9308 232.837 30.1148 232.837ZM30.1148 231.013C31.7468 231.013 32.8828 229.413 32.8828 227.141C32.8828 224.869 31.7468 223.285 30.1148 223.285C28.4828 223.285 27.3308 224.869 27.3308 227.141C27.3308 229.413 28.4828 231.013 30.1148 231.013ZM41.4117 232.837C38.5797 232.837 36.5957 230.485 36.5957 227.141C36.5957 223.813 38.5797 221.461 41.4117 221.461C44.2277 221.461 46.2277 223.813 46.2277 227.141C46.2277 230.485 44.2277 232.837 41.4117 232.837ZM41.4117 231.013C43.0437 231.013 44.1797 229.413 44.1797 227.141C44.1797 224.869 43.0437 223.285 41.4117 223.285C39.7797 223.285 38.6277 224.869 38.6277 227.141C38.6277 229.413 39.7797 231.013 41.4117 231.013ZM52.7085 232.837C49.8765 232.837 47.8925 230.485 47.8925 227.141C47.8925 223.813 49.8765 221.461 52.7085 221.461C55.5245 221.461 57.5245 223.813 57.5245 227.141C57.5245 230.485 55.5245 232.837 52.7085 232.837ZM52.7085 231.013C54.3405 231.013 55.4765 229.413 55.4765 227.141C55.4765 224.869 54.3405 223.285 52.7085 223.285C51.0765 223.285 49.9245 224.869 49.9245 227.141C49.9245 229.413 51.0765 231.013 52.7085 231.013Z" fill="#1E0060"/>
<path d="M6.03805 305.727V297.039L4.15005 298.239L3.35005 296.831L6.43805 294.735H8.03805V305.727H6.03805ZM15.146 305.919C12.314 305.919 10.33 303.567 10.33 300.223C10.33 296.895 12.314 294.543 15.146 294.543C17.962 294.543 19.962 296.895 19.962 300.223C19.962 303.567 17.962 305.919 15.146 305.919ZM15.146 304.095C16.778 304.095 17.914 302.495 17.914 300.223C17.914 297.951 16.778 296.367 15.146 296.367C13.514 296.367 12.362 297.951 12.362 300.223C12.362 302.495 13.514 304.095 15.146 304.095ZM23.1309 307.999L22.3789 307.423C22.8429 306.943 23.1629 306.431 23.3069 305.919C22.6349 305.919 22.0749 305.343 22.0749 304.655C22.0749 303.983 22.6349 303.407 23.3229 303.407C24.1389 303.407 24.6669 304.143 24.6669 305.151C24.6669 306.015 24.2189 306.847 23.1309 307.999ZM31.6148 305.919C28.7828 305.919 26.7988 303.567 26.7988 300.223C26.7988 296.895 28.7828 294.543 31.6148 294.543C34.4308 294.543 36.4308 296.895 36.4308 300.223C36.4308 303.567 34.4308 305.919 31.6148 305.919ZM31.6148 304.095C33.2468 304.095 34.3828 302.495 34.3828 300.223C34.3828 297.951 33.2468 296.367 31.6148 296.367C29.9828 296.367 28.8308 297.951 28.8308 300.223C28.8308 302.495 29.9828 304.095 31.6148 304.095ZM42.9117 305.919C40.0797 305.919 38.0957 303.567 38.0957 300.223C38.0957 296.895 40.0797 294.543 42.9117 294.543C45.7277 294.543 47.7277 296.895 47.7277 300.223C47.7277 303.567 45.7277 305.919 42.9117 305.919ZM42.9117 304.095C44.5437 304.095 45.6797 302.495 45.6797 300.223C45.6797 297.951 44.5437 296.367 42.9117 296.367C41.2797 296.367 40.1277 297.951 40.1277 300.223C40.1277 302.495 41.2797 304.095 42.9117 304.095ZM54.2085 305.919C51.3765 305.919 49.3925 303.567 49.3925 300.223C49.3925 296.895 51.3765 294.543 54.2085 294.543C57.0245 294.543 59.0245 296.895 59.0245 300.223C59.0245 303.567 57.0245 305.919 54.2085 305.919ZM54.2085 304.095C55.8405 304.095 56.9765 302.495 56.9765 300.223C56.9765 297.951 55.8405 296.367 54.2085 296.367C52.5765 296.367 51.4245 297.951 51.4245 300.223C51.4245 302.495 52.5765 304.095 54.2085 304.095Z" fill="#1E0060"/>
<path d="M7.83005 370.958C6.03805 370.958 4.69405 370.286 3.71805 369.262L4.90205 367.838C5.73405 368.67 6.75805 369.23 7.86205 369.23C9.19005 369.23 10.054 368.366 10.054 367.294C10.054 366.174 9.17405 365.422 7.86205 365.422C6.99805 365.422 6.24605 365.71 5.62205 366.19L4.26205 365.614L4.42205 359.774H11.446V361.598H6.29405L6.19805 364.43C6.75805 364.046 7.47805 363.758 8.42205 363.758C10.374 363.758 12.054 365.006 12.054 367.214C12.054 369.486 10.342 370.958 7.83005 370.958ZM15.1309 373.038L14.3789 372.462C14.8429 371.982 15.1629 371.47 15.3069 370.958C14.6349 370.958 14.0749 370.382 14.0749 369.694C14.0749 369.022 14.6349 368.446 15.3229 368.446C16.1389 368.446 16.6669 369.182 16.6669 370.19C16.6669 371.054 16.2189 371.886 15.1309 373.038ZM23.6148 370.958C20.7828 370.958 18.7988 368.606 18.7988 365.262C18.7988 361.934 20.7828 359.582 23.6148 359.582C26.4308 359.582 28.4308 361.934 28.4308 365.262C28.4308 368.606 26.4308 370.958 23.6148 370.958ZM23.6148 369.134C25.2468 369.134 26.3828 367.534 26.3828 365.262C26.3828 362.99 25.2468 361.406 23.6148 361.406C21.9828 361.406 20.8308 362.99 20.8308 365.262C20.8308 367.534 21.9828 369.134 23.6148 369.134ZM34.9117 370.958C32.0797 370.958 30.0957 368.606 30.0957 365.262C30.0957 361.934 32.0797 359.582 34.9117 359.582C37.7277 359.582 39.7277 361.934 39.7277 365.262C39.7277 368.606 37.7277 370.958 34.9117 370.958ZM34.9117 369.134C36.5437 369.134 37.6797 367.534 37.6797 365.262C37.6797 362.99 36.5437 361.406 34.9117 361.406C33.2797 361.406 32.1277 362.99 32.1277 365.262C32.1277 367.534 33.2797 369.134 34.9117 369.134ZM46.2085 370.958C43.3765 370.958 41.3925 368.606 41.3925 365.262C41.3925 361.934 43.3765 359.582 46.2085 359.582C49.0245 359.582 51.0245 361.934 51.0245 365.262C51.0245 368.606 49.0245 370.958 46.2085 370.958ZM46.2085 369.134C47.8405 369.134 48.9765 367.534 48.9765 365.262C48.9765 362.99 47.8405 361.406 46.2085 361.406C44.5765 361.406 43.4245 362.99 43.4245 365.262C43.4245 367.534 44.5765 369.134 46.2085 369.134Z" fill="#1E0060"/>
<path d="M2.60751 95.0664V93.4344L6.65551 90.2024C8.04751 89.0824 8.54351 88.2504 8.54351 87.3544C8.54351 86.3144 7.66351 85.6744 6.67151 85.6744C5.51951 85.6744 4.68751 86.2664 3.88751 87.2264L2.59151 86.0264C3.63151 84.6664 4.95951 83.8824 6.73551 83.8824C8.91151 83.8824 10.5755 85.2744 10.5755 87.3064C10.5755 88.7624 9.90351 89.9304 8.01551 91.3864L5.71151 93.2424H10.6875V95.0664H2.60751ZM16.3471 95.2584C14.5551 95.2584 13.2111 94.5864 12.2351 93.5624L13.4191 92.1384C14.2511 92.9704 15.2751 93.5304 16.3791 93.5304C17.7071 93.5304 18.5711 92.6664 18.5711 91.5944C18.5711 90.4744 17.6911 89.7224 16.3791 89.7224C15.5151 89.7224 14.7631 90.0104 14.1391 90.4904L12.7791 89.9144L12.9391 84.0744H19.9631V85.8984H14.8111L14.7151 88.7304C15.2751 88.3464 15.9951 88.0584 16.9391 88.0584C18.8911 88.0584 20.5711 89.3064 20.5711 91.5144C20.5711 93.7864 18.8591 95.2584 16.3471 95.2584ZM23.648 97.3384L22.896 96.7624C23.36 96.2824 23.68 95.7704 23.824 95.2584C23.152 95.2584 22.592 94.6824 22.592 93.9944C22.592 93.3224 23.152 92.7464 23.84 92.7464C24.656 92.7464 25.184 93.4824 25.184 94.4904C25.184 95.3544 24.736 96.1864 23.648 97.3384ZM32.1319 95.2584C29.2999 95.2584 27.3159 92.9064 27.3159 89.5624C27.3159 86.2344 29.2999 83.8824 32.1319 83.8824C34.9479 83.8824 36.9479 86.2344 36.9479 89.5624C36.9479 92.9064 34.9479 95.2584 32.1319 95.2584ZM32.1319 93.4344C33.7639 93.4344 34.8999 91.8344 34.8999 89.5624C34.8999 87.2904 33.7639 85.7064 32.1319 85.7064C30.4999 85.7064 29.3479 87.2904 29.3479 89.5624C29.3479 91.8344 30.4999 93.4344 32.1319 93.4344ZM43.4288 95.2584C40.5968 95.2584 38.6128 92.9064 38.6128 89.5624C38.6128 86.2344 40.5968 83.8824 43.4288 83.8824C46.2448 83.8824 48.2448 86.2344 48.2448 89.5624C48.2448 92.9064 46.2448 95.2584 43.4288 95.2584ZM43.4288 93.4344C45.0608 93.4344 46.1968 91.8344 46.1968 89.5624C46.1968 87.2904 45.0608 85.7064 43.4288 85.7064C41.7968 85.7064 40.6448 87.2904 40.6448 89.5624C40.6448 91.8344 41.7968 93.4344 43.4288 93.4344ZM54.7256 95.2584C51.8936 95.2584 49.9096 92.9064 49.9096 89.5624C49.9096 86.2344 51.8936 83.8824 54.7256 83.8824C57.5416 83.8824 59.5416 86.2344 59.5416 89.5624C59.5416 92.9064 57.5416 95.2584 54.7256 95.2584ZM54.7256 93.4344C56.3576 93.4344 57.4936 91.8344 57.4936 89.5624C57.4936 87.2904 56.3576 85.7064 54.7256 85.7064C53.0936 85.7064 51.9416 87.2904 51.9416 89.5624C51.9416 91.8344 53.0936 93.4344 54.7256 93.4344Z" fill="#1E0060"/>
<path d="M6.73551 25.1764C4.79951 25.1764 3.34351 24.3924 2.44751 23.3204L3.66351 22.0084C4.41551 22.8724 5.47151 23.4004 6.65551 23.4004C7.98351 23.4004 8.78351 22.7444 8.78351 21.7844C8.78351 20.8084 7.98351 20.2964 6.41551 20.2964L5.18351 20.3124V18.5844H6.41551C7.71151 18.6004 8.55951 18.0724 8.55951 17.1124C8.55951 16.2164 7.71151 15.5924 6.52751 15.5924C5.42351 15.5924 4.59151 16.1204 3.83951 16.9524L2.65551 15.7364C3.53551 14.6324 4.81551 13.8004 6.68751 13.8004C9.03951 13.8004 10.5915 15.0484 10.5915 16.7924C10.5915 18.1204 9.67951 18.9844 8.51151 19.3364C9.67951 19.6084 10.8315 20.4564 10.8315 21.9444C10.8315 23.8324 9.19951 25.1764 6.73551 25.1764ZM17.335 25.1764C14.503 25.1764 12.519 22.8244 12.519 19.4804C12.519 16.1524 14.503 13.8004 17.335 13.8004C20.151 13.8004 22.151 16.1524 22.151 19.4804C22.151 22.8244 20.151 25.1764 17.335 25.1764ZM17.335 23.3524C18.967 23.3524 20.103 21.7524 20.103 19.4804C20.103 17.2084 18.967 15.6244 17.335 15.6244C15.703 15.6244 14.551 17.2084 14.551 19.4804C14.551 21.7524 15.703 23.3524 17.335 23.3524ZM25.3199 27.2564L24.5679 26.6804C25.0319 26.2004 25.3519 25.6884 25.4959 25.1764C24.8239 25.1764 24.2639 24.6004 24.2639 23.9124C24.2639 23.2404 24.8239 22.6644 25.5119 22.6644C26.3279 22.6644 26.8559 23.4004 26.8559 24.4084C26.8559 25.2724 26.4079 26.1044 25.3199 27.2564ZM33.8038 25.1764C30.9718 25.1764 28.9878 22.8244 28.9878 19.4804C28.9878 16.1524 30.9718 13.8004 33.8038 13.8004C36.6198 13.8004 38.6198 16.1524 38.6198 19.4804C38.6198 22.8244 36.6198 25.1764 33.8038 25.1764ZM33.8038 23.3524C35.4358 23.3524 36.5718 21.7524 36.5718 19.4804C36.5718 17.2084 35.4358 15.6244 33.8038 15.6244C32.1718 15.6244 31.0198 17.2084 31.0198 19.4804C31.0198 21.7524 32.1718 23.3524 33.8038 23.3524ZM45.1006 25.1764C42.2686 25.1764 40.2846 22.8244 40.2846 19.4804C40.2846 16.1524 42.2686 13.8004 45.1006 13.8004C47.9166 13.8004 49.9166 16.1524 49.9166 19.4804C49.9166 22.8244 47.9166 25.1764 45.1006 25.1764ZM45.1006 23.3524C46.7326 23.3524 47.8686 21.7524 47.8686 19.4804C47.8686 17.2084 46.7326 15.6244 45.1006 15.6244C43.4686 15.6244 42.3166 17.2084 42.3166 19.4804C42.3166 21.7524 43.4686 23.3524 45.1006 23.3524ZM56.3975 25.1764C53.5655 25.1764 51.5815 22.8244 51.5815 19.4804C51.5815 16.1524 53.5655 13.8004 56.3975 13.8004C59.2135 13.8004 61.2135 16.1524 61.2135 19.4804C61.2135 22.8244 59.2135 25.1764 56.3975 25.1764ZM56.3975 23.3524C58.0295 23.3524 59.1655 21.7524 59.1655 19.4804C59.1655 17.2084 58.0295 15.6244 56.3975 15.6244C54.7655 15.6244 53.6135 17.2084 53.6135 19.4804C53.6135 21.7524 54.7655 23.3524 56.3975 23.3524Z" fill="#1E0060"/>
</svg>
