<?xml version="1.0" encoding="utf-8"?>
<!-- Generator: Adobe Illustrator 16.0.0, SVG Export Plug-In . SVG Version: 6.00 Build 0)  -->
<!DOCTYPE svg PUBLIC "-//W3C//DTD SVG 1.1//EN" "http://www.w3.org/Graphics/SVG/1.1/DTD/svg11.dtd">
<svg version="1.1" id="Layer_1" xmlns="http://www.w3.org/2000/svg" xmlns:xlink="http://www.w3.org/1999/xlink" x="0px" y="0px"
	 width="389.97px" height="547.35px" viewBox="0 0 389.97 547.35" enable-background="new 0 0 389.97 547.35" xml:space="preserve">
<g>
	<path d="M349.45,233.49l-132.06-75.88c-6.9-3.96-14.75-6.06-22.71-6.06c-8.03,0-15.94,2.13-22.88,6.16L40.05,234.13
		c-14.04,8.15-22.75,23.29-22.72,39.53l0.31,152.3c0.04,16.24,8.8,31.35,22.88,39.44l132.05,75.88c6.9,3.96,14.75,6.06,22.71,6.06
		c0,0,0,0,0,0c8.02,0,15.93-2.13,22.88-6.15l131.74-76.42c14.04-8.15,22.75-23.29,22.72-39.53l-0.31-152.3
		C372.29,256.7,363.53,241.58,349.45,233.49z M190.47,279.29l-45.81-26.05c-1.87-1.1-6.14-9.3,6.57-9.3h43.53h0.44h43.53
		c12.71,0,8.45,8.2,6.57,9.3l-45.81,26.05c-0.86,0.5-2.54,0.77-4.29,0.81v0.01c-0.07,0-0.15,0-0.22,0s-0.15,0-0.22,0v-0.01
		C193.01,280.06,191.33,279.79,190.47,279.29z M340.88,449.2l-131.74,76.42c-4.2,2.44-8.99,3.73-13.85,3.73c0,0,0,0,0,0
		c-4.82,0-9.57-1.27-13.74-3.67L49.49,449.8c-8.52-4.9-13.83-14.04-13.85-23.87l-0.31-152.3c0-0.64,0.02-1.27,0.06-1.9l144.54,82.19
		c6.18,3.61,25.44,3.61,31.62,0l142.75-81.18c0,0.08,0.01,0.15,0.01,0.23l0.31,152.3C354.65,435.1,349.38,444.27,340.88,449.2z"/>
	<path d="M319.57,339.87L209.35,403.8c-8.5,4.93-19.07,4.95-27.59,0.06L70.37,339.85c-4.31-2.48-9.81-0.99-12.29,3.32
		c-2.48,4.31-0.99,9.81,3.32,12.29l111.39,64.01c7.01,4.03,14.86,6.04,22.71,6.04c7.91,0,15.83-2.05,22.88-6.14l110.21-63.93
		c4.3-2.49,5.76-8,3.27-12.3C329.37,338.84,323.86,337.38,319.57,339.87z"/>
	<path d="M319.57,404.19l-110.21,63.93c-8.5,4.93-19.07,4.95-27.59,0.06L70.37,404.17c-4.31-2.48-9.81-0.99-12.29,3.32
		s-0.99,9.81,3.32,12.29l111.39,64.01c7.01,4.03,14.86,6.04,22.71,6.04c7.91,0,15.83-2.05,22.88-6.13l110.21-63.93
		c4.3-2.49,5.76-8,3.27-12.3C329.37,403.16,323.86,401.69,319.57,404.19z"/>
	<circle cx="43.67" cy="131.88" r="14.49"/>
	<circle cx="76.47" cy="164.69" r="15.82"/>
	<path d="M21.74,99.02c-0.03-6-4.93-10.84-10.93-10.81C4.8,88.25-0.03,93.14,0,99.15c0.03,6,4.93,10.84,10.93,10.81
		C16.93,109.92,21.77,105.02,21.74,99.02z"/>
	<circle cx="198.22" cy="57.26" r="14.48"/>
	<circle cx="198.22" cy="103.64" r="15.82"/>
	<path d="M205.95,18.51c4.22-4.27,4.18-11.15-0.09-15.37c-4.27-4.22-11.15-4.18-15.37,0.09c-4.22,4.27-4.18,11.15,0.09,15.37
		C194.85,22.82,201.73,22.78,205.95,18.51z"/>
	<circle cx="346.3" cy="132.8" r="14.48"/>
	<path d="M313.41,181.41c8.74,0.05,15.86-6.99,15.91-15.73c0.05-8.74-6.99-15.86-15.73-15.91c-8.73-0.05-15.86,6.99-15.9,15.73
		C297.63,174.24,304.67,181.36,313.41,181.41z"/>
	<circle cx="379.1" cy="100" r="10.87"/>
</g>
<g>
</g>
<g>
</g>
<g>
</g>
<g>
</g>
<g>
</g>
<g>
</g>
</svg>
