<svg width="588" height="263" viewBox="0 0 588 263" fill="none" xmlns="http://www.w3.org/2000/svg">
<line x1="588" y1="262.5" x2="3" y2="262.5" stroke="#0F0B47"/>
<path d="M35.392 125H49.408L32.512 81.032H18.496L1.6 125H15.616L17.856 119.112H33.152L35.392 125ZM21.376 109.96L25.536 99.272L29.632 109.96H21.376ZM65.272 125H77.688V101.448L94.84 125H107.256V81.032H94.84V104.584L77.688 81.032H65.272V125ZM126.184 125H138.6V101.448L155.752 125H168.168V81.032H155.752V104.584L138.6 81.032H126.184V125ZM207.129 125.768C219.417 125.768 228.057 117.384 228.057 105.48V81.032H215.641V104.84C215.641 110.472 212.121 114.504 207.129 114.504C202.137 114.504 198.617 110.472 198.617 104.84V81.032H186.201V105.48C186.201 117.384 194.841 125.768 207.129 125.768ZM276.854 125H290.87L273.974 81.032H259.958L243.062 125H257.078L259.318 119.112H274.614L276.854 125ZM262.838 109.96L266.998 99.272L271.094 109.96H262.838ZM319.151 113.928V81.032H306.735V125H339.631V113.928H319.151ZM22.848 208.768C33.856 208.768 40.96 203.328 40.96 194.048C40.96 185.664 34.56 182.912 24.32 180.736C18.048 179.392 16.512 178.688 16.512 176.448C16.512 174.784 17.984 173.568 20.992 173.568C24.96 173.568 29.44 175.04 33.536 177.984L39.744 169.216C34.88 165.312 28.928 163.264 21.312 163.264C10.88 163.264 3.968 168.96 3.968 177.728C3.968 186.88 11.328 189.376 20.864 191.552C26.944 192.96 28.48 193.28 28.48 195.392C28.48 197.312 26.688 198.464 23.296 198.464C18.112 198.464 13.248 196.608 8.768 193.088L1.856 201.344C7.424 206.272 14.912 208.768 22.848 208.768ZM77.679 208.768C89.967 208.768 98.607 200.384 98.607 188.48V164.032H86.191V187.84C86.191 193.472 82.671 197.504 77.679 197.504C72.687 197.504 69.167 193.472 69.167 187.84V164.032H56.751V188.48C56.751 200.384 65.391 208.768 77.679 208.768ZM155.532 208L145.229 193.344C150.924 190.976 154.572 185.92 154.572 179.392C154.572 170.368 147.597 164.032 137.74 164.032H116.684V208H129.1V194.752H132.108L141.388 208H155.532ZM129.1 175.296H136.716C139.66 175.296 141.772 177.024 141.772 179.392C141.772 181.76 139.66 183.488 136.716 183.488H129.1V175.296ZM202.82 164.032L192.964 189.76L183.044 164.032H169.028L185.924 208H199.94L216.836 164.032H202.82ZM268.214 175.104V164.032H232.822V208H268.214V196.928H245.238V191.104H266.166V180.032H245.238V175.104H268.214ZM299.871 208H312.287V193.536L329.119 164.032H315.487L306.079 181.888L297.183 164.032H282.975L299.871 193.536V208Z" fill="#0F0B47"/>
<path d="M14.832 38.432C7.704 38.432 1.656 32.564 1.656 25.616C1.656 18.668 7.704 12.836 14.832 12.836C18.576 12.836 21.996 14.42 24.408 16.976L20.556 20.432C19.152 18.776 17.064 17.66 14.832 17.66C10.656 17.66 7.128 21.332 7.128 25.616C7.128 29.936 10.656 33.608 14.832 33.608C17.1 33.608 19.152 32.492 20.556 30.836L24.408 34.292C21.996 36.812 18.576 38.432 14.832 38.432ZM34.0906 38V13.268H39.4186L51.3346 29.252V13.268H56.6626V38H51.3346L39.4186 22.016V38H34.0906ZM80.0187 38.432C72.8907 38.432 66.8427 32.564 66.8427 25.616C66.8427 18.668 72.8907 12.836 80.0187 12.836C83.7627 12.836 87.1827 14.42 89.5947 16.976L85.7427 20.432C84.3387 18.776 82.2507 17.66 80.0187 17.66C75.8427 17.66 72.3147 21.332 72.3147 25.616C72.3147 29.936 75.8427 33.608 80.0187 33.608C82.2867 33.608 84.3387 32.492 85.7427 30.836L89.5947 34.292C87.1827 36.812 83.7627 38.432 80.0187 38.432ZM118.321 18.056H104.605V23.42H117.061V28.208H104.605V38H99.2773V13.268H118.321V18.056ZM141.855 38V33.68L150.963 26.624C153.915 24.284 154.851 22.664 154.851 20.936C154.851 18.884 153.123 17.66 151.107 17.66C148.695 17.66 146.859 18.884 145.059 20.936L141.675 17.66C144.123 14.564 147.255 12.836 151.251 12.836C156.507 12.836 160.323 16.076 160.323 20.72C160.323 24.032 158.883 26.588 154.563 29.72L150.063 33.212H160.539V38H141.855ZM180.639 38.432C174.123 38.432 169.515 33.14 169.515 25.616C169.515 18.128 174.123 12.836 180.639 12.836C187.155 12.836 191.727 18.128 191.727 25.616C191.727 33.14 187.155 38.432 180.639 38.432ZM180.639 33.608C183.951 33.608 186.291 30.26 186.291 25.616C186.291 20.972 183.951 17.66 180.639 17.66C177.327 17.66 174.987 20.972 174.987 25.616C174.987 30.26 177.327 33.608 180.639 33.608ZM200.327 38V33.68L209.435 26.624C212.387 24.284 213.323 22.664 213.323 20.936C213.323 18.884 211.595 17.66 209.579 17.66C207.167 17.66 205.331 18.884 203.531 20.936L200.147 17.66C202.595 14.564 205.727 12.836 209.723 12.836C214.979 12.836 218.795 16.076 218.795 20.72C218.795 24.032 217.355 26.588 213.035 29.72L208.535 33.212H219.011V38H200.327ZM237.167 38.468C232.739 38.468 229.319 36.704 227.231 34.292L230.363 30.764C232.127 32.636 234.467 33.68 236.951 33.68C239.651 33.68 241.271 32.42 241.271 30.656C241.271 28.748 239.759 27.776 236.447 27.812H233.603V23.276L236.447 23.312C239.147 23.312 240.767 22.304 240.767 20.54C240.767 18.74 239.039 17.588 236.591 17.588C234.287 17.588 232.451 18.74 230.795 20.468L227.735 17.228C229.787 14.744 232.739 12.836 237.131 12.836C242.675 12.836 246.167 15.68 246.167 19.604C246.167 22.448 244.259 24.5 241.523 25.292C244.223 25.904 246.707 27.812 246.707 31.088C246.707 35.372 242.963 38.468 237.167 38.468Z" fill="#9E008E"/>
</svg>
