<svg fill="none" height="313" viewBox="0 0 331 313" width="331" xmlns="http://www.w3.org/2000/svg"><path d="m33.7285 164.712h293.6415" stroke="#b0b0b0" stroke-width=".5"/><path d="m33.7285 182.323h293.6415" stroke="#b0b0b0" stroke-width=".5"/><path d="m33.7285 147.1h293.6415" stroke="#b0b0b0" stroke-width=".5"/><path d="m33.7285 129.488h293.6415" stroke="#b0b0b0" stroke-width=".5"/><path d="m33.7285 111.861h293.6415" stroke="#b0b0b0" stroke-width=".5"/><path d="m33.7285 94.2571h293.6415" stroke="#b0b0b0" stroke-width=".5"/><path d="m33.7285 76.6531h293.6415" stroke="#b0b0b0" stroke-width=".5"/><path d="m33.7285 59.0337h293.6415" stroke="#b0b0b0" stroke-width=".5"/><path d="m33.7285 41.4297h293.6415" stroke="#b0b0b0" stroke-width=".5"/><path d="m33.7285 23.8025h293.6415" stroke="#b0b0b0" stroke-width=".5"/><path d="m33.7285 6.19092h293.6415" stroke="#b0b0b0" stroke-width=".5"/><path d="m51 6v184.795" stroke="#b0b0b0" stroke-width=".5"/><path d="m85 6.19092v184.79508" stroke="#b0b0b0" stroke-width=".5"/><path d="m119 6.19092v184.79508" stroke="#b0b0b0" stroke-width=".5"/><path d="m153 6.19092v184.79508" stroke="#b0b0b0" stroke-width=".5"/><path d="m187 6.19092v184.79508" stroke="#b0b0b0" stroke-width=".5"/><path d="m255 6.19092v184.79508" stroke="#b0b0b0" stroke-width=".5"/><path d="m323 6v184.795" stroke="#b0b0b0" stroke-width=".5"/><path d="m289 6.19092v184.79508" stroke="#b0b0b0" stroke-width=".5"/><path d="m221 6.19092v184.79508" stroke="#b0b0b0" stroke-width=".5"/><g fill="#000"><path d="m17.9239 10.5176v-4.53602l-.952.608-.336-.584 1.448-.984h.648v5.49602zm4.3909.096c-1.384 0-2.352-1.17602-2.352-2.84802 0-1.664.968-2.84 2.352-2.84 1.368 0 2.336 1.176 2.336 2.84 0 1.672-.968 2.84802-2.336 2.84802zm0-.74402c.888 0 1.512-.872 1.512-2.104s-.624-2.096-1.512-2.096c-.896 0-1.528.864-1.528 2.096s.632 2.104 1.528 2.104z"/><path d="m22.4605 21.7044c1.528 0 2.168 1.192 2.168 2.76 0 1.664-.984 2.928-2.32 2.928-.68 0-1.184-.256-1.6-.632l.416-.624c.336.312.688.528 1.192.528.832 0 1.456-.904 1.488-2.112-.336.456-.888.72-1.488.72-1.008 0-1.848-.632-1.848-1.72 0-1.056.832-1.848 1.992-1.848zm.04 2.888c.608 0 1.088-.352 1.24-.88-.136-.792-.528-1.32-1.256-1.32-.744 0-1.192.568-1.192 1.12 0 .672.544 1.08 1.208 1.08z"/><path d="m22.5811 45.1585c-1.16 0-2.072-.6-2.072-1.544 0-.68.512-1.168 1.168-1.392-.6-.24-1.024-.656-1.024-1.28 0-.936.936-1.472 1.928-1.472 1.024 0 1.936.56 1.936 1.472 0 .656-.464 1.064-1.024 1.28.656.232 1.16.72 1.16 1.392 0 .952-.92 1.544-2.072 1.544zm0-3.24c.504-.032 1.128-.336 1.128-.888 0-.488-.496-.848-1.128-.848s-1.12.36-1.12.848c0 .568.632.856 1.12.888zm0 2.528c.704 0 1.256-.368 1.256-.904 0-.584-.712-.936-1.256-.952-.536.016-1.256.368-1.256.952 0 .536.552.904 1.256.904z"/><path d="m21.6186 62.8284 2.296-4.744h-2.896v-.752h3.848v.608l-2.32 4.888z"/><path d="m22.8765 77.1222c1.008 0 1.848.632 1.848 1.72 0 1.056-.832 1.848-1.992 1.848-1.528 0-2.168-1.192-2.168-2.76 0-1.664.984-2.928 2.32-2.928.68 0 1.184.256 1.6.632l-.416.624c-.336-.312-.688-.528-1.192-.528-.832 0-1.456.904-1.488 2.112.336-.456.888-.72 1.488-.72zm-.168 2.88c.744 0 1.192-.568 1.192-1.12 0-.672-.544-1.08-1.208-1.08-.608 0-1.088.352-1.24.88.136.792.528 1.32 1.256 1.32z"/><path d="m22.6799 98.4561c-.872 0-1.536-.352-2-.864l.504-.576c.416.44.928.728 1.512.728.712 0 1.2-.48 1.2-1.096 0-.632-.496-1.056-1.208-1.056-.456 0-.84.152-1.168.4l-.568-.256.08-2.872h3.376v.752h-2.608l-.048 1.632c.288-.192.656-.352 1.136-.352.992 0 1.816.624 1.816 1.72 0 1.112-.84 1.84-2.024 1.84z"/><path d="m23.273 116.126v-1.264h-2.728l-.088-.648 2.664-3.584h.96v3.52h.792v.712h-.792v1.264zm-1.928-1.976h1.928v-2.6z"/><path d="m22.6542 133.001c-.936 0-1.648-.408-2.072-.936l.52-.536c.368.448.904.744 1.536.744.712 0 1.168-.376 1.168-.928 0-.568-.48-.864-1.296-.856h-.6v-.72l.6.008c.696 0 1.184-.304 1.184-.856 0-.512-.48-.88-1.12-.88-.576 0-1 .288-1.384.736l-.504-.496c.424-.552 1.048-.968 1.944-.968 1.112 0 1.88.616 1.88 1.496 0 .68-.472 1.104-1.048 1.28.568.128 1.168.544 1.168 1.312 0 .928-.784 1.6-1.976 1.6z"/><path d="m20.7476 150.671v-.664l2.016-1.664c.736-.616 1.016-1.088 1.016-1.584 0-.6-.496-.952-1.04-.952-.6 0-1.04.32-1.424.816l-.544-.48c.48-.664 1.128-1.064 2-1.064 1.024 0 1.84.664 1.84 1.664 0 .736-.352 1.32-1.296 2.088l-1.288 1.088h2.632v.752z"/><path d="m23.5101 168.437v-4.536l-.952.608-.336-.584 1.448-.984h.648v5.496z"/><path d="m22.3145 186.299c-1.384 0-2.352-1.176-2.352-2.848 0-1.664.968-2.84 2.352-2.84 1.368 0 2.336 1.176 2.336 2.84 0 1.672-.968 2.848-2.336 2.848zm0-.744c.888 0 1.512-.872 1.512-2.104s-.624-2.096-1.512-2.096c-.896 0-1.528.864-1.528 2.096s.632 2.104 1.528 2.104z"/><path d="m122 303.153h-6.183v-2.601c0-1.296.837-2.295 2.016-2.295s2.016.999 2.016 2.295v1.692h2.151zm-2.997-.909v-1.557c0-.891-.441-1.503-1.17-1.503s-1.17.612-1.17 1.503v1.557zm-1.656-8.221v-.891h4.653v.891h-.666c.459.279.774.846.774 1.485 0 1.026-.729 1.737-1.8 1.737h-2.961v-.873h2.808c.702 0 1.179-.441 1.179-1.071 0-.711-.486-1.278-1.098-1.278zm-.108-4.926c0-1.224 1.008-2.133 2.43-2.133 1.431 0 2.439.909 2.439 2.133 0 .729-.351 1.314-.936 1.674h.828v.891h-6.291v-.891h2.466c-.585-.36-.936-.945-.936-1.674zm4.095.216c0-.846-.693-1.449-1.665-1.449s-1.656.603-1.656 1.449.684 1.44 1.656 1.44 1.665-.594 1.665-1.44zm.666-3.478h-6.291v-.891h6.291zm-5.427-2.797c0 .297-.252.54-.54.54-.279 0-.531-.243-.531-.54s.252-.531.531-.531c.288 0 .54.234.54.531zm5.427.45h-4.653v-.891h4.653zm.108-4.417c0 1.332-1.116 2.457-2.439 2.457s-2.43-1.134-2.43-2.457c0-.675.279-1.269.72-1.719l.558.603c-.315.288-.504.693-.504 1.116 0 .846.756 1.557 1.656 1.557.909 0 1.665-.711 1.665-1.557 0-.432-.198-.846-.522-1.143l.549-.603c.459.45.747 1.053.747 1.746zm1.125-3.234-.288.378c-.27-.252-.558-.423-.837-.495 0 .324-.27.585-.603.585-.315 0-.594-.252-.594-.594 0-.396.36-.657.855-.657.423 0 .81.207 1.467.783zm-1.233-4.966h-6.183v-2.601c0-1.296.837-2.295 2.016-2.295s2.016.999 2.016 2.295v1.692h2.151zm-2.997-.909v-1.557c0-.891-.441-1.503-1.17-1.503s-1.17.612-1.17 1.503v1.557zm-.747-5.989c-.621-.288-1.017-.918-1.017-1.728h.774c0 1.026.612 1.728 1.512 1.728h2.475v.891h-4.653v-.891zm-1.683-3.224c0 .297-.252.54-.54.54-.279 0-.531-.243-.531-.54s.252-.531.531-.531c.288 0 .54.234.54.531zm5.427.45h-4.653v-.891h4.653zm0-3.706-4.653 1.989v-.954l3.618-1.449-3.618-1.422v-.963l4.653 1.962zm-4.761-5.388c0-1.251.792-1.944 1.944-1.944h2.817v.873h-.63c.477.342.738.972.738 1.548 0 .981-.576 1.719-1.485 1.719-.927 0-1.548-.837-1.548-1.863 0-.459.099-.954.252-1.404h-.144c-.585 0-1.206.27-1.206 1.197 0 .459.18.9.387 1.305l-.657.333c-.333-.666-.468-1.251-.468-1.764zm4.167.297c0-.576-.288-1.215-.864-1.368h-.621c-.117.387-.18.81-.18 1.269 0 .621.351 1.143.855 1.143s.81-.45.81-1.044zm-.243-5.594.612-.333c.207.252.333.603.333.936 0 .72-.522 1.224-1.269 1.224h-2.736v.693h-.756v-.693h-1.278v-.873h1.278v-1.098h.756v1.098h2.673c.324 0 .558-.225.558-.486 0-.198-.072-.378-.171-.468zm.207-3.288c0-.504-.225-1.089-.531-1.377l.549-.522c.441.405.72 1.224.72 1.881 0 1.287-1.017 2.403-2.448 2.403-1.395 0-2.421-1.053-2.421-2.34 0-1.422 1.062-2.25 2.718-2.25v3.717c.819-.108 1.413-.684 1.413-1.512zm-3.393.027c0 .747.522 1.341 1.323 1.476v-2.844c-.747.09-1.323.558-1.323 1.368zm3.753-10.956.36.792c-.279.279-.54.531-.774.756.495.513.792 1.116.792 1.863 0 1.125-.666 1.989-1.764 1.989-.801 0-1.359-.441-1.782-1.395-.486.351-.873.495-1.332.495-.828 0-1.485-.684-1.485-1.629 0-.891.657-1.557 1.476-1.557.774 0 1.152.558 1.548 1.476.423-.369.855-.756 1.386-1.26-.387-.261-.828-.486-1.305-.666l.324-.711c.567.261 1.08.549 1.521.864zm-5.274 2.862c0 .459.297.819.774.819.315 0 .63-.153 1.017-.459-.297-.756-.54-1.08-1.017-1.08-.432 0-.774.297-.774.72zm4.914.477c0-.459-.225-.891-.585-1.278-.702.675-1.215 1.134-1.674 1.521.297.594.693.927 1.197.927.666 0 1.062-.531 1.062-1.17zm-5.553-11.477v-.909h6.183v.909h-2.727v3.366h2.727v.909h-6.183v-.909h2.61v-3.366zm7.803-3.162c0 .315-.072.639-.198.882l-.684-.198c.099-.18.144-.387.144-.567 0-.288-.09-.486-.36-.639l-.495-.234-4.68 1.998v-.954l3.672-1.494-3.672-1.413v-.927l5.076 2.052c.837.333 1.188.828 1.197 1.494zm-6.381-6.945c0-1.224 1.008-2.133 2.43-2.133 1.431 0 2.439.909 2.439 2.133 0 .729-.351 1.314-.936 1.674h.828v.891h-6.291v-.891h2.466c-.585-.36-.936-.945-.936-1.674zm4.095.216c0-.846-.693-1.449-1.665-1.449s-1.656.603-1.656 1.449.684 1.44 1.656 1.44 1.665-.594 1.665-1.44zm-3.078-4.369c-.621-.288-1.017-.918-1.017-1.728h.774c0 1.026.612 1.728 1.512 1.728h2.475v.891h-4.653v-.891zm-1.683-3.225c0 .297-.252.54-.54.54-.279 0-.531-.243-.531-.54s.252-.531.531-.531c.288 0 .54.234.54.531zm5.427.45h-4.653v-.891h4.653zm-6.291-5.802v-.891h6.291v.891h-.792c.558.36.9.936.9 1.647 0 1.233-1.008 2.142-2.439 2.142-1.422 0-2.43-.909-2.43-2.142 0-.711.342-1.287.9-1.647zm5.625 1.44c0-.846-.693-1.44-1.665-1.44s-1.656.594-1.656 1.44.684 1.449 1.656 1.449 1.665-.603 1.665-1.449z"/><path d="m11 166.482-1.296.568v3.152l1.296.568v.56l-5.496-2.424v-.56l5.496-2.424zm-1.792 3.496v-2.704l-3.072 1.352zm1.792-6.078-4.136 1.8v-.552l3.504-1.472-3.504-1.456v-.552l4.136 1.784zm-.36-4.708c0-.52-.208-1.096-.52-1.376l.336-.312c.384.352.64 1.08.64 1.68 0 1.104-.936 2.08-2.176 2.08-1.224 0-2.152-.92-2.152-2.04 0-1.224.936-1.96 2.36-1.96v3.496c.856-.088 1.512-.72 1.512-1.568zm-3.416.016c0 .8.592 1.44 1.448 1.544v-3c-.832.072-1.448.584-1.448 1.456zm.504-3.496c-.568-.224-.96-.832-.96-1.6h.456c0 .936.608 1.6 1.464 1.6h2.312v.496h-4.136v-.496zm-.96-3.999c0-1.088.712-1.656 1.712-1.656h2.52v.496h-.656c.488.304.752.96.752 1.52 0 .864-.52 1.504-1.32 1.504-.816 0-1.376-.712-1.376-1.64 0-.448.104-.944.248-1.384h-.168c-.608 0-1.272.272-1.272 1.2 0 .416.16.848.368 1.224l-.408.2c-.288-.544-.4-1.056-.4-1.464zm3.88.28c0-.576-.304-1.28-.944-1.44h-.664c-.12.392-.208.848-.208 1.312 0 .688.384 1.224.92 1.224.552 0 .896-.48.896-1.096zm-3.784-6.341v-.496h3.696c1.064 0 1.816.824 1.816 1.984 0 .648-.232 1.296-.552 1.672l-.4-.224c.304-.336.496-.872.496-1.384 0-.952-.52-1.552-1.36-1.552h-.768c.576.32.904.896.904 1.584 0 1.064-.84 1.872-1.968 1.872-1.12 0-1.96-.808-1.96-1.872 0-.704.328-1.264.896-1.584zm3.376 1.488c0-.856-.624-1.488-1.512-1.488-.88 0-1.504.632-1.504 1.488 0 .824.648 1.448 1.504 1.448.864 0 1.512-.624 1.512-1.448zm.4-5.136c0-.52-.208-1.096-.52-1.376l.336-.312c.384.352.64 1.08.64 1.68 0 1.104-.936 2.08-2.176 2.08-1.224 0-2.152-.92-2.152-2.04 0-1.224.936-1.96 2.36-1.96v3.496c.856-.088 1.512-.72 1.512-1.568zm-3.416.016c0 .8.592 1.44 1.448 1.544v-3c-.832.072-1.448.584-1.448 1.456zm.176-9.506v.984l1.712.432v-.984l.424.104v.984l1.464.368v.448l-1.464-.368v1.28l1.464.368v.448l-1.464-.368v.944l-.424-.104v-.944l-1.712-.432v.952l-.424-.104v-.96l-1.472-.368v-.448l1.472.368v-1.28l-1.472-.368v-.448l1.472.368v-.976zm1.712 1.864-1.712-.432v1.28l1.712.432zm-2.248-8.103v-.496h4.136v.496h-.688c.464.224.784.752.784 1.36 0 .92-.64 1.552-1.576 1.552h-2.656v-.496h2.592c.704 0 1.184-.464 1.184-1.12 0-.728-.496-1.296-1.144-1.296zm-.096-3.806c0-.92.64-1.552 1.576-1.552h2.656v.496h-2.592c-.704 0-1.184.464-1.184 1.12 0 .728.496 1.296 1.144 1.296h2.632v.496h-4.136v-.496h.688c-.464-.224-.784-.752-.784-1.36zm-.712-3.158c0 .192-.152.344-.344.344-.184 0-.344-.152-.344-.344s.16-.344.344-.344c.192 0 .344.152.344.344zm4.944.248h-4.136v-.496h4.136zm-4.136-5.049v-.496h5.512v.496h-2.184c.56.32.904.864.904 1.552 0 1.056-.928 1.888-2.168 1.888-1.232 0-2.16-.832-2.16-1.888 0-.688.344-1.232.904-1.552zm3.776 1.456c0-.848-.712-1.456-1.712-1.456s-1.704.608-1.704 1.456c0 .832.728 1.464 1.704 1.464s1.712-.632 1.712-1.464zm-3.776-6.223v-.496h4.136v.496h-.688c.464.224.784.752.784 1.36 0 .92-.64 1.552-1.576 1.552h-2.656v-.496h2.592c.704 0 1.184-.464 1.184-1.12 0-.728-.496-1.296-1.144-1.296zm3.776-3.645c0-.52-.208-1.096-.52-1.376l.336-.312c.384.352.64 1.08.64 1.68 0 1.104-.936 2.08-2.176 2.08-1.224 0-2.152-.92-2.152-2.04 0-1.224.936-1.96 2.36-1.96v3.496c.856-.088 1.512-.72 1.512-1.568zm-3.416.016c0 .8.592 1.44 1.448 1.544v-3c-.832.072-1.448.584-1.448 1.456zm3.872-6.9547c0 1.1757-.96 2.1197-2.168 2.1197s-2.16-.944-2.16-2.1197c0-.552.232-1.072.608-1.456l.336.352c-.304.28-.488.68-.488 1.104 0 .8957.752 1.5997 1.704 1.5997.96 0 1.712-.704 1.712-1.5997 0-.432-.192-.832-.504-1.128l.336-.344c.384.384.624.904.624 1.472zm-.096-2.3892h-5.592v-.496h5.592zm.096-3.6969c0 1.168-.984 2.136-2.168 2.136s-2.16-.968-2.16-2.136.976-2.136 2.16-2.136 2.168.968 2.168 2.136zm-.456 0c0-.888-.776-1.624-1.712-1.624s-1.704.736-1.704 1.624.768 1.624 1.704 1.624 1.712-.736 1.712-1.624zm-3.776-6.0173v-.496h4.136v.496h-.688c.464.224.784.752.784 1.36 0 .92-.64 1.552-1.576 1.552h-2.656v-.496h2.592c.704 0 1.184-.464 1.184-1.12 0-.728-.496-1.296-1.144-1.296zm-1.456-5.0376v-.496h5.592v.496h-.808c.56.32.904.864.904 1.552 0 1.056-.928 1.888-2.168 1.888-1.232 0-2.16-.832-2.16-1.888 0-.688.344-1.232.904-1.552zm5.232 1.456c0-.848-.712-1.456-1.712-1.456s-1.704.608-1.704 1.456c0 .832.728 1.464 1.704 1.464s1.712-.632 1.712-1.464zm.456-6.8658c0 .576-.224 1.216-.616 1.712l-.368-.272c.344-.472.528-.976.528-1.44 0-.576-.288-.992-.688-.992-.448 0-.64.432-.84 1.096-.288.992-.6 1.376-1.184 1.376-.688 0-1.16-.624-1.16-1.416 0-.504.176-1.04.464-1.48l.384.248c-.256.408-.392.84-.392 1.232 0 .504.248.92.648.92.376 0 .544-.32.808-1.12.24-.768.504-1.352 1.224-1.352.704 0 1.192.656 1.192 1.488zm-.456-4.2607c0-.52-.208-1.096-.52-1.376l.336-.312c.384.352.64 1.08.64 1.68 0 1.104-.936 2.08-2.176 2.08-1.224 0-2.152-.92-2.152-2.04 0-1.224.936-1.96 2.36-1.96v3.496c.856-.088 1.512-.72 1.512-1.568zm-3.416.016c0 .8.592 1.44 1.448 1.544v-3c-.832.072-1.448.584-1.448 1.456zm.504-3.4957c-.568-.224-.96-.832-.96-1.6h.456c0 .936.608 1.6 1.464 1.6h2.312v.496h-4.136v-.496zm3.272-3.6867-4.136 1.8v-.552l3.504-1.472-3.504-1.456v-.552l4.136 1.784zm-4.944-3.2606c0 .192-.152.344-.344.344-.184 0-.344-.152-.344-.344s.16-.344.344-.344c.192 0 .344.152.344.344zm4.944.248h-4.136v-.496h4.136zm.096-3.697c0 1.176-.96 2.12-2.168 2.12s-2.16-.944-2.16-2.12c0-.552.232-1.072.608-1.456l.336.352c-.304.28-.488.68-.488 1.104 0 .896.752 1.6 1.704 1.6.96 0 1.712-.704 1.712-1.6 0-.432-.192-.832-.504-1.128l.336-.344c.384.384.624.904.624 1.472zm-.456-4.0772c0-.52-.208-1.096-.52-1.376l.336-.312c.384.352.64 1.08.64 1.68 0 1.104-.936 2.08-2.176 2.08-1.224 0-2.152-.92-2.152-2.04 0-1.224.936-1.96 2.36-1.96v3.496c.856-.088 1.512-.72 1.512-1.568zm-3.416.016c0 .8.592 1.44 1.448 1.544v-3c-.832.072-1.448.584-1.448 1.456zm-.456-7.2664c0-1.064.928-1.888 2.16-1.888 1.24 0 2.168.824 2.168 1.888 0 .68-.344 1.224-.904 1.544h2.184v.496h-5.512v-.496h.808c-.56-.32-.904-.864-.904-1.544zm3.872.096c0-.832-.736-1.464-1.712-1.464s-1.704.632-1.704 1.464c0 .848.704 1.448 1.704 1.448s1.712-.6 1.712-1.448zm-2.912-3.5831c-.568-.224-.96-.832-.96-1.6h.456c0 .936.608 1.6 1.464 1.6h2.312v.496h-4.136v-.496zm3.368-4.3026c0 1.168-.984 2.136-2.168 2.136s-2.16-.968-2.16-2.136.976-2.136 2.16-2.136 2.168.968 2.168 2.136zm-.456 0c0-.888-.776-1.624-1.712-1.624s-1.704.736-1.704 1.624.768 1.624 1.704 1.624 1.712-.736 1.712-1.624zm.36-4.3294-4.136 1.8v-.552l3.504-1.472-3.504-1.456v-.552l4.136 1.784zm-4.944-3.2606c0 .192-.152.344-.344.344-.184 0-.344-.152-.344-.344s.16-.344.344-.344c.192 0 .344.152.344.344zm4.944.248h-4.136v-.496h4.136zm-5.592-5.0489v-.496h5.592v.496h-.808c.56.32.904.864.904 1.552 0 1.056-.928 1.888-2.168 1.888-1.232 0-2.16-.832-2.16-1.888 0-.688.344-1.232.904-1.552zm5.232 1.456c0-.848-.712-1.456-1.712-1.456s-1.704.608-1.704 1.456c0 .832.728 1.464 1.704 1.464s1.712-.632 1.712-1.464zm0-5.1031c0-.52-.208-1.096-.52-1.376l.336-.312c.384.352.64 1.08.64 1.68 0 1.104-.936 2.08-2.176 2.08-1.224 0-2.152-.92-2.152-2.04 0-1.224.936-1.96 2.36-1.96v3.496c.856-.088 1.512-.72 1.512-1.568zm-3.416.016c0 .8.592 1.44 1.448 1.544v-3c-.832.072-1.448.584-1.448 1.456zm.504-3.4957c-.568-.224-.96-.832-.96-1.6h.456c0 .936.608 1.6 1.464 1.6h2.312v.496h-4.136v-.496zm3.368-3.7987c0 .576-.224 1.216-.616 1.712l-.368-.272c.344-.472.528-.976.528-1.44 0-.576-.288-.992-.688-.992-.448 0-.64.432-.84 1.096-.288.992-.6 1.376-1.184 1.376-.688 0-1.16-.624-1.16-1.416 0-.504.176-1.04.464-1.48l.384.248c-.256.408-.392.84-.392 1.232 0 .504.248.92.648.92.376 0 .544-.32.808-1.12.24-.768.504-1.352 1.224-1.352.704 0 1.192.656 1.192 1.488z"/><path d="m54 226.029h-6.183v-2.601c0-1.296.837-2.295 2.016-2.295s2.016.999 2.016 2.295v1.692h2.151zm-2.997-.909v-1.557c0-.891-.441-1.503-1.17-1.503s-1.17.612-1.17 1.503v1.557zm-1.656-8.221v-.891h4.653v.891h-.666c.459.279.774.846.774 1.485 0 1.026-.729 1.737-1.8 1.737h-2.961v-.873h2.808c.702 0 1.179-.441 1.179-1.071 0-.711-.486-1.278-1.098-1.278zm-.108-4.926c0-1.224 1.008-2.133 2.43-2.133 1.431 0 2.439.909 2.439 2.133 0 .729-.351 1.314-.936 1.674h.828v.891h-6.291v-.891h2.466c-.585-.36-.936-.945-.936-1.674zm4.095.216c0-.846-.693-1.449-1.665-1.449s-1.656.603-1.656 1.449.684 1.44 1.656 1.44 1.665-.594 1.665-1.44zm.666-3.479h-6.291v-.891h6.291zm-5.427-2.796c0 .297-.252.54-.54.54-.279 0-.531-.243-.531-.54s.252-.531.531-.531c.288 0 .54.234.54.531zm5.427.45h-4.653v-.891h4.653zm.108-4.417c0 1.332-1.116 2.457-2.439 2.457s-2.43-1.134-2.43-2.457c0-.675.279-1.269.72-1.719l.558.603c-.315.288-.504.693-.504 1.116 0 .846.756 1.557 1.656 1.557.909 0 1.665-.711 1.665-1.557 0-.432-.198-.846-.522-1.143l.549-.603c.459.45.747 1.053.747 1.746z"/><path d="m81.817 224.453v-.909h6.183v.909h-2.727v3.366h2.727v.909h-6.183v-.909h2.61v-3.366zm7.803-3.162c0 .315-.072.639-.198.882l-.684-.198c.099-.18.144-.387.144-.567 0-.288-.09-.486-.36-.639l-.495-.234-4.68 1.998v-.954l3.672-1.494-3.672-1.413v-.927l5.076 2.052c.837.333 1.188.828 1.197 1.494zm-6.381-6.945c0-1.224 1.008-2.133 2.43-2.133 1.431 0 2.439.909 2.439 2.133 0 .729-.351 1.314-.936 1.674h.828v.891h-6.291v-.891h2.466c-.585-.36-.936-.945-.936-1.674zm4.095.216c0-.846-.693-1.449-1.665-1.449s-1.656.603-1.656 1.449.684 1.44 1.656 1.44 1.665-.594 1.665-1.44zm-3.078-4.369c-.621-.288-1.017-.918-1.017-1.728h.774c0 1.026.612 1.728 1.512 1.728h2.475v.891h-4.653v-.891zm-1.683-3.224c0 .297-.252.54-.54.54-.279 0-.531-.243-.531-.54s.252-.531.531-.531c.288 0 .54.234.54.531zm5.427.45h-4.653v-.891h4.653zm-6.291-5.803v-.891h6.291v.891h-.792c.558.36.9.936.9 1.647 0 1.233-1.008 2.142-2.439 2.142-1.422 0-2.43-.909-2.43-2.142 0-.711.342-1.287.9-1.647zm5.625 1.44c0-.846-.693-1.44-1.665-1.44s-1.656.594-1.656 1.44.684 1.449 1.656 1.449 1.665-.603 1.665-1.449z"/><path d="m155 268.173h-6.183v-2.601c0-1.296.837-2.295 2.016-2.295s2.016.999 2.016 2.295v1.692h2.151zm-2.997-.909v-1.557c0-.891-.441-1.503-1.17-1.503s-1.17.612-1.17 1.503v1.557zm-1.656-8.221v-.891h4.653v.891h-.666c.459.279.774.846.774 1.485 0 1.026-.729 1.737-1.8 1.737h-2.961v-.873h2.808c.702 0 1.179-.441 1.179-1.071 0-.711-.486-1.278-1.098-1.278zm-.108-4.927c0-1.224 1.008-2.133 2.43-2.133 1.431 0 2.439.909 2.439 2.133 0 .729-.351 1.314-.936 1.674h.828v.891h-6.291v-.891h2.466c-.585-.36-.936-.945-.936-1.674zm4.095.216c0-.846-.693-1.449-1.665-1.449s-1.656.603-1.656 1.449.684 1.44 1.656 1.44 1.665-.594 1.665-1.44zm.666-3.478h-6.291v-.891h6.291zm-5.427-2.797c0 .297-.252.54-.54.54-.279 0-.531-.243-.531-.54s.252-.531.531-.531c.288 0 .54.234.54.531zm5.427.45h-4.653v-.891h4.653zm.108-4.416c0 1.332-1.116 2.457-2.439 2.457s-2.43-1.134-2.43-2.457c0-.675.279-1.269.72-1.719l.558.603c-.315.288-.504.693-.504 1.116 0 .846.756 1.557 1.656 1.557.909 0 1.665-.711 1.665-1.557 0-.432-.198-.846-.522-1.143l.549-.603c.459.45.747 1.053.747 1.746zm-.378-10.357.36.792c-.279.279-.54.531-.774.756.495.513.792 1.116.792 1.863 0 1.125-.666 1.989-1.764 1.989-.801 0-1.359-.441-1.782-1.395-.486.351-.873.495-1.332.495-.828 0-1.485-.684-1.485-1.629 0-.891.657-1.557 1.476-1.557.774 0 1.152.558 1.548 1.476.423-.369.855-.756 1.386-1.26-.387-.261-.828-.486-1.305-.666l.324-.711c.567.261 1.08.549 1.521.864zm-5.274 2.862c0 .459.297.819.774.819.315 0 .63-.153 1.017-.459-.297-.756-.54-1.08-1.017-1.08-.432 0-.774.297-.774.72zm4.914.477c0-.459-.225-.891-.585-1.278-.702.675-1.215 1.134-1.674 1.521.297.594.693.927 1.197.927.666 0 1.062-.531 1.062-1.17zm.63-7.203h-6.183v-2.601c0-1.296.837-2.295 2.016-2.295s2.016.999 2.016 2.295v1.692h2.151zm-2.997-.909v-1.557c0-.891-.441-1.503-1.17-1.503s-1.17.612-1.17 1.503v1.557zm-.747-5.989c-.621-.288-1.017-.918-1.017-1.728h.774c0 1.026.612 1.728 1.512 1.728h2.475v.891h-4.653v-.891zm-1.683-3.224c0 .297-.252.54-.54.54-.279 0-.531-.243-.531-.54s.252-.531.531-.531c.288 0 .54.234.54.531zm5.427.45h-4.653v-.891h4.653zm0-3.706-4.653 1.989v-.954l3.618-1.449-3.618-1.422v-.963l4.653 1.962zm-4.761-5.388c0-1.251.792-1.944 1.944-1.944h2.817v.873h-.63c.477.342.738.972.738 1.548 0 .981-.576 1.719-1.485 1.719-.927 0-1.548-.837-1.548-1.863 0-.459.099-.954.252-1.404h-.144c-.585 0-1.206.27-1.206 1.197 0 .459.18.9.387 1.305l-.657.333c-.333-.666-.468-1.251-.468-1.764zm4.167.297c0-.576-.288-1.215-.864-1.368h-.621c-.117.387-.18.81-.18 1.269 0 .621.351 1.143.855 1.143s.81-.45.81-1.044zm-.243-5.594.612-.333c.207.252.333.603.333.936 0 .72-.522 1.224-1.269 1.224h-2.736v.693h-.756v-.693h-1.278v-.873h1.278v-1.098h.756v1.098h2.673c.324 0 .558-.225.558-.486 0-.198-.072-.378-.171-.468zm.207-3.288c0-.504-.225-1.089-.531-1.377l.549-.522c.441.405.72 1.224.72 1.881 0 1.287-1.017 2.403-2.448 2.403-1.395 0-2.421-1.053-2.421-2.34 0-1.422 1.062-2.25 2.718-2.25v3.717c.819-.108 1.413-.684 1.413-1.512zm-3.393.027c0 .747.522 1.341 1.323 1.476v-2.844c-.747.09-1.323.558-1.323 1.368z"/><path d="m189 229.87h-6.183v-2.601c0-1.296.837-2.295 2.016-2.295s2.016.999 2.016 2.295v1.692h2.151zm-2.997-.909v-1.557c0-.891-.441-1.503-1.17-1.503s-1.17.612-1.17 1.503v1.557zm-.747-5.989c-.621-.288-1.017-.918-1.017-1.728h.774c0 1.026.612 1.728 1.512 1.728h2.475v.891h-4.653v-.891zm-1.683-3.224c0 .297-.252.54-.54.54-.279 0-.531-.243-.531-.54s.252-.531.531-.531c.288 0 .54.234.54.531zm5.427.45h-4.653v-.891h4.653zm0-3.706-4.653 1.989v-.954l3.618-1.449-3.618-1.422v-.963l4.653 1.962zm-4.761-5.388c0-1.251.792-1.944 1.944-1.944h2.817v.873h-.63c.477.342.738.972.738 1.548 0 .981-.576 1.719-1.485 1.719-.927 0-1.548-.837-1.548-1.863 0-.459.099-.954.252-1.404h-.144c-.585 0-1.206.27-1.206 1.197 0 .459.18.9.387 1.305l-.657.333c-.333-.666-.468-1.251-.468-1.764zm4.167.297c0-.576-.288-1.215-.864-1.368h-.621c-.117.387-.18.81-.18 1.269 0 .621.351 1.143.855 1.143s.81-.45.81-1.044zm-.243-5.594.612-.333c.207.252.333.603.333.936 0 .72-.522 1.224-1.269 1.224h-2.736v.693h-.756v-.693h-1.278v-.873h1.278v-1.098h.756v1.098h2.673c.324 0 .558-.225.558-.486 0-.198-.072-.378-.171-.468zm.207-3.288c0-.504-.225-1.089-.531-1.377l.549-.522c.441.405.72 1.224.72 1.881 0 1.287-1.017 2.403-2.448 2.403-1.395 0-2.421-1.053-2.421-2.34 0-1.422 1.062-2.25 2.718-2.25v3.717c.819-.108 1.413-.684 1.413-1.512zm-3.393.027c0 .747.522 1.341 1.323 1.476v-2.844c-.747.09-1.323.558-1.323 1.368z"/><path d="m222 270.871h-6.183v-2.601c0-1.296.837-2.295 2.016-2.295s2.016.999 2.016 2.295v1.692h2.151zm-2.997-.909v-1.557c0-.891-.441-1.503-1.17-1.503s-1.17.612-1.17 1.503v1.557zm-.747-5.989c-.621-.288-1.017-.918-1.017-1.728h.774c0 1.026.612 1.728 1.512 1.728h2.475v.891h-4.653v-.891zm-1.683-3.224c0 .297-.252.54-.54.54-.279 0-.531-.243-.531-.54s.252-.531.531-.531c.288 0 .54.234.54.531zm5.427.45h-4.653v-.891h4.653zm0-3.706-4.653 1.989v-.954l3.618-1.449-3.618-1.422v-.963l4.653 1.962zm-4.761-5.388c0-1.251.792-1.944 1.944-1.944h2.817v.873h-.63c.477.342.738.972.738 1.548 0 .981-.576 1.719-1.485 1.719-.927 0-1.548-.837-1.548-1.863 0-.459.099-.954.252-1.404h-.144c-.585 0-1.206.27-1.206 1.197 0 .459.18.9.387 1.305l-.657.333c-.333-.666-.468-1.251-.468-1.764zm4.167.297c0-.576-.288-1.215-.864-1.368h-.621c-.117.387-.18.81-.18 1.269 0 .621.351 1.143.855 1.143s.81-.45.81-1.044zm-.243-5.594.612-.333c.207.252.333.603.333.936 0 .72-.522 1.224-1.269 1.224h-2.736v.693h-.756v-.693h-1.278v-.873h1.278v-1.098h.756v1.098h2.673c.324 0 .558-.225.558-.486 0-.198-.072-.378-.171-.468zm.207-3.288c0-.504-.225-1.089-.531-1.377l.549-.522c.441.405.72 1.224.72 1.881 0 1.287-1.017 2.403-2.448 2.403-1.395 0-2.421-1.053-2.421-2.34 0-1.422 1.062-2.25 2.718-2.25v3.717c.819-.108 1.413-.684 1.413-1.512zm-3.393.027c0 .747.522 1.341 1.323 1.476v-2.844c-.747.09-1.323.558-1.323 1.368zm3.753-10.956.36.792c-.279.279-.54.531-.774.756.495.513.792 1.116.792 1.863 0 1.125-.666 1.989-1.764 1.989-.801 0-1.359-.441-1.782-1.395-.486.351-.873.495-1.332.495-.828 0-1.485-.684-1.485-1.629 0-.891.657-1.557 1.476-1.557.774 0 1.152.558 1.548 1.476.423-.369.855-.756 1.386-1.26-.387-.261-.828-.486-1.305-.666l.324-.711c.567.261 1.08.549 1.521.864zm-5.274 2.862c0 .459.297.819.774.819.315 0 .63-.153 1.017-.459-.297-.756-.54-1.08-1.017-1.08-.432 0-.774.297-.774.72zm4.914.477c0-.459-.225-.891-.585-1.278-.702.675-1.215 1.134-1.674 1.521.297.594.693.927 1.197.927.666 0 1.062-.531 1.062-1.17zm-5.553-11.478v-.909h6.183v.909h-2.727v3.366h2.727v.909h-6.183v-.909h2.61v-3.366zm7.803-3.161c0 .315-.072.639-.198.882l-.684-.198c.099-.18.144-.387.144-.567 0-.288-.09-.486-.36-.639l-.495-.234-4.68 1.998v-.954l3.672-1.494-3.672-1.413v-.927l5.076 2.052c.837.333 1.188.828 1.197 1.494zm-6.381-6.945c0-1.224 1.008-2.133 2.43-2.133 1.431 0 2.439.909 2.439 2.133 0 .729-.351 1.314-.936 1.674h.828v.891h-6.291v-.891h2.466c-.585-.36-.936-.945-.936-1.674zm4.095.216c0-.846-.693-1.449-1.665-1.449s-1.656.603-1.656 1.449.684 1.44 1.656 1.44 1.665-.594 1.665-1.44zm-3.078-4.37c-.621-.288-1.017-.918-1.017-1.728h.774c0 1.026.612 1.728 1.512 1.728h2.475v.891h-4.653v-.891zm-1.683-3.224c0 .297-.252.54-.54.54-.279 0-.531-.243-.531-.54s.252-.531.531-.531c.288 0 .54.234.54.531zm5.427.45h-4.653v-.891h4.653zm-6.291-5.802v-.891h6.291v.891h-.792c.558.36.9.936.9 1.647 0 1.233-1.008 2.142-2.439 2.142-1.422 0-2.43-.909-2.43-2.142 0-.711.342-1.287.9-1.647zm5.625 1.44c0-.846-.693-1.44-1.665-1.44s-1.656.594-1.656 1.44.684 1.449 1.656 1.449 1.665-.603 1.665-1.449z"/><path d="m258 267.03h-6.183v-2.601c0-1.296.837-2.295 2.016-2.295s2.016.999 2.016 2.295v1.692h2.151zm-2.997-.909v-1.557c0-.891-.441-1.503-1.17-1.503s-1.17.612-1.17 1.503v1.557zm-1.656-8.221v-.891h4.653v.891h-.666c.459.279.774.846.774 1.485 0 1.026-.729 1.737-1.8 1.737h-2.961v-.873h2.808c.702 0 1.179-.441 1.179-1.071 0-.711-.486-1.278-1.098-1.278zm-.108-4.927c0-1.224 1.008-2.133 2.43-2.133 1.431 0 2.439.909 2.439 2.133 0 .729-.351 1.314-.936 1.674h.828v.891h-6.291v-.891h2.466c-.585-.36-.936-.945-.936-1.674zm4.095.216c0-.846-.693-1.449-1.665-1.449s-1.656.603-1.656 1.449.684 1.44 1.656 1.44 1.665-.594 1.665-1.44zm.666-3.478h-6.291v-.891h6.291zm-5.427-2.796c0 .297-.252.54-.54.54-.279 0-.531-.243-.531-.54s.252-.531.531-.531c.288 0 .54.234.54.531zm5.427.45h-4.653v-.891h4.653zm.108-4.417c0 1.332-1.116 2.457-2.439 2.457s-2.43-1.134-2.43-2.457c0-.675.279-1.269.72-1.719l.558.603c-.315.288-.504.693-.504 1.116 0 .846.756 1.557 1.656 1.557.909 0 1.665-.711 1.665-1.557 0-.432-.198-.846-.522-1.143l.549-.603c.459.45.747 1.053.747 1.746zm-.378-10.357.36.792c-.279.279-.54.531-.774.756.495.513.792 1.116.792 1.863 0 1.125-.666 1.989-1.764 1.989-.801 0-1.359-.441-1.782-1.395-.486.351-.873.495-1.332.495-.828 0-1.485-.684-1.485-1.629 0-.891.657-1.557 1.476-1.557.774 0 1.152.558 1.548 1.476.423-.369.855-.756 1.386-1.26-.387-.261-.828-.486-1.305-.666l.324-.711c.567.261 1.08.549 1.521.864zm-5.274 2.862c0 .459.297.819.774.819.315 0 .63-.153 1.017-.459-.297-.756-.54-1.08-1.017-1.08-.432 0-.774.297-.774.72zm4.914.477c0-.459-.225-.891-.585-1.278-.702.675-1.215 1.134-1.674 1.521.297.594.693.927 1.197.927.666 0 1.062-.531 1.062-1.17zm-5.553-11.478v-.909h6.183v.909h-2.727v3.366h2.727v.909h-6.183v-.909h2.61v-3.366zm7.803-3.161c0 .315-.072.639-.198.882l-.684-.198c.099-.18.144-.387.144-.567 0-.288-.09-.486-.36-.639l-.495-.234-4.68 1.998v-.954l3.672-1.494-3.672-1.413v-.927l5.076 2.052c.837.333 1.188.828 1.197 1.494zm-6.381-6.945c0-1.224 1.008-2.133 2.43-2.133 1.431 0 2.439.909 2.439 2.133 0 .729-.351 1.314-.936 1.674h.828v.891h-6.291v-.891h2.466c-.585-.36-.936-.945-.936-1.674zm4.095.216c0-.846-.693-1.449-1.665-1.449s-1.656.603-1.656 1.449.684 1.44 1.656 1.44 1.665-.594 1.665-1.44zm-3.078-4.37c-.621-.288-1.017-.918-1.017-1.728h.774c0 1.026.612 1.728 1.512 1.728h2.475v.891h-4.653v-.891zm-1.683-3.224c0 .297-.252.54-.54.54-.279 0-.531-.243-.531-.54s.252-.531.531-.531c.288 0 .54.234.54.531zm5.427.45h-4.653v-.891h4.653zm-6.291-5.802v-.891h6.291v.891h-.792c.558.36.9.936.9 1.647 0 1.233-1.008 2.142-2.439 2.142-1.422 0-2.43-.909-2.43-2.142 0-.711.342-1.287.9-1.647zm5.625 1.44c0-.846-.693-1.44-1.665-1.44s-1.656.594-1.656 1.44.684 1.449 1.656 1.449 1.665-.603 1.665-1.449z"/><path d="m280.016 273.33-6.183 2.034v-1.008l4.716-1.521-4.716-1.548v-.999l4.716-1.548-4.716-1.521v-1.008l6.183 2.034v.909l-4.923 1.629 4.923 1.638zm-.63-10.144c0-.504-.225-1.089-.531-1.377l.549-.522c.441.405.72 1.224.72 1.881 0 1.287-1.017 2.403-2.448 2.403-1.395 0-2.421-1.053-2.421-2.34 0-1.422 1.062-2.25 2.718-2.25v3.717c.819-.108 1.413-.684 1.413-1.512zm-3.393.027c0 .747.522 1.341 1.323 1.476v-2.844c-.747.09-1.323.558-1.323 1.368zm-2.268-9.201v-.891h6.291v.891h-.792c.558.36.9.936.9 1.647 0 1.233-1.008 2.142-2.439 2.142-1.422 0-2.43-.909-2.43-2.142 0-.711.342-1.287.9-1.647zm5.625 1.44c0-.846-.693-1.44-1.665-1.44s-1.656.594-1.656 1.44.684 1.449 1.656 1.449 1.665-.603 1.665-1.449zm.774-5.855c0 1.341-1.098 2.448-2.439 2.448s-2.43-1.107-2.43-2.448 1.089-2.448 2.43-2.448 2.439 1.107 2.439 2.448zm-.774 0c0-.855-.747-1.557-1.665-1.557s-1.656.702-1.656 1.557.738 1.557 1.656 1.557 1.665-.702 1.665-1.557zm-4.095-5.905c0-1.026.729-1.737 1.8-1.737h2.961v.864h-2.808c-.702 0-1.179.441-1.179 1.071 0 .711.486 1.287 1.098 1.287h2.889v.891h-4.653v-.891h.684c-.468-.27-.792-.846-.792-1.485zm1.008-3.405c-.576.108-1.404.279-1.863.279-.279 0-.513-.225-.513-.504 0-.27.234-.504.513-.504.459 0 1.287.171 1.863.288zm2.916-4.206.612-.333c.207.252.333.603.333.936 0 .72-.522 1.224-1.269 1.224h-2.736v.693h-.756v-.693h-1.278v-.873h1.278v-1.098h.756v1.098h2.673c.324 0 .558-.225.558-.486 0-.198-.072-.378-.171-.468zm-3.816-6.855v-.891h4.653v.891h-.666c.459.279.774.846.774 1.485 0 1.026-.729 1.737-1.8 1.737h-2.961v-.873h2.808c.702 0 1.179-.441 1.179-1.071 0-.711-.486-1.278-1.098-1.278zm4.761-3.892c0 .684-.243 1.422-.693 1.98l-.612-.405c.378-.513.585-1.071.585-1.584 0-.558-.252-.909-.63-.909-.441 0-.585.486-.747 1.08-.297 1.062-.603 1.602-1.359 1.602-.855 0-1.413-.711-1.413-1.692 0-.603.207-1.224.54-1.719l.63.369c-.288.459-.45.927-.45 1.35 0 .468.207.846.594.846.36 0 .468-.315.711-1.107.225-.765.477-1.575 1.404-1.575.882 0 1.44.738 1.44 1.764zm-.738-4.872c0-.504-.225-1.089-.531-1.377l.549-.522c.441.405.72 1.224.72 1.881 0 1.287-1.017 2.403-2.448 2.403-1.395 0-2.421-1.053-2.421-2.34 0-1.422 1.062-2.25 2.718-2.25v3.717c.819-.108 1.413-.684 1.413-1.512zm-3.393.027c0 .747.522 1.341 1.323 1.476v-2.844c-.747.09-1.323.558-1.323 1.368zm-.738-7.509c0-1.251.792-1.944 1.944-1.944h2.817v.873h-.63c.477.342.738.972.738 1.548 0 .981-.576 1.719-1.485 1.719-.927 0-1.548-.837-1.548-1.863 0-.459.099-.954.252-1.404h-.144c-.585 0-1.206.27-1.206 1.197 0 .459.18.9.387 1.305l-.657.333c-.333-.666-.468-1.251-.468-1.764zm4.167.297c0-.576-.288-1.215-.864-1.368h-.621c-.117.387-.18.81-.18 1.269 0 .621.351 1.143.855 1.143s.81-.45.81-1.044zm-4.167-5.98c0-1.026.729-1.737 1.8-1.737h2.961v.864h-2.808c-.702 0-1.179.441-1.179 1.071 0 .711.486 1.287 1.098 1.287h2.889v.891h-4.653v-.891h.684c-.468-.27-.792-.846-.792-1.485zm6.381-3.703c0 .315-.072.639-.198.882l-.684-.198c.099-.18.144-.387.144-.567 0-.288-.09-.486-.36-.639l-.495-.234-4.68 1.998v-.954l3.672-1.494-3.672-1.413v-.927l5.076 2.052c.837.333 1.188.828 1.197 1.494zm8.488 66.675c0 1.332-1.116 2.457-2.439 2.457s-2.43-1.134-2.43-2.457c0-.675.279-1.269.72-1.719l.558.603c-.315.288-.504.693-.504 1.116 0 .846.756 1.557 1.656 1.557.909 0 1.665-.711 1.665-1.557 0-.432-.198-.846-.522-1.143l.549-.603c.459.45.747 1.053.747 1.746zm-.108-2.676h-6.291v-.891h6.291zm.108-4.417c0 1.341-1.098 2.448-2.439 2.448s-2.43-1.107-2.43-2.448 1.089-2.448 2.43-2.448 2.439 1.107 2.439 2.448zm-.774 0c0-.855-.747-1.557-1.665-1.557s-1.656.702-1.656 1.557.738 1.557 1.656 1.557 1.665-.702 1.665-1.557zm-3.987-6.652v-.891h4.653v.891h-.666c.459.279.774.846.774 1.485 0 1.026-.729 1.737-1.8 1.737h-2.961v-.873h2.808c.702 0 1.179-.441 1.179-1.071 0-.711-.486-1.278-1.098-1.278zm-1.638-5.817v-.891h6.291v.891h-.792c.558.36.9.936.9 1.647 0 1.233-1.008 2.142-2.439 2.142-1.422 0-2.43-.909-2.43-2.142 0-.711.342-1.287.9-1.647zm5.625 1.44c0-.846-.693-1.44-1.665-1.44s-1.656.594-1.656 1.44.684 1.449 1.656 1.449 1.665-.603 1.665-1.449zm.774-8.324c0 1.332-1.116 2.457-2.439 2.457s-2.43-1.134-2.43-2.457c0-.675.279-1.269.72-1.719l.558.603c-.315.288-.504.693-.504 1.116 0 .846.756 1.557 1.656 1.557.909 0 1.665-.711 1.665-1.557 0-.432-.198-.846-.522-1.143l.549-.603c.459.45.747 1.053.747 1.746zm0-4.747c0 1.341-1.098 2.448-2.439 2.448s-2.43-1.107-2.43-2.448 1.089-2.448 2.43-2.448 2.439 1.107 2.439 2.448zm-.774 0c0-.855-.747-1.557-1.665-1.557s-1.656.702-1.656 1.557.738 1.557 1.656 1.557 1.665-.702 1.665-1.557zm-4.095-8.739c0-.972.747-1.674 1.8-1.674h2.961v.864h-2.826c-.684 0-1.161.414-1.161.99 0 .666.441 1.143 1.08 1.143h2.907v.873h-2.826c-.684 0-1.161.405-1.161.981 0 .675.441 1.143 1.08 1.143h2.907v.891h-4.653v-.891h.666c-.477-.234-.774-.72-.774-1.323 0-.738.432-1.323 1.107-1.557-.657-.144-1.107-.711-1.107-1.44zm0-5.571c0-1.233 1.008-2.142 2.43-2.142 1.431 0 2.439.909 2.439 2.142 0 .711-.342 1.287-.909 1.647h2.349v.891h-6.201v-.891h.792c-.558-.36-.9-.936-.9-1.647zm4.095.207c0-.846-.693-1.449-1.665-1.449s-1.656.603-1.656 1.449.684 1.44 1.656 1.44 1.665-.594 1.665-1.44zm-3.987-6.593v-.891h4.653v.891h-.666c.459.279.774.846.774 1.485 0 1.026-.729 1.737-1.8 1.737h-2.961v-.873h2.808c.702 0 1.179-.441 1.179-1.071 0-.711-.486-1.278-1.098-1.278zm3.816-4.351.612-.333c.207.252.333.603.333.936 0 .72-.522 1.224-1.269 1.224h-2.736v.693h-.756v-.693h-1.278v-.873h1.278v-1.098h.756v1.098h2.673c.324 0 .558-.225.558-.486 0-.198-.072-.378-.171-.468zm-4.59-1.712c0 .297-.252.54-.54.54-.279 0-.531-.243-.531-.54s.252-.531.531-.531c.288 0 .54.234.54.531zm5.427.45h-4.653v-.891h4.653zm-4.761-4.723c0-1.026.729-1.737 1.8-1.737h2.961v.864h-2.808c-.702 0-1.179.441-1.179 1.071 0 .711.486 1.287 1.098 1.287h2.889v.891h-4.653v-.891h.684c-.468-.27-.792-.846-.792-1.485zm.108-6.484v-.891h4.158c1.197 0 2.043.981 2.043 2.358 0 .783-.261 1.503-.621 1.944l-.666-.351c.324-.342.513-.9.513-1.467 0-.99-.477-1.593-1.287-1.593h-.675c.531.369.846.945.846 1.638 0 1.233-.918 2.124-2.214 2.124s-2.205-.891-2.205-2.124c0-.693.324-1.287.846-1.638zm3.537 1.422c0-.837-.594-1.422-1.44-1.422-.837 0-1.431.585-1.431 1.422 0 .819.594 1.413 1.431 1.413.846 0 1.44-.594 1.44-1.413zm10.486 51.608c0-.504-.225-1.089-.531-1.377l.549-.522c.441.405.72 1.224.72 1.881 0 1.287-1.017 2.403-2.448 2.403-1.395 0-2.421-1.053-2.421-2.34 0-1.422 1.062-2.25 2.718-2.25v3.717c.819-.108 1.413-.684 1.413-1.512zm-3.393.027c0 .747.522 1.341 1.323 1.476v-2.844c-.747.09-1.323.558-1.323 1.368zm-.738-5.651c0-1.026.729-1.737 1.8-1.737h2.961v.864h-2.808c-.702 0-1.179.441-1.179 1.071 0 .711.486 1.287 1.098 1.287h2.889v.891h-4.653v-.891h.684c-.468-.27-.792-.846-.792-1.485zm4.761-4.459-4.653 1.989v-.954l3.618-1.449-3.618-1.422v-.963l4.653 1.962zm-5.427-4.074c0 .297-.252.54-.54.54-.279 0-.531-.243-.531-.54s.252-.531.531-.531c.288 0 .54.234.54.531zm5.427.45h-4.653v-.891h4.653zm-3.744-3.238c-.621-.288-1.017-.918-1.017-1.728h.774c0 1.026.612 1.728 1.512 1.728h2.475v.891h-4.653v-.891zm3.852-4.844c0 1.341-1.098 2.448-2.439 2.448s-2.43-1.107-2.43-2.448 1.089-2.448 2.43-2.448 2.439 1.107 2.439 2.448zm-.774 0c0-.855-.747-1.557-1.665-1.557s-1.656.702-1.656 1.557.738 1.557 1.656 1.557 1.665-.702 1.665-1.557zm-4.095-5.905c0-1.026.729-1.737 1.8-1.737h2.961v.864h-2.808c-.702 0-1.179.441-1.179 1.071 0 .711.486 1.287 1.098 1.287h2.889v.891h-4.653v-.891h.684c-.468-.27-.792-.846-.792-1.485zm0-8.31c0-.972.747-1.674 1.8-1.674h2.961v.864h-2.826c-.684 0-1.161.414-1.161.99 0 .666.441 1.143 1.08 1.143h2.907v.873h-2.826c-.684 0-1.161.405-1.161.981 0 .675.441 1.143 1.08 1.143h2.907v.891h-4.653v-.891h.666c-.477-.234-.774-.72-.774-1.323 0-.738.432-1.323 1.107-1.557-.657-.144-1.107-.711-1.107-1.44zm4.131-5.058c0-.504-.225-1.089-.531-1.377l.549-.522c.441.405.72 1.224.72 1.881 0 1.287-1.017 2.403-2.448 2.403-1.395 0-2.421-1.053-2.421-2.34 0-1.422 1.062-2.25 2.718-2.25v3.717c.819-.108 1.413-.684 1.413-1.512zm-3.393.027c0 .747.522 1.341 1.323 1.476v-2.844c-.747.09-1.323.558-1.323 1.368zm-.738-5.652c0-1.026.729-1.737 1.8-1.737h2.961v.864h-2.808c-.702 0-1.179.441-1.179 1.071 0 .711.486 1.287 1.098 1.287h2.889v.891h-4.653v-.891h.684c-.468-.27-.792-.846-.792-1.485zm3.924-5.088.612-.333c.207.252.333.603.333.936 0 .72-.522 1.224-1.269 1.224h-2.736v.693h-.756v-.693h-1.278v-.873h1.278v-1.098h.756v1.098h2.673c.324 0 .558-.225.558-.486 0-.198-.072-.378-.171-.468z"/><path d="m324.928 298.579h-6.183v-2.133c0-1.998 1.278-3.411 3.087-3.411s3.096 1.413 3.096 3.411zm-.828-.909v-1.278c0-1.422-.936-2.43-2.268-2.43-1.323 0-2.259 1.008-2.259 2.43v1.278zm.936-7.916c0 1.341-1.098 2.448-2.439 2.448s-2.43-1.107-2.43-2.448 1.089-2.448 2.43-2.448 2.439 1.107 2.439 2.448zm-.774 0c0-.855-.747-1.557-1.665-1.557s-1.656.702-1.656 1.557.738 1.557 1.656 1.557 1.665-.702 1.665-1.557zm-4.095-5.904c0-1.026.729-1.737 1.8-1.737h2.961v.864h-2.808c-.702 0-1.179.441-1.179 1.071 0 .711.486 1.287 1.098 1.287h2.889v.891h-4.653v-.891h.684c-.468-.27-.792-.846-.792-1.485zm.954-3.514-.288.378c-.27-.252-.558-.423-.837-.495 0 .324-.279.585-.603.585-.315 0-.594-.261-.594-.594 0-.405.36-.657.855-.657.414 0 .81.207 1.467.783zm2.97-4.159.612-.333c.207.252.333.603.333.936 0 .72-.522 1.224-1.269 1.224h-2.736v.693h-.756v-.693h-1.278v-.873h1.278v-1.098h.756v1.098h2.673c.324 0 .558-.225.558-.486 0-.198-.072-.378-.171-.468zm.837-3.733h-6.291v-.891h4.023l-2.385-2.277v-1.08l2.106 2.007 2.547-1.917v1.062l-1.953 1.458.756.747h1.197zm-4.761-7.447c0-1.026.729-1.737 1.8-1.737h2.961v.864h-2.808c-.702 0-1.179.441-1.179 1.071 0 .711.486 1.287 1.098 1.287h2.889v.891h-4.653v-.891h.684c-.468-.27-.792-.846-.792-1.485zm4.869-5.17c0 1.341-1.098 2.448-2.439 2.448s-2.43-1.107-2.43-2.448 1.089-2.448 2.43-2.448 2.439 1.107 2.439 2.448zm-.774 0c0-.855-.747-1.557-1.665-1.557s-1.656.702-1.656 1.557.738 1.557 1.656 1.557 1.665-.702 1.665-1.557zm.666-4.509-4.653 1.566v-.909l3.465-1.062-3.465-1.152v-.756l3.465-1.152-3.465-1.071v-.909l4.653 1.575v.819l-3.456 1.107 3.456 1.125zm.108-10.845c0 1.341-1.098 2.448-2.439 2.448s-2.43-1.107-2.43-2.448 1.089-2.448 2.43-2.448 2.439 1.107 2.439 2.448zm-.774 0c0-.855-.747-1.557-1.665-1.557s-1.656.702-1.656 1.557.738 1.557 1.656 1.557 1.665-.702 1.665-1.557zm-3.078-4.42c-.621-.288-1.017-.918-1.017-1.728h.774c0 1.026.612 1.728 1.512 1.728h2.475v.891h-4.653v-.891zm-1.017-7.62c0-1.026.729-1.737 1.8-1.737h2.961v.864h-2.808c-.702 0-1.179.441-1.179 1.071 0 .711.486 1.287 1.098 1.287h2.889v.891h-4.653v-.891h.684c-.468-.27-.792-.846-.792-1.485zm4.869-5.169c0 1.341-1.098 2.448-2.439 2.448s-2.43-1.107-2.43-2.448 1.089-2.448 2.43-2.448 2.439 1.107 2.439 2.448zm-.774 0c0-.855-.747-1.557-1.665-1.557s-1.656.702-1.656 1.557.738 1.557 1.656 1.557 1.665-.702 1.665-1.557zm-.171-5.518.612-.333c.207.252.333.603.333.936 0 .72-.522 1.224-1.269 1.224h-2.736v.693h-.756v-.693h-1.278v-.873h1.278v-1.098h.756v1.098h2.673c.324 0 .558-.225.558-.486 0-.198-.072-.378-.171-.468zm.945-5.262c0 .684-.243 1.422-.693 1.98l-.612-.405c.378-.513.585-1.071.585-1.584 0-.558-.252-.909-.63-.909-.441 0-.585.486-.747 1.08-.297 1.062-.603 1.602-1.359 1.602-.855 0-1.413-.711-1.413-1.692 0-.603.207-1.224.54-1.719l.63.369c-.288.459-.45.927-.45 1.35 0 .468.207.846.594.846.36 0 .468-.315.711-1.107.225-.765.477-1.575 1.404-1.575.882 0 1.44.738 1.44 1.764zm-4.761-5.97v-.891h4.653v.891h-.666c.459.279.774.846.774 1.485 0 1.026-.729 1.737-1.8 1.737h-2.961v-.873h2.808c.702 0 1.179-.441 1.179-1.071 0-.711-.486-1.278-1.098-1.278zm.909-3.253c-.621-.288-1.017-.918-1.017-1.728h.774c0 1.026.612 1.728 1.512 1.728h2.475v.891h-4.653v-.891zm3.114-4.799c0-.504-.225-1.089-.531-1.377l.549-.522c.441.405.72 1.224.72 1.881 0 1.287-1.017 2.403-2.448 2.403-1.395 0-2.421-1.053-2.421-2.34 0-1.422 1.062-2.25 2.718-2.25v3.717c.819-.108 1.413-.684 1.413-1.512zm-3.393.027c0 .747.522 1.341 1.323 1.476v-2.844c-.747.09-1.323.558-1.323 1.368z"/></g><path d="m96.8008 131.755c0 6.395-5.3746 11.594-12.0234 11.594-6.6489 0-12.0235-5.199-12.0235-11.594s5.3746-11.594 12.0235-11.594c6.6488 0 12.0234 5.199 12.0234 11.594z" fill="#9e008e" fill-opacity=".3" stroke="#9e008e" stroke-width=".5"/><path d="m78.2103 114.165v-5.103l-1.071.684-.378-.657 1.629-1.107h.729v6.183zm4.6157.108c-1.305 0-2.331-.675-2.331-1.737 0-.765.576-1.314 1.314-1.566-.675-.27-1.152-.738-1.152-1.44 0-1.053 1.053-1.656 2.169-1.656 1.152 0 2.178.63 2.178 1.656 0 .738-.522 1.197-1.152 1.44.738.261 1.305.81 1.305 1.566 0 1.071-1.035 1.737-2.331 1.737zm0-3.645c.567-.036 1.269-.378 1.269-.999 0-.549-.558-.954-1.269-.954s-1.26.405-1.26.954c0 .639.711.963 1.26.999zm0 2.844c.792 0 1.413-.414 1.413-1.017 0-.657-.801-1.053-1.413-1.071-.603.018-1.413.414-1.413 1.071 0 .603.621 1.017 1.413 1.017zm4.8412-2.43c-.873 0-1.467-.693-1.467-1.539 0-.891.612-1.575 1.476-1.575.882 0 1.467.693 1.467 1.557 0 .882-.603 1.557-1.476 1.557zm-.693 3.123 4.257-6.183h.801l-4.257 6.183zm.702-3.699c.459 0 .792-.405.792-.972s-.333-.981-.801-.981c-.459 0-.792.405-.792.981 0 .558.351.972.801.972zm3.636 3.789c-.864 0-1.476-.675-1.476-1.557 0-.855.603-1.557 1.476-1.557.882 0 1.467.702 1.467 1.548 0 .891-.612 1.566-1.467 1.566zm0-.585c.477 0 .801-.405.801-.972s-.342-.981-.801-.981c-.477 0-.801.423-.801.972 0 .567.333.981.801.981z" fill="#000"/><path d="m128.16 108.883c0 4.76-4.001 8.633-8.955 8.633s-8.955-3.873-8.955-8.633 4.001-8.633 8.955-8.633 8.955 3.873 8.955 8.633z" fill="#9e008e" fill-opacity=".3" stroke="#9e008e" stroke-width=".5"/><path d="m111.94 94.4253v-5.103l-1.071.684-.378-.657 1.629-1.107h.729v6.183zm4.489.108c-.981 0-1.728-.396-2.25-.972l.567-.648c.468.495 1.044.819 1.701.819.801 0 1.35-.54 1.35-1.233 0-.711-.558-1.188-1.359-1.188-.513 0-.945.171-1.314.45l-.639-.288.09-3.231h3.798v.846h-2.934l-.054 1.836c.324-.216.738-.396 1.278-.396 1.116 0 2.043.702 2.043 1.935 0 1.251-.945 2.07-2.277 2.07zm4.73-3.231c-.873 0-1.467-.693-1.467-1.539 0-.891.612-1.575 1.476-1.575.882 0 1.467.693 1.467 1.557 0 .882-.603 1.557-1.476 1.557zm-.693 3.123 4.257-6.183h.801l-4.257 6.183zm.702-3.699c.459 0 .792-.405.792-.972s-.333-.981-.801-.981c-.459 0-.792.405-.792.981 0 .558.351.972.801.972zm3.636 3.789c-.864 0-1.476-.675-1.476-1.557 0-.855.603-1.557 1.476-1.557.882 0 1.467.702 1.467 1.548 0 .891-.612 1.566-1.467 1.566zm0-.585c.477 0 .801-.405.801-.972s-.342-.981-.801-.981c-.477 0-.801.423-.801.972 0 .567.333.981.801.981z" fill="#000"/><path d="m161.191 140.16c0 4.215-3.543 7.646-7.933 7.646-4.389 0-7.932-3.431-7.932-7.646 0-4.214 3.543-7.646 7.932-7.646 4.39 0 7.933 3.432 7.933 7.646z" fill="#9e008e" fill-opacity=".3" stroke="#9e008e" stroke-width=".5"/><path d="m146.714 127.983v-5.103l-1.071.684-.378-.657 1.629-1.107h.729v6.183zm4.382.108c-1.053 0-1.854-.459-2.331-1.053l.585-.603c.414.504 1.017.837 1.728.837.801 0 1.314-.423 1.314-1.044 0-.639-.54-.972-1.458-.963h-.675v-.81l.675.009c.783 0 1.332-.342 1.332-.963 0-.576-.54-.99-1.26-.99-.648 0-1.125.324-1.557.828l-.567-.558c.477-.621 1.179-1.089 2.187-1.089 1.251 0 2.115.693 2.115 1.683 0 .765-.531 1.242-1.179 1.44.639.144 1.314.612 1.314 1.476 0 1.044-.882 1.8-2.223 1.8zm4.759-3.231c-.873 0-1.467-.693-1.467-1.539 0-.891.612-1.575 1.476-1.575.882 0 1.467.693 1.467 1.557 0 .882-.603 1.557-1.476 1.557zm-.693 3.123 4.257-6.183h.801l-4.257 6.183zm.702-3.699c.459 0 .792-.405.792-.972s-.333-.981-.801-.981c-.459 0-.792.405-.792.981 0 .558.351.972.801.972zm3.636 3.789c-.864 0-1.476-.675-1.476-1.557 0-.855.603-1.557 1.476-1.557.882 0 1.467.702 1.467 1.548 0 .891-.612 1.566-1.467 1.566zm0-.585c.477 0 .801-.405.801-.972s-.342-.981-.801-.981c-.477 0-.801.423-.801.972 0 .567.333.981.801.981z" fill="#000"/><path d="m194.966 136.15c0 4.215-3.543 7.646-7.932 7.646s-7.932-3.431-7.932-7.646c0-4.214 3.543-7.646 7.932-7.646s7.932 3.432 7.932 7.646z" fill="#9e008e" fill-opacity=".3" stroke="#9e008e" stroke-width=".5"/><path d="m180.49 124.035v-5.103l-1.071.684-.378-.657 1.629-1.107h.729v6.183zm4.381.108c-1.053 0-1.854-.459-2.331-1.053l.585-.603c.414.504 1.017.837 1.728.837.801 0 1.314-.423 1.314-1.044 0-.639-.54-.972-1.458-.963h-.675v-.81l.675.009c.783 0 1.332-.342 1.332-.963 0-.576-.54-.99-1.26-.99-.648 0-1.125.324-1.557.828l-.567-.558c.477-.621 1.179-1.089 2.187-1.089 1.251 0 2.115.693 2.115 1.683 0 .765-.531 1.242-1.179 1.44.639.144 1.314.612 1.314 1.476 0 1.044-.882 1.8-2.223 1.8zm4.759-3.231c-.873 0-1.467-.693-1.467-1.539 0-.891.612-1.575 1.476-1.575.882 0 1.467.693 1.467 1.557 0 .882-.603 1.557-1.476 1.557zm-.693 3.123 4.257-6.183h.801l-4.257 6.183zm.702-3.699c.459 0 .792-.405.792-.972s-.333-.981-.801-.981c-.459 0-.792.405-.792.981 0 .558.351.972.801.972zm3.636 3.789c-.864 0-1.476-.675-1.476-1.557 0-.855.603-1.557 1.476-1.557.882 0 1.467.702 1.467 1.548 0 .891-.612 1.566-1.467 1.566zm0-.585c.477 0 .801-.405.801-.972s-.342-.981-.801-.981c-.477 0-.801.423-.801.972 0 .567.333.981.801.981z" fill="#000"/><path d="m227.717 120.335c0 3.67-3.085 6.659-6.909 6.659-3.825 0-6.91-2.989-6.91-6.659 0-3.669 3.085-6.658 6.91-6.658 3.824 0 6.909 2.989 6.909 6.658z" fill="#9e008e" fill-opacity=".3" stroke="#9e008e" stroke-width=".5"/><path d="m217.78 104.35c1.134 0 2.079.711 2.079 1.935 0 1.188-.936 2.079-2.241 2.079-1.719 0-2.439-1.341-2.439-3.105 0-1.872 1.107-3.294 2.61-3.294.765 0 1.332.288 1.8.711l-.468.702c-.378-.351-.774-.594-1.341-.594-.936 0-1.638 1.017-1.674 2.376.378-.513.999-.81 1.674-.81zm-.189 3.24c.837 0 1.341-.639 1.341-1.26 0-.756-.612-1.215-1.359-1.215-.684 0-1.224.396-1.395.99.153.891.594 1.485 1.413 1.485zm4.698-2.457c-.873 0-1.467-.693-1.467-1.539 0-.891.612-1.575 1.476-1.575.882 0 1.467.693 1.467 1.557 0 .882-.603 1.557-1.476 1.557zm-.693 3.123 4.257-6.183h.801l-4.257 6.183zm.702-3.699c.459 0 .792-.405.792-.972s-.333-.981-.801-.981c-.459 0-.792.405-.792.981 0 .558.351.972.801.972zm3.636 3.789c-.864 0-1.476-.675-1.476-1.557 0-.855.603-1.557 1.476-1.557.882 0 1.467.702 1.467 1.548 0 .891-.612 1.566-1.467 1.566zm0-.585c.477 0 .801-.405.801-.972s-.342-.981-.801-.981c-.477 0-.801.423-.801.972 0 .567.333.981.801.981z" fill="#000"/><path d="m261.023 120.922c0 3.124-2.627 5.672-5.886 5.672-3.26 0-5.887-2.548-5.887-5.672s2.627-5.672 5.887-5.672c3.259 0 5.886 2.548 5.886 5.672z" fill="#9e008e" fill-opacity=".3" stroke="#9e008e" stroke-width=".5"/><path d="m252.866 111.204v-1.422h-3.069l-.099-.729 2.997-4.032h1.08v3.96h.891v.801h-.891v1.422zm-2.169-2.223h2.169v-2.925zm6.232-.9c-.873 0-1.467-.693-1.467-1.539 0-.891.612-1.575 1.476-1.575.882 0 1.467.693 1.467 1.557 0 .882-.603 1.557-1.476 1.557zm-.693 3.123 4.257-6.183h.801l-4.257 6.183zm.702-3.699c.459 0 .792-.405.792-.972s-.333-.981-.801-.981c-.459 0-.792.405-.792.981 0 .558.351.972.801.972zm3.636 3.789c-.864 0-1.476-.675-1.476-1.557 0-.855.603-1.557 1.476-1.557.882 0 1.467.702 1.467 1.548 0 .891-.612 1.566-1.467 1.566zm0-.585c.477 0 .801-.405.801-.972s-.342-.981-.801-.981c-.477 0-.801.423-.801.972 0 .567.333.981.801.981z" fill="#000"/><path d="m293.978 178.935c0 2.579-2.169 4.685-4.864 4.685s-4.864-2.106-4.864-4.685 2.169-4.685 4.864-4.685 4.864 2.106 4.864 4.685z" fill="#9e008e" fill-opacity=".3" stroke="#9e008e" stroke-width=".5"/><path d="m327.978 178.935c0 2.579-2.169 4.685-4.864 4.685s-4.864-2.106-4.864-4.685 2.169-4.685 4.864-4.685 4.864 2.106 4.864 4.685z" fill="#9e008e" fill-opacity=".3" stroke="#9e008e" stroke-width=".5"/><path d="m283.527 169.437v-.585l2.259-1.926c.873-.747 1.233-1.341 1.233-1.953 0-.756-.63-1.197-1.287-1.197-.72 0-1.233.387-1.656.963l-.495-.405c.513-.729 1.206-1.188 2.178-1.188 1.071 0 1.971.711 1.971 1.818 0 .837-.414 1.503-1.458 2.403l-1.62 1.404h3.141v.666zm6.781-3.141c-.855 0-1.431-.693-1.431-1.53 0-.891.603-1.566 1.44-1.566.855 0 1.431.693 1.431 1.548 0 .873-.594 1.548-1.44 1.548zm-.675 3.141 4.23-6.183h.684l-4.23 6.183zm.684-3.627c.504 0 .864-.45.864-1.053 0-.612-.369-1.071-.873-1.071s-.864.45-.864 1.071c0 .594.378 1.053.873 1.053zm3.519 3.717c-.828 0-1.431-.666-1.431-1.548 0-.846.585-1.548 1.44-1.548s1.431.702 1.431 1.539c0 .882-.603 1.557-1.44 1.557zm.009-.486c.513 0 .864-.45.864-1.062 0-.603-.369-1.062-.873-1.062-.513 0-.864.468-.864 1.053 0 .612.36 1.071.873 1.071z" fill="#000"/><path d="m318.54 169.437v-5.328l-1.08.702-.306-.522 1.521-1.035h.567v6.183zm3.648-3.141c-.855 0-1.431-.693-1.431-1.53 0-.891.603-1.566 1.44-1.566.855 0 1.431.693 1.431 1.548 0 .873-.594 1.548-1.44 1.548zm-.675 3.141 4.23-6.183h.684l-4.23 6.183zm.684-3.627c.504 0 .864-.45.864-1.053 0-.612-.369-1.071-.873-1.071s-.864.45-.864 1.071c0 .594.378 1.053.873 1.053zm3.519 3.717c-.828 0-1.431-.666-1.431-1.548 0-.846.585-1.548 1.44-1.548s1.431.702 1.431 1.539c0 .882-.603 1.557-1.44 1.557zm.009-.486c.513 0 .864-.45.864-1.062 0-.603-.369-1.062-.873-1.062-.513 0-.864.468-.864 1.053 0 .612.36 1.071.873 1.071z" fill="#000"/><path d="m65.2084 142.119c0 7.485-6.2905 13.568-14.0691 13.568-7.7785 0-14.069-6.083-14.069-13.568s6.2905-13.568 14.069-13.568c7.7786 0 14.0691 6.083 14.0691 13.568z" fill="#9e008e" fill-opacity=".3" stroke="#9e008e" stroke-width=".5"/><path d="m41.2351 124.035v-.747l2.268-1.872c.828-.693 1.143-1.224 1.143-1.782 0-.675-.558-1.071-1.17-1.071-.675 0-1.17.36-1.602.918l-.612-.54c.54-.747 1.269-1.197 2.25-1.197 1.152 0 2.07.747 2.07 1.872 0 .828-.396 1.485-1.458 2.349l-1.449 1.224h2.961v.846zm7.7227.108c-1.305 0-2.331-.675-2.331-1.737 0-.765.576-1.314 1.314-1.566-.675-.27-1.152-.738-1.152-1.44 0-1.053 1.053-1.656 2.169-1.656 1.152 0 2.178.63 2.178 1.656 0 .738-.522 1.197-1.152 1.44.738.261 1.305.81 1.305 1.566 0 1.071-1.035 1.737-2.331 1.737zm0-3.645c.567-.036 1.269-.378 1.269-.999 0-.549-.558-.954-1.269-.954s-1.26.405-1.26.954c0 .639.711.963 1.26.999zm0 2.844c.792 0 1.413-.414 1.413-1.017 0-.657-.801-1.053-1.413-1.071-.603.018-1.413.414-1.413 1.071 0 .603.621 1.017 1.413 1.017zm4.8412-2.43c-.873 0-1.467-.693-1.467-1.539 0-.891.612-1.575 1.476-1.575.882 0 1.467.693 1.467 1.557 0 .882-.603 1.557-1.476 1.557zm-.693 3.123 4.257-6.183h.801l-4.257 6.183zm.702-3.699c.459 0 .792-.405.792-.972s-.333-.981-.801-.981c-.459 0-.792.405-.792.981 0 .558.351.972.801.972zm3.636 3.789c-.864 0-1.476-.675-1.476-1.557 0-.855.603-1.557 1.476-1.557.882 0 1.467.702 1.467 1.548 0 .891-.612 1.566-1.467 1.566zm0-.585c.477 0 .801-.405.801-.972s-.342-.981-.801-.981c-.477 0-.801.423-.801.972 0 .567.333.981.801.981z" fill="#000"/></svg>