<svg width="1386" height="671" viewBox="0 0 1386 671" fill="none" xmlns="http://www.w3.org/2000/svg">
<path d="M77 513.238H1357" stroke="#B0B0B0"/>
<path d="M77 569.497H1357" stroke="#B0B0B0"/>
<path d="M77 456.979H1357" stroke="#B0B0B0"/>
<path d="M77 400.72H1357" stroke="#B0B0B0"/>
<path d="M77 344.462H1357" stroke="#B0B0B0"/>
<path d="M77 288.203H1357" stroke="#B0B0B0"/>
<path d="M77 231.944H1357" stroke="#B0B0B0"/>
<path d="M77 175.685H1357" stroke="#B0B0B0"/>
<path d="M77 119.427H1357" stroke="#B0B0B0"/>
<path d="M77 63.1677H1357" stroke="#B0B0B0"/>
<path d="M77 6.90894H1357" stroke="#B0B0B0"/>
<path d="M137 6V596.224" stroke="#B0B0B0"/>
<path d="M286 6.90894V597.133" stroke="#B0B0B0"/>
<path d="M435 6.90894V597.133" stroke="#B0B0B0"/>
<path d="M584 6.90894V597.133" stroke="#B0B0B0"/>
<path d="M733 6.90894V597.133" stroke="#B0B0B0"/>
<path d="M1031 6.90894V597.133" stroke="#B0B0B0"/>
<path d="M1329 6.90894V597.133" stroke="#B0B0B0"/>
<path d="M1180 6.90894V597.133" stroke="#B0B0B0"/>
<path d="M882 6.90894V597.133" stroke="#B0B0B0"/>
<path d="M42.3377 10V2.629L40.7907 3.617L40.2447 2.668L42.5977 1.069H43.6507V10H42.3377ZM49.4729 10.156C47.2239 10.156 45.6509 8.245 45.6509 5.528C45.6509 2.824 47.2239 0.912999 49.4729 0.912999C51.6959 0.912999 53.2689 2.824 53.2689 5.528C53.2689 8.245 51.6959 10.156 49.4729 10.156ZM49.4729 8.947C50.9159 8.947 51.9299 7.53 51.9299 5.528C51.9299 3.526 50.9159 2.122 49.4729 2.122C48.0169 2.122 46.9899 3.526 46.9899 5.528C46.9899 7.53 48.0169 8.947 49.4729 8.947Z" fill="black"/>
<path d="M49.7103 57.1718C52.1933 57.1718 53.2333 59.1088 53.2333 61.6568C53.2333 64.3608 51.6343 66.4148 49.4633 66.4148C48.3583 66.4148 47.5393 65.9988 46.8633 65.3878L47.5393 64.3738C48.0853 64.8808 48.6573 65.2318 49.4763 65.2318C50.8283 65.2318 51.8423 63.7628 51.8943 61.7998C51.3483 62.5408 50.4513 62.9698 49.4763 62.9698C47.8383 62.9698 46.4733 61.9428 46.4733 60.1748C46.4733 58.4588 47.8253 57.1718 49.7103 57.1718ZM49.7753 61.8648C50.7633 61.8648 51.5433 61.2928 51.7903 60.4348C51.5693 59.1478 50.9323 58.2898 49.7493 58.2898C48.5403 58.2898 47.8123 59.2128 47.8123 60.1098C47.8123 61.2018 48.6963 61.8648 49.7753 61.8648Z" fill="black"/>
<path d="M49.9062 122.674C48.0212 122.674 46.5392 121.699 46.5392 120.165C46.5392 119.06 47.3712 118.267 48.4372 117.903C47.4622 117.513 46.7732 116.837 46.7732 115.823C46.7732 114.302 48.2942 113.431 49.9062 113.431C51.5702 113.431 53.0522 114.341 53.0522 115.823C53.0522 116.889 52.2982 117.552 51.3882 117.903C52.4542 118.28 53.2732 119.073 53.2732 120.165C53.2732 121.712 51.7782 122.674 49.9062 122.674ZM49.9062 117.409C50.7252 117.357 51.7392 116.863 51.7392 115.966C51.7392 115.173 50.9332 114.588 49.9062 114.588C48.8792 114.588 48.0862 115.173 48.0862 115.966C48.0862 116.889 49.1132 117.357 49.9062 117.409ZM49.9062 121.517C51.0502 121.517 51.9472 120.919 51.9472 120.048C51.9472 119.099 50.7902 118.527 49.9062 118.501C49.0352 118.527 47.8652 119.099 47.8652 120.048C47.8652 120.919 48.7622 121.517 49.9062 121.517Z" fill="black"/>
<path d="M48.3427 178.776L52.0737 171.067H47.3677V169.845H53.6207V170.833L49.8507 178.776H48.3427Z" fill="black"/>
<path d="M50.3863 229.393C52.0243 229.393 53.3893 230.42 53.3893 232.188C53.3893 233.904 52.0373 235.191 50.1523 235.191C47.6693 235.191 46.6293 233.254 46.6293 230.706C46.6293 228.002 48.2283 225.948 50.3993 225.948C51.5043 225.948 52.3233 226.364 52.9993 226.975L52.3233 227.989C51.7773 227.482 51.2053 227.131 50.3863 227.131C49.0343 227.131 48.0203 228.6 47.9683 230.563C48.5143 229.822 49.4113 229.393 50.3863 229.393ZM50.1133 234.073C51.3223 234.073 52.0503 233.15 52.0503 232.253C52.0503 231.161 51.1663 230.498 50.0873 230.498C49.0993 230.498 48.3193 231.07 48.0723 231.928C48.2933 233.215 48.9303 234.073 50.1133 234.073Z" fill="black"/>
<path d="M50.067 291.45C48.65 291.45 47.571 290.878 46.817 290.046L47.636 289.11C48.312 289.825 49.144 290.293 50.093 290.293C51.25 290.293 52.043 289.513 52.043 288.512C52.043 287.485 51.237 286.796 50.08 286.796C49.339 286.796 48.715 287.043 48.182 287.446L47.259 287.03L47.389 282.363H52.875V283.585H48.637L48.559 286.237C49.027 285.925 49.625 285.665 50.405 285.665C52.017 285.665 53.356 286.679 53.356 288.46C53.356 290.267 51.991 291.45 50.067 291.45Z" fill="black"/>
<path d="M51.0308 347.553V345.499H46.5978L46.4548 344.446L50.7838 338.622H52.3438V344.342H53.6308V345.499H52.3438V347.553H51.0308ZM47.8978 344.342H51.0308V340.117L47.8978 344.342Z" fill="black"/>
<path d="M50.0253 403.968C48.5043 403.968 47.3473 403.305 46.6583 402.447L47.5033 401.576C48.1013 402.304 48.9723 402.785 49.9993 402.785C51.1563 402.785 51.8973 402.174 51.8973 401.277C51.8973 400.354 51.1173 399.873 49.7913 399.886H48.8163V398.716L49.7913 398.729C50.9223 398.729 51.7153 398.235 51.7153 397.338C51.7153 396.506 50.9353 395.908 49.8953 395.908C48.9593 395.908 48.2703 396.376 47.6463 397.104L46.8273 396.298C47.5163 395.401 48.5303 394.725 49.9863 394.725C51.7933 394.725 53.0413 395.726 53.0413 397.156C53.0413 398.261 52.2743 398.95 51.3383 399.236C52.2613 399.444 53.2363 400.12 53.2363 401.368C53.2363 402.876 51.9623 403.968 50.0253 403.968Z" fill="black"/>
<path d="M46.927 460.07V458.991L50.203 456.287C51.399 455.286 51.854 454.519 51.854 453.713C51.854 452.738 51.048 452.166 50.164 452.166C49.189 452.166 48.474 452.686 47.85 453.492L46.966 452.712C47.746 451.633 48.799 450.983 50.216 450.983C51.88 450.983 53.206 452.062 53.206 453.687C53.206 454.883 52.634 455.832 51.1 457.08L49.007 458.848H53.284V460.07H46.927Z" fill="black"/>
<path d="M51.4148 516.329V508.958L49.8678 509.946L49.3218 508.997L51.6748 507.398H52.7278V516.329H51.4148Z" fill="black"/>
<path d="M49.4729 572.744C47.2239 572.744 45.6509 570.833 45.6509 568.116C45.6509 565.412 47.2239 563.501 49.4729 563.501C51.6959 563.501 53.2689 565.412 53.2689 568.116C53.2689 570.833 51.6959 572.744 49.4729 572.744ZM49.4729 571.535C50.9159 571.535 51.9299 570.118 51.9299 568.116C51.9299 566.114 50.9159 564.71 49.4729 564.71C48.0169 564.71 46.9899 566.114 46.9899 568.116C46.9899 570.118 48.0169 571.535 49.4729 571.535Z" fill="black"/>
<path d="M383.858 630V621.069H387.615C389.487 621.069 390.93 622.278 390.93 623.981C390.93 625.684 389.487 626.893 387.615 626.893H385.171V630H383.858ZM385.171 625.671H387.42C388.707 625.671 389.591 625.034 389.591 623.981C389.591 622.928 388.707 622.291 387.42 622.291H385.171V625.671ZM397.046 623.279H398.333V630H397.046V629.038C396.643 629.701 395.824 630.156 394.901 630.156C393.419 630.156 392.392 629.103 392.392 627.556V623.279H393.653V627.335C393.653 628.349 394.29 629.038 395.2 629.038C396.227 629.038 397.046 628.336 397.046 627.452V623.279ZM404.162 623.123C405.93 623.123 407.243 624.579 407.243 626.633C407.243 628.7 405.93 630.156 404.162 630.156C403.109 630.156 402.264 629.649 401.744 628.804V630H400.457V620.913H401.744V624.475C402.264 623.63 403.109 623.123 404.162 623.123ZM403.85 629.038C405.072 629.038 405.943 628.037 405.943 626.633C405.943 625.229 405.072 624.241 403.85 624.241C402.628 624.241 401.77 625.229 401.77 626.633C401.77 628.037 402.628 629.038 403.85 629.038ZM408.874 630V620.913H410.161V630H408.874ZM412.913 622.161C412.484 622.161 412.133 621.797 412.133 621.381C412.133 620.978 412.484 620.614 412.913 620.614C413.342 620.614 413.68 620.978 413.68 621.381C413.68 621.797 413.342 622.161 412.913 622.161ZM412.263 630V623.279H413.55V630H412.263ZM418.643 630.156C416.719 630.156 415.094 628.544 415.094 626.633C415.094 624.722 416.732 623.123 418.643 623.123C419.618 623.123 420.476 623.526 421.126 624.163L420.255 624.969C419.839 624.514 419.254 624.241 418.643 624.241C417.421 624.241 416.394 625.333 416.394 626.633C416.394 627.946 417.421 629.038 418.643 629.038C419.267 629.038 419.865 628.752 420.294 628.284L421.165 629.077C420.515 629.74 419.644 630.156 418.643 630.156ZM423.315 631.781L422.769 631.365C423.133 630.975 423.38 630.559 423.484 630.156C423.016 630.156 422.639 629.766 422.639 629.285C422.639 628.83 423.003 628.427 423.497 628.427C424.069 628.427 424.446 628.947 424.446 629.662C424.446 630.273 424.147 630.832 423.315 631.781ZM430.488 630V621.069H434.245C436.117 621.069 437.56 622.278 437.56 623.981C437.56 625.684 436.117 626.893 434.245 626.893H431.801V630H430.488ZM431.801 625.671H434.05C435.337 625.671 436.221 625.034 436.221 623.981C436.221 622.928 435.337 622.291 434.05 622.291H431.801V625.671ZM440.452 624.592C440.868 623.695 441.778 623.123 442.948 623.123V624.241C441.466 624.241 440.452 625.125 440.452 626.425V630H439.165V623.279H440.452V624.592ZM445.109 622.161C444.68 622.161 444.329 621.797 444.329 621.381C444.329 620.978 444.68 620.614 445.109 620.614C445.538 620.614 445.876 620.978 445.876 621.381C445.876 621.797 445.538 622.161 445.109 622.161ZM444.459 630V623.279H445.746V630H444.459ZM449.811 630L446.938 623.279H448.316L450.409 628.505L452.463 623.279H453.854L451.02 630H449.811ZM457.595 623.123C459.402 623.123 460.403 624.267 460.403 625.931V630H459.142V629.09C458.648 629.779 457.738 630.156 456.906 630.156C455.489 630.156 454.423 629.324 454.423 628.011C454.423 626.672 455.632 625.775 457.114 625.775C457.777 625.775 458.492 625.918 459.142 626.139V625.931C459.142 625.086 458.752 624.189 457.413 624.189C456.75 624.189 456.113 624.449 455.528 624.748L455.047 623.799C456.009 623.318 456.854 623.123 457.595 623.123ZM457.166 629.142C457.998 629.142 458.921 628.726 459.142 627.894V626.997C458.583 626.828 457.972 626.737 457.309 626.737C456.412 626.737 455.658 627.244 455.658 627.972C455.658 628.7 456.308 629.142 457.166 629.142ZM465.245 628.791L465.726 629.675C465.362 629.974 464.855 630.156 464.374 630.156C463.334 630.156 462.606 629.402 462.606 628.323V624.371H461.605V623.279H462.606V621.433H463.867V623.279H465.453V624.371H463.867V628.232C463.867 628.7 464.192 629.038 464.569 629.038C464.855 629.038 465.115 628.934 465.245 628.791ZM469.994 629.09C470.722 629.09 471.567 628.765 471.983 628.323L472.737 629.116C472.152 629.753 470.969 630.156 470.02 630.156C468.161 630.156 466.549 628.687 466.549 626.62C466.549 624.605 468.07 623.123 469.929 623.123C471.983 623.123 473.179 624.657 473.179 627.049H467.81C467.966 628.232 468.798 629.09 469.994 629.09ZM469.955 624.189C468.876 624.189 468.018 624.943 467.823 626.1H471.931C471.801 625.021 471.125 624.189 469.955 624.189ZM485.781 629.61L484.637 630.13C484.234 629.727 483.87 629.35 483.545 629.012C482.804 629.727 481.933 630.156 480.854 630.156C479.229 630.156 477.981 629.194 477.981 627.608C477.981 626.451 478.618 625.645 479.996 625.034C479.489 624.332 479.281 623.773 479.281 623.11C479.281 621.914 480.269 620.965 481.634 620.965C482.921 620.965 483.883 621.914 483.883 623.097C483.883 624.215 483.077 624.761 481.751 625.333C482.284 625.944 482.843 626.568 483.571 627.335C483.948 626.776 484.273 626.139 484.533 625.45L485.56 625.918C485.183 626.737 484.767 627.478 484.312 628.115L485.781 629.61ZM481.647 621.992C480.984 621.992 480.464 622.421 480.464 623.11C480.464 623.565 480.685 624.02 481.127 624.579C482.219 624.15 482.687 623.799 482.687 623.11C482.687 622.486 482.258 621.992 481.647 621.992ZM480.958 629.09C481.621 629.09 482.245 628.765 482.804 628.245C481.829 627.231 481.166 626.49 480.607 625.827C479.749 626.256 479.268 626.828 479.268 627.556C479.268 628.518 480.035 629.09 480.958 629.09ZM420.59 639.069H421.903V648H420.59V644.061H415.728V648H414.415V639.069H415.728V642.839H420.59V639.069ZM425.157 650.34C424.702 650.34 424.234 650.236 423.883 650.054L424.169 649.066C424.429 649.209 424.728 649.274 424.988 649.274C425.404 649.274 425.69 649.144 425.911 648.754L426.249 648.039L423.363 641.279H424.741L426.899 646.583L428.94 641.279H430.279L427.315 648.611C426.834 649.82 426.119 650.327 425.157 650.34ZM435.189 641.123C436.957 641.123 438.27 642.579 438.27 644.633C438.27 646.7 436.957 648.156 435.189 648.156C434.136 648.156 433.291 647.649 432.771 646.804V648H431.484V638.913H432.771V642.475C433.291 641.63 434.136 641.123 435.189 641.123ZM434.877 647.038C436.099 647.038 436.97 646.037 436.97 644.633C436.97 643.229 436.099 642.241 434.877 642.241C433.655 642.241 432.797 643.229 432.797 644.633C432.797 646.037 433.655 647.038 434.877 647.038ZM441.188 642.592C441.604 641.695 442.514 641.123 443.684 641.123V642.241C442.202 642.241 441.188 643.125 441.188 644.425V648H439.901V641.279H441.188V642.592ZM445.845 640.161C445.416 640.161 445.065 639.797 445.065 639.381C445.065 638.978 445.416 638.614 445.845 638.614C446.274 638.614 446.612 638.978 446.612 639.381C446.612 639.797 446.274 640.161 445.845 640.161ZM445.195 648V641.279H446.482V648H445.195ZM453.577 638.913H454.864V648H453.577V646.856C453.057 647.662 452.225 648.156 451.198 648.156C449.417 648.156 448.104 646.7 448.104 644.633C448.104 642.579 449.417 641.123 451.198 641.123C452.225 641.123 453.057 641.617 453.577 642.423V638.913ZM451.497 647.038C452.719 647.038 453.577 646.037 453.577 644.633C453.577 643.229 452.719 642.241 451.497 642.241C450.275 642.241 449.404 643.229 449.404 644.633C449.404 646.037 450.275 647.038 451.497 647.038Z" fill="black"/>
<path d="M13 405.327L10.66 406.362V412.107L13 413.142V414.417L2.695 409.872L2.695 408.597L13 404.052V405.327ZM9.55 411.627V406.842L4.135 409.227L9.55 411.627ZM13 400.224L5.245 403.524V402.264L11.68 399.684L5.245 397.149V395.889L13 399.144V400.224ZM12.175 391.159C12.175 390.244 11.77 389.194 11.245 388.714L11.98 388.024C12.715 388.699 13.18 390.064 13.18 391.144C13.18 393.214 11.485 395.074 9.1 395.074C6.79 395.074 5.065 393.334 5.065 391.249C5.065 388.909 6.835 387.574 9.55 387.574V393.919C11.065 393.754 12.175 392.689 12.175 391.159ZM6.07 391.204C6.07 392.584 7.045 393.694 8.545 393.904V388.684C7.15 388.834 6.07 389.659 6.07 391.204ZM6.76 384.559C5.725 384.094 5.065 382.984 5.065 381.559H6.07C6.07 383.314 7.15 384.559 8.665 384.559H13V385.684H5.245L5.245 384.559H6.76ZM5.065 376.962C5.065 374.847 6.4 373.812 8.275 373.812H13V374.937H11.785C12.7 375.492 13.18 376.647 13.18 377.667C13.18 379.302 12.235 380.502 10.705 380.502C9.16 380.502 8.125 379.122 8.125 377.457C8.125 376.617 8.305 375.732 8.56 374.937H8.275C7.225 374.937 6.025 375.357 6.025 377.037C6.025 377.817 6.37 378.597 6.73 379.302L5.815 379.752C5.26 378.642 5.065 377.712 5.065 376.962ZM12.19 377.472C12.19 376.452 11.665 375.237 10.57 374.937H9.385C9.19 375.642 9.07 376.437 9.07 377.277C9.07 378.432 9.73 379.407 10.66 379.407C11.62 379.407 12.19 378.567 12.19 377.472ZM5.245 365.672V364.547H12.175C14.17 364.547 15.58 366.122 15.58 368.357C15.58 369.617 15.145 370.787 14.545 371.492L13.66 370.997C14.23 370.397 14.575 369.467 14.575 368.507C14.575 366.722 13.69 365.672 12.175 365.672H10.915C11.86 366.272 12.43 367.262 12.43 368.492C12.43 370.577 10.9 372.062 8.74 372.062C6.58 372.062 5.065 370.577 5.065 368.492C5.065 367.262 5.635 366.272 6.58 365.672H5.245ZM11.425 368.282C11.425 366.752 10.315 365.672 8.74 365.672C7.18 365.672 6.07 366.752 6.07 368.282C6.07 369.797 7.18 370.877 8.74 370.877C10.315 370.877 11.425 369.797 11.425 368.282ZM12.175 358.669C12.175 357.754 11.77 356.704 11.245 356.224L11.98 355.534C12.715 356.209 13.18 357.574 13.18 358.654C13.18 360.724 11.485 362.584 9.1 362.584C6.79 362.584 5.065 360.844 5.065 358.759C5.065 356.419 6.835 355.084 9.55 355.084V361.429C11.065 361.264 12.175 360.199 12.175 358.669ZM6.07 358.714C6.07 360.094 7.045 361.204 8.545 361.414V356.194C7.15 356.344 6.07 357.169 6.07 358.714ZM6.31 340.963L6.31 342.733L9.4 343.513V341.743L10.315 341.968V343.738L13 344.413V345.403L10.315 344.728V346.978L13 347.653V348.643L10.315 347.968L10.315 349.663L9.4 349.438L9.4 347.743L6.31 346.963V348.673L5.395 348.448V346.723L2.695 346.048L2.695 345.058L5.395 345.733V343.483L2.695 342.808V341.818L5.395 342.493L5.395 340.738L6.31 340.963ZM9.4 344.503L6.31 343.723V345.973L9.4 346.753V344.503ZM5.245 329.31V328.185H13V329.31H11.77C12.595 329.76 13.18 330.75 13.18 331.86C13.18 333.585 11.965 334.77 10.18 334.77H5.245V333.645H10.03C11.305 333.645 12.175 332.85 12.175 331.71C12.175 330.39 11.275 329.31 10.18 329.31H5.245ZM5.065 321.907C5.065 320.182 6.28 318.997 8.065 318.997H13V320.122H8.215C6.94 320.122 6.07 320.917 6.07 322.057C6.07 323.377 6.97 324.457 8.065 324.457H13V325.582H5.245V324.457H6.475C5.65 324.007 5.065 323.017 5.065 321.907ZM3.835 316.003C3.835 316.423 3.49 316.753 3.085 316.753C2.695 316.753 2.35 316.423 2.35 316.003C2.35 315.598 2.695 315.268 3.085 315.268C3.49 315.268 3.835 315.598 3.835 316.003ZM13 316.573H5.245V315.448H13V316.573ZM5.245 307.047V305.922H15.58V307.047H11.545C12.565 307.632 13.18 308.622 13.18 309.867C13.18 311.907 11.5 313.437 9.115 313.437C6.745 313.437 5.065 311.907 5.065 309.867C5.065 308.622 5.68 307.632 6.7 307.047H5.245ZM12.175 309.657C12.175 308.127 10.9 307.047 9.115 307.047C7.33 307.047 6.07 308.127 6.07 309.657C6.07 311.172 7.33 312.252 9.115 312.252C10.9 312.252 12.175 311.172 12.175 309.657ZM5.245 298.036V296.911H13V298.036H11.77C12.595 298.486 13.18 299.476 13.18 300.586C13.18 302.311 11.965 303.496 10.18 303.496H5.245V302.371H10.03C11.305 302.371 12.175 301.576 12.175 300.436C12.175 299.116 11.275 298.036 10.18 298.036H5.245ZM12.175 291.037C12.175 290.122 11.77 289.072 11.245 288.592L11.98 287.902C12.715 288.577 13.18 289.942 13.18 291.022C13.18 293.092 11.485 294.952 9.1 294.952C6.79 294.952 5.065 293.212 5.065 291.127C5.065 288.787 6.835 287.452 9.55 287.452L9.55 293.797C11.065 293.632 12.175 292.567 12.175 291.037ZM6.07 291.082C6.07 292.462 7.045 293.572 8.545 293.782L8.545 288.562C7.15 288.712 6.07 289.537 6.07 291.082ZM13.18 278.101C13.18 280.276 11.32 282.121 9.115 282.121C6.91 282.121 5.065 280.276 5.065 278.101C5.065 277.051 5.5 276.076 6.205 275.341L6.97 276.121C6.415 276.631 6.07 277.336 6.07 278.101C6.07 279.646 7.465 280.936 9.115 280.936C10.78 280.936 12.175 279.646 12.175 278.101C12.175 277.321 11.815 276.601 11.23 276.076L11.995 275.296C12.73 276.031 13.18 277.021 13.18 278.101ZM13 273.653H2.515V272.528H13V273.653ZM13.18 266.587C13.18 268.792 11.35 270.592 9.115 270.592C6.88 270.592 5.065 268.792 5.065 266.587C5.065 264.397 6.88 262.597 9.115 262.597C11.35 262.597 13.18 264.397 13.18 266.587ZM12.175 266.587C12.175 265.042 10.795 263.767 9.115 263.767C7.435 263.767 6.07 265.042 6.07 266.587C6.07 268.147 7.435 269.422 9.115 269.422C10.795 269.422 12.175 268.147 12.175 266.587ZM5.245 255.38V254.255H13V255.38H11.77C12.595 255.83 13.18 256.82 13.18 257.93C13.18 259.655 11.965 260.84 10.18 260.84H5.245V259.715H10.03C11.305 259.715 12.175 258.92 12.175 257.78C12.175 256.46 11.275 255.38 10.18 255.38H5.245ZM2.515 245.861L2.515 244.736H13V245.861H11.545C12.565 246.446 13.18 247.436 13.18 248.681C13.18 250.721 11.5 252.251 9.115 252.251C6.745 252.251 5.065 250.721 5.065 248.681C5.065 247.436 5.68 246.446 6.7 245.861H2.515ZM12.175 248.471C12.175 246.941 10.9 245.861 9.115 245.861C7.33 245.861 6.07 246.941 6.07 248.471C6.07 249.986 7.33 251.066 9.115 251.066C10.9 251.066 12.175 249.986 12.175 248.471ZM13.18 235.599C13.18 236.679 12.775 237.879 12.025 238.809L11.2 238.224C11.845 237.339 12.175 236.454 12.175 235.599C12.175 234.579 11.695 233.889 10.96 233.889C10.12 233.889 9.85 234.789 9.55 235.839C9.01 237.714 8.455 238.434 7.345 238.434C5.935 238.434 5.065 237.264 5.065 235.719C5.065 234.759 5.395 233.769 5.935 232.944L6.805 233.484C6.31 234.264 6.07 235.029 6.07 235.719C6.07 236.589 6.46 237.309 7.21 237.309C7.885 237.309 8.095 236.739 8.56 235.299C8.95 234.054 9.37 232.764 10.84 232.764C12.265 232.764 13.18 233.994 13.18 235.599ZM12.175 227.565C12.175 226.65 11.77 225.6 11.245 225.12L11.98 224.43C12.715 225.105 13.18 226.47 13.18 227.55C13.18 229.62 11.485 231.48 9.1 231.48C6.79 231.48 5.065 229.74 5.065 227.655C5.065 225.315 6.835 223.98 9.55 223.98V230.325C11.065 230.16 12.175 229.095 12.175 227.565ZM6.07 227.61C6.07 228.99 7.045 230.1 8.545 230.31V225.09C7.15 225.24 6.07 226.065 6.07 227.61ZM6.76 220.965C5.725 220.5 5.065 219.39 5.065 217.965H6.07C6.07 219.72 7.15 220.965 8.665 220.965H13V222.09H5.245V220.965H6.76ZM13 213.998L5.245 217.298V216.038L11.68 213.458L5.245 210.923V209.663L13 212.918V213.998ZM3.835 207.634C3.835 208.054 3.49 208.384 3.085 208.384C2.695 208.384 2.35 208.054 2.35 207.634C2.35 207.229 2.695 206.899 3.085 206.899C3.49 206.899 3.835 207.229 3.835 207.634ZM13 208.204H5.245V207.079H13V208.204ZM13.18 201.138C13.18 203.313 11.32 205.158 9.115 205.158C6.91 205.158 5.065 203.313 5.065 201.138C5.065 200.088 5.5 199.113 6.205 198.378L6.97 199.158C6.415 199.668 6.07 200.373 6.07 201.138C6.07 202.683 7.465 203.973 9.115 203.973C10.78 203.973 12.175 202.683 12.175 201.138C12.175 200.358 11.815 199.638 11.23 199.113L11.995 198.333C12.73 199.068 13.18 200.058 13.18 201.138ZM12.175 193.42C12.175 192.505 11.77 191.455 11.245 190.975L11.98 190.285C12.715 190.96 13.18 192.325 13.18 193.405C13.18 195.475 11.485 197.335 9.1 197.335C6.79 197.335 5.065 195.595 5.065 193.51C5.065 191.17 6.835 189.835 9.55 189.835V196.18C11.065 196.015 12.175 194.95 12.175 193.42ZM6.07 193.465C6.07 194.845 7.045 195.955 8.545 196.165V190.945C7.15 191.095 6.07 191.92 6.07 193.465ZM23.065 330.66C23.065 328.62 24.745 327.09 27.115 327.09C29.5 327.09 31.18 328.62 31.18 330.66C31.18 331.905 30.565 332.895 29.545 333.48H33.58V334.605H23.245V333.48H24.7C23.68 332.895 23.065 331.905 23.065 330.66ZM30.175 330.87C30.175 329.355 28.9 328.275 27.115 328.275C25.33 328.275 24.07 329.355 24.07 330.87C24.07 332.4 25.33 333.48 27.115 333.48C28.9 333.48 30.175 332.4 30.175 330.87ZM24.76 323.959C23.725 323.494 23.065 322.384 23.065 320.959H24.07C24.07 322.714 25.15 323.959 26.665 323.959H31V325.084H23.245V323.959H24.76ZM31.18 315.806C31.18 318.011 29.35 319.811 27.115 319.811C24.88 319.811 23.065 318.011 23.065 315.806C23.065 313.616 24.88 311.816 27.115 311.816C29.35 311.816 31.18 313.616 31.18 315.806ZM30.175 315.806C30.175 314.261 28.795 312.986 27.115 312.986C25.435 312.986 24.07 314.261 24.07 315.806C24.07 317.366 25.435 318.641 27.115 318.641C28.795 318.641 30.175 317.366 30.175 315.806ZM31 307.733L23.245 311.033V309.773L29.68 307.193L23.245 304.658V303.398L31 306.653V307.733ZM21.835 301.369C21.835 301.789 21.49 302.119 21.085 302.119C20.695 302.119 20.35 301.789 20.35 301.369C20.35 300.964 20.695 300.634 21.085 300.634C21.49 300.634 21.835 300.964 21.835 301.369ZM31 301.939H23.245V300.814H31V301.939ZM20.515 292.414V291.289H31V292.414H29.545C30.565 292.999 31.18 293.989 31.18 295.234C31.18 297.274 29.5 298.804 27.115 298.804C24.745 298.804 23.065 297.274 23.065 295.234C23.065 293.989 23.68 292.999 24.7 292.414H20.515ZM30.175 295.024C30.175 293.494 28.9 292.414 27.115 292.414C25.33 292.414 24.07 293.494 24.07 295.024C24.07 296.539 25.33 297.619 27.115 297.619C28.9 297.619 30.175 296.539 30.175 295.024ZM30.175 285.412C30.175 284.497 29.77 283.447 29.245 282.967L29.98 282.277C30.715 282.952 31.18 284.317 31.18 285.397C31.18 287.467 29.485 289.327 27.1 289.327C24.79 289.327 23.065 287.587 23.065 285.502C23.065 283.162 24.835 281.827 27.55 281.827V288.172C29.065 288.007 30.175 286.942 30.175 285.412ZM24.07 285.457C24.07 286.837 25.045 287.947 26.545 288.157V282.937C25.15 283.087 24.07 283.912 24.07 285.457ZM24.76 278.812C23.725 278.347 23.065 277.237 23.065 275.812H24.07C24.07 277.567 25.15 278.812 26.665 278.812H31V279.937H23.245V278.812H24.76ZM31.18 271.59C31.18 272.67 30.775 273.87 30.025 274.8L29.2 274.215C29.845 273.33 30.175 272.445 30.175 271.59C30.175 270.57 29.695 269.88 28.96 269.88C28.12 269.88 27.85 270.78 27.55 271.83C27.01 273.705 26.455 274.425 25.345 274.425C23.935 274.425 23.065 273.255 23.065 271.71C23.065 270.75 23.395 269.76 23.935 268.935L24.805 269.475C24.31 270.255 24.07 271.02 24.07 271.71C24.07 272.58 24.46 273.3 25.21 273.3C25.885 273.3 26.095 272.73 26.56 271.29C26.95 270.045 27.37 268.755 28.84 268.755C30.265 268.755 31.18 269.985 31.18 271.59Z" fill="black"/>
<path d="M118.364 630V621.069H122.121C123.993 621.069 125.436 622.278 125.436 623.981C125.436 625.684 123.993 626.893 122.121 626.893H119.677V630H118.364ZM119.677 625.671H121.926C123.213 625.671 124.097 625.034 124.097 623.981C124.097 622.928 123.213 622.291 121.926 622.291H119.677V625.671ZM131.552 623.279H132.839V630H131.552V629.038C131.149 629.701 130.33 630.156 129.407 630.156C127.925 630.156 126.898 629.103 126.898 627.556V623.279H128.159V627.335C128.159 628.349 128.796 629.038 129.706 629.038C130.733 629.038 131.552 628.336 131.552 627.452V623.279ZM138.668 623.123C140.436 623.123 141.749 624.579 141.749 626.633C141.749 628.7 140.436 630.156 138.668 630.156C137.615 630.156 136.77 629.649 136.25 628.804V630H134.963V620.913H136.25V624.475C136.77 623.63 137.615 623.123 138.668 623.123ZM138.356 629.038C139.578 629.038 140.449 628.037 140.449 626.633C140.449 625.229 139.578 624.241 138.356 624.241C137.134 624.241 136.276 625.229 136.276 626.633C136.276 628.037 137.134 629.038 138.356 629.038ZM143.38 630V620.913H144.667V630H143.38ZM147.42 622.161C146.991 622.161 146.64 621.797 146.64 621.381C146.64 620.978 146.991 620.614 147.42 620.614C147.849 620.614 148.187 620.978 148.187 621.381C148.187 621.797 147.849 622.161 147.42 622.161ZM146.77 630V623.279H148.057V630H146.77ZM153.149 630.156C151.225 630.156 149.6 628.544 149.6 626.633C149.6 624.722 151.238 623.123 153.149 623.123C154.124 623.123 154.982 623.526 155.632 624.163L154.761 624.969C154.345 624.514 153.76 624.241 153.149 624.241C151.927 624.241 150.9 625.333 150.9 626.633C150.9 627.946 151.927 629.038 153.149 629.038C153.773 629.038 154.371 628.752 154.8 628.284L155.671 629.077C155.021 629.74 154.15 630.156 153.149 630.156Z" fill="black"/>
<path d="M271.59 621.069H272.903V630H271.59V626.061H266.728V630H265.415V621.069H266.728V624.839H271.59V621.069ZM276.157 632.34C275.702 632.34 275.234 632.236 274.883 632.054L275.169 631.066C275.429 631.209 275.728 631.274 275.988 631.274C276.404 631.274 276.69 631.144 276.911 630.754L277.249 630.039L274.363 623.279H275.741L277.899 628.583L279.94 623.279H281.279L278.315 630.611C277.834 631.82 277.119 632.327 276.157 632.34ZM286.189 623.123C287.957 623.123 289.27 624.579 289.27 626.633C289.27 628.7 287.957 630.156 286.189 630.156C285.136 630.156 284.291 629.649 283.771 628.804V630H282.484V620.913H283.771V624.475C284.291 623.63 285.136 623.123 286.189 623.123ZM285.877 629.038C287.099 629.038 287.97 628.037 287.97 626.633C287.97 625.229 287.099 624.241 285.877 624.241C284.655 624.241 283.797 625.229 283.797 626.633C283.797 628.037 284.655 629.038 285.877 629.038ZM292.188 624.592C292.604 623.695 293.514 623.123 294.684 623.123V624.241C293.202 624.241 292.188 625.125 292.188 626.425V630H290.901V623.279H292.188V624.592ZM296.845 622.161C296.416 622.161 296.065 621.797 296.065 621.381C296.065 620.978 296.416 620.614 296.845 620.614C297.274 620.614 297.612 620.978 297.612 621.381C297.612 621.797 297.274 622.161 296.845 622.161ZM296.195 630V623.279H297.482V630H296.195ZM304.577 620.913H305.864V630H304.577V628.856C304.057 629.662 303.225 630.156 302.198 630.156C300.417 630.156 299.104 628.7 299.104 626.633C299.104 624.579 300.417 623.123 302.198 623.123C303.225 623.123 304.057 623.617 304.577 624.423V620.913ZM302.497 629.038C303.719 629.038 304.577 628.037 304.577 626.633C304.577 625.229 303.719 624.241 302.497 624.241C301.275 624.241 300.404 625.229 300.404 626.633C300.404 628.037 301.275 629.038 302.497 629.038Z" fill="black"/>
<path d="M537.927 630V621.069H541.684C543.556 621.069 544.999 622.278 544.999 623.981C544.999 625.684 543.556 626.893 541.684 626.893H539.24V630H537.927ZM539.24 625.671H541.489C542.776 625.671 543.66 625.034 543.66 623.981C543.66 622.928 542.776 622.291 541.489 622.291H539.24V625.671ZM551.115 623.279H552.402V630H551.115V629.038C550.712 629.701 549.893 630.156 548.97 630.156C547.488 630.156 546.461 629.103 546.461 627.556V623.279H547.722V627.335C547.722 628.349 548.359 629.038 549.269 629.038C550.296 629.038 551.115 628.336 551.115 627.452V623.279ZM558.231 623.123C559.999 623.123 561.312 624.579 561.312 626.633C561.312 628.7 559.999 630.156 558.231 630.156C557.178 630.156 556.333 629.649 555.813 628.804V630H554.526V620.913H555.813V624.475C556.333 623.63 557.178 623.123 558.231 623.123ZM557.919 629.038C559.141 629.038 560.012 628.037 560.012 626.633C560.012 625.229 559.141 624.241 557.919 624.241C556.697 624.241 555.839 625.229 555.839 626.633C555.839 628.037 556.697 629.038 557.919 629.038ZM562.943 630V620.913H564.23V630H562.943ZM566.983 622.161C566.554 622.161 566.203 621.797 566.203 621.381C566.203 620.978 566.554 620.614 566.983 620.614C567.412 620.614 567.75 620.978 567.75 621.381C567.75 621.797 567.412 622.161 566.983 622.161ZM566.333 630V623.279H567.62V630H566.333ZM572.712 630.156C570.788 630.156 569.163 628.544 569.163 626.633C569.163 624.722 570.801 623.123 572.712 623.123C573.687 623.123 574.545 623.526 575.195 624.163L574.324 624.969C573.908 624.514 573.323 624.241 572.712 624.241C571.49 624.241 570.463 625.333 570.463 626.633C570.463 627.946 571.49 629.038 572.712 629.038C573.336 629.038 573.934 628.752 574.363 628.284L575.234 629.077C574.584 629.74 573.713 630.156 572.712 630.156ZM587.672 629.61L586.528 630.13C586.125 629.727 585.761 629.35 585.436 629.012C584.695 629.727 583.824 630.156 582.745 630.156C581.12 630.156 579.872 629.194 579.872 627.608C579.872 626.451 580.509 625.645 581.887 625.034C581.38 624.332 581.172 623.773 581.172 623.11C581.172 621.914 582.16 620.965 583.525 620.965C584.812 620.965 585.774 621.914 585.774 623.097C585.774 624.215 584.968 624.761 583.642 625.333C584.175 625.944 584.734 626.568 585.462 627.335C585.839 626.776 586.164 626.139 586.424 625.45L587.451 625.918C587.074 626.737 586.658 627.478 586.203 628.115L587.672 629.61ZM583.538 621.992C582.875 621.992 582.355 622.421 582.355 623.11C582.355 623.565 582.576 624.02 583.018 624.579C584.11 624.15 584.578 623.799 584.578 623.11C584.578 622.486 584.149 621.992 583.538 621.992ZM582.849 629.09C583.512 629.09 584.136 628.765 584.695 628.245C583.72 627.231 583.057 626.49 582.498 625.827C581.64 626.256 581.159 626.828 581.159 627.556C581.159 628.518 581.926 629.09 582.849 629.09ZM593.253 630V621.069H597.01C598.882 621.069 600.325 622.278 600.325 623.981C600.325 625.684 598.882 626.893 597.01 626.893H594.566V630H593.253ZM594.566 625.671H596.815C598.102 625.671 598.986 625.034 598.986 623.981C598.986 622.928 598.102 622.291 596.815 622.291H594.566V625.671ZM603.217 624.592C603.633 623.695 604.543 623.123 605.713 623.123V624.241C604.231 624.241 603.217 625.125 603.217 626.425V630H601.93V623.279H603.217V624.592ZM607.874 622.161C607.445 622.161 607.094 621.797 607.094 621.381C607.094 620.978 607.445 620.614 607.874 620.614C608.303 620.614 608.641 620.978 608.641 621.381C608.641 621.797 608.303 622.161 607.874 622.161ZM607.224 630V623.279H608.511V630H607.224ZM612.577 630L609.704 623.279H611.082L613.175 628.505L615.229 623.279H616.62L613.786 630H612.577ZM620.36 623.123C622.167 623.123 623.168 624.267 623.168 625.931V630H621.907V629.09C621.413 629.779 620.503 630.156 619.671 630.156C618.254 630.156 617.188 629.324 617.188 628.011C617.188 626.672 618.397 625.775 619.879 625.775C620.542 625.775 621.257 625.918 621.907 626.139V625.931C621.907 625.086 621.517 624.189 620.178 624.189C619.515 624.189 618.878 624.449 618.293 624.748L617.812 623.799C618.774 623.318 619.619 623.123 620.36 623.123ZM619.931 629.142C620.763 629.142 621.686 628.726 621.907 627.894V626.997C621.348 626.828 620.737 626.737 620.074 626.737C619.177 626.737 618.423 627.244 618.423 627.972C618.423 628.7 619.073 629.142 619.931 629.142ZM628.01 628.791L628.491 629.675C628.127 629.974 627.62 630.156 627.139 630.156C626.099 630.156 625.371 629.402 625.371 628.323V624.371H624.37V623.279H625.371V621.433H626.632V623.279H628.218V624.371H626.632V628.232C626.632 628.7 626.957 629.038 627.334 629.038C627.62 629.038 627.88 628.934 628.01 628.791ZM632.76 629.09C633.488 629.09 634.333 628.765 634.749 628.323L635.503 629.116C634.918 629.753 633.735 630.156 632.786 630.156C630.927 630.156 629.315 628.687 629.315 626.62C629.315 624.605 630.836 623.123 632.695 623.123C634.749 623.123 635.945 624.657 635.945 627.049H630.576C630.732 628.232 631.564 629.09 632.76 629.09ZM632.721 624.189C631.642 624.189 630.784 624.943 630.589 626.1H634.697C634.567 625.021 633.891 624.189 632.721 624.189Z" fill="black"/>
<path d="M711.59 630V621.069H715.347C717.219 621.069 718.662 622.278 718.662 623.981C718.662 625.684 717.219 626.893 715.347 626.893H712.903V630H711.59ZM712.903 625.671H715.152C716.439 625.671 717.323 625.034 717.323 623.981C717.323 622.928 716.439 622.291 715.152 622.291H712.903V625.671ZM721.554 624.592C721.97 623.695 722.88 623.123 724.05 623.123V624.241C722.568 624.241 721.554 625.125 721.554 626.425V630H720.267V623.279H721.554V624.592ZM726.211 622.161C725.782 622.161 725.431 621.797 725.431 621.381C725.431 620.978 725.782 620.614 726.211 620.614C726.64 620.614 726.978 620.978 726.978 621.381C726.978 621.797 726.64 622.161 726.211 622.161ZM725.561 630V623.279H726.848V630H725.561ZM730.914 630L728.041 623.279H729.419L731.512 628.505L733.566 623.279H734.957L732.123 630H730.914ZM738.697 623.123C740.504 623.123 741.505 624.267 741.505 625.931V630H740.244V629.09C739.75 629.779 738.84 630.156 738.008 630.156C736.591 630.156 735.525 629.324 735.525 628.011C735.525 626.672 736.734 625.775 738.216 625.775C738.879 625.775 739.594 625.918 740.244 626.139V625.931C740.244 625.086 739.854 624.189 738.515 624.189C737.852 624.189 737.215 624.449 736.63 624.748L736.149 623.799C737.111 623.318 737.956 623.123 738.697 623.123ZM738.268 629.142C739.1 629.142 740.023 628.726 740.244 627.894V626.997C739.685 626.828 739.074 626.737 738.411 626.737C737.514 626.737 736.76 627.244 736.76 627.972C736.76 628.7 737.41 629.142 738.268 629.142ZM746.347 628.791L746.828 629.675C746.464 629.974 745.957 630.156 745.476 630.156C744.436 630.156 743.708 629.402 743.708 628.323V624.371H742.707V623.279H743.708V621.433H744.969V623.279H746.555V624.371H744.969V628.232C744.969 628.7 745.294 629.038 745.671 629.038C745.957 629.038 746.217 628.934 746.347 628.791ZM751.097 629.09C751.825 629.09 752.67 628.765 753.086 628.323L753.84 629.116C753.255 629.753 752.072 630.156 751.123 630.156C749.264 630.156 747.652 628.687 747.652 626.62C747.652 624.605 749.173 623.123 751.032 623.123C753.086 623.123 754.282 624.657 754.282 627.049H748.913C749.069 628.232 749.901 629.09 751.097 629.09ZM751.058 624.189C749.979 624.189 749.121 624.943 748.926 626.1H753.034C752.904 625.021 752.228 624.189 751.058 624.189Z" fill="black"/>
<path d="M830.978 630V621.069H834.735C836.607 621.069 838.05 622.278 838.05 623.981C838.05 625.684 836.607 626.893 834.735 626.893H832.291V630H830.978ZM832.291 625.671H834.54C835.827 625.671 836.711 625.034 836.711 623.981C836.711 622.928 835.827 622.291 834.54 622.291H832.291V625.671ZM840.943 624.592C841.359 623.695 842.269 623.123 843.439 623.123V624.241C841.957 624.241 840.943 625.125 840.943 626.425V630H839.656V623.279H840.943V624.592ZM845.599 622.161C845.17 622.161 844.819 621.797 844.819 621.381C844.819 620.978 845.17 620.614 845.599 620.614C846.028 620.614 846.366 620.978 846.366 621.381C846.366 621.797 846.028 622.161 845.599 622.161ZM844.949 630V623.279H846.236V630H844.949ZM850.302 630L847.429 623.279H848.807L850.9 628.505L852.954 623.279H854.345L851.511 630H850.302ZM858.085 623.123C859.892 623.123 860.893 624.267 860.893 625.931V630H859.632V629.09C859.138 629.779 858.228 630.156 857.396 630.156C855.979 630.156 854.913 629.324 854.913 628.011C854.913 626.672 856.122 625.775 857.604 625.775C858.267 625.775 858.982 625.918 859.632 626.139V625.931C859.632 625.086 859.242 624.189 857.903 624.189C857.24 624.189 856.603 624.449 856.018 624.748L855.537 623.799C856.499 623.318 857.344 623.123 858.085 623.123ZM857.656 629.142C858.488 629.142 859.411 628.726 859.632 627.894V626.997C859.073 626.828 858.462 626.737 857.799 626.737C856.902 626.737 856.148 627.244 856.148 627.972C856.148 628.7 856.798 629.142 857.656 629.142ZM865.736 628.791L866.217 629.675C865.853 629.974 865.346 630.156 864.865 630.156C863.825 630.156 863.097 629.402 863.097 628.323V624.371H862.096V623.279H863.097V621.433H864.358V623.279H865.944V624.371H864.358V628.232C864.358 628.7 864.683 629.038 865.06 629.038C865.346 629.038 865.606 628.934 865.736 628.791ZM870.485 629.09C871.213 629.09 872.058 628.765 872.474 628.323L873.228 629.116C872.643 629.753 871.46 630.156 870.511 630.156C868.652 630.156 867.04 628.687 867.04 626.62C867.04 624.605 868.561 623.123 870.42 623.123C872.474 623.123 873.67 624.657 873.67 627.049H868.301C868.457 628.232 869.289 629.09 870.485 629.09ZM870.446 624.189C869.367 624.189 868.509 624.943 868.314 626.1H872.422C872.292 625.021 871.616 624.189 870.446 624.189ZM886.271 629.61L885.127 630.13C884.724 629.727 884.36 629.35 884.035 629.012C883.294 629.727 882.423 630.156 881.344 630.156C879.719 630.156 878.471 629.194 878.471 627.608C878.471 626.451 879.108 625.645 880.486 625.034C879.979 624.332 879.771 623.773 879.771 623.11C879.771 621.914 880.759 620.965 882.124 620.965C883.411 620.965 884.373 621.914 884.373 623.097C884.373 624.215 883.567 624.761 882.241 625.333C882.774 625.944 883.333 626.568 884.061 627.335C884.438 626.776 884.763 626.139 885.023 625.45L886.05 625.918C885.673 626.737 885.257 627.478 884.802 628.115L886.271 629.61ZM882.137 621.992C881.474 621.992 880.954 622.421 880.954 623.11C880.954 623.565 881.175 624.02 881.617 624.579C882.709 624.15 883.177 623.799 883.177 623.11C883.177 622.486 882.748 621.992 882.137 621.992ZM881.448 629.09C882.111 629.09 882.735 628.765 883.294 628.245C882.319 627.231 881.656 626.49 881.097 625.827C880.239 626.256 879.758 626.828 879.758 627.556C879.758 628.518 880.525 629.09 881.448 629.09ZM898.027 621.069H899.34V630H898.027V626.061H893.165V630H891.852V621.069H893.165V624.839H898.027V621.069ZM902.594 632.34C902.139 632.34 901.671 632.236 901.32 632.054L901.606 631.066C901.866 631.209 902.165 631.274 902.425 631.274C902.841 631.274 903.127 631.144 903.348 630.754L903.686 630.039L900.8 623.279H902.178L904.336 628.583L906.377 623.279H907.716L904.752 630.611C904.271 631.82 903.556 632.327 902.594 632.34ZM912.626 623.123C914.394 623.123 915.707 624.579 915.707 626.633C915.707 628.7 914.394 630.156 912.626 630.156C911.573 630.156 910.728 629.649 910.208 628.804V630H908.921V620.913H910.208V624.475C910.728 623.63 911.573 623.123 912.626 623.123ZM912.314 629.038C913.536 629.038 914.407 628.037 914.407 626.633C914.407 625.229 913.536 624.241 912.314 624.241C911.092 624.241 910.234 625.229 910.234 626.633C910.234 628.037 911.092 629.038 912.314 629.038ZM918.625 624.592C919.041 623.695 919.951 623.123 921.121 623.123V624.241C919.639 624.241 918.625 625.125 918.625 626.425V630H917.338V623.279H918.625V624.592ZM923.282 622.161C922.853 622.161 922.502 621.797 922.502 621.381C922.502 620.978 922.853 620.614 923.282 620.614C923.711 620.614 924.049 620.978 924.049 621.381C924.049 621.797 923.711 622.161 923.282 622.161ZM922.632 630V623.279H923.919V630H922.632ZM931.014 620.913H932.301V630H931.014V628.856C930.494 629.662 929.662 630.156 928.635 630.156C926.854 630.156 925.541 628.7 925.541 626.633C925.541 624.579 926.854 623.123 928.635 623.123C929.662 623.123 930.494 623.617 931.014 624.423V620.913ZM928.934 629.038C930.156 629.038 931.014 628.037 931.014 626.633C931.014 625.229 930.156 624.241 928.934 624.241C927.712 624.241 926.841 625.229 926.841 626.633C926.841 628.037 927.712 629.038 928.934 629.038Z" fill="black"/>
<path d="M982.752 630V621.069H986.509C988.381 621.069 989.824 622.278 989.824 623.981C989.824 625.684 988.381 626.893 986.509 626.893H984.065V630H982.752ZM984.065 625.671H986.314C987.601 625.671 988.485 625.034 988.485 623.981C988.485 622.928 987.601 622.291 986.314 622.291H984.065V625.671ZM995.94 623.279H997.227V630H995.94V629.038C995.537 629.701 994.718 630.156 993.795 630.156C992.313 630.156 991.286 629.103 991.286 627.556V623.279H992.547V627.335C992.547 628.349 993.184 629.038 994.094 629.038C995.121 629.038 995.94 628.336 995.94 627.452V623.279ZM1003.06 623.123C1004.82 623.123 1006.14 624.579 1006.14 626.633C1006.14 628.7 1004.82 630.156 1003.06 630.156C1002 630.156 1001.16 629.649 1000.64 628.804V630H999.351V620.913H1000.64V624.475C1001.16 623.63 1002 623.123 1003.06 623.123ZM1002.74 629.038C1003.97 629.038 1004.84 628.037 1004.84 626.633C1004.84 625.229 1003.97 624.241 1002.74 624.241C1001.52 624.241 1000.66 625.229 1000.66 626.633C1000.66 628.037 1001.52 629.038 1002.74 629.038ZM1007.77 630V620.913H1009.06V630H1007.77ZM1011.81 622.161C1011.38 622.161 1011.03 621.797 1011.03 621.381C1011.03 620.978 1011.38 620.614 1011.81 620.614C1012.24 620.614 1012.57 620.978 1012.57 621.381C1012.57 621.797 1012.24 622.161 1011.81 622.161ZM1011.16 630V623.279H1012.44V630H1011.16ZM1017.54 630.156C1015.61 630.156 1013.99 628.544 1013.99 626.633C1013.99 624.722 1015.63 623.123 1017.54 623.123C1018.51 623.123 1019.37 623.526 1020.02 624.163L1019.15 624.969C1018.73 624.514 1018.15 624.241 1017.54 624.241C1016.32 624.241 1015.29 625.333 1015.29 626.633C1015.29 627.946 1016.32 629.038 1017.54 629.038C1018.16 629.038 1018.76 628.752 1019.19 628.284L1020.06 629.077C1019.41 629.74 1018.54 630.156 1017.54 630.156ZM1032.5 629.61L1031.35 630.13C1030.95 629.727 1030.59 629.35 1030.26 629.012C1029.52 629.727 1028.65 630.156 1027.57 630.156C1025.95 630.156 1024.7 629.194 1024.7 627.608C1024.7 626.451 1025.33 625.645 1026.71 625.034C1026.21 624.332 1026 623.773 1026 623.11C1026 621.914 1026.99 620.965 1028.35 620.965C1029.64 620.965 1030.6 621.914 1030.6 623.097C1030.6 624.215 1029.79 624.761 1028.47 625.333C1029 625.944 1029.56 626.568 1030.29 627.335C1030.66 626.776 1030.99 626.139 1031.25 625.45L1032.28 625.918C1031.9 626.737 1031.48 627.478 1031.03 628.115L1032.5 629.61ZM1028.36 621.992C1027.7 621.992 1027.18 622.421 1027.18 623.11C1027.18 623.565 1027.4 624.02 1027.84 624.579C1028.94 624.15 1029.4 623.799 1029.4 623.11C1029.4 622.486 1028.97 621.992 1028.36 621.992ZM1027.67 629.09C1028.34 629.09 1028.96 628.765 1029.52 628.245C1028.55 627.231 1027.88 626.49 1027.32 625.827C1026.47 626.256 1025.98 626.828 1025.98 627.556C1025.98 628.518 1026.75 629.09 1027.67 629.09ZM1044.25 621.069H1045.57V630H1044.25V626.061H1039.39V630H1038.08V621.069H1039.39V624.839H1044.25V621.069ZM1048.82 632.34C1048.36 632.34 1047.9 632.236 1047.55 632.054L1047.83 631.066C1048.09 631.209 1048.39 631.274 1048.65 631.274C1049.07 631.274 1049.35 631.144 1049.57 630.754L1049.91 630.039L1047.03 623.279H1048.4L1050.56 628.583L1052.6 623.279H1053.94L1050.98 630.611C1050.5 631.82 1049.78 632.327 1048.82 632.34ZM1058.85 623.123C1060.62 623.123 1061.93 624.579 1061.93 626.633C1061.93 628.7 1060.62 630.156 1058.85 630.156C1057.8 630.156 1056.95 629.649 1056.43 628.804V630H1055.15V620.913H1056.43V624.475C1056.95 623.63 1057.8 623.123 1058.85 623.123ZM1058.54 629.038C1059.76 629.038 1060.63 628.037 1060.63 626.633C1060.63 625.229 1059.76 624.241 1058.54 624.241C1057.32 624.241 1056.46 625.229 1056.46 626.633C1056.46 628.037 1057.32 629.038 1058.54 629.038ZM1064.85 624.592C1065.27 623.695 1066.18 623.123 1067.35 623.123V624.241C1065.87 624.241 1064.85 625.125 1064.85 626.425V630H1063.56V623.279H1064.85V624.592ZM1069.51 622.161C1069.08 622.161 1068.73 621.797 1068.73 621.381C1068.73 620.978 1069.08 620.614 1069.51 620.614C1069.94 620.614 1070.28 620.978 1070.28 621.381C1070.28 621.797 1069.94 622.161 1069.51 622.161ZM1068.86 630V623.279H1070.15V630H1068.86ZM1077.24 620.913H1078.53V630H1077.24V628.856C1076.72 629.662 1075.89 630.156 1074.86 630.156C1073.08 630.156 1071.77 628.7 1071.77 626.633C1071.77 624.579 1073.08 623.123 1074.86 623.123C1075.89 623.123 1076.72 623.617 1077.24 624.423V620.913ZM1075.16 629.038C1076.38 629.038 1077.24 628.037 1077.24 626.633C1077.24 625.229 1076.38 624.241 1075.16 624.241C1073.94 624.241 1073.07 625.229 1073.07 626.633C1073.07 628.037 1073.94 629.038 1075.16 629.038Z" fill="black"/>
<path d="M1128.16 630L1125.22 621.069H1126.68L1128.88 627.881L1131.11 621.069H1132.56L1134.79 627.881L1136.99 621.069H1138.44L1135.51 630H1134.19L1131.84 622.889L1129.47 630H1128.16ZM1142.81 629.09C1143.54 629.09 1144.39 628.765 1144.8 628.323L1145.56 629.116C1144.97 629.753 1143.79 630.156 1142.84 630.156C1140.98 630.156 1139.37 628.687 1139.37 626.62C1139.37 624.605 1140.89 623.123 1142.75 623.123C1144.8 623.123 1146 624.657 1146 627.049H1140.63C1140.79 628.232 1141.62 629.09 1142.81 629.09ZM1142.78 624.189C1141.7 624.189 1140.84 624.943 1140.64 626.1H1144.75C1144.62 625.021 1143.95 624.189 1142.78 624.189ZM1156.07 620.913H1157.35V630H1156.07V628.856C1155.55 629.662 1154.71 630.156 1153.69 630.156C1151.91 630.156 1150.59 628.7 1150.59 626.633C1150.59 624.579 1151.91 623.123 1153.69 623.123C1154.71 623.123 1155.55 623.617 1156.07 624.423V620.913ZM1153.99 629.038C1155.21 629.038 1156.07 628.037 1156.07 626.633C1156.07 625.229 1155.21 624.241 1153.99 624.241C1152.76 624.241 1151.89 625.229 1151.89 626.633C1151.89 628.037 1152.76 629.038 1153.99 629.038ZM1162.44 630.156C1160.51 630.156 1158.91 628.57 1158.91 626.633C1158.91 624.696 1160.51 623.123 1162.44 623.123C1164.38 623.123 1165.98 624.696 1165.98 626.633C1165.98 628.57 1164.38 630.156 1162.44 630.156ZM1162.44 629.038C1163.68 629.038 1164.69 627.959 1164.69 626.633C1164.69 625.307 1163.68 624.241 1162.44 624.241C1161.21 624.241 1160.19 625.307 1160.19 626.633C1160.19 627.959 1161.21 629.038 1162.44 629.038ZM1170.97 623.123C1172.45 623.123 1173.48 624.176 1173.48 625.723V630H1172.23V625.944C1172.23 624.93 1171.6 624.241 1170.69 624.241C1169.66 624.241 1168.83 624.943 1168.83 625.827V630H1167.54V623.279H1168.83V624.267C1169.22 623.591 1170.05 623.123 1170.97 623.123ZM1175.89 624.579C1175.74 623.747 1175.49 622.551 1175.49 621.888C1175.49 621.485 1175.81 621.147 1176.22 621.147C1176.61 621.147 1176.94 621.485 1176.94 621.888C1176.94 622.551 1176.7 623.747 1176.53 624.579H1175.89ZM1181.97 628.791L1182.45 629.675C1182.08 629.974 1181.58 630.156 1181.1 630.156C1180.06 630.156 1179.33 629.402 1179.33 628.323V624.371H1178.33V623.279H1179.33V621.433H1180.59V623.279H1182.17V624.371H1180.59V628.232C1180.59 628.7 1180.91 629.038 1181.29 629.038C1181.58 629.038 1181.84 628.934 1181.97 628.791ZM1191.87 623.279H1193.16V630H1191.87V629.038C1191.47 629.701 1190.65 630.156 1189.72 630.156C1188.24 630.156 1187.21 629.103 1187.21 627.556V623.279H1188.48V627.335C1188.48 628.349 1189.11 629.038 1190.02 629.038C1191.05 629.038 1191.87 628.336 1191.87 627.452V623.279ZM1197.49 630.156C1196.5 630.156 1195.44 629.805 1194.63 629.155L1195.21 628.271C1195.96 628.817 1196.76 629.116 1197.5 629.116C1198.31 629.116 1198.82 628.752 1198.82 628.206C1198.82 627.569 1198.11 627.361 1197.26 627.127C1195.72 626.698 1194.94 626.256 1194.94 625.164C1194.94 623.929 1195.97 623.123 1197.39 623.123C1198.26 623.123 1199.15 623.422 1199.87 623.903L1199.34 624.813C1198.67 624.397 1198 624.163 1197.39 624.163C1196.71 624.163 1196.16 624.462 1196.16 625.021C1196.16 625.541 1196.62 625.697 1197.76 626.048C1198.87 626.373 1200.04 626.737 1200.04 628.076C1200.04 629.35 1198.97 630.156 1197.49 630.156ZM1204.53 629.09C1205.25 629.09 1206.1 628.765 1206.52 628.323L1207.27 629.116C1206.68 629.753 1205.5 630.156 1204.55 630.156C1202.69 630.156 1201.08 628.687 1201.08 626.62C1201.08 624.605 1202.6 623.123 1204.46 623.123C1206.52 623.123 1207.71 624.657 1207.71 627.049H1202.34C1202.5 628.232 1203.33 629.09 1204.53 629.09ZM1204.49 624.189C1203.41 624.189 1202.55 624.943 1202.36 626.1H1206.46C1206.33 625.021 1205.66 624.189 1204.49 624.189ZM1215.33 623.123C1217.14 623.123 1218.14 624.267 1218.14 625.931V630H1216.88V629.09C1216.39 629.779 1215.48 630.156 1214.65 630.156C1213.23 630.156 1212.16 629.324 1212.16 628.011C1212.16 626.672 1213.37 625.775 1214.85 625.775C1215.52 625.775 1216.23 625.918 1216.88 626.139V625.931C1216.88 625.086 1216.49 624.189 1215.15 624.189C1214.49 624.189 1213.85 624.449 1213.27 624.748L1212.79 623.799C1213.75 623.318 1214.59 623.123 1215.33 623.123ZM1214.91 629.142C1215.74 629.142 1216.66 628.726 1216.88 627.894V626.997C1216.32 626.828 1215.71 626.737 1215.05 626.737C1214.15 626.737 1213.4 627.244 1213.4 627.972C1213.4 628.7 1214.05 629.142 1214.91 629.142ZM1223.54 623.123C1225.03 623.123 1226.05 624.176 1226.05 625.723V630H1224.8V625.944C1224.8 624.93 1224.17 624.241 1223.26 624.241C1222.23 624.241 1221.4 624.943 1221.4 625.827V630H1220.11V623.279H1221.4V624.267C1221.79 623.591 1222.62 623.123 1223.54 623.123ZM1228.89 632.34C1228.44 632.34 1227.97 632.236 1227.62 632.054L1227.9 631.066C1228.16 631.209 1228.46 631.274 1228.72 631.274C1229.14 631.274 1229.42 631.144 1229.65 630.754L1229.98 630.039L1227.1 623.279H1228.48L1230.63 628.583L1232.67 623.279H1234.01L1231.05 630.611C1230.57 631.82 1229.85 632.327 1228.89 632.34ZM1130.73 648.156C1128.81 648.156 1127.18 646.544 1127.18 644.633C1127.18 642.722 1128.82 641.123 1130.73 641.123C1131.71 641.123 1132.56 641.526 1133.21 642.163L1132.34 642.969C1131.93 642.514 1131.34 642.241 1130.73 642.241C1129.51 642.241 1128.48 643.333 1128.48 644.633C1128.48 645.946 1129.51 647.038 1130.73 647.038C1131.35 647.038 1131.95 646.752 1132.38 646.284L1133.25 647.077C1132.6 647.74 1131.73 648.156 1130.73 648.156ZM1134.6 648V638.913H1135.88V648H1134.6ZM1140.98 648.156C1139.04 648.156 1137.44 646.57 1137.44 644.633C1137.44 642.696 1139.04 641.123 1140.98 641.123C1142.91 641.123 1144.51 642.696 1144.51 644.633C1144.51 646.57 1142.91 648.156 1140.98 648.156ZM1140.98 647.038C1142.21 647.038 1143.22 645.959 1143.22 644.633C1143.22 643.307 1142.21 642.241 1140.98 642.241C1139.74 642.241 1138.73 643.307 1138.73 644.633C1138.73 645.959 1139.74 647.038 1140.98 647.038ZM1150.58 641.279H1151.87V648H1150.58V647.038C1150.18 647.701 1149.36 648.156 1148.44 648.156C1146.96 648.156 1145.93 647.103 1145.93 645.556V641.279H1147.19V645.335C1147.19 646.349 1147.83 647.038 1148.74 647.038C1149.76 647.038 1150.58 646.336 1150.58 645.452V641.279ZM1158.99 638.913H1160.27V648H1158.99V646.856C1158.47 647.662 1157.63 648.156 1156.61 648.156C1154.83 648.156 1153.51 646.7 1153.51 644.633C1153.51 642.579 1154.83 641.123 1156.61 641.123C1157.63 641.123 1158.47 641.617 1158.99 642.423V638.913ZM1156.91 647.038C1158.13 647.038 1158.99 646.037 1158.99 644.633C1158.99 643.229 1158.13 642.241 1156.91 642.241C1155.68 642.241 1154.81 643.229 1154.81 644.633C1154.81 646.037 1155.68 647.038 1156.91 647.038ZM1168.93 648.156C1167.01 648.156 1165.38 646.544 1165.38 644.633C1165.38 642.722 1167.02 641.123 1168.93 641.123C1169.91 641.123 1170.76 641.526 1171.41 642.163L1170.54 642.969C1170.13 642.514 1169.54 642.241 1168.93 642.241C1167.71 642.241 1166.68 643.333 1166.68 644.633C1166.68 645.946 1167.71 647.038 1168.93 647.038C1169.55 647.038 1170.15 646.752 1170.58 646.284L1171.45 647.077C1170.8 647.74 1169.93 648.156 1168.93 648.156ZM1175.79 648.156C1173.85 648.156 1172.25 646.57 1172.25 644.633C1172.25 642.696 1173.85 641.123 1175.79 641.123C1177.72 641.123 1179.32 642.696 1179.32 644.633C1179.32 646.57 1177.72 648.156 1175.79 648.156ZM1175.79 647.038C1177.02 647.038 1178.04 645.959 1178.04 644.633C1178.04 643.307 1177.02 642.241 1175.79 642.241C1174.55 642.241 1173.54 643.307 1173.54 644.633C1173.54 645.959 1174.55 647.038 1175.79 647.038ZM1188.41 641.123C1189.81 641.123 1190.83 642.202 1190.83 643.723V648H1189.58V643.918C1189.58 642.93 1188.98 642.241 1188.15 642.241C1187.19 642.241 1186.5 642.878 1186.5 643.801V648H1185.24V643.918C1185.24 642.93 1184.65 642.241 1183.82 642.241C1182.85 642.241 1182.17 642.878 1182.17 643.801V648H1180.88V641.279H1182.17V642.241C1182.51 641.552 1183.21 641.123 1184.08 641.123C1185.15 641.123 1185.99 641.747 1186.33 642.722C1186.54 641.773 1187.36 641.123 1188.41 641.123ZM1196.46 641.123C1198.24 641.123 1199.55 642.579 1199.55 644.633C1199.55 646.7 1198.24 648.156 1196.46 648.156C1195.43 648.156 1194.6 647.662 1194.08 646.843V650.236H1192.79V641.279H1194.08V642.423C1194.6 641.617 1195.43 641.123 1196.46 641.123ZM1196.16 647.038C1197.38 647.038 1198.25 646.037 1198.25 644.633C1198.25 643.229 1197.38 642.241 1196.16 642.241C1194.94 642.241 1194.08 643.229 1194.08 644.633C1194.08 646.037 1194.94 647.038 1196.16 647.038ZM1205.68 641.279H1206.97V648H1205.68V647.038C1205.28 647.701 1204.46 648.156 1203.54 648.156C1202.05 648.156 1201.03 647.103 1201.03 645.556V641.279H1202.29V645.335C1202.29 646.349 1202.93 647.038 1203.84 647.038C1204.86 647.038 1205.68 646.336 1205.68 645.452V641.279ZM1211.97 646.791L1212.45 647.675C1212.08 647.974 1211.58 648.156 1211.09 648.156C1210.05 648.156 1209.33 647.402 1209.33 646.323V642.371H1208.33V641.279H1209.33V639.433H1210.59V641.279H1212.17V642.371H1210.59V646.232C1210.59 646.7 1210.91 647.038 1211.29 647.038C1211.58 647.038 1211.84 646.934 1211.97 646.791ZM1214.44 640.161C1214.01 640.161 1213.66 639.797 1213.66 639.381C1213.66 638.978 1214.01 638.614 1214.44 638.614C1214.87 638.614 1215.21 638.978 1215.21 639.381C1215.21 639.797 1214.87 640.161 1214.44 640.161ZM1213.79 648V641.279H1215.08V648H1213.79ZM1220.61 641.123C1222.09 641.123 1223.12 642.176 1223.12 643.723V648H1221.87V643.944C1221.87 642.93 1221.23 642.241 1220.32 642.241C1219.3 642.241 1218.47 642.943 1218.47 643.827V648H1217.18V641.279H1218.47V642.267C1218.86 641.591 1219.69 641.123 1220.61 641.123ZM1229.98 641.279H1231.26V647.285C1231.26 649.014 1229.85 650.236 1227.86 650.236C1226.73 650.236 1225.69 649.859 1225.05 649.339L1225.56 648.377C1226.05 648.845 1226.86 649.118 1227.68 649.118C1229.11 649.118 1229.98 648.429 1229.98 647.259V646.284C1229.44 647.051 1228.61 647.506 1227.61 647.506C1225.83 647.506 1224.54 646.18 1224.54 644.308C1224.54 642.436 1225.83 641.123 1227.61 641.123C1228.61 641.123 1229.47 641.591 1229.98 642.345V641.279ZM1227.92 646.388C1229.13 646.388 1229.98 645.53 1229.98 644.308C1229.98 643.099 1229.13 642.241 1227.92 642.241C1226.74 642.241 1225.88 643.099 1225.88 644.308C1225.88 645.53 1226.74 646.388 1227.92 646.388ZM1142.02 665.09C1142.75 665.09 1143.59 664.765 1144.01 664.323L1144.76 665.116C1144.18 665.753 1143 666.156 1142.05 666.156C1140.19 666.156 1138.58 664.687 1138.58 662.62C1138.58 660.605 1140.1 659.123 1141.96 659.123C1144.01 659.123 1145.21 660.657 1145.21 663.049H1139.84C1139.99 664.232 1140.83 665.09 1142.02 665.09ZM1141.98 660.189C1140.9 660.189 1140.05 660.943 1139.85 662.1H1143.96C1143.83 661.021 1143.15 660.189 1141.98 660.189ZM1150.15 659.123C1151.63 659.123 1152.65 660.176 1152.65 661.723V666H1151.41V661.944C1151.41 660.93 1150.77 660.241 1149.86 660.241C1148.83 660.241 1148 660.943 1148 661.827V666H1146.71V659.279H1148V660.267C1148.39 659.591 1149.22 659.123 1150.15 659.123ZM1156.59 666L1153.71 659.279H1155.09L1157.18 664.505L1159.24 659.279H1160.63L1157.79 666H1156.59ZM1162.47 658.161C1162.04 658.161 1161.69 657.797 1161.69 657.381C1161.69 656.978 1162.04 656.614 1162.47 656.614C1162.9 656.614 1163.24 656.978 1163.24 657.381C1163.24 657.797 1162.9 658.161 1162.47 658.161ZM1161.82 666V659.279H1163.11V666H1161.82ZM1166.5 660.592C1166.91 659.695 1167.82 659.123 1168.99 659.123V660.241C1167.51 660.241 1166.5 661.125 1166.5 662.425V666H1165.21V659.279H1166.5V660.592ZM1173.49 666.156C1171.56 666.156 1169.96 664.57 1169.96 662.633C1169.96 660.696 1171.56 659.123 1173.49 659.123C1175.43 659.123 1177.03 660.696 1177.03 662.633C1177.03 664.57 1175.43 666.156 1173.49 666.156ZM1173.49 665.038C1174.73 665.038 1175.74 663.959 1175.74 662.633C1175.74 661.307 1174.73 660.241 1173.49 660.241C1172.26 660.241 1171.25 661.307 1171.25 662.633C1171.25 663.959 1172.26 665.038 1173.49 665.038ZM1182.02 659.123C1183.51 659.123 1184.53 660.176 1184.53 661.723V666H1183.28V661.944C1183.28 660.93 1182.65 660.241 1181.74 660.241C1180.71 660.241 1179.88 660.943 1179.88 661.827V666H1178.59V659.279H1179.88V660.267C1180.27 659.591 1181.1 659.123 1182.02 659.123ZM1194.03 659.123C1195.43 659.123 1196.45 660.202 1196.45 661.723V666H1195.2V661.918C1195.2 660.93 1194.6 660.241 1193.77 660.241C1192.81 660.241 1192.12 660.878 1192.12 661.801V666H1190.86V661.918C1190.86 660.93 1190.27 660.241 1189.44 660.241C1188.46 660.241 1187.79 660.878 1187.79 661.801V666H1186.5V659.279H1187.79V660.241C1188.13 659.552 1188.83 659.123 1189.7 659.123C1190.76 659.123 1191.61 659.747 1191.95 660.722C1192.16 659.773 1192.97 659.123 1194.03 659.123ZM1201.33 665.09C1202.06 665.09 1202.91 664.765 1203.32 664.323L1204.08 665.116C1203.49 665.753 1202.31 666.156 1201.36 666.156C1199.5 666.156 1197.89 664.687 1197.89 662.62C1197.89 660.605 1199.41 659.123 1201.27 659.123C1203.32 659.123 1204.52 660.657 1204.52 663.049H1199.15C1199.31 664.232 1200.14 665.09 1201.33 665.09ZM1201.29 660.189C1200.22 660.189 1199.36 660.943 1199.16 662.1H1203.27C1203.14 661.021 1202.46 660.189 1201.29 660.189ZM1209.46 659.123C1210.94 659.123 1211.97 660.176 1211.97 661.723V666H1210.72V661.944C1210.72 660.93 1210.08 660.241 1209.17 660.241C1208.15 660.241 1207.31 660.943 1207.31 661.827V666H1206.03V659.279H1207.31V660.267C1207.7 659.591 1208.54 659.123 1209.46 659.123ZM1216.81 664.791L1217.29 665.675C1216.93 665.974 1216.42 666.156 1215.94 666.156C1214.9 666.156 1214.17 665.402 1214.17 664.323V660.371H1213.17V659.279H1214.17V657.433H1215.43V659.279H1217.02V660.371H1215.43V664.232C1215.43 664.7 1215.76 665.038 1216.13 665.038C1216.42 665.038 1216.68 664.934 1216.81 664.791Z" fill="black"/>
<path d="M1285.92 630V621.069H1289C1291.88 621.069 1293.93 622.915 1293.93 625.528C1293.93 628.141 1291.88 630 1289 630H1285.92ZM1287.23 628.804H1289.08C1291.13 628.804 1292.59 627.452 1292.59 625.528C1292.59 623.617 1291.13 622.265 1289.08 622.265H1287.23V628.804ZM1298.66 630.156C1296.73 630.156 1295.13 628.57 1295.13 626.633C1295.13 624.696 1296.73 623.123 1298.66 623.123C1300.6 623.123 1302.2 624.696 1302.2 626.633C1302.2 628.57 1300.6 630.156 1298.66 630.156ZM1298.66 629.038C1299.9 629.038 1300.91 627.959 1300.91 626.633C1300.91 625.307 1299.9 624.241 1298.66 624.241C1297.43 624.241 1296.42 625.307 1296.42 626.633C1296.42 627.959 1297.43 629.038 1298.66 629.038ZM1307.19 623.123C1308.68 623.123 1309.7 624.176 1309.7 625.723V630H1308.45V625.944C1308.45 624.93 1307.82 624.241 1306.91 624.241C1305.88 624.241 1305.05 624.943 1305.05 625.827V630H1303.76V623.279H1305.05V624.267C1305.44 623.591 1306.27 623.123 1307.19 623.123ZM1312.27 624.501L1311.72 624.085C1312.09 623.695 1312.33 623.279 1312.44 622.876C1311.97 622.876 1311.59 622.473 1311.59 622.005C1311.59 621.55 1311.97 621.147 1312.45 621.147C1313.04 621.147 1313.4 621.667 1313.4 622.382C1313.4 622.98 1313.1 623.552 1312.27 624.501ZM1318.28 628.791L1318.76 629.675C1318.39 629.974 1317.89 630.156 1317.4 630.156C1316.36 630.156 1315.64 629.402 1315.64 628.323V624.371H1314.64V623.279H1315.64V621.433H1316.9V623.279H1318.48V624.371H1316.9V628.232C1316.9 628.7 1317.22 629.038 1317.6 629.038C1317.89 629.038 1318.15 628.934 1318.28 628.791ZM1323.67 630V620.913H1324.95V626.724L1328.24 623.279H1329.8L1326.9 626.321L1329.67 630H1328.14L1326.03 627.179L1324.95 628.271V630H1323.67ZM1334.42 623.123C1335.91 623.123 1336.93 624.176 1336.93 625.723V630H1335.69V625.944C1335.69 624.93 1335.05 624.241 1334.14 624.241C1333.11 624.241 1332.28 624.943 1332.28 625.827V630H1330.99V623.279H1332.28V624.267C1332.67 623.591 1333.5 623.123 1334.42 623.123ZM1341.89 630.156C1339.95 630.156 1338.36 628.57 1338.36 626.633C1338.36 624.696 1339.95 623.123 1341.89 623.123C1343.83 623.123 1345.43 624.696 1345.43 626.633C1345.43 628.57 1343.83 630.156 1341.89 630.156ZM1341.89 629.038C1343.13 629.038 1344.14 627.959 1344.14 626.633C1344.14 625.307 1343.13 624.241 1341.89 624.241C1340.66 624.241 1339.64 625.307 1339.64 626.633C1339.64 627.959 1340.66 629.038 1341.89 629.038ZM1348.41 630L1346.14 623.279H1347.46L1348.99 628.284L1350.65 623.279H1351.75L1353.41 628.284L1354.96 623.279H1356.27L1354 630H1352.81L1351.21 625.008L1349.59 630H1348.41ZM1364.07 630.156C1362.13 630.156 1360.53 628.57 1360.53 626.633C1360.53 624.696 1362.13 623.123 1364.07 623.123C1366.01 623.123 1367.61 624.696 1367.61 626.633C1367.61 628.57 1366.01 630.156 1364.07 630.156ZM1364.07 629.038C1365.31 629.038 1366.32 627.959 1366.32 626.633C1366.32 625.307 1365.31 624.241 1364.07 624.241C1362.84 624.241 1361.82 625.307 1361.82 626.633C1361.82 627.959 1362.84 629.038 1364.07 629.038ZM1370.45 624.592C1370.87 623.695 1371.78 623.123 1372.95 623.123V624.241C1371.47 624.241 1370.45 625.125 1370.45 626.425V630H1369.17V623.279H1370.45V624.592ZM1307.78 641.123C1309.26 641.123 1310.29 642.176 1310.29 643.723V648H1309.04V643.944C1309.04 642.93 1308.4 642.241 1307.49 642.241C1306.46 642.241 1305.63 642.943 1305.63 643.827V648H1304.34V641.279H1305.63V642.267C1306.02 641.591 1306.85 641.123 1307.78 641.123ZM1315.24 648.156C1313.31 648.156 1311.71 646.57 1311.71 644.633C1311.71 642.696 1313.31 641.123 1315.24 641.123C1317.18 641.123 1318.78 642.696 1318.78 644.633C1318.78 646.57 1317.18 648.156 1315.24 648.156ZM1315.24 647.038C1316.48 647.038 1317.49 645.959 1317.49 644.633C1317.49 643.307 1316.48 642.241 1315.24 642.241C1314.01 642.241 1313 643.307 1313 644.633C1313 645.959 1314.01 647.038 1315.24 647.038ZM1323.21 646.791L1323.7 647.675C1323.33 647.974 1322.82 648.156 1322.34 648.156C1321.3 648.156 1320.58 647.402 1320.58 646.323V642.371H1319.57V641.279H1320.58V639.433H1321.84V641.279H1323.42V642.371H1321.84V646.232C1321.84 646.7 1322.16 647.038 1322.54 647.038C1322.82 647.038 1323.08 646.934 1323.21 646.791ZM1330.82 648.156C1329.83 648.156 1328.76 647.805 1327.96 647.155L1328.54 646.271C1329.28 646.817 1330.09 647.116 1330.83 647.116C1331.63 647.116 1332.14 646.752 1332.14 646.206C1332.14 645.569 1331.44 645.361 1330.58 645.127C1329.05 644.698 1328.27 644.256 1328.27 643.164C1328.27 641.929 1329.29 641.123 1330.71 641.123C1331.58 641.123 1332.48 641.422 1333.19 641.903L1332.66 642.813C1332 642.397 1331.32 642.163 1330.71 642.163C1330.04 642.163 1329.49 642.462 1329.49 643.021C1329.49 643.541 1329.94 643.697 1331.09 644.048C1332.19 644.373 1333.36 644.737 1333.36 646.076C1333.36 647.35 1332.3 648.156 1330.82 648.156ZM1339.44 641.279H1340.73V648H1339.44V647.038C1339.04 647.701 1338.22 648.156 1337.29 648.156C1335.81 648.156 1334.79 647.103 1334.79 645.556V641.279H1336.05V645.335C1336.05 646.349 1336.68 647.038 1337.59 647.038C1338.62 647.038 1339.44 646.336 1339.44 645.452V641.279ZM1344.14 642.592C1344.55 641.695 1345.46 641.123 1346.63 641.123V642.241C1345.15 642.241 1344.14 643.125 1344.14 644.425V648H1342.85V641.279H1344.14V642.592ZM1351.07 647.09C1351.8 647.09 1352.64 646.765 1353.06 646.323L1353.81 647.116C1353.23 647.753 1352.04 648.156 1351.09 648.156C1349.24 648.156 1347.62 646.687 1347.62 644.62C1347.62 642.605 1349.14 641.123 1351 641.123C1353.06 641.123 1354.25 642.657 1354.25 645.049H1348.88C1349.04 646.232 1349.87 647.09 1351.07 647.09ZM1351.03 642.189C1349.95 642.189 1349.09 642.943 1348.9 644.1H1353.01C1352.88 643.021 1352.2 642.189 1351.03 642.189Z" fill="black"/>
<path d="M323.5 408.999C323.5 429.704 306.493 446.499 285.5 446.499C264.507 446.499 247.5 429.704 247.5 408.999C247.5 388.295 264.507 371.5 285.5 371.5C306.493 371.5 323.5 388.295 323.5 408.999Z" fill="#9E008E" fill-opacity="0.3" stroke="#9E008E"/>
<path d="M275.786 413.876V406.624L274.148 407.646L273.308 406.19L276.192 404.258H277.844V413.876H275.786ZM283.524 414.044C281.396 414.044 279.66 413.036 279.66 411.3C279.66 410.166 280.444 409.326 281.55 408.906C280.598 408.5 279.912 407.8 279.912 406.708C279.912 405.014 281.648 404.09 283.524 404.09C285.442 404.09 287.15 405.056 287.15 406.708C287.15 407.786 286.464 408.486 285.498 408.906C286.632 409.354 287.388 410.194 287.388 411.3C287.388 413.05 285.638 414.044 283.524 414.044ZM283.524 408.192C284.28 408.136 285.092 407.688 285.092 406.974C285.092 406.316 284.448 405.826 283.524 405.826C282.6 405.826 281.97 406.316 281.97 406.974C281.97 407.716 282.768 408.136 283.524 408.192ZM283.524 412.308C284.546 412.308 285.302 411.804 285.302 411.076C285.302 410.32 284.35 409.844 283.524 409.816C282.698 409.844 281.76 410.32 281.76 411.076C281.76 411.804 282.502 412.308 283.524 412.308ZM291.203 409.088C289.761 409.088 288.809 408.01 288.809 406.638C288.809 405.252 289.761 404.16 291.203 404.16C292.659 404.16 293.611 405.266 293.611 406.624C293.611 408.01 292.617 409.088 291.203 409.088ZM290.069 413.876L296.747 404.258H298.371L291.679 413.876H290.069ZM291.203 407.884C291.791 407.884 292.225 407.394 292.225 406.624C292.225 405.882 291.791 405.378 291.203 405.378C290.601 405.378 290.181 405.868 290.181 406.624C290.181 407.38 290.629 407.884 291.203 407.884ZM297.209 414.03C295.781 414.03 294.801 412.938 294.801 411.566C294.801 410.194 295.781 409.102 297.209 409.102C298.665 409.102 299.603 410.208 299.603 411.566C299.603 412.952 298.623 414.03 297.209 414.03ZM297.209 412.812C297.811 412.812 298.231 412.322 298.231 411.566C298.231 410.81 297.783 410.306 297.209 410.306C296.607 410.306 296.187 410.796 296.187 411.566C296.187 412.308 296.621 412.812 297.209 412.812Z" fill="black"/>
<path d="M463.5 337.61C463.5 353.681 450.299 366.72 434 366.72C417.701 366.72 404.5 353.681 404.5 337.61C404.5 321.539 417.701 308.5 434 308.5C450.299 308.5 463.5 321.539 463.5 337.61Z" fill="#9E008E" fill-opacity="0.3" stroke="#9E008E"/>
<path d="M421.786 342.018V334.766L420.148 335.788L419.308 334.332L422.192 332.4H423.844V342.018H421.786ZM429.286 342.2C427.676 342.2 426.458 341.612 425.562 340.716L426.78 339.26C427.508 339.946 428.376 340.394 429.3 340.394C430.392 340.394 431.05 339.75 431.05 338.924C431.05 338.084 430.364 337.524 429.314 337.524C428.586 337.524 427.97 337.762 427.452 338.154L426.066 337.594L426.206 332.4H432.59V334.262H428.11L428.054 336.39C428.53 336.054 429.146 335.802 429.93 335.802C431.638 335.802 433.108 336.894 433.108 338.854C433.108 340.898 431.582 342.2 429.286 342.2ZM436.889 337.23C435.447 337.23 434.495 336.152 434.495 334.78C434.495 333.394 435.447 332.302 436.889 332.302C438.345 332.302 439.297 333.408 439.297 334.766C439.297 336.152 438.303 337.23 436.889 337.23ZM435.755 342.018L442.433 332.4H444.057L437.365 342.018H435.755ZM436.889 336.026C437.477 336.026 437.911 335.536 437.911 334.766C437.911 334.024 437.477 333.52 436.889 333.52C436.287 333.52 435.867 334.01 435.867 334.766C435.867 335.522 436.315 336.026 436.889 336.026ZM442.895 342.172C441.467 342.172 440.487 341.08 440.487 339.708C440.487 338.336 441.467 337.244 442.895 337.244C444.351 337.244 445.289 338.35 445.289 339.708C445.289 341.094 444.309 342.172 442.895 342.172ZM442.895 340.954C443.497 340.954 443.917 340.464 443.917 339.708C443.917 338.952 443.469 338.448 442.895 338.448C442.293 338.448 441.873 338.938 441.873 339.708C441.873 340.45 442.307 340.954 442.895 340.954Z" fill="black"/>
<path d="M609.5 434.662C609.5 448.552 598.089 459.824 584 459.824C569.911 459.824 558.5 448.552 558.5 434.662C558.5 420.772 569.911 409.5 584 409.5C598.089 409.5 609.5 420.772 609.5 434.662Z" fill="#9E008E" fill-opacity="0.3" stroke="#9E008E"/>
<path d="M572.786 438.396V431.144L571.148 432.166L570.308 430.71L573.192 428.778H574.844V438.396H572.786ZM580.258 438.578C578.536 438.578 577.206 437.892 576.394 436.954L577.612 435.582C578.298 436.31 579.208 436.716 580.174 436.716C581.224 436.716 581.854 436.226 581.854 435.54C581.854 434.798 581.266 434.42 579.978 434.434H578.872V432.67L579.978 432.684C581.028 432.684 581.658 432.292 581.658 431.606C581.658 430.906 580.986 430.458 580.034 430.458C579.138 430.458 578.424 430.906 577.78 431.578L576.59 430.318C577.388 429.352 578.536 428.61 580.244 428.61C582.4 428.61 583.758 429.716 583.758 431.242C583.758 432.348 583.016 433.146 581.952 433.454C583.002 433.692 583.968 434.434 583.968 435.708C583.968 437.374 582.512 438.578 580.258 438.578ZM587.82 433.608C586.378 433.608 585.426 432.53 585.426 431.158C585.426 429.772 586.378 428.68 587.82 428.68C589.276 428.68 590.228 429.786 590.228 431.144C590.228 432.53 589.234 433.608 587.82 433.608ZM586.686 438.396L593.364 428.778H594.988L588.296 438.396H586.686ZM587.82 432.404C588.408 432.404 588.842 431.914 588.842 431.144C588.842 430.402 588.408 429.898 587.82 429.898C587.218 429.898 586.798 430.388 586.798 431.144C586.798 431.9 587.246 432.404 587.82 432.404ZM593.826 438.55C592.398 438.55 591.418 437.458 591.418 436.086C591.418 434.714 592.398 433.622 593.826 433.622C595.282 433.622 596.22 434.728 596.22 436.086C596.22 437.472 595.24 438.55 593.826 438.55ZM593.826 437.332C594.428 437.332 594.848 436.842 594.848 436.086C594.848 435.33 594.4 434.826 593.826 434.826C593.224 434.826 592.804 435.316 592.804 436.086C592.804 436.828 593.238 437.332 593.826 437.332Z" fill="black"/>
<path d="M758.5 420.662C758.5 434.552 747.089 445.824 733 445.824C718.911 445.824 707.5 434.552 707.5 420.662C707.5 406.772 718.911 395.5 733 395.5C747.089 395.5 758.5 406.772 758.5 420.662Z" fill="#9E008E" fill-opacity="0.3" stroke="#9E008E"/>
<path d="M723.786 424.753V417.501L722.148 418.523L721.308 417.067L724.192 415.135H725.844V424.753H723.786ZM731.258 424.935C729.536 424.935 728.206 424.249 727.394 423.311L728.612 421.939C729.298 422.667 730.208 423.073 731.174 423.073C732.224 423.073 732.854 422.583 732.854 421.897C732.854 421.155 732.266 420.777 730.978 420.791H729.872V419.027L730.978 419.041C732.028 419.041 732.658 418.649 732.658 417.963C732.658 417.263 731.986 416.815 731.034 416.815C730.138 416.815 729.424 417.263 728.78 417.935L727.59 416.675C728.388 415.709 729.536 414.967 731.244 414.967C733.4 414.967 734.758 416.073 734.758 417.599C734.758 418.705 734.016 419.503 732.952 419.811C734.002 420.049 734.968 420.791 734.968 422.065C734.968 423.731 733.512 424.935 731.258 424.935ZM738.82 419.965C737.378 419.965 736.426 418.887 736.426 417.515C736.426 416.129 737.378 415.037 738.82 415.037C740.276 415.037 741.228 416.143 741.228 417.501C741.228 418.887 740.234 419.965 738.82 419.965ZM737.686 424.753L744.364 415.135H745.988L739.296 424.753H737.686ZM738.82 418.761C739.408 418.761 739.842 418.271 739.842 417.501C739.842 416.759 739.408 416.255 738.82 416.255C738.218 416.255 737.798 416.745 737.798 417.501C737.798 418.257 738.246 418.761 738.82 418.761ZM744.826 424.907C743.398 424.907 742.418 423.815 742.418 422.443C742.418 421.071 743.398 419.979 744.826 419.979C746.282 419.979 747.22 421.085 747.22 422.443C747.22 423.829 746.24 424.907 744.826 424.907ZM744.826 423.689C745.428 423.689 745.848 423.199 745.848 422.443C745.848 421.687 745.4 421.183 744.826 421.183C744.224 421.183 743.804 421.673 743.804 422.443C743.804 423.185 744.238 423.689 744.826 423.689Z" fill="black"/>
<path d="M903.5 373.207C903.5 385.19 893.656 394.915 881.5 394.915C869.344 394.915 859.5 385.19 859.5 373.207C859.5 361.225 869.344 351.5 881.5 351.5C893.656 351.5 903.5 361.225 903.5 373.207Z" fill="#9E008E" fill-opacity="0.3" stroke="#9E008E"/>
<path d="M876.222 371.576C878 371.576 879.47 372.724 879.47 374.628C879.47 376.602 877.888 377.96 875.788 377.96C872.988 377.96 871.7 375.944 871.7 373.144C871.7 370.148 873.45 368.006 876.124 368.006C877.314 368.006 878.28 368.412 879.064 369.042L878.084 370.61C877.496 370.12 876.936 369.826 876.124 369.826C874.864 369.826 874.024 370.876 873.842 372.5C874.43 371.926 875.312 371.576 876.222 371.576ZM875.676 376.21C876.698 376.21 877.342 375.496 877.342 374.726C877.342 373.802 876.558 373.256 875.62 373.256C874.836 373.256 874.192 373.69 873.898 374.376C874.08 375.552 874.598 376.21 875.676 376.21ZM883.215 373.004C881.773 373.004 880.821 371.926 880.821 370.554C880.821 369.168 881.773 368.076 883.215 368.076C884.671 368.076 885.623 369.182 885.623 370.54C885.623 371.926 884.629 373.004 883.215 373.004ZM882.081 377.792L888.759 368.174H890.383L883.691 377.792H882.081ZM883.215 371.8C883.803 371.8 884.237 371.31 884.237 370.54C884.237 369.798 883.803 369.294 883.215 369.294C882.613 369.294 882.193 369.784 882.193 370.54C882.193 371.296 882.641 371.8 883.215 371.8ZM889.221 377.946C887.793 377.946 886.813 376.854 886.813 375.482C886.813 374.11 887.793 373.018 889.221 373.018C890.677 373.018 891.615 374.124 891.615 375.482C891.615 376.868 890.635 377.946 889.221 377.946ZM889.221 376.728C889.823 376.728 890.243 376.238 890.243 375.482C890.243 374.726 889.795 374.222 889.221 374.222C888.619 374.222 888.199 374.712 888.199 375.482C888.199 376.224 888.633 376.728 889.221 376.728Z" fill="black"/>
<path d="M1048.5 375.766C1048.5 385.295 1040.67 393.032 1031 393.032C1021.33 393.032 1013.5 385.295 1013.5 375.766C1013.5 366.236 1021.33 358.5 1031 358.5C1040.67 358.5 1048.5 366.236 1048.5 375.766Z" fill="#9E008E" fill-opacity="0.3" stroke="#9E008E"/>
<path d="M1026.31 379.694V377.734H1021.6L1021.41 376.138L1025.87 370.09H1028.36V375.998H1029.64V377.734H1028.36V379.694H1026.31ZM1023.58 375.998H1026.31V372.274L1023.58 375.998ZM1033.26 374.906C1031.81 374.906 1030.86 373.828 1030.86 372.456C1030.86 371.07 1031.81 369.978 1033.26 369.978C1034.71 369.978 1035.66 371.084 1035.66 372.442C1035.66 373.828 1034.67 374.906 1033.26 374.906ZM1032.12 379.694L1038.8 370.076H1040.42L1033.73 379.694H1032.12ZM1033.26 373.702C1033.84 373.702 1034.28 373.212 1034.28 372.442C1034.28 371.7 1033.84 371.196 1033.26 371.196C1032.65 371.196 1032.23 371.686 1032.23 372.442C1032.23 373.198 1032.68 373.702 1033.26 373.702ZM1039.26 379.848C1037.83 379.848 1036.85 378.756 1036.85 377.384C1036.85 376.012 1037.83 374.92 1039.26 374.92C1040.72 374.92 1041.66 376.026 1041.66 377.384C1041.66 378.77 1040.68 379.848 1039.26 379.848ZM1039.26 378.63C1039.86 378.63 1040.28 378.14 1040.28 377.384C1040.28 376.628 1039.84 376.124 1039.26 376.124C1038.66 376.124 1038.24 376.614 1038.24 377.384C1038.24 378.126 1038.67 378.63 1039.26 378.63Z" fill="black"/>
<path d="M1193.5 566.818C1193.5 574.167 1187.46 580.136 1180 580.136C1172.54 580.136 1166.5 574.167 1166.5 566.818C1166.5 559.469 1172.54 553.5 1180 553.5C1187.46 553.5 1193.5 559.469 1193.5 566.818Z" fill="#9E008E" fill-opacity="0.3" stroke="#9E008E"/>
<path d="M1170.53 570.909V569.481L1174.07 566.653C1175.29 565.673 1175.73 564.945 1175.73 564.161C1175.73 563.251 1174.96 562.691 1174.09 562.691C1173.08 562.691 1172.35 563.209 1171.65 564.049L1170.52 562.999C1171.43 561.809 1172.59 561.123 1174.14 561.123C1176.05 561.123 1177.5 562.341 1177.5 564.119C1177.5 565.393 1176.92 566.415 1175.26 567.689L1173.25 569.313H1177.6V570.909H1170.53ZM1181.46 566.079C1180.08 566.079 1179.12 565.001 1179.12 563.657C1179.12 562.285 1180.09 561.207 1181.48 561.207C1182.89 561.207 1183.81 562.299 1183.81 563.643C1183.81 565.029 1182.86 566.079 1181.46 566.079ZM1180.36 570.909L1187.02 561.291H1188.45L1181.8 570.909H1180.36ZM1181.48 565.029C1182.13 565.029 1182.61 564.469 1182.61 563.657C1182.61 562.831 1182.12 562.257 1181.46 562.257C1180.82 562.257 1180.34 562.817 1180.34 563.657C1180.34 564.455 1180.83 565.029 1181.48 565.029ZM1187.3 571.049C1185.91 571.049 1184.96 569.985 1184.96 568.613C1184.96 567.255 1185.91 566.163 1187.31 566.163C1188.71 566.163 1189.65 567.269 1189.65 568.599C1189.65 569.985 1188.67 571.049 1187.3 571.049ZM1187.31 569.999C1187.97 569.999 1188.45 569.439 1188.45 568.613C1188.45 567.801 1187.96 567.227 1187.3 567.227C1186.63 567.227 1186.17 567.801 1186.17 568.599C1186.17 569.425 1186.64 569.999 1187.31 569.999Z" fill="black"/>
<path d="M1340.5 565.337C1340.5 571.869 1335.13 577.175 1328.5 577.175C1321.87 577.175 1316.5 571.869 1316.5 565.337C1316.5 558.806 1321.87 553.5 1328.5 553.5C1335.13 553.5 1340.5 558.806 1340.5 565.337Z" fill="#9E008E" fill-opacity="0.3" stroke="#9E008E"/>
<path d="M1322.66 569.922V562.32L1321.01 563.37L1320.31 562.138L1323.01 560.304H1324.41V569.922H1322.66ZM1328.82 565.092C1327.44 565.092 1326.49 564.014 1326.49 562.67C1326.49 561.298 1327.45 560.22 1328.84 560.22C1330.25 560.22 1331.18 561.312 1331.18 562.656C1331.18 564.042 1330.22 565.092 1328.82 565.092ZM1327.72 569.922L1334.38 560.304H1335.81L1329.16 569.922H1327.72ZM1328.84 564.042C1329.5 564.042 1329.97 563.482 1329.97 562.67C1329.97 561.844 1329.48 561.27 1328.82 561.27C1328.18 561.27 1327.7 561.83 1327.7 562.67C1327.7 563.468 1328.19 564.042 1328.84 564.042ZM1334.66 570.062C1333.28 570.062 1332.32 568.998 1332.32 567.626C1332.32 566.268 1333.28 565.176 1334.68 565.176C1336.08 565.176 1337.01 566.282 1337.01 567.612C1337.01 568.998 1336.03 570.062 1334.66 570.062ZM1334.68 569.012C1335.33 569.012 1335.81 568.452 1335.81 567.626C1335.81 566.814 1335.32 566.24 1334.66 566.24C1333.99 566.24 1333.53 566.814 1333.53 567.612C1333.53 568.438 1334 569.012 1334.68 569.012Z" fill="black"/>
<path d="M181.5 439.402C181.5 464.194 161.135 484.304 136 484.304C110.865 484.304 90.5 464.194 90.5 439.402C90.5 414.609 110.865 394.5 136 394.5C161.135 394.5 181.5 414.609 181.5 439.402Z" fill="#9E008E" fill-opacity="0.3" stroke="#9E008E"/>
<path d="M122.574 443.493V441.813L126.116 439.069C127.264 438.159 127.628 437.529 127.628 436.857C127.628 436.059 126.956 435.583 126.172 435.583C125.234 435.583 124.52 436.059 123.82 436.857L122.504 435.583C123.456 434.379 124.674 433.707 126.228 433.707C128.272 433.707 129.756 434.967 129.756 436.773C129.756 438.061 129.196 439.055 127.516 440.273L125.766 441.631H129.84V443.493H122.574ZM135.067 443.661C132.939 443.661 131.203 442.653 131.203 440.917C131.203 439.783 131.987 438.943 133.093 438.523C132.141 438.117 131.455 437.417 131.455 436.325C131.455 434.631 133.191 433.707 135.067 433.707C136.985 433.707 138.693 434.673 138.693 436.325C138.693 437.403 138.007 438.103 137.041 438.523C138.175 438.971 138.931 439.811 138.931 440.917C138.931 442.667 137.181 443.661 135.067 443.661ZM135.067 437.809C135.823 437.753 136.635 437.305 136.635 436.591C136.635 435.933 135.991 435.443 135.067 435.443C134.143 435.443 133.513 435.933 133.513 436.591C133.513 437.333 134.311 437.753 135.067 437.809ZM135.067 441.925C136.089 441.925 136.845 441.421 136.845 440.693C136.845 439.937 135.893 439.461 135.067 439.433C134.241 439.461 133.303 439.937 133.303 440.693C133.303 441.421 134.045 441.925 135.067 441.925ZM142.746 438.705C141.304 438.705 140.352 437.627 140.352 436.255C140.352 434.869 141.304 433.777 142.746 433.777C144.202 433.777 145.154 434.883 145.154 436.241C145.154 437.627 144.16 438.705 142.746 438.705ZM141.612 443.493L148.29 433.875H149.914L143.222 443.493H141.612ZM142.746 437.501C143.334 437.501 143.768 437.011 143.768 436.241C143.768 435.499 143.334 434.995 142.746 434.995C142.144 434.995 141.724 435.485 141.724 436.241C141.724 436.997 142.172 437.501 142.746 437.501ZM148.752 443.647C147.324 443.647 146.344 442.555 146.344 441.183C146.344 439.811 147.324 438.719 148.752 438.719C150.208 438.719 151.146 439.825 151.146 441.183C151.146 442.569 150.166 443.647 148.752 443.647ZM148.752 442.429C149.354 442.429 149.774 441.939 149.774 441.183C149.774 440.427 149.326 439.923 148.752 439.923C148.15 439.923 147.73 440.413 147.73 441.183C147.73 441.925 148.164 442.429 148.752 442.429Z" fill="black"/>
</svg>
