<svg width="23" height="25" viewBox="0 0 23 25" fill="none" xmlns="http://www.w3.org/2000/svg">
<path d="M19.6092 2.27185H17.3472V1.13714C17.3475 0.98792 17.3186 0.840106 17.262 0.702156C17.2054 0.564207 17.1223 0.438831 17.0175 0.333206C16.9127 0.227582 16.7881 0.143783 16.6511 0.0866067C16.514 0.0294306 16.367 -3.40637e-07 16.2186 0C15.9187 0 15.631 0.119806 15.4189 0.33306C15.2068 0.546314 15.0876 0.835549 15.0876 1.13714V2.27185H8.30658V1.13714C8.30658 0.835549 8.18742 0.546314 7.97532 0.33306C7.76322 0.119806 7.47555 0 7.1756 0C7.02719 -3.40637e-07 6.88023 0.0294306 6.74315 0.0866067C6.60607 0.143783 6.48155 0.227582 6.37672 0.333206C6.27189 0.438831 6.18881 0.564207 6.13224 0.702156C6.07567 0.840106 6.04671 0.98792 6.04703 1.13714V2.27185H3.78506C2.88623 2.27313 2.02458 2.6327 1.389 3.27173C0.753433 3.91076 0.395807 4.7771 0.394531 5.68083V21.591C0.395807 22.4947 0.753433 23.3611 1.389 24.0001C2.02458 24.6391 2.88623 24.9987 3.78506 25H19.6092C20.508 24.9987 21.3696 24.6391 22.0052 24.0001C22.6408 23.3611 22.9984 22.4947 22.9997 21.591V5.68083C22.9984 4.7771 22.6408 3.91076 22.0052 3.27173C21.3696 2.6327 20.508 2.27313 19.6092 2.27185ZM20.7377 21.591C20.7377 21.8922 20.6189 22.1811 20.4073 22.3942C20.1957 22.6074 19.9087 22.7275 19.6092 22.7282H3.78506C3.48553 22.7275 3.19848 22.6074 2.9869 22.3942C2.77532 22.1811 2.65649 21.8922 2.65649 21.591V5.68083C2.65713 5.38008 2.77624 5.09183 2.98775 4.87917C3.19926 4.66651 3.48594 4.54676 3.78506 4.54612H19.6092C19.9083 4.54676 20.195 4.66651 20.4065 4.87917C20.618 5.09183 20.7371 5.38008 20.7377 5.68083V21.591Z" fill="#0F0B47"/>
<path d="M11.6973 15.9111C12.8959 15.9091 14.0448 15.4296 14.8924 14.5774C15.7399 13.7253 16.2169 12.5701 16.2188 11.3649C16.2182 10.1592 15.7417 9.00302 14.8939 8.15021C14.0462 7.2974 12.8965 6.81769 11.6973 6.81641C10.4985 6.81769 9.34918 7.29707 8.50151 8.14935C7.65384 9.00164 7.17706 10.1572 7.17578 11.3625C7.17706 12.5681 7.65376 13.7239 8.50137 14.5766C9.34897 15.4292 10.4983 15.9091 11.6973 15.9111ZM11.6973 9.09068C12.2968 9.09132 12.8715 9.33121 13.2952 9.75765C13.7189 10.1841 13.9568 10.7622 13.9568 11.3649C13.9562 11.9673 13.7179 12.5448 13.2943 12.9707C12.8707 13.3966 12.2964 13.6362 11.6973 13.6368C11.0982 13.6362 10.5239 13.3966 10.1003 12.9707C9.67665 12.5448 9.43838 11.9673 9.43774 11.3649C9.43774 10.7622 9.67573 10.1841 10.0994 9.75765C10.5231 9.33121 11.0978 9.09132 11.6973 9.09068Z" fill="#0F0B47"/>
<path d="M18.0052 18.9628C16.2351 17.6899 14.1082 17.0449 11.6967 17.0449C9.46911 17.0564 7.29208 17.7139 5.42691 18.9385C5.17503 19.102 4.99799 19.3592 4.93469 19.6538C4.87139 19.9484 4.927 20.2563 5.0893 20.5097C5.19138 20.6698 5.33194 20.8015 5.49799 20.8926C5.66405 20.9837 5.85025 21.0313 6.03942 21.031C6.25591 21.0303 6.46766 20.9672 6.64953 20.8491C8.15045 19.8614 9.90296 19.3302 11.6967 19.3192C13.6259 19.3192 15.3139 19.8211 16.6909 20.8103C16.8116 20.8973 16.9482 20.9595 17.0929 20.9934C17.2376 21.0272 17.3875 21.032 17.534 21.0074C17.6805 20.9829 17.8208 20.9295 17.9468 20.8503C18.0727 20.7711 18.1819 20.6677 18.268 20.546C18.4414 20.3009 18.5111 19.9966 18.4619 19.6998C18.4126 19.4031 18.2484 19.138 18.0052 18.9628Z" fill="#0F0B47"/>
</svg>
