<svg width="28" height="29" viewBox="0 0 28 29" fill="none" xmlns="http://www.w3.org/2000/svg">
<path d="M25.665 11.9395V9.26842C25.6645 8.8 25.5409 8.33995 25.3065 7.93441C25.0721 7.52887 24.7351 7.19211 24.3295 6.9579L14.9806 1.61567C14.5745 1.38123 14.1139 1.25781 13.645 1.25781C13.1761 1.25781 12.7155 1.38123 12.3095 1.61567L2.96056 6.9579C2.5549 7.19211 2.21796 7.52887 1.98355 7.93441C1.74913 8.33995 1.62548 8.8 1.625 9.26842V19.9529C1.62548 20.4213 1.74913 20.8813 1.98355 21.2869C2.21796 21.6924 2.5549 22.0292 2.96056 22.2634L12.3095 27.6056C12.7155 27.8401 13.1761 27.9635 13.645 27.9635C14.1139 27.9635 14.5745 27.8401 14.9806 27.6056L17.6517 26.0831" stroke="#0F0B47" stroke-width="2" stroke-linecap="round" stroke-linejoin="round"/>
<path d="M19.6544 11.1395L7.70117 4.24805" stroke="#0F0B47" stroke-width="2" stroke-linecap="round" stroke-linejoin="round"/>
<path d="M2.0127 7.93359L13.6454 14.6114L25.2781 7.93359" stroke="#0F0B47" stroke-width="2" stroke-linecap="round" stroke-linejoin="round"/>
<path d="M13.6445 27.9669V14.6113" stroke="#0F0B47" stroke-width="2" stroke-linecap="round" stroke-linejoin="round"/>
<path d="M22.3262 22.6231C24.1702 22.6231 25.6651 21.1282 25.6651 19.2842C25.6651 17.4402 24.1702 15.9453 22.3262 15.9453C20.4822 15.9453 18.9873 17.4402 18.9873 19.2842C18.9873 21.1282 20.4822 22.6231 22.3262 22.6231Z" stroke="#0F0B47" stroke-width="2" stroke-linecap="round" stroke-linejoin="round"/>
<path d="M24.6895 21.6484L27 23.959" stroke="#0F0B47" stroke-width="2" stroke-linecap="round" stroke-linejoin="round"/>
</svg>
