<svg width="317" height="56" viewBox="0 0 317 56" fill="none" xmlns="http://www.w3.org/2000/svg">
<g clip-path="url(#clip0_4336_4721)">
<path d="M65.7607 0.220703H75.6471V1.23543H71.3098V12.6193H70.1299V1.20372H65.7926L65.7607 0.220703Z" fill="#003778"/>
<path d="M76.8271 0.220703H78.0071V5.61142H85.4059V0.220703H86.5859V12.6193H85.4059V6.59443H78.0071V12.5876H76.8271V0.220703Z" fill="#003778"/>
<path d="M89.1051 0.220703H97.7158V1.23543H90.2851V5.70655H97.2374V6.72127H90.2851V11.6046H97.7796V12.6193H89.0732L89.1051 0.220703Z" fill="#003778"/>
<path d="M65.7607 43.6016H73.6698V44.6163H66.9726V49.0874H72.9363V50.1021H66.9726V56.0002H65.7926V43.6016H65.7607Z" fill="#003778"/>
<path d="M80.5888 43.5078C84.352 43.5078 86.2654 46.4568 86.2654 49.7547C86.2654 53.0525 84.3838 56.0016 80.5888 56.0016C76.7937 56.0016 74.9121 53.0525 74.9121 49.7547C74.9121 46.4568 76.7937 43.5078 80.5888 43.5078ZM80.5888 55.0186C83.746 55.0186 85.1173 52.3549 85.1173 49.7547C85.1173 47.1545 83.7779 44.4908 80.5888 44.4908C77.3996 44.4908 76.0602 47.1545 76.0602 49.7547C76.0283 52.3866 77.3996 55.0186 80.5888 55.0186Z" fill="#003778"/>
<path d="M88.1494 43.5703H89.3294V51.0856C89.3294 53.9078 90.6369 54.9859 92.9012 54.9859C95.1655 54.9859 96.505 53.9078 96.505 51.0856V43.5703H97.6849V51.371C97.6849 53.8761 96.3455 56.0007 92.9331 56.0007C89.5526 56.0007 88.1813 53.8761 88.1813 51.371V43.5703H88.1494Z" fill="#003778"/>
<path d="M100.045 43.6016H101.384L108.656 54.0976H108.687V43.6016H109.867V56.0002H108.528L101.257 45.5042H101.225V56.0002H100.045V43.6016Z" fill="#003778"/>
<path d="M112.386 43.6016H116.691C120.454 43.6967 122.432 45.6944 122.432 49.8167C122.432 53.9073 120.486 55.9368 116.691 56.0319H112.386V43.6016ZM113.566 54.9855H116.085C119.657 54.9855 121.22 53.4951 121.22 49.785C121.22 46.0749 119.657 44.5846 116.085 44.5846H113.566V54.9855Z" fill="#003778"/>
<path d="M127.979 43.6016H129.319L134.198 56.0002H132.922L131.392 52.1316H125.715L124.216 56.0002H122.94L127.979 43.6016ZM126.098 51.1168H131.009L128.585 44.7748L126.098 51.1168Z" fill="#003778"/>
<path d="M132.828 43.6016H142.714V44.6163H138.377V56.0002H137.197V44.6163H132.86L132.828 43.6016Z" fill="#003778"/>
<path d="M143.957 43.6016H145.137V56.0002H143.957V43.6016Z" fill="#003778"/>
<path d="M152.729 43.6016C156.492 43.6016 158.374 46.5189 158.374 49.785C158.374 53.0512 156.492 55.9685 152.729 55.9685C148.966 55.9685 147.084 53.0512 147.084 49.785C147.084 46.5189 148.966 43.6016 152.729 43.6016ZM152.729 55.0172C155.886 55.0172 157.225 52.3853 157.225 49.785C157.225 47.1848 155.886 44.5529 152.729 44.5529C149.572 44.5529 148.232 47.1848 148.232 49.785C148.232 52.3853 149.572 55.0172 152.729 55.0172Z" fill="#003778"/>
<path d="M160.669 43.6016H162.008L169.28 54.0976H169.312V43.6016H170.491V56.0002H169.152L161.881 45.5042H161.849V56.0002H160.669V43.6016Z" fill="#003778"/>
<path d="M65.7585 16.3008H72.6151V32.79H82.4695V38.4661H65.7266L65.7585 16.3008Z" fill="#003778"/>
<path d="M86.998 16.3008H93.8547V38.4661H86.998V16.3008Z" fill="#003778"/>
<path d="M98.9893 16.3008H106.005L112.511 28.1604H112.575V16.3008H119.081V38.4661H112.384L105.559 26.3529H105.495V38.4661H98.9893V16.3008Z" fill="#003778"/>
<path d="M143.956 29.5556C143.956 35.5805 140.767 38.4344 134.07 38.4344C127.372 38.4344 124.151 35.5805 124.151 29.5556V16.3008H130.849V28.0652C130.849 30.2532 130.817 33.0437 134.101 33.0437C137.259 33.0437 137.259 30.2532 137.259 28.0652V16.3008H143.956V29.5556Z" fill="#003778"/>
<path d="M155.373 26.67L148.038 16.3008H156.107L159.487 22.3257L162.804 16.3008H170.426L163.282 26.7334L171.255 38.4661H162.995L159.2 31.8387L155.278 38.4661H147.4L155.373 26.67Z" fill="#003778"/>
<path d="M11.2576 44.7111V22.3555H0V55.873H33.7411V44.7111H11.2576Z" fill="#0094FF"/>
<path d="M56.1926 0H0V16.7746H11.2576V11.2254H44.9668V44.7112H39.3539V55.8732H56.1926V0Z" fill="#003778"/>
<path d="M186.246 0.09375H185.354V55.8718H186.246V0.09375Z" fill="#003764"/>
<path d="M200.499 17.3457H210.194C213.67 17.3457 216.636 19.0263 216.636 22.8315C216.636 25.5269 215.233 27.6515 212.522 28.1905V28.254C215.297 28.6345 216.094 30.4737 216.221 33.0105C216.317 34.4691 216.317 37.3865 217.21 38.4012H214.978C214.499 37.6084 214.499 36.0229 214.404 35.1351C214.244 32.186 213.957 28.9199 210.162 29.0467H202.508V38.4012H200.499V17.3457ZM202.508 27.3344H210.035C212.49 27.3344 214.595 25.8123 214.595 23.2438C214.595 20.6436 213.096 19.058 210.035 19.058H202.508V27.3344Z" fill="#0094FF"/>
<path d="M221.036 31.298C221.036 34.0251 222.535 37.2913 226.075 37.2913C228.818 37.2913 230.285 35.7375 230.891 33.3909H232.772C231.975 36.8473 229.998 38.845 226.107 38.845C221.228 38.845 219.187 35.135 219.187 30.7907C219.187 26.7635 221.228 22.7363 226.107 22.7363C231.018 22.7363 232.995 27.0172 232.836 31.298H221.036ZM230.923 29.7443C230.827 26.9538 229.041 24.3218 226.043 24.3218C222.95 24.3218 221.323 26.9855 221.004 29.7443H230.923Z" fill="#0094FF"/>
<path d="M244.476 27.6524C244.381 25.3376 242.595 24.3229 240.458 24.3229C238.8 24.3229 236.823 24.9571 236.823 26.9548C236.823 28.572 238.704 29.2062 240.012 29.5233L242.499 30.0941C244.636 30.4112 246.868 31.6479 246.868 34.3115C246.868 37.6094 243.583 38.8778 240.713 38.8778C237.11 38.8778 234.75 37.2606 234.431 33.5188H236.312C236.472 36.0239 238.321 37.324 240.809 37.324C242.595 37.324 244.987 36.563 244.987 34.4384C244.987 32.6626 243.328 32.0918 241.638 31.6796L239.246 31.1405C236.823 30.5063 234.973 29.6502 234.973 27.0816C234.973 23.9741 238.034 22.8008 240.745 22.8008C243.839 22.8008 246.199 24.3863 246.358 27.6841H244.476V27.6524Z" fill="#0094FF"/>
<path d="M250.697 31.298C250.697 34.0251 252.196 37.2913 255.736 37.2913C258.479 37.2913 259.946 35.7375 260.552 33.3909H262.433C261.636 36.8473 259.659 38.845 255.768 38.845C250.889 38.845 248.848 35.135 248.848 30.7907C248.848 26.7635 250.889 22.7363 255.768 22.7363C260.679 22.7363 262.657 27.0172 262.497 31.298H250.697ZM260.616 29.7443C260.52 26.9538 258.734 24.3218 255.736 24.3218C252.643 24.3218 251.016 26.9855 250.697 29.7443H260.616Z" fill="#0094FF"/>
<path d="M264.824 27.8417C265.047 24.2584 267.503 22.7363 271.011 22.7363C273.722 22.7363 276.656 23.5291 276.656 27.6197V35.7058C276.656 36.4351 277.007 36.8156 277.74 36.8156C277.963 36.8156 278.123 36.7839 278.346 36.6888V38.2426C277.899 38.3377 277.644 38.3694 277.134 38.3694C275.221 38.3694 274.934 37.2913 274.934 35.7058H274.87C273.53 37.6718 272.255 38.8133 269.289 38.8133C266.45 38.8133 264.154 37.4181 264.154 34.3739C264.154 30.1248 268.332 29.9345 272.382 29.4906C273.913 29.332 274.774 29.0783 274.774 27.4294C274.774 24.9243 272.988 24.2901 270.756 24.2901C268.396 24.2901 266.738 25.3366 266.674 27.8417H264.824ZM274.774 30.0931H274.71C274.487 30.537 273.626 30.6956 273.148 30.759C269.959 31.3298 266.036 31.3298 266.036 34.2788C266.036 36.1497 267.662 37.2913 269.448 37.2913C272.318 37.2913 274.774 35.4838 274.774 32.503V30.0931Z" fill="#0094FF"/>
<path d="M280.387 23.1824H282.109V26.7657H282.173C283.13 24.2923 285.203 22.8653 287.946 22.9922V24.8631C284.565 24.7045 282.237 27.1462 282.237 30.3172V38.435H280.355V23.1824H280.387Z" fill="#0094FF"/>
<path d="M300 27.97C299.489 25.6869 298.118 24.3233 295.663 24.3233C292.091 24.3233 290.305 27.5895 290.305 30.8239C290.305 34.0583 292.123 37.3245 295.663 37.3245C297.959 37.3245 299.872 35.4853 300.127 32.9802H302.009C301.499 36.6585 299.139 38.8783 295.694 38.8783C291.038 38.8783 288.455 35.1999 288.455 30.8239C288.455 26.4479 291.038 22.7695 295.694 22.7695C298.979 22.7695 301.467 24.4819 301.881 28.0017L300 27.97Z" fill="#0094FF"/>
<path d="M304.562 17.3457H306.443V25.8123H306.507C307.208 23.9731 309.25 22.7364 311.418 22.7364C315.723 22.7364 317.031 24.9878 317.031 28.6028V38.4012H315.149V28.8882C315.149 26.2879 314.288 24.2902 311.259 24.2902C308.261 24.2902 306.539 26.5416 306.443 29.5224V38.4012H304.562V17.3457Z" fill="#0094FF"/>
</g>
<defs>
<clipPath id="clip0_4336_4721">
<rect width="317" height="56" fill="white"/>
</clipPath>
</defs>
</svg>
