<svg width="357" height="109" viewBox="0 0 357 109" fill="none" xmlns="http://www.w3.org/2000/svg">
<line opacity="0.25" x1="49.5566" y1="0.634766" x2="350.809" y2="0.634796" stroke="#0F0B47"/>
<line opacity="0.25" x1="49.5566" y1="37.2881" x2="350.809" y2="37.2881" stroke="#0F0B47"/>
<line opacity="0.25" x1="49.5566" y1="76.2539" x2="350.809" y2="76.2539" stroke="#0F0B47"/>
<line opacity="0.75" x1="49.0566" y1="102.659" x2="49.0566" y2="0.999596" stroke="#0F0B47"/>
<path d="M313.22 26.26C310.68 26.26 308.74 25.32 307.52 23.96L309.48 21.7C310.48 22.7 311.76 23.2 313.04 23.2C314.42 23.2 315.18 22.62 315.18 21.82C315.18 20.96 314.54 20.52 312.78 20.52L311.16 20.54V17.66H312.78C314.16 17.68 314.9 17.22 314.9 16.42C314.9 15.58 314.08 15.08 312.84 15.08C311.62 15.08 310.62 15.66 309.72 16.54L307.8 14.46C308.98 13.08 310.66 12.02 313.2 12.02C316.44 12.02 318.4 13.62 318.4 15.78C318.4 17.32 317.38 18.48 315.84 18.92C317.38 19.28 318.7 20.36 318.7 22.12C318.7 24.54 316.54 26.26 313.22 26.26ZM327.279 17.02C329.819 17.02 331.919 18.68 331.919 21.42C331.919 24.32 329.579 26.24 326.519 26.24C322.419 26.24 320.459 23.42 320.459 19.38C320.459 15.02 322.999 12.02 327.039 12.02C328.759 12.02 330.179 12.56 331.359 13.46L329.779 16.04C328.939 15.38 328.159 15 327.059 15C325.419 15 324.379 16.16 324.079 18.12C324.899 17.44 326.079 17.02 327.279 17.02ZM326.299 23.34C327.579 23.34 328.399 22.54 328.399 21.56C328.399 20.42 327.399 19.76 326.219 19.76C325.279 19.76 324.479 20.28 324.079 21.1C324.299 22.6 324.919 23.34 326.299 23.34ZM337.224 19.2C335.124 19.2 333.724 17.66 333.724 15.66C333.724 13.7 335.104 12.12 337.224 12.12C339.364 12.12 340.744 13.72 340.744 15.66C340.744 17.66 339.304 19.2 337.224 19.2ZM335.564 26L345.164 12.26H347.744L338.144 26H335.564ZM337.224 17.26C337.984 17.26 338.544 16.66 338.544 15.66C338.544 14.68 337.964 14.06 337.224 14.06C336.464 14.06 335.924 14.66 335.924 15.66C335.924 16.64 336.484 17.26 337.224 17.26ZM346.044 26.22C343.944 26.22 342.544 24.64 342.544 22.68C342.544 20.68 343.964 19.12 346.064 19.12C348.184 19.12 349.564 20.72 349.564 22.68C349.564 24.66 348.124 26.22 346.044 26.22ZM346.064 24.28C346.804 24.28 347.364 23.68 347.364 22.68C347.364 21.7 346.784 21.08 346.044 21.08C345.284 21.08 344.744 21.66 344.744 22.68C344.744 23.66 345.304 24.28 346.064 24.28Z" fill="#9E008E"/>
<path d="M313.22 68.26C310.68 68.26 308.74 67.32 307.52 65.96L309.48 63.7C310.48 64.7 311.76 65.2 313.04 65.2C314.42 65.2 315.18 64.62 315.18 63.82C315.18 62.96 314.54 62.52 312.78 62.52L311.16 62.54V59.66H312.78C314.16 59.68 314.9 59.22 314.9 58.42C314.9 57.58 314.08 57.08 312.84 57.08C311.62 57.08 310.62 57.66 309.72 58.54L307.8 56.46C308.98 55.08 310.66 54.02 313.2 54.02C316.44 54.02 318.4 55.62 318.4 57.78C318.4 59.32 317.38 60.48 315.84 60.92C317.38 61.28 318.7 62.36 318.7 64.12C318.7 66.54 316.54 68.26 313.22 68.26ZM327.119 68V65.38H320.459L320.159 62.78L326.379 54.28H330.539V62.54H332.279V65.38H330.539V68H327.119ZM323.699 62.54H327.119V57.82L323.699 62.54ZM337.478 61.2C335.378 61.2 333.978 59.66 333.978 57.66C333.978 55.7 335.358 54.12 337.478 54.12C339.618 54.12 340.998 55.72 340.998 57.66C340.998 59.66 339.558 61.2 337.478 61.2ZM335.818 68L345.418 54.26H347.998L338.398 68H335.818ZM337.478 59.26C338.238 59.26 338.798 58.66 338.798 57.66C338.798 56.68 338.217 56.06 337.478 56.06C336.718 56.06 336.178 56.66 336.178 57.66C336.178 58.64 336.738 59.26 337.478 59.26ZM346.298 68.22C344.198 68.22 342.798 66.64 342.798 64.68C342.798 62.68 344.218 61.12 346.318 61.12C348.438 61.12 349.818 62.72 349.818 64.68C349.818 66.66 348.378 68.22 346.298 68.22ZM346.318 66.28C347.058 66.28 347.618 65.68 347.618 64.68C347.618 63.7 347.038 63.08 346.298 63.08C345.538 63.08 344.998 63.66 344.998 64.68C344.998 65.66 345.558 66.28 346.318 66.28Z" fill="#477076"/>
<path d="M313.22 103.26C310.68 103.26 308.74 102.32 307.52 100.96L309.48 98.7C310.48 99.7 311.76 100.2 313.04 100.2C314.42 100.2 315.18 99.62 315.18 98.82C315.18 97.96 314.54 97.52 312.78 97.52L311.16 97.54V94.66H312.78C314.16 94.68 314.9 94.22 314.9 93.42C314.9 92.58 314.08 92.08 312.84 92.08C311.62 92.08 310.62 92.66 309.72 93.54L307.8 91.46C308.98 90.08 310.66 89.02 313.2 89.02C316.44 89.02 318.4 90.62 318.4 92.78C318.4 94.32 317.38 95.48 315.84 95.92C317.38 96.28 318.7 97.36 318.7 99.12C318.7 101.54 316.54 103.26 313.22 103.26ZM326.759 103.24C323.059 103.24 320.439 100.3 320.439 96.12C320.439 91.96 323.059 89.02 326.759 89.02C330.479 89.02 333.099 91.96 333.099 96.12C333.099 100.3 330.479 103.24 326.759 103.24ZM326.759 100.14C328.419 100.14 329.579 98.46 329.579 96.12C329.579 93.78 328.419 92.12 326.759 92.12C325.119 92.12 323.959 93.78 323.959 96.12C323.959 98.46 325.119 100.14 326.759 100.14ZM338.513 96.2C336.413 96.2 335.013 94.66 335.013 92.66C335.013 90.7 336.393 89.12 338.513 89.12C340.653 89.12 342.033 90.72 342.033 92.66C342.033 94.66 340.593 96.2 338.513 96.2ZM336.853 103L346.453 89.26H349.033L339.433 103H336.853ZM338.513 94.26C339.273 94.26 339.833 93.66 339.833 92.66C339.833 91.68 339.253 91.06 338.513 91.06C337.753 91.06 337.213 91.66 337.213 92.66C337.213 93.64 337.773 94.26 338.513 94.26ZM347.333 103.22C345.233 103.22 343.833 101.64 343.833 99.68C343.833 97.68 345.253 96.12 347.353 96.12C349.473 96.12 350.853 97.72 350.853 99.68C350.853 101.66 349.413 103.22 347.333 103.22ZM347.353 101.28C348.093 101.28 348.653 100.68 348.653 99.68C348.653 98.7 348.073 98.08 347.333 98.08C346.573 98.08 346.033 98.66 346.033 99.68C346.033 100.66 346.593 101.28 347.353 101.28Z" fill="#827626"/>
<path d="M66.7954 94.7138C68.4611 94.7138 69.8114 93.3634 69.8114 91.6977C69.8114 90.032 68.4611 88.6816 66.7954 88.6816C65.1296 88.6816 63.7793 90.032 63.7793 91.6977C63.7793 93.3634 65.1296 94.7138 66.7954 94.7138Z" fill="#827626"/>
<path fill-rule="evenodd" clip-rule="evenodd" d="M66.7956 95.4678C69.5024 95.4678 71.6967 96.747 71.6967 98.3251V101.5H61.8945V98.3251C61.8945 96.747 64.0888 95.4678 66.7956 95.4678Z" fill="#827626"/>
<path d="M79.1147 94.7138C80.7804 94.7138 82.1307 93.3634 82.1307 91.6977C82.1307 90.032 80.7804 88.6816 79.1147 88.6816C77.449 88.6816 76.0986 90.032 76.0986 91.6977C76.0986 93.3634 77.449 94.7138 79.1147 94.7138Z" fill="#827626"/>
<path fill-rule="evenodd" clip-rule="evenodd" d="M79.115 95.4678C81.8218 95.4678 84.0161 96.747 84.0161 98.3251V101.5H74.2139V98.3251C74.2139 96.747 76.4082 95.4678 79.115 95.4678Z" fill="#827626"/>
<path d="M91.433 94.7138C93.0988 94.7138 94.4491 93.3634 94.4491 91.6977C94.4491 90.032 93.0988 88.6816 91.433 88.6816C89.7673 88.6816 88.417 90.032 88.417 91.6977C88.417 93.3634 89.7673 94.7138 91.433 94.7138Z" fill="#827626"/>
<path fill-rule="evenodd" clip-rule="evenodd" d="M91.4333 95.4678C94.1401 95.4678 96.3344 96.747 96.3344 98.3251V101.5H86.5322V98.3251C86.5322 96.747 88.7265 95.4678 91.4333 95.4678Z" fill="#827626"/>
<path d="M103.752 94.7138C105.418 94.7138 106.768 93.3634 106.768 91.6977C106.768 90.032 105.418 88.6816 103.752 88.6816C102.087 88.6816 100.736 90.032 100.736 91.6977C100.736 93.3634 102.087 94.7138 103.752 94.7138Z" fill="#827626"/>
<path fill-rule="evenodd" clip-rule="evenodd" d="M103.753 95.4678C106.459 95.4678 108.654 96.747 108.654 98.3251V101.5H98.8516V98.3251C98.8516 96.747 101.046 95.4678 103.753 95.4678Z" fill="#827626"/>
<path d="M116.073 94.7138C117.738 94.7138 119.089 93.3634 119.089 91.6977C119.089 90.032 117.738 88.6816 116.073 88.6816C114.407 88.6816 113.057 90.032 113.057 91.6977C113.057 93.3634 114.407 94.7138 116.073 94.7138Z" fill="#827626"/>
<path fill-rule="evenodd" clip-rule="evenodd" d="M116.073 95.4678C118.78 95.4678 120.974 96.747 120.974 98.3251V101.5H111.172V98.3251C111.172 96.747 113.366 95.4678 116.073 95.4678Z" fill="#827626"/>
<path d="M128.391 94.7138C130.057 94.7138 131.407 93.3634 131.407 91.6977C131.407 90.032 130.057 88.6816 128.391 88.6816C126.725 88.6816 125.375 90.032 125.375 91.6977C125.375 93.3634 126.725 94.7138 128.391 94.7138Z" fill="#827626"/>
<path fill-rule="evenodd" clip-rule="evenodd" d="M128.391 95.4678C131.098 95.4678 133.292 96.747 133.292 98.3251V101.5H123.49V98.3251C123.49 96.747 125.685 95.4678 128.391 95.4678Z" fill="#827626"/>
<path d="M140.71 94.7138C142.376 94.7138 143.726 93.3634 143.726 91.6977C143.726 90.032 142.376 88.6816 140.71 88.6816C139.045 88.6816 137.694 90.032 137.694 91.6977C137.694 93.3634 139.045 94.7138 140.71 94.7138Z" fill="#827626"/>
<path fill-rule="evenodd" clip-rule="evenodd" d="M140.711 95.4678C143.417 95.4678 145.612 96.747 145.612 98.3251V101.5H135.81V98.3251C135.81 96.747 138.004 95.4678 140.711 95.4678Z" fill="#827626"/>
<path d="M153.03 94.7138C154.695 94.7138 156.046 93.3634 156.046 91.6977C156.046 90.032 154.695 88.6816 153.03 88.6816C151.364 88.6816 150.014 90.032 150.014 91.6977C150.014 93.3634 151.364 94.7138 153.03 94.7138Z" fill="#827626"/>
<path fill-rule="evenodd" clip-rule="evenodd" d="M153.03 95.4678C155.737 95.4678 157.931 96.747 157.931 98.3251V101.5H148.129V98.3251C148.129 96.747 150.323 95.4678 153.03 95.4678Z" fill="#827626"/>
<path d="M165.349 94.7138C167.015 94.7138 168.365 93.3634 168.365 91.6977C168.365 90.032 167.015 88.6816 165.349 88.6816C163.683 88.6816 162.333 90.032 162.333 91.6977C162.333 93.3634 163.683 94.7138 165.349 94.7138Z" fill="#827626"/>
<path fill-rule="evenodd" clip-rule="evenodd" d="M165.349 95.4678C168.056 95.4678 170.25 96.747 170.25 98.3251V101.5H160.448V98.3251C160.448 96.747 162.643 95.4678 165.349 95.4678Z" fill="#827626"/>
<path d="M177.668 94.7138C179.334 94.7138 180.684 93.3634 180.684 91.6977C180.684 90.032 179.334 88.6816 177.668 88.6816C176.003 88.6816 174.652 90.032 174.652 91.6977C174.652 93.3634 176.003 94.7138 177.668 94.7138Z" fill="#827626"/>
<path fill-rule="evenodd" clip-rule="evenodd" d="M177.669 95.4678C180.375 95.4678 182.57 96.747 182.57 98.3251V101.5H172.768V98.3251C172.768 96.747 174.962 95.4678 177.669 95.4678Z" fill="#827626"/>
<path d="M189.987 94.7138C191.652 94.7138 193.003 93.3634 193.003 91.6977C193.003 90.032 191.652 88.6816 189.987 88.6816C188.321 88.6816 186.971 90.032 186.971 91.6977C186.971 93.3634 188.321 94.7138 189.987 94.7138Z" fill="#827626"/>
<path fill-rule="evenodd" clip-rule="evenodd" d="M189.987 95.4678C192.694 95.4678 194.888 96.747 194.888 98.3251V101.5H185.086V98.3251C185.086 96.747 187.28 95.4678 189.987 95.4678Z" fill="#827626"/>
<path d="M202.38 94.5468C204.046 94.5468 205.396 93.1964 205.396 91.5307C205.396 89.865 204.046 88.5146 202.38 88.5146C200.715 88.5146 199.364 89.865 199.364 91.5307C199.364 93.1964 200.715 94.5468 202.38 94.5468Z" fill="#827626"/>
<path fill-rule="evenodd" clip-rule="evenodd" d="M202.381 95.3008C205.087 95.3008 207.282 96.58 207.282 98.1581V101.333H197.479V98.1581C197.479 96.58 199.674 95.3008 202.381 95.3008Z" fill="#827626"/>
<path d="M214.701 94.5477C216.366 94.5477 217.717 93.1974 217.717 91.5317C217.717 89.866 216.366 88.5156 214.701 88.5156C213.035 88.5156 211.685 89.866 211.685 91.5317C211.685 93.1974 213.035 94.5477 214.701 94.5477Z" fill="#827626"/>
<path fill-rule="evenodd" clip-rule="evenodd" d="M214.701 95.3018C217.408 95.3018 219.602 96.581 219.602 98.1591V101.334H209.8V98.1591C209.8 96.581 211.994 95.3018 214.701 95.3018Z" fill="#827626"/>
<path d="M227.018 94.5468C228.684 94.5468 230.034 93.1964 230.034 91.5307C230.034 89.865 228.684 88.5146 227.018 88.5146C225.352 88.5146 224.002 89.865 224.002 91.5307C224.002 93.1964 225.352 94.5468 227.018 94.5468Z" fill="#827626"/>
<path fill-rule="evenodd" clip-rule="evenodd" d="M227.018 95.3008C229.725 95.3008 231.919 96.58 231.919 98.1581V101.333H222.117V98.1581C222.117 96.58 224.311 95.3008 227.018 95.3008Z" fill="#827626"/>
<path d="M239.212 94.2528C240.878 94.2528 242.228 92.9025 242.228 91.2368C242.228 89.571 240.878 88.2207 239.212 88.2207C237.547 88.2207 236.196 89.571 236.196 91.2368C236.196 92.9025 237.547 94.2528 239.212 94.2528Z" fill="#827626"/>
<path fill-rule="evenodd" clip-rule="evenodd" d="M239.213 95.0068C241.919 95.0068 244.114 96.2861 244.114 97.8642V101.039H234.312V97.8642C234.312 96.2861 236.506 95.0068 239.213 95.0068Z" fill="#827626"/>
<path d="M66.7954 56.4081C68.4611 56.4081 69.8114 55.0578 69.8114 53.392C69.8114 51.7263 68.4611 50.376 66.7954 50.376C65.1296 50.376 63.7793 51.7263 63.7793 53.392C63.7793 55.0578 65.1296 56.4081 66.7954 56.4081Z" fill="#477076"/>
<path fill-rule="evenodd" clip-rule="evenodd" d="M66.7956 57.1621C69.5024 57.1621 71.6967 58.4414 71.6967 60.0194V63.1942H61.8945V60.0194C61.8945 58.4414 64.0888 57.1621 66.7956 57.1621Z" fill="#477076"/>
<path d="M79.1147 56.4081C80.7804 56.4081 82.1307 55.0578 82.1307 53.392C82.1307 51.7263 80.7804 50.376 79.1147 50.376C77.449 50.376 76.0986 51.7263 76.0986 53.392C76.0986 55.0578 77.449 56.4081 79.1147 56.4081Z" fill="#477076"/>
<path fill-rule="evenodd" clip-rule="evenodd" d="M79.115 57.1621C81.8218 57.1621 84.0161 58.4414 84.0161 60.0194V63.1942H74.2139V60.0194C74.2139 58.4414 76.4082 57.1621 79.115 57.1621Z" fill="#477076"/>
<path d="M91.433 56.4081C93.0988 56.4081 94.4491 55.0578 94.4491 53.392C94.4491 51.7263 93.0988 50.376 91.433 50.376C89.7673 50.376 88.417 51.7263 88.417 53.392C88.417 55.0578 89.7673 56.4081 91.433 56.4081Z" fill="#477076"/>
<path fill-rule="evenodd" clip-rule="evenodd" d="M91.4333 57.1621C94.1401 57.1621 96.3344 58.4414 96.3344 60.0194V63.1942H86.5322V60.0194C86.5322 58.4414 88.7265 57.1621 91.4333 57.1621Z" fill="#477076"/>
<path d="M103.752 56.4081C105.418 56.4081 106.768 55.0578 106.768 53.392C106.768 51.7263 105.418 50.376 103.752 50.376C102.087 50.376 100.736 51.7263 100.736 53.392C100.736 55.0578 102.087 56.4081 103.752 56.4081Z" fill="#477076"/>
<path fill-rule="evenodd" clip-rule="evenodd" d="M103.753 57.1621C106.459 57.1621 108.654 58.4414 108.654 60.0194V63.1942H98.8516V60.0194C98.8516 58.4414 101.046 57.1621 103.753 57.1621Z" fill="#477076"/>
<path d="M116.073 56.4081C117.738 56.4081 119.089 55.0578 119.089 53.392C119.089 51.7263 117.738 50.376 116.073 50.376C114.407 50.376 113.057 51.7263 113.057 53.392C113.057 55.0578 114.407 56.4081 116.073 56.4081Z" fill="#477076"/>
<path fill-rule="evenodd" clip-rule="evenodd" d="M116.073 57.1621C118.78 57.1621 120.974 58.4414 120.974 60.0194V63.1942H111.172V60.0194C111.172 58.4414 113.366 57.1621 116.073 57.1621Z" fill="#477076"/>
<path d="M128.391 56.4081C130.057 56.4081 131.407 55.0578 131.407 53.392C131.407 51.7263 130.057 50.376 128.391 50.376C126.725 50.376 125.375 51.7263 125.375 53.392C125.375 55.0578 126.725 56.4081 128.391 56.4081Z" fill="#477076"/>
<path fill-rule="evenodd" clip-rule="evenodd" d="M128.391 57.1621C131.098 57.1621 133.292 58.4414 133.292 60.0194V63.1942H123.49V60.0194C123.49 58.4414 125.685 57.1621 128.391 57.1621Z" fill="#477076"/>
<path d="M140.71 56.4081C142.376 56.4081 143.726 55.0578 143.726 53.392C143.726 51.7263 142.376 50.376 140.71 50.376C139.045 50.376 137.694 51.7263 137.694 53.392C137.694 55.0578 139.045 56.4081 140.71 56.4081Z" fill="#477076"/>
<path fill-rule="evenodd" clip-rule="evenodd" d="M140.711 57.1621C143.417 57.1621 145.612 58.4414 145.612 60.0194V63.1942H135.81V60.0194C135.81 58.4414 138.004 57.1621 140.711 57.1621Z" fill="#477076"/>
<path d="M153.03 56.4081C154.695 56.4081 156.046 55.0578 156.046 53.392C156.046 51.7263 154.695 50.376 153.03 50.376C151.364 50.376 150.014 51.7263 150.014 53.392C150.014 55.0578 151.364 56.4081 153.03 56.4081Z" fill="#477076"/>
<path fill-rule="evenodd" clip-rule="evenodd" d="M153.03 57.1621C155.737 57.1621 157.931 58.4414 157.931 60.0194V63.1942H148.129V60.0194C148.129 58.4414 150.323 57.1621 153.03 57.1621Z" fill="#477076"/>
<path d="M165.349 56.4081C167.015 56.4081 168.365 55.0578 168.365 53.392C168.365 51.7263 167.015 50.376 165.349 50.376C163.683 50.376 162.333 51.7263 162.333 53.392C162.333 55.0578 163.683 56.4081 165.349 56.4081Z" fill="#477076"/>
<path fill-rule="evenodd" clip-rule="evenodd" d="M165.349 57.1621C168.056 57.1621 170.25 58.4414 170.25 60.0194V63.1942H160.448V60.0194C160.448 58.4414 162.643 57.1621 165.349 57.1621Z" fill="#477076"/>
<path d="M177.627 56.2411C179.293 56.2411 180.643 54.8908 180.643 53.225C180.643 51.5593 179.293 50.209 177.627 50.209C175.962 50.209 174.611 51.5593 174.611 53.225C174.611 54.8908 175.962 56.2411 177.627 56.2411Z" fill="#477076"/>
<path fill-rule="evenodd" clip-rule="evenodd" d="M177.628 56.9951C180.334 56.9951 182.529 58.2744 182.529 59.8524V63.0272H172.727V59.8524C172.727 58.2744 174.921 56.9951 177.628 56.9951Z" fill="#477076"/>
<path d="M189.948 56.2411C191.613 56.2411 192.964 54.8908 192.964 53.225C192.964 51.5593 191.613 50.209 189.948 50.209C188.282 50.209 186.932 51.5593 186.932 53.225C186.932 54.8908 188.282 56.2411 189.948 56.2411Z" fill="#477076"/>
<path fill-rule="evenodd" clip-rule="evenodd" d="M189.948 56.9951C192.655 56.9951 194.849 58.2744 194.849 59.8524V63.0272H185.047V59.8524C185.047 58.2744 187.241 56.9951 189.948 56.9951Z" fill="#477076"/>
<path d="M202.266 56.2411C203.932 56.2411 205.282 54.8908 205.282 53.225C205.282 51.5593 203.932 50.209 202.266 50.209C200.6 50.209 199.25 51.5593 199.25 53.225C199.25 54.8908 200.6 56.2411 202.266 56.2411Z" fill="#477076"/>
<path fill-rule="evenodd" clip-rule="evenodd" d="M202.266 56.9951C204.973 56.9951 207.167 58.2744 207.167 59.8524V63.0272H197.365V59.8524C197.365 58.2744 199.56 56.9951 202.266 56.9951Z" fill="#477076"/>
<path d="M214.585 56.2411C216.251 56.2411 217.601 54.8908 217.601 53.225C217.601 51.5593 216.251 50.209 214.585 50.209C212.92 50.209 211.569 51.5593 211.569 53.225C211.569 54.8908 212.92 56.2411 214.585 56.2411Z" fill="#477076"/>
<path fill-rule="evenodd" clip-rule="evenodd" d="M214.586 56.9951C217.292 56.9951 219.487 58.2744 219.487 59.8524V63.0272H209.685V59.8524C209.685 58.2744 211.879 56.9951 214.586 56.9951Z" fill="#477076"/>
<path d="M226.905 56.2411C228.57 56.2411 229.921 54.8908 229.921 53.225C229.921 51.5593 228.57 50.209 226.905 50.209C225.239 50.209 223.889 51.5593 223.889 53.225C223.889 54.8908 225.239 56.2411 226.905 56.2411Z" fill="#477076"/>
<path fill-rule="evenodd" clip-rule="evenodd" d="M226.905 56.9951C229.612 56.9951 231.806 58.2744 231.806 59.8524V63.0272H222.004V59.8524C222.004 58.2744 224.198 56.9951 226.905 56.9951Z" fill="#477076"/>
<path d="M239.223 56.2411C240.889 56.2411 242.239 54.8908 242.239 53.225C242.239 51.5593 240.889 50.209 239.223 50.209C237.557 50.209 236.207 51.5593 236.207 53.225C236.207 54.8908 237.557 56.2411 239.223 56.2411Z" fill="#477076"/>
<path fill-rule="evenodd" clip-rule="evenodd" d="M239.223 56.9951C241.93 56.9951 244.124 58.2744 244.124 59.8524V63.0272H234.322V59.8524C234.322 58.2744 236.517 56.9951 239.223 56.9951Z" fill="#477076"/>
<path d="M251.543 56.2411C253.209 56.2411 254.559 54.8908 254.559 53.225C254.559 51.5593 253.209 50.209 251.543 50.209C249.878 50.209 248.527 51.5593 248.527 53.225C248.527 54.8908 249.878 56.2411 251.543 56.2411Z" fill="#477076"/>
<path fill-rule="evenodd" clip-rule="evenodd" d="M251.544 56.9951C254.25 56.9951 256.445 58.2744 256.445 59.8524V63.0272H246.643V59.8524C246.643 58.2744 248.837 56.9951 251.544 56.9951Z" fill="#477076"/>
<path d="M263.081 56.2411C264.747 56.2411 266.098 54.8908 266.098 53.225C266.098 51.5593 264.747 50.209 263.081 50.209C261.416 50.209 260.065 51.5593 260.065 53.225C260.065 54.8908 261.416 56.2411 263.081 56.2411Z" fill="#477076"/>
<path fill-rule="evenodd" clip-rule="evenodd" d="M263.082 56.9951C265.789 56.9951 267.983 58.2744 267.983 59.8524V63.0272H258.181V59.8524C258.181 58.2744 260.375 56.9951 263.082 56.9951Z" fill="#477076"/>
<path d="M66.7954 18.1034C68.4611 18.1034 69.8114 16.7531 69.8114 15.0873C69.8114 13.4216 68.4611 12.0713 66.7954 12.0713C65.1296 12.0713 63.7793 13.4216 63.7793 15.0873C63.7793 16.7531 65.1296 18.1034 66.7954 18.1034Z" fill="#9E008E"/>
<path fill-rule="evenodd" clip-rule="evenodd" d="M66.7956 18.8574C69.5024 18.8574 71.6967 20.1367 71.6967 21.7147V24.8895H61.8945V21.7147C61.8945 20.1367 64.0888 18.8574 66.7956 18.8574Z" fill="#9E008E"/>
<path d="M79.1147 18.1034C80.7804 18.1034 82.1307 16.7531 82.1307 15.0873C82.1307 13.4216 80.7804 12.0713 79.1147 12.0713C77.449 12.0713 76.0986 13.4216 76.0986 15.0873C76.0986 16.7531 77.449 18.1034 79.1147 18.1034Z" fill="#9E008E"/>
<path fill-rule="evenodd" clip-rule="evenodd" d="M79.115 18.8574C81.8218 18.8574 84.0161 20.1367 84.0161 21.7147V24.8895H74.2139V21.7147C74.2139 20.1367 76.4082 18.8574 79.115 18.8574Z" fill="#9E008E"/>
<path d="M91.433 18.1034C93.0988 18.1034 94.4491 16.7531 94.4491 15.0873C94.4491 13.4216 93.0988 12.0713 91.433 12.0713C89.7673 12.0713 88.417 13.4216 88.417 15.0873C88.417 16.7531 89.7673 18.1034 91.433 18.1034Z" fill="#9E008E"/>
<path fill-rule="evenodd" clip-rule="evenodd" d="M91.4333 18.8574C94.1401 18.8574 96.3344 20.1367 96.3344 21.7147V24.8895H86.5322V21.7147C86.5322 20.1367 88.7265 18.8574 91.4333 18.8574Z" fill="#9E008E"/>
<path d="M103.752 18.1034C105.418 18.1034 106.768 16.7531 106.768 15.0873C106.768 13.4216 105.418 12.0713 103.752 12.0713C102.087 12.0713 100.736 13.4216 100.736 15.0873C100.736 16.7531 102.087 18.1034 103.752 18.1034Z" fill="#9E008E"/>
<path fill-rule="evenodd" clip-rule="evenodd" d="M103.753 18.8574C106.459 18.8574 108.654 20.1367 108.654 21.7147V24.8895H98.8516V21.7147C98.8516 20.1367 101.046 18.8574 103.753 18.8574Z" fill="#9E008E"/>
<path d="M116.073 18.1034C117.738 18.1034 119.089 16.7531 119.089 15.0873C119.089 13.4216 117.738 12.0713 116.073 12.0713C114.407 12.0713 113.057 13.4216 113.057 15.0873C113.057 16.7531 114.407 18.1034 116.073 18.1034Z" fill="#9E008E"/>
<path fill-rule="evenodd" clip-rule="evenodd" d="M116.073 18.8574C118.78 18.8574 120.974 20.1367 120.974 21.7147V24.8895H111.172V21.7147C111.172 20.1367 113.366 18.8574 116.073 18.8574Z" fill="#9E008E"/>
<path d="M128.391 18.1034C130.057 18.1034 131.407 16.7531 131.407 15.0873C131.407 13.4216 130.057 12.0713 128.391 12.0713C126.725 12.0713 125.375 13.4216 125.375 15.0873C125.375 16.7531 126.725 18.1034 128.391 18.1034Z" fill="#9E008E"/>
<path fill-rule="evenodd" clip-rule="evenodd" d="M128.391 18.8574C131.098 18.8574 133.292 20.1367 133.292 21.7147V24.8895H123.49V21.7147C123.49 20.1367 125.685 18.8574 128.391 18.8574Z" fill="#9E008E"/>
<path d="M140.71 18.1034C142.376 18.1034 143.726 16.7531 143.726 15.0873C143.726 13.4216 142.376 12.0713 140.71 12.0713C139.045 12.0713 137.694 13.4216 137.694 15.0873C137.694 16.7531 139.045 18.1034 140.71 18.1034Z" fill="#9E008E"/>
<path fill-rule="evenodd" clip-rule="evenodd" d="M140.711 18.8574C143.417 18.8574 145.612 20.1367 145.612 21.7147V24.8895H135.81V21.7147C135.81 20.1367 138.004 18.8574 140.711 18.8574Z" fill="#9E008E"/>
<path d="M153.03 18.1034C154.695 18.1034 156.046 16.7531 156.046 15.0873C156.046 13.4216 154.695 12.0713 153.03 12.0713C151.364 12.0713 150.014 13.4216 150.014 15.0873C150.014 16.7531 151.364 18.1034 153.03 18.1034Z" fill="#9E008E"/>
<path fill-rule="evenodd" clip-rule="evenodd" d="M153.03 18.8574C155.737 18.8574 157.931 20.1367 157.931 21.7147V24.8895H148.129V21.7147C148.129 20.1367 150.323 18.8574 153.03 18.8574Z" fill="#9E008E"/>
<path d="M165.349 18.1034C167.015 18.1034 168.365 16.7531 168.365 15.0873C168.365 13.4216 167.015 12.0713 165.349 12.0713C163.683 12.0713 162.333 13.4216 162.333 15.0873C162.333 16.7531 163.683 18.1034 165.349 18.1034Z" fill="#9E008E"/>
<path fill-rule="evenodd" clip-rule="evenodd" d="M165.349 18.8574C168.056 18.8574 170.25 20.1367 170.25 21.7147V24.8895H160.448V21.7147C160.448 20.1367 162.643 18.8574 165.349 18.8574Z" fill="#9E008E"/>
<path d="M177.668 18.1034C179.334 18.1034 180.684 16.7531 180.684 15.0873C180.684 13.4216 179.334 12.0713 177.668 12.0713C176.003 12.0713 174.652 13.4216 174.652 15.0873C174.652 16.7531 176.003 18.1034 177.668 18.1034Z" fill="#9E008E"/>
<path fill-rule="evenodd" clip-rule="evenodd" d="M177.669 18.8574C180.375 18.8574 182.57 20.1367 182.57 21.7147V24.8895H172.768V21.7147C172.768 20.1367 174.962 18.8574 177.669 18.8574Z" fill="#9E008E"/>
<path d="M190.203 18.1034C191.868 18.1034 193.219 16.7531 193.219 15.0873C193.219 13.4216 191.868 12.0713 190.203 12.0713C188.537 12.0713 187.187 13.4216 187.187 15.0873C187.187 16.7531 188.537 18.1034 190.203 18.1034Z" fill="#9E008E"/>
<path fill-rule="evenodd" clip-rule="evenodd" d="M190.203 18.8574C192.91 18.8574 195.104 20.1367 195.104 21.7147V24.8895H185.302V21.7147C185.302 20.1367 187.496 18.8574 190.203 18.8574Z" fill="#9E008E"/>
<path d="M202.736 18.1034C204.402 18.1034 205.752 16.7531 205.752 15.0873C205.752 13.4216 204.402 12.0713 202.736 12.0713C201.07 12.0713 199.72 13.4216 199.72 15.0873C199.72 16.7531 201.07 18.1034 202.736 18.1034Z" fill="#9E008E"/>
<path fill-rule="evenodd" clip-rule="evenodd" d="M202.736 18.8574C205.443 18.8574 207.637 20.1367 207.637 21.7147V24.8895H197.835V21.7147C197.835 20.1367 200.029 18.8574 202.736 18.8574Z" fill="#9E008E"/>
<path d="M215.27 18.1034C216.936 18.1034 218.286 16.7531 218.286 15.0873C218.286 13.4216 216.936 12.0713 215.27 12.0713C213.604 12.0713 212.254 13.4216 212.254 15.0873C212.254 16.7531 213.604 18.1034 215.27 18.1034Z" fill="#9E008E"/>
<path fill-rule="evenodd" clip-rule="evenodd" d="M215.27 18.8574C217.977 18.8574 220.171 20.1367 220.171 21.7147V24.8895H210.369V21.7147C210.369 20.1367 212.563 18.8574 215.27 18.8574Z" fill="#9E008E"/>
<path d="M227.804 18.1034C229.47 18.1034 230.82 16.7531 230.82 15.0873C230.82 13.4216 229.47 12.0713 227.804 12.0713C226.138 12.0713 224.788 13.4216 224.788 15.0873C224.788 16.7531 226.138 18.1034 227.804 18.1034Z" fill="#9E008E"/>
<path fill-rule="evenodd" clip-rule="evenodd" d="M227.804 18.8574C230.511 18.8574 232.706 20.1367 232.706 21.7147V24.8895H222.903V21.7147C222.903 20.1367 225.098 18.8574 227.804 18.8574Z" fill="#9E008E"/>
<path d="M240.338 18.1034C242.004 18.1034 243.354 16.7531 243.354 15.0873C243.354 13.4216 242.004 12.0713 240.338 12.0713C238.673 12.0713 237.322 13.4216 237.322 15.0873C237.322 16.7531 238.673 18.1034 240.338 18.1034Z" fill="#9E008E"/>
<path fill-rule="evenodd" clip-rule="evenodd" d="M240.339 18.8574C243.045 18.8574 245.24 20.1367 245.24 21.7147V24.8895H235.438V21.7147C235.438 20.1367 237.632 18.8574 240.339 18.8574Z" fill="#9E008E"/>
<path d="M252.872 18.1034C254.537 18.1034 255.888 16.7531 255.888 15.0873C255.888 13.4216 254.537 12.0713 252.872 12.0713C251.206 12.0713 249.855 13.4216 249.855 15.0873C249.855 16.7531 251.206 18.1034 252.872 18.1034Z" fill="#9E008E"/>
<path fill-rule="evenodd" clip-rule="evenodd" d="M252.872 18.8574C255.579 18.8574 257.773 20.1367 257.773 21.7147V24.8895H247.971V21.7147C247.971 20.1367 250.165 18.8574 252.872 18.8574Z" fill="#9E008E"/>
<path d="M264.811 18.1034C266.477 18.1034 267.827 16.7531 267.827 15.0873C267.827 13.4216 266.477 12.0713 264.811 12.0713C263.145 12.0713 261.795 13.4216 261.795 15.0873C261.795 16.7531 263.145 18.1034 264.811 18.1034Z" fill="#9E008E"/>
<path fill-rule="evenodd" clip-rule="evenodd" d="M264.811 18.8574C267.518 18.8574 269.712 20.1367 269.712 21.7147V24.8895H259.91V21.7147C259.91 20.1367 262.104 18.8574 264.811 18.8574Z" fill="#9E008E"/>
<path d="M276.635 18.2284C278.301 18.2284 279.651 16.8781 279.651 15.2123C279.651 13.5466 278.301 12.1963 276.635 12.1963C274.969 12.1963 273.619 13.5466 273.619 15.2123C273.619 16.8781 274.969 18.2284 276.635 18.2284Z" fill="#9E008E"/>
<path fill-rule="evenodd" clip-rule="evenodd" d="M276.635 18.9824C279.342 18.9824 281.537 20.2617 281.537 21.8397V25.0145H271.734V21.8397C271.734 20.2617 273.929 18.9824 276.635 18.9824Z" fill="#9E008E"/>
<path d="M4.1457 95.13C2.9957 95.13 2.1257 94.71 1.4857 94.07L2.3557 93.03C2.8757 93.52 3.4957 93.84 4.1557 93.84C4.9357 93.84 5.4057 93.38 5.4057 92.79C5.4057 92.19 4.9157 91.79 4.1657 91.79C3.6457 91.79 3.2057 91.96 2.8357 92.24L1.8457 91.84L1.9457 88.13H6.5057V89.46H3.3057L3.2657 90.98C3.6057 90.74 4.0457 90.56 4.6057 90.56C5.8257 90.56 6.8757 91.34 6.8757 92.74C6.8757 94.2 5.7857 95.13 4.1457 95.13ZM8.80641 96.46L8.27641 96.06C8.59641 95.78 8.80641 95.44 8.88641 95.12C8.40641 95.12 8.01641 94.71 8.01641 94.22C8.01641 93.72 8.41641 93.3 8.91641 93.3C9.47641 93.3 9.86641 93.82 9.86641 94.55C9.86641 95.14 9.51641 95.77 8.80641 96.46ZM14.1579 95.12C12.3479 95.12 11.0679 93.65 11.0679 91.56C11.0679 89.48 12.3479 88.01 14.1579 88.01C15.9679 88.01 17.2379 89.48 17.2379 91.56C17.2379 93.65 15.9679 95.12 14.1579 95.12ZM14.1579 93.78C15.0779 93.78 15.7279 92.85 15.7279 91.56C15.7279 90.27 15.0779 89.35 14.1579 89.35C13.2379 89.35 12.5879 90.27 12.5879 91.56C12.5879 92.85 13.2379 93.78 14.1579 93.78ZM21.2868 95.12C19.4768 95.12 18.1968 93.65 18.1968 91.56C18.1968 89.48 19.4768 88.01 21.2868 88.01C23.0968 88.01 24.3668 89.48 24.3668 91.56C24.3668 93.65 23.0968 95.12 21.2868 95.12ZM21.2868 93.78C22.2068 93.78 22.8568 92.85 22.8568 91.56C22.8568 90.27 22.2068 89.35 21.2868 89.35C20.3668 89.35 19.7168 90.27 19.7168 91.56C19.7168 92.85 20.3668 93.78 21.2868 93.78ZM28.4157 95.12C26.6057 95.12 25.3257 93.65 25.3257 91.56C25.3257 89.48 26.6057 88.01 28.4157 88.01C30.2257 88.01 31.4957 89.48 31.4957 91.56C31.4957 93.65 30.2257 95.12 28.4157 95.12ZM28.4157 93.78C29.3357 93.78 29.9857 92.85 29.9857 91.56C29.9857 90.27 29.3357 89.35 28.4157 89.35C27.4957 89.35 26.8457 90.27 26.8457 91.56C26.8457 92.85 27.4957 93.78 28.4157 93.78ZM37.4046 91.07V92.26H35.6246V94.08H34.3646V92.26H32.5746V91.07H34.3646V89.25H35.6246V91.07H37.4046Z" fill="#0F0B47"/>
<path d="M13.7063 56.13C12.5563 56.13 11.6863 55.71 11.0463 55.07L11.9163 54.03C12.4363 54.52 13.0563 54.84 13.7163 54.84C14.4963 54.84 14.9663 54.38 14.9663 53.79C14.9663 53.19 14.4763 52.79 13.7263 52.79C13.2063 52.79 12.7663 52.96 12.3963 53.24L11.4063 52.84L11.5063 49.13H16.0663V50.46H12.8663L12.8263 51.98C13.1663 51.74 13.6063 51.56 14.1663 51.56C15.3863 51.56 16.4363 52.34 16.4363 53.74C16.4363 55.2 15.3463 56.13 13.7063 56.13ZM20.447 56.12C18.637 56.12 17.357 54.65 17.357 52.56C17.357 50.48 18.637 49.01 20.447 49.01C22.257 49.01 23.527 50.48 23.527 52.56C23.527 54.65 22.257 56.12 20.447 56.12ZM20.447 54.78C21.367 54.78 22.017 53.85 22.017 52.56C22.017 51.27 21.367 50.35 20.447 50.35C19.527 50.35 18.877 51.27 18.877 52.56C18.877 53.85 19.527 54.78 20.447 54.78ZM27.5759 56.12C25.7659 56.12 24.4859 54.65 24.4859 52.56C24.4859 50.48 25.7659 49.01 27.5759 49.01C29.3859 49.01 30.6559 50.48 30.6559 52.56C30.6559 54.65 29.3859 56.12 27.5759 56.12ZM27.5759 54.78C28.4959 54.78 29.1459 53.85 29.1459 52.56C29.1459 51.27 28.4959 50.35 27.5759 50.35C26.6559 50.35 26.0059 51.27 26.0059 52.56C26.0059 53.85 26.6559 54.78 27.5759 54.78ZM34.5594 53.87V52.63H37.2994V53.87H34.5594ZM12.6298 69V67.6H9.26984L9.12984 66.46L12.3198 62.14H14.0998V66.36H15.0098V67.6H14.0998V69H12.6298ZM10.6798 66.36H12.6298V63.7L10.6798 66.36ZM16.824 70.46L16.294 70.06C16.614 69.78 16.824 69.44 16.904 69.12C16.424 69.12 16.034 68.71 16.034 68.22C16.034 67.72 16.434 67.3 16.934 67.3C17.494 67.3 17.884 67.82 17.884 68.55C17.884 69.14 17.534 69.77 16.824 70.46ZM21.6455 62.01C23.6455 62.01 24.5655 63.45 24.5655 65.45C24.5655 67.59 23.3155 69.12 21.4055 69.12C20.5555 69.12 19.8655 68.83 19.3055 68.38L20.0055 67.26C20.4255 67.61 20.8255 67.82 21.4055 67.82C22.3055 67.82 22.9055 67.07 23.0355 65.91C22.6155 66.32 21.9855 66.57 21.3355 66.57C20.0655 66.57 19.0155 65.75 19.0155 64.39C19.0155 62.98 20.1455 62.01 21.6455 62.01ZM21.7655 65.37C22.3255 65.37 22.7855 65.06 22.9955 64.57C22.8655 63.73 22.4955 63.26 21.7255 63.26C20.9955 63.26 20.5355 63.77 20.5355 64.32C20.5355 64.98 21.0955 65.37 21.7655 65.37ZM28.1103 62.01C30.1103 62.01 31.0303 63.45 31.0303 65.45C31.0303 67.59 29.7803 69.12 27.8703 69.12C27.0203 69.12 26.3303 68.83 25.7703 68.38L26.4703 67.26C26.8903 67.61 27.2903 67.82 27.8703 67.82C28.7703 67.82 29.3703 67.07 29.5003 65.91C29.0803 66.32 28.4503 66.57 27.8003 66.57C26.5303 66.57 25.4803 65.75 25.4803 64.39C25.4803 62.98 26.6103 62.01 28.1103 62.01ZM28.2303 65.37C28.7903 65.37 29.2503 65.06 29.4603 64.57C29.3303 63.73 28.9603 63.26 28.1903 63.26C27.4603 63.26 27.0003 63.77 27.0003 64.32C27.0003 64.98 27.5603 65.37 28.2303 65.37ZM34.5752 62.01C36.5752 62.01 37.4952 63.45 37.4952 65.45C37.4952 67.59 36.2452 69.12 34.3352 69.12C33.4852 69.12 32.7952 68.83 32.2352 68.38L32.9352 67.26C33.3552 67.61 33.7552 67.82 34.3352 67.82C35.2352 67.82 35.8352 67.07 35.9652 65.91C35.5452 66.32 34.9152 66.57 34.2652 66.57C32.9952 66.57 31.9452 65.75 31.9452 64.39C31.9452 62.98 33.0752 62.01 34.5752 62.01ZM34.6952 65.37C35.2552 65.37 35.7152 65.06 35.9252 64.57C35.7952 63.73 35.4252 63.26 34.6552 63.26C33.9252 63.26 33.4652 63.77 33.4652 64.32C33.4652 64.98 34.0252 65.37 34.6952 65.37Z" fill="#0F0B47"/>
<path d="M6.67945 24V18.82L5.50945 19.55L4.90945 18.51L6.96945 17.13H8.14945V24H6.67945ZM12.4109 21.87V20.63H15.1509V21.87H12.4109ZM22.3662 24V22.6H19.0062L18.8662 21.46L22.0562 17.14H23.8362V21.36H24.7462V22.6H23.8362V24H22.3662ZM20.4162 21.36H22.3662V18.7L20.4162 21.36ZM28.1103 17.01C30.1103 17.01 31.0303 18.45 31.0303 20.45C31.0303 22.59 29.7803 24.12 27.8703 24.12C27.0203 24.12 26.3303 23.83 25.7703 23.38L26.4703 22.26C26.8903 22.61 27.2903 22.82 27.8703 22.82C28.7703 22.82 29.3703 22.07 29.5003 20.91C29.0803 21.32 28.4503 21.57 27.8003 21.57C26.5303 21.57 25.4803 20.75 25.4803 19.39C25.4803 17.98 26.6103 17.01 28.1103 17.01ZM28.2303 20.37C28.7903 20.37 29.2503 20.06 29.4603 19.57C29.3303 18.73 28.9603 18.26 28.1903 18.26C27.4603 18.26 27.0003 18.77 27.0003 19.32C27.0003 19.98 27.5603 20.37 28.2303 20.37ZM34.5752 17.01C36.5752 17.01 37.4952 18.45 37.4952 20.45C37.4952 22.59 36.2452 24.12 34.3352 24.12C33.4852 24.12 32.7952 23.83 32.2352 23.38L32.9352 22.26C33.3552 22.61 33.7552 22.82 34.3352 22.82C35.2352 22.82 35.8352 22.07 35.9652 20.91C35.5452 21.32 34.9152 21.57 34.2652 21.57C32.9952 21.57 31.9452 20.75 31.9452 19.39C31.9452 17.98 33.0752 17.01 34.5752 17.01ZM34.6952 20.37C35.2552 20.37 35.7152 20.06 35.9252 19.57C35.7952 18.73 35.4252 18.26 34.6552 18.26C33.9252 18.26 33.4652 18.77 33.4652 19.32C33.4652 19.98 34.0252 20.37 34.6952 20.37Z" fill="#0F0B47"/>
</svg>
