<svg width="1206" height="444" viewBox="0 0 1206 444" fill="none" xmlns="http://www.w3.org/2000/svg">
<path d="M321.552 88.9167C323.199 91.1074 325.339 92.879 327.798 94.0878C330.458 95.4055 333.394 96.0718 336.362 96.0318C338.762 96.0948 341.151 95.6873 343.394 94.8324C345.189 94.1275 346.79 93.0076 348.069 91.5644C349.268 90.1585 350.144 88.5059 350.634 86.7239C351.168 84.7981 351.432 82.8075 351.42 80.8091V73.8591H351.254C349.699 76.3246 347.455 78.2805 344.801 79.4852C342.269 80.5872 339.536 81.1506 336.775 81.1396C334.07 81.16 331.387 80.6542 328.874 79.6505C326.496 78.7062 324.319 77.3162 322.462 75.5553C320.619 73.7861 319.156 71.6607 318.16 69.3083C317.1 66.8246 316.565 64.1488 316.588 61.4485C316.565 58.7562 317.071 56.0856 318.077 53.5884C319.029 51.2257 320.418 49.0642 322.172 47.2178C323.926 45.3867 326.039 43.9363 328.378 42.957C330.88 41.9163 333.569 41.3954 336.279 41.4261C337.513 41.4334 338.745 41.5441 339.961 41.7571C341.298 41.9906 342.603 42.3794 343.849 42.9156C346.809 44.1983 349.367 46.2564 351.254 48.8726H351.42V42.419H356.88V80.809C356.862 83.0646 356.598 85.3115 356.094 87.5102C355.567 89.8874 354.522 92.1191 353.033 94.0461C351.339 96.1718 349.172 97.8721 346.704 99.011C344.001 100.334 340.471 100.996 336.113 100.996C332.574 101.056 329.058 100.41 325.772 99.0936C322.627 97.7465 319.806 95.7436 317.498 93.2188L321.552 88.9167ZM322.545 61.2832C322.531 63.255 322.911 65.2097 323.662 67.0328C324.378 68.7826 325.416 70.3823 326.723 71.749C328.021 73.1033 329.566 74.1985 331.273 74.976C333.052 75.7846 334.987 76.194 336.941 76.1755C340.811 76.1894 344.54 74.7245 347.365 72.0803C348.753 70.7709 349.84 69.1757 350.551 67.4051C351.317 65.4584 351.67 63.3735 351.585 61.2832C351.599 59.3226 351.263 57.3753 350.593 55.5328C349.955 53.7815 348.97 52.1772 347.696 50.8167C346.387 49.4375 344.811 48.3397 343.063 47.5901C341.128 46.7679 339.043 46.3593 336.941 46.3906C334.987 46.3724 333.053 46.7818 331.273 47.5901C329.566 48.3684 328.022 49.4632 326.723 50.8167C325.417 52.1838 324.379 53.7835 323.662 55.5328C322.911 57.3563 322.531 59.3112 322.545 61.2832Z" fill="#244B5A"/>
<path d="M379.137 81.1399H373.18V22.5625H391.216C397.173 22.5625 401.875 23.8587 405.323 26.451C408.769 29.0445 410.493 32.9608 410.494 38.1998C410.599 42.0029 409.219 45.6975 406.647 48.5006C404.081 51.2865 400.372 52.8998 395.518 53.3404L412.397 81.1399H405.116L389.065 53.9196H379.137V81.1399ZM379.137 48.4589H389.727C392.002 48.5069 394.273 48.2283 396.47 47.6317C398.076 47.202 399.581 46.4567 400.896 45.4393C401.957 44.5854 402.783 43.4748 403.296 42.2127C403.799 40.9352 404.052 39.5728 404.04 38.1998C404.046 36.8542 403.794 35.5199 403.296 34.2699C402.777 32.9994 401.953 31.8766 400.896 31.0015C399.593 29.9641 398.084 29.2166 396.47 28.8091C394.268 28.2423 392 27.9779 389.727 28.0232H379.137V48.4589Z" fill="#244B5A"/>
<path d="M422.654 22.5625H439.698C445.655 22.5625 450.357 23.8587 453.804 26.451C457.251 29.0445 458.975 32.9608 458.976 38.1998C458.976 43.4406 457.252 47.3706 453.804 49.9898C450.357 52.61 445.655 53.9199 439.698 53.9196H428.612V81.1399H422.654V22.5625ZM428.612 48.4589H438.209C440.485 48.5068 442.756 48.2282 444.952 47.6317C446.559 47.2018 448.063 46.4566 449.379 45.4393C450.44 44.5852 451.265 43.4747 451.778 42.2126C452.281 40.9352 452.534 39.5728 452.522 38.1997C452.529 36.8541 452.276 35.5199 451.778 34.2699C451.259 32.9994 450.435 31.8767 449.379 31.0015C448.076 29.9642 446.567 29.2168 444.952 28.8091C442.751 28.2423 440.482 27.9779 438.209 28.0232H428.612V48.4589Z" fill="#244B5A"/>
<path d="M518.793 71.8739C517.745 73.4269 516.508 74.8441 515.112 76.0935C513.6 77.4515 511.917 78.6057 510.106 79.5267C508.172 80.5139 506.132 81.2773 504.025 81.8021C501.765 82.363 499.444 82.6409 497.116 82.6293C492.962 82.6682 488.842 81.8808 484.996 80.313C481.365 78.8459 478.069 76.6606 475.303 73.8883C472.538 71.116 470.361 67.8137 468.903 64.1795C467.327 60.2628 466.54 56.0732 466.587 51.8515C466.54 47.6298 467.327 43.4405 468.903 39.5239C470.361 35.8896 472.538 32.5872 475.303 29.8148C478.068 27.0425 481.365 24.8573 484.996 23.3904C488.842 21.8223 492.962 21.0347 497.116 21.0736C500.86 21.0939 504.566 21.8238 508.038 23.2247C511.741 24.7066 514.972 27.1659 517.386 30.3403L512.174 34.2288C511.474 33.186 510.64 32.2401 509.692 31.4158C508.597 30.4463 507.389 29.6129 506.093 28.9338C504.71 28.205 503.254 27.6227 501.75 27.1963C500.244 26.7606 498.684 26.5378 497.116 26.5344C493.641 26.4774 490.195 27.1835 487.023 28.6028C484.144 29.9088 481.567 31.796 479.453 34.1458C477.36 36.5022 475.744 39.2418 474.695 42.213C472.489 48.4493 472.489 55.2537 474.695 61.49C475.744 64.4612 477.36 67.2007 479.453 69.5568C481.566 71.9073 484.144 73.7948 487.023 75.1002C490.195 76.5203 493.641 77.2264 497.116 77.1686C498.656 77.1694 500.193 77.0311 501.708 76.7554C503.249 76.472 504.75 75.9996 506.176 75.3489C507.679 74.6596 509.073 73.7534 510.313 72.6595C511.706 71.4149 512.917 69.9807 513.911 68.399L518.793 71.8739Z" fill="#244B5A"/>
<mask id="mask0_5948_127" style="mask-type:luminance" maskUnits="userSpaceOnUse" x="297" y="11" width="31" height="31">
<path d="M297 26.4278L312.428 41.7412L327.741 26.3137L312.314 11.0003L297 26.4278Z" fill="white"/>
</mask>
<g mask="url(#mask0_5948_127)">
<path d="M297.272 11L297 13.407V11H297.272Z" fill="#75CACA"/>
<path d="M297.632 11L297 16.5876V13.407L297.272 11H297.632Z" fill="#74CBCA"/>
<path d="M297.991 11L297 19.7676V16.5876L297.632 11H297.991Z" fill="#74CBCA"/>
<path d="M298.35 11L297 22.9481V19.7676L297.991 11H298.35Z" fill="#73CBCA"/>
<path d="M298.709 11L297 26.1287V22.9481L298.35 11H298.709Z" fill="#73CBCA"/>
<path d="M299.069 11L297 29.3093V26.1287L298.709 11H299.069Z" fill="#72C9C9"/>
<path d="M299.428 11L297 32.4893V29.3093L299.069 11H299.428Z" fill="#72C9C9"/>
<path d="M299.787 11L297 35.6699V32.4893L299.428 11H299.787Z" fill="#70CACA"/>
<path d="M300.147 11L297 38.8505V35.6699L299.787 11H300.147Z" fill="#70CACA"/>
<path d="M300.506 11L297.035 41.7218L297 41.7178V38.8505L300.147 11H300.506Z" fill="#6FCAC8"/>
<path d="M300.866 11L297.392 41.7408H297.202L297.035 41.7218L300.507 11H300.866Z" fill="#6EC8C8"/>
<path d="M301.225 11L297.751 41.7408H297.392L300.865 11H301.225Z" fill="#6EC8C8"/>
<path d="M301.585 11L298.111 41.7408H297.752L301.225 11H301.585Z" fill="#6CC9C9"/>
<path d="M301.943 11L298.47 41.7408H298.11L301.584 11H301.943Z" fill="#6DC9C8"/>
<path d="M302.303 11L298.83 41.7408H298.47L301.943 11H302.303Z" fill="#69C7C8"/>
<path d="M302.662 11L299.189 41.7408H298.83L302.303 11H302.662Z" fill="#69C7C8"/>
<path d="M303.021 11L299.548 41.7408H299.188L302.662 11H303.021Z" fill="#69C8C7"/>
<path d="M303.381 11L299.907 41.7408H299.548L303.022 11H303.381Z" fill="#68C8C7"/>
<path d="M303.74 11L300.267 41.7408H299.907L303.381 11H303.74Z" fill="#67C7C7"/>
<path d="M304.1 11L300.627 41.7408H300.268L303.741 11H304.1Z" fill="#65C7C7"/>
<path d="M304.459 11L300.985 41.7408H300.626L304.099 11H304.459Z" fill="#64C7C7"/>
<path d="M304.818 11L301.345 41.7408H300.985L304.459 11H304.818Z" fill="#63C6C6"/>
<path d="M305.178 11L301.705 41.7408H301.345L304.818 11H305.178Z" fill="#60C6C6"/>
<path d="M305.536 11L302.063 41.7408H301.704L305.177 11H305.536Z" fill="#60C6C5"/>
<path d="M305.896 11L302.423 41.7408H302.063L305.537 11H305.896Z" fill="#5FC6C5"/>
<path d="M306.256 11L302.782 41.7408H302.423L305.897 11H306.256Z" fill="#5CC5C4"/>
<path d="M306.615 11L303.142 41.7408H302.782L306.256 11H306.615Z" fill="#5AC5C4"/>
<path d="M306.974 11L303.501 41.7408H303.142L306.615 11H306.974Z" fill="#5AC5C4"/>
<path d="M307.334 11L303.86 41.7408H303.501L306.974 11H307.334Z" fill="#57C4C4"/>
<path d="M307.693 11L304.22 41.7408H303.86L307.334 11H307.693Z" fill="#58C4C3"/>
<path d="M308.053 11L304.58 41.7408H304.22L307.693 11H308.053Z" fill="#55C4C3"/>
<path d="M308.412 11L304.939 41.7408H304.58L308.053 11H308.412Z" fill="#53C3C2"/>
<path d="M308.772 11L305.299 41.7408H304.939L308.413 11H308.772Z" fill="#52C3C2"/>
<path d="M309.131 11L305.657 41.7408H305.298L308.772 11H309.131Z" fill="#50C3C2"/>
<path d="M309.49 11L306.017 41.7408H305.657L309.131 11H309.49Z" fill="#50C1C0"/>
<path d="M309.85 11L306.377 41.7408H306.018L309.491 11H309.85Z" fill="#4BC2C0"/>
<path d="M310.21 11L306.736 41.7408H306.377L309.851 11H310.21Z" fill="#4CC1C0"/>
<path d="M310.568 11L307.095 41.7408H306.735L310.209 11H310.568Z" fill="#47C1BE"/>
<path d="M310.928 11L307.455 41.7408H307.095L310.568 11H310.928Z" fill="#46C0BE"/>
<path d="M311.288 11L307.814 41.7408H307.455L310.928 11H311.288Z" fill="#43C0BE"/>
<path d="M311.646 11L308.173 41.7408H307.813L311.287 11H311.646Z" fill="#40BFBD"/>
<path d="M312.006 11L308.533 41.7408H308.173L311.647 11H312.006Z" fill="#3BBFBD"/>
<path d="M312.366 11L308.892 41.7408H308.533L312.006 11H312.366Z" fill="#39BFBC"/>
<path d="M312.725 11L309.251 41.7408H308.892L312.365 11H312.725Z" fill="#34BEBD"/>
<path d="M313.084 11L309.61 41.7408H309.251L312.725 11H313.084Z" fill="#32BEBB"/>
<path d="M313.443 11L309.97 41.7408H309.61L313.084 11H313.443Z" fill="#2DBDBB"/>
<path d="M313.803 11L310.33 41.7408H309.971L313.444 11H313.803Z" fill="#24BCBB"/>
<path d="M314.162 11L310.688 41.7408H310.329L313.802 11H314.162Z" fill="#21BCB9"/>
<path d="M314.521 11L311.048 41.7408H310.688L314.162 11H314.521Z" fill="#18BBB9"/>
<path d="M314.881 11L311.408 41.7408H311.048L314.522 11H314.881Z" fill="#0FBAB9"/>
<path d="M315.24 11L311.766 41.7408H311.407L314.88 11H315.24Z" fill="#03BBB8"/>
<path d="M315.6 11L312.126 41.7408H311.767L315.24 11H315.6Z" fill="#06B8B6"/>
<path d="M315.959 11L312.485 41.7408H312.126L315.6 11H315.959Z" fill="#06B8B6"/>
<path d="M316.318 11L312.845 41.7408H312.485L315.959 11H316.318Z" fill="#03B7B5"/>
<path d="M316.677 11L313.204 41.7408H312.845L316.318 11H316.677Z" fill="#04B7B4"/>
<path d="M317.037 11L313.563 41.7408H313.204L316.677 11H317.037Z" fill="#00B6B5"/>
<path d="M317.396 11L313.923 41.7408H313.563L317.037 11H317.396Z" fill="#03B6B4"/>
<path d="M317.756 11L314.283 41.7408H313.923L317.397 11H317.756Z" fill="#05B6B2"/>
<path d="M318.115 11L314.641 41.7408H314.282L317.755 11H318.115Z" fill="#01B5B1"/>
<path d="M318.475 11L315.001 41.7408H314.642L318.115 11H318.475Z" fill="#01B5B1"/>
<path d="M318.834 11L315.36 41.7408H315.001L318.475 11H318.834Z" fill="#00B4B1"/>
<path d="M319.193 11L315.72 41.7408H315.36L318.834 11H319.193Z" fill="#00B3B0"/>
<path d="M319.553 11L316.079 41.7408H315.72L319.193 11H319.553Z" fill="#00B3B0"/>
<path d="M319.912 11L316.438 41.7408H316.079L319.553 11H319.912Z" fill="#00B2AF"/>
<path d="M320.271 11L316.798 41.7408H316.438L319.912 11H320.271Z" fill="#00B2AE"/>
<path d="M320.631 11L317.158 41.7408H316.798L320.272 11H320.631Z" fill="#00B1AE"/>
<path d="M320.99 11L317.516 41.7408H317.157L320.63 11H320.99Z" fill="#00B1AD"/>
<path d="M321.35 11L317.876 41.7408H317.517L320.99 11H321.35Z" fill="#00B0AC"/>
<path d="M321.709 11L318.236 41.7408H317.876L321.35 11H321.709Z" fill="#00AFAC"/>
<path d="M327.54 11L327.741 11.0224V41.7408H318.235L321.708 11H327.54Z" fill="#00AFAC"/>
</g>
<mask id="mask1_5948_127" style="mask-type:luminance" maskUnits="userSpaceOnUse" x="345" y="17" width="19" height="19">
<path d="M345.357 26.2209L354.406 35.2031L363.388 26.154L354.339 17.1718L345.357 26.2209Z" fill="white"/>
</mask>
<g mask="url(#mask1_5948_127)">
<path d="M363.389 22.4387L363.144 17.1719H363.389V22.4387Z" fill="#75CACA"/>
<path d="M363.389 27.9729L362.886 17.1719H363.143L363.389 22.4387V27.9729Z" fill="#74CBCA"/>
<path d="M363.389 33.507L362.628 17.1719H362.886L363.389 27.9729V33.507Z" fill="#74CBCA"/>
<path d="M363.21 35.2036L362.37 17.1719H362.628L363.389 33.507V35.2036H363.21Z" fill="#73CBCA"/>
<path d="M362.952 35.2036L362.112 17.1719H362.37L363.21 35.2036H362.952Z" fill="#72C9C9"/>
<path d="M362.694 35.2036L361.854 17.1719H362.112L362.952 35.2036H362.694Z" fill="#72C9C9"/>
<path d="M362.436 35.2036L361.597 17.1719H361.855L362.694 35.2036H362.436Z" fill="#70CACA"/>
<path d="M362.179 35.2036L361.339 17.1719H361.596L362.436 35.2036H362.179Z" fill="#6FCAC8"/>
<path d="M361.921 35.2036L361.081 17.1719H361.339L362.179 35.2036H361.921Z" fill="#6EC8C8"/>
<path d="M361.663 35.2036L360.823 17.1719H361.081L361.921 35.2036H361.663Z" fill="#6EC8C8"/>
<path d="M361.406 35.2036L360.565 17.1719H360.823L361.663 35.2036H361.406Z" fill="#6CC9C9"/>
<path d="M361.147 35.2036L360.308 17.1719H360.565L361.405 35.2036H361.147Z" fill="#6DC9C8"/>
<path d="M360.89 35.2036L360.05 17.1719H360.308L361.148 35.2036H360.89Z" fill="#69C7C8"/>
<path d="M360.633 35.2036L359.793 17.1719H360.05L360.891 35.2036H360.633Z" fill="#69C7C8"/>
<path d="M360.374 35.2036L359.534 17.1719H359.792L360.632 35.2036H360.374Z" fill="#69C8C7"/>
<path d="M360.116 35.2036L359.276 17.1719H359.534L360.374 35.2036H360.116Z" fill="#68C8C7"/>
<path d="M359.859 35.2036L359.019 17.1719H359.277L360.116 35.2036H359.859Z" fill="#67C7C7"/>
<path d="M359.601 35.2036L358.762 17.1719H359.019L359.859 35.2036H359.601Z" fill="#65C7C7"/>
<path d="M359.344 35.2036L358.504 17.1719H358.761L359.601 35.2036H359.344Z" fill="#64C7C7"/>
<path d="M359.086 35.2036L358.246 17.1719H358.504L359.344 35.2036H359.086Z" fill="#63C6C6"/>
<path d="M358.828 35.2036L357.988 17.1719H358.246L359.085 35.2036H358.828Z" fill="#60C6C6"/>
<path d="M358.57 35.2036L357.73 17.1719H357.989L358.828 35.2036H358.57Z" fill="#60C6C5"/>
<path d="M358.312 35.2036L357.473 17.1719H357.73L358.57 35.2036H358.312Z" fill="#5FC6C5"/>
<path d="M358.055 35.2036L357.215 17.1719H357.473L358.313 35.2036H358.055Z" fill="#5FC6C5"/>
<path d="M357.797 35.2036L356.957 17.1719H357.215L358.054 35.2036H357.797Z" fill="#5CC5C4"/>
<path d="M357.539 35.2036L356.699 17.1719H356.957L357.797 35.2036H357.539Z" fill="#5AC5C4"/>
<path d="M357.281 35.2036L356.441 17.1719H356.699L357.539 35.2036H357.281Z" fill="#5AC5C4"/>
<path d="M357.024 35.2036L356.184 17.1719H356.442L357.281 35.2036H357.024Z" fill="#57C4C4"/>
<path d="M356.765 35.2036L355.926 17.1719H356.183L357.024 35.2036H356.765Z" fill="#58C4C3"/>
<path d="M356.508 35.2036L355.668 17.1719H355.926L356.766 35.2036H356.508Z" fill="#55C4C3"/>
<path d="M356.251 35.2036L355.411 17.1719H355.669L356.509 35.2036H356.251Z" fill="#53C3C2"/>
<path d="M355.993 35.2036L355.152 17.1719H355.41L356.25 35.2036H355.993Z" fill="#53C3C2"/>
<path d="M355.734 35.2036L354.895 17.1719H355.152L355.992 35.2036H355.734Z" fill="#52C3C2"/>
<path d="M355.478 35.2036L354.638 17.1719H354.896L355.735 35.2036H355.478Z" fill="#50C3C2"/>
<path d="M355.22 35.2036L354.38 17.1719H354.637L355.478 35.2036H355.22Z" fill="#50C1C0"/>
<path d="M354.961 35.2036L354.121 17.1719H354.379L355.219 35.2036H354.961Z" fill="#4DC2C1"/>
<path d="M354.704 35.2036L353.864 17.1719H354.122L354.962 35.2036H354.704Z" fill="#4CC2C0"/>
<path d="M354.446 35.2036L353.606 17.1719H353.864L354.704 35.2036H354.446Z" fill="#4BC0BF"/>
<path d="M354.188 35.2036L353.349 17.1719H353.607L354.446 35.2036H354.188Z" fill="#47C1BE"/>
<path d="M353.931 35.2036L353.091 17.1719H353.348L354.188 35.2036H353.931Z" fill="#46C0BE"/>
<path d="M353.673 35.2036L352.833 17.1719H353.091L353.931 35.2036H353.673Z" fill="#43C0BE"/>
<path d="M353.415 35.2036L352.575 17.1719H352.833L353.672 35.2036H353.415Z" fill="#41C0BE"/>
<path d="M353.157 35.2036L352.317 17.1719H352.575L353.415 35.2036H353.157Z" fill="#40BFBD"/>
<path d="M352.899 35.2036L352.06 17.1719H352.317L353.157 35.2036H352.899Z" fill="#3BBFBD"/>
<path d="M352.641 35.2036L351.802 17.1719H352.06L352.899 35.2036H352.641Z" fill="#3CBFBC"/>
<path d="M352.384 35.2036L351.544 17.1719H351.801L352.641 35.2036H352.384Z" fill="#39BFBC"/>
<path d="M352.126 35.2036L351.286 17.1719H351.544L352.384 35.2036H352.126Z" fill="#34BEBD"/>
<path d="M351.869 35.2036L351.029 17.1719H351.287L352.126 35.2036H351.869Z" fill="#32BEBB"/>
<path d="M351.611 35.2036L350.771 17.1719H351.029L351.868 35.2036H351.611Z" fill="#2FBEBC"/>
<path d="M351.353 35.2036L350.514 17.1719H350.771L351.611 35.2036H351.353Z" fill="#2DBDBB"/>
<path d="M351.096 35.2036L350.256 17.1719H350.514L351.354 35.2036H351.096Z" fill="#2BBDBA"/>
<path d="M350.838 35.2036L349.998 17.1719H350.256L351.096 35.2036H350.838Z" fill="#24BCBB"/>
<path d="M350.58 35.2036L349.74 17.1719H349.998L350.838 35.2036H350.58Z" fill="#21BCB9"/>
<path d="M350.322 35.2036L349.482 17.1719H349.74L350.58 35.2036H350.322Z" fill="#18BBB9"/>
<path d="M350.064 35.2036L349.224 17.1719H349.482L350.321 35.2036H350.064Z" fill="#16BAB9"/>
<path d="M349.806 35.2036L348.967 17.1719H349.224L350.065 35.2036H349.806Z" fill="#11BAB7"/>
<path d="M349.549 35.2036L348.709 17.1719H348.967L349.807 35.2036H349.549Z" fill="#03BBB8"/>
<path d="M349.291 35.2036L348.451 17.1719H348.709L349.549 35.2036H349.291Z" fill="#06B8B6"/>
<path d="M349.033 35.2036L348.193 17.1719H348.451L349.291 35.2036H349.033Z" fill="#06B8B6"/>
<path d="M348.775 35.2036L347.936 17.1719H348.194L349.033 35.2036H348.775Z" fill="#06B8B6"/>
<path d="M348.518 35.2036L347.679 17.1719H347.936L348.776 35.2036H348.518Z" fill="#00B7B6"/>
<path d="M348.26 35.2036L347.42 17.1719H347.678L348.518 35.2036H348.26Z" fill="#03B7B5"/>
<path d="M348.002 35.2036L347.162 17.1719H347.42L348.259 35.2036H348.002Z" fill="#04B7B4"/>
<path d="M347.745 35.2036L346.905 17.1719H347.163L348.003 35.2036H347.745Z" fill="#00B6B5"/>
<path d="M347.487 35.2036L346.647 17.1719H346.905L347.745 35.2036H347.487Z" fill="#00B6B5"/>
<path d="M347.228 35.2036L346.389 17.1719H346.647L347.486 35.2036H347.228Z" fill="#00B6B5"/>
<path d="M346.972 35.2036L346.132 17.1719H346.389L347.229 35.2036H346.972Z" fill="#03B6B4"/>
<path d="M346.714 35.2036L345.874 17.1719H346.132L346.972 35.2036H346.714Z" fill="#03B6B4"/>
<path d="M346.456 35.2036L345.616 17.1719H345.874L346.714 35.2036H346.456Z" fill="#05B6B2"/>
<path d="M346.199 35.2036L345.358 17.1719H345.616L346.456 35.2036H346.199Z" fill="#01B5B1"/>
<path d="M345.94 35.2036L345.357 22.6841V17.1719H345.358L346.198 35.2036H345.94Z" fill="#01B5B1"/>
<path d="M345.683 35.203L345.357 28.2177V22.6836L345.94 35.203H345.683Z" fill="#01B5B1"/>
<path d="M345.425 35.2031L345.357 33.7519V28.2178L345.683 35.2031H345.425Z" fill="#00B4B1"/>
<path d="M345.357 33.752L345.425 35.2032H345.357V33.752Z" fill="#00B4B1"/>
</g>
<path d="M312.989 17.0772L303.716 26.42L313.058 35.6934L320.962 35.6641L312.674 27.4425L353.6 27.2908L350.013 30.9018L353.965 30.8874L358.602 26.216L353.93 21.5796L349.978 21.594L353.592 25.1792L312.666 25.3309L320.892 17.0479L312.989 17.0772Z" fill="#244B5A"/>
<line x1="4" y1="135.5" x2="519" y2="135.5" stroke="black" stroke-opacity="0.25"/>
<line x1="683" y1="135.5" x2="1198" y2="135.5" stroke="black" stroke-opacity="0.25"/>
<line x1="683" y1="295.5" x2="1198" y2="295.5" stroke="black" stroke-opacity="0.25"/>
<line x1="4" y1="295.5" x2="519" y2="295.5" stroke="black" stroke-opacity="0.25"/>
<path d="M35.088 96.248C23.28 96.248 14.16 91.544 8.592 85.112L16.944 75.704C21.648 80.696 27.888 83.48 34.512 83.48C41.712 83.48 46.032 80.12 46.032 75.416C46.032 70.328 42 67.736 33.168 67.832H25.584V55.736L33.168 55.832C40.368 55.832 44.688 53.144 44.688 48.44C44.688 43.64 40.08 40.568 33.552 40.568C27.408 40.568 22.512 43.64 18.096 48.248L9.936 39.608C15.408 32.984 23.28 27.896 34.992 27.896C49.776 27.896 59.088 35.48 59.088 45.944C59.088 53.528 54 59 46.704 61.112C53.904 62.744 60.528 67.832 60.528 76.568C60.528 87.992 50.544 96.248 35.088 96.248ZM94.53 96.248C83.49 96.248 75.138 92.216 68.994 86.072L77.346 76.088C82.338 80.792 88.29 83.864 94.626 83.864C102.114 83.864 106.626 79.448 106.626 73.784C106.626 68.024 101.922 64.184 94.722 64.184C89.73 64.184 85.506 65.816 81.954 68.504L72.45 64.664L73.41 29.048H117.186V41.816H86.466L86.082 56.408C89.346 54.104 93.57 52.376 98.946 52.376C110.658 52.376 120.738 59.864 120.738 73.304C120.738 87.32 110.274 96.248 94.53 96.248ZM146.665 62.168C136.777 62.168 130.249 54.776 130.249 45.368C130.249 35.864 136.777 28.376 146.665 28.376C156.649 28.376 163.177 35.96 163.177 45.272C163.177 54.776 156.361 62.168 146.665 62.168ZM138.889 95L184.681 29.048H195.817L149.929 95H138.889ZM146.665 53.912C150.697 53.912 153.673 50.552 153.673 45.272C153.673 40.184 150.697 36.728 146.665 36.728C142.537 36.728 139.657 40.088 139.657 45.272C139.657 50.456 142.729 53.912 146.665 53.912ZM187.849 96.056C178.057 96.056 171.337 88.568 171.337 79.16C171.337 69.752 178.057 62.264 187.849 62.264C197.833 62.264 204.265 69.848 204.265 79.16C204.265 88.664 197.545 96.056 187.849 96.056ZM187.849 87.704C191.977 87.704 194.857 84.344 194.857 79.16C194.857 73.976 191.785 70.52 187.849 70.52C183.721 70.52 180.841 73.88 180.841 79.16C180.841 84.248 183.817 87.704 187.849 87.704Z" fill="#9E008E"/>
<path d="M708.104 246V196.272L696.872 203.28L691.112 193.296L710.888 180.048H722.216V246H708.104ZM761.162 247.152C746.57 247.152 734.666 240.24 734.666 228.336C734.666 220.56 740.042 214.8 747.626 211.92C741.098 209.136 736.394 204.336 736.394 196.848C736.394 185.232 748.298 178.896 761.162 178.896C774.314 178.896 786.026 185.52 786.026 196.848C786.026 204.24 781.322 209.04 774.698 211.92C782.474 214.992 787.658 220.752 787.658 228.336C787.658 240.336 775.658 247.152 761.162 247.152ZM761.162 207.024C766.346 206.64 771.914 203.568 771.914 198.672C771.914 194.16 767.498 190.8 761.162 190.8C754.826 190.8 750.506 194.16 750.506 198.672C750.506 203.76 755.978 206.64 761.162 207.024ZM761.162 235.248C768.17 235.248 773.354 231.792 773.354 226.8C773.354 221.616 766.826 218.352 761.162 218.16C755.498 218.352 749.066 221.616 749.066 226.8C749.066 231.792 754.154 235.248 761.162 235.248ZM813.821 213.168C803.933 213.168 797.405 205.776 797.405 196.368C797.405 186.864 803.933 179.376 813.821 179.376C823.805 179.376 830.333 186.96 830.333 196.272C830.333 205.776 823.517 213.168 813.821 213.168ZM806.045 246L851.837 180.048H862.973L817.085 246H806.045ZM813.821 204.912C817.853 204.912 820.829 201.552 820.829 196.272C820.829 191.184 817.853 187.728 813.821 187.728C809.693 187.728 806.813 191.088 806.813 196.272C806.813 201.456 809.885 204.912 813.821 204.912ZM855.005 247.056C845.213 247.056 838.493 239.568 838.493 230.16C838.493 220.752 845.213 213.264 855.005 213.264C864.989 213.264 871.421 220.848 871.421 230.16C871.421 239.664 864.701 247.056 855.005 247.056ZM855.005 238.704C859.133 238.704 862.013 235.344 862.013 230.16C862.013 224.976 858.941 221.52 855.005 221.52C850.877 221.52 847.997 224.88 847.997 230.16C847.997 235.248 850.973 238.704 855.005 238.704Z" fill="#9E008E"/>
<path d="M9.936 408V396.48L34.224 377.664C42.096 371.424 44.592 367.104 44.592 362.496C44.592 357.024 39.984 353.76 34.608 353.76C28.176 353.76 23.28 357.024 18.48 362.496L9.456 353.76C15.984 345.504 24.336 340.896 34.992 340.896C49.008 340.896 59.184 349.536 59.184 361.92C59.184 370.752 55.344 377.568 43.824 385.92L31.824 395.232H59.76V408H9.936ZM93.9675 409.248C82.9275 409.248 74.5755 405.216 68.4315 399.072L76.7835 389.088C81.7755 393.792 87.7275 396.864 94.0635 396.864C101.552 396.864 106.064 392.448 106.064 386.784C106.064 381.024 101.36 377.184 94.1595 377.184C89.1675 377.184 84.9435 378.816 81.3915 381.504L71.8875 377.664L72.8475 342.048H116.624V354.816H85.9035L85.5195 369.408C88.7835 367.104 93.0075 365.376 98.3835 365.376C110.096 365.376 120.176 372.864 120.176 386.304C120.176 400.32 109.712 409.248 93.9675 409.248ZM146.102 375.168C136.214 375.168 129.686 367.776 129.686 358.368C129.686 348.864 136.214 341.376 146.102 341.376C156.086 341.376 162.614 348.96 162.614 358.272C162.614 367.776 155.798 375.168 146.102 375.168ZM138.326 408L184.118 342.048H195.254L149.366 408H138.326ZM146.102 366.912C150.134 366.912 153.11 363.552 153.11 358.272C153.11 353.184 150.134 349.728 146.102 349.728C141.974 349.728 139.094 353.088 139.094 358.272C139.094 363.456 142.166 366.912 146.102 366.912ZM187.286 409.056C177.494 409.056 170.774 401.568 170.774 392.16C170.774 382.752 177.494 375.264 187.286 375.264C197.27 375.264 203.702 382.848 203.702 392.16C203.702 401.664 196.982 409.056 187.286 409.056ZM187.286 400.704C191.414 400.704 194.294 397.344 194.294 392.16C194.294 386.976 191.222 383.52 187.286 383.52C183.158 383.52 180.278 386.88 180.278 392.16C180.278 397.248 183.254 400.704 187.286 400.704Z" fill="#9E008E"/>
<path d="M708.104 103V53.272L696.872 60.28L691.112 50.296L710.888 37.048H722.216V103H708.104ZM739.466 103L765.674 49.816H733.034V37.048H782.09V47.704L755.402 103H739.466ZM806.79 70.168C796.902 70.168 790.374 62.776 790.374 53.368C790.374 43.864 796.902 36.376 806.79 36.376C816.774 36.376 823.302 43.96 823.302 53.272C823.302 62.776 816.486 70.168 806.79 70.168ZM799.014 103L844.806 37.048H855.942L810.054 103H799.014ZM806.79 61.912C810.822 61.912 813.798 58.552 813.798 53.272C813.798 48.184 810.822 44.728 806.79 44.728C802.662 44.728 799.782 48.088 799.782 53.272C799.782 58.456 802.854 61.912 806.79 61.912ZM847.974 104.056C838.182 104.056 831.462 96.568 831.462 87.16C831.462 77.752 838.182 70.264 847.974 70.264C857.958 70.264 864.39 77.848 864.39 87.16C864.39 96.664 857.67 104.056 847.974 104.056ZM847.974 95.704C852.102 95.704 854.982 92.344 854.982 87.16C854.982 81.976 851.91 78.52 847.974 78.52C843.846 78.52 840.966 81.88 840.966 87.16C840.966 92.248 843.942 95.704 847.974 95.704Z" fill="#9E008E"/>
<path d="M1036.89 218.477C1036.89 219.601 1036.56 220.7 1035.93 221.634C1035.31 222.568 1034.42 223.297 1033.38 223.727C1032.35 224.157 1031.2 224.269 1030.1 224.05C1029 223.831 1027.99 223.29 1027.19 222.495C1026.4 221.7 1025.86 220.688 1025.64 219.586C1025.42 218.483 1025.53 217.341 1025.96 216.303C1026.39 215.264 1027.12 214.377 1028.05 213.753C1028.99 213.128 1030.09 212.795 1031.21 212.795C1032.72 212.795 1034.16 213.394 1035.23 214.459C1036.29 215.525 1036.89 216.97 1036.89 218.477ZM1044.24 218.477C1044.24 219.601 1044.57 220.7 1045.2 221.634C1045.82 222.568 1046.71 223.297 1047.75 223.727C1048.79 224.157 1049.93 224.269 1051.03 224.05C1052.13 223.831 1053.15 223.29 1053.94 222.495C1054.74 221.7 1055.28 220.688 1055.5 219.586C1055.72 218.483 1055.6 217.341 1055.17 216.303C1054.74 215.264 1054.02 214.377 1053.08 213.753C1052.15 213.128 1051.05 212.795 1049.92 212.795C1048.42 212.795 1046.97 213.394 1045.91 214.459C1044.84 215.525 1044.24 216.97 1044.24 218.477Z" fill="#419EDA"/>
<path d="M1082.93 224.644H1081.68C1079.18 224.642 1076.71 224.069 1074.47 222.967C1075.2 218.754 1075.52 214.481 1075.44 210.206C1073.01 206.682 1070.24 203.402 1067.17 200.413C1068.53 197.858 1070.54 195.707 1072.99 194.178L1074.06 193.518L1073.22 192.549C1069.02 187.82 1063.84 184.064 1058.04 181.543L1056.89 181.039L1056.6 182.261C1055.91 185.073 1054.48 187.653 1052.47 189.737C1048.68 187.718 1044.69 186.075 1040.58 184.83C1036.47 186.055 1032.48 187.679 1028.69 189.678C1026.69 187.599 1025.27 185.026 1024.59 182.222L1024.29 181L1023.13 181.504C1017.32 184.066 1012.14 187.858 1007.94 192.617L1007.1 193.586L1008.17 194.246C1010.62 195.766 1012.63 197.907 1013.99 200.451C1010.93 203.421 1008.16 206.678 1005.73 210.177C1005.64 214.481 1005.96 218.783 1006.7 223.025C1004.46 224.119 1002.01 224.69 999.521 224.693H998.261L997 224.538L997.116 225.788C997.72 232.103 999.707 238.208 1002.93 243.669L1003.59 244.716L1004.56 243.902C1006.78 242.025 1009.46 240.773 1012.32 240.275C1014.17 244.091 1016.38 247.721 1018.91 251.116C1022.99 252.546 1027.2 253.578 1031.47 254.199C1031.9 257.096 1031.53 260.053 1030.42 262.761L1029.97 263.925L1031.19 264.197C1034.28 264.881 1037.43 265.229 1040.6 265.234L1050 264.197L1051.22 263.925L1050.75 262.761C1049.64 260.046 1049.28 257.082 1049.71 254.18C1053.97 253.559 1058.16 252.53 1062.22 251.106C1064.77 247.726 1066.99 244.109 1068.85 240.304C1071.71 240.804 1074.39 242.056 1076.61 243.931L1077.58 244.736L1078.22 243.659C1081.45 238.199 1083.44 232.094 1084.04 225.779L1084.15 224.528L1082.93 224.644ZM1054.04 239.926C1045.22 242.351 1035.91 242.351 1027.1 239.926C1022.17 232.308 1019.35 223.524 1018.9 214.463C1021.74 210.95 1025.02 207.827 1028.67 205.174C1032.34 202.505 1036.34 200.327 1040.58 198.696C1044.8 200.325 1048.79 202.496 1052.45 205.154C1056.12 207.826 1059.41 210.969 1062.26 214.502C1061.78 223.549 1058.95 232.313 1054.04 239.926Z" fill="#419EDA"/>
<path d="M1109.21 203.871C1117.98 203.871 1122.91 210.169 1122.91 220C1122.92 221.065 1122.85 222.129 1122.7 223.182H1099.46C1099.88 230.612 1104.34 235.284 1110.92 235.284C1113.98 235.249 1116.96 234.315 1119.48 232.596L1121.59 236.398C1118.25 238.669 1114.31 239.9 1110.27 239.937C1101.07 239.973 1093.79 233.234 1093.79 221.984C1093.79 210.735 1101.35 203.871 1109.21 203.871ZM1117.84 219.363C1117.84 212.356 1114.72 208.465 1109.35 208.465C1104.53 208.465 1100.15 212.427 1099.45 219.363H1117.84ZM1129.51 209.46H1124.42V205.074L1129.78 204.723L1130.49 195.1H1135.37V204.723H1144.63V209.49H1135.39V228.568C1135.39 232.817 1136.73 235.218 1140.7 235.218C1142.03 235.122 1143.35 234.81 1144.59 234.294L1145.72 238.68C1143.67 239.435 1141.53 239.871 1139.35 239.973C1131.99 239.973 1129.51 235.301 1129.51 228.509V209.46ZM1163.62 203.871C1165.48 203.862 1167.33 204.22 1169.05 204.924C1170.77 205.628 1172.34 206.666 1173.66 207.976L1170.76 211.724C1168.71 209.936 1166.59 208.685 1163.83 208.685C1157.6 208.685 1153.1 214.048 1153.1 221.984C1153.1 229.921 1157.39 235.147 1163.7 235.147C1166.95 235.147 1169.71 233.52 1171.76 231.679L1174.38 235.498C1171.32 238.302 1167.34 239.894 1163.19 239.973C1154.07 239.973 1147.07 233.419 1147.07 222.002C1147.06 210.449 1154.76 203.871 1163.62 203.871ZM1190.79 203.871C1194.75 203.871 1197.34 205.354 1200.41 207.833L1200.12 201.958V188.73H1206V239.109H1201.19L1200.7 235.075H1200.48C1197.8 237.691 1194.11 239.973 1190.08 239.973C1181.45 239.973 1175.86 233.419 1175.86 221.984C1175.86 210.777 1182.93 203.871 1190.79 203.871ZM1191.35 235.075C1194.54 235.075 1197.31 233.52 1200.13 230.308V212.362C1197.23 209.746 1194.61 208.751 1191.79 208.751C1186.27 208.751 1181.89 214.054 1181.89 221.913C1181.87 230.124 1185.34 235.075 1191.35 235.075Z" fill="black"/>
<path d="M420.019 320.819C420.069 323 419.855 325.158 419.306 327.269C419.157 327.839 419.292 327.933 419.824 327.994C426.766 328.791 433.219 331.006 439.119 334.765C439.812 335.207 439.948 334.962 440.202 334.337C441.913 330.117 444.466 326.484 447.956 323.54C449.126 322.553 450.383 321.679 451.939 321.394C453.507 321.108 454.495 321.868 454.655 323.468C454.811 325.026 454.46 326.507 453.908 327.94C452.246 332.262 449.68 335.964 446.17 338.989C445.64 339.446 445.547 339.667 446.114 340.195C448.908 342.796 451.291 345.744 453.351 348.96C453.68 349.473 453.691 349.732 453.125 350.06C451.482 351.01 449.86 351.998 448.257 353.014C447.726 353.35 447.453 353.35 447.09 352.766C444.733 348.986 441.77 345.742 438.24 343.026C432.517 338.625 426.082 335.91 418.879 335.267C404.714 334.004 393.196 339.031 384.299 350.105C384.129 350.316 383.964 350.532 383.807 350.753C382.553 352.513 382.554 352.514 380.774 351.364C379.578 350.591 378.393 349.799 377.179 349.056C376.653 348.734 376.481 348.5 376.894 347.896C378.974 344.858 381.341 342.071 384.074 339.609C384.634 339.105 384.695 338.881 384.111 338.315C380.521 334.834 377.771 330.821 376.544 325.892C376.32 324.991 376.287 324.074 376.429 323.164C376.632 321.855 377.598 321.165 378.906 321.358C380.55 321.6 381.863 322.512 383.09 323.541C386.372 326.291 388.811 329.684 390.526 333.59C390.846 334.318 391.077 334.37 391.74 333.98C397.612 330.519 403.945 328.47 410.746 327.932C411.64 327.862 411.746 327.566 411.577 326.732C410.653 322.179 410.675 317.642 412.039 313.161C412.367 312.084 412.82 311.062 413.525 310.174C414.774 308.601 416.245 308.604 417.486 310.21C418.724 311.811 419.208 313.72 419.591 315.658C419.928 317.361 420.052 319.084 420.019 320.819Z" fill="#27799F"/>
<path d="M410.951 424.944C411.03 423.218 411.001 421.481 411.404 419.783C411.552 419.156 411.571 418.788 410.672 418.71C403.742 418.104 397.282 415.996 391.317 412.414C390.695 412.041 390.524 412.181 390.245 412.766C388.513 416.391 386.195 419.585 383.095 422.17C381.919 423.152 380.667 424.032 379.111 424.319C377.541 424.609 376.551 423.85 376.389 422.253C376.231 420.695 376.591 419.217 377.132 417.778C378.537 414.037 380.701 410.772 383.531 407.972C384.212 407.297 384.105 407 383.472 406.432C381.344 404.52 379.518 402.334 377.815 400.038C377.432 399.521 377.391 399.25 377.975 398.865C379.533 397.84 381.068 396.776 382.573 395.674C383.136 395.261 383.418 395.294 383.839 395.876C387.211 400.545 391.437 404.266 396.512 406.986C404.146 411.077 412.264 412.515 420.825 411.116C431.195 409.421 439.484 404.269 445.741 395.843C446.134 395.314 446.406 395.154 447.006 395.598C448.505 396.707 450.046 397.763 451.602 398.79C452.148 399.15 452.231 399.383 451.814 399.946C450.215 402.107 448.502 404.166 446.542 406.005C446.046 406.471 446.146 406.663 446.59 407.08C450.366 410.633 453.236 414.76 454.509 419.866C454.725 420.732 454.749 421.617 454.623 422.495C454.427 423.861 453.458 424.559 452.092 424.348C450.485 424.101 449.198 423.211 447.995 422.208C444.648 419.421 442.193 415.957 440.446 411.988C440.167 411.354 439.981 411.303 439.413 411.67C433.509 415.49 427.052 417.793 420.065 418.582C419.401 418.657 419.439 418.885 419.534 419.417C420.276 423.574 420.273 427.719 419.179 431.824C418.811 433.206 418.309 434.54 417.367 435.654C416.166 437.075 414.768 437.083 413.602 435.623C412.111 433.754 411.656 431.484 411.25 429.205C411 427.794 411.037 426.365 410.951 424.944Z" fill="#27799F"/>
<path d="M450.943 369.243C452.181 376.057 452.194 382.824 452.158 389.598C452.153 390.518 451.906 390.731 451.026 390.701C449.026 390.633 447.021 390.653 445.019 390.695C444.379 390.708 444.231 390.51 444.232 389.893C444.251 379.302 444.251 368.712 444.231 358.121C444.23 357.457 444.407 357.26 445.078 357.27C447.623 357.308 450.17 357.321 452.714 357.263C453.479 357.246 453.765 357.538 454.001 358.202C456.127 364.202 458.563 370.095 460.19 376.266C460.239 376.455 460.336 376.63 460.444 376.89C460.893 376.299 460.958 375.644 461.125 375.045C462.742 369.231 464.947 363.615 466.883 357.908C467.056 357.398 467.333 357.269 467.846 357.274C470.46 357.299 473.074 357.308 475.687 357.27C476.35 357.26 476.462 357.502 476.461 358.092C476.446 368.683 476.447 379.274 476.46 389.864C476.461 390.437 476.383 390.711 475.702 390.696C473.564 390.651 471.425 390.652 469.287 390.695C468.613 390.709 468.52 390.443 468.517 389.862C468.491 383.516 468.413 377.168 469.451 370.874C469.517 370.475 469.505 370.063 469.517 369.656C469.52 369.574 469.47 369.49 469.377 369.192C469.042 370.194 468.767 371.009 468.497 371.826C466.783 377.006 464.781 382.08 462.936 387.212C462.713 387.83 462.394 388.04 461.75 388.008C460.7 387.955 459.645 387.968 458.594 388.005C458.106 388.022 457.868 387.845 457.705 387.397C455.602 381.604 453.289 375.885 451.563 369.958C451.493 369.717 451.48 369.416 450.943 369.243Z" fill="#27799F"/>
<path d="M381.494 373.986C381.494 379.212 381.481 384.438 381.51 389.664C381.514 390.41 381.398 390.728 380.537 390.703C378.232 390.635 375.922 390.652 373.616 390.696C372.914 390.709 372.697 390.536 372.704 389.806C372.742 386.04 372.702 382.273 372.738 378.506C372.745 377.74 372.592 377.447 371.745 377.466C369.099 377.525 366.451 377.526 363.805 377.465C362.917 377.445 362.759 377.755 362.768 378.563C362.809 382.295 362.761 386.029 362.807 389.761C362.817 390.55 362.576 390.712 361.838 390.697C359.498 390.65 357.155 390.661 354.814 390.692C354.218 390.7 353.999 390.578 354 389.919C354.022 379.297 354.022 368.675 354.001 358.053C353.999 357.4 354.211 357.265 354.814 357.273C357.155 357.305 359.497 357.317 361.838 357.268C362.583 357.253 362.816 357.429 362.806 358.211C362.76 361.672 362.811 365.134 362.768 368.595C362.758 369.404 362.918 369.71 363.805 369.69C366.45 369.629 369.099 369.63 371.745 369.69C372.591 369.709 372.746 369.418 372.738 368.652C372.701 365.157 372.742 361.661 372.705 358.166C372.697 357.443 372.909 357.256 373.615 357.27C375.922 357.314 378.232 357.331 380.537 357.263C381.403 357.238 381.513 357.565 381.509 358.308C381.481 363.534 381.494 368.76 381.494 373.986Z" fill="#27799F"/>
<path d="M388.641 374.029C388.641 368.768 388.655 363.507 388.625 358.246C388.621 357.523 388.748 357.261 389.553 357.266C396.069 357.302 402.587 357.298 409.104 357.27C409.832 357.267 410.112 357.406 410.085 358.205C410.021 360.07 410.034 361.939 410.08 363.805C410.097 364.493 409.859 364.648 409.214 364.643C405.617 364.615 402.018 364.651 398.421 364.612C397.646 364.604 397.374 364.767 397.393 365.608C397.433 367.413 397.445 367.06 397.396 368.864C397.375 369.649 397.564 369.908 398.395 369.893C401.347 369.839 404.301 369.905 407.253 369.851C408.087 369.835 408.265 370.108 408.244 370.88C408.192 372.779 408.199 374.682 408.242 376.582C408.258 377.255 408.051 377.443 407.386 377.436C404.399 377.403 401.411 377.444 398.425 377.405C397.667 377.395 397.376 377.537 397.391 378.389C397.415 379.764 397.373 381.129 397.395 382.46C397.408 383.195 397.615 383.359 398.312 383.353C402.079 383.321 405.847 383.36 409.614 383.32C410.401 383.311 410.661 383.5 410.632 384.321C410.567 386.151 410.589 387.986 410.624 389.818C410.636 390.446 410.509 390.699 409.802 390.696C403.013 390.669 396.224 390.667 389.436 390.697C388.71 390.7 388.628 390.421 388.63 389.813C388.649 384.552 388.641 379.29 388.641 374.029Z" fill="#27799F"/>
<path d="M417.157 373.955C417.157 368.728 417.174 363.501 417.138 358.274C417.132 357.478 417.333 357.245 418.141 357.265C420.414 357.323 422.69 357.328 424.962 357.263C425.81 357.239 425.945 357.539 425.943 358.296C425.918 366.272 425.941 374.249 425.908 382.225C425.905 383.08 426.053 383.381 427 383.364C430.529 383.297 434.06 383.363 437.589 383.317C438.375 383.307 438.553 383.546 438.532 384.29C438.479 386.155 438.489 388.023 438.529 389.889C438.542 390.514 438.366 390.694 437.734 390.692C431.15 390.67 424.565 390.668 417.98 390.694C417.302 390.697 417.139 390.494 417.142 389.84C417.168 384.545 417.157 379.25 417.157 373.955Z" fill="#27799F"/>
<path d="M1025.53 109.792C1026 109.289 1026.45 108.782 1026.9 108.27C1027.38 107.759 1027.84 107.241 1028.3 106.718C1028.72 106.224 1029.14 105.727 1029.55 105.227C1029.9 104.826 1030.25 104.42 1030.59 104.01H1035.97C1034.93 105.209 1033.88 106.396 1032.81 107.571C1031.72 108.758 1030.61 109.915 1029.46 111.04C1030.07 111.587 1030.7 112.247 1031.35 113.018C1032 113.777 1032.63 114.559 1033.23 115.362C1033.83 116.149 1034.38 116.961 1034.91 117.796C1035.41 118.608 1035.84 119.348 1036.19 120.018H1030.98C1030.62 119.431 1030.24 118.853 1029.86 118.283C1029.45 117.627 1029.01 116.987 1028.55 116.366C1028.08 115.721 1027.59 115.101 1027.06 114.51C1026.55 113.921 1026.04 113.424 1025.53 113.019V120.018H1021V97.1328L1025.53 96.4025V109.792M1051.96 119.47C1051.19 119.693 1050.2 119.896 1048.98 120.078C1047.76 120.281 1046.48 120.383 1045.14 120.383C1043.79 120.383 1042.65 120.2 1041.74 119.835C1040.84 119.47 1040.13 118.962 1039.61 118.313C1039.08 117.644 1038.7 116.852 1038.48 115.939C1038.26 115.027 1038.14 114.022 1038.14 112.926V104.01H1042.68V112.379C1042.68 113.84 1042.87 114.895 1043.26 115.544C1043.64 116.193 1044.36 116.518 1045.42 116.518C1045.74 116.518 1046.09 116.507 1046.45 116.487C1046.82 116.447 1047.14 116.406 1047.43 116.366V104.009H1051.96L1051.96 119.47ZM1066.5 111.892C1066.5 108.971 1065.43 107.51 1063.28 107.51C1062.81 107.51 1062.34 107.571 1061.88 107.692C1061.43 107.814 1061.07 107.966 1060.78 108.149V116.396C1061.01 116.436 1061.29 116.477 1061.63 116.518C1061.98 116.538 1062.35 116.548 1062.76 116.548C1064 116.548 1064.93 116.122 1065.56 115.27C1066.19 114.418 1066.5 113.292 1066.5 111.892ZM1071.13 112.014C1071.13 113.292 1070.94 114.448 1070.55 115.483C1070.19 116.518 1069.65 117.4 1068.94 118.13C1068.23 118.861 1067.36 119.429 1066.32 119.835C1065.29 120.22 1064.11 120.413 1062.79 120.413C1062.24 120.413 1061.66 120.382 1061.06 120.321C1060.47 120.28 1059.88 120.22 1059.29 120.139C1058.74 120.061 1058.19 119.969 1057.65 119.865C1057.18 119.758 1056.71 119.636 1056.25 119.499V97.132L1060.78 96.4014V104.375C1061.29 104.151 1061.82 103.978 1062.36 103.857C1062.91 103.736 1063.5 103.675 1064.13 103.675C1065.27 103.675 1066.27 103.878 1067.14 104.284C1068.01 104.669 1068.74 105.227 1069.33 105.957C1069.92 106.687 1070.37 107.57 1070.67 108.605C1070.98 109.62 1071.13 110.756 1071.13 112.014ZM1073.85 112.136C1073.85 110.715 1074.07 109.478 1074.49 108.423C1074.94 107.348 1075.52 106.455 1076.23 105.745C1076.94 105.035 1077.75 104.497 1078.66 104.132C1079.59 103.767 1080.55 103.584 1081.52 103.584C1083.79 103.584 1085.59 104.284 1086.91 105.684C1088.23 107.064 1088.89 109.102 1088.89 111.801C1088.89 112.065 1088.88 112.359 1088.86 112.683C1088.84 112.987 1088.82 113.261 1088.8 113.505H1078.51C1078.61 114.438 1079.05 115.179 1079.82 115.727C1080.59 116.274 1081.62 116.549 1082.92 116.549C1083.75 116.549 1084.57 116.478 1085.36 116.335C1086.17 116.173 1086.83 115.981 1087.33 115.757L1087.94 119.44C1087.7 119.561 1087.38 119.683 1086.97 119.805C1086.52 119.936 1086.06 120.038 1085.6 120.109C1085.08 120.216 1084.55 120.297 1084.02 120.352C1083.45 120.413 1082.88 120.444 1082.31 120.444C1080.87 120.444 1079.61 120.231 1078.54 119.805C1077.48 119.379 1076.6 118.8 1075.89 118.07C1075.2 117.32 1074.69 116.437 1074.34 115.423C1074.02 114.408 1073.85 113.312 1073.85 112.136ZM1084.5 110.401C1084.48 110.017 1084.41 109.639 1084.29 109.275C1084.19 108.916 1084.02 108.583 1083.77 108.301C1083.55 108.017 1083.26 107.784 1082.89 107.601C1082.55 107.418 1082.11 107.327 1081.58 107.327C1081.08 107.327 1080.64 107.419 1080.27 107.601C1079.91 107.763 1079.6 107.987 1079.36 108.271C1079.12 108.555 1078.93 108.89 1078.78 109.275C1078.66 109.642 1078.57 110.019 1078.51 110.401L1084.5 110.401ZM1102.03 108.028C1101.56 107.912 1101.08 107.81 1100.6 107.723C1100.06 107.602 1099.47 107.54 1098.84 107.54C1098.55 107.54 1098.21 107.571 1097.8 107.632C1097.42 107.673 1097.12 107.723 1096.92 107.784V120.018H1092.39V104.862C1093.2 104.579 1094.15 104.315 1095.25 104.071C1096.36 103.807 1097.6 103.676 1098.96 103.676C1099.2 103.676 1099.5 103.696 1099.84 103.737C1100.19 103.757 1100.53 103.798 1100.88 103.858C1101.22 103.899 1101.57 103.96 1101.91 104.041C1102.26 104.102 1102.55 104.183 1102.79 104.284L1102.03 108.028ZM1105.22 104.558C1106 104.335 1106.99 104.131 1108.21 103.949C1109.42 103.746 1110.7 103.645 1112.04 103.645C1113.4 103.645 1114.53 103.827 1115.42 104.192C1116.33 104.538 1117.05 105.034 1117.58 105.684C1118.11 106.333 1118.48 107.104 1118.71 107.996C1118.93 108.889 1119.04 109.883 1119.04 110.979V120.017H1114.51V111.527C1114.51 110.066 1114.31 109.031 1113.93 108.422C1113.54 107.814 1112.82 107.51 1111.77 107.51C1111.44 107.51 1111.1 107.53 1110.73 107.571C1110.41 107.587 1110.08 107.618 1109.76 107.662V120.018H1105.22L1105.22 104.558ZM1122.41 112.136C1122.41 110.715 1122.63 109.478 1123.05 108.423C1123.5 107.348 1124.08 106.455 1124.79 105.745C1125.5 105.035 1126.31 104.497 1127.22 104.132C1128.16 103.767 1129.11 103.584 1130.08 103.584C1132.36 103.584 1134.15 104.284 1135.47 105.684C1136.79 107.064 1137.45 109.102 1137.45 111.801C1137.45 112.065 1137.44 112.359 1137.42 112.683C1137.4 112.987 1137.38 113.261 1137.36 113.505H1127.07C1127.17 114.438 1127.61 115.179 1128.38 115.727C1129.15 116.274 1130.19 116.549 1131.48 116.549C1132.32 116.549 1133.13 116.478 1133.92 116.335C1134.73 116.173 1135.39 115.981 1135.9 115.757L1136.51 119.44C1136.26 119.561 1135.94 119.683 1135.53 119.805C1135.08 119.936 1134.62 120.038 1134.16 120.109C1133.64 120.216 1133.11 120.297 1132.58 120.352C1132.01 120.413 1131.44 120.444 1130.87 120.444C1129.43 120.444 1128.18 120.231 1127.1 119.805C1126.05 119.379 1125.16 118.8 1124.45 118.07C1123.76 117.32 1123.25 116.437 1122.9 115.423C1122.58 114.408 1122.41 113.312 1122.41 112.136M1133.07 110.401C1133.05 110.017 1132.97 109.639 1132.85 109.275C1132.75 108.916 1132.58 108.583 1132.34 108.301C1132.11 108.017 1131.82 107.784 1131.45 107.601C1131.11 107.418 1130.67 107.327 1130.15 107.327C1129.64 107.327 1129.2 107.419 1128.84 107.601C1128.47 107.763 1128.17 107.987 1127.92 108.271C1127.68 108.555 1127.49 108.89 1127.35 109.275C1127.22 109.642 1127.13 110.019 1127.07 110.401L1133.07 110.401ZM1140.8 100.023L1145.33 99.2928V104.01H1150.78V107.784H1145.33V113.414C1145.33 114.367 1145.49 115.128 1145.82 115.696C1146.16 116.264 1146.84 116.548 1147.86 116.548C1148.34 116.548 1148.84 116.508 1149.35 116.427C1149.87 116.325 1150.35 116.193 1150.78 116.031L1151.42 119.561C1150.87 119.784 1150.26 119.977 1149.59 120.139C1148.92 120.302 1148.1 120.383 1147.13 120.383C1145.89 120.383 1144.86 120.221 1144.05 119.896C1143.24 119.551 1142.59 119.084 1142.1 118.496C1141.62 117.887 1141.27 117.157 1141.07 116.305C1140.89 115.452 1140.8 114.509 1140.8 113.474V100.023ZM1153.09 112.136C1153.09 110.715 1153.3 109.478 1153.72 108.423C1154.17 107.348 1154.75 106.455 1155.46 105.745C1156.17 105.035 1156.98 104.497 1157.89 104.132C1158.83 103.767 1159.78 103.584 1160.75 103.584C1163.03 103.584 1164.82 104.284 1166.14 105.684C1167.46 107.064 1168.12 109.102 1168.12 111.801C1168.12 112.065 1168.11 112.359 1168.09 112.683C1168.07 112.987 1168.05 113.261 1168.03 113.505H1157.74C1157.84 114.438 1158.28 115.179 1159.05 115.727C1159.82 116.274 1160.86 116.549 1162.15 116.549C1162.99 116.549 1163.8 116.478 1164.59 116.335C1165.4 116.173 1166.06 115.981 1166.57 115.757L1167.18 119.44C1166.93 119.561 1166.61 119.683 1166.2 119.805C1165.75 119.936 1165.29 120.038 1164.83 120.109C1164.31 120.216 1163.78 120.297 1163.25 120.352C1162.68 120.413 1162.11 120.444 1161.55 120.444C1160.11 120.444 1158.85 120.231 1157.77 119.805C1156.72 119.379 1155.83 118.8 1155.12 118.07C1154.43 117.32 1153.92 116.437 1153.57 115.423C1153.25 114.408 1153.09 113.312 1153.09 112.136ZM1163.74 110.401C1163.72 110.017 1163.65 109.639 1163.52 109.275C1163.43 108.916 1163.25 108.583 1163.01 108.301C1162.78 108.017 1162.49 107.784 1162.12 107.601C1161.78 107.418 1161.34 107.327 1160.82 107.327C1160.31 107.327 1159.87 107.419 1159.51 107.601C1159.14 107.763 1158.84 107.987 1158.59 108.271C1158.35 108.555 1158.16 108.89 1158.02 109.275C1157.89 109.642 1157.8 110.019 1157.74 110.401L1163.74 110.401ZM1176.21 116.761C1177.05 116.761 1177.63 116.68 1177.98 116.518C1178.32 116.355 1178.5 116.041 1178.5 115.574C1178.5 115.209 1178.27 114.895 1177.83 114.631C1177.38 114.347 1176.7 114.033 1175.79 113.688C1175.13 113.444 1174.48 113.17 1173.84 112.866C1173.27 112.582 1172.78 112.247 1172.38 111.862C1171.97 111.453 1171.65 110.967 1171.44 110.431C1171.21 109.884 1171.1 109.224 1171.1 108.453C1171.1 106.952 1171.66 105.765 1172.77 104.892C1173.89 104.02 1175.42 103.584 1177.37 103.584C1178.34 103.584 1179.28 103.676 1180.17 103.858C1181.06 104.02 1181.77 104.203 1182.3 104.405L1181.51 107.936C1180.94 107.741 1180.36 107.579 1179.77 107.449C1179.17 107.306 1178.48 107.236 1177.7 107.236C1176.28 107.236 1175.57 107.631 1175.57 108.422C1175.57 108.605 1175.6 108.768 1175.67 108.91C1175.73 109.052 1175.85 109.193 1176.03 109.336C1176.21 109.457 1176.46 109.599 1176.76 109.762C1177.09 109.904 1177.49 110.066 1177.98 110.249C1178.97 110.614 1179.79 110.979 1180.44 111.344C1181.09 111.69 1181.6 112.075 1181.97 112.501C1182.35 112.907 1182.61 113.363 1182.76 113.87C1182.92 114.377 1183 114.966 1183 115.635C1183 117.218 1182.4 118.415 1181.2 119.226C1180.03 120.038 1178.35 120.444 1176.18 120.444C1174.76 120.444 1173.58 120.323 1172.62 120.079C1171.69 119.835 1171.04 119.632 1170.67 119.47L1171.44 115.788C1172.21 116.092 1173 116.336 1173.81 116.518C1174.62 116.68 1175.42 116.761 1176.21 116.761Z" fill="black"/>
<path d="M1102 4.00586L1136.52 20.4895L1145.05 57.5364L1121.16 87.2482L1082.85 87.2518L1058.96 57.5452L1067.48 20.4972L1102 4.00586Z" fill="white"/>
<path d="M1101.68 0.00777173C1100.84 0.0495806 1100.03 0.255717 1099.28 0.614262L1066.58 16.2372C1064.9 17.042 1063.62 18.6352 1063.2 20.4436L1055.13 55.5374C1054.76 57.1493 1055.07 58.9052 1055.98 60.2923C1056.09 60.4621 1056.21 60.627 1056.34 60.7857L1078.97 88.9256C1080.14 90.3755 1081.99 91.2597 1083.86 91.259L1120.15 91.2505C1122.02 91.252 1123.87 90.3696 1125.04 88.9212L1147.66 60.7776C1148.83 59.327 1149.29 57.3396 1148.87 55.5293L1140.79 20.4359C1140.38 18.6268 1139.09 17.0339 1137.41 16.2287L1104.71 0.614262C1103.76 0.164296 1102.72 -0.0440981 1101.68 0.00777173Z" fill="#326CE5"/>
<path d="M1101.94 56.5784C1102.21 56.5691 1102.49 56.6281 1102.74 56.7504C1103.07 56.9068 1103.34 57.1646 1103.52 57.4862H1103.55L1108.53 66.4854C1107.88 66.7037 1107.22 66.8893 1106.54 67.0416C1102.74 67.9067 1098.94 67.6448 1095.5 66.4733L1100.47 57.4902H1100.48C1100.62 57.224 1100.83 56.9998 1101.08 56.8398C1101.34 56.6798 1101.63 56.5897 1101.94 56.5784ZM1093.4 52.4344C1093.79 52.4404 1094.16 52.5759 1094.46 52.8192C1094.76 53.0625 1094.97 53.3996 1095.06 53.7763C1095.14 54.1316 1095.11 54.5039 1094.96 54.8387L1094.99 54.8762L1091.08 64.3357C1087.42 61.9873 1084.5 58.4714 1082.94 54.1576L1093.05 52.4432L1093.06 52.4642C1093.17 52.4429 1093.29 52.4329 1093.4 52.4344ZM1110.52 52.3925C1110.65 52.3852 1110.78 52.3977 1110.91 52.4219L1110.93 52.401L1121.12 54.1235C1119.63 58.3138 1116.78 61.9443 1112.96 64.3735L1109.01 54.8181L1109.02 54.8012C1108.84 54.3924 1108.83 53.9315 1108.99 53.5147C1109.14 53.0979 1109.46 52.7574 1109.86 52.5641C1110.06 52.4631 1110.29 52.4047 1110.52 52.3925ZM1100.42 44.0207H1103.57L1105.53 46.4672L1104.83 49.5199L1102 50.8791L1099.16 49.5162L1098.46 46.4635L1100.42 44.0207ZM1119.24 36.6186C1120.42 38.5201 1121.27 40.601 1121.77 42.7783C1122.26 44.9279 1122.41 47.144 1122.19 49.3399L1112.29 46.4878L1112.28 46.4459C1111.85 46.328 1111.49 46.0491 1111.26 45.6673C1111.03 45.2856 1110.96 44.8304 1111.06 44.3969C1111.14 44.0409 1111.33 43.7199 1111.6 43.4807L1111.6 43.4597L1119.24 36.6186ZM1084.7 36.615L1092.38 43.4895L1092.38 43.5314C1092.71 43.8228 1092.92 44.2326 1092.96 44.6753C1093 45.1179 1092.87 45.5591 1092.59 45.9066C1092.37 46.193 1092.05 46.3996 1091.7 46.4966L1091.69 46.53L1081.84 49.3737C1081.35 44.921 1082.35 40.4317 1084.7 36.615ZM1104.45 27.1301C1108.91 27.6782 1113.02 29.6942 1116.18 32.7839L1107.82 38.7136L1107.79 38.7011C1107.43 38.9633 1106.98 39.0766 1106.54 39.0174C1106.1 38.9583 1105.7 38.7313 1105.42 38.3837C1105.19 38.0993 1105.06 37.7488 1105.04 37.3838L1105.03 37.3802L1104.45 27.1301ZM1099.55 27.1301L1098.97 37.3963L1098.92 37.4173C1098.91 37.8615 1098.72 38.2814 1098.4 38.5892C1098.07 38.897 1097.65 39.069 1097.2 39.0692C1096.84 39.0702 1096.48 38.9547 1096.19 38.7393L1096.17 38.7478L1087.75 32.7799C1090.34 30.2356 1093.65 28.3555 1097.46 27.4897C1098.16 27.3317 1098.85 27.2142 1099.55 27.1301ZM1102 11.9502C1100.92 11.9509 1100.04 12.9244 1100.04 14.1249C1100.04 14.1436 1100.05 14.1613 1100.05 14.1796C1100.04 14.3424 1100.04 14.5389 1100.04 14.6814C1100.07 15.3739 1100.22 15.904 1100.31 16.5424C1100.47 17.9078 1100.61 19.0404 1100.53 20.0924C1100.44 20.4895 1100.15 20.8525 1099.89 21.1045L1099.84 21.9325C1098.65 22.0307 1097.47 22.2124 1096.31 22.4762C1091.41 23.5823 1086.96 26.1265 1083.52 29.782C1083.28 29.6178 1083.05 29.4505 1082.81 29.2802C1082.46 29.3272 1082.11 29.4352 1081.65 29.167C1080.77 28.5778 1079.98 27.7637 1079.01 26.7833C1078.57 26.3149 1078.25 25.8679 1077.72 25.4157C1077.6 25.3128 1077.42 25.1743 1077.29 25.0685C1076.88 24.7412 1076.39 24.5708 1075.92 24.5542C1075.32 24.5333 1074.74 24.7688 1074.36 25.2441C1073.69 26.089 1073.91 27.381 1074.85 28.1296C1074.86 28.1373 1074.87 28.1432 1074.87 28.1506C1075 28.2553 1075.16 28.389 1075.28 28.4764C1075.84 28.8882 1076.35 29.0991 1076.9 29.426C1078.07 30.1489 1079.04 30.7484 1079.81 31.4714C1080.11 31.7917 1080.17 32.356 1080.21 32.6006L1080.83 33.1604C1077.48 38.214 1075.92 44.456 1076.84 50.8162L1076.02 51.0546C1075.8 51.3338 1075.5 51.7728 1075.18 51.9032C1074.17 52.2202 1073.04 52.3371 1071.67 52.4803C1071.03 52.534 1070.47 52.502 1069.79 52.6313C1069.64 52.6592 1069.43 52.7136 1069.27 52.7522L1069.25 52.7569C1069.25 52.7588 1069.23 52.7628 1069.23 52.7646C1068.07 53.0438 1067.33 54.104 1067.57 55.1484C1067.81 56.1938 1068.93 56.829 1070.1 56.5784C1070.1 56.5766 1070.12 56.5766 1070.12 56.5748C1070.14 56.5715 1070.15 56.5656 1070.16 56.5623C1070.32 56.5263 1070.53 56.4873 1070.67 56.4491C1071.34 56.2695 1071.82 56.0061 1072.42 55.7754C1073.72 55.3115 1074.79 54.9232 1075.84 54.7718C1076.27 54.738 1076.73 55.0415 1076.96 55.1689L1077.81 55.0227C1079.78 61.1089 1083.89 66.0288 1089.1 69.1153L1088.75 69.9686C1088.87 70.3 1089.02 70.7481 1088.92 71.0754C1088.54 72.0603 1087.89 73.0999 1087.15 74.2589C1086.79 74.7944 1086.42 75.2103 1086.1 75.823C1086.02 75.9692 1085.92 76.1948 1085.85 76.3498C1085.35 77.4265 1085.71 78.6659 1086.68 79.1306C1087.65 79.599 1088.86 79.1049 1089.38 78.0271C1089.38 78.0253 1089.39 78.0245 1089.39 78.0227C1089.39 78.0219 1089.38 78.0201 1089.39 78.0186C1089.46 77.8658 1089.57 77.6645 1089.63 77.5209C1089.91 76.8857 1090 76.3413 1090.19 75.7271C1090.71 74.4264 1090.99 73.0613 1091.71 72.2113C1091.9 71.9787 1092.22 71.8887 1092.55 71.8002L1092.99 70.9972C1097.54 72.7406 1102.62 73.2082 1107.7 72.0555C1108.84 71.7955 1109.96 71.4574 1111.06 71.0435C1111.18 71.2642 1111.41 71.6889 1111.47 71.7962C1111.81 71.9053 1112.17 71.9615 1112.47 72.4026C1113.01 73.3133 1113.37 74.3918 1113.82 75.6941C1114.01 76.3083 1114.11 76.8527 1114.38 77.4875C1114.45 77.6326 1114.55 77.8364 1114.63 77.9893C1115.15 79.0715 1116.36 79.5667 1117.33 79.0975C1118.3 78.6325 1118.67 77.3931 1118.16 76.3167C1118.09 76.1621 1117.99 75.9365 1117.91 75.7903C1117.59 75.1776 1117.22 74.7658 1116.86 74.2306C1116.12 73.0712 1115.5 72.108 1115.12 71.1228C1114.97 70.6151 1115.15 70.2989 1115.28 69.969C1115.2 69.8841 1115.04 69.4044 1114.95 69.1784C1120.36 65.9818 1124.36 60.8786 1126.23 54.9856C1126.48 55.0253 1126.93 55.1032 1127.07 55.1318C1127.36 54.9379 1127.63 54.684 1128.16 54.7259C1129.21 54.8769 1130.28 55.2652 1131.58 55.7295C1132.18 55.9602 1132.66 56.228 1133.33 56.4073C1133.47 56.4451 1133.68 56.4804 1133.84 56.5156C1133.85 56.5189 1133.86 56.5255 1133.88 56.5281C1133.89 56.53 1133.9 56.5307 1133.91 56.5325C1135.07 56.782 1136.19 56.1468 1136.43 55.1021C1136.67 54.0573 1135.93 52.9968 1134.78 52.7184C1134.61 52.6805 1134.37 52.6151 1134.21 52.5843C1133.53 52.4557 1132.97 52.4877 1132.33 52.434C1130.96 52.2904 1129.83 52.174 1128.82 51.8569C1128.41 51.6975 1128.12 51.2089 1127.98 51.0076L1127.19 50.7777C1127.61 47.7323 1127.47 44.6357 1126.78 41.6403C1126.08 38.6141 1124.84 35.741 1123.11 33.1641C1123.31 32.9797 1123.69 32.6406 1123.8 32.5407C1123.83 32.1899 1123.81 31.8215 1124.17 31.4324C1124.94 30.7099 1125.91 30.1107 1127.08 29.3874C1127.64 29.0609 1128.15 28.8504 1128.71 28.4386C1128.83 28.3449 1129.01 28.1972 1129.14 28.0911C1130.08 27.342 1130.29 26.0512 1129.62 25.2055C1128.95 24.3606 1127.64 24.2809 1126.7 25.0303C1126.57 25.1361 1126.39 25.2739 1126.27 25.3771C1125.74 25.8293 1125.42 26.2756 1124.97 26.7447C1124.01 27.7248 1123.21 28.5429 1122.34 29.1321C1121.96 29.3533 1121.4 29.2765 1121.15 29.2614L1120.4 29.7926C1116.16 25.3418 1110.38 22.496 1104.16 21.9435C1104.14 21.6827 1104.12 21.2117 1104.11 21.07C1103.86 20.8264 1103.55 20.6178 1103.47 20.091C1103.39 19.0389 1103.53 17.9067 1103.69 16.5409C1103.78 15.9025 1103.93 15.3724 1103.96 14.68C1103.97 14.5224 1103.96 14.2939 1103.96 14.1234C1103.96 12.9244 1103.08 11.9502 1102 11.9502Z" fill="white"/>
<line x1="683" y1="135.5" x2="1198" y2="135.5" stroke="black" stroke-opacity="0.25"/>
<line x1="683" y1="295.5" x2="1198" y2="295.5" stroke="black" stroke-opacity="0.25"/>
<path d="M708.104 103V53.272L696.872 60.28L691.112 50.296L710.888 37.048H722.216V103H708.104ZM739.466 103L765.674 49.816H733.034V37.048H782.09V47.704L755.402 103H739.466ZM806.79 70.168C796.902 70.168 790.374 62.776 790.374 53.368C790.374 43.864 796.902 36.376 806.79 36.376C816.774 36.376 823.302 43.96 823.302 53.272C823.302 62.776 816.486 70.168 806.79 70.168ZM799.014 103L844.806 37.048H855.942L810.054 103H799.014ZM806.79 61.912C810.822 61.912 813.798 58.552 813.798 53.272C813.798 48.184 810.822 44.728 806.79 44.728C802.662 44.728 799.782 48.088 799.782 53.272C799.782 58.456 802.854 61.912 806.79 61.912ZM847.974 104.056C838.182 104.056 831.462 96.568 831.462 87.16C831.462 77.752 838.182 70.264 847.974 70.264C857.958 70.264 864.39 77.848 864.39 87.16C864.39 96.664 857.67 104.056 847.974 104.056ZM847.974 95.704C852.102 95.704 854.982 92.344 854.982 87.16C854.982 81.976 851.91 78.52 847.974 78.52C843.846 78.52 840.966 81.88 840.966 87.16C840.966 92.248 843.942 95.704 847.974 95.704Z" fill="#9E008E"/>
<path d="M3.936 244V232.48L28.224 213.664C36.096 207.424 38.592 203.104 38.592 198.496C38.592 193.024 33.984 189.76 28.608 189.76C22.176 189.76 17.28 193.024 12.48 198.496L3.456 189.76C9.984 181.504 18.336 176.896 28.992 176.896C43.008 176.896 53.184 185.536 53.184 197.92C53.184 206.752 49.344 213.568 37.824 221.92L25.824 231.232H53.76V244H3.936ZM95.0715 244V230.56H62.8155L61.4715 219.616L92.0955 178.144H109.184V218.656H117.92V230.56H109.184V244H95.0715ZM76.3515 218.656H95.0715V193.12L76.3515 218.656ZM142.727 211.168C132.839 211.168 126.311 203.776 126.311 194.368C126.311 184.864 132.839 177.376 142.727 177.376C152.711 177.376 159.239 184.96 159.239 194.272C159.239 203.776 152.423 211.168 142.727 211.168ZM134.951 244L180.743 178.048H191.879L145.991 244H134.951ZM142.727 202.912C146.759 202.912 149.735 199.552 149.735 194.272C149.735 189.184 146.759 185.728 142.727 185.728C138.599 185.728 135.719 189.088 135.719 194.272C135.719 199.456 138.791 202.912 142.727 202.912ZM183.911 245.056C174.119 245.056 167.399 237.568 167.399 228.16C167.399 218.752 174.119 211.264 183.911 211.264C193.895 211.264 200.327 218.848 200.327 228.16C200.327 237.664 193.607 245.056 183.911 245.056ZM183.911 236.704C188.039 236.704 190.919 233.344 190.919 228.16C190.919 222.976 187.847 219.52 183.911 219.52C179.783 219.52 176.903 222.88 176.903 228.16C176.903 233.248 179.879 236.704 183.911 236.704Z" fill="#9E008E"/>
<path d="M1025.53 109.792C1026 109.289 1026.45 108.782 1026.9 108.27C1027.38 107.759 1027.84 107.241 1028.3 106.718C1028.72 106.224 1029.14 105.727 1029.55 105.227C1029.9 104.826 1030.25 104.42 1030.59 104.01H1035.97C1034.93 105.209 1033.88 106.396 1032.81 107.571C1031.72 108.758 1030.61 109.915 1029.46 111.04C1030.07 111.587 1030.7 112.247 1031.35 113.018C1032 113.777 1032.63 114.559 1033.23 115.362C1033.83 116.149 1034.38 116.961 1034.91 117.796C1035.41 118.608 1035.84 119.348 1036.19 120.018H1030.98C1030.62 119.431 1030.24 118.853 1029.86 118.283C1029.45 117.627 1029.01 116.987 1028.55 116.366C1028.08 115.721 1027.59 115.101 1027.06 114.51C1026.55 113.921 1026.04 113.424 1025.53 113.019V120.018H1021V97.1328L1025.53 96.4025V109.792M1051.96 119.47C1051.19 119.693 1050.2 119.896 1048.98 120.078C1047.76 120.281 1046.48 120.383 1045.14 120.383C1043.79 120.383 1042.65 120.2 1041.74 119.835C1040.84 119.47 1040.13 118.962 1039.61 118.313C1039.08 117.644 1038.7 116.852 1038.48 115.939C1038.26 115.027 1038.14 114.022 1038.14 112.926V104.01H1042.68V112.379C1042.68 113.84 1042.87 114.895 1043.26 115.544C1043.64 116.193 1044.36 116.518 1045.42 116.518C1045.74 116.518 1046.09 116.507 1046.45 116.487C1046.82 116.447 1047.14 116.406 1047.43 116.366V104.009H1051.96L1051.96 119.47ZM1066.5 111.892C1066.5 108.971 1065.43 107.51 1063.28 107.51C1062.81 107.51 1062.34 107.571 1061.88 107.692C1061.43 107.814 1061.07 107.966 1060.78 108.149V116.396C1061.01 116.436 1061.29 116.477 1061.63 116.518C1061.98 116.538 1062.35 116.548 1062.76 116.548C1064 116.548 1064.93 116.122 1065.56 115.27C1066.19 114.418 1066.5 113.292 1066.5 111.892ZM1071.13 112.014C1071.13 113.292 1070.94 114.448 1070.55 115.483C1070.19 116.518 1069.65 117.4 1068.94 118.13C1068.23 118.861 1067.36 119.429 1066.32 119.835C1065.29 120.22 1064.11 120.413 1062.79 120.413C1062.24 120.413 1061.66 120.382 1061.06 120.321C1060.47 120.28 1059.88 120.22 1059.29 120.139C1058.74 120.061 1058.19 119.969 1057.65 119.865C1057.18 119.758 1056.71 119.636 1056.25 119.499V97.132L1060.78 96.4014V104.375C1061.29 104.151 1061.82 103.978 1062.36 103.857C1062.91 103.736 1063.5 103.675 1064.13 103.675C1065.27 103.675 1066.27 103.878 1067.14 104.284C1068.01 104.669 1068.74 105.227 1069.33 105.957C1069.92 106.687 1070.37 107.57 1070.67 108.605C1070.98 109.62 1071.13 110.756 1071.13 112.014ZM1073.85 112.136C1073.85 110.715 1074.07 109.478 1074.49 108.423C1074.94 107.348 1075.52 106.455 1076.23 105.745C1076.94 105.035 1077.75 104.497 1078.66 104.132C1079.59 103.767 1080.55 103.584 1081.52 103.584C1083.79 103.584 1085.59 104.284 1086.91 105.684C1088.23 107.064 1088.89 109.102 1088.89 111.801C1088.89 112.065 1088.88 112.359 1088.86 112.683C1088.84 112.987 1088.82 113.261 1088.8 113.505H1078.51C1078.61 114.438 1079.05 115.179 1079.82 115.727C1080.59 116.274 1081.62 116.549 1082.92 116.549C1083.75 116.549 1084.57 116.478 1085.36 116.335C1086.17 116.173 1086.83 115.981 1087.33 115.757L1087.94 119.44C1087.7 119.561 1087.38 119.683 1086.97 119.805C1086.52 119.936 1086.06 120.038 1085.6 120.109C1085.08 120.216 1084.55 120.297 1084.02 120.352C1083.45 120.413 1082.88 120.444 1082.31 120.444C1080.87 120.444 1079.61 120.231 1078.54 119.805C1077.48 119.379 1076.6 118.8 1075.89 118.07C1075.2 117.32 1074.69 116.437 1074.34 115.423C1074.02 114.408 1073.85 113.312 1073.85 112.136ZM1084.5 110.401C1084.48 110.017 1084.41 109.639 1084.29 109.275C1084.19 108.916 1084.02 108.583 1083.77 108.301C1083.55 108.017 1083.26 107.784 1082.89 107.601C1082.55 107.418 1082.11 107.327 1081.58 107.327C1081.08 107.327 1080.64 107.419 1080.27 107.601C1079.91 107.763 1079.6 107.987 1079.36 108.271C1079.12 108.555 1078.93 108.89 1078.78 109.275C1078.66 109.642 1078.57 110.019 1078.51 110.401L1084.5 110.401ZM1102.03 108.028C1101.56 107.912 1101.08 107.81 1100.6 107.723C1100.06 107.602 1099.47 107.54 1098.84 107.54C1098.55 107.54 1098.21 107.571 1097.8 107.632C1097.42 107.673 1097.12 107.723 1096.92 107.784V120.018H1092.39V104.862C1093.2 104.579 1094.15 104.315 1095.25 104.071C1096.36 103.807 1097.6 103.676 1098.96 103.676C1099.2 103.676 1099.5 103.696 1099.84 103.737C1100.19 103.757 1100.53 103.798 1100.88 103.858C1101.22 103.899 1101.57 103.96 1101.91 104.041C1102.26 104.102 1102.55 104.183 1102.79 104.284L1102.03 108.028ZM1105.22 104.558C1106 104.335 1106.99 104.131 1108.21 103.949C1109.42 103.746 1110.7 103.645 1112.04 103.645C1113.4 103.645 1114.53 103.827 1115.42 104.192C1116.33 104.538 1117.05 105.034 1117.58 105.684C1118.11 106.333 1118.48 107.104 1118.71 107.996C1118.93 108.889 1119.04 109.883 1119.04 110.979V120.017H1114.51V111.527C1114.51 110.066 1114.31 109.031 1113.93 108.422C1113.54 107.814 1112.82 107.51 1111.77 107.51C1111.44 107.51 1111.1 107.53 1110.73 107.571C1110.41 107.587 1110.08 107.618 1109.76 107.662V120.018H1105.22L1105.22 104.558ZM1122.41 112.136C1122.41 110.715 1122.63 109.478 1123.05 108.423C1123.5 107.348 1124.08 106.455 1124.79 105.745C1125.5 105.035 1126.31 104.497 1127.22 104.132C1128.16 103.767 1129.11 103.584 1130.08 103.584C1132.36 103.584 1134.15 104.284 1135.47 105.684C1136.79 107.064 1137.45 109.102 1137.45 111.801C1137.45 112.065 1137.44 112.359 1137.42 112.683C1137.4 112.987 1137.38 113.261 1137.36 113.505H1127.07C1127.17 114.438 1127.61 115.179 1128.38 115.727C1129.15 116.274 1130.19 116.549 1131.48 116.549C1132.32 116.549 1133.13 116.478 1133.92 116.335C1134.73 116.173 1135.39 115.981 1135.9 115.757L1136.51 119.44C1136.26 119.561 1135.94 119.683 1135.53 119.805C1135.08 119.936 1134.62 120.038 1134.16 120.109C1133.64 120.216 1133.11 120.297 1132.58 120.352C1132.01 120.413 1131.44 120.444 1130.87 120.444C1129.43 120.444 1128.18 120.231 1127.1 119.805C1126.05 119.379 1125.16 118.8 1124.45 118.07C1123.76 117.32 1123.25 116.437 1122.9 115.423C1122.58 114.408 1122.41 113.312 1122.41 112.136M1133.07 110.401C1133.05 110.017 1132.97 109.639 1132.85 109.275C1132.75 108.916 1132.58 108.583 1132.34 108.301C1132.11 108.017 1131.82 107.784 1131.45 107.601C1131.11 107.418 1130.67 107.327 1130.15 107.327C1129.64 107.327 1129.2 107.419 1128.84 107.601C1128.47 107.763 1128.17 107.987 1127.92 108.271C1127.68 108.555 1127.49 108.89 1127.35 109.275C1127.22 109.642 1127.13 110.019 1127.07 110.401L1133.07 110.401ZM1140.8 100.023L1145.33 99.2928V104.01H1150.78V107.784H1145.33V113.414C1145.33 114.367 1145.49 115.128 1145.82 115.696C1146.16 116.264 1146.84 116.548 1147.86 116.548C1148.34 116.548 1148.84 116.508 1149.35 116.427C1149.87 116.325 1150.35 116.193 1150.78 116.031L1151.42 119.561C1150.87 119.784 1150.26 119.977 1149.59 120.139C1148.92 120.302 1148.1 120.383 1147.13 120.383C1145.89 120.383 1144.86 120.221 1144.05 119.896C1143.24 119.551 1142.59 119.084 1142.1 118.496C1141.62 117.887 1141.27 117.157 1141.07 116.305C1140.89 115.452 1140.8 114.509 1140.8 113.474V100.023ZM1153.09 112.136C1153.09 110.715 1153.3 109.478 1153.72 108.423C1154.17 107.348 1154.75 106.455 1155.46 105.745C1156.17 105.035 1156.98 104.497 1157.89 104.132C1158.83 103.767 1159.78 103.584 1160.75 103.584C1163.03 103.584 1164.82 104.284 1166.14 105.684C1167.46 107.064 1168.12 109.102 1168.12 111.801C1168.12 112.065 1168.11 112.359 1168.09 112.683C1168.07 112.987 1168.05 113.261 1168.03 113.505H1157.74C1157.84 114.438 1158.28 115.179 1159.05 115.727C1159.82 116.274 1160.86 116.549 1162.15 116.549C1162.99 116.549 1163.8 116.478 1164.59 116.335C1165.4 116.173 1166.06 115.981 1166.57 115.757L1167.18 119.44C1166.93 119.561 1166.61 119.683 1166.2 119.805C1165.75 119.936 1165.29 120.038 1164.83 120.109C1164.31 120.216 1163.78 120.297 1163.25 120.352C1162.68 120.413 1162.11 120.444 1161.55 120.444C1160.11 120.444 1158.85 120.231 1157.77 119.805C1156.72 119.379 1155.83 118.8 1155.12 118.07C1154.43 117.32 1153.92 116.437 1153.57 115.423C1153.25 114.408 1153.09 113.312 1153.09 112.136ZM1163.74 110.401C1163.72 110.017 1163.65 109.639 1163.52 109.275C1163.43 108.916 1163.25 108.583 1163.01 108.301C1162.78 108.017 1162.49 107.784 1162.12 107.601C1161.78 107.418 1161.34 107.327 1160.82 107.327C1160.31 107.327 1159.87 107.419 1159.51 107.601C1159.14 107.763 1158.84 107.987 1158.59 108.271C1158.35 108.555 1158.16 108.89 1158.02 109.275C1157.89 109.642 1157.8 110.019 1157.74 110.401L1163.74 110.401ZM1176.21 116.761C1177.05 116.761 1177.63 116.68 1177.98 116.518C1178.32 116.355 1178.5 116.041 1178.5 115.574C1178.5 115.209 1178.27 114.895 1177.83 114.631C1177.38 114.347 1176.7 114.033 1175.79 113.688C1175.13 113.444 1174.48 113.17 1173.84 112.866C1173.27 112.582 1172.78 112.247 1172.38 111.862C1171.97 111.453 1171.65 110.967 1171.44 110.431C1171.21 109.884 1171.1 109.224 1171.1 108.453C1171.1 106.952 1171.66 105.765 1172.77 104.892C1173.89 104.02 1175.42 103.584 1177.37 103.584C1178.34 103.584 1179.28 103.676 1180.17 103.858C1181.06 104.02 1181.77 104.203 1182.3 104.405L1181.51 107.936C1180.94 107.741 1180.36 107.579 1179.77 107.449C1179.17 107.306 1178.48 107.236 1177.7 107.236C1176.28 107.236 1175.57 107.631 1175.57 108.422C1175.57 108.605 1175.6 108.768 1175.67 108.91C1175.73 109.052 1175.85 109.193 1176.03 109.336C1176.21 109.457 1176.46 109.599 1176.76 109.762C1177.09 109.904 1177.49 110.066 1177.98 110.249C1178.97 110.614 1179.79 110.979 1180.44 111.344C1181.09 111.69 1181.6 112.075 1181.97 112.501C1182.35 112.907 1182.61 113.363 1182.76 113.87C1182.92 114.377 1183 114.966 1183 115.635C1183 117.218 1182.4 118.415 1181.2 119.226C1180.03 120.038 1178.35 120.444 1176.18 120.444C1174.76 120.444 1173.58 120.323 1172.62 120.079C1171.69 119.835 1171.04 119.632 1170.67 119.47L1171.44 115.788C1172.21 116.092 1173 116.336 1173.81 116.518C1174.62 116.68 1175.42 116.761 1176.21 116.761Z" fill="black"/>
<path d="M1102 4.00586L1136.52 20.4895L1145.05 57.5364L1121.16 87.2482L1082.85 87.2518L1058.96 57.5452L1067.48 20.4972L1102 4.00586Z" fill="white"/>
<path d="M1101.68 0.00777173C1100.84 0.0495806 1100.03 0.255717 1099.28 0.614262L1066.58 16.2372C1064.9 17.042 1063.62 18.6352 1063.2 20.4436L1055.13 55.5374C1054.76 57.1493 1055.07 58.9052 1055.98 60.2923C1056.09 60.4621 1056.21 60.627 1056.34 60.7857L1078.97 88.9256C1080.14 90.3755 1081.99 91.2597 1083.86 91.259L1120.15 91.2505C1122.02 91.252 1123.87 90.3696 1125.04 88.9212L1147.66 60.7776C1148.83 59.327 1149.29 57.3396 1148.87 55.5293L1140.79 20.4359C1140.38 18.6268 1139.09 17.0339 1137.41 16.2287L1104.71 0.614262C1103.76 0.164296 1102.72 -0.0440981 1101.68 0.00777173Z" fill="#326CE5"/>
<path d="M1101.94 56.5784C1102.21 56.5691 1102.49 56.6281 1102.74 56.7504C1103.07 56.9068 1103.34 57.1646 1103.52 57.4862H1103.55L1108.53 66.4854C1107.88 66.7037 1107.22 66.8893 1106.54 67.0416C1102.74 67.9067 1098.94 67.6448 1095.5 66.4733L1100.47 57.4902H1100.48C1100.62 57.224 1100.83 56.9998 1101.08 56.8398C1101.34 56.6798 1101.63 56.5897 1101.94 56.5784ZM1093.4 52.4344C1093.79 52.4404 1094.16 52.5759 1094.46 52.8192C1094.76 53.0625 1094.97 53.3996 1095.06 53.7763C1095.14 54.1316 1095.11 54.5039 1094.96 54.8387L1094.99 54.8762L1091.08 64.3357C1087.42 61.9873 1084.5 58.4714 1082.94 54.1576L1093.05 52.4432L1093.06 52.4642C1093.17 52.4429 1093.29 52.4329 1093.4 52.4344ZM1110.52 52.3925C1110.65 52.3852 1110.78 52.3977 1110.91 52.4219L1110.93 52.401L1121.12 54.1235C1119.63 58.3138 1116.78 61.9443 1112.96 64.3735L1109.01 54.8181L1109.02 54.8012C1108.84 54.3924 1108.83 53.9315 1108.99 53.5147C1109.14 53.0979 1109.46 52.7574 1109.86 52.5641C1110.06 52.4631 1110.29 52.4047 1110.52 52.3925ZM1100.42 44.0207H1103.57L1105.53 46.4672L1104.83 49.5199L1102 50.8791L1099.16 49.5162L1098.46 46.4635L1100.42 44.0207ZM1119.24 36.6186C1120.42 38.5201 1121.27 40.601 1121.77 42.7783C1122.26 44.9279 1122.41 47.144 1122.19 49.3399L1112.29 46.4878L1112.28 46.4459C1111.85 46.328 1111.49 46.0491 1111.26 45.6673C1111.03 45.2856 1110.96 44.8304 1111.06 44.3969C1111.14 44.0409 1111.33 43.7199 1111.6 43.4807L1111.6 43.4597L1119.24 36.6186ZM1084.7 36.615L1092.38 43.4895L1092.38 43.5314C1092.71 43.8228 1092.92 44.2326 1092.96 44.6753C1093 45.1179 1092.87 45.5591 1092.59 45.9066C1092.37 46.193 1092.05 46.3996 1091.7 46.4966L1091.69 46.53L1081.84 49.3737C1081.35 44.921 1082.35 40.4317 1084.7 36.615ZM1104.45 27.1301C1108.91 27.6782 1113.02 29.6942 1116.18 32.7839L1107.82 38.7136L1107.79 38.7011C1107.43 38.9633 1106.98 39.0766 1106.54 39.0174C1106.1 38.9583 1105.7 38.7313 1105.42 38.3837C1105.19 38.0993 1105.06 37.7488 1105.04 37.3838L1105.03 37.3802L1104.45 27.1301ZM1099.55 27.1301L1098.97 37.3963L1098.92 37.4173C1098.91 37.8615 1098.72 38.2814 1098.4 38.5892C1098.07 38.897 1097.65 39.069 1097.2 39.0692C1096.84 39.0702 1096.48 38.9547 1096.19 38.7393L1096.17 38.7478L1087.75 32.7799C1090.34 30.2356 1093.65 28.3555 1097.46 27.4897C1098.16 27.3317 1098.85 27.2142 1099.55 27.1301ZM1102 11.9502C1100.92 11.9509 1100.04 12.9244 1100.04 14.1249C1100.04 14.1436 1100.05 14.1613 1100.05 14.1796C1100.04 14.3424 1100.04 14.5389 1100.04 14.6814C1100.07 15.3739 1100.22 15.904 1100.31 16.5424C1100.47 17.9078 1100.61 19.0404 1100.53 20.0924C1100.44 20.4895 1100.15 20.8525 1099.89 21.1045L1099.84 21.9325C1098.65 22.0307 1097.47 22.2124 1096.31 22.4762C1091.41 23.5823 1086.96 26.1265 1083.52 29.782C1083.28 29.6178 1083.05 29.4505 1082.81 29.2802C1082.46 29.3272 1082.11 29.4352 1081.65 29.167C1080.77 28.5778 1079.98 27.7637 1079.01 26.7833C1078.57 26.3149 1078.25 25.8679 1077.72 25.4157C1077.6 25.3128 1077.42 25.1743 1077.29 25.0685C1076.88 24.7412 1076.39 24.5708 1075.92 24.5542C1075.32 24.5333 1074.74 24.7688 1074.36 25.2441C1073.69 26.089 1073.91 27.381 1074.85 28.1296C1074.86 28.1373 1074.87 28.1432 1074.87 28.1506C1075 28.2553 1075.16 28.389 1075.28 28.4764C1075.84 28.8882 1076.35 29.0991 1076.9 29.426C1078.07 30.1489 1079.04 30.7484 1079.81 31.4714C1080.11 31.7917 1080.17 32.356 1080.21 32.6006L1080.83 33.1604C1077.48 38.214 1075.92 44.456 1076.84 50.8162L1076.02 51.0546C1075.8 51.3338 1075.5 51.7728 1075.18 51.9032C1074.17 52.2202 1073.04 52.3371 1071.67 52.4803C1071.03 52.534 1070.47 52.502 1069.79 52.6313C1069.64 52.6592 1069.43 52.7136 1069.27 52.7522L1069.25 52.7569C1069.25 52.7588 1069.23 52.7628 1069.23 52.7646C1068.07 53.0438 1067.33 54.104 1067.57 55.1484C1067.81 56.1938 1068.93 56.829 1070.1 56.5784C1070.1 56.5766 1070.12 56.5766 1070.12 56.5748C1070.14 56.5715 1070.15 56.5656 1070.16 56.5623C1070.32 56.5263 1070.53 56.4873 1070.67 56.4491C1071.34 56.2695 1071.82 56.0061 1072.42 55.7754C1073.72 55.3115 1074.79 54.9232 1075.84 54.7718C1076.27 54.738 1076.73 55.0415 1076.96 55.1689L1077.81 55.0227C1079.78 61.1089 1083.89 66.0288 1089.1 69.1153L1088.75 69.9686C1088.87 70.3 1089.02 70.7481 1088.92 71.0754C1088.54 72.0603 1087.89 73.0999 1087.15 74.2589C1086.79 74.7944 1086.42 75.2103 1086.1 75.823C1086.02 75.9692 1085.92 76.1948 1085.85 76.3498C1085.35 77.4265 1085.71 78.6659 1086.68 79.1306C1087.65 79.599 1088.86 79.1049 1089.38 78.0271C1089.38 78.0253 1089.39 78.0245 1089.39 78.0227C1089.39 78.0219 1089.38 78.0201 1089.39 78.0186C1089.46 77.8658 1089.57 77.6645 1089.63 77.5209C1089.91 76.8857 1090 76.3413 1090.19 75.7271C1090.71 74.4264 1090.99 73.0613 1091.71 72.2113C1091.9 71.9787 1092.22 71.8887 1092.55 71.8002L1092.99 70.9972C1097.54 72.7406 1102.62 73.2082 1107.7 72.0555C1108.84 71.7955 1109.96 71.4574 1111.06 71.0435C1111.18 71.2642 1111.41 71.6889 1111.47 71.7962C1111.81 71.9053 1112.17 71.9615 1112.47 72.4026C1113.01 73.3133 1113.37 74.3918 1113.82 75.6941C1114.01 76.3083 1114.11 76.8527 1114.38 77.4875C1114.45 77.6326 1114.55 77.8364 1114.63 77.9893C1115.15 79.0715 1116.36 79.5667 1117.33 79.0975C1118.3 78.6325 1118.67 77.3931 1118.16 76.3167C1118.09 76.1621 1117.99 75.9365 1117.91 75.7903C1117.59 75.1776 1117.22 74.7658 1116.86 74.2306C1116.12 73.0712 1115.5 72.108 1115.12 71.1228C1114.97 70.6151 1115.15 70.2989 1115.28 69.969C1115.2 69.8841 1115.04 69.4044 1114.95 69.1784C1120.36 65.9818 1124.36 60.8786 1126.23 54.9856C1126.48 55.0253 1126.93 55.1032 1127.07 55.1318C1127.36 54.9379 1127.63 54.684 1128.16 54.7259C1129.21 54.8769 1130.28 55.2652 1131.58 55.7295C1132.18 55.9602 1132.66 56.228 1133.33 56.4073C1133.47 56.4451 1133.68 56.4804 1133.84 56.5156C1133.85 56.5189 1133.86 56.5255 1133.88 56.5281C1133.89 56.53 1133.9 56.5307 1133.91 56.5325C1135.07 56.782 1136.19 56.1468 1136.43 55.1021C1136.67 54.0573 1135.93 52.9968 1134.78 52.7184C1134.61 52.6805 1134.37 52.6151 1134.21 52.5843C1133.53 52.4557 1132.97 52.4877 1132.33 52.434C1130.96 52.2904 1129.83 52.174 1128.82 51.8569C1128.41 51.6975 1128.12 51.2089 1127.98 51.0076L1127.19 50.7777C1127.61 47.7323 1127.47 44.6357 1126.78 41.6403C1126.08 38.6141 1124.84 35.741 1123.11 33.1641C1123.31 32.9797 1123.69 32.6406 1123.8 32.5407C1123.83 32.1899 1123.81 31.8215 1124.17 31.4324C1124.94 30.7099 1125.91 30.1107 1127.08 29.3874C1127.64 29.0609 1128.15 28.8504 1128.71 28.4386C1128.83 28.3449 1129.01 28.1972 1129.14 28.0911C1130.08 27.342 1130.29 26.0512 1129.62 25.2055C1128.95 24.3606 1127.64 24.2809 1126.7 25.0303C1126.57 25.1361 1126.39 25.2739 1126.27 25.3771C1125.74 25.8293 1125.42 26.2756 1124.97 26.7447C1124.01 27.7248 1123.21 28.5429 1122.34 29.1321C1121.96 29.3533 1121.4 29.2765 1121.15 29.2614L1120.4 29.7926C1116.16 25.3418 1110.38 22.496 1104.16 21.9435C1104.14 21.6827 1104.12 21.2117 1104.11 21.07C1103.86 20.8264 1103.55 20.6178 1103.47 20.091C1103.39 19.0389 1103.53 17.9067 1103.69 16.5409C1103.78 15.9025 1103.93 15.3724 1103.96 14.68C1103.97 14.5224 1103.96 14.2939 1103.96 14.1234C1103.96 12.9244 1103.08 11.9502 1102 11.9502Z" fill="white"/>
<path d="M321.817 251.253V261.474H320V236.08H326.542C329.54 236.08 331.766 236.716 333.265 238.033C334.764 239.351 335.536 241.213 335.536 243.621C335.536 244.711 335.309 245.756 334.9 246.71C334.491 247.664 333.901 248.436 333.128 249.117C332.356 249.799 331.402 250.299 330.312 250.707C329.222 251.071 327.95 251.253 326.542 251.253H321.817ZM321.817 249.799H326.542C327.677 249.799 328.677 249.663 329.54 249.345C330.403 249.027 331.175 248.618 331.811 248.073C332.447 247.528 332.901 246.892 333.219 246.119C333.537 245.392 333.719 244.575 333.719 243.666C333.719 241.713 333.128 240.214 331.902 239.169C330.721 238.124 328.904 237.579 326.542 237.579H321.817V249.799ZM341.623 261.519V243.666H342.532C342.714 243.666 342.895 243.712 342.986 243.802C343.077 243.893 343.122 244.03 343.122 244.211L343.259 247.982C343.849 246.528 344.576 245.392 345.576 244.575C346.529 243.757 347.711 243.348 349.119 243.348C349.664 243.348 350.164 243.394 350.618 243.53C351.072 243.666 351.481 243.802 351.89 244.03L351.663 245.211C351.617 245.392 351.526 245.483 351.299 245.483C351.208 245.483 351.118 245.438 350.981 245.392C350.845 245.347 350.663 245.302 350.482 245.211C350.3 245.165 350.027 245.12 349.755 245.029C349.482 244.984 349.119 244.938 348.755 244.938C347.393 244.938 346.302 245.347 345.439 246.21C344.576 247.028 343.849 248.254 343.35 249.844V261.474L341.623 261.519ZM364.564 243.348C365.836 243.348 366.972 243.575 368.017 243.984C369.016 244.438 369.879 245.029 370.56 245.847C371.242 246.664 371.787 247.618 372.15 248.754C372.514 249.89 372.696 251.162 372.696 252.57C372.696 253.978 372.514 255.25 372.15 256.34C371.787 257.476 371.242 258.43 370.56 259.248C369.879 260.065 369.016 260.656 368.017 261.11C367.017 261.519 365.881 261.746 364.564 261.746C363.292 261.746 362.156 261.519 361.112 261.11C360.112 260.701 359.249 260.065 358.568 259.248C357.886 258.43 357.341 257.476 356.978 256.34C356.614 255.205 356.433 253.933 356.433 252.57C356.433 251.162 356.614 249.89 356.978 248.754C357.341 247.618 357.886 246.664 358.568 245.847C359.249 245.029 360.112 244.438 361.112 243.984C362.111 243.575 363.292 243.348 364.564 243.348ZM364.564 260.383C365.609 260.383 366.563 260.202 367.335 259.838C368.153 259.475 368.789 258.93 369.334 258.248C369.879 257.567 370.243 256.749 370.515 255.795C370.788 254.841 370.924 253.751 370.924 252.57C370.924 251.389 370.788 250.299 370.515 249.345C370.243 248.391 369.834 247.528 369.334 246.846C368.789 246.165 368.153 245.62 367.335 245.256C366.517 244.893 365.609 244.711 364.564 244.711C363.519 244.711 362.565 244.893 361.793 245.256C360.975 245.62 360.339 246.165 359.794 246.846C359.249 247.528 358.84 248.345 358.613 249.345C358.341 250.299 358.204 251.389 358.204 252.57C358.204 253.751 358.341 254.841 358.613 255.795C358.886 256.749 359.295 257.567 359.794 258.248C360.339 258.93 360.975 259.475 361.793 259.838C362.565 260.202 363.474 260.383 364.564 260.383ZM378.601 261.519V243.666H379.555C379.873 243.666 380.055 243.802 380.1 244.12L380.282 246.71C380.645 246.21 381.009 245.756 381.418 245.347C381.826 244.938 382.235 244.575 382.69 244.302C383.144 244.03 383.598 243.802 384.143 243.621C384.643 243.439 385.188 243.394 385.733 243.394C387.051 243.394 388.095 243.757 388.868 244.529C389.64 245.302 390.185 246.346 390.458 247.709C390.685 246.982 390.957 246.346 391.366 245.801C391.775 245.256 392.184 244.802 392.684 244.484C393.183 244.12 393.728 243.848 394.319 243.712C394.909 243.575 395.5 243.439 396.136 243.439C396.999 243.439 397.817 243.575 398.498 243.893C399.225 244.166 399.816 244.62 400.315 245.211C400.815 245.801 401.178 246.483 401.451 247.346C401.724 248.163 401.86 249.117 401.86 250.208V261.61H400.134V250.208C400.134 248.481 399.77 247.119 398.998 246.21C398.226 245.302 397.181 244.847 395.773 244.847C395.137 244.847 394.546 244.938 394.001 245.211C393.456 245.483 392.911 245.756 392.502 246.21C392.048 246.664 391.73 247.21 391.457 247.891C391.184 248.572 391.094 249.345 391.094 250.208V261.61H389.367V250.208C389.367 248.481 389.004 247.164 388.323 246.21C387.641 245.302 386.596 244.847 385.279 244.847C384.325 244.847 383.416 245.12 382.599 245.71C381.781 246.301 381.054 247.073 380.373 248.118V261.61L378.601 261.519ZM415.306 243.348C416.306 243.348 417.26 243.53 418.077 243.848C418.94 244.211 419.667 244.711 420.303 245.347C420.939 246.028 421.439 246.846 421.757 247.8C422.12 248.754 422.302 249.89 422.302 251.116C422.302 251.389 422.257 251.571 422.166 251.661C422.075 251.752 421.984 251.798 421.802 251.798H408.901V252.116C408.901 253.433 409.037 254.614 409.355 255.659C409.673 256.658 410.128 257.521 410.673 258.203C411.263 258.884 411.945 259.429 412.762 259.747C413.58 260.111 414.489 260.247 415.488 260.247C416.397 260.247 417.169 260.156 417.805 259.929C418.441 259.747 419.031 259.52 419.44 259.248C419.894 259.021 420.258 258.793 420.53 258.566C420.803 258.385 420.985 258.248 421.121 258.248C421.257 258.248 421.394 258.294 421.484 258.43L421.939 259.021C421.666 259.384 421.257 259.702 420.803 260.02C420.349 260.338 419.804 260.611 419.213 260.838C418.622 261.065 418.032 261.247 417.351 261.383C416.669 261.519 416.033 261.565 415.352 261.565C414.125 261.565 413.035 261.337 412.036 260.929C411.036 260.52 410.173 259.884 409.446 259.066C408.719 258.248 408.174 257.249 407.765 256.068C407.357 254.887 407.175 253.524 407.175 252.025C407.175 250.753 407.357 249.572 407.72 248.481C408.083 247.391 408.628 246.483 409.31 245.665C409.991 244.893 410.854 244.257 411.854 243.848C412.899 243.575 414.034 243.348 415.306 243.348ZM415.306 244.62C414.398 244.62 413.58 244.756 412.853 245.029C412.126 245.302 411.49 245.71 410.945 246.256C410.4 246.801 409.991 247.437 409.673 248.209C409.355 248.981 409.128 249.799 409.037 250.753H420.803C420.803 249.799 420.667 248.936 420.394 248.163C420.122 247.391 419.758 246.755 419.304 246.256C418.85 245.756 418.259 245.347 417.578 245.029C416.896 244.756 416.124 244.62 415.306 244.62ZM432.432 261.792C431.206 261.792 430.297 261.474 429.616 260.792C428.934 260.111 428.616 259.066 428.616 257.703V245.483H426.073C425.936 245.483 425.845 245.438 425.755 245.392C425.664 245.302 425.618 245.211 425.618 245.074V244.393L428.662 244.166L429.071 237.761C429.071 237.67 429.116 237.579 429.207 237.488C429.298 237.397 429.389 237.352 429.525 237.352H430.343V244.166H435.976V245.438H430.343V257.567C430.343 258.067 430.388 258.475 430.524 258.839C430.661 259.202 430.842 259.475 431.024 259.702C431.206 259.929 431.524 260.111 431.796 260.202C432.114 260.293 432.432 260.383 432.75 260.383C433.159 260.383 433.568 260.338 433.886 260.202C434.204 260.065 434.477 259.929 434.704 259.793C434.931 259.657 435.113 259.52 435.249 259.384C435.385 259.248 435.521 259.202 435.612 259.202C435.703 259.202 435.794 259.248 435.885 259.384L436.339 260.156C435.885 260.656 435.294 261.065 434.613 261.383C433.931 261.61 433.205 261.792 432.432 261.792ZM441.836 261.519V235.398H443.562V246.71C444.38 245.71 445.334 244.893 446.379 244.257C447.423 243.666 448.604 243.348 449.922 243.348C450.921 243.348 451.784 243.484 452.511 243.802C453.238 244.12 453.874 244.575 454.374 245.165C454.873 245.756 455.237 246.437 455.464 247.3C455.737 248.118 455.827 249.072 455.827 250.117V261.519H454.101V250.117C454.101 248.436 453.738 247.119 452.965 246.165C452.193 245.211 451.012 244.756 449.468 244.756C448.286 244.756 447.196 245.074 446.197 245.665C445.197 246.256 444.289 247.119 443.517 248.163V261.565H441.836V261.519ZM469.41 243.348C470.41 243.348 471.363 243.53 472.181 243.848C473.044 244.211 473.771 244.711 474.407 245.347C475.043 246.028 475.543 246.846 475.861 247.8C476.224 248.754 476.406 249.89 476.406 251.116C476.406 251.389 476.36 251.571 476.27 251.661C476.179 251.752 476.088 251.798 475.906 251.798H463.05V252.116C463.05 253.433 463.187 254.614 463.505 255.659C463.823 256.658 464.277 257.521 464.822 258.203C465.413 258.884 466.094 259.429 466.912 259.747C467.729 260.111 468.638 260.247 469.637 260.247C470.546 260.247 471.318 260.156 471.954 259.929C472.59 259.747 473.181 259.52 473.589 259.248C474.044 259.021 474.407 258.793 474.68 258.566C474.952 258.385 475.134 258.248 475.27 258.248C475.406 258.248 475.543 258.294 475.634 258.43L476.088 259.021C475.815 259.384 475.407 259.702 474.952 260.02C474.498 260.338 473.953 260.611 473.362 260.838C472.772 261.065 472.181 261.247 471.5 261.383C470.818 261.519 470.182 261.565 469.501 261.565C468.274 261.565 467.184 261.337 466.185 260.929C465.185 260.52 464.322 259.884 463.595 259.066C462.869 258.248 462.323 257.249 461.915 256.068C461.506 254.887 461.324 253.524 461.324 252.025C461.324 250.753 461.506 249.572 461.869 248.481C462.233 247.391 462.778 246.483 463.459 245.665C464.141 244.893 465.004 244.257 466.003 243.848C467.002 243.575 468.138 243.348 469.41 243.348ZM469.41 244.62C468.502 244.62 467.684 244.756 466.957 245.029C466.23 245.302 465.594 245.71 465.049 246.256C464.504 246.801 464.095 247.437 463.777 248.209C463.459 248.981 463.232 249.799 463.141 250.753H474.861C474.861 249.799 474.725 248.936 474.453 248.163C474.18 247.391 473.817 246.755 473.362 246.256C472.908 245.756 472.317 245.347 471.636 245.029C470.955 244.756 470.228 244.62 469.41 244.62ZM482.993 243.666V255.068C482.993 256.749 483.356 258.067 484.129 259.021C484.901 259.975 486.082 260.429 487.626 260.429C488.808 260.429 489.898 260.111 490.897 259.52C491.897 258.93 492.805 258.112 493.623 257.067V243.666H495.349V261.519H494.395C494.077 261.519 493.895 261.383 493.895 261.065L493.714 258.43C492.896 259.475 491.942 260.293 490.852 260.929C489.762 261.565 488.58 261.882 487.218 261.882C486.218 261.882 485.355 261.746 484.628 261.428C483.901 261.11 483.265 260.656 482.766 260.065C482.266 259.475 481.903 258.793 481.63 257.93C481.357 257.113 481.267 256.159 481.267 255.114V243.712L482.993 243.666ZM511.657 245.892C511.567 246.074 511.43 246.165 511.249 246.165C511.112 246.165 510.931 246.074 510.749 245.938C510.522 245.801 510.249 245.62 509.931 245.438C509.613 245.256 509.159 245.074 508.659 244.938C508.16 244.802 507.569 244.711 506.842 244.711C506.206 244.711 505.616 244.802 505.07 244.984C504.525 245.165 504.071 245.438 503.708 245.71C503.344 246.028 503.026 246.392 502.845 246.801C502.617 247.21 502.527 247.664 502.527 248.118C502.527 248.663 502.663 249.163 502.935 249.526C503.208 249.89 503.617 250.208 504.071 250.48C504.525 250.753 505.07 250.98 505.661 251.162C506.252 251.343 506.842 251.525 507.478 251.752C508.114 251.934 508.705 252.161 509.295 252.388C509.886 252.615 510.431 252.933 510.885 253.251C511.339 253.615 511.748 254.024 512.021 254.523C512.293 255.023 512.43 255.659 512.43 256.34C512.43 257.113 512.293 257.839 512.021 258.521C511.748 259.202 511.339 259.793 510.794 260.247C510.249 260.701 509.613 261.11 508.841 261.428C508.069 261.746 507.16 261.837 506.206 261.837C504.934 261.837 503.889 261.655 502.981 261.247C502.072 260.838 501.255 260.338 500.528 259.657L500.937 259.066C500.982 258.975 501.073 258.884 501.118 258.839C501.209 258.793 501.3 258.748 501.436 258.748C501.573 258.748 501.8 258.839 502.027 259.021C502.254 259.202 502.527 259.429 502.935 259.657C503.299 259.884 503.753 260.065 504.298 260.293C504.843 260.474 505.525 260.565 506.297 260.565C507.069 260.565 507.705 260.474 508.296 260.247C508.886 260.02 509.341 259.747 509.749 259.384C510.113 259.021 510.431 258.612 510.613 258.112C510.794 257.612 510.931 257.113 510.931 256.568C510.931 255.977 510.794 255.477 510.522 255.068C510.249 254.66 509.84 254.342 509.386 254.069C508.932 253.796 508.387 253.569 507.796 253.388C507.206 253.206 506.615 253.024 505.979 252.797C505.343 252.615 504.752 252.388 504.162 252.161C503.571 251.934 503.026 251.661 502.572 251.298C502.118 250.935 501.709 250.526 501.436 250.026C501.164 249.526 501.027 248.89 501.027 248.163C501.027 247.528 501.164 246.937 501.436 246.346C501.709 245.756 502.118 245.256 502.617 244.802C503.117 244.348 503.753 243.984 504.48 243.757C505.207 243.484 506.024 243.348 506.933 243.348C508.023 243.348 508.977 243.484 509.84 243.802C510.703 244.12 511.476 244.62 512.157 245.256L511.657 245.892Z" fill="#9C9C9D"/>
<path d="M415.94 165C432.793 165 446.61 178.659 446.588 195.263C446.565 212.138 432.793 225.593 415.577 225.593C398.77 225.571 385.156 211.912 385.156 195.036C385.179 178.523 399.042 165 415.94 165ZM406.63 175.624C407.015 177.504 406.63 179.271 406.064 181.015C405.679 182.215 405.112 183.371 404.795 184.594C404.252 186.61 403.64 188.626 403.414 190.664C403.096 193.609 404.252 196.214 406.245 198.796C403.006 198.117 400.061 197.505 397.071 196.871C397.094 197.165 397.071 197.279 397.094 197.369C397.954 199.906 399.495 202.036 401.216 204.074C401.398 204.278 401.805 204.391 402.122 204.391C411.274 204.414 420.402 204.414 429.554 204.391C429.848 204.391 430.21 204.346 430.392 204.165C432.362 202.126 433.857 199.793 434.786 196.848C431.434 197.505 428.24 198.117 425.069 198.728C425.703 197.483 426.45 196.373 426.858 195.172C428.285 191.049 427.696 187.063 425.635 183.303C423.981 180.29 422.441 177.277 423.279 173.653C421.535 175.374 420.855 177.549 420.425 179.814C419.995 182.034 419.768 184.277 419.428 186.542C419.383 186.474 419.315 186.429 419.315 186.361C419.27 186.134 419.247 185.885 419.224 185.658C419.021 181.966 418.296 178.41 416.778 175.035C415.872 173.041 414.875 171.003 415.804 168.624C415.17 168.964 414.603 169.281 414.196 169.757C412.973 171.161 412.474 172.815 412.361 174.65C412.248 176.213 412.089 177.798 411.817 179.339C411.5 180.947 411.024 182.532 409.937 184.027C409.529 180.788 409.484 177.64 406.63 175.624ZM430.21 207.177H401.533V212.138H430.21V207.177ZM407.219 214.675C407.196 218.798 411.432 221.878 416.642 221.652C420.969 221.471 424.797 218.073 424.48 214.675H407.219Z" fill="#E75225"/>
</svg>
