<svg width="325" height="503" viewBox="0 0 325 503" fill="none" xmlns="http://www.w3.org/2000/svg">
<path d="M202.012 48.5856C203.039 49.9516 204.373 51.0563 205.907 51.81C207.566 52.6317 209.396 53.0472 211.247 53.0223C212.743 53.0615 214.233 52.8074 215.632 52.2743C216.751 51.8348 217.75 51.1365 218.547 50.2366C219.295 49.3599 219.841 48.3294 220.146 47.2182C220.479 46.0174 220.644 44.7761 220.636 43.53V39.1963H220.533C219.563 40.7337 218.164 41.9533 216.509 42.7045C214.93 43.3916 213.226 43.743 211.505 43.7361C209.818 43.7488 208.144 43.4334 206.578 42.8075C205.095 42.2187 203.738 41.352 202.579 40.254C201.43 39.1508 200.518 37.8255 199.897 36.3586C199.236 34.8099 198.902 33.1414 198.916 31.4576C198.902 29.7788 199.218 28.1135 199.845 26.5564C200.438 25.0831 201.305 23.7353 202.399 22.5839C203.493 21.4421 204.81 20.5377 206.268 19.9271C207.829 19.2781 209.505 18.9533 211.195 18.9725C211.965 18.977 212.733 19.0461 213.491 19.1789C214.324 19.3245 215.138 19.5669 215.916 19.9013C217.761 20.7011 219.357 21.9845 220.533 23.6158H220.636V19.5916H224.041V43.53C224.03 44.9365 223.865 46.3375 223.551 47.7085C223.222 49.1909 222.571 50.5824 221.642 51.784C220.586 53.1096 219.235 54.1698 217.696 54.8799C216.01 55.7049 213.809 56.1175 211.092 56.1177C208.885 56.1553 206.692 55.752 204.643 54.9315C202.682 54.0914 200.923 52.8425 199.484 51.2682L202.012 48.5856ZM202.631 31.3545C202.622 32.584 202.859 33.8029 203.328 34.9397C203.774 36.0308 204.422 37.0283 205.236 37.8805C206.046 38.725 207.009 39.4079 208.074 39.8928C209.183 40.397 210.389 40.6523 211.608 40.6407C214.021 40.6493 216.346 39.7359 218.108 38.0871C218.974 37.2706 219.651 36.2759 220.095 35.1718C220.572 33.958 220.792 32.658 220.74 31.3545C220.748 30.132 220.539 28.9177 220.12 27.7688C219.723 26.6768 219.109 25.6764 218.315 24.828C217.498 23.9681 216.515 23.2835 215.426 22.8161C214.219 22.3034 212.919 22.0486 211.608 22.0681C210.389 22.0568 209.183 22.3121 208.074 22.8161C207.009 23.3014 206.047 23.9841 205.236 24.828C204.422 25.6805 203.775 26.678 203.328 27.7688C202.859 28.9059 202.623 30.1249 202.631 31.3545Z" fill="#244B5A"/>
<path d="M237.92 43.7363H234.205V7.20996H245.452C249.166 7.20996 252.098 8.0182 254.248 9.63469C256.397 11.2519 257.472 13.6939 257.473 16.9607C257.538 19.3321 256.678 21.6359 255.074 23.3839C253.474 25.121 251.161 26.127 248.135 26.4017L258.659 43.7363H254.119L244.11 26.7629H237.92V43.7363ZM237.92 23.3578H244.523C245.942 23.3878 247.358 23.2141 248.728 22.842C249.729 22.5741 250.668 22.1094 251.488 21.4749C252.15 20.9425 252.665 20.25 252.984 19.463C253.298 18.6663 253.455 17.8168 253.448 16.9607C253.452 16.1216 253.295 15.2897 252.984 14.5102C252.661 13.7179 252.147 13.0178 251.488 12.4722C250.676 11.8253 249.735 11.3592 248.728 11.1051C247.355 10.7516 245.94 10.5867 244.523 10.615H237.92V23.3578Z" fill="#244B5A"/>
<path d="M265.055 7.20996H275.683C279.397 7.20996 282.329 8.0182 284.479 9.63469C286.628 11.2519 287.703 13.6939 287.703 16.9607C287.703 20.2286 286.628 22.6792 284.479 24.3124C282.329 25.9463 279.397 26.7631 275.683 26.7629H268.769V43.7363H265.055V7.20996ZM268.769 23.3578H274.754C276.173 23.3877 277.589 23.214 278.959 22.842C279.96 22.574 280.899 22.1093 281.719 21.4749C282.38 20.9424 282.895 20.2499 283.215 19.4629C283.529 18.6664 283.686 17.8168 283.679 16.9607C283.683 16.1216 283.525 15.2896 283.215 14.5102C282.892 13.718 282.378 13.0179 281.719 12.4722C280.907 11.8254 279.966 11.3593 278.959 11.1051C277.586 10.7516 276.171 10.5868 274.754 10.615H268.769V23.3578Z" fill="#244B5A"/>
<path d="M325.002 37.959C324.348 38.9273 323.577 39.811 322.707 40.5901C321.764 41.4369 320.715 42.1566 319.585 42.7309C318.379 43.3465 317.107 43.8225 315.793 44.1497C314.384 44.4995 312.937 44.6728 311.485 44.6656C308.895 44.6898 306.326 44.1988 303.928 43.2212C301.664 42.3064 299.608 40.9438 297.884 39.215C296.159 37.4863 294.802 35.4272 293.893 33.161C292.91 30.7187 292.419 28.1063 292.449 25.4738C292.419 22.8414 292.91 20.2291 293.893 17.7869C294.802 15.5207 296.159 13.4615 297.884 11.7327C299.608 10.004 301.664 8.64143 303.928 7.72673C306.326 6.74891 308.895 6.25785 311.485 6.28211C313.82 6.29471 316.13 6.74986 318.295 7.62342C320.604 8.54743 322.619 10.081 324.125 12.0604L320.875 14.4851C320.438 13.8348 319.918 13.245 319.327 12.7311C318.644 12.1265 317.891 11.6068 317.083 11.1834C316.22 10.7289 315.313 10.3658 314.374 10.0999C313.435 9.82827 312.463 9.68933 311.485 9.68719C309.318 9.65164 307.17 10.0919 305.191 10.977C303.396 11.7913 301.789 12.9681 300.471 14.4333C299.166 15.9027 298.159 17.611 297.504 19.4637C296.129 23.3524 296.129 27.5953 297.504 31.484C298.159 33.3367 299.166 35.0449 300.471 36.5141C301.789 37.9798 303.396 39.1567 305.191 39.9707C307.169 40.8563 309.318 41.2966 311.485 41.2605C312.445 41.261 313.404 41.1748 314.348 41.0029C315.31 40.8261 316.245 40.5315 317.135 40.1258C318.072 39.696 318.941 39.1309 319.714 38.4488C320.583 37.6727 321.338 36.7785 321.958 35.7922L325.002 37.959Z" fill="#244B5A"/>
<mask id="mask0_5948_125" style="mask-type:luminance" maskUnits="userSpaceOnUse" x="186" y="0" width="20" height="20">
<path d="M186.701 9.62017L196.321 19.1689L205.87 9.54902L196.25 0.00025041L186.701 9.62017Z" fill="white"/>
</mask>
<g mask="url(#mask0_5948_125)">
<path d="M186.872 0L186.702 1.50089V0H186.872Z" fill="#75CACA"/>
<path d="M187.096 0L186.702 3.48416V1.50089L186.872 0H187.096Z" fill="#74CBCA"/>
<path d="M187.32 0L186.702 5.46707V3.48416L187.096 0H187.32Z" fill="#74CBCA"/>
<path d="M187.544 0L186.702 7.45035V5.46707L187.32 0H187.544Z" fill="#73CBCA"/>
<path d="M187.768 0L186.702 9.43362V7.45035L187.544 0H187.768Z" fill="#73CBCA"/>
<path d="M187.992 0L186.702 11.4169V9.43362L187.768 0H187.992Z" fill="#72C9C9"/>
<path d="M188.216 0L186.702 13.3998V11.4169L187.992 0H188.216Z" fill="#72C9C9"/>
<path d="M188.44 0L186.702 15.3831V13.3998L188.216 0H188.44Z" fill="#70CACA"/>
<path d="M188.664 0L186.702 17.3663V15.3831L188.44 0H188.664Z" fill="#70CACA"/>
<path d="M188.889 0L186.724 19.1568L186.702 19.1543V17.3663L188.664 0H188.889Z" fill="#6FCAC8"/>
<path d="M189.113 0L186.947 19.1686H186.829L186.725 19.1568L188.889 0H189.113Z" fill="#6EC8C8"/>
<path d="M189.336 0L187.171 19.1686H186.946L189.112 0H189.336Z" fill="#6EC8C8"/>
<path d="M189.561 0L187.395 19.1686H187.171L189.337 0H189.561Z" fill="#6CC9C9"/>
<path d="M189.785 0L187.619 19.1686H187.395L189.561 0H189.785Z" fill="#6DC9C8"/>
<path d="M190.008 0L187.843 19.1686H187.618L189.784 0H190.008Z" fill="#69C7C8"/>
<path d="M190.233 0L188.068 19.1686H187.844L190.009 0H190.233Z" fill="#69C7C8"/>
<path d="M190.456 0L188.29 19.1686H188.066L190.232 0H190.456Z" fill="#69C8C7"/>
<path d="M190.681 0L188.515 19.1686H188.291L190.457 0H190.681Z" fill="#68C8C7"/>
<path d="M190.906 0L188.74 19.1686H188.516L190.682 0H190.906Z" fill="#67C7C7"/>
<path d="M191.13 0L188.964 19.1686H188.74L190.906 0H191.13Z" fill="#65C7C7"/>
<path d="M191.353 0L189.187 19.1686H188.963L191.129 0H191.353Z" fill="#64C7C7"/>
<path d="M191.578 0L189.411 19.1686H189.188L191.354 0H191.578Z" fill="#63C6C6"/>
<path d="M191.802 0L189.636 19.1686H189.412L191.578 0H191.802Z" fill="#60C6C6"/>
<path d="M192.024 0L189.859 19.1686H189.635L191.8 0H192.024Z" fill="#60C6C5"/>
<path d="M192.249 0L190.083 19.1686H189.859L192.025 0H192.249Z" fill="#5FC6C5"/>
<path d="M192.474 0L190.308 19.1686H190.084L192.25 0H192.474Z" fill="#5CC5C4"/>
<path d="M192.698 0L190.532 19.1686H190.308L192.474 0H192.698Z" fill="#5AC5C4"/>
<path d="M192.922 0L190.756 19.1686H190.532L192.698 0H192.922Z" fill="#5AC5C4"/>
<path d="M193.146 0L190.98 19.1686H190.756L192.922 0H193.146Z" fill="#57C4C4"/>
<path d="M193.37 0L191.203 19.1686H190.979L193.146 0H193.37Z" fill="#58C4C3"/>
<path d="M193.594 0L191.428 19.1686H191.204L193.37 0H193.594Z" fill="#55C4C3"/>
<path d="M193.818 0L191.653 19.1686H191.429L193.594 0H193.818Z" fill="#53C3C2"/>
<path d="M194.043 0L191.877 19.1686H191.653L193.819 0H194.043Z" fill="#52C3C2"/>
<path d="M194.266 0L192.1 19.1686H191.876L194.042 0H194.266Z" fill="#50C3C2"/>
<path d="M194.491 0L192.325 19.1686H192.101L194.267 0H194.491Z" fill="#50C1C0"/>
<path d="M194.715 0L192.549 19.1686H192.325L194.491 0H194.715Z" fill="#4BC2C0"/>
<path d="M194.939 0L192.773 19.1686H192.549L194.715 0H194.939Z" fill="#4CC1C0"/>
<path d="M195.162 0L192.996 19.1686H192.772L194.939 0H195.162Z" fill="#47C1BE"/>
<path d="M195.387 0L193.221 19.1686H192.997L195.163 0H195.387Z" fill="#46C0BE"/>
<path d="M195.611 0L193.445 19.1686H193.221L195.386 0H195.611Z" fill="#43C0BE"/>
<path d="M195.835 0L193.669 19.1686H193.445L195.611 0H195.835Z" fill="#40BFBD"/>
<path d="M196.059 0L193.893 19.1686H193.669L195.835 0H196.059Z" fill="#3BBFBD"/>
<path d="M196.284 0L194.119 19.1686H193.895L196.06 0H196.284Z" fill="#39BFBC"/>
<path d="M196.507 0L194.341 19.1686H194.117L196.283 0H196.507Z" fill="#34BEBD"/>
<path d="M196.732 0L194.566 19.1686H194.342L196.508 0H196.732Z" fill="#32BEBB"/>
<path d="M196.954 0L194.789 19.1686H194.564L196.73 0H196.954Z" fill="#2DBDBB"/>
<path d="M197.18 0L195.014 19.1686H194.79L196.956 0H197.18Z" fill="#24BCBB"/>
<path d="M197.404 0L195.238 19.1686H195.014L197.179 0H197.404Z" fill="#21BCB9"/>
<path d="M197.628 0L195.462 19.1686H195.238L197.404 0H197.628Z" fill="#18BBB9"/>
<path d="M197.852 0L195.686 19.1686H195.462L197.628 0H197.852Z" fill="#0FBAB9"/>
<path d="M198.075 0L195.91 19.1686H195.686L197.851 0H198.075Z" fill="#03BBB8"/>
<path d="M198.3 0L196.134 19.1686H195.91L198.076 0H198.3Z" fill="#06B8B6"/>
<path d="M198.524 0L196.358 19.1686H196.134L198.3 0H198.524Z" fill="#06B8B6"/>
<path d="M198.748 0L196.583 19.1686H196.358L198.524 0H198.748Z" fill="#03B7B5"/>
<path d="M198.972 0L196.806 19.1686H196.582L198.748 0H198.972Z" fill="#04B7B4"/>
<path d="M199.196 0L197.03 19.1686H196.806L198.971 0H199.196Z" fill="#00B6B5"/>
<path d="M199.42 0L197.254 19.1686H197.03L199.196 0H199.42Z" fill="#03B6B4"/>
<path d="M199.645 0L197.479 19.1686H197.255L199.421 0H199.645Z" fill="#05B6B2"/>
<path d="M199.869 0L197.703 19.1686H197.479L199.645 0H199.869Z" fill="#01B5B1"/>
<path d="M200.092 0L197.926 19.1686H197.702L199.868 0H200.092Z" fill="#01B5B1"/>
<path d="M200.317 0L198.151 19.1686H197.927L200.093 0H200.317Z" fill="#00B4B1"/>
<path d="M200.541 0L198.376 19.1686H198.151L200.317 0H200.541Z" fill="#00B3B0"/>
<path d="M200.765 0L198.599 19.1686H198.375L200.541 0H200.765Z" fill="#00B3B0"/>
<path d="M200.989 0L198.823 19.1686H198.599L200.765 0H200.989Z" fill="#00B2AF"/>
<path d="M201.213 0L199.047 19.1686H198.823L200.989 0H201.213Z" fill="#00B2AE"/>
<path d="M201.437 0L199.271 19.1686H199.047L201.213 0H201.437Z" fill="#00B1AE"/>
<path d="M201.662 0L199.495 19.1686H199.271L201.437 0H201.662Z" fill="#00B1AD"/>
<path d="M201.885 0L199.719 19.1686H199.495L201.661 0H201.885Z" fill="#00B0AC"/>
<path d="M202.109 0L199.943 19.1686H199.719L201.885 0H202.109Z" fill="#00AFAC"/>
<path d="M205.745 0L205.871 0.0139767V19.1686H199.943L202.109 0H205.745Z" fill="#00AFAC"/>
</g>
<mask id="mask1_5948_125" style="mask-type:luminance" maskUnits="userSpaceOnUse" x="216" y="3" width="13" height="13">
<path d="M216.855 9.49089L222.498 15.0918L228.099 9.44915L222.456 3.84824L216.855 9.49089Z" fill="white"/>
</mask>
<g mask="url(#mask1_5948_125)">
<path d="M228.099 7.1338L227.946 3.84961H228.099V7.1338Z" fill="#75CACA"/>
<path d="M228.099 10.5846L227.785 3.84961H227.946L228.099 7.1338V10.5846Z" fill="#74CBCA"/>
<path d="M228.099 14.0355L227.624 3.84961H227.785L228.099 10.5846V14.0355Z" fill="#74CBCA"/>
<path d="M227.987 15.0934L227.464 3.84961H227.624L228.099 14.0355V15.0934H227.987Z" fill="#73CBCA"/>
<path d="M227.826 15.0934L227.303 3.84961H227.464L227.987 15.0934H227.826Z" fill="#72C9C9"/>
<path d="M227.666 15.0934L227.143 3.84961H227.303L227.827 15.0934H227.666Z" fill="#72C9C9"/>
<path d="M227.505 15.0934L226.981 3.84961H227.142L227.666 15.0934H227.505Z" fill="#70CACA"/>
<path d="M227.344 15.0934L226.82 3.84961H226.981L227.504 15.0934H227.344Z" fill="#6FCAC8"/>
<path d="M227.184 15.0934L226.66 3.84961H226.821L227.345 15.0934H227.184Z" fill="#6EC8C8"/>
<path d="M227.023 15.0934L226.499 3.84961H226.66L227.184 15.0934H227.023Z" fill="#6EC8C8"/>
<path d="M226.863 15.0934L226.339 3.84961H226.5L227.023 15.0934H226.863Z" fill="#6CC9C9"/>
<path d="M226.701 15.0934L226.178 3.84961H226.338L226.862 15.0934H226.701Z" fill="#6DC9C8"/>
<path d="M226.541 15.0934L226.017 3.84961H226.178L226.701 15.0934H226.541Z" fill="#69C7C8"/>
<path d="M226.381 15.0934L225.857 3.84961H226.018L226.542 15.0934H226.381Z" fill="#69C7C8"/>
<path d="M226.219 15.0934L225.695 3.84961H225.856L226.38 15.0934H226.219Z" fill="#69C8C7"/>
<path d="M226.059 15.0934L225.535 3.84961H225.696L226.22 15.0934H226.059Z" fill="#68C8C7"/>
<path d="M225.898 15.0934L225.374 3.84961H225.535L226.059 15.0934H225.898Z" fill="#67C7C7"/>
<path d="M225.737 15.0934L225.214 3.84961H225.374L225.898 15.0934H225.737Z" fill="#65C7C7"/>
<path d="M225.577 15.0934L225.054 3.84961H225.214L225.738 15.0934H225.577Z" fill="#64C7C7"/>
<path d="M225.416 15.0934L224.893 3.84961H225.053L225.577 15.0934H225.416Z" fill="#63C6C6"/>
<path d="M225.256 15.0934L224.732 3.84961H224.893L225.417 15.0934H225.256Z" fill="#60C6C6"/>
<path d="M225.095 15.0934L224.571 3.84961H224.732L225.256 15.0934H225.095Z" fill="#60C6C5"/>
<path d="M224.933 15.0934L224.409 3.84961H224.57L225.093 15.0934H224.933Z" fill="#5FC6C5"/>
<path d="M224.773 15.0934L224.249 3.84961H224.41L224.934 15.0934H224.773Z" fill="#5FC6C5"/>
<path d="M224.611 15.0934L224.088 3.84961H224.248L224.772 15.0934H224.611Z" fill="#5CC5C4"/>
<path d="M224.45 15.0934L223.927 3.84961H224.088L224.611 15.0934H224.45Z" fill="#5AC5C4"/>
<path d="M224.29 15.0934L223.767 3.84961H223.927L224.451 15.0934H224.29Z" fill="#5AC5C4"/>
<path d="M224.129 15.0934L223.605 3.84961H223.766L224.29 15.0934H224.129Z" fill="#57C4C4"/>
<path d="M223.969 15.0934L223.445 3.84961H223.606L224.13 15.0934H223.969Z" fill="#58C4C3"/>
<path d="M223.808 15.0934L223.284 3.84961H223.445L223.969 15.0934H223.808Z" fill="#55C4C3"/>
<path d="M223.649 15.0934L223.125 3.84961H223.286L223.81 15.0934H223.649Z" fill="#53C3C2"/>
<path d="M223.487 15.0934L222.963 3.84961H223.124L223.647 15.0934H223.487Z" fill="#53C3C2"/>
<path d="M223.325 15.0934L222.802 3.84961H222.962L223.486 15.0934H223.325Z" fill="#52C3C2"/>
<path d="M223.167 15.0934L222.643 3.84961H222.803L223.327 15.0934H223.167Z" fill="#50C3C2"/>
<path d="M223.005 15.0934L222.481 3.84961H222.642L223.166 15.0934H223.005Z" fill="#50C1C0"/>
<path d="M222.843 15.0934L222.319 3.84961H222.48L223.004 15.0934H222.843Z" fill="#4DC2C1"/>
<path d="M222.684 15.0934L222.16 3.84961H222.321L222.845 15.0934H222.684Z" fill="#4CC2C0"/>
<path d="M222.523 15.0934L221.999 3.84961H222.16L222.683 15.0934H222.523Z" fill="#4BC0BF"/>
<path d="M222.362 15.0934L221.839 3.84961H222L222.523 15.0934H222.362Z" fill="#47C1BE"/>
<path d="M222.201 15.0934L221.678 3.84961H221.838L222.362 15.0934H222.201Z" fill="#46C0BE"/>
<path d="M222.041 15.0934L221.518 3.84961H221.678L222.202 15.0934H222.041Z" fill="#43C0BE"/>
<path d="M221.88 15.0934L221.356 3.84961H221.517L222.041 15.0934H221.88Z" fill="#41C0BE"/>
<path d="M221.719 15.0934L221.195 3.84961H221.356L221.88 15.0934H221.719Z" fill="#40BFBD"/>
<path d="M221.559 15.0934L221.035 3.84961H221.196L221.719 15.0934H221.559Z" fill="#3BBFBD"/>
<path d="M221.398 15.0934L220.874 3.84961H221.035L221.559 15.0934H221.398Z" fill="#3CBFBC"/>
<path d="M221.237 15.0934L220.714 3.84961H220.874L221.398 15.0934H221.237Z" fill="#39BFBC"/>
<path d="M221.076 15.0934L220.553 3.84961H220.714L221.237 15.0934H221.076Z" fill="#34BEBD"/>
<path d="M220.915 15.0934L220.392 3.84961H220.552L221.076 15.0934H220.915Z" fill="#32BEBB"/>
<path d="M220.755 15.0934L220.231 3.84961H220.392L220.916 15.0934H220.755Z" fill="#2FBEBC"/>
<path d="M220.594 15.0934L220.07 3.84961H220.231L220.755 15.0934H220.594Z" fill="#2DBDBB"/>
<path d="M220.434 15.0934L219.91 3.84961H220.071L220.595 15.0934H220.434Z" fill="#2BBDBA"/>
<path d="M220.273 15.0934L219.749 3.84961H219.91L220.434 15.0934H220.273Z" fill="#24BCBB"/>
<path d="M220.112 15.0934L219.588 3.84961H219.749L220.272 15.0934H220.112Z" fill="#21BCB9"/>
<path d="M219.951 15.0934L219.428 3.84961H219.588L220.112 15.0934H219.951Z" fill="#18BBB9"/>
<path d="M219.791 15.0934L219.267 3.84961H219.428L219.951 15.0934H219.791Z" fill="#16BAB9"/>
<path d="M219.629 15.0934L219.105 3.84961H219.266L219.79 15.0934H219.629Z" fill="#11BAB7"/>
<path d="M219.469 15.0934L218.945 3.84961H219.106L219.63 15.0934H219.469Z" fill="#03BBB8"/>
<path d="M219.308 15.0934L218.784 3.84961H218.945L219.469 15.0934H219.308Z" fill="#06B8B6"/>
<path d="M219.148 15.0934L218.624 3.84961H218.785L219.308 15.0934H219.148Z" fill="#06B8B6"/>
<path d="M218.986 15.0934L218.463 3.84961H218.624L219.147 15.0934H218.986Z" fill="#06B8B6"/>
<path d="M218.827 15.0934L218.304 3.84961H218.464L218.988 15.0934H218.827Z" fill="#00B7B6"/>
<path d="M218.665 15.0934L218.142 3.84961H218.303L218.826 15.0934H218.665Z" fill="#03B7B5"/>
<path d="M218.504 15.0934L217.98 3.84961H218.141L218.665 15.0934H218.504Z" fill="#04B7B4"/>
<path d="M218.345 15.0934L217.821 3.84961H217.982L218.506 15.0934H218.345Z" fill="#00B6B5"/>
<path d="M218.184 15.0934L217.66 3.84961H217.821L218.344 15.0934H218.184Z" fill="#00B6B5"/>
<path d="M218.022 15.0934L217.498 3.84961H217.659L218.183 15.0934H218.022Z" fill="#00B6B5"/>
<path d="M217.862 15.0934L217.339 3.84961H217.499L218.023 15.0934H217.862Z" fill="#03B6B4"/>
<path d="M217.702 15.0934L217.178 3.84961H217.339L217.862 15.0934H217.702Z" fill="#03B6B4"/>
<path d="M217.541 15.0934L217.018 3.84961H217.178L217.702 15.0934H217.541Z" fill="#05B6B2"/>
<path d="M217.38 15.0934L216.856 3.84961H217.017L217.541 15.0934H217.38Z" fill="#01B5B1"/>
<path d="M217.219 15.0934L216.855 7.28682V3.84961H216.856L217.38 15.0934H217.219Z" fill="#01B5B1"/>
<path d="M217.058 15.0927L216.855 10.737V7.28613L217.219 15.0927H217.058Z" fill="#01B5B1"/>
<path d="M216.897 15.093L216.855 14.1881V10.7373L217.058 15.093H216.897Z" fill="#00B4B1"/>
<path d="M216.855 14.1885L216.897 15.0934H216.855V14.1885Z" fill="#00B4B1"/>
</g>
<path d="M196.672 3.78976L190.89 9.61557L196.715 15.398L201.644 15.3797L196.475 10.2531L221.995 10.1585L219.759 12.4102L222.223 12.4013L225.114 9.48835L222.201 6.5973L219.737 6.60626L221.991 8.84183L196.471 8.93645L201.6 3.77148L196.672 3.78976Z" fill="#244B5A"/>
<line x1="4" y1="77.5" x2="325" y2="77.5" stroke="black" stroke-opacity="0.25"/>
<line x1="4" y1="183.5" x2="325" y2="183.5" stroke="black" stroke-opacity="0.25"/>
<line y1="289.5" x2="321" y2="289.5" stroke="black" stroke-opacity="0.25"/>
<path d="M19.544 45.624C13.64 45.624 9.08 43.272 6.296 40.056L10.472 35.352C12.824 37.848 15.944 39.24 19.256 39.24C22.856 39.24 25.016 37.56 25.016 35.208C25.016 32.664 23 31.368 18.584 31.416H14.792V25.368L18.584 25.416C22.184 25.416 24.344 24.072 24.344 21.72C24.344 19.32 22.04 17.784 18.776 17.784C15.704 17.784 13.256 19.32 11.048 21.624L6.968 17.304C9.704 13.992 13.64 11.448 19.496 11.448C26.888 11.448 31.544 15.24 31.544 20.472C31.544 24.264 29 27 25.352 28.056C28.952 28.872 32.264 31.416 32.264 35.784C32.264 41.496 27.272 45.624 19.544 45.624ZM49.265 45.624C43.745 45.624 39.569 43.608 36.497 40.536L40.673 35.544C43.169 37.896 46.145 39.432 49.313 39.432C53.057 39.432 55.313 37.224 55.313 34.392C55.313 31.512 52.961 29.592 49.361 29.592C46.865 29.592 44.753 30.408 42.977 31.752L38.225 29.832L38.705 12.024H60.593V18.408H45.233L45.041 25.704C46.673 24.552 48.785 23.688 51.473 23.688C57.329 23.688 62.369 27.432 62.369 34.152C62.369 41.16 57.137 45.624 49.265 45.624ZM75.3324 28.584C70.3884 28.584 67.1244 24.888 67.1244 20.184C67.1244 15.432 70.3884 11.688 75.3324 11.688C80.3244 11.688 83.5884 15.48 83.5884 20.136C83.5884 24.888 80.1804 28.584 75.3324 28.584ZM71.4444 45L94.3404 12.024H99.9084L76.9644 45H71.4444ZM75.3324 24.456C77.3484 24.456 78.8364 22.776 78.8364 20.136C78.8364 17.592 77.3484 15.864 75.3324 15.864C73.2684 15.864 71.8284 17.544 71.8284 20.136C71.8284 22.728 73.3644 24.456 75.3324 24.456ZM95.9244 45.528C91.0284 45.528 87.6684 41.784 87.6684 37.08C87.6684 32.376 91.0284 28.632 95.9244 28.632C100.916 28.632 104.132 32.424 104.132 37.08C104.132 41.832 100.772 45.528 95.9244 45.528ZM95.9244 41.352C97.9884 41.352 99.4284 39.672 99.4284 37.08C99.4284 34.488 97.8924 32.76 95.9244 32.76C93.8604 32.76 92.4204 34.44 92.4204 37.08C92.4204 39.624 93.9084 41.352 95.9244 41.352Z" fill="#9E008E"/>
<path d="M14.552 144V119.136L8.936 122.64L6.056 117.648L15.944 111.024H21.608V144H14.552ZM41.081 144.576C33.785 144.576 27.833 141.12 27.833 135.168C27.833 131.28 30.521 128.4 34.313 126.96C31.049 125.568 28.697 123.168 28.697 119.424C28.697 113.616 34.649 110.448 41.081 110.448C47.657 110.448 53.513 113.76 53.513 119.424C53.513 123.12 51.161 125.52 47.849 126.96C51.737 128.496 54.329 131.376 54.329 135.168C54.329 141.168 48.329 144.576 41.081 144.576ZM41.081 124.512C43.673 124.32 46.457 122.784 46.457 120.336C46.457 118.08 44.249 116.4 41.081 116.4C37.913 116.4 35.753 118.08 35.753 120.336C35.753 122.88 38.489 124.32 41.081 124.512ZM41.081 138.624C44.585 138.624 47.177 136.896 47.177 134.4C47.177 131.808 43.913 130.176 41.081 130.08C38.249 130.176 35.033 131.808 35.033 134.4C35.033 136.896 37.577 138.624 41.081 138.624ZM67.4105 127.584C62.4665 127.584 59.2025 123.888 59.2025 119.184C59.2025 114.432 62.4665 110.688 67.4105 110.688C72.4025 110.688 75.6665 114.48 75.6665 119.136C75.6665 123.888 72.2585 127.584 67.4105 127.584ZM63.5225 144L86.4185 111.024H91.9865L69.0425 144H63.5225ZM67.4105 123.456C69.4265 123.456 70.9145 121.776 70.9145 119.136C70.9145 116.592 69.4265 114.864 67.4105 114.864C65.3465 114.864 63.9065 116.544 63.9065 119.136C63.9065 121.728 65.4425 123.456 67.4105 123.456ZM88.0025 144.528C83.1065 144.528 79.7465 140.784 79.7465 136.08C79.7465 131.376 83.1065 127.632 88.0025 127.632C92.9945 127.632 96.2105 131.424 96.2105 136.08C96.2105 140.832 92.8505 144.528 88.0025 144.528ZM88.0025 140.352C90.0665 140.352 91.5065 138.672 91.5065 136.08C91.5065 133.488 89.9705 131.76 88.0025 131.76C85.9385 131.76 84.4985 133.44 84.4985 136.08C84.4985 138.624 85.9865 140.352 88.0025 140.352Z" fill="#9E008E"/>
<path d="M6.968 261V255.24L19.112 245.832C23.048 242.712 24.296 240.552 24.296 238.248C24.296 235.512 21.992 233.88 19.304 233.88C16.088 233.88 13.64 235.512 11.24 238.248L6.728 233.88C9.992 229.752 14.168 227.448 19.496 227.448C26.504 227.448 31.592 231.768 31.592 237.96C31.592 242.376 29.672 245.784 23.912 249.96L17.912 254.616H31.88V261H6.968ZM48.9838 261.624C43.4638 261.624 39.2878 259.608 36.2158 256.536L40.3918 251.544C42.8878 253.896 45.8638 255.432 49.0318 255.432C52.7758 255.432 55.0318 253.224 55.0318 250.392C55.0318 247.512 52.6798 245.592 49.0798 245.592C46.5838 245.592 44.4718 246.408 42.6958 247.752L37.9438 245.832L38.4238 228.024H60.3118V234.408H44.9518L44.7598 241.704C46.3918 240.552 48.5038 239.688 51.1918 239.688C57.0478 239.688 62.0878 243.432 62.0878 250.152C62.0878 257.16 56.8558 261.624 48.9838 261.624ZM75.0511 244.584C70.1071 244.584 66.8431 240.888 66.8431 236.184C66.8431 231.432 70.1071 227.688 75.0511 227.688C80.0431 227.688 83.3071 231.48 83.3071 236.136C83.3071 240.888 79.8991 244.584 75.0511 244.584ZM71.1631 261L94.0591 228.024H99.6271L76.6831 261H71.1631ZM75.0511 240.456C77.0671 240.456 78.5551 238.776 78.5551 236.136C78.5551 233.592 77.0671 231.864 75.0511 231.864C72.9871 231.864 71.5471 233.544 71.5471 236.136C71.5471 238.728 73.0831 240.456 75.0511 240.456ZM95.6431 261.528C90.7471 261.528 87.3871 257.784 87.3871 253.08C87.3871 248.376 90.7471 244.632 95.6431 244.632C100.635 244.632 103.851 248.424 103.851 253.08C103.851 257.832 100.491 261.528 95.6431 261.528ZM95.6431 257.352C97.7071 257.352 99.1471 255.672 99.1471 253.08C99.1471 250.488 97.6111 248.76 95.6431 248.76C93.5791 248.76 92.1391 250.44 92.1391 253.08C92.1391 255.624 93.6271 257.352 95.6431 257.352Z" fill="#9E008E"/>
<path d="M215.943 126.138C215.943 126.839 215.735 127.524 215.346 128.106C214.956 128.689 214.403 129.143 213.756 129.411C213.108 129.68 212.396 129.75 211.708 129.613C211.021 129.476 210.39 129.139 209.894 128.643C209.399 128.148 209.061 127.516 208.925 126.829C208.788 126.142 208.858 125.429 209.126 124.782C209.394 124.135 209.848 123.581 210.431 123.192C211.014 122.803 211.699 122.595 212.4 122.595C213.339 122.595 214.241 122.968 214.905 123.632C215.569 124.297 215.943 125.198 215.943 126.138ZM220.526 126.138C220.526 126.839 220.734 127.524 221.123 128.106C221.512 128.689 222.066 129.143 222.713 129.411C223.361 129.68 224.073 129.75 224.76 129.613C225.448 129.476 226.079 129.139 226.574 128.643C227.07 128.148 227.407 127.516 227.544 126.829C227.681 126.142 227.611 125.429 227.343 124.782C227.074 124.135 226.62 123.581 226.038 123.192C225.455 122.803 224.77 122.595 224.069 122.595C223.129 122.595 222.228 122.968 221.564 123.632C220.899 124.297 220.526 125.198 220.526 126.138Z" fill="#419EDA"/>
<path d="M244.65 129.983H243.87C242.311 129.982 240.772 129.624 239.372 128.937C239.827 126.31 240.029 123.646 239.976 120.98C238.461 118.782 236.736 116.737 234.825 114.873C235.67 113.28 236.922 111.939 238.453 110.986L239.118 110.574L238.598 109.97C235.978 107.021 232.747 104.679 229.129 103.107L228.41 102.793L228.228 103.555C227.799 105.308 226.912 106.917 225.659 108.216C223.291 106.957 220.806 105.933 218.24 105.157C215.676 105.921 213.193 106.933 210.827 108.18C209.578 106.883 208.696 105.279 208.269 103.53L208.082 102.769L207.362 103.083C203.74 104.681 200.508 107.045 197.888 110.012L197.368 110.617L198.033 111.028C199.562 111.976 200.813 113.311 201.661 114.898C199.753 116.749 198.028 118.78 196.509 120.962C196.452 123.646 196.655 126.329 197.114 128.973C195.721 129.656 194.191 130.011 192.639 130.013H191.853L191.067 129.917L191.14 130.697C191.517 134.634 192.755 138.441 194.768 141.846L195.179 142.499L195.784 141.991C197.166 140.821 198.836 140.041 200.621 139.73C201.772 142.109 203.149 144.373 204.732 146.49C207.274 147.381 209.896 148.025 212.562 148.413C212.827 150.219 212.602 152.063 211.909 153.751L211.625 154.477L212.387 154.646C214.313 155.073 216.279 155.29 218.252 155.293L224.117 154.646L224.879 154.477L224.582 153.751C223.889 152.059 223.666 150.21 223.935 148.4C226.591 148.013 229.203 147.371 231.735 146.484C233.326 144.376 234.711 142.121 235.871 139.748C237.655 140.06 239.325 140.84 240.708 142.009L241.313 142.511L241.712 141.84C243.726 138.436 244.965 134.629 245.34 130.691L245.412 129.911L244.65 129.983ZM226.632 139.512C221.135 141.024 215.332 141.024 209.835 139.512C206.764 134.762 205.002 129.285 204.726 123.635C206.492 121.444 208.539 119.497 210.815 117.842C213.103 116.178 215.599 114.82 218.24 113.803C220.873 114.819 223.363 116.172 225.647 117.83C227.931 119.496 229.986 121.456 231.759 123.659C231.462 129.3 229.694 134.765 226.632 139.512Z" fill="#419EDA"/>
<path d="M261.033 117.03C266.506 117.03 269.579 120.957 269.579 127.087C269.586 127.751 269.541 128.414 269.445 129.071H254.955C255.219 133.704 258.002 136.617 262.103 136.617C264.009 136.596 265.866 136.013 267.443 134.942L268.754 137.312C266.67 138.728 264.214 139.496 261.695 139.519C255.962 139.541 251.418 135.339 251.418 128.325C251.418 121.31 256.137 117.03 261.033 117.03ZM266.417 126.69C266.417 122.32 264.474 119.894 261.123 119.894C258.121 119.894 255.386 122.365 254.948 126.69H266.417ZM273.696 120.515H270.519V117.78L273.863 117.561L274.305 111.561H277.348V117.561H283.122V120.533H277.359V132.43C277.359 135.079 278.199 136.576 280.669 136.576C281.504 136.516 282.323 136.322 283.096 136.001L283.801 138.735C282.527 139.206 281.187 139.478 279.83 139.541C275.241 139.541 273.696 136.628 273.696 132.393V120.515ZM294.963 117.03C296.124 117.024 297.274 117.247 298.349 117.686C299.424 118.126 300.402 118.772 301.227 119.59L299.417 121.927C298.139 120.812 296.817 120.032 295.093 120.032C291.21 120.032 288.405 123.376 288.405 128.325C288.405 133.273 291.08 136.532 295.011 136.532C297.039 136.532 298.763 135.518 300.041 134.37L301.673 136.751C299.766 138.5 297.286 139.492 294.699 139.541C289.007 139.541 284.641 135.454 284.641 128.336C284.637 121.132 289.438 117.03 294.963 117.03ZM311.905 117.03C314.376 117.03 315.992 117.955 317.905 119.5L317.727 115.837V107.589H321.39V139.003H318.392L318.084 136.487H317.95C316.274 138.118 313.978 139.541 311.463 139.541C306.083 139.541 302.598 135.454 302.598 128.325C302.598 121.336 307.008 117.03 311.905 117.03ZM312.258 136.487C314.242 136.487 315.973 135.518 317.731 133.515V122.324C315.921 120.693 314.29 120.073 312.529 120.073C309.089 120.073 306.354 123.379 306.354 128.28C306.347 133.4 308.509 136.487 312.258 136.487Z" fill="black"/>
<path d="M263.411 207.189C263.443 208.549 263.309 209.895 262.967 211.211C262.874 211.567 262.958 211.625 263.29 211.663C267.619 212.16 271.642 213.541 275.321 215.885C275.754 216.161 275.839 216.008 275.997 215.618C277.064 212.987 278.656 210.721 280.832 208.886C281.561 208.27 282.345 207.725 283.316 207.548C284.293 207.369 284.91 207.843 285.009 208.841C285.106 209.812 284.888 210.736 284.544 211.63C283.507 214.324 281.907 216.633 279.719 218.519C279.388 218.804 279.33 218.942 279.683 219.271C281.426 220.893 282.912 222.731 284.196 224.737C284.401 225.057 284.408 225.218 284.055 225.422C283.031 226.015 282.019 226.631 281.02 227.264C280.689 227.474 280.519 227.474 280.292 227.11C278.822 224.753 276.975 222.73 274.773 221.037C271.205 218.292 267.192 216.599 262.701 216.199C253.868 215.411 246.686 218.545 241.138 225.45C241.032 225.582 240.93 225.717 240.831 225.855C240.049 226.952 240.05 226.953 238.94 226.236C238.194 225.754 237.456 225.26 236.699 224.796C236.371 224.596 236.264 224.45 236.521 224.073C237.818 222.179 239.294 220.441 240.998 218.906C241.347 218.591 241.385 218.452 241.021 218.099C238.783 215.928 237.068 213.426 236.303 210.353C236.163 209.791 236.142 209.219 236.231 208.651C236.358 207.835 236.96 207.405 237.775 207.525C238.801 207.676 239.619 208.245 240.384 208.886C242.431 210.601 243.951 212.717 245.021 215.153C245.221 215.607 245.365 215.639 245.778 215.396C249.44 213.238 253.389 211.96 257.63 211.625C258.187 211.581 258.253 211.396 258.147 210.876C257.572 208.037 257.585 205.208 258.436 202.414C258.64 201.743 258.923 201.105 259.362 200.552C260.141 199.571 261.058 199.572 261.833 200.574C262.604 201.572 262.906 202.763 263.145 203.971C263.355 205.033 263.432 206.107 263.411 207.189Z" fill="#27799F"/>
<path d="M257.757 272.117C257.806 271.041 257.789 269.958 258.04 268.899C258.132 268.508 258.144 268.279 257.583 268.23C253.262 267.852 249.234 266.537 245.514 264.304C245.127 264.071 245.02 264.159 244.846 264.523C243.766 266.784 242.321 268.775 240.388 270.388C239.654 270.999 238.874 271.548 237.903 271.727C236.925 271.908 236.307 271.435 236.206 270.439C236.107 269.467 236.332 268.546 236.669 267.649C237.545 265.316 238.895 263.28 240.659 261.534C241.084 261.113 241.017 260.928 240.622 260.574C239.296 259.382 238.157 258.019 237.095 256.587C236.856 256.264 236.83 256.095 237.195 255.855C238.167 255.216 239.124 254.553 240.062 253.866C240.413 253.608 240.589 253.628 240.851 253.992C242.954 256.903 245.589 259.223 248.754 260.919C253.514 263.47 258.576 264.367 263.914 263.494C270.381 262.438 275.549 259.225 279.451 253.971C279.696 253.641 279.866 253.541 280.24 253.818C281.174 254.51 282.135 255.168 283.106 255.809C283.446 256.033 283.498 256.178 283.238 256.53C282.24 257.877 281.173 259.161 279.951 260.308C279.641 260.598 279.704 260.718 279.98 260.978C282.335 263.194 284.124 265.767 284.918 268.951C285.053 269.491 285.068 270.043 284.989 270.59C284.867 271.442 284.263 271.877 283.411 271.746C282.409 271.591 281.607 271.036 280.856 270.411C278.77 268.673 277.238 266.513 276.149 264.038C275.975 263.643 275.859 263.611 275.505 263.84C271.823 266.222 267.797 267.658 263.44 268.15C263.026 268.197 263.05 268.339 263.109 268.671C263.572 271.263 263.57 273.848 262.888 276.407C262.658 277.269 262.346 278.101 261.758 278.795C261.009 279.681 260.137 279.687 259.411 278.776C258.48 277.61 258.197 276.195 257.944 274.774C257.788 273.894 257.811 273.003 257.757 272.117Z" fill="#27799F"/>
<path d="M282.694 237.385C283.466 241.634 283.474 245.853 283.451 250.077C283.448 250.651 283.294 250.783 282.746 250.765C281.499 250.722 280.248 250.735 279 250.761C278.601 250.769 278.509 250.646 278.509 250.261C278.521 243.657 278.521 237.053 278.509 230.449C278.508 230.035 278.618 229.912 279.036 229.919C280.624 229.942 282.212 229.951 283.798 229.915C284.275 229.904 284.454 230.086 284.6 230.5C285.927 234.241 287.445 237.916 288.46 241.764C288.49 241.881 288.551 241.991 288.618 242.153C288.898 241.784 288.939 241.376 289.043 241.002C290.051 237.377 291.426 233.875 292.633 230.317C292.741 229.998 292.914 229.918 293.234 229.921C294.863 229.937 296.494 229.942 298.123 229.918C298.536 229.912 298.606 230.063 298.606 230.431C298.597 237.035 298.597 243.639 298.605 250.243C298.606 250.6 298.557 250.771 298.132 250.762C296.799 250.733 295.465 250.734 294.132 250.761C293.712 250.77 293.654 250.604 293.652 250.242C293.636 246.284 293.588 242.326 294.235 238.402C294.276 238.153 294.268 237.896 294.276 237.642C294.278 237.591 294.246 237.538 294.189 237.352C293.98 237.977 293.808 238.486 293.639 238.995C292.571 242.225 291.323 245.389 290.172 248.589C290.033 248.975 289.834 249.106 289.433 249.086C288.778 249.053 288.12 249.061 287.465 249.084C287.16 249.094 287.012 248.984 286.91 248.704C285.599 245.092 284.157 241.526 283.081 237.83C283.037 237.68 283.029 237.492 282.694 237.385Z" fill="#27799F"/>
<path d="M239.389 240.343C239.389 243.601 239.381 246.86 239.399 250.119C239.401 250.584 239.329 250.782 238.793 250.766C237.355 250.724 235.915 250.735 234.477 250.762C234.039 250.771 233.904 250.662 233.908 250.208C233.932 247.859 233.907 245.51 233.929 243.161C233.934 242.684 233.838 242.501 233.31 242.512C231.66 242.549 230.009 242.55 228.359 242.512C227.805 242.499 227.707 242.693 227.713 243.196C227.738 245.524 227.708 247.852 227.737 250.179C227.743 250.671 227.593 250.772 227.133 250.763C225.673 250.733 224.213 250.741 222.753 250.76C222.381 250.765 222.244 250.688 222.245 250.277C222.259 243.654 222.259 237.031 222.246 230.407C222.245 230 222.377 229.916 222.753 229.921C224.212 229.941 225.673 229.948 227.133 229.918C227.597 229.909 227.743 230.018 227.736 230.506C227.708 232.664 227.739 234.823 227.712 236.981C227.706 237.485 227.806 237.676 228.359 237.664C230.009 237.626 231.66 237.626 233.31 237.664C233.838 237.676 233.934 237.494 233.929 237.017C233.906 234.837 233.932 232.657 233.909 230.478C233.904 230.027 234.036 229.911 234.476 229.919C235.915 229.946 237.355 229.957 238.793 229.915C239.332 229.899 239.401 230.103 239.399 230.566C239.381 233.825 239.389 237.084 239.389 240.343Z" fill="#27799F"/>
<path d="M243.846 240.369C243.846 237.088 243.854 233.808 243.836 230.527C243.833 230.077 243.913 229.913 244.414 229.916C248.478 229.939 252.542 229.936 256.606 229.919C257.06 229.917 257.234 230.003 257.217 230.502C257.178 231.665 257.186 232.83 257.214 233.994C257.225 234.423 257.077 234.519 256.675 234.516C254.431 234.499 252.187 234.521 249.944 234.497C249.461 234.492 249.292 234.593 249.303 235.118C249.328 236.243 249.336 236.023 249.305 237.148C249.292 237.638 249.41 237.799 249.928 237.79C251.769 237.756 253.611 237.797 255.451 237.763C255.972 237.754 256.083 237.924 256.07 238.405C256.037 239.59 256.041 240.776 256.068 241.961C256.078 242.381 255.949 242.498 255.534 242.493C253.672 242.473 251.809 242.499 249.947 242.474C249.474 242.468 249.293 242.557 249.302 243.088C249.317 243.945 249.291 244.796 249.305 245.626C249.312 246.085 249.441 246.187 249.876 246.183C252.225 246.163 254.575 246.187 256.924 246.162C257.415 246.157 257.577 246.275 257.558 246.786C257.518 247.928 257.531 249.072 257.553 250.215C257.561 250.606 257.482 250.763 257.041 250.762C252.808 250.745 248.575 250.744 244.342 250.762C243.889 250.764 243.838 250.591 243.839 250.211C243.851 246.93 243.846 243.65 243.846 240.369Z" fill="#27799F"/>
<path d="M261.627 240.323C261.627 237.064 261.638 233.805 261.615 230.545C261.612 230.049 261.737 229.904 262.241 229.916C263.658 229.952 265.077 229.956 266.494 229.915C267.023 229.9 267.107 230.087 267.106 230.559C267.09 235.533 267.104 240.506 267.084 245.48C267.082 246.013 267.175 246.201 267.765 246.19C269.965 246.148 272.167 246.189 274.368 246.161C274.858 246.155 274.969 246.304 274.956 246.768C274.923 247.931 274.929 249.096 274.954 250.259C274.962 250.649 274.852 250.761 274.458 250.76C270.352 250.746 266.246 250.745 262.14 250.761C261.718 250.763 261.616 250.636 261.618 250.229C261.634 246.927 261.627 243.625 261.627 240.323Z" fill="#27799F"/>
<line y1="395.5" x2="321" y2="395.5" stroke="black" stroke-opacity="0.25"/>
<line x1="-4.37114e-08" y1="502.5" x2="321" y2="502.5" stroke="black" stroke-opacity="0.25"/>
<path d="M19.552 361V336.136L13.936 339.64L11.056 334.648L20.944 328.024H26.608V361H19.552ZM35.233 361L48.337 334.408H32.017V328.024H56.545V333.352L43.201 361H35.233ZM68.8949 344.584C63.9509 344.584 60.6869 340.888 60.6869 336.184C60.6869 331.432 63.9509 327.688 68.8949 327.688C73.8869 327.688 77.1509 331.48 77.1509 336.136C77.1509 340.888 73.7429 344.584 68.8949 344.584ZM65.0069 361L87.9029 328.024H93.4709L70.5269 361H65.0069ZM68.8949 340.456C70.9109 340.456 72.3989 338.776 72.3989 336.136C72.3989 333.592 70.9109 331.864 68.8949 331.864C66.8309 331.864 65.3909 333.544 65.3909 336.136C65.3909 338.728 66.9269 340.456 68.8949 340.456ZM89.4869 361.528C84.5909 361.528 81.2309 357.784 81.2309 353.08C81.2309 348.376 84.5909 344.632 89.4869 344.632C94.4789 344.632 97.6949 348.424 97.6949 353.08C97.6949 357.832 94.3349 361.528 89.4869 361.528ZM89.4869 357.352C91.5509 357.352 92.9909 355.672 92.9909 353.08C92.9909 350.488 91.4549 348.76 89.4869 348.76C87.4229 348.76 85.9829 350.44 85.9829 353.08C85.9829 355.624 87.4709 357.352 89.4869 357.352Z" fill="#9E008E"/>
<path d="M11.968 466V460.24L24.112 450.832C28.048 447.712 29.296 445.552 29.296 443.248C29.296 440.512 26.992 438.88 24.304 438.88C21.088 438.88 18.64 440.512 16.24 443.248L11.728 438.88C14.992 434.752 19.168 432.448 24.496 432.448C31.504 432.448 36.592 436.768 36.592 442.96C36.592 447.376 34.672 450.784 28.912 454.96L22.912 459.616H36.88V466H11.968ZM57.5358 466V459.28H41.4078L40.7358 453.808L56.0478 433.072H64.5918V453.328H68.9598V459.28H64.5918V466H57.5358ZM48.1758 453.328H57.5358V440.56L48.1758 453.328ZM81.3636 449.584C76.4196 449.584 73.1556 445.888 73.1556 441.184C73.1556 436.432 76.4196 432.688 81.3636 432.688C86.3556 432.688 89.6196 436.48 89.6196 441.136C89.6196 445.888 86.2116 449.584 81.3636 449.584ZM77.4756 466L100.372 433.024H105.94L82.9956 466H77.4756ZM81.3636 445.456C83.3796 445.456 84.8676 443.776 84.8676 441.136C84.8676 438.592 83.3796 436.864 81.3636 436.864C79.2996 436.864 77.8596 438.544 77.8596 441.136C77.8596 443.728 79.3956 445.456 81.3636 445.456ZM101.956 466.528C97.0596 466.528 93.6996 462.784 93.6996 458.08C93.6996 453.376 97.0596 449.632 101.956 449.632C106.948 449.632 110.164 453.424 110.164 458.08C110.164 462.832 106.804 466.528 101.956 466.528ZM101.956 462.352C104.02 462.352 105.46 460.672 105.46 458.08C105.46 455.488 103.924 453.76 101.956 453.76C99.8916 453.76 98.4516 455.44 98.4516 458.08C98.4516 460.624 99.9396 462.352 101.956 462.352Z" fill="#9E008E"/>
<path d="M209.501 370.361C209.776 370.062 210.047 369.76 210.317 369.455C210.598 369.151 210.876 368.843 211.15 368.532C211.399 368.237 211.647 367.941 211.893 367.644C212.101 367.405 212.307 367.163 212.509 366.919H215.715C215.096 367.633 214.468 368.34 213.831 369.039C213.186 369.746 212.522 370.434 211.838 371.104C212.201 371.43 212.575 371.823 212.962 372.282C213.352 372.734 213.727 373.199 214.085 373.677C214.437 374.146 214.77 374.629 215.081 375.126C215.383 375.61 215.637 376.05 215.842 376.449H212.744C212.528 376.1 212.305 375.756 212.074 375.416C211.829 375.026 211.569 374.645 211.295 374.275C211.019 373.891 210.722 373.522 210.407 373.17C210.105 372.82 209.803 372.524 209.501 372.282V376.449H206.802V362.825L209.501 362.39V370.361M225.233 376.123C224.774 376.256 224.183 376.376 223.458 376.485C222.733 376.606 221.972 376.666 221.175 376.666C220.366 376.666 219.69 376.557 219.146 376.34C218.614 376.123 218.192 375.821 217.878 375.434C217.564 375.036 217.34 374.564 217.208 374.021C217.075 373.478 217.008 372.88 217.008 372.227V366.919H219.708V371.901C219.708 372.771 219.823 373.399 220.052 373.785C220.281 374.172 220.71 374.365 221.338 374.365C221.532 374.365 221.737 374.359 221.954 374.347C222.172 374.323 222.365 374.299 222.534 374.275V366.919H225.234L225.233 376.123ZM233.891 371.612C233.891 369.872 233.251 369.003 231.97 369.003C231.692 369.003 231.414 369.039 231.137 369.111C230.871 369.184 230.653 369.274 230.485 369.383V374.293C230.618 374.317 230.786 374.341 230.992 374.365C231.197 374.377 231.421 374.383 231.662 374.383C232.399 374.383 232.955 374.13 233.329 373.623C233.703 373.115 233.891 372.445 233.891 371.612ZM236.644 371.684C236.644 372.445 236.53 373.133 236.3 373.749C236.083 374.365 235.763 374.891 235.34 375.325C234.917 375.76 234.398 376.098 233.782 376.34C233.166 376.569 232.465 376.684 231.68 376.684C231.354 376.684 231.01 376.666 230.648 376.63C230.296 376.605 229.946 376.569 229.597 376.521C229.269 376.474 228.943 376.42 228.618 376.358C228.338 376.294 228.06 376.222 227.785 376.14V362.825L230.484 362.39V367.136C230.788 367.003 231.103 366.9 231.426 366.828C231.752 366.756 232.103 366.72 232.477 366.72C233.154 366.72 233.752 366.84 234.271 367.082C234.79 367.312 235.225 367.644 235.575 368.078C235.926 368.513 236.191 369.039 236.373 369.654C236.554 370.259 236.644 370.935 236.644 371.684ZM238.266 371.756C238.266 370.911 238.393 370.174 238.647 369.546C238.912 368.906 239.257 368.375 239.679 367.952C240.102 367.529 240.585 367.209 241.129 366.992C241.684 366.774 242.252 366.666 242.832 366.666C244.185 366.666 245.253 367.082 246.038 367.916C246.823 368.737 247.216 369.951 247.216 371.557C247.216 371.714 247.21 371.89 247.198 372.083C247.186 372.264 247.174 372.427 247.162 372.572H241.038C241.098 373.127 241.358 373.568 241.817 373.894C242.276 374.22 242.892 374.384 243.665 374.384C244.16 374.384 244.643 374.341 245.114 374.257C245.597 374.16 245.99 374.046 246.292 373.913L246.654 376.105C246.509 376.177 246.316 376.25 246.075 376.322C245.807 376.4 245.535 376.461 245.259 376.503C244.948 376.567 244.633 376.615 244.317 376.648C243.98 376.684 243.642 376.703 243.303 376.703C242.445 376.703 241.696 376.576 241.056 376.322C240.428 376.069 239.903 375.724 239.48 375.289C239.069 374.843 238.761 374.317 238.556 373.713C238.363 373.109 238.266 372.457 238.266 371.756ZM244.607 370.724C244.595 370.496 244.553 370.27 244.48 370.053C244.422 369.84 244.317 369.642 244.172 369.474C244.039 369.305 243.864 369.166 243.647 369.057C243.441 368.948 243.182 368.894 242.868 368.894C242.566 368.894 242.306 368.949 242.089 369.057C241.871 369.154 241.69 369.287 241.545 369.456C241.4 369.625 241.286 369.824 241.201 370.054C241.128 370.272 241.074 370.496 241.038 370.724L244.607 370.724ZM255.042 369.311C254.76 369.242 254.476 369.181 254.191 369.13C253.865 369.057 253.514 369.021 253.14 369.021C252.971 369.021 252.766 369.039 252.524 369.076C252.294 369.1 252.119 369.13 251.999 369.166V376.449H249.299V367.427C249.782 367.258 250.35 367.101 251.002 366.956C251.667 366.799 252.403 366.72 253.212 366.72C253.357 366.72 253.533 366.732 253.738 366.756C253.943 366.768 254.149 366.793 254.354 366.829C254.559 366.853 254.765 366.889 254.97 366.937C255.175 366.974 255.351 367.022 255.496 367.082L255.042 369.311ZM256.942 367.245C257.401 367.112 257.993 366.992 258.718 366.883C259.443 366.762 260.203 366.702 261.001 366.702C261.81 366.702 262.48 366.81 263.012 367.028C263.555 367.233 263.984 367.529 264.298 367.916C264.612 368.302 264.835 368.761 264.968 369.292C265.101 369.824 265.167 370.416 265.167 371.068V376.449H262.468V371.394C262.468 370.524 262.353 369.908 262.124 369.546C261.894 369.184 261.465 369.003 260.837 369.003C260.644 369.003 260.439 369.015 260.221 369.039C260.027 369.049 259.834 369.067 259.642 369.094V376.449H256.942L256.942 367.245ZM267.176 371.756C267.176 370.911 267.302 370.174 267.556 369.546C267.822 368.906 268.166 368.375 268.589 367.952C269.012 367.529 269.495 367.209 270.038 366.992C270.594 366.774 271.162 366.666 271.741 366.666C273.094 366.666 274.163 367.082 274.948 367.916C275.733 368.737 276.126 369.951 276.126 371.557C276.126 371.714 276.12 371.89 276.108 372.083C276.095 372.264 276.083 372.427 276.071 372.572H269.948C270.008 373.127 270.268 373.568 270.727 373.894C271.186 374.22 271.802 374.384 272.575 374.384C273.07 374.384 273.553 374.341 274.024 374.257C274.507 374.16 274.9 374.046 275.202 373.913L275.564 376.105C275.419 376.177 275.226 376.25 274.984 376.322C274.717 376.4 274.445 376.461 274.169 376.503C273.858 376.567 273.543 376.615 273.227 376.648C272.89 376.684 272.551 376.703 272.212 376.703C271.355 376.703 270.606 376.576 269.966 376.322C269.338 376.069 268.813 375.724 268.39 375.289C267.979 374.843 267.671 374.317 267.466 373.713C267.272 373.109 267.176 372.457 267.176 371.756M273.517 370.724C273.505 370.496 273.462 370.27 273.39 370.053C273.331 369.84 273.226 369.642 273.082 369.474C272.949 369.305 272.774 369.166 272.557 369.057C272.351 368.948 272.092 368.894 271.778 368.894C271.476 368.894 271.216 368.949 270.999 369.057C270.781 369.154 270.6 369.287 270.455 369.456C270.31 369.625 270.196 369.824 270.111 370.054C270.038 370.272 269.984 370.496 269.948 370.724L273.517 370.724ZM278.118 364.546L280.818 364.111V366.919H284.061V369.166H280.817V372.517C280.817 373.085 280.914 373.538 281.107 373.876C281.313 374.214 281.717 374.383 282.321 374.383C282.611 374.383 282.907 374.359 283.209 374.311C283.523 374.251 283.807 374.172 284.061 374.075L284.441 376.177C284.115 376.31 283.753 376.425 283.354 376.521C282.955 376.618 282.466 376.666 281.887 376.666C281.15 376.666 280.54 376.57 280.057 376.376C279.574 376.171 279.187 375.893 278.897 375.543C278.607 375.181 278.402 374.746 278.281 374.238C278.173 373.731 278.118 373.169 278.118 372.553V364.546ZM285.434 371.756C285.434 370.911 285.561 370.174 285.815 369.546C286.081 368.906 286.425 368.375 286.848 367.952C287.27 367.529 287.753 367.209 288.297 366.992C288.852 366.774 289.42 366.666 290 366.666C291.353 366.666 292.422 367.082 293.207 367.916C293.992 368.737 294.384 369.951 294.384 371.557C294.384 371.714 294.378 371.89 294.366 372.083C294.354 372.264 294.342 372.427 294.33 372.572H288.206C288.267 373.127 288.526 373.568 288.985 373.894C289.444 374.22 290.06 374.384 290.833 374.384C291.328 374.384 291.812 374.341 292.283 374.257C292.766 374.16 293.158 374.046 293.46 373.913L293.823 376.105C293.678 376.177 293.484 376.25 293.243 376.322C292.975 376.4 292.703 376.461 292.428 376.503C292.116 376.567 291.802 376.615 291.485 376.648C291.148 376.684 290.81 376.703 290.471 376.703C289.613 376.703 288.864 376.576 288.224 376.322C287.596 376.069 287.071 375.724 286.648 375.289C286.238 374.843 285.93 374.317 285.724 373.713C285.531 373.109 285.434 372.457 285.434 371.756ZM291.775 370.724C291.764 370.496 291.721 370.27 291.649 370.053C291.59 369.84 291.485 369.642 291.341 369.474C291.208 369.305 291.033 369.166 290.815 369.057C290.61 368.948 290.35 368.894 290.036 368.894C289.734 368.894 289.475 368.949 289.257 369.057C289.04 369.154 288.859 369.287 288.714 369.456C288.569 369.625 288.454 369.824 288.37 370.054C288.297 370.272 288.243 370.496 288.207 370.724L291.775 370.724ZM299.203 374.51C299.698 374.51 300.049 374.462 300.254 374.365C300.459 374.269 300.562 374.081 300.562 373.804C300.562 373.586 300.429 373.399 300.163 373.242C299.898 373.073 299.493 372.886 298.949 372.68C298.555 372.536 298.168 372.372 297.79 372.191C297.452 372.022 297.162 371.823 296.92 371.593C296.677 371.35 296.486 371.061 296.358 370.742C296.226 370.416 296.159 370.023 296.159 369.564C296.159 368.67 296.491 367.964 297.156 367.444C297.82 366.925 298.732 366.665 299.891 366.665C300.471 366.665 301.027 366.72 301.558 366.829C302.09 366.925 302.512 367.034 302.826 367.155L302.355 369.256C302.017 369.141 301.672 369.044 301.323 368.966C300.96 368.882 300.55 368.839 300.091 368.839C299.245 368.839 298.822 369.075 298.822 369.546C298.822 369.655 298.841 369.752 298.877 369.836C298.913 369.921 298.986 370.005 299.094 370.09C299.203 370.162 299.348 370.247 299.529 370.343C299.723 370.428 299.964 370.524 300.254 370.633C300.846 370.851 301.335 371.068 301.721 371.285C302.108 371.491 302.41 371.72 302.627 371.974C302.857 372.216 303.014 372.487 303.098 372.789C303.195 373.091 303.243 373.441 303.243 373.84C303.243 374.782 302.887 375.495 302.174 375.978C301.474 376.461 300.477 376.703 299.185 376.703C298.34 376.703 297.633 376.63 297.065 376.485C296.51 376.34 296.123 376.219 295.906 376.123L296.358 373.931C296.818 374.112 297.29 374.257 297.772 374.365C298.255 374.462 298.732 374.51 299.203 374.51Z" fill="black"/>
<path d="M255.02 307.385L275.571 317.198L280.649 339.252L266.43 356.94L243.621 356.943L229.398 339.258L234.471 317.202L255.02 307.385Z" fill="white"/>
<path d="M254.83 305.005C254.336 305.03 253.851 305.152 253.404 305.366L233.938 314.666C232.935 315.145 232.172 316.094 231.924 317.17L227.122 338.062C226.901 339.022 227.088 340.067 227.628 340.893C227.693 340.994 227.764 341.092 227.839 341.187L241.313 357.939C242.007 358.802 243.109 359.329 244.222 359.328L265.829 359.323C266.942 359.324 268.044 358.799 268.739 357.936L282.207 341.182C282.902 340.318 283.175 339.135 282.927 338.058L278.117 317.166C277.869 316.089 277.106 315.141 276.103 314.661L256.635 305.366C256.073 305.098 255.453 304.974 254.83 305.005Z" fill="#326CE5"/>
<path d="M254.986 338.682C255.152 338.677 255.317 338.712 255.466 338.785C255.663 338.878 255.824 339.031 255.927 339.223H255.949L258.914 344.58C258.525 344.71 258.129 344.821 257.729 344.911C255.462 345.426 253.201 345.27 251.154 344.573L254.112 339.225H254.117C254.202 339.067 254.326 338.933 254.479 338.838C254.631 338.743 254.806 338.689 254.986 338.682ZM249.905 336.215C250.135 336.219 250.357 336.299 250.536 336.444C250.714 336.589 250.839 336.79 250.89 337.014C250.939 337.226 250.919 337.447 250.833 337.647L250.851 337.669L248.521 343.3C246.342 341.902 244.607 339.809 243.678 337.241L249.693 336.22L249.703 336.233C249.769 336.22 249.837 336.214 249.905 336.215ZM260.094 336.19C260.174 336.186 260.253 336.193 260.331 336.208L260.341 336.195L266.408 337.221C265.52 339.715 263.82 341.877 261.55 343.323L259.196 337.634L259.203 337.624C259.098 337.381 259.092 337.106 259.185 336.858C259.277 336.61 259.462 336.407 259.701 336.292C259.824 336.232 259.958 336.198 260.094 336.19ZM254.085 331.206H255.959L257.124 332.663L256.706 334.48L255.023 335.289L253.335 334.478L252.917 332.661L254.085 331.206ZM265.29 326.8C265.988 327.932 266.495 329.171 266.791 330.467C267.087 331.746 267.173 333.066 267.045 334.373L261.15 332.675L261.145 332.65C260.89 332.58 260.671 332.414 260.536 332.187C260.4 331.959 260.357 331.688 260.416 331.43C260.464 331.218 260.578 331.027 260.742 330.885L260.739 330.872L265.29 326.8ZM244.724 326.798L249.3 330.89L249.295 330.915C249.495 331.089 249.62 331.333 249.644 331.596C249.668 331.86 249.589 332.122 249.424 332.329C249.288 332.5 249.102 332.623 248.891 332.68L248.886 332.7L243.021 334.393C242.729 331.742 243.328 329.07 244.724 326.798ZM256.484 321.151C259.135 321.477 261.587 322.678 263.465 324.517L258.486 328.047L258.469 328.04C258.255 328.196 257.989 328.263 257.726 328.228C257.464 328.193 257.225 328.058 257.06 327.851C256.923 327.681 256.845 327.473 256.836 327.255L256.831 327.253L256.484 321.151ZM253.564 321.151L253.218 327.263L253.193 327.275C253.182 327.54 253.069 327.79 252.878 327.973C252.687 328.156 252.433 328.259 252.168 328.259C251.95 328.259 251.738 328.191 251.563 328.062L251.553 328.067L246.542 324.515C248.082 323 250.052 321.881 252.322 321.365C252.737 321.271 253.151 321.201 253.564 321.151ZM255.023 312.114C254.38 312.115 253.858 312.694 253.858 313.409C253.858 313.42 253.86 313.431 253.861 313.441C253.86 313.538 253.855 313.655 253.858 313.74C253.874 314.152 253.963 314.468 254.017 314.848C254.115 315.661 254.197 316.335 254.147 316.961C254.097 317.198 253.924 317.414 253.768 317.564L253.741 318.057C253.032 318.115 252.328 318.224 251.635 318.381C248.72 319.039 246.069 320.554 244.022 322.73C243.88 322.632 243.74 322.532 243.601 322.431C243.393 322.459 243.183 322.523 242.909 322.364C242.388 322.013 241.913 321.528 241.338 320.945C241.075 320.666 240.884 320.4 240.571 320.13C240.5 320.069 240.392 319.987 240.312 319.924C240.068 319.729 239.78 319.628 239.501 319.618C239.143 319.605 238.798 319.745 238.572 320.028C238.171 320.531 238.299 321.3 238.858 321.746C238.864 321.751 238.87 321.754 238.876 321.759C238.953 321.821 239.047 321.901 239.118 321.953C239.449 322.198 239.753 322.323 240.083 322.518C240.78 322.948 241.358 323.305 241.816 323.736C241.995 323.926 242.026 324.262 242.05 324.408L242.423 324.741C240.424 327.75 239.499 331.466 240.046 335.252L239.558 335.394C239.429 335.56 239.248 335.821 239.057 335.899C238.458 336.088 237.784 336.157 236.969 336.243C236.586 336.274 236.256 336.255 235.851 336.332C235.762 336.349 235.637 336.381 235.54 336.404L235.53 336.407C235.525 336.408 235.518 336.411 235.513 336.412C234.826 336.578 234.384 337.209 234.527 337.831C234.669 338.453 235.34 338.831 236.031 338.682C236.036 338.681 236.043 338.681 236.048 338.68C236.056 338.678 236.062 338.675 236.07 338.673C236.167 338.651 236.287 338.628 236.372 338.605C236.77 338.498 237.059 338.342 237.417 338.204C238.188 337.928 238.826 337.697 239.448 337.607C239.708 337.587 239.982 337.767 240.118 337.843L240.626 337.756C241.795 341.379 244.244 344.308 247.345 346.146L247.134 346.654C247.21 346.851 247.294 347.118 247.237 347.313C247.011 347.899 246.624 348.518 246.182 349.208C245.969 349.527 245.75 349.774 245.558 350.139C245.512 350.226 245.453 350.36 245.409 350.452C245.109 351.093 245.328 351.831 245.904 352.108C246.483 352.387 247.201 352.093 247.512 351.451C247.512 351.45 247.514 351.449 247.514 351.448C247.515 351.448 247.514 351.447 247.514 351.446C247.559 351.355 247.621 351.235 247.659 351.15C247.824 350.772 247.879 350.447 247.995 350.082C248.303 349.307 248.472 348.495 248.897 347.989C249.013 347.85 249.203 347.797 249.399 347.744L249.663 347.266C252.367 348.304 255.393 348.582 258.416 347.896C259.095 347.741 259.763 347.54 260.415 347.294C260.489 347.425 260.627 347.678 260.664 347.742C260.864 347.807 261.081 347.84 261.259 348.103C261.576 348.645 261.794 349.287 262.058 350.062C262.174 350.428 262.232 350.752 262.396 351.13C262.434 351.216 262.496 351.338 262.541 351.428C262.851 352.073 263.572 352.368 264.152 352.088C264.727 351.811 264.947 351.074 264.647 350.433C264.603 350.341 264.541 350.206 264.495 350.119C264.303 349.755 264.084 349.509 263.87 349.191C263.429 348.501 263.063 347.927 262.837 347.341C262.743 347.039 262.853 346.85 262.927 346.654C262.883 346.603 262.788 346.318 262.733 346.183C265.956 344.28 268.333 341.242 269.449 337.734C269.6 337.758 269.862 337.804 269.947 337.821C270.123 337.706 270.284 337.554 270.6 337.579C271.222 337.669 271.86 337.9 272.631 338.177C272.99 338.314 273.278 338.474 273.677 338.58C273.761 338.603 273.882 338.624 273.978 338.645C273.986 338.647 273.993 338.651 274.001 338.652C274.006 338.653 274.013 338.654 274.018 338.655C274.709 338.803 275.38 338.425 275.522 337.803C275.664 337.181 275.223 336.55 274.536 336.384C274.436 336.362 274.294 336.323 274.197 336.304C273.792 336.228 273.462 336.247 273.08 336.215C272.265 336.129 271.59 336.06 270.991 335.871C270.746 335.777 270.573 335.486 270.488 335.366L270.018 335.229C270.268 333.416 270.185 331.573 269.773 329.789C269.361 327.988 268.621 326.277 267.59 324.743C267.711 324.634 267.939 324.432 268.003 324.372C268.022 324.163 268.006 323.944 268.222 323.712C268.681 323.282 269.258 322.926 269.955 322.495C270.286 322.301 270.592 322.175 270.923 321.93C270.998 321.874 271.101 321.786 271.18 321.723C271.739 321.277 271.867 320.509 271.466 320.005C271.065 319.502 270.287 319.455 269.728 319.901C269.649 319.964 269.541 320.046 269.47 320.108C269.157 320.377 268.963 320.642 268.7 320.922C268.126 321.505 267.651 321.992 267.13 322.343C266.904 322.475 266.573 322.429 266.423 322.42L265.979 322.736C263.452 320.087 260.012 318.392 256.308 318.063C256.297 317.908 256.284 317.628 256.28 317.543C256.129 317.398 255.945 317.274 255.899 316.961C255.849 316.334 255.933 315.66 256.031 314.847C256.085 314.467 256.175 314.152 256.191 313.739C256.194 313.646 256.189 313.509 256.188 313.408C256.188 312.694 255.667 312.114 255.023 312.114Z" fill="white"/>
<path d="M199.082 470.347V476.432H198V461.315H201.894C203.679 461.315 205.004 461.693 205.897 462.478C206.789 463.262 207.249 464.371 207.249 465.804C207.249 466.453 207.114 467.075 206.87 467.643C206.627 468.211 206.275 468.671 205.816 469.076C205.356 469.482 204.788 469.779 204.139 470.023C203.49 470.239 202.733 470.347 201.894 470.347H199.082ZM199.082 469.482H201.894C202.57 469.482 203.165 469.401 203.679 469.212C204.193 469.022 204.653 468.779 205.031 468.454C205.41 468.13 205.68 467.751 205.87 467.291C206.059 466.859 206.167 466.372 206.167 465.831C206.167 464.668 205.816 463.776 205.085 463.154C204.382 462.532 203.301 462.207 201.894 462.207H199.082V469.482ZM210.873 476.459V465.831H211.414C211.522 465.831 211.63 465.858 211.684 465.912C211.738 465.966 211.765 466.047 211.765 466.156L211.846 468.4C212.198 467.535 212.631 466.859 213.226 466.372C213.793 465.885 214.497 465.642 215.335 465.642C215.659 465.642 215.957 465.669 216.227 465.75C216.498 465.831 216.741 465.912 216.985 466.047L216.849 466.751C216.822 466.859 216.768 466.913 216.633 466.913C216.579 466.913 216.525 466.886 216.444 466.859C216.363 466.832 216.254 466.805 216.146 466.751C216.038 466.724 215.876 466.697 215.714 466.642C215.551 466.615 215.335 466.588 215.119 466.588C214.307 466.588 213.658 466.832 213.144 467.346C212.631 467.832 212.198 468.563 211.9 469.509V476.432L210.873 476.459ZM224.53 465.642C225.287 465.642 225.963 465.777 226.585 466.02C227.18 466.291 227.694 466.642 228.1 467.129C228.505 467.616 228.83 468.184 229.046 468.86C229.262 469.536 229.371 470.293 229.371 471.132C229.371 471.97 229.262 472.727 229.046 473.376C228.83 474.052 228.505 474.62 228.1 475.107C227.694 475.594 227.18 475.945 226.585 476.216C225.99 476.459 225.314 476.594 224.53 476.594C223.773 476.594 223.096 476.459 222.474 476.216C221.88 475.972 221.366 475.594 220.96 475.107C220.554 474.62 220.23 474.052 220.014 473.376C219.797 472.7 219.689 471.943 219.689 471.132C219.689 470.293 219.797 469.536 220.014 468.86C220.23 468.184 220.554 467.616 220.96 467.129C221.366 466.642 221.88 466.291 222.474 466.02C223.069 465.777 223.773 465.642 224.53 465.642ZM224.53 475.783C225.152 475.783 225.72 475.675 226.179 475.459C226.666 475.242 227.045 474.918 227.369 474.512C227.694 474.106 227.91 473.62 228.073 473.052C228.235 472.484 228.316 471.835 228.316 471.132C228.316 470.429 228.235 469.779 228.073 469.212C227.91 468.644 227.667 468.13 227.369 467.724C227.045 467.319 226.666 466.994 226.179 466.778C225.693 466.561 225.152 466.453 224.53 466.453C223.908 466.453 223.34 466.561 222.88 466.778C222.393 466.994 222.015 467.319 221.69 467.724C221.366 468.13 221.122 468.617 220.987 469.212C220.825 469.779 220.744 470.429 220.744 471.132C220.744 471.835 220.825 472.484 220.987 473.052C221.149 473.62 221.393 474.106 221.69 474.512C222.015 474.918 222.393 475.242 222.88 475.459C223.34 475.675 223.881 475.783 224.53 475.783ZM232.886 476.459V465.831H233.454C233.643 465.831 233.752 465.912 233.779 466.102L233.887 467.643C234.103 467.346 234.32 467.075 234.563 466.832C234.806 466.588 235.05 466.372 235.32 466.21C235.591 466.047 235.861 465.912 236.186 465.804C236.483 465.696 236.808 465.669 237.132 465.669C237.916 465.669 238.538 465.885 238.998 466.345C239.458 466.805 239.782 467.427 239.945 468.238C240.08 467.805 240.242 467.427 240.486 467.102C240.729 466.778 240.972 466.507 241.27 466.318C241.567 466.102 241.892 465.939 242.243 465.858C242.595 465.777 242.947 465.696 243.325 465.696C243.839 465.696 244.326 465.777 244.731 465.966C245.164 466.129 245.516 466.399 245.813 466.751C246.111 467.102 246.327 467.508 246.489 468.022C246.651 468.508 246.733 469.076 246.733 469.725V476.513H245.705V469.725C245.705 468.698 245.489 467.886 245.029 467.346C244.569 466.805 243.947 466.534 243.109 466.534C242.73 466.534 242.379 466.588 242.054 466.751C241.73 466.913 241.405 467.075 241.162 467.346C240.891 467.616 240.702 467.941 240.54 468.346C240.377 468.752 240.323 469.212 240.323 469.725V476.513H239.296V469.725C239.296 468.698 239.079 467.913 238.674 467.346C238.268 466.805 237.646 466.534 236.862 466.534C236.294 466.534 235.753 466.697 235.266 467.048C234.779 467.4 234.347 467.859 233.941 468.481V476.513L232.886 476.459ZM254.738 465.642C255.332 465.642 255.9 465.75 256.387 465.939C256.901 466.156 257.334 466.453 257.712 466.832C258.091 467.237 258.388 467.724 258.578 468.292C258.794 468.86 258.902 469.536 258.902 470.266C258.902 470.429 258.875 470.537 258.821 470.591C258.767 470.645 258.713 470.672 258.605 470.672H250.924V470.861C250.924 471.645 251.006 472.349 251.195 472.971C251.384 473.566 251.655 474.079 251.979 474.485C252.331 474.891 252.736 475.215 253.223 475.405C253.71 475.621 254.251 475.702 254.846 475.702C255.387 475.702 255.846 475.648 256.225 475.513C256.604 475.405 256.955 475.269 257.198 475.107C257.469 474.972 257.685 474.837 257.848 474.701C258.01 474.593 258.118 474.512 258.199 474.512C258.28 474.512 258.361 474.539 258.415 474.62L258.686 474.972C258.524 475.188 258.28 475.378 258.01 475.567C257.739 475.756 257.415 475.918 257.063 476.054C256.712 476.189 256.36 476.297 255.954 476.378C255.549 476.459 255.17 476.486 254.765 476.486C254.034 476.486 253.385 476.351 252.79 476.108C252.195 475.864 251.682 475.486 251.249 474.999C250.816 474.512 250.492 473.917 250.248 473.214C250.005 472.511 249.897 471.7 249.897 470.807C249.897 470.05 250.005 469.347 250.221 468.698C250.438 468.049 250.762 467.508 251.168 467.021C251.573 466.561 252.087 466.183 252.682 465.939C253.304 465.777 253.98 465.642 254.738 465.642ZM254.738 466.399C254.197 466.399 253.71 466.48 253.277 466.642C252.844 466.805 252.466 467.048 252.141 467.373C251.817 467.697 251.573 468.076 251.384 468.535C251.195 468.995 251.06 469.482 251.006 470.05H258.01C258.01 469.482 257.929 468.968 257.766 468.508C257.604 468.049 257.388 467.67 257.117 467.373C256.847 467.075 256.495 466.832 256.09 466.642C255.684 466.48 255.224 466.399 254.738 466.399ZM264.933 476.622C264.203 476.622 263.662 476.432 263.256 476.027C262.851 475.621 262.661 474.999 262.661 474.188V466.913H261.147C261.066 466.913 261.012 466.886 260.958 466.859C260.903 466.805 260.876 466.751 260.876 466.669V466.264L262.688 466.129L262.932 462.315C262.932 462.261 262.959 462.207 263.013 462.153C263.067 462.099 263.121 462.072 263.202 462.072H263.689V466.129H267.042V466.886H263.689V474.106C263.689 474.404 263.716 474.647 263.797 474.864C263.878 475.08 263.986 475.242 264.095 475.378C264.203 475.513 264.392 475.621 264.554 475.675C264.744 475.729 264.933 475.783 265.122 475.783C265.366 475.783 265.609 475.756 265.798 475.675C265.988 475.594 266.15 475.513 266.285 475.432C266.42 475.35 266.529 475.269 266.61 475.188C266.691 475.107 266.772 475.08 266.826 475.08C266.88 475.08 266.934 475.107 266.988 475.188L267.259 475.648C266.988 475.945 266.637 476.189 266.231 476.378C265.825 476.513 265.393 476.622 264.933 476.622ZM270.531 476.459V460.909H271.559V467.643C272.045 467.048 272.613 466.561 273.235 466.183C273.857 465.831 274.561 465.642 275.345 465.642C275.94 465.642 276.454 465.723 276.886 465.912C277.319 466.102 277.698 466.372 277.995 466.724C278.293 467.075 278.509 467.481 278.644 467.995C278.806 468.481 278.86 469.049 278.86 469.671V476.459H277.833V469.671C277.833 468.671 277.616 467.886 277.157 467.319C276.697 466.751 275.994 466.48 275.074 466.48C274.371 466.48 273.722 466.669 273.127 467.021C272.532 467.373 271.991 467.886 271.532 468.508V476.486H270.531V476.459ZM286.946 465.642C287.541 465.642 288.109 465.75 288.596 465.939C289.11 466.156 289.543 466.453 289.921 466.832C290.3 467.237 290.597 467.724 290.787 468.292C291.003 468.86 291.111 469.536 291.111 470.266C291.111 470.429 291.084 470.537 291.03 470.591C290.976 470.645 290.922 470.672 290.814 470.672H283.16V470.861C283.16 471.645 283.242 472.349 283.431 472.971C283.62 473.566 283.891 474.079 284.215 474.485C284.567 474.891 284.972 475.215 285.459 475.405C285.946 475.621 286.487 475.702 287.082 475.702C287.623 475.702 288.082 475.648 288.461 475.513C288.84 475.405 289.191 475.269 289.435 475.107C289.705 474.972 289.921 474.837 290.084 474.701C290.246 474.593 290.354 474.512 290.435 474.512C290.516 474.512 290.597 474.539 290.651 474.62L290.922 474.972C290.76 475.188 290.516 475.378 290.246 475.567C289.975 475.756 289.651 475.918 289.299 476.054C288.948 476.189 288.596 476.297 288.19 476.378C287.785 476.459 287.406 476.486 287.001 476.486C286.27 476.486 285.621 476.351 285.026 476.108C284.431 475.864 283.918 475.486 283.485 474.999C283.052 474.512 282.728 473.917 282.484 473.214C282.241 472.511 282.133 471.7 282.133 470.807C282.133 470.05 282.241 469.347 282.457 468.698C282.674 468.049 282.998 467.508 283.404 467.021C283.809 466.561 284.323 466.183 284.918 465.939C285.513 465.777 286.189 465.642 286.946 465.642ZM286.946 466.399C286.406 466.399 285.919 466.48 285.486 466.642C285.053 466.805 284.675 467.048 284.35 467.373C284.026 467.697 283.782 468.076 283.593 468.535C283.404 468.995 283.269 469.482 283.214 470.05H290.192C290.192 469.482 290.111 468.968 289.948 468.508C289.786 468.049 289.57 467.67 289.299 467.373C289.029 467.075 288.677 466.832 288.272 466.642C287.866 466.48 287.433 466.399 286.946 466.399ZM295.033 465.831V472.619C295.033 473.62 295.249 474.404 295.709 474.972C296.168 475.54 296.871 475.81 297.791 475.81C298.494 475.81 299.143 475.621 299.738 475.269C300.333 474.918 300.874 474.431 301.361 473.809V465.831H302.388V476.459H301.82C301.631 476.459 301.523 476.378 301.523 476.189L301.415 474.62C300.928 475.242 300.36 475.729 299.711 476.108C299.062 476.486 298.359 476.676 297.548 476.676C296.953 476.676 296.439 476.594 296.006 476.405C295.573 476.216 295.195 475.945 294.897 475.594C294.6 475.242 294.383 474.837 294.221 474.323C294.059 473.836 294.005 473.268 294.005 472.646V465.858L295.033 465.831ZM312.097 467.156C312.043 467.264 311.962 467.319 311.854 467.319C311.773 467.319 311.664 467.264 311.556 467.183C311.421 467.102 311.259 466.994 311.069 466.886C310.88 466.778 310.61 466.669 310.312 466.588C310.015 466.507 309.663 466.453 309.23 466.453C308.852 466.453 308.5 466.507 308.176 466.615C307.851 466.724 307.581 466.886 307.364 467.048C307.148 467.237 306.959 467.454 306.851 467.697C306.715 467.941 306.661 468.211 306.661 468.481C306.661 468.806 306.742 469.103 306.905 469.32C307.067 469.536 307.31 469.725 307.581 469.888C307.851 470.05 308.176 470.185 308.527 470.293C308.879 470.401 309.23 470.51 309.609 470.645C309.988 470.753 310.339 470.888 310.691 471.023C311.042 471.159 311.367 471.348 311.637 471.537C311.908 471.754 312.151 471.997 312.313 472.295C312.476 472.592 312.557 472.971 312.557 473.376C312.557 473.836 312.476 474.269 312.313 474.674C312.151 475.08 311.908 475.432 311.583 475.702C311.259 475.972 310.88 476.216 310.42 476.405C309.961 476.594 309.42 476.649 308.852 476.649C308.095 476.649 307.473 476.54 306.932 476.297C306.391 476.054 305.904 475.756 305.471 475.35L305.715 474.999C305.742 474.945 305.796 474.891 305.823 474.864C305.877 474.837 305.931 474.81 306.012 474.81C306.093 474.81 306.229 474.864 306.364 474.972C306.499 475.08 306.661 475.215 306.905 475.35C307.121 475.486 307.391 475.594 307.716 475.729C308.041 475.837 308.446 475.891 308.906 475.891C309.366 475.891 309.744 475.837 310.096 475.702C310.447 475.567 310.718 475.405 310.961 475.188C311.178 474.972 311.367 474.728 311.475 474.431C311.583 474.134 311.664 473.836 311.664 473.512C311.664 473.16 311.583 472.862 311.421 472.619C311.259 472.376 311.015 472.186 310.745 472.024C310.474 471.862 310.15 471.727 309.798 471.618C309.447 471.51 309.095 471.402 308.717 471.267C308.338 471.159 307.986 471.023 307.635 470.888C307.283 470.753 306.959 470.591 306.688 470.374C306.418 470.158 306.174 469.915 306.012 469.617C305.85 469.32 305.769 468.941 305.769 468.508C305.769 468.13 305.85 467.778 306.012 467.427C306.174 467.075 306.418 466.778 306.715 466.507C307.013 466.237 307.391 466.02 307.824 465.885C308.257 465.723 308.744 465.642 309.285 465.642C309.934 465.642 310.501 465.723 311.015 465.912C311.529 466.102 311.989 466.399 312.395 466.778L312.097 467.156Z" fill="#9C9C9D"/>
<path d="M255.115 419C265.148 419 273.374 427.131 273.36 437.016C273.347 447.062 265.148 455.072 254.899 455.072C244.894 455.059 236.789 446.927 236.789 436.881C236.803 427.051 245.055 419 255.115 419ZM249.573 425.324C249.802 426.444 249.573 427.496 249.236 428.534C249.006 429.249 248.669 429.936 248.481 430.664C248.157 431.865 247.793 433.065 247.658 434.278C247.469 436.032 248.157 437.582 249.344 439.12C247.415 438.715 245.662 438.351 243.882 437.973C243.896 438.149 243.882 438.216 243.896 438.27C244.408 439.78 245.325 441.048 246.35 442.262C246.458 442.383 246.701 442.45 246.889 442.45C252.337 442.464 257.772 442.464 263.22 442.45C263.395 442.45 263.611 442.423 263.719 442.315C264.892 441.102 265.782 439.713 266.335 437.96C264.339 438.351 262.437 438.715 260.55 439.079C260.927 438.337 261.372 437.677 261.615 436.962C262.464 434.508 262.114 432.134 260.887 429.896C259.902 428.102 258.985 426.309 259.484 424.151C258.446 425.176 258.041 426.471 257.785 427.819C257.529 429.141 257.394 430.476 257.192 431.824C257.165 431.784 257.124 431.757 257.124 431.716C257.097 431.581 257.084 431.433 257.07 431.298C256.949 429.1 256.518 426.983 255.614 424.974C255.075 423.787 254.481 422.574 255.034 421.158C254.657 421.36 254.32 421.549 254.077 421.832C253.349 422.668 253.052 423.652 252.984 424.745C252.917 425.675 252.823 426.619 252.661 427.536C252.472 428.493 252.189 429.437 251.542 430.327C251.299 428.399 251.272 426.525 249.573 425.324ZM263.611 444.109H246.539V447.062H263.611V444.109ZM249.923 448.573C249.91 451.027 252.432 452.861 255.533 452.726C258.109 452.618 260.388 450.595 260.199 448.573H249.923Z" fill="#E75225"/>
</svg>
