<svg xmlns="http://www.w3.org/2000/svg" role="img" viewBox="-10.23 -10.23 531.96 531.96"><path fill="none" d="M-1-1h582v402H-1z"/><rect width="512" height="512" rx="15%"/><path fill="#FFF" d="M285.9 116c.1 1.8.30001 3.7.30001 5.5v136.29999c0 6.6 0 6.6-6.40002 6.70001-11.79999 0-23.59998-.1-35.4 0-3.3 0-4.8-.9-4.8-4.6.1-47.1.1-94.3.1-141.4 0-.79999.2-1.69999.2-2.5h46zm-56.8 91.6v51.10001c0 5.79999 0 5.79999-5.60002 5.79999-12.09999 0-24.09999-.09998-36.2.1-3.8.10001-4.89999-1.29998-4.89999-5 .1-34.59999.1-69.3 0-103.9 0-3.6 1-5.1 4.8-5 12.3.2 24.7.2 37 0 3.8-.1 4.9 1.3 4.8 5 0 17.3.1 34.6.1 51.9zM172 223c0 12.2-.1 24.4.1 36.6.1 3.70002-1.1 5-4.9 4.9-12.3-.19998-24.7-.19998-37 0-3.8.1-4.8-1.4-4.8-5 .1-24.4.1-48.8 0-73.2 0-3.5 1.2-4.8 4.7-4.8 12.5.1 25 .1 37.4 0 3.6 0 4.6 1.4 4.6 4.8-.2 12.3-.1 24.5-.1 36.7z"/><path fill="#FFF" stroke="null" d="M44.9 443.5v-6.29999c9.5-27.80002 19.4-55.5 28.2-83.5C76.1 344.4 80.6 341.3 90.3 341.4c109.9.30002 219.8.30002 329.7 0 9.70001 0 14.30002 3 17.20001 12.30002 8.9 28 18.8 55.69998 28.3 83.5V443.5c-4.2.29999-8.3.79999-12.5.79999H57.4c-4.2 0-8.4-.5-12.5-.79999zM256.20001 55.7h154.5C427.8 55.7 433.9 61.2 433.9 78.1c.20002 74.6.20002 149.3 0 223.9 0 16.9-6.1 22.4-23.29998 22.4H99.4C82.3 324.4 76.2 318.79998 76.2 302c-.2-74.6-.2-149.30002 0-223.9 0-16.8 6.2-22.3 23.3-22.3 52.3-.2 104.5-.1 156.70001-.1zm-1.1 242.2h145.1C413.9 297.9 414.4 297.4 414.4 283.7V96.5c0-13.8-.69998-14.6-14-14.6H110.2C96.7 81.9 96 82.7 96 96.3v187.2c0 14.1.3 14.4 15.1 14.4h144z"/></svg>