<svg xmlns="http://www.w3.org/2000/svg" aria-label="QQ"
					role="img" viewBox="0 0 512 512">
					<rect width="512" height="512" rx="15%"
						fill="currentColor" />
					<path id="svg_2" class="inner-color"
						d="m261,398a57,32 0 0 0 114,0a57,32 0 0 0 -114,0zm-124,0a57,32 0 0 0 114,0a57,32 0 0 0 -114,0z"
						fill="#FFFFFF" />
					<path id="svg_3" class="inner-color"
						d="m375.444366,228.559479l0,-56a119,119 0 0 0 -236.999985,0l0,56c-18.000015,25 -35.000015,55 -37.000015,78c0,44 13,40 13,40c5,0 15.000015,-9 23.000015,-20c19,55 65,93 119.999985,93s101,-38 120,-93c8,11 18,20 23,20c0,0 13,4 13,-40c0,-23 -17,-54 -37,-78l-1,0z"
						fill="#FFFFFF" />
					<path id="svg_6" class="inner-color"
						d="m371.717529,208a235,225 0 0 1 -230.000015,0c-10,-7 -15.000008,-2 -19.000008,12s-6,18 6.000008,26l32,15c-6,32 -5,63 -5,65c1,13 12,12 27,12c14,-1 26,0 26,-15c0,-8 0,-27 3,-46c15,3 29,5 46.000015,5c67,0 126,-35 127,-36l-13,-38z"
						fill="#FFFFFF" />
			</svg>