<svg fill="none" height="521" viewBox="0 0 1200 521" width="1200" xmlns="http://www.w3.org/2000/svg" xmlns:xlink="http://www.w3.org/1999/xlink"><filter id="a" color-interpolation-filters="sRGB" filterUnits="userSpaceOnUse" height="100.937" width="86.9977" x="769.164" y="166.111"><feFlood flood-opacity="0" result="BackgroundImageFix"/><feColorMatrix in="SourceAlpha" result="hardAlpha" type="matrix" values="0 0 0 0 0 0 0 0 0 0 0 0 0 0 0 0 0 0 127 0"/><feOffset dy="2.0071"/><feGaussianBlur stdDeviation="1.25444"/><feComposite in2="hardAlpha" operator="out"/><feColorMatrix type="matrix" values="0 0 0 0 0 0 0 0 0 0 0 0 0 0 0 0 0 0 0.1 0"/><feBlend in2="BackgroundImageFix" mode="normal" result="effect1_dropShadow_1_1053"/><feBlend in="SourceGraphic" in2="effect1_dropShadow_1_1053" mode="normal" result="shape"/></filter><filter id="b" color-interpolation-filters="sRGB" filterUnits="userSpaceOnUse" height="124.096" width="126.88" x="816.491" y="21.9711"><feFlood flood-opacity="0" result="BackgroundImageFix"/><feColorMatrix in="SourceAlpha" result="hardAlpha" type="matrix" values="0 0 0 0 0 0 0 0 0 0 0 0 0 0 0 0 0 0 127 0"/><feOffset dy="2.0071"/><feGaussianBlur stdDeviation="1.25444"/><feComposite in2="hardAlpha" operator="out"/><feColorMatrix type="matrix" values="0 0 0 0 0 0 0 0 0 0 0 0 0 0 0 0 0 0 0.1 0"/><feBlend in2="BackgroundImageFix" mode="normal" result="effect1_dropShadow_1_1053"/><feBlend in="SourceGraphic" in2="effect1_dropShadow_1_1053" mode="normal" result="shape"/></filter><filter id="c" color-interpolation-filters="sRGB" filterUnits="userSpaceOnUse" height="60.9067" width="51.1848" x="338.21" y="344.694"><feFlood flood-opacity="0" result="BackgroundImageFix"/><feColorMatrix in="SourceAlpha" result="hardAlpha" type="matrix" values="0 0 0 0 0 0 0 0 0 0 0 0 0 0 0 0 0 0 127 0"/><feOffset dy="1.46651"/><feGaussianBlur stdDeviation=".916566"/><feComposite in2="hardAlpha" operator="out"/><feColorMatrix type="matrix" values="0 0 0 0 0 0 0 0 0 0 0 0 0 0 0 0 0 0 0.1 0"/><feBlend in2="BackgroundImageFix" mode="normal" result="effect1_dropShadow_1_1053"/><feBlend in="SourceGraphic" in2="effect1_dropShadow_1_1053" mode="normal" result="shape"/></filter><filter id="d" color-interpolation-filters="sRGB" filterUnits="userSpaceOnUse" height="104.441" width="94.4414" x="498.944" y="59.2444"><feFlood flood-opacity="0" result="BackgroundImageFix"/><feColorMatrix in="SourceAlpha" result="hardAlpha" type="matrix" values="0 0 0 0 0 0 0 0 0 0 0 0 0 0 0 0 0 0 127 0"/><feOffset dy="2.17656"/><feGaussianBlur stdDeviation="1.36035"/><feComposite in2="hardAlpha" operator="out"/><feColorMatrix type="matrix" values="0 0 0 0 0 0 0 0 0 0 0 0 0 0 0 0 0 0 0.1 0"/><feBlend in2="BackgroundImageFix" mode="normal" result="effect1_dropShadow_1_1053"/><feBlend in="SourceGraphic" in2="effect1_dropShadow_1_1053" mode="normal" result="shape"/></filter><filter id="e" color-interpolation-filters="sRGB" filterUnits="userSpaceOnUse" height="106.573" width="110.854" x="162.669" y="81.356"><feFlood flood-opacity="0" result="BackgroundImageFix"/><feColorMatrix in="SourceAlpha" result="hardAlpha" type="matrix" values="0 0 0 0 0 0 0 0 0 0 0 0 0 0 0 0 0 0 127 0"/><feOffset dy="2.81814"/><feGaussianBlur stdDeviation="1.76134"/><feComposite in2="hardAlpha" operator="out"/><feColorMatrix type="matrix" values="0 0 0 0 0 0 0 0 0 0 0 0 0 0 0 0 0 0 0.1 0"/><feBlend in2="BackgroundImageFix" mode="normal" result="effect1_dropShadow_1_1053"/><feBlend in="SourceGraphic" in2="effect1_dropShadow_1_1053" mode="normal" result="shape"/></filter><filter id="f" color-interpolation-filters="sRGB" filterUnits="userSpaceOnUse" height="106.437" width="91.4599" x="765.702" y="150.111"><feFlood flood-opacity="0" result="BackgroundImageFix"/><feColorMatrix in="SourceAlpha" result="hardAlpha" type="matrix" values="0 0 0 0 0 0 0 0 0 0 0 0 0 0 0 0 0 0 127 0"/><feOffset dy="2.0071"/><feGaussianBlur stdDeviation="1.25444"/><feComposite in2="hardAlpha" operator="out"/><feColorMatrix type="matrix" values="0 0 0 0 0 0 0 0 0 0 0 0 0 0 0 0 0 0 0.1 0"/><feBlend in2="BackgroundImageFix" mode="normal" result="effect1_dropShadow_1_1053"/><feBlend in="SourceGraphic" in2="effect1_dropShadow_1_1053" mode="normal" result="shape"/></filter><clipPath id="g"><path d="m86 .134766h1027v516h-1027z"/></clipPath><g clip-path="url(#g)" opacity=".05"><g fill="#002626"><path d="m587.977 176.519c1.658.883 3-1.275 3.338-3.597.011-.087.011-.163.022-.25.021-.175.043-.36.054-.534 0-.153 0-.306 0-.458 0-.109 0-.218 0-.316-.076-1.265-.523-2.387-1.44-2.878-1.875 1.036-2.323 2.464-2.323 4.077 0 1.253.273 2.605.349 3.956z"/><path d="m609.354 15.4273c-1.8.6757-3.588 1.3515-5.911 2.2235 2.268 3.3788 4.351 4.4142 6.315 4.2616 1.188-.0872 2.344-.6212 3.479-1.3297 3.632-2.278 7.056-6.4307 10.862-3.9674 2.825 4.2944 5.694 3.7603 9.511 1.624-8.736-6.9102-19.185-8.70861-26.405-8.39252-4.667.20712-7.983 1.29702-8.605 2.46322-.72 1.3516 2.171 2.8012 10.743 3.1064z"/><path d="m709.202 297.45c-.065 0-.131 0-.207 0s-.142 0-.218.01c-.48.022-.993.109-1.56.229-3.13.622-7.176 2.267-9.968 3.041-.698.175-1.385.316-2.051.404-2.835-1.526-5.387-3.445-7.732-5.646-2.738-5.014-6.98-9.287-10.503-13.897-2.116-3.728-4.014-7.706-5.802-11.793-.229-1.275-.349-2.605-.317-4-1.559-1.679-2.835-3.891-3.98-6.376-.862-2.148-1.702-4.295-2.553-6.42-1.952-5.417-3.784-11.063-6.489-14.922-.131-.272-.272-.555-.403-.817-2.891-5.646-10.438-4.131-17.571-4.48-6.718-2.376-13.48-6.321-17.123-1.7-.839.839-1.559 1.809-2.312 2.66-5.224-.589-9.423-1.276-12.76-2.039-4.69-2.823-9.434-3.76-11.965-5.722-1.952-2.801-.414-5.635-.905-7.64.404-.96.927-2.028 1.603-3.216-5.409-.937-10.917-.37-16.414.665-7.023.458-17.286 1.624-32.272 3.739-3.599 1.624-5.9 3.945-7.59 6.518-1.364 1.242-2.585 2.572-3.621 4.261-.655 4.774-3.152 8.589-6.239 12.142-1.309.948-2.868 1.711-4.831 2.224-1.102 2.55-2.694 5.068-4.319 7.618-3.534 4.207-6.282 8.905-6.337 15.151 5.65 10.038-5.671 21.014 2.563 29.668.12.131.229.261.36.381 5.181 4.502 10.034 14.213 16.141 19.586 1.506 1.33 3.087 2.398 4.777 3.041 2.836 1.09 5.955 1.025 9.478-.893 5.966 2.223 13.197-1.668 19.49-3.401 4.744-1.308 8.954-1.406 11.691 3.27 2.956 2.561 7.111 2.518 9.882 3.466 2.541.872 3.904 2.594 2.115 7.924-.098.283-.196.566-.305.861-.196.817-.327 1.613-.414 2.398-1.287 12.425 11.266 21.657 11.571 35.009 1.211 4.719-.589 9.013-2.345 13.308-2.29 5.602-4.482 11.204.208 17.788.414.643.796 1.329 1.167 2.038 3.98 7.608 5.856 18.812 8.867 28.425 2.388 7.641 5.518 14.257 10.993 17.243.687.382 1.407.72 2.181.97.469.022.917.022 1.375.022 10.47.185 17.755-3.499 23.448-9.221 5.497-5.493 9.5-12.883 13.393-20.643.208-.404.404-.796.611-1.199 3.512-1.254 4.548-3.303 4.635-5.69 0-.065 0-.13 0-.196 0-.033 0-.076 0-.109 0-5.406-4.58-12.414 3.065-15.859.153-.065.284-.141.426-.207 5.943-2.833 8.921-6.648 10.055-11.193 1.145-4.469.491-9.657-.894-15.39-.022-.077-.033-.153-.055-.229-.414-1.057-.752-2.093-1.036-3.117-3.01-11.009 1.811-19.696 8.66-27.979 9.238-11.161 22.151-21.592 24.507-36.001v-.022c1.145-3.117-.022-4.098-2.182-4.054z"/><path d="m990.816 399.205c-12.903-18.038-14.517-40.807-19.174-4.272-25.204-10.998-4.886-18.834-18.966-20.033-8.54-2.605-12.695 5.046-17.417 10.725-5.399-9.407-10.449 1.591-15.259 6.005-2.912 11.096-24.55 8.153-27.244 21.668 4.156 9.537.938 41.418 13.851 36.165 53.42-23.914 39.296 4.196 55.634-5.21 3.381 11.15 13.589 21.123 25.663 17.646 25.436-9.93 24.666-47.293 2.923-62.683z"/><path d="m796.649 303.988c-1.254.731-1.93 2.333-2.083 4.142-.076.937-.011 1.94.186 2.91.469 2.213 1.668 4.273 3.566 5.123 1.974-1.918 2.345-3.673 1.941-5.395-.523-2.224-2.323-4.382-3.61-6.78z"/><path d="m321.087 43.1983c1.494-.6212 2.64-1.1662 3.49-1.6458 9.26-5.1554-16.37-2.4196-28.193-5.7222-.218-.0654-.436-.1308-.654-.1962h-.022c-1.538-.4904-2.803-1.0899-3.665-1.8529 1.113 14.4854 18.618 7.6732 29.033 9.4062z"/><path d="m607.271 183.965c0-.218 0-.436-.022-.622 0-.065-.022-.12-.033-.196-.021-.174-.043-.36-.087-.512 0-.022-.011-.033-.022-.044-.054-.196-.109-.37-.185-.523-.055-.12-.131-.218-.196-.316-.033-.044-.055-.098-.088-.142-1.079-1.351-3.479-.97-6.609-.883-.545 1.298.316 2.148 1.625 2.867 1.669.916 4.101 1.613 5.366 2.758.131-.752.196-1.396.229-1.962 0-.066.011-.142.011-.197 0-.076 0-.141 0-.218z"/><path d="m284.409 41.8041c1.712.425 4.057.4468 6.293 1.3842-1.952-6.9865-3.872-4.7849-8.812-3.6949.24 1.4169 1.188 1.9837 2.519 2.3107z"/><path d="m332.484 47.4269c-1.003-.0981-2.148-.1199-3.272-.1526-1.494-.0436-2.944-.1417-3.959-.5341 1.582 4.5778 3.938 4.3489 6.272 3.7821.229-.0545.469-.1199.698-.1744s.469-.1199.698-.1635c.13-.0326.261-.0544.392-.0762.207-.0436.415-.0763.622-.0981.556-.0654 1.101-.0436 1.603.1199.513-1.9183-.992-2.4851-3.065-2.6922z"/><path d="m443.293 345.026c-9.227-1.559-19.86-5.406-24.877-13.21-3.567-11.597-6.392-14.104-18.323-15.641-8.823-1.591-12.815-14.333-21.409-15.117-7.34 3.16-12.804-1.079-19.032-4.709-3.588 10.049-5.093 9.82-3.654-.828-9.99.316-14.68 19.728-20.874 11.346-3.785-7.575-8.813-.273-14.07-3.542-10.753-6.18 4.843-25.843-10.895-24.829-12.379 5.122 2.137-36.884-12.259-14.126-21.333 24.164-28.891-48.219-1.516-35.913 9.587.087-2.781-7.87 17.298-1.777 9.597-.512 4.678 16.731 12.302 17.297 1.451-13.286-7.591-27.423 8.856-35.183 7.7-2.583-1.385-25.178 3.97-11.902 4.788-9.221 17.581-27.848 29.502-28.415-9.925 12.022 17.243-.915 12.684-5.079-7.111 7.183-19.697-4.937-10.209-7.913-5.42-4.905-9.543.959-14.265.327 11.473-8.829 57.935-8.676 24.179-25.657-9.717-8.883-5.955-23.499-20.067-12.011-8.355-11.772-32.567-25.9846-27.594.512 7.482 7.967 3.992 9.155-4.089 14.311 1.912 7.092.592 11.408-3.959 12.948.218-23.074-40.561-15.531-37.355-35.248 10.95-14.7473 24.092-19.6302 34.89-24.4151 2.737-12.4144-10.187-12.4798-13.262-2.1908-7.548 5.1446-1.822-11.9566-9.478-3.8801-25.946-27.1396-6.424-.5995-16.774 4.6758-17.559-8.4579-34.181 1.9837-51.042-2.169-5.922-9.1228-20.133-3.2371-28.029-7.3353-3.72 4.6759-5.41-.0327-6.85-1.1226-10.513-1.1118-19.697 4.5995-28.814 4.4251-26.503-5.9183-56.506-14.2673-80.0642 3.041 21.4312 10.2454 12.3462 2.8338-2.2358 10.2236 5.2242 7.8694 16.425-.9264 18.028 7.3135-5.3766 1.3299-11.9749.6213-13.4146 7.3679-1.3415 6.965 12.0736 4.295 11.2556 11.128 34.464-1.983-30.6035 22.104 6.522 13.298 1.396-6.213 12.837-7.619 15.77-13.341.415-5.33 5.094-6.409 8.257-9.036-10.994 10.834 30.625-1.384 44.192 10.725 5.268.425-.981 13.646 6.391 12.774 8.017-1.744 7.689 14.093 16.709 16.077 15.978 5.613 1.112 19.423 6.02 35.042.175 20.523 20.952 29.286 27.07 47.794-1.145 4.632-.589 6.125 3.588 8.021 4.134 2.595 5.355 14.682 10.034 12.818-2.945-6.583-23.132-41.439-9.816-27.815 9.816 14.736 17.865 31.892 26.23 45.44 16.305 12.708 41.684 9.537 49.472 31.869 48.108 23.848 16.196 10.42 16.817 54.214 39.536 63.053 33.679 38.006 20.101 115.349 6.075 2.637.741 16.872-.415 7.117-8.496 15.117-4.897 45.799 23.678 36.284-20.744-9.003 3.337-18.365-2.039-25.766-5.421-3.194 7.874-11.259 5.355-19.249 5.224 2.366 7.579-.25 7.721-4.872 9.663-2.496 20.919-6.496 11.168-16.49 20.679 6.376 22.326-21.767 34.148-33.037 20.079-2.594 20.068-21.297 23.231-37.025 14.647-13.559 12.139-29.69-8.758-32.872z"/><path d="m475.118 9.05039c22.118-13.0575-43.669-8.294456-59.636-6.98653 12.826 14.47444-6.435-1.22073-8.703 4.02189-9.478-.67577-53.693 5.76575-38.282 10.68145-1.789 6.0818-6.827 3.3025-10.186 4.4142-33.745 5.7767 25.171 8.2509-6.064 8.6978 5.366 11.2264 24.157.6103 33.155 7.4443 5.595 5.8529 12.204 11.2264 8.354 17.6461 5.453 5.3407 20.308 7.0737 3.185 5.744 3.435 4.2072 11.681 2.0382 9.63 8.9702-22.118 8.24 20.504 69.6472 28.717 25.6681 3.283-15.5207 36.525-20.5563 50.464-31.1614-14.615-.0654-8.453-7.2372 1.636-1.1444.251-5.1445-1.822-7.0628-4.93-8.4907-11.91-10.3108 9.161-2.1254 10.328-9.8966 1.833-19.6517-8.845-24.1422 20.264-34.6384-19.468-3.47688-27.233.9483-37.921-.98091z"/><path d="m352.956 59.4385c-7.22-5.0464-14.92-8.3271-20.984-6.7794-2.203.218-4.385.2943-7.417-1.3951-.174-.3597-.338-.7739-.48-1.2425-1.385-1.6895-3.097-2.5614-4.787-2.7794h-.033c-1.385-.1744-2.759.0981-3.948.7521-1.778.752-2.792 2.049-3.098 3.9564-.501 1.7876-.36 4.0001.797 6.4961-.055-.0327-.088-.0763-.142-.109-1.876-1.3842-2.389-4.7085-2.836-7.5969.316-1.3842.894-2.812 1.549-4.2944-.971-.0872-1.865-.109-2.683-.0545-.611-.8937-1.56-.9264-3.25.6431-2.901 1.0682-4.341 3.3025-4.712 5.7876-.273.3815-.534.7521-.818 1.1771-.185.9483.306 1.7984.993 2.5832.37 1.6567 1.112 3.2153 2.105 4.4252-.382.2397-.906.4686-1.647.7084.839.1526 1.788.3052 2.803.4578.992.7956 2.126 1.2643 3.337 1.2425 1.701-.0981 3.686-.0872 5.835.0218 8.692 1.1881 18.944 2.7467 25.859 5.4388 4.864 2.1908 8.082 5.0138 7.787 8.4471-.545 2.6485-3.185 5.7985-8.703 9.5806.12-.3161.229-.6213.327-.8938 1.374-4.0219.425-4.6213-1.112-3.6077-1.822 1.188-4.472 4.6104-5.126 7.3244.283.1962.567.3597.861.5232 3.174 1.7221 6.937 1.2425 10.219 1.8529 2.149.4033 4.079 1.2752 5.486 3.5641h.022c2.465 3.4987 6.74 5.6128 10.296 6.5178 2.225.926 3.784 1.101 4.384.491 2.181-.208 2.585-1.45-.938-3.5755-.392-.5777-.894-1.2316-1.505-1.951 1.134.1308 2.127.1853 2.999.1744 5.672 2.5287 5.781 1.188 4.134-1.5913.567-1.5259-1.113-4.1309-5.082-7.6841-.535-.9046-.993-1.7766-1.309-2.5832 2.89.2507 5.475.2507 7.602.0218 4.569 2.0382 5.987 1.0137 5.224-1.6894 1.985-1.6676.894-4.436-4.886-8.1636-2.073-2.6268-4.657-5.4933-7.569-8.2727.73-3.7385-4.352-5.9838-9.554-7.9021z"/><path d="m707.173 376.131c-8.594 10.703-17.875 13.809-16.545 27.815-.534 7.761 0 12.066 1.2 13.864 2.007 3.052 5.857-1.122 9.379-7.945 2.705-5.232 5.224-12.023 6.566-18.301 1.374-6.43 1.527-12.316-.6-15.433z"/><path d="m907.022 320.501c-3.01-6.921-13.611-2.114-20.384 5.646-5.268 6.028-8.223 13.832-3.501 19.292 5.366-1.144 12.597 4.469 16.152 2.453.993-.567 1.702-1.722 2.007-3.793 2.541-3.107 3.272-6.202 3.457-9.221 0-.033 0-.066 0-.098 0-.033 0-.066 0-.098.229-4.251-.578-8.36 1.047-12.099.306-.708.698-1.406 1.211-2.082z"/><path d="m963.561 28.3541s.087.0218.131.0327c6.881 1.8311 18.955 2.7031 19.806-2.06-6.719-2.7466-16.785-3.5859-23.547.6976.632.3597 1.548.7085 2.639 1.0463.305.0981.633.1853.971.2834z"/><path d="m941.061 207.048c.153.796.316 1.592.48 2.409.72-.654 1.33-1.341 1.832-2.038.436-.589.785-1.188 1.069-1.766.022-.054.054-.098.076-.152.131-.284.24-.567.327-.851.011-.043.044-.087.055-.141.098-.316.174-.622.229-.916v-.032c.044-.186.054-.36.065-.545 0-.12.033-.24.033-.36 0-.055 0-.109 0-.164-.022-2.507-1.898-4.141-5.715-3.106.589 2.943 1.058 5.286 1.527 7.662z"/><path d="m912.311 261.36c.24.905.698 1.82 1.375 2.703.054.066.087.131.141.196.829-2.485 1.549-4.654 2.236-6.714.415-1.231.807-2.43 1.211-3.618-1.124-.305-2.247.065-3.174.861-.033.022-.065.043-.098.076-.055.055-.098.109-.153.164-1.221 1.209-1.996 3.204-1.723 5.351.033.229.087.458.131.687.022.098.033.185.054.272z"/><path d="m1064.73 468.941c-6.5 5.656-12.54 10.899-18.8 16.338 1.65.785 3.01 1.417 4.14 1.885.76.306 1.43.545 2.02.687.29.076.58.131.84.164 2.66.337 3.89-1.461 6.88-6.148.15-.218.34-.436.52-.665 1.36-1.591 3.45-3.302 5.15-4.959 1.12-1.09 2.07-2.158 2.52-3.161.73-1.635.12-3.095-3.28-4.152z"/><path d="m1078.61 458.923c-.62-.316-1.22-.588-1.78-.795-3.51-1.319-5.83-.654-6.95 1.199-.03.043-.06.076-.08.12-.02.043-.04.098-.07.141-1.18 2.289-.75 6.158 1.35 10.333.3.61.64 1.231 1.01 1.842 3-3.968 5.92-7.837 8.75-11.564-.74-.469-1.44-.872-2.11-1.221-.04-.022-.07-.033-.12-.055z"/><path d="m1102.87 63.1653c-11.58-8.4798-35.89-19.8697-45.14-8.7741-2.02.2398-4.94.4469-4.31-3.4006-19.82-1.8747-40.09-2.6812-58.874-10.6487-17.767-3.9783-34.377 3.2589-51.991 5.4824-5.988-.436-3.381-6.1255-5.05-9.6787-6.118.1635-12.073-4.4578-18.53 1.1554-15.945-3.8366-66.561 2.0709-25.771-9.1882-2.662-8.676-12.292-6.2454-19.774-6.7904-4.94-2.4414-9.892-5.4933-15.192-1.0899-23.122 8.3925-43.342 7.7822-62.058 16.3382 15.368 13.7442-25.128-6.8666-18.966 13.3082 2.694 6.5832 9.26.0654 12.641 7.5097-13.001-8.5234-9.369 9.8313-21.464 6.6486 14.767-6.6486 3.512-41.5594-9.958-19.8042-3.413 4.8829 2.28 7.7713 5.159 12.1964-8.692-1.9074-40.746-14.6706-23.863-2.6158-12.041 6.387-27.364-3.6622-37.54 7.2263-2.901 2.5395-5.289 2.5178-7.536-.8938 9.794-5.5805-8.976-7.902-3.065 4.4143-5.66-1.6131-12.684 1.6676-12.869 6.8884-4.472-.9482-13.208-2.7793-4.777 2.3543-8.169 2.7575-16.949-14.2019-10.1-10.0602 48.599 5.1882-14.93-20.4473-25.63-16.9594-10.841-2.0055-22.227 6.0055-33.122 7.8911 5.158 11.6297-21.366 20.3819-27.724 29.8317-1.473 6.7577 5.311 20.2077 13.316 11.2918 11.038-3.4006 7.973 27.0089 20.712 5.8639 8.648-9.864 4.231-9.4825 2.999-19.6844 6.315-4.8393 13.044-19.7824 22.38-12.7196-16.065 7.9021-16.022 28.1641 4.984 19.837 21.496 3.2371-16.632.218-8.463 8.6541 1.908 10.7579-10.961-4.556-9.315 13.1769-10.72 3.968-39.099 9.592-29.73-10.169-12.848 1.995-3.501 10.54-5.595 14.355-10.656 2.888-15.716 8.926-22.326 16.643-36.023 12.491 2.705 4.022-8.408 26.747-27.343-11.313-29.72 35.064-3.818 27.936 9.216.436 14.222-27.99 22.544-27.51 6.882 4.403 11.942-8.709 16.687-1.189 4.864 8.077 18.279 11.87 15.89 22.867 5.061.066-.065-11.869 7.438-8.098-3.97-6.474-23.328-15.03-14.8-22.769 14.506 8.644 19.708 22.758 26.492 36.786 8.114-4.894 3.73-9.679-.611-15.554 21.213-3.422 4.526 2.453 15.716 13.973 4.483 5.526 17.68 1.614 24.9 2.66-2.52 11.542-3.305 21.112-16.273 24.894 7.373 2.245 8.627 4.938 5.475 10.409 18.716-7.946 24.234 57.375 35.904 61.495 22.358-15.608 55.481-26.737 33.374-54.443-4.472 3.074-5.944 10.932-13.797 7.095 1.669-6.321-13.993-12.97-8.18-23.27 8.311 2.605 10.787 18.834 22.249 13.036 13.186 13.897 29.764-1.515 37.987 17.788-2.857 2.452.033 5.199 2.171 6.093 12.858-.491 9.521 38.093 20.089 54.213 10.394-11.64 6.926-20.447 9.838-32.306 16.021-22.125 37.878-43.532 38.903-1.09 21.376-10.3 6.009 25.658 16.643 38.061-.12 9.395 14.538 33.058 10.786 12.578-2.595-14.322-18.235-24.611-8.376-40.611 8.954 11.891 14.31 23.216 24.867 6.398 1.003-5.831-1.56-12.589 5.213-16.992-13.208 3.368-19.948-12.894-9.827-20.677 15.368-.359 34.17-9.711 39.721-29.57.96-1.809 6.195-5.885-.283-8.305-11.092-39.63 17.897-21.766-8.954-32.676-1.32-6.126 7.503-7.935 11.844-11.216-5.366 11.107 1.658 6.158 9.205 5.003-1.44 6.114-2.683 8.109 3.065 9.123-1.298 8.643-1.265 19.542 8.081 9.428-10.808-45.723 32.272-19.445 34.334-72.122.011-8.763-7.384-2.877-12.074-5.003-6.031-14.136 26.765-25.3952 40.177-22.2997 12.97 10.5947 13.66-16.4036 28.24-7.0846 32.71-9.6351-31.618 15.9563-10.87 43.5763 23.5-21.483 12.19-38.5953 26.03-38.9223 15.18 1.0899 23.56-10.5942 40.54-9.1228-7.18-7.3135 1.02-17.1012 8.4-12.4144 12.8 12.894 32.21-9.864 9.99-5.5042z"/><path d="m920.077 308.991c-.655.392-1.156.752-1.418 1.068-.556.654-.033 1.09 2.443 1.101 5.682 10.692 12.455-.676 7.307-6.42-1.679 1.057-5.966 2.845-8.321 4.262z"/><path d="m235.058 69.5851c3.446 1.6023 6.784 2.7903 10.928.9265 1.036-.2943 2.04-.5232 2.999-.6976 9.423-1.733 15.356 1.2971 20.886-4.5995-5.399-4.2726-8.496-6.7686-10.088-8.9593-.055-.0763-.099-.1526-.153-.2289-.055-.0763-.109-.1635-.164-.2398-1.679-2.6159-1.221-4.9484-.065-9.5697-.273.0763-.535.1526-.796.2289-6.315 1.7875-10.645 2.3434-7.537 9.4062-4.711-3.4006-12.117-6.2781-18.693-6.2563-4.832.0109-9.205 1.5913-11.746 5.6786-.022.0218-.033.0545-.055.0763-.022.0327-.033.0654-.054.0981-.175.2834-.339.5777-.491.8938 1.919.5231 3.915.8392 4.733 1.3406h.022c.774.5014.382 1.1771-2.345 2.387-.022 0-.044.0218-.065.0327 0 0 .076.0326.12.0435 5.333 2.0927 8.965 2.3434 10.612 2.2998.305 0 .545-.0218.708-.0436-.894.1853-3.784.981-8.932 3.793 3.905.1962 7.078 1.9728 10.176 3.4115z"/><path d="m943.144 338.311c-.088-.142-.033-.043.185.382l.033-.022c.338.567 1.003 1.646 1.908 2.932 1.767 2.561 4.472 5.973 7.493 7.935 1.647 1.079 3.381 1.711 5.083 1.525h.065c2.279.633 3.763 1.483 4.755 2.464 1.778 1.744 1.985 3.891 2.334 5.907.24 1.384.556 2.703 1.483 3.782.818.949 2.127 1.712 4.254 2.18.534.12 1.09.218 1.734.305 1.08.327 2.203.763 3.272.763 1.276 0 2.465-.588 3.424-2.703 4.199-5.057 7.482-.992 11.485 2.671 2.694 2.463 5.693 4.73 9.508 3.945.07-.011.13-.022.21-.032-10.58-9.516-25.641-39.674-45.088-22.628-1.897-2.768-2.65-5.787-3.697-7.891-.501-1.003-1.08-1.798-1.876-2.245-1.298-.719-3.184-.534-6.325 1.112-.175-.295-.251-.425-.229-.36z"/><path d="m545.868 106.089c.502 1.188 1.309 2.31 2.279 3.389 1.898 2.126 4.396 4.131 6.315 6.246-9.75 5.831 2.487 10.071-6.795 15.074.284-.011.546-.033.818-.044 7.591-.36 12.532-1.33 15.313-2.965.153-.087.273-.185.414-.272.12-.087.262-.164.382-.251 2.858-2.158 2.618-5.308.262-9.526-.044-.087-.087-.163-.131-.251 0-.021-.022-.032-.033-.054-1.865-3.248-4.951-7.117-8.823-11.641 1.287-1.635 1.691-3.302 1.505-4.795-.218-1.7225-1.232-3.1831-2.617-4.0332-2.204-1.3624-5.345-1.188-7.679 2.0164-.218.2943-.403.5777-.578.8719-1.406 2.3219-1.417 4.3599-.621 6.2349z"/><path d="m853.242 326.158c-4.428-3.313-8.943-6.376-12.531-9.046.12.632.294 1.297.513 1.994 3.359 10.671 18.061 28.644 27.178 35.205h.011c6.5-9.798-4.035-19.793-15.171-28.142z"/><path d="m719.159 45.8901c2.465.7085 6.032 1.1008 10.896 1.079-9.576-7.4225-2.138-13.21 8.278-17.2755l.076-.0327c.186-.0763.382-.1417.578-.218.109-.0436.218-.0872.338-.1308.142-.0545.295-.109.437-.1635.163-.0545.316-.1199.48-.1744.076-.0327.163-.0545.25-.0872 1.156-.4142 2.323-.8065 3.512-1.1771l.088-.0218c.283-.0872.578-.1744.861-.2725.044-.0109.087-.0218.131-.0327.273-.0872.545-.1635.829-.2507.24-.0654.48-.1417.709-.2071.076-.0218.152-.0436.229-.0654 6.315-1.8202 12.411-3.0627 15.651-3.7276-4.09-3.4987-13.775-2.1145-23.373 1.3189-4.275 1.5259-8.54 3.466-12.28 5.5696-10.645 5.9619-17.069 13.1773-7.668 15.8695z"/><path d="m503.213 84.9649c-3.075-.4033-7.7.4251-14.189 3.2916-.643-1.9401-1.734-2.8774-2.901-3.1717-1.145-.2834-2.367.0327-3.348.6104-1.767 1.0463-2.749 2.9319-1.058 3.7167.829.3923 2.29.5013 4.635.1307-1.68.8284-2.77 1.4279-3.425 1.8638h-.011l-.021.0327c-3.436 2.3325 5.835.0218 2.704 4.8612 5.246 3.1172 9.969 3.5532 13.721 2.5831.065-.0218.13-.0436.196-.0545.185-.0544.36-.098.534-.1525 4.45-1.417 7.373-4.8394 7.951-7.9239.524-2.7794-.861-5.2753-4.788-5.7876z"/><path d="m964.106 183.125c-.186.218-.382.436-.567.643-6.151 6.649-13.361 7.597-15.727 8.698-.622.283-.906.578-.753.992.327.926 2.89 2.441 8.878 5.733 13.055-4.022 24.823-19.979 15.498-31.183-.153.61-.305 1.199-.48 1.776-1.68 5.875-4.09 10.126-6.751 13.232-.033.033-.065.066-.098.109z"/><path d="m213.092 57.2906c.36-.1635.731-.3488 1.091-.545 4.548-2.4414 9.161-7.15 14.003-9.5588-4.94-3.3025-13.142-5.1009-19.042-3.0191-.175.0654-.349.1417-.524.2071-.131.0545-.261.0981-.392.1526-.033.0109-.066.0327-.109.0545-3.501 1.5913-5.977 4.7521-6.064 10.071 3.686 4.2399 7.34 4.2944 11.015 2.6268z"/><path d="m287.801 20.6035c5.464 5.1881 16.523 8.992 22.903-1.8202 8.823 2.6485 1.996 5.0682-9.183 13.2209 2.585 2.8448 37.311 4.8067 28.4-2.6921 10.448-9.0029 65.177-25.28665 34.835-26.42019-23.361-.43597-45.719 1.54772-68.972 4.67585 9.216 11.08474 45.611 3.89114 17.265 8.87214-1.56 1.9074-3.763 2.0491-6.195 1.4278-6.827-2.4633-15.443-8.71952-20.711-5.1881-.633.2943-1.069.6975-1.309 1.1771-.927 1.0682-1.701 2.5614-2.279 4.6214 1.886.5231 3.621 1.2861 5.246 2.1254z"/><path d="m224.021 40.6149c.97 0 2.857.0654 5.256.1526 6.348.2398 16.207.5777 21.955-.1744 6.173-.8065 7.613-2.8665-5.137-7.6732.153 2.605-.338 3.9129-1.265 4.4361-1.254.7084-3.305-.0218-5.682-.9592-5.246-2.06-12.03-5.1118-15.127 4.2072z"/><path d="m833.099 10.9368c.076.0327.152.0545.239.0872l.044.0218c2.912 1.079 6.424 2.0927 9.718 2.3107h.163c.273.0218.557.0327.829.0327h.284.687c.12 0 .24-.0218.36-.0218.196-.0109.392-.0218.589-.0436h.032c3.087-.327 5.694-1.6677 6.991-4.76309-.272-.0218-.545-.0436-.807-.08719-.054 0-.098-.0218-.152-.0218-.219-.0327-.426-.0654-.633-.109-2.203-.43597-4.264-1.37332-6.315-2.28887-3.086-1.38423-6.129-2.71396-9.543-2.16899-2.432.38148-5.049 1.70031-7.994 4.62135.992.51228 3.021 1.48232 5.54 2.43059z"/><path d="m908.68 340.11c-.044.142-.077.294-.109.436-.022.098-.055.196-.077.294-.72 3.303.109 7.728 3.752 13.559-.011-1.537 0-2.812.066-3.847.174-3.172.687-4.109 1.614-3.597 1.188.665 3.064 3.749 5.78 7.586.654-1.439.447-2.888-.098-4.338-1.429-3.847-5.159-7.695-1.287-11.27.556-.512 1.254-1.014 2.148-1.504-1.919.632-3.882 1.624-5.42 1.853-1.189.185-2.127-.098-2.541-1.374-.218-.653-.295-1.58-.218-2.822.054-.044.109-.077.163-.12 8.409-.981 11.114-2.093 10.852-2.66-.12-.294-1.047-.447-2.377-.349-2.28.153-5.748.992-8.475 3.009-.054 0-.109.011-.163.021v.099c-1.614 1.231-2.956 2.877-3.61 5.035z"/><path d="m546.98 112.235c-.338-.305-.676-.566-1.014-.806-.153-.109-.295-.218-.447-.305-2.683-1.679-5.05-1.09-6.937.512-2.955 2.528-4.711 7.575-4.668 10.441 1.811 9.287 15.117-3.171 13.055-9.853z"/><path d="m280.941 56.4421c1.625-.6976 1.538-2.6595-2.17-6.7685.152-.2725.239-.5341.305-.7848.807-2.9537-3.752-4.0546-7.111-3.4769-.218.0327-.425.0763-.622.1308-2.835.7085-4.373 2.7248.098 5.9075-1.636-.2398-2.879-.3597-3.784-.3706 0 0-.022 0-.033 0-.229 0-.425 0-.611.0109-2.802.1417-1.068 1.624 2.073 3.03 3.773 1.7003 9.554 3.3026 11.866 2.3107z"/><path d="m870.508 357.461c3.73 2.257 12.815 5.058 19.151 6.06.077.011.142.022.218.033 6.49.992 9.914.033 1.276-5.493-1.407.338-2.944.349-4.569.196-4.897-.458-10.689-2.376-16.578-1.112.153.109.316.207.491.316z"/><path d="m979.778 134.971c.415-.218.884-.415 1.418-.6-.872-10.692-2.05-15.848-3.206-17.45-3.534-4.937-6.828 23.499-.589 28.121.403.305.861.501 1.352.588-2.094-6.452-1.887-9.133 1.025-10.659z"/><path d="m974.827 153.686c-2.967 1.33-4.788 5.951-5.66 12.229 1.286-1.013 2.519-1.558 3.762-1.896 1.32-.371 2.65-.512 4.036-.763 1.548-.273 3.162-.665 4.929-1.635 1.124-.61 2.302-1.461 3.567-2.649-4.221-4.73-7.548-6.256-10.1-5.482-.141.044-.283.098-.425.153-.033.011-.076.021-.109.043z"/><path d="m915.595 294.997c-.633-2.147-.644-3.226-.284-3.695 1.32-1.635 7.504 4.719 7.645-.381-2.29-.284-3.784-.829-4.744-1.57-1.44-1.112-1.658-2.649-1.461-4.403.261-2.431 1.308-5.254 1.014-7.881-9.565-5.101-5.715 13.657-2.16 17.93z"/><path d="m335.211 267.649c1.734.916 3.457 1.766 5.257 2.322 2.181.676 4.493.915 7.1.327-3.185-2.027-6.075-3.749-8.704-5.155-11.375-6.104-17.613-6.486-19.533-2.159 6.631-.664 11.321 2.246 15.891 4.665z"/><path d="m278.301 35.2205c-1.254-.9373-2.519-1.3515-3.806-1.4932-.425-.2071-.883-.4142-1.374-.6322-.218.218-.436.4142-.655.5886-2.006.109-4.111.545-6.402.5014-1.854-.5014-3.86-1.2317-6.064-1.5913 1.167 3.7493 4.799 5.8638 8.551 6.7576 4.046 1.7221 8.202 2.0818 9.467-.7194.632-.5231.829-1.1989.392-1.9837 0-.4359-.021-.9046-.098-1.4278z"/><path d="m284.463 50.1844c2.683 7.7931 9.707-.7084 14.19-2.4741-1.669-3.4116-9.227-4.1527-12.586-1.0573-.044.0436-.088.0872-.131.1308-.088.0872-.175.1744-.251.2616-.72.8175-1.178 1.8638-1.222 3.139z"/><path d="m308.708 99.1341h18.138c-9.54-4.9265-15.585-4.9265-18.138 0z"/><path d="m228.514 27.6016c-6.839 2.4087-13.044 4.5886-20.624 7.259 9.368 2.5722 19.435-.8938 20.624-7.259z"/><path d="m349.204 276.26c.436.098 1.221.196 2.225.294 3.959.382 11.397.709 14.68.295-1.702-1.635-3.829-3.096-5.901-4.175-.436-.229-.872-.436-1.309-.632-.021 0-.043-.022-.065-.033-2.225-.981-4.264-1.416-5.519-1.046-1.428.425-1.832 1.918-.327 4.905-3.959 0-4.733.185-3.762.392z"/><path d="m640.655 7.88477h-22.51c7.46.87195 14.789 6.86663 22.51 0z"/><path d="m262.051 24.56c1.058.4033 2.203.654 3.392.872 2.181.3924 4.515.654 6.784 1.4714.774.2834 1.548.6322 2.29 1.0682-.513-1.1336-1.254-2.169-2.149-3.0846-.599-.6103-1.276-1.1771-1.995-1.6785-1.44-1.0027-3.076-1.7875-4.712-2.2889-.862-.2615-1.723-.4468-2.563-.5449-1.974-.2507-3.839-.0436-5.246.7084.065.1199.153.2071.218.3161 1.058 1.6131 2.421 2.5614 3.97 3.1608z"/><path d="m869.995 15.4044c-8.671-6.01652-14.037-5.1773-17.658 1.5586 5.399-.4796 11.005-.9701 17.658-1.5586z"/><path d="m992.135 471.295s-.022-.032-.032-.043c-1.178-1.624-4.559-2.54-8.922-2.551 1.538 3.314 2.89 6.213 4.461 9.581.283-.186.556-.371.818-.545.043-.033.087-.066.131-.098.207-.153.414-.295.61-.436.426-.316.808-.632 1.146-.938.032-.032.065-.054.098-.087 2.127-1.94 2.552-3.564 1.756-4.796-.022-.032-.033-.054-.055-.087z"/><path d="m734.308.548828c-4.657 1.515022-8.888 2.888342-13.469 4.370662 9.031 2.59406 12.881 1.31883 13.469-4.370662z"/><path d="m921.887 370.258c3.185-2.115 6.359-4.229 10.874-7.227-6.217.229-9.445 2.387-10.874 7.227z"/><path d="m285.838 24.2995c-2.923-.8284-5.486-1.5587-9.194-2.6159 2.966 6.0601 5.18 6.5832 9.194 2.6159z"/><path d="m1004.33 351.084c-2.96 1.025-6.185 2.147-9.392 3.248 4.614 3.226 7.842 1.951 9.392-3.248z"/></g><g filter="url(#a)"><path d="m853.653 166.612h-81.98v60.623h55.796l26.184 35.296v-35.296z" fill="#002626"/></g><path d="m801.016 207.326c-1.701 0-3.238-.299-4.611-.899-1.372-.618-2.503-1.44-3.393-2.465l2.523-2.842c.716.754 1.528 1.334 2.436 1.74.909.406 1.866.609 2.871.609 1.064 0 1.905-.222 2.523-.667.638-.464.957-1.053.957-1.769 0-1.546-1.295-2.31-3.886-2.291h-2.291v-3.654l2.291.029c1.102 0 1.953-.193 2.552-.58.619-.386.928-.937.928-1.653 0-.715-.319-1.285-.957-1.711-.618-.444-1.421-.667-2.407-.667-.889 0-1.711.203-2.465.609-.754.387-1.488.957-2.204 1.711l-2.465-2.61c1.953-2.358 4.476-3.538 7.569-3.538 1.47 0 2.746.232 3.828.696 1.102.464 1.953 1.112 2.552 1.943.6.832.899 1.769.899 2.813 0 1.122-.338 2.088-1.015 2.9-.676.793-1.585 1.354-2.726 1.682 1.18.271 2.166.812 2.958 1.624.812.793 1.218 1.808 1.218 3.045 0 1.141-.319 2.166-.957 3.074-.638.89-1.537 1.595-2.697 2.117-1.16.503-2.503.754-4.031.754zm15.666-10.295c-.967 0-1.827-.222-2.581-.667-.754-.444-1.344-1.053-1.769-1.827-.406-.773-.609-1.633-.609-2.581 0-.947.203-1.807.609-2.581.425-.792 1.015-1.411 1.769-1.856.754-.464 1.614-.696 2.581-.696.986 0 1.856.232 2.61.696.754.445 1.334 1.054 1.74 1.827.425.774.638 1.634.638 2.581 0 .948-.213 1.818-.638 2.61-.425.774-1.015 1.383-1.769 1.827-.754.445-1.614.667-2.581.667zm11.484-10.005h3.364l-13.862 19.923h-3.335zm-11.484 7.511c.619 0 1.121-.232 1.508-.696.406-.483.609-1.121.609-1.914 0-.754-.203-1.372-.609-1.856-.387-.483-.889-.725-1.508-.725s-1.131.242-1.537.725c-.387.464-.58 1.083-.58 1.856 0 .774.203 1.402.609 1.885.406.484.909.725 1.508.725zm12.441 12.731c-.967 0-1.827-.222-2.581-.667-.754-.464-1.344-1.082-1.769-1.856-.425-.773-.638-1.633-.638-2.581 0-.947.213-1.807.638-2.581.425-.773 1.015-1.382 1.769-1.827.754-.464 1.614-.696 2.581-.696.986 0 1.846.232 2.581.696.754.445 1.334 1.054 1.74 1.827.425.774.638 1.634.638 2.581 0 .948-.213 1.818-.638 2.61-.425.774-1.015 1.383-1.769 1.827-.735.445-1.585.667-2.552.667zm0-2.523c.619 0 1.121-.232 1.508-.696.406-.483.609-1.111.609-1.885 0-.773-.203-1.401-.609-1.885-.406-.483-.909-.725-1.508-.725-.638 0-1.15.242-1.537.725-.387.464-.58 1.093-.58 1.885 0 .754.193 1.373.58 1.856.406.484.918.725 1.537.725z" fill="#fff"/><path d="m856.146 280.634h-5.696l-.976 2.288h-1.792l4.72-10.992h1.792l4.72 10.992h-1.792zm-.608-1.408-2.24-5.216-2.24 5.216zm7.791 3.888c-.619 0-1.237-.106-1.856-.32-.619-.213-1.173-.517-1.664-.912l.72-1.088c.459.342.928.603 1.408.784.48.171.949.256 1.408.256.491 0 .88-.101 1.168-.304.299-.202.448-.474.448-.816 0-.352-.155-.613-.464-.784-.309-.181-.795-.362-1.456-.544-1.013-.288-1.744-.602-2.192-.944-.437-.341-.656-.832-.656-1.472 0-.757.277-1.365.832-1.824.565-.458 1.291-.688 2.176-.688.523 0 1.051.086 1.584.256.533.171 1.024.406 1.472.704l-.656 1.12c-.853-.533-1.653-.8-2.4-.8-.437 0-.8.096-1.088.288-.277.182-.416.438-.416.768 0 .214.064.384.192.512s.32.246.576.352c.256.096.656.23 1.2.4.597.182 1.083.358 1.456.528.384.16.704.4.96.72s.384.736.384 1.248c0 .779-.293 1.403-.88 1.872-.576.459-1.328.688-2.256.688zm5.061-8.464h1.584v8.272h-1.584zm.8-1.376c-.266 0-.496-.096-.688-.288-.181-.192-.272-.416-.272-.672s.091-.474.272-.656c.192-.192.422-.288.688-.288.256 0 .475.096.656.288.192.182.288.4.288.656s-.096.48-.288.672c-.181.192-.4.288-.656.288zm6.508 1.184c1.088 0 1.936.315 2.544.944.608.63.912 1.467.912 2.512v5.008h-1.552v-1.12c-.299.416-.699.742-1.2.976-.501.224-1.019.336-1.552.336-.885 0-1.616-.24-2.192-.72s-.864-1.12-.864-1.92c0-.533.144-1.008.432-1.424.299-.426.699-.752 1.2-.976.512-.234 1.072-.352 1.68-.352.789 0 1.621.15 2.496.448v-.256c0-.608-.165-1.114-.496-1.52-.331-.416-.875-.624-1.632-.624-.651 0-1.424.23-2.32.688l-.592-1.168c1.109-.554 2.155-.832 3.136-.832zm-.528 7.408c.555 0 1.067-.133 1.536-.4.469-.277.768-.656.896-1.136v-1.104c-.704-.213-1.456-.32-2.256-.32-.565 0-1.045.144-1.44.432s-.592.651-.592 1.088c0 .438.171.79.512 1.056.352.256.8.384 1.344.384z" fill="#002626"/></g><g filter="url(#b)"><path d="m940.862 22.4729h-121.862v75.2603h82.94l38.922 43.8178v-43.8178z" fill="#004141"/></g><path d="m847.956 74.5984c-2.053 0-3.92-.3067-5.6-.92-1.68-.64-3.013-1.5467-4-2.72-.96-1.2-1.44-2.6-1.44-4.2 0-1.5733.48-2.9467 1.44-4.12.987-1.2 2.307-2.1067 3.96-2.72-1.44-.6133-2.587-1.44-3.44-2.48-.827-1.04-1.24-2.3067-1.24-3.8 0-1.5467.467-2.88 1.4-4 .96-1.1467 2.227-2.0133 3.8-2.6s3.28-.88 5.12-.88c1.867 0 3.587.3067 5.16.92 1.573.5867 2.827 1.4533 3.76 2.6.96 1.12 1.44 2.44 1.44 3.96 0 1.4667-.427 2.72-1.28 3.76-.827 1.04-1.973 1.88-3.44 2.52 1.68.6667 3 1.5867 3.96 2.76s1.44 2.5333 1.44 4.08c0 1.6267-.493 3.0267-1.48 4.2s-2.32 2.08-4 2.72c-1.68.6133-3.533.92-5.56.92zm0-16.72c1.173-.08 2.213-.44 3.12-1.08s1.36-1.44 1.36-2.4c0-.9333-.427-1.7067-1.28-2.32-.827-.64-1.893-.96-3.2-.96s-2.373.3067-3.2.92-1.24 1.4-1.24 2.36c0 .9867.44 1.8 1.32 2.44.907.6133 1.947.96 3.12 1.04zm0 11.76c1.467 0 2.68-.32 3.64-.96.96-.6667 1.44-1.52 1.44-2.56 0-1.0133-.533-1.8533-1.6-2.52-1.04-.6667-2.2-1.0267-3.48-1.08-1.28.0533-2.44.4133-3.48 1.08s-1.56 1.5067-1.56 2.52c0 1.04.467 1.8933 1.4 2.56.96.64 2.173.96 3.64.96zm25.061-23.48c3.867 0 6.773 1.2533 8.72 3.76 1.973 2.48 2.96 5.8133 2.96 10 0 2.8267-.533 5.36-1.6 7.6-1.04 2.2133-2.52 3.9467-4.44 5.2-1.893 1.2533-4.093 1.88-6.6 1.88-3.147 0-5.947-.9867-8.4-2.96l2.8-4.48c.907.7467 1.787 1.3067 2.64 1.68.88.3733 1.867.56 2.96.56 1.787 0 3.253-.68 4.4-2.04 1.147-1.3867 1.853-3.2533 2.12-5.6-.853.8267-1.88 1.48-3.08 1.96-1.2.4533-2.44.68-3.72.68-1.707 0-3.267-.3467-4.68-1.04-1.413-.72-2.533-1.7333-3.36-3.04-.827-1.3333-1.24-2.88-1.24-4.64 0-1.84.453-3.48 1.36-4.92.933-1.4667 2.2-2.6 3.8-3.4s3.387-1.2 5.36-1.2zm.48 13.44c1.12 0 2.107-.28 2.96-.84.88-.5867 1.533-1.3733 1.96-2.36-.267-1.7333-.813-3.04-1.64-3.92-.8-.88-1.947-1.32-3.44-1.32-1.413 0-2.56.4267-3.44 1.28-.88.8267-1.32 1.8133-1.32 2.96 0 1.28.467 2.3067 1.4 3.08.96.7467 2.133 1.12 3.52 1.12zm22.259.84c-1.333 0-2.52-.3067-3.56-.92s-1.853-1.4533-2.44-2.52c-.56-1.0667-.84-2.2533-.84-3.56s.28-2.4933.84-3.56c.587-1.0933 1.4-1.9467 2.44-2.56 1.04-.64 2.227-.96 3.56-.96 1.36 0 2.56.32 3.6.96 1.04.6133 1.84 1.4533 2.4 2.52.587 1.0667.88 2.2533.88 3.56s-.293 2.5067-.88 3.6c-.586 1.0667-1.4 1.9067-2.44 2.52s-2.226.92-3.56.92zm15.84-13.8h4.64l-19.12 27.48h-4.6zm-15.84 10.36c.854 0 1.547-.32 2.08-.96.56-.6667.84-1.5467.84-2.64 0-1.04-.28-1.8933-.84-2.56-.533-.6667-1.226-1-2.08-1-.853 0-1.56.3333-2.12 1-.533.64-.8 1.4933-.8 2.56s.28 1.9333.84 2.6 1.254 1 2.08 1zm17.16 17.56c-1.333 0-2.52-.3067-3.56-.92-1.04-.64-1.853-1.4933-2.44-2.56-.586-1.0667-.88-2.2533-.88-3.56s.294-2.4933.88-3.56c.587-1.0667 1.4-1.9067 2.44-2.52 1.04-.64 2.227-.96 3.56-.96 1.36 0 2.547.32 3.56.96 1.04.6133 1.84 1.4533 2.4 2.52.587 1.0667.88 2.2533.88 3.56s-.293 2.5067-.88 3.6c-.586 1.0667-1.4 1.9067-2.44 2.52-1.013.6133-2.186.92-3.52.92zm0-3.48c.854 0 1.547-.32 2.08-.96.56-.6667.84-1.5333.84-2.6s-.28-1.9333-.84-2.6-1.253-1-2.08-1c-.88 0-1.586.3333-2.12 1-.533.64-.8 1.5067-.8 2.6 0 1.04.267 1.8933.8 2.56.56.6667 1.267 1 2.12 1z" fill="#fff"/><path d="m930.121 163.975c-1.003 0-1.942-.256-2.816-.768-.875-.523-1.574-1.221-2.096-2.096-.523-.875-.784-1.819-.784-2.832s.261-1.952.784-2.816c.522-.875 1.221-1.568 2.096-2.08.874-.523 1.813-.784 2.816-.784.778 0 1.52.155 2.224.464.704.299 1.317.72 1.84 1.264l-1.136 1.088c-.384-.416-.832-.741-1.344-.976-.502-.235-1.03-.352-1.584-.352-.715 0-1.387.192-2.016.576-.619.384-1.115.896-1.488 1.536-.363.64-.544 1.333-.544 2.08s.181 1.445.544 2.096c.373.64.869 1.152 1.488 1.536.629.384 1.301.576 2.016.576.554 0 1.082-.117 1.584-.352.512-.235.96-.56 1.344-.976l1.136 1.088c-.534.544-1.152.971-1.856 1.28-.704.299-1.44.448-2.208.448zm10.148-8.656c.597 0 1.13.133 1.6.4.469.267.832.645 1.088 1.136.266.48.4 1.035.4 1.664v5.264h-1.536v-4.992c0-.619-.176-1.12-.528-1.504-.352-.395-.811-.592-1.376-.592-.416 0-.8.091-1.152.272-.352.171-.63.405-.832.704-.203.299-.304.624-.304.976v5.136h-1.584v-11.184h1.584v4.128c.245-.416.602-.752 1.072-1.008.48-.267 1.002-.4 1.568-.4zm5.51.192h1.584v8.272h-1.584zm.8-1.376c-.267 0-.496-.096-.688-.288-.181-.192-.272-.416-.272-.672s.091-.475.272-.656c.192-.192.421-.288.688-.288.256 0 .475.096.656.288.192.181.288.4.288.656s-.096.48-.288.672c-.181.192-.4.288-.656.288zm7.596 1.184c.597 0 1.13.133 1.6.4.469.267.832.645 1.088 1.136.266.48.4 1.035.4 1.664v5.264h-1.536v-4.992c0-.619-.176-1.12-.528-1.504-.352-.395-.811-.592-1.376-.592-.416 0-.8.091-1.152.272-.352.171-.63.405-.832.704-.203.299-.304.624-.304.976v5.136h-1.584v-8.272h1.584v1.216c.245-.416.602-.752 1.072-1.008.48-.267 1.002-.4 1.568-.4zm8.646 0c1.088 0 1.936.315 2.544.944s.912 1.467.912 2.512v5.008h-1.552v-1.12c-.299.416-.699.741-1.2.976-.501.224-1.019.336-1.552.336-.885 0-1.616-.24-2.192-.72s-.864-1.12-.864-1.92c0-.533.144-1.008.432-1.424.299-.427.699-.752 1.2-.976.512-.235 1.072-.352 1.68-.352.789 0 1.621.149 2.496.448v-.256c0-.608-.165-1.115-.496-1.52-.331-.416-.875-.624-1.632-.624-.651 0-1.424.229-2.32.688l-.592-1.168c1.109-.555 2.155-.832 3.136-.832zm-.528 7.408c.555 0 1.067-.133 1.536-.4.469-.277.768-.656.896-1.136v-1.104c-.704-.213-1.456-.32-2.256-.32-.565 0-1.045.144-1.44.432s-.592.651-.592 1.088.171.789.512 1.056c.352.256.8.384 1.344.384z" fill="#004141"/><g filter="url(#c)"><path d="m387.562 345.061h-47.519v36.177h32.489l15.03 21.063v-21.063z" fill="#004141"/></g><path d="m357.611 360.251-1.755 1.095-.9-1.56 3.09-2.07h1.77v10.305h-2.205zm6.85 2.64c-.5 0-.945-.115-1.335-.345s-.695-.545-.915-.945c-.21-.4-.315-.845-.315-1.335s.105-.935.315-1.335c.22-.41.525-.73.915-.96.39-.24.835-.36 1.335-.36.51 0 .96.12 1.35.36.39.23.69.545.9.945.22.4.33.845.33 1.335s-.11.94-.33 1.35c-.22.4-.525.715-.915.945s-.835.345-1.335.345zm5.94-5.175h1.74l-7.17 10.305h-1.725zm-5.94 3.885c.32 0 .58-.12.78-.36.21-.25.315-.58.315-.99 0-.39-.105-.71-.315-.96-.2-.25-.46-.375-.78-.375s-.585.125-.795.375c-.2.24-.3.56-.3.96s.105.725.315.975.47.375.78.375zm6.435 6.585c-.5 0-.945-.115-1.335-.345-.39-.24-.695-.56-.915-.96s-.33-.845-.33-1.335.11-.935.33-1.335.525-.715.915-.945c.39-.24.835-.36 1.335-.36.51 0 .955.12 1.335.36.39.23.69.545.9.945.22.4.33.845.33 1.335s-.11.94-.33 1.35c-.22.4-.525.715-.915.945-.38.23-.82.345-1.32.345zm0-1.305c.32 0 .58-.12.78-.36.21-.25.315-.575.315-.975s-.105-.725-.315-.975-.47-.375-.78-.375c-.33 0-.595.125-.795.375-.2.24-.3.565-.3.975 0 .39.1.71.3.96.21.25.475.375.795.375z" fill="#fff"/><g filter="url(#d)"><path d="m590.664 59.7886h-89v59.2464h63.079l25.921 39.754v-39.754z" fill="#004141"/></g><path d="m525.58 97.7886v-3.48l7.337-5.684c2.378-1.885 3.132-3.19 3.132-4.582 0-1.653-1.392-2.639-3.016-2.639-1.943 0-3.422.986-4.872 2.639l-2.726-2.639c1.972-2.494 4.495-3.886 7.714-3.886 4.234 0 7.308 2.61 7.308 6.351 0 2.668-1.16 4.727-4.64 7.25l-3.625 2.813h8.439v3.857zm23.093-9.918c-2.987 0-4.959-2.233-4.959-5.075 0-2.871 1.972-5.133 4.959-5.133 3.016 0 4.988 2.291 4.988 5.104 0 2.871-2.059 5.104-4.988 5.104zm-2.349 9.918 13.833-19.923h3.364l-13.862 19.923zm2.349-12.412c1.218 0 2.117-1.015 2.117-2.61 0-1.537-.899-2.581-2.117-2.581-1.247 0-2.117 1.015-2.117 2.581s.928 2.61 2.117 2.61zm12.441 12.731c-2.958 0-4.988-2.262-4.988-5.104s2.03-5.104 4.988-5.104c3.016 0 4.959 2.291 4.959 5.104 0 2.871-2.03 5.104-4.959 5.104zm0-2.523c1.247 0 2.117-1.015 2.117-2.581s-.928-2.61-2.117-2.61c-1.247 0-2.117 1.015-2.117 2.61 0 1.537.899 2.581 2.117 2.581z" fill="#fff"/><g filter="url(#e)"><path d="m270 82.0605h-103.809v62.9045h76.651l27.158 36.623v-36.623z" fill="#004141"/></g><path d="m202.116 120.021h-12.096l-.504-4.104 11.484-15.552h6.408v15.192h3.276v4.464h-3.276v5.04h-5.292zm0-4.464v-9.576l-7.02 9.576zm17.871-2.808c-1.2 0-2.268-.276-3.204-.828s-1.668-1.308-2.196-2.268c-.504-.96-.756-2.028-.756-3.204s.252-2.244.756-3.204c.528-.984 1.26-1.752 2.196-2.304.936-.576 2.004-.864 3.204-.864 1.224 0 2.304.288 3.24.864.936.552 1.656 1.308 2.16 2.268.528.96.792 2.028.792 3.204s-.264 2.256-.792 3.24c-.528.96-1.26 1.716-2.196 2.268s-2.004.828-3.204.828zm14.256-12.42h4.176l-17.208 24.732h-4.14zm-14.256 9.324c.768 0 1.392-.288 1.872-.864.504-.6.756-1.392.756-2.376 0-.936-.252-1.704-.756-2.304-.48-.6-1.104-.9-1.872-.9s-1.404.3-1.908.9c-.48.576-.72 1.344-.72 2.304s.252 1.74.756 2.34 1.128.9 1.872.9zm15.444 15.804c-1.2 0-2.268-.276-3.204-.828-.936-.576-1.668-1.344-2.196-2.304s-.792-2.028-.792-3.204.264-2.244.792-3.204 1.26-1.716 2.196-2.268c.936-.576 2.004-.864 3.204-.864 1.224 0 2.292.288 3.204.864.936.552 1.656 1.308 2.16 2.268.528.96.792 2.028.792 3.204s-.264 2.256-.792 3.24c-.528.96-1.26 1.716-2.196 2.268-.912.552-1.968.828-3.168.828zm0-3.132c.768 0 1.392-.288 1.872-.864.504-.6.756-1.38.756-2.34s-.252-1.74-.756-2.34-1.128-.9-1.872-.9c-.792 0-1.428.3-1.908.9-.48.576-.72 1.356-.72 2.34 0 .936.24 1.704.72 2.304.504.6 1.14.9 1.908.9z" fill="#fff"/><g fill="#002626"><path d="m584.057 169.765h-6.448v3.136h5.824v1.504h-5.824v3.344h6.448v1.504h-8.08v-10.992h8.08zm7.745 1.216h1.584v8.272h-1.584v-1.184c-.496.816-1.504 1.376-2.64 1.376-1.824 0-3.088-1.296-3.088-3.2v-5.264h1.552v4.992c0 1.248.784 2.096 1.904 2.096 1.264 0 2.272-.864 2.272-1.952zm5.782 1.616c.512-1.104 1.632-1.808 3.072-1.808v1.376c-1.824 0-3.072 1.088-3.072 2.688v4.4h-1.584v-8.272h1.584zm8.612 6.848c-2.384 0-4.352-1.952-4.352-4.336s1.968-4.32 4.352-4.32 4.352 1.936 4.352 4.32-1.968 4.336-4.352 4.336zm0-1.376c1.52 0 2.768-1.328 2.768-2.96s-1.248-2.944-2.768-2.944-2.768 1.312-2.768 2.944 1.248 2.96 2.768 2.96zm10.785-7.28c2.192 0 3.808 1.792 3.808 4.32 0 2.544-1.616 4.336-3.808 4.336-1.264 0-2.288-.608-2.928-1.616v4.176h-1.584v-11.024h1.584v1.408c.64-.992 1.664-1.6 2.928-1.6zm-.368 7.28c1.504 0 2.576-1.232 2.576-2.96s-1.072-2.944-2.576-2.944-2.56 1.216-2.56 2.944 1.056 2.96 2.56 2.96zm9.769.064c.896 0 1.936-.4 2.448-.944l.928.976c-.72.784-2.176 1.28-3.344 1.28-2.288 0-4.272-1.808-4.272-4.352 0-2.48 1.872-4.304 4.16-4.304 2.528 0 4 1.888 4 4.832h-6.608c.192 1.456 1.216 2.512 2.688 2.512zm-.048-6.032c-1.328 0-2.384.928-2.624 2.352h5.056c-.16-1.328-.992-2.352-2.432-2.352z"/><path d="m610.08 364.91-.976-2.288h-5.696l-.976 2.288h-1.792l4.72-10.992h1.792l4.72 10.992zm-6.064-3.696h4.48l-2.24-5.216zm11.439-5.488v.912h1.952v1.344h-1.952v6.928h-1.552v-6.928h-1.248v-1.344h1.248v-.992c0-1.328.896-2.256 2.176-2.256.592 0 1.2.224 1.648.592l-.576 1.056c-.176-.176-.496-.304-.848-.304-.464 0-.848.416-.848.992zm5.04 2.528c.512-1.104 1.632-1.808 3.072-1.808v1.376c-1.824 0-3.072 1.088-3.072 2.688v4.4h-1.584v-8.272h1.584zm5.731-2.992c-.528 0-.96-.448-.96-.96 0-.496.432-.944.96-.944s.944.448.944.944c0 .512-.416.96-.944.96zm-.8 9.648v-8.272h1.584v8.272zm7.852.192c-2.368 0-4.368-1.984-4.368-4.336s2.016-4.32 4.368-4.32c1.2 0 2.256.496 3.056 1.28l-1.072.992c-.512-.56-1.232-.896-1.984-.896-1.504 0-2.768 1.344-2.768 2.944 0 1.616 1.264 2.96 2.768 2.96.768 0 1.504-.352 2.032-.928l1.072.976c-.8.816-1.872 1.328-3.104 1.328zm7.894-8.656c2.224 0 3.456 1.408 3.456 3.456v5.008h-1.552v-1.12c-.608.848-1.728 1.312-2.752 1.312-1.744 0-3.056-1.024-3.056-2.64 0-1.648 1.488-2.752 3.312-2.752.816 0 1.696.176 2.496.448v-.256c0-1.04-.48-2.144-2.128-2.144-.816 0-1.6.32-2.32.688l-.592-1.168c1.184-.592 2.224-.832 3.136-.832zm-.528 7.408c1.024 0 2.16-.512 2.432-1.536v-1.104c-.688-.208-1.44-.32-2.256-.32-1.104 0-2.032.624-2.032 1.52s.8 1.44 1.856 1.44z"/><path d="m379.066 424.92c-1.84 0-3.36-.64-4.512-1.76l.96-1.2c.976.928 2.128 1.536 3.616 1.536 1.52 0 2.304-.8 2.304-1.68 0-1.04-.912-1.44-2.752-1.856-2.24-.528-3.728-1.2-3.728-3.184 0-1.84 1.6-3.216 3.824-3.216 1.68 0 2.944.608 4 1.552l-.928 1.216c-.928-.848-2.032-1.344-3.152-1.344-1.232 0-2.096.768-2.096 1.648 0 1.024.944 1.376 2.752 1.808 2.192.512 3.712 1.248 3.712 3.216 0 1.856-1.408 3.264-4 3.264zm9.776.016c-2.384 0-4.352-1.952-4.352-4.336s1.968-4.32 4.352-4.32 4.352 1.936 4.352 4.32-1.968 4.336-4.352 4.336zm0-1.376c1.52 0 2.768-1.328 2.768-2.96s-1.248-2.944-2.768-2.944-2.768 1.312-2.768 2.944 1.248 2.96 2.768 2.96zm11.825-7.088h1.584v8.272h-1.584v-1.184c-.496.816-1.504 1.376-2.64 1.376-1.824 0-3.088-1.296-3.088-3.2v-5.264h1.552v4.992c0 1.248.784 2.096 1.904 2.096 1.264 0 2.272-.864 2.272-1.952zm7.734 6.784.592 1.088c-.448.368-1.072.592-1.664.592-1.28 0-2.176-.928-2.176-2.256v-4.864h-1.232v-1.344h1.232v-2.272h1.552v2.272h1.952v1.344h-1.952v4.752c0 .576.4.992.864.992.352 0 .672-.128.832-.304zm6.469-6.976c1.824 0 3.088 1.296 3.088 3.2v5.264h-1.536v-4.992c0-1.248-.784-2.096-1.904-2.096-1.264 0-2.288.864-2.288 1.952v5.136h-1.584v-11.184h1.584v4.128c.48-.832 1.504-1.408 2.64-1.408zm-40.656 29.464-.976-2.288h-5.696l-.976 2.288h-1.792l4.72-10.992h1.792l4.72 10.992zm-6.064-3.696h4.48l-2.24-5.216zm18.815-4.768c1.728 0 2.976 1.328 2.976 3.2v5.264h-1.536v-5.024c0-1.216-.736-2.064-1.76-2.064-1.184 0-2.032.784-2.032 1.92v5.168h-1.552v-5.024c0-1.216-.72-2.064-1.744-2.064-1.2 0-2.032.784-2.032 1.92v5.168h-1.584v-8.272h1.584v1.184c.416-.848 1.28-1.376 2.352-1.376 1.312 0 2.352.768 2.768 1.968.256-1.168 1.264-1.968 2.56-1.968zm8.992 7.344c.896 0 1.936-.4 2.448-.944l.928.976c-.72.784-2.176 1.28-3.344 1.28-2.288 0-4.272-1.808-4.272-4.352 0-2.48 1.872-4.304 4.16-4.304 2.528 0 4 1.888 4 4.832h-6.608c.192 1.456 1.216 2.512 2.688 2.512zm-.048-6.032c-1.328 0-2.384.928-2.624 2.352h5.056c-.16-1.328-.992-2.352-2.432-2.352zm7.407.496c.512-1.104 1.632-1.808 3.072-1.808v1.376c-1.824 0-3.072 1.088-3.072 2.688v4.4h-1.584v-8.272h1.584zm5.732-2.992c-.528 0-.96-.448-.96-.96 0-.496.432-.944.96-.944s.944.448.944.944c0 .512-.416.96-.944.96zm-.8 9.648v-8.272h1.584v8.272zm7.852.192c-2.368 0-4.368-1.984-4.368-4.336s2.016-4.32 4.368-4.32c1.2 0 2.256.496 3.056 1.28l-1.072.992c-.512-.56-1.232-.896-1.984-.896-1.504 0-2.768 1.344-2.768 2.944 0 1.616 1.264 2.96 2.768 2.96.768 0 1.504-.352 2.032-.928l1.072.976c-.8.816-1.872 1.328-3.104 1.328zm7.893-8.656c2.224 0 3.456 1.408 3.456 3.456v5.008h-1.552v-1.12c-.608.848-1.728 1.312-2.752 1.312-1.744 0-3.056-1.024-3.056-2.64 0-1.648 1.488-2.752 3.312-2.752.816 0 1.696.176 2.496.448v-.256c0-1.04-.48-2.144-2.128-2.144-.816 0-1.6.32-2.32.688l-.592-1.168c1.184-.592 2.224-.832 3.136-.832zm-.528 7.408c1.024 0 2.16-.512 2.432-1.536v-1.104c-.688-.208-1.44-.32-2.256-.32-1.104 0-2.032.624-2.032 1.52s.8 1.44 1.856 1.44z"/><path d="m252.92 206.824v-10.992h1.616l6.304 8.336v-8.336h1.632v10.992h-1.632l-6.304-8.336v8.336zm16.141.192c-2.384 0-4.352-1.952-4.352-4.336s1.968-4.32 4.352-4.32 4.352 1.936 4.352 4.32-1.968 4.336-4.352 4.336zm0-1.376c1.52 0 2.768-1.328 2.768-2.96s-1.248-2.944-2.768-2.944-2.768 1.312-2.768 2.944 1.248 2.96 2.768 2.96zm7.857-5.472c.512-1.104 1.632-1.808 3.072-1.808v1.376c-1.824 0-3.072 1.088-3.072 2.688v4.4h-1.584v-8.272h1.584zm8.468 5.168.592 1.088c-.448.368-1.072.592-1.664.592-1.28 0-2.176-.928-2.176-2.256v-4.864h-1.232v-1.344h1.232v-2.272h1.552v2.272h1.952v1.344h-1.952v4.752c0 .576.4.992.864.992.352 0 .672-.128.832-.304zm6.469-6.976c1.824 0 3.088 1.296 3.088 3.2v5.264h-1.536v-4.992c0-1.248-.784-2.096-1.904-2.096-1.264 0-2.288.864-2.288 1.952v5.136h-1.584v-11.184h1.584v4.128c.48-.832 1.504-1.408 2.64-1.408zm-40.438 29.464-.976-2.288h-5.696l-.976 2.288h-1.792l4.72-10.992h1.792l4.72 10.992zm-6.064-3.696h4.48l-2.24-5.216zm18.815-4.768c1.728 0 2.976 1.328 2.976 3.2v5.264h-1.536v-5.024c0-1.216-.736-2.064-1.76-2.064-1.184 0-2.032.784-2.032 1.92v5.168h-1.552v-5.024c0-1.216-.72-2.064-1.744-2.064-1.2 0-2.032.784-2.032 1.92v5.168h-1.584v-8.272h1.584v1.184c.416-.848 1.28-1.376 2.352-1.376 1.312 0 2.352.768 2.768 1.968.256-1.168 1.264-1.968 2.56-1.968zm8.993 7.344c.896 0 1.936-.4 2.448-.944l.928.976c-.72.784-2.176 1.28-3.344 1.28-2.288 0-4.272-1.808-4.272-4.352 0-2.48 1.872-4.304 4.16-4.304 2.528 0 4 1.888 4 4.832h-6.608c.192 1.456 1.216 2.512 2.688 2.512zm-.048-6.032c-1.328 0-2.384.928-2.624 2.352h5.056c-.16-1.328-.992-2.352-2.432-2.352zm7.407.496c.512-1.104 1.632-1.808 3.072-1.808v1.376c-1.824 0-3.072 1.088-3.072 2.688v4.4h-1.584v-8.272h1.584zm5.731-2.992c-.528 0-.96-.448-.96-.96 0-.496.432-.944.96-.944s.944.448.944.944c0 .512-.416.96-.944.96zm-.8 9.648v-8.272h1.584v8.272zm7.852.192c-2.368 0-4.368-1.984-4.368-4.336s2.016-4.32 4.368-4.32c1.2 0 2.256.496 3.056 1.28l-1.072.992c-.512-.56-1.232-.896-1.984-.896-1.504 0-2.768 1.344-2.768 2.944 0 1.616 1.264 2.96 2.768 2.96.768 0 1.504-.352 2.032-.928l1.072.976c-.8.816-1.872 1.328-3.104 1.328zm7.894-8.656c2.224 0 3.456 1.408 3.456 3.456v5.008h-1.552v-1.12c-.608.848-1.728 1.312-2.752 1.312-1.744 0-3.056-1.024-3.056-2.64 0-1.648 1.488-2.752 3.312-2.752.816 0 1.696.176 2.496.448v-.256c0-1.04-.48-2.144-2.128-2.144-.816 0-1.6.32-2.32.688l-.592-1.168c1.184-.592 2.224-.832 3.136-.832zm-.528 7.408c1.024 0 2.16-.512 2.432-1.536v-1.104c-.688-.208-1.44-.32-2.256-.32-1.104 0-2.032.624-2.032 1.52s.8 1.44 1.856 1.44z"/></g><g filter="url(#f)"><path d="m854.653 150.612h-86.443v64.1h58.834l27.609 37.32v-37.32z" fill="#004141"/></g><path d="m798.681 190.635h-12.096l-.504-4.104 11.484-15.552h6.408v15.192h3.276v4.464h-3.276v5.04h-5.292zm0-4.464v-9.576l-7.02 9.576zm17.871-2.808c-1.2 0-2.268-.276-3.204-.828s-1.668-1.308-2.196-2.268c-.504-.96-.756-2.028-.756-3.204s.252-2.244.756-3.204c.528-.984 1.26-1.752 2.196-2.304.936-.576 2.004-.864 3.204-.864 1.224 0 2.304.288 3.24.864.936.552 1.656 1.308 2.16 2.268.528.96.792 2.028.792 3.204s-.264 2.256-.792 3.24c-.528.96-1.26 1.716-2.196 2.268s-2.004.828-3.204.828zm14.256-12.42h4.176l-17.208 24.732h-4.14zm-14.256 9.324c.768 0 1.392-.288 1.872-.864.504-.6.756-1.392.756-2.376 0-.936-.252-1.704-.756-2.304-.48-.6-1.104-.9-1.872-.9s-1.404.3-1.908.9c-.48.576-.72 1.344-.72 2.304s.252 1.74.756 2.34 1.128.9 1.872.9zm15.444 15.804c-1.2 0-2.268-.276-3.204-.828-.936-.576-1.668-1.344-2.196-2.304s-.792-2.028-.792-3.204.264-2.244.792-3.204 1.26-1.716 2.196-2.268c.936-.576 2.004-.864 3.204-.864 1.224 0 2.292.288 3.204.864.936.552 1.656 1.308 2.16 2.268.528.96.792 2.028.792 3.204s-.264 2.256-.792 3.24c-.528.96-1.26 1.716-2.196 2.268-.912.552-1.968.828-3.168.828zm0-3.132c.768 0 1.392-.288 1.872-.864.504-.6.756-1.38.756-2.34s-.252-1.74-.756-2.34-1.128-.9-1.872-.9c-.792 0-1.428.3-1.908.9-.48.576-.72 1.356-.72 2.34 0 .936.24 1.704.72 2.304.504.6 1.14.9 1.908.9z" fill="#fff"/><path d="m855.122 272.922-.976-2.288h-5.696l-.976 2.288h-1.792l4.72-10.992h1.792l4.72 10.992zm-6.064-3.696h4.48l-2.24-5.216zm12.271 3.888c-1.216 0-2.528-.432-3.52-1.232l.72-1.088c.912.672 1.904 1.04 2.816 1.04.992 0 1.616-.448 1.616-1.12 0-.784-.864-1.04-1.92-1.328-1.888-.528-2.848-1.072-2.848-2.416 0-1.52 1.264-2.512 3.008-2.512 1.072 0 2.176.368 3.056.96l-.656 1.12c-.816-.512-1.648-.8-2.4-.8-.832 0-1.504.368-1.504 1.056 0 .64.56.832 1.968 1.264 1.36.4 2.8.848 2.8 2.496 0 1.568-1.312 2.56-3.136 2.56zm5.861-9.84c-.528 0-.96-.448-.96-.96 0-.496.432-.944.96-.944s.944.448.944.944c0 .512-.416.96-.944.96zm-.8 9.648v-8.272h1.584v8.272zm7.308-8.464c2.224 0 3.456 1.408 3.456 3.456v5.008h-1.552v-1.12c-.608.848-1.728 1.312-2.752 1.312-1.744 0-3.056-1.024-3.056-2.64 0-1.648 1.488-2.752 3.312-2.752.816 0 1.696.176 2.496.448v-.256c0-1.04-.48-2.144-2.128-2.144-.816 0-1.6.32-2.32.688l-.592-1.168c1.184-.592 2.224-.832 3.136-.832zm-.528 7.408c1.024 0 2.16-.512 2.432-1.536v-1.104c-.688-.208-1.44-.32-2.256-.32-1.104 0-2.032.624-2.032 1.52s.8 1.44 1.856 1.44z" fill="#002626"/><path d="m909.22 454.744-.976-2.288h-5.696l-.976 2.288h-1.792l4.72-10.992h1.792l4.72 10.992zm-6.064-3.696h4.48l-2.24-5.216zm15.104-4.576h1.584v8.272h-1.584v-1.184c-.496.816-1.504 1.376-2.64 1.376-1.824 0-3.088-1.296-3.088-3.2v-5.264h1.552v4.992c0 1.248.784 2.096 1.904 2.096 1.264 0 2.272-.864 2.272-1.952zm6.918 8.464c-1.216 0-2.528-.432-3.52-1.232l.72-1.088c.912.672 1.904 1.04 2.816 1.04.992 0 1.616-.448 1.616-1.12 0-.784-.864-1.04-1.92-1.328-1.888-.528-2.848-1.072-2.848-2.416 0-1.52 1.264-2.512 3.008-2.512 1.072 0 2.176.368 3.056.96l-.656 1.12c-.816-.512-1.648-.8-2.4-.8-.832 0-1.504.368-1.504 1.056 0 .64.56.832 1.968 1.264 1.36.4 2.8.848 2.8 2.496 0 1.568-1.312 2.56-3.136 2.56zm8.597-1.68.592 1.088c-.448.368-1.072.592-1.664.592-1.28 0-2.176-.928-2.176-2.256v-4.864h-1.232v-1.344h1.232v-2.272h1.552v2.272h1.952v1.344h-1.952v4.752c0 .576.4.992.864.992.352 0 .672-.128.832-.304zm3.829-5.168c.512-1.104 1.632-1.808 3.072-1.808v1.376c-1.824 0-3.072 1.088-3.072 2.688v4.4h-1.584v-8.272h1.584zm8.068-1.808c2.224 0 3.456 1.408 3.456 3.456v5.008h-1.552v-1.12c-.608.848-1.728 1.312-2.752 1.312-1.744 0-3.056-1.024-3.056-2.64 0-1.648 1.488-2.752 3.312-2.752.816 0 1.696.176 2.496.448v-.256c0-1.04-.48-2.144-2.128-2.144-.816 0-1.6.32-2.32.688l-.592-1.168c1.184-.592 2.224-.832 3.136-.832zm-.528 7.408c1.024 0 2.16-.512 2.432-1.536v-1.104c-.688-.208-1.44-.32-2.256-.32-1.104 0-2.032.624-2.032 1.52s.8 1.44 1.856 1.44zm6.407 1.056v-11.184h1.584v11.184zm4.972-9.648c-.528 0-.96-.448-.96-.96 0-.496.432-.944.96-.944s.944.448.944.944c0 .512-.416.96-.944.96zm-.8 9.648v-8.272h1.584v8.272zm7.308-8.464c2.224 0 3.456 1.408 3.456 3.456v5.008h-1.552v-1.12c-.608.848-1.728 1.312-2.752 1.312-1.744 0-3.056-1.024-3.056-2.64 0-1.648 1.488-2.752 3.312-2.752.816 0 1.696.176 2.496.448v-.256c0-1.04-.48-2.144-2.128-2.144-.816 0-1.6.32-2.32.688l-.592-1.168c1.184-.592 2.224-.832 3.136-.832zm-.528 7.408c1.024 0 2.16-.512 2.432-1.536v-1.104c-.688-.208-1.44-.32-2.256-.32-1.104 0-2.032.624-2.032 1.52s.8 1.44 1.856 1.44zm-57.766 21.576-1.408.64c-.496-.496-.944-.96-1.344-1.376-.912.88-1.984 1.408-3.312 1.408-2 0-3.536-1.184-3.536-3.136 0-1.424.784-2.416 2.48-3.168-.624-.864-.88-1.552-.88-2.368 0-1.472 1.216-2.64 2.896-2.64 1.584 0 2.768 1.168 2.768 2.624 0 1.376-.992 2.048-2.624 2.752.656.752 1.344 1.52 2.24 2.464.464-.688.864-1.472 1.184-2.32l1.264.576c-.464 1.008-.976 1.92-1.536 2.704zm-5.088-9.376c-.816 0-1.456.528-1.456 1.376 0 .56.272 1.12.816 1.808 1.344-.528 1.92-.96 1.92-1.808 0-.768-.528-1.376-1.28-1.376zm-.848 8.736c.816 0 1.584-.4 2.272-1.04-1.2-1.248-2.016-2.16-2.704-2.976-1.056.528-1.648 1.232-1.648 2.128 0 1.184.944 1.888 2.08 1.888zm17.717 1.312c-3.072 0-5.696-2.608-5.696-5.696s2.624-5.68 5.696-5.68c3.104 0 5.696 2.592 5.696 5.68s-2.592 5.696-5.696 5.696zm0-1.488c2.192 0 4.048-1.92 4.048-4.208 0-2.272-1.856-4.192-4.048-4.192s-4.048 1.92-4.048 4.192c0 2.288 1.856 4.208 4.048 4.208zm11.526 1.488c-2.368 0-4.368-1.984-4.368-4.336s2.016-4.32 4.368-4.32c1.2 0 2.256.496 3.056 1.28l-1.072.992c-.512-.56-1.232-.896-1.984-.896-1.504 0-2.768 1.344-2.768 2.944 0 1.616 1.264 2.96 2.768 2.96.768 0 1.504-.352 2.032-.928l1.072.976c-.8.816-1.872 1.328-3.104 1.328zm8.357-1.312c.896 0 1.936-.4 2.448-.944l.928.976c-.72.784-2.176 1.28-3.344 1.28-2.288 0-4.272-1.808-4.272-4.352 0-2.48 1.872-4.304 4.16-4.304 2.528 0 4 1.888 4 4.832h-6.608c.192 1.456 1.216 2.512 2.688 2.512zm-.048-6.032c-1.328 0-2.384.928-2.624 2.352h5.056c-.16-1.328-.992-2.352-2.432-2.352zm8.959-1.312c2.224 0 3.456 1.408 3.456 3.456v5.008h-1.552v-1.12c-.608.848-1.728 1.312-2.752 1.312-1.744 0-3.056-1.024-3.056-2.64 0-1.648 1.488-2.752 3.312-2.752.816 0 1.696.176 2.496.448v-.256c0-1.04-.48-2.144-2.128-2.144-.816 0-1.6.32-2.32.688l-.592-1.168c1.184-.592 2.224-.832 3.136-.832zm-.528 7.408c1.024 0 2.16-.512 2.432-1.536v-1.104c-.688-.208-1.44-.32-2.256-.32-1.104 0-2.032.624-2.032 1.52s.8 1.44 1.856 1.44zm10.632-7.408c1.824 0 3.088 1.296 3.088 3.2v5.264h-1.536v-4.992c0-1.248-.784-2.096-1.904-2.096-1.264 0-2.288.864-2.288 1.952v5.136h-1.584v-8.272h1.584v1.216c.48-.832 1.504-1.408 2.64-1.408zm6.31-1.184c-.528 0-.96-.448-.96-.96 0-.496.432-.944.96-.944s.944.448.944.944c0 .512-.416.96-.944.96zm-.8 9.648v-8.272h1.584v8.272zm7.308-8.464c2.224 0 3.456 1.408 3.456 3.456v5.008h-1.552v-1.12c-.608.848-1.728 1.312-2.752 1.312-1.744 0-3.056-1.024-3.056-2.64 0-1.648 1.488-2.752 3.312-2.752.816 0 1.696.176 2.496.448v-.256c0-1.04-.48-2.144-2.128-2.144-.816 0-1.6.32-2.32.688l-.592-1.168c1.184-.592 2.224-.832 3.136-.832zm-.528 7.408c1.024 0 2.16-.512 2.432-1.536v-1.104c-.688-.208-1.44-.32-2.256-.32-1.104 0-2.032.624-2.032 1.52s.8 1.44 1.856 1.44z" fill="#002626"/></svg>