<svg width="1027" height="517" viewBox="0 0 1027 517" fill="none" xmlns="http://www.w3.org/2000/svg">
<g opacity="0.05" clip-path="url(#clip0_198_1353)">
<path d="M501.98 176.623C503.638 177.506 504.979 175.347 505.317 173.026C505.328 172.939 505.328 172.862 505.339 172.775C505.361 172.601 505.383 172.416 505.394 172.241C505.394 172.089 505.394 171.936 505.394 171.783C505.394 171.674 505.394 171.565 505.394 171.467C505.317 170.203 504.87 169.08 503.954 168.59C502.078 169.625 501.631 171.053 501.631 172.666C501.631 173.92 501.904 175.271 501.98 176.623Z" fill="#002626"/>
<path d="M523.356 15.5308C521.557 16.2066 519.768 16.8823 517.445 17.7543C519.714 21.1331 521.797 22.1685 523.76 22.0159C524.949 21.9287 526.105 21.3947 527.239 20.6862C530.871 18.4082 534.296 14.2556 538.102 16.7188C540.927 21.0132 543.795 20.4791 547.612 18.3428C538.876 11.4326 528.428 9.63421 521.208 9.95029C516.54 10.1574 513.224 11.2473 512.603 12.4136C511.883 13.7651 514.773 15.2147 523.346 15.5199L523.356 15.5308Z" fill="#002626"/>
<path d="M623.205 297.553C623.139 297.553 623.074 297.553 622.997 297.553C622.921 297.553 622.856 297.553 622.779 297.564C622.299 297.586 621.787 297.673 621.22 297.793C618.09 298.414 614.043 300.06 611.251 300.834C610.553 301.008 609.866 301.15 609.201 301.237C606.365 299.711 603.813 297.793 601.468 295.591C598.731 290.577 594.488 286.305 590.965 281.694C588.849 277.967 586.952 273.989 585.163 269.901C584.934 268.626 584.814 267.296 584.847 265.901C583.287 264.223 582.011 262.01 580.866 259.525C580.004 257.378 579.165 255.231 578.314 253.105C576.362 247.688 574.529 242.042 571.825 238.184C571.694 237.912 571.552 237.628 571.421 237.367C568.531 231.721 560.984 233.236 553.851 232.887C547.133 230.511 540.371 226.565 536.728 231.187C535.888 232.026 535.168 232.996 534.416 233.846C529.192 233.257 524.993 232.571 521.655 231.808C516.965 228.985 512.221 228.048 509.691 226.086C507.739 223.285 509.276 220.451 508.786 218.445C509.189 217.486 509.713 216.418 510.389 215.23C504.979 214.292 499.472 214.859 493.975 215.895C486.951 216.352 476.688 217.519 461.703 219.633C458.104 221.257 455.802 223.579 454.112 226.151C452.749 227.394 451.527 228.723 450.491 230.413C449.837 235.187 447.339 239.001 444.253 242.555C442.944 243.503 441.384 244.266 439.421 244.778C438.32 247.329 436.727 249.846 435.102 252.397C431.568 256.604 428.82 261.302 428.766 267.547C434.415 277.585 423.094 288.561 431.329 297.215C431.449 297.346 431.558 297.477 431.688 297.597C436.869 302.098 441.722 311.81 447.83 317.183C449.335 318.513 450.916 319.581 452.607 320.224C455.443 321.314 458.562 321.248 462.085 319.33C468.05 321.554 475.281 317.663 481.574 315.93C486.319 314.622 490.528 314.524 493.266 319.199C496.222 321.761 500.377 321.717 503.147 322.665C505.688 323.537 507.052 325.259 505.263 330.589C505.165 330.873 505.067 331.156 504.958 331.45C504.761 332.268 504.63 333.063 504.543 333.848C503.256 346.273 515.809 355.505 516.115 368.857C517.325 373.577 515.526 377.871 513.77 382.165C511.48 387.768 509.287 393.37 513.977 399.953C514.392 400.596 514.773 401.283 515.144 401.991C519.125 409.599 521.001 420.804 524.011 430.417C526.4 438.057 529.53 444.673 535.005 447.66C535.692 448.041 536.412 448.379 537.186 448.63C537.655 448.652 538.102 448.652 538.56 448.652C549.03 448.837 556.316 445.153 562.009 439.431C567.506 433.937 571.508 426.548 575.402 418.787C575.609 418.384 575.805 417.992 576.013 417.588C579.525 416.335 580.561 414.286 580.648 411.899C580.648 411.833 580.648 411.768 580.648 411.703C580.648 411.67 580.648 411.626 580.648 411.594C580.648 406.188 576.067 399.179 583.713 395.735C583.865 395.67 583.996 395.593 584.138 395.528C590.082 392.694 593.059 388.879 594.194 384.334C595.339 379.865 594.684 374.677 593.299 368.944C593.277 368.868 593.267 368.792 593.245 368.715C592.83 367.658 592.492 366.623 592.209 365.598C589.198 354.59 594.019 345.903 600.868 337.619C610.106 326.458 623.019 316.028 625.375 301.619V301.597C626.52 298.48 625.353 297.499 623.194 297.542L623.205 297.553Z" fill="#002626"/>
<path d="M904.818 399.309C891.916 381.27 890.302 358.501 885.645 395.036C860.44 384.039 880.759 376.202 866.678 375.003C858.139 372.398 853.983 380.05 849.261 385.728C843.862 376.322 838.813 387.319 834.003 391.734C831.091 402.829 809.453 399.887 806.759 413.402C810.914 422.939 807.697 454.82 820.61 449.566C874.029 425.653 859.906 453.762 876.243 444.356C879.624 455.506 889.833 465.479 901.906 462.002C927.34 452.073 926.576 414.71 904.829 399.32L904.818 399.309Z" fill="#002626"/>
<path d="M710.652 304.092C709.398 304.822 708.721 306.424 708.569 308.234C708.492 309.171 708.558 310.174 708.754 311.144C709.223 313.356 710.423 315.416 712.32 316.266C714.295 314.348 714.665 312.593 714.262 310.871C713.738 308.648 711.939 306.49 710.652 304.092Z" fill="#002626"/>
<path d="M235.09 43.3019C236.584 42.6806 237.729 42.1356 238.58 41.656C247.839 36.5006 222.209 39.2364 210.387 35.9339C210.169 35.8685 209.95 35.8031 209.732 35.7377H209.71C208.173 35.2472 206.908 34.6477 206.046 33.8848C207.158 48.3701 224.663 41.558 235.079 43.291L235.09 43.3019Z" fill="#002626"/>
<path d="M521.273 184.068C521.273 183.85 521.273 183.632 521.252 183.447C521.252 183.381 521.23 183.327 521.219 183.251C521.197 183.076 521.175 182.891 521.132 182.738C521.132 182.717 521.121 182.706 521.11 182.695C521.055 182.499 521.001 182.324 520.924 182.172C520.87 182.052 520.794 181.954 520.728 181.856C520.695 181.812 520.674 181.757 520.641 181.714C519.561 180.362 517.162 180.744 514.032 180.831C513.486 182.128 514.348 182.978 515.657 183.698C517.325 184.613 519.757 185.311 521.023 186.455C521.153 185.703 521.219 185.06 521.252 184.493C521.252 184.428 521.262 184.351 521.262 184.297C521.262 184.221 521.262 184.155 521.262 184.079L521.273 184.068Z" fill="#002626"/>
<path d="M198.411 41.9076C200.124 42.3326 202.469 42.3544 204.704 43.2918C202.752 36.3053 200.833 38.507 195.892 39.5969C196.132 41.0138 197.081 41.5806 198.411 41.9076Z" fill="#002626"/>
<path d="M246.487 47.5304C245.483 47.4323 244.338 47.4105 243.215 47.3778C241.721 47.3342 240.27 47.2361 239.256 46.8438C240.837 51.4215 243.193 51.1926 245.527 50.6258C245.756 50.5714 245.996 50.506 246.225 50.4515C246.454 50.397 246.694 50.3316 246.923 50.288C247.054 50.2553 247.185 50.2335 247.316 50.2117C247.523 50.1681 247.73 50.1354 247.937 50.1136C248.494 50.0482 249.039 50.07 249.541 50.2335C250.053 48.3152 248.548 47.7484 246.476 47.5413L246.487 47.5304Z" fill="#002626"/>
<path d="M357.296 345.129C348.069 343.571 337.435 339.723 332.418 331.919C328.852 320.322 326.027 317.815 314.095 316.279C305.272 314.687 301.28 301.946 292.686 301.161C285.346 304.322 279.882 300.082 273.654 296.453C270.066 306.502 268.561 306.273 270.001 295.624C260.011 295.94 255.321 315.352 249.126 306.97C245.341 299.395 240.314 306.698 235.057 303.428C224.303 297.248 239.899 277.586 224.161 278.599C211.783 283.722 226.299 241.716 211.902 264.474C190.57 288.638 183.011 216.255 210.386 228.56C219.973 228.647 207.605 220.691 227.684 226.783C237.282 226.271 232.363 243.514 239.986 244.081C241.437 230.794 232.396 216.658 248.842 208.898C256.542 206.314 247.457 183.72 252.812 196.995C257.6 187.774 270.393 169.147 282.314 168.581C272.389 180.603 299.557 167.665 294.998 163.501C287.887 170.684 275.301 158.564 284.79 155.589C279.369 150.684 275.247 156.548 270.524 155.916C281.998 147.087 328.459 147.24 294.704 130.258C284.986 121.375 288.749 106.759 274.636 118.247C266.282 106.476 242.07 92.2629 247.043 118.759C254.525 126.727 251.035 127.915 242.953 133.07C244.865 140.162 243.546 144.478 238.994 146.019C239.212 122.945 198.433 130.487 201.64 110.77C212.59 96.0232 225.732 91.1403 236.529 86.3554C239.267 73.941 226.343 73.8756 223.267 84.1647C215.72 89.3092 221.446 72.208 213.789 80.2845C187.843 53.1449 207.365 79.685 197.015 84.9603C179.456 76.5024 162.835 86.944 145.973 82.7913C140.051 73.6685 125.84 79.5542 117.944 75.456C114.225 80.1319 112.534 75.4233 111.095 74.3334C100.581 73.2217 91.3978 78.9329 82.2801 78.7586C55.7775 72.8402 25.7741 64.4912 2.21628 81.7995C23.6473 92.0449 14.5623 84.6333 -0.0195312 92.0231C5.20463 99.8925 16.4055 91.0967 18.0087 99.3366C12.6319 100.666 6.03351 99.9579 4.59387 106.705C3.25239 113.669 16.6672 110.999 15.8493 117.833C50.3134 115.849 -14.7541 139.937 22.3713 131.13C23.7673 124.918 35.2081 123.512 38.1419 117.789C38.5564 112.46 43.2352 111.38 46.3981 108.754C35.4044 119.588 77.0232 107.37 90.5907 119.479C95.8585 119.904 89.6092 133.125 96.9819 132.253C104.998 130.509 104.671 146.346 113.69 148.33C129.668 153.943 114.803 167.752 119.711 183.371C119.885 203.895 140.662 212.658 146.78 231.165C145.635 235.797 146.191 237.291 150.369 239.187C154.502 241.781 155.724 253.869 160.403 252.005C157.458 245.421 137.27 210.565 150.587 224.189C160.403 238.925 168.451 256.081 176.817 269.629C193.122 282.338 218.501 279.166 226.288 301.499C274.396 325.347 242.484 311.919 243.106 355.713C282.641 418.766 276.785 393.719 263.206 471.061C269.281 473.699 263.948 487.933 262.792 478.178C254.296 493.296 257.895 523.978 286.469 514.463C265.725 505.46 289.807 496.097 284.43 488.696C279.009 485.503 292.304 477.437 289.785 469.448C295.009 471.813 297.365 469.197 297.507 464.576C307.17 462.08 318.425 458.08 308.675 448.085C329.353 454.461 331 426.319 342.823 415.049C362.901 412.455 362.891 393.752 366.053 378.024C380.701 364.465 378.192 348.334 357.296 345.151V345.129Z" fill="#002626"/>
<path d="M389.12 9.1539C411.239 -3.90359 345.451 0.85945 329.484 2.16738C342.31 16.6418 323.05 0.946646 320.781 6.18926C311.303 5.5135 267.089 11.9551 282.5 16.8707C280.711 22.9526 275.672 20.1732 272.313 21.2849C238.569 27.0616 297.485 29.5358 266.249 29.9827C271.615 41.2091 290.407 30.593 299.404 37.427C304.999 43.28 311.609 48.6534 307.759 55.0731C313.212 60.4138 328.066 62.1468 310.943 60.8171C314.379 65.0243 322.624 62.8553 320.574 69.7873C298.456 78.0273 341.078 139.435 349.29 95.4555C352.573 79.9347 385.816 74.8992 399.754 64.294C385.14 64.2286 391.302 57.0568 401.39 63.1496C401.641 58.0051 399.569 56.0868 396.46 54.659C384.551 44.3481 405.622 52.5336 406.789 44.7623C408.621 25.1106 397.944 20.6201 427.053 10.124C407.585 6.64704 399.82 11.0722 389.131 9.143L389.12 9.1539Z" fill="#002626"/>
<path d="M266.958 59.5421C259.738 54.4956 252.038 51.2149 245.974 52.7626C243.771 52.9806 241.59 53.0569 238.558 51.3675C238.383 51.0078 238.22 50.5936 238.078 50.125C236.693 48.4356 234.981 47.5636 233.29 47.3456H233.257C231.872 47.1712 230.498 47.4437 229.309 48.0977C227.531 48.8497 226.517 50.1468 226.212 52.0542C225.71 53.8417 225.852 56.0542 227.008 58.5502C226.953 58.5175 226.921 58.4739 226.866 58.4412C224.99 57.057 224.478 53.7327 224.031 50.8443C224.347 49.4601 224.925 48.0323 225.579 46.55C224.609 46.4628 223.714 46.441 222.896 46.4955C222.285 45.6017 221.337 45.569 219.646 47.1385C216.745 48.2067 215.305 50.441 214.935 52.9261C214.662 53.3076 214.4 53.6782 214.117 54.1032C213.931 55.0515 214.422 55.9017 215.109 56.6864C215.48 58.3431 216.222 59.9017 217.214 61.1116C216.832 61.3514 216.309 61.5802 215.567 61.82C216.407 61.9726 217.356 62.1252 218.37 62.2778C219.363 63.0735 220.497 63.5421 221.707 63.5203C223.409 63.4223 225.394 63.4332 227.542 63.5421C236.235 64.7302 246.487 66.2888 253.401 68.9809C258.266 71.1717 261.483 73.9947 261.189 77.428C260.643 80.0765 258.004 83.2265 252.485 87.0086C252.605 86.6925 252.714 86.3873 252.812 86.1148C254.187 82.0929 253.238 81.4935 251.7 82.5071C249.879 83.6952 247.228 87.1176 246.574 89.8315C246.858 90.0277 247.141 90.1912 247.436 90.3547C250.609 92.0768 254.372 91.5972 257.655 92.2076C259.803 92.6109 261.734 93.4828 263.141 95.7717H263.163C265.627 99.2704 269.903 101.385 273.458 102.29C275.683 103.216 277.243 103.39 277.843 102.78C280.024 102.573 280.427 101.33 276.905 99.205C276.512 98.6274 276.01 97.9734 275.4 97.254C276.534 97.3848 277.526 97.4393 278.399 97.4284C284.07 99.9571 284.179 98.6164 282.532 95.8371C283.099 94.3112 281.42 91.7062 277.45 88.153C276.916 87.2484 276.458 86.3764 276.141 85.5699C279.031 85.8205 281.616 85.8205 283.743 85.5916C288.313 87.6298 289.731 86.6053 288.967 83.9022C290.952 82.2346 289.861 79.4662 284.081 75.7386C282.009 73.1118 279.424 70.2453 276.512 67.4659C277.243 63.7274 272.16 61.4822 266.958 59.5639V59.5421Z" fill="#002626"/>
<path d="M621.176 376.234C612.581 386.938 603.3 390.044 604.631 404.05C604.096 411.81 604.631 416.115 605.83 417.914C607.837 420.966 611.687 416.791 615.21 409.968C617.915 404.736 620.434 397.946 621.775 391.668C623.15 385.237 623.302 379.352 621.176 376.234Z" fill="#002626"/>
<path d="M821.024 320.605C818.014 313.684 807.413 318.49 800.64 326.251C795.373 332.278 792.417 340.082 797.139 345.543C802.505 344.398 809.736 350.012 813.292 347.995C814.284 347.428 814.993 346.273 815.299 344.202C817.84 341.096 818.57 338 818.756 334.981C818.756 334.949 818.756 334.916 818.756 334.883C818.756 334.85 818.756 334.818 818.756 334.785C818.985 330.534 818.178 326.425 819.803 322.687C820.108 321.978 820.501 321.281 821.014 320.605H821.024Z" fill="#002626"/>
<path d="M877.563 28.4576C877.563 28.4576 877.65 28.4794 877.694 28.4903C884.576 30.3214 896.649 31.1934 897.5 26.4304C890.782 23.6837 880.715 22.8445 873.953 27.1279C874.586 27.4876 875.502 27.8364 876.592 28.1743C876.898 28.2724 877.225 28.3596 877.563 28.4576Z" fill="#002626"/>
<path d="M855.063 207.152C855.216 207.947 855.38 208.743 855.543 209.561C856.263 208.907 856.874 208.22 857.375 207.522C857.812 206.934 858.161 206.334 858.444 205.757C858.466 205.702 858.499 205.659 858.521 205.604C858.652 205.321 858.761 205.037 858.848 204.754C858.859 204.71 858.891 204.667 858.902 204.612C859.001 204.296 859.077 203.991 859.131 203.697V203.664C859.175 203.479 859.186 203.304 859.197 203.119C859.197 202.999 859.23 202.879 859.23 202.759C859.23 202.705 859.23 202.65 859.23 202.596C859.208 200.089 857.332 198.454 853.515 199.49C854.104 202.432 854.573 204.776 855.042 207.152H855.063Z" fill="#002626"/>
<path d="M826.314 261.464C826.554 262.368 827.012 263.284 827.688 264.167C827.743 264.232 827.775 264.298 827.83 264.363C828.659 261.878 829.379 259.709 830.066 257.649C830.48 256.417 830.873 255.218 831.276 254.03C830.153 253.725 829.03 254.096 828.103 254.891C828.07 254.913 828.037 254.935 828.004 254.968C827.95 255.022 827.906 255.077 827.852 255.131C826.63 256.341 825.856 258.336 826.128 260.483C826.161 260.712 826.216 260.94 826.259 261.169C826.281 261.267 826.292 261.355 826.314 261.442V261.464Z" fill="#002626"/>
<path d="M978.731 469.044C972.231 474.701 966.188 479.944 959.928 485.382C961.586 486.167 962.938 486.799 964.073 487.268C964.836 487.573 965.501 487.813 966.09 487.955C966.385 488.031 966.668 488.085 966.93 488.118C969.591 488.456 970.824 486.658 973.812 481.971C973.965 481.753 974.15 481.535 974.336 481.306C975.688 479.715 977.782 478.003 979.483 476.347C980.607 475.257 981.556 474.189 982.003 473.186C982.733 471.551 982.123 470.09 978.72 469.033L978.731 469.044Z" fill="#002626"/>
<path d="M992.614 459.027C991.993 458.711 991.393 458.438 990.837 458.231C987.325 456.912 985.002 457.577 983.878 459.43C983.857 459.474 983.824 459.506 983.802 459.55C983.78 459.594 983.758 459.648 983.737 459.692C982.548 461.981 982.984 465.85 985.078 470.024C985.383 470.635 985.722 471.256 986.092 471.866C989.092 467.899 992.015 464.03 994.839 460.302C994.098 459.833 993.4 459.43 992.734 459.081C992.691 459.06 992.658 459.049 992.614 459.027Z" fill="#002626"/>
<path d="M1016.87 63.2688C1005.29 54.789 980.977 43.3992 971.729 54.4948C969.711 54.7345 966.788 54.9416 967.421 51.0941C947.604 49.2194 927.329 48.4129 908.548 40.4454C890.782 36.4671 874.171 43.7043 856.557 45.9278C850.57 45.4918 853.177 39.8024 851.508 36.2491C845.389 36.4126 839.434 31.7913 832.978 37.4045C817.033 33.5679 766.416 39.4754 807.206 28.2163C804.545 19.5403 794.915 21.9709 787.433 21.4259C782.492 18.9845 777.541 15.9326 772.24 20.336C749.119 28.7286 728.898 28.1182 710.183 36.6742C725.55 50.4184 685.055 29.8076 691.217 49.9824C693.911 56.5656 700.476 50.0478 703.857 57.4921C690.857 48.9688 694.489 67.3234 682.393 64.1407C697.161 57.4921 685.905 22.5813 672.436 44.3365C669.022 49.2194 674.715 52.1078 677.595 56.533C668.902 54.6256 636.848 41.8623 653.731 53.9171C641.691 60.3041 626.367 50.2549 616.192 61.1434C613.291 63.683 610.902 63.6612 608.655 60.2497C618.449 54.6692 599.679 52.3476 605.591 64.6639C599.93 63.0508 592.907 66.3315 592.721 71.5523C588.25 70.6041 579.513 68.773 587.944 73.9066C579.775 76.6642 570.996 59.7047 577.845 63.8465C626.444 69.0346 562.914 43.3992 552.215 46.887C541.374 44.8815 529.988 52.8925 519.092 54.7781C524.251 66.4078 497.726 75.16 491.368 84.6098C489.896 91.3675 496.679 104.817 504.685 95.9016C515.722 92.501 512.657 122.91 525.396 101.766C534.045 91.9015 529.628 92.283 528.395 82.0812C534.71 77.2418 541.439 62.2987 550.775 69.3616C534.71 77.2636 534.754 97.5256 555.759 89.1985C577.256 92.4356 539.127 89.4165 547.296 97.8526C549.205 108.61 536.335 93.2967 537.982 111.03C527.261 114.997 498.883 120.621 508.251 100.861C495.403 102.855 504.75 111.401 502.656 115.215C492.001 118.104 486.94 124.142 480.331 131.859C444.307 144.35 483.036 135.881 471.922 158.606C444.58 147.292 442.202 193.669 468.105 186.541C477.321 186.977 482.327 158.551 490.648 159.031C497.53 163.434 502.591 150.322 507.335 157.843C512.199 165.919 525.614 169.712 523.226 180.71C528.286 180.775 523.16 168.84 530.664 172.612C526.694 166.137 507.335 157.581 515.864 149.843C530.369 158.486 535.572 172.601 542.355 186.628C550.47 181.734 546.085 176.95 541.745 171.075C562.958 167.652 546.271 173.527 557.461 185.048C561.943 190.574 575.14 186.661 582.36 187.707C579.841 199.25 579.055 208.82 566.088 212.602C573.46 214.847 574.715 217.539 571.563 223.011C590.278 215.065 595.797 280.385 607.467 284.505C629.825 268.897 662.947 257.769 640.84 230.062C636.368 233.136 634.896 240.995 627.043 237.158C628.712 230.836 613.051 224.188 618.864 213.888C627.174 216.493 629.65 232.722 641.113 226.923C654.299 240.82 670.876 225.408 679.1 244.711C676.242 247.164 679.132 249.91 681.27 250.804C694.129 250.314 690.791 288.897 701.36 305.018C711.753 293.377 708.285 284.57 711.197 272.712C727.219 250.586 749.075 229.18 750.1 271.622C771.477 261.322 756.11 297.279 766.743 309.683C766.623 319.078 781.282 342.741 777.53 322.261C774.934 307.939 759.294 297.65 769.154 281.649C778.108 293.541 783.463 304.865 794.02 288.047C795.024 282.216 792.461 275.459 799.234 271.055C786.026 274.423 779.286 258.161 789.407 250.379C804.774 250.019 823.577 240.668 829.128 220.809C830.088 219 835.323 214.923 828.844 212.504C817.753 172.873 846.742 190.737 819.89 179.827C818.571 173.702 827.394 171.892 831.735 168.612C826.369 179.718 833.392 174.77 840.94 173.614C839.5 179.729 838.257 181.724 844.004 182.737C842.706 191.38 842.739 202.28 852.086 192.165C841.278 146.442 884.358 172.721 886.419 120.044C886.43 111.281 879.036 117.166 874.346 115.041C868.315 100.904 901.11 89.6454 914.525 92.7408C927.493 103.335 928.18 76.3372 942.762 85.6562C975.47 76.0211 911.144 101.613 931.888 129.232C955.391 107.749 944.081 90.6372 957.921 90.3102C973.103 91.4002 981.479 79.716 998.46 81.1874C991.284 73.8739 999.486 64.0862 1006.86 68.773C1019.66 81.667 1039.08 58.909 1016.85 63.2688H1016.87Z" fill="#002626"/>
<path d="M834.079 309.095C833.425 309.487 832.923 309.847 832.661 310.163C832.105 310.817 832.629 311.253 835.104 311.263C840.787 321.956 847.56 310.588 842.412 304.844C840.732 305.901 836.446 307.689 834.09 309.105L834.079 309.095Z" fill="#002626"/>
<path d="M149.06 69.6887C152.507 71.2909 155.844 72.4789 159.988 70.6151C161.025 70.3208 162.028 70.0919 162.988 69.9175C172.411 68.1845 178.344 71.2146 183.873 65.318C178.475 61.0454 175.377 58.5495 173.785 56.3587C173.73 56.2824 173.687 56.2061 173.632 56.1298C173.578 56.0535 173.523 55.9663 173.469 55.89C171.789 53.2741 172.247 50.9417 173.403 46.3203C173.131 46.3966 172.869 46.4729 172.607 46.5492C166.292 48.3367 161.963 48.8926 165.071 55.9554C160.359 52.5548 152.954 49.6773 146.377 49.6991C141.546 49.71 137.172 51.2904 134.631 55.3777C134.609 55.3995 134.598 55.4322 134.577 55.454C134.555 55.4867 134.544 55.5194 134.522 55.5521C134.348 55.8355 134.184 56.1298 134.031 56.4459C135.951 56.969 137.947 57.2851 138.765 57.7865H138.786C139.561 58.2879 139.168 58.9636 136.442 60.1735C136.42 60.1735 136.398 60.1953 136.376 60.2062C136.376 60.2062 136.452 60.2389 136.496 60.2498C141.829 62.3425 145.461 62.5931 147.108 62.5495C147.413 62.5495 147.653 62.5277 147.817 62.5059C146.923 62.6912 144.032 63.4869 138.885 66.2989C142.789 66.4951 145.963 68.2717 149.06 69.7105V69.6887Z" fill="#002626"/>
<path d="M857.146 338.415C857.059 338.273 857.113 338.371 857.332 338.796L857.364 338.774C857.702 339.341 858.368 340.42 859.273 341.706C861.04 344.268 863.744 347.679 866.766 349.641C868.412 350.72 870.147 351.352 871.848 351.167C871.87 351.167 871.892 351.167 871.913 351.167C874.193 351.799 875.676 352.649 876.669 353.63C878.446 355.374 878.654 357.521 879.003 359.538C879.242 360.922 879.559 362.241 880.486 363.32C881.304 364.268 882.613 365.031 884.739 365.5C885.274 365.62 885.83 365.718 886.473 365.805C887.553 366.132 888.676 366.568 889.745 366.568C891.021 366.568 892.21 365.979 893.17 363.865C897.369 358.807 900.652 362.873 904.654 366.535C907.348 368.998 910.347 371.266 914.165 370.481C914.23 370.47 914.296 370.459 914.372 370.448C903.793 360.933 888.731 330.774 869.285 347.821C867.387 345.052 866.635 342.033 865.588 339.93C865.086 338.927 864.508 338.131 863.712 337.684C862.414 336.965 860.527 337.15 857.386 338.796C857.212 338.502 857.135 338.371 857.157 338.436L857.146 338.415Z" fill="#002626"/>
<path d="M459.87 106.192C460.372 107.38 461.179 108.503 462.15 109.582C464.047 111.707 466.545 113.713 468.465 115.827C458.714 121.658 470.951 125.898 461.67 130.901C461.953 130.89 462.215 130.868 462.488 130.857C470.079 130.498 475.019 129.528 477.8 127.893C477.953 127.806 478.073 127.708 478.215 127.62C478.335 127.533 478.477 127.457 478.597 127.37C481.454 125.212 481.214 122.062 478.858 117.844C478.815 117.756 478.771 117.68 478.727 117.593C478.727 117.571 478.706 117.56 478.695 117.538C476.83 114.29 473.743 110.421 469.871 105.898C471.158 104.263 471.562 102.595 471.377 101.102C471.158 99.38 470.144 97.9195 468.759 97.0693C466.556 95.7069 463.415 95.8813 461.081 99.0857C460.863 99.38 460.677 99.6634 460.503 99.9577C459.096 102.279 459.085 104.317 459.881 106.192H459.87Z" fill="#002626"/>
<path d="M767.245 326.262C762.817 322.948 758.302 319.885 754.713 317.215C754.833 317.847 755.008 318.512 755.226 319.21C758.585 329.88 773.287 347.853 782.405 354.415H782.416C788.916 344.616 778.38 334.621 767.245 326.272V326.262Z" fill="#002626"/>
<path d="M633.162 45.9936C635.627 46.7021 639.193 47.0945 644.057 47.0727C634.482 39.6502 641.92 33.8626 652.335 29.7971L652.412 29.7644C652.597 29.6881 652.793 29.6227 652.99 29.5464C653.099 29.5028 653.208 29.4592 653.328 29.4156C653.47 29.3611 653.622 29.3066 653.764 29.2521C653.928 29.1976 654.08 29.1322 654.244 29.0777C654.32 29.045 654.408 29.0232 654.495 28.9905C655.651 28.5764 656.818 28.184 658.007 27.8134L658.094 27.7916C658.378 27.7044 658.672 27.6172 658.956 27.5191C658.999 27.5082 659.043 27.4973 659.086 27.4864C659.359 27.3992 659.632 27.3229 659.915 27.2357C660.155 27.1703 660.395 27.094 660.624 27.0286C660.701 27.0068 660.777 26.985 660.853 26.9632C667.168 25.143 673.265 23.9005 676.504 23.2356C672.414 19.7369 662.729 21.1212 653.131 24.5545C648.856 26.0804 644.592 28.0205 640.851 30.1241C630.206 36.0861 623.782 43.3015 633.184 45.9936H633.162Z" fill="#002626"/>
<path d="M417.216 85.0684C414.14 84.6651 409.516 85.4935 403.026 88.36C402.383 86.4199 401.292 85.4826 400.125 85.1883C398.98 84.9049 397.759 85.221 396.777 85.7987C395.01 86.845 394.029 88.7306 395.719 89.5154C396.548 89.9078 398.009 90.0167 400.354 89.6462C398.675 90.4745 397.584 91.074 396.93 91.51H396.919L396.897 91.5427C393.462 93.8751 402.732 91.5645 399.602 96.4038C404.848 99.521 409.57 99.957 413.322 98.987C413.388 98.9652 413.453 98.9434 413.518 98.9325C413.704 98.878 413.878 98.8344 414.053 98.7799C418.503 97.3629 421.426 93.9405 422.004 90.856C422.527 88.0766 421.142 85.5807 417.216 85.0684Z" fill="#002626"/>
<path d="M878.108 183.229C877.923 183.447 877.727 183.665 877.541 183.872C871.39 190.521 864.181 191.469 861.814 192.57C861.192 192.853 860.909 193.147 861.062 193.561C861.389 194.488 863.952 196.003 869.939 199.295C882.994 195.273 894.762 179.316 885.437 168.111C885.285 168.722 885.132 169.31 884.957 169.888C883.278 175.763 880.868 180.013 878.206 183.12C878.174 183.153 878.141 183.185 878.108 183.229Z" fill="#002626"/>
<path d="M127.094 57.3941C127.454 57.2306 127.825 57.0453 128.185 56.8491C132.733 54.4077 137.346 49.6991 142.189 47.2904C137.248 43.9878 129.047 42.1894 123.146 44.2712C122.972 44.3366 122.797 44.4129 122.623 44.4783C122.492 44.5328 122.361 44.5764 122.23 44.6309C122.197 44.6418 122.165 44.6636 122.121 44.6854C118.62 46.2767 116.144 49.4375 116.057 54.7565C119.743 58.9963 123.397 59.0508 127.073 57.3832L127.094 57.3941Z" fill="#002626"/>
<path d="M201.803 20.707C207.267 25.8951 218.326 29.699 224.707 18.8868C233.53 21.5353 226.702 23.955 215.523 32.1078C218.108 34.9525 252.834 36.9144 243.924 29.4156C254.372 20.4127 309.1 4.12897 278.759 2.99543C255.397 2.55945 233.039 4.54315 209.787 7.67128C219.002 18.756 255.397 11.5624 227.051 16.5434C225.492 18.4508 223.289 18.5925 220.857 17.9712C214.029 15.508 205.413 9.25169 200.145 12.7831C199.513 13.0774 199.077 13.4807 198.837 13.9602C197.91 15.0284 197.135 16.5216 196.557 18.5816C198.444 19.1048 200.178 19.8677 201.803 20.707Z" fill="#002626"/>
<path d="M138.023 40.7184C138.994 40.7184 140.88 40.7838 143.28 40.871C149.627 41.1108 159.487 41.4487 165.234 40.6966C171.407 39.8901 172.847 37.8301 160.097 33.0234C160.25 35.6284 159.759 36.9363 158.832 37.4595C157.578 38.168 155.528 37.4377 153.15 36.5004C147.904 34.4404 141.12 31.3885 138.023 40.7075V40.7184Z" fill="#002626"/>
<path d="M747.101 11.0403C747.177 11.073 747.254 11.0948 747.341 11.1275L747.385 11.1493C750.297 12.2283 753.808 13.242 757.102 13.46C757.157 13.46 757.211 13.46 757.266 13.46C757.538 13.4818 757.822 13.4927 758.095 13.4927C758.193 13.4927 758.28 13.4927 758.378 13.4927C758.607 13.4927 758.836 13.4927 759.065 13.4927C759.185 13.4927 759.305 13.4709 759.425 13.4709C759.621 13.46 759.818 13.4491 760.014 13.4273H760.047C763.133 13.1003 765.74 11.7597 767.038 8.66423C766.765 8.64243 766.493 8.62063 766.231 8.57703C766.176 8.57703 766.133 8.55523 766.078 8.55523C765.86 8.52253 765.653 8.48984 765.446 8.44624C763.242 8.01026 761.181 7.07291 759.131 6.15736C756.044 4.77314 753.001 3.44341 749.588 3.98838C747.155 4.36986 744.538 5.68869 741.593 8.60973C742.586 9.122 744.614 10.092 747.134 11.0403H747.101Z" fill="#002626"/>
<path d="M822.682 340.214C822.638 340.355 822.606 340.508 822.573 340.65C822.551 340.748 822.519 340.846 822.497 340.944C821.777 344.246 822.606 348.672 826.249 354.503C826.238 352.966 826.249 351.691 826.314 350.655C826.488 347.484 827.001 346.546 827.928 347.059C829.117 347.723 830.993 350.808 833.708 354.644C834.363 353.206 834.156 351.756 833.61 350.307C832.182 346.459 828.452 342.612 832.323 339.037C832.88 338.524 833.578 338.023 834.472 337.532C832.552 338.165 830.589 339.156 829.051 339.385C827.863 339.571 826.925 339.287 826.51 338.012C826.292 337.358 826.216 336.432 826.292 335.189C826.347 335.145 826.401 335.113 826.456 335.069C834.865 334.088 837.569 332.976 837.308 332.41C837.188 332.115 836.261 331.963 834.93 332.061C832.651 332.214 829.182 333.053 826.456 335.069C826.401 335.069 826.347 335.08 826.292 335.091C826.292 335.124 826.292 335.156 826.292 335.189C824.678 336.421 823.336 338.066 822.682 340.225V340.214Z" fill="#002626"/>
<path d="M460.983 112.339C460.645 112.034 460.306 111.772 459.968 111.532C459.816 111.423 459.674 111.314 459.521 111.227C456.838 109.549 454.472 110.137 452.585 111.739C449.629 114.268 447.873 119.314 447.917 122.181C449.727 131.467 463.033 119.009 460.972 112.328L460.983 112.339Z" fill="#002626"/>
<path d="M194.943 56.5456C196.568 55.8481 196.481 53.8862 192.773 49.7771C192.926 49.5046 193.013 49.243 193.078 48.9923C193.885 46.0386 189.327 44.9377 185.967 45.5154C185.749 45.5481 185.542 45.5917 185.346 45.6462C182.51 46.3547 180.972 48.3711 185.444 51.5537C183.808 51.3139 182.565 51.194 181.659 51.1831C181.659 51.1831 181.638 51.1831 181.627 51.1831C181.398 51.1831 181.201 51.1831 181.016 51.194C178.213 51.3357 179.947 52.818 183.088 54.224C186.862 55.9244 192.642 57.5266 194.954 56.5347L194.943 56.5456Z" fill="#002626"/>
<path d="M784.51 357.565C788.24 359.821 797.325 362.622 803.662 363.625C803.738 363.636 803.803 363.647 803.88 363.658C810.369 364.649 813.794 363.69 805.156 358.164C803.749 358.502 802.211 358.513 800.586 358.361C795.689 357.903 789.898 355.984 784.008 357.249C784.161 357.358 784.325 357.456 784.499 357.565H784.51Z" fill="#002626"/>
<path d="M893.781 135.074C894.195 134.856 894.664 134.66 895.199 134.475C894.326 123.782 893.148 118.627 891.992 117.025C888.458 112.087 885.165 140.524 891.403 145.145C891.807 145.45 892.265 145.647 892.756 145.734C890.662 139.281 890.869 136.6 893.781 135.074Z" fill="#002626"/>
<path d="M888.829 153.79C885.863 155.119 884.041 159.741 883.169 166.019C884.456 165.005 885.688 164.46 886.932 164.122C888.251 163.752 889.582 163.61 890.967 163.359C892.516 163.087 894.13 162.695 895.897 161.725C897.02 161.114 898.198 160.264 899.463 159.076C895.242 154.346 891.916 152.82 889.364 153.594C889.222 153.637 889.08 153.692 888.938 153.746C888.906 153.757 888.862 153.768 888.829 153.79Z" fill="#002626"/>
<path d="M829.597 295.1C828.965 292.953 828.954 291.874 829.314 291.406C830.633 289.771 836.817 296.125 836.959 291.024C834.669 290.741 833.174 290.196 832.215 289.455C830.775 288.343 830.557 286.806 830.753 285.051C831.015 282.621 832.062 279.798 831.767 277.171C822.203 272.07 826.052 290.828 829.608 295.1H829.597Z" fill="#002626"/>
<path d="M249.213 267.753C250.947 268.668 252.671 269.519 254.47 270.074C256.651 270.75 258.964 270.99 261.57 270.401C258.385 268.374 255.495 266.652 252.867 265.246C241.491 259.142 235.253 258.761 233.333 263.088C239.965 262.423 244.654 265.333 249.224 267.753H249.213Z" fill="#002626"/>
<path d="M192.304 35.324C191.05 34.3867 189.784 33.9725 188.498 33.8308C188.072 33.6237 187.614 33.4166 187.123 33.1986C186.905 33.4166 186.687 33.6128 186.469 33.7872C184.462 33.8962 182.357 34.3322 180.067 34.2886C178.213 33.7872 176.206 33.0569 174.003 32.6973C175.17 36.4467 178.802 38.5611 182.554 39.4549C186.6 41.177 190.755 41.5367 192.02 38.7355C192.653 38.2124 192.849 37.5366 192.413 36.7518C192.413 36.3159 192.391 35.8472 192.315 35.324H192.304Z" fill="#002626"/>
<path d="M198.466 50.2879C201.149 58.081 208.172 49.5795 212.655 47.8138C210.986 44.4023 203.428 43.6611 200.069 46.7565C200.025 46.8001 199.982 46.8437 199.938 46.8873C199.851 46.9745 199.764 47.0617 199.687 47.1489C198.968 47.9664 198.509 49.0127 198.466 50.2879Z" fill="#002626"/>
<path d="M222.711 99.2376H240.848C231.309 94.3111 225.263 94.3111 222.711 99.2376Z" fill="#002626"/>
<path d="M142.516 27.7051C135.678 30.1138 129.472 32.2937 121.892 34.9641C131.261 37.5363 141.327 34.0703 142.516 27.7051Z" fill="#002626"/>
<path d="M263.206 276.364C263.642 276.462 264.428 276.56 265.431 276.658C269.39 277.039 276.828 277.366 280.111 276.952C278.41 275.317 276.283 273.857 274.211 272.778C273.774 272.549 273.338 272.342 272.902 272.146C272.88 272.146 272.858 272.124 272.836 272.113C270.612 271.132 268.572 270.696 267.318 271.067C265.889 271.492 265.486 272.985 266.991 275.971C263.032 275.971 262.257 276.157 263.228 276.364H263.206Z" fill="#002626"/>
<path d="M554.658 7.98828H532.147C539.607 8.86023 546.936 14.8549 554.658 7.98828Z" fill="#002626"/>
<path d="M176.053 24.6636C177.111 25.0668 178.257 25.3175 179.445 25.5355C181.627 25.9279 183.961 26.1895 186.229 27.0069C187.003 27.2903 187.778 27.6391 188.519 28.0751C188.007 26.9415 187.265 25.9061 186.371 24.9905C185.771 24.3802 185.095 23.8134 184.375 23.312C182.935 22.3093 181.299 21.5245 179.663 21.0232C178.802 20.7616 177.94 20.5763 177.1 20.4782C175.126 20.2275 173.261 20.4346 171.854 21.1867C171.92 21.3065 172.007 21.3937 172.073 21.5027C173.131 23.1158 174.494 24.0641 176.043 24.6636H176.053Z" fill="#002626"/>
<path d="M783.997 15.5079C775.327 9.4914 769.961 10.3306 766.34 17.0665C771.739 16.5869 777.344 16.0964 783.997 15.5079Z" fill="#002626"/>
<path d="M906.138 471.399C906.138 471.399 906.116 471.366 906.105 471.355C904.927 469.731 901.546 468.816 897.184 468.805C898.721 472.118 900.074 475.017 901.644 478.385C901.928 478.2 902.201 478.015 902.462 477.84C902.506 477.808 902.55 477.775 902.593 477.742C902.8 477.59 903.008 477.448 903.204 477.306C903.629 476.99 904.011 476.674 904.349 476.369C904.382 476.336 904.415 476.314 904.447 476.282C906.574 474.342 906.999 472.718 906.203 471.486C906.181 471.453 906.17 471.431 906.149 471.399H906.138Z" fill="#002626"/>
<path d="M648.311 0.652344C643.654 2.16736 639.422 3.54069 634.842 5.02301C643.872 7.61707 647.722 6.34184 648.311 0.652344Z" fill="#002626"/>
<path d="M835.89 370.361C839.074 368.247 842.248 366.132 846.763 363.135C840.547 363.364 837.318 365.522 835.89 370.361Z" fill="#002626"/>
<path d="M199.84 24.403C196.917 23.5746 194.354 22.8444 190.646 21.7871C193.613 27.8472 195.827 28.3704 199.84 24.403Z" fill="#002626"/>
<path d="M918.331 351.188C915.376 352.212 912.147 353.335 908.941 354.436C913.554 357.662 916.783 356.387 918.331 351.188Z" fill="#002626"/>
</g>
<g filter="url(#filter0_d_198_1353)">
<path d="M848.544 85.8271H766.564V146.45H822.36L848.544 181.746V146.45V85.8271Z" fill="#002626"/>
</g>
<path d="M785.356 126.452C780.948 126.452 777.352 124.364 777.352 120.768C777.352 118.419 778.976 116.679 781.267 115.809C779.295 114.968 777.874 113.518 777.874 111.256C777.874 107.747 781.47 105.833 785.356 105.833C789.329 105.833 792.867 107.834 792.867 111.256C792.867 113.489 791.446 114.939 789.445 115.809C791.794 116.737 793.36 118.477 793.36 120.768C793.36 124.393 789.735 126.452 785.356 126.452ZM785.356 114.33C786.922 114.214 788.604 113.286 788.604 111.807C788.604 110.444 787.27 109.429 785.356 109.429C783.442 109.429 782.137 110.444 782.137 111.807C782.137 113.344 783.79 114.214 785.356 114.33ZM785.356 122.856C787.473 122.856 789.039 121.812 789.039 120.304C789.039 118.738 787.067 117.752 785.356 117.694C783.645 117.752 781.702 118.738 781.702 120.304C781.702 121.812 783.239 122.856 785.356 122.856ZM803.525 105.833C809.325 105.833 811.993 110.009 811.993 115.809C811.993 122.015 808.368 126.452 802.829 126.452C800.364 126.452 798.363 125.611 796.739 124.306L798.769 121.058C799.987 122.073 801.147 122.682 802.829 122.682C805.439 122.682 807.179 120.507 807.556 117.143C806.338 118.332 804.511 119.057 802.626 119.057C798.943 119.057 795.898 116.679 795.898 112.735C795.898 108.646 799.175 105.833 803.525 105.833ZM803.873 115.577C805.497 115.577 806.831 114.678 807.44 113.257C807.063 110.821 805.99 109.458 803.757 109.458C801.64 109.458 800.306 110.937 800.306 112.532C800.306 114.446 801.93 115.577 803.873 115.577ZM820.012 116.186C817.025 116.186 815.053 113.953 815.053 111.111C815.053 108.24 817.025 105.978 820.012 105.978C823.028 105.978 825 108.269 825 111.082C825 113.953 822.941 116.186 820.012 116.186ZM817.663 126.104L831.496 106.181H834.86L820.998 126.104H817.663ZM820.012 113.692C821.23 113.692 822.129 112.677 822.129 111.082C822.129 109.545 821.23 108.501 820.012 108.501C818.765 108.501 817.895 109.516 817.895 111.082C817.895 112.648 818.823 113.692 820.012 113.692ZM832.453 126.423C829.495 126.423 827.465 124.161 827.465 121.319C827.465 118.477 829.495 116.215 832.453 116.215C835.469 116.215 837.412 118.506 837.412 121.319C837.412 124.19 835.382 126.423 832.453 126.423ZM832.453 123.9C833.7 123.9 834.57 122.885 834.57 121.319C834.57 119.753 833.642 118.709 832.453 118.709C831.206 118.709 830.336 119.724 830.336 121.319C830.336 122.856 831.235 123.9 832.453 123.9Z" fill="white"/>
<g filter="url(#filter1_d_198_1353)">
<path d="M840.002 361.746L787.064 361.746V400.3L823.314 400.3L840.002 422.746V400.3V361.746Z" fill="#002626"/>
</g>
<path d="M804.427 385.914C801.893 385.914 800.101 383.856 800.101 380.93C800.101 378.018 801.893 375.96 804.427 375.96C806.961 375.96 808.739 378.018 808.739 380.93C808.739 383.856 806.961 385.914 804.427 385.914ZM804.427 384.038C805.715 384.038 806.625 382.736 806.625 380.93C806.625 379.124 805.715 377.836 804.427 377.836C803.139 377.836 802.229 379.124 802.229 380.93C802.229 382.736 803.139 384.038 804.427 384.038ZM811.818 385.914C811.076 385.914 810.516 385.326 810.516 384.612C810.516 383.954 811.076 383.366 811.818 383.366C812.504 383.366 813.064 383.954 813.064 384.612C813.064 385.326 812.504 385.914 811.818 385.914ZM819.403 379.53C821.181 379.53 822.651 380.678 822.651 382.582C822.651 384.556 821.069 385.914 818.969 385.914C816.169 385.914 814.881 383.898 814.881 381.098C814.881 378.102 816.631 375.96 819.305 375.96C820.495 375.96 821.461 376.366 822.245 376.996L821.265 378.564C820.677 378.074 820.117 377.78 819.305 377.78C818.045 377.78 817.205 378.83 817.023 380.454C817.611 379.88 818.493 379.53 819.403 379.53ZM818.857 384.164C819.879 384.164 820.523 383.45 820.523 382.68C820.523 381.756 819.739 381.21 818.801 381.21C818.017 381.21 817.373 381.644 817.079 382.33C817.261 383.506 817.779 384.164 818.857 384.164ZM826.396 380.958C824.954 380.958 824.002 379.88 824.002 378.508C824.002 377.122 824.954 376.03 826.396 376.03C827.852 376.03 828.804 377.136 828.804 378.494C828.804 379.88 827.81 380.958 826.396 380.958ZM825.262 385.746L831.94 376.128H833.564L826.872 385.746H825.262ZM826.396 379.754C826.984 379.754 827.418 379.264 827.418 378.494C827.418 377.752 826.984 377.248 826.396 377.248C825.794 377.248 825.374 377.738 825.374 378.494C825.374 379.25 825.822 379.754 826.396 379.754ZM832.402 385.9C830.974 385.9 829.994 384.808 829.994 383.436C829.994 382.064 830.974 380.972 832.402 380.972C833.858 380.972 834.796 382.078 834.796 383.436C834.796 384.822 833.816 385.9 832.402 385.9ZM832.402 384.682C833.004 384.682 833.424 384.192 833.424 383.436C833.424 382.68 832.976 382.176 832.402 382.176C831.8 382.176 831.38 382.666 831.38 383.436C831.38 384.178 831.814 384.682 832.402 384.682Z" fill="white"/>
<g filter="url(#filter2_d_198_1353)">
<path d="M301.564 345.164L256.564 345.164V378.661L287.331 378.661L301.564 398.164V378.661V345.164Z" fill="#002626"/>
</g>
<path d="M265.159 367.344C262.444 367.344 260.524 365.139 260.524 362.004C260.524 358.884 262.444 356.679 265.159 356.679C267.874 356.679 269.779 358.884 269.779 362.004C269.779 365.139 267.874 367.344 265.159 367.344ZM265.159 365.334C266.539 365.334 267.514 363.939 267.514 362.004C267.514 360.069 266.539 358.689 265.159 358.689C263.779 358.689 262.804 360.069 262.804 362.004C262.804 363.939 263.779 365.334 265.159 365.334ZM273.078 367.344C272.283 367.344 271.683 366.714 271.683 365.949C271.683 365.244 272.283 364.614 273.078 364.614C273.813 364.614 274.413 365.244 274.413 365.949C274.413 366.714 273.813 367.344 273.078 367.344ZM281.295 367.164V365.064H276.255L276.045 363.354L280.83 356.874H283.5V363.204H284.865V365.064H283.5V367.164H281.295ZM278.37 363.204H281.295V359.214L278.37 363.204ZM288.741 362.034C287.196 362.034 286.176 360.879 286.176 359.409C286.176 357.924 287.196 356.754 288.741 356.754C290.301 356.754 291.321 357.939 291.321 359.394C291.321 360.879 290.256 362.034 288.741 362.034ZM287.526 367.164L294.681 356.859H296.421L289.251 367.164H287.526ZM288.741 360.744C289.371 360.744 289.836 360.219 289.836 359.394C289.836 358.599 289.371 358.059 288.741 358.059C288.096 358.059 287.646 358.584 287.646 359.394C287.646 360.204 288.126 360.744 288.741 360.744ZM295.176 367.329C293.646 367.329 292.596 366.159 292.596 364.689C292.596 363.219 293.646 362.049 295.176 362.049C296.736 362.049 297.741 363.234 297.741 364.689C297.741 366.174 296.691 367.329 295.176 367.329ZM295.176 366.024C295.821 366.024 296.271 365.499 296.271 364.689C296.271 363.879 295.791 363.339 295.176 363.339C294.531 363.339 294.081 363.864 294.081 364.689C294.081 365.484 294.546 366.024 295.176 366.024Z" fill="white"/>
<g filter="url(#filter3_d_198_1353)">
<path d="M488.564 71.1641L399.564 71.1641V130.41L462.643 130.41L488.564 170.164V130.41V71.1641Z" fill="#002626"/>
</g>
<path d="M423.48 109.164V105.684L430.817 100C433.195 98.1151 433.949 96.8101 433.949 95.4181C433.949 93.7651 432.557 92.7791 430.933 92.7791C428.99 92.7791 427.511 93.7651 426.061 95.4181L423.335 92.7791C425.307 90.2851 427.83 88.8931 431.049 88.8931C435.283 88.8931 438.357 91.5031 438.357 95.2441C438.357 97.9121 437.197 99.9711 433.717 102.494L430.092 105.307H438.531V109.164H423.48ZM446.573 99.2461C443.586 99.2461 441.614 97.0131 441.614 94.1711C441.614 91.3001 443.586 89.0381 446.573 89.0381C449.589 89.0381 451.561 91.3291 451.561 94.1421C451.561 97.0131 449.502 99.2461 446.573 99.2461ZM444.224 109.164L458.057 89.2411H461.421L447.559 109.164H444.224ZM446.573 96.7521C447.791 96.7521 448.69 95.7371 448.69 94.1421C448.69 92.6051 447.791 91.5611 446.573 91.5611C445.326 91.5611 444.456 92.5761 444.456 94.1421C444.456 95.7081 445.384 96.7521 446.573 96.7521ZM459.014 109.483C456.056 109.483 454.026 107.221 454.026 104.379C454.026 101.537 456.056 99.2751 459.014 99.2751C462.03 99.2751 463.973 101.566 463.973 104.379C463.973 107.25 461.943 109.483 459.014 109.483ZM459.014 106.96C460.261 106.96 461.131 105.945 461.131 104.379C461.131 102.813 460.203 101.769 459.014 101.769C457.767 101.769 456.897 102.784 456.897 104.379C456.897 105.916 457.796 106.96 459.014 106.96Z" fill="white"/>
<g filter="url(#filter4_d_198_1353)">
<path d="M184.002 82.1641H65.5352V153.951H153.01L184.002 195.746V153.951V82.1641Z" fill="#002626"/>
</g>
<path d="M108.664 130.164V124.704H95.5603L95.0143 120.258L107.455 103.41H114.397V119.868H117.946V124.704H114.397V130.164H108.664ZM101.059 119.868H108.664V109.494L101.059 119.868ZM128.024 116.826C124.007 116.826 121.355 113.823 121.355 110.001C121.355 106.14 124.007 103.098 128.024 103.098C132.08 103.098 134.732 106.179 134.732 109.962C134.732 113.823 131.963 116.826 128.024 116.826ZM124.865 130.164L143.468 103.371H147.992L129.35 130.164H124.865ZM128.024 113.472C129.662 113.472 130.871 112.107 130.871 109.962C130.871 107.895 129.662 106.491 128.024 106.491C126.347 106.491 125.177 107.856 125.177 109.962C125.177 112.068 126.425 113.472 128.024 113.472ZM144.755 130.593C140.777 130.593 138.047 127.551 138.047 123.729C138.047 119.907 140.777 116.865 144.755 116.865C148.811 116.865 151.424 119.946 151.424 123.729C151.424 127.59 148.694 130.593 144.755 130.593ZM144.755 127.2C146.432 127.2 147.602 125.835 147.602 123.729C147.602 121.623 146.354 120.219 144.755 120.219C143.078 120.219 141.908 121.584 141.908 123.729C141.908 125.796 143.117 127.2 144.755 127.2Z" fill="white"/>
<path d="M483.957 190.75H477.509V193.886H483.333V195.39H477.509V198.734H483.957V200.238H475.877V189.246H483.957V190.75ZM491.702 191.966H493.286V200.238H491.702V199.054C491.206 199.87 490.198 200.43 489.062 200.43C487.238 200.43 485.974 199.134 485.974 197.23V191.966H487.526V196.958C487.526 198.206 488.31 199.054 489.43 199.054C490.694 199.054 491.702 198.19 491.702 197.102V191.966ZM497.484 193.582C497.996 192.478 499.116 191.774 500.556 191.774V193.15C498.732 193.15 497.484 194.238 497.484 195.838V200.238H495.9V191.966H497.484V193.582ZM506.096 200.43C503.712 200.43 501.744 198.478 501.744 196.094C501.744 193.71 503.712 191.774 506.096 191.774C508.48 191.774 510.448 193.71 510.448 196.094C510.448 198.478 508.48 200.43 506.096 200.43ZM506.096 199.054C507.616 199.054 508.864 197.726 508.864 196.094C508.864 194.462 507.616 193.15 506.096 193.15C504.576 193.15 503.328 194.462 503.328 196.094C503.328 197.726 504.576 199.054 506.096 199.054ZM516.881 191.774C519.073 191.774 520.689 193.566 520.689 196.094C520.689 198.638 519.073 200.43 516.881 200.43C515.617 200.43 514.593 199.822 513.953 198.814V202.99H512.369V191.966H513.953V193.374C514.593 192.382 515.617 191.774 516.881 191.774ZM516.513 199.054C518.017 199.054 519.089 197.822 519.089 196.094C519.089 194.366 518.017 193.15 516.513 193.15C515.009 193.15 513.953 194.366 513.953 196.094C513.953 197.822 515.009 199.054 516.513 199.054ZM526.281 199.118C527.177 199.118 528.217 198.718 528.729 198.174L529.657 199.15C528.937 199.934 527.481 200.43 526.313 200.43C524.025 200.43 522.041 198.622 522.041 196.078C522.041 193.598 523.913 191.774 526.201 191.774C528.729 191.774 530.201 193.662 530.201 196.606H523.593C523.785 198.062 524.809 199.118 526.281 199.118ZM526.233 193.086C524.905 193.086 523.849 194.014 523.609 195.438H528.665C528.505 194.11 527.673 193.086 526.233 193.086Z" fill="#002626"/>
<path d="M523.106 362.726H517.41L516.434 365.014H514.642L519.362 354.022H521.154L525.874 365.014H524.082L523.106 362.726ZM522.498 361.318L520.258 356.102L518.018 361.318H522.498ZM529.457 356.742H531.409V358.086H529.457V365.014H527.905V358.086H526.657V356.742H527.905V355.75C527.905 355.088 528.108 354.55 528.513 354.134C528.919 353.707 529.441 353.494 530.081 353.494C530.38 353.494 530.673 353.547 530.961 353.654C531.249 353.76 531.505 353.904 531.729 354.086L531.153 355.142C531.068 355.056 530.945 354.987 530.785 354.934C530.636 354.87 530.476 354.838 530.305 354.838C530.071 354.838 529.868 354.934 529.697 355.126C529.537 355.307 529.457 355.542 529.457 355.83V356.742ZM534.497 358.358C534.753 357.803 535.148 357.366 535.681 357.046C536.225 356.715 536.855 356.55 537.569 356.55V357.926C536.972 357.926 536.439 358.038 535.969 358.262C535.5 358.486 535.137 358.806 534.881 359.222C534.625 359.627 534.497 360.091 534.497 360.614V365.014H532.913V356.742H534.497V358.358ZM539.429 356.742H541.013V365.014H539.429V356.742ZM540.229 355.366C539.962 355.366 539.733 355.27 539.541 355.078C539.359 354.886 539.269 354.662 539.269 354.406C539.269 354.15 539.359 353.931 539.541 353.75C539.733 353.558 539.962 353.462 540.229 353.462C540.485 353.462 540.703 353.558 540.885 353.75C541.077 353.931 541.173 354.15 541.173 354.406C541.173 354.662 541.077 354.886 540.885 355.078C540.703 355.27 540.485 355.366 540.229 355.366ZM547.281 365.206C546.502 365.206 545.777 365.008 545.105 364.614C544.443 364.219 543.91 363.691 543.505 363.03C543.11 362.358 542.913 361.638 542.913 360.87C542.913 360.102 543.11 359.387 543.505 358.726C543.91 358.064 544.449 357.536 545.121 357.142C545.793 356.747 546.513 356.55 547.281 356.55C547.867 356.55 548.417 356.662 548.929 356.886C549.451 357.11 549.921 357.424 550.337 357.83L549.265 358.822C549.009 358.544 548.705 358.326 548.353 358.166C548.011 358.006 547.654 357.926 547.281 357.926C546.79 357.926 546.331 358.059 545.905 358.326C545.478 358.592 545.137 358.955 544.881 359.414C544.635 359.862 544.513 360.347 544.513 360.87C544.513 361.403 544.635 361.899 544.881 362.358C545.137 362.806 545.478 363.163 545.905 363.43C546.331 363.696 546.79 363.83 547.281 363.83C547.665 363.83 548.033 363.75 548.385 363.59C548.737 363.419 549.046 363.19 549.313 362.902L550.385 363.878C549.969 364.294 549.494 364.619 548.961 364.854C548.438 365.088 547.878 365.206 547.281 365.206ZM555.174 356.55C556.262 356.55 557.11 356.864 557.718 357.494C558.326 358.123 558.63 358.96 558.63 360.006V365.014H557.078V363.894C556.78 364.31 556.38 364.635 555.878 364.87C555.377 365.094 554.86 365.206 554.326 365.206C553.441 365.206 552.71 364.966 552.134 364.486C551.558 364.006 551.27 363.366 551.27 362.566C551.27 362.032 551.414 361.558 551.702 361.142C552.001 360.715 552.401 360.39 552.902 360.166C553.414 359.931 553.974 359.814 554.582 359.814C555.372 359.814 556.204 359.963 557.078 360.262V360.006C557.078 359.398 556.913 358.891 556.582 358.486C556.252 358.07 555.708 357.862 554.95 357.862C554.3 357.862 553.526 358.091 552.63 358.55L552.038 357.382C553.148 356.827 554.193 356.55 555.174 356.55ZM554.646 363.958C555.201 363.958 555.713 363.824 556.182 363.558C556.652 363.28 556.95 362.902 557.078 362.422V361.318C556.374 361.104 555.622 360.998 554.822 360.998C554.257 360.998 553.777 361.142 553.382 361.43C552.988 361.718 552.79 362.08 552.79 362.518C552.79 362.955 552.961 363.307 553.302 363.574C553.654 363.83 554.102 363.958 554.646 363.958Z" fill="#002626"/>
<path d="M293.068 425.024C291.228 425.024 289.708 424.384 288.556 423.264L289.516 422.064C290.492 422.992 291.644 423.6 293.132 423.6C294.652 423.6 295.436 422.8 295.436 421.92C295.436 420.88 294.524 420.48 292.684 420.064C290.444 419.536 288.956 418.864 288.956 416.88C288.956 415.04 290.556 413.664 292.78 413.664C294.46 413.664 295.724 414.272 296.78 415.216L295.852 416.432C294.924 415.584 293.82 415.088 292.7 415.088C291.468 415.088 290.604 415.856 290.604 416.736C290.604 417.76 291.548 418.112 293.356 418.544C295.548 419.056 297.068 419.792 297.068 421.76C297.068 423.616 295.66 425.024 293.068 425.024ZM302.844 425.04C300.46 425.04 298.492 423.088 298.492 420.704C298.492 418.32 300.46 416.384 302.844 416.384C305.228 416.384 307.196 418.32 307.196 420.704C307.196 423.088 305.228 425.04 302.844 425.04ZM302.844 423.664C304.364 423.664 305.612 422.336 305.612 420.704C305.612 419.072 304.364 417.76 302.844 417.76C301.324 417.76 300.076 419.072 300.076 420.704C300.076 422.336 301.324 423.664 302.844 423.664ZM314.669 416.576H316.253V424.848H314.669V423.664C314.173 424.48 313.165 425.04 312.029 425.04C310.205 425.04 308.941 423.744 308.941 421.84V416.576H310.493V421.568C310.493 422.816 311.277 423.664 312.397 423.664C313.661 423.664 314.669 422.8 314.669 421.712V416.576ZM322.403 423.36L322.995 424.448C322.547 424.816 321.923 425.04 321.331 425.04C320.051 425.04 319.155 424.112 319.155 422.784V417.92H317.923V416.576H319.155V414.304H320.707V416.576H322.659V417.92H320.707V422.672C320.707 423.248 321.107 423.664 321.571 423.664C321.923 423.664 322.243 423.536 322.403 423.36ZM328.873 416.384C330.697 416.384 331.961 417.68 331.961 419.584V424.848H330.425V419.856C330.425 418.608 329.641 417.76 328.521 417.76C327.257 417.76 326.233 418.624 326.233 419.712V424.848H324.649V413.664H326.233V417.792C326.713 416.96 327.737 416.384 328.873 416.384ZM288.216 445.848L287.24 443.56H281.544L280.568 445.848H278.776L283.496 434.856H285.288L290.008 445.848H288.216ZM282.152 442.152H286.632L284.392 436.936L282.152 442.152ZM300.967 437.384C302.695 437.384 303.943 438.712 303.943 440.584V445.848H302.407V440.824C302.407 439.608 301.671 438.76 300.647 438.76C299.463 438.76 298.615 439.544 298.615 440.68V445.848H297.063V440.824C297.063 439.608 296.343 438.76 295.319 438.76C294.119 438.76 293.287 439.544 293.287 440.68V445.848H291.703V437.576H293.287V438.76C293.703 437.912 294.567 437.384 295.639 437.384C296.951 437.384 297.991 438.152 298.407 439.352C298.663 438.184 299.671 437.384 300.967 437.384ZM309.959 444.728C310.855 444.728 311.895 444.328 312.407 443.784L313.335 444.76C312.615 445.544 311.159 446.04 309.991 446.04C307.703 446.04 305.719 444.232 305.719 441.688C305.719 439.208 307.591 437.384 309.879 437.384C312.407 437.384 313.879 439.272 313.879 442.216H307.271C307.463 443.672 308.487 444.728 309.959 444.728ZM309.911 438.696C308.583 438.696 307.527 439.624 307.287 441.048H312.343C312.183 439.72 311.351 438.696 309.911 438.696ZM317.318 439.192C317.83 438.088 318.95 437.384 320.39 437.384V438.76C318.566 438.76 317.318 439.848 317.318 441.448V445.848H315.734V437.576H317.318V439.192ZM323.05 436.2C322.522 436.2 322.09 435.752 322.09 435.24C322.09 434.744 322.522 434.296 323.05 434.296C323.578 434.296 323.994 434.744 323.994 435.24C323.994 435.752 323.578 436.2 323.05 436.2ZM322.25 445.848V437.576H323.834V445.848H322.25ZM330.102 446.04C327.734 446.04 325.734 444.056 325.734 441.704C325.734 439.352 327.75 437.384 330.102 437.384C331.302 437.384 332.358 437.88 333.158 438.664L332.086 439.656C331.574 439.096 330.854 438.76 330.102 438.76C328.598 438.76 327.334 440.104 327.334 441.704C327.334 443.32 328.598 444.664 330.102 444.664C330.87 444.664 331.606 444.312 332.134 443.736L333.206 444.712C332.406 445.528 331.334 446.04 330.102 446.04ZM337.995 437.384C340.219 437.384 341.451 438.792 341.451 440.84V445.848H339.899V444.728C339.291 445.576 338.171 446.04 337.147 446.04C335.403 446.04 334.091 445.016 334.091 443.4C334.091 441.752 335.579 440.648 337.403 440.648C338.219 440.648 339.099 440.824 339.899 441.096V440.84C339.899 439.8 339.419 438.696 337.771 438.696C336.955 438.696 336.171 439.016 335.451 439.384L334.859 438.216C336.043 437.624 337.083 437.384 337.995 437.384ZM337.467 444.792C338.491 444.792 339.627 444.28 339.899 443.256V442.152C339.211 441.944 338.459 441.832 337.643 441.832C336.539 441.832 335.611 442.456 335.611 443.352C335.611 444.248 336.411 444.792 337.467 444.792Z" fill="#002626"/>
<path d="M165.923 224.928V213.936H167.539L173.843 222.272V213.936H175.475V224.928H173.843L167.539 216.592V224.928H165.923ZM182.063 225.12C179.679 225.12 177.711 223.168 177.711 220.784C177.711 218.4 179.679 216.464 182.063 216.464C184.447 216.464 186.415 218.4 186.415 220.784C186.415 223.168 184.447 225.12 182.063 225.12ZM182.063 223.744C183.583 223.744 184.831 222.416 184.831 220.784C184.831 219.152 183.583 217.84 182.063 217.84C180.543 217.84 179.295 219.152 179.295 220.784C179.295 222.416 180.543 223.744 182.063 223.744ZM189.921 218.272C190.433 217.168 191.553 216.464 192.993 216.464V217.84C191.169 217.84 189.921 218.928 189.921 220.528V224.928H188.337V216.656H189.921V218.272ZM198.388 223.44L198.98 224.528C198.532 224.896 197.908 225.12 197.316 225.12C196.036 225.12 195.14 224.192 195.14 222.864V218H193.908V216.656H195.14V214.384H196.692V216.656H198.644V218H196.692V222.752C196.692 223.328 197.092 223.744 197.556 223.744C197.908 223.744 198.228 223.616 198.388 223.44ZM204.857 216.464C206.681 216.464 207.945 217.76 207.945 219.664V224.928H206.409V219.936C206.409 218.688 205.625 217.84 204.505 217.84C203.241 217.84 202.217 218.704 202.217 219.792V224.928H200.633V213.744H202.217V217.872C202.697 217.04 203.721 216.464 204.857 216.464ZM164.42 245.928L163.444 243.64H157.748L156.772 245.928H154.98L159.7 234.936H161.492L166.212 245.928H164.42ZM158.356 242.232H162.836L160.596 237.016L158.356 242.232ZM177.171 237.464C178.899 237.464 180.147 238.792 180.147 240.664V245.928H178.611V240.904C178.611 239.688 177.875 238.84 176.851 238.84C175.667 238.84 174.819 239.624 174.819 240.76V245.928H173.267V240.904C173.267 239.688 172.547 238.84 171.523 238.84C170.323 238.84 169.491 239.624 169.491 240.76V245.928H167.907V237.656H169.491V238.84C169.907 237.992 170.771 237.464 171.843 237.464C173.155 237.464 174.195 238.232 174.611 239.432C174.867 238.264 175.875 237.464 177.171 237.464ZM186.163 244.808C187.059 244.808 188.099 244.408 188.611 243.864L189.539 244.84C188.819 245.624 187.363 246.12 186.195 246.12C183.907 246.12 181.923 244.312 181.923 241.768C181.923 239.288 183.795 237.464 186.083 237.464C188.611 237.464 190.083 239.352 190.083 242.296H183.475C183.667 243.752 184.691 244.808 186.163 244.808ZM186.115 238.776C184.787 238.776 183.731 239.704 183.491 241.128H188.547C188.387 239.8 187.555 238.776 186.115 238.776ZM193.522 239.272C194.034 238.168 195.154 237.464 196.594 237.464V238.84C194.77 238.84 193.522 239.928 193.522 241.528V245.928H191.938V237.656H193.522V239.272ZM199.254 236.28C198.726 236.28 198.294 235.832 198.294 235.32C198.294 234.824 198.726 234.376 199.254 234.376C199.782 234.376 200.198 234.824 200.198 235.32C200.198 235.832 199.782 236.28 199.254 236.28ZM198.454 245.928V237.656H200.038V245.928H198.454ZM206.306 246.12C203.938 246.12 201.938 244.136 201.938 241.784C201.938 239.432 203.954 237.464 206.306 237.464C207.506 237.464 208.562 237.96 209.362 238.744L208.29 239.736C207.778 239.176 207.058 238.84 206.306 238.84C204.802 238.84 203.538 240.184 203.538 241.784C203.538 243.4 204.802 244.744 206.306 244.744C207.074 244.744 207.81 244.392 208.338 243.816L209.41 244.792C208.61 245.608 207.538 246.12 206.306 246.12ZM214.199 237.464C216.423 237.464 217.655 238.872 217.655 240.92V245.928H216.103V244.808C215.495 245.656 214.375 246.12 213.351 246.12C211.607 246.12 210.295 245.096 210.295 243.48C210.295 241.832 211.783 240.728 213.607 240.728C214.423 240.728 215.303 240.904 216.103 241.176V240.92C216.103 239.88 215.623 238.776 213.975 238.776C213.159 238.776 212.375 239.096 211.655 239.464L211.063 238.296C212.247 237.704 213.287 237.464 214.199 237.464ZM213.671 244.872C214.695 244.872 215.831 244.36 216.103 243.336V242.232C215.415 242.024 214.663 241.912 213.847 241.912C212.743 241.912 211.815 242.536 211.815 243.432C211.815 244.328 212.615 244.872 213.671 244.872Z" fill="#002626"/>
<path d="M830.031 206.587C826.959 206.587 824.335 203.979 824.335 200.891C824.335 197.803 826.959 195.211 830.031 195.211C831.599 195.211 833.055 195.867 834.095 196.939L832.959 198.027C832.207 197.227 831.167 196.699 830.031 196.699C827.839 196.699 825.983 198.619 825.983 200.891C825.983 203.179 827.839 205.099 830.031 205.099C831.167 205.099 832.207 204.571 832.959 203.771L834.095 204.859C833.055 205.915 831.599 206.587 830.031 206.587ZM840.179 197.931C842.003 197.931 843.267 199.227 843.267 201.131V206.395H841.731V201.403C841.731 200.155 840.947 199.307 839.827 199.307C838.563 199.307 837.539 200.171 837.539 201.259V206.395H835.955V195.211H837.539V199.339C838.019 198.507 839.043 197.931 840.179 197.931ZM846.489 196.747C845.961 196.747 845.529 196.299 845.529 195.787C845.529 195.291 845.961 194.843 846.489 194.843C847.017 194.843 847.433 195.291 847.433 195.787C847.433 196.299 847.017 196.747 846.489 196.747ZM845.689 206.395V198.123H847.273V206.395H845.689ZM854.085 197.931C855.909 197.931 857.173 199.227 857.173 201.131V206.395H855.637V201.403C855.637 200.155 854.853 199.307 853.733 199.307C852.469 199.307 851.445 200.171 851.445 201.259V206.395H849.861V198.123H851.445V199.339C851.925 198.507 852.949 197.931 854.085 197.931ZM862.731 197.931C864.955 197.931 866.187 199.339 866.187 201.387V206.395H864.635V205.275C864.027 206.123 862.907 206.587 861.883 206.587C860.139 206.587 858.827 205.563 858.827 203.947C858.827 202.299 860.315 201.195 862.139 201.195C862.955 201.195 863.835 201.371 864.635 201.643V201.387C864.635 200.347 864.155 199.243 862.507 199.243C861.691 199.243 860.907 199.563 860.187 199.931L859.595 198.763C860.779 198.171 861.819 197.931 862.731 197.931ZM862.203 205.339C863.227 205.339 864.363 204.827 864.635 203.803V202.699C863.947 202.491 863.195 202.379 862.379 202.379C861.275 202.379 860.347 203.003 860.347 203.899C860.347 204.795 861.147 205.339 862.203 205.339Z" fill="#004141"/>
<path d="M823.223 454.848L822.247 452.56H816.551L815.575 454.848H813.783L818.503 443.856H820.295L825.015 454.848H823.223ZM817.159 451.152H821.639L819.399 445.936L817.159 451.152ZM832.262 446.576H833.846V454.848H832.262V453.664C831.766 454.48 830.758 455.04 829.622 455.04C827.798 455.04 826.534 453.744 826.534 451.84V446.576H828.086V451.568C828.086 452.816 828.87 453.664 829.99 453.664C831.254 453.664 832.262 452.8 832.262 451.712V446.576ZM839.18 455.04C837.964 455.04 836.652 454.608 835.66 453.808L836.38 452.72C837.292 453.392 838.284 453.76 839.196 453.76C840.188 453.76 840.812 453.312 840.812 452.64C840.812 451.856 839.948 451.6 838.892 451.312C837.004 450.784 836.044 450.24 836.044 448.896C836.044 447.376 837.308 446.384 839.052 446.384C840.124 446.384 841.228 446.752 842.108 447.344L841.452 448.464C840.636 447.952 839.804 447.664 839.052 447.664C838.22 447.664 837.548 448.032 837.548 448.72C837.548 449.36 838.108 449.552 839.516 449.984C840.876 450.384 842.316 450.832 842.316 452.48C842.316 454.048 841.004 455.04 839.18 455.04ZM847.777 453.36L848.369 454.448C847.921 454.816 847.297 455.04 846.705 455.04C845.425 455.04 844.529 454.112 844.529 452.784V447.92H843.297V446.576H844.529V444.304H846.081V446.576H848.033V447.92H846.081V452.672C846.081 453.248 846.481 453.664 846.945 453.664C847.297 453.664 847.617 453.536 847.777 453.36ZM851.607 448.192C852.119 447.088 853.239 446.384 854.679 446.384V447.76C852.855 447.76 851.607 448.848 851.607 450.448V454.848H850.023V446.576H851.607V448.192ZM859.674 446.384C861.898 446.384 863.13 447.792 863.13 449.84V454.848H861.578V453.728C860.97 454.576 859.85 455.04 858.826 455.04C857.082 455.04 855.77 454.016 855.77 452.4C855.77 450.752 857.258 449.648 859.082 449.648C859.898 449.648 860.778 449.824 861.578 450.096V449.84C861.578 448.8 861.098 447.696 859.45 447.696C858.634 447.696 857.85 448.016 857.13 448.384L856.538 447.216C857.722 446.624 858.762 446.384 859.674 446.384ZM859.146 453.792C860.17 453.792 861.306 453.28 861.578 452.256V451.152C860.89 450.944 860.138 450.832 859.322 450.832C858.218 450.832 857.29 451.456 857.29 452.352C857.29 453.248 858.09 453.792 859.146 453.792ZM865.554 454.848V443.664H867.138V454.848H865.554ZM870.526 445.2C869.998 445.2 869.566 444.752 869.566 444.24C869.566 443.744 869.998 443.296 870.526 443.296C871.054 443.296 871.47 443.744 871.47 444.24C871.47 444.752 871.054 445.2 870.526 445.2ZM869.726 454.848V446.576H871.31V454.848H869.726ZM877.034 446.384C879.258 446.384 880.49 447.792 880.49 449.84V454.848H878.938V453.728C878.33 454.576 877.21 455.04 876.186 455.04C874.442 455.04 873.13 454.016 873.13 452.4C873.13 450.752 874.618 449.648 876.442 449.648C877.258 449.648 878.138 449.824 878.938 450.096V449.84C878.938 448.8 878.458 447.696 876.81 447.696C875.994 447.696 875.21 448.016 874.49 448.384L873.898 447.216C875.082 446.624 876.122 446.384 877.034 446.384ZM876.506 453.792C877.53 453.792 878.666 453.28 878.938 452.256V451.152C878.25 450.944 877.498 450.832 876.682 450.832C875.578 450.832 874.65 451.456 874.65 452.352C874.65 453.248 875.45 453.792 876.506 453.792ZM818.74 475.368L817.332 476.008C816.836 475.512 816.388 475.048 815.988 474.632C815.076 475.512 814.004 476.04 812.676 476.04C810.676 476.04 809.14 474.856 809.14 472.904C809.14 471.48 809.924 470.488 811.62 469.736C810.996 468.872 810.74 468.184 810.74 467.368C810.74 465.896 811.956 464.728 813.636 464.728C815.22 464.728 816.404 465.896 816.404 467.352C816.404 468.728 815.412 469.4 813.78 470.104C814.436 470.856 815.124 471.624 816.02 472.568C816.484 471.88 816.884 471.096 817.204 470.248L818.468 470.824C818.004 471.832 817.492 472.744 816.932 473.528L818.74 475.368ZM813.652 465.992C812.836 465.992 812.196 466.52 812.196 467.368C812.196 467.928 812.468 468.488 813.012 469.176C814.356 468.648 814.932 468.216 814.932 467.368C814.932 466.6 814.404 465.992 813.652 465.992ZM812.804 474.728C813.62 474.728 814.388 474.328 815.076 473.688C813.876 472.44 813.06 471.528 812.372 470.712C811.316 471.24 810.724 471.944 810.724 472.84C810.724 474.024 811.668 474.728 812.804 474.728ZM830.521 476.04C827.449 476.04 824.825 473.432 824.825 470.344C824.825 467.256 827.449 464.664 830.521 464.664C833.625 464.664 836.217 467.256 836.217 470.344C836.217 473.432 833.625 476.04 830.521 476.04ZM830.521 474.552C832.713 474.552 834.569 472.632 834.569 470.344C834.569 468.072 832.713 466.152 830.521 466.152C828.329 466.152 826.473 468.072 826.473 470.344C826.473 472.632 828.329 474.552 830.521 474.552ZM842.046 476.04C839.678 476.04 837.678 474.056 837.678 471.704C837.678 469.352 839.694 467.384 842.046 467.384C843.246 467.384 844.302 467.88 845.102 468.664L844.03 469.656C843.518 469.096 842.798 468.76 842.046 468.76C840.542 468.76 839.278 470.104 839.278 471.704C839.278 473.32 840.542 474.664 842.046 474.664C842.814 474.664 843.55 474.312 844.078 473.736L845.15 474.712C844.35 475.528 843.278 476.04 842.046 476.04ZM850.404 474.728C851.3 474.728 852.34 474.328 852.852 473.784L853.78 474.76C853.06 475.544 851.604 476.04 850.436 476.04C848.148 476.04 846.164 474.232 846.164 471.688C846.164 469.208 848.036 467.384 850.324 467.384C852.852 467.384 854.324 469.272 854.324 472.216H847.716C847.908 473.672 848.932 474.728 850.404 474.728ZM850.356 468.696C849.028 468.696 847.972 469.624 847.732 471.048H852.788C852.628 469.72 851.796 468.696 850.356 468.696ZM859.315 467.384C861.539 467.384 862.771 468.792 862.771 470.84V475.848H861.219V474.728C860.611 475.576 859.491 476.04 858.467 476.04C856.723 476.04 855.411 475.016 855.411 473.4C855.411 471.752 856.899 470.648 858.723 470.648C859.539 470.648 860.419 470.824 861.219 471.096V470.84C861.219 469.8 860.739 468.696 859.091 468.696C858.275 468.696 857.491 469.016 856.771 469.384L856.179 468.216C857.363 467.624 858.403 467.384 859.315 467.384ZM858.787 474.792C859.811 474.792 860.947 474.28 861.219 473.256V472.152C860.531 471.944 859.779 471.832 858.963 471.832C857.859 471.832 856.931 472.456 856.931 473.352C856.931 474.248 857.731 474.792 858.787 474.792ZM869.418 467.384C871.242 467.384 872.506 468.68 872.506 470.584V475.848H870.97V470.856C870.97 469.608 870.186 468.76 869.066 468.76C867.802 468.76 866.778 469.624 866.778 470.712V475.848H865.194V467.576H866.778V468.792C867.258 467.96 868.282 467.384 869.418 467.384ZM875.729 466.2C875.201 466.2 874.769 465.752 874.769 465.24C874.769 464.744 875.201 464.296 875.729 464.296C876.257 464.296 876.673 464.744 876.673 465.24C876.673 465.752 876.257 466.2 875.729 466.2ZM874.929 475.848V467.576H876.513V475.848H874.929ZM882.237 467.384C884.461 467.384 885.693 468.792 885.693 470.84V475.848H884.141V474.728C883.533 475.576 882.413 476.04 881.389 476.04C879.645 476.04 878.333 475.016 878.333 473.4C878.333 471.752 879.821 470.648 881.645 470.648C882.461 470.648 883.341 470.824 884.141 471.096V470.84C884.141 469.8 883.661 468.696 882.013 468.696C881.197 468.696 880.413 469.016 879.693 469.384L879.101 468.216C880.285 467.624 881.325 467.384 882.237 467.384ZM881.709 474.792C882.733 474.792 883.869 474.28 884.141 473.256V472.152C883.453 471.944 882.701 471.832 881.885 471.832C880.781 471.832 879.853 472.456 879.853 473.352C879.853 474.248 880.653 474.792 881.709 474.792Z" fill="#002626"/>
<g filter="url(#filter5_d_198_1353)">
<path d="M530.002 280.799L474.564 280.799V319.319H511.887L530.002 341.746V319.319V280.799Z" fill="#002626"/>
</g>
<path d="M496.3 304.521C493.404 304.521 491.356 302.169 491.356 298.825C491.356 295.497 493.404 293.145 496.3 293.145C499.196 293.145 501.228 295.497 501.228 298.825C501.228 302.169 499.196 304.521 496.3 304.521ZM496.3 302.377C497.772 302.377 498.812 300.889 498.812 298.825C498.812 296.761 497.772 295.289 496.3 295.289C494.828 295.289 493.788 296.761 493.788 298.825C493.788 300.889 494.828 302.377 496.3 302.377ZM505.61 298.857C503.962 298.857 502.874 297.625 502.874 296.057C502.874 294.473 503.962 293.225 505.61 293.225C507.274 293.225 508.362 294.489 508.362 296.041C508.362 297.625 507.226 298.857 505.61 298.857ZM504.314 304.329L511.946 293.337H513.802L506.154 304.329H504.314ZM505.61 297.481C506.282 297.481 506.778 296.921 506.778 296.041C506.778 295.193 506.282 294.617 505.61 294.617C504.922 294.617 504.442 295.177 504.442 296.041C504.442 296.905 504.954 297.481 505.61 297.481ZM512.474 304.505C510.842 304.505 509.722 303.257 509.722 301.689C509.722 300.121 510.842 298.873 512.474 298.873C514.138 298.873 515.21 300.137 515.21 301.689C515.21 303.273 514.09 304.505 512.474 304.505ZM512.474 303.113C513.162 303.113 513.642 302.553 513.642 301.689C513.642 300.825 513.13 300.249 512.474 300.249C511.786 300.249 511.306 300.809 511.306 301.689C511.306 302.537 511.802 303.113 512.474 303.113Z" fill="white"/>
<defs>
<filter id="filter0_d_198_1353" x="764.055" y="85.3254" width="86.9977" height="100.937" filterUnits="userSpaceOnUse" color-interpolation-filters="sRGB">
<feFlood flood-opacity="0" result="BackgroundImageFix"/>
<feColorMatrix in="SourceAlpha" type="matrix" values="0 0 0 0 0 0 0 0 0 0 0 0 0 0 0 0 0 0 127 0" result="hardAlpha"/>
<feOffset dy="2.0071"/>
<feGaussianBlur stdDeviation="1.25444"/>
<feComposite in2="hardAlpha" operator="out"/>
<feColorMatrix type="matrix" values="0 0 0 0 0 0 0 0 0 0 0 0 0 0 0 0 0 0 0.1 0"/>
<feBlend mode="normal" in2="BackgroundImageFix" result="effect1_dropShadow_198_1353"/>
<feBlend mode="normal" in="SourceGraphic" in2="effect1_dropShadow_198_1353" result="shape"/>
</filter>
<filter id="filter1_d_198_1353" x="784.061" y="361.146" width="58.9443" height="67.0058" filterUnits="userSpaceOnUse" color-interpolation-filters="sRGB">
<feFlood flood-opacity="0" result="BackgroundImageFix"/>
<feColorMatrix in="SourceAlpha" type="matrix" values="0 0 0 0 0 0 0 0 0 0 0 0 0 0 0 0 0 0 127 0" result="hardAlpha"/>
<feOffset dy="2.40234"/>
<feGaussianBlur stdDeviation="1.50146"/>
<feComposite in2="hardAlpha" operator="out"/>
<feColorMatrix type="matrix" values="0 0 0 0 0 0 0 0 0 0 0 0 0 0 0 0 0 0 0.1 0"/>
<feBlend mode="normal" in2="BackgroundImageFix" result="effect1_dropShadow_198_1353"/>
<feBlend mode="normal" in="SourceGraphic" in2="effect1_dropShadow_198_1353" result="shape"/>
</filter>
<filter id="filter2_d_198_1353" x="254.731" y="344.797" width="48.6663" height="56.6663" filterUnits="userSpaceOnUse" color-interpolation-filters="sRGB">
<feFlood flood-opacity="0" result="BackgroundImageFix"/>
<feColorMatrix in="SourceAlpha" type="matrix" values="0 0 0 0 0 0 0 0 0 0 0 0 0 0 0 0 0 0 127 0" result="hardAlpha"/>
<feOffset dy="1.46651"/>
<feGaussianBlur stdDeviation="0.916566"/>
<feComposite in2="hardAlpha" operator="out"/>
<feColorMatrix type="matrix" values="0 0 0 0 0 0 0 0 0 0 0 0 0 0 0 0 0 0 0.1 0"/>
<feBlend mode="normal" in2="BackgroundImageFix" result="effect1_dropShadow_198_1353"/>
<feBlend mode="normal" in="SourceGraphic" in2="effect1_dropShadow_198_1353" result="shape"/>
</filter>
<filter id="filter3_d_198_1353" x="396.843" y="70.6199" width="94.4414" height="104.441" filterUnits="userSpaceOnUse" color-interpolation-filters="sRGB">
<feFlood flood-opacity="0" result="BackgroundImageFix"/>
<feColorMatrix in="SourceAlpha" type="matrix" values="0 0 0 0 0 0 0 0 0 0 0 0 0 0 0 0 0 0 127 0" result="hardAlpha"/>
<feOffset dy="2.17656"/>
<feGaussianBlur stdDeviation="1.36035"/>
<feComposite in2="hardAlpha" operator="out"/>
<feColorMatrix type="matrix" values="0 0 0 0 0 0 0 0 0 0 0 0 0 0 0 0 0 0 0.1 0"/>
<feBlend mode="normal" in2="BackgroundImageFix" result="effect1_dropShadow_198_1353"/>
<feBlend mode="normal" in="SourceGraphic" in2="effect1_dropShadow_198_1353" result="shape"/>
</filter>
<filter id="filter4_d_198_1353" x="62.0125" y="81.4595" width="125.513" height="120.627" filterUnits="userSpaceOnUse" color-interpolation-filters="sRGB">
<feFlood flood-opacity="0" result="BackgroundImageFix"/>
<feColorMatrix in="SourceAlpha" type="matrix" values="0 0 0 0 0 0 0 0 0 0 0 0 0 0 0 0 0 0 127 0" result="hardAlpha"/>
<feOffset dy="2.81814"/>
<feGaussianBlur stdDeviation="1.76134"/>
<feComposite in2="hardAlpha" operator="out"/>
<feColorMatrix type="matrix" values="0 0 0 0 0 0 0 0 0 0 0 0 0 0 0 0 0 0 0.1 0"/>
<feBlend mode="normal" in2="BackgroundImageFix" result="effect1_dropShadow_198_1353"/>
<feBlend mode="normal" in="SourceGraphic" in2="effect1_dropShadow_198_1353" result="shape"/>
</filter>
<filter id="filter5_d_198_1353" x="471.364" y="280.159" width="61.8383" height="67.3468" filterUnits="userSpaceOnUse" color-interpolation-filters="sRGB">
<feFlood flood-opacity="0" result="BackgroundImageFix"/>
<feColorMatrix in="SourceAlpha" type="matrix" values="0 0 0 0 0 0 0 0 0 0 0 0 0 0 0 0 0 0 127 0" result="hardAlpha"/>
<feOffset dy="2.55993"/>
<feGaussianBlur stdDeviation="1.59995"/>
<feComposite in2="hardAlpha" operator="out"/>
<feColorMatrix type="matrix" values="0 0 0 0 0 0 0 0 0 0 0 0 0 0 0 0 0 0 0.1 0"/>
<feBlend mode="normal" in2="BackgroundImageFix" result="effect1_dropShadow_198_1353"/>
<feBlend mode="normal" in="SourceGraphic" in2="effect1_dropShadow_198_1353" result="shape"/>
</filter>
<clipPath id="clip0_198_1353">
<rect width="1027" height="516" fill="white" transform="translate(0.00244141 0.238281)"/>
</clipPath>
</defs>
</svg>
