<svg width="329" height="459" viewBox="0 0 329 459" fill="none" xmlns="http://www.w3.org/2000/svg">
<path d="M0.728516 428.887H260.677V458.887H0.728516V428.887Z" fill="#C2483D"/>
<path d="M0.729492 398.746H328.728V428.746H0.729492V398.746Z" fill="#3B4BC4"/>
<path d="M22.291 379.466C12.931 379.466 5.25096 375.266 5.25096 367.586C5.25096 362.846 8.37096 359.306 12.991 357.446C9.15096 355.706 6.33096 352.766 6.33096 348.086C6.33096 340.766 13.951 336.806 22.291 336.806C30.811 336.806 38.311 340.886 38.311 348.086C38.311 352.586 35.671 355.586 31.591 357.446C36.391 359.486 39.391 363.026 39.391 367.586C39.391 375.326 31.591 379.466 22.291 379.466ZM22.291 353.966C25.291 353.786 28.171 352.046 28.171 349.526C28.171 347.126 25.831 345.266 22.291 345.266C18.751 345.266 16.471 347.126 16.471 349.526C16.471 352.106 19.291 353.786 22.291 353.966ZM22.291 370.946C26.191 370.946 29.011 369.146 29.011 366.446C29.011 363.746 25.591 362.066 22.291 361.886C18.991 362.066 15.631 363.746 15.631 366.446C15.631 369.146 18.331 370.946 22.291 370.946ZM64.6102 378.746V370.886H44.6302L43.7302 363.086L62.3902 337.586H74.8702V362.366H80.0902V370.886H74.8702V378.746H64.6102ZM54.3502 362.366H64.6102V348.206L54.3502 362.366ZM95.6869 358.346C89.3869 358.346 85.1869 353.726 85.1869 347.726C85.1869 341.846 89.3269 337.106 95.6869 337.106C102.107 337.106 106.247 341.906 106.247 347.726C106.247 353.726 101.927 358.346 95.6869 358.346ZM90.7069 378.746L119.507 337.526H127.247L98.4469 378.746H90.7069ZM95.6869 352.526C97.9669 352.526 99.6469 350.726 99.6469 347.726C99.6469 344.786 97.9069 342.926 95.6869 342.926C93.4069 342.926 91.7869 344.726 91.7869 347.726C91.7869 350.666 93.4669 352.526 95.6869 352.526ZM122.147 379.406C115.847 379.406 111.647 374.666 111.647 368.786C111.647 362.786 115.907 358.106 122.207 358.106C128.567 358.106 132.707 362.906 132.707 368.786C132.707 374.726 128.387 379.406 122.147 379.406ZM122.207 373.586C124.427 373.586 126.107 371.786 126.107 368.786C126.107 365.846 124.367 363.986 122.147 363.986C119.867 363.986 118.247 365.726 118.247 368.786C118.247 371.726 119.927 373.586 122.207 373.586Z" fill="#3B4BC4"/>
<path d="M3.835 300.516H17.821V302.316H3.835V300.516ZM5.977 302.748L7.939 302.28C8.425 303.072 8.929 304.17 9.127 304.908L7.039 305.448C6.877 304.746 6.409 303.594 5.977 302.748ZM13.357 302.424L15.571 302.802C15.085 303.918 14.563 305.034 14.131 305.79L12.187 305.394C12.601 304.584 13.105 303.324 13.357 302.424ZM2.863 304.692H18.559V306.582H2.863L2.863 304.692ZM3.349 307.95H18.289V309.84H3.349L3.349 307.95ZM9.055 298.896L11.215 298.41C11.629 299.166 12.043 300.228 12.169 300.912L9.901 301.47C9.793 300.786 9.433 299.724 9.055 298.896ZM6.013 310.236L8.119 310.866C7.309 312.306 6.013 313.8 4.879 314.718C4.465 314.358 3.583 313.746 3.061 313.44C4.231 312.666 5.383 311.424 6.013 310.236ZM13.087 311.118L14.905 310.092C16.003 311.118 17.407 312.558 18.055 313.566L16.111 314.718C15.535 313.746 14.203 312.216 13.087 311.118ZM9.721 306.186H11.935L11.935 313.188C11.935 314.232 11.737 314.736 11.017 315.042C10.315 315.348 9.361 315.384 8.047 315.366C7.939 314.79 7.651 313.962 7.363 313.422C8.155 313.458 9.109 313.458 9.361 313.44C9.631 313.44 9.721 313.368 9.721 313.134L9.721 306.186ZM24.139 304.728H33.931V306.726H24.139V304.728ZM24.139 308.58H33.931V310.578H24.139V308.58ZM24.139 312.45H33.931V314.448H24.139L24.139 312.45ZM22.663 300.804H35.749V315.312H33.445V302.874H24.859L24.859 315.348H22.663L22.663 300.804ZM27.775 298.446L30.385 298.716C29.953 299.922 29.431 301.11 29.035 301.902L27.055 301.542C27.343 300.642 27.649 299.382 27.775 298.446ZM44.587 298.464L46.981 299.058C46.117 300.318 45.109 301.632 44.335 302.478L42.571 301.884C43.291 300.93 44.137 299.526 44.587 298.464ZM49.087 300.066L50.797 299.094C52.291 300.156 54.217 301.776 55.153 302.928L53.299 304.026C52.453 302.91 50.599 301.218 49.087 300.066ZM39.889 301.362C43.183 301.29 48.313 301.164 52.993 301.002L52.921 302.784C48.349 303 43.435 303.18 40.123 303.27L39.889 301.362ZM39.277 304.278H55.675V306.096H39.277V304.278ZM47.737 306.654L49.393 307.464C47.989 308.436 45.865 309.156 44.083 309.57C43.813 309.192 43.327 308.652 42.895 308.31C44.533 307.986 46.657 307.338 47.737 306.654ZM49.393 308.634L51.085 309.444C49.321 310.866 46.513 311.82 43.885 312.378C43.633 311.91 43.165 311.262 42.733 310.848C45.127 310.47 47.953 309.678 49.393 308.634ZM51.553 310.542L53.443 311.388C51.085 313.782 47.107 314.862 42.517 315.42C42.319 314.862 41.905 314.124 41.527 313.638C45.703 313.278 49.627 312.396 51.553 310.542ZM45.145 302.406L47.269 302.91C45.919 306.582 43.381 309.246 40.213 310.83C39.907 310.398 39.115 309.552 38.647 309.174C41.743 307.878 44.047 305.556 45.145 302.406ZM50.689 304.71C51.751 306.474 53.893 308.148 56.071 308.994C55.603 309.39 54.973 310.182 54.667 310.686C52.363 309.606 50.203 307.608 48.889 305.376L50.689 304.71ZM58.465 312.72C61.687 312.63 66.691 312.45 71.227 312.252L71.155 314.232C66.745 314.484 61.993 314.7 58.753 314.826L58.465 312.72ZM58.375 307.356H73.351V309.372H58.375V307.356ZM61.579 303.9H70.021V305.88H61.579V303.9ZM62.785 308.67L65.251 309.354C64.405 311.046 63.433 312.918 62.623 314.124L60.733 313.494C61.471 312.18 62.335 310.182 62.785 308.67ZM67.249 310.524L69.157 309.534C70.777 310.92 72.451 312.81 73.279 314.178L71.281 315.384C70.525 314.016 68.797 311.964 67.249 310.524ZM65.791 300.57C64.333 302.622 61.525 304.926 58.537 306.348C58.285 305.826 57.709 305.016 57.259 304.548C60.337 303.198 63.217 300.624 64.549 298.5H66.835C68.743 301.146 71.605 303.198 74.467 304.224C73.945 304.764 73.459 305.538 73.063 306.186C70.363 304.926 67.321 302.658 65.791 300.57ZM82.657 298.896H85.123C84.961 301.92 84.727 310.704 77.365 315.222C76.987 314.664 76.285 313.998 75.547 313.494C82.783 309.48 82.531 301.254 82.657 298.896ZM85.051 299.364C85.105 300.93 85.483 309.912 92.863 313.368C92.179 313.89 91.531 314.61 91.207 315.204C83.449 311.352 83.107 301.434 82.963 299.58L85.051 299.364ZM94.051 307.86H103.159V309.588H94.051V307.86ZM94.267 301.506H103.105V303.198H94.267V301.506ZM97.291 306.564L99.289 306.996C98.407 308.85 97.237 311.046 96.373 312.486L94.483 311.91C95.329 310.524 96.517 308.274 97.291 306.564ZM99.847 309.066L101.827 309.228C101.179 313.008 99.289 314.52 95.005 315.384C94.879 314.79 94.483 314.034 94.123 313.602C97.705 313.152 99.271 312.018 99.847 309.066ZM101.125 298.68L102.943 299.4C102.349 300.21 101.773 301.038 101.305 301.596L99.919 300.966C100.333 300.336 100.837 299.364 101.125 298.68ZM97.687 298.446H99.667V306.816H97.687V298.446ZM94.699 299.4L96.247 298.752C96.733 299.436 97.183 300.354 97.345 301.002L95.689 301.722C95.563 301.092 95.149 300.138 94.699 299.4ZM97.741 302.352L99.145 303.198C98.245 304.62 96.517 306.186 95.005 307.032C94.753 306.564 94.285 305.844 93.889 305.448C95.347 304.854 96.967 303.576 97.741 302.352ZM99.487 302.874C100.135 303.18 102.187 304.386 102.691 304.728L101.539 306.222C100.873 305.556 99.271 304.278 98.479 303.72L99.487 302.874ZM104.347 301.722H110.953V303.72H104.347V301.722ZM104.545 298.446L106.723 298.752C106.165 302.478 105.085 305.934 103.429 308.13C103.087 307.734 102.205 306.96 101.719 306.6C103.231 304.764 104.113 301.668 104.545 298.446ZM107.803 302.946L110.017 303.144C109.243 309.3 107.389 313.152 102.835 315.438C102.619 314.916 101.989 313.926 101.593 313.458C105.697 311.658 107.263 308.274 107.803 302.946ZM105.571 303.324C106.291 307.878 107.875 311.766 111.187 313.458C110.683 313.89 109.999 314.754 109.675 315.348C106.057 313.188 104.491 309.012 103.609 303.63L105.571 303.324ZM96.067 311.928L97.219 310.452C99.343 311.262 101.593 312.522 102.817 313.494L101.323 315.024C100.171 314.016 98.083 312.756 96.067 311.928ZM112.951 299.364H128.827V301.47H112.951V299.364ZM116.335 307.896H125.713V309.858H116.335V307.896ZM116.389 312.27H125.497V314.268H116.389V312.27ZM119.611 300.138L122.239 300.678C121.825 302.154 121.411 303.72 121.051 304.764L118.999 304.242C119.251 303.108 119.521 301.398 119.611 300.138ZM114.751 303.522H127.225V315.366H124.921V305.52H116.947V315.366H114.751V303.522ZM133.741 305.07H143.479V307.176H133.741V305.07ZM142.777 305.07H145.045C145.045 305.07 145.027 305.736 145.009 306.006C144.811 311.478 144.595 313.62 143.965 314.358C143.515 314.97 143.011 315.132 142.327 315.24C141.697 315.33 140.653 315.312 139.591 315.276C139.555 314.646 139.267 313.71 138.871 313.098C139.879 313.188 140.815 313.206 141.265 313.206C141.589 313.206 141.787 313.152 141.985 312.954C142.417 312.486 142.615 310.47 142.777 305.466V305.07ZM135.775 298.698L138.115 299.382C136.765 302.514 134.569 305.412 132.301 307.194C131.887 306.726 130.951 305.862 130.429 305.448C132.697 303.954 134.695 301.434 135.775 298.698ZM142.633 298.662C143.767 300.948 146.035 303.576 148.015 305.088C147.421 305.556 146.593 306.438 146.179 307.05C144.145 305.178 141.931 302.262 140.509 299.508L142.633 298.662ZM136.963 305.682H139.303C138.961 309.732 138.187 313.494 132.823 315.492C132.553 314.898 131.923 313.98 131.419 313.512C136.243 311.928 136.675 308.886 136.963 305.682ZM152.767 303.81H157.303V305.934H152.767V303.81ZM151.471 298.662H153.703V313.278L151.471 313.8V298.662ZM149.185 312.756C151.327 312.396 154.549 311.748 157.501 311.1L157.717 313.224C154.981 313.854 152.029 314.484 149.797 314.988L149.185 312.756ZM164.305 302.406L165.817 304.278C163.981 305.25 161.713 306.168 159.733 306.888C159.607 306.384 159.265 305.628 158.995 305.16C160.885 304.44 162.937 303.324 164.305 302.406ZM158.347 298.662H160.579V311.82C160.579 312.864 160.669 313.008 161.353 313.008C161.659 313.008 162.973 313.008 163.315 313.008C163.999 313.008 164.107 312.378 164.215 309.912C164.737 310.308 165.637 310.704 166.249 310.848C166.015 313.926 165.457 315.096 163.513 315.096C163.081 315.096 161.443 315.096 161.029 315.096C158.923 315.096 158.347 314.358 158.347 311.802V298.662Z" fill="#002626"/>
<path d="M218.889 351.683C226.509 351.683 232.809 356.663 232.809 364.883C232.809 373.583 225.789 379.343 216.609 379.343C204.309 379.343 198.429 370.883 198.429 358.763C198.429 345.683 206.049 336.683 218.169 336.683C223.329 336.683 227.589 338.303 231.129 341.003L226.389 348.743C223.869 346.763 221.529 345.623 218.229 345.623C213.309 345.623 210.189 349.103 209.289 354.983C211.749 352.943 215.289 351.683 218.889 351.683ZM215.949 370.643C219.789 370.643 222.249 368.243 222.249 365.303C222.249 361.883 219.249 359.903 215.709 359.903C212.889 359.903 210.489 361.463 209.289 363.923C209.949 368.423 211.809 370.643 215.949 370.643ZM247.524 378.623V348.983L240.564 353.303L236.484 346.163L249.564 337.403H257.784V378.623H247.524ZM276.028 358.223C269.728 358.223 265.528 353.603 265.528 347.603C265.528 341.723 269.668 336.983 276.028 336.983C282.448 336.983 286.588 341.783 286.588 347.603C286.588 353.603 282.268 358.223 276.028 358.223ZM271.048 378.623L299.848 337.403H307.588L278.788 378.623H271.048ZM276.028 352.403C278.308 352.403 279.988 350.603 279.988 347.603C279.988 344.663 278.248 342.803 276.028 342.803C273.748 342.803 272.128 344.603 272.128 347.603C272.128 350.543 273.808 352.403 276.028 352.403ZM302.488 379.283C296.188 379.283 291.988 374.543 291.988 368.663C291.988 362.663 296.248 357.983 302.548 357.983C308.908 357.983 313.048 362.783 313.048 368.663C313.048 374.603 308.728 379.283 302.488 379.283ZM302.548 373.463C304.768 373.463 306.448 371.663 306.448 368.663C306.448 365.723 304.708 363.863 302.488 363.863C300.208 363.863 298.588 365.603 298.588 368.663C298.588 371.603 300.268 373.463 302.548 373.463Z" fill="#C2483D"/>
<path d="M205.677 306.96H214.893V308.616H205.677V306.96ZM205.677 309.786H214.893V311.424H205.677V309.786ZM205.677 312.648H214.911V314.52H205.677V312.648ZM202.167 300.876H218.493V302.874H202.167V300.876ZM203.931 303.99H216.567V315.366H214.317V305.862H206.091V315.366H203.931V303.99ZM209.187 302.064L211.923 302.136C211.509 303.288 210.933 304.368 210.519 305.142L208.413 304.89C208.737 304.062 209.043 302.91 209.187 302.064ZM213.399 298.41L215.883 298.95C215.181 299.994 214.389 300.984 213.777 301.65L211.851 301.11C212.409 300.354 213.039 299.238 213.399 298.41ZM204.975 299.184L206.901 298.338C207.585 298.968 208.305 299.85 208.683 300.462L206.667 301.506C206.361 300.876 205.623 299.886 204.975 299.184ZM227.313 298.536L229.563 298.932C228.861 302.136 227.637 305.142 226.161 307.05C225.711 306.708 224.685 306.132 224.109 305.88C225.657 304.206 226.755 301.398 227.313 298.536ZM230.643 303.594H231.759V305.574C231.759 307.536 232.839 311.46 237.285 313.404C236.871 313.926 236.223 314.826 235.881 315.366C232.659 313.89 230.967 310.704 230.625 309.084C230.193 310.704 228.357 313.782 224.703 315.366C224.451 314.862 223.767 313.944 223.389 313.548C228.267 311.604 229.473 307.626 229.473 305.574V303.594H230.643ZM220.149 310.974C221.157 310.002 222.777 308.346 224.271 306.708L225.495 308.562C224.253 310.02 222.777 311.604 221.535 312.828L220.149 310.974ZM220.671 301.164L222.201 299.58C223.281 300.282 224.739 301.362 225.441 302.136L223.803 303.918C223.173 303.126 221.769 301.956 220.671 301.164ZM228.087 301.578H235.467V303.72H227.025L228.087 301.578ZM234.747 301.578H235.071L235.485 301.452L237.087 302.388C236.565 304.206 235.701 306.078 234.999 307.356C234.549 307.122 233.685 306.672 233.163 306.474C233.739 305.376 234.477 303.468 234.747 302.046V301.578ZM244.161 298.464L246.555 299.058C245.691 300.318 244.683 301.632 243.909 302.478L242.145 301.884C242.865 300.93 243.711 299.526 244.161 298.464ZM248.661 300.066L250.371 299.094C251.865 300.156 253.791 301.776 254.727 302.928L252.873 304.026C252.027 302.91 250.173 301.218 248.661 300.066ZM239.463 301.362C242.757 301.29 247.887 301.164 252.567 301.002L252.495 302.784C247.923 303 243.009 303.18 239.697 303.27L239.463 301.362ZM238.851 304.278H255.249V306.096H238.851V304.278ZM247.311 306.654L248.967 307.464C247.563 308.436 245.439 309.156 243.657 309.57C243.387 309.192 242.901 308.652 242.469 308.31C244.107 307.986 246.231 307.338 247.311 306.654ZM248.967 308.634L250.659 309.444C248.895 310.866 246.087 311.82 243.459 312.378C243.207 311.91 242.739 311.262 242.307 310.848C244.701 310.47 247.527 309.678 248.967 308.634ZM251.127 310.542L253.017 311.388C250.659 313.782 246.681 314.862 242.091 315.42C241.893 314.862 241.479 314.124 241.101 313.638C245.277 313.278 249.201 312.396 251.127 310.542ZM244.719 302.406L246.843 302.91C245.493 306.582 242.955 309.246 239.787 310.83C239.481 310.398 238.689 309.552 238.221 309.174C241.317 307.878 243.621 305.556 244.719 302.406ZM250.263 304.71C251.325 306.474 253.467 308.148 255.645 308.994C255.177 309.39 254.547 310.182 254.241 310.686C251.937 309.606 249.777 307.608 248.463 305.376L250.263 304.71ZM258.039 312.72C261.261 312.63 266.265 312.45 270.801 312.252L270.729 314.232C266.319 314.484 261.567 314.7 258.327 314.826L258.039 312.72ZM257.949 307.356H272.925V309.372H257.949V307.356ZM261.153 303.9H269.595V305.88H261.153V303.9ZM262.359 308.67L264.825 309.354C263.979 311.046 263.007 312.918 262.197 314.124L260.307 313.494C261.045 312.18 261.909 310.182 262.359 308.67ZM266.823 310.524L268.731 309.534C270.351 310.92 272.025 312.81 272.853 314.178L270.855 315.384C270.099 314.016 268.371 311.964 266.823 310.524ZM265.365 300.57C263.907 302.622 261.099 304.926 258.111 306.348C257.859 305.826 257.283 305.016 256.833 304.548C259.911 303.198 262.791 300.624 264.123 298.5H266.409C268.317 301.146 271.179 303.198 274.041 304.224C273.519 304.764 273.033 305.538 272.637 306.186C269.937 304.926 266.895 302.658 265.365 300.57ZM275.625 303.918H291.825V305.826H275.625V303.918ZM277.191 300.408H287.487V302.28H277.191V300.408ZM280.359 310.2H288.405V311.82H280.359V310.2ZM280.359 313.026H288.405V314.844H280.359V313.026ZM281.439 298.464H283.563V304.98H281.439V298.464ZM289.359 298.986L291.213 299.94C287.685 304.854 282.195 308.472 276.363 310.614C276.111 310.146 275.463 309.246 275.067 308.814C280.917 306.942 286.209 303.504 289.359 298.986ZM279.153 307.266H289.773V315.312H287.523V309.03H281.313V315.384H279.153V307.266Z" fill="#002626"/>
<path d="M96.439 228.746H109.399V258.746H96.439V228.746Z" fill="#3B4BC4"/>
<path d="M1.72852 228.746H96.4389V258.746H1.72852V228.746Z" fill="#38982F"/>
<path d="M109.399 228.746H328.729V258.746H109.399V228.746Z" fill="#D0D0D0"/>
<path d="M62.2134 119.201V121.253H72.5304V119.201H62.2134ZM62.2134 116.028V118.042H72.5304V116.028H62.2134ZM60.7884 114.812H73.9934V122.488H60.7884V114.812ZM66.6024 115.363H68.0464V121.899H66.6024V115.363ZM59.2494 124.331H73.7844V125.642H59.2494V124.331ZM73.1954 124.331H74.6394C74.6394 124.331 74.6204 124.749 74.5824 124.958C74.2404 128.568 73.8604 130.069 73.2524 130.658C72.8344 131.057 72.4164 131.152 71.7324 131.19C71.1434 131.228 69.9654 131.209 68.7494 131.152C68.7114 130.753 68.5404 130.202 68.2934 129.841C69.5284 129.936 70.7824 129.955 71.2194 129.955C71.6564 129.955 71.8844 129.936 72.0554 129.765C72.5494 129.366 72.8914 127.922 73.1764 124.54L73.1954 124.331ZM66.3364 122.222H67.8184C67.2864 126.554 65.9944 129.822 59.4774 131.266C59.3444 130.905 58.9834 130.335 58.7174 130.05C64.8734 128.777 65.8614 125.946 66.3364 122.222ZM80.5294 113.786H81.9734V131.247H80.5294V113.786ZM78.7814 117.396L79.8644 117.567C79.7694 119.106 79.4274 121.31 78.9144 122.678L77.7934 122.298C78.3064 121.025 78.6484 118.935 78.7814 117.396ZM82.1064 117.282L83.0944 116.845C83.6834 117.871 84.2724 119.22 84.4814 120.037L83.4174 120.569C83.2084 119.733 82.6384 118.346 82.1064 117.282ZM85.9824 114.679L87.3694 114.907C86.8754 117.681 86.0394 120.379 84.9754 122.165C84.6904 121.956 84.0444 121.652 83.6834 121.5C84.8044 119.828 85.5644 117.244 85.9824 114.679ZM86.0014 117.814H94.8364V119.182H85.5644L86.0014 117.814ZM89.0794 113.862H90.5044V130.012H89.0794V113.862ZM85.0324 123.134H94.4184V124.483H85.0324V123.134ZM83.6074 129.233H95.2924V130.601H83.6074V129.233ZM58.8504 147.346H76.0074V148.771H58.8504V147.346ZM65.9564 142.805L67.4954 143.071C66.0324 146.947 63.8474 152.153 62.3654 155.269L60.9594 154.756C62.4414 151.735 64.6074 146.529 65.9564 142.805ZM71.5614 147.973L73.0814 148.353C71.6564 155.687 68.3694 159.05 59.7624 160.323C59.6104 159.886 59.2874 159.316 59.0024 158.955C67.2864 157.853 70.2504 154.794 71.5614 147.973ZM61.9284 154.034L62.8594 152.932C67.2104 154.376 72.7394 156.941 75.5514 159.05L74.4684 160.361C71.8274 158.271 66.3744 155.573 61.9284 154.034ZM80.5294 142.786H81.9734V160.247H80.5294V142.786ZM78.7814 146.396L79.8644 146.567C79.7694 148.106 79.4274 150.31 78.9144 151.678L77.7934 151.298C78.3064 150.025 78.6484 147.935 78.7814 146.396ZM82.1064 146.282L83.0944 145.845C83.6834 146.871 84.2724 148.22 84.4814 149.037L83.4174 149.569C83.2084 148.733 82.6384 147.346 82.1064 146.282ZM85.9824 143.679L87.3694 143.907C86.8754 146.681 86.0394 149.379 84.9754 151.165C84.6904 150.956 84.0444 150.652 83.6834 150.5C84.8044 148.828 85.5644 146.244 85.9824 143.679ZM86.0014 146.814H94.8364V148.182H85.5644L86.0014 146.814ZM89.0794 142.862H90.5044V159.012H89.0794V142.862ZM85.0324 152.134H94.4184V153.483H85.0324V152.134ZM83.6074 158.233H95.2924V159.601H83.6074V158.233ZM69.6044 174.674H75.7604V176.023H69.6044V174.674ZM69.5854 183.3H76.0834V184.649H69.5854V183.3ZM69.5094 178.968H75.3804V180.26H69.5094V178.968ZM59.3444 174.674H64.9494V176.023H59.3444V174.674ZM59.5724 178.968H64.8924V180.26H59.5724V178.968ZM68.8634 171.9H70.2694V189.266H68.8634V171.9ZM58.6414 183.718C60.7504 183.395 64.0564 182.863 67.1914 182.312L67.2674 183.585C64.3034 184.136 61.1874 184.706 58.9454 185.105L58.6414 183.718ZM64.3034 171.9H65.7094V180.773C65.7094 183.224 64.9494 187.328 60.3704 189.475C60.1424 189.152 59.6864 188.696 59.3444 188.411C63.6954 186.568 64.3034 182.749 64.3034 180.773V171.9ZM86.2864 181.039H87.7304V189.285H86.2864V181.039ZM83.2274 178.436V180.279H90.4094V178.436H83.2274ZM81.8404 177.353H91.8724V181.381H81.8404V177.353ZM80.1494 182.958H92.8794V184.25H81.5744V188.411H80.1494V182.958ZM92.1764 182.958H93.6204V186.929C93.6204 187.67 93.4684 188.069 92.8794 188.278C92.2714 188.506 91.3024 188.506 89.8204 188.506C89.7444 188.126 89.5354 187.594 89.3264 187.214C90.4664 187.252 91.4924 187.252 91.7964 187.233C92.0814 187.214 92.1764 187.138 92.1764 186.929V182.958ZM86.1534 171.786H87.6164V175.244H86.1534V171.786ZM78.8954 174.731H94.7794V178.835H93.3544V176.004H80.2824V178.835H78.8954V174.731ZM80.4724 172.489L81.7454 171.976C82.3724 172.66 83.0374 173.572 83.3604 174.199L81.9924 174.826C81.7074 174.18 81.0614 173.192 80.4724 172.489ZM91.7584 171.938L93.2404 172.451C92.6134 173.287 91.8914 174.161 91.3214 174.75L90.1624 174.275C90.6944 173.648 91.3974 172.622 91.7584 171.938ZM97.8764 174.959H104.564V176.289H97.8764V174.959ZM97.4584 179.348H104.792V180.716H97.4584V179.348ZM100.593 171.995H101.961V178.151C101.961 181.495 101.676 186.15 98.3514 189.076C98.1614 188.791 97.6864 188.316 97.3444 188.088C100.479 185.504 100.593 181.115 100.593 178.17V171.995ZM101.638 181.628C102.265 182.217 104.412 184.801 104.906 185.409L103.918 186.473C103.291 185.466 101.486 183.129 100.764 182.293L101.638 181.628ZM105.685 172.717H113.722V182.825H112.316V173.971H107.072V182.825H105.685V172.717ZM109.675 182.255H110.948V187.1C110.948 187.613 111.119 187.727 111.575 187.727H112.924C113.532 187.727 113.646 187.233 113.722 184.611C114.045 184.877 114.539 185.067 114.881 185.143C114.729 188.126 114.501 188.867 112.943 188.867H111.404C110.169 188.867 109.675 188.525 109.675 187.252V182.255ZM109.048 175.605H110.378V179.272C110.378 182.521 109.523 186.682 104.526 189.247C104.374 188.981 103.918 188.449 103.633 188.221C108.44 185.77 109.048 182.179 109.048 179.253V175.605ZM119.289 171.786H120.733V189.247H119.289V171.786ZM117.541 175.396L118.624 175.567C118.529 177.106 118.187 179.31 117.674 180.678L116.553 180.298C117.066 179.025 117.408 176.935 117.541 175.396ZM120.866 175.282L121.854 174.845C122.443 175.871 123.032 177.22 123.241 178.037L122.177 178.569C121.968 177.733 121.398 176.346 120.866 175.282ZM124.742 172.679L126.129 172.907C125.635 175.681 124.799 178.379 123.735 180.165C123.45 179.956 122.804 179.652 122.443 179.5C123.564 177.828 124.324 175.244 124.742 172.679ZM124.761 175.814H133.596V177.182H124.324L124.761 175.814ZM127.839 171.862H129.264V188.012H127.839V171.862ZM123.792 181.134H133.178V182.483H123.792V181.134ZM122.367 187.233H134.052V188.601H122.367V187.233ZM147.314 174.085H148.682V184.611H147.314V174.085ZM151.342 172.147H152.748V187.404C152.748 188.354 152.501 188.772 151.931 189.019C151.323 189.266 150.335 189.304 148.625 189.285C148.568 188.905 148.34 188.259 148.131 187.841C149.404 187.898 150.525 187.879 150.867 187.86C151.209 187.86 151.342 187.746 151.342 187.404V172.147ZM138.479 173.914V177.581H143.381V173.914H138.479ZM137.187 172.641H144.749V178.873H137.187V172.641ZM136.465 181.001H144.236V182.312H136.465V181.001ZM143.685 181.001H145.091C145.091 181.001 145.072 181.419 145.053 181.628C144.863 186.226 144.654 187.917 144.179 188.506C143.856 188.886 143.533 189.038 143.001 189.076C142.564 189.133 141.747 189.114 140.911 189.076C140.873 188.658 140.74 188.088 140.512 187.708C141.31 187.784 142.07 187.803 142.355 187.803C142.64 187.803 142.811 187.765 142.963 187.594C143.305 187.195 143.514 185.599 143.685 181.248V181.001ZM139.866 179.348H141.234C141.006 183.832 140.455 187.404 136.94 189.342C136.769 189 136.351 188.525 136.028 188.297C139.296 186.587 139.695 183.376 139.866 179.348ZM155.826 177.904H172.755V179.177H155.826V177.904ZM157.498 174.18H168.499V175.453H157.498V174.18ZM160.576 184.269H169.525V185.409H160.576V184.269ZM160.576 187.423H169.525V188.658H160.576V187.423ZM162.381 171.786H163.768V178.588H162.381V171.786ZM170.703 172.451L171.919 173.097C168.1 178.094 162.381 181.837 156.301 184.174C156.13 183.851 155.674 183.262 155.389 182.977C161.526 180.849 167.188 177.163 170.703 172.451ZM159.797 181.191H170.437V189.209H168.955V182.388H161.222V189.285H159.797V181.191ZM59.2114 202.135H75.5704V203.579H59.2114V202.135ZM68.5214 207.664L69.5854 206.752C71.8084 208.196 74.7154 210.343 76.1214 211.806L74.9624 212.889C73.6324 211.426 70.7824 209.203 68.5214 207.664ZM68.1604 202.629L69.7184 203.199C67.5524 207.132 63.9994 210.894 59.7054 213.155C59.4774 212.794 59.0214 212.224 58.7364 211.92C62.8594 209.849 66.3934 206.201 68.1604 202.629ZM66.6024 206.429L68.1414 204.909V218.247H66.6024V206.429ZM83.0564 213.535H84.4624V216.233C84.4624 216.708 84.6334 216.784 85.6214 216.784C86.0774 216.784 88.4144 216.784 89.0224 216.784C89.8204 216.784 89.9534 216.575 90.0294 214.941C90.3334 215.15 90.9224 215.359 91.3024 215.435C91.1314 217.582 90.6944 218.076 89.1554 218.076C88.7184 218.076 85.9254 218.076 85.5264 218.076C83.5504 218.076 83.0564 217.696 83.0564 216.252V213.535ZM84.6524 213.06L85.5644 212.281C86.7424 212.794 88.1104 213.668 88.7754 214.39L87.8064 215.264C87.1604 214.542 85.8304 213.611 84.6524 213.06ZM89.8394 209.849L90.8274 209.127C92.1764 209.811 93.7344 210.913 94.4944 211.768L93.4494 212.547C92.7274 211.692 91.1884 210.552 89.8394 209.849ZM90.9034 214.01L92.0434 213.326C93.4114 214.314 94.8744 215.777 95.4824 216.898L94.2474 217.658C93.6774 216.556 92.2714 215.055 90.9034 214.01ZM80.6434 213.516L81.8974 213.953C81.3654 215.397 80.5674 216.879 79.1804 217.772L78.0214 216.955C79.3134 216.176 80.2064 214.846 80.6434 213.516ZM80.2634 201.565H94.4564V202.724H80.2634V201.565ZM83.6264 206.733V207.797H91.9104V206.733H83.6264ZM83.6264 204.814V205.84H91.9104V204.814H83.6264ZM82.3154 203.883H93.2784V208.709H82.3154V203.883ZM86.8944 208.082H88.2434V211.293C88.2434 211.92 88.1484 212.224 87.6734 212.414C87.1984 212.585 86.5334 212.604 85.4314 212.604C85.3744 212.243 85.1654 211.806 84.9944 211.483C85.7544 211.521 86.4194 211.521 86.6284 211.502C86.8374 211.483 86.8944 211.426 86.8944 211.255V208.082ZM79.5984 201.565H80.9284V204.985C80.9284 207.246 80.6434 210.476 79.0284 212.642C78.8004 212.376 78.2494 211.939 77.9454 211.787C79.4274 209.754 79.5984 206.999 79.5984 204.966V201.565ZM86.7994 202.249L88.4524 202.42C88.1674 203.142 87.8634 203.845 87.6164 204.32L86.3054 204.111C86.4954 203.56 86.7044 202.781 86.7994 202.249ZM83.9304 209.203L85.1654 209.602C84.2724 210.685 82.8854 211.806 81.7074 212.528C81.4794 212.3 80.9854 211.863 80.6814 211.673C81.8784 211.046 83.1704 210.134 83.9304 209.203ZM103.766 207.246V211.616H108.383V207.246H103.766ZM102.417 205.973H109.808V212.87H102.417V205.973ZM98.2184 201.565H114.102V218.247H112.582V203.009H99.6814V218.247H98.2184V201.565ZM99.0354 215.891H113.456V217.24H99.0354V215.891ZM121.664 209.393H129.53V210.628H121.664V209.393ZM120.847 216.404H130.328V217.658H120.847V216.404ZM125.502 206.448C123.83 208.462 120.676 210.704 117.427 212.072C117.256 211.749 116.914 211.255 116.629 210.951C119.973 209.64 123.146 207.303 124.723 205.194H126.129C128.2 207.588 131.544 209.621 134.527 210.628C134.185 210.97 133.862 211.464 133.653 211.844C130.746 210.704 127.383 208.557 125.502 206.448ZM120.068 212.262H131.107V218.228H129.701V213.516H121.417V218.285H120.068V212.262ZM119.194 202.439H125.122V203.655H119.194V202.439ZM126.376 202.439H134.033V203.655H126.376V202.439ZM119.593 200.501L120.961 200.862C120.201 202.914 119.023 204.966 117.788 206.277C117.522 206.068 116.933 205.669 116.591 205.498C117.845 204.282 118.947 202.382 119.593 200.501ZM127.003 200.501L128.39 200.843C127.706 202.724 126.528 204.491 125.274 205.631C125.027 205.403 124.419 204.966 124.077 204.795C125.331 203.769 126.414 202.173 127.003 200.501ZM120.182 203.351L121.379 202.99C121.949 203.864 122.557 205.023 122.804 205.783L121.531 206.22C121.303 205.46 120.733 204.244 120.182 203.351ZM128.162 203.351L129.416 202.952C130.119 203.769 130.898 204.928 131.202 205.707L129.872 206.201C129.587 205.422 128.846 204.225 128.162 203.351Z" fill="#002626"/>
<path d="M9.88498 120.36L7.68098 121.728L6.38898 119.467L10.531 116.693H13.134V129.746H9.88498V120.36ZM20.8305 116.465C22.7178 116.465 24.1491 117.054 25.1245 118.232C26.0998 119.41 26.5875 120.994 26.5875 122.982C26.5875 124.363 26.3341 125.579 25.8275 126.63C25.3208 127.682 24.5925 128.505 23.6425 129.1C22.7051 129.683 21.6031 129.974 20.3365 129.974C18.7911 129.974 17.4231 129.518 16.2325 128.606L17.7335 126.155C18.1641 126.485 18.5758 126.732 18.9685 126.896C19.3738 127.061 19.8235 127.143 20.3175 127.143C21.0901 127.143 21.7171 126.884 22.1985 126.364C22.6925 125.845 23.0091 125.117 23.1485 124.179C22.7558 124.509 22.2935 124.768 21.7615 124.958C21.2295 125.136 20.6785 125.224 20.1085 125.224C19.2978 125.224 18.5568 125.053 17.8855 124.711C17.2141 124.369 16.6821 123.888 16.2895 123.267C15.8968 122.634 15.7005 121.893 15.7005 121.044C15.7005 120.145 15.9221 119.347 16.3655 118.65C16.8215 117.954 17.4358 117.415 18.2085 117.035C18.9938 116.655 19.8678 116.465 20.8305 116.465ZM21.1155 122.621C21.5588 122.621 21.9578 122.507 22.3125 122.279C22.6798 122.051 22.9585 121.741 23.1485 121.348C23.0471 120.614 22.8318 120.075 22.5025 119.733C22.1731 119.391 21.6855 119.22 21.0395 119.22C20.4441 119.22 19.9628 119.385 19.5955 119.714C19.2281 120.031 19.0445 120.43 19.0445 120.911C19.0445 121.431 19.2408 121.849 19.6335 122.165C20.0388 122.469 20.5328 122.621 21.1155 122.621ZM32.1402 123.286C31.4942 123.286 30.9179 123.141 30.4112 122.849C29.9045 122.558 29.5119 122.159 29.2332 121.652C28.9545 121.133 28.8152 120.557 28.8152 119.923C28.8152 119.303 28.9545 118.739 29.2332 118.232C29.5119 117.713 29.8982 117.308 30.3922 117.016C30.8989 116.712 31.4815 116.56 32.1402 116.56C32.7989 116.56 33.3815 116.712 33.8882 117.016C34.3949 117.308 34.7875 117.713 35.0662 118.232C35.3449 118.739 35.4842 119.303 35.4842 119.923C35.4842 120.557 35.3385 121.133 35.0472 121.652C34.7685 122.159 34.3759 122.558 33.8692 122.849C33.3625 123.141 32.7862 123.286 32.1402 123.286ZM39.6832 116.693H42.1342L33.0142 129.746H30.5632L39.6832 116.693ZM32.1402 121.443C32.5075 121.443 32.8052 121.31 33.0332 121.044C33.2739 120.766 33.3942 120.392 33.3942 119.923C33.3942 119.467 33.2739 119.1 33.0332 118.821C32.7925 118.543 32.4949 118.403 32.1402 118.403C31.7729 118.403 31.4752 118.543 31.2472 118.821C31.0192 119.087 30.9052 119.455 30.9052 119.923C30.9052 120.379 31.0192 120.747 31.2472 121.025C31.4879 121.304 31.7855 121.443 32.1402 121.443ZM40.5192 129.955C39.8732 129.955 39.2969 129.81 38.7902 129.518C38.2835 129.214 37.8909 128.809 37.6122 128.302C37.3335 127.783 37.1942 127.213 37.1942 126.592C37.1942 125.959 37.3335 125.389 37.6122 124.882C37.8909 124.363 38.2835 123.958 38.7902 123.666C39.3095 123.362 39.8922 123.21 40.5382 123.21C41.1969 123.21 41.7732 123.362 42.2672 123.666C42.7739 123.97 43.1665 124.382 43.4452 124.901C43.7239 125.408 43.8632 125.972 43.8632 126.592C43.8632 127.213 43.7175 127.783 43.4262 128.302C43.1475 128.809 42.7549 129.214 42.2482 129.518C41.7415 129.81 41.1652 129.955 40.5192 129.955ZM40.5382 128.112C40.8929 128.112 41.1842 127.979 41.4122 127.713C41.6529 127.435 41.7732 127.061 41.7732 126.592C41.7732 126.136 41.6529 125.769 41.4122 125.49C41.1715 125.212 40.8739 125.072 40.5192 125.072C40.1519 125.072 39.8542 125.205 39.6262 125.471C39.3982 125.737 39.2842 126.111 39.2842 126.592C39.2842 127.048 39.3982 127.416 39.6262 127.694C39.8669 127.973 40.1709 128.112 40.5382 128.112Z" fill="#38982F"/>
<path d="M21.2939 158.993C19.2166 158.993 17.4876 158.335 16.1069 157.017L17.9689 154.718C18.4882 155.174 19.0329 155.535 19.6029 155.801C20.1729 156.055 20.7429 156.181 21.3129 156.181C21.9716 156.181 22.4909 156.023 22.8709 155.706C23.2509 155.377 23.4409 154.972 23.4409 154.49C23.4409 153.996 23.2509 153.604 22.8709 153.312C22.5036 153.021 21.9969 152.875 21.3509 152.875C20.4516 152.875 19.6472 153.148 18.9379 153.692L16.7909 152.856L16.9809 145.693H25.9679V148.6H19.9639L19.8879 150.975C20.5846 150.469 21.4142 150.215 22.3769 150.215C23.1496 150.215 23.8652 150.38 24.5239 150.709C25.1826 151.039 25.7082 151.52 26.1009 152.153C26.4936 152.774 26.6899 153.515 26.6899 154.376C26.6899 155.314 26.4682 156.131 26.0249 156.827C25.5816 157.524 24.9546 158.062 24.1439 158.442C23.3332 158.81 22.3832 158.993 21.2939 158.993ZM32.1402 152.286C31.4942 152.286 30.9179 152.141 30.4112 151.849C29.9045 151.558 29.5119 151.159 29.2332 150.652C28.9545 150.133 28.8152 149.557 28.8152 148.923C28.8152 148.303 28.9545 147.739 29.2332 147.232C29.5119 146.713 29.8982 146.308 30.3922 146.016C30.8989 145.712 31.4815 145.56 32.1402 145.56C32.7989 145.56 33.3815 145.712 33.8882 146.016C34.3949 146.308 34.7875 146.713 35.0662 147.232C35.3449 147.739 35.4842 148.303 35.4842 148.923C35.4842 149.557 35.3385 150.133 35.0472 150.652C34.7685 151.159 34.3759 151.558 33.8692 151.849C33.3625 152.141 32.7862 152.286 32.1402 152.286ZM39.6832 145.693H42.1342L33.0142 158.746H30.5632L39.6832 145.693ZM32.1402 150.443C32.5075 150.443 32.8052 150.31 33.0332 150.044C33.2739 149.766 33.3942 149.392 33.3942 148.923C33.3942 148.467 33.2739 148.1 33.0332 147.821C32.7925 147.543 32.4949 147.403 32.1402 147.403C31.7729 147.403 31.4752 147.543 31.2472 147.821C31.0192 148.087 30.9052 148.455 30.9052 148.923C30.9052 149.379 31.0192 149.747 31.2472 150.025C31.4879 150.304 31.7855 150.443 32.1402 150.443ZM40.5192 158.955C39.8732 158.955 39.2969 158.81 38.7902 158.518C38.2835 158.214 37.8909 157.809 37.6122 157.302C37.3335 156.783 37.1942 156.213 37.1942 155.592C37.1942 154.959 37.3335 154.389 37.6122 153.882C37.8909 153.363 38.2835 152.958 38.7902 152.666C39.3095 152.362 39.8922 152.21 40.5382 152.21C41.1969 152.21 41.7732 152.362 42.2672 152.666C42.7739 152.97 43.1665 153.382 43.4452 153.901C43.7239 154.408 43.8632 154.972 43.8632 155.592C43.8632 156.213 43.7175 156.783 43.4262 157.302C43.1475 157.809 42.7549 158.214 42.2482 158.518C41.7415 158.81 41.1652 158.955 40.5192 158.955ZM40.5382 157.112C40.8929 157.112 41.1842 156.979 41.4122 156.713C41.6529 156.435 41.7732 156.061 41.7732 155.592C41.7732 155.136 41.6529 154.769 41.4122 154.49C41.1715 154.212 40.8739 154.072 40.5192 154.072C40.1519 154.072 39.8542 154.205 39.6262 154.471C39.3982 154.737 39.2842 155.111 39.2842 155.592C39.2842 156.048 39.3982 156.416 39.6262 156.694C39.8669 156.973 40.1709 157.112 40.5382 157.112Z" fill="#3B4BC4"/>
<path d="M8.12971 182.502V179.937L17.0787 176.213V178.759L10.5997 181.229L17.0787 183.661V186.226L8.12971 182.502ZM22.7337 178.36L20.5297 179.728L19.2377 177.467L23.3797 174.693H25.9827L25.9827 187.746H22.7337L22.7337 178.36ZM32.1402 181.286C31.4942 181.286 30.9179 181.141 30.4112 180.849C29.9045 180.558 29.5119 180.159 29.2332 179.652C28.9545 179.133 28.8152 178.557 28.8152 177.923C28.8152 177.303 28.9545 176.739 29.2332 176.232C29.5119 175.713 29.8982 175.308 30.3922 175.016C30.8989 174.712 31.4815 174.56 32.1402 174.56C32.7989 174.56 33.3815 174.712 33.8882 175.016C34.3949 175.308 34.7875 175.713 35.0662 176.232C35.3449 176.739 35.4842 177.303 35.4842 177.923C35.4842 178.557 35.3385 179.133 35.0472 179.652C34.7685 180.159 34.3759 180.558 33.8692 180.849C33.3625 181.141 32.7862 181.286 32.1402 181.286ZM39.6832 174.693H42.1342L33.0142 187.746H30.5632L39.6832 174.693ZM32.1402 179.443C32.5075 179.443 32.8052 179.31 33.0332 179.044C33.2739 178.766 33.3942 178.392 33.3942 177.923C33.3942 177.467 33.2739 177.1 33.0332 176.821C32.7925 176.543 32.4949 176.403 32.1402 176.403C31.7729 176.403 31.4752 176.543 31.2472 176.821C31.0192 177.087 30.9052 177.455 30.9052 177.923C30.9052 178.379 31.0192 178.747 31.2472 179.025C31.4879 179.304 31.7855 179.443 32.1402 179.443ZM40.5192 187.955C39.8732 187.955 39.2969 187.81 38.7902 187.518C38.2835 187.214 37.8909 186.809 37.6122 186.302C37.3335 185.783 37.1942 185.213 37.1942 184.592C37.1942 183.959 37.3335 183.389 37.6122 182.882C37.8909 182.363 38.2835 181.958 38.7902 181.666C39.3095 181.362 39.8922 181.21 40.5382 181.21C41.1969 181.21 41.7732 181.362 42.2672 181.666C42.7739 181.97 43.1665 182.382 43.4452 182.901C43.7239 183.408 43.8632 183.972 43.8632 184.592C43.8632 185.213 43.7175 185.783 43.4262 186.302C43.1475 186.809 42.7549 187.214 42.2482 187.518C41.7415 187.81 41.1652 187.955 40.5192 187.955ZM40.5382 186.112C40.8929 186.112 41.1842 185.979 41.4122 185.713C41.6529 185.435 41.7732 185.061 41.7732 184.592C41.7732 184.136 41.6529 183.769 41.4122 183.49C41.1715 183.212 40.8739 183.072 40.5192 183.072C40.1519 183.072 39.8542 183.205 39.6262 183.471C39.3982 183.737 39.2842 184.111 39.2842 184.592C39.2842 185.048 39.3982 185.416 39.6262 185.694C39.8669 185.973 40.1709 186.112 40.5382 186.112Z" fill="#0366BF"/>
<path d="M10.25 206.6H3.99899L3.99899 203.693H13.993V206.144L8.84399 216.746H5.19599L10.25 206.6ZM22.3125 208.215C23.1231 208.215 23.8641 208.386 24.5355 208.728C25.2068 209.07 25.7388 209.558 26.1315 210.191C26.5241 210.812 26.7205 211.547 26.7205 212.395C26.7205 213.295 26.4925 214.093 26.0365 214.789C25.5931 215.486 24.9788 216.024 24.1935 216.404C23.4208 216.784 22.5531 216.974 21.5905 216.974C19.7031 216.974 18.2718 216.385 17.2965 215.207C16.3211 214.029 15.8335 212.446 15.8335 210.457C15.8335 209.077 16.0868 207.861 16.5935 206.809C17.1001 205.758 17.8221 204.941 18.7595 204.358C19.7095 203.763 20.8178 203.465 22.0845 203.465C23.6298 203.465 24.9978 203.921 26.1885 204.833L24.6875 207.284C24.2568 206.955 23.8388 206.708 23.4335 206.543C23.0408 206.379 22.5975 206.296 22.1035 206.296C21.3308 206.296 20.6975 206.556 20.2035 207.075C19.7221 207.595 19.4118 208.323 19.2725 209.26C19.6651 208.931 20.1275 208.678 20.6595 208.5C21.1915 208.31 21.7425 208.215 22.3125 208.215ZM21.3815 214.219C21.9768 214.219 22.4581 214.061 22.8255 213.744C23.1928 213.415 23.3765 213.01 23.3765 212.528C23.3765 212.009 23.1738 211.597 22.7685 211.293C22.3758 210.977 21.8881 210.818 21.3055 210.818C20.8621 210.818 20.4568 210.932 20.0895 211.16C19.7348 211.388 19.4625 211.699 19.2725 212.091C19.3738 212.826 19.5891 213.364 19.9185 213.706C20.2478 214.048 20.7355 214.219 21.3815 214.219ZM32.1402 210.286C31.4942 210.286 30.9179 210.141 30.4112 209.849C29.9045 209.558 29.5119 209.159 29.2332 208.652C28.9545 208.133 28.8152 207.557 28.8152 206.923C28.8152 206.303 28.9545 205.739 29.2332 205.232C29.5119 204.713 29.8982 204.308 30.3922 204.016C30.8989 203.712 31.4815 203.56 32.1402 203.56C32.7989 203.56 33.3815 203.712 33.8882 204.016C34.3949 204.308 34.7875 204.713 35.0662 205.232C35.3449 205.739 35.4842 206.303 35.4842 206.923C35.4842 207.557 35.3385 208.133 35.0472 208.652C34.7685 209.159 34.3759 209.558 33.8692 209.849C33.3625 210.141 32.7862 210.286 32.1402 210.286ZM39.6832 203.693H42.1342L33.0142 216.746H30.5632L39.6832 203.693ZM32.1402 208.443C32.5075 208.443 32.8052 208.31 33.0332 208.044C33.2739 207.766 33.3942 207.392 33.3942 206.923C33.3942 206.467 33.2739 206.1 33.0332 205.821C32.7925 205.543 32.4949 205.403 32.1402 205.403C31.7729 205.403 31.4752 205.543 31.2472 205.821C31.0192 206.087 30.9052 206.455 30.9052 206.923C30.9052 207.379 31.0192 207.747 31.2472 208.025C31.4879 208.304 31.7855 208.443 32.1402 208.443ZM40.5192 216.955C39.8732 216.955 39.2969 216.81 38.7902 216.518C38.2835 216.214 37.8909 215.809 37.6122 215.302C37.3335 214.783 37.1942 214.213 37.1942 213.592C37.1942 212.959 37.3335 212.389 37.6122 211.882C37.8909 211.363 38.2835 210.958 38.7902 210.666C39.3095 210.362 39.8922 210.21 40.5382 210.21C41.1969 210.21 41.7732 210.362 42.2672 210.666C42.7739 210.97 43.1665 211.382 43.4452 211.901C43.7239 212.408 43.8632 212.972 43.8632 213.592C43.8632 214.213 43.7175 214.783 43.4262 215.302C43.1475 215.809 42.7549 216.214 42.2482 216.518C41.7415 216.81 41.1652 216.955 40.5192 216.955ZM40.5382 215.112C40.8929 215.112 41.1842 214.979 41.4122 214.713C41.6529 214.435 41.7732 214.061 41.7732 213.592C41.7732 213.136 41.6529 212.769 41.4122 212.49C41.1715 212.212 40.8739 212.072 40.5192 212.072C40.1519 212.072 39.8542 212.205 39.6262 212.471C39.3982 212.737 39.2842 213.111 39.2842 213.592C39.2842 214.048 39.3982 214.416 39.6262 214.694C39.8669 214.973 40.1709 215.112 40.5382 215.112Z" fill="#747474"/>
<path d="M13.3814 80.7463V51.1063L6.42143 55.4263L2.34143 48.2863L15.4214 39.5263H23.6414V80.7463H13.3814ZM37.3861 89.8063L33.9061 87.1663C35.8861 85.4863 37.2061 83.4463 37.7461 81.4663C34.5061 81.4663 31.8061 78.6463 31.8061 75.3463C31.8061 71.9263 34.6261 69.1063 37.9261 69.1063C41.7061 69.1063 44.2861 72.5863 44.2861 77.4463C44.2861 81.4063 41.8861 85.7263 37.3861 89.8063ZM66.668 38.8063C78.968 38.8063 84.848 47.2663 84.848 59.3863C84.848 72.4663 77.228 81.4663 65.108 81.4663C59.948 81.4663 55.688 79.8463 52.148 77.1463L56.888 69.4063C59.408 71.3863 61.748 72.5263 65.048 72.5263C69.968 72.5263 73.088 69.0463 73.988 63.1663C71.528 65.2063 67.988 66.4663 64.388 66.4663C56.768 66.4663 50.468 61.4863 50.468 53.2663C50.468 44.5663 57.488 38.8063 66.668 38.8063ZM67.568 58.2463C70.388 58.2463 72.788 56.6863 73.988 54.2263C73.328 49.7263 71.468 47.5063 67.328 47.5063C63.488 47.5063 61.028 49.9063 61.028 52.8463C61.028 56.2663 64.028 58.2463 67.568 58.2463ZM99.983 80.7463V51.1063L93.023 55.4263L88.943 48.2863L102.023 39.5263H110.243V80.7463H99.983ZM136.468 81.4663C125.368 81.4663 117.508 72.6463 117.508 60.1063C117.508 47.6263 125.368 38.8063 136.468 38.8063C147.628 38.8063 155.488 47.6263 155.488 60.1063C155.488 72.6463 147.628 81.4663 136.468 81.4663ZM136.468 72.1663C141.448 72.1663 144.928 67.1263 144.928 60.1063C144.928 53.0863 141.448 48.1063 136.468 48.1063C131.548 48.1063 128.068 53.0863 128.068 60.1063C128.068 67.1263 131.548 72.1663 136.468 72.1663Z" fill="#002626"/>
<path d="M14.123 12.2287L15.779 11.2747C16.841 12.5167 17.939 14.1187 18.299 15.3247L16.499 16.3867C16.175 15.2347 15.149 13.5067 14.123 12.2287ZM8.27296 11.5627L9.78496 10.3567C10.919 11.0767 12.179 12.1747 12.827 12.9667L11.243 14.3527C10.613 13.5067 9.35296 12.3007 8.27296 11.5627ZM5.51896 11.5627H7.80496L7.80496 14.8747C7.80496 15.4687 8.00296 15.5407 9.08296 15.5407C9.55096 15.5407 11.567 15.5407 12.179 15.5407C13.025 15.5407 13.169 15.3247 13.277 13.9387C13.763 14.2627 14.699 14.5867 15.329 14.7127C15.059 16.9447 14.393 17.5027 12.377 17.5027C11.801 17.5027 9.40696 17.5027 8.86696 17.5027C6.18496 17.5027 5.51896 16.8907 5.51896 14.9107L5.51896 11.5627ZM2.76496 11.8147L4.81696 12.1927C4.60096 13.7767 4.06096 15.5767 3.30496 16.7467L1.27096 15.8467C1.95496 14.9107 2.51296 13.2547 2.76496 11.8147ZM4.94296 1.66274L6.79696 0.798743C7.57096 1.69874 8.36296 2.88674 8.65096 3.76874L6.65296 4.74074C6.40096 3.89474 5.68096 2.61674 4.94296 1.66274ZM12.593 0.744744L14.861 1.66274C14.015 3.10274 13.097 4.66874 12.359 5.67674L10.613 4.84874C11.315 3.75074 12.143 2.04074 12.593 0.744744ZM6.07696 6.28874L6.07696 8.53874L13.385 8.53874V6.28874L6.07696 6.28874ZM3.73696 4.27274L15.851 4.27274L15.851 10.5727L3.73696 10.5727L3.73696 4.27274ZM26.579 1.21274L29.045 1.21274C28.883 4.23674 28.649 13.0207 21.287 17.5387C20.909 16.9807 20.207 16.3147 19.469 15.8107C26.705 11.7967 26.453 3.57074 26.579 1.21274ZM28.973 1.68074C29.027 3.24674 29.405 12.2287 36.785 15.6847C36.101 16.2067 35.453 16.9267 35.129 17.5207C27.371 13.6687 27.029 3.75074 26.885 1.89674L28.973 1.68074ZM37.973 10.1767H47.081V11.9047H37.973V10.1767ZM38.189 3.82274L47.027 3.82274V5.51474L38.189 5.51474V3.82274ZM41.213 8.88074L43.211 9.31274C42.329 11.1667 41.159 13.3627 40.295 14.8027L38.405 14.2267C39.251 12.8407 40.439 10.5907 41.213 8.88074ZM43.769 11.3827L45.749 11.5447C45.101 15.3247 43.211 16.8367 38.927 17.7007C38.801 17.1067 38.405 16.3507 38.045 15.9187C41.627 15.4687 43.193 14.3347 43.769 11.3827ZM45.047 0.996744L46.865 1.71674C46.271 2.52674 45.695 3.35474 45.227 3.91274L43.841 3.28274C44.255 2.65274 44.759 1.68074 45.047 0.996744ZM41.609 0.762744H43.589V9.13274H41.609V0.762744ZM38.621 1.71674L40.169 1.06874C40.655 1.75274 41.105 2.67074 41.267 3.31874L39.611 4.03874C39.485 3.40874 39.071 2.45474 38.621 1.71674ZM41.663 4.66874L43.067 5.51474C42.167 6.93674 40.439 8.50274 38.927 9.34874C38.675 8.88074 38.207 8.16074 37.811 7.76474C39.269 7.17074 40.889 5.89274 41.663 4.66874ZM43.409 5.19074C44.057 5.49674 46.109 6.70274 46.613 7.04474L45.461 8.53874C44.795 7.87274 43.193 6.59474 42.401 6.03674L43.409 5.19074ZM48.269 4.03874L54.875 4.03874V6.03674L48.269 6.03674V4.03874ZM48.467 0.762744L50.645 1.06874C50.087 4.79474 49.007 8.25074 47.351 10.4467C47.009 10.0507 46.127 9.27674 45.641 8.91674C47.153 7.08074 48.035 3.98474 48.467 0.762744ZM51.725 5.26274L53.939 5.46074C53.165 11.6167 51.311 15.4687 46.757 17.7547C46.541 17.2327 45.911 16.2427 45.515 15.7747C49.619 13.9747 51.185 10.5907 51.725 5.26274ZM49.493 5.64074C50.213 10.1947 51.797 14.0827 55.109 15.7747C54.605 16.2067 53.921 17.0707 53.597 17.6647C49.979 15.5047 48.413 11.3287 47.531 5.94674L49.493 5.64074ZM39.989 14.2447L41.141 12.7687C43.265 13.5787 45.515 14.8387 46.739 15.8107L45.245 17.3407C44.093 16.3327 42.005 15.0727 39.989 14.2447Z" fill="#002626"/>
</svg>
