<svg width="1201" height="405" viewBox="0 0 1201 405" fill="none" xmlns="http://www.w3.org/2000/svg">
<path d="M0.982422 374.582H615.985V404.582H0.982422V374.582Z" fill="#C2483D"/>
<path d="M0.984375 344.442H776.984V374.442H0.984375V344.442Z" fill="#3B4BC4"/>
<path d="M255.382 144.442H290.742V174.442H255.382V144.442Z" fill="#3B4BC4"/>
<path d="M0.984375 144.442H255.382V174.442H0.984375V144.442Z" fill="#38982F"/>
<path d="M290.742 144.442H995.984V174.442H290.742V144.442Z" fill="#D0D0D0"/>
<path d="M29.0644 316.837C16.5844 316.837 6.34438 311.237 6.34438 300.997C6.34438 294.677 10.5044 289.957 16.6644 287.477C11.5444 285.157 7.78438 281.237 7.78438 274.997C7.78438 265.237 17.9444 259.957 29.0644 259.957C40.4244 259.957 50.4244 265.397 50.4244 274.997C50.4244 280.997 46.9044 284.997 41.4644 287.477C47.8644 290.197 51.8644 294.917 51.8644 300.997C51.8644 311.317 41.4644 316.837 29.0644 316.837ZM29.0644 282.837C33.0644 282.597 36.9044 280.277 36.9044 276.917C36.9044 273.717 33.7844 271.237 29.0644 271.237C24.3444 271.237 21.3044 273.717 21.3044 276.917C21.3044 280.357 25.0644 282.597 29.0644 282.837ZM29.0644 305.477C34.2644 305.477 38.0244 303.077 38.0244 299.477C38.0244 295.877 33.4644 293.637 29.0644 293.397C24.6644 293.637 20.1844 295.877 20.1844 299.477C20.1844 303.077 23.7844 305.477 29.0644 305.477ZM85.49 315.877V305.397H58.85L57.65 294.997L82.53 260.997H99.17V294.037H106.13V305.397H99.17V315.877H85.49ZM71.81 294.037H85.49V275.157L71.81 294.037ZM126.926 288.677C118.526 288.677 112.926 282.517 112.926 274.517C112.926 266.677 118.446 260.357 126.926 260.357C135.486 260.357 141.006 266.757 141.006 274.517C141.006 282.517 135.246 288.677 126.926 288.677ZM120.286 315.877L158.686 260.917H169.006L130.606 315.877H120.286ZM126.926 280.917C129.966 280.917 132.206 278.517 132.206 274.517C132.206 270.597 129.886 268.117 126.926 268.117C123.886 268.117 121.726 270.517 121.726 274.517C121.726 278.437 123.966 280.917 126.926 280.917ZM162.206 316.757C153.806 316.757 148.206 310.437 148.206 302.597C148.206 294.597 153.886 288.357 162.286 288.357C170.766 288.357 176.286 294.757 176.286 302.597C176.286 310.517 170.526 316.757 162.206 316.757ZM162.286 308.997C165.246 308.997 167.486 306.597 167.486 302.597C167.486 298.677 165.166 296.197 162.206 296.197C159.166 296.197 157.006 298.517 157.006 302.597C157.006 306.517 159.246 308.997 162.286 308.997Z" fill="#3B4BC4"/>
<path d="M4.08842 224.647H18.0744V226.447H4.08842V224.647ZM6.23042 226.879L8.19242 226.411C8.67842 227.203 9.18242 228.301 9.38042 229.039L7.29242 229.579C7.13042 228.877 6.66242 227.725 6.23042 226.879ZM13.6104 226.555L15.8244 226.933C15.3384 228.049 14.8164 229.165 14.3844 229.921L12.4404 229.525C12.8544 228.715 13.3584 227.455 13.6104 226.555ZM3.11642 228.823H18.8124V230.713H3.11642L3.11642 228.823ZM3.60242 232.081H18.5424V233.971H3.60242L3.60242 232.081ZM9.30842 223.027L11.4684 222.541C11.8824 223.297 12.2964 224.359 12.4224 225.043L10.1544 225.601C10.0464 224.917 9.68642 223.855 9.30842 223.027ZM6.26642 234.367L8.37242 234.997C7.56242 236.437 6.26642 237.931 5.13242 238.849C4.71842 238.489 3.83642 237.877 3.31442 237.571C4.48442 236.797 5.63642 235.555 6.26642 234.367ZM13.3404 235.249L15.1584 234.223C16.2564 235.249 17.6604 236.689 18.3084 237.697L16.3644 238.849C15.7884 237.877 14.4564 236.347 13.3404 235.249ZM9.97442 230.317H12.1884L12.1884 237.319C12.1884 238.363 11.9904 238.867 11.2704 239.173C10.5684 239.479 9.61442 239.515 8.30042 239.497C8.19242 238.921 7.90442 238.093 7.61642 237.553C8.40842 237.589 9.36242 237.589 9.61442 237.571C9.88442 237.571 9.97442 237.499 9.97442 237.265L9.97442 230.317ZM24.3924 228.859H34.1844V230.857H24.3924V228.859ZM24.3924 232.711H34.1844V234.709H24.3924V232.711ZM24.3924 236.581H34.1844V238.579H24.3924L24.3924 236.581ZM22.9164 224.935H36.0024V239.443H33.6984V227.005H25.1124L25.1124 239.479H22.9164L22.9164 224.935ZM28.0284 222.577L30.6384 222.847C30.2064 224.053 29.6844 225.241 29.2884 226.033L27.3084 225.673C27.5964 224.773 27.9024 223.513 28.0284 222.577ZM44.8404 222.595L47.2344 223.189C46.3704 224.449 45.3624 225.763 44.5884 226.609L42.8244 226.015C43.5444 225.061 44.3904 223.657 44.8404 222.595ZM49.3404 224.197L51.0504 223.225C52.5444 224.287 54.4704 225.907 55.4064 227.059L53.5524 228.157C52.7064 227.041 50.8524 225.349 49.3404 224.197ZM40.1424 225.493C43.4364 225.421 48.5664 225.295 53.2464 225.133L53.1744 226.915C48.6024 227.131 43.6884 227.311 40.3764 227.401L40.1424 225.493ZM39.5304 228.409H55.9284V230.227H39.5304V228.409ZM47.9904 230.785L49.6464 231.595C48.2424 232.567 46.1184 233.287 44.3364 233.701C44.0664 233.323 43.5804 232.783 43.1484 232.441C44.7864 232.117 46.9104 231.469 47.9904 230.785ZM49.6464 232.765L51.3384 233.575C49.5744 234.997 46.7664 235.951 44.1384 236.509C43.8864 236.041 43.4184 235.393 42.9864 234.979C45.3804 234.601 48.2064 233.809 49.6464 232.765ZM51.8064 234.673L53.6964 235.519C51.3384 237.913 47.3604 238.993 42.7704 239.551C42.5724 238.993 42.1584 238.255 41.7804 237.769C45.9564 237.409 49.8804 236.527 51.8064 234.673ZM45.3984 226.537L47.5224 227.041C46.1724 230.713 43.6344 233.377 40.4664 234.961C40.1604 234.529 39.3684 233.683 38.9004 233.305C41.9964 232.009 44.3004 229.687 45.3984 226.537ZM50.9424 228.841C52.0044 230.605 54.1464 232.279 56.3244 233.125C55.8564 233.521 55.2264 234.313 54.9204 234.817C52.6164 233.737 50.4564 231.739 49.1424 229.507L50.9424 228.841ZM58.7184 236.851C61.9404 236.761 66.9444 236.581 71.4804 236.383L71.4084 238.363C66.9984 238.615 62.2464 238.831 59.0064 238.957L58.7184 236.851ZM58.6284 231.487H73.6044V233.503H58.6284V231.487ZM61.8324 228.031H70.2744V230.011H61.8324V228.031ZM63.0384 232.801L65.5044 233.485C64.6584 235.177 63.6864 237.049 62.8764 238.255L60.9864 237.625C61.7244 236.311 62.5884 234.313 63.0384 232.801ZM67.5024 234.655L69.4104 233.665C71.0304 235.051 72.7044 236.941 73.5324 238.309L71.5344 239.515C70.7784 238.147 69.0504 236.095 67.5024 234.655ZM66.0444 224.701C64.5864 226.753 61.7784 229.057 58.7904 230.479C58.5384 229.957 57.9624 229.147 57.5124 228.679C60.5904 227.329 63.4704 224.755 64.8024 222.631H67.0884C68.9964 225.277 71.8584 227.329 74.7204 228.355C74.1984 228.895 73.7124 229.669 73.3164 230.317C70.6164 229.057 67.5744 226.789 66.0444 224.701ZM82.9104 223.027H85.3764C85.2144 226.051 84.9804 234.835 77.6184 239.353C77.2404 238.795 76.5384 238.129 75.8004 237.625C83.0364 233.611 82.7844 225.385 82.9104 223.027ZM85.3044 223.495C85.3584 225.061 85.7364 234.043 93.1164 237.499C92.4324 238.021 91.7844 238.741 91.4604 239.335C83.7024 235.483 83.3604 225.565 83.2164 223.711L85.3044 223.495ZM94.3044 231.991H103.412V233.719H94.3044V231.991ZM94.5204 225.637H103.358V227.329H94.5204V225.637ZM97.5444 230.695L99.5424 231.127C98.6604 232.981 97.4904 235.177 96.6264 236.617L94.7364 236.041C95.5824 234.655 96.7704 232.405 97.5444 230.695ZM100.1 233.197L102.08 233.359C101.432 237.139 99.5424 238.651 95.2584 239.515C95.1324 238.921 94.7364 238.165 94.3764 237.733C97.9584 237.283 99.5244 236.149 100.1 233.197ZM101.378 222.811L103.196 223.531C102.602 224.341 102.026 225.169 101.558 225.727L100.172 225.097C100.586 224.467 101.09 223.495 101.378 222.811ZM97.9404 222.577H99.9204V230.947H97.9404V222.577ZM94.9524 223.531L96.5004 222.883C96.9864 223.567 97.4364 224.485 97.5984 225.133L95.9424 225.853C95.8164 225.223 95.4024 224.269 94.9524 223.531ZM97.9944 226.483L99.3984 227.329C98.4984 228.751 96.7704 230.317 95.2584 231.163C95.0064 230.695 94.5384 229.975 94.1424 229.579C95.6004 228.985 97.2204 227.707 97.9944 226.483ZM99.7404 227.005C100.388 227.311 102.44 228.517 102.944 228.859L101.792 230.353C101.126 229.687 99.5244 228.409 98.7324 227.851L99.7404 227.005ZM104.6 225.853H111.206V227.851H104.6V225.853ZM104.798 222.577L106.976 222.883C106.418 226.609 105.338 230.065 103.682 232.261C103.34 231.865 102.458 231.091 101.972 230.731C103.484 228.895 104.366 225.799 104.798 222.577ZM108.056 227.077L110.27 227.275C109.496 233.431 107.642 237.283 103.088 239.569C102.872 239.047 102.242 238.057 101.846 237.589C105.95 235.789 107.516 232.405 108.056 227.077ZM105.824 227.455C106.544 232.009 108.128 235.897 111.44 237.589C110.936 238.021 110.252 238.885 109.928 239.479C106.31 237.319 104.744 233.143 103.862 227.761L105.824 227.455ZM96.3204 236.059L97.4724 234.583C99.5964 235.393 101.846 236.653 103.07 237.625L101.576 239.155C100.424 238.147 98.3364 236.887 96.3204 236.059ZM113.204 223.495H129.08V225.601H113.204V223.495ZM116.588 232.027H125.966V233.989H116.588V232.027ZM116.642 236.401H125.75V238.399H116.642V236.401ZM119.864 224.269L122.492 224.809C122.078 226.285 121.664 227.851 121.304 228.895L119.252 228.373C119.504 227.239 119.774 225.529 119.864 224.269ZM115.004 227.653H127.478V239.497H125.174V229.651H117.2V239.497H115.004V227.653ZM133.994 229.201H143.732V231.307H133.994V229.201ZM143.03 229.201H145.298C145.298 229.201 145.28 229.867 145.262 230.137C145.064 235.609 144.848 237.751 144.218 238.489C143.768 239.101 143.264 239.263 142.58 239.371C141.95 239.461 140.906 239.443 139.844 239.407C139.808 238.777 139.52 237.841 139.124 237.229C140.132 237.319 141.068 237.337 141.518 237.337C141.842 237.337 142.04 237.283 142.238 237.085C142.67 236.617 142.868 234.601 143.03 229.597V229.201ZM136.028 222.829L138.368 223.513C137.018 226.645 134.822 229.543 132.554 231.325C132.14 230.857 131.204 229.993 130.682 229.579C132.95 228.085 134.948 225.565 136.028 222.829ZM142.886 222.793C144.02 225.079 146.288 227.707 148.268 229.219C147.674 229.687 146.846 230.569 146.432 231.181C144.398 229.309 142.184 226.393 140.762 223.639L142.886 222.793ZM137.216 229.813H139.556C139.214 233.863 138.44 237.625 133.076 239.623C132.806 239.029 132.176 238.111 131.672 237.643C136.496 236.059 136.928 233.017 137.216 229.813ZM153.02 227.941H157.556V230.065H153.02V227.941ZM151.724 222.793H153.956V237.409L151.724 237.931V222.793ZM149.438 236.887C151.58 236.527 154.802 235.879 157.754 235.231L157.97 237.355C155.234 237.985 152.282 238.615 150.05 239.119L149.438 236.887ZM164.558 226.537L166.07 228.409C164.234 229.381 161.966 230.299 159.986 231.019C159.86 230.515 159.518 229.759 159.248 229.291C161.138 228.571 163.19 227.455 164.558 226.537ZM158.6 222.793H160.832V235.951C160.832 236.995 160.922 237.139 161.606 237.139C161.912 237.139 163.226 237.139 163.568 237.139C164.252 237.139 164.36 236.509 164.468 234.043C164.99 234.439 165.89 234.835 166.502 234.979C166.268 238.057 165.71 239.227 163.766 239.227C163.334 239.227 161.696 239.227 161.282 239.227C159.176 239.227 158.6 238.489 158.6 235.933V222.793Z" fill="#002626"/>
<path d="M298.304 279.834C301.717 279.834 304.837 280.554 307.664 281.994C310.49 283.434 312.73 285.487 314.384 288.154C316.037 290.767 316.864 293.861 316.864 297.434C316.864 301.221 315.904 304.581 313.984 307.514C312.117 310.447 309.53 312.714 306.224 314.314C302.97 315.914 299.317 316.714 295.264 316.714C287.317 316.714 281.29 314.234 277.184 309.274C273.077 304.314 271.024 297.647 271.024 289.274C271.024 283.461 272.09 278.341 274.224 273.914C276.357 269.487 279.397 266.047 283.344 263.594C287.344 261.087 292.01 259.834 297.344 259.834C303.85 259.834 309.61 261.754 314.624 265.594L308.304 275.914C306.49 274.527 304.73 273.487 303.024 272.794C301.37 272.101 299.504 271.754 297.424 271.754C294.17 271.754 291.504 272.847 289.424 275.034C287.397 277.221 286.09 280.287 285.504 284.234C287.157 282.847 289.104 281.781 291.344 281.034C293.584 280.234 295.904 279.834 298.304 279.834ZM294.384 305.114C296.89 305.114 298.917 304.447 300.464 303.114C302.01 301.727 302.784 300.021 302.784 297.994C302.784 295.807 301.93 294.074 300.224 292.794C298.57 291.461 296.517 290.794 294.064 290.794C292.197 290.794 290.49 291.274 288.944 292.234C287.45 293.194 286.304 294.501 285.504 296.154C285.93 299.247 286.837 301.514 288.224 302.954C289.61 304.394 291.664 305.114 294.384 305.114ZM336.484 276.234L327.204 281.994L321.764 272.474L339.204 260.794H350.164V315.754H336.484V276.234ZM374.49 288.554C371.77 288.554 369.343 287.941 367.21 286.714C365.077 285.487 363.423 283.807 362.25 281.674C361.077 279.487 360.49 277.061 360.49 274.394C360.49 271.781 361.077 269.407 362.25 267.274C363.423 265.087 365.05 263.381 367.13 262.154C369.263 260.874 371.717 260.234 374.49 260.234C377.263 260.234 379.717 260.874 381.85 262.154C383.983 263.381 385.637 265.087 386.81 267.274C387.983 269.407 388.57 271.781 388.57 274.394C388.57 277.061 387.957 279.487 386.73 281.674C385.557 283.807 383.903 285.487 381.77 286.714C379.637 287.941 377.21 288.554 374.49 288.554ZM406.25 260.794H416.57L378.17 315.754H367.85L406.25 260.794ZM374.49 280.794C376.037 280.794 377.29 280.234 378.25 279.114C379.263 277.941 379.77 276.367 379.77 274.394C379.77 272.474 379.263 270.927 378.25 269.754C377.237 268.581 375.983 267.994 374.49 267.994C372.943 267.994 371.69 268.581 370.73 269.754C369.77 270.874 369.29 272.421 369.29 274.394C369.29 276.314 369.77 277.861 370.73 279.034C371.743 280.207 372.997 280.794 374.49 280.794ZM409.77 316.634C407.05 316.634 404.623 316.021 402.49 314.794C400.357 313.514 398.703 311.807 397.53 309.674C396.357 307.487 395.77 305.087 395.77 302.474C395.77 299.807 396.357 297.407 397.53 295.274C398.703 293.087 400.357 291.381 402.49 290.154C404.677 288.874 407.13 288.234 409.85 288.234C412.623 288.234 415.05 288.874 417.13 290.154C419.263 291.434 420.917 293.167 422.09 295.354C423.263 297.487 423.85 299.861 423.85 302.474C423.85 305.087 423.237 307.487 422.01 309.674C420.837 311.807 419.183 313.514 417.05 314.794C414.917 316.021 412.49 316.634 409.77 316.634ZM409.85 308.874C411.343 308.874 412.57 308.314 413.53 307.194C414.543 306.021 415.05 304.447 415.05 302.474C415.05 300.554 414.543 299.007 413.53 297.834C412.517 296.661 411.263 296.074 409.77 296.074C408.223 296.074 406.97 296.634 406.01 297.754C405.05 298.874 404.57 300.447 404.57 302.474C404.57 304.394 405.05 305.941 406.01 307.114C407.023 308.287 408.303 308.874 409.85 308.874Z" fill="#C2483D"/>
<path d="M277.372 231.091H286.588V232.747H277.372V231.091ZM277.372 233.917H286.588V235.555H277.372V233.917ZM277.372 236.779H286.606V238.651H277.372V236.779ZM273.862 225.007H290.188V227.005H273.862V225.007ZM275.626 228.121H288.262V239.497H286.012V229.993H277.786V239.497H275.626V228.121ZM280.882 226.195L283.618 226.267C283.204 227.419 282.628 228.499 282.214 229.273L280.108 229.021C280.432 228.193 280.738 227.041 280.882 226.195ZM285.094 222.541L287.578 223.081C286.876 224.125 286.084 225.115 285.472 225.781L283.546 225.241C284.104 224.485 284.734 223.369 285.094 222.541ZM276.67 223.315L278.596 222.469C279.28 223.099 280 223.981 280.378 224.593L278.362 225.637C278.056 225.007 277.318 224.017 276.67 223.315ZM299.008 222.667L301.258 223.063C300.556 226.267 299.332 229.273 297.856 231.181C297.406 230.839 296.38 230.263 295.804 230.011C297.352 228.337 298.45 225.529 299.008 222.667ZM302.338 227.725H303.454V229.705C303.454 231.667 304.534 235.591 308.98 237.535C308.566 238.057 307.918 238.957 307.576 239.497C304.354 238.021 302.662 234.835 302.32 233.215C301.888 234.835 300.052 237.913 296.398 239.497C296.146 238.993 295.462 238.075 295.084 237.679C299.962 235.735 301.168 231.757 301.168 229.705V227.725H302.338ZM291.844 235.105C292.852 234.133 294.472 232.477 295.966 230.839L297.19 232.693C295.948 234.151 294.472 235.735 293.23 236.959L291.844 235.105ZM292.366 225.295L293.896 223.711C294.976 224.413 296.434 225.493 297.136 226.267L295.498 228.049C294.868 227.257 293.464 226.087 292.366 225.295ZM299.782 225.709H307.162V227.851H298.72L299.782 225.709ZM306.442 225.709H306.766L307.18 225.583L308.782 226.519C308.26 228.337 307.396 230.209 306.694 231.487C306.244 231.253 305.38 230.803 304.858 230.605C305.434 229.507 306.172 227.599 306.442 226.177V225.709ZM315.856 222.595L318.25 223.189C317.386 224.449 316.378 225.763 315.604 226.609L313.84 226.015C314.56 225.061 315.406 223.657 315.856 222.595ZM320.356 224.197L322.066 223.225C323.56 224.287 325.486 225.907 326.422 227.059L324.568 228.157C323.722 227.041 321.868 225.349 320.356 224.197ZM311.158 225.493C314.452 225.421 319.582 225.295 324.262 225.133L324.19 226.915C319.618 227.131 314.704 227.311 311.392 227.401L311.158 225.493ZM310.546 228.409H326.944V230.227H310.546V228.409ZM319.006 230.785L320.662 231.595C319.258 232.567 317.134 233.287 315.352 233.701C315.082 233.323 314.596 232.783 314.164 232.441C315.802 232.117 317.926 231.469 319.006 230.785ZM320.662 232.765L322.354 233.575C320.59 234.997 317.782 235.951 315.154 236.509C314.902 236.041 314.434 235.393 314.002 234.979C316.396 234.601 319.222 233.809 320.662 232.765ZM322.822 234.673L324.712 235.519C322.354 237.913 318.376 238.993 313.786 239.551C313.588 238.993 313.174 238.255 312.796 237.769C316.972 237.409 320.896 236.527 322.822 234.673ZM316.414 226.537L318.538 227.041C317.188 230.713 314.65 233.377 311.482 234.961C311.176 234.529 310.384 233.683 309.916 233.305C313.012 232.009 315.316 229.687 316.414 226.537ZM321.958 228.841C323.02 230.605 325.162 232.279 327.34 233.125C326.872 233.521 326.242 234.313 325.936 234.817C323.632 233.737 321.472 231.739 320.158 229.507L321.958 228.841ZM329.734 236.851C332.956 236.761 337.96 236.581 342.496 236.383L342.424 238.363C338.014 238.615 333.262 238.831 330.022 238.957L329.734 236.851ZM329.644 231.487H344.62V233.503H329.644V231.487ZM332.848 228.031H341.29V230.011H332.848V228.031ZM334.054 232.801L336.52 233.485C335.674 235.177 334.702 237.049 333.892 238.255L332.002 237.625C332.74 236.311 333.604 234.313 334.054 232.801ZM338.518 234.655L340.426 233.665C342.046 235.051 343.72 236.941 344.548 238.309L342.55 239.515C341.794 238.147 340.066 236.095 338.518 234.655ZM337.06 224.701C335.602 226.753 332.794 229.057 329.806 230.479C329.554 229.957 328.978 229.147 328.528 228.679C331.606 227.329 334.486 224.755 335.818 222.631H338.104C340.012 225.277 342.874 227.329 345.736 228.355C345.214 228.895 344.728 229.669 344.332 230.317C341.632 229.057 338.59 226.789 337.06 224.701ZM347.32 228.049H363.52V229.957H347.32V228.049ZM348.886 224.539H359.182V226.411H348.886V224.539ZM352.054 234.331H360.1V235.951H352.054V234.331ZM352.054 237.157H360.1V238.975H352.054V237.157ZM353.134 222.595H355.258V229.111H353.134V222.595ZM361.054 223.117L362.908 224.071C359.38 228.985 353.89 232.603 348.058 234.745C347.806 234.277 347.158 233.377 346.762 232.945C352.612 231.073 357.904 227.635 361.054 223.117ZM350.848 231.397H361.468V239.443H359.218V233.161H353.008V239.515H350.848V231.397Z" fill="#002626"/>
<path d="M476.297 7.88493V9.93693H486.614V7.88493H476.297ZM476.297 4.71193V6.72593H486.614V4.71193H476.297ZM474.872 3.49593L488.077 3.49593V11.1719H474.872V3.49593ZM480.686 4.04693H482.13V10.5829H480.686V4.04693ZM473.333 13.0149H487.868V14.3259H473.333V13.0149ZM487.279 13.0149H488.723C488.723 13.0149 488.704 13.4329 488.666 13.6419C488.324 17.2519 487.944 18.7529 487.336 19.3419C486.918 19.7409 486.5 19.8359 485.816 19.8739C485.227 19.9119 484.049 19.8929 482.833 19.8359C482.795 19.4369 482.624 18.8859 482.377 18.5249C483.612 18.6199 484.866 18.6389 485.303 18.6389C485.74 18.6389 485.968 18.6199 486.139 18.4489C486.633 18.0499 486.975 16.6059 487.26 13.2239L487.279 13.0149ZM480.42 10.9059H481.902C481.37 15.2379 480.078 18.5059 473.561 19.9499C473.428 19.5889 473.067 19.0189 472.801 18.7339C478.957 17.4609 479.945 14.6299 480.42 10.9059ZM494.613 2.46993L496.057 2.46993V19.9309H494.613V2.46993ZM492.865 6.07993L493.948 6.25093C493.853 7.78993 493.511 9.99393 492.998 11.3619L491.877 10.9819C492.39 9.70893 492.732 7.61893 492.865 6.07993ZM496.19 5.96593L497.178 5.52893C497.767 6.55493 498.356 7.90393 498.565 8.72093L497.501 9.25293C497.292 8.41693 496.722 7.02993 496.19 5.96593ZM500.066 3.36293L501.453 3.59093C500.959 6.36493 500.123 9.06293 499.059 10.8489C498.774 10.6399 498.128 10.3359 497.767 10.1839C498.888 8.51193 499.648 5.92793 500.066 3.36293ZM500.085 6.49793H508.92V7.86593H499.648L500.085 6.49793ZM503.163 2.54593H504.588V18.6959H503.163V2.54593ZM499.116 11.8179H508.502V13.1669H499.116V11.8179ZM497.691 17.9169H509.376V19.2849H497.691V17.9169ZM489.772 36.0299H506.929V37.4549H489.772V36.0299ZM496.878 31.4889L498.417 31.7549C496.954 35.6309 494.769 40.8369 493.287 43.9529L491.881 43.4399C493.363 40.4189 495.529 35.2129 496.878 31.4889ZM502.483 36.6569L504.003 37.0369C502.578 44.3709 499.291 47.7339 490.684 49.0069C490.532 48.5699 490.209 47.9999 489.924 47.6389C498.208 46.5369 501.172 43.4779 502.483 36.6569ZM492.85 42.7179L493.781 41.6159C498.132 43.0599 503.661 45.6249 506.473 47.7339L505.39 49.0449C502.749 46.9549 497.296 44.2569 492.85 42.7179ZM511.451 31.4699H512.895V48.9309H511.451V31.4699ZM509.703 35.0799L510.786 35.2509C510.691 36.7899 510.349 38.9939 509.836 40.3619L508.715 39.9819C509.228 38.7089 509.57 36.6189 509.703 35.0799ZM513.028 34.9659L514.016 34.5289C514.605 35.5549 515.194 36.9039 515.403 37.7209L514.339 38.2529C514.13 37.4169 513.56 36.0299 513.028 34.9659ZM516.904 32.3629L518.291 32.5909C517.797 35.3649 516.961 38.0629 515.897 39.8489C515.612 39.6399 514.966 39.3359 514.605 39.1839C515.726 37.5119 516.486 34.9279 516.904 32.3629ZM516.923 35.4979H525.758V36.8659H516.486L516.923 35.4979ZM520.001 31.5459H521.426V47.6959H520.001V31.5459ZM515.954 40.8179H525.34V42.1669H515.954V40.8179ZM514.529 46.9169H526.214V48.2849H514.529V46.9169ZM511.75 63.3579H517.906V64.7069H511.75V63.3579ZM511.731 71.9839H518.229V73.3329H511.731V71.9839ZM511.655 67.6519H517.526V68.9439H511.655V67.6519ZM501.49 63.3579H507.095V64.7069H501.49V63.3579ZM501.718 67.6519H507.038V68.9439H501.718V67.6519ZM511.009 60.5839H512.415V77.9499H511.009V60.5839ZM500.787 72.4019C502.896 72.0789 506.202 71.5469 509.337 70.9959L509.413 72.2689C506.449 72.8199 503.333 73.3899 501.091 73.7889L500.787 72.4019ZM506.449 60.5839H507.855V69.4569C507.855 71.9079 507.095 76.0119 502.516 78.1589C502.288 77.8359 501.832 77.3799 501.49 77.0949C505.841 75.2519 506.449 71.4329 506.449 69.4569V60.5839ZM528.432 69.7229H529.876V77.9689H528.432V69.7229ZM525.373 67.1199V68.9629H532.555V67.1199H525.373ZM523.986 66.0369H534.018V70.0649H523.986V66.0369ZM522.295 71.6419H535.025V72.9339H523.72V77.0949H522.295V71.6419ZM534.322 71.6419H535.766V75.6129C535.766 76.3539 535.614 76.7529 535.025 76.9619C534.417 77.1899 533.448 77.1899 531.966 77.1899C531.89 76.8099 531.681 76.2779 531.472 75.8979C532.612 75.9359 533.638 75.9359 533.942 75.9169C534.227 75.8979 534.322 75.8219 534.322 75.6129V71.6419ZM528.299 60.4699H529.762V63.9279H528.299V60.4699ZM521.041 63.4149H536.925V67.5189H535.5V64.6879H522.428V67.5189H521.041V63.4149ZM522.618 61.1729L523.891 60.6599C524.518 61.3439 525.183 62.2559 525.506 62.8829L524.138 63.5099C523.853 62.8639 523.207 61.8759 522.618 61.1729ZM533.904 60.6219L535.386 61.1349C534.759 61.9709 534.037 62.8449 533.467 63.4339L532.308 62.9589C532.84 62.3319 533.543 61.3059 533.904 60.6219ZM540.022 63.6429H546.71V64.9729H540.022V63.6429ZM539.604 68.0319H546.938V69.3999H539.604V68.0319ZM542.739 60.6789H544.107V66.8349C544.107 70.1789 543.822 74.8339 540.497 77.7599C540.307 77.4749 539.832 76.9999 539.49 76.7719C542.625 74.1879 542.739 69.7989 542.739 66.8539V60.6789ZM543.784 70.3119C544.411 70.9009 546.558 73.4849 547.052 74.0929L546.064 75.1569C545.437 74.1499 543.632 71.8129 542.91 70.9769L543.784 70.3119ZM547.831 61.4009H555.868V71.5089H554.462V62.6549H549.218V71.5089H547.831V61.4009ZM551.821 70.9389H553.094V75.7839C553.094 76.2969 553.265 76.4109 553.721 76.4109H555.07C555.678 76.4109 555.792 75.9169 555.868 73.2949C556.191 73.5609 556.685 73.7509 557.027 73.8269C556.875 76.8099 556.647 77.5509 555.089 77.5509H553.55C552.315 77.5509 551.821 77.2089 551.821 75.9359V70.9389ZM551.194 64.2889H552.524V67.9559C552.524 71.2049 551.669 75.3659 546.672 77.9309C546.52 77.6649 546.064 77.1329 545.779 76.9049C550.586 74.4539 551.194 70.8629 551.194 67.9369V64.2889ZM561.435 60.4699H562.879V77.9309H561.435V60.4699ZM559.687 64.0799L560.77 64.2509C560.675 65.7899 560.333 67.9939 559.82 69.3619L558.699 68.9819C559.212 67.7089 559.554 65.6189 559.687 64.0799ZM563.012 63.9659L564 63.5289C564.589 64.5549 565.178 65.9039 565.387 66.7209L564.323 67.2529C564.114 66.4169 563.544 65.0299 563.012 63.9659ZM566.888 61.3629L568.275 61.5909C567.781 64.3649 566.945 67.0629 565.881 68.8489C565.596 68.6399 564.95 68.3359 564.589 68.1839C565.71 66.5119 566.47 63.9279 566.888 61.3629ZM566.907 64.4979H575.742V65.8659H566.47L566.907 64.4979ZM569.985 60.5459H571.41V76.6959H569.985V60.5459ZM565.938 69.8179H575.324V71.1669H565.938V69.8179ZM564.513 75.9169H576.198V77.2849H564.513V75.9169ZM589.46 62.7689H590.828V73.2949H589.46V62.7689ZM593.488 60.8309H594.894V76.0879C594.894 77.0379 594.647 77.4559 594.077 77.7029C593.469 77.9499 592.481 77.9879 590.771 77.9689C590.714 77.5889 590.486 76.9429 590.277 76.5249C591.55 76.5819 592.671 76.5629 593.013 76.5439C593.355 76.5439 593.488 76.4299 593.488 76.0879V60.8309ZM580.625 62.5979V66.2649H585.527V62.5979H580.625ZM579.333 61.3249H586.895V67.5569H579.333V61.3249ZM578.611 69.6849H586.382V70.9959H578.611V69.6849ZM585.831 69.6849H587.237C587.237 69.6849 587.218 70.1029 587.199 70.3119C587.009 74.9099 586.8 76.6009 586.325 77.1899C586.002 77.5699 585.679 77.7219 585.147 77.7599C584.71 77.8169 583.893 77.7979 583.057 77.7599C583.019 77.3419 582.886 76.7719 582.658 76.3919C583.456 76.4679 584.216 76.4869 584.501 76.4869C584.786 76.4869 584.957 76.4489 585.109 76.2779C585.451 75.8789 585.66 74.2829 585.831 69.9319V69.6849ZM582.012 68.0319H583.38C583.152 72.5159 582.601 76.0879 579.086 78.0259C578.915 77.6839 578.497 77.2089 578.174 76.9809C581.442 75.2709 581.841 72.0599 582.012 68.0319ZM597.972 66.5879H614.901V67.8609H597.972V66.5879ZM599.644 62.8639L610.645 62.8639V64.1369H599.644V62.8639ZM602.722 72.9529H611.671V74.0929H602.722V72.9529ZM602.722 76.1069H611.671V77.3419H602.722V76.1069ZM604.527 60.4699H605.914V67.2719H604.527V60.4699ZM612.849 61.1349L614.065 61.7809C610.246 66.7779 604.527 70.5209 598.447 72.8579C598.276 72.5349 597.82 71.9459 597.535 71.6609C603.672 69.5329 609.334 65.8469 612.849 61.1349ZM601.943 69.8749H612.583V77.8929H611.101V71.0719H603.368V77.9689H601.943V69.8749ZM518.195 90.8189H534.554V92.2629H518.195V90.8189ZM527.505 96.3479L528.569 95.4359C530.792 96.8799 533.699 99.0269 535.105 100.49L533.946 101.573C532.616 100.11 529.766 97.8869 527.505 96.3479ZM527.144 91.3129L528.702 91.8829C526.536 95.8159 522.983 99.5779 518.689 101.839C518.461 101.478 518.005 100.908 517.72 100.604C521.843 98.5329 525.377 94.8849 527.144 91.3129ZM525.586 95.1129L527.125 93.5929V106.931H525.586V95.1129ZM542.04 102.219H543.446V104.917C543.446 105.392 543.617 105.468 544.605 105.468C545.061 105.468 547.398 105.468 548.006 105.468C548.804 105.468 548.937 105.259 549.013 103.625C549.317 103.834 549.906 104.043 550.286 104.119C550.115 106.266 549.678 106.76 548.139 106.76C547.702 106.76 544.909 106.76 544.51 106.76C542.534 106.76 542.04 106.38 542.04 104.936V102.219ZM543.636 101.744L544.548 100.965C545.726 101.478 547.094 102.352 547.759 103.074L546.79 103.948C546.144 103.226 544.814 102.295 543.636 101.744ZM548.823 98.5329L549.811 97.8109C551.16 98.4949 552.718 99.5969 553.478 100.452L552.433 101.231C551.711 100.376 550.172 99.2359 548.823 98.5329ZM549.887 102.694L551.027 102.01C552.395 102.998 553.858 104.461 554.466 105.582L553.231 106.342C552.661 105.24 551.255 103.739 549.887 102.694ZM539.627 102.2L540.881 102.637C540.349 104.081 539.551 105.563 538.164 106.456L537.005 105.639C538.297 104.86 539.19 103.53 539.627 102.2ZM539.247 90.2489H553.44V91.4079H539.247V90.2489ZM542.61 95.4169V96.4809H550.894V95.4169H542.61ZM542.61 93.4979V94.5239H550.894V93.4979H542.61ZM541.299 92.5669H552.262V97.3929H541.299V92.5669ZM545.878 96.7659H547.227V99.9769C547.227 100.604 547.132 100.908 546.657 101.098C546.182 101.269 545.517 101.288 544.415 101.288C544.358 100.927 544.149 100.49 543.978 100.167C544.738 100.205 545.403 100.205 545.612 100.186C545.821 100.167 545.878 100.11 545.878 99.9389V96.7659ZM538.582 90.2489H539.912V93.6689C539.912 95.9299 539.627 99.1599 538.012 101.326C537.784 101.06 537.233 100.623 536.929 100.471C538.411 98.4379 538.582 95.6829 538.582 93.6499V90.2489ZM545.783 90.9329L547.436 91.1039C547.151 91.8259 546.847 92.5289 546.6 93.0039L545.289 92.7949C545.479 92.2439 545.688 91.4649 545.783 90.9329ZM542.914 97.8869L544.149 98.2859C543.256 99.3689 541.869 100.49 540.691 101.212C540.463 100.984 539.969 100.547 539.665 100.357C540.862 99.7299 542.154 98.8179 542.914 97.8869ZM562.75 95.9299V100.3H567.367V95.9299H562.75ZM561.401 94.6569H568.792V101.554H561.401V94.6569ZM557.202 90.2489H573.086V106.931H571.566V91.6929H558.665V106.931H557.202V90.2489ZM558.019 104.575H572.44V105.924H558.019V104.575ZM580.648 98.0769H588.514V99.3119H580.648V98.0769ZM579.831 105.088H589.312V106.342H579.831V105.088ZM584.486 95.1319C582.814 97.1459 579.66 99.3879 576.411 100.756C576.24 100.433 575.898 99.9389 575.613 99.6349C578.957 98.3239 582.13 95.9869 583.707 93.8779H585.113C587.184 96.2719 590.528 98.3049 593.511 99.3119C593.169 99.6539 592.846 100.148 592.637 100.528C589.73 99.3879 586.367 97.2409 584.486 95.1319ZM579.052 100.946H590.091V106.912H588.685V102.2H580.401V106.969H579.052V100.946ZM578.178 91.1229H584.106V92.3389H578.178V91.1229ZM585.36 91.1229H593.017V92.3389H585.36V91.1229ZM578.577 89.1849L579.945 89.5459C579.185 91.5979 578.007 93.6499 576.772 94.9609C576.506 94.7519 575.917 94.3529 575.575 94.1819C576.829 92.9659 577.931 91.0659 578.577 89.1849ZM585.987 89.1849L587.374 89.5269C586.69 91.4079 585.512 93.1749 584.258 94.3149C584.011 94.0869 583.403 93.6499 583.061 93.4789C584.315 92.4529 585.398 90.8569 585.987 89.1849ZM579.166 92.0349L580.363 91.6739C580.933 92.5479 581.541 93.7069 581.788 94.4669L580.515 94.9039C580.287 94.1439 579.717 92.9279 579.166 92.0349ZM587.146 92.0349L588.4 91.6359C589.103 92.4529 589.882 93.6119 590.186 94.3909L588.856 94.8849C588.571 94.1059 587.83 92.9089 587.146 92.0349Z" fill="#002626"/>
<path d="M413.357 9.04393L411.153 10.4119L409.861 8.15093L414.003 5.37693H416.606V18.4299H413.357V9.04393ZM424.302 5.14893C426.19 5.14893 427.621 5.73793 428.596 6.91593C429.572 8.09393 430.059 9.67726 430.059 11.6659C430.059 13.0466 429.806 14.2626 429.299 15.3139C428.793 16.3653 428.064 17.1886 427.114 17.7839C426.177 18.3666 425.075 18.6579 423.808 18.6579C422.263 18.6579 420.895 18.2019 419.704 17.2899L421.205 14.8389C421.636 15.1683 422.048 15.4153 422.44 15.5799C422.846 15.7446 423.295 15.8269 423.789 15.8269C424.562 15.8269 425.189 15.5673 425.67 15.0479C426.164 14.5286 426.481 13.8003 426.62 12.8629C426.228 13.1923 425.765 13.4519 425.233 13.6419C424.701 13.8193 424.15 13.9079 423.58 13.9079C422.77 13.9079 422.029 13.7369 421.357 13.3949C420.686 13.0529 420.154 12.5716 419.761 11.9509C419.369 11.3176 419.172 10.5766 419.172 9.72793C419.172 8.8286 419.394 8.0306 419.837 7.33393C420.293 6.63726 420.908 6.09893 421.68 5.71893C422.466 5.33893 423.34 5.14893 424.302 5.14893ZM424.587 11.3049C425.031 11.3049 425.43 11.1909 425.784 10.9629C426.152 10.7349 426.43 10.4246 426.62 10.0319C426.519 9.29726 426.304 8.75893 425.974 8.41693C425.645 8.07493 425.157 7.90393 424.511 7.90393C423.916 7.90393 423.435 8.0686 423.067 8.39793C422.7 8.7146 422.516 9.1136 422.516 9.59493C422.516 10.1143 422.713 10.5323 423.105 10.8489C423.511 11.1529 424.005 11.3049 424.587 11.3049ZM435.612 11.9699C434.966 11.9699 434.39 11.8243 433.883 11.5329C433.376 11.2416 432.984 10.8426 432.705 10.3359C432.426 9.8166 432.287 9.24026 432.287 8.60693C432.287 7.98626 432.426 7.4226 432.705 6.91593C432.984 6.3966 433.37 5.99126 433.864 5.69993C434.371 5.39593 434.953 5.24393 435.612 5.24393C436.271 5.24393 436.853 5.39593 437.36 5.69993C437.867 5.99126 438.259 6.3966 438.538 6.91593C438.817 7.4226 438.956 7.98626 438.956 8.60693C438.956 9.24026 438.81 9.8166 438.519 10.3359C438.24 10.8426 437.848 11.2416 437.341 11.5329C436.834 11.8243 436.258 11.9699 435.612 11.9699ZM443.155 5.37693H445.606L436.486 18.4299H434.035L443.155 5.37693ZM435.612 10.1269C435.979 10.1269 436.277 9.99393 436.505 9.72793C436.746 9.44926 436.866 9.0756 436.866 8.60693C436.866 8.15093 436.746 7.7836 436.505 7.50493C436.264 7.22626 435.967 7.08693 435.612 7.08693C435.245 7.08693 434.947 7.22626 434.719 7.50493C434.491 7.77093 434.377 8.13826 434.377 8.60693C434.377 9.06293 434.491 9.43026 434.719 9.70893C434.96 9.9876 435.257 10.1269 435.612 10.1269ZM443.991 18.6389C443.345 18.6389 442.769 18.4933 442.262 18.2019C441.755 17.8979 441.363 17.4926 441.084 16.9859C440.805 16.4666 440.666 15.8966 440.666 15.2759C440.666 14.6426 440.805 14.0726 441.084 13.5659C441.363 13.0466 441.755 12.6413 442.262 12.3499C442.781 12.0459 443.364 11.8939 444.01 11.8939C444.669 11.8939 445.245 12.0459 445.739 12.3499C446.246 12.6539 446.638 13.0656 446.917 13.5849C447.196 14.0916 447.335 14.6553 447.335 15.2759C447.335 15.8966 447.189 16.4666 446.898 16.9859C446.619 17.4926 446.227 17.8979 445.72 18.2019C445.213 18.4933 444.637 18.6389 443.991 18.6389ZM444.01 16.7959C444.365 16.7959 444.656 16.6629 444.884 16.3969C445.125 16.1183 445.245 15.7446 445.245 15.2759C445.245 14.8199 445.125 14.4526 444.884 14.1739C444.643 13.8953 444.346 13.7559 443.991 13.7559C443.624 13.7559 443.326 13.8889 443.098 14.1549C442.87 14.4209 442.756 14.7946 442.756 15.2759C442.756 15.7319 442.87 16.0993 443.098 16.3779C443.339 16.6566 443.643 16.7959 444.01 16.7959Z" fill="#38982F"/>
<path d="M426.333 47.6769C424.256 47.6769 422.527 47.0183 421.146 45.7009L423.008 43.4019C423.528 43.8579 424.072 44.2189 424.642 44.4849C425.212 44.7383 425.782 44.8649 426.352 44.8649C427.011 44.8649 427.53 44.7066 427.91 44.3899C428.29 44.0606 428.48 43.6553 428.48 43.1739C428.48 42.6799 428.29 42.2873 427.91 41.9959C427.543 41.7046 427.036 41.5589 426.39 41.5589C425.491 41.5589 424.687 41.8313 423.977 42.3759L421.83 41.5399L422.02 34.3769H431.007V37.2839H425.003L424.927 39.6589C425.624 39.1523 426.454 38.8989 427.416 38.8989C428.189 38.8989 428.905 39.0636 429.563 39.3929C430.222 39.7223 430.748 40.2036 431.14 40.8369C431.533 41.4576 431.729 42.1986 431.729 43.0599C431.729 43.9973 431.508 44.8143 431.064 45.5109C430.621 46.2076 429.994 46.7459 429.183 47.1259C428.373 47.4933 427.423 47.6769 426.333 47.6769ZM437.18 40.9699C436.534 40.9699 435.957 40.8243 435.451 40.5329C434.944 40.2416 434.551 39.8426 434.273 39.3359C433.994 38.8166 433.855 38.2403 433.855 37.6069C433.855 36.9863 433.994 36.4226 434.273 35.9159C434.551 35.3966 434.938 34.9913 435.432 34.6999C435.938 34.3959 436.521 34.2439 437.18 34.2439C437.838 34.2439 438.421 34.3959 438.928 34.6999C439.434 34.9913 439.827 35.3966 440.106 35.9159C440.384 36.4226 440.524 36.9863 440.524 37.6069C440.524 38.2403 440.378 38.8166 440.087 39.3359C439.808 39.8426 439.415 40.2416 438.909 40.5329C438.402 40.8243 437.826 40.9699 437.18 40.9699ZM444.723 34.3769H447.174L438.054 47.4299H435.603L444.723 34.3769ZM437.18 39.1269C437.547 39.1269 437.845 38.9939 438.073 38.7279C438.313 38.4493 438.434 38.0756 438.434 37.6069C438.434 37.1509 438.313 36.7836 438.073 36.5049C437.832 36.2263 437.534 36.0869 437.18 36.0869C436.812 36.0869 436.515 36.2263 436.287 36.5049C436.059 36.7709 435.945 37.1383 435.945 37.6069C435.945 38.0629 436.059 38.4303 436.287 38.7089C436.527 38.9876 436.825 39.1269 437.18 39.1269ZM445.559 47.6389C444.913 47.6389 444.336 47.4933 443.83 47.2019C443.323 46.8979 442.93 46.4926 442.652 45.9859C442.373 45.4666 442.234 44.8966 442.234 44.2759C442.234 43.6426 442.373 43.0726 442.652 42.5659C442.93 42.0466 443.323 41.6413 443.83 41.3499C444.349 41.0459 444.932 40.8939 445.578 40.8939C446.236 40.8939 446.813 41.0459 447.307 41.3499C447.813 41.6539 448.206 42.0656 448.485 42.5849C448.763 43.0916 448.903 43.6553 448.903 44.2759C448.903 44.8966 448.757 45.4666 448.466 45.9859C448.187 46.4926 447.794 46.8979 447.288 47.2019C446.781 47.4933 446.205 47.6389 445.559 47.6389ZM445.578 45.7959C445.932 45.7959 446.224 45.6629 446.452 45.3969C446.692 45.1183 446.813 44.7446 446.813 44.2759C446.813 43.8199 446.692 43.4526 446.452 43.1739C446.211 42.8953 445.913 42.7559 445.559 42.7559C445.191 42.7559 444.894 42.8889 444.666 43.1549C444.438 43.4209 444.324 43.7946 444.324 44.2759C444.324 44.7319 444.438 45.0993 444.666 45.3779C444.906 45.6566 445.21 45.7959 445.578 45.7959Z" fill="#3B4BC4"/>
<path d="M432.66 71.1859V68.6209L441.609 64.8969V67.4429L435.13 69.9129L441.609 72.3449V74.9099L432.66 71.1859ZM447.264 67.0439L445.06 68.4119L443.768 66.1509L447.91 63.3769H450.513V76.4299H447.264V67.0439ZM456.67 69.9699C456.024 69.9699 455.448 69.8243 454.941 69.5329C454.434 69.2416 454.042 68.8426 453.763 68.3359C453.484 67.8166 453.345 67.2403 453.345 66.6069C453.345 65.9863 453.484 65.4226 453.763 64.9159C454.042 64.3966 454.428 63.9913 454.922 63.6999C455.429 63.3959 456.011 63.2439 456.67 63.2439C457.329 63.2439 457.911 63.3959 458.418 63.6999C458.925 63.9913 459.317 64.3966 459.596 64.9159C459.875 65.4226 460.014 65.9863 460.014 66.6069C460.014 67.2403 459.868 67.8166 459.577 68.3359C459.298 68.8426 458.906 69.2416 458.399 69.5329C457.892 69.8243 457.316 69.9699 456.67 69.9699ZM464.213 63.3769H466.664L457.544 76.4299H455.093L464.213 63.3769ZM456.67 68.1269C457.037 68.1269 457.335 67.9939 457.563 67.7279C457.804 67.4493 457.924 67.0756 457.924 66.6069C457.924 66.1509 457.804 65.7836 457.563 65.5049C457.322 65.2263 457.025 65.0869 456.67 65.0869C456.303 65.0869 456.005 65.2263 455.777 65.5049C455.549 65.7709 455.435 66.1383 455.435 66.6069C455.435 67.0629 455.549 67.4303 455.777 67.7089C456.018 67.9876 456.315 68.1269 456.67 68.1269ZM465.049 76.6389C464.403 76.6389 463.827 76.4933 463.32 76.2019C462.813 75.8979 462.421 75.4926 462.142 74.9859C461.863 74.4666 461.724 73.8966 461.724 73.2759C461.724 72.6426 461.863 72.0726 462.142 71.5659C462.421 71.0466 462.813 70.6413 463.32 70.3499C463.839 70.0459 464.422 69.8939 465.068 69.8939C465.727 69.8939 466.303 70.0459 466.797 70.3499C467.304 70.6539 467.696 71.0656 467.975 71.5849C468.254 72.0916 468.393 72.6553 468.393 73.2759C468.393 73.8966 468.247 74.4666 467.956 74.9859C467.677 75.4926 467.285 75.8979 466.778 76.2019C466.271 76.4933 465.695 76.6389 465.049 76.6389ZM465.068 74.7959C465.423 74.7959 465.714 74.6629 465.942 74.3969C466.183 74.1183 466.303 73.7446 466.303 73.2759C466.303 72.8199 466.183 72.4526 465.942 72.1739C465.701 71.8953 465.404 71.7559 465.049 71.7559C464.682 71.7559 464.384 71.8889 464.156 72.1549C463.928 72.4209 463.814 72.7946 463.814 73.2759C463.814 73.7319 463.928 74.0993 464.156 74.3779C464.397 74.6566 464.701 74.7959 465.068 74.7959Z" fill="#0366BF"/>
<path d="M455.031 95.2839H448.78V92.3769H458.774V94.8279L453.625 105.43H449.977L455.031 95.2839ZM467.094 96.8989C467.904 96.8989 468.645 97.0699 469.317 97.4119C469.988 97.7539 470.52 98.2416 470.913 98.8749C471.305 99.4956 471.502 100.23 471.502 101.079C471.502 101.978 471.274 102.776 470.818 103.473C470.374 104.17 469.76 104.708 468.975 105.088C468.202 105.468 467.334 105.658 466.372 105.658C464.484 105.658 463.053 105.069 462.078 103.891C461.102 102.713 460.615 101.13 460.615 99.1409C460.615 97.7603 460.868 96.5443 461.375 95.4929C461.881 94.4416 462.603 93.6246 463.541 93.0419C464.491 92.4466 465.599 92.1489 466.866 92.1489C468.411 92.1489 469.779 92.6049 470.97 93.5169L469.469 95.9679C469.038 95.6386 468.62 95.3916 468.215 95.2269C467.822 95.0623 467.379 94.9799 466.885 94.9799C466.112 94.9799 465.479 95.2396 464.985 95.7589C464.503 96.2783 464.193 97.0066 464.054 97.9439C464.446 97.6146 464.909 97.3613 465.441 97.1839C465.973 96.9939 466.524 96.8989 467.094 96.8989ZM466.163 102.903C466.758 102.903 467.239 102.745 467.607 102.428C467.974 102.099 468.158 101.693 468.158 101.212C468.158 100.693 467.955 100.281 467.55 99.9769C467.157 99.6603 466.669 99.5019 466.087 99.5019C465.643 99.5019 465.238 99.6159 464.871 99.8439C464.516 100.072 464.244 100.382 464.054 100.775C464.155 101.51 464.37 102.048 464.7 102.39C465.029 102.732 465.517 102.903 466.163 102.903ZM476.921 98.9699C476.275 98.9699 475.699 98.8243 475.192 98.5329C474.686 98.2416 474.293 97.8426 474.014 97.3359C473.736 96.8166 473.596 96.2403 473.596 95.6069C473.596 94.9863 473.736 94.4226 474.014 93.9159C474.293 93.3966 474.679 92.9913 475.173 92.6999C475.68 92.3959 476.263 92.2439 476.921 92.2439C477.58 92.2439 478.163 92.3959 478.669 92.6999C479.176 92.9913 479.569 93.3966 479.847 93.9159C480.126 94.4226 480.265 94.9863 480.265 95.6069C480.265 96.2403 480.12 96.8166 479.828 97.3359C479.55 97.8426 479.157 98.2416 478.65 98.5329C478.144 98.8243 477.567 98.9699 476.921 98.9699ZM484.464 92.3769H486.915L477.795 105.43H475.344L484.464 92.3769ZM476.921 97.1269C477.289 97.1269 477.586 96.9939 477.814 96.7279C478.055 96.4493 478.175 96.0756 478.175 95.6069C478.175 95.1509 478.055 94.7836 477.814 94.5049C477.574 94.2263 477.276 94.0869 476.921 94.0869C476.554 94.0869 476.256 94.2263 476.028 94.5049C475.8 94.7709 475.686 95.1383 475.686 95.6069C475.686 96.0629 475.8 96.4303 476.028 96.7089C476.269 96.9876 476.567 97.1269 476.921 97.1269ZM485.3 105.639C484.654 105.639 484.078 105.493 483.571 105.202C483.065 104.898 482.672 104.493 482.393 103.986C482.115 103.467 481.975 102.897 481.975 102.276C481.975 101.643 482.115 101.073 482.393 100.566C482.672 100.047 483.065 99.6413 483.571 99.3499C484.091 99.0459 484.673 98.8939 485.319 98.8939C485.978 98.8939 486.554 99.0459 487.048 99.3499C487.555 99.6539 487.948 100.066 488.226 100.585C488.505 101.092 488.644 101.655 488.644 102.276C488.644 102.897 488.499 103.467 488.207 103.986C487.929 104.493 487.536 104.898 487.029 105.202C486.523 105.493 485.946 105.639 485.3 105.639ZM485.319 103.796C485.674 103.796 485.965 103.663 486.193 103.397C486.434 103.118 486.554 102.745 486.554 102.276C486.554 101.82 486.434 101.453 486.193 101.174C485.953 100.895 485.655 100.756 485.3 100.756C484.933 100.756 484.635 100.889 484.407 101.155C484.179 101.421 484.065 101.795 484.065 102.276C484.065 102.732 484.179 103.099 484.407 103.378C484.648 103.657 484.952 103.796 485.319 103.796Z" fill="#747474"/>
<path d="M17.7748 57.5935L8.49484 63.3535L3.05484 53.8335L20.4948 42.1535H31.4548V97.1135H17.7748V57.5935ZM45.1411 105.674C47.8078 103.434 49.5144 100.9 50.2611 98.0735C48.1278 98.0735 46.2611 97.2735 44.6611 95.6735C43.1144 94.0202 42.3411 92.1002 42.3411 89.9135C42.3411 87.6202 43.1411 85.6735 44.7411 84.0735C46.3944 82.4202 48.3144 81.5935 50.5011 81.5935C53.0078 81.5935 55.0344 82.6335 56.5811 84.7135C58.1811 86.7935 58.9811 89.4602 58.9811 92.7135C58.9811 95.3802 58.1811 98.1002 56.5811 100.874C55.0344 103.7 52.7678 106.474 49.7811 109.194L45.1411 105.674ZM88.8236 41.1935C96.7703 41.1935 102.797 43.6735 106.904 48.6335C111.01 53.5935 113.064 60.2602 113.064 68.6335C113.064 74.4469 111.997 79.5669 109.864 83.9935C107.73 88.4202 104.664 91.8869 100.664 94.3935C96.7169 96.8469 92.0769 98.0735 86.7436 98.0735C80.2369 98.0735 74.4769 96.1535 69.4636 92.3135L75.7836 81.9935C77.5969 83.3802 79.3303 84.4202 80.9836 85.1135C82.6903 85.8069 84.5836 86.1535 86.6636 86.1535C89.9169 86.1535 92.5569 85.0602 94.5836 82.8735C96.6636 80.6869 97.9969 77.6202 98.5836 73.6735C96.9303 75.0602 94.9836 76.1535 92.7436 76.9535C90.5036 77.7002 88.1836 78.0735 85.7836 78.0735C82.3703 78.0735 79.2503 77.3535 76.4236 75.9135C73.5969 74.4735 71.3569 72.4469 69.7036 69.8335C68.0503 67.1669 67.2236 64.0469 67.2236 60.4735C67.2236 56.6869 68.1569 53.3269 70.0236 50.3935C71.9436 47.4602 74.5303 45.1935 77.7836 43.5935C81.0903 41.9935 84.7703 41.1935 88.8236 41.1935ZM90.0236 67.1135C91.8903 67.1135 93.5703 66.6335 95.0636 65.6735C96.6103 64.7135 97.7836 63.4069 98.5836 61.7535C98.1569 58.6602 97.2503 56.3935 95.8636 54.9535C94.4769 53.5135 92.4236 52.7935 89.7036 52.7935C87.1969 52.7935 85.1703 53.4869 83.6236 54.8735C82.0769 56.2069 81.3036 57.8869 81.3036 59.9135C81.3036 62.1002 82.1303 63.8602 83.7836 65.1935C85.4903 66.4735 87.5703 67.1135 90.0236 67.1135ZM133.244 57.5935L123.964 63.3535L118.524 53.8335L135.964 42.1535H146.924V97.1135H133.244V57.5935ZM181.89 98.0735C177.037 98.0735 172.69 96.8735 168.85 94.4735C165.01 92.0202 161.997 88.6335 159.81 84.3135C157.677 79.9935 156.61 75.0869 156.61 69.5935C156.61 64.1002 157.677 59.2202 159.81 54.9535C161.997 50.6335 165.01 47.2735 168.85 44.8735C172.69 42.4202 177.037 41.1935 181.89 41.1935C186.797 41.1935 191.17 42.4202 195.01 44.8735C198.85 47.2735 201.837 50.6335 203.97 54.9535C206.157 59.2202 207.25 64.1002 207.25 69.5935C207.25 75.0869 206.157 79.9935 203.97 84.3135C201.837 88.6335 198.85 92.0202 195.01 94.4735C191.17 96.8735 186.797 98.0735 181.89 98.0735ZM181.89 85.6735C184.077 85.6735 186.023 84.9802 187.73 83.5935C189.437 82.2069 190.77 80.3135 191.73 77.9135C192.69 75.4602 193.17 72.6869 193.17 69.5935C193.17 66.5002 192.69 63.7535 191.73 61.3535C190.77 58.9002 189.437 57.0069 187.73 55.6735C186.023 54.2869 184.077 53.5935 181.89 53.5935C179.757 53.5935 177.837 54.2869 176.13 55.6735C174.423 57.0069 173.09 58.9002 172.13 61.3535C171.17 63.7535 170.69 66.5002 170.69 69.5935C170.69 72.6869 171.17 75.4602 172.13 77.9135C173.09 80.3135 174.423 82.2069 176.13 83.5935C177.837 84.9802 179.757 85.6735 181.89 85.6735Z" fill="#002626"/>
<path d="M14.3764 13.5959L16.0324 12.6419C17.0944 13.8839 18.1924 15.4859 18.5524 16.6919L16.7524 17.7539C16.4284 16.6019 15.4024 14.8739 14.3764 13.5959ZM8.52638 12.9299L10.0384 11.7239C11.1724 12.4439 12.4324 13.5419 13.0804 14.3339L11.4964 15.7199C10.8664 14.8739 9.60638 13.6679 8.52638 12.9299ZM5.77238 12.9299H8.05838L8.05838 16.2419C8.05838 16.8359 8.25638 16.9079 9.33638 16.9079C9.80438 16.9079 11.8204 16.9079 12.4324 16.9079C13.2784 16.9079 13.4224 16.6919 13.5304 15.3059C14.0164 15.6299 14.9524 15.9539 15.5824 16.0799C15.3124 18.3119 14.6464 18.8699 12.6304 18.8699C12.0544 18.8699 9.66038 18.8699 9.12038 18.8699C6.43838 18.8699 5.77238 18.2579 5.77238 16.2779L5.77238 12.9299ZM3.01838 13.1819L5.07038 13.5599C4.85438 15.1439 4.31438 16.9439 3.55838 18.1139L1.52438 17.2139C2.20838 16.2779 2.76638 14.6219 3.01838 13.1819ZM5.19638 3.02993L7.05038 2.16593C7.82438 3.06593 8.61638 4.25393 8.90438 5.13593L6.90638 6.10793C6.65438 5.26193 5.93438 3.98393 5.19638 3.02993ZM12.8464 2.11193L15.1144 3.02993C14.2684 4.46993 13.3504 6.03593 12.6124 7.04393L10.8664 6.21593C11.5684 5.11793 12.3964 3.40793 12.8464 2.11193ZM6.33038 7.65593L6.33038 9.90593L13.6384 9.90593V7.65593L6.33038 7.65593ZM3.99038 5.63993L16.1044 5.63993V11.9399L3.99038 11.9399L3.99038 5.63993ZM26.8324 2.57993L29.2984 2.57993C29.1364 5.60393 28.9024 14.3879 21.5404 18.9059C21.1624 18.3479 20.4604 17.6819 19.7224 17.1779C26.9584 13.1639 26.7064 4.93793 26.8324 2.57993ZM29.2264 3.04793C29.2804 4.61393 29.6584 13.5959 37.0384 17.0519C36.3544 17.5739 35.7064 18.2939 35.3824 18.8879C27.6244 15.0359 27.2824 5.11793 27.1384 3.26393L29.2264 3.04793ZM38.2264 11.5439H47.3344V13.2719H38.2264V11.5439ZM38.4424 5.18993L47.2804 5.18993V6.88193L38.4424 6.88193V5.18993ZM41.4664 10.2479L43.4644 10.6799C42.5824 12.5339 41.4124 14.7299 40.5484 16.1699L38.6584 15.5939C39.5044 14.2079 40.6924 11.9579 41.4664 10.2479ZM44.0224 12.7499L46.0024 12.9119C45.3544 16.6919 43.4644 18.2039 39.1804 19.0679C39.0544 18.4739 38.6584 17.7179 38.2984 17.2859C41.8804 16.8359 43.4464 15.7019 44.0224 12.7499ZM45.3004 2.36393L47.1184 3.08393C46.5244 3.89393 45.9484 4.72193 45.4804 5.27993L44.0944 4.64993C44.5084 4.01993 45.0124 3.04793 45.3004 2.36393ZM41.8624 2.12993H43.8424V10.4999H41.8624V2.12993ZM38.8744 3.08393L40.4224 2.43593C40.9084 3.11993 41.3584 4.03793 41.5204 4.68593L39.8644 5.40593C39.7384 4.77593 39.3244 3.82193 38.8744 3.08393ZM41.9164 6.03593L43.3204 6.88193C42.4204 8.30393 40.6924 9.86993 39.1804 10.7159C38.9284 10.2479 38.4604 9.52793 38.0644 9.13193C39.5224 8.53793 41.1424 7.25993 41.9164 6.03593ZM43.6624 6.55793C44.3104 6.86393 46.3624 8.06993 46.8664 8.41193L45.7144 9.90593C45.0484 9.23993 43.4464 7.96193 42.6544 7.40393L43.6624 6.55793ZM48.5224 5.40593L55.1284 5.40593V7.40393L48.5224 7.40393V5.40593ZM48.7204 2.12993L50.8984 2.43593C50.3404 6.16193 49.2604 9.61793 47.6044 11.8139C47.2624 11.4179 46.3804 10.6439 45.8944 10.2839C47.4064 8.44793 48.2884 5.35193 48.7204 2.12993ZM51.9784 6.62993L54.1924 6.82793C53.4184 12.9839 51.5644 16.8359 47.0104 19.1219C46.7944 18.5999 46.1644 17.6099 45.7684 17.1419C49.8724 15.3419 51.4384 11.9579 51.9784 6.62993ZM49.7464 7.00793C50.4664 11.5619 52.0504 15.4499 55.3624 17.1419C54.8584 17.5739 54.1744 18.4379 53.8504 19.0319C50.2324 16.8719 48.6664 12.6959 47.7844 7.31393L49.7464 7.00793ZM40.2424 15.6119L41.3944 14.1359C43.5184 14.9459 45.7684 16.2059 46.9924 17.1779L45.4984 18.7079C44.3464 17.6999 42.2584 16.4399 40.2424 15.6119Z" fill="#002626"/>
</svg>
