<svg fill="none" height="456" viewBox="0 0 328 456" width="328" xmlns="http://www.w3.org/2000/svg"><path d="m0 425.824h259.949v30h-259.949z" fill="#c2483d"/><path d="m.00097656 395.684h327.99902344v30h-327.99902344z" fill="#3b4bc4"/><path d="m21.5624 376.404c-9.36 0-17.03996-4.2-17.03996-11.88 0-4.74 3.12-8.28 7.73996-10.14-3.83996-1.74-6.65996-4.68-6.65996-9.36 0-7.32 7.61996-11.28 15.95996-11.28 8.52 0 16.02 4.08 16.02 11.28 0 4.5-2.64 7.5-6.72 9.36 4.8 2.04 7.8 5.58 7.8 10.14 0 7.74-7.8 11.88-17.1 11.88zm0-25.5c3-.18 5.88-1.92 5.88-4.44 0-2.4-2.34-4.26-5.88-4.26s-5.82 1.86-5.82 4.26c0 2.58 2.82 4.26 5.82 4.44zm0 16.98c3.9 0 6.72-1.8 6.72-4.5s-3.42-4.38-6.72-4.56c-3.3.18-6.66 1.86-6.66 4.56s2.7 4.5 6.66 4.5zm42.3193 7.8v-7.86h-19.98l-.9-7.8 18.66-25.5h12.48v24.78h5.22v8.52h-5.22v7.86zm-10.26-16.38h10.26v-14.16zm41.3367-4.02c-6.3 0-10.5-4.62-10.5-10.62 0-5.88 4.14-10.62 10.5-10.62 6.4196 0 10.5596 4.8 10.5596 10.62 0 6-4.32 10.62-10.5596 10.62zm-4.98 20.4 28.7996-41.22h7.74l-28.7996 41.22zm4.98-26.22c2.28 0 3.96-1.8 3.96-4.8 0-2.94-1.74-4.8-3.96-4.8-2.28 0-3.9 1.8-3.9 4.8 0 2.94 1.68 4.8 3.9 4.8zm26.4596 26.88c-6.3 0-10.5-4.74-10.5-10.62 0-6 4.26-10.68 10.56-10.68 6.36 0 10.5 4.8 10.5 10.68 0 5.94-4.32 10.62-10.56 10.62zm.06-5.82c2.22 0 3.9-1.8 3.9-4.8 0-2.94-1.74-4.8-3.96-4.8-2.28 0-3.9 1.74-3.9 4.8 0 2.94 1.68 4.8 3.96 4.8z" fill="#3b4bc4"/><path d="m2.56649 310.684v-12.366h2.664v12.366zm6.16078 0v-12.366h2.66403l5.958 7.992v-7.992h2.664v12.366h-2.664l-5.958-7.992v7.992zm20.03833 0v-12.366h5.562c2.7 0 4.662 1.728 4.662 4.176s-1.962 4.176-4.662 4.176h-2.898v4.014zm2.664-6.444h2.628c1.314 0 2.214-.684 2.214-1.746s-.9-1.746-2.214-1.746h-2.628zm19.7337-3.528h-6.858v2.466h6.228v2.394h-6.228v2.718h6.858v2.394h-9.522v-12.366h9.522zm13.1557 1.782c0 1.944-1.224 3.42-3.078 3.96l2.97 4.23h-3.024l-2.826-4.014h-1.602v4.014h-2.664v-12.366h5.562c2.7 0 4.662 1.728 4.662 4.176zm-7.56-1.746v3.492h2.628c1.314 0 2.214-.684 2.214-1.746s-.9-1.746-2.214-1.746zm14.9418 10.152c-2.16 0-4.05-.72-5.49-2.052l1.512-1.818c1.17 1.008 2.502 1.62 4.068 1.62 1.35 0 2.034-.612 2.034-1.386 0-.882-.72-1.152-2.61-1.584-2.61-.594-4.482-1.332-4.482-3.726 0-2.286 1.872-3.852 4.59-3.852 2.016 0 3.564.63 4.842 1.71l-1.386 1.926c-1.116-.9-2.358-1.386-3.546-1.386-1.116 0-1.818.594-1.818 1.332 0 .9.756 1.188 2.664 1.62 2.664.594 4.428 1.386 4.428 3.672 0 2.358-1.8 3.924-4.806 3.924zm13.3802 0c-3.564 0-6.588-2.934-6.588-6.408s3.024-6.39 6.588-6.39 6.552 2.916 6.552 6.39-2.988 6.408-6.552 6.408zm0-2.412c2.07 0 3.834-1.836 3.834-3.996 0-2.142-1.764-3.978-3.834-3.978-2.088 0-3.852 1.836-3.852 3.978 0 2.16 1.764 3.996 3.852 3.996zm9.3284 2.196v-12.366h2.664l5.9576 7.992v-7.992h2.664v12.366h-2.664l-5.9576-7.992v7.992z" fill="#002626"/><path d="m198.16 348.621c7.62 0 13.92 4.98 13.92 13.2 0 8.7-7.02 14.46-16.2 14.46-12.3 0-18.18-8.46-18.18-20.58 0-13.08 7.62-22.08 19.74-22.08 5.16 0 9.42 1.62 12.96 4.32l-4.74 7.74c-2.52-1.98-4.86-3.12-8.16-3.12-4.92 0-8.04 3.48-8.94 9.36 2.46-2.04 6-3.3 9.6-3.3zm-2.94 18.96c3.84 0 6.3-2.4 6.3-5.34 0-3.42-3-5.4-6.54-5.4-2.82 0-5.22 1.56-6.42 4.02.66 4.5 2.52 6.72 6.66 6.72zm31.575 7.98v-29.64l-6.96 4.32-4.08-7.14 13.08-8.76h8.22v41.22zm28.505-20.4c-6.3 0-10.5-4.62-10.5-10.62 0-5.88 4.14-10.62 10.5-10.62 6.42 0 10.56 4.8 10.56 10.62 0 6-4.32 10.62-10.56 10.62zm-4.98 20.4 28.8-41.22h7.74l-28.8 41.22zm4.98-26.22c2.28 0 3.96-1.8 3.96-4.8 0-2.94-1.74-4.8-3.96-4.8-2.28 0-3.9 1.8-3.9 4.8 0 2.94 1.68 4.8 3.9 4.8zm26.46 26.88c-6.3 0-10.5-4.74-10.5-10.62 0-6 4.26-10.68 10.56-10.68 6.36 0 10.5 4.8 10.5 10.68 0 5.94-4.32 10.62-10.56 10.62zm.06-5.82c2.22 0 3.9-1.8 3.9-4.8 0-2.94-1.74-4.8-3.96-4.8-2.28 0-3.9 1.74-3.9 4.8 0 2.94 1.68 4.8 3.96 4.8z" fill="#c2483d"/><path d="m191.752 301.072h-6.66v2.214h6.048v2.754h-6.048v4.644h-3.078v-12.366h9.738zm2.54 9.612v-12.366h3.078v12.366zm16.831 0h-3.492l-2.718-3.87h-1.224v3.87h-3.078v-12.366h5.742c2.736 0 4.698 1.746 4.698 4.248 0 1.89-1.116 3.348-2.862 3.96zm-7.434-9.558v2.88h2.394c1.062 0 1.8-.576 1.8-1.44s-.738-1.44-1.8-1.44zm14.886 9.774c-2.196 0-4.194-.72-5.706-2.07l1.746-2.07c1.206.99 2.556 1.566 4.068 1.566 1.152 0 1.746-.468 1.746-1.134 0-.738-.576-.9-2.376-1.332-2.646-.594-4.608-1.314-4.608-3.798 0-2.376 1.908-3.96 4.716-3.96 2.088 0 3.708.612 5.022 1.692l-1.566 2.196c-1.134-.864-2.376-1.314-3.528-1.314-.99 0-1.548.468-1.548 1.08 0 .756.594 1.008 2.43 1.404 2.772.594 4.554 1.386 4.554 3.708 0 2.484-1.89 4.032-4.95 4.032zm10.405-.216v-9.612h-3.744v-2.754h10.584v2.754h-3.762v9.612zm17.419 0v-9.612h-3.744v-2.754h10.584v2.754h-3.762v9.612zm9.256 0v-12.366h3.078v12.366zm6.319 0v-12.366h3.078l3.564 6.444 3.564-6.444h3.078v12.366h-3.078v-7.164l-3.564 6.444-3.564-6.444v7.164zm26.27-9.612h-6.66v1.926h6.048v2.754h-6.048v2.178h6.66v2.754h-9.738v-12.366h9.738zm13.316 9.612h-3.492l-2.718-3.87h-1.224v3.87h-3.078v-12.366h5.742c2.736 0 4.698 1.746 4.698 4.248 0 1.89-1.116 3.348-2.862 3.96zm-7.434-9.558v2.88h2.394c1.062 0 1.8-.576 1.8-1.44s-.738-1.44-1.8-1.44zm14.886 9.774c-2.196 0-4.194-.72-5.706-2.07l1.746-2.07c1.206.99 2.556 1.566 4.068 1.566 1.152 0 1.746-.468 1.746-1.134 0-.738-.576-.9-2.376-1.332-2.646-.594-4.608-1.314-4.608-3.798 0-2.376 1.908-3.96 4.716-3.96 2.088 0 3.708.612 5.022 1.692l-1.566 2.196c-1.134-.864-2.376-1.314-3.528-1.314-.99 0-1.548.468-1.548 1.08 0 .756.594 1.008 2.43 1.404 2.772.594 4.554 1.386 4.554 3.708 0 2.484-1.89 4.032-4.95 4.032z" fill="#002626"/><path d="m95.7104 225.684h12.9606v30h-12.9606z" fill="#3b4bc4"/><path d="m1 225.684h94.7104v30h-94.7104z" fill="#38982f"/><path d="m108.671 225.684h219.329v30h-219.329z" fill="#d0d0d0"/><path d="m58.9159 113.692h1.248l4.08 7.664 4.08-7.664h1.248v10.992h-1.248v-8.304l-4.08 7.664-4.08-7.664v8.304h-1.248zm15.7246 1.184v3.616h5.968v1.184h-5.968v3.824h6.624v1.184h-7.888v-10.992h7.888v1.184zm9.5872-1.184h1.248l6.816 8.944v-8.944h1.2481v10.992h-1.2481l-6.816-8.944v8.944h-1.248zm-26.5758 29h1.408l3.04 8.896 2.912-8.896h1.392l2.912 8.896 3.04-8.896h1.408l-3.76 10.992h-1.232l-3.056-9.36-3.072 9.36h-1.232zm23.4461 11.184c-.992 0-1.9253-.256-2.8-.768-.864-.523-1.552-1.222-2.064-2.096-.512-.875-.768-1.819-.768-2.832 0-1.014.256-1.952.768-2.816.512-.875 1.2-1.568 2.064-2.08.8747-.523 1.808-.784 2.8-.784 1.0027 0 1.9307.261 2.784.784.864.512 1.552 1.205 2.064 2.08.512.864.768 1.802.768 2.816 0 1.013-.256 1.957-.768 2.832-.512.874-1.2 1.573-2.064 2.096-.8533.512-1.7813.768-2.784.768zm0-1.152c.7787 0 1.4987-.208 2.16-.624.672-.416 1.2053-.971 1.6-1.664.3947-.694.592-1.446.592-2.256 0-.8-.1973-1.547-.592-2.24-.3947-.704-.928-1.259-1.6-1.664-.6613-.416-1.3813-.624-2.16-.624s-1.504.208-2.176.624c-.6613.405-1.1947.96-1.6 1.664-.3947.693-.592 1.44-.592 2.24 0 .81.1973 1.562.592 2.256.4053.693.9387 1.248 1.6 1.664.672.416 1.3973.624 2.176.624zm8.5985-10.032h1.248l4.08 7.664 4.08-7.664h1.2475v10.992h-1.2475v-8.304l-4.08 7.664-4.08-7.664v8.304h-1.248zm15.7245 1.184v3.616h5.968v1.184h-5.968v3.824h6.624v1.184h-7.888v-10.992h7.888v1.184zm9.587-1.184h1.248l6.816 8.944v-8.944h1.248v10.992h-1.248l-6.816-8.944v8.944h-1.248zm-56.0921 29h1.248l6.816 8.944v-8.944h1.248v10.992h-1.248l-6.816-8.944v8.944h-1.248zm17.9009 11.184c-.992 0-1.9254-.256-2.8001-.768-.864-.523-1.552-1.222-2.064-2.096-.512-.875-.768-1.819-.768-2.832 0-1.014.256-1.952.768-2.816.512-.875 1.2-1.568 2.064-2.08.8747-.523 1.8081-.784 2.8001-.784 1.0026 0 1.9306.261 2.7839.784.8641.512 1.5521 1.205 2.0641 2.08.512.864.768 1.802.768 2.816 0 1.013-.256 1.957-.768 2.832-.512.874-1.2 1.573-2.0641 2.096-.8533.512-1.7813.768-2.7839.768zm0-1.152c.7786 0 1.4986-.208 2.16-.624.6719-.416 1.2053-.971 1.5999-1.664.3947-.694.592-1.446.592-2.256 0-.8-.1973-1.547-.592-2.24-.3946-.704-.928-1.259-1.5999-1.664-.6614-.416-1.3814-.624-2.16-.624-.7787 0-1.5041.208-2.1761.624-.6613.405-1.1946.96-1.6 1.664-.3946.693-.592 1.44-.592 2.24 0 .81.1974 1.562.592 2.256.4054.693.9387 1.248 1.6 1.664.672.416 1.3974.624 2.1761.624zm8.5984-10.032h1.248l6.816 8.944v-8.944h1.2481v10.992h-1.2481l-6.816-8.944v8.944h-1.248zm12.7489 6.064h4.1439v1.168h-4.1439zm7.5789-6.064h5.04c.586 0 1.109.117 1.568.352.458.234.816.56 1.072.976s.384.885.384 1.408c0 .554-.134 1.018-.4 1.392-.256.373-.646.714-1.168 1.024.64.32 1.13.725 1.472 1.216.352.48.528 1.018.528 1.616 0 .576-.139 1.093-.416 1.552-.278.458-.667.816-1.168 1.072-.491.256-1.051.384-1.68.384h-5.232zm4.72 4.656c.608 0 1.104-.166 1.488-.496.394-.331.592-.752.592-1.264s-.198-.934-.592-1.264c-.384-.331-.88-.496-1.488-.496h-3.472v3.52zm.192 5.2c.682 0 1.237-.187 1.664-.56.437-.384.656-.875.656-1.472 0-.598-.219-1.083-.656-1.456-.427-.384-.982-.576-1.664-.576h-3.664v4.064zm6.658-9.856h1.248v10.992h-1.248zm5.054 0h1.248l6.816 8.944v-8.944h1.248v10.992h-1.248l-6.816-8.944v8.944h-1.248zm20.365 8.496h-6.128l-1.104 2.496h-1.36l4.848-10.992h1.36l4.848 10.992h-1.36zm-.512-1.184-2.544-5.776-2.56 5.776zm13.955-3.792c0 .608-.149 1.162-.448 1.664-.288.501-.693.912-1.216 1.232-.522.32-1.109.517-1.76.592l2.8 3.984h-1.424l-2.784-3.952h-2.432v3.952h-1.248v-10.992h4.464c.747 0 1.43.149 2.048.448.619.298 1.104.72 1.456 1.264.363.533.544 1.136.544 1.808zm-7.264 2.336h2.992c.907 0 1.632-.208 2.176-.624.555-.416.832-.987.832-1.712 0-.726-.277-1.296-.832-1.712-.544-.416-1.269-.624-2.176-.624h-2.992zm13.111.656-4.432-6.512h1.552l3.536 5.328 3.568-5.328h1.504l-4.416 6.512v4.48h-1.312zm11.966-7.408h1.36l-5.616 13.072h-1.36zm8.201 12.08c-.992 0-1.926-.256-2.8-.768-.864-.523-1.552-1.222-2.064-2.096-.512-.875-.768-1.819-.768-2.832 0-1.014.256-1.952.768-2.816.512-.875 1.2-1.568 2.064-2.08.874-.523 1.808-.784 2.8-.784 1.002 0 1.93.261 2.784.784.864.512 1.552 1.205 2.064 2.08.512.864.768 1.802.768 2.816 0 1.013-.256 1.957-.768 2.832-.512.874-1.2 1.573-2.064 2.096-.854.512-1.782.768-2.784.768zm0-1.152c.778 0 1.498-.208 2.16-.624.672-.416 1.205-.971 1.6-1.664.394-.694.592-1.446.592-2.256 0-.8-.198-1.547-.592-2.24-.395-.704-.928-1.259-1.6-1.664-.662-.416-1.382-.624-2.16-.624-.779 0-1.504.208-2.176.624-.662.405-1.195.96-1.6 1.664-.395.693-.592 1.44-.592 2.24 0 .81.197 1.562.592 2.256.405.693.938 1.248 1.6 1.664.672.416 1.397.624 2.176.624zm10.95-8.848h-3.696v-1.184h8.64v1.184h-3.696v9.808h-1.248zm16.382-1.184v10.992h-1.248v-5.008h-6.48v5.008h-1.248v-10.992h1.248v4.8h6.48v-4.8zm5.076 1.184v3.616h5.968v1.184h-5.968v3.824h6.624v1.184h-7.888v-10.992h7.888v1.184zm18.1 2.336c0 .608-.15 1.162-.448 1.664-.288.501-.694.912-1.216 1.232-.523.32-1.11.517-1.76.592l2.8 3.984h-1.424l-2.784-3.952h-2.432v3.952h-1.248v-10.992h4.464c.746 0 1.429.149 2.048.448.618.298 1.104.72 1.456 1.264.362.533.544 1.136.544 1.808zm-7.264 2.336h2.992c.906 0 1.632-.208 2.176-.624.554-.416.832-.987.832-1.712 0-.726-.278-1.296-.832-1.712-.544-.416-1.27-.624-2.176-.624h-2.992zm19.501-.656h4.4v4.304c-.512.512-1.163.922-1.952 1.232-.779.298-1.552.448-2.32.448-.992 0-1.926-.256-2.8-.768-.864-.523-1.552-1.222-2.064-2.096-.512-.875-.768-1.819-.768-2.832 0-1.014.256-1.952.768-2.816.512-.875 1.2-1.568 2.064-2.08.874-.523 1.808-.784 2.8-.784.768 0 1.546.154 2.336.464.789.298 1.434.704 1.936 1.216l-.848.864c-.395-.416-.912-.752-1.552-1.008s-1.264-.384-1.872-.384c-.779 0-1.504.208-2.176.624-.662.405-1.195.96-1.6 1.664-.395.693-.592 1.44-.592 2.24 0 .81.197 1.562.592 2.256.405.693.938 1.248 1.6 1.664.672.416 1.397.624 2.176.624.512 0 1.04-.091 1.584-.272.554-.192 1.034-.443 1.44-.752v-2.624h-3.152zm8.928-4.016v3.616h5.968v1.184h-5.968v3.824h6.624v1.184h-7.888v-10.992h7.888v1.184zm9.587-1.184h1.248l6.816 8.944v-8.944h1.248v10.992h-1.248l-6.816-8.944v8.944h-1.248zm13.117 0h3.712c1.152 0 2.176.234 3.072.704.907.469 1.611 1.12 2.112 1.952.512.832.768 1.776.768 2.832s-.256 2.005-.768 2.848c-.501.832-1.205 1.482-2.112 1.952-.896.469-1.92.704-3.072.704h-3.712zm3.712 9.856c.907 0 1.712-.187 2.416-.56.715-.374 1.269-.891 1.664-1.552.405-.662.608-1.414.608-2.256 0-.843-.203-1.59-.608-2.24-.395-.662-.949-1.179-1.664-1.552-.704-.374-1.509-.56-2.416-.56h-2.464v8.72zm10.169-8.672v3.616h5.968v1.184h-5.968v3.824h6.624v1.184h-7.888v-10.992h7.888v1.184zm18.099 2.336c0 .608-.149 1.162-.448 1.664-.288.501-.693.912-1.216 1.232s-1.109.517-1.76.592l2.8 3.984h-1.424l-2.784-3.952h-2.432v3.952h-1.248v-10.992h4.464c.747 0 1.429.149 2.048.448.619.298 1.104.72 1.456 1.264.363.533.544 1.136.544 1.808zm-7.264 2.336h2.992c.907 0 1.632-.208 2.176-.624.555-.416.832-.987.832-1.712 0-.726-.277-1.296-.832-1.712-.544-.416-1.269-.624-2.176-.624h-2.992zm13.447 5.312c-1.707 0-3.152-.582-4.336-1.744l.784-.976c.501.501 1.045.89 1.632 1.168.587.277 1.243.416 1.968.416.544 0 1.008-.086 1.392-.256.384-.182.672-.416.864-.704.203-.299.304-.619.304-.96 0-.555-.235-.976-.704-1.264-.459-.299-1.211-.571-2.256-.816-.8-.192-1.461-.406-1.984-.64-.512-.235-.912-.55-1.2-.944-.277-.406-.416-.912-.416-1.52 0-.576.16-1.104.48-1.584s.757-.854 1.312-1.12c.565-.278 1.195-.416 1.888-.416.779 0 1.477.138 2.096.416.629.266 1.216.65 1.76 1.152l-.768.976c-.469-.448-.971-.795-1.504-1.04-.533-.246-1.083-.368-1.648-.368-.437 0-.837.085-1.2.256-.363.17-.645.405-.848.704-.203.288-.304.597-.304.928 0 .522.229.922.688 1.2.459.266 1.216.528 2.272.784 1.173.277 2.064.656 2.672 1.136.619.469.928 1.152.928 2.048 0 .597-.149 1.136-.448 1.616-.288.48-.725.858-1.312 1.136-.587.277-1.291.416-2.112.416zm-255.8131 17.832h4.464c.7466 0 1.4293.149 2.048.448.6186.298 1.104.72 1.456 1.264.3626.533.544 1.136.544 1.808s-.1814 1.28-.544 1.824c-.352.533-.8374.949-1.456 1.248-.6187.298-1.3014.448-2.048.448h-3.216v3.952h-1.248zm4.24 5.856c.9066 0 1.632-.208 2.176-.624.5546-.416.832-.987.832-1.712 0-.726-.2774-1.296-.832-1.712-.544-.416-1.2694-.624-2.176-.624h-2.992v4.672zm15.5451-2.336c0 .608-.1493 1.162-.448 1.664-.288.501-.6933.912-1.216 1.232s-1.1093.517-1.76.592l2.8 3.984h-1.424l-2.784-3.952h-2.432v3.952h-1.248v-10.992h4.464c.7467 0 1.4293.149 2.048.448.6187.298 1.104.72 1.456 1.264.3627.533.544 1.136.544 1.808zm-7.264 2.336h2.992c.9067 0 1.632-.208 2.176-.624.5547-.416.832-.987.832-1.712 0-.726-.2773-1.296-.832-1.712-.544-.416-1.2693-.624-2.176-.624h-2.992zm11.3829-4.672v3.616h5.968v1.184h-5.968v3.824h6.624v1.184h-7.888v-10.992h7.888v1.184zm10.8512 0v3.616h5.968v1.184h-5.968v5.008h-1.264v-10.992h7.8879v1.184zm10.5389 0v3.616h5.968v1.184h-5.968v3.824h6.624v1.184h-7.888v-10.992h7.888v1.184zm18.099 2.336c0 .608-.149 1.162-.448 1.664-.288.501-.693.912-1.216 1.232s-1.109.517-1.76.592l2.8 3.984h-1.424l-2.784-3.952h-2.432v3.952h-1.248v-10.992h4.464c.747 0 1.429.149 2.048.448.619.298 1.104.72 1.456 1.264.363.533.544 1.136.544 1.808zm-7.264 2.336h2.992c.907 0 1.632-.208 2.176-.624.555-.416.832-.987.832-1.712 0-.726-.277-1.296-.832-1.712-.544-.416-1.269-.624-2.176-.624h-2.992zm14.845-5.856h1.248l6.816 8.944v-8.944h1.248v10.992h-1.248l-6.816-8.944v8.944h-1.248zm17.901 11.184c-.992 0-1.925-.256-2.8-.768-.864-.523-1.552-1.222-2.064-2.096-.512-.875-.768-1.819-.768-2.832 0-1.014.256-1.952.768-2.816.512-.875 1.2-1.568 2.064-2.08.875-.523 1.808-.784 2.8-.784 1.003 0 1.931.261 2.784.784.864.512 1.552 1.205 2.064 2.08.512.864.768 1.802.768 2.816 0 1.013-.256 1.957-.768 2.832-.512.874-1.2 1.573-2.064 2.096-.853.512-1.781.768-2.784.768zm0-1.152c.779 0 1.499-.208 2.16-.624.672-.416 1.205-.971 1.6-1.664.395-.694.592-1.446.592-2.256 0-.8-.197-1.547-.592-2.24-.395-.704-.928-1.259-1.6-1.664-.661-.416-1.381-.624-2.16-.624s-1.504.208-2.176.624c-.661.405-1.195.96-1.6 1.664-.395.693-.592 1.44-.592 2.24 0 .81.197 1.562.592 2.256.405.693.939 1.248 1.6 1.664.672.416 1.397.624 2.176.624zm10.951-8.848h-3.696v-1.184h8.64v1.184h-3.696v9.808h-1.248zm14.483 0h-3.696v-1.184h8.64v1.184h-3.696v9.808h-1.248zm12.19 10c-.992 0-1.925-.256-2.8-.768-.864-.523-1.552-1.222-2.064-2.096-.512-.875-.768-1.819-.768-2.832 0-1.014.256-1.952.768-2.816.512-.875 1.2-1.568 2.064-2.08.875-.523 1.808-.784 2.8-.784 1.003 0 1.931.261 2.784.784.864.512 1.552 1.205 2.064 2.08.512.864.768 1.802.768 2.816 0 1.013-.256 1.957-.768 2.832-.512.874-1.2 1.573-2.064 2.096-.853.512-1.781.768-2.784.768zm0-1.152c.779 0 1.499-.208 2.16-.624.672-.416 1.205-.971 1.6-1.664.395-.694.592-1.446.592-2.256 0-.8-.197-1.547-.592-2.24-.395-.704-.928-1.259-1.6-1.664-.661-.416-1.381-.624-2.16-.624s-1.504.208-2.176.624c-.661.405-1.195.96-1.6 1.664-.395.693-.592 1.44-.592 2.24 0 .81.197 1.562.592 2.256.405.693.939 1.248 1.6 1.664.672.416 1.397.624 2.176.624zm20.573-1.536h-6.128l-1.104 2.496h-1.36l4.848-10.992h1.36l4.848 10.992h-1.36zm-.512-1.184-2.544-5.776-2.56 5.776zm5.443-7.312h1.248l6.816 8.944v-8.944h1.248v10.992h-1.248l-6.816-8.944v8.944h-1.248zm16.445 11.168c-1.707 0-3.152-.582-4.336-1.744l.784-.976c.501.501 1.045.89 1.632 1.168.587.277 1.243.416 1.968.416.544 0 1.008-.086 1.392-.256.384-.182.672-.416.864-.704.203-.299.304-.619.304-.96 0-.555-.235-.976-.704-1.264-.459-.299-1.211-.571-2.256-.816-.8-.192-1.461-.406-1.984-.64-.512-.235-.912-.55-1.2-.944-.277-.406-.416-.912-.416-1.52 0-.576.16-1.104.48-1.584s.757-.854 1.312-1.12c.565-.278 1.195-.416 1.888-.416.779 0 1.477.138 2.096.416.629.266 1.216.65 1.76 1.152l-.768.976c-.469-.448-.971-.795-1.504-1.04-.533-.246-1.083-.368-1.648-.368-.437 0-.837.085-1.2.256-.363.17-.645.405-.848.704-.203.288-.304.597-.304.928 0 .522.229.922.688 1.2.459.266 1.216.528 2.272.784 1.173.277 2.064.656 2.672 1.136.619.469.928 1.152.928 2.048 0 .597-.149 1.136-.448 1.616-.288.48-.725.858-1.312 1.136-.587.277-1.291.416-2.112.416zm5.525-11.168h1.408l3.04 8.896 2.912-8.896h1.392l2.912 8.896 3.04-8.896h1.408l-3.76 10.992h-1.232l-3.056-9.36-3.072 9.36h-1.232zm19.926 1.184v3.616h5.968v1.184h-5.968v3.824h6.624v1.184h-7.888v-10.992h7.888v1.184zm18.099 2.336c0 .608-.149 1.162-.448 1.664-.288.501-.693.912-1.216 1.232s-1.109.517-1.76.592l2.8 3.984h-1.424l-2.784-3.952h-2.432v3.952h-1.248v-10.992h4.464c.747 0 1.429.149 2.048.448.619.298 1.104.72 1.456 1.264.363.533.544 1.136.544 1.808zm-7.264 2.336h2.992c.907 0 1.632-.208 2.176-.624.555-.416.832-.987.832-1.712 0-.726-.277-1.296-.832-1.712-.544-.416-1.269-.624-2.176-.624h-2.992z" fill="#002626"/><path d="m9.15647 117.298-2.204 1.368-1.292-2.261 4.142-2.774h2.60303v13.053h-3.24903zm10.94543-3.895c1.8874 0 3.3187.589 4.2941 1.767.9753 1.178 1.4629 2.761 1.4629 4.75 0 1.38-.2533 2.596-.7599 3.648-.5067 1.051-1.2351 1.874-2.185 2.47-.9374.582-2.0394.874-3.3061.874-1.5453 0-2.9133-.456-4.104-1.368l1.501-2.451c.4307.329.8424.576 1.235.741.4054.164.855.247 1.349.247.7727 0 1.3997-.26 1.881-.779.494-.52.8107-1.248.95-2.185-.3926.329-.855.589-1.387.779-.532.177-1.083.266-1.653.266-.8106 0-1.5516-.171-2.223-.513-.6713-.342-1.2033-.824-1.596-1.444-.3926-.634-.589-1.375-.589-2.223 0-.9.2217-1.698.665-2.394.456-.697 1.0704-1.235 1.843-1.615.7854-.38 1.6594-.57 2.622-.57zm.285 6.156c.4434 0 .8424-.114 1.197-.342.3674-.228.646-.539.836-.931-.1013-.735-.3166-1.273-.646-1.615-.3293-.342-.817-.513-1.463-.513-.5953 0-1.0766.164-1.444.494-.3673.316-.551.715-.551 1.197 0 .519.1964.937.589 1.254.4054.304.8994.456 1.482.456zm11.0248.665c-.646 0-1.2223-.146-1.729-.437-.5067-.292-.8993-.691-1.178-1.197-.2787-.52-.418-1.096-.418-1.729 0-.621.1393-1.185.418-1.691.2787-.52.665-.925 1.159-1.216.5067-.304 1.0893-.456 1.748-.456s1.2413.152 1.748.456c.5067.291.8993.696 1.178 1.216.2787.506.418 1.07.418 1.691 0 .633-.1457 1.209-.437 1.729-.2787.506-.6713.905-1.178 1.197-.5067.291-1.083.437-1.729.437zm7.543-6.593h2.451l-9.12 13.053h-2.451zm-7.543 4.75c.3673 0 .665-.133.893-.399.2407-.279.361-.653.361-1.121 0-.456-.1203-.824-.361-1.102-.2407-.279-.5383-.418-.893-.418-.3673 0-.665.139-.893.418-.228.266-.342.633-.342 1.102 0 .456.114.823.342 1.102.2407.278.5383.418.893.418zm8.379 8.512c-.646 0-1.2223-.146-1.729-.437-.5067-.304-.8993-.71-1.178-1.216-.2787-.52-.418-1.09-.418-1.71 0-.634.1393-1.204.418-1.71.2787-.52.6713-.925 1.178-1.216.5193-.304 1.102-.456 1.748-.456.6587 0 1.235.152 1.729.456.5067.304.8993.715 1.178 1.235.2787.506.418 1.07.418 1.691 0 .62-.1457 1.19-.437 1.71-.2787.506-.6713.912-1.178 1.216-.5067.291-1.083.437-1.729.437zm.019-1.843c.3547 0 .646-.133.874-.399.2407-.279.361-.653.361-1.121 0-.456-.1203-.824-.361-1.102-.2407-.279-.5383-.418-.893-.418-.3673 0-.665.133-.893.399s-.342.639-.342 1.121c0 .456.114.823.342 1.102.2407.278.5447.418.912.418z" fill="#38982f"/><path d="m20.5654 155.931c-2.0774 0-3.8064-.659-5.187-1.976l1.862-2.299c.5193.456 1.064.817 1.634 1.083.57.253 1.14.38 1.71.38.6586 0 1.178-.159 1.558-.475.38-.33.57-.735.57-1.216 0-.494-.19-.887-.57-1.178-.3674-.292-.874-.437-1.52-.437-.8994 0-1.7037.272-2.413.817l-2.147-.836.19-7.163h8.987v2.907h-6.004l-.076 2.375c.6966-.507 1.5263-.76 2.489-.76.7726 0 1.4883.164 2.147.494.6586.329 1.1843.81 1.577 1.444.3926.62.589 1.361.589 2.223 0 .937-.2217 1.754-.665 2.451-.4434.696-1.0704 1.235-1.881 1.615-.8107.367-1.7607.551-2.85.551zm10.8463-6.707c-.646 0-1.2223-.146-1.729-.437-.5067-.292-.8993-.691-1.178-1.197-.2787-.52-.418-1.096-.418-1.729 0-.621.1393-1.185.418-1.691.2787-.52.665-.925 1.159-1.216.5067-.304 1.0893-.456 1.748-.456s1.2413.152 1.748.456c.5067.291.8993.696 1.178 1.216.2787.506.418 1.07.418 1.691 0 .633-.1457 1.209-.437 1.729-.2787.506-.6713.905-1.178 1.197-.5067.291-1.083.437-1.729.437zm7.543-6.593h2.451l-9.12 13.053h-2.451zm-7.543 4.75c.3673 0 .665-.133.893-.399.2407-.279.361-.653.361-1.121 0-.456-.1203-.824-.361-1.102-.2407-.279-.5383-.418-.893-.418-.3673 0-.665.139-.893.418-.228.266-.342.633-.342 1.102 0 .456.114.823.342 1.102.2407.278.5383.418.893.418zm8.379 8.512c-.646 0-1.2223-.146-1.729-.437-.5067-.304-.8993-.71-1.178-1.216-.2787-.52-.418-1.09-.418-1.71 0-.634.1393-1.204.418-1.71.2787-.52.6713-.925 1.178-1.216.5193-.304 1.102-.456 1.748-.456.6587 0 1.235.152 1.729.456.5067.304.8993.715 1.178 1.235.2787.506.418 1.07.418 1.691 0 .62-.1457 1.19-.437 1.71-.2787.506-.6713.912-1.178 1.216-.5067.291-1.083.437-1.729.437zm.019-1.843c.3547 0 .646-.133.874-.399.2407-.279.361-.653.361-1.121 0-.456-.1203-.824-.361-1.102-.2407-.279-.5383-.418-.893-.418-.3673 0-.665.133-.893.399s-.342.639-.342 1.121c0 .456.114.823.342 1.102.2407.278.5447.418.912.418z" fill="#3b4bc4"/><path d="m7.40119 179.44v-2.565l8.94901-3.724v2.546l-6.47901 2.47 6.47901 2.432v2.565zm14.60401-4.142-2.204 1.368-1.292-2.261 4.142-2.774h2.603v13.053h-3.249zm9.4065 2.926c-.646 0-1.2223-.146-1.729-.437-.5067-.292-.8993-.691-1.178-1.197-.2787-.52-.418-1.096-.418-1.729 0-.621.1393-1.185.418-1.691.2787-.52.665-.925 1.159-1.216.5067-.304 1.0893-.456 1.748-.456s1.2413.152 1.748.456c.5067.291.8993.696 1.178 1.216.2787.506.418 1.07.418 1.691 0 .633-.1457 1.209-.437 1.729-.2787.506-.6713.905-1.178 1.197-.5067.291-1.083.437-1.729.437zm7.543-6.593h2.451l-9.12 13.053h-2.451zm-7.543 4.75c.3673 0 .665-.133.893-.399.2407-.279.361-.653.361-1.121 0-.456-.1203-.824-.361-1.102-.2407-.279-.5383-.418-.893-.418-.3673 0-.665.139-.893.418-.228.266-.342.633-.342 1.102 0 .456.114.823.342 1.102.2407.278.5383.418.893.418zm8.379 8.512c-.646 0-1.2223-.146-1.729-.437-.5067-.304-.8993-.71-1.178-1.216-.2787-.52-.418-1.09-.418-1.71 0-.634.1393-1.204.418-1.71.2787-.52.6713-.925 1.178-1.216.5193-.304 1.102-.456 1.748-.456.6587 0 1.235.152 1.729.456.5067.304.8993.715 1.178 1.235.2787.506.418 1.07.418 1.691 0 .62-.1457 1.19-.437 1.71-.2787.506-.6713.912-1.178 1.216-.5067.291-1.083.437-1.729.437zm.019-1.843c.3547 0 .646-.133.874-.399.2407-.279.361-.653.361-1.121 0-.456-.1203-.824-.361-1.102-.2407-.279-.5383-.418-.893-.418-.3673 0-.665.133-.893.399s-.342.639-.342 1.121c0 .456.114.823.342 1.102.2407.278.5447.418.912.418z" fill="#0366bf"/><path d="m9.52147 203.538h-6.251v-2.907h9.99403v2.451l-5.14903 10.602h-3.648zm12.06243 1.615c.8107 0 1.5517.171 2.223.513.6714.342 1.2034.829 1.596 1.463.3927.62.5891 1.355.5891 2.204 0 .899-.2281 1.697-.6841 2.394-.4433.696-1.0576 1.235-1.843 1.615-.7726.38-1.6403.57-2.603.57-1.8873 0-3.3186-.589-4.294-1.767-.9753-1.178-1.463-2.762-1.463-4.75 0-1.381.2534-2.597.76-3.648.5067-1.052 1.2287-1.869 2.166-2.451.95-.596 2.0584-.893 3.325-.893 1.5454 0 2.9134.456 4.1041 1.368l-1.501 2.451c-.4307-.33-.8487-.577-1.2541-.741-.3926-.165-.8359-.247-1.3299-.247-.7727 0-1.4061.259-1.9001.779-.4813.519-.7916 1.247-.931 2.185.3927-.33.855-.583 1.387-.76.532-.19 1.083-.285 1.653-.285zm-.931 6.004c.5954 0 1.0767-.159 1.444-.475.3674-.33.5511-.735.5511-1.216 0-.52-.2027-.931-.6081-1.235-.3926-.317-.8803-.475-1.463-.475-.4433 0-.8486.114-1.216.342-.3546.228-.627.538-.817.931.1014.734.3167 1.273.646 1.615.3294.342.817.513 1.463.513zm10.7588-3.933c-.646 0-1.2223-.146-1.729-.437-.5067-.292-.8993-.691-1.178-1.197-.2787-.52-.418-1.096-.418-1.729 0-.621.1393-1.185.418-1.691.2787-.52.665-.925 1.159-1.216.5067-.304 1.0893-.456 1.748-.456s1.2413.152 1.748.456c.5067.291.8993.696 1.178 1.216.2787.506.418 1.07.418 1.691 0 .633-.1457 1.209-.437 1.729-.2787.506-.6713.905-1.178 1.197-.5067.291-1.083.437-1.729.437zm7.543-6.593h2.451l-9.12 13.053h-2.451zm-7.543 4.75c.3673 0 .665-.133.893-.399.2407-.279.361-.653.361-1.121 0-.456-.1203-.824-.361-1.102-.2407-.279-.5383-.418-.893-.418-.3673 0-.665.139-.893.418-.228.266-.342.633-.342 1.102 0 .456.114.823.342 1.102.2407.278.5383.418.893.418zm8.379 8.512c-.646 0-1.2223-.146-1.729-.437-.5067-.304-.8993-.71-1.178-1.216-.2787-.52-.418-1.09-.418-1.71 0-.634.1393-1.204.418-1.71.2787-.52.6713-.925 1.178-1.216.5193-.304 1.102-.456 1.748-.456.6587 0 1.235.152 1.729.456.5067.304.8993.715 1.178 1.235.2787.506.418 1.07.418 1.691 0 .62-.1457 1.19-.437 1.71-.2787.506-.6713.912-1.178 1.216-.5067.291-1.083.437-1.729.437zm.019-1.843c.3547 0 .646-.133.874-.399.2407-.279.361-.653.361-1.121 0-.456-.1203-.824-.361-1.102-.2407-.279-.5383-.418-.893-.418-.3673 0-.665.133-.893.399s-.342.639-.342 1.121c0 .456.114.823.342 1.102.2407.278.5447.418.912.418z" fill="#747474"/><g fill="#002626"><path d="m12.6529 77.6836v-29.64l-6.95999 4.32-4.08-7.14 13.07999-8.76h8.22v41.22zm24.0047 9.06-3.48-2.64c1.98-1.68 3.3-3.72 3.84-5.7-3.24 0-5.94-2.82-5.94-6.12 0-3.42 2.82-6.24 6.12-6.24 3.78 0 6.36 3.48 6.36 8.34 0 3.96-2.4 8.28-6.9 12.36zm29.2819-51c12.3 0 18.18 8.46 18.18 20.58 0 13.08-7.62 22.08-19.74 22.08-5.16 0-9.42-1.62-12.96-4.32l4.74-7.74c2.52 1.98 4.86 3.12 8.16 3.12 4.92 0 8.04-3.48 8.94-9.36-2.46 2.04-6 3.3-9.6 3.3-7.62 0-13.92-4.98-13.92-13.2 0-8.7 7.02-14.46 16.2-14.46zm.9 19.44c2.82 0 5.22-1.56 6.42-4.02-.66-4.5-2.52-6.72-6.66-6.72-3.84 0-6.3 2.4-6.3 5.34 0 3.42 3 5.4 6.54 5.4zm32.415 22.5v-29.64l-6.96 4.32-4.08-7.14 13.0795-8.76h8.22v41.22zm36.4845.72c-11.1 0-18.96-8.82-18.96-21.36 0-12.48 7.86-21.3 18.96-21.3 11.16 0 19.02 8.82 19.02 21.3 0 12.54-7.86 21.36-19.02 21.36zm0-9.3c4.98 0 8.46-5.04 8.46-12.06s-3.48-12-8.46-12c-4.92 0-8.4 4.98-8.4 12s3.48 12.06 8.4 12.06z"/><path d="m4.43044 13v-9.972h-3.851999v-2.394001h10.367959v2.394001h-3.86996v9.972zm14.84406.216c-3.564 0-6.588-2.934-6.588-6.408s3.024-6.390001 6.588-6.390001 6.552 2.916001 6.552 6.390001-2.988 6.408-6.552 6.408zm0-2.412c2.07 0 3.834-1.836 3.834-3.996 0-2.142-1.764-3.978-3.834-3.978-2.088 0-3.852 1.836-3.852 3.978 0 2.16 1.764 3.996 3.852 3.996zm12.1904 2.196v-9.972h-3.852v-2.394001h10.368v2.394001h-3.87v9.972zm17.9401 0-.864-2.124h-5.364l-.864 2.124h-2.97l5.04-12.366001h2.97l5.04 12.366001zm-5.382-4.194h3.672l-1.836-4.518zm13.417 1.8h6.156v2.394h-8.82v-12.366001h2.664zm24.1531-5.796c0 1.944-1.224 3.42-3.078 3.96l2.97 4.23h-3.024l-2.826-4.014h-1.602v4.014h-2.664v-12.366001h5.562c2.7 0 4.662 1.728001 4.662 4.176001zm-7.56-1.746v3.492h2.628c1.314 0 2.214-.684 2.214-1.746s-.9-1.746-2.214-1.746zm19.8918-.036h-6.858v2.466h6.228v2.394h-6.228v2.718h6.858v2.394h-9.522v-12.366001h9.522zm8.3681 5.094v-2.07h5.454v5.094c-1.224 1.296-3.15 2.07-4.986 2.07-3.6004 0-6.6424-2.934-6.6424-6.408s3.042-6.390001 6.6424-6.390001c1.836 0 3.762.774001 4.986 2.070001l-1.926 1.728c-.738-.846-1.926-1.386-3.06-1.386-2.124 0-3.9064 1.836-3.9064 3.978 0 2.16 1.7824 3.996 3.9064 3.996.828 0 1.71-.288 2.394-.792v-1.89zm8.459 4.878v-12.366001h2.664v12.366001zm10.733.216c-2.16 0-4.05-.72-5.49-2.052l1.512-1.818c1.17 1.008 2.502 1.62 4.068 1.62 1.35 0 2.034-.612 2.034-1.386 0-.882-.72-1.152-2.61-1.584-2.61-.594-4.482-1.332-4.482-3.726 0-2.286 1.872-3.852001 4.59-3.852001 2.016 0 3.564.630001 4.842 1.710001l-1.386 1.926c-1.116-.9-2.358-1.386-3.546-1.386-1.116 0-1.818.594-1.818 1.332 0 .9.756 1.188 2.664 1.62 2.664.594 4.428 1.386 4.428 3.672 0 2.358-1.8 3.924-4.806 3.924zm10.392-.216v-9.972h-3.852v-2.394001h10.368v2.394001h-3.87v9.972zm18.516-9.972h-6.858v2.466h6.228v2.394h-6.228v2.718h6.858v2.394h-9.522v-12.366001h9.522zm13.156 1.782c0 1.944-1.224 3.42-3.078 3.96l2.97 4.23h-3.024l-2.826-4.014h-1.602v4.014h-2.664v-12.366001h5.562c2.7 0 4.662 1.728001 4.662 4.176001zm-7.56-1.746v3.492h2.628c1.314 0 2.214-.684 2.214-1.746s-.9-1.746-2.214-1.746zm19.891-.036h-6.858v2.466h6.228v2.394h-6.228v2.718h6.858v2.394h-9.522v-12.366001h9.522zm2.932 9.972v-12.366001h4.446c4.158 0 7.11 2.556001 7.11 6.174001s-2.952 6.192-7.11 6.192zm2.664-2.412h2.124c2.358 0 4.032-1.566 4.032-3.78 0-2.196-1.674-3.762-4.032-3.762h-2.124z"/></g></svg>