<svg fill="none" height="100" viewBox="0 0 100 100" width="100" xmlns="http://www.w3.org/2000/svg" xmlns:xlink="http://www.w3.org/1999/xlink"><mask id="a" fill="#fff"><path d="m34.6455 49.7162c0-4.6591 3.982-8.5678 8.6876-8.5678 2.4371 0 4.6811 1.0389 6.2749 2.6791l-2.1487 2.002c-1.0389-1.1831-2.5105-1.9311-4.1262-1.9311-3.0409 0-5.6247 2.6547-5.6247 5.8178s2.5813 5.8398 5.6247 5.8398c1.6157 0 3.0897-.748 4.1506-1.9311l2.1243 1.98c-1.5938 1.6646-3.8378 2.7035-6.2749 2.7035-4.7056 0-8.6876-3.9331-8.6876-8.5922z" fill="#fff"/></mask><mask id="b" fill="#fff"><path d="m51.6328 49.7162c0-4.6591 3.982-8.5678 8.6876-8.5678 2.4371 0 4.6811 1.0389 6.2749 2.6791l-2.1487 2.002c-1.0389-1.1831-2.5105-1.9311-4.1262-1.9311-3.0409 0-5.6247 2.6547-5.6247 5.8178s2.5813 5.8398 5.6247 5.8398c1.6157 0 3.0897-.748 4.1506-1.9311l2.1243 1.98c-1.5938 1.6646-3.8378 2.7035-6.2749 2.7035-4.7056 0-8.6876-3.9331-8.6876-8.5922z" fill="#fff"/></mask><circle cx="49.998" cy="50" fill="#edae54" r="50"/><path d="m68.4269 33.1445h-35.6107c-2.3166 0-4.1946 1.878-4.1946 4.1947v24.7769c0 2.3166 1.878 4.1947 4.1946 4.1947h35.6107c2.3167 0 4.1947-1.8781 4.1947-4.1947v-24.7769c0-2.3167-1.878-4.1947-4.1947-4.1947z" stroke="#fff" stroke-linecap="round" stroke-linejoin="round" stroke-width="4"/><path d="m34.6455 49.7162c0-4.6591 3.982-8.5678 8.6876-8.5678 2.4371 0 4.6811 1.0389 6.2749 2.6791l-2.1487 2.002c-1.0389-1.1831-2.5105-1.9311-4.1262-1.9311-3.0409 0-5.6247 2.6547-5.6247 5.8178s2.5813 5.8398 5.6247 5.8398c1.6157 0 3.0897-.748 4.1506-1.9311l2.1243 1.98c-1.5938 1.6646-3.8378 2.7035-6.2749 2.7035-4.7056 0-8.6876-3.9331-8.6876-8.5922z" fill="#ff4f8d"/><path d="m49.608 43.8275 2.7267 2.9266 2.9886-2.7846-2.8466-2.9295zm-2.1487 2.002-3.0057 2.6393 2.7183 3.0957 3.0142-2.8084zm.0244 7.7954 2.7274-2.926-2.983-2.7805-2.7224 3.0361zm2.1243 1.98 2.8892 2.7662 2.8035-2.9282-2.9654-2.764zm-10.9625-5.8887c0-2.3923 2.133-4.5678 4.6876-4.5678v-8c-6.8566 0-12.6876 5.6419-12.6876 12.5678zm4.6876-4.5678c1.2898 0 2.5179.5526 3.4061 1.4667l5.7375-5.5751c-2.2993-2.3663-5.5593-3.8916-9.1436-3.8916zm3.5481-4.2474-2.1487 2.002 5.4536 5.8531 2.1486-2.002zm3.5838 2.2893c-1.7143-1.9522-4.2435-3.2919-7.1319-3.2919v8c.3431 0 .757.1564 1.1205.5704zm-7.1319-3.2919c-5.3685 0-9.6247 4.5659-9.6247 9.8178h8c0-1.0743.9113-1.8178 1.6247-1.8178zm-9.6247 9.8178c0 5.231 4.2335 9.8398 9.6247 9.8398v-8c-.6955 0-1.6247-.7445-1.6247-1.8398zm9.6247 9.8398c2.892 0 5.4077-1.3414 7.1287-3.2607l-5.9561-5.3408c-.4008.4469-.8331.6015-1.1726.6015zm1.4233-3.0051 2.1242 1.98 5.4547-5.852-2.1242-1.98zm1.9623-3.7123c-.8813.9205-2.0989 1.4698-3.3856 1.4698v8c3.5874 0 6.8579-1.5284 9.1641-3.9373zm-3.3856 1.4698c-2.5397 0-4.6876-2.1853-4.6876-4.5922h-8c0 6.9113 5.8162 12.5922 12.6876 12.5922z" fill="#fff" mask="url(#a)"/><path d="m51.6328 49.7162c0-4.6591 3.982-8.5678 8.6876-8.5678 2.4371 0 4.6811 1.0389 6.2749 2.6791l-2.1487 2.002c-1.0389-1.1831-2.5105-1.9311-4.1262-1.9311-3.0409 0-5.6247 2.6547-5.6247 5.8178s2.5813 5.8398 5.6247 5.8398c1.6157 0 3.0897-.748 4.1506-1.9311l2.1243 1.98c-1.5938 1.6646-3.8378 2.7035-6.2749 2.7035-4.7056 0-8.6876-3.9331-8.6876-8.5922z" fill="#ff4f8d"/><path d="m66.5953 43.8275 2.7267 2.9266 2.9886-2.7845-2.8466-2.9296zm-2.1487 2.002-3.0057 2.6393 2.7183 3.0957 3.0142-2.8084zm.0244 7.7954 2.7274-2.926-2.983-2.7805-2.7224 3.0361zm2.1243 1.98 2.8892 2.7662 2.8035-2.9282-2.9654-2.764zm-10.9625-5.8887c0-2.3923 2.133-4.5678 4.6876-4.5678v-8c-6.8566 0-12.6876 5.6419-12.6876 12.5678zm4.6876-4.5678c1.2898 0 2.5179.5526 3.4061 1.4667l5.7375-5.5751c-2.2993-2.3663-5.5593-3.8916-9.1436-3.8916zm3.5481-4.2474-2.1487 2.002 5.4536 5.8531 2.1486-2.002zm3.5838 2.2893c-1.7143-1.9523-4.2435-3.2919-7.1319-3.2919v8c.3431 0 .757.1564 1.1205.5704zm-7.1319-3.2919c-5.3685 0-9.6247 4.5659-9.6247 9.8178h8c0-1.0743.9113-1.8178 1.6247-1.8178zm-9.6247 9.8178c0 5.231 4.2335 9.8398 9.6247 9.8398v-8c-.6955 0-1.6247-.7445-1.6247-1.8398zm9.6247 9.8398c2.892 0 5.4077-1.3414 7.1287-3.2607l-5.9561-5.3408c-.4008.4469-.8331.6015-1.1726.6015zm1.4233-3.0051 2.1242 1.98 5.4547-5.852-2.1242-1.98zm1.9623-3.7123c-.8813.9205-2.0989 1.4698-3.3856 1.4698v8c3.5874 0 6.8579-1.5284 9.1641-3.9373zm-3.3856 1.4698c-2.5397 0-4.6876-2.1853-4.6876-4.5922h-8c0 6.9113 5.8162 12.5922 12.6876 12.5922z" fill="#fff" mask="url(#b)"/></svg>