<svg fill="none" height="61" viewBox="0 0 55 61" width="55" xmlns="http://www.w3.org/2000/svg"><g stroke-linecap="round" stroke-linejoin="round" stroke-width="5"><path d="m18.2351 34.4319 18.6154 10.8476" stroke="#00d69c"/><path d="m36.8233 15.3538-18.5882 10.8476" stroke="#00d69c"/><g stroke="#004141"><path d="m43.8827 19.415c4.5158 0 8.1766-3.6608 8.1766-8.1766 0-4.51584-3.6608-8.17663-8.1766-8.17663-4.5159 0-8.1766 3.66079-8.1766 8.17663 0 4.5158 3.6607 8.1766 8.1766 8.1766z"/><path d="m11.1766 38.4929c4.5158 0 8.1766-3.6608 8.1766-8.1766 0-4.5159-3.6608-8.1767-8.1766-8.1767-4.51581 0-8.1766 3.6608-8.1766 8.1767 0 4.5158 3.66079 8.1766 8.1766 8.1766z"/><path d="m43.8827 57.5739c4.5158 0 8.1766-3.6608 8.1766-8.1766s-3.6608-8.1766-8.1766-8.1766c-4.5159 0-8.1766 3.6608-8.1766 8.1766s3.6607 8.1766 8.1766 8.1766z"/></g></g></svg>