<svg fill="none" height="100" viewBox="0 0 100 100" width="100" xmlns="http://www.w3.org/2000/svg"><circle cx="50" cy="50" fill="#38982f" r="50"/><g fill="#fff"><path d="m36.0085 38.7477c1.3852 0 2.5636.9148 3.0024 2.188l.1668.4368c.0072.0224.0181.0411.0254.0635l2.346 8.7332c.156.5787-.174 1.1798-.7361 1.3367-.0942.0261-.1885.041-.2828.041-.4641 0-.8884-.3173-1.0189-.799l-2.0233-7.5309h-.5875l1.1024 4.8277 1.6752 7.3405h-2.7957v9.4314c0 .8588-.6817 1.5644-1.5193 1.5644s-1.5193-.7019-1.5193-1.5644v-9.4314h-.6999v9.4314c0 .8588-.6817 1.5644-1.5193 1.5644-.834 0-1.5193-.7019-1.5193-1.5644v-9.4314h-2.7848l1.6752-7.3405 1.1024-4.8277h-.4932l-2.0233 7.5309c-.1306.4817-.5548.799-1.0189.799-.0943 0-.1886-.0112-.2829-.041-.562-.1606-.892-.758-.7361-1.3367l2.3461-8.7332c.0072-.0336.0217-.0597.0326-.0896.3082-1.4823 1.5846-2.5949 3.1184-2.5949h4.9677m0-1.8669h-4.9677c-2.288 0-4.3041 1.6316-4.8516 3.9055-.0145.0448-.0327.0933-.0472.1493l-2.3424 8.7295c-.4206 1.5719.475 3.1998 2.0016 3.6366.0399.0112.0834.0224.1269.0336l-.3699 1.6205c-.1269.5563 0 1.1387.3445 1.5868.3445.448.8666.7094 1.4214.7094h.9718v7.5645c0 1.893 1.4939 3.4313 3.3324 3.4313.6925 0 1.3343-.2203 1.8674-.5899.533.3734 1.1748.5899 1.8674.5899 1.8384 0 3.3323-1.5383 3.3323-3.4313v-7.5645h.9827c.5548 0 1.0769-.2614 1.4214-.7094.3445-.4481.4714-1.0305.3445-1.5868l-.3663-1.6018c.0726-.0149.1451-.0336.2176-.0523 1.5266-.4331 2.4222-2.0647 2.0016-3.6366l-2.3461-8.7332c-.0145-.0523-.029-.1008-.0435-.1419-.0109-.0336-.0217-.0709-.0362-.1045l-.156-.4107c-.7143-2.0349-2.5998-3.3977-4.6993-3.3977z"/><path d="m33.5464 29.5544c1.5701 0 2.8465 1.3105 2.8465 2.9309 0 1.6205-1.2727 2.931-2.8465 2.931-1.5737 0-2.8464-1.3105-2.8464-2.931 0-1.6204 1.2727-2.9309 2.8464-2.9309zm0-1.8669c-2.5672 0-4.6594 2.1506-4.6594 4.7978 0 2.6473 2.0886 4.7979 4.6594 4.7979 2.5709 0 4.6595-2.1506 4.6595-4.7979 0-2.6472-2.0922-4.7978-4.6595-4.7978z"/><path d="m54.0155 38.7966c1.6897 0 3.064 1.3852 3.1111 3.1139h.0037v.0896 9.0617c0 .6012-.4714 1.0866-1.0552 1.0866s-1.0552-.4854-1.0552-1.0866v-7.8707h-.6998v21.6258c0 .8587-.6817 1.5644-1.5194 1.5644-.8376 0-1.5193-.7019-1.5193-1.5644v-12.6685h-.6998v12.6685c0 .8587-.6817 1.5644-1.5193 1.5644s-1.5193-.7019-1.5193-1.5644v-21.6258h-.5911v7.8707c0 .6012-.4714 1.0866-1.0552 1.0866s-1.0551-.4854-1.0551-1.0866v-9.058-.0933h.0036c.0507-1.7287 1.4214-3.1139 3.1111-3.1139zm0-1.8669h-6.0592c-2.6289 0-4.7573 2.0759-4.9169 4.7568-.0072.0746-.0145.1456-.0145.224v9.1513c0 1.5719 1.2002 2.8638 2.705 2.9497v10.8054c0 1.893 1.494 3.4313 3.3324 3.4313.6926 0 1.3344-.2166 1.8674-.5899.533.3733 1.1748.5899 1.8674.5899 1.8384 0 3.3324-1.5383 3.3324-3.4313v-10.8017c1.5555-.0299 2.8138-1.3441 2.8138-2.9534v-9.1513c0-.0747-.0036-.1494-.0145-.224-.1596-2.6809-2.2881-4.7568-4.917-4.7568z"/><path d="m50.9843 29.5544c1.5701 0 2.8465 1.3105 2.8465 2.9309 0 1.6205-1.2728 2.931-2.8465 2.931s-2.8464-1.3105-2.8464-2.931c0-1.6204 1.2727-2.9309 2.8464-2.9309zm0-1.8669c-2.5672 0-4.6595 2.1506-4.6595 4.7978 0 2.6473 2.0886 4.7979 4.6595 4.7979s4.6595-2.1506 4.6595-4.7979c0-2.6472-2.0886-4.7978-4.6595-4.7978z"/><path d="m71.3806 38.7479c1.6898 0 3.064 1.3852 3.1112 3.1139h.0036v1.2844 7.8707c0 .6011-.4714 1.0865-1.0552 1.0865s-1.0552-.4854-1.0552-1.0865v-7.8707h-.6309v21.6706c0 .8587-.6817 1.5644-1.5193 1.5644-.834 0-1.5193-.7019-1.5193-1.5644v-9.4314h-.6998v9.4314c0 .8587-.6817 1.5644-1.5194 1.5644-.8376 0-1.5193-.7019-1.5193-1.5644v-9.4314h-2.7884l1.6752-7.3405 1.1023-4.8277h-.5221l-2.0234 7.5309c-.1305.4816-.5547.799-1.0189.799-.0943 0-.1885-.0112-.2828-.0411-.562-.1605-.892-.7579-.7361-1.3366l2.3461-8.7332c.0072-.0336.0217-.0598.0326-.0896.3082-1.4823 1.5846-2.595 3.1184-2.595h5.4971m0-1.8668h-5.4971c-2.288 0-4.3041 1.6316-4.8517 3.9054-.0145.0448-.0326.0934-.0471.1494l-2.3461 8.7332c-.4206 1.5719.4751 3.1998 2.0016 3.6366.0508.015.1016.0262.1523.0374l-.3698 1.6129c-.1269.5564 0 1.1388.3444 1.5869.3445.448.8667.7094 1.4215.7094h.9754v7.5645c0 1.893 1.4939 3.4313 3.3323 3.4313.6926 0 1.3344-.2166 1.8674-.5899.5331.3733 1.1749.5899 1.8674.5899 1.8385 0 3.3324-1.5383 3.3324-3.4313v-10.8502c1.5229-.0672 2.7449-1.3665 2.7449-2.9534v-9.058-.0933c0-.0747-.0036-.1494-.0145-.2241-.1595-2.6808-2.288-4.7567-4.9169-4.7567z"/><path d="m68.3857 29.5544c1.5701 0 2.8464 1.3105 2.8464 2.9309 0 1.6205-1.2727 2.931-2.8464 2.931s-2.8465-1.3105-2.8465-2.931c0-1.6204 1.2728-2.9309 2.8465-2.9309zm0-1.8669c-2.5673 0-4.6595 2.1506-4.6595 4.7978 0 2.6473 2.0886 4.7979 4.6595 4.7979 2.5708 0 4.6595-2.1506 4.6595-4.7979 0-2.6472-2.0887-4.7978-4.6595-4.7978z"/></g></svg>