<svg fill="none" height="100" viewBox="0 0 100 100" width="100" xmlns="http://www.w3.org/2000/svg"><circle cx="50" cy="50" fill="#ff4f8d" r="50"/><path d="m46.4639 53.4264c-3.2487-3.0976-5.7575-6.3658-7.2888-9.2718-6.0344 1.4647-10.4983 6.6788-10.4983 12.888 0 7.3446 6.2451 13.2992 13.9479 13.2992 6.5049 0 11.9684-4.247 13.5119-9.989-3.0355-1.4624-6.4435-3.8475-9.6727-6.9264zm0 0c-1.4577-1.39-2.7636-2.8126-3.9029-4.2236-4.5129.0327-8.161 3.5298-8.161 7.8398s3.6824 7.8422 8.2247 7.8422c4.5424 0 8.1831-3.4738 8.2223-7.7721-1.4651-1.0793-2.9424-2.3127-4.3831-3.6863zm26.2888-16.3688c.3969 5.5225-4.1699 9.6433-9.8197 10.0544-6.3603.4602-8.602 4.1862-8.602 4.1862l-.2352-.1495c-2.0115-1.2918-3.7314-2.9574-5.0569-4.894l-.2033-.299s3.4373-2.2076 4.2532-8.2276c.6983-5.137 4.4002-9.3793 9.8295-9.3863 5.1353-.007 9.484 3.8358 9.8344 8.7205zm-18.4242 14.2406-.2352-.1495c-2.0115-1.2918-3.7314-2.9574-5.0568-4.894l-.2034-.299s2.4451-1.5698 3.6995-5.6743c-5.9903-4.4946-11.8115-6.3611-14.0949-4.1839-2.8053 2.6748.7889 10.4352 8.0238 17.3336s15.3739 10.3253 18.1792 7.6506c2.2956-2.1889.3038-7.7814-4.4566-13.5211-4.2729 1.1143-5.8556 3.74-5.8556 3.74z" stroke="#fff" stroke-linecap="round" stroke-linejoin="round" stroke-width="3"/></svg>