<svg fill="none" height="100" viewBox="0 0 100 100" width="100" xmlns="http://www.w3.org/2000/svg"><circle cx="50" cy="50" fill="#369ea9" r="50"/><path d="m46.518 27.3262h-6.8299v19.8038m0 0h-10.8551v20.1962h43v-20.1962zm10.9053.1962v20m3.8413-40h7.0281v19.8038m-10.8694-6.3389h-5.1911l5.2174-9.0078 5.2149 9.0078h-5.191m-12.6134 14.5908 1.7153-3.311 1.7725 3.2843 3.9011.4994-2.7974 2.5864.6975 3.6187-3.4997-1.6834-3.471 1.7369.633-3.6276-2.8428-2.544zm28.7264 2.0959c0 2.762-2.399 5.0011-5.3583 5.0011s-5.3582-2.2391-5.3582-5.0011c0-2.7621 2.3989-5.0011 5.3582-5.0011s5.3583 2.239 5.3583 5.0011z" stroke="#fff" stroke-linecap="round" stroke-linejoin="round" stroke-width="2"/></svg>