<svg width="100" height="100" viewBox="0 0 100 100" fill="none" xmlns="http://www.w3.org/2000/svg"><circle cx="50" cy="50" r="50" fill="#002C95"/><g clip-path="url(#a)"><mask id="b" fill="#fff"><path d="M29.834 50.9c0-4.58-.003-9.162.001-13.743.005-3.59 2.375-6.496 5.881-7.198a7.243 7.243 0 0 1 1.403-.126c9.145-.007 18.29-.01 27.434-.004 4.052.002 7.182 3.147 7.189 7.214.006 4.61.01 9.218 0 13.827-.025 10.114-7.154 18.723-17.079 20.578a22.26 22.26 0 0 1-3.88.354c-4.586.04-9.173.017-13.758.015-4.127-.001-7.189-3.076-7.19-7.215V50.9h-.001Zm23.585 18.09v-5.16c-.108 0-.192-.011-.272.002a14.779 14.779 0 0 1-4.224.071c-3.445-.434-6.397-1.888-8.867-4.328-.362-.357-.49-.797-.36-1.298.266-1.022 1.529-1.3 2.354-.496 2.74 2.668 6.053 3.798 9.852 3.524.515-.038 1.026-.143 1.486-.209.068-.706.072-1.339.195-1.945.686-3.357 3.47-5.64 6.9-5.664 2.633-.018 5.267-.005 7.9-.005h.53c.057-.72.154-1.394.156-2.07.014-4.832.025-9.664.005-14.496a4.4 4.4 0 0 0-4.427-4.417 8760.31 8760.31 0 0 0-27.607 0c-2.544.003-4.537 2.007-4.54 4.559-.012 9.248-.012 18.496 0 27.744a4.31 4.31 0 0 0 4.335 4.345c4.822.016 9.645.009 14.468-.007.7-.002 1.4-.098 2.115-.15l.001-.001ZM68.25 56.15h-.36c-2.425 0-4.85-.007-7.274.002-2.657.008-4.505 1.877-4.509 4.547-.003 2.402 0 4.804 0 7.206v.408c4.58-.544 11.421-7.391 12.145-12.163h-.002Z"/></mask><path d="M29.834 50.9h-3v3h3v-3Zm.001-13.743-3-.004 3 .004Zm5.881-7.198-.584-2.942h-.005l.59 2.942Zm1.403-.126v3h.002l-.002-3Zm27.434-.004-.001 3 .001-3Zm7.189 7.214 3-.004-3 .004Zm0 13.827 3 .008-3-.008ZM54.663 71.448l.551 2.95-.55-2.95Zm-3.88.354-.026-3h-.001l.027 3Zm-13.758.015.001-3-.001 3Zm-7.19-7.215h-3 3Zm0-13.702h3v-3h-3v3ZM53.42 68.99l2.121 2.121.879-.878V68.99h-3Zm0-5.159h3v-3h-3v3Zm-.272.002.477 2.962.008-.001.008-.002-.493-2.959Zm-4.224.071-.375 2.977.375-2.977Zm-8.867-4.328 2.109-2.134-2.109 2.134Zm-.36-1.298-2.903-.755v.001l2.903.754Zm2.354-.496-2.093 2.149 2.093-2.149Zm9.852 3.524.216 2.992h.003l-.22-2.992Zm1.486-.209.423 2.97 2.338-.333.225-2.35-2.986-.287Zm.195-1.945-2.939-.6v.002l2.94.598Zm6.9-5.664-.02-3h-.001l.021 3Zm8.43-.005v3h2.774l.217-2.764-2.99-.236Zm.156-2.07 3 .01-3-.01Zm.005-14.496-3 .012 3-.012ZM64.648 32.5l-.005 3 .005-3Zm-27.607 0 .004 3-.004-3Zm-4.54 4.559 3 .004-3-.004Zm0 27.744-3 .004 3-.004Zm4.335 4.345.01-3-.01 3Zm14.468-.007-.01-3 .01 3Zm2.115-.15.219 2.992 1.113-.081.79-.79-2.122-2.121ZM68.25 56.149l1.34-2.684-.633-.316h-.707v3Zm-7.634.002.01 3h.001l-.01-3ZM56.107 60.7l3 .005-3-.005Zm0 7.614h-3v3.378l3.354-.399-.354-2.979ZM68.252 56.15l2.967.45.327-2.158-1.954-.976-1.34 2.684ZM32.834 50.9c0-4.584-.003-9.161.001-13.74l-6-.006c-.004 4.583-.001 9.168-.001 13.746h6Zm.001-13.74c.003-2.173 1.376-3.84 3.47-4.26l-1.178-5.882c-4.918.985-8.286 5.128-8.292 10.135l6 .007Zm3.465-4.258a4.29 4.29 0 0 1 .82-.07v-6c-.614 0-1.293.047-1.988.185l1.168 5.885Zm.821-.07c9.144-.006 18.287-.008 27.43-.003l.004-6c-9.146-.005-18.292-.003-27.438.004l.004 6Zm27.43-.003c2.384.002 4.187 1.793 4.19 4.22l6-.01c-.009-5.708-4.466-10.207-10.186-10.21l-.003 6Zm4.19 4.219c.007 4.608.012 9.212 0 13.815l6 .015c.012-4.616.007-9.23 0-13.839l-6 .009Zm0 13.815c-.02 8.681-6.13 16.048-14.63 17.636l1.103 5.898c11.351-2.122 19.5-11.974 19.528-23.52l-6-.014ZM54.113 68.5c-1.066.2-2.199.293-3.355.303l.052 6a25.245 25.245 0 0 0 4.405-.405L54.112 68.5Zm-3.356.303c-4.567.04-9.126.017-13.73.015l-.003 6c4.567.002 9.182.026 13.787-.016l-.054-6Zm-13.73.015c-2.46 0-4.19-1.722-4.19-4.216l-6 .002c0 5.784 4.394 10.213 10.188 10.214l.002-6Zm-4.19-4.216c-.002-4.566 0-9.133 0-13.7h-6c0 4.565-.002 9.134 0 13.702l6-.002Zm-3-16.7h-.002v6h.001v-6ZM56.418 68.99v-5.16h-6v5.159h6Zm-3-8.159h.026-.03l-.068-.003a3.627 3.627 0 0 0-.693.046l.986 5.918c-.13.022-.239.03-.312.033-.07.003-.121.001-.13.001h.001l.04.002c.038.001.103.003.18.003v-6Zm-.75.04c-1.12.181-2.242.2-3.37.057l-.751 5.953c1.69.213 3.386.186 5.076-.086l-.955-5.924Zm-3.37.057c-2.78-.35-5.127-1.502-7.134-3.486l-4.217 4.269c2.93 2.895 6.49 4.651 10.6 5.17l.75-5.953Zm-7.135-3.486c.138.136.318.378.416.728.1.353.072.661.02.861l-5.808-1.507c-.404 1.557.048 3.092 1.156 4.187l4.216-4.269Zm.436 1.59a1.748 1.748 0 0 1-1.31 1.247c-.567.121-1.056-.078-1.333-.348l4.187-4.297c-1.103-1.075-2.636-1.537-4.108-1.223a4.253 4.253 0 0 0-3.243 3.112l5.807 1.51Zm-2.642.9c3.384 3.295 7.552 4.7 12.16 4.366l-.433-5.984c-2.988.216-5.448-.642-7.542-2.681l-4.185 4.299Zm12.163 4.366c.64-.047 1.493-.203 1.69-.23l-.846-5.94c-.723.102-.891.157-1.283.186l.439 5.984Zm4.253-2.914c.103-1.073.065-1.221.15-1.634l-5.88-1.196c-.163.8-.21 1.917-.242 2.257l5.972.573Zm.149-1.632c.4-1.963 1.963-3.25 3.981-3.264l-.042-6c-4.843.034-8.848 3.313-9.818 8.064l5.879 1.2Zm3.98-3.264c2.62-.018 5.226-.005 7.88-.005v-6c-2.613 0-5.274-.013-7.92.005l.04 6Zm7.88-.005h.531v-6h-.531v6Zm3.521-2.764c.036-.456.162-1.479.165-2.296l-6-.02c-.002.535-.069.861-.146 1.845l5.981.47Zm.165-2.296c.014-4.833.026-9.675.005-14.519l-6 .025a1996 1996 0 0 1-.005 14.476l6 .018Zm.005-14.519A7.4 7.4 0 0 0 64.65 29.5l-.008 6a1.402 1.402 0 0 1 1.432 1.429l6-.025ZM64.651 29.5a9111.24 9111.24 0 0 0-27.615 0l.009 6a9099.3 9099.3 0 0 1 27.597 0l.009-6Zm-27.615 0c-4.21.005-7.53 3.362-7.536 7.555l6 .008c.001-.911.667-1.562 1.544-1.563l-.008-6ZM29.5 37.055c-.012 9.25-.012 18.501 0 27.752l6-.008c-.012-9.245-.012-18.49 0-27.736l-6-.008Zm0 27.752a7.31 7.31 0 0 0 7.325 7.34l.02-6c-.773-.002-1.344-.571-1.345-1.348l-6 .008Zm7.324 7.34c4.832.017 9.663.01 14.488-.006l-.019-6c-4.82.016-9.635.023-14.448.007l-.02 6Zm14.488-.006c.83-.003 1.873-.125 2.325-.158l-.438-5.984c-.977.071-1.333.14-1.906.142l.02 6Zm4.227-1.029h.001l-4.242-4.243h-.002l4.243 4.243ZM68.25 53.15h-.36v6h.36v-6Zm-.36 0c-2.413 0-4.854-.006-7.285.002l.022 6c2.417-.008 4.827-.002 7.263-.002v-6Zm-7.284.002c-2.05.007-3.964.745-5.37 2.165-1.406 1.418-2.126 3.337-2.129 5.38l6 .007c.001-.627.207-.978.39-1.164.183-.184.522-.386 1.13-.388l-.02-6Zm-7.499 7.544c-.003 2.404 0 4.814 0 7.21h6c0-2.408-.003-4.802 0-7.201l-6-.009Zm0 7.21v.407h6v-.408h-6Zm3.354 3.387c1.736-.206 3.443-.963 4.94-1.879 1.528-.935 3.02-2.147 4.347-3.476 2.54-2.544 4.966-6.011 5.47-9.336l-5.931-.9c-.22 1.445-1.578 3.787-3.784 5.996-1.046 1.047-2.17 1.947-3.233 2.598-1.098.671-1.962.974-2.517 1.04l.708 5.957Zm13.132-17.826h-.003l-2.68 5.367.002.002 2.68-5.369Z" fill="#fff" mask="url(#b)"/><path d="M40.649 44.66a86.727 86.727 0 0 0 0 2.509v-2.51Zm0 0c.002-.144.051-.225.095-.268m-.095.267.095-.267m.56.272a.383.383 0 0 0-.1-.27.302.302 0 0 0-.22-.085l.32.355Zm0 0c.007.282.006.553.004.842l-.002.422c0 .14 0 .273.002.403m-.004-1.667.003 1.667m0 0c.002.282.004.547-.003.822l.003-.822Zm-.562 1.096a.31.31 0 0 0 .224.088l-.224-.088Zm0 0a.362.362 0 0 1-.096-.258l.096.258Zm-.001-3.035a.32.32 0 0 1 .239-.083l-.239.083Zm.56 2.76a.393.393 0 0 1-.103.28.31.31 0 0 1-.232.083l.335-.362Zm19.626-2.241h.005l-.005-.26 1-.03-1 .03a.363.363 0 0 0-.1-.257.313.313 0 0 0-.228-.085.323.323 0 0 0-.235.085.334.334 0 0 0-.092.243l.656.274Zm0 0v1l.002.43c.003.286.005.553-.003.831l.002-2.26Z" stroke="#fff" stroke-width="2"/></g><defs><clipPath id="a"><path fill="#fff" d="M29.833 29.826h41.916v42H29.833z"/></clipPath></defs></svg>