<svg width="206" height="121" viewBox="0 0 206 121" fill="none" xmlns="http://www.w3.org/2000/svg">
<path d="M12.009 96.269C5.90835 96.2841 0.932156 91.6537 0.916055 85.9471C0.899954 80.2404 5.84996 75.5854 11.9506 75.5703C18.0511 75.5553 23.0273 80.1858 23.0434 85.8924L19.1123 85.9021C19.1019 82.2231 15.8938 79.238 11.9609 79.2477C8.02805 79.2574 4.83686 82.2583 4.84724 85.9374C4.85762 89.6163 8.06568 92.6014 11.9986 92.5917L12.009 96.269Z" fill="white"/>
<path d="M12.0382 106.759C5.93761 106.775 0.961413 102.144 0.945312 96.4374L4.8765 96.4277C4.88688 100.107 8.09495 103.092 12.0278 103.082C15.9607 103.072 19.1519 100.072 19.1416 96.3925C19.1312 92.7135 15.923 89.7284 11.9902 89.7381L11.9798 86.0608C18.0804 86.0458 23.0566 90.6761 23.0727 96.3828C23.0888 102.089 18.1388 106.744 12.0382 106.759Z" fill="white"/>
<path d="M37.4135 85.4832C45.1125 85.4642 45.1429 96.2524 37.444 96.2714C29.7454 96.2904 29.7149 85.5022 37.4135 85.4832ZM37.4196 87.6349C32.9445 87.646 32.9627 94.1158 37.4379 94.1048C41.9133 94.0937 41.8951 87.6239 37.4196 87.6349Z" fill="white"/>
<path d="M45.6008 96.1044L45.5713 85.653L49.9681 85.6421C54.3185 85.6314 54.3211 92.0866 49.9863 92.0973L47.8271 92.1027L47.8384 96.0989L45.6008 96.1044ZM49.7931 90.0634C51.2953 90.0597 51.2887 87.7176 49.7865 87.7214L47.8147 87.7262L47.8213 90.0683L49.7931 90.0634Z" fill="white"/>
<path d="M55.6868 96.0797L55.6572 85.6137L61.2593 85.5999L61.2652 87.6932L57.901 87.7015L57.9069 89.7946L60.8487 89.7874L60.8546 91.8804L57.9128 91.8877L57.9187 93.9811L61.4707 93.9723L61.4766 96.0654L55.6868 96.0797Z" fill="white"/>
<path d="M66.2804 96.0537L64.0428 96.0593L64.0127 85.3738L64.607 85.3723L70.2735 91.5063L70.2569 85.5924L72.51 85.5869L72.5402 96.2577L71.9455 96.2592L66.2644 90.3596L66.2804 96.0537Z" fill="white"/>
<path d="M80.318 93.1501C81.6036 93.9959 82.9964 94.022 83.5126 93.9766C84.1699 93.9312 84.7318 93.4906 84.6678 92.9199C84.619 92.32 84.1331 92.0577 83.5067 91.8544C81.7525 91.2584 80.1852 90.4278 80.1803 88.6716C80.1753 86.915 81.4703 85.5649 83.332 85.4728C83.911 85.4419 84.6779 85.44 86.1187 85.9048L85.8427 87.9256C84.6052 87.4603 83.9011 87.4766 83.5571 87.492C82.7591 87.5381 82.4006 88.0803 82.4494 88.666C82.5134 89.2512 83.062 89.5134 83.704 89.7167C85.4426 90.3124 86.9474 91.2455 86.9521 92.9143C86.9571 94.6563 85.6779 95.9914 83.5813 96.099C82.9553 96.1443 81.5624 96.0748 80.0425 95.3466L80.318 93.1501Z" fill="white"/>
<path d="M94.2991 85.3421C101.998 85.3231 102.028 96.1113 94.3295 96.1303C86.6305 96.1493 86.6001 85.3611 94.2991 85.3421ZM94.3051 87.4938C89.83 87.5048 89.8482 93.9747 94.3234 93.9636C98.7988 93.9526 98.7806 87.4828 94.3051 87.4938Z" fill="white"/>
<path d="M102.535 92.3187L102.516 85.4975L104.753 85.492L104.772 92.2986C104.779 94.4941 108.409 94.4852 108.403 92.2896L108.383 85.483L110.606 85.4775L110.625 92.2987C110.639 97.2755 102.549 97.2955 102.535 92.3187Z" fill="white"/>
<path d="M119.025 95.9224L116.761 91.9318L115.681 91.9344L115.692 95.9306L113.454 95.9362L113.425 85.4701L117.838 85.4592C121.828 85.4494 122.234 90.7033 118.951 91.6045L121.56 95.9161L119.025 95.9224ZM115.675 89.9L117.647 89.8951C119.165 89.8914 119.158 87.5494 117.64 87.5531L115.669 87.558L115.675 89.9Z" fill="white"/>
<path d="M128.792 87.4085C124.363 87.4194 124.381 93.8017 128.81 93.7908C129.78 93.7884 130.546 93.523 130.968 93.3167L131.272 95.4826C130.584 95.7476 129.598 95.9257 128.816 95.9276C121.226 95.9464 121.212 85.3195 128.786 85.3008C129.568 85.2989 130.32 85.4286 130.993 85.7051L130.734 87.8575C130.31 87.6537 129.762 87.4061 128.792 87.4085Z" fill="white"/>
<path d="M133.526 95.8868L133.496 85.4208L139.098 85.407L139.104 87.5004L135.74 87.5087L135.746 89.6017L138.688 89.5945L138.693 91.6876L135.752 91.6948L135.758 93.7882L139.31 93.7794L139.316 95.8725L133.526 95.8868Z" fill="white"/>
<path d="M146.551 92.9856C147.837 93.8314 149.229 93.8574 149.746 93.8121C150.403 93.7667 150.965 93.3261 150.901 92.7554C150.852 92.1555 150.366 91.8931 149.74 91.6898C147.985 91.0938 146.418 90.2633 146.413 88.507C146.408 86.7504 147.703 85.4004 149.565 85.3082C150.144 85.2773 150.911 85.2754 152.352 85.7403L152.076 87.7611C150.838 87.2957 150.134 87.3121 149.79 87.3275C148.992 87.3735 148.634 87.9158 148.682 88.5014C148.746 89.0867 149.295 89.3489 149.937 89.5521C151.675 90.1479 153.18 91.081 153.185 92.7497C153.19 94.4917 151.911 95.8269 149.814 95.9345C149.188 95.9798 147.795 95.9103 146.275 95.1821L146.551 92.9856Z" fill="white"/>
<path d="M155.407 92.1879L155.388 85.3666L157.625 85.3611L157.644 92.1677C157.651 94.3633 161.281 94.3543 161.275 92.1588L161.256 85.3522L163.478 85.3467L163.497 92.1679C163.511 97.1447 155.421 97.1646 155.407 92.1879Z" fill="white"/>
<path d="M175.902 85.1551L176.606 85.1533L176.636 95.7801L174.367 95.7857L174.366 89.9454L171.51 92.7629L168.639 89.9595L168.655 95.7998L166.386 95.8054L166.356 85.1786L167.076 85.1768L171.502 89.7622L175.902 85.1551Z" fill="white"/>
<path d="M189.201 85.1226L189.905 85.1208L189.935 95.7477L187.666 95.7533L187.665 89.9129L184.809 92.7304L181.938 89.927L181.954 95.7674L179.685 95.773L179.655 85.1461L180.375 85.1444L184.801 89.7297L189.201 85.1226Z" fill="white"/>
<path d="M192.739 95.7403L192.709 85.2743L194.947 85.2688L194.977 95.7348L192.739 95.7403Z" fill="white"/>
<path d="M200.056 95.7229L200.032 87.3502L197.247 87.3571L197.241 85.2783L205.049 85.259L205.055 87.3378L202.27 87.3447L202.293 95.7173L200.056 95.7229Z" fill="white"/>
<path d="M54.8905 56.8474C55.271 56.7503 55.7207 56.6532 56.3088 56.5562C56.9032 56.4636 57.5051 56.4203 58.1076 56.4267C58.6487 56.4047 59.1892 56.4816 59.6988 56.6532C60.0903 56.795 60.4359 57.0291 60.702 57.3328C60.9562 57.6369 61.1335 57.9909 61.2209 58.3682C61.3336 58.8026 61.3917 59.2479 61.3938 59.6949V63.7073H59.2837V59.9214C59.3191 59.4536 59.2238 58.9852 59.007 58.5624C58.834 58.3035 58.4881 58.1741 57.9692 58.1741C57.807 58.1698 57.6448 58.1807 57.4849 58.2064C57.312 58.2064 57.1736 58.2388 57.0352 58.2388V63.7073H54.8905L54.8905 56.8474ZM50.947 60.1156C50.9704 59.6063 50.8384 59.1013 50.5665 58.6594C50.0692 58.0697 49.155 57.9687 48.5245 58.4339C48.435 58.5 48.3541 58.5757 48.2835 58.6594C47.9836 59.0914 47.8383 59.6013 47.8684 60.1156C47.8436 60.6395 47.9882 61.1582 48.2835 61.604C48.733 62.1938 49.6085 62.331 50.2389 61.9105C50.3655 61.826 50.4763 61.7225 50.5665 61.604C50.8381 61.1504 50.9699 60.6351 50.947 60.1156ZM53.1264 60.1156C53.1385 60.6317 53.0566 61.146 52.8842 61.6364C52.7198 62.0796 52.4609 62.4869 52.1232 62.8336C51.4307 63.5336 50.4435 63.9125 49.425 63.8691C48.905 63.8705 48.3892 63.7828 47.903 63.6102C47.4572 63.4311 47.0566 63.1665 46.7268 62.8336C46.3867 62.4886 46.1275 62.0807 45.9658 61.6364C45.5968 60.6519 45.5968 59.5792 45.9658 58.5947C46.1359 58.1637 46.3944 57.768 46.7268 57.4298C47.058 57.1065 47.4589 56.8528 47.903 56.6856C48.3732 56.5006 48.8805 56.4123 49.3904 56.4267C49.8992 56.4252 50.4037 56.513 50.8779 56.6856C51.315 56.8647 51.7136 57.1169 52.054 57.4298C52.3864 57.768 52.645 58.1637 52.815 58.5947C53.0275 59.0768 53.1334 59.5942 53.1264 60.1156ZM41.4689 63.8691C39.843 63.8691 38.5977 63.4484 37.7675 62.6071C36.9027 61.7658 36.4876 60.5686 36.4876 59.0154C36.4812 58.3094 36.61 57.608 36.8681 56.9445C37.3364 55.793 38.3236 54.8932 39.5663 54.4852C40.2193 54.2602 40.9114 54.1504 41.6072 54.1617C41.9902 54.1589 42.3726 54.1914 42.7488 54.2587C43.0947 54.3234 43.406 54.3882 43.6482 54.4529C43.8712 54.5178 44.0906 54.5934 44.3054 54.6794C44.4435 54.7227 44.5723 54.7884 44.6859 54.8735L44.0287 56.5562C43.6913 56.3827 43.3306 56.2521 42.9563 56.1679C42.5041 56.0603 42.0393 56.0059 41.5726 56.0061C41.2312 56.0098 40.8925 56.0644 40.5695 56.1679C40.2393 56.2697 39.9419 56.4478 39.7047 56.6856C39.4426 56.9516 39.2319 57.2582 39.082 57.5916C38.923 58.0294 38.8412 58.4884 38.8399 58.9507C38.8307 59.3537 38.8773 59.7561 38.9782 60.1479C39.0758 60.4962 39.2398 60.825 39.4625 61.1187C39.7078 61.3936 40.0149 61.6145 40.3619 61.7658C40.777 61.9305 41.2258 62.0078 41.6764 61.9923C41.9659 61.9895 42.2549 61.9679 42.5412 61.9276C42.7759 61.9065 43.0077 61.8631 43.233 61.7982C43.4093 61.7541 43.5826 61.7001 43.7519 61.6364C43.8838 61.5688 44.0229 61.5146 44.167 61.4746L44.7897 63.1572C44.3732 63.3904 43.9168 63.5546 43.4406 63.6426C42.7991 63.8096 42.1345 63.8859 41.4689 63.8691ZM32.9247 59.436C32.9237 59.2695 32.8884 59.1047 32.8209 58.9507C32.7612 58.8007 32.6797 58.6592 32.5787 58.53C32.4644 58.3977 32.3234 58.2877 32.1636 58.2064C31.967 58.1259 31.7555 58.0819 31.541 58.077C31.3247 58.0661 31.1093 58.1109 30.9183 58.2064C30.7536 58.2653 30.6098 58.3662 30.5032 58.4977C30.3836 58.6325 30.29 58.7858 30.2265 58.9507C30.1601 59.1179 30.1137 59.2916 30.0881 59.4684H32.9247V59.436ZM27.9088 60.1803C27.899 59.6166 28.0046 59.0565 28.2201 58.53C28.3972 58.087 28.6813 57.6883 29.0504 57.3651C29.3765 57.0592 29.7646 56.8172 30.1919 56.6532C30.6226 56.5 31.0801 56.4232 31.541 56.4267C32.493 56.3757 33.4234 56.705 34.1008 57.3328C34.7234 57.9476 35.0348 58.8536 35.0348 60.0508V60.4391C35.0348 60.5686 35.0002 60.698 35.0002 60.7951H30.1227C30.1443 61.1955 30.3778 61.5595 30.7454 61.7658C31.1831 62.0124 31.6875 62.136 32.1982 62.1218C32.5811 62.123 32.9634 62.0905 33.3397 62.0247C33.6605 61.9715 33.9738 61.8846 34.2737 61.7658L34.5505 63.3837C34.4053 63.4485 34.2549 63.5026 34.1008 63.5455C33.8864 63.6073 33.6664 63.6507 33.4435 63.675C33.2014 63.7073 32.9592 63.7397 32.6825 63.772C32.4183 63.7983 32.1526 63.8091 31.8869 63.8044C31.2839 63.8196 30.6838 63.7205 30.1227 63.5132C29.6491 63.3476 29.2229 63.0818 28.8774 62.7366C28.5318 62.4135 28.2815 62.0121 28.151 61.5717C27.9755 61.1267 27.8933 60.6543 27.9088 60.1803ZM26.4906 60.1479C26.4917 60.6659 26.3981 61.1803 26.2138 61.6687C26.0438 62.0997 25.7852 62.4955 25.4528 62.8336C25.1022 63.1654 24.6767 63.4197 24.2075 63.5779C23.6741 63.7529 23.1123 63.8405 22.5471 63.8367C22.2699 63.8408 21.9927 63.83 21.7169 63.8044L20.8867 63.7073C20.6188 63.6799 20.3531 63.6367 20.091 63.5779C19.8489 63.5132 19.6068 63.4808 19.4338 63.4161V53.5145L21.5785 53.1909V56.7179C21.8252 56.6232 22.0797 56.5474 22.3395 56.4914C22.6121 56.4365 22.8912 56.4147 23.1697 56.4267C23.6564 56.4218 24.139 56.5099 24.588 56.6856C24.9957 56.8475 25.3528 57.1036 25.6257 57.4298C25.9143 57.7754 26.126 58.1714 26.2484 58.5947C26.4208 59.0963 26.5026 59.6212 26.4906 60.1479ZM24.3113 60.0832C24.3113 58.7889 23.7924 58.1417 22.7892 58.1417C22.5687 58.1473 22.3489 58.1689 22.132 58.2064C21.9544 58.2598 21.781 58.3247 21.6131 58.4006V62.0571C21.749 62.0868 21.8889 62.0977 22.0282 62.0894C22.2011 62.0894 22.3741 62.1218 22.5471 62.1218C23.0555 62.1531 23.5477 61.9472 23.8616 61.5717C24.1734 61.1314 24.3306 60.611 24.3113 60.0832ZM17.3237 63.4485C16.9432 63.5455 16.4935 63.6426 15.9054 63.7397C15.3111 63.8322 14.7091 63.8755 14.1066 63.8691C13.5655 63.8912 13.025 63.8142 12.5154 63.6426C12.1239 63.5009 11.7783 63.2668 11.5122 62.9631C11.2644 62.6553 11.0877 62.3027 10.9934 61.9276C10.8784 61.4936 10.8203 61.0481 10.8204 60.6009V56.6532H12.9305V60.3421C12.9001 60.82 12.9951 61.2977 13.2072 61.7335C13.3802 62.0247 13.7261 62.1541 14.245 62.1541C14.4072 62.1584 14.5694 62.1475 14.7293 62.1218C14.9022 62.1218 15.0406 62.0894 15.179 62.0894V56.6209H17.3237L17.3237 63.4485ZM7.43038 63.675C7.22283 63.3837 6.98069 63.0278 6.70395 62.6719C6.42574 62.3005 6.12547 61.944 5.80456 61.604C5.49323 61.2481 5.14731 60.9245 4.80139 60.5686C4.47295 60.2597 4.1265 59.968 3.76363 59.6949V63.6426H1.51514V54.3235H3.76361V57.8505C4.35168 57.2681 4.93974 56.6856 5.5278 56.0384C6.11587 55.4236 6.66934 54.8412 7.18822 54.3235H9.8518C9.15996 55.0677 8.50271 55.8119 7.81087 56.4915C7.11903 57.2033 6.3926 57.8829 5.63158 58.5947C6.47201 59.2628 7.24758 59.9991 7.94924 60.7951C8.72406 61.6922 9.44026 62.6323 10.0939 63.6102H7.43036L7.43038 63.675Z" fill="white"/>
<path fill-rule="evenodd" clip-rule="evenodd" d="M25.4184 22.5154L24.1731 22.7742C24.1731 22.6124 24.1385 22.4506 24.1385 22.2889C24.1344 21.0569 24.4935 19.8477 25.1762 18.7942L27.5977 20.8004C27.6371 20.8403 27.684 20.8732 27.736 20.8974C27.5873 21.2385 27.4941 21.5984 27.4593 21.9653C27.3901 21.9976 27.2863 21.9976 27.2172 22.03L25.4184 22.5154ZM30.1229 15.6554V18.8265C29.7855 18.9249 29.4693 19.0782 29.1889 19.2795C29.0851 19.2148 28.9814 19.1178 28.8776 19.053L26.4216 17.4351C27.4271 16.4959 28.7211 15.8737 30.1229 15.6554ZM13.2766 22.9684C14.4527 18.147 15.4559 14.0699 16.632 9.24853C17.1509 7.08054 17.4968 6.49809 19.6069 5.36556C22.5127 3.78001 24.6919 2.64747 27.8052 0.96485C29.7424 -0.0706122 30.1229 -0.00589317 30.1229 2.22681V13.4227C27.9546 13.6707 25.9474 14.6209 24.4498 16.1084L23.412 15.4289C23.2842 15.3598 23.1956 15.2414 23.1699 15.1053C23.0735 14.8001 22.8805 14.5294 22.6164 14.3287C22.1289 13.9628 21.4165 14.0359 21.0254 14.492C20.6347 14.9474 20.712 15.6127 21.1982 15.979C21.3552 16.1091 21.5461 16.1984 21.7516 16.2379C21.89 16.2702 22.0284 16.2702 22.1667 16.3026C22.2787 16.3258 22.3846 16.3698 22.4781 16.432L23.4466 17.241C22.383 18.7121 21.8165 20.4482 21.8208 22.2241C21.8208 22.5477 21.8554 22.8713 21.89 23.1949L19.7799 23.6155C19.6292 23.6114 19.4784 23.6222 19.3302 23.6479L19.0189 23.745C17.6352 24.0038 16.2515 24.2951 14.8332 24.5863C12.9307 25.0069 12.8615 24.651 13.2766 22.9684ZM32.5789 18.8265V15.6554C33.9678 15.8897 35.2538 16.4968 36.2802 17.4028L33.6167 19.1825C33.5821 19.2148 33.5475 19.2472 33.5129 19.2472C33.2233 19.0682 32.9091 18.9267 32.5789 18.8265ZM38.5287 22.5477L35.2079 21.8358C35.1734 21.5002 35.0799 21.1722 34.9312 20.8651C34.9658 20.8327 35.0003 20.8004 35.0349 20.8004L37.491 18.7618C38.1889 19.8226 38.56 21.0432 38.5633 22.2889C38.5326 22.3719 38.5208 22.4601 38.5287 22.5477ZM34.2047 5.43027C36.0035 6.23923 37.2834 6.82167 39.0822 7.63063C41.5728 8.76316 44.0634 9.89569 46.5886 10.9959C47.2113 13.5198 47.834 16.0437 48.422 18.5677C48.8025 20.0885 48.9755 20.8975 49.356 22.3859C49.9441 24.7481 49.8749 24.9422 47.2805 24.3921L40.881 23.0331C40.9098 22.7752 40.9213 22.5158 40.9156 22.2565C40.9293 20.4643 40.3492 18.7122 39.2552 17.241L40.1546 16.4644C40.263 16.3786 40.3947 16.3226 40.5351 16.3026C40.8726 16.2785 41.1962 16.1664 41.469 15.979C41.9562 15.6127 42.0337 14.9462 41.642 14.4905C41.2504 14.0348 40.5379 13.9624 40.0508 14.3288C39.8772 14.4481 39.7352 14.6031 39.6357 14.7818C39.5665 14.9112 39.5319 15.0083 39.4627 15.1377C39.4259 15.243 39.3529 15.334 39.2552 15.3966L38.2174 16.0761C36.715 14.5945 34.7103 13.6454 32.5443 13.3904V6.56281C32.5789 4.97727 32.7173 4.78311 34.2047 5.43027ZM31.9908 25.8159C31.7742 25.8551 31.5543 25.8768 31.3336 25.8806C31.1254 25.886 30.9172 25.8751 30.7109 25.8482L30.6072 26.0424L29.0851 28.6634C29.8206 28.8967 30.5916 29.0169 31.3682 29.0193C32.1558 29.0143 32.9378 28.8942 33.6858 28.6634L32.1638 26.0748C32.094 25.9961 32.0358 25.9091 31.9908 25.8159ZM34.689 24.1009L38.0098 24.8128C37.4631 26.0689 36.5224 27.1407 35.3117 27.8868L33.9972 24.9099C34.2567 24.663 34.4885 24.392 34.689 24.1009ZM24.6919 24.7804L28.0128 24.0686C28.2161 24.3765 28.4602 24.6591 28.7392 24.9099L28.6354 25.104L27.4247 27.8868C26.1935 27.1393 25.2391 26.0545 24.6919 24.7804ZM51.8812 30.249C50.29 32.0934 49.5636 32.967 47.9723 34.8114C46.1735 36.9147 44.7207 38.6297 42.9219 40.733C41.642 42.2538 40.708 42.2862 38.5979 42.2862H24.0693C21.3019 42.2862 21.0944 42.2862 19.3994 40.28C17.7044 38.3061 16.3899 36.7529 14.7295 34.7791C13.415 33.2259 13.069 32.8376 11.7546 31.2844C9.71363 28.8899 9.36771 28.0162 12.5502 27.3691L22.3743 25.2982C23.1378 27.2453 24.5903 28.8895 26.4907 29.9577L26.041 30.9285C25.9881 31.0529 25.8902 31.156 25.7643 31.2197C25.4604 31.3693 25.2173 31.608 25.0725 31.8992C24.7947 32.4261 25.026 33.0638 25.5892 33.3236C26.1525 33.5835 26.8342 33.3671 27.112 32.8402C27.1125 32.8393 27.1129 32.8385 27.1134 32.8376C27.2072 32.6545 27.2657 32.4573 27.2863 32.2552C27.292 32.1249 27.2804 31.9944 27.2517 31.8669C27.241 31.755 27.2651 31.6427 27.3209 31.5433L27.8744 30.6049C28.9689 30.9911 30.1292 31.1884 31.299 31.1873C32.4837 31.1933 33.6584 30.9845 34.7582 30.5725L35.3117 31.5109C35.3872 31.6272 35.412 31.7663 35.3808 31.8992C35.3217 32.2073 35.3702 32.525 35.5192 32.8052C35.7951 33.333 36.4761 33.5515 37.0402 33.2934C37.6044 33.0354 37.838 32.3984 37.5621 31.8707C37.5615 31.8694 37.5608 31.8681 37.5601 31.8669C37.4739 31.6804 37.3438 31.5145 37.1796 31.3815C37.0727 31.2953 36.9568 31.2194 36.8337 31.155C36.7288 31.0997 36.6535 31.0058 36.6261 30.8961L36.1764 29.8607C38.0762 28.8001 39.5201 27.1519 40.2583 25.2011L51.0856 27.4985C53.2649 28.0486 53.1265 28.7605 51.8812 30.249Z" fill="white"/>
<path fill-rule="evenodd" clip-rule="evenodd" d="M32.5788 18.8266V15.6555C33.9677 15.8897 35.2537 16.4968 36.2801 17.4028L33.6166 19.1825C33.582 19.2149 33.5474 19.2472 33.5128 19.2472C33.2232 19.0682 32.909 18.9267 32.5788 18.8266ZM38.5286 22.5477L35.2078 21.8359C35.1733 21.5002 35.0798 21.1723 34.9311 20.8651C34.9657 20.8328 35.0002 20.8004 35.0348 20.8004L37.4909 18.7618C38.1888 19.8227 38.5599 21.0432 38.5632 22.2889C38.5325 22.372 38.5207 22.4601 38.5286 22.5477ZM34.2046 5.4303C36.0034 6.23926 37.2833 6.8217 39.0821 7.63066C41.5727 8.76319 44.0633 9.89572 46.5885 10.9959C47.2112 13.5198 47.8339 16.0438 48.4219 18.5677C48.8024 20.0885 48.9754 20.8975 49.3559 22.386C49.944 24.7481 49.8748 24.9423 47.2804 24.3922L40.8809 23.0331C40.9097 22.7752 40.9212 22.5158 40.9155 22.2565C40.9292 20.4644 40.3491 18.7123 39.255 17.241L40.1544 16.4644C40.2629 16.3786 40.3946 16.3226 40.535 16.3026C40.8725 16.2786 41.1961 16.1665 41.4689 15.9791C41.9561 15.6127 42.0335 14.9463 41.6419 14.4906C41.2503 14.0349 40.5378 13.9624 40.0507 14.3288C39.8771 14.4481 39.7351 14.6031 39.6356 14.7818C39.5664 14.9112 39.5318 15.0083 39.4626 15.1377C39.4258 15.2431 39.3528 15.334 39.255 15.3966L38.2173 16.0761C36.7149 14.5945 34.7102 13.6454 32.5442 13.3904V6.56285C32.5788 4.9773 32.7172 4.78314 34.2046 5.4303ZM34.6889 24.1009L38.0097 24.8128C37.463 26.069 36.5223 27.1407 35.3116 27.8868L33.9971 24.9099C34.2566 24.6631 34.4884 24.392 34.6889 24.1009ZM31.3335 28.987V25.8806C31.554 25.8751 31.7738 25.8535 31.9907 25.8159C32.0235 25.8979 32.0702 25.9744 32.1291 26.0424L33.6512 28.6311C32.9031 28.8619 32.1211 28.982 31.3335 28.987ZM51.8811 30.249C50.2899 32.0934 49.5635 32.9671 47.9722 34.8115C46.1734 36.9148 44.7206 38.6297 42.9218 40.733C41.6419 42.2539 40.7079 42.2862 38.5978 42.2862H31.3681V31.1874C32.5528 31.1933 33.7275 30.9845 34.8273 30.5726L35.3807 31.511C35.4563 31.6273 35.4811 31.7663 35.4499 31.8993C35.3907 32.2073 35.4393 32.525 35.5883 32.8053C35.8664 33.332 36.5483 33.548 37.1114 33.2878C37.6728 33.0284 37.9043 32.3931 37.6292 31.8669C37.543 31.6804 37.4129 31.5145 37.2487 31.3815C37.1418 31.2953 37.0259 31.2195 36.9028 31.155C36.7979 31.0997 36.7226 31.0058 36.6952 30.8962L36.2455 29.8607C38.1453 28.8002 39.5891 27.152 40.3274 25.2011L51.1547 27.4986C53.2648 28.0486 53.1264 28.7605 51.8811 30.249Z" fill="white"/>
<path d="M132.135 29.8609H126.393V42.4158H139.78V37.0444H132.135V29.8609ZM160.881 29.8932V37.0444H153.271L153.201 36.9797V42.4158H166.623V29.8609H160.846L160.881 29.8932ZM126.393 17.3059H132.169L132.135 17.2736V10.1224H139.745L139.78 10.1871V4.75098H126.393V17.3059ZM153.201 4.75098V10.1224H160.881V17.3059H166.623V4.75098H153.201Z" fill="white"/>
<g opacity="0.8">
<path d="M152.509 17.3059L144.83 10.1224H153.201V4.75098H139.779V10.1871L147.424 17.3059H152.509ZM145.591 29.8609H140.506L146.87 35.8148L148.185 37.0444H139.779V42.4158H153.201V36.9797L149.396 33.4203L145.591 29.8609ZM160.88 17.3059V25.1366L159.566 23.907L153.201 17.9854V22.7421L157.04 26.3015L160.846 29.8609H166.622V17.3059L160.88 17.3059ZM139.779 24.4247L132.169 17.3059H126.357V29.8609H132.134V22.0302L139.779 29.1814V24.4247Z" fill="white"/>
</g>
<path d="M98.303 56.1033L96.8501 57.7212C96.2422 57.006 95.3349 56.5699 94.3595 56.5239C92.8252 56.5286 91.5855 57.6959 91.5906 59.131C91.5906 59.1572 91.5912 59.1834 91.5921 59.2096C91.5921 60.7628 92.7682 61.9277 94.3595 61.9277C95.3112 61.8785 96.2048 61.4838 96.8501 60.8275L98.3375 62.2837C97.2553 63.3099 95.7956 63.9116 94.2557 63.9663C91.2808 63.9663 89.0669 61.9277 89.0669 59.2096C89.0669 56.5239 91.35 54.5177 94.3595 54.5177C95.839 54.5692 97.245 55.1344 98.303 56.1033ZM99.5137 63.8692V54.0647H101.97V63.8692H99.5137ZM111.69 60.3098C111.69 62.5102 110.03 63.9663 107.539 63.9663C105.048 63.9663 103.353 62.5102 103.353 60.3098C103.353 58.1095 105.014 56.6857 107.539 56.6857C110.03 56.6857 111.69 58.1095 111.69 60.3098ZM105.809 60.3422C105.809 61.4424 106.501 62.1866 107.504 62.1866C108.508 62.1866 109.199 61.4424 109.199 60.3422C109.199 59.242 108.508 58.4978 107.504 58.4978C106.501 58.4978 105.809 59.242 105.809 60.3422ZM120.442 63.8692H117.986V62.7043C117.478 63.5318 116.514 64.0201 115.495 63.9663C113.835 63.9663 112.762 62.8985 112.762 61.2482V56.7504H115.218V60.601C115.218 61.4424 115.703 61.9601 116.498 61.9601C117.432 61.9601 117.986 61.2482 117.986 60.2775V56.7504H120.442V63.8692ZM130.058 63.8692H127.602V62.9308C127.06 63.5948 126.213 63.979 125.319 63.9663C123.175 63.9663 121.756 62.4778 121.756 60.2775C121.756 58.1095 123.14 56.6533 125.25 56.6533C126.168 56.6183 127.046 57.0049 127.602 57.6888V54.0647H130.058L130.058 63.8692ZM127.602 60.3422C127.602 59.242 126.91 58.4978 125.907 58.4978C124.904 58.4978 124.212 59.242 124.212 60.3422C124.212 61.4424 124.904 62.219 125.907 62.219C126.945 62.1866 127.602 61.4424 127.602 60.3422ZM139.018 63.8692L134.452 58.1742V63.8692H132.099V54.6148H134.313L138.879 60.3422V54.6148H141.232V63.8692H139.018ZM149.949 59.2096V63.8692H147.562V63.0603C147.078 63.6751 146.247 63.9986 145.244 63.9986C143.618 63.9986 142.615 63.0603 142.615 61.7659C142.615 60.4069 143.653 59.6303 145.556 59.5979H147.562V59.5009C147.562 58.789 147.078 58.3683 146.074 58.3683C145.279 58.4143 144.502 58.6125 143.791 58.9508L143.1 57.4299C144.193 56.9085 145.401 56.6316 146.628 56.621C148.738 56.6533 149.949 57.6241 149.949 59.2096ZM147.562 61.4747V60.8275H146.005C145.279 60.8275 144.898 61.0541 144.898 61.6041C144.898 62.1219 145.279 62.4455 145.971 62.4455C146.673 62.4892 147.322 62.0935 147.562 61.4747ZM156.556 63.5133C155.928 63.8289 155.227 63.9955 154.515 63.9986C153.027 63.9986 151.99 63.2221 151.99 61.7336V58.5948H150.917V57.1064H151.99V55.1325H154.411V57.1064H156.417V58.6272H154.411V61.41C154.411 61.9601 154.653 62.219 155.103 62.1866C155.426 62.161 155.742 62.0844 156.037 61.9601L156.556 63.5133ZM160.292 54.7119C160.32 55.3644 159.777 55.9146 159.079 55.9406C159.057 55.9415 159.034 55.9417 159.012 55.9415C158.295 55.9326 157.722 55.3821 157.732 54.7119C157.741 54.0543 158.309 53.5233 159.012 53.5146C159.683 53.4808 160.256 53.9621 160.292 54.5895C160.294 54.6303 160.294 54.6711 160.292 54.7119ZM157.767 63.8692V56.7504H160.188V63.8692H157.767ZM163.993 63.8692L161.122 56.7504H163.647L165.273 61.7983L166.933 56.7504H169.355L166.484 63.8692H163.993ZM177.449 60.9246H172.088C172.263 61.717 173.022 62.2768 173.886 62.2513C174.572 62.2387 175.226 61.9845 175.72 61.5394L177 62.7043C176.14 63.555 174.929 64.0154 173.679 63.9663C171.188 63.9663 169.632 62.5102 169.632 60.3422C169.632 58.1418 171.257 56.6857 173.61 56.6857C176.273 56.6857 177.588 58.336 177.449 60.9246ZM175.097 59.695C175.165 58.9562 174.579 58.306 173.789 58.2427C173.73 58.2379 173.67 58.2367 173.61 58.2389C172.745 58.2389 172.191 58.8213 172.018 59.695H175.097ZM187.412 56.1033L185.959 57.7212C185.351 57.006 184.444 56.5699 183.468 56.5239C181.934 56.5286 180.694 57.6959 180.699 59.131C180.699 59.1572 180.7 59.1834 180.701 59.2096C180.701 60.7628 181.877 61.9277 183.468 61.9277C184.42 61.8785 185.314 61.4838 185.959 60.8275L187.446 62.2837C186.364 63.3099 184.904 63.9116 183.365 63.9663C180.39 63.9663 178.176 61.9277 178.176 59.2096C178.176 56.5239 180.459 54.5177 183.468 54.5177C184.946 54.5755 186.35 55.1399 187.412 56.1033ZM195.956 60.3098C195.956 62.5102 194.296 63.9663 191.805 63.9663C189.314 63.9663 187.619 62.5102 187.619 60.3098C187.619 58.1095 189.28 56.6857 191.805 56.6857C194.296 56.6857 195.956 58.1095 195.956 60.3098ZM190.11 60.3422C190.11 61.4424 190.802 62.1866 191.805 62.1866C192.808 62.1866 193.5 61.4424 193.5 60.3422C193.5 59.242 192.808 58.4978 191.805 58.4978C190.802 58.4978 190.11 59.242 190.11 60.3422ZM205.054 59.3714V63.8692H202.632V60.0186C202.632 59.1773 202.113 58.6596 201.283 58.6596C200.384 58.6596 199.83 59.242 199.727 60.1157V63.9016H197.271V56.7828H199.727V57.9477C200.265 57.1165 201.249 56.631 202.286 56.6857C203.947 56.6534 205.054 57.7212 205.054 59.3714Z" fill="white"/>
<path d="M75.9917 0.576416H76.3376V66.4252H75.9917V0.576416Z" fill="white"/>
<path d="M75.9917 0.576416H76.3376V66.4252H75.9917V0.576416Z" fill="white"/>
<path d="M75.9917 0.576416H76.3376V66.4252H75.9917V0.576416Z" fill="white"/>
<path d="M76.3376 0.576416H75.9917V66.4252H76.3376V0.576416Z" fill="white"/>
<mask id="mask0_138_1268" style="mask-type:luminance" maskUnits="userSpaceOnUse" x="75" y="0" width="2" height="67">
<path d="M76.3376 0.576416H75.9917V66.4252H76.3376V0.576416Z" fill="white"/>
</mask>
<g mask="url(#mask0_138_1268)">
<path d="M75.9917 0.576416H76.3376V66.4252H75.9917V0.576416Z" fill="white"/>
</g>
<path d="M142.399 117.179H205.054V117.502H142.399V117.179Z" fill="white"/>
<path d="M1.51514 117.179H62.6932V117.502H1.51514V117.179Z" fill="white"/>
<path d="M62.6932 117.179H1.51514V117.502H62.6932V117.179Z" fill="white"/>
<mask id="mask1_138_1268" style="mask-type:luminance" maskUnits="userSpaceOnUse" x="1" y="117" width="62" height="1">
<path d="M62.6932 117.179H1.51514V117.502H62.6932V117.179Z" fill="white"/>
</mask>
<g mask="url(#mask1_138_1268)">
<path d="M1.51514 117.179H62.6932V117.502H1.51514V117.179Z" fill="white"/>
</g>
<path d="M70.9429 116.815C70.9429 114.702 72.909 112.928 75.2264 112.928C76.4435 112.928 77.5553 113.41 78.3394 114.187L77.0872 115.238C76.6307 114.735 75.952 114.395 75.2264 114.395C73.8686 114.395 72.7217 115.512 72.7217 116.815C72.7217 118.129 73.8686 119.245 75.2264 119.245C75.9637 119.245 76.6307 118.906 77.0872 118.402L78.3394 119.453C77.5553 120.219 76.4435 120.712 75.2264 120.712C72.909 120.712 70.9429 118.928 70.9429 116.815Z" fill="white"/>
<path d="M85.1287 116.979V120.581H83.4902V117.319C83.4902 116.618 83.0105 116.136 82.3316 116.136C81.6176 116.136 81.0677 116.618 81.0677 117.231V120.581H79.3589V112.928H81.0677V115.611C81.4423 115.107 82.1093 114.789 82.8934 114.789C84.2042 114.789 85.1287 115.687 85.1287 116.979Z" fill="white"/>
<path d="M86.4048 113.268C86.4048 112.819 86.8144 112.414 87.3411 112.414C87.8444 112.414 88.254 112.819 88.254 113.268C88.254 113.75 87.8444 114.144 87.3411 114.144C86.8144 114.144 86.4048 113.75 86.4048 113.268ZM86.4749 114.921H88.1836V120.581H86.4749V114.921Z" fill="white"/>
<path d="M95.4175 116.979V120.581H93.7788V117.318C93.7788 116.618 93.2989 116.136 92.6203 116.136C91.9062 116.136 91.3562 116.618 91.3562 117.23V120.581H89.6475V114.921H91.3562V115.61C91.7307 115.107 92.398 114.789 93.1819 114.789C94.4929 114.789 95.4175 115.687 95.4175 116.979Z" fill="white"/>
<path d="M101.984 117.198V120.581H100.334V120.011C99.9011 120.46 99.2104 120.712 98.5434 120.712C97.2562 120.712 96.2729 119.989 96.2729 118.906C96.2729 117.789 97.3846 117.023 98.7776 117.023C99.269 117.023 99.8191 117.121 100.334 117.318V117.198C100.334 116.596 99.9245 116.07 98.9294 116.07C98.3678 116.07 97.8412 116.245 97.3612 116.475L96.7878 115.413C97.6422 115.008 98.4732 114.789 99.3158 114.789C100.896 114.789 101.984 115.72 101.984 117.198ZM100.334 118.796V118.281C99.9479 118.139 99.4914 118.063 99.0233 118.063C98.4031 118.063 97.8998 118.402 97.8998 118.862C97.8998 119.322 98.3445 119.606 98.9294 119.606C99.5849 119.606 100.205 119.322 100.334 118.796Z" fill="white"/>
<path d="M105.976 119.267L108.936 117.121C109.896 116.41 110.201 115.917 110.201 115.392C110.201 114.768 109.639 114.395 108.983 114.395C108.199 114.395 107.602 114.768 107.017 115.392L105.917 114.395C106.713 113.454 107.731 112.928 109.03 112.928C110.739 112.928 111.979 113.913 111.979 115.326C111.979 116.333 111.511 117.111 110.107 118.063L108.644 119.125H112.049V120.581H105.976L105.976 119.267Z" fill="white"/>
<path d="M113.034 116.815C113.034 114.538 114.532 112.928 116.651 112.928C118.769 112.928 120.255 114.538 120.255 116.815C120.255 119.103 118.769 120.712 116.651 120.712C114.532 120.712 113.034 119.103 113.034 116.815ZM118.488 116.815C118.488 115.403 117.727 114.395 116.651 114.395C115.574 114.395 114.813 115.403 114.813 116.815C114.813 118.227 115.574 119.245 116.651 119.245C117.727 119.245 118.488 118.227 118.488 116.815Z" fill="white"/>
<path d="M121.122 119.267L124.083 117.121C125.043 116.41 125.347 115.917 125.347 115.392C125.347 114.768 124.785 114.395 124.13 114.395C123.346 114.395 122.749 114.768 122.164 115.392L121.063 114.395C121.859 113.454 122.877 112.928 124.177 112.928C125.885 112.928 127.126 113.913 127.126 115.326C127.126 116.333 126.658 117.111 125.253 118.063L123.79 119.125H127.196V120.581H121.122L121.122 119.267Z" fill="white"/>
<path d="M127.935 119.453L128.953 118.38C129.527 118.95 130.287 119.267 131.095 119.267C131.973 119.267 132.499 118.884 132.499 118.348C132.499 117.767 132.007 117.472 130.931 117.483H130.006V116.103L130.931 116.114C131.808 116.114 132.335 115.807 132.335 115.271C132.335 114.724 131.774 114.374 130.977 114.374C130.228 114.374 129.632 114.724 129.093 115.249L128.099 114.264C128.766 113.509 129.725 112.928 131.153 112.928C132.955 112.928 134.091 113.793 134.091 114.987C134.091 115.852 133.471 116.475 132.581 116.716C133.459 116.902 134.266 117.483 134.266 118.479C134.266 119.782 133.049 120.723 131.165 120.723C129.725 120.723 128.613 120.187 127.935 119.453Z" fill="white"/>
</svg>
