<svg width="318" height="110" viewBox="0 0 318 110" fill="none" xmlns="http://www.w3.org/2000/svg">
<g clip-path="url(#clip0_1_590)">
<path d="M83.1776 94.0607C83.7719 93.9008 84.4729 93.7372 85.3873 93.5774C86.3131 93.4252 87.2503 93.3529 88.1914 93.3605C89.0334 93.3224 89.8754 93.4518 90.6716 93.7372C91.2812 93.9731 91.8184 94.3613 92.2337 94.8674C92.6299 95.3735 92.908 95.9633 93.0414 96.5912C93.2166 97.3142 93.3081 98.0562 93.3119 98.7983V105.477H90.0239V99.1788C90.0773 98.3987 89.9287 97.6224 89.5934 96.9184C89.3229 96.4884 88.7857 96.2715 87.978 96.2715C87.7266 96.2639 87.4713 96.283 87.2237 96.3248C86.9532 96.3248 86.7398 96.3781 86.5227 96.3781V105.477H83.1814V94.0607H83.1776ZM77.0322 99.4984C77.0703 98.6499 76.8646 97.8089 76.4379 97.0745C75.6645 96.0927 74.2396 95.9253 73.2566 96.6977C73.1156 96.8081 72.9899 96.9337 72.8794 97.0745C72.4108 97.7937 72.186 98.6423 72.2317 99.4984C72.1936 100.37 72.4184 101.234 72.8794 101.976C73.5804 102.957 74.9444 103.186 75.9273 102.486C76.1255 102.345 76.2969 102.174 76.4379 101.976C76.8608 101.222 77.0665 100.362 77.0322 99.4984ZM80.4268 99.4984C80.4459 100.358 80.3163 101.215 80.0496 102.029C79.7944 102.767 79.3905 103.445 78.8648 104.023C77.7866 105.187 76.2474 105.819 74.6587 105.747C73.8471 105.747 73.0433 105.602 72.2851 105.317C71.5917 105.02 70.9669 104.579 70.4525 104.023C69.923 103.448 69.5191 102.771 69.2676 102.029C68.6924 100.393 68.6924 98.6042 69.2676 96.9679C69.5343 96.2525 69.9344 95.5904 70.4525 95.031C70.9669 94.4945 71.5917 94.0721 72.2851 93.7943C73.0166 93.4861 73.809 93.3415 74.6015 93.3643C75.394 93.3643 76.1788 93.5089 76.9179 93.7943C77.5999 94.0911 78.2209 94.5135 78.7505 95.031C79.2686 95.5942 79.6725 96.2525 79.9353 96.9679C80.2668 97.7708 80.4306 98.6308 80.4192 99.4984M62.2536 105.743C59.7201 105.743 57.7808 105.043 56.4855 103.642C55.1368 102.242 54.4891 100.252 54.4891 97.6643C54.4776 96.4884 54.6796 95.324 55.0834 94.2167C55.8149 92.2988 57.3503 90.8033 59.2895 90.126C60.3068 89.7531 61.385 89.5704 62.4708 89.5894C63.069 89.5856 63.6633 89.6389 64.25 89.7493C64.7872 89.8558 65.2749 89.9662 65.6521 90.0727C65.9988 90.1792 66.3417 90.3048 66.6769 90.4494C66.8903 90.5217 67.0922 90.6321 67.2713 90.7729L66.2464 93.5736C65.7206 93.2844 65.1568 93.0675 64.5739 92.9267C63.869 92.7478 63.1452 92.6565 62.4175 92.6565C61.8841 92.6641 61.3583 92.7554 60.8554 92.9267C60.3411 93.0979 59.8763 93.3909 59.5067 93.7867C59.099 94.2281 58.7714 94.738 58.5352 95.2936C58.2875 96.0204 58.1618 96.7853 58.158 97.5539C58.1428 98.2237 58.2152 98.8934 58.3752 99.5479C58.5276 100.126 58.7828 100.674 59.1295 101.161C59.5105 101.618 59.9906 101.987 60.5316 102.238C61.1793 102.512 61.8765 102.642 62.5813 102.615C63.0309 102.611 63.4842 102.573 63.93 102.508C64.2957 102.474 64.6577 102.402 65.0082 102.292C65.2825 102.219 65.553 102.128 65.8159 102.021C66.0216 101.907 66.2388 101.82 66.4636 101.751L67.4351 104.552C66.7874 104.94 66.075 105.214 65.332 105.359C64.3338 105.636 63.2976 105.762 62.2575 105.735M48.9419 98.3607C48.9419 98.0829 48.8847 97.8089 48.7819 97.5539C48.6904 97.3028 48.5609 97.0707 48.4047 96.8538C48.2256 96.6331 48.0085 96.4504 47.757 96.3172C47.4522 96.184 47.1207 96.1117 46.7855 96.1003C46.4502 96.0813 46.1111 96.1574 45.814 96.3172C45.5587 96.4161 45.3339 96.5836 45.1663 96.8005C44.9796 97.025 44.8348 97.2799 44.7358 97.5539C44.6329 97.8317 44.5605 98.1209 44.5186 98.4139H48.9381V98.3607H48.9419ZM41.124 99.5974C41.1087 98.6613 41.2726 97.729 41.6078 96.8499C41.8821 96.1117 42.3279 95.4496 42.9032 94.913C43.4099 94.4031 44.0157 93.9998 44.6824 93.7296C45.353 93.4746 46.0654 93.3453 46.7855 93.3529C48.2675 93.2692 49.7191 93.8171 50.7744 94.8598C51.746 95.8834 52.2298 97.3903 52.2298 99.3843V100.031C52.2298 100.248 52.1765 100.461 52.1765 100.625H44.5757C44.61 101.291 44.972 101.896 45.5473 102.238C46.2292 102.649 47.0141 102.855 47.8103 102.832C48.4085 102.832 49.0028 102.779 49.5896 102.672C50.0887 102.585 50.5763 102.44 51.0449 102.242L51.4755 104.932C51.2507 105.039 51.0145 105.13 50.7744 105.203C50.4392 105.305 50.0963 105.378 49.7496 105.42C49.3724 105.473 48.9952 105.526 48.5647 105.579C48.1532 105.621 47.7379 105.64 47.3265 105.633C46.3854 105.659 45.452 105.492 44.5757 105.149C43.8366 104.875 43.1737 104.43 42.6365 103.856C42.0993 103.319 41.7069 102.649 41.505 101.919C41.2307 101.177 41.1049 100.393 41.1278 99.605M38.918 99.5517C38.918 100.416 38.7733 101.268 38.4875 102.082C38.2208 102.798 37.8208 103.46 37.3027 104.019C36.7578 104.571 36.0949 104.993 35.3634 105.256C34.5329 105.549 33.6566 105.693 32.7765 105.686C32.346 105.693 31.9117 105.674 31.4811 105.633L30.1858 105.473C29.7667 105.427 29.3552 105.355 28.9476 105.256C28.5704 105.149 28.1932 105.096 27.9227 104.986V88.5087L31.264 87.9722V93.84C31.6488 93.6839 32.045 93.5546 32.4489 93.4632C32.8717 93.3719 33.3099 93.3338 33.7442 93.3567C34.5024 93.3491 35.2529 93.4937 35.954 93.7867C36.5902 94.0569 37.1465 94.4831 37.5693 95.0234C38.0189 95.598 38.3504 96.2563 38.5409 96.9603C38.8076 97.7937 38.9371 98.6689 38.918 99.5441M35.5234 99.4376C35.5234 97.2838 34.7157 96.2069 33.1499 96.2069C32.807 96.2145 32.4641 96.2525 32.125 96.3134C31.8469 96.4009 31.5764 96.5113 31.3173 96.6369V102.722C31.5307 102.771 31.7478 102.79 31.965 102.775C32.2355 102.775 32.5022 102.828 32.7727 102.828C33.5651 102.881 34.3309 102.539 34.8224 101.911C35.3101 101.177 35.5539 100.313 35.5234 99.4338M24.6348 105.035C24.0404 105.195 23.3394 105.359 22.425 105.518C21.4992 105.671 20.562 105.743 19.6209 105.735C18.779 105.773 17.937 105.644 17.1407 105.359C16.5311 105.123 15.9939 104.735 15.5786 104.228C15.1938 103.715 14.9157 103.129 14.771 102.505C14.5919 101.782 14.5005 101.04 14.5005 100.298V93.7296H17.7884V99.8676C17.7427 100.663 17.8874 101.458 18.2189 102.181C18.4894 102.664 19.0266 102.881 19.8343 102.881C20.0858 102.889 20.341 102.87 20.5887 102.828C20.8592 102.828 21.0725 102.775 21.2897 102.775V93.6763H24.631V105.039L24.6348 105.035ZM9.21613 105.412C8.89229 104.929 8.51511 104.335 8.08459 103.741C7.65026 103.125 7.18165 102.531 6.68255 101.964C6.1987 101.371 5.65769 100.834 5.12049 100.24C4.60997 99.7268 4.06896 99.2397 3.5051 98.7869V105.355H0V89.8482H3.5051V95.716C4.42329 94.7456 5.33766 93.7791 6.25584 92.7022C7.17403 91.6785 8.03506 90.7082 8.84276 89.8482H12.9917C11.9135 91.0849 10.8887 92.3254 9.81047 93.4556C8.73227 94.6391 7.60074 95.7692 6.41586 96.9565C7.72646 98.0676 8.9342 99.293 10.0276 100.617C11.2354 102.109 12.3517 103.673 13.3689 105.302H9.21994V105.408L9.21613 105.412Z" fill="black"/>
<path fill-rule="evenodd" clip-rule="evenodd" d="M37.2497 36.9339L35.3104 37.3639C35.3104 37.0937 35.2571 36.8273 35.2571 36.5571C35.2495 34.5061 35.8095 32.4969 36.8725 30.7426L40.6443 34.0799C40.7052 34.1446 40.7776 34.2017 40.8614 34.2397C40.629 34.8067 40.4843 35.4079 40.4309 36.0168C40.3243 36.0701 40.1604 36.0701 40.0537 36.1233L37.2497 36.9301V36.9339ZM44.5799 25.5179V30.7959C44.0541 30.9595 43.5627 31.2145 43.1245 31.5494C42.9645 31.4428 42.8007 31.2792 42.6407 31.1726L38.8117 28.4823C40.3776 26.9183 42.3968 25.8833 44.5799 25.5217M18.3259 37.6911C20.1585 29.6695 21.7205 22.8847 23.5531 14.8631C24.3608 11.2557 24.9018 10.2853 28.1897 8.40167C32.7197 5.76459 36.1143 3.87716 40.9643 1.08026C43.9817 -0.643544 44.5761 -0.53319 44.5761 3.18079V21.8116C41.1967 22.2225 38.0688 23.8056 35.7371 26.279L34.1217 25.1488C33.9236 25.0347 33.7827 24.8368 33.7446 24.6123C33.596 24.1062 33.295 23.6533 32.8835 23.3185C32.1254 22.7096 31.0129 22.8314 30.4033 23.5887C29.7937 24.3459 29.9156 25.4533 30.6738 26.0621C30.9176 26.279 31.2148 26.4274 31.5348 26.4921C31.752 26.5454 31.9653 26.5454 32.1825 26.5986C32.3578 26.6367 32.5216 26.709 32.6664 26.8156L34.1751 28.1626C32.5178 30.6094 31.6339 33.4977 31.6415 36.4544C31.6415 36.9909 31.6948 37.5313 31.7482 38.0678L28.4602 38.768C28.224 38.7604 27.9916 38.7794 27.7592 38.8213L27.2754 38.9811C25.119 39.4111 22.9626 39.8982 20.7528 40.3815C17.7887 41.0816 17.6783 40.488 18.3259 37.6911ZM48.405 30.7997V25.5217C50.5691 25.9099 52.5731 26.9221 54.1732 28.429L50.0242 31.3895C49.9709 31.4428 49.9176 31.4961 49.8642 31.4961C49.4147 31.1993 48.9232 30.9633 48.4088 30.7959M57.6821 36.9871L52.5083 35.8037C52.455 35.2443 52.3102 34.7001 52.0778 34.1902C52.1311 34.137 52.1844 34.0837 52.2378 34.0837L56.0667 30.6932C57.1525 32.4588 57.7317 34.4909 57.7393 36.5609C57.6897 36.6979 57.6745 36.8463 57.6859 36.9909M50.9462 8.50822C53.7503 9.8553 55.7429 10.8218 58.547 12.1689C62.4292 14.0526 66.3077 15.9362 70.2433 17.7703C71.2149 21.9714 72.1826 26.1686 73.1008 30.3697C73.6951 32.9002 73.9618 34.2473 74.5561 36.7246C75.4743 40.6555 75.3638 40.9789 71.3215 40.0618L61.3472 37.8015C61.393 37.3715 61.412 36.9415 61.4006 36.5077C61.4234 33.5243 60.5167 30.6094 58.8137 28.1626L60.2157 26.8688C60.3833 26.7242 60.5891 26.6329 60.81 26.5986C61.3358 26.5568 61.8387 26.3703 62.2654 26.0621C63.0236 25.4533 63.1455 24.3421 62.5359 23.5848C61.9263 22.8276 60.8139 22.7058 60.0557 23.3147C59.7852 23.5125 59.5642 23.7713 59.408 24.0681C59.3013 24.285 59.248 24.4448 59.1375 24.6617C59.0804 24.8368 58.9661 24.989 58.8137 25.0917L57.1983 26.2219C54.8552 23.7561 51.7311 22.1769 48.3593 21.7545V10.3957C48.4127 7.75857 48.6298 7.43512 50.9462 8.51202M47.4945 42.4325C47.1554 42.4972 46.8125 42.5353 46.4696 42.5391C46.1458 42.5467 45.8219 42.5315 45.4981 42.4858L45.3381 42.8093L42.9645 47.1701C44.1113 47.5583 45.3114 47.76 46.5229 47.7638C47.7497 47.7562 48.9689 47.5545 50.1347 47.1701L47.7612 42.8625C47.6507 42.7332 47.563 42.5886 47.4907 42.4325M51.6968 39.5786L56.8706 40.762C56.0172 42.8511 54.5542 44.6358 52.6645 45.8763L50.6148 40.9218C51.0186 40.5109 51.3806 40.0618 51.693 39.5747M36.1143 40.7049L41.2882 39.5215C41.6044 40.0352 41.9854 40.5032 42.4197 40.9218L42.2597 41.2453L40.3738 45.8763C38.4536 44.632 36.9677 42.8283 36.1143 40.7087M78.4841 49.8072C76.0039 52.8781 74.8724 54.3317 72.3921 57.3988C69.588 60.8997 67.325 63.7537 64.5209 67.2507C62.5245 69.7813 61.0691 69.8345 57.7812 69.8345H35.139C30.8262 69.8345 30.5023 69.8345 27.8621 66.4973C25.2218 63.2133 23.1721 60.6295 20.5852 57.3455C18.5355 54.7617 17.9983 54.1148 15.9486 51.531C12.7673 47.5469 12.2301 46.0932 17.1868 45.0163L32.4949 41.5687C33.6836 44.807 35.9467 47.5431 38.9108 49.3201L38.2098 50.9336C38.1259 51.1391 37.9736 51.3103 37.7792 51.4169C37.3068 51.6642 36.9258 52.0638 36.701 52.547C36.2667 53.4223 36.6287 54.4839 37.5049 54.9177C38.3812 55.3516 39.4442 54.99 39.8785 54.1148C39.8785 54.1148 39.8785 54.1148 39.8785 54.111C40.0233 53.8066 40.1147 53.4793 40.149 53.1407C40.1566 52.9238 40.1414 52.7069 40.0957 52.4938C40.0804 52.3073 40.1147 52.1208 40.2023 51.9572L41.0634 50.397C42.7702 51.0401 44.5761 51.3674 46.401 51.3674C48.2488 51.3788 50.0776 51.0287 51.792 50.3438L52.6531 51.9039C52.7712 52.098 52.8093 52.3301 52.7597 52.5508C52.6683 53.0646 52.7445 53.5935 52.9769 54.0577C53.4074 54.9368 54.4666 55.2983 55.3467 54.8683C56.2267 54.4383 56.5887 53.3804 56.1582 52.5014C56.1582 52.5014 56.1582 52.4976 56.1582 52.4938C56.0248 52.1817 55.8229 51.9077 55.5638 51.687C55.3962 51.5424 55.2171 51.4169 55.0266 51.3103C54.8628 51.219 54.7447 51.063 54.7028 50.8803L54.0018 49.1565C56.9621 47.3908 59.2137 44.651 60.3643 41.4051L77.2383 45.2294C80.6329 46.1465 80.4196 47.33 78.4765 49.8072" fill="black"/>
<path fill-rule="evenodd" clip-rule="evenodd" d="M48.4081 30.7969V25.5189C50.5721 25.9071 52.5761 26.9193 54.1763 28.4262L50.0273 31.3867C49.9739 31.44 49.9206 31.4932 49.8673 31.4932C49.4177 31.1964 48.9262 30.9605 48.4119 30.7931M57.6852 36.9843L52.5113 35.8009C52.458 35.2415 52.3132 34.6973 52.0808 34.1874C52.1342 34.1341 52.1875 34.0809 52.2408 34.0809L56.0698 30.6903C57.1556 32.456 57.7347 34.488 57.7423 36.5581C57.6928 36.6951 57.6775 36.8435 57.689 36.9881M50.9493 8.50539C53.7534 9.85246 55.7459 10.819 58.55 12.1661C62.4323 14.0497 66.3108 15.9333 70.2464 17.7675C71.2179 21.9686 72.1856 26.1658 73.1038 30.3669C73.6981 32.8974 73.9648 34.2445 74.5592 36.7217C75.4774 40.6526 75.3669 40.9761 71.3246 40.059L61.3503 37.7986C61.396 37.3686 61.4151 36.9386 61.4036 36.5048C61.4265 33.5215 60.5197 30.6066 58.8167 28.1598L60.2187 26.866C60.3864 26.7214 60.5921 26.6301 60.8131 26.5958C61.3389 26.554 61.8418 26.3675 62.2685 26.0593C63.0266 25.4504 63.1486 24.3393 62.539 23.582C61.9294 22.8248 60.8169 22.703 60.0587 23.3118C59.7882 23.5097 59.5673 23.7685 59.411 24.0653C59.3044 24.2822 59.251 24.442 59.1405 24.6589C59.0834 24.834 58.9691 24.9862 58.8167 25.0889L57.2013 26.2191C54.8582 23.7533 51.7341 22.174 48.3624 21.7517V10.3928C48.4157 7.75574 48.6329 7.43229 50.9493 8.50919M51.7036 39.5757L56.8775 40.7592C56.0241 42.8483 54.5611 44.633 52.6713 45.8735L50.6216 40.919C51.0255 40.508 51.3874 40.059 51.6998 39.5719M46.4727 47.7039V42.5362C46.8155 42.5286 47.1584 42.4906 47.4975 42.4297C47.547 42.5667 47.6232 42.6923 47.7147 42.8064L50.0882 47.114C48.9224 47.4984 47.7032 47.6962 46.4765 47.7077M78.4986 49.8082C76.0184 52.8791 74.8868 54.3327 72.4066 57.3998C69.6025 60.9007 67.3394 63.7546 64.5354 67.2517C62.539 69.7822 61.0836 69.8355 57.7957 69.8355H46.5298V51.3684C48.3776 51.3798 50.2063 51.0297 51.9208 50.3447L52.7818 51.9049C52.8999 52.099 52.938 52.3311 52.8885 52.5518C52.7971 53.0655 52.8733 53.5945 53.1057 54.0587C53.54 54.9339 54.603 55.2954 55.4792 54.8616C56.3555 54.4316 56.7136 53.3738 56.2869 52.4985C56.1536 52.1865 55.9517 51.9125 55.6926 51.6918C55.525 51.5472 55.3459 51.4216 55.1554 51.3151C54.9916 51.2238 54.8735 51.0677 54.8316 50.8851L54.1305 49.1613C57.0908 47.3956 59.3425 44.6558 60.4931 41.4099L77.3671 45.2342C80.655 46.1513 80.4417 47.3347 78.4986 49.812" fill="black"/>
<path d="M203.555 49.157H194.605V70.0482H215.468V61.1095H203.555V49.157ZM248.352 49.2103V61.1095H236.491L236.385 61.0029V70.0482H257.301V49.157H248.298L248.352 49.2103ZM194.605 28.2659H203.608L203.555 28.2126V16.3134H215.415L215.468 16.42V7.37476H194.605V28.2659ZM236.385 7.37476V16.3134H248.352V28.2659H257.301V7.37476H236.385Z" fill="black"/>
<g opacity="0.8">
<path d="M235.306 28.2647L223.34 16.3122H236.385V7.37354H215.468V16.4188L227.382 28.2647H235.306ZM224.524 49.1558H216.6L226.517 59.061L228.567 61.1083H215.468V70.0469H236.385V61.0017L230.456 55.0807L224.528 49.1596L224.524 49.1558ZM248.351 28.2647V41.294L246.302 39.2468L236.385 29.3948V37.3099L242.37 43.2309L248.298 49.152H257.301V28.2609H248.351V28.2647ZM215.468 40.1106L203.608 28.2647H194.552V49.1558H203.555V36.1264L215.468 48.0256V40.1106Z" fill="black"/>
</g>
<path d="M150.834 92.8235L148.571 95.5138C147.622 94.3227 146.208 93.5997 144.688 93.5198C142.296 93.5274 140.364 95.4681 140.372 97.8579C140.372 97.8997 140.372 97.9454 140.372 97.9873C140.372 100.571 142.204 102.512 144.684 102.512C146.167 102.428 147.561 101.774 148.567 100.681L150.883 103.105C149.195 104.814 146.921 105.815 144.521 105.906C139.884 105.906 136.436 102.516 136.436 97.9911C136.436 93.4666 139.994 90.1826 144.684 90.1826C146.989 90.2663 149.18 91.21 150.83 92.8196L150.834 92.8235ZM152.72 105.746V89.4329H156.548V105.746H152.72ZM171.697 99.8252C171.697 103.486 169.11 105.91 165.227 105.91C161.345 105.91 158.705 103.486 158.705 99.8252C158.705 96.1645 161.292 93.7938 165.227 93.7938C169.163 93.7938 171.697 96.1645 171.697 99.8252ZM162.534 99.8785C162.534 101.709 163.612 102.949 165.174 102.949C166.736 102.949 167.814 101.713 167.814 99.8785C167.814 98.0443 166.736 96.8076 165.174 96.8076C163.612 96.8076 162.534 98.0443 162.534 99.8785ZM185.336 105.746H181.507V103.809C180.715 105.187 179.214 105.997 177.625 105.91C175.038 105.91 173.365 104.133 173.365 101.385V93.9004H177.194V100.308C177.194 101.709 177.949 102.569 179.191 102.569C180.646 102.569 181.507 101.385 181.507 99.7681V93.9004H185.336V105.746ZM200.32 105.746H196.491V104.186C195.646 105.29 194.327 105.929 192.933 105.91C189.592 105.91 187.382 103.433 187.382 99.7719C187.382 96.1112 189.538 93.7405 192.826 93.7405C194.255 93.6835 195.627 94.3265 196.491 95.4643V89.4329H200.32V105.746ZM196.491 99.8785C196.491 98.0481 195.413 96.8076 193.851 96.8076C192.289 96.8076 191.211 98.0443 191.211 99.8785C191.211 101.713 192.289 103.003 193.851 103.003C195.467 102.949 196.491 101.709 196.491 99.8785ZM214.28 105.746L207.163 96.2711V105.746H203.498V90.3462H206.95L214.066 99.8747V90.3462H217.732V105.746H214.28ZM231.314 97.9949V105.746H227.595V104.399C226.841 105.423 225.546 105.959 223.984 105.959C221.45 105.959 219.888 104.399 219.888 102.245C219.888 99.985 221.503 98.6912 224.471 98.638H227.599V98.4781C227.599 97.2947 226.845 96.5945 225.283 96.5945C224.045 96.6706 222.833 97.0017 221.724 97.5649L220.646 95.0343C222.349 94.1667 224.231 93.7063 226.144 93.6873C229.432 93.7405 231.318 95.3578 231.318 97.9949H231.314ZM227.595 101.762V100.685H225.168C224.037 100.685 223.443 101.062 223.443 101.979C223.443 102.839 224.037 103.379 225.115 103.379C226.209 103.452 227.222 102.793 227.595 101.766V101.762ZM241.612 105.153C240.633 105.678 239.543 105.956 238.431 105.959C236.114 105.959 234.495 104.666 234.495 102.192V96.9712H232.823V94.494H234.495V91.21H238.267V94.494H241.395V97.0245H238.267V101.656C238.267 102.573 238.644 103.003 239.345 102.949C239.848 102.908 240.339 102.778 240.8 102.573L241.608 105.156L241.612 105.153ZM247.433 90.506C247.475 91.5905 246.63 92.5076 245.544 92.5495C245.509 92.5495 245.475 92.5495 245.441 92.5495C244.325 92.5343 243.433 91.6172 243.444 90.5022C243.46 89.4063 244.344 88.5235 245.441 88.5082C246.485 88.4512 247.38 89.2541 247.437 90.2967C247.437 90.3652 247.437 90.4337 247.437 90.5022L247.433 90.506ZM243.498 105.742V93.8966H247.27V105.742H243.498ZM253.202 105.742L248.729 93.8966H252.664L255.198 102.295L257.785 93.8966H261.557L257.084 105.742H253.202ZM274.171 100.841H265.816C266.09 102.158 267.272 103.09 268.62 103.048C269.687 103.029 270.708 102.603 271.478 101.865L273.474 103.802C272.137 105.217 270.247 105.982 268.3 105.902C264.418 105.902 261.995 103.478 261.995 99.8709C261.995 96.2635 264.528 93.7862 268.194 93.7862C272.343 93.7862 274.392 96.5336 274.179 100.841H274.171ZM270.506 98.794C270.613 97.5649 269.698 96.4842 268.468 96.3776C268.376 96.37 268.281 96.3662 268.186 96.37C266.837 96.37 265.976 97.3404 265.706 98.794H270.502H270.506ZM289.697 92.8158L287.434 95.5062C286.485 94.3151 285.071 93.5921 283.551 93.5122C281.159 93.5198 279.227 95.4605 279.235 97.8503C279.235 97.8921 279.235 97.9378 279.235 97.9796C279.235 100.563 281.067 102.504 283.547 102.504C285.029 102.42 286.424 101.766 287.43 100.674L289.746 103.098C288.058 104.806 285.784 105.807 283.384 105.898C278.747 105.898 275.299 102.508 275.299 97.9834C275.299 93.4589 278.857 90.175 283.547 90.175C285.852 90.2701 288.039 91.21 289.693 92.812L289.697 92.8158ZM303.012 99.8138C303.012 103.475 300.425 105.898 296.543 105.898C292.661 105.898 290.02 103.475 290.02 99.8138C290.02 96.1531 292.607 93.7824 296.543 93.7824C300.479 93.7824 303.012 96.1531 303.012 99.8138ZM293.903 99.8671C293.903 101.697 294.981 102.938 296.543 102.938C298.105 102.938 299.183 101.701 299.183 99.8671C299.183 98.0329 298.105 96.7962 296.543 96.7962C294.981 96.7962 293.903 98.0329 293.903 99.8671ZM317.189 98.2536V105.739H313.417V99.3305C313.417 97.9302 312.609 97.0702 311.314 97.0702C309.912 97.0702 309.051 98.0405 308.887 99.4942V105.792H305.058V93.946H308.887V95.8829C309.725 94.5016 311.261 93.6911 312.876 93.7824C315.463 93.7291 317.189 95.5062 317.189 98.2498V98.2536Z" fill="black"/>
<path d="M116.061 0.430176H116.598V110H116.061V0.430176Z" fill="black"/>
<path d="M116.061 0.429199H116.598V109.999H116.061V0.429199Z" fill="black"/>
<path d="M116.061 0.432129H116.598V110.002H116.061V0.432129Z" fill="black"/>
<path d="M116.598 0.432129H116.061V110.002H116.598V0.432129Z" fill="black"/>
<mask id="mask0_1_590" style="mask-type:luminance" maskUnits="userSpaceOnUse" x="116" y="0" width="1" height="111">
<path d="M116.598 0.433105H116.061V110.003H116.598V0.433105Z" fill="white"/>
</mask>
<g mask="url(#mask0_1_590)">
<path d="M116.061 0.433105H116.598V110.003H116.061V0.433105Z" fill="black"/>
</g>
</g>
<defs>
<clipPath id="clip0_1_590">
<rect width="317.189" height="110" fill="white" transform="translate(0 -0.000488281)"/>
</clipPath>
</defs>
</svg>
