<svg xmlns="http://www.w3.org/2000/svg" role="img" viewBox="-11.18 163.82 1101.36 283.36"><style>svg {enable-background:new 0 0 1080 612}</style><path fill="#002856" d="M1064.4 263.8l-3.1 36.6h-15c-23.9 0-36.3 19.1-36.3 37.5v82.7h-42.2V263.8h40.1l.9 19.6c8.4-13.4 23.1-19.6 41.3-19.6h14.3zM771.1 420.6h-42.3v-82.9c0-17.4-1.6-39.2-25.9-39.2-23.5 0-32.9 17-32.9 36.7v85.3h-42.3V263.8H667l.9 20c8.4-13.4 24.1-23.9 47.2-23.9 42.7 0 56.1 30.5 56.1 62.1l-.1 98.6zM609.2 384l-3 35.7c-9.8 2.6-19.9 3.9-30.1 3.7-39.9 0-51.5-18.3-51.5-55.1V219.6H567v44.2h42.1l-2.9 36.6H567V365c0 14.8 4 22.7 19.2 22.7 7.8.1 15.6-1.2 23-3.7zm-98.4-120.2l-3.3 36.6H496c-23.8 0-35.7 19.1-35.7 37.5v82.7H418V263.8h40l.8 19.6c8.5-13.3 23.2-19.6 41.4-19.6h10.6zM226.9 403.2c-28.7 15.4-57.4 24.2-95.3 23.1-70.2-2.1-120.9-45.8-120.9-119.4 0-73.3 51.2-120.2 121-121.3 35.4-.5 67 8.4 91.8 30.3L193.6 246c-15.3-13.1-37.8-20.7-64.8-19.5-43.9 2-70.4 34-71 77.8-.6 47.5 28.6 80.3 74.2 81.5 21.5.5 36.8-2.3 50.1-8.3V329h-47.4l3.2-39.9h88.9l.1 114.1zm722-46H832.8c3.3 20 19.1 32.1 38.7 32.7 19.1.5 29.7-5.2 43.7-19.4l27.6 20.9c-19.6 24.2-43.2 33-70.1 33-47.2 0-82.5-33-82.5-82.2S825.4 260 871 260c50.3 0 77.8 30.5 77.8 84.5l.1 12.7zm-42.4-32.9c-1.3-19.8-16.1-32.3-36.6-31.5-20.4.8-34.3 14.2-37.1 31.5h73.7zm-515.2-6.4v102.7h-37.4l-.9-15.5c-11.4 14.2-30 19.3-49.2 19.3-28.8 0-56-14.2-56.6-47.3-.8-52 58.6-55.7 95.9-55.7h7.5v-2.1c0-17.2-11.4-26.5-32.8-26.5-15.6.1-30.5 6-41.9 16.7l-24.4-24.8c19.6-16.3 44.4-25.1 69.8-24.7 48.6 0 70 22.4 70 57.9zm-40.7 34.3h-5.9c-20 0-55.2 1-55.1 22 .2 29.6 61 20.1 61-15.5v-6.5zm680.8 50.1c.3-9.5 8.2-16.9 17.6-16.6 9.5.3 16.9 8.2 16.6 17.6-.3 9.3-7.9 16.6-17.1 16.6-9.5 0-17.1-7.7-17.1-17.1v-.5zm17.1 21.2c11.6-.2 21-9.7 20.8-21.4-.2-11.6-9.7-21-21.4-20.8-11.5.2-20.8 9.5-20.8 21-.1 11.6 9.3 21.1 20.9 21.2h.5zM1044 404h4.3l6.4 10.5h4.1l-6.8-10.7c3.6-.4 6.2-2.4 6.2-6.7 0-4.8-2.8-6.9-8.6-6.9h-9.2v24.3h3.7l-.1-10.5zm0-3.1v-7.5h5c2.6 0 5.3.5 5.3 3.6 0 3.7-2.8 4-5.9 4l-4.4-.1z"/></svg>