<svg width="142" height="118" viewBox="0 0 142 118" fill="none" xmlns="http://www.w3.org/2000/svg">
<path d="M4.36704 107.794C4.7685 107.358 5.166 106.918 5.55952 106.474C5.97096 106.03 6.37712 105.581 6.77791 105.128C7.14257 104.699 7.50479 104.267 7.86454 103.834C8.16944 103.486 8.46975 103.134 8.76538 102.778H13.4544C12.5481 103.818 11.6296 104.848 10.6991 105.867C9.75606 106.897 8.78428 107.901 7.78491 108.877C8.3148 109.352 8.86227 109.924 9.42733 110.593C9.99821 111.252 10.546 111.93 11.0698 112.627C11.5853 113.31 12.0714 114.014 12.5267 114.739C12.968 115.443 13.339 116.085 13.6392 116.666H9.10915C8.79339 116.158 8.4666 115.656 8.129 115.161C7.77155 114.592 7.39156 114.037 6.98992 113.498C6.58656 112.938 6.15315 112.401 5.69159 111.888C5.25029 111.377 4.80867 110.946 4.36736 110.594V116.667H0.419922V96.8113L4.36736 96.1777V107.795L4.36704 107.794ZM27.3724 116.191C26.7009 116.385 25.8359 116.561 24.7758 116.719C23.7163 116.895 22.6038 116.983 21.4382 116.983C20.255 116.983 19.2659 116.824 18.4706 116.508C17.6935 116.191 17.0757 115.751 16.6164 115.188C16.1572 114.607 15.8304 113.92 15.6363 113.128C15.4419 112.336 15.345 111.465 15.345 110.514V102.778H19.2924V110.039C19.2924 111.306 19.4603 112.222 19.7958 112.785C20.1312 113.348 20.7583 113.63 21.6767 113.63C21.9594 113.63 22.2597 113.621 22.5776 113.603C22.8954 113.568 23.1781 113.533 23.425 113.498V102.778H27.3728L27.3724 116.191V116.191ZM40.0318 109.616C40.0318 107.082 39.0958 105.814 37.2234 105.814C36.8173 105.814 36.4109 105.867 36.0047 105.973C35.6162 106.078 35.298 106.21 35.0511 106.369V113.524C35.2456 113.559 35.4925 113.595 35.793 113.63C36.0933 113.647 36.4198 113.656 36.7732 113.656C37.8506 113.656 38.6631 113.286 39.2106 112.547C39.7581 111.808 40.0318 110.831 40.0318 109.616ZM44.0586 109.722C44.0586 110.831 43.8907 111.834 43.5552 112.732C43.2373 113.63 42.7692 114.396 42.151 115.029C41.5329 115.662 40.7734 116.155 39.8726 116.508C38.9717 116.842 37.9474 117.009 36.7994 117.009C36.3226 117.009 35.8193 116.983 35.2894 116.93C34.7755 116.894 34.263 116.842 33.7528 116.771C33.274 116.704 32.797 116.624 32.3221 116.533C31.9126 116.441 31.5061 116.335 31.1034 116.217V96.8107L35.0508 96.1768V103.094C35.4942 102.9 35.9556 102.75 36.4285 102.646C36.9049 102.54 37.4176 102.487 37.965 102.487C38.9541 102.487 39.8284 102.663 40.5879 103.015C41.3474 103.35 41.9831 103.834 42.4954 104.467C43.0077 105.101 43.3963 105.867 43.6611 106.764C43.9262 107.645 44.0586 108.631 44.0586 109.722V109.722ZM46.4301 109.828C46.4301 108.596 46.6156 107.522 46.9865 106.607C47.3751 105.674 47.8784 104.899 48.4965 104.283C49.1147 103.667 49.8211 103.201 50.6161 102.884C51.4283 102.567 52.2585 102.409 53.1063 102.409C55.0845 102.409 56.6476 103.016 57.7953 104.23C58.9433 105.427 59.5173 107.196 59.5173 109.537C59.5173 109.766 59.5084 110.022 59.4908 110.303C59.4732 110.567 59.4553 110.805 59.4377 111.016H50.4834C50.5716 111.826 50.9515 112.468 51.6225 112.944C52.2937 113.419 53.1942 113.656 54.3246 113.656C55.0486 113.656 55.7554 113.595 56.4442 113.472C57.1506 113.331 57.7246 113.164 58.1662 112.97L58.6961 116.165C58.4841 116.27 58.2017 116.376 57.8484 116.482C57.4573 116.596 57.059 116.684 56.6562 116.745C56.2007 116.838 55.741 116.909 55.2786 116.957C54.7857 117.01 54.2904 117.036 53.7948 117.036C52.5412 117.036 51.4459 116.852 50.5099 116.482C49.5915 116.112 48.8234 115.61 48.2052 114.977C47.6047 114.325 47.1544 113.56 46.8541 112.68C46.5714 111.799 46.4301 110.849 46.4301 109.828ZM55.7023 108.323C55.685 107.99 55.6226 107.661 55.5168 107.346C55.4313 107.034 55.2775 106.746 55.0665 106.501C54.8721 106.254 54.6163 106.052 54.2981 105.894C53.9975 105.735 53.6182 105.656 53.159 105.656C52.7174 105.656 52.3378 105.736 52.02 105.894C51.7021 106.034 51.437 106.228 51.2253 106.475C51.0133 106.721 50.8457 107.012 50.7219 107.346C50.6156 107.665 50.5358 107.991 50.4834 108.323H55.7023V108.323ZM70.9618 106.264C70.5495 106.163 70.1343 106.075 69.7166 105.999C69.2398 105.894 68.7275 105.841 68.18 105.841C67.9328 105.841 67.6325 105.867 67.2792 105.921C66.9434 105.956 66.6876 106 66.5111 106.052V116.667H62.5636V103.518C63.27 103.271 64.1002 103.043 65.0538 102.831C66.0253 102.602 67.1027 102.488 68.2859 102.488C68.4979 102.488 68.754 102.505 69.0543 102.541C69.3546 102.558 69.6549 102.594 69.9551 102.646C70.2554 102.682 70.5557 102.734 70.856 102.805C71.1563 102.858 71.4124 102.928 71.6244 103.016L70.9618 106.264ZM73.7401 103.253C74.4114 103.06 75.2767 102.883 76.3365 102.725C77.3962 102.549 78.5088 102.461 79.6744 102.461C80.8576 102.461 81.8381 102.619 82.6152 102.936C83.4098 103.236 84.0369 103.667 84.4961 104.23C84.9553 104.793 85.2822 105.462 85.4763 106.237C85.6704 107.011 85.7673 107.873 85.7673 108.824V116.666H81.8202V109.299C81.8202 108.032 81.6523 107.134 81.3168 106.606C80.981 106.078 80.3543 105.814 79.4358 105.814C79.1531 105.814 78.8529 105.832 78.535 105.867C78.2514 105.881 77.9685 105.908 77.6873 105.947V116.666H73.7398V103.253H73.7401ZM88.7042 109.828C88.7042 108.596 88.8897 107.522 89.2606 106.607C89.6495 105.674 90.1528 104.899 90.771 104.283C91.3891 103.667 92.0955 103.201 92.8905 102.884C93.7028 102.567 94.5329 102.409 95.3807 102.409C97.3589 102.409 98.922 103.016 100.07 104.23C101.218 105.427 101.792 107.196 101.792 109.537C101.792 109.766 101.783 110.022 101.765 110.303C101.748 110.567 101.73 110.805 101.712 111.016H92.7578C92.8461 111.826 93.226 112.468 93.8969 112.944C94.5681 113.419 95.4686 113.656 96.5991 113.656C97.3231 113.656 98.0298 113.595 98.7186 113.472C99.425 113.331 99.999 113.164 100.441 112.97L100.971 116.165C100.759 116.27 100.476 116.376 100.123 116.482C99.7317 116.596 99.3334 116.684 98.9306 116.745C98.4752 116.838 98.0154 116.909 97.553 116.957C97.0602 117.01 96.5649 117.036 96.0692 117.036C94.8156 117.036 93.7204 116.852 92.7843 116.482C91.8659 116.112 91.0978 115.61 90.4797 114.977C89.8791 114.325 89.4288 113.56 89.1285 112.68C88.8455 111.799 88.7045 110.849 88.7045 109.828H88.7042ZM97.9767 108.323C97.9594 107.99 97.897 107.661 97.7912 107.346C97.7057 107.034 97.5519 106.746 97.341 106.501C97.1465 106.254 96.8907 106.052 96.5729 105.894C96.2723 105.735 95.893 105.656 95.4338 105.656C94.9921 105.656 94.6126 105.736 94.2947 105.894C93.9768 106.034 93.7117 106.228 93.5 106.475C93.288 106.721 93.1204 107.012 92.9967 107.346C92.8904 107.665 92.8106 107.991 92.7581 108.323H97.9767V108.323ZM104.705 99.3189L108.653 98.6853V102.778H113.395V106.052H108.652V110.937C108.652 111.764 108.794 112.424 109.076 112.917C109.377 113.409 109.968 113.656 110.851 113.656C111.276 113.656 111.708 113.621 112.15 113.551C112.609 113.463 113.024 113.348 113.395 113.207L113.951 116.27C113.475 116.464 112.945 116.631 112.362 116.772C111.779 116.913 111.063 116.983 110.216 116.983C109.138 116.983 108.247 116.842 107.54 116.561C106.834 116.261 106.268 115.857 105.845 115.346C105.421 114.818 105.121 114.184 104.944 113.445C104.785 112.705 104.705 111.887 104.705 110.989V99.3189ZM115.404 109.828C115.404 108.596 115.589 107.522 115.96 106.607C116.349 105.674 116.852 104.899 117.47 104.283C118.088 103.667 118.795 103.201 119.59 102.884C120.402 102.567 121.232 102.409 122.08 102.409C124.058 102.409 125.621 103.016 126.769 104.23C127.917 105.427 128.491 107.196 128.491 109.537C128.491 109.766 128.482 110.022 128.464 110.303C128.447 110.567 128.429 110.805 128.411 111.016H119.457C119.545 111.826 119.925 112.468 120.596 112.944C121.267 113.419 122.168 113.656 123.298 113.656C124.022 113.656 124.729 113.595 125.418 113.472C126.124 113.331 126.698 113.164 127.14 112.97L127.67 116.165C127.458 116.27 127.175 116.376 126.822 116.482C126.431 116.596 126.033 116.684 125.63 116.745C125.174 116.838 124.715 116.909 124.252 116.957C123.759 117.01 123.264 117.036 122.768 117.036C121.515 117.036 120.42 116.852 119.484 116.482C118.565 116.112 117.797 115.61 117.179 114.977C116.578 114.325 116.128 113.56 115.828 112.68C115.545 111.799 115.404 110.849 115.404 109.828ZM124.676 108.323C124.659 107.99 124.597 107.661 124.491 107.346C124.405 107.034 124.252 106.746 124.041 106.501C123.846 106.254 123.59 106.052 123.272 105.894C122.972 105.735 122.593 105.656 122.133 105.656C121.692 105.656 121.312 105.736 120.994 105.894C120.676 106.034 120.411 106.228 120.2 106.475C119.988 106.721 119.82 107.012 119.696 107.346C119.59 107.665 119.51 107.991 119.458 108.323H124.676V108.323ZM135.538 113.841C136.262 113.841 136.774 113.771 137.074 113.63C137.375 113.489 137.525 113.216 137.525 112.811C137.525 112.494 137.33 112.222 136.942 111.993C136.553 111.746 135.962 111.474 135.167 111.174C134.591 110.963 134.025 110.725 133.471 110.461C132.977 110.215 132.553 109.925 132.199 109.59C131.844 109.236 131.565 108.814 131.378 108.349C131.184 107.874 131.087 107.302 131.087 106.633C131.087 105.33 131.572 104.3 132.544 103.543C133.515 102.787 134.848 102.408 136.544 102.408C137.392 102.408 138.204 102.488 138.982 102.646C139.759 102.787 140.377 102.946 140.836 103.121L140.147 106.184C139.652 106.015 139.148 105.874 138.637 105.761C138.107 105.638 137.507 105.576 136.836 105.576C135.6 105.576 134.981 105.92 134.981 106.606C134.981 106.765 135.008 106.906 135.061 107.029C135.114 107.152 135.22 107.275 135.379 107.399C135.538 107.504 135.75 107.627 136.015 107.768C136.297 107.892 136.65 108.032 137.074 108.191C137.94 108.508 138.655 108.824 139.22 109.141C139.785 109.441 140.227 109.775 140.545 110.145C140.88 110.497 141.11 110.893 141.234 111.333C141.375 111.773 141.446 112.283 141.446 112.864C141.446 114.237 140.924 115.276 139.882 115.98C138.858 116.684 137.401 117.036 135.511 117.036C134.275 117.036 133.242 116.931 132.412 116.719C131.599 116.508 131.034 116.332 130.716 116.191L131.378 112.996C132.05 113.26 132.741 113.472 133.445 113.63C134.151 113.771 134.849 113.841 135.538 113.841Z" fill="black"/>
<path d="M64.4267 4.32422L94.478 18.6254L101.903 50.7675L81.1109 76.5455L47.7579 76.5487L26.96 50.7751L34.378 18.6321L64.4267 4.32422Z" fill="white"/>
<path d="M64.1505 0.00674277C63.427 0.0430162 62.7179 0.221861 62.0642 0.532935L33.6004 14.0874C32.1329 14.7857 31.0175 16.1679 30.6552 17.737L23.6333 48.1844C23.3097 49.5829 23.5828 51.1063 24.372 52.3098C24.4682 52.457 24.5709 52.6001 24.6815 52.7378L44.3836 77.1521C45.3989 78.41 47.0103 79.1771 48.6386 79.1765L80.2338 79.1692C81.8612 79.1705 83.4726 78.4049 84.4892 77.1482L104.184 52.7308C105.2 51.4722 105.598 49.748 105.236 48.1774L98.2023 17.7303C97.84 16.1606 96.7245 14.7787 95.2577 14.0801L66.79 0.532935C65.9674 0.142543 65.0605 -0.0382596 64.1505 0.00674277Z" fill="#326CE5"/>
<path d="M64.3777 49.9364C64.6208 49.9283 64.8623 49.9795 65.081 50.0856C65.368 50.2213 65.604 50.445 65.7544 50.7239H65.7867L70.1227 58.5317C69.5533 58.7211 68.9749 58.8822 68.3895 59.0142C65.0739 59.7648 61.7686 59.5376 58.7754 58.5212L63.1002 50.7274H63.1076C63.2315 50.4965 63.414 50.3019 63.6368 50.1632C63.8597 50.0244 64.1151 49.9462 64.3777 49.9364ZM56.9482 46.341C57.2845 46.3462 57.6094 46.4638 57.8707 46.6749C58.132 46.886 58.3147 47.1784 58.3894 47.5053C58.461 47.8135 58.4318 48.1365 58.306 48.427L58.3316 48.4595L54.9242 56.6666C51.7382 54.6291 49.2007 51.5787 47.8435 47.8361L56.6383 46.3487L56.653 46.3668C56.7503 46.3484 56.8491 46.3397 56.9482 46.341ZM71.8479 46.3047C71.9647 46.2983 72.0808 46.3091 72.1936 46.3302L72.2083 46.312L81.0802 47.8064C79.7815 51.442 77.2968 54.5918 73.9774 56.6994L70.5339 48.4091L70.5448 48.3945C70.3919 48.0398 70.3823 47.6399 70.5179 47.2783C70.6536 46.9167 70.9241 46.6212 71.273 46.4535C71.4526 46.3659 71.6482 46.3153 71.8479 46.3047ZM63.0605 39.0412H65.8018L67.5053 41.1639L66.8938 43.8124L64.4324 44.9916L61.9643 43.8092L61.3529 41.1607L63.0605 39.0412ZM79.4457 32.6192C80.4658 34.2689 81.2074 36.0743 81.6408 37.9634C82.0733 39.8284 82.1988 41.7511 82.0123 43.6562L73.3922 41.1817L73.3848 41.1454C73.0115 41.0431 72.6922 40.8011 72.4935 40.4699C72.2948 40.1387 72.2321 39.7438 72.3184 39.3676C72.3881 39.0588 72.5551 38.7803 72.7948 38.5727L72.7916 38.5546L79.4457 32.6192ZM49.3727 32.616L56.0636 38.5804L56.0563 38.6167C56.3485 38.8695 56.5313 39.2251 56.5666 39.6092C56.6019 39.9932 56.4869 40.376 56.2456 40.6775C56.0467 40.926 55.7738 41.1052 55.4663 41.1894L55.4589 41.2184L46.8826 43.6855C46.455 39.8224 47.3312 35.9274 49.3727 32.616ZM66.5696 24.3869C70.446 24.8624 74.0305 26.6115 76.7775 29.2922L69.4966 34.4368L69.471 34.426C69.1581 34.6534 68.7693 34.7517 68.3855 34.7004C68.0017 34.6491 67.6526 34.4522 67.4109 34.1506C67.2114 33.9038 67.0965 33.5998 67.0831 33.2831L67.0758 33.2799L66.5696 24.3869ZM62.2995 24.3869L61.7932 33.2939L61.7568 33.3121C61.7405 33.6975 61.5754 34.0618 61.2961 34.3288C61.0167 34.5959 60.6447 34.7451 60.2576 34.7453C59.9395 34.7462 59.6294 34.646 59.3725 34.4591L59.3584 34.4665L52.0302 29.2887C54.2821 27.0813 57.1631 25.4501 60.4824 24.6989C61.0894 24.5619 61.6954 24.4599 62.2995 24.3869ZM64.4324 11.2168C63.4916 11.2174 62.7289 12.062 62.7289 13.1036C62.7289 13.1198 62.7324 13.1351 62.7331 13.1511C62.7315 13.2922 62.7245 13.4628 62.7289 13.5864C62.7516 14.1872 62.8831 14.6471 62.9621 15.201C63.1053 16.3857 63.2252 17.3682 63.1514 18.281C63.0791 18.6256 62.8249 18.9404 62.5978 19.1591L62.5572 19.8775C61.5209 19.9627 60.4918 20.1203 59.4777 20.3492C55.216 21.3089 51.3394 23.5162 48.3456 26.6877C48.1385 26.5452 47.9333 26.4001 47.73 26.2523C47.4256 26.2931 47.1186 26.3868 46.7182 26.1542C45.9562 25.6429 45.2616 24.9367 44.4215 24.086C44.0365 23.6797 43.7576 23.2918 43.2997 22.8995C43.1961 22.8102 43.0375 22.6901 42.9214 22.5983C42.5635 22.3143 42.1421 22.1664 41.7343 22.1521C41.2112 22.1339 40.7065 22.3382 40.3765 22.7506C39.79 23.4837 39.9777 24.6046 40.7951 25.2541C40.8038 25.2608 40.8121 25.2659 40.8207 25.2723C40.933 25.3631 41.0705 25.4791 41.1741 25.555C41.6592 25.9123 42.103 26.0952 42.5862 26.3788C43.6051 27.0061 44.4496 27.5262 45.1196 28.1534C45.3812 28.4314 45.4275 28.9209 45.4621 29.1332L46.0083 29.6189C43.0851 34.0034 41.7321 39.4189 42.5316 44.9371L41.8184 45.1439C41.6301 45.3862 41.3643 45.767 41.0861 45.8802C40.2096 46.1552 39.2234 46.2566 38.0322 46.3809C37.4725 46.4274 36.99 46.3997 36.3974 46.5118C36.267 46.5361 36.085 46.5832 35.9424 46.6167L35.9277 46.6208C35.9203 46.6224 35.9101 46.6259 35.9027 46.6275C34.8983 46.8698 34.2529 47.7896 34.4608 48.6956C34.6683 49.6027 35.6498 50.1538 36.66 49.9364C36.6673 49.9348 36.6776 49.9348 36.6856 49.9332C36.6971 49.9303 36.7067 49.9252 36.7178 49.9224C36.8589 49.8911 37.0354 49.8574 37.1588 49.8242C37.7412 49.6684 38.1633 49.4398 38.6877 49.2397C39.8147 48.8372 40.7484 48.5003 41.6579 48.369C42.0378 48.3397 42.4382 48.6029 42.6374 48.7135L43.3796 48.5867C45.0889 53.8671 48.6702 58.1356 53.2054 60.8134L52.8958 61.5537C53.0071 61.8412 53.1302 62.23 53.0471 62.514C52.7164 63.3685 52.1501 64.2704 51.5051 65.276C51.1926 65.7407 50.8732 66.1014 50.5918 66.633C50.524 66.7599 50.4383 66.9556 50.3734 67.0901C49.9352 68.0242 50.256 69.0996 51.0974 69.5027C51.9438 69.9091 52.9943 69.4804 53.4494 68.5453L53.4526 68.5415V68.538C53.5175 68.4054 53.6089 68.2307 53.6636 68.1061C53.9054 67.5551 53.9857 67.0827 54.1551 66.5499C54.6064 65.4213 54.8536 64.237 55.4743 63.4995C55.6444 63.2977 55.9213 63.2196 56.2085 63.1428L56.5942 62.4461C60.548 63.9587 64.9732 64.3645 69.3942 63.3643C70.3877 63.1388 71.3643 62.8454 72.3174 62.4863C72.4255 62.6778 72.6273 63.0463 72.6813 63.1393C72.9733 63.234 73.2915 63.2827 73.5508 63.6655C74.0155 64.4556 74.333 65.3913 74.7199 66.5212C74.8894 67.0541 74.9735 67.5264 75.2147 68.0771C75.27 68.203 75.3608 68.3799 75.4257 68.5125C75.8798 69.4514 76.9338 69.881 77.7813 69.474C78.6226 69.0705 78.944 67.9952 78.5059 67.0614C78.4407 66.9272 78.3511 66.7315 78.2833 66.6047C78.0019 66.0731 77.6821 65.7158 77.37 65.2514C76.725 64.2456 76.1897 63.4099 75.8593 62.5551C75.7212 62.1147 75.8827 61.8403 75.9901 61.5541C75.9259 61.4804 75.7877 61.0642 75.7065 60.8682C80.4195 58.0948 83.8956 53.6672 85.5281 48.5545C85.7487 48.5889 86.1322 48.6565 86.2562 48.6813C86.5127 48.513 86.7484 48.2928 87.2102 48.3291C88.1196 48.4601 89.0537 48.797 90.1813 49.1999C90.7051 49.4 91.1272 49.6323 91.7102 49.7879C91.833 49.8207 92.0092 49.8513 92.1505 49.8819C92.162 49.8848 92.172 49.8905 92.1835 49.8927C92.1908 49.8943 92.2017 49.895 92.2084 49.8966C93.2186 50.113 94.1997 49.5619 94.4076 48.6555C94.6151 47.7491 93.9701 46.829 92.9663 46.5874C92.8202 46.5546 92.6129 46.4978 92.4706 46.471C91.8781 46.3595 91.3955 46.3872 90.8365 46.3407C89.6453 46.2161 88.6585 46.115 87.7819 45.84C87.4247 45.7017 87.1705 45.2778 87.0464 45.1031L86.3589 44.9036C86.7247 42.2614 86.6037 39.5749 86.0017 36.976C85.3987 34.3505 84.3167 31.8578 82.8096 29.6221C82.9858 29.4621 83.3193 29.1679 83.4137 29.0812C83.4415 28.7768 83.4175 28.4572 83.7338 28.1196C84.404 27.4927 85.2486 26.9729 86.2677 26.3454C86.7513 26.0621 87.1983 25.8794 87.6834 25.5222C87.7931 25.4409 87.9434 25.3128 88.0582 25.2207C88.8756 24.5708 89.064 23.4508 88.4768 22.7172C87.8903 21.9841 86.7532 21.915 85.9361 22.5652C85.82 22.6569 85.6621 22.7765 85.5578 22.866C85.0999 23.2584 84.8175 23.6456 84.4328 24.0526C83.5927 24.9029 82.8982 25.6127 82.1361 26.1239C81.8054 26.3157 81.3216 26.2491 81.1019 26.2361L80.454 26.6969C76.7589 22.8354 71.728 20.3664 66.3112 19.887C66.2958 19.6607 66.276 19.2521 66.2706 19.1291C66.0493 18.9178 65.7813 18.7368 65.7138 18.2798C65.6399 17.367 65.7634 16.3847 65.9066 15.1997C65.9856 14.6458 66.1177 14.1859 66.1398 13.5851C66.1449 13.4484 66.1369 13.2502 66.1366 13.1023C66.1359 12.062 65.3739 11.2168 64.4324 11.2168Z" fill="white"/>
</svg>
