<svg width="187" height="110" viewBox="0 0 187 110" fill="none" xmlns="http://www.w3.org/2000/svg">
<path d="M5.75036 107.967C6.24809 107.976 6.74092 107.87 7.18814 107.657C7.63537 107.443 8.02417 107.129 8.3224 106.741L9.69416 108.134C9.22847 108.687 8.6442 109.133 7.98253 109.441C7.32086 109.749 6.59791 109.912 5.86467 109.918C5.20272 109.946 4.54195 109.841 3.9228 109.611C3.30364 109.381 2.73913 109.03 2.26382 108.58C1.79365 108.143 1.42334 107.615 1.17711 107.029C0.93087 106.443 0.814259 105.813 0.834904 105.18C0.814036 104.539 0.930313 103.9 1.17632 103.305C1.42234 102.71 1.79269 102.172 2.26382 101.724C2.72625 101.269 3.27903 100.911 3.88835 100.671C4.49767 100.431 5.15071 100.316 5.80752 100.331C6.55456 100.319 7.29503 100.468 7.97654 100.767C8.65804 101.065 9.26393 101.506 9.75132 102.059L8.43672 103.508C8.15004 103.121 7.77159 102.807 7.33367 102.594C6.89575 102.38 6.41136 102.273 5.92183 102.282C5.15908 102.277 4.42316 102.556 3.8642 103.062C3.57418 103.323 3.34692 103.643 3.1987 103.999C3.05047 104.356 2.98496 104.74 3.00685 105.124C2.98936 105.503 3.05131 105.881 3.1889 106.236C3.32649 106.591 3.53683 106.914 3.80704 107.187C4.05385 107.446 4.35539 107.65 4.69089 107.785C5.02639 107.92 5.38785 107.982 5.75036 107.967Z" fill="black"/>
<path d="M19.1283 108.524C18.179 109.422 16.9071 109.922 15.5846 109.918C14.9271 109.938 14.2725 109.825 13.6624 109.585C13.0523 109.345 12.5001 108.984 12.0409 108.524C11.125 107.618 10.6116 106.397 10.6116 105.124C10.6116 103.852 11.125 102.63 12.0409 101.724C12.9903 100.826 14.2621 100.326 15.5846 100.33C16.2421 100.31 16.8968 100.423 17.5069 100.663C18.117 100.903 18.6692 101.265 19.1283 101.724C20.0443 102.63 20.5577 103.852 20.5577 105.124C20.5577 106.397 20.0443 107.618 19.1283 108.524ZM18.4425 105.124C18.4582 104.345 18.1725 103.589 17.6423 103.006C17.3902 102.731 17.0822 102.509 16.7379 102.356C16.3936 102.202 16.0203 102.12 15.6418 102.114C15.2603 102.101 14.881 102.175 14.5338 102.33C14.1867 102.485 13.8811 102.716 13.6413 103.006C13.3675 103.288 13.1554 103.621 13.0178 103.985C12.8803 104.349 12.8201 104.737 12.8411 105.124C12.8357 105.901 13.12 106.654 13.6413 107.242C13.8934 107.518 14.2014 107.739 14.5457 107.893C14.89 108.046 15.2632 108.128 15.6418 108.134C16.0233 108.147 16.4026 108.073 16.7498 107.918C17.0969 107.763 17.4025 107.532 17.6423 107.242C18.1725 106.659 18.4582 105.903 18.4425 105.124Z" fill="black"/>
<path d="M30.9028 103.975L28.3307 109.048H27.0733L24.5013 103.975V109.828H22.3865V100.497H25.2443L27.702 105.57L30.1597 100.497H33.0176V109.806H30.9028V103.975Z" fill="black"/>
<path d="M41.9302 101.389C42.2913 101.711 42.5718 102.11 42.7502 102.555C42.9285 102.999 43 103.478 42.959 103.953C42.959 105.124 42.6161 105.96 41.9302 106.461C41.2444 107.019 40.2155 107.242 38.7866 107.242H37.5235V109.806H35.4087V100.497H38.7809C40.2155 100.553 41.2444 100.832 41.9302 101.389ZM40.387 105.012C40.6634 104.662 40.805 104.228 40.7871 103.786C40.8118 103.572 40.7771 103.356 40.6866 103.16C40.5961 102.964 40.4531 102.795 40.2727 102.671C39.8018 102.418 39.2661 102.302 38.7295 102.337H37.5235V105.458H38.9524C39.209 105.48 39.4675 105.452 39.7129 105.376C39.9582 105.299 40.1855 105.175 40.3813 105.012H40.387Z" fill="black"/>
<path d="M47.1329 107.409C47.3042 107.618 47.5217 107.787 47.769 107.903C48.0164 108.019 48.2873 108.079 48.5618 108.079C48.8363 108.079 49.1073 108.019 49.3546 107.903C49.602 107.787 49.8194 107.618 49.9907 107.409C50.3629 106.888 50.5441 106.259 50.5051 105.625V100.497H52.6199V105.681C52.6527 106.249 52.5684 106.818 52.3721 107.354C52.1758 107.891 51.8713 108.383 51.4768 108.802C50.6681 109.494 49.6264 109.871 48.5509 109.86C47.4754 109.85 46.4414 109.454 45.6468 108.747C45.2523 108.327 44.9479 107.835 44.7516 107.299C44.5552 106.763 44.471 106.194 44.5037 105.625V100.441H46.6185V105.569C46.5629 106.223 46.745 106.874 47.1329 107.409Z" fill="black"/>
<path d="M58.85 102.337V109.806H56.7352V102.337H54.0488V100.553H61.5935V102.337H58.85Z" fill="black"/>
<path d="M63.1399 100.553H65.2547V109.862H63.1399V100.553Z" fill="black"/>
<path d="M74.2249 100.553H76.3397V109.862H74.2249L69.7095 104.065V109.862H67.5947V100.553H69.5952L74.282 106.517V100.553H74.2249Z" fill="black"/>
<path d="M84.9126 105.124H87.0274V108.435C86.5223 108.955 85.909 109.363 85.2288 109.632C84.5485 109.901 83.8171 110.025 83.0836 109.996C81.7681 110.021 80.4953 109.54 79.5399 108.658C79.0697 108.221 78.6994 107.693 78.4532 107.107C78.2069 106.521 78.0903 105.891 78.111 105.258C78.0987 104.623 78.2171 103.991 78.4591 103.401C78.7011 102.811 79.0618 102.274 79.5199 101.822C79.978 101.37 80.5243 101.012 81.1265 100.77C81.7288 100.527 82.3748 100.404 83.0264 100.409C84.3419 100.384 85.6147 100.864 86.5701 101.746L85.4842 103.307C85.1552 102.968 84.7416 102.719 84.2839 102.582C83.9173 102.45 83.5315 102.374 83.1407 102.36C82.378 102.355 81.6421 102.634 81.0831 103.14C80.7954 103.414 80.5702 103.745 80.4225 104.11C80.2747 104.475 80.2077 104.866 80.2258 105.258C80.1994 106.039 80.4865 106.799 81.026 107.376C81.2694 107.625 81.5622 107.822 81.8865 107.956C82.2108 108.09 82.5598 108.158 82.9121 108.157C83.5469 108.192 84.1795 108.057 84.7411 107.766V105.147L84.9126 105.124Z" fill="black"/>
<path d="M99.0317 100.553V102.392H94.6307V104.399H98.8031V106.238H94.6307V109.862H92.5159V100.553H99.0317Z" fill="black"/>
<path d="M108.862 108.524C107.913 109.422 106.641 109.922 105.319 109.918C104.661 109.938 104.006 109.825 103.396 109.585C102.786 109.345 102.234 108.984 101.775 108.524C100.859 107.618 100.345 106.397 100.345 105.124C100.345 103.852 100.859 102.63 101.775 101.724C102.724 100.826 103.996 100.326 105.319 100.33C105.976 100.31 106.631 100.423 107.241 100.663C107.851 100.903 108.403 101.265 108.862 101.724C109.778 102.63 110.292 103.852 110.292 105.124C110.292 106.397 109.778 107.618 108.862 108.524ZM108.119 105.124C108.135 104.345 107.849 103.589 107.319 103.006C107.067 102.731 106.759 102.509 106.415 102.356C106.07 102.202 105.697 102.12 105.319 102.114C104.937 102.101 104.558 102.175 104.211 102.33C103.863 102.485 103.558 102.716 103.318 103.006C103.044 103.288 102.832 103.621 102.695 103.985C102.557 104.349 102.497 104.737 102.518 105.124C102.512 105.901 102.797 106.654 103.318 107.242C103.57 107.518 103.878 107.739 104.222 107.893C104.567 108.046 104.94 108.128 105.319 108.134C105.7 108.147 106.079 108.073 106.427 107.918C106.774 107.763 107.079 107.532 107.319 107.242C107.593 106.961 107.805 106.628 107.942 106.263C108.08 105.899 108.14 105.512 108.119 105.124Z" fill="black"/>
<path d="M114.635 107.409C114.807 107.618 115.024 107.787 115.271 107.903C115.519 108.019 115.79 108.079 116.064 108.079C116.339 108.079 116.61 108.019 116.857 107.903C117.104 107.787 117.322 107.618 117.493 107.409C117.865 106.888 118.047 106.259 118.008 105.625V100.497H120.122V105.681C120.155 106.249 120.071 106.818 119.875 107.354C119.678 107.891 119.374 108.383 118.979 108.802C118.171 109.494 117.129 109.871 116.053 109.86C114.978 109.85 113.944 109.454 113.149 108.747C112.755 108.327 112.45 107.835 112.254 107.299C112.058 106.763 111.973 106.194 112.006 105.625V100.441H114.115V105.569C114.033 106.226 114.22 106.887 114.635 107.409Z" fill="black"/>
<path d="M128.97 100.553H131.085V109.862H128.97L124.455 104.065V109.862H122.34V100.553H124.341L129.028 106.517V100.553H128.97Z" fill="black"/>
<path d="M140.697 101.779C141.162 102.217 141.525 102.748 141.761 103.334C141.998 103.921 142.103 104.55 142.069 105.179C142.099 105.804 141.998 106.427 141.772 107.012C141.546 107.597 141.2 108.13 140.755 108.58C139.897 109.416 138.525 109.862 136.696 109.862H133.438V100.553H136.811C138.525 100.553 139.84 100.943 140.697 101.779ZM139.154 107.298C139.424 107.025 139.635 106.701 139.772 106.347C139.91 105.992 139.972 105.614 139.954 105.235C139.972 104.848 139.911 104.461 139.773 104.097C139.636 103.734 139.425 103.4 139.154 103.117C138.823 102.848 138.44 102.645 138.028 102.521C137.616 102.396 137.183 102.353 136.754 102.392H135.553V108.022H136.925C137.731 108.032 138.516 107.777 139.154 107.298Z" fill="black"/>
<path d="M150.414 109.806L149.556 107.799H145.555L144.698 109.806H142.412L146.527 100.497H148.585L152.7 109.806H150.414ZM147.556 103.284L146.355 105.96H148.756L147.556 103.284Z" fill="black"/>
<path d="M157.167 102.337V109.806H155.053V102.337H152.309V100.553H159.848V102.337H157.167Z" fill="black"/>
<path d="M161.389 100.553H163.504V109.862H161.389V100.553Z" fill="black"/>
<path d="M173.848 108.524C172.898 109.422 171.626 109.922 170.304 109.918C169.646 109.938 168.992 109.825 168.382 109.585C167.772 109.345 167.219 108.984 166.76 108.524C165.844 107.618 165.331 106.397 165.331 105.124C165.331 103.852 165.844 102.63 166.76 101.724C167.71 100.826 168.981 100.326 170.304 100.33C170.961 100.31 171.616 100.423 172.226 100.663C172.836 100.903 173.388 101.265 173.848 101.724C174.764 102.63 175.277 103.852 175.277 105.124C175.277 106.397 174.764 107.618 173.848 108.524ZM173.162 105.124C173.177 104.345 172.892 103.589 172.362 103.006C172.109 102.731 171.801 102.509 171.457 102.356C171.113 102.202 170.74 102.12 170.361 102.114C169.98 102.101 169.6 102.175 169.253 102.33C168.906 102.485 168.6 102.716 168.361 103.006C168.087 103.288 167.875 103.621 167.737 103.985C167.6 104.349 167.539 104.737 167.56 105.124C167.555 105.901 167.839 106.654 168.361 107.242C168.613 107.518 168.921 107.739 169.265 107.893C169.609 108.046 169.982 108.128 170.361 108.134C170.743 108.147 171.122 108.073 171.469 107.918C171.816 107.763 172.122 107.532 172.362 107.242C172.892 106.659 173.177 105.903 173.162 105.124Z" fill="black"/>
<path d="M183.739 100.553H185.854V109.862H183.739L179.224 104.065V109.862H177.109V100.553H179.109L183.796 106.517L183.739 100.553Z" fill="black"/>
<path d="M8.86439 90.4711C9.76079 90.4884 10.6486 90.2976 11.4545 89.9145C12.2604 89.5314 12.9613 88.9668 13.4994 88.2675L15.9908 90.7536C14.0209 92.9007 11.7613 93.9742 9.09614 93.9742C7.89604 94.0212 6.69851 93.8323 5.57478 93.4188C4.45105 93.0053 3.42406 92.3756 2.55492 91.5672C1.70974 90.7732 1.04584 89.8143 0.606558 88.7531C0.167279 87.6918 -0.0374884 86.5521 0.00563523 85.4085C-0.0273676 84.2526 0.18749 83.1027 0.636448 82.0324C1.08541 80.9622 1.75857 79.9951 2.61286 79.1932C3.5317 78.3477 4.61669 77.6926 5.80231 77.2673C6.98794 76.8421 8.24963 76.6555 9.51124 76.7189C10.7728 76.7822 12.0082 77.0942 13.1428 77.636C14.2773 78.1778 15.2875 78.9382 16.1125 79.8712L13.737 82.5268C13.2137 81.8397 12.5319 81.2822 11.7469 80.8994C10.9619 80.5166 10.0955 80.3192 9.21781 80.3232C7.8497 80.2976 6.52323 80.7827 5.50977 81.6793C4.98384 82.1504 4.57096 82.7289 4.30057 83.3735C4.03017 84.0181 3.90891 84.7129 3.94544 85.4085C3.9088 86.1025 4.01843 86.7965 4.26756 87.4476C4.51668 88.0987 4.90002 88.6931 5.39389 89.1941C6.34913 90.0235 7.58548 90.4784 8.86439 90.4711Z" fill="black"/>
<path d="M19.0144 93.7475V76.9663H22.8383V90.4365H30.1965V93.7701L19.0144 93.7475Z" fill="black"/>
<path d="M46.9994 91.4311C45.2585 93.0282 42.9584 93.9174 40.5682 93.9174C38.1781 93.9174 35.878 93.0282 34.1371 91.4311C33.2881 90.6371 32.6179 89.6795 32.169 88.6192C31.7201 87.5589 31.5025 86.4191 31.5299 85.2723C31.4971 84.1248 31.7123 82.9834 32.1615 81.9224C32.6107 80.8613 33.2838 79.9043 34.1371 79.1135C35.878 77.5164 38.1781 76.6272 40.5682 76.6272C42.9584 76.6272 45.2585 77.5164 46.9994 79.1135C47.8483 79.9075 48.5186 80.8651 48.9674 81.9254C49.4163 82.9857 49.634 84.1255 49.6066 85.2723C49.6394 86.4198 49.4242 87.5612 48.975 88.6222C48.5258 89.6833 47.8527 90.6403 46.9994 91.4311ZM45.6668 85.2723C45.6775 83.8525 45.1397 82.4808 44.1604 81.4301C43.6992 80.9323 43.1361 80.5343 42.5073 80.2619C41.8786 79.9895 41.1983 79.8488 40.5103 79.8488C39.8223 79.8488 39.142 79.9895 38.5132 80.2619C37.8845 80.5343 37.3214 80.9323 36.8602 81.4301C35.8698 82.4741 35.3302 83.8503 35.3538 85.2723C35.3431 86.6921 35.8809 88.0638 36.8602 89.1145C37.3214 89.6123 37.8845 90.0103 38.5132 90.2827C39.142 90.5551 39.8223 90.6958 40.5103 90.6958C41.1983 90.6958 41.8786 90.5551 42.5073 90.2827C43.1361 90.0103 43.6992 89.6123 44.1604 89.1145C44.6622 88.6048 45.054 88.0022 45.3128 87.3422C45.5715 86.6823 45.6919 85.9784 45.6668 85.2723Z" fill="black"/>
<path d="M57.4266 89.4535C57.7325 89.8399 58.1288 90.1493 58.5824 90.3557C59.036 90.5622 59.5337 90.6597 60.0338 90.64C60.5266 90.6656 61.018 90.5703 61.4633 90.3631C61.9086 90.1558 62.2936 89.8431 62.5831 89.4535C63.2485 88.5306 63.5751 87.4158 63.5101 86.2894V77.0229H67.3341V86.4024C67.3341 88.832 66.6388 90.6965 65.2483 91.9961C64.5482 92.6508 63.7214 93.1628 62.8162 93.5024C61.9109 93.8419 60.9454 94.0021 59.9759 93.9737C58.9977 94.0022 58.0234 93.8421 57.1087 93.5028C56.194 93.1634 55.357 92.6514 54.6456 91.9961C53.2551 90.6965 52.5598 88.832 52.5598 86.4024V77.0229H56.3779V86.2894C56.3784 87.4252 56.7453 88.5322 57.4266 89.4535Z" fill="black"/>
<path d="M84.4843 79.1699C86.1066 80.639 86.9756 82.6731 86.9756 85.2722C86.9756 87.8713 86.1645 89.9619 84.6002 91.4874C83.0358 93.013 80.5445 93.7475 77.2999 93.7475H71.3323V76.9663H77.4158C80.4865 76.9663 82.862 77.7008 84.4843 79.1699ZM81.7032 89.1708C82.6303 88.3233 83.0938 87.0237 83.0938 85.3852C83.0938 83.7466 82.6303 82.447 81.7032 81.5995C80.7762 80.752 79.3278 80.2434 77.3579 80.2434H75.2141V90.4704H77.6476C79.1185 90.5468 80.5654 90.0832 81.7032 89.1708Z" fill="black"/>
<path d="M108.814 76.9663H112.638V93.7475H108.814L100.587 83.2381V93.7475H96.7632V76.9663H100.355L108.814 87.7583V76.9663Z" fill="black"/>
<path d="M129.154 93.7475L127.532 90.1314H120.289L118.667 93.7475H114.553L121.97 76.9663H125.678L133.094 93.7475H129.154ZM123.997 81.995L121.854 86.8542H126.141L123.997 81.995Z" fill="black"/>
<path d="M141.314 80.2661V93.8266H137.484V80.2661H132.618V77.0454H146.233V80.2661H141.314Z" fill="black"/>
<path d="M148.972 76.9663H152.796V93.7475H148.972V76.9663Z" fill="black"/>
<path d="M163.391 87.6453L167.795 76.9663H171.966L165.072 93.7475H161.821L154.927 76.9663H159.098L163.391 87.6453Z" fill="black"/>
<path d="M186.398 76.9663V80.3H177.823V83.7466H185.529V86.9672H177.823V90.4704H186.687V93.8266H173.993V77.0228H186.392L186.398 76.9663Z" fill="black"/>
<path d="M69.0566 39.6582H60.5911V59.5383H80.4061V50.989H69.0566V39.6582Z" fill="#0086FF"/>
<path d="M111.663 39.7512V50.989H100.313V59.5383H120.128V39.6582H111.57L111.663 39.7512Z" fill="#0086FF"/>
<path d="M60.5911 19.8799H69.1497L69.0566 19.7869V8.54905H80.4061V-0.000244141H60.5911V19.8799Z" fill="#0086FF"/>
<path d="M100.314 -0.000244141V8.54905H111.663V19.8799H120.129V-0.000244141H100.314Z" fill="#0086FF"/>
<path d="M99.2011 19.8799L87.8517 8.54905H100.317V-0.000244141H80.4094V8.54905L91.7589 19.8799H99.2011Z" fill="#93EAFF"/>
<path d="M88.968 39.6577H81.5258L90.9216 49.0443L92.7822 50.9886H80.4094V59.5379H100.317V50.8955L94.6428 45.3138L88.968 39.6577Z" fill="#93EAFF"/>
<path d="M111.663 19.8794V32.2335L109.71 30.28L100.314 20.8934V28.4194L105.895 34.0011L111.57 39.6665H120.129V19.8794H111.663Z" fill="#93EAFF"/>
<path d="M80.4095 31.1172L69.1531 19.8794H60.5945V39.6572H69.0601V27.3031L80.4095 38.6432V31.1172Z" fill="#93EAFF"/>
</svg>
