<svg xmlns="http://www.w3.org/2000/svg" role="img" viewBox="8.50 217.00 624.00 207.50"><style>svg {enable-background:new 0 0 652 652}</style><style>.st0{fill:#296cae}</style><path d="M20.9 232.8h40.5v164.6H20.9V232.8z" class="st0"/><path d="M87.9 397.4V275h37v11.4c4.8-4.8 10.1-8.3 16.1-10.7 6-2.4 12.7-3.5 20.2-3.5 13.3 0 23.2 4.2 29.8 12.6 6.5 8.4 9.8 21.3 9.8 38.7v73.9h-37v-72.1c0-8.3-1.5-14.3-4.4-18.2-2.9-3.9-7.5-5.8-13.8-5.8-7.4 0-12.7 1.8-15.9 5.4-3.2 3.6-4.7 9.8-4.7 18.6v72.1H87.9zm139.9 0v-97H209V278h18.8c-.2-2.5-.4-4.3-.4-5.5 0-1.1-.1-2.2-.1-3.1 0-13 3.2-22.3 9.5-28.1 6.3-5.7 16.7-8.6 31.1-8.6 3.2 0 6.4.2 9.7.6 3.3.4 6.7 1 10.3 1.8v25.6h-6.2c-6.8 0-11.3.8-13.5 2.5-2.2 1.7-3.3 5-3.3 10v4.7h23v22.4h-23v97h-37.1zm98.7-61.1c0 11.2 2.6 20 7.7 26.6s12 9.8 20.5 9.8c8.6 0 15.4-3.3 20.6-9.9 5.2-6.6 7.7-15.4 7.7-26.5 0-11.2-2.6-20-7.7-26.6-5.1-6.6-12-9.9-20.6-9.9-8.5 0-15.3 3.3-20.5 10-5.1 6.6-7.7 15.5-7.7 26.5m28.2 65.1c-19.8 0-35.8-6-47.9-17.9-12.1-11.9-18.1-27.7-18.1-47.2 0-19.5 6.1-35.2 18.2-47.2s28.1-18 47.8-18c20 0 36 6 48.1 17.9 12.1 12 18.2 27.7 18.2 47.3 0 19.5-6.1 35.2-18.3 47.2-12.2 11.9-28.2 17.9-48 17.9" class="st0"/><path fill="#1e8d44" d="M519.1 366.9c13.1 0 23.3-4.5 30.7-13.6 7.3-9.1 11-21.7 11-38s-3.7-28.9-11.1-38.1c-7.4-9.1-17.6-13.7-30.6-13.7s-23.1 4.6-30.6 13.8c-7.4 9.2-11.1 21.9-11.1 38s3.7 28.7 11.1 37.8c7.4 9.2 17.6 13.8 30.6 13.8m43.8 24.2c-6.1 3.3-12.9 5.9-20.3 7.6-7.4 1.7-15.2 2.6-23.5 2.6-25.3 0-45.6-7.8-60.8-23.4-15.2-15.6-22.8-36.5-22.8-62.6 0-14.3 2.3-27 7-38.3 4.6-11.3 11.6-20.9 20.8-28.9 7.4-6.4 15.7-11.2 25.1-14.3 9.3-3.2 19.6-4.8 30.8-4.8 25.3 0 45.5 7.9 60.7 23.6 15.2 15.7 22.9 36.6 22.9 62.7 0 10.9-1.3 20.8-3.8 29.6s-6.5 16.8-11.8 24c4.8 4.2 10 7.5 15.6 10s11.7 4 18.1 4.7L608.5 413c-9.4-.9-17.9-3.2-25.5-6.9-7.7-3.7-14.4-8.7-20.1-15"/><path fill="#198643" d="M587.2 368.9c5.3-7.1 9.2-15.1 11.8-24 1.2-4.2 2.1-8.7 2.7-13.4-14.5.7-28.7 1.4-42.8 2.1-1.8 7.8-4.8 14.3-9.1 19.6-7.3 9.1-17.6 13.6-30.7 13.6-13 0-23.2-4.6-30.6-13.7-3.6-4.5-6.4-9.8-8.2-16-14.3.6-28.4 1.1-42.3 1.6 3.3 15.5 10.1 28.6 20.4 39.2 15.2 15.6 35.5 23.4 60.8 23.4 8.3 0 16.1-.9 23.5-2.6 7.4-1.7 14.1-4.3 20.3-7.6 5.7 6.3 12.4 11.3 20.1 15 7.6 3.7 16.2 6 25.5 6.9l12.4-29.4c-6.4-.7-12.5-2.3-18.1-4.7-5.8-2.5-11-5.8-15.7-10"/><path fill="#2066a9" d="M375.3 362.8c-5.2 6.6-12 9.9-20.6 9.9-8.6 0-15.4-3.3-20.5-9.8-4.3-5.5-6.8-12.7-7.5-21.6l-37.8.3c1 17.1 7 31.2 17.9 42 12.1 11.9 28.1 17.9 47.9 17.9 19.8 0 35.8-6 48-17.9 11.5-11.3 17.6-26.1 18.2-44.2-12.7.4-25.4.7-38 1-.6 9.1-3.1 16.6-7.6 22.4m-147.5 34.6h37v-55.9c-12.3 0-24.6-.2-37-.3v56.2zm-139.9 0h37v-59.1c-12.2-.5-24.5-1.1-37-1.7v60.8zm75.8 0h37v-56.7c-12.3-.3-24.6-.6-37-1v57.7zm-142.8 0h40.5v-62.3c-13.3-.8-26.8-1.6-40.5-2.6v64.9z"/></svg>