<svg xmlns="http://www.w3.org/2000/svg" role="img" xmlns:xlink="http://www.w3.org/1999/xlink" viewBox="75.52 1.02 241.71 245.96"><title>Huawei.svg</title><defs><radialGradient id="a" cx="226.385" cy="25.959" r="169.209" gradientTransform="matrix(.98959 0 0 .9856 2.778 1.591)" gradientUnits="userSpaceOnUse"><stop offset="0" stop-color="#f7bfa4"/><stop offset=".055" stop-color="#f5a691"/><stop offset=".43" stop-color="#e60012"/><stop offset=".688" stop-color="#e40011"/><stop offset=".791" stop-color="#dd0010"/><stop offset=".867" stop-color="#d1000d"/><stop offset=".929" stop-color="#bf0008"/><stop offset=".983" stop-color="#a90002"/><stop offset="1" stop-color="#a00000"/></radialGradient><radialGradient id="b" cx="226.385" cy="25.942" r="169.219" xlink:href="#a"/><radialGradient id="c" cx="226.381" cy="25.963" r="169.196" xlink:href="#a"/><radialGradient id="d" cx="226.376" cy="25.967" r="169.2" xlink:href="#a"/><radialGradient id="e" cx="226.417" cy="25.968" r="169.389" xlink:href="#a"/><radialGradient id="f" cx="226.416" cy="25.973" r="169.374" xlink:href="#a"/><radialGradient id="g" cx="226.416" cy="25.978" r="169.369" xlink:href="#a"/><radialGradient id="h" cx="226.416" cy="25.974" r="169.375" xlink:href="#a"/></defs><path fill="url(#a)" d="M180.408 141.69338a.73455.73455 0 0 0 .19789-.86315h.00758c-27.2773-59.34614-64.59265-104.34318-64.59265-104.34318S95.7206 55.67614 97.16557 74.90114c.77066 14.54373 11.76193 23.158 11.76193 23.158 17.70324 17.17862 60.56646 38.87458 70.52564 43.79816a.8397.8397 0 0 0 .95486-.16392z"/><path fill="url(#b)" d="M173.77961 156.38711a.96646.96646 0 0 0-.917-.63681v-.0223l-71.35561 2.478c7.74022 13.74357 20.77123 24.41591 34.349 21.13725 9.37271-2.32849 30.59157-17.0735 37.59448-22.05841l-.019-.0145c.53961-.48623.34813-.88323.34813-.88323z"/><path fill="url(#c)" d="M174.859 150.00822c.3454-.5587-.26761-1.05722-.26761-1.05722l.00338-.01005c-31.33953-21.057-92.08211-53.38543-92.08211-53.38543a41.9255 41.9255 0 0 0 1.92223 30.746 42.34954 42.34954 0 0 0 22.51885 21.232 43.7448 43.7448 0 0 0 13.65079 2.98313c1.06792.19739 42.438.02233 53.52049-.03009a.96343.96343 0 0 0 .73398-.47834z"/><path fill="url(#d)" d="M179.59336 5.796c-3.10491.27406-11.48727 2.1749-11.48727 2.1749a32.99424 32.99424 0 0 0-23.35441 21.9371c-3.44894 10.74595.08875 22.54043.08875 22.54043 6.30448 27.8697 37.33634 73.66018 44.00445 83.27644.4725.4706.84732.29885.84732.29885a.8705.8705 0 0 0 .66484-.88769l.0106.00668C200.63559 32.89841 179.59336 5.796 179.59336 5.796z"/><path fill="url(#e)" d="M203.21871 135.99812a.83093.83093 0 0 0 1.03575-.39478l.00671.00777c6.84475-9.86156 37.69693-55.40252 43.97172-83.16265 0 0 3.405-13.43941.11758-22.54043 0 0-4.66471-17.339-23.58539-21.92264 0 0-5.45068-1.37451-11.23393-2.1894 0 0-21.145 27.11692-10.86555 129.42035h.01009a.87579.87579 0 0 0 .54302.78178z"/><path fill="url(#f)" d="M220.11161 155.79381a1.05335 1.05335 0 0 0-.80392.54865 1.01036 1.01036 0 0 0 .27546.958l-.01123.00668c6.83242 4.87671 27.5379 19.29832 37.52116 22.09856 0 0 18.44364 6.2607 34.46543-21.15513l-71.44351-2.47794z"/><path fill="url(#g)" d="M310.54976 95.40941s-60.65079 32.41992-92.0124 53.48472l.0078.01005a.941.941 0 0 0-.36839 1.03489s.29449.53307.73455.53307v.00668c11.22276.01559 53.73323.06692 54.80482-.13047a42.82645 42.82645 0 0 0 12.28528-2.81475 41.79464 41.79464 0 0 0 22.96728-21.8856 42.74065 42.74065 0 0 0 1.58106-30.23859z"/><path fill="url(#h)" d="M212.80451 141.69338a.90654.90654 0 0 0 .9618.06914v.00331c10.224-5.054 52.76134-26.60835 70.37979-43.70669 0 0 11.15219-8.92545 11.74342-23.25278 1.28427-19.90168-18.82552-38.31931-18.82552-38.31931s-37.20649 44.8543-64.47225 104.07665l.01565-.00337a.998.998 0 0 0 .19711 1.13305z"/><path fill="#231815" d="M106.644 218.508H88.769v-15.74h-7.917v39.017h7.917V225.94h17.875v15.845h7.916v-39.017h-7.916v15.74zm44.59557 6.59152c0 6.34447-3.14963 9.73176-8.86821 9.73176-5.75277 0-8.92094-3.483-8.92094-10.00094v-22.03961h-7.916v22.30879c0 10.97486 6.09812 17.26928 16.73092 17.26928 10.734 0 16.88973-6.41186 16.88973-17.59226v-22.009h-7.9155zM242.732 229.597l-8.859-26.835h-6.461l-8.858 26.835-8.617-26.812h-8.427l13.597 39h6.556l8.872-25.619 8.87 25.619h6.611l13.564-39h-8.21l-8.638 26.812zm31.04-4.603h14.399v-7.107h-14.399v-7.986h20.901v-7.107h-28.711v38.966h29.463v-7.106h-21.653v-9.66zm31.095-22.229h7.809v38.966h-7.809zm-112.20894 30.8755l3.50331 8.12147h8.29721l-17.0269-38.76918-.15336-.22529h-6.92142l-17.18881 38.9945h8.08021l3.31557-7.55154h-.00056l.23872-.56993zm-8.947-20.9997l5.644 13.05925h-.019l.379.90593h-11.96893l.379-.90593h-.01141z"/></svg>