<svg fill="none" height="605" viewBox="0 0 1200 605" width="1200" xmlns="http://www.w3.org/2000/svg"><path d="m-.00048828 485.512h1200.00048828" stroke="#b7b7b7" stroke-miterlimit="10" stroke-width=".5"/><path d="m-.00048828 277.697h1200.00048828" stroke="#b7b7b7" stroke-miterlimit="10" stroke-width=".5"/><path d="m-.00048828 139.154h1200.00048828" stroke="#b7b7b7" stroke-miterlimit="10" stroke-width=".5"/><path d="m-.00048828 1.1543h1200.00048828" stroke="#b7b7b7" stroke-miterlimit="10" stroke-width=".5"/><path d="m-.00048828 416.24h1200.00048828" stroke="#b7b7b7" stroke-miterlimit="10" stroke-width=".5"/><path d="m-.00048828 346.969h1200.00048828" stroke="#b7b7b7" stroke-miterlimit="10" stroke-width=".5"/><path d="m-.00048828 208.426h1200.00048828" stroke="#b7b7b7" stroke-miterlimit="10" stroke-width=".5"/><path d="m-.00048828 70.1543h1200.00048828" stroke="#b7b7b7" stroke-miterlimit="10" stroke-width=".5"/><path d="m-.00048828 554.783h1196.20048828" stroke="#333" stroke-miterlimit="10"/><path d="m9.1016 302.51v-2.384h-5.408l-.192-1.552 5.2-7.056h2.4v6.896h1.52v1.712h-1.52v2.384zm-3.472-4.096h3.472v-4.72zm9.7909 6.368-.752-.576c.464-.48.784-.992.928-1.504-.672 0-1.232-.576-1.232-1.264 0-.672.56-1.248 1.248-1.248.816 0 1.344.736 1.344 1.744 0 .864-.448 1.696-1.536 2.848zm8.4838-2.08c-2.832 0-4.816-2.352-4.816-5.696 0-3.328 1.984-5.68 4.816-5.68 2.816 0 4.816 2.352 4.816 5.68 0 3.344-2 5.696-4.816 5.696zm0-1.824c1.632 0 2.768-1.6 2.768-3.872s-1.136-3.856-2.768-3.856-2.784 1.584-2.784 3.856 1.152 3.872 2.784 3.872zm11.2969 1.824c-2.832 0-4.816-2.352-4.816-5.696 0-3.328 1.984-5.68 4.816-5.68 2.816 0 4.816 2.352 4.816 5.68 0 3.344-2 5.696-4.816 5.696zm0-1.824c1.632 0 2.768-1.6 2.768-3.872s-1.136-3.856-2.768-3.856-2.784 1.584-2.784 3.856 1.152 3.872 2.784 3.872zm11.2969 1.824c-2.832 0-4.816-2.352-4.816-5.696 0-3.328 1.984-5.68 4.816-5.68 2.816 0 4.816 2.352 4.816 5.68 0 3.344-2 5.696-4.816 5.696zm0-1.824c1.632 0 2.768-1.6 2.768-3.872s-1.136-3.856-2.768-3.856-2.784 1.584-2.784 3.856 1.152 3.872 2.784 3.872z" fill="#002626"/><path d="m9.2902 371.2c-1.936 0-3.392-.784-4.288-1.856l1.216-1.312c.752.864 1.808 1.392 2.992 1.392 1.328 0 2.128-.656 2.128-1.616 0-.976-.8-1.488-2.368-1.488l-1.232.016v-1.728h1.232c1.296.016 2.144-.512 2.144-1.472 0-.896-.848-1.52-2.032-1.52-1.104 0-1.936.528-2.688 1.36l-1.184-1.216c.88-1.104 2.16-1.936 4.032-1.936 2.352 0 3.904 1.248 3.904 2.992 0 1.328-.912 2.192-2.08 2.544 1.168.272 2.32 1.12 2.32 2.608 0 1.888-1.632 3.232-4.096 3.232zm7.2875 2.08-.752-.576c.464-.48.784-.992.928-1.504-.672 0-1.232-.576-1.232-1.264 0-.672.56-1.248 1.248-1.248.816 0 1.344.736 1.344 1.744 0 .864-.448 1.696-1.536 2.848zm8.4839-2.08c-2.832 0-4.816-2.352-4.816-5.696 0-3.328 1.984-5.68 4.816-5.68 2.816 0 4.816 2.352 4.816 5.68 0 3.344-2 5.696-4.816 5.696zm0-1.824c1.632 0 2.768-1.6 2.768-3.872s-1.136-3.856-2.768-3.856-2.784 1.584-2.784 3.856 1.152 3.872 2.784 3.872zm11.2968 1.824c-2.832 0-4.816-2.352-4.816-5.696 0-3.328 1.984-5.68 4.816-5.68 2.816 0 4.816 2.352 4.816 5.68 0 3.344-2 5.696-4.816 5.696zm0-1.824c1.632 0 2.768-1.6 2.768-3.872s-1.136-3.856-2.768-3.856-2.784 1.584-2.784 3.856 1.152 3.872 2.784 3.872zm11.2969 1.824c-2.832 0-4.816-2.352-4.816-5.696 0-3.328 1.984-5.68 4.816-5.68 2.816 0 4.816 2.352 4.816 5.68 0 3.344-2 5.696-4.816 5.696zm0-1.824c1.632 0 2.768-1.6 2.768-3.872s-1.136-3.856-2.768-3.856-2.784 1.584-2.784 3.856 1.152 3.872 2.784 3.872z" fill="#002626"/><path d="m5.1622 444.09v-1.632l4.048-3.232c1.392-1.12 1.888-1.952 1.888-2.848 0-1.04-.88-1.68-1.872-1.68-1.152 0-1.984.592-2.784 1.552l-1.296-1.2c1.04-1.36 2.368-2.144 4.144-2.144 2.176 0 3.84 1.392 3.84 3.424 0 1.456-.672 2.624-2.56 4.08l-2.304 1.856h4.976v1.824zm11.2436 2.272-.752-.576c.464-.48.784-.992.928-1.504-.672 0-1.232-.576-1.232-1.264 0-.672.56-1.248 1.248-1.248.816 0 1.344.736 1.344 1.744 0 .864-.448 1.696-1.536 2.848zm8.4839-2.08c-2.832 0-4.816-2.352-4.816-5.696 0-3.328 1.984-5.68 4.816-5.68 2.816 0 4.816 2.352 4.816 5.68 0 3.344-2 5.696-4.816 5.696zm0-1.824c1.632 0 2.768-1.6 2.768-3.872s-1.136-3.856-2.768-3.856-2.784 1.584-2.784 3.856 1.152 3.872 2.784 3.872zm11.2969 1.824c-2.832 0-4.816-2.352-4.816-5.696 0-3.328 1.984-5.68 4.816-5.68 2.816 0 4.816 2.352 4.816 5.68 0 3.344-2 5.696-4.816 5.696zm0-1.824c1.632 0 2.768-1.6 2.768-3.872s-1.136-3.856-2.768-3.856-2.784 1.584-2.784 3.856 1.152 3.872 2.784 3.872zm11.2968 1.824c-2.832 0-4.816-2.352-4.816-5.696 0-3.328 1.984-5.68 4.816-5.68 2.816 0 4.816 2.352 4.816 5.68 0 3.344-2 5.696-4.816 5.696zm0-1.824c1.632 0 2.768-1.6 2.768-3.872s-1.136-3.856-2.768-3.856-2.784 1.584-2.784 3.856 1.152 3.872 2.784 3.872z" fill="#002626"/><path d="m7.5942 509.129v-8.688l-1.888 1.2-.8-1.408 3.088-2.096h1.6v10.992zm5.796 2.272-.752-.576c.464-.48.784-.992.928-1.504-.672 0-1.232-.576-1.232-1.264 0-.672.56-1.248 1.248-1.248.816 0 1.344.736 1.344 1.744 0 .864-.448 1.696-1.536 2.848zm8.4839-2.08c-2.832 0-4.816-2.352-4.816-5.696 0-3.328 1.984-5.68 4.816-5.68 2.816 0 4.816 2.352 4.816 5.68 0 3.344-2 5.696-4.816 5.696zm0-1.824c1.632 0 2.768-1.6 2.768-3.872s-1.136-3.856-2.768-3.856-2.784 1.584-2.784 3.856 1.152 3.872 2.784 3.872zm11.2968 1.824c-2.832 0-4.816-2.352-4.816-5.696 0-3.328 1.984-5.68 4.816-5.68 2.816 0 4.816 2.352 4.816 5.68 0 3.344-2 5.696-4.816 5.696zm0-1.824c1.632 0 2.768-1.6 2.768-3.872s-1.136-3.856-2.768-3.856-2.784 1.584-2.784 3.856 1.152 3.872 2.784 3.872zm11.2969 1.824c-2.832 0-4.816-2.352-4.816-5.696 0-3.328 1.984-5.68 4.816-5.68 2.816 0 4.816 2.352 4.816 5.68 0 3.344-2 5.696-4.816 5.696zm0-1.824c1.632 0 2.768-1.6 2.768-3.872s-1.136-3.856-2.768-3.856-2.784 1.584-2.784 3.856 1.152 3.872 2.784 3.872z" fill="#002626"/><path d="m7.8696 233.622c-1.792 0-3.136-.672-4.112-1.696l1.184-1.424c.832.832 1.856 1.392 2.96 1.392 1.328 0 2.192-.864 2.192-1.936 0-1.12-.88-1.872-2.192-1.872-.864 0-1.616.288-2.24.768l-1.36-.576.16-5.84h7.024v1.824h-5.152l-.096 2.832c.56-.384 1.28-.672 2.224-.672 1.952 0 3.632 1.248 3.632 3.456 0 2.272-1.712 3.744-4.224 3.744zm7.3009 2.08-.752-.576c.464-.48.784-.992.928-1.504-.672 0-1.232-.576-1.232-1.264 0-.672.56-1.248 1.248-1.248.816 0 1.344.736 1.344 1.744 0 .864-.448 1.696-1.536 2.848zm8.4838-2.08c-2.832 0-4.816-2.352-4.816-5.696 0-3.328 1.984-5.68 4.816-5.68 2.816 0 4.816 2.352 4.816 5.68 0 3.344-2 5.696-4.816 5.696zm0-1.824c1.632 0 2.768-1.6 2.768-3.872s-1.136-3.856-2.768-3.856-2.784 1.584-2.784 3.856 1.152 3.872 2.784 3.872zm11.2969 1.824c-2.832 0-4.816-2.352-4.816-5.696 0-3.328 1.984-5.68 4.816-5.68 2.816 0 4.816 2.352 4.816 5.68 0 3.344-2 5.696-4.816 5.696zm0-1.824c1.632 0 2.768-1.6 2.768-3.872s-1.136-3.856-2.768-3.856-2.784 1.584-2.784 3.856 1.152 3.872 2.784 3.872zm11.2969 1.824c-2.832 0-4.816-2.352-4.816-5.696 0-3.328 1.984-5.68 4.816-5.68 2.816 0 4.816 2.352 4.816 5.68 0 3.344-2 5.696-4.816 5.696zm0-1.824c1.632 0 2.768-1.6 2.768-3.872s-1.136-3.856-2.768-3.856-2.784 1.584-2.784 3.856 1.152 3.872 2.784 3.872z" fill="#002626"/><path d="m8.8136 156.324c2.016 0 3.696 1.28 3.696 3.472 0 2.176-1.728 3.744-4.096 3.744-3.136 0-4.512-2.336-4.512-5.504 0-3.392 2-5.872 4.848-5.872 1.376 0 2.416.48 3.296 1.232l-.976 1.52c-.672-.592-1.36-.992-2.32-.992-1.552 0-2.64 1.488-2.784 3.632.688-.768 1.728-1.232 2.848-1.232zm-.496 5.52c1.344 0 2.16-.96 2.16-1.968 0-1.2-.992-1.92-2.192-1.92-1.072 0-1.904.592-2.224 1.504.24 1.472.928 2.384 2.256 2.384zm7.2279 3.776-.752-.576c.464-.48.784-.992.928-1.504-.672 0-1.232-.576-1.232-1.264 0-.672.56-1.248 1.248-1.248.816 0 1.344.736 1.344 1.744 0 .864-.448 1.696-1.536 2.848zm8.4838-2.08c-2.832 0-4.816-2.352-4.816-5.696 0-3.328 1.984-5.68 4.816-5.68 2.816 0 4.816 2.352 4.816 5.68 0 3.344-2 5.696-4.816 5.696zm0-1.824c1.632 0 2.768-1.6 2.768-3.872s-1.136-3.856-2.768-3.856-2.784 1.584-2.784 3.856 1.152 3.872 2.784 3.872zm11.2969 1.824c-2.832 0-4.816-2.352-4.816-5.696 0-3.328 1.984-5.68 4.816-5.68 2.816 0 4.816 2.352 4.816 5.68 0 3.344-2 5.696-4.816 5.696zm0-1.824c1.632 0 2.768-1.6 2.768-3.872s-1.136-3.856-2.768-3.856-2.784 1.584-2.784 3.856 1.152 3.872 2.784 3.872zm11.2969 1.824c-2.832 0-4.816-2.352-4.816-5.696 0-3.328 1.984-5.68 4.816-5.68 2.816 0 4.816 2.352 4.816 5.68 0 3.344-2 5.696-4.816 5.696zm0-1.824c1.632 0 2.768-1.6 2.768-3.872s-1.136-3.856-2.768-3.856-2.784 1.584-2.784 3.856 1.152 3.872 2.784 3.872z" fill="#002626"/><path d="m4.5896 93.1543 4.48-9.168h-5.616v-1.824h7.936v1.504l-4.528 9.488zm9.6121 2.272-.752-.576c.464-.48.784-.992.928-1.504-.672 0-1.232-.576-1.232-1.264 0-.672.56-1.248 1.248-1.248.816 0 1.344.736 1.344 1.744 0 .864-.448 1.696-1.536 2.848zm8.4839-2.08c-2.832 0-4.816-2.352-4.816-5.696 0-3.328 1.984-5.68 4.816-5.68 2.816 0 4.816 2.352 4.816 5.68 0 3.344-2 5.696-4.816 5.696zm0-1.824c1.632 0 2.768-1.6 2.768-3.872s-1.136-3.856-2.768-3.856-2.784 1.584-2.784 3.856 1.152 3.872 2.784 3.872zm11.2969 1.824c-2.832 0-4.816-2.352-4.816-5.696 0-3.328 1.984-5.68 4.816-5.68 2.816 0 4.816 2.352 4.816 5.68 0 3.344-2 5.696-4.816 5.696zm0-1.824c1.632 0 2.768-1.6 2.768-3.872s-1.136-3.856-2.768-3.856-2.784 1.584-2.784 3.856 1.152 3.872 2.784 3.872zm11.2968 1.824c-2.832 0-4.816-2.352-4.816-5.696 0-3.328 1.984-5.68 4.816-5.68 2.816 0 4.816 2.352 4.816 5.68 0 3.344-2 5.696-4.816 5.696zm0-1.824c1.632 0 2.768-1.6 2.768-3.872s-1.136-3.856-2.768-3.856-2.784 1.584-2.784 3.856 1.152 3.872 2.784 3.872z" fill="#002626"/><path d="m8.1256 23.3463c-2.384 0-4.272-1.168-4.272-3.12 0-1.328.96-2.288 2.24-2.752-1.136-.48-1.952-1.296-1.952-2.544 0-1.888 1.92-2.96 3.984-2.96 2.128 0 4 1.104 4 2.96 0 1.28-.848 2.096-1.952 2.544 1.296.496 2.24 1.456 2.24 2.752 0 1.968-1.92 3.12-4.288 3.12zm0-6.592c.944-.048 2.032-.608 2.032-1.568 0-.864-.88-1.52-2.032-1.52s-2.016.656-2.016 1.52c0 .976 1.104 1.52 2.016 1.568zm0 4.88c1.28 0 2.272-.64 2.272-1.6 0-1.024-1.248-1.632-2.272-1.68-1.008.048-2.272.656-2.272 1.68 0 .96.976 1.6 2.272 1.6zm7.4355 3.792-.752-.576c.464-.48.784-.992.928-1.504-.672 0-1.232-.576-1.232-1.264 0-.672.56-1.248 1.248-1.248.816 0 1.344.736 1.344 1.744 0 .864-.448 1.696-1.536 2.848zm8.4839-2.08c-2.832 0-4.816-2.352-4.816-5.696 0-3.328 1.984-5.68 4.816-5.68 2.816 0 4.816 2.352 4.816 5.68 0 3.344-2 5.696-4.816 5.696zm0-1.824c1.632 0 2.768-1.6 2.768-3.872s-1.136-3.856-2.768-3.856-2.784 1.584-2.784 3.856 1.152 3.872 2.784 3.872zm11.2968 1.824c-2.832 0-4.816-2.352-4.816-5.696 0-3.328 1.984-5.68 4.816-5.68 2.816 0 4.816 2.352 4.816 5.68 0 3.344-2 5.696-4.816 5.696zm0-1.824c1.632 0 2.768-1.6 2.768-3.872s-1.136-3.856-2.768-3.856-2.784 1.584-2.784 3.856 1.152 3.872 2.784 3.872zm11.2969 1.824c-2.832 0-4.816-2.352-4.816-5.696 0-3.328 1.984-5.68 4.816-5.68 2.816 0 4.816 2.352 4.816 5.68 0 3.344-2 5.696-4.816 5.696zm0-1.824c1.632 0 2.768-1.6 2.768-3.872s-1.136-3.856-2.768-3.856-2.784 1.584-2.784 3.856 1.152 3.872 2.784 3.872z" fill="#002626"/><g fill="#3b4bc4"><path d="m182.656 588.795v-1.92l4.048-3.136c1.312-1.04 1.728-1.76 1.728-2.528 0-.912-.768-1.456-1.664-1.456-1.072 0-1.888.544-2.688 1.456l-1.504-1.456c1.088-1.376 2.48-2.144 4.256-2.144 2.336 0 4.032 1.44 4.032 3.504 0 1.472-.64 2.608-2.56 4l-2 1.552h4.656v2.128zm14.837.192c-2.896 0-4.944-2.352-4.944-5.696 0-3.328 2.048-5.68 4.944-5.68s4.928 2.352 4.928 5.68c0 3.344-2.032 5.696-4.928 5.696zm0-2.144c1.472 0 2.512-1.488 2.512-3.552s-1.04-3.536-2.512-3.536-2.512 1.472-2.512 3.536 1.04 3.552 2.512 3.552zm8.879 1.952v-8.288l-1.872 1.168-.96-1.664 3.296-2.208h1.888v10.992zm8.843.192c-2.432 0-4.416-1.152-4.416-3.136 0-1.296.896-2.256 2.16-2.736-1.088-.464-1.872-1.264-1.872-2.512 0-1.936 1.984-2.992 4.128-2.992 2.192 0 4.144 1.104 4.144 2.992 0 1.232-.784 2.032-1.888 2.512 1.296.512 2.16 1.472 2.16 2.736 0 2-2 3.136-4.416 3.136zm0-6.688c.864-.064 1.792-.576 1.792-1.392 0-.752-.736-1.312-1.792-1.312s-1.776.56-1.776 1.312c0 .848.912 1.328 1.776 1.392zm0 4.704c1.168 0 2.032-.576 2.032-1.408 0-.864-1.088-1.408-2.032-1.44-.944.032-2.016.576-2.016 1.44 0 .832.848 1.408 2.016 1.408z"/><path d="m156 384.154h91v172h-91z"/><path d="m187.373 374.154v-.83l2.52-2.08c.92-.77 1.27-1.36 1.27-1.98 0-.75-.62-1.19-1.3-1.19-.75 0-1.3.4-1.78 1.02l-.68-.6c.6-.83 1.41-1.33 2.5-1.33 1.28 0 2.3.83 2.3 2.08 0 .92-.44 1.65-1.62 2.61l-1.61 1.36h3.29v.94zm6.87 1.37-.42-.32c.28-.3.47-.62.55-.93-.36 0-.65-.3-.65-.67 0-.35.28-.66.66-.66.44 0 .73.4.73.95 0 .47-.23.9-.87 1.63zm4.754-1.25c-1.09 0-1.92-.44-2.5-1.08l.63-.72c.52.55 1.16.91 1.89.91.89 0 1.5-.6 1.5-1.37 0-.79-.62-1.32-1.51-1.32-.57 0-1.05.19-1.46.5l-.71-.32.1-3.59h4.22v.94h-3.26l-.06 2.04c.36-.24.82-.44 1.42-.44 1.24 0 2.27.78 2.27 2.15 0 1.39-1.05 2.3-2.53 2.3zm6.525 0c-1.73 0-2.94-1.47-2.94-3.56 0-2.08 1.21-3.55 2.94-3.55 1.71 0 2.92 1.47 2.92 3.55 0 2.09-1.21 3.56-2.92 3.56zm0-.93c1.11 0 1.89-1.09 1.89-2.63s-.78-2.62-1.89-2.62c-1.12 0-1.91 1.08-1.91 2.62s.79 2.63 1.91 2.63zm6.983.93c-1.73 0-2.94-1.47-2.94-3.56 0-2.08 1.21-3.55 2.94-3.55 1.71 0 2.92 1.47 2.92 3.55 0 2.09-1.21 3.56-2.92 3.56zm0-.93c1.11 0 1.89-1.09 1.89-2.63s-.78-2.62-1.89-2.62c-1.12 0-1.91 1.08-1.91 2.62s.79 2.63 1.91 2.63z"/><path d="m486.953 589.154v-1.92l4.048-3.136c1.312-1.04 1.728-1.76 1.728-2.528 0-.912-.768-1.456-1.664-1.456-1.072 0-1.888.544-2.688 1.456l-1.504-1.456c1.088-1.376 2.48-2.144 4.256-2.144 2.336 0 4.032 1.44 4.032 3.504 0 1.472-.64 2.608-2.56 4l-2 1.552h4.656v2.128zm14.837.192c-2.896 0-4.944-2.352-4.944-5.696 0-3.328 2.048-5.68 4.944-5.68s4.928 2.352 4.928 5.68c0 3.344-2.032 5.696-4.928 5.696zm0-2.144c1.472 0 2.512-1.488 2.512-3.552s-1.04-3.536-2.512-3.536-2.512 1.472-2.512 3.536 1.04 3.552 2.512 3.552zm8.878 1.952v-8.288l-1.872 1.168-.96-1.664 3.296-2.208h1.888v10.992zm8.555-11.184c3.2 0 4.672 2.304 4.672 5.504 0 3.424-2 5.872-5.056 5.872-1.36 0-2.464-.464-3.36-1.184l1.12-1.792c.672.56 1.312.896 2.24.896 1.44 0 2.4-1.2 2.608-3.056-.672.656-1.68 1.056-2.72 1.056-2.032 0-3.712-1.312-3.712-3.488 0-2.256 1.808-3.808 4.208-3.808zm.192 5.376c.896 0 1.632-.496 1.968-1.28-.208-1.344-.8-2.096-2.032-2.096-1.168 0-1.904.816-1.904 1.696 0 1.056.896 1.68 1.968 1.68z"/><path d="m460 310.154h91v246h-91z"/><path d="m493.324 302.274c-1.17 0-2.06-.51-2.59-1.17l.65-.67c.46.56 1.13.93 1.92.93.89 0 1.46-.47 1.46-1.16 0-.71-.6-1.08-1.62-1.07h-.75v-.9l.75.01c.87 0 1.48-.38 1.48-1.07 0-.64-.6-1.1-1.4-1.1-.72 0-1.25.36-1.73.92l-.63-.62c.53-.69 1.31-1.21 2.43-1.21 1.39 0 2.35.77 2.35 1.87 0 .85-.59 1.38-1.31 1.6.71.16 1.46.68 1.46 1.64 0 1.16-.98 2-2.47 2zm4.488 1.25-.42-.32c.28-.3.47-.62.55-.93-.36 0-.65-.3-.65-.67 0-.35.28-.66.66-.66.44 0 .73.4.73.95 0 .47-.23.9-.87 1.63zm4.753-1.25c-1.09 0-1.92-.44-2.5-1.08l.63-.72c.52.55 1.16.91 1.89.91.89 0 1.5-.6 1.5-1.37 0-.79-.62-1.32-1.51-1.32-.57 0-1.05.19-1.46.5l-.71-.32.1-3.59h4.22v.94h-3.26l-.06 2.04c.36-.24.82-.44 1.42-.44 1.24 0 2.27.78 2.27 2.15 0 1.39-1.05 2.3-2.53 2.3zm6.526 0c-1.73 0-2.94-1.47-2.94-3.56 0-2.08 1.21-3.55 2.94-3.55 1.71 0 2.92 1.47 2.92 3.55 0 2.09-1.21 3.56-2.92 3.56zm0-.93c1.11 0 1.89-1.09 1.89-2.63s-.78-2.62-1.89-2.62c-1.12 0-1.91 1.08-1.91 2.62s.79 2.63 1.91 2.63zm6.982.93c-1.73 0-2.94-1.47-2.94-3.56 0-2.08 1.21-3.55 2.94-3.55 1.71 0 2.92 1.47 2.92 3.55 0 2.09-1.21 3.56-2.92 3.56zm0-.93c1.11 0 1.89-1.09 1.89-2.63s-.78-2.62-1.89-2.62c-1.12 0-1.91 1.08-1.91 2.62s.79 2.63 1.91 2.63z"/><path d="m790.734 588.795v-1.92l4.048-3.136c1.312-1.04 1.728-1.76 1.728-2.528 0-.912-.768-1.456-1.664-1.456-1.072 0-1.888.544-2.688 1.456l-1.504-1.456c1.088-1.376 2.48-2.144 4.256-2.144 2.336 0 4.032 1.44 4.032 3.504 0 1.472-.64 2.608-2.56 4l-2 1.552h4.656v2.128zm14.837.192c-2.896 0-4.944-2.352-4.944-5.696 0-3.328 2.048-5.68 4.944-5.68s4.928 2.352 4.928 5.68c0 3.344-2.032 5.696-4.928 5.696zm0-2.144c1.472 0 2.512-1.488 2.512-3.552s-1.04-3.536-2.512-3.536-2.512 1.472-2.512 3.536 1.04 3.552 2.512 3.552zm6.351 1.952v-1.92l4.048-3.136c1.312-1.04 1.728-1.76 1.728-2.528 0-.912-.768-1.456-1.664-1.456-1.072 0-1.888.544-2.688 1.456l-1.504-1.456c1.088-1.376 2.48-2.144 4.256-2.144 2.336 0 4.032 1.44 4.032 3.504 0 1.472-.64 2.608-2.56 4l-2 1.552h4.656v2.128zm12.309 0v-8.288l-1.872 1.168-.96-1.664 3.296-2.208h1.888v10.992zm-26.485 7.756h1.02l-3.636 8.244h-1.02l-3.636-8.244h1.02l3.132 7.092zm2.822.912c-.336 0-.6-.276-.6-.6 0-.312.264-.588.6-.588.324 0 .588.276.588.588 0 .324-.264.6-.588.6zm-.456 7.332v-6.204h.9v6.204zm3.889-4.992c.372-.828 1.26-1.356 2.4-1.356v.804c-1.404 0-2.4.864-2.4 2.076v3.468h-.9v-6.204h.9zm6.257 4.08.444.66c-.324.252-.732.396-1.152.396-.888 0-1.512-.66-1.512-1.584v-3.96h-.972v-.804h.972v-1.704h.9v1.704h1.524v.804h-1.524v3.96c0 .456.312.78.672.78.276 0 .516-.108.648-.252zm5.961-5.292h.9v6.204h-.9v-.984c-.36.66-1.152 1.128-2.04 1.128-1.38 0-2.328-.972-2.328-2.4v-3.948h.9v3.828c0 1.02.636 1.716 1.548 1.716 1.056 0 1.92-.72 1.92-1.596zm5.203-.144c1.692 0 2.52 1.068 2.52 2.568v3.78h-.9v-.972c-.444.732-1.368 1.116-2.184 1.116-1.308 0-2.268-.756-2.268-1.98 0-1.236 1.104-2.064 2.436-2.064.672 0 1.38.144 2.016.348v-.228c0-.84-.336-1.8-1.68-1.8-.624 0-1.248.276-1.812.564l-.36-.732c.888-.444 1.632-.6 2.232-.6zm-.408 5.7c.816 0 1.788-.42 2.028-1.296v-.948c-.564-.156-1.2-.252-1.872-.252-.924 0-1.704.528-1.704 1.272 0 .768.672 1.224 1.548 1.224zm4.868.648v-8.388h.9v8.388z"/><path d="m764 58.1543h91v498h-91z"/><path d="m797.202 50.1543 2.87-5.93h-3.62v-.94h4.81v.76l-2.9 6.11zm5.782 1.37-.42-.32c.28-.3.47-.62.55-.93-.36 0-.65-.3-.65-.67 0-.35.28-.66.66-.66.44 0 .73.4.73.95 0 .47-.23.9-.87 1.63zm3.573-1.37v-5.67l-1.19.76-.42-.73 1.81-1.23h.81v6.87zm5.469-4.34c1.26 0 2.31.79 2.31 2.15 0 1.32-1.04 2.31-2.49 2.31-1.91 0-2.71-1.49-2.71-3.45 0-2.08 1.23-3.66 2.9-3.66.85 0 1.48.32 2 .79l-.52.78c-.42-.39-.86-.66-1.49-.66-1.04 0-1.82 1.13-1.86 2.64.42-.57 1.11-.9 1.86-.9zm-.21 3.6c.93 0 1.49-.71 1.49-1.4 0-.84-.68-1.35-1.51-1.35-.76 0-1.36.44-1.55 1.1.17.99.66 1.65 1.57 1.65zm6.49.86c-1.73 0-2.94-1.47-2.94-3.56 0-2.08 1.21-3.55 2.94-3.55 1.71 0 2.92 1.47 2.92 3.55 0 2.09-1.21 3.56-2.92 3.56zm0-.93c1.11 0 1.89-1.09 1.89-2.63s-.78-2.62-1.89-2.62c-1.12 0-1.91 1.08-1.91 2.62s.79 2.63 1.91 2.63z"/><path d="m1094.66 588.795v-1.92l4.04-3.136c1.32-1.04 1.73-1.76 1.73-2.528 0-.912-.77-1.456-1.66-1.456-1.07 0-1.89.544-2.69 1.456l-1.5-1.456c1.08-1.376 2.48-2.144 4.25-2.144 2.34 0 4.03 1.44 4.03 3.504 0 1.472-.64 2.608-2.56 4l-2 1.552h4.66v2.128zm14.83.192c-2.89 0-4.94-2.352-4.94-5.696 0-3.328 2.05-5.68 4.94-5.68 2.9 0 4.93 2.352 4.93 5.68 0 3.344-2.03 5.696-4.93 5.696zm0-2.144c1.48 0 2.52-1.488 2.52-3.552s-1.04-3.536-2.52-3.536c-1.47 0-2.51 1.472-2.51 3.536s1.04 3.552 2.51 3.552zm6.35 1.952v-1.92l4.05-3.136c1.31-1.04 1.73-1.76 1.73-2.528 0-.912-.77-1.456-1.66-1.456-1.08 0-1.89.544-2.69 1.456l-1.51-1.456c1.09-1.376 2.48-2.144 4.26-2.144 2.34 0 4.03 1.44 4.03 3.504 0 1.472-.64 2.608-2.56 4l-2 1.552h4.66v2.128zm13.98.208c-1.97 0-3.49-.784-4.42-1.856l1.39-1.568c.79.832 1.83 1.296 2.93 1.296 1.2 0 1.92-.56 1.92-1.344 0-.848-.67-1.28-2.14-1.264h-1.27v-2.016l1.27.016c1.2 0 1.92-.448 1.92-1.232 0-.8-.77-1.312-1.86-1.312-1.02 0-1.84.512-2.58 1.28l-1.36-1.44c.92-1.104 2.23-1.952 4.18-1.952 2.46 0 4.02 1.264 4.02 3.008 0 1.264-.85 2.176-2.07 2.528 1.2.272 2.31 1.12 2.31 2.576 0 1.904-1.67 3.28-4.24 3.28z"/><path d="m1068 422.154h91v134h-91z"/><path d="m1103.3 414.154v-5.67l-1.19.76-.42-.73 1.81-1.23h.81v6.87zm3.42 1.37-.42-.32c.28-.3.47-.62.55-.93-.36 0-.65-.3-.65-.67 0-.35.28-.66.66-.66.44 0 .73.4.73.95 0 .47-.23.9-.87 1.63zm4.71-8.36c1.91 0 2.71 1.49 2.71 3.45 0 2.08-1.23 3.66-2.9 3.66-.85 0-1.48-.32-2-.79l.52-.78c.42.39.86.66 1.49.66 1.04 0 1.82-1.13 1.86-2.64-.42.57-1.11.9-1.86.9-1.26 0-2.31-.79-2.31-2.15 0-1.32 1.04-2.31 2.49-2.31zm.05 3.61c.76 0 1.36-.44 1.55-1.1-.17-.99-.66-1.65-1.57-1.65-.93 0-1.49.71-1.49 1.4 0 .84.68 1.35 1.51 1.35zm5.07 3.38v-5.67l-1.19.76-.42-.73 1.81-1.23h.81v6.87zm5.49.12c-1.73 0-2.94-1.47-2.94-3.56 0-2.08 1.21-3.55 2.94-3.55 1.71 0 2.92 1.47 2.92 3.55 0 2.09-1.21 3.56-2.92 3.56zm0-.93c1.11 0 1.89-1.09 1.89-2.63s-.78-2.62-1.89-2.62c-1.12 0-1.91 1.08-1.91 2.62s.79 2.63 1.91 2.63z"/></g></svg>
