<svg width="1201" height="612" viewBox="0 0 1201 612" fill="none" xmlns="http://www.w3.org/2000/svg">
<path d="M0.585938 485.466H1200.59" stroke="#B7B7B7" stroke-width="0.5" stroke-miterlimit="10"/>
<path d="M0.585938 277.651H1200.59" stroke="#B7B7B7" stroke-width="0.5" stroke-miterlimit="10"/>
<path d="M0.585938 139.109H1200.59" stroke="#B7B7B7" stroke-width="0.5" stroke-miterlimit="10"/>
<path d="M0.585938 1.10852H1200.59" stroke="#B7B7B7" stroke-width="0.5" stroke-miterlimit="10"/>
<path d="M0.585938 416.194H1200.59" stroke="#B7B7B7" stroke-width="0.5" stroke-miterlimit="10"/>
<path d="M0.585938 346.923H1200.59" stroke="#B7B7B7" stroke-width="0.5" stroke-miterlimit="10"/>
<path d="M0.585938 208.38H1200.59" stroke="#B7B7B7" stroke-width="0.5" stroke-miterlimit="10"/>
<path d="M0.585938 70.1085H1200.59" stroke="#B7B7B7" stroke-width="0.5" stroke-miterlimit="10"/>
<path d="M0.585938 554.737H1196.79" stroke="#333333" stroke-miterlimit="10"/>
<path d="M9.68802 302.464V300.08H4.28002L4.08802 298.528L9.28802 291.472H11.688V298.368H13.208V300.08H11.688V302.464H9.68802ZM6.21602 298.368H9.68802V293.648L6.21602 298.368ZM16.0069 304.736L15.2549 304.16C15.7189 303.68 16.0389 303.168 16.1829 302.656C15.5109 302.656 14.9509 302.08 14.9509 301.392C14.9509 300.72 15.5109 300.144 16.1989 300.144C17.0149 300.144 17.5429 300.88 17.5429 301.888C17.5429 302.752 17.0949 303.584 16.0069 304.736ZM24.4908 302.656C21.6588 302.656 19.6748 300.304 19.6748 296.96C19.6748 293.632 21.6588 291.28 24.4908 291.28C27.3068 291.28 29.3068 293.632 29.3068 296.96C29.3068 300.304 27.3068 302.656 24.4908 302.656ZM24.4908 300.832C26.1228 300.832 27.2588 299.232 27.2588 296.96C27.2588 294.688 26.1228 293.104 24.4908 293.104C22.8588 293.104 21.7068 294.688 21.7068 296.96C21.7068 299.232 22.8588 300.832 24.4908 300.832ZM35.7876 302.656C32.9556 302.656 30.9716 300.304 30.9716 296.96C30.9716 293.632 32.9556 291.28 35.7876 291.28C38.6036 291.28 40.6036 293.632 40.6036 296.96C40.6036 300.304 38.6036 302.656 35.7876 302.656ZM35.7876 300.832C37.4196 300.832 38.5556 299.232 38.5556 296.96C38.5556 294.688 37.4196 293.104 35.7876 293.104C34.1556 293.104 33.0036 294.688 33.0036 296.96C33.0036 299.232 34.1556 300.832 35.7876 300.832ZM47.0845 302.656C44.2525 302.656 42.2685 300.304 42.2685 296.96C42.2685 293.632 44.2525 291.28 47.0845 291.28C49.9005 291.28 51.9005 293.632 51.9005 296.96C51.9005 300.304 49.9005 302.656 47.0845 302.656ZM47.0845 300.832C48.7165 300.832 49.8525 299.232 49.8525 296.96C49.8525 294.688 48.7165 293.104 47.0845 293.104C45.4525 293.104 44.3005 294.688 44.3005 296.96C44.3005 299.232 45.4525 300.832 47.0845 300.832Z" fill="#002626"/>
<path d="M9.87663 371.154C7.94063 371.154 6.48463 370.37 5.58863 369.298L6.80463 367.986C7.55663 368.85 8.61263 369.378 9.79663 369.378C11.1246 369.378 11.9246 368.722 11.9246 367.762C11.9246 366.786 11.1246 366.274 9.55663 366.274L8.32463 366.29V364.562H9.55663C10.8526 364.578 11.7006 364.05 11.7006 363.09C11.7006 362.194 10.8526 361.57 9.66863 361.57C8.56463 361.57 7.73263 362.098 6.98063 362.93L5.79663 361.714C6.67663 360.61 7.95663 359.778 9.82863 359.778C12.1806 359.778 13.7326 361.026 13.7326 362.77C13.7326 364.098 12.8206 364.962 11.6526 365.314C12.8206 365.586 13.9726 366.434 13.9726 367.922C13.9726 369.81 12.3406 371.154 9.87663 371.154ZM17.1641 373.234L16.4121 372.658C16.8761 372.178 17.1961 371.666 17.3401 371.154C16.6681 371.154 16.1081 370.578 16.1081 369.89C16.1081 369.218 16.6681 368.642 17.3561 368.642C18.1721 368.642 18.7001 369.378 18.7001 370.386C18.7001 371.25 18.2521 372.082 17.1641 373.234ZM25.648 371.154C22.816 371.154 20.832 368.802 20.832 365.458C20.832 362.13 22.816 359.778 25.648 359.778C28.464 359.778 30.464 362.13 30.464 365.458C30.464 368.802 28.464 371.154 25.648 371.154ZM25.648 369.33C27.28 369.33 28.416 367.73 28.416 365.458C28.416 363.186 27.28 361.602 25.648 361.602C24.016 361.602 22.864 363.186 22.864 365.458C22.864 367.73 24.016 369.33 25.648 369.33ZM36.9449 371.154C34.1129 371.154 32.1289 368.802 32.1289 365.458C32.1289 362.13 34.1129 359.778 36.9449 359.778C39.7609 359.778 41.7609 362.13 41.7609 365.458C41.7609 368.802 39.7609 371.154 36.9449 371.154ZM36.9449 369.33C38.5769 369.33 39.7129 367.73 39.7129 365.458C39.7129 363.186 38.5769 361.602 36.9449 361.602C35.3129 361.602 34.1609 363.186 34.1609 365.458C34.1609 367.73 35.3129 369.33 36.9449 369.33ZM48.2418 371.154C45.4098 371.154 43.4258 368.802 43.4258 365.458C43.4258 362.13 45.4098 359.778 48.2418 359.778C51.0578 359.778 53.0578 362.13 53.0578 365.458C53.0578 368.802 51.0578 371.154 48.2418 371.154ZM48.2418 369.33C49.8738 369.33 51.0098 367.73 51.0098 365.458C51.0098 363.186 49.8738 361.602 48.2418 361.602C46.6098 361.602 45.4578 363.186 45.4578 365.458C45.4578 367.73 46.6098 369.33 48.2418 369.33Z" fill="#002626"/>
<path d="M5.74863 444.044V442.412L9.79663 439.18C11.1886 438.06 11.6846 437.228 11.6846 436.332C11.6846 435.292 10.8046 434.652 9.81263 434.652C8.66063 434.652 7.82863 435.244 7.02863 436.204L5.73263 435.004C6.77263 433.644 8.10063 432.86 9.87663 432.86C12.0526 432.86 13.7166 434.252 13.7166 436.284C13.7166 437.74 13.0446 438.908 11.1566 440.364L8.85263 442.22H13.8286V444.044H5.74863ZM16.9923 446.316L16.2403 445.74C16.7043 445.26 17.0243 444.748 17.1683 444.236C16.4963 444.236 15.9363 443.66 15.9363 442.972C15.9363 442.3 16.4963 441.724 17.1843 441.724C18.0003 441.724 18.5283 442.46 18.5283 443.468C18.5283 444.332 18.0803 445.164 16.9923 446.316ZM25.4761 444.236C22.6441 444.236 20.6601 441.884 20.6601 438.54C20.6601 435.212 22.6441 432.86 25.4761 432.86C28.2921 432.86 30.2921 435.212 30.2921 438.54C30.2921 441.884 28.2921 444.236 25.4761 444.236ZM25.4761 442.412C27.1081 442.412 28.2441 440.812 28.2441 438.54C28.2441 436.268 27.1081 434.684 25.4761 434.684C23.8441 434.684 22.6921 436.268 22.6921 438.54C22.6921 440.812 23.8441 442.412 25.4761 442.412ZM36.773 444.236C33.941 444.236 31.957 441.884 31.957 438.54C31.957 435.212 33.941 432.86 36.773 432.86C39.589 432.86 41.589 435.212 41.589 438.54C41.589 441.884 39.589 444.236 36.773 444.236ZM36.773 442.412C38.405 442.412 39.541 440.812 39.541 438.54C39.541 436.268 38.405 434.684 36.773 434.684C35.141 434.684 33.989 436.268 33.989 438.54C33.989 440.812 35.141 442.412 36.773 442.412ZM48.0699 444.236C45.2379 444.236 43.2539 441.884 43.2539 438.54C43.2539 435.212 45.2379 432.86 48.0699 432.86C50.8859 432.86 52.8859 435.212 52.8859 438.54C52.8859 441.884 50.8859 444.236 48.0699 444.236ZM48.0699 442.412C49.7019 442.412 50.8379 440.812 50.8379 438.54C50.8379 436.268 49.7019 434.684 48.0699 434.684C46.4379 434.684 45.2859 436.268 45.2859 438.54C45.2859 440.812 46.4379 442.412 48.0699 442.412Z" fill="#002626"/>
<path d="M8.18063 509.083V500.395L6.29263 501.595L5.49263 500.187L8.58063 498.091H10.1806V509.083H8.18063ZM13.9766 511.355L13.2246 510.779C13.6886 510.299 14.0086 509.787 14.1526 509.275C13.4806 509.275 12.9206 508.699 12.9206 508.011C12.9206 507.339 13.4806 506.763 14.1686 506.763C14.9846 506.763 15.5126 507.499 15.5126 508.507C15.5126 509.371 15.0646 510.203 13.9766 511.355ZM22.4605 509.275C19.6285 509.275 17.6445 506.923 17.6445 503.579C17.6445 500.251 19.6285 497.899 22.4605 497.899C25.2765 497.899 27.2765 500.251 27.2765 503.579C27.2765 506.923 25.2765 509.275 22.4605 509.275ZM22.4605 507.451C24.0925 507.451 25.2285 505.851 25.2285 503.579C25.2285 501.307 24.0925 499.723 22.4605 499.723C20.8285 499.723 19.6765 501.307 19.6765 503.579C19.6765 505.851 20.8285 507.451 22.4605 507.451ZM33.7574 509.275C30.9254 509.275 28.9414 506.923 28.9414 503.579C28.9414 500.251 30.9254 497.899 33.7574 497.899C36.5734 497.899 38.5734 500.251 38.5734 503.579C38.5734 506.923 36.5734 509.275 33.7574 509.275ZM33.7574 507.451C35.3894 507.451 36.5254 505.851 36.5254 503.579C36.5254 501.307 35.3894 499.723 33.7574 499.723C32.1254 499.723 30.9734 501.307 30.9734 503.579C30.9734 505.851 32.1254 507.451 33.7574 507.451ZM45.0543 509.275C42.2223 509.275 40.2383 506.923 40.2383 503.579C40.2383 500.251 42.2223 497.899 45.0543 497.899C47.8703 497.899 49.8703 500.251 49.8703 503.579C49.8703 506.923 47.8703 509.275 45.0543 509.275ZM45.0543 507.451C46.6863 507.451 47.8223 505.851 47.8223 503.579C47.8223 501.307 46.6863 499.723 45.0543 499.723C43.4223 499.723 42.2703 501.307 42.2703 503.579C42.2703 505.851 43.4223 507.451 45.0543 507.451Z" fill="#002626"/>
<path d="M8.45602 233.576C6.66402 233.576 5.32002 232.904 4.34402 231.88L5.52802 230.456C6.36002 231.288 7.38402 231.848 8.48802 231.848C9.81602 231.848 10.68 230.984 10.68 229.912C10.68 228.792 9.80002 228.04 8.48802 228.04C7.62402 228.04 6.87202 228.328 6.24802 228.808L4.88802 228.232L5.04802 222.392H12.072V224.216H6.92002L6.82402 227.048C7.38402 226.664 8.10402 226.376 9.04802 226.376C11 226.376 12.68 227.624 12.68 229.832C12.68 232.104 10.968 233.576 8.45602 233.576ZM15.7569 235.656L15.0049 235.08C15.4689 234.6 15.7889 234.088 15.9329 233.576C15.2609 233.576 14.7009 233 14.7009 232.312C14.7009 231.64 15.2609 231.064 15.9489 231.064C16.7649 231.064 17.2929 231.8 17.2929 232.808C17.2929 233.672 16.8449 234.504 15.7569 235.656ZM24.2408 233.576C21.4088 233.576 19.4248 231.224 19.4248 227.88C19.4248 224.552 21.4088 222.2 24.2408 222.2C27.0568 222.2 29.0568 224.552 29.0568 227.88C29.0568 231.224 27.0568 233.576 24.2408 233.576ZM24.2408 231.752C25.8728 231.752 27.0088 230.152 27.0088 227.88C27.0088 225.608 25.8728 224.024 24.2408 224.024C22.6088 224.024 21.4568 225.608 21.4568 227.88C21.4568 230.152 22.6088 231.752 24.2408 231.752ZM35.5376 233.576C32.7056 233.576 30.7216 231.224 30.7216 227.88C30.7216 224.552 32.7056 222.2 35.5376 222.2C38.3536 222.2 40.3536 224.552 40.3536 227.88C40.3536 231.224 38.3536 233.576 35.5376 233.576ZM35.5376 231.752C37.1696 231.752 38.3056 230.152 38.3056 227.88C38.3056 225.608 37.1696 224.024 35.5376 224.024C33.9056 224.024 32.7536 225.608 32.7536 227.88C32.7536 230.152 33.9056 231.752 35.5376 231.752ZM46.8345 233.576C44.0025 233.576 42.0185 231.224 42.0185 227.88C42.0185 224.552 44.0025 222.2 46.8345 222.2C49.6505 222.2 51.6505 224.552 51.6505 227.88C51.6505 231.224 49.6505 233.576 46.8345 233.576ZM46.8345 231.752C48.4665 231.752 49.6025 230.152 49.6025 227.88C49.6025 225.608 48.4665 224.024 46.8345 224.024C45.2025 224.024 44.0505 225.608 44.0505 227.88C44.0505 230.152 45.2025 231.752 46.8345 231.752Z" fill="#002626"/>
<path d="M9.40002 156.278C11.416 156.278 13.096 157.558 13.096 159.75C13.096 161.926 11.368 163.494 9.00002 163.494C5.86402 163.494 4.48802 161.158 4.48802 157.99C4.48802 154.598 6.48802 152.118 9.33602 152.118C10.712 152.118 11.752 152.598 12.632 153.35L11.656 154.87C10.984 154.278 10.296 153.878 9.33602 153.878C7.78402 153.878 6.69602 155.366 6.55202 157.51C7.24002 156.742 8.28002 156.278 9.40002 156.278ZM8.90402 161.798C10.248 161.798 11.064 160.838 11.064 159.83C11.064 158.63 10.072 157.91 8.87202 157.91C7.80002 157.91 6.96802 158.502 6.64802 159.414C6.88802 160.886 7.57602 161.798 8.90402 161.798ZM16.1319 165.574L15.3799 164.998C15.8439 164.518 16.1639 164.006 16.3079 163.494C15.6359 163.494 15.0759 162.918 15.0759 162.23C15.0759 161.558 15.6359 160.982 16.3239 160.982C17.1399 160.982 17.6679 161.718 17.6679 162.726C17.6679 163.59 17.2199 164.422 16.1319 165.574ZM24.6158 163.494C21.7838 163.494 19.7998 161.142 19.7998 157.798C19.7998 154.47 21.7838 152.118 24.6158 152.118C27.4318 152.118 29.4318 154.47 29.4318 157.798C29.4318 161.142 27.4318 163.494 24.6158 163.494ZM24.6158 161.67C26.2478 161.67 27.3838 160.07 27.3838 157.798C27.3838 155.526 26.2478 153.942 24.6158 153.942C22.9838 153.942 21.8318 155.526 21.8318 157.798C21.8318 160.07 22.9838 161.67 24.6158 161.67ZM35.9126 163.494C33.0806 163.494 31.0966 161.142 31.0966 157.798C31.0966 154.47 33.0806 152.118 35.9126 152.118C38.7286 152.118 40.7286 154.47 40.7286 157.798C40.7286 161.142 38.7286 163.494 35.9126 163.494ZM35.9126 161.67C37.5446 161.67 38.6806 160.07 38.6806 157.798C38.6806 155.526 37.5446 153.942 35.9126 153.942C34.2806 153.942 33.1286 155.526 33.1286 157.798C33.1286 160.07 34.2806 161.67 35.9126 161.67ZM47.2095 163.494C44.3775 163.494 42.3935 161.142 42.3935 157.798C42.3935 154.47 44.3775 152.118 47.2095 152.118C50.0255 152.118 52.0255 154.47 52.0255 157.798C52.0255 161.142 50.0255 163.494 47.2095 163.494ZM47.2095 161.67C48.8415 161.67 49.9775 160.07 49.9775 157.798C49.9775 155.526 48.8415 153.942 47.2095 153.942C45.5775 153.942 44.4255 155.526 44.4255 157.798C44.4255 160.07 45.5775 161.67 47.2095 161.67Z" fill="#002626"/>
<path d="M5.17602 93.1085L9.65602 83.9405H4.04002V82.1165H11.976V83.6205L7.44802 93.1085H5.17602ZM14.7881 95.3805L14.0361 94.8045C14.5001 94.3245 14.8201 93.8125 14.9641 93.3005C14.2921 93.3005 13.7321 92.7245 13.7321 92.0365C13.7321 91.3645 14.2921 90.7885 14.9801 90.7885C15.7961 90.7885 16.3241 91.5245 16.3241 92.5325C16.3241 93.3965 15.8761 94.2285 14.7881 95.3805ZM23.272 93.3005C20.44 93.3005 18.456 90.9485 18.456 87.6045C18.456 84.2765 20.44 81.9245 23.272 81.9245C26.088 81.9245 28.088 84.2765 28.088 87.6045C28.088 90.9485 26.088 93.3005 23.272 93.3005ZM23.272 91.4765C24.904 91.4765 26.04 89.8765 26.04 87.6045C26.04 85.3325 24.904 83.7485 23.272 83.7485C21.64 83.7485 20.488 85.3325 20.488 87.6045C20.488 89.8765 21.64 91.4765 23.272 91.4765ZM34.5689 93.3005C31.7369 93.3005 29.7529 90.9485 29.7529 87.6045C29.7529 84.2765 31.7369 81.9245 34.5689 81.9245C37.3849 81.9245 39.3849 84.2765 39.3849 87.6045C39.3849 90.9485 37.3849 93.3005 34.5689 93.3005ZM34.5689 91.4765C36.2009 91.4765 37.3369 89.8765 37.3369 87.6045C37.3369 85.3325 36.2009 83.7485 34.5689 83.7485C32.9369 83.7485 31.7849 85.3325 31.7849 87.6045C31.7849 89.8765 32.9369 91.4765 34.5689 91.4765ZM45.8658 93.3005C43.0338 93.3005 41.0498 90.9485 41.0498 87.6045C41.0498 84.2765 43.0338 81.9245 45.8658 81.9245C48.6818 81.9245 50.6818 84.2765 50.6818 87.6045C50.6818 90.9485 48.6818 93.3005 45.8658 93.3005ZM45.8658 91.4765C47.4978 91.4765 48.6338 89.8765 48.6338 87.6045C48.6338 85.3325 47.4978 83.7485 45.8658 83.7485C44.2338 83.7485 43.0818 85.3325 43.0818 87.6045C43.0818 89.8765 44.2338 91.4765 45.8658 91.4765Z" fill="#002626"/>
<path d="M8.71202 23.3005C6.32802 23.3005 4.44002 22.1325 4.44002 20.1805C4.44002 18.8525 5.40002 17.8925 6.68002 17.4285C5.54402 16.9485 4.72802 16.1325 4.72802 14.8845C4.72802 12.9965 6.64802 11.9245 8.71202 11.9245C10.84 11.9245 12.712 13.0285 12.712 14.8845C12.712 16.1645 11.864 16.9805 10.76 17.4285C12.056 17.9245 13 18.8845 13 20.1805C13 22.1485 11.08 23.3005 8.71202 23.3005ZM8.71202 16.7085C9.65602 16.6605 10.744 16.1005 10.744 15.1405C10.744 14.2765 9.86402 13.6205 8.71202 13.6205C7.56002 13.6205 6.69602 14.2765 6.69602 15.1405C6.69602 16.1165 7.80002 16.6605 8.71202 16.7085ZM8.71202 21.5885C9.99202 21.5885 10.984 20.9485 10.984 19.9885C10.984 18.9645 9.73602 18.3565 8.71202 18.3085C7.70402 18.3565 6.44002 18.9645 6.44002 19.9885C6.44002 20.9485 7.41602 21.5885 8.71202 21.5885ZM16.1475 25.3805L15.3955 24.8045C15.8595 24.3245 16.1795 23.8125 16.3235 23.3005C15.6515 23.3005 15.0915 22.7245 15.0915 22.0365C15.0915 21.3645 15.6515 20.7885 16.3395 20.7885C17.1555 20.7885 17.6835 21.5245 17.6835 22.5325C17.6835 23.3965 17.2355 24.2285 16.1475 25.3805ZM24.6314 23.3005C21.7994 23.3005 19.8154 20.9485 19.8154 17.6045C19.8154 14.2765 21.7994 11.9245 24.6314 11.9245C27.4474 11.9245 29.4474 14.2765 29.4474 17.6045C29.4474 20.9485 27.4474 23.3005 24.6314 23.3005ZM24.6314 21.4765C26.2634 21.4765 27.3994 19.8765 27.3994 17.6045C27.3994 15.3325 26.2634 13.7485 24.6314 13.7485C22.9994 13.7485 21.8474 15.3325 21.8474 17.6045C21.8474 19.8765 22.9994 21.4765 24.6314 21.4765ZM35.9283 23.3005C33.0963 23.3005 31.1123 20.9485 31.1123 17.6045C31.1123 14.2765 33.0963 11.9245 35.9283 11.9245C38.7443 11.9245 40.7443 14.2765 40.7443 17.6045C40.7443 20.9485 38.7443 23.3005 35.9283 23.3005ZM35.9283 21.4765C37.5603 21.4765 38.6963 19.8765 38.6963 17.6045C38.6963 15.3325 37.5603 13.7485 35.9283 13.7485C34.2963 13.7485 33.1443 15.3325 33.1443 17.6045C33.1443 19.8765 34.2963 21.4765 35.9283 21.4765ZM47.2251 23.3005C44.3931 23.3005 42.4091 20.9485 42.4091 17.6045C42.4091 14.2765 44.3931 11.9245 47.2251 11.9245C50.0411 11.9245 52.0411 14.2765 52.0411 17.6045C52.0411 20.9485 50.0411 23.3005 47.2251 23.3005ZM47.2251 21.4765C48.8571 21.4765 49.9931 19.8765 49.9931 17.6045C49.9931 15.3325 48.8571 13.7485 47.2251 13.7485C45.5931 13.7485 44.4411 15.3325 44.4411 17.6045C44.4411 19.8765 45.5931 21.4765 47.2251 21.4765Z" fill="#002626"/>
<path d="M183.242 588.749V586.829L187.29 583.693C188.602 582.653 189.018 581.933 189.018 581.165C189.018 580.253 188.25 579.709 187.354 579.709C186.282 579.709 185.466 580.253 184.666 581.165L183.162 579.709C184.25 578.333 185.642 577.565 187.418 577.565C189.754 577.565 191.45 579.005 191.45 581.069C191.45 582.541 190.81 583.677 188.89 585.069L186.89 586.621H191.546V588.749H183.242ZM198.079 588.941C195.183 588.941 193.135 586.589 193.135 583.245C193.135 579.917 195.183 577.565 198.079 577.565C200.975 577.565 203.007 579.917 203.007 583.245C203.007 586.589 200.975 588.941 198.079 588.941ZM198.079 586.797C199.551 586.797 200.591 585.309 200.591 583.245C200.591 581.181 199.551 579.709 198.079 579.709C196.607 579.709 195.567 581.181 195.567 583.245C195.567 585.309 196.607 586.797 198.079 586.797ZM206.957 588.749V580.461L205.085 581.629L204.125 579.965L207.421 577.757H209.309V588.749H206.957ZM215.8 588.941C213.368 588.941 211.384 587.789 211.384 585.805C211.384 584.509 212.28 583.549 213.544 583.069C212.456 582.605 211.672 581.805 211.672 580.557C211.672 578.621 213.656 577.565 215.8 577.565C217.992 577.565 219.944 578.669 219.944 580.557C219.944 581.789 219.16 582.589 218.056 583.069C219.352 583.581 220.216 584.541 220.216 585.805C220.216 587.805 218.216 588.941 215.8 588.941ZM215.8 582.253C216.664 582.189 217.592 581.677 217.592 580.861C217.592 580.109 216.856 579.549 215.8 579.549C214.744 579.549 214.024 580.109 214.024 580.861C214.024 581.709 214.936 582.189 215.8 582.253ZM215.8 586.957C216.968 586.957 217.832 586.381 217.832 585.549C217.832 584.685 216.744 584.141 215.8 584.109C214.856 584.141 213.784 584.685 213.784 585.549C213.784 586.381 214.632 586.957 215.8 586.957Z" fill="#3B4BC4"/>
<rect x="156.586" y="384.109" width="91" height="172" fill="#3B4BC4"/>
<path d="M187.959 374.109V373.279L190.479 371.199C191.399 370.429 191.749 369.839 191.749 369.219C191.749 368.469 191.129 368.029 190.449 368.029C189.699 368.029 189.149 368.429 188.669 369.049L187.989 368.449C188.589 367.619 189.399 367.119 190.489 367.119C191.769 367.119 192.789 367.949 192.789 369.199C192.789 370.119 192.349 370.849 191.169 371.809L189.559 373.169H192.849V374.109H187.959ZM194.829 375.479L194.409 375.159C194.689 374.859 194.879 374.539 194.959 374.229C194.599 374.229 194.309 373.929 194.309 373.559C194.309 373.209 194.589 372.899 194.969 372.899C195.409 372.899 195.699 373.299 195.699 373.849C195.699 374.319 195.469 374.749 194.829 375.479ZM199.583 374.229C198.493 374.229 197.663 373.789 197.083 373.149L197.713 372.429C198.233 372.979 198.873 373.339 199.603 373.339C200.493 373.339 201.103 372.739 201.103 371.969C201.103 371.179 200.483 370.649 199.593 370.649C199.023 370.649 198.543 370.839 198.133 371.149L197.423 370.829L197.523 367.239H201.743V368.179H198.483L198.423 370.219C198.783 369.979 199.243 369.779 199.843 369.779C201.083 369.779 202.113 370.559 202.113 371.929C202.113 373.319 201.063 374.229 199.583 374.229ZM206.108 374.229C204.378 374.229 203.168 372.759 203.168 370.669C203.168 368.589 204.378 367.119 206.108 367.119C207.818 367.119 209.028 368.589 209.028 370.669C209.028 372.759 207.818 374.229 206.108 374.229ZM206.108 373.299C207.218 373.299 207.998 372.209 207.998 370.669C207.998 369.129 207.218 368.049 206.108 368.049C204.988 368.049 204.198 369.129 204.198 370.669C204.198 372.209 204.988 373.299 206.108 373.299ZM213.091 374.229C211.361 374.229 210.151 372.759 210.151 370.669C210.151 368.589 211.361 367.119 213.091 367.119C214.801 367.119 216.011 368.589 216.011 370.669C216.011 372.759 214.801 374.229 213.091 374.229ZM213.091 373.299C214.201 373.299 214.981 372.209 214.981 370.669C214.981 369.129 214.201 368.049 213.091 368.049C211.971 368.049 211.181 369.129 211.181 370.669C211.181 372.209 211.971 373.299 213.091 373.299Z" fill="#3B4BC4"/>
<path d="M487.539 589.109V587.189L491.587 584.053C492.899 583.013 493.315 582.293 493.315 581.525C493.315 580.613 492.547 580.069 491.651 580.069C490.579 580.069 489.763 580.613 488.963 581.525L487.459 580.069C488.547 578.693 489.939 577.925 491.715 577.925C494.051 577.925 495.747 579.365 495.747 581.429C495.747 582.901 495.107 584.037 493.187 585.429L491.187 586.981H495.843V589.109H487.539ZM502.376 589.301C499.48 589.301 497.432 586.949 497.432 583.605C497.432 580.277 499.48 577.925 502.376 577.925C505.272 577.925 507.304 580.277 507.304 583.605C507.304 586.949 505.272 589.301 502.376 589.301ZM502.376 587.157C503.848 587.157 504.888 585.669 504.888 583.605C504.888 581.541 503.848 580.069 502.376 580.069C500.904 580.069 499.864 581.541 499.864 583.605C499.864 585.669 500.904 587.157 502.376 587.157ZM511.254 589.109V580.821L509.382 581.989L508.422 580.325L511.718 578.117H513.606V589.109H511.254ZM519.809 577.925C523.009 577.925 524.481 580.229 524.481 583.429C524.481 586.853 522.481 589.301 519.425 589.301C518.065 589.301 516.961 588.837 516.065 588.117L517.185 586.325C517.857 586.885 518.497 587.221 519.425 587.221C520.865 587.221 521.825 586.021 522.033 584.165C521.361 584.821 520.353 585.221 519.313 585.221C517.281 585.221 515.601 583.909 515.601 581.733C515.601 579.477 517.409 577.925 519.809 577.925ZM520.001 583.301C520.897 583.301 521.633 582.805 521.969 582.021C521.761 580.677 521.169 579.925 519.937 579.925C518.769 579.925 518.033 580.741 518.033 581.621C518.033 582.677 518.929 583.301 520.001 583.301Z" fill="#3B4BC4"/>
<rect x="460.586" y="310.109" width="91" height="246" fill="#3B4BC4"/>
<path d="M493.91 302.229C492.74 302.229 491.85 301.719 491.32 301.059L491.97 300.389C492.43 300.949 493.1 301.319 493.89 301.319C494.78 301.319 495.35 300.849 495.35 300.159C495.35 299.449 494.75 299.079 493.73 299.089H492.98V298.189L493.73 298.199C494.6 298.199 495.21 297.819 495.21 297.129C495.21 296.489 494.61 296.029 493.81 296.029C493.09 296.029 492.56 296.389 492.08 296.949L491.45 296.329C491.98 295.639 492.76 295.119 493.88 295.119C495.27 295.119 496.23 295.889 496.23 296.989C496.23 297.839 495.64 298.369 494.92 298.589C495.63 298.749 496.38 299.269 496.38 300.229C496.38 301.389 495.4 302.229 493.91 302.229ZM498.398 303.479L497.978 303.159C498.258 302.859 498.448 302.539 498.528 302.229C498.168 302.229 497.878 301.929 497.878 301.559C497.878 301.209 498.158 300.899 498.538 300.899C498.978 300.899 499.268 301.299 499.268 301.849C499.268 302.319 499.038 302.749 498.398 303.479ZM503.151 302.229C502.061 302.229 501.231 301.789 500.651 301.149L501.281 300.429C501.801 300.979 502.441 301.339 503.171 301.339C504.061 301.339 504.671 300.739 504.671 299.969C504.671 299.179 504.051 298.649 503.161 298.649C502.591 298.649 502.111 298.839 501.701 299.149L500.991 298.829L501.091 295.239H505.311V296.179H502.051L501.991 298.219C502.351 297.979 502.811 297.779 503.411 297.779C504.651 297.779 505.681 298.559 505.681 299.929C505.681 301.319 504.631 302.229 503.151 302.229ZM509.677 302.229C507.947 302.229 506.737 300.759 506.737 298.669C506.737 296.589 507.947 295.119 509.677 295.119C511.387 295.119 512.597 296.589 512.597 298.669C512.597 300.759 511.387 302.229 509.677 302.229ZM509.677 301.299C510.787 301.299 511.567 300.209 511.567 298.669C511.567 297.129 510.787 296.049 509.677 296.049C508.557 296.049 507.767 297.129 507.767 298.669C507.767 300.209 508.557 301.299 509.677 301.299ZM516.659 302.229C514.929 302.229 513.719 300.759 513.719 298.669C513.719 296.589 514.929 295.119 516.659 295.119C518.369 295.119 519.579 296.589 519.579 298.669C519.579 300.759 518.369 302.229 516.659 302.229ZM516.659 301.299C517.769 301.299 518.549 300.209 518.549 298.669C518.549 297.129 517.769 296.049 516.659 296.049C515.539 296.049 514.749 297.129 514.749 298.669C514.749 300.209 515.539 301.299 516.659 301.299Z" fill="#3B4BC4"/>
<path d="M791.32 586.829L795.368 583.693C796.008 583.192 796.456 582.744 796.712 582.349C796.968 581.954 797.096 581.56 797.096 581.165C797.096 580.728 796.936 580.376 796.616 580.109C796.296 579.842 795.901 579.709 795.432 579.709C794.92 579.709 794.451 579.832 794.024 580.077C793.597 580.322 793.171 580.685 792.744 581.165L791.24 579.709C792.371 578.28 793.789 577.565 795.496 577.565C796.264 577.565 796.952 577.714 797.56 578.013C798.179 578.312 798.659 578.728 799 579.261C799.352 579.784 799.528 580.386 799.528 581.069C799.528 581.826 799.336 582.514 798.952 583.133C798.568 583.741 797.907 584.386 796.968 585.069L794.968 586.621H799.624V588.749H791.32V586.829ZM806.157 588.941C805.208 588.941 804.355 588.701 803.597 588.221C802.851 587.73 802.264 587.053 801.837 586.189C801.421 585.325 801.213 584.344 801.213 583.245C801.213 582.146 801.421 581.17 801.837 580.317C802.264 579.453 802.851 578.781 803.597 578.301C804.355 577.81 805.208 577.565 806.157 577.565C807.107 577.565 807.955 577.81 808.701 578.301C809.459 578.781 810.045 579.453 810.461 580.317C810.877 581.17 811.085 582.146 811.085 583.245C811.085 584.344 810.877 585.325 810.461 586.189C810.045 587.053 809.459 587.73 808.701 588.221C807.955 588.701 807.107 588.941 806.157 588.941ZM806.157 586.797C806.637 586.797 807.069 586.648 807.453 586.349C807.837 586.04 808.136 585.618 808.349 585.085C808.563 584.541 808.669 583.928 808.669 583.245C808.669 582.562 808.563 581.954 808.349 581.421C808.136 580.888 807.837 580.472 807.453 580.173C807.069 579.864 806.637 579.709 806.157 579.709C805.677 579.709 805.245 579.864 804.861 580.173C804.477 580.472 804.179 580.888 803.965 581.421C803.752 581.954 803.645 582.562 803.645 583.245C803.645 583.928 803.752 584.541 803.965 585.085C804.179 585.618 804.477 586.04 804.861 586.349C805.245 586.648 805.677 586.797 806.157 586.797ZM812.508 586.829L816.556 583.693C817.196 583.192 817.644 582.744 817.9 582.349C818.156 581.954 818.284 581.56 818.284 581.165C818.284 580.728 818.124 580.376 817.804 580.109C817.484 579.842 817.089 579.709 816.62 579.709C816.108 579.709 815.638 579.832 815.212 580.077C814.785 580.322 814.358 580.685 813.932 581.165L812.428 579.709C813.558 578.28 814.977 577.565 816.684 577.565C817.452 577.565 818.14 577.714 818.748 578.013C819.366 578.312 819.846 578.728 820.188 579.261C820.54 579.784 820.716 580.386 820.716 581.069C820.716 581.826 820.524 582.514 820.14 583.133C819.756 583.741 819.094 584.386 818.156 585.069L816.156 586.621H820.812V588.749H812.508V586.829ZM824.817 580.461L822.945 581.629L821.985 579.965L825.281 577.757H827.169V588.749H824.817V580.461ZM774.018 596.261L775.218 596.565C774.338 598.933 772.914 601.157 771.426 602.597C771.186 602.389 770.69 601.989 770.386 601.829C771.906 600.501 773.234 598.421 774.018 596.261ZM773.762 598.245H784.082V599.413H773.186L773.762 598.245ZM772.978 601.877H783.73V602.997H774.178V606.789H772.978V601.877ZM770.338 606.181H784.834V607.349H770.338V606.181ZM777.778 598.853H779.01V611.045H777.778V598.853ZM793.346 597.557H799.474V598.533H793.346V597.557ZM788.37 599.605H799.602V600.613H788.37V599.605ZM788.514 609.669H800.466V610.709H788.514V609.669ZM792.802 596.325H794.002V600.021H792.802V596.325ZM792.226 605.061H793.346V610.325H792.226V605.061ZM795.17 605.061H796.306V610.325H795.17V605.061ZM789.602 602.101L797.794 601.381L797.874 602.245L789.682 602.981L789.602 602.101ZM792.802 600.389H793.938V603.093C793.938 603.525 794.114 603.589 795.09 603.589C795.554 603.589 798.002 603.589 798.61 603.589C799.298 603.589 799.426 603.461 799.49 602.517C799.746 602.677 800.194 602.821 800.498 602.885C800.354 604.197 800.002 604.517 798.722 604.517C798.322 604.517 795.426 604.517 795.042 604.517C793.266 604.517 792.802 604.261 792.802 603.109V600.389ZM787.634 599.605H788.818V603.429C788.818 605.653 788.594 608.869 787.282 611.029C787.058 610.837 786.53 610.501 786.242 610.389C787.522 608.341 787.634 605.477 787.634 603.429V599.605ZM799.266 599.605H799.458L799.682 599.541L800.562 599.797C800.306 600.661 799.954 601.637 799.634 602.261L798.578 601.925C798.818 601.349 799.09 600.501 799.266 599.781V599.605ZM789.362 606.117L790.354 605.781C790.898 606.661 791.458 607.845 791.666 608.597L790.626 608.997C790.434 608.245 789.89 607.029 789.362 606.117ZM798.37 605.669L799.538 606.069C798.93 607.061 798.194 608.229 797.602 608.981L796.738 608.629C797.298 607.829 797.986 606.565 798.37 605.669ZM802.018 604.821C803.25 604.485 805.09 603.925 806.866 603.349L807.042 604.437C805.394 604.981 803.682 605.557 802.338 605.989L802.018 604.821ZM802.242 599.541H806.866V600.661H802.242V599.541ZM804.258 596.325H805.362V609.621C805.362 610.277 805.218 610.597 804.818 610.773C804.434 610.965 803.826 611.013 802.818 610.997C802.77 610.725 802.626 610.229 802.466 609.893C803.17 609.909 803.778 609.909 803.97 609.909C804.162 609.909 804.258 609.845 804.258 609.621V596.325ZM813.714 604.821L814.738 604.373C815.714 606.181 816.77 608.533 817.17 609.989L816.034 610.533C815.65 609.077 814.642 606.645 813.714 604.821ZM809.762 598.213L810.754 597.813C811.634 599.349 812.546 601.349 812.85 602.597L811.794 603.061C811.506 601.813 810.626 599.765 809.762 598.213ZM814.434 596.741L815.65 596.773C815.378 603.557 814.642 608.117 811.09 610.965C810.93 610.741 810.402 610.261 810.13 610.053C813.602 607.589 814.242 603.125 814.434 596.741ZM807.938 609.541L807.714 608.325L808.066 607.797L811.874 605.125C811.986 605.445 812.162 605.893 812.274 606.133C808.706 608.741 808.242 609.141 807.938 609.541ZM807.922 609.525C807.794 609.269 807.49 608.821 807.282 608.629C807.57 608.405 808.082 607.893 808.082 607.125V596.981H809.234V608.021C809.234 608.021 807.922 609.061 807.922 609.525ZM819.138 609.285C821.922 609.221 826.386 609.061 830.546 608.869L830.498 609.973C826.466 610.181 822.13 610.373 819.298 610.469L819.138 609.285ZM818.994 604.341H832.258V605.477H818.994V604.341ZM821.73 601.285H829.378V602.405H821.73V601.285ZM823.378 605.061L824.722 605.445C823.986 606.981 823.058 608.853 822.274 610.053L821.202 609.701C821.954 608.453 822.898 606.469 823.378 605.061ZM827.186 606.757L828.21 606.213C829.682 607.477 831.25 609.205 832.002 610.421L830.914 611.077C830.194 609.877 828.61 608.037 827.186 606.757ZM825.522 597.493C824.21 599.445 821.586 601.637 818.866 602.997C818.722 602.709 818.418 602.277 818.162 602.021C820.914 600.709 823.586 598.389 824.834 596.341H826.066C827.762 598.709 830.562 600.805 833.106 601.845C832.818 602.133 832.53 602.565 832.322 602.917C829.826 601.717 827.01 599.573 825.522 597.493ZM840.642 597.493C841.714 603.669 844.034 608.213 849.186 610.037C848.898 610.293 848.514 610.773 848.338 611.093C843.01 608.997 840.722 604.341 839.506 597.685L840.642 597.493ZM842.242 597.061L843.266 596.629C843.922 597.685 844.642 599.077 844.914 599.941L843.826 600.453C843.57 599.573 842.898 598.133 842.242 597.061ZM846.898 597.301L848.114 597.493C847.058 603.573 845.138 608.517 839.266 611.141C839.106 610.853 838.786 610.405 838.562 610.165C844.178 607.749 845.986 603.013 846.898 597.301ZM835.378 597.413L836.242 596.773C836.978 597.493 837.89 598.501 838.29 599.141L837.378 599.909C836.978 599.221 836.114 598.181 835.378 597.413ZM836.578 610.613L836.37 609.493L836.706 608.997L839.666 606.965C839.746 607.285 839.938 607.749 840.05 607.973C837.234 609.989 836.818 610.309 836.578 610.613ZM834.322 601.333H837.57V602.485H834.322V601.333ZM836.578 610.613C836.434 610.373 836.082 609.941 835.874 609.765C836.146 609.525 836.578 608.965 836.578 608.149V601.333H837.73V609.013C837.73 609.013 836.578 610.133 836.578 610.613Z" fill="#3B4BC4"/>
<rect x="764.586" y="58.1085" width="91" height="498" fill="#3B4BC4"/>
<path d="M797.788 50.1085L800.658 44.1785H797.038V43.2385H801.848V43.9985L798.948 50.1085H797.788ZM803.57 51.4785L803.15 51.1585C803.43 50.8585 803.62 50.5385 803.7 50.2285C803.34 50.2285 803.05 49.9285 803.05 49.5585C803.05 49.2085 803.33 48.8985 803.71 48.8985C804.15 48.8985 804.44 49.2985 804.44 49.8485C804.44 50.3185 804.21 50.7485 803.57 51.4785ZM807.143 50.1085V44.4385L805.953 45.1985L805.533 44.4685L807.343 43.2385H808.153V50.1085H807.143ZM812.612 45.7685C813.872 45.7685 814.922 46.5585 814.922 47.9185C814.922 49.2385 813.882 50.2285 812.432 50.2285C810.522 50.2285 809.722 48.7385 809.722 46.7785C809.722 44.6985 810.952 43.1185 812.622 43.1185C813.472 43.1185 814.102 43.4385 814.622 43.9085L814.102 44.6885C813.682 44.2985 813.242 44.0285 812.612 44.0285C811.572 44.0285 810.792 45.1585 810.752 46.6685C811.172 46.0985 811.862 45.7685 812.612 45.7685ZM812.402 49.3685C813.332 49.3685 813.892 48.6585 813.892 47.9685C813.892 47.1285 813.212 46.6185 812.382 46.6185C811.622 46.6185 811.022 47.0585 810.832 47.7185C811.002 48.7085 811.492 49.3685 812.402 49.3685ZM818.892 50.2285C817.162 50.2285 815.952 48.7585 815.952 46.6685C815.952 44.5885 817.162 43.1185 818.892 43.1185C820.602 43.1185 821.812 44.5885 821.812 46.6685C821.812 48.7585 820.602 50.2285 818.892 50.2285ZM818.892 49.2985C820.002 49.2985 820.782 48.2085 820.782 46.6685C820.782 45.1285 820.002 44.0485 818.892 44.0485C817.772 44.0485 816.982 45.1285 816.982 46.6685C816.982 48.2085 817.772 49.2985 818.892 49.2985Z" fill="#3B4BC4"/>
<path d="M1095.24 588.749V586.829L1099.29 583.693C1100.6 582.653 1101.02 581.933 1101.02 581.165C1101.02 580.253 1100.25 579.709 1099.35 579.709C1098.28 579.709 1097.47 580.253 1096.67 581.165L1095.16 579.709C1096.25 578.333 1097.64 577.565 1099.42 577.565C1101.75 577.565 1103.45 579.005 1103.45 581.069C1103.45 582.541 1102.81 583.677 1100.89 585.069L1098.89 586.621H1103.55V588.749H1095.24ZM1110.08 588.941C1107.18 588.941 1105.14 586.589 1105.14 583.245C1105.14 579.917 1107.18 577.565 1110.08 577.565C1112.98 577.565 1115.01 579.917 1115.01 583.245C1115.01 586.589 1112.98 588.941 1110.08 588.941ZM1110.08 586.797C1111.55 586.797 1112.59 585.309 1112.59 583.245C1112.59 581.181 1111.55 579.709 1110.08 579.709C1108.61 579.709 1107.57 581.181 1107.57 583.245C1107.57 585.309 1108.61 586.797 1110.08 586.797ZM1116.43 588.749V586.829L1120.48 583.693C1121.79 582.653 1122.21 581.933 1122.21 581.165C1122.21 580.253 1121.44 579.709 1120.54 579.709C1119.47 579.709 1118.65 580.253 1117.85 581.165L1116.35 579.709C1117.44 578.333 1118.83 577.565 1120.61 577.565C1122.94 577.565 1124.64 579.005 1124.64 581.069C1124.64 582.541 1124 583.677 1122.08 585.069L1120.08 586.621H1124.73V588.749H1116.43ZM1130.4 588.957C1128.44 588.957 1126.92 588.173 1125.99 587.101L1127.38 585.533C1128.16 586.365 1129.2 586.829 1130.31 586.829C1131.51 586.829 1132.23 586.269 1132.23 585.485C1132.23 584.637 1131.56 584.205 1130.08 584.221H1128.82V582.205L1130.08 582.221C1131.28 582.221 1132 581.773 1132 580.989C1132 580.189 1131.24 579.677 1130.15 579.677C1129.12 579.677 1128.31 580.189 1127.57 580.957L1126.21 579.517C1127.12 578.413 1128.44 577.565 1130.39 577.565C1132.85 577.565 1134.4 578.829 1134.4 580.573C1134.4 581.837 1133.56 582.749 1132.34 583.101C1133.54 583.373 1134.64 584.221 1134.64 585.677C1134.64 587.581 1132.98 588.957 1130.4 588.957Z" fill="#3B4BC4"/>
<rect x="1068.59" y="422.109" width="91" height="134" fill="#3B4BC4"/>
<path d="M1103.88 414.109V408.439L1102.69 409.199L1102.27 408.469L1104.08 407.239H1104.89V414.109H1103.88ZM1107.3 415.479L1106.88 415.159C1107.16 414.859 1107.35 414.539 1107.43 414.229C1107.07 414.229 1106.78 413.929 1106.78 413.559C1106.78 413.209 1107.06 412.899 1107.44 412.899C1107.88 412.899 1108.17 413.299 1108.17 413.849C1108.17 414.319 1107.94 414.749 1107.3 415.479ZM1112.02 407.119C1113.93 407.119 1114.73 408.609 1114.73 410.569C1114.73 412.649 1113.5 414.229 1111.83 414.229C1110.98 414.229 1110.35 413.909 1109.83 413.439L1110.35 412.659C1110.77 413.049 1111.21 413.319 1111.84 413.319C1112.88 413.319 1113.66 412.189 1113.7 410.679C1113.28 411.249 1112.59 411.579 1111.84 411.579C1110.58 411.579 1109.53 410.789 1109.53 409.429C1109.53 408.109 1110.57 407.119 1112.02 407.119ZM1112.07 410.729C1112.83 410.729 1113.43 410.289 1113.62 409.629C1113.45 408.639 1112.96 407.979 1112.05 407.979C1111.12 407.979 1110.56 408.689 1110.56 409.379C1110.56 410.219 1111.24 410.729 1112.07 410.729ZM1117.14 414.109V408.439L1115.95 409.199L1115.53 408.469L1117.34 407.239H1118.15V414.109H1117.14ZM1122.63 414.229C1120.9 414.229 1119.69 412.759 1119.69 410.669C1119.69 408.589 1120.9 407.119 1122.63 407.119C1124.34 407.119 1125.55 408.589 1125.55 410.669C1125.55 412.759 1124.34 414.229 1122.63 414.229ZM1122.63 413.299C1123.74 413.299 1124.52 412.209 1124.52 410.669C1124.52 409.129 1123.74 408.049 1122.63 408.049C1121.51 408.049 1120.72 409.129 1120.72 410.669C1120.72 412.209 1121.51 413.299 1122.63 413.299Z" fill="#3B4BC4"/>
</svg>
