<svg id="Layer_1" data-name="Layer 1" xmlns="http://www.w3.org/2000/svg" viewBox="0 0 1570.23792 112.18582"><defs><style>.cls-1{fill:#fff;}.cls-2{fill:#2998d4;}</style></defs><title>logo_lfevents_white_blue</title><path class="cls-1" d="M93.79256,22.09977h54.32571V27.667H124.21682V90.63146h-6.52509V27.667H93.79267Z"/><path class="cls-1" d="M154.5582,22.09977h6.525V51.85514h40.69766V22.09977H208.306V90.63144h-6.52512V57.42126H161.08325V90.63144h-6.525Z"/><path class="cls-1" d="M222.13887,22.09977H269.4584V27.667H228.66634V52.43077h38.20182v5.56712H228.66634V85.06408h41.27327v5.56724H222.13887Z"/><polygon class="cls-1" points="21.282 76.951 21.282 49.535 7.546 49.535 7.546 90.662 48.689 90.662 48.689 76.951 21.282 76.951"/><polygon class="cls-1" points="76.093 22.1 7.555 22.1 7.555 42.667 21.26 42.667 21.26 35.87 62.391 35.87 62.391 76.951 55.545 76.951 55.545 90.662 76.093 90.662 76.093 22.1"/><path class="cls-1" d="M631.96857,22.11389h43.479v5.56724H638.49365V52.44486h32.82569v5.56729H638.49365V90.64547h-6.52508Z"/><path class="cls-1" d="M712.215,20.67485c21.49994,0,32.25,16.8929,32.25,35.70486,0,18.81312-10.75,35.706-32.25,35.706-21.59674,0-32.34693-16.8929-32.34693-35.706C679.86823,37.56778,690.61823,20.67485,712.215,20.67485Zm0,65.84361c18.04413,0,25.72265-15.16481,25.72265-30.1387,0-14.97267-7.67859-30.1387-25.72265-30.1387-18.14081,0-25.8194,15.16607-25.8194,30.1387C686.39563,71.35356,694.07422,86.51846,712.215,86.51846Z"/><path class="cls-1" d="M753.981,22.11389h6.52508V64.53835c0,15.83726,7.39081,21.98011,20.061,21.98011,12.767,0,20.15552-6.14286,20.15552-21.98011V22.11389h6.52734V65.97852c0,14.10928-7.58185,26.10725-26.6828,26.10725-18.90753,0-26.58606-11.998-26.58606-26.10725Z"/><path class="cls-1" d="M820.31384,22.11389h7.29407L867.53674,80.0878h.191V22.11389h6.52735V90.64556H866.961L827.03235,32.67163h-.191V90.64554H820.314Z"/><path class="cls-1" d="M887.99365,22.11389H911.6994c20.73334.48,31.4834,11.61458,31.4834,34.26585,0,22.65242-10.75,33.78578-31.4834,34.26584H887.99365Zm6.52509,62.96447h13.91809c19.6767,0,28.21857-8.15864,28.21857-28.69858s-8.542-28.69858-28.21857-28.69858H894.51874Z"/><path class="cls-1" d="M973.812,22.11389h7.294l26.87622,68.53167H1000.976l-8.35089-21.30777H961.43188l-8.25646,21.30777h-7.00629Zm-10.3656,41.65663H990.417L977.17114,28.64126Z"/><path class="cls-1" d="M1000.31293,22.11389h54.32574v5.56724h-23.899V90.64556h-6.52746V27.68113H1000.313Z"/><path class="cls-1" d="M1061.55737,22.11389h6.52747V90.64556h-6.52747Z"/><path class="cls-1" d="M1111.08484,20.67485c21.50012,0,32.25,16.8929,32.25,35.70486,0,18.81312-10.75,35.706-32.25,35.706-21.5968,0-32.3468-16.8929-32.3468-35.706C1078.738,37.56778,1089.48816,20.67485,1111.08484,20.67485Zm0,65.84361c18.04419,0,25.72278-15.16481,25.72278-30.1387,0-14.97267-7.67859-30.1387-25.72278-30.1387-18.14075,0-25.81946,15.16607-25.81946,30.1387C1085.2655,71.35356,1092.94409,86.51846,1111.08484,86.51846Z"/><path class="cls-1" d="M1153.42651,22.11389h7.29407l39.92859,57.97391h.191V22.11389h6.52734V90.64556h-7.29406L1160.145,32.67163h-.191V90.64554h-6.52734Z"/><path class="cls-1" d="M288.0166,22.09977h21.025V72.84523h30.1986V90.33387H288.0166Z"/><path class="cls-1" d="M352.99551,22.09977h21.025v68.234h-21.025Z"/><path class="cls-1" d="M389.69135,22.09977h21.50128l19.878,36.506h.19183v-36.506h19.87668v68.234H430.68829l-20.92843-37.2707h-.192V90.33378H389.69122Z"/><path class="cls-1" d="M528.82672,63.95793c0,19.01737-10.03363,28.00049-31.05859,28.00049-21.02368,0-31.15384-8.98312-31.15384-28.00049V22.09977H487.638V59.2752c0,6.88023-.09531,15.67283,10.2254,15.67283,9.93964,0,9.93964-8.79277,9.93964-15.67283V22.09977h21.02374Z"/><path class="cls-1" d="M562.26935,54.01882l-22.4577-31.91917H564.467L574.7876,40.6394l10.13012-18.53975h23.31775L586.35181,54.21,610.72,90.33366H585.39539L573.73718,69.9781,561.69525,90.33366H537.61267Z"/><path class="cls-2" d="M1266.93188,21.56475v4.48579h-32.597v27.8624h31.75085V58.4485h-31.75085V86.71009h33.39538v4.48578H1228.953V21.56475Z"/><path class="cls-2" d="M1331.1803,21.56475l-29.17774,70.329h-1.59094l-29.2926-70.329h5.45459l24.67663,58.91444,24.49854-58.91444Z"/><path class="cls-2" d="M1377.63306,21.56475v4.48579h-32.597v27.8624h31.75086V58.4485H1345.036V86.71009h33.39539v4.48578h-38.77723V21.56475Z"/><path class="cls-2" d="M1452.24866,21.56475V91.19587h-4.4303l-52.93921-60.85866V91.19587h-5.38367V21.56475h4.56238l52.809,60.85867V21.56475Z"/><path class="cls-2" d="M1518.29285,21.56475v4.48579h-26.11829V91.19587h-5.43347V26.05054H1460.6228V21.56475Z"/><path class="cls-2" d="M1559.56274,25.054v5.93127q-9.07214-5.333-15.60168-5.333a15.04345,15.04345,0,0,0-10.4917,3.81282,12.228,12.228,0,0,0-4.212,9.44542,11.63484,11.63484,0,0,0,2.4928,7.27719q2.49281,3.24087,10.417,6.22994a98.65377,98.65377,0,0,1,11.56385,4.98452,17.63813,17.63813,0,0,1,6.18017,5.78193,17.30423,17.30423,0,0,1,2.54248,9.81876,17.89419,17.89419,0,0,1-5.88147,13.55786,20.17715,20.17715,0,0,1-14.35522,5.53209q-8.67279,0-17.84363-6.08059V79.68179q10.1173,7.428,17.54492,7.42652a14.66035,14.66035,0,0,0,10.4419-4.01193,13.474,13.474,0,0,0,1.61975-17.84645q-2.64222-3.56393-10.71192-6.66358a105.49124,105.49124,0,0,1-11.53711-4.99123,16.99885,16.99885,0,0,1-5.88525-5.40476,15.59725,15.59725,0,0,1-2.42-9.04145,17.1182,17.1182,0,0,1,5.88147-13.07636,20.18559,20.18559,0,0,1,14.15612-5.40476A33.10577,33.10577,0,0,1,1559.56274,25.054Z"/></svg>