<svg id="Layer_1" data-name="Layer 1" xmlns="http://www.w3.org/2000/svg" viewBox="0 0 332 206"><defs><style>.cls-1{fill:#010101;}</style></defs><title>lfevents-stacked-black</title><path class="cls-1" d="M130.36262,8.5349H148.5954v1.86849h-8.0218v21.1321h-2.19V10.40339h-8.021Z"/><path class="cls-1" d="M150.75675,8.5349h2.18995v9.9865h13.65894V8.5349h2.18994V31.53549h-2.18994V20.3895H152.9467v11.146h-2.18995Z"/><path class="cls-1" d="M173.4382,8.5349h15.88134v1.86849H175.62891v8.31119H188.4502v1.86849H175.62891V29.667H189.481v1.86849H173.4382Z"/><path class="cls-1" d="M130.36262,88.61542H144.955V90.4839H132.55256v8.3112h11.017v1.86849h-11.017V111.616h-2.18994Z"/><path class="cls-1" d="M157.2949,88.13246c7.21584,0,10.82376,5.66959,10.82376,11.98325,0,6.31406-3.60792,11.98365-10.82376,11.98365-7.24829,0-10.85621-5.66959-10.85621-11.98365C146.43869,93.802,150.04661,88.13246,157.2949,88.13246Zm0,22.09841c6.056,0,8.633-5.08965,8.633-10.11516,0-5.02512-2.57709-10.11515-8.633-10.11515-6.08841,0-8.6655,5.09-8.6655,10.11515C148.6294,105.14122,151.20649,110.23087,157.2949,110.23087Z"/><path class="cls-1" d="M171.31239,88.61542h2.19v14.2385c0,5.31528,2.48049,7.37695,6.73287,7.37695,4.28484,0,6.76456-2.06167,6.76456-7.37695V88.61542h2.19072v14.72184c0,4.73535-2.54463,8.7621-8.95528,8.7621-6.34573,0-8.92282-4.02675-8.92282-8.7621Z"/><path class="cls-1" d="M193.575,88.61542h2.448l13.40085,19.45719h.06413V88.61542h2.19072V111.616h-2.448L195.82987,92.15882h-.06414V111.616H193.575Z"/><path class="cls-1" d="M216.28968,88.61542h7.95613c6.95851.16112,10.56643,3.89808,10.56643,11.50029,0,7.6026-3.60792,11.33918-10.56643,11.5003h-7.95613Zm2.18995,21.1321h4.67121c6.60383,0,9.47069-2.7382,9.47069-9.63181s-2.86686-9.63181-9.47069-9.63181h-4.67121Z"/><path class="cls-1" d="M245.092,88.61542h2.448l9.02019,23.00059h-2.35145l-2.80272-7.15132H240.937l-2.77105,7.15132h-2.35144Zm-3.47888,13.98079H250.665l-4.44557-11.79007Z"/><path class="cls-1" d="M253.98623,88.61542H272.219V90.4839h-8.021V111.616h-2.19071V90.4839h-8.021Z"/><path class="cls-1" d="M274.54109,88.61542h2.19072V111.616h-2.19072Z"/><path class="cls-1" d="M291.16349,88.13246c7.21584,0,10.82376,5.66959,10.82376,11.98325,0,6.31406-3.60792,11.98365-10.82376,11.98365-7.2483,0-10.85622-5.66959-10.85622-11.98365C280.30727,93.802,283.91519,88.13246,291.16349,88.13246Zm0,22.09841c6.05595,0,8.633-5.08965,8.633-10.11516,0-5.02512-2.57709-10.11515-8.633-10.11515-6.08842,0-8.6655,5.09-8.6655,10.11515C282.498,105.14122,285.07507,110.23087,291.16349,110.23087Z"/><path class="cls-1" d="M305.37416,88.61542h2.448L321.223,108.07261h.06414V88.61542h2.19072V111.616h-2.448L307.629,92.15882h-.06413V111.616h-2.19072Z"/><path class="cls-1" d="M130.36262,38.38557H143.043V68.99065h18.21313V79.53824H130.36262Z"/><path class="cls-1" d="M169.55208,38.38557h12.68041V79.53824H169.55208Z"/><path class="cls-1" d="M191.68376,38.38557h12.96767L216.64,60.40274h.11569V38.38557h11.98783V79.53824H216.40945L203.78728,57.05988h-.11569V79.53824H191.68376Z"/><path class="cls-1" d="M275.59778,63.63068c0,11.46958-6.05137,16.8874-18.73177,16.8874-12.67962,0-18.78922-5.41782-18.78922-16.8874V38.38557H250.7564v22.4209c0,4.14955-.05745,9.45246,6.16706,9.45246,5.9947,0,5.9947-5.30291,5.9947-9.45246V38.38557h12.67962Z"/><path class="cls-1" d="M295.76743,57.63637l-13.54455-19.2508h14.86988l6.22451,11.18153,6.10961-11.18153h14.06319l-13.19826,19.3661,14.69674,21.78657H309.71492l-7.0312-12.27666-7.26258,12.27666H280.89676Z"/><polygon class="cls-1" points="29.68 90.924 29.68 49.55 8.953 49.55 8.953 111.616 71.043 111.616 71.043 90.924 29.68 90.924"/><polygon class="cls-1" points="112.405 8.143 8.967 8.143 8.967 39.183 29.651 39.183 29.651 28.924 91.723 28.924 91.723 90.924 81.392 90.924 81.392 111.616 112.405 111.616 112.405 8.143"/><path class="cls-1" d="M44.9367,128.39341v4.25018H14.05176v26.399H44.135v4.29734H14.05176v26.7772H45.69311v4.25017H8.95259V128.39341Z"/><path class="cls-1" d="M105.81058,128.39341l-27.64522,66.6351H76.658l-27.75406-66.6351H54.072l23.38054,55.82006,23.21179-55.82006Z"/><path class="cls-1" d="M149.82349,128.39341v4.25018H118.93855v26.399h30.0832v4.29734h-30.0832v26.7772H150.5799v4.25017H113.83938V128.39341Z"/><path class="cls-1" d="M220.52,128.39341v65.97387h-4.1976l-50.15867-57.66217v57.66217h-5.1009V128.39341h4.32274l50.03527,57.66218V128.39341Z"/><path class="cls-1" d="M283.09538,128.39341v4.25018H258.34891v61.72369h-5.14809V132.64359H228.45435v-4.25018Z"/><path class="cls-1" d="M322.19765,131.6994v5.61974q-8.59565-5.0529-14.78223-5.0529a14.25336,14.25336,0,0,0-9.94065,3.61256,11.58569,11.58569,0,0,0-3.9908,8.94932,11.0237,11.0237,0,0,0,2.36187,6.895q2.36187,3.07065,9.86985,5.90272a93.47074,93.47074,0,0,1,10.95648,4.72272,16.71182,16.71182,0,0,1,5.85557,5.47824,16.39536,16.39536,0,0,1,2.40894,9.303,16.95439,16.95439,0,0,1-5.57255,12.84576,19.11742,19.11742,0,0,1-13.60125,5.24153q-8.21725,0-16.90642-5.76122V183.458q9.58591,7.03786,16.62341,7.03646a13.89042,13.89042,0,0,0,9.89345-3.80121,12.76633,12.76633,0,0,0,1.53468-16.9091q-2.50344-3.37674-10.14929-6.31359a99.94948,99.94948,0,0,1-10.93115-4.72908,16.106,16.106,0,0,1-5.57614-5.12088,14.778,14.778,0,0,1-2.29293-8.56656,16.21909,16.21909,0,0,1,5.57255-12.38955,19.12541,19.12541,0,0,1,13.4126-5.12089A31.367,31.367,0,0,1,322.19765,131.6994Z"/></svg>