<svg  height="52" viewBox="0 0 24 32" fill="none" xmlns="http://www.w3.org/2000/svg">
<path fill-rule="evenodd" clip-rule="evenodd" d="M23.1837 15.0983C23.1837 7.16669 18.0277 0.736816 11.6651 0.736816C5.30246 0.736816 0.144043 7.16669 0.144043 15.0983C0.144043 22.702 4.86887 28.9061 10.8521 29.4265L10.2158 31.4581L14.2054 31.1159L12.8056 29.3908C18.6309 28.678 23.1837 22.5523 23.1837 15.0983Z" fill="#FE544F"/>
<path fill-rule="evenodd" clip-rule="evenodd" d="M14.4119 5.78564L14.9663 11.5532L20.7102 11.7196L16.5552 15.6151L19.8369 20.4013L14.3083 19.3534L12.6322 24.9282L10.0873 19.936L4.94886 22.3101L6.92555 16.9583L1.91406 14.4095L7.27872 12.6698L5.7984 7.34099L10.8737 10.2586L14.4119 5.78564Z" fill="white"/>
</svg>
