<svg width="42" height="42" viewBox="0 0 42 42" fill="none" xmlns="http://www.w3.org/2000/svg">
  <rect width="42" height="42" fill="white"/>
  <path d="M30.9467 7.99992C29.92 8.46659 28.8133 8.77325 27.6667 8.91992C28.84 8.21325 29.7467 7.09325 30.1733 5.74659C29.0667 6.41325 27.84 6.87992 26.5467 7.14659C25.4933 5.99992 24.0133 5.33325 22.3333 5.33325C19.2 5.33325 16.64 7.89325 16.64 11.0533C16.64 11.5066 16.6933 11.9466 16.7867 12.3599C12.04 12.1199 7.81334 9.83992 5.00001 6.38659C4.50668 7.22659 4.22668 8.21325 4.22668 9.25325C4.22668 11.2399 5.22668 12.9999 6.77334 13.9999C5.82668 13.9999 4.94668 13.7333 4.17334 13.3333V13.3733C4.17334 16.1466 6.14668 18.4666 8.76001 18.9866C7.92098 19.2162 7.04014 19.2481 6.18668 19.0799C6.54882 20.2166 7.25806 21.2111 8.2147 21.9238C9.17134 22.6365 10.3273 23.0315 11.52 23.0533C9.49818 24.6538 6.99201 25.519 4.41334 25.5066C3.96001 25.5066 3.50668 25.4799 3.05334 25.4266C5.58668 27.0533 8.60001 27.9999 11.8267 27.9999C22.3333 27.9999 28.1067 19.2799 28.1067 11.7199C28.1067 11.4666 28.1067 11.2266 28.0933 10.9733C29.2133 10.1733 30.1733 9.15992 30.9467 7.99992V7.99992Z" fill="#1B90EF"/>
  <mask id="path-2-outside-1_2203_2142" maskUnits="userSpaceOnUse" x="19.9189" y="15.4497" width="23.1444" height="26.2816" fill="black">
    <rect fill="white" x="19.9189" y="15.4497" width="23.1444" height="26.2816"/>
    <path fill-rule="evenodd" clip-rule="evenodd" d="M31.4994 23.507C30.1862 22.5698 28.8771 21.3007 27.5644 20.5692C27.8249 21.8577 27.9921 23.2084 28.1769 24.5474C27.178 25.0262 26.0623 25.3297 24.9828 25.6877C25.6443 26.6678 26.7177 27.3734 27.5062 28.2688C26.5768 29.0394 24.9212 29.7021 24.3975 30.4642C25.9792 30.5797 27.8399 30.6261 29.2882 30.8499C29.2863 32.4987 29.1011 34.2697 29.259 35.8119C30.3118 34.0235 31.3134 32.1582 32.4679 30.5224C33.5936 31.2756 34.9654 32.194 36.1036 32.733C35.499 31.3854 34.9827 29.9791 34.493 28.555C35.7551 27.9768 37.0274 27.4138 38.2575 26.7874C36.7839 26.3486 35.2452 25.9531 33.6806 25.5748C33.7556 23.8979 34.2104 21.9679 34.1234 20.399C33.2953 21.5049 32.3832 22.4847 31.4994 23.507V23.507ZM29.5155 37.1238C29.1473 37.9326 29.731 38.4115 29.5295 38.9061C28.929 38.5547 28.4666 38.3434 27.5761 38.2927C27.7357 37.636 28.3499 37.6615 28.3891 36.8242C19.3714 33.9281 22.6901 17.2502 32.0705 18.0603C43.7992 19.0732 40.1944 38.9544 29.5155 37.1238"/>
  </mask>
  <path fill-rule="evenodd" clip-rule="evenodd" d="M31.4994 23.507C30.1862 22.5698 28.8771 21.3007 27.5644 20.5692C27.8249 21.8577 27.9921 23.2084 28.1769 24.5474C27.178 25.0262 26.0623 25.3297 24.9828 25.6877C25.6443 26.6678 26.7177 27.3734 27.5062 28.2688C26.5768 29.0394 24.9212 29.7021 24.3975 30.4642C25.9792 30.5797 27.8399 30.6261 29.2882 30.8499C29.2863 32.4987 29.1011 34.2697 29.259 35.8119C30.3118 34.0235 31.3134 32.1582 32.4679 30.5224C33.5936 31.2756 34.9654 32.194 36.1036 32.733C35.499 31.3854 34.9827 29.9791 34.493 28.555C35.7551 27.9768 37.0274 27.4138 38.2575 26.7874C36.7839 26.3486 35.2452 25.9531 33.6806 25.5748C33.7556 23.8979 34.2104 21.9679 34.1234 20.399C33.2953 21.5049 32.3832 22.4847 31.4994 23.507V23.507ZM29.5155 37.1238C29.1473 37.9326 29.731 38.4115 29.5295 38.9061C28.929 38.5547 28.4666 38.3434 27.5761 38.2927C27.7357 37.636 28.3499 37.6615 28.3891 36.8242C19.3714 33.9281 22.6901 17.2502 32.0705 18.0603C43.7992 19.0732 40.1944 38.9544 29.5155 37.1238" fill="#E34F0E"/>
  <path d="M27.5644 20.5692L28.0512 19.6956C27.7101 19.5056 27.2897 19.5314 26.9745 19.7617C26.6592 19.992 26.5068 20.3847 26.5842 20.7673L27.5644 20.5692ZM28.1769 24.5474L28.6091 25.4492C29.0012 25.2613 29.227 24.8415 29.1675 24.4107L28.1769 24.5474ZM24.9828 25.6877L24.6681 24.7385C24.371 24.837 24.1372 25.0688 24.0363 25.3651C23.9353 25.6613 23.9789 25.9877 24.1539 26.2471L24.9828 25.6877ZM27.5062 28.2688L28.1445 29.0387C28.3526 28.8661 28.482 28.6166 28.5032 28.3471C28.5243 28.0775 28.4354 27.8109 28.2567 27.608L27.5062 28.2688ZM24.3975 30.4642L23.5733 29.8979C23.3705 30.1932 23.341 30.5744 23.4962 30.8973C23.6514 31.2202 23.9674 31.4355 24.3247 31.4616L24.3975 30.4642ZM29.2882 30.8499L30.2882 30.8511C30.2888 30.3573 29.9289 29.937 29.4409 29.8616L29.2882 30.8499ZM29.259 35.8119L28.2642 35.9138C28.3082 36.3437 28.6234 36.6967 29.0456 36.7889C29.4679 36.8811 29.9015 36.6916 30.1208 36.3192L29.259 35.8119ZM32.4679 30.5224L33.0241 29.6913C32.5731 29.3895 31.9638 29.5025 31.6509 29.9458L32.4679 30.5224ZM36.1036 32.733L35.6755 33.6368C36.0541 33.816 36.5042 33.7404 36.8034 33.4474C37.1025 33.1543 37.1874 32.7058 37.016 32.3237L36.1036 32.733ZM34.493 28.555L34.0765 27.6458C33.6089 27.86 33.3801 28.3939 33.5473 28.8802L34.493 28.555ZM38.2575 26.7874L38.7112 27.6786C39.0757 27.493 39.2905 27.1041 39.2534 26.6968C39.2163 26.2894 38.9349 25.9457 38.5429 25.829L38.2575 26.7874ZM33.6806 25.5748L32.6816 25.5302C32.6603 26.0082 32.9805 26.4344 33.4456 26.5468L33.6806 25.5748ZM34.1234 20.399L35.1218 20.3436C35.0986 19.9239 34.8152 19.5635 34.4128 19.4418C34.0104 19.3201 33.5749 19.4631 33.3229 19.7996L34.1234 20.399ZM30.4256 37.538C30.6544 37.0353 30.4324 36.4423 29.9297 36.2136C29.427 35.9848 28.834 36.2069 28.6053 36.7095L30.4256 37.538ZM29.5295 38.9061L29.0245 39.7692C29.2748 39.9156 29.5763 39.9462 29.8509 39.853C30.1256 39.7598 30.3462 39.5519 30.4556 39.2833L29.5295 38.9061ZM27.5761 38.2927L26.6044 38.0565C26.5343 38.3449 26.596 38.6496 26.7727 38.888C26.9494 39.1265 27.2229 39.2742 27.5192 39.2911L27.5761 38.2927ZM28.3891 36.8242L29.388 36.8708C29.4091 36.4196 29.125 36.0102 28.6948 35.8721L28.3891 36.8242ZM32.0705 18.0603L31.9844 19.0566L31.9844 19.0566L32.0705 18.0603ZM29.6844 36.1381C29.1401 36.0448 28.6232 36.4104 28.5298 36.9548C28.4365 37.4991 28.8022 38.0161 29.3465 38.1094L29.6844 36.1381ZM32.0803 22.693C31.4542 22.2462 30.839 21.7277 30.1575 21.1809C29.499 20.6527 28.7871 20.1058 28.0512 19.6956L27.0776 21.4427C27.6544 21.7641 28.2534 22.2174 28.906 22.741C29.5355 23.246 30.2314 23.8306 30.9184 24.3209L32.0803 22.693ZM26.5842 20.7673C26.8368 22.0165 26.9986 23.3241 27.1863 24.6841L29.1675 24.4107C28.9857 23.0928 28.813 21.6989 28.5445 20.371L26.5842 20.7673ZM27.7448 23.6456C26.822 24.0878 25.8202 24.3564 24.6681 24.7385L25.2976 26.6368C26.3044 26.303 27.534 25.9645 28.6091 25.4492L27.7448 23.6456ZM24.1539 26.2471C24.5563 26.8433 25.0675 27.3326 25.5223 27.7482C26.0042 28.1886 26.4083 28.5351 26.7558 28.9297L28.2567 27.608C27.8157 27.1071 27.2888 26.6531 26.8715 26.2718C26.4271 25.8657 26.0708 25.5122 25.8117 25.1283L24.1539 26.2471ZM26.868 27.499C26.4799 27.8208 25.9356 28.122 25.2853 28.5122C24.9826 28.6938 24.6616 28.8933 24.376 29.1062C24.0981 29.3132 23.7954 29.5748 23.5733 29.8979L25.2217 31.0305C25.2615 30.9726 25.3621 30.8655 25.571 30.7099C25.7721 30.56 26.0214 30.4029 26.3142 30.2272C26.8549 29.9028 27.6032 29.4875 28.1445 29.0387L26.868 27.499ZM24.3247 31.4616C25.9851 31.5828 27.7389 31.6224 29.1355 31.8382L29.4409 29.8616C27.9409 29.6299 25.9733 29.5766 24.4704 29.4669L24.3247 31.4616ZM28.2882 30.8487C28.2873 31.6534 28.242 32.4653 28.2142 33.339C28.1871 34.1887 28.1781 35.0726 28.2642 35.9138L30.2538 35.71C30.182 35.0089 30.1866 34.2363 30.2132 33.4027C30.2389 32.5931 30.2872 31.6952 30.2882 30.8511L28.2882 30.8487ZM30.1208 36.3192C31.2017 34.483 32.1622 32.6899 33.285 31.099L31.6509 29.9458C30.4647 31.6266 29.4219 33.564 28.3972 35.3046L30.1208 36.3192ZM31.9118 31.3535C33.0176 32.0934 34.4564 33.0594 35.6755 33.6368L36.5316 31.8292C35.4745 31.3286 34.1697 30.4579 33.0241 29.6913L31.9118 31.3535ZM37.016 32.3237C36.4297 31.0168 35.9247 29.6434 35.4386 28.2298L33.5473 28.8802C34.0406 30.3148 34.5684 31.7541 35.1912 33.1423L37.016 32.3237ZM34.9094 29.4641C36.1553 28.8934 37.457 28.3172 38.7112 27.6786L37.8037 25.8963C36.5978 26.5103 35.3549 27.0602 34.0765 27.6458L34.9094 29.4641ZM38.5429 25.829C37.0456 25.3832 35.4881 24.983 33.9156 24.6028L33.4456 26.5468C35.0022 26.9232 36.5221 27.3141 37.9721 27.7458L38.5429 25.829ZM34.6796 25.6195C34.7148 24.8337 34.8387 23.9916 34.9548 23.0717C35.0668 22.1857 35.1709 21.229 35.1218 20.3436L33.1249 20.4544C33.1628 21.138 33.0831 21.9307 32.9706 22.8211C32.8624 23.6777 32.7215 24.639 32.6816 25.5302L34.6796 25.6195ZM33.3229 19.7996C32.5229 20.8681 31.6578 21.7947 30.7429 22.853L32.2558 24.161C33.1085 23.1747 34.0677 22.1417 34.9238 20.9984L33.3229 19.7996ZM28.6053 36.7095C28.2826 37.4185 28.393 38.0095 28.4932 38.3883C28.5504 38.6048 28.5632 38.6297 28.5734 38.6929C28.5761 38.7096 28.5616 38.6314 28.6034 38.5288L30.4556 39.2833C30.5981 38.9334 30.5861 38.6099 30.5476 38.3724C30.5166 38.1815 30.4443 37.9434 30.4268 37.8772C30.3775 37.6908 30.3802 37.6379 30.4256 37.538L28.6053 36.7095ZM30.0345 38.043C29.343 37.6383 28.7268 37.3566 27.633 37.2943L27.5192 39.2911C28.2063 39.3302 28.515 39.4711 29.0245 39.7692L30.0345 38.043ZM28.5478 38.5288C28.5484 38.5264 28.496 38.5749 28.7388 38.3294C28.8507 38.2163 29.0194 38.036 29.1545 37.7773C29.2942 37.5097 29.3721 37.2099 29.388 36.8708L27.3902 36.7775C27.3864 36.8572 27.373 36.8681 27.3815 36.8518C27.3854 36.8443 27.3833 36.8557 27.3168 36.923C27.2028 37.0382 26.7634 37.4023 26.6044 38.0565L28.5478 38.5288ZM28.6948 35.8721C24.888 34.6495 23.4828 30.4423 24.3116 26.2462C25.1409 22.0473 28.0357 18.7156 31.9844 19.0566L32.1565 17.064C26.7249 16.5949 23.2702 21.1971 22.3495 25.8587C21.4282 30.523 22.8725 36.1028 28.0833 37.7763L28.6948 35.8721ZM31.9844 19.0566C34.592 19.2818 36.2747 20.5298 37.2555 22.2246C38.2597 23.9598 38.5661 26.2388 38.2081 28.5021C37.8504 30.7638 36.8459 32.8994 35.3695 34.3454C33.9174 35.7676 32.0049 36.5359 29.6844 36.1381L29.3465 38.1094C32.3655 38.6269 34.9082 37.5966 36.7689 35.7743C38.6053 33.9758 39.7713 31.421 40.1835 28.8146C40.5955 26.2098 40.2714 23.443 38.9865 21.2228C37.6783 18.9622 35.4132 17.3453 32.1565 17.064L31.9844 19.0566Z" fill="white" mask="url(#path-2-outside-1_2203_2142)"/>
  <path fill-rule="evenodd" clip-rule="evenodd" d="M34.1234 20.3988C34.2104 21.9677 33.7556 23.8977 33.6807 25.5746C35.2452 25.9529 36.7839 26.3484 38.2575 26.7872C37.0274 27.4136 35.7552 27.9766 34.493 28.5548C34.9827 29.9789 35.4991 31.3852 36.1036 32.7328C34.9655 32.1938 33.5937 31.2754 32.468 30.5222C31.3135 32.158 30.3119 34.0233 29.259 35.8117C29.1011 34.2695 29.2864 32.4985 29.2883 30.8497C27.84 30.6259 25.9793 30.5795 24.3976 30.464C24.9212 29.7019 26.5769 29.0392 27.5063 28.2686C26.7178 27.3732 25.6443 26.6676 24.9829 25.6875C26.0624 25.3295 27.178 25.026 28.177 24.5472C27.9922 23.2082 27.825 21.8575 27.5644 20.569C28.8771 21.3005 30.1863 22.5696 31.4994 23.5068C32.3832 22.4845 33.2953 21.5047 34.1234 20.3988" fill="white"/>
</svg>
