<svg width="57" height="56" viewBox="0 0 57 56" fill="none" xmlns="http://www.w3.org/2000/svg">
<rect x="0.666748" width="56" height="56" rx="28" fill="#FFF1F0"/>
<path d="M29.6667 35C29.6667 36.1 29.9667 37.12 30.4767 38H22.6667C21.5567 38 20.6667 37.11 20.6667 36V20C20.6667 19.4696 20.8775 18.9609 21.2525 18.5858C21.6276 18.2107 22.1363 18 22.6667 18H23.6667V25L26.1667 23.5L28.6667 25V18H34.6667C35.1972 18 35.7059 18.2107 36.081 18.5858C36.456 18.9609 36.6667 19.4696 36.6667 20V29.09C36.3367 29.04 36.0067 29 35.6667 29C32.3567 29 29.6667 31.69 29.6667 35ZM36.6667 34V31H34.6667V34H31.6667V36H34.6667V39H36.6667V36H39.6667V34H36.6667Z" fill="#FE544F"/>
</svg>
