<svg width="53" height="70" viewBox="0 0 53 70" fill="none" xmlns="http://www.w3.org/2000/svg">
<path id="icon-non-binary" d="M52.4001 69.0379C51.8819 69.669 51.3371 70.2497 50.3991 69.8891C49.477 69.5364 49.4105 68.7701 49.4025 67.9295C49.3866 66.5401 49.4557 65.1294 49.2272 63.7691C48.6186 60.1417 46.4953 57.6545 43.0673 56.3366C41.2443 55.6366 39.3708 55.0612 37.5 54.4964C37.1838 54.401 36.655 54.5335 36.4025 54.7589C27.9785 62.3505 16.3072 62.3452 7.87263 54.7483C7.62549 54.5256 7.09933 54.4142 6.77512 54.5044C5.43579 54.8782 4.12569 55.3608 2.79965 55.7824C1.76592 56.1112 0.984639 55.7718 0.687009 54.9074C0.397352 54.0668 0.841139 53.3032 1.87753 52.9532C4.29311 52.1365 6.71932 51.3436 9.14021 50.5428C10.833 49.9833 11.0775 49.6492 11.0828 47.9098C11.0828 47.7772 11.0721 47.6446 11.0828 47.512C11.3219 44.9506 10.9074 42.7444 9.06315 40.6231C6.93191 38.1704 6.15595 34.9646 6.31805 31.6978C6.44295 29.1655 5.91147 27.0548 4.36751 24.9176C1.93067 21.5421 0.878342 17.6124 1.78186 13.4228C2.59768 9.63628 4.89634 7.06686 8.64328 5.86303C8.91168 5.77552 9.24119 5.66681 9.39532 5.45733C11.5771 2.46895 14.7048 1.13254 18.194 0.530617C23.2032 -0.333811 28.1991 -0.211836 33.0489 1.41626C40.3913 3.87961 43.915 9.9916 42.5464 17.6018C41.8635 21.3962 40.4046 24.8858 38.547 28.2401C38.2441 28.7863 38.0528 29.4757 38.0581 30.0935C38.09 32.8698 37.9438 35.6301 36.6603 38.1386C35.8524 39.7136 34.7204 41.1216 33.7637 42.6225C33.5325 42.9857 33.2827 43.4179 33.2668 43.8289C33.2083 45.351 33.2641 46.8783 33.2376 48.4003C33.219 49.4451 33.6893 50.0549 34.6805 50.3784C37.5798 51.3224 40.4683 52.3009 43.3569 53.2767C48.3236 54.9525 51.3106 58.3492 52.246 63.5172C52.2672 63.6392 52.3469 63.7532 52.4001 63.8699V69.0406V69.0379ZM7.76633 9.6575C6.07091 10.5246 4.74752 12.6538 4.55619 14.8069C4.1815 18.9779 5.85832 22.4357 8.44132 25.5328C9.03657 26.2487 9.27574 26.962 9.29168 27.8715C9.32889 30.0856 9.21196 32.3448 9.59729 34.5058C10.6576 40.4587 16.4374 44.9373 22.4432 44.696C28.8422 44.4388 34.2288 39.7879 34.8347 33.6335C35.1801 30.1174 34.9728 26.551 35.0499 23.0084C35.0977 20.8314 34.0826 19.3094 32.1772 18.4264C31.2312 17.9862 30.1656 17.5965 29.1425 17.5673C24.3964 17.4321 19.6476 17.4188 14.8988 17.387C14.0405 17.3817 13.4771 17.8696 13.2007 18.6783C12.935 19.4605 12.6958 20.256 12.4062 21.0276C12.0501 21.9716 11.2901 22.3561 10.4477 22.0644C9.68498 21.7993 9.32092 21.0197 9.584 20.0943C9.7833 19.3942 10.0437 18.7128 10.2776 18.0234C11.1306 15.5176 12.6772 14.3986 15.3426 14.3906C18.6643 14.3827 21.9861 14.3482 25.3079 14.4039C27.0617 14.4331 28.8422 14.4649 30.5589 14.7804C33.963 15.4062 36.6045 17.1139 37.7259 20.6007C37.8694 21.0462 37.9624 21.5102 38.1272 22.1466C39.1024 19.7337 39.7136 17.4374 39.8093 15.0376C40.006 10.1321 37.6329 6.48351 33.0808 4.59555C30.7848 3.64362 28.3692 3.23527 25.9031 3.10269C22.4007 2.91442 18.9195 3.01784 15.6136 4.36751C12.5071 5.63499 10.6284 7.79341 10.7347 11.3333C10.7612 12.2587 10.1421 12.9004 9.31826 12.9323C8.49712 12.9641 7.8434 12.3648 7.77431 11.4447C7.72913 10.864 7.76633 10.278 7.76633 9.65485V9.6575ZM14.0511 45.4968C14.1441 48.6681 14.4338 51.7971 10.7612 53.1573C16.6288 58.6542 27.0777 59.0386 33.5644 53.1626C29.8201 51.8262 30.1975 48.6337 30.2613 45.4995C24.8269 48.3685 19.5333 48.3897 14.0511 45.4968Z" fill="#477076"/>
</svg>
