<svg width="58" height="58" viewBox="0 0 58 58" fill="none" xmlns="http://www.w3.org/2000/svg">
<path fill-rule="evenodd" clip-rule="evenodd" d="M15.9934 5.38848C19.443 1.93829 24.1217 0 29.0001 0C33.8786 0 38.5573 1.93829 42.0069 5.38848C45.4565 8.83867 47.3944 13.5181 47.3944 18.3974C47.3944 27.3127 49.3011 32.8617 51.068 36.1016C51.9549 37.7278 52.8202 38.7976 53.4246 39.4358C53.7275 39.7555 53.9666 39.9687 54.1125 40.0903C54.1855 40.1511 54.2352 40.1891 54.258 40.206C54.2628 40.2096 54.2664 40.2123 54.2688 40.214C55.1612 40.8259 55.5563 41.9467 55.2421 42.9848C54.9246 44.0333 53.9584 44.7505 52.863 44.7505H5.13727C4.0419 44.7505 3.07564 44.0333 2.75822 42.9848C2.44395 41.9467 2.83905 40.826 3.73146 40.214C3.73383 40.2123 3.73745 40.2096 3.74228 40.206C3.76506 40.1891 3.81477 40.1511 3.88775 40.0903C4.03362 39.9687 4.27274 39.7555 4.57562 39.4358C5.18009 38.7976 6.04533 37.7278 6.93222 36.1016C8.69914 32.8617 10.6058 27.3127 10.6058 18.3974C10.6058 13.5181 12.5438 8.83867 15.9934 5.38848ZM3.75346 40.1991C3.75408 40.1987 3.7547 40.1983 3.75532 40.1979C3.7553 40.1979 3.75533 40.1978 3.75532 40.1979C3.7547 40.1983 3.75408 40.1987 3.75346 40.1991ZM10.5386 39.7782H47.4617C47.2099 39.3771 46.9562 38.9457 46.7037 38.4826C44.4934 34.4298 42.423 28.0453 42.423 18.3974C42.423 14.8369 41.0088 11.4221 38.4915 8.90441C35.9743 6.38671 32.5601 4.97228 29.0001 4.97228C25.4402 4.97228 22.026 6.38671 19.5087 8.90441C16.9915 11.4221 15.5773 14.8369 15.5773 18.3974C15.5773 28.0453 13.5068 34.4298 11.2966 38.4826C11.0441 38.9457 10.7903 39.3771 10.5386 39.7782Z" fill="#35255A"/>
<path fill-rule="evenodd" clip-rule="evenodd" d="M23.1666 50.7208C24.3541 50.0318 25.8752 50.4361 26.564 51.6238C26.8116 52.0508 27.1671 52.4052 27.5948 52.6516C28.0224 52.898 28.5073 53.0277 29.0008 53.0277C29.4944 53.0277 29.9792 52.898 30.4069 52.6516C30.8346 52.4052 31.19 52.0508 31.4377 51.6238C32.1265 50.4361 33.6476 50.0318 34.8351 50.7208C36.0226 51.4098 36.4268 52.9311 35.7379 54.1188C35.0533 55.2993 34.0706 56.2791 32.8882 56.9603C31.7058 57.6414 30.3653 57.9999 29.0008 57.9999C27.6364 57.9999 26.2958 57.6414 25.1135 56.9603C23.9311 56.2791 22.9484 55.2993 22.2637 54.1188C21.5749 52.9311 21.9791 51.4098 23.1666 50.7208Z" fill="#CC4194"/>
<path fill-rule="evenodd" clip-rule="evenodd" d="M9.29852 0.511384C10.389 1.34545 10.597 2.90577 9.76312 3.99647C6.65766 8.05815 4.97143 13.0928 4.97143 18.3976C4.97143 19.7706 3.85854 20.8837 2.48571 20.8837C1.11289 20.8837 0 19.7706 0 18.3976C0 12.034 2.02577 5.93078 5.81402 0.976062C6.64795 -0.114636 8.20801 -0.322679 9.29852 0.511384Z" fill="#CC4194"/>
<path fill-rule="evenodd" clip-rule="evenodd" d="M48.72 0.497374C49.8183 -0.32646 51.3763 -0.103843 52.2 0.994602C55.9649 6.01525 58 12.1218 58 18.3976C58 19.7706 56.8871 20.8837 55.5143 20.8837C54.1415 20.8837 53.0286 19.7706 53.0286 18.3976C53.0286 13.1976 51.3423 8.13793 48.2229 3.97797C47.3992 2.87952 47.6218 1.32121 48.72 0.497374Z" fill="#CC4194"/>
</svg>
