<svg width="100" height="100" viewBox="0 0 100 100" fill="none" xmlns="http://www.w3.org/2000/svg">
<circle cx="50" cy="50" r="50" fill="#AB9B32"/>
<g clip-path="url(#clip0_35_918)">
<path d="M83.6348 40.5445C83.6348 38.6803 82.8331 37.2381 81.3146 36.3666C79.7614 35.4755 78.1041 35.5263 76.5278 36.5112C76.231 36.6988 75.9342 36.8864 75.6375 37.0779C75.0439 37.4609 74.4273 37.8517 73.8106 38.2113C73.6989 38.2777 73.5023 38.2973 73.4406 38.2738L72.1071 37.7579C70.1723 37.0115 68.1682 36.2415 66.2527 35.3856C63.3968 34.1116 60.5216 32.7515 57.7389 31.4344C56.945 31.0592 56.1549 30.684 55.361 30.3088C51.7651 28.6127 48.146 28.7494 44.6118 30.7114C38.5531 34.0764 32.8066 36.5542 27.0409 38.2934C26.7441 38.3833 26.6246 38.3481 26.4551 38.2308C26.0696 37.969 25.6727 37.7228 25.2873 37.4844C24.8633 37.2225 24.4278 36.9528 24.0193 36.6675C22.5971 35.6748 20.9283 35.4677 19.4329 36.1048C18.0724 36.6832 17.0626 37.883 16.762 39.2626L16.6348 39.3955V53.3284L16.6502 53.4613C17.1088 55.4779 18.5503 56.5292 19.5986 57.1467C20.5506 57.7095 21.5025 58.3192 22.4237 58.9093C23.1212 59.3549 23.842 59.8161 24.5588 60.2577C24.8517 60.4375 24.8903 60.5352 24.8749 60.8048C24.7747 62.8567 25.5802 64.5958 27.2683 65.9754C31.4423 69.3834 36.125 71.9238 41.1894 73.5223C44.5964 74.597 47.8146 75.1325 50.921 75.1325C52.7517 75.1325 54.54 74.9449 56.3014 74.5775C62.5643 73.2604 68.1528 70.3566 73.3944 65.6941C74.751 64.4864 75.4216 62.9622 75.387 61.1566C75.3831 60.9338 75.4101 60.8635 75.6683 60.7032C77.0288 59.859 78.4047 58.9836 79.7305 58.1394L81.3416 57.1155C82.8601 56.154 83.6309 54.7432 83.6309 52.9297V40.5445H83.6348ZM75.3947 41.2754C75.3947 41.0565 75.4216 41.033 75.5565 40.951C76.3235 40.4937 77.1444 39.9778 78.1426 39.3251C78.4702 39.1102 78.767 39.0047 79.0599 39.0047C79.2835 39.0047 79.5032 39.0672 79.7305 39.1962C80.2123 39.4698 80.4281 39.8997 80.4281 40.5914C80.4204 44.699 80.4204 48.8065 80.4281 52.9141C80.4281 53.7153 80.1506 53.9967 79.9387 54.1335C78.6899 54.9581 77.4373 55.7554 76.1115 56.5957C75.8803 56.7442 75.6452 56.8927 75.4062 57.0412V50.0415C75.4062 47.1182 75.4062 44.1909 75.3985 41.2675L75.3947 41.2754ZM72.1996 41.3965C72.188 46.6101 72.188 51.8237 72.188 57.0334V61.2152C72.188 62.0281 71.9028 62.6769 71.3209 63.1967C65.7555 68.1719 59.824 70.9741 53.1872 71.7636C49.9305 72.1505 46.5466 71.7557 42.5306 70.5129C37.5549 68.977 33.0495 66.5539 29.1452 63.3139C28.4168 62.7121 28.0776 62.0359 28.0776 61.1878C28.0776 54.876 28.0776 48.5642 28.0776 42.2524V41.4004C28.4553 41.2715 28.8331 41.1464 29.2108 41.0174C30.2976 40.65 31.4192 40.2748 32.5176 39.8801C36.8843 38.3129 41.3011 36.2689 46.0186 33.623C48.7357 32.0988 51.4799 32.0363 54.4051 33.4276C58.4982 35.3739 62.5797 37.2303 67.4475 39.4229C68.6615 39.97 69.9218 40.4351 71.1397 40.8884C71.4558 41.0057 71.7718 41.1229 72.0878 41.2402C72.1456 41.2636 72.1765 41.2793 72.188 41.2793C72.188 41.2949 72.1957 41.3301 72.1957 41.3887L72.1996 41.3965ZM20.5197 39.1844C20.724 39.0633 20.9514 39.0008 21.1788 39.0008C21.4062 39.0008 21.6567 39.0672 21.8841 39.1962C22.7435 39.6847 23.6454 40.2553 24.7978 41.037C24.8209 41.0878 24.8517 41.1972 24.8517 41.2832C24.8633 45.1289 24.8633 48.9746 24.8633 52.8203V56.623L24.2004 56.2048C22.8746 55.3646 21.6258 54.5712 20.3733 53.7544C20.0264 53.5277 19.8491 53.1681 19.8491 52.6874V50.4675C19.8414 47.1612 19.8337 43.7454 19.853 40.3843C19.853 39.8645 20.0958 39.4268 20.512 39.1805L20.5197 39.1844Z" fill="white"/>
<path d="M67.0848 45.9503C55.8115 49.9445 44.4071 49.9445 33.184 45.9503L32.6444 45.7588L31.5498 48.8189L32.1009 49.0144C38.0902 51.1404 44.1181 52.2035 50.1421 52.2035C56.1661 52.2035 62.1939 51.1404 68.1716 49.0144L68.7228 48.8189L67.6205 45.7627L67.0809 45.9542L67.0848 45.9503Z" fill="white"/>
<path d="M67.0848 55.3409C55.8115 59.3351 44.4071 59.3351 33.184 55.3409L32.6444 55.1494L31.5498 58.2096L32.1009 58.405C38.0902 60.5311 44.1181 61.5941 50.1421 61.5941C56.1661 61.5941 62.1901 60.5311 68.1678 58.405L68.7189 58.2096L67.6205 55.1533L67.0809 55.3448L67.0848 55.3409Z" fill="white"/>
</g>
<defs>
<clipPath id="clip0_35_918">
<rect width="67" height="46" fill="white" transform="translate(16.6348 29.1328)"/>
</clipPath>
</defs>
</svg>
