<svg width="68" height="55" viewBox="0 0 68 55" fill="none" xmlns="http://www.w3.org/2000/svg">
<g id="icon-inbox">
<path id="Vector (Stroke)" fill-rule="evenodd" clip-rule="evenodd" d="M0 27.499C0 26.1183 1.11929 24.999 2.5 24.999H21.25C22.0859 24.999 22.8665 25.4168 23.3301 26.1123L28.838 34.374H38.662L44.1699 26.1123C44.6335 25.4168 45.4141 24.999 46.25 24.999H65C66.3807 24.999 67.5 26.1183 67.5 27.499C67.5 28.8797 66.3807 29.999 65 29.999H47.588L42.0801 38.2608C41.6165 38.9563 40.8359 39.374 40 39.374H27.5C26.6641 39.374 25.8835 38.9563 25.4199 38.2608L19.912 29.999H2.5C1.11929 29.999 0 28.8797 0 27.499Z" fill="#35255A"/>
<path id="Vector (Stroke)_2" fill-rule="evenodd" clip-rule="evenodd" d="M18.8737 2.38419e-07L48.6263 0C50.2542 0.000864267 51.8496 0.455824 53.233 1.31372C54.6152 2.17081 55.7311 3.39612 56.4555 4.85209C56.4562 4.85348 56.4569 4.85486 56.4576 4.85625L67.2354 26.3807C67.4094 26.7281 67.5 27.1114 67.5 27.5V46.25C67.5 48.5706 66.5781 50.7962 64.9372 52.4372C63.2962 54.0781 61.0707 55 58.75 55H8.75C6.42935 55 4.20376 54.0781 2.56282 52.4372C0.921872 50.7962 0 48.5706 0 46.25V27.5C0 27.1114 0.090591 26.7281 0.264581 26.3807L11.0424 4.85625C11.043 4.85507 11.0436 4.8539 11.0442 4.85272C11.7686 3.39646 12.8847 2.17093 14.267 1.31372C15.6505 0.455824 17.2458 0.000864267 18.8737 2.38419e-07ZM13.2813 5.9688L15.5167 7.08808L5 28.0909V46.25C5 47.2446 5.39509 48.1984 6.09835 48.9016C6.80161 49.6049 7.75544 50 8.75 50H58.75C59.7446 50 60.6984 49.6049 61.4017 48.9016C62.1049 48.1984 62.5 47.2446 62.5 46.25V28.0909L51.9833 7.08808L51.9799 7.08125C51.6695 6.45647 51.1909 5.93069 50.598 5.56302C50.0052 5.19542 49.3216 5.00045 48.6241 5C48.6239 5 48.6242 5 48.6241 5H18.8763C18.8762 5 18.8765 5 18.8763 5C18.1788 5.00045 17.4948 5.19542 16.902 5.56302C16.3091 5.9307 15.8305 6.45648 15.5201 7.08125L13.2813 5.9688Z" fill="#35255A"/>
</g>
</svg>
