<svg width="100" height="100" viewBox="0 0 100 100" fill="none" xmlns="http://www.w3.org/2000/svg">
<circle cx="50" cy="50" r="50" fill="#477076"/>
<path d="M36.2709 75.2204L25.1217 64.0625C25.0823 63.523 25.0273 62.9834 25.0115 62.4399C24.8934 58.7495 25.6923 55.2284 27.0107 51.8098C28.762 47.2687 31.3634 43.2474 34.5354 39.5767C38.0773 35.4767 42.0797 31.9084 46.7354 29.116C51.0763 26.5166 55.7044 24.7285 60.789 24.3464C62.1035 24.248 63.4376 24.3701 64.7599 24.3937L75.9092 35.5515C75.9328 36.8237 76.0509 38.0998 75.9682 39.364C75.6731 43.8067 74.3074 47.954 72.1744 51.8255C67.562 60.191 61.0488 66.7132 52.7213 71.3803C48.8173 73.5662 44.6299 74.9762 40.1317 75.2795C38.8526 75.3661 37.5578 75.248 36.2709 75.2243V75.2204ZM68.235 34.5551C68.1405 34.4291 68.1051 34.366 68.054 34.3188C66.3381 32.6016 64.6301 30.8765 62.8985 29.1751C62.741 29.0215 62.4498 28.9348 62.2255 28.9388C59.4392 28.9703 56.7748 29.628 54.1892 30.6284C50.4977 32.0541 47.2077 34.1573 44.1616 36.6543C43.5359 37.1663 38.829 41.7862 38.77 41.8493C36.0545 44.8347 33.7601 48.1076 32.0718 51.7862C30.6668 54.8503 29.7538 58.0366 29.6475 61.4316C29.6357 61.8058 29.738 62.0775 30.0096 62.3454C31.6192 63.9326 33.2131 65.5395 34.8148 67.1425C34.9368 67.2646 35.0706 67.3788 35.2517 67.5442C35.2949 67.3788 35.3264 67.2803 35.3461 67.1779C36.1726 62.8377 37.9002 58.8637 40.2379 55.1418C42.9613 50.8133 46.3419 47.0599 50.2026 43.724C53.5753 40.8055 57.255 38.3755 61.3636 36.6268C63.5478 35.6973 65.8068 35.0041 68.2271 34.559L68.235 34.5551ZM71.3519 38.7811C69.9666 39.0332 68.6797 39.2735 67.3889 39.4979C66.9953 39.5649 66.7985 39.7618 66.6332 40.1478C65.9563 41.7193 65.2952 43.3065 64.4884 44.811C61.9539 49.5412 58.5419 53.5821 54.6103 57.2016C50.5213 60.9708 45.9837 64.0232 40.7574 65.9964C40.5646 66.0712 40.3363 66.3036 40.2969 66.5005C40.049 67.7333 39.8483 68.9739 39.6397 70.2145C39.6161 70.3484 39.6437 70.4902 39.6476 70.6478C39.9821 70.6202 40.2733 70.6084 40.5606 70.5729C45.4367 69.99 49.7657 68.0247 53.776 65.2874C57.4439 62.7825 60.6592 59.7696 63.5006 56.3549C66.3578 52.9205 68.6836 49.1789 70.1201 44.9213C70.7773 42.9796 71.222 40.9946 71.3519 38.7772V38.7811ZM60.4624 42.3219C53.0204 46.4928 47.2155 52.31 43.036 59.7577C50.4859 55.5987 56.2986 49.7893 60.4624 42.3219Z" fill="white"/>
</svg>
