<svg width="49" height="45" viewBox="0 0 49 45" fill="none" xmlns="http://www.w3.org/2000/svg">
<path id="icon-heart (Stroke)" fill-rule="evenodd" clip-rule="evenodd" d="M8.88182 1.09784C10.6273 0.373077 12.4986 0 14.3885 0C16.2785 0 18.1498 0.373077 19.8952 1.09784C21.6146 1.81177 23.1785 2.85313 24.5 4.16369C25.8215 2.85313 27.3854 1.81177 29.1048 1.09784C30.8502 0.373078 32.7215 0 34.6115 0C36.5014 0 38.3727 0.373077 40.1182 1.09784C41.863 1.82232 43.4476 2.88398 44.7814 4.22196C50.4992 9.94142 50.6034 19.3776 43.8718 26.2353L43.8556 26.2516L26.2513 43.8559C25.2841 44.8231 23.7159 44.8231 22.7487 43.8559L5.14439 26.2516L5.12822 26.2353C-1.60341 19.3776 -1.49916 9.94145 4.21861 4.22199C5.55236 2.88399 7.13703 1.82233 8.88182 1.09784ZM21.0474 7.71623C20.1744 6.84112 19.1373 6.14667 17.9957 5.67261C16.8523 5.19786 15.6265 4.95348 14.3885 4.95348C13.1506 4.95348 11.9247 5.19786 10.7814 5.67261C9.63807 6.14736 8.5997 6.84313 7.72584 7.72004L7.7228 7.72308C4.11369 11.3322 3.64504 17.6462 8.65544 22.7574L24.5 38.6019L40.3445 22.7574C45.355 17.6462 44.8863 11.3322 41.2772 7.72308L41.2742 7.72004C40.4003 6.84313 39.3619 6.14736 38.2186 5.67261C37.0753 5.19786 35.8494 4.95348 34.6115 4.95348C33.3735 4.95348 32.1477 5.19786 31.0043 5.67261C29.8627 6.14665 28.8258 6.84105 27.9527 7.71609C27.9514 7.71741 27.9501 7.71872 27.9488 7.72004L26.2626 9.42817C25.7972 9.89957 25.1624 10.1649 24.5 10.1649C23.8376 10.1649 23.2028 9.89957 22.7374 9.42816L21.0512 7.72004C21.05 7.71877 21.0487 7.7175 21.0474 7.71623Z" fill="#CC4194"/>
</svg>
