<svg width="61" height="70" viewBox="0 0 61 70" fill="none" xmlns="http://www.w3.org/2000/svg">
<path id="icon-male" d="M30.6085 63.3784C30.0291 63.8007 26.8422 66.0219 25.9034 66.7482C25.0036 67.4463 24.0063 68.0769 22.8725 67.787C22.0257 67.5702 21.0785 67.1226 20.5241 66.4723C18.3401 63.9021 16.2898 61.2164 14.2033 58.5645C13.9637 58.2605 13.8021 57.9002 13.5486 57.4723C11.0359 58.2577 8.48693 58.9361 6.0299 59.868C4.44202 60.4704 3.62023 66.2049 3.62023 67.9531C3.62023 71.0188 0.399902 70.2981 0.399902 68.0403C0.399902 63.8261 2.258 57.5314 6.25276 56.3096C9.14993 55.4228 12.0471 54.5276 14.9582 53.6887C15.7299 53.4663 16.2508 53.0806 16.6854 52.405C17.3651 51.3521 17.8248 50.0093 19.3291 49.9192C19.655 48.4356 19.2511 47.4503 18.081 46.4312C14.5487 43.3486 12.5513 39.3568 11.9329 34.6583C11.88 34.2585 11.5317 33.7434 11.1807 33.5604C7.80163 31.8065 6.99655 27.8484 9.42572 24.901C9.70708 24.5575 9.85473 24.0057 9.86587 23.5497C9.92437 20.4868 9.77394 17.4098 9.98009 14.3582C10.554 5.97752 16.73 0.150154 25.0593 0.0403629C29.9121 -0.0215704 34.7677 -0.00467952 39.6204 0.0403629C43.1054 0.0713296 45.6042 1.65626 46.8968 5.01755C47.0194 5.33285 47.2227 5.61436 47.4846 5.8255C49.9973 7.84115 51.1534 10.4818 51.1451 13.6854C51.1367 16.9876 51.1256 20.2897 51.1646 23.5919C51.1701 24.017 51.3874 24.642 51.6604 24.9685C53.9977 27.7696 53.2121 31.8797 49.95 33.4618C49.3427 33.7546 49.1087 34.1009 49.0363 34.7343C48.4903 39.4497 46.4288 43.4134 42.8853 46.4819C41.7237 47.4869 41.4395 48.4807 41.7265 49.9192C43.1862 50.0206 43.6514 51.3071 44.3088 52.3402C44.7601 53.0468 45.2894 53.4635 46.1084 53.6971C49.1923 54.5783 52.2649 55.5101 55.3209 56.4898C58.5496 57.5257 60.6027 63.7303 60.5999 66.827C60.5999 67.9108 60.0873 68.5668 59.1847 68.6484C58.2543 68.73 57.5356 68.2064 57.4492 67.1451C57.2486 64.6959 55.8558 59.944 53.63 59.3359C51.5685 58.7729 49.5349 58.1169 47.6378 57.5455C45.1641 60.6562 42.7962 63.7135 40.3336 66.6947C39.2304 68.0319 37.5813 68.2402 36.0714 67.3365C35.063 66.7341 34.152 65.9684 33.1937 65.2787C32.8873 65.0591 31.071 63.705 30.6085 63.3784ZM13.0639 23.1133C13.8328 23.1133 14.3676 23.0711 14.8969 23.1218C15.6435 23.1922 15.9694 22.936 16.092 22.1449C16.3427 20.5459 16.6993 18.9638 17.042 17.3817C17.6075 14.772 19.2678 13.6995 21.8334 14.3188C28.2852 15.8784 34.6841 15.8531 41.0217 13.722C42.2279 13.3166 43.1221 13.677 43.4146 14.6144C43.7183 15.5828 43.2308 16.3429 42.0301 16.7905C38.9909 17.925 35.8374 18.4402 32.6143 18.5809C28.7839 18.7499 24.9841 18.5472 21.2651 17.514C20.552 17.3169 20.2205 17.4887 20.1063 18.2572C19.9363 19.3945 19.6271 20.5121 19.4656 21.6523C18.9335 25.3824 17.6771 26.6098 13.8495 26.362C13.7771 26.3564 13.7074 26.362 13.635 26.362C12.27 26.3958 11.3507 27.1643 11.2615 28.3467C11.1668 29.591 11.8633 30.4412 13.2227 30.734C14.6211 31.038 14.9053 31.3674 15.0195 32.8397C15.0474 33.2 15.0752 33.5576 15.1114 33.9179C15.9388 42.2423 22.814 48.2667 31.2158 48.0302C39.0856 47.8107 45.6516 41.1528 45.997 33.048C46.0694 31.3786 46.3229 31.0521 47.9192 30.7227C48.8468 30.5313 49.4458 30.0274 49.7021 29.0899C49.9639 28.1271 49.6519 27.3614 48.8942 26.8153C48.142 26.2719 47.908 25.5879 47.9164 24.6842C47.947 21.0414 47.9108 17.3986 47.9359 13.7586C47.9526 11.4276 47.0807 9.5978 45.2198 8.18741C44.6905 7.78484 44.2253 7.14299 44.0052 6.5124C43.2586 4.37007 41.9855 3.30312 39.7319 3.29186C34.7732 3.26371 29.8118 3.22148 24.8532 3.30312C19.6438 3.38758 15.3482 6.49832 13.7687 11.3066C12.5123 15.1324 13.3313 19.0933 13.0639 23.119V23.1133ZM30.5166 59.105C32.7062 57.2611 34.7816 55.3243 37.0575 53.6634C38.573 52.557 38.534 51.2508 38.3056 49.6011C33.0851 51.9011 27.898 51.8335 22.6385 49.5898C22.6385 50.3865 22.5856 51.003 22.658 51.6027C22.7082 52.0249 22.8112 52.5683 23.0982 52.816C25.5301 54.9302 28.0067 56.988 30.5194 59.105H30.5166ZM17.301 57.2836C19.1591 59.6371 20.9476 61.9202 22.7667 64.1751C22.9171 64.3609 23.399 64.5298 23.5327 64.4341C24.9953 63.3869 26.4188 62.2834 27.9175 61.146C25.0426 58.725 22.2903 56.4081 19.4628 54.0237C18.7218 55.1413 18.0337 56.1801 17.2982 57.2836H17.301ZM37.8348 64.7325C39.8349 62.2102 41.7822 59.7553 43.7378 57.2893C43.0023 56.1773 42.3143 55.1413 41.5732 54.0209C38.729 56.4166 35.9572 58.7532 33.1157 61.1517C34.6841 62.3425 36.1605 63.4601 37.8376 64.7325H37.8348Z" fill="#477076"/>
</svg>
