<svg width="54" height="70" viewBox="0 0 54 70" fill="none" xmlns="http://www.w3.org/2000/svg">
<path id="icon-female" d="M0.399902 63.574C0.638635 62.6737 0.810745 61.751 1.12443 60.8784C2.6179 56.7239 5.47992 53.9477 9.65497 52.5332C12.1478 51.6884 14.6462 50.8547 17.1473 50.0349C17.9551 49.7709 18.563 49.3568 18.7463 48.2897H17.572C14.2409 48.2897 10.9097 48.2925 7.57855 48.2897C5.89909 48.2869 5.40497 47.7923 5.40497 46.1193C5.40497 38.0242 5.38554 29.929 5.40774 21.8339C5.4355 10.9181 13.0639 1.99202 23.8068 0.26072C35.3576 -1.60119 46.6447 6.72461 48.3047 18.3602C48.4796 19.594 48.5601 20.8501 48.5629 22.0951C48.5851 30.0513 48.5768 38.0075 48.574 45.9637C48.574 47.8784 48.1604 48.2869 46.2477 48.2869C42.986 48.2869 39.7242 48.2869 36.4625 48.2869C36.0933 48.2869 35.7241 48.2869 35.316 48.2869C35.3687 49.3985 36.0405 49.757 36.8344 50.021C39.4966 50.9103 42.1921 51.7106 44.8042 52.7222C50.2174 54.8175 53.146 58.8276 53.543 64.6356C53.6263 65.8472 53.6013 67.0672 53.5735 68.2816C53.5485 69.3321 52.8906 70.0101 52.0106 69.999C51.1307 69.9879 50.5255 69.3071 50.47 68.2483C50.3756 66.4836 50.5005 64.6773 50.1618 62.9627C49.4651 59.4334 47.2526 57.0462 43.9354 55.7068C42.9083 55.2927 41.7312 54.5479 40.818 54.7675C39.9685 54.9703 39.3606 56.2431 38.6777 57.0685C35.6602 60.7173 32.0515 63.6741 28.1068 66.2502C27.3517 66.7449 26.6411 66.7504 25.8833 66.2502C21.2779 63.2044 17.0446 59.7557 13.9022 55.1343C13.5996 54.6897 13.3359 54.5452 12.8001 54.7647C11.9701 55.1065 11.0929 55.3288 10.2462 55.6373C6.18224 57.1129 3.57561 60.7895 3.52286 65.1164C3.51176 66.0195 3.50343 66.9227 3.52286 67.8259C3.54229 68.7068 3.45069 69.5099 2.48743 69.8823C1.51029 70.263 0.941215 69.6544 0.399902 68.993C0.399902 67.1867 0.399902 65.3804 0.399902 63.574ZM19.0211 45.0939C18.6408 44.4853 18.4742 43.9656 18.1189 43.6905C15.3013 41.509 13.372 38.73 12.5309 35.2674C11.7758 32.1605 11.9646 28.9814 12.2005 25.8328C12.3976 23.2039 14.2742 21.3476 15.6066 19.2578C16.1757 18.3657 17.0835 18.1906 17.8441 18.6936C18.6019 19.1966 18.749 20.0804 18.1772 20.9863C17.5276 22.0117 16.7476 22.9677 16.1979 24.0404C15.7371 24.9436 15.3318 25.9579 15.243 26.9527C15.0931 28.6757 15.1514 30.4237 15.2236 32.1578C15.4762 38.2715 20.187 42.9985 26.444 43.4654C32.0986 43.8878 37.5229 39.6749 38.5111 33.8641C38.8692 31.7632 38.6749 29.5733 38.7832 27.428C38.8276 26.5498 38.5666 25.8162 37.8865 25.3243C36.3459 24.2099 34.8663 22.9288 33.1674 22.1396C28.9007 20.1582 24.5286 18.3991 20.1898 16.5761C19.0238 16.087 18.5408 15.4006 18.8545 14.4918C19.1821 13.5498 20.0371 13.1468 21.153 13.6109C25.5973 15.4506 30.0777 17.2236 34.4249 19.2745C36.4319 20.2221 38.2252 21.6727 40.0018 23.0455C41.3815 24.1126 42.0283 25.6216 41.9145 27.4446C41.8284 28.8286 41.9977 30.2319 41.87 31.6103C41.7146 33.2555 41.5369 34.9367 41.0622 36.5096C40.1656 39.4859 38.2863 41.8286 35.8295 43.7238C35.5325 43.9545 35.4298 44.438 35.2383 44.8049C35.5936 44.9244 35.9461 45.1411 36.3015 45.1439C38.9719 45.1717 41.6452 45.1606 44.3157 45.1606H45.4594C45.4594 44.6993 45.4594 44.363 45.4594 44.024C45.4594 36.6958 45.4705 29.3649 45.4455 22.0367C45.4399 20.8279 45.3511 19.6051 45.1623 18.4102C43.6078 8.57819 33.5949 1.55294 23.8485 3.43431C14.6739 5.20729 8.53903 12.6438 8.52793 22.0173C8.5196 29.3454 8.52793 36.6764 8.52793 44.0045C8.52793 44.3463 8.52793 44.6854 8.52793 45.0911H19.0238L19.0211 45.0939ZM16.6199 53.4252C16.7337 53.6948 16.7559 53.7976 16.8142 53.8754C19.4708 57.552 22.888 60.4088 26.5995 62.9404C26.8077 63.0822 27.3268 62.9932 27.5766 62.8237C30.4858 60.8562 33.1646 58.6108 35.5048 55.9819C36.1627 55.2427 36.7456 54.4423 37.4757 53.5281C35.6491 52.9528 33.742 52.5915 32.9981 50.8964C32.3207 49.3485 32.1458 47.5783 31.7711 46.0054C30.2415 46.1971 28.5676 46.5723 26.8965 46.5667C25.2392 46.5584 23.5848 46.1638 21.7915 45.922C22.4244 49.9849 20.9226 52.6582 16.6171 53.428L16.6199 53.4252Z" fill="#477076"/>
</svg>
