<svg width="59" height="59" viewBox="0 0 59 59" fill="none" xmlns="http://www.w3.org/2000/svg">
<path fill-rule="evenodd" clip-rule="evenodd" d="M0 3C0 1.34315 1.34315 0 3 0H56C57.6569 0 59 1.34315 59 3V56C59 57.6569 57.6569 59 56 59H3C1.34315 59 0 57.6569 0 56V3ZM6 6V53H53V6H6Z" fill="#35255A"/>
<path fill-rule="evenodd" clip-rule="evenodd" d="M42.5 12.25C44.1569 12.25 45.5 13.5931 45.5 15.25V41.75C45.5 43.4069 44.1569 44.75 42.5 44.75C40.8431 44.75 39.5 43.4069 39.5 41.75V15.25C39.5 13.5931 40.8431 12.25 42.5 12.25ZM29.25 22.1875C30.9069 22.1875 32.25 23.5306 32.25 25.1875V41.75C32.25 43.4069 30.9069 44.75 29.25 44.75C27.5931 44.75 26.25 43.4069 26.25 41.75V25.1875C26.25 23.5306 27.5931 22.1875 29.25 22.1875ZM16 32.125C17.6569 32.125 19 33.4681 19 35.125V41.75C19 43.4069 17.6569 44.75 16 44.75C14.3431 44.75 13 43.4069 13 41.75V35.125C13 33.4681 14.3431 32.125 16 32.125Z" fill="#CC4194"/>
</svg>
