<svg width="45" height="62" viewBox="0 0 45 62" fill="none" xmlns="http://www.w3.org/2000/svg">
<g id="icon-person">
<path id="Vector (Stroke)" fill-rule="evenodd" clip-rule="evenodd" d="M22.5 4.9899C20.3133 4.9899 18.5406 6.74921 18.5406 8.91944C18.5406 11.0897 20.3133 12.849 22.5 12.849C24.6867 12.849 26.4594 11.0897 26.4594 8.91944C26.4594 6.74921 24.6867 4.9899 22.5 4.9899ZM13.5128 8.91944C13.5128 3.99337 17.5365 0 22.5 0C27.4635 0 31.4872 3.99337 31.4872 8.91944C31.4872 13.8455 27.4635 17.8389 22.5 17.8389C17.5365 17.8389 13.5128 13.8455 13.5128 8.91944Z" fill="#CC4194"/>
<path id="Vector (Stroke)_2" fill-rule="evenodd" clip-rule="evenodd" d="M22.5 37.1748C23.4522 37.1748 24.3227 37.7087 24.7485 38.554L34.7412 58.3888C35.3621 59.6213 34.8588 61.1199 33.617 61.7361C32.3752 62.3524 30.8651 61.8528 30.2442 60.6204L22.5 45.2486L14.7558 60.6204C14.1349 61.8528 12.6248 62.3524 11.383 61.7361C10.1412 61.1199 9.63789 59.6213 10.2588 58.3888L20.2515 38.554C20.6773 37.7087 21.5478 37.1748 22.5 37.1748Z" fill="#CC4194"/>
<path id="Vector (Stroke)_3" fill-rule="evenodd" clip-rule="evenodd" d="M0.129687 19.046C0.568732 17.7388 1.9924 17.0323 3.30953 17.4681L22.5 23.8167L41.6905 17.4681C43.0076 17.0323 44.4313 17.7388 44.8703 19.046C45.3094 20.3532 44.5975 21.7662 43.2804 22.2019L23.295 28.8135C22.7789 28.9842 22.2211 28.9842 21.705 28.8135L1.71961 22.2019C0.402474 21.7662 -0.309359 20.3532 0.129687 19.046Z" fill="#CC4194"/>
<path id="Vector (Stroke)_4" fill-rule="evenodd" clip-rule="evenodd" d="M22.5 23.9517C23.8884 23.9517 25.0139 25.0687 25.0139 26.4466V39.6698C25.0139 41.0478 23.8884 42.1648 22.5 42.1648C21.1116 42.1648 19.9861 41.0478 19.9861 39.6698V26.4466C19.9861 25.0687 21.1116 23.9517 22.5 23.9517Z" fill="#CC4194"/>
</g>
</svg>
