<svg width="54" height="60" viewBox="0 0 54 60" fill="none" xmlns="http://www.w3.org/2000/svg">
<path fill-rule="evenodd" clip-rule="evenodd" d="M15.5578 32.8788C16.2522 31.6761 17.7811 31.2693 18.9727 31.9701L37.5677 42.9067C38.7594 43.6075 39.1625 45.1507 38.4681 46.3534C37.7737 47.5562 36.2448 47.963 35.0531 47.2621L16.4581 36.3256C15.2665 35.6247 14.8634 34.0816 15.5578 32.8788Z" fill="#CC4194"/>
<path fill-rule="evenodd" clip-rule="evenodd" d="M38.4401 13.6426C39.1352 14.8449 38.7331 16.3883 37.5419 17.0899L18.9741 28.0265C17.7829 28.7281 16.2537 28.3222 15.5586 27.12C14.8634 25.9177 15.2656 24.3743 16.4567 23.6726L35.0245 12.7361C36.2157 12.0345 37.7449 12.4403 38.4401 13.6426Z" fill="#CC4194"/>
<path fill-rule="evenodd" clip-rule="evenodd" d="M43.3348 5.04099C40.2032 5.04099 37.6644 7.60333 37.6644 10.7641C37.6644 13.9249 40.2032 16.4873 43.3348 16.4873C46.4665 16.4873 49.0052 13.9249 49.0052 10.7641C49.0052 7.60333 46.4665 5.04099 43.3348 5.04099ZM32.6699 10.7641C32.6699 4.81927 37.4448 0 43.3348 0C49.2249 0 53.9997 4.81927 53.9997 10.7641C53.9997 16.709 49.2249 21.5283 43.3348 21.5283C37.4448 21.5283 32.6699 16.709 32.6699 10.7641Z" fill="#35255A"/>
<path fill-rule="evenodd" clip-rule="evenodd" d="M10.6649 24.2758C7.53323 24.2758 4.99451 26.8382 4.99451 29.999C4.99451 33.1598 7.53323 35.7221 10.6649 35.7221C13.7966 35.7221 16.3353 33.1598 16.3353 29.999C16.3353 26.8382 13.7966 24.2758 10.6649 24.2758ZM0 29.999C0 24.0541 4.77484 19.2349 10.6649 19.2349C16.555 19.2349 21.3298 24.0541 21.3298 29.999C21.3298 35.9439 16.555 40.7631 10.6649 40.7631C4.77484 40.7631 0 35.9439 0 29.999Z" fill="#35255A"/>
<path fill-rule="evenodd" clip-rule="evenodd" d="M43.3348 43.5127C40.2032 43.5127 37.6644 46.075 37.6644 49.2358C37.6644 52.3966 40.2032 54.959 43.3348 54.959C46.4665 54.959 49.0052 52.3966 49.0052 49.2358C49.0052 46.075 46.4665 43.5127 43.3348 43.5127ZM32.6699 49.2358C32.6699 43.2909 37.4448 38.4717 43.3348 38.4717C49.2249 38.4717 53.9997 43.2909 53.9997 49.2358C53.9997 55.1807 49.2249 59.9999 43.3348 59.9999C37.4448 59.9999 32.6699 55.1807 32.6699 49.2358Z" fill="#35255A"/>
</svg>
