<svg width="44" height="56" viewBox="0 0 44 56" fill="none" xmlns="http://www.w3.org/2000/svg">
<g id="icon-person-b">
<path id="Vector (Stroke)" fill-rule="evenodd" clip-rule="evenodd" d="M21.7769 6C21.7015 6 21.6475 6.05994 21.6475 6.1251C21.6475 6.19026 21.7015 6.2502 21.7769 6.2502C21.8523 6.2502 21.9064 6.19026 21.9064 6.1251C21.9064 6.05994 21.8523 6 21.7769 6ZM15.6475 6.1251C15.6475 2.73837 18.3956 0 21.7769 0C25.1582 0 27.9064 2.73837 27.9064 6.1251C27.9064 9.51183 25.1582 12.2502 21.7769 12.2502C18.3956 12.2502 15.6475 9.51183 15.6475 6.1251Z" fill="#35255A"/>
<path id="Vector (Stroke)_2" fill-rule="evenodd" clip-rule="evenodd" d="M21.7777 31.249C22.9134 31.249 23.9517 31.8904 24.4602 32.9059L33.8486 51.6565C34.5903 53.138 33.9907 54.9404 32.5092 55.6822C31.0276 56.424 29.2253 55.8243 28.4835 54.3428L21.7777 40.9498L15.0719 54.3428C14.3301 55.8243 12.5277 56.424 11.0462 55.6822C9.56467 54.9404 8.965 53.138 9.70679 51.6565L19.0951 32.9059C19.6036 31.8904 20.642 31.249 21.7777 31.249Z" fill="#35255A"/>
<path id="Vector (Stroke)_3" fill-rule="evenodd" clip-rule="evenodd" d="M0.154369 14.5543C0.677657 12.9822 2.37626 12.1321 3.94831 12.6553L21.7775 18.5902L39.6067 12.6553C41.1787 12.1321 42.8774 12.9822 43.4006 14.5543C43.9239 16.1263 43.0737 17.8249 41.5017 18.3482L22.725 24.5984C22.1099 24.8032 21.4451 24.8032 20.83 24.5984L2.05332 18.3482C0.481269 17.8249 -0.36892 16.1263 0.154369 14.5543Z" fill="#35255A"/>
<path id="Vector (Stroke)_4" fill-rule="evenodd" clip-rule="evenodd" d="M21.7778 18.751C23.4347 18.751 24.7778 20.0941 24.7778 21.751V34.2514C24.7778 35.9082 23.4347 37.2514 21.7778 37.2514C20.121 37.2514 18.7778 35.9082 18.7778 34.2514V21.751C18.7778 20.0941 20.121 18.751 21.7778 18.751Z" fill="#35255A"/>
</g>
</svg>
