<svg width="50" height="38" viewBox="0 0 50 38" fill="none" xmlns="http://www.w3.org/2000/svg">
<g id="icon-megaphone">
<path id="Vector (Stroke)" fill-rule="evenodd" clip-rule="evenodd" d="M10.1651 23.3843C11.4961 23.7562 12.2775 25.1505 11.9103 26.4985C11.7349 27.1423 11.6865 27.8147 11.7678 28.4774C11.849 29.1401 12.0583 29.7801 12.3838 30.3609C12.7092 30.9417 13.1444 31.4518 13.6646 31.8623C14.1847 32.2727 14.7795 32.5753 15.4151 32.7529C16.0507 32.9305 16.7146 32.9795 17.3689 32.8973C18.0233 32.815 18.6552 32.603 19.2286 32.2733C19.802 31.9437 20.3057 31.5029 20.7109 30.9761C21.1162 30.4493 21.415 29.8469 21.5903 29.2031C21.9575 27.8551 23.3341 27.0637 24.6651 27.4356C25.9961 27.8075 26.7775 29.2018 26.4103 30.5498C26.0603 31.8347 25.4639 33.0371 24.6552 34.0885C23.8464 35.1399 22.8411 36.0196 21.6966 36.6775C20.5522 37.3354 19.291 37.7586 17.985 37.9228C16.6791 38.087 15.354 37.9891 14.0855 37.6347C12.8169 37.2802 11.6297 36.6762 10.5916 35.8571C9.55352 35.0379 8.6849 34.0197 8.03534 32.8606C7.38578 31.7014 6.968 30.4241 6.80585 29.1014C6.64371 27.7787 6.74037 26.4367 7.09032 25.1518C7.45749 23.8038 8.83412 23.0124 10.1651 23.3843Z" fill="#8D7C73"/>
<path id="Vector (Stroke)_2" fill-rule="evenodd" clip-rule="evenodd" d="M49.0128 0.516235C49.6348 0.995049 50 1.74082 50 2.53208V32.9168C50 33.6848 49.6558 34.4113 49.0643 34.8919C48.4728 35.3725 47.6979 35.5552 46.9577 35.3886L1.95767 25.2603C0.81383 25.0029 0 23.9753 0 22.7886V15.1924C0 14.055 0.748841 13.0571 1.83089 12.7527L46.8309 0.0923969C47.5836 -0.119379 48.3908 0.0374208 49.0128 0.516235ZM5 17.117V20.7574L45 29.7603V5.86336L5 17.117Z" fill="#CC4194"/>
</g>
</svg>
