<svg width="54" height="54" viewBox="0 0 54 54" fill="none" xmlns="http://www.w3.org/2000/svg">
<path fill-rule="evenodd" clip-rule="evenodd" d="M18.5095 18.5065C19.1483 17.8678 20.1094 17.6776 20.9433 18.0251L52.6288 31.2274C53.4849 31.5841 54.0308 32.4336 53.9995 33.3605C53.9681 34.2874 53.3662 35.0981 52.488 35.3963L39.73 39.727L35.3992 52.4851C35.1011 53.3633 34.2904 53.9652 33.3634 53.9965C32.4365 54.0278 31.587 53.482 31.2303 52.6259L18.028 20.9404C17.6805 20.1065 17.8707 19.1453 18.5095 18.5065ZM24.226 24.2231L33.0751 45.4608L35.8613 37.2528C36.0841 36.5965 36.5994 36.0812 37.2557 35.8584L45.4637 33.0721L24.226 24.2231Z" fill="#35255A"/>
<path fill-rule="evenodd" clip-rule="evenodd" d="M37.1783 37.1769C38.049 36.3063 39.4605 36.3063 40.3311 37.1769L51.5346 48.3804C52.4052 49.251 52.4052 50.6625 51.5346 51.5331C50.664 52.4037 49.2524 52.4037 48.3818 51.5331L37.1783 40.3296C36.3077 39.459 36.3077 38.0475 37.1783 37.1769Z" fill="#35255A"/>
<path fill-rule="evenodd" clip-rule="evenodd" d="M14.7227 0.076656C15.9119 -0.242297 17.1345 0.463176 17.4534 1.65237L19.5051 9.30179C19.824 10.491 19.1185 11.7136 17.9293 12.0325C16.7401 12.3515 15.5175 11.646 15.1986 10.4568L13.1469 2.8074C12.828 1.61821 13.5335 0.395609 14.7227 0.076656ZM34.7314 5.43539C35.602 6.306 35.602 7.71754 34.7314 8.58814L29.1283 14.1912C28.2577 15.0618 26.8462 15.0618 25.9755 14.1912C25.1049 13.3206 25.1049 11.9091 25.9755 11.0385L31.5786 5.43539C32.4492 4.56478 33.8608 4.56478 34.7314 5.43539ZM0.0766058 14.7202C0.395456 13.531 1.61799 12.8254 2.80722 13.1443L10.4593 15.1959C11.6485 15.5147 12.3541 16.7373 12.0352 17.9265C11.7164 19.1157 10.4938 19.8213 9.30462 19.5025L1.65256 17.4508C0.463335 17.132 -0.242244 15.9094 0.0766058 14.7202ZM14.1905 25.9722C15.0615 26.8424 15.0621 28.2539 14.1919 29.1249L8.59417 34.728C7.72397 35.599 6.31243 35.5997 5.44141 34.7295C4.57039 33.8593 4.56973 32.4477 5.43993 31.5767L11.0377 25.9736C11.9079 25.1026 13.3194 25.102 14.1905 25.9722Z" fill="#AB9B32"/>
</svg>
