<svg width="100" height="100" viewBox="0 0 100 100" fill="none" xmlns="http://www.w3.org/2000/svg">
<circle cx="50" cy="50" r="50" fill="#901E80"/>
<path d="M41.2599 37.8043C41.733 38.8115 42 39.9352 42 41.119C42 45.471 38.4177 49 34 49C29.5823 49 26 45.471 26 41.119C26 39.4203 26.3891 38.8754 27.3848 37" stroke="white" stroke-width="3" stroke-miterlimit="10"/>
<path d="M27 38L33.9981 24L41 38" stroke="white" stroke-width="3" stroke-linecap="round" stroke-linejoin="round"/>
<path d="M34.971 58.1487L29.6526 56.158C29.6526 56.158 26.2897 52.813 24.7045 52.3172C23.1231 51.8214 21.5379 52.3172 21.5379 52.3172C21.5379 52.3172 19.9046 50.0009 17.975 50.752C16.6602 51.2626 16.6899 54.4633 17.975 56.158C19.0046 57.5123 22.3157 62.2152 23.5971 64.0394C23.9305 64.5168 24.4045 64.8794 24.9527 65.0792L41.2561 71.0735C44.1746 72.1466 47.3523 72.2946 50.3522 71.4806C51.2967 71.2252 52.3485 70.9033 53.4855 70.5037C58.5447 68.7239 62.7965 67.4399 68.6371 70.1078L72 55.2811C72 55.2811 65.5705 54.2931 64.5779 53.6012C63.589 52.9092 56.8595 48.1989 50.43 50.752C44.0005 53.3051 39.3487 55.8768 36.6784 56.3689C34.0081 56.8647 34.1044 63.5843 39.645 62.1005C45.1857 60.6168 53.4855 58.0488 53.4855 58.0488" stroke="white" stroke-width="3" stroke-linecap="round" stroke-linejoin="round"/>
<path d="M72.7265 54L69 71.9017L79.1696 76L84 54H72.7265Z" stroke="white" stroke-width="3" stroke-linecap="round" stroke-linejoin="round"/>
</svg>
