<svg width="23" height="23" viewBox="0 0 23 23" fill="none" xmlns="http://www.w3.org/2000/svg">
<g id="icon-leaf">
<path id="Vector" d="M10.9477 20.8945C9.00695 20.9004 7.13487 20.1766 5.70276 18.8668C4.27065 17.557 3.38311 15.7568 3.21619 13.8232C3.04926 11.8897 3.61513 9.96398 4.80157 8.4281C5.98801 6.89222 7.70836 5.85835 9.6214 5.53153C15.9213 4.31575 17.5792 3.74102 19.7897 1C20.895 3.2105 22.0002 5.61995 22.0002 9.842C22.0002 15.9209 16.7171 20.8945 10.9477 20.8945Z" stroke="#35255A" stroke-width="2" stroke-linecap="round" stroke-linejoin="round"/>
<path id="Vector_2" d="M1 22C1 18.6842 3.04471 16.0758 6.61467 15.3685C9.28938 14.838 12.0525 13.158 13.1578 12.0527" stroke="#35255A" stroke-width="2" stroke-linecap="round" stroke-linejoin="round"/>
</g>
</svg>
