<svg width="32" height="24" viewBox="0 0 32 24" fill="none" xmlns="http://www.w3.org/2000/svg">
<path fill-rule="evenodd" clip-rule="evenodd" d="M26.016 15.5053C26.1704 14.9077 26.78 14.5484 27.3777 14.7028C28.6545 15.0327 29.7856 15.7775 30.5934 16.8202C31.4012 17.8629 31.84 19.1443 31.8409 20.4634L31.8409 22.8825C31.8409 23.4998 31.3406 24.0002 30.7233 24.0002C30.106 24.0002 29.6057 23.4998 29.6057 22.8825L29.6057 20.4651C29.6057 20.465 29.6057 20.4652 29.6057 20.4651C29.605 19.641 29.3308 18.8403 28.8264 18.1892C28.3219 17.5379 27.6156 17.0729 26.8185 16.867C26.2209 16.7126 25.8616 16.103 26.016 15.5053Z" fill="#35255A"/>
<path fill-rule="evenodd" clip-rule="evenodd" d="M21.182 0.997758C21.3352 0.399815 21.9441 0.0392715 22.542 0.192463C23.8223 0.520463 24.9569 1.26546 25.7671 2.30985C26.5773 3.35423 27.0169 4.63862 27.0169 5.96053C27.0169 7.28243 26.5773 8.56682 25.7671 9.6112C24.9569 10.6556 23.8223 11.4006 22.542 11.7286C21.9441 11.8818 21.3352 11.5212 21.182 10.9233C21.0288 10.3254 21.3893 9.71644 21.9873 9.56324C22.7864 9.3585 23.4949 8.8934 24.0009 8.24111C24.5069 7.58881 24.7817 6.78645 24.7817 5.96053C24.7817 5.1346 24.5069 4.33224 24.0009 3.67994C23.4949 3.02766 22.7864 2.56255 21.9873 2.35781C21.3893 2.20462 21.0288 1.5957 21.182 0.997758Z" fill="#35255A"/>
<path fill-rule="evenodd" clip-rule="evenodd" d="M1.74283 16.2539C2.85885 15.1372 4.37264 14.5098 5.95123 14.5098H15.6184C17.197 14.5098 18.7108 15.1372 19.8268 16.2539C20.9428 17.3706 21.5696 18.885 21.5696 20.4639V22.8822C21.5696 23.4995 21.0692 23.9998 20.452 23.9998C19.8347 23.9998 19.3344 23.4995 19.3344 22.8822V20.4639C19.3344 19.4774 18.9427 18.5314 18.2457 17.834C17.5488 17.1367 16.6037 16.745 15.6184 16.745H5.95123C4.96592 16.745 4.02082 17.1367 3.3239 17.834C2.62694 18.5314 2.23528 19.4774 2.23528 20.4639V22.8822C2.23528 23.4995 1.73489 23.9998 1.11764 23.9998C0.500384 23.9998 0 23.4995 0 22.8822V20.4639C0 18.885 0.626837 17.3706 1.74283 16.2539Z" fill="#35255A"/>
<path fill-rule="evenodd" clip-rule="evenodd" d="M10.7846 2.23528C8.73301 2.23528 7.06868 3.89964 7.06868 5.95417C7.06868 8.0087 8.73301 9.67307 10.7846 9.67307C12.8363 9.67307 14.5006 8.0087 14.5006 5.95417C14.5006 3.89964 12.8363 2.23528 10.7846 2.23528ZM4.8334 5.95417C4.8334 2.66642 7.49722 0 10.7846 0C14.072 0 16.7359 2.66642 16.7359 5.95417C16.7359 9.24193 14.072 11.9083 10.7846 11.9083C7.49722 11.9083 4.8334 9.24193 4.8334 5.95417Z" fill="#35255A"/>
</svg>
