<svg width="22" height="17" viewBox="0 0 22 17" fill="none" xmlns="http://www.w3.org/2000/svg">
<g id="icon-megaphone">
<path id="Vector" d="M10.4538 12.8721C10.3384 13.2908 10.1415 13.6826 9.87464 14.0251C9.60773 14.3677 9.27597 14.6544 8.89828 14.8687C8.5206 15.0831 8.10439 15.221 7.67343 15.2745C7.24246 15.328 6.80517 15.2961 6.38653 15.1806C5.96789 15.0651 5.5761 14.8683 5.23352 14.6014C4.89094 14.3345 4.60429 14.0027 4.38993 13.625C4.17557 13.2474 4.0377 12.8311 3.98418 12.4002C3.93067 11.9692 3.96257 11.5319 4.07806 11.1133" stroke="#35255A" stroke-width="2" stroke-linecap="round" stroke-linejoin="round"/>
<path id="Vector_2" d="M1 6.49636L20.7869 1V14.1913L1 9.79418V6.49636Z" stroke="#35255A" stroke-width="2" stroke-linecap="round" stroke-linejoin="round"/>
</g>
</svg>
