<svg width="18" height="23" viewBox="0 0 18 23" fill="none" xmlns="http://www.w3.org/2000/svg">
<g id="icon-location">
<path id="Vector" d="M17 9.20703C17 15.207 9 21.207 9 21.207C9 21.207 1 15.207 1 9.20703C1 7.0853 1.84285 5.05047 3.34315 3.55018C4.84344 2.04989 6.87827 1.20703 9 1.20703C11.1217 1.20703 13.1566 2.04989 14.6569 3.55018C16.1571 5.05047 17 7.0853 17 9.20703V9.20703Z" stroke="#35255A" stroke-width="2" stroke-linecap="round" stroke-linejoin="round"/>
<path id="Vector_2" d="M9 12.207C10.6569 12.207 12 10.8639 12 9.20703C12 7.55018 10.6569 6.20703 9 6.20703C7.34315 6.20703 6 7.55018 6 9.20703C6 10.8639 7.34315 12.207 9 12.207Z" stroke="#35255A" stroke-width="1.7" stroke-linecap="round" stroke-linejoin="round"/>
</g>
</svg>
