<svg width="43" height="57" viewBox="0 0 43 57" fill="none" xmlns="http://www.w3.org/2000/svg">
<path fill-rule="evenodd" clip-rule="evenodd" d="M21.53 1.98385e-06C22.3583 0.000938268 23.1519 0.333242 23.7343 0.923024L42.1027 19.5228C43.3086 20.7439 43.2976 22.7127 42.0783 23.9203C40.8589 25.1279 38.8928 25.1169 37.6869 23.8958L24.6316 10.6761V53.8905C24.6316 55.6078 23.2414 57 21.5264 57C19.8115 57 18.4213 55.6078 18.4213 53.8905V10.6518L11.9927 17.132L11.9878 17.137L5.31307 23.8958C4.10718 25.1169 2.14111 25.1279 0.921736 23.9203C-0.297643 22.7127 -0.308578 20.7439 0.897313 19.5228L7.58189 12.754L19.3235 0.918038C19.9073 0.329575 20.7016 -0.0009343 21.53 1.98385e-06Z" fill="#CC4194"/>
</svg>
