<svg width="74" height="52" viewBox="0 0 74 52" fill="none" xmlns="http://www.w3.org/2000/svg">
<path d="M37 52C28.49 52 13.32 51.2571 7.03 49.7714C4.44 49.0286 2.59 47.1714 1.85 44.5714C0.74 40.4857 0 31.9429 0 26C0 20.0571 0.74 11.5143 1.85 7.42857C2.59 4.82857 4.44 2.97143 7.03 2.22857C13.32 0.742857 28.49 0 37 0C45.51 0 60.68 0.742857 66.97 2.22857C69.56 2.97143 71.41 4.82857 72.15 7.42857C73.26 11.5143 74 20.0571 74 26C74 31.9429 73.26 40.4857 72.15 44.5714C71.41 47.1714 69.56 49.0286 66.97 49.7714C60.68 51.2571 45.51 52 37 52Z" fill="#35255A"/>
<path d="M29.6006 37.1426L48.1006 25.9998L29.6006 14.8569V37.1426Z" fill="white"/>
</svg>
