<svg width="129" height="110" fill="none" xmlns="http://www.w3.org/2000/svg"><path d="M128.214 71.174H80.007v-6.416h41.801V25.665H35.289V0h92.925v71.174zM41.705 19.248h80.093V6.416H41.705v12.832z" fill="#000"/><path d="M102.658 16.04a3.208 3.208 0 1 0 0-6.415 3.208 3.208 0 0 0 0 6.415zm9.625 0a3.208 3.208 0 1 0 0-6.415 3.208 3.208 0 0 0 0 6.415z" fill="#000"/><path d="M69.525 74.11a29.442 29.442 0 0 0-4.581-17.31l7.847-6.574-5.53-6.603-7.944 6.654a29.514 29.514 0 0 0-15.334-6.962V32.087h-8.614v11.315a29.514 29.514 0 0 0-15.126 7.157l-8.267-6.923-5.534 6.602 8.264 6.92a29.454 29.454 0 0 0-4.398 15.518c0 .49 0 .962.035 1.466L0 76.33l1.784 8.427 10.23-2.165a29.782 29.782 0 0 0 11.229 14.542l-4.075 8.072 7.7 3.881 4.125-8.17a29.662 29.662 0 0 0 18.216-.119l4.17 8.277 7.7-3.882-4.17-8.267a29.762 29.762 0 0 0 10.939-14.363l10.304 2.182 1.784-8.428-10.41-2.207zM43.983 52.064a20.9 20.9 0 0 1 8.61 3.85l-8.61 7.205V52.064zm-8.614.109v11.061l-8.424-7.057a20.94 20.94 0 0 1 8.424-4.02v.016zM21.407 62.776l8.601 7.205-11.077 2.345a20.853 20.853 0 0 1 2.476-9.566v.016zm5.756 26.575a21.115 21.115 0 0 1-6.612-8.562l12.242-2.592-5.63 11.154zm12.771 4.34a21.083 21.083 0 0 1-5.004-.605l5.193-10.298 5.156 10.211a20.853 20.853 0 0 1-5.345.677v.016zm4.38-18.102l-4.367 2.101-4.366-2.117-1.078-4.726 3.022-3.789h4.847l3.02 3.79-1.079 4.74zm8.661 13.544l-5.486-10.865 11.832 2.505a21.122 21.122 0 0 1-6.343 8.344l-.003.016zm-3.606-19.29l8.89-7.443a20.853 20.853 0 0 1 2.678 9.894L49.37 69.843z" fill="url(#paint0_linear_3330_12695)"/><defs><linearGradient id="paint0_linear_3330_12695" y1="70.578" x2="79.945" y2="70.578" gradientUnits="userSpaceOnUse"><stop stop-color="#3D6EDD"/><stop offset=".22" stop-color="#4067E1"/><stop offset=".54" stop-color="#4953EB"/><stop offset=".92" stop-color="#5834FB"/><stop offset="1" stop-color="#5C2CFF"/></linearGradient></defs></svg>