<svg fill="none" height="111" width="124" xmlns="http://www.w3.org/2000/svg" xmlns:xlink="http://www.w3.org/1999/xlink"><linearGradient id="a" gradientUnits="userSpaceOnUse" x1="55.198" x2="124" y1="30.803" y2="30.803"><stop offset="0" stop-color="#ed779e"/><stop offset="1" stop-color="#eda950"/></linearGradient><clipPath id="b"><path d="m0 0h124v109.63h-124z" transform="translate(0 .791)"/></clipPath><g clip-path="url(#b)"><path d="m58.475 4.067v37.001h10.53v14.453l29.02-14.453h22.699v-37h-62.25z" stroke="url(#a)" stroke-miterlimit="10" stroke-width="6.553"/><path d="m101.927 33.552-3.705-3.732 6.988-7.044-6.988-7.041 3.705-3.735 10.695 10.776zm-24.831-.328-10.696-10.776 10.695-10.776 3.705 3.735-6.992 7.041 6.992 7.045-3.705 3.732zm17.134-18.616-12.506 12.601 3.705 3.735 12.506-12.601z" fill="#000"/><g stroke="#000" stroke-miterlimit="10"><path d="m4.315 105.044s7.317-13.417 20.734-13.417h23.491s13.433 0 20.733 13.417m-33.187-27.217c8.756 0 15.855-7.099 15.855-15.855s-7.099-15.855-15.855-15.855-15.855 7.099-15.855 15.855 7.099 15.855 15.855 15.855z" stroke-width="9.829"/><path d="m36.087 75.772v12.195" stroke-width="9.056"/><path d="m104.574 108.772c-5.036-9.223-14.266-9.223-14.266-9.223h-15.015a15.4 15.4 0 0 0 -10.442 4.079" stroke-width="6.881"/><path d="m81.744 90.048c6.024 0 10.907-4.883 10.907-10.907s-4.883-10.908-10.907-10.908-10.907 4.884-10.907 10.908 4.883 10.907 10.907 10.907zm0-1.413v8.391" stroke-width="6.229"/></g></g></svg>