<svg width="117" height="100" fill="none" xmlns="http://www.w3.org/2000/svg"><path d="M78.96 83.414l-4.488-8.046a27.928 27.928 0 0 0-.116-48.875l4.448-8.069A37.132 37.132 0 0 1 78.96 83.4v.014zm37.687-32.444a55.192 55.192 0 0 0-28.43-48.236l-4.469 8.06a45.92 45.92 0 0 1 .083 80.31l4.482 8.05a55.208 55.208 0 0 0 28.334-48.184z" fill="url(#paint0_linear_3348_12616)"/><path d="M56.176 93.923a4.986 4.986 0 0 1-5.004-4.987V24.103a1.417 1.417 0 0 0-2.42-.998L32.668 39.274H10.004v24.105h20.584v10.004H0v-44.13h28.51L56.877.74a2.517 2.517 0 0 1 4.3 1.775v86.408a4.988 4.988 0 0 1-5.001 5z" fill="#000"/><defs><linearGradient id="paint0_linear_3348_12616" x1="74.356" y1="50.944" x2="116.647" y2="50.944" gradientUnits="userSpaceOnUse"><stop stop-color="#B0FA9C"/><stop offset="1" stop-color="#5BCBF9"/></linearGradient></defs></svg>