<svg width="38" height="26" fill="none" xmlns="http://www.w3.org/2000/svg"><path d="M29.97 11.101l-1.566.224c.113.79.796 1.373 1.594 1.36l-.027-1.584zM8.976 7.951l.103 1.58a1.583 1.583 0 0 0 1.328-.903L8.975 7.95zm21.108 17.4A7.917 7.917 0 0 0 38 17.433h-3.167a4.75 4.75 0 0 1-4.75 4.75v3.166zM38 17.433a7.917 7.917 0 0 0-7.917-7.917v3.167a4.75 4.75 0 0 1 4.75 4.75H38zm-7.917-7.917l-.14.001.055 3.166h.085V9.517zm1.455 1.36C30.66 4.737 25.383.017 19 .017v3.167c4.785 0 8.746 3.539 9.404 8.141l3.134-.448zM19 .017c-5.063 0-9.43 2.97-11.457 7.257l2.863 1.354A9.501 9.501 0 0 1 19 3.184V.017zM8.87 6.371C3.917 6.695 0 10.815 0 15.85h3.166a6.334 6.334 0 0 1 5.912-6.32l-.207-3.16zM0 15.85a9.5 9.5 0 0 0 9.5 9.5v-3.167a6.333 6.333 0 0 1-6.334-6.334H0zm30.083 6.333H9.5v3.166h20.583v-3.166z" fill="#fff"/><path d="M23.75 14.684L19 17.85l-4.75-3.166M19 7.934v9.5" stroke="#fff" stroke-width="3.167" stroke-linecap="round" stroke-linejoin="round"/></svg>