<svg fill="none" height="99" width="120" xmlns="http://www.w3.org/2000/svg"><path d="m59.758 79.192h-6.654v-56.722h53.621v42.814h-6.654v-36.16h-40.313v50.067z" fill="#231f20"/><path d="m16.635 89.02v-72.213l36.595-8.443v5.799h6.654v-14.163l-49.903 11.518v77.501h-9.981v9.981h119.77v-9.98z" fill="#231f20"/><path d="m43.25 24.144h-16.635v6.654h16.635zm0 13.307h-16.635v6.654h16.635z" fill="#5ec3b1"/><path d="m43.25 37.451h-16.635v6.654h16.635zm0 13.308h-16.635v6.654h16.635v-6.653zm0 13.308h-16.635v6.654h16.635z" fill="#5ec3b1"/><path d="m93.155 37.451h-26.616v6.654h26.616zm0 12.975h-26.616v7.32h26.616zm0 13.308h-26.616v7.32h26.616z" fill="#d62293"/></svg>