<svg width="250" height="40" viewBox="0 0 250 40" fill="none" xmlns="http://www.w3.org/2000/svg">
<path d="M59.3788 17.1221C60.3379 17.1407 61.2877 16.9365 62.15 16.5264C63.0122 16.1163 63.7622 15.5121 64.3379 14.7636L67.0034 17.4245C64.8958 19.7225 62.4783 20.8715 59.6268 20.8715C58.3428 20.9218 57.0616 20.7196 55.8593 20.2771C54.657 19.8345 53.5582 19.1605 52.6283 18.2953C51.724 17.4455 51.0137 16.4192 50.5437 15.2833C50.0737 14.1475 49.8547 12.9277 49.9008 11.7036C49.8655 10.4665 50.0954 9.23574 50.5757 8.09025C51.056 6.94476 51.7763 5.90974 52.6903 5.05145C53.6734 4.14656 54.8342 3.44537 56.1027 2.99021C57.3712 2.53506 58.7211 2.33536 60.0709 2.40318C61.4207 2.471 62.7424 2.80493 63.9563 3.38481C65.1702 3.96469 66.251 4.77851 67.1336 5.77714L64.5921 8.61943C64.0322 7.88398 63.3028 7.28731 62.4629 6.87761C61.6229 6.4679 60.696 6.25666 59.757 6.26093C58.2932 6.23346 56.874 6.75265 55.7897 7.71232C55.227 8.21658 54.7853 8.83572 54.496 9.52563C54.2067 10.2155 54.0769 10.9592 54.116 11.7036C54.0768 12.4465 54.1941 13.1892 54.4607 13.8861C54.7272 14.583 55.1373 15.2192 55.6657 15.7554C56.6877 16.643 58.0105 17.1299 59.3788 17.1221V17.1221Z" fill="black"/>
<path d="M70.2331 20.6296V2.66876H74.3244V17.0858H82.1969V20.6538L70.2331 20.6296Z" fill="black"/>
<path d="M100.174 18.1501C98.3109 19.8595 95.85 20.8113 93.2928 20.8113C90.7356 20.8113 88.2747 19.8595 86.4121 18.1501C85.5037 17.3004 84.7867 16.2755 84.3064 15.1406C83.8262 14.0058 83.5933 12.7858 83.6226 11.5584C83.5875 10.3303 83.8178 9.10866 84.2983 7.973C84.7789 6.83735 85.4991 5.81306 86.4121 4.96673C88.2747 3.25736 90.7356 2.3056 93.2928 2.3056C95.85 2.3056 98.3109 3.25736 100.174 4.96673C101.082 5.8165 101.799 6.84141 102.279 7.97625C102.759 9.11109 102.992 10.331 102.963 11.5584C102.998 12.7866 102.768 14.0082 102.287 15.1439C101.807 16.2795 101.086 17.3038 100.174 18.1501V18.1501ZM98.7478 11.5584C98.7593 10.0388 98.1839 8.57068 97.1361 7.44618C96.6427 6.91331 96.0401 6.48735 95.3675 6.19582C94.6948 5.90428 93.9669 5.75364 93.2308 5.75364C92.4947 5.75364 91.7668 5.90428 91.0942 6.19582C90.4215 6.48735 89.819 6.91331 89.3255 7.44618C88.2659 8.56351 87.6886 10.0364 87.7138 11.5584C87.7024 13.078 88.2778 14.5462 89.3255 15.6707C89.819 16.2035 90.4215 16.6295 91.0942 16.921C91.7668 17.2126 92.4947 17.3632 93.2308 17.3632C93.9669 17.3632 94.6948 17.2126 95.3675 16.921C96.0401 16.6295 96.6427 16.2035 97.1361 15.6707C97.673 15.1252 98.0922 14.4802 98.369 13.7739C98.6459 13.0675 98.7747 12.3142 98.7478 11.5584V11.5584Z" fill="black"/>
<path d="M111.332 16.0335C111.659 16.4471 112.083 16.7783 112.568 16.9992C113.053 17.2202 113.586 17.3245 114.121 17.3035C114.648 17.3308 115.174 17.2289 115.65 17.0071C116.127 16.7852 116.539 16.4506 116.849 16.0335C117.56 15.0458 117.91 13.8526 117.84 12.647V2.72919H121.932V12.7679C121.932 15.3683 121.188 17.364 119.7 18.7549C118.951 19.4556 118.066 20.0036 117.098 20.367C116.129 20.7305 115.096 20.9019 114.059 20.8715C113.012 20.902 111.97 20.7307 110.991 20.3675C110.013 20.0043 109.117 19.4563 108.356 18.7549C106.868 17.364 106.125 15.3683 106.125 12.7679V2.72919H110.21V12.647C110.21 13.8627 110.603 15.0475 111.332 16.0335Z" fill="black"/>
<path d="M140.28 5.02726C142.016 6.59959 142.946 8.77667 142.946 11.5585C142.946 14.3403 142.078 16.5779 140.404 18.2107C138.73 19.8435 136.065 20.6296 132.594 20.6296H126.209V2.66876H132.718C136.003 2.66876 138.545 3.45493 140.28 5.02726ZM137.305 15.7312C138.297 14.8241 138.792 13.4332 138.792 11.6794C138.792 9.92568 138.297 8.53477 137.305 7.62765C136.313 6.72054 134.763 6.17627 132.656 6.17627H130.362V17.1221H132.966C134.539 17.2039 136.087 16.7077 137.305 15.7312V15.7312Z" fill="black"/>
<path d="M166.316 2.66876H170.407V20.6296H166.316L157.513 9.38141V20.6296H153.422V2.66876H157.265L166.316 14.2194V2.66876Z" fill="black"/>
<path d="M188.073 20.6296L186.338 16.7593H178.589L176.854 20.6296H172.452L180.387 2.66876H184.354L192.289 20.6296H188.073ZM182.556 8.05097L180.263 13.2518H184.85L182.556 8.05097V8.05097Z" fill="black"/>
<path d="M201.091 6.20045V20.7143H196.994V6.20045H191.786V2.75342H206.354V6.20045H201.091Z" fill="black"/>
<path d="M209.273 2.66876H213.365V20.6296H209.273V2.66876Z" fill="black"/>
<path d="M224.709 14.0984L229.42 2.66876H233.883L226.506 20.6296H223.029L215.652 2.66876H220.115L224.709 14.0984Z" fill="black"/>
<path d="M249.318 2.66876V6.23675H240.144V9.92568H248.388V13.3727H240.144V17.1221H249.628V20.7143H236.046V2.72924H249.312L249.318 2.66876Z" fill="black"/>
<path d="M54.6739 35.9296C55.2137 35.9396 55.7482 35.8241 56.2332 35.5928C56.7182 35.3615 57.1399 35.0209 57.4634 34.5991L58.9511 36.111C58.446 36.7103 57.8124 37.1942 57.0947 37.5285C56.3771 37.8629 55.5931 38.0396 54.7978 38.0462C54.0799 38.0761 53.3633 37.9629 52.6918 37.7133C52.0203 37.4638 51.4081 37.0832 50.8926 36.5948C50.3826 36.1209 49.981 35.5474 49.714 34.9117C49.4469 34.276 49.3205 33.5925 49.3428 32.9058C49.3202 32.2102 49.4463 31.5175 49.7131 30.872C49.9799 30.2265 50.3816 29.6422 50.8926 29.1564C51.3941 28.6627 51.9936 28.2739 52.6544 28.014C53.3153 27.754 54.0235 27.6283 54.7359 27.6446C55.5461 27.6322 56.3491 27.7938 57.0882 28.1177C57.8274 28.4417 58.4845 28.9202 59.0131 29.5193L57.5873 31.0916C57.2764 30.6717 56.866 30.3314 56.391 30.0997C55.9161 29.868 55.3907 29.7519 54.8598 29.7612C54.0326 29.7559 53.2345 30.0587 52.6282 30.6078C52.3137 30.8908 52.0672 31.2382 51.9065 31.625C51.7457 32.0119 51.6747 32.4286 51.6984 32.8454C51.6794 33.2563 51.7466 33.6667 51.8958 34.0514C52.0451 34.4362 52.2732 34.7872 52.5663 35.0829C52.8339 35.3643 53.161 35.5857 53.5248 35.7319C53.8887 35.878 54.2807 35.9455 54.6739 35.9296V35.9296Z" fill="black"/>
<path d="M69.1794 36.5344C68.1498 37.5086 66.7704 38.0512 65.3361 38.0462C64.623 38.0683 63.913 37.9453 63.2513 37.685C62.5896 37.4247 61.9907 37.0328 61.4928 36.5344C60.4994 35.5511 59.9426 34.226 59.9426 32.8454C59.9426 31.4649 60.4994 30.1397 61.4928 29.1565C62.5224 28.1823 63.9018 27.6396 65.3361 27.6446C66.0492 27.6225 66.7592 27.7456 67.4208 28.0059C68.0825 28.2661 68.6814 28.658 69.1794 29.1565C70.1727 30.1397 70.7296 31.4649 70.7296 32.8454C70.7296 34.226 70.1727 35.5511 69.1794 36.5344V36.5344ZM68.4355 32.8454C68.4526 32.0002 68.1428 31.1797 67.5677 30.5474C67.2942 30.2485 66.9603 30.0082 66.5868 29.8417C66.2134 29.6751 65.8086 29.586 65.3981 29.5798C64.9843 29.5661 64.5729 29.6463 64.1964 29.8142C63.8199 29.9822 63.4885 30.2331 63.2285 30.5474C62.9315 30.8529 62.7015 31.2142 62.5523 31.6093C62.4031 32.0044 62.3379 32.425 62.3606 32.8454C62.3547 33.6887 62.6631 34.5054 63.2285 35.1434C63.5019 35.4423 63.8358 35.6826 64.2093 35.8491C64.5827 36.0157 64.9875 36.1049 65.3981 36.111C65.8118 36.1248 66.2232 36.0445 66.5997 35.8766C66.9762 35.7087 67.3076 35.4577 67.5677 35.1434C68.1428 34.5111 68.4526 33.6906 68.4355 32.8454V32.8454Z" fill="black"/>
<path d="M81.9489 31.5996L79.1595 37.1028H77.7957L75.0062 31.5996V37.9494H72.7127V27.826H75.8121L78.4776 33.3292L81.1431 27.826H84.2425V37.9252H81.9489V31.5996V31.5996Z" fill="black"/>
<path d="M93.9128 28.7936C94.3044 29.1432 94.6086 29.5757 94.8021 30.058C94.9955 30.5402 95.073 31.0593 95.0286 31.5754C95.0286 32.8454 94.6566 33.7525 93.9128 34.2967C93.1689 34.9015 92.0531 35.1434 90.5034 35.1434H89.1334V37.9252H86.8399V27.826H90.4972C92.0531 27.8865 93.1689 28.1888 93.9128 28.7936ZM92.2391 32.7244C92.5388 32.3441 92.6924 31.8733 92.673 31.394C92.6998 31.1621 92.6622 30.9274 92.564 30.7146C92.4659 30.5018 92.3108 30.3187 92.1151 30.1845C91.6044 29.9096 91.0234 29.7836 90.4414 29.8216H89.1334V33.2082H90.6832C90.9615 33.2321 91.2419 33.2016 91.508 33.1186C91.7741 33.0355 92.0205 32.9015 92.2329 32.7244H92.2391Z" fill="black"/>
<path d="M99.5536 35.3249C99.7395 35.5517 99.9753 35.7349 100.244 35.8608C100.512 35.9867 100.806 36.0521 101.103 36.0521C101.401 36.0521 101.695 35.9867 101.963 35.8608C102.231 35.7349 102.467 35.5517 102.653 35.3249C103.057 34.7593 103.253 34.0776 103.211 33.3897V27.826H105.505V33.4502C105.54 34.0668 105.449 34.6841 105.236 35.2658C105.023 35.8474 104.693 36.3815 104.265 36.8367C103.388 37.5871 102.258 37.9958 101.092 37.9846C99.925 37.9735 98.8037 37.5432 97.9419 36.7762C97.514 36.3211 97.1839 35.7869 96.971 35.2053C96.758 34.6237 96.6666 34.0063 96.7022 33.3897V27.7656H98.9958V33.3292C98.9354 34.0377 99.133 34.7443 99.5536 35.3249V35.3249Z" fill="black"/>
<path d="M112.261 29.8217V37.9253H109.968V29.8217H107.054V27.8865H115.237V29.8217H112.261Z" fill="black"/>
<path d="M116.91 27.8865H119.204V37.9857H116.91V27.8865Z" fill="black"/>
<path d="M128.936 27.8865H131.23V37.9857H128.936L124.039 31.6964V37.9857H121.746V27.8865H123.915L128.998 34.3573V27.8865H128.936Z" fill="black"/>
<path d="M140.528 32.8455H142.822V36.4376C142.274 37.0013 141.609 37.444 140.871 37.7361C140.133 38.0281 139.34 38.1628 138.545 38.1309C137.118 38.158 135.737 37.6367 134.701 36.6795C134.191 36.2057 133.79 35.6322 133.523 34.9965C133.256 34.3608 133.129 33.6773 133.152 32.9906C133.138 32.3012 133.267 31.6162 133.529 30.976C133.791 30.3358 134.183 29.7534 134.68 29.263C135.176 28.7727 135.769 28.3843 136.422 28.1209C137.075 27.8575 137.776 27.7244 138.483 27.7293C139.909 27.7023 141.29 28.2236 142.326 29.1807L141.148 30.874C140.791 30.5063 140.343 30.2354 139.846 30.0878C139.449 29.9438 139.03 29.8621 138.607 29.8459C137.779 29.8406 136.981 30.1434 136.375 30.6926C136.063 30.9902 135.819 31.3487 135.658 31.7447C135.498 32.1407 135.426 32.5653 135.445 32.9906C135.417 33.8376 135.728 34.6621 136.313 35.2886C136.577 35.5581 136.895 35.7722 137.246 35.9177C137.598 36.0633 137.976 36.1373 138.359 36.1353C139.047 36.1739 139.733 36.0274 140.342 35.7119V32.8697L140.528 32.8455Z" fill="black"/>
<path d="M155.839 27.8865V29.8822H151.066V32.0593H155.591V34.0549H151.066V37.9857H148.773V27.8865H155.839Z" fill="black"/>
<path d="M166.501 36.5344C165.472 37.5086 164.092 38.0512 162.658 38.0462C161.945 38.0683 161.235 37.9453 160.573 37.685C159.912 37.4247 159.313 37.0328 158.815 36.5344C157.821 35.5511 157.264 34.226 157.264 32.8454C157.264 31.4649 157.821 30.1397 158.815 29.1565C159.844 28.1823 161.224 27.6396 162.658 27.6446C163.371 27.6225 164.081 27.7456 164.743 28.0059C165.404 28.2661 166.003 28.658 166.501 29.1565C167.495 30.1397 168.051 31.4649 168.051 32.8454C168.051 34.226 167.495 35.5511 166.501 36.5344V36.5344ZM165.695 32.8454C165.713 32.0002 165.403 31.1797 164.828 30.5474C164.554 30.2485 164.22 30.0082 163.847 29.8417C163.473 29.6751 163.069 29.586 162.658 29.5798C162.244 29.5661 161.833 29.6463 161.456 29.8142C161.08 29.9822 160.748 30.2331 160.488 30.5474C160.191 30.8529 159.961 31.2142 159.812 31.6093C159.663 32.0044 159.598 32.425 159.621 32.8454C159.615 33.6887 159.923 34.5054 160.488 35.1434C160.762 35.4423 161.096 35.6826 161.469 35.8491C161.843 36.0157 162.247 36.1049 162.658 36.111C163.072 36.1248 163.483 36.0445 163.86 35.8766C164.236 35.7087 164.567 35.4577 164.828 35.1434C165.124 34.8379 165.355 34.4766 165.504 34.0815C165.653 33.6864 165.718 33.2659 165.695 32.8454V32.8454Z" fill="black"/>
<path d="M172.762 35.3249C172.948 35.5517 173.184 35.7349 173.452 35.8608C173.72 35.9867 174.014 36.0521 174.312 36.0521C174.61 36.0521 174.904 35.9867 175.172 35.8608C175.44 35.7349 175.676 35.5517 175.862 35.3249C176.265 34.7593 176.462 34.0776 176.42 33.3897V27.826H178.713V33.4502C178.749 34.0668 178.657 34.6841 178.444 35.2658C178.231 35.8474 177.901 36.3815 177.473 36.8367C176.596 37.5871 175.467 37.9958 174.3 37.9846C173.134 37.9735 172.012 37.5432 171.151 36.7762C170.723 36.3211 170.392 35.7869 170.18 35.2053C169.967 34.6237 169.875 34.0063 169.911 33.3897V27.7656H172.198V33.3292C172.109 34.0409 172.312 34.7581 172.762 35.3249V35.3249Z" fill="black"/>
<path d="M188.315 27.8865H190.609V37.9857H188.315L183.418 31.6964V37.9857H181.125V27.8865H183.294L188.377 34.3573V27.8865H188.315Z" fill="black"/>
<path d="M201.029 29.217C201.533 29.6924 201.926 30.2677 202.183 30.904C202.44 31.5404 202.553 32.223 202.517 32.9059C202.549 33.5831 202.44 34.2598 202.195 34.8942C201.95 35.5286 201.574 36.1073 201.091 36.5948C200.161 37.502 198.673 37.9857 196.69 37.9857H193.156V27.8865H196.814C198.673 27.8865 200.099 28.3099 201.029 29.217V29.217ZM199.355 35.2039C199.648 34.9082 199.876 34.5572 200.026 34.1724C200.175 33.7877 200.242 33.3773 200.223 32.9664C200.243 32.5462 200.176 32.1265 200.027 31.7319C199.878 31.3373 199.65 30.9757 199.355 30.6684C198.996 30.3763 198.581 30.1564 198.134 30.0215C197.687 29.8866 197.217 29.8392 196.752 29.8822H195.45V35.9901H196.938C197.811 36.001 198.663 35.724 199.355 35.2039V35.2039Z" fill="black"/>
<path d="M211.567 37.9252L210.637 35.7481H206.298L205.368 37.9252H202.889L207.352 27.826H209.584L214.047 37.9252H211.567ZM208.468 30.8497L207.166 33.7525H209.769L208.468 30.8497Z" fill="black"/>
<path d="M218.882 29.8217V37.9253H216.588V29.8217H213.613V27.8865H221.789V29.8217H218.882Z" fill="black"/>
<path d="M223.469 27.8865H225.762V37.9857H223.469V27.8865Z" fill="black"/>
<path d="M236.982 36.5344C235.953 37.5086 234.573 38.0512 233.139 38.0462C232.426 38.0683 231.716 37.9453 231.054 37.685C230.393 37.4247 229.794 37.0328 229.296 36.5344C228.302 35.5511 227.746 34.226 227.746 32.8454C227.746 31.4649 228.302 30.1397 229.296 29.1565C230.325 28.1823 231.705 27.6396 233.139 27.6446C233.852 27.6225 234.562 27.7456 235.224 28.0059C235.886 28.2661 236.484 28.658 236.982 29.1565C237.976 30.1397 238.533 31.4649 238.533 32.8454C238.533 34.226 237.976 35.5511 236.982 36.5344V36.5344ZM236.239 32.8454C236.256 32.0002 235.946 31.1797 235.371 30.5474C235.097 30.2485 234.763 30.0082 234.39 29.8417C234.016 29.6751 233.612 29.586 233.201 29.5798C232.787 29.5661 232.376 29.6463 231.999 29.8142C231.623 29.9822 231.292 30.2331 231.032 30.5474C230.735 30.8529 230.505 31.2142 230.355 31.6093C230.206 32.0044 230.141 32.425 230.164 32.8454C230.158 33.6887 230.466 34.5054 231.032 35.1434C231.305 35.4423 231.639 35.6826 232.012 35.8491C232.386 36.0157 232.791 36.1049 233.201 36.111C233.615 36.1248 234.026 36.0445 234.403 35.8766C234.779 35.7087 235.111 35.4577 235.371 35.1434C235.946 34.5111 236.256 33.6906 236.239 32.8454V32.8454Z" fill="black"/>
<path d="M247.706 27.8865H250V37.9857H247.706L242.809 31.6964V37.9857H240.516V27.8865H242.685L247.768 34.3573L247.706 27.8865Z" fill="black"/>
<g opacity="0.8">
<path opacity="0.8" d="M25.262 13.1875L17.8356 5.77731H25.9925V0.18927H12.9658V5.77731L20.3922 13.1875H25.262Z" fill="black"/>
<path opacity="0.8" d="M18.566 26.125H13.6962L19.8444 32.2597L21.0618 33.5352H12.9658V39.1233H25.9925V33.4745L22.2792 29.8301L18.566 26.125Z" fill="black"/>
<path opacity="0.8" d="M33.419 13.1875V21.2659L32.1346 19.9903L25.9865 13.8556V18.7755L29.6389 22.4199L33.3521 26.125H38.9523V13.1875H33.419Z" fill="black"/>
<path opacity="0.8" d="M12.9658 20.537L5.60027 13.1875H0V26.125H5.53939V18.0467L12.9658 25.4569V20.537Z" fill="black"/>
<path d="M5.53939 26.125H0V39.1233H12.9658V33.5595H5.53939V26.125Z" fill="black"/>
<path d="M33.419 26.1857V33.5595H25.9925V39.1476H38.9584V26.125H33.352L33.419 26.1857Z" fill="black"/>
<path d="M0 13.1875H5.60027L5.53939 13.1268V5.77731H12.9658V0.18927H0V13.1875Z" fill="black"/>
<path d="M25.9925 0.18927V5.77731H33.419V13.1875H38.9584V0.18927H25.9925Z" fill="black"/>
</g>
</svg>
