<svg width="250" height="40" fill="none" xmlns="http://www.w3.org/2000/svg"><path d="M59.379 17.122a6.176 6.176 0 0 0 2.771-.596 6.02 6.02 0 0 0 2.188-1.762l2.665 2.66c-2.107 2.299-4.525 3.448-7.376 3.448a9.801 9.801 0 0 1-3.768-.595 9.621 9.621 0 0 1-3.23-1.982 8.7 8.7 0 0 1-2.085-3.012 8.52 8.52 0 0 1-.643-3.58 8.7 8.7 0 0 1 .675-3.613 8.883 8.883 0 0 1 2.114-3.039 10.048 10.048 0 0 1 3.413-2.06 10.234 10.234 0 0 1 7.853.394 9.978 9.978 0 0 1 3.178 2.392L64.592 8.62a5.955 5.955 0 0 0-2.13-1.741 6.112 6.112 0 0 0-2.705-.617 5.824 5.824 0 0 0-3.967 1.451 5.068 5.068 0 0 0-1.294 1.814c-.29.69-.42 1.433-.38 2.178a5.32 5.32 0 0 0 .345 2.182 5.425 5.425 0 0 0 1.205 1.87 5.616 5.616 0 0 0 3.713 1.366zm10.854 3.508V2.669h4.091v14.417h7.873v3.568l-11.964-.024zm29.941-2.48a10.182 10.182 0 0 1-6.881 2.661 10.18 10.18 0 0 1-6.88-2.66 8.84 8.84 0 0 1-2.107-3.01 8.658 8.658 0 0 1-.683-3.583 8.57 8.57 0 0 1 .675-3.585 8.753 8.753 0 0 1 2.114-3.006 10.18 10.18 0 0 1 6.88-2.661c2.558 0 5.019.951 6.882 2.66a8.842 8.842 0 0 1 2.105 3.01 8.666 8.666 0 0 1 .684 3.582 8.564 8.564 0 0 1-.676 3.586 8.756 8.756 0 0 1-2.113 3.006zm-1.426-6.592a5.964 5.964 0 0 0-1.612-4.112 5.26 5.26 0 0 0-1.768-1.25 5.375 5.375 0 0 0-4.274 0 5.26 5.26 0 0 0-1.768 1.25 5.834 5.834 0 0 0-1.612 4.112 5.965 5.965 0 0 0 1.612 4.113 5.26 5.26 0 0 0 1.768 1.25 5.374 5.374 0 0 0 4.274 0 5.26 5.26 0 0 0 1.768-1.25 5.638 5.638 0 0 0 1.233-1.897 5.53 5.53 0 0 0 .379-2.216zm12.584 4.476c.327.413.751.744 1.236.965a3.425 3.425 0 0 0 1.553.305 3.228 3.228 0 0 0 1.529-.297 3.145 3.145 0 0 0 1.199-.974 5.27 5.27 0 0 0 .991-3.386V2.729h4.092v10.039c0 2.6-.744 4.596-2.232 5.987a7.843 7.843 0 0 1-2.602 1.612 7.989 7.989 0 0 1-3.039.505 8.14 8.14 0 0 1-3.068-.505 7.994 7.994 0 0 1-2.635-1.612c-1.488-1.391-2.231-3.387-2.231-5.987V2.729h4.085v9.918c0 1.216.393 2.4 1.122 3.386zM140.28 5.027c1.736 1.573 2.666 3.75 2.666 6.532 0 2.781-.868 5.019-2.542 6.652s-4.339 2.419-7.81 2.419h-6.385V2.669h6.509c3.285 0 5.827.786 7.562 2.358zm-2.975 10.704c.992-.907 1.487-2.298 1.487-4.052 0-1.753-.495-3.144-1.487-4.051-.992-.907-2.542-1.452-4.649-1.452h-2.294v10.946h2.604a6.41 6.41 0 0 0 4.339-1.39zM166.316 2.67h4.091v17.96h-4.091l-8.803-11.248V20.63h-4.091V2.669h3.843l9.051 11.55V2.67zm21.757 17.96l-1.735-3.87h-7.749l-1.735 3.87h-4.402l7.935-17.96h3.967l7.935 17.96h-4.216zm-5.517-12.578l-2.293 5.2h4.587l-2.294-5.2zm18.535-1.85v14.513h-4.097V6.2h-5.208V2.753h14.568V6.2h-5.263zm8.182-3.532h4.092v17.96h-4.092V2.67zm15.436 11.43l4.711-11.43h4.463l-7.377 17.96h-3.477l-7.377-17.96h4.463l4.594 11.43zm24.609-11.43v3.568h-9.174v3.689h8.244v3.447h-8.244v3.75h9.484v3.591h-13.582V2.73h13.266l.006-.06zM54.674 35.929c.54.01 1.074-.105 1.56-.336a3.386 3.386 0 0 0 1.23-.994l1.487 1.512a5.418 5.418 0 0 1-1.856 1.418 5.549 5.549 0 0 1-2.297.517 5.402 5.402 0 0 1-2.106-.333 5.298 5.298 0 0 1-1.8-1.118 4.877 4.877 0 0 1-1.178-1.683 4.776 4.776 0 0 1-.371-2.006 4.905 4.905 0 0 1 .37-2.034 5.008 5.008 0 0 1 1.18-1.716 5.25 5.25 0 0 1 1.761-1.142c.661-.26 1.37-.386 2.082-.37.81-.012 1.613.15 2.352.474.74.324 1.396.802 1.925 1.401l-1.426 1.573c-.31-.42-.721-.76-1.196-.992a3.36 3.36 0 0 0-1.531-.339 3.294 3.294 0 0 0-2.232.847 2.83 2.83 0 0 0-.721 1.017c-.161.387-.232.804-.209 1.22-.019.411.049.822.198 1.206.15.385.377.736.67 1.032.268.281.595.503.959.649.364.146.756.214 1.149.198zm14.505.605a5.565 5.565 0 0 1-3.843 1.512 5.253 5.253 0 0 1-2.085-.361 5.15 5.15 0 0 1-1.758-1.15 5.19 5.19 0 0 1-1.55-3.69 5.19 5.19 0 0 1 1.55-3.688 5.565 5.565 0 0 1 3.843-1.512 5.252 5.252 0 0 1 2.085.36c.661.261 1.26.653 1.758 1.152a5.19 5.19 0 0 1 1.55 3.688 5.19 5.19 0 0 1-1.55 3.69zm-.743-3.689a3.314 3.314 0 0 0-.868-2.298 2.965 2.965 0 0 0-.981-.705 3.03 3.03 0 0 0-1.189-.262 2.73 2.73 0 0 0-1.202.234 2.664 2.664 0 0 0-.968.733 3.09 3.09 0 0 0-.676 1.062c-.149.395-.214.816-.191 1.236-.006.844.302 1.66.867 2.298.274.3.608.54.981.706a3.03 3.03 0 0 0 1.19.262c.413.014.824-.066 1.2-.234.377-.168.709-.42.969-.734a3.314 3.314 0 0 0 .868-2.298zM81.949 31.6l-2.79 5.503h-1.363l-2.79-5.503v6.35h-2.293V27.825h3.1l2.665 5.503 2.665-5.503h3.1v10.1h-2.294V31.6zm11.964-2.806c.391.35.696.782.89 1.264.193.482.27 1.001.226 1.517 0 1.27-.372 2.177-1.116 2.722-.744.605-1.86.846-3.41.846h-1.37v2.782H86.84V27.826h3.657c1.556.06 2.672.363 3.416.968zm-1.674 3.93c.3-.38.453-.85.434-1.33a1.272 1.272 0 0 0-.109-.68 1.307 1.307 0 0 0-.449-.53 3.107 3.107 0 0 0-1.674-.362h-1.308v3.386h1.55c.278.024.559-.006.825-.09.266-.083.513-.217.725-.394h.006zm7.315 2.6c.186.228.421.41.69.537a2.022 2.022 0 0 0 2.409-.536 3.01 3.01 0 0 0 .558-1.935v-5.564h2.294v5.624a4.53 4.53 0 0 1-.269 1.816 4.606 4.606 0 0 1-.971 1.57 4.812 4.812 0 0 1-3.173 1.149 4.808 4.808 0 0 1-3.15-1.209 4.605 4.605 0 0 1-.971-1.57 4.52 4.52 0 0 1-.269-1.816v-5.624h2.294v5.563a2.97 2.97 0 0 0 .558 1.996zm12.707-5.502v8.103h-2.293v-8.103h-2.914v-1.935h8.183v1.935h-2.976zm4.649-1.935h2.294v10.099h-2.294v-10.1zm12.026 0h2.294v10.099h-2.294l-4.897-6.29v6.29h-2.293v-10.1h2.169l5.083 6.471v-6.47h-.062zm11.592 4.959h2.294v3.592a5.587 5.587 0 0 1-1.951 1.298 5.703 5.703 0 0 1-2.326.395 5.513 5.513 0 0 1-3.844-1.452 4.874 4.874 0 0 1-1.178-1.683 4.766 4.766 0 0 1-.371-2.005 5.047 5.047 0 0 1 .377-2.015 5.148 5.148 0 0 1 1.151-1.713 5.295 5.295 0 0 1 1.742-1.142 5.412 5.412 0 0 1 2.061-.392 5.513 5.513 0 0 1 3.843 1.452l-1.178 1.693a3.006 3.006 0 0 0-1.302-.786 4.098 4.098 0 0 0-1.239-.242 3.293 3.293 0 0 0-2.232.847 2.97 2.97 0 0 0-.93 2.298 3.21 3.21 0 0 0 .868 2.298c.264.27.582.483.933.629.352.145.73.22 1.113.217a3.846 3.846 0 0 0 1.983-.423V32.87l.186-.024zm15.311-4.96v1.996h-4.773v2.177h4.525v1.996h-4.525v3.93h-2.293V27.888h7.066zm10.662 8.648a5.564 5.564 0 0 1-3.843 1.512 5.255 5.255 0 0 1-2.085-.361 5.155 5.155 0 0 1-1.758-1.15 5.188 5.188 0 0 1-1.551-3.69c0-1.38.557-2.705 1.551-3.688a5.564 5.564 0 0 1 3.843-1.512 5.255 5.255 0 0 1 2.085.36c.661.261 1.26.653 1.758 1.152a5.187 5.187 0 0 1 1.55 3.688c0 1.381-.556 2.706-1.55 3.69zm-.806-3.689a3.31 3.31 0 0 0-.867-2.298 2.976 2.976 0 0 0-.981-.705 3.033 3.033 0 0 0-1.189-.262 2.732 2.732 0 0 0-1.202.234 2.668 2.668 0 0 0-.968.733 3.086 3.086 0 0 0-.676 1.062 3.032 3.032 0 0 0-.191 1.236c-.006.844.302 1.66.867 2.298.274.3.608.54.981.706a3.03 3.03 0 0 0 1.189.262 2.73 2.73 0 0 0 1.202-.234c.376-.168.707-.42.968-.734.296-.305.527-.666.676-1.062.149-.395.214-.815.191-1.236zm7.067 2.48c.186.227.422.41.69.536a2.024 2.024 0 0 0 2.41-.536c.403-.566.6-1.247.558-1.935v-5.564h2.293v5.624a4.513 4.513 0 0 1-.269 1.816 4.606 4.606 0 0 1-.971 1.57 4.81 4.81 0 0 1-3.173 1.149 4.806 4.806 0 0 1-3.149-1.209 4.59 4.59 0 0 1-.971-1.57 4.513 4.513 0 0 1-.269-1.816v-5.624h2.287v5.563a2.673 2.673 0 0 0 .564 1.996zm15.553-7.439h2.294v10.1h-2.294l-4.897-6.29v6.29h-2.293v-10.1h2.169l5.083 6.471v-6.47h-.062zm12.714 1.331a4.78 4.78 0 0 1 1.154 1.687c.257.636.37 1.319.334 2.002a4.878 4.878 0 0 1-.322 1.988 4.953 4.953 0 0 1-1.104 1.7c-.93.908-2.418 1.392-4.401 1.392h-3.534v-10.1h3.658c1.859 0 3.285.424 4.215 1.331zm-1.674 5.987c.293-.296.521-.647.671-1.032a2.96 2.96 0 0 0 .197-1.206c.02-.42-.047-.84-.196-1.234a3.134 3.134 0 0 0-.672-1.064 3.567 3.567 0 0 0-1.221-.646 3.63 3.63 0 0 0-1.382-.14h-1.302v6.108h1.488a3.944 3.944 0 0 0 2.417-.786zm12.212 2.721l-.93-2.177h-4.339l-.93 2.177h-2.479l4.463-10.099h2.232l4.463 10.1h-2.48zm-3.099-7.075l-1.302 2.902h2.603l-1.301-2.902zm10.414-1.028v8.103h-2.294v-8.103h-2.975v-1.935h8.176v1.935h-2.907zm4.587-1.935h2.293v10.099h-2.293v-10.1zm13.513 8.647a5.564 5.564 0 0 1-3.843 1.512 5.255 5.255 0 0 1-2.085-.361 5.155 5.155 0 0 1-1.758-1.15 5.187 5.187 0 0 1-1.55-3.69c0-1.38.556-2.705 1.55-3.688a5.564 5.564 0 0 1 3.843-1.512 5.255 5.255 0 0 1 2.085.36c.662.261 1.26.653 1.758 1.152a5.188 5.188 0 0 1 1.551 3.688c0 1.381-.557 2.706-1.551 3.69zm-.743-3.689a3.316 3.316 0 0 0-.868-2.298 2.976 2.976 0 0 0-.981-.705 3.033 3.033 0 0 0-1.189-.262 2.732 2.732 0 0 0-1.202.234 2.665 2.665 0 0 0-.967.733 3.104 3.104 0 0 0-.677 1.062 3.032 3.032 0 0 0-.191 1.236c-.006.844.302 1.66.868 2.298.273.3.607.54.98.706.374.167.779.256 1.189.262a2.73 2.73 0 0 0 1.202-.234c.376-.168.708-.42.968-.734a3.316 3.316 0 0 0 .868-2.298zm11.467-4.958H250v10.099h-2.294l-4.897-6.29v6.29h-2.293v-10.1h2.169l5.083 6.471-.062-6.47z" fill="#000"/><g opacity=".8" fill="#000"><path opacity=".8" d="M25.262 13.188l-7.426-7.41h8.157V.188H12.966v5.588l7.426 7.41h4.87zm-6.696 12.937h-4.87l6.148 6.135 1.218 1.275h-8.096v5.588h13.027v-5.648l-3.714-3.645-3.713-3.705zm14.853-12.938v8.079l-1.284-1.276-6.148-6.134v4.92l3.652 3.644 3.713 3.705h5.6V13.187H33.42zm-20.453 7.35L5.6 13.187H0v12.938h5.54v-8.078l7.426 7.41v-4.92z"/><path d="M5.54 26.125H0v12.998h12.966V33.56H5.539v-7.435zm27.879.06v7.375h-7.426v5.588h12.965V26.125h-5.606l.067.06zM0 13.189h5.6l-.06-.061v-7.35h7.426V.19H0v12.998zM25.992.188v5.588h7.427v7.41h5.54V.19H25.991z"/></g></svg>