<svg width="35" height="39" viewBox="0 0 35 39" fill="none" xmlns="http://www.w3.org/2000/svg">
<path fill-rule="evenodd" clip-rule="evenodd" d="M3.47619 26.2896C5.21915 24.4708 7.59918 23.4347 10.0972 23.4347H25.2994C27.7974 23.4347 30.1774 24.4708 31.9204 26.2896C33.6609 28.1058 34.6265 30.5541 34.6265 33.0923V37.0581C34.6265 38.0114 33.8538 38.7842 32.9005 38.7842C31.9472 38.7842 31.1745 38.0114 31.1745 37.0581V33.0923C31.1745 31.4234 30.5384 29.8368 29.428 28.6781C28.32 27.5219 26.8333 26.8868 25.2994 26.8868H10.0972C8.56328 26.8868 7.07656 27.5219 5.96855 28.6781C4.85815 29.8368 4.22209 31.4234 4.22209 33.0923V37.0581C4.22209 38.0114 3.44932 38.7842 2.49606 38.7842C1.54279 38.7842 0.77002 38.0114 0.77002 37.0581V33.0923C0.77002 30.5541 1.73562 28.1058 3.47619 26.2896Z" fill="blue"/>
<path fill-rule="evenodd" clip-rule="evenodd" d="M17.6978 4.41387C14.6356 4.41387 12.1532 6.89626 12.1532 9.95846C12.1532 13.0206 14.6356 15.503 17.6978 15.503C20.76 15.503 23.2424 13.0206 23.2424 9.95846C23.2424 6.89626 20.76 4.41387 17.6978 4.41387ZM8.70117 9.95846C8.70117 4.98974 12.7291 0.961792 17.6978 0.961792C22.6666 0.961792 26.6945 4.98974 26.6945 9.95846C26.6945 14.9272 22.6666 18.9551 17.6978 18.9551C12.7291 18.9551 8.70117 14.9272 8.70117 9.95846Z" fill="blue"/>
</svg>
