<?xml version="1.0" encoding="UTF-8"?> <svg xmlns="http://www.w3.org/2000/svg" id="Layer_1" data-name="Layer 1" viewBox="0 0 400 245"><defs><style>.cls-1{fill:#252f3e}.cls-2{fill:#f90}</style></defs><title>aws-01 (2)</title><path class="cls-1" d="M133.368 100.568a29.665 29.665 0 0 0 1.078 8.725 52.48 52.48 0 0 0 3.137 7.06 4.265 4.265 0 0 1 .686 2.255 3.88 3.88 0 0 1-1.862 2.941l-6.177 4.118a4.7 4.7 0 0 1-2.55.882 4.511 4.511 0 0 1-2.94-1.372 30.332 30.332 0 0 1-3.53-4.608c-.98-1.667-1.961-3.53-3.04-5.785q-11.47 13.53-28.825 13.53c-8.235 0-14.804-2.353-19.608-7.06s-7.256-10.98-7.256-18.824c0-8.334 2.941-15.098 8.922-20.197s13.923-7.647 24.021-7.647a77.627 77.627 0 0 1 10.392.784c3.629.49 7.354 1.275 11.276 2.157V70.37c0-7.452-1.57-12.648-4.608-15.687-3.138-3.04-8.432-4.51-15.981-4.51a44.609 44.609 0 0 0-10.59 1.275 78.121 78.121 0 0 0-10.588 3.333 28.13 28.13 0 0 1-3.431 1.274 6.014 6.014 0 0 1-1.57.295c-1.372 0-2.058-.98-2.058-3.04v-4.803a6.204 6.204 0 0 1 .686-3.432 7.341 7.341 0 0 1 2.746-2.059 56.446 56.446 0 0 1 12.353-4.412 59.442 59.442 0 0 1 15.295-1.862c11.667 0 20.197 2.646 25.688 7.941 5.392 5.295 8.138 13.334 8.138 24.119v31.766zM93.56 115.47a31.775 31.775 0 0 0 10.099-1.764 21.848 21.848 0 0 0 9.315-6.275 15.562 15.562 0 0 0 3.333-6.275 35.198 35.198 0 0 0 .98-8.53v-4.118a81.879 81.879 0 0 0-9.02-1.667 73.878 73.878 0 0 0-9.216-.588c-6.57 0-11.373 1.275-14.61 3.922s-4.803 6.373-4.803 11.275c0 4.608 1.177 8.04 3.628 10.392 2.353 2.452 5.784 3.628 10.294 3.628zm78.73 10.59a5.475 5.475 0 0 1-3.726-.982 7.981 7.981 0 0 1-2.058-3.823l-23.04-75.788a17.175 17.175 0 0 1-.883-3.922 2.15 2.15 0 0 1 2.353-2.451h9.607c1.864 0 3.139.294 3.825.98.785.588 1.372 1.961 1.96 3.824l16.472 64.905 15.295-64.905c.49-1.961 1.078-3.236 1.863-3.823a6.744 6.744 0 0 1 3.921-.981h7.844c1.863 0 3.138.294 3.922.98a6.609 6.609 0 0 1 1.863 3.824L227 109.588l16.961-65.69a8.397 8.397 0 0 1 1.962-3.823 6.397 6.397 0 0 1 3.823-.981h9.118a2.18 2.18 0 0 1 2.451 2.45 9.778 9.778 0 0 1-.196 1.57 13.95 13.95 0 0 1-.686 2.45l-23.629 75.79q-.882 2.94-2.059 3.822a6.272 6.272 0 0 1-3.725.98h-8.432c-1.863 0-3.138-.293-3.922-.98a6.95 6.95 0 0 1-1.863-3.921l-15.197-63.238-15.099 63.14a7.65 7.65 0 0 1-1.862 3.922 6.079 6.079 0 0 1-3.922.98zm125.987 2.646a64.882 64.882 0 0 1-15.099-1.764c-4.902-1.177-8.726-2.451-11.275-3.922a7.064 7.064 0 0 1-3.039-2.746 6.92 6.92 0 0 1-.588-2.745v-5c0-2.059.784-3.04 2.255-3.04a5.551 5.551 0 0 1 1.765.295c.588.196 1.47.588 2.45.98a53.33 53.33 0 0 0 10.785 3.431 58.88 58.88 0 0 0 11.667 1.177c6.177 0 10.982-1.078 14.316-3.235a10.558 10.558 0 0 0 5.097-9.315 9.548 9.548 0 0 0-2.647-6.863c-1.764-1.863-5.098-3.53-9.903-5.098l-14.216-4.412c-7.157-2.255-12.451-5.589-15.686-10a23.36 23.36 0 0 1-4.903-14.217 21.82 21.82 0 0 1 2.647-10.883 25.209 25.209 0 0 1 7.06-8.039 31.118 31.118 0 0 1 10.196-5.098 42.732 42.732 0 0 1 12.354-1.667 49.219 49.219 0 0 1 6.57.392c2.253.294 4.312.686 6.371 1.078 1.962.49 3.824.98 5.589 1.569a21.397 21.397 0 0 1 4.118 1.764 8.478 8.478 0 0 1 2.941 2.452 5.284 5.284 0 0 1 .882 3.235v4.608c0 2.06-.784 3.138-2.254 3.138a10.198 10.198 0 0 1-3.726-1.176 44.853 44.853 0 0 0-18.825-3.824c-5.588 0-10 .882-13.04 2.745s-4.607 4.706-4.607 8.725a9.258 9.258 0 0 0 2.941 6.962c1.96 1.863 5.589 3.725 10.785 5.392l13.923 4.412c7.058 2.256 12.156 5.393 15.196 9.413a22.186 22.186 0 0 1 4.51 13.726 25.205 25.205 0 0 1-2.549 11.373 26.37 26.37 0 0 1-7.157 8.628 31.604 31.604 0 0 1-10.883 5.49 46.623 46.623 0 0 1-14.021 2.06z"></path><path class="cls-2" d="M316.808 176.356c-32.256 23.825-79.122 36.472-119.418 36.472-56.473 0-107.358-20.883-145.792-55.591-3.039-2.745-.294-6.47 3.334-4.313 41.57 24.118 92.848 38.727 145.89 38.727a291.134 291.134 0 0 0 111.28-22.746c5.393-2.452 10.001 3.53 4.706 7.45z"></path><path class="cls-2" d="M330.24 161.061c-4.117-5.294-27.256-2.549-37.747-1.274-3.137.392-3.627-2.354-.784-4.413 18.433-12.942 48.728-9.216 52.258-4.902 3.53 4.412-.98 34.707-18.236 49.218-2.647 2.255-5.196 1.08-4.02-1.862 3.921-9.707 12.647-31.57 8.53-36.767z"></path></svg> 