<svg xmlns="http://www.w3.org/2000/svg" role="img" viewBox="30.70 15.70 2433.60 716.10"><title>Aqua-Logo-Color-RGB-2022.svg</title><style>svg {enable-background:new 0 0 2500 750}</style><path fill="#ff0036" d="M529.1 323.6V81.8c0-9.7-7.8-17.5-17.5-17.5h-83.3v333.2c0 13.4 16.2 20.1 25.6 10.6l68.6-68.6c4.2-4.2 6.6-9.9 6.6-15.9z"/><path fill="#ffc900" d="M428.3 64.3H269.9c-6 0-11.7 2.4-15.9 6.6l-68.6 68.6c-9.4 9.4-2.8 25.6 10.6 25.6h232.4V64.3z"/><path fill="#1904da" d="M338.4 514.3H96.6c-9.7 0-17.5-7.8-17.5-17.5v-83.3h333.2c13.4 0 20.1 16.2 10.6 25.6l-68.6 68.6c-4.3 4.3-10 6.6-15.9 6.6z"/><path fill="#08b1d5" d="M79.1 413.5V255.1c0-6 2.4-11.7 6.6-15.9l68.6-68.6c9.4-9.4 25.6-2.8 25.6 10.6v232.4l-100.8-.1z"/><g><path fill="#07242d" d="M1058.9 492.1H856.1c-111.8 0-202.8-91-202.8-202.8 0-111.8 91-202.8 202.8-202.8s202.8 91 202.8 202.8v202.8zM856.1 168.9c-66.4 0-120.4 54-120.4 120.4s54 120.4 120.4 120.4h120.4V289.3c0-66.4-54-120.4-120.4-120.4zm1563.6 323.2h-202.8c-111.8 0-202.8-91-202.8-202.8 0-111.8 91-202.8 202.8-202.8 111.8 0 202.8 91 202.8 202.8v202.8zm-202.8-323.2c-66.4 0-120.4 54-120.4 120.4s54 120.4 120.4 120.4h120.4V289.3c.1-66.4-54-120.4-120.4-120.4zm-453.6 323.3c-111.9 0-202.9-91-202.9-202.9V99h82.4v190.3c0 66.4 54.1 120.5 120.5 120.5s120.5-54.1 120.5-120.5V99h82.4v190.3c0 111.9-91 202.9-202.9 202.9zM1309.6 86.5c-111.8 0-202.8 91-202.8 202.8 0 111.8 91 202.8 202.8 202.8l82.4-82.4h-82.4c-66.4 0-120.4-54-120.4-120.4s54-120.4 120.4-120.4 120.4 54 120.4 120.4v396.4h82.4V289.3c0-111.8-90.9-202.8-202.8-202.8z"/></g></svg>