<svg fill="none" height="185" viewBox="0 0 333 185" width="333" xmlns="http://www.w3.org/2000/svg" xmlns:xlink="http://www.w3.org/1999/xlink"><filter id="a" color-interpolation-filters="sRGB" filterUnits="userSpaceOnUse" height="41.5915" width="49.7614" x="233.304" y="111.761"><feFlood flood-opacity="0" result="BackgroundImageFix"/><feColorMatrix in="SourceAlpha" result="hardAlpha" type="matrix" values="0 0 0 0 0 0 0 0 0 0 0 0 0 0 0 0 0 0 127 0"/><feOffset dy=".956912"/><feGaussianBlur stdDeviation=".59807"/><feComposite in2="hardAlpha" operator="out"/><feColorMatrix type="matrix" values="0 0 0 0 0 0 0 0 0 0 0 0 0 0 0 0 0 0 0.1 0"/><feBlend in2="BackgroundImageFix" mode="normal" result="effect1_dropShadow_3828_302"/><feBlend in="SourceGraphic" in2="effect1_dropShadow_3828_302" mode="normal" result="shape"/></filter><filter id="b" color-interpolation-filters="sRGB" filterUnits="userSpaceOnUse" height="35.6991" width="43.5955" x="280.89" y="117.817"><feFlood flood-opacity="0" result="BackgroundImageFix"/><feColorMatrix in="SourceAlpha" result="hardAlpha" type="matrix" values="0 0 0 0 0 0 0 0 0 0 0 0 0 0 0 0 0 0 127 0"/><feOffset dy=".788219"/><feGaussianBlur stdDeviation=".492637"/><feComposite in2="hardAlpha" operator="out"/><feColorMatrix type="matrix" values="0 0 0 0 0 0 0 0 0 0 0 0 0 0 0 0 0 0 0.1 0"/><feBlend in2="BackgroundImageFix" mode="normal" result="effect1_dropShadow_3828_302"/><feBlend in="SourceGraphic" in2="effect1_dropShadow_3828_302" mode="normal" result="shape"/></filter><filter id="c" color-interpolation-filters="sRGB" filterUnits="userSpaceOnUse" height="34.7814" width="44.9396" x="52.2045" y="124.894"><feFlood flood-opacity="0" result="BackgroundImageFix"/><feColorMatrix in="SourceAlpha" result="hardAlpha" type="matrix" values="0 0 0 0 0 0 0 0 0 0 0 0 0 0 0 0 0 0 127 0"/><feOffset dy=".635986"/><feGaussianBlur stdDeviation=".397491"/><feComposite in2="hardAlpha" operator="out"/><feColorMatrix type="matrix" values="0 0 0 0 0 0 0 0 0 0 0 0 0 0 0 0 0 0 0.1 0"/><feBlend in2="BackgroundImageFix" mode="normal" result="effect1_dropShadow_3828_302"/><feBlend in="SourceGraphic" in2="effect1_dropShadow_3828_302" mode="normal" result="shape"/></filter><filter id="d" color-interpolation-filters="sRGB" filterUnits="userSpaceOnUse" height="31.4816" width="42.9987" x="95.4242" y="127.815"><feFlood flood-opacity="0" result="BackgroundImageFix"/><feColorMatrix in="SourceAlpha" result="hardAlpha" type="matrix" values="0 0 0 0 0 0 0 0 0 0 0 0 0 0 0 0 0 0 127 0"/><feOffset dy=".73874"/><feGaussianBlur stdDeviation=".461712"/><feComposite in2="hardAlpha" operator="out"/><feColorMatrix type="matrix" values="0 0 0 0 0 0 0 0 0 0 0 0 0 0 0 0 0 0 0.1 0"/><feBlend in2="BackgroundImageFix" mode="normal" result="effect1_dropShadow_3828_302"/><feBlend in="SourceGraphic" in2="effect1_dropShadow_3828_302" mode="normal" result="shape"/></filter><filter id="e" color-interpolation-filters="sRGB" filterUnits="userSpaceOnUse" height="50.0079" width="57.8014" x=".372988" y="19.9207"><feFlood flood-opacity="0" result="BackgroundImageFix"/><feColorMatrix in="SourceAlpha" result="hardAlpha" type="matrix" values="0 0 0 0 0 0 0 0 0 0 0 0 0 0 0 0 0 0 127 0"/><feOffset dy="1.30161"/><feGaussianBlur stdDeviation=".813506"/><feComposite in2="hardAlpha" operator="out"/><feColorMatrix type="matrix" values="0 0 0 0 0 0 0 0 0 0 0 0 0 0 0 0 0 0 0.1 0"/><feBlend in2="BackgroundImageFix" mode="normal" result="effect1_dropShadow_3828_302"/><feBlend in="SourceGraphic" in2="effect1_dropShadow_3828_302" mode="normal" result="shape"/></filter><filter id="f" color-interpolation-filters="sRGB" filterUnits="userSpaceOnUse" height="62.7971" width="63.9104" x="54.6488" y="7.62029"><feFlood flood-opacity="0" result="BackgroundImageFix"/><feColorMatrix in="SourceAlpha" result="hardAlpha" type="matrix" values="0 0 0 0 0 0 0 0 0 0 0 0 0 0 0 0 0 0 127 0"/><feOffset dy="1.51886"/><feGaussianBlur stdDeviation=".949284"/><feComposite in2="hardAlpha" operator="out"/><feColorMatrix type="matrix" values="0 0 0 0 0 0 0 0 0 0 0 0 0 0 0 0 0 0 0.1 0"/><feBlend in2="BackgroundImageFix" mode="normal" result="effect1_dropShadow_3828_302"/><feBlend in="SourceGraphic" in2="effect1_dropShadow_3828_302" mode="normal" result="shape"/></filter><filter id="g" color-interpolation-filters="sRGB" filterUnits="userSpaceOnUse" height="48.7166" width="48.7171" x="132.266" y=".401387"><feFlood flood-opacity="0" result="BackgroundImageFix"/><feColorMatrix in="SourceAlpha" result="hardAlpha" type="matrix" values="0 0 0 0 0 0 0 0 0 0 0 0 0 0 0 0 0 0 127 0"/><feOffset dy="1.38664"/><feGaussianBlur stdDeviation=".866649"/><feComposite in2="hardAlpha" operator="out"/><feColorMatrix type="matrix" values="0 0 0 0 0 0 0 0 0 0 0 0 0 0 0 0 0 0 0.1 0"/><feBlend in2="BackgroundImageFix" mode="normal" result="effect1_dropShadow_3828_302"/><feBlend in="SourceGraphic" in2="effect1_dropShadow_3828_302" mode="normal" result="shape"/></filter><filter id="h" color-interpolation-filters="sRGB" filterUnits="userSpaceOnUse" height="40.9603" width="45.5081" x="177.951" y="7.29557"><feFlood flood-opacity="0" result="BackgroundImageFix"/><feColorMatrix in="SourceAlpha" result="hardAlpha" type="matrix" values="0 0 0 0 0 0 0 0 0 0 0 0 0 0 0 0 0 0 127 0"/><feOffset dy="1.02083"/><feGaussianBlur stdDeviation=".638021"/><feComposite in2="hardAlpha" operator="out"/><feColorMatrix type="matrix" values="0 0 0 0 0 0 0 0 0 0 0 0 0 0 0 0 0 0 0.1 0"/><feBlend in2="BackgroundImageFix" mode="normal" result="effect1_dropShadow_3828_302"/><feBlend in="SourceGraphic" in2="effect1_dropShadow_3828_302" mode="normal" result="shape"/></filter><filter id="i" color-interpolation-filters="sRGB" filterUnits="userSpaceOnUse" height="32.0485" width="38.2028" x="273.359" y="46.1526"><feFlood flood-opacity="0" result="BackgroundImageFix"/><feColorMatrix in="SourceAlpha" result="hardAlpha" type="matrix" values="0 0 0 0 0 0 0 0 0 0 0 0 0 0 0 0 0 0 127 0"/><feOffset dy=".764716"/><feGaussianBlur stdDeviation=".477948"/><feComposite in2="hardAlpha" operator="out"/><feColorMatrix type="matrix" values="0 0 0 0 0 0 0 0 0 0 0 0 0 0 0 0 0 0 0.1 0"/><feBlend in2="BackgroundImageFix" mode="normal" result="effect1_dropShadow_3828_302"/><feBlend in="SourceGraphic" in2="effect1_dropShadow_3828_302" mode="normal" result="shape"/></filter><filter id="j" color-interpolation-filters="sRGB" filterUnits="userSpaceOnUse" height="45.299" width="52.9538" x="222.767" y="33.7178"><feFlood flood-opacity="0" result="BackgroundImageFix"/><feColorMatrix in="SourceAlpha" result="hardAlpha" type="matrix" values="0 0 0 0 0 0 0 0 0 0 0 0 0 0 0 0 0 0 127 0"/><feOffset dy="1.12898"/><feGaussianBlur stdDeviation=".705614"/><feComposite in2="hardAlpha" operator="out"/><feColorMatrix type="matrix" values="0 0 0 0 0 0 0 0 0 0 0 0 0 0 0 0 0 0 0.1 0"/><feBlend in2="BackgroundImageFix" mode="normal" result="effect1_dropShadow_3828_302"/><feBlend in="SourceGraphic" in2="effect1_dropShadow_3828_302" mode="normal" result="shape"/></filter><filter id="k" color-interpolation-filters="sRGB" filterUnits="userSpaceOnUse" height="41.7062" width="47.4123" x="133.251" y="81.7503"><feFlood flood-opacity="0" result="BackgroundImageFix"/><feColorMatrix in="SourceAlpha" result="hardAlpha" type="matrix" values="0 0 0 0 0 0 0 0 0 0 0 0 0 0 0 0 0 0 127 0"/><feOffset dy=".9989"/><feGaussianBlur stdDeviation=".624312"/><feComposite in2="hardAlpha" operator="out"/><feColorMatrix type="matrix" values="0 0 0 0 0 0 0 0 0 0 0 0 0 0 0 0 0 0 0.1 0"/><feBlend in2="BackgroundImageFix" mode="normal" result="effect1_dropShadow_3828_302"/><feBlend in="SourceGraphic" in2="effect1_dropShadow_3828_302" mode="normal" result="shape"/></filter><filter id="l" color-interpolation-filters="sRGB" filterUnits="userSpaceOnUse" height="35.3318" width="46.072" x="178.128" y="87.8127"><feFlood flood-opacity="0" result="BackgroundImageFix"/><feColorMatrix in="SourceAlpha" result="hardAlpha" type="matrix" values="0 0 0 0 0 0 0 0 0 0 0 0 0 0 0 0 0 0 127 0"/><feOffset dy=".96006"/><feGaussianBlur stdDeviation=".600037"/><feComposite in2="hardAlpha" operator="out"/><feColorMatrix type="matrix" values="0 0 0 0 0 0 0 0 0 0 0 0 0 0 0 0 0 0 0.1 0"/><feBlend in2="BackgroundImageFix" mode="normal" result="effect1_dropShadow_3828_302"/><feBlend in="SourceGraphic" in2="effect1_dropShadow_3828_302" mode="normal" result="shape"/></filter><g fill="#000" opacity=".05"><path d="m165.543 71.7561c.526.2806.953-.4053 1.06-1.1431.004-.0277.004-.052.007-.0797.007-.0554.014-.1143.017-.1697 0-.0485 0-.097 0-.1455 0-.0347 0-.0693 0-.1005-.024-.4018-.166-.7586-.457-.9145-.596.3291-.738.7829-.738 1.2956 0 .3983.086.8278.111 1.2574z"/><path d="m172.337 20.5618c-.572.2148-1.14.4295-1.879.7067.721 1.0738 1.383 1.4029 2.007 1.3544.378-.0277.745-.1975 1.106-.4226 1.154-.724 2.243-2.0438 3.452-1.2609.898 1.3648 1.81 1.1951 3.023.5161-2.777-2.1962-6.097-2.7677-8.392-2.6673-1.483.0659-2.537.4123-2.735.7829-.228.4295.69.8902 3.415.9872z"/><path d="m204.07 110.19c-.021 0-.042 0-.066 0-.025 0-.045 0-.07.003-.152.007-.315.035-.495.073-.995.197-2.281.72-3.168.966-.222.056-.441.101-.652.129-.901-.485-1.712-1.095-2.458-1.795-.87-1.593-2.218-2.951-3.338-4.416-.672-1.185-1.275-2.449-1.844-3.748-.072-.406-.111-.828-.1-1.272-.496-.5331-.901-1.2363-1.265-2.0261-.274-.6824-.541-1.3648-.811-2.0403-.621-1.7216-1.203-3.5159-2.063-4.7422-.041-.0866-.086-.1766-.128-.2598-.919-1.7943-3.317-1.3128-5.584-1.4237-2.135-.7551-4.284-2.0091-5.442-.5404-.267.2668-.496.5751-.735.8453-1.66-.1871-2.995-.4053-4.055-.6478-1.491-.8972-2.999-1.1951-3.803-1.8186-.62-.8903-.131-1.7909-.287-2.4283.128-.3048.294-.6443.509-1.0218-1.719-.2979-3.47-.1178-5.217.2113-2.232.1454-5.493.5161-10.256 1.1881-1.144.5161-1.875 1.254-2.413 2.0715-.433.3949-.821.8175-1.15 1.3544-.208 1.5172-1.002 2.7296-1.983 3.8589-.416.3013-.912.5438-1.535.7066-.351.8106-.857 1.6108-1.373 2.4214-1.123 1.3371-1.997 2.83-2.014 4.8145 1.796 3.191-1.802 6.679.815 9.429.038.042.072.084.114.122 1.646 1.43 3.189 4.517 5.13 6.224.478.423.981.762 1.518.967.901.346 1.893.325 3.012-.284 1.896.706 4.194-.53 6.194-1.081 1.508-.416 2.846-.447 3.716 1.039.94.814 2.26.8 3.141 1.102.807.277 1.24.824.672 2.518-.031.09-.062.18-.097.274-.062.26-.104.512-.132.762-.409 3.949 3.581 6.883 3.678 11.126.385 1.5-.187 2.865-.745 4.23-.728 1.78-1.425 3.561.065 5.653.132.204.254.423.371.648 1.266 2.418 1.862 5.979 2.818 9.034.759 2.428 1.754 4.531 3.494 5.48.219.121.447.228.694.308.149.007.291.007.436.007 3.328.059 5.643-1.112 7.453-2.93 1.747-1.746 3.019-4.095 4.256-6.561.066-.128.128-.253.194-.381 1.116-.399 1.446-1.05 1.473-1.809 0-.02 0-.041 0-.062 0-.01 0-.024 0-.035 0-1.718-1.455-3.945.974-5.04.049-.02.091-.045.136-.065 1.889-.901 2.835-2.113 3.195-3.558.364-1.42.156-3.069-.284-4.891-.007-.024-.01-.049-.017-.073-.132-.336-.239-.665-.329-.991-.957-3.498.575-6.259 2.752-8.892 2.936-3.547 7.04-6.862 7.788-11.441v-.007c.364-.991-.007-1.303-.693-1.289z"/><path d="m293.57 142.53c-4.101-5.733-4.614-12.969-6.094-1.358-8.01-3.495-1.553-5.986-6.027-6.367-2.714-.827-4.035 1.604-5.536 3.409-1.716-2.989-3.321.506-4.849 1.909-.926 3.526-7.803 2.591-8.659 6.886 1.321 3.031.298 13.163 4.402 11.494 16.978-7.6 12.489 1.333 17.681-1.656 1.075 3.543 4.319 6.713 8.156 5.608 8.084-3.156 7.841-15.03.929-19.921z"/><path d="m231.861 112.27c-.398.232-.613.741-.662 1.316-.024.298-.003.616.059.925.149.703.531 1.358 1.134 1.628.627-.61.745-1.168.617-1.715-.167-.707-.739-1.392-1.148-2.154z"/><path d="m80.7198 29.3855c.4748-.1975.8388-.3707 1.1092-.5231 2.9428-1.6385-5.2028-.769-8.9602-1.8186-.0693-.0208-.1386-.0416-.208-.0623h-.0069c-.4887-.1559-.8908-.3464-1.1646-.5889.3535 4.6036 5.9168 2.4386 9.227 2.9894z"/><path d="m171.674 74.1224c0-.0693 0-.1386-.007-.1975 0-.0208-.007-.0381-.011-.0623-.007-.0555-.013-.1144-.027-.1628 0-.007-.004-.0104-.007-.0139-.018-.0624-.035-.1178-.059-.1663-.017-.0381-.042-.0693-.063-.1004-.01-.0139-.017-.0312-.027-.0451-.343-.4295-1.106-.3083-2.101-.2805-.173.4122.101.6824.517.911.53.291 1.303.5127 1.705.8764.042-.239.062-.4434.073-.6235 0-.0208.003-.0451.003-.0624 0-.0242 0-.045 0-.0693z"/><path d="m69.0644 28.9426c.5442.1351 1.2894.142 2 .4399-.6205-2.2204-1.2305-1.5207-2.8007-1.1743.0762.4503.3778.6305.8007.7344z"/><path d="m84.343 30.7319c-.3189-.0312-.6828-.0381-1.0398-.0485-.4749-.0138-.9359-.045-1.2583-.1697.5026 1.4548 1.2513 1.3821 1.9931 1.202.0728-.0173.149-.0381.2218-.0554.0728-.0174.1491-.0382.2219-.052.0416-.0104.0832-.0173.1247-.0243.0659-.0138.1318-.0242.1976-.0311.1768-.0208.3501-.0139.5096.0381.1629-.6097-.3155-.7898-.974-.8556z"/><path d="m119.56 125.311c-2.933-.495-6.312-1.718-7.907-4.198-1.133-3.686-2.031-4.482-5.823-4.971-2.804-.505-4.073-4.555-6.804-4.804-2.3327 1.004-4.0693-.343-6.0485-1.497-1.1404 3.194-1.6187 3.121-1.1612-.263-3.175.1-4.6655 6.27-6.6343 3.606-1.2028-2.407-2.8007-.087-4.4714-1.126-3.4177-1.964 1.539-8.213-3.4627-7.891-3.9342 1.628.6794-11.7219-3.896-4.4891-6.7799 7.6801-9.182-15.3246-.4818-11.4138 3.0467.0277-.8839-2.501 5.4974-.5646 3.0502-.1628 1.487 5.3172 3.9098 5.4973.461-4.2226-2.4124-8.7154 2.8146-11.1817 2.4471-.821-.4402-8.0019 1.2617-3.7827 1.5217-2.9306 5.5875-8.8505 9.3761-9.0306-3.1543 3.8207 5.4803-.291 4.0312-1.6143-2.26 2.2828-6.26-1.5691-3.2444-2.5148-1.7227-1.5588-3.0329.3048-4.5338.1039 3.6465-2.8058 18.4123-2.7573 7.6846-8.1542-3.0884-2.8232-1.8926-7.4684-6.3778-3.8173-2.6551-3.7411-10.3501-8.2582-8.7695.1628 2.3778 2.5321 1.2686 2.9097-1.2999 4.5482.6078 2.2539.1884 3.6256-1.2582 4.1152.0693-7.3333-12.8908-4.9362-11.8717-11.2025 3.48-4.6868 7.6568-6.2387 11.0884-7.7594.87-3.9455-3.2375-3.9662-4.215-.6962-2.3986 1.635-.5788-3.8-3.0121-1.2332-8.2461-8.6253-2.0416-.1905-5.331 1.486-5.5806-2.688-10.8631.6305-16.2219-.6893-1.8821-2.8994-6.3986-1.0288-8.9081-2.3313-1.182 1.4861-1.7192-.0104-2.1768-.3568-3.3414-.3533-6.26 1.4618-9.1577 1.4064-8.4229-1.8809-17.9584-4.5343-25.44543.9665 6.81113 3.2561 3.92373.9006-.71057 3.2492 1.66031 2.501 5.2201-.2944 5.7296 2.3243-1.7088.4226-3.80586.1975-4.26339 2.3417-.42635 2.2135 3.83709 1.3648 3.57709 3.5367 10.9532-.6304-9.72615 7.025 2.0728 4.2261.4437-1.9745 4.0797-2.4213 5.0122-4.2399.1317-1.6939 1.6187-2.0369 2.6239-2.8717-3.494 3.4432 9.7331-.4399 14.045 3.4086 1.6742.1351-.3119 4.3369 2.0312 4.0598 2.5477-.5543 2.4437 4.4789 5.3103 5.1094 5.078 1.7839.3535 6.1728 1.9133 11.1367.0555 6.5227 6.6586 9.3077 8.6031 15.1896-.3639 1.4722-.1871 1.9467 1.1404 2.5495 1.3137.8244 1.7019 4.666 3.1889 4.0736-.9358-2.0922-7.3518-13.17-3.1196-8.8401 3.1196 4.6834 5.6777 10.1357 8.3363 14.441 5.1819 4.039 13.2478 3.031 15.7227 10.129 15.2894 7.579 5.1473 3.312 5.3449 17.23 12.565 20.039 10.7036 12.079 6.3882 36.659 1.9307.839.2357 5.363-.1317 2.262-2.7002 4.805-1.5564 14.556 7.5251 11.532-6.5927-2.861 1.0607-5.837-.6482-8.189-1.7227-1.015 2.5026-3.578 1.7019-6.117 1.6604.751 2.409-.08 2.454-1.549 3.071-.793 6.648-2.064 3.549-5.241 6.572 2.027 7.096-6.917 10.853-10.499 6.381-.824 6.378-6.769 7.383-11.767 4.655-4.309 3.858-9.436-2.783-10.448z"/><path d="m129.674 18.5341c7.029-4.1498-13.879-2.6361-18.954-2.2204 4.077 4.6002-2.045-.3879-2.766 1.2782-3.012-.2147-17.0638 1.8325-12.1661 3.3947-.5685 1.933-2.1698 1.0496-3.2374 1.403-10.7245 1.8359 7.9995 2.6222-1.9272 2.7642 1.7053 3.5679 7.6776.194 10.5377 2.3659 1.778 1.8602 3.878 3.5679 2.655 5.6082 1.733 1.6974 6.454 2.2482 1.012 1.8256 1.092 1.3371 3.712.6477 3.06 2.8508-7.029 2.6188 6.517 22.1349 9.127 8.1577 1.043-4.9327 11.608-6.5331 16.038-9.9035-4.645-.0208-2.686-2.3001.52-.3638.08-1.635-.579-2.2446-1.567-2.6984-3.785-3.2769 2.912-.6755 3.283-3.1453.582-6.2456-2.811-7.6727 6.44-11.0086-6.187-1.105-8.655.3014-12.052-.3117z"/><path d="m90.8493 34.5474c-2.2946-1.6038-4.7418-2.6465-6.669-2.1546-.7002.0693-1.3934.0935-2.357-.4434-.0555-.1143-.1075-.2459-.1525-.3949-.4402-.5369-.9844-.814-1.5217-.8833h-.0104c-.4402-.0554-.8769.0312-1.2548.239-.565.239-.8873.6513-.9844 1.2575-.1594.5681-.1144 1.2712.2531 2.0645-.0174-.0104-.0278-.0242-.0451-.0346-.5962-.44-.7591-1.4965-.9012-2.4144.1005-.44.2842-.8937.4922-1.3649-.3085-.0277-.5927-.0346-.8527-.0173-.1941-.284-.4957-.2944-1.0329.2044-.922.3395-1.3796 1.0496-1.4974 1.8394-.0867.1212-.1699.239-.26.3741-.0589.3014.0971.5716.3154.821.1179.5265.3536 1.0218.669 1.4063-.1213.0762-.2877.149-.5234.2252.2669.0485.5685.097.8908.1455.3155.2529.6759.4018 1.0607.3949.5407-.0312 1.1716-.0277 1.8544.0069 2.7626.3776 6.0208.8729 8.2184 1.7285 1.5459.6963 2.5684 1.5935 2.4749 2.6846-.1734.8418-1.0122 1.8429-2.7661 3.0449.0382-.1005.0728-.1975.104-.2841.4368-1.2782.1352-1.4687-.3535-1.1465-.5789.3775-1.4212 1.4652-1.6292 2.3277.0902.0624.1803.1144.2739.1663 1.0086.5473 2.2045.3949 3.2478.5889.6828.1282 1.2964.4053 1.7435 1.1327h.0069c.7834 1.112 2.1422 1.784 3.2721 2.0715.7071.2944 1.2028.3499 1.3935.1559.6932-.0658.8214-.4607-.2981-1.1362-.1248-.1836-.2843-.3915-.4784-.6201.3605.0416.6759.0589.9532.0554 1.8025.8037 1.8371.3776 1.3137-.5057.1803-.485-.3535-1.3128-1.6152-2.4421-.1699-.2875-.3155-.5646-.416-.821.9186.0797 1.7401.0797 2.416.007 1.4523.6477 1.9029.3221 1.6603-.537.6308-.53.2842-1.4098-1.5529-2.5945-.6586-.8348-1.48-1.7458-2.4055-2.6292.2322-1.1881-1.383-1.9017-3.0364-2.5113z"/><path d="m203.425 135.197c-2.732 3.402-5.681 4.389-5.259 8.84-.169 2.467 0 3.835.382 4.407.637.969 1.861-.357 2.981-2.526.859-1.662 1.66-3.82 2.086-5.816.437-2.043.486-3.914-.19-4.905z"/><path d="m266.939 117.518c-.957-2.2-4.326-.672-6.478 1.794-1.675 1.916-2.614 4.396-1.113 6.131 1.705-.363 4.003 1.421 5.133.78.316-.18.541-.548.638-1.206.808-.987 1.04-1.971 1.099-2.93 0-.011 0-.021 0-.031 0-.011 0-.021 0-.032.073-1.351-.184-2.657.333-3.845.097-.225.222-.447.384-.661z"/><path d="m284.908 24.6683s.028.0069.042.0104c2.187.5819 6.024.859 6.294-.6547-2.135-.873-5.334-1.1397-7.483.2217.201.1143.492.2251.839.3325.097.0312.201.0589.308.0901z"/><path d="m277.757 81.4613c.048.2529.1.5057.152.7655.229-.2078.423-.426.583-.6477.138-.1871.249-.3776.339-.5612.007-.0173.018-.0312.025-.0485.041-.09.076-.1801.104-.2702.003-.0138.013-.0277.017-.045.031-.1005.055-.1975.073-.291v-.0104c.014-.0589.017-.1143.021-.1732 0-.0381.01-.0762.01-.1143 0-.0173 0-.0346 0-.0519-.007-.7968-.603-1.3164-1.816-.9873.187.9353.336 1.6801.485 2.4352z"/><path d="m268.62 98.7224c.077.2876.222.5785.437.8591.017.0208.028.0416.045.0624.263-.7898.492-1.4792.711-2.1339.131-.3914.256-.7724.384-1.15-.357-.097-.714.0208-1.008.2737-.011.0069-.021.0138-.031.0242-.018.0173-.032.0346-.049.052-.388.3845-.634 1.0184-.548 1.7008.011.0727.028.1455.042.2182.007.0312.01.0589.017.0866z"/><path d="m317.061 164.695c-2.066 1.798-3.986 3.464-5.976 5.192.527.25.957.451 1.317.6.243.097.454.173.641.218.094.024.184.041.267.052.846.107 1.238-.464 2.187-1.954.049-.069.108-.138.167-.211.43-.506 1.095-1.05 1.636-1.576.357-.347.658-.686.801-1.005.232-.519.038-.984-1.044-1.32z"/><path d="m321.474 161.507c-.198-.1-.389-.187-.565-.252-1.117-.42-1.855-.208-2.212.381-.007.013-.017.024-.024.038s-.014.031-.021.045c-.378.727-.239 1.957.426 3.284.098.194.205.391.323.585.953-1.261 1.882-2.491 2.78-3.675-.236-.149-.458-.277-.669-.388-.014-.007-.025-.011-.038-.018z"/><path d="m329.183 35.7317c-3.681-2.6949-11.407-6.3148-14.347-2.7885-.641.0762-1.57.1421-1.369-1.0807-6.298-.5958-12.742-.8522-18.711-3.3843-5.646-1.2644-10.925 1.0357-16.523 1.7423-1.903-.1385-1.074-1.9467-1.605-3.076-1.944.052-3.837-1.4168-5.889.3672-5.067-1.2193-21.154.6582-8.191-2.9201-.845-2.7574-3.906-1.9849-6.284-2.1581-1.57-.7759-3.144-1.7459-4.828-.3464-7.349 2.6673-13.775 2.4733-19.723 5.1925 4.884 4.3681-7.986-2.1823-6.028 4.2295.857 2.0923 2.943.0208 4.018 2.3867-4.132-2.7088-2.978 3.1245-6.822 2.1131 4.693-2.1131 1.116-13.2082-3.164-6.2941-1.085 1.5519.724 2.4698 1.639 3.8762-2.762-.6062-12.95-4.6625-7.584-.8314-3.827 2.0299-8.697-1.1639-11.931 2.2967-.922.8071-1.681.8001-2.395-.2841 3.113-1.7735-2.852-2.5114-.974 1.4029-1.799-.5126-4.031.53-4.09 2.1893-1.421-.3014-4.197-.8833-1.518.7482-2.596.8764-5.387-4.5136-3.21-3.1973 15.446 1.6489-4.745-6.4984-8.145-5.3899-3.446-.6374-7.065 1.9086-10.527 2.5079 1.639 3.6961-6.791 6.4777-8.811 9.4809-.468 2.1477 1.688 6.4223 4.232 3.5887 3.508-1.0807 2.534 8.5838 6.582 1.8637 2.749-3.135 1.345-3.0137.953-6.256 2.007-1.538 4.146-6.2872 7.113-4.0425-5.106 2.5114-5.092 8.951 1.584 6.3045 6.832 1.0288-5.286.0693-2.69 2.7504.607 3.4189-3.483-1.448-2.96 4.1879-3.407 1.2609-12.426 3.0484-9.449-3.2319-4.083.634-1.112 3.3497-1.778 4.5621-3.386.918-4.995 2.837-7.095 5.2895-11.449 3.9698.859 1.2782-2.673 8.5007-8.689-3.5957-9.445 11.1436-1.213 8.8782 2.929.1385 4.52-8.8956 7.165-8.7431 2.187 1.3994 3.795-2.7678 5.303-.3776 1.546 2.5668 5.81 3.7723 5.05 7.2674 1.609.0208-.02-3.7723 2.364-2.5737-1.261-2.0576-7.414-4.7769-4.703-7.2363 4.61 2.747 6.263 7.2328 8.419 11.691 2.579-1.5554 1.186-3.076-.194-4.9431 6.742-1.0877 1.439.7794 4.995 4.4408 1.424 1.7562 5.619.5127 7.913.8452-.8 3.6684-1.05 6.7098-5.171 7.9118 2.343.7135 2.741 1.5691 1.74 3.3081 5.948-2.5253 7.702 18.234 11.41 19.544 7.106-4.961 17.633-8.4974 10.607-17.3028-1.421.9768-1.889 3.4744-4.385 2.255.531-2.0091-4.447-4.1221-2.599-7.3956 2.641.8279 3.428 5.9858 7.071 4.1429 4.19 4.4166 9.459-.4815 12.072 5.6533-.908.7794.011 1.6523.69 1.9363 4.087-.1558 3.026 12.1069 6.385 17.2299 3.303-3.7 2.201-6.498 3.126-10.267 5.092-7.0321 12.039-13.8354 12.364-.347 6.794-3.2731 1.91 8.155 5.29 12.097-.038 2.986 4.62 10.506 3.428 3.997-.825-4.552-5.796-7.822-2.662-12.907 2.846 3.779 4.548 7.379 7.903 2.034.319-1.854-.496-4.001 1.657-5.401-4.198 1.071-6.34-4.0977-3.123-6.5709 4.884-.1144 10.859-3.0865 12.624-9.3979.305-.575 1.968-1.8705-.091-2.6395-3.525-12.5951 5.688-6.9176-2.845-10.3851-.42-1.9467 2.384-2.5217 3.764-3.5644-1.705 3.5298.527 1.9572 2.925 1.59-.457 1.9433-.852 2.5772.974 2.8993-.412 2.747-.402 6.211 2.569 2.9964-3.435-14.5315 10.256-6.1798 10.912-22.9212.003-2.7851-2.347-.9145-3.838-1.59-1.916-4.4928 8.507-8.0711 12.77-7.0873 4.121 3.367 4.34-5.2133 8.974-2.2516 10.395-3.0622-10.049 5.0713-3.456 13.849 7.47-6.8275 3.875-12.266 8.274-12.3699 4.825.3464 7.487-3.367 12.884-2.8994-2.281-2.3243.326-5.435 2.669-3.9454 4.069 4.0979 10.239-3.135 3.175-1.7494z"/><path d="m271.089 113.859c-.208.124-.367.239-.451.339-.176.208-.01.347.777.35 1.806 3.398 3.958-.215 2.322-2.04-.534.336-1.896.904-2.645 1.354z"/><path d="m53.3799 37.7725c1.0954.5092 2.156.8868 3.4732.2944.3293-.0935.6482-.1662.9532-.2217 2.9948-.5507 4.8804.4123 6.6378-1.4618-1.7158-1.3578-2.7002-2.1511-3.2063-2.8474-.0173-.0242-.0312-.0485-.0485-.0727-.0173-.0243-.0347-.052-.052-.0762-.5338-.8314-.3882-1.5727-.0208-3.0414-.0866.0243-.1698.0485-.253.0727-2.0069.5681-3.383.7448-2.3952 2.9895-1.4974-1.0808-3.8509-1.9953-5.941-1.9884-1.5356.0035-2.9255.5058-3.7331 1.8048-.007.0069-.0104.0173-.0174.0242-.0069.0104-.0104.0208-.0173.0312-.0555.0901-.1075.1836-.156.284.6101.1663 1.2444.2668 1.5044.4261h.0069c.2461.1594.1213.3741-.7453.7586-.0069 0-.0138.007-.0207.0104 0 0 .0242.0104.0381.0139 1.695.6651 2.8492.7447 3.3726.7309.0971 0 .1733-.0069.2253-.0139-.2842.0589-1.2028.3118-2.8388 1.2055 1.2409.0623 2.2495.627 3.2339 1.0842z"/><path d="m278.42 123.177c-.028-.045-.011-.014.059.122l.01-.007c.108.18.319.523.607.931.561.815 1.421 1.899 2.381 2.522.523.343 1.075.544 1.615.485h.021c.725.201 1.196.471 1.511.783.565.554.631 1.237.742 1.878.076.439.177.859.472 1.202.259.301.675.543 1.351.692.17.038.347.07.551.097.344.104.701.243 1.04.243.406 0 .784-.187 1.089-.859 1.334-1.608 2.378-.315 3.65.848.856.783 1.809 1.504 3.022 1.254.021-.003.042-.007.066-.01-3.362-3.024-8.149-12.609-14.329-7.191-.603-.88-.843-1.84-1.175-2.508-.16-.319-.343-.572-.597-.714-.412-.228-1.012-.169-2.01.354-.055-.094-.08-.136-.073-.115z"/><path d="m152.16 49.3742c.159.3775.416.7343.724 1.0773.603.6754 1.397 1.3128 2.007 1.9848-3.098 1.8533.791 3.2007-2.159 4.7907.09-.0034.173-.0104.26-.0138 2.412-.1144 3.982-.4226 4.866-.9422.049-.0278.087-.0589.132-.0866.038-.0278.083-.052.121-.0797.909-.6859.832-1.687.084-3.0275-.014-.0278-.028-.052-.042-.0797 0-.0069-.007-.0104-.01-.0173-.593-1.0323-1.574-2.262-2.805-3.6996.409-.5196.538-1.0496.479-1.5241-.07-.5473-.392-1.0115-.832-1.2817-.7-.433-1.699-.3776-2.44.6408-.07.0936-.129.1836-.184.2772-.447.7378-.451 1.3855-.198 1.9814z"/><path d="m249.848 119.315c-1.407-1.053-2.842-2.027-3.983-2.876.038.201.094.413.163.634 1.068 3.392 5.74 9.104 8.638 11.189h.003c2.066-3.114-1.282-6.291-4.821-8.944z"/><path d="m207.234 30.2413c.784.2252 1.917.3499 3.463.343-3.043-2.359-.679-4.1984 2.631-5.4904l.024-.0104c.059-.0243.122-.0451.184-.0693.035-.0139.069-.0277.107-.0416.045-.0173.094-.0346.139-.0519.052-.0174.101-.0381.153-.0555.024-.0104.052-.0173.079-.0277.368-.1316.739-.2563 1.116-.3741l.028-.0069c.09-.0277.184-.0554.274-.0866.014-.0035.028-.0069.042-.0104.086-.0277.173-.052.263-.0797.076-.0208.153-.045.225-.0658.025-.0069.049-.0139.073-.0208 2.007-.5785 3.945-.9734 4.974-1.1847-1.3-1.1119-4.378-.672-7.428.4192-1.359.4849-2.714 1.1015-3.903 1.7701-3.383 1.8948-5.425 4.1879-2.437 5.0435z"/><path d="m138.603 42.6613c-.977-.1282-2.447.1351-4.509 1.0461-.205-.6166-.552-.9145-.922-1.008-.364-.0901-.753.0104-1.065.194-.561.3325-.873.9318-.336 1.1812.264.1247.728.1593 1.473.0416-.533.2632-.88.4537-1.088.5923h-.003l-.007.0104c-1.092.7413 1.854.0069.859 1.5449 1.667.9907 3.168 1.1293 4.361.821.02-.0069.041-.0138.062-.0173.059-.0173.114-.0312.17-.0485 1.414-.4503 2.343-1.538 2.527-2.5183.166-.8833-.274-1.6766-1.522-1.8394z"/><path d="m285.082 73.8573c-.059.0693-.121.1385-.18.2044-1.955 2.113-4.246 2.4144-4.999 2.7642-.197.0901-.287.1836-.239.3152.104.2945.919.776 2.822 1.8221 4.149-1.2782 7.889-6.3495 4.925-9.9105-.048.194-.097.3811-.152.5647-.534 1.8671-1.3 3.218-2.146 4.2052-.01.0104-.021.0208-.031.0347z"/><path d="m46.3984 33.8638c.1144-.052.2323-.1109.3466-.1732 1.4455-.776 2.9117-2.2724 4.4507-3.038-1.5702-1.0495-4.1768-1.6211-6.052-.9595-.0555.0208-.111.0451-.1664.0658-.0416.0174-.0832.0312-.1248.0485-.0104.0035-.0208.0104-.0347.0174-1.1126.5057-1.8994 1.5103-1.9272 3.2007 1.1716 1.3475 2.3328 1.3648 3.5009.8348z"/><path d="m70.1419 22.2047c1.7365 1.6488 5.2513 2.8577 7.279-.5785 2.8041.8417.6343 1.6107-2.9186 4.2018.8215.9041 11.8579 1.5276 9.026-.8556 3.3207-2.8613 20.7137-8.0365 11.0711-8.3967-7.4246-.1386-14.5303.4919-21.9203 1.486 2.929 3.5229 14.4957 1.2367 5.487 2.8197-.4956.6062-1.1958.6512-1.9688.4538-2.1698-.7829-4.9081-2.7712-6.5823-1.6489-.2011.0936-.3397.2217-.416.3741-.2946.3395-.5407.8141-.7244 1.4688.5997.1662 1.1508.4087 1.6673.6755z"/><path d="m49.8721 28.5647c.3085 0 .9081.0208 1.6707.0485 2.0173.0762 5.1508.1836 6.9775-.0554 1.9618-.2563 2.4194-.911-1.6326-2.4387.0485.8279-.1075 1.2436-.4021 1.4099-.3986.2251-1.0503-.0069-1.8059-.3048-1.6672-.6547-3.8232-1.6247-4.8076 1.3371z"/><path d="m243.446 19.1325c.024.0104.048.0173.076.0277l.014.007c.925.3429 2.041.665 3.088.7343h.052c.087.007.177.0104.264.0104h.09.218c.038 0 .076-.0069.115-.0069.062-.0035.124-.0069.187-.0139h.01c.981-.1039 1.809-.53 2.222-1.5137-.087-.007-.173-.0139-.257-.0277-.017 0-.031-.007-.048-.007-.069-.0104-.135-.0208-.201-.0346-.7-.1386-1.355-.4365-2.007-.7274-.981-.44-1.948-.8626-3.033-.6894-.773.1213-1.605.5404-2.541 1.4688.316.1628.96.4711 1.761.7724z"/><path d="m267.467 123.749c-.014.045-.024.093-.034.138-.007.032-.018.063-.025.094-.228 1.05.035 2.456 1.193 4.309-.004-.488 0-.893.02-1.223.056-1.008.219-1.305.513-1.143.378.212.974 1.192 1.838 2.411.208-.457.142-.918-.032-1.378-.454-1.223-1.639-2.446-.409-3.582.177-.163.399-.322.683-.478-.61.201-1.234.516-1.722.589-.378.059-.676-.032-.808-.437-.069-.208-.094-.502-.069-.897.017-.014.034-.024.052-.038 2.672-.312 3.532-.665 3.448-.845-.038-.094-.332-.142-.755-.111-.725.048-1.827.315-2.693.956-.018 0-.035.003-.052.007v.031c-.513.391-.94.915-1.148 1.6z"/><path d="m152.514 51.326c-.107-.0969-.215-.1801-.322-.2563-.049-.0346-.094-.0693-.142-.097-.853-.5334-1.605-.3464-2.205.1628-.939.8037-1.497 2.4075-1.483 3.3185.575 2.9513 4.804-1.008 4.149-3.1314z"/><path d="m67.9614 33.5937c.5164-.2217.4887-.8452-.6898-2.1512.0485-.0866.0762-.1697.097-.2494.2565-.9387-1.1923-1.2886-2.2599-1.105-.0694.0104-.1352.0243-.1976.0416-.9012.2252-1.3899.866.0312 1.8775-.5199-.0762-.9151-.1143-1.2028-.1178 0 0-.0069 0-.0104 0-.0728 0-.1352 0-.1941.0035-.8908.045-.3397.5161.6586.963 1.1993.5403 3.0364 1.0495 3.7712.7343z"/><path d="m255.335 129.263c1.186.717 4.073 1.607 6.087 1.926.024.003.045.007.069.01 2.063.315 3.151.01.406-1.746-.447.108-.936.111-1.453.063-1.556-.146-3.396-.756-5.268-.354.048.035.1.066.156.101z"/><path d="m290.062 58.5534c.132-.0693.281-.1316.451-.1905-.277-3.3982-.652-5.0367-1.019-5.5459-1.123-1.5691-2.17 7.4684-.187 8.9371.128.097.274.1594.43.1871-.666-2.0507-.6-2.9028.325-3.3878z"/><path d="m288.489 64.5001c-.942.4226-1.521 1.8913-1.799 3.8866.409-.3222.801-.4954 1.196-.6028.42-.1177.843-.1628 1.283-.2424.492-.0866 1.005-.2114 1.566-.5196.358-.194.732-.4642 1.134-.8418-1.341-1.5034-2.399-1.9883-3.21-1.7424-.045.0139-.09.0312-.135.0485-.01.0035-.024.0069-.035.0139z"/><path d="m269.664 109.411c-.201-.682-.205-1.025-.09-1.174.419-.52 2.384 1.5 2.43-.122-.728-.09-1.203-.263-1.508-.498-.458-.354-.527-.842-.465-1.4.083-.772.416-1.669.323-2.504-3.04-1.621-1.817 4.34-.687 5.698z"/><path d="m85.2099 100.72c.5511.291 1.0988.561 1.6707.737.6932.215 1.4281.291 2.2565.104-1.0121-.644-1.9307-1.191-2.766-1.6381-3.6153-1.9398-5.598-2.061-6.208-.6858 2.1074-.2113 3.5979.7135 5.0502 1.4829z"/><path d="m67.122 26.8504c-.3987-.2979-.8007-.4295-1.2097-.4745-.1352-.0658-.2808-.1317-.4368-.2009-.0693.0692-.1386.1316-.208.187-.6377.0347-1.3067.1732-2.0346.1594-.5893-.1594-1.2271-.3915-1.9272-.5058.3708 1.1916 1.5251 1.8637 2.7175 2.1477 1.2859.5473 2.6066.6616 3.0086-.2286.2011-.1663.2635-.3811.1248-.6305 0-.1385-.0069-.2875-.0312-.4538z"/><path d="m69.0811 31.6058c.8526 2.4768 3.0849-.2251 4.5095-.7863-.5303-1.0842-2.9324-1.3198-4-.336-.0139.0139-.0277.0277-.0416.0416-.0277.0277-.0555.0554-.0797.0831-.2288.2598-.3744.5924-.3882.9976z"/><path d="m76.7861 47.1645h5.7643c-3.0317-1.5657-4.9532-1.5657-5.7643 0z"/><path d="m51.2997 24.4316c-2.1733.7656-4.1456 1.4584-6.5546 2.3071 2.9775.8175 6.1768-.2841 6.5546-2.3071z"/><path d="m89.6563 103.458c.1386.031.3882.062.7071.093 1.2582.121 3.6222.225 4.6655.094-.5407-.52-1.2166-.984-1.8752-1.327-.1387-.073-.2773-.139-.416-.201-.0069 0-.0138-.007-.0208-.01-.7071-.312-1.3552-.451-1.7539-.333-.454.135-.5823.61-.1039 1.559-1.2583 0-1.5044.059-1.1959.125z"/><path d="m182.284 18.1621h-7.154c2.371.2771 4.7 2.1823 7.154 0z"/><path d="m61.9585 23.4639c.3362.1282.7002.2078 1.078.2771.6932.1247 1.435.2079 2.156.4677.2461.09.4922.2009.7279.3394-.1629-.3602-.3986-.6893-.6829-.9803-.1906-.194-.4055-.3741-.6343-.5334-.4575-.3187-.9774-.5681-1.4974-.7275-.2738-.0831-.5476-.142-.8145-.1732-.6274-.0796-1.2201-.0138-1.6673.2252.0208.0381.0485.0658.0693.1005.3363.5126.7695.814 1.2617 1.0045z"/><path d="m255.171 20.5531c-2.755-1.9121-4.461-1.6454-5.611.4954 1.715-.1524 3.497-.3083 5.611-.4954z"/><path d="m293.989 165.444s-.007-.011-.01-.014c-.374-.516-1.449-.807-2.835-.811.488 1.053.918 1.975 1.417 3.045.09-.059.177-.118.26-.173.014-.011.028-.021.042-.031.066-.049.132-.094.194-.139.135-.1.256-.201.364-.298.01-.01.021-.017.031-.028.676-.616.811-1.132.558-1.524-.007-.01-.01-.017-.017-.027z"/><path d="m212.048 15.832c-1.48.4815-2.825.918-4.28 1.3891 2.87.8244 4.093.4191 4.28-1.3891z"/><path d="m271.664 133.332c1.012-.672 2.021-1.344 3.456-2.297-1.976.073-3.002.759-3.456 2.297z"/><path d="m69.5177 23.3821c-.9289-.2632-1.7435-.4953-2.922-.8313.9428 1.926 1.6464 2.0922 2.922.8313z"/><path d="m297.864 127.236c-.939.326-1.965.683-2.984 1.033 1.466 1.025 2.492.62 2.984-1.033z"/></g><g filter="url(#a)"><path d="m281.869 112h-47.369v24.775h36.665l10.704 14.424v-14.424z" fill="#1e1d40"/></g><path d="m245.057 127.476c2.147 0 3.654-1.744 3.654-4.223 0-2.468-1.507-4.212-3.654-4.212s-3.666 1.744-3.666 4.212c0 2.479 1.519 4.223 3.666 4.223zm0-1.589c-1.091 0-1.863-1.104-1.863-2.634 0-1.531.772-2.622 1.863-2.622 1.092 0 1.863 1.091 1.863 2.622 0 1.53-.771 2.634-1.863 2.634zm6.263 1.589c.581 0 1.056-.498 1.056-1.103 0-.558-.475-1.056-1.056-1.056-.629 0-1.103.498-1.103 1.056 0 .605.474 1.103 1.103 1.103zm5.609-8.435c-1.779 0-3.12 1.151-3.12 2.824 0 1.613 1.246 2.586 2.753 2.586.771 0 1.518-.297 2.016-.783-.154 1.376-.866 2.266-1.933 2.266-.689 0-1.163-.249-1.661-.664l-.831 1.328c.665.534 1.483.878 2.492.878 2.266 0 3.749-1.815 3.749-4.354 0-2.372-1.092-4.081-3.465-4.081zm.143 3.986c-.795 0-1.46-.462-1.46-1.245 0-.653.546-1.258 1.412-1.258.914 0 1.353.558 1.507 1.554-.249.582-.795.949-1.459.949zm6.281 4.307h1.744v-8.15h-1.4l-2.444 1.637.712 1.234 1.388-.866zm5.418-4.057c1.199 0 2.041-.914 2.041-2.088 0-1.151-.807-2.088-2.041-2.088-1.222 0-2.028.925-2.028 2.099 0 1.163.806 2.077 2.028 2.077zm-.961 4.057h1.365l5.671-8.15h-1.377zm.961-5.078c-.486 0-.866-.427-.866-1.067 0-.641.356-1.056.866-1.056.499 0 .866.427.866 1.056 0 .652-.367 1.067-.866 1.067zm5.09 5.208c1.198 0 2.029-.913 2.029-2.088 0-1.15-.795-2.088-2.029-2.088-1.21 0-2.041.926-2.041 2.088 0 1.163.831 2.088 2.041 2.088zm0-1.032c-.498 0-.866-.427-.866-1.056 0-.652.356-1.067.866-1.067.486 0 .866.427.866 1.067 0 .641-.356 1.056-.866 1.056z" fill="#fff"/><g filter="url(#b)"><path d="m281.875 118.014h41.625v21.175h-32.31l-9.315 12.553v-12.553z" fill="#c94777"/></g><path d="m289.57 132.12c1.81 0 3.08-1.47 3.08-3.56 0-2.08-1.27-3.55-3.08-3.55s-3.09 1.47-3.09 3.55c0 2.09 1.28 3.56 3.09 3.56zm0-1.34c-.92 0-1.57-.93-1.57-2.22s.65-2.21 1.57-2.21 1.57.92 1.57 2.21-.65 2.22-1.57 2.22zm5.279 1.34c.49 0 .89-.42.89-.93 0-.47-.4-.89-.89-.89-.53 0-.93.42-.93.89 0 .51.4.93.93.93zm5.418-4.56c-.65 0-1.28.25-1.7.66.13-1.16.73-1.91 1.63-1.91.58 0 .98.21 1.4.56l.7-1.12c-.56-.45-1.25-.74-2.1-.74-1.91 0-3.16 1.53-3.16 3.67 0 2 .92 3.44 2.92 3.44 1.5 0 2.63-.97 2.63-2.38 0-1.36-1.05-2.18-2.32-2.18zm-.39 3.31c-.77 0-1.14-.47-1.27-1.31.21-.49.67-.8 1.23-.8.67 0 1.23.39 1.23 1.05 0 .55-.46 1.06-1.19 1.06zm6.175 1.26c1.64 0 2.73-.93 2.73-2.39 0-1.4-1.05-2.18-2.27-2.18-.56 0-1 .18-1.34.42l.04-1.52h3.2v-1.33h-4.56l-.1 3.71.99.4c.37-.28.81-.45 1.33-.45.75 0 1.24.4 1.24 1 0 .59-.47 1.05-1.25 1.05-.66 0-1.28-.32-1.8-.81l-.87 1.04c.64.64 1.51 1.06 2.66 1.06zm5.431-3.55c1.01 0 1.72-.77 1.72-1.76 0-.97-.68-1.76-1.72-1.76-1.03 0-1.71.78-1.71 1.77 0 .98.68 1.75 1.71 1.75zm-.81 3.42h1.15l4.78-6.87h-1.16zm.81-4.28c-.41 0-.73-.36-.73-.9s.3-.89.73-.89c.42 0 .73.36.73.89 0 .55-.31.9-.73.9zm4.29 4.39c1.01 0 1.71-.77 1.71-1.76 0-.97-.67-1.76-1.71-1.76-1.02 0-1.72.78-1.72 1.76s.7 1.76 1.72 1.76zm0-.87c-.42 0-.73-.36-.73-.89 0-.55.3-.9.73-.9.41 0 .73.36.73.9s-.3.89-.73.89z" fill="#fff"/><g filter="url(#c)"><path d="m96.3491 125.053h-43.3496v20.977l34.2864.001 9.0632 12.213v-12.213z" fill="#1e1d40"/></g><path d="m57.8163 138.568h5.6955v-1.459h-3.1934l1.3717-1.065c1.3169-.954 1.7559-1.734 1.7559-2.743 0-1.416-1.1633-2.403-2.7655-2.403-1.2181 0-2.1728.526-2.9191 1.47l1.0316.999c.5487-.626 1.1084-.999 1.8436-.999.6146 0 1.1413.373 1.1413.999 0 .526-.2853 1.02-1.1852 1.734l-2.7764 2.15zm8.1463.132c.5378 0 .9767-.461.9767-1.021 0-.515-.4389-.976-.9767-.976-.5816 0-1.0206.461-1.0206.976 0 .56.439 1.021 1.0206 1.021zm2.9062-.132h1.8216l3.0508-6.321v-1.218h-5.6077v1.46h3.7312zm8.7494.132c1.6571 0 3.0288-.779 3.0288-2.151 0-.867-.5926-1.525-1.4815-1.876.7573-.33 1.295-.878 1.295-1.723 0-1.295-1.3388-2.052-2.8423-2.052-1.4705 0-2.8313.724-2.8313 2.052 0 .856.5377 1.404 1.284 1.723-.867.329-1.4815.987-1.4815 1.876 0 1.361 1.3608 2.151 3.0288 2.151zm0-4.587c-.5926-.044-1.2181-.373-1.2181-.955 0-.516.4938-.9 1.2181-.9s1.2291.384 1.2291.9c0 .56-.6365.911-1.2291.955zm0 3.226c-.8011 0-1.3827-.395-1.3827-.965 0-.593.7352-.966 1.3827-.988.6475.022 1.3937.395 1.3937.988 0 .57-.5926.965-1.3937.965zm6.0196-2.524c1.1084 0 1.8875-.845 1.8875-1.931 0-1.065-.7462-1.932-1.8875-1.932-1.1303 0-1.8766.856-1.8766 1.943 0 1.075.7463 1.92 1.8766 1.92zm-.8889 3.753h1.262l5.2456-7.539h-1.273zm.8889-4.697c-.4499 0-.8011-.395-.8011-.987 0-.593.3292-.977.8011-.977.4609 0 .8011.395.8011.977 0 .603-.3402.987-.8011.987zm4.7078 4.818c1.1084 0 1.8766-.845 1.8766-1.931 0-1.065-.7353-1.932-1.8766-1.932-1.1193 0-1.8875.856-1.8875 1.932 0 1.075.7682 1.931 1.8875 1.931zm0-.955c-.4609 0-.8011-.395-.8011-.976 0-.604.3293-.988.8011-.988.45 0 .8011.395.8011.988 0 .592-.3292.976-.8011.976z" fill="#fff"/><g filter="url(#d)"><path d="m96.3477 128h41.1523v19.407h-33.563l-7.5893 10.228v-10.228z" fill="#c94777"/></g><path d="m104.14 141.154h1.613v-7.539h-1.295l-2.26 1.515.658 1.141 1.284-.801zm4.419.132c.538 0 .977-.461.977-1.021 0-.515-.439-.976-.977-.976-.581 0-1.02.461-1.02.976 0 .56.439 1.021 1.02 1.021zm5.2.011c1.8 0 2.996-1.021 2.996-2.623 0-1.536-1.152-2.392-2.491-2.392-.615 0-1.098.197-1.471.461l.044-1.668h3.512v-1.46h-5.004l-.11 4.072 1.086.438c.406-.307.889-.493 1.46-.493.823 0 1.361.439 1.361 1.097 0 .648-.516 1.152-1.372 1.152-.724 0-1.405-.351-1.975-.889l-.955 1.142c.702.702 1.657 1.163 2.919 1.163zm6.816-7.814c-1.647 0-2.887 1.065-2.887 2.612 0 1.493 1.153 2.393 2.546 2.393.714 0 1.405-.275 1.866-.725-.143 1.273-.801 2.096-1.789 2.096-.636 0-1.075-.23-1.536-.614l-.768 1.229c.614.494 1.371.812 2.304.812 2.096 0 3.468-1.679 3.468-4.027 0-2.195-1.01-3.776-3.204-3.776zm.131 3.688c-.735 0-1.35-.428-1.35-1.153 0-.603.505-1.163 1.306-1.163.845 0 1.251.516 1.394 1.438-.23.538-.735.878-1.35.878zm6.107.23c1.108 0 1.888-.845 1.888-1.931 0-1.065-.747-1.932-1.888-1.932-1.13 0-1.876.856-1.876 1.943 0 1.075.746 1.92 1.876 1.92zm-.889 3.753h1.262l5.246-7.539h-1.273zm.889-4.697c-.45 0-.801-.395-.801-.987 0-.593.329-.977.801-.977.461 0 .801.395.801.977 0 .603-.34.987-.801.987zm4.708 4.818c1.108 0 1.876-.845 1.876-1.931 0-1.065-.735-1.932-1.876-1.932-1.119 0-1.888.856-1.888 1.932 0 1.075.769 1.931 1.888 1.931zm0-.955c-.461 0-.801-.395-.801-.976 0-.604.329-.988.801-.988.45 0 .801.395.801.988 0 .592-.329.976-.801.976z" fill="#fff"/><g filter="url(#e)"><path d="m56.5474 20.2461h-54.54721v28.4346h41.37811l13.1691 18.3201v-18.3201z" fill="#1e1d40"/></g><path d="m11.642 38.6471c2.3734 0 3.9508-1.3459 3.9508-3.4587 0-2.0261-1.5195-3.1549-3.2851-3.1549-.8104 0-1.4472.2605-1.9392.6079l.0579-2.1997h4.6309v-1.9248h-6.59906l-.14472 5.369 1.4327.5789c.53548-.4052 1.17218-.6512 1.92478-.6512 1.0853 0 1.7944.5788 1.7944 1.4471 0 .8539-.6801 1.5196-1.8089 1.5196-.9551 0-1.85239-.4631-2.60492-1.1722l-1.25904 1.505c.92619.9262 2.18523 1.534 3.84946 1.534zm9.9865-6.6136c-.9407 0-1.8524.3618-2.4602.9552.1881-1.6787 1.0564-2.7641 2.3589-2.7641.8394 0 1.4182.3039 2.026.8104l1.0131-1.6208c-.8105-.6513-1.809-1.0709-3.0391-1.0709-2.7641 0-4.5731 2.2141-4.5731 5.3111 0 2.8943 1.3314 4.9782 4.2258 4.9782 2.1707 0 3.806-1.4037 3.806-3.4442 0-1.9682-1.5195-3.1549-3.3574-3.1549zm-.5644 4.7902c-1.1143 0-1.6498-.6802-1.8379-1.8958.3039-.7091.9696-1.1577 1.78-1.1577.9696 0 1.78.5643 1.78 1.5195 0 .7959-.6657 1.534-1.7221 1.534zm7.0113 1.8089c.7091 0 1.288-.6078 1.288-1.3458 0-.6802-.5789-1.288-1.288-1.288-.767 0-1.3458.6078-1.3458 1.288 0 .738.5788 1.3458 1.3458 1.3458zm5.323-.1736h2.1273v-9.9421h-1.7076l-2.9812 1.9971.8683 1.5051 1.6932-1.0565zm6.609-4.9493c1.4617 0 2.4892-1.1144 2.4892-2.5471 0-1.4037-.9841-2.547-2.4892-2.547-1.4905 0-2.4746 1.1288-2.4746 2.5615 0 1.4182.9841 2.5326 2.4746 2.5326zm-1.1722 4.9493h1.6643l6.9175-9.9421h-1.6788zm1.1722-6.1939c-.5933 0-1.0564-.521-1.0564-1.3025 0-.7814.4342-1.2879 1.0564-1.2879.6079 0 1.0565.5209 1.0565 1.2879 0 .796-.4486 1.3025-1.0565 1.3025zm6.2084 6.3531c1.4616 0 2.4747-1.1143 2.4747-2.547 0-1.4038-.9696-2.5471-2.4747-2.5471-1.4761 0-2.4891 1.1288-2.4891 2.5471 0 1.4182 1.013 2.547 2.4891 2.547zm0-1.2591c-.6078 0-1.0564-.5209-1.0564-1.2879 0-.796.4341-1.3025 1.0564-1.3025.5933 0 1.0564.521 1.0564 1.3025 0 .7814-.4341 1.2879-1.0564 1.2879z" fill="#fff"/><g filter="url(#f)"><path d="m56.5474 8h60.1136v34.7609h-42.1476l-17.966 24.2391v-24.2391z" fill="#c94777"/></g><path d="m72.2496 32.3805c3.3619 0 6.1449-1.5808 6.1449-4.3638 0-1.7589-1.2023-3.0947-3.0057-3.8072 1.5363-.6679 2.6272-1.7811 2.6272-3.4955 0-2.6271-2.7162-4.1634-5.7664-4.1634-2.9834 0-5.7442 1.4695-5.7442 4.1634 0 1.7366 1.091 2.8498 2.6049 3.4955-1.7588.6679-3.0056 2.0038-3.0056 3.8072 0 2.7607 2.7607 4.3638 6.1449 4.3638zm0-9.3065c-1.2023-.089-2.4713-.7569-2.4713-1.9369 0-1.0465 1.0019-1.8257 2.4713-1.8257s2.4936.7792 2.4936 1.8257c0 1.1354-1.2913 1.8479-2.4936 1.9369zm0 6.5457c-1.6253 0-2.8053-.8015-2.8053-1.9592 0-1.2023 1.4917-1.9593 2.8053-2.0038 1.3136.0445 2.8275.8015 2.8275 2.0038 0 1.1577-1.2022 1.9592-2.8275 1.9592zm11.6114 2.4936h3.2729v-15.2955h-2.6272l-4.5864 3.0725 1.3358 2.3154 2.6049-1.6252zm10.1678-7.6144c2.2487 0 3.8294-1.7143 3.8294-3.9184 0-2.1597-1.5139-3.9185-3.8294-3.9185-2.2932 0-3.8072 1.7366-3.8072 3.9407 0 2.1819 1.514 3.8962 3.8072 3.8962zm-1.8034 7.6144h2.5604l10.6422-15.2955h-2.583zm1.8034-9.5291c-.9128 0-1.6253-.8015-1.6253-2.0037 0-1.2023.6679-1.9816 1.6253-1.9816.9351 0 1.6253.8015 1.6253 1.9816 0 1.2245-.6902 2.0037-1.6253 2.0037zm9.5512 9.774c2.249 0 3.807-1.7144 3.807-3.9185 0-2.1596-1.491-3.9185-3.807-3.9185-2.271 0-3.8293 1.7366-3.8293 3.9185s1.5583 3.9185 3.8293 3.9185zm0-1.937c-.935 0-1.625-.8015-1.625-1.9815 0-1.2245.668-2.0038 1.625-2.0038.913 0 1.625.8015 1.625 2.0038s-.668 1.9815-1.625 1.9815z" fill="#fff"/><g filter="url(#g)"><path d="m179.25.748047h-45.251v27.638253h32.147l13.104 17.6124v-17.6124z" fill="#c94777"/></g><g filter="url(#h)"><path d="m179.228 7.55078h42.956v24.27492h-32.468l-10.488 14.1333v-14.1333z" fill="#1e1d40"/></g><path d="m188.709 15.3226c-1.604 0-2.813 1.0375-2.813 2.5456 0 1.4546 1.123 2.3316 2.481 2.3316.696 0 1.369-.2674 1.819-.7059-.139 1.2407-.781 2.0428-1.744 2.0428-.62 0-1.048-.2246-1.497-.5989l-.749 1.1979c.599.4813 1.337.7915 2.246.7915 2.043 0 3.38-1.6365 3.38-3.9253 0-2.1391-.984-3.6793-3.123-3.6793zm.128 3.5937c-.716 0-1.315-.4171-1.315-1.123 0-.5883.492-1.1338 1.273-1.1338.823 0 1.219.5027 1.358 1.4012-.225.5241-.717.8556-1.316.8556zm5.375 4.0109c.524 0 .952-.4492.952-.9947 0-.5027-.428-.9519-.952-.9519-.567 0-.995.4492-.995.9519 0 .5455.428.9947.995.9947zm3.934-.1284h1.572v-7.3479h-1.262l-2.203 1.476.641 1.1124 1.252-.7808zm2.906 0h5.551v-1.4225h-3.113l1.337-1.0375c1.284-.9305 1.711-1.6899 1.711-2.6739 0-1.3797-1.133-2.3423-2.695-2.3423-1.187 0-2.118.5134-2.845 1.4332l1.006.9733c.534-.6096 1.08-.9733 1.796-.9733.599 0 1.113.3637 1.113.9733 0 .5134-.278.9947-1.155 1.6899l-2.706 2.0964zm8.517-3.6579c1.08 0 1.84-.8235 1.84-1.8824 0-1.0375-.728-1.8824-1.84-1.8824-1.102 0-1.829.8342-1.829 1.8931 0 1.0482.727 1.8717 1.829 1.8717zm-.866 3.6579h1.23l5.112-7.3479h-1.241zm.866-4.5777c-.439 0-.781-.385-.781-.9626s.321-.9519.781-.9519c.449 0 .781.385.781.9519 0 .5883-.332.9626-.781.9626zm4.588 4.6954c1.081 0 1.829-.8236 1.829-1.8824 0-1.0375-.716-1.8825-1.829-1.8825-1.091 0-1.839.8343-1.839 1.8825 0 1.0481.748 1.8824 1.839 1.8824zm0-.9305c-.449 0-.781-.3851-.781-.9519 0-.5883.321-.9627.781-.9627.439 0 .781.3851.781.9627 0 .5775-.321.9519-.781.9519z" fill="#fff"/><path d="m142.783 19.3926h2.418v-11.30446h-1.941l-3.39 2.27076.987 1.7113 1.926-1.2012zm10.032 0h2.419v-2.3037h1.497v-2.0404h-1.497v-6.94391h-2.929l-5.249 7.10851.23 1.8758h5.529zm-3.209-4.3441 3.209-4.377v4.377zm11.377-1.2835c1.662 0 2.83-1.267 2.83-2.896 0-1.59612-1.118-2.89605-2.83-2.89605-1.695 0-2.814 1.28348-2.814 2.91255 0 1.6125 1.119 2.8795 2.814 2.8795zm-1.333 5.6276h1.893l7.865-11.30446h-1.909zm1.333-7.0427c-.674 0-1.201-.5923-1.201-1.4809 0-.88856.494-1.46448 1.201-1.46448.691 0 1.201.59237 1.201 1.46448 0 .905-.51 1.4809-1.201 1.4809zm7.059 7.2237c1.662 0 2.814-1.267 2.814-2.8961 0-1.5961-1.102-2.896-2.814-2.896-1.678 0-2.83 1.2835-2.83 2.896 0 1.6126 1.152 2.8961 2.83 2.8961zm0-1.4316c-.691 0-1.201-.5924-1.201-1.4645 0-.905.494-1.4809 1.201-1.4809.675 0 1.202.5924 1.202 1.4809 0 .8886-.494 1.4645-1.202 1.4645z" fill="#fff"/><g fill="#000"><path d="m168.567 54.663v-.846h-4.545v6.183h4.545v-.846h-3.627v-1.881h3.276v-.846h-3.276v-1.764zm4.357.684v2.889c0 .612-.567 1.098-1.278 1.098-.63 0-1.071-.477-1.071-1.179v-2.808h-.873v2.961c0 1.071.711 1.8 1.737 1.8.639 0 1.206-.315 1.485-.774v.666h.891v-4.653zm3.253.909v-.909h-.891v4.653h.891v-2.475c0-.9.702-1.512 1.728-1.512v-.774c-.81 0-1.44.396-1.728 1.017zm4.844 3.852c1.341 0 2.448-1.098 2.448-2.439s-1.107-2.43-2.448-2.43-2.448 1.089-2.448 2.43 1.107 2.439 2.448 2.439zm0-.774c-.855 0-1.557-.747-1.557-1.665s.702-1.656 1.557-1.656 1.557.738 1.557 1.656-.702 1.665-1.557 1.665zm6.066-4.095c-.711 0-1.287.342-1.647.9v-.792h-.891v6.201h.891v-2.349c.36.567.936.909 1.647.909 1.233 0 2.142-1.008 2.142-2.439 0-1.422-.909-2.43-2.142-2.43zm-.207 4.095c-.846 0-1.44-.693-1.44-1.665s.594-1.656 1.44-1.656 1.449.684 1.449 1.656-.603 1.665-1.449 1.665zm5.495.036c-.828 0-1.404-.594-1.512-1.413h3.717c0-1.656-.828-2.718-2.25-2.718-1.287 0-2.34 1.026-2.34 2.421 0 1.431 1.116 2.448 2.403 2.448.657 0 1.476-.279 1.881-.72l-.522-.549c-.288.306-.873.531-1.377.531zm-.027-3.393c.81 0 1.278.576 1.368 1.323h-2.844c.135-.801.729-1.323 1.476-1.323z"/><path d="m171.911 136h1.008l-2.655-6.183h-1.008l-2.655 6.183h1.008l.549-1.287h3.204zm-3.411-2.079 1.26-2.934 1.26 2.934zm6.435-3.087c0-.324.216-.558.477-.558.198 0 .378.072.477.171l.324-.594c-.252-.207-.594-.333-.927-.333-.72 0-1.224.522-1.224 1.269v.558h-.702v.756h.702v3.897h.873v-3.897h1.098v-.756h-1.098zm2.835 1.422v-.909h-.891v4.653h.891v-2.475c0-.9.702-1.512 1.728-1.512v-.774c-.81 0-1.44.396-1.728 1.017zm3.224-1.683c.297 0 .531-.252.531-.54 0-.279-.234-.531-.531-.531s-.54.252-.54.531c0 .288.243.54.54.54zm-.45 5.427h.891v-4.653h-.891zm4.417.108c.693 0 1.296-.288 1.746-.747l-.603-.549c-.297.324-.711.522-1.143.522-.846 0-1.557-.756-1.557-1.665 0-.9.711-1.656 1.557-1.656.423 0 .828.189 1.116.504l.603-.558c-.45-.441-1.044-.72-1.719-.72-1.323 0-2.457 1.107-2.457 2.43s1.125 2.439 2.457 2.439zm4.44-4.869c-.513 0-1.098.135-1.764.468l.333.657c.405-.207.846-.387 1.305-.387.927 0 1.197.621 1.197 1.206v.144c-.45-.153-.945-.252-1.404-.252-1.026 0-1.863.621-1.863 1.548 0 .909.738 1.485 1.719 1.485.576 0 1.206-.261 1.548-.738v.63h.873v-2.817c0-1.152-.693-1.944-1.944-1.944zm-.297 4.167c-.594 0-1.044-.306-1.044-.81s.522-.855 1.143-.855c.459 0 .882.063 1.269.18v.621c-.153.576-.792.864-1.368.864z"/><path d="m85.885 171.099c1.458 0 2.25-.792 2.25-1.836 0-1.107-.855-1.521-2.088-1.809-1.017-.243-1.548-.441-1.548-1.017 0-.495.486-.927 1.179-.927.63 0 1.251.279 1.773.756l.522-.684c-.594-.531-1.305-.873-2.25-.873-1.251 0-2.151.774-2.151 1.809 0 1.116.837 1.494 2.097 1.791 1.035.234 1.548.459 1.548 1.044 0 .495-.441.945-1.296.945-.837 0-1.485-.342-2.034-.864l-.54.675c.648.63 1.503.99 2.538.99zm5.499.009c1.341 0 2.448-1.098 2.448-2.439s-1.107-2.43-2.448-2.43-2.448 1.089-2.448 2.43 1.107 2.439 2.448 2.439zm0-.774c-.855 0-1.557-.747-1.557-1.665s.702-1.656 1.557-1.656 1.557.738 1.557 1.656-.702 1.665-1.557 1.665zm6.6516-3.987v2.889c0 .612-.567 1.098-1.278 1.098-.63 0-1.071-.477-1.071-1.179v-2.808h-.873v2.961c0 1.071.711 1.8 1.737 1.8.639 0 1.206-.315 1.485-.774v.666h.891v-4.653zm4.3504 3.816c-.09.099-.27.171-.468.171-.261 0-.486-.234-.486-.558v-2.673h1.098v-.756h-1.098v-1.278h-.873v1.278h-.693v.756h.693v2.736c0 .747.504 1.269 1.224 1.269.333 0 .684-.126.936-.333zm3.639-3.924c-.639 0-1.215.324-1.485.792v-2.322h-.891v6.291h.891v-2.889c0-.612.576-1.098 1.287-1.098.63 0 1.071.477 1.071 1.179v2.808h.864v-2.961c0-1.071-.711-1.8-1.737-1.8zm-22.8694 15.761h1.008l-2.655-6.183h-1.008l-2.655 6.183h1.008l.549-1.287h3.204zm-3.411-2.079 1.26-2.934 1.26 2.934zm10.5836-2.682c-.729 0-1.296.45-1.44 1.107-.234-.675-.819-1.107-1.557-1.107-.603 0-1.089.297-1.323.774v-.666h-.891v4.653h.891v-2.907c0-.639.468-1.08 1.143-1.08.576 0 .981.477.981 1.161v2.826h.873v-2.907c0-.639.477-1.08 1.143-1.08.576 0 .99.477.99 1.161v2.826h.864v-2.961c0-1.053-.702-1.8-1.674-1.8zm5.0581 4.131c-.828 0-1.404-.594-1.512-1.413h3.717c0-1.656-.828-2.718-2.25-2.718-1.287 0-2.34 1.026-2.34 2.421 0 1.431 1.116 2.448 2.403 2.448.657 0 1.476-.279 1.881-.72l-.522-.549c-.288.306-.873.531-1.377.531zm-.027-3.393c.81 0 1.278.576 1.368 1.323h-2.844c.135-.801.729-1.323 1.476-1.323zm4.1665.279v-.909h-.891v4.653h.891v-2.475c0-.9.7022-1.512 1.7282-1.512v-.774c-.81 0-1.4402.396-1.7282 1.017zm3.2242-1.683c.297 0 .531-.252.531-.54 0-.279-.234-.531-.531-.531s-.54.252-.54.531c0 .288.243.54.54.54zm-.45 5.427h.891v-4.653h-.891zm4.416.108c.693 0 1.296-.288 1.746-.747l-.603-.549c-.297.324-.711.522-1.143.522-.846 0-1.557-.756-1.557-1.665 0-.9.711-1.656 1.557-1.656.423 0 .828.189 1.116.504l.603-.558c-.45-.441-1.044-.72-1.719-.72-1.323 0-2.457 1.107-2.457 2.43s1.125 2.439 2.457 2.439zm4.441-4.869c-.513 0-1.098.135-1.764.468l.333.657c.405-.207.846-.387 1.305-.387.927 0 1.197.621 1.197 1.206v.144c-.45-.153-.945-.252-1.404-.252-1.026 0-1.863.621-1.863 1.548 0 .909.738 1.485 1.719 1.485.576 0 1.206-.261 1.548-.738v.63h.873v-2.817c0-1.152-.693-1.944-1.944-1.944zm-.297 4.167c-.594 0-1.044-.306-1.044-.81s.522-.855 1.143-.855c.459 0 .882.063 1.269.18v.621c-.153.576-.792.864-1.368.864z"/><path d="m44.001 79.209h.909v-4.689l3.546 4.689h.918v-6.183h-.918v4.689l-3.546-4.689h-.909zm9.0793.108c1.341 0 2.448-1.098 2.448-2.439s-1.107-2.43-2.448-2.43-2.448 1.089-2.448 2.43 1.107 2.439 2.448 2.439zm0-.774c-.855 0-1.557-.747-1.557-1.665s.702-1.656 1.557-1.656 1.557.738 1.557 1.656-.702 1.665-1.557 1.665zm4.4196-3.078v-.909h-.891v4.653h.891v-2.475c0-.9.702-1.512 1.728-1.512v-.774c-.81 0-1.44.396-1.728 1.017zm4.763 2.907c-.09.099-.27.171-.468.171-.261 0-.486-.234-.486-.558v-2.673h1.098v-.756h-1.098v-1.278h-.873v1.278h-.693v.756h.693v2.736c0 .747.504 1.269 1.224 1.269.333 0 .684-.126.936-.333zm3.639-3.924c-.639 0-1.215.324-1.485.792v-2.322h-.891v6.291h.891v-2.889c0-.612.576-1.098 1.287-1.098.63 0 1.071.477 1.071 1.179v2.808h.864v-2.961c0-1.071-.711-1.8-1.737-1.8zm-22.7463 15.761h1.008l-2.655-6.183h-1.008l-2.655 6.183h1.008l.549-1.287h3.204zm-3.411-2.079 1.26-2.934 1.26 2.934zm10.5836-2.682c-.729 0-1.296.45-1.44 1.107-.234-.675-.819-1.107-1.557-1.107-.603 0-1.089.297-1.323.774v-.666h-.891v4.653h.891v-2.907c0-.639.468-1.08 1.143-1.08.576 0 .981.477.981 1.161v2.826h.873v-2.907c0-.639.477-1.08 1.143-1.08.576 0 .99.477.99 1.161v2.826h.864v-2.961c0-1.053-.702-1.8-1.674-1.8zm5.0581 4.131c-.828 0-1.404-.594-1.512-1.413h3.717c0-1.656-.828-2.718-2.25-2.718-1.287 0-2.34 1.026-2.34 2.421 0 1.431 1.116 2.448 2.403 2.448.657 0 1.476-.279 1.881-.72l-.522-.549c-.288.306-.873.531-1.377.531zm-.027-3.393c.81 0 1.278.576 1.368 1.323h-2.844c.135-.801.729-1.323 1.476-1.323zm4.1665.279v-.909h-.891v4.653h.891v-2.475c0-.9.702-1.512 1.728-1.512v-.774c-.81 0-1.44.396-1.728 1.017zm3.224-1.683c.297 0 .531-.252.531-.54 0-.279-.234-.531-.531-.531s-.54.252-.54.531c0 .288.243.54.54.54zm-.45 5.427h.891v-4.653h-.891zm4.4167.108c.693 0 1.296-.288 1.746-.747l-.603-.549c-.297.324-.711.522-1.143.522-.846 0-1.557-.756-1.557-1.665 0-.9.711-1.656 1.557-1.656.423 0 .828.189 1.116.504l.603-.558c-.45-.441-1.044-.72-1.719-.72-1.323 0-2.457 1.107-2.457 2.43s1.125 2.439 2.457 2.439zm4.4401-4.869c-.513 0-1.098.135-1.764.468l.333.657c.405-.207.846-.387 1.305-.387.927 0 1.197.621 1.197 1.206v.144c-.45-.153-.945-.252-1.404-.252-1.026 0-1.863.621-1.863 1.548 0 .909.738 1.485 1.719 1.485.576 0 1.206-.261 1.548-.738v.63h.873v-2.817c0-1.152-.693-1.944-1.944-1.944zm-.297 4.167c-.594 0-1.044-.306-1.044-.81s.522-.855 1.143-.855c.459 0 .882.063 1.269.18v.621c-.153.576-.792.864-1.368.864z"/><path d="m269.932 90h1.008l-2.655-6.183h-1.008l-2.655 6.183h1.008l.549-1.287h3.204zm-3.411-2.079 1.26-2.934 1.26 2.934zm6.903 2.187c1.026 0 1.764-.558 1.764-1.44 0-.927-.81-1.179-1.575-1.404-.792-.243-1.107-.351-1.107-.711 0-.387.378-.594.846-.594.423 0 .891.162 1.35.45l.369-.63c-.495-.333-1.116-.54-1.719-.54-.981 0-1.692.558-1.692 1.413 0 .756.54 1.062 1.602 1.359.594.162 1.08.306 1.08.747 0 .378-.351.63-.909.63-.513 0-1.071-.207-1.584-.585l-.405.612c.558.45 1.296.693 1.98.693zm3.297-5.535c.297 0 .531-.252.531-.54 0-.279-.234-.531-.531-.531s-.54.252-.54.531c0 .288.243.54.54.54zm-.45 5.427h.891v-4.653h-.891zm4.11-4.761c-.513 0-1.098.135-1.764.468l.333.657c.405-.207.846-.387 1.305-.387.927 0 1.197.621 1.197 1.206v.144c-.45-.153-.945-.252-1.404-.252-1.026 0-1.863.621-1.863 1.548 0 .909.738 1.485 1.719 1.485.576 0 1.206-.261 1.548-.738v.63h.873v-2.817c0-1.152-.693-1.944-1.944-1.944zm-.297 4.167c-.594 0-1.044-.306-1.044-.81s.522-.855 1.143-.855c.459 0 .882.063 1.269.18v.621c-.153.576-.792.864-1.368.864z"/></g><g filter="url(#i)"><path d="m274.315 46.3438h36.291v19.5486h-28.434l-7.857 10.5874v-10.5874z" fill="#c94777"/></g><path d="m287.814 60.1242c1.863 0 3.101-1.0564 3.101-2.715 0-1.5904-1.193-2.4764-2.578-2.4764-.637 0-1.136.2045-1.523.4771l.046-1.7267h3.635v-1.5109h-5.18l-.114 4.2145 1.125.4544c.42-.318.92-.5112 1.511-.5112.852 0 1.408.4544 1.408 1.136 0 .6703-.534 1.1928-1.42 1.1928-.749 0-1.454-.3635-2.044-.9201l-.989 1.1814c.727.727 1.716 1.2041 3.022 1.2041zm6.169-4.0327c1.148 0 1.954-.8747 1.954-1.9994 0-1.1019-.772-1.9993-1.954-1.9993-1.17 0-1.942.8861-1.942 2.0107 0 1.1133.772 1.988 1.942 1.988zm-.92 3.8851h1.306l5.43-7.8043h-1.317zm.92-4.8621c-.466 0-.829-.4089-.829-1.0224 0-.6134.341-1.011.829-1.011.477 0 .83.409.83 1.011 0 .6248-.353 1.0224-.83 1.0224zm4.874 4.987c1.147 0 1.942-.8747 1.942-1.9993 0-1.1019-.761-1.9994-1.942-1.9994-1.159 0-1.954.8861-1.954 1.9994s.795 1.9993 1.954 1.9993zm0-.9883c-.477 0-.83-.4089-.83-1.011 0-.6248.341-1.0224.83-1.0224.465 0 .829.4089.829 1.0224 0 .6134-.341 1.011-.829 1.011z" fill="#fff"/><g filter="url(#j)"><path d="m274.309 34h-50.131v26.8466h38.532l11.599 15.6306v-15.6306z" fill="#1e1d40"/></g><path d="m235.591 51.8887h7.266v-1.862h-4.074l1.75-1.358c1.68-1.218 2.24-2.212 2.24-3.5 0-1.806-1.484-3.066-3.528-3.066-1.554 0-2.772.672-3.724 1.876l1.316 1.274c.7-.798 1.414-1.274 2.352-1.274.784 0 1.456.476 1.456 1.274 0 .672-.364 1.302-1.512 2.212l-3.542 2.744zm13.291 0h2.058v-1.96h1.274v-1.736h-1.274v-5.908h-2.492l-4.466 6.048.196 1.596h4.704zm-2.73-3.696 2.73-3.724v3.724zm9.679-1.092c1.414 0 2.408-1.078 2.408-2.464 0-1.358-.952-2.464-2.408-2.464-1.442 0-2.394 1.092-2.394 2.478 0 1.372.952 2.45 2.394 2.45zm-1.134 4.788h1.61l6.692-9.618h-1.624zm1.134-5.992c-.574 0-1.022-.504-1.022-1.26s.42-1.246 1.022-1.246c.588 0 1.022.504 1.022 1.246 0 .77-.434 1.26-1.022 1.26zm6.006 6.146c1.414 0 2.394-1.078 2.394-2.464 0-1.358-.938-2.464-2.394-2.464-1.428 0-2.408 1.092-2.408 2.464s.98 2.464 2.408 2.464zm0-1.218c-.588 0-1.022-.504-1.022-1.246 0-.77.42-1.26 1.022-1.26.574 0 1.022.504 1.022 1.26s-.42 1.246-1.022 1.246z" fill="#fff"/><path d="m269.022 164.492h1.008l-2.655-6.183h-1.008l-2.655 6.183h1.008l.549-1.287h3.204zm-3.411-2.079 1.26-2.934 1.26 2.934zm8.496-2.574v2.889c0 .612-.567 1.098-1.278 1.098-.63 0-1.071-.477-1.071-1.179v-2.808h-.873v2.961c0 1.071.711 1.8 1.737 1.8.639 0 1.206-.315 1.485-.774v.666h.891v-4.653zm3.891 4.761c1.026 0 1.764-.558 1.764-1.44 0-.927-.81-1.179-1.575-1.404-.792-.243-1.107-.351-1.107-.711 0-.387.378-.594.846-.594.423 0 .891.162 1.35.45l.369-.63c-.495-.333-1.116-.54-1.719-.54-.981 0-1.692.558-1.692 1.413 0 .756.54 1.062 1.602 1.359.594.162 1.08.306 1.08.747 0 .378-.351.63-.909.63-.513 0-1.071-.207-1.584-.585l-.405.612c.558.45 1.296.693 1.98.693zm4.836-.945c-.09.099-.27.171-.468.171-.261 0-.486-.234-.486-.558v-2.673h1.098v-.756h-1.098v-1.278h-.873v1.278h-.693v.756h.693v2.736c0 .747.504 1.269 1.224 1.269.333 0 .684-.126.936-.333zm2.154-2.907v-.909h-.891v4.653h.891v-2.475c0-.9.702-1.512 1.728-1.512v-.774c-.81 0-1.44.396-1.728 1.017zm4.538-1.017c-.513 0-1.098.135-1.764.468l.333.657c.405-.207.846-.387 1.305-.387.927 0 1.197.621 1.197 1.206v.144c-.45-.153-.945-.252-1.404-.252-1.026 0-1.863.621-1.863 1.548 0 .909.738 1.485 1.719 1.485.576 0 1.206-.261 1.548-.738v.63h.873v-2.817c0-1.152-.693-1.944-1.944-1.944zm-.297 4.167c-.594 0-1.044-.306-1.044-.81s.522-.855 1.143-.855c.459 0 .882.063 1.269.18v.621c-.153.576-.792.864-1.368.864zm3.604.594h.891v-6.291h-.891zm2.797-5.427c.297 0 .531-.252.531-.54 0-.279-.234-.531-.531-.531s-.54.252-.54.531c0 .288.243.54.54.54zm-.45 5.427h.891v-4.653h-.891zm4.111-4.761c-.513 0-1.098.135-1.764.468l.333.657c.405-.207.846-.387 1.305-.387.927 0 1.197.621 1.197 1.206v.144c-.45-.153-.945-.252-1.404-.252-1.026 0-1.863.621-1.863 1.548 0 .909.738 1.485 1.719 1.485.576 0 1.206-.261 1.548-.738v.63h.873v-2.817c0-1.152-.693-1.944-1.944-1.944zm-.297 4.167c-.594 0-1.044-.306-1.044-.81s.522-.855 1.143-.855c.459 0 .882.063 1.269.18v.621c-.153.576-.792.864-1.368.864zm-32.493 11.324-1.017-1.035c.315-.441.603-.954.864-1.521l-.711-.324c-.18.477-.405.918-.666 1.305-.504-.531-.891-.963-1.26-1.386.918-.396 1.476-.774 1.476-1.548 0-.819-.666-1.476-1.557-1.476-.945 0-1.629.657-1.629 1.485 0 .459.144.846.495 1.332-.954.423-1.395.981-1.395 1.782 0 1.098.864 1.764 1.989 1.764.747 0 1.35-.297 1.863-.792.225.234.477.495.756.774zm-2.862-5.274c.423 0 .72.342.72.774 0 .477-.324.72-1.08 1.017-.306-.387-.459-.702-.459-1.017 0-.477.36-.774.819-.774zm-.477 4.914c-.639 0-1.17-.396-1.17-1.062 0-.504.333-.9.927-1.197.387.459.846.972 1.521 1.674-.387.36-.819.585-1.278.585zm9.965.738c1.746 0 3.204-1.467 3.204-3.204s-1.458-3.195-3.204-3.195c-1.728 0-3.204 1.458-3.204 3.195s1.476 3.204 3.204 3.204zm0-.837c-1.233 0-2.277-1.08-2.277-2.367 0-1.278 1.044-2.358 2.277-2.358s2.277 1.08 2.277 2.358c0 1.287-1.044 2.367-2.277 2.367zm6.484.837c.693 0 1.296-.288 1.746-.747l-.603-.549c-.297.324-.711.522-1.143.522-.846 0-1.557-.756-1.557-1.665 0-.9.711-1.656 1.557-1.656.423 0 .828.189 1.116.504l.603-.558c-.45-.441-1.044-.72-1.719-.72-1.323 0-2.457 1.107-2.457 2.43s1.125 2.439 2.457 2.439zm4.701-.738c-.828 0-1.404-.594-1.512-1.413h3.717c0-1.656-.828-2.718-2.25-2.718-1.287 0-2.34 1.026-2.34 2.421 0 1.431 1.116 2.448 2.403 2.448.657 0 1.476-.279 1.881-.72l-.522-.549c-.288.306-.873.531-1.377.531zm-.027-3.393c.81 0 1.278.576 1.368 1.323h-2.844c.135-.801.729-1.323 1.476-1.323zm5.039-.738c-.513 0-1.098.135-1.764.468l.333.657c.405-.207.846-.387 1.305-.387.927 0 1.197.621 1.197 1.206v.144c-.45-.153-.945-.252-1.404-.252-1.026 0-1.863.621-1.863 1.548 0 .909.738 1.485 1.719 1.485.576 0 1.206-.261 1.548-.738v.63h.873v-2.817c0-1.152-.693-1.944-1.944-1.944zm-.297 4.167c-.594 0-1.044-.306-1.044-.81s.522-.855 1.143-.855c.459 0 .882.063 1.269.18v.621c-.153.576-.792.864-1.368.864zm5.98-4.167c-.639 0-1.215.324-1.485.792v-.684h-.891v4.653h.891v-2.889c0-.612.576-1.098 1.287-1.098.63 0 1.071.477 1.071 1.179v2.808h.864v-2.961c0-1.071-.711-1.8-1.737-1.8zm3.55-.666c.297 0 .531-.252.531-.54 0-.279-.234-.531-.531-.531s-.54.252-.54.531c0 .288.243.54.54.54zm-.45 5.427h.891v-4.653h-.891zm4.111-4.761c-.513 0-1.098.135-1.764.468l.333.657c.405-.207.846-.387 1.305-.387.927 0 1.197.621 1.197 1.206v.144c-.45-.153-.945-.252-1.404-.252-1.026 0-1.863.621-1.863 1.548 0 .909.738 1.485 1.719 1.485.576 0 1.206-.261 1.548-.738v.63h.873v-2.817c0-1.152-.693-1.944-1.944-1.944zm-.297 4.167c-.594 0-1.044-.306-1.044-.81s.522-.855 1.143-.855c.459 0 .882.063 1.269.18v.621c-.153.576-.792.864-1.368.864z" fill="#000"/><g filter="url(#k)"><path d="m179.415 82h-44.915v24.781h34.209l10.706 14.428v-14.428z" fill="#1e1d40"/></g><path d="m142.417 98.8047h1.744v-8.1504h-1.4l-2.444 1.6372.712 1.2338 1.388-.8661zm4.777.1424c.581 0 1.056-.4983 1.056-1.1034 0-.5576-.475-1.0559-1.056-1.0559-.629 0-1.103.4983-1.103 1.0559 0 .6051.474 1.1034 1.103 1.1034zm6.428-5.4099c-.771 0-1.518.2966-2.017.783.154-1.3762.866-2.266 1.934-2.266.688 0 1.163.2491 1.661.6644l.83-1.3288c-.664-.5338-1.483-.8779-2.491-.8779-2.266 0-3.749 1.8152-3.749 4.354 0 2.3728 1.092 4.0812 3.464 4.0812 1.78 0 3.12-1.1508 3.12-2.8236 0-1.6135-1.245-2.5863-2.752-2.5863zm-.463 3.9269c-.913 0-1.352-.5576-1.506-1.5542.249-.5813.795-.9491 1.459-.9491.795 0 1.459.4627 1.459 1.2457 0 .6525-.546 1.2576-1.412 1.2576zm7.302 1.4948c1.91 0 3.144-1.0203 3.144-2.4321 0-1.0796-.818-1.7083-1.708-1.91.902-.261 1.53-.9373 1.53-1.8745 0-1.2932-1.15-2.2304-2.977-2.2304-1.448 0-2.421.6288-3.097 1.4474l1.008 1.0677c.546-.5694 1.151-.9491 1.911-.9491.806 0 1.376.3797 1.376.9729 0 .5813-.534.9135-1.424.9135l-.937-.0119v1.4948h.937c1.092-.0118 1.59.3085 1.59.9373 0 .5813-.534.9965-1.424.9965-.818 0-1.59-.344-2.171-.9609l-1.032 1.1626c.688.7949 1.815 1.3762 3.274 1.3762zm6.409-4.2116c1.198 0 2.041-.9135 2.041-2.0881 0-1.1507-.807-2.088-2.041-2.088-1.222 0-2.029.9254-2.029 2.0999 0 1.1627.807 2.0762 2.029 2.0762zm-.961 4.0574h1.364l5.671-8.1504h-1.376zm.961-5.0777c-.486 0-.866-.4271-.866-1.0678 0-.6406.356-1.0558.866-1.0558.498 0 .866.4271.866 1.0558 0 .6526-.368 1.0678-.866 1.0678zm5.09 5.2082c1.198 0 2.028-.9135 2.028-2.088 0-1.1508-.795-2.0881-2.028-2.0881-1.21 0-2.041.9254-2.041 2.0881 0 1.1626.831 2.088 2.041 2.088zm0-1.0322c-.499 0-.866-.4271-.866-1.0558 0-.6525.355-1.0678.866-1.0678.486 0 .866.4271.866 1.0678 0 .6406-.356 1.0558-.866 1.0558z" fill="#fff"/><g filter="url(#l)"><path d="m179.328 88.0527h43.672v19.6403h-33.808l-9.864 13.292v-13.292z" fill="#c94777"/></g><path d="m188.878 101.278c1.986 0 3.38-1.613 3.38-3.9066 0-2.2826-1.394-3.8957-3.38-3.8957s-3.391 1.6131-3.391 3.8957c0 2.2936 1.405 3.9066 3.391 3.9066zm0-1.4703c-1.01 0-1.723-1.0206-1.723-2.4363 0-1.4156.713-2.4252 1.723-2.4252 1.009 0 1.723 1.0096 1.723 2.4252 0 1.4157-.714 2.4363-1.723 2.4363zm5.793 1.4703c.538 0 .977-.461.977-1.02 0-.5162-.439-.9771-.977-.9771-.582 0-1.021.4609-1.021.9771 0 .559.439 1.02 1.021 1.02zm4.036-.132h1.614v-7.5387h-1.295l-2.261 1.5145.658 1.1413 1.284-.8011zm5.868-7.6703c-1.646 0-2.886 1.0644-2.886 2.6118 0 1.4924 1.152 2.3923 2.546 2.3923.713 0 1.405-.2743 1.865-.7243-.142 1.273-.801 2.0961-1.788 2.0961-.637 0-1.076-.2305-1.537-.6146l-.768 1.229c.615.494 1.372.812 2.305.812 2.096 0 3.467-1.6788 3.467-4.0273 0-2.1948-1.009-3.775-3.204-3.775zm.132 3.6872c-.736 0-1.35-.428-1.35-1.1522 0-.6036.505-1.1633 1.306-1.1633.845 0 1.251.5158 1.394 1.4376-.231.5377-.736.8779-1.35.8779zm6.107.2305c1.108 0 1.887-.845 1.887-1.9314 0-1.0645-.746-1.9315-1.887-1.9315-1.131 0-1.877.856-1.877 1.9424 0 1.0755.746 1.9205 1.877 1.9205zm-.889 3.7526h1.262l5.245-7.5387h-1.273zm.889-4.6964c-.45 0-.802-.3951-.802-.9876 0-.5926.33-.9767.802-.9767.46 0 .801.395.801.9767 0 .6035-.341.9876-.801.9876zm4.707 4.8174c1.109 0 1.877-.845 1.877-1.9312 0-1.0645-.735-1.9314-1.877-1.9314-1.119 0-1.887.8559-1.887 1.9314 0 1.0752.768 1.9312 1.887 1.9312zm0-.955c-.46 0-.801-.3946-.801-.9762 0-.6036.33-.9877.801-.9877.45 0 .802.3951.802.9877s-.33.9762-.802.9762z" fill="#fff"/></svg>