<svg fill="none" height="517" viewBox="0 0 1027 517" width="1027" xmlns="http://www.w3.org/2000/svg" xmlns:xlink="http://www.w3.org/1999/xlink"><filter id="a" color-interpolation-filters="sRGB" filterUnits="userSpaceOnUse" height="69.9886" width="65.6229" x="854.237" y="115.684"><feFlood flood-opacity="0" result="BackgroundImageFix"/><feColorMatrix in="SourceAlpha" result="hardAlpha" type="matrix" values="0 0 0 0 0 0 0 0 0 0 0 0 0 0 0 0 0 0 127 0"/><feOffset dy="1.35951"/><feGaussianBlur stdDeviation=".849693"/><feComposite in2="hardAlpha" operator="out"/><feColorMatrix type="matrix" values="0 0 0 0 0 0 0 0 0 0 0 0 0 0 0 0 0 0 0.1 0"/><feBlend in2="BackgroundImageFix" mode="normal" result="effect1_dropShadow_3301_985"/><feBlend in="SourceGraphic" in2="effect1_dropShadow_3301_985" mode="normal" result="shape"/></filter><filter id="b" color-interpolation-filters="sRGB" filterUnits="userSpaceOnUse" height="107.565" width="111.306" x="746.991" y="79.4982"><feFlood flood-opacity="0" result="BackgroundImageFix"/><feColorMatrix in="SourceAlpha" result="hardAlpha" type="matrix" values="0 0 0 0 0 0 0 0 0 0 0 0 0 0 0 0 0 0 127 0"/><feOffset dy="2.0071"/><feGaussianBlur stdDeviation="1.25444"/><feComposite in2="hardAlpha" operator="out"/><feColorMatrix type="matrix" values="0 0 0 0 0 0 0 0 0 0 0 0 0 0 0 0 0 0 0.1 0"/><feBlend in2="BackgroundImageFix" mode="normal" result="effect1_dropShadow_3301_985"/><feBlend in="SourceGraphic" in2="effect1_dropShadow_3301_985" mode="normal" result="shape"/></filter><filter id="c" color-interpolation-filters="sRGB" filterUnits="userSpaceOnUse" height="76.916" width="81.4238" x="761.665" y="351.399"><feFlood flood-opacity="0" result="BackgroundImageFix"/><feColorMatrix in="SourceAlpha" result="hardAlpha" type="matrix" values="0 0 0 0 0 0 0 0 0 0 0 0 0 0 0 0 0 0 127 0"/><feOffset dy="2.40234"/><feGaussianBlur stdDeviation="1.50146"/><feComposite in2="hardAlpha" operator="out"/><feColorMatrix type="matrix" values="0 0 0 0 0 0 0 0 0 0 0 0 0 0 0 0 0 0 0.1 0"/><feBlend in2="BackgroundImageFix" mode="normal" result="effect1_dropShadow_3301_985"/><feBlend in="SourceGraphic" in2="effect1_dropShadow_3301_985" mode="normal" result="shape"/></filter><filter id="d" color-interpolation-filters="sRGB" filterUnits="userSpaceOnUse" height="65.9588" width="77.5066" x="837.61" y="362.38"><feFlood flood-opacity="0" result="BackgroundImageFix"/><feColorMatrix in="SourceAlpha" result="hardAlpha" type="matrix" values="0 0 0 0 0 0 0 0 0 0 0 0 0 0 0 0 0 0 127 0"/><feOffset dy="1.97883"/><feGaussianBlur stdDeviation="1.23677"/><feComposite in2="hardAlpha" operator="out"/><feColorMatrix type="matrix" values="0 0 0 0 0 0 0 0 0 0 0 0 0 0 0 0 0 0 0.1 0"/><feBlend in2="BackgroundImageFix" mode="normal" result="effect1_dropShadow_3301_985"/><feBlend in="SourceGraphic" in2="effect1_dropShadow_3301_985" mode="normal" result="shape"/></filter><filter id="e" color-interpolation-filters="sRGB" filterUnits="userSpaceOnUse" height="84.967" width="99.6169" x="211.167" y="312.633"><feFlood flood-opacity="0" result="BackgroundImageFix"/><feColorMatrix in="SourceAlpha" result="hardAlpha" type="matrix" values="0 0 0 0 0 0 0 0 0 0 0 0 0 0 0 0 0 0 127 0"/><feOffset dy="1.46651"/><feGaussianBlur stdDeviation=".916566"/><feComposite in2="hardAlpha" operator="out"/><feColorMatrix type="matrix" values="0 0 0 0 0 0 0 0 0 0 0 0 0 0 0 0 0 0 0.1 0"/><feBlend in2="BackgroundImageFix" mode="normal" result="effect1_dropShadow_3301_985"/><feBlend in="SourceGraphic" in2="effect1_dropShadow_3301_985" mode="normal" result="shape"/></filter><filter id="f" color-interpolation-filters="sRGB" filterUnits="userSpaceOnUse" height="71.5731" width="65.2752" x="306.821" y="327.826"><feFlood flood-opacity="0" result="BackgroundImageFix"/><feColorMatrix in="SourceAlpha" result="hardAlpha" type="matrix" values="0 0 0 0 0 0 0 0 0 0 0 0 0 0 0 0 0 0 127 0"/><feOffset dy="1.70344"/><feGaussianBlur stdDeviation="1.06465"/><feComposite in2="hardAlpha" operator="out"/><feColorMatrix type="matrix" values="0 0 0 0 0 0 0 0 0 0 0 0 0 0 0 0 0 0 0.1 0"/><feBlend in2="BackgroundImageFix" mode="normal" result="effect1_dropShadow_3301_985"/><feBlend in="SourceGraphic" in2="effect1_dropShadow_3301_985" mode="normal" result="shape"/></filter><filter id="g" color-interpolation-filters="sRGB" filterUnits="userSpaceOnUse" height="74.4012" width="86.1248" x="306.821" y="324.998"><feFlood flood-opacity="0" result="BackgroundImageFix"/><feColorMatrix in="SourceAlpha" result="hardAlpha" type="matrix" values="0 0 0 0 0 0 0 0 0 0 0 0 0 0 0 0 0 0 127 0"/><feOffset dy="1.70344"/><feGaussianBlur stdDeviation="1.06465"/><feComposite in2="hardAlpha" operator="out"/><feColorMatrix type="matrix" values="0 0 0 0 0 0 0 0 0 0 0 0 0 0 0 0 0 0 0.1 0"/><feBlend in2="BackgroundImageFix" mode="normal" result="effect1_dropShadow_3301_985"/><feBlend in="SourceGraphic" in2="effect1_dropShadow_3301_985" mode="normal" result="shape"/></filter><filter id="h" color-interpolation-filters="sRGB" filterUnits="userSpaceOnUse" height="109.908" width="112.018" x="388.279" y="56.4559"><feFlood flood-opacity="0" result="BackgroundImageFix"/><feColorMatrix in="SourceAlpha" result="hardAlpha" type="matrix" values="0 0 0 0 0 0 0 0 0 0 0 0 0 0 0 0 0 0 127 0"/><feOffset dy="2.17656"/><feGaussianBlur stdDeviation="1.36035"/><feComposite in2="hardAlpha" operator="out"/><feColorMatrix type="matrix" values="0 0 0 0 0 0 0 0 0 0 0 0 0 0 0 0 0 0 0.1 0"/><feBlend in2="BackgroundImageFix" mode="normal" result="effect1_dropShadow_3301_985"/><feBlend in="SourceGraphic" in2="effect1_dropShadow_3301_985" mode="normal" result="shape"/></filter><filter id="i" color-interpolation-filters="sRGB" filterUnits="userSpaceOnUse" height="87.7734" width="87.773" x="494.402" y="79.408"><feFlood flood-opacity="0" result="BackgroundImageFix"/><feColorMatrix in="SourceAlpha" result="hardAlpha" type="matrix" values="0 0 0 0 0 0 0 0 0 0 0 0 0 0 0 0 0 0 127 0"/><feOffset dy="2.53984"/><feGaussianBlur stdDeviation="1.5874"/><feComposite in2="hardAlpha" operator="out"/><feColorMatrix type="matrix" values="0 0 0 0 0 0 0 0 0 0 0 0 0 0 0 0 0 0 0.1 0"/><feBlend in2="BackgroundImageFix" mode="normal" result="effect1_dropShadow_3301_985"/><feBlend in="SourceGraphic" in2="effect1_dropShadow_3301_985" mode="normal" result="shape"/></filter><filter id="j" color-interpolation-filters="sRGB" filterUnits="userSpaceOnUse" height="158.998" width="134.579" x="179.706" y="45.6582"><feFlood flood-opacity="0" result="BackgroundImageFix"/><feColorMatrix in="SourceAlpha" result="hardAlpha" type="matrix" values="0 0 0 0 0 0 0 0 0 0 0 0 0 0 0 0 0 0 127 0"/><feOffset dy="3.82799"/><feGaussianBlur stdDeviation="2.3925"/><feComposite in2="hardAlpha" operator="out"/><feColorMatrix type="matrix" values="0 0 0 0 0 0 0 0 0 0 0 0 0 0 0 0 0 0 0.1 0"/><feBlend in2="BackgroundImageFix" mode="normal" result="effect1_dropShadow_3301_985"/><feBlend in="SourceGraphic" in2="effect1_dropShadow_3301_985" mode="normal" result="shape"/></filter><filter id="k" color-interpolation-filters="sRGB" filterUnits="userSpaceOnUse" height="123.403" width="151.036" x="36.9773" y="78.981"><feFlood flood-opacity="0" result="BackgroundImageFix"/><feColorMatrix in="SourceAlpha" result="hardAlpha" type="matrix" values="0 0 0 0 0 0 0 0 0 0 0 0 0 0 0 0 0 0 127 0"/><feOffset dy="2.81814"/><feGaussianBlur stdDeviation="1.76134"/><feComposite in2="hardAlpha" operator="out"/><feColorMatrix type="matrix" values="0 0 0 0 0 0 0 0 0 0 0 0 0 0 0 0 0 0 0.1 0"/><feBlend in2="BackgroundImageFix" mode="normal" result="effect1_dropShadow_3301_985"/><feBlend in="SourceGraphic" in2="effect1_dropShadow_3301_985" mode="normal" result="shape"/></filter><filter id="l" color-interpolation-filters="sRGB" filterUnits="userSpaceOnUse" height="90.0111" width="96.0912" x="444.8" y="250.36"><feFlood flood-opacity="0" result="BackgroundImageFix"/><feColorMatrix in="SourceAlpha" result="hardAlpha" type="matrix" values="0 0 0 0 0 0 0 0 0 0 0 0 0 0 0 0 0 0 127 0"/><feOffset dy="2.55993"/><feGaussianBlur stdDeviation="1.59995"/><feComposite in2="hardAlpha" operator="out"/><feColorMatrix type="matrix" values="0 0 0 0 0 0 0 0 0 0 0 0 0 0 0 0 0 0 0.1 0"/><feBlend in2="BackgroundImageFix" mode="normal" result="effect1_dropShadow_3301_985"/><feBlend in="SourceGraphic" in2="effect1_dropShadow_3301_985" mode="normal" result="shape"/></filter><filter id="m" color-interpolation-filters="sRGB" filterUnits="userSpaceOnUse" height="68.4928" width="82.2389" x="534.538" y="271.668"><feFlood flood-opacity="0" result="BackgroundImageFix"/><feColorMatrix in="SourceAlpha" result="hardAlpha" type="matrix" values="0 0 0 0 0 0 0 0 0 0 0 0 0 0 0 0 0 0 127 0"/><feOffset dy="2.46039"/><feGaussianBlur stdDeviation="1.53774"/><feComposite in2="hardAlpha" operator="out"/><feColorMatrix type="matrix" values="0 0 0 0 0 0 0 0 0 0 0 0 0 0 0 0 0 0 0.1 0"/><feBlend in2="BackgroundImageFix" mode="normal" result="effect1_dropShadow_3301_985"/><feBlend in="SourceGraphic" in2="effect1_dropShadow_3301_985" mode="normal" result="shape"/></filter><clipPath id="n"><path d="m0 .615234h1027v516h-1027z"/></clipPath><g clip-path="url(#n)" fill="#000" opacity=".05"><path d="m501.977 177c1.658.883 3-1.276 3.338-3.597.011-.087.011-.164.022-.251.021-.174.043-.36.054-.534 0-.153 0-.305 0-.458 0-.109 0-.218 0-.316-.076-1.264-.523-2.387-1.44-2.877-1.875 1.035-2.323 2.463-2.323 4.076 0 1.254.273 2.605.349 3.957z"/><path d="m523.354 15.9077c-1.8.6758-3.588 1.3516-5.911 2.2235 2.268 3.3788 4.351 4.4143 6.315 4.2617 1.188-.0872 2.344-.6213 3.479-1.3297 3.632-2.278 7.056-6.4307 10.862-3.9674 2.825 4.2943 5.694 3.7603 9.511 1.624-8.736-6.9102-19.185-8.7086-26.405-8.3926-4.667.2071-7.983 1.2971-8.605 2.4633-.72 1.3515 2.171 2.8012 10.743 3.1063z"/><path d="m623.202 297.93c-.065 0-.131 0-.207 0s-.142 0-.218.011c-.48.022-.993.109-1.56.229-3.13.621-7.176 2.267-9.968 3.041-.698.174-1.385.316-2.051.403-2.835-1.526-5.387-3.444-7.732-5.646-2.738-5.014-6.98-9.286-10.503-13.897-2.116-3.727-4.014-7.705-5.802-11.793-.229-1.275-.349-2.605-.317-4-1.559-1.678-2.835-3.891-3.98-6.376-.862-2.147-1.702-4.294-2.553-6.42-1.952-5.417-3.784-11.063-6.489-14.921-.131-.273-.272-.556-.403-.818-2.891-5.645-10.438-4.13-17.571-4.479-6.718-2.376-13.48-6.322-17.123-1.7-.839.839-1.559 1.809-2.312 2.659-5.224-.589-9.423-1.275-12.76-2.038-4.69-2.823-9.434-3.76-11.965-5.722-1.952-2.802-.414-5.635-.905-7.641.404-.959.927-2.027 1.603-3.215-5.409-.938-10.917-.371-16.414.665-7.023.457-17.286 1.624-32.272 3.738-3.599 1.624-5.9 3.946-7.59 6.518-1.364 1.243-2.585 2.572-3.621 4.262-.655 4.774-3.152 8.588-6.239 12.142-1.309.948-2.868 1.711-4.831 2.223-1.102 2.551-2.694 5.068-4.319 7.619-3.534 4.207-6.282 8.905-6.337 15.15 5.65 10.038-5.671 21.014 2.563 29.668.12.131.229.262.36.382 5.181 4.501 10.034 14.213 16.141 19.586 1.506 1.33 3.087 2.398 4.777 3.041 2.836 1.09 5.955 1.024 9.478-.894 5.966 2.224 13.197-1.668 19.49-3.401 4.744-1.307 8.954-1.406 11.691 3.27 2.956 2.562 7.111 2.518 9.882 3.466 2.541.872 3.904 2.594 2.115 7.924-.098.284-.196.567-.305.861-.196.818-.327 1.613-.414 2.398-1.287 12.425 11.266 21.657 11.571 35.009 1.211 4.719-.589 9.014-2.345 13.308-2.29 5.603-4.482 11.205.208 17.788.414.643.796 1.33 1.167 2.038 3.98 7.608 5.856 18.813 8.867 28.426 2.388 7.64 5.518 14.256 10.993 17.243.687.381 1.407.719 2.181.97.469.022.917.022 1.375.022 10.47.185 17.755-3.499 23.448-9.221 5.497-5.494 9.5-12.883 13.393-20.644.208-.403.404-.795.611-1.199 3.512-1.253 4.548-3.302 4.635-5.689 0-.066 0-.131 0-.196 0-.033 0-.077 0-.109 0-5.406-4.58-12.415 3.065-15.859.153-.065.284-.142.426-.207 5.943-2.834 8.921-6.649 10.055-11.194 1.145-4.469.491-9.657-.894-15.39-.022-.076-.033-.152-.055-.229-.414-1.057-.752-2.092-1.036-3.117-3.01-11.008 1.811-19.695 8.66-27.979 9.238-11.161 22.151-21.591 24.507-36v-.022c1.145-3.118-.022-4.098-2.182-4.055z"/><path d="m904.816 399.686c-12.903-18.039-14.517-40.808-19.174-4.273-25.204-10.997-4.886-18.834-18.966-20.033-8.54-2.605-12.695 5.047-17.417 10.725-5.399-9.406-10.449 1.591-15.259 6.006-2.912 11.095-24.55 8.152-27.244 21.668 4.156 9.537.938 41.418 13.851 36.164 53.42-23.913 39.296 4.196 55.634-5.21 3.381 11.15 13.589 21.123 25.663 17.646 25.433-9.929 24.67-47.292 2.923-62.682z"/><path d="m710.649 304.469c-1.254.73-1.93 2.332-2.083 4.142-.076.937-.011 1.94.186 2.91.469 2.212 1.668 4.272 3.566 5.122 1.974-1.918 2.345-3.673 1.941-5.395-.523-2.223-2.323-4.381-3.61-6.779z"/><path d="m235.087 43.6788c1.494-.6213 2.64-1.1662 3.49-1.6458 9.26-5.1554-16.37-2.4197-28.193-5.7222-.218-.0654-.436-.1308-.654-.1962h-.022c-1.538-.4905-2.803-1.0899-3.665-1.8529 1.113 14.4853 18.618 7.6732 29.033 9.4062z"/><path d="m521.271 184.445c0-.218 0-.436-.022-.621 0-.066-.022-.12-.033-.196-.021-.175-.043-.36-.087-.513 0-.021-.011-.032-.022-.043-.054-.196-.109-.371-.185-.523-.055-.12-.131-.218-.196-.317-.033-.043-.055-.098-.088-.141-1.079-1.352-3.479-.97-6.609-.883-.545 1.297.316 2.147 1.625 2.866 1.669.916 4.101 1.614 5.366 2.758.131-.752.196-1.395.229-1.962 0-.065.011-.142.011-.196 0-.076 0-.142 0-.218z"/><path d="m198.409 42.2845c1.712.4251 4.057.4469 6.293 1.3842-1.952-6.9865-3.872-4.7848-8.812-3.6948.24 1.4169 1.188 1.9836 2.519 2.3106z"/><path d="m246.484 47.9074c-1.003-.0981-2.148-.1199-3.272-.1526-1.494-.0436-2.944-.1417-3.959-.5341 1.582 4.5778 3.938 4.3489 6.272 3.7821.229-.0545.469-.1199.698-.1744s.469-.1199.698-.1635c.13-.0327.261-.0545.392-.0763.207-.0436.415-.0763.622-.0981.556-.0654 1.101-.0436 1.603.1199.513-1.9183-.992-2.485-3.065-2.6921z"/><path d="m357.293 345.506c-9.227-1.558-19.86-5.406-24.877-13.21-3.567-11.597-6.392-14.104-18.323-15.64-8.823-1.592-12.815-14.333-21.409-15.118-7.34 3.161-12.804-1.079-19.032-4.709-3.588 10.05-5.093 9.821-3.654-.828-9.99.316-14.68 19.728-20.874 11.346-3.785-7.575-8.813-.272-14.07-3.542-10.753-6.18 4.843-25.842-10.895-24.829-12.379 5.123 2.137-36.883-12.259-14.125-21.333 24.164-28.891-48.219-1.516-35.914 9.587.087-2.781-7.869 17.298-1.777 9.597-.512 4.678 16.731 12.302 17.298 1.451-13.287-7.591-27.423 8.856-35.183 7.7-2.584-1.385-25.178 3.97-11.903 4.788-9.221 17.581-27.848 29.502-28.414-9.925 12.022 17.243-.916 12.684-5.08-7.111 7.183-19.697-4.937-10.209-7.913-5.42-4.904-9.543.96-14.265.327 11.473-8.828 57.935-8.675 24.179-25.657-9.717-8.883-5.955-23.499-20.067-12.011-8.355-11.771-32.567-25.9841-27.594.512 7.482 7.968 3.992 9.156-4.089 14.311 1.912 7.092.592 11.408-3.959 12.949.218-23.074-40.561-15.532-37.355-35.249 10.95-14.7468 24.092-19.6298 34.89-24.4146 2.737-12.4144-10.187-12.4798-13.262-2.1908-7.548 5.1445-1.822-11.9566-9.478-3.8802-25.946-27.1395-6.424-.5994-16.774 4.6759-17.559-8.458-34.181 1.9837-51.042-2.169-5.922-9.1228-20.133-3.2371-28.029-7.3353-3.72 4.6758-5.41-.0327-6.85-1.1226-10.513-1.1118-19.6966 4.5995-28.8144 4.4251-26.5025-5.9184-56.506-14.2673-80.06376 3.0409 21.43106 10.2455 12.34606 2.8339-2.2358127 10.2237 5.2241627 7.8689 16.4249727-.9265 18.0282727 7.3135-5.3769 1.3294-11.97523.6214-13.41487 7.3684-1.34149 6.964 12.07337 4.294 11.25537 11.128 34.4642-1.984-30.6033 22.104 6.522 13.297 1.3961-6.212 12.8369-7.619 15.7707-13.341.4144-5.33 5.0933-6.409 8.2561-9.035-10.9936 10.834 30.6251-1.385 44.1927 10.725 5.2678.425-.9816 13.646 6.3911 12.774 8.0166-1.744 7.6886 14.093 16.7086 16.076 15.978 5.614 1.112 19.423 6.02 35.042.175 20.524 20.952 29.287 27.07 47.794-1.145 4.632-.589 6.125 3.588 8.022 4.134 2.594 5.355 14.681 10.034 12.818-2.945-6.584-23.132-41.44-9.816-27.816 9.816 14.736 17.865 31.892 26.23 45.44 16.305 12.709 41.684 9.537 49.472 31.87 48.108 23.848 16.196 10.42 16.817 54.214 39.536 63.053 33.679 38.006 20.101 115.348 6.075 2.638.741 16.872-.415 7.117-8.496 15.118-4.897 45.8 23.678 36.285-20.744-9.003 3.337-18.366-2.039-25.767-5.421-3.193 7.874-11.259 5.355-19.248 5.224 2.365 7.579-.251 7.721-4.872 9.663-2.496 20.919-6.496 11.168-16.491 20.679 6.376 22.326-21.766 34.148-33.036 20.079-2.594 20.068-21.297 23.231-37.025 14.647-13.559 12.139-29.69-8.758-32.873z"/><path d="m389.118 9.5311c22.118-13.05749-43.669-8.29445-59.636-6.98652 12.826 14.47442-6.435-1.22074-8.703 4.02188-9.478-.67576-53.693 5.76574-38.282 10.68144-1.789 6.0819-6.827 3.3025-10.186 4.4142-33.745 5.7767 25.171 8.2509-6.064 8.6978 5.366 11.2264 24.157.6103 33.155 7.4443 5.595 5.853 12.204 11.2264 8.354 17.6461 5.453 5.3407 20.308 7.0737 3.185 5.744 3.435 4.2072 11.681 2.0382 9.63 8.9702-22.118 8.24 20.504 69.6475 28.717 25.6681 3.283-15.5207 36.525-20.5562 50.464-31.1614-14.615-.0654-8.453-7.2372 1.636-1.1444.251-5.1445-1.822-7.0628-4.93-8.4907-11.91-10.3108 9.161-2.1253 10.328-9.8966 1.833-19.6517-8.845-24.1422 20.264-34.6384-19.468-3.47686-27.233.9483-37.921-.9809z"/><path d="m266.956 59.919c-7.22-5.0464-14.92-8.3271-20.984-6.7794-2.203.218-4.385.2943-7.417-1.3951-.174-.3597-.338-.7739-.48-1.2426-1.385-1.6894-3.097-2.5613-4.787-2.7793h-.033c-1.385-.1744-2.759.0981-3.948.752-1.778.7521-2.792 2.0491-3.098 3.9565-.501 1.7875-.36 4.0001.797 6.4961-.055-.0327-.088-.0763-.142-.109-1.876-1.3843-2.389-4.7086-2.836-7.5969.316-1.3842.894-2.8121 1.549-4.2944-.971-.0872-1.865-.109-2.683-.0545-.611-.8937-1.56-.9264-3.25.6431-2.901 1.0681-4.341 3.3025-4.712 5.7876-.273.3814-.534.752-.818 1.1771-.185.9483.306 1.7984.993 2.5832.37 1.6567 1.112 3.2153 2.105 4.4251-.382.2398-.906.4687-1.647.7085.839.1526 1.788.3052 2.803.4578.992.7956 2.126 1.2643 3.337 1.2425 1.701-.0981 3.686-.0872 5.835.0218 8.692 1.188 18.944 2.7466 25.859 5.4388 4.864 2.1908 8.082 5.0137 7.787 8.447-.545 2.6486-3.185 5.7985-8.703 9.5806.12-.3161.229-.6212.327-.8937 1.374-4.0219.425-4.6214-1.112-3.6077-1.822 1.188-4.472 4.6104-5.126 7.3244.283.1962.567.3597.861.5231 3.174 1.7222 6.937 1.2426 10.219 1.8529 2.149.4033 4.079 1.2753 5.486 3.5642h.022c2.465 3.4987 6.74 5.6133 10.296 6.5183 2.225.926 3.784 1.1 4.384.49 2.181-.207 2.585-1.45-.938-3.575-.392-.5777-.894-1.2317-1.505-1.951 1.134.1308 2.127.1853 2.999.1744 5.672 2.5286 5.781 1.188 4.134-1.5913.567-1.526-1.113-4.1309-5.082-7.6841-.535-.9047-.993-1.7766-1.309-2.5832 2.89.2507 5.475.2507 7.602.0218 4.569 2.0382 5.987 1.0137 5.224-1.6894 1.985-1.6676.894-4.4361-4.886-8.1637-2.073-2.6267-4.657-5.4933-7.569-8.2726.73-3.7385-4.352-5.9838-9.554-7.9021z"/><path d="m621.173 376.611c-8.594 10.704-17.875 13.81-16.545 27.816-.534 7.76 0 12.065 1.2 13.864 2.007 3.052 5.857-1.123 9.379-7.946 2.705-5.232 5.224-12.022 6.566-18.3 1.374-6.431 1.527-12.316-.6-15.434z"/><path d="m821.022 320.982c-3.01-6.921-13.611-2.115-20.384 5.646-5.268 6.027-8.223 13.831-3.501 19.292 5.366-1.145 12.597 4.469 16.152 2.452.993-.567 1.702-1.722 2.007-3.793 2.541-3.106 3.272-6.202 3.457-9.221 0-.032 0-.065 0-.098s0-.065 0-.098c.229-4.251-.578-8.36 1.047-12.098.306-.709.698-1.406 1.211-2.082z"/><path d="m877.561 28.8346s.087.0218.131.0327c6.881 1.8311 18.955 2.7031 19.806-2.06-6.719-2.7466-16.785-3.5859-23.547.6976.632.3597 1.548.7084 2.639 1.0463.305.0981.633.1853.971.2834z"/><path d="m855.061 207.529c.153.795.316 1.591.48 2.409.72-.654 1.33-1.341 1.832-2.039.436-.588.785-1.188 1.069-1.765.022-.055.054-.098.076-.153.131-.283.24-.567.327-.85.011-.044.044-.087.055-.142.098-.316.174-.621.229-.915v-.033c.044-.185.054-.36.065-.545 0-.12.033-.24.033-.36 0-.054 0-.109 0-.163-.022-2.507-1.898-4.142-5.715-3.107.589 2.943 1.058 5.287 1.527 7.663z"/><path d="m826.311 261.841c.24.904.698 1.82 1.375 2.703.054.065.087.13.141.196.829-2.485 1.549-4.654 2.236-6.714.415-1.232.807-2.431 1.211-3.619-1.124-.305-2.247.066-3.174.861-.033.022-.065.044-.098.077-.055.054-.098.109-.153.163-1.221 1.21-1.996 3.205-1.723 5.352.033.229.087.457.131.686.022.098.033.186.054.273z"/><path d="m978.728 469.421c-6.5 5.657-12.542 10.899-18.802 16.338 1.658.785 3.01 1.417 4.144 1.886.764.305 1.429.545 2.018.687.294.076.578.13.84.163 2.661.338 3.893-1.46 6.882-6.147.152-.218.338-.436.523-.665 1.352-1.591 3.447-3.303 5.148-4.959 1.123-1.09 2.072-2.158 2.519-3.161.731-1.635.12-3.096-3.283-4.153z"/><path d="m992.612 459.404c-.622-.316-1.222-.589-1.778-.796-3.512-1.319-5.835-.654-6.958 1.199-.022.044-.055.076-.076.12-.022.044-.044.098-.066.142-1.189 2.289-.752 6.158 1.342 10.332.305.611.643 1.232 1.014 1.842 2.999-3.967 5.922-7.836 8.747-11.564-.742-.469-1.44-.872-2.105-1.221-.044-.021-.076-.032-.12-.054z"/><path d="m1016.87 63.6457c-11.58-8.4797-35.895-19.8696-45.144-8.774-2.017.2398-4.94.4469-4.307-3.4006-19.817-1.8747-40.092-2.6813-58.873-10.6487-17.767-3.9783-34.377 3.2589-51.991 5.4824-5.988-.436-3.381-6.1255-5.05-9.6787-6.118.1635-12.073-4.4579-18.53 1.1553-15.945-3.8366-66.561 2.0709-25.771-9.1882-2.662-8.6759-12.292-6.2453-19.774-6.7903-4.94-2.4415-9.892-5.4933-15.192-1.0899-23.122 8.3925-43.342 7.7821-62.058 16.3382 15.368 13.7441-25.128-6.8667-18.966 13.3082 2.694 6.5832 9.26.0654 12.641 7.5096-13.001-8.5233-9.369 9.8313-21.464 6.6487 14.767-6.6486 3.512-41.5595-9.958-19.8042-3.413 4.8829 2.28 7.7712 5.159 12.1964-8.692-1.9074-40.746-14.6706-23.863-2.6159-12.041 6.3871-27.364-3.6622-37.54 7.2264-2.901 2.5395-5.289 2.5177-7.536-.8938 9.794-5.5805-8.976-7.9021-3.065 4.4143-5.66-1.6131-12.684 1.6676-12.869 6.8884-4.472-.9483-13.208-2.7794-4.777 2.3543-8.169 2.7575-16.949-14.202-10.1-10.0602 48.599 5.1881-14.93-20.4473-25.63-16.9595-10.841-2.0055-22.227 6.0056-33.122 7.8912 5.158 11.6297-21.366 20.3819-27.724 29.8317-1.473 6.7576 5.311 20.2072 13.316 11.2918 11.038-3.4006 7.973 27.0084 20.712 5.8634 8.648-9.8635 4.231-9.482 2.999-19.6839 6.315-4.8393 13.044-19.7824 22.38-12.7196-16.065 7.9021-16.022 28.1641 4.984 19.8369 21.496 3.2372-16.632.218-8.463 8.6542 1.908 10.7574-10.961-4.556-9.315 13.1774-10.72 3.967-39.099 9.591-29.73-10.169-12.848 1.994-3.501 10.54-5.595 14.354-10.656 2.889-15.716 8.927-22.326 16.644-36.023 12.49 2.705 4.022-8.408 26.747-27.343-11.314-29.72 35.063-3.818 27.935 9.216.436 14.222-27.99 22.544-27.51 6.882 4.403 11.942-8.709 16.687-1.188 4.864 8.076 18.279 11.869 15.89 22.867 5.061.065-.065-11.87 7.438-8.098-3.97-6.475-23.328-15.031-14.8-22.769 14.506 8.643 19.708 22.758 26.492 36.785 8.114-4.894 3.73-9.678-.611-15.553 21.213-3.423 4.526 2.452 15.716 13.973 4.483 5.526 17.68 1.613 24.9 2.659-2.52 11.543-3.305 21.112-16.273 24.895 7.373 2.245 8.627 4.937 5.475 10.409 18.716-7.946 24.234 57.374 35.904 61.494 22.358-15.608 55.481-26.736 33.374-54.443-4.472 3.074-5.944 10.933-13.797 7.096 1.669-6.322-13.993-12.97-8.18-23.27 8.311 2.605 10.787 18.834 22.249 13.035 13.186 13.897 29.764-1.515 37.987 17.788-2.857 2.453.033 5.199 2.171 6.093 12.858-.49 9.521 38.093 20.089 54.214 10.394-11.641 6.926-20.448 9.838-32.306 16.021-22.126 37.878-43.532 38.903-1.09 21.376-10.3 6.009 25.657 16.643 38.061-.12 9.395 14.538 33.058 10.786 12.578-2.595-14.322-18.235-24.611-8.376-40.612 8.954 11.892 14.31 23.216 24.867 6.398 1.003-5.831-1.56-12.589 5.213-16.992-13.208 3.368-19.948-12.894-9.827-20.676 15.368-.36 34.17-9.711 39.721-29.57.96-1.809 6.195-5.886-.283-8.306-11.092-39.63 17.897-21.766-8.954-32.676-1.32-6.125 7.503-7.935 11.844-11.215-5.366 11.106 1.658 6.158 9.205 5.002-1.44 6.115-2.683 8.11 3.065 9.123-1.298 8.643-1.265 19.543 8.081 9.428-10.808-45.723 32.272-19.444 34.334-72.121.011-8.763-7.384-2.878-12.074-5.003-6.031-14.137 26.765-25.3957 40.18-22.3003 12.967 10.5943 13.654-16.4036 28.236-7.0846 32.708-9.635-31.617 15.9569-10.874 43.5759 23.504-21.483 12.194-38.5948 26.034-38.9218 15.182 1.0899 23.558-10.5943 40.539-9.1228-7.176-7.3135 1.025-17.1012 8.402-12.4145 12.8 12.894 32.21-9.8639 9.99-5.5042z"/><path d="m834.077 309.471c-.655.393-1.156.753-1.418 1.069-.556.654-.033 1.09 2.443 1.1 5.682 10.693 12.455-.675 7.307-6.419-1.679 1.057-5.966 2.844-8.321 4.261z"/><path d="m149.058 70.0656c3.446 1.6022 6.784 2.7903 10.928.9265 1.036-.2943 2.04-.5232 2.999-.6976 9.423-1.733 15.356 1.297 20.886-4.5996-5.399-4.2725-8.496-6.7685-10.088-8.9593-.055-.0763-.099-.1526-.153-.2289-.055-.0763-.109-.1635-.164-.2397-1.679-2.6159-1.221-4.9484-.065-9.5697-.273.0763-.535.1526-.796.2289-6.315 1.7875-10.645 2.3433-7.537 9.4061-4.711-3.4006-12.117-6.278-18.693-6.2562-4.832.0109-9.205 1.5913-11.746 5.6786-.022.0218-.033.0545-.055.0763-.022.0327-.033.0654-.054.0981-.175.2834-.339.5776-.491.8937 1.919.5232 3.915.8393 4.733 1.3406h.022c.774.5014.382 1.1772-2.345 2.387-.022 0-.044.0218-.065.0327 0 0 .076.0327.12.0436 5.333 2.0927 8.965 2.3434 10.612 2.2998.305 0 .545-.0218.708-.0436-.894.1853-3.784.9809-8.932 3.793 3.905.1962 7.078 1.9728 10.176 3.4115z"/><path d="m857.144 338.792c-.088-.142-.033-.044.185.381l.033-.022c.338.567 1.003 1.646 1.908 2.932 1.767 2.562 4.472 5.973 7.493 7.935 1.647 1.079 3.381 1.711 5.083 1.526h.065c2.279.632 3.763 1.482 4.755 2.463 1.778 1.744 1.985 3.891 2.334 5.908.24 1.384.556 2.703 1.483 3.782.818.948 2.127 1.711 4.254 2.18.534.12 1.09.218 1.734.305 1.08.327 2.203.763 3.272.763 1.276 0 2.465-.589 3.424-2.703 4.199-5.058 7.482-.992 11.485 2.67 2.694 2.463 5.693 4.73 9.51 3.946.066-.011.131-.022.207-.033-10.579-9.515-25.64-39.674-45.087-22.627-1.897-2.769-2.65-5.788-3.697-7.891-.501-1.003-1.08-1.799-1.876-2.246-1.298-.719-3.184-.534-6.325 1.112-.175-.294-.251-.425-.229-.36z"/><path d="m459.868 106.569c.502 1.188 1.309 2.311 2.279 3.39 1.898 2.125 4.396 4.131 6.315 6.245-9.75 5.831 2.487 10.071-6.795 15.074.284-.011.546-.033.818-.044 7.591-.359 12.532-1.329 15.313-2.964.153-.087.273-.185.414-.273.12-.087.262-.163.382-.25 2.858-2.158 2.618-5.308.262-9.526-.044-.088-.087-.164-.131-.251 0-.022-.022-.033-.033-.055-1.865-3.248-4.951-7.117-8.823-11.64 1.287-1.635 1.691-3.303 1.505-4.796-.218-1.7221-1.232-3.1826-2.617-4.0327-2.204-1.3625-5.345-1.1881-7.679 2.0164-.218.2942-.403.5773-.578.8723-1.406 2.321-1.417 4.359-.621 6.234z"/><path d="m767.242 326.638c-4.428-3.313-8.943-6.376-12.531-9.046.12.632.294 1.297.513 1.994 3.359 10.671 18.061 28.644 27.178 35.206h.011c6.5-9.799-4.035-19.794-15.171-28.143z"/><path d="m633.159 46.3706c2.465.7084 6.032 1.1008 10.896 1.079-9.576-7.4225-2.138-13.2101 8.278-17.2756l.076-.0327c.186-.0762.382-.1416.578-.2179.109-.0436.218-.0872.338-.1308.142-.0545.295-.109.437-.1635.163-.0545.316-.1199.48-.1744.076-.0327.163-.0545.25-.0872 1.156-.4142 2.323-.8066 3.512-1.1771l.088-.0218c.283-.0872.578-.1744.861-.2725.044-.0109.087-.0218.131-.0327.273-.0872.545-.1635.829-.2507.24-.0654.48-.1417.709-.2071.076-.0218.152-.0436.229-.0654 6.315-1.8202 12.411-3.0627 15.651-3.7276-4.09-3.4987-13.775-2.1145-23.373 1.3188-4.275 1.5259-8.54 3.466-12.28 5.5696-10.645 5.962-17.069 13.1774-7.668 15.8696z"/><path d="m417.213 85.4454c-3.075-.4033-7.7.425-14.189 3.2916-.643-1.9401-1.734-2.8775-2.901-3.1717-1.145-.2834-2.367.0327-3.348.6103-1.767 1.0464-2.749 2.932-1.058 3.7167.829.3924 2.29.5014 4.635.1308-1.68.8284-2.77 1.4278-3.425 1.8638h-.011l-.021.0327c-3.436 2.3325 5.835.0218 2.704 4.8612 5.246 3.1172 9.969 3.5532 13.721 2.5831.065-.0218.13-.0436.196-.0545.185-.0545.36-.0981.534-.1526 4.45-1.4169 7.373-4.8393 7.951-7.9239.524-2.7793-.861-5.2753-4.788-5.7875z"/><path d="m878.106 183.606c-.186.218-.382.436-.567.643-6.151 6.648-13.361 7.597-15.727 8.698-.622.283-.906.577-.753.991.327.927 2.89 2.442 8.878 5.734 13.055-4.022 24.823-19.979 15.498-31.184-.153.611-.305 1.199-.48 1.777-1.68 5.875-4.09 10.125-6.751 13.232-.033.032-.065.065-.098.109z"/><path d="m127.092 57.7711c.36-.1635.731-.3488 1.091-.545 4.548-2.4415 9.161-7.15 14.003-9.5588-4.94-3.3025-13.142-5.1009-19.042-3.0191-.175.0654-.349.1417-.524.2071-.131.0545-.261.0981-.392.1526-.033.0109-.066.0326-.109.0544-3.501 1.5914-5.977 4.7522-6.064 10.0711 3.686 4.2399 7.34 4.2944 11.015 2.6268z"/><path d="m201.801 21.0839c5.464 5.1882 16.523 8.992 22.903-1.8202 8.823 2.6486 1.996 5.0683-9.183 13.221 2.585 2.8448 37.311 4.8067 28.4-2.6921 10.448-9.003 65.177-25.28668 34.835-26.42022-23.361-.43597-45.719 1.54772-68.972 4.67585 9.216 11.08467 45.611 3.89107 17.265 8.87217-1.56 1.9074-3.763 2.049-6.195 1.4278-6.827-2.4633-15.443-8.71955-20.711-5.1881-.633.2942-1.069.6975-1.309 1.1771-.927 1.0681-1.701 2.5614-2.279 4.6213 1.886.5232 3.621 1.2862 5.246 2.1254z"/><path d="m138.021 41.0954c.97 0 2.857.0654 5.256.1526 6.348.2398 16.207.5776 21.955-.1744 6.173-.8066 7.613-2.8666-5.137-7.6732.153 2.605-.338 3.9129-1.265 4.4361-1.254.7084-3.305-.0218-5.682-.9592-5.246-2.06-12.03-5.1118-15.127 4.2072z"/><path d="m747.099 11.4173c.076.0327.152.0544.239.0871l.044.0218c2.912 1.0791 6.424 2.0927 9.718 2.3107h.163c.273.0218.557.0327.829.0327h.284.687c.12 0 .24-.0218.36-.0218.196-.0109.392-.0218.589-.0436h.032c3.087-.327 5.694-1.6676 6.991-4.76302-.272-.0218-.545-.0436-.807-.0872-.054 0-.098-.02179-.152-.02179-.219-.0327-.426-.0654-.633-.109-2.203-.43597-4.264-1.37332-6.315-2.28888-3.086-1.38422-6.129-2.71395-9.543-2.16898-2.432.38148-5.049 1.70031-7.994 4.62135.992.51228 3.021 1.48232 5.54 2.43062z"/><path d="m822.68 340.591c-.044.141-.077.294-.109.436-.022.098-.055.196-.077.294-.72 3.302.109 7.728 3.752 13.559-.011-1.537 0-2.812.066-3.848.174-3.171.687-4.109 1.614-3.597 1.188.665 3.064 3.75 5.78 7.586.654-1.438.447-2.888-.098-4.338-1.429-3.847-5.159-7.695-1.287-11.27.556-.512 1.254-1.013 2.148-1.504-1.919.633-3.882 1.624-5.42 1.853-1.189.186-2.127-.098-2.541-1.373-.218-.654-.295-1.58-.218-2.823.054-.044.109-.076.163-.12 8.409-.981 11.114-2.093 10.852-2.659-.12-.295-1.047-.447-2.377-.349-2.28.152-5.748.992-8.475 3.008-.054 0-.109.011-.163.022v.098c-1.614 1.232-2.956 2.877-3.61 5.036z"/><path d="m460.98 112.715c-.338-.305-.676-.566-1.014-.806-.153-.109-.295-.218-.447-.305-2.683-1.679-5.05-1.09-6.937.512-2.955 2.529-4.711 7.575-4.668 10.442 1.811 9.286 15.117-3.172 13.055-9.853z"/><path d="m194.941 56.9226c1.625-.6976 1.538-2.6595-2.17-6.7686.152-.2724.239-.534.305-.7847.807-2.9538-3.752-4.0546-7.111-3.4769-.218.0327-.425.0763-.622.1308-2.835.7084-4.373 2.7248.098 5.9074-1.636-.2397-2.879-.3596-3.784-.3705 0 0-.022 0-.033 0-.229 0-.425 0-.611.0109-2.802.1417-1.068 1.624 2.073 3.03 3.773 1.7003 9.554 3.3025 11.866 2.3107z"/><path d="m784.508 357.942c3.73 2.256 12.815 5.057 19.151 6.06.077.011.142.022.218.033 6.49.991 9.914.032 1.276-5.494-1.407.338-2.944.349-4.569.196-4.897-.457-10.689-2.376-16.578-1.111.153.109.316.207.491.316z"/><path d="m893.778 135.451c.415-.218.884-.414 1.418-.599-.872-10.693-2.05-15.848-3.206-17.45-3.534-4.938-6.828 23.499-.589 28.12.403.305.861.502 1.352.589-2.094-6.453-1.887-9.134 1.025-10.66z"/><path d="m888.827 154.167c-2.967 1.329-4.788 5.951-5.66 12.229 1.286-1.014 2.519-1.559 3.762-1.897 1.32-.37 2.65-.512 4.036-.763 1.548-.272 3.162-.664 4.929-1.635 1.124-.61 2.302-1.46 3.567-2.648-4.221-4.73-7.548-6.256-10.1-5.483-.141.044-.283.099-.425.153-.033.011-.076.022-.109.044z"/><path d="m829.595 295.477c-.633-2.147-.644-3.226-.284-3.694 1.32-1.635 7.504 4.719 7.645-.382-2.29-.283-3.784-.828-4.744-1.569-1.44-1.112-1.658-2.649-1.461-4.404.261-2.43 1.308-5.253 1.014-7.88-9.565-5.101-5.715 13.657-2.16 17.929z"/><path d="m249.211 268.13c1.734.915 3.457 1.766 5.257 2.321 2.181.676 4.493.916 7.1.327-3.185-2.027-6.075-3.749-8.704-5.155-11.375-6.104-17.613-6.485-19.533-2.158 6.631-.665 11.321 2.245 15.891 4.665z"/><path d="m192.301 35.701c-1.254-.9374-2.519-1.3516-3.806-1.4932-.425-.2071-.883-.4142-1.374-.6322-.218.218-.436.4142-.655.5886-2.006.109-4.111.5449-6.402.5013-1.854-.5013-3.86-1.2316-6.064-1.5913 1.167 3.7494 4.799 5.8639 8.551 6.7577 4.046 1.7221 8.202 2.0817 9.467-.7194.632-.5232.829-1.1989.392-1.9837 0-.436-.021-.9047-.098-1.4278z"/><path d="m198.463 50.6649c2.683 7.7931 9.707-.7085 14.19-2.4742-1.669-3.4115-9.227-4.1526-12.586-1.0572-.044.0436-.088.0872-.131.1308-.088.0872-.175.1744-.251.2616-.72.8174-1.178 1.8638-1.222 3.139z"/><path d="m222.708 99.6148h18.138c-9.54-4.9265-15.585-4.9265-18.138 0z"/><path d="m142.514 28.082c-6.839 2.4088-13.044 4.5887-20.624 7.259 9.368 2.5723 19.435-.8937 20.624-7.259z"/><path d="m263.204 276.741c.436.098 1.221.196 2.225.294 3.959.381 11.397.708 14.68.294-1.702-1.635-3.829-3.095-5.901-4.174-.436-.229-.872-.436-1.309-.632-.021 0-.043-.022-.065-.033-2.225-.981-4.264-1.417-5.519-1.046-1.428.425-1.832 1.918-.327 4.904-3.959 0-4.733.186-3.762.393z"/><path d="m554.655 8.36523h-22.51c7.46.87196 14.789 6.86667 22.51 0z"/><path d="m176.051 25.0405c1.058.4033 2.203.654 3.392.872 2.181.3923 4.515.6539 6.784 1.4714.774.2834 1.548.6322 2.29 1.0681-.513-1.1335-1.254-2.1689-2.149-3.0845-.599-.6104-1.276-1.1771-1.995-1.6785-1.44-1.0028-3.076-1.7875-4.712-2.2889-.862-.2616-1.723-.4469-2.563-.545-1.974-.2506-3.839-.0436-5.246.7085.065.1199.153.2071.218.3161 1.058 1.6131 2.421 2.5614 3.97 3.1608z"/><path d="m783.995 15.8848c-8.671-6.01645-14.037-5.1772-17.658 1.5586 5.399-.4795 11.005-.97 17.658-1.5586z"/><path d="m906.135 471.776s-.022-.033-.032-.044c-1.178-1.624-4.559-2.539-8.922-2.55 1.538 3.313 2.89 6.212 4.461 9.58.283-.185.556-.37.818-.545.043-.032.087-.065.131-.098.207-.152.414-.294.61-.436.426-.316.808-.632 1.146-.937.032-.033.065-.055.098-.087 2.127-1.94 2.552-3.564 1.756-4.796-.022-.033-.033-.055-.055-.087z"/><path d="m648.308 1.0293c-4.657 1.51502-8.888 2.88834-13.469 4.37066 9.03 2.59406 12.88 1.31883 13.469-4.37066z"/><path d="m835.887 370.738c3.185-2.114 6.359-4.229 10.874-7.226-6.217.229-9.445 2.387-10.874 7.226z"/><path d="m199.838 24.7799c-2.923-.8283-5.486-1.5586-9.194-2.6158 2.966 6.06 5.18 6.5832 9.194 2.6158z"/><path d="m918.329 351.564c-2.956 1.025-6.184 2.148-9.391 3.248 4.614 3.227 7.842 1.951 9.391-3.248z"/></g><g filter="url(#a)"><path d="m855.936 116.023h62.224v43.197h-44.96l-17.264 23.394v-23.394z" fill="#c94777"/></g><path d="m878.873 143.924c3.28 0 5.46-1.86 5.46-4.78 0-2.8-2.1-4.36-4.54-4.36-1.12 0-2 .36-2.68.84l.08-3.04h6.4v-2.66h-9.12l-.2 7.42 1.98.8c.74-.56 1.62-.9 2.66-.9 1.5 0 2.48.8 2.48 2 0 1.18-.94 2.1-2.5 2.1-1.32 0-2.56-.64-3.6-1.62l-1.74 2.08c1.28 1.28 3.02 2.12 5.32 2.12zm10.862-7.1c2.02 0 3.44-1.54 3.44-3.52 0-1.94-1.36-3.52-3.44-3.52-2.06 0-3.42 1.56-3.42 3.54 0 1.96 1.36 3.5 3.42 3.5zm-1.62 6.84h2.3l9.56-13.74h-2.32zm1.62-8.56c-.82 0-1.46-.72-1.46-1.8s.6-1.78 1.46-1.78c.84 0 1.46.72 1.46 1.78 0 1.1-.62 1.8-1.46 1.8zm8.58 8.78c2.02 0 3.42-1.54 3.42-3.52 0-1.94-1.34-3.52-3.42-3.52-2.04 0-3.44 1.56-3.44 3.52s1.4 3.52 3.44 3.52zm0-1.74c-.84 0-1.46-.72-1.46-1.78 0-1.1.6-1.8 1.46-1.8.82 0 1.46.72 1.46 1.8s-.6 1.78-1.46 1.78z" fill="#fff"/><g filter="url(#b)"><path d="m855.789 80h-106.289v64.812h78.286l28.003 37.735v-37.735z" fill="#1e1d40"/></g><path d="m766.882 123.732h18.684v-4.788h-10.476l4.5-3.492c4.32-3.132 5.76-5.688 5.76-9 0-4.644-3.816-7.8836-9.072-7.8836-3.996 0-7.128 1.7276-9.576 4.8236l3.384 3.276c1.8-2.052 3.636-3.276 6.048-3.276 2.016 0 3.744 1.224 3.744 3.276 0 1.728-.936 3.348-3.888 5.688l-9.108 7.056zm34.176 0h5.292v-5.04h3.276v-4.464h-3.276v-15.1916h-6.408l-11.484 15.5516.504 4.104h12.096zm-7.02-9.504 7.02-9.576v9.576zm24.891-2.808c3.636 0 6.192-2.772 6.192-6.336 0-3.492-2.448-6.3356-6.192-6.3356-3.708 0-6.156 2.8076-6.156 6.3716 0 3.528 2.448 6.3 6.156 6.3zm-2.916 12.312h4.14l17.208-24.7316h-4.176zm2.916-15.408c-1.476 0-2.628-1.296-2.628-3.24s1.08-3.204 2.628-3.204c1.512 0 2.628 1.296 2.628 3.204 0 1.98-1.116 3.24-2.628 3.24zm15.444 15.804c3.636 0 6.156-2.772 6.156-6.336 0-3.492-2.412-6.336-6.156-6.336-3.672 0-6.192 2.808-6.192 6.336s2.52 6.336 6.192 6.336zm0-3.132c-1.512 0-2.628-1.296-2.628-3.204 0-1.98 1.08-3.24 2.628-3.24 1.476 0 2.628 1.296 2.628 3.24s-1.08 3.204-2.628 3.204z" fill="#fff"/><g filter="url(#c)"><path d="m840.085 352h-75.418v44.817h56.055l19.363 26.093v-26.093z" fill="#1e1d40"/></g><path d="m784.54 379.616c2.896 0 4.928-2.352 4.928-5.696 0-3.328-2.032-5.68-4.928-5.68s-4.944 2.352-4.944 5.68c0 3.344 2.048 5.696 4.944 5.696zm0-2.144c-1.472 0-2.512-1.488-2.512-3.552s1.04-3.536 2.512-3.536 2.512 1.472 2.512 3.536-1.04 3.552-2.512 3.552zm8.446 2.144c.784 0 1.424-.672 1.424-1.488 0-.752-.64-1.424-1.424-1.424-.848 0-1.488.672-1.488 1.424 0 .816.64 1.488 1.488 1.488zm7.566-11.376c-2.4 0-4.208 1.552-4.208 3.808 0 2.176 1.68 3.488 3.712 3.488 1.04 0 2.048-.4 2.72-1.056-.208 1.856-1.168 3.056-2.608 3.056-.928 0-1.568-.336-2.24-.896l-1.12 1.792c.896.72 2 1.184 3.36 1.184 3.056 0 5.056-2.448 5.056-5.872 0-3.2-1.472-5.504-4.672-5.504zm.192 5.376c-1.072 0-1.968-.624-1.968-1.68 0-.88.736-1.696 1.904-1.696 1.232 0 1.824.752 2.032 2.096-.336.784-1.072 1.28-1.968 1.28zm8.471 5.808h2.352v-10.992h-1.888l-3.296 2.208.96 1.664 1.872-1.168zm7.307-5.472c1.616 0 2.752-1.232 2.752-2.816 0-1.552-1.088-2.816-2.752-2.816-1.648 0-2.736 1.248-2.736 2.832 0 1.568 1.088 2.8 2.736 2.8zm-1.296 5.472h1.84l7.648-10.992h-1.856zm1.296-6.848c-.656 0-1.168-.576-1.168-1.44s.48-1.424 1.168-1.424c.672 0 1.168.576 1.168 1.424 0 .88-.496 1.44-1.168 1.44zm6.864 7.024c1.616 0 2.736-1.232 2.736-2.816 0-1.552-1.072-2.816-2.736-2.816-1.632 0-2.752 1.248-2.752 2.816s1.12 2.816 2.752 2.816zm0-1.392c-.672 0-1.168-.576-1.168-1.424 0-.88.48-1.44 1.168-1.44.656 0 1.168.576 1.168 1.44s-.48 1.424-1.168 1.424z" fill="#fff"/><g filter="url(#d)"><path d="m840.084 362.875h72.56v38.305h-55.709l-16.851 22.708v-22.708z" fill="#c94777"/></g><path d="m855.553 387.063c2.896 0 4.928-2.352 4.928-5.696 0-3.328-2.032-5.68-4.928-5.68s-4.944 2.352-4.944 5.68c0 3.344 2.048 5.696 4.944 5.696zm0-2.144c-1.472 0-2.512-1.488-2.512-3.552s1.04-3.536 2.512-3.536 2.512 1.472 2.512 3.536-1.04 3.552-2.512 3.552zm8.447 2.144c.784 0 1.424-.672 1.424-1.488 0-.752-.64-1.424-1.424-1.424-.848 0-1.488.672-1.488 1.424 0 .816.64 1.488 1.488 1.488zm8.669-7.296c-1.04 0-2.048.4-2.72 1.056.208-1.856 1.168-3.056 2.608-3.056.928 0 1.568.336 2.24.896l1.12-1.792c-.896-.72-2-1.184-3.36-1.184-3.056 0-5.056 2.448-5.056 5.872 0 3.2 1.472 5.504 4.672 5.504 2.4 0 4.208-1.552 4.208-3.808 0-2.176-1.68-3.488-3.712-3.488zm-.624 5.296c-1.232 0-1.824-.752-2.032-2.096.336-.784 1.072-1.28 1.968-1.28 1.072 0 1.968.624 1.968 1.68 0 .88-.736 1.696-1.904 1.696zm9.879 2.016c2.624 0 4.368-1.488 4.368-3.824 0-2.24-1.68-3.488-3.632-3.488-.896 0-1.6.288-2.144.672l.064-2.432h5.12v-2.128h-7.296l-.16 5.936 1.584.64c.592-.448 1.296-.72 2.128-.72 1.2 0 1.984.64 1.984 1.6 0 .944-.752 1.68-2 1.68-1.056 0-2.048-.512-2.88-1.296l-1.392 1.664c1.024 1.024 2.416 1.696 4.256 1.696zm8.69-5.68c1.616 0 2.752-1.232 2.752-2.816 0-1.552-1.088-2.816-2.752-2.816-1.648 0-2.736 1.248-2.736 2.832 0 1.568 1.088 2.8 2.736 2.8zm-1.296 5.472h1.84l7.648-10.992h-1.856zm1.296-6.848c-.656 0-1.168-.576-1.168-1.44s.48-1.424 1.168-1.424c.672 0 1.168.576 1.168 1.424 0 .88-.496 1.44-1.168 1.44zm6.864 7.024c1.616 0 2.736-1.232 2.736-2.816 0-1.552-1.072-2.816-2.736-2.816-1.632 0-2.752 1.248-2.752 2.816s1.12 2.816 2.752 2.816zm0-1.392c-.672 0-1.168-.576-1.168-1.424 0-.88.48-1.44 1.168-1.44.656 0 1.168.576 1.168 1.44s-.48 1.424-1.168 1.424z" fill="#fff"/><g filter="url(#e)"><path d="m308.951 313h-95.951v51.384h73.75l22.201 29.916v-29.916z" fill="#1e1d40"/></g><path d="m228.73 345.422h11.418v-2.926h-6.402l2.75-2.134c2.64-1.914 3.52-3.476 3.52-5.5 0-2.838-2.332-4.818-5.544-4.818-2.442 0-4.356 1.056-5.852 2.948l2.068 2.002c1.1-1.254 2.222-2.002 3.696-2.002 1.232 0 2.288.748 2.288 2.002 0 1.056-.572 2.046-2.376 3.476l-5.566 4.312zm16.331.264c1.078 0 1.958-.924 1.958-2.046 0-1.034-.88-1.958-1.958-1.958-1.166 0-2.046.924-2.046 1.958 0 1.122.88 2.046 2.046 2.046zm5.826-.264h3.652l6.116-12.672v-2.442h-11.242v2.926h7.48zm17.541.264c3.322 0 6.072-1.562 6.072-4.312 0-1.738-1.188-3.058-2.97-3.762 1.518-.66 2.596-1.76 2.596-3.454 0-2.596-2.684-4.114-5.698-4.114-2.948 0-5.676 1.452-5.676 4.114 0 1.716 1.078 2.816 2.574 3.454-1.738.66-2.97 1.98-2.97 3.762 0 2.728 2.728 4.312 6.072 4.312zm0-9.196c-1.188-.088-2.442-.748-2.442-1.914 0-1.034.99-1.804 2.442-1.804s2.464.77 2.464 1.804c0 1.122-1.276 1.826-2.464 1.914zm0 6.468c-1.606 0-2.772-.792-2.772-1.936 0-1.188 1.474-1.936 2.772-1.98 1.298.044 2.794.792 2.794 1.98 0 1.144-1.188 1.936-2.794 1.936zm12.067-5.06c2.222 0 3.784-1.694 3.784-3.872 0-2.134-1.496-3.872-3.784-3.872-2.266 0-3.762 1.716-3.762 3.894 0 2.156 1.496 3.85 3.762 3.85zm-1.782 7.524h2.53l10.516-15.114h-2.552zm1.782-9.416c-.902 0-1.606-.792-1.606-1.98s.66-1.958 1.606-1.958c.924 0 1.606.792 1.606 1.958 0 1.21-.682 1.98-1.606 1.98zm9.438 9.658c2.222 0 3.762-1.694 3.762-3.872 0-2.134-1.474-3.872-3.762-3.872-2.244 0-3.784 1.716-3.784 3.872s1.54 3.872 3.784 3.872zm0-1.914c-.924 0-1.606-.792-1.606-1.958 0-1.21.66-1.98 1.606-1.98.902 0 1.606.792 1.606 1.98s-.66 1.958-1.606 1.958z" fill="#fff"/><g filter="url(#f)"><path d="m308.951 328.252h61.016v42.262h-42.425l-18.591 25.053v-25.053z" fill="#ff9700"/></g><path d="m322.057 354.693h2.504v-11.702h-2.01l-3.509 2.35 1.022 1.772 1.993-1.243zm6.859.205c.835 0 1.516-.716 1.516-1.584 0-.801-.681-1.516-1.516-1.516-.902 0-1.584.715-1.584 1.516 0 .868.682 1.584 1.584 1.584zm3.575-.205h8.84v-2.265h-4.957l2.13-1.653c2.044-1.482 2.725-2.691 2.725-4.258 0-2.198-1.805-3.731-4.292-3.731-1.891 0-3.373.818-4.532 2.283l1.602 1.55c.851-.971 1.72-1.55 2.861-1.55.954 0 1.772.579 1.772 1.55 0 .818-.443 1.584-1.84 2.691l-4.309 3.339zm13.565-5.825c1.72 0 2.929-1.312 2.929-2.998 0-1.653-1.158-2.999-2.929-2.999-1.755 0-2.913 1.329-2.913 3.016 0 1.669 1.158 2.981 2.913 2.981zm-1.38 5.825h1.959l8.142-11.702h-1.976zm1.38-7.29c-.699 0-1.244-.614-1.244-1.533 0-.92.511-1.517 1.244-1.517.715 0 1.243.614 1.243 1.517 0 .936-.528 1.533-1.243 1.533zm7.307 7.478c1.721 0 2.913-1.312 2.913-2.998 0-1.653-1.141-2.998-2.913-2.998-1.737 0-2.93 1.328-2.93 2.998 0 1.669 1.193 2.998 2.93 2.998zm0-1.482c-.715 0-1.243-.613-1.243-1.516 0-.937.511-1.533 1.243-1.533.699 0 1.244.613 1.244 1.533s-.511 1.516-1.244 1.516z" fill="#fff"/><g filter="url(#g)"><path d="m308.951 325.424h81.866v45.089h-63.275l-18.591 25.053v-25.053z" fill="#c94777"/></g><path d="m326.39 354.047h2.793v-13.053h-2.242l-3.914 2.622 1.14 1.976 2.223-1.387zm7.651.228c.931 0 1.691-.798 1.691-1.767 0-.893-.76-1.691-1.691-1.691-1.007 0-1.767.798-1.767 1.691 0 .969.76 1.767 1.767 1.767zm9.003.019c3.116 0 5.187-1.767 5.187-4.541 0-2.66-1.995-4.142-4.313-4.142-1.064 0-1.9.342-2.546.798l.076-2.888h6.08v-2.527h-8.664l-.19 7.049 1.881.76c.703-.532 1.539-.855 2.527-.855 1.425 0 2.356.76 2.356 1.9 0 1.121-.893 1.995-2.375 1.995-1.254 0-2.432-.608-3.42-1.539l-1.653 1.976c1.216 1.216 2.869 2.014 5.054 2.014zm11.8-13.528c-2.85 0-4.997 1.843-4.997 4.522 0 2.584 1.995 4.142 4.408 4.142 1.235 0 2.432-.475 3.23-1.254-.247 2.204-1.387 3.629-3.097 3.629-1.102 0-1.862-.399-2.66-1.064l-1.33 2.128c1.064.855 2.375 1.406 3.99 1.406 3.629 0 6.004-2.907 6.004-6.973 0-3.8-1.748-6.536-5.548-6.536zm.228 6.384c-1.273 0-2.337-.741-2.337-1.995 0-1.045.874-2.014 2.261-2.014 1.463 0 2.166.893 2.413 2.489-.399.931-1.273 1.52-2.337 1.52zm10.574.399c1.919 0 3.268-1.463 3.268-3.344 0-1.843-1.292-3.344-3.268-3.344-1.957 0-3.249 1.482-3.249 3.363 0 1.862 1.292 3.325 3.249 3.325zm-1.539 6.498h2.185l9.082-13.053h-2.204zm1.539-8.132c-.779 0-1.387-.684-1.387-1.71s.57-1.691 1.387-1.691c.798 0 1.387.684 1.387 1.691 0 1.045-.589 1.71-1.387 1.71zm8.151 8.341c1.919 0 3.249-1.463 3.249-3.344 0-1.843-1.273-3.344-3.249-3.344-1.938 0-3.268 1.482-3.268 3.344s1.33 3.344 3.268 3.344zm0-1.653c-.798 0-1.387-.684-1.387-1.691 0-1.045.57-1.71 1.387-1.71.779 0 1.387.684 1.387 1.71s-.57 1.691-1.387 1.691z" fill="#fff"/><g filter="url(#h)"><path d="m497.577 57h-106.577v62.517h75.536l31.041 41.949v-41.949z" fill="#1e1d40"/></g><path d="m417.526 100.736h5.292v-24.7317h-4.248l-7.416 4.968 2.16 3.744 4.212-2.628zm21.949 0h5.292v-5.0397h3.276v-4.464h-3.276v-15.192h-6.408l-11.484 15.552.504 4.104h12.096zm-7.02-9.5037 7.02-9.576v9.576zm24.89-2.808c3.636 0 6.192-2.772 6.192-6.336 0-3.492-2.448-6.336-6.192-6.336-3.708 0-6.156 2.808-6.156 6.372 0 3.528 2.448 6.3 6.156 6.3zm-2.916 12.3117h4.14l17.208-24.7317h-4.176zm2.916-15.4077c-1.476 0-2.628-1.296-2.628-3.24s1.08-3.204 2.628-3.204c1.512 0 2.628 1.296 2.628 3.204 0 1.98-1.116 3.24-2.628 3.24zm15.444 15.8037c3.636 0 6.156-2.7717 6.156-6.3357 0-3.492-2.412-6.336-6.156-6.336-3.672 0-6.192 2.808-6.192 6.336s2.52 6.3357 6.192 6.3357zm0-3.1317c-1.512 0-2.628-1.296-2.628-3.204 0-1.98 1.08-3.24 2.628-3.24 1.476 0 2.628 1.296 2.628 3.24s-1.08 3.204-2.628 3.204z" fill="#fff"/><g filter="url(#i)"><path d="m497.577 80.043h81.423v47.972h-56.629l-24.794 33.451v-33.451z" fill="#c94777"/></g><path d="m516.667 96.9028c-3 0-5.26 1.94-5.26 4.7602 0 2.72 2.1 4.36 4.64 4.36 1.3 0 2.56-.5 3.4-1.32-.26 2.32-1.46 3.82-3.26 3.82-1.16 0-1.96-.42-2.8-1.12l-1.4 2.24c1.12.9 2.5 1.48 4.2 1.48 3.82 0 6.32-3.06 6.32-7.34 0-4.0002-1.84-6.8802-5.84-6.8802zm.24 6.7202c-1.34 0-2.46-.78-2.46-2.1 0-1.1.92-2.1202 2.38-2.1202 1.54 0 2.28.9402 2.54 2.6202-.42.98-1.34 1.6-2.46 1.6zm10.049 7.5c.98 0 1.78-.84 1.78-1.86 0-.94-.8-1.78-1.78-1.78-1.06 0-1.86.84-1.86 1.78 0 1.02.8 1.86 1.86 1.86zm7.357-.24h2.94v-13.7402h-2.36l-4.12 2.76 1.2 2.0802 2.34-1.46zm5.433 0h10.38v-2.66h-5.82l2.5-1.94c2.4-1.74 3.2-3.16 3.2-5 0-2.5802-2.12-4.3802-5.04-4.3802-2.22 0-3.96.96-5.32 2.68l1.88 1.8202c1-1.14 2.02-1.8202 3.36-1.8202 1.12 0 2.08.6802 2.08 1.8202 0 .96-.52 1.86-2.16 3.16l-5.06 3.92zm15.927-6.84c2.02 0 3.44-1.54 3.44-3.52 0-1.9402-1.36-3.5202-3.44-3.5202-2.06 0-3.42 1.56-3.42 3.5402 0 1.96 1.36 3.5 3.42 3.5zm-1.62 6.84h2.3l9.56-13.7402h-2.32zm1.62-8.56c-.82 0-1.46-.72-1.46-1.8 0-1.0802.6-1.7802 1.46-1.7802.84 0 1.46.72 1.46 1.7802 0 1.1-.62 1.8-1.46 1.8zm8.58 8.78c2.02 0 3.42-1.54 3.42-3.52 0-1.94-1.34-3.52-3.42-3.52-2.04 0-3.44 1.56-3.44 3.52s1.4 3.52 3.44 3.52zm0-1.74c-.84 0-1.46-.72-1.46-1.78 0-1.1.6-1.8 1.46-1.8.82 0 1.46.72 1.46 1.8s-.6 1.78-1.46 1.78z" fill="#fff"/><g filter="url(#j)"><path d="m184.491 46.6152h125.009v91.2678h-81.85l-43.159 58.16v-58.16z" fill="#c94777"/></g><g filter="url(#k)"><path d="m184.491 79.6855h-143.991v73.5415h112.217l31.774 42.817v-42.817z" fill="#1e1d40"/></g><path d="m221.524 108.119c6.342 0 11.592-2.982 11.592-8.2318 0-3.318-2.268-5.838-5.67-7.182 2.898-1.26 4.956-3.36 4.956-6.594 0-4.956-5.124-7.854-10.878-7.854-5.628 0-10.836 2.772-10.836 7.854 0 3.276 2.058 5.376 4.914 6.594-3.318 1.26-5.67 3.78-5.67 7.182 0 5.2078 5.208 8.2318 11.592 8.2318zm0-17.5558c-2.268-.168-4.662-1.428-4.662-3.654 0-1.974 1.89-3.444 4.662-3.444s4.704 1.47 4.704 3.444c0 2.142-2.436 3.486-4.704 3.654zm0 12.3478c-3.066 0-5.292-1.512-5.292-3.6958 0-2.268 2.814-3.696 5.292-3.78 2.478.084 5.334 1.512 5.334 3.78 0 2.1838-2.268 3.6958-5.334 3.6958zm21.904 4.704h6.174v-28.8538h-4.956l-8.652 5.796 2.52 4.368 4.914-3.066zm19.181-14.3638c4.242 0 7.224-3.234 7.224-7.392 0-4.074-2.856-7.392-7.224-7.392-4.326 0-7.182 3.276-7.182 7.434 0 4.116 2.856 7.35 7.182 7.35zm-3.402 14.3638h4.83l20.076-28.8538h-4.872zm3.402-17.9758c-1.722 0-3.066-1.512-3.066-3.78s1.26-3.738 3.066-3.738c1.764 0 3.066 1.512 3.066 3.738 0 2.31-1.302 3.78-3.066 3.78zm18.018 18.4378c4.242 0 7.182-3.234 7.182-7.392 0-4.0738-2.814-7.3918-7.182-7.3918-4.284 0-7.224 3.276-7.224 7.3918 0 4.116 2.94 7.392 7.224 7.392zm0-3.654c-1.764 0-3.066-1.512-3.066-3.738 0-2.3098 1.26-3.7798 3.066-3.7798 1.722 0 3.066 1.512 3.066 3.7798 0 2.268-1.26 3.738-3.066 3.738z" fill="#fff"/><path d="m72.8628 128.083c5.904 0 9.828-3.348 9.828-8.604 0-5.04-3.78-7.848-8.172-7.848-2.016 0-3.6.648-4.824 1.512l.144-5.472h11.52v-4.788h-16.416l-.36 13.356 3.564 1.44c1.332-1.008 2.916-1.62 4.788-1.62 2.7 0 4.464 1.44 4.464 3.6 0 2.124-1.692 3.78-4.5 3.78-2.376 0-4.608-1.152-6.48-2.916l-3.132 3.744c2.304 2.304 5.436 3.816 9.576 3.816zm24.8425-16.452c-2.34 0-4.608.9-6.12 2.376.468-4.176 2.628-6.876 5.868-6.876 2.088 0 3.5277.756 5.0397 2.016l2.52-4.032c-2.016-1.62-4.5-2.664-7.5597-2.664-6.876 0-11.376 5.508-11.376 13.212 0 7.2 3.312 12.384 10.512 12.384 5.3997 0 9.4677-3.492 9.4677-8.568 0-4.896-3.78-7.848-8.3517-7.848zm-1.404 11.916c-2.772 0-4.104-1.692-4.572-4.716.756-1.764 2.412-2.88 4.428-2.88 2.412 0 4.4277 1.404 4.4277 3.78 0 1.98-1.6557 3.816-4.2837 3.816zm17.4417 4.5c1.764 0 3.204-1.512 3.204-3.348 0-1.692-1.44-3.204-3.204-3.204-1.908 0-3.348 1.512-3.348 3.204 0 1.836 1.44 3.348 3.348 3.348zm13.241-.432h5.292v-24.732h-4.248l-7.416 4.968 2.16 3.744 4.212-2.628zm16.441-12.312c3.636 0 6.192-2.772 6.192-6.336 0-3.492-2.448-6.336-6.192-6.336-3.708 0-6.156 2.808-6.156 6.372 0 3.528 2.448 6.3 6.156 6.3zm-2.916 12.312h4.14l17.208-24.732h-4.176zm2.916-15.408c-1.476 0-2.628-1.296-2.628-3.24s1.08-3.204 2.628-3.204c1.512 0 2.628 1.296 2.628 3.204 0 1.98-1.116 3.24-2.628 3.24zm15.444 15.804c3.636 0 6.156-2.772 6.156-6.336 0-3.492-2.412-6.336-6.156-6.336-3.672 0-6.192 2.808-6.192 6.336s2.52 6.336 6.192 6.336zm0-3.132c-1.512 0-2.628-1.296-2.628-3.204 0-1.98 1.08-3.24 2.628-3.24 1.476 0 2.628 1.296 2.628 3.24s-1.08 3.204-2.628 3.204z" fill="#fff"/><g fill="#000"><path d="m483.954 191.127v-1.504h-8.08v10.992h8.08v-1.504h-6.448v-3.344h5.824v-1.504h-5.824v-3.136zm7.746 1.216v5.136c0 1.088-1.008 1.952-2.272 1.952-1.12 0-1.904-.848-1.904-2.096v-4.992h-1.552v5.264c0 1.904 1.264 3.2 3.088 3.2 1.136 0 2.144-.56 2.64-1.376v1.184h1.584v-8.272zm5.782 1.616v-1.616h-1.584v8.272h1.584v-4.4c0-1.6 1.248-2.688 3.072-2.688v-1.376c-1.44 0-2.56.704-3.072 1.808zm8.611 6.848c2.384 0 4.352-1.952 4.352-4.336s-1.968-4.32-4.352-4.32-4.352 1.936-4.352 4.32 1.968 4.336 4.352 4.336zm0-1.376c-1.52 0-2.768-1.328-2.768-2.96s1.248-2.944 2.768-2.944 2.768 1.312 2.768 2.944-1.248 2.96-2.768 2.96zm10.785-7.28c-1.264 0-2.288.608-2.928 1.6v-1.408h-1.584v11.024h1.584v-4.176c.64 1.008 1.664 1.616 2.928 1.616 2.192 0 3.808-1.792 3.808-4.336 0-2.528-1.616-4.32-3.808-4.32zm-.368 7.28c-1.504 0-2.56-1.232-2.56-2.96s1.056-2.944 2.56-2.944 2.576 1.216 2.576 2.944-1.072 2.96-2.576 2.96zm9.769.064c-1.472 0-2.496-1.056-2.688-2.512h6.608c0-2.944-1.472-4.832-4-4.832-2.288 0-4.16 1.824-4.16 4.304 0 2.544 1.984 4.352 4.272 4.352 1.168 0 2.624-.496 3.344-1.28l-.928-.976c-.512.544-1.552.944-2.448.944zm-.048-6.032c1.44 0 2.272 1.024 2.432 2.352h-5.056c.24-1.424 1.296-2.352 2.624-2.352z"/><path d="m524.08 365.391h1.792l-4.72-10.992h-1.792l-4.72 10.992h1.792l.976-2.288h5.696zm-6.064-3.696 2.24-5.216 2.24 5.216zm11.439-5.488c0-.576.384-.992.848-.992.352 0 .672.128.848.304l.576-1.056c-.448-.368-1.056-.592-1.648-.592-1.28 0-2.176.928-2.176 2.256v.992h-1.248v1.344h1.248v6.928h1.552v-6.928h1.952v-1.344h-1.952zm5.04 2.528v-1.616h-1.584v8.272h1.584v-4.4c0-1.6 1.248-2.688 3.072-2.688v-1.376c-1.44 0-2.56.704-3.072 1.808zm5.731-2.992c.528 0 .944-.448.944-.96 0-.496-.416-.944-.944-.944s-.96.448-.96.944c0 .512.432.96.96.96zm-.8 9.648h1.584v-8.272h-1.584zm7.852.192c1.232 0 2.304-.512 3.104-1.328l-1.072-.976c-.528.576-1.264.928-2.032.928-1.504 0-2.768-1.344-2.768-2.96 0-1.6 1.264-2.944 2.768-2.944.752 0 1.472.336 1.984.896l1.072-.992c-.8-.784-1.856-1.28-3.056-1.28-2.352 0-4.368 1.968-4.368 4.32s2 4.336 4.368 4.336zm7.894-8.656c-.912 0-1.952.24-3.136.832l.592 1.168c.72-.368 1.504-.688 2.32-.688 1.648 0 2.128 1.104 2.128 2.144v.256c-.8-.272-1.68-.448-2.496-.448-1.824 0-3.312 1.104-3.312 2.752 0 1.616 1.312 2.64 3.056 2.64 1.024 0 2.144-.464 2.752-1.312v1.12h1.552v-5.008c0-2.048-1.232-3.456-3.456-3.456zm-.528 7.408c-1.056 0-1.856-.544-1.856-1.44s.928-1.52 2.032-1.52c.816 0 1.568.112 2.256.32v1.104c-.272 1.024-1.408 1.536-2.432 1.536z"/><path d="m293.066 425.401c2.592 0 4-1.408 4-3.264 0-1.968-1.52-2.704-3.712-3.216-1.808-.432-2.752-.784-2.752-1.808 0-.88.864-1.648 2.096-1.648 1.12 0 2.224.496 3.152 1.344l.928-1.216c-1.056-.944-2.32-1.552-4-1.552-2.224 0-3.824 1.376-3.824 3.216 0 1.984 1.488 2.656 3.728 3.184 1.84.416 2.752.816 2.752 1.856 0 .88-.784 1.68-2.304 1.68-1.488 0-2.64-.608-3.616-1.536l-.96 1.2c1.152 1.12 2.672 1.76 4.512 1.76zm9.776.016c2.384 0 4.352-1.952 4.352-4.336s-1.968-4.32-4.352-4.32-4.352 1.936-4.352 4.32 1.968 4.336 4.352 4.336zm0-1.376c-1.52 0-2.768-1.328-2.768-2.96s1.248-2.944 2.768-2.944 2.768 1.312 2.768 2.944-1.248 2.96-2.768 2.96zm11.825-7.088v5.136c0 1.088-1.008 1.952-2.272 1.952-1.12 0-1.904-.848-1.904-2.096v-4.992h-1.552v5.264c0 1.904 1.264 3.2 3.088 3.2 1.136 0 2.144-.56 2.64-1.376v1.184h1.584v-8.272zm7.734 6.784c-.16.176-.48.304-.832.304-.464 0-.864-.416-.864-.992v-4.752h1.952v-1.344h-1.952v-2.272h-1.552v2.272h-1.232v1.344h1.232v4.864c0 1.328.896 2.256 2.176 2.256.592 0 1.216-.224 1.664-.592zm6.469-6.976c-1.136 0-2.16.576-2.64 1.408v-4.128h-1.584v11.184h1.584v-5.136c0-1.088 1.024-1.952 2.288-1.952 1.12 0 1.904.848 1.904 2.096v4.992h1.536v-5.264c0-1.904-1.264-3.2-3.088-3.2zm-40.656 29.464h1.792l-4.72-10.992h-1.792l-4.72 10.992h1.792l.976-2.288h5.696zm-6.064-3.696 2.24-5.216 2.24 5.216zm18.815-4.768c-1.296 0-2.304.8-2.56 1.968-.416-1.2-1.456-1.968-2.768-1.968-1.072 0-1.936.528-2.352 1.376v-1.184h-1.584v8.272h1.584v-5.168c0-1.136.832-1.92 2.032-1.92 1.024 0 1.744.848 1.744 2.064v5.024h1.552v-5.168c0-1.136.848-1.92 2.032-1.92 1.024 0 1.76.848 1.76 2.064v5.024h1.536v-5.264c0-1.872-1.248-3.2-2.976-3.2zm8.992 7.344c-1.472 0-2.496-1.056-2.688-2.512h6.608c0-2.944-1.472-4.832-4-4.832-2.288 0-4.16 1.824-4.16 4.304 0 2.544 1.984 4.352 4.272 4.352 1.168 0 2.624-.496 3.344-1.28l-.928-.976c-.512.544-1.552.944-2.448.944zm-.048-6.032c1.44 0 2.272 1.024 2.432 2.352h-5.056c.24-1.424 1.296-2.352 2.624-2.352zm7.407.496v-1.616h-1.584v8.272h1.584v-4.4c0-1.6 1.248-2.688 3.072-2.688v-1.376c-1.44 0-2.56.704-3.072 1.808zm5.732-2.992c.528 0 .944-.448.944-.96 0-.496-.416-.944-.944-.944s-.96.448-.96.944c0 .512.432.96.96.96zm-.8 9.648h1.584v-8.272h-1.584zm7.852.192c1.232 0 2.304-.512 3.104-1.328l-1.072-.976c-.528.576-1.264.928-2.032.928-1.504 0-2.768-1.344-2.768-2.96 0-1.6 1.264-2.944 2.768-2.944.752 0 1.472.336 1.984.896l1.072-.992c-.8-.784-1.856-1.28-3.056-1.28-2.352 0-4.368 1.968-4.368 4.32s2 4.336 4.368 4.336zm7.893-8.656c-.912 0-1.952.24-3.136.832l.592 1.168c.72-.368 1.504-.688 2.32-.688 1.648 0 2.128 1.104 2.128 2.144v.256c-.8-.272-1.68-.448-2.496-.448-1.824 0-3.312 1.104-3.312 2.752 0 1.616 1.312 2.64 3.056 2.64 1.024 0 2.144-.464 2.752-1.312v1.12h1.552v-5.008c0-2.048-1.232-3.456-3.456-3.456zm-.528 7.408c-1.056 0-1.856-.544-1.856-1.44s.928-1.52 2.032-1.52c.816 0 1.568.112 2.256.32v1.104c-.272 1.024-1.408 1.536-2.432 1.536z"/><path d="m165.92 225.305h1.616v-8.336l6.304 8.336h1.632v-10.992h-1.632v8.336l-6.304-8.336h-1.616zm16.141.192c2.384 0 4.352-1.952 4.352-4.336s-1.968-4.32-4.352-4.32-4.352 1.936-4.352 4.32 1.968 4.336 4.352 4.336zm0-1.376c-1.52 0-2.768-1.328-2.768-2.96s1.248-2.944 2.768-2.944 2.768 1.312 2.768 2.944-1.248 2.96-2.768 2.96zm7.857-5.472v-1.616h-1.584v8.272h1.584v-4.4c0-1.6 1.248-2.688 3.072-2.688v-1.376c-1.44 0-2.56.704-3.072 1.808zm8.468 5.168c-.16.176-.48.304-.832.304-.464 0-.864-.416-.864-.992v-4.752h1.952v-1.344h-1.952v-2.272h-1.552v2.272h-1.232v1.344h1.232v4.864c0 1.328.896 2.256 2.176 2.256.592 0 1.216-.224 1.664-.592zm6.469-6.976c-1.136 0-2.16.576-2.64 1.408v-4.128h-1.584v11.184h1.584v-5.136c0-1.088 1.024-1.952 2.288-1.952 1.12 0 1.904.848 1.904 2.096v4.992h1.536v-5.264c0-1.904-1.264-3.2-3.088-3.2zm-40.438 29.464h1.792l-4.72-10.992h-1.792l-4.72 10.992h1.792l.976-2.288h5.696zm-6.064-3.696 2.24-5.216 2.24 5.216zm18.815-4.768c-1.296 0-2.304.8-2.56 1.968-.416-1.2-1.456-1.968-2.768-1.968-1.072 0-1.936.528-2.352 1.376v-1.184h-1.584v8.272h1.584v-5.168c0-1.136.832-1.92 2.032-1.92 1.024 0 1.744.848 1.744 2.064v5.024h1.552v-5.168c0-1.136.848-1.92 2.032-1.92 1.024 0 1.76.848 1.76 2.064v5.024h1.536v-5.264c0-1.872-1.248-3.2-2.976-3.2zm8.993 7.344c-1.472 0-2.496-1.056-2.688-2.512h6.608c0-2.944-1.472-4.832-4-4.832-2.288 0-4.16 1.824-4.16 4.304 0 2.544 1.984 4.352 4.272 4.352 1.168 0 2.624-.496 3.344-1.28l-.928-.976c-.512.544-1.552.944-2.448.944zm-.048-6.032c1.44 0 2.272 1.024 2.432 2.352h-5.056c.24-1.424 1.296-2.352 2.624-2.352zm7.407.496v-1.616h-1.584v8.272h1.584v-4.4c0-1.6 1.248-2.688 3.072-2.688v-1.376c-1.44 0-2.56.704-3.072 1.808zm5.731-2.992c.528 0 .944-.448.944-.96 0-.496-.416-.944-.944-.944s-.96.448-.96.944c0 .512.432.96.96.96zm-.8 9.648h1.584v-8.272h-1.584zm7.852.192c1.232 0 2.304-.512 3.104-1.328l-1.072-.976c-.528.576-1.264.928-2.032.928-1.504 0-2.768-1.344-2.768-2.96 0-1.6 1.264-2.944 2.768-2.944.752 0 1.472.336 1.984.896l1.072-.992c-.8-.784-1.856-1.28-3.056-1.28-2.352 0-4.368 1.968-4.368 4.32s2 4.336 4.368 4.336zm7.894-8.656c-.912 0-1.952.24-3.136.832l.592 1.168c.72-.368 1.504-.688 2.32-.688 1.648 0 2.128 1.104 2.128 2.144v.256c-.8-.272-1.68-.448-2.496-.448-1.824 0-3.312 1.104-3.312 2.752 0 1.616 1.312 2.64 3.056 2.64 1.024 0 2.144-.464 2.752-1.312v1.12h1.552v-5.008c0-2.048-1.232-3.456-3.456-3.456zm-.528 7.408c-1.056 0-1.856-.544-1.856-1.44s.928-1.52 2.032-1.52c.816 0 1.568.112 2.256.32v1.104c-.272 1.024-1.408 1.536-2.432 1.536z"/><path d="m839.238 206.771h1.792l-4.72-10.992h-1.792l-4.72 10.992h1.792l.976-2.288h5.696zm-6.064-3.696 2.24-5.216 2.24 5.216zm12.272 3.888c1.824 0 3.136-.992 3.136-2.56 0-1.648-1.44-2.096-2.8-2.496-1.408-.432-1.968-.624-1.968-1.264 0-.688.672-1.056 1.504-1.056.752 0 1.584.288 2.4.8l.656-1.12c-.88-.592-1.984-.96-3.056-.96-1.744 0-3.008.992-3.008 2.512 0 1.344.96 1.888 2.848 2.416 1.056.288 1.92.544 1.92 1.328 0 .672-.624 1.12-1.616 1.12-.912 0-1.904-.368-2.816-1.04l-.72 1.088c.992.8 2.304 1.232 3.52 1.232zm5.861-9.84c.528 0 .944-.448.944-.96 0-.496-.416-.944-.944-.944s-.96.448-.96.944c0 .512.432.96.96.96zm-.8 9.648h1.584v-8.272h-1.584zm7.308-8.464c-.912 0-1.952.24-3.136.832l.592 1.168c.72-.368 1.504-.688 2.32-.688 1.648 0 2.128 1.104 2.128 2.144v.256c-.8-.272-1.68-.448-2.496-.448-1.824 0-3.312 1.104-3.312 2.752 0 1.616 1.312 2.64 3.056 2.64 1.024 0 2.144-.464 2.752-1.312v1.12h1.552v-5.008c0-2.048-1.232-3.456-3.456-3.456zm-.528 7.408c-1.056 0-1.856-.544-1.856-1.44s.928-1.52 2.032-1.52c.816 0 1.568.112 2.256.32v1.104c-.272 1.024-1.408 1.536-2.432 1.536z"/><path d="m823.22 455.225h1.792l-4.72-10.992h-1.792l-4.72 10.992h1.792l.976-2.288h5.696zm-6.064-3.696 2.24-5.216 2.24 5.216zm15.104-4.576v5.136c0 1.088-1.008 1.952-2.272 1.952-1.12 0-1.904-.848-1.904-2.096v-4.992h-1.552v5.264c0 1.904 1.264 3.2 3.088 3.2 1.136 0 2.144-.56 2.64-1.376v1.184h1.584v-8.272zm6.918 8.464c1.824 0 3.136-.992 3.136-2.56 0-1.648-1.44-2.096-2.8-2.496-1.408-.432-1.968-.624-1.968-1.264 0-.688.672-1.056 1.504-1.056.752 0 1.584.288 2.4.8l.656-1.12c-.88-.592-1.984-.96-3.056-.96-1.744 0-3.008.992-3.008 2.512 0 1.344.96 1.888 2.848 2.416 1.056.288 1.92.544 1.92 1.328 0 .672-.624 1.12-1.616 1.12-.912 0-1.904-.368-2.816-1.04l-.72 1.088c.992.8 2.304 1.232 3.52 1.232zm8.597-1.68c-.16.176-.48.304-.832.304-.464 0-.864-.416-.864-.992v-4.752h1.952v-1.344h-1.952v-2.272h-1.552v2.272h-1.232v1.344h1.232v4.864c0 1.328.896 2.256 2.176 2.256.592 0 1.216-.224 1.664-.592zm3.829-5.168v-1.616h-1.584v8.272h1.584v-4.4c0-1.6 1.248-2.688 3.072-2.688v-1.376c-1.44 0-2.56.704-3.072 1.808zm8.068-1.808c-.912 0-1.952.24-3.136.832l.592 1.168c.72-.368 1.504-.688 2.32-.688 1.648 0 2.128 1.104 2.128 2.144v.256c-.8-.272-1.68-.448-2.496-.448-1.824 0-3.312 1.104-3.312 2.752 0 1.616 1.312 2.64 3.056 2.64 1.024 0 2.144-.464 2.752-1.312v1.12h1.552v-5.008c0-2.048-1.232-3.456-3.456-3.456zm-.528 7.408c-1.056 0-1.856-.544-1.856-1.44s.928-1.52 2.032-1.52c.816 0 1.568.112 2.256.32v1.104c-.272 1.024-1.408 1.536-2.432 1.536zm6.407 1.056h1.584v-11.184h-1.584zm4.972-9.648c.528 0 .944-.448.944-.96 0-.496-.416-.944-.944-.944s-.96.448-.96.944c0 .512.432.96.96.96zm-.8 9.648h1.584v-8.272h-1.584zm7.308-8.464c-.912 0-1.952.24-3.136.832l.592 1.168c.72-.368 1.504-.688 2.32-.688 1.648 0 2.128 1.104 2.128 2.144v.256c-.8-.272-1.68-.448-2.496-.448-1.824 0-3.312 1.104-3.312 2.752 0 1.616 1.312 2.64 3.056 2.64 1.024 0 2.144-.464 2.752-1.312v1.12h1.552v-5.008c0-2.048-1.232-3.456-3.456-3.456zm-.528 7.408c-1.056 0-1.856-.544-1.856-1.44s.928-1.52 2.032-1.52c.816 0 1.568.112 2.256.32v1.104c-.272 1.024-1.408 1.536-2.432 1.536zm-57.766 21.576-1.808-1.84c.56-.784 1.072-1.696 1.536-2.704l-1.264-.576c-.32.848-.72 1.632-1.184 2.32-.896-.944-1.584-1.712-2.24-2.464 1.632-.704 2.624-1.376 2.624-2.752 0-1.456-1.184-2.624-2.768-2.624-1.68 0-2.896 1.168-2.896 2.64 0 .816.256 1.504.88 2.368-1.696.752-2.48 1.744-2.48 3.168 0 1.952 1.536 3.136 3.536 3.136 1.328 0 2.4-.528 3.312-1.408.4.416.848.88 1.344 1.376zm-5.088-9.376c.752 0 1.28.608 1.28 1.376 0 .848-.576 1.28-1.92 1.808-.544-.688-.816-1.248-.816-1.808 0-.848.64-1.376 1.456-1.376zm-.848 8.736c-1.136 0-2.08-.704-2.08-1.888 0-.896.592-1.6 1.648-2.128.688.816 1.504 1.728 2.704 2.976-.688.64-1.456 1.04-2.272 1.04zm17.717 1.312c3.104 0 5.696-2.608 5.696-5.696s-2.592-5.68-5.696-5.68c-3.072 0-5.696 2.592-5.696 5.68s2.624 5.696 5.696 5.696zm0-1.488c-2.192 0-4.048-1.92-4.048-4.208 0-2.272 1.856-4.192 4.048-4.192s4.048 1.92 4.048 4.192c0 2.288-1.856 4.208-4.048 4.208zm11.526 1.488c1.232 0 2.304-.512 3.104-1.328l-1.072-.976c-.528.576-1.264.928-2.032.928-1.504 0-2.768-1.344-2.768-2.96 0-1.6 1.264-2.944 2.768-2.944.752 0 1.472.336 1.984.896l1.072-.992c-.8-.784-1.856-1.28-3.056-1.28-2.352 0-4.368 1.968-4.368 4.32s2 4.336 4.368 4.336zm8.357-1.312c-1.472 0-2.496-1.056-2.688-2.512h6.608c0-2.944-1.472-4.832-4-4.832-2.288 0-4.16 1.824-4.16 4.304 0 2.544 1.984 4.352 4.272 4.352 1.168 0 2.624-.496 3.344-1.28l-.928-.976c-.512.544-1.552.944-2.448.944zm-.048-6.032c1.44 0 2.272 1.024 2.432 2.352h-5.056c.24-1.424 1.296-2.352 2.624-2.352zm8.959-1.312c-.912 0-1.952.24-3.136.832l.592 1.168c.72-.368 1.504-.688 2.32-.688 1.648 0 2.128 1.104 2.128 2.144v.256c-.8-.272-1.68-.448-2.496-.448-1.824 0-3.312 1.104-3.312 2.752 0 1.616 1.312 2.64 3.056 2.64 1.024 0 2.144-.464 2.752-1.312v1.12h1.552v-5.008c0-2.048-1.232-3.456-3.456-3.456zm-.528 7.408c-1.056 0-1.856-.544-1.856-1.44s.928-1.52 2.032-1.52c.816 0 1.568.112 2.256.32v1.104c-.272 1.024-1.408 1.536-2.432 1.536zm10.632-7.408c-1.136 0-2.16.576-2.64 1.408v-1.216h-1.584v8.272h1.584v-5.136c0-1.088 1.024-1.952 2.288-1.952 1.12 0 1.904.848 1.904 2.096v4.992h1.536v-5.264c0-1.904-1.264-3.2-3.088-3.2zm6.31-1.184c.528 0 .944-.448.944-.96 0-.496-.416-.944-.944-.944s-.96.448-.96.944c0 .512.432.96.96.96zm-.8 9.648h1.584v-8.272h-1.584zm7.308-8.464c-.912 0-1.952.24-3.136.832l.592 1.168c.72-.368 1.504-.688 2.32-.688 1.648 0 2.128 1.104 2.128 2.144v.256c-.8-.272-1.68-.448-2.496-.448-1.824 0-3.312 1.104-3.312 2.752 0 1.616 1.312 2.64 3.056 2.64 1.024 0 2.144-.464 2.752-1.312v1.12h1.552v-5.008c0-2.048-1.232-3.456-3.456-3.456zm-.528 7.408c-1.056 0-1.856-.544-1.856-1.44s.928-1.52 2.032-1.52c.816 0 1.568.112 2.256.32v1.104c-.272 1.024-1.408 1.536-2.432 1.536z"/></g><g filter="url(#l)"><path d="m537.691 251h-89.691v52.844h65.218l24.473 30.767v-30.767z" fill="#1e1d40"/></g><path d="m465.414 285.162h3.234v-15.114h-2.596l-4.532 3.036 1.32 2.288 2.574-1.606zm8.859.264c1.078 0 1.958-.924 1.958-2.046 0-1.034-.88-1.958-1.958-1.958-1.166 0-2.046.924-2.046 1.958 0 1.122.88 2.046 2.046 2.046zm11.92-10.032c-1.43 0-2.816.55-3.74 1.452.286-2.552 1.606-4.202 3.586-4.202 1.276 0 2.156.462 3.08 1.232l1.54-2.464c-1.232-.99-2.75-1.628-4.62-1.628-4.202 0-6.952 3.366-6.952 8.074 0 4.4 2.024 7.568 6.424 7.568 3.3 0 5.786-2.134 5.786-5.236 0-2.992-2.31-4.796-5.104-4.796zm-.858 7.282c-1.694 0-2.508-1.034-2.794-2.882.462-1.078 1.474-1.76 2.706-1.76 1.474 0 2.706.858 2.706 2.31 0 1.21-1.012 2.332-2.618 2.332zm13.54 2.772c3.542 0 5.83-1.892 5.83-4.51 0-2.002-1.518-3.168-3.168-3.542 1.672-.484 2.838-1.738 2.838-3.476 0-2.398-2.134-4.136-5.522-4.136-2.684 0-4.488 1.166-5.742 2.684l1.87 1.98c1.012-1.056 2.134-1.76 3.542-1.76 1.496 0 2.552.704 2.552 1.804 0 1.078-.99 1.694-2.64 1.694l-1.738-.022v2.772h1.738c2.024-.022 2.948.572 2.948 1.738 0 1.078-.99 1.848-2.64 1.848-1.518 0-2.948-.638-4.026-1.782l-1.914 2.156c1.276 1.474 3.366 2.552 6.072 2.552zm11.885-7.81c2.222 0 3.784-1.694 3.784-3.872 0-2.134-1.496-3.872-3.784-3.872-2.266 0-3.762 1.716-3.762 3.894 0 2.156 1.496 3.85 3.762 3.85zm-1.782 7.524h2.53l10.516-15.114h-2.552zm1.782-9.416c-.902 0-1.606-.792-1.606-1.98s.66-1.958 1.606-1.958c.924 0 1.606.792 1.606 1.958 0 1.21-.682 1.98-1.606 1.98zm9.438 9.658c2.222 0 3.762-1.694 3.762-3.872 0-2.134-1.474-3.872-3.762-3.872-2.244 0-3.784 1.716-3.784 3.872s1.54 3.872 3.784 3.872zm0-1.914c-.924 0-1.606-.792-1.606-1.958 0-1.21.66-1.98 1.606-1.98.902 0 1.606.792 1.606 1.98s-.66 1.958-1.606 1.958z" fill="#fff"/><g filter="url(#m)"><path d="m537.614 272.283h76.087v38.095h-56.807l-19.28 24.246v-24.246z" fill="#c94777"/></g><path d="m559.297 296.555c2.896 0 4.928-2.352 4.928-5.696 0-3.328-2.032-5.68-4.928-5.68s-4.944 2.352-4.944 5.68c0 3.344 2.048 5.696 4.944 5.696zm0-2.144c-1.472 0-2.512-1.488-2.512-3.552s1.04-3.536 2.512-3.536 2.512 1.472 2.512 3.536-1.04 3.552-2.512 3.552zm8.447 2.144c.784 0 1.424-.672 1.424-1.488 0-.752-.64-1.424-1.424-1.424-.848 0-1.488.672-1.488 1.424 0 .816.64 1.488 1.488 1.488zm5.885-.192h2.352v-10.992h-1.888l-3.296 2.208.96 1.664 1.872-1.168zm8.555-11.184c-2.4 0-4.208 1.552-4.208 3.808 0 2.176 1.68 3.488 3.712 3.488 1.04 0 2.048-.4 2.72-1.056-.208 1.856-1.168 3.056-2.608 3.056-.928 0-1.568-.336-2.24-.896l-1.12 1.792c.896.72 2 1.184 3.36 1.184 3.056 0 5.056-2.448 5.056-5.872 0-3.2-1.472-5.504-4.672-5.504zm.192 5.376c-1.072 0-1.968-.624-1.968-1.68 0-.88.736-1.696 1.904-1.696 1.232 0 1.824.752 2.032 2.096-.336.784-1.072 1.28-1.968 1.28zm8.904.336c1.616 0 2.752-1.232 2.752-2.816 0-1.552-1.088-2.816-2.752-2.816-1.648 0-2.736 1.248-2.736 2.832 0 1.568 1.088 2.8 2.736 2.8zm-1.296 5.472h1.84l7.648-10.992h-1.856zm1.296-6.848c-.656 0-1.168-.576-1.168-1.44s.48-1.424 1.168-1.424c.672 0 1.168.576 1.168 1.424 0 .88-.496 1.44-1.168 1.44zm6.864 7.024c1.616 0 2.736-1.232 2.736-2.816 0-1.552-1.072-2.816-2.736-2.816-1.632 0-2.752 1.248-2.752 2.816s1.12 2.816 2.752 2.816zm0-1.392c-.672 0-1.168-.576-1.168-1.424 0-.88.48-1.44 1.168-1.44.656 0 1.168.576 1.168 1.44s-.48 1.424-1.168 1.424z" fill="#fff"/></svg>