<svg xmlns="http://www.w3.org/2000/svg" role="img" viewBox="52.91 0.41 290.42 242.17"><title>circle-ci.svg</title><path d="M144.39316 93.69469c4.177 0 8.36349.1726 12.52763-.057 3.08839-.17061 4.74939 1.00483 6.22092 3.7272 7.30312 13.51213 18.82294 20.604 34.14387 20.75623 19.99542.19838 36.76009-15.62793 38.2723-35.60053a38.55236 38.55236 0 0 0-32.66439-40.81169 38.10614 38.10614 0 0 0-39.80781 20.37731c-1.42343 2.79329-3.15684 3.77431-6.21745 3.70983-8.44483-.17855-16.89561-.061-25.34441-.062-5.47052-.001-6.515-1.44723-4.92347-6.80814 8.908-30.00253 34.94335-50.60154 66.527-52.63649 37.505-2.41536 71.581 25.34243 76.74249 62.51369 5.54243 39.91643-19.89523 75.52093-59.50118 83.2828-36.60436 7.17318-74.42186-16.43288-84.03618-52.457-1.16949-4.38138.04761-5.92929 4.67549-5.93376q6.69258-.00694 13.38516-.001zm167.65476 114.90865c-2.70351.48456-5.11144-.34171-7.35569-3.54517-4.11057-5.86729-12.80587-6.09445-18.09437-1.101a12.46217 12.46217 0 0 0-.64921 17.61221q.30861.33223.64078.64137c5.25378 4.95571 14.01356 4.68392 18.10777-1.13577 2.092-2.97282 4.29506-3.88193 7.54216-3.47573a13.873 13.873 0 0 0 1.70712.00991c5.34058.00148 5.52557.27626 3.45343 5.13425a24.17543 24.17543 0 1 1 .25591-18.754c1.67934 4.25242 1.43236 4.6115-3.17717 4.61348h-2.43025zm-68.72866 6.83543c-5.88168 0-11.76682.11556-17.64354-.05307-2.59738-.07439-2.82453.80248-2.0409 2.93167 2.23186 6.06569 6.36277 10.0483 12.67444 11.49553 6.48031 1.48592 12.20228-.33973 16.39767-5.37331 2.44612-2.93464 5.26221-2.13564 7.99747-1.93527 1.8946.13887.80447 1.71356.29262 2.58747-3.991 6.81608-9.94265 10.9822-17.74074 11.923-9.75914 1.17692-17.84292-2.2864-23.31392-10.53037-5.44572-8.20579-5.73685-16.99679-.78859-25.53735 4.95571-8.554 12.74388-12.57525 22.58089-11.98257a24.03259 24.03259 0 0 1 22.47624 23.04858c.09571 2.48877-.4434 3.58982-3.24858 3.48913-5.87424-.21128-11.76136-.06447-17.643-.064zm-3.46582-6.944c4.63978 0 9.281-.07043 13.91832.03026 2.214.0481 3.013-.41661 1.845-2.68319-3.29323-6.38657-8.47608-9.9362-15.64281-9.91239-7.29815.02479-12.479 3.72868-15.72265 10.25659-1.03508 2.08406-.181 2.36378 1.68381 2.33352 4.63827-.07539 9.27855-.02479 13.91832-.02479z"/><path d="M197.18737 62.27914a17.43529 17.43529 0 1 1-.06051 34.87046 17.34943 17.34943 0 0 1-17.52217-17.175q-.00153-.15344-.00035-.3069a17.32281 17.32281 0 0 1 17.58303-17.38856zM84.05826 237.25784c-12.88573-.08927-22.90129-8.29653-24.961-19.31593-2.208-11.81 3.91616-23.13438 14.81355-27.39227a24.21426 24.21426 0 0 1 29.37316 9.63318c.56044.90464 1.71753 1.849.99094 3.04028-.62442 1.02417-1.907.50738-2.90934.613a6.573 6.573 0 0 1-6.14206-2.47091 16.95586 16.95586 0 0 0-24.63469-.41413 17.161 17.161 0 0 0 .12 24.269q.21719.215.44192.42225a16.7217 16.7217 0 0 0 24.34555-1.18883c2.455-2.92274 5.24981-2.14407 7.98556-1.95312 1.89658.13243.83422 1.70762.311 2.58-4.78112 7.96523-11.88883 11.93545-19.73453 12.17749zm90.21394.003c-12.33669-.06448-22.3086-8.20925-24.51813-19.28816a24.21262 24.21262 0 0 1 44.04535-18.03486c.63137.98747 1.85491 2.04339 1.12089 3.29323-.64823 1.106-2.08553.46125-3.1717.60757-2.45405.3308-4.12051-.59665-5.84051-2.50662a17.00511 17.00511 0 0 0-24.63866-.37 17.179 17.179 0 1 0 25.17678 23.34963c1.40458-1.64313 6.14652-2.80073 7.98854-1.86038 1.50079.76628.5272 1.81623.05654 2.61971a23.9022 23.9022 0 0 1-15.21379 11.4985 20.39645 20.39645 0 0 1-5.0053.69138zm150.9233-24.23345c0-6.91379.06051-13.82757-.03969-20.73987-.02779-1.88319.56145-2.4833 2.41736-2.36576 2.35832.14979 4.73548.0992 7.09977.01438 1.41-.05058 2.04238.33627 2.03793 1.87972q-.06 21.025.002 42.04958c.00545 1.79838-.77122 2.27947-2.41784 2.20408a58.24931 58.24931 0 0 0-6.53139.00893c-2.0047.1339-2.63111-.619-2.60383-2.5949.09323-6.81756.03572-13.63711.03572-20.45616zm-193.16234-15.561c4.10859-4.93388 8.56783-7.52581 14.06068-8.40962 2.33005-.375 3.23519.12251 3.27685 2.67327.04563 2.74568-.3571 4.11652-3.61015 4.62737-8.07633 1.27017-13.59992 8.61346-13.70853 17.51855-.08035 6.54924-.1602 13.10444.04562 19.64823.09523 3.02837-1.73291 2.51208-3.4792 2.51951-1.77359.00793-3.5422.4543-3.51344-2.53837q.19692-20.50228.01389-41.00806c-.02182-2.96241 1.82218-2.522 3.60072-2.53985 1.71456-.01786 3.59973-.35165 3.33637 2.4347-.13094 1.38871-.02281 2.79973-.02281 5.07424zm70.02561 7.83281c0-9.096.10763-18.19357-.06448-27.28563-.05306-2.81114 1.24983-3.06012 3.441-2.9887 2.00073.06546 3.58286-.14383 3.561 2.8533q-.19639 27.71216.00446 55.42581c.02678 3.377-1.97147 2.60135-3.85664 2.76849-2.23334.19788-3.18312-.40173-3.14345-2.91877.14632-9.283.058-18.569.058-27.8545zm-83.78177 7.39191c0 6.91378-.13737 13.83153.06448 20.73985.08482 2.90289-1.52559 2.64846-3.39539 2.6321-1.91641-.01736-3.6409.35213-3.60667-2.72634.15127-13.63661.10663-27.27621.01984-40.91432-.0124-2.01363.57234-2.55819 2.54828-2.51306 4.36649.10018 4.36946-.00745 4.36946 4.31294zm212.66625-24.97692a6.826 6.826 0 0 1-6.96912-6.67981l-.0007-.03807a7.0105 7.0105 0 0 1 6.97266-7.04811l.0185-.00008a6.75507 6.75507 0 0 1 6.86692 6.64133q.00363.21737-.00672.43464a6.59637 6.59637 0 0 1-6.88154 6.69059zm-211.49875-6.70745a4.43064 4.43064 0 0 1-4.801 4.42353 4.57282 4.57282 0 0 1 .2698-9.14067 4.46076 4.46076 0 0 1 4.5379 4.38222q.00297.16752-.0067.33492z"/></svg>