<?xml version="1.0" encoding="UTF-8"?> <svg xmlns="http://www.w3.org/2000/svg" id="Layer_1" data-name="Layer 1" viewBox="0 0 400 245"><defs><style>.cls-1,.cls-2{fill:#fff;fill-rule:evenodd}.cls-2{fill:#5c2d91}</style></defs><title>datadog</title><path class="cls-1" d="M134.632 176.982l12.653-2.156c6.176 6.814 3.758 9.5 9.057 13.373 8.817 6.45 19.859 3.564 23.616-1.685 4.446-6.217 4.14-12.131 2.756-17.73l14.356-2.447 1.754 14.694 81.706-14.777-4.86-59.063-2.79.507-8.705-94.774L116.648 28.37z"></path><path class="cls-2" d="M259.545 141.497l-15.62-10.335-13.032 21.834-15.155-4.444-13.345 20.43.683 6.43 72.557-13.41-4.215-45.473zm-67.663-19.604l11.641-1.607a29.277 29.277 0 0 0 5.452 1.75c3.518.919 7.589 1.8 13.618-1.246a23.729 23.729 0 0 0 5.507-4.907l47.694-8.679 4.865 59.068-81.71 14.772zm88.597-21.285l-4.708.9-9.043-93.736-154.115 17.925L131.6 180.246l18.04-2.627a40.756 40.756 0 0 0-7.515-7.755c-5.313-4.427-3.434-11.947-.3-16.696 4.145-8.024 25.509-18.22 24.3-31.044-.434-4.663-1.173-10.733-5.489-14.892a14.482 14.482 0 0 0 .13 3.388 17.396 17.396 0 0 1-2.655-5.36 26.402 26.402 0 0 1-2.497-3.147 11.905 11.905 0 0 0-.577 3.956 24.804 24.804 0 0 1-1.685-6.334 10.106 10.106 0 0 0-1.076 3.762s-1.883-5.414-1.454-8.332c-.859-2.539-3.407-7.575-2.687-19.023 4.704 3.305 15.058 2.52 19.093-3.444 1.339-1.975 2.257-7.367-.67-17.993-1.878-6.814-6.531-16.96-8.345-20.81l-.217.157c.955 3.102 2.926 9.602 3.683 12.754 2.29 9.56 2.904 12.889 1.828 17.297-.914 3.832-3.106 6.338-8.664 9.14-5.558 2.811-12.935-4.03-13.401-4.408-5.4-4.316-9.579-11.356-10.045-14.777-.484-3.743 2.151-5.991 3.48-9.052a33.832 33.832 0 0 0-4.02 1.514 48.482 48.482 0 0 1 5.65-4.898 33.311 33.311 0 0 0 3.412-2.538c-1.971-.033-3.573.023-3.573.023a63.723 63.723 0 0 1 6.693-3.08c-2.493-.11-4.88-.018-4.88-.018s7.336-3.291 13.13-5.705c3.983-1.64 7.874-1.154 10.062 2.017 2.872 4.155 5.886 6.412 12.275 7.81 3.924-1.744 5.114-2.64 10.045-3.988 4.339-4.787 7.745-5.405 7.745-5.405a7.887 7.887 0 0 0-2.141 3.997 56.983 56.983 0 0 1 5.156-3.568 18.318 18.318 0 0 0-2.017 3.347l.226.337a51.317 51.317 0 0 1 6.245-3.089s-.964 1.224-2.095 2.807c2.165-.018 6.555.092 8.258.286 10.058.222 12.145-10.774 16.004-12.154 4.833-1.731 6.994-2.779 15.229 5.336 7.067 6.966 12.588 19.434 9.846 22.227-2.299 2.317-6.832-.905-11.859-7.187a27.26 27.26 0 0 1-5.604-12.26 12.03 12.03 0 0 0-3.882-6.667 21.993 21.993 0 0 1 1.791 7.539c0 1.93.24 9.14 3.324 13.188-.305.59-.448 2.927-.785 3.374-3.587-4.348-11.291-7.46-12.547-8.378 4.252 3.494 14.024 11.522 17.777 19.217 3.55 7.275 1.458 13.945 3.254 15.672.512.494 7.636 9.398 9.007 13.871 2.39 7.797.143 15.99-2.987 21.073l-8.739 1.367a12.201 12.201 0 0 1-3.286-1.2 21.996 21.996 0 0 0 1.901-4.497l-.493-.868a36.929 36.929 0 0 1-11.06 9.773c-4.954 2.816-10.664 2.382-14.38 1.228-10.548-3.264-20.523-10.414-22.928-12.293 0 0-.074 1.5.378 1.837a81.712 81.712 0 0 0 14.643 12.247l-12.556 1.385 5.936 46.36c-2.631.378-3.042.563-5.922.974-2.54-8.997-7.395-14.874-12.704-18.294-4.68-3.019-11.139-3.698-17.32-2.47l-.397.462a22.252 22.252 0 0 1 14.583 3.485c5.114 3.245 9.237 11.623 10.755 16.669 1.944 6.449 3.287 13.345-1.943 20.657-3.72 5.198-14.583 8.07-23.358 1.856 2.345 3.78 5.512 6.873 9.777 7.455 6.333.863 12.344-.24 16.48-4.5 3.531-3.643 5.405-11.26 4.911-19.282l5.59-.813 2.018 14.398 92.526-11.176zm-56.294-39.1c-.258.592-.664.98-.055 2.904l.037.111.097.25.254.577c1.099 2.252 2.303 4.376 4.32 5.46a13.94 13.94 0 0 1 1.62-.175 7.379 7.379 0 0 1 3.846.628 8.186 8.186 0 0 0 .042-1.75c-.148-2.852.563-7.704-4.903-10.257-2.063-.96-4.957-.665-5.922.536a2.5 2.5 0 0 1 .457.101c1.458.508.47 1.011.207 1.616m15.322 26.617c-.716-.397-4.067-.24-6.422.041-4.486.531-9.33 2.091-10.39 2.922-1.93 1.496-1.053 4.104.373 5.175 3.998 2.996 7.501 5.004 11.2 4.514 2.27-.3 4.274-3.905 5.69-7.178.97-2.252.97-4.685-.451-5.474M199.789 65.04c1.265-1.205-6.3-2.788-12.173 1.228-4.33 2.964-4.468 9.316-.323 12.916a10.233 10.233 0 0 0 1.076.817 35.105 35.105 0 0 1 4.177-1.666 37.343 37.343 0 0 1 6.745-1.565 7.357 7.357 0 0 0 1.643-5.849c-.346-4.251-3.56-3.577-1.145-5.88M99.13 237.352H84.103v-34.589h15.025q16.238 0 16.245 16.35 0 18.232-16.245 18.239m-8.6-5.567h7.63q10.789 0 10.784-12.676 0-10.795-10.783-10.793h-7.63zm31.575 5.567h-6.597l14.712-34.589h6.906l15.035 34.589h-6.91l-4.363-9.435h-11.102l2.207-5.559h7.2l-5.672-12.994zm26.423-34.589h26.303v5.562h-9.939v29.027h-6.421v-29.027h-9.943zm29.603 34.589h-6.596l14.716-34.589h6.906l15.03 34.589h-6.91l-4.363-9.435h-11.102l2.202-5.559h7.202l-5.674-12.994zm49.347 0H212.45v-34.589h15.026q16.244 0 16.244 16.35 0 18.232-16.244 18.239m-8.605-5.567h7.635q10.781 0 10.788-12.676 0-10.795-10.788-10.793h-7.635zm29.197-11.679q0-17.594 17.408-17.592 17.137 0 17.135 17.592 0 17.49-17.135 17.495-16.632 0-17.408-17.495m17.408 11.919q10.469 0 10.47-12.066 0-11.883-10.47-11.887-10.739 0-10.737 11.887 0 12.068 10.737 12.066m43.937-8.67v8.098a15.895 15.895 0 0 1-3.974.577q-11.786 0-11.781-12.455 0-11.5 12.482-11.499a24.146 24.146 0 0 1 9.694 1.94v-5.808a28.69 28.69 0 0 0-10.18-1.694q-18.66 0-18.667 17.061 0 18.017 18.35 18.026a26.139 26.139 0 0 0 10.497-1.841v-18.096h-10.373l-2.17 5.692z"></path></svg> 