<svg xmlns="http://www.w3.org/2000/svg" role="img" viewBox="149.51 149.51 441.48 175.23"><title>IBM_logo┬«_pos_blue60_CMYK.svg</title><path fill="#426ab3" d="M565.85 307.79a8.41 8.41 0 1 1 8.4 8.66 8.43 8.43 0 0 1-8.4-8.66zm14.83.55v-1.09a6.43 6.43 0 0 0-12.85 0v1.09a6.43 6.43 0 0 0 12.85 0zm-7.68 3.91h-2.14v-8.78h4a2.66 2.66 0 0 1 3 2.77 2.61 2.61 0 0 1-1.59 2.65l2 3.36h-2.35l-1.64-3H573zm1.6-4.62c.67 0 1-.3 1-.93v-.63c0-.63-.38-.92-1-.92H573v2.48zM158 305h77v11h-77zm0-10h77v-11h-77zm22-21h33v-11h-33zm0-21h33v-11h-33zm0-21h33v-11h-33zm33-32h-33v11h33zm-55-10h77v-11h-77zm0-21h77v-11h-77zm88 126h117.37a41.76 41.76 0 0 0 4.42-11H246zm108.18-53H268v11h95.36a42.45 42.45 0 0 0-9.18-11zM268 221v11h86.18a42.45 42.45 0 0 0 9.18-11zm95.37-42H246v11h121.79a41.76 41.76 0 0 0-4.42-11zM327 158h-81v11h109.33A41.84 41.84 0 0 0 327 158zm-59 53h33v-11h-33zm64 0h35.53a42 42 0 0 0 1.47-11h-37zm-64 63h33v-11h-33zm64-11v11h37a42 42 0 0 0-1.47-11zm-86 53h81a41.69 41.69 0 0 0 28.33-11H246zm220 0l3.82-11h-7.64zm-7.33-21h14.66l3.87-11h-22.4zm-7.38-21h29.42l3.86-11h-37.14zm-7.37-21h44.16l3.86-11h-51.88zM400 211h59.43l-3.82-11H400zm79.87-21H554v-11h-70.3zM491 158l-3.82 11H554v-11zM378 316h55v-11h-55zm0-21h55v-11h-55zm22-21h33v-11h-33zm0-21h33v-11h-33zm132-53h-55.6l-3.83 11H532zm-33 32h33v-11h-62.91l-3.09 8.89-3.09-8.89H400v11h33v-10.11l3.55 10.11h58.9l3.55-10.11zm33 10h-33v11h33zm-33 32h33v-11h-33zm0 21h55v-11h-55zm0 21h55v-11h-55zm-46.87-126l-3.83-11H378v11zm-7.3-21L441 158h-63v11z" data-name="IBM®"/></svg>