<svg fill="none" height="101" viewBox="0 0 100 101" width="100" xmlns="http://www.w3.org/2000/svg" xmlns:xlink="http://www.w3.org/1999/xlink"><clipPath id="a"><path d="m16.6348 30.1162h67v46h-67z"/></clipPath><circle cx="50" cy="50.9834" fill="#463ac5" r="47.5" stroke="#d0d0d0" stroke-width="5"/><g clip-path="url(#a)" fill="#fff"><path d="m83.6348 41.5283c0-1.8642-.8017-3.3063-2.3202-4.1779-1.5532-.891-3.2105-.8402-4.7868.1446-.2968.1876-.5936.3752-.8903.5667-.5936.383-1.2102.7739-1.8269 1.1334-.1117.0665-.3083.086-.37.0626l-1.3335-.5159c-1.9348-.7465-3.9389-1.5164-5.8544-2.3723-2.8559-1.2741-5.7311-2.6342-8.5138-3.9513-.7939-.3752-1.584-.7504-2.3779-1.1255-3.5959-1.6962-7.215-1.5594-10.7492.4025-6.0587 3.365-11.8052 5.8428-17.5709 7.582-.2968.0899-.4163.0547-.5858-.0625-.3855-.2619-.7824-.5081-1.1678-.7465-.424-.2619-.8595-.5315-1.268-.8168-1.4222-.9927-3.091-1.1999-4.5864-.5628-1.3605.5784-2.3703 1.7782-2.6709 3.1578l-.1272.1329v13.9329l.0154.1329c.4586 2.0166 1.9001 3.068 2.9484 3.6855.952.5627 1.9039 1.1724 2.8251 1.7626.6975.4455 1.4183.9067 2.1351 1.3483.2929.1798.3315.2775.3161.5472-.1002 2.0518.7053 3.791 2.3934 5.1706 4.174 3.408 8.8567 5.9483 13.9211 7.5468 3.407 1.0748 6.6252 1.6102 9.7316 1.6102 1.8307 0 3.619-.1876 5.3804-.555 6.2629-1.3171 11.8514-4.2209 17.093-8.8834 1.3566-1.2077 2.0272-2.7319 1.9926-4.5375-.0039-.2228.0231-.2931.2813-.4533 1.3605-.8442 2.7364-1.7197 4.0622-2.5639l1.6111-1.0239c1.5185-.9614 2.2893-2.3723 2.2893-4.1857v-12.3853zm-8.2401.7309c0-.2189.0269-.2423.1618-.3244.767-.4573 1.5879-.9732 2.5861-1.6258.3276-.215.6244-.3205.9173-.3205.2236 0 .4433.0625.6706.1915.4818.2736.6976.7035.6976 1.3952-.0077 4.1076-.0077 8.2152 0 12.3227 0 .8012-.2775 1.0826-.4894 1.2194-1.2488.8246-2.5014 1.6219-3.8272 2.4622-.2312.1485-.4663.297-.7053.4455v-6.9996c0-2.9234 0-5.8507-.0077-8.774zm-3.1951.1211c-.0116 5.2136-.0116 10.4272-.0116 15.6369v4.1818c0 .8129-.2852 1.4617-.8671 1.9815-5.5654 4.9752-11.4969 7.7774-18.1337 8.5669-3.2567.3869-6.6406-.0078-10.6566-1.2507-4.9757-1.5359-9.4811-3.959-13.3854-7.1989-.7284-.6019-1.0676-1.278-1.0676-2.1261 0-6.3118 0-12.6236 0-18.9355v-.852c.3777-.1289.7555-.254 1.1332-.383 1.0868-.3673 2.2084-.7425 3.3068-1.1373 4.3667-1.5672 8.7835-3.6112 13.501-6.2571 2.7171-1.5242 5.4613-1.5867 8.3865-.1954 4.0931 1.9463 8.1746 3.8028 13.0424 5.9953 1.214.5471 2.4743 1.0122 3.6922 1.4656.3161.1172.6321.2345.9481.3517.0578.0235.0887.0391.1002.0391 0 .0156.0077.0508.0077.1094zm-51.6799-2.212c.2043-.1212.4317-.1837.6591-.1837s.4779.0664.7053.1954c.8594.4885 1.7613 1.0591 2.9137 1.8408.0231.0508.0539.1602.0539.2462.0116 3.8457.0116 7.6914.0116 11.5371v3.8027l-.6629-.4181c-1.3258-.8403-2.5746-1.6337-3.8271-2.4505-.3469-.2267-.5242-.5862-.5242-1.0669v-2.2199c-.0077-3.3064-.0154-6.7222.0039-10.0833 0-.5198.2428-.9575.659-1.2037z"/><path d="m67.0853 46.9334c-11.2733 3.9942-22.6777 3.9942-33.9009 0l-.5395-.1915-1.0946 3.0601.5511.1954c5.9893 2.1261 12.0172 3.1892 18.0412 3.1892 6.0239 0 12.0518-1.0631 18.0295-3.1892l.5512-.1954-1.1023-3.0562-.5396.1915z"/><path d="m67.0853 56.3249c-11.2733 3.9942-22.6777 3.9942-33.9009 0l-.5395-.1915-1.0946 3.0601.5511.1954c5.9893 2.1261 12.0172 3.1892 18.0412 3.1892s12.0479-1.0631 18.0257-3.1892l.5511-.1954-1.0984-3.0562-.5396.1915z"/></g></svg>