<svg fill="none" height="101" viewBox="0 0 100 101" width="100" xmlns="http://www.w3.org/2000/svg"><circle cx="50" cy="50.9199" fill="#463ac5" r="47.5" stroke="#d0d0d0" stroke-width="5"/><path d="m36.2714 76.1403-11.1492-11.1578c-.0394-.5396-.0945-1.0792-.1102-1.6227-.1181-3.6904.6808-7.2114 1.9992-10.6301 1.7513-4.5411 4.3527-8.5624 7.5247-12.2331 3.5419-4.1 7.5443-7.6683 12.2-10.4607 4.3408-2.5994 8.969-4.3875 14.0536-4.7695 1.3145-.0985 2.6486.0236 3.9709.0472l11.1493 11.1579c.0236 1.2721.1417 2.5482.059 3.8125-.2952 4.4426-1.6608 8.5899-3.7938 12.4615-4.6124 8.3654-11.1256 14.8876-19.4531 19.5548-3.904 2.1858-8.0914 3.5958-12.5897 3.8991-1.279.0866-2.5738-.0315-3.8607-.0551zm31.9641-40.6653c-.0945-.126-.1299-.189-.1811-.2363-1.7158-1.7172-3.4238-3.4423-5.1554-5.1437-.1575-.1536-.4487-.2403-.673-.2363-2.7863.0315-5.4507.6892-8.0363 1.6896-3.6915 1.4258-6.9815 3.5289-10.0276 6.026-.6258.512-5.3326 5.1319-5.3916 5.1949-2.7155 2.9854-5.0099 6.2583-6.6982 9.9369-1.405 3.0642-2.318 6.2504-2.4243 9.6454-.0118.3742.0905.646.3621.9138 1.6096 1.5872 3.2035 3.1941 4.8052 4.7971.122.1221.2558.2363.4368.4017.0433-.1654.0748-.2639.0945-.3663.8264-4.3402 2.5541-8.3142 4.8918-12.0361 2.7234-4.3284 6.1039-8.0819 9.9647-11.4178 3.3727-2.9184 7.0524-5.3485 11.161-7.0972 2.1842-.9295 4.4432-1.6227 6.8635-2.0677zm3.1169 4.2261c-1.3853.252-2.6722.4923-3.9631.7168-.3935.0669-.5903.2639-.7556.6498-.6769 1.5715-1.338 3.1587-2.1448 4.6632-2.5345 4.7302-5.9465 8.7711-9.8781 12.3907-4.089 3.7691-8.6266 6.8215-13.8529 8.7947-.1928.0748-.4211.3072-.4605.5041-.2479 1.2328-.4486 2.4734-.6572 3.714-.0236.134.0039.2757.0079.4333.3345-.0276.6257-.0394.913-.0748 4.8761-.5829 9.2051-2.5483 13.2154-5.2855 3.6679-2.505 6.8832-5.5179 9.7246-8.9326 2.8571-3.4344 5.183-7.176 6.6195-11.4336.6572-1.9417 1.1019-3.9267 1.2318-6.1441zm-10.8895 3.5407c-7.442 4.1709-13.2469 9.9881-17.4264 17.4359 7.4499-4.1591 13.2626-9.9685 17.4264-17.4359z" fill="#fff"/></svg>