<svg fill="none" height="81" viewBox="0 0 90 81" width="90" xmlns="http://www.w3.org/2000/svg"><g stroke-linecap="round" stroke-linejoin="round" stroke-width="7"><path d="m12.1459 52.516c-3.02996-3.0957-5.3157-6.8404-6.68408-10.9503-1.36839-4.1099-1.78353-8.4774-1.21399-12.7715.56955-4.2942 2.10884-8.4024 4.50129-12.0136 2.39248-3.6111 5.57528-6.6304 9.30748-8.82926 3.7322-2.19883 7.9158-3.5195 12.234-3.86198 4.3182-.34247 8.6577.30224 12.6899 1.8853 4.0321 1.58305 7.6511 4.06294 10.5828 7.25184 2.9318 3.1889 5.0994 7.0031 6.3387 11.1538h7.3c3.9376-.0005 7.7709 1.2656 10.9337 3.611 3.1628 2.3455 5.4874 5.646 6.6303 9.4141 1.143 3.768 1.0437 7.8038-.2832 11.5111-1.3268 3.7072-3.8109 6.8895-7.0852 9.0766" stroke="#000"/><g stroke="#c94777"><path d="m44.772 40.6938v36.7041"/><path d="m28.4595 61.0854 16.3129 16.313 16.3129-16.313"/></g></g></svg>