<svg fill="none" height="22" viewBox="0 0 33 22" width="33" xmlns="http://www.w3.org/2000/svg" xmlns:xlink="http://www.w3.org/1999/xlink"><clipPath id="a"><path d="m.196289.560547h32.1593v21h-32.1593z"/></clipPath><g clip-path="url(#a)" fill="#1e1d40"><path d="m32.3555 5.77113c0-.85106-.3847-1.50943-1.1136-1.90731-.7455-.40679-1.541-.3836-2.2976.06602-.1425.08564-.2849.17128-.4274.25871-.2849.17485-.5808.35327-.8768.51741-.0537.03033-.148.03926-.1776.02855l-.6401-.23551c-.9287-.34078-1.8906-.69227-2.8101-1.08301-1.3708-.58165-2.7508-1.20255-4.0865-1.80382-.381-.17129-.7603-.34257-1.1414-.51385-1.726-.774345-3.463-.711898-5.1594.18377-2.9081 1.53619-5.66639 2.66737-8.43389 3.46134-.14244.04104-.19979.02498-.28119-.02855-.18499-.11954-.37553-.23194-.56053-.34078-.20349-.11954-.41253-.24265-.60863-.37289-.68262-.45319-1.48364-.54775-2.20142-.25693-.653025.26406-1.137708.81181-1.282003 1.44163l-.061048.06067v6.36062l.0074.0607c.220142.9206.912021 1.4006 1.415201 1.6825.45693.2569.91387.5353 1.356.8047.33484.2034.68078.4139 1.02486.6155.1406.0821.1591.1267.1517.2498-.0481.9367.33854 1.7307 1.14881 2.3605 2.00348 1.5558 4.25115 2.7155 6.68194 3.4453 1.6354.4906 3.1801.7351 4.6711.7351.8787 0 1.7371-.0857 2.5825-.2534 3.0062-.6013 5.6886-1.9269 8.2045-4.0555.6512-.5513.973-1.2471.9564-2.0714-.0019-.1017.0111-.1338.135-.207.6531-.3854 1.3135-.785 1.9499-1.1704l.7732-.4675c.7289-.4389 1.0989-1.083 1.0989-1.9108v-5.65417zm-3.9551.33364c0-.09991.0129-.11062.0777-.14808.3681-.20876.7622-.44427 1.2413-.74223.1572-.09813.2997-.1463.4403-.1463.1073 0 .2127.02854.3219.08742.2312.1249.3348.32116.3348.63696-.0037 1.87519-.0037 3.75038 0 5.62556 0 .3658-.1332.4942-.2349.5567-.5994.3764-1.2006.7404-1.837 1.124-.111.0678-.2239.1356-.3386.2034v-3.1955c0-1.33455 0-2.67092-.0037-4.00549zm-1.5336.05531c-.0056 2.38012-.0056 4.76022-.0056 7.13862v1.909c0 .3712-.1369.6673-.4162.9046-2.6713 2.2713-5.5183 3.5506-8.7039 3.911-1.5632.1766-3.1875-.0036-5.1151-.5709-2.3883-.7012-4.55084-1.8074-6.42482-3.2865-.34964-.2748-.51244-.5835-.51244-.9706 0-2.8815 0-5.763 0-8.64448v-.38895c.1813-.05888.36259-.11597.54389-.17485.52168-.16772 1.06001-.339 1.58724-.5192 2.09597-.71547 4.21603-1.6486 6.48033-2.8565 1.3042-.69584 2.6213-.72439 4.0254-.08921 1.9647.88853 3.9238 1.73602 6.2602 2.73695.5828.24979 1.1877.46211 1.7723.66908.1517.05352.3034.10705.455.16058.0278.0107.0426.01784.0481.01784 0 .00714.0037.02319.0037.04996zm-24.80578-1.00985c.09805-.05531.2072-.08386.31634-.08386.10915 0 .22939.03033.33854.08921.41254.22303.84542.48352 1.39855.84036.0111.02319.0259.07315.0259.1124.00555 1.75565.00555 3.5113.00555 5.26696v1.736l-.31819-.1909c-.63638-.3836-1.23576-.7458-1.83698-1.1187-.1665-.1035-.2516-.2676-.2516-.4871v-1.0134c-.0037-1.50943-.0074-3.06881.00185-4.60322 0-.2373.11655-.43713.31634-.54954z"/><path d="m24.4119 8.23782c-5.4111 1.82348-10.8851 1.82348-16.27206 0l-.25899-.08743-.52538 1.39703.26454.08921c2.87479.97057 5.76809 1.45587 8.65959 1.45587 2.8914 0 5.7847-.4853 8.6539-1.45587l.2646-.08921-.5291-1.39525-.259.08743z"/><path d="m24.4119 12.5269c-5.4111 1.8234-10.8851 1.8234-16.27206 0l-.25899-.0874-.52538 1.397.26454.0892c2.87479.9706 5.76809 1.4559 8.65959 1.4559 2.8914 0 5.7828-.4853 8.6521-1.4559l.2645-.0892-.5272-1.3953-.259.0875z"/></g></svg>