<svg fill="none" height="50" viewBox="0 0 61 50" width="61" xmlns="http://www.w3.org/2000/svg"><path d="m61 6.19334c-2.2843 1.00057-4.7072 1.65733-7.1881 1.94843 2.6133-1.54637 4.5689-3.97947 5.5023-6.84588-2.4552 1.44113-5.1414 2.45682-7.9427 3.0032-1.8873-1.98239-4.3827-3.29475-7.1001-3.734122-2.7175-.43937-5.5056.018727-7.9333 1.303442-2.4277 1.28472-4.3597 3.32449-5.4971 5.80386-1.1375 2.47933-1.4171 5.26023-.7957 7.91253-4.9772-.2461-9.8464-1.5246-14.2913-3.7526-4.4449-2.22797-8.36606-5.35556-11.50876-9.17959-1.59966 2.72419-2.0896 5.94862-1.37017 9.01729.71944 3.0687 2.59421 5.7512 5.24293 7.5017-1.98717-.0615-3.93063-.5921-5.66808-1.5477v.1557c.00046 2.8572 1.00036 5.6263 2.83014 7.8377 1.82977 2.2115 4.3768 3.7291 7.20914 4.2956-1.8429.4953-3.77594.568-5.65163.2126.7995 2.4586 2.35617 4.6088 4.45233 6.1496 2.0962 1.5409 4.627 2.3955 7.2385 2.4443-4.4331 3.44-9.90767 5.3057-15.54304 5.2969-.99769 0-1.994524-.0578-2.98536-.1733 5.7223 3.6359 12.3824 5.566 19.1844 5.5596 23.0201 0 35.6052-18.856 35.6052-35.2043 0-.5362-.0118-1.0697-.0356-1.6005 2.4504-1.7508 4.5655-3.91958 6.246-6.40446z" fill="#1e1d40"/></svg>