<svg fill="none" height="71" viewBox="0 0 57 71" width="57" xmlns="http://www.w3.org/2000/svg"><g stroke-linecap="round" stroke-linejoin="round"><path d="m19.1104 67.9143v-12.8h18.9474v12.8" stroke="#1e1d40" stroke-width="5"/><path d="m47.532 3.91504h-37.8949c-3.48813 0-6.31581 2.86539-6.31581 6.40006v51.2001c0 3.5347 2.82768 6.4 6.31581 6.4h37.8949c3.4881 0 6.3158-2.8653 6.3158-6.4v-51.2001c0-3.53467-2.8277-6.40006-6.3158-6.40006z" stroke="#1e1d40" stroke-width="5.89476"/><g stroke="#c94777" stroke-width="7.57897"><path d="m15.9536 16.7158h.0314"/><path d="m41.2158 16.7158h.0314"/><path d="m28.5845 16.7158h.0314"/><path d="m28.5845 29.5137h.0314"/><path d="m28.5845 42.3145h.0314"/><path d="m41.2158 29.5137h.0314"/><path d="m41.2158 42.3145h.0314"/><path d="m15.9536 29.5137h.0314"/><path d="m15.9536 42.3145h.0314"/></g></g><path d="m3.32129 3.91504h50.5265v64.0002h-50.5265z" stroke="#000"/></svg>