<svg fill="none" height="60" viewBox="0 0 60 60" width="60" xmlns="http://www.w3.org/2000/svg"><g stroke-linecap="round" stroke-linejoin="round" stroke-width="5.33333"><path d="m45.8047 19.3416c0-4.2435-1.6857-8.3132-4.6863-11.31376-3.0006-3.00058-7.0702-4.68629-11.3137-4.68629s-8.3131 1.68571-11.3137 4.68629c-3.0006 3.00056-4.6863 7.07026-4.6863 11.31376 0 18.6666-8.00001 24-8.00001 24h48.00001s-8-5.3334-8-24z" stroke="#1e1d40"/><g stroke="#c94777"><path d="m34.4181 54.0078c-.4689.8082-1.1418 1.4791-1.9514 1.9454-.8097.4664-1.7276.7118-2.662.7118-.9343 0-1.8523-.2454-2.6619-.7118-.8096-.4663-1.4826-1.1372-1.9514-1.9454"/><path d="m3.1377 19.3416c0-5.8667 1.86666-11.46671 5.33333-16.00005"/><path d="m56.471 19.3416c0-5.7699-1.8714-11.38415-5.3333-16.00005"/></g></g></svg>