<svg fill="none" height="46" viewBox="0 0 50 46" width="50" xmlns="http://www.w3.org/2000/svg"><path d="m43.6802 6.97902c-1.1144-1.11821-2.4385-2.00545-3.8964-2.61083-1.458-.60539-3.0211-.91702-4.5997-.91702-1.5787 0-3.1418.31163-4.5998.91702-1.4579.60538-2.782 1.49262-3.8963 2.61083l-1.7104 1.73254-1.7103-1.73254c-1.1143-1.11821-2.4384-2.00545-3.8964-2.61083-1.4579-.60539-3.0211-.91702-4.5997-.91702s-3.1418.31163-4.5997.91702c-1.45797.60538-2.78208 1.49262-3.89641 2.61083-4.70895 4.70898-4.9977 12.66088.93291 18.70248l17.7696 17.7697 17.7696-17.7697c5.9307-6.0416 5.6419-13.9935.933-18.70248z" stroke="#c94777" stroke-linecap="round" stroke-linejoin="round" stroke-width="5"/></svg>