<svg fill="none" height="20" viewBox="0 0 21 20" width="21" xmlns="http://www.w3.org/2000/svg"><g stroke="#1e1d40" stroke-linecap="round" stroke-linejoin="round" stroke-width="1.5"><path d="m1.90869 9.10156v7.34754c0 .4872.23224.9544.64562 1.2989s.97404.538 1.55865.538h13.22554c.5846 0 1.1453-.1935 1.5587-.538s.6456-.8117.6456-1.2989v-7.34754z"/><path d="m1.90861 9.10121-.969881-2.63593c-.085025-.23097-.114542-.47364-.086861-.71412.027681-.24049.112017-.47406.248182-.68735.13616-.21328.32147-.40209.54532-.5556.22385-.15352.48184-.26873.75919-.33904l12.65244-3.214552c.5583-.143474 1.1622-.096373 1.6788.130952.5167.22733.9039.61628 1.0766 1.08139l.9588 2.63594-16.86259 4.3075z"/><path d="m4.77441 3.58203 3.72521 3.85746"/><path d="m10.5713 2.10352 3.7252 3.85746"/></g></svg>