<svg width="21" height="20" viewBox="0 0 21 20" fill="none" xmlns="http://www.w3.org/2000/svg">
<path d="M1.90869 9.10156V16.4491C1.90869 16.9363 2.14093 17.4035 2.55431 17.748C2.96769 18.0925 3.52835 18.286 4.11296 18.286H17.3385C17.9231 18.286 18.4838 18.0925 18.8972 17.748C19.3106 17.4035 19.5428 16.9363 19.5428 16.4491V9.10156H1.90869Z" stroke="#1E1D40" stroke-width="1.5" stroke-linecap="round" stroke-linejoin="round"/>
<path d="M1.90861 9.10121L0.938729 6.46528C0.853704 6.23431 0.824187 5.99164 0.851868 5.75116C0.879549 5.51067 0.963885 5.2771 1.10005 5.06381C1.23621 4.85053 1.42152 4.66172 1.64537 4.50821C1.86922 4.35469 2.12721 4.23948 2.40456 4.16917L15.057 0.954618C15.6153 0.811144 16.2192 0.858245 16.7358 1.08557C17.2525 1.3129 17.6397 1.70185 17.8124 2.16696L18.7712 4.8029L1.90861 9.1104V9.10121Z" stroke="#1E1D40" stroke-width="1.5" stroke-linecap="round" stroke-linejoin="round"/>
<path d="M4.77441 3.58203L8.49962 7.43949" stroke="#1E1D40" stroke-width="1.5" stroke-linecap="round" stroke-linejoin="round"/>
<path d="M10.5713 2.10352L14.2965 5.96098" stroke="#1E1D40" stroke-width="1.5" stroke-linecap="round" stroke-linejoin="round"/>
</svg>
