<svg fill="none" height="101" viewBox="0 0 100 101" width="100" xmlns="http://www.w3.org/2000/svg" xmlns:xlink="http://www.w3.org/1999/xlink"><clipPath id="a"><path d="m23.5 23.6455h53v53h-53z"/></clipPath><circle cx="50" cy="50.1455" fill="#463ac5" r="47.5" stroke="#d0d0d0" stroke-width="5"/><g clip-path="url(#a)"><path d="m76.4997 38.9669c-.1201.2042-.2202.4244-.3643.6126-.6126.7849-1.7136.845-2.4623.1362-.3643-.3444-.7126-.7008-1.0609-1.0612-.3363-.3444-.6686-.6968-.9569-1.0011-1.9938 1.9942-3.9516 3.9564-5.9534 5.9587.0361.0401.1602.1762.2883.3044 1.6695 1.6738 3.351 3.3357 5.0085 5.0176.9569.9731.5485 2.5069-.7366 2.8152-.6206.1522-1.1571-.036-1.6055-.4845-.6806-.6848-1.3572-1.3696-2.206-2.2225-.1241.2162-.1922.4284-.3363.5686-5.5931 5.6063-11.1941 11.2047-16.7952 16.803-1.7136 1.71-3.5672 1.7019-5.2848-.024-.2042-.2082-.3803-.4445-.6206-.7248-.6766.6888-1.2771 1.2974-1.8817 1.9061-.4243.4285-.8447.861-1.2811 1.2775-1.8777 1.79-4.4881 1.9342-6.554.3684-.068-.0521-.1401-.1001-.2442-.1722-.1401.1322-.2762.2563-.4083.3884-2.2221 2.2186-4.4361 4.4451-6.6661 6.6596-.9769.9691-2.4982.5846-2.8265-.6968-.1722-.6648.056-1.2094.5324-1.6859 2.202-2.1905 4.392-4.393 6.594-6.5835.1321-.1321.3083-.2242.4885-.3484-.6927-.8609-1.1371-1.7019-1.2692-2.683-.2162-1.6138.2442-3.0074 1.3652-4.1687 1.017-1.0532 2.0739-2.0704 3.1909-3.1756-.2962-.2723-.5645-.5046-.8167-.7569-1.5694-1.5697-1.5774-3.4999-.012-5.0657 5.6211-5.6264 11.2462-11.2487 16.8753-16.8711.1441-.1442.3243-.2563.5485-.4245-.7928-.7849-1.5054-1.4777-2.202-2.1865-.4604-.4685-.6126-1.0291-.4164-1.6658.1882-.6127.6165-.9932 1.2331-1.1293.6446-.1402 1.1731.1001 1.6335.5646 1.6295 1.6419 3.2669 3.2717 4.9044 4.9056.1321.1321.2683.2603.3684.3524 1.9778-1.9783 3.9395-3.9365 5.9614-5.9548-.5565-.5446-1.1651-1.1212-1.7616-1.7139-1.2492-1.2414-1.101-2.3266.4203-3.1596h.8288c.4044.3124.8448.5847 1.2011.9411 4.1277 4.1086 8.2435 8.2253 12.3512 12.35.3563.3564.6285.8009.9408 1.2013v.829zm-23.1449-2.9073c-5.8213 5.8226-11.6466 11.6451-17.3958 17.3957 3.5752 3.576 7.1905 7.1921 10.7177 10.7201 1.3692-1.3575 2.7825-2.7591 4.2438-4.2048-.1081-.0921-.2642-.2042-.4003-.3364-1.6375-1.6338-3.267-3.2717-4.9085-4.9015-.4644-.4605-.6886-.9931-.5364-1.6379.1441-.6167.5324-1.0371 1.149-1.2133.6606-.1922 1.2211 0 1.6975.4805 1.6575 1.6579 3.319 3.3158 4.9765 4.9736.1322.1322.2683.2523.3283.3084l4.336-4.2969c-.1161-.0921-.2803-.1962-.4124-.3323-1.6375-1.6299-3.267-3.2717-4.9085-4.9016-.4764-.4725-.7046-1.0212-.5324-1.6859.3323-1.2815 1.8496-1.6659 2.8265-.7008 1.6695 1.6499 3.319 3.3158 4.9805 4.9736.1321.1322.2683.2523.3523.3324 1.4373-1.4296 2.8506-2.8352 4.2399-4.2208-3.5833-3.584-7.1905-7.1881-10.7618-10.7561zm11.5985-4.9496c-1.9578 1.9582-3.9196 3.9124-5.7813 5.7745 1.3572 1.3655 2.7585 2.7791 4.0757 4.1046 1.9137-1.9141 3.8715-3.8723 5.7893-5.7865-1.3493-1.3535-2.7505-2.7511-4.0837-4.0886zm-24.0778 32.3566c-1.4053-1.4256-2.7986-2.8432-4.2079-4.2769-.9969 1.0012-2.0298 2.0143-3.0347 3.0555-.6366.6567-.6686 1.5818-.0601 2.2425.6646.7209 1.3653 1.4136 2.0819 2.0824.6086.5686 1.5294.6167 2.1219.0521 1.093-1.0412 2.122-2.1505 3.1029-3.1516z" fill="#fff"/></g></svg>