<svg fill="none" height="23" viewBox="0 0 18 23" width="18" xmlns="http://www.w3.org/2000/svg"><g stroke="#1e1d40" stroke-linecap="round" stroke-linejoin="round" stroke-width="1.7"><path d="m17.1162 9.20703c0 5.99997-7.99999 11.99997-7.99999 11.99997s-8-6-8-11.99997c0-2.12173.84286-4.15656 2.34315-5.65685s3.53512-2.34315 5.65685-2.34315c2.12169 0 4.15659.84286 5.65689 2.34315s2.3431 3.53512 2.3431 5.65685z"/><path d="m9.11621 12.207c1.65689 0 2.99999-1.3431 2.99999-2.99997 0-1.65685-1.3431-3-2.99999-3-1.65685 0-3 1.34315-3 3 0 1.65687 1.34315 2.99997 3 2.99997z"/></g></svg>