<?xml version="1.0" encoding="UTF-8"?> <svg xmlns="http://www.w3.org/2000/svg" id="Layer_1" data-name="Layer 1" viewBox="0 0 400 245"><defs><style>.cls-1{fill:#67af3e}</style></defs><title>jfrog</title><path class="cls-1" d="M183.369 158.745l-12.54 3.52c1.151 3.19 1.987 8.908 1.987 16.497v37.617h14v-39.816c2.613-3.19 5.435-4.73 8.568-4.73a7.606 7.606 0 0 1 4.076 1.1l3.864-12.977a10.323 10.323 0 0 0-5.224-1.21 11.9 11.9 0 0 0-4.597.877 24.621 24.621 0 0 0-7.94 7.151 18.825 18.825 0 0 0-2.194-8.029m-48.63-18.588h-1.525v76.222h14.63v-33.766h18.492v-12.54h-18.493v-17.488h23.09l.896-6.656a245.986 245.986 0 0 1-37.09-5.772zm-34.281 86.34l6.791 7.92c6.584-2.64 14.839-8.579 16.928-17.928.73-3.08 1.044-5.06 1.044-14.96v-61.196h-14.836v62.846c0 8.25-.315 11.329-1.463 14.078-1.359 3.08-4.703 6.82-8.464 9.24zm133.263-38.605c0 13.31-2.613 19.027-8.673 19.027a7.708 7.708 0 0 1-7.105-4.618c-1.149-2.86-1.777-7.7-1.777-14.19 0-5.609.523-9.568 1.463-12.537 1.15-3.52 3.867-5.72 7.21-5.72a7.356 7.356 0 0 1 6.06 2.97c1.881 2.528 2.822 7.478 2.822 15.068zm8.567 21.888c4.599-5.5 6.688-12.099 6.688-21.78 0-9.128-1.88-15.286-6.165-20.566-4.597-5.72-10.553-8.47-18.182-8.47-14.42 0-24.03 11.77-24.03 29.478 0 17.708 9.508 29.147 24.03 29.147 8.256 0 13.585-2.97 17.658-7.81zm40.123-31.568c0 5.17-3.03 8.03-8.569 8.03-4.91 0-8.254-2.31-8.254-8.03 0-5.28 3.03-8.359 8.36-8.359s8.463 3.08 8.463 8.36zm24.764-11.988l-5.852-9.348a16.395 16.395 0 0 1-11.076 4.839c-1.776 0-2.715-.22-6.583-1.21a32.612 32.612 0 0 0-9.613-1.431c-13.688 0-22.568 7.48-22.568 19.03 0 8.358 3.76 13.527 11.494 15.617-3.135.77-6.584 2.42-8.15 4.29a7.622 7.622 0 0 0-1.673 5.168 10.682 10.682 0 0 0 1.044 4.621 6.801 6.801 0 0 0 3.03 2.749c2.509.99 6.583 1.65 12.853 1.761 3.24 0 5.226.109 5.956.109 3.867.22 5.85.88 7.315 1.65a5.936 5.936 0 0 1 2.508 5.058 7.183 7.183 0 0 1-3.345 5.722c-1.879 1.318-4.91 1.869-8.881 1.869-6.48 0-10.03-2.42-10.03-6.93a8.254 8.254 0 0 1 .626-3.63h-12.957a11.775 11.775 0 0 0-1.254 5.72 13.51 13.51 0 0 0 4.389 10.008c4.807 4.73 12.643 6.05 20.271 6.05 8.358 0 16.405-1.98 21.107-7.259a16.484 16.484 0 0 0 4.283-11.66c0-5.059-1.461-8.908-4.598-11.987-3.762-3.632-8.045-4.95-16.194-5.06l-7.524-.11c-1.462 0-2.298-.55-2.298-1.319 0-1.54 1.985-2.86 5.537-4.62a16.38 16.38 0 0 0 2.09.11c11.389 0 19.748-7.039 19.748-16.718a14.025 14.025 0 0 0-3.135-9.24 24.494 24.494 0 0 0 3.658.331 12.979 12.979 0 0 0 9.822-4.18zM136.538 18.42c1.072-1.348 1.173-3.125-.248-5.127-.888-1.251-5.048-2.113-6.817-.33-1.769 1.782-.158 4.585 1.22 5.008 2.554.787 3.687 3.163 5.845.448m87.457-4.279c.07-2.49-1.058-4.053-3.515-3.963-2.458.088-3.34 1.325-3.259 3.729.614 4.55 1.379 4.443 3.007 4.865 1.629.421 3.697-2.14 3.767-4.63zm64.841 14.245c-8.478 4.002-2.236 10.024-24.052 25.59-10.665 7.61-12.592.779-13.373-4.167-.78-4.945-1.713-5.233-3.492-3.242-1.778 1.99-7.81 5.58-15.407 3.77-7.597-1.809-9.758-15.852-10.106-21.616-.346-5.764-3.741-4.93-4.354-1.446-3.745 21.32-15.96 13.792-29.778 15.527-14.396 1.809-25.97 14.425-43.595-15.902-4.704-8.094-9.762 2.44-6.089 6.48 3.673 4.039 7.014 2.793 9.776 7.186 2.762 4.392 4.74 12.404-.154 17.197 1.792 2.984 6.362 10.426 10.733 12.352 12.072-9.82 25.088-11.294 43.725-3.594 8.084 3.339 11.416-8.213 21.77-6.737 26.89 3.835 21.775 13.964 38.492 3.406 9.939-6.276 11.61-16.149 27.34-24.104 11.009-5.568 3.401-12.98-1.436-10.7zM308.28 13.48c-1.616-2.347-5.027-1.924-8.406.527-3.378 2.45-2.737 7.103-1.621 8.189 1.96 1.906 7.18.617 8.397-.747 3.136-3.507 3.246-5.62 1.63-7.969z"></path><path class="cls-1" d="M90.37 19.71c1.157-1.268 2.612-3.665.11-8.255-1.83-3.357-7.874-4.732-10.003-3.448-2.13 1.282-4.73 6.247-1.168 8.43 4.591 2.815 7.597 7.072 11.06 3.273m36.541 13.943a3.627 3.627 0 0 0-5.307-.047c-1.768 1.783-.898 3.547.123 4.603a4.704 4.704 0 0 0 5.434.57c1.48-.823 1.171-3.124-.25-5.126zM280.276 52.93c-13.102 18.266-12.567 13.863-25.46 20.504-35.344 18.207-29.45-7.056-43.865 2.697-22.725 15.376-35.027 13.186-50.436 3.156 0 0-15.386-15.131-22.36-30.154-3.316-7.143-3.104 11.746-24.106-9.265-10.399-10.405-5.678-11.354-10.833-14.923-5.155-3.569-13.308 2.005-6.427 7.255 52.633 40.168 46.319 58.394 64.72 69.889 23.474 14.668 77.987 10.354 95.681-1.08 8.3-5.365 6.211-14.285 11.036-26.336 3.418-8.147 11.383-13.307 16.101-14.053 11.785-1.867 1.386-15.27-4.05-7.69zm22.068-7.228a3.599 3.599 0 0 0-5.558-.354c-1.685 2.23-1.73 3.812-.538 5.045 1.275 1.316 3.915 2.45 5.813.94 1.898-1.51 1.897-3.694.283-5.63z"></path><path class="cls-1" d="M131.043 73.962c-17.513 4.28-29.414 12.661-29.414 22.302 0 5.966 4.565 11.445 12.186 15.773a21.549 21.549 0 0 1-3.538-11.5c0-10.025 7.768-19.245 20.766-26.575m164.08 27.822c0-6.64-5.69-12.798-15.379-17.875a13.68 13.68 0 0 1 3.503 8.722c0 16.056-34.197 29.073-76.382 29.073-42.184 0-76.38-13.017-76.38-29.073a12.312 12.312 0 0 1 1.606-5.95c-6.78 4.484-10.642 9.63-10.642 15.103 0 17.38 38.877 31.47 86.837 31.47 47.959 0 86.837-14.09 86.837-31.47zm20.668 9.852c0-6.327-3.902-12.186-10.53-16.999a19.862 19.862 0 0 1 .933 5.9c0 18.111-25.29 33.61-61.141 40.027a112.636 112.636 0 0 0 12.586.706c32.117 0 58.152-13.268 58.152-29.634z"></path></svg> 