<svg xmlns="http://www.w3.org/2000/svg" role="img" viewBox="0.23 12.73 456.04 125.54"><title>Lightstep.svg</title><path fill="#039b49" d="M74.96337 87.04644A16.14162 16.14162 0 1 0 58.8217 70.90488a16.14159 16.14159 0 0 0 16.14167 16.14156z"/><path fill="#121c21" d="M70.55224 21.72578L17.93051 49.91985c-.32284.10759-.43044.43048-.53806.75327l-8.07082 36.1573a.97515.97515 0 0 0 .64567 1.18366l68.22529 32.17573a1.59646 1.59646 0 0 0 1.39895 0l43.79815-19.908a1.70766 1.70766 0 0 0 .85995-1.07617l16.03448-72.20689a1.0889 1.0889 0 0 0-.861-1.29134h-.108l-67.902-3.9816a.82.82 0 0 0-.86088-.00003zm7.85564 96.4194l-63.81331-30.0234H38.269l52.51416 7.53274zM92.8277 95.86972l26.90311 3.874-38.74032 17.54059zm-53.05214-9.57738L59.7912 46.90675l61.66157-7.10237-29.70114 53.91311zm83.07512-48.53249l-61.98342 7.10227L71.736 23.55517l64.88924 3.874zM58.49984 45.185l-35.29642 4.08917L68.8305 24.8465zm-39.38561 6.45659l38.41715-4.41205-19.80045 38.84761H11.36625zm103.30648 46.488l-28.62444-4.08921 30.13141-54.774L137.8092 28.8281zm59.72402-19.47677h17.8634v8.28612h-28.08707V42.388h10.33065v36.26482zm28.19406-39.38559a5.9186 5.9186 0 1 0 5.91778 5.9186 5.90075 5.90075 0 0 0-5.91778-5.9186zm-4.73588 47.77931h9.6857V54.76321h-9.6857zm40.03169-32.28333h9.0397v29.48542c0 10.86874-6.34981 17.54062-16.68047 17.54062-9.46967 0-15.81845-5.05773-16.03344-13.021l9.68467-.32279a5.637 5.637 0 0 0 6.02682 5.48812c4.62684 0 7.20974-3.0131 7.20974-8.39362v-5.0577a9.75538 9.75538 0 0 1-8.9317 4.95013c-8.71671 0-15.49648-6.45668-15.49648-15.71128 0-8.8241 6.45678-15.81877 15.71147-15.81877 4.19686 0 8.07074 2.36742 9.46969 5.48811zm-.108 14.85031a7.69393 7.69393 0 1 0-7.74775 7.748c4.62787-.10752 7.74775-3.22835 7.74775-7.748zm34.22087-15.496a9.56115 9.56115 0 0 0-9.14669 6.02631V42.49562h-9.79268v44.55092h9.79268V69.18313c0-4.62734 2.15193-7.21 5.81079-7.21s5.7028 2.475 5.7028 6.77948v18.29393h9.68571V67.2461c.10698-7.85565-4.73484-13.12857-12.05261-13.12857zm30.131-6.99466h-9.57766v7.64034H294.921v7.64045h5.37981v12.48279c0 8.17843 4.95084 12.1601 11.40661 12.1601h4.73483l-.107-8.17843h-2.15193c-3.01392 0-4.30487-1.50655-4.30487-4.41205V62.51125h6.77979v-7.64044h-6.77979zm56.60312 0h-9.57769v7.64034h-5.3798v7.64045h5.37978v12.3752c0 8.17842 4.95087 12.16009 11.40764 12.16009h4.73484l-.108-8.17842h-2.15193c-2.9059 0-4.30487-1.50656-4.30487-4.41206v-11.9448h6.77979v-7.64045h-6.77979zm81.5693 23.782c0 9.90017-6.34878 16.78733-15.49547 16.78733a10.93791 10.93791 0 0 1-9.36272-4.84253v16.24928h-9.6847V54.76321h9.68465v4.51965c1.61394-3.22829 5.59582-5.16533 9.36272-5.16533 9.14672 0 15.4955 6.88718 15.4955 16.78735zm-9.79267 0c0-5.16533-3.22788-8.82411-7.74775-8.82411-4.62785 0-7.85573 3.65878-7.85573 8.82411s3.22788 8.8241 7.85573 8.8241c4.6268.00004 7.74773-3.55116 7.74773-8.82408zm-29.055-.32279a26.36388 26.36388 0 0 1-.215 3.0131h-22.5983a7.00212 7.00212 0 0 0 7.10174 6.99466q4.84338 0 6.4568-3.874l8.17872 1.50655c-1.39893 5.811-7.31774 9.79258-14.85049 9.79258-9.89968 0-16.89443-7.10237-16.89443-17.00254 0-10.00776 6.77875-17.11013 16.57144-17.11013 9.57767-.10754 16.24947 6.77952 16.24947 16.6798zm-9.5777-2.90551a6.61978 6.61978 0 0 0-13.23555 0zm-61.76793-.64568l-4.30486-.75327c-1.93693-.32289-3.01292-1.29136-3.01292-2.69031 0-1.82934 1.829-3.22829 4.08887-3.22829a4.794 4.794 0 0 1 5.05782 4.41205l8.82474-.21529c-.323-6.45659-5.81183-10.97624-13.88256-10.97624-7.85574 0-13.45156 4.62725-13.45156 11.08393 0 5.59572 3.22892 8.93171 10.22367 10.00777l4.30387.75327c2.79787.43049 4.19684 1.18377 4.19684 3.1207 0 1.82944-1.82894 2.9055-4.62682 2.9055-3.3359 0-5.48783-1.72174-5.70383-4.41205l-8.93172.21529c.216 6.45659 6.24183 10.97624 14.63555 10.97624 8.28571 0 14.0965-4.41206 14.0965-10.86864-.00005-5.4882-3.98089-9.25454-11.51364-10.33064zM174.09667 118.815v.31368h2.76633v1.76164h-2.76634v8.71727h-1.823v-8.71727h-1.67639v-1.76162h1.67639v-.3137c0-2.7868 1.59287-4.3575 4.58936-4.14837v1.75937c-1.82359-.14547-2.76635.566-2.76635 2.389zm9.44863.125v1.90711a2.93088 2.93088 0 0 0-3.2687 3.20732v5.55314h-1.823V119.1287h1.823v1.76164a3.32524 3.32524 0 0 1 3.2687-1.95034zm.83592 5.42816a5.52161 5.52161 0 1 1 5.51109 5.51222 5.46459 5.46459 0 0 1-5.51109-5.51222zm9.22019 0a3.69872 3.69872 0 1 0-3.7091 3.73012 3.6554 3.6554 0 0 0 3.7091-3.73012zm19.44279-1.27748v6.51693h-1.823v-6.45555a2.24384 2.24384 0 0 0-2.30547-2.555c-1.4667 0-2.5771.9206-2.5771 3.18459v5.82591h-1.823v-6.45555c0-1.65481-.85922-2.555-2.22136-2.555-1.4042 0-2.68224.9206-2.68224 3.18459v5.82591h-1.823V119.1287h1.823v1.40477a3.50519 3.50519 0 0 1 3.12208-1.67526 3.29588 3.29588 0 0 1 3.08059 1.77982 3.70992 3.70992 0 0 1 3.28972-1.77982c2.3259 0 3.93978 1.61161 3.93978 4.23247zm7.55686 3.18459l1.6764-.96379a3.74573 3.74573 0 0 0 3.91879 2.66178c2.07476 0 3.10162-.94333 3.10162-2.264 0-1.50932-1.29963-2.01167-3.45792-2.68223-2.347-.75466-4.60981-1.4866-4.60981-4.212 0-2.639 2.15829-4.14837 4.60981-4.14837a5.273 5.273 0 0 1 4.96668 3.205l-1.63492.94333a3.41473 3.41473 0 0 0-3.33176-2.264c-1.57127 0-2.66121.83877-2.66121 2.17989 0 1.36157 1.02686 1.86619 3.08059 2.514 2.55665.83877 4.96611 1.59343 4.96611 4.42342 0 2.57767-2.07418 4.212-5.07124 4.212a5.508 5.508 0 0 1-5.55314-3.60503zm18.26876 1.88666a3.41911 3.41911 0 0 0 3.01751-1.52979l1.55081.87969a5.28748 5.28748 0 0 1-4.60981 2.36855 5.5116 5.5116 0 1 1-.12559-11.02217 5.27554 5.27554 0 0 1 5.21729 5.5304 5.43473 5.43473 0 0 1-.06251.81831h-8.78034a3.58553 3.58553 0 0 0 3.79264 2.95501zm-3.79264-4.54844h6.99882a3.32009 3.32009 0 0 0-3.37326-3.03911 3.47824 3.47824 0 0 0-3.62556 3.03911zm16.23605-4.67349v1.90711a2.93087 2.93087 0 0 0-3.26869 3.20732v5.55314h-1.823V119.1287h1.823v1.76164a3.32523 3.32523 0 0 1 3.26869-1.95034zm11.29267.1887l-4.191 10.47891h-2.13726l-4.191-10.47891h1.96962l3.29028 8.5286 3.28972-8.5286zm1.44283-3.12094a1.22581 1.22581 0 1 1 2.45152 0 1.22582 1.22582 0 0 1-2.45152 0zm.31426 3.12094h1.823v10.47891h-1.823zm4.23077 5.23946a5.4005 5.4005 0 0 1 5.51108-5.51 5.03878 5.03878 0 0 1 4.63141 2.74361l-1.52979.87968a3.3514 3.3514 0 0 0-3.10162-1.84347 3.72 3.72 0 0 0 0 7.43979 3.51467 3.51467 0 0 0 3.16413-1.823l1.55081.90014a5.30986 5.30986 0 0 1-4.71494 2.72543 5.40238 5.40238 0 0 1-5.51108-5.51218zm17.15835 3.79377a3.41912 3.41912 0 0 0 3.01752-1.52979l1.55081.87969a5.28749 5.28749 0 0 1-4.60981 2.36855 5.5116 5.5116 0 1 1-.12559-11.02217 5.27554 5.27554 0 0 1 5.21729 5.5304 5.436 5.436 0 0 1-.06251.81831h-8.78034a3.58552 3.58552 0 0 0 3.79263 2.95501zm-3.79263-4.54844h6.99881a3.32007 3.32007 0 0 0-3.37325-3.03911 3.47823 3.47823 0 0 0-3.62556 3.03911zm22.39723-8.67407v14.66819h-1.57183l-7.54379-10.9608v10.9608h-1.9486v-14.66819h1.57127l7.54379 10.93806v-10.93806zm2.57256 9.42874a5.52161 5.52161 0 1 1 5.51109 5.51222 5.46459 5.46459 0 0 1-5.51109-5.51222zm9.22019 0a3.69872 3.69872 0 1 0-3.7091 3.73012 3.6554 3.6554 0 0 0 3.7091-3.73012zm18.01814-5.23946l-3.24823 10.47891h-1.86506l-2.45152-7.75348-2.45152 7.75348h-1.86506L319.038 119.1287h1.90712l2.3049 7.96488 2.47255-7.96488h1.7605l2.47254 7.98534 2.30491-7.98534z"/></svg>