<svg fill="none" height="53" viewBox="0 0 196 53" width="196" xmlns="http://www.w3.org/2000/svg"><path d="m61.418 22.5433v-20.42979h12.1957v2.16488h-9.7329v6.84881h8.8827v2.1663h-8.8827v9.2498zm16.3582-18.64661c-.1984.01959-.3987-.00252-.588-.06489-.1892-.06237-.3633-.16363-.5111-.29725-.2316-.26136-.3525-.60232-.3373-.95098v-.38387c-.0149-.34883.106-.68988.3373-.9517.3173-.23737.703-.365676 1.0994-.365676s.7822.128306 1.0994.365676c.231.26201.3518.60293.3373.9517v.38025c.0149.34862-.1059.68946-.3373.95098-.1476.13421-.3217.23609-.5111.29908s-.3899.08571-.5886.06668zm-1.173 3.54247h2.346v15.10414h-2.346zm5.0431 15.10414v-15.10414h2.3452v2.43141h.1176c.3339-.80258.8751-1.50237 1.5683-2.02799.7981-.53873 1.7502-.80339 2.7123-.75397.6909-.03365 1.3807.08388 2.0213.34436s1.2164.65761 1.6871 1.16359c.9744 1.19803 1.4611 2.71854 1.363 4.25874v9.688h-2.3452v-9.299c0-2.719-1.1435-4.07821-3.4305-4.07773-.4601-.00108-.9184.05809-1.3631.176-.4221.1094-.8231.28781-1.1868.528-.3458.22763-.6323.53423-.8357.89453-.2126.3912-.3189.8312-.3083 1.2761v10.5021zm23.2197.352c-1.232.0185-2.454-.2157-3.592-.688-1.055-.451-1.9884-1.1429-2.7262-2.0201-.7976-.9742-1.3898-2.0993-1.741-3.3078-.433-1.4776-.6406-3.0119-.6159-4.5513-.0255-1.535.1822-3.06488.6159-4.53767.3554-1.20654.9471-2.33063 1.741-3.30707.7342-.88442 1.6682-1.58178 2.7262-2.0345 2.301-.91744 4.867-.91744 7.168 0 1.064.44985 2.004 1.14749 2.742 2.0345.794.97668 1.387 2.10062 1.744 3.30707.434 1.4721.642 3.00117.618 4.53547.024 1.5393-.183 3.0736-.615 4.5514-.354 1.2083-.947 2.3333-1.745 3.3078-.741.8797-1.681 1.5719-2.741 2.02-1.134.4705-2.351.7054-3.579.6902zm0-2.167c.835.0086 1.662-.151 2.433-.4694.731-.3053 1.387-.7666 1.92-1.3515.554-.6144.977-1.3336 1.247-2.1149.304-.8883.452-1.8223.439-2.7609v-3.4078c.013-.93864-.135-1.87256-.439-2.76094-.27-.78124-.693-1.50045-1.247-2.1149-.533-.58468-1.189-1.04572-1.92-1.35079-1.561-.6277-3.305-.6277-4.867 0-.731.30488-1.386.76595-1.92 1.35079-.5532.61426-.9771 1.33353-1.246 2.1149-.3039.88838-.4526 1.8223-.4397 2.76094v3.4078c-.0129.9386.1358 1.8726.4397 2.7609.2689.7814.6928 1.5007 1.246 2.1149.534.5851 1.189 1.0464 1.92 1.3515.772.3184 1.6.4778 2.434.4687zm10.964-13.28914h2.346v2.43141h.117c.327-.8685.929-1.60626 1.716-2.10042.823-.47224 1.762-.70787 2.711-.68082.882-.01207 1.754.17824 2.551.55625.762.37128 1.429.91217 1.95 1.5811.567.7424.986 1.58712 1.233 2.48792.296 1.0672.439 2.1709.425 3.2781.014 1.1075-.129 2.2113-.425 3.2788-.247.9008-.666 1.7455-1.233 2.4879-.521.6687-1.188 1.2094-1.95 1.5804-.796.3786-1.669.5692-2.551.557-.934.0422-1.858-.2017-2.649-.6991s-1.411-1.2245-1.776-2.0836h-.117v8.2836h-2.346zm6.245 13.37744c.583.0302 1.164-.0659 1.706-.2817.541-.2158 1.03-.5462 1.431-.9684.789-.9062 1.198-2.0808 1.143-3.2802v-2.5893c.055-1.1995-.354-2.3741-1.143-3.2803-.401-.42222-.89-.75259-1.431-.96839-.542-.21581-1.123-.31192-1.706-.28174-.511-.00383-1.02.06942-1.51.21728-.446.13053-.867.33418-1.246.60261-.342.24454-.627.56064-.835.92634-.203.3539-.309.7548-.308 1.1625v5.6494c-.008.4555.097.9059.308 1.3102.204.3807.489.712.835.9705.375.2758.797.4801 1.246.6027.491.14 1 .2102 1.51.2085zm14.471 2.0787c-1.228.0425-2.445-.2351-3.533-.8054-.955-.5425-1.788-1.2749-2.448-2.1518l1.668-1.3464c.534.696 1.201 1.2782 1.964 1.7122.775.413 1.643.6198 2.522.6004.827.0495 1.646-.1771 2.33-.6439.238-.1995.434-.4442.576-.7199s.228-.5769.253-.8861c.024-.3091-.013-.6201-.11-.9147-.097-.2947-.251-.5671-.455-.8016-.575-.507-1.302-.8104-2.067-.8633l-1.201-.176c-.659-.087-1.307-.2388-1.936-.4534-.554-.1882-1.074-.4651-1.539-.8199-.437-.3383-.789-.7744-1.026-1.2733-.256-.57-.38-1.1905-.363-1.8151-.015-.6715.125-1.3375.41-1.9461.264-.54442.651-1.0204 1.13-1.39062.512-.38717 1.095-.67039 1.717-.83365.697-.19036 1.417-.28419 2.14-.27885 1.068-.03544 2.129.18562 3.093.64461.843.43936 1.586 1.04678 2.184 1.78463l-1.554 1.40508c-.451-.6004-1.042-1.08197-1.721-1.40314-.68-.32117-1.427-.47223-2.178-.44013-.789-.05705-1.573.16557-2.214.62868-.247.20974-.443.47309-.572.76999-.13.2969-.189.6194-.175.9429-.026.31.029.6214.16.9036s.333.5254.587.7058c.661.3895 1.394.6387 2.156.7322l1.172.1753c1.315.0968 2.566.6035 3.577 1.4486.355.3709.632.8098.813 1.2902.182.4805.264.9925.242 1.5055.031.6514-.087 1.3013-.346 1.9-.26.5986-.652 1.1302-1.149 1.5541-1.174.8973-2.631 1.3442-4.107 1.2595zm-75.128 28.9199v-20.4313h12.1957v2.1634h-9.7329v6.8518h8.8827v2.1663h-8.8827v9.2498zm20.8855.3513c-.9574.012-1.9065-.1775-2.7856-.5563-.8292-.3624-1.5656-.9071-2.1545-1.5934-.6198-.7337-1.0931-1.5793-1.3943-2.4908-.6645-2.1202-.6645-4.3925 0-6.5128.2986-.9161.7715-1.766 1.3928-2.5031.5888-.6864 1.3253-1.2311 2.1545-1.5934.8792-.3784 1.8283-.5679 2.7856-.5562.9525-.0125 1.8968.1771 2.7704.5562.8264.3671 1.5619.9111 2.1545 1.5934.6293.7339 1.1076 1.5845 1.4073 2.5031.6655 2.1201.6655 4.3927 0 6.5128-.3023.9129-.7803 1.7581-1.4073 2.4879-.5927.6822-1.3282 1.2261-2.1545 1.5934-.8728.3803-1.8167.5709-2.7689.5592zm0-2.078c.5701.0224 1.139-.0697 1.6728-.2709s1.0218-.5073 1.4349-.9003c.4319-.4831.7611-1.0488.9677-1.6626.2066-.6139.2863-1.2633.2343-1.9088v-2.1656c.0519-.6455-.0279-1.2948-.2345-1.9087s-.5357-1.1795-.9675-1.6627c-.8587-.7549-1.9636-1.1713-3.1077-1.1713s-2.249.4164-3.1077 1.1713c-.432.4831-.7612 1.0487-.9678 1.6626s-.2863 1.2633-.2342 1.9088v2.1656c-.0522.6455.0274 1.2949.234 1.9088s.5359 1.1796.968 1.6626c.413.3931.901.6993 1.4348.9005.5339.2011 1.1027.2932 1.6729.2707zm18.6155-.704h-.117c-.162.3578-.354.702-.572 1.0292-.229.3421-.5107.6454-.8356.8981-.3616.2755-.7683.4863-1.2021.6229-.5311.1638-1.085.2421-1.6409.2318-.6929.0331-1.3848-.0845-2.0278-.3448-.6429-.2602-1.2215-.6569-1.6957-1.1625-.9842-1.1937-1.4769-2.7165-1.3783-4.2595v-9.6887h2.3452v9.2991c0 2.7189 1.1532 4.0784 3.4596 4.0784.4601.0009.9183-.0583 1.363-.176.4184-.1078.8151-.2863 1.173-.528.3386-.2315.6196-.5378.8216-.8952.214-.4004.32-.8498.307-1.3037v-10.4746h2.346v15.1042h-2.346zm5.629 2.4307v-15.1042h2.346v2.4314h.117c.334-.8024.876-1.5022 1.569-2.028.798-.539 1.75-.8037 2.712-.7539.691-.0335 1.38.0841 2.021.3444.64.2603 1.216.6572 1.687 1.1628.975 1.1981 1.462 2.719 1.363 4.2595v9.688h-2.345v-9.2991c0-2.718-1.143-4.0774-3.43-4.0784-.46-.0009-.919.0585-1.364.1767-.422.1091-.823.2875-1.186.528-.346.2278-.632.5344-.836.8945-.212.391-.318.8308-.308 1.2755v10.5021zm24.921-2.4307h-.118c-.369.8559-.99 1.5799-1.78 2.0766-.79.4966-1.712.7425-2.645.7054-.882.0124-1.754-.178-2.55-.5563-.763-.3709-1.43-.9118-1.95-1.5811-.568-.7419-.987-1.5868-1.233-2.4879-.567-2.1488-.567-4.4074 0-6.5562.247-.901.665-1.7459 1.233-2.4879.52-.6691 1.187-1.21 1.95-1.5811.796-.378 1.669-.5683 2.55-.5563.95-.0269 1.889.209 2.712.6816.787.4941 1.389 1.2319 1.715 2.1004h.118v-8.9876h2.345v21.6611h-2.345zm-3.899.704c.51.0022 1.018-.0671 1.509-.2057.449-.1228.871-.3274 1.246-.6033.346-.2586.632-.5902.835-.9713.211-.4036.317-.8536.309-1.3088v-5.6494c.001-.4078-.105-.8088-.309-1.1624-.208-.3656-.493-.6817-.835-.9264-.379-.2681-.8-.4718-1.246-.6026-.489-.1492-.998-.2239-1.509-.2216-.583-.0301-1.165.0662-1.707.2822-.541.2161-1.03.5468-1.431.9693-.789.9061-1.198 2.0804-1.143 3.2796v2.5886c-.055 1.1996.354 2.3743 1.143 3.281.402.4223.89.7528 1.432.9687.541.216 1.123.3122 1.706.2821zm21.312 1.7267c-.347.034-.699-.0116-1.026-.1334-.328-.1217-.623-.3164-.864-.5692-.398-.5075-.647-1.1153-.719-1.7556h-.145c-.283.873-.864 1.6191-1.642 2.1076-.825.4846-1.77.7278-2.727.7019-1.358.0831-2.696-.3577-3.738-1.2313-.449-.428-.801-.9475-1.031-1.5233-.23-.5757-.334-1.1942-.303-1.8135-.033-.6337.093-1.2654.367-1.838.274-.5725.687-1.0678 1.201-1.4408 1.046-.7615 2.673-1.142 4.882-1.1415h2.99v-1.4913c.031-.4482-.032-.8978-.183-1.3208-.152-.423-.389-.8102-.697-1.1374-.755-.6232-1.723-.9278-2.698-.8488-.812-.0292-1.613.1849-2.301.6149-.63.4241-1.156.984-1.54 1.6383l-1.407-1.3168c.452-.8633 1.131-1.587 1.965-2.0931 1.026-.6096 2.207-.9094 3.4-.8634 1.544-.0963 3.069.3824 4.28 1.3436.515.4722.918 1.0524 1.182 1.6988.263.6465.38 1.3431.342 2.0399v8.2945h1.73v2.0787zm-6.742-1.6391c.544.0052 1.086-.0637 1.612-.2049.451-.119.878-.3174 1.26-.586.333-.2319.612-.531.821-.8778.194-.328.294-.7023.291-1.0828v-2.4879h-3.108c-1.017-.0729-2.034.129-2.946.5845-.293.1739-.533.4235-.696.7224-.162.2989-.241.6361-.228.976v.6142c-.016.3317.049.6623.189.9633.141.301.353.5632.617.7641.641.4414 1.41.6577 2.188.6149zm14.133 1.6391c-.341.0247-.684-.0238-1.005-.1421-.322-.1183-.614-.3037-.857-.5438-.434-.4954-.66-1.1388-.631-1.7962v-10.5434h-2.491v-2.0787h1.407c.185.0216.373.0055.552-.0473s.345-.1411.489-.2598c.217-.3116.316-.6904.278-1.0683v-2.8102h2.111v4.1856h3.313v2.0787h-3.313v10.9468h3.078v2.0787zm8.02-18.6459c-.198.0189-.399-.0039-.588-.0669s-.363-.1648-.511-.2989c-.231-.2618-.352-.6029-.337-.9517v-.3802c-.015-.3489.106-.6899.337-.9518.317-.2373.703-.3656 1.1-.3656.396 0 .782.1283 1.099.3656.231.2621.352.603.337.9518v.3802c.015.3488-.106.6898-.337.9517-.148.1341-.322.2358-.511.2988-.19.063-.39.0858-.589.067zm-1.172 3.5417h2.345v15.1042h-2.345zm11.65 15.4555c-.957.0119-1.906-.1776-2.785-.5563-.829-.3621-1.566-.9068-2.154-1.5934-.619-.7328-1.092-1.5774-1.393-2.4879-.665-2.1202-.665-4.3925 0-6.5128.298-.9162.771-1.7662 1.393-2.5031.588-.6867 1.325-1.2315 2.154-1.5934.879-.3784 1.828-.5679 2.785-.5562.953-.0127 1.897.1769 2.77.5562.827.3668 1.563.9108 2.156 1.5934.629.7341 1.107 1.5846 1.407 2.5031.665 2.1203.665 4.3926 0 6.5128-.303.9128-.781 1.7579-1.407 2.4879-.593.6823-1.329 1.2263-2.156 1.5934-.873.3796-1.817.5692-2.77.5563zm0-2.078c.57.0224 1.139-.0697 1.673-.2709s1.022-.5073 1.435-.9003c.432-.483.761-1.0487.968-1.6626.206-.6139.286-1.2633.234-1.9088v-2.1656c.052-.6455-.028-1.2949-.234-1.9088-.207-.6139-.536-1.1795-.968-1.6626-.859-.7548-1.964-1.1712-3.108-1.1712s-2.248.4164-3.107 1.1712c-.432.4831-.761 1.0487-.968 1.6626-.206.6139-.286 1.2633-.234 1.9088v2.1656c-.052.6455.028 1.2949.234 1.9088.207.6139.536 1.1796.968 1.6626.413.3931.901.6993 1.435.9004.533.2012 1.102.2933 1.672.2708zm8.676 1.7267v-15.1042h2.346v2.4314h.117c.334-.8023.875-1.502 1.568-2.028.798-.539 1.75-.8037 2.713-.7539.69-.0335 1.38.0841 2.021.3444.64.2603 1.216.6572 1.687 1.1628.975 1.198 1.462 2.7189 1.364 4.2595v9.688h-2.346v-9.2991c0-2.718-1.143-4.0774-3.43-4.0784-.46-.0009-.919.0585-1.364.1767-.422.1092-.823.2877-1.187.528-.345.2278-.632.5344-.835.8945-.213.391-.319.8308-.308 1.2755v10.5021z" fill="#343d53"/><path d="m20.1139 51.8152-19.225716-10.7303v-22.0623l19.225716 10.7295zm6.5738 0 19.2258-10.7303v-22.0623l-19.2258 10.7295zm-3.2898-49.70314-19.21124 11.38644 19.21124 10.7215 19.2113-10.7215z" fill="#1ea482"/></svg>