<svg fill="none" height="110" viewBox="0 0 315 110" width="315" xmlns="http://www.w3.org/2000/svg"><path d="m255.401 12.1523h43.494c.275 5.4491.118 10.8981.118 16.3472 0 4.5474.196 8.9771-1.489 13.2893-3.017 7.7228-10.462 13.0934-18.691 13.7206-7.993.5881-15.987-3.5281-20.14-10.4276-5.251-8.742-3.213-20.9337-3.253-30.6166-.039-.7056-.039-1.4112-.039-2.3129zm42.123 28.3821c-6.857-9.4868-13.479-18.7384-20.258-28.1076-6.818 9.4476-13.44 18.66-20.258 28.1076z" fill="#6910d6"/><g fill="#000"><path d="m18.9258 64.5262v-22.7762h7.3274v22.541c0 6.1939 3.7225 10.1532 10.1878 10.1532 6.5437 0 10.2662-3.9985 10.2662-10.1532v-22.541h7.2099v22.7762c0 10.114-6.6221 16.2687-17.4761 16.2687-10.658.0392-17.5152-6.3115-17.5152-16.2687z"/><path d="m102.505 60.8415c0 11.0941-8.1111 19.9929-19.1218 19.9929-5.6033 0-10.227-2.4305-13.5184-6.4683v21.2473h-6.7789v-53.8239h6.818v5.7626c3.3307-4.1946 8.0328-6.7035 13.5577-6.7035 10.9715 0 19.0434 8.9772 19.0434 19.9929zm-6.818-.0784c0-7.4483-5.1331-13.6422-13.0874-13.6422-7.9544 0-13.0091 6.2723-13.0091 13.6422 0 7.5267 5.0547 13.799 13.0091 13.799 7.9935 0 13.0874-6.2331 13.0874-13.799z"/><path d="m131.423 77.6196c-2.625 2.1169-6.23 3.2145-9.639 3.2145-7.837 0-11.559-5.4098-11.559-14.3086v-18.9344h-6.427v-5.8411h6.466v-13.4854h6.348v13.5246h12.813v5.8411h-12.813v19.4048c0 4.6258 1.567 7.5268 5.877 7.5268 2.312 0 4.506-.9409 6.465-2.1953z"/><path d="m169.079 41.7891-15.987 42.377c-3.252 8.742-7.445 11.9565-13.205 11.9565-2.469 0-4.624-.588-6.113-1.4896l.862-5.9587c1.333.588 3.057 1.1369 4.624 1.1369 3.056 0 5.486-1.7641 7.523-6.7035l1.411-3.3322-16.575-37.9864h7.876l11.795 28.578 10.227-28.578z"/><path d="m189.572 80.6774c-3.605 0-6.936-.8624-9.914-2.5873-3.017-1.7249-5.368-4.077-7.092-7.0955s-2.586-6.3507-2.586-9.9964c0-5.6059 1.881-10.3101 5.642-14.1126 3.762-3.8026 8.425-5.7235 13.95-5.7235 4.428 0 8.346 1.3329 11.755 3.9594 3.409 2.6657 5.408 5.9586 6.074 9.8788h-7.328c-.548-2.0385-1.841-3.6849-3.801-5.0178-1.959-1.3329-4.192-1.9993-6.7-1.9993-3.566 0-6.544 1.2545-8.973 3.7242-2.43 2.4697-3.644 5.5666-3.644 9.2516 0 3.6065 1.214 6.6643 3.644 9.134 2.429 2.4697 5.407 3.6849 8.973 3.6849 2.547 0 4.78-.6664 6.779-2.0385 1.998-1.372 3.252-3.0969 3.761-5.253h7.25c-.549 4.1162-2.547 7.5267-5.917 10.1533-3.37 2.7049-7.328 4.0377-11.873 4.0377z"/><path d="m229.54 80.6771c-4.585 0-8.347-1.1368-11.364-3.4497-2.978-2.2737-4.663-5.4098-5.054-9.33h7.053c.235 1.9209 1.175 3.4889 2.821 4.665 1.646 1.176 3.722 1.7641 6.191 1.7641 2.429 0 4.349-.5097 5.799-1.5289s2.195-2.3521 2.195-3.9986c0-1.2936-.431-2.3521-1.294-3.2145-.862-.8232-1.959-1.4505-3.33-1.8425-1.372-.392-2.861-.7448-4.506-1.0584-1.646-.3137-3.292-.6665-4.977-1.0977-1.645-.4312-3.174-.98-4.506-1.6857-1.371-.7056-2.468-1.764-3.33-3.1361-.863-1.4113-1.294-3.0969-1.294-5.0962 0-3.3714 1.333-6.1155 3.958-8.2716s6.074-3.2537 10.384-3.2537c4.036 0 7.484 1.0584 10.384 3.1361 2.899 2.0777 4.584 4.9786 5.054 8.6244h-7.445c-.235-1.6073-1.097-2.9009-2.586-3.9594-1.489-1.0584-3.37-1.568-5.564-1.568-2.038 0-3.722.4312-5.016 1.2936-1.293.8624-1.92 1.9993-1.92 3.4498 0 1.2544.431 2.2737 1.294 3.0185.862.784 1.959 1.3328 3.33 1.6857 1.372.3528 2.861.7056 4.506.98 1.646.2744 3.292.6664 4.977 1.0977 1.645.4704 3.174 1.0584 4.506 1.8032 1.371.7449 2.468 1.8817 3.33 3.4106.863 1.5288 1.294 3.3713 1.294 5.5666 0 3.4498-1.411 6.3507-4.271 8.6244-2.822 2.2345-6.387 3.3713-10.619 3.3713z"/></g></svg>