<svg fill="none" height="51" viewBox="0 0 177 51" width="177" xmlns="http://www.w3.org/2000/svg"><path d="m8.2272 38.5988c-.09908-.5297.31115-1.4819.43283-2.0011.17556-.755.332-1.5171.55276-2.2616 1.41671.792 2.91151 1.8726 4.60291 1.8726 1.6843 0 2.5204-1.6139 1.8112-3.0941-.7057-1.4696-2.4857-2.2369-3.6416-3.2824-1.1699-1.0595-1.9642-2.3936-2.07548-4.0005-.00695-.0194-.00869-.0387-.00347-.0581-.11994-.609-.12342-1.364.00347-1.9712-.00347-.0211-.00174-.0423.00348-.0634.6484-4.5954 4.1422-7.5839 8.646-8.0802.0052-.0211.0122-.0405.0191-.0599-.1512-.0774-.3024-.1531-.4554-.2305.1512.0774.3025.1531.4554.2305.0452-.0035.0904-.0052.1374-.0088.0034-.0704.0191-.1302.0417-.1777.0452-.0968.1251-.1514.2294-.176.0522-.0123.1095-.0176.1738-.0159.0748.0124.1478.0247.2225.037-.0747-.0123-.1477-.0246-.2225-.037-.0625 0-.1216.0036-.1738.0159-.1043.0246-.1842.0792-.2294.176-.0226.0475-.0365.1073-.0417.1777.3441-.014.6883-.0176 1.0307-.0457.5319-.0423 1.0534.0176 1.5731.1091.0192-.0018.0383 0 .0574.007.6275.0282 1.2324.1532 1.8043.3925-.0052.4013-1.3471 5.4543-1.5383 5.7905-.8274-.2834-1.6653-.565-2.5587-.5773-.0209-.0053-.04-.007-.0626-.0053-.0087-.0193-.0191-.0387-.0296-.0581l-.1286-.0105c-.2712 0-.5423 0-.8135-.0018-.0695.0035-.139.0071-.2086.0106-1.5192.2886-3.7754 1.4274-2.5482 3.3757.5232.8307 1.5765 1.364 2.3622 1.9114.9143.6353 1.8669 1.2513 2.6595 2.0451 2.6926 2.6946 2.6943 7.862.0244 10.5883-.0522.051-.1043.1038-.1547.1549-2.1589 2.4728-6.0943 2.4464-8.9329 1.3657-.7787-.2957-2.84546-1.1105-3.02102-2.0469z" fill="#fff"/><path d="m30.5635 5.81873c.0209-.00528.0417-.01056.0626-.0176-.0522-.01936-.1043-.03872-.1565-.05984-.0191.00528-.0382.00528-.0556 0-.0121.01936-.0243.03872-.0365.05808.0313.00352.0626.00704.0939.0088-.0313-.00352-.0626-.00704-.0939-.0088-.0434 0-.0851.00176-.1286.00352-.624.1232-1.222.34496-1.8443.4576-.7283-1.77058-1.5366-3.63443-3.3982-4.44404-.7823-.33968-1.7696-.15136-2.4336-.63713-.8117-.593122-1.4184-1.020806-2.4561-1.1246466-.2469-.05456047-.4937-.0862408-.7388 0 .0174.0545606.0365.1108806.0522.1601616-.0157-.049281-.0348-.105601-.0522-.1601616-2.6195.0105601-4.8184 2.3707466-6.1759 4.3894766-1.5262 2.26867-2.4979 4.84181-3.0246 7.52235-1.06206.4012-2.16236.7093-3.24529 1.0472-.78221.2446-2.32229.4224-2.81421 1.1686-.51279.7762-.42587 2.2423-.54234 3.1399-.16687 1.2883-.332 2.5784-.49539 3.8668-.30767 2.4217-.60839 4.8435-.92475 7.2635-.31288 2.3901-.43804 4.9034-.95951 7.2548-.11994 1.0983-.10777 2.3796-.444989 3.4338-.064315.5755-.123416 1.1493-.194683 1.7213-.050409.4013-.118201.8008-.179039 1.2004.001738.0211 0 .0422-.006953.0633-.048671.352-.095604.704-.144274 1.056.003476.0211.001738.044-.003477.0651-.019121.301-.036503.6002-.060838.9768-.0851743-.1214-.1234157-.176-.161657-.2288v.6724c4.36125.7392 8.71555 1.5259 13.0768 2.2757 2.1954.3766 4.3908.7568 6.5862 1.1422 2.2197.3907 4.4934.9786 6.7409 1.1493 1.2828.4083 2.7377.5087 4.064.7287.0261 0 .0539.0035.08.0052-.0035-7.341-.0018-14.682-.0018-22.023 0-7.3622-.2329-14.7666.0192-22.12345zm-22.3364 32.78027c-.09908-.5297.31115-1.4819.43282-2.0011.17557-.7551.33201-1.5171.55276-2.2616 1.41672.792 2.91152 1.8726 4.60292 1.8726 1.6843 0 2.5204-1.6139 1.8112-3.0941-.7057-1.4696-2.4857-2.237-3.6416-3.2824-1.1699-1.0595-1.9642-2.3936-2.07548-4.0005-.00695-.0194-.00869-.0387-.00348-.0581-.11994-.609-.12341-1.364.00348-1.9712-.00348-.0211-.00174-.0423.00348-.0634.6484-4.5954 4.1422-7.5839 8.646-8.0802.0052-.0211.0122-.0405.0191-.0599-.1512-.0774-.3024-.1531-.4554-.2305.1512.0774.3025.1531.4554.2305.0452-.0035.0904-.0052.1374-.0088.0034-.0704.0191-.1302.0417-.1777.0452-.0968.1251-.1514.2294-.176.0522-.0123.1095-.0176.1738-.0159.0748.0124.1478.0247.2225.037-.0747-.0123-.1477-.0246-.2225-.037-.0625 0-.1216.0036-.1738.0159-.1043.0246-.1842.0792-.2294.176-.0226.0475-.0365.1073-.0417.1777.3441-.014.6883-.0176 1.0307-.0457.5319-.0423 1.0534.0176 1.5731.1091.0192-.0018.0383 0 .0574.007.6275.0282 1.2324.1532 1.8043.3925-.0052.4013-1.3471 5.4543-1.5383 5.7905-.8274-.2834-1.6653-.565-2.5587-.5773-.0209-.0053-.04-.007-.0626-.0053-.0087-.0193-.0191-.0387-.0296-.0581l-.1286-.0105c-.2712 0-.5423 0-.8135-.0018-.0695.0035-.1391.0071-.2086.0106-1.5192.2886-3.7754 1.4273-2.5482 3.3757.5232.8307 1.5765 1.364 2.3622 1.9114.9143.6353 1.8669 1.2513 2.6595 2.0451 2.6926 2.6946 2.6943 7.862.0244 10.5883-.0522.051-.1043.1038-.1547.1548-2.1589 2.4729-6.0943 2.4465-8.9329 1.3658-.7787-.2957-2.84546-1.1106-3.02102-2.0469zm13.8747-35.29006c.6761 1.24786.6466 2.63299.8152 4.00404.0052.11968.0087.24112.0139.3608-.0139.09681-.0261.19537-.0382.28161-.3216.20768-4.6863 1.55761-5.0236 1.54881.3181-2.3989 2.0824-5.11989 4.2344-6.19702zm4.7645 3.4162c-.6797.40656-1.587.55088-2.3414.7744-.0418-.38016-.0765-.70752-.113-1.03665-.0035-.04576-.007-.08976-.0087-.13552-.0261.00352-.0539.00704-.0782.01232.026-.00528.0521-.00704.0782-.01232-.0104-1.09121-.3007-2.1349-.5997-3.17331 1.6809.16896 2.6039 2.16482 3.0628 3.56932zm-11.9418-1.9677c1.3176-1.6949 3.3705-3.71188 5.698-2.97795.1252.03872.2416.10384.4241.1848-.8726.77793-1.7573 1.34465-2.4717 2.31266-.8014 1.08417-1.4184 2.3109-1.8704 3.58164-.2659.74624-.2798 1.98353-.9543 2.39361-.5562.3379-1.3975.44-2.0233.6354-.5997.1865-1.1959.3995-1.8112.528.2798-2.31444 1.5991-4.84711 3.0071-6.65992z" fill="#95bf47"/><path d="m43.6437 45.9839c-.0035-.0422-.0069-.0827-.0104-.1249-.0487.0052-.0956.0123-.1443.0176.0487-.0053.0973-.0124.1443-.0176-.0435-.2816-.0869-.5615-.1304-.8431-.0521-.3661-.106-.7339-.1582-1.1-.0486-.3291-.0973-.6583-.146-.9874.0052-.0211.0035-.0405-.0052-.0598-.0452-.3045-.0904-.6107-.1373-.9152-.0052-.044-.0087-.0863-.0139-.1303-.0365.0036-.073.0053-.1061.0106.0331-.0053.0696-.007.1061-.0106-.0435-.2816-.0869-.5614-.1304-.843-.0052-.0423-.0087-.0845-.0139-.1285-.0452-.3045-.0904-.6107-.1373-.9152-.0035-.044-.0087-.088-.0122-.1302-.0278-.2957-.0556-.5914-.0834-.8871-.0191-.0088-.0383-.0176-.0556-.0264.0052-.0194.0034-.0387-.0053-.0581-.0313-.3221-.0608-.6424-.0921-.9645v.0053c-.0191-.007-.0365-.0141-.0539-.0229.0052-.0211.0035-.044-.0052-.0633-.0939-.6283-.1877-1.2567-.2816-1.885-.0713.0651-.1425.1302-.2068.1901.0643-.0599.1355-.125.2068-.1901-.0035-.044-.0087-.088-.0122-.132l-.0764-.8219c-.0209-.0317-.0435-.0616-.0644-.0933.0053-.0194.0053-.0387-.0052-.0563-.0486-.3292-.0973-.6565-.146-.9856.0052-.0212.0052-.0423-.0052-.0616-.0939-.6284-.1895-1.2585-.2833-1.8868-.0035-.044-.007-.0862-.0105-.1302-.0469-.3045-.0938-.6072-.1408-.9117.0053-.0211.0035-.0405-.0052-.0598l-.146-.9839c.0052-.0211.0035-.0422-.0052-.0616-.0226-.9698-.2242-1.9871-.4363-2.9322.007-.0193.0052-.0387-.0035-.0563-.0486-.3291-.0973-.6565-.146-.9856-.0035-.0458-.0052-.0915-.0087-.1355-.0452-.2799-.0904-.5597-.1356-.8396-.0034-.044-.0069-.088-.0121-.132-.0922.0141-.193.0141-.2295.1127.0348-.0986.1373-.0986.2295-.1127-.0435-.2798-.0887-.5614-.1321-.8413-.0331-.3414-.0643-.6828-.0974-1.0243-.0504-.3432-.1008-.6864-.1512-1.0296-.2399-1.3006-.5615-2.721-.5893-4.0445v.0053c-.0365-.1936-.0799-.3855-.1077-.5808-.1148-.8061-.2243-1.614-.3355-2.4201-.0504-.3432-.1008-.6881-.1512-1.0313-.0661-.3362-.1321-.6724-.1982-1.0085l-.0122-.1285c-.0434-.2798-.0869-.5614-.1303-.8413-.0174.0159-.0331.0317-.0504.0475.0173-.0158.033-.0316.0504-.0475-.0904-.7427.0504-2.16481-.7405-2.48513-.7579-.30801-2.1346-.04224-2.9516-.04576-.0139-.0176-.026-.03696-.0417-.05456-.066 0-.1338-.00352-.1999-.00528-.3094.05456-.5614-.02993-.7805-.27281-.1616-.17776-.365-.31504-.551-.46992l-1.0586-1.05601c-.0208-.02464-.0434-.04752-.0643-.07216-.4154-.41713-.8274-.84129-1.2533-1.24961-.0921-.088-.2346-.12145-.3528-.17953-.0209.00704-.0417.01408-.0626.0176-.252 7.35687-.0191 14.76307-.0191 22.12337 0 7.3411-.0018 14.6821.0017 22.0231 1.0673-.1021 2.1624-.5121 3.2036-.7726 1.0864-.2711 2.1728-.5439 3.2592-.8149 1.1803-.2957 2.3588-.5914 3.5391-.8871 1.0325-.2604 2.2997-.3907 3.2418-.88-.0504-.2164-.0973-.4206-.1443-.623zm-11.7679-28.4454c-.0295.0317-.073.0528-.1078.081.0331-.0282.0783-.0493.1078-.081zm-.5006-10.48967c.0434.03344.0921.02992.1408.00352-.0487.0264-.0974.02992-.1408-.00352zm.2677 28.63727c.0521.0123.1078.007.1582.0123-.0522-.0053-.1078 0-.1582-.0123zm.2468.4892c.0226.0282.0522.0546.0887.0775-.0365-.0229-.0661-.0475-.0887-.0775zm-.0904-.535c.0122-.0986.1269-.0968.1947-.139-.0678.044-.1825.0404-.1947.139zm.2121-20.6644c.0069-.1003.0104-.19.0122-.2622 0 .0722-.0053.1619-.0122.2622zm.7996 33.5565c0-.0369.0208-.0757.0626-.1179-.0418.0422-.0644.0792-.0626.1179zm-.2069-31.0696c.1182-.014.2399-.0228.3633-.0316-.1234.007-.2451.0176-.3633.0316zm.3981 30.9851c.0191.0247.0295.0493.0313.074-.0018-.0247-.0122-.0493-.0313-.074zm.9925-37.351c-.0486-.0176-.0956-.0352-.1425-.0546.0452.0194.0921.037.1425.0546zm-.3772 37.703c.0018-.0334.0209-.0721.0609-.1179-.04.0475-.0591.0863-.0609.1179zm-.0365-.8588c.0209.0299.0452.0563.073.0809-.0278-.0246-.0521-.051-.073-.0809zm.1426.9873c-.014-.007-.0261-.0141-.0383-.0211.0122.007.0243.0141.0383.0211zm-.233-31.5078c.2225 0 .445.0123.6588.0334-.2138-.0193-.4363-.0316-.6588-.0334zm1.3072-8.13303c.0243-.02464.0469-.04576.0678-.06512-.0209.01936-.0435.04224-.0678.06512zm.478 26.56393c.0087.1038.033.1971.0626.2886-.0296-.0915-.0539-.1848-.0626-.2886zm.0156-24.7142c.08-.0827.1391-.1672.1826-.2516-.0418.0844-.1026.1689-.1826.2516zm.5685 24.5628c.0052-.0228.0173-.044.0382-.0633-.0191.0193-.033.0405-.0382.0633zm-.0087-18.012c.0469-.0616.1095-.1056.1842-.132-.0747.0282-.1373.0704-.1842.132zm2.5813.4541c.0312.0247.0521.0511.0677.0792-.0156-.0281-.0365-.0545-.0677-.0792zm.2972.44c.0713-.0845.1251-.1496.1617-.2059-.0366.0546-.0904.1197-.1617.2059zm.93 8.7156c.0121.0053.0191.0106.0278.0141-.0087-.0053-.0174-.0088-.0278-.0141zm.73-2.4306c.0174.0053.0313.0036.0487-.0052-.0157.0088-.0313.0105-.0487.0052zm1.1525 9.9459c-.0226-.0352-.0244-.0581-.0052-.0651-.0192.0088-.0174.0299.0052.0651.0208 0 .033-.0053.0382-.0158-.0035.0105-.0156.0158-.0382.0158zm.2729 3.3563c0 .0511.0156.1039.0382.1567-.0226-.0528-.0365-.1039-.0382-.1567zm.1442-3.1785c-.0278.0844-.0434.1654-.0451.2446 0-.0792.0156-.1602.0451-.2446z" fill="#5e8e3e"/><g fill="#000"><path d="m155.912 51.0001c-.553-1.7037-1.106-3.4074-1.667-5.134 1.988-.7849 3.822-1.7565 5.277-3.3775.666-.7409 1.564-1.7688 1.54-2.8248-.03-1.3429-.494-2.8107-.734-4.1325-.952-5.2677-2.049-10.5249-2.875-15.8155.331-.0862 5.751-.1056 6.295-.0194.495 4.8823.992 9.7769 1.491 14.6927.407-.0564 1.052-2.7087 1.21-3.1575.466-1.3218.935-2.6418 1.422-3.9565.94-2.5415 1.861-5.1076 2.904-7.6068h6.225c-1.088 3.2278-2.884 6.3554-4.311 9.446-1.43 3.1011-2.798 6.2498-4.361 9.2858-1.391 2.6999-2.997 5.3558-4.965 7.6684-.997 1.1722-2.113 2.2388-3.386 3.0994-1.209.8184-2.522 1.1986-3.806 1.8322h-.261z"/><path d="m115.34 40.7973c-.558 3.0132-1.108 5.9841-1.662 8.9796h-5.971c0-1.151.405-2.4007.617-3.5323.235-1.2497.469-2.4975.704-3.7471.485-2.5802.97-5.1604 1.453-7.7406.47-2.5062.946-5.0125 1.408-7.5205.475-2.5679.704-5.1833 1.191-7.7441h5.286c-.111 1.0807-.219 2.1296-.327 3.1786.023.0106.047.0211.07.0317 2.245-2.7245 5.823-4.7468 9.299-2.8829 3.164 1.6966 3.487 5.8555 3.157 9.0517-.708 6.8571-6.353 14.5501-13.995 12.3853-.399-.1127-.78-.2887-1.23-.4594zm.905-4.6148c.092.0775.146.1268.204.1672 5.22 3.7946 9.228-6.9133 7.625-10.7167-1.352-3.2067-4.669-.5262-5.708 1.4221-1.441 2.6981-1.603 6.1477-2.119 9.1257z"/><path d="m72.2208 10.1113h5.9952c-.6119 4.0709-1.5071 8.1155-2.2702 12.16.0296.0158.0574.0317.087.0475 1.9051-2.0469 4.3334-3.5552 7.2345-3.1187 2.2493.3396 3.666 2.0222 3.9754 4.2557.3963 2.867-.5024 5.8855-1.0204 8.6857-.5562 3.0025-1.0603 6.0263-1.7069 9.0112h-5.9917c.617-3.5446 1.3245-7.0735 1.9746-10.6129.3146-1.7107 1.6965-6.7778-1.5331-6.4557-2.8925.2886-4.1144 4.3226-4.5872 6.6898-.339 1.6967-.6432 3.4021-.9648 5.1023-.3233 1.7072-.4676 3.6133-1.0169 5.2589-.3406.0986-5.5675.1074-5.9969.0036 1.9382-10.3278 3.878-20.6591 5.8249-31.0274z"/><path d="m88.908 32.7767c.0817-4.3683 1.9242-8.9092 5.4946-11.5246 3.2887-2.4094 8.4654-3.1275 11.7954-.4083 3.494 2.853 3.397 8.1859 2.074 12.1212-1.392 4.1466-4.577 7.6174-8.9276 8.4992-4.4951.9117-8.9103-1.1704-10.1375-5.7817-.2381-.8958-.3076-1.8128-.3007-2.9058zm14-5.0583c0-.234.015-.4681-.004-.7004-.248-3.2684-3.3789-4.1167-5.4543-1.7161-1.8721 2.1631-2.9272 6.3537-2.2702 9.1521.5667 2.4095 3.0211 3.3335 4.8685 1.6087 2.114-1.973 2.776-5.5846 2.858-8.3443z"/><path d="m152.089 19.5714h4.197c-.296 1.5506-.581 3.0448-.875 4.5831h-4.147c-1.064 5.6936-2.119 11.345-3.172 16.9841-.353.0898-5.459.1056-6.003.0159.911-5.6849 2.105-11.3345 3.154-16.9947h-2.801c.299-1.5577.584-3.0572.876-4.5796h2.79c.572-3.0343 1.457-6.1583 3.984-8.133 2.449-1.91495 6.004-2.28455 8.881-1.2708-.391 1.5911-.775 3.1557-1.154 4.6993-1.088-.1391-2.237-.4436-3.272.0792-.949.4804-1.665 1.5136-1.948 2.5291-.188.6723-.334 1.3552-.511 2.0891z"/><path d="m49.9016 40.1408c.5076-1.4697.9978-2.8847 1.4862-4.2962 1.5853.6318 3.1689 1.32 4.9088 1.2777 1.3576-.0317 2.8925-.755 2.6595-2.3795-.2242-1.5664-2.0632-2.2898-3.2001-3.066-1.3401-.9152-2.6073-2.1507-3.0575-3.7699-.8726-3.1399 1.0916-6.2921 3.838-7.6543 2.9967-1.4855 6.9234-1.4292 9.941-.0775-.4763 1.4661-.9352 2.8777-1.4027 4.3138-1.5627-.5403-3.4591-1.1897-5.1053-.5966-1.2254.4417-1.8755 1.7248-1.0777 2.8776.8952 1.2936 2.7899 1.8991 3.9632 2.9181 1.2307 1.0683 2.1241 2.3408 2.2563 4.0164.584 7.3956-8.6756 9.2137-13.9859 7.0242-.4103-.169-.8014-.3819-1.2255-.5861z"/><path d="m140.977 19.6699c-1.361 7.1844-2.717 14.3371-4.078 21.5127h-5.941c-.025-.3397 3.792-20.9477 3.982-21.5127z"/><path d="m135.851 14.0625c-.021-4.44581 6.86-4.87174 6.422-.22-.328 3.4866-5.986 4.5831-6.398.6266-.017-.1602-.021-.3204-.024-.4066z"/></g></svg>