<?xml version="1.0" encoding="UTF-8"?> <svg xmlns="http://www.w3.org/2000/svg" id="Layer_1" data-name="Layer 1" viewBox="0 0 400 245"><defs><style>.cls-1{fill:#77787b;}.cls-2{fill:#f26522;}.cls-3{fill:#8dc63f;}.cls-4{fill:#00aeef;}.cls-5{fill:#ffc20e;}</style></defs><title>MS-Azure-Vector-Stacked</title><path class="cls-1" d="M169.48223,99.40273l-2.10693,5.89955h-.11424a56.08665,56.08665,0,0,0-1.97841-5.83484L153.99844,71.21365H142.99961V116.1403h7.26357V88.51869c0-1.69978-.04285-3.76385-.11424-6.12052-.02853-1.19642-.17137-2.14626-.20719-2.87113h.16433a39.21183,39.21183,0,0,0,1.02827,3.84222L164.64,116.1403h5.078l13.41268-33.07444a30.85585,30.85585,0,0,0,.92125-3.53882h.1571c-.16438,3.271-.32143,6.25637-.33575,8.06688V116.1403h7.73488V71.21365H181.038Z"></path><rect class="cls-1" x="198.90731" y="83.94784" width="7.58482" height="32.19247"></rect><path class="cls-1" d="M202.77812,70.26381a4.539,4.539,0,0,0-3.22814,1.264,4.16258,4.16258,0,0,0-1.3497,3.15322,4.08725,4.08725,0,0,0,1.33544,3.10309,4.62643,4.62643,0,0,0,3.2424,1.22847,4.69089,4.69089,0,0,0,3.264-1.22847,4.09273,4.09273,0,0,0,1.34271-3.10309,4.24383,4.24383,0,0,0-1.32117-3.12087,4.48508,4.48508,0,0,0-3.28555-1.2964"></path><path class="cls-1" d="M233.30292,83.61936a20.86145,20.86145,0,0,0-4.24244-.45,18.70062,18.70062,0,0,0-9.20581,2.21765,14.955,14.955,0,0,0-6.07068,6.242,19.87929,19.87929,0,0,0-2.09266,9.25947,17.16228,17.16228,0,0,0,2.02855,8.28485,14.18039,14.18039,0,0,0,5.67076,5.72413,16.83542,16.83542,0,0,0,8.28486,2.018,18.16276,18.16276,0,0,0,9.12714-2.13229l.11431-.05712v-6.94531l-.32119.232a14.48811,14.48811,0,0,1-3.71371,1.93233,11.0616,11.0616,0,0,1-3.628.69945,9.297,9.297,0,0,1-7.0928-2.76065,10.76745,10.76745,0,0,1-2.60647-7.65239,11.0657,11.0657,0,0,1,2.7283-7.86339,9.23429,9.23429,0,0,1,7.0922-2.92825,12.15761,12.15761,0,0,1,7.22048,2.5106l.32119.232V84.86562l-.11431-.05712a12.78892,12.78892,0,0,0-3.49972-1.18914"></path><path class="cls-1" d="M258.25712,83.38705a7.73438,7.73438,0,0,0-5.06311,1.81051,10.25759,10.25759,0,0,0-2.91453,4.31759h-.07813V83.94784h-7.57079V116.1403h7.57079v-16.466a11.44344,11.44344,0,0,1,1.88512-6.84186,5.76435,5.76435,0,0,1,4.89993-2.589,8.82245,8.82245,0,0,1,2.271.33928,5.71441,5.71441,0,0,1,1.76389.71436l.32173.22849V83.88719l-.11425-.05712a7.98948,7.98948,0,0,0-2.97165-.443"></path><path class="cls-1" d="M278.8116,83.16238c-5.29166,0-9.50551,1.56041-12.51267,4.63144-3.00663,3.06028-4.535,7.31347-4.535,12.61964,0,5.04216,1.49283,9.09568,4.42079,12.05217,2.92849,2.953,6.92841,4.44992,11.86331,4.44992,5.1348,0,9.28449-1.57151,12.29118-4.68892,2.99259-3.11036,4.521-7.30965,4.521-12.49519,0-5.12023-1.42115-9.20581-4.24941-12.13752-2.81426-2.94252-6.78505-4.43154-11.79916-4.43154m6.04238,24.7968a7.70824,7.70824,0,0,1-6.37061,2.68544,8.10161,8.10161,0,0,1-6.51339-2.735c-1.57091-1.83265-2.35667-4.43942-2.35667-7.74216,0-3.41759.78576-6.08906,2.35667-7.94559a8.81895,8.81895,0,0,1,12.74117-.12153c1.52143,1.77875,2.2996,4.42456,2.2996,7.88118,0,3.48868-.72863,6.1817-2.15677,7.97764"></path><path class="cls-1" d="M311.65839,97.246a16.443,16.443,0,0,1-4.5502-2.36371,3.30823,3.30823,0,0,1-.914-2.47473,2.74593,2.74593,0,0,1,1.17159-2.29955,5.18935,5.18935,0,0,1,3.24914-.91778,13.18572,13.18572,0,0,1,3.89266.5963,12.39763,12.39763,0,0,1,3.39252,1.57473l.30717.2107V84.5692l-.12881-.04637a16.09341,16.09341,0,0,0-3.4281-.96787,21.35619,21.35619,0,0,0-3.77782-.3856,13.83092,13.83092,0,0,0-8.87763,2.74256,8.75674,8.75674,0,0,0-3.47066,7.14557,9.99426,9.99426,0,0,0,.74964,3.98912,8.05036,8.05036,0,0,0,2.29955,2.99963,19.43625,19.43625,0,0,0,4.64988,2.60325,34.57649,34.57649,0,0,1,3.8775,1.80293,5.34982,5.34982,0,0,1,1.7073,1.39954,3.17388,3.17388,0,0,1,.47859,1.82513c0,2.1678-1.62165,3.22109-4.94946,3.22109a13.66521,13.66521,0,0,1-4.19982-.76415,16.10119,16.10119,0,0,1-4.29252-2.17831l-.32066-.232v7.38134l.11431.05712a18.3887,18.3887,0,0,0,4.078,1.24626,21.07739,21.07739,0,0,0,4.3275.50712c3.93576,0,7.0922-.93265,9.37778-2.76064a8.91318,8.91318,0,0,0,3.49978-7.31664,8.43608,8.43608,0,0,0-1.87872-5.53179,16.18473,16.18473,0,0,0-6.38453-4.06051"></path><path class="cls-1" d="M340.28315,83.16238c-5.30617,0-9.52062,1.56041-12.52724,4.63144-3.00663,3.06028-4.535,7.31347-4.535,12.61964,0,5.04216,1.49283,9.09568,4.42079,12.05217,2.92849,2.953,6.92782,4.44992,11.85633,4.44992,5.15636,0,9.29153-1.57151,12.29815-4.68892,3.00664-3.11036,4.521-7.30965,4.521-12.49519,0-5.12023-1.42109-9.20581-4.24935-12.13752-2.81432-2.94252-6.785-4.43154-11.78465-4.43154m6.02781,24.7968a7.703,7.703,0,0,1-6.36357,2.68544,8.13267,8.13267,0,0,1-6.52795-2.735c-1.56393-1.83265-2.34915-4.43942-2.34915-7.74216,0-3.41759.78522-6.08906,2.34915-7.94559a7.977,7.977,0,0,1,6.45627-2.78195,7.86162,7.86162,0,0,1,6.29248,2.66042c1.52835,1.77875,2.29954,4.42456,2.29954,7.88118,0,3.48868-.72862,6.1817-2.15677,7.97764"></path><path class="cls-1" d="M396.705,90.11849V83.94784h-7.67048v-9.606l-.25708.07868L381.571,76.62362l-.14284.04279v7.28143H370.06559V79.89109a6.49237,6.49237,0,0,1,1.24978-4.29574,4.45258,4.45258,0,0,1,3.52073-1.4319,8.09063,8.09063,0,0,1,3.32841.75687l.27863.12158V68.539l-.12887-.0428a12.76639,12.76639,0,0,0-4.26392-.57129,12.42745,12.42745,0,0,0-6.03486,1.44968,10.278,10.278,0,0,0-4.15667,4.09961,12.222,12.222,0,0,0-1.46425,6.01355v4.46013h-5.3418v6.17065h5.3418V116.1403h7.671V90.11849h11.36257V106.6558c0,6.80313,3.21357,10.25975,9.54163,10.25975a15.87764,15.87764,0,0,0,3.26425-.3573,8.79049,8.79049,0,0,0,2.3637-.7537l.10727-.05712v-6.23829l-.30723.211a5.4958,5.4958,0,0,1-1.54232.66746,5.79851,5.79851,0,0,1-1.52142.257,4.0976,4.0976,0,0,1-3.25727-1.18209c-.6995-.79979-1.04224-2.18882-1.04224-4.14217V90.11849Z"></path><rect class="cls-2" x="3.53537" y="71.34887" width="50.57066" height="50.58134"></rect><rect class="cls-3" x="59.35796" y="71.34887" width="50.581" height="50.58134"></rect><rect class="cls-4" x="3.53537" y="127.20654" width="50.57066" height="50.59176"></rect><rect class="cls-5" x="59.35796" y="127.20654" width="50.581" height="50.59176"></rect><path class="cls-1" d="M182.54458,177.37371h-8.24116l-4.07289-11.52554H152.42238l-3.91391,11.52554H140.2991L157.25516,132.095h8.46054Zm-14.30121-17.65077L161.95758,141.662a21.606,21.606,0,0,1-.59774-2.84084h-.12718A18.52864,18.52864,0,0,1,160.6,141.662l-6.219,18.06092Z"></path><path class="cls-1" d="M210.52064,148.10361l-17.45841,23.555h17.39482v5.71508H182.79893v-2.74706l17.83995-23.86978H184.50312v-5.71508h26.01752Z"></path><path class="cls-1" d="M243.58383,177.37371h-7.32547V172.258h-.12718a10.54282,10.54282,0,0,1-9.91355,5.87405q-11.46036,0-11.462-13.76706V145.04179h7.32547v18.56486q0,8.71569,6.72456,8.7149a6.79365,6.79365,0,0,0,5.351-2.3989,9.18562,9.18562,0,0,0,2.10162-6.28421V145.04179h7.32547Z"></path><path class="cls-1" d="M270.57744,152.01911a6.06515,6.06515,0,0,0-3.81853-1.04127,6.53725,6.53725,0,0,0-5.43051,2.93623,13.124,13.124,0,0,0-2.17793,7.98839v15.47125H251.825V145.04179h7.32548v6.661h.124a11.25157,11.25157,0,0,1,3.30027-5.31923,7.44873,7.44873,0,0,1,4.97268-1.91086,6.1568,6.1568,0,0,1,3.03.60092Z"></path><path class="cls-1" d="M301.27194,163.1965h-22.04a9.31124,9.31124,0,0,0,2.763,6.91532,10.27361,10.27361,0,0,0,7.246,2.4307,15.97106,15.97106,0,0,0,9.5034-3.09361v5.90425q-4.421,2.77806-11.68133,2.77885-7.13948,0-11.19488-4.40514-4.05858-4.40435-4.057-12.39353,0-7.54486,4.46714-12.29815a14.61756,14.61756,0,0,1,11.0995-4.7517q6.62916,0,10.26329,4.26206,3.62935,4.26366,3.63094,11.84031Zm-7.0743-5.17775a9.44508,9.44508,0,0,0-1.86316-6.14113,6.224,6.224,0,0,0-5.05216-2.19541,7.1104,7.1104,0,0,0-5.351,2.30511,10.53988,10.53988,0,0,0-2.69936,6.03143Z"></path></svg> 