<svg xmlns="http://www.w3.org/2000/svg" role="img" viewBox="-28.32 -28.32 1472.64 736.64"><title>New_Logo_Blue (1).svg</title><path fill="#0254ec" d="M673.06 189.89v483.92a7.23 7.23 0 0 0 7.23 7.23h107.59a7.23 7.23 0 0 0 7.23-7.23V189.89a7.23 7.23 0 0 0-7.23-7.23H680.29a7.23 7.23 0 0 0-7.23 7.23zm168 481.8a6.43 6.43 0 0 0 5.83 9.31h390.67a7.29 7.29 0 0 0 7.35-7.23v-94.75a7.29 7.29 0 0 0-7.35-7.23h-197.09a6.42 6.42 0 0 1-5.73-9.49l204.92-370.14a6.43 6.43 0 0 0-5.73-9.5h-386.9a7.29 7.29 0 0 0-7.35 7.23v104.92a7.29 7.29 0 0 0 7.35 7.23h171.87a6.43 6.43 0 0 1 5.83 9.31zm-213.2-489.06h-113.1a7.23 7.23 0 0 0-6.75 4.66l-79.62 208.52a2.58 2.58 0 0 1-4.75.15l-95.07-207.15a12.63 12.63 0 0 0-10.81-7.49h-.16a12.67 12.67 0 0 0-11.08 7.49l-95.07 207.1a2.57 2.57 0 0 1-4.69-.1l-79.68-208.52a7.23 7.23 0 0 0-6.75-4.66H7.24a7.27 7.27 0 0 0-6.75 9.9l187 486.73a2.58 2.58 0 0 0 4.71.23l113.88-228a12.78 12.78 0 0 1 22.9 0l113.88 228a2.58 2.58 0 0 0 4.71-.23l187-486.73a7.27 7.27 0 0 0-6.71-9.9zm787-90.29a2.48 2.48 0 0 1 1.9 2.47 2.48 2.48 0 0 1-1.92 2.41c-20.42 4.71-51.38 13.85-64 26.45s-21.74 43.56-26.45 64a2.48 2.48 0 0 1-2.42 1.93 2.5 2.5 0 0 1-2.42-1.93c-4.71-20.41-13.84-51.37-26.44-64s-43.56-21.74-64-26.45a2.48 2.48 0 0 1-1.93-2.42 2.48 2.48 0 0 1 1.93-2.42c20.41-4.71 51.37-13.84 64-26.45s21.74-43.55 26.45-64a2.47 2.47 0 0 1 2.42-1.92 2.47 2.47 0 0 1 2.42 1.92c4.71 20.42 13.84 51.37 26.44 64s43.6 21.7 64.02 26.41z"/></svg>