<svg viewBox="0 0 853 208" xmlns="http://www.w3.org/2000/svg"><path d="m171.54218 47.63543-62.10491-35.43643a24.223 24.223 0 0 0 -24.14894-.00227l-62.16333 35.49235a24.18092 24.18092 0 0 0 -12.09122 20.907v70.98092a24.39361 24.39361 0 0 0 12.14638 20.96038l62.1049 35.4883a24.159 24.159 0 0 0 24.1502.001l62.16182-35.49132a24.25122 24.25122 0 0 0 12.09121-20.907v-71.03228a24.39575 24.39575 0 0 0 -12.14611-20.96065zm-79.86064 137.21181-62.047-35.48477a11.37865 11.37865 0 0 1 -5.65318-9.7855v-70.98089a11.3488 11.3488 0 0 1 5.592-9.78048l62.17089-35.445a11.32189 11.32189 0 0 1 5.624-1.51052 10.78278 10.78278 0 0 1 5.67484 1.46669l62.09534 35.48323a11.37888 11.37888 0 0 1 5.65368 9.786v70.981a11.34765 11.34765 0 0 1 -5.59172 9.78l-62.17039 35.49629a11.43205 11.43205 0 0 1 -5.68744 1.5153 11.22477 11.22477 0 0 1 -5.66102-1.52135z" fill="#fff"/><path d="m186.26755 68.58878a26.98746 26.98746 0 0 0 -13.4433-23.1913l-62.10139-35.43464a26.80624 26.80624 0 0 0 -26.7171-.00378l-62.16333 35.49232a26.76831 26.76831 0 0 0 -13.3879 23.1447v70.98792a26.98584 26.98584 0 0 0 13.44281 23.191l62.10666 35.48936a26.73785 26.73785 0 0 0 26.71181.001l62.16685-35.49384a26.842 26.842 0 0 0 13.38487-23.14317zm-2.57924 71.03956a24.25123 24.25123 0 0 1 -12.09122 20.907l-62.16182 35.49132a24.159 24.159 0 0 1 -24.1502-.001l-62.1049-35.4883a24.39363 24.39363 0 0 1 -12.14639-20.96036v-70.98092a24.1809 24.1809 0 0 1 12.09122-20.907l62.16333-35.49233a24.223 24.223 0 0 1 24.14894.00227l62.10491 35.43641a24.39575 24.39575 0 0 1 12.14611 20.96065z" fill="#417598"/><path d="m165.20035 149.35693a11.34767 11.34767 0 0 0 5.59172-9.78v-70.98085a11.3789 11.3789 0 0 0 -5.65369-9.786l-62.09532-35.48328a10.78287 10.78287 0 0 0 -5.67484-1.46669 11.32189 11.32189 0 0 0 -5.624 1.51052l-62.17086 35.44497a11.34881 11.34881 0 0 0 -5.592 9.78048v70.98092a11.37865 11.37865 0 0 0 5.65318 9.7855l62.047 35.48477a11.22473 11.22473 0 0 0 5.661 1.52135 11.432 11.432 0 0 0 5.68744-1.5153z" fill="#417598"/><path d="m817.34 96.22623a5.72915 5.72915 0 0 0 1.51751-4.09737v-1.06229a5.37423 5.37423 0 0 0 -1.51751-3.94567 5.17164 5.17164 0 0 0 -3.79383-1.66926h-16.08596v12.44385h16.08587a4.93193 4.93193 0 0 0 3.79392-1.66926z" fill="none"/><path d="m257.06473 75.73937c-.30353 1.51754-.75876 2.73155-1.06229 3.94567s-.75877 2.27629-1.06219 3.18679l-12.1404 30.806h28.378l-11.83685-30.80601a55.80229 55.80229 0 0 1 -2.27627-7.13245z" fill="none"/><path d="m456.77286 120.81028a9.42584 9.42584 0 0 0 -4.09738 3.18689 6.65849 6.65849 0 0 0 -1.36573 4.09737 7.49542 7.49542 0 0 0 .75876 3.642 9.96762 9.96762 0 0 0 1.821 2.57984 9.66351 9.66351 0 0 0 2.73162 1.51754 27.0801 27.0801 0 0 0 3.49033.30352 23.16518 23.16518 0 0 0 4.55252-.45525 20.30821 20.30821 0 0 0 3.94565-1.36581 17.22789 17.22789 0 0 0 3.49037-2.27628 20.27823 20.27823 0 0 0 3.18689-3.03506v-11.07804a67.97613 67.97613 0 0 0 -11.0781.75878 31.9988 31.9988 0 0 0 -7.43593 2.1245z" fill="none"/><path d="m815.21533 112.76735h-17.75519v12.59555l.00007.00009h17.75512a4.93206 4.93206 0 0 0 3.79383-1.66935 5.72917 5.72917 0 0 0 1.51751-4.09737v-1.06227a5.72915 5.72915 0 0 0 -1.51751-4.09737 5.43355 5.43355 0 0 0 -3.79383-1.66928z" fill="none"/><g fill="#417598"><path d="m422.47653 66.1789a18.132 18.132 0 0 0 -5.76672 3.79384 15.48675 15.48675 0 0 0 -3.642 6.07016 25.78113 25.78113 0 0 0 -1.36581 8.19474v5.15958h-8.49817v3.79384a2.43694 2.43694 0 0 0 .75876 1.66934 9.28117 9.28117 0 0 0 1.82107.75877l5.91834.75877v45.52616l9.56045-.1517v-45.678h15.17536v-6.8289h-15.47892v-4.85614a18.25738 18.25738 0 0 1 .75876-5.76663 7.29125 7.29125 0 0 1 2.1246-3.79384 7.85763 7.85763 0 0 1 3.3386-2.1245 14.03122 14.03122 0 0 1 4.40082-.60706h1.66933a6.36345 6.36345 0 0 0 2.428-.15171 1.154 1.154 0 0 0 .91058-1.214l.1517-4.70443a19.85188 19.85188 0 0 0 -6.67712-1.06229 18.547 18.547 0 0 0 -7.58763 1.214z"/><path d="m479.53592 93.19116a15.99085 15.99085 0 0 0 -5.91843-4.09738 21.03123 21.03123 0 0 0 -8.04294-1.51753 29.16559 29.16559 0 0 0 -11.38155 2.12449 31.02149 31.02149 0 0 0 -9.56048 6.37368l1.66925 3.03508a4.61964 4.61964 0 0 0 1.214 1.214 3.05919 3.05919 0 0 0 1.66934.45526 3.72109 3.72109 0 0 0 2.428-.91049c.75876-.60705 1.82107-1.214 2.88336-1.97278a25.24135 25.24135 0 0 1 4.09738-1.97278 18.34274 18.34274 0 0 1 5.76663-.91058 9.17689 9.17689 0 0 1 7.89124 3.18688c1.821 2.1246 2.73154 5.15967 2.73154 9.40876v4.24909a73.95918 73.95918 0 0 0 -15.32718 1.51754 35.84852 35.84852 0 0 0 -10.16745 3.79384 15.30678 15.30678 0 0 0 -5.6149 5.15957 12.1658 12.1658 0 0 0 -1.66934 6.07015 17.63848 17.63848 0 0 0 1.21411 6.37369 13.11406 13.11406 0 0 0 3.1868 4.40089 14.27719 14.27719 0 0 0 4.70443 2.57984 20.033 20.033 0 0 0 5.91834.91047 33.47734 33.47734 0 0 0 5.6149-.607 17.063 17.063 0 0 0 4.70431-1.51755 24.42036 24.42036 0 0 0 4.24918-2.57983 39.59679 39.59679 0 0 0 4.09729-3.3386l1.06228 5.00785a2.314 2.314 0 0 0 1.06229 1.82107 6.09066 6.09066 0 0 0 2.27631.45525h4.09737v-34.14455a30.61473 30.61473 0 0 0 -1.214-8.19465 17.86322 17.86322 0 0 0 -3.64208-6.37368zm-4.24909 35.81384a20.278 20.278 0 0 1 -3.18683 3.0351 17.22782 17.22782 0 0 1 -3.49033 2.27631 20.30821 20.30821 0 0 1 -3.94565 1.36581 23.16518 23.16518 0 0 1 -4.55252.45525 27.08 27.08 0 0 1 -3.49032-.30352 9.66342 9.66342 0 0 1 -2.73163-1.51754 9.96745 9.96745 0 0 1 -1.821-2.57984 7.49542 7.49542 0 0 1 -.75876-3.642 6.65849 6.65849 0 0 1 1.36573-4.09736 9.42583 9.42583 0 0 1 4.09738-3.18689 31.99972 31.99972 0 0 1 7.43588-2.1245 67.97612 67.97612 0 0 1 11.0781-.75877z"/><path d="m393.03625 66.786a6.80288 6.80288 0 0 0 -4.70434-2.12458 7.1484 7.1484 0 0 0 -2.57983.607 6.5998 6.5998 0 0 0 -3.64213 3.642 4.98835 4.98835 0 0 0 -.607 2.57983 7.15693 7.15693 0 0 0 4.24908 6.222 4.98811 4.98811 0 0 0 2.57984.607 7.14844 7.14844 0 0 0 2.57974-.607 10.77557 10.77557 0 0 0 2.1246-1.51754 6.84238 6.84238 0 0 0 1.51752-2.12459 4.98777 4.98777 0 0 0 .607-2.57984 7.14886 7.14886 0 0 0 -.607-2.57983 6.84015 6.84015 0 0 0 -1.51748-2.12445z"/><path d="m830.54254 104.72441v-.45524c8.043-2.27631 12.14032-7.89122 12.14032-16.84464a16.545 16.545 0 0 0 -2.73157-9.257 17.43252 17.43252 0 0 0 -7.28418-6.37368v.00009a23.67891 23.67891 0 0 0 -10.16754-2.27632h-48.40948v72.69h49.16827a23.66927 23.66927 0 0 0 10.62274-2.428 19.352 19.352 0 0 0 7.58771-6.82892 17.933 17.933 0 0 0 2.88324-10.0158c.00006-10.01574-4.55255-16.0859-13.80951-18.21049zm-33.08233-19.27276h16.08587a5.1716 5.1716 0 0 1 3.79382 1.66926 5.37422 5.37422 0 0 1 1.51752 3.94566v1.06229a5.72912 5.72912 0 0 1 -1.51752 4.09737 4.932 4.932 0 0 1 -3.79382 1.66925h-16.08587zm23.06652 34.14462a5.72914 5.72914 0 0 1 -1.51751 4.09736 4.93206 4.93206 0 0 1 -3.79383 1.66935h-17.75518l-.00007-.00009v-12.59554h17.75525a5.43352 5.43352 0 0 1 3.79383 1.66925 5.72915 5.72915 0 0 1 1.51751 4.09737z"/><path d="m368.30038 132.49535-.91058.45524a10.65214 10.65214 0 0 1 -1.36572.91059 10.20312 10.20312 0 0 1 -1.82105.91047 7.70743 7.70743 0 0 1 -2.57983.45525 6.2302 6.2302 0 0 1 -4.24909-1.66927 6.722 6.722 0 0 1 -1.66934-5.00786v-32.17177h15.32723v-6.829h-15.32723v-18.514h-4.70437a2.5636 2.5636 0 0 0 -1.51755.45524 2.72716 2.72716 0 0 0 -.60706 1.36582l-2.12451 16.54113-8.8017 1.06228v3.79386a1.94839 1.94839 0 0 0 .607 1.51754 2.11858 2.11858 0 0 0 1.36581.45523h6.37369v32.7789c0 4.4009 1.0622 7.7394 3.3385 10.16753a12.66686 12.66686 0 0 0 9.71228 3.49033 18.95434 18.95434 0 0 0 7.13245-1.06229 19.42211 19.42211 0 0 0 5.91833-3.642l-2.73153-4.55263a1.744 1.744 0 0 0 -1.36573-.91059z"/><path d="m251.75336 66.1789-30.35077 75.7252h7.89122a3.72776 3.72776 0 0 0 2.2763-.75878 6.7399 6.7399 0 0 0 1.214-1.66934l7.13244-18.21047h33.99289l7.13236 18.21047a3.18223 3.18223 0 0 0 1.21411 1.66934 3.42954 3.42954 0 0 0 2.27631.75878h7.89111l-30.199-75.7252zm-8.95351 47.49893 12.1404-30.806c.30343-.91049.75877-1.97277 1.06219-3.18679s.75876-2.42812 1.06229-3.94566a55.79718 55.79718 0 0 0 2.2763 7.13245l11.8368 30.806z"/><path d="m316.24875 90.45951a25.5729 25.5729 0 0 0 -6.82892 8.80171l-.607-8.34646a3.19635 3.19635 0 0 0 -.75876-1.97279 2.71954 2.71954 0 0 0 -2.12461-.607h-5.4631v53.56913h9.56049v-34.14461a20.51539 20.51539 0 0 1 5.46315-8.34649 11.57355 11.57355 0 0 1 8.19473-2.88327 10.19716 10.19716 0 0 1 4.24909.45524 6.09041 6.09041 0 0 0 2.2763.45525 1.778 1.778 0 0 0 1.66925-1.36583l1.21412-6.98063a12.88135 12.88135 0 0 0 -3.33863-1.36582 16.39479 16.39479 0 0 0 -13.50611 2.73157z"/><path d="m573.31976 132.49535-.91046.45524a10.64681 10.64681 0 0 1 -1.36584.91059 10.20045 10.20045 0 0 1 -1.82105.91047 7.70667 7.70667 0 0 1 -2.57983.45525 5.96076 5.96076 0 0 1 -4.24909-1.66927 6.72145 6.72145 0 0 1 -1.66925-5.00786v-32.17177h15.32709v-6.829h-15.32709v-18.514h-4.7044a1.83438 1.83438 0 0 0 -1.51752.45524 2.09786 2.09786 0 0 0 -.75879 1.36582l-2.12453 16.54116-8.8017 1.06228v3.79386a1.94823 1.94823 0 0 0 .607 1.51754 2.11855 2.11855 0 0 0 1.36584.45524h6.52539v32.77886c0 4.4009 1.06232 7.7394 3.33862 10.16753a12.66665 12.66665 0 0 0 9.71222 3.49033 18.95425 18.95425 0 0 0 7.13245-1.06229 19.424 19.424 0 0 0 5.91846-3.642l-2.73157-4.55263a1.744 1.744 0 0 0 -1.36595-.91059z"/><path d="m383.62747 88.33501h9.40875v53.56909h-9.40875z"/><path d="m533.712 130.21913a2.79994 2.79994 0 0 0 -1.82105.75878c-.75879.607-1.51752 1.214-2.428 1.82106a13.64016 13.64016 0 0 1 -3.64215 1.82103 17.32368 17.32368 0 0 1 -5.61493.75877 15.7151 15.7151 0 0 1 -6.52539-1.36581 15.05889 15.05889 0 0 1 -4.85614-3.94557 17.989 17.989 0 0 1 -3.1868-6.37368 33.7562 33.7562 0 0 1 -1.06228-8.65 31.48867 31.48867 0 0 1 1.06228-8.34646 20.51853 20.51853 0 0 1 3.03507-6.37368 13.01618 13.01618 0 0 1 5.00787-4.09738 18.44961 18.44961 0 0 1 6.98071-1.36583 14.18945 14.18945 0 0 1 5.00788.60705 24.21084 24.21084 0 0 1 3.49029 1.51754 23.9269 23.9269 0 0 1 2.4281 1.51754 3.183 3.183 0 0 0 1.66925.607 1.63493 1.63493 0 0 0 1.214-.30353 5.14786 5.14786 0 0 0 .91059-.91048l-.00006.00009 2.2763-3.3386a23.85609 23.85609 0 0 0 -7.73938-5.15967 27.08663 27.08663 0 0 0 -9.864-1.82106 29.61288 29.61288 0 0 0 -10.77457 2.12459 23.085 23.085 0 0 0 -7.89114 5.76662 27.762 27.762 0 0 0 -4.85614 8.80171 38.00289 38.00289 0 0 0 .15173 22.76307 24.83355 24.83355 0 0 0 5.00787 8.65 20.23182 20.23182 0 0 0 7.436 5.31139 23.9742 23.9742 0 0 0 9.25693 1.82106 30.45619 30.45619 0 0 0 11.07816-1.97268 19.15169 19.15169 0 0 0 8.8017-6.222l-2.73157-3.49033a2.16351 2.16351 0 0 0 -1.82113-.91054z"/><path d="m647.072 96.074h-25.646v-26.556h-23.37v72.69h23.37v-27.62h25.646v27.62h23.37v-72.69h-23.37z"/><path d="m735.24115 112.61563a14.30293 14.30293 0 0 1 -3.33862 9.71219 14.36922 14.36922 0 0 1 -19.121 0 14.30289 14.30289 0 0 1 -3.33863-9.71219v-43.09813h-23.37v43.40166c0 10.01571 3.03509 17.60339 9.40875 22.76306 6.37366 5.31139 15.32709 7.89122 26.86047 7.89122s20.48676-2.73164 26.70862-7.89122 9.40875-12.74736 9.56049-22.91488v-43.40156h-23.37z"/></g></svg>