<svg enable-background="new 0 0 700.0344238 165.8787994" viewBox="0 0 700.0344238 165.8787994" xmlns="http://www.w3.org/2000/svg"><path d="m179.6524963 165.8787994h-159.3049984c-11.1911239 0-20.3474979-9.156372-20.3474979-20.3475036v-125.1837979c0-11.1911239 9.156374-20.3474979 20.3474979-20.3474979h159.3049927c11.1911373 0 20.3475094 9.156374 20.3475094 20.3474979v125.1837997c0 11.1911298-9.1563721 20.3475018-20.3475037 20.3475018z" fill="#bc2a46"/><path d="m96.6853943 62.1801224-11.4140625 5.4968262-3.3145752 1.5961914-.8186035 3.5866699-2.8190918 12.3510742-.8186035 3.5866699 2.2937012 2.8762207 7.8988037 9.9050293 2.2937012 2.8762207h3.6789551 12.6687012 3.678833l2.2938232-2.8762207 7.8989258-9.9050293 2.2937012-2.8762207-.8186035-3.5866699-2.8190918-12.3510742-.8186035-3.5866699-3.3145752-1.5961914-11.4141846-5.4968262-3.3145752-1.5961914zm14.7287598 12.3796386 2.8190918 12.3510742-7.8989258 9.9050293h-12.6687012l-7.8988037-9.9050293 2.8190918-12.3510742 11.4140625-5.4968262z" fill="#fff"/><path d="m138.1114197 42.1857376-31.5611572-15.3198242-6.5501709-3.1791992-6.5501709 3.1791992-31.5613976 15.3198242-8.4498291 4.1015625v9.3928223 38.2770996c0 12.3112793 7.3968506 23.907959 21.9852257 34.4677811 8.8873291 6.4333496 17.4945068 10.357666 18.4466553 10.7839355l6.1295166 2.7443848 6.1295166-2.7443848c.9521484-.4262695 9.5592041-4.3505859 18.4465332-10.7839355 14.5882568-10.5598221 21.9851074-22.1565018 21.9851074-34.4677811v-38.2770996-9.3928223zm-6.5501709 51.7714844c0 17.4306641-31.5611572 31.5612793-31.5611572 31.5612793s-31.5614014-14.1306153-31.5614014-31.5612793v-38.2770996l31.5614014-15.3198242 31.5611572 15.3198242z" fill="#fff"/><g fill="#344845"><path d="m230.0149231 57.177681h12.5244141v14.1748047c0 1.5742188-.2255859 3.8994141-.375 5.6240234h.2998047c.8251953-1.2744141 1.875-3.2246094 3.1494141-4.7246094l12.375-15.0742188h13.4990234l-16.4990234 19.8740234 17.3994141 30.7490234h-14.3994141l-11.6992188-21.2246094-3.75 4.5751953v16.6494141h-12.5244141z"/><path d="m275.9143372 57.177681h12.5244141v32.4736328c0 6.4501953 2.7001953 9.1494141 7.875 9.1494141 5.0996094 0 8.1738281-2.625 8.1738281-9.3740234v-32.2490235h12.1503906v32.0234375c0 11.625-7.5751953 19.5-20.6992188 19.5-12.2998047 0-20.0244141-7.2001953-20.0244141-18.375v-33.1484375z"/><path d="m325.3391418 57.177681h21.6738282c8.9248047 0 15.6738281 3 15.6738281 12.2246094 0 6.9746094-3.8242188 9.6748047-10.3496094 11.0996094v.2998047c7.4248047.9003906 11.9248047 4.7998047 11.9248047 12.375 0 9.8994141-7.125 14.6240234-16.6494141 14.6240234h-22.2734375zm17.9990235 19.4238281c3.2998047 0 6.5996094-.8994141 6.5996094-5.2490234 0-4.4248047-2.9248047-5.0996094-5.8496094-5.0996094h-6.2998047v10.3486328zm1.2001953 22.125c3.8242188 0 7.1240234-1.875 7.1240234-6.9003906 0-4.3496094-3.2998047-6.1494141-7.1240234-6.1494141h-6.75v13.0498047z"/><path d="m370.9377747 57.177681h33.5234375v9.2998047h-20.9990234v10.8740234h17.6240234v9.2998047h-17.6240234v11.8496094h21.7490234v9.2998047h-34.2734375z"/><path d="m407.6877747 57.177681h12.2988281l7.2753906 28.6494141c.8994141 3.5244141 1.125 9.5996094 1.125 9.5996094h.2998047s.2246094-6.2255859.9746094-9.4501953l6.4501953-28.7988281h11.4746094l6.5244141 28.5742188c.8251953 3.5996094 1.125 10.3496094 1.125 10.3496094h.2998047s.375-6.9003906 1.2001953-10.2001953l6.9746094-28.7236328h10.6494141l-13.1992188 50.6230469h-13.2744141l-5.1748047-21.7490234c-.9755859-3.9746094-1.5-10.9492188-1.5-10.9492188h-.2998047s-.4501953 6.9746094-1.4257812 10.9492188l-5.1748047 21.7490234h-13.4238281z"/><path d="m489.662384 57.177681h12.6738281l17.0995789 50.6230469h-12.6747742l-3.1494141-9.5996094h-16.9492187l-3.0751953 9.5996094h-10.9492187zm0 31.7236328h10.8740234l-3.4492188-10.6494141c-1.2001953-3.5996094-1.7255859-8.6992188-1.7255859-8.6992188h-.2998047s-.75 5.1748047-1.875 8.6240234z"/><path d="m524.0871582 57.177681h20.8486328c9.8994141 0 16.5742188 4.7998047 16.5742188 14.0996094 0 7.5742188-5.1748047 12.1494141-10.1992188 13.7246094 1.5 1.2744141 2.625 3 3.5244141 4.7998047 2.1005859 4.2744141 3.5253906 8.9990234 7.9501953 8.9990234 1.125 0 2.0244141-.375 2.0244141-.375l-.9746094 8.9248047s-2.7001953.6748047-5.0244141.6748047c-6 0-9.4501953-2.3242188-12.9746094-10.3496094-1.5-3.5996094-3.6005859-9.8994141-6.375-9.8994141h-2.8496094v20.0244141h-12.5244141v-50.6230469zm12.5244141 9.0751953v12.4492187h4.4990234c3.6005859 0 7.7998047-1.125 7.7998047-6.5253906 0-4.4248047-2.8496094-5.9238281-6.2998047-5.9238281z"/><path d="m570.0617676 57.177681h19.3486328c12.5996094 0 22.3496094 7.3496094 22.3496094 25.0488281 0 17.3242188-9.2998047 25.5742188-22.3496094 25.5742188h-19.3486328zm18.1484375 41.5488281c5.5498047 0 10.875-3.375 10.875-16.5 0-13.0488281-5.3251953-15.9736328-10.875-15.9736328h-5.6240234v32.4736328z"/><path d="m618.661377 57.177681h33.5234375v9.2998047h-20.9990235v10.8740234h17.6240234v9.2998047h-17.6240234v11.8496094h21.7490234v9.2998047h-34.2734374z"/><path d="m659.4611816 57.177681h13.4238281l13.2744141 25.1240234c1.125 2.1748047 2.625 6 3.8251953 9h.2998047c-.1494141-2.8505859-.5244141-6.9003906-.5244141-9.8251953v-24.2988281h10.2744141v50.6230469h-13.125l-13.7988281-25.0488281c-1.2753906-2.25-2.625-5.5498047-3.6748047-8.25h-.3007812c.2255859 2.8496094.6005859 6.2246094.6005859 9v24.2988281h-10.2744141z"/></g></svg>