<svg fill="none" viewBox="0 0 1475 671" xmlns="http://www.w3.org/2000/svg" xmlns:xlink="http://www.w3.org/1999/xlink"><path id="a" d="m302.5 393.26c0 25.41-16.92 38.92-44.28 38.92s-42.4-16.01-42.4-38.92c0 0 15.04 21.23 42.4 21.23s44.27-21.23 44.27-21.23z" fill="#fff"/><g fill="#000"><path clip-rule="evenodd" d="m877 284.5c0 17.42-1 85.5-1 85.5-5 25.5-32.5 31-45 10.5-1.5-2.46-5.5-3.5-8.15-1.5a108.99 108.99 0 0 1 -55.35 15c-60.48 0-109.5-49.02-109.5-109.5 0-60.47 49.02-109.5 109.5-109.5s109.5 49.03 109.5 109.5zm-50 .5a60 60 0 1 1 -120 0 60 60 0 0 1 120 0z" fill-rule="evenodd"/><path d="m894.5 369.5c0 33 48 29.5 48 0 0 0-1-76.5 1-94 6-30 23-48.5 60-51.5 28.67-2.32 35.5-43 0-47.5-59-1.5-104 44-109 99-1 31 0 94 0 94z"/><path clip-rule="evenodd" d="m1239 284.5v84.5c0 1.31.04 2.88.08 4.7.49 19.55 1.66 66.26-39.08 98.3-77 64.5-163 1-171-39-6.5-29 29.32-41 43-19.5 17.5 27.5 41.29 39.75 68 35.86 26-3.8 49-24.71 49-68.86 0-2.5-2.23-3.5-4.9-1.93a108.5 108.5 0 0 1 -55.1 14.93c-60.2 0-109-48.8-109-109s48.8-109 109-109 110 48.8 110 109zm-110 59.5a60 60 0 1 0 0-120 60 60 0 0 0 0 120zm236.5-169c60.48 0 109.5 49.03 109.5 109.5 0 60.48-49.02 109.5-109.5 109.5s-109.5-49.02-109.5-109.5c0-60.47 49.02-109.5 109.5-109.5zm59.5 110a60 60 0 1 1 -120 0 60 60 0 0 1 120 0z" fill-rule="evenodd"/></g><path d="m260.98 495.03c135.3 0 244.97-109.7 244.97-245.01 0-135.32-109.68-245.02-244.97-245.02-135.3 0-244.98 109.7-244.98 245.01 0 135.32 109.68 245.02 244.98 245.02z" fill="#e2f5fc"/><path d="m260.98 455.02c110.59 0 200.24-89.67 200.24-200.27 0-110.61-89.65-200.27-200.24-200.27-110.6 0-200.24 89.66-200.24 200.27 0 110.6 89.65 200.27 200.24 200.27z" fill="#cdecf6"/><path d="m186.09 79.31a11.83 11.83 0 1 0 0-23.65 11.83 11.83 0 0 0 0 23.65zm-88.01 296.74a4.1 4.1 0 1 0 6.45-5.05c-80-102.2-33.85-234.65 56.95-286.64a4.1 4.1 0 0 0 -4.07-7.1c-94.42 54.05-142.9 192.04-59.33 298.78z" fill="#fff"/><path clip-rule="evenodd" d="m17.43 304.54a9.73 9.73 0 0 1 -17.43-5.95v-95.54a9.73 9.73 0 0 1 17.21-6.22c24.44-112.26 124.37-196.33 243.94-196.33 119.43 0 219.27 83.87 243.85 195.94a9.73 9.73 0 0 1 16.87 6.6v95.55a9.73 9.73 0 0 1 -17.1 6.36c-24.96 111.55-124.55 194.92-243.62 194.92-119.22 0-218.91-83.57-243.72-195.33zm2.03-32.62c10.99 123.85 115 220.95 241.69 220.95 125.2 0 228.25-94.83 241.26-216.6v-52.17c-13-121.76-116.06-216.6-241.26-216.6-126.69 0-230.7 97.1-241.69 220.96v43.46z" fill="#b5d2f3" fill-rule="evenodd"/><path d="m153.75 617.82c11.25-4.58 8.97-9.15 8.97-11.44l-5.5-83.08-4.8-41.57-7.3-259.5c0-61.59 45.57-119.14 114.35-119.14 68.77 0 117.45 55.4 117.55 119.2-1.98 123.2-5.3 170.08-9.94 258.55-.57 12.09-2.13 30.4-2.66 41.57-2.58 55.36-5.51 82.48-5.51 83.97 0 2.29-2.29 6.86 8.96 11.44s37.24 10.51 37.24 11.96-43.91 0-43.91 0c-25.17 0-25.17-18.82-25.17-23.4s-6.87-83.13-6.87-83.13l-2.28 101.44c0 4.57 2.28 11.44 18.3 16.01 0 0 34.95 5.29 34.95 7.2 0 1.9-41.81 0-41.81 0-31.84 0-31.84-18.64-31.84-18.64l-6.87-83.13s-2.29 83.13-2.29 94.57c0 8.97 1.56 15.83 26.54 20.4 12.06 3.36 36.41 7.5 36.41 9.16s-55.56 0-55.56 0c-29.75-2.29-32.55-22.88-32.55-22.88l-11.28-41.42-11.22 41.42s-4.58 20.6-34.32 22.88c0 0-50.45 1.66-50.45 0s20.21-5.37 33.07-9.15c17.38-5.11 26.53-11.44 26.53-20.4 0-11.45-2.29-94.58-2.29-94.58l-6.86 83.13s0 20.4-31.84 20.4c0 0-45.36.15-45.36-1.76s38.3-7.2 38.3-7.2c16.02-4.57 18.3-11.44 18.3-16.01l-2.28-101.44s-6.87 78.55-6.87 83.13 0 25.17-25.16 25.17c0 0-42.34-2.1-42.34-3.54s24.41-5.61 35.66-10.19z" fill="#fe733e"/><path d="m152.41 481.73s-4.7 11.5-15.31 17.68c-10.61 6.2-22.92 8.2-34.5 9.73 0 0 15.93 7.97 35.39 6.2 12.19-.98 17.32 2.11 19.24 7.96zm214.67-.89s6.86 11.5 17.47 17.69c10.62 6.2 22.92 8.2 34.5 9.73 0 0-15.93 7.96-35.38 6.2-12.2-.99-17.33 2.1-19.25 7.95z" fill="#fe6446"/><path d="m367.2 478.9.9-14.4c-56.2 26.53-108.42 23.74-108.42 23.74s-52.54 2.19-107.72-23.86l.35 13.98s39.37 24.19 107.37 24.19c67.99 0 107.53-23.66 107.53-23.66z" fill="#fe6446" opacity=".3"/><path d="m214.48 174.8a16.02 16.02 0 1 0 0-32.04 16.02 16.02 0 0 0 0 32.03z" fill="#fea777" opacity=".5"/><path d="m376.8 224s1.7-20.06-7.07-43.94c-24.05-65.55-83.15-78.74-114.99-76.88 0 0 45.16 21.32 47.25 89.6.96 30.26.96 31.21.96 31.21h73.86z" fill="#fe6b3c"/><use xlink:href="#a"/><use xlink:href="#a"/><path d="m302.5 393.26c0 25.41-10.24 65.46-44.28 65.46s-42.4-42.55-42.4-65.46c0 0 0 38.92 42.4 38.92 46.36 0 44.27-38.92 44.27-38.92z" fill="#fff"/><path d="m302.5 393.26c0 25.41-10.24 65.46-44.28 65.46s-42.4-42.55-42.4-65.46c0 0 0 38.92 42.4 38.92 46.36 0 44.27-38.92 44.27-38.92z" fill="#070909"/><path d="m177.79 354.33a69.88 69.88 0 0 0 69.88-69.89 69.88 69.88 0 1 0 -139.76 0 69.88 69.88 0 0 0 69.88 69.9z" fill="#fe6446"/><path d="m177.6 340.03a54.72 54.72 0 1 0 0-109.45 54.72 54.72 0 0 0 0 109.45z" fill="#fff"/><path d="m176.02 292.4a16.8 16.8 0 1 0 0-33.6 16.8 16.8 0 0 0 0 33.6z" fill="#090b0b"/><path d="m342.31 354.33a69.88 69.88 0 0 0 69.88-69.89 69.88 69.88 0 1 0 -139.76 0 69.88 69.88 0 0 0 69.88 69.9z" fill="#fe6446"/><path d="m339.54 339.94a54.72 54.72 0 1 0 -.01-109.45 54.72 54.72 0 0 0 0 109.45z" fill="#fff"/><path d="m340.54 292.4a16.8 16.8 0 1 0 0-33.61 16.8 16.8 0 0 0 0 33.61z" fill="#090b0b"/></svg>