<svg fill="none" height="80" viewBox="0 0 470 80" width="470" xmlns="http://www.w3.org/2000/svg"><g fill="#231f20"><path d="m62.61 56.5h-28.36c-6.6967 0-13.1191-2.6603-17.8544-7.3956-4.7353-4.7352-7.3956-11.1577-7.3956-17.8544s2.6603-13.1192 7.3956-17.8544c4.7353-4.7353 11.1577-7.3956 17.8544-7.3956h28.36c6.6967 0 13.1192 2.6603 17.8545 7.3956 4.7353 4.7352 7.3955 11.1577 7.3955 17.8544s-2.6602 13.1192-7.3955 17.8544c-4.7353 4.7353-11.1578 7.3956-17.8545 7.3956zm.11-43.85c-3.6787 0-7.2748 1.0909-10.3336 3.1347-3.0587 2.0438-5.4428 4.9487-6.8505 8.3474-1.4078 3.3987-1.7762 7.1385-1.0585 10.7466.7177 3.608 2.4892 6.9222 5.0904 9.5235 2.6013 2.6012 5.9155 4.3727 9.5235 5.0904 3.6081.7177 7.3479.3493 10.7466-1.0584 3.3987-1.4078 6.3037-3.7918 8.3474-6.8506 2.0438-3.0588 3.1347-6.6549 3.1347-10.3336.0013-2.4463-.4802-4.8689-1.417-7.1287-.9367-2.2599-2.3103-4.3126-4.042-6.0406s-3.7874-3.0971-6.0492-4.029c-2.2619-.932-4.6855-1.4083-7.1318-1.4017z"/><path d="m107.68 19.19c2.621-1.5 5.601-2.2572 8.62-2.19 3.221-.0375 6.391.8026 9.17 2.43 2.752 1.6238 4.993 3.9865 6.47 6.82 1.625 3.1535 2.436 6.6632 2.36 10.21.065 3.5617-.745 7.0849-2.36 10.26-1.453 2.8906-3.691 5.3138-6.456 6.9921-2.766 1.6783-5.949 2.544-9.184 2.4979-2.995.0604-5.95-.693-8.55-2.18-2.312-1.3072-4.256-3.1787-5.65-5.44v25h-6.3v-55.96h6.3v7c1.348-2.2733 3.273-4.1499 5.58-5.44zm18.45 9.79c-1.069-2.0276-2.692-3.7096-4.68-4.85-1.975-1.1074-4.206-1.6796-6.47-1.66-2.247-.0146-4.457.5724-6.4 1.7-1.995 1.168-3.626 2.8681-4.71 4.91-1.17 2.3268-1.78 4.8953-1.78 7.5 0 2.6046.61 5.1731 1.78 7.5 1.084 2.0419 2.715 3.742 4.71 4.91 1.943 1.1276 4.153 1.7146 6.4 1.7 2.27.0198 4.503-.5671 6.47-1.7 1.991-1.1635 3.613-2.8655 4.68-4.91 1.197-2.3439 1.792-4.9489 1.73-7.58.067-2.6125-.528-5.1996-1.73-7.52z"/><path d="m174.31 38.95h-30.32c0 1.5987.323 3.1811.947 4.6528s1.539 2.8028 2.688 3.914c1.15 1.1112 2.511 1.9798 4.003 2.5542 1.492.5743 3.084.8426 4.682.789 2.416.0852 4.799-.5822 6.82-1.91 1.797-1.2365 3.144-3.0225 3.84-5.09h6.78c-.957 3.5737-3.106 6.7136-6.09 8.9-3.301 2.3644-7.292 3.5704-11.35 3.43-3.395.0512-6.743-.8013-9.7-2.47-2.835-1.6119-5.152-3.9985-6.68-6.88-1.663-3.1922-2.495-6.7516-2.42-10.35-.081-3.5813.726-7.127 2.35-10.32 1.494-2.8669 3.791-5.2366 6.61-6.82 3.004-1.6324 6.381-2.456 9.8-2.39 3.335-.0654 6.629.7486 9.55 2.36 2.706 1.506 4.929 3.7497 6.41 6.47 1.528 2.862 2.302 6.066 2.25 9.31.011 1.2854-.046 2.5705-.17 3.85zm-7.89-11.32c-1.037-1.7028-2.539-3.0733-4.33-3.95-1.887-.9154-3.962-1.3777-6.06-1.35-2.994-.0795-5.905.9945-8.13 3-2.326 2.2133-3.702 5.2424-3.84 8.45h23.95c.05-2.1577-.501-4.2869-1.59-6.15z"/><path d="m209.82 21.12c2.86 2.8 4.29 6.8266 4.29 12.08v22.36h-6.23v-21.46c0-3.78-.94-6.68-2.83-8.68-1.009-1.0194-2.221-1.8137-3.559-2.3307-1.337-.5171-2.769-.7452-4.201-.6693-1.466-.0706-2.93.1711-4.295.709-1.366.5379-2.601 1.3597-3.625 2.411-2 2.08-2.983 5.1033-2.95 9.07v21h-6.3v-37.98h6.3v5.4c1.251-1.9395 3.012-3.4965 5.09-4.5 2.211-1.0748 4.642-1.6192 7.1-1.59 2.053-.088 4.103.2365 6.028.9545 1.926.7179 3.688 1.8147 5.182 3.2255z"/><path d="m249.01 7.31006v5.13004h-21v16.28h17v5.13h-17v21.73h-6.3v-48.27004z"/><path d="m288.33 38.95h-30.33c.003 1.5988.327 3.1807.953 4.6519.627 1.4711 1.542 2.8015 2.692 3.9123s2.511 1.9793 4.003 2.5541c1.492.5747 3.084.8439 4.682.7917 2.416.0852 4.799-.5822 6.82-1.91 1.797-1.2365 3.144-3.0225 3.84-5.09h6.78c-.957 3.5738-3.105 6.7136-6.09 8.9-3.302 2.363-7.292 3.5689-11.35 3.43-3.378.0563-6.711-.7821-9.66-2.43-2.838-1.6088-5.156-3.9961-6.68-6.88-1.653-3.1942-2.472-6.7545-2.38-10.35-.081-3.5813.726-7.127 2.35-10.32 1.492-2.8689 3.789-5.2394 6.61-6.82 3.004-1.6337 6.381-2.4573 9.8-2.39 3.335-.0653 6.629.7486 9.55 2.36 2.704 1.5087 4.927 3.7517 6.41 6.47 1.52 2.8647 2.291 6.0674 2.24 9.31-.014 1.2733-.094 2.545-.24 3.81zm-7.9-11.32c-1.036-1.6898-2.536-3.0468-4.32-3.91-1.888-.9143-3.963-1.3765-6.06-1.35-2.995-.0805-5.905.9936-8.13 3-2.325 2.2148-3.704 5.2423-3.85 8.45h24c.047-2.1766-.521-4.3223-1.64-6.19z"/><path d="m294.14 26.25c1.477-2.8335 3.718-5.1962 6.47-6.82 2.782-1.6287 5.956-2.4688 9.18-2.43 3.024-.0728 6.012.6699 8.65 2.15 2.283 1.2654 4.175 3.1333 5.47 5.4v-6.92h6.37v37.93h-6.37v-7.06c-1.331 2.3013-3.254 4.2039-5.57 5.51-2.624 1.4909-5.603 2.2441-8.62 2.18-3.208.0418-6.363-.8138-9.11-2.47-2.749-1.6976-4.977-4.1195-6.44-7-1.609-3.1699-2.416-6.6859-2.35-10.24-.092-3.5502.705-7.067 2.32-10.23zm28 2.8c-1.067-2.0334-2.685-3.7248-4.67-4.88-1.973-1.1017-4.195-1.6801-6.455-1.6801s-4.482.5784-6.455 1.6801c-1.974 1.1454-3.583 2.8271-4.64 4.85-1.201 2.3067-1.796 4.8804-1.73 7.48-.066 2.6316.529 5.2377 1.73 7.58 1.055 2.0398 2.663 3.7414 4.64 4.91 1.951 1.1365 4.173 1.7239 6.43 1.7 2.273.0201 4.51-.5668 6.48-1.7 1.99-1.1616 3.61-2.8642 4.67-4.91 1.192-2.3204 1.787-4.9017 1.73-7.51.08-2.6091-.502-5.1959-1.69-7.52z"/><path d="m345.92 22.8201v22.36c-.07.6973-.002 1.4016.201 2.0725.202.6709.535 1.2953.979 1.8375.78.76 2.15 1.14 4.09 1.14h4.63v5.33h-5.67c-3.51 0-6.14-.8-7.9-2.42s-2.63-4.27-2.63-8v-22.32h-4.91v-5.19h4.9v-9.56003h6.3v9.56003h9.9v5.19z"/><path d="m394.38 17.63v37.93h-6.3v-5.6c-1.207 1.9504-2.94 3.5205-5 4.53-2.201 1.0967-4.631 1.6553-7.09 1.63-2.777.0539-5.525-.5781-8-1.84-2.372-1.2294-4.316-3.1465-5.58-5.5-1.419-2.7568-2.107-5.8313-2-8.93v-22.22h6.2v21.39c0 3.74.947 6.6133 2.84 8.62 1.006 1.0196 2.217 1.8142 3.553 2.3313s2.767.7451 4.197.6687c1.479.0814 2.958-.1549 4.338-.6931 1.38-.5381 2.629-1.3657 3.662-2.4269 1.93-2.07 2.9-5.1 2.9-9.07v-20.82z"/><path d="m413.39 18.72c2.295-1.2665 4.89-1.8884 7.51-1.8v6.5h-1.66c-7.073 0-10.607 3.83-10.6 11.49v20.63h-6.3v-37.91h6.27v6.16c1.06-2.1235 2.723-3.8872 4.78-5.07z"/><path d="m459.87 38.95h-30.32c0 1.5987.322 3.1811.947 4.6528.624 1.4717 1.539 2.8028 2.688 3.914 1.15 1.1112 2.511 1.9798 4.003 2.5542 1.492.5743 3.084.8426 4.682.789 2.417.0878 4.801-.5798 6.82-1.91 1.801-1.2322 3.15-3.0198 3.84-5.09h6.79c-.964 3.5704-3.111 6.708-6.09 8.9-3.305 2.3644-7.299 3.5703-11.36 3.43-3.375.0579-6.705-.7807-9.65-2.43-2.838-1.6088-5.156-3.9962-6.68-6.88-1.671-3.1896-2.507-6.7502-2.43-10.35-.078-3.5822.733-7.1279 2.36-10.32 1.488-2.8713 3.787-5.2427 6.61-6.82 3.001-1.6324 6.375-2.4561 9.79-2.39 3.338-.0643 6.635.7495 9.56 2.36 2.704 1.5062 4.923 3.7501 6.4 6.47 1.528 2.862 2.302 6.066 2.25 9.31-.004 1.2728-.074 2.5445-.21 3.81zm-7.89-11.32c-1.048-1.6981-2.566-3.0562-4.37-3.91-1.869-.9067-3.923-1.3687-6-1.35-2.998-.0811-5.912.9929-8.14 3-2.326 2.2133-3.702 5.2424-3.84 8.45h24c.039-2.177-.532-4.3214-1.65-6.19z"/></g></svg>