<svg height="106" viewBox="0 0 359 106" width="359" xmlns="http://www.w3.org/2000/svg"><g fill="none" fill-rule="evenodd"><path d="m136.167 78v-32.109h7.546v-5.082h-7.546v-2.849c0-4.774 2.079-7.315 5.929-7.315 1.386 0 2.387.308 3.311.847l1.463-4.389c-1.54-.847-3.465-1.232-5.698-1.232-6.391 0-10.78 4.389-10.78 12.089v2.849h-6.16v5.082h6.16v32.109zm20.251 0v-51.359h-5.775v51.359zm-20.251 0v-32.109h7.546v-5.082h-7.546v-2.849c0-4.774 2.079-7.315 5.929-7.315 1.386 0 2.387.308 3.311.847l1.463-4.389c-1.54-.847-3.465-1.232-5.698-1.232-6.391 0-10.78 4.389-10.78 12.089v2.849h-6.16v5.082h6.16v32.109zm20.251 0v-51.359h-5.775v51.359zm22.484.924c5.005 0 9.317-1.771 12.32-5.159v4.235h5.775v-25.564c0-9.009-6.468-12.551-14.399-12.551-6.083 0-10.857 2.002-14.861 6.16l2.695 4.004c3.311-3.619 6.93-5.159 11.396-5.159 5.39 0 9.394 2.849 9.394 7.777v6.699c-3.003-3.388-7.238-5.005-12.32-5.005-6.314 0-12.936 3.85-12.936 12.243 0 8.085 6.699 12.32 12.936 12.32zm2.156-4.158c-5.467 0-9.24-3.388-9.24-8.162 0-4.697 3.773-8.085 9.24-8.085 4.004 0 7.931 1.54 10.164 4.543v7.084c-2.233 3.08-6.16 4.62-10.164 4.62zm42.504 18.326c9.086 0 17.787-3.85 17.787-15.631v-36.652h-5.775v5.621c-3.003-4.081-7.546-6.545-12.551-6.545-9.779 0-16.555 7.392-16.555 19.327 0 12.012 6.853 19.25 16.555 19.25 5.236 0 9.779-2.849 12.551-6.622v5.621c0 7.854-5.852 10.857-12.012 10.857-5.313 0-9.009-1.386-12.089-5.005l-2.926 4.158c4.466 4.389 8.778 5.621 15.015 5.621zm.924-19.789c-7.546 0-12.012-5.929-12.012-14.091 0-8.239 4.466-14.168 12.012-14.168 4.543 0 9.009 2.772 11.088 5.929v16.324c-2.079 3.234-6.545 6.006-11.088 6.006zm43.351 19.789c9.086 0 17.787-3.85 17.787-15.631v-36.652h-5.775v5.621c-3.003-4.081-7.546-6.545-12.551-6.545-9.779 0-16.555 7.392-16.555 19.327 0 12.012 6.853 19.25 16.555 19.25 5.236 0 9.779-2.849 12.551-6.622v5.621c0 7.854-5.852 10.857-12.012 10.857-5.313 0-9.009-1.386-12.089-5.005l-2.926 4.158c4.466 4.389 8.778 5.621 15.015 5.621zm.924-19.789c-7.546 0-12.012-5.929-12.012-14.091 0-8.239 4.466-14.168 12.012-14.168 4.543 0 9.009 2.772 11.088 5.929v16.324c-2.079 3.234-6.545 6.006-11.088 6.006zm45.276 5.621c6.006 0 11.011-2.079 14.784-5.775l-2.772-3.773c-3.003 3.08-7.238 4.774-11.55 4.774-8.008 0-12.859-5.852-13.321-12.859h30.03v-1.463c0-11.165-6.622-19.943-17.864-19.943-10.626 0-18.326 8.701-18.326 19.481 0 11.627 7.931 19.558 19.019 19.558zm11.473-21.945h-24.409c.308-5.621 4.235-12.32 12.166-12.32 8.47 0 12.166 6.853 12.243 12.32zm20.79 21.021v-26.334c1.694-3.003 6.545-5.929 10.164-5.929.847 0 1.54.077 2.233.154v-5.929c-5.082 0-9.394 2.926-12.397 6.776v-5.929h-5.775v37.191z" fill="#1a1a1a" fill-rule="nonzero"/><g fill="#7bb09f" transform="translate(.036697 .5)"><path d="m53.9358922.7.0002692.0149.0007754.2187c.0000835.0384.0001661.0814.0002479.1289l.000713.5463c.0000767.0736.0001526.1514.0002277.2333l.0008614 1.1732c.0000686.1131.0001364.2299.0002035.3503l.0007674 1.6112c.0000609.1476.0001211.2984.0001806.4523l.0008379 2.5285c.0000523.1824.000104.3674.0001549.5549l.0008461 3.6234c.0000432.2139.0000857.4297.0001276.6473l.000892 5.5168c.0000326.24.0000647.481.0000962.7229l.000859 8.1763c.0000208.2496.0000413.499.0000613.7481l.0009408 22.7527c-.5570324.0014777-1.1144661-.161079-1.6012287-.488049l-32.7123679-21.9816011c-.1328605-.0893084-.2557565-.1869966-.368688-.2918071l-17.86189381 11.7614572c-1.86770092-1.1678397-1.86770092-3.796713 0-4.9635656l31.80522431-20.6894344 19.1377254-12.85931405c.484123-.32519689 1.0381528-.48768595 1.5921668-.48768595z"/><path d="m53.9449541 53.7c.5735909-.0026151 1.147801.1599359 1.6490357.4878202l33.5299643 21.9401487 16.5081319-10.4279689c1.726026 1.1668656 1.726026 3.7957682 0 4.963621l-32.2438565 20.9400377c-.0195437.0132142-.0394515.0154607-.0596207.0076726l-17.734619 11.6009807c-.4845395.316963-1.0372741.479423-1.5917207.487688l-.0002678-.2336c-.000044-.0384-.0000933-.0814-.0001478-.1289l-.0008936-.7796c-.0000939-.0819-.0001925-.1679-.0002956-.2579l-.0006731-.5872c-.0045999-4.0128-.0154898-13.5128-.0263796-23.0128l-.0017185-1.4992c-.0091557-7.9872-.0180767-15.7696-.0230067-20.0704l-.0008767-.7648c-.000414-.3612-.0007909-.69-.0011276-.9837l-.0008862-.7731c-.0000844-.0736-.0001639-.143-.0002386-.2081z"/><g transform="translate(17.363303)"><path d="m40.0825271 2.57811824c-.7723296-.39405052-2.171145-1.80578492-3.5232592-1.76275554-1.1713421 0-1.6294314.49326477-3.5239568 1.76275554 2.6349948 1.15247825 12.3919503 4.59158738 15.1216216 5.36228176-4.3424023-2.93560091-7.0338708-4.72302817-8.0744056-5.36228176z"/><path d="m29.6177773 4.85830684-3.003012 1.96055209c2.860282 1.94843436 5.5967901 3.46573147 8.2095244 4.55189127 5.3099016 2.20742 12.0598852 3.628825 13.5993273 4.0100161 8.7385753 2.1640245 16.9921177 4.2067674 23.6288839 10.8732459.3373274.3377843.6536966.6825849.9670717 1.0283878.6806428-1.3060324.3393234-3.0300353-1.0219622-3.9180972l-13.1308171-8.5749096c-3.1876438-1.0564529-6.4351682-1.8643287-9.6447683-2.6581719-3.0269642-.7497407-8.1440548-2.0820292-11.0063474-3.00116329-1.908195-.61275605-4.7741618-2.03667311-8.5979003-4.27175117z"/><path d="m29.7315665 14.094497c-2.1734192-.9990569-4.5525751-2.527562-7.1374678-4.58551536l-2.8326898 1.92020696c2.9189451 2.4437444 5.4068748 4.1661558 7.4637891 5.167234 3.0853715 1.5016174 14.8579923 4.718569 15.5869224 4.8984943 8.7431672 2.1571043 16.724475 3.7612401 23.3657274 10.4096062.0109838.0118682 2.7993654-1.6731814 2.6196292-1.8521071-7.2972894-7.3059662-16.3854468-9.627055-25.1865291-11.799153-1.0045256-.247897-10.6192526-2.6601807-13.8793814-4.158766z"/><path d="m40.2748943 27.6858128c6.9667834 1.7719511 13.5176547 3.8904795 19.0668793 8.7585872l2.9286726-1.875123c-6.3408255-5.8716451-13.4629544-8.7068461-21.4841875-10.2075255-7.1905967-1.3452769-11.9096276-3.0129763-17.2792007-5.1157739-3.5797154-1.4018651-6.3989462-2.9438737-8.4576926-4.6260258l-2.9449431 1.8861413c3.3917067 2.6483118 6.4479607 4.5351752 9.1687622 5.6605902 3.5924993 1.4859786 9.9264026 3.3256885 19.0017098 5.5191295z"/><path d="m5.18885131 21.1343855c.10182293.1029403.1944818.2098782.29935942.3118191 7.44223797 7.3047598 16.34181267 9.4113929 25.31750397 11.5831323 7.7731626 1.8799087 14.837033 3.4390219 21.0930338 8.271217l2.9856552-1.9458413c-7.0481833-5.824619-15.1152164-7.594639-23.2641055-9.565495-8.8260117-2.1357603-16.7847424-4.0225209-23.52134753-10.5117542z"/><path d="m1.86538962 23.4720365c-1.30646737 1.3566253-1.15306023 3.6956343.48528796 4.7996465l9.91732062 6.6854076c4.3896502 1.8836819 7.7568391 2.7998663 12.2708192 3.9537775 7.046702 1.8005171 13.7137197 3.2850856 19.5461992 7.4713919l2.8414646-1.9425877c-6.6316003-5.1686901-14.103678-6.9873063-21.5865376-8.9000959-8.7782977-2.2433695-15.84731121-4.1003554-22.51600999-11.014466-.33388614-.3461734-.64771905-.6985841-.95854399-1.0530739z"/><path d="m34.1645854 49.6645268c.7289206.3988763.9779758.844172 2.0150848 1.0354732.7508531 0 1.578913-.040127 2.2556036-.46582l1.656794-1.0415482c-5.3227004-3.4431904-10.8473674-5.4339816-16.7449554-6.8867435z"/></g><g transform="translate(17.363303 53)"><path d="m40.0825271 2.57811824c-.7723296-.39405052-2.171145-1.80578492-3.5232592-1.76275554-1.1713421 0-1.6294314.49326477-3.5239568 1.76275554 2.6349948 1.15247825 12.3919503 4.59158738 15.1216216 5.36228176-4.3424023-2.93560091-7.0338708-4.72302817-8.0744056-5.36228176z"/><path d="m29.6177773 4.85830684-3.003012 1.96055209c2.860282 1.94843436 5.5967901 3.46573147 8.2095244 4.55189127 5.3099016 2.20742 12.0598852 3.628825 13.5993273 4.0100161 8.7385753 2.1640245 16.9921177 4.2067674 23.6288839 10.8732459.3373274.3377843.6536966.6825849.9670717 1.0283878.6806428-1.3060324.3393234-3.0300353-1.0219622-3.9180972l-13.1308171-8.5749096c-3.1876438-1.0564529-6.4351682-1.8643287-9.6447683-2.6581719-3.0269642-.7497407-8.1440548-2.0820292-11.0063474-3.00116329-1.908195-.61275605-4.7741618-2.03667311-8.5979003-4.27175117z"/><path d="m29.7315665 14.094497c-2.1734192-.9990569-4.5525751-2.527562-7.1374678-4.58551536l-2.8326898 1.92020696c2.9189451 2.4437444 5.4068748 4.1661558 7.4637891 5.167234 3.0853715 1.5016174 14.8579923 4.718569 15.5869224 4.8984943 8.7431672 2.1571043 16.724475 3.7612401 23.3657274 10.4096062.0109838.0118682 2.7993654-1.6731814 2.6196292-1.8521071-7.2972894-7.3059662-16.3854468-9.627055-25.1865291-11.799153-1.0045256-.247897-10.6192526-2.6601807-13.8793814-4.158766z"/><path d="m40.2748943 27.6858128c6.9667834 1.7719511 13.5176547 3.8904795 19.0668793 8.7585872l2.9286726-1.875123c-6.3408255-5.8716451-13.4629544-8.7068461-21.4841875-10.2075255-7.1905967-1.3452769-11.9096276-3.0129763-17.2792007-5.1157739-3.5797154-1.4018651-6.3989462-2.9438737-8.4576926-4.6260258l-2.9449431 1.8861413c3.3917067 2.6483118 6.4479607 4.5351752 9.1687622 5.6605902 3.5924993 1.4859786 9.9264026 3.3256885 19.0017098 5.5191295z"/><path d="m5.18885131 21.1343855c.10182293.1029403.1944818.2098782.29935942.3118191 7.44223797 7.3047598 16.34181267 9.4113929 25.31750397 11.5831323 7.7731626 1.8799087 14.837033 3.4390219 21.0930338 8.271217l2.9856552-1.9458413c-7.0481833-5.824619-15.1152164-7.594639-23.2641055-9.565495-8.8260117-2.1357603-16.7847424-4.0225209-23.52134753-10.5117542z"/><path d="m1.86538962 23.4720365c-1.30646737 1.3566253-1.15306023 3.6956343.48528796 4.7996465l9.91732062 6.6854076c4.3896502 1.8836819 7.7568391 2.7998663 12.2708192 3.9537775 7.046702 1.8005171 13.7137197 3.2850856 19.5461992 7.4713919l2.8414646-1.9425877c-6.6316003-5.1686901-14.103678-6.9873063-21.5865376-8.9000959-8.7782977-2.2433695-15.84731121-4.1003554-22.51600999-11.014466-.33388614-.3461734-.64771905-.6985841-.95854399-1.0530739z"/><path d="m34.1645854 49.6645268c.7289206.3988763.9779758.844172 2.0150848 1.0354732.7508531 0 1.578913-.040127 2.2556036-.46582l1.656794-1.0415482c-5.3227004-3.4431904-10.8473674-5.4339816-16.7449554-6.8867435z"/></g></g></g></svg>