<svg fill="none" height="98" viewBox="0 0 413 98" width="413" xmlns="http://www.w3.org/2000/svg" xmlns:xlink="http://www.w3.org/1999/xlink"><linearGradient id="a" gradientUnits="userSpaceOnUse" x1="220.752" x2="32.3503" y1="170.012" y2="-10.0163"><stop offset="0" stop-color="#00dba6"/><stop offset="1" stop-color="#24b2ff"/></linearGradient><path clip-rule="evenodd" d="m30.941 24.3082c4.5253-2.6127 6.8119-7.6139 6.1868-12.4918 2.6051-.5453 5.3052-.832 8.0723-.832 21.6496 0 39.2001 17.5504 39.2001 39.2001 0 9.6851-3.5124 18.5498-9.3328 25.3899-3.9383-3.4836-9.8126-4.2412-14.617-1.4673-5.0393 2.9095-7.3025 8.7808-5.86 14.1456-3.0085.7396-6.1536 1.1318-9.3903 1.1318-21.6496 0-39.2001-17.5504-39.2001-39.2 0-10.4522 4.0908-19.949 10.7586-26.9766 3.927 3.1667 9.5517 3.7739 14.1824 1.1003zm26.679 69.3486c-3.9461 1.1253-8.1127 1.7277-12.4199 1.7277-24.9633 0-45.2001-20.2367-45.2001-45.2 0-12.4086 5.00006-23.6492 13.0953-31.8172-2.479-5.7725-.3017-12.61635 5.2733-15.83512 5.6757-3.276829 12.8443-1.625392 16.5506 3.62656 3.3027-.76821 6.7443-1.17436 10.2809-1.17436 24.9633 0 45.2001 20.23672 45.2001 45.20012 0 11.7581-4.4897 22.4676-11.8482 30.5077 2.0575 5.6292-.1602 12.0911-5.5292 15.1909-5.1356 2.965-11.4935 1.8951-15.4028-2.2263zm196.353-48.0839c.205.205.525.205.73 0l10.524-10.61c.205-.2051.205-.5341 0-.7392l-21.783-21.9544c-.205-.205-.525-.205-.73 0l-10.529 10.6101c-.205.205-.205.534 0 .7391zm56.264-22.6841-10.524-10.6053c-.205-.205-.525-.205-.73 0l-66.788 67.3319c-.205.2051-.205.5341 0 .7392l10.52 10.61c.205.205.524.205.729 0l66.793-67.3415c.201-.2003.201-.5293 0-.7343zm-22.498 34.7719c.205-.2051.525-.2051.73 0l21.782 21.9639c.206.2051.206.5341 0 .7391l-10.528 10.6101c-.206.205-.525.205-.73 0l-21.783-21.964c-.205-.205-.205-.5341 0-.7391zm123.94-28.9013c.152 0 .295-.0287.434-.0859.138-.0572.262-.143.367-.2479.105-.105.191-.2289.243-.3672.057-.1383.086-.2909.086-.4387v-12.9562c0-.1526-.024-.2956-.086-.4387-.057-.143-.138-.2623-.243-.3672s-.229-.1907-.367-.2479c-.139-.0572-.282-.0859-.434-.0859h-48.778c-.152 0-.295.0287-.434.0859-.138.0572-.262.143-.367.2479s-.191.2289-.243.3672c-.057.1383-.086.2909-.086.4387v73.9125c0 .1526.024.2957.086.434.057.1383.138.2622.243.3672.105.1049.229.1907.367.2527.139.0572.282.0858.434.0858h48.778c.152 0 .295-.0334.434-.0858.138-.0572.262-.1431.367-.2527.105-.105.191-.2289.243-.3672.053-.1383.086-.2909.086-.434v-12.9513c0-.1526-.024-.2957-.086-.4387-.057-.1431-.138-.2623-.243-.3672s-.229-.1908-.367-.2528c-.139-.062-.282-.0858-.434-.0858h-32.898v-15.2403h32.898c.152 0 .295-.0286.434-.0858.138-.0572.262-.1431.367-.248s.191-.2289.243-.3672c.053-.1382.086-.2908.086-.4434v-12.9514c0-.1526-.024-.2957-.086-.4387-.057-.1431-.138-.2623-.243-.3672s-.229-.1907-.367-.248c-.139-.0572-.282-.0858-.434-.0858h-32.898v-15.245zm-280.821-15.2407h48.783c.3 0 .577.1097.791.329.215.2194.334.5055.334.8107v45.3393c0 .3052-.119.5913-.329.8107-.21.2146-.501.3338-.801.3338h-14.745c-.152 0-.295-.0286-.433-.0858-.139-.0573-.263-.1431-.368-.248s-.186-.2289-.243-.3672-.086-.2813-.086-.4339v-31.2531h-32.903c-.3 0-.591-.1144-.801-.3338s-.329-.5102-.329-.8107v-12.9561c0-.1526.029-.2909.086-.4339.057-.1431.143-.2671.243-.3672.105-.1097.229-.1908.367-.248.139-.0572.282-.0858.434-.0858zm15.37 30.4761h-15.989c-.282 0-.515.2288-.515.5197v44.6813c0 .2909.229.5198.515.5198h15.984c.281 0 .515-.2289.515-.5198v-44.6813c.005-.2861-.224-.5197-.51-.5197zm52.082-30.48h15.984c.286 0 .515.2384.515.5198v75.1619c0 .2909-.234.5197-.515.5197h-15.984c-.287 0-.515-.2288-.515-.5197v-75.1619c0-.2909.233-.5198.515-.5198zm145.917 0h-15.984c-.281 0-.515.2289-.515.5198v75.1619c0 .2909.229.5197.515.5197h15.984c.281 0 .515-.2288.515-.5197v-75.1619c0-.2814-.229-.5198-.515-.5198z" fill="url(#a)" fill-rule="evenodd"/></svg>