<?xml version="1.0" encoding="UTF-8"?> <!-- Generator: Adobe Illustrator 23.0.6, SVG Export Plug-In . SVG Version: 6.00 Build 0) --> <svg xmlns="http://www.w3.org/2000/svg" xmlns:xlink="http://www.w3.org/1999/xlink" id="Layer_1" x="0px" y="0px" viewBox="0 0 400 245" style="enable-background:new 0 0 400 245;" xml:space="preserve"> <style type="text/css"> .st0{display:none;} </style> <g> <g> <path d="M44.3,134.9c0,2.6-0.6,5.1-1.7,7.3c-1.1,2.2-2.7,4.1-4.7,5.7c-2,1.6-4.4,2.8-7.1,3.6c-2.7,0.9-5.7,1.3-9,1.3 c-3.9,0-7.4-0.5-10.5-1.6c-3.1-1.1-6.2-2.8-9.3-5.3l5.1-8.3c2.5,2.1,4.7,3.6,6.7,4.5c2,1,4,1.4,6.1,1.4c2.5,0,4.6-0.7,6.1-2 c1.6-1.3,2.3-3.1,2.3-5.3c0-1-0.1-1.9-0.4-2.7c-0.3-0.8-0.8-1.7-1.5-2.6c-0.8-0.9-1.8-1.8-3.1-2.9c-1.3-1-3-2.3-5.1-3.8 c-1.6-1.1-3.1-2.3-4.6-3.5c-1.5-1.2-2.9-2.5-4.1-3.8c-1.2-1.4-2.2-2.9-3-4.5c-0.8-1.7-1.1-3.6-1.1-5.7c0-2.5,0.5-4.7,1.5-6.7 c1-2,2.4-3.8,4.2-5.2c1.8-1.4,3.9-2.5,6.4-3.3c2.5-0.8,5.2-1.2,8.1-1.2c3.1,0,6.1,0.4,9,1.2c2.9,0.8,5.6,2,8.1,3.6l-4.7,7.5 c-3.2-2.2-6.5-3.3-10-3.3c-2.1,0-3.9,0.6-5.3,1.7c-1.4,1.1-2.1,2.5-2.1,4.2c0,1.6,0.6,3,1.8,4.3c1.2,1.3,3.3,3.1,6.4,5.4 c3,2.2,5.5,4.2,7.5,5.9c2,1.7,3.6,3.2,4.7,4.7c1.2,1.5,2,3,2.4,4.5C44.1,131.4,44.3,133.1,44.3,134.9"></path> <path d="M97.1,120.9c0-6.5-1.3-11.7-4-15.5c-2.6-3.8-6.2-5.7-10.8-5.7c-4.8,0-8.6,2-11.4,6c-2.8,4-4.2,9.5-4.2,16.3 c0,6.7,1.4,11.9,4.1,15.8c2.8,3.8,6.5,5.7,11.4,5.7c2.9,0,5.3-0.7,7.1-2.2c1.9-1.5,3.4-3.3,4.6-5.6c1.2-2.3,2-4.7,2.5-7.4 C96.8,125.7,97.1,123.2,97.1,120.9 M113.8,120.2c0,4.7-0.7,9-2.2,12.9c-1.4,3.9-3.4,7.4-6,10.3c-2.6,2.9-5.6,5.2-9.1,6.9 c-3.5,1.6-7.3,2.4-11.4,2.4c-1.8,0-3.6-0.2-5.1-0.5c-1.6-0.3-3.1-0.9-4.5-1.6c-1.4-0.8-2.9-1.7-4.2-2.9c-1.4-1.2-2.9-2.7-4.4-4.4 v37.8H51.5V91.7h15.3l0.1,8.7c2.8-3.5,5.8-6.1,9.1-7.7c3.3-1.6,7.1-2.4,11.4-2.4c3.9,0,7.5,0.7,10.7,2.2c3.2,1.5,6,3.5,8.4,6.1 c2.3,2.6,4.2,5.8,5.4,9.4C113.1,111.7,113.8,115.8,113.8,120.2"></path> <rect x="120.6" y="63.8" width="15.7" height="87.6"></rect> <path d="M187.8,151.4l0-8c-3,3.3-6.1,5.8-9.3,7.2c-3.2,1.5-6.9,2.2-11.1,2.2c-4.7,0-8.7-0.9-11.9-2.8c-3.2-1.9-5.6-4.6-7-8.3 c-0.4-0.9-0.7-1.8-0.9-2.7c-0.2-1-0.4-2-0.5-3.3c-0.2-1.2-0.3-2.7-0.3-4.2c0-1.6-0.1-3.5-0.1-5.9V91.6h15.7v34.2 c0,3,0.1,5.3,0.4,6.9c0.3,1.6,0.8,3,1.5,4.3c1.8,3.4,5.1,5,9.7,5c5.9,0,10-2.5,12.2-7.4c0.6-1.3,1-2.7,1.2-4.2 c0.2-1.6,0.4-3.8,0.4-6.6V91.6h15.7v59.7H187.8z"></path> <path d="M255.7,151.4v-34.1c0-3-0.1-5.3-0.4-6.9c-0.3-1.6-0.8-3-1.5-4.3c-1.8-3.3-5.1-5-9.7-5c-3,0-5.5,0.6-7.6,1.8 c-2.1,1.2-3.7,3-4.7,5.4c-0.6,1.4-0.9,2.8-1.1,4.4c-0.2,1.5-0.3,3.7-0.3,6.5v32.2h-15.9V91.8h15.9l0,8c3-3.3,6.1-5.8,9.3-7.2 c3.2-1.5,6.9-2.2,11.1-2.2c4.7,0,8.7,1,11.9,2.9c3.2,1.9,5.6,4.7,7,8.3c0.3,0.9,0.6,1.8,0.8,2.7c0.2,0.9,0.4,2,0.6,3.2 c0.2,1.2,0.3,2.6,0.3,4.2c0,1.6,0.1,3.6,0.1,5.9v33.9H255.7z"></path> <polygon points="321.9,152.6 298.1,119.6 298.1,151.4 282.3,151.4 282.3,63.8 298.1,63.8 298.1,115.2 299.8,115.2 320.9,90.8 332.8,95.9 312.6,117.6 336.5,147.4 "></polygon> <polygon points="350.2,149.7 350.2,139.3 387.1,121 350.2,103 350.2,92.3 397.9,116.3 397.9,126 "></polygon> <polygon class="st0" points="357.8,78.8 355,78.8 355,86.7 353.2,86.7 353.2,78.8 350.4,78.8 350.4,77.6 357.8,77.6 "></polygon> <path class="st0" d="M368.7,86.7h-1.8v-5c0-0.4,0-1.1,0.1-2.1c-0.2,0.7-0.5,1.3-0.7,1.9l-2.3,5.2h-0.8l-2.2-5.2 c-0.1-0.3-0.4-1-0.7-1.9c0,0.8,0.1,1.5,0.1,2.1v5h-1.4v-9h2.1l2.8,6.7l2.9-6.7h2V86.7z"></path> <g> <path d="M354.8,76.9c2.9,0,5.3,2.4,5.3,5.4c0,3-2.3,5.4-5.3,5.4c-2.9,0-5.3-2.4-5.3-5.4C349.5,79.2,351.9,76.9,354.8,76.9 L354.8,76.9z M354.8,77.7c-2.4,0-4.3,2-4.3,4.5c0,2.5,1.9,4.5,4.3,4.5c2.4,0,4.3-2,4.3-4.5C359.1,79.7,357.2,77.7,354.8,77.7 L354.8,77.7z M353.8,85.3h-1v-6c0.5-0.1,1-0.1,1.7-0.1c0.9,0,1.5,0.2,1.9,0.5c0.4,0.3,0.5,0.7,0.5,1.2c0,0.8-0.5,1.3-1.2,1.5v0 c0.5,0.1,0.9,0.6,1,1.5c0.1,0.9,0.3,1.3,0.4,1.5h-1c-0.1-0.2-0.3-0.7-0.4-1.5c-0.1-0.8-0.5-1-1.3-1h-0.7V85.3z M353.8,82h0.7 c0.8,0,1.5-0.3,1.5-1c0-0.5-0.4-1-1.5-1c-0.3,0-0.5,0-0.7,0V82z"></path> </g> </g> </g> </svg> 