<?xml version="1.0" encoding="UTF-8"?> <!-- Generator: Adobe Illustrator 23.1.1, SVG Export Plug-In . SVG Version: 6.00 Build 0) --> <svg xmlns="http://www.w3.org/2000/svg" xmlns:xlink="http://www.w3.org/1999/xlink" x="0px" y="0px" viewBox="0 0 400 245" style="enable-background:new 0 0 400 245;" xml:space="preserve"> <style type="text/css"> .st0{fill:#55565B;} .st1{fill:#00ABC7;} </style> <g id="Black_Boxes"> </g> <g id="Layer_1"> <g> <g> <g> <path class="st0" d="M171,164.4c0,5.2-1.8,9.1-5.3,11.8c-3.2,2.5-7.6,3.8-13.1,3.8c-7.6,0-14.5-2.4-20.7-7.3l5.9-9 c5.3,3.8,10.4,5.8,15.2,5.8c3.8,0,5.8-1.2,5.8-3.6v-0.2c0-1.3-1-2.4-3-3.3c-0.7-0.3-3.1-1-7-2.3c-9.6-2.8-14.4-7.7-14.4-14.5 v-0.2c0-4.7,1.7-8.5,5.2-11.3c3.2-2.6,7.4-4,12.4-4c6.5,0,12.5,1.9,18,5.6l-5.2,9.5c-5.1-3-9.5-4.5-13.1-4.5c-3.4,0-5,1.1-5,3.3 v0.2c0,1.2,1,2.3,3,3.2c0.8,0.4,3.1,1.2,6.8,2.5c4.4,1.5,7.7,3.1,9.8,4.7c3.2,2.5,4.8,5.7,4.8,9.6V164.4z"></path> <path class="st0" d="M204.3,180.2c-1.9,5-3.9,8.5-6.2,10.4c-2.4,2-5.6,3.1-9.6,3.1c-4.3,0-8.4-1.1-12.2-3.3l4.6-9.9 c2.1,1.3,4.1,1.9,5.9,1.9c2.2,0,3.8-1.1,4.8-3.2l-18.9-48.4h14.5l11,32.9l10.5-32.9h14.2L204.3,180.2z"></path> <path class="st0" d="M261.4,164.4c0,5.2-1.8,9.1-5.3,11.8c-3.2,2.5-7.6,3.8-13.1,3.8c-7.6,0-14.5-2.4-20.7-7.3l5.9-9 c5.3,3.8,10.4,5.8,15.2,5.8c3.8,0,5.8-1.2,5.8-3.6v-0.2c0-1.3-1-2.4-3-3.3c-0.7-0.3-3.1-1-7-2.3c-9.6-2.8-14.4-7.7-14.4-14.5 v-0.2c0-4.7,1.7-8.5,5.2-11.3c3.2-2.6,7.4-4,12.4-4c6.5,0,12.5,1.9,18,5.6l-5.2,9.5c-5.1-3-9.5-4.5-13.1-4.5c-3.4,0-5,1.1-5,3.3 v0.2c0,1.2,1,2.3,3,3.2c0.8,0.4,3.1,1.2,6.8,2.5c4.4,1.5,7.7,3.1,9.8,4.7c3.2,2.5,4.8,5.7,4.8,9.6V164.4z"></path> <path class="st0" d="M303.2,179.1v-4.2c-3.8,3.4-8.9,5.1-15,5.1c-6,0-11.1-2.1-15.2-6.4c-4.5-4.7-6.8-10.9-6.8-18.6v-0.2 c0-7.7,2.2-13.9,6.7-18.6c4.1-4.3,9.2-6.4,15.3-6.4c6,0,11,1.5,15,4.5v-21.1h13.7v65.7H303.2z M303.4,154.8 c0-3.9-1.1-7.1-3.4-9.6c-2.2-2.5-5-3.7-8.3-3.7c-3.3,0-6.1,1.2-8.3,3.6c-2.3,2.5-3.5,5.8-3.5,9.7v0.2c0,3.9,1.2,7.1,3.5,9.6 c2.2,2.5,5,3.7,8.3,3.7c3.3,0,6.1-1.2,8.3-3.7c2.3-2.5,3.4-5.7,3.4-9.6V154.8z"></path> <path class="st0" d="M325.2,125.5v-12.2h14.4v12.2H325.2z M325.5,179.1v-48.3h13.7v48.3H325.5z"></path> <path class="st0" d="M398.2,168.2c0,8.9-2.3,15.5-6.8,19.5c-4.3,4-11,5.9-20.2,5.9c-7.9,0-15-1.7-21.3-5l4.7-11.2 c5.2,2.9,10.7,4.4,16.3,4.4c9.2,0,13.8-3.8,13.8-11.3V170c-4.3,3.4-9.6,5.1-15.8,5.1c-5.9,0-10.9-1.9-14.9-5.9 c-4.3-4.2-6.5-9.8-6.5-16.7v-0.2c0-6.9,2.2-12.5,6.6-16.7c4-3.9,9-5.9,14.9-5.9c6,0,11.2,1.5,15.6,4.5v-3.6h13.7V168.2z M384.7,152.4c0-3.2-1.1-5.9-3.4-8c-2.2-2.1-5-3.2-8.4-3.2c-3.4,0-6.2,1.1-8.4,3.2c-2.2,2.1-3.3,4.8-3.3,8v0.2 c0,3.3,1.1,6,3.3,8.1c2.2,2,5,3.1,8.4,3.1c3.4,0,6.2-1.1,8.4-3.2c2.3-2.1,3.4-4.8,3.4-8V152.4z"></path> </g> </g> <g> <path class="st1" d="M74.5,178.8c-12.7,0-23.8-6.3-30.4-17.7c-2.7-4.6-9.6-16.9-9.9-17.5c-1.3-2.2-0.4-5.1,1.8-6.3 c2.2-1.3,5.1-0.4,6.3,1.8c0.1,0.2,7.2,12.8,9.9,17.4c6.5,11.3,18.5,15.7,32.1,11.6c2.5-0.7,5.1,0.6,5.8,3.1 c0.7,2.5-0.6,5.1-3.1,5.8C82.6,178.2,78.5,178.8,74.5,178.8z"></path> <g> <g> <path class="st1" d="M75.5,193.6c-17.7,0-34.3-8.3-42.6-22.7l-19-33c-0.6-1.1-0.8-2.3-0.5-3.5s1.1-2.2,2.2-2.8l13-7.5 c2.2-1.3,5.1-0.5,6.4,1.7c1.3,2.2,0.5,5.1-1.7,6.4l-8.9,5.2l16.7,28.9c9.1,15.7,30.6,22.2,50.3,15.4 c15.8-13.7,20.9-35.6,11.8-51.3l-16-27.7c-1.3-2.2-0.5-5.1,1.7-6.4c2.2-1.3,5.1-0.5,6.4,1.7l16,27.7 c11.4,19.7,5.2,47.1-14.5,63.6c-0.4,0.3-0.9,0.6-1.4,0.8C88.7,192.5,82,193.6,75.5,193.6z M93.6,185.7L93.6,185.7L93.6,185.7z"></path> <path class="st1" d="M74.1,163.8c-7.3,0-13.6-4.9-16.7-10.4L2.4,58.2c-1.3-2.2-0.5-5.1,1.7-6.4s5.1-0.5,6.4,1.7l54.9,95.2 c1.5,2.6,5.7,7,11.1,5.3c2.4-0.8,5.1,0.6,5.9,3c0.8,2.4-0.6,5.1-3,5.9C77.5,163.5,75.8,163.8,74.1,163.8z"></path> <path class="st1" d="M62.2,114.7c-0.4,0-0.8-0.1-1.2-0.2c-1.2-0.3-2.2-1.1-2.8-2.2L42.7,85.6c-1.3-2.2-0.5-5.1,1.7-6.4 c2.2-1.3,5.1-0.5,6.4,1.7l13.1,22.7l8.3-4.8c2.2-1.3,5.1-0.5,6.4,1.7c1.3,2.2,0.5,5.1-1.7,6.4L64.5,114 C63.8,114.4,63,114.7,62.2,114.7z"></path> </g> </g> </g> </g> </g> <g id="Layer_2"> </g> <g id="Layer_4"> </g> <g id="Guides"> <g> <g> </g> <g> <g> </g> </g> </g> </g> <g id="Layer_6"> </g> </svg> 