<svg xmlns="http://www.w3.org/2000/svg" role="img" viewBox="1.37 64.37 396.76 114.01"><title>Trilio 2020.svg</title><defs><clipPath id="clip-path"><path fill="none" d="M9 72.072h381.741v98.856H9z"/></clipPath><style>.cls-2{fill:#323e48}.cls-3{clip-path:url(#clip-path)}.cls-4{fill:#76bc21}</style></defs><path d="M9 88.354v14.149h22.827v65.047h14.789v-65.047h22.826V88.354H9z" class="cls-2"/><g class="cls-3"><path d="M109.47752 137.86744h-9.75138v29.68411H85.15043V88.35494h29.47071c18.11333 0 26.57959 11.8964 26.57959 24.75546 0 9.64706-5.03771 19.291-16.61324 23.042l19.93432 31.39918h-17.36092zm-9.75138-13.1831h13.289c9.53642 0 13.18-5.67948 13.18-11.46645 0-6.00195-3.96442-11.25148-11.57394-11.25148h-14.895z" class="cls-2"/></g><path d="M163.138 88.357h14.682v79.197h-14.682zm39.073-.003h14.683v65.159h40.722v14.038h-55.405V88.354zm71.619.003h14.683v79.197H273.83z" class="cls-2"/><g class="cls-3"><path d="M348.87726 165.21779a36.02539 36.02539 0 0 0 25.80974-10.53067 36.73553 36.73553 0 0 0 10.46114-26.41363c0-20.79579-15.932-37.085-36.27092-37.085h-4.16834v2.8674h4.16834c18.733 0 33.40509 15.03411 33.40509 34.22865a33.887 33.887 0 0 1-9.62966 24.384 33.1787 33.1787 0 0 1-23.77543 9.68342c-19.04437 0-33.40352-14.65-33.40352-34.08006a34.80081 34.80081 0 0 1 8.2829-22.77483l-2.04543-2.04386a37.65783 37.65783 0 0 0-9.10329 24.81869c0 21.06293 15.59209 36.94588 36.26934 36.94588" class="cls-4"/><path d="M348.87885 170.92794a41.57132 41.57132 0 0 0 29.78685-12.15248 42.3952 42.3952 0 0 0 12.07344-30.49027c0-23.88924-18.29511-42.68859-41.65165-42.80082l-1.54277-.00632v-13.406L328.072 92.73666l19.47273 20.66458V99.76448h1.33413c15.59526 0 27.81253 12.52237 27.81253 28.50806a28.20229 28.20229 0 0 1-8.01892 20.30735 27.61139 27.61139 0 0 1-19.79361 8.06161c-15.85767 0-27.81414-12.20148-27.81414-28.3816a29.02814 29.02814 0 0 1 6.71169-18.744l-2.04386-2.04385a31.884 31.884 0 0 0-7.53366 20.78789c0 17.81457 13.18944 31.24742 30.68 31.24742a30.47254 30.47254 0 0 0 21.82957-8.90886 31.07184 31.07184 0 0 0 8.84722-22.337c0-17.58537-13.47554-31.36124-30.67679-31.36282h-4.2v9.2835L332.008 92.73666l12.67093-13.44708v9.05587h4.2c21.86592 0 38.99447 17.54743 38.99447 39.9508a39.54283 39.54283 0 0 1-11.2404 28.45906 38.73235 38.73235 0 0 1-27.75407 11.3068c-22.23108 0-38.99607-17.10167-38.99607-39.7785a40.59032 40.59032 0 0 1 9.85571-26.80564l-2.0391-2.03753a43.43778 43.43778 0 0 0-10.68085 28.84317c0 24.3097 17.99637 42.64433 41.86031 42.64433" class="cls-4"/></g></svg>