<?xml version="1.0" encoding="UTF-8"?> <svg xmlns="http://www.w3.org/2000/svg" id="Layer_1" data-name="Layer 1" viewBox="0 0 400 245"><defs><style>.cls-1{fill:#747373}</style></defs><title>vmware</title><path class="cls-1" d="M173.423 150.167l-16.71-46.496a9.56 9.56 0 0 1-.58-2.18 4.033 4.033 0 0 1 4.068-3.923c2.18 0 3.487 1.308 4.214 3.342l13.803 39.958 13.949-40.103a4.199 4.199 0 0 1 4.068-3.342h.436a4.212 4.212 0 0 1 4.214 3.342l13.803 40.103 13.949-40.103c.581-1.744 1.743-3.197 3.923-3.197a3.916 3.916 0 0 1 4.068 3.778 5.387 5.387 0 0 1-.58 2.18l-16.71 46.495c-.872 2.47-2.616 3.633-4.505 3.633h-.29c-2.18 0-3.778-1.308-4.504-3.633l-13.659-39.376-13.803 39.522c-.727 2.47-2.325 3.632-4.504 3.632h-.29a4.695 4.695 0 0 1-4.36-3.632M294.748 101.637a4.186 4.186 0 0 1 4.068-4.214 4.126 4.126 0 0 1 4.214 4.214v9.444c4.068-9.154 12.932-13.513 18.889-13.513a3.89 3.89 0 0 1 4.068 4.069 4.221 4.221 0 0 1-3.632 4.213c-10.607 1.308-19.325 9.3-19.325 25.137v18.598a4.142 4.142 0 0 1-8.282 0v-47.948M352.141 154.235c-14.82 0-26.88-11.479-26.88-28.333v-.29c0-15.693 10.897-28.334 25.863-28.334 15.983 0 24.991 13.077 24.991 27.607a3.751 3.751 0 0 1-3.777 3.777h-38.94c1.162 11.77 9.299 18.453 18.888 18.453 6.684 0 11.479-2.615 15.547-6.247a3.068 3.068 0 0 1 2.325-.872 3.442 3.442 0 0 1 3.487 3.487 3.519 3.519 0 0 1-1.307 2.615c-4.94 4.94-11.043 8.137-20.197 8.137m15.983-31.385c-.872-9.88-6.393-18.453-17.145-18.453-9.445 0-16.42 7.847-17.436 18.453zM236.774 137.235v-.145c0-11.479 9.59-17.727 23.393-17.727a61.227 61.227 0 0 1 16.854 2.325v-2.034c0-9.88-6.102-14.966-16.273-14.966a28.705 28.705 0 0 0-12.786 2.47 6.394 6.394 0 0 1-1.453.29 3.665 3.665 0 0 1-3.633-3.486 3.21 3.21 0 0 1 2.18-3.342c5.376-2.325 9.444-3.052 16.418-3.052 7.701 0 13.659 2.035 17.727 6.103 3.778 3.778 5.667 9.008 5.667 15.983v30.222a3.941 3.941 0 0 1-3.923 4.068 3.787 3.787 0 0 1-3.924-3.777v-5.231a24.035 24.035 0 0 1-19.76 9.444c-10.171-.145-20.487-5.957-20.487-17.145m40.393-4.214v-5.23a57.66 57.66 0 0 0-16.128-2.325c-10.317 0-15.983 4.504-15.983 11.333v.145c0 6.83 6.393 10.898 13.803 10.898 10.026 0 18.308-6.248 18.308-14.82M24.928 101.056a7.661 7.661 0 0 0-10.317-3.924 7.633 7.633 0 0 0-3.923 10.317l17.436 37.777c2.76 5.958 5.667 9.009 11.043 9.009 5.812 0 8.282-3.342 11.043-9.009 0 0 15.11-32.982 15.256-33.418a2.218 2.218 0 0 1 2.18-1.453 2.449 2.449 0 0 1 2.47 2.47v32.256c0 4.94 2.76 9.009 8.136 9.009s8.137-4.069 8.137-9.009v-26.299c0-5.085 3.633-8.427 8.573-8.427s8.282 3.487 8.282 8.427v26.444c0 4.94 2.76 9.009 8.136 9.009s8.137-4.068 8.137-9.009v-26.444c0-5.085 3.633-8.427 8.573-8.427s8.282 3.487 8.282 8.427v26.444c0 4.94 2.76 9.009 8.137 9.009 5.23 0 8.136-4.068 8.136-9.009V115.15c0-11.043-8.863-18.744-19.47-18.744a25.146 25.146 0 0 0-17.436 7.41c-3.487-4.65-8.427-7.41-16.709-7.41-8.718 0-16.419 7.41-16.419 7.41a19.626 19.626 0 0 0-14.675-7.41c-7.7 0-13.949 3.342-17.726 12.06L39.167 134.62l-14.24-33.564M376.842 104.252a6.83 6.83 0 0 1 13.658 0 6.821 6.821 0 0 1-6.83 6.83 6.73 6.73 0 0 1-6.828-6.83m12.205 0a5.428 5.428 0 0 0-5.521-5.521 5.519 5.519 0 0 0-5.522 5.521 5.428 5.428 0 0 0 5.522 5.521 5.519 5.519 0 0 0 5.521-5.52"></path><path class="cls-1" d="M380.91 101.491a.686.686 0 0 1 .727-.726h2.324a2.51 2.51 0 0 1 1.89.726 1.685 1.685 0 0 1 .58 1.453 2.278 2.278 0 0 1-1.307 2.035l1.017 1.162a.755.755 0 0 1 .29.581.686.686 0 0 1-.726.727.799.799 0 0 1-.726-.436l-1.453-1.744h-1.163v1.453a.727.727 0 0 1-1.453 0v-5.23zm2.906 2.47c.727 0 1.163-.435 1.163-.871 0-.581-.436-.872-1.163-.872h-1.453v1.889h1.453z"></path></svg> 