<svg width="220" height="48" viewBox="0 0 220 48" fill="none" xmlns="http://www.w3.org/2000/svg">
<path d="M50.4083 32.2109V32.1633C50.3894 31.072 50.591 29.9882 51.001 28.9772C51.411 27.9662 52.0209 27.049 52.7939 26.281C53.5669 25.5129 54.487 24.9099 55.4986 24.5083C56.5103 24.1067 57.5925 23.9149 58.6801 23.9444C61.6712 23.9444 63.4543 24.9446 64.9261 26.3947L62.7105 28.9615C61.4866 27.8501 60.2416 27.1674 58.659 27.1674C55.9896 27.1674 54.0641 29.3954 54.0641 32.121V32.1633C54.0641 34.8888 55.9422 37.1592 58.659 37.1592C60.4684 37.1592 61.5763 36.4342 62.8212 35.2963L65.0105 37.5615C64.213 38.4983 63.2133 39.2406 62.0872 39.7321C60.9611 40.2236 59.7382 40.4514 58.5113 40.3981C57.4381 40.4133 56.3728 40.2115 55.3791 39.8046C54.3853 39.3978 53.4834 38.7944 52.7272 38.0303C51.971 37.2662 51.3759 36.3571 50.9775 35.3573C50.5791 34.3575 50.3855 33.2874 50.4083 32.2109ZM67.8117 24.2196H71.2935V30.5068H77.7242V24.2196H81.2112V40.0965H77.7242V33.7457H71.2935V40.0965H67.8117V24.2196ZM85.4315 24.2196H97.3855V27.3314H88.8921V30.5544H96.362V33.661H88.8921V37.0005H97.4962V40.1123H85.4315V24.2196ZM99.8965 32.2109V32.1633C99.8769 31.0732 100.078 29.9904 100.486 28.9801C100.895 27.9699 101.504 27.0532 102.275 26.2852C103.046 25.5172 103.965 24.9139 104.975 24.5116C105.985 24.1093 107.066 23.9163 108.152 23.9444C111.138 23.9444 112.932 24.9446 114.399 26.3947L112.183 28.9615C110.964 27.8501 109.714 27.1674 108.131 27.1674C105.462 27.1674 103.537 29.3954 103.537 32.121V32.1633C103.537 34.8888 105.415 37.1592 108.131 37.1592C109.941 37.1592 111.049 36.4342 112.299 35.2963L114.515 37.5456C113.718 38.4817 112.719 39.2236 111.594 39.7151C110.468 40.2065 109.247 40.4347 108.021 40.3823C106.947 40.4002 105.881 40.201 104.886 39.7964C103.891 39.3919 102.987 38.7903 102.229 38.0276C101.47 37.265 100.873 36.3568 100.472 35.3574C100.072 34.3581 99.8758 33.2879 99.8965 32.2109ZM117.094 24.2196H120.581V31.1683L127.007 24.2196H131.227L124.765 30.9619L131.517 40.1123H127.328L122.417 33.3276L120.581 35.2381V40.0965H117.094V24.2196Z" fill="black"/>
<path d="M139.219 24.2195H145.692C149.469 24.2195 151.754 26.4688 151.754 29.7129V29.7553C151.754 33.4599 148.905 35.344 145.349 35.344H142.712V40.107H139.23L139.219 24.2195ZM145.465 32.2321C147.206 32.2321 148.224 31.1736 148.224 29.8241V29.7818C148.224 28.1941 147.138 27.3738 145.397 27.3738H142.701V32.2321H145.465ZM154.017 32.2109V32.1633C154.017 27.649 157.572 23.9443 162.457 23.9443C167.342 23.9443 170.85 27.6013 170.85 32.1209V32.1633C170.85 36.6829 167.3 40.3822 162.41 40.3822C157.519 40.3822 154.017 36.7305 154.017 32.2109ZM167.205 32.2109V32.1633C167.227 31.5164 167.119 30.8717 166.888 30.2675C166.657 29.6632 166.307 29.1118 165.859 28.6458C165.411 28.1798 164.875 27.8088 164.281 27.5548C163.688 27.3009 163.05 27.1691 162.404 27.1674C159.598 27.1674 157.657 29.3954 157.657 32.1209V32.1633C157.635 32.8102 157.743 33.4548 157.974 34.0591C158.205 34.6633 158.555 35.2148 159.003 35.6808C159.45 36.1468 159.987 36.5178 160.58 36.7717C161.174 37.0257 161.812 37.1575 162.457 37.1592C165.269 37.1592 167.216 34.9153 167.216 32.2109H167.205ZM174.253 24.2195H177.735V40.0965H174.253V24.2195ZM182.124 24.2195H185.337L192.764 34.005V24.2195H196.198V40.0965H193.239L185.553 30.0093V40.1123H182.124V24.2195ZM204.096 27.4425H199.279V24.2195H212.404V27.4425H207.588V40.1123H204.096V27.4425Z" fill="#D91572"/>
<path d="M37.8531 23.6586C36.8388 24.1306 35.7271 24.3538 34.6099 24.3096C33.4926 24.2654 32.4019 23.9552 31.4277 23.4046L25.7936 30.9567C26.3624 31.611 26.742 32.4088 26.8916 33.2639C27.0411 34.119 26.9549 34.9988 26.6422 35.8083C26.3295 36.6177 25.8022 37.3261 25.1173 37.8567C24.4325 38.3874 23.6161 38.7202 22.7564 38.8191C21.8966 38.9181 21.0263 38.7794 20.2394 38.4182C19.4526 38.0569 18.7791 37.4868 18.2918 36.7694C17.8044 36.052 17.5218 35.2146 17.4745 34.3478C17.4271 33.481 17.6168 32.6177 18.023 31.8511L13.4598 28.4217L12.0513 30.3111L6.82868 26.3895L10.7377 21.1554L15.9498 25.0717L14.5465 26.9769L19.1625 30.4434C19.8764 29.8351 20.7536 29.4523 21.6839 29.3431C22.6141 29.2339 23.5558 29.4031 24.3904 29.8295L29.977 22.3091C29.3048 21.6536 28.7704 20.8695 28.4055 20.0032C28.0406 19.1369 27.8526 18.206 27.8526 17.2655C27.8526 16.3251 28.0406 15.3941 28.4055 14.5278C28.7704 13.6615 29.3048 12.8775 29.977 12.222C26.2666 9.70746 21.7966 8.57365 17.3407 9.0168C12.8849 9.45995 8.72381 11.4522 5.57774 14.6486C2.43167 17.845 0.498695 22.0443 0.113434 26.5197C-0.271827 30.9951 0.914881 35.4648 3.46812 39.1549C6.02136 42.8451 9.78041 45.5235 14.0945 46.7265C18.4086 47.9294 23.0062 47.5812 27.0914 45.7421C31.1766 43.903 34.4922 40.6888 36.4643 36.6559C38.4363 32.623 38.9407 28.0253 37.89 23.6586H37.8531Z" fill="url(#paint0_radial_311_156)"/>
<path opacity="0.85" d="M26.9383 33.8551C26.972 34.724 26.768 35.5855 26.3485 36.3464C25.9289 37.1072 25.3097 37.7383 24.558 38.1712C23.8063 38.6041 22.9509 38.8224 22.0844 38.8023C21.2179 38.7822 20.3734 38.5245 19.6425 38.0572C18.9139 37.5854 18.3296 36.9205 17.9544 36.1361C7.84148 35.4693 0.899097 23.7998 0.783039 28.2294C0.556198 36.9988 8.32682 46.1756 18.9303 46.1756C29.5338 46.1756 36.9299 37.2211 36.9299 28.2294C36.9299 24.927 33.063 30.4892 26.9383 33.8551Z" fill="url(#paint1_linear_311_156)"/>
<path d="M47.5281 12.3596C46.6397 13.4735 45.442 14.2982 44.0865 14.7293C42.7309 15.1604 41.2784 15.1785 39.9125 14.7815C38.5467 14.3844 37.3288 13.59 36.413 12.4986C35.4972 11.4072 34.9245 10.0679 34.7674 8.65006C34.6103 7.23219 34.8758 5.79942 35.5303 4.53292C36.1848 3.26641 37.199 2.22305 38.4446 1.53475C39.6902 0.846455 41.1112 0.54414 42.5281 0.666031C43.9449 0.787922 45.2939 1.32854 46.4045 2.21954C47.8928 3.4154 48.8472 5.15504 49.0579 7.05631C49.2685 8.95758 48.7184 10.865 47.5281 12.3596Z" fill="black"/>
<path d="M28.7954 13.7136C28.8904 13.5442 29.0064 13.3961 29.1172 13.2373C25.5241 10.8126 21.1709 9.79044 16.8784 10.3636C12.4986 11.0213 8.48914 13.2039 5.55214 16.5291C4.01295 18.1497 2.77805 20.0358 1.90686 22.0966C18.2605 12.0148 21.5787 21.8532 28.5791 24.1818L29.9771 22.3083C28.8547 21.212 28.129 19.7714 27.9149 18.2145C27.7009 16.6577 28.0108 15.0738 28.7954 13.7136Z" fill="url(#paint2_linear_311_156)"/>
<path d="M30.5253 24.6162C31.7505 24.7292 32.9859 24.6162 34.1706 24.2828C33.205 24.1857 32.2704 23.8864 31.4274 23.4043L30.5253 24.6162Z" fill="url(#paint3_linear_311_156)"/>
<path d="M19.6424 38.0577C18.649 37.4122 17.9317 36.4179 17.6312 35.2695C17.3306 34.1211 17.4684 32.9015 18.0175 31.8498L13.4543 28.4204L12.0511 30.3097L6.82848 26.3881L10.7375 21.154L15.9496 25.0703L14.5463 26.9756L19.1623 30.442C19.8762 29.8338 20.7534 29.451 21.6837 29.3418C22.6139 29.2325 23.5556 29.4017 24.3902 29.8281L29.9768 22.3078C29.3046 21.6523 28.7702 20.8682 28.4053 20.0019C28.0404 19.1356 27.8524 18.2047 27.8524 17.2642C27.8524 16.3237 28.0404 15.3928 28.4053 14.5265C28.7702 13.6602 29.3046 12.8761 29.9768 12.2206C27.4901 10.5296 24.6426 9.44741 21.6631 9.06118C18.6837 8.67496 15.6555 8.99543 12.822 9.99684C9.98849 10.9982 7.42871 12.6526 5.34847 14.827C3.26822 17.0014 1.72554 19.6351 0.844441 22.5164C-0.0366535 25.3977 -0.231577 28.4463 0.27534 31.4169C0.782257 34.3875 1.97687 37.1974 3.76314 39.6206C5.54942 42.0438 7.87751 44.0127 10.5603 45.3691C13.243 46.7255 16.2056 47.4315 19.2098 47.4303L19.6424 38.0577Z" fill="url(#paint4_linear_311_156)"/>
<path d="M215.717 26.4151H215.327V24.5733H214.63V24.2188H216.414V24.5733H215.722L215.717 26.4151ZM218.086 25.8752L217.4 24.8168V26.4045H217.02V24.2188H217.432L218.096 25.2772L218.761 24.2188H219.173V26.4151H218.793V24.8591L218.086 25.8752Z" fill="#D91572"/>
<defs>
<radialGradient id="paint0_radial_311_156" cx="0" cy="0" r="1" gradientUnits="userSpaceOnUse" gradientTransform="translate(11.4763 25.3045) scale(27.9489 28.0386)">
<stop stop-color="#C40047"/>
<stop offset="0.89" stop-color="#FF0070"/>
</radialGradient>
<linearGradient id="paint1_linear_311_156" x1="5.65748" y1="33.6593" x2="28.8404" y2="36.9305" gradientUnits="userSpaceOnUse">
<stop stop-color="#D02685" stop-opacity="0"/>
<stop offset="0.11" stop-color="#CE2581" stop-opacity="0.06"/>
<stop offset="0.31" stop-color="#CA2477" stop-opacity="0.23"/>
<stop offset="0.58" stop-color="#C42266" stop-opacity="0.5"/>
<stop offset="0.89" stop-color="#BB1F4F" stop-opacity="0.87"/>
<stop offset="1" stop-color="#B81E47"/>
</linearGradient>
<linearGradient id="paint2_linear_311_156" x1="9.63" y1="15.894" x2="48.7687" y2="22.0106" gradientUnits="userSpaceOnUse">
<stop offset="0.01" stop-color="#D31C5B" stop-opacity="0"/>
<stop offset="0.07" stop-color="#D52E67" stop-opacity="0.08"/>
<stop offset="0.21" stop-color="#DC5C88" stop-opacity="0.29"/>
<stop offset="0.41" stop-color="#E6A5BB" stop-opacity="0.63"/>
<stop offset="0.61" stop-color="#F1F5F3"/>
</linearGradient>
<linearGradient id="paint3_linear_311_156" x1="10.2837" y1="35.8889" x2="38.4993" y2="20.8915" gradientUnits="userSpaceOnUse">
<stop offset="0.01" stop-color="#D31C5B" stop-opacity="0"/>
<stop offset="0.05" stop-color="#D41D5C" stop-opacity="0.03"/>
<stop offset="0.12" stop-color="#D61F5D" stop-opacity="0.1"/>
<stop offset="0.2" stop-color="#D92360" stop-opacity="0.22"/>
<stop offset="0.29" stop-color="#DD2863" stop-opacity="0.4"/>
<stop offset="0.38" stop-color="#E32F68" stop-opacity="0.61"/>
<stop offset="0.47" stop-color="#EA376D" stop-opacity="0.88"/>
<stop offset="0.52" stop-color="#ED3B70"/>
<stop offset="0.62" stop-color="#ED6892"/>
<stop offset="0.74" stop-color="#ED91AF"/>
<stop offset="0.84" stop-color="#EDAEC5"/>
<stop offset="0.93" stop-color="#EDC0D2"/>
<stop offset="1" stop-color="#EDC6D7"/>
</linearGradient>
<linearGradient id="paint4_linear_311_156" x1="8.20535" y1="5.33004" x2="19.1008" y2="32.1271" gradientUnits="userSpaceOnUse">
<stop stop-color="white" stop-opacity="0.8"/>
<stop offset="0.22" stop-color="#FFE9FF" stop-opacity="0.64"/>
<stop offset="0.71" stop-color="#FFB3FF" stop-opacity="0.24"/>
<stop offset="0.99" stop-color="#FF93FF" stop-opacity="0"/>
</linearGradient>
</defs>
</svg>
