<svg width="1199" height="749" viewBox="0 0 1199 749" fill="none" xmlns="http://www.w3.org/2000/svg">
<rect x="715" width="484" height="572" fill="#1C1C54"/>
<path d="M927.433 374.48C934.153 374.48 938.913 369.56 938.913 362.6V346.52H935.793V362.6C935.793 367.88 932.312 371.64 927.433 371.64C922.553 371.64 919.073 367.88 919.073 362.6V346.52H915.953V362.6C915.953 369.56 920.713 374.48 927.433 374.48ZM957.227 374.44C963.627 374.44 966.907 370.88 966.907 366.52C966.907 361.68 963.147 359.8 957.907 358.56C953.227 357.44 950.507 356.44 950.507 353.6C950.507 351.08 952.987 348.88 956.387 348.88C959.267 348.88 961.987 350.2 964.267 352.4L966.187 349.96C963.667 347.64 960.627 346.04 956.547 346.04C951.267 346.04 947.347 349.44 947.347 353.84C947.347 358.6 950.827 360.32 956.347 361.6C961.147 362.72 963.747 363.88 963.747 366.8C963.747 369.28 961.587 371.6 957.347 371.6C953.507 371.6 950.667 369.96 948.347 367.64L946.387 370.08C949.147 372.8 952.707 374.44 957.227 374.44ZM996.279 374H999.679L987.559 346.52H984.159L972.039 374H975.439L978.199 367.76H993.519L996.279 374ZM979.479 364.8L985.879 350.36L992.239 364.8H979.479ZM878.133 435.48C881.933 435.48 885.453 433.84 888.013 431.28L885.893 429.12C883.893 431.24 881.133 432.6 878.133 432.6C872.213 432.6 867.213 427.4 867.213 421.24C867.213 415.12 872.213 409.92 878.133 409.92C881.133 409.92 883.893 411.28 885.893 413.4L888.013 411.24C885.453 408.64 881.933 407.04 878.133 407.04C870.533 407.04 864.053 413.52 864.053 421.24C864.053 428.96 870.533 435.48 878.133 435.48ZM916.748 435H920.148L908.028 407.52H904.628L892.508 435H895.908L898.668 428.76H913.988L916.748 435ZM899.948 425.8L906.348 411.36L912.708 425.8H899.948ZM927.516 435H930.636V412.64L947.676 435H950.796V407.52H947.676V429.88L930.636 407.52H927.516V435ZM982.388 435H985.788L973.668 407.52H970.268L958.148 435H961.548L964.308 428.76H979.628L982.388 435ZM965.588 425.8L971.988 411.36L978.348 425.8H965.588ZM993.157 435H1002.44C1011.16 435 1017.32 429.28 1017.32 421.24C1017.32 413.2 1011.16 407.52 1002.44 407.52H993.157V435ZM996.277 432.16V410.36H1002.44C1009.32 410.36 1014.16 414.88 1014.16 421.24C1014.16 427.64 1009.32 432.16 1002.44 432.16H996.277ZM1046.78 435H1050.18L1038.06 407.52H1034.66L1022.54 435H1025.94L1028.7 428.76H1044.02L1046.78 435ZM1029.98 425.8L1036.38 411.36L1042.74 425.8H1029.98ZM884.161 497H887.281V469.52H884.161V497ZM906.317 497.44C912.717 497.44 915.997 493.88 915.997 489.52C915.997 484.68 912.237 482.8 906.997 481.56C902.317 480.44 899.597 479.44 899.597 476.6C899.597 474.08 902.077 471.88 905.477 471.88C908.357 471.88 911.077 473.2 913.357 475.4L915.277 472.96C912.757 470.64 909.717 469.04 905.637 469.04C900.357 469.04 896.437 472.44 896.437 476.84C896.437 481.6 899.917 483.32 905.437 484.6C910.237 485.72 912.837 486.88 912.837 489.8C912.837 492.28 910.677 494.6 906.437 494.6C902.597 494.6 899.757 492.96 897.437 490.64L895.477 493.08C898.237 495.8 901.797 497.44 906.317 497.44ZM945.769 478.32C945.769 473.16 941.329 469.52 935.649 469.52H924.489V497H927.609V487.12H933.689L940.649 497H944.209L937.209 487.04C942.129 486.44 945.769 483 945.769 478.32ZM927.609 472.48H935.089C939.569 472.48 942.609 474.64 942.609 478.32C942.609 482 939.569 484.16 935.089 484.16H927.609V472.48ZM974.986 497H978.386L966.266 469.52H962.866L950.746 497H954.146L956.906 490.76H972.226L974.986 497ZM958.186 487.8L964.586 473.36L970.946 487.8H958.186ZM1005.47 472.48V469.52H985.755V497H1005.47V494.04H988.915V484.48H1003.83V481.52H988.915V472.48H1005.47ZM1017.2 494.04V469.52H1014.08V497H1032.2V494.04H1017.2Z" fill="white"/>
<path d="M800.697 246H806.169V228.912H812.857V224.016H794.041V228.912H800.697V246ZM828.769 246.384C835.169 246.384 840.577 241.168 840.577 234.992C840.577 228.816 835.169 223.632 828.769 223.632C822.337 223.632 816.929 228.816 816.929 234.992C816.929 241.168 822.337 246.384 828.769 246.384ZM828.769 241.424C825.409 241.424 822.561 238.48 822.561 234.992C822.561 231.536 825.409 228.592 828.769 228.592C832.129 228.592 834.945 231.536 834.945 234.992C834.945 238.48 832.129 241.424 828.769 241.424ZM846.151 246H851.623V239.12H856.359C861.223 239.12 864.711 236.016 864.711 231.568C864.711 227.12 861.223 224.016 856.359 224.016H846.151V246ZM851.623 234.128V229.008H855.879C857.767 229.008 859.079 230.032 859.079 231.568C859.079 233.104 857.767 234.128 855.879 234.128H851.623ZM887.805 246.416C893.117 246.416 896.573 243.664 896.573 239.792C896.573 236.976 894.461 235.248 891.997 234.672C894.461 233.968 896.093 232.112 896.093 229.648C896.093 226.192 892.957 223.632 887.773 223.632C883.709 223.632 881.021 225.328 879.133 227.536L882.205 230.864C883.645 229.456 885.245 228.528 887.197 228.528C889.181 228.528 890.493 229.328 890.493 230.672C890.493 231.952 889.309 232.688 887.101 232.656H884.509V237.264L887.101 237.232C889.917 237.232 890.941 237.936 890.941 239.312C890.941 240.592 889.725 241.52 887.517 241.52C885.469 241.52 883.421 240.72 881.821 239.12L878.685 242.736C880.637 244.912 883.741 246.416 887.805 246.416ZM923.05 246.384C926.474 246.384 929.578 244.912 931.754 242.576L927.786 239.056C926.634 240.496 924.938 241.424 923.05 241.424C919.69 241.424 916.842 238.48 916.842 234.992C916.842 231.536 919.69 228.592 923.05 228.592C924.906 228.592 926.634 229.52 927.754 230.96L931.754 227.408C929.578 225.104 926.474 223.632 923.05 223.632C916.618 223.632 911.21 228.816 911.21 234.992C911.21 241.168 916.618 246.384 923.05 246.384ZM947.557 246.384C953.957 246.384 959.365 241.168 959.365 234.992C959.365 228.816 953.957 223.632 947.557 223.632C941.125 223.632 935.717 228.816 935.717 234.992C935.717 241.168 941.125 246.384 947.557 246.384ZM947.557 241.424C944.197 241.424 941.349 238.48 941.349 234.992C941.349 231.536 944.197 228.592 947.557 228.592C950.917 228.592 953.733 231.536 953.733 234.992C953.733 238.48 950.917 241.424 947.557 241.424ZM974.666 246.384C980.682 246.384 984.874 242.256 984.874 236.368V224.016H979.434V236.112C979.434 239.216 977.45 241.424 974.666 241.424C971.914 241.424 969.93 239.216 969.93 236.112V224.016H964.458V236.368C964.458 242.256 968.682 246.384 974.666 246.384ZM991.132 246H996.604V233.008L1006.2 246H1011.64V224.016H1006.2V237.008L996.604 224.016H991.132V246ZM1023.57 246H1029.04V228.912H1035.73V224.016H1016.92V228.912H1023.57V246ZM1059.68 246L1054.46 238.608C1057.56 237.52 1059.55 234.928 1059.55 231.568C1059.55 227.12 1056.06 224.016 1051.2 224.016H1040.99V246H1046.46V239.12H1048.64L1053.47 246H1059.68ZM1046.46 229.008H1050.72C1052.6 229.008 1053.92 230.032 1053.92 231.568C1053.92 233.104 1052.6 234.128 1050.72 234.128H1046.46V229.008ZM1065.28 246H1070.75V224.016H1065.28V246ZM1094.78 228.912V224.016H1077.47V246H1094.78V241.104H1082.94V237.232H1093.69V232.336H1082.94V228.912H1094.78ZM1109.33 246.384C1114.77 246.384 1118.13 243.632 1118.13 239.216C1118.13 235.088 1114.97 233.68 1110.04 232.624C1106.77 231.92 1105.72 231.472 1105.72 230.128C1105.72 229.04 1106.71 228.208 1108.47 228.208C1110.52 228.208 1112.73 229.008 1114.74 230.544L1117.53 226.64C1115.19 224.72 1112.31 223.632 1108.6 223.632C1103.61 223.632 1100.21 226.448 1100.21 230.672C1100.21 235.088 1103.7 236.368 1108.41 237.424C1111.61 238.192 1112.63 238.48 1112.63 239.792C1112.63 240.976 1111.57 241.808 1109.53 241.808C1106.84 241.808 1104.44 240.784 1102.29 239.024L1099.19 242.704C1101.88 245.104 1105.43 246.384 1109.33 246.384ZM846.67 285L841.454 277.608C844.558 276.52 846.542 273.928 846.542 270.568C846.542 266.12 843.054 263.016 838.19 263.016H827.982V285H833.454V278.12H835.63L840.462 285H846.67ZM833.454 268.008H837.71C839.598 268.008 840.91 269.032 840.91 270.568C840.91 272.104 839.598 273.128 837.71 273.128H833.454V268.008ZM869.581 267.912V263.016H852.269V285H869.581V280.104H857.741V276.232H868.493V271.336H857.741V267.912H869.581ZM875.526 285H880.998V278.12H885.734C890.598 278.12 894.086 275.016 894.086 270.568C894.086 266.12 890.598 263.016 885.734 263.016H875.526V285ZM880.998 273.128V268.008H885.254C887.142 268.008 888.454 269.032 888.454 270.568C888.454 272.104 887.142 273.128 885.254 273.128H880.998ZM918.189 285L912.973 277.608C916.077 276.52 918.061 273.928 918.061 270.568C918.061 266.12 914.573 263.016 909.709 263.016H899.501V285H904.973V278.12H907.149L911.981 285H918.189ZM904.973 268.008H909.229C911.117 268.008 912.429 269.032 912.429 270.568C912.429 272.104 911.117 273.128 909.229 273.128H904.973V268.008ZM941.1 267.912V263.016H923.788V285H941.1V280.104H929.26V276.232H940.012V271.336H929.26V267.912H941.1ZM955.652 285.384C961.092 285.384 964.452 282.632 964.452 278.216C964.452 274.088 961.284 272.68 956.356 271.624C953.092 270.92 952.036 270.472 952.036 269.128C952.036 268.04 953.028 267.208 954.788 267.208C956.836 267.208 959.044 268.008 961.06 269.544L963.844 265.64C961.508 263.72 958.628 262.632 954.916 262.632C949.924 262.632 946.532 265.448 946.532 269.672C946.532 274.088 950.02 275.368 954.724 276.424C957.924 277.192 958.948 277.48 958.948 278.792C958.948 279.976 957.892 280.808 955.844 280.808C953.156 280.808 950.756 279.784 948.612 278.024L945.508 281.704C948.196 284.104 951.748 285.384 955.652 285.384ZM987.238 267.912V263.016H969.926V285H987.238V280.104H975.398V276.232H986.15V271.336H975.398V267.912H987.238ZM993.182 285H998.654V272.008L1008.25 285H1013.69V263.016H1008.25V276.008L998.654 263.016H993.182V285ZM1025.62 285H1031.09V267.912H1037.78V263.016H1018.97V267.912H1025.62V285ZM1060.35 267.912V263.016H1043.04V285H1060.35V280.104H1048.51V276.232H1059.26V271.336H1048.51V267.912H1060.35ZM1066.29 285H1074.33C1081.88 285 1087.22 280.424 1087.22 273.992C1087.22 267.56 1081.88 263.016 1074.33 263.016H1066.29V285ZM1071.77 280.04V267.976H1075.16C1078.93 267.976 1081.59 270.472 1081.59 273.992C1081.59 277.512 1078.93 280.04 1075.16 280.04H1071.77Z" fill="white"/>
<path d="M956.5 180C987.152 180 1012 155.152 1012 124.5C1012 93.8482 987.152 69 956.5 69C925.848 69 901 93.8482 901 124.5C901 155.152 925.848 180 956.5 180Z" stroke="white" stroke-width="8" stroke-linecap="round" stroke-linejoin="round"/>
<path d="M901 124.5H1012" stroke="white" stroke-width="8" stroke-linecap="round" stroke-linejoin="round"/>
<path d="M956.5 69C970.382 84.1979 978.271 103.921 978.7 124.5C978.271 145.079 970.382 164.802 956.5 180C942.618 164.802 934.729 145.079 934.3 124.5C934.729 103.921 942.618 84.1979 956.5 69V69Z" stroke="white" stroke-width="8" stroke-linecap="round" stroke-linejoin="round"/>
<rect y="572" width="1199" height="177" fill="#4271B6"/>
<rect width="715" height="572" fill="#F5F5F5"/>
<path d="M411.488 643H416.96V625.912H423.648V621.016H404.832V625.912H411.488V643ZM439.56 643.384C445.96 643.384 451.368 638.168 451.368 631.992C451.368 625.816 445.96 620.632 439.56 620.632C433.128 620.632 427.72 625.816 427.72 631.992C427.72 638.168 433.128 643.384 439.56 643.384ZM439.56 638.424C436.2 638.424 433.352 635.48 433.352 631.992C433.352 628.536 436.2 625.592 439.56 625.592C442.92 625.592 445.736 628.536 445.736 631.992C445.736 635.48 442.92 638.424 439.56 638.424ZM456.941 643H462.413V636.12H467.149C472.013 636.12 475.501 633.016 475.501 628.568C475.501 624.12 472.013 621.016 467.149 621.016H456.941V643ZM462.413 631.128V626.008H466.669C468.557 626.008 469.869 627.032 469.869 628.568C469.869 630.104 468.557 631.128 466.669 631.128H462.413ZM497.028 643.384C501.572 643.384 504.772 640.248 504.772 635.832V621.016H499.332V635.32C499.332 637.144 498.084 638.424 496.356 638.424C495.044 638.424 493.668 637.528 493.028 636.248L489.444 639.736C490.98 641.88 494.116 643.384 497.028 643.384ZM521.866 643.384C528.266 643.384 533.674 638.168 533.674 631.992C533.674 625.816 528.266 620.632 521.866 620.632C515.434 620.632 510.026 625.816 510.026 631.992C510.026 638.168 515.434 643.384 521.866 643.384ZM521.866 638.424C518.506 638.424 515.658 635.48 515.658 631.992C515.658 628.536 518.506 625.592 521.866 625.592C525.226 625.592 528.042 628.536 528.042 631.992C528.042 635.48 525.226 638.424 521.866 638.424ZM539.248 643H551.184C555.536 643 558.64 640.568 558.64 637.048C558.64 634.648 557.136 632.568 554.576 631.448C556.496 630.488 557.648 628.728 557.648 626.552C557.648 623.352 554.8 621.016 550.736 621.016H539.248V643ZM544.688 629.72V625.656H549.424C550.928 625.656 552.016 626.488 552.016 627.672C552.016 628.856 550.928 629.72 549.424 629.72H544.688ZM544.688 638.36V633.944H550.224C551.856 633.944 553.008 634.872 553.008 636.152C553.008 637.432 551.856 638.36 550.224 638.36H544.688ZM591.728 625.912V621.016H574.416V643H579.888V634.744H590.64V629.848H579.888V625.912H591.728ZM606.932 643.384C612.948 643.384 617.14 639.256 617.14 633.368V621.016H611.7V633.112C611.7 636.216 609.716 638.424 606.932 638.424C604.18 638.424 602.196 636.216 602.196 633.112V621.016H596.724V633.368C596.724 639.256 600.948 643.384 606.932 643.384ZM623.397 643H628.869V630.008L638.469 643H643.909V621.016H638.469V634.008L628.869 621.016H623.397V643ZM661.31 643.384C664.734 643.384 667.838 641.912 670.014 639.576L666.046 636.056C664.894 637.496 663.198 638.424 661.31 638.424C657.95 638.424 655.102 635.48 655.102 631.992C655.102 628.536 657.95 625.592 661.31 625.592C663.166 625.592 664.894 626.52 666.014 627.96L670.014 624.408C667.838 622.104 664.734 620.632 661.31 620.632C654.878 620.632 649.47 625.816 649.47 631.992C649.47 638.168 654.878 643.384 661.31 643.384ZM680.344 643H685.816V625.912H692.504V621.016H673.688V625.912H680.344V643ZM697.76 643H703.232V621.016H697.76V643ZM720.61 643.384C727.01 643.384 732.418 638.168 732.418 631.992C732.418 625.816 727.01 620.632 720.61 620.632C714.178 620.632 708.77 625.816 708.77 631.992C708.77 638.168 714.178 643.384 720.61 643.384ZM720.61 638.424C717.25 638.424 714.402 635.48 714.402 631.992C714.402 628.536 717.25 625.592 720.61 625.592C723.97 625.592 726.786 628.536 726.786 631.992C726.786 635.48 723.97 638.424 720.61 638.424ZM737.991 643H743.463V630.008L753.063 643H758.503V621.016H753.063V634.008L743.463 621.016H737.991V643ZM773.856 643.384C779.296 643.384 782.656 640.632 782.656 636.216C782.656 632.088 779.488 630.68 774.56 629.624C771.296 628.92 770.24 628.472 770.24 627.128C770.24 626.04 771.232 625.208 772.992 625.208C775.04 625.208 777.248 626.008 779.264 627.544L782.048 623.64C779.712 621.72 776.832 620.632 773.12 620.632C768.128 620.632 764.736 623.448 764.736 627.672C764.736 632.088 768.224 633.368 772.928 634.424C776.128 635.192 777.152 635.48 777.152 636.792C777.152 637.976 776.096 638.808 774.048 638.808C771.36 638.808 768.96 637.784 766.816 636.024L763.712 639.704C766.4 642.104 769.952 643.384 773.856 643.384ZM790.977 632.408C792.769 632.408 794.209 630.904 794.209 629.048C794.209 627.32 792.769 625.816 790.977 625.816C789.057 625.816 787.617 627.32 787.617 629.048C787.617 630.904 789.057 632.408 790.977 632.408ZM790.977 643.384C792.769 643.384 794.209 641.88 794.209 640.024C794.209 638.296 792.769 636.792 790.977 636.792C789.057 636.792 787.617 638.296 787.617 640.024C787.617 641.88 789.057 643.384 790.977 643.384Z" fill="white"/>
<path d="M177.442 694H180.162L170.466 672.016H167.746L158.05 694H160.77L162.978 689.008H175.234L177.442 694ZM164.002 686.64L169.122 675.088L174.21 686.64H164.002ZM203.081 679.056C203.081 674.928 199.529 672.016 194.985 672.016H186.057V694H188.553V686.096H193.417L198.985 694H201.833L196.233 686.032C200.169 685.552 203.081 682.8 203.081 679.056ZM188.553 674.384H194.537C198.121 674.384 200.553 676.112 200.553 679.056C200.553 682 198.121 683.728 194.537 683.728H188.553V674.384ZM219.318 694.384C222.358 694.384 225.174 693.072 227.222 691.024L225.526 689.296C223.926 690.992 221.718 692.08 219.318 692.08C214.582 692.08 210.582 687.92 210.582 682.992C210.582 678.096 214.582 673.936 219.318 673.936C221.718 673.936 223.926 675.024 225.526 676.72L227.222 674.992C225.174 672.912 222.358 671.632 219.318 671.632C213.238 671.632 208.054 676.816 208.054 682.992C208.054 689.168 213.238 694.384 219.318 694.384ZM248.963 672.016V681.616H236.003V672.016H233.507V694H236.003V683.984H248.963V694H251.459V672.016H248.963ZM260.044 694H262.54V672.016H260.044V694ZM275.817 694H278.313V674.384H285.705V672.016H268.425V674.384H275.817V694ZM307.364 674.384V672.016H291.588V694H307.364V691.632H294.116V683.984H306.052V681.616H294.116V674.384H307.364ZM323.818 694.384C326.858 694.384 329.674 693.072 331.722 691.024L330.026 689.296C328.426 690.992 326.218 692.08 323.818 692.08C319.082 692.08 315.082 687.92 315.082 682.992C315.082 678.096 319.082 673.936 323.818 673.936C326.218 673.936 328.426 675.024 330.026 676.72L331.722 674.992C329.674 672.912 326.858 671.632 323.818 671.632C317.738 671.632 312.554 676.816 312.554 682.992C312.554 689.168 317.738 694.384 323.818 694.384ZM342.711 694H345.207V674.384H352.599V672.016H335.319V674.384H342.711V694ZM359.474 698.256C361.394 695.856 361.938 694.768 361.938 693.488C361.938 692.016 361.202 690.928 359.986 690.928C358.962 690.928 358.226 691.728 358.226 692.624C358.226 693.584 358.994 694.384 359.954 694.384C359.698 695.376 359.154 696.368 358.29 697.36L359.474 698.256ZM380.557 694H387.981C394.957 694 399.885 689.424 399.885 682.992C399.885 676.56 394.957 672.016 387.981 672.016H380.557V694ZM383.053 691.728V674.288H387.981C393.485 674.288 397.357 677.904 397.357 682.992C397.357 688.112 393.485 691.728 387.981 691.728H383.053ZM422.527 674.384V672.016H406.751V694H422.527V691.632H409.279V683.984H421.215V681.616H409.279V674.384H422.527ZM446.117 672.016L437.797 690.928L429.445 672.016H426.725L436.421 694H439.141L448.837 672.016H446.117ZM470.508 674.384V672.016H454.732V694H470.508V691.632H457.26V683.984H469.196V681.616H457.26V674.384H470.508ZM479.89 691.632V672.016H477.394V694H491.89V691.632H479.89ZM507.344 694.384C513.456 694.384 518.576 689.168 518.576 682.992C518.576 676.816 513.456 671.632 507.344 671.632C501.264 671.632 496.08 676.816 496.08 682.992C496.08 689.168 501.264 694.384 507.344 694.384ZM507.344 692.08C502.608 692.08 498.608 687.92 498.608 682.992C498.608 678.096 502.608 673.936 507.344 673.936C512.08 673.936 516.048 678.096 516.048 682.992C516.048 687.92 512.08 692.08 507.344 692.08ZM525.501 694H527.997V686.096H534.429C538.973 686.096 542.525 683.184 542.525 679.056C542.525 674.928 538.973 672.016 534.429 672.016H525.501V694ZM527.997 683.728V674.384H533.981C537.565 674.384 539.997 676.112 539.997 679.056C539.997 682 537.565 683.728 533.981 683.728H527.997ZM564.783 674.384V672.016H549.007V694H564.783V691.632H551.535V683.984H563.471V681.616H551.535V674.384H564.783ZM588.693 679.056C588.693 674.928 585.141 672.016 580.597 672.016H571.669V694H574.165V686.096H579.029L584.597 694H587.445L581.845 686.032C585.781 685.552 588.693 682.8 588.693 679.056ZM574.165 674.384H580.149C583.733 674.384 586.165 676.112 586.165 679.056C586.165 682 583.733 683.728 580.149 683.728H574.165V674.384ZM596.355 698.256C598.275 695.856 598.819 694.768 598.819 693.488C598.819 692.016 598.083 690.928 596.867 690.928C595.843 690.928 595.107 691.728 595.107 692.624C595.107 693.584 595.875 694.384 596.835 694.384C596.579 695.376 596.035 696.368 595.171 697.36L596.355 698.256ZM617.438 694H624.862C631.838 694 636.766 689.424 636.766 682.992C636.766 676.56 631.838 672.016 624.862 672.016H617.438V694ZM619.934 691.728V674.288H624.862C630.366 674.288 634.238 677.904 634.238 682.992C634.238 688.112 630.366 691.728 624.862 691.728H619.934ZM659.408 674.384V672.016H643.632V694H659.408V691.632H646.16V683.984H658.096V681.616H646.16V674.384H659.408ZM682.998 672.016L674.678 690.928L666.326 672.016H663.606L673.302 694H676.022L685.718 672.016H682.998ZM701.181 694.384C707.293 694.384 712.413 689.168 712.413 682.992C712.413 676.816 707.293 671.632 701.181 671.632C695.101 671.632 689.917 676.816 689.917 682.992C689.917 689.168 695.101 694.384 701.181 694.384ZM701.181 692.08C696.445 692.08 692.445 687.92 692.445 682.992C692.445 678.096 696.445 673.936 701.181 673.936C705.917 673.936 709.885 678.096 709.885 682.992C709.885 687.92 705.917 692.08 701.181 692.08ZM719.338 694H721.834V686.096H728.266C732.81 686.096 736.362 683.184 736.362 679.056C736.362 674.928 732.81 672.016 728.266 672.016H719.338V694ZM721.834 683.728V674.384H727.818C731.402 674.384 733.834 676.112 733.834 679.056C733.834 682 731.402 683.728 727.818 683.728H721.834ZM749.5 694.352C754.62 694.352 757.244 691.504 757.244 688.016C757.244 684.144 754.236 682.64 750.044 681.648C746.3 680.752 744.124 679.952 744.124 677.68C744.124 675.664 746.108 673.904 748.828 673.904C751.132 673.904 753.308 674.96 755.132 676.72L756.668 674.768C754.652 672.912 752.22 671.632 748.956 671.632C744.732 671.632 741.596 674.352 741.596 677.872C741.596 681.68 744.38 683.056 748.796 684.08C752.636 684.976 754.716 685.904 754.716 688.24C754.716 690.224 752.988 692.08 749.596 692.08C746.524 692.08 744.252 690.768 742.396 688.912L740.828 690.864C743.036 693.04 745.884 694.352 749.5 694.352ZM760.55 696.368H763.27L774.502 670.224H771.782L760.55 696.368ZM786.232 694.352C791.352 694.352 793.976 691.504 793.976 688.016C793.976 684.144 790.968 682.64 786.776 681.648C783.032 680.752 780.856 679.952 780.856 677.68C780.856 675.664 782.84 673.904 785.56 673.904C787.864 673.904 790.04 674.96 791.864 676.72L793.4 674.768C791.384 672.912 788.952 671.632 785.688 671.632C781.464 671.632 778.328 674.352 778.328 677.872C778.328 681.68 781.112 683.056 785.528 684.08C789.368 684.976 791.448 685.904 791.448 688.24C791.448 690.224 789.72 692.08 786.328 692.08C783.256 692.08 780.984 690.768 779.128 688.912L777.56 690.864C779.768 693.04 782.616 694.352 786.232 694.352ZM817.793 679.056C817.793 674.928 814.241 672.016 809.697 672.016H800.769V694H803.265V686.096H808.129L813.697 694H816.545L810.945 686.032C814.881 685.552 817.793 682.8 817.793 679.056ZM803.265 674.384H809.249C812.833 674.384 815.265 676.112 815.265 679.056C815.265 682 812.833 683.728 809.249 683.728H803.265V674.384ZM840.239 674.384V672.016H824.463V694H840.239V691.632H826.991V683.984H838.927V681.616H826.991V674.384H840.239ZM843.638 696.368H846.358L857.59 670.224H854.87L843.638 696.368ZM869.319 694.352C874.439 694.352 877.063 691.504 877.063 688.016C877.063 684.144 874.055 682.64 869.863 681.648C866.119 680.752 863.943 679.952 863.943 677.68C863.943 675.664 865.927 673.904 868.647 673.904C870.951 673.904 873.127 674.96 874.951 676.72L876.487 674.768C874.471 672.912 872.039 671.632 868.775 671.632C864.551 671.632 861.415 674.352 861.415 677.872C861.415 681.68 864.199 683.056 868.615 684.08C872.455 684.976 874.535 685.904 874.535 688.24C874.535 690.224 872.807 692.08 869.415 692.08C866.343 692.08 864.071 690.768 862.215 688.912L860.647 690.864C862.855 693.04 865.703 694.352 869.319 694.352ZM889.841 694H892.465V685.04L901.297 672.016H898.289L891.153 682.672L884.081 672.016H880.977L889.841 685.04V694ZM913.644 694.352C918.764 694.352 921.388 691.504 921.388 688.016C921.388 684.144 918.38 682.64 914.188 681.648C910.444 680.752 908.268 679.952 908.268 677.68C908.268 675.664 910.252 673.904 912.972 673.904C915.276 673.904 917.452 674.96 919.276 676.72L920.812 674.768C918.796 672.912 916.364 671.632 913.1 671.632C908.876 671.632 905.74 674.352 905.74 677.872C905.74 681.68 908.524 683.056 912.94 684.08C916.78 684.976 918.86 685.904 918.86 688.24C918.86 690.224 917.132 692.08 913.74 692.08C910.668 692.08 908.396 690.768 906.54 688.912L904.972 690.864C907.18 693.04 910.028 694.352 913.644 694.352ZM944.886 694H947.606L937.91 672.016H935.19L925.494 694H928.214L930.422 689.008H942.678L944.886 694ZM931.446 686.64L936.566 675.088L941.654 686.64H931.446ZM953.501 694H960.925C967.901 694 972.829 689.424 972.829 682.992C972.829 676.56 967.901 672.016 960.925 672.016H953.501V694ZM955.997 691.728V674.288H960.925C966.429 674.288 970.301 677.904 970.301 682.992C970.301 688.112 966.429 691.728 960.925 691.728H955.997ZM979.694 694H982.19V677.392L990.35 692.72L998.51 677.392V694H1001.01V672.016H998.51L990.35 687.344L982.19 672.016H979.694V694ZM1009.58 694H1012.07V672.016H1009.58V694ZM1020.64 694H1023.14V676.112L1036.77 694H1039.27V672.016H1036.77V689.904L1023.14 672.016H1020.64V694Z" fill="white"/>
<path d="M273.4 137H292.6L319.7 81.2V68.3H267.1V83.6H300L273.4 137ZM332.287 137H351.487L378.587 81.2V68.3H325.987V83.6H358.887L332.287 137ZM414.373 138.2C429.873 138.2 442.873 131.3 442.873 118.4C442.873 110.8 437.873 104.9 429.873 101.5C436.673 98.4 441.073 93.4 441.073 85.9C441.073 73.9 428.573 67.1 414.373 67.1C400.473 67.1 387.773 73.7 387.773 85.9C387.773 93.7 392.473 98.6 398.873 101.5C391.173 104.6 385.973 110.5 385.973 118.4C385.973 131.2 398.773 138.2 414.373 138.2ZM414.373 95.7C409.373 95.4 404.673 92.6 404.673 88.3C404.673 84.3 408.473 81.2 414.373 81.2C420.273 81.2 424.173 84.3 424.173 88.3C424.173 92.5 419.373 95.4 414.373 95.7ZM414.373 124C407.773 124 403.273 121 403.273 116.5C403.273 112 408.873 109.2 414.373 108.9C419.873 109.2 425.573 112 425.573 116.5C425.573 121 420.873 124 414.373 124Z" fill="#4271B6"/>
<path d="M275.954 191H281.266L272.306 169.016H267.026L258.066 191H263.346L264.882 187.224H274.418L275.954 191ZM266.386 183.544L269.65 175.512L272.914 183.544H266.386ZM289.95 191H294.654V173.272H301.534V169.016H283.102V173.272H289.95V191ZM310.388 191H315.092V173.272H321.972V169.016H303.54V173.272H310.388V191ZM342.665 173.272V169.016H325.737V191H342.665V186.744H330.473V181.912H341.545V177.656H330.473V173.272H342.665ZM347.237 191H351.973V176.792L362.565 191H367.301V169.016H362.565V183.224L351.973 169.016H347.237V191ZM372.862 191H380.766C388.158 191 393.406 186.424 393.406 179.992C393.406 173.56 388.158 169.016 380.766 169.016H372.862V191ZM377.598 186.712V173.304H381.374C385.566 173.304 388.542 176.088 388.542 179.992C388.542 183.928 385.566 186.712 381.374 186.712H377.598ZM414.571 173.272V169.016H397.643V191H414.571V186.744H402.379V181.912H413.451V177.656H402.379V173.272H414.571ZM436.071 173.272V169.016H419.143V191H436.071V186.744H423.879V181.912H434.951V177.656H423.879V173.272H436.071ZM448.771 191.384C454.115 191.384 457.315 188.6 457.315 184.408C457.315 180.344 454.179 178.936 449.443 177.88C446.051 177.112 444.707 176.6 444.707 175C444.707 173.688 445.955 172.632 447.939 172.632C450.051 172.632 452.259 173.496 454.243 175.096L456.707 171.672C454.435 169.752 451.683 168.632 448.099 168.632C443.267 168.632 439.939 171.416 439.939 175.48C439.939 179.736 443.267 181.048 447.907 182.104C451.267 182.872 452.547 183.352 452.547 184.92C452.547 186.296 451.331 187.384 448.931 187.384C446.147 187.384 443.779 186.296 441.699 184.504L439.011 187.736C441.571 190.104 444.931 191.384 448.771 191.384Z" fill="#1C1C54"/>
<path d="M207.592 514H210.532V511.2H212.352V508.72H210.532V500.28H206.972L200.592 508.92L200.872 511.2H207.592V514ZM203.692 508.72L207.592 503.4V508.72H203.692ZM220.58 514H223.52V511.2H225.34V508.72H223.52V500.28H219.96L213.58 508.92L213.86 511.2H220.58V514ZM216.68 508.72L220.58 503.4V508.72H216.68ZM230.508 507.16C232.528 507.16 233.948 505.62 233.948 503.64C233.948 501.7 232.588 500.12 230.508 500.12C228.448 500.12 227.088 501.68 227.088 503.66C227.088 505.62 228.448 507.16 230.508 507.16ZM228.888 514H231.188L240.748 500.26H238.428L228.888 514ZM230.508 505.44C229.688 505.44 229.048 504.72 229.048 503.64C229.048 502.56 229.648 501.86 230.508 501.86C231.348 501.86 231.968 502.58 231.968 503.64C231.968 504.74 231.348 505.44 230.508 505.44ZM239.088 514.22C241.108 514.22 242.508 512.68 242.508 510.7C242.508 508.76 241.168 507.18 239.088 507.18C237.048 507.18 235.648 508.74 235.648 510.7C235.648 512.66 237.048 514.22 239.088 514.22ZM239.088 512.48C238.248 512.48 237.628 511.76 237.628 510.7C237.628 509.6 238.228 508.9 239.088 508.9C239.908 508.9 240.548 509.62 240.548 510.7C240.548 511.78 239.948 512.48 239.088 512.48ZM250.795 514H253.755V509.54H256.975C259.975 509.54 262.155 507.62 262.155 504.9C262.155 502.18 259.975 500.26 256.975 500.26H250.795V514ZM253.755 506.84V502.96H256.675C258.135 502.96 259.135 503.72 259.135 504.9C259.135 506.08 258.135 506.84 256.675 506.84H253.755ZM276.061 504.9C276.061 502.18 273.881 500.26 270.881 500.26H264.701V514H267.661V509.54H269.441L272.581 514H275.941L272.641 509.3C274.701 508.7 276.061 507.06 276.061 504.9ZM267.661 502.96H270.581C272.041 502.96 273.041 503.72 273.041 504.9C273.041 506.08 272.041 506.84 270.581 506.84H267.661V502.96ZM289.363 502.92V500.26H278.783V514H289.363V511.34H281.743V508.32H288.663V505.66H281.743V502.92H289.363ZM302.8 502.92V500.26H292.22V514H295.18V508.56H302.1V505.9H295.18V502.92H302.8ZM315.925 502.92V500.26H305.345V514H315.925V511.34H308.305V508.32H315.225V505.66H308.305V502.92H315.925ZM330.143 504.9C330.143 502.18 327.963 500.26 324.963 500.26H318.783V514H321.743V509.54H323.523L326.663 514H330.023L326.723 509.3C328.783 508.7 330.143 507.06 330.143 504.9ZM321.743 502.96H324.663C326.123 502.96 327.123 503.72 327.123 504.9C327.123 506.08 326.123 506.84 324.663 506.84H321.743V502.96ZM338.314 514H341.274V505.12L347.894 514H350.854V500.26H347.894V509.14L341.274 500.26H338.314V514ZM360.83 514.24C364.79 514.24 368.11 510.98 368.11 507.12C368.11 503.26 364.79 500.02 360.83 500.02C356.87 500.02 353.51 503.26 353.51 507.12C353.51 510.98 356.87 514.24 360.83 514.24ZM360.83 511.56C358.51 511.56 356.55 509.52 356.55 507.12C356.55 504.74 358.51 502.7 360.83 502.7C363.13 502.7 365.09 504.74 365.09 507.12C365.09 509.52 363.13 511.56 360.83 511.56ZM373.975 514H376.915V502.92H381.215V500.26H369.695V502.92H373.975V514ZM392.197 514H395.137V502.92H399.437V500.26H387.917V502.92H392.197V514ZM408.291 514.24C412.251 514.24 415.571 510.98 415.571 507.12C415.571 503.26 412.251 500.02 408.291 500.02C404.331 500.02 400.971 503.26 400.971 507.12C400.971 510.98 404.331 514.24 408.291 514.24ZM408.291 511.56C405.971 511.56 404.011 509.52 404.011 507.12C404.011 504.74 405.971 502.7 408.291 502.7C410.591 502.7 412.551 504.74 412.551 507.12C412.551 509.52 410.591 511.56 408.291 511.56ZM433.645 514H436.965L431.365 500.26H428.065L422.465 514H425.765L426.725 511.64H432.685L433.645 514ZM427.665 509.34L429.705 504.32L431.745 509.34H427.665ZM439.213 514H442.173V505.12L448.793 514H451.753V500.26H448.793V509.14L442.173 500.26H439.213V514ZM460.308 514.24C463.648 514.24 465.648 512.5 465.648 509.88C465.648 507.34 463.688 506.46 460.728 505.8C458.608 505.32 457.768 505 457.768 504C457.768 503.18 458.548 502.52 459.788 502.52C461.108 502.52 462.488 503.06 463.728 504.06L465.268 501.92C463.848 500.72 462.128 500.02 459.888 500.02C456.868 500.02 454.788 501.76 454.788 504.3C454.788 506.96 456.868 507.78 459.768 508.44C461.868 508.92 462.668 509.22 462.668 510.2C462.668 511.06 461.908 511.74 460.408 511.74C458.668 511.74 457.188 511.06 455.888 509.94L454.208 511.96C455.808 513.44 457.908 514.24 460.308 514.24ZM471.275 514H474.255L477.515 504.56L480.755 514H483.735L487.895 500.26H484.675L482.155 509.48L479.115 500.26H475.895L472.855 509.48L470.315 500.26H467.115L471.275 514ZM500.789 502.92V500.26H490.209V514H500.789V511.34H493.169V508.32H500.089V505.66H493.169V502.92H500.789ZM515.006 504.9C515.006 502.18 512.826 500.26 509.826 500.26H503.646V514H506.606V509.54H508.386L511.526 514H514.886L511.586 509.3C513.646 508.7 515.006 507.06 515.006 504.9ZM506.606 502.96H509.526C510.986 502.96 511.986 503.72 511.986 504.9C511.986 506.08 510.986 506.84 509.526 506.84H506.606V502.96Z" fill="#1C1C54"/>
<path d="M509.339 397.242H519.599V356.022H511.379L498.299 364.782L502.379 371.922L509.339 367.602V397.242ZM537.843 376.842C544.083 376.842 548.403 372.222 548.403 366.222C548.403 360.402 544.263 355.602 537.843 355.602C531.483 355.602 527.343 360.342 527.343 366.222C527.343 372.222 531.543 376.842 537.843 376.842ZM532.863 397.242H540.603L569.403 356.022H561.663L532.863 397.242ZM537.843 371.022C535.623 371.022 533.943 369.162 533.943 366.222C533.943 363.222 535.563 361.422 537.843 361.422C540.063 361.422 541.803 363.282 541.803 366.222C541.803 369.222 540.123 371.022 537.843 371.022ZM564.303 397.902C570.543 397.902 574.863 393.222 574.863 387.282C574.863 381.402 570.723 376.602 564.363 376.602C558.063 376.602 553.803 381.282 553.803 387.282C553.803 393.162 558.003 397.902 564.303 397.902ZM564.363 392.082C562.083 392.082 560.403 390.222 560.403 387.282C560.403 384.222 562.023 382.482 564.303 382.482C566.523 382.482 568.263 384.342 568.263 387.282C568.263 390.282 566.583 392.082 564.363 392.082Z" fill="#4271B6"/>
<path d="M491.904 435H493.828V429.228L498.131 435H500.055V426.069H498.131V431.841L493.828 426.069H491.904V435ZM506.54 435.156C509.114 435.156 511.272 433.037 511.272 430.528C511.272 428.019 509.114 425.913 506.54 425.913C503.966 425.913 501.782 428.019 501.782 430.528C501.782 433.037 503.966 435.156 506.54 435.156ZM506.54 433.414C505.032 433.414 503.758 432.088 503.758 430.528C503.758 428.981 505.032 427.655 506.54 427.655C508.035 427.655 509.309 428.981 509.309 430.528C509.309 432.088 508.035 433.414 506.54 433.414ZM513.017 435H514.941V429.228L519.244 435H521.168V426.069H519.244V431.841L514.941 426.069H513.017V435ZM526.969 435H531.675C533.378 435 534.6 434.012 534.6 432.582C534.6 431.594 534.002 430.762 532.962 430.294C533.755 429.878 534.21 429.215 534.21 428.305C534.21 427.005 533.092 426.069 531.493 426.069H526.969V435ZM528.88 429.67V427.707H531.025C531.74 427.707 532.247 428.123 532.247 428.682C532.247 429.254 531.74 429.67 531.025 429.67H528.88ZM528.88 433.362V431.178H531.311C532.091 431.178 532.637 431.633 532.637 432.27C532.637 432.907 532.091 433.362 531.311 433.362H528.88ZM536.351 435H538.275V426.069H536.351V435ZM540.54 435H542.464V429.228L546.767 435H548.691V426.069H546.767V431.841L542.464 426.069H540.54V435ZM557.411 435H559.569L555.929 426.069H553.784L550.144 435H552.289L552.913 433.466H556.787L557.411 435ZM553.524 431.971L554.85 428.708L556.176 431.971H553.524ZM568.414 429.085C568.414 427.317 566.997 426.069 565.047 426.069H561.03V435H562.954V432.101H564.111L566.152 435H568.336L566.191 431.945C567.53 431.555 568.414 430.489 568.414 429.085ZM562.954 427.824H564.852C565.801 427.824 566.451 428.318 566.451 429.085C566.451 429.852 565.801 430.346 564.852 430.346H562.954V427.824ZM572.849 435H574.786V431.776L578.27 426.069H576.125L573.811 429.982L571.588 426.069H569.352L572.849 431.776V435ZM578.665 435.962H580.667L585.139 425.341H583.137L578.665 435.962ZM485.37 450.156C487.944 450.156 490.102 448.037 490.102 445.528C490.102 443.019 487.944 440.913 485.37 440.913C482.796 440.913 480.612 443.019 480.612 445.528C480.612 448.037 482.796 450.156 485.37 450.156ZM485.37 448.414C483.862 448.414 482.588 447.088 482.588 445.528C482.588 443.981 483.862 442.655 485.37 442.655C486.865 442.655 488.139 443.981 488.139 445.528C488.139 447.088 486.865 448.414 485.37 448.414ZM493.914 450H495.825V442.798H498.62V441.069H491.132V442.798H493.914V450ZM506.143 441.069V444.579H502.074V441.069H500.15V450H502.074V446.308H506.143V450H508.054V441.069H506.143ZM517.209 442.798V441.069H510.332V450H517.209V448.271H512.256V446.308H516.754V444.579H512.256V442.798H517.209ZM526.45 444.085C526.45 442.317 525.033 441.069 523.083 441.069H519.066V450H520.99V447.101H522.147L524.188 450H526.372L524.227 446.945C525.566 446.555 526.45 445.489 526.45 444.085ZM520.99 442.824H522.888C523.837 442.824 524.487 443.318 524.487 444.085C524.487 444.852 523.837 445.346 522.888 445.346H520.99V442.824ZM535.687 446.477H537.754V447.842C537.26 448.206 536.623 448.414 536.025 448.414C534.491 448.414 533.204 447.088 533.204 445.528C533.204 443.981 534.491 442.655 536.025 442.655C536.844 442.655 537.702 443.045 538.235 443.656L539.626 442.408C538.742 441.472 537.351 440.913 536.025 440.913C533.425 440.913 531.228 443.019 531.228 445.528C531.228 448.037 533.425 450.156 536.025 450.156C537.351 450.156 538.742 449.597 539.626 448.661V444.982H535.687V446.477ZM548.414 442.798V441.069H541.537V450H548.414V448.271H543.461V446.308H547.959V444.579H543.461V442.798H548.414ZM550.271 450H552.195V444.228L556.498 450H558.422V441.069H556.498V446.841L552.195 441.069H550.271V450ZM560.681 450H563.892C566.895 450 569.027 448.141 569.027 445.528C569.027 442.915 566.895 441.069 563.892 441.069H560.681V450ZM562.605 448.258V442.811H564.139C565.842 442.811 567.051 443.942 567.051 445.528C567.051 447.127 565.842 448.258 564.139 448.258H562.605ZM577.626 442.798V441.069H570.749V450H577.626V448.271H572.673V446.308H577.171V444.579H572.673V442.798H577.626ZM586.867 444.085C586.867 442.317 585.45 441.069 583.5 441.069H579.483V450H581.407V447.101H582.564L584.605 450H586.789L584.644 446.945C585.983 446.555 586.867 445.489 586.867 444.085ZM581.407 442.824H583.305C584.254 442.824 584.904 443.318 584.904 444.085C584.904 444.852 584.254 445.346 583.305 445.346H581.407V442.824ZM591.938 450.156C594.109 450.156 595.409 449.025 595.409 447.322C595.409 445.671 594.135 445.099 592.211 444.67C590.833 444.358 590.287 444.15 590.287 443.5C590.287 442.967 590.794 442.538 591.6 442.538C592.458 442.538 593.355 442.889 594.161 443.539L595.162 442.148C594.239 441.368 593.121 440.913 591.665 440.913C589.702 440.913 588.35 442.044 588.35 443.695C588.35 445.424 589.702 445.957 591.587 446.386C592.952 446.698 593.472 446.893 593.472 447.53C593.472 448.089 592.978 448.531 592.003 448.531C590.872 448.531 589.91 448.089 589.065 447.361L587.973 448.674C589.013 449.636 590.378 450.156 591.938 450.156Z" fill="#1C1C54"/>
<path d="M566.592 315.758C566.016 316.46 565.411 317.105 564.368 316.704C563.342 316.312 563.269 315.46 563.26 314.526C563.242 312.981 563.319 311.412 563.065 309.9C562.388 305.867 560.027 303.102 556.216 301.636C554.189 300.858 552.106 300.218 550.026 299.59C549.675 299.484 549.087 299.632 548.806 299.882C539.44 308.323 526.464 308.317 517.086 299.87C516.811 299.623 516.226 299.499 515.866 299.599C514.376 300.015 512.92 300.551 511.446 301.02C510.296 301.386 509.428 301.008 509.097 300.047C508.775 299.113 509.268 298.264 510.42 297.875C513.106 296.967 515.803 296.085 518.495 295.195C520.377 294.573 520.649 294.201 520.655 292.267C520.655 292.12 520.643 291.972 520.655 291.825C520.921 288.977 520.46 286.524 518.409 284.166C516.04 281.439 515.177 277.874 515.357 274.242C515.496 271.427 514.905 269.08 513.189 266.704C510.479 262.951 509.309 258.582 510.314 253.924C511.221 249.714 513.777 246.857 517.943 245.519C518.241 245.421 518.607 245.3 518.779 245.068C521.204 241.745 524.682 240.259 528.561 239.59C534.131 238.629 539.685 238.764 545.077 240.575C553.241 243.313 557.159 250.109 555.637 258.57C554.878 262.789 553.256 266.669 551.19 270.398C550.853 271.005 550.641 271.772 550.647 272.459C550.682 275.545 550.52 278.614 549.093 281.403C548.194 283.155 546.936 284.72 545.872 286.389C545.615 286.793 545.337 287.273 545.32 287.73C545.255 289.422 545.317 291.12 545.287 292.813C545.266 293.974 545.789 294.652 546.891 295.012C550.115 296.061 553.326 297.149 556.538 298.234C562.06 300.097 565.381 303.874 566.421 309.62C566.445 309.756 566.533 309.882 566.592 310.012V315.761V315.758ZM516.968 249.737C515.083 250.701 513.611 253.069 513.398 255.463C512.982 260.1 514.846 263.944 517.718 267.388C518.38 268.184 518.646 268.977 518.664 269.988C518.705 272.45 518.575 274.962 519.003 277.364C520.182 283.983 526.608 288.962 533.286 288.694C540.4 288.408 546.389 283.237 547.063 276.394C547.447 272.485 547.216 268.52 547.302 264.581C547.355 262.161 546.227 260.469 544.108 259.487C543.056 258.998 541.872 258.564 540.734 258.532C535.457 258.381 530.177 258.367 524.898 258.331C523.943 258.325 523.317 258.868 523.01 259.767C522.714 260.637 522.448 261.521 522.126 262.379C521.73 263.429 520.885 263.856 519.949 263.532C519.101 263.237 518.696 262.37 518.989 261.341C519.21 260.563 519.5 259.805 519.76 259.039C520.708 256.253 522.428 255.009 525.391 255C529.084 254.991 532.777 254.953 536.471 255.015C538.421 255.047 540.4 255.082 542.309 255.433C546.094 256.129 549.031 258.028 550.277 261.904C550.437 262.4 550.54 262.916 550.723 263.623C551.808 260.94 552.487 258.387 552.594 255.719C552.812 250.265 550.174 246.209 545.113 244.109C542.56 243.051 539.874 242.597 537.132 242.45C533.238 242.24 529.368 242.355 525.692 243.856C522.239 245.265 520.15 247.665 520.268 251.601C520.297 252.63 519.609 253.343 518.693 253.378C517.78 253.414 517.053 252.747 516.976 251.724C516.926 251.079 516.968 250.427 516.968 249.734V249.737ZM523.955 289.584C524.059 293.11 524.381 296.589 520.297 298.102C526.821 304.213 538.438 304.64 545.65 298.107C541.488 296.622 541.907 293.072 541.978 289.587C535.936 292.777 530.05 292.801 523.955 289.584V289.584Z" fill="#4271B6"/>
<path d="M304.697 397.242H314.957V356.022H306.737L293.657 364.782L297.737 371.922L304.697 367.602V397.242ZM322.162 397.242H354.262V388.062H337.882L344.362 383.442C351.562 378.522 353.842 374.262 353.842 368.802C353.842 360.942 347.362 355.302 338.122 355.302C331.342 355.302 326.002 358.122 321.622 363.402L328.042 369.762C331.162 366.462 334.042 364.602 337.882 364.602C340.882 364.602 343.342 366.402 343.342 369.222C343.342 371.742 342.022 374.022 337.402 377.502L322.162 388.902V397.242ZM370.761 376.842C377.001 376.842 381.321 372.222 381.321 366.222C381.321 360.402 377.181 355.602 370.761 355.602C364.401 355.602 360.261 360.342 360.261 366.222C360.261 372.222 364.461 376.842 370.761 376.842ZM365.781 397.242H373.521L402.321 356.022H394.581L365.781 397.242ZM370.761 371.022C368.541 371.022 366.861 369.162 366.861 366.222C366.861 363.222 368.481 361.422 370.761 361.422C372.981 361.422 374.721 363.282 374.721 366.222C374.721 369.222 373.041 371.022 370.761 371.022ZM397.221 397.902C403.461 397.902 407.781 393.222 407.781 387.282C407.781 381.402 403.641 376.602 397.281 376.602C390.981 376.602 386.721 381.282 386.721 387.282C386.721 393.162 390.921 397.902 397.221 397.902ZM397.281 392.082C395.001 392.082 393.321 390.222 393.321 387.282C393.321 384.222 394.941 382.482 397.221 382.482C399.441 382.482 401.181 384.342 401.181 387.282C401.181 390.282 399.501 392.082 397.281 392.082Z" fill="#4271B6"/>
<path d="M313.731 445H316.711L319.971 435.56L323.211 445H326.191L330.351 431.26H327.131L324.611 440.48L321.571 431.26H318.351L315.311 440.48L312.771 431.26H309.571L313.731 445ZM339.165 445.24C343.125 445.24 346.445 441.98 346.445 438.12C346.445 434.26 343.125 431.02 339.165 431.02C335.205 431.02 331.845 434.26 331.845 438.12C331.845 441.98 335.205 445.24 339.165 445.24ZM339.165 442.56C336.845 442.56 334.885 440.52 334.885 438.12C334.885 435.74 336.845 433.7 339.165 433.7C341.465 433.7 343.425 435.74 343.425 438.12C343.425 440.52 341.465 442.56 339.165 442.56ZM349.129 445H352.089V436.44L356.329 444.2L360.589 436.44V445H363.529V431.26H360.589L356.329 439.02L352.089 431.26H349.129V445ZM377.6 433.92V431.26H367.02V445H377.6V442.34H369.98V439.32H376.9V436.66H369.98V433.92H377.6ZM380.458 445H383.418V436.12L390.038 445H392.998V431.26H390.038V440.14L383.418 431.26H380.458V445Z" fill="#1C1C54"/>
<path d="M322 309.683C322.265 308.682 322.457 307.656 322.806 306.686C324.466 302.067 327.648 298.98 332.29 297.408C335.062 296.468 337.839 295.541 340.62 294.63C341.518 294.336 342.194 293.876 342.398 292.69H341.092C337.389 292.69 333.685 292.693 329.981 292.69C328.114 292.686 327.565 292.137 327.565 290.277C327.565 281.276 327.543 272.276 327.568 263.275C327.599 251.139 336.08 241.215 348.024 239.29C360.867 237.22 373.416 246.477 375.262 259.413C375.456 260.785 375.546 262.182 375.549 263.566C375.573 272.412 375.564 281.258 375.561 290.103C375.561 292.232 375.101 292.686 372.975 292.686C369.348 292.686 365.722 292.686 362.095 292.686C361.685 292.686 361.274 292.686 360.82 292.686C360.879 293.922 361.626 294.321 362.509 294.614C365.469 295.603 368.465 296.493 371.37 297.618C377.388 299.947 380.644 304.406 381.086 310.863C381.178 312.21 381.15 313.567 381.12 314.917C381.092 316.085 380.36 316.839 379.382 316.827C378.404 316.814 377.731 316.057 377.669 314.88C377.564 312.918 377.703 310.91 377.326 309.003C376.552 305.079 374.092 302.425 370.404 300.936C369.262 300.476 367.953 299.648 366.938 299.892C365.993 300.117 365.317 301.532 364.558 302.45C361.203 306.507 357.191 309.794 352.805 312.658C351.966 313.208 351.176 313.215 350.333 312.658C345.213 309.272 340.506 305.438 337.012 300.3C336.676 299.805 336.383 299.645 335.787 299.889C334.864 300.269 333.889 300.516 332.947 300.859C328.429 302.499 325.531 306.587 325.472 311.398C325.46 312.402 325.451 313.406 325.472 314.41C325.494 315.39 325.392 316.283 324.321 316.697C323.235 317.12 322.602 316.443 322 315.708C322 313.7 322 311.691 322 309.683ZM342.703 289.136C342.281 288.46 342.095 287.882 341.7 287.576C338.568 285.151 336.423 282.061 335.487 278.211C334.648 274.757 334.858 271.222 335.12 267.722C335.339 264.799 337.426 262.735 338.907 260.411C339.54 259.419 340.549 259.225 341.395 259.784C342.237 260.343 342.401 261.326 341.765 262.333C341.043 263.473 340.176 264.536 339.565 265.729C339.052 266.733 338.602 267.861 338.503 268.967C338.336 270.882 338.401 272.826 338.481 274.754C338.762 281.551 344 286.807 350.956 287.326C357.243 287.795 363.274 283.111 364.373 276.651C364.771 274.315 364.555 271.88 364.675 269.495C364.725 268.519 364.435 267.703 363.678 267.156C361.966 265.917 360.32 264.493 358.432 263.615C353.688 261.412 348.827 259.457 344.003 257.43C342.707 256.886 342.169 256.123 342.518 255.112C342.882 254.065 343.833 253.617 345.074 254.133C350.015 256.178 354.996 258.15 359.83 260.43C362.061 261.483 364.055 263.096 366.03 264.623C367.564 265.809 368.283 267.487 368.157 269.514C368.061 271.052 368.249 272.613 368.107 274.145C367.935 275.974 367.737 277.843 367.209 279.592C366.212 282.901 364.123 285.506 361.391 287.613C361.061 287.87 360.947 288.407 360.734 288.815C361.129 288.948 361.521 289.189 361.916 289.192C364.885 289.223 367.857 289.211 370.827 289.211H372.098C372.098 288.698 372.098 288.324 372.098 287.947C372.098 279.799 372.11 271.649 372.083 263.501C372.077 262.157 371.978 260.797 371.768 259.469C370.04 248.537 358.907 240.727 348.071 242.818C337.87 244.79 331.049 253.058 331.037 263.479C331.028 271.627 331.037 279.778 331.037 287.925C331.037 288.305 331.037 288.682 331.037 289.133H342.707L342.703 289.136ZM340.034 298.399C340.16 298.699 340.185 298.813 340.25 298.9C343.203 302.988 347.003 306.164 351.129 308.979C351.361 309.136 351.938 309.037 352.216 308.849C355.45 306.661 358.429 304.165 361.03 301.242C361.762 300.42 362.41 299.53 363.222 298.514C361.191 297.874 359.071 297.472 358.243 295.588C357.49 293.867 357.296 291.899 356.879 290.15C355.179 290.363 353.318 290.78 351.459 290.774C349.617 290.765 347.777 290.326 345.784 290.057C346.487 294.574 344.818 297.547 340.031 298.402L340.034 298.399Z" fill="#4271B6"/>
<path d="M127.5 397.242H137.76V389.382H142.98V380.862H137.76V356.082H125.28L106.62 381.582L107.52 389.382H127.5V397.242ZM117.24 380.862L127.5 366.702V380.862H117.24ZM163.617 398.022C173.577 398.022 180.057 392.862 180.057 385.602C180.057 380.322 176.097 377.082 171.477 376.002C176.097 374.682 179.157 371.202 179.157 366.582C179.157 360.102 173.277 355.302 163.557 355.302C155.937 355.302 150.897 358.482 147.357 362.622L153.117 368.862C155.817 366.222 158.817 364.482 162.477 364.482C166.197 364.482 168.657 365.982 168.657 368.502C168.657 370.902 166.437 372.282 162.297 372.222H157.437V380.862L162.297 380.802C167.577 380.802 169.497 382.122 169.497 384.702C169.497 387.102 167.217 388.842 163.077 388.842C159.237 388.842 155.397 387.342 152.397 384.342L146.517 391.122C150.177 395.202 155.997 398.022 163.617 398.022ZM196.252 376.842C202.492 376.842 206.812 372.222 206.812 366.222C206.812 360.402 202.672 355.602 196.252 355.602C189.892 355.602 185.752 360.342 185.752 366.222C185.752 372.222 189.952 376.842 196.252 376.842ZM191.272 397.242H199.012L227.812 356.022H220.072L191.272 397.242ZM196.252 371.022C194.032 371.022 192.352 369.162 192.352 366.222C192.352 363.222 193.972 361.422 196.252 361.422C198.472 361.422 200.212 363.282 200.212 366.222C200.212 369.222 198.532 371.022 196.252 371.022ZM222.712 397.902C228.952 397.902 233.272 393.222 233.272 387.282C233.272 381.402 229.132 376.602 222.772 376.602C216.472 376.602 212.212 381.282 212.212 387.282C212.212 393.162 216.412 397.902 222.712 397.902ZM222.772 392.082C220.492 392.082 218.812 390.222 218.812 387.282C218.812 384.222 220.432 382.482 222.712 382.482C224.932 382.482 226.672 384.342 226.672 387.282C226.672 390.282 224.992 392.082 222.772 392.082Z" fill="#4271B6"/>
<path d="M148.689 445H151.649V436.44L155.889 444.2L160.149 436.44V445H163.089V431.26H160.149L155.889 439.02L151.649 431.26H148.689V445ZM177.159 433.92V431.26H166.579V445H177.159V442.34H169.539V439.32H176.459V436.66H169.539V433.92H177.159ZM180.017 445H182.977V436.12L189.597 445H192.557V431.26H189.597V440.14L182.977 431.26H180.017V445Z" fill="#1C1C54"/>
<path d="M170.587 309.466C169.942 309.935 166.399 312.405 165.355 313.212C164.355 313.988 163.246 314.689 161.986 314.367C161.044 314.126 159.991 313.628 159.375 312.905C156.946 310.048 154.667 307.062 152.347 304.113C152.081 303.775 151.901 303.375 151.619 302.899C148.825 303.772 145.991 304.527 143.26 305.563C141.494 306.232 140.58 312.608 140.58 314.552C140.58 317.96 137 317.159 137 314.649C137 309.963 139.066 302.965 143.507 301.606C146.728 300.62 149.95 299.625 153.186 298.692C154.044 298.445 154.623 298.016 155.107 297.265C155.862 296.094 156.373 294.601 158.046 294.501C158.408 292.852 157.959 291.756 156.658 290.623C152.731 287.196 150.51 282.758 149.823 277.534C149.764 277.089 149.377 276.517 148.986 276.313C145.229 274.363 144.334 269.963 147.035 266.685C147.348 266.304 147.512 265.69 147.524 265.183C147.59 261.778 147.422 258.357 147.651 254.964C148.29 245.646 155.156 239.167 164.417 239.045C169.812 238.976 175.211 238.995 180.606 239.045C184.481 239.079 187.259 240.841 188.696 244.579C188.833 244.929 189.059 245.242 189.35 245.477C192.144 247.718 193.429 250.654 193.42 254.216C193.41 257.887 193.398 261.559 193.441 265.23C193.448 265.703 193.689 266.397 193.993 266.761C196.591 269.875 195.718 274.445 192.091 276.204C191.416 276.529 191.156 276.914 191.075 277.618C190.468 282.861 188.176 287.268 184.236 290.68C182.945 291.797 182.629 292.902 182.948 294.501C184.571 294.614 185.088 296.044 185.819 297.193C186.321 297.979 186.909 298.442 187.82 298.702C191.248 299.681 194.665 300.717 198.062 301.807C201.652 302.958 203.935 309.857 203.932 313.3C203.932 314.505 203.362 315.234 202.358 315.325C201.324 315.416 200.525 314.833 200.429 313.653C200.206 310.93 198.657 305.647 196.182 304.971C193.89 304.345 191.629 303.616 189.52 302.98C186.77 306.439 184.137 309.838 181.399 313.153C180.173 314.639 178.339 314.871 176.66 313.866C175.539 313.196 174.526 312.345 173.461 311.578C173.12 311.334 171.101 309.829 170.587 309.466ZM151.08 264.698C151.935 264.698 152.53 264.651 153.118 264.707C153.948 264.786 154.311 264.501 154.447 263.621C154.726 261.843 155.122 260.084 155.503 258.325C156.132 255.424 157.978 254.231 160.83 254.92C168.004 256.654 175.118 256.626 182.164 254.256C183.505 253.806 184.5 254.206 184.825 255.249C185.162 256.325 184.62 257.17 183.285 257.668C179.906 258.929 176.4 259.502 172.817 259.659C168.558 259.847 164.333 259.621 160.198 258.472C159.406 258.253 159.037 258.444 158.91 259.299C158.721 260.563 158.377 261.806 158.198 263.073C157.606 267.221 156.209 268.585 151.954 268.31C151.873 268.304 151.796 268.31 151.715 268.31C150.197 268.347 149.175 269.202 149.076 270.517C148.971 271.9 149.745 272.845 151.257 273.171C152.811 273.509 153.127 273.875 153.254 275.512C153.285 275.913 153.316 276.31 153.357 276.711C154.276 285.966 161.921 292.664 171.262 292.401C180.012 292.157 187.312 284.755 187.696 275.744C187.776 273.887 188.058 273.524 189.833 273.158C190.864 272.945 191.53 272.385 191.815 271.343C192.106 270.272 191.76 269.421 190.917 268.814C190.081 268.21 189.821 267.449 189.83 266.444C189.864 262.394 189.824 258.344 189.852 254.297C189.87 251.706 188.901 249.671 186.832 248.103C186.243 247.655 185.726 246.942 185.481 246.241C184.651 243.859 183.236 242.672 180.73 242.66C175.217 242.629 169.701 242.582 164.188 242.672C158.396 242.766 153.62 246.225 151.864 251.571C150.467 255.825 151.377 260.228 151.08 264.704V264.698ZM170.484 304.714C172.919 302.664 175.226 300.511 177.757 298.664C179.442 297.434 179.398 295.982 179.144 294.148C173.34 296.705 167.573 296.63 161.725 294.135C161.725 295.021 161.667 295.706 161.747 296.373C161.803 296.843 161.917 297.447 162.236 297.722C164.94 300.073 167.694 302.361 170.488 304.714H170.484ZM155.791 302.689C157.857 305.306 159.845 307.844 161.868 310.351C162.035 310.558 162.571 310.746 162.72 310.639C164.346 309.475 165.928 308.248 167.595 306.984C164.398 304.292 161.338 301.716 158.195 299.065C157.371 300.307 156.606 301.462 155.788 302.689H155.791ZM178.621 310.971C180.845 308.167 183.01 305.437 185.184 302.696C184.366 301.459 183.601 300.307 182.777 299.062C179.615 301.725 176.533 304.323 173.374 306.99C175.118 308.314 176.759 309.556 178.624 310.971H178.621Z" fill="#4271B6"/>
</svg>
