<?xml version="1.0" encoding="utf-8"?>
<!-- Generator: Adobe Illustrator 27.3.0, SVG Export Plug-In . SVG Version: 6.00 Build 0)  -->
<svg version="1.1" id="Layer_1" xmlns="http://www.w3.org/2000/svg" xmlns:xlink="http://www.w3.org/1999/xlink" x="0px" y="0px"
	 viewBox="0 0 83 20" style="enable-background:new 0 0 83 20;" xml:space="preserve">
<style type="text/css">
	.st0{fill:#583586;}
	.st1{fill:#DFB317;}
	.st2{fill:#66C9BA;}
	.st3{fill:#009ADE;}
	.st4{fill:#D50057;}
	.st5{fill:#C19ADE;}
	.st6{fill:#FFFFFF;}
</style>
<g shape-rendering="crispEdges">
	<path class="st0" d="M0,0h48v20H0V0z"/>
	<path class="st1" d="M48,0h35v20H48V0z"/>
</g>
<path class="st2" d="M14.9,6.5L14.9,6.5c0.1,0.1,0.2,0.2,0.3,0.3c0.4,0.4,0.7,0.9,1,1.4c0,0.1,0.1,0.2,0.1,0.2l0,0.1
	c0,0.1,0,0.1,0.1,0.2c0,0,0,0,0,0c0,0.1,0,0.1,0.1,0.2c0,0,0,0,0,0c0,0.1,0,0.2,0,0.2h1.9c0-0.1,0-0.2,0-0.3c0,0,0,0,0-0.1
	c0-0.1,0-0.2-0.1-0.3c0,0,0,0,0,0C18.2,8.3,18.1,8,18,7.7c0,0,0,0,0,0c0-0.1-0.1-0.2-0.1-0.3c0,0,0,0,0-0.1c-0.2-0.4-0.4-0.7-0.6-1
	l0-0.1L17.1,6c0,0,0,0,0,0c-0.2-0.2-0.4-0.4-0.6-0.7c0,0,0,0,0,0c-0.1-0.1-0.1-0.1-0.2-0.2c0,0,0,0-0.1,0C16.1,5,16,4.9,15.9,4.9
	L14.9,6.5z"/>
<path class="st3" d="M10.5,5.8c0.1,0,0.2-0.1,0.4-0.1c0,0,0,0,0,0c0.1,0,0.2-0.1,0.4-0.1c0,0,0,0,0,0c0.1,0,0.2,0,0.4,0c0,0,0,0,0,0
	c0.1,0,0.3,0,0.4,0c0.1,0,0.3,0,0.4,0c0,0,0,0,0,0c0.1,0,0.2,0,0.4,0c0,0,0,0,0,0c0.1,0,0.2,0,0.3,0.1c0,0,0,0,0,0
	c0.1,0,0.2,0.1,0.4,0.1l0,0l0.9-1.6c-0.1,0-0.2-0.1-0.3-0.1c0,0,0,0-0.1,0l-0.3-0.1c0,0-0.1,0-0.1,0c-0.2,0-0.3-0.1-0.5-0.1
	c0,0-0.1,0-0.1,0c-0.1,0-0.1,0-0.2,0c-0.1,0-0.1,0-0.2,0c-0.1,0-0.1,0-0.2,0c-0.1,0-0.2,0-0.2,0c0,0-0.1,0-0.1,0c-0.1,0-0.2,0-0.4,0
	c-0.1,0-0.2,0-0.4,0c0,0-0.1,0-0.1,0c-0.1,0-0.2,0-0.2,0c-0.1,0-0.1,0-0.2,0c-0.1,0-0.1,0-0.2,0c-0.1,0-0.1,0-0.2,0c0,0-0.1,0-0.1,0
	c-0.2,0-0.3,0.1-0.5,0.1c0,0-0.1,0-0.1,0C10,3.9,9.9,3.9,9.8,4c0,0,0,0-0.1,0c-0.1,0-0.2,0.1-0.3,0.1L10.5,5.8L10.5,5.8z"/>
<path class="st4" d="M8.1,12.3L8.1,12.3c0-0.1,0-0.2-0.1-0.3s-0.1-0.2-0.1-0.3c-0.1-0.1-0.1-0.3-0.2-0.4c0-0.1-0.1-0.3-0.1-0.4
	c-0.1-0.3-0.1-0.6-0.1-0.9c0-0.3,0-0.6,0.1-0.9c0-0.1,0.1-0.3,0.1-0.4c0-0.1,0.1-0.3,0.2-0.4c0.2-0.5,0.6-1,1-1.4
	C9,6.7,9.1,6.6,9.2,6.6l0-0.1L8.2,4.9c0,0-0.1,0.1-0.1,0.1C8,5,8,5.1,7.9,5.1l0,0C7.8,5.2,7.8,5.3,7.7,5.3L7.6,5.4L7.5,5.5
	c0,0-0.1,0.1-0.1,0.1c0,0-0.1,0.1-0.1,0.1c0,0-0.1,0.1-0.1,0.1c0,0-0.1,0.1-0.1,0.1C7,6.1,7,6.1,7,6.1c0,0-0.1,0.1-0.1,0.1
	c0,0-0.1,0.1-0.1,0.1c0,0-0.1,0.1-0.1,0.1c0,0-0.1,0.1-0.1,0.1c0,0-0.1,0.1-0.1,0.1L6.5,6.9c0,0,0,0.1-0.1,0.1c0,0,0,0.1-0.1,0.1
	c0,0,0,0.1-0.1,0.1c0,0,0,0.1-0.1,0.1L6.1,7.6c0,0,0,0.1-0.1,0.1c0,0,0,0.1,0,0.1C6,7.9,6,8,6,8c0,0,0,0.1,0,0.1
	c-0.1,0.3-0.2,0.7-0.2,1c0,0,0,0,0,0c0,0.1,0,0.2,0,0.2c0,0,0,0,0,0.1c0,0.1,0,0.1,0,0.2c0,0,0,0,0,0.1c0,0.1,0,0.1,0,0.2v0.3
	c0,0.1,0,0.2,0,0.2c0,0,0,0,0,0c0,0.1,0,0.2,0,0.2c0,0,0,0,0,0c0,0.1,0,0.2,0,0.3c0,0,0,0,0,0c0.1,0.8,0.5,1.7,0.9,2.4L8.1,12.3z"/>
<path class="st5" d="M17.3,13.7c0-0.1,0.1-0.1,0.1-0.2c0,0,0,0,0,0c0-0.1,0.1-0.1,0.1-0.2c0,0,0,0,0,0c0.4-0.7,0.7-1.6,0.8-2.5h-1.9
	c0,0.1,0,0.2,0,0.2c0,0,0,0,0,0c0,0.1,0,0.1-0.1,0.2c0,0,0,0,0,0c0,0.1,0,0.1-0.1,0.2c0,0,0,0,0,0c0,0.1-0.1,0.2-0.1,0.2
	c-0.1,0.1-0.1,0.3-0.2,0.4c-0.2,0.4-0.5,0.7-0.8,1c-0.2,0.2-0.4,0.4-0.7,0.5S14,14,13.8,14.1c-0.2,0.1-0.4,0.2-0.6,0.2
	c-0.4,0.1-0.7,0.1-1.1,0.1c-0.6,0-1.2-0.1-1.7-0.4C10.2,14.1,10,14,9.9,14c0,0-0.1,0-0.1-0.1c-0.1,0-0.1-0.1-0.2-0.1
	c-0.1,0-0.1-0.1-0.2-0.1c0,0-0.1-0.1-0.1-0.1c-0.1,0-0.1-0.1-0.2-0.1l-0.1,0l-1.4,1.2c0.1,0.1,0.3,0.2,0.4,0.4c0,0,0,0,0.1,0
	c0.1,0,0.1,0.1,0.2,0.1c0,0,0.1,0,0.1,0.1c0,0,0.1,0.1,0.2,0.1c0,0,0.1,0,0.1,0.1c0,0,0.1,0.1,0.2,0.1c0,0,0.1,0,0.1,0.1
	c0,0,0.1,0.1,0.2,0.1c0,0,0.1,0,0.1,0.1c0,0,0.1,0,0.2,0.1c0,0,0.1,0,0.1,0.1c0,0,0.1,0,0.1,0.1c0.1,0,0.2,0.1,0.3,0.1
	c0,0,0.1,0,0.1,0c0.1,0,0.1,0,0.2,0.1c0,0,0.1,0,0.1,0c0.1,0,0.1,0,0.2,0c0,0,0.1,0,0.1,0l0.2,0c0,0,0.1,0,0.1,0c0.1,0,0.1,0,0.2,0
	c0,0,0.1,0,0.1,0l0.2,0c0,0,0.1,0,0.1,0c0.1,0,0.2,0,0.3,0c0.1,0,0.2,0,0.3,0c0,0,0.1,0,0.1,0c0.1,0,0.1,0,0.2,0c0,0,0.1,0,0.1,0
	c0.1,0,0.1,0,0.2,0c0,0,0.1,0,0.1,0c0.1,0,0.1,0,0.2,0c0,0,0.1,0,0.1,0l0.2,0c0,0,0.1,0,0.1,0c0,0,0.1,0,0.2,0c0,0,0.1,0,0.1,0
	c0,0,0.1,0,0.1,0c0,0,0.1,0,0.1,0c0,0,0.1,0,0.1-0.1c0,0,0.1,0,0.1-0.1c0,0,0.1,0,0.1-0.1c0,0,0.1,0,0.1-0.1c0,0,0.1,0,0.1-0.1
	c0,0,0.1,0,0.1-0.1c0,0,0.1,0,0.1-0.1c0,0,0.1-0.1,0.2-0.1c0,0,0,0,0.1,0c0.3-0.2,0.6-0.4,0.8-0.6c0,0,0,0,0,0
	c0.1,0,0.1-0.1,0.2-0.2l0,0l0.2-0.2c0,0,0,0,0,0l0.1-0.2c0,0,0,0,0,0c0-0.1,0.1-0.1,0.1-0.2c0,0,0,0,0,0
	C17.1,13.9,17.2,13.8,17.3,13.7C17.2,13.7,17.3,13.7,17.3,13.7L17.3,13.7z"/>
<path text-rendering="geometricPrecision" class="st6" d="M30.9,10c0,0.7-0.2,1.4-0.5,2c-0.3,0.6-0.7,1-1.3,1.4
	c-0.4,0.2-0.8,0.4-1.2,0.5c-0.4,0.1-1,0.2-1.8,0.2h-2V6h2c0.8,0,1.4,0.1,1.9,0.2c0.5,0.1,0.9,0.3,1.2,0.5c0.5,0.3,1,0.8,1.3,1.4
	C30.7,8.6,30.9,9.2,30.9,10z M29.7,10c0-0.6-0.1-1.2-0.3-1.6c-0.2-0.4-0.5-0.8-1-1c-0.3-0.2-0.6-0.3-1-0.4c-0.4-0.1-0.8-0.1-1.3-0.1
	h-1v6.2h1c0.5,0,1,0,1.3-0.1c0.4-0.1,0.7-0.2,1.1-0.4c0.4-0.3,0.7-0.6,0.9-1C29.6,11.1,29.7,10.6,29.7,10z M35.7,7.6
	c0-0.3-0.1-0.6-0.3-0.8c-0.2-0.2-0.5-0.3-0.8-0.3c-0.3,0-0.6,0.1-0.8,0.3c-0.2,0.2-0.3,0.5-0.3,0.8c0,0.3,0.1,0.5,0.2,0.7
	c0.1,0.2,0.4,0.5,0.9,0.7C35,9,35.3,8.8,35.4,8.5C35.6,8.3,35.7,8,35.7,7.6z M36.8,12.3l-2.6-2.5C34.1,9.9,34,9.9,33.9,10
	c-0.1,0.1-0.2,0.2-0.3,0.4c-0.1,0.1-0.2,0.3-0.2,0.5c-0.1,0.2-0.1,0.4-0.1,0.7c0,0.5,0.2,0.9,0.5,1.3c0.3,0.3,0.7,0.5,1.3,0.5
	c0.3,0,0.7-0.1,1-0.2C36.3,12.9,36.5,12.6,36.8,12.3z M38.4,9.1v0.5c0,0.3,0,0.7-0.1,1.2c-0.1,0.4-0.2,0.8-0.5,1.2l2,2h-1.3
	l-1.2-1.2c-0.4,0.5-0.8,0.9-1.3,1.1c-0.4,0.2-0.9,0.3-1.3,0.3c-0.7,0-1.4-0.2-1.9-0.6c-0.5-0.4-0.7-1-0.7-1.7c0-0.3,0-0.6,0.1-0.9
	c0.1-0.2,0.2-0.4,0.3-0.6c0.1-0.2,0.3-0.3,0.5-0.5c0.2-0.2,0.4-0.3,0.6-0.4c-0.4-0.3-0.7-0.5-0.9-0.8c-0.2-0.3-0.3-0.6-0.3-1
	c0-0.2,0-0.5,0.1-0.7c0.1-0.2,0.2-0.4,0.4-0.6c0.2-0.2,0.4-0.3,0.7-0.4c0.3-0.1,0.6-0.2,1-0.2c0.6,0,1.1,0.2,1.5,0.5
	c0.4,0.3,0.6,0.7,0.6,1.2c0,0.2,0,0.3-0.1,0.5c0,0.2-0.1,0.4-0.2,0.5c-0.1,0.2-0.3,0.3-0.5,0.5c-0.2,0.2-0.5,0.3-0.8,0.4l2,1.9
	c0.1-0.1,0.1-0.3,0.1-0.5c0-0.2,0-0.4,0-0.5c0-0.2,0-0.4,0-0.7V9.1L38.4,9.1z M43.3,14h-3.2v-0.8h1V6.8h-1V6h3.2v0.8h-1v6.4h1V14z
	 M59.8,13.4c-0.4,0.2-0.9,0.4-1.4,0.5c-0.5,0.1-1,0.2-1.5,0.2c-0.6,0-1.2-0.1-1.7-0.3c-0.5-0.2-1-0.4-1.3-0.8
	c-0.4-0.3-0.7-0.8-0.9-1.3c-0.2-0.5-0.3-1.1-0.3-1.8c0-1.3,0.4-2.3,1.1-3c0.7-0.7,1.8-1.1,3.1-1.1c0.5,0,0.9,0.1,1.4,0.2
	c0.5,0.1,1,0.3,1.5,0.6v1.3h-0.1c-0.1-0.1-0.3-0.2-0.5-0.3c-0.2-0.1-0.4-0.3-0.6-0.3C58.3,7,58,6.9,57.7,6.9
	c-0.3-0.1-0.7-0.1-1.1-0.1c-0.9,0-1.6,0.3-2.1,0.9C54,8.2,53.7,9,53.7,10c0,1,0.3,1.8,0.8,2.4c0.5,0.6,1.3,0.9,2.2,0.9
	c0.3,0,0.7,0,1-0.1c0.3-0.1,0.6-0.2,0.9-0.3v-2h-2.1V10h3.2L59.8,13.4z M66.6,11c0,1-0.3,1.7-0.8,2.3c-0.5,0.6-1.2,0.8-2,0.8
	c-0.8,0-1.5-0.3-2-0.8c-0.5-0.6-0.7-1.3-0.7-2.3c0-1,0.2-1.7,0.7-2.3c0.5-0.6,1.2-0.9,2-0.9c0.8,0,1.5,0.3,2,0.9
	C66.4,9.3,66.6,10,66.6,11z M65.6,11c0-0.8-0.2-1.4-0.5-1.7c-0.3-0.4-0.7-0.6-1.3-0.6c-0.5,0-1,0.2-1.3,0.6c-0.3,0.4-0.5,1-0.5,1.7
	c0,0.8,0.2,1.3,0.5,1.7c0.3,0.4,0.7,0.6,1.3,0.6c0.5,0,1-0.2,1.3-0.6C65.4,12.3,65.6,11.8,65.6,11z M69.2,14h-1V5.6h1V14z M76,14h-1
	v-0.6c-0.3,0.3-0.6,0.4-0.9,0.6c-0.3,0.1-0.7,0.2-1,0.2c-0.7,0-1.3-0.3-1.7-0.8C71,12.8,70.7,12,70.7,11c0-0.5,0.1-1,0.2-1.4
	c0.1-0.4,0.3-0.7,0.6-1c0.2-0.3,0.5-0.5,0.8-0.6c0.3-0.1,0.7-0.2,1-0.2c0.3,0,0.6,0,0.8,0.1C74.5,8,74.7,8.1,75,8.2V5.6h1L76,14z
	 M75,12.5V9.1c-0.3-0.1-0.5-0.2-0.7-0.3c-0.2,0-0.4-0.1-0.7-0.1c-0.6,0-1,0.2-1.3,0.6c-0.3,0.4-0.5,1-0.5,1.7c0,0.7,0.1,1.3,0.4,1.6
	c0.2,0.4,0.6,0.6,1.2,0.6c0.3,0,0.6-0.1,0.9-0.2C74.5,12.9,74.8,12.7,75,12.5z"/>
</svg>
