<svg width="216" height="47" viewBox="0 0 216 47" fill="none" xmlns="http://www.w3.org/2000/svg">
<path d="M86.8295 18.1047H93.8915C92.7135 10.6195 86.2126 5.40578 77.7525 5.40578C67.7424 5.40578 60.231 12.7427 60.231 25.0306C60.231 37.099 67.4045 44.5843 77.9571 44.5843C87.4278 44.5843 94.2077 38.5114 94.2077 28.6805V24.1003H78.6856V29.4995H87.5022C87.3906 34.9388 83.7481 38.3816 77.9943 38.3816C71.5896 38.3816 67.1999 33.5975 67.1999 24.9564C67.1999 16.3709 71.664 11.6054 77.8455 11.6054C82.4584 11.6054 85.6143 14.0623 86.8295 18.1047ZM98.8764 44.062H105.638V15.4747H98.8764V44.062ZM102.286 10.9316C104.435 10.9316 106.189 9.29056 106.189 7.28173C106.189 5.27289 104.435 3.61328 102.286 3.61328C100.138 3.61328 98.3649 5.25126 98.3649 7.28173C98.3649 9.3122 100.107 10.9316 102.274 10.9316H102.286ZM125.884 15.4747H120.223V8.60756H113.462V15.4747H109.392V20.6884H113.462V36.5922C113.425 41.9728 117.35 44.6276 122.428 44.4699C123.78 44.4431 125.122 44.2171 126.408 43.7993L125.267 38.5269C124.621 38.694 123.957 38.7822 123.289 38.7896C121.587 38.7896 120.223 38.1931 120.223 35.4734V20.6729H125.884V15.4747ZM131.117 44.062H154.895V38.2704H138.049V5.92499H131.117V44.062ZM167.847 44.6399C172.348 44.6399 175.036 42.5353 176.27 40.1339H176.493V44.062H183.003V24.9193C183.003 17.3599 176.821 15.0884 171.347 15.0884C165.314 15.0884 160.682 17.7679 159.188 22.9816L165.503 23.8778C166.173 21.9215 168.079 20.2465 171.393 20.2465C174.533 20.2465 176.251 21.8473 176.251 24.6597V24.771C176.251 26.7056 174.214 26.8014 169.152 27.3392C163.587 27.9357 158.264 29.5922 158.264 36.0359C158.246 41.6607 162.372 44.6399 167.847 44.6399ZM170.069 39.6951C167.248 39.6951 165.23 38.4094 165.23 35.9339C165.23 33.3441 167.49 32.2655 170.5 31.8359C172.277 31.5948 175.826 31.1467 176.7 30.4421V33.8107C176.719 36.9847 174.14 39.6858 170.069 39.6858V39.6951ZM187.982 44.062H194.631V39.556H195.022C196.088 41.6421 198.311 44.5657 203.243 44.5657C210.004 44.5657 215.067 39.2191 215.067 29.7992C215.067 20.265 209.856 15.0884 203.225 15.0884C198.162 15.0884 196.051 18.1233 195.022 20.1908H194.737V5.92499H187.982V44.062ZM194.613 29.7622C194.613 24.1992 197.003 20.6173 201.355 20.6173C205.857 20.6173 208.175 24.4341 208.175 29.7622C208.175 35.0902 205.822 39.0337 201.355 39.0337C197.04 39.0337 194.613 35.3096 194.613 29.7622Z" fill="#171321"/>
<path d="M47.4834 18.9892L47.4183 18.8161L40.8462 1.72554C40.7132 1.38996 40.4765 1.10529 40.1704 0.912729C39.942 0.76697 39.6825 0.676582 39.4128 0.648807C39.143 0.621031 38.8705 0.656643 38.617 0.752787C38.3636 0.84893 38.1362 1.00293 37.9532 1.20245C37.7702 1.40196 37.6367 1.64145 37.5632 1.9017L33.127 15.4413H15.1622L10.726 1.9017C10.652 1.64183 10.5181 1.4028 10.335 1.20367C10.1519 1.00454 9.92466 0.850807 9.67141 0.754741C9.41816 0.658676 9.1459 0.622933 8.87633 0.650363C8.60677 0.677793 8.34736 0.767636 8.1188 0.912729C7.8127 1.10529 7.57601 1.38996 7.44299 1.72554L0.873948 18.8192L0.805746 18.9892C-0.140003 21.4533 -0.256515 24.1571 0.473772 26.693C1.20406 29.2288 2.74156 31.4593 4.85444 33.0479L4.87924 33.0665L4.93504 33.1097L14.9327 40.5795L19.8929 44.316L22.9061 46.5875C23.2597 46.8537 23.6907 46.9978 24.1337 46.9978C24.5768 46.9978 25.0078 46.8537 25.3614 46.5875L28.3746 44.316L33.3347 40.5795L43.4037 33.0665L43.4316 33.0448C45.5444 31.4568 47.0821 29.2271 47.8129 26.6918C48.5437 24.1566 48.4281 21.4532 47.4834 18.9892Z" fill="#E24329"/>
<path d="M47.4836 18.9895L47.4185 18.8164C44.2164 19.4715 41.1993 20.8245 38.5833 22.7785L24.1525 33.6571L33.3411 40.5798L43.4101 33.0668L43.438 33.0452C45.5497 31.4563 47.0861 29.2262 47.8158 26.691C48.5455 24.1558 48.4289 21.4528 47.4836 18.9895Z" fill="#FC6D26"/>
<path d="M14.9327 40.579L19.8928 44.3154L22.9061 46.587C23.2597 46.8532 23.6907 46.9973 24.1337 46.9973C24.5768 46.9973 25.0078 46.8532 25.3614 46.587L28.3746 44.3154L33.3347 40.579L24.1461 33.6562L14.9327 40.579Z" fill="#FCA326"/>
<path d="M9.70604 22.7793C7.091 20.8263 4.07488 19.4743 0.873948 18.8203L0.805746 18.9903C-0.140003 21.4544 -0.256515 24.1582 0.473772 26.6941C1.20406 29.23 2.74156 31.4604 4.85444 33.0491L4.87924 33.0676L4.93504 33.1109L14.9327 40.5806L24.1275 33.6579L9.70604 22.7793Z" fill="#FC6D26"/>
</svg>
