<svg width="46" height="56" viewBox="0 0 46 56" fill="none" xmlns="http://www.w3.org/2000/svg">
<path d="M42.8838 22.9419C42.8838 37.8983 22.9419 52.8547 22.9419 52.8547C22.9419 52.8547 3 37.8983 3 22.9419C3 17.653 5.10102 12.5807 8.84085 8.84085C12.5807 5.10102 17.653 3 22.9419 3C28.2308 3 33.3031 5.10102 37.0429 8.84085C40.7828 12.5807 42.8838 17.653 42.8838 22.9419V22.9419Z" stroke="#4271B6" stroke-width="5" stroke-linecap="round" stroke-linejoin="round"/>
<path d="M22.942 30.4193C27.0721 30.4193 30.4202 27.0712 30.4202 22.9411C30.4202 18.811 27.0721 15.4629 22.942 15.4629C18.8119 15.4629 15.4637 18.811 15.4637 22.9411C15.4637 27.0712 18.8119 30.4193 22.942 30.4193Z" stroke="#1E1D40" stroke-width="5" stroke-linecap="round" stroke-linejoin="round"/>
</svg>
