<svg width="320" height="78" viewBox="0 0 320 78" fill="none" xmlns="http://www.w3.org/2000/svg">
<path d="M0.375 0.371094H184.712V77.1283H0.375V0.371094Z" fill="#583586"/>
<path d="M184.712 0.371094H319.124V77.1283H184.712V0.371094Z" fill="#DFB317"/>
<path d="M57.7773 25.2807L57.6589 25.4935C58.0612 25.8246 58.4635 26.1793 58.8421 26.534C60.4038 28.0947 61.6579 29.9155 62.5571 32.0202C62.6754 32.3039 62.7937 32.6113 62.912 32.8951L62.983 33.1079C63.0776 33.3444 63.1486 33.5809 63.2196 33.841C63.2433 33.8883 63.2433 33.9592 63.267 34.0065C63.3379 34.2666 63.4089 34.5504 63.4799 34.8105C63.4799 34.8342 63.5036 34.8815 63.5036 34.9051C63.5746 35.2125 63.6455 35.5199 63.6929 35.8273H71.0519C71.0046 35.449 70.9573 35.0706 70.9099 34.7159C70.8863 34.6213 70.8863 34.5504 70.8626 34.4558C70.7916 34.1011 70.7443 33.7228 70.6496 33.368C70.6496 33.3208 70.626 33.2735 70.6023 33.2025C70.343 32.0709 70.0111 30.9572 69.6085 29.8683C69.5848 29.7973 69.5611 29.75 69.5375 29.6791C69.4192 29.348 69.2772 29.017 69.1352 28.6859C69.1116 28.615 69.0642 28.5204 69.0406 28.4494C68.4017 27.0543 67.6445 25.7064 66.7453 24.4767L66.6033 24.2639L65.9645 23.4126C65.9171 23.3653 65.8935 23.318 65.8461 23.2707C65.1126 22.3721 64.3081 21.5445 63.4562 20.7405C63.4089 20.7168 63.3852 20.6695 63.3379 20.6223C63.054 20.3858 62.7937 20.1493 62.5097 19.9128C62.4388 19.8655 62.3677 19.7946 62.2968 19.7473C62.0128 19.5108 61.7052 19.2744 61.3976 19.0615L57.7773 25.2807Z" fill="#66C9BA"/>
<path d="M40.6219 22.5846C41.0715 22.4191 41.5211 22.2772 41.9944 22.1353C42.0417 22.1353 42.0654 22.1117 42.1126 22.1117C42.5623 21.9935 43.0119 21.8989 43.4615 21.8043C43.5324 21.8043 43.5797 21.7806 43.6507 21.7806C44.1003 21.7097 44.5499 21.6387 45.0232 21.5914C45.0705 21.5914 45.1415 21.5914 45.1888 21.5678C45.6621 21.5205 46.159 21.4969 46.6322 21.4969C47.1291 21.4969 47.6024 21.5205 48.0756 21.5678C48.1229 21.5678 48.1939 21.5678 48.2413 21.5914C48.6909 21.6387 49.1404 21.686 49.59 21.7807C49.661 21.7807 49.732 21.8043 49.7793 21.8043C50.2289 21.8752 50.6785 21.9935 51.1044 22.1117C51.1518 22.1353 51.1991 22.1353 51.2464 22.159C51.696 22.2772 52.1456 22.4191 52.5952 22.6083L52.7134 22.4191L56.2628 16.1999C55.9316 16.058 55.5766 15.9161 55.2217 15.7742C55.1271 15.727 55.0324 15.7033 54.9377 15.656L53.9439 15.3013C53.8256 15.2777 53.7309 15.2303 53.6127 15.2067C52.9974 15.0175 52.3585 14.852 51.7433 14.7101C51.6487 14.6865 51.5303 14.6628 51.4357 14.6392C51.1991 14.5919 50.9624 14.5446 50.7495 14.521C50.4892 14.4736 50.2525 14.4263 49.9923 14.4027C49.7793 14.3791 49.59 14.3554 49.3771 14.3317C49.0694 14.2845 48.7855 14.2608 48.4779 14.2372C48.3122 14.2135 48.1466 14.2135 47.981 14.1899C47.5077 14.1662 47.0345 14.1426 46.5612 14.1426C46.088 14.1426 45.6147 14.1662 45.1415 14.1899C44.9759 14.1899 44.8102 14.2135 44.6446 14.2372C44.3369 14.2608 44.053 14.2845 43.7454 14.3317C43.5324 14.3554 43.3431 14.3791 43.1302 14.4027C42.8699 14.45 42.6332 14.4736 42.373 14.5209C42.1363 14.5682 41.8997 14.5919 41.6867 14.6392C41.5921 14.6628 41.4738 14.6865 41.3791 14.7101C40.7639 14.852 40.125 15.0175 39.5098 15.2067C39.3915 15.2303 39.2969 15.2777 39.1785 15.3013C38.8473 15.4195 38.516 15.5141 38.1847 15.656C38.0901 15.6796 37.9954 15.727 37.9007 15.7742C37.5458 15.9161 37.2145 16.058 36.8596 16.1999L40.5036 22.3954L40.6219 22.5846Z" fill="#009ADE"/>
<path d="M31.5355 47.603L31.7248 47.4374C31.5355 47.13 31.3698 46.8226 31.2042 46.4916C31.0386 46.1605 30.8729 45.8058 30.7073 45.4747C30.4707 44.9545 30.2814 44.4106 30.1157 43.8904C29.9501 43.3465 29.8081 42.8026 29.6898 42.2351C29.4532 41.1237 29.3585 39.9649 29.3585 38.759C29.3585 37.5766 29.4768 36.4179 29.6898 35.3065C29.8081 34.7389 29.9501 34.195 30.1157 33.6512C30.2814 33.1073 30.4944 32.5634 30.7073 32.0431C31.6065 29.9386 32.8606 28.1178 34.4223 26.557C34.7772 26.2023 35.1558 25.8713 35.5581 25.5402L35.4398 25.3274L31.8667 19.1318C31.7248 19.2264 31.5828 19.3446 31.4409 19.4629C31.2279 19.6284 31.0149 19.7939 30.8019 19.9831L30.7783 20.0068C30.4707 20.2669 30.1631 20.527 29.8791 20.8108L29.5951 21.0945L29.0273 21.6621C28.9089 21.7803 28.8143 21.8985 28.696 22.0168C28.5304 22.1823 28.3647 22.3715 28.2228 22.537C28.1044 22.6552 28.0098 22.7971 27.8914 22.939C27.7495 23.1045 27.6075 23.2701 27.4655 23.4593C27.3472 23.6011 27.2526 23.743 27.1342 23.8849C26.9923 24.0504 26.874 24.216 26.7557 24.4051C26.6373 24.547 26.5427 24.7125 26.448 24.8544C26.3297 25.02 26.2114 25.1855 26.0931 25.3747C25.9985 25.5402 25.8801 25.6821 25.7855 25.8476C25.6672 26.0131 25.5725 26.1787 25.4779 26.3679L25.1939 26.8645C25.0993 27.03 25.0046 27.1955 24.91 27.3847C24.8153 27.5502 24.7207 27.7157 24.6497 27.9049C24.5551 28.0704 24.4841 28.236 24.4131 28.4015C24.3184 28.5907 24.2474 28.7562 24.1528 28.9454L23.9398 29.442C23.8688 29.6312 23.7742 29.8203 23.7032 30.0095C23.6559 30.1514 23.5849 30.3169 23.5376 30.4588C23.4666 30.6716 23.3719 30.8844 23.301 31.0973C23.2536 31.2155 23.2299 31.3101 23.2063 31.4283C22.8041 32.6816 22.5201 33.9586 22.3071 35.2355C22.3071 35.2828 22.2835 35.3538 22.2835 35.4011C22.2361 35.6848 22.2125 35.9922 22.1652 36.276C22.1652 36.3469 22.1415 36.4179 22.1415 36.5125C22.1178 36.7962 22.0942 37.08 22.0705 37.3874C22.0705 37.4584 22.0705 37.5529 22.0468 37.6239C22.0232 37.9077 22.0232 38.1914 22.0232 38.4988V39.8231C22.0232 40.1305 22.0469 40.4142 22.0705 40.7216C22.0705 40.7926 22.0705 40.8399 22.0942 40.9109C22.1178 41.2183 22.1415 41.5257 22.1888 41.8331C22.1888 41.8804 22.2125 41.9277 22.2125 41.9749C22.2598 42.306 22.3071 42.6371 22.3545 42.9445C22.3545 42.9681 22.3545 42.9918 22.3781 43.0154C22.9223 46.2551 24.1528 49.4002 26.0222 52.2851L31.5355 47.603Z" fill="#D50057"/>
<path d="M66.6745 52.9473C66.8637 52.6871 67.0294 52.427 67.195 52.1669C67.2187 52.1196 67.2424 52.0959 67.266 52.0487C67.4553 51.7649 67.621 51.4811 67.7866 51.1974C67.7866 51.1737 67.8102 51.1501 67.8102 51.1501C69.4666 48.3124 70.5788 45.12 70.981 41.7148H63.622C63.5746 42.0223 63.5037 42.3297 63.4327 42.6371C63.4327 42.6607 63.4327 42.6844 63.409 42.708C63.338 42.9918 63.2671 43.2519 63.1961 43.5121C63.1724 43.5594 63.1724 43.6066 63.1487 43.6539C63.0777 43.8904 63.0068 44.1505 62.9121 44.387C62.8884 44.458 62.8648 44.5052 62.8411 44.5762C62.7228 44.8599 62.6281 45.1673 62.4862 45.4511C62.2496 45.9713 62.0129 46.4679 61.7527 46.9645C60.9481 48.4306 59.9543 49.7549 58.7712 50.9136C57.9903 51.6939 57.1385 52.3797 56.2156 52.9945C55.2928 53.6094 54.299 54.1532 53.2578 54.6025C52.4769 54.9336 51.6724 55.2174 50.8443 55.4302C49.4718 55.7849 48.0284 55.9504 46.5613 55.9504C44.1951 55.9504 41.9708 55.5011 39.8885 54.6026C39.4153 54.3897 38.9657 54.1769 38.5398 53.9404C38.3741 53.8459 38.1848 53.7512 38.0192 53.6567C37.7589 53.5148 37.5223 53.3729 37.2857 53.2074C37.0727 53.0655 36.8597 52.9236 36.6704 52.7817C36.4811 52.6635 36.3155 52.5216 36.1262 52.3797C35.9132 52.2142 35.6766 52.0487 35.4636 51.8595L35.2507 52.025L29.761 56.7071C30.2579 57.2038 30.8021 57.653 31.3227 58.0787C31.3937 58.126 31.4647 58.1969 31.5357 58.2679C31.7486 58.4334 31.9615 58.5753 32.1745 58.7408C32.2929 58.8354 32.4112 58.93 32.5532 59.0009C32.7424 59.1428 32.9554 59.2847 33.1684 59.4265C33.3104 59.5211 33.4523 59.6157 33.5943 59.6867C33.7836 59.8049 33.9965 59.9468 34.2095 60.065C34.3515 60.1596 34.5171 60.2306 34.6591 60.3252C34.8484 60.4434 35.0614 60.538 35.2507 60.6562C35.4163 60.7508 35.5819 60.8217 35.7476 60.8927C35.9369 60.9873 36.1498 61.0819 36.3391 61.1764C36.5285 61.271 36.7177 61.342 36.907 61.4129C37.0964 61.4839 37.2856 61.5785 37.4749 61.6494C37.8299 61.7913 38.2085 61.9332 38.5634 62.0514C38.7291 62.0987 38.8947 62.146 39.0603 62.2169C39.297 62.2878 39.5099 62.3588 39.7466 62.4297C39.9122 62.4771 40.1015 62.5243 40.2671 62.5716C40.5037 62.6189 40.7167 62.6899 40.9533 62.7372C41.1426 62.7845 41.3083 62.8081 41.4976 62.8554L42.2075 62.9973C42.3731 63.0209 42.5624 63.0446 42.7517 63.0918C43.012 63.1392 43.2486 63.1628 43.5089 63.1864C43.6745 63.2101 43.8401 63.2337 44.0058 63.2337L44.8576 63.3047C44.9996 63.3047 45.1416 63.3283 45.2836 63.3283C45.7095 63.352 46.1591 63.352 46.6087 63.352C47.0109 63.352 47.4132 63.352 47.8391 63.3283C47.9811 63.3283 48.0994 63.3047 48.2414 63.3047C48.5016 63.281 48.7856 63.281 49.0459 63.2337C49.2115 63.2101 49.3772 63.1864 49.5191 63.1864C49.7558 63.1628 49.9924 63.1391 50.229 63.0918C50.3947 63.0682 50.5603 63.0446 50.7259 62.9973C50.9389 62.95 51.1755 62.9263 51.3885 62.879C51.5541 62.8554 51.7434 62.8081 51.9091 62.7608L52.5479 62.6189C52.7136 62.5716 52.9029 62.5243 53.0685 62.477C53.2578 62.4297 53.4708 62.3588 53.6601 62.3115C53.8494 62.2642 54.015 62.1933 54.1806 62.146C54.37 62.075 54.5593 62.0278 54.7485 61.9568C54.9142 61.8858 55.1035 61.8386 55.2691 61.7676C55.4584 61.6967 55.6241 61.6257 55.8134 61.5548C56.0027 61.4839 56.1683 61.4129 56.3339 61.342C56.4996 61.271 56.6889 61.2001 56.8545 61.1055C57.0438 61.0109 57.2094 60.94 57.3987 60.8454C57.5644 60.7744 57.7064 60.6799 57.872 60.6089C58.0613 60.5143 58.2506 60.4197 58.4162 60.3251C58.5582 60.2542 58.7002 60.1596 58.8185 60.0887C59.0078 59.9704 59.2208 59.8758 59.41 59.7576C59.5047 59.6867 59.5994 59.6394 59.694 59.5684C60.8062 58.859 61.8473 58.0787 62.8175 57.2274C62.8648 57.1801 62.9121 57.1564 62.9595 57.1092C63.1724 56.9199 63.3853 56.7071 63.5983 56.4943L63.764 56.3288L64.3792 55.7139C64.4265 55.643 64.4975 55.5957 64.5448 55.5248L65.1127 54.8863C65.1601 54.8153 65.231 54.7681 65.2784 54.6971C65.4677 54.4843 65.657 54.2478 65.8226 54.0113C65.8699 53.9404 65.9173 53.8931 65.9646 53.8222C66.1539 53.5857 66.3195 53.3492 66.5088 53.1128C66.5807 53.0773 66.6389 53.0191 66.6745 52.9473Z" fill="#C19ADE"/>
<path d="M118.892 38.7852C118.892 41.5748 118.28 44.1034 117.056 46.3709C115.846 48.6384 114.23 50.3974 112.208 51.648C110.806 52.5137 109.238 53.139 107.505 53.5238C105.787 53.9086 103.518 54.101 100.699 54.101H92.9429V23.4075H100.616C103.614 23.4075 105.993 23.6273 107.753 24.0671C109.527 24.4931 111.026 25.084 112.25 25.8399C114.34 27.1454 115.969 28.8838 117.138 31.0551C118.307 33.2264 118.892 35.8031 118.892 38.7852ZM114.622 38.7233C114.622 36.3184 114.202 34.2914 113.364 32.6423C112.525 30.9932 111.273 29.6946 109.609 28.7463C108.399 28.0592 107.114 27.5851 105.752 27.324C104.391 27.0492 102.761 26.9118 100.864 26.9118H97.027V50.5967H100.864C102.83 50.5967 104.542 50.4524 106 50.1638C107.471 49.8752 108.819 49.3392 110.043 48.556C111.569 47.5803 112.71 46.2953 113.467 44.7012C114.237 43.1071 114.622 41.1145 114.622 38.7233ZM137.516 29.5503C137.516 28.2448 137.124 27.221 136.34 26.4789C135.57 25.7231 134.58 25.3452 133.37 25.3452C132.105 25.3452 131.073 25.7712 130.276 26.6232C129.478 27.4615 129.079 28.4921 129.079 29.7152C129.079 30.7459 129.347 31.6597 129.884 32.4568C130.434 33.2538 131.61 34.1952 133.411 35.2808C134.759 34.7999 135.776 34.099 136.464 33.1783C137.165 32.2438 137.516 31.0345 137.516 29.5503ZM141.517 47.6077L131.658 38.0018C131.231 38.208 130.805 38.4828 130.379 38.8264C129.953 39.1562 129.526 39.6097 129.1 40.1869C128.715 40.7228 128.399 41.3687 128.151 42.1246C127.904 42.8804 127.78 43.7324 127.78 44.6806C127.78 46.687 128.364 48.3086 129.533 49.5454C130.716 50.7685 132.387 51.38 134.545 51.38C135.824 51.38 137.089 51.0708 138.341 50.4524C139.606 49.8203 140.665 48.872 141.517 47.6077ZM147.726 35.3633V37.3422C147.726 38.6615 147.554 40.1456 147.21 41.7947C146.867 43.4438 146.282 45.0173 145.457 46.5152L153.254 54.101H148.18L143.456 49.4835C141.875 51.435 140.259 52.8023 138.609 53.5856C136.959 54.3552 135.261 54.74 133.514 54.74C130.654 54.74 128.275 53.9086 126.377 52.2458C124.493 50.5692 123.551 48.3773 123.551 45.67C123.551 44.4058 123.73 43.3132 124.088 42.3925C124.445 41.4718 124.865 40.6747 125.346 40.0013C125.827 39.3554 126.425 38.7508 127.14 38.1874C127.855 37.6102 128.577 37.1086 129.306 36.6825C127.794 35.6931 126.7 34.6968 126.027 33.6936C125.366 32.6904 125.036 31.4261 125.036 29.9007C125.036 28.98 125.215 28.1073 125.573 27.2828C125.944 26.4445 126.494 25.6818 127.223 24.9947C127.91 24.3351 128.804 23.7991 129.904 23.3868C131.018 22.9746 132.242 22.7685 133.576 22.7685C135.955 22.7685 137.88 23.3731 139.351 24.5824C140.823 25.778 141.559 27.2966 141.559 29.138C141.559 29.7427 141.476 30.4298 141.311 31.1994C141.146 31.9552 140.864 32.6355 140.465 33.2401C140.025 33.9135 139.4 34.5594 138.588 35.1778C137.777 35.7962 136.725 36.3253 135.432 36.765L143.085 44.2271C143.278 43.6774 143.422 43.0727 143.518 42.4131C143.614 41.7535 143.669 41.0664 143.683 40.3518C143.711 39.5822 143.718 38.7233 143.704 37.7751V35.3633H147.726ZM166.598 54.101H154.469V50.9678H158.491V26.5407H154.469V23.4075H166.598V26.5407H162.576V50.9677H166.598V54.101ZM229.877 51.8335C228.2 52.6031 226.364 53.2764 224.37 53.8536C222.39 54.4171 220.471 54.6988 218.615 54.6988C216.222 54.6988 214.029 54.369 212.035 53.7093C210.041 53.0497 208.343 52.0602 206.94 50.741C205.524 49.408 204.431 47.7451 203.661 45.7525C202.89 43.7461 202.505 41.4031 202.505 38.7233C202.505 33.8173 203.936 29.9488 206.796 27.1179C209.67 24.2732 213.61 22.8509 218.615 22.8509C220.361 22.8509 222.142 23.0639 223.957 23.4899C225.786 23.9022 227.753 24.6099 229.857 25.6131V30.4573H229.485C229.059 30.1275 228.44 29.6946 227.629 29.1586C226.818 28.6227 226.02 28.1761 225.236 27.8188C224.287 27.3928 223.208 27.0423 221.998 26.7675C220.801 26.4789 219.44 26.3346 217.914 26.3346C214.476 26.3346 211.753 27.4408 209.745 29.6533C207.752 31.8521 206.755 34.8342 206.755 38.5996C206.755 42.5712 207.8 45.6632 209.89 47.8757C211.98 50.0745 214.827 51.1739 218.429 51.1739C219.75 51.1739 221.063 51.0433 222.369 50.7822C223.689 50.5211 224.844 50.1844 225.834 49.7721V42.2482H217.604V38.6615H229.877V51.8335ZM256.222 42.5986C256.222 46.3503 255.259 49.3118 253.334 51.4831C251.409 53.6543 248.83 54.74 245.599 54.74C242.34 54.74 239.748 53.6543 237.822 51.4831C235.911 49.3118 234.955 46.3503 234.955 42.5986C234.955 38.847 235.911 35.8855 237.822 33.7142C239.748 31.5292 242.34 30.4367 245.599 30.4367C248.83 30.4367 251.409 31.5292 253.334 33.7142C255.259 35.8855 256.222 38.847 256.222 42.5986ZM252.22 42.5986C252.22 39.6165 251.636 37.404 250.467 35.9611C249.298 34.5044 247.675 33.7761 245.599 33.7761C243.495 33.7761 241.858 34.5044 240.69 35.9611C239.534 37.404 238.957 39.6165 238.957 42.5986C238.957 45.4845 239.541 47.6764 240.71 49.1744C241.879 50.6585 243.509 51.4006 245.599 51.4006C247.661 51.4006 249.277 50.6654 250.446 49.195C251.629 47.7108 252.22 45.512 252.22 42.5986ZM266.044 54.101H262.166V22.0264H266.044V54.101ZM292.326 54.101H288.448V51.6892C287.334 52.6512 286.173 53.4001 284.962 53.9361C283.752 54.472 282.439 54.74 281.023 54.74C278.272 54.74 276.086 53.6818 274.463 51.5655C272.854 49.4492 272.05 46.5152 272.05 42.7636C272.05 40.8121 272.325 39.0737 272.875 37.5483C273.439 36.0229 274.195 34.7243 275.144 33.6524C276.079 32.608 277.165 31.8109 278.403 31.2612C279.654 30.7115 280.947 30.4367 282.281 30.4367C283.491 30.4367 284.564 30.5672 285.499 30.8283C286.434 31.0757 287.417 31.4674 288.448 32.0033V22.0264H292.326V54.101ZM288.448 48.4323V35.219C287.403 34.7518 286.468 34.4288 285.643 34.2502C284.818 34.0715 283.917 33.9822 282.941 33.9822C280.768 33.9822 279.077 34.738 277.867 36.2497C276.657 37.7613 276.052 39.9051 276.052 42.6811C276.052 45.4158 276.519 47.4978 277.454 48.927C278.389 50.3425 279.888 51.0502 281.951 51.0502C283.051 51.0502 284.165 50.8097 285.292 50.3287C286.42 49.834 287.472 49.2018 288.448 48.4323Z" fill="white"/>
</svg>
