<svg width="251" height="49" viewBox="0 0 251 49" fill="none" xmlns="http://www.w3.org/2000/svg">
<path d="M41.589 18.2598C40.7472 18.2598 40.0648 18.9422 40.0648 19.7839C40.0648 32.3264 29.8973 42.4939 17.3549 42.4939C16.5131 42.4939 15.8307 43.1763 15.8307 44.0181C15.8307 44.8599 16.5131 45.5423 17.3549 45.5423C31.5808 45.5423 43.1132 34.0099 43.1132 19.7839C43.1132 18.9422 42.4308 18.2598 41.589 18.2598Z" fill="#005EB8"/>
<path d="M32.3896 28.0281C33.8553 25.637 35.2729 22.4489 34.994 17.9855C34.4163 8.7399 26.0422 1.72598 18.1348 2.48609C15.0392 2.78367 11.8606 5.30695 12.143 9.82662C12.2658 11.7907 13.227 12.9499 14.7894 13.8411C16.2764 14.6894 18.1868 15.2268 20.3526 15.8359C22.9686 16.5717 26.0031 17.3982 28.3354 19.117C31.1306 21.1769 33.0415 23.5647 32.3896 28.0281Z" fill="#003B5C"/>
<path d="M2.63974 11.8604C1.174 14.2514 -0.243526 17.4396 0.0353616 21.9029C0.613064 31.1486 8.98713 38.1624 16.8945 37.4024C19.9901 37.1048 23.1687 34.5815 22.8863 30.0618C22.7636 28.0978 21.8022 26.9386 20.24 26.0473C18.753 25.199 16.8425 24.6616 14.6768 24.0525C12.0608 23.3167 9.0262 22.4902 6.69395 20.7715C3.89869 18.7116 1.98787 16.3237 2.63974 11.8604Z" fill="#005EB8"/>
<path fill-rule="evenodd" clip-rule="evenodd" d="M244.195 21.2912V36.785H250.258V19.9439C250.258 16.8403 249.652 14.4956 248.439 12.9051C247.225 11.2992 245.396 10.5129 243.016 10.5129C240.435 10.5129 238.366 12.0224 237.122 14.5548H236.785C236.877 13.2473 236.96 12.4983 237.021 11.9514C237.084 11.3873 237.122 11.0382 237.122 10.5129V0.745117H231.059V36.785H237.459V24.3226C237.459 21.5277 237.553 19.4599 238.128 17.9776C238.703 16.4797 239.706 15.7308 241.137 15.7308C243.05 15.7308 244.195 17.5081 244.195 21.2912ZM156.185 34.9183C157.824 33.2246 158.643 30.7853 158.643 27.6001C158.643 25.6112 158.194 23.8399 157.296 22.2862C156.414 20.7324 154.847 19.2098 152.594 17.7181C150.924 16.6305 149.751 15.6594 149.073 14.8049C148.411 13.9503 148.081 12.9481 148.081 11.7984C148.081 10.633 148.356 9.71635 148.908 9.04823C149.475 8.36455 150.278 8.02274 151.318 8.02274C152.263 8.02274 153.145 8.19365 153.964 8.53545C154.799 8.87733 155.594 9.26575 156.351 9.70079L158.477 4.62002C156.036 3.15948 153.492 2.42922 150.845 2.42922C148.073 2.42922 145.86 3.28379 144.206 4.99292C142.568 6.70205 141.748 9.01718 141.748 11.9382C141.748 13.4609 141.953 14.7971 142.363 15.9469C142.788 17.0966 143.379 18.1377 144.135 19.0699C144.906 19.9866 146.033 20.95 147.513 21.9599C149.215 23.1097 150.436 24.1585 151.176 25.1062C151.916 26.0385 152.287 27.0718 152.287 28.206C152.287 29.3558 151.972 30.2647 151.342 30.9328C150.727 31.601 149.806 31.935 148.577 31.935C146.419 31.935 144.048 31.1037 141.465 29.4413V35.7107C143.575 36.876 146.135 37.4586 149.144 37.4586C152.215 37.4586 154.563 36.6119 156.185 34.9183ZM162.802 34.0059C164.692 36.3077 167.269 37.4586 170.534 37.4586C173.33 37.4586 175.728 36.8598 177.727 35.6622V30.553C175.603 31.8128 173.526 32.4427 171.494 32.4427C169.901 32.4427 168.652 31.8828 167.746 30.763C166.84 29.6277 166.437 27.9873 166.39 25.6699H178.852V22.271C178.852 18.5539 178.032 15.6688 176.392 13.6158C174.752 11.5472 172.51 10.5129 169.667 10.5129C166.621 10.5129 164.247 11.7183 162.544 14.129C160.841 16.5397 159.99 19.8914 159.99 24.1841C159.99 28.4145 160.927 31.6884 162.802 34.0059ZM167.418 16.7186C167.996 15.7699 168.73 15.2955 169.62 15.2955C170.573 15.2955 171.323 15.7854 171.87 16.7653C172.416 17.7451 172.758 19.3938 172.789 21.2912H166.39C166.483 19.316 166.84 17.6518 167.418 16.7186ZM194.009 36.785L192.998 33.4168H192.662C191.733 34.9383 190.839 36.0224 189.849 36.5969C188.857 37.1714 187.605 37.4586 186.095 37.4586C184.159 37.4586 182.632 36.7444 181.515 35.316C180.413 33.8876 179.862 31.9003 179.862 29.354C179.862 26.6213 180.618 24.5952 182.129 23.2754C183.655 21.9402 185.929 21.2027 188.951 21.063L192.445 20.9233V19.0601C192.445 16.638 191.382 15.4269 189.258 15.4269C187.684 15.4269 185.874 16.0325 183.828 17.2436L181.656 12.9583C184.269 11.328 187.066 10.5129 190.136 10.5129C192.921 10.5129 195.081 11.3048 196.529 12.8885C197.993 14.4566 198.724 16.6846 198.724 19.5725V36.785H194.009ZM188.668 32.6145C189.817 32.6145 190.73 32.1098 191.406 31.1006C192.098 30.0759 192.445 28.7174 192.445 27.025V24.8358L190.509 24.929C189.077 25.0066 188.022 25.4103 187.346 26.14C186.685 26.8698 186.354 27.9566 186.354 29.4005C186.354 31.5432 187.126 32.6145 188.668 32.6145ZM214.218 11.0182C213.497 10.7858 212.424 10.5129 211.673 10.5129C210.615 10.5129 209.687 10.8615 208.889 11.5586C208.091 12.2558 207.483 12.9281 206.808 14.5548H206.471L205.461 11.1866H200.745V36.785H207.12V23.3121C207.12 21.0503 207.264 19.5911 208.061 18.4137C208.859 17.2209 210.001 16.6244 211.489 16.6244C212.179 16.6244 212.779 16.7576 213.208 16.9125L214.218 11.0182ZM223.649 37.4586C220.579 37.4586 218.229 36.4333 216.625 34.1781C215.021 31.9229 214.218 28.6101 214.218 24.2397C214.218 19.6671 214.974 16.2532 216.486 13.998C218.014 11.7428 220.292 10.5129 223.471 10.5129C224.427 10.5129 225.503 10.7552 226.552 11.0351C227.601 11.3151 228.879 11.6682 229.712 12.197L227.616 17.0775C226.336 16.3154 225.202 15.9344 224.215 15.9344C222.903 15.9344 221.955 16.6265 221.368 18.0107C220.798 19.3794 220.513 21.4401 220.513 24.1931C220.513 26.8837 220.798 28.8978 221.368 30.2354C221.94 31.5574 222.872 32.2184 224.169 32.2184C225.711 32.2184 227.323 31.6741 229.005 30.5854V36.0445C227.385 37.0554 225.608 37.4586 223.649 37.4586Z" fill="#003B5C"/>
<path fill-rule="evenodd" clip-rule="evenodd" d="M72.6032 32.9204C74.7245 29.8946 75.7848 25.5654 75.7848 19.9327C75.7848 14.3001 74.7319 9.97866 72.6268 6.96838C70.521 3.94259 67.495 2.42969 63.5493 2.42969C59.5567 2.42969 56.4997 3.93483 54.3786 6.9451C52.2575 9.93986 51.1969 14.2536 51.1969 19.8862C51.1969 25.5654 52.2575 29.9179 54.3786 32.9437C56.4997 35.954 59.541 37.4591 63.5026 37.4591C67.4485 37.4591 70.4819 35.9462 72.6032 32.9204ZM59.1745 28.8006C58.1919 26.7679 57.7006 23.812 57.7006 19.9327C57.7006 16.038 58.1919 13.0821 59.1745 11.0648C60.1571 9.03212 61.6154 8.0158 63.5493 8.0158C67.3549 8.0158 69.2579 11.9881 69.2579 19.9327C69.2579 27.8774 67.3393 31.8497 63.5026 31.8497C61.5998 31.8497 60.1571 30.8333 59.1745 28.8006ZM86.3516 36.784C87.2159 37.2831 88.1462 37.4591 89.2577 37.4591C91.6357 37.4591 93.569 36.3317 94.9432 33.93C96.3175 31.5283 97.0046 28.2143 97.0046 23.9879C97.0046 19.6991 96.3404 16.3851 95.0126 14.0458C93.6849 11.6909 91.8478 10.5134 89.5009 10.5134C87.0616 10.5134 85.1498 11.9664 83.8686 14.5552H83.5317L82.5213 11.187H77.8058V48.5742H83.8686V37.4591C83.8686 37.0224 83.779 35.5382 83.5317 33.4172H83.8686C84.3738 34.9329 85.5021 36.2694 86.3516 36.784ZM84.7995 17.508C85.3405 16.3695 86.2122 15.8003 87.4166 15.8003C88.5436 15.8003 89.3695 16.4709 89.895 17.8121C90.4352 19.1533 90.7053 21.1807 90.7053 23.8944C90.7053 29.4151 89.6248 32.1755 87.4631 32.1755C86.2122 32.1755 85.3169 31.5205 84.7766 30.2105C84.2364 28.9005 83.9662 26.8107 83.9662 23.9411V23.1224C83.9972 20.5023 84.2748 18.6309 84.7995 17.508ZM108.896 37.4591C105.631 37.4591 103.054 36.3082 101.164 34.0063C99.2889 31.6889 98.3519 28.415 98.3519 24.1846C98.3519 19.8919 99.2033 16.5402 100.906 14.1295C102.609 11.7187 104.983 10.5134 108.029 10.5134C110.872 10.5134 113.113 11.5477 114.754 13.6163C116.394 15.6693 117.214 18.5543 117.214 22.2715V25.6703H104.751C104.799 27.9877 105.201 29.6281 106.108 30.7635C107.014 31.8833 108.263 32.4432 109.856 32.4432C111.887 32.4432 113.965 31.8133 116.089 30.5535V35.6627C114.089 36.8603 111.692 37.4591 108.896 37.4591ZM107.982 15.296C107.092 15.296 106.357 15.7704 105.779 16.7191C105.201 17.6523 104.845 19.3164 104.751 21.2917H111.151C111.12 19.3942 110.778 17.7456 110.232 16.7657C109.685 15.7859 108.935 15.296 107.982 15.296ZM132.371 21.2917V36.7854H138.434V20.0785C138.434 16.9527 137.843 14.577 136.661 12.9516C135.494 11.3261 133.729 10.5134 131.365 10.5134C129.966 10.5134 128.745 10.8572 127.702 11.5449C126.661 12.217 125.857 13.3518 125.298 14.5552H124.961L124.119 11.187H119.235V36.7854H125.634V24.4915C125.634 21.3188 125.751 19.1564 126.373 17.8279C126.995 16.4838 127.975 15.8117 129.312 15.8117C130.324 15.8117 131.055 16.2962 131.505 17.2652C131.957 18.2343 132.371 19.4006 132.371 21.2917Z" fill="#005EB8"/>
</svg>
