<svg width="239" height="57" viewBox="0 0 239 57" fill="none" xmlns="http://www.w3.org/2000/svg">
<path d="M49.9076 32.7844C54.76 32.7844 61.7867 31.7797 61.7867 26.0081C61.8006 25.5622 61.7601 25.1163 61.6661 24.6802L58.7757 12.122C58.1057 9.36138 57.5206 8.10628 52.6688 5.68037C48.9041 3.7571 40.706 0.578125 38.2807 0.578125C36.0215 0.578125 35.3533 3.50547 32.6758 3.50547C30.0831 3.50547 28.1586 1.33058 25.7333 1.33058C23.3911 1.33058 21.8844 2.91976 20.7135 6.18301C20.7135 6.18301 17.4509 15.384 17.0331 16.7222C16.9648 16.9673 16.9356 17.2216 16.9464 17.4759C16.9464 21.052 31.0308 32.7844 49.9076 32.7844ZM62.5392 28.3503C63.2092 31.5293 63.2092 31.8634 63.2092 32.2818C63.2092 37.7199 57.1017 40.7303 49.0721 40.7303C30.9186 40.7303 15.025 30.1075 15.025 23.0801C15.0235 22.1022 15.2227 21.1344 15.6101 20.2365C9.0854 20.5705 0.63623 21.7414 0.63623 29.1871C0.63623 41.3997 29.5805 56.4572 52.5015 56.4572C70.0686 56.4572 74.5014 48.5107 74.5014 42.237C74.5014 37.3003 70.2353 31.6966 62.5392 28.3503Z" fill="#EE2435"/>
<path d="M62.5391 28.3509C63.2091 31.5299 63.2091 31.864 63.2091 32.2823C63.2091 37.7205 57.1016 40.7309 49.072 40.7309C30.9186 40.7309 15.0249 30.1081 15.0249 23.0807C15.0235 22.1028 15.2226 21.135 15.61 20.2371L17.0325 16.7228C16.9644 16.9679 16.9353 17.2223 16.9464 17.4765C16.9464 21.0526 31.0307 32.785 49.9075 32.785C54.7599 32.785 61.7867 31.7803 61.7867 26.0087C61.8006 25.5628 61.76 25.1169 61.666 24.6808L62.5391 28.3509ZM225.41 36.3975C225.41 41.0092 228.185 43.2538 233.245 43.2538C234.802 43.2141 236.35 42.995 237.857 42.6008V37.2542C236.894 37.5596 235.888 37.7111 234.877 37.7029C232.796 37.7029 232.021 37.0505 232.021 35.0915V26.8885H238.061V21.3794H232.021V14.4006L225.41 15.8291V21.3794H221.043V26.8885H225.41V36.3975ZM204.865 36.52C204.865 35.0915 206.293 34.3978 208.456 34.3978C209.777 34.4044 211.092 34.5686 212.374 34.8871V37.6623C211.111 38.3522 209.691 38.7038 208.252 38.6827C206.13 38.6827 204.865 37.8666 204.865 36.52ZM206.882 43.3351C208.994 43.4143 211.078 42.8291 212.84 41.6616V42.9677H219.37V29.1331C219.37 23.8684 215.819 20.9713 209.902 20.9713C206.41 21.0181 202.97 21.8257 199.822 23.3378L202.189 28.1945C204.719 27.1334 206.841 26.4804 208.719 26.4804C211.453 26.4804 212.84 27.5415 212.84 29.7043V30.7653C211.241 30.351 209.595 30.1452 207.943 30.1529C202.393 30.1529 199.046 32.4794 199.046 36.6425C199.046 40.4381 202.066 43.3351 206.882 43.3351ZM171.01 42.9677H178.029V31.7864H189.782V42.9683H196.802V14.4006H189.782V25.3787H178.029V14.4006H171.01V42.9677ZM144.262 32.1532C144.261 31.4174 144.409 30.6891 144.696 30.0117C144.983 29.3344 145.404 28.722 145.934 28.2114C146.464 27.7007 147.091 27.3022 147.779 27.0398C148.466 26.7774 149.199 26.6564 149.935 26.6841C151.614 26.6482 153.246 27.2456 154.505 28.3576V35.9076C153.894 36.4806 153.175 36.927 152.391 37.2212C151.607 37.5154 150.772 37.6515 149.935 37.6217C149.2 37.646 148.468 37.5227 147.782 37.2591C147.097 36.9954 146.471 36.5968 145.942 36.0868C145.413 35.5768 144.991 34.9658 144.703 34.29C144.414 33.6142 144.264 32.888 144.262 32.1532ZM154.587 42.9677H161.117V12.9727L154.505 14.4006V22.5217C153.033 21.663 151.384 21.1538 149.684 21.0336C147.985 20.9133 146.28 21.185 144.702 21.8279C143.124 22.4708 141.715 23.4675 140.583 24.7413C139.451 26.0151 138.627 27.5319 138.174 29.1746C137.722 30.8173 137.652 32.542 137.972 34.2158C138.291 35.8895 138.991 37.4675 140.017 38.8279C141.043 40.1884 142.368 41.295 143.889 42.0624C145.41 42.8298 147.088 43.2374 148.792 43.2538C150.874 43.2639 152.906 42.6058 154.587 41.376V42.9677ZM124.632 26.3986C125.655 26.4095 126.647 26.7485 127.463 27.3657C128.278 27.9829 128.874 28.8455 129.162 29.8267H120.143C120.387 28.8282 120.965 27.9434 121.782 27.3196C122.599 26.6958 123.605 26.3708 124.632 26.3986ZM113.491 32.1938C113.491 38.479 118.633 43.3757 125.244 43.3757C128.558 43.4817 131.785 42.3133 134.263 40.1112L129.897 36.2344C129.325 36.7863 128.646 37.2156 127.902 37.4963C127.159 37.7769 126.365 37.9029 125.571 37.8666C124.444 37.8983 123.334 37.5877 122.386 36.9757C121.439 36.3637 120.7 35.4791 120.266 34.4385H135.651V32.8062C135.651 25.9499 131.04 21.0119 124.755 21.0119C123.276 20.9886 121.808 21.2613 120.436 21.8139C119.064 22.3666 117.817 23.188 116.767 24.2299C115.718 25.2719 114.887 26.5132 114.325 27.8809C113.762 29.2486 113.479 30.715 113.491 32.1938ZM102.106 20.3996C104.431 20.3996 105.738 21.8687 105.738 23.624C105.738 25.3793 104.431 26.8478 102.106 26.8478H95.168V20.3996H102.106ZM88.148 42.9677H95.168V32.5613H100.514L105.901 42.9677H113.737L107.452 31.5408C109.049 30.8911 110.416 29.7783 111.376 28.3456C112.336 26.9128 112.845 25.2256 112.839 23.5009C112.839 18.3593 108.798 14.4006 102.759 14.4006H88.1486L88.148 42.9677Z" fill="black"/>
</svg>
