<svg width="215" height="39" viewBox="0 0 215 39" fill="none" xmlns="http://www.w3.org/2000/svg">
<mask id="mask0_311_240" style="mask-type:luminance" maskUnits="userSpaceOnUse" x="0" y="0" width="215" height="39">
<path d="M0 0.858398H214.843V38.1786H0V0.858398Z" fill="white"/>
</mask>
<g mask="url(#mask0_311_240)">
<mask id="mask1_311_240" style="mask-type:luminance" maskUnits="userSpaceOnUse" x="0" y="0" width="215" height="39">
<path d="M0 0.858398H214.843V38.1786H0V0.858398Z" fill="white"/>
</mask>
<g mask="url(#mask1_311_240)">
<path d="M40.4302 23.3008C42.3635 25.15 44.9692 26.2427 47.6589 26.3268C50.4327 26.3268 51.8616 25.3181 51.8616 23.7211C51.8616 21.8719 49.5922 21.1994 46.9865 20.6111C43.2881 19.8546 38.9172 18.8459 38.9172 14.0548C38.9172 10.5245 41.9432 7.58261 47.3227 7.58261C50.3487 7.49856 53.3746 8.59127 55.6441 10.6086L53.7108 13.8867C52.0297 12.2056 49.7603 11.281 47.4067 11.281C44.9692 11.281 43.4562 12.2056 43.4562 13.6345C43.4562 15.3156 45.5575 15.82 48.0792 16.4083C51.7776 17.1648 56.4006 18.2575 56.4006 23.3008C56.4006 27.0833 53.2906 29.9411 47.4908 29.9411C44.1286 30.0252 40.8505 28.8484 38.3289 26.5789L40.4302 23.3008ZM58.7541 18.7619C58.7541 12.6259 62.9568 7.58261 69.7652 7.58261C76.6577 7.58261 80.7764 12.7099 80.7764 18.7619C80.7764 24.8978 76.5737 30.0252 69.7652 30.0252C62.9568 30.0252 58.7541 24.8978 58.7541 18.7619ZM75.9012 18.7619C75.9012 14.9794 73.7158 11.7013 69.6812 11.7013C65.7306 11.7013 63.5452 15.0635 63.5452 18.7619C63.5452 22.5443 65.7306 25.9065 69.6812 25.9065C73.7158 25.9065 75.9012 22.5443 75.9012 18.7619ZM98.8481 16.0721C98.8481 12.7099 97.167 11.6172 94.5613 11.6172C92.3759 11.7013 90.3586 12.7099 89.0978 14.4751V29.4368H84.4748V8.00289H89.0978V10.9448C91.031 8.75938 93.7208 7.49856 96.6627 7.49856C101.286 7.49856 103.555 10.0202 103.555 14.391V29.4368H98.9322L98.8481 16.0721ZM121.879 27.1673C120.114 29.1006 117.592 30.1092 114.987 30.0252C111.456 30.0252 107.506 27.6716 107.506 22.9646C107.506 18.0894 111.456 15.9881 114.987 15.9881C117.844 15.9881 120.366 16.9127 121.879 18.7619V15.5678C121.879 13.0462 119.862 11.6172 116.836 11.6172C114.482 11.6172 112.129 12.6259 110.532 14.307L108.598 11.1129C111.036 8.84343 114.23 7.58261 117.592 7.66667C122.299 7.66667 126.502 9.68397 126.502 15.3997V29.6049H121.879V27.1673ZM121.879 21.3676C120.618 19.8546 118.769 19.0981 116.752 19.1821C114.146 19.1821 112.213 20.6951 112.213 23.0486C112.213 25.3181 114.146 26.8311 116.752 26.8311C118.685 26.9151 120.618 26.0746 121.879 24.6457V21.3676ZM133.479 24.4776V12.1216H129.948V8.08694H133.479V2.20312H138.102V8.08694H142.472V12.1216H138.102V23.3008C138.102 24.7297 138.774 25.8224 140.119 25.8224C140.875 25.8224 141.632 25.5703 142.22 25.066L143.313 28.5962C142.472 29.3527 141.128 29.9411 138.942 29.9411C135.412 30.0252 133.479 28.0919 133.479 24.4776ZM149.197 34.0598C150.542 34.2279 151.802 33.4714 152.223 32.2106L153.315 29.773L144.574 8.08694H149.533L155.753 24.1414L161.973 8.08694H167.016L156.678 33.3033C155.249 36.9176 152.643 38.0944 149.365 38.0944C148.524 38.0944 147.6 38.0103 146.759 37.7582L147.432 33.5555C148.02 33.8917 148.608 34.0598 149.197 34.0598ZM169.286 37.5901V8.08694H173.909V11.0288C175.506 8.84343 178.027 7.58261 180.801 7.58261C186.349 7.58261 190.299 11.7853 190.299 18.7619C190.299 25.7384 186.349 30.0252 180.801 30.0252C178.111 30.0252 175.506 28.7643 173.909 26.4949V37.5901H169.286ZM179.372 11.7013C177.187 11.7853 175.17 12.794 173.909 14.5591V23.0486C175.17 24.8138 177.187 25.9065 179.372 25.9065C183.071 25.9065 185.424 22.9646 185.424 18.7619C185.424 14.6432 183.071 11.7013 179.372 11.7013ZM204.252 7.58261C210.641 7.58261 214.759 12.4578 214.759 19.2662V20.3589H198.201C198.537 23.8051 201.563 26.4108 205.009 26.2427C207.278 26.2427 209.38 25.4022 211.061 23.8892L213.162 26.9151C210.809 29.0165 207.699 30.1092 204.505 30.0252C198.116 30.0252 193.325 25.5703 193.325 18.7619C193.409 12.5418 197.948 7.58261 204.252 7.58261ZM198.285 16.9967H210.304C210.304 13.8026 207.699 11.281 204.505 11.281H204.252C200.302 11.3651 198.453 14.391 198.285 16.9967Z" fill="#1B1C30"/>
<path d="M15.5501 0.858398L0 9.85223V27.7558L15.466 36.6656L30.9321 27.7558V9.85223L15.5501 0.858398ZM26.5612 25.1501L15.466 31.5383L4.37083 25.1501V12.3739L15.466 5.98572L26.5612 12.3739V25.1501Z" fill="url(#paint0_linear_311_240)"/>
</g>
</g>
<defs>
<linearGradient id="paint0_linear_311_240" x1="0.0151298" y1="9.82701" x2="31.0237" y2="27.7298" gradientUnits="userSpaceOnUse">
<stop stop-color="#8002EF"/>
<stop offset="1" stop-color="#4BA9EA"/>
</linearGradient>
</defs>
</svg>
