<svg width="114" height="99" viewBox="0 0 114 99" fill="none" xmlns="http://www.w3.org/2000/svg">
<path d="M110.78 94.2218H98.3543C97.3973 94.2218 96.6163 93.4435 96.6163 92.4847V86.2066H108.609C109.639 86.2066 110.476 85.3715 110.476 84.3403C110.476 83.3091 109.639 82.474 108.609 82.474H96.6163V76.2967C96.6163 75.3379 97.3973 74.5569 98.3543 74.5569H110.78C111.862 74.5569 112.74 73.6815 112.74 72.5999C112.74 71.5182 111.862 70.6401 110.78 70.6401H98.3543C95.2386 70.6401 92.7004 73.1774 92.7004 76.2967V92.4847C92.7004 95.6022 95.2386 98.1395 98.3543 98.1395H110.78C111.862 98.1395 112.74 97.2632 112.74 96.1816C112.74 95.099 111.862 94.2218 110.78 94.2218ZM74.2418 82.5244C71.6156 82.0533 69.7887 81.495 68.7658 80.8451C67.7428 80.1952 67.2304 79.3171 67.2304 78.2107C67.2304 77.0227 67.7556 76.0474 68.807 75.2866C69.8584 74.5267 71.337 74.1463 73.2473 74.1463C75.1823 74.1463 76.7314 74.5184 77.8937 75.2664C78.518 75.6679 79.0881 76.2032 79.6015 76.8705C80.3586 77.8523 81.7868 77.9815 82.708 77.1529C83.5751 76.3701 83.6512 75.0272 82.8702 74.1573C81.9288 73.104 80.8564 72.2699 79.6555 71.6566C77.8717 70.7446 75.7213 70.2881 73.206 70.2881C71.0473 70.2881 69.1599 70.6621 67.5439 71.4082C65.926 72.1535 64.6858 73.1645 63.8305 74.4359C62.9716 75.7073 62.5436 77.119 62.5436 78.6672C62.5436 80.1338 62.8809 81.3786 63.561 82.4007C64.2366 83.4246 65.3237 84.2816 66.817 84.9728C68.3093 85.6649 70.314 86.2451 72.832 86.7153C75.3491 87.1856 77.1109 87.7246 78.1202 88.3323C79.1303 88.9419 79.6354 89.743 79.6354 90.7376C79.6354 91.9833 79.0753 92.9449 77.9533 93.6214C76.8359 94.2997 75.2932 94.6379 73.3298 94.6379C71.2554 94.6379 69.5202 94.2511 68.1232 93.4765C67.3257 93.0338 66.6116 92.4471 65.9782 91.7166C65.1826 90.7926 63.7563 90.7715 62.8946 91.6332L62.8864 91.6414C62.0981 92.4288 62.0376 93.7048 62.7819 94.5334C65.1487 97.1761 68.6796 98.4952 73.3701 98.4952C75.5279 98.4952 77.429 98.1707 79.0753 97.5208C80.7207 96.8718 81.9985 95.9387 82.9115 94.7213C83.8254 93.504 84.281 92.0933 84.281 90.4892C84.281 88.996 83.9491 87.7457 83.2855 86.7355C82.6209 85.7272 81.5649 84.883 80.112 84.2056C78.661 83.5272 76.703 82.9681 74.2418 82.5244ZM12.9822 82.5336C10.3551 82.0606 8.52914 81.5042 7.50524 80.8543C6.48226 80.2026 5.97078 79.3253 5.97078 78.218C5.97078 77.03 6.49693 76.0547 7.54741 75.2939C8.5988 74.5349 10.0774 74.1536 11.9867 74.1536C13.9209 74.1536 15.47 74.5267 16.6323 75.2737C17.2584 75.6752 17.8276 76.2106 18.3409 76.8797C19.0972 77.8605 20.5262 77.9888 21.4484 77.1611C22.3155 76.3765 22.3907 75.0354 21.6097 74.1646C20.6683 73.1123 19.5949 72.279 18.395 71.664C16.6112 70.7519 14.4599 70.2963 11.9446 70.2963C9.78678 70.2963 7.90032 70.6694 6.28244 71.4156C4.66455 72.1626 3.42616 73.1728 2.56909 74.4433C1.71202 75.7165 1.28395 77.1263 1.28395 78.6754C1.28395 80.1411 1.62128 81.3869 2.2996 82.408C2.977 83.4328 4.06323 84.2899 5.55645 84.981C7.04967 85.6722 9.05438 86.2524 11.5706 86.7236C14.0877 87.1938 15.8504 87.7328 16.8606 88.3415C17.8689 88.9483 18.3749 89.7513 18.3749 90.7458C18.3749 91.9907 17.8139 92.9522 16.6946 93.6296C15.5745 94.3079 14.0327 94.6462 12.0702 94.6462C9.99486 94.6462 8.25964 94.2594 6.86359 93.4839C6.06519 93.0411 5.35112 92.4545 4.71955 91.7239C3.9239 90.8008 2.49484 90.7788 1.63319 91.6414L1.62586 91.6497C0.837543 92.4361 0.777961 93.713 1.52045 94.5417C3.88815 97.1835 7.41816 98.5034 12.1105 98.5034C14.2674 98.5034 16.1685 98.178 17.8139 97.5281C19.4602 96.8791 20.738 95.9451 21.651 94.7287C22.5649 93.5132 23.0204 92.1007 23.0204 90.4965C23.0204 89.0042 22.6886 87.753 22.024 86.7438C21.3604 85.7345 20.3044 84.8912 18.8506 84.2138C17.3995 83.5346 15.4434 82.9754 12.9822 82.5336ZM53.8381 72.5284V87.5862C53.8381 91.1813 52.8848 93.8982 50.9773 95.7379C49.0679 97.5767 46.2895 98.4952 42.6395 98.4952C38.9884 98.4952 36.2082 97.5767 34.3007 95.7379C32.3932 93.8982 31.4389 91.1813 31.4389 87.5862V72.5284C31.4389 71.2909 32.4417 70.2881 33.6783 70.2881C34.9139 70.2881 35.9195 71.2909 35.9195 72.5284V87.0472C35.9195 89.6468 36.4649 91.5617 37.5576 92.7918C38.6502 94.0219 40.3423 94.6379 42.6395 94.6379C44.9347 94.6379 46.6278 94.0219 47.7204 92.7918C48.8131 91.5617 49.3585 89.6468 49.3585 87.0472V72.5284C49.3585 71.2909 50.3622 70.2881 51.5997 70.2881C52.8353 70.2881 53.8381 71.2909 53.8381 72.5284Z" fill="#0C322C"/>
<path d="M107.248 20.7454C106.646 21.1451 105.839 21.146 105.236 20.7454C104.247 20.0891 104.153 18.7187 104.95 17.9231C105.658 17.1897 106.826 17.1897 107.535 17.9221C108.33 18.7178 108.234 20.0891 107.248 20.7454ZM110.127 16.7479C111.274 21.6327 106.885 26.0253 102 24.8777C99.5138 24.2938 97.5375 22.3202 96.9564 19.8334C95.8096 14.9513 100.198 10.5624 105.082 11.7073C107.567 12.2875 109.541 14.2611 110.127 16.7479ZM77.2356 43.0181C77.7966 43.8211 78.2586 44.5957 78.5207 45.3703C78.7041 45.9221 78.9387 46.6472 79.4832 46.9386C79.5144 46.9551 79.5401 46.9689 79.5721 46.979C80.5685 47.342 83.1324 47.2806 83.1324 47.2806H87.8458C88.2482 47.287 91.7883 47.2769 91.7003 46.88C91.2759 44.9862 89.0833 44.6489 87.4186 43.658C85.8796 42.7413 84.4249 41.7028 83.7612 39.9162C83.4184 38.9941 83.6219 36.8665 84.2159 36.091C84.6495 35.5319 85.2838 35.1597 85.9722 35.0094C86.7302 34.8471 87.5186 34.9874 88.2803 35.0644C89.2162 35.1597 90.1429 35.3293 91.0752 35.4457C92.88 35.6804 94.6987 35.7748 96.5164 35.7253C99.5175 35.6419 102.525 35.1634 105.369 34.1945C107.354 33.5272 109.31 32.6261 110.999 31.373C112.918 29.9458 112.416 30.0806 110.47 30.2795C108.139 30.5187 105.787 30.5517 103.452 30.4142C101.271 30.2877 99.1215 30.0311 97.1479 29.0173C95.5933 28.2161 94.2596 27.4131 93.0304 26.1711C92.8461 25.9841 92.7306 25.4359 93.068 25.0867C93.3943 24.7466 94.0882 24.9446 94.3018 25.1243C96.4504 26.9209 99.6522 28.3985 102.971 28.5599C104.763 28.6488 106.51 28.6836 108.304 28.6029C109.2 28.5626 110.557 28.569 111.453 28.5599C111.919 28.5544 113.185 28.6873 113.421 28.1959C113.492 28.052 113.486 27.8861 113.481 27.7257C113.217 20.5493 112.686 12.4516 105.175 9.02058C99.5707 6.45763 91.1677 2.48763 87.6194 0.840409C86.7944 0.450833 85.8319 1.06865 85.8319 1.98439C85.8319 4.38234 85.9557 7.8271 85.9557 10.962C84.2562 9.22957 81.3926 8.13785 79.2101 7.13595C76.7333 5.99839 74.1731 5.03683 71.5726 4.22559C66.3293 2.60221 60.9064 1.60306 55.4524 1.05949C49.2687 0.4435 42.9786 0.73866 36.8838 1.9963C26.8539 4.07709 16.9944 8.90233 9.50906 15.9559C4.9139 20.2862 1.30872 26.4387 1.06398 32.6848C0.716567 41.524 3.19243 46.2722 7.74542 51.1644C15.0044 58.9614 30.6268 60.0522 36.9535 50.8069C39.7979 46.6435 40.4184 40.9979 38.3514 36.399C36.2871 31.8002 31.5379 28.4764 26.5019 28.3078C22.5933 28.1794 18.4308 30.1658 16.9339 33.7792C15.7908 36.5374 16.4417 39.9465 18.5215 42.0896C19.3319 42.9265 20.4291 43.6085 21.6299 43.3408C22.3348 43.185 22.926 42.6533 23.0333 41.9365C23.1909 40.8787 22.2642 40.193 21.6959 39.3809C20.6683 37.9152 20.8764 35.717 22.1634 34.4713C23.2487 33.4199 24.8565 33.1092 26.3681 33.1119C27.7742 33.1147 29.2133 33.3677 30.4279 34.0772C32.1338 35.08 33.2686 36.9179 33.6582 38.8621C34.8306 44.6672 30.1116 49.3843 23.7116 49.7555C20.4383 49.9498 17.1053 49.0882 14.5497 47.0312C8.07817 41.8256 6.49237 31.1842 13.8916 25.5028C20.9122 20.1111 29.778 21.5007 35.002 24.3029C39.1865 26.5441 42.304 30.2126 44.6662 34.2678C45.8505 36.3064 46.8606 38.4367 47.7984 40.6028C48.7004 42.6836 49.5418 44.7809 51.3467 46.3062C52.542 47.3172 54.0151 47.2806 55.5807 47.2806H64.5144C65.7262 47.2806 65.4328 46.4721 64.9067 45.9358C63.7224 44.7259 62.0211 44.4518 60.4444 44.0182C56.8457 43.0282 57.2123 38.2626 58.2078 38.2626C61.428 38.2626 61.5298 38.3579 64.3494 38.3203C68.4211 38.2653 69.6503 38.0288 72.832 39.2067C74.5352 39.8365 76.1705 41.5002 77.2356 43.0181Z" fill="#30BA78"/>
</svg>
