<svg width="186" height="57" viewBox="0 0 186 57" fill="none" xmlns="http://www.w3.org/2000/svg">
<path d="M157.024 0.737305C166.751 0.737305 176.269 0.737305 185.892 0.737305C186.074 4.34322 185.97 7.94914 185.97 11.5551C185.97 14.5643 186.1 17.4957 184.982 20.3493C182.979 25.4599 178.038 29.0139 172.576 29.429C167.271 29.8181 161.965 27.0942 159.209 22.5285C155.724 16.7434 157.076 8.67551 157.05 2.26787C157.024 1.80092 157.024 1.33397 157.024 0.737305ZM184.982 19.5192C180.431 13.2413 176.035 7.119 171.536 0.918898C167.011 7.17089 162.615 13.2672 158.09 19.5192C167.167 19.5192 175.931 19.5192 184.982 19.5192Z" fill="#6910D6"/>
<path d="M0.0686035 35.3955V20.3232H4.932V35.2398C4.932 39.3386 7.40271 41.9587 11.6939 41.9587C16.0372 41.9587 18.5079 39.3127 18.5079 35.2398V20.3232H23.2933V35.3955C23.2933 42.0885 18.898 46.1613 11.6939 46.1613C4.61991 46.1873 0.0686035 41.9847 0.0686035 35.3955Z" fill="black"/>
<path d="M55.5426 32.9569C55.5426 40.2985 50.159 46.1873 42.8509 46.1873C39.1318 46.1873 36.063 44.5789 33.8783 41.9068V55.9673H29.379V20.3492H33.9043V24.1626C36.115 21.3868 39.2359 19.7266 42.9029 19.7266C50.185 19.7266 55.5426 25.6672 55.5426 32.9569ZM51.0173 32.905C51.0173 27.9761 47.6103 23.8773 42.3308 23.8773C37.0512 23.8773 33.6963 28.028 33.6963 32.905C33.6963 37.8859 37.0512 42.0366 42.3308 42.0366C47.6363 42.0366 51.0173 37.9118 51.0173 32.905Z" fill="black"/>
<path d="M74.736 44.0602C72.9935 45.4611 70.6008 46.1874 68.3382 46.1874C63.1367 46.1874 60.666 42.6075 60.666 36.7187V24.1887H56.4008V20.3234H60.692V11.3994H64.9052V20.3494H73.4097V24.2147H64.9052V37.0559C64.9052 40.117 65.9455 42.0367 68.8063 42.0367C70.3408 42.0367 71.7972 41.4141 73.0976 40.584L74.736 44.0602Z" fill="black"/>
<path d="M99.7292 20.3496L89.1182 48.3927C86.9596 54.1778 84.1768 56.305 80.3537 56.305C78.7152 56.305 77.2848 55.9159 76.2965 55.3192L76.8687 51.3761C77.7529 51.7652 78.8972 52.1284 79.9375 52.1284C81.9661 52.1284 83.5786 50.961 84.931 47.6923L85.8673 45.4873L74.8661 20.3496H80.0936L87.9219 39.2612L94.7098 20.3496H99.7292Z" fill="black"/>
<path d="M113.331 46.083C110.938 46.083 108.728 45.5123 106.751 44.3708C104.749 43.2294 103.188 41.6729 102.044 39.6753C100.9 37.6778 100.327 35.4728 100.327 33.0602C100.327 29.3505 101.576 26.2375 104.072 23.7211C106.569 21.2047 109.664 19.9336 113.331 19.9336C116.27 19.9336 118.871 20.8156 121.133 22.5537C123.396 24.3178 124.722 26.4969 125.165 29.0911H120.301C119.937 27.7421 119.079 26.6525 117.778 25.7705C116.478 24.8885 114.996 24.4475 113.331 24.4475C110.964 24.4475 108.988 25.2776 107.375 26.912C105.763 28.5463 104.957 30.5957 104.957 33.0342C104.957 35.4209 105.763 37.4443 107.375 39.0787C108.988 40.713 110.964 41.5172 113.331 41.5172C115.022 41.5172 116.504 41.0762 117.83 40.1682C119.157 39.2603 119.989 38.1188 120.327 36.692H125.139C124.774 39.4159 123.448 41.6729 121.211 43.411C118.975 45.201 116.348 46.083 113.331 46.083Z" fill="black"/>
<path d="M139.859 46.0836C136.816 46.0836 134.319 45.3313 132.317 43.8008C130.34 42.2961 129.222 40.2208 128.962 37.6266H133.643C133.799 38.8977 134.423 39.9354 135.516 40.7137C136.608 41.4919 137.987 41.8811 139.625 41.8811C141.237 41.8811 142.512 41.5438 143.474 40.8693C144.436 40.1948 144.931 39.3128 144.931 38.2233C144.931 37.3672 144.644 36.6667 144.072 36.096C143.5 35.5513 142.772 35.1362 141.862 34.8768C140.951 34.6173 139.963 34.3839 138.871 34.1763C137.778 33.9688 136.686 33.7353 135.568 33.45C134.475 33.1646 133.461 32.8014 132.577 32.3345C131.667 31.8675 130.938 31.1671 130.366 30.2591C129.794 29.3252 129.508 28.2097 129.508 26.8867C129.508 24.6557 130.392 22.8397 132.135 21.4129C133.877 19.9861 136.166 19.2598 139.027 19.2598C141.706 19.2598 143.994 19.9602 145.919 21.3351C147.843 22.71 148.962 24.6297 149.274 27.0423H144.332C144.176 25.9787 143.604 25.1226 142.616 24.4222C141.628 23.7218 140.379 23.3845 138.923 23.3845C137.57 23.3845 136.452 23.6699 135.594 24.2406C134.736 24.8113 134.319 25.5636 134.319 26.5235C134.319 27.3536 134.606 28.0281 135.178 28.521C135.75 29.0398 136.478 29.403 137.388 29.6365C138.299 29.87 139.287 30.1035 140.379 30.2851C141.472 30.4666 142.564 30.7261 143.682 31.0114C144.774 31.3227 145.789 31.7119 146.673 32.2048C147.583 32.6976 148.311 33.45 148.884 34.4617C149.456 35.4734 149.742 36.6927 149.742 38.1454C149.742 40.4283 148.806 42.348 146.907 43.8526C145.035 45.3313 142.668 46.0836 139.859 46.0836Z" fill="black"/>
</svg>
