<svg width="221" height="35" viewBox="0 0 221 35" fill="none" xmlns="http://www.w3.org/2000/svg">
<path d="M94.5589 31.9654L84.8927 5.06792C84.8086 4.7317 84.5564 4.22738 84.5564 3.80711C84.5564 2.63034 85.5651 1.53763 86.91 1.53763C88.1708 1.53763 88.9273 2.29412 89.3476 3.47089L97.3327 26.5859L105.402 3.38683C105.738 2.29412 106.495 1.45358 107.756 1.45358H108.008C109.268 1.45358 110.109 2.21007 110.445 3.38683L118.43 26.5859L126.5 3.38683C126.836 2.37818 127.508 1.53763 128.769 1.53763C130.114 1.53763 131.123 2.54629 131.123 3.72305C131.123 4.14332 130.955 4.64765 130.786 4.98387L121.12 31.8813C120.616 33.3102 119.607 33.9827 118.514 33.9827H118.346C117.086 33.9827 116.161 33.2262 115.741 31.8813L107.84 9.10254L99.8544 31.9654C99.4341 33.3943 98.5095 34.0667 97.2487 34.0667H97.0806C95.9879 34.0667 94.9792 33.3102 94.5589 31.9654ZM164.744 3.89116C164.744 2.63034 165.753 1.45358 167.098 1.45358C168.443 1.45358 169.536 2.46223 169.536 3.89116V9.3547C171.889 4.05927 177.016 1.53763 180.463 1.53763C181.892 1.53763 182.816 2.54629 182.816 3.89116C182.816 5.15198 181.976 6.07658 180.715 6.32874C174.579 7.08523 169.536 11.7082 169.536 20.8702V31.6291C169.536 32.89 168.527 33.9827 167.182 33.9827C165.837 33.9827 164.744 32.974 164.744 31.6291V3.89116ZM197.946 34.3189C189.372 34.3189 182.396 27.6786 182.396 17.9283V17.7602C182.396 8.68227 188.7 1.36952 197.358 1.36952C206.604 1.36952 211.815 8.93443 211.815 17.3399C211.815 18.6007 210.806 19.5253 209.63 19.5253H187.103C187.775 26.3337 192.482 30.2002 198.03 30.2002C201.897 30.2002 204.67 28.6872 207.024 26.5859C207.36 26.2497 207.78 26.0815 208.369 26.0815C209.546 26.0815 210.386 27.0061 210.386 28.0989C210.386 28.6032 210.134 29.1916 209.63 29.6118C206.772 32.4697 203.241 34.3189 197.946 34.3189ZM207.192 16.1631C206.688 10.4474 203.494 5.4882 197.274 5.4882C191.81 5.4882 187.775 10.0271 187.187 16.1631H207.192ZM131.207 24.4845V24.4005C131.207 17.7602 136.754 14.1458 144.739 14.1458C148.774 14.1458 151.632 14.7342 154.49 15.4907V14.3139C154.49 8.59821 150.96 5.6563 145.076 5.6563C141.882 5.6563 140.032 6.07658 137.679 7.08523C137.343 7.16929 137.091 7.25334 136.838 7.25334C135.746 7.25334 134.737 6.32874 134.737 5.23603C134.737 4.22738 135.157 3.639 135.998 3.30278C139.108 1.95791 141.461 1.53763 145.496 1.53763C149.951 1.53763 153.397 2.7144 155.751 5.06792C157.936 7.25334 159.029 10.2793 159.029 14.3139V31.7973C159.029 33.1421 158.02 34.1508 156.759 34.1508C155.414 34.1508 154.49 33.1421 154.49 31.9654V28.9394C152.304 31.7973 148.606 34.4029 143.058 34.4029C137.175 34.3189 131.207 30.9567 131.207 24.4845ZM154.574 22.0469V19.021C152.22 18.3485 149.11 17.6761 145.244 17.6761C139.276 17.6761 135.998 20.2818 135.998 24.2323V24.3164C135.998 28.267 139.696 30.6205 143.983 30.6205C149.783 30.6205 154.574 27.0061 154.574 22.0469ZM8.65524 3.55494C7.64658 1.28547 5.04089 0.192762 2.68737 1.28547C0.249786 2.37818 -0.590759 4.98387 0.417895 7.25334L10.5044 29.1075C12.1015 32.5537 13.7826 34.3189 16.8926 34.3189C20.2548 34.3189 21.6837 32.3856 23.2807 29.1075C23.2807 29.1075 32.0224 10.0271 32.1064 9.77497C32.1905 9.60687 32.4427 8.93443 33.3673 8.93443C34.1238 8.93443 34.7962 9.52281 34.7962 10.3634V29.0235C34.7962 31.8813 36.3932 34.2348 39.5032 34.2348C42.6133 34.2348 44.2103 31.8813 44.2103 29.0235V13.8096C44.2103 10.8677 46.3117 8.93443 49.1695 8.93443C52.0274 8.93443 53.9606 10.9517 53.9606 13.8096V29.1075C53.9606 31.9654 55.5577 34.3189 58.6677 34.3189C61.7777 34.3189 63.3747 31.9654 63.3747 29.1075V13.8096C63.3747 10.8677 65.4761 8.93443 68.3339 8.93443C71.1918 8.93443 73.125 10.9517 73.125 13.8096V29.1075C73.125 31.9654 74.7221 34.3189 77.8321 34.3189C80.8581 34.3189 82.5391 31.9654 82.5391 29.1075V11.7082C82.5391 5.32009 77.4118 0.865198 71.2758 0.865198C65.0558 0.865198 61.1893 5.15198 61.1893 5.15198C59.172 2.46223 56.3141 0.865198 51.523 0.865198C46.4798 0.865198 42.0249 5.15198 42.0249 5.15198C39.9235 2.46223 36.4773 0.865198 33.5354 0.865198C29.0805 0.865198 25.4661 2.79845 23.2807 7.84172L16.8926 22.9715L8.65524 3.55494ZM212.235 5.40414C212.235 3.21872 214 1.45358 216.186 1.45358C218.371 1.45358 220.136 3.21872 220.136 5.40414C220.136 7.58956 218.371 9.3547 216.186 9.3547C213.916 9.3547 212.235 7.58956 212.235 5.40414ZM219.296 5.40414C219.296 3.639 217.951 2.21007 216.102 2.21007C214.337 2.21007 212.908 3.639 212.908 5.40414C212.908 7.16929 214.253 8.59821 216.102 8.59821C217.867 8.59821 219.296 7.16929 219.296 5.40414Z" fill="#747373"/>
<path d="M214.589 3.80699C214.589 3.55483 214.757 3.38672 215.009 3.38672H216.354C216.858 3.38672 217.194 3.55483 217.447 3.80699C217.699 3.9751 217.783 4.31132 217.783 4.64754C217.783 5.23592 217.447 5.57214 217.026 5.8243L217.615 6.49674C217.699 6.58079 217.783 6.66484 217.783 6.83295C217.783 7.08512 217.615 7.25323 217.363 7.25323C217.194 7.25323 217.026 7.16917 216.942 7.00106L216.102 5.99241H215.429V6.83295C215.429 7.08512 215.261 7.25323 215.009 7.25323C214.757 7.25323 214.589 7.08512 214.589 6.83295V3.80699ZM216.27 5.23592C216.69 5.23592 216.942 4.98375 216.942 4.73159C216.942 4.39537 216.69 4.22726 216.27 4.22726H215.429V5.31997H216.27V5.23592Z" fill="#747373"/>
</svg>
