<svg aria-label="Bluesky" fill="none" height="23" viewBox="0 0 26 23" width="26" xmlns="http://www.w3.org/2000/svg"><path d="m5.81085 1.81485c-2.0472-1.60851-5.410459-2.778339-5.410459 1.0236 0 .80426.438685 6.43406.658029 7.38455.95048 3.1439 4.16751 3.9482 7.09208 3.5095-5.04488.8042-6.36094 3.6557-3.5826 6.5072 5.26423 5.4835 7.6039-1.3161 8.1888-3.0708l.1462-.3656.1463.3656c.5849 1.7547 2.9245 8.5543 8.1888 3.0708 2.7783-2.8515 1.4622-5.703-3.5826-6.5072 2.9245.4387 6.1416-.3656 7.092-3.5095.2194-.95049.6581-6.58029.6581-7.38455 0-3.801939-3.3633-2.63211-5.4105-1.0236-2.8514 2.12032-5.9954 6.50717-7.0921 8.84685-1.0967-2.33968-4.2406-6.72653-7.09205-8.84685z" fill="currentColor"/></svg>