<svg width="512" height="512" viewBox="0 0 512 512" fill="none" xmlns="http://www.w3.org/2000/svg">
<g clip-path="url(#clip0_11_28)">
<path d="M512 0H0V512H512V0Z" fill="currentColor"/>
<path d="M239.062 437.181C233.283 436.377 227.74 435.607 222.207 434.776C212.085 433.256 202.393 430.167 193.041 426.141C180.377 420.689 168.257 414.061 157.095 406.029C141.811 395.033 128.726 381.833 119.417 365.146C113.97 355.382 108.986 345.404 105.64 334.786C102.591 325.11 100.362 315.151 98.2188 305.221C95.0859 290.702 95.1102 275.921 96.0212 261.205C96.7837 248.877 98.5444 236.631 101.286 224.587C105.976 203.995 113.49 184.488 123.611 166.048C131.343 151.958 140.508 138.852 151.536 126.954C161.981 115.686 173.337 105.58 185.624 96.5065C202.063 84.3654 220.389 76.186 240.407 71.9464C248.458 70.241 256.507 68.2735 264.662 67.382C273.445 66.4209 282.358 66.2041 291.204 66.3411C304.377 66.5438 317.508 67.9596 330.092 72.0043C339.071 74.8899 347.93 78.3461 356.47 82.3446C365.499 86.5732 374.291 91.4107 382.809 96.602C391.202 101.717 398.871 107.913 405.621 115.15C408.542 118.28 408.801 119.624 406.873 123.353C400.513 135.645 391.364 145.601 380.811 154.373C373.595 160.37 366.546 166.583 359.123 172.31C349.124 180.025 338.831 187.355 328.677 194.868C320.427 200.973 312.198 207.105 303.959 213.224C303.677 213.434 303.41 213.665 303.118 213.861C298.977 216.645 298.103 216.423 294.649 212.866C284.993 202.922 273.491 198.608 259.673 201.897C244.08 205.608 231.14 213.86 220.55 225.681C206.702 241.137 198.394 259.438 194.325 279.667C191.831 292.07 191.355 304.607 194.229 317.011C196.523 326.915 201.251 335.756 208.039 343.324C215.697 351.859 224.08 359.633 234.736 364.352C243.905 368.414 253.511 370.952 263.453 372.533C273.118 374.069 282.457 372.711 291.869 370.926C296.845 369.982 302.007 369.836 306.87 368.532C314.039 366.61 321.178 364.37 328.033 361.546C337.601 357.604 350.443 360.252 356.939 367.495C359.79 370.675 362.458 374.039 364.998 377.476C370.178 384.488 368.938 393.556 363.003 399.782C358.396 404.615 353.197 408.6 347.371 411.693C339.251 416.004 331.073 420.256 322.676 423.981C317.104 426.452 311.163 428.167 305.281 429.843C298.214 431.855 291.081 433.705 283.884 435.168C278.678 436.227 273.333 436.936 268.027 437.104C258.461 437.408 248.879 437.189 239.062 437.181Z" fill="white"/>
</g>
<defs>
<clipPath id="clip0_11_28">
<rect width="512" height="512" fill="white"/>
</clipPath>
</defs>
</svg>
