<svg width="890" height="346" viewBox="0 0 890 346" fill="none" xmlns="http://www.w3.org/2000/svg">
<g clip-path="url(#clip0_993_690)">
<path d="M46.111 271.306C45.156 271.274 44.2806 270.664 43.9729 269.73C43.7819 269.152 43.8296 268.536 44.1161 267.995C44.4026 267.454 44.8854 267.051 45.4797 266.865C46.0739 266.679 46.7053 266.727 47.2624 267.003C47.8194 267.279 48.228 267.751 48.4243 268.329C48.6153 268.908 48.5675 269.523 48.281 270.064C47.9945 270.605 47.5117 271.009 46.9175 271.194C46.6522 271.279 46.3816 271.311 46.1163 271.306H46.111ZM35.7969 274.558C35.4626 274.548 35.1284 274.463 34.8206 274.309C34.2635 274.033 33.855 273.561 33.664 272.982C33.473 272.404 33.5208 271.789 33.8073 271.247C34.0938 270.706 34.5766 270.303 35.1708 270.117C35.765 269.932 36.3964 269.979 36.9535 270.255C37.5106 270.531 37.9191 271.003 38.1101 271.582C38.3011 272.16 38.2534 272.776 37.9669 273.317C37.6804 273.858 37.1976 274.261 36.6033 274.447C36.3381 274.532 36.0675 274.569 35.7969 274.558ZM25.5941 277.773C25.2599 277.763 24.9256 277.678 24.6179 277.524C24.0608 277.248 23.6523 276.776 23.4613 276.198C23.2703 275.619 23.318 275.004 23.6045 274.463C23.891 273.922 24.3739 273.518 24.9681 273.333C25.5623 273.147 26.1937 273.195 26.7508 273.471C27.3079 273.746 27.7164 274.219 27.9074 274.797C28.0984 275.375 28.0507 275.991 27.7642 276.532C27.4776 277.073 26.9948 277.476 26.4006 277.662C26.1353 277.747 25.8647 277.784 25.5941 277.773Z" fill="#231F20"/>
<path d="M94.0321 287.186H52.7861V310.621H94.0321V287.186Z" stroke="black" stroke-width="5.33747" stroke-miterlimit="10"/>
<path d="M43.9149 289.791V310.626H2.66895V287.186H11.0572" stroke="black" stroke-width="5.33747" stroke-miterlimit="10"/>
<path d="M12.5059 268.191L51.4439 254.933L59.3705 277.062L20.4325 290.316L12.5059 268.191Z" stroke="url(#paint0_linear_993_690)" stroke-width="5.33747" stroke-miterlimit="10"/>
<path d="M117.164 300.059H109.307V303.242H117.164V300.059Z" fill="#BCBEC0"/>
<path d="M452.799 324.072H450.258V320.888H452.799C457.022 320.888 461.033 319.678 464.397 317.392L466.191 320.023C462.296 322.671 457.664 324.072 452.804 324.072H452.799ZM439.365 324.072H423.576V320.888H439.365V324.072ZM412.683 324.072H396.894V320.888H412.683V324.072ZM386.001 324.072H370.212V320.888H386.001V324.072ZM359.319 324.072H343.524V320.888H359.319V324.072ZM332.43 323.838C326.615 323.032 321.442 320.204 317.877 315.88L320.333 313.853C323.389 317.562 327.841 319.986 332.865 320.687L332.425 323.838H332.43ZM473.682 311.131L470.764 309.852C471.655 307.815 472.112 305.656 472.112 303.443V294.912H475.295V303.443C475.295 306.101 474.754 308.685 473.682 311.131ZM143.852 303.236H128.062V300.053H143.852V303.236ZM154.867 303.157L154.612 299.984C159.658 299.581 164.263 297.432 167.568 293.936L169.882 296.121C166.03 300.191 160.697 302.69 154.867 303.157ZM175.129 285.712L171.988 285.197C172.126 284.348 172.2 283.473 172.2 282.608V269.678H175.383V282.608C175.383 283.648 175.299 284.693 175.129 285.712ZM175.596 259.062L172.455 258.542C173.367 253.018 176.763 247.999 181.766 244.774L183.49 247.448C179.241 250.191 176.36 254.424 175.596 259.062ZM192.977 244.28L192.728 241.107C193.375 241.054 194.038 241.028 194.691 241.028H208.639V244.211H194.691C194.118 244.211 193.545 244.232 192.977 244.28ZM815.837 233.186H800.048V230.003H815.837V233.186ZM789.155 233.186H773.365V230.003H789.155V233.186ZM762.473 233.186H746.678V230.003H762.473V233.186ZM735.791 233.186H720.001V230.003H735.791V233.186ZM709.109 233.186H693.319V230.003H709.109V233.186ZM826.745 233.186L826.714 230.003C831.765 229.95 836.524 228.14 840.105 224.915L842.233 227.281C838.073 231.027 832.571 233.122 826.745 233.186ZM682.04 231.589C676.538 229.472 672.102 225.355 669.874 220.283L672.787 218.999C674.681 223.296 678.469 226.803 683.186 228.613L682.045 231.584L682.04 231.589ZM848.355 217.37L845.273 216.569C845.612 215.264 845.787 213.911 845.787 212.558L845.74 201.235L848.923 201.22L848.971 212.547C848.971 214.181 848.764 215.799 848.355 217.37ZM475.295 150.604H472.112V146.916C472.112 142.502 473.608 138.295 476.441 134.745L478.929 136.73C476.552 139.711 475.295 143.234 475.295 146.916V150.604ZM486.967 130.888L485.811 127.922C488.596 126.835 491.551 126.288 494.602 126.288H501.988V129.471H494.602C491.949 129.471 489.381 129.949 486.967 130.888ZM606.068 129.471H592.932V126.288H606.068V129.471ZM582.039 129.471H566.249V126.288H582.039V129.471ZM555.357 129.471H539.567V126.288H555.357V129.471ZM528.675 129.471H512.885V126.288H528.675V129.471Z" fill="#BCBEC0"/>
<path d="M26.6914 336.358H31.7742C33.5728 336.358 34.8302 337.366 34.8302 338.746C34.8302 339.685 34.3209 340.444 33.472 340.858C34.6021 341.34 35.2706 342.237 35.2706 343.272C35.2706 344.789 33.8965 345.84 31.9758 345.84H26.6967V336.364L26.6914 336.358ZM31.1906 340.109C31.8538 340.109 32.3366 339.738 32.3366 339.229C32.3366 338.719 31.8538 338.359 31.1906 338.359H29.0949V340.109H31.1906ZM31.5461 343.834C32.2676 343.834 32.777 343.436 32.777 342.884C32.777 342.333 32.2676 341.935 31.5461 341.935H29.1002V343.839H31.5461V343.834Z" fill="black"/>
<path d="M36.7827 341.68V336.354H39.202V341.569C39.202 342.906 40.0774 343.861 41.2977 343.861C42.518 343.861 43.4041 342.911 43.4041 341.569V336.354H45.8075V341.68C45.8075 344.216 43.9559 345.999 41.2924 345.999C38.629 345.999 36.7773 344.222 36.7773 341.68H36.7827Z" fill="black"/>
<path d="M47.8818 336.358H50.3012V345.834H47.8818V336.358Z" fill="black"/>
<path d="M59.6707 343.723V345.834H52.5664V336.358H54.9858V343.723H59.6707Z" fill="black"/>
<path d="M61.2842 336.358H64.8336C68.1709 336.358 70.5372 338.316 70.5372 341.091C70.5372 343.866 68.1762 345.834 64.8336 345.834H61.2842V336.358ZM65.205 343.696C66.8763 343.696 68.0489 342.608 68.0489 341.091C68.0489 339.574 66.8763 338.497 65.205 338.497H63.7035V343.696H65.205Z" fill="black"/>
<path d="M629.651 181.573V156.159" stroke="black" stroke-width="4.24451" stroke-miterlimit="10"/>
<path d="M622.335 161.056L629.651 153.925L636.963 161.056" stroke="black" stroke-width="4.24451" stroke-miterlimit="10"/>
<path d="M685.271 181.573V156.159" stroke="black" stroke-width="4.24451" stroke-miterlimit="10"/>
<path d="M677.955 161.056L685.272 153.925L692.583 161.056" stroke="black" stroke-width="4.24451" stroke-miterlimit="10"/>
<path d="M657.818 181.576V168.041" stroke="black" stroke-width="4.24451" stroke-miterlimit="10"/>
<path d="M650.503 172.937L657.819 165.807L665.131 172.937" stroke="black" stroke-width="4.24451" stroke-miterlimit="10"/>
<path d="M657.066 147.213C675.977 147.213 691.308 132.27 691.308 113.836C691.308 95.4017 675.977 80.458 657.066 80.458C638.154 80.458 622.823 95.4017 622.823 113.836C622.823 132.27 638.154 147.213 657.066 147.213Z" stroke="url(#paint1_linear_993_690)" stroke-width="5.80967" stroke-miterlimit="10"/>
<path d="M639.689 123.121C643.271 128.814 649.717 132.608 657.065 132.608C664.414 132.608 670.86 128.809 674.441 123.121" stroke="url(#paint2_linear_993_690)" stroke-width="5.80967" stroke-miterlimit="10"/>
<path d="M652.19 105.543C652.19 107.511 650.551 109.108 648.529 109.108C646.508 109.108 644.868 107.511 644.868 105.543C644.868 103.575 646.508 101.978 648.529 101.978C650.551 101.978 652.19 103.575 652.19 105.543ZM665.751 101.978C663.73 101.978 662.09 103.575 662.09 105.543C662.09 107.511 663.73 109.108 665.751 109.108C667.773 109.108 669.412 107.511 669.412 105.543C669.412 103.575 667.773 101.978 665.751 101.978Z" fill="url(#paint3_linear_993_690)"/>
<path d="M623.443 194.917H625.863V204.393H623.443V194.917Z" fill="black"/>
<path d="M628.128 194.917H630.547L633.349 199.857L636.15 194.917H638.569V204.393H636.15V198.902L633.349 203.841L630.547 198.902V204.393H628.128V194.917Z" fill="black"/>
<path d="M640.835 194.917H645.35C647.499 194.917 649.043 196.254 649.043 198.175C649.043 200.095 647.499 201.432 645.35 201.432H643.254V204.398H640.835V194.922V194.917ZM645.138 199.278C645.971 199.278 646.554 198.838 646.554 198.175C646.554 197.511 645.976 197.071 645.138 197.071H643.254V199.278H645.138Z" fill="black"/>
<path d="M656.247 204.393L654.109 201.427H653.149V204.393H650.729V194.917H655.245C657.393 194.917 658.937 196.254 658.937 198.175C658.937 199.623 658.062 200.743 656.688 201.209L658.996 204.398H656.253L656.247 204.393ZM653.149 199.273H655.032C655.865 199.273 656.449 198.833 656.449 198.169C656.449 197.506 655.871 197.066 655.032 197.066H653.149V199.273Z" fill="black"/>
<path d="M660.243 199.649C660.243 196.986 662.636 194.752 665.48 194.752C668.324 194.752 670.701 196.986 670.701 199.649C670.701 202.312 668.308 204.562 665.48 204.562C662.652 204.562 660.243 202.312 660.243 199.649ZM668.212 199.649C668.212 198.158 666.965 196.89 665.48 196.89C663.994 196.89 662.737 198.158 662.737 199.649C662.737 201.14 663.994 202.424 665.48 202.424C666.965 202.424 668.212 201.156 668.212 199.649Z" fill="black"/>
<path d="M682.107 194.917L678.272 204.393H675.539L671.703 194.917H674.42L676.908 201.029L679.386 194.917H682.102H682.107Z" fill="black"/>
<path d="M686.039 197.028V198.503H690.792V200.615H686.039V202.286H691.275V204.398H683.619V194.922H691.275V197.034H686.039V197.028Z" fill="black"/>
<path d="M290.016 256.069H327.946V228.347V214.027V202.869H255.036V218.68H325.336" stroke="black" stroke-width="5.33747" stroke-miterlimit="10"/>
<path d="M309.116 213.411C310.61 213.411 311.822 212.231 311.822 210.775C311.822 209.318 310.61 208.138 309.116 208.138C307.622 208.138 306.41 209.318 306.41 210.775C306.41 212.231 307.622 213.411 309.116 213.411Z" fill="black"/>
<path d="M317.223 213.411C318.718 213.411 319.929 212.231 319.929 210.775C319.929 209.318 318.718 208.138 317.223 208.138C315.729 208.138 314.518 209.318 314.518 210.775C314.518 212.231 315.729 213.411 317.223 213.411Z" fill="black"/>
<path d="M282.525 250.524L282.276 248.969L276.742 247.049C276.546 246.534 276.328 246.025 276.095 245.521L278.615 240.353L277.665 239.08C275.994 236.846 273.983 234.883 271.686 233.254L270.38 232.325L265.075 234.782C264.56 234.554 264.04 234.342 263.51 234.151L261.541 228.755L259.944 228.511C257.159 228.086 254.283 228.086 251.498 228.511L249.901 228.755L247.932 234.151C247.402 234.342 246.882 234.554 246.367 234.782L241.061 232.325L239.756 233.254C237.464 234.883 235.448 236.846 233.777 239.08L232.827 240.353L235.347 245.521C235.114 246.019 234.896 246.529 234.7 247.049L229.166 248.969L228.917 250.524C228.699 251.882 228.588 253.267 228.588 254.641C228.588 256.015 228.699 257.4 228.917 258.758L229.166 260.313L234.7 262.233C234.896 262.748 235.114 263.257 235.347 263.761L232.827 268.929L233.777 270.202C235.448 272.436 237.459 274.399 239.756 276.028L241.061 276.956L246.367 274.5C246.882 274.728 247.402 274.94 247.932 275.131L249.901 280.527L251.498 280.771C252.888 280.983 254.31 281.09 255.721 281.09C257.132 281.09 258.554 280.983 259.944 280.771L261.541 280.527L263.51 275.131C264.04 274.94 264.56 274.728 265.075 274.5L270.375 276.956L271.68 276.028C273.972 274.399 275.983 272.436 277.66 270.202L278.609 268.929L276.089 263.761C276.323 263.263 276.54 262.753 276.737 262.233L282.27 260.313L282.52 258.758C282.737 257.4 282.849 256.015 282.849 254.641C282.849 253.267 282.737 251.882 282.52 250.524H282.525ZM277.347 256.408L272.381 258.127L271.983 259.411C271.654 260.472 271.219 261.506 270.677 262.477L270.025 263.661L272.29 268.298C271.51 269.2 270.651 270.033 269.728 270.791L264.969 268.584L263.759 269.221C262.761 269.746 261.7 270.176 260.613 270.494L259.297 270.882L257.53 275.72C256.326 275.816 255.116 275.816 253.912 275.72L252.145 270.882L250.829 270.494C249.741 270.176 248.68 269.746 247.683 269.221L246.473 268.584L241.714 270.791C240.791 270.027 239.937 269.194 239.151 268.298L241.417 263.661L240.764 262.477C240.223 261.501 239.788 260.472 239.459 259.411L239.061 258.127L234.095 256.408C234.047 255.819 234.021 255.23 234.021 254.641C234.021 254.052 234.047 253.463 234.095 252.879L239.061 251.16L239.459 249.877C239.788 248.815 240.223 247.781 240.764 246.81L241.417 245.632L239.157 240.995C239.937 240.093 240.796 239.26 241.719 238.501L246.478 240.708L247.688 240.072C248.691 239.546 249.747 239.117 250.834 238.798L252.15 238.411L253.917 233.572C255.121 233.477 256.331 233.477 257.535 233.572L259.302 238.411L260.618 238.798C261.706 239.117 262.767 239.546 263.764 240.072L264.974 240.708L269.733 238.501C270.656 239.265 271.51 240.098 272.296 240.995L270.03 245.637L270.683 246.82C271.224 247.797 271.659 248.826 271.988 249.887L272.386 251.171L277.352 252.89C277.4 253.479 277.426 254.068 277.426 254.652C277.426 255.235 277.4 255.829 277.352 256.418L277.347 256.408ZM255.525 246.449C251.015 246.449 247.349 250.025 247.349 254.418C247.349 258.811 251.015 262.387 255.525 262.387C260.034 262.387 263.701 258.811 263.701 254.418C263.701 250.025 260.034 246.449 255.525 246.449ZM255.525 258.604C253.153 258.604 251.227 256.726 251.227 254.418C251.227 252.11 253.153 250.232 255.525 250.232C257.896 250.232 259.822 252.11 259.822 254.418C259.822 256.726 257.896 258.604 255.525 258.604Z" fill="url(#paint4_linear_993_690)"/>
<path d="M277.894 285.878C277.894 283.214 280.286 280.98 283.13 280.98C285.974 280.98 288.351 283.214 288.351 285.878C288.351 288.541 285.958 290.791 283.13 290.791C280.302 290.791 277.894 288.541 277.894 285.878ZM285.863 285.878C285.863 284.387 284.616 283.119 283.13 283.119C281.645 283.119 280.387 284.387 280.387 285.878C280.387 287.368 281.645 288.652 283.13 288.652C284.616 288.652 285.863 287.384 285.863 285.878Z" fill="black"/>
<path d="M290.106 281.146H294.622C296.77 281.146 298.314 282.483 298.314 284.403C298.314 286.324 296.77 287.661 294.622 287.661H292.526V290.627H290.106V281.151V281.146ZM294.409 285.507C295.242 285.507 295.826 285.066 295.826 284.403C295.826 283.74 295.248 283.3 294.409 283.3H292.526V285.507H294.409Z" fill="black"/>
<path d="M302.416 283.257V284.732H307.17V286.843H302.416V288.515H307.653V290.626H299.997V281.15H307.653V283.262H302.416V283.257Z" fill="black"/>
<path d="M315.097 290.621L312.959 287.656H311.998V290.621H309.579V281.146H314.094C316.243 281.146 317.787 282.483 317.787 284.403C317.787 285.852 316.911 286.971 315.537 287.438L317.845 290.627H315.102L315.097 290.621ZM311.998 285.501H313.882C314.715 285.501 315.299 285.061 315.299 284.398C315.299 283.735 314.72 283.294 313.882 283.294H311.998V285.501Z" fill="black"/>
<path d="M325.942 289.173H322.149L321.554 290.621H318.838L322.684 281.146H325.401L329.248 290.621H326.531L325.937 289.173H325.942ZM325.221 287.396L324.048 284.483L322.875 287.396H325.226H325.221Z" fill="black"/>
<path d="M333.031 283.257H330.086V281.146H338.405V283.257H335.45V290.621H333.031V283.257Z" fill="black"/>
<path d="M342.442 283.257V284.732H347.196V286.843H342.442V288.515H347.678V290.626H340.022V281.15H347.678V283.262H342.442V283.257Z" fill="black"/>
<path d="M508.615 222.027H503.251V233.965H508.615V222.027Z" fill="url(#paint5_linear_993_690)"/>
<path d="M508.615 188.151H503.251V200.089H508.615V188.151Z" fill="url(#paint6_linear_993_690)"/>
<path d="M508.615 204.79H503.251V216.728H508.615V204.79Z" fill="url(#paint7_linear_993_690)"/>
<path d="M438.05 172.197V243.372" stroke="black" stroke-width="5.33747" stroke-miterlimit="10"/>
<path d="M438.002 240.751H508.684" stroke="black" stroke-width="5.29502" stroke-miterlimit="10"/>
<path d="M457.214 171.857H444.963V177.089H457.214V171.857Z" fill="url(#paint8_linear_993_690)"/>
<path d="M491.97 171.857H479.72V177.089H491.97V171.857Z" fill="url(#paint9_linear_993_690)"/>
<path d="M508.62 171.857H503.25H496.433V177.083H503.25V183.795H508.62V171.857Z" fill="url(#paint10_linear_993_690)"/>
<path d="M474.897 171.857H462.646V177.089H474.897V171.857Z" fill="url(#paint11_linear_993_690)"/>
<path d="M439.508 199.276H480.451V239.297" stroke="black" stroke-width="5.29502" stroke-miterlimit="10" stroke-linecap="round"/>
<path d="M460.534 218.717L491.307 188.719" stroke="black" stroke-width="5.29502" stroke-miterlimit="10"/>
<path d="M482.584 187.137H492.93V197.223" stroke="black" stroke-width="5.29502" stroke-miterlimit="10"/>
<path d="M468.975 219.299H459.982V209.219" stroke="black" stroke-width="5.29502" stroke-miterlimit="10"/>
<path d="M447.021 264.978L448.396 263.391C449.345 264.15 450.406 264.59 451.595 264.59C452.502 264.59 452.969 264.23 452.969 263.72C452.969 263.153 452.518 263.03 451.102 262.702C449.022 262.245 447.478 261.693 447.478 259.789C447.478 257.884 448.979 256.754 451.186 256.754C452.826 256.754 454.099 257.221 455.134 258.048L453.903 259.73C453.012 259.067 452.035 258.722 451.128 258.722C450.348 258.722 449.913 259.083 449.913 259.55C449.913 260.128 450.38 260.325 451.823 260.627C454.004 261.083 455.404 261.688 455.404 263.471C455.404 265.376 453.919 266.559 451.515 266.559C449.791 266.559 448.221 266.007 447.027 264.972L447.021 264.978Z" fill="black"/>
<path d="M456.587 261.656C456.587 258.992 458.98 256.759 461.824 256.759C463.336 256.759 464.71 257.395 465.67 258.388L463.903 259.921C463.41 259.3 462.646 258.902 461.824 258.902C460.338 258.902 459.081 260.17 459.081 261.661C459.081 263.152 460.338 264.436 461.824 264.436C462.657 264.436 463.41 264.038 463.919 263.417L465.675 264.935C464.715 265.943 463.341 266.574 461.829 266.574C458.985 266.574 456.592 264.325 456.592 261.661L456.587 261.656Z" fill="black"/>
<path d="M473.572 264.951H469.778L469.184 266.4H466.468L470.314 256.924H473.031L476.877 266.4H474.161L473.567 264.951H473.572ZM472.85 263.174L471.678 260.261L470.505 263.174H472.856H472.85Z" fill="black"/>
<path d="M485.471 264.288V266.4H478.367V256.924H480.787V264.288H485.471Z" fill="black"/>
<path d="M489.509 259.036V260.511H494.263V262.623H489.509V264.294H494.746V266.406H487.09V256.93H494.746V259.041H489.509V259.036Z" fill="black"/>
<path d="M808.944 169.428C808.944 166.765 811.337 164.531 814.181 164.531C817.025 164.531 819.402 166.765 819.402 169.428C819.402 172.092 817.009 174.341 814.181 174.341C811.353 174.341 808.944 172.092 808.944 169.428ZM816.913 169.428C816.913 167.937 815.667 166.669 814.181 166.669C812.695 166.669 811.438 167.937 811.438 169.428C811.438 170.919 812.695 172.203 814.181 172.203C815.667 172.203 816.913 170.935 816.913 169.428Z" fill="black"/>
<path d="M821.157 164.696H825.672C827.821 164.696 829.365 166.033 829.365 167.954C829.365 169.875 827.821 171.212 825.672 171.212H823.577V174.177H821.157V164.702V164.696ZM825.46 169.058C826.293 169.058 826.877 168.617 826.877 167.954C826.877 167.291 826.298 166.85 825.46 166.85H823.577V169.058H825.46Z" fill="black"/>
<path d="M833.345 166.808H830.4V164.696H838.72V166.808H835.764V174.172H833.345V166.808Z" fill="black"/>
<path d="M840.338 164.696H842.757V174.172H840.338V164.696Z" fill="black"/>
<path d="M845.018 164.696H847.437L850.238 169.636L853.04 164.696H855.459V174.172H853.04V168.681L850.238 173.62L847.437 168.681V174.172H845.018V164.696Z" fill="black"/>
<path d="M857.729 164.696H860.148V174.172H857.729V164.696Z" fill="black"/>
<path d="M861.931 172.411L866.801 166.808H862.047V164.696H870.112V166.463L865.273 172.066H870.186V174.177H861.952L861.936 172.411H861.931Z" fill="black"/>
<path d="M874.4 166.808V168.282H879.154V170.394H874.4V172.065H879.637V174.177H871.98V164.701H879.637V166.813H874.4V166.808Z" fill="black"/>
<path d="M871.525 91.7648C869.875 93.3724 867.196 93.3724 865.546 91.7648L860.192 86.5494C858.542 84.9418 858.542 82.3314 860.192 80.7185L874.257 67.0087C871.148 65.5125 867.652 64.6689 863.949 64.6689C851.072 64.6689 840.63 74.8452 840.63 87.3983C840.63 90.5074 841.272 93.4679 842.429 96.1632C842.105 96.4019 841.787 96.6619 841.49 96.9484L808.605 129L821.265 141.341L854.149 109.289C854.446 108.998 854.706 108.69 854.955 108.371C857.725 109.502 860.76 110.128 863.949 110.128C876.825 110.128 887.267 99.9514 887.267 87.3983C887.267 84.1672 886.572 81.0952 885.325 78.315L871.525 91.7648Z" stroke="black" stroke-width="5.33747" stroke-linecap="round" stroke-linejoin="round"/>
<path d="M817.322 89.3184H808.801L804.541 96.5075L808.801 103.697H817.322L821.577 96.5075L817.322 89.3184Z" stroke="url(#paint12_linear_993_690)" stroke-width="4.00575" stroke-miterlimit="10"/>
<path d="M875.737 123.503H864.325L858.616 133.138L864.325 142.773H875.737L881.446 133.138L875.737 123.503Z" stroke="url(#paint13_linear_993_690)" stroke-width="5.33747" stroke-miterlimit="10"/>
<path d="M827.483 64.1436H821.976L819.217 68.7913L821.976 73.4443H827.483L830.237 68.7913L827.483 64.1436Z" stroke="url(#paint14_linear_993_690)" stroke-width="2.66873" stroke-miterlimit="10"/>
</g>
<path d="M35.514 224.858V217.382H33.12V227H40.148V224.858H35.514ZM43.945 227H46.143L49.251 219.762H46.801L45.051 224.284L43.259 219.762H40.795L43.945 227ZM50.328 227H52.694V217.214H50.328V227ZM56.0516 227.168C56.8216 227.168 57.4656 226.51 57.4656 225.698C57.4656 224.942 56.8216 224.284 56.0516 224.284C55.2116 224.284 54.5816 224.942 54.5816 225.698C54.5816 226.51 55.2116 227.168 56.0516 227.168ZM65.1402 227H67.5342V217.382H65.6162L62.5642 219.426L63.5162 221.092L65.1402 220.084V227Z" fill="black"/>
<path d="M272.514 157.858V150.382H270.12V160H277.148V157.858H272.514ZM280.945 160H283.143L286.251 152.762H283.801L282.051 157.284L280.259 152.762H277.795L280.945 160ZM287.328 160H289.694V150.214H287.328V160ZM293.052 160.168C293.822 160.168 294.466 159.51 294.466 158.698C294.466 157.942 293.822 157.284 293.052 157.284C292.212 157.284 291.582 157.942 291.582 158.698C291.582 159.51 292.212 160.168 293.052 160.168ZM299.844 160H307.334V157.858H303.512L305.024 156.78C306.704 155.632 307.236 154.638 307.236 153.364C307.236 151.53 305.724 150.214 303.568 150.214C301.986 150.214 300.74 150.872 299.718 152.104L301.216 153.588C301.944 152.818 302.616 152.384 303.512 152.384C304.212 152.384 304.786 152.804 304.786 153.462C304.786 154.05 304.478 154.582 303.4 155.394L299.844 158.054V160Z" fill="black"/>
<path d="M458.514 106.858V99.382H456.12V109H463.148V106.858H458.514ZM466.945 109H469.143L472.251 101.762H469.801L468.051 106.284L466.259 101.762H463.795L466.945 109ZM473.328 109H475.694V99.214H473.328V109ZM479.052 109.168C479.822 109.168 480.466 108.51 480.466 107.698C480.466 106.942 479.822 106.284 479.052 106.284C478.212 106.284 477.582 106.942 477.582 107.698C477.582 108.51 478.212 109.168 479.052 109.168ZM489.596 109.182C491.92 109.182 493.432 107.978 493.432 106.284C493.432 105.052 492.508 104.296 491.43 104.044C492.508 103.736 493.222 102.924 493.222 101.846C493.222 100.334 491.85 99.214 489.582 99.214C487.804 99.214 486.628 99.956 485.802 100.922L487.146 102.378C487.776 101.762 488.476 101.356 489.33 101.356C490.198 101.356 490.772 101.706 490.772 102.294C490.772 102.854 490.254 103.176 489.288 103.162H488.154V105.178L489.288 105.164C490.52 105.164 490.968 105.472 490.968 106.074C490.968 106.634 490.436 107.04 489.47 107.04C488.574 107.04 487.678 106.69 486.978 105.99L485.606 107.572C486.46 108.524 487.818 109.182 489.596 109.182Z" fill="black"/>
<path d="M641.514 44.858V37.382H639.12V47H646.148V44.858H641.514ZM649.945 47H652.143L655.251 39.762H652.801L651.051 44.284L649.259 39.762H646.795L649.945 47ZM656.328 47H658.694V37.214H656.328V47ZM662.052 47.168C662.822 47.168 663.466 46.51 663.466 45.698C663.466 44.942 662.822 44.284 662.052 44.284C661.212 44.284 660.582 44.942 660.582 45.698C660.582 46.51 661.212 47.168 662.052 47.168ZM673.534 47H675.928V45.166H677.146V43.178H675.928V37.396H673.016L668.662 43.346L668.872 45.166H673.534V47ZM671.14 43.178L673.534 39.874V43.178H671.14Z" fill="black"/>
<path d="M842.514 14.858V7.382H840.12V17H847.148V14.858H842.514ZM850.945 17H853.143L856.251 9.762H853.801L852.051 14.284L850.259 9.762H847.795L850.945 17ZM857.328 17H859.694V7.214H857.328V17ZM863.052 17.168C863.822 17.168 864.466 16.51 864.466 15.698C864.466 14.942 863.822 14.284 863.052 14.284C862.212 14.284 861.582 14.942 861.582 15.698C861.582 16.51 862.212 17.168 863.052 17.168ZM873.54 17.182C875.962 17.182 877.516 15.866 877.516 13.78C877.516 11.806 876.018 10.714 874.338 10.714C873.568 10.714 872.966 10.938 872.504 11.274L872.56 9.524H876.984V7.382H870.362L870.222 12.66L871.804 13.276C872.294 12.898 872.896 12.674 873.582 12.674C874.534 12.674 875.122 13.15 875.122 13.864C875.122 14.55 874.562 15.11 873.554 15.11C872.686 15.11 871.818 14.676 871.09 14.032L869.718 15.726C870.656 16.622 871.888 17.182 873.54 17.182Z" fill="black"/>
<defs>
<linearGradient id="paint0_linear_993_690" x1="13.8808" y1="280.314" x2="57.9672" y2="264.91" gradientUnits="userSpaceOnUse">
<stop stop-color="#773DBD"/>
<stop offset="1" stop-color="#00CEFF"/>
</linearGradient>
<linearGradient id="paint1_linear_993_690" x1="619.921" y1="113.836" x2="694.216" y2="113.836" gradientUnits="userSpaceOnUse">
<stop stop-color="#ED779E"/>
<stop offset="1" stop-color="#EDA950"/>
</linearGradient>
<linearGradient id="paint2_linear_993_690" x1="637.233" y1="128.543" x2="676.903" y2="128.543" gradientUnits="userSpaceOnUse">
<stop stop-color="#ED779E"/>
<stop offset="1" stop-color="#EDA950"/>
</linearGradient>
<linearGradient id="paint3_linear_993_690" x1="644.873" y1="105.543" x2="669.412" y2="105.543" gradientUnits="userSpaceOnUse">
<stop stop-color="#ED779E"/>
<stop offset="1" stop-color="#EDA950"/>
</linearGradient>
<linearGradient id="paint4_linear_993_690" x1="228.583" y1="254.641" x2="282.854" y2="254.641" gradientUnits="userSpaceOnUse">
<stop stop-color="#92278F"/>
<stop offset="0.45" stop-color="#B92886"/>
<stop offset="1" stop-color="#EE2A7B"/>
</linearGradient>
<linearGradient id="paint5_linear_993_690" x1="501.341" y1="225.343" x2="510.536" y2="230.649" gradientUnits="userSpaceOnUse">
<stop stop-color="#00CEFF"/>
<stop offset="0.13" stop-color="#21D3E7"/>
<stop offset="0.33" stop-color="#50DCC6"/>
<stop offset="0.53" stop-color="#75E3AC"/>
<stop offset="0.71" stop-color="#90E899"/>
<stop offset="0.87" stop-color="#A0EA8D"/>
<stop offset="0.99" stop-color="#A6EC8A"/>
</linearGradient>
<linearGradient id="paint6_linear_993_690" x1="501.341" y1="191.467" x2="510.536" y2="196.773" gradientUnits="userSpaceOnUse">
<stop stop-color="#00CEFF"/>
<stop offset="0.13" stop-color="#21D3E7"/>
<stop offset="0.33" stop-color="#50DCC6"/>
<stop offset="0.53" stop-color="#75E3AC"/>
<stop offset="0.71" stop-color="#90E899"/>
<stop offset="0.87" stop-color="#A0EA8D"/>
<stop offset="0.99" stop-color="#A6EC8A"/>
</linearGradient>
<linearGradient id="paint7_linear_993_690" x1="501.341" y1="208.106" x2="510.536" y2="213.412" gradientUnits="userSpaceOnUse">
<stop stop-color="#00CEFF"/>
<stop offset="0.13" stop-color="#21D3E7"/>
<stop offset="0.33" stop-color="#50DCC6"/>
<stop offset="0.53" stop-color="#75E3AC"/>
<stop offset="0.71" stop-color="#90E899"/>
<stop offset="0.87" stop-color="#A0EA8D"/>
<stop offset="0.99" stop-color="#A6EC8A"/>
</linearGradient>
<linearGradient id="paint8_linear_993_690" x1="453.749" y1="169.857" x2="448.422" y2="179.084" gradientUnits="userSpaceOnUse">
<stop stop-color="#00CEFF"/>
<stop offset="0.13" stop-color="#21D3E7"/>
<stop offset="0.33" stop-color="#50DCC6"/>
<stop offset="0.53" stop-color="#75E3AC"/>
<stop offset="0.71" stop-color="#90E899"/>
<stop offset="0.87" stop-color="#A0EA8D"/>
<stop offset="0.99" stop-color="#A6EC8A"/>
</linearGradient>
<linearGradient id="paint9_linear_993_690" x1="488.506" y1="169.857" x2="483.179" y2="179.084" gradientUnits="userSpaceOnUse">
<stop stop-color="#00CEFF"/>
<stop offset="0.13" stop-color="#21D3E7"/>
<stop offset="0.33" stop-color="#50DCC6"/>
<stop offset="0.53" stop-color="#75E3AC"/>
<stop offset="0.71" stop-color="#90E899"/>
<stop offset="0.87" stop-color="#A0EA8D"/>
<stop offset="0.99" stop-color="#A6EC8A"/>
</linearGradient>
<linearGradient id="paint10_linear_993_690" x1="506.635" y1="170.711" x2="500.125" y2="181.986" gradientUnits="userSpaceOnUse">
<stop stop-color="#00CEFF"/>
<stop offset="0.13" stop-color="#21D3E7"/>
<stop offset="0.33" stop-color="#50DCC6"/>
<stop offset="0.53" stop-color="#75E3AC"/>
<stop offset="0.71" stop-color="#90E899"/>
<stop offset="0.87" stop-color="#A0EA8D"/>
<stop offset="0.99" stop-color="#A6EC8A"/>
</linearGradient>
<linearGradient id="paint11_linear_993_690" x1="471.433" y1="169.857" x2="466.106" y2="179.084" gradientUnits="userSpaceOnUse">
<stop stop-color="#00CEFF"/>
<stop offset="0.13" stop-color="#21D3E7"/>
<stop offset="0.33" stop-color="#50DCC6"/>
<stop offset="0.53" stop-color="#75E3AC"/>
<stop offset="0.71" stop-color="#90E899"/>
<stop offset="0.87" stop-color="#A0EA8D"/>
<stop offset="0.99" stop-color="#A6EC8A"/>
</linearGradient>
<linearGradient id="paint12_linear_993_690" x1="802.217" y1="96.5075" x2="823.907" y2="96.5075" gradientUnits="userSpaceOnUse">
<stop stop-color="#F244B1"/>
<stop offset="0.07" stop-color="#E041B9"/>
<stop offset="0.29" stop-color="#B139D2"/>
<stop offset="0.5" stop-color="#8C33E5"/>
<stop offset="0.69" stop-color="#712FF3"/>
<stop offset="0.87" stop-color="#612CFC"/>
<stop offset="1" stop-color="#5C2CFF"/>
</linearGradient>
<linearGradient id="paint13_linear_993_690" x1="855.512" y1="133.138" x2="884.545" y2="133.138" gradientUnits="userSpaceOnUse">
<stop stop-color="#F244B1"/>
<stop offset="0.07" stop-color="#E041B9"/>
<stop offset="0.29" stop-color="#B139D2"/>
<stop offset="0.5" stop-color="#8C33E5"/>
<stop offset="0.69" stop-color="#712FF3"/>
<stop offset="0.87" stop-color="#612CFC"/>
<stop offset="1" stop-color="#5C2CFF"/>
</linearGradient>
<linearGradient id="paint14_linear_993_690" x1="817.668" y1="68.7913" x2="831.786" y2="68.7913" gradientUnits="userSpaceOnUse">
<stop stop-color="#F244B1"/>
<stop offset="0.07" stop-color="#E041B9"/>
<stop offset="0.29" stop-color="#B139D2"/>
<stop offset="0.5" stop-color="#8C33E5"/>
<stop offset="0.69" stop-color="#712FF3"/>
<stop offset="0.87" stop-color="#612CFC"/>
<stop offset="1" stop-color="#5C2CFF"/>
</linearGradient>
<clipPath id="clip0_993_690">
<rect width="889.935" height="284" fill="white" transform="translate(0 62)"/>
</clipPath>
</defs>
</svg>
