<svg width="385" height="62" viewBox="0 0 385 62" fill="none" xmlns="http://www.w3.org/2000/svg">
<path d="M91.9004 27.4C93.4004 27.4 94.8004 27.1 96.2004 26.5C97.5004 25.9 98.7004 24.9 99.6004 23.7L103.7 27.9C100.5 31.5 96.8004 33.2999 92.4004 33.2999C90.4004 33.3999 88.5004 33.0999 86.6004 32.2999C84.8004 31.5999 83.1004 30.5 81.6004 29.2C80.2004 27.9 79.1004 26.2 78.4004 24.5C77.7004 22.7 77.3004 20.8 77.4004 18.9C77.3004 17 77.7004 15 78.4004 13.2C79.1004 11.4 80.2004 9.79995 81.6004 8.39995C83.1004 6.99995 84.9004 5.89995 86.8004 5.19995C88.7004 4.49995 90.8004 4.19995 92.9004 4.29995C95.0004 4.39995 97.0004 4.89995 98.9004 5.79995C100.8 6.69995 102.4 7.99995 103.8 9.59995L99.9004 14.1C99.0004 12.9 97.9004 12 96.6004 11.4C95.3004 10.8 93.9004 10.4 92.4004 10.4C90.2004 10.4 88.0004 11.2 86.3004 12.7C85.4004 13.5 84.8004 14.5 84.3004 15.6C83.9004 16.7 83.7004 17.9 83.7004 19C83.6004 20.2 83.8004 21.3 84.2004 22.4C84.6004 23.5 85.2004 24.4999 86.1004 25.2999C87.7004 26.5999 89.8004 27.4 91.9004 27.4ZM108.5 32.9V4.69995H114.8V27.2999H126.9V32.9H108.5ZM154.5 29C151.6 31.7 147.9 33.2 143.9 33.2C139.9 33.2 136.2 31.7 133.3 29C131.9 27.7 130.8 26.0999 130.1 24.2999C129.4 22.4999 129 20.6 129 18.7C128.9 16.8 129.3 14.8 130 13.1C130.7 11.3 131.8 9.69995 133.2 8.39995C136.1 5.69995 139.8 4.19995 143.8 4.19995C147.8 4.19995 151.5 5.69995 154.4 8.39995C155.8 9.69995 156.9 11.3 157.6 13.1C158.3 14.9 158.7 16.8 158.6 18.7C158.7 20.6 158.3 22.5999 157.6 24.2999C157 26.0999 155.9 27.7 154.5 29ZM152.3 18.7C152.3 16.3 151.4 14 149.8 12.2C149 11.4 148.1 10.7 147.1 10.2C146.1 9.69995 144.9 9.49995 143.8 9.49995C142.7 9.49995 141.6 9.69995 140.5 10.2C139.5 10.7 138.5 11.3 137.8 12.2C136.2 14 135.3 16.3 135.3 18.7C135.3 21.1 136.2 23.4 137.8 25.2C138.6 26 139.5 26.7 140.5 27.2C141.5 27.7 142.7 27.9 143.8 27.9C144.9 27.9 146 27.7 147.1 27.2C148.1 26.7 149.1 26.1 149.8 25.2C150.6 24.3 151.3 23.3 151.7 22.2C152.2 21 152.4 19.9 152.3 18.7ZM171.6 25.7C172.1 26.4 172.8 26.9 173.5 27.2C174.2 27.5 175.1 27.7 175.9 27.7C176.7 27.7 177.5 27.6 178.2 27.2C178.9 26.9 179.6 26.3 180 25.7C181.1 24.1 181.6 22.3 181.5 20.4V4.79995H187.8V20.6C187.8 24.7 186.7 27.8 184.4 30C183.2 31.1 181.9 32 180.4 32.5C178.9 33.1 177.3 33.2999 175.7 33.2999C174.1 33.2999 172.5 33.1 171 32.5C169.5 31.9 168.1 31.1 167 30C164.7 27.8 163.6 24.7 163.6 20.6V4.79995H169.9V20.4C169.9 22.3 170.5 24.2 171.6 25.7ZM216.1 8.39995C218.8 10.9 220.2 14.3 220.2 18.7C220.2 23.1 218.9 26.6 216.3 29.2C213.7 31.8 209.6 33 204.3 33H194.5V4.69995H204.5C209.5 4.69995 213.4 5.89995 216.1 8.39995ZM211.5 25.2C213 23.8 213.8 21.6 213.8 18.8C213.8 16 213 13.9 211.5 12.4C210 10.9 207.6 10.1 204.4 10.1H200.9V27.2999H204.9C207.3 27.4999 209.7 26.8 211.5 25.2ZM256.1 4.69995H262.4V33H256.1L242.6 15.3V33H236.3V4.69995H242.2L256.1 22.9V4.69995ZM289.5 32.9L286.8 26.7999H274.9L272.2 32.9H265.4L277.6 4.59995H283.7L296 32.9H289.5ZM281 13.1L277.5 21.2999H284.5L281 13.1ZM309.5 10.2V33H303.2V10.2H295.2V4.79995H317.6V10.2C317.6 10.2 309.5 10.2 309.5 10.2ZM322 4.69995H328.3V33H322C322 32.9 322 4.69995 322 4.69995ZM345.8 22.7L353 4.69995H359.9L348.6 33H343.3L332 4.69995H338.9L345.8 22.7ZM383.5 4.69995V10.3H369.4V16.1H382.1V21.5H369.4V27.4H384V33H363.2V4.79995L383.5 4.69995ZM84.6004 57C85.4004 57 86.2004 56.8 87.0004 56.5C87.7004 56.1 88.4004 55.6 88.9004 54.9L91.2004 57.2999C90.4004 58.1999 89.5004 59 88.3004 59.5C87.2004 60 86.0004 60.3 84.8004 60.3C83.7004 60.3 82.6004 60.2 81.6004 59.8C80.6004 59.4 79.6004 58.8 78.8004 58C78.0004 57.3 77.4004 56.4 77.0004 55.4C76.6004 54.4 76.4004 53.3 76.4004 52.2C76.4004 51.1 76.6004 50 77.0004 49C77.4004 48 78.0004 47.0999 78.8004 46.2999C79.6004 45.4999 80.5004 44.9 81.5004 44.5C82.5004 44.1 83.6004 43.9 84.7004 43.9C85.9004 43.9 87.2004 44.0999 88.3004 44.5999C89.4004 45.0999 90.4004 45.8999 91.3004 46.7999L89.1004 49.2999C88.6004 48.5999 88.0004 48.1 87.3004 47.7C86.6004 47.3 85.8004 47.2 84.9004 47.2C83.6004 47.2 82.4004 47.7 81.5004 48.5C81.0004 48.9 80.6004 49.4999 80.4004 50.0999C80.2004 50.6999 80.0004 51.4 80.1004 52C80.1004 52.6 80.2004 53.3 80.4004 53.9C80.6004 54.5 81.0004 55.1 81.4004 55.5C81.8004 55.9 82.3004 56.3 82.9004 56.5C83.5004 56.7 84.0004 57 84.6004 57ZM106.9 57.9C105.3 59.4 103.2 60.3 101 60.3C99.9004 60.3 98.8004 60.0999 97.8004 59.6999C96.8004 59.2999 95.9004 58.7 95.1004 57.9C93.6004 56.4 92.7004 54.2999 92.7004 52.0999C92.7004 49.8999 93.6004 47.7999 95.1004 46.2999C96.7004 44.7999 98.8004 43.9 101 43.9C102.1 43.9 103.2 44.1 104.2 44.5C105.2 44.9 106.1 45.4999 106.9 46.2999C108.4 47.7999 109.3 49.8999 109.3 52.0999C109.3 54.2999 108.4 56.4 106.9 57.9ZM105.8 52.0999C105.8 50.7999 105.4 49.5 104.5 48.5C104.1 48 103.6 47.7 103 47.4C102.4 47.1 101.8 47 101.2 47C100.6 47 99.9004 47.1 99.4004 47.4C98.8004 47.7 98.3004 48.0999 97.9004 48.5999C97.4004 49.0999 97.1004 49.5999 96.9004 50.2999C96.7004 50.8999 96.6004 51.6 96.6004 52.2C96.6004 53.5 97.1004 54.7999 97.9004 55.7999C98.3004 56.2999 98.8004 56.6 99.4004 56.9C100 57.2 100.6 57.2999 101.2 57.2999C101.8 57.2999 102.5 57.2 103 56.9C103.6 56.6 104.1 56.2 104.5 55.7C105.3 54.8 105.8 53.4999 105.8 52.0999ZM126.5 50.0999L122.2 58.8H120.1L115.8 50.0999V60.0999H112.3V44.2999H117.1L121.2 53L125.3 44.2999H130.1V60.1999H126.6L126.5 50.0999ZM144.9 45.7999C145.5 46.2999 146 46.9999 146.3 47.7999C146.6 48.5999 146.7 49.4 146.6 50.2C146.6 52.2 146 53.6 144.9 54.5C143.8 55.5 142 55.7999 139.7 55.7999H137.6V60.1999H134V44.2999H139.6C142 44.2999 143.7 44.7999 144.9 45.7999ZM142.3 52C142.8 51.4 143 50.7 143 49.9C143 49.5 143 49.1999 142.8 48.7999C142.6 48.4999 142.4 48.2 142.1 48C141.3 47.6 140.4 47.4 139.5 47.4H137.5V52.7H139.9C140.3 52.7 140.8 52.6999 141.2 52.5999C141.6 52.3999 142 52.2 142.3 52ZM153.6 56C153.9 56.4 154.2 56.5999 154.7 56.7999C155.1 56.9999 155.6 57.0999 156 57.0999C156.5 57.0999 156.9 56.9999 157.3 56.7999C157.7 56.5999 158.1 56.3 158.4 56C159 55.1 159.3 54 159.3 53V44.2H162.8V53C162.9 54 162.7 54.9 162.4 55.9C162.1 56.8 161.6 57.7 160.9 58.4C159.6 59.6 157.8 60.1999 156 60.1999C154.2 60.1999 152.5 59.5 151.2 58.3C150.5 57.6 150 56.6999 149.7 55.7999C149.4 54.8999 149.2 53.9 149.3 52.9V44.0999H152.8V52.9C152.6 54 152.9 55.1 153.6 56ZM173.1 47.4V60.0999H169.6V47.4H165.1V44.4H177.7V47.4C177.6 47.4 173.1 47.4 173.1 47.4ZM180.2 44.2999H183.7V60.1999H180.2V44.2999ZM198.7 44.2999H202.2V60.1999H198.7L191.2 50.2999V60.1999H187.7V44.2999H191L198.8 54.5L198.7 44.2999ZM216.5 52.0999H220V57.7C219.2 58.6 218.1 59.2999 217 59.6999C215.9 60.1999 214.6 60.4 213.4 60.3C211.2 60.3 209.1 59.5 207.5 58C206.7 57.3 206.1 56.4 205.7 55.4C205.3 54.4 205.1 53.3 205.1 52.2C205.1 51.1 205.3 50 205.7 49C206.1 48 206.7 47.0999 207.5 46.2999C208.3 45.4999 209.2 44.9 210.2 44.5C211.2 44.1 212.3 43.9 213.4 43.9C215.6 43.9 217.7 44.7 219.3 46.2L217.5 48.9C217 48.3 216.3 47.9 215.5 47.7C214.9 47.5 214.2 47.2999 213.6 47.2999C212.3 47.2999 211.1 47.7999 210.2 48.5999C209.7 49.0999 209.3 49.5999 209.1 50.2999C208.9 50.9999 208.7 51.5999 208.8 52.2999C208.8 53.5999 209.2 54.9 210.1 55.9C210.5 56.3 211 56.7 211.5 56.9C212 57.1 212.6 57.2 213.2 57.2C214.3 57.3 215.3 57 216.2 56.5V52H216.5V52.0999ZM240 44.2999V47.4H232.7V50.7999H239.6V54H232.7V60.1999H229.2V44.2999C229.1 44.2999 240 44.2999 240 44.2999ZM256.4 57.9C254.8 59.4 252.7 60.3 250.5 60.3C249.4 60.3 248.3 60.0999 247.3 59.6999C246.3 59.2999 245.4 58.7 244.6 57.9C243.1 56.4 242.2 54.2999 242.2 52.0999C242.2 49.8999 243.1 47.7999 244.6 46.2999C246.2 44.7999 248.3 43.9 250.5 43.9C251.6 43.9 252.7 44.1 253.7 44.5C254.7 44.9 255.6 45.4999 256.4 46.2999C257.9 47.7999 258.8 49.8999 258.8 52.0999C258.8 54.2999 257.9 56.4 256.4 57.9ZM255.1 52.0999C255.1 50.7999 254.7 49.5 253.8 48.5C253.4 48 252.9 47.7 252.3 47.4C251.7 47.1 251.1 47 250.5 47C249.9 47 249.2 47.1 248.7 47.4C248.1 47.7 247.6 48.0999 247.2 48.5999C246.7 49.0999 246.4 49.5999 246.2 50.2999C246 50.9999 245.9 51.6 245.9 52.2C245.9 53.5 246.4 54.7999 247.2 55.7999C247.6 56.2999 248.1 56.6 248.7 56.9C249.3 57.2 249.9 57.2999 250.5 57.2999C251.1 57.2999 251.8 57.2 252.3 56.9C252.9 56.6 253.4 56.2 253.8 55.7C254.3 55.2 254.6 54.7 254.8 54C255 53.3 255.2 52.7999 255.1 52.0999ZM266 56C266.3 56.4 266.6 56.5999 267.1 56.7999C267.5 56.9999 268 57.0999 268.4 57.0999C268.8 57.0999 269.3 56.9999 269.7 56.7999C270.1 56.5999 270.5 56.3 270.8 56C271.4 55.1 271.7 54 271.7 53V44.2H275.2V53C275.3 54 275.1 54.9 274.8 55.9C274.5 56.8 274 57.7 273.3 58.4C272 59.6 270.2 60.1999 268.4 60.1999C266.6 60.1999 264.9 59.5 263.6 58.3C262.9 57.6 262.4 56.6999 262.1 55.7999C261.8 54.8999 261.6 53.9 261.7 52.9V44.0999H265.2V52.9C265 54 265.3 55.2 266 56ZM289.9 44.2999H293.4V60.1999H289.9L282.4 50.2999V60.1999H278.9V44.2999H282.2L290 54.5L289.9 44.2999ZM309.4 46.4C310.2 47.1 310.8 48.0999 311.2 49.0999C311.6 50.0999 311.8 51.2 311.7 52.2C311.8 53.3 311.6 54.2999 311.2 55.2999C310.8 56.2999 310.2 57.2 309.5 58C308.1 59.4 305.8 60.1999 302.7 60.1999H297.3V44.2999H302.9C305.8 44.2999 308 45 309.4 46.4ZM306.8 55.9C307.2 55.4 307.6 54.8999 307.8 54.2999C308 53.6999 308.1 53 308.1 52.4C308.1 51.7 308 51.1 307.8 50.5C307.6 49.9 307.2 49.2999 306.8 48.7999C306.2 48.2999 305.6 47.9999 304.9 47.7999C304.2 47.5999 303.5 47.4999 302.8 47.5999H300.8V57.2H303.1C304.4 57.1 305.8 56.7 306.8 55.9ZM325.6 60.0999L324.2 56.7H317.5L316.1 60.0999H312.3L319.2 44.2H322.6L329.5 60.0999H325.6ZM320.8 49L318.8 53.5999H322.8L320.8 49ZM336.8 47.4V60.0999H333.3V47.4H328.7V44.4H341.3V47.4H336.8ZM343.8 44.2999H347.3V60.1999H343.8V44.2999ZM364.6 57.9C363 59.4 360.9 60.3 358.7 60.3C357.6 60.3 356.5 60.0999 355.5 59.6999C354.5 59.2999 353.6 58.7 352.8 57.9C351.3 56.4 350.4 54.2999 350.4 52.0999C350.4 49.8999 351.3 47.7999 352.8 46.2999C354.4 44.7999 356.5 43.9 358.7 43.9C359.8 43.9 360.9 44.1 361.9 44.5C362.9 44.9 363.8 45.4999 364.6 46.2999C366.1 47.7999 367 49.8999 367 52.0999C367 54.2999 366.1 56.4 364.6 57.9ZM363.5 52.0999C363.5 50.7999 363 49.5 362.2 48.5C361.8 48 361.3 47.7 360.7 47.4C360.1 47.1 359.5 47 358.9 47C358.3 47 357.6 47.1 357.1 47.4C356.5 47.7 356 48.0999 355.6 48.5999C355.1 49.0999 354.8 49.5999 354.6 50.2999C354.4 50.9999 354.3 51.6 354.3 52.2C354.3 53.5 354.8 54.7999 355.6 55.7999C356 56.2999 356.5 56.6 357.1 56.9C357.7 57.2 358.3 57.2999 358.9 57.2999C359.5 57.2999 360.2 57.2 360.7 56.9C361.3 56.6 361.8 56.2 362.2 55.7C363 54.8 363.5 53.4999 363.5 52.0999ZM381.1 44.2999H384.6V60.1999H381.1L373.6 50.2999V60.1999H370V44.2999H373.3L381.1 54.5C381.2 54.5 381.1 44.2999 381.1 44.2999Z" fill="black"/>
<path d="M9.2 41.3H0.5V61.6H20.8V52.9001H9.2V41.3Z" fill="#0086FF"/>
<path d="M52.7992 41.4001V52.9001H41.1992V61.6H61.4992V41.3L52.7992 41.4001Z" fill="#0086FF"/>
<path d="M0.5 21.1H9.3L9.2 21V9.50005H20.8V0.800049H0.5V21.1Z" fill="#0086FF"/>
<path d="M41.1992 0.800049V9.50005H52.7992V21.1H61.4992V0.800049C61.3992 0.800049 41.1992 0.800049 41.1992 0.800049Z" fill="#0086FF"/>
<path d="M40.0008 21.1L28.4008 9.50005H41.1008V0.800049H20.8008V9.50005L32.4008 21.1H40.0008Z" fill="#93EAFF"/>
<path d="M29.6008 41.3H22.0008L31.6008 50.9001L33.5008 52.9001H20.8008V61.6H41.2008V52.8L35.4008 47.1L29.6008 41.3Z" fill="#93EAFF"/>
<path d="M52.7992 21.1001V33.7001L50.7992 31.7001L41.1992 22.1001V29.8001L46.8992 35.5001L52.6992 41.3001H61.4992V21.1001H52.7992Z" fill="#93EAFF"/>
<path d="M20.8 32.6001L9.3 21.1001H0.5V41.3001H9.2V28.7001L20.8 40.3001V32.6001Z" fill="#93EAFF"/>
</svg>
