<?xml version="1.0" encoding="utf-8"?>
<!-- Generator: Adobe Illustrator 27.2.0, SVG Export Plug-In . SVG Version: 6.00 Build 0)  -->
<svg version="1.1" id="Layer_1" xmlns="http://www.w3.org/2000/svg" xmlns:xlink="http://www.w3.org/1999/xlink" x="0px" y="0px"
	 viewBox="0 0 308.8 119.1" style="enable-background:new 0 0 308.8 119.1;" xml:space="preserve">
<style type="text/css">
	.st0{fill:#FFFFFF;}
	.st1{fill-rule:evenodd;clip-rule:evenodd;fill:#FFFFFF;}
	.st2{fill:none;stroke:#FFFFFF;stroke-width:0.4;stroke-miterlimit:10;}
	.st3{opacity:0.7;fill:#FFFFFF;enable-background:new    ;}
	.st4{fill:none;stroke:#FFFFFF;stroke-width:0.38;stroke-miterlimit:10;}
</style>
<path class="st0" d="M80.6,118.9h2.1v-4.9l3.6,4.9h2v-8.2h-2v4.9l-3.6-4.9h-2.1V118.9z M93.1,119.1c1.9,0,3.4-1.5,3.4-3.3
	s-1.5-3.2-3.4-3.2c-1.9,0-3.5,1.5-3.5,3.2S91.2,119.1,93.1,119.1z M93.1,117.4c-0.8,0-1.5-0.7-1.5-1.6s0.7-1.5,1.5-1.5
	c0.8,0,1.5,0.7,1.5,1.5S93.9,117.4,93.1,117.4z M99.7,113.8v-1.1h-2v6.2h2v-2.8c0-1.1,0.8-1.9,2-1.9v-1.7
	C100.9,112.6,100.1,113.1,99.7,113.8z M106.4,117.2c-0.1,0.1-0.4,0.2-0.6,0.2c-0.3,0-0.6-0.3-0.6-0.7v-2.4h1.3v-1.6h-1.3V111h-1.9
	v1.7h-0.8v1.6h0.8v2.7c0,1.2,0.8,2,2,2c0.5,0,1.1-0.2,1.5-0.6L106.4,117.2z M111.7,112.6c-0.8,0-1.4,0.3-1.8,0.8v-2.9h-2v8.4h2v-3.6
	c0-0.6,0.5-1.1,1.1-1.1s1.1,0.5,1.1,1.2v3.5h2V115C114,113.6,113.1,112.6,111.7,112.6z M124.8,118.9h2.3l-3.3-8.2h-2.3l-3.3,8.2h2.3
	l0.5-1.3h3.2L124.8,118.9z M121.7,116.1l1-2.5l1,2.5H121.7z M135.8,112.6c-0.9,0-1.7,0.6-1.8,1.4c-0.3-0.9-1.2-1.4-2.1-1.4
	c-0.7,0-1.3,0.4-1.6,0.9v-0.8h-2v6.2h2v-3.7c0-0.6,0.4-1,1-1c0.6,0,1,0.4,1,1.1v3.6h1.9v-3.7c0-0.6,0.4-1,1-1c0.6,0,1,0.4,1,1.1v3.6
	h2v-4C138.1,113.6,137.1,112.6,135.8,112.6z M142.5,117.5c-0.7,0-1.2-0.5-1.4-1.2h4.5c0-2.4-1.2-3.8-3.2-3.8c-1.9,0-3.3,1.3-3.3,3.2
	c0,1.9,1.5,3.3,3.4,3.3c0.9,0,2-0.4,2.5-1L144,117C143.6,117.3,143,117.5,142.5,117.5z M142.5,114.1c0.6,0,1.1,0.4,1.2,1.1h-2.6
	C141.3,114.5,141.8,114.1,142.5,114.1z M148.7,113.8v-1.1h-2v6.2h2v-2.8c0-1.1,0.8-1.9,2-1.9v-1.7
	C149.9,112.6,149.2,113.1,148.7,113.8z M153,112c0.6,0,1.1-0.5,1.1-1.1c0-0.6-0.5-1.1-1.1-1.1c-0.6,0-1.1,0.5-1.1,1.1
	C152,111.5,152.4,112,153,112z M152,118.9h2v-6.2h-2V118.9z M158.6,119.1c1.1,0,2-0.4,2.6-1.1l-1.3-1.1c-0.3,0.3-0.8,0.6-1.2,0.6
	c-0.8,0-1.5-0.7-1.5-1.6c0-0.8,0.7-1.5,1.5-1.5c0.4,0,0.9,0.2,1.2,0.5l1.3-1.1c-0.6-0.7-1.5-1.1-2.5-1.1c-1.9,0-3.5,1.5-3.5,3.2
	S156.8,119.1,158.6,119.1z M164.9,112.6c-1,0-1.8,0.3-2.7,0.7l0.6,1.3c0.5-0.2,1-0.4,1.5-0.4c0.9,0,1.4,0.4,1.4,1v0.1
	c-0.5-0.2-1-0.3-1.5-0.3c-1.5,0-2.6,0.9-2.6,2.1c0,1.2,1,2,2.3,2c0.6,0,1.3-0.2,1.7-0.7v0.5h2v-3.7
	C167.7,113.6,166.5,112.6,164.9,112.6z M164.5,117.7c-0.5,0-0.9-0.3-0.9-0.7s0.4-0.7,1-0.7c0.4,0,0.8,0.1,1.2,0.2v0.4
	C165.7,117.4,165.2,117.7,164.5,117.7z M172.1,118.9h6.4v-1.8h-3.3l1.3-0.9c1.4-1,1.9-1.8,1.9-2.9c0-1.6-1.3-2.7-3.1-2.7
	c-1.4,0-2.4,0.6-3.3,1.6l1.3,1.3c0.6-0.7,1.2-1,2-1c0.6,0,1.1,0.4,1.1,0.9c0,0.5-0.3,1-1.2,1.7l-3,2.3V118.9z M183.5,119.1
	c2.2,0,3.8-1.8,3.8-4.3c0-2.5-1.6-4.3-3.8-4.3c-2.2,0-3.8,1.8-3.8,4.3C179.7,117.3,181.2,119.1,183.5,119.1z M183.5,117.2
	c-1,0-1.7-1-1.7-2.4c0-1.4,0.7-2.4,1.7-2.4c1,0,1.7,1,1.7,2.4C185.2,116.2,184.5,117.2,183.5,117.2z M188.3,118.9h6.4v-1.8h-3.3
	l1.3-0.9c1.4-1,1.9-1.8,1.9-2.9c0-1.6-1.3-2.7-3.1-2.7c-1.4,0-2.4,0.6-3.3,1.6l1.3,1.3c0.6-0.7,1.2-1,2-1c0.6,0,1.1,0.4,1.1,0.9
	c0,0.5-0.3,1-1.2,1.7l-3,2.3V118.9z M195.8,118.9h6.4v-1.8H199l1.3-0.9c1.4-1,1.9-1.8,1.9-2.9c0-1.6-1.3-2.7-3.1-2.7
	c-1.4,0-2.4,0.6-3.3,1.6l1.3,1.3c0.6-0.7,1.2-1,2-1c0.6,0,1.1,0.4,1.1,0.9c0,0.5-0.3,1-1.2,1.7l-3,2.3V118.9z"/>
<path class="st0" d="M87.8,88.5c0.6-0.2,1.2-0.3,2.1-0.5c0.9-0.1,1.7-0.2,2.6-0.2c0.8,0,1.6,0.1,2.3,0.4c0.6,0.2,1.1,0.6,1.5,1.1
	c0.4,0.5,0.6,1,0.8,1.6c0.2,0.7,0.2,1.4,0.2,2.1v6.3h-3.1v-5.9c0-0.7-0.1-1.5-0.4-2.1c-0.4-0.5-0.9-0.7-1.5-0.6c-0.2,0-0.5,0-0.7,0
	c-0.2,0-0.5,0-0.7,0v8.5h-3.1V88.5L87.8,88.5z M82.1,93.6c0-0.8-0.2-1.6-0.6-2.3c-0.7-0.9-2.1-1.1-3-0.4c-0.1,0.1-0.2,0.2-0.4,0.4
	c-0.4,0.7-0.7,1.5-0.6,2.3c0,0.8,0.2,1.6,0.6,2.3c0.7,0.9,1.9,1.1,2.9,0.5c0.2-0.1,0.3-0.3,0.5-0.5C81.9,95.2,82.1,94.5,82.1,93.6z
	 M85.3,93.6c0,0.8-0.1,1.6-0.4,2.4c-0.2,0.7-0.6,1.3-1.1,1.9c-1,1.1-2.5,1.7-3.9,1.6c-0.8,0-1.5-0.1-2.2-0.4
	c-0.7-0.3-1.2-0.7-1.7-1.2c-0.5-0.5-0.9-1.2-1.1-1.9c-0.5-1.5-0.5-3.2,0-4.8c0.2-0.7,0.6-1.3,1.1-1.8c0.5-0.5,1.1-0.9,1.7-1.2
	c0.7-0.3,1.4-0.4,2.2-0.4c0.7,0,1.5,0.1,2.2,0.4c0.6,0.3,1.2,0.7,1.7,1.2c0.5,0.5,0.9,1.2,1.1,1.8C85.1,92,85.3,92.8,85.3,93.6
	 M68.2,99.5c-2.4,0-4.2-0.7-5.4-2c-1.3-1.3-1.9-3.2-1.9-5.6c0-1.1,0.2-2.2,0.6-3.2c0.7-1.8,2.1-3.2,3.9-3.8c0.9-0.4,2-0.5,3-0.5
	c0.6,0,1.1,0,1.7,0.2c0.5,0.1,1,0.2,1.3,0.3c0.3,0.1,0.7,0.2,1,0.4c0.2,0.1,0.4,0.2,0.6,0.3L72,88c-0.5-0.3-1-0.5-1.6-0.6
	c-0.7-0.2-1.3-0.2-2-0.2c-0.5,0-1,0.1-1.5,0.2c-0.5,0.2-0.9,0.4-1.3,0.8c-0.4,0.4-0.7,0.9-0.9,1.4c-0.2,0.7-0.4,1.4-0.4,2.1
	c0,0.6,0.1,1.3,0.2,1.9c0.1,0.5,0.4,1.1,0.7,1.5c0.4,0.4,0.8,0.8,1.3,1c0.6,0.3,1.3,0.4,1.9,0.4c0.4,0,0.8,0,1.3-0.1
	c0.3,0,0.7-0.1,1-0.2c0.3-0.1,0.5-0.2,0.8-0.2c0.2-0.1,0.4-0.2,0.6-0.2l0.9,2.6c-0.6,0.4-1.3,0.6-2,0.8
	C70.2,99.4,69.2,99.5,68.2,99.5 M55.8,92.6c0-0.3,0-0.5-0.2-0.8c-0.1-0.2-0.2-0.5-0.4-0.7c-0.2-0.2-0.4-0.4-0.6-0.5
	c-0.3-0.1-0.6-0.2-0.9-0.2c-0.3,0-0.6,0-0.9,0.2c-0.2,0.1-0.5,0.2-0.6,0.5c-0.2,0.2-0.3,0.5-0.4,0.7c-0.1,0.3-0.2,0.5-0.2,0.8
	L55.8,92.6L55.8,92.6L55.8,92.6z M48.5,93.8c0-0.9,0.1-1.8,0.5-2.6c0.3-0.7,0.7-1.3,1.2-1.8c0.5-0.5,1-0.9,1.7-1.1
	c0.6-0.2,1.3-0.4,2-0.4c1.4-0.1,2.7,0.4,3.7,1.4c0.9,1,1.4,2.4,1.4,4.2v0.6c0,0.2,0,0.4,0,0.6h-7.1c0,0.6,0.4,1.2,0.9,1.5
	c0.6,0.4,1.4,0.6,2.1,0.6c0.6,0,1.1,0,1.7-0.2c0.5-0.1,0.9-0.2,1.4-0.4l0.4,2.5C58,98.9,57.8,99,57.6,99c-0.3,0.1-0.6,0.2-1,0.2
	c-0.4,0-0.7,0.1-1.1,0.2c-0.4,0-0.8,0.1-1.2,0c-0.9,0-1.8-0.1-2.6-0.5c-0.7-0.3-1.3-0.7-1.8-1.2c-0.5-0.5-0.9-1.1-1.1-1.8
	C48.6,95.2,48.5,94.5,48.5,93.8 M46.4,93.7c0,0.8-0.1,1.6-0.4,2.4c-0.2,0.7-0.6,1.3-1.1,1.8c-0.5,0.5-1.1,0.9-1.8,1.2
	c-0.8,0.3-1.6,0.4-2.4,0.4c-0.4,0-0.8,0-1.2,0l-1.2-0.2c-0.4,0-0.8-0.1-1.2-0.2c-0.4-0.1-0.7-0.2-1-0.2V83.4l3.1-0.5v5.5
	c0.4-0.2,0.7-0.3,1.1-0.4c0.4-0.1,0.8-0.1,1.2-0.1c0.7,0,1.4,0.1,2.1,0.4c0.6,0.2,1.1,0.7,1.5,1.2c0.4,0.5,0.7,1.2,0.9,1.8
	C46.4,92.1,46.5,92.9,46.4,93.7 M43.3,93.6c0-2-0.8-3-2.2-3c-0.3,0-0.6,0-1,0.1c-0.3,0.1-0.5,0.2-0.8,0.3v5.7c0.2,0,0.4,0.1,0.6,0
	c0.2,0,0.5,0,0.8,0c0.7,0,1.5-0.3,1.9-0.9C43.1,95.3,43.3,94.5,43.3,93.6 M33.1,98.9c-0.6,0.2-1.2,0.3-2.1,0.5
	c-0.9,0.1-1.7,0.2-2.6,0.2c-0.8,0-1.6-0.1-2.3-0.4c-0.6-0.2-1.1-0.6-1.5-1.1c-0.4-0.5-0.6-1-0.8-1.6c-0.2-0.7-0.2-1.4-0.2-2.1v-6.2
	h3.1V94c0,0.7,0.1,1.5,0.4,2.2c0.3,0.5,0.9,0.7,1.5,0.7c0.2,0,0.5,0,0.7,0c0.2,0,0.5,0,0.7,0v-8.5h3.1L33.1,98.9L33.1,98.9z
	 M18.6,99.2c-0.3-0.5-0.7-1-1.1-1.6c-0.4-0.6-0.8-1.1-1.3-1.7c-0.5-0.6-1-1.1-1.5-1.6c-0.5-0.5-1-0.9-1.5-1.4v6.2H10V84.6h3.3v5.5
	c0.9-0.9,1.7-1.8,2.6-2.8c0.9-1,1.7-1.9,2.4-2.7h3.9c-1,1.2-2,2.3-3,3.4c-1,1.1-2.1,2.2-3.2,3.3c1.2,1,2.4,2.2,3.4,3.4
	c1.1,1.4,2.2,2.9,3.1,4.4L18.6,99.2L18.6,99.2L18.6,99.2z"/>
<path class="st1" d="M44.8,34.9L43,35.3c0-0.2,0-0.5,0-0.8c0-1.9,0.5-3.8,1.5-5.5l3.5,3.1c0,0,0.1,0.1,0.2,0.2
	c-0.2,0.5-0.4,1.1-0.4,1.7c-0.1,0-0.2,0-0.4,0.1L44.8,34.9L44.8,34.9z M51.7,24.2v5c-0.5,0.2-0.9,0.4-1.4,0.7
	c-0.2-0.1-0.3-0.2-0.5-0.4l-3.6-2.5C47.7,25.5,49.6,24.5,51.7,24.2z M27.1,35.6c1.7-7.5,3.2-13.9,4.9-21.4c0.8-3.4,1.3-4.3,4.3-6.1
	c4.2-2.5,7.4-4.2,12-6.9c2.8-1.6,3.4-1.5,3.4,2v17.5c-3.2,0.4-6.1,1.9-8.3,4.2l-1.5-1.1c-0.2-0.1-0.3-0.3-0.4-0.5
	c-0.1-0.5-0.4-0.9-0.8-1.2c-0.7-0.6-1.8-0.5-2.3,0.3c-0.6,0.7-0.5,1.7,0.2,2.3c0.2,0.2,0.5,0.3,0.8,0.4c0.2,0,0.4,0,0.6,0.1
	c0.2,0,0.3,0.1,0.5,0.2l1.4,1.3c-1.6,2.3-2.4,5-2.4,7.8c0,0.5,0,1,0.1,1.5l-3.1,0.7c-0.2,0-0.4,0-0.7,0l-0.5,0.2
	c-2,0.4-4,0.9-6.1,1.3C26.6,38.8,26.5,38.2,27.1,35.6 M55.3,29.1v-5c2,0.4,3.9,1.3,5.4,2.7l-3.9,2.8c0,0-0.1,0.1-0.2,0.1
	C56.2,29.5,55.8,29.3,55.3,29.1z M64,34.9l-4.8-1.1c0-0.5-0.2-1-0.4-1.5c0,0,0.1-0.1,0.2-0.1l3.6-3.2c1,1.7,1.6,3.6,1.6,5.5
	C64,34.6,64,34.8,64,34.9 M57.7,8.2c2.6,1.3,4.5,2.2,7.1,3.4c3.6,1.8,7.3,3.5,11,5.3c0.9,4,1.8,7.9,2.7,11.8c0.6,2.4,0.8,3.6,1.4,6
	c0.9,3.7,0.8,4-3,3.1l-9.3-2.1c0-0.4,0.1-0.8,0-1.2c0-2.8-0.8-5.5-2.4-7.8l1.3-1.2c0.2-0.1,0.4-0.2,0.6-0.2c0.5,0,1-0.2,1.4-0.5
	c0.7-0.6,0.8-1.6,0.3-2.3c-0.6-0.7-1.6-0.8-2.3-0.3c-0.2,0.2-0.5,0.4-0.6,0.7c-0.1,0.2-0.2,0.4-0.2,0.6c0,0.2-0.2,0.3-0.3,0.4
	l-1.5,1.1c-2.2-2.3-5.1-3.8-8.3-4.2V9.9C55.3,7.5,55.5,7.2,57.7,8.2 M54.5,40c-0.3,0.1-0.6,0.1-1,0.1c-0.3,0-0.6,0-0.9,0l-0.2,0.3
	l-2.2,4.1c1.1,0.4,2.2,0.6,3.3,0.6c1.1,0,2.3-0.2,3.4-0.6l-2.2-4C54.6,40.3,54.5,40.2,54.5,40z M58.4,37.4l4.8,1.1
	c-0.8,2-2.2,3.6-3.9,4.8l-1.9-4.7C57.8,38.2,58.1,37.8,58.4,37.4 M43.8,38.4l4.8-1.1c0.3,0.5,0.7,0.9,1.1,1.3l-0.2,0.3l-1.8,4.4
	C46,42.1,44.6,40.4,43.8,38.4 M83.5,47c-2.3,2.9-3.4,4.2-5.7,7.1c-2.6,3.3-4.8,6-7.4,9.3c-1.9,2.4-3.2,2.4-6.3,2.4H42.9
	c-4,0-4.3,0-6.8-3.1c-2.5-3.1-4.4-5.5-6.8-8.6c-1.9-2.4-2.4-3-4.3-5.5c-3-3.7-3.5-5.1,1.2-6.1l14.3-3.2c1.1,3,3.2,5.6,6,7.3L45.8,48
	c-0.1,0.2-0.2,0.4-0.4,0.5c-0.5,0.2-0.8,0.6-1,1.1c-0.4,0.8-0.1,1.8,0.7,2.2c0.8,0.4,1.8,0.1,2.2-0.7c0,0,0,0,0,0
	c0.1-0.3,0.2-0.6,0.2-0.9c0-0.2,0-0.4,0-0.6c0-0.2,0-0.4,0.1-0.5l0.8-1.5c1.6,0.6,3.3,0.9,5,0.9c1.7,0,3.4-0.3,5-1l0.8,1.5
	c0.1,0.2,0.1,0.4,0.1,0.6c-0.1,0.5,0,1,0.2,1.4c0.4,0.8,1.4,1.2,2.2,0.8c0.8-0.4,1.2-1.4,0.8-2.2c0,0,0,0,0,0
	c-0.1-0.3-0.3-0.6-0.6-0.8c-0.2-0.1-0.3-0.2-0.5-0.4c-0.2-0.1-0.3-0.2-0.3-0.4l-0.7-1.6c2.8-1.7,4.9-4.2,6-7.3l15.8,3.6
	C85.5,43.5,85.3,44.6,83.5,47"/>
<path class="st2" d="M51.7,24.2v5c-0.5,0.2-0.9,0.4-1.4,0.7c-0.2-0.1-0.3-0.2-0.5-0.4l-3.6-2.5C47.7,25.5,49.6,24.5,51.7,24.2
	 M27.1,35.6c1.7-7.5,3.2-13.9,4.9-21.4c0.8-3.4,1.3-4.3,4.3-6.1c4.2-2.5,7.4-4.2,12-6.9c2.8-1.6,3.4-1.5,3.4,2v17.5
	c-3.2,0.4-6.1,1.9-8.3,4.2l-1.5-1.1c-0.2-0.1-0.3-0.3-0.4-0.5c-0.1-0.5-0.4-0.9-0.8-1.2c-0.7-0.6-1.8-0.5-2.3,0.3
	c-0.6,0.7-0.5,1.7,0.2,2.3c0.2,0.2,0.5,0.3,0.8,0.4c0.2,0,0.4,0,0.6,0.1c0.2,0,0.3,0.1,0.5,0.2l1.4,1.3c-1.6,2.3-2.4,5-2.4,7.8
	c0,0.5,0,1,0.1,1.5l-3.1,0.7c-0.2,0-0.4,0-0.7,0l-0.5,0.2c-2,0.4-4,0.9-6.1,1.3C26.6,38.8,26.5,38.2,27.1,35.6 M55.3,29.1v-5
	c2,0.4,3.9,1.3,5.4,2.7l-3.9,2.8c0,0-0.1,0.1-0.2,0.1C56.2,29.5,55.8,29.3,55.3,29.1 M64,34.9l-4.8-1.1c0-0.5-0.2-1-0.4-1.5
	c0,0,0.1-0.1,0.2-0.1l3.6-3.2c1,1.7,1.6,3.6,1.6,5.5C64,34.6,64,34.8,64,34.9 M57.7,8.2c2.6,1.3,4.5,2.2,7.1,3.4
	c3.6,1.8,7.3,3.5,11,5.3c0.9,4,1.8,7.9,2.7,11.8c0.6,2.4,0.8,3.6,1.4,6c0.9,3.7,0.8,4-3,3.1l-9.3-2.1c0-0.4,0.1-0.8,0-1.2
	c0-2.8-0.8-5.5-2.4-7.8l1.3-1.2c0.2-0.1,0.4-0.2,0.6-0.2c0.5,0,1-0.2,1.4-0.5c0.7-0.6,0.8-1.6,0.3-2.3c-0.6-0.7-1.6-0.8-2.3-0.3
	c-0.2,0.2-0.5,0.4-0.6,0.7c-0.1,0.2-0.2,0.4-0.2,0.6c0,0.2-0.2,0.3-0.3,0.4l-1.5,1.1c-2.2-2.3-5.1-3.8-8.3-4.2V9.9
	C55.3,7.5,55.5,7.2,57.7,8.2 M54.5,40c-0.3,0.1-0.6,0.1-1,0.1c-0.3,0-0.6,0-0.9,0l-0.2,0.3l-2.2,4.1c1.1,0.4,2.2,0.6,3.3,0.6
	c1.1,0,2.3-0.2,3.4-0.6l-2.2-4C54.6,40.3,54.5,40.2,54.5,40 M58.4,37.4l4.8,1.1c-0.8,2-2.2,3.6-3.9,4.8l-1.9-4.7
	C57.8,38.2,58.1,37.8,58.4,37.4 M43.8,38.4l4.8-1.1c0.3,0.5,0.7,0.9,1.1,1.3l-0.2,0.3l-1.8,4.4C46,42.1,44.6,40.4,43.8,38.4
	 M83.5,47c-2.3,2.9-3.4,4.2-5.7,7.1c-2.6,3.3-4.8,6-7.4,9.3c-1.9,2.4-3.2,2.4-6.3,2.4H42.9c-4,0-4.3,0-6.8-3.1
	c-2.5-3.1-4.4-5.5-6.8-8.6c-1.9-2.4-2.4-3-4.3-5.5c-3-3.7-3.5-5.1,1.2-6.1l14.3-3.2c1.1,3,3.2,5.6,6,7.3L45.8,48
	c-0.1,0.2-0.2,0.4-0.4,0.5c-0.5,0.2-0.8,0.6-1,1.1c-0.4,0.8-0.1,1.8,0.7,2.2c0.8,0.4,1.8,0.1,2.2-0.7c0,0,0,0,0,0
	c0.1-0.3,0.2-0.6,0.2-0.9c0-0.2,0-0.4,0-0.6c0-0.2,0-0.4,0.1-0.5l0.8-1.5c1.6,0.6,3.3,0.9,5,0.9c1.7,0,3.4-0.3,5-1l0.8,1.5
	c0.1,0.2,0.1,0.4,0.1,0.6c-0.1,0.5,0,1,0.2,1.4c0.4,0.8,1.4,1.2,2.2,0.8c0.8-0.4,1.2-1.4,0.8-2.2c0,0,0,0,0,0
	c-0.1-0.3-0.3-0.6-0.6-0.8c-0.2-0.1-0.3-0.2-0.5-0.4c-0.2-0.1-0.3-0.2-0.3-0.4l-0.7-1.6c2.8-1.7,4.9-4.2,6-7.3l15.8,3.6
	C85.5,43.5,85.3,44.6,83.5,47 M44.8,34.9L43,35.3c0-0.2,0-0.5,0-0.8c0-1.9,0.5-3.8,1.5-5.5l3.5,3.1c0,0,0.1,0.1,0.2,0.2
	c-0.2,0.5-0.4,1.1-0.4,1.7c-0.1,0-0.2,0-0.4,0.1L44.8,34.9L44.8,34.9z"/>
<path class="st0" d="M200.6,46.3h-8.4V66h19.5v-8.4h-11.2V46.3L200.6,46.3z M242.5,46.4v11.2h-11.1l-0.1-0.1V66h19.6V46.3
	L242.5,46.4L242.5,46.4L242.5,46.4z M192.2,26.7h8.4l0,0V15.5h11.1l0,0.1V7.1h-19.5V26.7z M231.3,7.1v8.4h11.2v11.2h8.4V7.1H231.3
	L231.3,7.1z"/>
<path class="st3" d="M230.3,26.7l-11.2-11.2h12.2V7.1h-19.6v8.5l11.2,11.1H230.3z M220.2,46.3h-7.4l9.3,9.3l1.9,1.9h-12.3V66h19.6
	v-8.5l-5.6-5.6L220.2,46.3L220.2,46.3z M242.5,26.7V39l-1.9-1.9l-9.3-9.3v7.4l5.6,5.6l5.6,5.6h8.4V26.7L242.5,26.7L242.5,26.7z
	 M211.7,37.9l-11.1-11.1h-8.5v19.6h8.4V34.1l11.2,11.2V37.9L211.7,37.9z"/>
<path class="st0" d="M151.2,87.4l-2.1,2.5c-0.9-1.1-2.2-1.8-3.6-1.9c-2.2,0-4.1,1.8-4,4.1c0,0,0,0.1,0,0.1c-0.1,2.2,1.6,4.1,3.8,4.2
	c0.1,0,0.1,0,0.2,0c1.4-0.1,2.7-0.7,3.6-1.7l2.2,2.3c-1.6,1.6-3.7,2.6-6,2.6c-4,0.1-7.4-3-7.6-7.1c0-0.1,0-0.2,0-0.4
	c0-4.2,3.3-7.3,7.7-7.3C147.6,85,149.6,85.9,151.2,87.4z M153,99.5V84.2h3.6v15.3H153z M170.7,93.9c0,3.4-2.4,5.7-6.1,5.7
	c-3.6,0-6.1-2.3-6.1-5.7s2.4-5.7,6.1-5.7C168.4,88.3,170.7,90.5,170.7,93.9z M162.1,94c0,1.7,1,2.9,2.5,2.9c1.5,0,2.5-1.2,2.5-2.9
	c0-1.7-1-2.9-2.5-2.9C163.2,91.1,162.1,92.3,162.1,94z M183.5,99.5h-3.6v-1.8c-0.7,1.3-2.1,2.1-3.6,2c-2.4,0-4-1.7-4-4.2v-7h3.6v6
	c0,1.3,0.7,2.1,1.9,2.1c1.4,0,2.2-1.1,2.2-2.6v-5.5h3.6V99.5L183.5,99.5z M197.5,99.5H194V98c-0.8,1-2,1.6-3.3,1.6
	c-3.1,0-5.2-2.3-5.2-5.8s2-5.7,5.1-5.7c1.3-0.1,2.6,0.5,3.4,1.6v-5.7h3.6L197.5,99.5L197.5,99.5z M194,94c0-1.7-1-2.9-2.5-2.9
	c-1.5,0-2.5,1.2-2.5,2.9c0,1.7,1,2.9,2.5,2.9C193,96.9,194,95.7,194,94z"/>
<path class="st0" d="M210.6,99.5l-6.7-8.9v8.9h-3.4V85h3.2l6.7,8.9V85h3.4v14.5H210.6z M226.6,92.2v7.3h-3.5v-1.3
	c-0.8,1-2.1,1.6-3.4,1.5c-2.4,0-3.8-1.5-3.8-3.5c0-2.1,1.5-3.3,4.3-3.4h2.9v-0.2c0-1.1-0.7-1.8-2.2-1.8c-1.2,0.1-2.3,0.4-3.3,0.9
	l-1-2.4c1.6-0.8,3.4-1.2,5.2-1.3C224.8,88.2,226.6,89.7,226.6,92.2z M223.1,95.8v-1h-2.3c-1.1,0-1.6,0.4-1.6,1.2
	c0,0.8,0.6,1.3,1.6,1.3C221.8,97.3,222.7,96.7,223.1,95.8L223.1,95.8z M236.2,99c-0.9,0.5-1.9,0.7-3,0.8c-2.2,0-3.7-1.2-3.7-3.5
	v-4.9H228v-2.3h1.6v-3.1h3.5v3.1h2.9v2.4h-2.9v4.4c0,0.9,0.4,1.3,1,1.2c0.5,0,0.9-0.2,1.4-0.4L236.2,99L236.2,99z M241.7,85.2
	c0,1-0.7,1.9-1.8,1.9c0,0-0.1,0-0.1,0c-1,0-1.9-0.9-1.9-1.9c0-1,0.8-1.9,1.9-1.9c1,0,1.8,0.7,1.9,1.7
	C241.7,85.1,241.7,85.1,241.7,85.2z M238,99.5V88.4h3.5v11.1H238z M247.1,99.5l-4.2-11.1h3.7l2.4,7.9l2.4-7.9h3.5l-4.2,11.1H247.1z
	 M266.7,94.9h-7.8c0.2,1.2,1.4,2.1,2.6,2.1c1,0,2-0.4,2.7-1.1l1.9,1.8c-1.3,1.3-3,2.1-4.8,2c-3.6,0-5.9-2.3-5.9-5.7s2.4-5.7,5.8-5.7
	C265,88.3,266.9,90.9,266.7,94.9z M263.3,93c0.1-1.2-0.8-2.2-1.9-2.3c-0.1,0-0.2,0-0.3,0c-1.3,0-2.1,0.9-2.3,2.3H263.3L263.3,93z"/>
<path class="st0" d="M281.2,87.4l-2.1,2.5c-0.9-1.1-2.2-1.8-3.6-1.9c-2.2,0-4.1,1.8-4,4.1c0,0,0,0.1,0,0.1c-0.1,2.2,1.6,4.1,3.8,4.2
	c0.1,0,0.1,0,0.2,0c1.4-0.1,2.7-0.7,3.6-1.7l2.2,2.3c-1.6,1.6-3.7,2.6-6,2.6c-4,0.1-7.4-3-7.6-7.1c0-0.1,0-0.2,0-0.4
	c0-4.2,3.3-7.3,7.7-7.3C277.6,85,279.7,85.9,281.2,87.4z M293.7,93.9c0,3.4-2.4,5.7-6.1,5.7c-3.6,0-6.1-2.3-6.1-5.7
	c0-3.4,2.4-5.7,6.1-5.7C291.3,88.3,293.7,90.5,293.7,93.9z M285.2,94c0,1.7,1,2.9,2.5,2.9c1.5,0,2.5-1.2,2.5-2.9
	c0-1.7-1-2.9-2.5-2.9C286.2,91.1,285.2,92.3,285.2,94z M307,92.5v7h-3.5v-6c0.1-1-0.6-2-1.7-2.1c-0.1,0-0.2,0-0.3,0
	c-1.3,0-2.1,0.9-2.3,2.3v5.9h-3.6V88.4h3.6v1.8c0.8-1.3,2.2-2.1,3.7-2C305.4,88.2,307,89.9,307,92.5z"/>
<path class="st4" d="M118.9,0.9L118.9,0.9v98l0,0V0.9z"/>
<path class="st4" d="M215.9,113.9h92.7v0.7h-92.7V113.9z"/>
<path class="st4" d="M308.6,113.9h-92.7v0.7h92.7V113.9z"/>
<path class="st4" d="M0.2,113.9h69.3v0.5H0.2V113.9z"/>
<path class="st4" d="M69.5,113.9H0.2v0.5h69.4V113.9z"/>
<path class="st2" d="M251.1,7.1h-58.8V66h58.8V7.1z"/>
</svg>
