<svg width="121" height="36" viewBox="0 0 121 36" fill="none" xmlns="http://www.w3.org/2000/svg">
<path d="M81.066 35.2169H77.8965C77.2525 35.2169 76.7589 34.8716 76.7106 34.2308L76.6602 32.9951C74.381 34.8244 71.6577 35.8102 68.7855 35.8102C63.2404 35.8102 60.9639 32.3073 60.9639 26.9724V12.3692C60.9639 11.5293 61.4587 11.2328 62.2484 11.2328H65.7162C66.5093 11.2328 66.9554 11.4785 66.9554 12.3692V25.9348C66.9554 28.6515 67.6483 30.5265 70.6204 30.5265C72.499 30.5265 74.8776 29.491 76.3632 28.1578V12.3692C76.3632 11.5293 76.8097 11.2328 77.5994 11.2328H81.1152C81.9086 11.2328 82.355 11.4785 82.355 12.3692V33.8355C82.3544 34.8717 82.0553 35.2169 81.066 35.2169ZM0.484375 12.2178C0.484375 11.6269 0.782033 11.2316 1.37525 11.2316H5.56407C6.15788 11.2316 6.50445 11.5775 6.50445 12.2178V33.9828C6.50445 34.8717 6.10657 35.2169 5.26671 35.2169H1.77223C0.883753 35.2169 0.484375 34.8717 0.484375 33.9828V12.2178ZM88.5497 12.2178C88.5497 11.6269 88.8489 11.2316 89.4415 11.2316H93.63C94.2251 11.2316 94.5716 11.5775 94.5716 12.2178V33.9828C94.5716 34.8717 94.1749 35.2169 93.3321 35.2169H89.8376C88.9488 35.2169 88.5497 34.8717 88.5497 33.9828V12.2178ZM33.0467 35.2169H29.482C28.5912 35.2169 28.2944 34.7732 28.2944 33.9328V20.503C28.2944 17.789 27.553 15.8628 24.5308 15.8628C22.599 15.8628 20.2234 16.9016 18.6886 18.2327V33.9825C18.6886 34.8241 18.3418 35.2166 17.5016 35.2166H13.8856C13.1426 35.2166 12.6965 34.8241 12.6965 34.0321V12.4718C12.6965 11.6813 13.0454 11.2376 13.9354 11.2376H17.1523C17.8452 11.2376 18.2934 11.4342 18.3415 12.1747L18.3904 13.4926C20.6699 11.6673 23.5418 10.6312 26.4139 10.6312C31.9596 10.6312 34.2368 14.0865 34.2368 19.4681V33.9328C34.2365 34.7732 33.9403 35.2169 33.0467 35.2169ZM50.6941 4.49476C50.6941 2.49466 49.0692 0.873047 47.0631 0.873047C45.0581 0.873047 43.4309 2.49466 43.4309 4.49476C43.4309 6.49485 45.0584 8.11467 47.0631 8.11467C49.0692 8.11467 50.6941 6.49485 50.6941 4.49476ZM55.862 11.2316C56.4558 11.2316 56.8027 11.4282 56.8027 12.0709V15.5478C56.8027 16.1399 56.4072 16.4857 55.8119 16.4857H50.0732V33.9825C50.0732 34.8713 49.6775 35.2166 48.7854 35.2166H45.3398C44.4483 35.2166 44.0532 34.8713 44.0532 33.9825V16.4857H38.3131C37.7192 16.4857 37.3232 16.1399 37.3232 15.5478V12.0709C37.3232 11.4282 37.6694 11.2316 38.2641 11.2316H55.862ZM112.14 4.49476C112.14 2.49466 110.514 0.873047 108.508 0.873047C106.503 0.873047 104.877 2.49466 104.877 4.49476C104.877 6.49485 106.503 8.11467 108.508 8.11467C110.514 8.11467 112.14 6.49485 112.14 4.49476ZM117.308 11.2316C117.901 11.2316 118.247 11.4282 118.247 12.0709V15.5478C118.247 16.1399 117.852 16.4857 117.256 16.4857H111.518V33.9825C111.518 34.8713 111.123 35.2166 110.231 35.2166H106.785C105.893 35.2166 105.498 34.8713 105.498 33.9825L105.497 16.4857H99.7596C99.1643 16.4857 98.7679 16.1399 98.7679 15.5478V12.0709C98.7679 11.4282 99.1157 11.2316 99.708 11.2316H117.308ZM118.877 32.1738C119.752 32.1738 120.484 32.8617 120.484 33.764C120.484 34.6823 119.752 35.3719 118.877 35.3719C117.998 35.3719 117.261 34.6823 117.261 33.764C117.261 32.8617 117.998 32.1738 118.877 32.1738ZM118.877 35.1373C119.62 35.1373 120.194 34.5476 120.194 33.764C120.194 32.9993 119.62 32.4084 118.877 32.4084C118.126 32.4084 117.551 32.9996 117.551 33.764C117.551 34.5479 118.126 35.1373 118.877 35.1373ZM118.251 32.8363H118.975C119.421 32.8363 119.632 33.0116 119.632 33.3715C119.632 33.7075 119.419 33.8508 119.138 33.8798L119.675 34.7056H119.361L118.851 33.9005H118.542V34.7056H118.251V32.8363H118.251ZM118.542 33.6656H118.847C119.105 33.6656 119.34 33.6536 119.34 33.3586C119.34 33.11 119.127 33.0723 118.929 33.0723H118.542V33.6656H118.542Z" fill="#365EBF"/>
</svg>
