<svg xmlns="http://www.w3.org/2000/svg" role="img" viewBox="-0.48 1.52 24.86 20.96" fill="#427af4"><path d="M11.207 16.434l3.769-1.866-3.863-3.295 1.195-.591 6.253 2.111 2.987-1.479c.788-.395 2.089-.289 2.384.307.047.095.068.203.068.319-.003.609-.613 1.434-1.269 1.764l-2.987 1.479-2.111 6.253-1.195.591-.279-5.069-3.769 1.866-.778 1.873-.835.414-.293-2.831-2.074-1.949.836-.414zM9.02 20.628C4.2 22.169.391 18.252 0 16c1.573 1.733 4.624 3.261 7.973 2.256l.886.839zM.134 13.643C.046 13.108 0 12.559 0 12 0 6.477 4.477 2 10 2c4.927 0 9.023 3.565 9.848 8.256l-1.606.802c-1.25-.475-4.441-1.667-4.441-1.667-.645-.227-1.339-.455-1.687-.338.086-.379-.164-.72-.541-.994-.093-.068-.844-.588-.641-.246l.658.654c-.033.022-.173-.238-.173-.048.044-.112.016.483-.087.288-.045-.074.075-.115.005-.222 0-.071-.189-.14-.227-.188-.104-.13-.381-.415-.531-.483-.041-.019-.636.073-.686.092l-.149.259c-.125.046-.24.105-.35.178l-.13.294c-.058.05-.638.242-.641.25.025-.063-.406-.143-.378-.268.032-.137.178-.567.14-.723-.04-.165.895.236.956-.197.024-.187.038-.406-.262-.437.057.006.58-.205.666-.3.122-.14.401-.37.604-.37.236 0 .185-.344.294-.512.109.044-.059.313.072.422-.008-.085.371.047.408.028.087-.047.571-.019.496-.247-.084-.231.042-.162.15-.211-.019.008.283-.515.335-.344-.035-.176-.35.062-.46.054-.254-.021-.147-.434-.05-.555.074-.096-.203-.213-.206-.03-.005.274-.26.522-.202.887.091.549-.612-.132-.673-.095-.234.141-.424-.178-.304-.371.124-.196.42-.186.544-.396.086-.148.186-.32.321-.433.445-.374.568-.075 1.012-.034.435.04.147.103.088.27-.058.159.238.215.34.082.059-.076.192-.269.249-.411.074-.185.751-.164.278-.447-.312-.186-1.67-.56-2.58-.56-.197 0-.334.218-.484.343-.297.246-1.056.729-1.479.582-.433-.149-1.359.55-1.507.555-.055.003.002-.529.298-.567-.129.018 1.039-.59 1.007-.717-.038-.15-2.332.685-2.23.853.048.076.249.076-.013.245-.15.09-.311.667-.452.667-.421.184-.447-.362-.915.341l-.746.301C2.832 7.467 2.067 8.956 1.789 10.61c-.011.067.278.188.316.234.093.112.093.593.139.751.115.398.399.62.617.982.128.216.341.762.274.988.091-.148.892.68 1.038.852.345.406.612.898.051 1.299-.146.106.125.658.108.97C1.78 16.193.134 13.643.134 13.643zm10.308.832c-.01-.166-.114-.363-.331-.3-.47.137-.327-.368-.669-.344-.247.017-.45.174-.679.243-.288.086-.583-.068-.868-.104-1.173-.148-1.555-1.488-1.249-2.456.031-.158-.095-.452-.04-.574.131-.293.401-.623.635-.845.131-.125.301-.093.456-.19.239-.151.242-.461.476-.651.334-.272.789-.266 1.224-.323.231-.031 1.113-.222 1.252-.05 0 .031.151.48-.003.478l-.013-.001.013.001c.089.008.186.05.288.106l-.575.285-.177.101c-.142.093-.27.207-.378.337-.305.369-.442.859-.373 1.333.025.168.075.332.148.485s.169.295.284.42l.147.141 1.901 1.621-.887.44zm.51-5.666c-.029-.055.285-.084.341-.084.062.007-.162.376-.341.084zM9.16 6.249l.09-.026-.043.114c.072.129.019.206.007.276l-.124.077c-.044.056.215.063.217.071.01.028-.312.074-.252.142.079.114.687-.162.59-.146.187-.095.024-.105-.081-.159-.036-.179-.066-.456-.177-.566l.073-.085c-.173-.249-.3.302-.3.302zm-.43.454c-.071.029-.141-.016-.072-.086l.073-.089-.007-.04.058-.072.06-.015.124-.087c.036.008.121.078.092.123l-.066.082c-.015.139-.155.138-.26.183l-.002.001.002-.001z"/></svg>