<svg width="21" height="24" viewBox="0 0 21 24" fill="none" xmlns="http://www.w3.org/2000/svg">
<path d="M6 0.75V3H15V0.75C15 0.375 15.3281 0 15.75 0C16.125 0 16.5 0.375 16.5 0.75V3H18C19.6406 3 21 4.35938 21 6V7.5V9V21C21 22.6875 19.6406 24 18 24H3C1.3125 24 0 22.6875 0 21V9V7.5V6C0 4.35938 1.3125 3 3 3H4.5V0.75C4.5 0.375 4.82812 0 5.25 0C5.625 0 6 0.375 6 0.75ZM1.5 9V21C1.5 21.8438 2.15625 22.5 3 22.5H18C18.7969 22.5 19.5 21.8438 19.5 21V9H1.5ZM3 4.5C2.15625 4.5 1.5 5.20312 1.5 6V7.5H19.5V6C19.5 5.20312 18.7969 4.5 18 4.5H3ZM4.875 12C4.64062 12 4.5 12.1875 4.5 12.375V16.125C4.5 16.3594 4.64062 16.5 4.875 16.5H8.625C8.8125 16.5 9 16.3594 9 16.125V12.375C9 12.1875 8.8125 12 8.625 12H4.875ZM3 12.375C3 11.3438 3.79688 10.5 4.875 10.5H8.625C9.65625 10.5 10.5 11.3438 10.5 12.375V16.125C10.5 17.2031 9.65625 18 8.625 18H4.875C3.79688 18 3 17.2031 3 16.125V12.375Z" fill="black"/>
</svg>
