<svg width="77" height="77" viewBox="0 0 77 77" fill="none" xmlns="http://www.w3.org/2000/svg">
<g filter="url(#filter0_d_6036_1084)">
<path d="M10.5 34.5C10.5 19.036 23.036 6.5 38.5 6.5C53.964 6.5 66.5 19.036 66.5 34.5C66.5 49.964 53.964 62.5 38.5 62.5C23.036 62.5 10.5 49.964 10.5 34.5Z" fill="white" shape-rendering="crispEdges"/>
<path d="M10.5 34.5C10.5 19.036 23.036 6.5 38.5 6.5C53.964 6.5 66.5 19.036 66.5 34.5C66.5 49.964 53.964 62.5 38.5 62.5C23.036 62.5 10.5 49.964 10.5 34.5Z" stroke="#EAEAEA" shape-rendering="crispEdges"/>
<path d="M34 23.25V25.5H43V23.25C43 22.875 43.3281 22.5 43.75 22.5C44.125 22.5 44.5 22.875 44.5 23.25V25.5H46C47.6406 25.5 49 26.8594 49 28.5V30V31.5V43.5C49 45.1875 47.6406 46.5 46 46.5H31C29.3125 46.5 28 45.1875 28 43.5V31.5V30V28.5C28 26.8594 29.3125 25.5 31 25.5H32.5V23.25C32.5 22.875 32.8281 22.5 33.25 22.5C33.625 22.5 34 22.875 34 23.25ZM29.5 31.5V43.5C29.5 44.3438 30.1562 45 31 45H46C46.7969 45 47.5 44.3438 47.5 43.5V31.5H29.5ZM31 27C30.1562 27 29.5 27.7031 29.5 28.5V30H47.5V28.5C47.5 27.7031 46.7969 27 46 27H31ZM32.875 34.5C32.6406 34.5 32.5 34.6875 32.5 34.875V38.625C32.5 38.8594 32.6406 39 32.875 39H36.625C36.8125 39 37 38.8594 37 38.625V34.875C37 34.6875 36.8125 34.5 36.625 34.5H32.875ZM31 34.875C31 33.8438 31.7969 33 32.875 33H36.625C37.6562 33 38.5 33.8438 38.5 34.875V38.625C38.5 39.7031 37.6562 40.5 36.625 40.5H32.875C31.7969 40.5 31 39.7031 31 38.625V34.875Z" fill="#D52B93"/>
</g>
<defs>
<filter id="filter0_d_6036_1084" x="0" y="0" width="77" height="77" filterUnits="userSpaceOnUse" color-interpolation-filters="sRGB">
<feFlood flood-opacity="0" result="BackgroundImageFix"/>
<feColorMatrix in="SourceAlpha" type="matrix" values="0 0 0 0 0 0 0 0 0 0 0 0 0 0 0 0 0 0 127 0" result="hardAlpha"/>
<feOffset dy="4"/>
<feGaussianBlur stdDeviation="5"/>
<feComposite in2="hardAlpha" operator="out"/>
<feColorMatrix type="matrix" values="0 0 0 0 0 0 0 0 0 0 0 0 0 0 0 0 0 0 0.1 0"/>
<feBlend mode="normal" in2="BackgroundImageFix" result="effect1_dropShadow_6036_1084"/>
<feBlend mode="normal" in="SourceGraphic" in2="effect1_dropShadow_6036_1084" result="shape"/>
</filter>
</defs>
</svg>
