<svg width="21" height="24" viewBox="0 0 21 24" fill="none" xmlns="http://www.w3.org/2000/svg">
<path d="M3.75 6C4.54688 6 5.25 5.57812 5.67188 4.875C6.09375 4.21875 6.09375 3.32812 5.67188 2.625C5.25 1.96875 4.54688 1.5 3.75 1.5C2.90625 1.5 2.20312 1.96875 1.78125 2.625C1.35938 3.32812 1.35938 4.21875 1.78125 4.875C2.20312 5.57812 2.90625 6 3.75 6ZM7.5 3.75C7.5 5.57812 6.1875 7.07812 4.5 7.45312V9C4.5 10.2656 5.48438 11.25 6.75 11.25H14.25C15.4688 11.25 16.5 10.2656 16.5 9V7.45312C14.7656 7.07812 13.5 5.57812 13.5 3.75C13.5 1.6875 15.1406 0 17.25 0C19.3125 0 21 1.6875 21 3.75C21 5.57812 19.6875 7.07812 18 7.45312V9C18 11.1094 16.3125 12.75 14.25 12.75H11.25V16.5938C12.9375 16.9219 14.25 18.4688 14.25 20.25C14.25 22.3594 12.5625 24 10.5 24C8.39062 24 6.75 22.3594 6.75 20.25C6.75 18.4688 8.01562 16.9219 9.75 16.5938V12.75H6.75C4.64062 12.75 3 11.1094 3 9V7.45312C1.26562 7.07812 0 5.57812 0 3.75C0 1.6875 1.64062 0 3.75 0C5.8125 0 7.5 1.6875 7.5 3.75ZM10.5 18C9.65625 18 8.95312 18.4688 8.53125 19.125C8.10938 19.8281 8.10938 20.7188 8.53125 21.375C8.95312 22.0781 9.65625 22.5 10.5 22.5C11.2969 22.5 12 22.0781 12.4219 21.375C12.8438 20.7188 12.8438 19.8281 12.4219 19.125C12 18.4688 11.2969 18 10.5 18ZM19.5 3.75C19.5 2.95312 19.0312 2.25 18.375 1.82812C17.6719 1.40625 16.7812 1.40625 16.125 1.82812C15.4219 2.25 15 2.95312 15 3.75C15 4.59375 15.4219 5.29688 16.125 5.71875C16.7812 6.14062 17.6719 6.14062 18.375 5.71875C19.0312 5.29688 19.5 4.59375 19.5 3.75Z" fill="black"/>
</svg>
