<svg width="24" height="21" viewBox="0 0 24 21" fill="none" xmlns="http://www.w3.org/2000/svg">
<path d="M2.20312 12.375C0.796875 11.0625 0 9.1875 0 7.21875V6.98438C0 3.70312 2.34375 0.890625 5.57812 0.375C7.73438 0 9.89062 0.703125 11.4375 2.20312L12 2.76562L12.5625 2.20312C14.0625 0.703125 16.2656 0 18.375 0.375C21.6094 0.890625 24 3.70312 24 6.98438V7.21875C24 9.1875 23.1562 11.0625 21.75 12.375L13.2656 20.2969C12.9375 20.625 12.4688 20.7656 12 20.7656C11.4844 20.7656 11.0156 20.625 10.6875 20.2969L2.20312 12.375Z" fill="black"/>
</svg>
