<svg width="77" height="77" viewBox="0 0 77 77" fill="none" xmlns="http://www.w3.org/2000/svg">
<g filter="url(#filter0_d_6036_1062)">
<path d="M10.5 34.5C10.5 19.036 23.036 6.5 38.5 6.5C53.964 6.5 66.5 19.036 66.5 34.5C66.5 49.964 53.964 62.5 38.5 62.5C23.036 62.5 10.5 49.964 10.5 34.5Z" fill="white" shape-rendering="crispEdges"/>
<path d="M10.5 34.5C10.5 19.036 23.036 6.5 38.5 6.5C53.964 6.5 66.5 19.036 66.5 34.5C66.5 49.964 53.964 62.5 38.5 62.5C23.036 62.5 10.5 49.964 10.5 34.5Z" stroke="#EAEAEA" shape-rendering="crispEdges"/>
<path d="M47.5 24H40C39.1562 24 38.5 24.7031 38.5 25.5V43.5C38.5 44.3438 39.1562 45 40 45H47.5C48.2969 45 49 44.3438 49 43.5V25.5C49 24.7031 48.2969 24 47.5 24ZM40 22.5H47.5C49.1406 22.5 50.5 23.8594 50.5 25.5V43.5C50.5 45.1875 49.1406 46.5 47.5 46.5H40C38.3125 46.5 37 45.1875 37 43.5V25.5C37 23.8594 38.3125 22.5 40 22.5ZM35.5 28.5V30H29.5C28.6562 30 28 30.7031 28 31.5V43.5C28 44.3438 28.6562 45 29.5 45H35.7344C35.9219 45.5625 36.25 46.0781 36.625 46.5H29.5C27.8125 46.5 26.5 45.1875 26.5 43.5V31.5C26.5 29.8594 27.8125 28.5 29.5 28.5H35.5ZM30.625 37.5H32.875C33.4844 37.5 34 38.0156 34 38.625V40.875C34 41.5312 33.4844 42 32.875 42H30.625C29.9688 42 29.5 41.5312 29.5 40.875V38.625C29.5 38.0156 29.9688 37.5 30.625 37.5ZM31 40.5H32.5V39H31V40.5ZM41.5 40.875V38.625C41.5 38.0156 41.9688 37.5 42.625 37.5H44.875C45.4844 37.5 46 38.0156 46 38.625V40.875C46 41.5312 45.4844 42 44.875 42H42.625C41.9688 42 41.5 41.5312 41.5 40.875ZM43 40.5H44.5V39H43V40.5ZM30.625 31.5H32.875C33.4844 31.5 34 32.0156 34 32.625V34.875C34 35.5312 33.4844 36 32.875 36H30.625C29.9688 36 29.5 35.5312 29.5 34.875V32.625C29.5 32.0156 29.9688 31.5 30.625 31.5ZM31 34.5H32.5V33H31V34.5ZM41.5 26.625C41.5 26.0156 41.9688 25.5 42.625 25.5H44.875C45.4844 25.5 46 26.0156 46 26.625V28.875C46 29.5312 45.4844 30 44.875 30H42.625C41.9688 30 41.5 29.5312 41.5 28.875V26.625ZM43 27V28.5H44.5V27H43ZM42.625 36C41.9688 36 41.5 35.5312 41.5 34.875V32.625C41.5 32.0156 41.9688 31.5 42.625 31.5H44.875C45.4844 31.5 46 32.0156 46 32.625V34.875C46 35.5312 45.4844 36 44.875 36H42.625ZM43 33V34.5H44.5V33H43Z" fill="#D52B93"/>
</g>
<defs>
<filter id="filter0_d_6036_1062" x="0" y="0" width="77" height="77" filterUnits="userSpaceOnUse" color-interpolation-filters="sRGB">
<feFlood flood-opacity="0" result="BackgroundImageFix"/>
<feColorMatrix in="SourceAlpha" type="matrix" values="0 0 0 0 0 0 0 0 0 0 0 0 0 0 0 0 0 0 127 0" result="hardAlpha"/>
<feOffset dy="4"/>
<feGaussianBlur stdDeviation="5"/>
<feComposite in2="hardAlpha" operator="out"/>
<feColorMatrix type="matrix" values="0 0 0 0 0 0 0 0 0 0 0 0 0 0 0 0 0 0 0.1 0"/>
<feBlend mode="normal" in2="BackgroundImageFix" result="effect1_dropShadow_6036_1062"/>
<feBlend mode="normal" in="SourceGraphic" in2="effect1_dropShadow_6036_1062" result="shape"/>
</filter>
</defs>
</svg>
