<svg width="77" height="77" viewBox="0 0 77 77" fill="none" xmlns="http://www.w3.org/2000/svg">
<g filter="url(#filter0_d_6036_1055)">
<path d="M10.5 34.5C10.5 19.036 23.036 6.5 38.5 6.5C53.964 6.5 66.5 19.036 66.5 34.5C66.5 49.964 53.964 62.5 38.5 62.5C23.036 62.5 10.5 49.964 10.5 34.5Z" fill="white" shape-rendering="crispEdges"/>
<path d="M10.5 34.5C10.5 19.036 23.036 6.5 38.5 6.5C53.964 6.5 66.5 19.036 66.5 34.5C66.5 49.964 53.964 62.5 38.5 62.5C23.036 62.5 10.5 49.964 10.5 34.5Z" stroke="#EAEAEA" shape-rendering="crispEdges"/>
<path d="M49 34.5C49 30.75 46.9844 27.3281 43.75 25.4531C40.4688 23.5312 36.4844 23.5312 33.25 25.4531C29.9688 27.3281 28 30.75 28 34.5C28 38.2969 29.9688 41.7188 33.25 43.5938C36.4844 45.5156 40.4688 45.5156 43.75 43.5938C46.9844 41.7188 49 38.2969 49 34.5ZM26.5 34.5C26.5 30.2344 28.75 26.2969 32.5 24.1406C36.2031 21.9844 40.75 21.9844 44.5 24.1406C48.2031 26.2969 50.5 30.2344 50.5 34.5C50.5 38.8125 48.2031 42.75 44.5 44.9062C40.75 47.0625 36.2031 47.0625 32.5 44.9062C28.75 42.75 26.5 38.8125 26.5 34.5ZM39.25 28.125V29.2031C39.8594 29.25 40.4688 29.4375 41.0781 29.625C41.1719 29.625 41.2188 29.6719 41.3125 29.6719C41.6875 29.7656 41.9219 30.1875 41.8281 30.6094C41.7344 30.9844 41.3125 31.2188 40.8906 31.125C40.7969 31.0781 40.6562 31.0781 40.5625 31.0312C40.2344 30.9375 39.8594 30.7969 39.4844 30.75C38.5938 30.6562 37.7969 30.75 37.1875 30.9844C36.5781 31.2656 36.2969 31.6406 36.25 31.9219C36.1562 32.3906 36.3438 32.6719 36.7188 32.9531C37.2344 33.2344 37.9844 33.4688 38.875 33.7031V33.75C39.7188 33.9844 40.7031 34.2656 41.4531 34.7344C42.3438 35.3438 42.7188 36.3281 42.5312 37.4062C42.3438 38.3906 41.6406 39.0938 40.75 39.4219C40.3281 39.6094 39.7656 39.75 39.2031 39.75V40.875C39.2031 41.2969 38.875 41.625 38.4531 41.625C38.0781 41.625 37.7031 41.2969 37.7031 40.875V39.7031C37.3281 39.6094 36.7188 39.4219 36.2031 39.2812C35.875 39.1875 35.5469 39.0938 35.2188 39C34.8438 38.8594 34.6094 38.4375 34.75 38.0156C34.8906 37.6406 35.3125 37.4531 35.6875 37.5469C36.0156 37.6406 36.2969 37.7812 36.625 37.875C37.1406 38.0156 37.7031 38.1562 37.9375 38.2031C38.875 38.3438 39.6719 38.25 40.1875 38.0625C40.7031 37.8281 40.9844 37.5 41.0781 37.125C41.125 36.6094 40.9844 36.2344 40.5625 35.9531C40 35.5781 39.3438 35.3906 38.6406 35.2031C38.5469 35.2031 38.4531 35.1562 38.3594 35.1094C37.5156 34.9219 36.625 34.6406 35.9219 34.1719C35.5469 33.9375 35.1719 33.6094 34.9375 33.1875C34.7031 32.7188 34.6562 32.2031 34.75 31.6406C34.9375 30.6562 35.6875 30 36.5781 29.625C36.9062 29.4844 37.3281 29.3438 37.7031 29.2969V28.125C37.7031 27.75 38.0312 27.375 38.4531 27.375C38.875 27.375 39.2031 27.75 39.2031 28.125H39.25Z" fill="#D52B93"/>
</g>
<defs>
<filter id="filter0_d_6036_1055" x="0" y="0" width="77" height="77" filterUnits="userSpaceOnUse" color-interpolation-filters="sRGB">
<feFlood flood-opacity="0" result="BackgroundImageFix"/>
<feColorMatrix in="SourceAlpha" type="matrix" values="0 0 0 0 0 0 0 0 0 0 0 0 0 0 0 0 0 0 127 0" result="hardAlpha"/>
<feOffset dy="4"/>
<feGaussianBlur stdDeviation="5"/>
<feComposite in2="hardAlpha" operator="out"/>
<feColorMatrix type="matrix" values="0 0 0 0 0 0 0 0 0 0 0 0 0 0 0 0 0 0 0.1 0"/>
<feBlend mode="normal" in2="BackgroundImageFix" result="effect1_dropShadow_6036_1055"/>
<feBlend mode="normal" in="SourceGraphic" in2="effect1_dropShadow_6036_1055" result="shape"/>
</filter>
</defs>
</svg>
