<svg width="24" height="26" viewBox="0 0 24 26" fill="none" xmlns="http://www.w3.org/2000/svg">
<path d="M22.5 12.5156C22.5 8.76562 20.4844 5.34375 17.25 3.46875C13.9688 1.54688 9.98438 1.54688 6.75 3.46875C3.46875 5.34375 1.5 8.76562 1.5 12.5156C1.5 16.3125 3.46875 19.7344 6.75 21.6094C9.98438 23.5312 13.9688 23.5312 17.25 21.6094C20.4844 19.7344 22.5 16.3125 22.5 12.5156ZM0 12.5156C0 8.25 2.25 4.3125 6 2.15625C9.70312 0 14.25 0 18 2.15625C21.7031 4.3125 24 8.25 24 12.5156C24 16.8281 21.7031 20.7656 18 22.9219C14.25 25.0781 9.70312 25.0781 6 22.9219C2.25 20.7656 0 16.8281 0 12.5156ZM12.75 6.14062V7.21875C13.3594 7.26562 13.9688 7.45312 14.5781 7.64062C14.6719 7.64062 14.7188 7.6875 14.8125 7.6875C15.1875 7.78125 15.4219 8.20312 15.3281 8.625C15.2344 9 14.8125 9.23438 14.3906 9.14062C14.2969 9.09375 14.1562 9.09375 14.0625 9.04688C13.7344 8.95312 13.3594 8.8125 12.9844 8.76562C12.0938 8.67188 11.2969 8.76562 10.6875 9C10.0781 9.28125 9.79688 9.65625 9.75 9.9375C9.65625 10.4062 9.84375 10.6875 10.2188 10.9688C10.7344 11.25 11.4844 11.4844 12.375 11.7188V11.7656C13.2188 12 14.2031 12.2812 14.9531 12.75C15.8438 13.3594 16.2188 14.3438 16.0312 15.4219C15.8438 16.4062 15.1406 17.1094 14.25 17.4375C13.8281 17.625 13.2656 17.7656 12.7031 17.7656V18.8906C12.7031 19.3125 12.375 19.6406 11.9531 19.6406C11.5781 19.6406 11.2031 19.3125 11.2031 18.8906V17.7188C10.8281 17.625 10.2188 17.4375 9.70312 17.2969C9.375 17.2031 9.04688 17.1094 8.71875 17.0156C8.34375 16.875 8.10938 16.4531 8.25 16.0312C8.39062 15.6562 8.8125 15.4688 9.1875 15.5625C9.51562 15.6562 9.79688 15.7969 10.125 15.8906C10.6406 16.0312 11.2031 16.1719 11.4375 16.2188C12.375 16.3594 13.1719 16.2656 13.6875 16.0781C14.2031 15.8438 14.4844 15.5156 14.5781 15.1406C14.625 14.625 14.4844 14.25 14.0625 13.9688C13.5 13.5938 12.8438 13.4062 12.1406 13.2188C12.0469 13.2188 11.9531 13.1719 11.8594 13.125C11.0156 12.9375 10.125 12.6562 9.42188 12.1875C9.04688 11.9531 8.67188 11.625 8.4375 11.2031C8.20312 10.7344 8.15625 10.2188 8.25 9.65625C8.4375 8.67188 9.1875 8.01562 10.0781 7.64062C10.4062 7.5 10.8281 7.35938 11.2031 7.3125V6.14062C11.2031 5.76562 11.5312 5.39062 11.9531 5.39062C12.375 5.39062 12.7031 5.76562 12.7031 6.14062H12.75Z" fill="black"/>
</svg>
