<svg width="25" height="25" viewBox="0 0 25 25" fill="none" xmlns="http://www.w3.org/2000/svg">
<path d="M9.5625 7.92188C9.32812 8.39062 8.90625 8.67188 8.4375 8.76562L2.01562 9.70312L6.65625 14.3438C7.03125 14.6719 7.17188 15.1875 7.07812 15.6562L6 22.2188L11.7188 19.125C12.1875 18.8906 12.7031 18.8906 13.1719 19.125L18.8906 22.2188L17.8125 15.6562C17.7188 15.1875 17.8594 14.6719 18.2344 14.3438L22.875 9.70312L16.4531 8.76562C15.9375 8.67188 15.5156 8.39062 15.3281 7.92188L12.4219 2.01562L9.5625 7.92188ZM18.8438 23.9062H18.8906L12.4688 20.4375L6.04688 23.9062C5.67188 24.0938 5.20312 24.0469 4.82812 23.8125C4.5 23.5312 4.3125 23.1094 4.40625 22.6875L5.625 15.4219L0.421875 10.2656C0.09375 9.9375 0 9.51562 0.140625 9.09375C0.28125 8.71875 0.609375 8.39062 1.03125 8.34375L8.20312 7.26562L11.4375 0.65625C11.625 0.28125 12 0 12.4219 0C12.8906 0 13.2656 0.28125 13.4531 0.65625L16.6875 7.26562L23.8594 8.34375C24.2812 8.39062 24.6094 8.71875 24.75 9.09375C24.8906 9.51562 24.7969 9.9375 24.4688 10.2656L19.2656 15.4219L20.4844 22.6875C20.5781 23.1094 20.3906 23.5312 20.0625 23.8125C19.6875 24.0469 19.2656 24.0938 18.8438 23.9062Z" fill="black"/>
</svg>
