<svg width="77" height="77" viewBox="0 0 77 77" fill="none" xmlns="http://www.w3.org/2000/svg">
<g filter="url(#filter0_d_6036_1044)">
<path d="M10.5 34.5C10.5 19.036 23.036 6.5 38.5 6.5C53.964 6.5 66.5 19.036 66.5 34.5C66.5 49.964 53.964 62.5 38.5 62.5C23.036 62.5 10.5 49.964 10.5 34.5Z" fill="white" shape-rendering="crispEdges"/>
<path d="M10.5 34.5C10.5 19.036 23.036 6.5 38.5 6.5C53.964 6.5 66.5 19.036 66.5 34.5C66.5 49.964 53.964 62.5 38.5 62.5C23.036 62.5 10.5 49.964 10.5 34.5Z" stroke="#EAEAEA" shape-rendering="crispEdges"/>
<path d="M35.5938 30.4219C35.3594 30.8906 34.9375 31.1719 34.4688 31.2656L28.0469 32.2031L32.6875 36.8438C33.0625 37.1719 33.2031 37.6875 33.1094 38.1562L32.0312 44.7188L37.75 41.625C38.2188 41.3906 38.7344 41.3906 39.2031 41.625L44.9219 44.7188L43.8438 38.1562C43.75 37.6875 43.8906 37.1719 44.2656 36.8438L48.9062 32.2031L42.4844 31.2656C41.9688 31.1719 41.5469 30.8906 41.3594 30.4219L38.4531 24.5156L35.5938 30.4219ZM44.875 46.4062H44.9219L38.5 42.9375L32.0781 46.4062C31.7031 46.5938 31.2344 46.5469 30.8594 46.3125C30.5312 46.0312 30.3438 45.6094 30.4375 45.1875L31.6562 37.9219L26.4531 32.7656C26.125 32.4375 26.0312 32.0156 26.1719 31.5938C26.3125 31.2188 26.6406 30.8906 27.0625 30.8438L34.2344 29.7656L37.4688 23.1562C37.6562 22.7812 38.0312 22.5 38.4531 22.5C38.9219 22.5 39.2969 22.7812 39.4844 23.1562L42.7188 29.7656L49.8906 30.8438C50.3125 30.8906 50.6406 31.2188 50.7812 31.5938C50.9219 32.0156 50.8281 32.4375 50.5 32.7656L45.2969 37.9219L46.5156 45.1875C46.6094 45.6094 46.4219 46.0312 46.0938 46.3125C45.7188 46.5469 45.2969 46.5938 44.875 46.4062Z" fill="#D52B93"/>
</g>
<defs>
<filter id="filter0_d_6036_1044" x="0" y="0" width="77" height="77" filterUnits="userSpaceOnUse" color-interpolation-filters="sRGB">
<feFlood flood-opacity="0" result="BackgroundImageFix"/>
<feColorMatrix in="SourceAlpha" type="matrix" values="0 0 0 0 0 0 0 0 0 0 0 0 0 0 0 0 0 0 127 0" result="hardAlpha"/>
<feOffset dy="4"/>
<feGaussianBlur stdDeviation="5"/>
<feComposite in2="hardAlpha" operator="out"/>
<feColorMatrix type="matrix" values="0 0 0 0 0 0 0 0 0 0 0 0 0 0 0 0 0 0 0.1 0"/>
<feBlend mode="normal" in2="BackgroundImageFix" result="effect1_dropShadow_6036_1044"/>
<feBlend mode="normal" in="SourceGraphic" in2="effect1_dropShadow_6036_1044" result="shape"/>
</filter>
</defs>
</svg>
