<svg xmlns="http://www.w3.org/2000/svg" role="img" viewBox="-2.46 1.04 289.92 426.92"><defs><style>.cls-1{fill:#0d0b08}.cls-2{fill:#eac345}.cls-3{fill:#e8c144}.cls-4{fill:#f2d454}.cls-6{fill:#d5b635}.cls-7{fill:#d1cebb}.cls-8{fill:#8b673f}.cls-9{fill:#eecf4e}.cls-10{fill:#eacb4a}.cls-11{fill:#e1bb3e}.cls-12{fill:#a47a48}.cls-13{fill:#ba9826}.cls-14{fill:#c7a22d}.cls-16{fill:#fefefe}</style></defs><path d="M177.928 31.566c.64-5.15 1.754-9.54 4.072-13.552 2.922-5.055 7.3-8.21 13.061-8.601 5.997-.407 9.739 2.154 11.866 8.111 1.525 4.269 1.578 8.716 1.292 13.153-.123 1.901.169 2.75 2.346 2.945a105.68 105.68 0 0 1 10.567 1.738c1.904.369 2.893-.113 3.323-2.146a21.91 21.91 0 0 1 6.013-11.627 13.489 13.489 0 0 1 10.993-3.745 7.258 7.258 0 0 1 5.446 3.413 19.369 19.369 0 0 1 3.425 9.795c.302 4.266 1.035 8.517.446 12.833-.254 1.867.91 2.458 3.008 1.575a30.057 30.057 0 0 1 11.906-2.298 17.979 17.979 0 0 1 9.94 3.438 7.231 7.231 0 0 1 2.698 4.018c2.806 8.652.197 16.005-5.609 22.439-3.232 3.58-6.399 7.363-11.408 8.699-1.483.395-.9 1.664-.918 2.7-.17 9.46 1.899 18.763 1.94 28.201a88.364 88.364 0 0 1-2.093 18.511c-1.36 6.502-5.945 9.996-11.455 12.666a2.589 2.589 0 0 0-1.59 1.629c-3.463 9.422-10.778 14.24-20.154 16.34a4.676 4.676 0 0 0-3.848 3.15c-4.423 11.435-6.967 23.352-9.333 35.33a265.665 265.665 0 0 0-3.98 32.548c-.987 13.733-.775 27.47-.636 41.202.056 5.62 1.06 11.237 1.126 16.887a301.877 301.877 0 0 1-.91 32.802c-.197 2.015.007 2.96 2.435 3.383 4.081.711 7.735 2.848 11.414 4.748a82.827 82.827 0 0 1 17.486 11.525 26.596 26.596 0 0 1 3.61 3.953c2.677 3.59 3.447 6.955.884 11.362-4.597 7.906-10.322 14.288-18.696 18.197a22.458 22.458 0 0 1-9.236 2.317c-6.524.13-12.87-1.029-19.277-1.998-3.929-.594-7.905-1.03-11.864-1.505a9.656 9.656 0 0 0-5.571 1.285c-5.79 3.03-12.22 3.809-18.458 5.215a40.325 40.325 0 0 1-9.74 1.284c-1.651-.037-1.86 1.134-2.042 2.231-.878 5.27-2.256 10.422-3.507 15.607-1.19 4.934-3.793 9.186-6.218 13.53a7.552 7.552 0 0 1-4.849 3.294c-7.677 2.233-15.542 2.092-23.332 1.035a14.45 14.45 0 0 1-10.87-7.47c-2.1-3.68-3.22-7.77-4.97-11.596-1.376-3.01-1.577-3.27-4.872-2.751a72.378 72.378 0 0 1-19.23.104 2.467 2.467 0 0 0-3.003 1.711c-1.364 3.696-4.226 5.608-7.902 6.499-6.831 1.655-13.815 2.402-20.576.39-10.616-3.162-17.589-10.062-20.109-21.238a190.665 190.665 0 0 1-3.878-29.294 127.511 127.511 0 0 1 .574-19.488c.161-1.878-.225-2.775-2.131-3.135-1.72-.325-3.22-1.445-5.066-1.51a1.765 1.765 0 0 1-1.32-.967 8.48 8.48 0 0 0-2.611-3.578c-.868-.869-.689-1.935-.343-3.013a32.803 32.803 0 0 1 3.977-7.793c5.994-9.229 12.436-18.2 17.862-27.751 4.113-7.238 9.785-12.77 15.827-18.123a32.915 32.915 0 0 1 12.76-6.69c3.8-1.134 7.348-3.092 11.04-4.604a114.358 114.358 0 0 1 30.527-7.997 56.115 56.115 0 0 1 9.855-.635c1.519.095 2.736-.298 3.338-1.993 4.033-11.356 8.138-22.687 12.185-34.038.611-1.715.047-3.925 2.165-4.983 2.156-6.5 5.325-12.605 7.424-19.128.432-1.34 1.008-2.636 1.42-3.982 3.984-13.017 9.524-25.512 12.942-38.72 1.395-5.392 2.643-10.828 4.447-16.105a1.944 1.944 0 0 0-.704-2.227 30.497 30.497 0 0 1-4.499-5.444c-2.541-4.226-2.821-8.715-1.868-13.45 1.568-7.783 3.72-15.405 5.94-23.019 1.575-5.406 2.866-10.895 4.38-16.32.334-1.199-.275-1.915-.812-2.725a108.912 108.912 0 0 1-8.225-14.022c-3.74-8.008-3.102-16-.221-23.922 2.795-7.686 10.17-11.406 18.14-9.564 5.775 1.335 10.451 4.18 13.02 9.806a11.032 11.032 0 0 0 .814 1.148zm90.041 21.858c-4.01.115-5.77 2.944-7.295 6.056-1.673 1.03-.78 2.534-.706 3.88a137.774 137.774 0 0 1-.32 14.546c-.087 1.737.346 2.367 1.93 1.121 5.635-1.988 8.85-6.587 12.063-11.19 3.482-4.243 3.844-9.135 3.11-14.323-.399-2.807-1.509-5.059-4.085-6.352-6.584-3.307-13.083-1.748-19.866.21 1.212 1.346 2.17 2.395 3.109 3.461.599.681.654 1.26-.38 1.56-2.273-2.029-4.21-4.383-6.94-5.958a62.957 62.957 0 0 0-20.826-7.9c-4.757-.82-9.446-2.105-14.32-2.146a2.84 2.84 0 0 0-1.526-.548c-2.904-.248-5.802-.59-8.69-.982-3.11-.422-6.211-.861-9.335-1.186-2.187-.227-4.394-.134-6.542-.437a28.125 28.125 0 0 0-8.403-.025c-.732.114-1.977 1.021-2.669-.423-3.469-7.245-9.27-10.427-17.246-10.27-4.8.095-8.405 2.317-10.273 6.29-5.072 10.791-4.477 23.022 4.103 33.734.944 1.74 1.71 3.604 3.263 5.063A38.998 38.998 0 0 0 158.572 60q2.897-8.152 5.782-16.308a2.385 2.385 0 0 0 .164-1.261c-1.097-4.5-2.643-8.744-6.836-11.388-3.922-3.05-7.145-1.985-8.403 2.707-.158.59.24 1.73-1.117 1.73a9.665 9.665 0 0 1 .397-3.363c.571-2.73 1.63-3.673 4.392-3.905a11.141 11.141 0 0 1 5.494 1.293c3.846 2.853 5.982 6.883 7.69 11.206a4.055 4.055 0 0 1-.43 4.045c-.179-.277-.403-.808-.528-.785-.473.085-.493.594-.6.988-.994 3.644-1.905 7.314-2.994 10.93-2.858 9.486-6.042 18.877-8.17 28.573-1.86 7.169-4.534 14.117-5.82 21.443a10.85 10.85 0 0 0-.96 3.468c-1.383 6.194-.728 11.904 3.985 16.66 1.454 1.466 2.822 3.02 4.2 4.56a14.992 14.992 0 0 0 7.09 4.518c.666.707 2.168.909 1.803 2.199-.182.642-1.102-.154-1.7-.07-2.362-1.568-5.244-2.321-7.211-4.497-1.167-1.291-1.899-1.51-2.117.562a10.89 10.89 0 0 1-.272 1.252c-2.258 9.94-4.191 19.962-7.664 29.588-1.507 4.175-2.098 3.702 2.548 4.978l2.577 1.723c5.03 5.81 8.156 12.234 6.518 20.198-.216.527-.43 1.055-.648 1.582-1.86 4.505-2.224 8.625.815 13.128 3.511 5.202 1.046 11.833-4.618 14.63a42.671 42.671 0 0 1-4.644 1.551 31.63 31.63 0 0 1-17.115-4.712c-.726-.56-1.486-1.08-2.17-1.687-1.411-1.248-2.054-1.049-2.69.852-2.503 7.468-5.19 14.874-7.81 22.303-.73 1.155-.533 2.005.915 2.487a1.889 1.889 0 0 0-2.503 1.407c-2.802 7.665-5.582 15.34-8.855 22.823-1.232 1.528-1.409 3.733-3.16 4.927l-.53-.636c.19-2.023 1.392-3.68 1.994-5.555 1.976-2.701 2.55-6.034 4.017-8.968.5-.998 1.475-2.31.84-3.166-.683-.919-2.258-.422-3.416-.295a199.5 199.5 0 0 0-25.674 4.649 116.716 116.716 0 0 0-29.266 11.862 16.382 16.382 0 0 0-3.416 2.6 13.595 13.595 0 0 1-2.518 1.882c-2.834 1.248-4.662 3.545-6.508 5.852a10.351 10.351 0 0 0-3.446 4.434 5.212 5.212 0 0 0-1.596 2.22 92.366 92.366 0 0 0-9.67 26.978 54.974 54.974 0 0 0-3.33 11.92c-1.03 7.078-1.427 14.213-1.936 21.333a60.52 60.52 0 0 0 .661 14.07l.023 1.295a61.85 61.85 0 0 0 .903 10.66c1.081 8.166 2.558 16.241 6.478 23.634.315.594.377 1.41 1.297 1.545 1.582.23 2.604 1.418 3.8 2.302 3.115 2.304 6.282 4.495 10.305 4.877 4.117 1.292 8.287 1.038 12.47.422a19.555 19.555 0 0 0 8.12-1.485 4.799 4.799 0 0 0 3.367-3.283 6.74 6.74 0 0 0 1.075-2.753l.805-1.94c2.75-4.839 4.116-10.128 5.096-15.549.235-1.298-.119-1.908-1.525-2.202-5.883-1.232-11.145-3.933-16.179-7.132a8.451 8.451 0 0 1-2.58-2.527c-.541-.826.308-.475.532-.652l1.592.585a39.548 39.548 0 0 0 13.509 7.196c6.46 2.09 13.178 3.034 19.851 4.18 1.925.331 2.225-.137 1.854-1.892-1.343-6.355-2.598-12.73-3.887-19.096l-.677-3.764-.64-6.463.582-3.921c1.104 3.193 1.147 6.086 1.873 8.833l-.007.177a87.525 87.525 0 0 0 3.282 16.42l.126.847.187.674a18.38 18.38 0 0 0 .27 2.551c1.39 5.678 2.782 11.355 4.262 17.009.879 3.358 1.582 6.789 3.317 9.864a9.127 9.127 0 0 0 1.244 3.46 14.72 14.72 0 0 0 2.004 4.816c1.804 4.8 5.018 8.085 10.146 9.136a28.024 28.024 0 0 0 7.66.221 60.44 60.44 0 0 0 10.03-.376c5.379-.622 9.067-3.05 10.982-8.348a134.081 134.081 0 0 0 5.967-21.819c1.212-5.243 1.956-10.566 2.681-15.892a5.216 5.216 0 0 0 .282-2.598l.125-.447c.89.291.4 1.199.77 1.723-.287 2.825-.609 5.647-.85 8.476-.224 2.642.653 3.373 3.333 2.945a148.403 148.403 0 0 0 21.288-4.518 30.52 30.52 0 0 0 13.269-7.75l1.645-1.352a3.773 3.773 0 0 0 .313.292c-.738 2.142-2.697 3.377-4.167 5.295l24.97 3.212a41.47 41.47 0 0 0 7.724.224c3.622-.08 6.546-1.89 9.428-3.806l.02-.044c.261-.106.53-.197.782-.321 7.649-3.782 11.972-10.547 15.877-17.694a1.5 1.5 0 0 0 .063-1.405 14.956 14.956 0 0 0-2.651-4.852c-5.76-5.967-11.646-11.785-19.61-14.846-2.377-1.763-5.21-2.482-7.929-3.462a2.834 2.834 0 0 0-1.931-.787c-.552-.631-1.399-.664-2.082-1.027-1.695-.901-2.538-.636-3.086 1.466-1.671 6.421-3.598 12.776-5.446 19.151-.272.938-.537 1.935-1.693 2.271a2.355 2.355 0 0 1 0-1.877c1.004-3.726 1.939-7.472 3.041-11.169 1.609-5.394 3.5-10.7 3.533-16.45.019-3.427.211-6.866.551-10.277.69-6.932.123-13.866.25-20.796.137-7.426-1.893-14.681-1.437-22.144.736-12.065-.272-24.17.649-36.238a109.993 109.993 0 0 0 .523-13.277 43.523 43.523 0 0 1-3.487 7.638 15.902 15.902 0 0 1-6.409 5.591c-3.93.619-7.813.752-11.509-1.09-2.653-2.41-2.976-5.31-1.955-8.596a45.337 45.337 0 0 1 2.424-5.707 6.9 6.9 0 0 0-.589-7.285c-3.544-5.32-1.376-13.963 4.212-17.157 5.693-3.255 10.61-1.71 13.373 4.203.033 1.043.115 2.088.088 3.13-.046 1.763.6 2.978 2.425 3.366 2.351 1.636 2.403 4.27 3.155 6.757l1.642-9.835c.46-2.068.94-4.131 1.374-6.204 1.663-7.943 3.346-15.865 6.532-23.398 1.182-2.794 2.432-5.568 3.89-8.769a30.12 30.12 0 0 1-8.19.24 17.594 17.594 0 0 0-4.415-.461c-.539-.168-1.076-.34-1.616-.503-7.656-2.304-15.252-4.717-20.638-11.205a6.863 6.863 0 0 0-1.726-2.59 4.92 4.92 0 0 0-1.362-2.546c-.428-1.206-.947-2.389-1.268-3.622a42.541 42.541 0 0 1-.82-16.603 24.748 24.748 0 0 1 7.745-15.382c1.86-1.714 4.145-2.772 6.128-4.284 1.37-.56 2.729-1.146 4.11-1.677a48.718 48.718 0 0 1 25.932-2.396 23.36 23.36 0 0 1 16.238 10.863 77.93 77.93 0 0 1 4.651 11.18l.925 5.594c-.101 3.88.33 7.782-.511 11.635-.168.767-1.04 1.753-.14 2.3.78.472 1.424-.625 2.115-1.049.11-.068.171-.217.255-.328a15.93 15.93 0 0 0 7.61-10.167 73.372 73.372 0 0 0 1.926-17.21c.024-5.413.008-10.848-1.416-16.145l-.107-1.257-.417-18.949a14.086 14.086 0 0 0 .42-4.27c.427-2.981 1.015-6.073.323-8.96-1.008-4.206 1.125-6.928 3.677-9.437 3.128-3.075 9.674-4.087 10.58 2.092-.187.811.167 1.762-.7 2.638l-.771-3.164c-.203-2.246-1.72-2.674-3.597-2.6zM11.136 319.538c-1.444 1.203-2.553 3.101-2.332 4.576a7.551 7.551 0 0 0 3.127 4.719c.97.616 2.505.865 3.762 1.508 1.007.515 2.609 1.156 3.12-.752.973-3.63.68-4.238-2.42-6.285-.833-.55-1.67-1.095-2.486-1.666a1.717 1.717 0 0 1-.935-1.965l1.577.076c1.18 1.03 2.38 2.04 3.534 3.1 1.009.927 1.284.78 1.703-.602 2.568-8.448 4.326-17.127 7.282-25.46a3.157 3.157 0 0 0 .041-2.704l-12.846 20.333a22.47 22.47 0 0 0-3.127 5.122zm191.89-120.22c.102.069.253.218.297.192.236-.146.129-.316-.02-.468-.856-5.21-5.091-8.266-9.378-6.623-4.185 1.604-6.403 5.073-7.996 9.03-1.233 3.064.136 5.534 1.804 7.962a7.532 7.532 0 0 1 .546 7.743c-.69 1.568-1.454 3.106-2.097 4.694-2.117 5.227-.373 8.357 5.153 9.102 3.688.497 7.246-.009 9.827-2.964a22.458 22.458 0 0 0 5.639-12.075c.573-4.704 2.46-9.874-3.47-13.042a2.071 2.071 0 0 1-.305-3.55zm33.84-44.294c6.818-3.547 9.178-10.02 10.375-16.868a37.102 37.102 0 0 0-2.456-20.606c-2.343-5.728-5.173-10.87-11.672-13.307-10.256-3.846-20.278-3.042-30.398.102-8.57 2.81-14.978 7.851-17.423 16.959a36.72 36.72 0 0 0-.9 13.193c.942 9.571 5.34 16.83 14.336 21.007a47.526 47.526 0 0 0 19.163 4.858c6.809.133 13.395-.912 18.975-5.338zm-91.618 65.273c9.243-.03 14.092-7.26 9.514-14.692a12.126 12.126 0 0 1-.92-11.806c3.09-7.48 1.371-14.103-3.138-20.38a10.392 10.392 0 0 0-4.83-3.757c-2.513-.967-2.83-.825-3.74 1.688-2.432 6.721-4.82 13.458-7.294 20.164-2.326 6.303-5.263 12.365-7.399 18.746-.419 1.251-.602 2.44.553 3.324 5.098 3.898 10.641 6.693 17.254 6.713zm61.077-193.666a24.848 24.848 0 0 0-1.937-10.071 7.464 7.464 0 0 0-5.598-4.817c-5.234-1.185-9.452.72-12.901 4.46-3.627 3.935-4.736 9.034-6.028 14.034-.383 1.483-.09 1.894 1.413 1.812a109.597 109.597 0 0 1 18.592.86c6.453.747 6.464.653 6.46-6.278zm42.33 11.527c-.359-4.21-.288-9.108-2.269-13.69-1.503-3.48-3.37-4.795-7.143-4.553-4.61.296-7.772 2.942-10.078 6.744-1.606 2.649-2.372 5.66-3.535 8.5-.443 1.083.037 1.547 1.107 1.764 6.95 1.405 13.806 3.1 19.976 6.805 1.044.626 1.435.272 1.705-.895a23.207 23.207 0 0 0 .236-4.675zM79.457 395.583a92.207 92.207 0 0 0 14.317-.82c.977-.133 1.584-.247 1.242-1.555-1.01-3.865-1.87-7.77-2.811-11.652-.17-.7-.418-1.346-1.331-1.455-4.816-.579-9.648-1.052-14.395-2.105-.744-.165-1.202-.021-1.276.9a42.095 42.095 0 0 1-4.152 14.979c-.575 1.194-.193 1.724 1.114 1.714 2.43-.02 4.861-.006 7.292-.006z" class="cls-1"/><path d="M88.156 352.386c-.725-2.748-.768-5.64-1.872-8.834l-.581 3.921a2.316 2.316 0 0 1-1.791-.581c-2.129-1.913-4.78-2.36-7.448-2.844-1.8-.326-3.693-.319-5.324-1.334.367-.85.761-1.689 1.097-2.55 1.996-5.125 2.411-10.206-.142-15.328-1.176-2.357-3.114-3.201-5.493-3.415a18.056 18.056 0 0 0-3.197.03 16.42 16.42 0 0 1-14.128-5.66 70.959 70.959 0 0 0-4.726-4.66c-3.275-2.928-6.955-3.763-11.065-1.848a30.47 30.47 0 0 1 1.342-11.19 57.73 57.73 0 0 0 2.266-8.242c.437-2.353.88-4.839-1.11-6.857a10.35 10.35 0 0 1 3.446-4.433 14.795 14.795 0 0 1 .527 2.929 2.953 2.953 0 0 0 1.54 2.817l-.042.85c-1.072.585-.887 1.185-.02 1.792.519 4.355 3.975 7.14 8.741 7.045a30.066 30.066 0 0 0 6.795 17.422 5.463 5.463 0 0 0 4.088 2.482 9.894 9.894 0 0 1 4.587 1.585c1.01.529 1.98 1.135 2.996 1.652 1.245.632 1.932.022 2.133-1.175a6.423 6.423 0 0 0-.053-2.13 11.423 11.423 0 0 1 1.761-8.123 13.03 13.03 0 0 1 10.795-6.302c2.805-.202 5.767-.464 7.872 2.143-.29.658-1.176.169-1.492.777a17.967 17.967 0 0 0-4.236 5.11c-1.305 1.325-1.665 3.074-2.105 4.778a5.077 5.077 0 0 0-.165 1.69 4.023 4.023 0 0 0 3.846 3.919c3.37.354 4.834 2.258 5.162 5.416a16.92 16.92 0 0 0 .56 2.503c2.302 8.78 8.452 12.01 17.236 9.854 5.785-1.419 10.751-11.46 5.146-16.259 1.937-1.329 3.846-2.703 5.824-3.969a2.989 2.989 0 0 0 1.458-2.672 34.689 34.689 0 0 0-.878-10.187c-.664-2.388-.384-2.71 2.17-3.16 3.166 2.475 5.62 2.586 9.612.006a48.246 48.246 0 0 1 11.804-5.96 10.637 10.637 0 0 0 3.344-1.886c2.215-1.727 3.237-4.282 2.582-6.36-.622-1.976-3.13-3.581-5.774-3.806-1.6-.136-3.105.455-4.678.453a29.354 29.354 0 0 1-1.387-9.967 5.676 5.676 0 0 0-3.036-5.854c-.635-.357-1.536-.768-1.275-1.76.69-2.623 1.538-5.174 4.187-6.555.282 5.545 3.144 7.345 8.471 5.326.867-.329 1.724-.686 2.597-.999 5.752-2.06 7.343-1.571 10.485 3.703a8.981 8.981 0 0 0 6.828 4.571c5.113.762 9.532-1.035 13.797-3.516a8.214 8.214 0 0 1-.486 3.986c-1.484 3.145.311 6.604-1.137 9.787-.772 1.695-1.74 3.467-1.388 5.501-2.25 1.308-4.784 1.681-7.279 2.126a3.345 3.345 0 0 0-2.158 1.176c-.608 1.25-2.12 1.701-2.657 3.014-2.83 2.607-3.442 6.214-4.362 9.682a.948.948 0 0 1-.683-.982c.312-2.113-.905-4.175-.103-6.332.321-.867.152-2.111-.903-2.346-1.219-.272-1.075.99-1.226 1.752-.52 2.64-.793 5.35-1.552 7.918-1.408 4.762-3.141 9.426-4.635 14.164-.49 1.552-1.403 2.97-1.5 4.648l-.07.592c-5.075-2.761-9.934-5.73-13.778-10.239-2.875-3.372-7.198-3.08-9.138.19a3.978 3.978 0 0 0-1.064 3.424 7.643 7.643 0 0 0 2.408 8.309 6.803 6.803 0 0 1 2.32 5.108c.036 4.056.018 8.117-.153 12.168-.132 3.139.23 6.092 2.024 8.75-1.875.342-2.919 1.96-4.41 2.895-3.316 2.08-4.528 5.54-5.571 9.036-.382 1.28.169 1.98 1.67 1.912 2.21-.1 4.428-.042 6.642-.018.993.011 2.065-.041 2.368 1.283-.902.78-1.845.33-2.814.148-2.632-.494-5.476-.477-6.984 1.896a27.19 27.19 0 0 0-3.517 8.269c-1.763-.366-3.22-1.267-5.344-1.001-8.384 1.05-10.446 3.928-11.518 9.946-.13.732.151 2-1.177 2.23-.003-4.61 1.453-8.96 2.351-13.413.223-1.103 1.002-2.512-.627-3.353l-.006-.855c1.79-4.887-.938-9.02-6.243-9.443-.632-.05-1.27-.017-1.906-.021.023-.73-.089-1.392-.874-1.708a7.058 7.058 0 0 0-7.597-4.557z" class="cls-2"/><path d="M123.677 299.348c-2.555.45-2.835.772-2.171 3.16a34.689 34.689 0 0 1 .878 10.187 2.989 2.989 0 0 1-1.458 2.672c-1.978 1.266-3.887 2.64-5.824 3.97-4.475-2.81-7.532-6.487-8.622-11.912-.962-4.795-4.435-7.12-9.32-7.234a17.66 17.66 0 0 0-6.01 1.357c-2.105-2.607-5.067-2.345-7.872-2.143a13.03 13.03 0 0 0-10.795 6.302 11.423 11.423 0 0 0-1.761 8.124 6.423 6.423 0 0 1 .053 2.129c-.201 1.197-.888 1.807-2.133 1.175-1.016-.517-1.986-1.123-2.996-1.652a9.894 9.894 0 0 0-4.587-1.585 5.463 5.463 0 0 1-4.088-2.482 30.066 30.066 0 0 1-6.795-17.422 12.804 12.804 0 0 0 7.992-4.524 14.066 14.066 0 0 1 8.625-4.725c5.322-.943 10.744-.507 16.076-1.254.128.902.869 1.016 1.55 1.232a30.514 30.514 0 0 0 4.007.541 16.422 16.422 0 0 0 12.807-2.616 8.142 8.142 0 0 1 4.682-1.868 9.649 9.649 0 0 0 3.313-.68c3.732-1.423 5.334-4.516 4.259-8.417a9.728 9.728 0 0 1 .667-7.195c2.256-4.784 4.722-9.462 6.99-14.237a13.504 13.504 0 0 0 .726-1.553 81.427 81.427 0 0 1 5.018-12.014c2.39-4.646 6.996-8.393 12.945-4.467a3.086 3.086 0 0 0 .778.358 2.678 2.678 0 0 0 3.373-1.105c1.807-2.925 3.345-5.961 3.31-9.535a42.671 42.671 0 0 0 4.645-1.552c5.664-2.796 8.13-9.427 4.618-14.629-3.04-4.503-2.676-8.623-.815-13.128.217-.527.432-1.055.648-1.582 1.676.045 2.077-1.213 2.53-2.45 1.811-4.954 3.03-10.111 5.127-14.968a7.475 7.475 0 0 1 2.716-3.725 19.286 19.286 0 0 0 4.937-4.675 16.337 16.337 0 0 1 4.96-4.355c2.418-1.334 2.534-1.873 1.014-4.139-1.333-1.985-2.61-3.95-1.637-6.528a2.046 2.046 0 0 0-.358-1.638 3.69 3.69 0 0 1 .144-3.871 4.207 4.207 0 0 0 .68-2.65 27.133 27.133 0 0 1 4.721 4.74c.326.393.573.864 1.153.758.685-.126.522-.73.57-1.201.561-.298.35-1.39 1.31-1.277-.216 1.684.572 2.323 2.186 2.104a6.863 6.863 0 0 1 1.726 2.59c-3.017.064-3.101.145-2.139 3.061.687 2.08 1.083 4.089.08 6.221a6.443 6.443 0 0 0 .063 4.976c.975 2.829 1.02 5.584-.86 8.144a3.684 3.684 0 0 0-.662 2.008 24.97 24.97 0 0 1-.504 5.293c-.488 1.742.124 3.614-.823 5.24a21.71 21.71 0 0 0-2.159 6.24 34.347 34.347 0 0 1-5.572 13.046 25.156 25.156 0 0 0-4.38 10.596 16.506 16.506 0 0 1-4.136 8.99c-2.14 2.216-2.21 4.185-.88 6.116a31.296 31.296 0 0 1-3.413.068c-4.273-.363-7.743 1.56-10.96 3.956-7.991 5.954-11.525 14.354-12.769 23.945-2.649 1.381-3.496 3.932-4.187 6.554-.261.993.64 1.404 1.275 1.76a5.676 5.676 0 0 1 3.036 5.855 29.355 29.355 0 0 0 1.387 9.967c-.68.364-1.38.697-2.036 1.099-.96.586-2.3.784-2.433 2.265l.03-.03a12.475 12.475 0 0 1-6.006.695c-3.728-.21-6.11 1.823-7.156 5.411a11.607 11.607 0 0 0 .712 8.113z" class="cls-3"/><path d="M182.947 146.342c-.048.47.115 1.075-.57 1.201-.58.106-.827-.365-1.153-.757a27.133 27.133 0 0 0-4.72-4.742c-.744-2.282-2.558-3.11-4.716-3.41-.816-.113-1.725.103-2.16-.892.061-.593-.19-1.265.436-1.713 1.29-.168 1.78-1.223 2.408-2.143.327-.478.743-.902.185-1.46-.506-.508-1.02-1.073-1.737-.27a7.135 7.135 0 0 1-3.434-.866 6.099 6.099 0 0 0-3.167-3.825 18.89 18.89 0 0 1-7.97-6.23c-8.795-12.026-1.605-25.609 8.94-29.893a6.713 6.713 0 0 0 4.153-3.974c2.674-7.148 4.804-14.525 8.418-21.282 2.455-4.59 3.455-9.832 6.645-14.092 2.11-2.82 1.514-4.438-1.784-5.894a40.778 40.778 0 0 1-5.434-2.472c-2.572-1.612-4.736-.974-6.332 1.674-.479.795-.819 1.672-1.274 2.483-.574 1.021-1.243 1.953-2.623 1.852-1.353-1.377-1.05-3.213-1.353-4.881a4.055 4.055 0 0 0 .43-4.045c.322-.83 1.134-1.025 1.806-1.407.716-.407 1.702-.58 1.651-1.71-.045-1.025-.981-1.157-1.647-1.45-1.717-.753-2.064-2-1.554-3.667a4.192 4.192 0 0 0-.587-4.05c-2.046-2.621-4.87-2.21-7.36 1.078a11.141 11.141 0 0 0-5.493-1.293c-2.761.232-3.82 1.174-4.392 3.905a9.665 9.665 0 0 0-.397 3.362c1.357 0 .959-1.14 1.117-1.73 1.258-4.69 4.481-5.755 8.403-2.706l-3.501 3.569c-4.007 1.288-5.505 6.727-2.282 9.377 2.357 1.94 3.95 3.658 2.755 6.835-.144.384.161.964.32 1.432 1.206 3.543-.418 6.689-1.397 9.92-.054.177-.468.246-.715.366-8.58-10.712-9.175-22.943-4.103-33.733 1.868-3.974 5.473-6.196 10.273-6.29 7.977-.158 13.777 3.024 17.246 10.269.692 1.444 1.937.537 2.669.423a28.125 28.125 0 0 1 8.403.025c2.148.303 4.355.21 6.542.437 3.124.325 6.226.764 9.334 1.186 2.89.392 5.787.733 8.691.982a2.84 2.84 0 0 1 1.527.548 1.113 1.113 0 0 1-.964 1.02c-5.564 1.265-9.65 5.062-14.094 8.235a3.566 3.566 0 0 0-1.693 3.068 5.722 5.722 0 0 0-4.093 2.942c-.709 1.331-.88 2.905.657 4.029l-.003 1.702c-.492.974-.464 2.169-1.276 3.008l-.024 2.053-.812-.12c-.163-.556-.407-.825-.886-.248-2.117-.171-4.13-1.063-6.516-1.008l1.74 2.16c-3.386 2.841-3.444 6.474-2.409 10.371.295 1.108 1.502 2.18.038 3.408-.34.284.364.942.746 1.118 1.93.89 1.24 1.835.185 2.894-1.334 1.34-2.946 2.525-2.882 4.724-3.173 2.528-5.886 5.681-6.631 9.566-1.493 7.78-2.92 15.603-2.004 23.676a30.039 30.039 0 0 0 2.764 10.632 2.067 2.067 0 0 1 .048 2.431c-1.553 2.599-1.18 4.818.953 6.971a22.695 22.695 0 0 1 4.38 5.23 4.906 4.906 0 0 0 2.279 2.091z" class="cls-2"/><path d="M243.146 111.521a23.36 23.36 0 0 0-16.238-10.863 48.718 48.718 0 0 0-25.933 2.396c-1.38.53-2.74 1.117-4.11 1.677a2.744 2.744 0 0 1-1.507-1.683c-.925-2.548-.563-3.445 2.527-5.65 1.36-.97 2.955-2.046 2.572-3.84a18.553 18.553 0 0 1 .098-5.673 21.418 21.418 0 0 0 4.535-7.445c1.512-3.67 3.462-7.25 3.18-11.431a18.712 18.712 0 0 1 .725-2.163c.642-1.366 2.127-2.241 2.292-3.896l.871-1.276a4.975 4.975 0 0 0 1.558-.62c3.14-2.816 7.008-3.983 10.99-4.747 3.16-.606 6.406-1.495 9.532.27a4.513 4.513 0 0 0 .31 3.857c1.464 2.726 4.216 4.077 6.298 6.137a2.081 2.081 0 0 0 2.91.238 2.213 2.213 0 0 0 .492-2.73c-.532-1.52-1.218-2.986-1.84-4.475 1.867-.358 3.195.853 4.7 1.583 2.045.991 3.307 3.045 5.423 3.923-.001.925.035 1.851-.012 2.773-.074 1.472.053 2.877 1.3 3.872 1.36 1.084 3.008 1.087 4.638 1.1a14.087 14.087 0 0 1-.42 4.27c-.761.145-1.526.272-2.282.44-.444.098-1.162-.224-1.263.438-.116.765.682.724 1.167.954.83.395 2.215.332 1.978 1.774-.815 4.947-.176 9.922-.374 14.878-.224.598-.497 1.183-.663 1.796-.479 1.767-1.385 3.58-1.257 5.31a25.677 25.677 0 0 1-.43 7.607 18.376 18.376 0 0 0-.51 5.907 10.68 10.68 0 0 1-.925 4.918c-.246.703-.659 1.644-1.634 1.319a1.586 1.586 0 0 1-.918-2.13 7.838 7.838 0 0 0 .3-1.669 4.554 4.554 0 0 0-1.168-3.752c-1.075-1.02-1.748.605-2.705.479a2.53 2.53 0 0 0-.428.014 24.584 24.584 0 0 1-1.58-1.974c-.561-.86-.766-2.074-2.2-1.913zm-17.908-20.866a24.483 24.483 0 0 0-8.915-.573c-1.544.19-3.266-.04-4.542 1.23a4.71 4.71 0 0 1-.853-.048c-1.163-.275-2.412-.51-2.591 1.13-.178 1.625 1.13 1.562 2.217 1.498 1.702-.099 3.396-.326 5.098-.407a54.182 54.182 0 0 1 8.959.42l6.323 3.899a.986.986 0 0 0 .968.796c2.04.25 2.34-1.315 2.515-2.674a41.534 41.534 0 0 0 .091-4.886l.836-.05a.944.944 0 0 0 .982.266c1.353-.01 2.684 1.114 4.059.083a1.557 1.557 0 0 1 1.149.377c.407.35.824.55 1.174-.092.253-.463.385-.924-.11-1.293-.387-.287-.821-.51-1.234-.762a20.797 20.797 0 0 0 2.112-6.468c.356-1.994-.69-4.289 1.247-5.967a5.41 5.41 0 0 0-.44-.675c.345-1.591-.743-2.32-1.832-3.049-3.197-2.14-6.38-4.3-8.794-7.372-.873-1.111-1.595-2.584-3.34-2.13-1.785.465-1.433 2.238-1.81 3.537a3.176 3.176 0 0 0-.02.854c-.008 4.5-.02 9-.013 13.499.001.619-.195 1.303.394 1.803l.05.836c-.681.542-.44 1.308-.437 1.987.013 2.053.614 4.481-2.872 4.034-.114-.015-.247.128-.371.197z" class="cls-4"/><path fill="#dddbca" d="M202.715 104.345c10.12-3.144 20.142-3.948 30.398-.102 6.499 2.438 9.33 7.579 11.672 13.307a37.102 37.102 0 0 1 2.456 20.606c-1.197 6.847-3.557 13.32-10.375 16.868a11.247 11.247 0 0 1-8.937-2.907 17.856 17.856 0 0 0-7.789-4.108c.215-1.568-1.067-1.455-1.95-1.644a22.822 22.822 0 0 1-12.36-7.134c-.694-.761-1.349-1.596-.896-2.67.67-1.591-.364-1.998-1.493-2.404a4.065 4.065 0 0 0 .038-1.485 11.233 11.233 0 0 1-.004-8.13 8.745 8.745 0 0 0 .196-5.47 2.153 2.153 0 0 1 1.4-2.92 7.75 7.75 0 0 0 7.74-.019 3.378 3.378 0 0 0 1.719-3.998 3.238 3.238 0 0 0-3.493-2.787 19.963 19.963 0 0 0-6.106.722 5.592 5.592 0 0 0-.826-2.75c-.52-.945-1.496-1.726-1.39-2.975zm38.873 15.924c-.006-3.251-2.22-5.707-4.928-5.732-1.838-.017-3.43 1.303-3.049 2.773a11.102 11.102 0 0 0 2.137 4.848c1.06 1.186 2.302 2.078 3.945 1.408 1.53-.625 1.805-2.084 1.895-3.297z"/><path d="M166.196 229.69c-1.33-1.931-1.258-3.9.881-6.115a16.506 16.506 0 0 0 4.136-8.991 25.156 25.156 0 0 1 4.38-10.596 34.347 34.347 0 0 0 5.572-13.046 21.71 21.71 0 0 1 2.159-6.24c.947-1.626.335-3.498.823-5.24a24.97 24.97 0 0 0 .504-5.293 3.684 3.684 0 0 1 .662-2.008c1.88-2.56 1.835-5.315.86-8.144a6.443 6.443 0 0 1-.062-4.976c1.002-2.132.606-4.14-.08-6.22-.963-2.917-.88-2.998 2.138-3.063 5.386 6.488 12.982 8.9 20.638 11.205.54.162 1.077.335 1.616.503a17.723 17.723 0 0 0 2.936 6.577c2.56 3.15 2.231 6.717 1.343 10.161a48.002 48.002 0 0 1-5.54 12.7 17.29 17.29 0 0 1-5.24 5.736c-2.763-5.912-7.68-7.458-13.373-4.203-5.588 3.194-7.756 11.837-4.212 17.157a6.9 6.9 0 0 1 .59 7.285 45.337 45.337 0 0 0-2.425 5.707c-1.02 3.287-.698 6.185 1.955 8.596l-1.813 8.047a29.251 29.251 0 0 0-5.565-5.56c.38-2.662.772-5.322 1.134-7.987.37-2.723 1.227-5.456-.147-8.156-.893-1.756-1.875-1.951-3.317-.742-4.147 3.476-6.409 8.09-8.018 13.111l-2.535-.205z" class="cls-2"/><path d="M190.17 367.604l-1.645 1.353c-1.395-.879-2.94-1.35-4.378-.408-.85.557-1.76.89-2.63 1.35-5.44 2.882-10.992 3.477-16.766.976a6.678 6.678 0 0 0-5.781.153 4.584 4.584 0 0 1-3.298.183c-1.44-.375-2.79-.95-4.188-1.408-.37-.524.121-1.432-.769-1.723q-.21-.197-.422-.393c.426-1.624 1.131-2.012 2.77-1.106a6.226 6.226 0 0 0 4.696.95c3.885-1.17 7.918-1.531 11.874-2.262a21.157 21.157 0 0 1 9.766.621c4.635 1.363 8.245.058 9.99-3.785a2.817 2.817 0 0 0 1.296-1.3c2.32-1.575 4.998-2.817 5.568-6.013l.011-3.44c.907-2.258.292-4.612.397-6.918a8.211 8.211 0 0 1 1.287-4.425 9.156 9.156 0 0 0 1.181-8.708c-.412-1.152-.752-2.492.254-3.415 2.632-2.416 3.125-5.45 2.882-8.766a1.412 1.412 0 0 0 .824-.924c2.108-7.563 3.605-15.224 2.988-23.119a28.451 28.451 0 0 1 .332-5.199c.258-2.578.7-5.258.087-7.816-.818-3.409-1.89-6.765-3.005-10.093-.721-2.151-.994-4.56-2.93-6.146l-.003-10.315c.346-.057.718-.1.773-.543.072-.573-.336-.683-.774-.743l-.424-5.161a4.767 4.767 0 0 0-.025-4.297l-.002-2.133c-.054-.686.316-1.574-.83-1.739l-.001-1.287c.546-.439.542-.868-.022-1.288l-.005-1.274a.767.767 0 0 0-.828-.88l-.006-1.285c.693-.706.475-1.112-.425-1.292l-.023-1.313a15.902 15.902 0 0 0 6.409-5.592c.135.154.416.362.383.453-.98 2.656 1.007 3.817 2.58 5.186-.92 12.068.088 24.173-.648 36.238-.456 7.463 1.574 14.718 1.437 22.144-.127 6.93.44 13.864-.25 20.796-.34 3.411-.532 6.85-.551 10.278-.033 5.749-1.924 11.055-3.533 16.45-1.102 3.696-2.037 7.442-3.04 11.168a2.355 2.355 0 0 0-.001 1.877c1.156-.336 1.42-1.333 1.693-2.271 1.848-6.375 3.775-12.73 5.447-19.151.547-2.102 1.39-2.367 3.085-1.466.683.363 1.53.396 2.082 1.027-1.42 2.442-2.734 4.956-4.887 6.88a1.514 1.514 0 0 0-.334.77c-.772 3.366-1.7 6.737-2.334 10.08a10.598 10.598 0 0 1-3.763 6.73c-.801.669-1.514 1.682-1.112 2.609.819 1.887 1.338 4.05 3.344 5.199l.027.853c.091 2.283 1.853 3.61 3.092 5.183 2.055 2.607 2.688 5.849 4.193 8.69l-24.969-3.213c1.47-1.918 3.43-3.153 4.167-5.295.037-.168.158-.432.097-.484-.192-.164-.331-.006-.41.192z" class="cls-6"/><path d="M205.071 116.152a2.153 2.153 0 0 0-1.4 2.92 8.745 8.745 0 0 1-.196 5.47 11.233 11.233 0 0 0 .004 8.13 4.065 4.065 0 0 1-.038 1.485 12.98 12.98 0 0 1-4.718-1.25c-.513-.24-.954-.32-1.31.2-.405.592.042.892.443 1.206a15.571 15.571 0 0 1 3.155 4.007 21.999 21.999 0 0 0 12.15 8.889c2.189.699 4.502 1.935 6.98.8a17.856 17.856 0 0 1 7.788 4.108 11.247 11.247 0 0 0 8.937 2.907c-5.58 4.426-12.166 5.471-18.975 5.338a47.526 47.526 0 0 1-19.163-4.858c-8.996-4.177-13.394-11.436-14.336-21.007a36.72 36.72 0 0 1 .9-13.193c2.445-9.108 8.853-14.148 17.423-16.96-.106 1.25.87 2.03 1.39 2.977a5.592 5.592 0 0 1 .826 2.749c-2.468 2.662-2.452 3.331.14 6.082z" class="cls-7"/><path d="M222.92 333.66c7.963 3.06 13.85 8.878 19.609 14.845a14.956 14.956 0 0 1 2.651 4.852 1.5 1.5 0 0 1-.063 1.405c-3.905 7.147-8.228 13.912-15.876 17.694-.253.124-.522.215-.783.321-.79-1.679-2.709-2.348-3.583-3.987-.138-.26-.925-.218-1.414-.234-1-.033-2.002.01-3.002-.014-5.085-.124-9.228-1.973-12.018-6.437-.972-1.555-2.032-2.994-.765-4.872a1.309 1.309 0 0 0-.062-1.234c-1.308-3.467-.135-6.538 1.497-9.558 1.76-3.253 4.217-6.062 5.634-9.56 1.213-2.994 3.412-3.716 6.652-2.848.578.154 1.134.234 1.523-.374zm2.902 32.939c2.637-.275 5.752-3.275 5.918-5.779-2.02 1.965-4.555 3.208-5.918 5.779z" class="cls-4"/><path d="M145.249 220.296c-6.614-.019-12.157-2.814-17.255-6.712-1.155-.883-.972-2.073-.553-3.324 2.136-6.38 5.073-12.443 7.399-18.746 2.474-6.706 4.862-13.443 7.294-20.164.91-2.513 1.227-2.655 3.74-1.688a10.392 10.392 0 0 1 4.83 3.758c4.51 6.276 6.228 12.9 3.137 20.379a12.126 12.126 0 0 0 .92 11.806c4.579 7.431-.27 14.663-9.512 14.69z" class="cls-8"/><path d="M167.058 49.637c1.38.1 2.05-.83 2.623-1.852.455-.81.795-1.688 1.274-2.482 1.596-2.65 3.76-3.287 6.332-1.675a40.778 40.778 0 0 0 5.434 2.472c3.298 1.456 3.895 3.075 1.784 5.894-3.19 4.26-4.19 9.502-6.645 14.092-3.614 6.757-5.744 14.134-8.418 21.282a6.713 6.713 0 0 1-4.153 3.974c-10.545 4.284-17.735 17.867-8.94 29.893a18.89 18.89 0 0 0 7.97 6.23 6.098 6.098 0 0 1 3.167 3.825 33.804 33.804 0 0 1-7.714-2.98c-1.027-.551-1.552-1.974-3.023-1.741a1.79 1.79 0 0 0-.371-1.403c-2.075-2.054-3.145-4.707-4.316-7.292-.201-.443-.414-.718-.891-.765-.495-2.436-1.84-4.579-2.334-7.044-.278-1.39.112-3.068-1.243-4.16 1.285-7.326 3.959-14.274 5.819-21.443a.955.955 0 0 0 .756-.643 25.997 25.997 0 0 1 4.828-7.974 12.172 12.172 0 0 0 3.578-6.854c.435-3.38 1.776-6.578 2.428-9.891.625-3.17 2.212-6.135 2.055-9.463z" class="cls-3"/><path d="M200.555 87.885a18.554 18.554 0 0 0-.098 5.674c.383 1.793-1.213 2.87-2.572 3.84-3.09 2.204-3.452 3.1-2.527 5.649a2.744 2.744 0 0 0 1.508 1.683c-1.983 1.512-4.268 2.57-6.128 4.284a24.748 24.748 0 0 0-7.745 15.382 42.541 42.541 0 0 0 .82 16.603c.321 1.233.84 2.416 1.268 3.622l-.823.443c-.961-.113-.75.979-1.311 1.277a4.906 4.906 0 0 1-2.28-2.091 22.695 22.695 0 0 0-4.379-5.23c-2.133-2.153-2.506-4.372-.953-6.97a2.067 2.067 0 0 0-.048-2.432 30.039 30.039 0 0 1-2.764-10.632c-.916-8.073.511-15.896 2.004-23.676.745-3.885 3.458-7.038 6.63-9.566.51.836 1.027 1.668 1.53 2.51.766 1.285 1.816 2.37.53 4.137-.487.669-.62 2.68.928 3.18 2.409.779 3.953-.22 4.77-2.682a18.434 18.434 0 0 0 .43-4.895c.102-1.76-.459-3.587.477-5.271a10.248 10.248 0 0 1 4.582.74c.754.303 1.24.59.47 1.28-1.975 1.774-1.496 3.55-.484 5.684.762 1.606 1.512 1.45 2.593.715a17.239 17.239 0 0 0 3.572-3.258zm-18.458 14.846c-.103-2.673-.288-2.742-2.253-1.644-1.283.717-1.514 2.124-2.303 3.157-.648.849-.86 1.81-.067 2.543a2.153 2.153 0 0 0 2.78-.021c1.614-1.078 1.563-2.852 1.843-4.035z" class="cls-9"/><path d="M199.248 237.043l.005 1.274c-.532.438-.538.868.022 1.288q0 .644.002 1.287c.063.681-.29 1.562.829 1.739l.002 2.133a4.899 4.899 0 0 0 .025 4.297l.424 5.16.001 1.287.003 10.315c-.59 9.017-.914 18.042-.861 27.079-.001 4.682.01 9.363-.015 14.045-.004.71.337 1.654-.848 1.856-.134-.242-.392-.487-.385-.725.153-5.075-.522-10.137-.36-15.19.062-1.969.932-3.958.746-6.035-.16-1.77-.45-3.518-.472-5.314-.03-2.438.419-4.833.447-7.248.063-5.414.373-10.855-1.22-16.156-.251-.833.165-2.258-.94-2.278-.93-.016-.78 1.494-1.188 2.289a1.614 1.614 0 0 0-.056.423c-1.064 5.8-2.242 11.532-1.394 17.555a20.268 20.268 0 0 1-2.045 11.565c-4.272-3.11-8.876-3.496-13.748-1.671-.352-2.034.616-3.806 1.388-5.501 1.448-3.183-.347-6.643 1.137-9.787a8.214 8.214 0 0 0 .486-3.986c5.324-4.364 6.768-10.265 6.638-16.788-.078-3.875-1.68-7.293-3.227-10.727l1.813-8.047c3.697 1.842 7.58 1.709 11.51 1.09l.022 1.314c.003.476-.086.983.425 1.291l.006 1.286a.785.785 0 0 0 .828.88z" class="cls-10"/><path d="M147.295 221.935c.034 3.574-1.504 6.61-3.311 9.535a2.678 2.678 0 0 1-3.373 1.105 3.086 3.086 0 0 1-.778-.358c-5.95-3.926-10.554-.18-12.945 4.467a81.427 81.427 0 0 0-5.018 12.014 13.504 13.504 0 0 1-.726 1.553c-2.268 4.775-4.734 9.453-6.99 14.237a9.728 9.728 0 0 0-.668 7.195c1.076 3.901-.526 6.994-4.258 8.417a9.649 9.649 0 0 1-3.313.68 8.142 8.142 0 0 0-4.682 1.868 16.422 16.422 0 0 1-12.807 2.616 30.514 30.514 0 0 1-4.006-.54c-.682-.217-1.423-.331-1.55-1.233.617-.346 1.246-.672 1.85-1.041a8.031 8.031 0 0 0 3.797-8.203c-.523-3.316-3.024-4.176-5.808-4.715-1.955-.379-3.899-.81-5.847-1.218.4-1.725 2.004-1.646 3.205-2 4.57-1.35 9.288-.81 13.956-.94a12.768 12.768 0 0 1 4.916 1.129c1.817.68 2.634 2.6 4.438 3.196l.53.635c.246 1.699 1.115 2.038 2.708 1.484 2.737-.952 4.136-3.006 5.028-5.57a23.865 23.865 0 0 1 2.837-5.933c2.851-4.516 4.762-9.474 7.039-14.261a.856.856 0 0 0 .426-.87l.021-2.14a3.97 3.97 0 0 0 .837-1.92c2.18-6.457 3.259-13.23 5.605-19.64.53-1.445.58-3.091 1.772-4.261a31.63 31.63 0 0 0 17.115 4.712zm22.333-84.193c.435.995 1.344.779 2.16.892 2.158.3 3.972 1.128 4.716 3.41a4.207 4.207 0 0 1-.681 2.65 3.69 3.69 0 0 0-.144 3.872 2.046 2.046 0 0 1 .358 1.638c-.973 2.578.304 4.543 1.637 6.528 1.52 2.266 1.404 2.805-1.014 4.14a16.337 16.337 0 0 0-4.96 4.354 19.286 19.286 0 0 1-4.937 4.675 7.475 7.475 0 0 0-2.716 3.725c-2.097 4.857-3.316 10.014-5.128 14.969-.452 1.236-.853 2.494-2.53 2.45 1.639-7.965-1.488-14.39-6.517-20.2a25.258 25.258 0 0 1 4.463-10.972 8.924 8.924 0 0 0 1.524-4.793 13.652 13.652 0 0 1 .456-3.153 9.86 9.86 0 0 1 3.01-4.297c1.26-.869 1.774-2.34 2.71-3.478 2.163-2.629 5.703-3.534 7.593-6.41z" class="cls-11"/><path d="M203.025 199.32a2.07 2.07 0 0 0 .306 3.55c5.93 3.167 4.043 8.337 3.47 13.041a22.458 22.458 0 0 1-5.639 12.074c-2.58 2.956-6.14 3.462-9.827 2.965-5.526-.745-7.27-3.875-5.153-9.103.643-1.587 1.407-3.125 2.097-4.693a7.532 7.532 0 0 0-.546-7.743c-1.668-2.428-3.037-4.898-1.804-7.962 1.593-3.957 3.81-7.426 7.996-9.03 4.287-1.643 8.522 1.413 9.378 6.623q-.142.137-.278.278z" class="cls-12"/><path d="M71.14 342.714c1.63 1.015 3.524 1.008 5.324 1.334 2.667.484 5.32.93 7.448 2.844a2.316 2.316 0 0 0 1.79.581l.64 6.463c-.932.016-1.062.824-1.378 1.426-.593 1.134-1.105 2.313-1.746 3.417-.428.736-1.214 1.712-1.99.868-1.45-1.579-2.252-.406-3.237.4-4.868-2.25-8.236-1.904-11.48 1.181l-1.335.976c-1.01 1.527.35 2.88.32 4.335-.435.821-1.041.55-1.625.233-3.677-2.005-7.703-3.314-11.226-5.624-3.755-2.462-7.336-5.083-9.631-9.121-.581-1.023-1.055-2.42-2.67-2.404 1.06-1.51 1.33-3.357 2.117-4.972.478-.984.566-2.222 1.622-2.888 1.323.417 1.947 1.615 2.792 2.548 3.131 3.462 7.007 5.614 11.665 5.244 5.07-.403 9.625-2.306 12.6-6.84z" class="cls-11"/><path d="M66.876 399.482a4.799 4.799 0 0 1-3.367 3.283 19.554 19.554 0 0 1-8.12 1.485c-.075-.743-.567-.935-1.208-.886-3.05.234-5.941-.642-8.8-1.45-2.004-.568-2.68-.068-2.462 1.914-4.023-.382-7.19-2.573-10.305-4.877-1.196-.884-2.219-2.072-3.8-2.302-.92-.134-.982-.95-1.297-1.545-3.92-7.393-5.397-15.468-6.478-23.634a61.846 61.846 0 0 1-.903-10.66c1.66-.162 2.239 1.508 3.51 2.08a9.256 9.256 0 0 1 4.525 4.816c.472 1.016.836 2.323 2.273 2.567l.413.444a24.174 24.174 0 0 0 .57 2.68 120.72 120.72 0 0 0 5.041 13.632c-.442 1.34-1.64 2.883-.316 4.042 1.853 1.622 2.158 3.802 2.907 5.855-.625.285-1.417-.189-1.98.385.031.513.421.59.74.662a60.227 60.227 0 0 0 16.79 1.25 11.405 11.405 0 0 0 2.448-.7 2.563 2.563 0 0 0 2.474.91c2.483-.68 4.902-.026 7.345.05z" class="cls-13"/><path d="M95.753 356.943c.785.316.897.977.874 1.708.344 1.875.618 4.418 2.11 5.06 2.449 1.057 4.128 2.81 6.039 4.404l.005.855c.23 2.99-1.048 5.714-1.553 8.574a3.58 3.58 0 0 1-2.252 2.692c-3.24 1.28-4.107 3.753-3.986 7.004.066 1.787.682 2.56 2.415 2.823 3.332.504 3.266.585 3.676 4.032.327 2.743 1.834 5.787 4.13 6.144 6.19.962 12.164 3.098 18.66 2.397 3.172-.343 5.48-.475 7.054-3.883 1.938-4.194 4.445-8.147 5.945-12.547 1.439-4.223 4.577-6.537 8.42-8.206-.557 4.248-1.044 8.69-4.265 11.776a34.232 34.232 0 0 0-8.71 12.218c-.77 1.952-2.7 3.99-5.166 3.404-5.106-1.214-10.405-.187-15.442-1.632-2.28-.655-4.857.234-6.907-1.012-2.275-1.383-5.024-1.347-7.206-2.827-1.735-3.075-2.438-6.505-3.317-9.864-1.48-5.654-2.873-11.331-4.263-17.009a18.307 18.307 0 0 1-.269-2.551l-.187-.674-.126-.846c.914-.076.833-.758.902-1.403a23.992 23.992 0 0 1 1.69-6.523c.563-1.377 2.305-2.259 1.73-4.114z" class="cls-6"/><path d="M206.325 26.631c.005 6.93-.006 7.025-6.459 6.277a109.597 109.597 0 0 0-18.592-.859c-1.503.082-1.796-.329-1.413-1.812 1.292-5 2.401-10.099 6.028-14.033 3.45-3.742 7.667-5.646 12.9-4.461a7.464 7.464 0 0 1 5.599 4.817 24.848 24.848 0 0 1 1.937 10.071z" class="cls-8"/><path d="M196.693 48.712a3.566 3.566 0 0 1 1.693-3.068c4.444-3.173 8.53-6.97 14.094-8.235a1.113 1.113 0 0 0 .964-1.02c4.873.041 9.562 1.326 14.319 2.146a62.957 62.957 0 0 1 20.826 7.9c2.73 1.575 4.667 3.929 6.94 5.957a6.26 6.26 0 0 1-.851 6.272 21.923 21.923 0 0 1-7.137-5.258 23.527 23.527 0 0 0-9.138-6.097c-3.162-1.1-6.468-2.227-9.749-1.829-7.013.852-14.015 2.02-20.519 5.063-.765-2.235-2.575-2.9-4.67-2.97a13.322 13.322 0 0 0-6.772 1.14z" class="cls-10"/><path d="M150.293 367.687l.422.393-.125.447c-1.782.103-1.017 1.75-1.572 2.597l-.44.858a1.698 1.698 0 0 0-.618.139c-5.076 3.64-8.255 8.723-10.842 14.263q-2.79 5.978-5.64 11.928a4.611 4.611 0 0 1-3.415 2.642c-4.005.81-7.95 1.33-11.912-.424a13.977 13.977 0 0 0-6.61-1.473 1.765 1.765 0 0 1-1.789-.887c-1.18-1.862-2.46-3.664-2.547-5.986 2.146.168 4.024.797 5.1 2.88 1.859 3.6 7.848 6.274 11.86 5.642 2.217-.35 3.81-1.928 5.86-2.396a3.602 3.602 0 0 0 2.771-2.371c1.507-3.937 4.484-7.07 5.866-11.104.757-2.21.372-3.62-1.921-4.214-2.66-.688-5.282-1.562-7.975-2.058a7.267 7.267 0 0 1-5.669-4.002 27.19 27.19 0 0 1 3.517-8.269c1.508-2.373 4.352-2.39 6.984-1.896.97.182 1.912.632 2.814-.148.7.012 1.279-.457 2.072-.285 2.803.607 5.73.589 8.416 1.82a2.036 2.036 0 0 0 2.398-.247l3.005.003c-.152.715-1.809 1.423-.01 2.148z" class="cls-3"/><path d="M147.627 387.017a134.081 134.081 0 0 1-5.967 21.819c-1.915 5.298-5.603 7.726-10.982 8.348a60.432 60.432 0 0 1-10.03.376c-.511-1.502-1.181-3.1-2.842-3.376a15.608 15.608 0 0 1-6.049-2.905c-2.74-1.821-5.787-2.507-8.915-3.076a14.72 14.72 0 0 1-2.004-4.816c3.376-.93 5.98 1.871 9.233 1.86 3.773-.012 7.36 2.157 11.282 1.147a3.04 3.04 0 0 1 1.46.2c1.64.464 3.256 1.017 4.904 1.449 3.39.889 5.708-.228 7.148-3.503a17.29 17.29 0 0 1 1.934-3c2.9-4.098 7.412-7.12 8.316-12.587a2.372 2.372 0 0 1 2.512-1.936zm-32.678 21.897c5.341 4.51 11.369 3.538 17.036 4.143a78.491 78.491 0 0 0-17.036-4.143z" class="cls-13"/><path d="M248.654 38.158a23.207 23.207 0 0 1-.236 4.675c-.27 1.167-.661 1.521-1.705.895-6.17-3.705-13.026-5.4-19.976-6.806-1.07-.216-1.55-.68-1.107-1.763 1.163-2.84 1.93-5.851 3.535-8.5 2.306-3.802 5.467-6.449 10.078-6.744 3.773-.242 5.64 1.073 7.143 4.552 1.981 4.583 1.91 9.48 2.268 13.691z" class="cls-8"/><path d="M54.1 366.727c-.225.177-1.073-.174-.531.652a8.451 8.451 0 0 0 2.58 2.527c5.033 3.2 10.295 5.9 16.178 7.132 1.406.294 1.76.904 1.525 2.202-.98 5.42-2.346 10.71-5.096 15.548-2.43-3.485-5.915-5.866-9.028-8.637a59.34 59.34 0 0 1-5.52-13.614 3.146 3.146 0 0 0-1.543-1.928 59.524 59.524 0 0 1-5.313-3.578c-3.587-2.833-7.17-5.714-8.277-10.52.329-1.068.607-2.155 1.007-3.196.199-.52.606-1.06 1.281-.916.568.122.6.683.711 1.19a14.145 14.145 0 0 0 10.057 11.107 2.682 2.682 0 0 1 1.97 2.031zm-2.228-98.501a116.737 116.737 0 0 1 29.266-11.862 199.5 199.5 0 0 1 25.674-4.65c1.158-.126 2.733-.623 3.415.296.636.856-.34 2.168-.84 3.166-1.466 2.934-2.04 6.267-4.016 8.968-6.55-2.183-13.188-3.867-20.178-3.468-1.482.085-2.96.412-4.436.388a5.77 5.77 0 0 0-4.746 1.992 3.994 3.994 0 0 1-3.759 1.499 8.15 8.15 0 0 0-2.558.012c-2.2.476-4.727.25-6.159 2.582a7.09 7.09 0 0 1-2.94-.198c-2.517-.387-4.998-.556-6.686 1.948-.705-.145-1.561.166-2.037-.673zm27.586 127.357c-2.43 0-4.861-.014-7.292.006-1.307.01-1.689-.52-1.114-1.714a42.095 42.095 0 0 0 4.152-14.979c.074-.921.532-1.065 1.276-.9 4.747 1.053 9.579 1.526 14.395 2.105.913.11 1.161.755 1.33 1.455.942 3.883 1.802 7.787 2.812 11.652.342 1.308-.265 1.422-1.242 1.555a92.207 92.207 0 0 1-14.317.82zm10.186-4.457c-1.808.14-3.66-.63-5.632.098 2.229 1.342 2.65 1.333 5.632-.098zm-69.531-31.611a60.52 60.52 0 0 1-.661-14.07c.508-7.12.907-14.255 1.936-21.333a54.959 54.959 0 0 1 3.33-11.92 5.676 5.676 0 0 1 4.149 4.027c.165.63.243 1.423 1.032 1.729l-.726 7.122c-.693.167-.738.718-.871 1.301-.862 3.762-.901 7.613-1.247 11.426a86.597 86.597 0 0 0-.032 18.345 4.941 4.941 0 0 1-.06 1.92c-.351 1.212-1.366 2.018-2.403 1.165-1.727-1.422-3.038-.892-4.447.288z" class="cls-13"/><path d="M254.678 58.664a6.26 6.26 0 0 0 .852-6.272c1.033-.298.978-.878.379-1.559-.94-1.066-1.897-2.115-3.109-3.462 6.783-1.957 13.282-3.516 19.866-.21 2.576 1.294 3.686 3.546 4.084 6.353.735 5.188.373 10.08-3.11 14.324a4.338 4.338 0 0 1 .116-1.657 15.1 15.1 0 0 0 1.31-5.917c.124-1.51.25-3.364-2.029-3.714-.906-6.18-7.452-5.167-10.58-2.092-2.552 2.509-4.685 5.231-3.677 9.437.692 2.887.104 5.979-.323 8.96-1.63-.013-3.278-.016-4.637-1.1-1.248-.995-1.375-2.4-1.3-3.872.046-.922.01-1.848.01-2.773 1.387-1.925 1.584-4.246 2.148-6.446z" class="cls-2"/><path d="M151.484 369.803c1.398.458 2.748 1.033 4.188 1.408a4.584 4.584 0 0 0 3.298-.183 6.678 6.678 0 0 1 5.78-.153c5.775 2.501 11.328 1.906 16.767-.976.87-.46 1.78-.793 2.63-1.35 1.438-.941 2.983-.471 4.378.408a30.52 30.52 0 0 1-13.27 7.75 148.403 148.403 0 0 1-21.287 4.517c-2.68.428-3.557-.303-3.332-2.945.24-2.83.562-5.651.848-8.476zm7.84-222.173a9.86 9.86 0 0 0-3.009 4.297c-1.448.348-1.61 1.795-2.049 2.784-1.457 3.286-4.385 5.547-5.799 8.884-.777 1.834-.27 3.807-1.172 5.528-4.646-1.276-4.055-.803-2.548-4.978 3.472-9.626 5.406-19.648 7.664-29.588a10.89 10.89 0 0 0 .272-1.252c.218-2.072.95-1.853 2.117-.562 1.967 2.176 4.849 2.93 7.212 4.497a2.55 2.55 0 0 0-.978 1.788c-.559 2.87-1.138 5.735-1.71 8.602z" class="cls-14"/><path d="M59.728 386.15c3.113 2.772 6.599 5.153 9.028 8.638l-.805 1.941c-2.055-2.862-5.276-3.122-8.26-3.166a54.652 54.652 0 0 1-17.587-2.96c-2.22-.782-4.23-1.63-5.636-3.574a120.72 120.72 0 0 1-5.042-13.632 24.072 24.072 0 0 1-.568-2.68l.596-.015c.892 3.462 1.7 4.105 5.462 4.346-.15 1 .535 1.551 1.134 2.163 3.283 3.349 6.984 6.219 10.535 9.262 3.625 3.107 7.134 3.079 10.54-.146.135-.128.4-.12.603-.177z" class="cls-11"/><path d="M87.019 357.7c1.289 6.367 2.544 12.74 3.887 19.096.371 1.755.071 2.223-1.854 1.892-6.673-1.146-13.391-2.09-19.851-4.18a39.546 39.546 0 0 1-13.509-7.196 3.693 3.693 0 0 1 2.033.446c3.378 1.194 6.669 2.717 10.335 2.87a6.11 6.11 0 0 0 6.982.619 20.888 20.888 0 0 1 4.482-1.344c2.288-.56 2.966-1.483 2.58-3.798-.128-.768-.367-1.518-.556-2.277a21.044 21.044 0 0 0 5.471-6.128z" class="cls-13"/><path d="M203.922 196.64a17.29 17.29 0 0 0 5.24-5.737 48.002 48.002 0 0 0 5.54-12.699c.888-3.444 1.218-7.01-1.343-10.16a17.723 17.723 0 0 1-2.936-6.579 17.594 17.594 0 0 1 4.416.462 30.12 30.12 0 0 0 8.19-.24c-1.46 3.2-2.709 5.975-3.89 8.769-3.187 7.533-4.87 15.455-6.533 23.397-.434 2.074-.915 4.137-1.374 6.205-1.038.093-1.497.985-2.145 1.595-.769.724-1.434 1.582-2.651 1.483-1.826-.388-2.472-1.603-2.426-3.366.027-1.042-.055-2.087-.088-3.13z" class="cls-6"/><path d="M222.92 333.66c-.39.607-.945.527-1.523.373-3.24-.868-5.439-.146-6.652 2.848-1.417 3.498-3.875 6.307-5.634 9.56-1.632 3.02-2.805 6.09-1.497 9.558a1.309 1.309 0 0 1 .062 1.234c-1.267 1.878-.207 3.317.765 4.872 2.79 4.464 6.933 6.313 12.018 6.437 1 .024 2.002-.02 3.002.014.49.016 1.276-.025 1.414.234.874 1.64 2.792 2.308 3.583 3.987l-.02.044c-2.184-1.547-4.193-.592-6.208.415a1.638 1.638 0 0 1-.623.033 1.351 1.351 0 0 0-1.151-.427c-3.246-.157-6.45-.388-8.363-3.652a1.44 1.44 0 0 0-1.07-.593c-2.09.034-3.14-1.527-4.354-2.787-.976-1.013-1.532-2.384-2.669-3.279l-.026-.853c.58-2.4 1.224-4.789 1.726-7.206.514-2.48.512-5.138 1.42-7.45 1.266-3.226 1.871-6.598 2.899-9.865.9-2.861 1.903-5.65 4.971-6.96 2.72.98 5.552 1.7 7.93 3.462z" class="cls-9"/><path d="M154.181 34.612l3.501-3.569c4.193 2.644 5.739 6.888 6.836 11.388a2.385 2.385 0 0 1-.164 1.261q-2.872 8.16-5.782 16.308c-1.095-.977-.158-2.484-.983-3.586-1.724-2.303-1.934-4.998-1.69-7.745.262-2.923-.187-5.485-2.853-7.296-1.236-.84-1.316-1.983-.473-3.351.649-1.053 1.655-2.005 1.608-3.41zM29.9 317.948c-.79-.306-.868-1.098-1.033-1.73a5.676 5.676 0 0 0-4.148-4.026 92.357 92.357 0 0 1 9.67-26.979 5.212 5.212 0 0 1 1.595-2.22c1.989 2.02 1.547 4.505 1.11 6.858a57.73 57.73 0 0 1-2.266 8.241 30.471 30.471 0 0 0-1.342 11.191 5.86 5.86 0 0 0-2.45 3.528c-.457 1.691-.765 3.423-1.137 5.137z" class="cls-14"/><path d="M63.535 267.15c1.432-2.332 3.958-2.107 6.159-2.583a8.15 8.15 0 0 1 2.558-.012 3.994 3.994 0 0 0 3.76-1.5 5.77 5.77 0 0 1 4.745-1.991c1.476.024 2.954-.303 4.436-.388 6.99-.4 13.628 1.285 20.178 3.468-.602 1.874-1.805 3.532-1.994 5.555-1.804-.597-2.622-2.515-4.438-3.196a12.768 12.768 0 0 0-4.917-1.128c-4.667.129-9.384-.411-13.955.939-1.201.355-2.805.275-3.205 2-4.425-.592-8.962.107-13.327-1.165z" class="cls-6"/><path d="M36.468 387.03c1.406 1.944 3.416 2.79 5.636 3.574a54.652 54.652 0 0 0 17.586 2.959c2.985.044 6.206.304 8.261 3.166a6.736 6.736 0 0 1-1.075 2.753c-2.443-.075-4.862-.729-7.345-.049a2.563 2.563 0 0 1-2.474-.91c.23-.494 1.088-.337 1.096-1.132q-7.983 0-15.962.004a7.322 7.322 0 0 1-3.132-.469c-.749-2.053-1.054-4.233-2.907-5.855-1.324-1.159-.126-2.703.316-4.042zm111.159-.013a2.372 2.372 0 0 0-2.512 1.936c-.904 5.466-5.416 8.489-8.316 12.586a17.29 17.29 0 0 0-1.934 3c-1.44 3.276-3.757 4.393-7.148 3.504-1.648-.432-3.265-.985-4.905-1.45a3.04 3.04 0 0 0-1.46-.199c-3.92 1.01-7.508-1.16-11.28-1.147-3.254.011-5.858-2.79-9.234-1.86a9.126 9.126 0 0 1-1.244-3.46c2.182 1.48 4.931 1.444 7.206 2.827 2.05 1.246 4.627.357 6.907 1.012 5.037 1.445 10.336.418 15.442 1.632 2.466.586 4.396-1.452 5.166-3.404a34.232 34.232 0 0 1 8.71-12.218c3.22-3.086 3.708-7.528 4.265-11.776a9.77 9.77 0 0 0 .874-4.292c.543-.094 1.078-.193.418-.867l-.004-.859.44-.858h1.29c-.725 5.327-1.47 10.65-2.68 15.893z" class="cls-14"/><path d="M258.562 97.33c1.424 5.298 1.439 10.733 1.415 16.146a73.372 73.372 0 0 1-1.926 17.21 15.93 15.93 0 0 1-7.61 10.167c-.223-.522-.598-1.03-.431-1.625.751-2.676.259-5.405.361-8.107.047-1.235-.067-2.49-1.649-2.826l-.924-5.594c.578.414.746 1.36 1.688 1.304.009.285.002.572.03.856.085.878-.344 1.98.79 2.45a2.852 2.852 0 0 0 2.619-.538 9.125 9.125 0 0 0 4.422-6.665c.635-3.535-.087-7.11.737-10.617a18.758 18.758 0 0 0 .125-6.748c-.223-1.743-.608-3.67.353-5.412z" class="cls-6"/><path d="M121.519 246.054c-2.277 4.787-4.188 9.746-7.04 14.26a23.862 23.862 0 0 0-2.836 5.935c-1.615.21-2.9-1.382-4.576-.84 3.273-7.483 6.053-15.159 8.855-22.824a1.889 1.889 0 0 1 2.503-1.407c-1.448-.482-1.644-1.332-.914-2.487a23.404 23.404 0 0 1 4.455 4.352l-.02 2.14c-.532.1-1.077.192-.427.87z" class="cls-14"/><path d="M167.058 49.637c.157 3.328-1.43 6.292-2.055 9.463-.652 3.313-1.993 6.512-2.428 9.89a12.172 12.172 0 0 1-3.578 6.855 25.997 25.997 0 0 0-4.828 7.974.955.955 0 0 1-.756.642c2.128-9.695 5.312-19.086 8.17-28.573 1.089-3.615 2-7.285 2.994-10.93.107-.393.127-.902.6-.987.125-.023.35.508.528.785.304 1.668 0 3.504 1.353 4.881zm-45.092 193.406a23.404 23.404 0 0 0-4.455-4.352c2.618-7.429 5.306-14.835 7.808-22.303.637-1.9 1.28-2.1 2.69-.852.685.606 1.445 1.127 2.17 1.687-1.19 1.17-1.242 2.816-1.77 4.262-2.347 6.41-3.425 13.182-5.606 19.639a3.97 3.97 0 0 1-.837 1.92z" class="cls-6"/><path d="M14.263 314.416l12.846-20.333a3.157 3.157 0 0 1-.041 2.704c-2.956 8.333-4.714 17.012-7.282 25.46-.42 1.381-.694 1.529-1.703.602-1.153-1.06-2.354-2.07-3.534-3.1a13.912 13.912 0 0 1 .352-3.614c.21-.607.435-1.472-.638-1.719z" class="cls-13"/><path d="M258.562 97.33c-.961 1.742-.576 3.67-.353 5.413a18.758 18.758 0 0 1-.125 6.748c-.824 3.506-.102 7.082-.737 10.617a9.125 9.125 0 0 1-4.422 6.665 2.852 2.852 0 0 1-2.62.538c-1.133-.47-.704-1.572-.79-2.45-.027-.284-.02-.57-.029-.856-.052-.414-.089-.83-.16-1.24-.452-2.566-2.116-4.736-2.401-7.357a2.53 2.53 0 0 1 .428-.014c.957.126 1.63-1.498 2.705-.48a4.554 4.554 0 0 1 1.168 3.753 7.838 7.838 0 0 1-.3 1.668 1.586 1.586 0 0 0 .919 2.13c.974.326 1.387-.615 1.633-1.318a10.68 10.68 0 0 0 .925-4.918 18.376 18.376 0 0 1 .51-5.907 25.677 25.677 0 0 0 .43-7.607c-.128-1.73.778-3.543 1.257-5.31.166-.613.44-1.198.663-1.796l1.19.465z" class="cls-9"/><path d="M147.594 105.905c1.356 1.092.965 2.77 1.243 4.16.493 2.465 1.839 4.608 2.334 7.044a14.462 14.462 0 0 0 5.578 9.46 11.291 11.291 0 0 0 3.734 3.373c1.287.833 2.17 1.778 1.513 3.486a5.469 5.469 0 0 0-.088 1.683 14.992 14.992 0 0 1-7.09-4.518c-1.378-1.54-2.746-3.094-4.2-4.56-4.713-4.756-5.368-10.467-3.985-16.66a10.85 10.85 0 0 1 .96-3.468zM68.06 370.629c-3.666-.154-6.957-1.677-10.335-2.871a3.693 3.693 0 0 0-2.033-.446l-1.592-.585a2.682 2.682 0 0 0-1.97-2.03 14.145 14.145 0 0 1-10.056-11.109c-.111-.506-.143-1.067-.71-1.189-.676-.144-1.083.397-1.282.916-.4 1.04-.678 2.128-1.007 3.196-.902-1.354-.248-2.876-.465-4.304a.825.825 0 0 0 .433-.86c-.051-.941.89-1.132 1.301-1.725 1.615-.016 2.089 1.382 2.67 2.405 2.295 4.038 5.876 6.659 9.63 9.12 3.524 2.311 7.55 3.62 11.227 5.625.584.318 1.19.588 1.624-.233l2.566 4.09z" class="cls-14"/><path d="M273.037 56.55c2.28.35 2.153 2.205 2.03 3.714a15.1 15.1 0 0 1-1.311 5.917 4.338 4.338 0 0 0-.115 1.657c-3.213 4.602-6.428 9.201-12.063 11.189-.095-.821.476-1.278.946-1.818a26.582 26.582 0 0 0 3.902-6.306c1.824-3.893 1.44-8.199 2.413-12.246l.456-2.133 2.271-.5.772 3.164c.866-.876.512-1.827.7-2.638z" class="cls-9"/><path d="M20.113 359.515c1.409-1.18 2.72-1.71 4.447-.288 1.037.854 2.052.047 2.404-1.165a4.941 4.941 0 0 0 .059-1.92 86.597 86.597 0 0 1 .032-18.345c.346-3.813.385-7.664 1.247-11.426.133-.583.178-1.134.87-1.3-.35 5.484-.714 10.969.956 16.335-.86 2.124-.687 4.402-.902 6.61-.226 2.327.058 4.711-.258 7.019-.409 2.978-1.332 5.806.073 8.87.884 1.932.963 4.233 1.403 6.368-1.437-.244-1.8-1.55-2.274-2.567a9.256 9.256 0 0 0-4.525-4.815c-1.27-.573-1.85-2.243-3.509-2.08l-.023-1.296z" class="cls-14"/><path d="M161.908 135.111a5.469 5.469 0 0 1 .088-1.683c.656-1.708-.226-2.653-1.513-3.486a11.291 11.291 0 0 1-3.734-3.373c1.47-.233 1.996 1.19 3.023 1.741a33.804 33.804 0 0 0 7.714 2.98 7.136 7.136 0 0 0 3.434.866c.676.834 1.107 1.637-.063 2.452a1.662 1.662 0 0 0-.793 1.42c-.627.45-.375 1.121-.436 1.714-1.89 2.876-5.43 3.781-7.593 6.41-.936 1.138-1.45 2.61-2.71 3.478.57-2.867 1.15-5.732 1.709-8.602a2.55 2.55 0 0 1 .978-1.788c.597-.084 1.517.712 1.699.07.365-1.29-1.137-1.492-1.803-2.199zm106.931-76.454c-.973 4.047-.589 8.353-2.413 12.246a26.582 26.582 0 0 1-3.902 6.306c-.47.54-1.04.997-.946 1.818-1.584 1.246-2.017.616-1.93-1.121a137.774 137.774 0 0 0 .32-14.546c-.075-1.346-.967-2.85.706-3.88.096 1.126-.184 2.277.38 3.372a3.842 3.842 0 0 0 3.019 2.14c1.287.173 1.116-1.26 1.71-1.875 1.272-1.316 1.226-3.532 3.056-4.46zM154.181 34.612c.048 1.405-.959 2.357-1.608 3.41-.843 1.368-.763 2.511.473 3.35 2.666 1.812 3.115 4.374 2.854 7.297-.245 2.747-.035 5.442 1.689 7.745.825 1.102-.112 2.609.983 3.586a38.995 38.995 0 0 1-2.447 7.605c-1.554-1.459-2.319-3.322-3.263-5.063.247-.12.661-.189.715-.367.98-3.23 2.603-6.376 1.398-9.919-.16-.468-.465-1.048-.32-1.432 1.194-3.177-.399-4.896-2.756-6.835-3.223-2.65-1.725-8.089 2.282-9.377z" class="cls-6"/><path d="M102.842 408.203c3.128.569 6.176 1.255 8.915 3.076a15.608 15.608 0 0 0 6.049 2.905c1.661.276 2.33 1.874 2.843 3.376a28.023 28.023 0 0 1-7.661-.22c-5.128-1.052-8.342-4.336-10.146-9.137z" class="cls-12"/><path d="M41.498 284.307a2.953 2.953 0 0 1-1.54-2.817 14.795 14.795 0 0 0-.528-2.93c1.846-2.307 3.674-4.604 6.508-5.852a13.598 13.598 0 0 0 2.518-1.883c1.166 1.154 2.629.32 3.927.588a21.576 21.576 0 0 1-4.917 6.59c-2.182 1.916-4.452 3.754-5.968 6.304z" class="cls-11"/><path d="M12.972 319.673a1.717 1.717 0 0 0 .935 1.965c.817.571 1.653 1.117 2.486 1.666 3.1 2.047 3.392 2.655 2.42 6.285-.511 1.908-2.113 1.267-3.12.752-1.257-.643-2.791-.892-3.762-1.508a7.551 7.551 0 0 1-3.127-4.72c-.22-1.474.888-3.372 2.332-4.575l1.836.135z" class="cls-8"/><path d="M214.99 330.197c-3.068 1.31-4.072 4.099-4.971 6.96-1.028 3.267-1.633 6.64-2.9 9.866-.907 2.311-.905 4.969-1.42 7.449-.5 2.417-1.144 4.805-1.725 7.206-2.007-1.15-2.526-3.312-3.345-5.2-.402-.926.31-1.94 1.112-2.608a10.598 10.598 0 0 0 3.763-6.73c.633-3.343 1.562-6.714 2.334-10.08a1.514 1.514 0 0 1 .334-.77c2.153-1.924 3.468-4.438 4.887-6.88a2.834 2.834 0 0 1 1.931.787zM204 362.531c1.137.895 1.693 2.266 2.669 3.279 1.214 1.26 2.264 2.821 4.355 2.787a1.44 1.44 0 0 1 1.07.593c1.911 3.264 5.116 3.495 8.362 3.652a1.35 1.35 0 0 1 1.151.427q-1.298 1.68-2.597 3.358a41.489 41.489 0 0 1-7.725-.224c-1.505-2.84-2.138-6.082-4.193-8.689-1.24-1.573-3-2.9-3.092-5.183z" class="cls-3"/><path d="M95.753 356.943c.576 1.855-1.166 2.737-1.728 4.114a23.992 23.992 0 0 0-1.69 6.523c-.07.644.011 1.327-.903 1.403a87.423 87.423 0 0 1-3.28-16.42 9.985 9.985 0 0 1 6.332 3.738 1.513 1.513 0 0 0 1.269.642z" class="cls-13"/><path d="M268.839 58.657c-1.83.928-1.784 3.144-3.056 4.46-.594.614-.423 2.048-1.71 1.875a3.842 3.842 0 0 1-3.02-2.14c-.563-1.095-.283-2.246-.379-3.372 1.526-3.112 3.285-5.941 7.295-6.056-.15 1.287.965 2.032 1.326 3.1z" class="cls-14"/><path d="M158.445 29.505c2.49-3.288 5.313-3.7 7.36-1.078a4.192 4.192 0 0 1 .586 4.05c-.51 1.668-.163 2.914 1.554 3.667.666.293 1.602.425 1.647 1.45.05 1.13-.935 1.303-1.651 1.71-.672.382-1.484.577-1.805 1.407-1.709-4.323-3.845-8.353-7.691-11.206zm-11.15 139.618c.902-1.721.395-3.694 1.172-5.528 1.414-3.337 4.342-5.598 5.8-8.884.438-.989.6-2.436 2.048-2.784a13.65 13.65 0 0 0-.456 3.153 8.924 8.924 0 0 1-1.524 4.793 25.258 25.258 0 0 0-4.463 10.973z" class="cls-6"/><path d="M87.019 357.7a21.044 21.044 0 0 1-5.47 6.128l-3.558-3.78c.985-.807 1.787-1.98 3.237-.401.776.844 1.562-.132 1.99-.868.64-1.104 1.153-2.283 1.746-3.417.316-.602.446-1.41 1.378-1.426l.677 3.764z" class="cls-14"/><path d="M107.067 265.408c1.676-.541 2.961 1.05 4.576.84-.892 2.564-2.291 4.618-5.028 5.57-1.593.554-2.462.215-2.709-1.484 1.752-1.193 1.929-3.398 3.16-4.926z" class="cls-6"/><path d="M207.339 232.32c-1.574-1.37-3.56-2.53-2.581-5.186.033-.091-.248-.3-.383-.453a43.522 43.522 0 0 0 3.487-7.638 109.993 109.993 0 0 1-.523 13.277z" class="cls-13"/><path d="M248.722 128.295c1.582.337 1.696 1.59 1.65 2.826-.103 2.702.389 5.43-.362 8.107-.167.594.208 1.103.43 1.625-.083.111-.144.26-.254.328-.691.424-1.336 1.521-2.115 1.048-.9-.547-.028-1.532.14-2.3.84-3.852.41-7.753.511-11.634z" class="cls-10"/><path d="M258.454 96.074l-1.19-.465c.197-4.956-.442-9.93.373-14.878.238-1.442-1.147-1.38-1.978-1.774-.485-.23-1.283-.189-1.167-.954.1-.662.819-.34 1.263-.439.756-.167 1.52-.294 2.282-.439l.417 18.95z" class="cls-6"/><path d="M42.919 403.828c-.218-1.982.458-2.482 2.463-1.914 2.858.808 5.75 1.684 8.8 1.45.64-.049 1.132.143 1.206.886-4.182.616-8.352.87-12.47-.422z" class="cls-14"/><path d="M219.01 376.627l2.597-3.358a1.639 1.639 0 0 0 .623-.033c2.015-1.007 4.024-1.962 6.208-.415-2.882 1.915-5.806 3.727-9.428 3.806z" class="cls-6"/><path d="M246.925 115.408c.285 2.62 1.95 4.79 2.4 7.357.072.41.109.826.161 1.24-.942.056-1.11-.89-1.688-1.304a77.93 77.93 0 0 0-4.652-11.18c1.433-.16 1.638 1.053 2.2 1.913a24.584 24.584 0 0 0 1.579 1.974z" class="cls-11"/><path d="M206.436 203.136c1.217.1 1.882-.759 2.651-1.483.648-.61 1.107-1.502 2.145-1.595l-1.642 9.835c-.752-2.487-.803-5.12-3.154-6.757z" class="cls-14"/><path d="M12.972 319.673l-1.836-.135a22.47 22.47 0 0 1 3.127-5.122c1.073.247.848 1.112.638 1.72a13.911 13.911 0 0 0-.352 3.612l-1.577-.075z" class="cls-11"/><path d="M52.383 271.413c-1.298-.268-2.761.566-3.927-.588a16.392 16.392 0 0 1 3.416-2.599c.476.84 1.332.528 2.037.673-.536.821-.64 1.905-1.526 2.514z" class="cls-14"/><path d="M95.753 356.943a1.513 1.513 0 0 1-1.269-.642 9.985 9.985 0 0 0-6.332-3.738l.004-.178a7.059 7.059 0 0 1 7.597 4.558z" class="cls-6"/><path d="M269.295 56.524c-.361-1.068-1.475-1.813-1.326-3.1 1.878-.074 3.394.354 3.597 2.6z" class="cls-11"/><path d="M184.258 145.065l.823-.443a4.92 4.92 0 0 1 1.362 2.547c-1.614.22-2.402-.42-2.185-2.104z" class="cls-14"/><path d="M150.308 371.125h-1.29c.555-.848-.21-2.495 1.572-2.598a5.216 5.216 0 0 1-.282 2.598z" class="cls-6"/><path d="M91.558 369.829l.187.674-.187-.674z" class="cls-13"/><path d="M203.303 199.042c.149.152.256.322.02.467-.044.027-.195-.122-.298-.19q.136-.14.278-.277z" class="cls-12"/><path d="M85.421 307.435a17.969 17.969 0 0 1 4.237-5.11c.615 1.65 1.56.364 2.165.114 7.081-2.919 12.305-.421 14.115 6.94a13.13 13.13 0 0 0 3.48 6.743c1.398 1.32 2.943 2.486 4.423 3.72a6.171 6.171 0 0 1 2.592 5.133c-.126 4.548-2.413 7.971-6.47 9.41-5.107 1.81-10.456.731-13.218-2.688a17.33 17.33 0 0 1-3.604-8.797c-.53-3.916-1.845-5.266-5.781-5.963-2.481-.438-3.578-1.912-3.213-4.408a14.196 14.196 0 0 1 1.321-3.833c.194-.421.651-.867-.047-1.261zm41.693 7.37a3.977 3.977 0 0 1 1.064-3.423 2.527 2.527 0 0 0 .827-.095c3.214-1.58 5.683-1.499 7.84 1.123 3.179 3.868 7.259 6.368 11.436 8.879 2.424 1.457 4.92 3.01 5.84 6.008-.65.04-1.2.365-1.18 1.01.07 2.173-.968 4.225-.854 6.326.175 3.204-1.198 5.18-3.8 6.829-2.68 1.7-4.603 4.072-4.395 7.565-4.834 2.333-11.19.845-10.944-6.714.144-4.424.135-8.853.185-13.28a8.414 8.414 0 0 0-2.795-6.702 7.99 7.99 0 0 1-2.783-6.446c.006-.416.087-.876-.44-1.08z" class="cls-8"/><path d="M150.303 365.54l-3.005-.004c-.104-.095-.216-.28-.31-.271-3.284.327-3.44-3.295-5.563-4.448-.29-.157-.198-.841.079-1.19 2.1-2.65 2.128-5.905 2.665-9.012.758-.395 1.49-.851 2.277-1.176 12.297-5.084 13.061-21.707 4.647-28.009l.07-.592a.964.964 0 0 0 .896-.76c.653-1.882 1.286-3.775 2.052-5.611a51.49 51.49 0 0 1 4.926-9.912c.264-.379.451-1.002 1.108-.77.622.22.384.83.471 1.294.198 1.055-.353 2.006-.21 3.135.338 2.672 1.06 5.294 1.359 7.913a107.345 107.345 0 0 0 4 19.326c-1.23-.225-1.045-1.313-1.386-2.132-.375-.9-.187-2.601-1.545-2.418-1.422.191-1.38 1.756-1.358 2.984a3.268 3.268 0 0 0 .127 1.266c.713 1.534.093 2.856-.75 4.004a60.11 60.11 0 0 0-5.505 9.886 21.143 21.143 0 0 1-4.565 6.392 21.79 21.79 0 0 0-2.99 3.599c-.988 1.454-.586 2.975.752 3.01 5.76.147 11.56.883 17.25-.511 1.578-.387 3.361-1.078 3.407-3.295 1.67.452 3.016 1.737 4.81 1.87.192 1.452-1.845 1.49-1.804 2.847-.593.245-.97.924-1.718.859-.677-.651-.772-.118-.86.425l-1.717.003c-.679-.649-.772-.115-.86.427a86.19 86.19 0 0 1-14.919.435 3.266 3.266 0 0 0-1.83.435z" class="cls-9"/><path d="M121.097 374.56a7.267 7.267 0 0 0 5.669 4.003c2.693.496 5.316 1.37 7.975 2.058 2.293.594 2.678 2.004 1.92 4.214-1.381 4.035-4.358 7.167-5.865 11.104a3.602 3.602 0 0 1-2.771 2.37c-2.05.47-3.643 2.047-5.86 2.397-4.012.632-10.001-2.042-11.86-5.642-1.076-2.083-2.954-2.712-5.1-2.88a7.363 7.363 0 0 1-2.147-6.448c1.328-.23 1.046-1.498 1.177-2.23 1.072-6.018 3.134-8.897 11.518-9.946 2.124-.266 3.581.635 5.344 1zm.378 25.048c1.868-.819 3.997-1.304 5.55-2.523 3.59-2.82 5.8-6.77 7.796-10.824.593-1.204-.067-1.812-.96-1.723-3.74.373-7.269-1.277-10.998-.972-3.043.249-5.533 1.014-6.396 4.44a7.277 7.277 0 0 1-1.794 3.136c-.521.555-1.212 1.367-.693 2.087 1.929 2.675 2.86 6.63 7.495 6.379zm44.289-64.155a107.345 107.345 0 0 1-4-19.326c-.298-2.619-1.02-5.241-1.358-7.913-.143-1.13.408-2.08.21-3.135-.087-.464.151-1.073-.471-1.294-.657-.232-.844.391-1.108.77a51.49 51.49 0 0 0-4.926 9.912c-.765 1.836-1.399 3.73-2.052 5.61a.964.964 0 0 1-.895.76c.097-1.676 1.01-3.095 1.5-4.647 1.494-4.738 3.227-9.402 4.635-14.164.759-2.567 1.031-5.278 1.552-7.918.15-.761.007-2.024 1.226-1.752 1.055.235 1.224 1.479.903 2.346-.802 2.157.415 4.22.103 6.332a.948.948 0 0 0 .683.982 18.924 18.924 0 0 0 1.094 5.888 1.552 1.552 0 0 0-.167 2.37c.68.59 1.182-.247 1.48-.907 2.46 2.162 5.496 1.997 8.467 2.095a47.153 47.153 0 0 0-3.451 18.283 5.338 5.338 0 0 1-.23 1.465 4.665 4.665 0 0 0 .31 3.528l-.073 2.449-.058.09.054.094c-1.085.625-.978 1.972-1.703 2.815-1.387-1.281-1.551-3.01-1.725-4.733zm-21.594 15.162c-.538 3.107-.566 6.362-2.666 9.012-.277.349-.368 1.033-.08 1.19 2.125 1.153 2.28 4.774 5.565 4.448.093-.01.205.176.309.271a2.036 2.036 0 0 1-2.398.247c-2.686-1.231-5.613-1.213-8.416-1.82-.793-.172-1.372.297-2.072.285-.303-1.324-1.375-1.272-2.368-1.283-2.214-.025-4.432-.082-6.641.018-1.502.068-2.053-.633-1.671-1.912 1.043-3.496 2.255-6.957 5.57-9.036 1.492-.935 2.536-2.553 4.411-2.894a8.512 8.512 0 0 0 3.517 1.862c2.384.672 4.642-.014 6.94-.388z" class="cls-10"/><path d="M184.644 239.23c1.547 3.433 3.149 6.851 3.227 10.726.13 6.523-1.314 12.424-6.638 16.788-4.265 2.481-8.684 4.278-13.797 3.516a8.981 8.981 0 0 1-6.828-4.57c-3.142-5.275-4.733-5.764-10.485-3.704-.873.313-1.73.67-2.597.999-5.327 2.02-8.19.219-8.47-5.326 1.243-9.591 4.777-17.991 12.769-23.945 3.216-2.395 6.686-4.32 10.96-3.956a31.296 31.296 0 0 0 3.411-.068l2.535.205a40.556 40.556 0 0 1 10.348 3.774 29.251 29.251 0 0 1 5.565 5.56zm-12.419 29.523c4.992-.644 9.197-2.795 11.78-7.174 3.317-5.621 3.758-15.86-1.433-21.998a9.723 9.723 0 0 0-3.251-3.617c-4.167-3.307-8.983-4.527-14.186-4.546-4.596-.017-9.232-.076-13.013 3.165a36.853 36.853 0 0 0-4.262 4.22 32.958 32.958 0 0 0-7.614 19.199c-.268 3.593 1.421 4.938 5.024 4.451 1.946-.262 3.63-1.27 5.447-1.899 5.173-1.789 7.622-.948 10.468 3.664 2.654 4.3 6.128 5.728 11.04 4.535zM30.128 341.406c-1.67-5.366-1.306-10.851-.956-16.336q.365-3.561.727-7.122c.372-1.714.68-3.446 1.137-5.136a5.86 5.86 0 0 1 2.45-3.528c4.11-1.916 7.79-1.08 11.065 1.846a70.959 70.959 0 0 1 4.726 4.661 16.42 16.42 0 0 0 14.128 5.66 18.056 18.056 0 0 1 3.197-.03c2.38.214 4.317 1.058 5.492 3.415 2.554 5.122 2.14 10.203.143 15.327-.336.862-.73 1.702-1.097 2.551-2.975 4.535-7.53 6.438-12.6 6.84-4.658.371-8.534-1.781-11.665-5.243-.845-.933-1.47-2.13-2.792-2.547-2.14-1.485-3.039-1.295-5.574 1.177-3.489 3.401-5.211 3.208-7.863-.876-.152-.233-.344-.44-.518-.66zm-.283-11.728c0 1.576-.027 3.152.007 4.727a15.564 15.564 0 0 0 1.36 6.886c1.768 3.484 3.629 3.793 6.417 1.07.307-.3.606-.61.929-.891 2.441-2.126 4.426-2.12 6.823.052 1.271 1.152 2.582 2.275 3.738 3.537 3.938 4.299 13.993 3.484 17.58.425 5.457-4.652 7.406-13.348 4.246-19.769a4.448 4.448 0 0 0-4.421-2.765c-1.717.039-3.435.018-5.152.053a15.844 15.844 0 0 1-11.487-4.476c-1.937-1.805-3.77-3.72-5.662-5.574a9.874 9.874 0 0 0-5.711-3.18c-4.038-.458-6.75.564-7.411 4.759a99.618 99.618 0 0 0-1.256 15.146z" class="cls-1"/><path d="M103.058 385.736a7.363 7.363 0 0 0 2.147 6.448c.087 2.322 1.367 4.124 2.547 5.987a1.765 1.765 0 0 0 1.788.886 13.977 13.977 0 0 1 6.61 1.473c3.964 1.754 7.908 1.234 11.913.424a4.611 4.611 0 0 0 3.416-2.642q2.846-5.951 5.64-11.928c2.586-5.54 5.765-10.623 10.84-14.263a1.698 1.698 0 0 1 .619-.139l.004.86a.866.866 0 0 0-.418.866 9.77 9.77 0 0 1-.874 4.292c-3.843 1.67-6.981 3.983-8.42 8.206-1.5 4.4-4.007 8.353-5.945 12.547-1.575 3.408-3.882 3.54-7.053 3.883-6.497.701-12.47-1.435-18.66-2.397-2.297-.357-3.804-3.402-4.13-6.144-.41-3.447-.345-3.528-3.677-4.032-1.733-.263-2.35-1.036-2.415-2.823-.121-3.251.746-5.725 3.986-7.004a3.58 3.58 0 0 0 2.252-2.692c.505-2.86 1.783-5.584 1.554-8.574 1.63.84.85 2.25.627 3.353-.898 4.453-2.354 8.802-2.35 13.413z" class="cls-11"/><path d="M52.383 271.413c.885-.609.99-1.693 1.526-2.514 1.688-2.504 4.169-2.335 6.687-1.948a7.09 7.09 0 0 0 2.94.198c4.364 1.272 8.901.573 13.326 1.165 1.948.408 3.892.84 5.847 1.218 2.784.539 5.285 1.399 5.808 4.715a8.031 8.031 0 0 1-3.798 8.203c-.603.369-1.232.695-1.85 1.041-5.332.747-10.755.311-16.076 1.254a14.066 14.066 0 0 0-8.625 4.725 12.804 12.804 0 0 1-7.992 4.524c-4.766.095-8.222-2.69-8.74-7.045l.019-1.793.043-.849c1.516-2.55 3.786-4.388 5.968-6.304a21.576 21.576 0 0 0 4.917-6.59zm34.88 4.174c.022-2.711-.69-3.73-3.281-4.536-4.886-1.52-9.962-1.75-15.006-2.235-2.609-.25-5.295-.027-7.816-.827-3.005-.954-4.342-.761-5.926 2.063a44.892 44.892 0 0 1-10.193 12.323c-1.983 1.687-2.693 3.654-1.594 6.092 1.123 2.49 2.993 4.021 5.804 4.017a9.525 9.525 0 0 0 7.504-3.542c3.035-3.587 6.982-5.284 11.528-5.952 3.635-.534 7.281-.248 10.92-.391 5.115-.202 8.025-2.765 8.06-7.012zm56.907 75.028c-2.298.374-4.556 1.06-6.94.388a8.512 8.512 0 0 1-3.517-1.862c-1.794-2.659-2.156-5.612-2.024-8.75.171-4.052.188-8.113.152-12.169a6.803 6.803 0 0 0-2.319-5.108 7.643 7.643 0 0 1-2.408-8.31c.528.205.447.665.441 1.081a7.99 7.99 0 0 0 2.783 6.446 8.414 8.414 0 0 1 2.795 6.703c-.05 4.426-.041 8.855-.185 13.28-.245 7.558 6.11 9.046 10.944 6.712 10.07-2.745 13.888-12.58 10.23-21.73-.92-2.997-3.417-4.55-5.841-6.007-4.177-2.511-8.257-5.011-11.437-8.879-2.156-2.622-4.625-2.702-7.84-1.123a2.527 2.527 0 0 1-.826.095c1.94-3.272 6.263-3.562 9.138-.19 3.844 4.508 8.703 7.477 13.777 10.238 8.414 6.302 7.65 22.925-4.647 28.009-.787.325-1.52.78-2.277 1.176zm-58.749-43.18c.698.394.24.84.047 1.261a14.196 14.196 0 0 0-1.32 3.833c-.366 2.496.73 3.97 3.212 4.408 3.936.697 5.252 2.047 5.78 5.963a17.33 17.33 0 0 0 3.605 8.797c2.762 3.42 8.11 4.498 13.219 2.688 4.056-1.439 6.343-4.862 6.47-9.41a6.171 6.171 0 0 0-2.593-5.133c-1.48-1.234-3.025-2.4-4.423-3.72a13.13 13.13 0 0 1-3.48-6.743c-1.81-7.361-7.034-9.859-14.115-6.94-.605.25-1.55 1.536-2.165-.114.316-.608 1.203-.119 1.492-.777a17.662 17.662 0 0 1 6.01-1.357c4.885.113 8.358 2.439 9.32 7.234 1.09 5.425 4.147 9.103 8.622 11.911 5.605 4.799.639 14.84-5.146 16.26-8.784 2.154-14.934-1.075-17.235-9.855a16.92 16.92 0 0 1-.561-2.503c-.328-3.158-1.793-5.062-5.162-5.416a4.023 4.023 0 0 1-3.846-3.92 5.077 5.077 0 0 1 .165-1.69c.44-1.703.8-3.452 2.104-4.777zm87.219 4.027c-2.97-.098-6.006.067-8.467-2.095l-1.313-1.463a18.924 18.924 0 0 1-1.094-5.888c.92-3.468 1.533-7.075 4.361-9.682l.756.049a16.72 16.72 0 0 0-4.067 9.925c-.3 4.818 2.095 7.673 6.825 7.95a14.243 14.243 0 0 0 5.501-.469 58.528 58.528 0 0 0 13.564-6.683 10.652 10.652 0 0 0 4.044-12.127c-1.203-3.096-5.986-5.72-9.896-4.828-4.632 1.057-9.134 2.683-13.692 4.062l-.377-.892a3.347 3.347 0 0 1 2.158-1.177c2.495-.445 5.03-.818 7.28-2.126 4.871-1.825 9.475-1.438 13.747 1.671 4.252 4.816 2.49 11.671-1.31 14.832a42.785 42.785 0 0 1-18.02 8.94zm-36.543-26.302c.133-1.482 1.472-1.68 2.433-2.266.657-.402 1.356-.735 2.036-1.1 1.573.003 3.079-.588 4.678-.452 2.643.225 5.152 1.83 5.774 3.806.655 2.078-.367 4.633-2.582 6.36a10.637 10.637 0 0 1-3.344 1.885 48.246 48.246 0 0 0-11.804 5.96c-3.992 2.58-6.446 2.47-9.611-.005a11.607 11.607 0 0 1-.712-8.113c1.046-3.588 3.428-5.622 7.156-5.41a12.475 12.475 0 0 0 6.007-.695c.18 1.002.067 1.69-1.25 1.654-1.853-.051-3.71.02-5.565.076a5.067 5.067 0 0 0-4.087 2.026 9.147 9.147 0 0 0-1.194 8.552 3.64 3.64 0 0 0 3.464 2.445c2.379.203 4.312-.853 6.13-2.146a40.361 40.361 0 0 1 10.253-5.247 12.546 12.546 0 0 0 3.258-1.58c2.138-1.525 3.134-3.428 2.64-5.18-.507-1.8-2.579-3.075-5.144-3.116-.563-.01-1.127.158-1.694.19-2.506.137-4.427 1.963-6.842 2.355z" class="cls-1"/><path d="M104.776 368.115c-1.911-1.594-3.59-3.347-6.04-4.403-1.49-.643-1.765-3.186-2.11-5.061.637.004 1.275-.03 1.907.02 5.305.423 8.032 4.557 6.243 9.444z" class="cls-11"/><path d="M166.883 292.383l-.756-.05c.538-1.312 2.05-1.763 2.658-3.013q.188.447.378.89a3.924 3.924 0 0 1-2.28 2.173z" class="cls-8"/><path d="M41.455 285.156l-.02 1.793c-.867-.607-1.052-1.207.02-1.793z" class="cls-11"/><path d="M254.678 58.664c-.564 2.2-.761 4.521-2.147 6.446-2.116-.878-3.378-2.932-5.423-3.923-1.505-.73-2.833-1.94-4.7-1.583l-2.357-2.44-.037-.164-.164-.036c-1.8-2.18-3.055-2.266-5.612-.388-3.126-1.764-6.372-.875-9.532-.27-3.982.765-7.85 1.932-10.99 4.748a4.974 4.974 0 0 1-1.558.62c.013-1.662-.933-2.19-2.448-2.156-1.76.04-3.522.003-5.283 0-.329-1.917-1.419-2.626-3.393-2.63-2.052-.003-4.036.464-6.067.496l-1.713.001.003-1.702c4.068.255 7.888-1.396 11.93-1.535a2.915 2.915 0 0 0 2.948-3.605c6.503-3.043 13.506-4.211 20.519-5.063 3.28-.398 6.587.729 9.749 1.83a23.527 23.527 0 0 1 9.138 6.096 21.923 21.923 0 0 0 7.137 5.258z" class="cls-9"/><path d="M189.822 82.724c-.936 1.684-.375 3.511-.477 5.271a18.434 18.434 0 0 1-.43 4.895c-.817 2.462-2.361 3.46-4.77 2.683-1.548-.5-1.415-2.512-.928-3.181 1.286-1.767.236-2.852-.53-4.138-.503-.84-1.02-1.673-1.53-2.509-.063-2.199 1.55-3.385 2.883-4.724 1.055-1.059 1.745-2.005-.185-2.893-.382-.177-1.086-.835-.746-1.12 1.464-1.227.257-2.299-.038-3.407-1.035-3.897-.977-7.53 2.409-10.37l-1.74-2.16c2.386-.056 4.399.836 6.516 1.007.22.35.553.298.886.248l.812.12c5.31.893 10.567.333 16.014-.583-2.141.819-2.662 2.2-1.866 4.115l-.054 1.673a30.051 30.051 0 0 1-9.183 18.532c-.31.295-.604.607-.923.89-.329.292-.729.57-1.132.227-.453-.385-.094-.813.16-1.11.787-.918 1.638-1.783 2.44-2.69.419-.475 1.076-.975.936-1.6-.185-.825-1.078-.389-1.647-.523-1.316-.31-2.66-.498-3.976-.809-1.856-.438-2.923.104-2.9 2.156zm-2.964-5.58c-.224 1.69 2.226.937 2.303 2.356-.82.5-1.93-.983-2.296.25-.376 1.266-1.387 1.767-2.147 2.55-2.408 2.483-2.496 2.784-.601 5.609.88 1.312 1.42 2.634.738 4.202-.365.838-1.01 1.825.212 2.389 1.264.582 1.997-.35 2.486-1.367a11.069 11.069 0 0 0 .888-5.22 17.708 17.708 0 0 1 1.01-6.696c.602-1.66 1.484-2.08 3.18-1.755 1.666.318 3.356 1.022 5.148.305a8.65 8.65 0 0 0-5.699-1.416c-2.215.28-3.056-.455-3.026-2.545a20.405 20.405 0 0 1 1.353-4.26c.34-.585.576-.979 1.43-.376 2.469 1.74 4.18.893 4.313-2.098.05-1.12.378-1.474 1.505-1.445a7.122 7.122 0 0 1 6.187 3.175 15.25 15.25 0 0 0 1.084-5.107c.109-1.522-.286-2.135-1.995-1.883-4.604.68-9.227.954-13.794-.342a1.731 1.731 0 0 0-1.564.447 8.665 8.665 0 0 0-.715 13.227zm21.277-26.601a2.915 2.915 0 0 1-2.947 3.605c-4.043.14-7.863 1.79-11.93 1.535-1.539-1.124-1.367-2.698-.658-4.028a5.722 5.722 0 0 1 4.093-2.943 13.322 13.322 0 0 1 6.772-1.14c2.094.07 3.905.737 4.67 2.97zm-12.818 4.023a70.632 70.632 0 0 1 9.75-1.881 1.505 1.505 0 0 0 1.456-1.566 1.585 1.585 0 0 0-1.331-1.48c-2.41-.748-4.849-1.257-7.33-.335a8.613 8.613 0 0 0-3.802 2.68 1.955 1.955 0 0 0-.334 2.013c.216.552.778.537 1.59.57z" class="cls-1"/><path d="M206.102 65.978c-.796-1.916-.275-3.296 1.866-4.115-5.447.916-10.704 1.476-16.014.583l.024-2.054c5.106-.002 10.212.033 15.317-.027 1.84-.022 2.88.573 2.699 2.57-1.812.355-3.455.926-3.892 3.043z" class="cls-6"/><path d="M209.994 62.934c.182-1.996-.858-2.59-2.699-2.57-5.105.06-10.211.026-15.317.028.812-.838.784-2.033 1.276-3.007l1.713-.001c.057.755.615.818 1.196.902 2.756.4 5.51.82 8.264 1.231 1.761.004 3.523.04 5.283.001 1.515-.034 2.46.494 2.448 2.156l-.87 1.276-1.294-.016zm-39.93 73.095a1.662 1.662 0 0 1 .793-1.421c1.17-.815.739-1.618.063-2.452.717-.803 1.23-.238 1.737.27.558.558.142.982-.185 1.46-.629.92-1.117 1.975-2.408 2.143z" class="cls-11"/><path d="M191.142 62.326c-.333.05-.666.103-.886-.248.48-.577.723-.308.886.248z" class="cls-14"/><path d="M228.918 84.437l-.05-.836c.518-5.324.542-10.713 2.09-15.929 3.05 5.064 7.311 8.26 13.325 8.787a5.41 5.41 0 0 1 .44.675c-1.937 1.678-.89 3.973-1.247 5.967a20.794 20.794 0 0 1-2.112 6.468 25.051 25.051 0 0 1-7.677-.753c.908 1.487 2.36 1.473 3.729 1.57a4.243 4.243 0 0 1 2.969.953c-1.375 1.031-2.705-.094-4.06-.083-.24-.408-.592-.404-.981-.266l-.836.05c-.493-.055-.986-.122-1.48-.161-2.445-.194-2.452-.19-1.878 2.214a24.052 24.052 0 0 1 .685 2.69c.109.925.998 1.864.067 2.817a.986.986 0 0 1-.968-.796 59.832 59.832 0 0 1-2.016-13.367zm1.384-3.23c.855-1.242 1.598-.964 2.324-.1a2.313 2.313 0 0 0 2.912.572 1.846 1.846 0 0 0 1.037-2.32c-.291-1.482.472-1.254 1.463-1.04 1.72.372 2.84 1.496 4.016 3.153.183-1.574 1.353-3.143-.583-3.697a16.328 16.328 0 0 1-10.147-7.947c-.677 4.067-1.413 7.509-1.022 11.378z" class="cls-1"/><path d="M189.822 82.724c-.022-2.052 1.045-2.594 2.901-2.156 1.316.311 2.66.499 3.976.809.57.134 1.462-.302 1.647.522.14.626-.517 1.127-.936 1.6-.802.908-1.653 1.773-2.44 2.692-.255.296-.613.724-.16 1.109.403.343.803.065 1.132-.226.32-.283.613-.596.923-.89a30.051 30.051 0 0 0 9.183-18.533c.676.557 1.072 1.575 2.222 1.358.282 4.181-1.668 7.762-3.18 11.43a21.418 21.418 0 0 1-4.535 7.446 17.24 17.24 0 0 1-3.572 3.258c-1.081.734-1.83.891-2.593-.715-1.012-2.133-1.491-3.91.485-5.684.768-.69.283-.977-.471-1.28a10.248 10.248 0 0 0-4.582-.74zm54.461-6.265c-6.014-.527-10.275-3.723-13.325-8.787-1.548 5.216-1.572 10.605-2.09 15.929-.589-.5-.393-1.184-.394-1.803-.007-4.5.005-9 .012-13.5a3.176 3.176 0 0 1 .02-.853c.378-1.3.026-3.072 1.811-3.537 1.745-.454 2.467 1.018 3.34 2.13 2.414 3.072 5.597 5.232 8.794 7.372 1.09.729 2.177 1.458 1.832 3.049z" class="cls-6"/><path d="M234.238 56.576c2.557-1.878 3.812-1.792 5.612.388a4.094 4.094 0 0 1-1.026-.16 2.58 2.58 0 0 0-3.07.808c-.884.951-.113 1.879.445 2.686 1.399 2.027 3.443 3.396 5.237 5.019a1.062 1.062 0 0 0 1.365.245c.484-.349.317-.91.183-1.383-.174-.615-.45-1.202-.627-1.817-.53-1.84-2.074-3.228-2.306-5.198l2.358 2.44c.62 1.489 1.307 2.955 1.839 4.475a2.213 2.213 0 0 1-.493 2.73 2.081 2.081 0 0 1-2.909-.238c-2.082-2.06-4.834-3.411-6.299-6.137a4.513 4.513 0 0 1-.309-3.858z" class="cls-1"/><path d="M224.61 93.905a54.182 54.182 0 0 0-8.958-.42c-1.702.081-3.396.308-5.098.407-1.086.063-2.395.127-2.217-1.498.18-1.64 1.428-1.405 2.59-1.13a4.711 4.711 0 0 0 .854.048 2.834 2.834 0 0 0 2.181.269c3.606-.413 7.232-.668 10.651 1.018l-.002 1.306z" class="cls-2"/><path d="M224.61 93.905l.003-1.306c.902-.33 2.144 1.254 2.636-.07.541-1.456-1.394-1.149-2.011-1.874.124-.07.257-.212.37-.197 3.487.447 2.886-1.981 2.873-4.034-.004-.679-.244-1.445.437-1.987a59.834 59.834 0 0 0 2.016 13.367l-6.323-3.9z" class="cls-6"/><path d="M225.238 90.655c.617.725 2.552.418 2.01 1.874-.491 1.324-1.733-.26-2.635.07-3.42-1.686-7.045-1.431-10.651-1.018a2.834 2.834 0 0 1-2.18-.269c1.275-1.27 2.997-1.04 4.54-1.23a24.483 24.483 0 0 1 8.916.573z" class="cls-1"/><path d="M231.902 98.6c.931-.953.042-1.892-.067-2.818a24.052 24.052 0 0 0-.685-2.69c-.575-2.402-.567-2.407 1.878-2.213.494.039.987.106 1.48.16a41.545 41.545 0 0 1-.091 4.887c-.175 1.36-.474 2.925-2.515 2.674z" class="cls-6"/><path d="M208.27 69.009c-1.15.217-1.546-.8-2.222-1.358l.054-1.673c.437-2.117 2.08-2.688 3.892-3.044l1.294.016c-.166 1.655-1.651 2.53-2.293 3.896a18.712 18.712 0 0 0-.725 2.163z" class="cls-9"/><path d="M240.385 91.339a4.243 4.243 0 0 0-2.97-.953c-1.367-.097-2.82-.083-3.728-1.57a25.051 25.051 0 0 0 7.677.753c.413.251.847.475 1.234.762.495.369.363.83.11 1.293-.35.642-.767.442-1.174.092a1.557 1.557 0 0 0-1.15-.377z" class="cls-7"/><path d="M235.344 90.99c.389-.138.74-.142.982.266a.944.944 0 0 1-.982-.266z" class="cls-6"/><path d="M220.14 148.009c-2.477 1.135-4.79-.101-6.98-.8a21.999 21.999 0 0 1-12.149-8.89 15.571 15.571 0 0 0-3.155-4.006c-.4-.314-.848-.614-.443-1.207.356-.52.797-.44 1.31-.199a12.98 12.98 0 0 0 4.718 1.25c1.13.406 2.163.813 1.493 2.404-.453 1.074.202 1.909.896 2.67a22.822 22.822 0 0 0 12.36 7.134c.883.189 2.165.076 1.95 1.644zm-15.069-31.857c-2.592-2.75-2.608-3.42-.14-6.082a19.963 19.963 0 0 1 6.106-.722 3.238 3.238 0 0 1 3.493 2.787 3.378 3.378 0 0 1-1.719 3.998 7.75 7.75 0 0 1-7.74.02zm4.127-.301a15.541 15.541 0 0 0 1.85-.435c1.45-.525 2.657-1.41 2.212-3.133-.416-1.614-1.824-2.15-3.37-1.997a10.496 10.496 0 0 0-2.654.773c-1.03.396-2.419.595-2.378 2.06.043 1.564 1.372 2.017 2.636 2.376.543.155 1.107.234 1.704.356zm32.39 4.418c-.09 1.213-.365 2.672-1.895 3.297-1.643.67-2.885-.222-3.945-1.408a11.102 11.102 0 0 1-2.137-4.848c-.381-1.47 1.211-2.79 3.049-2.773 2.707.025 4.922 2.48 4.928 5.732zm-1.42-.363a3.931 3.931 0 0 0-2.425-3.735c-.72-.332-1.567-.66-2.221-.12-.64.53-.17 1.34-.008 2.006a6.214 6.214 0 0 0 1.174 2.946c.623.677 1.24 1.578 2.299 1.215 1.02-.35 1.075-1.403 1.181-2.312z" class="cls-1"/><path d="M179.079 233.669a40.556 40.556 0 0 0-10.348-3.774c1.61-5.02 3.87-9.635 8.018-13.11 1.442-1.21 2.424-1.015 3.317.741 1.374 2.7.517 5.433.147 8.156-.362 2.665-.755 5.325-1.134 7.987z" class="cls-3"/><path d="M199.7 292.902c-.053-9.037.27-18.062.861-27.08 1.936 1.588 2.209 3.996 2.93 6.147 1.115 3.328 2.187 6.684 3.005 10.093.613 2.558.17 5.238-.087 7.816a28.451 28.451 0 0 0-.332 5.199c.617 7.895-.88 15.556-2.988 23.12a1.412 1.412 0 0 1-.824.923c-.913-.115-.91-.811-.837-1.45a14.793 14.793 0 0 0-.56-4.855 5.153 5.153 0 0 1 1.104-4.345c.244-.349.528-.67.764-1.024 2.06-3.087.115-12.383-3.036-14.544z" class="cls-11"/><path d="M172.208 362.955c-.04-1.357 1.996-1.395 1.804-2.848 3.835.223 5.901-1.988 7.171-5.253a7.689 7.689 0 0 1 7.3-5.323 6.609 6.609 0 0 0 5.62-2.91c.98.102.98.98 1.355 1.608.586.985-.037 2.239.806 3.123l-.01 3.44-5.063 4.445a1.786 1.786 0 0 0-.506 1.569 2.817 2.817 0 0 1-1.296 1.299c-.27.075-.611.07-.798.237-2.448 2.2-5.068 2.195-8.117 1.226-2.622-.832-5.34-2.981-8.266-.613z" class="cls-10"/><path d="M196.264 351.352c-.843-.884-.22-2.138-.806-3.123-.374-.628-.375-1.506-1.354-1.609a19.157 19.157 0 0 0 .339-6.657c2.194-2.199 2.124-5.337 2.479-7.943a108.753 108.753 0 0 0 1.488-15.908c1.585-1.131.862-2.517.427-3.87v-3.439c1.185-.202.844-1.146.848-1.856.024-4.682.014-9.363.015-14.045 3.151 2.16 5.095 11.457 3.036 14.544-.236.354-.52.675-.764 1.024a5.153 5.153 0 0 0-1.104 4.345 14.793 14.793 0 0 1 .56 4.855c-.074.639-.076 1.335.837 1.45.243 3.317-.25 6.35-2.882 8.766-1.006.923-.666 2.263-.254 3.415a9.156 9.156 0 0 1-1.18 8.708 8.211 8.211 0 0 0-1.288 4.425c-.105 2.306.51 4.66-.397 6.918z" class="cls-3"/><path d="M172.208 362.955c2.927-2.368 5.644-.22 8.266.613 3.05.969 5.669.974 8.117-1.226.187-.167.528-.162.798-.237-1.745 3.843-5.355 5.148-9.99 3.785a21.157 21.157 0 0 0-9.766-.621c-3.956.731-7.989 1.092-11.874 2.263a6.226 6.226 0 0 1-4.696-.951c-1.639-.906-2.344-.518-2.77 1.106-1.799-.725-.142-1.433.01-2.148a3.267 3.267 0 0 1 1.831-.435 86.202 86.202 0 0 0 14.918-.435.86.86 0 0 0 .861-.427l1.716-.003a.86.86 0 0 0 .861-.425c.748.065 1.125-.614 1.718-.859zm18.477-2.149a1.786 1.786 0 0 1 .506-1.569q2.528-2.226 5.062-4.445c-.57 3.196-3.249 4.438-5.568 6.014zm9.448-111.746a4.899 4.899 0 0 1-.025-4.296 4.768 4.768 0 0 1 .025 4.297zm-.027-6.43c-1.12-.176-.766-1.057-.83-1.738 1.146.165.776 1.053.83 1.739zm-.831-3.025c-.56-.42-.554-.85-.022-1.288.564.42.568.85.022 1.288zm-.861-4.727c-.511-.31-.422-.816-.425-1.292.9.18 1.118.586.425 1.292zm2.144 20.63l-.001-1.286c.438.06.846.17.774.743-.055.444-.427.486-.773.543zm-1.31-18.465a.785.785 0 0 1-.828-.88.766.766 0 0 1 .828.88z" class="cls-11"/><path d="M190.17 367.604c.079-.198.218-.356.41-.192.06.052-.06.316-.097.484a3.83 3.83 0 0 1-.313-.292zm35.652-1.005c1.363-2.57 3.899-3.814 5.918-5.779-.166 2.504-3.281 5.504-5.918 5.779z" class="cls-1"/><path d="M156.749 126.569a14.462 14.462 0 0 1-5.578-9.46c.477.047.69.322.89.765 1.172 2.585 2.242 5.238 4.317 7.292a1.79 1.79 0 0 1 .37 1.403z" class="cls-6"/><path d="M182.097 102.73c-.28 1.184-.229 2.958-1.843 4.036a2.153 2.153 0 0 1-2.78.021c-.794-.733-.581-1.694.067-2.543.788-1.033 1.02-2.44 2.303-3.157 1.965-1.098 2.15-1.03 2.253 1.644zm-.977-.458c-1.455.346-1.898 1.52-2.504 2.528-.228.38-.312.824.121 1.129a.905.905 0 0 0 1.153-.17 3.408 3.408 0 0 0 1.23-3.487z" class="cls-1"/><path d="M198.41 316.112a108.753 108.753 0 0 1-1.488 15.908c-.355 2.606-.285 5.744-2.48 7.943-.275-.798-.566-1.59-.823-2.394a7.19 7.19 0 0 0-5.28-5.076 20.102 20.102 0 0 0-13.354.76 19.09 19.09 0 0 1-5.716 1.485 4.665 4.665 0 0 1-.31-3.528 5.338 5.338 0 0 0 .23-1.466 47.153 47.153 0 0 1 3.451-18.283 42.785 42.785 0 0 0 18.02-8.94c3.8-3.16 5.562-10.016 1.31-14.832a20.268 20.268 0 0 0 2.045-11.566c-.848-6.022.33-11.754 1.394-17.555a1.614 1.614 0 0 1 .056-.423c.407-.794.259-2.304 1.188-2.288 1.105.02.689 1.445.94 2.278 1.593 5.3 1.283 10.742 1.22 16.156-.028 2.415-.477 4.81-.447 7.248.023 1.796.313 3.544.472 5.314.186 2.077-.684 4.066-.747 6.035-.16 5.053.514 10.115.361 15.19-.007.237.25.483.385.725v3.438c-.857 1.212-.24 2.585-.427 3.87z" class="cls-9"/><path d="M121.519 246.054c-.65-.68-.105-.772.427-.87a.856.856 0 0 1-.427.87z" class="cls-6"/><path d="M30.128 341.406c.174.219.366.426.518.66 2.652 4.083 4.374 4.276 7.863.875 2.535-2.472 3.435-2.662 5.574-1.177-1.056.665-1.144 1.903-1.622 2.887-.787 1.615-1.056 3.462-2.117 4.972-.41.592-1.352.783-1.3 1.724-.53.093-1.064.183-.434.86.217 1.428-.437 2.95.465 4.304 1.107 4.806 4.69 7.687 8.277 10.52a59.524 59.524 0 0 0 5.313 3.578 3.146 3.146 0 0 1 1.542 1.928 59.34 59.34 0 0 0 5.52 13.614c-.203.055-.467.048-.602.176-3.406 3.225-6.915 3.253-10.54.146-3.55-3.043-7.252-5.913-10.535-9.262-.6-.612-1.284-1.164-1.134-2.163a8.543 8.543 0 0 0 4.421-3.771c1.47-2.214 1.623-4.488.082-6.096-1.893-1.977-4.043-3.754-7.152-3.113-.575.035-1.601.49-1.305.656 1.506.847-.033 1.332-.116 1.916-.065.456-.379.885-.262 1.395a8.636 8.636 0 0 0-1.13 4.667l-.596.015-.414-.444c-.44-2.135-.519-4.436-1.403-6.368-1.405-3.064-.482-5.892-.073-8.87.316-2.308.032-4.692.258-7.019.215-2.208.042-4.486.902-6.61z" class="cls-2"/><path d="M65.176 362.204l1.335-.976c.68 1.074 1.204.155 1.703-.177 5.223-3.48 11.205.372 12.55 4.577.553 1.727.139 2.844-1.689 3.142a27.808 27.808 0 0 0-5.09 1.557c-3.127 1.147-5.152.367-6.853-2.504a19.21 19.21 0 0 1-1.956-5.62z" class="cls-8"/><path d="M65.176 362.204a19.21 19.21 0 0 0 1.956 5.62c1.701 2.87 3.726 3.65 6.853 2.503a27.808 27.808 0 0 1 5.09-1.557c1.828-.298 2.242-1.415 1.69-3.142-1.346-4.205-7.328-8.057-12.551-4.577-.498.332-1.024 1.251-1.703.177 3.245-3.085 6.612-3.432 11.48-1.18l3.558 3.78c.188.759.427 1.509.555 2.277.386 2.315-.292 3.237-2.58 3.798a20.888 20.888 0 0 0-4.482 1.344 6.11 6.11 0 0 1-6.982-.618l-2.565-4.09c.031-1.455-1.33-2.808-.319-4.335zm-26.117 34.722a7.322 7.322 0 0 0 3.132.47q7.98-.014 15.962-.005c-.008.795-.867.638-1.096 1.132a11.412 11.412 0 0 1-2.448.7 60.227 60.227 0 0 1-16.79-1.25c-.319-.072-.709-.149-.74-.662.563-.574 1.355-.1 1.98-.385zm75.891 11.988a78.491 78.491 0 0 1 17.035 4.143c-5.667-.605-11.695.368-17.036-4.143zm-25.306-17.788c-2.982 1.43-3.403 1.44-5.632.098 1.972-.728 3.824.041 5.632-.098zm-58.19-20.424a8.631 8.631 0 0 1 1.13-4.666c-.01 1.562-.121 3.131-.006 4.684a3.095 3.095 0 0 0 4.212 2.9c1.99-.589 4.278-3.423 4.351-5.39.064-1.711-1.455-3.47-3.824-4.387a26.026 26.026 0 0 0-2.422-.813c-.539-.15-.602-.523-.628-.962 3.109-.641 5.259 1.136 7.152 3.113 1.541 1.608 1.388 3.882-.082 6.096a8.543 8.543 0 0 1-4.421 3.771c-3.762-.24-4.57-.884-5.461-4.346z" class="cls-1"/><path d="M148.164 373.708a.866.866 0 0 1 .418-.867c.66.674.125.773-.418.867z" class="cls-6"/><path d="M38.61 352.207c-.63-.677-.096-.767.433-.86a.826.826 0 0 1-.433.86z" class="cls-11"/><path d="M154.121 327.297c3.66 9.15-.158 18.984-10.229 21.73-.208-3.493 1.715-5.865 4.396-7.565 2.6-1.65 3.974-3.625 3.8-6.829-.115-2.101.923-4.153.854-6.326-.021-.645.529-.97 1.18-1.01z" class="cls-12"/><path d="M165.764 335.453c.174 1.724.338 3.452 1.725 4.733l.087.91c-2.107 5.966-2.36 11.755 1.626 17.142-.046 2.217-1.829 2.908-3.407 3.295-5.689 1.394-11.49.658-17.25.51-1.338-.034-1.74-1.555-.753-3.01a21.79 21.79 0 0 1 2.991-3.598 21.143 21.143 0 0 0 4.565-6.392 60.11 60.11 0 0 1 5.506-9.886c.842-1.148 1.462-2.47.75-4.005a3.268 3.268 0 0 1-.128-1.265c-.022-1.228-.064-2.793 1.358-2.984 1.358-.183 1.17 1.518 1.545 2.418.34.819.157 1.907 1.385 2.132z" class="cls-4"/><path d="M169.202 358.238c-3.986-5.387-3.733-11.176-1.626-17.141l.18.015.165-.076c-.091.492-.186.982-.273 1.474-.668 3.82-1.185 7.637.223 11.415 1.186 3.184 3.688 4.669 6.876 4.99 2.828.284 4.344-1.65 5.234-3.947 1.71-4.417 4.936-6.363 9.526-6.655 2.588-.164 3.596-1.426 3.766-4.057a16.608 16.608 0 0 0 .003-3c-.362-3.051-.957-6.198-4.27-7.317a19.312 19.312 0 0 0-8.657-.874c-3.103.393-5.765 2.133-8.813 2.547a2.832 2.832 0 0 0-2.34 1.575l.073-2.449a19.09 19.09 0 0 0 5.716-1.484 20.102 20.102 0 0 1 13.353-.76 7.19 7.19 0 0 1 5.28 5.075c.258.803.55 1.596.825 2.394a19.159 19.159 0 0 1-.34 6.657 6.609 6.609 0 0 1-5.62 2.911 7.689 7.689 0 0 0-7.3 5.323c-1.27 3.265-3.336 5.476-7.17 5.253-1.795-.132-3.141-1.417-4.81-1.87z" class="cls-1"/><path d="M167.913 364.242a.86.86 0 0 1-.86.427c.088-.542.182-1.076.86-.427zm2.577-.428a.86.86 0 0 1-.86.425c.089-.543.183-1.076.86-.425z" class="cls-10"/><path d="M121.475 399.608c-4.635.252-5.566-3.704-7.495-6.379-.52-.72.172-1.532.693-2.087a7.277 7.277 0 0 0 1.794-3.135c.863-3.427 3.353-4.192 6.396-4.441 3.729-.305 7.257 1.346 10.998.972.893-.09 1.553.52.96 1.723-1.997 4.055-4.206 8.005-7.796 10.824-1.553 1.22-3.682 1.704-5.55 2.523z" class="cls-4"/><path fill="#c18f51" d="M169.196 337.187a2.832 2.832 0 0 1 2.34-1.575c3.048-.414 5.71-2.154 8.813-2.547a19.312 19.312 0 0 1 8.657.874c3.313 1.119 3.909 4.266 4.27 7.317a16.608 16.608 0 0 1-.003 3c-.17 2.631-1.178 3.893-3.766 4.057-4.59.292-7.817 2.238-9.526 6.655-.89 2.297-2.406 4.23-5.234 3.946-3.188-.32-5.69-1.805-6.876-4.989-1.408-3.778-.89-7.595-.222-11.415.086-.492.18-.983.272-1.474a5.089 5.089 0 0 0 1.27-3.665l-.053-.093z"/><path d="M162.86 307.904l1.313 1.463c-.298.66-.8 1.496-1.48.907a1.552 1.552 0 0 1 .167-2.37z" class="cls-11"/><path d="M169.192 337.371a5.089 5.089 0 0 1-1.271 3.665l-.165.076-.18-.015-.087-.911c.725-.843.618-2.19 1.703-2.815zm3.033-68.618c-4.912 1.193-8.386-.234-11.04-4.535-2.846-4.612-5.295-5.453-10.468-3.664-1.817.628-3.501 1.637-5.447 1.9-3.603.486-5.292-.86-5.024-4.452a32.958 32.958 0 0 1 7.614-19.2 36.853 36.853 0 0 1 4.262-4.22c3.78-3.24 8.417-3.181 13.013-3.164 5.203.02 10.02 1.239 14.186 4.546a9.722 9.722 0 0 1 3.25 3.617 1.356 1.356 0 0 0-1.36 1.358c-.257 2.036-.58 4.063-.837 6.098a15.534 15.534 0 0 1-2.365 7.375 36.834 36.834 0 0 0-5.784 14.341z" class="cls-8"/><path d="M172.225 268.753a36.834 36.834 0 0 1 5.784-14.341 15.534 15.534 0 0 0 2.365-7.375c.256-2.035.58-4.062.836-6.098a1.356 1.356 0 0 1 1.362-1.358c5.191 6.137 4.75 16.377 1.433 21.998-2.583 4.38-6.788 6.53-11.78 7.174z" class="cls-12"/><path d="M29.845 329.678a99.618 99.618 0 0 1 1.256-15.146c.661-4.195 3.373-5.217 7.41-4.76a9.874 9.874 0 0 1 5.712 3.18c1.891 1.855 3.725 3.77 5.662 5.575a15.844 15.844 0 0 0 11.487 4.476c1.717-.035 3.435-.014 5.152-.054a4.448 4.448 0 0 1 4.42 2.766c3.16 6.421 1.212 15.117-4.245 19.77-3.587 3.058-13.642 3.873-17.58-.426-1.156-1.262-2.467-2.385-3.738-3.537-2.397-2.172-4.382-2.178-6.823-.052-.323.281-.622.592-.93.892-2.787 2.722-4.648 2.413-6.416-1.071a15.564 15.564 0 0 1-1.36-6.886c-.034-1.575-.007-3.151-.007-4.727zm57.418-54.091c-.035 4.247-2.945 6.81-8.06 7.011-3.639.144-7.285-.142-10.92.392-4.546.668-8.493 2.365-11.528 5.952a9.525 9.525 0 0 1-7.504 3.542c-2.81.004-4.681-1.528-5.804-4.017-1.1-2.438-.389-4.405 1.594-6.092a44.892 44.892 0 0 0 10.193-12.323c1.584-2.824 2.92-3.017 5.926-2.063 2.521.8 5.207.576 7.816.827 5.044.485 10.12.715 15.006 2.235 2.59.805 3.303 1.825 3.281 4.536z" class="cls-8"/><path d="M166.883 292.383a3.924 3.924 0 0 0 2.28-2.172c4.557-1.377 9.06-3.003 13.69-4.06 3.911-.892 8.694 1.732 9.897 4.828a10.652 10.652 0 0 1-4.044 12.127 58.528 58.528 0 0 1-13.564 6.683 14.243 14.243 0 0 1-5.5.469c-4.731-.277-7.126-3.132-6.826-7.95a16.72 16.72 0 0 1 4.067-9.925z" class="cls-12"/><path d="M136.097 285.16c2.415-.393 4.336-2.22 6.842-2.357.567-.03 1.13-.199 1.694-.19 2.565.042 4.637 1.316 5.144 3.117.494 1.752-.503 3.655-2.64 5.18a12.546 12.546 0 0 1-3.258 1.58 40.361 40.361 0 0 0-10.252 5.247c-1.82 1.293-3.752 2.349-6.132 2.146a3.64 3.64 0 0 1-3.464-2.445 9.147 9.147 0 0 1 1.195-8.552 5.067 5.067 0 0 1 4.087-2.026c1.854-.055 3.712-.127 5.565-.076 1.317.037 1.43-.652 1.25-1.654z" class="cls-8"/><path d="M240.051 57.164c.232 1.97 1.777 3.357 2.306 5.198.177.615.453 1.202.627 1.817.134.472.301 1.034-.183 1.383a1.062 1.062 0 0 1-1.365-.245c-1.794-1.623-3.838-2.992-5.237-5.019-.558-.807-1.33-1.735-.446-2.686a2.58 2.58 0 0 1 3.07-.808 4.094 4.094 0 0 0 1.027.16l.164.036z" class="cls-12"/><path d="M204.427 59.517c-2.754-.412-5.508-.83-8.264-1.231-.58-.084-1.139-.147-1.196-.902 2.03-.032 4.015-.5 6.067-.495 1.974.003 3.064.712 3.393 2.628z" class="cls-2"/><path d="M186.858 77.144a8.665 8.665 0 0 1 .715-13.227 1.731 1.731 0 0 1 1.564-.447c4.567 1.296 9.19 1.022 13.794.342 1.709-.252 2.104.36 1.995 1.883a15.25 15.25 0 0 1-1.084 5.107 7.122 7.122 0 0 0-6.187-3.175c-1.127-.03-1.456.325-1.505 1.445-.134 2.991-1.844 3.838-4.312 2.098-.855-.603-1.091-.209-1.43.376a20.402 20.402 0 0 0-1.353 4.26c-.667.553-.61 2.295-2.197 1.338z" class="cls-16"/><path d="M186.858 77.144c1.586.957 1.53-.785 2.197-1.338-.03 2.09.81 2.825 3.025 2.545a8.65 8.65 0 0 1 5.698 1.416c-1.79.717-3.481.013-5.146-.305-1.697-.325-2.579.096-3.182 1.755a17.708 17.708 0 0 0-1.01 6.696 11.069 11.069 0 0 1-.887 5.22c-.489 1.017-1.222 1.95-2.486 1.367-1.222-.564-.577-1.551-.212-2.39.682-1.567.141-2.89-.738-4.201-1.895-2.825-1.807-3.126.601-5.609.76-.783 1.77-1.284 2.147-2.55.367-1.233 1.475.25 2.296-.25-.077-1.419-2.527-.667-2.303-2.356z" class="cls-7"/><path d="M195.317 54.566c-.813-.032-1.374-.017-1.59-.569a1.955 1.955 0 0 1 .333-2.013 8.613 8.613 0 0 1 3.802-2.68c2.481-.922 4.92-.413 7.33.335a1.585 1.585 0 0 1 1.331 1.48 1.505 1.505 0 0 1-1.456 1.566 70.632 70.632 0 0 0-9.75 1.881z" class="cls-12"/><path d="M230.302 81.206c-.39-3.869.345-7.31 1.022-11.379a16.328 16.328 0 0 0 10.147 7.948c1.936.555.766 2.123.583 3.697-1.175-1.657-2.296-2.781-4.016-3.153-.991-.214-1.754-.442-1.463 1.04a1.846 1.846 0 0 1-1.037 2.32 2.313 2.313 0 0 1-2.912-.572c-.726-.864-1.47-1.142-2.324.1z" class="cls-16"/><path d="M209.198 115.85c-.597-.121-1.161-.2-1.704-.355-1.264-.36-2.593-.812-2.636-2.376-.04-1.465 1.348-1.664 2.378-2.06a10.496 10.496 0 0 1 2.654-.773c1.546-.153 2.954.383 3.37 1.997.445 1.723-.762 2.608-2.212 3.133a15.541 15.541 0 0 1-1.85.435zm30.97 4.056c-.106.909-.162 1.961-1.181 2.312-1.059.363-1.676-.538-2.299-1.215a6.214 6.214 0 0 1-1.174-2.946c-.162-.665-.632-1.477.008-2.005.654-.541 1.502-.213 2.221.119a3.931 3.931 0 0 1 2.425 3.735z" class="cls-12"/><path d="M198.41 316.112c.187-1.286-.43-2.66.427-3.87.435 1.353 1.158 2.739-.427 3.87z" class="cls-10"/><path d="M181.12 102.272a3.408 3.408 0 0 1-1.23 3.488.905.905 0 0 1-1.153.169c-.433-.305-.35-.748-.12-1.13.605-1.007 1.048-2.181 2.503-2.527z" class="cls-7"/><path d="M34.267 362.068c.026.439.09.812.628.962.82.228 1.628.505 2.422.813 2.37.916 3.888 2.676 3.824 4.387-.073 1.967-2.36 4.801-4.351 5.39a3.095 3.095 0 0 1-4.212-2.9c-.115-1.553-.004-3.122.006-4.684-.117-.511.197-.94.262-1.396.083-.584 1.622-1.07.116-1.916-.296-.166.73-.62 1.305-.656z" class="cls-8"/></svg>