<svg xmlns="http://www.w3.org/2000/svg" width="70.057" height="46.705"><path d="M67.138 0H10.7a2.922 2.922 0 0 0-2.919 2.919v.973H2.919A2.919 2.919 0 0 0 0 6.811v34.056A5.838 5.838 0 0 0 5.838 46.7h61.3a2.922 2.922 0 0 0 2.919-2.919V2.919A2.922 2.922 0 0 0 67.138 0zM3.892 40.867V7.784h3.892v33.083a1.946 1.946 0 0 1-3.892 0zm62.273 1.946H11.343a5.826 5.826 0 0 0 .334-1.946V3.892h54.488zM17.028 31.137h20.433a1.46 1.46 0 0 0 1.46-1.46V9.244a1.46 1.46 0 0 0-1.46-1.46H17.028a1.46 1.46 0 0 0-1.46 1.46v20.433a1.46 1.46 0 0 0 1.46 1.46zm2.433-19.46h15.568v15.567H19.46zm-3.892 25.785v-.973a1.46 1.46 0 0 1 1.46-1.46h20.432a1.46 1.46 0 0 1 1.46 1.46v.973a1.46 1.46 0 0 1-1.46 1.46H17.028a1.46 1.46 0 0 1-1.46-1.461zm27.244 0v-.973a1.46 1.46 0 0 1 1.46-1.46h16.541a1.46 1.46 0 0 1 1.46 1.46v.973a1.46 1.46 0 0 1-1.46 1.46H44.272a1.46 1.46 0 0 1-1.459-1.461zm0-7.784V28.7a1.46 1.46 0 0 1 1.46-1.46h16.541a1.46 1.46 0 0 1 1.46 1.46v.973a1.46 1.46 0 0 1-1.46 1.46H44.272a1.46 1.46 0 0 1-1.459-1.456zm0-15.568v-.973a1.46 1.46 0 0 1 1.46-1.46h16.541a1.46 1.46 0 0 1 1.46 1.46v.973a1.46 1.46 0 0 1-1.46 1.46H44.272a1.46 1.46 0 0 1-1.459-1.461zm0 7.784v-.974a1.46 1.46 0 0 1 1.46-1.46h16.541a1.46 1.46 0 0 1 1.46 1.46v.973a1.46 1.46 0 0 1-1.46 1.46H44.272a1.46 1.46 0 0 1-1.459-1.46z" fill="currentColor"/></svg>