<svg id="Layer_1" data-name="Layer 1" xmlns="http://www.w3.org/2000/svg" viewBox="0 0 1040 640"><defs><style>.cls-1{fill:#231f20;}.cls-2{fill:#446ca9;}.cls-3{fill:#76c4d5;}</style></defs><path class="cls-1" d="M222.42781,481.6181a20.15752,20.15752,0,0,0,16.46382-7.97085l8.75788,9.02087Q237.22766,494.404,223.08528,494.402q-14.14334,0-23.29377-8.93193-9.1543-8.93387-9.15237-22.54928a30.47387,30.47387,0,0,1,9.3264-22.72525,31.4167,31.4167,0,0,1,22.81421-9.10791,32.33369,32.33369,0,0,1,25.21977,11.47285l-8.4949,9.63386q-6.48-8.05788-16.11188-8.05786a18.774,18.774,0,0,0-13.18034,5.03545q-5.47635,5.03835-5.47247,13.57483,0,8.53938,5.16694,13.70439A17.04382,17.04382,0,0,0,222.42781,481.6181Z"/><path class="cls-1" d="M258.42043,493.702V432.48961h13.66183v49.03953H298.178V493.702Z"/><path class="cls-1" d="M357.99038,485.25158a33.35258,33.35258,0,0,1-45.71349,0,32.03128,32.03128,0,0,1,0-45.09858,33.35258,33.35258,0,0,1,45.71349,0,32.03125,32.03125,0,0,1,0,45.09855Zm-4.641-22.50673a20.03,20.03,0,0,0-5.2559-13.96738,17.32011,17.32011,0,0,0-25.83277.002,21.12778,21.12778,0,0,0,0,27.89027,17.4139,17.4139,0,0,0,25.8347,0,19.87889,19.87889,0,0,0,5.252-13.92289Z"/><path class="cls-1" d="M395.03108,477.89565a11.18336,11.18336,0,0,0,9.193,4.24843,11.06356,11.06356,0,0,0,9.1543-4.24843q3.36762-4.24648,3.37245-11.60241V432.49156h13.65991v34.2387q0,13.31376-7.354,20.44733-7.35883,7.13838-18.83264,7.13548-11.469,0-18.86939-7.178-7.40235-7.179-7.40042-20.40478V432.48961h13.66185v33.80168Q391.61612,473.65013,395.03108,477.89565Z"/><path class="cls-1" d="M491.3601,440.503q8.754,8.01144,8.7579,22.28628,0,14.27384-8.53938,22.59377-8.53645,8.32185-26.05319,8.31894H444.59467V432.48961h21.63265q16.37392,0,25.13275,8.0134Zm-10.02836,36.38514q5.03542-4.728,5.03545-13.74885,0-9.018-5.03545-13.87842-5.03543-4.86139-15.45442-4.86143H458.2584V481.618h8.66894q9.36892,0,14.40632-4.72992Z"/><path class="cls-1" d="M577.8812,432.48961h13.66185V493.702H577.8812l-29.16073-38.35565V493.702H535.05863V432.48958h12.78391l30.03863,39.40759V432.48958Z"/><path class="cls-1" d="M650.21451,493.702l-5.69292-13.22288H618.86092l-5.689,13.22288H598.634l26.4477-61.21239h13.221L664.75231,493.702h-14.5378Zm-18.47685-42.99661-7.70786,17.77682h15.32678Z"/><path class="cls-1" d="M693.3,444.31247V493.702H679.6382V444.31247H662.29841V432.48961h48.33951v11.82286Z"/><path class="cls-1" d="M720.61984,432.48961h13.66184V493.702H720.61984Z"/><path class="cls-1" d="M771.93735,471.46018l15.5859-38.97057H802.326L777.71725,493.702H766.15933l-24.61062-61.21239h14.80274Z"/><path class="cls-1" d="M853.72854,432.48961v12.17286H823.25285v12.60988h27.41067v11.64688H823.25474v12.69884h31.43671v12.08584H809.591V432.48958h44.13753Z"/><path class="cls-1" d="M206.76649,545.83551a11.30052,11.30052,0,0,0,9.22779-4.46693l4.90975,5.05478Q215.05931,553.002,207.1339,553a17.90457,17.90457,0,0,1-13.05658-5.00837,18.13373,18.13373,0,0,1,.09669-25.37641,17.61228,17.61228,0,0,1,12.78779-5.10505,18.127,18.127,0,0,1,14.13754,6.43161l-4.76086,5.399a11.16114,11.16114,0,0,0-9.03247-4.5172,10.5211,10.5211,0,0,0-7.38687,2.82326,9.82984,9.82984,0,0,0-3.06884,7.60925,10.37258,10.37258,0,0,0,2.89674,7.68079,9.54728,9.54728,0,0,0,7.01946,2.89866Z"/><path class="cls-1" d="M255.06733,547.8698a18.686,18.686,0,0,1-25.62393,0,17.9555,17.9555,0,0,1,0-25.2778,18.69116,18.69116,0,0,1,25.62393,0,17.95315,17.95315,0,0,1,.00193,25.2778Zm-2.60088-12.61374a11.24094,11.24094,0,0,0-2.94508-7.83164,9.715,9.715,0,0,0-14.48174.00195,11.847,11.847,0,0,0,0,15.63423,9.76378,9.76378,0,0,0,14.48174,0A11.1381,11.1381,0,0,0,252.46645,535.25606Z"/><path class="cls-1" d="M297.47994,531.00763,288.20187,549.761h-4.56361l-9.22972-18.75144v21.59981H266.751V518.29524H277.108l8.83717,18.85006,8.88551-18.85006h10.30681v34.31412h-7.65759V531.00763Z"/><path class="cls-1" d="M337.21626,521.36409q3.60836,3.06884,3.60834,9.425,0,6.35522-3.705,9.30126-3.707,2.947-11.31428,2.94507h-4.56555v9.572h-7.65759V518.29521h12.12451q7.90123,0,11.5096,3.06885Zm-5.61943,13.49941a6.61039,6.61039,0,0,0,1.373-4.5172q0-2.9673-1.79064-4.21942-1.79258-1.25309-5.57109-1.255H321.2378v11.53667h5.15534Q330.22194,536.40855,331.59683,534.8635Z"/><path class="cls-1" d="M355.89422,543.749a6.27389,6.27389,0,0,0,5.15533,2.37848,6.208,6.208,0,0,0,5.1302-2.37848,10.20054,10.20054,0,0,0,1.88926-6.50508V518.29524h7.65759v19.19425q0,7.46325-4.12273,11.46125a15.91191,15.91191,0,0,1-21.13186-.02319q-4.14788-4.026-4.14981-11.438V518.29527h7.65759v18.94867a10.10274,10.10274,0,0,0,1.9144,6.50508Z"/><path class="cls-1" d="M398.2082,524.92216v27.6872h-7.65759v-27.6872h-9.719v-6.62692h27.09743v6.62692Z"/><path class="cls-1" d="M413.52338,518.29524h7.65952v34.31412h-7.65759V518.29524Z"/><path class="cls-1" d="M453.629,518.29524h7.65761v34.31412H453.629l-16.34779-21.50312v21.50312h-7.6576V518.29524H436.792l16.837,22.091Z"/><path class="cls-1" d="M492.01561,535.13422h7.70594v12.17286Q494.61651,553.001,485.584,553a17.44238,17.44238,0,0,1-12.68916-5.00837,16.908,16.908,0,0,1-5.1302-12.637,17.0815,17.0815,0,0,1,5.22881-12.73945,17.39725,17.39725,0,0,1,12.61569-5.10505,18.66382,18.66382,0,0,1,12.83614,4.85947l-3.97576,5.7432a15.29229,15.29229,0,0,0-4.24648-2.773,11.39745,11.39745,0,0,0-4.1962-.76,10.04621,10.04621,0,0,0-7.36367,2.96829,11.8585,11.8585,0,0,0-.12377,15.611,9.26983,9.26983,0,0,0,6.8493,2.91993,13.17169,13.17169,0,0,0,6.62691-1.5199Z"/><path class="cls-1" d="M543.06624,518.29524v6.72553h-15.903v7.412h15.11988v6.72553H527.16126v13.451h-7.65761V518.29521h23.56256Z"/><path class="cls-1" d="M578.4091,547.8698a18.68355,18.68355,0,0,1-25.622,0,17.946,17.946,0,0,1,0-25.2778,18.68872,18.68872,0,0,1,25.622,0,17.9555,17.9555,0,0,1,0,25.2778Zm-2.60087-12.61374a11.24093,11.24093,0,0,0-2.94507-7.83164,9.715,9.715,0,0,0-14.48174.00195,11.847,11.847,0,0,0,0,15.63423,9.76378,9.76378,0,0,0,14.48174,0A11.1381,11.1381,0,0,0,575.80823,535.25606Z"/><path class="cls-1" d="M599.17356,543.749a6.279,6.279,0,0,0,5.15534,2.37848,6.208,6.208,0,0,0,5.1302-2.37848,10.2006,10.2006,0,0,0,1.88927-6.50508V518.29524h7.6576v19.19425q0,7.46325-4.12273,11.46125a15.91188,15.91188,0,0,1-21.13184-.02319q-4.15077-4.026-4.14979-11.438V518.29527h7.65952v18.94867a10.10268,10.10268,0,0,0,1.91441,6.50508Z"/><path class="cls-1" d="M650.96285,518.29524h7.65761v34.31412h-7.65761l-16.34778-21.50312v21.50312h-7.65761V518.29524h7.16641l16.83895,22.091v-22.091Z"/><path class="cls-1" d="M693.27685,522.78731q4.905,4.493,4.90781,12.49194,0,8.00565-4.786,12.666-4.786,4.66418-14.60358,4.66417H667.06119V518.29527h12.1245q9.18327,0,14.0911,4.49207Zm-5.62139,20.3951q2.82227-2.64823,2.82324-7.70594,0-5.05573-2.82324-7.78135-2.82519-2.72079-8.665-2.72463h-4.26971v20.865h4.85948Q684.83028,545.83548,687.65546,543.18241Z"/><path class="cls-1" d="M728.27747,552.60745l-3.19065-7.41008h-14.3831l-3.19065,7.412h-8.14874l14.82593-34.31412h7.412l14.8221,34.31412h-8.14685Zm-10.35706-24.10209-4.32,9.96649h8.58962l-4.2697-9.96649Z"/><path class="cls-1" d="M752.4298,524.92216v27.6872h-7.65757v-27.6872h-9.7209v-6.62692h27.09743v6.62692Z"/><path class="cls-1" d="M767.74112,518.29524h7.65952v34.31412h-7.65758V518.29524Z"/><path class="cls-1" d="M812.70819,547.8698a18.686,18.686,0,0,1-25.62394,0,17.94609,17.94609,0,0,1,0-25.2778,18.69118,18.69118,0,0,1,25.62394,0,17.9555,17.9555,0,0,1,0,25.2778Zm-2.60282-12.61374a11.232,11.232,0,0,0-2.9451-7.83164,9.715,9.715,0,0,0-14.48171.00195,11.84693,11.84693,0,0,0,0,15.63423,9.76374,9.76374,0,0,0,14.48171,0A11.12956,11.12956,0,0,0,810.10537,535.25606Z"/><path class="cls-1" d="M848.3953,518.29524h7.65758v34.31412H848.3953l-16.34781-21.50312v21.50312h-7.65758V518.29524h7.16641l16.839,22.091Z"/><path class="cls-2" d="M414.95629,275.75458H371.92875V376.13671H472.307V333.113H414.95629Z"/><path class="cls-2" d="M630.04758,276.07558V333.113H573.00626l-.31518-.31714v43.3408H673.06936V275.75458H629.72661Z"/><path class="cls-2" d="M371.92875,175.38986h43.34854l-.321-.33067V118.0198h57.0355l.31519.321V75H371.92873Z"/><path class="cls-2" d="M572.69105,75v43.0198h57.35651v57.37H673.0693V75Z"/><path class="cls-3" d="M567.37909,175.38986,510.0129,118.0198h62.67815V75H472.307v43.3408l57.04519,57.04906Z"/><path class="cls-3" d="M515.64586,275.75458H477.62475l47.52735,47.53314,9.83306,9.8253H472.307v43.02366H572.69108v-43.3408l-28.52646-28.52452Z"/><path class="cls-3" d="M630.04758,175.38986v62.66463l-9.82919-9.83111L572.69105,180.6999v38.025l28.51486,28.511,28.52064,28.51873H673.0693V175.38986Z"/><path class="cls-3" d="M472.307,232.4099l-57.02972-57.02H371.92875V275.75458h43.02754V213.08416L472.307,270.43487Z"/></svg>