<svg width="588" height="131" fill="none" xmlns="http://www.w3.org/2000/svg"><path d="M542.88 81.425h2.068l-1.034-2.51-1.034 2.51zm-36.322-.609v-.022c0-1.327-.979-2.432-2.357-2.432-1.378 0-2.335 1.083-2.335 2.41v.022c0 1.327.979 2.433 2.357 2.433 1.378 0 2.335-1.084 2.335-2.41zm15.31-2.355h-1.323v4.666h1.323c1.4 0 2.345-.94 2.345-2.31v-.023c0-1.371-.945-2.333-2.345-2.333z" fill="#427AF4"/><path d="M587.818 76.148l-9.969-43.068a7.693 7.693 0 0 0-4.183-5.16L533.332 8.762a8.113 8.113 0 0 0-3.749-.757 7.49 7.49 0 0 0-2.96.757l-40.335 19.183a7.803 7.803 0 0 0-2.674 2.114 7.748 7.748 0 0 0-1.509 3.047l-9.914 43.068a7.522 7.522 0 0 0 1.059 5.836c.13.21.275.408.435.595l27.922 34.53a7.835 7.835 0 0 0 2.693 2.103 7.875 7.875 0 0 0 3.337.761h44.762a7.878 7.878 0 0 0 3.337-.761 7.835 7.835 0 0 0 2.693-2.103l27.922-34.53a7.77 7.77 0 0 0 1.467-6.458zm-81.431 38.935l-19.469-24.058-10.028-12.391 1.802-7.797 3.411-14.758h-4.93l4.945-21.644h4.989l.294-1.274 42.59-20.238 42.589 20.238.295 1.274h4.189l5.934 21.644h-5.117l3.413 14.758 1.797 7.77-10.39 12.872-19.053 23.604h-47.261z" fill="#427AF4"/><path d="M507.12 113.633h45.741l17.908-22.164 1.932.01 10.39-12.872-1.797-7.77h-1.642l-3.411-14.758h6.757l-5.934-21.644h-5.827l-.026-.116-41.22-19.56-41.22 19.586-.021.09h-6.632l-4.945 21.644h6.573l-3.411 14.757h-1.643l-1.802 7.798 10.028 12.39 1.931.011 18.271 22.598zm44.979-1.595h-44.191L490.92 91.046l77.79.412-16.611 20.58zm-63.174-28.811c.889 0 1.434-.354 2.045-.907l1.089 1.095c-.8.851-1.689 1.382-3.19 1.382a3.94 3.94 0 0 1-2.796-1.1 3.9 3.9 0 0 1-1.195-2.88v-.023a3.924 3.924 0 0 1 1.109-2.802 3.963 3.963 0 0 1 2.949-1.201c1.467 0 2.345.487 3.068 1.194l-1.09 1.25c-.6-.542-1.211-.874-1.989-.874-1.312 0-2.257 1.084-2.257 2.41v.023c0 1.327.923 2.433 2.257 2.433zm10.372-.11v1.547h-5.591v-7.74h1.712v6.192h3.879zm.78-2.3v-.023c0-2.2 1.745-4.003 4.146-4.003s4.124 1.78 4.124 3.98v.023c0 2.2-1.745 4.003-4.146 4.003s-4.124-1.78-4.124-3.98zm13.341 2.399c1.045 0 1.678-.63 1.678-1.858v-4.434h1.712v4.367c0 2.345-1.323 3.495-3.413 3.495-2.089 0-3.368-1.161-3.368-3.44v-4.422h1.712v4.378c0 1.261.634 1.914 1.679 1.914zm5.415 1.448v-7.74h3.034c2.446 0 4.136 1.67 4.136 3.848v.022c0 2.178-1.69 3.87-4.136 3.87h-3.034zm12.585 0v-7.74h1.578l3.647 4.765v-4.765h1.689v7.74h-1.456l-3.769-4.92v4.92h-1.689zm16.566-6.17v-1.57h6.447v1.57h-2.367v6.17h-1.712v-6.17h-2.368zm.077 6.17h-1.79l-.712-1.736h-3.29l-.711 1.736h-1.746l3.335-7.796h1.579l3.335 7.796zm8.039 0v-7.74h1.712v7.74H556.1zm3.269-7.74h1.89l2.034 5.451 2.034-5.451h1.845l-3.145 7.795h-1.512l-3.146-7.795zm14.653 3.085v1.515h-3.669v1.625h4.224v1.515h-5.925v-7.74h5.87v1.515h-4.169v1.57h3.669zm-8.205-31.892c-.236-.1-.54-.269-.979-.437-.303-.134-.607-.268-.877-.402a4.98 4.98 0 0 1-.675-.504 1.777 1.777 0 0 1-.439-.672 2.948 2.948 0 0 1-.135-.973 2.065 2.065 0 0 1 .776-1.713c.507-.436 1.249-.637 2.127-.637a8.37 8.37 0 0 1 1.316.1c.344.064.682.154 1.013.269l-.372 1.712a4.215 4.215 0 0 0-.776-.235 4.38 4.38 0 0 0-.979-.1c-.675 0-1.012.167-1.012.57a.452.452 0 0 0 .202.437c.135.067.236.134.371.201.187.09.378.169.574.235.4.14.785.32 1.148.537.263.155.502.347.709.571.18.188.308.42.371.672.073.273.107.556.101.839a2.012 2.012 0 0 1-.81 1.712c-.574.403-1.35.571-2.363.571a7.618 7.618 0 0 1-1.653-.134 6.019 6.019 0 0 1-.945-.269l.371-1.78c.352.174.727.298 1.114.37.367.067.74.1 1.113.1.274.014.548-.02.811-.1a.479.479 0 0 0 .236-.47c0-.202-.135-.336-.338-.47zm-35.853-31.58l37.703 17.898h-75.353l37.65-17.899zm31.33 31.043l-4.792-.067a1.316 1.316 0 0 0 .607 1.074c.338.269.81.403 1.418.403.385.001.769-.033 1.147-.1.325-.052.643-.142.945-.27l.27 1.78a3.667 3.667 0 0 1-.472.168c-.203.034-.405.1-.641.134-.237.034-.507.067-.743.1a5.99 5.99 0 0 1-.776.035 4.662 4.662 0 0 1-1.755-.336 3.217 3.217 0 0 1-1.958-2.082 4.698 4.698 0 0 1-.236-1.578 4.777 4.777 0 0 1 .337-1.78c.164-.475.429-.91.777-1.275a3.293 3.293 0 0 1 1.147-.773 3.52 3.52 0 0 1 1.317-.234c1.046 0 1.89.335 2.497 1.007.608.671.945 1.678.945 2.954v.437c0 .168-.034.302-.034.403zm-8.066-4.566v1.813h-2.532v2.686c-.008.382.073.761.237 1.108.168.268.472.402.945.402.237-.004.474-.026.708-.067.218-.04.432-.096.642-.168l.27 1.713c-.271.119-.554.21-.844.268a5.604 5.604 0 0 1-1.148.101 3.577 3.577 0 0 1-1.417-.235 2.543 2.543 0 0 1-.878-.671 2.664 2.664 0 0 1-.472-1.041 5.277 5.277 0 0 1-.135-1.343v-6.447l2.092-.369v2.25h2.532zm-10.43 5.573c.338.269.81.403 1.418.403a6.35 6.35 0 0 0 1.148-.1c.324-.052.642-.142.945-.27l.27 1.78a3.735 3.735 0 0 1-.473.168c-.202.034-.405.1-.641.134s-.507.067-.743.1a5.99 5.99 0 0 1-.776.035 4.666 4.666 0 0 1-1.755-.336 3.217 3.217 0 0 1-1.958-2.082 4.698 4.698 0 0 1-.236-1.578 4.797 4.797 0 0 1 .337-1.78 3.35 3.35 0 0 1 1.924-2.047 3.52 3.52 0 0 1 1.317-.236c1.046 0 1.89.336 2.497 1.008.608.671.945 1.678.945 2.954v.437a2.7 2.7 0 0 1-.033.336h-4.793a1.316 1.316 0 0 0 .607 1.074zm-6.716-3.425c-.203-.302-.507-.436-1.013-.436-.135 0-.27.033-.472.033a1.948 1.948 0 0 0-.473.034v5.91h-2.093v-7.387c.338-.101.81-.168 1.384-.269.592-.096 1.19-.14 1.789-.134a4.506 4.506 0 0 1 1.586.235c.409.113.766.362 1.013.705.266.322.451.701.54 1.108.102.463.147.936.135 1.41l-.034 4.331h-2.092V46.64c0-.706-.102-1.21-.27-1.478zm-5.131-1.98l-.371 1.779a4.411 4.411 0 0 0-.709-.134 6.055 6.055 0 0 0-.81-.068 2.573 2.573 0 0 0-.472.034 1.328 1.328 0 0 0-.439.067v5.876h-2.093v-7.252a6.433 6.433 0 0 1 1.35-.403 8.795 8.795 0 0 1 1.722-.168c.169 0 .27.033.439.033.135.034.303.034.472.068.159.008.317.03.473.067.151.005.3.04.438.1zm-10.767 5.405c.338.269.811.403 1.418.403.385.001.769-.032 1.148-.1a4.07 4.07 0 0 0 .945-.27l.27 1.78a3.735 3.735 0 0 1-.473.168c-.202.034-.405.1-.641.134s-.506.067-.743.1c-.257.029-.517.04-.776.035a4.67 4.67 0 0 1-1.755-.336 3.225 3.225 0 0 1-1.958-2.082 4.698 4.698 0 0 1-.236-1.578 4.778 4.778 0 0 1 .338-1.78c.164-.475.428-.91.776-1.275a3.293 3.293 0 0 1 1.147-.773 3.52 3.52 0 0 1 1.317-.234c1.046 0 1.89.335 2.497 1.007.608.671.946 1.678.946 2.954v.437c0 .168-.034.302-.034.403l-4.793-.067a1.325 1.325 0 0 0 .607 1.074zm-8.168-5.64a6.1 6.1 0 0 1 .811-.068c.474-.005.945.087 1.383.269.415.17.777.449 1.047.806.281.37.488.792.607 1.242.14.537.208 1.09.203 1.645a5.306 5.306 0 0 1-.237 1.679 3.19 3.19 0 0 1-.742 1.276c-.34.354-.755.63-1.215.806a5.02 5.02 0 0 1-1.654.268 6.288 6.288 0 0 1-.776-.033l-.81-.101c-.237-.034-.54-.067-.81-.101-.237-.067-.473-.1-.642-.168V39.79l2.093-.369v3.76c.242-.093.49-.172.742-.235zm-11.07 5.808a6.366 6.366 0 0 1-.135-1.444v-4.264h2.092v4.03c0 .704.068 1.174.27 1.51.203.336.507.47 1.013.47.135 0 .304-.034.473-.034a1.94 1.94 0 0 0 .472-.033v-5.91h2.093v7.387c-.338.1-.81.168-1.384.269-.591.096-1.19.14-1.789.134a4.508 4.508 0 0 1-1.586-.235 2.098 2.098 0 0 1-1.013-.739 5.08 5.08 0 0 1-.506-1.141zm-5.333-3.727c.203-.235.439-.504.641-.739.169-.235.405-.503.574-.705a6.08 6.08 0 0 0 .473-.57h2.497c-.472.604-.979 1.175-1.451 1.712-.506.537-1.013 1.108-1.586 1.679.27.235.54.57.877.839.304.37.608.739.878 1.142.27.402.54.772.776 1.175s.439.738.608 1.074h-2.431c-.135-.235-.337-.504-.506-.84-.169-.335-.405-.604-.607-.94a8.677 8.677 0 0 0-.675-.872 4.703 4.703 0 0 0-.709-.705v3.39h-2.093V39.724l2.093-.37v6.38c.202-.201.438-.47.641-.705zm-10.228 11.05h89.18l3.415 14.758h-96.002l3.407-14.757z" fill="#427AF4"/><path d="M488.925 78.361c.778 0 1.389.332 1.99.874l1.089-1.25c-.722-.707-1.601-1.194-3.068-1.194a3.967 3.967 0 0 0-2.826 1.08 3.927 3.927 0 0 0-1.231 2.923v.022a3.892 3.892 0 0 0 1.097 2.784 3.936 3.936 0 0 0 2.893 1.197c1.501 0 2.39-.53 3.191-1.382l-1.09-1.095c-.611.553-1.156.907-2.045.907-1.334 0-2.257-1.106-2.257-2.433v-.022c0-1.327.945-2.41 2.257-2.41zm4.781-1.437v7.74h5.592v-1.548h-3.88v-6.192h-1.712zm14.641 3.87v-.022c0-2.2-1.723-3.98-4.124-3.98s-4.146 1.802-4.146 4.002v.022c0 2.2 1.723 3.981 4.124 3.981s4.146-1.802 4.146-4.003zm-6.481 0v-.022c0-1.327.957-2.41 2.335-2.41 1.378 0 2.357 1.105 2.357 2.432v.022c0 1.327-.956 2.41-2.335 2.41-1.378 0-2.357-1.105-2.357-2.432zm8.161-3.87v4.423c0 2.278 1.279 3.439 3.368 3.439 2.09 0 3.413-1.15 3.413-3.494v-4.368h-1.712v4.434c0 1.228-.633 1.858-1.678 1.858s-1.679-.653-1.679-1.913v-4.38h-1.712zm15.976 3.87v-.022c0-2.178-1.69-3.848-4.135-3.848h-3.035v7.74h3.035c2.445 0 4.135-1.691 4.135-3.87zm-1.79.022c0 1.371-.945 2.311-2.345 2.311h-1.323v-4.666h1.323c1.4 0 2.345.962 2.345 2.333v.022zm12.663 3.848h1.457v-7.74h-1.69v4.766l-3.646-4.766h-1.579v7.74h1.69v-4.92l3.768 4.92zm6.271-7.796l-3.334 7.796h1.745l.711-1.736h3.291l.711 1.736h1.79l-3.335-7.796h-1.579zm-.266 4.556l1.033-2.51 1.034 2.51h-2.067zm9.183 3.24v-6.17h2.367v-1.57h-6.447v1.57h2.368v6.17h1.712zm4.036-7.74h1.712v7.74H556.1v-7.74zm11.073 0h-1.845l-2.035 5.451-2.034-5.451h-1.89l3.146 7.796h1.512l3.146-7.796zm7.349 1.515v-1.515h-5.869v7.74h5.924V83.15h-4.224v-1.625h3.669V80.01h-3.669v-1.57h4.169z" fill="#fff"/><path d="M521.579 60.544l-2.439 5.701h1.276l.521-1.27h2.406l.52 1.27h1.309l-2.439-5.701h-1.154zm-.195 3.332l.756-1.836.756 1.836h-1.512zm8.69.194l-2.667-3.486h-1.154v5.661h1.236v-3.599l2.756 3.6h1.064v-5.662h-1.235v3.486zm5.024-3.486h-2.22v5.661h2.22c1.788 0 3.024-1.237 3.024-2.83v-.017c0-1.593-1.236-2.814-3.024-2.814zm1.715 2.847c0 1.003-.691 1.69-1.715 1.69h-.968v-3.413h.968a1.645 1.645 0 0 1 1.239.474 1.632 1.632 0 0 1 .476 1.233v.016zm-14.738-18.335a1.93 1.93 0 0 0-.439-.336 1.089 1.089 0 0 0-.608-.135 1.64 1.64 0 0 0-.607.101c-.172.075-.322.19-.439.336a2.028 2.028 0 0 0-.236.47 3.111 3.111 0 0 0-.135.537h-.034v.034h2.835a2.976 2.976 0 0 0-.101-.538c-.068-.2-.101-.369-.236-.47zm22.58 0a1.908 1.908 0 0 0-.439-.336 1.089 1.089 0 0 0-.608-.135 1.64 1.64 0 0 0-.607.101c-.171.075-.322.19-.439.336a2.026 2.026 0 0 0-.236.47 3.111 3.111 0 0 0-.135.537h-.034v.034h2.835a3.635 3.635 0 0 0-.101-.538c-.068-.2-.101-.369-.236-.47zm14.311.033a1.932 1.932 0 0 0-.439-.336 1.087 1.087 0 0 0-.608-.134 1.64 1.64 0 0 0-.607.1c-.172.076-.322.191-.439.337a2.026 2.026 0 0 0-.236.47c-.068.167-.102.335-.169.57h2.835a3.632 3.632 0 0 0-.101-.537c-.068-.201-.101-.37-.236-.47zm-47.692 3.861c.135 0 .236.034.405.034.179.028.359.039.54.033.608 0 1.046-.201 1.316-.604.315-.49.468-1.065.439-1.645 0-1.377-.472-2.082-1.485-2.082a2.086 2.086 0 0 0-.641.067c-.211.04-.408.133-.574.269v3.928z" fill="#427AF4"/><path d="M561.328 46.74c0-1.275-.337-2.282-.945-2.954-.607-.672-1.451-1.007-2.497-1.007a3.516 3.516 0 0 0-1.317.235 3.293 3.293 0 0 0-1.147.772c-.348.365-.612.8-.776 1.276a4.778 4.778 0 0 0-.338 1.78c-.012.535.068 1.069.236 1.577a3.225 3.225 0 0 0 1.958 2.082 4.67 4.67 0 0 0 1.755.336c.259.005.519-.006.776-.034.237-.033.507-.067.743-.1.236-.034.439-.101.641-.135.161-.045.319-.101.473-.168l-.27-1.78a4.075 4.075 0 0 1-.945.27 6.36 6.36 0 0 1-1.148.1c-.607 0-1.08-.134-1.418-.403a1.316 1.316 0 0 1-.607-1.074l4.793.067c0-.1.033-.235.033-.403v-.436zm-4.86-.604c.068-.235.101-.403.169-.57.058-.167.137-.325.236-.47.117-.146.268-.261.439-.336.194-.072.4-.106.607-.101.212-.015.423.031.608.134.162.09.31.203.439.336.135.1.169.269.236.47.047.176.081.356.101.537h-2.835zm9.451 2.921c-.262.08-.536.115-.81.101a6.24 6.24 0 0 1-1.114-.1 4.34 4.34 0 0 1-1.114-.37l-.371 1.78c.307.115.623.204.945.268.544.105 1.099.15 1.654.134 1.012 0 1.789-.167 2.362-.57a2.012 2.012 0 0 0 .81-1.713 3.01 3.01 0 0 0-.101-.84 1.493 1.493 0 0 0-.371-.67 3.106 3.106 0 0 0-.709-.571 6.15 6.15 0 0 0-1.148-.538 4.975 4.975 0 0 1-.573-.235c-.135-.067-.237-.134-.372-.201a.443.443 0 0 1-.168-.201.485.485 0 0 1-.034-.236c0-.402.337-.57 1.012-.57.329-.004.658.03.979.1.266.054.526.133.777.235l.371-1.712a6.907 6.907 0 0 0-1.013-.269 8.35 8.35 0 0 0-1.316-.1c-.878 0-1.62.201-2.126.638a2.075 2.075 0 0 0-.777 1.712c-.009.33.036.659.135.974.094.254.244.483.439.671.21.187.436.355.675.504.27.134.574.268.878.403.438.168.742.335.978.436.203.135.338.269.338.47a.477.477 0 0 1-.236.47zm-18.901-1.88v-.436c0-1.276-.338-2.283-.945-2.955-.608-.672-1.452-1.007-2.498-1.007a3.507 3.507 0 0 0-1.316.235 3.362 3.362 0 0 0-1.924 2.048 4.778 4.778 0 0 0-.338 1.78c-.012.535.068 1.069.236 1.577.143.474.394.908.734 1.27.34.36.759.639 1.224.812a4.67 4.67 0 0 0 1.755.336c.259.005.519-.006.776-.034.237-.033.507-.067.743-.1.236-.034.439-.101.641-.135.161-.045.319-.101.473-.168l-.27-1.78c-.303.128-.62.218-.945.27a6.36 6.36 0 0 1-1.148.1c-.607 0-1.08-.134-1.417-.403a1.319 1.319 0 0 1-.608-1.074h4.793c.018-.111.03-.223.034-.336zm-4.861-1.074v-.034h.034c.029-.183.074-.362.135-.537.058-.166.138-.324.236-.47.117-.145.268-.26.439-.336.194-.071.401-.106.608-.1.211-.016.422.03.607.134.162.09.31.203.439.335.135.101.169.269.236.47.047.177.081.356.101.538h-2.835zm-39.692 4.532c.51.173 1.048.252 1.586.235.599.007 1.198-.038 1.789-.134.574-.1 1.046-.168 1.384-.269v-7.386h-2.093v5.91a1.93 1.93 0 0 1-.472.033c-.169 0-.338.033-.473.033-.506 0-.81-.134-1.012-.47-.203-.336-.27-.806-.27-1.51v-4.03h-2.093v4.264c-.01.485.035.97.135 1.444.121.4.291.783.506 1.142.254.343.608.6 1.013.738zm35.98.068l.033-4.332a5.864 5.864 0 0 0-.135-1.41 2.615 2.615 0 0 0-.54-1.108 1.855 1.855 0 0 0-1.012-.705 4.512 4.512 0 0 0-1.587-.235 10.432 10.432 0 0 0-1.789.134c-.573.101-1.046.168-1.383.269v7.386h2.092v-5.909c.156-.03.315-.041.473-.033.202 0 .337-.034.472-.034.507 0 .81.134 1.013.437.169.268.27.772.27 1.477v4.063h2.093zm-8.877-7.756c-.169 0-.27-.034-.439-.034-.578 0-1.155.056-1.721.168a6.41 6.41 0 0 0-1.35.403v7.252h2.092V44.86c.142-.046.29-.07.439-.067.156-.025.314-.037.472-.033a6.1 6.1 0 0 1 .811.067c.239.025.476.07.708.134l.372-1.78a1.208 1.208 0 0 0-.439-.1 2.663 2.663 0 0 0-.473-.067c-.168-.034-.337-.034-.472-.067zm-5.164 4.23v-.436c0-1.276-.338-2.283-.945-2.955-.608-.672-1.452-1.007-2.498-1.007a3.507 3.507 0 0 0-1.316.235 3.287 3.287 0 0 0-1.148.772c-.347.365-.612.8-.776 1.276a4.778 4.778 0 0 0-.338 1.78c-.012.535.068 1.069.237 1.577a3.21 3.21 0 0 0 1.957 2.082 4.67 4.67 0 0 0 1.755.336 6.04 6.04 0 0 0 .777-.034c.236-.033.506-.067.742-.1.236-.034.439-.101.641-.135a3.68 3.68 0 0 0 .473-.168l-.27-1.78c-.303.128-.62.218-.945.27a6.35 6.35 0 0 1-1.148.1c-.607 0-1.08-.134-1.417-.403a1.32 1.32 0 0 1-.608-1.074l4.793.067c0-.1.034-.235.034-.403zm-4.827-1.074v-.034h.034c.029-.183.074-.362.135-.537.058-.166.137-.324.236-.47.117-.145.268-.26.439-.336.194-.071.4-.106.607-.1.212-.016.423.03.608.134.162.09.31.203.439.335.135.101.169.269.236.47.05.176.084.356.101.538h-2.835zm-10.395-6.312v10.676c.168.068.405.101.641.168.27.034.574.068.81.101l.81.1c.258.028.517.04.776.034a5.014 5.014 0 0 0 1.654-.268c.46-.176.875-.452 1.215-.806.344-.362.598-.799.743-1.276.168-.543.248-1.11.236-1.679a6.297 6.297 0 0 0-.203-1.645 3.555 3.555 0 0 0-.607-1.242 2.506 2.506 0 0 0-1.046-.806 3.508 3.508 0 0 0-1.384-.269 6.086 6.086 0 0 0-.81.068c-.252.063-.5.141-.743.235v-3.76l-2.092.369zm2.666 5.002c.209-.055.425-.078.641-.067 1.013 0 1.485.705 1.485 2.082.03.58-.124 1.155-.438 1.645-.27.403-.709.604-1.317.604a2.928 2.928 0 0 1-.54-.033c-.169 0-.27-.034-.405-.034v-3.928c.166-.136.363-.228.574-.269zm36.756-3.66v6.447c-.012.452.033.903.135 1.343.08.377.242.732.472 1.04.24.286.539.515.878.672.452.174.934.254 1.418.235.385.006.769-.027 1.147-.1.29-.06.573-.15.844-.269l-.27-1.712a4.523 4.523 0 0 1-.641.168c-.235.04-.471.063-.709.067-.473 0-.776-.135-.945-.403a2.453 2.453 0 0 1-.236-1.108v-2.686h2.531v-1.813h-2.531v-2.25l-2.093.37zm-55.725-1.41V50.67h2.093v-3.391c.261.209.499.445.709.705.243.276.469.568.675.873.202.336.439.604.607.94.169.336.372.604.507.84h2.43c-.169-.336-.372-.672-.608-1.075-.236-.403-.506-.772-.776-1.175s-.574-.772-.878-1.142c-.337-.268-.607-.604-.877-.84.574-.57 1.08-1.14 1.586-1.678.473-.537.979-1.108 1.451-1.712h-2.497c-.146.2-.303.39-.473.57-.168.202-.405.47-.574.706-.202.235-.438.503-.641.738-.202.235-.439.504-.641.705v-6.379l-2.093.37z" fill="#fff"/><path d="M506.275 101.412l.52-1.27h2.407l.52 1.27h1.309l-2.439-5.702h-1.154l-2.439 5.702h1.276zm1.724-4.206l.756 1.836h-1.512l.756-1.835zm6.08 3.187a2.62 2.62 0 0 1-1.699-.688l-.74.882a3.634 3.634 0 0 0 2.415.906c1.228 0 2.089-.631 2.089-1.755v-.016c0-.987-.65-1.4-1.804-1.699-.984-.25-1.228-.372-1.228-.744v-.016c0-.275.252-.493.732-.493.479 0 .975.21 1.479.558l.651-.938a3.308 3.308 0 0 0-2.114-.72c-1.163 0-1.992.68-1.992 1.706v.016c0 1.125.74 1.44 1.886 1.731.951.243 1.147.404 1.147.72v.016c0 .332-.309.534-.822.534zm5.325 0a2.62 2.62 0 0 1-1.699-.688l-.74.882a3.632 3.632 0 0 0 2.415.906c1.227 0 2.089-.631 2.089-1.755v-.016c0-.987-.65-1.4-1.805-1.699-.984-.25-1.228-.372-1.228-.744v-.016c0-.275.252-.493.732-.493s.976.21 1.48.558l.65-.938a3.305 3.305 0 0 0-2.113-.72c-1.163 0-1.992.68-1.992 1.706v.016c0 1.125.739 1.44 1.886 1.731.951.243 1.146.404 1.146.72v.016c0 .332-.309.534-.821.534zm6.121 1.116c1.756 0 3.033-1.318 3.033-2.928v-.016c0-1.61-1.261-2.911-3.016-2.911-1.757 0-3.033 1.318-3.033 2.927v.016c0 1.61 1.26 2.912 3.016 2.912zm-1.707-2.944c0-.97.699-1.763 1.707-1.763a1.735 1.735 0 0 1 1.595 1.066c.086.209.13.433.13.659l-.001.054v.016c0 .97-.699 1.763-1.707 1.763a1.73 1.73 0 0 1-1.595-1.065 1.692 1.692 0 0 1-.13-.659l.001-.055v-.016zm8.723 2.944a2.907 2.907 0 0 0 2.333-1.011l-.797-.8c-.447.404-.845.662-1.495.662-.976 0-1.651-.808-1.651-1.779v-.016c0-.97.691-1.763 1.651-1.763.569 0 1.016.243 1.455.639l.796-.914c-.528-.517-1.17-.873-2.243-.873a2.908 2.908 0 0 0-2.067.789 2.876 2.876 0 0 0-.901 2.138v.016a2.85 2.85 0 0 0 .803 2.037c.528.546 1.253.86 2.015.875h.101zm3.593-5.758h1.252v5.661h-1.252v-5.661zm4.186 4.391h2.407l.52 1.27h1.309l-2.439-5.702h-1.154l-2.44 5.702h1.277l.52-1.27zm1.203-2.935l.757 1.835h-1.513l.756-1.835zm4.707 4.205h1.252v-4.513h1.732v-1.148h-4.715v1.148h1.731v4.513zm8.479-1.108h-3.089v-1.189h2.682v-1.108h-2.682V96.86h3.048V95.75h-4.292v5.661h4.333v-1.108z" fill="#427AF4"/><g clip-path="url(#clip0_2190_1073)"><path d="M433.085 77.772c-.688-3.191-1.513-6.354-2.276-9.53-.856-3.565-1.71-7.13-2.562-10.695-.846-3.515-1.695-7.03-2.548-10.543-.852-3.54-1.693-7.084-2.547-10.624a7.442 7.442 0 0 0-2.803-4.284 13.684 13.684 0 0 0-2.721-1.456 16368.27 16368.27 0 0 0-23.653-10.808c-5.135-2.345-10.265-4.701-15.407-7.03a7.82 7.82 0 0 0-6.008-.242c-1.252.44-2.42 1.065-3.623 1.612-2.036.926-4.085 1.826-6.114 2.767-1.801.834-3.607 1.66-5.418 2.477-1.907.856-3.8 1.744-5.699 2.618-1.539.709-3.076 1.42-4.618 2.122-2.156.982-4.318 1.952-6.473 2.936-1.593.728-3.173 1.48-4.766 2.205-1.588.724-3.212 1.38-4.744 2.206a7.284 7.284 0 0 0-2.374 1.964 6.911 6.911 0 0 0-1.305 2.731c-1.153 4.71-2.273 9.426-3.406 14.14-2.152 8.95-4.305 17.9-6.46 26.85a7.305 7.305 0 0 0-.08 3.638 7.503 7.503 0 0 0 1.691 3.26 4385.918 4385.918 0 0 1 13.691 16.274c4.654 5.537 9.31 11.073 13.967 16.608a7.506 7.506 0 0 0 2.721 2.094 7.843 7.843 0 0 0 3.413.702c7.403.007 14.806.008 22.209.003l22.29-.002a8.101 8.101 0 0 0 3.478-.703 7.764 7.764 0 0 0 2.791-2.106c.587-.674 1.151-1.366 1.725-2.05l12.479-14.85 6.668-7.937c2.362-2.818 4.73-5.63 7.069-8.465a6.785 6.785 0 0 0 1.414-2.786 6.603 6.603 0 0 0-.001-3.096zM421.271 47.75c.571 2.359 1.159 4.713 1.7 7.078.31 1.354.625 2.706.946 4.058.291 1.227.607 2.453.913 3.679.575 2.307 1.109 4.623 1.663 6.934.465 1.938.94 3.874 1.401 5.812.157.657.329 1.31.417 1.977a3.645 3.645 0 0 0-1.632-.84c-.254-.048-.634-.145-.887-.193a24.77 24.77 0 0 0-2.941-.219c-2.155-.218-3.93-.388-5.502-.873-.634-.242-1.09-.97-1.318-1.285l-1.242-.34a36.418 36.418 0 0 0-.634-13.706 36.619 36.619 0 0 0-5.755-12.71c.329-.267.913-.777 1.09-.947a2.256 2.256 0 0 1 .583-1.673 29.582 29.582 0 0 1 4.564-3.081 25.1 25.1 0 0 0 2.56-1.431c.203-.146.457-.364.685-.51a3.529 3.529 0 0 0 1.055-1.282c.096.27.176.545.241.824.298 1.3.607 2.595.918 3.891.388 1.614.785 3.225 1.175 4.838zm-40.354-29.284c7.164 3.25 14.321 6.514 21.47 9.795l12.23 5.587c.274.126.546.258.813.396a3.859 3.859 0 0 0-1.377.652c-.202.17-.481.364-.684.509-.716.65-1.393 1.34-2.028 2.062a29.338 29.338 0 0 1-4.133 3.59c-.583.34-1.47.218-1.85.194l-1.167.8c-6.73-6.74-15.778-10.927-25.479-11.789-.025-.388-.051-1.091-.076-1.31a2.32 2.32 0 0 1-1.014-1.48c-.127-1.576.101-3.274.355-5.336.2-.92.344-1.852.431-2.79v-.824c0-.451-.089-.898-.262-1.317.947.365 1.848.842 2.771 1.261zm-39.546 12.882c1.77-.81 3.543-1.612 5.312-2.422 1.842-.843 3.683-1.688 5.523-2.535a4377.845 4377.845 0 0 0 11.018-5.038c1.794-.82 3.581-1.655 5.385-2.451 1.32-.583 2.598-1.255 3.951-1.763a3.458 3.458 0 0 0-.288 1.383v.073c0 .242-.025.533 0 .752.087.937.231 1.868.431 2.79.254 2.037.482 3.759.33 5.336a3.195 3.195 0 0 1-.989 1.528l-.076 1.237c-1.869.144-3.725.42-5.552.825-7.68 1.655-14.665 5.474-20.054 10.964-.329-.218-.938-.63-1.115-.752-.558.073-1.09.243-1.826-.17a27.727 27.727 0 0 1-4.132-3.565 22.291 22.291 0 0 0-2.028-2.062 16.28 16.28 0 0 0-.685-.51 3.804 3.804 0 0 0-1.53-.7c.028-.014.053-.03.081-.044 2.063-.994 4.16-1.922 6.244-2.876zm-15.156 28.99c.977-4.068 1.958-8.135 2.942-12.2.77-3.193 1.514-6.39 2.323-9.573.036-.143.085-.277.129-.414.241.55.624 1.032 1.114 1.402.025 0 .025.024.05.024.203.146.457.364.634.486.887.606 1.673.945 2.535 1.43 1.613.888 3.14 1.911 4.564 3.057.373.496.585 1.087.608 1.698l.989.85c-5.43 7.788-7.661 17.222-6.262 26.488l-1.293.364a4.357 4.357 0 0 1-1.318 1.286c-1.572.485-3.347.655-5.502.873a24.77 24.77 0 0 0-2.941.219c-.228.048-.557.12-.811.17h-.076a3.68 3.68 0 0 0-1.694.886c.039-.404.106-.806.202-1.201 1.292-5.277 2.539-10.564 3.807-15.846zm22.686 52.012c-1.947-2.357-3.93-4.687-5.897-7.029l-5.699-6.783c-2.112-2.512-4.225-5.022-6.339-7.532a3908.084 3908.084 0 0 1-6.045-7.212c-.452-.54-.939-1.057-1.363-1.619.56.137 1.147.145 1.711.023h.051a.086.086 0 0 0 .05-.024c.254-.049.583-.122.786-.17a24.68 24.68 0 0 0 2.764-1.019c2.028-.704 3.701-1.286 5.349-1.504.685-.049 1.394.412 1.775.606l1.343-.218a37.232 37.232 0 0 0 6.009 11.11v.218h.177a39.928 39.928 0 0 0 11.511 9.825l-.558 1.285c.264.511.361 1.086.279 1.65a29.408 29.408 0 0 1-2.789 4.779 24.585 24.585 0 0 0-1.648 2.353c-.127.218-.279.557-.406.8a3.467 3.467 0 0 0-.339 1.234 9.238 9.238 0 0 1-.722-.773zm26.39 2.906l-15.158.001c-1.689 0-3.377.004-5.066.012-.062 0-.12-.008-.182-.009.244-.253.447-.539.604-.848a10.2 10.2 0 0 0 .38-.752c.35-.881.646-1.78.888-2.693.811-1.94 1.267-4.002 2.383-5.264a2.532 2.532 0 0 1 1.318-.606l.685-1.213a41.119 41.119 0 0 0 23.045 1.577 37.625 37.625 0 0 0 5.274-1.528c.202.339.557.97.659 1.14.63.097 1.195.428 1.572.921a25.542 25.542 0 0 1 2.104 4.949c.241.913.538 1.812.887 2.693.102.218.254.533.38.752.157.314.362.605.607.862-6.794.016-13.587.006-20.38.006zM423.149 86.7c-.818.974-1.653 1.937-2.472 2.911-1.068 1.27-2.123 2.55-3.191 3.82-1.052 1.25-2.119 2.49-3.17 3.743-.737.877-1.451 1.773-2.189 2.65-.719.854-1.464 1.689-2.182 2.544-.727.866-1.427 1.753-2.155 2.619-.824.981-1.675 1.942-2.5 2.923-.718.854-1.399 1.737-2.128 2.582-.733.849-1.389 1.765-2.181 2.555-.013.013-.028.024-.041.038a3.432 3.432 0 0 0-.349-1.196c-.126-.243-.279-.582-.405-.8a24.432 24.432 0 0 0-1.648-2.329c-1.166-1.747-2.13-3.178-2.713-4.658-.254-.752.051-1.237.228-1.722a8.757 8.757 0 0 1-.507-1.189 39.838 39.838 0 0 0 11.561-9.897h.051v-.072a38.195 38.195 0 0 0 6.084-11.304c.406.048 1.09.17 1.319.218.23-.206.502-.365.798-.469.296-.104.61-.15.925-.138 1.648.219 3.322.801 5.35 1.505.899.39 1.822.731 2.763 1.018.228.049.533.122.786.17a.092.092 0 0 1 .051.024h.051a3.904 3.904 0 0 0 1.593-.01c-.498.638-1.07 1.227-1.577 1.86-.705.876-1.427 1.741-2.152 2.604z" fill="#427AF4"/><path d="M402.24 43.74h-53.917v12.336h53.917V43.739zm-53.917 14.346v7.29h1.514v-2.243c.183.143.354.3.513.467.176.184.339.38.488.584.147.21.293.397.44.608.146.21.268.397.366.56h1.734c-.122-.21-.269-.444-.415-.7-.171-.258-.367-.514-.562-.772a9.428 9.428 0 0 0-.635-.747 7.975 7.975 0 0 0-.635-.631c.415-.374.782-.748 1.124-1.098.341-.35.683-.724 1.05-1.122h-1.783c-.106.131-.22.256-.342.374-.122.14-.268.304-.415.468a8.37 8.37 0 0 1-.464.49c-.146.164-.317.327-.464.49v-4.252l-1.514.234zm5.714 2.196v2.828c0 .322.041.644.122.957.067.271.192.526.367.748.187.22.431.388.708.49.36.123.741.178 1.123.164.425.006.85-.025 1.27-.093.39-.07.732-.117 1.001-.187v-4.93h-1.514v3.925c-.104.02-.211.028-.318.024-.122 0-.244.023-.341.023a.769.769 0 0 1-.399-.056.73.73 0 0 1-.31-.248 2.054 2.054 0 0 1-.195-1.005V60.26h-1.514v.023zm6.032-2.196v7.126c.146.047.293.07.464.117.184.045.372.076.561.094l.586.07c.187.019.374.026.562.023a3.61 3.61 0 0 0 1.172-.187c.331-.114.631-.298.879-.537.243-.238.427-.526.537-.841.13-.353.196-.724.196-1.099.004-.37-.046-.74-.147-1.098a2.325 2.325 0 0 0-.44-.84 1.83 1.83 0 0 0-.732-.538 2.717 2.717 0 0 0-1.001-.187 4.217 4.217 0 0 0-.586.047 4.63 4.63 0 0 0-.537.163v-2.547l-1.514.234zm1.855 3.365c.152-.039.308-.055.464-.047.708 0 1.075.467 1.075 1.402.022.382-.09.76-.318 1.075a1.046 1.046 0 0 1-.41.312 1.1 1.1 0 0 1-.518.085 1.69 1.69 0 0 1-.366-.024c-.122 0-.22-.023-.293-.023v-2.617a.656.656 0 0 1 .366-.163zm8.986 1.588v-.28a2.672 2.672 0 0 0-.659-1.963 2.322 2.322 0 0 0-.818-.51 2.412 2.412 0 0 0-.964-.144 2.725 2.725 0 0 0-.953.164 2.047 2.047 0 0 0-.806.514 2.578 2.578 0 0 0-.561.84 3.33 3.33 0 0 0-.049 2.244c.112.31.286.595.513.84.248.245.548.436.879.562.397.145.82.217 1.245.21.188.004.375-.004.562-.023.195-.024.366-.047.537-.07.171-.024.317-.07.44-.094a1.49 1.49 0 0 0 .317-.117l-.195-1.168a3.166 3.166 0 0 1-.66.187c-.266.046-.535.07-.805.07a1.827 1.827 0 0 1-1.026-.257.993.993 0 0 1-.301-.304.947.947 0 0 1-.139-.397h3.419c0-.117.024-.21.024-.304zm-3.443-.724c.024-.127.057-.251.098-.374a.669.669 0 0 1 .195-.303.671.671 0 0 1 .293-.21c.139-.059.289-.09.44-.094a.869.869 0 0 1 .44.093.718.718 0 0 1 .293.234c.08.087.138.191.17.304.037.114.061.231.074.35h-2.003zm7.106-2.126c-.122 0-.22-.023-.293-.023-.41-.001-.819.038-1.221.116a6.713 6.713 0 0 0-.952.257v4.813h1.514v-3.901a.944.944 0 0 1 .293-.047c.122 0 .244-.024.342-.024.196.002.392.018.586.047.171.047.342.07.464.094l.244-1.192a2.098 2.098 0 0 0-.293-.093 1.724 1.724 0 0 0-.342-.047 1.656 1.656 0 0 1-.342 0zm6.374 5.187v-2.874a3.973 3.973 0 0 0-.123-.958 1.958 1.958 0 0 0-.366-.748 1.718 1.718 0 0 0-.708-.49 3.145 3.145 0 0 0-1.123-.164 7.357 7.357 0 0 0-1.27.094c-.391.07-.733.117-1.001.187v4.93h1.514v-3.926c.104-.02.211-.028.317-.023.122 0 .244-.024.342-.024a.813.813 0 0 1 .393.052c.124.049.232.128.315.229.153.305.221.643.196.981v2.71h1.513l.001.024zm6.104-2.337v-.28a2.676 2.676 0 0 0-.659-1.963 2.331 2.331 0 0 0-.818-.51 2.414 2.414 0 0 0-.965-.144 2.723 2.723 0 0 0-.952.164 2.047 2.047 0 0 0-.806.514 2.578 2.578 0 0 0-.561.84 3.323 3.323 0 0 0-.049 2.244c.111.31.285.595.512.84.253.24.552.43.88.562.397.145.82.217 1.245.21.187.004.375-.004.562-.023.195-.024.366-.047.537-.07.171-.024.317-.07.439-.094.113-.02.22-.06.318-.117l-.196-1.168a3.157 3.157 0 0 1-.659.187c-.266.046-.535.07-.806.07a1.826 1.826 0 0 1-1.025-.257.993.993 0 0 1-.301-.304.947.947 0 0 1-.139-.397h3.419c.019-.1.027-.202.024-.304zm-3.443-.724c.024-.127.057-.251.098-.374a.669.669 0 0 1 .195-.303.665.665 0 0 1 .293-.21c.139-.059.288-.09.44-.094a.867.867 0 0 1 .439.093.711.711 0 0 1 .293.234.748.748 0 0 1 .171.304c.036.114.061.231.073.35h-2.002zm4.566-3.318v4.276c-.006.306.027.612.098.911.058.255.175.495.342.701.172.204.401.358.659.444.326.123.676.178 1.026.164.278.003.556-.02.83-.07.209-.045.413-.108.611-.187l-.22-1.122a2.676 2.676 0 0 1-.464.117c-.17.027-.341.043-.513.047a.763.763 0 0 1-.382-.052.733.733 0 0 1-.302-.229 1.29 1.29 0 0 1-.171-.724v-1.799h1.807v-1.192h-1.807v-1.495l-1.514.21zm9.084 4.042v-.28a2.676 2.676 0 0 0-.659-1.963 2.331 2.331 0 0 0-.818-.51 2.414 2.414 0 0 0-.965-.144 2.723 2.723 0 0 0-.952.164 2.047 2.047 0 0 0-.806.514 2.578 2.578 0 0 0-.561.84 3.323 3.323 0 0 0-.049 2.244c.111.31.285.595.512.84.253.24.552.43.88.562.397.145.82.217 1.245.21.187.004.375-.004.562-.023.195-.024.366-.047.537-.07.171-.024.317-.07.439-.094.113-.02.22-.06.318-.117l-.196-1.168a3.157 3.157 0 0 1-.659.187c-.266.046-.535.07-.806.07a1.826 1.826 0 0 1-1.025-.257.993.993 0 0 1-.301-.304.947.947 0 0 1-.139-.397h3.419c.019-.1.027-.202.024-.304zm-3.443-.724c.024-.127.057-.251.098-.374a.669.669 0 0 1 .195-.303.665.665 0 0 1 .293-.21c.139-.059.288-.09.44-.094a.867.867 0 0 1 .439.093.711.711 0 0 1 .293.234.748.748 0 0 1 .171.304c.036.114.061.231.073.35h-2.002zm6.74 1.94a1.78 1.78 0 0 1-.586.07 3.163 3.163 0 0 1-.806-.094 4.295 4.295 0 0 1-.782-.234l-.244 1.168c.215.078.435.14.66.187.384.081.778.12 1.172.117.59.029 1.176-.11 1.685-.397a1.31 1.31 0 0 0 .451-.498c.102-.201.149-.424.135-.647a1.97 1.97 0 0 0-.074-.56 1.205 1.205 0 0 0-.268-.444 1.776 1.776 0 0 0-.513-.374 5.652 5.652 0 0 0-.83-.35 2.098 2.098 0 0 1-.391-.164 1.057 1.057 0 0 1-.244-.14.612.612 0 0 1-.122-.14.34.34 0 0 1-.025-.164c0-.257.244-.374.708-.374.23-.002.46.021.684.07.192.04.379.095.562.164l.268-1.122a5.663 5.663 0 0 0-.708-.187 5.92 5.92 0 0 0-.928-.093 2.53 2.53 0 0 0-1.538.42 1.392 1.392 0 0 0-.425.508c-.098.199-.145.417-.137.637-.001.216.04.43.122.631.068.17.177.322.318.444.148.127.312.237.488.327.205.1.418.186.635.257.236.084.465.185.684.304.146.093.22.187.22.303 0 .21-.049.328-.171.374z" fill="#fff"/><path d="M354.135 53.149c.484.017.966-.07 1.41-.256a3.21 3.21 0 0 0 1.154-.819l-.879-.84a2.28 2.28 0 0 1-.743.51 2.36 2.36 0 0 1-.893.19 1.924 1.924 0 0 1-.719-.156 1.85 1.85 0 0 1-.598-.413 1.752 1.752 0 0 1-.383-.602 1.698 1.698 0 0 1-.107-.698v-.023a1.697 1.697 0 0 1 .107-.698c.084-.224.214-.428.383-.603a1.85 1.85 0 0 1 .598-.412c.226-.098.471-.15.719-.157.298.006.593.069.865.185.273.116.518.284.722.493l.879-.958a3.3 3.3 0 0 0-1.133-.704 3.414 3.414 0 0 0-1.333-.207 3.297 3.297 0 0 0-1.251.212 3.18 3.18 0 0 0-1.062.666 3.021 3.021 0 0 0-.704 1.011c-.16.38-.239.786-.231 1.195v.023c-.007.404.071.805.23 1.18.158.373.393.713.692.999.298.286.654.51 1.045.662.391.152.81.227 1.232.22zm8.424-1.285h-3.394v-1.238h2.955v-1.168h-2.955v-1.215h3.345v-1.169h-4.712v5.982h4.761v-1.192zm2.613-.724h1.099l1.343 1.916h1.612l-1.539-2.127a1.92 1.92 0 0 0 1-.704c.243-.334.364-.735.343-1.141v-.024a1.788 1.788 0 0 0-.126-.73 1.86 1.86 0 0 0-.411-.625 2.516 2.516 0 0 0-.851-.481 2.593 2.593 0 0 0-.98-.126h-2.857v5.958h1.367V51.14zm0-2.897h1.368c.659 0 1.074.28 1.074.864v.023c0 .514-.391.841-1.05.841h-1.392v-1.728zm6.52 4.813h1.367v-4.767h1.905v-1.215h-5.177v1.215h1.905v4.767zm4.395-5.982h1.368v5.982h-1.368v-5.982zm4.298 3.645h3.003v-1.191h-3.003v-1.262h3.394v-1.192h-4.762v5.982h1.368v-2.337zm4.566-3.645h1.368v5.982h-1.368v-5.982zm7.692 4.79h-3.394v-1.238h2.93v-1.168h-2.93v-1.215h3.345v-1.169h-4.713v5.982h4.762v-1.192zm6.984-1.799c0-1.706-1.368-2.99-3.321-2.99h-2.442v5.98h2.442c1.953 0 3.321-1.308 3.321-2.99zm-4.396-1.822h1.075c.25-.012.5.026.734.113.233.086.446.218.623.387.177.17.315.373.405.596.09.224.13.463.118.703v.023c.012.238-.029.476-.12.698-.09.222-.229.424-.406.591-.178.168-.39.297-.623.381-.233.084-.482.12-.731.106h-1.075v-3.598z" fill="#427AF4"/><path d="M402.24 68.273h-53.917v16.841h53.917v-16.84z" fill="#fff"/><path d="M355.284 75.15l.682-.782a2.47 2.47 0 0 0 1.568.61c.472 0 .758-.18.758-.474v-.014c0-.28-.18-.423-1.058-.639-1.058-.258-1.74-.538-1.74-1.536v-.014c0-.912.765-1.514 1.838-1.514a3.129 3.129 0 0 1 1.95.638l-.6.833a2.534 2.534 0 0 0-1.366-.495c-.442 0-.675.193-.675.437v.015c0 .33.225.438 1.133.66 1.065.266 1.665.632 1.665 1.507v.015c0 .997-.795 1.557-1.927 1.557a3.428 3.428 0 0 1-2.228-.804zm5.348-4.292h3.961v.984h-2.813v1.019h2.475v.983h-2.475V74.9h2.85v.983h-3.998v-5.024zm4.981 2.527v-.014c-.006-.345.06-.687.196-1.007.135-.319.337-.609.593-.852.256-.242.56-.433.895-.56a2.777 2.777 0 0 1 1.054-.18c.383-.018.765.042 1.122.176.357.133.68.338.948.6l-.735.81a1.978 1.978 0 0 0-1.343-.566 1.618 1.618 0 0 0-.604.13c-.19.08-.361.198-.503.344a1.473 1.473 0 0 0-.323.505 1.413 1.413 0 0 0-.092.586v.014a1.446 1.446 0 0 0 .41 1.099c.143.147.314.266.505.348.191.083.398.128.607.132.26-.002.517-.056.754-.157.238-.101.451-.248.626-.432l.736.71c-.265.297-.596.531-.969.687a2.79 2.79 0 0 1-1.184.211 2.75 2.75 0 0 1-1.039-.186 2.658 2.658 0 0 1-.881-.559 2.538 2.538 0 0 1-.582-.844 2.433 2.433 0 0 1-.191-.995zm5.873.344v-2.87h1.155V73.7c0 .818.427 1.241 1.132 1.241.706 0 1.133-.409 1.133-1.206v-2.878h1.156v2.835c0 1.522-.893 2.269-2.303 2.269-1.411 0-2.273-.754-2.273-2.233zm5.941-2.87h2.401c.277-.017.556.02.818.107.263.087.505.224.712.402.151.153.269.334.346.53.077.198.113.408.104.618v.015c.017.341-.084.679-.288.96a1.624 1.624 0 0 1-.837.597l1.283 1.794h-1.351l-1.125-1.607h-.908v1.607h-1.155v-5.024zm2.326 2.44c.562 0 .885-.287.885-.71v-.015c0-.474-.346-.718-.908-.718h-1.148V73.3h1.171zm3.337-2.44h1.155v5.023h-1.155v-5.024zm3.878 1.019h-1.598v-1.02h4.351v1.02h-1.598v4.004h-1.155v-4.004zm5.303 2.024l-2.018-3.044h1.35l1.253 2.017 1.275-2.017h1.313l-2.018 3.022v2.002h-1.155v-1.98zm-40.336 8.013l.682-.782c.428.378.985.595 1.568.61.472 0 .757-.18.757-.474v-.014c0-.28-.18-.424-1.057-.64-1.058-.257-1.741-.537-1.741-1.535v-.014c0-.912.765-1.515 1.838-1.515a3.13 3.13 0 0 1 1.951.639l-.601.832a2.529 2.529 0 0 0-1.365-.495c-.442 0-.675.194-.675.438v.015c0 .33.225.437 1.133.66 1.065.265 1.665.631 1.665 1.507v.014c0 .998-.795 1.558-1.928 1.558a3.428 3.428 0 0 1-2.227-.804zm5.348-4.292h2.145c1.252 0 2.01.71 2.01 1.737v.014c0 1.163-.945 1.766-2.123 1.766h-.877v1.507h-1.155v-5.024zm2.07 2.534a.848.848 0 0 0 .635-.185.771.771 0 0 0 .28-.576v-.014c0-.496-.36-.761-.938-.761h-.892v1.536h.915zm3.128-2.534h3.961v.984h-2.814v1.019h2.476v.983h-2.476v1.055h2.851v.983h-3.998v-5.024zm4.98 2.526v-.014c-.006-.345.06-.688.196-1.007.136-.32.337-.61.593-.852.256-.243.561-.433.896-.56a2.771 2.771 0 0 1 1.053-.18 2.82 2.82 0 0 1 1.122.175c.357.134.68.339.948.6l-.735.811a1.976 1.976 0 0 0-1.342-.566 1.611 1.611 0 0 0-.604.13 1.55 1.55 0 0 0-.504.343 1.474 1.474 0 0 0-.323.506 1.43 1.43 0 0 0-.092.585v.014a1.446 1.446 0 0 0 .411 1.1c.142.147.314.266.505.348.191.082.397.127.607.132a1.97 1.97 0 0 0 .754-.157c.237-.102.45-.249.626-.432l.735.71c-.264.296-.596.53-.969.686a2.79 2.79 0 0 1-1.184.212 2.756 2.756 0 0 1-1.039-.186 2.668 2.668 0 0 1-.881-.56 2.536 2.536 0 0 1-.582-.843 2.45 2.45 0 0 1-.191-.995zm6.009-2.526h1.155v5.024h-1.155v-5.024zm4.455-.036h1.065l2.251 5.06h-1.208l-.48-1.127h-2.22l-.48 1.127h-1.178l2.25-5.06zm1.215 2.957l-.697-1.63-.698 1.63h1.395zm3.099-2.92h1.155v4.019h2.618v1.004h-3.773v-5.024zm4.883 0h1.155v5.023h-1.155v-5.024zm2.295 4.29l.683-.781c.428.378.985.595 1.567.61.473 0 .758-.18.758-.474v-.014c0-.28-.18-.424-1.058-.64-1.057-.257-1.74-.537-1.74-1.535v-.014c0-.912.765-1.515 1.838-1.515a3.126 3.126 0 0 1 1.95.639l-.6.832a2.529 2.529 0 0 0-1.365-.495c-.443 0-.675.194-.675.438v.015c0 .33.225.437 1.132.66 1.065.265 1.666.631 1.666 1.507v.014c0 .998-.795 1.558-1.928 1.558a3.428 3.428 0 0 1-2.228-.804zm6.458-3.272h-1.597v-1.019h4.35v1.02h-1.597v4.004h-1.156v-4.005z" fill="#427AF4"/><path d="M348.837 89.707v-.012a2.082 2.082 0 0 1 .166-.851 2.14 2.14 0 0 1 .502-.721c.216-.206.474-.367.757-.475.284-.107.587-.159.892-.151.324-.016.647.035.949.148a2.3 2.3 0 0 1 .802.508l-.621.686a1.677 1.677 0 0 0-1.137-.48 1.37 1.37 0 0 0-.511.11 1.315 1.315 0 0 0-.426.291 1.216 1.216 0 0 0-.351.923v.012a1.245 1.245 0 0 0 .347.93c.121.125.266.225.428.295.161.07.336.107.513.11.22-.001.437-.046.638-.132.201-.085.381-.21.53-.365l.622.601c-.223.25-.504.449-.819.58a2.364 2.364 0 0 1-1.002.18 2.332 2.332 0 0 1-.88-.158 2.255 2.255 0 0 1-.745-.473 2.142 2.142 0 0 1-.492-.714 2.05 2.05 0 0 1-.162-.842zm5.041-2.138h3.351v.832h-2.38v.863h2.094v.832h-2.094v.892h2.412v.832h-3.383v-4.25zm4.411 0h2.031c.235-.014.47.016.693.09.222.075.427.19.602.34.128.13.227.283.293.45.065.167.095.344.087.523v.012c.015.289-.071.575-.243.813a1.376 1.376 0 0 1-.709.505l1.086 1.518h-1.143l-.952-1.36h-.768v1.36h-.977v-4.251zm1.967 2.065c.476 0 .749-.243.749-.602v-.012c0-.4-.292-.607-.768-.607h-.971v1.22h.99zm3.815-1.202h-1.351v-.863h3.681v.863h-1.352v3.388h-.977l-.001-3.388zm3.282-.863h.978v4.251h-.978v-4.25zm2.247 0h3.383v.85h-2.405v.905h2.12v.85h-2.12v1.646h-.978v-4.25zm4.368 0h.977v4.251h-.977v-4.25zm2.05 2.138v-.012c-.006-.291.05-.581.165-.851s.286-.516.502-.721c.217-.206.474-.367.758-.475.283-.107.587-.159.891-.151.324-.016.648.035.95.148a2.3 2.3 0 0 1 .802.508l-.622.686a1.675 1.675 0 0 0-1.136-.48c-.177.004-.35.04-.511.11a1.315 1.315 0 0 0-.426.291 1.235 1.235 0 0 0-.352.923v.012c-.01.17.015.34.075.499.06.16.153.306.273.431.12.125.265.225.427.295.162.07.336.107.514.11.22-.001.437-.046.638-.132.201-.085.381-.21.53-.365l.622.601c-.224.25-.504.449-.82.58a2.359 2.359 0 0 1-1.002.18 2.33 2.33 0 0 1-.879-.158 2.245 2.245 0 0 1-.745-.473 2.144 2.144 0 0 1-.493-.714 2.065 2.065 0 0 1-.161-.842zm6.563-2.168h.901l1.904 4.281h-1.021l-.407-.953h-1.878l-.406.953h-.997l1.904-4.28zm1.028 2.502l-.59-1.379-.59 1.38h1.18zm3.085-1.61h-1.351v-.862h3.681v.863h-1.352v3.388h-.978v-3.388zm3.283-.862h.977v4.251h-.977v-4.25zm2.05 2.138v-.012a2.215 2.215 0 0 1 .712-1.556 2.417 2.417 0 0 1 1.643-.643 2.42 2.42 0 0 1 1.647.634c.442.408.7.965.72 1.552v.013a2.215 2.215 0 0 1-.712 1.555c-.439.41-1.029.641-1.643.642a2.421 2.421 0 0 1-1.647-.633 2.22 2.22 0 0 1-.72-1.552zm3.7 0v-.012a1.241 1.241 0 0 0-.377-.941 1.35 1.35 0 0 0-.442-.292 1.403 1.403 0 0 0-1.049-.003 1.333 1.333 0 0 0-.44.289c-.124.123-.221.27-.285.43-.064.161-.093.333-.085.504v.013c-.006.173.024.345.089.507.064.161.163.308.288.433.126.125.276.224.442.292a1.408 1.408 0 0 0 1.049.003c.166-.067.315-.165.44-.289.124-.124.221-.27.285-.431.064-.16.093-.332.085-.503zm2.051-2.138h.901l2.082 2.618v-2.618h.965v4.251h-.832l-2.152-2.702v2.702h-.964v-4.25z" fill="#fff"/></g><path d="M277.733 77.38c-.28-.056-.699-.169-.979-.225-1.175-.225-2.126-.169-3.245-.253-2.378-.253-4.336-.45-6.07-1.013-.699-.28-1.203-1.125-1.454-1.49l-1.371-.394a44.332 44.332 0 0 0-.699-15.89 43.504 43.504 0 0 0-6.35-14.736c.364-.31 1.007-.9 1.203-1.097.056-.619 0-1.238.643-1.94 1.343-1.266 3.021-2.307 5.035-3.572.951-.563 1.846-.929 2.825-1.66.224-.169.504-.422.756-.59 1.622-1.294 1.986-3.544.839-5.006-1.175-1.463-3.413-1.603-5.063-.31-.224.197-.532.422-.755.59-.896.788-1.483 1.576-2.238 2.391-1.679 1.716-3.049 3.122-4.56 4.163-.643.393-1.622.253-2.042.225l-1.286.928c-7.357-7.734-17.343-12.684-28.112-13.668-.028-.45-.056-1.266-.084-1.519-.448-.422-.979-.788-1.119-1.715-.14-1.829.112-3.797.392-6.188.167-1.096.419-2.025.475-3.234v-.956c0-2.081-1.51-3.797-3.385-3.797-1.874 0-3.384 1.688-3.384 3.797v.084c0 .281-.028.619 0 .872.056 1.21.308 2.138.475 3.234.28 2.363.532 4.36.364 6.188-.14.703-.643 1.321-1.091 1.771l-.084 1.435a41.973 41.973 0 0 0-6.126.956c-8.783 1.997-16.363 6.553-22.126 12.712a139.81 139.81 0 0 1-1.23-.872c-.616.084-1.203.281-2.014-.197-1.511-1.013-2.909-2.447-4.56-4.134-.755-.816-1.314-1.603-2.237-2.39-.196-.17-.532-.423-.756-.591-.699-.563-1.538-.872-2.349-.9-1.091-.028-2.098.365-2.742 1.209-1.174 1.462-.783 3.712.84 5.006.027 0 .027.028.055.028.224.169.504.422.7.563.979.703 1.846 1.096 2.797 1.659 2.014 1.265 3.692 2.306 5.035 3.544.531.562.615 1.546.671 1.968l1.091.984c-5.818 8.803-8.503 19.659-6.909 30.711l-1.427.422c-.363.478-.895 1.238-1.454 1.49-1.734.563-3.692.76-6.07 1.013-1.119.085-2.07.028-3.245.253-.251.057-.615.14-.895.197h-.084c-1.986.478-3.272 2.334-2.853 4.134.42 1.828 2.35 2.925 4.364 2.475h.056c.028 0 .056-.028.056-.028.279-.056.643-.14.867-.197 1.147-.31 1.986-.76 3.049-1.181 2.237-.816 4.084-1.49 5.902-1.744.755-.056 1.538.479 1.958.704l1.482-.254a43.88 43.88 0 0 0 6.63 12.88v.254h.196a44.7 44.7 0 0 0 12.699 11.39l-.616 1.491c.224.562.476 1.35.308 1.912-.671 1.716-1.79 3.515-3.077 5.54-.615.928-1.259 1.66-1.818 2.728-.14.253-.308.647-.448.928-.867 1.885-.223 4.022 1.427 4.838 1.678.815 3.776-.057 4.671-1.913.14-.253.308-.618.42-.872.475-1.096.643-2.053.979-3.121.895-2.25 1.399-4.641 2.629-6.103.336-.394.895-.563 1.455-.703l.755-1.406c7.86 3.037 16.644 3.853 25.427 1.828a39.881 39.881 0 0 0 5.818-1.772c.224.394.615 1.125.727 1.322.588.197 1.203.281 1.734 1.068.924 1.575 1.567 3.46 2.322 5.738.336 1.068.504 2.025.979 3.121.112.253.28.619.42.872.895 1.884 2.993 2.756 4.671 1.941 1.678-.816 2.322-2.953 1.427-4.838-.14-.281-.308-.675-.448-.928-.559-1.068-1.203-1.771-1.818-2.699-1.287-2.025-2.35-3.685-2.993-5.4-.28-.872.056-1.435.252-1.997-.14-.141-.392-.984-.56-1.378 5.007-2.981 9.315-6.918 12.755-11.475h.056v-.084a45.047 45.047 0 0 0 6.714-13.105c.447.056 1.202.197 1.454.253.504-.338.979-.788 1.902-.703 1.818.253 3.665.928 5.902 1.743 1.035.394 1.875.872 3.049 1.181.252.057.588.141.867.197.028 0 .056.029.056.029h.056c2.014.421 3.944-.675 4.364-2.475.448-1.913-.839-3.769-2.825-4.247zm-25.119-19.35h-63.161V44.195h63.161v13.837zm-2.685 8.747c-.168-.112-.42-.225-.784-.365-.279-.113-.503-.197-.727-.31a2.188 2.188 0 0 1-.559-.393c-.168-.141-.28-.338-.364-.535a1.933 1.933 0 0 1-.14-.759c0-.563.224-1.04.644-1.378.419-.338 1.007-.506 1.762-.506.363 0 .727.028 1.063.112.335.056.615.14.811.225l-.308 1.35c-.196-.056-.419-.14-.643-.197a3.352 3.352 0 0 0-.783-.084c-.532 0-.812.14-.812.45 0 .056 0 .14.028.197a.375.375 0 0 0 .14.168c.056.057.168.113.28.17.112.055.28.112.448.196.391.14.699.281.951.422.251.14.447.281.587.45.14.169.252.337.308.534.056.197.084.422.084.675 0 .619-.224 1.069-.672 1.378-.447.31-1.091.478-1.93.478-.531 0-.979-.056-1.342-.14a5.37 5.37 0 0 1-.756-.225l.28-1.406c.28.112.587.196.895.28.308.057.616.113.923.113.308 0 .532-.028.672-.084.139-.056.195-.169.195-.366 0-.225-.084-.337-.251-.45zm-7.161.422c.28.197.699.31 1.175.31.307 0 .615-.029.923-.085.307-.056.559-.14.755-.225l.224 1.406c-.084.057-.224.085-.364.141-.14.056-.336.084-.503.113-.196.028-.392.056-.616.084-.224.028-.419.028-.643.028-.56 0-1.035-.084-1.427-.253-.419-.169-.755-.394-1.007-.675a2.31 2.31 0 0 1-.587-1.013 4.604 4.604 0 0 1-.196-1.265c0-.534.084-1.013.252-1.434.168-.422.391-.76.643-1.013.28-.281.588-.478.923-.619.364-.14.7-.196 1.091-.196.867 0 1.539.253 2.042.787.504.534.755 1.322.755 2.362v.338c0 .112-.028.225-.028.31h-3.916c.056.421.196.702.504.9zm-3.161-4.471v1.434h-2.07v2.165c0 .366.056.647.196.872.14.225.391.338.783.338.196 0 .364-.028.587-.057.196-.028.364-.084.532-.14l.252 1.35a4.106 4.106 0 0 1-.7.225 4.396 4.396 0 0 1-.951.084c-.475 0-.867-.056-1.174-.197-.308-.14-.56-.31-.756-.534-.196-.225-.307-.506-.391-.844-.084-.337-.112-.675-.112-1.097v-5.146l1.734-.281v1.8h2.07v.028zm-8.531 4.471c.279.197.699.31 1.174.31.308 0 .616-.029.923-.085.308-.056.56-.14.756-.225l.223 1.406c-.083.057-.223.085-.363.141-.14.056-.336.084-.504.113-.196.028-.391.056-.615.084-.224.028-.42.028-.643.028-.56 0-1.035-.084-1.427-.253-.42-.169-.755-.394-1.007-.675a2.29 2.29 0 0 1-.587-1.013 4.604 4.604 0 0 1-.196-1.265c0-.534.084-1.013.252-1.434.167-.422.391-.76.643-1.013.28-.281.587-.478.923-.619.364-.14.699-.196 1.091-.196.867 0 1.538.253 2.042.787.503.534.755 1.322.755 2.362v.338c0 .112-.028.225-.028.31h-3.916c.056.421.224.702.504.9zm-5.483-2.784c-.14-.225-.42-.338-.811-.338-.112 0-.252 0-.392.029-.14 0-.252.028-.363.028v4.725h-1.735v-5.935c.28-.084.672-.168 1.147-.225.476-.056.951-.112 1.455-.112.531 0 .951.056 1.286.197.336.14.616.337.812.59.195.253.335.535.419.9.084.338.14.732.14 1.153v3.46h-1.762v-3.29c0-.563-.056-.957-.196-1.182zm-4.252-1.603l-.279 1.434c-.168-.028-.336-.084-.532-.112-.196-.056-.42-.056-.671-.056-.112 0-.224 0-.392.028s-.252.028-.336.056v4.697h-1.734v-5.794a7.14 7.14 0 0 1 2.49-.45c.084 0 .195 0 .335.028.14 0 .252.028.392.056.14.029.252.057.392.057.139 0 .251.028.335.056zm-8.755 4.387c.308.197.699.31 1.175.31.308 0 .615-.029.923-.085.308-.056.559-.14.755-.225l.224 1.406c-.084.057-.224.085-.364.141a3.234 3.234 0 0 1-.503.113c-.196.028-.392.056-.616.084-.223.028-.419.028-.643.028-.559 0-1.035-.084-1.427-.253-.419-.169-.755-.394-1.007-.675-.251-.281-.475-.619-.587-1.013a4.604 4.604 0 0 1-.196-1.265c0-.534.084-1.013.252-1.434.168-.422.392-.76.643-1.013.28-.281.588-.478.923-.619.364-.14.7-.196 1.091-.196.867 0 1.539.253 2.042.787.504.534.756 1.322.756 2.362v.338c0 .112-.028.225-.028.31h-3.917c.028.421.196.702.504.9zm-6.657-4.528c.195-.056.419-.056.671-.056.42 0 .811.084 1.147.225.335.14.615.366.839.647.224.281.392.619.503 1.012.112.394.168.844.168 1.322 0 .478-.084.928-.223 1.322-.14.394-.364.731-.616 1.012-.28.282-.615.507-1.007.647-.391.14-.839.225-1.342.225-.196 0-.42 0-.644-.028l-.671-.084a5.133 5.133 0 0 1-.644-.113c-.195-.056-.391-.084-.531-.14v-8.578l1.734-.281v3.065c.196-.084.392-.169.616-.197zm-7.273 4.472c.14.253.42.366.811.366.112 0 .252 0 .392-.029.14 0 .251-.028.363-.028v-4.724h1.735v5.934a7.546 7.546 0 0 1-1.147.225c-.476.056-.951.112-1.455.112-.531 0-.951-.056-1.286-.197-.336-.14-.616-.337-.812-.59a2.436 2.436 0 0 1-.419-.9 4.814 4.814 0 0 1-.14-1.153v-3.403h1.734v3.206c0 .506.084.928.224 1.181zm-6.238-2.812c.168-.197.364-.394.532-.591.167-.197.335-.394.475-.563.14-.168.28-.337.392-.45h2.042c-.42.479-.811.929-1.203 1.35-.392.422-.811.872-1.287 1.322.224.197.476.45.727.76.252.28.476.59.728.9.252.309.447.618.643.928.196.309.364.59.476.843h-1.986a11.739 11.739 0 0 0-.42-.675c-.168-.253-.336-.478-.503-.73-.168-.254-.364-.479-.56-.704a3.658 3.658 0 0 0-.587-.562v2.7h-1.735v-8.775l1.735-.281v5.118c.168-.197.363-.394.531-.59zm-2.965 12.852v-5.456h63.161V90.88h-63.161V77.183zm53.678-36.645h-17.426l-.42-7.65c6.602.788 12.784 3.488 17.846 7.65zm-29.958-7.03a32.253 32.253 0 0 1 3.609-.62l-.42 7.65h-17.566a34.831 34.831 0 0 1 14.377-7.03zM202.124 97.6a35.724 35.724 0 0 1-4.055-3.066h5.314l-1.259 3.066zm26.77 4.696c-6.602 1.519-13.147 1.041-19.105-.984l3.72-6.778h15.077l3.748 6.806a43.872 43.872 0 0 1-3.44.956zm11.105-4.64l-1.287-3.122h5.426a38.029 38.029 0 0 1-4.139 3.122z" fill="#427AF4"/><path d="M241.453 83.427h-1.119v1.49h1.147c.56 0 .867-.31.867-.731v-.028c0-.478-.335-.731-.895-.731zm-41.986 0h-.895v3.15h.895c.923 0 1.567-.647 1.567-1.547V85c0-.928-.644-1.575-1.567-1.575zm9.539-6.244a.77.77 0 0 0 .167-.478v-.028c0-.506-.363-.788-.923-.788h-.895v1.603h.895c.364 0 .616-.112.756-.309zm-4.951 0a.77.77 0 0 0 .167-.478v-.028c0-.506-.363-.788-.923-.788h-.895v1.603h.895c.364 0 .616-.112.756-.309zm21.454 6.16c-.923 0-1.566.73-1.566 1.63v.028c0 .9.643 1.632 1.566 1.632s1.567-.732 1.567-1.632c0-.9-.644-1.659-1.567-1.659zm5.79.084h-.867v1.603h.895c.56 0 .895-.338.895-.788v-.028c0-.534-.335-.787-.923-.787z" fill="#fff"/><path d="M252.614 77.183v-5.456h-63.161V90.88h63.161V77.183zM228.53 74.85h4.308v1.069h-1.567v4.162h-1.147v-4.162h-1.566v-1.07h-.028zm-12.727 0h1.147v5.203h-1.147v-5.203zm-4.644 0h1.147v4.162h2.574v1.04h-3.721V74.85zm-14.993 5.23h-1.174l1.23-2.896 1.007-2.362h1.063l1.007 2.362 1.231 2.897h-1.203l-.475-1.181h-2.182l-.504 1.18zm6.042 4.922c0 1.463-1.119 2.616-2.741 2.616h-2.014v-5.203h2.014c1.622-.028 2.741 1.097 2.741 2.587zm.224-4.921h-1.147v-5.203h2.126c1.231 0 1.986.731 1.986 1.8v.028c0 .169-.028.338-.056.506-.224.872-1.035 1.322-2.042 1.322h-.867v1.547zm4.755 7.509h-3.944v-5.203h3.916v1.012h-2.769v1.07h2.434v1.012h-2.434v1.096h2.825v1.013h-.028zm.168-7.51h-1.147v-5.202h2.126c1.231 0 1.986.731 1.986 1.8v.028c0 .169-.028.338-.056.506-.223.872-1.035 1.322-2.042 1.322h-.867v1.547zm3.497 7.566h-1.007l-2.098-5.259h1.259l1.342 3.656 1.343-3.656h1.231l-2.07 5.26zm6.853-.056h-3.944v-5.203h3.916v1.012h-2.797v1.07h2.433v1.012h-2.433v1.096h2.825v1.013zm4.727 0h-3.72v-5.203h1.147v4.162h2.573v1.04zm-1.762-7.425c-1.539 0-2.657-1.181-2.657-2.671v-.029c0-.084 0-.197.028-.28.139-1.35 1.202-2.42 2.685-2.42.979 0 1.566.338 2.042.816l-.727.844c-.392-.366-.812-.59-1.315-.59-.783 0-1.371.59-1.483 1.35 0 .084-.028.168-.028.28v.029c0 .9.616 1.63 1.511 1.63.587 0 .951-.224 1.37-.618l.728.731c-.56.563-1.147.928-2.154.928zm7.608 4.837c0 1.491-1.175 2.7-2.769 2.7s-2.741-1.209-2.741-2.671V85c0-1.49 1.175-2.7 2.769-2.7s2.741 1.182 2.741 2.7zm-.727-4.921l-.475-1.181h-2.182l-.476 1.18h-1.147l1.231-2.896 1.007-2.362h1.063l1.007 2.362 1.231 2.897h-1.259zm5.846 4.106c0 1.21-.923 1.828-2.098 1.828h-.867v1.575h-1.147v-5.203h2.126c1.231 0 1.986.731 1.986 1.8zm.336-7.003v-2.306h1.147v5.203h-1.147v-2.897zm4.447 10.406h-3.944v-5.203h3.916v1.012h-2.769v1.07h2.434v1.012h-2.434v1.096h2.825v1.013h-.028zm-2.237-10.096c0-.113 0-.197.028-.31.139-1.35 1.258-2.419 2.741-2.419 1.51 0 2.601 1.041 2.741 2.42v.309c0 1.49-1.175 2.7-2.769 2.7-1.595-.029-2.741-1.238-2.741-2.7zm6.405 10.096l-1.119-1.66h-.895v1.66h-1.147v-5.203h2.378c.671 0 1.175.197 1.51.534.28.282.448.703.448 1.181v.029c0 .843-.447 1.378-1.119 1.603l1.259 1.856h-1.315zm4.728-7.51h-.98l-2.181-2.896-.308-.422v3.319h-1.119v-5.203h1.063l1.762 2.306.672.9v-3.206h1.118v5.203h-.027z" fill="#fff"/><path d="M197.733 76.199l-.42.984-.279.703h1.37l-.28-.703-.391-.984zm40.951-.366c-.811 0-1.427.59-1.539 1.35 0 .085-.027.169-.027.281v.029c0 .9.643 1.63 1.566 1.63s1.566-.73 1.566-1.63v-.029c0-.084 0-.196-.028-.28-.111-.76-.727-1.35-1.538-1.35zm-12.699.366l-.392.984-.28.703h1.371l-.28-.703-.419-.984zM212.25 50.466c0-.703-.475-1.04-1.23-1.04h-1.567v2.052h1.595c.755 0 1.202-.422 1.202-1.012zm35.021 1.125c0-1.294-.867-2.194-2.153-2.194h-1.231v4.331h1.231c1.286.028 2.153-.844 2.153-2.137z" fill="#fff"/><path d="M189.453 58.031h63.161V44.194h-63.161v13.837zm52.867-10.04h2.797c2.238 0 3.805 1.547 3.805 3.572v.028c0 2.025-1.567 3.6-3.805 3.6h-2.797v-7.2zm-6.853 0h5.399v1.406h-3.832v1.462h3.384v1.407h-3.384v1.518h3.888v1.407h-5.455v-7.2zm-3.357 0h1.567v7.2h-1.567v-7.2zm-6.797 0h5.455v1.434h-3.888v1.519h3.412v1.434h-3.412v2.784h-1.567v-7.171zm-3.356 0h1.566v7.2h-1.566v-7.2zm-7.217 0h5.93v1.462h-2.182v5.737h-1.566v-5.737h-2.182v-1.462zm-6.881 0h3.272c.924 0 1.623.253 2.098.731.392.394.616.956.616 1.631v.028c0 1.154-.616 1.885-1.539 2.222l1.763 2.56h-1.847l-1.538-2.307h-1.259v2.306h-1.566v-7.171zm-6.853 0h5.398v1.406h-3.832v1.462h3.385v1.407h-3.385v1.518h3.888v1.407h-5.454v-7.2zm-7.861 3.6c0-2.053 1.539-3.713 3.721-3.713 1.342 0 2.154.45 2.825 1.097l-1.007 1.153c-.56-.506-1.119-.815-1.818-.815-1.203 0-2.07 1.012-2.07 2.25v.028c0 1.237.839 2.25 2.07 2.25.811 0 1.314-.338 1.874-.844l1.007 1.012c-.727.788-1.567 1.294-2.937 1.294-2.098 0-3.665-1.631-3.665-3.712z" fill="#fff"/><path d="M196.81 55.303c1.37 0 2.21-.506 2.937-1.294l-1.007-1.012c-.56.506-1.063.844-1.874.844-1.231 0-2.07-1.041-2.07-2.25v-.028c0-1.238.867-2.25 2.07-2.25.727 0 1.286.31 1.818.815l1.007-1.153c-.671-.647-1.483-1.097-2.825-1.097-2.21 0-3.721 1.688-3.721 3.713v.028c0 2.053 1.567 3.684 3.665 3.684zm9.65-1.547h-3.888v-1.49h3.385v-1.407h-3.385v-1.462h3.832v-1.406h-5.398v7.2h5.454v-1.435zm2.993-.872h1.259l1.538 2.306h1.846l-1.762-2.559c.923-.337 1.539-1.068 1.539-2.221v-.029c0-.675-.224-1.237-.616-1.63-.475-.479-1.174-.732-2.098-.732h-3.272v7.172h1.566v-2.307zm0-3.487h1.567c.755 0 1.23.338 1.23 1.04v.029c0 .618-.447 1.012-1.202 1.012h-1.595v-2.08zm7.469 5.794h1.566v-5.738h2.182v-1.462h-5.93v1.462h2.182v5.737zm5.035-7.2h1.566v7.2h-1.566v-7.2zm4.923 4.387h3.44v-1.434h-3.44v-1.519h3.888v-1.434h-5.455v7.2h1.567v-2.813zm5.23-4.387h1.567v7.2h-1.567v-7.2zm8.812 5.765h-3.888v-1.49h3.356v-1.407h-3.356v-1.462h3.832v-1.406h-5.399v7.2h5.455v-1.435zm8-2.165c0-2.053-1.567-3.6-3.805-3.6h-2.797v7.2h2.797c2.238 0 3.805-1.575 3.805-3.6zm-5.035-2.194h1.23c1.287 0 2.154.9 2.154 2.166v.028c0 1.265-.867 2.137-2.154 2.137h-1.23v-4.33zm.391 14.962a1.117 1.117 0 0 0-.335-.281 1.331 1.331 0 0 0-.504-.113c-.196 0-.363.028-.503.113a.764.764 0 0 0-.336.253c-.084.112-.168.225-.224.365-.056.14-.084.282-.112.45h2.294c0-.14-.028-.281-.084-.422-.028-.14-.112-.253-.196-.365zm-30.182 0a1.105 1.105 0 0 0-.335-.281 1.331 1.331 0 0 0-.504-.113c-.195 0-.363.028-.503.113a.764.764 0 0 0-.336.253c-.084.112-.168.225-.224.365-.056.14-.084.282-.111.45h2.293c0-.14-.028-.281-.084-.422a1.518 1.518 0 0 0-.196-.365zm18.49 0a1.122 1.122 0 0 0-.336-.281 1.326 1.326 0 0 0-.503-.113c-.196 0-.364.028-.504.113a.761.761 0 0 0-.335.253c-.084.112-.168.225-.224.365-.056.14-.084.282-.112.45h2.294c0-.14-.028-.281-.084-.422-.028-.14-.112-.253-.196-.365zm-27.273 3.093c.084.029.196.029.336.029s.28.028.42.028c.475 0 .839-.17 1.062-.478.252-.338.364-.76.364-1.294 0-1.125-.419-1.688-1.231-1.688-.168 0-.363.029-.531.057a3.251 3.251 0 0 0-.42.168v3.178z" fill="#427AF4"/><path d="M190.152 60.084v8.775h1.735v-2.7c.196.168.391.337.587.562.196.225.392.45.56.703.167.253.335.478.503.731.168.254.308.478.42.675h1.986c-.14-.253-.308-.534-.476-.843-.196-.31-.419-.619-.643-.928-.224-.31-.476-.62-.727-.9-.252-.282-.476-.535-.728-.76.476-.45.895-.9 1.287-1.322.392-.421.783-.871 1.203-1.35h-2.042c-.112.141-.224.282-.392.45-.14.17-.307.366-.475.563-.168.197-.336.394-.532.59-.168.198-.363.394-.531.591v-5.118l-1.735.281zm6.546 2.644v3.402c0 .422.056.816.14 1.154.084.337.224.646.419.9.196.253.476.45.812.59.335.14.783.197 1.286.197.504 0 1.007-.028 1.455-.112.447-.085.839-.141 1.147-.225V62.7h-1.735v4.724c-.111.028-.223.028-.363.028-.14 0-.28.029-.392.029-.391 0-.671-.113-.811-.366s-.224-.647-.224-1.21V62.7h-1.734v.029zm6.909-2.644v8.578c.168.056.336.084.531.14.196.056.42.085.644.113l.671.084c.224.028.448.028.644.028.503 0 .951-.084 1.342-.225a2.662 2.662 0 0 0 1.623-1.66c.139-.393.223-.843.223-1.32 0-.479-.056-.929-.167-1.323a2.86 2.86 0 0 0-.504-1.012 2.115 2.115 0 0 0-.839-.647 2.98 2.98 0 0 0-1.147-.225c-.252 0-.476.028-.671.056-.196.057-.42.113-.616.197v-3.065l-1.734.281zm2.126 4.05c.168-.056.364-.056.531-.056.812 0 1.231.562 1.231 1.687 0 .534-.112.956-.364 1.294-.251.337-.587.478-1.062.478-.168 0-.308 0-.42-.028-.14 0-.252-.028-.336-.028v-3.15a.734.734 0 0 1 .42-.197zm10.294 1.912v-.337c0-1.04-.252-1.828-.756-2.363-.503-.534-1.174-.787-2.042-.787a2.99 2.99 0 0 0-1.091.197c-.363.14-.671.337-.923.618-.279.282-.475.62-.643 1.013-.168.422-.252.872-.252 1.434 0 .45.056.872.196 1.266s.336.731.588 1.012c.251.281.615.506 1.007.675.419.169.895.253 1.426.253.224 0 .42 0 .643-.028.224-.028.42-.056.616-.084.196-.028.363-.085.503-.113.168-.056.28-.084.364-.14l-.224-1.407a3.491 3.491 0 0 1-.755.226 5.127 5.127 0 0 1-.923.084c-.504 0-.895-.113-1.175-.31-.308-.196-.448-.506-.503-.843h3.916c0-.14.028-.253.028-.366zm-3.944-.872c.028-.14.055-.28.111-.45.056-.14.112-.28.224-.365a.765.765 0 0 1 .336-.253c.14-.057.308-.113.503-.113.196 0 .364.028.504.113.14.056.252.168.336.28.083.113.167.226.195.367.056.14.056.28.084.421h-2.293zm8.139-2.559c-.139 0-.251-.028-.335-.028a6.92 6.92 0 0 0-1.399.14 7.47 7.47 0 0 0-1.091.31v5.793h1.734v-4.696c.084-.028.196-.056.336-.056s.28-.029.392-.029c.252 0 .475.028.671.057.196.056.392.084.532.112l.279-1.434c-.084-.028-.196-.084-.335-.113-.14-.028-.252-.056-.392-.056-.14.028-.28 0-.392 0zm7.301 6.244v-3.46a5 5 0 0 0-.14-1.153 2.436 2.436 0 0 0-.419-.9c-.196-.253-.476-.45-.812-.59-.335-.14-.783-.197-1.286-.197-.504 0-1.007.028-1.455.112-.447.085-.839.141-1.147.225v5.934h1.735v-4.724c.112-.028.223-.028.363-.028.14 0 .28-.029.392-.029.391 0 .671.113.811.338.14.225.224.619.224 1.181v3.262h1.734v.029zm6.993-2.813v-.337c0-1.04-.252-1.828-.755-2.363-.504-.534-1.175-.787-2.042-.787-.364 0-.727.056-1.091.197a2.33 2.33 0 0 0-.923.618c-.28.282-.476.62-.643 1.013-.168.422-.252.872-.252 1.434 0 .45.056.872.196 1.266.139.394.335.731.587 1.012.28.281.615.506 1.007.675a3.8 3.8 0 0 0 1.427.253c.223 0 .419 0 .643-.028.224-.028.42-.056.615-.084.196-.028.364-.085.504-.113.14-.028.28-.084.363-.14l-.223-1.407a3.502 3.502 0 0 1-.756.226 5.118 5.118 0 0 1-.923.084c-.503 0-.895-.113-1.174-.31-.308-.196-.448-.506-.504-.843h3.916c.028-.14.028-.253.028-.366zm-3.944-.872c.028-.14.056-.28.112-.45.056-.14.112-.28.224-.365a.768.768 0 0 1 .335-.253c.14-.057.308-.113.504-.113s.364.028.503.113c.14.056.252.168.336.28.084.113.168.226.196.367.056.14.056.28.084.421h-2.294zm5.231-3.993v5.146c0 .394.028.76.112 1.097.084.338.196.59.391.844.196.225.42.422.756.534.307.14.699.197 1.174.197.364 0 .672-.028.951-.084.28-.056.476-.14.7-.225l-.252-1.35c-.168.056-.336.112-.531.14-.196.029-.392.057-.588.057-.392 0-.643-.113-.783-.338-.14-.225-.196-.506-.196-.872v-2.165h2.07v-1.434h-2.07v-1.8l-1.734.253zm10.405 4.865v-.337c0-1.04-.251-1.828-.755-2.363-.503-.534-1.175-.787-2.042-.787a2.99 2.99 0 0 0-1.091.197c-.363.14-.671.337-.923.618-.279.282-.475.62-.643 1.013-.168.422-.252.872-.252 1.434 0 .45.056.872.196 1.266s.336.731.587 1.012c.28.281.616.506 1.007.675a3.8 3.8 0 0 0 1.427.253c.224 0 .419 0 .643-.028.224-.028.42-.056.616-.084.195-.028.363-.085.503-.113.14-.028.28-.084.364-.14l-.224-1.407a3.509 3.509 0 0 1-.755.226 5.135 5.135 0 0 1-.923.084c-.504 0-.895-.113-1.175-.31-.308-.196-.448-.506-.504-.843h3.916c.028-.14.028-.253.028-.366zm-3.944-.872c.028-.14.056-.28.112-.45.056-.14.112-.28.224-.365a.765.765 0 0 1 .336-.253c.14-.057.307-.113.503-.113s.364.028.504.113c.14.056.251.168.335.28.084.113.168.226.196.367.056.14.056.28.084.421h-2.294zm7.721 2.335c-.14.056-.364.084-.672.084-.307 0-.615-.028-.923-.112a4.766 4.766 0 0 1-.895-.282l-.28 1.406c.14.057.392.141.756.225.363.085.811.141 1.342.141.839 0 1.455-.169 1.93-.478.448-.31.672-.76.672-1.378 0-.253-.028-.478-.084-.675a1.475 1.475 0 0 0-.308-.534c-.14-.17-.336-.31-.587-.45a6.358 6.358 0 0 0-.951-.422c-.196-.056-.336-.14-.448-.197-.112-.056-.224-.113-.28-.169a.713.713 0 0 1-.139-.169c-.028-.056-.028-.112-.028-.197 0-.309.279-.45.811-.45.279 0 .559.029.783.085.224.056.447.112.643.197l.308-1.35c-.196-.084-.476-.14-.811-.225a6.483 6.483 0 0 0-1.063-.113c-.755 0-1.315.17-1.762.507-.42.337-.644.787-.644 1.378 0 .309.056.534.14.759.084.197.196.394.364.534.168.14.335.282.559.394.224.112.476.225.727.31.336.14.616.252.784.365.168.112.251.225.251.366 0 .253-.056.393-.195.45z" fill="#fff"/><path d="M199.299 80.08h1.203l-1.231-2.897-1.007-2.362h-1.063l-1.007 2.362-1.23 2.897h1.174l.476-1.181h2.182l.503 1.18zm-2.265-2.194l.279-.703.392-.984.391.984.28.703h-1.342zm8.279-.703c.028-.14.056-.31.056-.506v-.028c0-1.069-.755-1.8-1.986-1.8h-2.126v5.203h1.147v-1.575h.867c1.007.028 1.818-.422 2.042-1.294zm-2.881 0V75.89h.895c.56 0 .923.282.923.788v.028a.711.711 0 0 1-.168.478c-.139.197-.391.31-.727.31h-.895v-.31h-.028zm7.832 0c.028-.14.056-.31.056-.506v-.028c0-1.069-.755-1.8-1.986-1.8h-2.126v5.203h1.147v-1.575h.867c1.007.028 1.819-.422 2.042-1.294zm-2.909 0V75.89h.895c.56 0 .923.282.923.788v.028a.716.716 0 0 1-.167.478c-.14.197-.392.31-.728.31h-.895v-.31h-.028zm7.553 2.897v-1.04h-2.602v-4.191h-1.147v5.23h3.749zm2.042 0v-5.231h-1.147v5.23h1.147zm5.119-1.575c-.42.366-.784.619-1.371.619-.895 0-1.511-.731-1.511-1.631v-.029c0-.084 0-.197.028-.28.112-.76.7-1.35 1.483-1.35.531 0 .923.224 1.315.59l.727-.844c-.476-.478-1.063-.816-2.042-.816-1.483 0-2.546 1.07-2.685 2.42 0 .084-.028.196-.028.28v.029c0 1.49 1.118 2.671 2.657 2.671 1.007 0 1.594-.365 2.126-.928l-.699-.731zm4.475-3.684h-1.063l-1.007 2.362-1.231 2.897h1.175l.476-1.181h2.182l.475 1.18h1.203l-1.231-2.896-.979-2.362zm-1.231 3.065l.28-.703.392-.984.391.984.28.703h-1.343zm4.783-.703v2.897h1.147v-4.162h1.567v-1.07h-4.28v1.07h1.566v1.265zm4.784 0V74.85h-1.147v5.23h1.147v-2.896zm6.573.281v-.28c-.14-1.35-1.231-2.42-2.741-2.42-1.483 0-2.602 1.07-2.741 2.42 0 .084-.028.196-.028.28v.029c0 1.49 1.146 2.671 2.741 2.671 1.594 0 2.769-1.21 2.769-2.7zm-1.203.029c0 .9-.643 1.63-1.566 1.63s-1.567-.73-1.567-1.63v-.029c0-.084 0-.197.028-.28.112-.76.7-1.35 1.539-1.35.811 0 1.426.59 1.538 1.35.028.084.028.196.028.309zm5.707-2.644v3.206l-.7-.872-1.734-2.334h-1.063v5.23h1.119v-3.318l.336.422 2.181 2.897h.98v-5.231h-1.119zm-46.49 7.537h-2.014v5.203h2.014c1.622 0 2.741-1.125 2.741-2.616v-.028c0-1.434-1.119-2.559-2.741-2.559zm1.567 2.615c0 .929-.616 1.547-1.567 1.547h-.895v-3.15h.895c.923.029 1.567.675 1.567 1.603zm3.328.479h2.462v-1.013h-2.462v-1.069h2.769v-1.012h-3.888v5.203h3.944v-1.013h-2.825V85.48zm6.014.562l-1.37-3.656h-1.259l2.098 5.26h1.007l2.098-5.26h-1.231l-1.343 3.656zm4.504-.562h2.433v-1.013h-2.433v-1.069h2.769v-1.012h-3.916v5.203h3.972v-1.013h-2.825V85.48zm4.979-3.094h-1.147v5.203h3.72v-1.04h-2.573v-4.163zm5.678-.084c-1.594 0-2.769 1.209-2.769 2.7v.028c0 1.49 1.147 2.671 2.741 2.671s2.769-1.209 2.769-2.7v-.028c0-1.49-1.147-2.671-2.741-2.671zm1.539 2.7c0 .9-.644 1.63-1.567 1.63-.923 0-1.566-.73-1.566-1.63v-.029c0-.9.643-1.63 1.566-1.63s1.567.758 1.567 1.658zm4.335-2.616h-2.126v5.203h1.147v-1.575h.867c1.175 0 2.098-.619 2.098-1.828v-.028c0-1.04-.755-1.772-1.986-1.772zm.811 1.828c0 .45-.335.787-.895.787h-.895v-1.603h.867c.588.029.923.282.923.816zm3.133 1.266h2.462v-1.013h-2.462v-1.069h2.797v-1.012h-3.916v5.203h3.944v-1.013h-2.825V85.48zm8.168-1.35c0-.507-.168-.928-.448-1.21-.335-.337-.839-.534-1.51-.534h-2.378v5.203h1.147v-1.66h.895l1.119 1.66h1.343l-1.259-1.856c.644-.253 1.091-.788 1.091-1.603zm-1.175.056c0 .45-.307.731-.867.731h-1.147v-1.49h1.119c.56 0 .895.253.895.759zm-115.027-5.114c-.332-.06-.754-.181-1.055-.241-1.266-.211-2.291-.181-3.467-.302-2.562-.24-4.612-.482-6.511-1.085-.753-.302-1.296-1.206-1.567-1.568l-1.477-.422a47.455 47.455 0 0 0-.754-16.942 47.547 47.547 0 0 0-6.782-15.737c.392-.362 1.085-.965 1.266-1.146.06-.633 0-1.326.663-2.05 1.447-1.326 3.225-2.442 5.396-3.798 1.025-.603 1.989-.995 3.044-1.749.211-.15.543-.452.784-.633 1.748-1.417 2.14-3.798.904-5.366-1.235-1.568-3.677-1.718-5.425-.332-.242.181-.573.453-.784.633-.995.845-1.568 1.659-2.382 2.563-1.778 1.809-3.285 3.346-4.883 4.431-.693.423-1.718.242-2.2.242l-1.357.995c-7.867-8.26-18.598-13.536-30.143-14.592-.03-.482-.06-1.356-.09-1.627-.483-.453-1.056-.845-1.177-1.81-.15-1.959.09-4.039.422-6.571.151-1.176.453-2.171.513-3.437V7.503c0-2.231-1.628-4.01-3.647-4.01-2.02 0-3.648 1.81-3.648 4.01v.09c0 .302-.03.664 0 .935.03 1.266.332 2.26.513 3.437.331 2.532.572 4.612.422 6.572-.151.723-.694 1.417-1.176 1.869l-.09 1.537c-2.17.181-4.371.513-6.572 1.025a46.579 46.579 0 0 0-23.723 13.566c-.422-.301-1.115-.753-1.296-.934-.633.09-1.296.301-2.17-.211-1.628-1.086-3.105-2.623-4.884-4.432-.844-.874-1.416-1.688-2.381-2.562-.211-.181-.573-.453-.784-.633-.753-.603-1.658-.935-2.532-.965-1.115-.03-2.2.392-2.894 1.266-1.236 1.568-.874 3.95.905 5.366.03 0 .03.03.06.03.241.181.543.453.754.603 1.024.754 1.99 1.146 2.984 1.749 2.17 1.326 3.979 2.442 5.395 3.798.543.603.664 1.628.724 2.11l1.145 1.056c-6.27 9.315-9.193 20.892-7.475 32.71l-1.537.452c-.422.512-.965 1.326-1.568 1.567-1.869.573-3.979.784-6.511 1.085-1.176.091-2.23.03-3.467.302-.301.06-.663.15-.964.211h-.09c-2.14.513-3.497 2.502-3.075 4.432.422 1.93 2.532 3.135 4.702 2.653h.06c.03 0 .03-.03.06-.03.302-.06.664-.121.935-.212 1.236-.331 2.14-.844 3.256-1.236 2.381-.874 4.4-1.597 6.33-1.839.784-.06 1.658.513 2.08.724l1.597-.301c3.648 11.305 11.274 20.409 20.92 26.167l-.663 1.598c.211.603.512 1.447.332 2.05-.694 1.809-1.9 3.768-3.286 5.909-.663.995-1.326 1.748-1.96 2.894-.15.301-.331.693-.482.995-.934 2.02-.24 4.311 1.538 5.155 1.808.874 4.039-.03 5.004-2.05.12-.302.331-.663.452-.935.512-1.175.663-2.2 1.055-3.316.964-2.412 1.507-4.944 2.803-6.542.362-.452.965-.603 1.568-.754l.843-1.507a47.232 47.232 0 0 0 27.28 1.99 46.467 46.467 0 0 0 6.21-1.869c.211.422.663 1.206.754 1.417.603.181 1.296.331 1.838 1.115.995 1.688 1.658 3.708 2.502 6.09.362 1.145.543 2.14 1.055 3.316.121.241.332.633.453.935.964 2.019 3.225 2.924 5.004 2.049 1.778-.874 2.501-3.165 1.537-5.155-.12-.301-.332-.693-.482-.994-.603-1.146-1.266-1.9-1.96-2.895-1.356-2.14-2.532-3.919-3.225-5.788-.302-.965.06-1.537.301-2.14-.12-.151-.452-1.055-.603-1.477 10.038-5.939 17.454-15.406 20.92-26.349.482.06 1.266.211 1.568.302.542-.362 1.055-.845 2.049-.754 1.96.301 3.919.995 6.331 1.839 1.115.422 2.019.934 3.255 1.236.241.06.633.12.934.18.031 0 .031.03.061.03h.06c2.14.483 4.25-.692 4.702-2.652.453-1.809-.904-3.799-3.044-4.311zm-26.738-33.795V60.17H32.399V45.277h68.184zM90.425 70.48c.332.211.754.362 1.266.362.362 0 .663-.03 1.025-.09.332-.061.603-.151.844-.242l.241 1.598c-.09.06-.21.09-.422.15-.15.06-.362.091-.573.121-.21.03-.422.06-.663.09-.21.03-.482.03-.693.03-.603 0-1.115-.09-1.568-.3a4.265 4.265 0 0 1-1.115-.754 2.753 2.753 0 0 1-.633-1.116c-.12-.452-.21-.904-.21-1.417 0-.603.09-1.145.3-1.598.181-.452.423-.844.694-1.145a2.582 2.582 0 0 1 1.025-.693c.392-.151.753-.212 1.175-.212.965 0 1.688.302 2.231.905.543.603.844 1.477.844 2.653v.392c0 .12-.03.241-.03.362h-4.25c0 .361.18.663.512.904zm-5.727-7.054v2.05h2.26v1.627h-2.26v2.412c0 .422.06.724.21.995.121.241.423.362.845.362.18 0 .422-.03.633-.06.21-.03.422-.09.573-.151l.24 1.537c-.21.09-.482.181-.753.242-.301.06-.603.09-1.025.09-.512 0-.964-.06-1.266-.211a1.818 1.818 0 0 1-.784-.603 2.224 2.224 0 0 1-.422-.935c-.09-.361-.12-.753-.12-1.205v-5.789l1.869-.361zM95.58 70.51c.331.12.633.211.994.332.362.06.663.09.995.09.362 0 .603-.03.724-.09.12-.06.21-.181.21-.422 0-.151-.09-.302-.3-.422-.182-.121-.483-.242-.875-.392-.302-.12-.573-.211-.784-.362-.24-.12-.452-.241-.603-.452-.15-.211-.301-.392-.392-.603-.09-.211-.12-.513-.12-.874 0-.634.21-1.146.693-1.538.483-.392 1.115-.573 1.9-.573.421 0 .783.03 1.175.09.392.061.663.151.904.242l-.331 1.537c-.211-.06-.453-.15-.694-.21a3.71 3.71 0 0 0-.874-.091c-.603 0-.904.15-.904.512 0 .06 0 .151.03.211s.06.121.15.181c.091.06.182.12.332.181.12.06.302.12.513.211.422.15.753.332 1.025.483.24.15.482.331.633.512.15.18.241.392.331.603.06.211.091.482.091.754 0 .663-.242 1.175-.724 1.537-.482.362-1.175.513-2.11.513-.603 0-1.085-.06-1.477-.151a8.56 8.56 0 0 1-.844-.241l.332-1.568zm-17.936-.03c.332.211.754.362 1.266.362.362 0 .663-.03 1.025-.09.332-.061.603-.151.844-.242l.241 1.598c-.09.06-.21.09-.422.15-.15.06-.361.091-.573.121-.21.03-.422.06-.663.09-.21.03-.482.03-.693.03-.603 0-1.115-.09-1.567-.3a4.267 4.267 0 0 1-1.116-.754 2.754 2.754 0 0 1-.633-1.116c-.12-.452-.21-.904-.21-1.417 0-.603.09-1.145.3-1.598.181-.452.423-.844.694-1.145a2.689 2.689 0 0 1 1.025-.693c.392-.151.753-.212 1.175-.212.965 0 1.688.302 2.231.905.543.603.844 1.477.844 2.653v.392c0 .12-.03.241-.03.362h-4.25c.03.361.21.663.512.904zm-5.757 1.839V68.67c0-.633-.09-1.085-.242-1.326-.15-.242-.452-.392-.904-.392-.12 0-.301 0-.422.03-.15 0-.301.03-.422.03v5.306h-1.869v-6.632c.332-.09.724-.181 1.236-.242.513-.06 1.055-.12 1.598-.12.573 0 1.025.06 1.417.21.391.152.663.393.904.634.21.301.392.603.482.995.09.392.12.784.12 1.266v3.889h-1.898zM57.478 70.48c.332.211.754.362 1.266.362.362 0 .663-.03 1.025-.09.331-.061.603-.151.844-.242l.241 1.598c-.09.06-.21.09-.422.15-.15.06-.362.091-.573.121-.21.03-.422.06-.663.09-.21.03-.482.03-.693.03-.603 0-1.115-.09-1.568-.3a4.268 4.268 0 0 1-1.115-.754 2.754 2.754 0 0 1-.633-1.116c-.12-.452-.21-.904-.21-1.417 0-.603.09-1.145.3-1.598.181-.452.422-.844.694-1.145a2.689 2.689 0 0 1 1.025-.693c.392-.151.753-.212 1.175-.212.965 0 1.688.302 2.23.905.543.603.845 1.477.845 2.653v.392c0 .12-.03.241-.03.362h-4.28c.03.361.21.663.542.904zm7.476-3.497c-.151.03-.302.03-.392.06v5.276h-1.87v-6.512c.363-.12.724-.21 1.207-.362.452-.09.964-.15 1.537-.15.09 0 .21 0 .392.03.12 0 .301.03.422.06.12.03.301.06.422.06.12.03.241.06.392.09l-.332 1.599c-.15-.03-.392-.09-.603-.12a5.39 5.39 0 0 0-.723-.061c-.15 0-.272 0-.452.03zm-26.888 3.316c.24.362.482.694.693 1.055.21.362.392.663.542.965h-2.17c-.12-.211-.301-.482-.452-.754-.15-.271-.362-.542-.543-.844-.18-.301-.392-.543-.603-.784-.21-.24-.422-.482-.633-.633v3.045h-1.868v-9.858l1.868-.332v5.728c.181-.21.392-.422.573-.633.181-.21.392-.452.573-.663.18-.211.362-.452.512-.633.151-.181.332-.392.422-.513h2.23c-.451.543-.903 1.056-1.295 1.538-.422.482-.905.995-1.417 1.507.241.211.512.513.784.844.271.272.542.633.784.965zm2.05-1.055v-3.829h1.868v3.618c0 .633.09 1.085.241 1.356.151.302.453.423.905.423.12 0 .301 0 .422-.03.15 0 .301-.03.422-.03v-5.307h1.869v6.603c-.332.09-.724.18-1.236.24-.513.061-1.055.121-1.598.121-.573 0-1.025-.06-1.417-.21-.392-.151-.663-.393-.904-.664-.211-.301-.392-.603-.482-1.025-.03-.362-.09-.784-.09-1.266zm7.535-6.783l1.87-.332v3.407c.21-.09.421-.15.662-.211.211-.06.483-.06.724-.06.482 0 .904.09 1.236.24.331.151.663.423.934.724.241.332.422.694.543 1.116.12.422.18.934.18 1.477s-.06 1.055-.21 1.507c-.151.452-.392.844-.664 1.146-.301.331-.663.543-1.085.723-.452.151-.934.242-1.477.242-.21 0-.482 0-.693-.03l-.724-.091c-.24-.03-.482-.06-.693-.12a2.627 2.627 0 0 1-.573-.151V62.46h-.03zM32.398 75.273h68.185v14.893H32.399V75.273zm57.334-35.875H71.495l-.452-7.778a37.151 37.151 0 0 1 18.689 7.778zM58.08 32.253a35.645 35.645 0 0 1 3.858-.663l-.452 7.778H43.07a38.674 38.674 0 0 1 15.012-7.114zm-11.847 68.374a35.6 35.6 0 0 1-5.938-4.733h7.868l-1.93 4.733zm28.727 5.035c-7.083 1.597-14.107 1.115-20.467-1.056l4.793-8.682h14.59l4.822 8.713a64.335 64.335 0 0 1-3.738 1.025zm11.877-4.945l-1.99-4.793h8.019c-1.809 1.779-3.859 3.376-6.029 4.793z" fill="#427AF4"/><path d="M92.294 67.706c-.03-.15-.12-.301-.211-.422a1.04 1.04 0 0 0-.392-.301 1.44 1.44 0 0 0-1.085-.03.772.772 0 0 0-.392.301c-.09.12-.18.241-.211.422-.06.151-.09.332-.12.483h2.501l-.09-.453zm-33.158-.422a1.038 1.038 0 0 0-.392-.301 1.439 1.439 0 0 0-1.085-.03.772.772 0 0 0-.392.301c-.09.12-.18.241-.211.422-.06.151-.09.332-.12.483h2.501c0-.151-.03-.332-.09-.483-.09-.18-.12-.271-.211-.392zm20.166 0a1.039 1.039 0 0 0-.392-.301 1.44 1.44 0 0 0-1.085-.03.772.772 0 0 0-.392.301c-.09.12-.18.241-.21.422-.061.151-.091.332-.121.483h2.501c0-.151-.03-.332-.09-.483-.06-.18-.09-.271-.211-.392zM49.52 70.751c.09.03.211.03.362.03.15 0 .301.03.482.03.513 0 .904-.18 1.176-.542.24-.362.392-.874.392-1.477 0-1.236-.453-1.87-1.327-1.87-.18 0-.392.03-.572.06-.181.061-.362.121-.453.182v3.587h-.06z" fill="#427AF4"/><path d="M92.867 55.196c1.356 0 2.26-.935 2.26-2.261v-.03c0-1.327-.934-2.262-2.26-2.262H91.6v4.553h1.266zm-37.59-2.412c.784 0 1.267-.453 1.267-1.086v-.03c0-.693-.513-1.085-1.297-1.085H53.59v2.17h1.688v.03z" fill="#fff"/><path d="M32.398 45.277V60.17h68.185V45.277H32.398zm7.325 11.546c-2.23 0-3.888-1.718-3.888-3.889v-.03c0-2.14 1.628-3.919 3.949-3.919 1.447 0 2.26.483 2.954 1.176l-1.055 1.206c-.573-.543-1.176-.874-1.96-.874-1.266 0-2.2 1.055-2.2 2.351v.03c0 1.296.904 2.352 2.2 2.352.874 0 1.417-.362 1.99-.905l1.055 1.086c-.724.874-1.598 1.416-3.045 1.416zm10.43-.12h-5.727v-7.567h5.697v1.477h-4.04v1.538h3.588v1.477h-3.587v1.598h4.1v1.507h-.03v-.03zm6.36 0l-1.627-2.412h-1.297v2.412h-1.657v-7.567h3.436c.965 0 1.688.241 2.2.754.422.422.633 1.025.633 1.718v.03c0 1.206-.663 1.99-1.627 2.321l1.838 2.714h-1.899v.03zm9.224-6.03h-2.29v6.03h-1.659v-6.03h-2.29v-1.537h6.24v1.537zm3.286 6.03h-1.658v-7.567h1.658v7.567zm20.92-7.567h2.924c2.35 0 4.009 1.628 4.009 3.768v.03c0 2.14-1.628 3.799-4.01 3.799h-2.923v-7.597zm-1.809 0v1.477h-4.04v1.538h3.588v1.477h-3.587v1.598h4.1v1.477h-5.728v-7.567h5.667zm-7.867 0v7.567h-1.658v-7.567h1.658zm-3.346 1.507h-4.07v1.598h3.618v1.507H72.85v2.925h-1.658v-7.567h5.728v1.537zm12.359 30.54c-.875 0-1.478.693-1.478 1.537s.603 1.537 1.508 1.537c.874 0 1.477-.693 1.477-1.537-.03-.844-.633-1.538-1.507-1.538zm-8.802 1.959l-.663-1.598-.664 1.598h1.327z" fill="#fff"/><path d="M100.583 90.196V75.304H32.398v14.892h68.185zM46.325 82.72c0 1.356-1.055 2.442-2.623 2.442h-1.899v-4.884h1.9c1.537 0 2.622 1.025 2.622 2.442zm3.406 1.326l-1.356-2.08v3.196H47.32v-4.884h1.175l1.266 2.08 1.266-2.08h1.176v4.914h-1.085v-3.226l-1.387 2.08zm36.534-2.804h-1.507v3.92h-1.085v-3.92h-1.477v-.964h4.07v.995-.03zm5.607 1.478c0 1.416-1.115 2.562-2.623 2.562-1.537 0-2.622-1.115-2.622-2.532s1.115-2.563 2.622-2.563c1.538 0 2.623 1.116 2.623 2.533zm4.672-1.96c.302.301.422.663.422 1.115 0 .784-.422 1.267-1.055 1.538l1.206 1.749H95.85l-1.055-1.568h-.844v1.568h-1.085v-4.884h2.23c.603 0 1.116.18 1.447.482zm-17.242-.543h.995l2.11 4.945h-1.115l-.453-1.116h-2.08l-.452 1.115h-1.115l2.11-4.944zm-6.752.06h2.23c.633 0 1.116.151 1.447.513.302.302.422.663.422 1.116 0 .783-.422 1.266-1.055 1.537l1.206 1.749h-1.266l-1.055-1.568h-.844v1.568H72.55v-4.914zm-4.883 0h4.069v.996h-1.507v3.919h-1.055v-3.92h-1.507v-.994zm-2.532 2.925c-.995-.241-1.628-.543-1.628-1.507 0-.905.693-1.478 1.718-1.478.693 0 1.326.212 1.809.633l-.573.845c-.452-.302-.874-.483-1.266-.483-.422 0-.633.181-.633.422 0 .332.21.422 1.055.633.995.242 1.567.603 1.567 1.478 0 .995-.723 1.537-1.808 1.537-.724 0-1.508-.241-2.08-.784l.633-.753c.452.361.904.603 1.477.603.452 0 .693-.151.693-.483 0-.301-.15-.452-.965-.663zm-3.799-2.924h1.086v4.914h-1.086v-4.914zm-5.576 0h.995l2.29 3.045v-3.045H60.1v4.914h-.934l-2.381-3.136v3.136H55.76v-4.914zm-1.266 0v4.914h-1.085v-4.914h1.085zm-16.55-.06h.996l2.11 4.944h-1.116l-.452-1.116h-2.08l-.452 1.115h-1.115l2.11-4.944z" fill="#fff"/><path d="M38.427 81.544l-.633 1.598h1.266l-.633-1.598zm56.58-.302h-1.085v1.417h1.085c.512 0 .844-.301.844-.693.03-.482-.302-.724-.844-.724zm-51.275 0h-.843v2.955h.843c.905 0 1.477-.603 1.477-1.477-.03-.875-.602-1.478-1.477-1.478zm31.862.724c0-.482-.331-.693-.874-.693h-1.085v1.416h1.085c.543-.03.874-.331.874-.723z" fill="#fff"/><path d="M42.828 55.437l-1.055-1.086c-.603.543-1.115.905-1.99.905-1.296 0-2.2-1.086-2.2-2.352v-.03c0-1.296.935-2.351 2.2-2.351.754 0 1.327.331 1.96.874l1.055-1.206c-.693-.693-1.567-1.176-2.954-1.176-2.321 0-3.949 1.749-3.949 3.92v.03c0 2.17 1.658 3.888 3.889 3.888 1.386-.03 2.26-.572 3.044-1.416zm3.256-1.81h3.526V52.12h-3.526v-1.537h4.039v-1.447h-5.697v7.567h5.727v-1.508h-4.07v-1.567zm12.148-1.989c0-.724-.211-1.326-.633-1.748-.513-.513-1.236-.754-2.2-.754h-3.467v7.567h1.657V54.29h1.297l1.627 2.412h1.96l-1.839-2.714c.934-.361 1.598-1.115 1.598-2.351zm-4.642 1.146v-2.17h1.657c.784 0 1.297.391 1.297 1.084v.03c0 .634-.483 1.086-1.266 1.086H53.59v-.03zm5.877-3.648v1.537h2.322v6.03h1.657v-6.03h2.291v-1.537h-6.27zm7.898 0h1.658v7.567h-1.658v-7.567zm3.828 0v7.567h1.658v-2.955h3.587v-1.507h-3.587v-1.598h4.07v-1.507h-5.728zm7.416 0h1.658v7.567h-1.658v-7.567zm3.798 7.567h5.787v-1.508h-4.13v-1.567h3.588V52.12h-3.587v-1.537h4.07v-1.447h-5.728v7.567zm10.46 0c2.35 0 4.009-1.658 4.009-3.799v-.03c0-2.14-1.628-3.768-4.01-3.768h-2.923v7.567h2.924v.03zm-1.266-6.06h1.266c1.356 0 2.26.935 2.26 2.261v.03c0 1.327-.934 2.261-2.26 2.261H91.6v-4.552zM36.92 85.162l.452-1.116h2.08l.452 1.115h1.115l-2.11-4.944h-.994l-2.11 4.945h1.115zm1.507-3.618l.633 1.598h-1.296l.663-1.598zm5.306-1.266h-1.9v4.914h1.9c1.537 0 2.622-1.086 2.622-2.442-.03-1.447-1.115-2.472-2.622-2.472zm1.446 2.472c0 .874-.602 1.477-1.477 1.477h-.844v-2.954h.844c.905-.03 1.477.572 1.477 1.477zm5.939 2.412h1.085v-4.884h-1.176l-1.266 2.05-1.326-2.05h-1.146v4.883h1.055v-3.165l1.387 2.05h.03l1.357-2.05v3.166zm2.29-4.884h1.086v4.914h-1.085v-4.914zm3.377 1.778l2.411 3.106h.935v-4.884h-1.086v3.014l-2.32-3.014h-.965v4.883h1.025v-3.105zm4.551-1.778h1.086v4.914h-1.086v-4.914zm4.07 4.01c-.573 0-1.025-.212-1.477-.604l-.633.754c.572.543 1.326.784 2.08.784 1.055 0 1.808-.543 1.808-1.538 0-.874-.572-1.206-1.567-1.477-.874-.21-1.055-.331-1.055-.633 0-.211.21-.422.633-.422.422 0 .844.18 1.266.482l.573-.844c-.513-.422-1.116-.633-1.81-.633-.994 0-1.717.573-1.717 1.477 0 .995.633 1.236 1.628 1.508.843.21.994.361.994.633-.03.361-.271.512-.723.512zm3.768.874h1.085v-3.92h1.507v-.964h-4.1v.964h1.508v3.92zm4.461-1.538h.844l1.055 1.568H76.8l-1.206-1.749c.633-.21 1.055-.723 1.055-1.537 0-.483-.15-.875-.422-1.116-.331-.331-.783-.512-1.447-.512h-2.23v4.914h1.085v-1.568zm0-2.382h1.085c.543 0 .874.211.874.694 0 .422-.301.693-.844.693h-1.085v-1.417h-.03v.03zm5.124 2.834h2.08l.453 1.116h1.115l-2.11-4.944h-.995l-2.11 4.944h1.115l.452-1.116zm1.055-2.532l.634 1.598H79.15l.663-1.598zm2.412-.302h1.447v3.92h1.085v-3.92h1.507v-.964h-4.039v.964zm7.084-1.055c-1.538 0-2.623 1.146-2.623 2.563 0 1.417 1.085 2.532 2.623 2.532 1.537 0 2.622-1.145 2.622-2.562-.06-1.417-1.145-2.533-2.622-2.533zm1.447 2.563c0 .844-.603 1.537-1.477 1.537-.875 0-1.508-.693-1.508-1.537s.603-1.538 1.477-1.538c.905-.03 1.508.663 1.508 1.538zm2.08-2.472v4.914h1.085v-1.568h.844l1.055 1.568h1.266l-1.206-1.749c.633-.21 1.055-.723 1.055-1.537 0-.483-.15-.875-.422-1.116-.331-.331-.784-.512-1.447-.512h-2.23zm3.044 1.688c0 .422-.301.693-.844.693h-1.085v-1.417h1.085c.512 0 .844.242.844.724z" fill="#427AF4"/><path d="M36.528 68.46c.513-.512.965-1.025 1.417-1.507.422-.483.874-.995 1.296-1.538h-2.23c-.121.151-.242.332-.423.513-.15.18-.361.422-.512.633-.18.21-.392.452-.573.663-.18.211-.392.452-.572.633V62.13l-1.87.332v9.828h1.87v-3.045c.21.15.422.392.633.633.21.241.422.513.602.784.181.301.392.543.543.844.15.302.332.543.452.754h2.17c-.15-.302-.331-.603-.542-.965-.211-.362-.452-.693-.693-1.055a13.16 13.16 0 0 0-.784-1.025c-.302-.241-.543-.543-.784-.754zm4.19 3.135c.211.302.512.513.904.664.392.15.875.21 1.417.21.543 0 1.085-.03 1.598-.12.512-.09.934-.15 1.236-.241v-6.632h-1.87v5.305c-.12.03-.24.03-.421.03-.151 0-.302.03-.422.03-.452 0-.724-.12-.905-.421-.18-.302-.24-.724-.24-1.357v-3.618h-1.87v3.83c0 .481.03.903.12 1.295.121.392.272.724.453 1.025zm8.2.754l.723.09c.24.03.482.03.693.03a4.46 4.46 0 0 0 1.477-.24c.422-.151.784-.422 1.085-.724.302-.301.513-.693.663-1.146.151-.452.211-.964.211-1.507 0-.543-.06-1.025-.18-1.477a3.207 3.207 0 0 0-.543-1.116c-.241-.331-.543-.542-.935-.723a3.114 3.114 0 0 0-1.236-.241c-.24 0-.512.03-.723.06-.21.06-.452.12-.663.211V62.19l-1.869.331v9.587c.15.06.362.09.573.15.24.03.512.061.723.091zm1.084-5.336c.181-.06.392-.06.573-.06.904 0 1.326.633 1.326 1.869 0 .603-.12 1.085-.392 1.477-.24.362-.633.543-1.175.543-.15 0-.332 0-.482-.03-.151 0-.241-.03-.362-.03v-3.528c.15-.12.331-.21.512-.24zm11.184 2.502c0-.09.03-.21.03-.362v-.391c0-1.146-.302-2.05-.844-2.653-.543-.603-1.296-.905-2.23-.905-.423 0-.785.06-1.177.211a2.94 2.94 0 0 0-1.024.694 3.159 3.159 0 0 0-.694 1.145c-.18.453-.301.995-.301 1.598 0 .513.06.995.21 1.417.122.452.363.784.634 1.115.301.332.663.573 1.115.754.452.181.965.302 1.568.302.21 0 .482 0 .693-.03.211-.03.452-.06.663-.091.211-.03.392-.09.573-.12.15-.06.331-.091.422-.151l-.241-1.598a3.61 3.61 0 0 1-.844.241c-.332.06-.663.09-1.025.09-.543 0-.965-.12-1.266-.361-.332-.211-.513-.543-.543-.965l4.28.06zm-4.25-1.356c.03-.151.06-.332.12-.483.06-.15.12-.301.211-.422.09-.12.211-.21.392-.301.15-.06.331-.09.542-.09.211 0 .422.03.543.12.15.06.241.18.392.301.12.09.15.242.21.422.061.151.061.332.091.483h-2.532v-.03h.03zm9.796-.995l.332-1.598c-.09-.03-.211-.09-.392-.09-.15-.03-.302-.06-.422-.06-.15-.03-.302-.03-.422-.061-.15 0-.241-.03-.392-.03-.573 0-1.085.06-1.537.15-.453.091-.875.212-1.206.362v6.512h1.869v-5.276c.09-.03.21-.06.392-.06.15-.03.331-.03.422-.03.24 0 .512.03.723.06.241 0 .422.09.633.12zm7.054 1.266c0-.482-.03-.904-.12-1.266a2.358 2.358 0 0 0-.483-.995c-.211-.301-.513-.513-.905-.633-.391-.15-.874-.211-1.416-.211-.543 0-1.085.03-1.598.12-.512.09-.934.151-1.236.242v6.632h1.87v-5.306c.12-.03.24-.03.421-.03s.302-.03.422-.03c.452 0 .724.12.904.392.151.24.242.693.242 1.326v3.648h1.869l.03-3.889zm7.626.723v-.391c0-1.146-.301-2.05-.844-2.653-.543-.603-1.296-.905-2.23-.905-.423 0-.784.06-1.176.211a2.94 2.94 0 0 0-1.025.694 2.924 2.924 0 0 0-.693 1.145c-.181.453-.302.995-.302 1.598 0 .513.06.995.211 1.417.12.452.362.784.633 1.115.302.332.663.573 1.115.754.453.181.965.302 1.568.302.211 0 .482 0 .693-.03.211-.03.453-.06.663-.091.212-.03.392-.09.573-.12.15-.06.332-.091.422-.151l-.24-1.598a3.61 3.61 0 0 1-.845.241c-.332.06-.663.09-1.025.09-.542 0-.965-.12-1.266-.361-.332-.211-.512-.543-.543-.965h4.28c0-.03.031-.15.031-.302zm-4.31-.994c.03-.151.06-.332.12-.483.06-.15.12-.301.211-.422.09-.12.211-.21.392-.301.15-.06.332-.09.543-.09.21 0 .422.03.542.12.15.06.241.18.392.301.12.09.15.242.211.422.06.181.06.332.09.483h-2.532v-.03h.03zm5.727 1.356c0 .453.03.875.12 1.206.09.362.211.663.422.935.181.24.483.452.784.603.362.15.754.21 1.266.21.422 0 .724-.03 1.025-.09.302-.06.543-.15.754-.24l-.242-1.538c-.18.06-.391.12-.572.15-.181.03-.422.06-.633.06-.422 0-.694-.12-.844-.361a2.22 2.22 0 0 1-.211-.995v-2.412h2.26v-1.628h-2.26v-2.02l-1.87.332v5.788zm11.334 0c0-.09.03-.21.03-.362v-.391c0-1.146-.301-2.05-.844-2.653-.543-.603-1.296-.905-2.23-.905-.423 0-.784.06-1.176.211a2.94 2.94 0 0 0-1.025.694 3.159 3.159 0 0 0-.694 1.145c-.18.453-.3.995-.3 1.598 0 .513.06.995.21 1.417.12.452.362.784.633 1.115.302.332.663.573 1.115.754.453.181.965.302 1.568.302.21 0 .482 0 .693-.03.211-.03.452-.06.663-.091.211-.03.392-.09.573-.12.15-.06.332-.091.422-.151l-.241-1.598a3.61 3.61 0 0 1-.844.241c-.332.06-.663.09-1.025.09-.543 0-.965-.12-1.266-.361-.331-.211-.512-.543-.543-.965l4.28.06zm-4.16-1.808c.06-.151.12-.302.211-.423.09-.12.211-.21.392-.301.15-.06.332-.09.543-.09.21 0 .421.03.542.12.15.06.241.181.392.302.12.09.15.24.21.422.061.18.061.331.091.482h-2.532c.06-.211.09-.362.151-.512zm7.566 4.763c.904 0 1.598-.151 2.11-.513.482-.362.724-.874.724-1.537 0-.302-.031-.543-.091-.754a1.336 1.336 0 0 0-.331-.603c-.151-.18-.392-.362-.633-.512a5.511 5.511 0 0 0-1.025-.483 4.44 4.44 0 0 1-.513-.21c-.12-.061-.21-.121-.331-.182-.09-.06-.12-.12-.151-.18-.03-.06-.03-.121-.03-.212 0-.361.301-.512.904-.512.332 0 .603.03.874.09.241.06.513.12.694.211l.331-1.537c-.21-.09-.512-.15-.904-.241a7.433 7.433 0 0 0-1.176-.09c-.784 0-1.447.18-1.899.572-.482.392-.693.904-.693 1.538 0 .331.03.603.12.874.09.21.211.452.392.603.181.15.392.331.603.452.241.12.513.241.784.362.392.15.663.301.874.392.181.12.302.24.302.422 0 .18-.06.361-.212.422-.15.06-.391.09-.723.09a5.55 5.55 0 0 1-.995-.09c-.361-.06-.663-.181-.994-.332l-.332 1.598c.15.06.422.15.844.241.392.09.874.12 1.477.12z" fill="#fff"/><defs><clipPath id="clip0_2190_1073"><path fill="#fff" transform="translate(316 12)" d="M0 0H118.776V107.842H0z"/></clipPath></defs></svg>