<svg width="1219" height="402" fill="none" xmlns="http://www.w3.org/2000/svg"><mask id="a" style="mask-type:alpha" maskUnits="userSpaceOnUse" x="27" y="6" width="1177" height="342"><path d="M1204 347.503H27c7.542-6.226 7.765-10.763 12.38-17.446 4.773-6.887 14.528-6.744 24.218-9.237 4.647-1.2 9.277-3.774 14.321-4.069 5.41-.366 13.017-.468 18.395-1.251 13.7-2.035 27.894-1.078 41.276-4.395 8.704-2.166 17.679-2.746 26.606-4.394 4.264-.783 9.547-2.116 13.971-2.279 8.895-.315 17.249-4.811 26.255-6.103 7.288-1.018 15.801-3.886 23.073-4.161 2.991-.112 7.526-1.465 10.438-2.035 2.419-.447 7.495 2.269 9.548 3.052 11.95 4.405 15.912 6.714 29.692 3.988 12.107-2.352 23.145-6.54 32.175-12.207 4.328-2.798 9.977-6.46 15.212-8.444 11.6-4.404 21.784-10.498 34.211-14.241 11.648-3.469 24.075-10.712 33.32-16.368 24.092-14.72 48.772-28.829 72.497-44.139 10.757-6.938 21.657-13.306 34.911-18.016 6.7-2.37 13.796-7.233 19.191-10.722 3.787-2.441 8.767-7.812 14.321-8.209 8.608-.621 17.583-.427 25.459-1.017 11.887-.906 25.858-11.068 35.708-14.883 6.699-2.594 11.854-6.47 18.394-8.952 4.822-2.181 9.012-4.883 12.38-7.985 6.015-6.592 16.835-12.055 24.314-18.077 7.479-6.022 17.838-13.764 23.773-20.457 6.794-7.67 22.007-13.632 32.716-18.708 9.881-4.69 19.476-10 29.342-14.089 7.956-3.296 15.514-6.561 23.868-8.952 3.183-.905 9.548-3.051 12.825-1.312 4.154 2.238 13.049 1.953 15.817 5.086 1.512 1.7 13.764 4.436 16.613 4.904 9.913 1.648 19.604 1.648 25.555-4.334 6.763-6.775 20.686-12.838 32.27-15.625 16.708-3.988 37.235-9.013 55.247-9.013 19.716 0 40.099-5.595 60.197-6.155 13.127-.366 27.051-2.807 39.871-4.557 16.87-2.31 34.18-2.818 51.1-5.198 14.97-2.136 32.62-.956 46.94-4.853 9.83-2.616 20.38-3.934 31.03-3.875 18.89 0 37.58-2.035 56.49-2.035l1.08 340.763z" fill="#5C2CFF"/></mask><g mask="url(#a)"><path fill-rule="evenodd" clip-rule="evenodd" d="M208.595 761.121l-930.776-893.022 1.197-1.148 930.775 893.022-1.196 1.148zm974.775 0L252.594-131.901l1.197-1.148 930.779 893.022-1.2 1.148zm-487.387 0l-930.776-893.022 1.197-1.148 930.775 893.022-1.196 1.148zm974.777 0L739.982-131.901l1.197-1.148 930.771 893.022-1.19 1.148zm-1218.473 0l-930.776-893.022 1.197-1.148 930.775 893.022-1.196 1.148zm974.773 0L496.289-131.901l1.197-1.148 930.774 893.022-1.2 1.148zm-487.385 0L8.899-131.901l1.197-1.148L940.87 759.973l-1.196 1.148zm974.775 0L983.676-131.901l1.197-1.148 930.777 893.022-1.2 1.148zm-1584.01 0l-930.775-893.022 1.197-1.148 930.775 893.022-1.197 1.148zm974.78 0L374.442-131.901l1.197-1.148 930.771 893.022-1.19 1.148zm-487.391 0l-930.776-893.022 1.197-1.148 930.776 893.022-1.197 1.148zm974.771 0L861.829-131.901l1.197-1.148L1793.8 759.973l-1.2 1.148zm-1218.464 0L-356.64-131.901l1.197-1.148 930.776 893.022-1.197 1.148zm974.774 0L618.135-131.901l1.197-1.148 930.778 893.022-1.2 1.148zm-487.39 0L130.747-131.901l1.197-1.148 930.776 893.022-1.2 1.148zm974.78 0l-930.78-893.022 1.2-1.148 930.78 893.022-1.2 1.148zm-1766.784 0l-930.775-893.022 1.196-1.148 930.776 893.022-1.197 1.148zm974.774 0L313.519-131.901l1.197-1.148 930.774 893.022-1.2 1.148zm-487.385 0L-173.87-131.901l1.196-1.148 930.776 893.022-1.197 1.148zm974.775 0L800.904-131.901l1.197-1.148 930.779 893.022-1.2 1.148zm-1218.468 0l-930.775-893.022 1.197-1.148 930.775 893.022-1.197 1.148zm974.778 0L557.211-131.901l1.197-1.148 930.772 893.022-1.19 1.148zm-487.39 0L69.824-131.901l1.196-1.148 930.78 893.022-1.2 1.148zm974.78 0L1044.6-131.901l1.2-1.148 930.77 893.022-1.19 1.148zm-1584.015 0l-930.776-893.022 1.197-1.148 930.775 893.022-1.196 1.148zm974.775 0L435.365-131.901l1.196-1.148 930.779 893.022-1.2 1.148zm-487.387 0L-52.023-131.901l1.197-1.148L879.95 759.973l-1.197 1.148zm974.777 0L922.753-131.901l1.197-1.148 930.78 893.022-1.2 1.148zm-1218.471 0l-930.775-893.022 1.196-1.148 930.776 893.022-1.197 1.148zm974.771 0L679.058-131.901l1.197-1.148 930.775 893.022-1.2 1.148zm-487.38 0L191.672-131.901l1.196-1.148 930.772 893.022-1.19 1.148zm974.77 0l-930.77-893.022 1.19-1.148 930.78 893.022-1.2 1.148zm-1858.165 0l-930.776-893.022 1.197-1.148 930.775 893.022-1.196 1.148zm974.775 0L283.056-131.901l1.197-1.148 930.777 893.022-1.2 1.148zm-487.386 0l-930.776-893.022 1.197-1.148 930.776 893.022-1.197 1.148zm974.776 0L770.443-131.901l1.197-1.148 930.78 893.022-1.2 1.148zm-1218.47 0l-930.775-893.022 1.196-1.148 930.776 893.022-1.197 1.148zm974.77 0L526.749-131.901l1.197-1.148 930.774 893.022-1.2 1.148zm-487.382 0L39.362-131.901l1.197-1.148 930.776 893.022-1.197 1.148zm974.772 0l-930.77-893.022 1.19-1.148 930.78 893.022-1.2 1.148zm-1584.009 0l-930.775-893.022 1.196-1.148 930.776 893.022-1.197 1.148zm974.779 0L404.904-131.901l1.197-1.148 930.779 893.022-1.2 1.148zm-487.39 0L-82.486-131.901l1.197-1.148 930.776 893.022-1.197 1.148zm974.78 0L892.291-131.901l1.197-1.148 930.772 893.022-1.19 1.148zm-1218.473 0l-930.775-893.022 1.196-1.148 930.776 893.022-1.197 1.148zm974.773 0L648.597-131.901l1.197-1.148 930.776 893.022-1.2 1.148zm-487.39 0L161.208-131.901l1.197-1.148 930.775 893.022-1.2 1.148zm974.78 0l-930.78-893.022 1.2-1.148 930.78 893.022-1.2 1.148zm-1766.781 0l-930.776-893.022 1.197-1.148 930.775 893.022-1.196 1.148zm974.771 0L343.979-131.901l1.197-1.148 930.774 893.022-1.2 1.148zm-487.383 0l-930.775-893.022 1.197-1.148 930.775 893.022-1.197 1.148zm974.773 0L831.368-131.901l1.196-1.148 930.776 893.022-1.2 1.148zm-1218.466 0l-930.776-893.022 1.197-1.148L544.87 759.973l-1.196 1.148zm974.776 0L587.675-131.901l1.196-1.148 930.779 893.022-1.2 1.148zm-487.39 0L100.285-131.901l1.196-1.148 930.779 893.022-1.2 1.148zm974.78 0l-930.78-893.022 1.2-1.148 930.77 893.022-1.19 1.148zm-1584.014 0l-930.775-893.022 1.197-1.148 930.775 893.022-1.197 1.148zm974.774 0L465.827-131.901l1.196-1.148L1397.8 759.973l-1.2 1.148zm-487.386 0L-21.561-131.901l1.197-1.148L910.41 759.973l-1.197 1.148zm974.776 0L953.216-131.901l1.196-1.148 930.778 893.022-1.2 1.148zm-1218.47 0l-930.776-893.022 1.197-1.148 930.775 893.022-1.196 1.148zm974.78 0L709.52-131.901l1.196-1.148 930.774 893.022-1.19 1.148zm-487.39 0L222.134-131.901l1.196-1.148 930.78 893.022-1.2 1.148zm974.77 0l-930.77-893.022 1.19-1.148 930.78 893.022-1.2 1.148z" fill="#4924CC"/></g><path d="M0 353.371h1202" stroke="#333" stroke-miterlimit="10"/><path d="M0 244.371h1202m-1202-110h1202M0 24.371h1202" stroke="#B7B7B7" stroke-width=".5" stroke-miterlimit="10"/><path d="M6.3 347.587c3.078 0 5.256-2.646 5.256-6.408 0-3.744-2.178-6.39-5.256-6.39-3.114 0-5.292 2.646-5.292 6.39 0 3.762 2.178 6.408 5.292 6.408zm0-1.674c-2.016 0-3.438-1.962-3.438-4.734 0-2.772 1.422-4.716 3.438-4.716 1.998 0 3.402 1.944 3.402 4.716 0 2.772-1.404 4.734-3.402 4.734zm-.9-109.326c2.664 0 4.554-1.638 4.554-4.14 0-2.466-1.854-3.87-4.086-3.87-1.08 0-1.908.36-2.556.792l.108-3.672h5.868v-1.692H1.692l-.18 6.462 1.278.576c.738-.558 1.602-.9 2.628-.9 1.602 0 2.718.954 2.718 2.376 0 1.386-1.098 2.466-2.7 2.466-1.314 0-2.466-.648-3.402-1.638L.9 234.643c1.044 1.152 2.538 1.944 4.5 1.944zm10.846 0c3.078 0 5.256-2.646 5.256-6.408 0-3.744-2.178-6.39-5.256-6.39-3.114 0-5.292 2.646-5.292 6.39 0 3.762 2.178 6.408 5.292 6.408zm0-1.674c-2.016 0-3.438-1.962-3.438-4.734 0-2.772 1.422-4.716 3.438-4.716 1.998 0 3.402 1.944 3.402 4.716 0 2.772-1.404 4.734-3.402 4.734zm7.942 3.924c1.152-1.314 1.566-2.088 1.566-2.934 0-.99-.522-1.71-1.314-1.71-.684 0-1.188.558-1.188 1.188 0 .666.522 1.206 1.17 1.206-.144.558-.486 1.134-.99 1.674l.756.576zm8.557-2.25c3.078 0 5.256-2.646 5.256-6.408 0-3.744-2.178-6.39-5.256-6.39-3.114 0-5.292 2.646-5.292 6.39 0 3.762 2.178 6.408 5.292 6.408zm0-1.674c-2.016 0-3.438-1.962-3.438-4.734 0-2.772 1.422-4.716 3.438-4.716 1.998 0 3.402 1.944 3.402 4.716 0 2.772-1.404 4.734-3.402 4.734zm11.668 1.674c3.078 0 5.256-2.646 5.256-6.408 0-3.744-2.178-6.39-5.256-6.39-3.114 0-5.292 2.646-5.292 6.39 0 3.762 2.178 6.408 5.292 6.408zm0-1.674c-2.016 0-3.438-1.962-3.438-4.734 0-2.772 1.422-4.716 3.438-4.716 1.998 0 3.402 1.944 3.402 4.716 0 2.772-1.404 4.734-3.402 4.734zm11.668 1.674c3.078 0 5.256-2.646 5.256-6.408 0-3.744-2.178-6.39-5.256-6.39-3.114 0-5.292 2.646-5.292 6.39 0 3.762 2.178 6.408 5.292 6.408zm0-1.674c-2.016 0-3.438-1.962-3.438-4.734 0-2.772 1.422-4.716 3.438-4.716 1.998 0 3.402 1.944 3.402 4.716 0 2.772-1.404 4.734-3.402 4.734zM3.276 126.371h1.818v-12.366H3.636l-3.258 2.214.756 1.314 2.142-1.368v10.206zm8.98.216c3.078 0 5.256-2.646 5.256-6.408 0-3.744-2.178-6.39-5.257-6.39-3.114 0-5.292 2.646-5.292 6.39 0 3.762 2.178 6.408 5.292 6.408zm0-1.674c-2.017 0-3.439-1.962-3.439-4.734 0-2.772 1.422-4.716 3.438-4.716 1.998 0 3.402 1.944 3.402 4.716 0 2.772-1.403 4.734-3.402 4.734zm11.668 1.674c3.078 0 5.256-2.646 5.256-6.408 0-3.744-2.178-6.39-5.256-6.39-3.114 0-5.292 2.646-5.292 6.39 0 3.762 2.178 6.408 5.292 6.408zm0-1.674c-2.016 0-3.438-1.962-3.438-4.734 0-2.772 1.422-4.716 3.438-4.716 1.998 0 3.402 1.944 3.402 4.716 0 2.772-1.404 4.734-3.402 4.734zm7.942 3.924c1.152-1.314 1.566-2.088 1.566-2.934 0-.99-.522-1.71-1.314-1.71-.684 0-1.188.558-1.188 1.188 0 .666.522 1.206 1.17 1.206-.144.558-.486 1.134-.99 1.674l.756.576zm8.557-2.25c3.078 0 5.256-2.646 5.256-6.408 0-3.744-2.178-6.39-5.256-6.39-3.114 0-5.292 2.646-5.292 6.39 0 3.762 2.178 6.408 5.292 6.408zm0-1.674c-2.016 0-3.438-1.962-3.438-4.734 0-2.772 1.422-4.716 3.438-4.716 1.998 0 3.402 1.944 3.402 4.716 0 2.772-1.404 4.734-3.402 4.734zm11.668 1.674c3.078 0 5.256-2.646 5.256-6.408 0-3.744-2.178-6.39-5.256-6.39-3.114 0-5.292 2.646-5.292 6.39 0 3.762 2.178 6.408 5.292 6.408zm0-1.674c-2.016 0-3.438-1.962-3.438-4.734 0-2.772 1.422-4.716 3.438-4.716 1.998 0 3.402 1.944 3.402 4.716 0 2.772-1.404 4.734-3.402 4.734zm11.668 1.674c3.078 0 5.256-2.646 5.256-6.408 0-3.744-2.178-6.39-5.256-6.39-3.114 0-5.292 2.646-5.292 6.39 0 3.762 2.178 6.408 5.292 6.408zm0-1.674c-2.016 0-3.438-1.962-3.438-4.734 0-2.772 1.422-4.716 3.438-4.716 1.998 0 3.402 1.944 3.402 4.716 0 2.772-1.404 4.734-3.402 4.734zM3.276 18.371h1.818V6.005H3.636L.378 8.22l.756 1.314 2.142-1.368v10.206zm8.08.216c2.664 0 4.553-1.638 4.553-4.14 0-2.466-1.854-3.87-4.086-3.87-1.08 0-1.908.36-2.556.792l.108-3.672h5.868V6.005H7.647l-.18 6.462 1.278.576c.738-.558 1.603-.9 2.629-.9 1.601 0 2.717.954 2.717 2.376 0 1.386-1.098 2.466-2.7 2.466-1.313 0-2.466-.648-3.402-1.638l-1.134 1.296c1.044 1.152 2.538 1.944 4.5 1.944zm10.845 0c3.078 0 5.256-2.646 5.256-6.408 0-3.744-2.178-6.39-5.256-6.39-3.114 0-5.292 2.646-5.292 6.39 0 3.762 2.178 6.408 5.292 6.408zm0-1.674c-2.016 0-3.438-1.962-3.438-4.734 0-2.772 1.422-4.716 3.438-4.716 1.998 0 3.402 1.944 3.402 4.716 0 2.772-1.404 4.734-3.402 4.734zm7.942 3.924c1.152-1.314 1.566-2.088 1.566-2.934 0-.99-.521-1.71-1.314-1.71-.683 0-1.188.558-1.188 1.188 0 .666.523 1.206 1.17 1.206-.143.558-.485 1.134-.99 1.674l.756.576zm8.557-2.25c3.078 0 5.256-2.646 5.256-6.408 0-3.744-2.178-6.39-5.256-6.39-3.114 0-5.292 2.646-5.292 6.39 0 3.762 2.178 6.408 5.292 6.408zm0-1.674c-2.016 0-3.438-1.962-3.438-4.734 0-2.772 1.422-4.716 3.438-4.716 1.998 0 3.402 1.944 3.402 4.716 0 2.772-1.404 4.734-3.402 4.734zm11.668 1.674c3.078 0 5.256-2.646 5.256-6.408 0-3.744-2.178-6.39-5.256-6.39-3.114 0-5.292 2.646-5.292 6.39 0 3.762 2.178 6.408 5.292 6.408zm0-1.674c-2.016 0-3.438-1.962-3.438-4.734 0-2.772 1.422-4.716 3.438-4.716 1.998 0 3.402 1.944 3.402 4.716 0 2.772-1.404 4.734-3.402 4.734zm11.669 1.674c3.078 0 5.256-2.646 5.256-6.408 0-3.744-2.178-6.39-5.256-6.39-3.114 0-5.292 2.646-5.292 6.39 0 3.762 2.178 6.408 5.292 6.408zm0-1.674c-2.016 0-3.438-1.962-3.438-4.734 0-2.772 1.422-4.716 3.438-4.716 1.998 0 3.402 1.944 3.402 4.716 0 2.772-1.404 4.734-3.402 4.734z" fill="#000" fill-opacity=".7"/><path d="M1160.12 393.371h9.09v-2.052h-5.6l2.6-2.088c2.12-1.638 2.88-2.952 2.88-4.59 0-2.286-1.88-3.852-4.32-3.852-2 0-3.5.882-4.67 2.412l1.46 1.35c.9-1.08 1.84-1.746 3.13-1.746 1.12 0 2.11.72 2.11 1.89 0 1.008-.56 1.944-2.12 3.204l-4.56 3.636v1.836zm15.48.216c3.16 0 5.41-2.646 5.41-6.408 0-3.744-2.25-6.39-5.41-6.39-3.19 0-5.42 2.646-5.42 6.39 0 3.762 2.23 6.408 5.42 6.408zm0-2.052c-1.84 0-3.14-1.8-3.14-4.356s1.3-4.338 3.14-4.338c1.83 0 3.11 1.782 3.11 4.338s-1.28 4.356-3.11 4.356zm6.14 1.836h9.09v-2.052h-5.6l2.59-2.088c2.12-1.638 2.88-2.952 2.88-4.59 0-2.286-1.87-3.852-4.32-3.852-2 0-3.49.882-4.66 2.412l1.46 1.35c.9-1.08 1.83-1.746 3.13-1.746 1.11 0 2.1.72 2.1 1.89 0 1.008-.55 1.944-2.12 3.204l-4.55 3.636v1.836zm9.8 0h9.09v-2.052h-5.6l2.6-2.088c2.12-1.638 2.88-2.952 2.88-4.59 0-2.286-1.88-3.852-4.32-3.852-2 0-3.5.882-4.67 2.412l1.46 1.35c.9-1.08 1.84-1.746 3.13-1.746 1.12 0 2.11.72 2.11 1.89 0 1.008-.56 1.944-2.12 3.204l-4.56 3.636v1.836z" fill="#5C2CFF"/><path d="M1160.12 393.371h9.09v-2.052h-5.6l2.6-2.088c2.12-1.638 2.88-2.952 2.88-4.59 0-2.286-1.88-3.852-4.32-3.852-2 0-3.5.882-4.67 2.412l1.46 1.35c.9-1.08 1.84-1.746 3.13-1.746 1.12 0 2.11.72 2.11 1.89 0 1.008-.56 1.944-2.12 3.204l-4.56 3.636v1.836zm15.48.216c3.16 0 5.41-2.646 5.41-6.408 0-3.744-2.25-6.39-5.41-6.39-3.19 0-5.42 2.646-5.42 6.39 0 3.762 2.23 6.408 5.42 6.408zm0-2.052c-1.84 0-3.14-1.8-3.14-4.356s1.3-4.338 3.14-4.338c1.83 0 3.11 1.782 3.11 4.338s-1.28 4.356-3.11 4.356zm6.14 1.836h9.09v-2.052h-5.6l2.59-2.088c2.12-1.638 2.88-2.952 2.88-4.59 0-2.286-1.87-3.852-4.32-3.852-2 0-3.49.882-4.66 2.412l1.46 1.35c.9-1.08 1.83-1.746 3.13-1.746 1.11 0 2.1.72 2.1 1.89 0 1.008-.55 1.944-2.12 3.204l-4.55 3.636v1.836zm9.8 0h9.09v-2.052h-5.6l2.6-2.088c2.12-1.638 2.88-2.952 2.88-4.59 0-2.286-1.88-3.852-4.32-3.852-2 0-3.5.882-4.67 2.412l1.46 1.35c.9-1.08 1.84-1.746 3.13-1.746 1.12 0 2.11.72 2.11 1.89 0 1.008-.56 1.944-2.12 3.204l-4.56 3.636v1.836z" fill="#000" fill-opacity=".2"/><path d="M943.818 393.371h9.09v-2.052h-5.598l2.592-2.088c2.124-1.638 2.88-2.952 2.88-4.59 0-2.286-1.872-3.852-4.32-3.852-1.998 0-3.492.882-4.662 2.412l1.458 1.35c.9-1.08 1.836-1.746 3.132-1.746 1.116 0 2.106.72 2.106 1.89 0 1.008-.558 1.944-2.124 3.204l-4.554 3.636v1.836zm15.475.216c3.168 0 5.418-2.646 5.418-6.408 0-3.744-2.25-6.39-5.418-6.39-3.186 0-5.418 2.646-5.418 6.39 0 3.762 2.232 6.408 5.418 6.408zm0-2.052c-1.836 0-3.132-1.8-3.132-4.356s1.296-4.338 3.132-4.338 3.114 1.782 3.114 4.338-1.278 4.356-3.114 4.356zm6.139 1.836h9.09v-2.052h-5.598l2.592-2.088c2.124-1.638 2.88-2.952 2.88-4.59 0-2.286-1.872-3.852-4.32-3.852-1.998 0-3.492.882-4.662 2.412l1.458 1.35c.9-1.08 1.836-1.746 3.132-1.746 1.116 0 2.106.72 2.106 1.89 0 1.008-.558 1.944-2.124 3.204l-4.554 3.636v1.836zm12.541 0h2.25v-12.366h-1.8l-3.474 2.358.9 1.584 2.124-1.35v9.774z" fill="#5C2CFF"/><path d="M943.818 393.371h9.09v-2.052h-5.598l2.592-2.088c2.124-1.638 2.88-2.952 2.88-4.59 0-2.286-1.872-3.852-4.32-3.852-1.998 0-3.492.882-4.662 2.412l1.458 1.35c.9-1.08 1.836-1.746 3.132-1.746 1.116 0 2.106.72 2.106 1.89 0 1.008-.558 1.944-2.124 3.204l-4.554 3.636v1.836zm15.475.216c3.168 0 5.418-2.646 5.418-6.408 0-3.744-2.25-6.39-5.418-6.39-3.186 0-5.418 2.646-5.418 6.39 0 3.762 2.232 6.408 5.418 6.408zm0-2.052c-1.836 0-3.132-1.8-3.132-4.356s1.296-4.338 3.132-4.338 3.114 1.782 3.114 4.338-1.278 4.356-3.114 4.356zm6.139 1.836h9.09v-2.052h-5.598l2.592-2.088c2.124-1.638 2.88-2.952 2.88-4.59 0-2.286-1.872-3.852-4.32-3.852-1.998 0-3.492.882-4.662 2.412l1.458 1.35c.9-1.08 1.836-1.746 3.132-1.746 1.116 0 2.106.72 2.106 1.89 0 1.008-.558 1.944-2.124 3.204l-4.554 3.636v1.836zm12.541 0h2.25v-12.366h-1.8l-3.474 2.358.9 1.584 2.124-1.35v9.774z" fill="#000" fill-opacity=".2"/><path d="M723.12 393.371h9.09v-2.052h-5.598l2.592-2.088c2.124-1.638 2.88-2.952 2.88-4.59 0-2.286-1.872-3.852-4.32-3.852-1.998 0-3.492.882-4.662 2.412l1.458 1.35c.9-1.08 1.836-1.746 3.132-1.746 1.116 0 2.106.72 2.106 1.89 0 1.008-.558 1.944-2.124 3.204l-4.554 3.636v1.836zm15.475.216c3.168 0 5.418-2.646 5.418-6.408 0-3.744-2.25-6.39-5.418-6.39-3.186 0-5.418 2.646-5.418 6.39 0 3.762 2.232 6.408 5.418 6.408zm0-2.052c-1.836 0-3.132-1.8-3.132-4.356s1.296-4.338 3.132-4.338 3.114 1.782 3.114 4.338-1.278 4.356-3.114 4.356zm6.139 1.836h9.09v-2.052h-5.598l2.592-2.088c2.124-1.638 2.88-2.952 2.88-4.59 0-2.286-1.872-3.852-4.32-3.852-1.998 0-3.492.882-4.662 2.412l1.458 1.35c.9-1.08 1.836-1.746 3.132-1.746 1.116 0 2.106.72 2.106 1.89 0 1.008-.558 1.944-2.124 3.204l-4.554 3.636v1.836zm15.475.216c3.168 0 5.418-2.646 5.418-6.408 0-3.744-2.25-6.39-5.418-6.39-3.186 0-5.418 2.646-5.418 6.39 0 3.762 2.232 6.408 5.418 6.408zm0-2.052c-1.836 0-3.132-1.8-3.132-4.356s1.296-4.338 3.132-4.338 3.114 1.782 3.114 4.338-1.278 4.356-3.114 4.356z" fill="#5C2CFF"/><path d="M723.12 393.371h9.09v-2.052h-5.598l2.592-2.088c2.124-1.638 2.88-2.952 2.88-4.59 0-2.286-1.872-3.852-4.32-3.852-1.998 0-3.492.882-4.662 2.412l1.458 1.35c.9-1.08 1.836-1.746 3.132-1.746 1.116 0 2.106.72 2.106 1.89 0 1.008-.558 1.944-2.124 3.204l-4.554 3.636v1.836zm15.475.216c3.168 0 5.418-2.646 5.418-6.408 0-3.744-2.25-6.39-5.418-6.39-3.186 0-5.418 2.646-5.418 6.39 0 3.762 2.232 6.408 5.418 6.408zm0-2.052c-1.836 0-3.132-1.8-3.132-4.356s1.296-4.338 3.132-4.338 3.114 1.782 3.114 4.338-1.278 4.356-3.114 4.356zm6.139 1.836h9.09v-2.052h-5.598l2.592-2.088c2.124-1.638 2.88-2.952 2.88-4.59 0-2.286-1.872-3.852-4.32-3.852-1.998 0-3.492.882-4.662 2.412l1.458 1.35c.9-1.08 1.836-1.746 3.132-1.746 1.116 0 2.106.72 2.106 1.89 0 1.008-.558 1.944-2.124 3.204l-4.554 3.636v1.836zm15.475.216c3.168 0 5.418-2.646 5.418-6.408 0-3.744-2.25-6.39-5.418-6.39-3.186 0-5.418 2.646-5.418 6.39 0 3.762 2.232 6.408 5.418 6.408zm0-2.052c-1.836 0-3.132-1.8-3.132-4.356s1.296-4.338 3.132-4.338 3.114 1.782 3.114 4.338-1.278 4.356-3.114 4.356z" fill="#000" fill-opacity=".2"/><path d="M507.449 393.371h9.09v-2.052h-5.598l2.592-2.088c2.124-1.638 2.88-2.952 2.88-4.59 0-2.286-1.872-3.852-4.32-3.852-1.998 0-3.492.882-4.662 2.412l1.458 1.35c.9-1.08 1.836-1.746 3.132-1.746 1.116 0 2.106.72 2.106 1.89 0 1.008-.558 1.944-2.124 3.204l-4.554 3.636v1.836zm15.475.216c3.168 0 5.418-2.646 5.418-6.408 0-3.744-2.25-6.39-5.418-6.39-3.186 0-5.418 2.646-5.418 6.39 0 3.762 2.232 6.408 5.418 6.408zm0-2.052c-1.836 0-3.132-1.8-3.132-4.356s1.296-4.338 3.132-4.338 3.114 1.782 3.114 4.338-1.278 4.356-3.114 4.356zm8.875 1.836h2.25v-12.366h-1.8l-3.474 2.358.9 1.584 2.124-1.35v9.774zm8.393-12.582c-2.664 0-4.608 1.764-4.608 4.212 0 2.466 1.89 3.906 4.158 3.906 1.26 0 2.43-.522 3.204-1.386-.162 2.412-1.386 4.086-3.132 4.086-1.08 0-1.854-.45-2.61-1.116l-1.098 1.71c.99.846 2.16 1.386 3.708 1.386 3.204 0 5.454-2.79 5.454-6.606 0-3.564-1.548-6.192-5.076-6.192zm.144 6.282c-1.35 0-2.466-.81-2.466-2.16 0-1.134.918-2.214 2.43-2.214 1.494 0 2.268 1.026 2.538 2.682-.36 1.026-1.296 1.692-2.502 1.692z" fill="#5C2CFF"/><path d="M507.449 393.371h9.09v-2.052h-5.598l2.592-2.088c2.124-1.638 2.88-2.952 2.88-4.59 0-2.286-1.872-3.852-4.32-3.852-1.998 0-3.492.882-4.662 2.412l1.458 1.35c.9-1.08 1.836-1.746 3.132-1.746 1.116 0 2.106.72 2.106 1.89 0 1.008-.558 1.944-2.124 3.204l-4.554 3.636v1.836zm15.475.216c3.168 0 5.418-2.646 5.418-6.408 0-3.744-2.25-6.39-5.418-6.39-3.186 0-5.418 2.646-5.418 6.39 0 3.762 2.232 6.408 5.418 6.408zm0-2.052c-1.836 0-3.132-1.8-3.132-4.356s1.296-4.338 3.132-4.338 3.114 1.782 3.114 4.338-1.278 4.356-3.114 4.356zm8.875 1.836h2.25v-12.366h-1.8l-3.474 2.358.9 1.584 2.124-1.35v9.774zm8.393-12.582c-2.664 0-4.608 1.764-4.608 4.212 0 2.466 1.89 3.906 4.158 3.906 1.26 0 2.43-.522 3.204-1.386-.162 2.412-1.386 4.086-3.132 4.086-1.08 0-1.854-.45-2.61-1.116l-1.098 1.71c.99.846 2.16 1.386 3.708 1.386 3.204 0 5.454-2.79 5.454-6.606 0-3.564-1.548-6.192-5.076-6.192zm.144 6.282c-1.35 0-2.466-.81-2.466-2.16 0-1.134.918-2.214 2.43-2.214 1.494 0 2.268 1.026 2.538 2.682-.36 1.026-1.296 1.692-2.502 1.692z" fill="#000" fill-opacity=".2"/><path d="M289.44 393.371h9.09v-2.052h-5.598l2.592-2.088c2.124-1.638 2.88-2.952 2.88-4.59 0-2.286-1.872-3.852-4.32-3.852-1.998 0-3.492.882-4.662 2.412l1.458 1.35c.9-1.08 1.836-1.746 3.132-1.746 1.116 0 2.106.72 2.106 1.89 0 1.008-.558 1.944-2.124 3.204l-4.554 3.636v1.836zm15.475.216c3.168 0 5.418-2.646 5.418-6.408 0-3.744-2.25-6.39-5.418-6.39-3.186 0-5.418 2.646-5.418 6.39 0 3.762 2.232 6.408 5.418 6.408zm0-2.052c-1.836 0-3.132-1.8-3.132-4.356s1.296-4.338 3.132-4.338 3.114 1.782 3.114 4.338-1.278 4.356-3.114 4.356zm8.875 1.836h2.25v-12.366h-1.8l-3.474 2.358.9 1.584 2.124-1.35v9.774zm8.717.216c2.664 0 4.824-1.296 4.824-3.51 0-1.458-1.062-2.538-2.52-3.096 1.242-.504 2.196-1.422 2.196-2.862 0-2.088-2.106-3.33-4.5-3.33-2.322 0-4.482 1.206-4.482 3.33 0 1.404.918 2.322 2.196 2.862-1.44.522-2.52 1.602-2.52 3.096 0 2.196 2.124 3.51 4.806 3.51zm0-7.416c-1.026-.054-2.268-.666-2.268-1.764 0-.972.972-1.71 2.268-1.71 1.296 0 2.286.738 2.286 1.71 0 1.08-1.224 1.71-2.286 1.764zm0 5.49c-1.458 0-2.556-.72-2.556-1.8 0-1.152 1.422-1.836 2.556-1.89 1.152.054 2.556.738 2.556 1.89 0 1.08-1.116 1.8-2.556 1.8z" fill="#5C2CFF"/><path d="M289.44 393.371h9.09v-2.052h-5.598l2.592-2.088c2.124-1.638 2.88-2.952 2.88-4.59 0-2.286-1.872-3.852-4.32-3.852-1.998 0-3.492.882-4.662 2.412l1.458 1.35c.9-1.08 1.836-1.746 3.132-1.746 1.116 0 2.106.72 2.106 1.89 0 1.008-.558 1.944-2.124 3.204l-4.554 3.636v1.836zm15.475.216c3.168 0 5.418-2.646 5.418-6.408 0-3.744-2.25-6.39-5.418-6.39-3.186 0-5.418 2.646-5.418 6.39 0 3.762 2.232 6.408 5.418 6.408zm0-2.052c-1.836 0-3.132-1.8-3.132-4.356s1.296-4.338 3.132-4.338 3.114 1.782 3.114 4.338-1.278 4.356-3.114 4.356zm8.875 1.836h2.25v-12.366h-1.8l-3.474 2.358.9 1.584 2.124-1.35v9.774zm8.717.216c2.664 0 4.824-1.296 4.824-3.51 0-1.458-1.062-2.538-2.52-3.096 1.242-.504 2.196-1.422 2.196-2.862 0-2.088-2.106-3.33-4.5-3.33-2.322 0-4.482 1.206-4.482 3.33 0 1.404.918 2.322 2.196 2.862-1.44.522-2.52 1.602-2.52 3.096 0 2.196 2.124 3.51 4.806 3.51zm0-7.416c-1.026-.054-2.268-.666-2.268-1.764 0-.972.972-1.71 2.268-1.71 1.296 0 2.286.738 2.286 1.71 0 1.08-1.224 1.71-2.286 1.764zm0 5.49c-1.458 0-2.556-.72-2.556-1.8 0-1.152 1.422-1.836 2.556-1.89 1.152.054 2.556.738 2.556 1.89 0 1.08-1.116 1.8-2.556 1.8z" fill="#000" fill-opacity=".2"/><path d="M71.705 393.371h9.09v-2.052h-5.598l2.592-2.088c2.124-1.638 2.88-2.952 2.88-4.59 0-2.286-1.872-3.852-4.32-3.852-1.998 0-3.492.882-4.662 2.412l1.458 1.35c.9-1.08 1.836-1.746 3.132-1.746 1.116 0 2.106.72 2.106 1.89 0 1.008-.558 1.944-2.124 3.204l-4.554 3.636v1.836zm15.475.216c3.168 0 5.418-2.646 5.418-6.408 0-3.744-2.25-6.39-5.418-6.39-3.186 0-5.418 2.646-5.418 6.39 0 3.762 2.232 6.408 5.418 6.408zm0-2.052c-1.836 0-3.132-1.8-3.132-4.356s1.296-4.338 3.132-4.338 3.114 1.782 3.114 4.338-1.278 4.356-3.114 4.356zm8.875 1.836h2.25v-12.366h-1.8l-3.474 2.358.9 1.584 2.124-1.35v9.774zm4.738 0h2.556l5.094-10.674v-1.692h-8.927v2.052h6.317l-5.04 10.314z" fill="#5C2CFF"/><path d="M71.705 393.371h9.09v-2.052h-5.598l2.592-2.088c2.124-1.638 2.88-2.952 2.88-4.59 0-2.286-1.872-3.852-4.32-3.852-1.998 0-3.492.882-4.662 2.412l1.458 1.35c.9-1.08 1.836-1.746 3.132-1.746 1.116 0 2.106.72 2.106 1.89 0 1.008-.558 1.944-2.124 3.204l-4.554 3.636v1.836zm15.475.216c3.168 0 5.418-2.646 5.418-6.408 0-3.744-2.25-6.39-5.418-6.39-3.186 0-5.418 2.646-5.418 6.39 0 3.762 2.232 6.408 5.418 6.408zm0-2.052c-1.836 0-3.132-1.8-3.132-4.356s1.296-4.338 3.132-4.338 3.114 1.782 3.114 4.338-1.278 4.356-3.114 4.356zm8.875 1.836h2.25v-12.366h-1.8l-3.474 2.358.9 1.584 2.124-1.35v9.774zm4.738 0h2.556l5.094-10.674v-1.692h-8.927v2.052h6.317l-5.04 10.314z" fill="#000" fill-opacity=".2"/><path d="M22 351.371c7.568-6.249 7.793-10.796 12.42-17.512 4.755-6.903 14.573-6.76 24.305-9.271 4.66-1.202 9.317-3.777 14.371-4.121 5.432-.368 13.065-.464 18.451-1.259 13.754-2.028 27.998-1.074 41.427-4.406 8.74-2.169 17.748-2.756 26.702-4.407 4.271-.787 9.545-2.129 14.015-2.289 8.92-.32 17.303-4.827 26.347-6.123 7.319-1.05 15.864-3.902 23.153-4.178 3.005-.114 7.554-1.466 10.467-2.003 2.433-.449 7.522 2.274 9.581 3.033 11.992 4.421 16.014 6.744 29.806 4.006 12.033-2.389 23.571-6.622 32.29-12.247 4.343-2.802 10.003-6.476 15.258-8.47 11.636-4.416 21.866-10.539 34.33-14.25 11.694-3.482 24.166-10.755 33.443-16.425 24.17-14.772 48.934-28.936 72.741-44.295 10.798-6.966 21.725-13.36 35.04-18.084 6.716-2.383 13.83-7.263 19.249-10.759 3.798-2.45 8.799-7.842 14.371-8.241 8.64-.619 17.651-.431 25.548-1.03 11.93-.906 25.945-11.107 35.839-14.937 6.712-2.598 11.887-6.494 18.451-8.985 3.406-1.292 10.279-5.665 12.419-8.012 6.034-6.618 16.905-12.101 24.395-18.142 7.67-6.185 17.906-13.82 23.862-20.545 6.814-7.692 22.076-13.673 32.823-18.77 9.922-4.708 19.557-10.033 29.451-14.136 7.992-3.315 15.571-6.583 23.951-8.985 3.174-.91 9.651-3.043 12.863-1.316 4.178 2.246 13.103 1.959 15.879 5.093 1.51 1.705 13.816 4.447 16.677 4.922 9.939 1.648 19.66 1.648 25.637-4.35 6.781-6.805 20.685-12.887 32.378-15.68 16.768-4.007 37.363-9.043 55.443-9.043 19.777 0 40.24-5.615 60.41-6.18 13.167-.37 27.147-2.819 40.007-4.579 16.93-2.317 34.3-2.827 51.27-5.208 15.03-2.107 32.71-.954 47.11-4.864 9.87-2.683 20.45-3.892 31.14-3.892 18.94 0 37.71-2.06 56.68-2.06" stroke="#5C2CFF" stroke-width="6" stroke-linecap="round"/><path d="M22 351.371c7.568-6.249 7.793-10.796 12.42-17.512 4.755-6.903 14.573-6.76 24.305-9.271 4.66-1.202 9.317-3.777 14.371-4.121 5.432-.368 13.065-.464 18.451-1.259 13.754-2.028 27.998-1.074 41.427-4.406 8.74-2.169 17.748-2.756 26.702-4.407 4.271-.787 9.545-2.129 14.015-2.289 8.92-.32 17.303-4.827 26.347-6.123 7.319-1.05 15.864-3.902 23.153-4.178 3.005-.114 7.554-1.466 10.467-2.003 2.433-.449 7.522 2.274 9.581 3.033 11.992 4.421 16.014 6.744 29.806 4.006 12.033-2.389 23.571-6.622 32.29-12.247 4.343-2.802 10.003-6.476 15.258-8.47 11.636-4.416 21.866-10.539 34.33-14.25 11.694-3.482 24.166-10.755 33.443-16.425 24.17-14.772 48.934-28.936 72.741-44.295 10.798-6.966 21.725-13.36 35.04-18.084 6.716-2.383 13.83-7.263 19.249-10.759 3.798-2.45 8.799-7.842 14.371-8.241 8.64-.619 17.651-.431 25.548-1.03 11.93-.906 25.945-11.107 35.839-14.937 6.712-2.598 11.887-6.494 18.451-8.985 3.406-1.292 10.279-5.665 12.419-8.012 6.034-6.618 16.905-12.101 24.395-18.142 7.67-6.185 17.906-13.82 23.862-20.545 6.814-7.692 22.076-13.673 32.823-18.77 9.922-4.708 19.557-10.033 29.451-14.136 7.992-3.315 15.571-6.583 23.951-8.985 3.174-.91 9.651-3.043 12.863-1.316 4.178 2.246 13.103 1.959 15.879 5.093 1.51 1.705 13.816 4.447 16.677 4.922 9.939 1.648 19.66 1.648 25.637-4.35 6.781-6.805 20.685-12.887 32.378-15.68 16.768-4.007 37.363-9.043 55.443-9.043 19.777 0 40.24-5.615 60.41-6.18 13.167-.37 27.147-2.819 40.007-4.579 16.93-2.317 34.3-2.827 51.27-5.208 15.03-2.107 32.71-.954 47.11-4.864 9.87-2.683 20.45-3.892 31.14-3.892 18.94 0 37.71-2.06 56.68-2.06" stroke="#000" stroke-opacity=".2" stroke-width="6" stroke-linecap="round"/></svg>