<svg fill="none" height="331" viewBox="0 0 564 331" width="564" xmlns="http://www.w3.org/2000/svg" xmlns:xlink="http://www.w3.org/1999/xlink"><mask id="a" height="59" maskUnits="userSpaceOnUse" width="64" x="417" y="146"><path d="m481 146.505h-64v58h64z" fill="#02ccaf"/></mask><path d="m416.791 145.505h-7.16v60h7.16z" fill="#5d3ccc"/><path d="m409.646 145.505h-26.352v60h26.352z" fill="#7d66cb"/><path d="m383.294 145.505h-383.294v60h383.294z" fill="#4a23cc"/><path d="m417 204.505v-58h63v58z" stroke="#02ccaf" stroke-width="2"/><g clip-rule="evenodd" fill-rule="evenodd" mask="url(#a)"><path d="m962.057 1031.13-961.678208-897.579 1.236378-1.154 961.67883 897.573z" fill="#b0fbde"/><path d="m458.488 1031.13-961.678-897.579 1.236-1.154 961.679 897.573z" fill="#b0fbde"/><path d="m1213.84 1031.13-961.675-897.579 1.236-1.154 961.679 897.573z" fill="#b0fbde"/><path d="m710.272 1031.13-961.679-897.579 1.236-1.154 961.679 897.573z" fill="#b0fbde"/><path d="m1087.95 1031.13-961.678-897.579 1.237-1.154 961.681 897.573z" fill="#b0fbde"/><path d="m584.38 1031.13-961.679-897.579 1.237-1.154 961.678 897.573z" fill="#b0fbde"/><path d="m1339.73 1031.13-961.674-897.579 1.237-1.154 961.677 897.573z" fill="#02ccaf"/><g fill="#b0fbde"><path d="m836.165 1031.13-961.679-897.579 1.237-1.154 961.678 897.573z"/><path d="m1025.01 1031.13-961.683-897.579 1.2364-1.154 961.6766 897.573z"/><path d="m521.434 1031.13-961.679-897.579 1.236-1.154 961.679 897.573z"/><path d="m1276.79 1031.13-961.68-897.579 1.236-1.154 961.684 897.573z"/><path d="m773.219 1031.13-961.679-897.579 1.236-1.154 961.679 897.573z"/><path d="m1150.9 1031.13-961.683-897.579 1.237-1.154 961.676 897.573z"/><path d="m647.327 1031.13-961.678-897.579 1.236-1.154 961.679 897.573z"/></g><path d="m1402.68 1031.13-961.678-897.579 1.237-1.154 961.681 897.573z" fill="#02ccaf"/><path d="m899.112 1031.13-961.6785-897.579 1.2364-1.154 961.6791 897.573z" fill="#b0fbde"/><path d="m993.531 1031.13-961.6786-897.579 1.2363-1.154 961.6783 897.573z" fill="#b0fbde"/><path d="m489.961 1031.13-961.678-897.579 1.236-1.154 961.679 897.573z" fill="#b0fbde"/><path d="m1245.31 1031.13-961.674-897.579 1.237-1.154 961.677 897.573z" fill="#b0fbde"/><path d="m741.746 1031.13-961.679-897.579 1.237-1.154 961.679 897.573z" fill="#b0fbde"/><path d="m1119.42 1031.13-961.674-897.579 1.236-1.154 961.678 897.573z" fill="#b0fbde"/><path d="m615.853 1031.13-961.679-897.579 1.236-1.154 961.679 897.573z" fill="#b0fbde"/><path d="m1371.21 1031.13-961.68-897.579 1.236-1.154 961.674 897.573z" fill="#02ccaf"/><path d="m867.637 1031.13-961.6781-897.579 1.2364-1.154 961.6787 897.573z" fill="#b0fbde"/><path d="m1056.48 1031.13-961.6823-897.579 1.2364-1.154 961.6759 897.573z" fill="#b0fbde"/><path d="m552.907 1031.13-961.678-897.579 1.236-1.154 961.679 897.573z" fill="#b0fbde"/><path d="m1308.26 1031.13-961.675-897.579 1.236-1.154 961.679 897.573z" fill="#02ccaf"/><path d="m804.691 1031.13-961.678-897.579 1.236-1.154 961.679 897.573z" fill="#b0fbde"/><path d="m1182.37 1031.13-961.679-897.579 1.236-1.154 961.683 897.573z" fill="#b0fbde"/><path d="m678.8 1031.13-961.679-897.579 1.237-1.154 961.678 897.573z" fill="#b0fbde"/><path d="m427.014 1031.13-961.679-897.579 1.237-1.154 961.678 897.573z" fill="#b0fbde"/><path d="m1434.15 1031.13-961.675-897.579 1.236-1.154 961.679 897.573z" fill="#b0fbde"/><path d="m930.586 1031.13-961.6788-897.579 1.2364-1.154 961.6784 897.573z" fill="#b0fbde"/></g><path d="m263.28 324.505h2.2v-7.876h4.84v-2.112h-4.84v-20.24h-2.772l-14.96 20.328.308 2.024h15.224zm-12.892-9.988 12.892-17.6v17.6zm33.774-20.768c-5.632 0-10.032 4.488-10.032 9.944s4.4 9.46 9.592 9.46c4.224 0 7.832-2.288 9.064-5.456.044.396.044.792.044 1.232 0 8.096-3.96 13.992-9.328 13.992-2.816 0-5.412-1.232-7.436-3.256l-1.232 1.76c2.332 2.244 5.324 3.608 8.58 3.608 6.688 0 11.572-6.82 11.572-16.104 0-9.196-3.696-15.18-10.824-15.18zm-.044 17.38c-4.224 0-7.788-3.3-7.788-7.524 0-4.136 3.388-7.832 7.832-7.832 4.488 0 7.392 3.388 8.316 8.888-.792 3.652-4.268 6.468-8.36 6.468zm18.506 13.376h2.508l13.376-28.512v-1.716h-20.152v2.156h17.556z" fill="#5c2cff"/><path d="m263.28 324.505h2.2v-7.876h4.84v-2.112h-4.84v-20.24h-2.772l-14.96 20.328.308 2.024h15.224zm-12.892-9.988 12.892-17.6v17.6zm33.774-20.768c-5.632 0-10.032 4.488-10.032 9.944s4.4 9.46 9.592 9.46c4.224 0 7.832-2.288 9.064-5.456.044.396.044.792.044 1.232 0 8.096-3.96 13.992-9.328 13.992-2.816 0-5.412-1.232-7.436-3.256l-1.232 1.76c2.332 2.244 5.324 3.608 8.58 3.608 6.688 0 11.572-6.82 11.572-16.104 0-9.196-3.696-15.18-10.824-15.18zm-.044 17.38c-4.224 0-7.788-3.3-7.788-7.524 0-4.136 3.388-7.832 7.832-7.832 4.488 0 7.392 3.388 8.316 8.888-.792 3.652-4.268 6.468-8.36 6.468zm18.506 13.376h2.508l13.376-28.512v-1.716h-20.152v2.156h17.556z" fill="#000" fill-opacity=".2"/><path d="m40.62 324.505h2.508l13.376-28.512v-1.716h-20.152v2.156h17.556zm22.7645 5.544c2.024-2.596 2.816-4.356 2.816-5.94 0-1.496-.704-2.42-1.804-2.42-1.012 0-1.716.748-1.716 1.672s.704 1.672 1.672 1.672c-.308 1.276-1.1 2.728-2.288 4.048zm8.955-5.544h20.548v-2.156h-17.248l9.68-8.272c4.752-4.092 6.952-7.656 6.952-11.484 0-4.884-3.872-8.844-9.284-8.844-4.004 0-7.744 1.936-10.384 5.808l1.628 1.32c2.332-3.256 5.412-5.104 8.756-5.104 4.18 0 7.084 3.168 7.084 6.864 0 2.992-1.848 6.16-6.204 9.9l-11.528 9.856zm34.8385.528c5.544 0 9.9-3.872 9.9-8.756 0-3.916-2.552-6.512-5.896-7.26 3.08-.924 5.236-3.432 5.236-7.04 0-4.576-4.18-8.228-9.372-8.228-4.092 0-7.3481 2.024-10.0321 5.632l1.54 1.364c2.3761-3.212 5.0601-4.884 8.3161-4.884 4.004 0 7.304 2.816 7.304 6.38 0 3.74-2.992 5.94-7.7 5.896h-2.948v2.112h2.904c5.236 0 8.404 2.112 8.404 5.94 0 3.784-3.344 6.732-7.656 6.732-3.784 0-6.82-1.76-9.0201-4.972l-1.54 1.496c2.684 3.564 6.2041 5.588 10.5601 5.588zm27.869 0c6.996 0 11.924-6.468 11.924-15.664 0-9.152-4.928-15.62-11.924-15.62-7.04 0-11.968 6.468-11.968 15.62 0 9.196 4.928 15.664 11.968 15.664zm0-2.112c-5.72 0-9.724-5.632-9.724-13.552s4.004-13.508 9.724-13.508c5.676 0 9.68 5.588 9.68 13.508s-4.004 13.552-9.68 13.552z" fill="#5c2cff"/><path d="m40.62 324.505h2.508l13.376-28.512v-1.716h-20.152v2.156h17.556zm22.7645 5.544c2.024-2.596 2.816-4.356 2.816-5.94 0-1.496-.704-2.42-1.804-2.42-1.012 0-1.716.748-1.716 1.672s.704 1.672 1.672 1.672c-.308 1.276-1.1 2.728-2.288 4.048zm8.955-5.544h20.548v-2.156h-17.248l9.68-8.272c4.752-4.092 6.952-7.656 6.952-11.484 0-4.884-3.872-8.844-9.284-8.844-4.004 0-7.744 1.936-10.384 5.808l1.628 1.32c2.332-3.256 5.412-5.104 8.756-5.104 4.18 0 7.084 3.168 7.084 6.864 0 2.992-1.848 6.16-6.204 9.9l-11.528 9.856zm34.8385.528c5.544 0 9.9-3.872 9.9-8.756 0-3.916-2.552-6.512-5.896-7.26 3.08-.924 5.236-3.432 5.236-7.04 0-4.576-4.18-8.228-9.372-8.228-4.092 0-7.3481 2.024-10.0321 5.632l1.54 1.364c2.3761-3.212 5.0601-4.884 8.3161-4.884 4.004 0 7.304 2.816 7.304 6.38 0 3.74-2.992 5.94-7.7 5.896h-2.948v2.112h2.904c5.236 0 8.404 2.112 8.404 5.94 0 3.784-3.344 6.732-7.656 6.732-3.784 0-6.82-1.76-9.0201-4.972l-1.54 1.496c2.684 3.564 6.2041 5.588 10.5601 5.588zm27.869 0c6.996 0 11.924-6.468 11.924-15.664 0-9.152-4.928-15.62-11.924-15.62-7.04 0-11.968 6.468-11.968 15.62 0 9.196 4.928 15.664 11.968 15.664zm0-2.112c-5.72 0-9.724-5.632-9.724-13.552s4.004-13.508 9.724-13.508c5.676 0 9.68 5.588 9.68 13.508s-4.004 13.552-9.68 13.552z" fill="#000" fill-opacity=".2"/><path d="m253.44 239.505h3.078v-7.164l3.564 6.444 3.564-6.444v7.164h3.078v-12.366h-3.078l-3.564 6.444-3.564-6.444h-3.078zm26.81-9.612v-2.754h-9.738v12.366h9.738v-2.754h-6.66v-2.178h6.048v-2.754h-6.048v-1.926zm3.344 9.612h3.078v-7.164l3.564 6.444 3.564-6.444v7.164h3.078v-12.366h-3.078l-3.564 6.444-3.564-6.444h-3.078zm17.071 0h6.714c2.448 0 4.194-1.368 4.194-3.348 0-1.35-.846-2.52-2.286-3.15 1.08-.54 1.728-1.53 1.728-2.754 0-1.8-1.602-3.114-3.888-3.114h-6.462zm3.06-7.47v-2.286h2.664c.846 0 1.458.468 1.458 1.134s-.612 1.152-1.458 1.152zm0 4.86v-2.484h3.114c.918 0 1.566.522 1.566 1.242s-.648 1.242-1.566 1.242zm20.674-7.002v-2.754h-9.738v12.366h9.738v-2.754h-6.66v-2.178h6.048v-2.754h-6.048v-1.926zm13.856 9.612-2.934-4.158c1.746-.612 2.862-2.07 2.862-3.96 0-2.502-1.962-4.248-4.698-4.248h-5.742v12.366h3.078v-3.87h1.224l2.718 3.87zm-7.434-9.558h2.394c1.062 0 1.8.576 1.8 1.44s-.738 1.44-1.8 1.44h-2.394zm-71.387 39.774c1.926 0 3.672-.828 4.896-2.142l-2.232-1.98c-.648.81-1.602 1.332-2.664 1.332-1.89 0-3.492-1.656-3.492-3.618 0-1.944 1.602-3.6 3.492-3.6 1.044 0 2.016.522 2.646 1.332l2.25-1.998c-1.224-1.296-2.97-2.124-4.896-2.124-3.618 0-6.66 2.916-6.66 6.39s3.042 6.408 6.66 6.408zm13.785 0c3.6 0 6.642-2.934 6.642-6.408s-3.042-6.39-6.642-6.39c-3.618 0-6.66 2.916-6.66 6.39s3.042 6.408 6.66 6.408zm0-2.79c-1.89 0-3.492-1.656-3.492-3.618 0-1.944 1.602-3.6 3.492-3.6s3.474 1.656 3.474 3.6c0 1.962-1.584 3.618-3.474 3.618zm9.777 2.574h3.078v-7.164l3.564 6.444 3.564-6.444v7.164h3.078v-12.366h-3.078l-3.564 6.444-3.564-6.444h-3.078zm17.072 0h3.078v-3.87h2.664c2.736 0 4.698-1.746 4.698-4.248s-1.962-4.248-4.698-4.248h-5.742zm3.078-6.678v-2.88h2.394c1.062 0 1.8.576 1.8 1.44s-.738 1.44-1.8 1.44zm19.21 6.678h3.456l-4.896-12.366h-3.456l-4.896 12.366h3.456l.756-1.89h4.824zm-4.662-4.212 1.494-3.798 1.494 3.798zm10.91 4.212h3.078v-7.308l5.4 7.308h3.06v-12.366h-3.06v7.308l-5.4-7.308h-3.078zm15.332 0h3.078v-12.366h-3.078zm16.597-9.612v-2.754h-9.738v12.366h9.738v-2.754h-6.66v-2.178h6.048v-2.754h-6.048v-1.926zm8.185 9.828c3.06 0 4.95-1.548 4.95-4.032 0-2.322-1.782-3.114-4.554-3.708-1.836-.396-2.43-.648-2.43-1.404 0-.612.558-1.08 1.548-1.08 1.152 0 2.394.45 3.528 1.314l1.566-2.196c-1.314-1.08-2.934-1.692-5.022-1.692-2.808 0-4.716 1.584-4.716 3.96 0 2.484 1.962 3.204 4.608 3.798 1.8.432 2.376.594 2.376 1.332 0 .666-.594 1.134-1.746 1.134-1.512 0-2.862-.576-4.068-1.566l-1.746 2.07c1.512 1.35 3.51 2.07 5.706 2.07z" fill="#5c2cff"/><path d="m253.44 239.505h3.078v-7.164l3.564 6.444 3.564-6.444v7.164h3.078v-12.366h-3.078l-3.564 6.444-3.564-6.444h-3.078zm26.81-9.612v-2.754h-9.738v12.366h9.738v-2.754h-6.66v-2.178h6.048v-2.754h-6.048v-1.926zm3.344 9.612h3.078v-7.164l3.564 6.444 3.564-6.444v7.164h3.078v-12.366h-3.078l-3.564 6.444-3.564-6.444h-3.078zm17.071 0h6.714c2.448 0 4.194-1.368 4.194-3.348 0-1.35-.846-2.52-2.286-3.15 1.08-.54 1.728-1.53 1.728-2.754 0-1.8-1.602-3.114-3.888-3.114h-6.462zm3.06-7.47v-2.286h2.664c.846 0 1.458.468 1.458 1.134s-.612 1.152-1.458 1.152zm0 4.86v-2.484h3.114c.918 0 1.566.522 1.566 1.242s-.648 1.242-1.566 1.242zm20.674-7.002v-2.754h-9.738v12.366h9.738v-2.754h-6.66v-2.178h6.048v-2.754h-6.048v-1.926zm13.856 9.612-2.934-4.158c1.746-.612 2.862-2.07 2.862-3.96 0-2.502-1.962-4.248-4.698-4.248h-5.742v12.366h3.078v-3.87h1.224l2.718 3.87zm-7.434-9.558h2.394c1.062 0 1.8.576 1.8 1.44s-.738 1.44-1.8 1.44h-2.394zm-71.387 39.774c1.926 0 3.672-.828 4.896-2.142l-2.232-1.98c-.648.81-1.602 1.332-2.664 1.332-1.89 0-3.492-1.656-3.492-3.618 0-1.944 1.602-3.6 3.492-3.6 1.044 0 2.016.522 2.646 1.332l2.25-1.998c-1.224-1.296-2.97-2.124-4.896-2.124-3.618 0-6.66 2.916-6.66 6.39s3.042 6.408 6.66 6.408zm13.785 0c3.6 0 6.642-2.934 6.642-6.408s-3.042-6.39-6.642-6.39c-3.618 0-6.66 2.916-6.66 6.39s3.042 6.408 6.66 6.408zm0-2.79c-1.89 0-3.492-1.656-3.492-3.618 0-1.944 1.602-3.6 3.492-3.6s3.474 1.656 3.474 3.6c0 1.962-1.584 3.618-3.474 3.618zm9.777 2.574h3.078v-7.164l3.564 6.444 3.564-6.444v7.164h3.078v-12.366h-3.078l-3.564 6.444-3.564-6.444h-3.078zm17.072 0h3.078v-3.87h2.664c2.736 0 4.698-1.746 4.698-4.248s-1.962-4.248-4.698-4.248h-5.742zm3.078-6.678v-2.88h2.394c1.062 0 1.8.576 1.8 1.44s-.738 1.44-1.8 1.44zm19.21 6.678h3.456l-4.896-12.366h-3.456l-4.896 12.366h3.456l.756-1.89h4.824zm-4.662-4.212 1.494-3.798 1.494 3.798zm10.91 4.212h3.078v-7.308l5.4 7.308h3.06v-12.366h-3.06v7.308l-5.4-7.308h-3.078zm15.332 0h3.078v-12.366h-3.078zm16.597-9.612v-2.754h-9.738v12.366h9.738v-2.754h-6.66v-2.178h6.048v-2.754h-6.048v-1.926zm8.185 9.828c3.06 0 4.95-1.548 4.95-4.032 0-2.322-1.782-3.114-4.554-3.708-1.836-.396-2.43-.648-2.43-1.404 0-.612.558-1.08 1.548-1.08 1.152 0 2.394.45 3.528 1.314l1.566-2.196c-1.314-1.08-2.934-1.692-5.022-1.692-2.808 0-4.716 1.584-4.716 3.96 0 2.484 1.962 3.204 4.608 3.798 1.8.432 2.376.594 2.376 1.332 0 .666-.594 1.134-1.746 1.134-1.512 0-2.862-.576-4.068-1.566l-1.746 2.07c1.512 1.35 3.51 2.07 5.706 2.07z" fill="#000" fill-opacity=".2"/><path d="m477.434 268.721c3.6 0 6.642-2.934 6.642-6.408s-3.042-6.39-6.642-6.39c-3.618 0-6.66 2.916-6.66 6.39s3.042 6.408 6.66 6.408zm0-2.79c-1.89 0-3.492-1.656-3.492-3.618 0-1.944 1.602-3.6 3.492-3.6s3.474 1.656 3.474 3.6c0 1.962-1.584 3.618-3.474 3.618zm12.693 2.574h3.078v-9.612h3.762v-2.754h-10.584v2.754h3.744zm17.951-12.366v4.68h-5.076v-4.68h-3.078v12.366h3.078v-4.932h5.076v4.932h3.078v-12.366zm16.599 2.754v-2.754h-9.738v12.366h9.738v-2.754h-6.66v-2.178h6.048v-2.754h-6.048v-1.926zm13.855 9.612-2.934-4.158c1.746-.612 2.862-2.07 2.862-3.96 0-2.502-1.962-4.248-4.698-4.248h-5.742v12.366h3.078v-3.87h1.224l2.718 3.87zm-7.434-9.558h2.394c1.062 0 1.8.576 1.8 1.44s-.738 1.44-1.8 1.44h-2.394z" fill="#5c2cff"/><path d="m477.434 268.721c3.6 0 6.642-2.934 6.642-6.408s-3.042-6.39-6.642-6.39c-3.618 0-6.66 2.916-6.66 6.39s3.042 6.408 6.66 6.408zm0-2.79c-1.89 0-3.492-1.656-3.492-3.618 0-1.944 1.602-3.6 3.492-3.6s3.474 1.656 3.474 3.6c0 1.962-1.584 3.618-3.474 3.618zm12.693 2.574h3.078v-9.612h3.762v-2.754h-10.584v2.754h3.744zm17.951-12.366v4.68h-5.076v-4.68h-3.078v12.366h3.078v-4.932h5.076v4.932h3.078v-12.366zm16.599 2.754v-2.754h-9.738v12.366h9.738v-2.754h-6.66v-2.178h6.048v-2.754h-6.048v-1.926zm13.855 9.612-2.934-4.158c1.746-.612 2.862-2.07 2.862-3.96 0-2.502-1.962-4.248-4.698-4.248h-5.742v12.366h3.078v-3.87h1.224l2.718 3.87zm-7.434-9.558h2.394c1.062 0 1.8.576 1.8 1.44s-.738 1.44-1.8 1.44h-2.394z" fill="#000" fill-opacity=".2"/><path d="m145.744 121.505h2.2v-30.2281h-1.76l-7.832 5.06 1.056 1.716 6.336-4.004zm19.219.528c5.544 0 9.9-3.872 9.9-8.756 0-3.916-2.552-6.512-5.896-7.26 3.08-.924 5.236-3.432 5.236-7.0401 0-4.576-4.18-8.228-9.372-8.228-4.092 0-7.348 2.024-10.032 5.632l1.54 1.364c2.376-3.212 5.06-4.884 8.316-4.884 4.004 0 7.304 2.816 7.304 6.38 0 3.7401-2.992 5.9401-7.7 5.8961h-2.948v2.112h2.904c5.236 0 8.404 2.112 8.404 5.94 0 3.784-3.344 6.732-7.656 6.732-3.784 0-6.82-1.76-9.02-4.972l-1.54 1.496c2.684 3.564 6.204 5.588 10.56 5.588zm26.153 0c5.588 0 10.032-4.356 10.032-9.944 0-5.236-4.312-9.108-9.46-9.108-2.772 0-5.28.88-6.996 2.244l.308-11.7921h14.872v-2.156h-17.028l-.396 15.3121 1.892.968c2.068-1.584 4.488-2.508 6.864-2.508 4.312 0 7.744 3.168 7.744 7.172 0 4.268-3.476 7.744-7.788 7.744-3.564 0-6.908-1.672-9.328-4.356l-1.452 1.628c2.596 2.948 6.424 4.796 10.736 4.796z" fill="#5c2cff"/><path d="m145.744 121.505h2.2v-30.2281h-1.76l-7.832 5.06 1.056 1.716 6.336-4.004zm19.219.528c5.544 0 9.9-3.872 9.9-8.756 0-3.916-2.552-6.512-5.896-7.26 3.08-.924 5.236-3.432 5.236-7.0401 0-4.576-4.18-8.228-9.372-8.228-4.092 0-7.348 2.024-10.032 5.632l1.54 1.364c2.376-3.212 5.06-4.884 8.316-4.884 4.004 0 7.304 2.816 7.304 6.38 0 3.7401-2.992 5.9401-7.7 5.8961h-2.948v2.112h2.904c5.236 0 8.404 2.112 8.404 5.94 0 3.784-3.344 6.732-7.656 6.732-3.784 0-6.82-1.76-9.02-4.972l-1.54 1.496c2.684 3.564 6.204 5.588 10.56 5.588zm26.153 0c5.588 0 10.032-4.356 10.032-9.944 0-5.236-4.312-9.108-9.46-9.108-2.772 0-5.28.88-6.996 2.244l.308-11.7921h14.872v-2.156h-17.028l-.396 15.3121 1.892.968c2.068-1.584 4.488-2.508 6.864-2.508 4.312 0 7.744 3.168 7.744 7.172 0 4.268-3.476 7.744-7.788 7.744-3.564 0-6.908-1.672-9.328-4.356l-1.452 1.628c2.596 2.948 6.424 4.796 10.736 4.796z" fill="#000" fill-opacity=".2"/><path d="m477.744 324.505h2.2v-30.228h-1.76l-7.832 5.06 1.056 1.716 6.336-4.004zm8.615 0h20.548v-2.156h-17.248l9.68-8.272c4.752-4.092 6.952-7.656 6.952-11.484 0-4.884-3.872-8.844-9.284-8.844-4.004 0-7.744 1.936-10.384 5.808l1.628 1.32c2.332-3.256 5.412-5.104 8.756-5.104 4.18 0 7.084 3.168 7.084 6.864 0 2.992-1.848 6.16-6.204 9.9l-11.528 9.856zm34.838.528c5.544 0 9.9-3.872 9.9-8.756 0-3.916-2.552-6.512-5.896-7.26 3.08-.924 5.236-3.432 5.236-7.04 0-4.576-4.18-8.228-9.372-8.228-4.092 0-7.348 2.024-10.032 5.632l1.54 1.364c2.376-3.212 5.06-4.884 8.316-4.884 4.004 0 7.304 2.816 7.304 6.38 0 3.74-2.992 5.94-7.7 5.896h-2.948v2.112h2.904c5.236 0 8.404 2.112 8.404 5.94 0 3.784-3.344 6.732-7.656 6.732-3.784 0-6.82-1.76-9.02-4.972l-1.54 1.496c2.684 3.564 6.204 5.588 10.56 5.588zm27.869 0c6.996 0 11.924-6.468 11.924-15.664 0-9.152-4.928-15.62-11.924-15.62-7.04 0-11.968 6.468-11.968 15.62 0 9.196 4.928 15.664 11.968 15.664zm0-2.112c-5.72 0-9.724-5.632-9.724-13.552s4.004-13.508 9.724-13.508c5.676 0 9.68 5.588 9.68 13.508s-4.004 13.552-9.68 13.552z" fill="#5c2cff"/><path d="m477.744 324.505h2.2v-30.228h-1.76l-7.832 5.06 1.056 1.716 6.336-4.004zm8.615 0h20.548v-2.156h-17.248l9.68-8.272c4.752-4.092 6.952-7.656 6.952-11.484 0-4.884-3.872-8.844-9.284-8.844-4.004 0-7.744 1.936-10.384 5.808l1.628 1.32c2.332-3.256 5.412-5.104 8.756-5.104 4.18 0 7.084 3.168 7.084 6.864 0 2.992-1.848 6.16-6.204 9.9l-11.528 9.856zm34.838.528c5.544 0 9.9-3.872 9.9-8.756 0-3.916-2.552-6.512-5.896-7.26 3.08-.924 5.236-3.432 5.236-7.04 0-4.576-4.18-8.228-9.372-8.228-4.092 0-7.348 2.024-10.032 5.632l1.54 1.364c2.376-3.212 5.06-4.884 8.316-4.884 4.004 0 7.304 2.816 7.304 6.38 0 3.74-2.992 5.94-7.7 5.896h-2.948v2.112h2.904c5.236 0 8.404 2.112 8.404 5.94 0 3.784-3.344 6.732-7.656 6.732-3.784 0-6.82-1.76-9.02-4.972l-1.54 1.496c2.684 3.564 6.204 5.588 10.56 5.588zm27.869 0c6.996 0 11.924-6.468 11.924-15.664 0-9.152-4.928-15.62-11.924-15.62-7.04 0-11.968 6.468-11.968 15.62 0 9.196 4.928 15.664 11.968 15.664zm0-2.112c-5.72 0-9.724-5.632-9.724-13.552s4.004-13.508 9.724-13.508c5.676 0 9.68 5.588 9.68 13.508s-4.004 13.552-9.68 13.552z" fill="#000" fill-opacity=".2"/><path d="m149.178 26.8929v-2.754h-9.738v12.366h9.738v-2.754h-6.66v-2.178h6.048v-2.754h-6.048v-1.926zm3.344 9.612h3.078v-7.308l5.4 7.308h3.06v-12.366h-3.06v7.308l-5.4-7.308h-3.078zm15.331 0h4.518c4.248 0 7.254-2.574 7.254-6.192s-3.006-6.174-7.254-6.174h-4.518zm3.078-2.79v-6.786h1.908c2.124 0 3.618 1.404 3.618 3.384s-1.494 3.402-3.618 3.402zm23.056 3.006c3.384 0 5.742-2.322 5.742-5.634v-6.948h-3.06v6.804c0 1.746-1.116 2.988-2.682 2.988-1.548 0-2.664-1.242-2.664-2.988v-6.804h-3.078v6.948c0 3.312 2.376 5.634 5.742 5.634zm14.104 0c3.06 0 4.95-1.548 4.95-4.032 0-2.322-1.782-3.114-4.554-3.708-1.836-.396-2.43-.648-2.43-1.404 0-.612.558-1.08 1.548-1.08 1.152 0 2.394.45 3.528 1.314l1.566-2.196c-1.314-1.08-2.934-1.692-5.022-1.692-2.808 0-4.716 1.584-4.716 3.96 0 2.484 1.962 3.204 4.608 3.798 1.8.432 2.376.594 2.376 1.332 0 .666-.594 1.134-1.746 1.134-1.512 0-2.862-.576-4.068-1.566l-1.746 2.07c1.512 1.35 3.51 2.07 5.706 2.07zm17.766-9.828v-2.754h-9.738v12.366h9.738v-2.754h-6.66v-2.178h6.048v-2.754h-6.048v-1.926zm13.856 9.612-2.934-4.158c1.746-.612 2.862-2.07 2.862-3.96 0-2.502-1.962-4.248-4.698-4.248h-5.742v12.366h3.078v-3.87h1.224l2.718 3.87zm-7.434-9.558h2.394c1.062 0 1.8.576 1.8 1.44s-.738 1.44-1.8 1.44h-2.394zm16.37 9.558h3.078v-7.164l3.564 6.444 3.564-6.444v7.164h3.078v-12.366h-3.078l-3.564 6.444-3.564-6.444h-3.078zm26.81-9.612v-2.754h-9.738v12.366h9.738v-2.754h-6.66v-2.178h6.048v-2.754h-6.048v-1.926zm3.344 9.612h3.078v-7.164l3.564 6.444 3.564-6.444v7.164h3.078v-12.366h-3.078l-3.564 6.444-3.564-6.444h-3.078zm17.072 0h6.714c2.448 0 4.194-1.368 4.194-3.348 0-1.35-.846-2.52-2.286-3.15 1.08-.54 1.728-1.53 1.728-2.754 0-1.8-1.602-3.114-3.888-3.114h-6.462zm3.06-7.47v-2.286h2.664c.846 0 1.458.468 1.458 1.134s-.612 1.152-1.458 1.152zm0 4.86v-2.484h3.114c.918 0 1.566.522 1.566 1.242s-.648 1.242-1.566 1.242zm20.673-7.002v-2.754h-9.738v12.366h9.738v-2.754h-6.66v-2.178h6.048v-2.754h-6.048v-1.926zm13.856 9.612-2.934-4.158c1.746-.612 2.862-2.07 2.862-3.96 0-2.502-1.962-4.248-4.698-4.248h-5.742v12.366h3.078v-3.87h1.224l2.718 3.87zm-7.434-9.558h2.394c1.062 0 1.8.576 1.8 1.44s-.738 1.44-1.8 1.44h-2.394zm15.426 9.774c3.06 0 4.95-1.548 4.95-4.032 0-2.322-1.782-3.114-4.554-3.708-1.836-.396-2.43-.648-2.43-1.404 0-.612.558-1.08 1.548-1.08 1.152 0 2.394.45 3.528 1.314l1.566-2.196c-1.314-1.08-2.934-1.692-5.022-1.692-2.808 0-4.716 1.584-4.716 3.96 0 2.484 1.962 3.204 4.608 3.798 1.8.432 2.376.594 2.376 1.332 0 .666-.594 1.134-1.746 1.134-1.512 0-2.862-.576-4.068-1.566l-1.746 2.07c1.512 1.35 3.51 2.07 5.706 2.07zm6.751 1.116h3.186l6.156-14.706h-3.186zm-203.925 28.884c3.06 0 4.95-1.548 4.95-4.032 0-2.322-1.782-3.114-4.554-3.708-1.836-.396-2.43-.648-2.43-1.404 0-.612.558-1.08 1.548-1.08 1.152 0 2.394.45 3.528 1.314l1.566-2.196c-1.314-1.08-2.934-1.692-5.022-1.692-2.808 0-4.716 1.584-4.716 3.96 0 2.484 1.962 3.204 4.608 3.798 1.8.432 2.376.594 2.376 1.332 0 .666-.594 1.134-1.746 1.134-1.512 0-2.862-.576-4.068-1.566l-1.746 2.07c1.512 1.35 3.51 2.07 5.706 2.07zm13.501 0c3.384 0 5.742-2.322 5.742-5.634v-6.948h-3.06v6.804c0 1.746-1.116 2.988-2.682 2.988-1.548 0-2.664-1.242-2.664-2.988v-6.804h-3.078v6.948c0 3.312 2.376 5.634 5.742 5.634zm9.262-.216h3.078v-3.87h2.664c2.736 0 4.698-1.746 4.698-4.248s-1.962-4.248-4.698-4.248h-5.742zm3.078-6.678v-2.88h2.394c1.062 0 1.8.576 1.8 1.44s-.738 1.44-1.8 1.44zm10.408 6.678h3.078v-3.87h2.664c2.736 0 4.698-1.746 4.698-4.248s-1.962-4.248-4.698-4.248h-5.742zm3.078-6.678v-2.88h2.394c1.062 0 1.8.576 1.8 1.44s-.738 1.44-1.8 1.44zm16.402 6.894c3.6 0 6.642-2.934 6.642-6.408s-3.042-6.39-6.642-6.39c-3.618 0-6.66 2.916-6.66 6.39s3.042 6.408 6.66 6.408zm0-2.79c-1.89 0-3.492-1.656-3.492-3.618 0-1.944 1.602-3.6 3.492-3.6s3.474 1.656 3.474 3.6c0 1.962-1.584 3.618-3.474 3.618zm20.289 2.574-2.934-4.158c1.746-.612 2.862-2.07 2.862-3.96 0-2.502-1.962-4.248-4.698-4.248h-5.742v12.366h3.078v-3.87h1.224l2.718 3.87zm-7.434-9.558h2.394c1.062 0 1.8.576 1.8 1.44s-.738 1.44-1.8 1.44h-2.394zm13.499 9.558h3.078v-9.612h3.762v-2.754h-10.584v2.754h3.744zm19.535-9.612v-2.754h-9.738v12.366h9.738v-2.754h-6.66v-2.178h6.048v-2.754h-6.048v-1.926zm13.856 9.612-2.934-4.158c1.746-.612 2.862-2.07 2.862-3.96 0-2.502-1.962-4.248-4.698-4.248h-5.742v12.366h3.078v-3.87h1.224l2.718 3.87zm-7.434-9.558h2.394c1.062 0 1.8.576 1.8 1.44s-.738 1.44-1.8 1.44h-2.394zm15.425 9.774c3.06 0 4.95-1.548 4.95-4.032 0-2.322-1.782-3.114-4.554-3.708-1.836-.396-2.43-.648-2.43-1.404 0-.612.558-1.08 1.548-1.08 1.152 0 2.394.45 3.528 1.314l1.566-2.196c-1.314-1.08-2.934-1.692-5.022-1.692-2.808 0-4.716 1.584-4.716 3.96 0 2.484 1.962 3.204 4.608 3.798 1.8.432 2.376.594 2.376 1.332 0 .666-.594 1.134-1.746 1.134-1.512 0-2.862-.576-4.068-1.566l-1.746 2.07c1.512 1.35 3.51 2.07 5.706 2.07z" fill="#5c2cff"/><path d="m149.178 26.8929v-2.754h-9.738v12.366h9.738v-2.754h-6.66v-2.178h6.048v-2.754h-6.048v-1.926zm3.344 9.612h3.078v-7.308l5.4 7.308h3.06v-12.366h-3.06v7.308l-5.4-7.308h-3.078zm15.331 0h4.518c4.248 0 7.254-2.574 7.254-6.192s-3.006-6.174-7.254-6.174h-4.518zm3.078-2.79v-6.786h1.908c2.124 0 3.618 1.404 3.618 3.384s-1.494 3.402-3.618 3.402zm23.056 3.006c3.384 0 5.742-2.322 5.742-5.634v-6.948h-3.06v6.804c0 1.746-1.116 2.988-2.682 2.988-1.548 0-2.664-1.242-2.664-2.988v-6.804h-3.078v6.948c0 3.312 2.376 5.634 5.742 5.634zm14.104 0c3.06 0 4.95-1.548 4.95-4.032 0-2.322-1.782-3.114-4.554-3.708-1.836-.396-2.43-.648-2.43-1.404 0-.612.558-1.08 1.548-1.08 1.152 0 2.394.45 3.528 1.314l1.566-2.196c-1.314-1.08-2.934-1.692-5.022-1.692-2.808 0-4.716 1.584-4.716 3.96 0 2.484 1.962 3.204 4.608 3.798 1.8.432 2.376.594 2.376 1.332 0 .666-.594 1.134-1.746 1.134-1.512 0-2.862-.576-4.068-1.566l-1.746 2.07c1.512 1.35 3.51 2.07 5.706 2.07zm17.766-9.828v-2.754h-9.738v12.366h9.738v-2.754h-6.66v-2.178h6.048v-2.754h-6.048v-1.926zm13.856 9.612-2.934-4.158c1.746-.612 2.862-2.07 2.862-3.96 0-2.502-1.962-4.248-4.698-4.248h-5.742v12.366h3.078v-3.87h1.224l2.718 3.87zm-7.434-9.558h2.394c1.062 0 1.8.576 1.8 1.44s-.738 1.44-1.8 1.44h-2.394zm16.37 9.558h3.078v-7.164l3.564 6.444 3.564-6.444v7.164h3.078v-12.366h-3.078l-3.564 6.444-3.564-6.444h-3.078zm26.81-9.612v-2.754h-9.738v12.366h9.738v-2.754h-6.66v-2.178h6.048v-2.754h-6.048v-1.926zm3.344 9.612h3.078v-7.164l3.564 6.444 3.564-6.444v7.164h3.078v-12.366h-3.078l-3.564 6.444-3.564-6.444h-3.078zm17.072 0h6.714c2.448 0 4.194-1.368 4.194-3.348 0-1.35-.846-2.52-2.286-3.15 1.08-.54 1.728-1.53 1.728-2.754 0-1.8-1.602-3.114-3.888-3.114h-6.462zm3.06-7.47v-2.286h2.664c.846 0 1.458.468 1.458 1.134s-.612 1.152-1.458 1.152zm0 4.86v-2.484h3.114c.918 0 1.566.522 1.566 1.242s-.648 1.242-1.566 1.242zm20.673-7.002v-2.754h-9.738v12.366h9.738v-2.754h-6.66v-2.178h6.048v-2.754h-6.048v-1.926zm13.856 9.612-2.934-4.158c1.746-.612 2.862-2.07 2.862-3.96 0-2.502-1.962-4.248-4.698-4.248h-5.742v12.366h3.078v-3.87h1.224l2.718 3.87zm-7.434-9.558h2.394c1.062 0 1.8.576 1.8 1.44s-.738 1.44-1.8 1.44h-2.394zm15.426 9.774c3.06 0 4.95-1.548 4.95-4.032 0-2.322-1.782-3.114-4.554-3.708-1.836-.396-2.43-.648-2.43-1.404 0-.612.558-1.08 1.548-1.08 1.152 0 2.394.45 3.528 1.314l1.566-2.196c-1.314-1.08-2.934-1.692-5.022-1.692-2.808 0-4.716 1.584-4.716 3.96 0 2.484 1.962 3.204 4.608 3.798 1.8.432 2.376.594 2.376 1.332 0 .666-.594 1.134-1.746 1.134-1.512 0-2.862-.576-4.068-1.566l-1.746 2.07c1.512 1.35 3.51 2.07 5.706 2.07zm6.751 1.116h3.186l6.156-14.706h-3.186zm-203.925 28.884c3.06 0 4.95-1.548 4.95-4.032 0-2.322-1.782-3.114-4.554-3.708-1.836-.396-2.43-.648-2.43-1.404 0-.612.558-1.08 1.548-1.08 1.152 0 2.394.45 3.528 1.314l1.566-2.196c-1.314-1.08-2.934-1.692-5.022-1.692-2.808 0-4.716 1.584-4.716 3.96 0 2.484 1.962 3.204 4.608 3.798 1.8.432 2.376.594 2.376 1.332 0 .666-.594 1.134-1.746 1.134-1.512 0-2.862-.576-4.068-1.566l-1.746 2.07c1.512 1.35 3.51 2.07 5.706 2.07zm13.501 0c3.384 0 5.742-2.322 5.742-5.634v-6.948h-3.06v6.804c0 1.746-1.116 2.988-2.682 2.988-1.548 0-2.664-1.242-2.664-2.988v-6.804h-3.078v6.948c0 3.312 2.376 5.634 5.742 5.634zm9.262-.216h3.078v-3.87h2.664c2.736 0 4.698-1.746 4.698-4.248s-1.962-4.248-4.698-4.248h-5.742zm3.078-6.678v-2.88h2.394c1.062 0 1.8.576 1.8 1.44s-.738 1.44-1.8 1.44zm10.408 6.678h3.078v-3.87h2.664c2.736 0 4.698-1.746 4.698-4.248s-1.962-4.248-4.698-4.248h-5.742zm3.078-6.678v-2.88h2.394c1.062 0 1.8.576 1.8 1.44s-.738 1.44-1.8 1.44zm16.402 6.894c3.6 0 6.642-2.934 6.642-6.408s-3.042-6.39-6.642-6.39c-3.618 0-6.66 2.916-6.66 6.39s3.042 6.408 6.66 6.408zm0-2.79c-1.89 0-3.492-1.656-3.492-3.618 0-1.944 1.602-3.6 3.492-3.6s3.474 1.656 3.474 3.6c0 1.962-1.584 3.618-3.474 3.618zm20.289 2.574-2.934-4.158c1.746-.612 2.862-2.07 2.862-3.96 0-2.502-1.962-4.248-4.698-4.248h-5.742v12.366h3.078v-3.87h1.224l2.718 3.87zm-7.434-9.558h2.394c1.062 0 1.8.576 1.8 1.44s-.738 1.44-1.8 1.44h-2.394zm13.499 9.558h3.078v-9.612h3.762v-2.754h-10.584v2.754h3.744zm19.535-9.612v-2.754h-9.738v12.366h9.738v-2.754h-6.66v-2.178h6.048v-2.754h-6.048v-1.926zm13.856 9.612-2.934-4.158c1.746-.612 2.862-2.07 2.862-3.96 0-2.502-1.962-4.248-4.698-4.248h-5.742v12.366h3.078v-3.87h1.224l2.718 3.87zm-7.434-9.558h2.394c1.062 0 1.8.576 1.8 1.44s-.738 1.44-1.8 1.44h-2.394zm15.425 9.774c3.06 0 4.95-1.548 4.95-4.032 0-2.322-1.782-3.114-4.554-3.708-1.836-.396-2.43-.648-2.43-1.404 0-.612.558-1.08 1.548-1.08 1.152 0 2.394.45 3.528 1.314l1.566-2.196c-1.314-1.08-2.934-1.692-5.022-1.692-2.808 0-4.716 1.584-4.716 3.96 0 2.484 1.962 3.204 4.608 3.798 1.8.432 2.376.594 2.376 1.332 0 .666-.594 1.134-1.746 1.134-1.512 0-2.862-.576-4.068-1.566l-1.746 2.07c1.512 1.35 3.51 2.07 5.706 2.07z" fill="#000" fill-opacity=".2"/><path d="m47.178 229.893v-2.754h-9.738v12.366h9.738v-2.754h-6.66v-2.178h6.048v-2.754h-6.048v-1.926zm3.3436 9.612h3.078v-7.308l5.4 7.308h3.06v-12.366h-3.06v7.308l-5.4-7.308h-3.078zm15.3317 0h4.518c4.248 0 7.254-2.574 7.254-6.192s-3.006-6.174-7.254-6.174h-4.518zm3.078-2.79v-6.786h1.908c2.124 0 3.618 1.404 3.618 3.384s-1.494 3.402-3.618 3.402zm23.0553 3.006c3.384 0 5.742-2.322 5.742-5.634v-6.948h-3.06v6.804c0 1.746-1.116 2.988-2.682 2.988-1.548 0-2.664-1.242-2.664-2.988v-6.804h-3.078v6.948c0 3.312 2.376 5.634 5.742 5.634zm14.1044 0c3.06 0 4.95-1.548 4.95-4.032 0-2.322-1.782-3.114-4.554-3.708-1.836-.396-2.43-.648-2.43-1.404 0-.612.558-1.08 1.548-1.08 1.152 0 2.394.45 3.528 1.314l1.566-2.196c-1.314-1.08-2.934-1.692-5.022-1.692-2.808 0-4.716 1.584-4.716 3.96 0 2.484 1.962 3.204 4.608 3.798 1.8.432 2.376.594 2.376 1.332 0 .666-.594 1.134-1.746 1.134-1.512 0-2.862-.576-4.068-1.566l-1.746 2.07c1.512 1.35 3.51 2.07 5.706 2.07zm17.766-9.828v-2.754h-9.738v12.366h9.738v-2.754h-6.66v-2.178h6.048v-2.754h-6.048v-1.926zm13.856 9.612-2.934-4.158c1.746-.612 2.862-2.07 2.862-3.96 0-2.502-1.962-4.248-4.698-4.248h-5.742v12.366h3.078v-3.87h1.224l2.718 3.87zm-7.434-9.558h2.394c1.062 0 1.8.576 1.8 1.44s-.738 1.44-1.8 1.44h-2.394zm-86.845 39.774c1.926 0 3.672-.828 4.896-2.142l-2.232-1.98c-.648.81-1.602 1.332-2.664 1.332-1.89 0-3.492-1.656-3.492-3.618 0-1.944 1.602-3.6 3.492-3.6 1.044 0 2.016.522 2.646 1.332l2.25-1.998c-1.224-1.296-2.97-2.124-4.896-2.124-3.618 0-6.66 2.916-6.66 6.39s3.042 6.408 6.66 6.408zm13.7848 0c3.6 0 6.642-2.934 6.642-6.408s-3.042-6.39-6.642-6.39c-3.618 0-6.66 2.916-6.66 6.39s3.042 6.408 6.66 6.408zm0-2.79c-1.89 0-3.492-1.656-3.492-3.618 0-1.944 1.602-3.6 3.492-3.6s3.474 1.656 3.474 3.6c0 1.962-1.584 3.618-3.474 3.618zm9.7771 2.574h3.078v-7.164l3.564 6.444 3.564-6.444v7.164h3.078v-12.366h-3.078l-3.564 6.444-3.564-6.444h-3.078zm17.0718 0h3.078v-3.87h2.664c2.736 0 4.698-1.746 4.698-4.248s-1.962-4.248-4.698-4.248h-5.742zm3.078-6.678v-2.88h2.394c1.062 0 1.8.576 1.8 1.44s-.738 1.44-1.8 1.44zm19.2103 6.678h3.456l-4.896-12.366h-3.456l-4.8963 12.366h3.4563l.756-1.89h4.824zm-4.662-4.212 1.494-3.798 1.494 3.798zm10.91 4.212h3.078v-7.308l5.4 7.308h3.06v-12.366h-3.06v7.308l-5.4-7.308h-3.078zm15.332 0h3.078v-12.366h-3.078zm16.597-9.612v-2.754h-9.738v12.366h9.738v-2.754h-6.66v-2.178h6.048v-2.754h-6.048v-1.926zm8.185 9.828c3.06 0 4.95-1.548 4.95-4.032 0-2.322-1.782-3.114-4.554-3.708-1.836-.396-2.43-.648-2.43-1.404 0-.612.558-1.08 1.548-1.08 1.152 0 2.394.45 3.528 1.314l1.566-2.196c-1.314-1.08-2.934-1.692-5.022-1.692-2.808 0-4.716 1.584-4.716 3.96 0 2.484 1.962 3.204 4.608 3.798 1.8.432 2.376.594 2.376 1.332 0 .666-.594 1.134-1.746 1.134-1.512 0-2.862-.576-4.068-1.566l-1.746 2.07c1.512 1.35 3.51 2.07 5.706 2.07z" fill="#5c2cff"/><path d="m47.178 229.893v-2.754h-9.738v12.366h9.738v-2.754h-6.66v-2.178h6.048v-2.754h-6.048v-1.926zm3.3436 9.612h3.078v-7.308l5.4 7.308h3.06v-12.366h-3.06v7.308l-5.4-7.308h-3.078zm15.3317 0h4.518c4.248 0 7.254-2.574 7.254-6.192s-3.006-6.174-7.254-6.174h-4.518zm3.078-2.79v-6.786h1.908c2.124 0 3.618 1.404 3.618 3.384s-1.494 3.402-3.618 3.402zm23.0553 3.006c3.384 0 5.742-2.322 5.742-5.634v-6.948h-3.06v6.804c0 1.746-1.116 2.988-2.682 2.988-1.548 0-2.664-1.242-2.664-2.988v-6.804h-3.078v6.948c0 3.312 2.376 5.634 5.742 5.634zm14.1044 0c3.06 0 4.95-1.548 4.95-4.032 0-2.322-1.782-3.114-4.554-3.708-1.836-.396-2.43-.648-2.43-1.404 0-.612.558-1.08 1.548-1.08 1.152 0 2.394.45 3.528 1.314l1.566-2.196c-1.314-1.08-2.934-1.692-5.022-1.692-2.808 0-4.716 1.584-4.716 3.96 0 2.484 1.962 3.204 4.608 3.798 1.8.432 2.376.594 2.376 1.332 0 .666-.594 1.134-1.746 1.134-1.512 0-2.862-.576-4.068-1.566l-1.746 2.07c1.512 1.35 3.51 2.07 5.706 2.07zm17.766-9.828v-2.754h-9.738v12.366h9.738v-2.754h-6.66v-2.178h6.048v-2.754h-6.048v-1.926zm13.856 9.612-2.934-4.158c1.746-.612 2.862-2.07 2.862-3.96 0-2.502-1.962-4.248-4.698-4.248h-5.742v12.366h3.078v-3.87h1.224l2.718 3.87zm-7.434-9.558h2.394c1.062 0 1.8.576 1.8 1.44s-.738 1.44-1.8 1.44h-2.394zm-86.845 39.774c1.926 0 3.672-.828 4.896-2.142l-2.232-1.98c-.648.81-1.602 1.332-2.664 1.332-1.89 0-3.492-1.656-3.492-3.618 0-1.944 1.602-3.6 3.492-3.6 1.044 0 2.016.522 2.646 1.332l2.25-1.998c-1.224-1.296-2.97-2.124-4.896-2.124-3.618 0-6.66 2.916-6.66 6.39s3.042 6.408 6.66 6.408zm13.7848 0c3.6 0 6.642-2.934 6.642-6.408s-3.042-6.39-6.642-6.39c-3.618 0-6.66 2.916-6.66 6.39s3.042 6.408 6.66 6.408zm0-2.79c-1.89 0-3.492-1.656-3.492-3.618 0-1.944 1.602-3.6 3.492-3.6s3.474 1.656 3.474 3.6c0 1.962-1.584 3.618-3.474 3.618zm9.7771 2.574h3.078v-7.164l3.564 6.444 3.564-6.444v7.164h3.078v-12.366h-3.078l-3.564 6.444-3.564-6.444h-3.078zm17.0718 0h3.078v-3.87h2.664c2.736 0 4.698-1.746 4.698-4.248s-1.962-4.248-4.698-4.248h-5.742zm3.078-6.678v-2.88h2.394c1.062 0 1.8.576 1.8 1.44s-.738 1.44-1.8 1.44zm19.2103 6.678h3.456l-4.896-12.366h-3.456l-4.8963 12.366h3.4563l.756-1.89h4.824zm-4.662-4.212 1.494-3.798 1.494 3.798zm10.91 4.212h3.078v-7.308l5.4 7.308h3.06v-12.366h-3.06v7.308l-5.4-7.308h-3.078zm15.332 0h3.078v-12.366h-3.078zm16.597-9.612v-2.754h-9.738v12.366h9.738v-2.754h-6.66v-2.178h6.048v-2.754h-6.048v-1.926zm8.185 9.828c3.06 0 4.95-1.548 4.95-4.032 0-2.322-1.782-3.114-4.554-3.708-1.836-.396-2.43-.648-2.43-1.404 0-.612.558-1.08 1.548-1.08 1.152 0 2.394.45 3.528 1.314l1.566-2.196c-1.314-1.08-2.934-1.692-5.022-1.692-2.808 0-4.716 1.584-4.716 3.96 0 2.484 1.962 3.204 4.608 3.798 1.8.432 2.376.594 2.376 1.332 0 .666-.594 1.134-1.746 1.134-1.512 0-2.862-.576-4.068-1.566l-1.746 2.07c1.512 1.35 3.51 2.07 5.706 2.07z" fill="#000" fill-opacity=".2"/><g stroke="#000" stroke-dasharray="2 2"><path d="m198.5 207.505v117"/><path d="m398.5 207.505v117"/><path d="m447.5 207.505v117"/></g><ellipse fill="#64f9bf" rx="7.07907" ry="7.07143" transform="matrix(-1 0 0 1 198.079 207.576)"/><ellipse fill="#64f9bf" rx="7.07907" ry="7.07143" transform="matrix(-1 0 0 1 398.079 207.576)"/><ellipse fill="#8cedc8" rx="7.07907" ry="7.07143" transform="matrix(-1 0 0 1 447.079 207.576)"/><path d="m413 145.505v-145.000123l-273-.000004" stroke="#000" stroke-dasharray="2 2"/><ellipse cx="413.079" cy="145.433" fill="#64f9bf" rx="7.07907" ry="7.07143" transform="matrix(-1 0 0 -1 826.158 290.866)"/></svg>