<svg width="473" height="201" fill="none" xmlns="http://www.w3.org/2000/svg"><g clip-path="url(#clip0_2190_1070)" fill="#B0FBDE"><path d="M128.647 95.406v.785l.716.791v.785l.709.784v.792l.716.784h.716v1.576h-.716l.716.785h.716l.716.784h.709v1.576l.716.784h.716l.717.785.709.791v-.791l-.709-.785v-.784l-.717-.792-.716-.784v-.784l-.716-.785-.709-.791v-.785l-.716-.784-.716-.792v-1.569h.716l.716.785v.784l.709.792v.784l.716.785.716.791h.717l.709.785.716.784v.784l2.148 2.361h.709l.716.791v.785l.716.784v.792l-.716.784.716.785.716.791h.709l.716.785.717.784h1.432l.709.792h1.432l.716.784h.716l.709.785h1.432l.716-.785h.71l.716.785h.716l1.432 1.576v-1.576l.709-.785h.716l-.716-.784v-.792h2.148l.716-.784h.709l.716-.785v-1.576l.717-.784-.717-.792h-1.425l-.716.792h-.716l-.716.784v.785l-.716.791-.709.785h-2.864l-.71-.785h-.716l-.716-.791-.716-.785v-.784l-.709-.792v-3.929l.709-.792v-.784h-2.141l-.716-.784v-.785l-.716-.791v-.785l-.709-.784h-1.432l-.717.784h-.716l-.709-.784v-.792l-1.432-1.569h-6.431l-.716-.791h-1.425l-.716-.785h-2.857z"/><path d="M155.802 117.434l.709.785h1.432l.716-.785v-.784l.71-.792h-.71v-2.36h-2.148v.791l.716.785h-.716l-.709.784v1.576z"/><path d="M160.084 112.713v1.576l-.716.785v.784h-.709v-2.36l.709-.785h.716zm-2.141 5.506h.716l.709.791h.717v-.791h-.717l-.709-.785-.716.785z"/><path d="M159.368 115.859h2.149l.716-.785h1.425l.716.785.716.791h-.716l-.716.785h-.716l-.709.784h-.716v.792h-.716l-.717-.792h-.716l-.709-.784v-.785l.709-.791z"/><path d="M160.8 119.795l1.433 1.576h1.425l.716.784h.716l-.716-.784v-.792l.716-.784v-3.145h-.716l-.716.784h-.716l-.709.785h-.717v.791h-.716v.785zm15.003-8.657h2.148v1.576h-3.573l.716-.785h1.425l-.716-.791zm5.722 1.576l-.716-.785-.716-.791h-2.141v2.36l.716-.784h2.857zm-17.867-3.937v-.784l.716-.785h4.29l.709.785h.716l.716.784h1.432l.709.792.716.784h.716v.785h-3.573l.716-.785-.716-.784h-.716l-.716-.792h-.709l-.716-.784H165.09l-.716.784h-.716zm6.431 3.936l.716.785h2.141l-.709-.785h-2.148zm12.145 0v.785h2.148l.716-.785h-2.864z"/><path d="M162.233 121.371v.784l.709.785h.716l.716.791v.785h1.432v-1.576l-.716-.785h-.716l-.716-.784h-1.425zm9.288 3.145l-.716-.785h-.716l-.717-.791-.709.791H166.515l-.709-.791v1.576h.709l.716.784.716.792.716-.792-.716-.784h.716l.709-.785.717.785.716.784v.792l.716-.792v-.784z"/><path d="M177.952 119.795v.784l-.716.792-.716.784-.717.785v.791h.717l.716.785-.716.784.716.792h2.141l.716.784h2.141v.785l-.709.784.709.792v1.569l-.709.791h.709l.716.785H179.377v.784h.716v.791h-.716v.785l.716.784V137.887l-.716.791v.785l-.709-.785.709-.791-.709-.785h-1.432l-.716.785-1.426-1.569-1.432-1.576-.716-.785h-1.425l-.716-.791h-.716v-1.569h.716l.716-.791v-3.93l-.716-.784.716-.792v-.784h.716l.709-.785.716-.791v-.785l.716-.784h1.425l1.433-1.576h.716z"/><path d="M169.372 133.173l-.709.784-.716.785v2.36l.716.785v.791l-.716.785.716.784h1.425v-.784l.716-.785v-.791h1.433l1.425-1.569v-1.576l-.716-.785h-1.425l-.717-.784h-1.432zm7.863-11.802H178.668l.709-.792h.716l.716.792h.716v.784h2.141l.716.785h.716v-.785h2.142l.716.785h.716l.709.791v.784h.716v.785l-.716.791v.785l-.709.784.709.785v.791h-1.425l-.716.785h-1.426l-.716-.785v.785l.716.784v.792h.709l-.709.784-.716.792h-.716l-.716.784-.716-.784v-.792l-.709-.784h-.716l.716-.792v-1.569l-.716-.791.716-.785v-.784h-2.148l-.716-.785h-2.142l-.716-.791.716-.785-.716-.784h-.716v-.791l1.432-1.569z"/><path d="M190.813 124.516l.716.784.716.792v.784h.709l.716.785v.784h-.716l-.709.791v.785l.709.791.716.785.716.784h-1.432l-.709.792h-.716l-.716-.792-.716-.784v-.785l.716-.791v-.785h-.716v-.791h-.716l-.716-.784.716-.785v-.784l.716-.792v-.784h.716z"/><path d="M194.387 127.661h2.141V131.597h-1.425l-.716.784-2.142-2.36v-.784l.709-.792h.716v-.784h.717zm2.857 0l.716.784h.716l.709.792v.784l-.709.785-.716.791h-1.432v-3.936h.716zm-28.581 11.017h-.716l-.716.785v.784l.716.791v.785l1.426 1.576v.784l.716.785v.791l.716.785v.784l.716.792v.784l1.425 1.576v1.569l.716.792h.716l.716.784h.709l.716.785.716.784h.716l.717.791h.709l.716-.791V152.049l.716-.784v-2.361l-.716-.784v-.792h-1.425v-1.569l-.717.785h-.716l-.716-.785v-.791l-1.425-1.569.709-.792v-.784l1.432-1.576h.716l.717-.784h.709l-.709-.785.709-.791-.709-.785h-1.433l-.716.785-2.857-3.145v1.576l-1.425 1.569h-1.432v.791l-.716.785v.784h-1.426l-.716-.784.716-.785z"/><path d="M180.093 155.985v-3.936l.716-.784v-2.361l-.716-.784v-.792h1.432l.709-.784h.716l.716-.785h.716v2.361l1.432 1.569h1.426l.716.791h1.425l.716.785v2.36h2.148v1.569l.709.791v.785l-.709.784v.792l-.716-.792h-2.857l-.716.792v1.569l-.716.791h-1.426l-.716.785-.716-.785h-1.432l-.716.785h-.709v-1.576l-.716-.785v-1.576l-.716-.784v-.785z"/><path d="M179.377 155.986h-.709l.709.784v4.721l-.709.785V167.788l-.716.784v1.576l-.716.785.716.784V174.078l-.716.791v1.569l-.716.792v.784l-.717.785h-.709l.709.784v2.36l-.709.792V186.664l-.716.792v1.569l-.716.791.716.785v.784h-.716l-.716.792v.784l.716.785v2.36l2.141 2.36.717.792h.716l.716.784h1.425l.716.785h2.141l.716-.785h-2.141v-3.145l-.716-.791h-2.857v-.785l-.716-.784-.717-.791v-.785l.717-.784v-.792l.716-.784v-.785l.716-.791v-3.145h-.716v-.785l.716-.791-.716-.785v-.784l.716-.792v-.784l.716-.785v-.791l-.716-.784.716-.785.709-.784-.709-.792.709-.784.716-.785-.716-.791v-1.569l-.709-.792.709-.784v-1.576l.716-.785v-.784l.716-.792.716-.784-.716-.785v-.791l.716-.784.709-.785.716-.791-.716-.785h-.709v-1.576l-.716-.784v-1.576l-.716-.785v-1.576l-.716.792z"/><path d="M187.24 160.707l2.141 2.36h.716l.716.784h.716l.716.785.709.791-.709.785-.716.784H195.102l.71-.784v-.785l.716-.791.716.791v.785l-1.432 1.576h-.71l-2.148 2.36v.785l-.709.784V175.654l.709.784.716.791v1.569l-.716.792-.709.784h-1.432l-.716.785h-2.141v1.576l-.716.784h-1.433l-.709-.784-.716.784.716.785.709.791v.785h-.709l-.716.791v1.569h-1.432l-.716.792v.784l.716.785h.716l.716.784-.716.791h-.716l-.716.785-1.425 1.576v1.569l.716.791v.785l.709.784.716.792h1.432l.716.784h-4.289v-3.145l-.716-.791h-2.858v-.785l-1.432-1.576v-.784l.716-.785v-.791l.716-.784v-.785l.716-.784v-3.152h-.716v-.785l.716-.791-.716-.785v-.784l.716-.785v-.791l.717-.785v-.784l-.717-.792 1.426-1.569-.709-.791 1.425-1.569-.716-.791v-1.569l-.709-.792.709-.784v-1.576l.716-.785v-.784l1.432-1.576-.716-.785v-.791l2.141-2.36-.716-.785.716-.784h1.432l.716.784.709-.784h1.433z"/><path d="M187.24 160.707l.716-.792v-1.569l.716-.791h2.857l.716.791v2.361h2.141l.716.784v1.576h1.426v.784l-.716.785v1.576l-.71.784h-3.573l1.425-1.569-1.425-1.576h-.716l-.716-.784h-.716l-2.141-2.36zm5.714 14.947l-.709-.785v-3.152l1.425-1.569 1.433 1.569h.709l1.432 1.576v1.576l-.716.785-.716.784h-1.425l-.717-.784h-.716zM182.22 80.612v-1.57l-.709-.79h-1.432l-.716.79v.785l-.716.785-.716.791H173.648l-1.432 1.569h-2.857v.791h-.716l-.71.785h-1.432l-.716.784-.716-.784 1.432-1.576v-1.569l-1.432-1.576h-.709l-.716-.784h-.716l-.716-.792h-.709l-.716-.784h-5.006l-.716-.785h-2.141l-.716-.791-.71.791H122.195l-1.425-1.576h-1.432l-.716-.784h-2.142l.717.784h.716l1.425 1.576h.716v.785l.716.784v4.721l-.716.791.716.785v2.36l.716.785v.784l1.425 1.576v.785l.716.791.716.785.716.784v.792h1.426l.716.784h.716l.709.785h2.864l.709.791h1.432l.717.785h6.43l1.425 1.575v.785l.717.784h.716l.716-.784h1.425l.716.784v.792l.716.784v.785l.716.791h2.141v-1.576l.716-.784h.716l1.426-1.576h2.857l.716.784h2.857v-.784l-.716-.785h3.574l.716.785h.716l.716-.785.709.785.716.784v1.576l.716.785v.791l.716.785V105l-.716.792h.716l.716-.792.71-.784v-2.361l-.71-.784v-.792l-.716-.784V97.135l.716-.785h.71l.716-.791.716-.785.716-.784h.709l.716-.792h.716l.716-.784v-.785l-.716-.791.716-.785v-.784h.716v-.792l.709-.784v-1.57l.716.785h.716l.716-.784v-.792h2.142v-.784l-.716-.785.716-.791h.716l.716-.784h.716l.709-.785h.716l-.716-.791zM85.057 49.774l-.716.791h-2.858l-.716.785h-1.425l-.716.784h-.716l-.71.792h-2.147l.716.784h1.425l.716.785h.716v.784H75.77l-.716.792h-1.425v.784h.709l.716.785h5.005l.71.791v.785h-3.574l-1.425 1.575v.785l.716.785.709.791H79.342l.716.784v.785h4.283v.791l-.716.785-.71.784H82.2l-.716.792h-1.425l-.716.784h-.716l-.716.785h-.716l-.71.791h-1.431l-.716.785H72.91l-.716.784h2.142l.716-.784h1.432l.709-.785h.716l.716-.791h1.432l.71-.785h.715l.716.785h.716v-.785h.71l.716-.784h.716l.716-.792.716-.784h.71l.715-.785h.716l.716-.791.716-.785h2.858l.716-.784h8.572l.716.784h2.141l.716.785h.716l.709.791 2.149 2.36.716.785.709.785h3.573v-1.57l-3.573-3.936h-1.425l-.716-.784-.717.784h-1.425l-.716-.784h-2.148l-.709-.791V51.35h-5.715l-.716-.785h-6.43l-.717-.791h-4.29zM215.11 34.827l-.716.784h-10.004l-.716.792h-10.721l-.709.784h-3.573v.785h-3.573l-.717.791h-2.148l.716.785h2.149l-.717.784h-3.573l-.716.791h-3.573v.785h.716l1.432 1.576h1.425l.716.784h4.29l.709-.784h1.432l.716.784h3.573l.716.785h.709l.717.791.716.785v2.36l.716.785h1.425l-.716.791v.785l.716.784h3.573l-.716.791h-1.425l-.716.785v2.36l1.432 1.57 2.141 2.36 2.142 2.36h2.857l.716.792h2.141v-.792l.716-.784v-.785l.716-.791.717-.785.716-.784v-.792l.716-.784h.709l.716-.785h3.573l.716-.791h.709l.717-.785.716-.784h2.141l.716-.785h4.289l.717-.79h1.425l.716-.785h.716l.716-.785v-3.151h1.425l.716-.785.716-.785v-1.576l.709-.784v-.792h-.709l-.716-.784v-1.576l.716-.785h1.425l.717-.784h1.432l.709-.791h2.857l-.709-.785h-7.147l-.716.785h-.716l-.709-.785.709-.784h-2.857l-.716-.792h-4.283l-.716-.784h-8.572zm13.571 22.028l1.432-1.576h.716l.716.792.709.784.716-.784h3.573l.716-.792h.717l.709.792h.716l.716.784v.785h-.716l-.716.791h-2.142l-.716.785h-2.141l-.716-.785h-2.141v-.791l-.716-.785h-1.432zm19.299 15.739l.709-.792v-.784l-.709-.785h-1.432v-.791l.716-.785h-.716l-.716.785-.71.791h-.716v.785l.716.784-.716.792h-.716l.716.784h1.426l.716-.784h1.432zm12.145-11.802v1.569l.716.791v1.569l.716.791h2.141l.716-.791h.71l.716-.785h.716l.716.785.716-.785v-.784h.709v-1.576l-.709-.785v-1.575l.709-.785h1.432v-.791l.716-.785v-.784h.709l.716-.792.716-.784v-.785h1.433l.709-.784h1.432l.716-.792H278.702l.716.792h2.858l.716-.792.716-.784h2.141l.716.784h2.141l-.716-.784v-.785h-1.425l-.716-.791h-4.29l-.709.791h-2.148l-.716.785h-1.425l-.716-.785-.716.785-.709.784h-2.149l-.716.792h-1.425l-.716.784h2.141l-.709.785-.716.784h-.716l-.716.792-.709.784-.716.785h-.716l-.716.791-.716.785-.71-.785-.716.785-.716.784h-1.425l-.716.791h-.716z"/><path d="M269.414 68.657l-.716-.785v-.791l-.709-.785-.716-.784v-.792l.716-.784v-.785h.709v-1.576l-.709-.784v-1.576l.709-.784h1.432v-.792l.716-.784v-.785h.71l1.432-1.576v-.784h1.432l.709-.792h1.432l.716-.784.709.784h.716l.716.792h.717l.716.784v1.576h-1.433l-.716.785-.716.784v.792l-.709.784H275.129l-.709.784-.716.792v1.569h.716l.709.791h.716l-1.425 1.57h-.716l-.716.79v1.57l-.716.791h-1.426l-.716.785h-.716z"/><path d="M277.986 60l.716-.785h.716l.716-.784h.716l.71-.792.716-.784-.716-.785h-.71v-1.575l-.716-.785h-.716l-.716-.785h-.716l-.709-.79h1.425l.716.79h2.858l1.432-1.575h2.141l.716.784-.716.791.716.785h.716v.785l-.716.784.716.791v1.569l.709.792v.784h.716l.716.785-.716.791h-.716l-.709.785h-.716l-.716.784h-2.141l-.716.792h-3.574l-.716-.792-.716-.784V60zm-12.145 5.512l.716.785v1.576l.716.784.716-.784h.709v.784l-.709.785h-3.573v-.785l-.717-.784v-.792l.717-.784h.709l.716-.785zm-5.715 7.082v-.792l.716-.784h2.142v.784l-1.426 1.576v.784l-.716-.784h-2.148l.716-.784h.716z"/><path d="M257.985 74.162l.709-.784h2.148l1.425 1.576h-.709v.784h-.716l-.716-.784h-.716l-.716-.792h-.709zm13.571-3.93h.716l.716-.79h2.141l.716.79h4.289l.717.785v.785l-.717.791.717.785v1.576h-.717l-.716.784v.785l-.716-.785h-2.857l-.716-.784h-2.141l-.716-.792h-1.426l.71-.784-.71-.785v-1.576l-.716-.784h1.426z"/><path d="M270.846 76.522h-.716l-.716-.784h-.716l-.709-.784.709-.792h3.574l.716.791h2.141l.716.785h-.716l-.709.784h-3.574zm-2.148 2.361h-2.857l-.716-.784h3.573l1.432-1.576h3.574v.791l-.716.785-.716.784h-.717l-.709.785-.716-.785h-1.432z"/><path d="M274.42 78.099l-.716-.785v-.791h.716l.709-.785h3.573l.717.785-.717.791-.716-.791h-.709l-.716.791h-1.432l-.709.785z"/><path d="M272.988 78.883h-.717l1.433-1.569.716.785.709-.785h1.432l.716-.791h.709l.716.791h.716l-.716.785-.716.784-.709.785h-1.432l-.716.791h-.709l-.716-.791-.716-.785z"/><path d="M270.13 78.883l-.716.785.716.791h1.426l.716-.791.716-.785h-1.432l-.71.785-.716-.785z"/><path d="M270.13 81.244v-.785h1.426l1.432-1.576 1.432 1.576h.709l.716-.791v1.576H274.42l-.716-.785h-.716l-.716.785 2.857 3.145h-.709l-1.432-1.57h-.716l-.716-.79-.71-.785h-.716zm-12.861-7.082H258.694l.716.791h.716l.716.785h2.142l.716.784-.716.792.716.785h-.716l-.716.784v.784l.716.792-.716.784.716.792h.716l-.716.784-.716.785h-.717l-.709-.785h-1.432l-.716.785-.716.784h-.709l-.716-.784h-2.857l-.717-.785.717-.784v-2.368l-.717-.784-.716-.784h-.716l-.709-.785h-.716v-.791h3.574l-.717-.785h2.142l.716-.784h.716v-.792h.716z"/><path d="M262.267 74.947h-.716v.784h.716v-.784zm2.858 4.72h-1.426l-.716.792-.716-.791v-.785l.716-.784h2.142l.716.784v.785h-.716z"/><path d="M265.841 82.035h-2.858l-.716-.791 1.432-1.576h2.142v-.785h4.289l-.716.785.716.791h-1.432v1.576l.716.785h.716v.784l.716.785h1.425l.716.791.717.785h.716l.709.784-.709.791-.716-.79-.717.79.717.785-1.433 1.576-.716-.791.716-.785v-.785l-.716-.79-.709-.785h-.716l-.716-.785h-.716l-.709-.791h-.716l-.716-.785-.716-.784v-.785z"/><path d="M270.846 89.11h-2.148v.79h.716l.716.785H271.555V89.11h-.709zm-6.43-3.145l.709-.785.716.785v1.576l-.716.784h-.709V86.75l-.717-.784h.717zm0-1.577v-.784h.709v1.576l-.709-.792zm-18.584 6.297V89.11l-.716-.784v-.785l.716-.79v-2.361h2.142l.716.791-.716.785v.784l-.71.791v2.361l-.716.784h-.716zm29.297-6.297v-.784l.716-.785.716-.784-.716-.791h-1.425l-.716-.785h-.716l-.717.784 2.858 3.145z"/><path d="M275.845 84.388l.716-.784-.716-.785-.716.785v.784h.716z"/><path d="M277.277 79.668l.709.791v.785h1.432v1.576l.716.784h-.716v.785h-2.141l-.716-.785-.716-.784.716-.785-.716-.791v-1.576h1.432z"/><path d="M275.845 84.388v2.36l.716.792.716-.791.709-.785h-.709v-1.576l-.716-.784-.716.784z"/><path d="M278.702 85.965h-1.425v-1.576h2.141l.716.791-.716.785h-.716zm.716-8.651h2.142l.716.785.716-.785H284.417l.716.785v.784l.716.784v.792h1.432v.784h-.716l-.716.785v.791l-.716-.791h-1.425l-.716.791h-2.858l-.716-.791v-.785h-1.432v-.784l-.709-.792.709-.784 1.432-1.569z"/><path d="M284.417 76.523l-.709.791h.709l.716.785v.784l.716.785v.791l.716-.791h.716v-.785l-.716-.784v-.785h-.716l-.716-.791h-.716zm-4.283 8.657h3.574l.709-.792h.716v-.784l.716-.785-.716-.791h-1.425l-.716.791h-2.858l-.716-.791v.791l.716.785h-.716v.784l.716.792zm-3.573 2.36l.716.785v.785l.709.791h.716v.785l.716.784.716-.784V89.9h.716l.71-.791-.71-.785-.716-.784-.716-.792h.716l.716.792.71-.792-.71-.784h2.858v-.785h-3.574l-.716.785h-1.432l-1.425 1.576zm3.574 4.721l.716.785h2.857l-.716-.785h-2.857zm2.857-2.36l-.716.784h.716l.716-.784h-.716zm-16.435-50.353v1.569h2.141l.716.791.716.785h1.425l.716.791h1.432v-.791h.717l.709-.785.716-.791h1.432l.709.791v.785h2.864l.709-.785h-1.425l-.716-.791h-.716l-.716-.785h5.006l1.425-1.569h-4.999l-.716.785h-.716l-.709-.785h-2.148l-.709.785h-2.149v.784l-.716-.784h-4.998zm13.577 24.388l-.716.785h-.716v.791h.716l.716-.791.717.791h2.141l.716.784h.709l.716-.784-.716-.791.716-.785h-4.999z"/><path d="M278.702 66.297l-.716.784v.792h.716l.716-.792h.716l.717.792h2.141l.716.784.709-.784h1.432l-.716-.792v-.784H283.708l-.716-.785h-1.432v.785l-.709.784-.717-.784h-1.432z"/><path d="M277.986 68.657h.716l.716.785v.784h2.858l1.432-1.569-.716-.784h-2.141l-.717-.792h-.716l-.716.791h-.716v.785z"/><path d="M275.845 70.233l.716-.791h1.425v-.785h.716l.716.785v.791h-3.573zm5.006 3.145l-.716-.785.716-.791v-.785l-.716-.784h2.141l2.141-2.36h3.573l.717.784v.785l1.432 1.576-.716.784v.791h-.716l-.717.785h-3.573l-.709-.785h-2.148l-.709.785z"/><path d="M282.276 78.099l-.716-.785h-2.858l.716-.791v-.785l.716-.784h.717v-1.576l.709-.785h2.148l.709.785h3.573l.716-.785h2.858l.716.785.716.784.716.792h3.566l.717.784h.716l-.716.785v.791l-.717.785h-.709l-.716.784h-2.141l-.716.785v.791h2.141l-.716.784h-1.425l-.716.785h-.716l-.716-.785v-.784h-.709l1.425-.791h-2.141v-.785h-.717l-.716.785-.709.791h-1.432l.716-.791h.716v-.785l-.716-.784v-.785h-.716l-.716-.791h-.716l-.709.791h-.716l-.716.785zm15.719 4.72l.716.785h.716l.716.784v.792h1.425l.716.784h1.432l.709-.784.716.784v-1.576h-.716l-.709-.784h-2.148l-.716-.785h-2.857z"/><path d="M305.141 88.325h-.709L303 86.749h-.716v-.785h1.432l.716-.784.709.784v-1.576l.716.792h1.433l1.425-1.576 1.432 2.36h.716v1.576l-.716.785-.716.784h-1.432l-.709-.784v-.785h-.716l-.717.785h-.716z"/><path d="M306.573 78.099h.709l.717.784v.785h.716v.791l-.716.785v1.576l.716.784 1.432 2.36.709-.784h.716l.716-.791h2.141l.716.791h.716v-3.936l.716-.785h2.142l.716.785h.716l1.425 1.576h4.29l.716.784v.785l.709.791.716.785h1.432l.716-.785h.709l.716-.791.716-.785h1.425l.717.785v-.785l.716-.784.716.784h4.998l.716.785v-.785h.716v-.784l-.716-.792v-.784l.716-.785h1.426l.716-.791v-.785l.716-.784.716.784h1.425l.716-.784v-.785l.716-.791.716-.784H347.299l-.709-.785-.716-.791h-2.857l-.717-.785-.716.785-1.425-1.57v-.79l-.716-.785h-.716l-.716-.785h-2.141l-.716.785h-.716v-.785h-2.142l-.716-.791v-.785h-2.141l-.716.785h-2.857l-.717.791h-4.289V72.593h-.709l.709.785h.716v.785h-2.857l-.716-.785h-1.426l-.716.785h-1.432l-.716-.785h-1.425l-.716-.784h-1.425l-.716.784-.716.785h-.716v.791l-.717.785-.709-.785h-.716v1.569l-.716.791h.716l.716.785z"/><path d="M316.577 85.18h-.716v-3.937l.716-.784h2.142l.716.784h.716l1.425 1.576h4.29l.716.785v.784l1.425 1.576h1.432l.716-.784H331.58l.716.784v-.784l.716.784h1.426l-.71.785h-2.864l.716-.785h-1.425l-.716.785-.716.791h-.716l.716.785v.784l-.716.792h-.709l-.716-.792h-.716l-.717-.784h-.716l-.709-.785h-.716l-.716-.791v-.785l-.716-.784h-1.425v-.792h-.716l-.716-.784h-.716l-.709.784-.717.792z"/><path d="M310.863 89.11l-.716-.785.716-.785v-1.576h-.716l.716-.784h.709l.716-.792h2.142l.716.792h1.432l1.425-1.576h.716l.716.784h.716v.792h1.425l.717.784v.785l.716.791h.716l.709.785h.716l.716.784h.716l.716.792h-1.432l-.716.784-.716.785h-.709l-.716.791-.716.785-.717-.785-.709-.791v-.785h-.716l-.716-.784h-1.432l-.709-.792h-2.148l-.716.792H311.572l-.709-.792zm19.292-1.57l.709-.791h2.865l.709-.785h-1.425l-.716-.784v.784l-.717-.784h-.716l1.433-1.576h1.432l.709.784v-.784l.716-.785.716.785h4.999l.716.784-.716.792h-.71l-.716.784h-1.432v.785h-2.857v.791h-4.999zm20.009-11.017v-.785h1.425l.716-.784h.716l.709-.792h2.864l.709.792h2.149l.709.784.716-.784h.716l-.716-.792v-.784l.716-.785h1.432l.709.785h1.432l1.425 1.576h1.433l.716-.792h1.425l.716.792h.716l.716.784h4.999l.716-.784h2.857l.716.784h-.716l-.716.785v.791h1.432l.716.785v-.785h.716l1.426 1.57h-2.142l-.716.784h-.716l-.716.791h-1.425l-.716.784h-2.141l-.717.792.717.784h-.717l-.716.785h-1.432l-.709.784h-2.857l-.716.792h-.716l-.716-.792h-1.426l-.716-.784h-5.714l-.716-.785-.717-.784h-.716l-.709-.791h-2.148l-.716-.785h-.709v-.791l.709-.785-.709-.784-.716-.785h-1.432l-.709-.791z"/><path d="M334.438 87.54l.716.785.716.784v1.576h.716l.709.785v.791h2.148v.785l.716.784v.792l.709.784v.785h-.709v.791l.709.785h.717l.716.784h1.425l.716.792h.716l.716.784.716.785h2.141l.716.791h.71l.716-.791v.791l.716-.791h2.141l.716.791.716-.791h.716l.709-.785h1.432l.716-.784.717.784v.785H360.877l.716.791v2.354l-.716.791v.784h.716l.716.792v1.569l.716.791h1.425v.785h.716v-1.576l.716-.785h2.142l.716-.784.716.784h.709v.785l.716.791h2.857v1.569l-.709.785-.716.791v.785h1.425l.716-.785.716-.791-.716-.785v-.784l.716-.785h1.426l.716-.791h1.432l.716-.785h1.425l.716-.784.716-.792h.716l1.425-1.575v-.785l1.433-1.569v-.791l.709-.785v-1.576h-.709l.709-.784V96.19l-1.425-1.57v-.79h-.717l-.716-.785.716-.785 1.433-1.576H387.316v-.784h-2.141l-.717.784h-.716V89.11H382.317v-.785h.716l.709-.785.716-.79h.717l.716-.785h.709l.716.784-.716.791-.709.785h.709l.716-.785h1.432l.716-.79.709-.785h.716l.716-.785h1.426l.716-.791h.716l.716-.785h.716l.709-.784v-1.576l.716-.785h.716l.716.785.716-.785v-.791l.709-.785V78.1l.716-.785h-2.141l-.716.785h-1.432l-.709-.785v-.791l-.716-.785h-2.148l-.71-.784v-1.576l-.716-.784-.716-.792-.716-.784h-4.282l-.716.784.716.791-.716.785-1.433 1.576h-.709l-.716.784h-1.432l-.716.785v.791h1.432l.716.785v-.785h.716l1.425 1.57h-2.141l-.716.784h-.716l-.716.791h-1.425l-.716.785h-2.142l-.716.791.716.785h-.716l-.716.784h-1.425l-.716.785h-2.857l-.716.791h-.716l-.716-.791h-1.426l-.716-.785h-5.714l-.717-.784-.716-.785h-.716l-.716-.791h-2.141l-.716-.785h-.709v-.791l.709-.785-.709-.784-.716-.785h-1.432l-.716-.791v-.785h-.71l-.716.785-.716.791v.785l-.716.784h-1.425l-.716-.784-.716.784v.785l-.716.791h-1.425l-.716.785v.791l.716.785v.784h-.716v.785l-.717.791h-.709l-.716.785h-1.432v.784h-2.857v.791h-.716zm-30.722 3.145v-.784l-.716-.792v-2.36l1.425 1.576h1.432l.716-.785h.709v.785l.716.784h1.433l.716-.784 1.425 1.576h2.857l.716-.792h2.149l.709.792h1.432l.716.784h.709v.785l.716.791-.716.785-.709.784v.792l.709.784v1.576h.716v.785l-.716.784v.792l.716.784.716.785h.716V102.487l-.716.785-.716.784v.792h-1.425l-.716-.792h-2.141l-.717-.784v-.785h-1.432l-.716.785-.709-.785h-1.432l-.716-.784h-.716l-.709-.791v-.785l-.716-.784-.716-.792H307.282v-.784h-.709V96.19l-.716-.785h-.716l-.716-.784v-1.576l.716-.785-.716-.791-.709-.785zm-14.294 2.36l.717-.784h2.141l-.716.785h-2.142zm3.574 2.361v-.784l.716-.792v-.784h.709v.784l-.709.792-.716.784zm.716.784h-.716v.785h.716v-.785z"/><path d="M293.712 94.622v1.569h-.716v.791h.716l-.716.784v1.576l-.716-.791v-2.36l.716-.785.716-.784zm7.14-3.937l-.709.785-.716.791v.785l-.716.784-.716.792h-.716l-.71.784h-.716l-.716.785h-.716l-.709-.785v-.784l.709-.792v-.784h-.709v-.785l1.425-1.576h3.574l.716-.784.716.784h.709z"/><path d="M292.996 99.342l.716.785.709-.785h.716l.716-.791v-.785l-.716-.784h.716l.716-.791h.717v-1.569l-.717.784h-.716l-.716.785h-.716l-.709-.785v1.576l-.716.784v1.576z"/><path d="M297.995 96.19h-.716v-1.568h.716l1.432-1.576v-.785l2.141-2.36h.716l.716.784.716-.784v.784l1.425 1.576-.716.785v1.576l.716.784h.717l.716.785v1.576h.709v.784h-.709l-.716.792-.717.784h-1.425l-1.432-1.576h-.716l-1.425-1.569h-.716l-.716-.791h-.716z"/><path d="M307.282 100.912h-.709l-.716-.785h-.716l1.432-1.576h.709V100.912zm2.865 4.72V103.272l.716.784v.792l-.716.784z"/><path d="M292.996 100.911v-1.569l.716.785.709-.785h.716l.716-.791v-.785l-.716-.784h.716l.716-.792h2.142l.716.792h.716l1.425 1.569h.716l1.432 1.576h2.142l.716.784h.716l2.141 2.361v.784l.716.792v.784l.716-.784v.784l.709.792v.784H313.72l.71.785h.716v.791l-.716.784v.785l-.71.784h-.716l-.716.792h-2.857l-.716.784h-1.425l-.716.785v.791h-2.142l-.716-.791h-1.432l-.716.791v.785l-.709-.785-.716-.791v-.785l-2.857-3.145v-2.36l-.717-.784-.716-.792-.716-.784v-.792l-1.425-1.569v-.784l-.716-.792z"/><path d="M316.578 105.632l.716.785h.709l1.432 1.576v.784l-1.432 1.576h-.709v1.576h-.716l-.716.784-.716.785-.717.791h-1.425l-.716.785h-.716v.784l-.709.792h-2.148l-1.425 1.569h-1.433l-.716.791h-1.425l-.716.785h-.716l-.716-.785v-4.721l.716-.791h1.432l.716.791h2.142v-.791l.716-.785h1.425l.716-.784h2.857l.716-.792h.716l.709-.784v-.785l.717-.791v-.784h-.717v-.785l.717-.791v-.785l.716-.784.716.784zm12.145-14.947l-.716-.784.716-.792v-.784l-.716-.785h.716l1.432-1.576h1.425l-1.425 1.576h4.283l1.432 1.57v.79h-1.432l-.709.785H332.296V89.11h-.716l-.716.792h-.709l-.716.784h-.716z"/><path d="M320.86 99.343h5.006l.716-.792v-.784l.709-.785H329.439l.716-.791v-.785l.709-.784.716-.792.716-.784v-.785l-.716-.791h2.149l.709-.785h1.432v-.784h-1.432l-.709.784h-1.433V89.11h-.716l-.716.792h-.709l-.716.784h-.716l-.716-.784h-2.141l-1.433 1.569h-.709l-1.432 1.576-.716-.785-1.425 1.57v.79l.709.785v1.576h.716v.785l-.716.784v.791z"/><path d="M322.292 104.848h-.716v-.792l1.433-1.569v-1.576h-.717l-1.432-1.569h5.006l.716-.791v-.785l.716-.784h2.141l.716-.792v-.784l2.142-2.36v-.785l-.716-.791h2.148l.709-.785h2.148l.709.784v.792h2.148l-.716.785h-.716l-.716.784h-.709l-.716-.784h-.716v2.36l.716.784v1.576l-.716.785-.716.791-.709.785-.716.784-.716.792h-1.432l-.71.784.71.785.716.784v1.576h-2.142l-.716.785-.716-.785-1.425-1.576h-1.432l-.716.792h-2.142zm19.292-5.505l.716-.792h1.426l.716.792h.716l1.432 1.569h2.141l.716.791h.716v.785l-.716.784h-1.432l-.716-.784h-.709l-.716-.785h-2.148l-.71-.791h-.716l-.716-.785v-.784zm9.289 2.36l.716-.791h2.141l.716.791v.785h-3.573v-.785zm2.148 6.29l-.716.784h-.716v-.784l-.716-.785v-1.576h-.709l.709-.784v-.792h-.709l.709-.784h1.432v.784l.716.792h1.425v.784h-.716v1.576l.716-.784.716.784v1.569l-.716.792v-1.576h-1.425z"/><path d="M356.587 111.138h-.709l-.716-.785-.716-.784.716-.792v-.784h.716v-1.576l1.425-1.569v-.791l.716-.785v-.784h.716l.716-.785h.71v-.791h.716l.716.791v2.354l-.716.791v.784h.716l.716.785v1.576l.709.784h1.432l-1.432 1.576h-.709l-.716.785h-.716v.791l-.716.785.716.784.716.792V117.435l.716.784v3.152l-.716.784v-3.145l-.716-.791v-2.36l-.716-.785v-.784l-.71.784-.716.785h-1.432l-.716-.785.716-.784v-1.576l-.716-.785v-.791z"/><path d="M365.166 126.876v.784h-.716l-.716-.784h-.709l-.716-.785v-.791h-.716l-.716-.784v-.785l.716-.791v-.785l.716-.784v-3.152l-.716-.785v-3.145l-1.432-1.576.716-.784v-.791h.716l.716-.785H363.734v.785h.716v2.36l.716-.785.716.785.716-.785h.71l.716.785v.791l.716.785.716.784v.792l-.716.784h-2.142l-.716.785v1.576h-1.432l-.716-.785h-.709v2.361l-.716.784v.785l.716.791v.785l.709.784v.791h.716l.716.785z"/><path d="M365.166 107.993l1.425 1.576h1.432v.784l.716.785h-1.432v.791h.716l.716.785 2.142 2.36v.784l.716.792-.716.784h-.716l-.709.785-.717-.785.717-.784v-.792l-1.433-1.569v-.791l-.716-.784h-.716l-.709.784-.716-.784-.716.784v-2.36h-.716v-.785h-.716l1.432-1.576v.792h.716v-1.576z"/><path d="M366.591 120.579l-.709-.784v-1.576l.709-.785h2.148l.717.785.709-.785h.716l.716-.784v.784l-.716.785.716.791v.785h-.716l-.716.784h-.709v.792h-.717l-.716.784h-.716l-.716-.784v-.792z"/><path d="M368.74 122.94l-.717-.785.717-.784h.716v-.791h.709l.716-.785h.716v-.784l-.716-.792.716-.784v-.785l-.716-.791v-.785l-2.858-3.145h-.716v-.791h1.433l-.717-.785v-.784h-1.432l-1.425-1.576.716-.785h2.141l.717-.791.716.791h.709v.785l.716.784h.716l-2.141 2.361v1.576l3.566 3.936v3.93l-.709.791h-.716l-.716.784h-.716v.785l-.709.791-.716.785-.717-.785.717-.791zm21.433-35.4l-.709-.791.709-.785h.716l.716-.784h1.425l.716-.792h.716l.717-.784h1.425l-.709.784-.716.792v.784h-.717l-.716.785-.716.791v.785h.716l-.716.784h-.709l-.716.792h-.716l-.716-.792V87.54z"/><path d="M391.605 93.83V89.901l.716-.792h.716l.709-.784.717.784v.792l.716.784v1.576l-.716.785h-1.426l-.716.784h-.716zm16.435-21.237v-.791l.716-.785.709-.784.717.784v2.361l.716 1.576v.784h-.716l-.717.785v1.576l.717.784h-.717l-.709.785h-.716v-.785l.716-.784v-.785l-.716-.791.716-.785v-1.576l-.716-.784v-.785zm0 7.866h.716l1.425 1.569h2.149v.791l-.716.785h-.716l-.717.784H408.756l-.716-.784-.716.784v.792h-.716l-.709-.792.709-.784.716-.785h.716v-2.36zm-.716 4.721l.716.785v.784l.716.792-.716.784v.785h-.716v3.151l-.716.785h-2.857l-.716.784-.709.792h-2.149l-.709.784h-1.432l-.716.785v.791l-.716.785-.709-.785v-.791l-.716-.785-.716-.784h1.432l.709-.792.716-.784h.716l.716-.785h2.857l.717-.791.709-.784h.716l.716-.785h.716l.716-.791v-.785l.709-.784-.709-.792.709-.784v-.785h.716zm-90.03-34.622l-.716-.784h-.716l-.716-.785v-.784l.716-.792h.716l.716-.784h.709l.716-.785h1.432l.709-.791H323.008l.716-.785h3.574l.709-.784h1.432v-.792h-2.141l-.716.792h-3.574l-.716.784h-3.573l-.716.785h-2.141l-.716.791-.717.785h-1.425v.784l-.716.792-.716.784h-.709v.785h.709l.716.784h5.006zm-13.578-11.795l.709.785h6.431v-1.576h-1.425l-.716.791h-4.999zm7.856 0l.716.784h7.863l.709-.784h4.29l.716-.791h-6.431l-.716-.785h-1.425l-.716.785h-2.858l-.716.79h-1.432zm-4.29 14.162v-.791h2.149l-.716.791h-1.433zm57.884 73.951l1.432 1.569v1.576l.71.784v2.361h-.71l-.716-.785-.716-.784-.716-.792-.716-.784v-2.361l-.709-.784h.709l.716.784h.716v-.784zm17.867 2.361l-.716.784-.716-.784h-1.432v.784l-.716.792v.784l-1.425 1.576h-.717l-.716-.791-.709.791h-1.432l-.716-.791h1.432v-.785l.716-.784h1.425l.717-.792v-.784H379.453l.716-.792v-.784l.716-.785.716-.784.716.784v.785h.716l.709.784-.709.792z"/><path d="M379.46 128.445l-.716.791h.716l.709-.791h-.709zm-26.439-88.897l.709-.785h1.432l.716-.791h4.999l-.717.791v.785H363.734l-.709.784-.716.785h-2.149l-.709-.785H354.446l-.716-.784h-.709zm9.288 2.36l.716-.791.709-.785h4.29l.716.785h-2.858l-.716.791h-2.857zm40.726 3.145v-.785h5.005v-.784l.716.784h3.574l-.716.785h-2.148l-.71.791H404.467l-.716-.791h-.716zm3.573 2.36l.716-.784h2.142l.716.784h-3.574zm6.431-2.36l.716.791h3.574l.716-.791h-5.006zm-27.148 62.94h-.716l-.717-.785v-.784l.717-.792.716-.784h.709v1.576l-.709.784v.785zm2.85 13.406l-.695-.785v-.791l1.425 1.576h-.73zm-2.141-2.361v-.784l.695.784h-.695zm4.289 3.937v-2.361l-.695-.791-.695-.785-.696-.784-.695-.792H386.6v-1.617l.695-.792v-2.36h-2.148v3.152l-.696-.792v1.576l.696.785v1.576l.695.784h1.432v.792l-.695.784.695.785v.791l.695.784h.695l.696-.784h.695v.784l-.695.785h-2.142l-.695.791v.785l.695-.785h.695l.696.785v.784l.695.792h1.432v-.792l.695-.784v-2.361l-.542-.735zm-49.304-.035v1.576l-.716.784.716.792v.784l.716.785h.716l.709-.785v-.784l-.709-.792v-.784l-.716-.785-.716-.791zm30.012 14.947h-.716v.784h.716v-.784zm-2.141 3.936h2.141l.716.785h6.431l-.716.791h.716v.785h1.425v.784h-2.141l-.716-.784h-3.574l-.709-.785h-2.864l-.709-.791h-.716l.716-.785zm11.429 2.361v.784l.716-.784h-.716zm.716.784l.716-.784h1.425v.784h-2.141zm2.141.791l.717.785h1.432l-.716-.785h-1.433zm5.006.001l-.716.784v.785h.716l.716-.785.709-.784-.709-.792-.716.792zm-15.01-13.379l-.716.792V135.533l.716.785v.784l.716.785h1.433v.791h.709l.716-.791.716.791h.716v.784l.709-.784h1.432v-2.36l.716-.785h.716v-1.576l.716-.784-.716-.792v-1.569l-.716-.791h.716l-.716-.785h-1.432v.785l-.716.791v.785l-.709.784-.716.792h-.716l-.716-.792-.709.792h-1.433l-.716-.792zm10.72 11.803v.784h2.149l-.716-.784h-1.433zm2.858.784h1.432l.716-.784H386.6l.716.784zm3.573 0h-.716v.792h1.432l.717-.792v-.784l-.717.784h-.716zm-7.147-3.929H385.175v-3.152h.716v.791l.716.785v.784l.709.792h.716v-1.576l-.716-.785v-.791l-.709-.785v-.784h1.425l.716-.792h-2.141l-.716.792-.716-.792v-1.569h4.289l.709-.784v-.792l-.709.792h-4.289l-.716.784v1.569l-.717.792V138.678l.717.785v.784l-.717.792zm7.147-4.721h-1.425v.784h2.141l-.716-.784zm2.858-4.721v.784l.716-.784h-.716zm0 3.929V133.166l-.716-.785v2.361h-.709l.709.784h.716zm-2.858 3.152h1.432v-.791h-.716l-.716.791zm5.715 0l-.709-.791h-2.858v.791h2.858l.709.785v-.785zm10.004-.791l-.709-.785h-.716l-.716-.784h-.716l-.717.784h-.709l-.716.785v.791h-.716l-.716-.791v-1.569l-.709-.785-.716-.791h-.716l-.716.791h-1.425l.709.785h.716l.716.784h1.432l-.716.785h-.716v.791h.716v.785h.716v-.785l.709.785h.716l.716.784h1.425l.717.791h.716v.785l.716.784v.792h-.716l-.716.784v.785l.716-.785h1.432l.709.785h.716v-7.081h-.716z"/><path d="M400.177 141.823l-.709.785v.791h.709v-.791l.716-.785v-.784h-.716v.784zm-3.573 2.36l.716-.784v-.792l-.716.792v.784zm20.008 1.576h-.716l-.709-.791v-.785l-.716-.784-.716-.791h1.432l-.716-.785h-.716l-.716-.784h-.709v-.792l-.716-.784-.716-.785h-1.433l-.709-.791h-1.432v7.081l.716.791h1.425l.717-.791h-.717l.717-.785.716-.784h.716l.716.784h.709l.716.785v.791l.716.785h1.425l.716.784h1.432v-.784h-.716l-.716-.785zm2.148-5.512l-.716.791h-2.857l.709.785h2.148l.716-.785.709-.791v-.785h-.709v.785zm28.581 38.552l-.716.784h-.716l-.709-.784-.716-.785h-.716v-.784l-.716-.792-.717-.784h-.709l.709.784v.792l.717.784.716.785v1.576l-.716.784v.785h.716l.716.791-.716.785.716.784.716-.784 1.425-1.576-.716-.785h1.432v-.784l.716-.792-.716-.784zm-5.715 3.936h-.716v.784l-.716.785v.791l-.716.785h-.709l-.716.784h-.716l-.716.792h-.716l-.71.784v.785l.71.791h2.864l.709-.791v-.785l.716-.784.716-.792h.716v-.784l.709-.785.716-.791v-.785h-.716l-.709-.784zm-21.44-15.739v-2.36l-.716-.784-.71-.785-.716-.791v-.785l-.716-.784h-.716v-.792l-.716-.784-.709-.785-.716-.791h-.716l-.716-.785v-1.576l-.709-.784v-1.569l-.716-.792h-.716l-.716-.784v-1.576l-.717-.784v-1.576h-.709v.791l-.716.785V153.625l-.716.785v.784h-1.425l-.716-.784h-.716l-.716-.785h-.716l-.709-.784-.716-.792v-.784l.716-.785.709-.791v-.784h-3.567l-.716-.785h-.716v.785h-1.432l-.709.784v.791l-.716.785-.716.784h-.716l-.709-.784h-2.149l-1.425 1.576v.784h-.716v1.569l-.716-.784h-.716v1.576l-.709.784-.716.785-.716.791h-2.142l-.716.785h-1.432l-.716.784h-.709l-.716.792h-.716v1.569l-.716.791v.785l.716.784v.791h-.716v.785l.716.784v.792l.716.784.716.785v2.36l.709.792v1.569l-.709.791.709.785.716.784h2.148l.71-.784.716-.785h4.289l.716-.791.709-.785h2.148l.717-.784h6.43v.784l.709.785.716.791.717.785h.716l.709-.785.716-.791v1.576l-.716.784h1.432v.792h.716l.716.784v.785l.709.791h.716l.716.784h5.715l.716-.784h2.141l.716-.791v-1.569l.716-.792v-1.569l.716-.791.71-.785.716-.784v-2.361l.716-.791v-1.569l-.716-.792zm-6.431 16.523H412.33l-.716-.784v1.569l.716.791v.785l.709.791h.716l.716-.791.716-.785v-2.36l-.716.784h-.716zm-167.923-81.816h-4.998l.709-.792h1.432l.716-.784.716-.785v-2.36l.709-.791.716-.785.716-.784h.716l.709-.792.717-.784v-.785l.716-.791v.791l.716.785h2.857v2.36l.716.785h-2.148v.791h-.709v.784h-.716l-.716.785-.716.791h-1.426l-.716.785h-.716v1.576zm0 2.354v-2.354h-4.998v.785l-.716.784h-.716v1.576l-.717.785-.709.791v.784l-.716.785-.716.791h4.29v-1.576l.709-.784h.716v-2.367h3.573z"/><path d="M253.695 92.261h.717l.709-.791h1.432l.716-.785h7.147l-.716.784v2.361l-.716.791.716.785.716.784.709.792v1.569l.716.791v3.93h-.716l.716.784v.792l.716.784h.716l.716.785-.716.791h-.716l-.716.784h-.716l-.709.785-.716.791h-.716l-.717.785-.716.784h-.709l-.716.792h-1.432v-.792l-.709-.784h-.716l-.716-.785-.716-.791h-.716l-.709-.785-.717-.784h-.716l-1.425-1.576h-.716l-1.432-1.576h-.716l-.709-.784h-.716l-.716-.785h-.716v-2.36h.716l.716-.785H248.69l1.432-1.576h.716v-.784h.716v-.792h2.141l-.716-.784v-2.36l.716-.785z"/><path d="M265.841 89.9h-.716l-.709.785-.716.785v2.36l-.717.792 2.142 2.36v1.57h.716l.716-.785v-.785l.716-.791v-1.57h-.716l-.716-.79.716-.785.716-.785-.716-.791.716-.785-.716-.784-.716.784v-.784z"/><path d="M270.13 107.208l-.716-.791h-1.425l-.716-.785h-.716l-.716-.784v-.792l-.716-.784h.716v-3.93l-.716-.79h.716l.716-.785v-.785l.716-.791v-.785h2.857l.716.785h.71v.791l.716.785h2.148l.709.784h.716l.716-.784v-.785l.716-.791.709-.785h1.432l.716.785h.717l.709.791h.716v.785l-.716.784v.792l.716.784v10.226h-1.425v.785h-.717l-.716-.785h-.716l-.716-.784h-.709l-.716-.792h-.716l-.716-.784h-.709l-.716-.785h-.716l-.716-.791-.716.791h-1.426z"/><path d="M282.992 96.982h-.716v.784l-.717.785v.791l.717.785v7.866h12.145l-.709-.785v-.791l-.716-.785v-.784l-.716-.792v-.784l-.716-.785v-.784l-.716-.792-.71-.784v-.785l.71.785.716.784.716.792v-1.576l.716-.785-.716-.791v-.785h-2.142l-.716-.784h-1.432l-.709.784h-2.148l-.716-.784h-1.425zm11.429 11.011h-12.145v2.36h-1.425v5.505h-.717l-.716.792v.784l-.716.785v1.576h.716v.784l.716.792v.784l.717.785v.791l.709.785 3.573 3.929v.791H287.281l.709.785h3.574l.716-.785h1.432v-.791l-.716-.784-.716-.785v-.784l-.716-.792h-.716v-.784h.716l.716-.785v-1.576l.716-.784v-.792l.716-.784.709-.785V116.65l.716-.792v-1.569l.716-.791h.716v-.784l-.716-.785h-.716v-3.152l-.716-.784zm-57.877.784v.792l.716.784v.785l.716.791v1.569l-.716.791v.785h2.858l.716.784.709.792h.716v-.792h6.431l.716-.784-.716-.785v-4.72l-.709-.792v-3.929h2.141l-.716-.792h-.716l-.709-.784h-.717l-.716-.785h-.716v1.569h-3.573v2.361h-.716l-.709.791v1.569h-4.29z"/><path d="M242.975 119.795v-.785l-.716-.791V115.858h6.431l.716-.784-.716-.785v-4.721l-.716-.791v-3.929h2.148l.716.784h.716l1.425 1.576h.716l1.426 1.569h.716l1.432 1.576h.716l.709.784v.792h.716V115.858l-.716.792h-4.283l-.716.784h-1.432l-2.857 3.145v1.576h-2.857l-.717-.784v-1.576h-2.857zm-5.714-1.576h2.857l-.716.791h-2.141v-.791z"/><path d="M237.26 115.859v-.785h2.858l1.425 1.576h.716v1.569l.716.792v.784h-5.715v-.784h2.142l.716-.792h-2.858l-.716-.784v-.785l.716-.791zm1.426 5.512l.716-.792.716-.784h-2.857v.784h.716l.709.792z"/><path d="M240.834 123.731l.709-.791h1.432l.716.791v.785h.716l.709.784v.792h.716l.716-.792v-3.145l-.716-.784v-1.576h-5.714l-1.433 1.576 2.149 2.36z"/><path d="M242.975 126.092l.716-.792v-1.569l-.716-.791h-1.432l-.709.791v.785l.709.784.716.792h.716z"/><path d="M247.265 129.236v-1.575l-.716-.785-.717-.784h-.709v-.792l-.716-.784h-.716v.784l-.716.792h-.716l.716.784.716.785h.716l.716.784.709.791h1.433z"/><path d="M252.263 128.445h-3.573l-.716.792h-.709v-1.576l-1.432-1.569.716-.792v-3.145h2.857l.716.785h2.141v2.36l-.716.792v1.569l.716.784z"/><path d="M255.836 121.371H252.263v1.569h-2.141l-.716-.785v-1.576l2.857-3.145h1.432l.716-.784h.709v.784l.716.785 2.149 2.36-.716.792h-1.433z"/><path d="M256.553 126.876v-3.936l-.716-.785v-.784h-.716v.784l.716.785v3.936h.716z"/><path d="M257.985 126.876h-1.433v-3.936l-.716-.785v-.784h1.433l.716-.792-.716-.784h.716l.709.784v.792l.716.784-.716.785-.709.791v3.145z"/><path d="M259.41 119.795l-.716.785-.716-.785h-.709l-2.148-2.36v-.785h3.573l.716-.791v-3.93h.716l.716-.791h.709l1.432-1.569h.717l1.425-1.576h.716l.716-.785h.716l.716-.791h1.425l.716.791h1.425v2.361l.717.784v.785l-.717.791v3.145l-.709.785h-.716v.791l-.716.785v.784l-.716.792h-.709l-.716-.792h-.716l-.716.792h-3.574l-.716-.792h-1.425l-.716.792v.784z"/><path d="M257.985 126.876h2.141l.716.784v.785l.716.791h2.857v-1.576l.71-.784.716-.785h.716l.716.785.716-.785v-.791l.709-.784v-.785l.716-.791v-.785l.716-.784.716-.792v-.784l-.716-.785v-.791h-.716l-.716.791h-.709l-.716-.791h-.716l-.716.791h-3.574l-.709-.791h-1.432l-.716.791v.785l-.716.784v.792l.716.784-1.425 1.576v3.145z"/><path d="M280.135 121.371l-.717-.792v-.784h-.716v-1.576l.716-.785v-.784l.717-.791h.716v-4.721h-.716l-.717-.785h-.716l-.716-.784h-.709l-.716-.785h-.716l-.716-.791h-.709l-.716-.785h-.716l-.716-.784-.716.784v2.361l.716.784v.785l-.716.791v3.145l-.71.785h-.716v.791l-.716.784v.785h.716v.791h.716l.71.785v3.145h-1.426l.716.791.71.785v.784h3.573v-.784l.716-.785h1.432l.709-.791.716-.785.716-.784h.717zm17.143-7.082l-.709-.791h-.716l-.716.791v1.569l-.716.792v.784h1.432l.716-.784.709.784h1.432l2.142 2.361h.716v-.785l-2.142-2.36h-1.432l-.716-.792v-1.569z"/><path d="M301.568 120.579v.792h-1.425v-.792l.709-.784h.716v-.785l.716.785-.716.784z"/><path d="M293.712 128.445l-1.432-1.569v-.784l-.716-.792h-.716v-.784h.716l.716-.785v-1.576l.716-.784v-.792l1.425-1.569v-1.576h1.432l.716-.784.716.784h1.426l2.141 2.361-.709.784v.792h1.425l-.716.784.716.785.716.791H303l.716.785H305.141l.717.784h.716l-2.858 3.145h-1.432l-.716.791h-.716l-.709.785h-.716v-.785h-.716l-.716.785h-2.142l-.716-.785h-1.425v-.791z"/><path d="M302.284 121.371h-.716l-.716.784 1.432 1.576H303l.716.784h1.426l.716.785h.716l-2.858 3.145h-1.432l-.716.791h-.716l-1.425 1.569v4.728l.716.785.709-.785v-.791l.716-.785.716-.784H303l1.432-1.576h.71l1.432-1.576v-.785l.716-.791.709-.785v-.784l.716-.785v-.791l.716-.785v-.784l.716-.791v-2.361h-1.432l-.716.792h-2.141l-.716.784H303l-.716-.784zm-31.438 7.865v-2.36l.709-.784v-1.576l-.709-.785-.716-.791h1.425v-3.145l-.709-.785h-.716l.716.785v.784l-.716.792-.716.784v.785l-.716.791v.785l-.709.784v.792l-.716.784-.716-.784h-.716l-.716.784-.709.784v1.576l.709.785.716.791v.785h4.289l.716.784h1.425v-1.569l-.716-.791-.709-.785z"/><path d="M272.271 132.381l.716-.784v-1.576h2.142v-.785l.716-.791h.716l.716.791h1.425l.716.785v-.785h.716l.716-.791h4.283l-4.283-4.714v-.791l-.716-.785v-.784h-.716l-2.141 2.36h-1.432l-.716.785v.784h-3.574v.791l-.709.785v2.36l1.425 1.576v1.569zm-4.998-.784v1.569h-2.148l.716-.785v-.784h1.432z"/><path d="M267.273 139.462l.716-.784-.716-.792.716-.784h2.141v.784l.716-.784v-1.576l-.716-.784v-.785h.716v-.791h-1.432v-1.569h-2.141v1.569h-2.148v1.576l-.709.784.709.792v.784l2.148 2.36z"/><path d="M267.989 140.247h2.141l.716-.784v.784l.71-.784.716-.785v-.791l.716-.785.716-.784.716-.785v-3.152l.709-.784v-1.576h-2.141v1.576l-.716.784h-1.426l-.716-.784h-.716v1.576h1.432v.784h-.716v.785l.716.791v1.569l-.716.785v-.785h-2.141l-.716.785.716.791-.716.785.716.784zm0 1.576h.709v-.784l.716-.792h-1.425v1.576z"/><path d="M272.987 141.823h-4.289v-.785l.716-.791h.716l.716-.785v.785l1.425-1.569v-.792l2.149-2.36v-3.145l.709-.784v-2.361l.716-.791h.716l.716.791h1.425l.716.785v-.785h.716l.716-.791h4.283v.791h2.148l.709.785.716.784v1.576l-.716.792-.709.784v2.361h-.716V140.247l.716.791v1.569l.709.792v.784H286.565l-.716.785v3.152l.716.784h.716v1.576h-.716l-1.432-1.576h-2.141l-.717-.784h-.716l-.709-.792h-1.432v-.784l-.716-.785v-2.36h-1.425v-.792h-.716l-.716.792v.784h-1.425l-1.433-1.576v-.784z"/><path d="M287.99 135.526l-.709.792v-2.361l1.425-1.576v-1.576l-.716-.784h3.574l.716-.785v1.569l.716.792v.784l-.716.785-.716.791v1.569h-3.574z"/><path d="M288.707 137.102v-.784l-.716-.785-.71.785h-.716v1.569h.716l.71-.785h.716z"/><path d="M287.991 137.887v-.784l-.71.784h-.716v1.576h.716l.71-.785v-.791z"/><path d="M291.564 135.526l.716.792h.716l.716.784h.709l.716.785h.716v.791l.717.785.709.784V142.608h.716l-.716.791v.785l.716.784v1.576h.716v.784h-.716l-.716.792h-4.283l-.716-.792v-.784l-.716-.785h-.716l-.709-.791h-.716l-.716-.784h-.716v-.785l-.71-.791v-1.569l-.716-.792v-.784h.716l.71-.785v-1.576h.716v-.784l-.716-.792h3.573zm-22.15 7.873l-1.425-1.576h4.999v.785l1.432 1.576h1.425v-.785l.716-.791h.716v.791h1.425v2.361l.716.784v.785h1.433v2.36h-2.149v3.936l1.432 1.569-.716.792h-3.573l-.716-.792h-4.999l-.716-.784-.716.784h-.709v-2.353l.709-.792v-1.569l.716-.791.716-.784v-1.576l-.716-.785v-3.145z"/><path d="M282.276 155.986l-.716-.792h-1.426l-1.432-1.569v-3.936h2.149v-2.36l.709.791h.716l.716.784h2.141l1.432 1.576h.716v-1.576h-.716l-.716-.784v-3.152l.716-.784h2.141l.717.784h.716l.709.792.716.784v.785l-.716.791v.784h.716l-.716.785v1.576h-.709l-.716.784h-1.433v.792h-.709l-.716.784-.716.785h-.716v.784l-.716.792h-2.141z"/><path d="M280.134 155.986l.716.784.709-.784h.716l-.716-.792h-1.425l-.716.792h.716zm12.146-7.082l.716-.784-.716-.792v-.784l-.716-.785h-.716l.716.785v.784l-.716.792v.784h.716l-.716.785v1.576l.716.784h.716v1.576l.716.785v.784l.716-.784v-2.361l-.716-.784-.716-.785v-1.576z"/><path d="M298.71 152.841l-2.141 2.353h-.716l-1.432 1.576-.709.785-.716.791v1.569l.716.792v2.36l-.716.785h-.716l-.716.784h-.71v1.576h-.716l-.716-.785v-3.151l-.716-.785.716-.784.716-.792v-.784l.716-.785v-3.152l-1.432-1.569h-1.432v-1.576h1.432l.716-.784h.716l.71.784h.716v1.576l.716.785v.784l.716-.784v-2.361l-1.432-1.569v-1.575l.716-.785h4.282l.716-.791h.716v5.512zm8.573-2.361l.716-.791v-.785h.716v.785l.716.791v3.145h-.716V155.986l-.716.784v.785l-.716.791v2.36l-.709.785v1.576l-.717.784-.716.785H303l-.716-.785v-1.576l-.716-.784v-.785l.716-.791.716-.785v-2.36l-.716-.784v-.792l.716-.784.716-.785h.709l.716-.784h.716l.717-.792.709-.784v-.785z"/><path d="M287.99 161.491l-.709-.784h-.716l-.716-.785h-.716v-.791h-.716v-.785h-.709l-.716-.791v-.785l-.716-.784h2.141l.716-.792v-.784h.716l1.432-1.569h.709v.784h1.433l1.425 1.569v3.152l-.709.785v.791l-1.432 1.569h-.717zm-9.288-4.721l.716-.784h-3.573l-.716-.792h-4.999l-.716-.784-.716.784h-.709v1.576l.709.785.716.791v.785l.716.784v.791l.716.785v3.936l.71.785v.784l.716.792.716.784.716-.784.716.784h2.141v-7.866h1.425v-3.936h.716z"/><path d="M277.277 164.636l-.716-.784v-3.145h1.425v-3.937h.716l.716-.784h.716l.716.784.71-.784h.716l.716.784v.785l.716.791h.709v.785h.716v.784h.716l.716.792-.716.784-.716.785-1.425 1.576h-.716v.784l-.716.792h-.716l-.71-.792h-.716l-.716.792-.716.784h-1.425v-1.576zm12.146.791h-.717v1.569h.717l.716-.784-.716-.785zm-5.006 4.721l.716-.791.716-.785h.716l.716.785-.716.791-.716.785h-.716l-.716-.785zM245.811 84.34l-.716-.785.716-.791.717-.784.716.784h5.714l.716.791h2.858l.716.785h.709l.716-.785v.785l-.716.784h-.709l-.716.792h-.716l-.716.784-.717.785.717.791-.717.785v.784h-.709l-.716.792h-2.857l-.716.784h-.716l-.716-.784-.709-.792V87.485l.709-.785v-.784l.716-.792-.716-.784h-2.142zm18.605-14.107l-.717.784h-.716v.785l-.716.791-.716.785v.784l.716.792v.784h.716l.716.785-.716.791.716.785h4.999l.716-.785.716-.791-.716-.785h-.716l-.709-.784.709-.792H270.846l.709-.784-.709-.785v-1.576l-.716-.784-.716-.792-.716.792h-2.141l-.716-.792h-1.425v.792zm101.459-28.318l-.716.791h-.716l-.716.785h-1.425l-.716.791h-1.432l-.709-.791h-1.433l-.716.791h-4.998l-.716.785h-2.142l-.716.784h-.716l.716.792h-5.005l-.709.784h-1.432l.716.785h1.425l.716.784h-2.857l-.717-.784h-2.141l-.716.784h-.716l.716.792h-1.425v-1.576l-.716-.785v1.569h-1.432v.792l.716.784-.716.785.716.791h3.573l.716.785-.716.784v-.784h-3.573l.716.784-.716.792-.716.784h-.709l-.716.785h-1.433l-.716-.785h1.432l.717-.784.716-.792.709-.784h-.709v-3.145h-.716l.716-.792v-.784h-.716l-.717-.785h-2.141l-.716.785v.784h-.716l-.716.792h-.716v.784H328l-.716.785.716.791h.716l.716.785-.716.784-.716-.784h-.716l-.709-.785h-2.148l-.71-.791h-3.573l-.716-.785h-1.432l.716.785h.716l.716.791.709.785h-1.425l-.716-.785-.716.785h-2.858l-.716.784h-.709l-.716-.784.716-.785h-.716l-.716.785h-2.141l-.716.784H307.276l-.71.792-.716.784h-.716l-.716-.784h-.709l.709-.792h.716l-.716-.784h-1.425v.784l-.716.792.716.784-.716.785-.716-.785h-.716l-.709.785h-1.432l-.717.791.717.785h-2.858l-.716-.785h-.716l.716.785.716.784h-2.141l-.716-.785-.716-.784.716-.791h-1.432l-.716-.785h3.573l.716.785h2.857l.717-.785h.716v-.784l-.716-.792h-2.142l-.716-.784h-.716l-.716-.785h-2.857l-.716-.791H287.983l.716.791h-2.141l-.716.785.716.784h.716v.792l-.716.784.716.785v1.575l.709.785v.791h.716l.716.785-.716.784h-.716l-.709.792h-.716l-.716.784h.716l.716.785h-1.432l-.716.791-.716.785.716.784-.716.792h.716v.784l.716.785h2.141l.716.791v.785l1.433 1.575-.717.785v.784h2.142l2.148 2.36h3.573l.709.792h.717l-.717.785v.784l-.709.785-.716.791v.785l-.716.784h-.716v.792h.716l.716.784h.716l.709.785h2.858l.716.791h2.148l.709.785h.716l.716.784h1.426l.716-.784.716-.785-.716-.791v-1.57l.716-.79v-.785h-.716v-.785l-.716-.791h-.71l-.716-.785h-.716l.716-.784V74.96h.716l.71.791.716-.791v-.785h.716l.716-.791.716-.785h1.425l.716.785h1.432l.709.791h1.433l.716-.791h1.425l.716.791h2.857v-.791h-.716l-.709-.785h.709V70.24h4.29l.716-.784h2.857l.716-.785h2.141v.785l.716.784h2.142v.791h.716l.716-.79h2.141l.716.79h.716l.716.785v.784l1.426 1.576.716-.791.716.791h2.857l.716.785.709.791H351.582l.716-.791h.716l.709-.785h2.857l.716.785h2.149l.709.791.716-.791h.716l-.716-.785v-.791l.716-.785h1.425l.716.785h1.432l.716.791.709.785h1.433l.716-.785h1.425l.716.785h.716l.716.791h4.999l.716-.791h2.857l.716.791h.716l.716-.791h.709l1.433-1.576.716-.785-.716-.784.716-.785h4.282l.716.785.716.784.716.785v1.576l.71.791h2.148l.716.785v.784l.709.785h1.432l.716-.785h2.141l-.716.785v.791l-.709.785v.784l-.716.792-.716-.792h-.716l-.716.792v1.569l-.709.791h.709l.716-.791h.716v.791h2.141l.716-.791 4.29-4.721.716-.785.709-.784v-2.36l.716-.792.716-.785-.716-.784.716-.785h-.716l-.716-.79h-1.425l-.716.79h-.716l-.716-.79v-.785h-2.142l.716-.785h.717l.709-.791h.716l.716-.785.716-.784h.716l.709-.792.716-.784h.716l.716-.785H415.896l.709-.791.716.791h2.858l.716.785h.716l.716-.785h-.716v-.791h.716l.709-.785h.716l.716-.784.716-.792h3.574l-.716.792v.784h.716l.709-.784h.716l.716-.792.716-.784h1.425l-.716.784v.792l-.709.784h-1.432l-.716.785-.709.791h-.716l-.717.785-.716.784H425.184l-1.432 1.576-.716.785v1.576l.716.784V72.6l.716.785v.791l.716-.791.709-.785.716-.784h.716l.717-.785v-.79l.716-.785.709.784.716-.784-.716-.785.716-.791h1.432v-.785h-.716v-.784h.716l-.716-.792h-.716l.716-.784 1.425-1.576h1.432l.716-.785v.785H435.897l.717-.785h1.432l.709.785h.716l.716-.785h.716l.716-.784h.709l.716-.792h2.142l.716-.784h1.432l.716.784.709-.784v-.785l-.709-.791h-.716l-.716-.785h2.857l.716-.784-.716-.791h1.432l.716.791h2.141l.717.785h1.425l.716.784.716-.785.716-.784h1.425l.716-.791-.716-.785H458.054l-.716-.784h-1.432v.784l-.716-.784h-.709l-.717-.792h-1.432l-.709-.784h-2.141l-.723-.785h-2.857l-.716-.791h-5.715l.716.791-.716.785h-1.425l-.716-.785.716-.791h-2.149l-.709.791h-2.148l-.716-.791h-2.141l-.716.791h-.709l-.716-.791v-.785h-1.433l-.716-.784h-3.566l-.716.784H419.463l-.71-.784h-.716l-.716-.792h-2.857l-.716-.784h-8.572l.716.784v.792l-.716-.792h-.716l-.716.792h-.716l-.709-.792h-.717l-.716.792h-1.425l-.716-.792h-.716l-.716.792-.716.784-.709-.784h-1.432v-.792h.716l-.716-.784-.716-.785h-2.858l-.716-.784h-2.141l.716.784-.716.785h-2.141l-.716-.785h-1.433l-.709-.784h-3.58l-.709.784h-.716l-.716-.784h-3.574l-.716.784h-2.141l.716-.784H373.015l.716-.792H376.589l.716-.784h.716v-.785h-.716l-.716-.791h-5.715l.716-.785h-2.141l-.716-.791h-2.858zm-242.943 2.353v-.784H124.357l.716-.792h3.574l.716-.784.709.784-.709.792h-2.149l-.716.784h-3.566zm-3.573 4.721l2.141-2.36-.716-.785h4.289l.717.785h3.573l.709.784h-2.857l-.716.792-.709.784h-.717l-.716.785H121.5l-.716-.785h-1.425zm75.027 24.389l-1.432 1.576-.709.784-1.432 1.576v.785h3.573l.716.784h.71V78.1h.716v.784h1.432v-1.569l-1.432-1.576h-1.426l-.716-.784v-.792l.716-.784h-.716zm52.879-4.72l-.717.784v.784h2.142l.716-.784-.716-.785h-1.425zm66.455 36.974l2.142-2.36v1.576l-.717.784v.785l-.716.791v.785l-.709-.785h-2.148v-.791l-.709-.785h2.857zm46.441 22.813l1.432 1.576h.716l.709.785v.791h.716l.716.784h.716l.716.792.709.784h.717v.785l-.717.784h1.433v1.576h.716l.716-.784.709.784v.785l-.709.791v3.145l-.716-.784h-.716v.784l-.716-.784-2.858-3.152v-.785l-.716-.784v-.792l-.716-.784-.709-.785-.716-.784v-.792l-.716-.784h-.716v-.791l-.709-.785-.716-.784-.717-.792v-.784h.717l.716.784h.709zm-103.608-1.569l-.716.784h-.717l-.709.785h-2.148l-.709-.785v-1.569l.709-.791V121.371h2.857v.784l.717.785v3.936h.716z"/><path d="M247.981 66.296h.709v-.784h.716v-.791h1.432l.716-.785.709.785-.709.791v.784h1.425l-.716.785v.791h.716l.717.785v.784h.716l.709.792v.784l.716.785h.716v1.576l-.716.784h-4.283l-.716.792H248.69l.716-.792h.716l.716-.784h-1.432l.716-.785.716-.791h-.716l.716-.785h.716v-.784l-.716-.792h-1.432v-.784l-.716-.785-.709-.791v-.785zm-47.88 63.725l-.716-.785v.785l-1.425 1.576h-2.857l-.716.784h-1.433l-.709.792h-.716l-1.432-1.576v-.785l.716-.791v-.785h-.716v-.791h-.716v.791h-1.425l-.716.785h-1.425l-.716-.785v.785l.716.791v.785h.709l-1.425 1.576h-.717l-.716.784-.716-.784v-.792h-3.573v.792h.716v.784h-.716v.785l.716.791v2.353l-.716.792v.784h-.709l-.716.785h-.716l-.716.791-.717.785v.784l-.709.792.709.784.717.785v.791l.716.785h.716l.716-.785v1.569h2.857l.716-.784h.709l.716-.785h.716v2.361l.717.784.716.785h1.425l.716.791h1.425l.716.785v2.36h2.148v1.569l.709.791v.785l-.709.784v3.152h2.142l.716.785v1.576H196.528v.784l-.716.785v.791l.716-.791.716.791v.785l-.716.784-.716.791h-.709l-2.149 2.361v.784l.717-.784.716.784.716.785h.709l1.432 1.576v1.576l.716-.792.716-.784v-.785h.709l1.432-1.576v-.784l1.426-1.576.716-.785v-.791l-.716-.784v-.785l2.148-2.36H205.816l.716-.792h2.857l.716-.784.717-.785v-.791l.716-.785v-.784l.716-.792v-1.569l.709-.791v-4.714l.716-.791.716-.785v-.784l.716-.792.709-.784.716-.785.716-.791v-3.93l-.716-.791h-2.141l-2.141-2.361h-2.865l-.716-.784h-1.425l-.716-.784h-.716l-.709-.785h-2.148l-.716-.791-.71-.785-.716-.784v-.792l-.716-.784v-1.576zm-72.17-84.968l2.141-1.57H132.22l.709.785h2.149l.716.785h1.425v-.785l-.716-.784h1.432l.716.784h2.141v.785h-2.857l-.716.791h-5.715l-.716-.791h-2.857zm4.998-2.36v-1.57h4.29l-1.426 1.57h-2.864zm7.863-.785h.716l.716.784h-.716l-.716-.784zm0-1.576l.716.791h3.574l.716.785h2.141l-.716-.785-.716-.791h-5.715zm1.432 3.152l1.425 1.569h5.715l.716-.785-.716-.784h-4.283l-.716.784-.716-.784h-1.425zm-15.009 4.72H129.363l.709-.79h2.148l.709.79h2.148l.717-.79h.709l1.432 1.575h.716v-.784l-.716-.792h1.432l.709-.784h1.432l.716.784-.716.792.716.784v.785l.709.784h1.433l.716.792h.716l-.716.784-.716.785h-2.142l-.716-.785h-3.573l-.716.785h-4.29l-.709-.785h-2.857l-.716-.784h4.998v-.792h-5.714l-.716-.784-.717-.785.717-.784zm17.151-.79l.716.79h.716l.709.785h.716l.716.785h.716l.71-.785h1.432v-1.576h-.716l-.716-.784h-3.567l-.716.784h-.716zm4.998 5.511h-1.425l1.425-1.575.716.784h1.432v.791h-2.148zm1.433-1.575v-1.576l.716-.785h.716v-.784l-.716-.792.716-.784h4.998l-1.425 1.576h-1.432l-.716.784 2.148 2.36v.785h-2.864l-.709-.784h-1.432zm.716-5.506l-.716-.791.716-.785h1.425l.716.785h.716v.791h-2.857z"/><path d="M151.512 43.484h-1.432l.716-.792h2.858l.716.792h2.857l.716.784h.716l.709.785h3.574l.716-.785h5.005l.709.785-.709.791h-12.861l-.716-.791v-.785h-.716l-.716-.784h-2.142z"/><path d="M151.513 40.332l-.716-.784v-.785l.716-.791h4.289l.709-.785h5.006l.716-.784h4.999l.716-.792h16.435l.716.792h3.573l-.716.784h-2.148l-.709.785h-2.865l-.709.791H179.377l-.709.785h-2.148l-.716.784h-1.426v.792l-.716.784h-2.141l-.716.785v.791H158.66l.709-.791h.716v-.785l.716-.784h-1.432l-.709.784h-2.858l-.716-.784h-.716l-.716-.792h-2.141zm12.145 6.297h-3.573l-1.426 1.576h-.716v1.569l.716.784h.709l.717.792h10.72l2.141 1.576-.709.784v.785h1.425l.716-.785h1.425l.716.785v.784h-.716l-.709.792v.784h-3.573l-.716.785.716.791h1.425l.716-.791h1.432l.709.791h.716L177.952 60h2.141l.716.791h2.857L182.95 60h-.709l-.716-.785H182.95l.716.785h1.432v-.785l.717-.784h-.717l-.716-.791h-.716l-.716-.785h-.709v-.784h1.425l.716.784h2.142l1.432-1.576-.716-.784h-1.425l-.717-.785h-1.432l-.716-.784h-.709V51.35l-.716-.792h-2.857l-.716-.784h-2.149l-.709-.785h-.716l-.716-.784h-.716l-.709-.792-.716-.784h-1.432l-.716.784-.709-.784h-2.858l-.716.784h-1.432v-.784zm-2.142 11.01l.717-.784v-.785h.709l.716.785h.716l.716.784h1.425l.716.792h1.432l-.716.784h-1.432l-.709-.784h-.716l-.716.784h-2.858l-.716-.784h.716v-.792z"/><path d="M103.633 52.315h7.863l.716-.792h4.289l.709-.784.717.784.716.792h2.857l.716-.792h1.425l.716.792h2.858l.716.784h3.573l-.716.785.716.791h2.141l.716-.791h2.858l.716-.785h2.857l.716.785h7.147l.709-.785h1.432l.716.785h1.426l.716-.785v-.784h2.857l.716.784h.716l.716-.784h.709l.716.784v.785l.716.791h.717l.716-.791.709-.785v-.784l.716-.792h1.432l.716.792H167.231v.784h-.716v.785l.716.791-.716.785h-1.425l-.716.784h-.716l-.716-.784h-1.425v1.575l-.717.785-.716.785h-2.141l-1.432 1.575h-.709l-2.864 2.36v1.577l.716.784h.716l.716.785v1.576h.716l.709-.785h1.432l.716.785h.709l.716.784h1.433l.716.785h3.573l.709.791v2.36l1.432 1.57h1.426l.716-.785v-.784l-.716-.792v-.784l-.71-.785h1.426l.716-.791h.716l.716-.785v-1.569l-.716-.791-.716-.785v-.784l.716-.792-.716-.784.716-.792-.716-.784.716-.785h.716l.709.785h1.432l.716-.785h.709l.716.785.716.784H178.668l.709.792.716.784v.792l.716.784.716.785h.709l.716-.785h.716l1.432-1.576h.716l2.858 3.152v1.569h.709l.716.785h.716l.716.791h1.425v.785l.716.784h.716l.716.791-.716.785-.716.785h-1.425l-1.432 1.575h-7.863l-.716.785h-.709l-.716.791-.716.785h.716l.716-.785H182.95l.716-.791h1.432l.716.791-.716.785v1.576l.716.784h2.858l.709-.784h.716v1.569h-.716l-.709.791h-1.432l-.717.785h-1.425l-.716.784-.716-.784.716-.785.716-.791h-1.432l-.716.791-.716-.791v-1.57l-.709-.79h-1.432l-.716.79v.785l-.709.785-.717.791h-4.289l-1.425 1.57h-2.864v.79h-.71l-.716.785h-1.432l-.709.785-.716-.785.716-.784.709-.792v-1.569l-1.425-1.576h-.716l-.716-.784h-.716l-.709-.792h-.716l-.717-.784h-4.998l-.716-.785h-2.148l-.71-.791-.716.791h-29.296l-1.432-1.576H119.359l-.716-.784h-.716l-1.426-1.576-.716-.784-.716-.792-.716-.784v-2.36l-3.573-3.93h-1.425l-.717-.792-.716.792h-1.425l-.716-.792h-2.148l-.709-.784V51.523l.709.792zm180.075 33.65v.784l-.716.791h.716l.709.785-.709.784.709.792v.784h1.432l.716.785h1.425v-.785h1.432l.717.785h1.425l.716-.785h2.141l-.709.785v.791l.709-.791.716-.785h3.574l.716-.784.716.784h.709l.716-.784h.716l.716.784.716-.784-.716-.791v-2.36h-.716v-.785l-.716-.785h-2.141l-.716.785h-2.858l-.716-.785h-.716l-.709-.791h-2.864l-.709.791h-.717l-.716.785h-.716l-.709-.785h-1.432l-.716-.791h-.716l-.709.791v.785zm45.731 21.243l-.716-.791.716-.785h2.141v-1.576l-1.425-1.569.709-.784h1.432l3.574-3.936V96.19l-.716-.785v-2.36h.716l.716.784h.709l.716-.784h.716l.716-.785v.785l.716.784v.792l.709.784v.785h-.709v.791l.709.785h.716l.716.784-.716.791v.785l.716.784h.717l.709.792H345.874l.716.784h.709l.716.785h1.432l.716-.785v-.784l.709-.792v1.576H354.446v-.784l.716-.792h.716l.709-.784h1.432l.716-.784.716.784v.784h.71v.792h-.71l-.716.784h-.716v.785l-.716.784v.792l-.716.784-.709.785v1.576h-.716v-.785l-.716-.791-.716.791v-1.576h.716v-.784h-1.425l-.716-.792v-.784h-1.433l-.709.784h.709v.792l-.709.784h.709v1.576l.717.785v.784h-2.142l-.716.792v.784l-.716.785h-.716l-.709.791-2.148 2.36-.716.785h-.709v.784h-.717l-.716.792v5.505h-.716l-.709.785v.791h-.716v.785l-.716.784-.716-.784-.716-.785v-1.576l-.709-.784v-.792l-.716-.784v-1.576l-.716-.785v-.784l-.716-.792v-1.569l-.71-.791v-5.505l-.716.784v.792H330.864l-1.425-1.576h.716l.709-.785h-1.425zm-30.012 29.894l.716-.784-.716-.785v-4.721l.716-.791h-.716v-.785h-.716l-.716.785h-2.142l-.716-.785h-2.857v1.576l.716.785v.784l-1.432 1.576v1.576l.716.785h.716l.716.784h.709l.716.785h.716v.791l1.432 1.569.71-.785v-.784l1.432-1.576zm-25.723 33.046l-.717-.791v-.785l.717-.784.716.784h2.141v-4.721l.716.785v1.576h1.425l1.432-1.576h.716l.709.791h.717l.716-.791v-.785h.716l2.857-3.144h.716l.709.784h.716l.716.785v3.151h-.716v1.569h.716l.716-.784h.71v.784l-.71.792v.784l-.716.785h-.716v.791l-.716.785-.709.784-2.148 2.361h-.716l-.709.791h-4.29l-.716.785h-2.857l-.716-.785-.709-.791v-.785h.709v-.784l-.709-.792-.716-.784v-.785z"/></g><path d="M453.195 26.827h-117v73" stroke="#000" stroke-dasharray="2 2"/><path d="M7.035 15.827H8.44V12.82h1.854v-1.278H8.44V3.46H6.82L.681 11.65l.18 1.17h6.174v3.006zm-4.752-4.284l4.752-6.39v6.39H2.283zm12.328 4.5c.522 0 .954-.45.954-.99a.972.972 0 0 0-.954-.954c-.558 0-.99.45-.99.954 0 .54.432.99.99.99zm8.842 0c2.574 0 4.302-1.494 4.302-3.564 0-1.782-1.404-2.7-2.664-2.988 1.278-.378 2.394-1.314 2.394-2.898 0-1.98-1.728-3.348-4.086-3.348-1.926 0-3.294.936-4.23 2.178l.936.846c.882-1.062 1.854-1.746 3.222-1.746 1.548 0 2.736.936 2.736 2.232 0 1.404-1.242 2.196-2.898 2.178l-1.332-.018v1.296h1.314c1.944 0 3.186.738 3.186 2.196 0 1.404-1.152 2.358-2.88 2.358-1.512 0-2.718-.72-3.528-1.764l-.972.918c.9 1.188 2.466 2.124 4.5 2.124zm10.333-6.498c1.692 0 2.88-1.35 2.88-3.096 0-1.71-1.152-3.096-2.862-3.096-1.674 0-2.88 1.35-2.88 3.132 0 1.674 1.152 3.06 2.862 3.06zm-1.35 6.282h1.368l8.46-12.366h-1.368l-8.46 12.366zm1.368-7.254c-.99 0-1.746-.918-1.746-2.106 0-1.242.72-2.142 1.728-2.142s1.746.918 1.746 2.142c0 1.206-.72 2.106-1.728 2.106zm7.038 7.434c1.674 0 2.88-1.35 2.88-3.114 0-1.674-1.152-3.078-2.862-3.078-1.71 0-2.88 1.404-2.88 3.096 0 1.764 1.206 3.096 2.862 3.096zm.018-.972c-1.026 0-1.746-.918-1.746-2.142 0-1.17.702-2.106 1.728-2.106 1.008 0 1.746.918 1.746 2.124 0 1.224-.702 2.124-1.728 2.124zm18.133 1.008a6.687 6.687 0 0 0 4.896-2.142l-2.232-1.98c-.648.81-1.602 1.332-2.664 1.332-1.89 0-3.492-1.656-3.492-3.618 0-1.944 1.602-3.6 3.492-3.6 1.044 0 2.016.522 2.646 1.332l2.25-1.998a6.74 6.74 0 0 0-4.896-2.124c-3.618 0-6.66 2.916-6.66 6.39 0 3.474 3.042 6.408 6.66 6.408zm16.592-.216h3.456L74.145 3.46H70.69l-4.896 12.366h3.456l.756-1.89h4.824l.756 1.89zm-4.662-4.212l1.494-3.798 1.494 3.798h-2.988zm10.91 4.212h3.079V8.519l5.4 7.308h3.06V3.46h-3.06v7.308l-5.4-7.308h-3.078v12.366zm24.134 0h3.456L104.527 3.46h-3.456l-4.896 12.366h3.456l.756-1.89h4.824l.756 1.89zm-4.662-4.212l1.494-3.798 1.494 3.798h-2.988zm10.911 4.212h4.518c4.248 0 7.254-2.574 7.254-6.192 0-3.618-3.006-6.174-7.254-6.174h-4.518v12.366zm3.078-2.79V6.25h1.908c2.124 0 3.618 1.404 3.618 3.384s-1.494 3.402-3.618 3.402h-1.908zm20.598 2.79h3.456L134.452 3.46h-3.456L126.1 15.827h3.456l.756-1.89h4.824l.756 1.89zm-4.662-4.212l1.494-3.798 1.494 3.798h-2.988z" fill="#5C2CFF"/><path d="M7.035 15.827H8.44V12.82h1.854v-1.278H8.44V3.46H6.82L.681 11.65l.18 1.17h6.174v3.006zm-4.752-4.284l4.752-6.39v6.39H2.283zm12.328 4.5c.522 0 .954-.45.954-.99a.972.972 0 0 0-.954-.954c-.558 0-.99.45-.99.954 0 .54.432.99.99.99zm8.842 0c2.574 0 4.302-1.494 4.302-3.564 0-1.782-1.404-2.7-2.664-2.988 1.278-.378 2.394-1.314 2.394-2.898 0-1.98-1.728-3.348-4.086-3.348-1.926 0-3.294.936-4.23 2.178l.936.846c.882-1.062 1.854-1.746 3.222-1.746 1.548 0 2.736.936 2.736 2.232 0 1.404-1.242 2.196-2.898 2.178l-1.332-.018v1.296h1.314c1.944 0 3.186.738 3.186 2.196 0 1.404-1.152 2.358-2.88 2.358-1.512 0-2.718-.72-3.528-1.764l-.972.918c.9 1.188 2.466 2.124 4.5 2.124zm10.333-6.498c1.692 0 2.88-1.35 2.88-3.096 0-1.71-1.152-3.096-2.862-3.096-1.674 0-2.88 1.35-2.88 3.132 0 1.674 1.152 3.06 2.862 3.06zm-1.35 6.282h1.368l8.46-12.366h-1.368l-8.46 12.366zm1.368-7.254c-.99 0-1.746-.918-1.746-2.106 0-1.242.72-2.142 1.728-2.142s1.746.918 1.746 2.142c0 1.206-.72 2.106-1.728 2.106zm7.038 7.434c1.674 0 2.88-1.35 2.88-3.114 0-1.674-1.152-3.078-2.862-3.078-1.71 0-2.88 1.404-2.88 3.096 0 1.764 1.206 3.096 2.862 3.096zm.018-.972c-1.026 0-1.746-.918-1.746-2.142 0-1.17.702-2.106 1.728-2.106 1.008 0 1.746.918 1.746 2.124 0 1.224-.702 2.124-1.728 2.124zm18.133 1.008a6.687 6.687 0 0 0 4.896-2.142l-2.232-1.98c-.648.81-1.602 1.332-2.664 1.332-1.89 0-3.492-1.656-3.492-3.618 0-1.944 1.602-3.6 3.492-3.6 1.044 0 2.016.522 2.646 1.332l2.25-1.998a6.74 6.74 0 0 0-4.896-2.124c-3.618 0-6.66 2.916-6.66 6.39 0 3.474 3.042 6.408 6.66 6.408zm16.592-.216h3.456L74.145 3.46H70.69l-4.896 12.366h3.456l.756-1.89h4.824l.756 1.89zm-4.662-4.212l1.494-3.798 1.494 3.798h-2.988zm10.91 4.212h3.079V8.519l5.4 7.308h3.06V3.46h-3.06v7.308l-5.4-7.308h-3.078v12.366zm24.134 0h3.456L104.527 3.46h-3.456l-4.896 12.366h3.456l.756-1.89h4.824l.756 1.89zm-4.662-4.212l1.494-3.798 1.494 3.798h-2.988zm10.911 4.212h4.518c4.248 0 7.254-2.574 7.254-6.192 0-3.618-3.006-6.174-7.254-6.174h-4.518v12.366zm3.078-2.79V6.25h1.908c2.124 0 3.618 1.404 3.618 3.384s-1.494 3.402-3.618 3.402h-1.908zm20.598 2.79h3.456L134.452 3.46h-3.456L126.1 15.827h3.456l.756-1.89h4.824l.756 1.89zm-4.662-4.212l1.494-3.798 1.494 3.798h-2.988z" fill="#000" fill-opacity=".2"/><path d="M.195 26.827h165v58m-161 63h147v-41" stroke="#000" stroke-dasharray="2 2"/><ellipse cx="163.267" cy="84.906" rx="7.079" ry="7.071" transform="rotate(90 163.267 84.906)" fill="#5C2CFF"/><ellipse cx="163.267" cy="84.906" rx="7.079" ry="7.071" transform="rotate(90 163.267 84.906)" fill="#000" fill-opacity=".2"/><path d="M339.327 15.827h1.404V3.46h-1.134l-3.042 2.07.612 1.044 2.16-1.404v10.656zm10.25-7.722c-1.458 0-2.736.702-3.492 1.89v-.162c0-2.97 1.566-5.31 3.546-5.31 1.188 0 1.998.54 2.772 1.296l.774-1.098c-.918-.882-1.998-1.476-3.51-1.476-2.808 0-5.004 2.898-5.004 6.588 0 3.492 1.35 6.21 4.698 6.21 2.574 0 4.356-1.8 4.356-4.086 0-2.448-1.89-3.852-4.14-3.852zm-.234 6.732c-1.728 0-2.736-1.35-3.096-3.222.306-1.368 1.512-2.304 3.078-2.304 1.656 0 2.97 1.026 2.97 2.718 0 1.368-1.098 2.808-2.952 2.808zm9.112 1.206c.522 0 .954-.45.954-.99a.972.972 0 0 0-.954-.954c-.558 0-.99.45-.99.954 0 .54.432.99.99.99zm9.382 0c2.538 0 4.518-1.35 4.518-3.456 0-1.548-1.224-2.646-2.718-3.15 1.278-.468 2.412-1.386 2.412-2.898 0-2.034-1.998-3.294-4.212-3.294-2.142 0-4.194 1.224-4.194 3.276 0 1.422 1.008 2.376 2.412 2.916-1.512.486-2.736 1.602-2.736 3.15 0 2.088 1.962 3.456 4.518 3.456zm0-7.164c-1.17-.072-2.772-.774-2.772-2.214 0-1.242 1.224-2.142 2.772-2.142 1.548 0 2.79.9 2.79 2.142 0 1.404-1.584 2.142-2.79 2.214zm0 5.886c-1.71 0-3.096-.918-3.096-2.268 0-1.494 1.818-2.358 3.096-2.394 1.296.036 3.096.9 3.096 2.394 0 1.35-1.386 2.268-3.096 2.268zm10.495-5.22c1.692 0 2.88-1.35 2.88-3.096 0-1.71-1.152-3.096-2.862-3.096-1.674 0-2.88 1.35-2.88 3.132 0 1.674 1.152 3.06 2.862 3.06zm-1.35 6.282h1.368l8.46-12.366h-1.368l-8.46 12.366zm1.368-7.254c-.99 0-1.746-.918-1.746-2.106 0-1.242.72-2.142 1.728-2.142s1.746.918 1.746 2.142c0 1.206-.72 2.106-1.728 2.106zm7.038 7.434c1.674 0 2.88-1.35 2.88-3.114 0-1.674-1.152-3.078-2.862-3.078-1.71 0-2.88 1.404-2.88 3.096 0 1.764 1.206 3.096 2.862 3.096zm.018-.972c-1.026 0-1.746-.918-1.746-2.142 0-1.17.702-2.106 1.728-2.106 1.008 0 1.746.918 1.746 2.124 0 1.224-.702 2.124-1.728 2.124zm12.209.792h3.078V3.46h-3.078v12.366zm6.859 0h3.078V8.519l5.4 7.308h3.06V3.46h-3.06v7.308l-5.4-7.308h-3.078v12.366zm15.332 0h4.518c4.248 0 7.254-2.574 7.254-6.192 0-3.618-3.006-6.174-7.254-6.174h-4.518v12.366zm3.078-2.79V6.25h1.908c2.124 0 3.618 1.404 3.618 3.384s-1.494 3.402-3.618 3.402h-1.908zm11.797 2.79h3.078V3.46h-3.078v12.366zm15.661 0h3.456L448.902 3.46h-3.456l-4.896 12.366h3.456l.756-1.89h4.824l.756 1.89zm-4.662-4.212l1.494-3.798 1.494 3.798h-2.988z" fill="#5C2CFF"/><path d="M339.327 15.827h1.404V3.46h-1.134l-3.042 2.07.612 1.044 2.16-1.404v10.656zm10.25-7.722c-1.458 0-2.736.702-3.492 1.89v-.162c0-2.97 1.566-5.31 3.546-5.31 1.188 0 1.998.54 2.772 1.296l.774-1.098c-.918-.882-1.998-1.476-3.51-1.476-2.808 0-5.004 2.898-5.004 6.588 0 3.492 1.35 6.21 4.698 6.21 2.574 0 4.356-1.8 4.356-4.086 0-2.448-1.89-3.852-4.14-3.852zm-.234 6.732c-1.728 0-2.736-1.35-3.096-3.222.306-1.368 1.512-2.304 3.078-2.304 1.656 0 2.97 1.026 2.97 2.718 0 1.368-1.098 2.808-2.952 2.808zm9.112 1.206c.522 0 .954-.45.954-.99a.972.972 0 0 0-.954-.954c-.558 0-.99.45-.99.954 0 .54.432.99.99.99zm9.382 0c2.538 0 4.518-1.35 4.518-3.456 0-1.548-1.224-2.646-2.718-3.15 1.278-.468 2.412-1.386 2.412-2.898 0-2.034-1.998-3.294-4.212-3.294-2.142 0-4.194 1.224-4.194 3.276 0 1.422 1.008 2.376 2.412 2.916-1.512.486-2.736 1.602-2.736 3.15 0 2.088 1.962 3.456 4.518 3.456zm0-7.164c-1.17-.072-2.772-.774-2.772-2.214 0-1.242 1.224-2.142 2.772-2.142 1.548 0 2.79.9 2.79 2.142 0 1.404-1.584 2.142-2.79 2.214zm0 5.886c-1.71 0-3.096-.918-3.096-2.268 0-1.494 1.818-2.358 3.096-2.394 1.296.036 3.096.9 3.096 2.394 0 1.35-1.386 2.268-3.096 2.268zm10.495-5.22c1.692 0 2.88-1.35 2.88-3.096 0-1.71-1.152-3.096-2.862-3.096-1.674 0-2.88 1.35-2.88 3.132 0 1.674 1.152 3.06 2.862 3.06zm-1.35 6.282h1.368l8.46-12.366h-1.368l-8.46 12.366zm1.368-7.254c-.99 0-1.746-.918-1.746-2.106 0-1.242.72-2.142 1.728-2.142s1.746.918 1.746 2.142c0 1.206-.72 2.106-1.728 2.106zm7.038 7.434c1.674 0 2.88-1.35 2.88-3.114 0-1.674-1.152-3.078-2.862-3.078-1.71 0-2.88 1.404-2.88 3.096 0 1.764 1.206 3.096 2.862 3.096zm.018-.972c-1.026 0-1.746-.918-1.746-2.142 0-1.17.702-2.106 1.728-2.106 1.008 0 1.746.918 1.746 2.124 0 1.224-.702 2.124-1.728 2.124zm12.209.792h3.078V3.46h-3.078v12.366zm6.859 0h3.078V8.519l5.4 7.308h3.06V3.46h-3.06v7.308l-5.4-7.308h-3.078v12.366zm15.332 0h4.518c4.248 0 7.254-2.574 7.254-6.192 0-3.618-3.006-6.174-7.254-6.174h-4.518v12.366zm3.078-2.79V6.25h1.908c2.124 0 3.618 1.404 3.618 3.384s-1.494 3.402-3.618 3.402h-1.908zm11.797 2.79h3.078V3.46h-3.078v12.366zm15.661 0h3.456L448.902 3.46h-3.456l-4.896 12.366h3.456l.756-1.89h4.824l.756 1.89zm-4.662-4.212l1.494-3.798 1.494 3.798h-2.988z" fill="#000" fill-opacity=".2"/><ellipse cx="337.274" cy="100.898" rx="7.079" ry="7.071" transform="rotate(-180 337.274 100.898)" fill="#5C2CFF"/><ellipse cx="337.274" cy="100.898" rx="7.079" ry="7.071" transform="rotate(-180 337.274 100.898)" fill="#000" fill-opacity=".2"/><path d="M147.267 112.985c-3.905 0-7.071-3.17-7.071-7.079 0-3.91 3.166-7.08 7.071-7.08s7.071 3.17 7.071 7.08c0 3.909-3.166 7.079-7.071 7.079z" fill="#5C2CFF"/><path d="M147.267 112.985c-3.905 0-7.071-3.17-7.071-7.079 0-3.91 3.166-7.08 7.071-7.08s7.071 3.17 7.071 7.08c0 3.909-3.166 7.079-7.071 7.079z" fill="#000" fill-opacity=".2"/><path d="M11.035 140.827h1.404v-3.006h1.854v-1.278H12.44v-8.082h-1.62l-6.138 8.19.18 1.17h6.174v3.006zm-4.752-4.284l4.752-6.39v6.39H6.283zm14.74 4.5c2.538 0 4.392-1.62 4.392-4.068 0-2.448-1.854-3.852-4.086-3.852-1.134 0-1.98.378-2.646.828l.126-4.158h5.94v-1.332h-7.308l-.18 6.354 1.026.504c.774-.576 1.692-.954 2.754-.954 1.728 0 2.952 1.08 2.952 2.664 0 1.566-1.206 2.754-2.916 2.754-1.368 0-2.538-.684-3.492-1.728l-.918 1.026c1.008 1.152 2.448 1.962 4.356 1.962zm9.158 0c.522 0 .954-.45.954-.99a.972.972 0 0 0-.954-.954c-.558 0-.99.45-.99.954 0 .54.432.99.99.99zm9.85-7.938c-1.458 0-2.736.702-3.492 1.89v-.162c0-2.97 1.566-5.31 3.546-5.31 1.188 0 1.998.54 2.772 1.296l.774-1.098c-.918-.882-1.998-1.476-3.51-1.476-2.808 0-5.004 2.898-5.004 6.588 0 3.492 1.35 6.21 4.698 6.21 2.574 0 4.356-1.8 4.356-4.086 0-2.448-1.89-3.852-4.14-3.852zm-.234 6.732c-1.728 0-2.736-1.35-3.096-3.222.306-1.368 1.512-2.304 3.078-2.304 1.656 0 2.97 1.026 2.97 2.718 0 1.368-1.098 2.808-2.952 2.808zm10.174-5.292c1.692 0 2.88-1.35 2.88-3.096 0-1.71-1.152-3.096-2.862-3.096-1.674 0-2.88 1.35-2.88 3.132 0 1.674 1.152 3.06 2.862 3.06zm-1.35 6.282h1.368l8.46-12.366h-1.368l-8.46 12.366zm1.368-7.254c-.99 0-1.746-.918-1.746-2.106 0-1.242.72-2.142 1.728-2.142s1.746.918 1.746 2.142c0 1.206-.72 2.106-1.728 2.106zm7.038 7.434c1.674 0 2.88-1.35 2.88-3.114 0-1.674-1.152-3.078-2.862-3.078-1.71 0-2.88 1.404-2.88 3.096 0 1.764 1.206 3.096 2.862 3.096zm.018-.972c-1.026 0-1.746-.918-1.746-2.142 0-1.17.702-2.106 1.728-2.106 1.008 0 1.746.918 1.746 2.124 0 1.224-.702 2.124-1.728 2.124zm17.681 1.008c3.384 0 5.742-2.322 5.742-5.634v-6.948h-3.06v6.804c0 1.746-1.116 2.988-2.682 2.988-1.548 0-2.664-1.242-2.664-2.988v-6.804h-3.078v6.948c0 3.312 2.376 5.634 5.742 5.634zm14.104 0c3.06 0 4.95-1.548 4.95-4.032 0-2.322-1.782-3.114-4.554-3.708-1.836-.396-2.43-.648-2.43-1.404 0-.612.558-1.08 1.548-1.08 1.152 0 2.394.45 3.528 1.314l1.566-2.196c-1.314-1.08-2.934-1.692-5.022-1.692-2.808 0-4.716 1.584-4.716 3.96 0 2.484 1.962 3.204 4.608 3.798 1.8.432 2.376.594 2.376 1.332 0 .666-.594 1.134-1.746 1.134-1.512 0-2.862-.576-4.068-1.566l-1.746 2.07c1.512 1.35 3.51 2.07 5.706 2.07zm16.831-.216h3.456l-4.896-12.366h-3.456l-4.896 12.366h3.456l.756-1.89h4.824l.756 1.89zm-4.662-4.212l1.494-3.798 1.494 3.798h-2.988z" fill="#5C2CFF"/><path d="M11.035 140.827h1.404v-3.006h1.854v-1.278H12.44v-8.082h-1.62l-6.138 8.19.18 1.17h6.174v3.006zm-4.752-4.284l4.752-6.39v6.39H6.283zm14.74 4.5c2.538 0 4.392-1.62 4.392-4.068 0-2.448-1.854-3.852-4.086-3.852-1.134 0-1.98.378-2.646.828l.126-4.158h5.94v-1.332h-7.308l-.18 6.354 1.026.504c.774-.576 1.692-.954 2.754-.954 1.728 0 2.952 1.08 2.952 2.664 0 1.566-1.206 2.754-2.916 2.754-1.368 0-2.538-.684-3.492-1.728l-.918 1.026c1.008 1.152 2.448 1.962 4.356 1.962zm9.158 0c.522 0 .954-.45.954-.99a.972.972 0 0 0-.954-.954c-.558 0-.99.45-.99.954 0 .54.432.99.99.99zm9.85-7.938c-1.458 0-2.736.702-3.492 1.89v-.162c0-2.97 1.566-5.31 3.546-5.31 1.188 0 1.998.54 2.772 1.296l.774-1.098c-.918-.882-1.998-1.476-3.51-1.476-2.808 0-5.004 2.898-5.004 6.588 0 3.492 1.35 6.21 4.698 6.21 2.574 0 4.356-1.8 4.356-4.086 0-2.448-1.89-3.852-4.14-3.852zm-.234 6.732c-1.728 0-2.736-1.35-3.096-3.222.306-1.368 1.512-2.304 3.078-2.304 1.656 0 2.97 1.026 2.97 2.718 0 1.368-1.098 2.808-2.952 2.808zm10.174-5.292c1.692 0 2.88-1.35 2.88-3.096 0-1.71-1.152-3.096-2.862-3.096-1.674 0-2.88 1.35-2.88 3.132 0 1.674 1.152 3.06 2.862 3.06zm-1.35 6.282h1.368l8.46-12.366h-1.368l-8.46 12.366zm1.368-7.254c-.99 0-1.746-.918-1.746-2.106 0-1.242.72-2.142 1.728-2.142s1.746.918 1.746 2.142c0 1.206-.72 2.106-1.728 2.106zm7.038 7.434c1.674 0 2.88-1.35 2.88-3.114 0-1.674-1.152-3.078-2.862-3.078-1.71 0-2.88 1.404-2.88 3.096 0 1.764 1.206 3.096 2.862 3.096zm.018-.972c-1.026 0-1.746-.918-1.746-2.142 0-1.17.702-2.106 1.728-2.106 1.008 0 1.746.918 1.746 2.124 0 1.224-.702 2.124-1.728 2.124zm17.681 1.008c3.384 0 5.742-2.322 5.742-5.634v-6.948h-3.06v6.804c0 1.746-1.116 2.988-2.682 2.988-1.548 0-2.664-1.242-2.664-2.988v-6.804h-3.078v6.948c0 3.312 2.376 5.634 5.742 5.634zm14.104 0c3.06 0 4.95-1.548 4.95-4.032 0-2.322-1.782-3.114-4.554-3.708-1.836-.396-2.43-.648-2.43-1.404 0-.612.558-1.08 1.548-1.08 1.152 0 2.394.45 3.528 1.314l1.566-2.196c-1.314-1.08-2.934-1.692-5.022-1.692-2.808 0-4.716 1.584-4.716 3.96 0 2.484 1.962 3.204 4.608 3.798 1.8.432 2.376.594 2.376 1.332 0 .666-.594 1.134-1.746 1.134-1.512 0-2.862-.576-4.068-1.566l-1.746 2.07c1.512 1.35 3.51 2.07 5.706 2.07zm16.831-.216h3.456l-4.896-12.366h-3.456l-4.896 12.366h3.456l.756-1.89h4.824l.756 1.89zm-4.662-4.212l1.494-3.798 1.494 3.798h-2.988z" fill="#000" fill-opacity=".2"/><defs><clipPath id="clip0_2190_1070"><path fill="#fff" transform="translate(72.195 34.827)" d="M0 0H388V166H0z"/></clipPath></defs></svg>