<svg fill="none" height="452" viewBox="0 0 790 452" width="790" xmlns="http://www.w3.org/2000/svg" xmlns:xlink="http://www.w3.org/1999/xlink"><mask id="a" height="361" maskUnits="userSpaceOnUse" width="785" x="3" y="44"><path d="m4.09631 404.428s.94238-15.922 4.93325-17.137c3.99084-1.215 18.75344 0 22.47574 0 3.7222 0 14.7917-1.88 18.5012-1.962s9.4435-1.185 13.2937-1.471 10.4155-1.513 14.2529-1.962c3.8374-.45 9.8417-.808 13.7047-1.472 3.8629-.664 7.1264.562 10.9642 0 3.942-.562 5.321.186 9.319 0 3.991-.184 4.908-.49 8.771-.49 3.832.233 10.969-5.39 14.801-5.623 4.051-.722 7.625 3.352 11.512 2.189 2.193-4.414-1.645-.29 2.193-1.076 3.837-.786 4.78-1.326 8.771-2.357 3.99-1.032 7.356-1.707 10.963-2.943 8.223-3.924 19.908-4.915 23.572-5.886 3.914-.943 1.455.069 5.482-.49 3.838-.552 4.386-.962 8.223-1.962 4.211-1.309 7.245-1.875 10.964-3.924 3.837-1.93 5.482-2.781 9.319-4.905 6.03-7.358 8.63-5.417 12.608-7.358 3.095-11.728 13.705-6.601 17.542-7.847 3.838-1.246 9.868-4.487 13.705-5.886s10.275-3.813 14.253-6.377c3.978-2.563 5.474-11.438 10.416-3.923 3.281-9.029 21.536-14.381 8.222-3.924 9.476-12.91 5.438-2.594 9.32-3.924 3.834-1.576 2.696-.758 6.03-2.943 3.594-2.288 6.004-4.6 9.867-7.358 3.863-2.757 7.126-5.591 10.964-8.338 3.837-2.747 7.534-5.54 11.512-8.338s11.879-4.029 16.445-8.339c4.567-4.309 11.103-9.638 15.35-14.224 4.246-4.585 7.497-8.779 10.963-12.262 3.467-3.482 9.886-8.258 12.061-10.3 2.174-2.043 3.294-5.039 5.481-6.867 2.188-1.828 9.727-10.802 13.705-12.262 3.978-1.461 12.113 2.492 15.349 1.471 3.237-1.021 5.71-.203 8.933-2.951 2.031-4.406 6.111-8.015 9.706-10.782 3.594-2.768 7.534-5.571 11.512-8.339 3.978-2.767 13.933-6.727 18.41-10.628 4.477-3.902 9.043-9.304 13.43-13.461 4.388-4.156 12.574-11.111 16.629-14.012 4.055-2.9 8.071-3.972 11.934-7.302 3.863-3.329 7.675-9.304 11.512-12.898 3.524-3.355 7.525-6.372 11.922-8.988 3.425-2.094 7.339-3.621 11.512-4.493 3.837-.654 7.969 2.716 11.947.561 3.978-2.154 8.212-9.906 11.934-13.47 3.723-3.564 7.432-7.067 11.154-8.977s8.084-1.696 11.947-2.237c3.79-.64 7.642-1.019 11.512-1.133 3.838 0 8.085 1.317 11.922 1.133s7.675-1.603 11.512-2.247c3.837-.643 7.956-1.317 11.947-1.685 3.991-.367 8.071 1.113 11.934-.572 3.863-1.6847 7.675-7.0668 11.513-9.5281 3.837-2.4613 8.084-3.4927 11.921-5.6579 3.837-2.1651 7.675-6.5361 11.512-7.2918 3.837-.7558 7.969 3.0638 11.947 2.8391s8.34-2.8391 11.922-4.5038c3.581-1.6647 7.188-4.5447 10.783-6.1277 3.795-1.6397 7.795-2.9575 11.934-3.9319 3.748-.897 7.609-1.4621 11.512-1.6851 3.837-.1838 8.084 3.8502 11.947.5719s11.512-20.2008 11.512-20.2008v358.4671z" fill="#5c2cff"/></mask><g clip-rule="evenodd" fill-rule="evenodd" mask="url(#a)"><path d="m687.104 445.099-700.6662-615.876.9008-.791 700.6664 615.875z" fill="#5c2cff"/><path d="m687.104 445.099-700.6662-615.876.9008-.791 700.6664 615.875z" fill="#000" fill-opacity=".2"/><path d="m320.21 445.099-700.666-615.876.9-.791 700.667 615.875z" fill="#5c2cff"/><path d="m320.21 445.099-700.666-615.876.9-.791 700.667 615.875z" fill="#000" fill-opacity=".2"/><path d="m1054 445.099-700.668-615.876.901-.791 700.667 615.875z" fill="#5c2cff"/><path d="m1054 445.099-700.668-615.876.901-.791 700.667 615.875z" fill="#000" fill-opacity=".2"/><path d="m136.762 445.099-700.667-615.876.901-.791 700.667 615.875z" fill="#5c2cff"/><path d="m136.762 445.099-700.667-615.876.901-.791 700.667 615.875z" fill="#000" fill-opacity=".2"/><path d="m870.553 445.099-700.667-615.876.901-.791 700.667 615.875z" fill="#5c2cff"/><path d="m870.553 445.099-700.667-615.876.901-.791 700.667 615.875z" fill="#000" fill-opacity=".2"/><path d="m503.657 445.099-700.667-615.876.901-.791 700.667 615.876z" fill="#5c2cff"/><path d="m503.657 445.099-700.667-615.876.901-.791 700.667 615.876z" fill="#000" fill-opacity=".2"/><path d="m1237.45 445.099-700.67-615.876.901-.791 700.669 615.876z" fill="#5c2cff"/><path d="m1237.45 445.099-700.67-615.876.901-.791 700.669 615.876z" fill="#000" fill-opacity=".2"/><path d="m45.0387 445.099-700.6667-615.876.901-.791 700.6665 615.875z" fill="#5c2cff"/><path d="m45.0387 445.099-700.6667-615.876.901-.791 700.6665 615.875z" fill="#000" fill-opacity=".2"/><path d="m778.829 445.099-700.6671-615.876.9008-.791 700.6663 615.875z" fill="#5c2cff"/><path d="m778.829 445.099-700.6671-615.876.9008-.791 700.6663 615.875z" fill="#000" fill-opacity=".2"/><path d="m411.933 445.099-700.666-615.876.901-.791 700.666 615.876z" fill="#5c2cff"/><path d="m411.933 445.099-700.666-615.876.901-.791 700.666 615.876z" fill="#000" fill-opacity=".2"/><path d="m1145.72 445.099-700.664-615.876.9-.791 700.664 615.875z" fill="#5c2cff"/><path d="m1145.72 445.099-700.664-615.876.9-.791 700.664 615.875z" fill="#000" fill-opacity=".2"/><path d="m228.487 445.099-700.666-615.876.9-.791 700.667 615.875z" fill="#5c2cff"/><path d="m228.487 445.099-700.666-615.876.9-.791 700.667 615.875z" fill="#000" fill-opacity=".2"/><path d="m962.275 445.099-700.667-615.876.901-.791 700.667 615.875z" fill="#5c2cff"/><path d="m962.275 445.099-700.667-615.876.901-.791 700.667 615.875z" fill="#000" fill-opacity=".2"/><path d="m595.381 445.099-700.667-615.876.901-.791 700.667 615.875z" fill="#5c2cff"/><path d="m595.381 445.099-700.667-615.876.901-.791 700.667 615.875z" fill="#000" fill-opacity=".2"/><path d="m1329.17 445.099-700.666-615.876.901-.791 700.665 615.875z" fill="#5c2cff"/><path d="m1329.17 445.099-700.666-615.876.901-.791 700.665 615.875z" fill="#000" fill-opacity=".2"/><path d="m732.967 445.099-700.6664-615.876.9008-.791 700.6666 615.875z" fill="#5c2cff"/><path d="m732.967 445.099-700.6664-615.876.9008-.791 700.6666 615.875z" fill="#000" fill-opacity=".2"/><path d="m366.071 445.099-700.667-615.876.901-.791 700.667 615.876z" fill="#5c2cff"/><path d="m366.071 445.099-700.667-615.876.901-.791 700.667 615.876z" fill="#000" fill-opacity=".2"/><path d="m1099.86 445.099-700.667-615.876.901-.791 700.666 615.875z" fill="#5c2cff"/><path d="m1099.86 445.099-700.667-615.876.901-.791 700.666 615.875z" fill="#000" fill-opacity=".2"/><path d="m182.625 445.099-700.666-615.876.9-.791 700.667 615.875z" fill="#5c2cff"/><path d="m182.625 445.099-700.666-615.876.9-.791 700.667 615.875z" fill="#000" fill-opacity=".2"/><path d="m916.414 445.099-700.667-615.876.901-.791 700.667 615.875z" fill="#5c2cff"/><path d="m916.414 445.099-700.667-615.876.901-.791 700.667 615.875z" fill="#000" fill-opacity=".2"/><path d="m549.519 445.099-700.667-615.876.901-.791 700.667 615.875z" fill="#5c2cff"/><path d="m549.519 445.099-700.667-615.876.901-.791 700.667 615.875z" fill="#000" fill-opacity=".2"/><path d="m1283.31 445.099-700.668-615.876.901-.791 700.667 615.876z" fill="#5c2cff"/><path d="m1283.31 445.099-700.668-615.876.901-.791 700.667 615.876z" fill="#000" fill-opacity=".2"/><path d="m90.9009 445.099-700.6669-615.876.901-.791 700.6667 615.875z" fill="#5c2cff"/><path d="m90.9009 445.099-700.6669-615.876.901-.791 700.6667 615.875z" fill="#000" fill-opacity=".2"/><path d="m824.69 445.099-700.667-615.876.901-.791 700.666 615.875z" fill="#5c2cff"/><path d="m824.69 445.099-700.667-615.876.901-.791 700.666 615.875z" fill="#000" fill-opacity=".2"/><path d="m457.796 445.099-700.667-615.876.901-.791 700.667 615.875z" fill="#5c2cff"/><path d="m457.796 445.099-700.667-615.876.901-.791 700.667 615.875z" fill="#000" fill-opacity=".2"/><path d="m1191.58 445.099-700.661-615.876.9-.791 700.671 615.876z" fill="#5c2cff"/><path d="m1191.58 445.099-700.661-615.876.9-.791 700.671 615.876z" fill="#000" fill-opacity=".2"/><path d="m274.348 445.099-700.666-615.876.901-.791 700.666 615.875z" fill="#5c2cff"/><path d="m274.348 445.099-700.666-615.876.901-.791 700.666 615.875z" fill="#000" fill-opacity=".2"/><path d="m1008.14 445.099-700.67-615.876.901-.791 700.669 615.875z" fill="#5c2cff"/><path d="m1008.14 445.099-700.67-615.876.901-.791 700.669 615.875z" fill="#000" fill-opacity=".2"/><path d="m641.243 445.099-700.6666-615.876.9008-.791 700.6668 615.875z" fill="#5c2cff"/><path d="m641.243 445.099-700.6666-615.876.9008-.791 700.6668 615.875z" fill="#000" fill-opacity=".2"/><path d="m1375.03 445.099-700.665-615.876.901-.791 700.664 615.875z" fill="#5c2cff"/><path d="m1375.03 445.099-700.665-615.876.901-.791 700.664 615.875z" fill="#000" fill-opacity=".2"/><path d="m710.036 445.099-700.66667-615.876.90077-.791 700.6669 615.875z" fill="#5c2cff"/><path d="m710.036 445.099-700.66667-615.876.90077-.791 700.6669 615.875z" fill="#000" fill-opacity=".2"/><path d="m343.141 445.099-700.667-615.876.901-.791 700.667 615.875z" fill="#5c2cff"/><path d="m343.141 445.099-700.667-615.876.901-.791 700.667 615.875z" fill="#000" fill-opacity=".2"/><path d="m1076.93 445.099-700.667-615.876.901-.791 700.666 615.875z" fill="#5c2cff"/><path d="m1076.93 445.099-700.667-615.876.901-.791 700.666 615.875z" fill="#000" fill-opacity=".2"/><path d="m159.693 445.099-700.666-615.876.9-.791 700.667 615.876z" fill="#5c2cff"/><path d="m159.693 445.099-700.666-615.876.9-.791 700.667 615.876z" fill="#000" fill-opacity=".2"/><path d="m893.482 445.099-700.666-615.876.901-.791 700.666 615.875z" fill="#5c2cff"/><path d="m893.482 445.099-700.666-615.876.901-.791 700.666 615.875z" fill="#000" fill-opacity=".2"/><path d="m526.589 445.099-700.667-615.876.901-.791 700.666 615.875z" fill="#5c2cff"/><path d="m526.589 445.099-700.667-615.876.901-.791 700.666 615.875z" fill="#000" fill-opacity=".2"/><path d="m1260.38 445.099-700.67-615.876.901-.791 700.669 615.875z" fill="#5c2cff"/><path d="m1260.38 445.099-700.67-615.876.901-.791 700.669 615.875z" fill="#000" fill-opacity=".2"/><path d="m67.9694 445.099-700.6664-615.876.901-.791 700.6662 615.875z" fill="#5c2cff"/><path d="m67.9694 445.099-700.6664-615.876.901-.791 700.6662 615.875z" fill="#000" fill-opacity=".2"/><path d="m801.76 445.099-700.666-615.876.9-.791 700.667 615.875z" fill="#5c2cff"/><path d="m801.76 445.099-700.666-615.876.9-.791 700.667 615.875z" fill="#000" fill-opacity=".2"/><path d="m434.864 445.099-700.667-615.876.901-.791 700.667 615.875z" fill="#5c2cff"/><path d="m434.864 445.099-700.667-615.876.901-.791 700.667 615.875z" fill="#000" fill-opacity=".2"/><path d="m1168.65 445.099-700.663-615.876.901-.791 700.662 615.875z" fill="#5c2cff"/><path d="m1168.65 445.099-700.663-615.876.901-.791 700.662 615.875z" fill="#000" fill-opacity=".2"/><path d="m251.418 445.099-700.667-615.876.901-.791 700.666 615.875z" fill="#5c2cff"/><path d="m251.418 445.099-700.667-615.876.901-.791 700.666 615.875z" fill="#000" fill-opacity=".2"/><path d="m985.206 445.099-700.667-615.876.901-.791 700.667 615.875z" fill="#5c2cff"/><path d="m985.206 445.099-700.667-615.876.901-.791 700.667 615.875z" fill="#000" fill-opacity=".2"/><path d="m618.312 445.099-700.6669-615.876.9008-.791 700.6671 615.875z" fill="#5c2cff"/><path d="m618.312 445.099-700.6669-615.876.9008-.791 700.6671 615.875z" fill="#000" fill-opacity=".2"/><path d="m1352.1 445.099-700.666-615.876.901-.791 700.665 615.875z" fill="#5c2cff"/><path d="m1352.1 445.099-700.666-615.876.901-.791 700.665 615.875z" fill="#000" fill-opacity=".2"/><path d="m22.1081 445.099-700.6671-615.876.901-.791 700.6669 615.875z" fill="#5c2cff"/><path d="m22.1081 445.099-700.6671-615.876.901-.791 700.6669 615.875z" fill="#000" fill-opacity=".2"/><path d="m755.897 445.099-700.6667-615.876.9008-.791 700.6669 615.875z" fill="#5c2cff"/><path d="m755.897 445.099-700.6667-615.876.9008-.791 700.6669 615.875z" fill="#000" fill-opacity=".2"/><path d="m389.003 445.099-700.667-615.876.901-.791 700.667 615.876z" fill="#5c2cff"/><path d="m389.003 445.099-700.667-615.876.901-.791 700.667 615.876z" fill="#000" fill-opacity=".2"/><path d="m1122.79 445.099-700.665-615.876.901-.791 700.664 615.875z" fill="#5c2cff"/><path d="m1122.79 445.099-700.665-615.876.901-.791 700.664 615.875z" fill="#000" fill-opacity=".2"/><path d="m205.555 445.099-700.666-615.876.901-.791 700.666 615.875z" fill="#5c2cff"/><path d="m205.555 445.099-700.666-615.876.901-.791 700.666 615.875z" fill="#000" fill-opacity=".2"/><path d="m939.345 445.099-700.666-615.876.901-.791 700.666 615.875z" fill="#5c2cff"/><path d="m939.345 445.099-700.666-615.876.901-.791 700.666 615.875z" fill="#000" fill-opacity=".2"/><path d="m572.449 445.099-700.666-615.876.901-.791 700.666 615.875z" fill="#5c2cff"/><path d="m572.449 445.099-700.666-615.876.901-.791 700.666 615.875z" fill="#000" fill-opacity=".2"/><path d="m1306.24 445.099-700.668-615.876.901-.791 700.667 615.875z" fill="#5c2cff"/><path d="m1306.24 445.099-700.668-615.876.901-.791 700.667 615.875z" fill="#000" fill-opacity=".2"/><path d="m113.831 445.099-700.666-615.876.9-.791 700.667 615.875z" fill="#5c2cff"/><path d="m113.831 445.099-700.666-615.876.9-.791 700.667 615.875z" fill="#000" fill-opacity=".2"/><path d="m847.621 445.099-700.666-615.876.9-.791 700.667 615.876z" fill="#5c2cff"/><path d="m847.621 445.099-700.666-615.876.9-.791 700.667 615.876z" fill="#000" fill-opacity=".2"/><path d="m480.726 445.099-700.666-615.876.9-.791 700.667 615.876z" fill="#5c2cff"/><path d="m480.726 445.099-700.666-615.876.9-.791 700.667 615.876z" fill="#000" fill-opacity=".2"/><path d="m1214.52 445.099-700.671-615.876.901-.791 700.67 615.876z" fill="#5c2cff"/><path d="m1214.52 445.099-700.671-615.876.901-.791 700.67 615.876z" fill="#000" fill-opacity=".2"/><path d="m297.279 445.099-700.667-615.876.901-.791 700.666 615.876z" fill="#5c2cff"/><path d="m297.279 445.099-700.667-615.876.901-.791 700.666 615.876z" fill="#000" fill-opacity=".2"/><path d="m1031.07 445.099-700.669-615.876.901-.791 700.668 615.875z" fill="#5c2cff"/><path d="m1031.07 445.099-700.669-615.876.901-.791 700.668 615.875z" fill="#000" fill-opacity=".2"/><path d="m664.175 445.099-700.6669-615.876.9008-.791 700.6671 615.875z" fill="#5c2cff"/><path d="m664.175 445.099-700.6669-615.876.9008-.791 700.6671 615.875z" fill="#000" fill-opacity=".2"/><path d="m1397.96 445.099-700.664-615.876.9-.791 700.664 615.876z" fill="#5c2cff"/><path d="m1397.96 445.099-700.664-615.876.9-.791 700.664 615.876z" fill="#000" fill-opacity=".2"/></g><g stroke-miterlimit="10"><path d="m3.0979 405h785.0001" stroke="#333"/><path d="m3.0979 318.625h784.7171" stroke="#b7b7b7" stroke-width=".5"/><path d="m3.0979 221.959h784.7171" stroke="#b7b7b7" stroke-width=".5"/><path d="m3.0979 125.291h784.7171" stroke="#b7b7b7" stroke-width=".5"/><path d="m3.0979 28.623h784.7171" stroke="#b7b7b7" stroke-width=".5"/><path d="m4 388s7.9216-5.746 11.8974-6.895c3.9757-1.149 8.1766 0 11.8823 0 3.7058 0 7.4115.08 11.1172 0 3.7058-.08 8.0566-.267 11.8974-.535 3.8407-.267 7.6665-.628 11.5073-1.055 3.8407-.428 8.0416-.976 11.8823-1.59 3.8408-.615 7.6665-1.591 11.5073-2.125 3.9384-.529 7.9042-.881 11.8824-1.056 3.9754-.173 8.0564 0 11.8974 0 3.832.214 7.675.214 11.507 0 4.016-.682 7.984-1.574 11.883-2.672 3.84-.869 7.666-1.951 11.507-2.673 3.841-.721 7.921-.614 11.897-1.59 3.976-.975 8.297-3.073 11.883-4.236 3.585-1.162 7.156-2.338 10.742-3.18 3.917-.89 7.883-1.6 11.882-2.125 3.841-.521 7.667-.107 11.507-1.055 4.137-1.217 8.12-2.816 11.883-4.771 3.84-1.831 7.681-4.356 11.507-6.36 3.826-2.005 7.937-4.009 11.897-5.84 3.961-1.831 8.057-4.169 11.883-5.345 3.825-1.176 7.681-.267 11.507-1.59s19.054-10.303 23.014-12.721c3.961-2.419 11.763-7.911 11.883-7.951s.255 0 .39 0c4.025-.86 7.992-1.922 11.882-3.18 3.767-1.468 7.365-3.258 10.742-5.345 3.586-2.165 8.057-5.88 11.898-8.486 3.841-2.605 7.666-4.81 11.492-7.416s7.937-5.839 11.897-8.485c3.961-2.646 10.743-5.465 15.333-9.541 4.591-4.076 9.587-11.612 13.818-15.901 4.231-4.29 9.197-7.844 12.648-11.131 3.45-3.288 8.191-8.7 10.352-10.61 2.16-1.911 4.351-3.047 6.526-4.771 2.176-1.724 7.922-8.686 11.882-10.062 3.961-1.376 10.623 3.114 13.818 2.111 3.196-1.002 6.391-4.837 9.587-7.416s7.156-6.387 10.742-9.006 7.922-4.824 11.883-7.43c3.96-2.606 12.392-8.017 16.878-11.665s9.002-8.793 13.413-12.722c4.41-3.928 12.527-10.503 16.503-13.242s8.041-3.755 11.882-6.895 7.667-8.793 11.507-12.187c3.584-3.223 7.571-6.07 11.883-8.485 3.519-2.019 7.416-3.458 11.507-4.249 3.841-.615 7.937 2.565 11.897.534 3.961-2.031 8.177-9.354 11.883-12.721s7.411-6.681 11.117-8.485 8.057-1.604 11.897-2.111c3.802-.607 7.648-.965 11.508-1.069 3.825 0 8.056 1.242 11.882 1.069 3.826-.174 7.666-1.51 11.507-2.125s7.922-1.243 11.898-1.59c3.976-.3477 8.041 1.055 11.882-.5347 3.841-1.5902 7.667-6.6813 11.507-9.0064 3.841-2.3251 8.057-3.3006 11.883-5.3451 3.825-2.0444 7.681-6.1735 11.507-6.8817s7.937 2.9131 11.897 2.6725c3.961-.2405 8.312-2.6725 11.883-4.2493 3.57-1.5768 7.156-4.2894 10.742-5.8261 3.823-1.5625 7.801-2.8061 11.882-3.7148 3.771-.854 7.624-1.3865 11.507-1.5901 3.841-.1737 8.057 3.6346 11.898.5345 3.84-3.1001 11.507-19.0818 11.507-19.0818" stroke="#5c2cff" stroke-linecap="round" stroke-width="8"/><path d="m4 388s7.9216-5.746 11.8974-6.895c3.9757-1.149 8.1766 0 11.8823 0 3.7058 0 7.4115.08 11.1172 0 3.7058-.08 8.0566-.267 11.8974-.535 3.8407-.267 7.6665-.628 11.5073-1.055 3.8407-.428 8.0416-.976 11.8823-1.59 3.8408-.615 7.6665-1.591 11.5073-2.125 3.9384-.529 7.9042-.881 11.8824-1.056 3.9754-.173 8.0564 0 11.8974 0 3.832.214 7.675.214 11.507 0 4.016-.682 7.984-1.574 11.883-2.672 3.84-.869 7.666-1.951 11.507-2.673 3.841-.721 7.921-.614 11.897-1.59 3.976-.975 8.297-3.073 11.883-4.236 3.585-1.162 7.156-2.338 10.742-3.18 3.917-.89 7.883-1.6 11.882-2.125 3.841-.521 7.667-.107 11.507-1.055 4.137-1.217 8.12-2.816 11.883-4.771 3.84-1.831 7.681-4.356 11.507-6.36 3.826-2.005 7.937-4.009 11.897-5.84 3.961-1.831 8.057-4.169 11.883-5.345 3.825-1.176 7.681-.267 11.507-1.59s19.054-10.303 23.014-12.721c3.961-2.419 11.763-7.911 11.883-7.951s.255 0 .39 0c4.025-.86 7.992-1.922 11.882-3.18 3.767-1.468 7.365-3.258 10.742-5.345 3.586-2.165 8.057-5.88 11.898-8.486 3.841-2.605 7.666-4.81 11.492-7.416s7.937-5.839 11.897-8.485c3.961-2.646 10.743-5.465 15.333-9.541 4.591-4.076 9.587-11.612 13.818-15.901 4.231-4.29 9.197-7.844 12.648-11.131 3.45-3.288 8.191-8.7 10.352-10.61 2.16-1.911 4.351-3.047 6.526-4.771 2.176-1.724 7.922-8.686 11.882-10.062 3.961-1.376 10.623 3.114 13.818 2.111 3.196-1.002 6.391-4.837 9.587-7.416s7.156-6.387 10.742-9.006 7.922-4.824 11.883-7.43c3.96-2.606 12.392-8.017 16.878-11.665s9.002-8.793 13.413-12.722c4.41-3.928 12.527-10.503 16.503-13.242s8.041-3.755 11.882-6.895 7.667-8.793 11.507-12.187c3.584-3.223 7.571-6.07 11.883-8.485 3.519-2.019 7.416-3.458 11.507-4.249 3.841-.615 7.937 2.565 11.897.534 3.961-2.031 8.177-9.354 11.883-12.721s7.411-6.681 11.117-8.485 8.057-1.604 11.897-2.111c3.802-.607 7.648-.965 11.508-1.069 3.825 0 8.056 1.242 11.882 1.069 3.826-.174 7.666-1.51 11.507-2.125s7.922-1.243 11.898-1.59c3.976-.3477 8.041 1.055 11.882-.5347 3.841-1.5902 7.667-6.6813 11.507-9.0064 3.841-2.3251 8.057-3.3006 11.883-5.3451 3.825-2.0444 7.681-6.1735 11.507-6.8817s7.937 2.9131 11.897 2.6725c3.961-.2405 8.312-2.6725 11.883-4.2493 3.57-1.5768 7.156-4.2894 10.742-5.8261 3.823-1.5625 7.801-2.8061 11.882-3.7148 3.771-.854 7.624-1.3865 11.507-1.5901 3.841-.1737 8.057 3.6346 11.898.5345 3.84-3.1001 11.507-19.0818 11.507-19.0818" stroke="#000" stroke-linecap="round" stroke-opacity=".2" stroke-width="8"/></g><path d="m6.92425 308.66h8.80195v-1.692h-5.92195l2.89795-2.448c2.124-1.728 2.916-3.042 2.916-4.698 0-2.25-1.836-3.744-4.14-3.744-1.96195 0-3.41995.9-4.49995 2.394l1.224 1.08c.864-1.116 1.85395-1.836 3.20395-1.836 1.224 0 2.34.792 2.34 2.142 0 1.116-.63 2.178-2.286 3.564l-4.53595 3.744zm15.19345.216c3.078 0 5.256-2.646 5.256-6.408 0-3.744-2.178-6.39-5.256-6.39-3.114 0-5.292 2.646-5.292 6.39 0 3.762 2.178 6.408 5.292 6.408zm0-1.674c-2.016 0-3.438-1.962-3.438-4.734s1.422-4.716 3.438-4.716c1.998 0 3.402 1.944 3.402 4.716s-1.404 4.734-3.402 4.734zm11.6683 1.674c3.078 0 5.256-2.646 5.256-6.408 0-3.744-2.178-6.39-5.256-6.39-3.114 0-5.292 2.646-5.292 6.39 0 3.762 2.178 6.408 5.292 6.408zm0-1.674c-2.016 0-3.438-1.962-3.438-4.734s1.422-4.716 3.438-4.716c1.998 0 3.402 1.944 3.402 4.716s-1.404 4.734-3.402 4.734z" fill="#000" fill-opacity=".7"/><path d="m13.1162 211.994h1.818v-2.844h1.782v-1.602h-1.782v-7.92h-2.16l-5.99395 8.064.198 1.458h6.13795zm-4.33795-4.446 4.33795-5.85v5.85zm13.84915 4.662c3.078 0 5.256-2.646 5.256-6.408 0-3.744-2.178-6.39-5.256-6.39-3.114 0-5.292 2.646-5.292 6.39 0 3.762 2.178 6.408 5.292 6.408zm0-1.674c-2.016 0-3.438-1.962-3.438-4.734s1.422-4.716 3.438-4.716c1.998 0 3.402 1.944 3.402 4.716s-1.404 4.734-3.402 4.734zm11.6684 1.674c3.078 0 5.256-2.646 5.256-6.408 0-3.744-2.178-6.39-5.256-6.39-3.114 0-5.292 2.646-5.292 6.39 0 3.762 2.178 6.408 5.292 6.408zm0-1.674c-2.016 0-3.438-1.962-3.438-4.734s1.422-4.716 3.438-4.716c1.998 0 3.402 1.944 3.402 4.716s-1.404 4.734-3.402 4.734z" fill="#000" fill-opacity=".7"/><path d="m12.5402 107.514c-1.35 0-2.59195.594-3.34795 1.62.072-2.718 1.47595-4.752 3.34795-4.752 1.134 0 1.926.486 2.682 1.188l.936-1.404c-.936-.846-2.07-1.422-3.6-1.422-3.00595 0-5.21995 2.844-5.21995 6.588 0 3.528 1.44 6.21 4.87795 6.21 2.61 0 4.482-1.782 4.482-4.158 0-2.448-1.89-3.87-4.158-3.87zm-.378 6.48c-1.638 0-2.51995-1.188-2.82595-2.97.342-1.188 1.42195-1.98 2.78995-1.98 1.494 0 2.718.918 2.718 2.43 0 1.242-1.008 2.52-2.682 2.52zm10.7816 1.548c3.078 0 5.256-2.646 5.256-6.408 0-3.744-2.178-6.39-5.256-6.39-3.114 0-5.292 2.646-5.292 6.39 0 3.762 2.178 6.408 5.292 6.408zm0-1.674c-2.016 0-3.438-1.962-3.438-4.734s1.422-4.716 3.438-4.716c1.998 0 3.402 1.944 3.402 4.716s-1.404 4.734-3.402 4.734zm11.6684 1.674c3.078 0 5.256-2.646 5.256-6.408 0-3.744-2.178-6.39-5.256-6.39-3.114 0-5.292 2.646-5.292 6.39 0 3.762 2.178 6.408 5.292 6.408zm0-1.674c-2.016 0-3.438-1.962-3.438-4.734s1.422-4.716 3.438-4.716c1.998 0 3.402 1.944 3.402 4.716s-1.404 4.734-3.402 4.734z" fill="#000" fill-opacity=".7"/><path d="m11.9282 18.8742c2.592 0 4.662-1.332 4.662-3.474 0-1.512-1.134-2.61-2.61-3.132 1.26-.486 2.304-1.404 2.304-2.88 0-2.052-2.052-3.312-4.356-3.312-2.23195 0-4.33795 1.206-4.33795 3.312 0 1.404.954 2.34 2.304 2.88-1.476.504-2.628 1.602-2.628 3.132 0 2.124 2.052 3.474 4.66195 3.474zm0-7.29c-1.098-.072-2.51995-.72-2.51995-1.998 0-1.098 1.09795-1.908 2.51995-1.908s2.538.81 2.538 1.908c0 1.242-1.404 1.926-2.538 1.998zm0 5.688c-1.584 0-2.82595-.828-2.82595-2.034 0-1.314 1.61995-2.106 2.82595-2.142 1.224.036 2.826.828 2.826 2.142 0 1.206-1.242 2.034-2.826 2.034zm11.0684 1.602c3.078 0 5.256-2.646 5.256-6.408 0-3.744-2.178-6.39-5.256-6.39-3.114 0-5.292 2.646-5.292 6.39 0 3.762 2.178 6.408 5.292 6.408zm0-1.674c-2.016 0-3.438-1.962-3.438-4.734s1.422-4.716 3.438-4.716c1.998 0 3.402 1.944 3.402 4.716s-1.404 4.734-3.402 4.734zm11.6683 1.674c3.078 0 5.256-2.646 5.256-6.408 0-3.744-2.178-6.39-5.256-6.39-3.114 0-5.292 2.646-5.292 6.39 0 3.762 2.178 6.408 5.292 6.408zm0-1.674c-2.016 0-3.438-1.962-3.438-4.734s1.422-4.716 3.438-4.716c1.998 0 3.402 1.944 3.402 4.716s-1.404 4.734-3.402 4.734z" fill="#000" fill-opacity=".7"/><path d="m3.58634 443.002h9.08996v-2.052h-5.59796l2.592-2.088c2.12396-1.638 2.87996-2.952 2.87996-4.59 0-2.286-1.872-3.852-4.31996-3.852-1.998 0-3.492.882-4.662 2.412l1.458 1.35c.9-1.08 1.836-1.746 3.132-1.746 1.116 0 2.10596.72 2.10596 1.89 0 1.008-.55796 1.944-2.12396 3.204l-4.554 3.636zm15.47506.216c3.168 0 5.418-2.646 5.418-6.408 0-3.744-2.25-6.39-5.418-6.39-3.186 0-5.418 2.646-5.418 6.39 0 3.762 2.232 6.408 5.418 6.408zm0-2.052c-1.836 0-3.132-1.8-3.132-4.356s1.296-4.338 3.132-4.338 3.114 1.782 3.114 4.338-1.278 4.356-3.114 4.356zm8.875 1.836h2.25v-12.366h-1.8l-3.474 2.358.9 1.584 2.124-1.35zm9.4905-7.902c-1.26 0-2.43.522-3.204 1.386.162-2.412 1.386-4.086 3.132-4.086 1.08 0 1.854.45 2.61 1.116l1.098-1.71c-.99-.846-2.16-1.386-3.708-1.386-3.204 0-5.454 2.79-5.454 6.606 0 3.564 1.548 6.192 5.076 6.192 2.664 0 4.608-1.764 4.608-4.212 0-2.466-1.89-3.906-4.158-3.906zm-.558 6.21c-1.494 0-2.268-1.026-2.538-2.682.36-1.026 1.296-1.692 2.502-1.692 1.35 0 2.466.81 2.466 2.16 0 1.134-.918 2.214-2.43 2.214z" fill="#5c2cff"/><path d="m3.58634 443.002h9.08996v-2.052h-5.59796l2.592-2.088c2.12396-1.638 2.87996-2.952 2.87996-4.59 0-2.286-1.872-3.852-4.31996-3.852-1.998 0-3.492.882-4.662 2.412l1.458 1.35c.9-1.08 1.836-1.746 3.132-1.746 1.116 0 2.10596.72 2.10596 1.89 0 1.008-.55796 1.944-2.12396 3.204l-4.554 3.636zm15.47506.216c3.168 0 5.418-2.646 5.418-6.408 0-3.744-2.25-6.39-5.418-6.39-3.186 0-5.418 2.646-5.418 6.39 0 3.762 2.232 6.408 5.418 6.408zm0-2.052c-1.836 0-3.132-1.8-3.132-4.356s1.296-4.338 3.132-4.338 3.114 1.782 3.114 4.338-1.278 4.356-3.114 4.356zm8.875 1.836h2.25v-12.366h-1.8l-3.474 2.358.9 1.584 2.124-1.35zm9.4905-7.902c-1.26 0-2.43.522-3.204 1.386.162-2.412 1.386-4.086 3.132-4.086 1.08 0 1.854.45 2.61 1.116l1.098-1.71c-.99-.846-2.16-1.386-3.708-1.386-3.204 0-5.454 2.79-5.454 6.606 0 3.564 1.548 6.192 5.076 6.192 2.664 0 4.608-1.764 4.608-4.212 0-2.466-1.89-3.906-4.158-3.906zm-.558 6.21c-1.494 0-2.268-1.026-2.538-2.682.36-1.026 1.296-1.692 2.502-1.692 1.35 0 2.466.81 2.466 2.16 0 1.134-.918 2.214-2.43 2.214z" fill="#000" fill-opacity=".2"/><path d="m132.936 443h9.09v-2.052h-5.598l2.592-2.088c2.124-1.638 2.88-2.952 2.88-4.59 0-2.286-1.872-3.852-4.32-3.852-1.998 0-3.492.882-4.662 2.412l1.458 1.35c.9-1.08 1.836-1.746 3.132-1.746 1.116 0 2.106.72 2.106 1.89 0 1.008-.558 1.944-2.124 3.204l-4.554 3.636zm15.475.216c3.168 0 5.418-2.646 5.418-6.408 0-3.744-2.25-6.39-5.418-6.39-3.186 0-5.418 2.646-5.418 6.39 0 3.762 2.232 6.408 5.418 6.408zm0-2.052c-1.836 0-3.132-1.8-3.132-4.356s1.296-4.338 3.132-4.338 3.114 1.782 3.114 4.338-1.278 4.356-3.114 4.356zm8.875 1.836h2.25v-12.366h-1.8l-3.474 2.358.9 1.584 2.124-1.35zm4.739 0h2.556l5.094-10.674v-1.692h-8.928v2.052h6.318z" fill="#5c2cff"/><path d="m132.936 443h9.09v-2.052h-5.598l2.592-2.088c2.124-1.638 2.88-2.952 2.88-4.59 0-2.286-1.872-3.852-4.32-3.852-1.998 0-3.492.882-4.662 2.412l1.458 1.35c.9-1.08 1.836-1.746 3.132-1.746 1.116 0 2.106.72 2.106 1.89 0 1.008-.558 1.944-2.124 3.204l-4.554 3.636zm15.475.216c3.168 0 5.418-2.646 5.418-6.408 0-3.744-2.25-6.39-5.418-6.39-3.186 0-5.418 2.646-5.418 6.39 0 3.762 2.232 6.408 5.418 6.408zm0-2.052c-1.836 0-3.132-1.8-3.132-4.356s1.296-4.338 3.132-4.338 3.114 1.782 3.114 4.338-1.278 4.356-3.114 4.356zm8.875 1.836h2.25v-12.366h-1.8l-3.474 2.358.9 1.584 2.124-1.35zm4.739 0h2.556l5.094-10.674v-1.692h-8.928v2.052h6.318z" fill="#000" fill-opacity=".2"/><path d="m260.286 443h9.09v-2.052h-5.598l2.592-2.088c2.124-1.638 2.88-2.952 2.88-4.59 0-2.286-1.872-3.852-4.32-3.852-1.998 0-3.492.882-4.662 2.412l1.458 1.35c.9-1.08 1.836-1.746 3.132-1.746 1.116 0 2.106.72 2.106 1.89 0 1.008-.558 1.944-2.124 3.204l-4.554 3.636zm15.475.216c3.168 0 5.418-2.646 5.418-6.408 0-3.744-2.25-6.39-5.418-6.39-3.186 0-5.418 2.646-5.418 6.39 0 3.762 2.232 6.408 5.418 6.408zm0-2.052c-1.836 0-3.132-1.8-3.132-4.356s1.296-4.338 3.132-4.338 3.114 1.782 3.114 4.338-1.278 4.356-3.114 4.356zm8.875 1.836h2.25v-12.366h-1.8l-3.474 2.358.9 1.584 2.124-1.35zm8.716.216c2.664 0 4.824-1.296 4.824-3.51 0-1.458-1.062-2.538-2.52-3.096 1.242-.504 2.196-1.422 2.196-2.862 0-2.088-2.106-3.33-4.5-3.33-2.322 0-4.482 1.206-4.482 3.33 0 1.404.918 2.322 2.196 2.862-1.44.522-2.52 1.602-2.52 3.096 0 2.196 2.124 3.51 4.806 3.51zm0-7.416c-1.026-.054-2.268-.666-2.268-1.764 0-.972.972-1.71 2.268-1.71s2.286.738 2.286 1.71c0 1.08-1.224 1.71-2.286 1.764zm0 5.49c-1.458 0-2.556-.72-2.556-1.8 0-1.152 1.422-1.836 2.556-1.89 1.152.054 2.556.738 2.556 1.89 0 1.08-1.116 1.8-2.556 1.8z" fill="#5c2cff"/><path d="m260.286 443h9.09v-2.052h-5.598l2.592-2.088c2.124-1.638 2.88-2.952 2.88-4.59 0-2.286-1.872-3.852-4.32-3.852-1.998 0-3.492.882-4.662 2.412l1.458 1.35c.9-1.08 1.836-1.746 3.132-1.746 1.116 0 2.106.72 2.106 1.89 0 1.008-.558 1.944-2.124 3.204l-4.554 3.636zm15.475.216c3.168 0 5.418-2.646 5.418-6.408 0-3.744-2.25-6.39-5.418-6.39-3.186 0-5.418 2.646-5.418 6.39 0 3.762 2.232 6.408 5.418 6.408zm0-2.052c-1.836 0-3.132-1.8-3.132-4.356s1.296-4.338 3.132-4.338 3.114 1.782 3.114 4.338-1.278 4.356-3.114 4.356zm8.875 1.836h2.25v-12.366h-1.8l-3.474 2.358.9 1.584 2.124-1.35zm8.716.216c2.664 0 4.824-1.296 4.824-3.51 0-1.458-1.062-2.538-2.52-3.096 1.242-.504 2.196-1.422 2.196-2.862 0-2.088-2.106-3.33-4.5-3.33-2.322 0-4.482 1.206-4.482 3.33 0 1.404.918 2.322 2.196 2.862-1.44.522-2.52 1.602-2.52 3.096 0 2.196 2.124 3.51 4.806 3.51zm0-7.416c-1.026-.054-2.268-.666-2.268-1.764 0-.972.972-1.71 2.268-1.71s2.286.738 2.286 1.71c0 1.08-1.224 1.71-2.286 1.764zm0 5.49c-1.458 0-2.556-.72-2.556-1.8 0-1.152 1.422-1.836 2.556-1.89 1.152.054 2.556.738 2.556 1.89 0 1.08-1.116 1.8-2.556 1.8z" fill="#000" fill-opacity=".2"/><path d="m390.635 443h9.09v-2.052h-5.598l2.592-2.088c2.124-1.638 2.88-2.952 2.88-4.59 0-2.286-1.872-3.852-4.32-3.852-1.998 0-3.492.882-4.662 2.412l1.458 1.35c.9-1.08 1.836-1.746 3.132-1.746 1.116 0 2.106.72 2.106 1.89 0 1.008-.558 1.944-2.124 3.204l-4.554 3.636zm15.475.216c3.168 0 5.418-2.646 5.418-6.408 0-3.744-2.25-6.39-5.418-6.39-3.186 0-5.418 2.646-5.418 6.39 0 3.762 2.232 6.408 5.418 6.408zm0-2.052c-1.836 0-3.132-1.8-3.132-4.356s1.296-4.338 3.132-4.338 3.114 1.782 3.114 4.338-1.278 4.356-3.114 4.356zm8.875 1.836h2.25v-12.366h-1.8l-3.474 2.358.9 1.584 2.124-1.35zm8.393-12.582c-2.664 0-4.608 1.764-4.608 4.212 0 2.466 1.89 3.906 4.158 3.906 1.26 0 2.43-.522 3.204-1.386-.162 2.412-1.386 4.086-3.132 4.086-1.08 0-1.854-.45-2.61-1.116l-1.098 1.71c.99.846 2.16 1.386 3.708 1.386 3.204 0 5.454-2.79 5.454-6.606 0-3.564-1.548-6.192-5.076-6.192zm.144 6.282c-1.35 0-2.466-.81-2.466-2.16 0-1.134.918-2.214 2.43-2.214 1.494 0 2.268 1.026 2.538 2.682-.36 1.026-1.296 1.692-2.502 1.692z" fill="#5c2cff"/><path d="m390.635 443h9.09v-2.052h-5.598l2.592-2.088c2.124-1.638 2.88-2.952 2.88-4.59 0-2.286-1.872-3.852-4.32-3.852-1.998 0-3.492.882-4.662 2.412l1.458 1.35c.9-1.08 1.836-1.746 3.132-1.746 1.116 0 2.106.72 2.106 1.89 0 1.008-.558 1.944-2.124 3.204l-4.554 3.636zm15.475.216c3.168 0 5.418-2.646 5.418-6.408 0-3.744-2.25-6.39-5.418-6.39-3.186 0-5.418 2.646-5.418 6.39 0 3.762 2.232 6.408 5.418 6.408zm0-2.052c-1.836 0-3.132-1.8-3.132-4.356s1.296-4.338 3.132-4.338 3.114 1.782 3.114 4.338-1.278 4.356-3.114 4.356zm8.875 1.836h2.25v-12.366h-1.8l-3.474 2.358.9 1.584 2.124-1.35zm8.393-12.582c-2.664 0-4.608 1.764-4.608 4.212 0 2.466 1.89 3.906 4.158 3.906 1.26 0 2.43-.522 3.204-1.386-.162 2.412-1.386 4.086-3.132 4.086-1.08 0-1.854-.45-2.61-1.116l-1.098 1.71c.99.846 2.16 1.386 3.708 1.386 3.204 0 5.454-2.79 5.454-6.606 0-3.564-1.548-6.192-5.076-6.192zm.144 6.282c-1.35 0-2.466-.81-2.466-2.16 0-1.134.918-2.214 2.43-2.214 1.494 0 2.268 1.026 2.538 2.682-.36 1.026-1.296 1.692-2.502 1.692z" fill="#000" fill-opacity=".2"/><path d="m519.985 443h9.09v-2.052h-5.598l2.592-2.088c2.124-1.638 2.88-2.952 2.88-4.59 0-2.286-1.872-3.852-4.32-3.852-1.998 0-3.492.882-4.662 2.412l1.458 1.35c.9-1.08 1.836-1.746 3.132-1.746 1.116 0 2.106.72 2.106 1.89 0 1.008-.558 1.944-2.124 3.204l-4.554 3.636zm15.475.216c3.168 0 5.418-2.646 5.418-6.408 0-3.744-2.25-6.39-5.418-6.39-3.186 0-5.418 2.646-5.418 6.39 0 3.762 2.232 6.408 5.418 6.408zm0-2.052c-1.836 0-3.132-1.8-3.132-4.356s1.296-4.338 3.132-4.338 3.114 1.782 3.114 4.338-1.278 4.356-3.114 4.356zm6.139 1.836h9.09v-2.052h-5.598l2.592-2.088c2.124-1.638 2.88-2.952 2.88-4.59 0-2.286-1.872-3.852-4.32-3.852-1.998 0-3.492.882-4.662 2.412l1.458 1.35c.9-1.08 1.836-1.746 3.132-1.746 1.116 0 2.106.72 2.106 1.89 0 1.008-.558 1.944-2.124 3.204l-4.554 3.636zm15.475.216c3.168 0 5.418-2.646 5.418-6.408 0-3.744-2.25-6.39-5.418-6.39-3.186 0-5.418 2.646-5.418 6.39 0 3.762 2.232 6.408 5.418 6.408zm0-2.052c-1.836 0-3.132-1.8-3.132-4.356s1.296-4.338 3.132-4.338 3.114 1.782 3.114 4.338-1.278 4.356-3.114 4.356z" fill="#5c2cff"/><path d="m519.985 443h9.09v-2.052h-5.598l2.592-2.088c2.124-1.638 2.88-2.952 2.88-4.59 0-2.286-1.872-3.852-4.32-3.852-1.998 0-3.492.882-4.662 2.412l1.458 1.35c.9-1.08 1.836-1.746 3.132-1.746 1.116 0 2.106.72 2.106 1.89 0 1.008-.558 1.944-2.124 3.204l-4.554 3.636zm15.475.216c3.168 0 5.418-2.646 5.418-6.408 0-3.744-2.25-6.39-5.418-6.39-3.186 0-5.418 2.646-5.418 6.39 0 3.762 2.232 6.408 5.418 6.408zm0-2.052c-1.836 0-3.132-1.8-3.132-4.356s1.296-4.338 3.132-4.338 3.114 1.782 3.114 4.338-1.278 4.356-3.114 4.356zm6.139 1.836h9.09v-2.052h-5.598l2.592-2.088c2.124-1.638 2.88-2.952 2.88-4.59 0-2.286-1.872-3.852-4.32-3.852-1.998 0-3.492.882-4.662 2.412l1.458 1.35c.9-1.08 1.836-1.746 3.132-1.746 1.116 0 2.106.72 2.106 1.89 0 1.008-.558 1.944-2.124 3.204l-4.554 3.636zm15.475.216c3.168 0 5.418-2.646 5.418-6.408 0-3.744-2.25-6.39-5.418-6.39-3.186 0-5.418 2.646-5.418 6.39 0 3.762 2.232 6.408 5.418 6.408zm0-2.052c-1.836 0-3.132-1.8-3.132-4.356s1.296-4.338 3.132-4.338 3.114 1.782 3.114 4.338-1.278 4.356-3.114 4.356z" fill="#000" fill-opacity=".2"/><path d="m654.334 443h9.09v-2.052h-5.598l2.592-2.088c2.124-1.638 2.88-2.952 2.88-4.59 0-2.286-1.872-3.852-4.32-3.852-1.998 0-3.492.882-4.662 2.412l1.458 1.35c.9-1.08 1.836-1.746 3.132-1.746 1.116 0 2.106.72 2.106 1.89 0 1.008-.558 1.944-2.124 3.204l-4.554 3.636zm15.475.216c3.168 0 5.418-2.646 5.418-6.408 0-3.744-2.25-6.39-5.418-6.39-3.186 0-5.418 2.646-5.418 6.39 0 3.762 2.232 6.408 5.418 6.408zm0-2.052c-1.836 0-3.132-1.8-3.132-4.356s1.296-4.338 3.132-4.338 3.114 1.782 3.114 4.338-1.278 4.356-3.114 4.356zm6.139 1.836h9.09v-2.052h-5.598l2.592-2.088c2.124-1.638 2.88-2.952 2.88-4.59 0-2.286-1.872-3.852-4.32-3.852-1.998 0-3.492.882-4.662 2.412l1.458 1.35c.9-1.08 1.836-1.746 3.132-1.746 1.116 0 2.106.72 2.106 1.89 0 1.008-.558 1.944-2.124 3.204l-4.554 3.636zm12.542 0h2.25v-12.366h-1.8l-3.474 2.358.9 1.584 2.124-1.35z" fill="#5c2cff"/><path d="m654.334 443h9.09v-2.052h-5.598l2.592-2.088c2.124-1.638 2.88-2.952 2.88-4.59 0-2.286-1.872-3.852-4.32-3.852-1.998 0-3.492.882-4.662 2.412l1.458 1.35c.9-1.08 1.836-1.746 3.132-1.746 1.116 0 2.106.72 2.106 1.89 0 1.008-.558 1.944-2.124 3.204l-4.554 3.636zm15.475.216c3.168 0 5.418-2.646 5.418-6.408 0-3.744-2.25-6.39-5.418-6.39-3.186 0-5.418 2.646-5.418 6.39 0 3.762 2.232 6.408 5.418 6.408zm0-2.052c-1.836 0-3.132-1.8-3.132-4.356s1.296-4.338 3.132-4.338 3.114 1.782 3.114 4.338-1.278 4.356-3.114 4.356zm6.139 1.836h9.09v-2.052h-5.598l2.592-2.088c2.124-1.638 2.88-2.952 2.88-4.59 0-2.286-1.872-3.852-4.32-3.852-1.998 0-3.492.882-4.662 2.412l1.458 1.35c.9-1.08 1.836-1.746 3.132-1.746 1.116 0 2.106.72 2.106 1.89 0 1.008-.558 1.944-2.124 3.204l-4.554 3.636zm12.542 0h2.25v-12.366h-1.8l-3.474 2.358.9 1.584 2.124-1.35z" fill="#000" fill-opacity=".2"/></svg>