<svg fill="none" height="453" viewBox="0 0 1203 453" width="1203" xmlns="http://www.w3.org/2000/svg" xmlns:xlink="http://www.w3.org/1999/xlink"><clipPath id="a"><path d="m98 46.2754h897v386h-897z"/></clipPath><g stroke="#000"><path d="m309 452.275v-425.9996" stroke-opacity=".4"/><path d="m520 452.275v-425.9996" stroke-opacity=".4"/><path d="m731 452.275v-425.9996" stroke-opacity=".4"/><path d="m942 452.275v-425.9996" stroke-opacity=".4"/></g><path d="m302.617 18.2754h1.818v-12.36601h-1.458l-3.258 2.214.756 1.314 2.142-1.368zm8.979.216c3.078 0 5.256-2.646 5.256-6.408 0-3.74401-2.178-6.39001-5.256-6.39001-3.114 0-5.292 2.646-5.292 6.39001 0 3.762 2.178 6.408 5.292 6.408zm0-1.674c-2.016 0-3.438-1.962-3.438-4.734 0-2.77201 1.422-4.71601 3.438-4.71601 1.998 0 3.402 1.944 3.402 4.71601 0 2.772-1.404 4.734-3.402 4.734z" fill="#000" fill-opacity=".7"/><path d="m727.609 18.4914c2.682 0 4.446-1.512 4.446-3.6 0-1.728-1.35-2.664-2.628-2.952 1.296-.396 2.358-1.35 2.358-2.88001 0-1.98-1.728-3.366-4.23-3.366-2.016 0-3.42.936-4.374 2.178l1.134 1.116c.864-1.008 1.818-1.656 3.114-1.656 1.44 0 2.52.828 2.52 1.98 0 1.24201-1.098 1.92601-2.664 1.92601l-1.35-.018v1.62h1.35c1.836-.018 2.916.648 2.916 1.926 0 1.242-1.026 2.088-2.628 2.088-1.422 0-2.628-.666-3.456-1.674l-1.17 1.206c.954 1.188 2.556 2.106 4.662 2.106zm10.903 0c3.078 0 5.256-2.646 5.256-6.408 0-3.74401-2.178-6.39001-5.256-6.39001-3.114 0-5.292 2.646-5.292 6.39001 0 3.762 2.178 6.408 5.292 6.408zm0-1.674c-2.016 0-3.438-1.962-3.438-4.734 0-2.77201 1.422-4.71601 3.438-4.71601 1.998 0 3.402 1.944 3.402 4.71601 0 2.772-1.404 4.734-3.402 4.734z" fill="#000" fill-opacity=".7"/><path d="m513.196 18.2754h8.802v-1.692h-5.922l2.898-2.448c2.124-1.728 2.916-3.042 2.916-4.69801 0-2.25-1.836-3.744-4.14-3.744-1.962 0-3.42.9-4.5 2.394l1.224 1.08c.864-1.116 1.854-1.836 3.204-1.836 1.224 0 2.34.792 2.34 2.142 0 1.11601-.63 2.17801-2.286 3.56401l-4.536 3.744zm15.193.216c3.078 0 5.256-2.646 5.256-6.408 0-3.74401-2.178-6.39001-5.256-6.39001-3.114 0-5.292 2.646-5.292 6.39001 0 3.762 2.178 6.408 5.292 6.408zm0-1.674c-2.016 0-3.438-1.962-3.438-4.734 0-2.77201 1.422-4.71601 3.438-4.71601 1.998 0 3.402 1.944 3.402 4.71601 0 2.772-1.404 4.734-3.402 4.734z" fill="#000" fill-opacity=".7"/><path d="m937.133 18.2754h1.818v-2.844h1.782v-1.602h-1.782v-7.92001h-2.16l-5.994 8.06401.198 1.458h6.138zm-4.338-4.446 4.338-5.85001v5.85001zm13.849 4.662c3.078 0 5.256-2.646 5.256-6.408 0-3.74401-2.178-6.39001-5.256-6.39001-3.114 0-5.292 2.646-5.292 6.39001 0 3.762 2.178 6.408 5.292 6.408zm0-1.674c-2.016 0-3.438-1.962-3.438-4.734 0-2.77201 1.422-4.71601 3.438-4.71601 1.998 0 3.402 1.944 3.402 4.71601 0 2.772-1.404 4.734-3.402 4.734z" fill="#000" fill-opacity=".7"/><g clip-path="url(#a)"><path d="m995 430.434v-40.626-1.864h-9.149-878.702-9.149v1.864 40.626 1.841h9.149 878.702 9.149z" fill="#5c2cff"/><path d="m995 430.434v-40.626-1.864h-9.149-878.702-9.149v1.864 40.626 1.841h9.149 878.702 9.149z" fill="#000" fill-opacity=".2"/><path d="m843.992 362.096v-40.626-1.842h-9.149-727.694-9.149v1.842 40.626 1.841h9.149 727.694 9.149z" fill="#5c2cff"/><path d="m843.992 362.096v-40.626-1.842h-9.149-727.694-9.149v1.842 40.626 1.841h9.149 727.694 9.149z" fill="#000" fill-opacity=".2"/><path d="m372.594 293.758v-40.626-1.842h-9.149-256.296-9.149v1.842 40.626 1.841h9.149 256.296 9.149z" fill="#5c2cff"/><path d="m372.594 293.758v-40.626-1.842h-9.149-256.296-9.149v1.842 40.626 1.841h9.149 256.296 9.149z" fill="#000" fill-opacity=".2"/><path d="m482.432 225.419v-40.626-1.841h-9.149-366.134-9.149v1.841 40.626 1.842h9.149 366.134 9.149z" fill="#5c2cff"/><path d="m482.432 225.419v-40.626-1.841h-9.149-366.134-9.149v1.841 40.626 1.842h9.149 366.134 9.149z" fill="#000" fill-opacity=".2"/><path d="m308.526 157.081v-40.626-1.841h-9.149-192.228-9.149v1.841 40.626 1.864h9.149 192.228 9.149z" fill="#5c2cff"/><path d="m308.526 157.081v-40.626-1.841h-9.149-192.228-9.149v1.841 40.626 1.864h9.149 192.228 9.149z" fill="#000" fill-opacity=".2"/><path d="m180.366 88.7646v-40.6475-1.8417h-9.149-64.068-9.149v1.8417 40.6475 1.8417h9.149 64.068 9.149z" fill="#5c2cff"/><path d="m180.366 88.7646v-40.6475-1.8417h-9.149-64.068-9.149v1.8417 40.6475 1.8417h9.149 64.068 9.149z" fill="#000" fill-opacity=".2"/><path d="m607.28 81.2754h2.2v-7.876h4.84v-2.112h-4.84v-20.24h-2.772l-14.96 20.328.308 2.024h15.224zm-12.892-9.988 12.892-17.6v17.6z" fill="#5c2cff"/><path d="m607.28 81.2754h2.2v-7.876h4.84v-2.112h-4.84v-20.24h-2.772l-14.96 20.328.308 2.024h15.224zm-12.892-9.988 12.892-17.6v17.6z" fill="#000" fill-opacity=".2"/><path d="m598.744 150.275h2.2v-30.228h-1.76l-7.832 5.06 1.056 1.716 6.336-4.004zm22.123.528c6.996 0 11.924-6.468 11.924-15.664 0-9.152-4.928-15.62-11.924-15.62-7.04 0-11.968 6.468-11.968 15.62 0 9.196 4.928 15.664 11.968 15.664zm0-2.112c-5.72 0-9.724-5.632-9.724-13.552s4.004-13.508 9.724-13.508c5.676 0 9.68 5.588 9.68 13.508s-4.004 13.552-9.68 13.552z" fill="#5c2cff"/><path d="m598.744 150.275h2.2v-30.228h-1.76l-7.832 5.06 1.056 1.716 6.336-4.004zm22.123.528c6.996 0 11.924-6.468 11.924-15.664 0-9.152-4.928-15.62-11.924-15.62-7.04 0-11.968 6.468-11.968 15.62 0 9.196 4.928 15.664 11.968 15.664zm0-2.112c-5.72 0-9.724-5.632-9.724-13.552s4.004-13.508 9.724-13.508c5.676 0 9.68 5.588 9.68 13.508s-4.004 13.552-9.68 13.552z" fill="#000" fill-opacity=".2"/><path d="m598.744 218.275h2.2v-30.228h-1.76l-7.832 5.06 1.056 1.716 6.336-4.004zm20.627.528c5.72 0 10.428-3.608 10.428-8.36 0-3.564-2.816-6.6-6.644-7.744 3.344-1.144 5.896-3.916 5.896-7.26 0-4.488-4.488-7.92-9.68-7.92-5.148 0-9.636 3.388-9.636 7.92 0 3.256 2.464 6.028 5.852 7.26-3.828 1.1-6.644 4.18-6.644 7.744 0 4.708 4.708 8.36 10.428 8.36zm0-17.116c-4.004-.264-7.392-2.552-7.392-6.028 0-3.344 3.344-6.028 7.392-6.028s7.436 2.684 7.436 6.028c0 3.432-3.432 5.764-7.436 6.028zm0 15.004c-4.488 0-8.184-2.816-8.184-6.38 0-3.74 3.828-6.292 8.184-6.424 4.4.132 8.184 2.684 8.184 6.424 0 3.564-3.74 6.38-8.184 6.38z" fill="#5c2cff"/><path d="m598.744 218.275h2.2v-30.228h-1.76l-7.832 5.06 1.056 1.716 6.336-4.004zm20.627.528c5.72 0 10.428-3.608 10.428-8.36 0-3.564-2.816-6.6-6.644-7.744 3.344-1.144 5.896-3.916 5.896-7.26 0-4.488-4.488-7.92-9.68-7.92-5.148 0-9.636 3.388-9.636 7.92 0 3.256 2.464 6.028 5.852 7.26-3.828 1.1-6.644 4.18-6.644 7.744 0 4.708 4.708 8.36 10.428 8.36zm0-17.116c-4.004-.264-7.392-2.552-7.392-6.028 0-3.344 3.344-6.028 7.392-6.028s7.436 2.684 7.436 6.028c0 3.432-3.432 5.764-7.436 6.028zm0 15.004c-4.488 0-8.184-2.816-8.184-6.38 0-3.74 3.828-6.292 8.184-6.424 4.4.132 8.184 2.684 8.184 6.424 0 3.564-3.74 6.38-8.184 6.38z" fill="#000" fill-opacity=".2"/><path d="m598.744 287.275h2.2v-30.228h-1.76l-7.832 5.06 1.056 1.716 6.336-4.004zm19.219.528c5.544 0 9.9-3.872 9.9-8.756 0-3.916-2.552-6.512-5.896-7.26 3.08-.924 5.236-3.432 5.236-7.04 0-4.576-4.18-8.228-9.372-8.228-4.092 0-7.348 2.024-10.032 5.632l1.54 1.364c2.376-3.212 5.06-4.884 8.316-4.884 4.004 0 7.304 2.816 7.304 6.38 0 3.74-2.992 5.94-7.7 5.896h-2.948v2.112h2.904c5.236 0 8.404 2.112 8.404 5.94 0 3.784-3.344 6.732-7.656 6.732-3.784 0-6.82-1.76-9.02-4.972l-1.54 1.496c2.684 3.564 6.204 5.588 10.56 5.588z" fill="#5c2cff"/><path d="m598.744 287.275h2.2v-30.228h-1.76l-7.832 5.06 1.056 1.716 6.336-4.004zm19.219.528c5.544 0 9.9-3.872 9.9-8.756 0-3.916-2.552-6.512-5.896-7.26 3.08-.924 5.236-3.432 5.236-7.04 0-4.576-4.18-8.228-9.372-8.228-4.092 0-7.348 2.024-10.032 5.632l1.54 1.364c2.376-3.212 5.06-4.884 8.316-4.884 4.004 0 7.304 2.816 7.304 6.38 0 3.74-2.992 5.94-7.7 5.896h-2.948v2.112h2.904c5.236 0 8.404 2.112 8.404 5.94 0 3.784-3.344 6.732-7.656 6.732-3.784 0-6.82-1.76-9.02-4.972l-1.54 1.496c2.684 3.564 6.204 5.588 10.56 5.588z" fill="#000" fill-opacity=".2"/><path d="m179 67.7754h401" stroke="#000" stroke-dasharray="2 2"/><ellipse fill="#8cedc8" rx="7.07907" ry="7.07143" transform="matrix(0 1 1 0 179.071 68.3545)"/><path d="m308 136.775h272" stroke="#000" stroke-dasharray="2 2"/><circle fill="#8cedc8" r="7.08" transform="matrix(0 1 1 0 310.08 137.355)"/><path d="m482 204.775h98" stroke="#000" stroke-dasharray="2 2"/><path d="m371 273.775h209" stroke="#000" stroke-dasharray="2 2"/><g fill="#8cedc8"><circle r="7.08" transform="matrix(0 1 1 0 482.08 204.355)"/><circle r="7.08" transform="matrix(0 1 1 0 373.08 273.355)"/></g></g><path d="m.836 73.2754h11.11v-2.508h-6.842l3.168-2.552c2.596-2.002 3.52-3.608 3.52-5.61 0-2.794-2.288-4.708-5.28-4.708-2.442 0-4.268 1.078-5.698 2.948l1.782 1.65c1.1-1.32 2.244-2.134 3.828-2.134 1.364 0 2.574.88 2.574 2.31 0 1.232-.682 2.376-2.596 3.916l-5.566 4.444zm18.914.264c3.872 0 6.622-3.234 6.622-7.832 0-4.576-2.75-7.81-6.622-7.81-3.894 0-6.622 3.234-6.622 7.81 0 4.598 2.728 7.832 6.622 7.832zm0-2.508c-2.244 0-3.828-2.2-3.828-5.324s1.584-5.302 3.828-5.302 3.806 2.178 3.806 5.302-1.562 5.324-3.806 5.324zm10.8472 2.244h2.75v-15.114h-2.2l-4.246 2.882 1.1 1.936 2.596-1.65zm11.5995-9.658c-1.54 0-2.97.638-3.916 1.694.198-2.948 1.694-4.994 3.828-4.994 1.32 0 2.266.55 3.19 1.364l1.342-2.09c-1.21-1.034-2.64-1.694-4.532-1.694-3.916 0-6.666 3.41-6.666 8.074 0 4.356 1.892 7.568 6.204 7.568 3.256 0 5.632-2.156 5.632-5.148 0-3.014-2.31-4.774-5.082-4.774zm-.682 7.59c-1.826 0-2.772-1.254-3.102-3.278.44-1.254 1.584-2.068 3.058-2.068 1.65 0 3.014.99 3.014 2.64 0 1.386-1.122 2.706-2.97 2.706z" fill="#5c2cff"/><path d="m.836 73.2754h11.11v-2.508h-6.842l3.168-2.552c2.596-2.002 3.52-3.608 3.52-5.61 0-2.794-2.288-4.708-5.28-4.708-2.442 0-4.268 1.078-5.698 2.948l1.782 1.65c1.1-1.32 2.244-2.134 3.828-2.134 1.364 0 2.574.88 2.574 2.31 0 1.232-.682 2.376-2.596 3.916l-5.566 4.444zm18.914.264c3.872 0 6.622-3.234 6.622-7.832 0-4.576-2.75-7.81-6.622-7.81-3.894 0-6.622 3.234-6.622 7.81 0 4.598 2.728 7.832 6.622 7.832zm0-2.508c-2.244 0-3.828-2.2-3.828-5.324s1.584-5.302 3.828-5.302 3.806 2.178 3.806 5.302-1.562 5.324-3.806 5.324zm10.8472 2.244h2.75v-15.114h-2.2l-4.246 2.882 1.1 1.936 2.596-1.65zm11.5995-9.658c-1.54 0-2.97.638-3.916 1.694.198-2.948 1.694-4.994 3.828-4.994 1.32 0 2.266.55 3.19 1.364l1.342-2.09c-1.21-1.034-2.64-1.694-4.532-1.694-3.916 0-6.666 3.41-6.666 8.074 0 4.356 1.892 7.568 6.204 7.568 3.256 0 5.632-2.156 5.632-5.148 0-3.014-2.31-4.774-5.082-4.774zm-.682 7.59c-1.826 0-2.772-1.254-3.102-3.278.44-1.254 1.584-2.068 3.058-2.068 1.65 0 3.014.99 3.014 2.64 0 1.386-1.122 2.706-2.97 2.706z" fill="#000" fill-opacity=".2"/><path d="m.836 142.275h11.11v-2.508h-6.842l3.168-2.552c2.596-2.002 3.52-3.608 3.52-5.61 0-2.794-2.288-4.708-5.28-4.708-2.442 0-4.268 1.078-5.698 2.948l1.782 1.65c1.1-1.32 2.244-2.134 3.828-2.134 1.364 0 2.574.88 2.574 2.31 0 1.232-.682 2.376-2.596 3.916l-5.566 4.444zm18.914.264c3.872 0 6.622-3.234 6.622-7.832 0-4.576-2.75-7.81-6.622-7.81-3.894 0-6.622 3.234-6.622 7.81 0 4.598 2.728 7.832 6.622 7.832zm0-2.508c-2.244 0-3.828-2.2-3.828-5.324s1.584-5.302 3.828-5.302 3.806 2.178 3.806 5.302-1.562 5.324-3.806 5.324zm10.8472 2.244h2.75v-15.114h-2.2l-4.246 2.882 1.1 1.936 2.596-1.65zm5.7915 0h3.124l6.226-13.046v-2.068h-10.912v2.508h7.722z" fill="#5c2cff"/><path d="m.836 142.275h11.11v-2.508h-6.842l3.168-2.552c2.596-2.002 3.52-3.608 3.52-5.61 0-2.794-2.288-4.708-5.28-4.708-2.442 0-4.268 1.078-5.698 2.948l1.782 1.65c1.1-1.32 2.244-2.134 3.828-2.134 1.364 0 2.574.88 2.574 2.31 0 1.232-.682 2.376-2.596 3.916l-5.566 4.444zm18.914.264c3.872 0 6.622-3.234 6.622-7.832 0-4.576-2.75-7.81-6.622-7.81-3.894 0-6.622 3.234-6.622 7.81 0 4.598 2.728 7.832 6.622 7.832zm0-2.508c-2.244 0-3.828-2.2-3.828-5.324s1.584-5.302 3.828-5.302 3.806 2.178 3.806 5.302-1.562 5.324-3.806 5.324zm10.8472 2.244h2.75v-15.114h-2.2l-4.246 2.882 1.1 1.936 2.596-1.65zm5.7915 0h3.124l6.226-13.046v-2.068h-10.912v2.508h7.722z" fill="#000" fill-opacity=".2"/><path d="m.836 210.275h11.11v-2.508h-6.842l3.168-2.552c2.596-2.002 3.52-3.608 3.52-5.61 0-2.794-2.288-4.708-5.28-4.708-2.442 0-4.268 1.078-5.698 2.948l1.782 1.65c1.1-1.32 2.244-2.134 3.828-2.134 1.364 0 2.574.88 2.574 2.31 0 1.232-.682 2.376-2.596 3.916l-5.566 4.444zm18.914.264c3.872 0 6.622-3.234 6.622-7.832 0-4.576-2.75-7.81-6.622-7.81-3.894 0-6.622 3.234-6.622 7.81 0 4.598 2.728 7.832 6.622 7.832zm0-2.508c-2.244 0-3.828-2.2-3.828-5.324s1.584-5.302 3.828-5.302 3.806 2.178 3.806 5.302-1.562 5.324-3.806 5.324zm10.8472 2.244h2.75v-15.114h-2.2l-4.246 2.882 1.1 1.936 2.596-1.65zm10.6535.264c3.256 0 5.896-1.584 5.896-4.29 0-1.782-1.298-3.102-3.08-3.784 1.518-.616 2.684-1.738 2.684-3.498 0-2.552-2.574-4.07-5.5-4.07-2.838 0-5.478 1.474-5.478 4.07 0 1.716 1.122 2.838 2.684 3.498-1.76.638-3.08 1.958-3.08 3.784 0 2.684 2.596 4.29 5.874 4.29zm0-9.064c-1.254-.066-2.772-.814-2.772-2.156 0-1.188 1.188-2.09 2.772-2.09s2.794.902 2.794 2.09c0 1.32-1.496 2.09-2.794 2.156zm0 6.71c-1.782 0-3.124-.88-3.124-2.2 0-1.408 1.738-2.244 3.124-2.31 1.408.066 3.124.902 3.124 2.31 0 1.32-1.364 2.2-3.124 2.2z" fill="#5c2cff"/><path d="m.836 210.275h11.11v-2.508h-6.842l3.168-2.552c2.596-2.002 3.52-3.608 3.52-5.61 0-2.794-2.288-4.708-5.28-4.708-2.442 0-4.268 1.078-5.698 2.948l1.782 1.65c1.1-1.32 2.244-2.134 3.828-2.134 1.364 0 2.574.88 2.574 2.31 0 1.232-.682 2.376-2.596 3.916l-5.566 4.444zm18.914.264c3.872 0 6.622-3.234 6.622-7.832 0-4.576-2.75-7.81-6.622-7.81-3.894 0-6.622 3.234-6.622 7.81 0 4.598 2.728 7.832 6.622 7.832zm0-2.508c-2.244 0-3.828-2.2-3.828-5.324s1.584-5.302 3.828-5.302 3.806 2.178 3.806 5.302-1.562 5.324-3.806 5.324zm10.8472 2.244h2.75v-15.114h-2.2l-4.246 2.882 1.1 1.936 2.596-1.65zm10.6535.264c3.256 0 5.896-1.584 5.896-4.29 0-1.782-1.298-3.102-3.08-3.784 1.518-.616 2.684-1.738 2.684-3.498 0-2.552-2.574-4.07-5.5-4.07-2.838 0-5.478 1.474-5.478 4.07 0 1.716 1.122 2.838 2.684 3.498-1.76.638-3.08 1.958-3.08 3.784 0 2.684 2.596 4.29 5.874 4.29zm0-9.064c-1.254-.066-2.772-.814-2.772-2.156 0-1.188 1.188-2.09 2.772-2.09s2.794.902 2.794 2.09c0 1.32-1.496 2.09-2.794 2.156zm0 6.71c-1.782 0-3.124-.88-3.124-2.2 0-1.408 1.738-2.244 3.124-2.31 1.408.066 3.124.902 3.124 2.31 0 1.32-1.364 2.2-3.124 2.2z" fill="#000" fill-opacity=".2"/><path d="m.836 279.275h11.11v-2.508h-6.842l3.168-2.552c2.596-2.002 3.52-3.608 3.52-5.61 0-2.794-2.288-4.708-5.28-4.708-2.442 0-4.268 1.078-5.698 2.948l1.782 1.65c1.1-1.32 2.244-2.134 3.828-2.134 1.364 0 2.574.88 2.574 2.31 0 1.232-.682 2.376-2.596 3.916l-5.566 4.444zm18.914.264c3.872 0 6.622-3.234 6.622-7.832 0-4.576-2.75-7.81-6.622-7.81-3.894 0-6.622 3.234-6.622 7.81 0 4.598 2.728 7.832 6.622 7.832zm0-2.508c-2.244 0-3.828-2.2-3.828-5.324s1.584-5.302 3.828-5.302 3.806 2.178 3.806 5.302-1.562 5.324-3.806 5.324zm10.8472 2.244h2.75v-15.114h-2.2l-4.246 2.882 1.1 1.936 2.596-1.65zm10.2575-15.378c-3.256 0-5.632 2.156-5.632 5.148 0 3.014 2.31 4.774 5.082 4.774 1.54 0 2.97-.638 3.916-1.694-.198 2.948-1.694 4.994-3.828 4.994-1.32 0-2.266-.55-3.19-1.364l-1.342 2.09c1.21 1.034 2.64 1.694 4.532 1.694 3.916 0 6.666-3.41 6.666-8.074 0-4.356-1.892-7.568-6.204-7.568zm.176 7.678c-1.65 0-3.014-.99-3.014-2.64 0-1.386 1.122-2.706 2.97-2.706 1.826 0 2.772 1.254 3.102 3.278-.44 1.254-1.584 2.068-3.058 2.068z" fill="#5c2cff"/><path d="m.836 279.275h11.11v-2.508h-6.842l3.168-2.552c2.596-2.002 3.52-3.608 3.52-5.61 0-2.794-2.288-4.708-5.28-4.708-2.442 0-4.268 1.078-5.698 2.948l1.782 1.65c1.1-1.32 2.244-2.134 3.828-2.134 1.364 0 2.574.88 2.574 2.31 0 1.232-.682 2.376-2.596 3.916l-5.566 4.444zm18.914.264c3.872 0 6.622-3.234 6.622-7.832 0-4.576-2.75-7.81-6.622-7.81-3.894 0-6.622 3.234-6.622 7.81 0 4.598 2.728 7.832 6.622 7.832zm0-2.508c-2.244 0-3.828-2.2-3.828-5.324s1.584-5.302 3.828-5.302 3.806 2.178 3.806 5.302-1.562 5.324-3.806 5.324zm10.8472 2.244h2.75v-15.114h-2.2l-4.246 2.882 1.1 1.936 2.596-1.65zm10.2575-15.378c-3.256 0-5.632 2.156-5.632 5.148 0 3.014 2.31 4.774 5.082 4.774 1.54 0 2.97-.638 3.916-1.694-.198 2.948-1.694 4.994-3.828 4.994-1.32 0-2.266-.55-3.19-1.364l-1.342 2.09c1.21 1.034 2.64 1.694 4.532 1.694 3.916 0 6.666-3.41 6.666-8.074 0-4.356-1.892-7.568-6.204-7.568zm.176 7.678c-1.65 0-3.014-.99-3.014-2.64 0-1.386 1.122-2.706 2.97-2.706 1.826 0 2.772 1.254 3.102 3.278-.44 1.254-1.584 2.068-3.058 2.068z" fill="#000" fill-opacity=".2"/><path d="m.836 347.275h11.11v-2.508h-6.842l3.168-2.552c2.596-2.002 3.52-3.608 3.52-5.61 0-2.794-2.288-4.708-5.28-4.708-2.442 0-4.268 1.078-5.698 2.948l1.782 1.65c1.1-1.32 2.244-2.134 3.828-2.134 1.364 0 2.574.88 2.574 2.31 0 1.232-.682 2.376-2.596 3.916l-5.566 4.444zm18.914.264c3.872 0 6.622-3.234 6.622-7.832 0-4.576-2.75-7.81-6.622-7.81-3.894 0-6.622 3.234-6.622 7.81 0 4.598 2.728 7.832 6.622 7.832zm0-2.508c-2.244 0-3.828-2.2-3.828-5.324s1.584-5.302 3.828-5.302 3.806 2.178 3.806 5.302-1.562 5.324-3.806 5.324zm7.5032 2.244h11.11v-2.508h-6.842l3.168-2.552c2.596-2.002 3.52-3.608 3.52-5.61 0-2.794-2.288-4.708-5.28-4.708-2.442 0-4.268 1.078-5.698 2.948l1.782 1.65c1.1-1.32 2.244-2.134 3.828-2.134 1.364 0 2.574.88 2.574 2.31 0 1.232-.682 2.376-2.596 3.916l-5.566 4.444zm18.914.264c3.872 0 6.622-3.234 6.622-7.832 0-4.576-2.75-7.81-6.622-7.81-3.894 0-6.622 3.234-6.622 7.81 0 4.598 2.728 7.832 6.622 7.832zm0-2.508c-2.244 0-3.828-2.2-3.828-5.324s1.584-5.302 3.828-5.302 3.806 2.178 3.806 5.302-1.562 5.324-3.806 5.324z" fill="#5c2cff"/><path d="m.836 347.275h11.11v-2.508h-6.842l3.168-2.552c2.596-2.002 3.52-3.608 3.52-5.61 0-2.794-2.288-4.708-5.28-4.708-2.442 0-4.268 1.078-5.698 2.948l1.782 1.65c1.1-1.32 2.244-2.134 3.828-2.134 1.364 0 2.574.88 2.574 2.31 0 1.232-.682 2.376-2.596 3.916l-5.566 4.444zm18.914.264c3.872 0 6.622-3.234 6.622-7.832 0-4.576-2.75-7.81-6.622-7.81-3.894 0-6.622 3.234-6.622 7.81 0 4.598 2.728 7.832 6.622 7.832zm0-2.508c-2.244 0-3.828-2.2-3.828-5.324s1.584-5.302 3.828-5.302 3.806 2.178 3.806 5.302-1.562 5.324-3.806 5.324zm7.5032 2.244h11.11v-2.508h-6.842l3.168-2.552c2.596-2.002 3.52-3.608 3.52-5.61 0-2.794-2.288-4.708-5.28-4.708-2.442 0-4.268 1.078-5.698 2.948l1.782 1.65c1.1-1.32 2.244-2.134 3.828-2.134 1.364 0 2.574.88 2.574 2.31 0 1.232-.682 2.376-2.596 3.916l-5.566 4.444zm18.914.264c3.872 0 6.622-3.234 6.622-7.832 0-4.576-2.75-7.81-6.622-7.81-3.894 0-6.622 3.234-6.622 7.81 0 4.598 2.728 7.832 6.622 7.832zm0-2.508c-2.244 0-3.828-2.2-3.828-5.324s1.584-5.302 3.828-5.302 3.806 2.178 3.806 5.302-1.562 5.324-3.806 5.324z" fill="#000" fill-opacity=".2"/><path d="m.836 415.275h11.11v-2.508h-6.842l3.168-2.552c2.596-2.002 3.52-3.608 3.52-5.61 0-2.794-2.288-4.708-5.28-4.708-2.442 0-4.268 1.078-5.698 2.948l1.782 1.65c1.1-1.32 2.244-2.134 3.828-2.134 1.364 0 2.574.88 2.574 2.31 0 1.232-.682 2.376-2.596 3.916l-5.566 4.444zm18.914.264c3.872 0 6.622-3.234 6.622-7.832 0-4.576-2.75-7.81-6.622-7.81-3.894 0-6.622 3.234-6.622 7.81 0 4.598 2.728 7.832 6.622 7.832zm0-2.508c-2.244 0-3.828-2.2-3.828-5.324s1.584-5.302 3.828-5.302 3.806 2.178 3.806 5.302-1.562 5.324-3.806 5.324zm7.5032 2.244h11.11v-2.508h-6.842l3.168-2.552c2.596-2.002 3.52-3.608 3.52-5.61 0-2.794-2.288-4.708-5.28-4.708-2.442 0-4.268 1.078-5.698 2.948l1.782 1.65c1.1-1.32 2.244-2.134 3.828-2.134 1.364 0 2.574.88 2.574 2.31 0 1.232-.682 2.376-2.596 3.916l-5.566 4.444zm15.328 0h2.75v-15.114h-2.2l-4.246 2.882 1.1 1.936 2.596-1.65z" fill="#5c2cff"/><path d="m.836 415.275h11.11v-2.508h-6.842l3.168-2.552c2.596-2.002 3.52-3.608 3.52-5.61 0-2.794-2.288-4.708-5.28-4.708-2.442 0-4.268 1.078-5.698 2.948l1.782 1.65c1.1-1.32 2.244-2.134 3.828-2.134 1.364 0 2.574.88 2.574 2.31 0 1.232-.682 2.376-2.596 3.916l-5.566 4.444zm18.914.264c3.872 0 6.622-3.234 6.622-7.832 0-4.576-2.75-7.81-6.622-7.81-3.894 0-6.622 3.234-6.622 7.81 0 4.598 2.728 7.832 6.622 7.832zm0-2.508c-2.244 0-3.828-2.2-3.828-5.324s1.584-5.302 3.828-5.302 3.806 2.178 3.806 5.302-1.562 5.324-3.806 5.324zm7.5032 2.244h11.11v-2.508h-6.842l3.168-2.552c2.596-2.002 3.52-3.608 3.52-5.61 0-2.794-2.288-4.708-5.28-4.708-2.442 0-4.268 1.078-5.698 2.948l1.782 1.65c1.1-1.32 2.244-2.134 3.828-2.134 1.364 0 2.574.88 2.574 2.31 0 1.232-.682 2.376-2.596 3.916l-5.566 4.444zm15.328 0h2.75v-15.114h-2.2l-4.246 2.882 1.1 1.936 2.596-1.65z" fill="#000" fill-opacity=".2"/><path d="m98 452.275v-425.9996" stroke="#000"/><path d="m1006.74 170.275h2.96v-8.88l6.62 8.88h2.96v-13.74h-2.96v8.88l-6.62-8.88h-2.96zm27-11.08v-2.66h-10.58v13.74h10.58v-2.66h-7.62v-3.02h6.92v-2.66h-6.92v-2.74zm6.25 11.08h2.98l3.26-9.44 3.24 9.44h2.98l4.16-13.74h-3.22l-2.52 9.22-3.04-9.22h-3.22l-3.04 9.22-2.54-9.22h-3.2zm25.19 0h2.96v-4.46h3.22c3 0 5.18-1.92 5.18-4.64s-2.18-4.64-5.18-4.64h-6.18zm2.96-7.16v-3.88h2.92c1.46 0 2.46.76 2.46 1.94s-1 1.94-2.46 1.94zm22.7-1.94c0-2.72-2.18-4.64-5.18-4.64h-6.18v13.74h2.96v-4.46h1.78l3.14 4.46h3.36l-3.3-4.7c2.06-.6 3.42-2.24 3.42-4.4zm-8.4-1.94h2.92c1.46 0 2.46.76 2.46 1.94s-1 1.94-2.46 1.94h-2.92zm18.02 11.28c3.96 0 7.28-3.26 7.28-7.12s-3.32-7.1-7.28-7.1-7.32 3.24-7.32 7.1 3.36 7.12 7.32 7.12zm0-2.68c-2.32 0-4.28-2.04-4.28-4.44 0-2.38 1.96-4.42 4.28-4.42 2.3 0 4.26 2.04 4.26 4.42 0 2.4-1.96 4.44-4.26 4.44zm13.73 2.68c2.76 0 4.72-1.96 4.72-4.72v-9.26h-2.96v9.02c0 1.34-.86 2.28-2.08 2.28-.92 0-1.9-.62-2.34-1.52l-1.96 1.92c.94 1.34 2.84 2.28 4.62 2.28zm18.99-11.32v-2.66h-10.58v13.74h10.58v-2.66h-7.62v-3.02h6.92v-2.66h-6.92v-2.74zm9.75 11.32c2.08 0 3.98-.9 5.32-2.3l-2.14-1.92c-.78.92-1.92 1.54-3.18 1.54-2.32 0-4.28-2.04-4.28-4.44 0-2.38 1.96-4.42 4.28-4.42 1.24 0 2.4.62 3.18 1.54l2.14-1.92c-1.34-1.42-3.24-2.3-5.32-2.3-3.96 0-7.32 3.24-7.32 7.1s3.36 7.12 7.32 7.12zm11.28-.24h2.94v-11.08h4.3v-2.66h-11.52v2.66h4.28zm15.08.24c3.34 0 5.34-1.74 5.34-4.36 0-2.54-1.96-3.42-4.92-4.08-2.12-.48-2.96-.8-2.96-1.8 0-.82.78-1.48 2.02-1.48 1.32 0 2.7.54 3.94 1.54l1.54-2.14c-1.42-1.2-3.14-1.9-5.38-1.9-3.02 0-5.1 1.74-5.1 4.28 0 2.66 2.08 3.48 4.98 4.14 2.1.48 2.9.78 2.9 1.76 0 .86-.76 1.54-2.26 1.54-1.74 0-3.22-.68-4.52-1.8l-1.68 2.02c1.6 1.48 3.7 2.28 6.1 2.28zm-152.61 23.76h3.32l-5.6-13.74h-3.3l-5.6 13.74h3.3l.96-2.36h5.96zm-5.98-4.66 2.04-5.02 2.04 5.02zm18.45 4.9c2.08 0 3.98-.9 5.32-2.3l-2.14-1.92c-.78.92-1.92 1.54-3.18 1.54-2.32 0-4.28-2.04-4.28-4.44 0-2.38 1.96-4.42 4.28-4.42 1.24 0 2.4.62 3.18 1.54l2.14-1.92c-1.34-1.42-3.24-2.3-5.32-2.3-3.96 0-7.32 3.24-7.32 7.1s3.36 7.12 7.32 7.12zm14.6 0c2.08 0 3.98-.9 5.32-2.3l-2.14-1.92c-.78.92-1.92 1.54-3.18 1.54-2.32 0-4.28-2.04-4.28-4.44 0-2.38 1.96-4.42 4.28-4.42 1.24 0 2.4.62 3.18 1.54l2.14-1.92c-1.34-1.42-3.24-2.3-5.32-2.3-3.96 0-7.32 3.24-7.32 7.1s3.36 7.12 7.32 7.12zm18.68-11.32v-2.66h-10.58v13.74h10.58v-2.66h-7.62v-3.02h6.92v-2.66h-6.92v-2.74zm3.25 11.08h2.96v-4.46h3.22c3 0 5.18-1.92 5.18-4.64s-2.18-4.64-5.18-4.64h-6.18zm2.96-7.16v-3.88h2.92c1.46 0 2.46.76 2.46 1.94s-1 1.94-2.46 1.94zm14.53 7.16h2.94v-11.08h4.3v-2.66h-11.52v2.66h4.28zm20.57-11.08v-2.66h-10.58v13.74h10.58v-2.66h-7.62v-3.02h6.92v-2.66h-6.92v-2.74zm3.26 11.08h4.94c4.62 0 7.9-2.86 7.9-6.88s-3.28-6.86-7.9-6.86h-4.94zm2.96-2.68v-8.38h2.36c2.62 0 4.48 1.74 4.48 4.18 0 2.46-1.86 4.2-4.48 4.2zm18.78 2.68h7.24c2.62 0 4.5-1.52 4.5-3.72 0-1.52-.92-2.8-2.52-3.52 1.22-.64 1.92-1.66 1.92-3.06 0-2-1.72-3.44-4.18-3.44h-6.96zm2.94-8.2v-3.02h3.3c1.1 0 1.88.64 1.88 1.5 0 .88-.78 1.52-1.88 1.52zm0 5.68v-3.36h3.74c1.2 0 2.04.7 2.04 1.68s-.84 1.68-2.04 1.68zm15.99 2.52h2.98v-4.96l5.36-8.78h-3.3l-3.56 6.02-3.42-6.02h-3.44l5.38 8.78zm-134.43 24.24c2.08 0 3.98-.9 5.32-2.3l-2.14-1.92c-.78.92-1.92 1.54-3.18 1.54-2.32 0-4.28-2.04-4.28-4.44 0-2.38 1.96-4.42 4.28-4.42 1.24 0 2.4.62 3.18 1.54l2.14-1.92c-1.34-1.42-3.24-2.3-5.32-2.3-3.96 0-7.32 3.24-7.32 7.1s3.36 7.12 7.32 7.12zm8.1-.24h2.96v-8.88l6.62 8.88h2.96v-13.74h-2.96v8.88l-6.62-8.88h-2.96zm22.91.24c2.08 0 3.98-.9 5.32-2.3l-2.14-1.92c-.78.92-1.92 1.54-3.18 1.54-2.32 0-4.28-2.04-4.28-4.44 0-2.38 1.96-4.42 4.28-4.42 1.24 0 2.4.62 3.18 1.54l2.14-1.92c-1.34-1.42-3.24-2.3-5.32-2.3-3.96 0-7.32 3.24-7.32 7.1s3.36 7.12 7.32 7.12zm18.68-11.32v-2.66h-10.58v13.74h2.96v-5.44h6.92v-2.66h-6.92v-2.98zm11.98 11.08h2.94v-11.08h4.3v-2.66h-11.52v2.66h4.28zm16.49.24c3.96 0 7.28-3.26 7.28-7.12s-3.32-7.1-7.28-7.1-7.32 3.24-7.32 7.1 3.36 7.12 7.32 7.12zm0-2.68c-2.32 0-4.28-2.04-4.28-4.44 0-2.38 1.96-4.42 4.28-4.42 2.3 0 4.26 2.04 4.26 4.42 0 2.4-1.96 4.44-4.26 4.44zm16.87 2.68c2.08 0 3.98-.9 5.32-2.3l-2.14-1.92c-.78.92-1.92 1.54-3.18 1.54-2.32 0-4.28-2.04-4.28-4.44 0-2.38 1.96-4.42 4.28-4.42 1.24 0 2.4.62 3.18 1.54l2.14-1.92c-1.34-1.42-3.24-2.3-5.32-2.3-3.96 0-7.32 3.24-7.32 7.1s3.36 7.12 7.32 7.12zm13.02-.24h10.38v-2.66h-5.82l2.5-1.94c2.4-1.74 3.2-3.16 3.2-5 0-2.58-2.12-4.38-5.04-4.38-2.22 0-3.96.96-5.32 2.68l1.88 1.82c1-1.14 2.02-1.82 3.36-1.82 1.12 0 2.08.68 2.08 1.82 0 .96-.52 1.86-2.16 3.16l-5.06 3.92zm18.95.24c3.62 0 6.16-2.94 6.16-7.12 0-4.16-2.54-7.1-6.16-7.1s-6.18 2.94-6.18 7.1c0 4.18 2.56 7.12 6.18 7.12zm0-2.68c-1.84 0-3.14-1.86-3.14-4.44s1.3-4.42 3.14-4.42 3.14 1.84 3.14 4.42-1.3 4.44-3.14 4.44zm8.34 2.44h10.38v-2.66h-5.82l2.5-1.94c2.4-1.74 3.2-3.16 3.2-5 0-2.58-2.12-4.38-5.04-4.38-2.22 0-3.96.96-5.32 2.68l1.88 1.82c1-1.14 2.02-1.82 3.36-1.82 1.12 0 2.08.68 2.08 1.82 0 .96-.52 1.86-2.16 3.16l-5.06 3.92zm15.79 0h2.94v-13.74h-2.36l-4.12 2.76 1.2 2.08 2.34-1.46z" fill="#5c2cff"/><path d="m1006.74 170.275h2.96v-8.88l6.62 8.88h2.96v-13.74h-2.96v8.88l-6.62-8.88h-2.96zm27-11.08v-2.66h-10.58v13.74h10.58v-2.66h-7.62v-3.02h6.92v-2.66h-6.92v-2.74zm6.25 11.08h2.98l3.26-9.44 3.24 9.44h2.98l4.16-13.74h-3.22l-2.52 9.22-3.04-9.22h-3.22l-3.04 9.22-2.54-9.22h-3.2zm25.19 0h2.96v-4.46h3.22c3 0 5.18-1.92 5.18-4.64s-2.18-4.64-5.18-4.64h-6.18zm2.96-7.16v-3.88h2.92c1.46 0 2.46.76 2.46 1.94s-1 1.94-2.46 1.94zm22.7-1.94c0-2.72-2.18-4.64-5.18-4.64h-6.18v13.74h2.96v-4.46h1.78l3.14 4.46h3.36l-3.3-4.7c2.06-.6 3.42-2.24 3.42-4.4zm-8.4-1.94h2.92c1.46 0 2.46.76 2.46 1.94s-1 1.94-2.46 1.94h-2.92zm18.02 11.28c3.96 0 7.28-3.26 7.28-7.12s-3.32-7.1-7.28-7.1-7.32 3.24-7.32 7.1 3.36 7.12 7.32 7.12zm0-2.68c-2.32 0-4.28-2.04-4.28-4.44 0-2.38 1.96-4.42 4.28-4.42 2.3 0 4.26 2.04 4.26 4.42 0 2.4-1.96 4.44-4.26 4.44zm13.73 2.68c2.76 0 4.72-1.96 4.72-4.72v-9.26h-2.96v9.02c0 1.34-.86 2.28-2.08 2.28-.92 0-1.9-.62-2.34-1.52l-1.96 1.92c.94 1.34 2.84 2.28 4.62 2.28zm18.99-11.32v-2.66h-10.58v13.74h10.58v-2.66h-7.62v-3.02h6.92v-2.66h-6.92v-2.74zm9.75 11.32c2.08 0 3.98-.9 5.32-2.3l-2.14-1.92c-.78.92-1.92 1.54-3.18 1.54-2.32 0-4.28-2.04-4.28-4.44 0-2.38 1.96-4.42 4.28-4.42 1.24 0 2.4.62 3.18 1.54l2.14-1.92c-1.34-1.42-3.24-2.3-5.32-2.3-3.96 0-7.32 3.24-7.32 7.1s3.36 7.12 7.32 7.12zm11.28-.24h2.94v-11.08h4.3v-2.66h-11.52v2.66h4.28zm15.08.24c3.34 0 5.34-1.74 5.34-4.36 0-2.54-1.96-3.42-4.92-4.08-2.12-.48-2.96-.8-2.96-1.8 0-.82.78-1.48 2.02-1.48 1.32 0 2.7.54 3.94 1.54l1.54-2.14c-1.42-1.2-3.14-1.9-5.38-1.9-3.02 0-5.1 1.74-5.1 4.28 0 2.66 2.08 3.48 4.98 4.14 2.1.48 2.9.78 2.9 1.76 0 .86-.76 1.54-2.26 1.54-1.74 0-3.22-.68-4.52-1.8l-1.68 2.02c1.6 1.48 3.7 2.28 6.1 2.28zm-152.61 23.76h3.32l-5.6-13.74h-3.3l-5.6 13.74h3.3l.96-2.36h5.96zm-5.98-4.66 2.04-5.02 2.04 5.02zm18.45 4.9c2.08 0 3.98-.9 5.32-2.3l-2.14-1.92c-.78.92-1.92 1.54-3.18 1.54-2.32 0-4.28-2.04-4.28-4.44 0-2.38 1.96-4.42 4.28-4.42 1.24 0 2.4.62 3.18 1.54l2.14-1.92c-1.34-1.42-3.24-2.3-5.32-2.3-3.96 0-7.32 3.24-7.32 7.1s3.36 7.12 7.32 7.12zm14.6 0c2.08 0 3.98-.9 5.32-2.3l-2.14-1.92c-.78.92-1.92 1.54-3.18 1.54-2.32 0-4.28-2.04-4.28-4.44 0-2.38 1.96-4.42 4.28-4.42 1.24 0 2.4.62 3.18 1.54l2.14-1.92c-1.34-1.42-3.24-2.3-5.32-2.3-3.96 0-7.32 3.24-7.32 7.1s3.36 7.12 7.32 7.12zm18.68-11.32v-2.66h-10.58v13.74h10.58v-2.66h-7.62v-3.02h6.92v-2.66h-6.92v-2.74zm3.25 11.08h2.96v-4.46h3.22c3 0 5.18-1.92 5.18-4.64s-2.18-4.64-5.18-4.64h-6.18zm2.96-7.16v-3.88h2.92c1.46 0 2.46.76 2.46 1.94s-1 1.94-2.46 1.94zm14.53 7.16h2.94v-11.08h4.3v-2.66h-11.52v2.66h4.28zm20.57-11.08v-2.66h-10.58v13.74h10.58v-2.66h-7.62v-3.02h6.92v-2.66h-6.92v-2.74zm3.26 11.08h4.94c4.62 0 7.9-2.86 7.9-6.88s-3.28-6.86-7.9-6.86h-4.94zm2.96-2.68v-8.38h2.36c2.62 0 4.48 1.74 4.48 4.18 0 2.46-1.86 4.2-4.48 4.2zm18.78 2.68h7.24c2.62 0 4.5-1.52 4.5-3.72 0-1.52-.92-2.8-2.52-3.52 1.22-.64 1.92-1.66 1.92-3.06 0-2-1.72-3.44-4.18-3.44h-6.96zm2.94-8.2v-3.02h3.3c1.1 0 1.88.64 1.88 1.5 0 .88-.78 1.52-1.88 1.52zm0 5.68v-3.36h3.74c1.2 0 2.04.7 2.04 1.68s-.84 1.68-2.04 1.68zm15.99 2.52h2.98v-4.96l5.36-8.78h-3.3l-3.56 6.02-3.42-6.02h-3.44l5.38 8.78zm-134.43 24.24c2.08 0 3.98-.9 5.32-2.3l-2.14-1.92c-.78.92-1.92 1.54-3.18 1.54-2.32 0-4.28-2.04-4.28-4.44 0-2.38 1.96-4.42 4.28-4.42 1.24 0 2.4.62 3.18 1.54l2.14-1.92c-1.34-1.42-3.24-2.3-5.32-2.3-3.96 0-7.32 3.24-7.32 7.1s3.36 7.12 7.32 7.12zm8.1-.24h2.96v-8.88l6.62 8.88h2.96v-13.74h-2.96v8.88l-6.62-8.88h-2.96zm22.91.24c2.08 0 3.98-.9 5.32-2.3l-2.14-1.92c-.78.92-1.92 1.54-3.18 1.54-2.32 0-4.28-2.04-4.28-4.44 0-2.38 1.96-4.42 4.28-4.42 1.24 0 2.4.62 3.18 1.54l2.14-1.92c-1.34-1.42-3.24-2.3-5.32-2.3-3.96 0-7.32 3.24-7.32 7.1s3.36 7.12 7.32 7.12zm18.68-11.32v-2.66h-10.58v13.74h2.96v-5.44h6.92v-2.66h-6.92v-2.98zm11.98 11.08h2.94v-11.08h4.3v-2.66h-11.52v2.66h4.28zm16.49.24c3.96 0 7.28-3.26 7.28-7.12s-3.32-7.1-7.28-7.1-7.32 3.24-7.32 7.1 3.36 7.12 7.32 7.12zm0-2.68c-2.32 0-4.28-2.04-4.28-4.44 0-2.38 1.96-4.42 4.28-4.42 2.3 0 4.26 2.04 4.26 4.42 0 2.4-1.96 4.44-4.26 4.44zm16.87 2.68c2.08 0 3.98-.9 5.32-2.3l-2.14-1.92c-.78.92-1.92 1.54-3.18 1.54-2.32 0-4.28-2.04-4.28-4.44 0-2.38 1.96-4.42 4.28-4.42 1.24 0 2.4.62 3.18 1.54l2.14-1.92c-1.34-1.42-3.24-2.3-5.32-2.3-3.96 0-7.32 3.24-7.32 7.1s3.36 7.12 7.32 7.12zm13.02-.24h10.38v-2.66h-5.82l2.5-1.94c2.4-1.74 3.2-3.16 3.2-5 0-2.58-2.12-4.38-5.04-4.38-2.22 0-3.96.96-5.32 2.68l1.88 1.82c1-1.14 2.02-1.82 3.36-1.82 1.12 0 2.08.68 2.08 1.82 0 .96-.52 1.86-2.16 3.16l-5.06 3.92zm18.95.24c3.62 0 6.16-2.94 6.16-7.12 0-4.16-2.54-7.1-6.16-7.1s-6.18 2.94-6.18 7.1c0 4.18 2.56 7.12 6.18 7.12zm0-2.68c-1.84 0-3.14-1.86-3.14-4.44s1.3-4.42 3.14-4.42 3.14 1.84 3.14 4.42-1.3 4.44-3.14 4.44zm8.34 2.44h10.38v-2.66h-5.82l2.5-1.94c2.4-1.74 3.2-3.16 3.2-5 0-2.58-2.12-4.38-5.04-4.38-2.22 0-3.96.96-5.32 2.68l1.88 1.82c1-1.14 2.02-1.82 3.36-1.82 1.12 0 2.08.68 2.08 1.82 0 .96-.52 1.86-2.16 3.16l-5.06 3.92zm15.79 0h2.94v-13.74h-2.36l-4.12 2.76 1.2 2.08 2.34-1.46z" fill="#000" fill-opacity=".2"/><path d="m1004.92 357.803c5.55 0 9.9-3.872 9.9-8.756 0-3.916-2.55-6.512-5.89-7.26 3.08-.924 5.23-3.432 5.23-7.04 0-4.576-4.18-8.228-9.37-8.228-4.09 0-7.346 2.024-10.03 5.632l1.54 1.364c2.376-3.212 5.06-4.884 8.32-4.884 4 0 7.3 2.816 7.3 6.38 0 3.74-2.99 5.94-7.7 5.896h-2.95v2.112h2.91c5.23 0 8.4 2.112 8.4 5.94 0 3.784-3.34 6.732-7.66 6.732-3.78 0-6.816-1.76-9.016-4.972l-1.54 1.496c2.684 3.564 6.206 5.588 10.556 5.588zm26.16 0c5.58 0 10.03-4.356 10.03-9.944 0-5.236-4.31-9.108-9.46-9.108-2.77 0-5.28.88-7 2.244l.31-11.792h14.87v-2.156h-17.03l-.39 15.312 1.89.968c2.07-1.584 4.49-2.508 6.86-2.508 4.32 0 7.75 3.168 7.75 7.172 0 4.268-3.48 7.744-7.79 7.744-3.56 0-6.91-1.672-9.33-4.356l-1.45 1.628c2.6 2.948 6.42 4.796 10.74 4.796z" fill="#5c2cff"/><path d="m1004.92 357.803c5.55 0 9.9-3.872 9.9-8.756 0-3.916-2.55-6.512-5.89-7.26 3.08-.924 5.23-3.432 5.23-7.04 0-4.576-4.18-8.228-9.37-8.228-4.09 0-7.346 2.024-10.03 5.632l1.54 1.364c2.376-3.212 5.06-4.884 8.32-4.884 4 0 7.3 2.816 7.3 6.38 0 3.74-2.99 5.94-7.7 5.896h-2.95v2.112h2.91c5.23 0 8.4 2.112 8.4 5.94 0 3.784-3.34 6.732-7.66 6.732-3.78 0-6.816-1.76-9.016-4.972l-1.54 1.496c2.684 3.564 6.206 5.588 10.556 5.588zm26.16 0c5.58 0 10.03-4.356 10.03-9.944 0-5.236-4.31-9.108-9.46-9.108-2.77 0-5.28.88-7 2.244l.31-11.792h14.87v-2.156h-17.03l-.39 15.312 1.89.968c2.07-1.584 4.49-2.508 6.86-2.508 4.32 0 7.75 3.168 7.75 7.172 0 4.268-3.48 7.744-7.79 7.744-3.56 0-6.91-1.672-9.33-4.356l-1.45 1.628c2.6 2.948 6.42 4.796 10.74 4.796z" fill="#000" fill-opacity=".2"/><path d="m1031.6 133.275h4v-14.32h8.8v-3.84h-8.8v-36.7996h-5.04l-27.2 36.9596.56 3.68h27.68zm-23.44-18.16 23.44-31.9996v31.9996zm40.93 18.16h37.36v-3.92h-31.36l17.6-15.04c8.64-7.44 12.64-13.92 12.64-20.8796 0-8.88-7.04-16.08-16.88-16.08-7.28 0-14.08 3.52-18.88 10.56l2.96 2.4c4.24-5.92 9.84-9.28 15.92-9.28 7.6 0 12.88 5.76 12.88 12.48 0 5.44-3.36 11.1996-11.28 17.9996l-20.96 17.92z" fill="#5c2cff"/><path d="m1031.6 133.275h4v-14.32h8.8v-3.84h-8.8v-36.7996h-5.04l-27.2 36.9596.56 3.68h27.68zm-23.44-18.16 23.44-31.9996v31.9996zm40.93 18.16h37.36v-3.92h-31.36l17.6-15.04c8.64-7.44 12.64-13.92 12.64-20.8796 0-8.88-7.04-16.08-16.88-16.08-7.28 0-14.08 3.52-18.88 10.56l2.96 2.4c4.24-5.92 9.84-9.28 15.92-9.28 7.6 0 12.88 5.76 12.88 12.48 0 5.44-3.36 11.1996-11.28 17.9996l-20.96 17.92z" fill="#000" fill-opacity=".2"/><path d="m846 343.775h139" stroke="#000" stroke-dasharray="2 2"/><path d="m996 408.775h102" stroke="#000" stroke-dasharray="2 2"/><path d="m1098 239.275v170" stroke="#000" stroke-dasharray="2 2"/><circle fill="#8cedc8" r="7.08" transform="matrix(0 1 1 0 844.08 343.355)"/><circle fill="#8cedc8" r="7.08" transform="matrix(0 1 1 0 995.08 409.355)"/></svg>