<svg width="51" height="76" viewBox="0 0 51 76" fill="none" xmlns="http://www.w3.org/2000/svg">
<path d="M34.0348 4.36087C32.8767 3.19629 31.499 2.27301 29.9816 1.64449C28.4642 1.01597 26.8372 0.694695 25.1948 0.699273C23.5528 0.694421 21.9262 1.01558 20.4092 1.64413C18.8923 2.27268 17.5152 3.1961 16.3579 4.36087C15.1933 5.51897 14.27 6.89659 13.6414 8.41396C13.0129 9.93134 12.6916 11.5583 12.6962 13.2007V38.2159C12.6939 39.8552 13.0163 41.4787 13.6448 42.9928C14.2733 44.5068 15.1954 45.8814 16.3579 47.0372C17.5152 48.202 18.8923 49.1254 20.4092 49.7539C21.9262 50.3825 23.5528 50.7036 25.1948 50.6988C26.8372 50.7034 28.4642 50.3821 29.9816 49.7536C31.499 49.1251 32.8767 48.2018 34.0348 47.0372C35.1962 45.8807 36.1174 44.506 36.7453 42.992C37.3732 41.4781 37.6954 39.8549 37.6934 38.2159V13.2162C37.6999 11.5715 37.3799 9.94185 36.7519 8.42177C36.1238 6.90168 35.2003 5.52137 34.0348 4.36087ZM31.4441 38.2159C31.4463 39.0328 31.2873 39.8421 30.976 40.5974C30.6647 41.3527 30.2074 42.0391 29.6303 42.6173C29.052 43.2007 28.3633 43.6632 27.6045 43.9777C26.8456 44.2923 26.0317 44.4527 25.2103 44.4496C24.389 44.4517 23.5754 44.2908 22.8167 43.9763C22.058 43.6618 21.3692 43.1998 20.7903 42.6173C20.2075 42.0417 19.7445 41.3564 19.4279 40.601C19.1113 39.8456 18.9473 39.035 18.9455 38.2159V13.2162C18.943 12.3951 19.1034 11.5817 19.4174 10.823C19.7314 10.0643 20.1928 9.37544 20.7748 8.79626C21.3533 8.21243 22.0418 7.74906 22.8004 7.43295C23.5591 7.11685 24.3729 6.95427 25.1948 6.95463C26.0182 6.95003 26.8344 7.10909 27.5958 7.42259C28.3572 7.73608 29.0488 8.19775 29.6303 8.78078C30.2123 9.35996 30.6737 10.0488 30.9877 10.8075C31.3017 11.5662 31.4621 12.3796 31.4596 13.2007L31.4441 38.2159Z" fill="#64F9BF"/>
<path d="M47.0691 28.8257C46.2408 28.8257 45.4464 29.1547 44.8607 29.7404C44.275 30.3261 43.946 31.1204 43.946 31.9487V38.2165C43.9509 40.6771 43.4678 43.1143 42.5248 45.3871C41.5818 47.6599 40.1975 49.7232 38.4519 51.4576C36.7151 53.204 34.6491 54.5885 32.3735 55.531C30.098 56.4735 27.658 56.9553 25.195 56.9485C22.732 56.9553 20.2921 56.4735 18.0165 55.531C15.7409 54.5885 13.6749 53.204 11.9381 51.4576C10.1935 49.7226 8.81008 47.6592 7.86761 45.3865C6.92514 43.1138 6.44235 40.6768 6.44713 38.2165V31.9642C6.44876 31.5526 6.3691 31.1448 6.21273 30.7641C6.05635 30.3834 5.82634 30.0373 5.53588 29.7457C5.24542 29.4541 4.90024 29.2227 4.52015 29.0648C4.14005 28.9069 3.73252 28.8257 3.32094 28.8257C2.49236 28.8257 1.69767 29.1546 1.11148 29.7402C0.525292 30.3258 0.195564 31.1202 0.194744 31.9487V38.2165C0.188728 41.498 0.832788 44.7482 2.08974 47.7795C3.3467 50.8108 5.19165 53.5631 7.51809 55.8775C11.4349 59.8103 16.5569 62.3168 22.0657 62.9964V69.4468H12.6964C12.2859 69.4468 11.8794 69.5277 11.5001 69.6848C11.1208 69.8419 10.7762 70.0721 10.4859 70.3624C10.1956 70.6527 9.96531 70.9973 9.8082 71.3766C9.65109 71.7559 9.57023 72.1624 9.57023 72.5729C9.57023 72.9835 9.65109 73.39 9.8082 73.7692C9.96531 74.1485 10.1956 74.4931 10.4859 74.7834C10.7762 75.0737 11.1208 75.304 11.5001 75.4611C11.8794 75.6182 12.2859 75.6991 12.6964 75.6991H37.6936C38.5227 75.6991 39.3179 75.3697 39.9042 74.7834C40.4904 74.1972 40.8198 73.402 40.8198 72.5729C40.8198 71.7438 40.4904 70.9487 39.9042 70.3624C39.3179 69.7762 38.5227 69.4468 37.6936 69.4468H28.3212V62.9995C33.8304 62.3211 38.9528 59.8144 42.8689 55.8806C45.1969 53.5666 47.0431 50.814 48.3006 47.7821C49.5582 44.7501 50.2022 41.4989 50.1953 38.2165V31.9642C50.1969 31.5526 50.1173 31.1448 49.9609 30.7641C49.8045 30.3834 49.5745 30.0373 49.284 29.7457C48.9936 29.4541 48.6484 29.2227 48.2683 29.0648C47.8882 28.9069 47.4807 28.8257 47.0691 28.8257Z" fill="white"/>
</svg>
