<svg width="51" height="76" fill="none" xmlns="http://www.w3.org/2000/svg"><path d="M33.845 4.504a12.418 12.418 0 0 0-8.84-3.661 12.406 12.406 0 0 0-8.837 3.661 12.417 12.417 0 0 0-3.662 8.84V38.36a12.414 12.414 0 0 0 3.662 8.822 12.406 12.406 0 0 0 8.837 3.661 12.417 12.417 0 0 0 8.84-3.661 12.427 12.427 0 0 0 3.658-8.822v-25a12.427 12.427 0 0 0-3.658-8.855zM31.254 38.36a6.206 6.206 0 0 1-1.814 4.402 6.191 6.191 0 0 1-4.42 1.832 6.21 6.21 0 0 1-4.42-1.832 6.204 6.204 0 0 1-1.845-4.402v-25a6.209 6.209 0 0 1 1.83-4.42 6.22 6.22 0 0 1 4.42-1.84 6.215 6.215 0 0 1 4.435 1.825 6.21 6.21 0 0 1 1.83 4.42l-.016 25.015z" fill="#64F9BF"/><path d="M46.879 28.969a3.123 3.123 0 0 0-3.123 3.123v6.267a18.613 18.613 0 0 1-5.494 13.242 18.624 18.624 0 0 1-13.257 5.49 18.623 18.623 0 0 1-13.257-5.49 18.624 18.624 0 0 1-5.491-13.242v-6.252a3.126 3.126 0 1 0-6.252-.015v6.267a24.848 24.848 0 0 0 7.323 17.662 24.82 24.82 0 0 0 14.547 7.118v6.45h-9.369a3.126 3.126 0 1 0 0 6.253h24.997a3.126 3.126 0 1 0 0-6.252h-9.372v-6.447a24.806 24.806 0 0 0 14.548-7.12 24.834 24.834 0 0 0 7.326-17.664v-6.252a3.126 3.126 0 0 0-3.126-3.138z" fill="#4924CC"/></svg>