<svg width="85" height="94" fill="none" xmlns="http://www.w3.org/2000/svg"><path d="M72.175 8.839h-8.456V4.597a4.262 4.262 0 0 0-1.233-3.006A4.218 4.218 0 0 0 59.499.346a4.216 4.216 0 0 0-2.99 1.245 4.263 4.263 0 0 0-1.238 3.006v4.242h-25.35V4.597a4.263 4.263 0 0 0-1.239-3.006 4.217 4.217 0 0 0-4.606-.922 4.218 4.218 0 0 0-2.284 2.302 4.262 4.262 0 0 0-.319 1.626v4.242h-8.456a12.659 12.659 0 0 0-8.957 3.738 12.798 12.798 0 0 0-3.718 9.006v59.48a12.798 12.798 0 0 0 3.718 9.006 12.659 12.659 0 0 0 8.957 3.738h59.158a12.659 12.659 0 0 0 8.957-3.738 12.798 12.798 0 0 0 3.718-9.006v-59.48a12.798 12.798 0 0 0-3.718-9.006 12.659 12.659 0 0 0-8.957-3.738zm4.219 72.224a4.263 4.263 0 0 1-1.235 3.002 4.216 4.216 0 0 1-2.984 1.249H13.017a4.217 4.217 0 0 1-2.984-1.248 4.263 4.263 0 0 1-1.235-3.003v-59.48a4.263 4.263 0 0 1 1.238-2.997 4.216 4.216 0 0 1 2.981-1.245h59.158c1.118.002 2.19.45 2.98 1.245a4.263 4.263 0 0 1 1.239 2.997v59.48z" fill="#4924CC"/><path d="M42.596 59.825c4.48-.007 8.776-1.8 11.945-4.986a17.07 17.07 0 0 0 4.958-12.01 17.06 17.06 0 0 0-4.953-12.017 16.875 16.875 0 0 0-11.95-4.987 16.875 16.875 0 0 0-11.947 4.983 17.06 17.06 0 0 0-4.957 12.013 17.07 17.07 0 0 0 4.956 12.015 16.884 16.884 0 0 0 11.948 4.99zm0-25.498c2.241.003 4.39.9 5.974 2.494a8.526 8.526 0 0 1-.004 12.012 8.433 8.433 0 0 1-5.97 2.49 8.433 8.433 0 0 1-5.97-2.49 8.525 8.525 0 0 1-.004-12.012 8.433 8.433 0 0 1 5.974-2.494zm23.584 36.91c-6.617-4.758-14.569-7.17-23.584-7.17a43.105 43.105 0 0 0-23.44 7.08 4.252 4.252 0 0 0-1.84 2.674 4.271 4.271 0 0 0 2.106 4.631 4.193 4.193 0 0 0 4.305-.162 34.709 34.709 0 0 1 18.869-5.72c7.212 0 13.523 1.876 18.67 5.575a4.206 4.206 0 0 0 4.695.149c.471-.296.88-.682 1.201-1.137a4.269 4.269 0 0 0-.982-5.92z" fill="#64F9BF"/></svg>