<svg width="98" height="74" viewBox="0 0 98 74" fill="none" xmlns="http://www.w3.org/2000/svg">
<path d="M94.6502 70.473V63.073C94.6478 59.7937 93.5563 56.6082 91.5473 54.0165C89.5382 51.4248 86.7253 49.5737 83.5502 48.7539" stroke="#64F9BF" stroke-width="6.4" stroke-linecap="round" stroke-linejoin="round"/>
<path d="M68.7502 4.35352C71.9338 5.16863 74.7555 7.02012 76.7705 9.61608C78.7856 12.212 79.8793 15.4048 79.8793 18.6911C79.8793 21.9773 78.7856 25.1701 76.7705 27.766C74.7555 30.362 71.9338 32.2135 68.7502 33.0286" stroke="#64F9BF" stroke-width="6.4" stroke-linecap="round" stroke-linejoin="round"/>
<path d="M63.2002 70.4735V63.0735C63.2002 59.1483 61.6409 55.3838 58.8654 52.6083C56.0898 49.8327 52.3254 48.2734 48.4001 48.2734H18.8C14.8748 48.2734 11.1104 49.8327 8.33483 52.6083C5.55929 55.3838 4 59.1483 4 63.0735V70.4735" stroke="white" stroke-width="6.4" stroke-linecap="round" stroke-linejoin="round"/>
<path d="M33.6001 33.4731C41.7739 33.4731 48.4001 26.8469 48.4001 18.6731C48.4001 10.4993 41.7739 3.87305 33.6001 3.87305C25.4263 3.87305 18.8 10.4993 18.8 18.6731C18.8 26.8469 25.4263 33.4731 33.6001 33.4731Z" stroke="white" stroke-width="6.4" stroke-linecap="round" stroke-linejoin="round"/>
</svg>
