<svg width="307" height="64" fill="none" xmlns="http://www.w3.org/2000/svg"><path d="M44.726 24.771a11.906 11.906 0 0 0 1.984-1.53c.118-.114.228-.227.34-.341.424-.431.815-.893 1.17-1.383.36-.498.67-1.03.925-1.59a7.174 7.174 0 0 0 .644-2.42c.22-2.862-1.476-5.708-5.258-8.003L29.305.271l-17.75 17.005L0 28.346l16.029 9.727a16.472 16.472 0 0 0 8.525 2.423c3.678 0 7.203-1.299 9.803-3.791 2.828-2.71 3.767-6.217 2.023-9.132a7.329 7.329 0 0 0-1.004-1.31c.934.209 1.888.315 2.846.318h.025a12.559 12.559 0 0 0 4.575-.855 11.94 11.94 0 0 0 1.904-.954zM29.88 33.599c-2.851 2.732-7.439 3.135-11.173.87l-11.089-6.73 9.954-9.542 11.28 6.847c4.064 2.47 3.84 5.869 1.028 8.56v-.005zm1.32-12.134L20.77 15.139l9.505-9.112 10.24 6.215c3.828 2.322 4.325 5.468 1.556 8.118A8.96 8.96 0 0 1 31.2 21.47v-.006zm4.407 28.043c-2.888 2.768-6.814 4.292-11.052 4.292a18.277 18.277 0 0 1-9.462-2.685L0 41.968v3.641l16.029 9.728a16.473 16.473 0 0 0 8.525 2.424c3.678 0 7.203-1.3 9.803-3.792 1.901-1.821 2.952-4.004 2.905-6.124v-.264a12.965 12.965 0 0 1-1.656 1.938v-.012zm0-5.756c-2.888 2.769-6.814 4.293-11.052 4.293a18.278 18.278 0 0 1-9.462-2.684L0 36.213v3.643l16.029 9.728a16.47 16.47 0 0 0 8.525 2.422c3.678 0 7.203-1.299 9.803-3.79 1.901-1.823 2.952-4.005 2.905-6.126v-.264a12.82 12.82 0 0 1-1.656 1.938v-.013zm0-5.756c-2.888 2.769-6.814 4.293-11.052 4.293a18.278 18.278 0 0 1-9.462-2.685L0 30.46v3.642l16.029 9.729a16.47 16.47 0 0 0 8.525 2.422c3.678 0 7.203-1.3 9.803-3.792 1.901-1.822 2.952-4.003 2.905-6.124v-.269c-.486.701-1.04 1.352-1.656 1.943v-.016zm12.352 3.799a13.898 13.898 0 0 1-8.883 3.817v3.957a12.044 12.044 0 0 0 7.635-3.302c2.066-1.975 3.121-4.149 3.1-6.294v-.324a14.04 14.04 0 0 1-1.852 2.162v-.016zM35.606 55.256c-2.888 2.767-6.814 4.294-11.052 4.294a18.267 18.267 0 0 1-9.462-2.687L0 47.721v3.641l16.029 9.728a16.473 16.473 0 0 0 8.525 2.424c3.678 0 7.203-1.3 9.803-3.792 1.901-1.821 2.952-4.004 2.905-6.123v-.265c-.486.7-1.041 1.348-1.656 1.938v-.016zM48.263 24.23c-.1.102-.2.203-.305.302a14.642 14.642 0 0 1-3.28 2.316 13.953 13.953 0 0 1-3.874 1.286c-.69.128-1.388.205-2.09.231a8.125 8.125 0 0 1 .352 2.495v1.439h.007a12.47 12.47 0 0 0 3.75-.816A11.932 11.932 0 0 0 46.715 29c.12-.113.222-.23.335-.345.423-.432.814-.895 1.169-1.385a9.28 9.28 0 0 0 .928-1.59 7.16 7.16 0 0 0 .638-2.427c.013-.182.03-.365.028-.546v-.296c-.107.148-.219.304-.334.456-.376.485-.783.946-1.217 1.379v-.016zm0 11.5c-.1.104-.192.209-.296.31a13.887 13.887 0 0 1-8.883 3.816v3.955a12.051 12.051 0 0 0 7.635-3.301 10.85 10.85 0 0 0 2.432-3.32c.354-.765.57-1.586.638-2.426.013-.183.03-.366.028-.548v-.325c-.11.16-.217.32-.335.476-.378.486-.788.947-1.225 1.38l.006-.017zm0-5.756c-.1.104-.192.208-.296.31-.49.464-1.014.89-1.567 1.277-.547.385-1.12.73-1.717 1.033a14.115 14.115 0 0 1-5.6 1.503h-.007v3.936a12.048 12.048 0 0 0 7.635-3.302c.12-.113.223-.23.335-.345.424-.432.815-.895 1.17-1.385a9.32 9.32 0 0 0 .928-1.59c.353-.765.57-1.587.637-2.427.014-.182.03-.365.028-.546v-.325c-.109.16-.217.319-.335.475-.375.494-.782.964-1.217 1.405l.006-.019zm35.57-13.112c.781 0 1.622.008 2.523.025.9.017 1.791.066 2.674.148.83.076 1.656.202 2.47.379a6.314 6.314 0 0 1 1.964.758 9.486 9.486 0 0 1 3.031 2.936c.822 1.262 1.233 2.805 1.233 4.629 0 1.922-.467 3.584-1.4 4.986-.935 1.4-2.268 2.438-4 3.112v.1c2.24.475 3.956 1.487 5.146 3.038 1.19 1.551 1.784 3.44 1.783 5.668a10.72 10.72 0 0 1-.713 3.846 9.637 9.637 0 0 1-2.115 3.315c-.988 1-2.166 1.791-3.464 2.33-1.378.59-2.966.885-4.764.885H70.626V16.881l13.207-.02zm1.329 15.537c2.755 0 4.733-.48 5.934-1.443 1.202-.963 1.805-2.405 1.81-4.326 0-1.28-.204-2.292-.611-3.038a4.35 4.35 0 0 0-1.683-1.72 6.641 6.641 0 0 0-2.478-.765 23.802 23.802 0 0 0-2.98-.177h-9.682v11.488l9.69-.019zm2.445 16.55c2.14 0 3.812-.573 5.019-1.72 1.206-1.148 1.804-2.73 1.794-4.746 0-1.18-.22-2.159-.661-2.934a5.143 5.143 0 0 0-1.758-1.848 7.401 7.401 0 0 0-2.522-.962 15.495 15.495 0 0 0-2.952-.278H75.466v12.502l12.141-.014zm40.558 3.947c-.749.438-1.785.657-3.108.658-1.122 0-2.013-.312-2.675-.936-.661-.623-.992-1.644-.994-3.062a10.362 10.362 0 0 1-4.152 3.063 14.446 14.446 0 0 1-8.509.53 7.897 7.897 0 0 1-2.778-1.266 6.071 6.071 0 0 1-1.874-2.233c-.458-.927-.687-2.048-.688-3.365 0-1.485.255-2.7.764-3.644a6.64 6.64 0 0 1 2.013-2.303 9.257 9.257 0 0 1 2.854-1.341 34.745 34.745 0 0 1 3.286-.759 39.787 39.787 0 0 1 3.395-.531c.954-.097 1.9-.266 2.828-.506.816-.219 1.46-.54 1.937-.961.476-.422.712-1.034.712-1.848 0-.945-.178-1.704-.534-2.278a3.679 3.679 0 0 0-1.375-1.316 5.671 5.671 0 0 0-1.887-.607c-.684-.1-1.375-.148-2.066-.147-1.833 0-3.362.344-4.586 1.033-1.224.689-1.887 1.996-1.989 3.921h-4.331c.068-1.62.407-2.985 1.018-4.098a7.713 7.713 0 0 1 2.446-2.709 10.336 10.336 0 0 1 3.491-1.492c1.379-.31 2.79-.462 4.203-.452a24.9 24.9 0 0 1 3.543.254 9.34 9.34 0 0 1 3.185 1.034 6.08 6.08 0 0 1 2.296 2.194c.578.942.867 2.172.867 3.69V46.85c0 1.01.059 1.75.178 2.222.119.471.518.707 1.197.707.45-.01.896-.079 1.329-.203l.004 3.32zm-7.031-13.412c-.545.404-1.258.697-2.14.885a31.57 31.57 0 0 1-2.778.454c-.968.118-1.944.252-2.93.402-.913.13-1.806.375-2.657.73a4.817 4.817 0 0 0-1.91 1.436c-.492.622-.738 1.47-.738 2.543-.02.624.13 1.242.434 1.787.277.475.661.88 1.121 1.181.49.316 1.034.538 1.605.655a8.992 8.992 0 0 0 1.935.201c1.427 0 2.65-.193 3.67-.579a7.738 7.738 0 0 0 2.495-1.46 5.773 5.773 0 0 0 1.428-1.92 4.806 4.806 0 0 0 .459-1.939l.006-4.376zm26.787-8.07c-1.087-.91-2.548-1.366-4.382-1.367-1.564 0-2.871.286-3.923.86a6.983 6.983 0 0 0-2.523 2.277 9.55 9.55 0 0 0-1.35 3.265 17.71 17.71 0 0 0-.408 3.82 14.486 14.486 0 0 0 .433 3.542 9.477 9.477 0 0 0 1.35 3.062 6.826 6.826 0 0 0 2.396 2.152c.984.54 2.156.81 3.516.808 2.14 0 3.812-.556 5.018-1.669 1.205-1.113 1.943-2.682 2.214-4.707h4.428c-.476 3.238-1.69 5.735-3.643 7.49-1.953 1.756-4.61 2.633-7.97 2.632-2.005 0-3.779-.32-5.324-.962a10.31 10.31 0 0 1-3.864-2.738 11.785 11.785 0 0 1-2.344-4.226 17.488 17.488 0 0 1-.795-5.384 19.076 19.076 0 0 1 .764-5.492 12.633 12.633 0 0 1 2.319-4.453 10.846 10.846 0 0 1 3.893-2.992c1.566-.723 3.386-1.085 5.462-1.085 1.418-.01 2.832.17 4.203.532 1.248.326 2.424.884 3.466 1.645a9.004 9.004 0 0 1 2.47 2.805c.645 1.13 1.053 2.472 1.224 4.023h-4.484c-.344-1.653-1.06-2.933-2.146-3.839zm16.202-14.526V38.29l12.024-11.437h5.81l-10.446 9.514 11.21 16.651h-5.504l-9.018-13.666-4.076 3.747v9.92h-4.331V16.88l4.331.007zm25.171 30.29a4.584 4.584 0 0 0 1.604 1.569 7.231 7.231 0 0 0 2.242.835c.847.17 1.71.255 2.574.253.716-.002 1.431-.051 2.14-.148a7.867 7.867 0 0 0 2.067-.558 3.879 3.879 0 0 0 1.554-1.18c.407-.524.611-1.19.611-2 0-1.113-.425-1.957-1.274-2.53a10.879 10.879 0 0 0-3.185-1.392 52.473 52.473 0 0 0-4.152-.962 21.537 21.537 0 0 1-4.153-1.215 8.582 8.582 0 0 1-3.184-2.218c-.85-.945-1.275-2.261-1.274-3.949 0-1.316.295-2.448.886-3.394a7.267 7.267 0 0 1 2.292-2.304 10.59 10.59 0 0 1 3.159-1.315 14.667 14.667 0 0 1 3.498-.423 20.86 20.86 0 0 1 4.132.381 9.573 9.573 0 0 1 3.339 1.315 6.812 6.812 0 0 1 2.317 2.532c.578 1.062.918 2.386 1.02 3.971h-4.332c-.068-.843-.288-1.543-.661-2.1a4.338 4.338 0 0 0-1.427-1.34 6.528 6.528 0 0 0-1.91-.738 9.981 9.981 0 0 0-2.115-.227c-.657-.001-1.313.048-1.962.147-.625.09-1.234.27-1.809.532-.516.229-.971.576-1.329 1.012-.34.422-.51.97-.51 1.644a2.417 2.417 0 0 0 .791 1.848c.588.528 1.271.94 2.011 1.215.894.343 1.814.614 2.752.809 1.02.22 2.039.448 3.058.683 1.082.236 2.143.523 3.183.86.978.311 1.905.764 2.75 1.345a6.577 6.577 0 0 1 1.937 2.1c.492.845.738 1.89.738 3.138 0 1.588-.332 2.904-.994 3.949a7.75 7.75 0 0 1-2.599 2.53 10.899 10.899 0 0 1-3.617 1.341c-1.319.25-2.658.377-4 .38a18.628 18.628 0 0 1-4.179-.457 10.263 10.263 0 0 1-3.521-1.492 7.628 7.628 0 0 1-2.446-2.733c-.611-1.13-.951-2.506-1.019-4.126h4.331a4.82 4.82 0 0 0 .666 2.405v.007zm33.424-20.32v3.797h-5.248v16.238c-.011.409.032.818.128 1.215.072.286.244.537.484.708.299.19.64.303.994.33.55.056 1.103.081 1.656.075h1.986v3.796h-3.312a15.62 15.62 0 0 1-2.878-.229 4.222 4.222 0 0 1-1.936-.834 3.559 3.559 0 0 1-1.096-1.72c-.239-.743-.358-1.721-.357-2.936v-16.65h-4.484V26.85h4.484v-7.845h4.331v7.845l5.248.008zm28.126 26.057c-.749.438-1.785.657-3.108.658-1.122 0-2.013-.312-2.675-.935-.661-.624-.992-1.645-.994-3.063a10.361 10.361 0 0 1-4.152 3.063 14.446 14.446 0 0 1-8.509.531 7.897 7.897 0 0 1-2.778-1.266 6.081 6.081 0 0 1-1.86-2.253c-.457-.927-.687-2.048-.688-3.365 0-1.485.255-2.7.765-3.644a6.63 6.63 0 0 1 2.013-2.303 9.241 9.241 0 0 1 2.853-1.341 34.838 34.838 0 0 1 3.287-.759 39.602 39.602 0 0 1 3.395-.531 18.916 18.916 0 0 0 2.828-.506c.816-.219 1.46-.54 1.936-.961.477-.422.713-1.034.713-1.848 0-.945-.178-1.704-.534-2.278a3.682 3.682 0 0 0-1.376-1.316 5.659 5.659 0 0 0-1.886-.607c-.684-.1-1.375-.148-2.066-.147-1.833 0-3.362.344-4.586 1.033-1.224.689-1.886 1.996-1.987 3.921h-4.33c.066-1.62.405-2.985 1.018-4.098a7.718 7.718 0 0 1 2.441-2.709 10.336 10.336 0 0 1 3.491-1.492 18.525 18.525 0 0 1 4.204-.456c1.185 0 2.369.085 3.542.254 1.115.15 2.194.5 3.185 1.033a6.084 6.084 0 0 1 2.292 2.198c.578.941.867 2.171.867 3.69v13.43c0 1.01.059 1.75.178 2.222s.518.707 1.197.707c.45-.01.896-.078 1.329-.202l-.005 3.34zm-7.031-13.412c-.545.404-1.258.697-2.14.886a31.57 31.57 0 0 1-2.778.453c-.968.118-1.944.252-2.93.403-.91.13-1.801.375-2.649.729a4.81 4.81 0 0 0-1.91 1.436c-.492.622-.738 1.47-.738 2.543-.02.624.13 1.242.434 1.787.277.475.66.88 1.12 1.181.49.316 1.035.538 1.606.656a8.986 8.986 0 0 0 1.935.2c1.428 0 2.651-.193 3.669-.578a7.75 7.75 0 0 0 2.496-1.462 5.77 5.77 0 0 0 1.427-1.918 4.807 4.807 0 0 0 .459-1.94l-.001-4.376zm30.825 20.903c-1.968 2.125-5.059 3.188-9.273 3.188a18.033 18.033 0 0 1-3.745-.405 11.503 11.503 0 0 1-3.465-1.316 8.032 8.032 0 0 1-2.573-2.378c-.68-.984-1.054-2.182-1.122-3.594h4.332c.014.723.274 1.42.738 1.975a5.41 5.41 0 0 0 1.683 1.315 8.183 8.183 0 0 0 2.165.738c.738.148 1.489.224 2.242.229 1.426 0 2.632-.246 3.618-.738a6.788 6.788 0 0 0 2.445-2.03 8.328 8.328 0 0 0 1.401-3.113c.299-1.311.445-2.653.434-3.998v-1.717h-.103c-.747 1.62-1.879 2.81-3.395 3.57a10.598 10.598 0 0 1-4.816 1.137c-1.968 0-3.683-.354-5.145-1.062a10.745 10.745 0 0 1-3.665-2.86 12.119 12.119 0 0 1-2.214-4.2 17.224 17.224 0 0 1-.738-5.087c.008-1.614.213-3.22.611-4.783a13.002 13.002 0 0 1 2.046-4.454 11.132 11.132 0 0 1 3.771-3.29c1.561-.861 3.48-1.292 5.756-1.292a9.776 9.776 0 0 1 4.586 1.09 7.69 7.69 0 0 1 3.26 3.263h.052v-3.743h4.075V50.79c-.004 4.285-.991 7.49-2.961 9.616zm-5.529-11.767a7.076 7.076 0 0 0 2.421-2.329 10.6 10.6 0 0 0 1.35-3.263 15.75 15.75 0 0 0 .433-3.644c0-1.144-.136-2.284-.408-3.395a9.447 9.447 0 0 0-1.298-3.011 6.76 6.76 0 0 0-2.319-2.15c-.951-.54-2.105-.81-3.464-.81-1.394 0-2.583.261-3.568.784-.96.501-1.789 1.22-2.42 2.1a8.886 8.886 0 0 0-1.376 3.037 14.706 14.706 0 0 0-.432 3.594c0 1.19.12 2.376.357 3.542a9.948 9.948 0 0 0 1.222 3.213 6.838 6.838 0 0 0 2.294 2.33c.95.59 2.139.885 3.566.885 1.426 0 2.641-.294 3.642-.883zm33.652 2.707c-1.968 1.485-4.448 2.227-7.44 2.227-2.106 0-3.932-.337-5.477-1.012a10.802 10.802 0 0 1-3.899-2.834 12.04 12.04 0 0 1-2.361-4.353 20.813 20.813 0 0 1-.886-5.517c-.021-1.86.289-3.71.917-5.46a13.067 13.067 0 0 1 2.564-4.312 11.672 11.672 0 0 1 3.923-2.834 12.052 12.052 0 0 1 4.962-1.004c2.344 0 4.289.482 5.834 1.444a11.509 11.509 0 0 1 3.72 3.67 14.471 14.471 0 0 1 1.936 4.857c.348 1.649.493 3.334.433 5.018h-19.719c-.04 1.103.098 2.205.407 3.265a7.385 7.385 0 0 0 1.476 2.732 7.248 7.248 0 0 0 2.607 1.892c1.053.474 2.293.71 3.719.708 1.835 0 3.338-.421 4.509-1.265 1.171-.843 1.944-2.125 2.319-3.846h4.28c-.578 2.935-1.852 5.143-3.821 6.624h-.003zm-1.045-16.802a7.377 7.377 0 0 0-1.579-2.362 7.837 7.837 0 0 0-8.357-1.569 7.009 7.009 0 0 0-2.319 1.596 7.625 7.625 0 0 0-1.527 2.352 8.884 8.884 0 0 0-.663 2.86h15.133a8.787 8.787 0 0 0-.685-2.877h-.003zm-256.99-9.772a11.906 11.906 0 0 0 1.984-1.531c.118-.114.228-.227.34-.341.424-.431.815-.893 1.17-1.383.36-.498.67-1.03.925-1.59a7.174 7.174 0 0 0 .644-2.42c.22-2.862-1.476-5.708-5.258-8.003L29.305.271l-17.75 17.005L0 28.346l16.029 9.727a16.472 16.472 0 0 0 8.525 2.423c3.678 0 7.203-1.299 9.803-3.791 2.828-2.71 3.767-6.217 2.023-9.132a7.329 7.329 0 0 0-1.004-1.31c.934.209 1.888.315 2.846.318h.025a12.559 12.559 0 0 0 4.575-.855 11.94 11.94 0 0 0 1.904-.954zM29.88 33.597c-2.851 2.732-7.439 3.135-11.173.87l-11.089-6.73 9.954-9.542 11.28 6.847c4.064 2.47 3.84 5.869 1.028 8.56v-.005zm1.32-12.134L20.77 15.139l9.505-9.112 10.24 6.215c3.828 2.322 4.325 5.468 1.556 8.118A8.96 8.96 0 0 1 31.2 21.47v-.006zm4.407 28.043c-2.888 2.768-6.814 4.292-11.052 4.292a18.277 18.277 0 0 1-9.462-2.685L0 41.968v3.641l16.029 9.728a16.473 16.473 0 0 0 8.525 2.424c3.678 0 7.203-1.3 9.803-3.792 1.901-1.821 2.952-4.004 2.905-6.124v-.264a12.965 12.965 0 0 1-1.656 1.938v-.012zm0-5.756c-2.888 2.769-6.814 4.293-11.052 4.293a18.278 18.278 0 0 1-9.462-2.684L0 36.213v3.643l16.029 9.728a16.47 16.47 0 0 0 8.525 2.422c3.678 0 7.203-1.299 9.803-3.79 1.901-1.823 2.952-4.005 2.905-6.126v-.264a12.82 12.82 0 0 1-1.656 1.938v-.013zm0-5.756c-2.888 2.769-6.814 4.293-11.052 4.293a18.278 18.278 0 0 1-9.462-2.685L0 30.46v3.642l16.029 9.729a16.47 16.47 0 0 0 8.525 2.422c3.678 0 7.203-1.3 9.803-3.792 1.901-1.822 2.952-4.003 2.905-6.124v-.269c-.486.701-1.04 1.352-1.656 1.943v-.016zm12.352 3.799a13.898 13.898 0 0 1-8.883 3.817v3.957a12.044 12.044 0 0 0 7.635-3.302c2.066-1.975 3.121-4.149 3.1-6.294v-.324a14.04 14.04 0 0 1-1.852 2.162v-.016zM35.606 55.256c-2.888 2.767-6.814 4.294-11.052 4.294a18.267 18.267 0 0 1-9.462-2.687L0 47.721v3.641l16.029 9.728a16.473 16.473 0 0 0 8.525 2.424c3.678 0 7.203-1.3 9.803-3.792 1.901-1.821 2.952-4.004 2.905-6.123v-.265c-.486.7-1.041 1.348-1.656 1.938v-.016zM48.263 24.23c-.1.102-.2.203-.305.302a14.642 14.642 0 0 1-3.28 2.316 13.953 13.953 0 0 1-3.874 1.286c-.69.128-1.388.205-2.09.231a8.125 8.125 0 0 1 .352 2.495v1.439h.007a12.47 12.47 0 0 0 3.75-.816A11.932 11.932 0 0 0 46.715 29c.12-.113.222-.23.335-.345.423-.432.814-.895 1.169-1.385a9.28 9.28 0 0 0 .928-1.59 7.16 7.16 0 0 0 .638-2.427c.013-.182.03-.365.028-.546v-.296c-.107.148-.219.304-.334.456-.376.485-.783.946-1.217 1.379v-.016zm0 11.5c-.1.104-.192.209-.296.31a13.887 13.887 0 0 1-8.883 3.816v3.955a12.051 12.051 0 0 0 7.635-3.301 10.85 10.85 0 0 0 2.432-3.32c.354-.765.57-1.586.638-2.426.013-.183.03-.366.028-.548v-.325c-.11.16-.217.32-.335.476-.378.486-.788.947-1.225 1.38l.006-.017zm0-5.756c-.1.104-.192.208-.296.31-.49.464-1.014.89-1.567 1.277-.547.385-1.12.73-1.717 1.033a14.115 14.115 0 0 1-5.6 1.503h-.007v3.936a12.048 12.048 0 0 0 7.635-3.302c.12-.113.223-.23.335-.345.424-.432.815-.895 1.17-1.385a9.32 9.32 0 0 0 .928-1.59c.353-.765.57-1.587.637-2.427.014-.182.03-.365.028-.546v-.325c-.109.16-.217.319-.335.475-.375.494-.782.964-1.217 1.405l.006-.019z" fill="#fff"/></svg>