<?xml version="1.0" encoding="UTF-8"?> <svg xmlns="http://www.w3.org/2000/svg" xmlns:xlink="http://www.w3.org/1999/xlink" id="Layer_5" data-name="Layer 5" viewBox="0 0 812.54953 1229.22535"><defs><style>.cls-1,.cls-17,.cls-18,.cls-19,.cls-2{stroke:#231f20}.cls-1,.cls-16,.cls-17,.cls-18,.cls-19,.cls-2{stroke-miterlimit:10}.cls-1,.cls-16,.cls-17,.cls-18,.cls-2{stroke-width:2px}.cls-1{fill:url(#linear-gradient)}.cls-2{fill:url(#linear-gradient-2)}.cls-3{fill:#fff}.cls-4{fill:#edc33b}.cls-5{fill:#815f3a}.cls-19,.cls-6{fill:#231f20}.cls-7{fill:#c4c7b9}.cls-8{fill:#727565}.cls-9{fill:#989f8d}.cls-10,.cls-11,.cls-12,.cls-13,.cls-14,.cls-15{opacity:.61}.cls-10{fill:url(#linear-gradient-3)}.cls-11{fill:url(#linear-gradient-4)}.cls-12{fill:url(#linear-gradient-5)}.cls-13{fill:url(#linear-gradient-6)}.cls-14{fill:url(#linear-gradient-7)}.cls-15{fill:url(#linear-gradient-8)}.cls-16,.cls-17,.cls-18{fill:none}.cls-16{stroke:#fff}.cls-16,.cls-18{stroke-linecap:round}</style><linearGradient id="linear-gradient" x1="503.903" y1="1162.984" x2="565.865" y2="1162.984" gradientUnits="userSpaceOnUse"><stop offset=".157" stop-color="#edc33b"></stop><stop offset="1" stop-color="#cca933"></stop></linearGradient><linearGradient id="linear-gradient-2" x1="506.533" y1="1127.67" x2="568.494" y2="1127.67" xlink:href="#linear-gradient"></linearGradient><linearGradient id="linear-gradient-3" x1="160.586" y1="942.636" x2="347.441" y2="942.636" xlink:href="#linear-gradient"></linearGradient><linearGradient id="linear-gradient-4" x1="238.668" y1="1093.168" x2="347.441" y2="1093.168" gradientUnits="userSpaceOnUse"><stop offset=".157" stop-color="#edc33b"></stop><stop offset="1" stop-color="#b7992e"></stop></linearGradient><linearGradient id="linear-gradient-5" x1="580.323" y1="996.823" x2="580.323" y2="1102.248" xlink:href="#linear-gradient-4"></linearGradient><linearGradient id="linear-gradient-6" x1="440.491" y1="1002.647" x2="440.491" y2="1213.767" gradientUnits="userSpaceOnUse"><stop offset=".314" stop-color="#edc33b"></stop><stop offset="1" stop-color="#cca933"></stop></linearGradient><linearGradient id="linear-gradient-7" x1="554.466" y1="1128.855" x2="628.44" y2="1128.855" xlink:href="#linear-gradient"></linearGradient><linearGradient id="linear-gradient-8" x1="496.434" y1="961.1" x2="717.175" y2="961.1" xlink:href="#linear-gradient"></linearGradient></defs><title>phipp5</title><path class="cls-1" d="M565.865 1160.523c-38.278 10.303-61.962 1.23-61.962 1.23"></path><path class="cls-2" d="M506.533 1161.752l11.532-68.164h49.052l1.377 66.935"></path><ellipse class="cls-3" cx="272.78" cy="168.564" rx="108.263" ry="63.151"></ellipse><path class="cls-4" d="M750.51 943.732c3.992 34.596-8.871 28.386-8.871 28.386-5.322 20.403-13.75 12.863-13.75 12.863-.887 1.774-10.733 4.435-10.733 4.435a267.336 267.336 0 0 0-2.13-29.717c-5.109-38.783-16.375-77.264-35.145-110.565.763.195 20.332 5.518 33.372 31.616 13.306 26.612 36.955 60.338 37.257 62.982z"></path><path class="cls-4" d="M408.827 100.107s39.883-38.978 74.195-17.35c22.762 14.352 18.114 47.972 10.538 68.18 0 0-11.585 40.486-53.899 57.606 2.963 50.155 6.387 106.272 6.139 119.116-.444 23.508 0 27.5-12.419 38.145a107.432 107.432 0 0 1-9.776 7.185s-32.36 111.771 44.283 365.758h.018l1.72-.532c25.726-7.842 102.582 7.7 155.806 47.618 22.603 16.96 40.575 38.712 54.431 63.301h.018c18.77 33.301 30.036 71.782 35.146 110.565a267.336 267.336 0 0 1 2.129 29.717c1.242 61.687-14.548 130.861-19.87 157.828-6.21 31.42-22.178 36.885-50.564 43.981s-54.111 4.436-71.108-14.193c-16.819-18.415-18.486-76.057-18.522-77.37a247.64 247.64 0 0 1-36.033 2.59c-5.588 41.249-21.147 74.425-33.123 95.183-13.306 23.064-93.143 21.29-113.545 0-10.805-11.266-20.35-50.847-26.95-85.62 0 0-4.098 51.911-12.969 71.178-8.728 18.966-100.239 30.445-122.416-11.514-22-41.64-36.92-180.076-37.718-184.316 0-.035-.018-.053-.018-.07-23.135-93.357-8.16-195.05-8.16-195.05.247-5.323 17.51-125.965 24.607-168.545s8.817-199.29 8.817-199.29a147.832 147.832 0 0 0 47.955-.301s63.87-6.511 78.063-60.321-19.516-91.67-19.516-91.67-34.294-46.713-115.32-24.235c-80.705 22.372-62.84 109.944-62.112 112.907-.781-1.26-26.027-42.083-26.595-51.415-.585-9.456 4.737-30.16 18.327-72.137 5.553-17.174 12.81-39.581 19.675-60.463 9.918-30.196 19.037-57.18 21.13-60.498a53.696 53.696 0 0 0 3.318-6.884c2.573-5.872 5.837-13.004 12.224-17.05 1.437-.922 5.748-2.767 12.366-5.003q3.646-1.224 8.179-2.59a337.046 337.046 0 0 1 63.266-12.046c23.95-2.218 51.113-2.147 78.79 2.856a221.124 221.124 0 0 1 61.775 20.58 180.943 180.943 0 0 1 7.718 4.17zm-106.768 76.058a105.689 105.689 0 0 0 .869 15.648c.053.408.124.798.195 1.189.302 2.466.639 4.843 1.011 7.114.533 1.118 3.194 2.998 7.08 4.808a25.449 25.449 0 0 0 9.544 3.37h.018c7.043 1.81 15.169 2.414 21.982-.265.337-.018.514-.036.514-.036 0-.053.018-.124.018-.177 6.582-2.785 11.869-8.764 13.66-19.87 1.74-10.805.746-19.286-1.72-25.956-4.968-13.395-15.967-19.427-22.975-21.982a20.894 20.894 0 0 0-15.4.177c-6.76 2.91-10.503 8.8-12.472 15.506-.16.533-.32 1.118-.461 1.74q-.267 1.037-.48 2.235a42.268 42.268 0 0 0-.39 2.395c-.053.319-.106.674-.142 1.01a109.187 109.187 0 0 0-.851 13.094zm-68.82 10.574h-.017s9.58-49.055-18.806-50.244a34.754 34.754 0 0 0-25.424 19.09 4.774 4.774 0 0 0-.337.674 8.309 8.309 0 0 0-.39.887.252.252 0 0 0-.036.107c-2.91 6.741-4.47 15.665-3.37 27.446a58.772 58.772 0 0 0 1.596 9.456.16.16 0 0 1 .018.089 19.352 19.352 0 0 0 3.797 9.154 17.767 17.767 0 0 0 15.133 8.818h.053a8.833 8.833 0 0 0 2.254-.036 31.892 31.892 0 0 0 9.97-2.466c4.17-1.348 7.682-2.697 7.682-2.697.089-.638.16-1.277.23-1.916a7.43 7.43 0 0 0 2.2-2.43 91.48 91.48 0 0 0 5.448-15.932zm104.96-66.513c2.554-7.185-3.212-11.035-8.943-13.057a30.256 30.256 0 0 0-18.38-.621c-3.672 1.046-7.292 2.82-8.374 5.854-2.377 6.742 6.068 10.326 6.068 10.326s24.98 10.538 29.628-2.502zm-135.9 6.511s27.055-1.774 25.352-15.523c-.923-7.558-7.824-8.41-13.838-7.665a30.558 30.558 0 0 0-16.713 7.682c-2.803 2.59-5.251 5.802-4.861 8.995.887 7.097 10.06 6.511 10.06 6.511z"></path><path class="cls-5" d="M400.169 30.774c7.043 16.517 5.518 28.226.94 65.164a221.124 221.124 0 0 0-61.775-20.58s-3.992-34.809 19.09-57.82c14.44-14.388 26.292-7.735 33.158-.727 3.868 3.939 6.423 8.871 8.587 13.963z"></path><path class="cls-3" d="M351.043 163.427a14.9 14.9 0 0 1 .887 5.092c0 5.66-3.123 10.467-7.487 12.277-.887-12.1-4.063-19.711-8.232-24.377a9.826 9.826 0 0 1 4.293-.976c4.737 0 8.8 3.3 10.539 7.984z"></path><path class="cls-6" d="M302.91 163.072c.036-.337.089-.674.142-1.011.107-.834.249-1.633.39-2.395q.213-1.118.48-2.236c.141-.62.301-1.206.46-1.739a11.603 11.603 0 0 1 1.065-2.537s19.232-9.65 30.764 3.265c-4.17 1.916-7.114 6.617-7.114 12.1 0 7.238 5.11 13.093 11.407 13.093a9.845 9.845 0 0 0 3.939-.816 135.955 135.955 0 0 1-1.153 27.02l-.532.213c-2.963.16-17.76.905-21.982.266h-.018a56.2 56.2 0 0 1-9.545-3.37 17.581 17.581 0 0 1-8.09-11.923 150.514 150.514 0 0 1-1.064-16.837 109.187 109.187 0 0 1 .851-13.093zM343.29 207.816c0 .053-.018.124-.018.177 0 0-.177.018-.514.036z"></path><path class="cls-3" d="M344.443 180.796a9.845 9.845 0 0 1-3.939.816c-6.298 0-11.407-5.855-11.407-13.093 0-5.483 2.945-10.184 7.114-12.1 4.17 4.666 7.345 12.277 8.232 24.377z"></path><path class="cls-5" d="M329.256 107.169c5.73 2.022 11.497 5.872 8.942 13.057-4.648 13.04-29.628 2.502-29.628 2.502s-8.445-3.584-6.068-10.326c1.082-3.033 4.702-4.808 8.374-5.854a30.256 30.256 0 0 1 18.38.62z"></path><path class="cls-7" d="M270.603 345.809v.035a104.181 104.181 0 0 1-75.241 25.46l-.018.212s3.832 5.376 10.485 24.732c.834 2.484 1.739 5.18 2.679 8.143 5.234 16.464 26.346 13.04 42.633 6.352a49.926 49.926 0 0 0 27.694-27.96 86.208 86.208 0 0 0 1.455-3.993 90.8 90.8 0 0 0 5.11-32.662 70.356 70.356 0 0 1-14.797-.319zm35.483-73.893s33.709 37.86 19.516 91.67-78.063 60.32-78.063 60.32a147.832 147.832 0 0 1-47.955.303c-27.783-4.684-59.487-20.013-70.913-63.586a.055.055 0 0 0-.017-.035c-.728-2.963-18.593-90.535 62.112-112.907 81.026-22.478 115.32 24.235 115.32 24.235zm-28.51 27.57c6.209-4.879-4.436-15.524-9.102-16.854-4.648-1.331-13.075.443-9.084 10.644s18.185 6.21 18.185 6.21zm-101.89-6.422c3.992-10.202-4.435-11.976-9.083-10.645-4.666 1.33-15.311 11.975-9.102 16.854 0 0 14.193 3.992 18.185-6.21z"></path><path class="cls-6" d="M311.213 204.924a56.2 56.2 0 0 0 9.545 3.37 25.449 25.449 0 0 1-9.545-3.37zM303.922 157.43q-.267 1.118-.48 2.236.213-1.198.48-2.236zM303.123 193.002a23.7 23.7 0 0 1-.195-1.189 105.689 105.689 0 0 1-.87-15.648 150.514 150.514 0 0 0 1.065 16.837zM303.052 162.06c-.053.338-.106.675-.142 1.012.036-.337.089-.692.142-1.011z"></path><path class="cls-8" d="M285.4 346.128a90.8 90.8 0 0 1-5.11 32.662c-45.596-19.568-73.734 16.518-74.461 17.458-6.653-19.356-10.485-24.732-10.485-24.732l.018-.213a104.181 104.181 0 0 0 75.241-25.459v-.035a70.356 70.356 0 0 0 14.796.32z"></path><path class="cls-9" d="M280.29 378.79a86.161 86.161 0 0 1-1.455 3.992 49.926 49.926 0 0 1-27.694 27.96c-16.287 6.69-37.4 10.113-42.633-6.35-.94-2.963-1.845-5.66-2.679-8.144.727-.94 28.865-37.026 74.46-17.458z"></path><path class="cls-8" d="M268.474 282.632c4.666 1.33 15.311 11.975 9.101 16.854 0 0-14.193 3.992-18.185-6.21s4.436-11.975 9.084-10.644z"></path><path class="cls-5" d="M260.402 71.1l.142 1.402a337.046 337.046 0 0 0-63.266 12.046s-11.39-35.43 6.795-62.485C215.445 5.155 228.36 9.378 236.45 14.93a38.626 38.626 0 0 1 11.141 12.028c5.287 8.711 10.84 24.129 12.81 44.141zM227.651 111.214c1.703 13.75-25.353 15.523-25.353 15.523s-9.172.586-10.059-6.51c-.39-3.194 2.058-6.405 4.861-8.996a30.558 30.558 0 0 1 16.713-7.682c6.014-.745 12.915.107 13.838 7.665z"></path><path class="cls-3" d="M219.88 155.443c5.465 0 9.9 5.855 9.9 13.076a15.144 15.144 0 0 1-3.318 9.775c-1.029-11.638-4.293-18.61-8.498-22.603a7.668 7.668 0 0 1 1.916-.248z"></path><path class="cls-6" d="M226.462 178.294a130.094 130.094 0 0 1-.869 26.807 33.132 33.132 0 0 1-7.913 4.613 60.649 60.649 0 0 1-9.97 2.466c-.763.036-1.508.054-2.254.036h-.053c-3.317-.497-10.556-2.839-15.133-8.818a32.51 32.51 0 0 1-3.815-9.243c-1.685-11.851-.851-29.823 1.774-36.902a.252.252 0 0 1 .036-.107c.124-.301.266-.603.39-.887a4.774 4.774 0 0 1 .337-.674s17.795-10.52 28.972.106c-4.56 1.171-8.001 6.476-8.001 12.828 0 7.238 4.435 13.093 9.917 13.093a8.65 8.65 0 0 0 6.582-3.318z"></path><path class="cls-6" d="M225.593 205.101c-.071.64-.142 1.278-.23 1.917 0 0-3.513 1.348-7.683 2.696a33.132 33.132 0 0 0 7.913-4.613z"></path><path class="cls-3" d="M226.462 178.294a8.65 8.65 0 0 1-6.582 3.318c-5.482 0-9.917-5.855-9.917-13.093 0-6.352 3.442-11.657 8.001-12.828 4.205 3.992 7.47 10.965 8.498 22.603z"></path><path class="cls-6" d="M205.456 212.216c.746.018 1.49 0 2.254-.036a8.833 8.833 0 0 1-2.254.036zM188.655 156.26c-.124.283-.266.585-.39.886a8.309 8.309 0 0 1 .39-.887zM186.455 194.155a32.51 32.51 0 0 0 3.815 9.243 19.352 19.352 0 0 1-3.797-9.154.16.16 0 0 0-.018-.089z"></path><path class="cls-4" d="M164.51 109.191a53.696 53.696 0 0 1-3.319 6.884c-2.093 3.317-11.212 30.302-21.13 60.498-3.335-2.679-6.724-5.801-9.775-8.8a81.535 81.535 0 0 1-19.392-29.681c-7.593-20.19-15.044-52.639 7.718-66.992 34.312-21.627 70.487 16.038 70.487 16.038-6.618 2.236-10.929 4.081-12.366 5.004-6.387 4.045-9.651 11.177-12.224 17.05z"></path><path class="cls-8" d="M166.603 282.419c4.648-1.33 13.075.443 9.083 10.645s-18.185 6.21-18.185 6.21c-6.21-4.88 4.436-15.525 9.102-16.855z"></path><path class="cls-5" d="M727.264 968.402a60.586 60.586 0 0 0-1.255 11.337c-.04 2.718 3.262 3.082 4.658 1.262a17.892 17.892 0 0 0 3.164-14.82c-.51-2.392-4.3-2.377-4.821 0a37.623 37.623 0 0 0-.274 14.847c.373 2.103 3.63 2.436 4.57.597a19.951 19.951 0 0 0 2.244-10.83c-.252-3.165-4.991-3.262-5 0a22.249 22.249 0 0 1-.935 6.363c-.696 2.361 2.47 4.265 4.178 2.433a20.388 20.388 0 0 0 5.374-10.742l-4.821-1.329a2.658 2.658 0 0 1-.168.872q-.5 1.175 1.663-.142c.016-.35-.887-.948-1.116-1.105a4.69 4.69 0 0 0-3.36-.722 6.2 6.2 0 0 0-3.008 1.281c-.38.29-2.942 2.817-2.356 3.054l1.746 3.075.064-.298-1.746 1.746.327-.11-2.823-1.149.107.196c1.55 2.82 5.87.3 4.318-2.524l-.107-.195a2.526 2.526 0 0 0-2.824-1.15 2.814 2.814 0 0 0-2.137 2.155 2.589 2.589 0 0 0 1.746 3.075c1.842.745 3.43-.356 4.699-1.652.566-.578 1.269-2.02 2.038-2.31.922-.348.48-.2 1.187.573 2.736 3.001 6.164-.34 6.571-3.34.424-3.117-4.298-4.536-4.821-1.33a15.825 15.825 0 0 1-4.088 8.535l4.178 2.433a27.212 27.212 0 0 0 1.114-7.692h-5a15.102 15.102 0 0 1-1.562 8.306l4.57.597a31.103 31.103 0 0 1 .273-12.19h-4.821a13.115 13.115 0 0 1-2.66 10.968l4.659 1.262a53.284 53.284 0 0 1 1.077-10.008c.646-3.14-4.173-4.484-4.822-1.33z"></path><path class="cls-5" d="M722.261 973.035a28.494 28.494 0 0 0-2.287 7.367c-.496 3.116 3.848 4.473 4.822 1.33l.793-2.563-4.821-1.33-.79 3.245 4.91.665.049-1.72c.068-2.423-3.522-3.48-4.659-1.262a2.971 2.971 0 0 0 .902 4.004c1.68 1.082 3.352.14 4.538-1.143a42.44 42.44 0 0 0 7.658-12.676c1.23-2.97-3.605-4.265-4.821-1.33a40.375 40.375 0 0 1-3.152 6.075c-.5.792-1.024 1.572-1.576 2.328q-.638.88-1.34 1.711-1.115.983-.397.622l1.926.252.442.426v2.524l.138-.27-4.659-1.26-.048 1.719c-.08 2.803 4.24 3.416 4.91.664l.79-3.244a2.502 2.502 0 0 0-4.821-1.33l-.794 2.563 4.822 1.33a23.813 23.813 0 0 1 1.782-6.174c1.32-2.908-2.988-5.452-4.317-2.523z"></path><path class="cls-5" d="M729.86 967.32a5.207 5.207 0 0 0-3.304-2.324c-1.209-.257-2.85.348-3.075 1.746a15.952 15.952 0 0 1-2.2 5.991l4.659 1.262-.941-7.038c-.412-3.077-5.124-3.315-5 0a49.077 49.077 0 0 1-.62 10.108l4.821 1.329a18.138 18.138 0 0 0-2.19-12.143c-1.615-2.782-5.937-.268-4.318 2.524a12.633 12.633 0 0 1 1.687 8.29c-.475 3.13 4.278 4.52 4.821 1.329a55.486 55.486 0 0 0 .799-11.437h-5l.94 7.038c.313 2.332 3.242 3.56 4.66 1.262a19.532 19.532 0 0 0 2.703-7.186l-3.075 1.746.315.027c1.87 2.582 6.21.09 4.318-2.523z"></path><path class="cls-5" d="M718.667 982.406l-.06.412a1.543 1.543 0 0 0 .69 1.694c2.882 1.221 4.625-1.242 5.084-3.948.192-1.132-1.032-2.55-2.203-1.694a7.44 7.44 0 0 0-3.347 5.052 1.513 1.513 0 0 0 2.507 1.46q5.931-5.247 12.164-10.12l-2.507-.663 1.35 5.395a1.51 1.51 0 0 0 2.506.662l4.406-5.61-2.507-.661-.171 3.408 2.946.399a109.884 109.884 0 0 1 2.522-18.72c.42-1.88-2.471-2.683-2.893-.797a114.456 114.456 0 0 0-2.629 19.517 1.507 1.507 0 0 0 2.947.398 11.636 11.636 0 0 0 .171-5.003 1.507 1.507 0 0 0-2.507-.662l-4.406 5.61 2.507.662-1.349-5.395a1.521 1.521 0 0 0-2.507-.662q-6.237 4.877-12.164 10.12l2.507 1.46 1.968-3.26-2.204-1.694-.677 2.156.689 1.694.06-.413c.276-1.888-2.614-2.703-2.893-.797z"></path><path class="cls-5" d="M739.187 960.123a14.607 14.607 0 0 0 .744 8.775c1.277 3.055 5.643 2.762 5.893-.797l.378-5.394c.225-3.207-4.042-3.752-5.59-1.514a5.557 5.557 0 0 0-.11 6.364 3.036 3.036 0 0 0 5.483-.717 38.231 38.231 0 0 0 1.263-14.075l-5.59 1.514.256 1.494 5.892.798a16.857 16.857 0 0 0-.804-7.88c-1.238-3.635-7.035-2.075-5.785 1.595a13.092 13.092 0 0 1 .59 6.284c-.444 3.335 5.241 4.101 5.892.798a8.384 8.384 0 0 0-.86-6.118c-1.334-2.527-5.882-1.482-5.59 1.515a33.63 33.63 0 0 1-1.05 12.48l5.484-.717.11-.307-5.59-1.514-.379 5.394 5.893-.798a9.105 9.105 0 0 1-.744-5.585c.722-3.773-5.06-5.39-5.786-1.595z"></path><path class="cls-5" d="M741.041 951.84a6.081 6.081 0 0 0-3.031-.974 3.004 3.004 0 0 0-2.893 2.203l-2.517 9.523h5.786l-2.126-9.623c-.794-3.594-5.499-2.286-5.893.797l-1.55 12.12 5.893-.797-2.479-9.691c-.891-3.486-5.561-2.395-5.892.797a92.386 92.386 0 0 0-.437 12.836l5.893-.797a54.575 54.575 0 0 0-2.595-8.735c-.99-2.539-5.052-3.146-5.786 0a45.758 45.758 0 0 0-1.224 10.602l5.59-1.514a8.971 8.971 0 0 1-1.182-6.192c.324-2.514-3.553-4.055-5.121-2.122a9.9 9.9 0 0 0-2.494 7.475l5.893-.797a11.481 11.481 0 0 1-.727-2.328c3.862.096 3.86-5.904 0-6-5.705-.141-6.639 5.582-5.059 9.923 1.07 2.94 6.238 2.808 5.893-.798a3.943 3.943 0 0 1 .736-3.232l-5.12-2.121a14.088 14.088 0 0 0 2 9.22 3.024 3.024 0 0 0 5.591-1.514 38.633 38.633 0 0 1 1.01-9.007h-5.786a54.575 54.575 0 0 1 2.596 8.735c.691 3.31 6.012 2.571 5.892-.798a92.387 92.387 0 0 1 .437-12.836l-5.893.798 2.478 9.691c.906 3.541 5.492 2.336 5.893-.797l1.55-12.12-5.893.797 2.127 9.623c.647 2.933 5.05 2.783 5.785 0l2.517-9.523-2.893 2.202.003.154c3.22 2.15 6.228-3.045 3.028-5.181z"></path><path class="cls-5" d="M736.534 955.686l-.976.93-3.69-2.096c.52 2.687 3.637 3.871 6.02 2.841a4.85 4.85 0 0 0 2.568-2.866c.286-.778.141-3.168.687-3.727h-4.242a6.359 6.359 0 0 0 4.329 1.856 3.075 3.075 0 0 0 2.893-2.202 12.104 12.104 0 0 0 .895-4.898l-4.514 2.59 3.029 1.43c3.472 1.64 6.521-3.53 3.028-5.18l-3.029-1.43c-1.98-.936-4.548.157-4.514 2.59a7.836 7.836 0 0 1-.681 3.303l2.893-2.203-.087-.098a3.048 3.048 0 0 0-4.242 0 6.155 6.155 0 0 0-1.665 2.883 10.714 10.714 0 0 0-.21 1.428q-.042.473-.07.947-.265 1.687 2.697 1.141c-.324-1.675-2.202-2.386-3.69-2.095a3.877 3.877 0 0 0-3.215 3.26 3.1 3.1 0 0 0 2.095 3.691c1.418.407 3.445-.497 3.69-2.095z"></path><path class="cls-5" d="M745.97 942.532l.115.013-.757-.205.09.062-.537-.538.001-.967.538-.538-.104.059.757-.205.135.017.662.385.203.84a1.485 1.485 0 0 0-.538-1.577 1.541 1.541 0 0 0-1.666-.117 2.869 2.869 0 0 0-1.44 3.316 1.512 1.512 0 0 0 2.893 0 5.034 5.034 0 0 0-1.13-4.394 1.512 1.512 0 0 0-2.508.661l-1.028 3.394c-.56 1.852 2.334 2.644 2.893.798l1.028-3.394-2.507.662a1.804 1.804 0 0 1 .359 1.475h2.893c.033.13-.285.24.061.072l-2.203-1.694a1.928 1.928 0 0 0 2.754 2.292 1.86 1.86 0 0 0-.964-3.418 1.509 1.509 0 0 0-1.5 1.5 1.536 1.536 0 0 0 1.5 1.5zM716.519 958.559a7.251 7.251 0 0 0-.338 3.197 1.501 1.501 0 0 0 3 0 6.854 6.854 0 0 0-.69-3.908c-.707-1.524-3.366-.432-2.743 1.155.763 1.94 2.863 2.173 4.255.673.87-.938 1.343-1.92 2.492-2.596a6.297 6.297 0 0 1 3.923-.773c1.92.182 1.908-2.82 0-3a9.038 9.038 0 0 0-4.961.926c-.397.2-4.122 2.894-3.376 3.404l.689.896-.129-.327-2.741 1.156a4.09 4.09 0 0 1 .28 2.394h3a5.231 5.231 0 0 1 .232-2.4c.605-1.837-2.291-2.625-2.893-.797z"></path><ellipse class="cls-3" cx="272.78" cy="168.564" rx="108.263" ry="63.151"></ellipse><path class="cls-4" d="M750.51 943.732c3.992 34.596-8.871 28.386-8.871 28.386-5.322 20.403-13.75 12.863-13.75 12.863-.887 1.774-10.733 4.435-10.733 4.435a267.336 267.336 0 0 0-2.13-29.717c-5.109-38.783-16.375-77.264-35.145-110.565.763.195 20.332 5.518 33.372 31.616 13.306 26.612 36.955 60.338 37.257 62.982z"></path><path class="cls-4" d="M233.24 186.739h-.018s9.58-49.055-18.806-50.244a34.754 34.754 0 0 0-25.424 19.09 4.774 4.774 0 0 0-.337.674 8.309 8.309 0 0 0-.39.887.252.252 0 0 0-.036.107c-2.91 6.741-4.47 15.665-3.37 27.446a58.772 58.772 0 0 0 1.596 9.456.16.16 0 0 1 .018.089 19.352 19.352 0 0 0 3.797 9.154 17.767 17.767 0 0 0 15.133 8.818h.053a8.833 8.833 0 0 0 2.254-.036 31.892 31.892 0 0 0 9.97-2.466c4.17-1.348 7.682-2.697 7.682-2.697.089-.638.16-1.277.23-1.916a7.43 7.43 0 0 0 2.2-2.43 91.48 91.48 0 0 0 5.448-15.932zm68.819-10.574a105.689 105.689 0 0 0 .869 15.648c.053.408.124.798.195 1.189.302 2.466.639 4.843 1.011 7.114.533 1.118 3.194 2.998 7.08 4.808a25.449 25.449 0 0 0 9.544 3.37h.018c7.043 1.81 15.169 2.414 21.982-.265.337-.018.514-.036.514-.036 0-.053.018-.124.018-.177 6.582-2.786 11.869-8.764 13.66-19.87 1.74-10.805.746-19.286-1.72-25.956-4.968-13.395-15.967-19.427-22.975-21.982a20.894 20.894 0 0 0-15.4.177c-6.76 2.91-10.503 8.8-12.472 15.506-.16.533-.32 1.118-.461 1.74q-.267 1.037-.48 2.234a42.268 42.268 0 0 0-.39 2.396c-.053.319-.106.674-.142 1.01a109.187 109.187 0 0 0-.851 13.094zm106.768-76.058s39.883-38.978 74.195-17.35c22.762 14.352 18.114 47.972 10.538 68.18 0 0-11.585 40.486-53.899 57.606 2.963 50.155 6.387 106.272 6.139 119.116-.444 23.508 0 27.5-12.419 38.145a107.432 107.432 0 0 1-9.776 7.185s-32.36 111.771 44.283 365.758h.018l1.72-.532c25.726-7.842 102.582 7.7 155.806 47.618 22.603 16.96 40.575 38.712 54.431 63.301h.018c18.77 33.301 30.036 71.782 35.146 110.565a267.336 267.336 0 0 1 2.129 29.717c1.242 61.687-14.548 130.861-19.87 157.828-6.21 31.42-22.178 36.885-50.564 43.981s-54.111 4.436-71.108-14.193c-16.819-18.415-18.486-76.057-18.522-77.37a247.64 247.64 0 0 1-36.033 2.59c-5.588 41.249-21.147 74.425-33.123 95.183-13.306 23.064-93.143 21.29-113.545 0-10.805-11.266-20.35-50.847-26.95-85.62 0 0-4.098 51.911-12.969 71.178-8.728 18.966-100.239 30.445-122.416-11.514-22-41.64-36.92-180.076-37.718-184.316 0-.035-.018-.053-.018-.07-23.135-93.357-8.16-195.05-8.16-195.05.247-5.323 17.51-125.965 24.607-168.545s8.817-199.29 8.817-199.29a147.832 147.832 0 0 0 47.955-.301s63.87-6.511 78.063-60.321-19.516-91.67-19.516-91.67-34.294-46.713-115.32-24.235c-80.705 22.372-62.84 109.944-62.112 112.907-.781-1.26-26.027-42.083-26.595-51.415-.585-9.456 4.737-30.16 18.327-72.137 5.553-17.174 12.81-39.581 19.675-60.463 9.918-30.196 19.037-57.18 21.13-60.498a53.696 53.696 0 0 0 3.318-6.884c2.573-5.872 5.837-13.004 12.224-17.05 1.437-.922 5.748-2.767 12.366-5.003q3.646-1.224 8.179-2.59a337.046 337.046 0 0 1 63.266-12.046c23.95-2.218 51.113-2.147 78.79 2.856a221.124 221.124 0 0 1 61.775 20.58 180.943 180.943 0 0 1 7.718 4.17zm-70.629 20.12c2.555-7.186-3.211-11.036-8.942-13.058a30.256 30.256 0 0 0-18.38-.621c-3.672 1.046-7.292 2.82-8.374 5.854-2.377 6.742 6.068 10.326 6.068 10.326s24.98 10.538 29.628-2.502zm-135.9 6.51s27.056-1.774 25.353-15.523c-.923-7.558-7.824-8.41-13.838-7.665a30.558 30.558 0 0 0-16.713 7.682c-2.803 2.59-5.251 5.802-4.861 8.995.887 7.097 10.06 6.511 10.06 6.511z"></path><path class="cls-5" d="M400.169 30.774c7.043 16.517 5.518 28.226.94 65.164a221.124 221.124 0 0 0-61.775-20.58s-3.992-34.809 19.09-57.82c14.44-14.388 26.292-7.735 33.158-.727 3.868 3.939 6.423 8.871 8.587 13.963z"></path><path class="cls-3" d="M351.043 163.427a14.9 14.9 0 0 1 .887 5.092c0 5.66-3.123 10.467-7.487 12.277-.887-12.1-4.063-19.711-8.232-24.377a9.826 9.826 0 0 1 4.293-.976c4.737 0 8.8 3.3 10.539 7.984z"></path><path class="cls-6" d="M302.91 163.072c.036-.337.089-.674.142-1.011.107-.834.249-1.633.39-2.395q.213-1.118.48-2.236c.141-.62.301-1.206.46-1.739a11.603 11.603 0 0 1 1.065-2.537s19.232-9.65 30.764 3.265c-4.17 1.916-7.114 6.617-7.114 12.1 0 7.238 5.11 13.093 11.407 13.093a9.845 9.845 0 0 0 3.939-.816 135.955 135.955 0 0 1-1.153 27.02l-.532.213c-2.963.16-17.76.905-21.982.266h-.018a56.2 56.2 0 0 1-9.545-3.37 17.581 17.581 0 0 1-8.09-11.923 150.514 150.514 0 0 1-1.064-16.837 109.187 109.187 0 0 1 .851-13.093zM343.29 207.816c0 .053-.018.124-.018.177 0 0-.177.018-.514.036z"></path><path class="cls-3" d="M344.443 180.796a9.845 9.845 0 0 1-3.939.816c-6.298 0-11.407-5.855-11.407-13.093 0-5.483 2.945-10.184 7.114-12.1 4.17 4.666 7.345 12.277 8.232 24.377z"></path><path class="cls-5" d="M329.256 107.169c5.73 2.022 11.497 5.872 8.942 13.057-4.648 13.04-29.628 2.502-29.628 2.502s-8.445-3.584-6.068-10.326c1.082-3.033 4.702-4.808 8.374-5.854a30.256 30.256 0 0 1 18.38.62z"></path><path class="cls-7" d="M285.4 346.128a70.356 70.356 0 0 1-14.797-.319v.035a104.181 104.181 0 0 1-75.241 25.46l-.018.212s3.832 5.376 10.485 24.732c.834 2.484 1.739 5.18 2.679 8.143 5.234 16.464 26.346 13.04 42.633 6.352a49.926 49.926 0 0 0 27.694-27.96 86.208 86.208 0 0 0 1.455-3.993 90.8 90.8 0 0 0 5.11-32.662zm20.686-74.212s33.709 37.86 19.516 91.67-78.063 60.321-78.063 60.321a147.832 147.832 0 0 1-47.955.302c-27.783-4.684-59.487-20.013-70.913-63.586a.055.055 0 0 0-.017-.035c-.728-2.963-18.593-90.535 62.112-112.907 81.026-22.478 115.32 24.235 115.32 24.235zm-28.51 27.57c6.209-4.879-4.436-15.524-9.102-16.854-4.648-1.331-13.075.443-9.084 10.644s18.185 6.21 18.185 6.21zm-101.89-6.422c3.992-10.202-4.435-11.976-9.083-10.645-4.666 1.33-15.311 11.975-9.102 16.854 0 0 14.193 3.992 18.185-6.21z"></path><path class="cls-6" d="M311.213 204.924a56.2 56.2 0 0 0 9.545 3.37 25.449 25.449 0 0 1-9.545-3.37zM303.922 157.43q-.267 1.118-.48 2.236.213-1.198.48-2.236zM303.123 193.002a23.7 23.7 0 0 1-.195-1.189 105.689 105.689 0 0 1-.87-15.648 150.514 150.514 0 0 0 1.065 16.837zM303.052 162.06c-.053.338-.106.675-.142 1.012.036-.337.089-.692.142-1.011z"></path><path class="cls-8" d="M285.4 346.128a90.8 90.8 0 0 1-5.11 32.662c-45.596-19.568-73.734 16.518-74.461 17.458-6.653-19.356-10.485-24.732-10.485-24.732l.018-.213a104.181 104.181 0 0 0 75.241-25.459v-.035a70.356 70.356 0 0 0 14.796.32z"></path><path class="cls-9" d="M280.29 378.79a86.161 86.161 0 0 1-1.455 3.992 49.926 49.926 0 0 1-27.694 27.96c-16.287 6.69-37.4 10.113-42.633-6.35-.94-2.963-1.845-5.66-2.679-8.144.727-.94 28.865-37.026 74.46-17.458z"></path><path class="cls-8" d="M268.474 282.632c4.666 1.33 15.311 11.975 9.101 16.854 0 0-14.193 3.992-18.185-6.21s4.436-11.975 9.084-10.644z"></path><path class="cls-5" d="M260.402 71.1l.142 1.402a337.046 337.046 0 0 0-63.266 12.046s-11.39-35.43 6.795-62.485C215.445 5.155 228.36 9.378 236.45 14.93a38.626 38.626 0 0 1 11.141 12.028c5.287 8.711 10.84 24.129 12.81 44.141zM227.651 111.214c1.703 13.75-25.353 15.523-25.353 15.523s-9.172.586-10.059-6.51c-.39-3.194 2.058-6.405 4.861-8.996a30.558 30.558 0 0 1 16.713-7.682c6.014-.745 12.915.107 13.838 7.665z"></path><path class="cls-3" d="M219.88 155.443c5.465 0 9.9 5.855 9.9 13.076a15.144 15.144 0 0 1-3.318 9.775c-1.029-11.638-4.293-18.61-8.498-22.603a7.668 7.668 0 0 1 1.916-.248z"></path><path class="cls-6" d="M226.462 178.294a130.094 130.094 0 0 1-.869 26.807 33.132 33.132 0 0 1-7.913 4.613 60.649 60.649 0 0 1-9.97 2.466c-.763.036-1.508.054-2.254.036h-.053c-3.317-.497-10.556-2.839-15.133-8.818a32.51 32.51 0 0 1-3.815-9.243c-1.685-11.851-.851-29.823 1.774-36.902a.252.252 0 0 1 .036-.107c.124-.301.266-.603.39-.887a4.774 4.774 0 0 1 .337-.674s17.795-10.52 28.972.106c-4.56 1.171-8.001 6.476-8.001 12.828 0 7.238 4.435 13.093 9.917 13.093a8.65 8.65 0 0 0 6.582-3.318z"></path><path class="cls-6" d="M225.593 205.101c-.071.64-.142 1.278-.23 1.917 0 0-3.513 1.348-7.683 2.696a33.132 33.132 0 0 0 7.913-4.613z"></path><path class="cls-3" d="M226.462 178.294a8.65 8.65 0 0 1-6.582 3.318c-5.482 0-9.917-5.855-9.917-13.093 0-6.352 3.442-11.657 8.001-12.828 4.205 3.992 7.47 10.965 8.498 22.603z"></path><path class="cls-6" d="M205.456 212.216c.746.018 1.49 0 2.254-.036a8.833 8.833 0 0 1-2.254.036zM188.655 156.26c-.124.283-.266.585-.39.886a8.309 8.309 0 0 1 .39-.887zM186.455 194.155a32.51 32.51 0 0 0 3.815 9.243 19.352 19.352 0 0 1-3.797-9.154.16.16 0 0 0-.018-.089z"></path><path class="cls-4" d="M164.51 109.191a53.696 53.696 0 0 1-3.319 6.884c-2.093 3.317-11.212 30.302-21.13 60.498-3.335-2.679-6.724-5.801-9.775-8.8a81.535 81.535 0 0 1-19.392-29.681c-7.593-20.19-15.044-52.639 7.718-66.992 34.312-21.627 70.487 16.038 70.487 16.038-6.618 2.236-10.929 4.081-12.366 5.004-6.387 4.045-9.651 11.177-12.224 17.05z"></path><path class="cls-8" d="M166.603 282.419c4.648-1.33 13.075.443 9.083 10.645s-18.185 6.21-18.185 6.21c-6.21-4.88 4.436-15.525 9.102-16.855z"></path><path class="cls-5" d="M727.264 968.402a60.586 60.586 0 0 0-1.255 11.337c-.04 2.718 3.262 3.082 4.658 1.262a17.892 17.892 0 0 0 3.164-14.82c-.51-2.392-4.3-2.377-4.821 0a37.623 37.623 0 0 0-.274 14.847c.373 2.103 3.63 2.436 4.57.597a19.951 19.951 0 0 0 2.244-10.83c-.252-3.165-4.991-3.262-5 0a22.249 22.249 0 0 1-.935 6.363c-.696 2.361 2.47 4.265 4.178 2.433a20.388 20.388 0 0 0 5.374-10.742l-4.821-1.329a2.658 2.658 0 0 1-.168.872q-.5 1.175 1.663-.142c.016-.35-.887-.948-1.116-1.105a4.69 4.69 0 0 0-3.36-.722 6.2 6.2 0 0 0-3.008 1.281c-.38.29-2.942 2.817-2.356 3.054l1.746 3.075.064-.298-1.746 1.746.327-.11-2.823-1.149.107.196c1.55 2.82 5.87.3 4.318-2.524l-.107-.195a2.526 2.526 0 0 0-2.824-1.15 2.814 2.814 0 0 0-2.137 2.155 2.589 2.589 0 0 0 1.746 3.075c1.842.745 3.43-.356 4.699-1.652.566-.578 1.269-2.02 2.038-2.31.922-.348.48-.2 1.187.573 2.736 3.001 6.164-.34 6.571-3.34.424-3.117-4.298-4.536-4.821-1.33a15.825 15.825 0 0 1-4.088 8.535l4.178 2.433a27.212 27.212 0 0 0 1.114-7.692h-5a15.102 15.102 0 0 1-1.562 8.306l4.57.597a31.103 31.103 0 0 1 .273-12.19h-4.821a13.115 13.115 0 0 1-2.66 10.968l4.659 1.262a53.284 53.284 0 0 1 1.077-10.008c.646-3.14-4.173-4.484-4.822-1.33z"></path><path class="cls-5" d="M722.261 973.035a28.494 28.494 0 0 0-2.287 7.367c-.496 3.116 3.848 4.473 4.822 1.33l.793-2.563-4.821-1.33-.79 3.245 4.91.665.049-1.72c.068-2.423-3.522-3.48-4.659-1.262a2.971 2.971 0 0 0 .902 4.004c1.68 1.082 3.352.14 4.538-1.143a42.44 42.44 0 0 0 7.658-12.676c1.23-2.97-3.605-4.265-4.821-1.33a40.375 40.375 0 0 1-3.152 6.075c-.5.792-1.024 1.572-1.576 2.328q-.638.88-1.34 1.711-1.115.983-.397.622l1.926.252.442.426v2.524l.138-.27-4.659-1.26-.048 1.719c-.08 2.803 4.24 3.416 4.91.664l.79-3.244a2.502 2.502 0 0 0-4.821-1.33l-.794 2.563 4.822 1.33a23.813 23.813 0 0 1 1.782-6.174c1.32-2.908-2.988-5.452-4.317-2.523z"></path><path class="cls-5" d="M729.86 967.32a5.207 5.207 0 0 0-3.304-2.324c-1.209-.257-2.85.348-3.075 1.746a15.952 15.952 0 0 1-2.2 5.991l4.659 1.262-.941-7.038c-.412-3.077-5.124-3.315-5 0a49.077 49.077 0 0 1-.62 10.108l4.821 1.329a18.138 18.138 0 0 0-2.19-12.143c-1.615-2.782-5.937-.268-4.318 2.524a12.633 12.633 0 0 1 1.687 8.29c-.475 3.13 4.278 4.52 4.821 1.329a55.486 55.486 0 0 0 .799-11.437h-5l.94 7.038c.313 2.332 3.242 3.56 4.66 1.262a19.532 19.532 0 0 0 2.703-7.186l-3.075 1.746.315.027c1.87 2.582 6.21.09 4.318-2.523z"></path><path class="cls-5" d="M718.667 982.406l-.06.412a1.543 1.543 0 0 0 .69 1.694c2.882 1.221 4.625-1.242 5.084-3.948.192-1.132-1.032-2.55-2.203-1.694a7.44 7.44 0 0 0-3.347 5.052 1.513 1.513 0 0 0 2.507 1.46q5.931-5.247 12.164-10.12l-2.507-.663 1.35 5.395a1.51 1.51 0 0 0 2.506.662l4.406-5.61-2.507-.661-.171 3.408 2.946.399a109.884 109.884 0 0 1 2.522-18.72c.42-1.88-2.471-2.683-2.893-.797a114.456 114.456 0 0 0-2.629 19.517 1.507 1.507 0 0 0 2.947.398 11.636 11.636 0 0 0 .171-5.003 1.507 1.507 0 0 0-2.507-.662l-4.406 5.61 2.507.662-1.349-5.395a1.521 1.521 0 0 0-2.507-.662q-6.237 4.877-12.164 10.12l2.507 1.46 1.968-3.26-2.204-1.694-.677 2.156.689 1.694.06-.413c.276-1.888-2.614-2.703-2.893-.797z"></path><path class="cls-5" d="M739.187 960.123a14.607 14.607 0 0 0 .744 8.775c1.277 3.055 5.643 2.762 5.893-.797l.378-5.394c.225-3.207-4.042-3.752-5.59-1.514a5.557 5.557 0 0 0-.11 6.364 3.036 3.036 0 0 0 5.483-.717 38.231 38.231 0 0 0 1.263-14.075l-5.59 1.514.256 1.494 5.892.798a16.857 16.857 0 0 0-.804-7.88c-1.238-3.635-7.035-2.075-5.785 1.595a13.092 13.092 0 0 1 .59 6.284c-.444 3.335 5.241 4.101 5.892.798a8.384 8.384 0 0 0-.86-6.118c-1.334-2.527-5.882-1.482-5.59 1.515a33.63 33.63 0 0 1-1.05 12.48l5.484-.717.11-.307-5.59-1.514-.379 5.394 5.893-.798a9.105 9.105 0 0 1-.744-5.585c.722-3.773-5.06-5.39-5.786-1.595z"></path><path class="cls-5" d="M741.041 951.84a6.081 6.081 0 0 0-3.031-.974 3.004 3.004 0 0 0-2.893 2.203l-2.517 9.523h5.786l-2.126-9.623c-.794-3.594-5.499-2.286-5.893.797l-1.55 12.12 5.893-.797-2.479-9.691c-.891-3.486-5.561-2.395-5.892.797a92.386 92.386 0 0 0-.437 12.836l5.893-.797a54.575 54.575 0 0 0-2.595-8.735c-.99-2.539-5.052-3.146-5.786 0a45.758 45.758 0 0 0-1.224 10.602l5.59-1.514a8.971 8.971 0 0 1-1.182-6.192c.324-2.514-3.553-4.055-5.121-2.122a9.9 9.9 0 0 0-2.494 7.475l5.893-.797a11.481 11.481 0 0 1-.727-2.328c3.862.096 3.86-5.904 0-6-5.705-.141-6.639 5.582-5.059 9.923 1.07 2.94 6.238 2.808 5.893-.798a3.943 3.943 0 0 1 .736-3.232l-5.12-2.121a14.088 14.088 0 0 0 2 9.22 3.024 3.024 0 0 0 5.591-1.514 38.633 38.633 0 0 1 1.01-9.007h-5.786a54.575 54.575 0 0 1 2.596 8.735c.691 3.31 6.012 2.571 5.892-.798a92.387 92.387 0 0 1 .437-12.836l-5.893.798 2.478 9.691c.906 3.541 5.492 2.336 5.893-.797l1.55-12.12-5.893.797 2.127 9.623c.647 2.933 5.05 2.783 5.785 0l2.517-9.523-2.893 2.202.003.154c3.22 2.15 6.228-3.045 3.028-5.181z"></path><path class="cls-5" d="M736.534 955.686l-.976.93-3.69-2.096c.52 2.687 3.637 3.871 6.02 2.841a4.85 4.85 0 0 0 2.568-2.866c.286-.778.141-3.168.687-3.727h-4.242a6.359 6.359 0 0 0 4.329 1.856 3.075 3.075 0 0 0 2.893-2.202 12.104 12.104 0 0 0 .895-4.898l-4.514 2.59 3.029 1.43c3.472 1.64 6.521-3.53 3.028-5.18l-3.029-1.43c-1.98-.936-4.548.157-4.514 2.59a7.836 7.836 0 0 1-.681 3.303l2.893-2.203-.087-.098a3.048 3.048 0 0 0-4.242 0 6.155 6.155 0 0 0-1.665 2.883 10.714 10.714 0 0 0-.21 1.428q-.042.473-.07.947-.265 1.687 2.697 1.141c-.324-1.675-2.202-2.386-3.69-2.095a3.877 3.877 0 0 0-3.215 3.26 3.1 3.1 0 0 0 2.095 3.691c1.418.407 3.445-.497 3.69-2.095z"></path><path class="cls-5" d="M745.97 942.532l.115.013-.757-.205.09.062-.537-.538.001-.967.538-.538-.104.059.757-.205.135.017.662.385.203.84a1.485 1.485 0 0 0-.538-1.577 1.541 1.541 0 0 0-1.666-.117 2.869 2.869 0 0 0-1.44 3.316 1.512 1.512 0 0 0 2.893 0 5.034 5.034 0 0 0-1.13-4.394 1.512 1.512 0 0 0-2.508.661l-1.028 3.394c-.56 1.852 2.334 2.644 2.893.798l1.028-3.394-2.507.662a1.804 1.804 0 0 1 .359 1.475h2.893c.033.13-.285.24.061.072l-2.203-1.694a1.928 1.928 0 0 0 2.754 2.292 1.86 1.86 0 0 0-.964-3.418 1.509 1.509 0 0 0-1.5 1.5 1.536 1.536 0 0 0 1.5 1.5zM716.519 958.559a7.251 7.251 0 0 0-.338 3.197 1.501 1.501 0 0 0 3 0 6.854 6.854 0 0 0-.69-3.908c-.707-1.524-3.366-.432-2.743 1.155.763 1.94 2.863 2.173 4.255.673.87-.938 1.343-1.92 2.492-2.596a6.297 6.297 0 0 1 3.923-.773c1.92.182 1.908-2.82 0-3a9.038 9.038 0 0 0-4.961.926c-.397.2-4.122 2.894-3.376 3.404l.689.896-.129-.327-2.741 1.156a4.09 4.09 0 0 1 .28 2.394h3a5.231 5.231 0 0 1 .232-2.4c.605-1.837-2.291-2.625-2.893-.797z"></path><path class="cls-10" d="M166.395 945.524s17.832 117.584 22.808 142.669 14.165 78.566 26.965 89.523 35.947 22.361 57.51 22.289 56.517-4.11 60.794-17.01 12.97-71.18 12.97-71.18-14.152 64.923-66.194 57.826-73.438-118.276-81.664-166.77-19.848-215.64-19.096-266.623l.752-50.982s-33.893 215.92-14.845 260.258z"></path><path class="cls-11" d="M238.668 1074.133s66.152 42.544 108.773 37.683l-1.437-9.568s-94.325-14.81-107.336-28.115z"></path><path class="cls-12" d="M521.053 1102.248s83.036-4.164 99.621-28.115 16.323-23.441 18.877-36.784-111.105-42.757-117.02-40.392c0 0 8.87 85.208-1.478 105.29z"></path><path class="cls-13" d="M358.565 1160.73s23.907 47.09 102.216 32.14c0 0 35.73-13.767 36.913-66.991s20.905-127.854 23.365-123.008 1.451 94.964-1.565 109.332-25.94 75.365-28.981 80.667l-3.042 5.302s-24.05 15.537-42.468 15.593-50.027-2.116-60.32-9.223-26.862-23.154-26.118-43.812z"></path><path class="cls-14" d="M628.44 1062.864s-3.419 19.387-35.012 49.339 10.527 83.609 25.21 82.63c0 0-39.426-4.248-46.856-23.056s-17.316-71.92-17.316-71.92 62.864-11.478 73.974-36.993z"></path><path class="cls-15" d="M496.511 736.248c-3.712.276 127.427 18.834 172.972 121.143s28.539 303.848-4.8 328.747c0 0 18.022-6.517 23.017-15.091s18.445-68.8 18.445-68.8 11.402-76.08 11.02-99.6-14.566-102.37-19.715-115.32-49.908-82.293-55.125-87.113-91.407-68.015-145.814-63.966z"></path><path class="cls-5" d="M432.579 596.492s-6.442-4.631-18.27 15.197-44.354 27.482-54.407 25.117-27.204-10.645-30.16-35.483 23.063-33.118 24.837-49.085-1.774-37.848 17.742-54.999 44.501-4.73 44.501-4.73 14.608 97.95 15.757 103.983z"></path><path class="cls-6" d="M432.633 596.576c-.259-.034-.248-.095-.358-.127-.085-.04-.179-.064-.267-.096a3.81 3.81 0 0 0-.555-.131 4.596 4.596 0 0 0-1.142-.022 7.267 7.267 0 0 0-2.212.593 15.675 15.675 0 0 0-3.84 2.57 39.305 39.305 0 0 0-6.022 7.116c-1.828 2.548-3.246 5.3-5.079 7.95a42.07 42.07 0 0 1-6.374 7.108 60.967 60.967 0 0 1-16.075 10.145 80.213 80.213 0 0 1-18.172 5.616 44.005 44.005 0 0 1-9.573.777 20.172 20.172 0 0 1-2.453-.258c-.846-.14-1.593-.374-2.376-.575a44.37 44.37 0 0 1-4.55-1.567 37.737 37.737 0 0 1-15.318-11.32 42.706 42.706 0 0 1-2.793-3.903l-1.159-2.1-.577-1.049-.48-1.096-.956-2.193c-.285-.744-.512-1.509-.77-2.261a37.92 37.92 0 0 1-1.252-4.598l-.273-1.158c-.077-.39-.122-.784-.185-1.175l-.35-2.352-.168-1.177-.088-1.19c-.08-.793-.084-1.59-.086-2.385a28.452 28.452 0 0 1 1.49-9.39c2.02-6.085 6.037-11.185 10.213-15.855 2.098-2.351 4.27-4.625 6.319-6.993a36.167 36.167 0 0 0 5.306-7.645 18.9 18.9 0 0 0 1.462-4.35c.27-1.487.325-3.084.458-4.632.183-3.126.268-6.266.381-9.413.145-3.147.268-6.304.639-9.453.127-1.579.422-3.143.636-4.716.133-.783.315-1.56.47-2.34.167-.777.304-1.562.539-2.326 3.068-12.379 11.246-23.641 22.806-29.582a37.34 37.34 0 0 1 9.147-3.122 42.524 42.524 0 0 1 9.62-.76 49.625 49.625 0 0 1 9.53 1.324 48.62 48.62 0 0 1 9.137 3.115l.483.225.081.55 3.89 26.26 3.686 26.215zm-.108-.168l-4.266-26.26-4.281-25.977-4.192-25.778-3.989-25.732.564.776a49.082 49.082 0 0 0-17.825-4.187 40.457 40.457 0 0 0-9.148.647 35.337 35.337 0 0 0-8.673 2.883 41.446 41.446 0 0 0-14.03 11.726 46.375 46.375 0 0 0-8.143 16.495 90.368 90.368 0 0 0-2.604 18.496c-.183 3.134-.326 6.278-.567 9.426-.167 1.58-.24 3.134-.56 4.74a19.764 19.764 0 0 1-1.616 4.535 39.548 39.548 0 0 1-5.506 7.749c-2.082 2.373-4.27 4.633-6.375 6.959-4.224 4.595-8.109 9.693-10.022 15.644a27.7 27.7 0 0 0-1.368 9.162 20.17 20.17 0 0 0 .13 2.323l.111 1.158.193 1.153.396 2.305c.07.383.123.77.207 1.149l.295 1.13a36.902 36.902 0 0 0 1.326 4.465c.269.728.506 1.468.8 2.185l.977 2.108.489 1.053.582 1.003 1.164 2.004a41.333 41.333 0 0 0 2.774 3.7c.516.572.967 1.203 1.533 1.727l1.646 1.62a40.48 40.48 0 0 0 11.682 7.297 42.651 42.651 0 0 0 4.373 1.472 17.325 17.325 0 0 0 4.443.738 47.187 47.187 0 0 0 9.195-.727 78.565 78.565 0 0 0 17.83-5.343 63.605 63.605 0 0 0 15.85-9.68 40.86 40.86 0 0 0 6.336-6.769c.921-1.242 1.717-2.564 2.589-3.9l1.285-1.992 1.387-1.926a39.988 39.988 0 0 1 6.373-7.036 15.836 15.836 0 0 1 4.056-2.513 7.612 7.612 0 0 1 2.346-.519 4.87 4.87 0 0 1 1.206.077 4.041 4.041 0 0 1 .584.166c.095.039.191.069.283.116.063.06.256.075.16.152z"></path><path class="cls-5" d="M185.675 655.765s22.242 21.846 54.176 7.061 7.688-37.848 8.87-54.407 23.065-43.762 16.56-63.869-16.897-37.848-39.2-30.16-4.703 26.06-16.982 24.838-12.014-8.308-12.014-8.308-2.31 87.623-11.41 124.845z"></path><path class="cls-6" d="M185.77 655.738a49.384 49.384 0 0 0 15.826 8.938 47.388 47.388 0 0 0 17.925 2.6 52.787 52.787 0 0 0 17.613-4.124 50.055 50.055 0 0 0 8.05-4.156 26.38 26.38 0 0 0 6.652-5.9 17.185 17.185 0 0 0 3.457-7.961 25.28 25.28 0 0 0-.365-8.845c-1.176-5.918-3.687-11.56-5.409-17.525a25.966 25.966 0 0 1 .359-18.462c1.986-5.882 4.695-11.417 7.203-17.02a152.528 152.528 0 0 0 6.786-17.083c1.772-5.824 2.885-12.006 1.917-18.022a25.831 25.831 0 0 0-1.146-4.398 101.085 101.085 0 0 0-1.547-4.326 84.825 84.825 0 0 0-3.69-8.39c-2.762-5.398-6.301-10.58-11.24-14.009a19.818 19.818 0 0 0-3.907-2.141 19.112 19.112 0 0 0-4.258-1.24 23.56 23.56 0 0 0-8.868.207 33.67 33.67 0 0 0-8.467 2.896 14.67 14.67 0 0 0-6.332 5.748 15.69 15.69 0 0 0-1.518 8.461c.05 1.51.218 3.032.145 4.696a6.053 6.053 0 0 1-.66 2.652 3.722 3.722 0 0 1-2.445 1.763 8.262 8.262 0 0 1-2.609.148c-.811-.07-1.583-.171-2.376-.3a20.638 20.638 0 0 1-4.657-1.322 11.756 11.756 0 0 1-4.127-2.858 8.48 8.48 0 0 1-1.433-2.19 7.467 7.467 0 0 1-.44-1.261 5.68 5.68 0 0 1-.185-1.433l2.122.067c-.323 10.472-.79 20.924-1.346 31.378-.533 10.454-1.298 20.895-2.162 31.328-.862 10.433-1.916 20.853-3.276 31.237-.683 5.19-1.427 10.376-2.34 15.533-.904 5.134-1.935 10.348-3.251 15.314zm-.192.054a300.312 300.312 0 0 0 4.666-31.034c1.1-10.392 1.946-20.81 2.695-31.235.736-10.426 1.281-20.865 1.834-31.303.525-10.438.96-20.889 1.25-31.328l2.122.068a4.388 4.388 0 0 0 .124.845 5.354 5.354 0 0 0 .311.913 6.376 6.376 0 0 0 1.07 1.657 9.7 9.7 0 0 0 3.382 2.36 18.623 18.623 0 0 0 4.18 1.216 12.028 12.028 0 0 0 4.166.215 1.717 1.717 0 0 0 1.209-.813 4.226 4.226 0 0 0 .42-1.785c.077-1.409-.069-2.955-.112-4.514a24.593 24.593 0 0 1 .238-4.778 14.142 14.142 0 0 1 1.58-4.645 16.253 16.253 0 0 1 7.149-6.417 35.294 35.294 0 0 1 8.959-2.934 25.124 25.124 0 0 1 9.449-.087 20.073 20.073 0 0 1 4.542 1.418 21.182 21.182 0 0 1 4.11 2.364c5.143 3.742 8.626 9.141 11.341 14.659a85.695 85.695 0 0 1 3.577 8.541q.78 2.177 1.497 4.373a26.58 26.58 0 0 1 1.144 4.517c.967 6.197-.265 12.438-2.022 18.315a153.168 153.168 0 0 1-6.663 17.22 180.363 180.363 0 0 0-6.81 17.06 31.122 31.122 0 0 0-1.62 8.841 30.606 30.606 0 0 0 1.649 8.815c1.826 5.792 4.322 11.475 5.622 17.627a26.414 26.414 0 0 1 .425 9.474 18.953 18.953 0 0 1-3.875 8.732 28.032 28.032 0 0 1-7.118 6.223 51.62 51.62 0 0 1-8.341 4.22 56.173 56.173 0 0 1-8.898 2.808 51.52 51.52 0 0 1-9.259 1.143 47.359 47.359 0 0 1-18.265-3.067 50.948 50.948 0 0 1-8.329-4.065 41.145 41.145 0 0 1-7.399-5.619z"></path><path class="cls-5" d="M262.324 779.92s-18.925-49.085 0-87.524 40.214-15.968 48.493-14.785 49.676 7.688 59.138 41.988 2.957 43.762-27.795 49.676-20.698 13.602-35.483 18.333-39.917 7.435-44.353-7.688z"></path><path class="cls-6" d="M262.229 779.952a152.179 152.179 0 0 1-6.302-23.327 140.444 140.444 0 0 1-2.631-24.07 97.636 97.636 0 0 1 .459-12.145 89.14 89.14 0 0 1 1.966-12.019 76.27 76.27 0 0 1 9.218-22.51 48.707 48.707 0 0 1 7.581-9.614 28.623 28.623 0 0 1 4.907-3.746 20.15 20.15 0 0 1 5.705-2.397 22.26 22.26 0 0 1 12.174.587 72.596 72.596 0 0 1 11.1 4.89c.9.438 1.806.86 2.729 1.21a12.772 12.772 0 0 0 2.874.656c1.994.315 3.98.684 5.959 1.085a103.639 103.639 0 0 1 11.706 3.116 79.922 79.922 0 0 1 21.702 10.723 50.75 50.75 0 0 1 15.987 18.236c.433.927.895 1.843 1.303 2.782l1.127 2.859.936 2.926.813 2.926a119.137 119.137 0 0 1 2.607 11.886 49.92 49.92 0 0 1 .634 12.277 25.227 25.227 0 0 1-1.295 6.14 19.324 19.324 0 0 1-3.091 5.547 25.745 25.745 0 0 1-10.124 7.256 68.706 68.706 0 0 1-11.674 3.722c-1.976.472-3.962.882-5.95 1.27-1.962.415-3.916.81-5.865 1.25a66.239 66.239 0 0 0-11.271 3.672 23.276 23.276 0 0 0-2.578 1.362c-.407.259-.836.491-1.228.77l-1.148.875a36.47 36.47 0 0 0-4.116 4.229 18.317 18.317 0 0 1-4.854 3.97 31.868 31.868 0 0 1-5.776 2.218 84.567 84.567 0 0 1-11.903 2.462 63.922 63.922 0 0 1-12.123.524 31.559 31.559 0 0 1-11.783-2.7 15.77 15.77 0 0 1-4.87-3.606 13.459 13.459 0 0 1-2.905-5.292zm.19-.064a13.219 13.219 0 0 0 2.918 5.173 15.46 15.46 0 0 0 4.817 3.477 29.447 29.447 0 0 0 11.659 2.457 73.306 73.306 0 0 0 23.618-3.69 30.533 30.533 0 0 0 5.412-2.28 17.686 17.686 0 0 0 4.355-3.756 37.9 37.9 0 0 1 4.218-4.493l1.236-.98c.421-.313.875-.574 1.311-.863a25.085 25.085 0 0 1 2.729-1.512 60.084 60.084 0 0 1 11.62-3.92c1.978-.454 3.971-.864 5.947-1.288 1.964-.39 3.921-.8 5.86-1.27a66.715 66.715 0 0 0 11.306-3.64 24.564 24.564 0 0 0 9.348-6.64 17.255 17.255 0 0 0 2.803-4.933 23.243 23.243 0 0 0 1.233-5.641 48.068 48.068 0 0 0-.52-11.795c-.59-3.937-1.482-7.843-2.455-11.73l-.761-2.906-.863-2.84-1.047-2.777c-.381-.912-.816-1.802-1.22-2.706a50.334 50.334 0 0 0-15.217-18.063 69.406 69.406 0 0 0-10.187-6.304 79.234 79.234 0 0 0-11.088-4.633 102.976 102.976 0 0 0-11.61-3.178 88.288 88.288 0 0 0-5.928-1.063 13.46 13.46 0 0 1-3.005-.66c-.965-.354-1.89-.776-2.803-1.21a69.734 69.734 0 0 0-11.033-4.725 21.288 21.288 0 0 0-11.657-.298 19.02 19.02 0 0 0-5.332 2.394 27.307 27.307 0 0 0-4.59 3.677 48.955 48.955 0 0 0-7.137 9.467 77.583 77.583 0 0 0-5.31 10.688 84.63 84.63 0 0 0-3.64 11.369 87.497 87.497 0 0 0-2.096 11.78 117.43 117.43 0 0 0-.759 11.975 140.374 140.374 0 0 0 7.867 47.337z"></path><path class="cls-5" d="M230.662 816.391a20.558 20.558 0 0 0-11.258 13.188c-4.344 14.782-11.787 48.588 2.41 71.574 18.629 30.161 83.385 5.323 75.401-16.854s-17.359-27.5-41.5-39.031c-20.622-9.85-11.98-34.586-25.053-28.877z"></path><path class="cls-6" d="M230.702 816.483a19.135 19.135 0 0 0-7.06 5.394 21.121 21.121 0 0 0-4.025 7.91 155.443 155.443 0 0 0-3.674 17.6 139.849 139.849 0 0 0-1.48 17.849 88.728 88.728 0 0 0 1.369 17.763 52.736 52.736 0 0 0 5.844 16.738 24.999 24.999 0 0 0 5.358 7.007 28.013 28.013 0 0 0 7.444 4.81 40.525 40.525 0 0 0 17.461 3.201 64.699 64.699 0 0 0 33.653-10.635 36.581 36.581 0 0 0 6.678-5.72 18.357 18.357 0 0 0 4.277-7.347 10.839 10.839 0 0 0 .298-4.107 9.665 9.665 0 0 0-.456-2.007c-.21-.66-.524-1.378-.78-2.064l-.809-2.081-.897-2.038c-.57-1.373-1.254-2.685-1.926-4.001-.652-1.329-1.466-2.558-2.194-3.838-.838-1.204-1.592-2.474-2.539-3.594a39.91 39.91 0 0 0-6.095-6.322l-1.708-1.398-1.796-1.296c-1.177-.891-2.473-1.63-3.703-2.454a180.12 180.12 0 0 0-7.796-4.39c-2.638-1.412-5.317-2.763-8.004-4.104a38.602 38.602 0 0 1-7.869-4.673 26.263 26.263 0 0 1-5.933-6.993 38.818 38.818 0 0 1-3.536-8.372 78.886 78.886 0 0 0-2.767-8.555 7.109 7.109 0 0 0-1.203-1.846 4.653 4.653 0 0 0-.826-.711 3.793 3.793 0 0 0-1.004-.408 6.957 6.957 0 0 0-4.302.682zm-.08-.183a7.16 7.16 0 0 1 4.44-.734 4.038 4.038 0 0 1 1.078.428 4.906 4.906 0 0 1 .885.746 7.904 7.904 0 0 1 1.278 1.895c1.32 2.746 1.989 5.703 3.029 8.511a38.087 38.087 0 0 0 3.793 8.064 24.877 24.877 0 0 0 5.96 6.44 41.364 41.364 0 0 0 7.78 4.21c2.729 1.271 5.455 2.557 8.156 3.91a78.782 78.782 0 0 1 15.454 9.652 41.997 41.997 0 0 1 6.425 6.607c1 1.177 1.796 2.497 2.677 3.757.405.651.774 1.324 1.159 1.987.385.664.769 1.327 1.09 2.02.68 1.369 1.37 2.733 1.94 4.145l.895 2.1.801 2.13c.261.725.548 1.389.787 2.164a11.604 11.604 0 0 1 .514 2.387 12.751 12.751 0 0 1-.4 4.824 19.828 19.828 0 0 1-4.79 8.046 38.233 38.233 0 0 1-7.101 5.851 61.606 61.606 0 0 1-16.613 7.373 67.804 67.804 0 0 1-17.911 2.645 48.995 48.995 0 0 1-9.037-.728 38.677 38.677 0 0 1-8.712-2.542 29.426 29.426 0 0 1-7.712-4.83 25.968 25.968 0 0 1-5.774-7.062 53.046 53.046 0 0 1-6.506-16.974c-2.393-11.962-1.772-24.305.498-36.144a159.726 159.726 0 0 1 4.41-17.538 21.205 21.205 0 0 1 11.507-13.34z"></path><path class="cls-5" d="M208.367 984.703a26.32 26.32 0 0 1 14.476-20.32c8.733-4.139 21.296-4.173 35.341 14.242 26.612 34.891 38.614 27.795 39.71 40.805s-1.27 30.16-28.474 34.3-18.924-15.967-23.064-23.655-2.956-13.602-24.838-15.376c-14.695-1.192-14.72-18.655-13.15-29.996z"></path><path class="cls-6" d="M208.268 984.69a28.253 28.253 0 0 1 7.723-15.841 25.094 25.094 0 0 1 7.357-5.164 21.873 21.873 0 0 1 17.796-.55 32.686 32.686 0 0 1 7.852 4.627l1.758 1.444c.586.48 1.107 1.028 1.656 1.548 1.115 1.026 2.103 2.164 3.112 3.283 1.983 2.27 3.789 4.674 5.589 6.998a152.52 152.52 0 0 0 11.567 13.438 97.564 97.564 0 0 0 6.465 6.068 86.063 86.063 0 0 0 7.074 5.353c2.437 1.685 4.988 3.197 7.402 4.994a11.954 11.954 0 0 1 3.111 3.317 11.089 11.089 0 0 1 1.414 4.334 55.034 55.034 0 0 1 .247 8.976 30.197 30.197 0 0 1-1.823 8.832 23.042 23.042 0 0 1-4.667 7.788l-.753.865-.85.767c-.575.5-1.12 1.043-1.723 1.51l-1.882 1.3c-.319.21-.619.452-.953.632l-1.007.536c-5.357 2.942-11.322 4.357-17.28 5.19a31.648 31.648 0 0 1-9.162-.042 14.485 14.485 0 0 1-4.512-1.483 10.946 10.946 0 0 1-3.699-3.161c-1.977-2.67-2.576-5.894-2.915-8.876a86.163 86.163 0 0 0-.968-8.724 8.924 8.924 0 0 0-.65-1.884c-.285-.615-.69-1.344-.993-2.014-.65-1.375-1.208-2.74-1.859-4.013a12.347 12.347 0 0 0-2.352-3.39 14.24 14.24 0 0 0-1.54-1.34 17.357 17.357 0 0 0-1.797-1.057 31.945 31.945 0 0 0-8.239-2.536c-1.447-.231-2.893-.488-4.356-.667-1.47-.188-2.902-.33-4.454-.582a13.43 13.43 0 0 1-7.934-4.469 18.377 18.377 0 0 1-3.723-8.203 41.1 41.1 0 0 1-.751-8.912 69.036 69.036 0 0 1 .719-8.892zm.198.027c-.761 5.86-1.024 11.909.376 17.651a17.651 17.651 0 0 0 3.871 7.719 12.234 12.234 0 0 0 7.46 3.78c5.798.49 11.974.804 17.678 3.377a13.48 13.48 0 0 1 6.644 6.57c.707 1.37 1.28 2.756 1.906 4.062.314.681.638 1.248.985 1.978a10.935 10.935 0 0 1 .816 2.312c.705 3.095.692 6.08 1.05 8.97.334 2.866.94 5.705 2.509 7.88a10.402 10.402 0 0 0 6.885 3.927 29.8 29.8 0 0 0 8.595.122c5.775-.76 11.59-2.02 16.736-4.715l.971-.49c.323-.165.608-.39.914-.581l1.808-1.196c.58-.427 1.108-.92 1.666-1.378l.828-.699.732-.795a21.81 21.81 0 0 0 4.65-7.26c2.203-5.404 2.468-11.494 1.901-17.32a10.414 10.414 0 0 0-1.285-4.09 11.321 11.321 0 0 0-2.921-3.165c-2.329-1.787-4.95-3.232-7.411-4.907a100.85 100.85 0 0 1-13.934-11.204 145.122 145.122 0 0 1-12.084-13.2c-1.859-2.353-3.651-4.687-5.597-6.87-.992-1.077-1.963-2.175-3.048-3.15-.538-.492-1.035-1.032-1.592-1.5l-1.67-1.403a34.226 34.226 0 0 0-7.363-4.539 22.416 22.416 0 0 0-8.375-1.83 23.474 23.474 0 0 0-15.811 6.45 26.414 26.414 0 0 0-7.89 15.494z"></path><path class="cls-5" d="M342.16 1013.516s-33.708-36.666 0-71.557 18.925-17.61 24.838-26.842 36.075-16.33 43.763-3.319-3.549 23.064-11.828 30.752-2.366 40.806-5.322 51.45-13.01 40.806-51.45 19.516z"></path><path class="cls-6" d="M342.098 1013.595a58 58 0 0 1-6.127-7.995 63.99 63.99 0 0 1-4.812-8.862 53.089 53.089 0 0 1-4.732-19.62 46.704 46.704 0 0 1 .872-10.149 45.081 45.081 0 0 1 3.135-9.7 57.195 57.195 0 0 1 11.726-16.501q7.052-7.136 14.22-14.158c2.395-2.337 4.796-4.667 7.246-6.952l.919-.855.445-.423.084-.086c.025-.026-.001-.005-.017.043-.05.047.029.38.037.304a.731.731 0 0 1-.093-.613 5.456 5.456 0 0 1 .551-1.246c.207-.376.427-.736.647-1.097a13.489 13.489 0 0 1 3.401-3.808 32.931 32.931 0 0 1 8.94-4.68 49.07 49.07 0 0 1 9.778-2.447 41.46 41.46 0 0 1 10.101-.236 19.905 19.905 0 0 1 9.576 3.426 12.605 12.605 0 0 1 3.468 3.883c.391.765.823 1.513 1.18 2.298.284.817.622 1.62.857 2.456a22.79 22.79 0 0 1 .463 2.576 14.548 14.548 0 0 1 .028 2.624l-.13 1.31c-.05.435-.186.853-.276 1.28-.111.423-.182.86-.328 1.27l-.452 1.223a29.963 29.963 0 0 1-5.516 8.65 98.5 98.5 0 0 1-7.123 7.18c-2.408 2.005-3.284 5.177-3.916 8.354a66.028 66.028 0 0 0-.868 9.822c-.156 6.63.09 13.302.164 20.01a85.719 85.719 0 0 1-.37 10.145 25.927 25.927 0 0 1-1.124 5.057 60.737 60.737 0 0 1-1.682 4.803 44.874 44.874 0 0 1-4.757 9.039 32.777 32.777 0 0 1-3.246 3.99 27.657 27.657 0 0 1-3.922 3.357 23.48 23.48 0 0 1-9.495 3.878 29.708 29.708 0 0 1-10.178-.128c-6.697-1.218-12.848-4.101-18.674-7.422zm.124-.158a61.107 61.107 0 0 0 18.71 6.581 28.55 28.55 0 0 0 9.779-.159 22.86 22.86 0 0 0 8.828-3.867 26.051 26.051 0 0 0 3.626-3.22 31.079 31.079 0 0 0 3.006-3.835 43.053 43.053 0 0 0 4.402-8.753 69.986 69.986 0 0 0 1.56-4.683 23.794 23.794 0 0 0 1.034-4.717 84.015 84.015 0 0 0 .316-9.887c-.073-6.659-.43-13.356-.185-20.096a67.93 67.93 0 0 1 1.004-10.126 25.662 25.662 0 0 1 1.464-5.002 10.17 10.17 0 0 1 .58-1.208 8.244 8.244 0 0 1 .715-1.162l.403-.562.481-.518a12.941 12.941 0 0 1 .94-.911c2.459-2.259 4.881-4.523 7.079-6.968a28.335 28.335 0 0 0 5.368-8.074 15.165 15.165 0 0 0 .845-9.357c-.196-.774-.493-1.526-.732-2.294-.314-.742-.705-1.457-1.052-2.19a11.425 11.425 0 0 0-3.06-3.618 18.95 18.95 0 0 0-9.022-3.444 37.244 37.244 0 0 0-4.942-.3 47.126 47.126 0 0 0-4.955.38 48.416 48.416 0 0 0-9.664 2.33 30.455 30.455 0 0 0-8.718 4.64 12.72 12.72 0 0 0-3.193 3.66 10.937 10.937 0 0 0-1.075 2.11c-.025.099.008.058-.041-.012.041-.037.144.353.064.446a.61.61 0 0 1-.107.17 1.888 1.888 0 0 1-.13.142l-.46.446-.896.873c-2.373 2.345-4.702 4.74-7.023 7.143-4.642 4.806-9.225 9.671-13.82 14.524-1.157 1.206-2.22 2.452-3.334 3.674-1.028 1.287-2.071 2.567-3.027 3.905-.905 1.372-1.89 2.697-2.66 4.15-.394.719-.845 1.408-1.214 2.14l-1.084 2.21a43.38 43.38 0 0 0-3.122 9.305 45.113 45.113 0 0 0-.949 9.778 53.65 53.65 0 0 0 4.162 19.245 69.092 69.092 0 0 0 10.1 17.111z"></path><path class="cls-5" d="M476.582 981.866c-15.718 1.645-30.653-8.3-34.19-23.704-2.525-10.996-.867-26.602 11.54-48.138 31.343-54.407 54.407-26.612 61.503-19.515s17.15 9.462 20.107 16.558 5.914 19.516-17.741 28.387-1.183 15.967-15.968 32.526c-8.57 9.599-17.14 13.037-25.25 13.886z"></path><path class="cls-6" d="M476.593 981.965a34.38 34.38 0 0 1-9.712-.43 32.276 32.276 0 0 1-9.214-3.168 31.28 31.28 0 0 1-13.669-13.766 37.37 37.37 0 0 1-3.337-19.319 53.209 53.209 0 0 1 1.583-9.728 77.524 77.524 0 0 1 2.991-9.355 112.71 112.71 0 0 1 8.808-17.444c.862-1.38 1.703-2.772 2.58-4.14l2.723-4.048 2.854-3.957c1.013-1.273 2.005-2.563 3.04-3.817a73.278 73.278 0 0 1 6.76-7.043 39.854 39.854 0 0 1 7.898-5.763 27.07 27.07 0 0 1 9.29-3.15 21.933 21.933 0 0 1 9.805.967 30.943 30.943 0 0 1 8.728 4.62 52.883 52.883 0 0 1 3.809 3.135c1.21 1.107 2.37 2.265 3.51 3.415a36.714 36.714 0 0 0 3.526 3.195 49.042 49.042 0 0 0 3.916 2.734c2.694 1.734 5.552 3.283 8.254 5.239a19.626 19.626 0 0 1 3.763 3.418 14.628 14.628 0 0 1 2.503 4.508 26.416 26.416 0 0 1 1.32 4.886 16.862 16.862 0 0 1 .011 5.153 15.027 15.027 0 0 1-.599 2.533 25.264 25.264 0 0 1-1.015 2.395c-.464.725-.896 1.478-1.395 2.174-.549.654-1.082 1.325-1.65 1.96a34.048 34.048 0 0 1-8.084 5.904l-2.22 1.106c-.371.18-.738.375-1.113.545l-1.142.468c-1.52.622-3.06 1.263-4.524 1.83a34.244 34.244 0 0 0-4.26 2.032 13.903 13.903 0 0 0-3.599 2.726 6.222 6.222 0 0 0-1.6 3.852 20.82 20.82 0 0 0 .455 4.628 26.952 26.952 0 0 1 .495 4.961 16.18 16.18 0 0 1-.823 4.993 18.023 18.023 0 0 1-2.232 4.482c-.433.712-.975 1.339-1.465 2.004-.539.621-1.067 1.257-1.63 1.85a50.182 50.182 0 0 1-7.324 6.482 36.623 36.623 0 0 1-18.015 6.933zm-.021-.198a34.062 34.062 0 0 0 17.705-7.18 49.449 49.449 0 0 0 6.971-6.655c.53-.603 1.017-1.234 1.514-1.856.443-.66.942-1.284 1.323-1.977a16.814 16.814 0 0 0 1.916-4.275 14.754 14.754 0 0 0 .564-4.587 29.182 29.182 0 0 0-.618-4.685 22.217 22.217 0 0 1-.598-5.014 8.109 8.109 0 0 1 1.939-5 14.95 14.95 0 0 1 4.038-3.218 36.204 36.204 0 0 1 4.498-2.17c1.557-.611 3.006-1.224 4.483-1.834l1.106-.458c.362-.166.711-.354 1.067-.53l2.128-1.068a32.048 32.048 0 0 0 7.543-5.54c.507-.575.98-1.178 1.474-1.764.439-.62.81-1.283 1.223-1.92.286-.694.652-1.36.888-2.072a12.936 12.936 0 0 0 .538-2.183 14.798 14.798 0 0 0 .037-4.528 24.44 24.44 0 0 0-1.168-4.496 12.564 12.564 0 0 0-2.137-3.971 17.758 17.758 0 0 0-3.386-3.13c-2.528-1.883-5.378-3.449-8.1-5.274a50.725 50.725 0 0 1-4-2.905 38.447 38.447 0 0 1-3.615-3.394 65.606 65.606 0 0 0-7.008-6.57 29.724 29.724 0 0 0-8.257-4.672 20.952 20.952 0 0 0-9.353-1.15 24.612 24.612 0 0 0-9.055 2.915 39.203 39.203 0 0 0-7.82 5.603 63.42 63.42 0 0 0-6.638 7.026 107.91 107.91 0 0 0-10.77 16.082 115.67 115.67 0 0 0-8.22 17.47 68.48 68.48 0 0 0-4.369 18.625c-.483 6.325.113 12.848 2.717 18.65a30.282 30.282 0 0 0 12.783 13.845 31.732 31.732 0 0 0 18.657 3.86z"></path><path class="cls-5" d="M352.214 826.64s-10.645 25.429 8.28 32.525 39.622 1.774 47.901 0 18.333-10.053 5.914-26.612-17.741-5.914-27.204-8.28-25.43-15.375-34.891 2.366z"></path><path class="cls-6" d="M352.304 826.682a40.435 40.435 0 0 0-2.638 11.563 24.3 24.3 0 0 0 1.643 11.5 15.573 15.573 0 0 0 3.207 4.676 17.1 17.1 0 0 0 4.64 3.219 27.036 27.036 0 0 0 2.696 1.032c.931.301 1.848.647 2.79.913l2.843.75c.95.24 1.92.402 2.88.607a74.935 74.935 0 0 0 23.62.624 115.35 115.35 0 0 0 11.721-2.173 30.564 30.564 0 0 0 5.674-1.603 15.523 15.523 0 0 0 4.77-3.22 10.738 10.738 0 0 0 2.836-4.82 9.53 9.53 0 0 0 .258-1.376l.105-.691-.008-.706c-.015-.47.03-.938-.03-1.405l-.221-1.402a26.015 26.015 0 0 0-5.023-10.31c-2.327-3.11-4.93-6.152-8.1-8.124a10.816 10.816 0 0 0-5.125-1.594 22.288 22.288 0 0 0-5.623.832 19.586 19.586 0 0 1-6.236.63 17.021 17.021 0 0 1-3.135-.64c-.99-.314-1.938-.695-2.874-1.08-3.723-1.564-7.222-3.404-10.935-4.672a23.814 23.814 0 0 0-5.69-1.266 13.573 13.573 0 0 0-5.736.698 12.94 12.94 0 0 0-4.859 3.229 22.447 22.447 0 0 0-3.45 4.81zm-.18-.086a23.547 23.547 0 0 1 3.415-4.927 13.668 13.668 0 0 1 10.853-4.644 25.472 25.472 0 0 1 6.027.927 105.684 105.684 0 0 1 11.271 4.144c.915.35 1.834.669 2.746.947a14.965 14.965 0 0 0 2.714.518 17.585 17.585 0 0 0 5.594-.666 23.367 23.367 0 0 1 6.167-.884 12.457 12.457 0 0 1 6.136 1.943c3.58 2.326 6.172 5.54 8.549 8.81a26.605 26.605 0 0 1 5.057 11.132 13.422 13.422 0 0 1-.359 6.243 11.97 11.97 0 0 1-3.382 5.217 16.503 16.503 0 0 1-5.204 3.23l-1.448.489c-.485.152-.987.246-1.478.375-.98.233-1.948.418-2.925.63-3.9.831-7.83 1.56-11.785 2.128a104.229 104.229 0 0 1-11.954 1.094 69.085 69.085 0 0 1-12.04-.72 46.119 46.119 0 0 1-11.684-3.358 16.95 16.95 0 0 1-5.023-3.703 15.808 15.808 0 0 1-3.225-5.305 25.357 25.357 0 0 1-1-12.022 47.263 47.263 0 0 1 1.147-5.89 45.695 45.695 0 0 1 1.83-5.708z"></path><path class="cls-5" d="M540.865 1054.286s-1.774 26.648 18.333 31.379 17.15-13.047 19.515-15.69 11.828-6.783 8.87-16.245-7.16-21.881-23.095-18.924-20.666 11.164-23.623 19.48z"></path><path class="cls-6" d="M540.963 1054.306a52.61 52.61 0 0 0 1.083 9.57 37.316 37.316 0 0 0 3.022 9.029 23.86 23.86 0 0 0 5.579 7.46 20.715 20.715 0 0 0 8.16 4.328 28.728 28.728 0 0 0 4.63.966 16.792 16.792 0 0 0 4.676 0 9.251 9.251 0 0 0 7.23-5.273 19.243 19.243 0 0 0 1.503-4.531c.348-1.574.522-3.17.96-4.793a3.779 3.779 0 0 1 .556-1.218 7.222 7.222 0 0 1 .913-.905c.623-.553 1.261-1.048 1.888-1.56a26.838 26.838 0 0 0 3.492-3.25 11.314 11.314 0 0 0 2.294-3.962 9.604 9.604 0 0 0 .28-4.445c-.054-.372-.184-.736-.27-1.104a10.894 10.894 0 0 0-.328-1.12c-.256-.766-.514-1.53-.786-2.284q-.795-2.276-1.733-4.458a23.362 23.362 0 0 0-5.169-7.662 13.959 13.959 0 0 0-8.131-3.541 28.503 28.503 0 0 0-9.267.891 32.114 32.114 0 0 0-8.833 3.334 23.552 23.552 0 0 0-7.118 6.13 30.761 30.761 0 0 0-2.59 4.024c-.754 1.422-1.409 2.897-2.041 4.374zm-.196-.04a32.424 32.424 0 0 1 4.006-8.949 23.75 23.75 0 0 1 7.138-6.882 33.838 33.838 0 0 1 9.158-3.858 28.895 28.895 0 0 1 9.96-1.146 15.61 15.61 0 0 1 9.332 4.134 25.285 25.285 0 0 1 5.478 8.445c.617 1.535 1.201 3.079 1.679 4.643.25.78.482 1.56.711 2.34a12.612 12.612 0 0 1 .311 1.224c.085.423.21.835.257 1.265a10.464 10.464 0 0 1-.56 5.135 12.547 12.547 0 0 1-2.773 4.25 27.775 27.775 0 0 1-3.774 3.192c-.651.483-1.32.948-1.93 1.448a6.69 6.69 0 0 0-.827.784 3.155 3.155 0 0 0-.454.976c-.803 3.043-1.102 6.407-2.554 9.405a11.012 11.012 0 0 1-3.038 3.952 10.777 10.777 0 0 1-4.568 2.13 17.834 17.834 0 0 1-5.009.298 27.815 27.815 0 0 1-4.927-.75 20.244 20.244 0 0 1-8.906-4.607 24.499 24.499 0 0 1-3.353-3.77 27.133 27.133 0 0 1-2.458-4.36 35.898 35.898 0 0 1-2.653-9.508 39.24 39.24 0 0 1-.408-4.89 35.179 35.179 0 0 1 .162-4.902z"></path><path class="cls-5" d="M582.261 996.957s-22.612-43.762 11.167-57.955c0 0 18.403 1.84 32.004-9.43s26.021-33.15 38.44-30.784 39.031 15.199 40.214 48.996-4.14 51.539-12.419 55.087-10.053.592-14.193-5.914-22.03-4.06-37.923 7.432-41.322 16.224-57.29-7.432z"></path><path class="cls-6" d="M582.175 997.008a79.139 79.139 0 0 1-5.74-15.724 56.278 56.278 0 0 1-1.837-16.655 35.318 35.318 0 0 1 1.452-8.329 28.652 28.652 0 0 1 3.744-7.636 26.923 26.923 0 0 1 5.928-6.143 36.349 36.349 0 0 1 7.393-4.264l.158-.074.235.015a49.88 49.88 0 0 0 10.282-.501 50.526 50.526 0 0 0 9.997-2.505 40.02 40.02 0 0 0 9.094-4.742l2.054-1.541c.657-.56 1.323-1.11 1.967-1.69a82.42 82.42 0 0 0 3.783-3.582c4.928-4.929 9.447-10.309 14.414-15.302a55.976 55.976 0 0 1 8.04-6.887 21.234 21.234 0 0 1 4.742-2.46 11.694 11.694 0 0 1 5.334-.636 42.418 42.418 0 0 1 10.105 3.136 54.188 54.188 0 0 1 9.248 5.096 50.7 50.7 0 0 1 8.074 6.818 49.271 49.271 0 0 1 6.527 8.334 52.196 52.196 0 0 1 7.085 19.892 89.921 89.921 0 0 1 .725 10.566c.091 3.515.114 7.033.041 10.553a126.889 126.889 0 0 1-1.992 21.064 54.469 54.469 0 0 1-2.932 10.283 27.516 27.516 0 0 1-2.527 4.832 14.666 14.666 0 0 1-3.91 4.043 12.772 12.772 0 0 1-2.55 1.258c-.415.178-.85.328-1.29.47a11.013 11.013 0 0 1-1.34.39 10.827 10.827 0 0 1-2.884.35 7.02 7.02 0 0 1-2.981-.78 12.449 12.449 0 0 1-4.009-4.054 75.857 75.857 0 0 1-1.464-2.23c-.229-.345-.487-.8-.69-1.053a4.541 4.541 0 0 0-.72-.801 8.642 8.642 0 0 0-4.26-1.812 20.412 20.412 0 0 0-4.99-.199 40.843 40.843 0 0 0-10 2.137 63.554 63.554 0 0 0-9.472 4.13 63.19 63.19 0 0 0-4.467 2.63c-1.457.92-2.847 1.957-4.357 2.936a49.824 49.824 0 0 1-19.768 7.548 35.778 35.778 0 0 1-20.728-2.926 39.029 39.029 0 0 1-15.514-13.955zm.172-.102a38.715 38.715 0 0 0 15.53 13.653 34.825 34.825 0 0 0 20.376 2.293 49.826 49.826 0 0 0 19.013-7.902c1.414-.953 2.818-2.04 4.307-3.02a65.015 65.015 0 0 1 4.538-2.791 58.166 58.166 0 0 1 9.723-4.398 42.826 42.826 0 0 1 10.503-2.271 22.426 22.426 0 0 1 5.49.208 12.669 12.669 0 0 1 2.738.76 8.496 8.496 0 0 1 2.54 1.526 6.616 6.616 0 0 1 1.036 1.145c.332.441.498.756.755 1.14.472.735.943 1.461 1.428 2.161a10.582 10.582 0 0 0 3.28 3.385 4.896 4.896 0 0 0 2.061.527 8.766 8.766 0 0 0 2.315-.3 9.55 9.55 0 0 0 1.184-.337c.395-.123.79-.255 1.183-.42a10.69 10.69 0 0 0 2.167-1.036c2.641-1.76 4.422-4.8 5.737-7.904a52.573 52.573 0 0 0 2.9-9.885 131.45 131.45 0 0 0 2.167-20.74c.12-3.489.148-6.982.106-10.476a97.613 97.613 0 0 0-.52-10.415 50.532 50.532 0 0 0-6.534-19.588 50.33 50.33 0 0 0-33.237-23.18 10.972 10.972 0 0 0-5.004.648 20.482 20.482 0 0 0-4.545 2.413 53.628 53.628 0 0 0-7.754 6.947c-4.807 5.062-9.199 10.536-14.073 15.636q-1.823 1.917-3.77 3.731a51.73 51.73 0 0 1-1.995 1.767l-2.138 1.63a41.73 41.73 0 0 1-9.458 5.018 46.467 46.467 0 0 1-10.358 2.605 51.343 51.343 0 0 1-10.69.37l.393-.059a35.409 35.409 0 0 0-7.124 3.975 25.549 25.549 0 0 0-5.81 5.673 27.522 27.522 0 0 0-3.808 7.217 34.304 34.304 0 0 0-1.644 8.072 51.754 51.754 0 0 0 1.44 16.512 78.958 78.958 0 0 0 5.552 15.71z"></path><path class="cls-5" d="M665.086 1037.349a9.194 9.194 0 0 0-8.388 6.085c-3.432 8.973-9.689 29.016-1.105 37.812 11.236 11.515 28.978 7.967 30.16-2.678s5.95-24.247-5.896-32.526c-8.292-5.795-10.78-8.693-14.77-8.693z"></path><path class="cls-6" d="M665.086 1037.449a8.26 8.26 0 0 0-4.11 1.149 8.862 8.862 0 0 0-3.021 2.99 17.278 17.278 0 0 0-1.58 3.988q-.654 2.082-1.213 4.188a89.347 89.347 0 0 0-3.041 16.99 26.953 26.953 0 0 0 .669 8.474 14.587 14.587 0 0 0 1.635 3.9 14.97 14.97 0 0 0 2.805 3.212 21.094 21.094 0 0 0 15.829 5.453 15.986 15.986 0 0 0 7.816-2.749 9.31 9.31 0 0 0 3.956-6.678c.622-5.886 1.945-11.588 1.773-17.24a19.735 19.735 0 0 0-1.786-8.058 18.231 18.231 0 0 0-5.238-6.407c-2.309-1.795-4.59-3.645-6.856-5.475a30.774 30.774 0 0 0-3.545-2.525 10.301 10.301 0 0 0-1.968-.882 8.166 8.166 0 0 0-2.125-.33zm0-.2a8.386 8.386 0 0 1 2.194.298 12.101 12.101 0 0 1 2.042.854 43.926 43.926 0 0 1 3.73 2.337c2.424 1.645 4.825 3.284 7.29 4.85a17.659 17.659 0 0 1 6.197 6.615 20.761 20.761 0 0 1 2.197 8.845c.226 6.072-1.31 11.838-2.036 17.528a10.257 10.257 0 0 1-1.602 4.465 11.72 11.72 0 0 1-3.32 3.307 16.582 16.582 0 0 1-8.655 2.538 24.3 24.3 0 0 1-16.32-6.059 17.016 17.016 0 0 1-3.065-3.247 15.551 15.551 0 0 1-2.013-4.026 27.449 27.449 0 0 1-1.268-8.853 53.725 53.725 0 0 1 3.507-17.312 110.408 110.408 0 0 1 1.58-4.111l.852-2.03a10.573 10.573 0 0 1 1.125-1.953 9.501 9.501 0 0 1 7.565-4.046z"></path><path class="cls-5" d="M625.432 785.834l11.675 9.56c14.065 11.299 22.626 31.245 25.582 40.707s6.506 21.882-20.698 32.526-47.902-20.698-56.773-34.3-33.117-12.419-44.393-18.78-21.25-24.982-12.38-40.358 41.397-1.183 52.634 4.731 44.353 5.914 46.404 7.503"></path><path class="cls-6" d="M625.496 785.757l9.349 7.339c1.545 1.234 3.131 2.426 4.645 3.739a56.106 56.106 0 0 1 4.297 4.173 87.115 87.115 0 0 1 13.43 19.736 112.07 112.07 0 0 1 4.828 10.947 89.996 89.996 0 0 1 1.925 5.678 38.047 38.047 0 0 1 1.39 5.912 18.515 18.515 0 0 1-.099 6.199 16.679 16.679 0 0 1-2.323 5.781 27.775 27.775 0 0 1-8.868 8.32 64.054 64.054 0 0 1-10.79 5.273 31.564 31.564 0 0 1-11.777 2.48 30.757 30.757 0 0 1-11.775-2.29 44.308 44.308 0 0 1-10.37-5.939 89.484 89.484 0 0 1-16.512-17.125c-2.398-3.167-4.664-6.43-6.88-9.72a26.492 26.492 0 0 0-3.565-4.62 23.53 23.53 0 0 0-4.608-3.519 45.63 45.63 0 0 0-10.848-4.364c-3.787-1.05-7.651-1.86-11.524-2.712a85.165 85.165 0 0 1-11.584-3.13 24.836 24.836 0 0 1-5.45-2.829 29.861 29.861 0 0 1-4.641-3.988 36.39 36.39 0 0 1-6.792-10.079 32.375 32.375 0 0 1-2.927-11.84 26.22 26.22 0 0 1 2.26-12.043 26.611 26.611 0 0 1 1.428-2.753 13.518 13.518 0 0 1 1.98-2.528 14.389 14.389 0 0 1 5.393-3.342 28.222 28.222 0 0 1 12.195-1.05 63.748 63.748 0 0 1 11.797 2.454 126.403 126.403 0 0 1 22.082 9.165 27.512 27.512 0 0 0 5.37 2.126c1.87.557 3.784 1 5.711 1.39 3.859.775 7.773 1.33 11.697 1.806 3.927.463 7.865.873 11.807 1.262l5.915.602c.986.11 1.972.224 2.955.365.492.07.983.147 1.473.243a4.424 4.424 0 0 1 1.454.468.1.1 0 0 1-.102.17l-.02-.012a4.417 4.417 0 0 0-1.377-.376 28.073 28.073 0 0 0-1.466-.188 94.908 94.908 0 0 0-2.955-.257l-5.927-.388c-3.955-.248-7.914-.498-11.865-.884-3.951-.379-7.901-.839-11.831-1.526-1.964-.348-3.924-.749-5.866-1.275a27.49 27.49 0 0 1-5.697-2.14 124.712 124.712 0 0 0-21.894-8.701 68.297 68.297 0 0 0-11.46-2.29 26.27 26.27 0 0 0-11.294.975 12.314 12.314 0 0 0-4.622 2.873 11.43 11.43 0 0 0-1.666 2.145 24.637 24.637 0 0 0-1.296 2.523 25.043 25.043 0 0 0-2.095 11.1 32.867 32.867 0 0 0 8.999 20.708 25.12 25.12 0 0 0 9.366 6.466 83.77 83.77 0 0 0 11.297 3.229c3.852.9 7.734 1.782 11.557 2.947a46.82 46.82 0 0 1 11.034 4.739 24.612 24.612 0 0 1 4.737 3.769 27.413 27.413 0 0 1 3.588 4.834c2.13 3.334 4.344 6.612 6.72 9.77 4.728 6.31 10.011 12.309 16.362 16.997a42.91 42.91 0 0 0 10.25 5.731 29.792 29.792 0 0 0 11.459 1.945 30.407 30.407 0 0 0 11.277-2.664 65.109 65.109 0 0 0 10.42-5.376 26.13 26.13 0 0 0 8.283-7.852 15.925 15.925 0 0 0 2.157-10.823 36.371 36.371 0 0 0-1.279-5.655 88.237 88.237 0 0 0-1.838-5.593 110.496 110.496 0 0 0-4.658-10.834 89.765 89.765 0 0 0-12.837-19.712 62.958 62.958 0 0 0-4.119-4.21c-1.433-1.336-2.972-2.584-4.476-3.878l-9.041-7.72a.1.1 0 0 1 .127-.154zM247.54 1179.694a33.071 33.071 0 0 0 7.218 1.909c1.234.175 2.453.397 3.697.493l1.852.2 1.861.124 1.86.12 1.865.058c1.243.035 2.483.098 3.729.06l3.732-.017 3.734-.152c2.49-.053 4.976-.311 7.466-.44l7.464-.682 7.466-.824c2.487-.308 4.977-.622 7.489-.849-2.427.663-4.877 1.237-7.328 1.818-2.462.525-4.942.96-7.423 1.402-2.486.417-4.994.68-7.494 1.02l-3.774.31c-1.258.101-2.515.213-3.78.242a89.953 89.953 0 0 1-15.157-.518l-1.884-.243-1.873-.338c-1.249-.209-2.48-.535-3.711-.83a25.986 25.986 0 0 1-7.01-2.863zM401.348 1192.87a33.072 33.072 0 0 0 7.219 1.908c1.234.176 2.453.397 3.697.494l1.852.2 1.861.124 1.86.12 1.864.057c1.243.035 2.484.099 3.73.06l3.732-.016 3.734-.153c2.49-.052 4.976-.31 7.466-.44l7.464-.682 7.466-.823c2.487-.308 4.976-.623 7.488-.85-2.426.663-4.876 1.238-7.328 1.818-2.46.525-4.941.961-7.422 1.402-2.486.418-4.995.68-7.494 1.021l-3.774.309c-1.258.102-2.516.213-3.78.242a89.953 89.953 0 0 1-15.157-.518l-1.884-.243-1.873-.338c-1.249-.208-2.48-.535-3.711-.83a25.986 25.986 0 0 1-7.01-2.862zM600.453 1171.777a33.072 33.072 0 0 0 7.218 1.909c1.234.175 2.454.397 3.697.493l1.852.2 1.862.124 1.859.12 1.865.057c1.243.036 2.483.099 3.73.06l3.732-.016 3.733-.152c2.49-.053 4.976-.312 7.467-.44l7.463-.683 7.466-.823c2.488-.308 4.977-.623 7.489-.849-2.427.662-4.877 1.237-7.328 1.818-2.461.524-4.942.96-7.423 1.402-2.485.417-4.994.68-7.494 1.02l-3.773.309c-1.258.102-2.516.213-3.78.243a89.953 89.953 0 0 1-15.157-.519l-1.884-.243-1.873-.338c-1.25-.208-2.481-.534-3.712-.83a25.986 25.986 0 0 1-7.01-2.862z"></path><path class="cls-16" d="M309.865 73.652c-27.688-3.484-114.362 12.671-131.148 18.462s-61.282 163.898-61.282 163.898-19.7 47.766-12.216 62.509M408.83 100.108s31.859-24.384 64.353-21.94M103.522 105.413s6.933-37.18 30.234-40.305 50.949 23.582 50.949 23.582M199.589 82.68S187.71 33.73 209.64 15.479M339.334 75.36s6.392-58.717 32.7-65.32M403.932 384.625s38.919-27.61 39.966-32.473M226.823 228.249s32.82-3.447 42.73.006M131.248 303.578s19.96-49.92 84.084-60.892M280.293 414.362s44.234-30.481 46.481-55.68M469.627 744.422s15.072-21.147 115.156 17.229M201.363 424.203s4.84 130.22-13.914 245.81c0 0-28.535 148.35-26.055 145.533"></path><path class="cls-17" d="M128.671 360.63c-.6-2.288-18.924-90.481 62.095-112.954s115.32 24.247 115.32 24.247 33.709 37.848 19.516 91.664-78.063 60.321-78.063 60.321c-.244-.14-96.91 20.401-118.868-63.278z"></path><path class="cls-18" d="M184.705 369.944s45.684 10.793 85.898-24.098"></path><path class="cls-6" d="M287.162 345.846a3.051 3.051 0 0 1-1.479 1.014c-.533.15-1.077.19-1.618.29a25.599 25.599 0 0 1-3.254.296 43.33 43.33 0 0 1-6.47-.288 70.002 70.002 0 0 1-6.37-.99 55.272 55.272 0 0 1-6.239-1.602c2.149.086 4.282.173 6.405.296 2.124.105 4.24.232 6.35.299 2.11.087 4.214.126 6.303.171.525.025 1.046.02 1.567.016.52.007 1.048.04 1.564.015 1.061.032 2.018-.276 3.24.483z"></path><path class="cls-6" d="M195.895 371.125a42.223 42.223 0 0 1 2.497 4.543c.75 1.532 1.449 3.083 2.124 4.643 1.349 3.12 2.589 6.28 3.763 9.463 1.188 3.177 2.288 6.383 3.376 9.594l1.581 4.829a17.674 17.674 0 0 0 2.102 4.36 14.738 14.738 0 0 0 7.583 5.69 27.145 27.145 0 0 0 9.72 1.21 64.746 64.746 0 0 0 19.456-4.42 51.365 51.365 0 0 0 17.078-10.11 48.592 48.592 0 0 0 11.715-15.945 90.91 90.91 0 0 0 7.498-39.097l1.999-.078a92.779 92.779 0 0 1-7.823 39.943 50.396 50.396 0 0 1-12.213 16.488 53.116 53.116 0 0 1-17.665 10.375 66.32 66.32 0 0 1-19.984 4.447 28.694 28.694 0 0 1-10.296-1.337 16.297 16.297 0 0 1-8.33-6.312 19.187 19.187 0 0 1-2.272-4.756l-1.558-4.82c-1.07-3.2-2.153-6.398-3.322-9.561a185.997 185.997 0 0 0-3.698-9.408 106.952 106.952 0 0 0-2.08-4.592 41.874 41.874 0 0 0-2.362-4.357z"></path><path class="cls-6" d="M205.757 396.221a37.593 37.593 0 0 1 3.195-4.08 64.084 64.084 0 0 1 3.585-3.763 69.267 69.267 0 0 1 8.119-6.536 60.904 60.904 0 0 1 19.076-8.533 57.691 57.691 0 0 1 10.413-1.433l2.626-.086 2.626.064a46.49 46.49 0 0 1 5.218.493c1.721.303 3.447.55 5.132.994.845.208 1.697.38 2.533.618l2.491.757 1.236.402 1.211.474 2.415.948c1.598.654 3.142 1.44 4.69 2.185l-.06.137a72.423 72.423 0 0 0-19.78-5.36 58.581 58.581 0 0 0-20.399 1.263 62.29 62.29 0 0 0-18.799 8.061 69.34 69.34 0 0 0-8.227 6.15 58.376 58.376 0 0 0-7.181 7.336zM157.535 299.207a32.866 32.866 0 0 0 7.602.2 14.893 14.893 0 0 0 6.883-2.392 10.604 10.604 0 0 0 4.085-6.054l.206-.928.1-.465.028-.471.05-.942-.11-.93a5.042 5.042 0 0 0-1.776-3.082 8.78 8.78 0 0 0-6.916-1.248l-.869.216a6.52 6.52 0 0 0-.8.318 12.853 12.853 0 0 0-1.566.917 24.986 24.986 0 0 0-2.905 2.336 21.143 21.143 0 0 0-4.632 5.805 7.496 7.496 0 0 0-.903 3.48 4.91 4.91 0 0 0 .423 1.744 5.895 5.895 0 0 0 1.1 1.496zm-.068.134a4.811 4.811 0 0 1-2.21-3.297 7.887 7.887 0 0 1 .586-4.032 19.535 19.535 0 0 1 4.61-6.497 20.852 20.852 0 0 1 3.145-2.479 14.321 14.321 0 0 1 1.812-.964 7.96 7.96 0 0 1 1.014-.356c.34-.07.678-.15 1.018-.21a10.693 10.693 0 0 1 4.085.13 7.445 7.445 0 0 1 3.624 1.895 6.066 6.066 0 0 1 1.732 3.618l.08.997-.07.99a13.361 13.361 0 0 1-.316 1.944c-.141.64-.363 1.257-.535 1.892-.203.626-.503 1.227-.756 1.849a19.153 19.153 0 0 1-1.08 1.714 17.456 17.456 0 0 1-1.425 1.47 12.928 12.928 0 0 1-7.56 2.56 20.806 20.806 0 0 1-7.754-1.224zM277.602 299.546a20.807 20.807 0 0 1-7.754 1.225 12.928 12.928 0 0 1-7.56-2.562 17.46 17.46 0 0 1-1.425-1.47 19.158 19.158 0 0 1-1.08-1.714c-.253-.622-.553-1.222-.756-1.848-.171-.636-.394-1.251-.534-1.892a13.361 13.361 0 0 1-.318-1.945l-.068-.989.079-.997a6.066 6.066 0 0 1 1.732-3.618 7.445 7.445 0 0 1 3.624-1.895 10.692 10.692 0 0 1 4.085-.13c.34.06.678.14 1.018.21a7.96 7.96 0 0 1 1.014.355 14.321 14.321 0 0 1 1.812.965 20.852 20.852 0 0 1 3.146 2.478 19.535 19.535 0 0 1 4.61 6.498 7.887 7.887 0 0 1 .585 4.032 4.811 4.811 0 0 1-2.21 3.297zm-.068-.134a5.895 5.895 0 0 0 1.1-1.496 4.91 4.91 0 0 0 .423-1.745 7.496 7.496 0 0 0-.903-3.48 21.143 21.143 0 0 0-4.632-5.805 24.986 24.986 0 0 0-2.905-2.335 12.852 12.852 0 0 0-1.567-.917 6.522 6.522 0 0 0-.799-.318l-.87-.216a8.78 8.78 0 0 0-6.914 1.247 5.042 5.042 0 0 0-1.777 3.083l-.11.93.05.941.029.472.1.465.205.927a10.604 10.604 0 0 0 4.086 6.055 14.893 14.893 0 0 0 6.882 2.391 32.866 32.866 0 0 0 7.602-.199zM209.69 231.709c1.7-2.264 3.367-4.543 4.902-6.913q2.385-3.495 4.535-7.134a149.514 149.514 0 0 0 7.808-14.942l1.657-3.871c.538-1.297.968-2.633 1.47-3.944.24-.659.5-1.312.726-1.976l.607-2.014.61-2.014a21.04 21.04 0 0 0 .58-2.023l.968-4.1a17.108 17.108 0 0 0 .383-2.071l.317-2.085a83.118 83.118 0 0 0 .867-8.417 64.069 64.069 0 0 1-1.413 16.942 86.79 86.79 0 0 1-5.403 16.184 110.29 110.29 0 0 1-8.203 14.94 98.368 98.368 0 0 1-10.41 13.438zM222.41 228.752a47.83 47.83 0 0 1 14.073-4.162 69.9 69.9 0 0 1 14.742-.608c1.229.084 2.451.252 3.676.374l1.836.202 1.82.318 3.627.677c1.195.293 2.385.604 3.572.92l1.78.471c.587.177 1.167.382 1.747.583l3.472 1.212c2.283.887 4.503 1.936 6.708 2.97-2.373-.623-4.667-1.418-7.013-2.036l-3.525-.885-1.756-.447-1.779-.35c-1.186-.23-2.368-.466-3.546-.72l-3.577-.524-1.784-.275-1.797-.174c-1.198-.104-2.394-.25-3.594-.321l-3.603-.177c-1.202-.069-2.404.007-3.607-.018-1.205-.034-2.405.045-3.607.104l-1.804.09-1.8.158a72.88 72.88 0 0 0-14.26 2.618z"></path><path class="cls-6" d="M233.127 186.717a125.508 125.508 0 0 0 1.01-15.086 76.406 76.406 0 0 0-1.296-14.933 36.886 36.886 0 0 0-2.086-7.105 24.699 24.699 0 0 0-3.648-6.298 16.234 16.234 0 0 0-5.616-4.494 20.595 20.595 0 0 0-7.09-1.809l.077-.002a32.058 32.058 0 0 0-14.27 5.756 33.32 33.32 0 0 0-5.733 5.24 34.892 34.892 0 0 0-4.3 6.445 44.275 44.275 0 0 0-4.292 14.793 69.471 69.471 0 0 0-.02 15.486 49.612 49.612 0 0 0 3.622 14.884c1.954 4.65 5.387 8.7 10.034 10.546 4.641 1.877 10.005 1.505 14.92.092a38.927 38.927 0 0 0 7.176-2.916 28.044 28.044 0 0 0 3.32-2.023 9.839 9.839 0 0 0 2.76-2.652l.185.076a9.511 9.511 0 0 1-2.632 2.983 28.704 28.704 0 0 1-3.242 2.3 36.544 36.544 0 0 1-7.2 3.395 28.002 28.002 0 0 1-7.872 1.596 20.48 20.48 0 0 1-8.066-1.154 17.966 17.966 0 0 1-6.86-4.531 24.222 24.222 0 0 1-4.474-6.832 47.952 47.952 0 0 1-3.665-15.574 66.795 66.795 0 0 1 .352-15.901c.215-1.315.417-2.63.748-3.923a38.8 38.8 0 0 1 1.062-3.85 41.553 41.553 0 0 1 3.22-7.296 36.33 36.33 0 0 1 10.594-11.695 37.882 37.882 0 0 1 14.52-6.232l.025-.004.053.002a21.63 21.63 0 0 1 7.614 1.556 16.915 16.915 0 0 1 6.341 4.642c3.469 4.03 5.214 9.147 6.126 14.174a65.856 65.856 0 0 1 .826 15.29 87.363 87.363 0 0 1-2.027 15.092z"></path><path class="cls-17" d="M202.298 126.739s27.056-1.775 25.356-15.524c-.934-7.553-7.823-8.414-13.843-7.656a30.332 30.332 0 0 0-16.71 7.678c-2.81 2.58-5.255 5.803-4.856 8.996.887 7.097 10.053 6.506 10.053 6.506zM308.577 122.729s24.98 10.542 29.624-2.51c2.551-7.17-3.22-11.028-8.942-13.05a30.332 30.332 0 0 0-18.378-.627c-3.669 1.046-7.3 2.831-8.374 5.865-2.389 6.741 6.07 10.322 6.07 10.322z"></path><path class="cls-19" d="M188.998 155.581s46.566-27.512 36.364 51.438c0 0-15.293 5.914-19.959 5.206s-17.065-5.038-18.93-17.986-.695-33.274 2.525-38.658z"></path><ellipse class="cls-3" cx="219.872" cy="168.528" rx="9.905" ry="13.084"></ellipse><path class="cls-6" d="M311.637 228.249a90.378 90.378 0 0 1-4.955-13.508 124.7 124.7 0 0 1-3.19-14.052 123.22 123.22 0 0 1-1.58-14.323 108.69 108.69 0 0 1 .16-14.387c.259 4.79.505 9.555 1.008 14.298.447 4.746 1.1 9.467 1.89 14.162.753 4.703 1.75 9.364 2.84 14.005 1.123 4.632 2.33 9.253 3.827 13.805z"></path><path class="cls-6" d="M304.16 188.532c-.524-1.978-.912-3.985-1.25-6.003-.336-2.017-.616-4.047-.783-6.09a71.336 71.336 0 0 1-.105-12.318 41.763 41.763 0 0 1 2.727-12.115 22.754 22.754 0 0 1 7.462-10.051 20.47 20.47 0 0 1 5.62-2.9 19.92 19.92 0 0 1 6.206-.973 22.323 22.323 0 0 1 6.166.866 24.067 24.067 0 0 1 2.926 1.017l1.422.59 1.395.652a42.41 42.41 0 0 1 10.26 6.74 36.703 36.703 0 0 1 7.626 9.665l.748 1.361a15.303 15.303 0 0 1 .63 1.417c.386.96.83 1.902 1.168 2.88l.886 2.982a24.142 24.142 0 0 1 .639 3.04 52.134 52.134 0 0 1 .694 12.372c-.141 2.06-.43 4.106-.64 6.16-.152 1.026-.383 2.05-.572 3.076-.187 1.027-.547 2.022-.815 3.036a11.349 11.349 0 0 1-.519 1.49l-.584 1.473c-.407.974-.963 1.889-1.44 2.835a22.837 22.837 0 0 1-4.021 4.966 21.068 21.068 0 0 1-5.3 3.578 25.095 25.095 0 0 1-6.045 1.931 37.623 37.623 0 0 1-12.46-.035 53.7 53.7 0 0 1-11.867-3.398 46.05 46.05 0 0 1-5.53-2.715 26.28 26.28 0 0 1-2.585-1.685 7.264 7.264 0 0 1-2.166-2.219l.18-.086a7.267 7.267 0 0 0 2.24 1.942 25.782 25.782 0 0 0 2.637 1.48 55.558 55.558 0 0 0 5.587 2.339c1.903.676 3.844 1.234 5.797 1.721 1.965.439 3.938.833 5.928 1.073a35.904 35.904 0 0 0 11.863-.307 26.328 26.328 0 0 0 2.826-.793 20.711 20.711 0 0 0 2.703-1.094 20.422 20.422 0 0 0 6.713-5.41c.618-.742 1.116-1.585 1.668-2.38.436-.873.951-1.703 1.33-2.607.339-.92.8-1.792 1.064-2.746.264-.95.622-1.874.815-2.849.195-.974.431-1.936.594-2.922.235-1.992.551-3.982.722-5.98a54.66 54.66 0 0 0-.382-11.984 45.457 45.457 0 0 0-1.258-5.862c-.284-.959-.673-1.882-1.005-2.828a14.566 14.566 0 0 0-.548-1.398l-.666-1.347a32.99 32.99 0 0 0-7.13-9.653 37.23 37.23 0 0 0-10.06-6.672q-1.374-.643-2.803-1.152a20.99 20.99 0 0 0-2.87-.898 21.358 21.358 0 0 0-5.933-.55 18.814 18.814 0 0 0-5.771 1.181 19.708 19.708 0 0 0-5.074 2.904 22.803 22.803 0 0 0-6.833 9.4 34.153 34.153 0 0 0-1.801 5.678 49.188 49.188 0 0 0-1.022 5.92 77.123 77.123 0 0 0-.39 12.094 104.673 104.673 0 0 0 1.181 12.117z"></path><path class="cls-19" d="M305.455 153.148s48.026-24.11 37.825 54.84c0 0-17.857 1.013-22.523.306s-15.963-3.54-17.827-16.488-.696-33.274 2.525-38.658z"></path><ellipse class="cls-3" cx="340.508" cy="168.528" rx="11.418" ry="13.084"></ellipse><path class="cls-18" d="M128.671 360.63s-26.02-41.988-26.612-51.45 4.731-30.16 18.333-72.149 37.257-115.346 40.805-120.95 6.226-18.024 15.532-23.938 137.045-50.353 237.58 11.193"></path><path class="cls-17" d="M189.101 87.138s-36.183-37.662-70.483-16.033c-22.76 14.352-15.315 46.793-7.729 66.997a81.745 81.745 0 0 0 19.39 29.679c3.062 2.996 6.443 6.106 9.78 8.785"></path><path class="cls-6" d="M119.11 105.4a46.591 46.591 0 0 1 1.852-8.989 29.565 29.565 0 0 1 3.969-8.346 14.175 14.175 0 0 1 7.497-5.586 13.85 13.85 0 0 1 4.738-.46l1.174.036c.39.026.777.09 1.166.133a19.216 19.216 0 0 1 2.323.36 27.051 27.051 0 0 1 8.792 3.35c.672.414 1.312.88 1.969 1.319.655.442 1.239.979 1.85 1.479a21.539 21.539 0 0 1 1.698 1.648 18.43 18.43 0 0 1 1.565 1.768 33.095 33.095 0 0 1 6.912 17.06l-.196.04c-.509-1.448-.88-2.916-1.49-4.306a38.506 38.506 0 0 0-1.808-4.129 36.257 36.257 0 0 0-4.953-7.383 16.766 16.766 0 0 0-1.491-1.629 19.663 19.663 0 0 0-1.608-1.508c-.575-.455-1.091-.988-1.694-1.407-.601-.42-1.185-.87-1.8-1.27a25.26 25.26 0 0 0-8.086-3.468 17.825 17.825 0 0 0-2.18-.412c-.367-.053-.732-.127-1.101-.163l-1.111-.07a12.489 12.489 0 0 0-4.33.267 13.024 13.024 0 0 0-7.036 4.932 28.783 28.783 0 0 0-4.2 7.937 46.212 46.212 0 0 0-2.222 8.817z"></path><path class="cls-17" d="M408.83 100.108s39.888-38.98 74.188-17.35c22.76 14.352 18.122 47.978 10.536 68.182 0 0-11.572 40.478-53.898 57.605"></path><path class="cls-6" d="M484.73 129.033a46.209 46.209 0 0 0 1.36-8.99 28.783 28.783 0 0 0-.804-8.945 13.025 13.025 0 0 0-4.582-7.269 12.49 12.49 0 0 0-3.89-1.919l-1.052-.365c-.354-.11-.72-.182-1.078-.275a17.807 17.807 0 0 0-2.17-.464 25.258 25.258 0 0 0-8.798.072c-.722.131-1.434.32-2.151.476-.718.153-1.4.445-2.107.642a19.686 19.686 0 0 0-2.066.77 16.779 16.779 0 0 0-2.005.925 36.257 36.257 0 0 0-7.422 4.893 38.498 38.498 0 0 0-3.263 3.11c-1.1 1.046-2.01 2.256-3.04 3.394l-.165-.112a33.094 33.094 0 0 1 12.97-13.061 18.406 18.406 0 0 1 2.127-1.026 21.55 21.55 0 0 1 2.203-.863c.757-.224 1.503-.494 2.279-.648.776-.151 1.546-.333 2.325-.455a27.05 27.05 0 0 1 9.403.31 19.212 19.212 0 0 1 2.282.566c.376.11.758.2 1.127.328l1.096.42a13.852 13.852 0 0 1 4.192 2.256 14.174 14.174 0 0 1 4.754 8.051 29.563 29.563 0 0 1 .434 9.232 46.595 46.595 0 0 1-1.767 9.005z"></path><path class="cls-18" d="M450.694 105.41s-13.913 6.84-15.095 18.667 10.645 180.076 10.201 203.584 0 27.499-12.419 38.144-50.882 32.378-75.56 37.257M197.273 84.554s-11.385-35.434 6.8-62.49c11.365-16.91 24.29-12.682 32.386-7.134a38.783 38.783 0 0 1 11.134 12.024c5.279 8.726 10.838 24.127 12.809 44.15M339.327 75.362s-3.983-34.813 19.102-57.83c14.429-14.385 26.289-7.732 33.155-.72 3.865 3.948 6.428 8.872 8.592 13.955 7.036 16.53 5.515 28.24.941 65.17M199.589 424.203s-1.726 156.717-8.823 199.297-24.359 163.221-24.598 168.543c0 0-23.4 158.787 33.42 261.687"></path><path class="cls-18" d="M174.324 987.096c.578 2.123 15.555 142.424 37.732 184.381s113.688 30.477 122.416 11.518c8.871-19.268 12.964-71.188 12.964-71.188"></path><path class="cls-6" d="M238.704 1074.04q6.7 1.923 13.313 4.048c4.412 1.414 8.818 2.835 13.185 4.381 4.352 1.588 8.688 3.242 13.09 4.694q6.625 2.105 13.398 3.702l13.512 3.23c4.51 1.03 9.018 2.06 13.537 3.016 9.028 1.967 18.062 3.855 27.27 5.037a.1.1 0 0 1 .089.111.101.101 0 0 1-.1.089c-9.32.077-18.59-1.336-27.702-3.15a256.683 256.683 0 0 1-26.903-7.279c-4.425-1.408-8.826-2.877-13.29-4.136a241.628 241.628 0 0 0-6.71-1.857c-2.246-.594-4.475-1.24-6.71-1.875a136.97 136.97 0 0 1-6.623-2.143 226.535 226.535 0 0 1-6.552-2.355c-4.347-1.627-8.654-3.369-12.875-5.327a.1.1 0 0 1 .07-.187z"></path><path class="cls-18" d="M338.02 1053.73s15.968 122.416 36.37 143.706 100.24 23.064 113.546 0 31.048-61.48 34.596-109.246a662.261 662.261 0 0 0 0-91.233"></path><path class="cls-6" d="M521.055 1102.148c10.215-.648 20.36-1.54 30.497-2.596 5.074-.466 10.164-.959 15.192-1.853a111.537 111.537 0 0 0 14.842-3.703c4.844-1.59 9.633-3.307 14.295-5.3a107.818 107.818 0 0 0 13.444-6.983c8.557-5.27 16.136-12.335 20.746-21.516a.1.1 0 0 1 .134-.046.101.101 0 0 1 .05.123 40.88 40.88 0 0 1-7.928 13.225 55.262 55.262 0 0 1-11.866 10.02 97.416 97.416 0 0 1-28.578 11.53c-4.979 1.253-10.007 2.234-15.017 3.287l-7.53 1.547c-2.52.473-5.045.936-7.583 1.321a150.46 150.46 0 0 1-15.324 1.35 130.184 130.184 0 0 1-15.378-.206.1.1 0 0 1-.092-.108.103.103 0 0 1 .096-.092z"></path><path class="cls-18" d="M557.097 1099.647s1.509 58.758 18.511 77.386 42.728 21.29 71.114 14.193 44.354-12.563 50.563-43.982 26.613-120.126 17.742-187.544-36.37-133.948-89.595-173.866-130.079-55.456-155.804-47.62"></path><path class="cls-18" d="M717.153 989.41s9.85-2.654 10.736-4.428c0 0 8.428 7.54 13.75-12.863 0 0 12.863 6.21 8.87-28.386-.304-2.644-23.95-36.37-37.256-62.982s-33.396-31.61-33.396-31.61M423.597 372.983s-33.799 116.81 49.586 382.932"></path></svg> 