<svg width="1154" height="694" viewBox="0 0 1154 694" fill="none" xmlns="http://www.w3.org/2000/svg">
<rect x="413" y="693.434" width="159.128" height="206" transform="rotate(-90 413 693.434)" fill="#1B0085"/>
<rect x="413" y="534.306" width="113.065" height="206" transform="rotate(-90 413 534.306)" fill="#542AED"/>
<rect x="619" y="324.926" width="97.1522" height="206" transform="rotate(90 619 324.926)" fill="#8B62FF"/>
<rect x="619" y="217.724" width="108.04" height="206" transform="rotate(90 619 217.724)" fill="#A585FF"/>
<rect x="619" y="172.498" width="45.226" height="206" transform="rotate(90 619 172.498)" fill="#D5C9FF"/>
<rect x="619" y="127.271" width="45.226" height="206" transform="rotate(90 619 127.271)" fill="#EBEBEB"/>
<path d="M644.823 562.518H655.203V559.858H649.383L651.883 557.918C654.283 556.178 655.083 554.758 655.083 552.918C655.083 550.338 652.963 548.538 650.043 548.538C647.823 548.538 646.083 549.498 644.723 551.218L646.603 553.038C647.603 551.898 648.623 551.218 649.963 551.218C651.083 551.218 652.043 551.898 652.043 553.038C652.043 553.998 651.523 554.898 649.883 556.198L644.823 560.118V562.518ZM662.669 562.758C665.689 562.758 668.189 561.338 668.189 558.838C668.189 557.258 667.109 556.058 665.489 555.418C666.869 554.818 667.849 553.818 667.849 552.278C667.849 549.918 665.409 548.538 662.669 548.538C659.989 548.538 657.509 549.858 657.509 552.278C657.509 553.838 658.489 554.838 659.849 555.418C658.269 556.018 657.149 557.218 657.149 558.838C657.149 561.318 659.629 562.758 662.669 562.758ZM662.669 554.398C661.589 554.318 660.449 553.718 660.449 552.658C660.449 551.718 661.349 551.018 662.669 551.018C663.989 551.018 664.909 551.718 664.909 552.658C664.909 553.678 663.749 554.318 662.669 554.398ZM662.669 560.278C661.209 560.278 660.149 559.558 660.149 558.518C660.149 557.438 661.489 556.758 662.669 556.718C663.849 556.758 665.209 557.438 665.209 558.518C665.209 559.558 664.129 560.278 662.669 560.278ZM673.64 555.678C675.66 555.678 677.08 554.138 677.08 552.158C677.08 550.218 675.72 548.638 673.64 548.638C671.58 548.638 670.22 550.198 670.22 552.178C670.22 554.138 671.58 555.678 673.64 555.678ZM672.02 562.518H674.32L683.88 548.778H681.56L672.02 562.518ZM673.64 553.958C672.82 553.958 672.18 553.238 672.18 552.158C672.18 551.078 672.78 550.378 673.64 550.378C674.48 550.378 675.1 551.098 675.1 552.158C675.1 553.258 674.48 553.958 673.64 553.958ZM682.22 562.738C684.24 562.738 685.64 561.198 685.64 559.218C685.64 557.278 684.3 555.698 682.22 555.698C680.18 555.698 678.78 557.258 678.78 559.218C678.78 561.178 680.18 562.738 682.22 562.738ZM682.22 560.998C681.38 560.998 680.76 560.278 680.76 559.218C680.76 558.118 681.36 557.418 682.22 557.418C683.04 557.418 683.68 558.138 683.68 559.218C683.68 560.298 683.08 560.998 682.22 560.998Z" fill="#0F0B47"/>
<path d="M687 534.434H413" stroke="#0F0B47" stroke-linecap="square" stroke-dasharray="10 10"/>
<path d="M644.823 449.453H655.203V446.793H649.383L651.883 444.853C654.283 443.113 655.083 441.693 655.083 439.853C655.083 437.273 652.963 435.473 650.043 435.473C647.823 435.473 646.083 436.433 644.723 438.153L646.603 439.973C647.603 438.833 648.623 438.153 649.963 438.153C651.083 438.153 652.043 438.833 652.043 439.973C652.043 440.933 651.523 441.833 649.883 443.133L644.823 447.053V449.453ZM663.369 449.693C666.989 449.693 669.529 446.753 669.529 442.573C669.529 438.413 666.989 435.473 663.369 435.473C659.749 435.473 657.189 438.413 657.189 442.573C657.189 446.753 659.749 449.693 663.369 449.693ZM663.369 447.013C661.529 447.013 660.229 445.153 660.229 442.573C660.229 439.993 661.529 438.153 663.369 438.153C665.209 438.153 666.509 439.993 666.509 442.573C666.509 445.153 665.209 447.013 663.369 447.013ZM675.007 442.613C677.027 442.613 678.447 441.073 678.447 439.093C678.447 437.153 677.087 435.573 675.007 435.573C672.947 435.573 671.587 437.133 671.587 439.113C671.587 441.073 672.947 442.613 675.007 442.613ZM673.387 449.453H675.687L685.247 435.713H682.927L673.387 449.453ZM675.007 440.893C674.187 440.893 673.547 440.173 673.547 439.093C673.547 438.013 674.147 437.313 675.007 437.313C675.847 437.313 676.467 438.033 676.467 439.093C676.467 440.193 675.847 440.893 675.007 440.893ZM683.587 449.673C685.607 449.673 687.007 448.133 687.007 446.153C687.007 444.213 685.667 442.633 683.587 442.633C681.547 442.633 680.147 444.193 680.147 446.153C680.147 448.113 681.547 449.673 683.587 449.673ZM683.587 447.933C682.747 447.933 682.127 447.213 682.127 446.153C682.127 445.053 682.727 444.353 683.587 444.353C684.407 444.353 685.047 445.073 685.047 446.153C685.047 447.233 684.447 447.933 683.587 447.933Z" fill="#0F0B47"/>
<path d="M687 422.434H413" stroke="#0F0B47" stroke-linecap="square" stroke-dasharray="10 10"/>
<path d="M647.983 353.139H650.923V339.399H648.563L644.443 342.159L645.643 344.239L647.983 342.779V353.139ZM654.517 353.139H657.837L663.397 341.619V339.399H653.177V342.059H659.977L654.517 353.139ZM668.542 346.299C670.562 346.299 671.982 344.759 671.982 342.779C671.982 340.839 670.622 339.259 668.542 339.259C666.482 339.259 665.122 340.819 665.122 342.799C665.122 344.759 666.482 346.299 668.542 346.299ZM666.922 353.139H669.222L678.782 339.399H676.462L666.922 353.139ZM668.542 344.579C667.722 344.579 667.082 343.859 667.082 342.779C667.082 341.699 667.682 340.999 668.542 340.999C669.382 340.999 670.002 341.719 670.002 342.779C670.002 343.879 669.382 344.579 668.542 344.579ZM677.122 353.359C679.142 353.359 680.542 351.819 680.542 349.839C680.542 347.899 679.202 346.319 677.122 346.319C675.082 346.319 673.682 347.879 673.682 349.839C673.682 351.799 675.082 353.359 677.122 353.359ZM677.122 351.619C676.282 351.619 675.662 350.899 675.662 349.839C675.662 348.739 676.262 348.039 677.122 348.039C677.942 348.039 678.582 348.759 678.582 349.839C678.582 350.919 677.982 351.619 677.122 351.619Z" fill="#0F0B47"/>
<path d="M687 325.434H413" stroke="#0F0B47" stroke-linecap="square" stroke-dasharray="10 10"/>
<path d="M647.983 245.098H650.923V231.358H648.563L644.443 234.118L645.643 236.198L647.983 234.738V245.098ZM658.677 231.118C655.677 231.118 653.417 233.058 653.417 235.878C653.417 238.598 655.517 240.238 658.057 240.238C659.357 240.238 660.617 239.738 661.457 238.918C661.197 241.238 659.997 242.738 658.197 242.738C657.037 242.738 656.237 242.318 655.397 241.618L653.997 243.858C655.117 244.758 656.497 245.338 658.197 245.338C662.017 245.338 664.517 242.278 664.517 237.998C664.517 233.998 662.677 231.118 658.677 231.118ZM658.917 237.838C657.577 237.838 656.457 237.058 656.457 235.738C656.457 234.638 657.377 233.618 658.837 233.618C660.377 233.618 661.117 234.558 661.377 236.238C660.957 237.218 660.037 237.838 658.917 237.838ZM670.046 238.258C672.066 238.258 673.486 236.718 673.486 234.738C673.486 232.798 672.126 231.218 670.046 231.218C667.986 231.218 666.626 232.778 666.626 234.758C666.626 236.718 667.986 238.258 670.046 238.258ZM668.426 245.098H670.726L680.286 231.358H677.966L668.426 245.098ZM670.046 236.538C669.226 236.538 668.586 235.818 668.586 234.738C668.586 233.658 669.186 232.958 670.046 232.958C670.886 232.958 671.506 233.678 671.506 234.738C671.506 235.838 670.886 236.538 670.046 236.538ZM678.626 245.318C680.646 245.318 682.046 243.778 682.046 241.798C682.046 239.858 680.706 238.278 678.626 238.278C676.586 238.278 675.186 239.838 675.186 241.798C675.186 243.758 676.586 245.318 678.626 245.318ZM678.626 243.578C677.786 243.578 677.166 242.858 677.166 241.798C677.166 240.698 677.766 239.998 678.626 239.998C679.446 239.998 680.086 240.718 680.086 241.798C680.086 242.878 679.486 243.578 678.626 243.578Z" fill="#0F0B47"/>
<path d="M687 217.434L413 217.434" stroke="#0F0B47" stroke-linecap="square" stroke-dasharray="10 10"/>
<path d="M650.443 200.112C653.463 200.112 655.963 198.692 655.963 196.192C655.963 194.612 654.883 193.412 653.263 192.772C654.643 192.172 655.623 191.172 655.623 189.632C655.623 187.272 653.183 185.892 650.443 185.892C647.763 185.892 645.283 187.212 645.283 189.632C645.283 191.192 646.263 192.192 647.623 192.772C646.043 193.372 644.923 194.572 644.923 196.192C644.923 198.672 647.403 200.112 650.443 200.112ZM650.443 191.752C649.363 191.672 648.223 191.072 648.223 190.012C648.223 189.072 649.123 188.372 650.443 188.372C651.763 188.372 652.683 189.072 652.683 190.012C652.683 191.032 651.523 191.672 650.443 191.752ZM650.443 197.632C648.983 197.632 647.923 196.912 647.923 195.872C647.923 194.792 649.263 194.112 650.443 194.072C651.623 194.112 652.983 194.792 652.983 195.872C652.983 196.912 651.903 197.632 650.443 197.632ZM661.414 193.032C663.434 193.032 664.854 191.492 664.854 189.512C664.854 187.572 663.494 185.992 661.414 185.992C659.354 185.992 657.994 187.552 657.994 189.532C657.994 191.492 659.354 193.032 661.414 193.032ZM659.794 199.872H662.094L671.654 186.132H669.334L659.794 199.872ZM661.414 191.312C660.594 191.312 659.954 190.592 659.954 189.512C659.954 188.432 660.554 187.732 661.414 187.732C662.254 187.732 662.874 188.452 662.874 189.512C662.874 190.612 662.254 191.312 661.414 191.312ZM669.994 200.092C672.014 200.092 673.414 198.552 673.414 196.572C673.414 194.632 672.074 193.052 669.994 193.052C667.954 193.052 666.554 194.612 666.554 196.572C666.554 198.532 667.954 200.092 669.994 200.092ZM669.994 198.352C669.154 198.352 668.534 197.632 668.534 196.572C668.534 195.472 669.134 194.772 669.994 194.772C670.814 194.772 671.454 195.492 671.454 196.572C671.454 197.652 670.854 198.352 669.994 198.352Z" fill="#0F0B47"/>
<path d="M687 172.434L413 172.434" stroke="#0F0B47" stroke-linecap="square" stroke-dasharray="10 10"/>
<path d="M650.443 154.049C653.463 154.049 655.963 152.629 655.963 150.129C655.963 148.549 654.883 147.349 653.263 146.709C654.643 146.109 655.623 145.109 655.623 143.569C655.623 141.209 653.183 139.829 650.443 139.829C647.763 139.829 645.283 141.149 645.283 143.569C645.283 145.129 646.263 146.129 647.623 146.709C646.043 147.309 644.923 148.509 644.923 150.129C644.923 152.609 647.403 154.049 650.443 154.049ZM650.443 145.689C649.363 145.609 648.223 145.009 648.223 143.949C648.223 143.009 649.123 142.309 650.443 142.309C651.763 142.309 652.683 143.009 652.683 143.949C652.683 144.969 651.523 145.609 650.443 145.689ZM650.443 151.569C648.983 151.569 647.923 150.849 647.923 149.809C647.923 148.729 649.263 148.049 650.443 148.009C651.623 148.049 652.983 148.729 652.983 149.809C652.983 150.849 651.903 151.569 650.443 151.569ZM661.414 146.969C663.434 146.969 664.854 145.429 664.854 143.449C664.854 141.509 663.494 139.929 661.414 139.929C659.354 139.929 657.994 141.489 657.994 143.469C657.994 145.429 659.354 146.969 661.414 146.969ZM659.794 153.809H662.094L671.654 140.069H669.334L659.794 153.809ZM661.414 145.249C660.594 145.249 659.954 144.529 659.954 143.449C659.954 142.369 660.554 141.669 661.414 141.669C662.254 141.669 662.874 142.389 662.874 143.449C662.874 144.549 662.254 145.249 661.414 145.249ZM669.994 154.029C672.014 154.029 673.414 152.489 673.414 150.509C673.414 148.569 672.074 146.989 669.994 146.989C667.954 146.989 666.554 148.549 666.554 150.509C666.554 152.469 667.954 154.029 669.994 154.029ZM669.994 152.289C669.154 152.289 668.534 151.569 668.534 150.509C668.534 149.409 669.134 148.709 669.994 148.709C670.814 148.709 671.454 149.429 671.454 150.509C671.454 151.589 670.854 152.289 669.994 152.289Z" fill="#0F0B47"/>
<path d="M412.74 19.4336H415.7V10.5536L422.32 19.4336H425.28V5.69359H422.32V14.5736L415.7 5.69359H412.74V19.4336ZM439.336 8.35359V5.69359H428.756V19.4336H439.336V16.7736H431.716V13.7536H438.636V11.0936H431.716V8.35359H439.336ZM452.133 19.4336H455.453L449.853 5.69359H446.553L440.953 19.4336H444.253L445.213 17.0736H451.173L452.133 19.4336ZM446.153 14.7736L448.193 9.75359L450.233 14.7736H446.153ZM469.061 10.3336C469.061 7.61359 466.881 5.69359 463.881 5.69359H457.701V19.4336H460.661V14.9736H462.441L465.581 19.4336H468.941L465.641 14.7336C467.701 14.1336 469.061 12.4936 469.061 10.3336ZM460.661 8.39359H463.581C465.041 8.39359 466.041 9.15359 466.041 10.3336C466.041 11.5136 465.041 12.2736 463.581 12.2736H460.661V8.39359ZM474.743 16.7736V5.69359H471.783V19.4336H481.583V16.7736H474.743ZM488.07 19.4336H491.05V14.4736L496.41 5.69359H493.11L489.55 11.7136L486.13 5.69359H482.69L488.07 14.4736V19.4336ZM514.008 19.4336H517.328L511.728 5.69359H508.428L502.828 19.4336H506.128L507.088 17.0736H513.048L514.008 19.4336ZM508.028 14.7736L510.068 9.75359L512.108 14.7736H508.028ZM522.536 16.7736V5.69359H519.576V19.4336H529.376V16.7736H522.536ZM534.723 16.7736V5.69359H531.763V19.4336H541.563V16.7736H534.723ZM555.9 19.6736C559.86 19.6736 563.18 16.4136 563.18 12.5536C563.18 8.69359 559.86 5.45359 555.9 5.45359C551.94 5.45359 548.58 8.69359 548.58 12.5536C548.58 16.4136 551.94 19.6736 555.9 19.6736ZM555.9 16.9936C553.58 16.9936 551.62 14.9536 551.62 12.5536C551.62 10.1736 553.58 8.13359 555.9 8.13359C558.2 8.13359 560.16 10.1736 560.16 12.5536C560.16 14.9536 558.2 16.9936 555.9 16.9936ZM576.445 8.35359V5.69359H565.865V19.4336H568.825V13.9936H575.745V11.3336H568.825V8.35359H576.445ZM590.939 19.6736C594.899 19.6736 598.219 16.4136 598.219 12.5536C598.219 8.69359 594.899 5.45359 590.939 5.45359C586.979 5.45359 583.619 8.69359 583.619 12.5536C583.619 16.4136 586.979 19.6736 590.939 19.6736ZM590.939 16.9936C588.619 16.9936 586.659 14.9536 586.659 12.5536C586.659 10.1736 588.619 8.13359 590.939 8.13359C593.239 8.13359 595.199 10.1736 595.199 12.5536C595.199 14.9536 593.239 16.9936 590.939 16.9936ZM606.824 19.6736C610.464 19.6736 613.044 17.1136 613.044 13.4936V5.69359H610.084V13.3736C610.084 15.4936 608.724 16.9936 606.824 16.9936C604.904 16.9936 603.544 15.4936 603.544 13.3736V5.69359H600.604V13.4936C600.604 17.1136 603.164 19.6736 606.824 19.6736ZM627.577 10.3336C627.577 7.61359 625.397 5.69359 622.397 5.69359H616.217V19.4336H619.177V14.9736H620.957L624.097 19.4336H627.457L624.157 14.7336C626.217 14.1336 627.577 12.4936 627.577 10.3336ZM619.177 8.39359H622.097C623.557 8.39359 624.557 9.15359 624.557 10.3336C624.557 11.5136 623.557 12.2736 622.097 12.2736H619.177V8.39359ZM412.74 45.4336H417.68C422.3 45.4336 425.58 42.5736 425.58 38.5536C425.58 34.5336 422.3 31.6936 417.68 31.6936H412.74V45.4336ZM415.7 42.7536V34.3736H418.06C420.68 34.3736 422.54 36.1136 422.54 38.5536C422.54 41.0136 420.68 42.7536 418.06 42.7536H415.7ZM438.808 34.3536V31.6936H428.228V45.4336H438.808V42.7736H431.188V39.7536H438.108V37.0936H431.188V34.3536H438.808ZM451.626 31.6936L447.706 41.3736L443.766 31.6936H440.446L446.046 45.4336H449.346L454.946 31.6936H451.626ZM467.793 34.3536V31.6936H457.213V45.4336H467.793V42.7736H460.173V39.7536H467.093V37.0936H460.173V34.3536H467.793ZM473.61 42.7736V31.6936H470.65V45.4336H480.45V42.7736H473.61ZM489.338 45.6736C493.298 45.6736 496.618 42.4136 496.618 38.5536C496.618 34.6936 493.298 31.4536 489.338 31.4536C485.378 31.4536 482.018 34.6936 482.018 38.5536C482.018 42.4136 485.378 45.6736 489.338 45.6736ZM489.338 42.9936C487.018 42.9936 485.058 40.9536 485.058 38.5536C485.058 36.1736 487.018 34.1336 489.338 34.1336C491.638 34.1336 493.598 36.1736 493.598 38.5536C493.598 40.9536 491.638 42.9936 489.338 42.9936ZM499.303 45.4336H502.263V40.9736H505.483C508.483 40.9736 510.663 39.0536 510.663 36.3336C510.663 33.6136 508.483 31.6936 505.483 31.6936H499.303V45.4336ZM502.263 38.2736V34.3936H505.183C506.643 34.3936 507.643 35.1536 507.643 36.3336C507.643 37.5136 506.643 38.2736 505.183 38.2736H502.263ZM513.209 45.4336H516.169V36.8736L520.409 44.6336L524.669 36.8736V45.4336H527.609V31.6936H524.669L520.409 39.4536L516.169 31.6936H513.209V45.4336ZM541.679 34.3536V31.6936H531.099V45.4336H541.679V42.7736H534.059V39.7536H540.979V37.0936H534.059V34.3536H541.679ZM544.537 45.4336H547.497V36.5536L554.117 45.4336H557.077V31.6936H554.117V40.5736L547.497 31.6936H544.537V45.4336ZM563.733 45.4336H566.673V34.3536H570.973V31.6936H559.453V34.3536H563.733V45.4336ZM588.715 45.4336H592.035L586.435 31.6936H583.135L577.535 45.4336H580.835L581.795 43.0736H587.755L588.715 45.4336ZM582.735 40.7736L584.775 35.7536L586.815 40.7736H582.735ZM594.283 45.4336H597.243V36.5536L603.863 45.4336H606.823V31.6936H603.863V40.5736L597.243 31.6936H594.283V45.4336ZM610.299 45.4336H615.239C619.859 45.4336 623.139 42.5736 623.139 38.5536C623.139 34.5336 619.859 31.6936 615.239 31.6936H610.299V45.4336ZM613.259 42.7536V34.3736H615.619C618.239 34.3736 620.099 36.1136 620.099 38.5536C620.099 41.0136 618.239 42.7536 615.619 42.7536H613.259ZM631.236 45.4336H636.176C640.796 45.4336 644.076 42.5736 644.076 38.5536C644.076 34.5336 640.796 31.6936 636.176 31.6936H631.236V45.4336ZM634.196 42.7536V34.3736H636.556C639.176 34.3736 641.036 36.1136 641.036 38.5536C641.036 41.0136 639.176 42.7536 636.556 42.7536H634.196ZM657.304 34.3536V31.6936H646.724V45.4336H657.304V42.7736H649.684V39.7536H656.604V37.0936H649.684V34.3536H657.304ZM660.162 45.4336H663.122V40.9736H666.342C669.342 40.9736 671.522 39.0536 671.522 36.3336C671.522 33.6136 669.342 31.6936 666.342 31.6936H660.162V45.4336ZM663.122 38.2736V34.3936H666.042C667.502 34.3936 668.502 35.1536 668.502 36.3336C668.502 37.5136 667.502 38.2736 666.042 38.2736H663.122ZM677.028 42.7736V31.6936H674.068V45.4336H683.868V42.7736H677.028ZM692.756 45.6736C696.716 45.6736 700.036 42.4136 700.036 38.5536C700.036 34.6936 696.716 31.4536 692.756 31.4536C688.796 31.4536 685.436 34.6936 685.436 38.5536C685.436 42.4136 688.796 45.6736 692.756 45.6736ZM692.756 42.9936C690.436 42.9936 688.476 40.9536 688.476 38.5536C688.476 36.1736 690.436 34.1336 692.756 34.1336C695.056 34.1336 697.016 36.1736 697.016 38.5536C697.016 40.9536 695.056 42.9936 692.756 42.9936ZM706.82 45.4336H709.8V40.4736L715.16 31.6936H711.86L708.3 37.7136L704.88 31.6936H701.44L706.82 40.4736V45.4336ZM717.369 45.4336H720.329V36.8736L724.569 44.6336L728.829 36.8736V45.4336H731.769V31.6936H728.829L724.569 39.4536L720.329 31.6936H717.369V45.4336ZM745.84 34.3536V31.6936H735.26V45.4336H745.84V42.7736H738.22V39.7536H745.14V37.0936H738.22V34.3536H745.84ZM748.697 45.4336H751.657V36.5536L758.277 45.4336H761.237V31.6936H758.277V40.5736L751.657 31.6936H748.697V45.4336ZM767.893 45.4336H770.833V34.3536H775.133V31.6936H763.613V34.3536H767.893V45.4336ZM418.66 71.6736C422.3 71.6736 424.88 69.1136 424.88 65.4936V57.6936H421.92V65.3736C421.92 67.4936 420.56 68.9936 418.66 68.9936C416.74 68.9936 415.38 67.4936 415.38 65.3736V57.6936H412.44V65.4936C412.44 69.1136 415 71.6736 418.66 71.6736ZM433.133 71.6736C436.473 71.6736 438.473 69.9336 438.473 67.3136C438.473 64.7736 436.513 63.8936 433.553 63.2336C431.433 62.7536 430.593 62.4336 430.593 61.4336C430.593 60.6136 431.373 59.9536 432.613 59.9536C433.933 59.9536 435.313 60.4936 436.553 61.4936L438.093 59.3536C436.673 58.1536 434.953 57.4536 432.713 57.4536C429.693 57.4536 427.613 59.1936 427.613 61.7336C427.613 64.3936 429.693 65.2136 432.593 65.8736C434.693 66.3536 435.493 66.6536 435.493 67.6336C435.493 68.4936 434.733 69.1736 433.233 69.1736C431.493 69.1736 430.013 68.4936 428.713 67.3736L427.033 69.3936C428.633 70.8736 430.733 71.6736 433.133 71.6736ZM451.679 60.3536V57.6936H441.099V71.4336H451.679V68.7736H444.059V65.7536H450.979V63.0936H444.059V60.3536H451.679ZM466.486 71.6736C468.566 71.6736 470.466 70.7736 471.806 69.3736L469.666 67.4536C468.886 68.3736 467.746 68.9936 466.486 68.9936C464.166 68.9936 462.206 66.9536 462.206 64.5536C462.206 62.1736 464.166 60.1336 466.486 60.1336C467.726 60.1336 468.886 60.7536 469.666 61.6736L471.806 59.7536C470.466 58.3336 468.566 57.4536 466.486 57.4536C462.526 57.4536 459.166 60.6936 459.166 64.5536C459.166 68.4136 462.526 71.6736 466.486 71.6736ZM477.145 68.7736V57.6936H474.185V71.4336H483.985V68.7736H477.145ZM492.873 71.6736C496.833 71.6736 500.153 68.4136 500.153 64.5536C500.153 60.6936 496.833 57.4536 492.873 57.4536C488.913 57.4536 485.553 60.6936 485.553 64.5536C485.553 68.4136 488.913 71.6736 492.873 71.6736ZM492.873 68.9936C490.553 68.9936 488.593 66.9536 488.593 64.5536C488.593 62.1736 490.553 60.1336 492.873 60.1336C495.173 60.1336 497.133 62.1736 497.133 64.5536C497.133 66.9536 495.173 68.9936 492.873 68.9936ZM508.758 71.6736C512.398 71.6736 514.978 69.1136 514.978 65.4936V57.6936H512.018V65.3736C512.018 67.4936 510.658 68.9936 508.758 68.9936C506.838 68.9936 505.478 67.4936 505.478 65.3736V57.6936H502.538V65.4936C502.538 69.1136 505.098 71.6736 508.758 71.6736ZM518.15 71.4336H523.09C527.71 71.4336 530.99 68.5736 530.99 64.5536C530.99 60.5336 527.71 57.6936 523.09 57.6936H518.15V71.4336ZM521.11 68.7536V60.3736H523.47C526.09 60.3736 527.95 62.1136 527.95 64.5536C527.95 67.0136 526.09 68.7536 523.47 68.7536H521.11ZM539.088 71.4336H542.048V62.5536L548.668 71.4336H551.628V57.6936H548.668V66.5736L542.048 57.6936H539.088V71.4336ZM565.043 71.4336H568.363L562.763 57.6936H559.463L553.863 71.4336H557.163L558.123 69.0736H564.083L565.043 71.4336ZM559.063 66.7736L561.103 61.7536L563.143 66.7736H559.063ZM573.791 71.4336H576.731V60.3536H581.031V57.6936H569.511V60.3536H573.791V71.4336ZM583.385 71.4336H586.345V57.6936H583.385V71.4336ZM599.79 57.6936L595.87 67.3736L591.93 57.6936H588.61L594.21 71.4336H597.51L603.11 57.6936H599.79ZM615.957 60.3536V57.6936H605.377V71.4336H615.957V68.7736H608.337V65.7536H615.257V63.0936H608.337V60.3536H615.957ZM627.443 71.4336H630.383V60.3536H634.683V57.6936H623.163V60.3536H627.443V71.4336ZM647.617 60.3536V57.6936H637.037V71.4336H647.617V68.7736H639.997V65.7536H646.917V63.0936H639.997V60.3536H647.617ZM656.974 71.6736C659.054 71.6736 660.954 70.7736 662.294 69.3736L660.154 67.4536C659.374 68.3736 658.234 68.9936 656.974 68.9936C654.654 68.9936 652.694 66.9536 652.694 64.5536C652.694 62.1736 654.654 60.1336 656.974 60.1336C658.214 60.1336 659.374 60.7536 660.154 61.6736L662.294 59.7536C660.954 58.3336 659.054 57.4536 656.974 57.4536C653.014 57.4536 649.654 60.6936 649.654 64.5536C649.654 68.4136 653.014 71.6736 656.974 71.6736ZM673.894 57.6936V63.0936H667.634V57.6936H664.674V71.4336H667.634V65.7536H673.894V71.4336H676.834V57.6936H673.894ZM680.338 71.4336H683.298V62.5536L689.918 71.4336H692.878V57.6936H689.918V66.5736L683.298 57.6936H680.338V71.4336ZM696.353 71.4336H699.313V57.6936H696.353V71.4336ZM716.579 64.5536C716.579 60.6936 713.259 57.4536 709.299 57.4536C705.339 57.4536 701.979 60.6936 701.979 64.5536C701.979 68.4136 705.339 71.6736 709.299 71.6736C710.899 71.6736 712.399 71.1336 713.599 70.2536L714.959 71.4336L716.459 69.6936L715.239 68.6336C716.079 67.4736 716.579 66.0536 716.579 64.5536ZM709.299 68.9936C706.979 68.9936 705.019 66.9536 705.019 64.5536C705.019 62.1736 706.979 60.1336 709.299 60.1336C711.599 60.1336 713.559 62.1736 713.559 64.5536C713.559 65.3136 713.359 66.0536 712.999 66.6936L711.279 65.1936L709.779 66.9336L711.439 68.3736C710.799 68.7736 710.059 68.9936 709.299 68.9936ZM725.32 71.6736C728.96 71.6736 731.54 69.1136 731.54 65.4936V57.6936H728.58V65.3736C728.58 67.4936 727.22 68.9936 725.32 68.9936C723.4 68.9936 722.04 67.4936 722.04 65.3736V57.6936H719.1V65.4936C719.1 69.1136 721.66 71.6736 725.32 71.6736ZM745.293 60.3536V57.6936H734.713V71.4336H745.293V68.7736H737.673V65.7536H744.593V63.0936H737.673V60.3536H745.293ZM753.23 71.6736C756.57 71.6736 758.57 69.9336 758.57 67.3136C758.57 64.7736 756.61 63.8936 753.65 63.2336C751.53 62.7536 750.69 62.4336 750.69 61.4336C750.69 60.6136 751.47 59.9536 752.71 59.9536C754.03 59.9536 755.41 60.4936 756.65 61.4936L758.19 59.3536C756.77 58.1536 755.05 57.4536 752.81 57.4536C749.79 57.4536 747.71 59.1936 747.71 61.7336C747.71 64.3936 749.79 65.2136 752.69 65.8736C754.79 66.3536 755.59 66.6536 755.59 67.6336C755.59 68.4936 754.83 69.1736 753.33 69.1736C751.59 69.1736 750.11 68.4936 748.81 67.3736L747.13 69.3936C748.73 70.8736 750.83 71.6736 753.23 71.6736Z" fill="#0F0B47"/>
<rect x="3" y="693.435" width="68" height="206" transform="rotate(-90 3 693.435)" fill="#1B0085"/>
<rect x="3.00293" y="625.596" width="107.202" height="206" transform="rotate(-90 3.00293 625.596)" fill="#542AED"/>
<rect x="209.003" y="386.064" width="137.353" height="206" transform="rotate(90 209.003 386.064)" fill="#8B62FF"/>
<rect x="209" y="240.337" width="147.202" height="206" transform="rotate(90 209 240.337)" fill="#A585FF"/>
<rect x="209" y="189.248" width="50.9546" height="206" transform="rotate(90 209 189.248)" fill="#D5C9FF"/>
<rect x="209" y="127.271" width="62.2779" height="206" transform="rotate(90 209 127.271)" fill="#EBEBEB"/>
<path d="M237.983 653.807H240.923V640.067H238.563L234.443 642.827L235.643 644.907L237.983 643.447V653.807ZM243.417 653.807H253.797V651.147H247.977L250.477 649.207C252.877 647.467 253.677 646.047 253.677 644.207C253.677 641.627 251.557 639.827 248.637 639.827C246.417 639.827 244.677 640.787 243.317 642.507L245.197 644.327C246.197 643.187 247.217 642.507 248.557 642.507C249.677 642.507 250.637 643.187 250.637 644.327C250.637 645.287 250.117 646.187 248.477 647.487L243.417 651.407V653.807ZM259.343 646.967C261.363 646.967 262.783 645.427 262.783 643.447C262.783 641.507 261.423 639.927 259.343 639.927C257.283 639.927 255.923 641.487 255.923 643.467C255.923 645.427 257.283 646.967 259.343 646.967ZM257.723 653.807H260.023L269.583 640.067H267.263L257.723 653.807ZM259.343 645.247C258.523 645.247 257.883 644.527 257.883 643.447C257.883 642.367 258.483 641.667 259.343 641.667C260.183 641.667 260.803 642.387 260.803 643.447C260.803 644.547 260.183 645.247 259.343 645.247ZM267.923 654.027C269.943 654.027 271.343 652.487 271.343 650.507C271.343 648.567 270.003 646.987 267.923 646.987C265.883 646.987 264.483 648.547 264.483 650.507C264.483 652.467 265.883 654.027 267.923 654.027ZM267.923 652.287C267.083 652.287 266.463 651.567 266.463 650.507C266.463 649.407 267.063 648.707 267.923 648.707C268.743 648.707 269.383 649.427 269.383 650.507C269.383 651.587 268.783 652.287 267.923 652.287Z" fill="#0F0B47"/>
<path d="M277 625.434H3" stroke="#0F0B47" stroke-linecap="square" stroke-dasharray="10 10"/>
<path d="M237.983 551.631H240.923V537.891H238.563L234.443 540.651L235.643 542.731L237.983 541.271V551.631ZM249.037 551.871C252.057 551.871 254.557 550.451 254.557 547.951C254.557 546.371 253.477 545.171 251.857 544.531C253.237 543.931 254.217 542.931 254.217 541.391C254.217 539.031 251.777 537.651 249.037 537.651C246.357 537.651 243.877 538.971 243.877 541.391C243.877 542.951 244.857 543.951 246.217 544.531C244.637 545.131 243.517 546.331 243.517 547.951C243.517 550.431 245.997 551.871 249.037 551.871ZM249.037 543.511C247.957 543.431 246.817 542.831 246.817 541.771C246.817 540.831 247.717 540.131 249.037 540.131C250.357 540.131 251.277 540.831 251.277 541.771C251.277 542.791 250.117 543.431 249.037 543.511ZM249.037 549.391C247.577 549.391 246.517 548.671 246.517 547.631C246.517 546.551 247.857 545.871 249.037 545.831C250.217 545.871 251.577 546.551 251.577 547.631C251.577 548.671 250.497 549.391 249.037 549.391ZM260.007 544.791C262.027 544.791 263.447 543.251 263.447 541.271C263.447 539.331 262.087 537.751 260.007 537.751C257.947 537.751 256.587 539.311 256.587 541.291C256.587 543.251 257.947 544.791 260.007 544.791ZM258.387 551.631H260.687L270.247 537.891H267.927L258.387 551.631ZM260.007 543.071C259.187 543.071 258.547 542.351 258.547 541.271C258.547 540.191 259.147 539.491 260.007 539.491C260.847 539.491 261.467 540.211 261.467 541.271C261.467 542.371 260.847 543.071 260.007 543.071ZM268.587 551.851C270.607 551.851 272.007 550.311 272.007 548.331C272.007 546.391 270.667 544.811 268.587 544.811C266.547 544.811 265.147 546.371 265.147 548.331C265.147 550.291 266.547 551.851 268.587 551.851ZM268.587 550.111C267.747 550.111 267.127 549.391 267.127 548.331C267.127 547.231 267.727 546.531 268.587 546.531C269.407 546.531 270.047 547.251 270.047 548.331C270.047 549.411 269.447 550.111 268.587 550.111Z" fill="#0F0B47"/>
<path d="M277 523.434H3" stroke="#0F0B47" stroke-linecap="square" stroke-dasharray="10 10"/>
<path d="M234.823 415.115H245.203V412.455H239.383L241.883 410.515C244.283 408.775 245.083 407.355 245.083 405.515C245.083 402.935 242.963 401.135 240.043 401.135C237.823 401.135 236.083 402.095 234.723 403.815L236.603 405.635C237.603 404.495 238.623 403.815 239.963 403.815C241.083 403.815 242.043 404.495 242.043 405.635C242.043 406.595 241.523 407.495 239.883 408.795L234.823 412.715V415.115ZM253.809 415.115H256.749V412.315H258.569V409.835H256.749V401.395H253.189L246.809 410.035L247.089 412.315H253.809V415.115ZM249.909 409.835L253.809 404.515V409.835H249.909ZM263.738 408.275C265.758 408.275 267.178 406.735 267.178 404.755C267.178 402.815 265.818 401.235 263.738 401.235C261.678 401.235 260.318 402.795 260.318 404.775C260.318 406.735 261.678 408.275 263.738 408.275ZM262.118 415.115H264.418L273.978 401.375H271.658L262.118 415.115ZM263.738 406.555C262.918 406.555 262.278 405.835 262.278 404.755C262.278 403.675 262.878 402.975 263.738 402.975C264.578 402.975 265.198 403.695 265.198 404.755C265.198 405.855 264.578 406.555 263.738 406.555ZM272.318 415.335C274.338 415.335 275.738 413.795 275.738 411.815C275.738 409.875 274.398 408.295 272.318 408.295C270.278 408.295 268.878 409.855 268.878 411.815C268.878 413.775 270.278 415.335 272.318 415.335ZM272.318 413.595C271.478 413.595 270.858 412.875 270.858 411.815C270.858 410.715 271.458 410.015 272.318 410.015C273.138 410.015 273.778 410.735 273.778 411.815C273.778 412.895 273.178 413.595 272.318 413.595Z" fill="#0F0B47"/>
<path d="M277 387.434H3" stroke="#0F0B47" stroke-linecap="square" stroke-dasharray="10 10"/>
<path d="M234.823 267.711H245.203V265.051H239.383L241.883 263.111C244.283 261.371 245.083 259.951 245.083 258.111C245.083 255.531 242.963 253.731 240.043 253.731C237.823 253.731 236.083 254.691 234.723 256.411L236.603 258.231C237.603 257.091 238.623 256.411 239.963 256.411C241.083 256.411 242.043 257.091 242.043 258.231C242.043 259.191 241.523 260.091 239.883 261.391L234.823 265.311V267.711ZM253.689 258.831C252.389 258.831 251.129 259.331 250.289 260.151C250.549 257.831 251.749 256.331 253.549 256.331C254.709 256.331 255.509 256.751 256.349 257.451L257.749 255.211C256.629 254.311 255.249 253.731 253.549 253.731C249.729 253.731 247.229 256.791 247.229 261.071C247.229 265.071 249.069 267.951 253.069 267.951C256.069 267.951 258.329 266.011 258.329 263.191C258.329 260.471 256.229 258.831 253.689 258.831ZM252.909 265.451C251.369 265.451 250.629 264.511 250.369 262.831C250.789 261.851 251.709 261.231 252.829 261.231C254.169 261.231 255.289 262.011 255.289 263.331C255.289 264.431 254.369 265.451 252.909 265.451ZM263.679 260.871C265.699 260.871 267.119 259.331 267.119 257.351C267.119 255.411 265.759 253.831 263.679 253.831C261.619 253.831 260.259 255.391 260.259 257.371C260.259 259.331 261.619 260.871 263.679 260.871ZM262.059 267.711H264.359L273.919 253.971H271.599L262.059 267.711ZM263.679 259.151C262.859 259.151 262.219 258.431 262.219 257.351C262.219 256.271 262.819 255.571 263.679 255.571C264.519 255.571 265.139 256.291 265.139 257.351C265.139 258.451 264.519 259.151 263.679 259.151ZM272.259 267.931C274.279 267.931 275.679 266.391 275.679 264.411C275.679 262.471 274.339 260.891 272.259 260.891C270.219 260.891 268.819 262.451 268.819 264.411C268.819 266.371 270.219 267.931 272.259 267.931ZM272.259 266.191C271.419 266.191 270.799 265.471 270.799 264.411C270.799 263.311 271.399 262.611 272.259 262.611C273.079 262.611 273.719 263.331 273.719 264.411C273.719 265.491 273.119 266.191 272.259 266.191Z" fill="#0F0B47"/>
<path d="M277 240.434L3 240.434" stroke="#0F0B47" stroke-linecap="square" stroke-dasharray="10 10"/>
<path d="M240.083 202.643C237.083 202.643 234.823 204.583 234.823 207.403C234.823 210.123 236.923 211.763 239.463 211.763C240.763 211.763 242.023 211.263 242.863 210.443C242.603 212.763 241.403 214.263 239.603 214.263C238.443 214.263 237.643 213.843 236.803 213.143L235.403 215.383C236.523 216.283 237.903 216.863 239.603 216.863C243.423 216.863 245.923 213.803 245.923 209.523C245.923 205.523 244.083 202.643 240.083 202.643ZM240.323 209.363C238.983 209.363 237.863 208.583 237.863 207.263C237.863 206.163 238.783 205.143 240.243 205.143C241.783 205.143 242.523 206.083 242.783 207.763C242.363 208.743 241.443 209.363 240.323 209.363ZM251.453 209.783C253.473 209.783 254.893 208.243 254.893 206.263C254.893 204.323 253.533 202.743 251.453 202.743C249.393 202.743 248.033 204.303 248.033 206.283C248.033 208.243 249.393 209.783 251.453 209.783ZM249.833 216.623H252.133L261.693 202.883H259.373L249.833 216.623ZM251.453 208.063C250.633 208.063 249.993 207.343 249.993 206.263C249.993 205.183 250.593 204.483 251.453 204.483C252.293 204.483 252.913 205.203 252.913 206.263C252.913 207.363 252.293 208.063 251.453 208.063ZM260.033 216.843C262.053 216.843 263.453 215.303 263.453 213.323C263.453 211.383 262.113 209.803 260.033 209.803C257.993 209.803 256.593 211.363 256.593 213.323C256.593 215.283 257.993 216.843 260.033 216.843ZM260.033 215.103C259.193 215.103 258.573 214.383 258.573 213.323C258.573 212.223 259.173 211.523 260.033 211.523C260.853 211.523 261.493 212.243 261.493 213.323C261.493 214.403 260.893 215.103 260.033 215.103Z" fill="#0F0B47"/>
<path d="M277 189.434L3 189.434" stroke="#0F0B47" stroke-linecap="square" stroke-dasharray="10 10"/>
<path d="M237.983 153.809H240.923V140.069H238.563L234.443 142.829L235.643 144.909L237.983 143.449V153.809ZM246.577 153.809H249.517V140.069H247.157L243.037 142.829L244.237 144.909L246.577 143.449V153.809ZM255.71 146.969C257.73 146.969 259.15 145.429 259.15 143.449C259.15 141.509 257.79 139.929 255.71 139.929C253.65 139.929 252.29 141.489 252.29 143.469C252.29 145.429 253.65 146.969 255.71 146.969ZM254.09 153.809H256.39L265.95 140.069H263.63L254.09 153.809ZM255.71 145.249C254.89 145.249 254.25 144.529 254.25 143.449C254.25 142.369 254.85 141.669 255.71 141.669C256.55 141.669 257.17 142.389 257.17 143.449C257.17 144.549 256.55 145.249 255.71 145.249ZM264.29 154.029C266.31 154.029 267.71 152.489 267.71 150.509C267.71 148.569 266.37 146.989 264.29 146.989C262.25 146.989 260.85 148.549 260.85 150.509C260.85 152.469 262.25 154.029 264.29 154.029ZM264.29 152.289C263.45 152.289 262.83 151.569 262.83 150.509C262.83 149.409 263.43 148.709 264.29 148.709C265.11 148.709 265.75 149.429 265.75 150.509C265.75 151.589 265.15 152.289 264.29 152.289Z" fill="#0F0B47"/>
<path d="M13.68 71.4336H17L11.4 57.6936H8.1L2.5 71.4336H5.8L6.76 69.0736H12.72L13.68 71.4336ZM7.7 66.7736L9.74 61.7536L11.78 66.7736H7.7ZM22.2078 68.7736V57.6936H19.2478V71.4336H29.0478V68.7736H22.2078ZM34.3953 68.7736V57.6936H31.4353V71.4336H41.2353V68.7736H34.3953ZM60.432 62.3336C60.432 59.6136 58.252 57.6936 55.252 57.6936H49.072V71.4336H52.032V66.9736H53.812L56.952 71.4336H60.312L57.012 66.7336C59.072 66.1336 60.432 64.4936 60.432 62.3336ZM52.032 60.3936H54.952C56.412 60.3936 57.412 61.1536 57.412 62.3336C57.412 63.5136 56.412 64.2736 54.952 64.2736H52.032V60.3936ZM73.7341 60.3536V57.6936H63.1541V71.4336H73.7341V68.7736H66.1141V65.7536H73.0341V63.0936H66.1141V60.3536H73.7341ZM81.6716 71.6736C85.0116 71.6736 87.0116 69.9336 87.0116 67.3136C87.0116 64.7736 85.0516 63.8936 82.0916 63.2336C79.9716 62.7536 79.1316 62.4336 79.1316 61.4336C79.1316 60.6136 79.9116 59.9536 81.1516 59.9536C82.4716 59.9536 83.8516 60.4936 85.0916 61.4936L86.6316 59.3536C85.2116 58.1536 83.4916 57.4536 81.2516 57.4536C78.2316 57.4536 76.1516 59.1936 76.1516 61.7336C76.1516 64.3936 78.2316 65.2136 81.1316 65.8736C83.2316 66.3536 84.0316 66.6536 84.0316 67.6336C84.0316 68.4936 83.2716 69.1736 81.7716 69.1736C80.0316 69.1736 78.5516 68.4936 77.2516 67.3736L75.5716 69.3936C77.1716 70.8736 79.2716 71.6736 81.6716 71.6736ZM89.6384 71.4336H92.5984V66.9736H95.8184C98.8184 66.9736 100.998 65.0536 100.998 62.3336C100.998 59.6136 98.8184 57.6936 95.8184 57.6936H89.6384V71.4336ZM92.5984 64.2736V60.3936H95.5184C96.9784 60.3936 97.9784 61.1536 97.9784 62.3336C97.9784 63.5136 96.9784 64.2736 95.5184 64.2736H92.5984ZM110.045 71.6736C114.005 71.6736 117.325 68.4136 117.325 64.5536C117.325 60.6936 114.005 57.4536 110.045 57.4536C106.085 57.4536 102.725 60.6936 102.725 64.5536C102.725 68.4136 106.085 71.6736 110.045 71.6736ZM110.045 68.9936C107.725 68.9936 105.765 66.9536 105.765 64.5536C105.765 62.1736 107.725 60.1336 110.045 60.1336C112.345 60.1336 114.305 62.1736 114.305 64.5536C114.305 66.9536 112.345 68.9936 110.045 68.9936ZM120.01 71.4336H122.97V62.5536L129.59 71.4336H132.55V57.6936H129.59V66.5736L122.97 57.6936H120.01V71.4336ZM136.025 71.4336H140.965C145.585 71.4336 148.865 68.5736 148.865 64.5536C148.865 60.5336 145.585 57.6936 140.965 57.6936H136.025V71.4336ZM138.985 68.7536V60.3736H141.345C143.965 60.3736 145.825 62.1136 145.825 64.5536C145.825 67.0136 143.965 68.7536 141.345 68.7536H138.985ZM162.093 60.3536V57.6936H151.513V71.4336H162.093V68.7736H154.473V65.7536H161.393V63.0936H154.473V60.3536H162.093ZM164.951 71.4336H167.911V62.5536L174.531 71.4336H177.491V57.6936H174.531V66.5736L167.911 57.6936H164.951V71.4336ZM184.147 71.4336H187.087V60.3536H191.387V57.6936H179.867V60.3536H184.147V71.4336ZM198.82 71.6736C202.16 71.6736 204.16 69.9336 204.16 67.3136C204.16 64.7736 202.2 63.8936 199.24 63.2336C197.12 62.7536 196.28 62.4336 196.28 61.4336C196.28 60.6136 197.06 59.9536 198.3 59.9536C199.62 59.9536 201 60.4936 202.24 61.4936L203.78 59.3536C202.36 58.1536 200.64 57.4536 198.4 57.4536C195.38 57.4536 193.3 59.1936 193.3 61.7336C193.3 64.3936 195.38 65.2136 198.28 65.8736C200.38 66.3536 201.18 66.6536 201.18 67.6336C201.18 68.4936 200.42 69.1736 198.92 69.1736C197.18 69.1736 195.7 68.4936 194.4 67.3736L192.72 69.3936C194.32 70.8736 196.42 71.6736 198.82 71.6736Z" fill="#0F0B47"/>
<path d="M959.218 142.434H962.676C965.91 142.434 968.206 140.432 968.206 137.618C968.206 134.804 965.91 132.816 962.676 132.816H959.218V142.434ZM961.29 140.558V134.692H962.942C964.776 134.692 966.078 135.91 966.078 137.618C966.078 139.34 964.776 140.558 962.942 140.558H961.29ZM973.266 142.602C975.436 142.602 977.214 140.894 977.214 138.808C977.214 136.722 975.436 135.028 973.266 135.028C971.096 135.028 969.318 136.722 969.318 138.808C969.318 140.894 971.096 142.602 973.266 142.602ZM973.266 140.88C972.174 140.88 971.278 139.942 971.278 138.808C971.278 137.674 972.174 136.75 973.266 136.75C974.358 136.75 975.24 137.674 975.24 138.808C975.24 139.942 974.358 140.88 973.266 140.88ZM982.882 135.028C981.944 135.028 981.146 135.434 980.698 136.078V135.196H978.654V142.434H980.698V138.15C980.698 137.366 981.356 136.75 982.21 136.75C983.022 136.75 983.596 137.366 983.596 138.262V142.434H985.556V137.828C985.556 136.176 984.45 135.028 982.882 135.028ZM988.3 137.156C989.294 136.176 989.77 135.308 989.77 134.468C989.77 133.46 989.238 132.732 988.44 132.732C987.754 132.732 987.18 133.32 987.18 134.006C987.18 134.706 987.74 135.28 988.412 135.28C988.286 135.728 987.992 136.19 987.558 136.596L988.3 137.156ZM995.256 140.642C995.116 140.782 994.836 140.88 994.556 140.88C994.178 140.88 993.884 140.544 993.884 140.068V136.848H995.452V135.196H993.884V133.208H991.91V135.196H990.916V136.848H991.91V140.39C991.91 141.692 992.806 142.602 994.094 142.602C994.668 142.602 995.326 142.35 995.746 141.972L995.256 140.642ZM1001.12 142.434H1003.19V139.746L1004.4 138.458L1007.34 142.434H1009.86L1005.83 136.988L1009.58 132.816H1007.09L1003.19 137.226V132.816H1001.12V142.434ZM1015.41 135.028C1014.47 135.028 1013.67 135.434 1013.22 136.078V135.196H1011.18V142.434H1013.22V138.15C1013.22 137.366 1013.88 136.75 1014.74 136.75C1015.55 136.75 1016.12 137.366 1016.12 138.262V142.434H1018.08V137.828C1018.08 136.176 1016.98 135.028 1015.41 135.028ZM1023.35 142.602C1025.52 142.602 1027.29 140.894 1027.29 138.808C1027.29 136.722 1025.52 135.028 1023.35 135.028C1021.18 135.028 1019.4 136.722 1019.4 138.808C1019.4 140.894 1021.18 142.602 1023.35 142.602ZM1023.35 140.88C1022.25 140.88 1021.36 139.942 1021.36 138.808C1021.36 137.674 1022.25 136.75 1023.35 136.75C1024.44 136.75 1025.32 137.674 1025.32 138.808C1025.32 139.942 1024.44 140.88 1023.35 140.88ZM1030.43 142.434H1032.26L1033.62 137.884L1034.98 142.434H1036.81L1039.26 135.196H1037.26L1035.9 139.704L1034.46 135.196H1032.77L1031.34 139.704L1029.97 135.196H1027.96L1030.43 142.434ZM1043.33 143.47H1044.52L1049.43 132.032H1048.24L1043.33 143.47ZM1054.81 142.434H1055.9V134.608L1061.86 142.434H1062.95V132.816H1061.86V140.642L1055.9 132.816H1054.81V142.434ZM1068.8 142.602C1070.85 142.602 1072.53 140.894 1072.53 138.808C1072.53 136.722 1070.85 135.028 1068.8 135.028C1066.74 135.028 1065.06 136.722 1065.06 138.808C1065.06 140.894 1066.74 142.602 1068.8 142.602ZM1068.8 141.664C1067.35 141.664 1066.16 140.376 1066.16 138.808C1066.16 137.24 1067.35 135.966 1068.8 135.966C1070.24 135.966 1071.43 137.24 1071.43 138.808C1071.43 140.376 1070.24 141.664 1068.8 141.664ZM1077.14 141.37C1076.98 141.538 1076.7 141.664 1076.38 141.664C1075.96 141.664 1075.6 141.286 1075.6 140.754V136.134H1077.37V135.196H1075.6V133.208H1074.55V135.196H1073.41V136.134H1074.55V140.754C1074.55 141.832 1075.27 142.602 1076.31 142.602C1076.8 142.602 1077.28 142.434 1077.65 142.14L1077.14 141.37ZM1086.24 142.588C1088.48 142.588 1089.62 141.342 1089.62 139.816C1089.62 138.122 1088.31 137.464 1086.47 137.03C1084.84 136.638 1083.88 136.288 1083.88 135.294C1083.88 134.412 1084.75 133.642 1085.94 133.642C1086.95 133.642 1087.9 134.104 1088.7 134.874L1089.37 134.02C1088.49 133.208 1087.43 132.648 1086 132.648C1084.15 132.648 1082.78 133.838 1082.78 135.378C1082.78 137.044 1084 137.646 1085.93 138.094C1087.61 138.486 1088.52 138.892 1088.52 139.914C1088.52 140.782 1087.76 141.594 1086.28 141.594C1084.93 141.594 1083.94 141.02 1083.13 140.208L1082.44 141.062C1083.41 142.014 1084.65 142.588 1086.24 142.588ZM1096.52 135.196V139.802C1096.52 140.824 1095.51 141.664 1094.28 141.664C1093.21 141.664 1092.47 140.852 1092.47 139.662V135.196H1091.42V139.802C1091.42 141.468 1092.53 142.602 1094.14 142.602C1095.17 142.602 1096.1 142.056 1096.52 141.286V142.434H1097.57V135.196H1096.52ZM1101.05 136.61V135.196H1100V142.434H1101.05V138.388C1101.05 136.974 1102.21 135.966 1103.85 135.966V135.028C1102.52 135.028 1101.48 135.644 1101.05 136.61ZM1108.6 141.664C1107.17 141.664 1106.18 140.628 1106.02 139.214H1111.95C1111.95 136.68 1110.7 135.028 1108.52 135.028C1106.57 135.028 1104.95 136.638 1104.95 138.794C1104.95 141.02 1106.68 142.602 1108.61 142.602C1109.62 142.602 1110.9 142.168 1111.53 141.482L1110.88 140.796C1110.43 141.286 1109.45 141.664 1108.6 141.664ZM1108.56 135.966C1110 135.966 1110.77 136.974 1110.91 138.276H1106.04C1106.23 136.876 1107.27 135.966 1108.56 135.966Z" fill="#0F0B47"/>
<rect x="924" y="127.434" width="20" height="20" rx="10" fill="#EBEBEB"/>
<rect x="924" y="177.434" width="20" height="20" rx="10" fill="#D5C9FF"/>
<path d="M959.218 192.434H961.29V186.218L965.924 192.434H967.996V182.816H965.924V189.032L961.29 182.816H959.218V192.434ZM973.635 192.602C975.805 192.602 977.583 190.894 977.583 188.808C977.583 186.722 975.805 185.028 973.635 185.028C971.465 185.028 969.687 186.722 969.687 188.808C969.687 190.894 971.465 192.602 973.635 192.602ZM973.635 190.88C972.543 190.88 971.647 189.942 971.647 188.808C971.647 187.674 972.543 186.75 973.635 186.75C974.727 186.75 975.609 187.674 975.609 188.808C975.609 189.942 974.727 190.88 973.635 190.88ZM982.705 190.642C982.565 190.782 982.285 190.88 982.005 190.88C981.627 190.88 981.333 190.544 981.333 190.068V186.848H982.901V185.196H981.333V183.208H979.359V185.196H978.365V186.848H979.359V190.39C979.359 191.692 980.255 192.602 981.543 192.602C982.117 192.602 982.775 192.35 983.195 191.972L982.705 190.642ZM990.98 192.602C992.758 192.602 993.934 191.692 993.934 190.264C993.934 188.682 992.534 188.262 991.288 187.94C990.308 187.674 989.902 187.562 989.902 187.17C989.902 186.764 990.322 186.498 990.882 186.498C991.54 186.498 992.324 186.82 992.982 187.24L993.724 185.924C992.926 185.392 991.904 185.028 990.882 185.028C989.16 185.028 988.054 186.008 988.054 187.38C988.054 188.808 989.202 189.214 990.686 189.578C991.484 189.774 992.072 189.97 992.072 190.432C992.072 190.852 991.708 191.104 991.022 191.104C990.238 191.104 989.286 190.754 988.544 190.222L987.718 191.51C988.586 192.21 989.818 192.602 990.98 192.602ZM999.057 190.642C998.917 190.782 998.637 190.88 998.357 190.88C997.979 190.88 997.685 190.544 997.685 190.068V186.848H999.253V185.196H997.685V183.208H995.711V185.196H994.717V186.848H995.711V190.39C995.711 191.692 996.607 192.602 997.895 192.602C998.469 192.602 999.127 192.35 999.547 191.972L999.057 190.642ZM1003.92 185.028C1002.91 185.028 1001.92 185.308 1000.9 185.826L1001.58 187.184C1002.16 186.89 1002.79 186.666 1003.46 186.666C1004.65 186.666 1005.14 187.338 1005.14 188.108V188.262C1004.52 188.01 1003.87 187.884 1003.28 187.884C1001.61 187.884 1000.28 188.864 1000.28 190.292C1000.28 191.678 1001.46 192.602 1003 192.602C1003.8 192.602 1004.62 192.28 1005.14 191.706V192.434H1007.11V188.108C1007.11 186.218 1005.81 185.028 1003.92 185.028ZM1003.46 191.188C1002.76 191.188 1002.23 190.824 1002.23 190.236C1002.23 189.648 1002.83 189.214 1003.57 189.214C1004.13 189.214 1004.68 189.312 1005.14 189.494V190.152C1004.99 190.824 1004.24 191.188 1003.46 191.188ZM1010.95 186.554V185.196H1008.91V192.434H1010.95V188.976C1010.95 187.618 1011.92 186.75 1013.43 186.75V185.028C1012.33 185.028 1011.43 185.616 1010.95 186.554ZM1018.61 190.642C1018.47 190.782 1018.19 190.88 1017.91 190.88C1017.53 190.88 1017.24 190.544 1017.24 190.068V186.848H1018.8V185.196H1017.24V183.208H1015.26V185.196H1014.27V186.848H1015.26V190.39C1015.26 191.692 1016.16 192.602 1017.45 192.602C1018.02 192.602 1018.68 192.35 1019.1 191.972L1018.61 190.642ZM1023.74 191.02C1022.75 191.02 1022.07 190.334 1021.89 189.354H1027.34C1027.34 186.666 1025.97 185.028 1023.7 185.028C1021.58 185.028 1019.95 186.61 1019.95 188.794C1019.95 191.02 1021.65 192.602 1023.81 192.602C1024.87 192.602 1026.12 192.154 1026.76 191.482L1025.62 190.306C1025.15 190.726 1024.41 191.02 1023.74 191.02ZM1023.73 186.61C1024.64 186.61 1025.21 187.24 1025.38 188.136H1021.91C1022.13 187.212 1022.82 186.61 1023.73 186.61ZM1034.04 182.648V186.232C1033.47 185.476 1032.61 185.028 1031.59 185.028C1029.67 185.028 1028.27 186.596 1028.27 188.808C1028.27 191.034 1029.67 192.602 1031.59 192.602C1032.61 192.602 1033.47 192.154 1034.04 191.398V192.434H1036.08V182.648H1034.04ZM1032.19 190.88C1031.06 190.88 1030.26 190.026 1030.26 188.808C1030.26 187.604 1031.06 186.75 1032.19 186.75C1033.27 186.75 1034.04 187.604 1034.04 188.808C1034.04 190.026 1033.27 190.88 1032.19 190.88ZM1047.07 185.196V189.802C1047.07 190.824 1046.06 191.664 1044.83 191.664C1043.76 191.664 1043.02 190.852 1043.02 189.662V185.196H1041.97V189.802C1041.97 191.468 1043.08 192.602 1044.69 192.602C1045.72 192.602 1046.65 192.056 1047.07 191.286V192.434H1048.12V185.196H1047.07ZM1052.79 192.602C1054.28 192.602 1055.43 191.748 1055.43 190.418C1055.43 189.046 1054.23 188.654 1053.07 188.29C1051.72 187.856 1051.19 187.66 1051.19 187.03C1051.19 186.33 1051.86 185.966 1052.67 185.966C1053.32 185.966 1054.03 186.19 1054.76 186.652L1055.26 185.84C1054.49 185.336 1053.57 185.028 1052.67 185.028C1051.23 185.028 1050.14 185.84 1050.14 187.156C1050.14 188.192 1050.81 188.71 1052.56 189.214C1053.54 189.494 1054.38 189.746 1054.38 190.53C1054.38 191.216 1053.74 191.664 1052.79 191.664C1051.99 191.664 1051.16 191.356 1050.34 190.754L1049.79 191.524C1050.66 192.224 1051.78 192.602 1052.79 192.602ZM1057.76 183.88C1058.14 183.88 1058.45 183.558 1058.45 183.18C1058.45 182.816 1058.14 182.494 1057.76 182.494C1057.37 182.494 1057.06 182.816 1057.06 183.18C1057.06 183.558 1057.37 183.88 1057.76 183.88ZM1057.23 192.434H1058.28V185.196H1057.23V192.434ZM1064.15 185.028C1063.11 185.028 1062.19 185.574 1061.77 186.344V185.196H1060.72V192.434H1061.77V187.828C1061.77 186.806 1062.78 185.966 1064.01 185.966C1065.07 185.966 1065.81 186.778 1065.81 187.968V192.434H1066.86V187.828C1066.86 186.162 1065.76 185.028 1064.15 185.028ZM1074.46 185.196V186.442C1073.9 185.56 1072.98 185.028 1071.83 185.028C1069.88 185.028 1068.5 186.442 1068.5 188.458C1068.5 190.474 1069.88 191.902 1071.83 191.902C1072.98 191.902 1073.9 191.37 1074.46 190.488V191.664C1074.46 193.078 1073.48 193.904 1071.81 193.904C1070.92 193.904 1070.05 193.582 1069.49 193.05L1069.03 193.876C1069.69 194.436 1070.78 194.842 1071.95 194.842C1074.04 194.842 1075.51 193.526 1075.51 191.664V185.196H1074.46ZM1072.02 190.964C1070.61 190.964 1069.6 189.928 1069.6 188.458C1069.6 187.002 1070.61 185.966 1072.02 185.966C1073.45 185.966 1074.46 187.002 1074.46 188.458C1074.46 189.928 1073.45 190.964 1072.02 190.964ZM1082.43 194.954C1083.42 194.94 1084.12 194.478 1084.63 193.246L1087.93 185.196H1086.8L1084.4 191.216L1081.87 185.196H1080.71L1083.86 192.462L1083.44 193.358C1083.16 193.848 1082.85 194.002 1082.39 194.002C1082.08 194.002 1081.79 193.946 1081.53 193.82L1081.28 194.716C1081.62 194.87 1082.01 194.954 1082.43 194.954ZM1092.36 191.664C1090.93 191.664 1089.94 190.628 1089.78 189.214H1095.7C1095.7 186.68 1094.46 185.028 1092.27 185.028C1090.33 185.028 1088.7 186.638 1088.7 188.794C1088.7 191.02 1090.44 192.602 1092.37 192.602C1093.38 192.602 1094.65 192.168 1095.28 191.482L1094.64 190.796C1094.19 191.286 1093.21 191.664 1092.36 191.664ZM1092.32 185.966C1093.76 185.966 1094.53 186.974 1094.67 188.276H1089.8C1089.99 186.876 1091.03 185.966 1092.32 185.966ZM1100.27 191.37C1100.11 191.538 1099.83 191.664 1099.51 191.664C1099.09 191.664 1098.73 191.286 1098.73 190.754V186.134H1100.51V185.196H1098.73V183.208H1097.68V185.196H1096.54V186.134H1097.68V190.754C1097.68 191.832 1098.41 192.602 1099.44 192.602C1099.93 192.602 1100.41 192.434 1100.79 192.14L1100.27 191.37Z" fill="#0F0B47"/>
<path d="M961.57 242.602C963.502 242.602 964.874 241.23 964.874 239.298V232.816H962.802V239.13C962.802 240.068 962.2 240.726 961.346 240.726C960.702 240.726 960.016 240.292 959.708 239.662L958.336 241.006C958.994 241.944 960.324 242.602 961.57 242.602ZM971.655 235.196V239.48C971.655 240.264 970.997 240.88 970.143 240.88C969.331 240.88 968.757 240.264 968.757 239.368V235.196H966.797V239.802C966.797 241.454 967.903 242.602 969.485 242.602C970.409 242.602 971.207 242.196 971.655 241.552V242.434H973.699V235.196H971.655ZM978.306 242.602C980.084 242.602 981.26 241.692 981.26 240.264C981.26 238.682 979.86 238.262 978.614 237.94C977.634 237.674 977.228 237.562 977.228 237.17C977.228 236.764 977.648 236.498 978.208 236.498C978.866 236.498 979.65 236.82 980.308 237.24L981.05 235.924C980.252 235.392 979.23 235.028 978.208 235.028C976.486 235.028 975.38 236.008 975.38 237.38C975.38 238.808 976.528 239.214 978.012 239.578C978.81 239.774 979.398 239.97 979.398 240.432C979.398 240.852 979.034 241.104 978.348 241.104C977.564 241.104 976.612 240.754 975.87 240.222L975.044 241.51C975.912 242.21 977.144 242.602 978.306 242.602ZM986.383 240.642C986.243 240.782 985.963 240.88 985.683 240.88C985.305 240.88 985.011 240.544 985.011 240.068V236.848H986.579V235.196H985.011V233.208H983.037V235.196H982.043V236.848H983.037V240.39C983.037 241.692 983.933 242.602 985.221 242.602C985.795 242.602 986.453 242.35 986.873 241.972L986.383 240.642ZM996.589 235.028C995.511 235.028 994.629 235.518 994.055 236.344V232.648H992.011V242.434H994.055V241.286C994.629 242.112 995.511 242.602 996.589 242.602C998.521 242.602 999.907 241.034 999.907 238.808C999.907 236.596 998.521 235.028 996.589 235.028ZM996.001 240.88C994.909 240.88 994.153 240.026 994.153 238.808C994.153 237.604 994.909 236.75 996.001 236.75C997.121 236.75 997.919 237.604 997.919 238.808C997.919 240.026 997.121 240.88 996.001 240.88ZM1004.74 241.02C1003.74 241.02 1003.07 240.334 1002.89 239.354H1008.33C1008.33 236.666 1006.96 235.028 1004.69 235.028C1002.58 235.028 1000.94 236.61 1000.94 238.794C1000.94 241.02 1002.65 242.602 1004.81 242.602C1005.87 242.602 1007.12 242.154 1007.76 241.482L1006.61 240.306C1006.15 240.726 1005.41 241.02 1004.74 241.02ZM1004.72 236.61C1005.63 236.61 1006.21 237.24 1006.37 238.136H1002.9C1003.13 237.212 1003.81 236.61 1004.72 236.61ZM1014.83 235.196V236.176C1014.34 235.49 1013.4 235.028 1012.43 235.028C1010.6 235.028 1009.21 236.442 1009.21 238.458C1009.21 240.474 1010.6 241.902 1012.43 241.902C1013.4 241.902 1014.25 241.482 1014.83 240.768V241.58C1014.83 242.518 1013.99 243.12 1012.67 243.12C1011.83 243.12 1010.98 242.854 1010.5 242.434L1009.79 243.876C1010.51 244.436 1011.7 244.842 1012.98 244.842C1015.26 244.842 1016.87 243.526 1016.87 241.664V235.196H1014.83ZM1013.08 240.18C1012.05 240.18 1011.33 239.466 1011.33 238.458C1011.33 237.45 1012.05 236.75 1013.08 236.75C1014.1 236.75 1014.83 237.45 1014.83 238.458C1014.83 239.466 1014.1 240.18 1013.08 240.18ZM1019.87 234.202C1020.47 234.202 1020.96 233.698 1020.96 233.082C1020.96 232.508 1020.47 231.99 1019.87 231.99C1019.24 231.99 1018.75 232.508 1018.75 233.082C1018.75 233.698 1019.24 234.202 1019.87 234.202ZM1018.84 242.434H1020.88V235.196H1018.84V242.434ZM1027.07 235.028C1026.13 235.028 1025.33 235.434 1024.89 236.078V235.196H1022.84V242.434H1024.89V238.15C1024.89 237.366 1025.54 236.75 1026.4 236.75C1027.21 236.75 1027.78 237.366 1027.78 238.262V242.434H1029.74V237.828C1029.74 236.176 1028.64 235.028 1027.07 235.028ZM1035.79 235.028C1034.85 235.028 1034.06 235.434 1033.61 236.078V235.196H1031.56V242.434H1033.61V238.15C1033.61 237.366 1034.27 236.75 1035.12 236.75C1035.93 236.75 1036.51 237.366 1036.51 238.262V242.434H1038.47V237.828C1038.47 236.176 1037.36 235.028 1035.79 235.028ZM1041.32 234.202C1041.92 234.202 1042.41 233.698 1042.41 233.082C1042.41 232.508 1041.92 231.99 1041.32 231.99C1040.69 231.99 1040.2 232.508 1040.2 233.082C1040.2 233.698 1040.69 234.202 1041.32 234.202ZM1040.29 242.434H1042.33V235.196H1040.29V242.434ZM1048.52 235.028C1047.58 235.028 1046.78 235.434 1046.34 236.078V235.196H1044.29V242.434H1046.34V238.15C1046.34 237.366 1046.99 236.75 1047.85 236.75C1048.66 236.75 1049.23 237.366 1049.23 238.262V242.434H1051.19V237.828C1051.19 236.176 1050.09 235.028 1048.52 235.028ZM1058.13 235.196V236.176C1057.64 235.49 1056.7 235.028 1055.73 235.028C1053.9 235.028 1052.51 236.442 1052.51 238.458C1052.51 240.474 1053.9 241.902 1055.73 241.902C1056.7 241.902 1057.55 241.482 1058.13 240.768V241.58C1058.13 242.518 1057.29 243.12 1055.97 243.12C1055.13 243.12 1054.28 242.854 1053.8 242.434L1053.09 243.876C1053.81 244.436 1055 244.842 1056.28 244.842C1058.56 244.842 1060.17 243.526 1060.17 241.664V235.196H1058.13ZM1056.38 240.18C1055.35 240.18 1054.63 239.466 1054.63 238.458C1054.63 237.45 1055.35 236.75 1056.38 236.75C1057.4 236.75 1058.13 237.45 1058.13 238.458C1058.13 239.466 1057.4 240.18 1056.38 240.18ZM1068.99 241.37C1068.83 241.538 1068.55 241.664 1068.23 241.664C1067.81 241.664 1067.45 241.286 1067.45 240.754V236.134H1069.22V235.196H1067.45V233.208H1066.4V235.196H1065.26V236.134H1066.4V240.754C1066.4 241.832 1067.12 242.602 1068.16 242.602C1068.65 242.602 1069.13 242.434 1069.5 242.14L1068.99 241.37ZM1074.12 242.602C1076.16 242.602 1077.84 240.894 1077.84 238.808C1077.84 236.722 1076.16 235.028 1074.12 235.028C1072.06 235.028 1070.38 236.722 1070.38 238.808C1070.38 240.894 1072.06 242.602 1074.12 242.602ZM1074.12 241.664C1072.66 241.664 1071.47 240.376 1071.47 238.808C1071.47 237.24 1072.66 235.966 1074.12 235.966C1075.56 235.966 1076.75 237.24 1076.75 238.808C1076.75 240.376 1075.56 241.664 1074.12 241.664ZM1088.44 235.196V239.802C1088.44 240.824 1087.43 241.664 1086.2 241.664C1085.13 241.664 1084.39 240.852 1084.39 239.662V235.196H1083.34V239.802C1083.34 241.468 1084.45 242.602 1086.06 242.602C1087.09 242.602 1088.02 242.056 1088.44 241.286V242.434H1089.49V235.196H1088.44ZM1094.16 242.602C1095.66 242.602 1096.8 241.748 1096.8 240.418C1096.8 239.046 1095.6 238.654 1094.44 238.29C1093.09 237.856 1092.56 237.66 1092.56 237.03C1092.56 236.33 1093.23 235.966 1094.05 235.966C1094.69 235.966 1095.4 236.19 1096.13 236.652L1096.64 235.84C1095.87 235.336 1094.94 235.028 1094.05 235.028C1092.6 235.028 1091.51 235.84 1091.51 237.156C1091.51 238.192 1092.18 238.71 1093.93 239.214C1094.91 239.494 1095.75 239.746 1095.75 240.53C1095.75 241.216 1095.11 241.664 1094.16 241.664C1093.36 241.664 1092.53 241.356 1091.71 240.754L1091.16 241.524C1092.03 242.224 1093.15 242.602 1094.16 242.602ZM1101.65 241.664C1100.23 241.664 1099.23 240.628 1099.08 239.214H1105C1105 236.68 1103.75 235.028 1101.57 235.028C1099.62 235.028 1098 236.638 1098 238.794C1098 241.02 1099.74 242.602 1101.67 242.602C1102.68 242.602 1103.95 242.168 1104.58 241.482L1103.94 240.796C1103.49 241.286 1102.51 241.664 1101.65 241.664ZM1101.61 235.966C1103.05 235.966 1103.82 236.974 1103.96 238.276H1099.09C1099.29 236.876 1100.32 235.966 1101.61 235.966Z" fill="#0F0B47"/>
<rect x="924" y="227.434" width="20" height="20" rx="10" fill="#A585FF"/>
<path d="M962.774 292.602C965.112 292.602 966.512 291.384 966.512 289.55C966.512 287.772 965.14 287.156 963.068 286.694C961.584 286.358 960.996 286.134 960.996 285.434C960.996 284.86 961.542 284.398 962.41 284.398C963.334 284.398 964.3 284.776 965.168 285.476L966.246 283.978C965.252 283.138 964.048 282.648 962.48 282.648C960.366 282.648 958.91 283.866 958.91 285.644C958.91 287.506 960.366 288.08 962.396 288.542C963.866 288.878 964.426 289.088 964.426 289.774C964.426 290.376 963.894 290.852 962.844 290.852C961.626 290.852 960.59 290.376 959.68 289.592L958.504 291.006C959.624 292.042 961.094 292.602 962.774 292.602ZM971.557 292.602C973.727 292.602 975.505 290.894 975.505 288.808C975.505 286.722 973.727 285.028 971.557 285.028C969.387 285.028 967.609 286.722 967.609 288.808C967.609 290.894 969.387 292.602 971.557 292.602ZM971.557 290.88C970.465 290.88 969.569 289.942 969.569 288.808C969.569 287.674 970.465 286.75 971.557 286.75C972.649 286.75 973.531 287.674 973.531 288.808C973.531 289.942 972.649 290.88 971.557 290.88ZM985.597 285.028C984.491 285.028 983.637 285.7 983.427 286.708C983.035 285.686 982.083 285.028 980.949 285.028C980.053 285.028 979.339 285.462 978.989 286.148V285.196H976.945V292.434H978.989V288.066C978.989 287.296 979.563 286.75 980.389 286.75C981.145 286.75 981.663 287.338 981.663 288.178V292.448H983.637V288.066C983.637 287.296 984.211 286.75 985.023 286.75C985.779 286.75 986.311 287.338 986.311 288.178V292.448H988.271V287.828C988.271 286.19 987.109 285.028 985.597 285.028ZM993.415 291.02C992.421 291.02 991.749 290.334 991.567 289.354H997.013C997.013 286.666 995.641 285.028 993.373 285.028C991.259 285.028 989.621 286.61 989.621 288.794C989.621 291.02 991.329 292.602 993.485 292.602C994.549 292.602 995.795 292.154 996.439 291.482L995.291 290.306C994.829 290.726 994.087 291.02 993.415 291.02ZM993.401 286.61C994.311 286.61 994.885 287.24 995.053 288.136H991.581C991.805 287.212 992.491 286.61 993.401 286.61ZM1007.89 282.648V286.554C1007.35 285.602 1006.42 285.028 1005.26 285.028C1003.36 285.028 1001.93 286.596 1001.93 288.808C1001.93 291.034 1003.36 292.602 1005.26 292.602C1006.42 292.602 1007.35 292.028 1007.89 291.076V292.434H1008.94V282.648H1007.89ZM1005.46 291.664C1004.04 291.664 1003.04 290.474 1003.04 288.808C1003.04 287.142 1004.04 285.966 1005.46 285.966C1006.89 285.966 1007.89 287.142 1007.89 288.808C1007.89 290.474 1006.89 291.664 1005.46 291.664ZM1014.43 291.664C1013 291.664 1012.01 290.628 1011.85 289.214H1017.77C1017.77 286.68 1016.53 285.028 1014.34 285.028C1012.4 285.028 1010.77 286.638 1010.77 288.794C1010.77 291.02 1012.51 292.602 1014.44 292.602C1015.45 292.602 1016.72 292.168 1017.35 291.482L1016.71 290.796C1016.26 291.286 1015.28 291.664 1014.43 291.664ZM1014.39 285.966C1015.83 285.966 1016.6 286.974 1016.74 288.276H1011.87C1012.06 286.876 1013.1 285.966 1014.39 285.966ZM1023.22 285.028C1022.06 285.028 1021.13 285.602 1020.59 286.554V285.196H1019.54V294.842H1020.59V291.076C1021.13 292.028 1022.06 292.602 1023.22 292.602C1025.12 292.602 1026.55 291.034 1026.55 288.808C1026.55 286.596 1025.12 285.028 1023.22 285.028ZM1023.02 291.664C1021.6 291.664 1020.59 290.474 1020.59 288.808C1020.59 287.142 1021.6 285.966 1023.02 285.966C1024.44 285.966 1025.45 287.142 1025.45 288.808C1025.45 290.474 1024.44 291.664 1023.02 291.664ZM1028.43 292.434H1029.48V282.648H1028.43V292.434ZM1035.02 292.602C1037.06 292.602 1038.74 290.894 1038.74 288.808C1038.74 286.722 1037.06 285.028 1035.02 285.028C1032.96 285.028 1031.28 286.722 1031.28 288.808C1031.28 290.894 1032.96 292.602 1035.02 292.602ZM1035.02 291.664C1033.56 291.664 1032.37 290.376 1032.37 288.808C1032.37 287.24 1033.56 285.966 1035.02 285.966C1036.46 285.966 1037.65 287.24 1037.65 288.808C1037.65 290.376 1036.46 291.664 1035.02 291.664ZM1041.18 294.954C1042.18 294.94 1042.88 294.478 1043.38 293.246L1046.68 285.196H1045.55L1043.16 291.216L1040.62 285.196H1039.46L1042.61 292.462L1042.19 293.358C1041.91 293.848 1041.6 294.002 1041.14 294.002C1040.83 294.002 1040.54 293.946 1040.29 293.82L1040.03 294.716C1040.37 294.87 1040.76 294.954 1041.18 294.954ZM1055.88 285.028C1054.74 285.028 1053.84 285.728 1053.62 286.75C1053.25 285.7 1052.36 285.028 1051.21 285.028C1050.26 285.028 1049.47 285.504 1049.11 286.26V285.196H1048.06V292.434H1049.11V287.828C1049.11 286.736 1049.92 285.966 1051.07 285.966C1052.05 285.966 1052.73 286.792 1052.73 287.968V292.434H1053.78V287.828C1053.78 286.736 1054.6 285.966 1055.74 285.966C1056.72 285.966 1057.41 286.792 1057.41 287.968V292.434H1058.46V287.828C1058.46 286.19 1057.4 285.028 1055.88 285.028ZM1063.78 291.664C1062.36 291.664 1061.36 290.628 1061.21 289.214H1067.13C1067.13 286.68 1065.88 285.028 1063.7 285.028C1061.75 285.028 1060.13 286.638 1060.13 288.794C1060.13 291.02 1061.87 292.602 1063.8 292.602C1064.81 292.602 1066.08 292.168 1066.71 291.482L1066.07 290.796C1065.62 291.286 1064.64 291.664 1063.78 291.664ZM1063.74 285.966C1065.18 285.966 1065.95 286.974 1066.09 288.276H1061.22C1061.42 286.876 1062.45 285.966 1063.74 285.966ZM1072.32 285.028C1071.29 285.028 1070.36 285.574 1069.94 286.344V285.196H1068.89V292.434H1069.94V287.828C1069.94 286.806 1070.95 285.966 1072.18 285.966C1073.25 285.966 1073.99 286.778 1073.99 287.968V292.434H1075.04V287.828C1075.04 286.162 1073.93 285.028 1072.32 285.028ZM1080.1 291.37C1079.95 291.538 1079.67 291.664 1079.35 291.664C1078.93 291.664 1078.56 291.286 1078.56 290.754V286.134H1080.34V285.196H1078.56V283.208H1077.51V285.196H1076.38V286.134H1077.51V290.754C1077.51 291.832 1078.24 292.602 1079.28 292.602C1079.77 292.602 1080.24 292.434 1080.62 292.14L1080.1 291.37ZM1083.19 292.602C1083.6 292.602 1083.93 292.252 1083.93 291.832C1083.93 291.44 1083.6 291.09 1083.19 291.09C1082.76 291.09 1082.42 291.44 1082.42 291.832C1082.42 292.252 1082.76 292.602 1083.19 292.602ZM1087.73 292.602C1088.14 292.602 1088.47 292.252 1088.47 291.832C1088.47 291.44 1088.14 291.09 1087.73 291.09C1087.3 291.09 1086.96 291.44 1086.96 291.832C1086.96 292.252 1087.3 292.602 1087.73 292.602ZM1092.27 292.602C1092.68 292.602 1093.01 292.252 1093.01 291.832C1093.01 291.44 1092.68 291.09 1092.27 291.09C1091.84 291.09 1091.5 291.44 1091.5 291.832C1091.5 292.252 1091.84 292.602 1092.27 292.602Z" fill="#0F0B47"/>
<rect x="924" y="277.434" width="20" height="20" rx="10" fill="#8B62FF"/>
<path d="M959.218 342.434H961.29V336.442L964.258 341.874L967.24 336.442V342.434H969.298V332.816H967.24L964.258 338.248L961.29 332.816H959.218V342.434ZM974.555 335.028C973.547 335.028 972.553 335.308 971.531 335.826L972.217 337.184C972.791 336.89 973.421 336.666 974.093 336.666C975.283 336.666 975.773 337.338 975.773 338.108V338.262C975.157 338.01 974.499 337.884 973.911 337.884C972.245 337.884 970.915 338.864 970.915 340.292C970.915 341.678 972.091 342.602 973.631 342.602C974.429 342.602 975.255 342.28 975.773 341.706V342.434H977.747V338.108C977.747 336.218 976.445 335.028 974.555 335.028ZM974.093 341.188C973.393 341.188 972.861 340.824 972.861 340.236C972.861 339.648 973.463 339.214 974.205 339.214C974.765 339.214 975.311 339.312 975.773 339.494V340.152C975.619 340.824 974.877 341.188 974.093 341.188ZM983.771 335.028C982.833 335.028 982.035 335.434 981.587 336.078V335.196H979.543V342.434H981.587V338.15C981.587 337.366 982.245 336.75 983.099 336.75C983.911 336.75 984.485 337.366 984.485 338.262V342.434H986.445V337.828C986.445 336.176 985.339 335.028 983.771 335.028ZM989.791 344.954C990.925 344.954 991.849 344.212 992.395 342.798L995.363 335.196H993.277L991.471 340.278L989.567 335.196H987.453L990.463 342.504L990.211 343.036C990.057 343.302 989.749 343.428 989.357 343.428C989.119 343.428 988.755 343.302 988.405 343.106L987.971 344.506C988.461 344.772 989.189 344.954 989.791 344.954ZM1006.01 332.648V336.554C1005.46 335.602 1004.54 335.028 1003.37 335.028C1001.47 335.028 1000.04 336.596 1000.04 338.808C1000.04 341.034 1001.47 342.602 1003.37 342.602C1004.54 342.602 1005.46 342.028 1006.01 341.076V342.434H1007.06V332.648H1006.01ZM1003.57 341.664C1002.16 341.664 1001.15 340.474 1001.15 338.808C1001.15 337.142 1002.16 335.966 1003.57 335.966C1005 335.966 1006.01 337.142 1006.01 338.808C1006.01 340.474 1005 341.664 1003.57 341.664ZM1012.54 341.664C1011.11 341.664 1010.12 340.628 1009.97 339.214H1015.89C1015.89 336.68 1014.64 335.028 1012.46 335.028C1010.51 335.028 1008.89 336.638 1008.89 338.794C1008.89 341.02 1010.62 342.602 1012.56 342.602C1013.56 342.602 1014.84 342.168 1015.47 341.482L1014.82 340.796C1014.38 341.286 1013.4 341.664 1012.54 341.664ZM1012.5 335.966C1013.94 335.966 1014.71 336.974 1014.85 338.276H1009.98C1010.18 336.876 1011.21 335.966 1012.5 335.966ZM1021.33 335.028C1020.17 335.028 1019.25 335.602 1018.7 336.554V335.196H1017.65V344.842H1018.7V341.076C1019.25 342.028 1020.17 342.602 1021.33 342.602C1023.24 342.602 1024.67 341.034 1024.67 338.808C1024.67 336.596 1023.24 335.028 1021.33 335.028ZM1021.14 341.664C1019.71 341.664 1018.7 340.474 1018.7 338.808C1018.7 337.142 1019.71 335.966 1021.14 335.966C1022.55 335.966 1023.56 337.142 1023.56 338.808C1023.56 340.474 1022.55 341.664 1021.14 341.664ZM1026.54 342.434H1027.59V332.648H1026.54V342.434ZM1033.13 342.602C1035.18 342.602 1036.86 340.894 1036.86 338.808C1036.86 336.722 1035.18 335.028 1033.13 335.028C1031.07 335.028 1029.39 336.722 1029.39 338.808C1029.39 340.894 1031.07 342.602 1033.13 342.602ZM1033.13 341.664C1031.68 341.664 1030.49 340.376 1030.49 338.808C1030.49 337.24 1031.68 335.966 1033.13 335.966C1034.57 335.966 1035.76 337.24 1035.76 338.808C1035.76 340.376 1034.57 341.664 1033.13 341.664ZM1039.3 344.954C1040.29 344.94 1040.99 344.478 1041.49 343.246L1044.8 335.196H1043.66L1041.27 341.216L1038.74 335.196H1037.57L1040.72 342.462L1040.3 343.358C1040.02 343.848 1039.72 344.002 1039.25 344.002C1038.95 344.002 1038.65 343.946 1038.4 343.82L1038.15 344.716C1038.48 344.87 1038.88 344.954 1039.3 344.954ZM1054 335.028C1052.85 335.028 1051.95 335.728 1051.73 336.75C1051.37 335.7 1050.47 335.028 1049.32 335.028C1048.37 335.028 1047.59 335.504 1047.22 336.26V335.196H1046.17V342.434H1047.22V337.828C1047.22 336.736 1048.03 335.966 1049.18 335.966C1050.16 335.966 1050.85 336.792 1050.85 337.968V342.434H1051.9V337.828C1051.9 336.736 1052.71 335.966 1053.86 335.966C1054.84 335.966 1055.52 336.792 1055.52 337.968V342.434H1056.57V337.828C1056.57 336.19 1055.51 335.028 1054 335.028ZM1061.9 341.664C1060.47 341.664 1059.47 340.628 1059.32 339.214H1065.24C1065.24 336.68 1064 335.028 1061.81 335.028C1059.87 335.028 1058.24 336.638 1058.24 338.794C1058.24 341.02 1059.98 342.602 1061.91 342.602C1062.92 342.602 1064.19 342.168 1064.82 341.482L1064.18 340.796C1063.73 341.286 1062.75 341.664 1061.9 341.664ZM1061.85 335.966C1063.3 335.966 1064.07 336.974 1064.21 338.276H1059.33C1059.53 336.876 1060.57 335.966 1061.85 335.966ZM1070.44 335.028C1069.4 335.028 1068.48 335.574 1068.06 336.344V335.196H1067.01V342.434H1068.06V337.828C1068.06 336.806 1069.07 335.966 1070.3 335.966C1071.36 335.966 1072.1 336.778 1072.1 337.968V342.434H1073.15V337.828C1073.15 336.162 1072.05 335.028 1070.44 335.028ZM1078.22 341.37C1078.06 341.538 1077.78 341.664 1077.46 341.664C1077.04 341.664 1076.68 341.286 1076.68 340.754V336.134H1078.45V335.196H1076.68V333.208H1075.63V335.196H1074.49V336.134H1075.63V340.754C1075.63 341.832 1076.35 342.602 1077.39 342.602C1077.88 342.602 1078.36 342.434 1078.73 342.14L1078.22 341.37ZM1081.31 342.602C1081.71 342.602 1082.05 342.252 1082.05 341.832C1082.05 341.44 1081.71 341.09 1081.31 341.09C1080.87 341.09 1080.54 341.44 1080.54 341.832C1080.54 342.252 1080.87 342.602 1081.31 342.602ZM1085.84 342.602C1086.25 342.602 1086.59 342.252 1086.59 341.832C1086.59 341.44 1086.25 341.09 1085.84 341.09C1085.41 341.09 1085.07 341.44 1085.07 341.832C1085.07 342.252 1085.41 342.602 1085.84 342.602ZM1090.38 342.602C1090.79 342.602 1091.13 342.252 1091.13 341.832C1091.13 341.44 1090.79 341.09 1090.38 341.09C1089.95 341.09 1089.61 341.44 1089.61 341.832C1089.61 342.252 1089.95 342.602 1090.38 342.602Z" fill="#0F0B47"/>
<rect x="924" y="327.434" width="20" height="20" rx="10" fill="#542AED"/>
<path d="M959.218 390.434H961.29V384.218L965.924 390.434H967.996V380.816H965.924V387.032L961.29 380.816H959.218V390.434ZM973.509 389.02C972.515 389.02 971.843 388.334 971.661 387.354H977.107C977.107 384.666 975.735 383.028 973.467 383.028C971.353 383.028 969.715 384.61 969.715 386.794C969.715 389.02 971.423 390.602 973.579 390.602C974.643 390.602 975.889 390.154 976.533 389.482L975.385 388.306C974.923 388.726 974.181 389.02 973.509 389.02ZM973.495 384.61C974.405 384.61 974.979 385.24 975.147 386.136H971.675C971.899 385.212 972.585 384.61 973.495 384.61ZM981.542 383.028C980.534 383.028 979.54 383.308 978.518 383.826L979.204 385.184C979.778 384.89 980.408 384.666 981.08 384.666C982.27 384.666 982.76 385.338 982.76 386.108V386.262C982.144 386.01 981.486 385.884 980.898 385.884C979.232 385.884 977.902 386.864 977.902 388.292C977.902 389.678 979.078 390.602 980.618 390.602C981.416 390.602 982.242 390.28 982.76 389.706V390.434H984.734V386.108C984.734 384.218 983.432 383.028 981.542 383.028ZM981.08 389.188C980.38 389.188 979.848 388.824 979.848 388.236C979.848 387.648 980.45 387.214 981.192 387.214C981.752 387.214 982.298 387.312 982.76 387.494V388.152C982.606 388.824 981.864 389.188 981.08 389.188ZM988.573 384.554V383.196H986.529V390.434H988.573V386.976C988.573 385.618 989.539 384.75 991.051 384.75V383.028C989.945 383.028 989.049 383.616 988.573 384.554ZM992.544 390.434H994.588V380.648H992.544V390.434ZM998.076 392.954C999.21 392.954 1000.13 392.212 1000.68 390.798L1003.65 383.196H1001.56L999.756 388.278L997.852 383.196H995.738L998.748 390.504L998.496 391.036C998.342 391.302 998.034 391.428 997.642 391.428C997.404 391.428 997.04 391.302 996.69 391.106L996.256 392.506C996.746 392.772 997.474 392.954 998.076 392.954ZM1011.66 383.028C1010.65 383.028 1009.66 383.308 1008.64 383.826L1009.32 385.184C1009.9 384.89 1010.53 384.666 1011.2 384.666C1012.39 384.666 1012.88 385.338 1012.88 386.108V386.262C1012.26 386.01 1011.6 385.884 1011.02 385.884C1009.35 385.884 1008.02 386.864 1008.02 388.292C1008.02 389.678 1009.2 390.602 1010.74 390.602C1011.53 390.602 1012.36 390.28 1012.88 389.706V390.434H1014.85V386.108C1014.85 384.218 1013.55 383.028 1011.66 383.028ZM1011.2 389.188C1010.5 389.188 1009.97 388.824 1009.97 388.236C1009.97 387.648 1010.57 387.214 1011.31 387.214C1011.87 387.214 1012.42 387.312 1012.88 387.494V388.152C1012.72 388.824 1011.98 389.188 1011.2 389.188ZM1016.65 390.434H1018.69V380.648H1016.65V390.434ZM1020.65 390.434H1022.7V380.648H1020.65V390.434ZM1034.12 380.648V384.554C1033.57 383.602 1032.65 383.028 1031.48 383.028C1029.58 383.028 1028.15 384.596 1028.15 386.808C1028.15 389.034 1029.58 390.602 1031.48 390.602C1032.65 390.602 1033.57 390.028 1034.12 389.076V390.434H1035.17V380.648H1034.12ZM1031.68 389.664C1030.27 389.664 1029.26 388.474 1029.26 386.808C1029.26 385.142 1030.27 383.966 1031.68 383.966C1033.11 383.966 1034.12 385.142 1034.12 386.808C1034.12 388.474 1033.11 389.664 1031.68 389.664ZM1040.65 389.664C1039.22 389.664 1038.23 388.628 1038.07 387.214H1044C1044 384.68 1042.75 383.028 1040.57 383.028C1038.62 383.028 1037 384.638 1037 386.794C1037 389.02 1038.73 390.602 1040.66 390.602C1041.67 390.602 1042.95 390.168 1043.58 389.482L1042.93 388.796C1042.48 389.286 1041.5 389.664 1040.65 389.664ZM1040.61 383.966C1042.05 383.966 1042.82 384.974 1042.96 386.276H1038.09C1038.28 384.876 1039.32 383.966 1040.61 383.966ZM1049.44 383.028C1048.28 383.028 1047.36 383.602 1046.81 384.554V383.196H1045.76V392.842H1046.81V389.076C1047.36 390.028 1048.28 390.602 1049.44 390.602C1051.35 390.602 1052.77 389.034 1052.77 386.808C1052.77 384.596 1051.35 383.028 1049.44 383.028ZM1049.25 389.664C1047.82 389.664 1046.81 388.474 1046.81 386.808C1046.81 385.142 1047.82 383.966 1049.25 383.966C1050.66 383.966 1051.67 385.142 1051.67 386.808C1051.67 388.474 1050.66 389.664 1049.25 389.664ZM1054.65 390.434H1055.7V380.648H1054.65V390.434ZM1061.24 390.602C1063.29 390.602 1064.97 388.894 1064.97 386.808C1064.97 384.722 1063.29 383.028 1061.24 383.028C1059.18 383.028 1057.5 384.722 1057.5 386.808C1057.5 388.894 1059.18 390.602 1061.24 390.602ZM1061.24 389.664C1059.79 389.664 1058.6 388.376 1058.6 386.808C1058.6 385.24 1059.79 383.966 1061.24 383.966C1062.68 383.966 1063.87 385.24 1063.87 386.808C1063.87 388.376 1062.68 389.664 1061.24 389.664ZM1067.4 392.954C1068.4 392.94 1069.1 392.478 1069.6 391.246L1072.91 383.196H1071.77L1069.38 389.216L1066.84 383.196H1065.68L1068.83 390.462L1068.41 391.358C1068.13 391.848 1067.82 392.002 1067.36 392.002C1067.05 392.002 1066.76 391.946 1066.51 391.82L1066.26 392.716C1066.59 392.87 1066.98 392.954 1067.4 392.954ZM1082.11 383.028C1080.96 383.028 1080.06 383.728 1079.84 384.75C1079.47 383.7 1078.58 383.028 1077.43 383.028C1076.48 383.028 1075.69 383.504 1075.33 384.26V383.196H1074.28V390.434H1075.33V385.828C1075.33 384.736 1076.14 383.966 1077.29 383.966C1078.27 383.966 1078.96 384.792 1078.96 385.968V390.434H1080.01V385.828C1080.01 384.736 1080.82 383.966 1081.97 383.966C1082.95 383.966 1083.63 384.792 1083.63 385.968V390.434H1084.68V385.828C1084.68 384.19 1083.62 383.028 1082.11 383.028ZM1090.01 389.664C1088.58 389.664 1087.58 388.628 1087.43 387.214H1093.35C1093.35 384.68 1092.11 383.028 1089.92 383.028C1087.98 383.028 1086.35 384.638 1086.35 386.794C1086.35 389.02 1088.09 390.602 1090.02 390.602C1091.03 390.602 1092.3 390.168 1092.93 389.482L1092.29 388.796C1091.84 389.286 1090.86 389.664 1090.01 389.664ZM1089.96 383.966C1091.41 383.966 1092.18 384.974 1092.32 386.276H1087.44C1087.64 384.876 1088.68 383.966 1089.96 383.966ZM1098.55 383.028C1097.51 383.028 1096.59 383.574 1096.17 384.344V383.196H1095.12V390.434H1096.17V385.828C1096.17 384.806 1097.17 383.966 1098.41 383.966C1099.47 383.966 1100.21 384.778 1100.21 385.968V390.434H1101.26V385.828C1101.26 384.162 1100.16 383.028 1098.55 383.028ZM1106.32 389.37C1106.17 389.538 1105.89 389.664 1105.57 389.664C1105.15 389.664 1104.78 389.286 1104.78 388.754V384.134H1106.56V383.196H1104.78V381.208H1103.73V383.196H1102.6V384.134H1103.73V388.754C1103.73 389.832 1104.46 390.602 1105.5 390.602C1105.99 390.602 1106.46 390.434 1106.84 390.14L1106.32 389.37ZM962.9 401.028C961.738 401.028 960.814 401.602 960.268 402.554V401.196H959.218V410.842H960.268V407.076C960.814 408.028 961.738 408.602 962.9 408.602C964.804 408.602 966.232 407.034 966.232 404.808C966.232 402.596 964.804 401.028 962.9 401.028ZM962.704 407.664C961.276 407.664 960.268 406.474 960.268 404.808C960.268 403.142 961.276 401.966 962.704 401.966C964.118 401.966 965.126 403.142 965.126 404.808C965.126 406.474 964.118 407.664 962.704 407.664ZM969.155 402.61V401.196H968.105V408.434H969.155V404.388C969.155 402.974 970.317 401.966 971.955 401.966V401.028C970.625 401.028 969.589 401.644 969.155 402.61ZM976.246 401.028C975.546 401.028 974.678 401.21 973.642 401.728L974.062 402.582C974.72 402.246 975.448 401.924 976.176 401.924C977.744 401.924 978.136 403.044 978.136 404.024V404.29C977.394 404.052 976.568 403.884 975.784 403.884C974.23 403.884 972.942 404.85 972.942 406.292C972.942 407.72 974.062 408.602 975.588 408.602C976.54 408.602 977.618 408.154 978.136 407.3V408.434H979.186V404.024C979.186 402.274 978.22 401.028 976.246 401.028ZM975.77 407.678C974.748 407.678 973.964 407.146 973.964 406.25C973.964 405.382 974.874 404.766 975.952 404.766C976.736 404.766 977.478 404.878 978.136 405.06V406.166C977.856 407.188 976.722 407.678 975.77 407.678ZM984.556 408.602C985.564 408.602 986.488 408.182 987.174 407.496L986.446 406.782C985.956 407.328 985.284 407.664 984.556 407.664C983.114 407.664 981.91 406.362 981.91 404.808C981.91 403.268 983.114 401.966 984.556 401.966C985.27 401.966 985.928 402.288 986.404 402.806L987.132 402.092C986.446 401.434 985.536 401.028 984.556 401.028C982.526 401.028 980.804 402.75 980.804 404.808C980.804 406.866 982.526 408.602 984.556 408.602ZM991.508 407.37C991.354 407.538 991.074 407.664 990.752 407.664C990.332 407.664 989.968 407.286 989.968 406.754V402.134H991.746V401.196H989.968V399.208H988.918V401.196H987.784V402.134H988.918V406.754C988.918 407.832 989.646 408.602 990.682 408.602C991.172 408.602 991.648 408.434 992.026 408.14L991.508 407.37ZM994.066 399.88C994.444 399.88 994.752 399.558 994.752 399.18C994.752 398.816 994.444 398.494 994.066 398.494C993.674 398.494 993.366 398.816 993.366 399.18C993.366 399.558 993.674 399.88 994.066 399.88ZM993.534 408.434H994.584V401.196H993.534V408.434ZM1000.13 408.602C1001.14 408.602 1002.06 408.182 1002.75 407.496L1002.02 406.782C1001.53 407.328 1000.86 407.664 1000.13 407.664C998.687 407.664 997.483 406.362 997.483 404.808C997.483 403.268 998.687 401.966 1000.13 401.966C1000.84 401.966 1001.5 402.288 1001.98 402.806L1002.7 402.092C1002.02 401.434 1001.11 401.028 1000.13 401.028C998.099 401.028 996.377 402.75 996.377 404.808C996.377 406.866 998.099 408.602 1000.13 408.602ZM1007.33 407.664C1005.9 407.664 1004.91 406.628 1004.76 405.214H1010.68C1010.68 402.68 1009.43 401.028 1007.25 401.028C1005.3 401.028 1003.68 402.638 1003.68 404.794C1003.68 407.02 1005.41 408.602 1007.35 408.602C1008.35 408.602 1009.63 408.168 1010.26 407.482L1009.61 406.796C1009.17 407.286 1008.19 407.664 1007.33 407.664ZM1007.29 401.966C1008.73 401.966 1009.5 402.974 1009.64 404.276H1004.77C1004.97 402.876 1006 401.966 1007.29 401.966ZM1014.68 408.602C1016.18 408.602 1017.33 407.748 1017.33 406.418C1017.33 405.046 1016.12 404.654 1014.96 404.29C1013.62 403.856 1013.09 403.66 1013.09 403.03C1013.09 402.33 1013.76 401.966 1014.57 401.966C1015.21 401.966 1015.93 402.19 1016.66 402.652L1017.16 401.84C1016.39 401.336 1015.47 401.028 1014.57 401.028C1013.13 401.028 1012.04 401.84 1012.04 403.156C1012.04 404.192 1012.71 404.71 1014.46 405.214C1015.44 405.494 1016.28 405.746 1016.28 406.53C1016.28 407.216 1015.63 407.664 1014.68 407.664C1013.88 407.664 1013.06 407.356 1012.23 406.754L1011.69 407.524C1012.55 408.224 1013.67 408.602 1014.68 408.602ZM1025.57 401.028C1024.87 401.028 1024.01 401.21 1022.97 401.728L1023.39 402.582C1024.05 402.246 1024.78 401.924 1025.5 401.924C1027.07 401.924 1027.46 403.044 1027.46 404.024V404.29C1026.72 404.052 1025.9 403.884 1025.11 403.884C1023.56 403.884 1022.27 404.85 1022.27 406.292C1022.27 407.72 1023.39 408.602 1024.92 408.602C1025.87 408.602 1026.95 408.154 1027.46 407.3V408.434H1028.51V404.024C1028.51 402.274 1027.55 401.028 1025.57 401.028ZM1025.1 407.678C1024.08 407.678 1023.29 407.146 1023.29 406.25C1023.29 405.382 1024.2 404.766 1025.28 404.766C1026.06 404.766 1026.81 404.878 1027.46 405.06V406.166C1027.18 407.188 1026.05 407.678 1025.1 407.678ZM1034.21 401.028C1033.17 401.028 1032.25 401.574 1031.83 402.344V401.196H1030.78V408.434H1031.83V403.828C1031.83 402.806 1032.83 401.966 1034.07 401.966C1035.13 401.966 1035.87 402.778 1035.87 403.968V408.434H1036.92V403.828C1036.92 402.162 1035.82 401.028 1034.21 401.028ZM1044.59 398.648V402.554C1044.04 401.602 1043.12 401.028 1041.96 401.028C1040.05 401.028 1038.62 402.596 1038.62 404.808C1038.62 407.034 1040.05 408.602 1041.96 408.602C1043.12 408.602 1044.04 408.028 1044.59 407.076V408.434H1045.64V398.648H1044.59ZM1042.15 407.664C1040.74 407.664 1039.73 406.474 1039.73 404.808C1039.73 403.142 1040.74 401.966 1042.15 401.966C1043.58 401.966 1044.59 403.142 1044.59 404.808C1044.59 406.474 1043.58 407.664 1042.15 407.664ZM1054.73 407.37C1054.57 407.538 1054.29 407.664 1053.97 407.664C1053.55 407.664 1053.19 407.286 1053.19 406.754V402.134H1054.96V401.196H1053.19V399.208H1052.14V401.196H1051V402.134H1052.14V406.754C1052.14 407.832 1052.86 408.602 1053.9 408.602C1054.39 408.602 1054.87 408.434 1055.24 408.14L1054.73 407.37ZM1059.86 408.602C1061.91 408.602 1063.59 406.894 1063.59 404.808C1063.59 402.722 1061.91 401.028 1059.86 401.028C1057.8 401.028 1056.12 402.722 1056.12 404.808C1056.12 406.894 1057.8 408.602 1059.86 408.602ZM1059.86 407.664C1058.41 407.664 1057.22 406.376 1057.22 404.808C1057.22 403.24 1058.41 401.966 1059.86 401.966C1061.3 401.966 1062.49 403.24 1062.49 404.808C1062.49 406.376 1061.3 407.664 1059.86 407.664ZM1068.5 408.602C1070.55 408.602 1072.23 406.894 1072.23 404.808C1072.23 402.722 1070.55 401.028 1068.5 401.028C1066.44 401.028 1064.76 402.722 1064.76 404.808C1064.76 406.894 1066.44 408.602 1068.5 408.602ZM1068.5 407.664C1067.05 407.664 1065.86 406.376 1065.86 404.808C1065.86 403.24 1067.05 401.966 1068.5 401.966C1069.94 401.966 1071.13 403.24 1071.13 404.808C1071.13 406.376 1069.94 407.664 1068.5 407.664ZM1074.03 408.434H1075.08V398.648H1074.03V408.434ZM1079.76 408.602C1081.26 408.602 1082.41 407.748 1082.41 406.418C1082.41 405.046 1081.2 404.654 1080.04 404.29C1078.7 403.856 1078.16 403.66 1078.16 403.03C1078.16 402.33 1078.84 401.966 1079.65 401.966C1080.29 401.966 1081.01 402.19 1081.73 402.652L1082.24 401.84C1081.47 401.336 1080.54 401.028 1079.65 401.028C1078.21 401.028 1077.11 401.84 1077.11 403.156C1077.11 404.192 1077.79 404.71 1079.54 405.214C1080.52 405.494 1081.36 405.746 1081.36 406.53C1081.36 407.216 1080.71 407.664 1079.76 407.664C1078.96 407.664 1078.14 407.356 1077.31 406.754L1076.76 407.524C1077.63 408.224 1078.75 408.602 1079.76 408.602ZM1090.65 401.028C1089.95 401.028 1089.08 401.21 1088.05 401.728L1088.47 402.582C1089.13 402.246 1089.85 401.924 1090.58 401.924C1092.15 401.924 1092.54 403.044 1092.54 404.024V404.29C1091.8 404.052 1090.97 403.884 1090.19 403.884C1088.64 403.884 1087.35 404.85 1087.35 406.292C1087.35 407.72 1088.47 408.602 1089.99 408.602C1090.95 408.602 1092.02 408.154 1092.54 407.3V408.434H1093.59V404.024C1093.59 402.274 1092.63 401.028 1090.65 401.028ZM1090.18 407.678C1089.15 407.678 1088.37 407.146 1088.37 406.25C1088.37 405.382 1089.28 404.766 1090.36 404.766C1091.14 404.766 1091.88 404.878 1092.54 405.06V406.166C1092.26 407.188 1091.13 407.678 1090.18 407.678ZM1101.26 398.648V402.554C1100.71 401.602 1099.79 401.028 1098.63 401.028C1096.72 401.028 1095.29 402.596 1095.29 404.808C1095.29 407.034 1096.72 408.602 1098.63 408.602C1099.79 408.602 1100.71 408.028 1101.26 407.076V408.434H1102.31V398.648H1101.26ZM1098.82 407.664C1097.41 407.664 1096.4 406.474 1096.4 404.808C1096.4 403.142 1097.41 401.966 1098.82 401.966C1100.25 401.966 1101.26 403.142 1101.26 404.808C1101.26 406.474 1100.25 407.664 1098.82 407.664ZM1108.17 401.028C1107.14 401.028 1106.21 401.574 1105.79 402.344V398.648H1104.74V408.434H1105.79V403.828C1105.79 402.806 1106.8 401.966 1108.03 401.966C1109.1 401.966 1109.84 402.778 1109.84 403.968V408.434H1110.89V403.828C1110.89 402.162 1109.78 401.028 1108.17 401.028ZM1116.2 407.664C1114.77 407.664 1113.78 406.628 1113.63 405.214H1119.55C1119.55 402.68 1118.3 401.028 1116.12 401.028C1114.17 401.028 1112.55 402.638 1112.55 404.794C1112.55 407.02 1114.28 408.602 1116.22 408.602C1117.22 408.602 1118.5 408.168 1119.13 407.482L1118.48 406.796C1118.04 407.286 1117.06 407.664 1116.2 407.664ZM1116.16 401.966C1117.6 401.966 1118.37 402.974 1118.51 404.276H1113.64C1113.84 402.876 1114.87 401.966 1116.16 401.966ZM1122.36 402.61V401.196H1121.31V408.434H1122.36V404.388C1122.36 402.974 1123.52 401.966 1125.16 401.966V401.028C1123.83 401.028 1122.8 401.644 1122.36 402.61ZM1129.91 407.664C1128.49 407.664 1127.49 406.628 1127.34 405.214H1133.26C1133.26 402.68 1132.01 401.028 1129.83 401.028C1127.88 401.028 1126.26 402.638 1126.26 404.794C1126.26 407.02 1128 408.602 1129.93 408.602C1130.94 408.602 1132.21 408.168 1132.84 407.482L1132.2 406.796C1131.75 407.286 1130.77 407.664 1129.91 407.664ZM1129.87 401.966C1131.31 401.966 1132.08 402.974 1132.22 404.276H1127.35C1127.55 402.876 1128.58 401.966 1129.87 401.966ZM1141.68 407.37C1141.53 407.538 1141.25 407.664 1140.92 407.664C1140.5 407.664 1140.14 407.286 1140.14 406.754V402.134H1141.92V401.196H1140.14V399.208H1139.09V401.196H1137.96V402.134H1139.09V406.754C1139.09 407.832 1139.82 408.602 1140.85 408.602C1141.34 408.602 1141.82 408.434 1142.2 408.14L1141.68 407.37ZM1146.81 408.602C1148.86 408.602 1150.54 406.894 1150.54 404.808C1150.54 402.722 1148.86 401.028 1146.81 401.028C1144.76 401.028 1143.08 402.722 1143.08 404.808C1143.08 406.894 1144.76 408.602 1146.81 408.602ZM1146.81 407.664C1145.36 407.664 1144.17 406.376 1144.17 404.808C1144.17 403.24 1145.36 401.966 1146.81 401.966C1148.26 401.966 1149.45 403.24 1149.45 404.808C1149.45 406.376 1148.26 407.664 1146.81 407.664ZM963.6 422.402H966.358V424.698C965.644 425.244 964.608 425.594 963.712 425.594C961.64 425.594 959.89 423.774 959.89 421.618C959.89 419.476 961.64 417.656 963.712 417.656C964.762 417.656 966.008 418.132 966.708 418.874L967.45 418.118C966.554 417.208 965.042 416.648 963.712 416.648C961.052 416.648 958.784 418.916 958.784 421.618C958.784 424.32 961.052 426.602 963.712 426.602C965.042 426.602 966.554 426.028 967.45 425.132V421.366H963.6V422.402ZM970.25 417.88C970.628 417.88 970.936 417.558 970.936 417.18C970.936 416.816 970.628 416.494 970.25 416.494C969.858 416.494 969.55 416.816 969.55 417.18C969.55 417.558 969.858 417.88 970.25 417.88ZM969.718 426.434H970.768V419.196H969.718V426.434ZM976.004 425.37C975.85 425.538 975.57 425.664 975.248 425.664C974.828 425.664 974.464 425.286 974.464 424.754V420.134H976.242V419.196H974.464V417.208H973.414V419.196H972.28V420.134H973.414V424.754C973.414 425.832 974.142 426.602 975.178 426.602C975.668 426.602 976.144 426.434 976.522 426.14L976.004 425.37ZM982.525 426.602C985.199 426.602 987.439 424.32 987.439 421.618C987.439 418.916 985.199 416.648 982.525 416.648C979.865 416.648 977.597 418.916 977.597 421.618C977.597 424.32 979.865 426.602 982.525 426.602ZM982.525 425.594C980.453 425.594 978.703 423.774 978.703 421.618C978.703 419.476 980.453 417.656 982.525 417.656C984.597 417.656 986.333 419.476 986.333 421.618C986.333 423.774 984.597 425.594 982.525 425.594ZM993.142 419.028C991.98 419.028 991.056 419.602 990.51 420.554V419.196H989.46V428.842H990.51V425.076C991.056 426.028 991.98 426.602 993.142 426.602C995.046 426.602 996.474 425.034 996.474 422.808C996.474 420.596 995.046 419.028 993.142 419.028ZM992.946 425.664C991.518 425.664 990.51 424.474 990.51 422.808C990.51 421.142 991.518 419.966 992.946 419.966C994.36 419.966 995.368 421.142 995.368 422.808C995.368 424.474 994.36 425.664 992.946 425.664ZM1000.59 426.602C1002.08 426.602 1003.23 425.748 1003.23 424.418C1003.23 423.046 1002.03 422.654 1000.87 422.29C999.523 421.856 998.991 421.66 998.991 421.03C998.991 420.33 999.663 419.966 1000.47 419.966C1001.12 419.966 1001.83 420.19 1002.56 420.652L1003.06 419.84C1002.29 419.336 1001.37 419.028 1000.47 419.028C999.033 419.028 997.941 419.84 997.941 421.156C997.941 422.192 998.613 422.71 1000.36 423.214C1001.34 423.494 1002.18 423.746 1002.18 424.53C1002.18 425.216 1001.54 425.664 1000.59 425.664C999.789 425.664 998.963 425.356 998.137 424.754L997.591 425.524C998.459 426.224 999.579 426.602 1000.59 426.602ZM1012.57 419.028C1011.41 419.028 1010.48 419.602 1009.94 420.554V419.196H1008.89V428.842H1009.94V425.076C1010.48 426.028 1011.41 426.602 1012.57 426.602C1014.47 426.602 1015.9 425.034 1015.9 422.808C1015.9 420.596 1014.47 419.028 1012.57 419.028ZM1012.37 425.664C1010.95 425.664 1009.94 424.474 1009.94 422.808C1009.94 421.142 1010.95 419.966 1012.37 419.966C1013.79 419.966 1014.8 421.142 1014.8 422.808C1014.8 424.474 1013.79 425.664 1012.37 425.664ZM1018.82 420.61V419.196H1017.77V426.434H1018.82V422.388C1018.82 420.974 1019.99 419.966 1021.62 419.966V419.028C1020.29 419.028 1019.26 419.644 1018.82 420.61ZM1023.86 417.88C1024.24 417.88 1024.54 417.558 1024.54 417.18C1024.54 416.816 1024.24 416.494 1023.86 416.494C1023.47 416.494 1023.16 416.816 1023.16 417.18C1023.16 417.558 1023.47 417.88 1023.86 417.88ZM1023.33 426.434H1024.38V419.196H1023.33V426.434ZM1030.24 419.028C1029.21 419.028 1028.28 419.574 1027.86 420.344V419.196H1026.81V426.434H1027.86V421.828C1027.86 420.806 1028.87 419.966 1030.1 419.966C1031.17 419.966 1031.91 420.778 1031.91 421.968V426.434H1032.96V421.828C1032.96 420.162 1031.85 419.028 1030.24 419.028ZM1038.33 426.602C1039.34 426.602 1040.26 426.182 1040.95 425.496L1040.22 424.782C1039.73 425.328 1039.06 425.664 1038.33 425.664C1036.89 425.664 1035.68 424.362 1035.68 422.808C1035.68 421.268 1036.89 419.966 1038.33 419.966C1039.04 419.966 1039.7 420.288 1040.18 420.806L1040.9 420.092C1040.22 419.434 1039.31 419.028 1038.33 419.028C1036.3 419.028 1034.58 420.75 1034.58 422.808C1034.58 424.866 1036.3 426.602 1038.33 426.602ZM1043.01 417.88C1043.39 417.88 1043.7 417.558 1043.7 417.18C1043.7 416.816 1043.39 416.494 1043.01 416.494C1042.62 416.494 1042.31 416.816 1042.31 417.18C1042.31 417.558 1042.62 417.88 1043.01 417.88ZM1042.48 426.434H1043.53V419.196H1042.48V426.434ZM1049.65 419.028C1048.49 419.028 1047.56 419.602 1047.02 420.554V419.196H1045.97V428.842H1047.02V425.076C1047.56 426.028 1048.49 426.602 1049.65 426.602C1051.55 426.602 1052.98 425.034 1052.98 422.808C1052.98 420.596 1051.55 419.028 1049.65 419.028ZM1049.45 425.664C1048.02 425.664 1047.02 424.474 1047.02 422.808C1047.02 421.142 1048.02 419.966 1049.45 419.966C1050.87 419.966 1051.87 421.142 1051.87 422.808C1051.87 424.474 1050.87 425.664 1049.45 425.664ZM1054.85 426.434H1055.9V416.648H1054.85V426.434ZM1061.39 425.664C1059.96 425.664 1058.97 424.628 1058.82 423.214H1064.74C1064.74 420.68 1063.49 419.028 1061.31 419.028C1059.36 419.028 1057.74 420.638 1057.74 422.794C1057.74 425.02 1059.47 426.602 1061.41 426.602C1062.41 426.602 1063.69 426.168 1064.32 425.482L1063.67 424.796C1063.23 425.286 1062.25 425.664 1061.39 425.664ZM1061.35 419.966C1062.79 419.966 1063.56 420.974 1063.7 422.276H1058.83C1059.03 420.876 1060.06 419.966 1061.35 419.966ZM1068.74 426.602C1070.24 426.602 1071.39 425.748 1071.39 424.418C1071.39 423.046 1070.18 422.654 1069.02 422.29C1067.68 421.856 1067.15 421.66 1067.15 421.03C1067.15 420.33 1067.82 419.966 1068.63 419.966C1069.27 419.966 1069.99 420.19 1070.72 420.652L1071.22 419.84C1070.45 419.336 1069.53 419.028 1068.63 419.028C1067.19 419.028 1066.1 419.84 1066.1 421.156C1066.1 422.192 1066.77 422.71 1068.52 423.214C1069.5 423.494 1070.34 423.746 1070.34 424.53C1070.34 425.216 1069.69 425.664 1068.74 425.664C1067.94 425.664 1067.12 425.356 1066.29 424.754L1065.75 425.524C1066.61 426.224 1067.73 426.602 1068.74 426.602Z" fill="#0F0B47"/>
<rect x="924" y="377.434" width="20" height="20" rx="10" fill="#1B0085"/>
<path d="M791 126L1.00002 126" stroke="#0F0B47" stroke-linecap="square"/>
</svg>
