<svg width="1202" height="605" viewBox="0 0 1202 605" fill="none" xmlns="http://www.w3.org/2000/svg">
<g opacity="0.05" clip-path="url(#clip0_4318_3205)">
<path d="M587.514 206.658C589.454 207.692 591.024 205.166 591.42 202.449C591.433 202.347 591.433 202.257 591.446 202.155C591.471 201.951 591.497 201.734 591.509 201.53C591.509 201.352 591.509 201.173 591.509 200.995C591.509 200.867 591.509 200.739 591.509 200.625C591.42 199.145 590.897 197.831 589.824 197.257C587.629 198.469 587.105 200.14 587.105 202.028C587.105 203.495 587.425 205.077 587.514 206.658Z" fill="#0F0B47"/>
<path d="M612.533 18.1165C610.427 18.9074 608.333 19.6983 605.615 20.7188C608.27 24.6734 610.708 25.8853 613.005 25.7067C614.397 25.6046 615.75 24.9795 617.077 24.1504C621.328 21.4842 625.336 16.6239 629.791 19.5069C633.097 24.5331 636.454 23.908 640.922 21.4077C630.697 13.3199 618.469 11.2151 610.018 11.585C604.555 11.8274 600.675 13.1031 599.947 14.468C599.104 16.0499 602.487 17.7465 612.52 18.1037L612.533 18.1165Z" fill="#0F0B47"/>
<path d="M729.395 348.196C729.319 348.196 729.242 348.196 729.153 348.196C729.063 348.196 728.987 348.196 728.898 348.209C728.336 348.234 727.736 348.337 727.072 348.477C723.409 349.204 718.673 351.13 715.405 352.036C714.588 352.24 713.784 352.406 713.005 352.508C709.686 350.722 706.699 348.477 703.955 345.9C700.751 340.032 695.786 335.031 691.662 329.635C689.186 325.272 686.965 320.616 684.872 315.833C684.604 314.34 684.463 312.784 684.501 311.151C682.676 309.186 681.183 306.597 679.842 303.688C678.834 301.175 677.851 298.662 676.855 296.175C674.57 289.834 672.426 283.227 669.26 278.711C669.107 278.392 668.941 278.06 668.788 277.754C665.405 271.146 656.572 272.919 648.224 272.511C640.361 269.73 632.446 265.112 628.183 270.521C627.2 271.503 626.358 272.638 625.477 273.634C619.363 272.945 614.448 272.141 610.542 271.248C605.053 267.944 599.5 266.847 596.539 264.551C594.254 261.272 596.054 257.956 595.48 255.608C595.952 254.486 596.565 253.236 597.356 251.845C591.025 250.748 584.578 251.411 578.145 252.623C569.924 253.159 557.913 254.524 540.374 256.999C536.161 258.9 533.468 261.617 531.489 264.627C529.894 266.082 528.464 267.638 527.252 269.615C526.486 275.203 523.562 279.667 519.95 283.826C518.418 284.936 516.593 285.829 514.295 286.428C513.006 289.413 511.142 292.36 509.24 295.345C505.105 300.269 501.888 305.768 501.824 313.077C508.436 324.826 495.186 337.672 504.824 347.801C504.964 347.954 505.092 348.107 505.245 348.247C511.308 353.516 516.989 364.882 524.137 371.171C525.898 372.727 527.749 373.977 529.728 374.73C533.047 376.006 536.697 375.929 540.821 373.684C547.803 376.286 556.266 371.732 563.631 369.704C569.184 368.173 574.111 368.058 577.315 373.531C580.774 376.529 585.638 376.478 588.88 377.588C591.854 378.608 593.45 380.624 591.356 386.862C591.242 387.193 591.127 387.525 590.999 387.869C590.769 388.826 590.616 389.757 590.514 390.676C589.008 405.218 603.7 416.023 604.057 431.65C605.474 437.174 603.368 442.2 601.313 447.226C598.632 453.783 596.067 460.34 601.556 468.045C602.041 468.798 602.487 469.601 602.921 470.431C607.581 479.335 609.776 492.449 613.299 503.7C616.095 512.642 619.758 520.386 626.166 523.881C626.97 524.327 627.813 524.723 628.719 525.016C629.268 525.042 629.791 525.042 630.327 525.042C642.582 525.259 651.109 520.947 657.772 514.25C664.205 507.82 668.89 499.171 673.447 490.089C673.69 489.617 673.919 489.157 674.162 488.685C678.272 487.218 679.485 484.82 679.587 482.026C679.587 481.95 679.587 481.873 679.587 481.797C679.587 481.758 679.587 481.707 679.587 481.669C679.587 475.342 674.226 467.139 683.174 463.108C683.353 463.032 683.506 462.942 683.672 462.866C690.629 459.549 694.113 455.084 695.441 449.765C696.781 444.535 696.015 438.462 694.394 431.752C694.369 431.663 694.356 431.574 694.33 431.484C693.845 430.247 693.45 429.035 693.118 427.836C689.595 414.952 695.237 404.785 703.253 395.09C714.065 382.027 729.178 369.819 731.936 352.954V352.929C733.276 349.281 731.91 348.132 729.383 348.183L729.395 348.196Z" fill="#0F0B47"/>
<path d="M1059 467.29C1043.89 446.178 1042.01 419.529 1036.55 462.289C1007.05 449.418 1030.84 440.246 1014.36 438.843C1004.36 435.794 999.498 444.749 993.971 451.395C987.652 440.386 981.742 453.258 976.113 458.424C972.705 471.41 947.379 467.966 944.227 483.784C949.09 494.946 945.324 532.26 960.438 526.111C1022.96 498.123 1006.43 531.022 1025.55 520.013C1029.51 533.063 1041.46 544.736 1055.59 540.666C1085.35 529.045 1084.46 485.315 1059.01 467.303L1059 467.29Z" fill="#0F0B47"/>
<path d="M831.743 355.849C830.275 356.703 829.484 358.579 829.305 360.696C829.216 361.793 829.292 362.967 829.522 364.102C830.071 366.692 831.475 369.103 833.696 370.098C836.006 367.853 836.44 365.799 835.968 363.783C835.355 361.181 833.249 358.655 831.743 355.849Z" fill="#0F0B47"/>
<path d="M275.145 50.6214C276.894 49.8942 278.234 49.2564 279.23 48.6951C290.067 42.6612 260.07 45.8631 246.233 41.9979C245.977 41.9213 245.722 41.8448 245.467 41.7682H245.441C243.641 41.1942 242.161 40.4926 241.152 39.5996C242.454 56.5532 262.942 48.5803 275.132 50.6086L275.145 50.6214Z" fill="#0F0B47"/>
<path d="M610.095 215.373C610.095 215.118 610.095 214.863 610.07 214.646C610.07 214.569 610.044 214.505 610.031 214.416C610.006 214.212 609.98 213.995 609.929 213.817C609.929 213.791 609.917 213.778 609.904 213.766C609.84 213.536 609.776 213.332 609.687 213.153C609.623 213.013 609.534 212.898 609.457 212.783C609.419 212.732 609.393 212.668 609.355 212.617C608.091 211.036 605.283 211.482 601.619 211.584C600.981 213.102 601.99 214.097 603.521 214.939C605.474 216.011 608.321 216.827 609.802 218.167C609.955 217.286 610.031 216.534 610.07 215.87C610.07 215.794 610.083 215.705 610.083 215.641C610.083 215.551 610.083 215.475 610.083 215.386L610.095 215.373Z" fill="#0F0B47"/>
<path d="M232.217 48.9886C234.221 49.4861 236.966 49.5117 239.583 50.6087C237.298 42.4317 235.051 45.0086 229.269 46.2842C229.549 47.9426 230.66 48.6059 232.217 48.9886Z" fill="#0F0B47"/>
<path d="M288.486 55.5693C287.311 55.4545 285.971 55.429 284.656 55.3907C282.907 55.3397 281.21 55.2249 280.022 54.7656C281.873 60.1234 284.631 59.8555 287.362 59.1922C287.63 59.1284 287.911 59.0519 288.179 58.9881C288.447 58.9243 288.728 58.8478 288.996 58.7967C289.149 58.7585 289.302 58.7329 289.456 58.7074C289.698 58.6564 289.941 58.6181 290.183 58.5926C290.834 58.5161 291.473 58.5416 292.06 58.7329C292.66 56.4878 290.898 55.8244 288.473 55.5821L288.486 55.5693Z" fill="#0F0B47"/>
<path d="M418.176 403.878C407.377 402.054 394.931 397.551 389.059 388.417C384.885 374.844 381.579 371.91 367.614 370.111C357.288 368.249 352.616 353.336 342.557 352.418C333.966 356.117 327.571 351.155 320.282 346.907C316.083 358.668 314.321 358.4 316.006 345.937C304.314 346.307 298.825 369.027 291.574 359.217C287.145 350.351 281.26 358.898 275.108 355.071C262.522 347.838 280.775 324.825 262.356 326.011C247.868 332.007 264.858 282.843 248.008 309.479C223.04 337.76 214.194 253.043 246.234 267.445C257.454 267.547 242.979 258.235 266.479 265.366C277.712 264.767 271.955 284.948 280.877 285.611C282.575 270.061 271.993 253.515 291.242 244.432C300.254 241.409 289.621 214.965 295.889 230.502C301.493 219.71 316.466 197.909 330.418 197.246C318.802 211.316 350.599 196.174 345.263 191.301C336.941 199.708 322.21 185.522 333.315 182.04C326.971 176.299 322.146 183.162 316.619 182.422C330.048 172.089 384.426 172.268 344.919 152.393C333.545 141.996 337.949 124.89 321.431 138.335C311.653 124.558 283.315 107.923 289.136 138.935C297.893 148.26 293.808 149.65 284.349 155.684C286.588 163.985 285.043 169.036 279.716 170.839C279.971 143.833 232.243 152.661 235.996 129.584C248.812 112.324 264.194 106.609 276.831 101.009C280.035 86.4794 264.909 86.4029 261.309 98.4452C252.476 104.466 259.177 84.4511 250.216 93.9038C219.849 62.1397 242.698 93.2022 230.584 99.3764C210.033 89.4772 190.579 101.698 170.845 96.8378C163.913 86.1605 147.281 93.0491 138.039 88.2526C133.686 93.7252 131.708 88.2143 130.023 86.9387C117.717 85.6375 106.969 92.322 96.298 92.1179C65.2795 85.191 30.1634 75.4194 2.5914 95.677C27.6743 107.668 17.0412 98.9937 -0.0253906 107.643C6.08896 116.853 19.1984 106.558 21.0749 116.202C14.7818 117.759 7.05909 116.93 5.37413 124.826C3.80406 132.977 19.5048 129.852 18.5474 137.85C58.8843 135.529 -17.2707 163.721 26.1808 153.414C27.8147 146.142 41.205 144.497 44.6387 137.799C45.1238 131.561 50.5999 130.299 54.3017 127.224C41.4348 139.904 90.1453 125.604 106.025 139.777C112.19 140.274 104.876 155.748 113.505 154.728C122.887 152.687 122.504 171.222 133.061 173.544C151.761 180.113 134.363 196.276 140.107 214.556C140.311 238.577 164.628 248.833 171.789 270.494C170.449 275.916 171.1 277.664 175.989 279.883C180.827 282.919 182.256 297.066 187.732 294.885C184.286 287.18 160.658 246.384 176.244 262.33C187.732 279.577 197.153 299.656 206.944 315.513C226.027 330.387 255.731 326.675 264.845 352.813C321.15 380.725 283.801 365.008 284.528 416.265C330.801 490.062 323.946 460.747 308.054 551.268C315.164 554.356 308.922 571.016 307.569 559.599C297.625 577.292 301.837 613.202 335.281 602.065C311.002 591.528 339.187 580.57 332.894 571.909C326.55 568.171 342.11 558.731 339.162 549.38C345.276 552.149 348.033 549.087 348.199 543.678C359.509 540.757 372.682 536.075 361.27 524.377C385.472 531.84 387.4 498.902 401.237 485.712C424.737 482.676 424.724 460.785 428.426 442.378C445.569 426.508 442.633 407.628 418.176 403.903V403.878Z" fill="#0F0B47"/>
<path d="M455.424 10.6526C481.311 -4.62992 404.314 0.944742 385.626 2.47554C400.638 19.4164 378.095 1.0468 375.44 7.18275C364.347 6.39184 312.599 13.931 330.635 19.6843C328.542 26.8025 322.645 23.5496 318.713 24.8507C279.219 31.6118 348.174 34.5075 311.616 35.0306C317.896 48.1699 339.89 35.7449 350.421 43.7433C356.969 50.5937 364.705 56.8827 360.199 64.3964C366.581 70.6472 383.967 72.6755 363.926 71.1192C367.947 76.0432 377.597 73.5047 375.197 81.6179C349.31 91.2619 399.195 163.133 408.807 111.66C412.649 93.4943 451.557 87.6008 467.87 75.1885C450.765 75.112 457.977 66.7181 469.785 73.8491C470.078 67.8279 467.653 65.5828 464.015 63.9116C450.076 51.8438 474.737 61.4241 476.103 52.3286C478.248 29.3283 465.751 24.0726 499.82 11.7879C477.035 7.71853 467.947 12.8977 455.437 10.6398L455.424 10.6526Z" fill="#0F0B47"/>
<path d="M312.445 69.6281C303.994 63.7217 294.982 59.882 287.885 61.6934C285.306 61.9485 282.754 62.0378 279.205 60.0606C279.001 59.6396 278.809 59.1548 278.643 58.6063C277.022 56.629 275.018 55.6085 273.039 55.3534H273.001C271.38 55.1492 269.772 55.4682 268.38 56.2336C266.3 57.1138 265.113 58.6318 264.755 60.8642C264.168 62.9563 264.334 65.5459 265.687 68.4672C265.623 68.4289 265.585 68.3779 265.521 68.3396C263.325 66.7195 262.726 62.8288 262.202 59.4482C262.572 57.8281 263.249 56.157 264.015 54.4221C262.879 54.3201 261.832 54.2945 260.875 54.3583C260.16 53.3123 259.049 53.274 257.071 55.111C253.675 56.3611 251.99 58.9762 251.556 61.8848C251.237 62.3312 250.931 62.765 250.599 63.2625C250.382 64.3723 250.956 65.3673 251.761 66.2858C252.195 68.2248 253.063 70.049 254.224 71.465C253.777 71.7457 253.165 72.0136 252.297 72.2942C253.28 72.4728 254.39 72.6514 255.577 72.83C256.739 73.7612 258.066 74.3098 259.483 74.2842C261.475 74.1694 263.798 74.1822 266.312 74.3098C276.486 75.7002 288.485 77.5244 296.578 80.6753C302.271 83.2394 306.037 86.5434 305.692 90.5617C305.054 93.6616 301.965 97.3483 295.506 101.775C295.646 101.405 295.774 101.048 295.889 100.729C297.497 96.0216 296.386 95.32 294.587 96.5064C292.455 97.8968 289.353 101.902 288.587 105.079C288.919 105.308 289.251 105.5 289.595 105.691C293.31 107.707 297.714 107.145 301.556 107.86C304.071 108.332 306.33 109.352 307.977 112.031H308.002C310.887 116.126 315.891 118.601 320.052 119.66C322.656 120.744 324.482 120.948 325.184 120.234C327.737 119.991 328.209 118.537 324.086 116.05C323.626 115.373 323.039 114.608 322.324 113.766C323.652 113.919 324.814 113.983 325.835 113.97C332.473 116.93 332.6 115.361 330.673 112.108C331.336 110.322 329.371 107.273 324.724 103.114C324.099 102.056 323.563 101.035 323.192 100.091C326.575 100.384 329.6 100.384 332.09 100.116C337.438 102.502 339.097 101.303 338.204 98.1392C340.527 96.1874 339.251 92.9472 332.485 88.5845C330.06 85.5101 327.035 82.1551 323.626 78.9022C324.482 74.5266 318.533 71.8987 312.445 69.6536V69.6281Z" fill="#0F0B47"/>
<path d="M727.02 440.285C716.961 452.812 706.098 456.448 707.656 472.84C707.03 481.923 707.656 486.962 709.06 489.067C711.408 492.638 715.914 487.753 720.038 479.767C723.203 473.644 726.152 465.696 727.722 458.349C729.33 450.822 729.509 443.934 727.02 440.285Z" fill="#0F0B47"/>
<path d="M960.923 375.176C957.4 367.075 944.993 372.701 937.066 381.784C930.901 388.838 927.441 397.972 932.969 404.363C939.249 403.023 947.712 409.593 951.873 407.233C953.035 406.57 953.865 405.217 954.222 402.794C957.196 399.158 958.051 395.535 958.268 392.002C958.268 391.963 958.268 391.925 958.268 391.887C958.268 391.849 958.268 391.81 958.268 391.772C958.536 386.797 957.592 381.988 959.494 377.612C959.851 376.783 960.311 375.966 960.911 375.176H960.923Z" fill="#0F0B47"/>
<path d="M1027.1 33.2476C1027.1 33.2476 1027.2 33.2731 1027.25 33.2859C1035.3 35.429 1049.43 36.4495 1050.43 30.8749C1042.57 27.6602 1030.79 26.6779 1022.87 31.6913C1023.61 32.1123 1024.68 32.5205 1025.96 32.9159C1026.32 33.0308 1026.7 33.1328 1027.1 33.2476Z" fill="#0F0B47"/>
<path d="M1000.76 242.39C1000.94 243.321 1001.13 244.253 1001.32 245.209C1002.17 244.444 1002.88 243.64 1003.47 242.824C1003.98 242.135 1004.39 241.433 1004.72 240.757C1004.75 240.694 1004.78 240.643 1004.81 240.579C1004.96 240.247 1005.09 239.915 1005.19 239.584C1005.2 239.533 1005.24 239.482 1005.26 239.418C1005.37 239.048 1005.46 238.691 1005.52 238.346V238.308C1005.58 238.091 1005.59 237.887 1005.6 237.67C1005.6 237.53 1005.64 237.39 1005.64 237.249C1005.64 237.185 1005.64 237.122 1005.64 237.058C1005.61 234.124 1003.42 232.21 998.95 233.422C999.639 236.867 1000.19 239.609 1000.74 242.39H1000.76Z" fill="#0F0B47"/>
<path d="M967.115 305.957C967.396 307.016 967.932 308.088 968.723 309.121C968.787 309.198 968.826 309.274 968.889 309.351C969.859 306.442 970.702 303.904 971.506 301.493C971.991 300.051 972.451 298.648 972.923 297.257C971.608 296.9 970.293 297.334 969.208 298.265C969.17 298.291 969.132 298.316 969.094 298.354C969.03 298.418 968.979 298.482 968.915 298.546C967.485 299.962 966.579 302.296 966.898 304.809C966.936 305.077 967 305.345 967.051 305.613C967.077 305.728 967.089 305.83 967.115 305.932V305.957Z" fill="#0F0B47"/>
<path d="M1145.5 548.908C1137.89 555.529 1130.82 561.665 1123.5 568.031C1125.44 568.949 1127.02 569.689 1128.35 570.237C1129.24 570.595 1130.02 570.875 1130.71 571.041C1131.05 571.13 1131.38 571.194 1131.69 571.232C1134.81 571.628 1136.25 569.523 1139.75 564.038C1139.92 563.783 1140.14 563.527 1140.36 563.26C1141.94 561.397 1144.39 559.394 1146.38 557.455C1147.7 556.18 1148.81 554.929 1149.33 553.756C1150.19 551.842 1149.47 550.133 1145.49 548.896L1145.5 548.908Z" fill="#0F0B47"/>
<path d="M1161.75 537.185C1161.03 536.815 1160.32 536.497 1159.67 536.254C1155.56 534.711 1152.84 535.489 1151.53 537.657C1151.5 537.708 1151.46 537.747 1151.44 537.798C1151.41 537.849 1151.39 537.912 1151.36 537.964C1149.97 540.642 1150.48 545.171 1152.93 550.057C1153.29 550.771 1153.69 551.498 1154.12 552.213C1157.63 547.569 1161.05 543.041 1164.36 538.678C1163.49 538.129 1162.67 537.657 1161.89 537.249C1161.84 537.224 1161.8 537.211 1161.75 537.185Z" fill="#0F0B47"/>
<path d="M1190.14 73.9897C1176.59 64.065 1148.13 50.7343 1137.31 63.7205C1134.95 64.0012 1131.53 64.2436 1132.27 59.7405C1109.07 57.5463 1085.34 56.6023 1063.36 47.2772C1042.57 42.621 1023.13 51.0914 1002.51 53.6938C995.504 53.1835 998.554 46.5246 996.601 42.3659C989.44 42.5572 982.471 37.1484 974.914 43.7181C956.252 39.2278 897.01 46.1419 944.751 32.9642C941.636 22.8099 930.365 25.6547 921.608 25.0168C915.826 22.1593 910.03 18.5875 903.827 23.7412C876.765 33.5638 853.099 32.8494 831.195 42.8634C849.18 58.9496 801.785 34.8267 808.997 58.4393C812.15 66.1443 819.834 58.5158 823.791 67.2286C808.575 57.2529 812.826 78.7351 798.67 75.0102C815.954 67.2286 802.78 26.369 787.016 51.8313C783.02 57.5463 789.684 60.9268 793.053 66.106C782.88 63.8736 745.364 48.9356 765.124 63.0444C751.032 70.5198 733.097 58.7582 721.187 71.5021C717.792 74.4744 714.997 74.4489 712.367 70.4561C723.83 63.9247 701.862 61.2075 708.78 75.6225C702.155 73.7345 693.935 77.5743 693.718 83.6847C688.484 82.5749 678.259 80.4318 688.127 86.4402C678.566 89.6676 668.29 69.8182 676.306 74.6658C733.186 80.7379 658.831 50.7343 646.309 54.8164C633.621 52.4692 620.294 61.8453 607.542 64.0522C613.58 77.6636 582.536 87.9072 575.094 98.9672C573.371 106.876 581.311 122.618 590.68 112.183C603.598 108.203 600.011 143.794 614.92 119.046C625.043 107.501 619.873 107.948 618.431 96.0077C625.821 90.3437 633.697 72.8543 644.624 81.1206C625.821 90.3692 625.873 114.084 650.458 104.338C675.617 108.126 630.991 104.593 640.552 114.467C642.786 127.057 627.723 109.134 629.651 129.889C617.103 134.533 583.889 141.115 594.854 117.987C579.817 120.322 590.757 130.323 588.306 134.788C575.834 138.168 569.912 145.236 562.176 154.267C520.014 168.886 565.342 158.975 552.334 185.572C520.333 172.331 517.55 226.61 547.867 218.268C558.653 218.778 564.512 185.508 574.252 186.07C582.306 191.223 588.229 175.877 593.782 184.679C599.475 194.132 615.176 198.571 612.38 211.443C618.303 211.519 612.304 197.551 621.086 201.964C616.439 194.387 593.782 184.373 603.764 175.316C620.741 185.432 626.83 201.952 634.77 218.37C644.267 212.642 639.135 207.042 634.055 200.166C658.882 196.16 639.352 203.036 652.449 216.52C657.695 222.987 673.141 218.408 681.591 219.632C678.642 233.142 677.723 244.342 662.546 248.769C671.175 251.397 672.643 254.547 668.954 260.951C690.858 251.652 697.317 328.102 710.976 332.924C737.143 314.657 775.91 301.632 750.036 269.205C744.802 272.802 743.079 282 733.888 277.509C735.841 270.111 717.511 262.329 724.315 250.274C734.042 253.323 736.939 272.317 750.355 265.531C765.788 281.796 785.19 263.758 794.815 286.35C791.471 289.22 794.853 292.435 797.355 293.481C812.405 292.907 808.499 338.065 820.868 356.932C833.033 343.308 828.974 333.001 832.382 319.122C851.133 293.226 876.714 268.172 877.914 317.846C902.933 305.791 884.947 347.875 897.393 362.392C897.253 373.389 914.409 401.083 910.018 377.113C906.979 360.351 888.675 348.309 900.214 329.582C910.694 343.5 916.962 356.754 929.318 337.07C930.492 330.246 927.493 322.336 935.42 317.183C919.961 321.124 912.073 302.092 923.918 292.983C941.904 292.562 963.911 281.617 970.408 258.374C971.531 256.257 977.658 251.486 970.076 248.654C957.094 202.271 991.023 223.179 959.596 210.409C958.052 203.24 968.378 201.123 973.459 197.283C967.178 210.282 975.399 204.49 984.232 203.138C982.547 210.295 981.092 212.629 987.819 213.815C986.3 223.931 986.338 236.688 997.278 224.85C984.628 171.336 1035.05 202.092 1037.46 140.439C1037.47 130.183 1028.82 137.071 1023.33 134.584C1016.27 118.038 1054.66 104.861 1070.36 108.484C1085.53 120.883 1086.34 89.2849 1103.4 100.192C1141.69 88.915 1066.4 118.868 1090.68 151.193C1118.19 126.05 1104.95 106.022 1121.15 105.639C1138.92 106.915 1148.72 93.2395 1168.59 94.9616C1160.2 86.4019 1169.79 74.9464 1178.42 80.4318C1193.41 95.5229 1216.13 68.887 1190.12 73.9897H1190.14Z" fill="#0F0B47"/>
<path d="M976.202 361.704C975.437 362.163 974.849 362.584 974.543 362.954C973.892 363.719 974.505 364.229 977.402 364.242C984.053 376.756 991.98 363.451 985.955 356.729C983.989 357.966 978.972 360.058 976.215 361.716L976.202 361.704Z" fill="#0F0B47"/>
<path d="M174.458 81.5036C178.492 83.3788 182.398 84.7693 187.248 82.5879C188.461 82.2435 189.635 81.9756 190.759 81.7715C201.788 79.7432 208.732 83.2895 215.203 76.3882C208.885 71.3876 205.26 68.4663 203.396 65.9022C203.332 65.8129 203.281 65.7236 203.217 65.6343C203.153 65.545 203.09 65.443 203.026 65.3537C201.06 62.2921 201.596 59.5621 202.949 54.1533C202.63 54.2426 202.324 54.3319 202.017 54.4212C194.627 56.5133 189.559 57.1639 193.197 65.4302C187.682 61.4501 179.015 58.0824 171.318 58.1079C165.663 58.1206 160.544 59.9704 157.57 64.7541C157.545 64.7796 157.532 64.8179 157.506 64.8434C157.481 64.8817 157.468 64.9199 157.443 64.9582C157.238 65.2899 157.047 65.6343 156.868 66.0043C159.115 66.6166 161.451 66.9865 162.408 67.5733H162.434C163.34 68.1601 162.88 68.9511 159.689 70.367C159.664 70.367 159.638 70.3926 159.613 70.4053C159.613 70.4053 159.702 70.4436 159.753 70.4563C165.995 72.9056 170.246 73.199 172.173 73.148C172.531 73.148 172.811 73.1225 173.003 73.097C171.956 73.3138 168.574 74.2451 162.549 77.5363C167.118 77.7659 170.833 79.8452 174.458 81.5291V81.5036Z" fill="#0F0B47"/>
<path d="M1003.2 396.02C1003.1 395.854 1003.16 395.969 1003.42 396.467L1003.46 396.441C1003.85 397.105 1004.63 398.367 1005.69 399.873C1007.76 402.871 1010.92 406.863 1014.46 409.16C1016.39 410.423 1018.42 411.162 1020.41 410.946C1020.43 410.946 1020.46 410.946 1020.48 410.946C1023.15 411.685 1024.89 412.68 1026.05 413.829C1028.13 415.87 1028.37 418.383 1028.78 420.743C1029.06 422.363 1029.43 423.906 1030.52 425.169C1031.47 426.279 1033.01 427.172 1035.49 427.721C1036.12 427.861 1036.77 427.976 1037.52 428.078C1038.79 428.46 1040.1 428.971 1041.35 428.971C1042.85 428.971 1044.24 428.282 1045.36 425.807C1050.28 419.888 1054.12 424.646 1058.8 428.932C1061.96 431.815 1065.47 434.469 1069.93 433.55C1070.01 433.538 1070.09 433.525 1070.18 433.512C1057.79 422.375 1040.17 387.078 1017.41 407.029C1015.19 403.789 1014.31 400.255 1013.08 397.793C1012.49 396.62 1011.82 395.689 1010.88 395.166C1009.37 394.324 1007.16 394.54 1003.48 396.467C1003.28 396.122 1003.19 395.969 1003.21 396.046L1003.2 396.02Z" fill="#0F0B47"/>
<path d="M538.23 124.227C538.817 125.617 539.761 126.931 540.898 128.194C543.119 130.682 546.042 133.029 548.288 135.504C536.877 142.328 551.199 147.291 540.336 153.146C540.668 153.133 540.974 153.108 541.293 153.095C550.178 152.674 555.96 151.539 559.215 149.625C559.394 149.523 559.534 149.408 559.7 149.306C559.841 149.204 560.007 149.115 560.147 149.013C563.491 146.487 563.21 142.8 560.453 137.864C560.402 137.762 560.351 137.672 560.3 137.57C560.3 137.545 560.275 137.532 560.262 137.506C558.079 133.705 554.467 129.176 549.935 123.882C551.441 121.969 551.914 120.017 551.697 118.269C551.441 116.254 550.254 114.544 548.633 113.549C546.055 111.955 542.378 112.159 539.647 115.909C539.391 116.254 539.174 116.585 538.97 116.93C537.323 119.647 537.311 122.033 538.242 124.227H538.23Z" fill="#0F0B47"/>
<path d="M897.979 381.796C892.797 377.918 887.512 374.333 883.312 371.208C883.453 371.948 883.657 372.726 883.912 373.542C887.844 386.031 905.051 407.067 915.722 414.747H915.735C923.343 403.278 911.012 391.58 897.979 381.809V381.796Z" fill="#0F0B47"/>
<path d="M741.049 53.7713C743.933 54.6005 748.108 55.0597 753.801 55.0342C742.593 46.3469 751.299 39.5731 763.489 34.8149L763.578 34.7766C763.795 34.6873 764.025 34.6108 764.255 34.5215C764.383 34.4705 764.51 34.4194 764.651 34.3684C764.817 34.3046 764.995 34.2409 765.161 34.1771C765.353 34.1133 765.531 34.0367 765.723 33.973C765.812 33.9347 765.914 33.9092 766.017 33.8709C767.37 33.3862 768.735 32.9269 770.127 32.4932L770.229 32.4677C770.561 32.3656 770.905 32.2636 771.237 32.1488C771.288 32.136 771.339 32.1232 771.391 32.1105C771.71 32.0084 772.029 31.9191 772.361 31.8171C772.641 31.7405 772.922 31.6512 773.19 31.5747C773.28 31.5492 773.369 31.5237 773.458 31.4982C780.849 29.3678 787.985 27.9135 791.776 27.1354C786.989 23.0405 775.654 24.6606 764.421 28.6789C759.417 30.4649 754.426 32.7356 750.048 35.1976C737.589 42.1755 730.071 50.6204 741.074 53.7713H741.049Z" fill="#0F0B47"/>
<path d="M488.307 99.5037C484.707 99.0317 479.295 100.001 471.699 103.356C470.946 101.085 469.67 99.9884 468.304 99.644C466.964 99.3123 465.534 99.6823 464.385 100.358C462.317 101.583 461.168 103.79 463.147 104.708C464.117 105.168 465.828 105.295 468.572 104.861C466.606 105.831 465.33 106.533 464.564 107.043H464.551L464.526 107.081C460.505 109.811 471.355 107.107 467.691 112.771C473.831 116.419 479.358 116.929 483.749 115.794C483.826 115.768 483.903 115.743 483.979 115.73C484.196 115.666 484.401 115.615 484.605 115.552C489.813 113.893 493.234 109.888 493.91 106.277C494.523 103.025 492.902 100.103 488.307 99.5037Z" fill="#0F0B47"/>
<path d="M1027.74 214.391C1027.52 214.646 1027.29 214.901 1027.07 215.143C1019.87 222.925 1011.43 224.035 1008.66 225.323C1007.94 225.655 1007.61 225.999 1007.78 226.484C1008.17 227.568 1011.17 229.342 1018.17 233.194C1033.45 228.487 1047.23 209.811 1036.31 196.697C1036.13 197.412 1035.96 198.1 1035.75 198.777C1033.79 205.652 1030.96 210.628 1027.85 214.263C1027.81 214.301 1027.77 214.34 1027.74 214.391Z" fill="#0F0B47"/>
<path d="M148.748 67.114C149.169 66.9226 149.603 66.7058 150.025 66.4762C155.347 63.6187 160.747 58.1078 166.415 55.2886C160.632 51.4233 151.033 49.3184 144.127 51.755C143.923 51.8315 143.719 51.9208 143.514 51.9973C143.361 52.0611 143.208 52.1122 143.055 52.1759C143.017 52.1887 142.978 52.2142 142.927 52.2397C138.83 54.1022 135.932 57.8016 135.83 64.0269C140.145 68.9892 144.421 69.053 148.723 67.1012L148.748 67.114Z" fill="#0F0B47"/>
<path d="M236.188 24.1756C242.583 30.2478 255.526 34.6999 262.994 22.0453C273.321 25.1451 265.33 27.9771 252.246 37.5191C255.271 40.8486 295.914 43.1448 285.485 34.3682C297.714 23.8312 361.768 4.77276 326.256 3.44606C298.914 2.9358 272.746 5.25751 245.532 8.91867C256.318 21.8922 298.914 13.4728 265.738 19.3026C263.913 21.535 261.334 21.7008 258.488 20.9737C250.497 18.0907 240.413 10.7684 234.247 14.9015C233.507 15.246 232.997 15.718 232.716 16.2793C231.631 17.5294 230.724 19.2771 230.048 21.6881C232.256 22.3004 234.286 23.1934 236.188 24.1756Z" fill="#0F0B47"/>
<path d="M161.54 47.597C162.676 47.597 164.884 47.6736 167.693 47.7756C175.122 48.0563 186.661 48.4517 193.388 47.5715C200.613 46.6275 202.298 44.2165 187.376 38.5908C187.555 41.6397 186.98 43.1705 185.895 43.7828C184.427 44.612 182.028 43.7573 179.245 42.6602C173.105 40.2492 165.165 36.6773 161.54 47.5843V47.597Z" fill="#0F0B47"/>
<path d="M874.403 12.8619C874.493 12.9002 874.582 12.9257 874.684 12.9639L874.735 12.9895C878.143 14.2524 882.254 15.4387 886.109 15.6939C886.172 15.6939 886.236 15.6939 886.3 15.6939C886.619 15.7194 886.951 15.7321 887.27 15.7321C887.385 15.7321 887.487 15.7321 887.602 15.7321C887.87 15.7321 888.138 15.7321 888.406 15.7321C888.547 15.7321 888.687 15.7066 888.827 15.7066C889.057 15.6939 889.287 15.6811 889.517 15.6556H889.555C893.168 15.2729 896.218 13.7038 897.737 10.0809C897.418 10.0554 897.099 10.0299 896.793 9.97888C896.729 9.97888 896.678 9.95337 896.614 9.95337C896.359 9.9151 896.116 9.87683 895.874 9.8258C893.295 9.31554 890.883 8.21846 888.483 7.1469C884.87 5.52681 881.309 3.97049 877.314 4.60833C874.467 5.05481 871.404 6.59837 867.957 10.0172C869.119 10.6167 871.493 11.7521 874.442 12.8619H874.403Z" fill="#0F0B47"/>
<path d="M962.864 398.125C962.813 398.29 962.775 398.469 962.737 398.635C962.711 398.75 962.673 398.864 962.647 398.979C961.805 402.845 962.775 408.024 967.039 414.849C967.026 413.05 967.039 411.557 967.115 410.345C967.319 406.633 967.919 405.536 969.004 406.136C970.396 406.914 972.591 410.524 975.77 415.014C976.536 413.33 976.293 411.634 975.655 409.937C973.983 405.434 969.617 400.931 974.149 396.747C974.8 396.147 975.616 395.56 976.663 394.986C974.417 395.726 972.119 396.887 970.319 397.155C968.928 397.372 967.83 397.04 967.345 395.548C967.09 394.782 967 393.698 967.09 392.244C967.153 392.193 967.217 392.154 967.281 392.103C977.123 390.955 980.288 389.654 979.982 388.991C979.842 388.646 978.757 388.468 977.199 388.583C974.531 388.761 970.472 389.743 967.281 392.103C967.217 392.103 967.153 392.116 967.09 392.129C967.09 392.167 967.09 392.205 967.09 392.244C965.2 393.685 963.63 395.611 962.864 398.137V398.125Z" fill="#0F0B47"/>
<path d="M539.531 131.421C539.135 131.064 538.739 130.758 538.343 130.477C538.165 130.35 537.999 130.222 537.82 130.12C534.68 128.156 531.91 128.845 529.702 130.72C526.242 133.679 524.187 139.586 524.238 142.941C526.357 153.809 541.93 139.229 539.518 131.409L539.531 131.421Z" fill="#0F0B47"/>
<path d="M228.159 66.1203C230.061 65.3039 229.959 63.0077 225.619 58.1985C225.797 57.8795 225.9 57.5734 225.976 57.28C226.921 53.8229 221.585 52.5345 217.653 53.2106C217.398 53.2489 217.156 53.2999 216.926 53.3637C213.607 54.1929 211.807 56.5528 217.041 60.2778C215.126 59.9971 213.671 59.8568 212.611 59.8441C212.611 59.8441 212.586 59.8441 212.573 59.8441C212.305 59.8441 212.075 59.8441 211.858 59.8568C208.578 60.0227 210.607 61.7576 214.284 63.4032C218.7 65.3932 225.466 67.2684 228.172 66.1076L228.159 66.1203Z" fill="#0F0B47"/>
<path d="M918.188 418.433C922.553 421.074 933.186 424.352 940.603 425.526C940.692 425.539 940.769 425.551 940.858 425.564C948.453 426.725 952.461 425.603 942.352 419.135C940.705 419.53 938.905 419.543 937.003 419.365C931.272 418.829 924.494 416.584 917.601 418.063C917.779 418.191 917.971 418.306 918.175 418.433H918.188Z" fill="#0F0B47"/>
<path d="M1046.08 158.032C1046.56 157.776 1047.11 157.547 1047.74 157.33C1046.72 144.816 1045.34 138.782 1043.98 136.907C1039.85 131.128 1035.99 164.41 1043.29 169.819C1043.77 170.176 1044.3 170.406 1044.88 170.508C1042.43 162.956 1042.67 159.818 1046.08 158.032Z" fill="#0F0B47"/>
<path d="M1040.28 179.935C1036.81 181.491 1034.68 186.9 1033.66 194.248C1035.16 193.061 1036.61 192.424 1038.06 192.028C1039.61 191.594 1041.16 191.429 1042.78 191.135C1044.6 190.816 1046.49 190.357 1048.55 189.222C1049.87 188.507 1051.25 187.512 1052.73 186.122C1047.79 180.585 1043.89 178.799 1040.91 179.705C1040.74 179.756 1040.58 179.82 1040.41 179.884C1040.37 179.897 1040.32 179.909 1040.28 179.935Z" fill="#0F0B47"/>
<path d="M970.957 345.325C970.216 342.812 970.204 341.549 970.625 341C972.169 339.087 979.407 346.524 979.573 340.554C976.892 340.222 975.143 339.584 974.02 338.717C972.335 337.416 972.08 335.617 972.31 333.563C972.616 330.718 973.841 327.414 973.497 324.34C962.302 318.37 966.808 340.324 970.969 345.325H970.957Z" fill="#0F0B47"/>
<path d="M291.675 313.318C293.705 314.389 295.722 315.384 297.828 316.035C300.381 316.826 303.087 317.106 306.138 316.418C302.411 314.045 299.028 312.029 295.952 310.384C282.638 303.24 275.336 302.793 273.09 307.858C280.851 307.08 286.34 310.486 291.688 313.318H291.675Z" fill="#0F0B47"/>
<path d="M225.069 41.2824C223.601 40.1853 222.12 39.7005 220.614 39.5347C220.116 39.2923 219.58 39.0499 219.006 38.7948C218.75 39.0499 218.495 39.2796 218.24 39.4837C215.891 39.6112 213.427 40.1215 210.747 40.0705C208.577 39.4837 206.228 38.629 203.649 38.208C205.015 42.5963 209.266 45.0711 213.657 46.1171C218.393 48.1327 223.256 48.5537 224.737 45.2752C225.477 44.6629 225.707 43.872 225.196 42.9535C225.196 42.4432 225.171 41.8947 225.082 41.2824H225.069Z" fill="#0F0B47"/>
<path d="M232.281 58.7975C235.421 67.9185 243.642 57.9683 248.888 55.9017C246.935 51.9089 238.089 51.0414 234.158 54.6643C234.107 54.7154 234.056 54.7664 234.005 54.8174C233.902 54.9195 233.8 55.0215 233.711 55.1236C232.868 56.0803 232.332 57.305 232.281 58.7975Z" fill="#0F0B47"/>
<path d="M260.658 116.088H281.886C270.721 110.322 263.645 110.322 260.658 116.088Z" fill="#0F0B47"/>
<path d="M166.797 32.3652C158.794 35.1845 151.531 37.7358 142.659 40.8612C153.624 43.8717 165.406 39.8151 166.797 32.3652Z" fill="#0F0B47"/>
<path d="M308.053 323.396C308.564 323.511 309.483 323.626 310.657 323.741C315.291 324.187 323.996 324.57 327.838 324.085C325.847 322.171 323.358 320.462 320.933 319.199C320.422 318.931 319.912 318.689 319.401 318.459C319.375 318.459 319.35 318.434 319.324 318.421C316.72 317.273 314.333 316.763 312.865 317.196C311.193 317.694 310.721 319.442 312.482 322.937C307.849 322.937 306.942 323.154 308.079 323.396H308.053Z" fill="#0F0B47"/>
<path d="M649.168 9.28906H622.821C631.552 10.3096 640.13 17.3258 649.168 9.28906Z" fill="#0F0B47"/>
<path d="M206.049 28.8051C207.287 29.2771 208.628 29.5705 210.019 29.8257C212.572 30.2849 215.304 30.5911 217.959 31.5478C218.865 31.8795 219.771 32.2877 220.639 32.798C220.039 31.4713 219.171 30.2594 218.125 29.1878C217.423 28.4735 216.631 27.8101 215.789 27.2233C214.104 26.0497 212.189 25.1312 210.274 24.5444C209.266 24.2382 208.258 24.0214 207.275 23.9066C204.964 23.6132 202.781 23.8555 201.135 24.7358C201.211 24.8761 201.313 24.9781 201.39 25.1057C202.628 26.9937 204.224 28.1035 206.036 28.8051H206.049Z" fill="#0F0B47"/>
<path d="M917.587 18.0907C907.439 11.049 901.159 12.0313 896.921 19.9149C903.239 19.3536 909.801 18.7795 917.587 18.0907Z" fill="#0F0B47"/>
<path d="M1060.54 551.665C1060.54 551.665 1060.52 551.627 1060.5 551.614C1059.12 549.713 1055.17 548.642 1050.06 548.629C1051.86 552.507 1053.44 555.9 1055.28 559.842C1055.61 559.625 1055.93 559.408 1056.24 559.204C1056.29 559.166 1056.34 559.128 1056.39 559.089C1056.64 558.911 1056.88 558.745 1057.11 558.579C1057.61 558.209 1058.05 557.839 1058.45 557.482C1058.49 557.444 1058.52 557.418 1058.56 557.38C1061.05 555.109 1061.55 553.209 1060.62 551.767C1060.59 551.729 1060.58 551.703 1060.55 551.665H1060.54Z" fill="#0F0B47"/>
<path d="M758.78 0.703125C753.33 2.4763 748.377 4.08364 743.016 5.81855C753.585 8.85463 758.091 7.3621 758.78 0.703125Z" fill="#0F0B47"/>
<path d="M978.321 433.411C982.049 430.936 985.763 428.461 991.048 424.953C983.772 425.221 979.993 427.747 978.321 433.411Z" fill="#0F0B47"/>
<path d="M233.89 28.5011C230.469 27.5315 227.469 26.6768 223.129 25.4395C226.601 32.5322 229.192 33.1445 233.89 28.5011Z" fill="#0F0B47"/>
<path d="M1074.81 410.97C1071.35 412.169 1067.57 413.483 1063.82 414.771C1069.22 418.547 1073 417.055 1074.81 410.97Z" fill="#0F0B47"/>
</g>
<g filter="url(#filter0_d_4318_3205)">
<path d="M924.35 76.1582H1014.47V138.414L949.353 138.414L924.35 172.131V138.414V76.1582Z" fill="#D62293"/>
</g>
<path d="M956.886 103.79C954.512 103.79 952.212 104.703 950.679 106.199C951.154 101.964 953.344 99.2262 956.63 99.2262C958.747 99.2262 960.208 99.9929 961.741 101.271L964.297 97.1816C962.252 95.5387 959.733 94.4799 956.63 94.4799C949.657 94.4799 945.093 100.066 945.093 107.879C945.093 115.181 948.452 120.438 955.754 120.438C961.23 120.438 965.356 116.897 965.356 111.749C965.356 106.784 961.522 103.79 956.886 103.79ZM955.462 115.874C952.65 115.874 951.3 114.158 950.825 111.092C951.592 109.303 953.271 108.171 955.316 108.171C957.762 108.171 959.806 109.595 959.806 112.004C959.806 114.012 958.127 115.874 955.462 115.874ZM975.121 107.514C978.809 107.514 981.401 104.703 981.401 101.088C981.401 97.5467 978.918 94.6625 975.121 94.6625C971.361 94.6625 968.878 97.5102 968.878 101.125C968.878 104.703 971.361 107.514 975.121 107.514ZM972.164 120H976.363L993.814 94.9181H989.579L972.164 120ZM975.121 104.374C973.624 104.374 972.456 103.06 972.456 101.088C972.456 99.1166 973.551 97.8388 975.121 97.8388C976.655 97.8388 977.787 99.1531 977.787 101.088C977.787 103.096 976.655 104.374 975.121 104.374ZM990.784 120.402C994.471 120.402 997.027 117.59 997.027 113.976C997.027 110.435 994.581 107.55 990.784 107.55C987.06 107.55 984.504 110.398 984.504 113.976C984.504 117.554 987.06 120.402 990.784 120.402ZM990.784 117.225C989.25 117.225 988.119 115.911 988.119 113.976C988.119 111.968 989.214 110.69 990.784 110.69C992.281 110.69 993.449 112.004 993.449 113.976C993.449 115.947 992.354 117.225 990.784 117.225Z" fill="white"/>
<g filter="url(#filter1_d_4318_3205)">
<path d="M1017.81 165.242H1107.93V227.498L1042.82 227.498L1017.81 261.215V227.498V165.242Z" fill="#D62293"/>
</g>
<path d="M1050.35 192.874C1047.98 192.874 1045.68 193.787 1044.14 195.283C1044.62 191.048 1046.81 188.31 1050.09 188.31C1052.21 188.31 1053.67 189.077 1055.21 190.355L1057.76 186.266C1055.72 184.623 1053.2 183.564 1050.09 183.564C1043.12 183.564 1038.56 189.15 1038.56 196.963C1038.56 204.265 1041.92 209.522 1049.22 209.522C1054.69 209.522 1058.82 205.981 1058.82 200.833C1058.82 195.868 1054.99 192.874 1050.35 192.874ZM1048.93 204.958C1046.11 204.958 1044.76 203.242 1044.29 200.176C1045.06 198.387 1046.74 197.255 1048.78 197.255C1051.23 197.255 1053.27 198.679 1053.27 201.088C1053.27 203.096 1051.59 204.958 1048.93 204.958ZM1068.59 196.598C1072.27 196.598 1074.87 193.787 1074.87 190.172C1074.87 186.631 1072.38 183.746 1068.59 183.746C1064.83 183.746 1062.34 186.594 1062.34 190.209C1062.34 193.787 1064.83 196.598 1068.59 196.598ZM1065.63 209.084H1069.83L1087.28 184.002H1083.04L1065.63 209.084ZM1068.59 193.458C1067.09 193.458 1065.92 192.144 1065.92 190.172C1065.92 188.201 1067.02 186.923 1068.59 186.923C1070.12 186.923 1071.25 188.237 1071.25 190.172C1071.25 192.18 1070.12 193.458 1068.59 193.458ZM1084.25 209.486C1087.94 209.486 1090.49 206.674 1090.49 203.06C1090.49 199.519 1088.05 196.634 1084.25 196.634C1080.52 196.634 1077.97 199.482 1077.97 203.06C1077.97 206.638 1080.52 209.486 1084.25 209.486ZM1084.25 206.309C1082.71 206.309 1081.58 204.995 1081.58 203.06C1081.58 201.052 1082.68 199.774 1084.25 199.774C1085.75 199.774 1086.91 201.088 1086.91 203.06C1086.91 205.031 1085.82 206.309 1084.25 206.309Z" fill="white"/>
<g filter="url(#filter2_d_4318_3205)">
<path d="M817.742 225.118H907.863V287.374L842.745 287.374L817.742 321.091V287.374V225.118Z" fill="#D62293"/>
</g>
<path d="M848.242 270.894C854.229 270.894 858.209 267.498 858.209 262.168C858.209 257.057 854.375 254.209 849.921 254.209C847.876 254.209 846.27 254.866 845.029 255.742L845.175 250.193H856.858V245.337H840.21L839.844 258.882L843.459 260.342C844.81 259.32 846.416 258.699 848.315 258.699C851.053 258.699 852.842 260.16 852.842 262.35C852.842 264.504 851.126 266.184 848.278 266.184C845.868 266.184 843.605 265.016 841.706 263.227L838.53 267.024C840.867 269.36 844.043 270.894 848.242 270.894ZM868.069 257.933C871.756 257.933 874.348 255.122 874.348 251.507C874.348 247.966 871.866 245.081 868.069 245.081C864.308 245.081 861.826 247.929 861.826 251.544C861.826 255.122 864.308 257.933 868.069 257.933ZM865.111 270.419H869.31L886.762 245.337H882.526L865.111 270.419ZM868.069 254.793C866.572 254.793 865.404 253.479 865.404 251.507C865.404 249.536 866.499 248.258 868.069 248.258C869.602 248.258 870.734 249.572 870.734 251.507C870.734 253.515 869.602 254.793 868.069 254.793ZM883.731 270.821C887.419 270.821 889.974 268.009 889.974 264.395C889.974 260.853 887.528 257.969 883.731 257.969C880.007 257.969 877.452 260.817 877.452 264.395C877.452 267.973 880.007 270.821 883.731 270.821ZM883.731 267.644C882.198 267.644 881.066 266.33 881.066 264.395C881.066 262.387 882.161 261.109 883.731 261.109C885.228 261.109 886.396 262.423 886.396 264.395C886.396 266.366 885.301 267.644 883.731 267.644Z" fill="white"/>
<g filter="url(#filter3_d_4318_3205)">
<path d="M361.541 376.269H442.299V430.217H383.785L361.541 460.192V430.217V376.269Z" fill="#D62293"/>
</g>
<path d="M392.714 415.678C397.417 415.678 400.454 413.166 400.454 409.69C400.454 407.032 398.439 405.484 396.249 404.988C398.468 404.345 400.016 402.68 400.016 400.373C400.016 397.189 397.183 394.882 392.685 394.882C389.122 394.882 386.727 396.43 385.062 398.445L387.545 401.074C388.888 399.672 390.378 398.737 392.247 398.737C394.233 398.737 395.635 399.672 395.635 401.132C395.635 402.563 394.321 403.381 392.13 403.381L389.823 403.352V407.032H392.13C394.817 407.003 396.044 407.792 396.044 409.34C396.044 410.771 394.73 411.793 392.539 411.793C390.524 411.793 388.625 410.946 387.194 409.427L384.653 412.289C386.347 414.246 389.122 415.678 392.714 415.678ZM408.492 405.309C411.442 405.309 413.516 403.06 413.516 400.168C413.516 397.335 411.53 395.028 408.492 395.028C405.484 395.028 403.498 397.306 403.498 400.198C403.498 403.06 405.484 405.309 408.492 405.309ZM406.126 415.298H409.485L423.446 395.232H420.058L406.126 415.298ZM408.492 402.797C407.294 402.797 406.36 401.746 406.36 400.168C406.36 398.591 407.236 397.569 408.492 397.569C409.719 397.569 410.624 398.62 410.624 400.168C410.624 401.775 409.719 402.797 408.492 402.797ZM421.022 415.619C423.972 415.619 426.016 413.37 426.016 410.479C426.016 407.645 424.06 405.338 421.022 405.338C418.043 405.338 415.998 407.616 415.998 410.479C415.998 413.341 418.043 415.619 421.022 415.619ZM421.022 413.078C419.795 413.078 418.89 412.027 418.89 410.479C418.89 408.872 419.766 407.85 421.022 407.85C422.22 407.85 423.154 408.901 423.154 410.479C423.154 412.056 422.278 413.078 421.022 413.078Z" fill="white"/>
<g filter="url(#filter4_d_4318_3205)">
<path d="M629.562 303.352H710.32V357.3H651.807L629.562 387.275V357.3V303.352Z" fill="#D62293"/>
</g>
<path d="M656.742 340.818H661.036V320.753H657.589L651.573 324.783L653.325 327.821L656.742 325.689V340.818ZM670.081 330.829C673.031 330.829 675.105 328.58 675.105 325.689C675.105 322.856 673.119 320.548 670.081 320.548C667.073 320.548 665.086 322.827 665.086 325.718C665.086 328.58 667.073 330.829 670.081 330.829ZM667.715 340.818H671.074L685.035 320.753H681.647L667.715 340.818ZM670.081 328.318C668.883 328.318 667.949 327.266 667.949 325.689C667.949 324.112 668.825 323.089 670.081 323.089C671.308 323.089 672.213 324.141 672.213 325.689C672.213 327.295 671.308 328.318 670.081 328.318ZM682.611 341.14C685.561 341.14 687.605 338.891 687.605 335.999C687.605 333.166 685.649 330.859 682.611 330.859C679.632 330.859 677.587 333.137 677.587 335.999C677.587 338.861 679.632 341.14 682.611 341.14ZM682.611 338.599C681.384 338.599 680.479 337.547 680.479 335.999C680.479 334.393 681.355 333.37 682.611 333.37C683.808 333.37 684.743 334.422 684.743 335.999C684.743 337.576 683.867 338.599 682.611 338.599Z" fill="white"/>
<g filter="url(#filter5_d_4318_3205)">
<path d="M917.016 321.501H997.773V375.449H939.26L917.016 405.424V375.449V321.501Z" fill="#D62293"/>
</g>
<path d="M940.819 358.343H945.668L953.787 341.519V338.277H938.862V342.162H948.793L940.819 358.343ZM961.302 348.354C964.252 348.354 966.326 346.105 966.326 343.213C966.326 340.38 964.34 338.073 961.302 338.073C958.294 338.073 956.308 340.351 956.308 343.242C956.308 346.105 958.294 348.354 961.302 348.354ZM958.936 358.343H962.295L976.256 338.277H972.868L958.936 358.343ZM961.302 345.842C960.105 345.842 959.17 344.79 959.17 343.213C959.17 341.636 960.046 340.614 961.302 340.614C962.529 340.614 963.434 341.665 963.434 343.213C963.434 344.82 962.529 345.842 961.302 345.842ZM973.832 358.664C976.782 358.664 978.827 356.415 978.827 353.524C978.827 350.69 976.87 348.383 973.832 348.383C970.853 348.383 968.808 350.661 968.808 353.524C968.808 356.386 970.853 358.664 973.832 358.664ZM973.832 356.123C972.605 356.123 971.7 355.072 971.7 353.524C971.7 351.917 972.576 350.895 973.832 350.895C975.03 350.895 975.964 351.946 975.964 353.524C975.964 355.101 975.088 356.123 973.832 356.123Z" fill="white"/>
<g filter="url(#filter6_d_4318_3205)">
<path d="M582.688 42.5703H728.726V128.611H627.158L582.688 188.608V128.611V42.5703Z" fill="#D62293"/>
</g>
<path d="M622.04 105.321C629.563 105.321 634.424 101.302 634.424 95.7413C634.424 91.4887 631.199 89.0119 627.694 88.2175C631.246 87.1894 633.723 84.5256 633.723 80.8338C633.723 75.74 629.19 72.0482 621.993 72.0482C616.292 72.0482 612.459 74.525 609.796 77.7495L613.768 81.9554C615.918 79.7122 618.301 78.2168 621.292 78.2168C624.47 78.2168 626.713 79.7122 626.713 82.0488C626.713 84.3387 624.61 85.6472 621.105 85.6472L617.413 85.6005V91.4887H621.105C625.404 91.442 627.367 92.7037 627.367 95.1805C627.367 97.4704 625.264 99.106 621.759 99.106C618.535 99.106 615.497 97.7508 613.207 95.3207L609.142 99.9005C611.852 103.032 616.292 105.321 622.04 105.321ZM653.405 105.275C661.864 105.275 667.799 98.405 667.799 88.6381C667.799 78.9178 661.864 72.0482 653.405 72.0482C644.947 72.0482 638.965 78.9178 638.965 88.6381C638.965 98.405 644.947 105.275 653.405 105.275ZM653.405 99.0126C649.106 99.0126 646.069 94.6665 646.069 88.6381C646.069 82.6096 649.106 78.3103 653.405 78.3103C657.705 78.3103 660.742 82.6096 660.742 88.6381C660.742 94.6665 657.705 99.0126 653.405 99.0126ZM680.598 88.7315C685.318 88.7315 688.636 85.1332 688.636 80.5067C688.636 75.9737 685.459 72.2819 680.598 72.2819C675.785 72.2819 672.607 75.927 672.607 80.5534C672.607 85.1332 675.785 88.7315 680.598 88.7315ZM676.813 104.714H682.187L704.525 72.609H699.104L676.813 104.714ZM680.598 84.7126C678.682 84.7126 677.187 83.0302 677.187 80.5067C677.187 77.9832 678.589 76.3475 680.598 76.3475C682.561 76.3475 684.01 78.0299 684.01 80.5067C684.01 83.077 682.561 84.7126 680.598 84.7126ZM700.646 105.228C705.366 105.228 708.638 101.63 708.638 97.0031C708.638 92.4701 705.507 88.7783 700.646 88.7783C695.88 88.7783 692.609 92.4234 692.609 97.0031C692.609 101.583 695.88 105.228 700.646 105.228ZM700.646 101.162C698.684 101.162 697.235 99.4799 697.235 97.0031C697.235 94.4328 698.637 92.7972 700.646 92.7972C702.562 92.7972 704.058 94.4796 704.058 97.0031C704.058 99.5266 702.656 101.162 700.646 101.162Z" fill="white"/>
<g filter="url(#filter7_d_4318_3205)">
<path d="M220.517 46.9512H389.92V150.812H279.003L220.517 229.498V150.812V46.9512Z" fill="#D62293"/>
</g>
<path d="M262.748 122.635H271.765V114.048H277.346V106.442H271.765V80.5584H260.847L241.281 107.055L242.139 114.048H262.748V122.635ZM250.788 106.442L262.748 90.1268V106.442H250.788ZM281.849 122.635H313.682V114.477H295.834L303.501 108.528C310.861 103.191 313.314 98.8365 313.314 93.1936C313.314 85.2813 306.813 79.7611 297.858 79.7611C291.049 79.7611 285.713 82.7052 281.542 87.9801L287.308 93.5616C290.375 90.0655 293.503 87.9801 297.612 87.9801C301.047 87.9801 303.991 90.0655 303.991 93.5616C303.991 96.5057 302.396 99.2658 297.367 103.253L281.849 115.274V122.635ZM330.692 101.658C336.887 101.658 341.242 96.9351 341.242 90.8629C341.242 84.9133 337.071 80.0678 330.692 80.0678C324.375 80.0678 320.204 84.8519 320.204 90.9242C320.204 96.9351 324.375 101.658 330.692 101.658ZM325.724 122.635H332.778L362.096 80.4971H354.981L325.724 122.635ZM330.692 96.3831C328.178 96.3831 326.215 94.175 326.215 90.8629C326.215 87.5507 328.055 85.404 330.692 85.404C333.268 85.404 335.17 87.6121 335.17 90.8629C335.17 94.2363 333.268 96.3831 330.692 96.3831ZM357.005 123.309C363.2 123.309 367.494 118.587 367.494 112.514C367.494 106.565 363.384 101.719 357.005 101.719C350.749 101.719 346.456 106.503 346.456 112.514C346.456 118.525 350.749 123.309 357.005 123.309ZM357.005 117.973C354.429 117.973 352.528 115.765 352.528 112.514C352.528 109.141 354.368 106.994 357.005 106.994C359.52 106.994 361.483 109.202 361.483 112.514C361.483 115.826 359.643 117.973 357.005 117.973Z" fill="white"/>
<path d="M560.717 224.269V222.073H548.917V238.125H560.717V235.929H551.3V231.045H559.806V228.849H551.3V224.269H560.717ZM572.028 226.045V233.545C572.028 235.134 570.556 236.396 568.71 236.396C567.074 236.396 565.93 235.158 565.93 233.335V226.045H563.663V233.732C563.663 236.513 565.509 238.405 568.173 238.405C569.832 238.405 571.304 237.588 572.028 236.396V238.125H574.341V226.045H572.028ZM580.472 228.405V226.045H578.159V238.125H580.472V231.699C580.472 229.363 582.294 227.774 584.958 227.774V225.764C582.855 225.764 581.22 226.792 580.472 228.405ZM593.048 238.405C596.53 238.405 599.404 235.555 599.404 232.073C599.404 228.592 596.53 225.764 593.048 225.764C589.567 225.764 586.693 228.592 586.693 232.073C586.693 235.555 589.567 238.405 593.048 238.405ZM593.048 236.396C590.828 236.396 589.006 234.457 589.006 232.073C589.006 229.69 590.828 227.774 593.048 227.774C595.268 227.774 597.09 229.69 597.09 232.073C597.09 234.457 595.268 236.396 593.048 236.396ZM608.798 225.764C606.953 225.764 605.457 226.652 604.522 228.101V226.045H602.209V242.144H604.522V236.045C605.457 237.517 606.953 238.405 608.798 238.405C612 238.405 614.36 235.788 614.36 232.073C614.36 228.381 612 225.764 608.798 225.764ZM608.261 236.396C606.065 236.396 604.522 234.597 604.522 232.073C604.522 229.55 606.065 227.774 608.261 227.774C610.457 227.774 612.023 229.55 612.023 232.073C612.023 234.597 610.457 236.396 608.261 236.396ZM622.527 236.489C620.377 236.489 618.882 234.947 618.601 232.821H628.251C628.251 228.522 626.102 225.764 622.41 225.764C619.069 225.764 616.335 228.428 616.335 232.05C616.335 235.765 619.232 238.405 622.573 238.405C624.279 238.405 626.405 237.681 627.457 236.536L626.102 235.111C625.354 235.905 623.835 236.489 622.527 236.489ZM622.457 227.68C624.56 227.68 625.775 229.176 626.008 231.115H618.625C618.975 229.036 620.517 227.68 622.457 227.68Z" fill="#0F0B47"/>
<path d="M609.827 430.895H612.444L605.551 414.842H602.934L596.041 430.895H598.658L600.084 427.553H608.402L609.827 430.895ZM600.971 425.497L604.243 417.88L607.514 425.497H600.971ZM617.677 417.482C617.677 416.641 618.238 416.034 618.915 416.034C619.43 416.034 619.897 416.221 620.154 416.478L620.995 414.936C620.341 414.398 619.453 414.071 618.588 414.071C616.719 414.071 615.411 415.426 615.411 417.366V418.814H613.588V420.777H615.411V430.895H617.677V420.777H620.528V418.814H617.677V417.482ZM625.037 421.174V418.814H622.724V430.895H625.037V424.469C625.037 422.132 626.86 420.543 629.523 420.543V418.534C627.42 418.534 625.785 419.562 625.037 421.174ZM633.407 416.805C634.178 416.805 634.786 416.151 634.786 415.403C634.786 414.679 634.178 414.024 633.407 414.024C632.636 414.024 632.005 414.679 632.005 415.403C632.005 416.151 632.636 416.805 633.407 416.805ZM632.239 430.895H634.552V418.814H632.239V430.895ZM643.706 431.175C645.505 431.175 647.07 430.427 648.239 429.236L646.673 427.81C645.902 428.651 644.827 429.165 643.706 429.165C641.509 429.165 639.663 427.203 639.663 424.843C639.663 422.506 641.509 420.543 643.706 420.543C644.804 420.543 645.855 421.034 646.603 421.852L648.169 420.403C647 419.258 645.458 418.534 643.706 418.534C640.271 418.534 637.327 421.408 637.327 424.843C637.327 428.278 640.248 431.175 643.706 431.175ZM655.233 418.534C653.901 418.534 652.383 418.884 650.653 419.749L651.518 421.455C652.569 420.917 653.714 420.45 654.906 420.45C657.313 420.45 658.014 422.062 658.014 423.581V423.955C656.845 423.558 655.56 423.301 654.369 423.301C651.705 423.301 649.532 424.913 649.532 427.32C649.532 429.679 651.448 431.175 653.995 431.175C655.49 431.175 657.126 430.497 658.014 429.259V430.895H660.28V423.581C660.28 420.59 658.481 418.534 655.233 418.534ZM654.462 429.352C652.92 429.352 651.752 428.558 651.752 427.249C651.752 425.941 653.107 425.03 654.719 425.03C655.911 425.03 657.009 425.193 658.014 425.497V427.109C657.617 428.605 655.958 429.352 654.462 429.352Z" fill="#0F0B47"/>
<path d="M338.209 502.17C341.994 502.17 344.051 500.114 344.051 497.403C344.051 494.529 341.831 493.455 338.63 492.707C335.989 492.076 334.611 491.562 334.611 490.067C334.611 488.781 335.873 487.66 337.672 487.66C339.307 487.66 340.92 488.384 342.275 489.623L343.63 487.847C342.088 486.468 340.242 485.58 337.789 485.58C334.541 485.58 332.204 487.59 332.204 490.277C332.204 493.174 334.377 494.156 337.648 494.927C340.336 495.534 341.667 496.118 341.667 497.637C341.667 498.922 340.522 500.091 338.303 500.091C336.13 500.091 334.447 499.203 333.022 497.847L331.62 499.6C333.302 501.235 335.522 502.17 338.209 502.17ZM352.486 502.193C355.967 502.193 358.841 499.343 358.841 495.861C358.841 492.38 355.967 489.552 352.486 489.552C349.004 489.552 346.13 492.38 346.13 495.861C346.13 499.343 349.004 502.193 352.486 502.193ZM352.486 500.184C350.266 500.184 348.444 498.245 348.444 495.861C348.444 493.478 350.266 491.562 352.486 491.562C354.706 491.562 356.528 493.478 356.528 495.861C356.528 498.245 354.706 500.184 352.486 500.184ZM369.755 489.833V497.333C369.755 498.922 368.283 500.184 366.437 500.184C364.801 500.184 363.656 498.946 363.656 497.123V489.833H361.39V497.52C361.39 500.301 363.236 502.193 365.9 502.193C367.559 502.193 369.031 501.376 369.755 500.184V501.913H372.068V489.833H369.755ZM381.049 499.74C380.816 499.997 380.349 500.184 379.834 500.184C379.157 500.184 378.573 499.576 378.573 498.735V491.796H381.423V489.833H378.573V486.515H376.306V489.833H374.507V491.796H376.306V498.899C376.306 500.838 377.615 502.193 379.484 502.193C380.349 502.193 381.26 501.866 381.914 501.329L381.049 499.74ZM390.497 489.552C388.838 489.552 387.343 490.394 386.642 491.609V485.58H384.328V501.913H386.642V494.413C386.642 492.824 388.137 491.562 389.983 491.562C391.619 491.562 392.764 492.8 392.764 494.623V501.913H395.007V494.226C395.007 491.445 393.161 489.552 390.497 489.552ZM331.123 531.913H333.74L326.847 515.861H324.23L317.337 531.913H319.954L321.38 528.572H329.698L331.123 531.913ZM322.267 526.516L325.539 518.898L328.81 526.516H322.267ZM349.745 519.552C347.852 519.552 346.38 520.721 346.006 522.426C345.399 520.674 343.88 519.552 341.964 519.552C340.398 519.552 339.137 520.324 338.529 521.562V519.833H336.216V531.913H338.529V524.366C338.529 522.707 339.744 521.562 341.497 521.562C342.992 521.562 344.043 522.8 344.043 524.576V531.913H346.31V524.366C346.31 522.707 347.548 521.562 349.277 521.562C350.773 521.562 351.848 522.8 351.848 524.576V531.913H354.091V524.226C354.091 521.492 352.268 519.552 349.745 519.552ZM362.877 530.277C360.727 530.277 359.232 528.735 358.951 526.609H368.602C368.602 522.31 366.452 519.552 362.76 519.552C359.419 519.552 356.685 522.216 356.685 525.838C356.685 529.553 359.582 532.193 362.924 532.193C364.629 532.193 366.756 531.469 367.807 530.324L366.452 528.899C365.704 529.693 364.185 530.277 362.877 530.277ZM362.807 521.468C364.91 521.468 366.125 522.964 366.358 524.903H358.975C359.325 522.824 360.867 521.468 362.807 521.468ZM373.624 522.193V519.833H371.311V531.913H373.624V525.487C373.624 523.151 375.446 521.562 378.11 521.562V519.552C376.007 519.552 374.371 520.581 373.624 522.193ZM381.994 517.823C382.765 517.823 383.373 517.169 383.373 516.421C383.373 515.697 382.765 515.043 381.994 515.043C381.223 515.043 380.592 515.697 380.592 516.421C380.592 517.169 381.223 517.823 381.994 517.823ZM380.826 531.913H383.139V519.833H380.826V531.913ZM392.292 532.193C394.092 532.193 395.657 531.446 396.825 530.254L395.26 528.829C394.489 529.67 393.414 530.184 392.292 530.184C390.096 530.184 388.25 528.221 388.25 525.861C388.25 523.525 390.096 521.562 392.292 521.562C393.391 521.562 394.442 522.053 395.19 522.87L396.755 521.422C395.587 520.277 394.045 519.552 392.292 519.552C388.858 519.552 385.914 522.426 385.914 525.861C385.914 529.296 388.834 532.193 392.292 532.193ZM403.82 519.552C402.488 519.552 400.969 519.903 399.24 520.768L400.105 522.473C401.156 521.936 402.301 521.468 403.493 521.468C405.899 521.468 406.6 523.081 406.6 524.6V524.973C405.432 524.576 404.147 524.319 402.955 524.319C400.292 524.319 398.119 525.931 398.119 528.338C398.119 530.698 400.035 532.193 402.582 532.193C404.077 532.193 405.713 531.516 406.6 530.277V531.913H408.867V524.6C408.867 521.609 407.068 519.552 403.82 519.552ZM403.049 530.371C401.507 530.371 400.338 529.576 400.338 528.268C400.338 526.959 401.694 526.048 403.306 526.048C404.498 526.048 405.596 526.212 406.6 526.516V528.128C406.203 529.623 404.544 530.371 403.049 530.371Z" fill="#0F0B47"/>
<path d="M890.288 204.606C892.578 204.606 894.704 203.624 896.223 202.082L894.564 200.493C893.466 201.661 891.947 202.433 890.288 202.433C887.087 202.433 884.377 199.629 884.377 196.287C884.377 192.969 887.087 190.165 890.288 190.165C891.947 190.165 893.466 190.936 894.564 192.105L896.223 190.516C894.704 188.95 892.578 187.992 890.288 187.992C885.802 187.992 881.97 191.778 881.97 196.287C881.97 200.797 885.802 204.606 890.288 204.606ZM905.108 191.965C903.449 191.965 901.953 192.806 901.253 194.021V187.992H898.939V204.325H901.253V196.825C901.253 195.236 902.748 193.974 904.594 193.974C906.229 193.974 907.374 195.212 907.374 197.035V204.325H909.618V196.638C909.618 193.857 907.772 191.965 905.108 191.965ZM914.323 190.235C915.094 190.235 915.702 189.581 915.702 188.834C915.702 188.109 915.094 187.455 914.323 187.455C913.552 187.455 912.921 188.109 912.921 188.834C912.921 189.581 913.552 190.235 914.323 190.235ZM913.155 204.325H915.468V192.245H913.155V204.325ZM925.416 191.965C923.757 191.965 922.262 192.806 921.561 194.021V192.245H919.248V204.325H921.561V196.825C921.561 195.236 923.056 193.974 924.902 193.974C926.538 193.974 927.683 195.212 927.683 197.035V204.325H929.926V196.638C929.926 193.857 928.08 191.965 925.416 191.965ZM938.043 191.965C936.711 191.965 935.193 192.315 933.463 193.18L934.328 194.885C935.379 194.348 936.524 193.881 937.716 193.881C940.123 193.881 940.824 195.493 940.824 197.012V197.385C939.655 196.988 938.37 196.731 937.179 196.731C934.515 196.731 932.342 198.343 932.342 200.75C932.342 203.11 934.258 204.606 936.805 204.606C938.3 204.606 939.936 203.928 940.824 202.69V204.325H943.09V197.012C943.09 194.021 941.291 191.965 938.043 191.965ZM937.272 202.783C935.73 202.783 934.562 201.989 934.562 200.68C934.562 199.372 935.917 198.46 937.529 198.46C938.721 198.46 939.819 198.624 940.824 198.928V200.54C940.427 202.035 938.768 202.783 937.272 202.783Z" fill="#0F0B47"/>
<path d="M977.533 293.689C980.594 293.689 982.767 291.399 982.767 288.174V277.356H980.383V288.081C980.383 290.114 979.145 291.539 977.416 291.539C976.084 291.539 974.705 290.651 974.098 289.413L972.462 291.025C973.467 292.59 975.593 293.689 977.533 293.689ZM991.335 281.048C990.003 281.048 988.485 281.398 986.756 282.263L987.62 283.968C988.672 283.431 989.817 282.964 991.008 282.964C993.415 282.964 994.116 284.576 994.116 286.095V286.469C992.948 286.071 991.662 285.814 990.471 285.814C987.807 285.814 985.634 287.427 985.634 289.833C985.634 292.193 987.55 293.689 990.097 293.689C991.592 293.689 993.228 293.011 994.116 291.773V293.408H996.382V286.095C996.382 283.104 994.583 281.048 991.335 281.048ZM990.564 291.866C989.022 291.866 987.854 291.072 987.854 289.763C987.854 288.455 989.209 287.543 990.821 287.543C992.013 287.543 993.111 287.707 994.116 288.011V289.623C993.719 291.118 992.06 291.866 990.564 291.866ZM1006.51 281.048C1004.67 281.048 1003.17 281.935 1002.24 283.384V281.328H999.922V297.427H1002.24V291.329C1003.17 292.801 1004.67 293.689 1006.51 293.689C1009.71 293.689 1012.07 291.072 1012.07 287.356C1012.07 283.665 1009.71 281.048 1006.51 281.048ZM1005.97 291.679C1003.78 291.679 1002.24 289.88 1002.24 287.356C1002.24 284.833 1003.78 283.057 1005.97 283.057C1008.17 283.057 1009.74 284.833 1009.74 287.356C1009.74 289.88 1008.17 291.679 1005.97 291.679ZM1019.56 281.048C1018.23 281.048 1016.71 281.398 1014.98 282.263L1015.85 283.968C1016.9 283.431 1018.04 282.964 1019.23 282.964C1021.64 282.964 1022.34 284.576 1022.34 286.095V286.469C1021.17 286.071 1019.89 285.814 1018.7 285.814C1016.03 285.814 1013.86 287.427 1013.86 289.833C1013.86 292.193 1015.78 293.689 1018.32 293.689C1019.82 293.689 1021.45 293.011 1022.34 291.773V293.408H1024.61V286.095C1024.61 283.104 1022.81 281.048 1019.56 281.048ZM1018.79 291.866C1017.25 291.866 1016.08 291.072 1016.08 289.763C1016.08 288.455 1017.44 287.543 1019.05 287.543C1020.24 287.543 1021.34 287.707 1022.34 288.011V289.623C1021.94 291.118 1020.29 291.866 1018.79 291.866ZM1034.32 281.048C1032.66 281.048 1031.16 281.889 1030.46 283.104V281.328H1028.15V293.408H1030.46V285.908C1030.46 284.319 1031.96 283.057 1033.8 283.057C1035.44 283.057 1036.58 284.295 1036.58 286.118V293.408H1038.83V285.721C1038.83 282.94 1036.98 281.048 1034.32 281.048Z" fill="#0F0B47"/>
<path d="M188.741 268.254H191.101V256.08L200.307 268.254H202.691V252.201H200.307V264.375L191.101 252.201H188.741V268.254ZM212.313 268.534C215.794 268.534 218.668 265.684 218.668 262.202C218.668 258.721 215.794 255.893 212.313 255.893C208.831 255.893 205.957 258.721 205.957 262.202C205.957 265.684 208.831 268.534 212.313 268.534ZM212.313 266.525C210.093 266.525 208.271 264.585 208.271 262.202C208.271 259.819 210.093 257.903 212.313 257.903C214.533 257.903 216.355 259.819 216.355 262.202C216.355 264.585 214.533 266.525 212.313 266.525ZM223.787 258.534V256.174H221.474V268.254H223.787V261.828C223.787 259.492 225.61 257.903 228.273 257.903V255.893C226.171 255.893 224.535 256.921 223.787 258.534ZM236.153 266.081C235.919 266.338 235.452 266.525 234.938 266.525C234.26 266.525 233.676 265.917 233.676 265.076V258.136H236.527V256.174H233.676V252.856H231.41V256.174H229.611V258.136H231.41V265.24C231.41 267.179 232.718 268.534 234.588 268.534C235.452 268.534 236.363 268.207 237.018 267.67L236.153 266.081ZM245.601 255.893C243.942 255.893 242.446 256.734 241.745 257.95V251.921H239.432V268.254H241.745V260.753C241.745 259.165 243.241 257.903 245.087 257.903C246.722 257.903 247.867 259.141 247.867 260.964V268.254H250.11V260.566C250.11 257.786 248.264 255.893 245.601 255.893ZM186.546 298.254H189.163L182.27 282.201H179.653L172.76 298.254H175.377L176.803 294.913H185.121L186.546 298.254ZM177.691 292.856L180.962 285.239L184.233 292.856H177.691ZM205.168 285.893C203.275 285.893 201.803 287.062 201.429 288.767C200.822 287.015 199.303 285.893 197.387 285.893C195.821 285.893 194.56 286.664 193.952 287.903V286.174H191.639V298.254H193.952V290.707C193.952 289.048 195.167 287.903 196.92 287.903C198.415 287.903 199.467 289.141 199.467 290.917V298.254H201.733V290.707C201.733 289.048 202.971 287.903 204.701 287.903C206.196 287.903 207.271 289.141 207.271 290.917V298.254H209.514V290.566C209.514 287.833 207.691 285.893 205.168 285.893ZM218.3 296.618C216.15 296.618 214.655 295.076 214.374 292.95H224.025C224.025 288.65 221.875 285.893 218.183 285.893C214.842 285.893 212.108 288.557 212.108 292.179C212.108 295.894 215.005 298.534 218.347 298.534C220.052 298.534 222.179 297.81 223.23 296.665L221.875 295.24C221.127 296.034 219.608 296.618 218.3 296.618ZM218.23 287.809C220.333 287.809 221.548 289.305 221.781 291.244H214.398C214.748 289.165 216.29 287.809 218.23 287.809ZM229.047 288.534V286.174H226.734V298.254H229.047V291.828C229.047 289.492 230.869 287.903 233.533 287.903V285.893C231.43 285.893 229.795 286.921 229.047 288.534ZM237.417 284.164C238.188 284.164 238.796 283.51 238.796 282.762C238.796 282.038 238.188 281.384 237.417 281.384C236.646 281.384 236.015 282.038 236.015 282.762C236.015 283.51 236.646 284.164 237.417 284.164ZM236.249 298.254H238.562V286.174H236.249V298.254ZM247.716 298.534C249.515 298.534 251.08 297.787 252.249 296.595L250.683 295.17C249.912 296.011 248.837 296.525 247.716 296.525C245.519 296.525 243.673 294.562 243.673 292.202C243.673 289.866 245.519 287.903 247.716 287.903C248.814 287.903 249.865 288.393 250.613 289.211L252.178 287.763C251.01 286.618 249.468 285.893 247.716 285.893C244.281 285.893 241.337 288.767 241.337 292.202C241.337 295.637 244.257 298.534 247.716 298.534ZM259.243 285.893C257.911 285.893 256.392 286.244 254.663 287.108L255.528 288.814C256.579 288.277 257.724 287.809 258.916 287.809C261.323 287.809 262.024 289.422 262.024 290.94V291.314C260.855 290.917 259.57 290.66 258.378 290.66C255.715 290.66 253.542 292.272 253.542 294.679C253.542 297.039 255.458 298.534 258.005 298.534C259.5 298.534 261.136 297.857 262.024 296.618V298.254H264.29V290.94C264.29 287.95 262.491 285.893 259.243 285.893ZM258.472 296.712C256.93 296.712 255.761 295.917 255.761 294.609C255.761 293.3 257.117 292.389 258.729 292.389C259.921 292.389 261.019 292.553 262.024 292.856V294.469C261.626 295.964 259.967 296.712 258.472 296.712Z" fill="#0F0B47"/>
<path d="M780.683 353.284H783.043V337.232H780.683V353.284ZM793.48 340.924C791.821 340.924 790.326 341.765 789.625 342.98V341.204H787.312V353.284H789.625V345.784C789.625 344.195 791.12 342.933 792.966 342.933C794.602 342.933 795.747 344.171 795.747 345.994V353.284H797.99V345.597C797.99 342.816 796.144 340.924 793.48 340.924ZM810.5 336.951V343.26C809.566 341.811 808.07 340.924 806.224 340.924C803.023 340.924 800.663 343.541 800.663 347.232C800.663 350.948 803.023 353.565 806.224 353.565C808.07 353.565 809.566 352.677 810.5 351.228V353.284H812.813V336.951H810.5ZM806.762 351.555C804.565 351.555 803 349.756 803 347.232C803 344.709 804.565 342.933 806.762 342.933C808.958 342.933 810.5 344.709 810.5 347.232C810.5 349.756 808.958 351.555 806.762 351.555ZM817.756 339.194C818.527 339.194 819.135 338.54 819.135 337.793C819.135 337.068 818.527 336.414 817.756 336.414C816.985 336.414 816.354 337.068 816.354 337.793C816.354 338.54 816.985 339.194 817.756 339.194ZM816.588 353.284H818.901V341.204H816.588V353.284ZM827.26 340.924C825.928 340.924 824.409 341.274 822.68 342.139L823.545 343.844C824.596 343.307 825.741 342.84 826.933 342.84C829.34 342.84 830.041 344.452 830.041 345.971V346.344C828.872 345.947 827.587 345.69 826.395 345.69C823.732 345.69 821.559 347.302 821.559 349.709C821.559 352.069 823.475 353.565 826.022 353.565C827.517 353.565 829.153 352.887 830.041 351.649V353.284H832.307V345.971C832.307 342.98 830.508 340.924 827.26 340.924ZM826.489 351.742C824.947 351.742 823.778 350.948 823.778 349.639C823.778 348.331 825.134 347.419 826.746 347.419C827.938 347.419 829.036 347.583 830.041 347.887V349.499C829.643 350.994 827.984 351.742 826.489 351.742Z" fill="#0F0B47"/>
<path d="M873.569 445.093H876.186L869.293 429.04H866.676L859.783 445.093H862.4L863.826 441.751H872.144L873.569 445.093ZM864.713 439.695L867.985 432.078L871.256 439.695H864.713ZM882.634 445.373C885.298 445.373 887.214 443.924 887.214 441.635C887.214 439.228 885.111 438.574 883.125 437.99C881.069 437.359 880.251 437.078 880.251 436.144C880.251 435.139 881.232 434.601 882.447 434.601C883.545 434.601 884.76 435.022 885.952 435.77L886.91 434.134C885.625 433.27 884.013 432.732 882.447 432.732C879.9 432.732 878.054 434.181 878.054 436.401C878.054 438.363 879.456 439.158 882.213 439.929C883.756 440.349 885.017 440.723 885.017 441.868C885.017 442.85 884.106 443.504 882.657 443.504C881.326 443.504 879.877 442.966 878.545 441.985L877.494 443.574C878.942 444.742 880.858 445.373 882.634 445.373ZM891.194 431.003C891.965 431.003 892.572 430.349 892.572 429.601C892.572 428.877 891.965 428.223 891.194 428.223C890.423 428.223 889.792 428.877 889.792 429.601C889.792 430.349 890.423 431.003 891.194 431.003ZM890.025 445.093H892.339V433.013H890.025V445.093ZM900.698 432.732C899.366 432.732 897.847 433.083 896.118 433.947L896.982 435.653C898.034 435.115 899.179 434.648 900.371 434.648C902.777 434.648 903.478 436.26 903.478 437.779V438.153C902.31 437.756 901.025 437.499 899.833 437.499C897.169 437.499 894.996 439.111 894.996 441.518C894.996 443.878 896.912 445.373 899.459 445.373C900.955 445.373 902.59 444.696 903.478 443.457V445.093H905.745V437.779C905.745 434.788 903.946 432.732 900.698 432.732ZM899.927 443.551C898.384 443.551 897.216 442.756 897.216 441.448C897.216 440.139 898.571 439.228 900.184 439.228C901.375 439.228 902.473 439.391 903.478 439.695V441.307C903.081 442.803 901.422 443.551 899.927 443.551ZM909.284 439.765H915.453V437.662H909.284V439.765ZM919.701 445.093H922.061V439.508H926.454C929.818 439.508 932.412 437.335 932.412 434.274C932.412 431.213 929.818 429.04 926.454 429.04H919.701V445.093ZM922.061 437.312V431.237H926.103C928.416 431.237 930.005 432.382 930.005 434.274C930.005 436.167 928.416 437.312 926.103 437.312H922.061ZM939.877 432.732C938.545 432.732 937.026 433.083 935.297 433.947L936.162 435.653C937.213 435.115 938.358 434.648 939.55 434.648C941.956 434.648 942.657 436.26 942.657 437.779V438.153C941.489 437.756 940.204 437.499 939.012 437.499C936.348 437.499 934.175 439.111 934.175 441.518C934.175 443.878 936.091 445.373 938.638 445.373C940.134 445.373 941.769 444.696 942.657 443.457V445.093H944.924V437.779C944.924 434.788 943.125 432.732 939.877 432.732ZM939.106 443.551C937.564 443.551 936.395 442.756 936.395 441.448C936.395 440.139 937.75 439.228 939.363 439.228C940.554 439.228 941.653 439.391 942.657 439.695V441.307C942.26 442.803 940.601 443.551 939.106 443.551ZM953.837 445.373C955.637 445.373 957.202 444.625 958.37 443.434L956.805 442.008C956.034 442.85 954.959 443.364 953.837 443.364C951.641 443.364 949.795 441.401 949.795 439.041C949.795 436.704 951.641 434.742 953.837 434.742C954.936 434.742 955.987 435.232 956.735 436.05L958.3 434.601C957.132 433.457 955.59 432.732 953.837 432.732C950.403 432.732 947.458 435.606 947.458 439.041C947.458 442.476 950.379 445.373 953.837 445.373ZM961.953 431.003C962.724 431.003 963.332 430.349 963.332 429.601C963.332 428.877 962.724 428.223 961.953 428.223C961.182 428.223 960.551 428.877 960.551 429.601C960.551 430.349 961.182 431.003 961.953 431.003ZM960.785 445.093H963.098V433.013H960.785V445.093ZM969.635 431.681C969.635 430.84 970.196 430.232 970.873 430.232C971.387 430.232 971.855 430.419 972.112 430.676L972.953 429.134C972.299 428.596 971.411 428.269 970.546 428.269C968.677 428.269 967.368 429.624 967.368 431.564V433.013H965.546V434.975H967.368V445.093H969.635V434.975H972.485V433.013H969.635V431.681ZM975.85 431.003C976.621 431.003 977.228 430.349 977.228 429.601C977.228 428.877 976.621 428.223 975.85 428.223C975.079 428.223 974.448 428.877 974.448 429.601C974.448 430.349 975.079 431.003 975.85 431.003ZM974.682 445.093H976.995V433.013H974.682V445.093ZM986.148 445.373C987.947 445.373 989.513 444.625 990.681 443.434L989.116 442.008C988.345 442.85 987.27 443.364 986.148 443.364C983.952 443.364 982.106 441.401 982.106 439.041C982.106 436.704 983.952 434.742 986.148 434.742C987.246 434.742 988.298 435.232 989.046 436.05L990.611 434.601C989.443 433.457 987.901 432.732 986.148 432.732C982.713 432.732 979.769 435.606 979.769 439.041C979.769 442.476 982.69 445.373 986.148 445.373Z" fill="#0F0B47"/>
<defs>
<filter id="filter0_d_4318_3205" x="921.868" y="75.6619" width="95.0846" height="100.936" filterUnits="userSpaceOnUse" color-interpolation-filters="sRGB">
<feFlood flood-opacity="0" result="BackgroundImageFix"/>
<feColorMatrix in="SourceAlpha" type="matrix" values="0 0 0 0 0 0 0 0 0 0 0 0 0 0 0 0 0 0 127 0" result="hardAlpha"/>
<feOffset dy="1.98539"/>
<feGaussianBlur stdDeviation="1.24087"/>
<feComposite in2="hardAlpha" operator="out"/>
<feColorMatrix type="matrix" values="0 0 0 0 0 0 0 0 0 0 0 0 0 0 0 0 0 0 0.1 0"/>
<feBlend mode="normal" in2="BackgroundImageFix" result="effect1_dropShadow_4318_3205"/>
<feBlend mode="normal" in="SourceGraphic" in2="effect1_dropShadow_4318_3205" result="shape"/>
</filter>
<filter id="filter1_d_4318_3205" x="1015.33" y="164.746" width="95.0846" height="100.936" filterUnits="userSpaceOnUse" color-interpolation-filters="sRGB">
<feFlood flood-opacity="0" result="BackgroundImageFix"/>
<feColorMatrix in="SourceAlpha" type="matrix" values="0 0 0 0 0 0 0 0 0 0 0 0 0 0 0 0 0 0 127 0" result="hardAlpha"/>
<feOffset dy="1.98539"/>
<feGaussianBlur stdDeviation="1.24087"/>
<feComposite in2="hardAlpha" operator="out"/>
<feColorMatrix type="matrix" values="0 0 0 0 0 0 0 0 0 0 0 0 0 0 0 0 0 0 0.1 0"/>
<feBlend mode="normal" in2="BackgroundImageFix" result="effect1_dropShadow_4318_3205"/>
<feBlend mode="normal" in="SourceGraphic" in2="effect1_dropShadow_4318_3205" result="shape"/>
</filter>
<filter id="filter2_d_4318_3205" x="815.26" y="224.622" width="95.0846" height="100.936" filterUnits="userSpaceOnUse" color-interpolation-filters="sRGB">
<feFlood flood-opacity="0" result="BackgroundImageFix"/>
<feColorMatrix in="SourceAlpha" type="matrix" values="0 0 0 0 0 0 0 0 0 0 0 0 0 0 0 0 0 0 127 0" result="hardAlpha"/>
<feOffset dy="1.98539"/>
<feGaussianBlur stdDeviation="1.24087"/>
<feComposite in2="hardAlpha" operator="out"/>
<feColorMatrix type="matrix" values="0 0 0 0 0 0 0 0 0 0 0 0 0 0 0 0 0 0 0.1 0"/>
<feBlend mode="normal" in2="BackgroundImageFix" result="effect1_dropShadow_4318_3205"/>
<feBlend mode="normal" in="SourceGraphic" in2="effect1_dropShadow_4318_3205" result="shape"/>
</filter>
<filter id="filter3_d_4318_3205" x="358.431" y="375.647" width="86.977" height="90.143" filterUnits="userSpaceOnUse" color-interpolation-filters="sRGB">
<feFlood flood-opacity="0" result="BackgroundImageFix"/>
<feColorMatrix in="SourceAlpha" type="matrix" values="0 0 0 0 0 0 0 0 0 0 0 0 0 0 0 0 0 0 127 0" result="hardAlpha"/>
<feOffset dy="2.48766"/>
<feGaussianBlur stdDeviation="1.55479"/>
<feComposite in2="hardAlpha" operator="out"/>
<feColorMatrix type="matrix" values="0 0 0 0 0 0 0 0 0 0 0 0 0 0 0 0 0 0 0.1 0"/>
<feBlend mode="normal" in2="BackgroundImageFix" result="effect1_dropShadow_4318_3205"/>
<feBlend mode="normal" in="SourceGraphic" in2="effect1_dropShadow_4318_3205" result="shape"/>
</filter>
<filter id="filter4_d_4318_3205" x="626.453" y="302.73" width="86.977" height="90.143" filterUnits="userSpaceOnUse" color-interpolation-filters="sRGB">
<feFlood flood-opacity="0" result="BackgroundImageFix"/>
<feColorMatrix in="SourceAlpha" type="matrix" values="0 0 0 0 0 0 0 0 0 0 0 0 0 0 0 0 0 0 127 0" result="hardAlpha"/>
<feOffset dy="2.48766"/>
<feGaussianBlur stdDeviation="1.55479"/>
<feComposite in2="hardAlpha" operator="out"/>
<feColorMatrix type="matrix" values="0 0 0 0 0 0 0 0 0 0 0 0 0 0 0 0 0 0 0.1 0"/>
<feBlend mode="normal" in2="BackgroundImageFix" result="effect1_dropShadow_4318_3205"/>
<feBlend mode="normal" in="SourceGraphic" in2="effect1_dropShadow_4318_3205" result="shape"/>
</filter>
<filter id="filter5_d_4318_3205" x="913.906" y="320.879" width="86.977" height="90.143" filterUnits="userSpaceOnUse" color-interpolation-filters="sRGB">
<feFlood flood-opacity="0" result="BackgroundImageFix"/>
<feColorMatrix in="SourceAlpha" type="matrix" values="0 0 0 0 0 0 0 0 0 0 0 0 0 0 0 0 0 0 127 0" result="hardAlpha"/>
<feOffset dy="2.48766"/>
<feGaussianBlur stdDeviation="1.55479"/>
<feComposite in2="hardAlpha" operator="out"/>
<feColorMatrix type="matrix" values="0 0 0 0 0 0 0 0 0 0 0 0 0 0 0 0 0 0 0.1 0"/>
<feBlend mode="normal" in2="BackgroundImageFix" result="effect1_dropShadow_4318_3205"/>
<feBlend mode="normal" in="SourceGraphic" in2="effect1_dropShadow_4318_3205" result="shape"/>
</filter>
<filter id="filter6_d_4318_3205" x="578.052" y="41.643" width="155.31" height="155.31" filterUnits="userSpaceOnUse" color-interpolation-filters="sRGB">
<feFlood flood-opacity="0" result="BackgroundImageFix"/>
<feColorMatrix in="SourceAlpha" type="matrix" values="0 0 0 0 0 0 0 0 0 0 0 0 0 0 0 0 0 0 127 0" result="hardAlpha"/>
<feOffset dy="3.70912"/>
<feGaussianBlur stdDeviation="2.3182"/>
<feComposite in2="hardAlpha" operator="out"/>
<feColorMatrix type="matrix" values="0 0 0 0 0 0 0 0 0 0 0 0 0 0 0 0 0 0 0.1 0"/>
<feBlend mode="normal" in2="BackgroundImageFix" result="effect1_dropShadow_4318_3205"/>
<feBlend mode="normal" in="SourceGraphic" in2="effect1_dropShadow_4318_3205" result="shape"/>
</filter>
<filter id="filter7_d_4318_3205" x="213.529" y="45.5536" width="183.379" height="196.523" filterUnits="userSpaceOnUse" color-interpolation-filters="sRGB">
<feFlood flood-opacity="0" result="BackgroundImageFix"/>
<feColorMatrix in="SourceAlpha" type="matrix" values="0 0 0 0 0 0 0 0 0 0 0 0 0 0 0 0 0 0 127 0" result="hardAlpha"/>
<feOffset dy="5.5903"/>
<feGaussianBlur stdDeviation="3.49394"/>
<feComposite in2="hardAlpha" operator="out"/>
<feColorMatrix type="matrix" values="0 0 0 0 0 0 0 0 0 0 0 0 0 0 0 0 0 0 0.1 0"/>
<feBlend mode="normal" in2="BackgroundImageFix" result="effect1_dropShadow_4318_3205"/>
<feBlend mode="normal" in="SourceGraphic" in2="effect1_dropShadow_4318_3205" result="shape"/>
</filter>
<clipPath id="clip0_4318_3205">
<rect width="1202" height="603.926" fill="white" transform="translate(0 0.21875)"/>
</clipPath>
</defs>
</svg>
