<svg width="1175" height="212" viewBox="0 0 1175 212" fill="none" xmlns="http://www.w3.org/2000/svg">
<g clip-path="url(#clip0_4824_632)">
<path d="M94.8231 209.516C101.263 209.516 105.423 206.076 105.423 201.316C105.423 197.676 102.663 195.556 99.6631 194.876C102.703 193.996 104.823 191.716 104.823 188.556C104.823 184.196 100.943 181.036 94.7831 181.036C89.9031 181.036 86.6231 183.156 84.3431 185.916L87.7431 189.516C89.5831 187.596 91.6231 186.316 94.1831 186.316C96.9031 186.316 98.8231 187.596 98.8231 189.596C98.8231 191.556 97.0231 192.676 94.0231 192.676L90.8631 192.636V197.676H94.0231C97.7031 197.636 99.3831 198.716 99.3831 200.836C99.3831 202.796 97.5831 204.196 94.5831 204.196C91.8231 204.196 89.2231 203.036 87.2631 200.956L83.7831 204.876C86.1031 207.556 89.9031 209.516 94.8231 209.516ZM111.231 208.996H117.871L128.991 185.956V181.516H108.551V186.836H122.151L111.231 208.996ZM139.282 195.316C143.322 195.316 146.162 192.236 146.162 188.276C146.162 184.396 143.442 181.236 139.282 181.236C135.162 181.236 132.442 184.356 132.442 188.316C132.442 192.236 135.162 195.316 139.282 195.316ZM136.042 208.996H140.642L159.762 181.516H155.122L136.042 208.996ZM139.282 191.876C137.642 191.876 136.362 190.436 136.362 188.276C136.362 186.116 137.562 184.716 139.282 184.716C140.962 184.716 142.202 186.156 142.202 188.276C142.202 190.476 140.962 191.876 139.282 191.876ZM156.442 209.436C160.482 209.436 163.282 206.356 163.282 202.396C163.282 198.516 160.602 195.356 156.442 195.356C152.362 195.356 149.562 198.476 149.562 202.396C149.562 206.316 152.362 209.436 156.442 209.436ZM156.442 205.956C154.762 205.956 153.522 204.516 153.522 202.396C153.522 200.196 154.722 198.796 156.442 198.796C158.082 198.796 159.362 200.236 159.362 202.396C159.362 204.556 158.162 205.956 156.442 205.956Z" fill="#5C2CFF"/>
<path opacity="0.5" d="M253.679 211.996C253.679 195.246 250.391 178.661 244.005 163.186C237.618 147.711 228.257 133.651 216.455 121.807C204.654 109.963 190.644 100.568 175.225 94.1585C159.805 87.7487 143.279 84.4496 126.59 84.4496C109.9 84.4496 93.374 87.7487 77.9548 94.1585C62.5357 100.568 48.5255 109.963 36.7242 121.807C24.9229 133.651 15.5616 147.711 9.17474 163.186C2.78793 178.661 -0.499329 195.246 -0.499329 211.996L48.3029 211.996C48.3029 201.678 50.3278 191.461 54.2621 181.929C58.1964 172.397 63.9629 163.735 71.2325 156.44C78.5022 149.144 87.1324 143.356 96.6306 139.408C106.129 135.46 116.309 133.427 126.59 133.427C136.87 133.427 147.051 135.46 156.549 139.408C166.047 143.356 174.677 149.144 181.947 156.44C189.216 163.735 194.983 172.397 198.917 181.929C202.852 191.461 204.877 201.678 204.877 211.996H253.679Z" fill="#D9D9D9"/>
<path d="M-0.499329 211.996C-0.499329 187.111 6.75424 162.769 20.3678 141.97C33.9812 121.171 53.36 104.823 76.1165 94.9397L95.4982 139.889C81.4802 145.977 69.5429 156.048 61.157 168.86C52.7711 181.672 48.3029 196.667 48.3029 211.996L-0.499329 211.996Z" fill="#5C2CFF"/>
<path d="M80.8217 14.543H86.6137C88.7097 14.543 90.2137 13.327 90.2137 11.567C90.2137 10.351 89.4777 9.32697 88.1977 8.75097C89.1737 8.23897 89.7337 7.42297 89.7337 6.30297C89.7337 4.70297 88.3577 3.55097 86.3897 3.55097H80.8217V14.543ZM83.1737 7.98297V5.56697H85.8137C86.6937 5.56697 87.3177 6.07897 87.3177 6.76697C87.3177 7.47097 86.6937 7.98297 85.8137 7.98297H83.1737ZM83.1737 12.527V9.83897H86.1657C87.1257 9.83897 87.7977 10.399 87.7977 11.183C87.7977 11.967 87.1257 12.527 86.1657 12.527H83.1737ZM100.833 5.67897V3.55097H92.3686V14.543H100.833V12.415H94.7366V9.99897H100.273V7.87097H94.7366V5.67897H100.833ZM108.319 14.735C109.983 14.735 111.503 14.015 112.575 12.895L110.863 11.359C110.239 12.095 109.327 12.591 108.319 12.591C106.463 12.591 104.895 10.959 104.895 9.03897C104.895 7.13497 106.463 5.50297 108.319 5.50297C109.311 5.50297 110.239 5.99897 110.863 6.73497L112.575 5.19897C111.503 4.06297 109.983 3.35897 108.319 3.35897C105.151 3.35897 102.463 5.95097 102.463 9.03897C102.463 12.127 105.151 14.735 108.319 14.735ZM119.678 14.735C122.846 14.735 125.502 12.127 125.502 9.03897C125.502 5.95097 122.846 3.35897 119.678 3.35897C116.51 3.35897 113.822 5.95097 113.822 9.03897C113.822 12.127 116.51 14.735 119.678 14.735ZM119.678 12.591C117.822 12.591 116.254 10.959 116.254 9.03897C116.254 7.13497 117.822 5.50297 119.678 5.50297C121.518 5.50297 123.086 7.13497 123.086 9.03897C123.086 10.959 121.518 12.591 119.678 12.591ZM127.65 14.543H130.018V7.69497L133.41 13.903L136.818 7.69497V14.543H139.17V3.55097H136.818L133.41 9.75897L130.018 3.55097H127.65V14.543ZM141.962 14.543H144.33V3.55097H141.962V14.543ZM147.119 14.543H149.487V7.43897L154.783 14.543H157.151V3.55097H154.783V10.655L149.487 3.55097H147.119V14.543ZM164.763 10.207H167.307V11.887C166.699 12.335 165.915 12.591 165.179 12.591C163.291 12.591 161.707 10.959 161.707 9.03897C161.707 7.13497 163.291 5.50297 165.179 5.50297C166.187 5.50297 167.243 5.98297 167.899 6.73497L169.611 5.19897C168.523 4.04697 166.811 3.35897 165.179 3.35897C161.979 3.35897 159.275 5.95097 159.275 9.03897C159.275 12.127 161.979 14.735 165.179 14.735C166.811 14.735 168.523 14.047 169.611 12.895V8.36697H164.763V10.207ZM86.2436 35.543H88.6116V24.551H86.2436V35.543ZM91.3998 35.543H93.7678V28.439L99.0638 35.543H101.432V24.551H99.0638V31.655L93.7678 24.551H91.3998V35.543ZM112.164 35.543H114.82L110.34 24.551H107.7L103.22 35.543H105.86L106.628 33.655H111.396L112.164 35.543ZM107.38 31.815L109.012 27.799L110.644 31.815H107.38ZM121.819 35.735C123.483 35.735 125.003 35.015 126.075 33.895L124.363 32.359C123.739 33.095 122.827 33.591 121.819 33.591C119.963 33.591 118.395 31.959 118.395 30.039C118.395 28.135 119.963 26.503 121.819 26.503C122.811 26.503 123.739 26.999 124.363 27.735L126.075 26.199C125.003 25.063 123.483 24.359 121.819 24.359C118.651 24.359 115.963 26.951 115.963 30.039C115.963 33.127 118.651 35.735 121.819 35.735ZM130.522 35.543H132.874V26.679H136.314V24.551H127.098V26.679H130.522V35.543ZM138.197 35.543H140.565V24.551H138.197V35.543ZM151.321 24.551L148.185 32.295L145.033 24.551H142.377L146.857 35.543H149.497L153.977 24.551H151.321ZM164.254 26.679V24.551H155.79V35.543H164.254V33.415H158.158V30.999H163.694V28.871H158.158V26.679H164.254Z" fill="#0F0B47"/>
<path opacity="0.5" d="M559.678 211.996C559.678 195.246 556.39 178.661 550.004 163.186C543.617 147.711 534.256 133.651 522.454 121.807C510.653 109.963 496.643 100.568 481.224 94.1585C465.804 87.7487 449.278 84.4496 432.589 84.4496C415.899 84.4496 399.373 87.7487 383.954 94.1585C368.535 100.568 354.525 109.963 342.723 121.807C330.922 133.651 321.561 147.711 315.174 163.186C308.787 178.661 305.5 195.246 305.5 211.996L354.302 211.996C354.302 201.678 356.327 191.461 360.261 181.929C364.195 172.397 369.962 163.735 377.232 156.44C384.501 149.144 393.131 143.356 402.63 139.408C412.128 135.46 422.308 133.427 432.589 133.427C442.869 133.427 453.05 135.46 462.548 139.408C472.046 143.356 480.676 149.144 487.946 156.44C495.215 163.735 500.982 172.397 504.916 181.929C508.851 191.461 510.876 201.678 510.876 211.996H559.678Z" fill="#D9D9D9"/>
<path d="M305.5 211.996C305.5 189.833 311.254 168.053 322.195 148.802C333.136 129.551 348.887 113.493 367.895 102.211L392.737 144.369C381.029 151.318 371.326 161.21 364.586 173.068C357.846 184.927 354.302 198.344 354.302 211.996L305.5 211.996Z" fill="#5C2CFF"/>
<path opacity="0.5" d="M874.59 211.996C874.59 195.246 871.303 178.661 864.916 163.186C858.529 147.711 849.168 133.651 837.366 121.807C825.565 109.963 811.555 100.568 796.136 94.1585C780.717 87.7487 764.19 84.4496 747.501 84.4496C730.811 84.4496 714.285 87.7487 698.866 94.1585C683.447 100.568 669.437 109.963 657.635 121.807C645.834 133.651 636.473 147.711 630.086 163.186C623.699 178.661 620.412 195.246 620.412 211.996L669.214 211.996C669.214 201.678 671.239 191.461 675.173 181.929C679.107 172.397 684.874 163.735 692.144 156.44C699.413 149.144 708.044 143.356 717.542 139.408C727.04 135.46 737.22 133.427 747.501 133.427C757.782 133.427 767.962 135.46 777.46 139.408C786.958 143.356 795.588 149.144 802.858 156.44C810.128 163.735 815.894 172.397 819.828 181.929C823.763 191.461 825.788 201.678 825.788 211.996H874.59Z" fill="#D9D9D9"/>
<path d="M620.412 211.996C620.412 191.19 625.483 170.7 635.184 152.313C644.885 133.926 658.92 118.199 676.066 106.505L703.497 147.013C692.935 154.217 684.289 163.905 678.314 175.231C672.338 186.558 669.214 199.18 669.214 211.996L620.412 211.996Z" fill="#5C2CFF"/>
<path opacity="0.5" d="M1174.5 211.996C1174.5 195.246 1171.21 178.661 1164.83 163.186C1158.44 147.711 1149.08 133.651 1137.28 121.807C1125.48 109.963 1111.47 100.568 1096.05 94.1585C1080.63 87.7487 1064.1 84.4496 1047.41 84.4496C1030.72 84.4496 1014.2 87.7487 998.776 94.1585C983.357 100.568 969.347 109.963 957.545 121.807C945.744 133.651 936.383 147.711 929.996 163.186C923.609 178.661 920.322 195.246 920.322 211.996L969.124 211.996C969.124 201.678 971.149 191.461 975.083 181.929C979.018 172.397 984.784 163.735 992.054 156.44C999.323 149.144 1007.95 143.356 1017.45 139.408C1026.95 135.46 1037.13 133.427 1047.41 133.427C1057.69 133.427 1067.87 135.46 1077.37 139.408C1086.87 143.356 1095.5 149.144 1102.77 156.44C1110.04 163.735 1115.8 172.397 1119.74 181.929C1123.67 191.461 1125.7 201.678 1125.7 211.996H1174.5Z" fill="#D9D9D9"/>
<path d="M920.322 211.996C920.322 193.221 924.452 174.677 932.417 157.689C940.383 140.701 951.987 125.687 966.401 113.72L997.509 151.458C988.63 158.83 981.482 168.078 976.575 178.543C971.668 189.008 969.124 200.43 969.124 211.996L920.322 211.996Z" fill="#5C2CFF"/>
<path d="M404.315 209.516C410.755 209.516 414.915 206.076 414.915 201.316C414.915 197.676 412.155 195.556 409.155 194.876C412.195 193.996 414.315 191.716 414.315 188.556C414.315 184.196 410.435 181.036 404.275 181.036C399.395 181.036 396.115 183.156 393.835 185.916L397.235 189.516C399.075 187.596 401.115 186.316 403.675 186.316C406.395 186.316 408.315 187.596 408.315 189.596C408.315 191.556 406.515 192.676 403.515 192.676L400.355 192.636V197.676H403.515C407.195 197.636 408.875 198.716 408.875 200.836C408.875 202.796 407.075 204.196 404.075 204.196C401.315 204.196 398.715 203.036 396.755 200.956L393.275 204.876C395.595 207.556 399.395 209.516 404.315 209.516ZM429.003 209.516C435.443 209.516 439.603 206.076 439.603 201.316C439.603 197.676 436.843 195.556 433.843 194.876C436.883 193.996 439.003 191.716 439.003 188.556C439.003 184.196 435.123 181.036 428.963 181.036C424.083 181.036 420.803 183.156 418.523 185.916L421.923 189.516C423.763 187.596 425.803 186.316 428.363 186.316C431.083 186.316 433.003 187.596 433.003 189.596C433.003 191.556 431.203 192.676 428.203 192.676L425.043 192.636V197.676H428.203C431.883 197.636 433.563 198.716 433.563 200.836C433.563 202.796 431.763 204.196 428.763 204.196C426.003 204.196 423.403 203.036 421.443 200.956L417.963 204.876C420.283 207.556 424.083 209.516 429.003 209.516ZM450.61 195.316C454.65 195.316 457.49 192.236 457.49 188.276C457.49 184.396 454.77 181.236 450.61 181.236C446.49 181.236 443.77 184.356 443.77 188.316C443.77 192.236 446.49 195.316 450.61 195.316ZM447.37 208.996H451.97L471.09 181.516H466.45L447.37 208.996ZM450.61 191.876C448.97 191.876 447.69 190.436 447.69 188.276C447.69 186.116 448.89 184.716 450.61 184.716C452.29 184.716 453.53 186.156 453.53 188.276C453.53 190.476 452.29 191.876 450.61 191.876ZM467.77 209.436C471.81 209.436 474.61 206.356 474.61 202.396C474.61 198.516 471.93 195.356 467.77 195.356C463.69 195.356 460.89 198.476 460.89 202.396C460.89 206.316 463.69 209.436 467.77 209.436ZM467.77 205.956C466.09 205.956 464.85 204.516 464.85 202.396C464.85 200.196 466.05 198.796 467.77 198.796C469.41 198.796 470.69 200.236 470.69 202.396C470.69 204.556 469.49 205.956 467.77 205.956Z" fill="#5C2CFF"/>
<path d="M391.878 14.735C394.55 14.735 396.15 13.343 396.15 11.247C396.15 9.21497 394.582 8.51097 392.214 7.98297C390.518 7.59897 389.846 7.34297 389.846 6.54297C389.846 5.88697 390.47 5.35897 391.462 5.35897C392.518 5.35897 393.622 5.79097 394.614 6.59097L395.846 4.87897C394.71 3.91897 393.334 3.35897 391.542 3.35897C389.126 3.35897 387.462 4.75097 387.462 6.78297C387.462 8.91097 389.126 9.56697 391.446 10.095C393.126 10.479 393.766 10.719 393.766 11.503C393.766 12.191 393.158 12.735 391.958 12.735C390.566 12.735 389.382 12.191 388.342 11.295L386.998 12.911C388.278 14.095 389.958 14.735 391.878 14.735ZM406.715 5.67897V3.55097H398.251V14.543H406.715V12.415H400.619V9.99897H406.155V7.87097H400.619V5.67897H406.715ZM414.201 14.735C415.865 14.735 417.385 14.015 418.457 12.895L416.745 11.359C416.121 12.095 415.209 12.591 414.201 12.591C412.345 12.591 410.777 10.959 410.777 9.03897C410.777 7.13497 412.345 5.50297 414.201 5.50297C415.193 5.50297 416.121 5.99897 416.745 6.73497L418.457 5.19897C417.385 4.06297 415.865 3.35897 414.201 3.35897C411.033 3.35897 408.345 5.95097 408.345 9.03897C408.345 12.127 411.033 14.735 414.201 14.735ZM425.097 14.735C428.009 14.735 430.073 12.687 430.073 9.79097V3.55097H427.705V9.69497C427.705 11.391 426.617 12.591 425.097 12.591C423.561 12.591 422.473 11.391 422.473 9.69497V3.55097H420.121V9.79097C420.121 12.687 422.169 14.735 425.097 14.735ZM441.699 7.26297C441.699 5.08697 439.955 3.55097 437.555 3.55097H432.611V14.543H434.979V10.975H436.403L438.915 14.543H441.603L438.963 10.783C440.611 10.303 441.699 8.99097 441.699 7.26297ZM434.979 5.71097H437.315C438.483 5.71097 439.283 6.31897 439.283 7.26297C439.283 8.20697 438.483 8.81497 437.315 8.81497H434.979V5.71097ZM443.876 14.543H446.244V3.55097H443.876V14.543ZM451.577 14.543H453.929V5.67897H457.369V3.55097H448.153V5.67897H451.577V14.543ZM462.531 14.543H464.915V10.575L469.203 3.55097H466.563L463.715 8.36697L460.979 3.55097H458.227L462.531 10.575V14.543ZM367.313 24.551L364.177 32.295L361.025 24.551H358.369L362.849 35.543H365.489L369.969 24.551H367.313ZM376.519 35.735C379.431 35.735 381.495 33.687 381.495 30.791V24.551H379.127V30.695C379.127 32.391 378.039 33.591 376.519 33.591C374.983 33.591 373.895 32.391 373.895 30.695V24.551H371.543V30.791C371.543 33.687 373.591 35.735 376.519 35.735ZM384.033 35.543H386.401V28.439L391.697 35.543H394.065V24.551H391.697V31.655L386.401 24.551H384.033V35.543ZM405.309 26.679V24.551H396.845V35.543H405.309V33.415H399.213V30.999H404.749V28.871H399.213V26.679H405.309ZM416.683 28.263C416.683 26.087 414.939 24.551 412.539 24.551H407.595V35.543H409.963V31.975H411.387L413.899 35.543H416.587L413.947 31.783C415.595 31.303 416.683 29.991 416.683 28.263ZM409.963 26.711H412.299C413.467 26.711 414.267 27.319 414.267 28.263C414.267 29.207 413.467 29.815 412.299 29.815H409.963V26.711ZM426.813 35.543H429.469L424.989 24.551H422.349L417.869 35.543H420.509L421.277 33.655H426.045L426.813 35.543ZM422.029 31.815L423.661 27.799L425.293 31.815H422.029ZM431.267 35.543H437.059C439.155 35.543 440.659 34.327 440.659 32.567C440.659 31.351 439.923 30.327 438.643 29.751C439.619 29.239 440.179 28.423 440.179 27.303C440.179 25.703 438.803 24.551 436.835 24.551H431.267V35.543ZM433.619 28.983V26.567H436.259C437.139 26.567 437.763 27.079 437.763 27.767C437.763 28.471 437.139 28.983 436.259 28.983H433.619ZM433.619 33.527V30.839H436.611C437.571 30.839 438.243 31.399 438.243 32.183C438.243 32.967 437.571 33.527 436.611 33.527H433.619ZM442.814 35.543H445.182V24.551H442.814V35.543ZM450.338 33.415V24.551H447.97V35.543H455.81V33.415H450.338ZM457.72 35.543H460.088V24.551H457.72V35.543ZM465.42 35.543H467.772V26.679H471.212V24.551H461.996V26.679H465.42V35.543ZM473.095 35.543H475.463V24.551H473.095V35.543ZM486.715 26.679V24.551H478.251V35.543H486.715V33.415H480.619V30.999H486.155V28.871H480.619V26.679H486.715ZM493.065 35.735C495.737 35.735 497.337 34.343 497.337 32.247C497.337 30.215 495.769 29.511 493.401 28.983C491.705 28.599 491.033 28.343 491.033 27.543C491.033 26.887 491.657 26.359 492.649 26.359C493.705 26.359 494.809 26.791 495.801 27.591L497.033 25.879C495.897 24.919 494.521 24.359 492.729 24.359C490.313 24.359 488.649 25.751 488.649 27.783C488.649 29.911 490.313 30.567 492.633 31.095C494.313 31.479 494.953 31.719 494.953 32.503C494.953 33.191 494.345 33.735 493.145 33.735C491.753 33.735 490.569 33.191 489.529 32.295L488.185 33.911C489.465 35.095 491.145 35.735 493.065 35.735Z" fill="#0F0B47"/>
<path d="M718.566 209.516C725.006 209.516 729.166 206.076 729.166 201.316C729.166 197.676 726.406 195.556 723.406 194.876C726.446 193.996 728.566 191.716 728.566 188.556C728.566 184.196 724.686 181.036 718.526 181.036C713.646 181.036 710.366 183.156 708.086 185.916L711.486 189.516C713.326 187.596 715.366 186.316 717.926 186.316C720.646 186.316 722.566 187.596 722.566 189.596C722.566 191.556 720.766 192.676 717.766 192.676L714.606 192.636V197.676H717.766C721.446 197.636 723.126 198.716 723.126 200.836C723.126 202.796 721.326 204.196 718.326 204.196C715.566 204.196 712.966 203.036 711.006 200.956L707.526 204.876C709.846 207.556 713.646 209.516 718.566 209.516ZM739.094 208.996H744.974V181.516H740.254L732.014 187.036L734.414 191.196L739.094 188.276V208.996ZM757.361 195.316C761.401 195.316 764.241 192.236 764.241 188.276C764.241 184.396 761.521 181.236 757.361 181.236C753.241 181.236 750.521 184.356 750.521 188.316C750.521 192.236 753.241 195.316 757.361 195.316ZM754.121 208.996H758.721L777.841 181.516H773.201L754.121 208.996ZM757.361 191.876C755.721 191.876 754.441 190.436 754.441 188.276C754.441 186.116 755.641 184.716 757.361 184.716C759.041 184.716 760.281 186.156 760.281 188.276C760.281 190.476 759.041 191.876 757.361 191.876ZM774.521 209.436C778.561 209.436 781.361 206.356 781.361 202.396C781.361 198.516 778.681 195.356 774.521 195.356C770.441 195.356 767.641 198.476 767.641 202.396C767.641 206.316 770.441 209.436 774.521 209.436ZM774.521 205.956C772.841 205.956 771.601 204.516 771.601 202.396C771.601 200.196 772.801 198.796 774.521 198.796C776.161 198.796 777.441 200.236 777.441 202.396C777.441 204.556 776.241 205.956 774.521 205.956Z" fill="#5C2CFF"/>
<path d="M713.104 12.415V3.55097H710.736V14.543H718.576V12.415H713.104ZM728.438 14.543H731.094L726.614 3.55097H723.974L719.494 14.543H722.134L722.902 12.655H727.67L728.438 14.543ZM723.654 10.815L725.286 6.79897L726.918 10.815H723.654ZM738.092 14.735C739.756 14.735 741.276 14.015 742.348 12.895L740.636 11.359C740.012 12.095 739.1 12.591 738.092 12.591C736.236 12.591 734.668 10.959 734.668 9.03897C734.668 7.13497 736.236 5.50297 738.092 5.50297C739.084 5.50297 740.012 5.99897 740.636 6.73497L742.348 5.19897C741.276 4.06297 739.756 3.35897 738.092 3.35897C734.924 3.35897 732.236 5.95097 732.236 9.03897C732.236 12.127 734.924 14.735 738.092 14.735ZM744.251 14.543H746.619V11.471L747.995 9.99897L751.355 14.543H754.235L749.627 8.31897L753.915 3.55097H751.067L746.619 8.59097V3.55097H744.251V14.543ZM765.576 14.735C768.744 14.735 771.4 12.127 771.4 9.03897C771.4 5.95097 768.744 3.35897 765.576 3.35897C762.408 3.35897 759.72 5.95097 759.72 9.03897C759.72 12.127 762.408 14.735 765.576 14.735ZM765.576 12.591C763.72 12.591 762.152 10.959 762.152 9.03897C762.152 7.13497 763.72 5.50297 765.576 5.50297C767.416 5.50297 768.984 7.13497 768.984 9.03897C768.984 10.959 767.416 12.591 765.576 12.591ZM782.012 5.67897V3.55097H773.548V14.543H775.916V10.191H781.452V8.06297H775.916V5.67897H782.012ZM671.876 35.543H675.828C679.524 35.543 682.148 33.255 682.148 30.039C682.148 26.823 679.524 24.551 675.828 24.551H671.876V35.543ZM674.244 33.399V26.695H676.132C678.228 26.695 679.716 28.087 679.716 30.039C679.716 32.007 678.228 33.399 676.132 33.399H674.244ZM689.467 35.735C692.635 35.735 695.291 33.127 695.291 30.039C695.291 26.951 692.635 24.359 689.467 24.359C686.299 24.359 683.611 26.951 683.611 30.039C683.611 33.127 686.299 35.735 689.467 35.735ZM689.467 33.591C687.611 33.591 686.043 31.959 686.043 30.039C686.043 28.135 687.611 26.503 689.467 26.503C691.307 26.503 692.875 28.135 692.875 30.039C692.875 31.959 691.307 33.591 689.467 33.591ZM702.639 35.735C704.303 35.735 705.823 35.015 706.895 33.895L705.183 32.359C704.559 33.095 703.647 33.591 702.639 33.591C700.783 33.591 699.215 31.959 699.215 30.039C699.215 28.135 700.783 26.503 702.639 26.503C703.631 26.503 704.559 26.999 705.183 27.735L706.895 26.199C705.823 25.063 704.303 24.359 702.639 24.359C699.471 24.359 696.783 26.951 696.783 30.039C696.783 33.127 699.471 35.735 702.639 35.735ZM713.534 35.735C716.446 35.735 718.51 33.687 718.51 30.791V24.551H716.142V30.695C716.142 32.391 715.054 33.591 713.534 33.591C711.998 33.591 710.91 32.391 710.91 30.695V24.551H708.558V30.791C708.558 33.687 710.606 35.735 713.534 35.735ZM721.048 35.543H723.416V28.695L726.808 34.903L730.216 28.695V35.543H732.568V24.551H730.216L726.808 30.759L723.416 24.551H721.048V35.543ZM743.825 26.679V24.551H735.361V35.543H743.825V33.415H737.729V30.999H743.265V28.871H737.729V26.679H743.825ZM746.111 35.543H748.479V28.439L753.775 35.543H756.143V24.551H753.775V31.655L748.479 24.551H746.111V35.543ZM761.467 35.543H763.819V26.679H767.259V24.551H758.043V26.679H761.467V35.543ZM777.094 35.543H779.75L775.27 24.551H772.63L768.15 35.543H770.79L771.558 33.655H776.326L777.094 35.543ZM772.31 31.815L773.942 27.799L775.574 31.815H772.31ZM784.092 35.543H786.444V26.679H789.884V24.551H780.668V26.679H784.092V35.543ZM791.767 35.543H794.135V24.551H791.767V35.543ZM802.123 35.735C805.291 35.735 807.947 33.127 807.947 30.039C807.947 26.951 805.291 24.359 802.123 24.359C798.955 24.359 796.267 26.951 796.267 30.039C796.267 33.127 798.955 35.735 802.123 35.735ZM802.123 33.591C800.267 33.591 798.699 31.959 798.699 30.039C798.699 28.135 800.267 26.503 802.123 26.503C803.963 26.503 805.531 28.135 805.531 30.039C805.531 31.959 803.963 33.591 802.123 33.591ZM810.095 35.543H812.463V28.439L817.759 35.543H820.127V24.551H817.759V31.655L812.463 24.551H810.095V35.543Z" fill="#0F0B47"/>
<path d="M1011.91 208.996H1032.67V203.676H1021.03L1026.03 199.796C1030.83 196.316 1032.43 193.476 1032.43 189.796C1032.43 184.636 1028.19 181.036 1022.35 181.036C1017.91 181.036 1014.43 182.956 1011.71 186.396L1015.47 190.036C1017.47 187.756 1019.51 186.396 1022.19 186.396C1024.43 186.396 1026.35 187.756 1026.35 190.036C1026.35 191.956 1025.31 193.756 1022.03 196.356L1011.91 204.196V208.996ZM1047.6 209.476C1053.64 209.476 1058.64 206.636 1058.64 201.636C1058.64 198.476 1056.48 196.076 1053.24 194.796C1056 193.596 1057.96 191.596 1057.96 188.516C1057.96 183.796 1053.08 181.036 1047.6 181.036C1042.24 181.036 1037.28 183.676 1037.28 188.516C1037.28 191.636 1039.24 193.636 1041.96 194.796C1038.8 195.996 1036.56 198.396 1036.56 201.636C1036.56 206.596 1041.52 209.476 1047.6 209.476ZM1047.6 192.756C1045.44 192.596 1043.16 191.396 1043.16 189.276C1043.16 187.396 1044.96 185.996 1047.6 185.996C1050.24 185.996 1052.08 187.396 1052.08 189.276C1052.08 191.316 1049.76 192.596 1047.6 192.756ZM1047.6 204.516C1044.68 204.516 1042.56 203.076 1042.56 200.996C1042.56 198.836 1045.24 197.476 1047.6 197.396C1049.96 197.476 1052.68 198.836 1052.68 200.996C1052.68 203.076 1050.52 204.516 1047.6 204.516ZM1069.54 195.316C1073.58 195.316 1076.42 192.236 1076.42 188.276C1076.42 184.396 1073.7 181.236 1069.54 181.236C1065.42 181.236 1062.7 184.356 1062.7 188.316C1062.7 192.236 1065.42 195.316 1069.54 195.316ZM1066.3 208.996H1070.9L1090.02 181.516H1085.38L1066.3 208.996ZM1069.54 191.876C1067.9 191.876 1066.62 190.436 1066.62 188.276C1066.62 186.116 1067.82 184.716 1069.54 184.716C1071.22 184.716 1072.46 186.156 1072.46 188.276C1072.46 190.476 1071.22 191.876 1069.54 191.876ZM1086.7 209.436C1090.74 209.436 1093.54 206.356 1093.54 202.396C1093.54 198.516 1090.86 195.356 1086.7 195.356C1082.62 195.356 1079.82 198.476 1079.82 202.396C1079.82 206.316 1082.62 209.436 1086.7 209.436ZM1086.7 205.956C1085.02 205.956 1083.78 204.516 1083.78 202.396C1083.78 200.196 1084.98 198.796 1086.7 198.796C1088.34 198.796 1089.62 200.236 1089.62 202.396C1089.62 204.556 1088.42 205.956 1086.7 205.956Z" fill="#5C2CFF"/>
<path d="M1028.76 14.735C1030.42 14.735 1031.94 14.015 1033.01 12.895L1031.3 11.359C1030.68 12.095 1029.77 12.591 1028.76 12.591C1026.9 12.591 1025.33 10.959 1025.33 9.03897C1025.33 7.13497 1026.9 5.50297 1028.76 5.50297C1029.75 5.50297 1030.68 5.99897 1031.3 6.73497L1033.01 5.19897C1031.94 4.06297 1030.42 3.35897 1028.76 3.35897C1025.59 3.35897 1022.9 5.95097 1022.9 9.03897C1022.9 12.127 1025.59 14.735 1028.76 14.735ZM1040.12 14.735C1043.28 14.735 1045.94 12.127 1045.94 9.03897C1045.94 5.95097 1043.28 3.35897 1040.12 3.35897C1036.95 3.35897 1034.26 5.95097 1034.26 9.03897C1034.26 12.127 1036.95 14.735 1040.12 14.735ZM1040.12 12.591C1038.26 12.591 1036.69 10.959 1036.69 9.03897C1036.69 7.13497 1038.26 5.50297 1040.12 5.50297C1041.96 5.50297 1043.52 7.13497 1043.52 9.03897C1043.52 10.959 1041.96 12.591 1040.12 12.591ZM1048.09 14.543H1052.04C1055.74 14.543 1058.36 12.255 1058.36 9.03897C1058.36 5.82297 1055.74 3.55097 1052.04 3.55097H1048.09V14.543ZM1050.46 12.399V5.69497H1052.34C1054.44 5.69497 1055.93 7.08697 1055.93 9.03897C1055.93 11.007 1054.44 12.399 1052.34 12.399H1050.46ZM1068.94 5.67897V3.55097H1060.48V14.543H1068.94V12.415H1062.85V9.99897H1068.38V7.87097H1062.85V5.67897H1068.94ZM1024.26 35.543H1030.05C1032.15 35.543 1033.65 34.327 1033.65 32.567C1033.65 31.351 1032.92 30.327 1031.64 29.751C1032.61 29.239 1033.17 28.423 1033.17 27.303C1033.17 25.703 1031.8 24.551 1029.83 24.551H1024.26V35.543ZM1026.61 28.983V26.567H1029.25C1030.13 26.567 1030.76 27.079 1030.76 27.767C1030.76 28.471 1030.13 28.983 1029.25 28.983H1026.61ZM1026.61 33.527V30.839H1029.6C1030.56 30.839 1031.24 31.399 1031.24 32.183C1031.24 32.967 1030.56 33.527 1029.6 33.527H1026.61ZM1040.54 35.735C1043.46 35.735 1045.52 33.687 1045.52 30.791V24.551H1043.15V30.695C1043.15 32.391 1042.06 33.591 1040.54 33.591C1039.01 33.591 1037.92 32.391 1037.92 30.695V24.551H1035.57V30.791C1035.57 33.687 1037.62 35.735 1040.54 35.735ZM1052.89 31.207H1055.43V32.887C1054.83 33.335 1054.04 33.591 1053.31 33.591C1051.42 33.591 1049.83 31.959 1049.83 30.039C1049.83 28.135 1051.42 26.503 1053.31 26.503C1054.31 26.503 1055.37 26.983 1056.03 27.735L1057.74 26.199C1056.65 25.047 1054.94 24.359 1053.31 24.359C1050.11 24.359 1047.4 26.951 1047.4 30.039C1047.4 33.127 1050.11 35.735 1053.31 35.735C1054.94 35.735 1056.65 35.047 1057.74 33.895V29.367H1052.89V31.207ZM1064.15 35.735C1066.82 35.735 1068.42 34.343 1068.42 32.247C1068.42 30.215 1066.86 29.511 1064.49 28.983C1062.79 28.599 1062.12 28.343 1062.12 27.543C1062.12 26.887 1062.74 26.359 1063.74 26.359C1064.79 26.359 1065.9 26.791 1066.89 27.591L1068.12 25.879C1066.98 24.919 1065.61 24.359 1063.82 24.359C1061.4 24.359 1059.74 25.751 1059.74 27.783C1059.74 29.911 1061.4 30.567 1063.72 31.095C1065.4 31.479 1066.04 31.719 1066.04 32.503C1066.04 33.191 1065.43 33.735 1064.23 33.735C1062.84 33.735 1061.66 33.191 1060.62 32.295L1059.27 33.911C1060.55 35.095 1062.23 35.735 1064.15 35.735Z" fill="#0F0B47"/>
</g>
<defs>
<clipPath id="clip0_4824_632">
<rect width="1175" height="212" fill="white"/>
</clipPath>
</defs>
</svg>
