<svg width="320" height="337" viewBox="0 0 320 337" fill="none" xmlns="http://www.w3.org/2000/svg">
<g clip-path="url(#clip0_4836_629)">
<path d="M54.6066 131.863C58.2666 131.863 60.6308 129.908 60.6308 127.203C60.6308 125.134 59.0622 123.929 57.3573 123.543C59.0849 123.043 60.2898 121.747 60.2898 119.951C60.2898 117.473 58.0847 115.677 54.5839 115.677C51.8105 115.677 49.9465 116.882 48.6507 118.451L50.583 120.497C51.6287 119.405 52.788 118.678 54.2429 118.678C55.7887 118.678 56.8799 119.405 56.8799 120.542C56.8799 121.656 55.8569 122.293 54.152 122.293L52.3561 122.27V125.134H54.152C56.2434 125.111 57.1981 125.725 57.1981 126.93C57.1981 128.044 56.1752 128.839 54.4702 128.839C52.9017 128.839 51.4241 128.18 50.3102 126.998L48.3325 129.226C49.6509 130.749 51.8105 131.863 54.6066 131.863ZM63.9312 131.567H67.7048L74.0245 118.473V115.95H62.4082V118.974H70.1372L63.9312 131.567ZM79.8733 123.793C82.1693 123.793 83.7833 122.042 83.7833 119.792C83.7833 117.587 82.2375 115.791 79.8733 115.791C77.5319 115.791 75.986 117.564 75.986 119.815C75.986 122.042 77.5319 123.793 79.8733 123.793ZM78.032 131.567H80.6462L91.5124 115.95H88.8754L78.032 131.567ZM79.8733 121.838C78.9413 121.838 78.2138 121.019 78.2138 119.792C78.2138 118.564 78.8958 117.769 79.8733 117.769C80.8281 117.769 81.5328 118.587 81.5328 119.792C81.5328 121.042 80.8281 121.838 79.8733 121.838ZM89.6256 131.817C91.9215 131.817 93.5128 130.067 93.5128 127.817C93.5128 125.611 91.9897 123.816 89.6256 123.816C87.3068 123.816 85.7156 125.589 85.7156 127.817C85.7156 130.044 87.3068 131.817 89.6256 131.817ZM89.6256 129.84C88.6708 129.84 87.9661 129.021 87.9661 127.817C87.9661 126.566 88.6481 125.771 89.6256 125.771C90.5576 125.771 91.285 126.589 91.285 127.817C91.285 129.044 90.6031 129.84 89.6256 129.84Z" fill="#5C2CFF"/>
<path opacity="0.5" d="M144.887 133.617C144.887 124.098 143.019 114.673 139.389 105.878C135.759 97.0837 130.439 89.0928 123.732 82.3619C117.025 75.6309 109.063 70.2916 100.3 66.6488C91.5373 63.0061 82.1453 61.1312 72.6604 61.1312C63.1755 61.1312 53.7834 63.0061 45.0205 66.6488C36.2576 70.2916 28.2954 75.6309 21.5886 82.3619C14.8818 89.0928 9.56161 97.0837 5.9319 105.878C2.30219 114.673 0.43399 124.098 0.43399 133.617H28.1689C28.1689 127.754 29.3197 121.947 31.5556 116.53C33.7915 111.113 37.0687 106.19 41.2002 102.044C45.3316 97.8977 50.2363 94.6087 55.6342 92.3647C61.0322 90.1208 66.8177 88.9659 72.6604 88.9659C78.5031 88.9659 84.2885 90.1208 89.6865 92.3647C95.0844 94.6087 99.9891 97.8977 104.121 102.044C108.252 106.19 111.529 111.113 113.765 116.53C116.001 121.947 117.152 127.754 117.152 133.617H144.887Z" fill="#D9D9D9"/>
<path d="M0.43399 133.617C0.43399 119.475 4.55629 105.641 12.293 93.8208C20.0298 82.0004 31.043 72.7095 43.9758 67.0928L54.9907 92.6382C47.024 96.0981 40.2399 101.821 35.4741 109.103C30.7083 116.384 28.1689 124.906 28.1689 133.617H0.43399Z" fill="#5C2CFF"/>
<path d="M33.0514 11.5H37.7574C39.4604 11.5 40.6824 10.512 40.6824 9.082C40.6824 8.094 40.0844 7.262 39.0444 6.794C39.8374 6.378 40.2924 5.715 40.2924 4.805C40.2924 3.505 39.1744 2.569 37.5754 2.569H33.0514V11.5ZM34.9624 6.17V4.207H37.1074C37.8224 4.207 38.3294 4.623 38.3294 5.182C38.3294 5.754 37.8224 6.17 37.1074 6.17H34.9624ZM34.9624 9.862V7.678H37.3934C38.1734 7.678 38.7194 8.133 38.7194 8.77C38.7194 9.407 38.1734 9.862 37.3934 9.862H34.9624ZM49.3102 4.298V2.569H42.4332V11.5H49.3102V9.771H44.3572V7.808H48.8552V6.079H44.3572V4.298H49.3102ZM55.3926 11.656C56.7446 11.656 57.9796 11.071 58.8506 10.161L57.4596 8.913C56.9526 9.511 56.2116 9.914 55.3926 9.914C53.8846 9.914 52.6106 8.588 52.6106 7.028C52.6106 5.481 53.8846 4.155 55.3926 4.155C56.1986 4.155 56.9526 4.558 57.4596 5.156L58.8506 3.908C57.9796 2.985 56.7446 2.413 55.3926 2.413C52.8186 2.413 50.6346 4.519 50.6346 7.028C50.6346 9.537 52.8186 11.656 55.3926 11.656ZM64.6221 11.656C67.1961 11.656 69.3541 9.537 69.3541 7.028C69.3541 4.519 67.1961 2.413 64.6221 2.413C62.0481 2.413 59.8641 4.519 59.8641 7.028C59.8641 9.537 62.0481 11.656 64.6221 11.656ZM64.6221 9.914C63.1141 9.914 61.8401 8.588 61.8401 7.028C61.8401 5.481 63.1141 4.155 64.6221 4.155C66.1171 4.155 67.3911 5.481 67.3911 7.028C67.3911 8.588 66.1171 9.914 64.6221 9.914ZM71.0993 11.5H73.0233V5.936L75.7793 10.98L78.5483 5.936V11.5H80.4593V2.569H78.5483L75.7793 7.613L73.0233 2.569H71.0993V11.5ZM82.7282 11.5H84.6522V2.569H82.7282V11.5ZM86.9176 11.5H88.8416V5.728L93.1446 11.5H95.0686V2.569H93.1446V8.341L88.8416 2.569H86.9176V11.5ZM101.254 7.977H103.321V9.342C102.827 9.706 102.19 9.914 101.592 9.914C100.058 9.914 98.7708 8.588 98.7708 7.028C98.7708 5.481 100.058 4.155 101.592 4.155C102.411 4.155 103.269 4.545 103.802 5.156L105.193 3.908C104.309 2.972 102.918 2.413 101.592 2.413C98.9918 2.413 96.7948 4.519 96.7948 7.028C96.7948 9.537 98.9918 11.656 101.592 11.656C102.918 11.656 104.309 11.097 105.193 10.161V6.482H101.254V7.977ZM37.4567 28.5H39.3807V19.569H37.4567V28.5ZM41.6461 28.5H43.5701V22.728L47.8731 28.5H49.7971V19.569H47.8731V25.341L43.5701 19.569H41.6461V28.5ZM58.5173 28.5H60.6753L57.0353 19.569H54.8903L51.2503 28.5H53.3953L54.0193 26.966H57.8933L58.5173 28.5ZM54.6303 25.471L55.9563 22.208L57.2823 25.471H54.6303ZM66.3614 28.656C67.7134 28.656 68.9484 28.071 69.8194 27.161L68.4284 25.913C67.9214 26.511 67.1804 26.914 66.3614 26.914C64.8534 26.914 63.5794 25.588 63.5794 24.028C63.5794 22.481 64.8534 21.155 66.3614 21.155C67.1674 21.155 67.9214 21.558 68.4284 22.156L69.8194 20.908C68.9484 19.985 67.7134 19.413 66.3614 19.413C63.7874 19.413 61.6034 21.519 61.6034 24.028C61.6034 26.537 63.7874 28.656 66.3614 28.656ZM73.4329 28.5H75.3439V21.298H78.1389V19.569H70.6509V21.298H73.4329V28.5ZM79.6686 28.5H81.5926V19.569H79.6686V28.5ZM90.3321 19.569L87.7841 25.861L85.2231 19.569H83.0651L86.7051 28.5H88.8501L92.4901 19.569H90.3321ZM100.841 21.298V19.569H93.9635V28.5H100.841V26.771H95.8875V24.808H100.386V23.079H95.8875V21.298H100.841Z" fill="#0F0B47"/>
<path opacity="0.5" d="M319.746 133.201C319.746 123.737 317.889 114.365 314.28 105.621C310.671 96.8765 305.381 88.9314 298.713 82.239C292.044 75.5465 284.127 70.2378 275.415 66.6159C266.702 62.994 257.364 61.1298 247.933 61.1298C238.502 61.1298 229.164 62.994 220.451 66.6159C211.739 70.2378 203.822 75.5465 197.154 82.239C190.485 88.9314 185.195 96.8765 181.586 105.621C177.978 114.365 176.12 123.737 176.12 133.201H203.696C203.696 127.371 204.84 121.598 207.064 116.212C209.287 110.825 212.545 105.931 216.653 101.808C220.761 97.6859 225.637 94.4157 231.004 92.1846C236.371 89.9535 242.124 88.8052 247.933 88.8052C253.742 88.8052 259.495 89.9535 264.862 92.1846C270.229 94.4157 275.105 97.6859 279.213 101.808C283.321 105.931 286.579 110.825 288.803 116.212C291.026 121.598 292.17 127.371 292.17 133.201H319.746Z" fill="#D9D9D9"/>
<path d="M176.12 133.201C176.12 120.678 179.372 108.371 185.554 97.4928C191.737 86.6147 200.637 77.5411 211.377 71.1663L225.415 94.9877C218.798 98.9146 213.316 104.504 209.508 111.205C205.699 117.906 203.696 125.487 203.696 133.201H176.12Z" fill="#5C2CFF"/>
<path d="M231.957 131.545C235.596 131.545 237.947 129.601 237.947 126.911C237.947 124.854 236.387 123.657 234.692 123.272C236.41 122.775 237.608 121.487 237.608 119.701C237.608 117.237 235.415 115.452 231.934 115.452C229.177 115.452 227.323 116.65 226.035 118.209L227.956 120.244C228.996 119.159 230.149 118.435 231.595 118.435C233.132 118.435 234.217 119.159 234.217 120.289C234.217 121.396 233.2 122.029 231.505 122.029L229.719 122.007V124.854H231.505C233.584 124.832 234.534 125.442 234.534 126.64C234.534 127.748 233.517 128.539 231.821 128.539C230.262 128.539 228.793 127.883 227.685 126.708L225.719 128.923C227.03 130.437 229.177 131.545 231.957 131.545ZM245.907 131.545C249.546 131.545 251.897 129.601 251.897 126.911C251.897 124.854 250.337 123.657 248.642 123.272C250.36 122.775 251.557 121.487 251.557 119.701C251.557 117.237 249.365 115.452 245.884 115.452C243.127 115.452 241.273 116.65 239.985 118.209L241.906 120.244C242.946 119.159 244.099 118.435 245.545 118.435C247.082 118.435 248.167 119.159 248.167 120.289C248.167 121.396 247.15 122.029 245.455 122.029L243.669 122.007V124.854H245.455C247.534 124.832 248.484 125.442 248.484 126.64C248.484 127.748 247.466 128.539 245.771 128.539C244.212 128.539 242.743 127.883 241.635 126.708L239.669 128.923C240.98 130.437 243.127 131.545 245.907 131.545ZM258.116 123.521C260.399 123.521 262.004 121.781 262.004 119.543C262.004 117.35 260.467 115.565 258.116 115.565C255.788 115.565 254.251 117.328 254.251 119.566C254.251 121.781 255.788 123.521 258.116 123.521ZM256.286 131.251H258.885L269.689 115.723H267.067L256.286 131.251ZM258.116 121.577C257.19 121.577 256.466 120.763 256.466 119.543C256.466 118.322 257.145 117.531 258.116 117.531C259.066 117.531 259.766 118.345 259.766 119.543C259.766 120.786 259.066 121.577 258.116 121.577ZM267.813 131.5C270.096 131.5 271.678 129.759 271.678 127.522C271.678 125.329 270.164 123.544 267.813 123.544C265.507 123.544 263.925 125.307 263.925 127.522C263.925 129.737 265.507 131.5 267.813 131.5ZM267.813 129.533C266.864 129.533 266.163 128.72 266.163 127.522C266.163 126.278 266.841 125.487 267.813 125.487C268.74 125.487 269.463 126.301 269.463 127.522C269.463 128.742 268.785 129.533 267.813 129.533Z" fill="#5C2CFF"/>
<path d="M219.778 16.1062C221.949 16.1062 223.249 14.9752 223.249 13.2722C223.249 11.6212 221.975 11.0492 220.051 10.6202C218.673 10.3082 218.127 10.1002 218.127 9.4502C218.127 8.9172 218.634 8.4882 219.44 8.4882C220.298 8.4882 221.195 8.83919 222.001 9.4892L223.002 8.09819C222.079 7.31819 220.961 6.86319 219.505 6.86319C217.542 6.86319 216.19 7.99419 216.19 9.6452C216.19 11.3742 217.542 11.9072 219.427 12.3362C220.792 12.6482 221.312 12.8432 221.312 13.4802C221.312 14.0392 220.818 14.4812 219.843 14.4812C218.712 14.4812 217.75 14.0392 216.905 13.3112L215.813 14.6242C216.853 15.5862 218.218 16.1062 219.778 16.1062ZM231.833 8.7482V7.01919H224.956V15.9502H231.833V14.2212H226.88V12.2582H231.378V10.5292H226.88V8.7482H231.833ZM237.916 16.1062C239.268 16.1062 240.503 15.5212 241.374 14.6112L239.983 13.3632C239.476 13.9612 238.735 14.3642 237.916 14.3642C236.408 14.3642 235.134 13.0382 235.134 11.4782C235.134 9.93119 236.408 8.6052 237.916 8.6052C238.722 8.6052 239.476 9.00819 239.983 9.60619L241.374 8.35819C240.503 7.43519 239.268 6.86319 237.916 6.86319C235.342 6.86319 233.158 8.9692 233.158 11.4782C233.158 13.9872 235.342 16.1062 237.916 16.1062ZM246.768 16.1062C249.134 16.1062 250.811 14.4422 250.811 12.0892V7.01919H248.887V12.0112C248.887 13.3892 248.003 14.3642 246.768 14.3642C245.52 14.3642 244.636 13.3892 244.636 12.0112V7.01919H242.725V12.0892C242.725 14.4422 244.389 16.1062 246.768 16.1062ZM260.257 10.0352C260.257 8.2672 258.84 7.01919 256.89 7.01919H252.873V15.9502H254.797V13.0512H255.954L257.995 15.9502H260.179L258.034 12.8952C259.373 12.5052 260.257 11.4392 260.257 10.0352ZM254.797 8.77419H256.695C257.644 8.77419 258.294 9.2682 258.294 10.0352C258.294 10.8022 257.644 11.2962 256.695 11.2962H254.797V8.77419ZM262.027 15.9502H263.951V7.01919H262.027V15.9502ZM268.283 15.9502H270.194V8.7482H272.989V7.01919H265.501V8.7482H268.283V15.9502ZM277.184 15.9502H279.121V12.7262L282.605 7.01919H280.46L278.146 10.9322L275.923 7.01919H273.687L277.184 12.7262V15.9502ZM199.819 24.0192L197.271 30.3112L194.71 24.0192H192.552L196.192 32.9502H198.337L201.977 24.0192H199.819ZM207.298 33.1062C209.664 33.1062 211.341 31.4422 211.341 29.0892V24.0192H209.417V29.0112C209.417 30.3892 208.533 31.3642 207.298 31.3642C206.05 31.3642 205.166 30.3892 205.166 29.0112V24.0192H203.255V29.0892C203.255 31.4422 204.919 33.1062 207.298 33.1062ZM213.403 32.9502H215.327V27.1782L219.63 32.9502H221.554V24.0192H219.63V29.7912L215.327 24.0192H213.403V32.9502ZM230.691 25.7482V24.0192H223.814V32.9502H230.691V31.2212H225.738V29.2582H230.236V27.5292H225.738V25.7482H230.691ZM239.932 27.0352C239.932 25.2672 238.515 24.0192 236.565 24.0192H232.548V32.9502H234.472V30.0512H235.629L237.67 32.9502H239.854L237.709 29.8952C239.048 29.5052 239.932 28.4392 239.932 27.0352ZM234.472 25.7742H236.37C237.319 25.7742 237.969 26.2682 237.969 27.0352C237.969 27.8022 237.319 28.2962 236.37 28.2962H234.472V25.7742ZM248.162 32.9502H250.32L246.68 24.0192H244.535L240.895 32.9502H243.04L243.664 31.4162H247.538L248.162 32.9502ZM244.275 29.9212L245.601 26.6582L246.927 29.9212H244.275ZM251.781 32.9502H256.487C258.19 32.9502 259.412 31.9622 259.412 30.5322C259.412 29.5442 258.814 28.7122 257.774 28.2442C258.567 27.8282 259.022 27.1652 259.022 26.2552C259.022 24.9552 257.904 24.0192 256.305 24.0192H251.781V32.9502ZM253.692 27.6202V25.6572H255.837C256.552 25.6572 257.059 26.0732 257.059 26.6322C257.059 27.2042 256.552 27.6202 255.837 27.6202H253.692ZM253.692 31.3122V29.1282H256.123C256.903 29.1282 257.449 29.5832 257.449 30.2202C257.449 30.8572 256.903 31.3122 256.123 31.3122H253.692ZM261.163 32.9502H263.087V24.0192H261.163V32.9502ZM267.277 31.2212V24.0192H265.353V32.9502H271.723V31.2212H267.277ZM273.275 32.9502H275.199V24.0192H273.275V32.9502ZM279.531 32.9502H281.442V25.7482H284.237V24.0192H276.749V25.7482H279.531V32.9502ZM285.767 32.9502H287.691V24.0192H285.767V32.9502ZM296.833 25.7482V24.0192H289.956V32.9502H296.833V31.2212H291.88V29.2582H296.378V27.5292H291.88V25.7482H296.833ZM301.993 33.1062C304.164 33.1062 305.464 31.9752 305.464 30.2722C305.464 28.6212 304.19 28.0492 302.266 27.6202C300.888 27.3082 300.342 27.1002 300.342 26.4502C300.342 25.9172 300.849 25.4882 301.655 25.4882C302.513 25.4882 303.41 25.8392 304.216 26.4892L305.217 25.0982C304.294 24.3182 303.176 23.8632 301.72 23.8632C299.757 23.8632 298.405 24.9942 298.405 26.6452C298.405 28.3742 299.757 28.9072 301.642 29.3362C303.007 29.6482 303.527 29.8432 303.527 30.4802C303.527 31.0392 303.033 31.4812 302.058 31.4812C300.927 31.4812 299.965 31.0392 299.12 30.3112L298.028 31.6242C299.068 32.5862 300.433 33.1062 301.993 33.1062Z" fill="#0F0B47"/>
</g>
<g clip-path="url(#clip1_4836_629)">
<path d="M230.994 209.201C232.346 209.201 233.581 208.616 234.452 207.706L233.061 206.458C232.554 207.056 231.813 207.459 230.994 207.459C229.486 207.459 228.212 206.133 228.212 204.573C228.212 203.026 229.486 201.7 230.994 201.7C231.8 201.7 232.554 202.103 233.061 202.701L234.452 201.453C233.581 200.53 232.346 199.958 230.994 199.958C228.42 199.958 226.236 202.064 226.236 204.573C226.236 207.082 228.42 209.201 230.994 209.201ZM240.224 209.201C242.798 209.201 244.956 207.082 244.956 204.573C244.956 202.064 242.798 199.958 240.224 199.958C237.65 199.958 235.466 202.064 235.466 204.573C235.466 207.082 237.65 209.201 240.224 209.201ZM240.224 207.459C238.716 207.459 237.442 206.133 237.442 204.573C237.442 203.026 238.716 201.7 240.224 201.7C241.719 201.7 242.993 203.026 242.993 204.573C242.993 206.133 241.719 207.459 240.224 207.459ZM246.701 209.045H249.912C252.915 209.045 255.047 207.186 255.047 204.573C255.047 201.96 252.915 200.114 249.912 200.114H246.701V209.045ZM248.625 207.303V201.856H250.159C251.862 201.856 253.071 202.987 253.071 204.573C253.071 206.172 251.862 207.303 250.159 207.303H248.625ZM263.645 201.843V200.114H256.768V209.045H263.645V207.316H258.692V205.353H263.19V203.624H258.692V201.843H263.645ZM227.34 226.045H232.046C233.749 226.045 234.971 225.057 234.971 223.627C234.971 222.639 234.373 221.807 233.333 221.339C234.126 220.923 234.581 220.26 234.581 219.35C234.581 218.05 233.463 217.114 231.864 217.114H227.34V226.045ZM229.251 220.715V218.752H231.396C232.111 218.752 232.618 219.168 232.618 219.727C232.618 220.299 232.111 220.715 231.396 220.715H229.251ZM229.251 224.407V222.223H231.682C232.462 222.223 233.008 222.678 233.008 223.315C233.008 223.952 232.462 224.407 231.682 224.407H229.251ZM240.57 226.201C242.936 226.201 244.613 224.537 244.613 222.184V217.114H242.689V222.106C242.689 223.484 241.805 224.459 240.57 224.459C239.322 224.459 238.438 223.484 238.438 222.106V217.114H236.527V222.184C236.527 224.537 238.191 226.201 240.57 226.201ZM250.601 222.522H252.668V223.887C252.174 224.251 251.537 224.459 250.939 224.459C249.405 224.459 248.118 223.133 248.118 221.573C248.118 220.026 249.405 218.7 250.939 218.7C251.758 218.7 252.616 219.09 253.149 219.701L254.54 218.453C253.656 217.517 252.265 216.958 250.939 216.958C248.339 216.958 246.142 219.064 246.142 221.573C246.142 224.082 248.339 226.201 250.939 226.201C252.265 226.201 253.656 225.642 254.54 224.706V221.027H250.601V222.522ZM259.753 226.201C261.924 226.201 263.224 225.07 263.224 223.367C263.224 221.716 261.95 221.144 260.026 220.715C258.648 220.403 258.102 220.195 258.102 219.545C258.102 219.012 258.609 218.583 259.415 218.583C260.273 218.583 261.17 218.934 261.976 219.584L262.977 218.193C262.054 217.413 260.936 216.958 259.48 216.958C257.517 216.958 256.165 218.089 256.165 219.74C256.165 221.469 257.517 222.002 259.402 222.431C260.767 222.743 261.287 222.938 261.287 223.575C261.287 224.134 260.793 224.576 259.818 224.576C258.687 224.576 257.725 224.134 256.88 223.406L255.788 224.719C256.828 225.681 258.193 226.201 259.753 226.201Z" fill="#0F0B47"/>
<path opacity="0.5" d="M144.887 337.287C144.887 327.814 143.028 318.434 139.416 309.683C135.803 300.931 130.509 292.979 123.835 286.281C117.161 279.582 109.237 274.269 100.517 270.644C91.7966 267.019 82.4502 265.153 73.0114 265.153C63.5726 265.153 54.2262 267.019 45.5059 270.644C36.7855 274.269 28.8621 279.582 22.1878 286.281C15.5136 292.979 10.2193 300.931 6.60721 309.683C2.99513 318.434 1.13602 327.814 1.13602 337.287H28.7362C28.7362 331.452 29.8814 325.674 32.1064 320.283C34.3314 314.892 37.5927 309.993 41.7041 305.867C45.8154 301.741 50.6963 298.468 56.068 296.235C61.4397 294.002 67.1971 292.853 73.0114 292.853C78.8257 292.853 84.583 294.002 89.9548 296.235C95.3265 298.468 100.207 301.741 104.319 305.867C108.43 309.993 111.691 314.892 113.916 320.283C116.141 325.674 117.287 331.452 117.287 337.287H144.887Z" fill="#D9D9D9"/>
<path d="M1.13602 337.287C1.13602 325.52 4.00418 313.932 9.4904 303.533C14.9766 293.134 22.9143 284.24 32.6114 277.626L48.125 300.536C42.1516 304.61 37.262 310.089 33.8825 316.495C30.5029 322.901 28.7362 330.039 28.7362 337.287H1.13602Z" fill="#5C2CFF"/>
<path opacity="0.5" d="M319.502 337.287C319.502 327.814 317.643 318.434 314.031 309.683C310.419 300.931 305.124 292.979 298.45 286.281C291.776 279.582 283.852 274.269 275.132 270.644C266.412 267.019 257.065 265.153 247.627 265.153C238.188 265.153 228.841 267.019 220.121 270.644C211.401 274.269 203.477 279.582 196.803 286.281C190.129 292.979 184.835 300.931 181.222 309.683C177.61 318.434 175.751 327.814 175.751 337.287H203.351C203.351 331.452 204.497 325.674 206.722 320.283C208.947 314.892 212.208 309.993 216.319 305.867C220.431 301.741 225.311 298.468 230.683 296.235C236.055 294.002 241.812 292.853 247.627 292.853C253.441 292.853 259.198 294.002 264.57 296.235C269.942 298.468 274.823 301.741 278.934 305.867C283.045 309.993 286.307 314.892 288.532 320.283C290.757 325.674 291.902 331.452 291.902 337.287H319.502Z" fill="#D9D9D9"/>
<path d="M175.751 337.287C175.751 326.669 178.087 316.182 182.592 306.574C187.097 296.966 193.659 288.475 201.812 281.707L219.405 303.05C214.383 307.219 210.34 312.449 207.565 318.368C204.79 324.286 203.351 330.746 203.351 337.287H175.751Z" fill="#5C2CFF"/>
<path d="M56.6473 335.614C60.2895 335.614 62.6422 333.669 62.6422 330.977C62.6422 328.918 61.0813 327.719 59.3846 327.335C61.1039 326.837 62.3029 325.548 62.3029 323.76C62.3029 321.295 60.1085 319.507 56.6247 319.507C53.8648 319.507 52.0098 320.706 50.7204 322.267L52.6432 324.303C53.6839 323.218 54.8376 322.494 56.2854 322.494C57.8237 322.494 58.9095 323.218 58.9095 324.349C58.9095 325.457 57.8916 326.091 56.1949 326.091L54.4078 326.068V328.918H56.1949C58.2761 328.896 59.2263 329.506 59.2263 330.705C59.2263 331.814 58.2083 332.606 56.5116 332.606C54.9507 332.606 53.4803 331.95 52.3718 330.773L50.4037 332.99C51.7157 334.506 53.8648 335.614 56.6473 335.614ZM68.2567 335.32H71.5821V319.779H68.9127L64.2526 322.901L65.6099 325.254L68.2567 323.602V335.32ZM78.5879 327.584C80.8727 327.584 82.4789 325.842 82.4789 323.602C82.4789 321.408 80.9406 319.621 78.5879 319.621C76.2578 319.621 74.7195 321.385 74.7195 323.625C74.7195 325.842 76.2578 327.584 78.5879 327.584ZM76.7555 335.32H79.3571L90.1704 319.779H87.5462L76.7555 335.32ZM78.5879 325.638C77.6604 325.638 76.9365 324.824 76.9365 323.602C76.9365 322.38 77.6152 321.589 78.5879 321.589C79.538 321.589 80.2393 322.403 80.2393 323.602C80.2393 324.846 79.538 325.638 78.5879 325.638ZM88.2928 335.569C90.5776 335.569 92.1611 333.827 92.1611 331.588C92.1611 329.393 90.6455 327.606 88.2928 327.606C85.9853 327.606 84.4018 329.371 84.4018 331.588C84.4018 333.805 85.9853 335.569 88.2928 335.569ZM88.2928 333.601C87.3426 333.601 86.6414 332.787 86.6414 331.588C86.6414 330.343 87.32 329.552 88.2928 329.552C89.2203 329.552 89.9442 330.366 89.9442 331.588C89.9442 332.809 89.2655 333.601 88.2928 333.601Z" fill="#5C2CFF"/>
<path d="M47.7874 203.543V196.341H45.8634V205.272H52.2334V203.543H47.7874ZM60.2463 205.272H62.4043L58.7643 196.341H56.6193L52.9793 205.272H55.1243L55.7483 203.738H59.6223L60.2463 205.272ZM56.3593 202.243L57.6853 198.98L59.0113 202.243H56.3593ZM68.0904 205.428C69.4424 205.428 70.6774 204.843 71.5484 203.933L70.1574 202.685C69.6504 203.283 68.9094 203.686 68.0904 203.686C66.5824 203.686 65.3084 202.36 65.3084 200.8C65.3084 199.253 66.5824 197.927 68.0904 197.927C68.8964 197.927 69.6504 198.33 70.1574 198.928L71.5484 197.68C70.6774 196.757 69.4424 196.185 68.0904 196.185C65.5164 196.185 63.3324 198.291 63.3324 200.8C63.3324 203.309 65.5164 205.428 68.0904 205.428ZM73.0949 205.272H75.0189V202.776L76.1369 201.58L78.8669 205.272H81.2069L77.4629 200.215L80.9469 196.341H78.6329L75.0189 200.436V196.341H73.0949V205.272ZM90.4214 205.428C92.9954 205.428 95.1534 203.309 95.1534 200.8C95.1534 198.291 92.9954 196.185 90.4214 196.185C87.8474 196.185 85.6634 198.291 85.6634 200.8C85.6634 203.309 87.8474 205.428 90.4214 205.428ZM90.4214 203.686C88.9134 203.686 87.6394 202.36 87.6394 200.8C87.6394 199.253 88.9134 197.927 90.4214 197.927C91.9164 197.927 93.1904 199.253 93.1904 200.8C93.1904 202.36 91.9164 203.686 90.4214 203.686ZM103.776 198.07V196.341H96.8986V205.272H98.8226V201.736H103.321V200.007H98.8226V198.07H103.776ZM14.2902 222.272H17.5012C20.5042 222.272 22.6362 220.413 22.6362 217.8C22.6362 215.187 20.5042 213.341 17.5012 213.341H14.2902V222.272ZM16.2142 220.53V215.083H17.7482C19.4512 215.083 20.6602 216.214 20.6602 217.8C20.6602 219.399 19.4512 220.53 17.7482 220.53H16.2142ZM28.5826 222.428C31.1566 222.428 33.3146 220.309 33.3146 217.8C33.3146 215.291 31.1566 213.185 28.5826 213.185C26.0086 213.185 23.8246 215.291 23.8246 217.8C23.8246 220.309 26.0086 222.428 28.5826 222.428ZM28.5826 220.686C27.0746 220.686 25.8006 219.36 25.8006 217.8C25.8006 216.253 27.0746 214.927 28.5826 214.927C30.0776 214.927 31.3516 216.253 31.3516 217.8C31.3516 219.36 30.0776 220.686 28.5826 220.686ZM39.2847 222.428C40.6367 222.428 41.8717 221.843 42.7427 220.933L41.3517 219.685C40.8447 220.283 40.1037 220.686 39.2847 220.686C37.7767 220.686 36.5027 219.36 36.5027 217.8C36.5027 216.253 37.7767 214.927 39.2847 214.927C40.0907 214.927 40.8447 215.33 41.3517 215.928L42.7427 214.68C41.8717 213.757 40.6367 213.185 39.2847 213.185C36.7107 213.185 34.5267 215.291 34.5267 217.8C34.5267 220.309 36.7107 222.428 39.2847 222.428ZM48.1372 222.428C50.5032 222.428 52.1802 220.764 52.1802 218.411V213.341H50.2562V218.333C50.2562 219.711 49.3722 220.686 48.1372 220.686C46.8892 220.686 46.0052 219.711 46.0052 218.333V213.341H44.0942V218.411C44.0942 220.764 45.7582 222.428 48.1372 222.428ZM54.2423 222.272H56.1663V216.708L58.9223 221.752L61.6913 216.708V222.272H63.6023V213.341H61.6913L58.9223 218.385L56.1663 213.341H54.2423V222.272ZM72.7482 215.07V213.341H65.8712V222.272H72.7482V220.543H67.7952V218.58H72.2932V216.851H67.7952V215.07H72.7482ZM74.6056 222.272H76.5296V216.5L80.8326 222.272H82.7566V213.341H80.8326V219.113L76.5296 213.341H74.6056V222.272ZM87.0828 222.272H88.9938V215.07H91.7888V213.341H84.3008V215.07H87.0828V222.272ZM99.7795 222.272H101.938L98.2975 213.341H96.1525L92.5125 222.272H94.6575L95.2815 220.738H99.1555L99.7795 222.272ZM95.8925 219.243L97.2185 215.98L98.5445 219.243H95.8925ZM105.466 222.272H107.377V215.07H110.172V213.341H102.684V215.07H105.466V222.272ZM111.701 222.272H113.625V213.341H111.701V222.272ZM120.116 222.428C122.69 222.428 124.848 220.309 124.848 217.8C124.848 215.291 122.69 213.185 120.116 213.185C117.542 213.185 115.358 215.291 115.358 217.8C115.358 220.309 117.542 222.428 120.116 222.428ZM120.116 220.686C118.608 220.686 117.334 219.36 117.334 217.8C117.334 216.253 118.608 214.927 120.116 214.927C121.611 214.927 122.885 216.253 122.885 217.8C122.885 219.36 121.611 220.686 120.116 220.686ZM126.593 222.272H128.517V216.5L132.82 222.272H134.744V213.341H132.82V219.113L128.517 213.341H126.593V222.272Z" fill="#0F0B47"/>
<path d="M227.546 335.32H239.287V332.312H232.704L235.532 330.117C238.247 328.149 239.152 326.543 239.152 324.462C239.152 321.543 236.754 319.507 233.451 319.507C230.94 319.507 228.972 320.593 227.433 322.539L229.56 324.597C230.691 323.308 231.845 322.539 233.36 322.539C234.627 322.539 235.713 323.308 235.713 324.597C235.713 325.683 235.125 326.701 233.27 328.172L227.546 332.606V335.32ZM247.733 335.592C251.149 335.592 253.976 333.986 253.976 331.158C253.976 329.371 252.755 328.013 250.922 327.289C252.483 326.611 253.592 325.48 253.592 323.738C253.592 321.068 250.832 319.507 247.733 319.507C244.701 319.507 241.896 321.001 241.896 323.738C241.896 325.502 243.005 326.633 244.543 327.289C242.756 327.968 241.489 329.325 241.489 331.158C241.489 333.963 244.294 335.592 247.733 335.592ZM247.733 326.136C246.511 326.045 245.222 325.367 245.222 324.168C245.222 323.104 246.24 322.313 247.733 322.313C249.226 322.313 250.266 323.104 250.266 324.168C250.266 325.321 248.954 326.045 247.733 326.136ZM247.733 332.787C246.081 332.787 244.882 331.972 244.882 330.796C244.882 329.574 246.398 328.805 247.733 328.76C249.067 328.805 250.606 329.574 250.606 330.796C250.606 331.972 249.384 332.787 247.733 332.787ZM260.142 327.584C262.426 327.584 264.033 325.842 264.033 323.602C264.033 321.408 262.494 319.621 260.142 319.621C257.812 319.621 256.273 321.385 256.273 323.625C256.273 325.842 257.812 327.584 260.142 327.584ZM258.309 335.32H260.911L271.724 319.779H269.1L258.309 335.32ZM260.142 325.638C259.214 325.638 258.49 324.824 258.49 323.602C258.49 322.38 259.169 321.589 260.142 321.589C261.092 321.589 261.793 322.403 261.793 323.602C261.793 324.846 261.092 325.638 260.142 325.638ZM269.847 335.569C272.131 335.569 273.715 333.827 273.715 331.588C273.715 329.393 272.199 327.606 269.847 327.606C267.539 327.606 265.956 329.371 265.956 331.588C265.956 333.805 267.539 335.569 269.847 335.569ZM269.847 333.601C268.896 333.601 268.195 332.787 268.195 331.588C268.195 330.343 268.874 329.552 269.847 329.552C270.774 329.552 271.498 330.366 271.498 331.588C271.498 332.809 270.819 333.601 269.847 333.601Z" fill="#5C2CFF"/>
</g>
<defs>
<clipPath id="clip0_4836_629">
<rect width="320" height="134" fill="white"/>
</clipPath>
<clipPath id="clip1_4836_629">
<rect width="319" height="144" fill="white" transform="translate(1 193)"/>
</clipPath>
</defs>
</svg>
