<svg width="266" height="199" viewBox="0 0 266 199" fill="none" xmlns="http://www.w3.org/2000/svg">
<path d="M1 198.001L257 198" stroke="#0F0B47"/>
<path d="M29.0891 92H38.5126L25.1626 58.2815H15.7391L2.38913 92H11.8126L13.874 86.8465H27.0277L29.0891 92ZM16.3772 80.5151L20.4509 70.159L24.5246 80.5151H16.3772ZM50.0531 92H58.4459V72.0732L73.1702 92H81.5139V58.2815H73.1702V78.2083L58.4459 58.2815H50.0531V92ZM95.7845 92H104.177V72.0732L118.902 92H127.245V58.2815H118.902V78.2083L104.177 58.2815H95.7845V92ZM156.437 92.589C165.664 92.589 172.093 86.2575 172.093 77.2267V58.2815H163.75V76.834C163.75 81.5949 160.707 84.9814 156.437 84.9814C152.216 84.9814 149.173 81.5949 149.173 76.834V58.2815H140.78V77.2267C140.78 86.2575 147.258 92.589 156.437 92.589ZM209.618 92H219.042L205.692 58.2815H196.268L182.918 92H192.342L194.403 86.8465H207.557L209.618 92ZM196.906 80.5151L200.98 70.159L205.054 80.5151H196.906ZM238.975 84.4906V58.2815H230.582V92H255.221V84.4906H238.975ZM18.2913 156.589C26.6351 156.589 31.7885 152.368 31.7885 145.595C31.7885 139.263 26.9295 137.104 19.3711 135.484C14.3648 134.404 12.7452 133.717 12.7452 131.656C12.7452 129.987 14.2667 128.711 16.9661 128.711C20.1073 128.711 23.4939 129.938 26.586 132.294L30.856 126.306C27.2731 123.361 22.8558 121.693 17.1625 121.693C9.50585 121.693 4.30328 126.012 4.30328 132.49C4.30328 139.263 9.65309 141.227 16.868 142.846C21.776 144.024 23.3466 144.466 23.3466 146.478C23.3466 148.294 21.727 149.57 18.5858 149.57C14.463 149.57 10.7819 148 7.49353 145.3L2.7327 150.945C6.85548 154.626 12.3035 156.589 18.2913 156.589ZM62.466 156.589C71.6931 156.589 78.1227 150.258 78.1227 141.227V122.281H69.779V140.834C69.779 145.595 66.736 148.981 62.466 148.981C58.245 148.981 55.202 145.595 55.202 140.834V122.281H46.8092V141.227C46.8092 150.258 53.2878 156.589 62.466 156.589ZM123.746 156L115.746 144.662C120.507 142.994 123.55 139.018 123.55 133.865C123.55 127.042 118.2 122.281 110.74 122.281H95.0828V156H103.476V145.448H106.813L114.224 156H123.746ZM103.476 129.938H110.003C112.899 129.938 114.911 131.509 114.911 133.865C114.911 136.22 112.899 137.791 110.003 137.791H103.476V129.938ZM163.746 122.281L155.157 144.024L146.519 122.281H137.095L150.396 156H159.869L173.17 122.281H163.746ZM214.793 129.791V122.281H188.241V156H214.793V148.491H196.633V142.552H213.124V135.042H196.633V129.791H214.793ZM241.579 156H250.021V144.368L263.077 122.281H253.751L245.8 136.515L238.193 122.281H228.524L241.579 144.368V156Z" fill="#0C093A"/>
<path d="M9.11364 23.2654C11.4142 23.2654 13.5156 22.27 14.9977 20.7216L12.6308 18.598C11.7681 19.6156 10.5072 20.3013 9.11364 20.3013C6.54766 20.3013 4.37986 18.045 4.37986 15.3906C4.37986 12.7582 6.54766 10.5019 9.11364 10.5019C10.4851 10.5019 11.7681 11.1877 12.6308 12.2052L14.9977 10.0816C13.5156 8.51108 11.4142 7.53778 9.11364 7.53778C4.73378 7.53778 1.01754 11.1213 1.01754 15.3906C1.01754 19.6598 4.73378 23.2654 9.11364 23.2654ZM20.9472 23H24.2211V13.1785L31.5429 23H34.8168V7.80323H31.5429V17.6247L24.2211 7.80323H20.9472V23ZM49.1681 23.2654C51.4687 23.2654 53.5701 22.27 55.0522 20.7216L52.6853 18.598C51.8226 19.6156 50.5617 20.3013 49.1681 20.3013C46.6022 20.3013 44.4343 18.045 44.4343 15.3906C44.4343 12.7582 46.6022 10.5019 49.1681 10.5019C50.5396 10.5019 51.8226 11.1877 52.6853 12.2052L55.0522 10.0816C53.5701 8.51108 51.4687 7.53778 49.1681 7.53778C44.7883 7.53778 41.072 11.1213 41.072 15.3906C41.072 19.6598 44.7883 23.2654 49.1681 23.2654ZM72.7035 10.7453V7.80323H61.0017V23H64.2756V16.9832H71.9292V14.0412H64.2756V10.7453H72.7035ZM87.1639 23H98.6444V20.058H92.2073L94.9724 17.9123C97.6269 15.9878 98.5117 14.4173 98.5117 12.3822C98.5117 9.52863 96.1669 7.53778 92.9373 7.53778C90.4819 7.53778 88.5575 8.59956 87.0533 10.5019L89.1326 12.5149C90.2386 11.254 91.3668 10.5019 92.8488 10.5019C94.0876 10.5019 95.1494 11.254 95.1494 12.5149C95.1494 13.5767 94.5742 14.5721 92.7603 16.0099L87.1639 20.3455V23ZM110.995 23.2654C114.999 23.2654 117.808 20.0137 117.808 15.3906C117.808 10.7895 114.999 7.53778 110.995 7.53778C106.991 7.53778 104.16 10.7895 104.16 15.3906C104.16 20.0137 106.991 23.2654 110.995 23.2654ZM110.995 20.3013C108.96 20.3013 107.522 18.2441 107.522 15.3906C107.522 12.537 108.96 10.5019 110.995 10.5019C113.03 10.5019 114.468 12.537 114.468 15.3906C114.468 18.2441 113.03 20.3013 110.995 20.3013ZM123.092 23H134.573V20.058H128.136L130.901 17.9123C133.555 15.9878 134.44 14.4173 134.44 12.3822C134.44 9.52863 132.095 7.53778 128.866 7.53778C126.41 7.53778 124.486 8.59956 122.982 10.5019L125.061 12.5149C126.167 11.254 127.295 10.5019 128.777 10.5019C130.016 10.5019 131.078 11.254 131.078 12.5149C131.078 13.5767 130.503 14.5721 128.689 16.0099L123.092 20.3455V23ZM139.933 23H151.414V20.058H144.977L147.742 17.9123C150.396 15.9878 151.281 14.4173 151.281 12.3822C151.281 9.52863 148.936 7.53778 145.707 7.53778C143.251 7.53778 141.327 8.59956 139.823 10.5019L141.902 12.5149C143.008 11.254 144.136 10.5019 145.618 10.5019C146.857 10.5019 147.919 11.254 147.919 12.5149C147.919 13.5767 147.344 14.5721 145.53 16.0099L139.933 20.3455V23Z" fill="#5C2CFF"/>
</svg>
