<svg width="329" height="381" viewBox="0 0 329 381" fill="none" xmlns="http://www.w3.org/2000/svg">
<rect width="43" height="70" transform="matrix(-1.71604e-07 -1 -1 1.11343e-08 71 78)" fill="#1B0085"/>
<rect width="42" height="70" transform="matrix(-1.71604e-07 -1 -1 1.11343e-08 71 120)" fill="#542AED"/>
<rect width="69" height="70" transform="matrix(-1.71604e-07 -1 -1 1.11343e-08 71 189)" fill="#8B62FF"/>
<rect width="38" height="70" transform="matrix(-1.71604e-07 -1 -1 1.11343e-08 71 227)" fill="#A585FF"/>
<rect width="50" height="70" transform="matrix(-1.70117e-07 -1 -1 1.12316e-08 71 277)" fill="#D5C9FF"/>
<rect width="24" height="70" transform="matrix(-1.42476e-07 -1 -1 1.34105e-08 71 301)" fill="#EBEBEB"/>
<path d="M7.574 138H14.84V136.138H10.766L12.516 134.78C14.196 133.562 14.756 132.568 14.756 131.28C14.756 129.474 13.272 128.214 11.228 128.214C9.674 128.214 8.456 128.886 7.504 130.09L8.82 131.364C9.52 130.566 10.234 130.09 11.172 130.09C11.956 130.09 12.628 130.566 12.628 131.364C12.628 132.036 12.264 132.666 11.116 133.576L7.574 136.32V138ZM20.7806 131.784C19.8706 131.784 18.9886 132.134 18.4006 132.708C18.5826 131.084 19.4226 130.034 20.6826 130.034C21.4946 130.034 22.0546 130.328 22.6426 130.818L23.6226 129.25C22.8386 128.62 21.8726 128.214 20.6826 128.214C18.0086 128.214 16.2586 130.356 16.2586 133.352C16.2586 136.152 17.5466 138.168 20.3466 138.168C22.4466 138.168 24.0286 136.81 24.0286 134.836C24.0286 132.932 22.5586 131.784 20.7806 131.784ZM20.2346 136.418C19.1566 136.418 18.6386 135.76 18.4566 134.584C18.7506 133.898 19.3946 133.464 20.1786 133.464C21.1166 133.464 21.9006 134.01 21.9006 134.934C21.9006 135.704 21.2566 136.418 20.2346 136.418ZM27.7734 133.212C29.1874 133.212 30.1814 132.134 30.1814 130.748C30.1814 129.39 29.2294 128.284 27.7734 128.284C26.3314 128.284 25.3794 129.376 25.3794 130.762C25.3794 132.134 26.3314 133.212 27.7734 133.212ZM26.6394 138H28.2494L34.9414 128.382H33.3174L26.6394 138ZM27.7734 132.008C27.1994 132.008 26.7514 131.504 26.7514 130.748C26.7514 129.992 27.1714 129.502 27.7734 129.502C28.3614 129.502 28.7954 130.006 28.7954 130.748C28.7954 131.518 28.3614 132.008 27.7734 132.008ZM33.7794 138.154C35.1934 138.154 36.1734 137.076 36.1734 135.69C36.1734 134.332 35.2354 133.226 33.7794 133.226C32.3514 133.226 31.3714 134.318 31.3714 135.69C31.3714 137.062 32.3514 138.154 33.7794 138.154ZM33.7794 136.936C33.1914 136.936 32.7574 136.432 32.7574 135.69C32.7574 134.92 33.1774 134.43 33.7794 134.43C34.3534 134.43 34.8014 134.934 34.8014 135.69C34.8014 136.446 34.3814 136.936 33.7794 136.936Z" fill="white"/>
<path d="M9.786 95H11.844V85.382H10.192L7.308 87.314L8.148 88.77L9.786 87.748V95ZM18.2376 88.784C17.3276 88.784 16.4456 89.134 15.8576 89.708C16.0396 88.084 16.8796 87.034 18.1396 87.034C18.9516 87.034 19.5116 87.328 20.0996 87.818L21.0796 86.25C20.2956 85.62 19.3296 85.214 18.1396 85.214C15.4656 85.214 13.7156 87.356 13.7156 90.352C13.7156 93.152 15.0036 95.168 17.8036 95.168C19.9036 95.168 21.4856 93.81 21.4856 91.836C21.4856 89.932 20.0156 88.784 18.2376 88.784ZM17.6916 93.418C16.6136 93.418 16.0956 92.76 15.9136 91.584C16.2076 90.898 16.8516 90.464 17.6356 90.464C18.5736 90.464 19.3576 91.01 19.3576 91.934C19.3576 92.704 18.7136 93.418 17.6916 93.418ZM25.2304 90.212C26.6444 90.212 27.6384 89.134 27.6384 87.748C27.6384 86.39 26.6864 85.284 25.2304 85.284C23.7884 85.284 22.8364 86.376 22.8364 87.762C22.8364 89.134 23.7884 90.212 25.2304 90.212ZM24.0964 95H25.7064L32.3984 85.382H30.7744L24.0964 95ZM25.2304 89.008C24.6564 89.008 24.2084 88.504 24.2084 87.748C24.2084 86.992 24.6284 86.502 25.2304 86.502C25.8184 86.502 26.2524 87.006 26.2524 87.748C26.2524 88.518 25.8184 89.008 25.2304 89.008ZM31.2364 95.154C32.6504 95.154 33.6304 94.076 33.6304 92.69C33.6304 91.332 32.6924 90.226 31.2364 90.226C29.8084 90.226 28.8284 91.318 28.8284 92.69C28.8284 94.062 29.8084 95.154 31.2364 95.154ZM31.2364 93.936C30.6484 93.936 30.2144 93.432 30.2144 92.69C30.2144 91.92 30.6344 91.43 31.2364 91.43C31.8104 91.43 32.2584 91.934 32.2584 92.69C32.2584 93.446 31.8384 93.936 31.2364 93.936Z" fill="white"/>
<path d="M9.786 52H11.844V42.382H10.192L7.308 44.314L8.148 45.77L9.786 44.748V52ZM18.2376 45.784C17.3276 45.784 16.4456 46.134 15.8576 46.708C16.0396 45.084 16.8796 44.034 18.1396 44.034C18.9516 44.034 19.5116 44.328 20.0996 44.818L21.0796 43.25C20.2956 42.62 19.3296 42.214 18.1396 42.214C15.4656 42.214 13.7156 44.356 13.7156 47.352C13.7156 50.152 15.0036 52.168 17.8036 52.168C19.9036 52.168 21.4856 50.81 21.4856 48.836C21.4856 46.932 20.0156 45.784 18.2376 45.784ZM17.6916 50.418C16.6136 50.418 16.0956 49.76 15.9136 48.584C16.2076 47.898 16.8516 47.464 17.6356 47.464C18.5736 47.464 19.3576 48.01 19.3576 48.934C19.3576 49.704 18.7136 50.418 17.6916 50.418ZM25.2304 47.212C26.6444 47.212 27.6384 46.134 27.6384 44.748C27.6384 43.39 26.6864 42.284 25.2304 42.284C23.7884 42.284 22.8364 43.376 22.8364 44.762C22.8364 46.134 23.7884 47.212 25.2304 47.212ZM24.0964 52H25.7064L32.3984 42.382H30.7744L24.0964 52ZM25.2304 46.008C24.6564 46.008 24.2084 45.504 24.2084 44.748C24.2084 43.992 24.6284 43.502 25.2304 43.502C25.8184 43.502 26.2524 44.006 26.2524 44.748C26.2524 45.518 25.8184 46.008 25.2304 46.008ZM31.2364 52.154C32.6504 52.154 33.6304 51.076 33.6304 49.69C33.6304 48.332 32.6924 47.226 31.2364 47.226C29.8084 47.226 28.8284 48.318 28.8284 49.69C28.8284 51.062 29.8084 52.154 31.2364 52.154ZM31.2364 50.936C30.6484 50.936 30.2144 50.432 30.2144 49.69C30.2144 48.92 30.6344 48.43 31.2364 48.43C31.8104 48.43 32.2584 48.934 32.2584 49.69C32.2584 50.446 31.8384 50.936 31.2364 50.936Z" fill="white"/>
<path d="M9.786 207H11.844V197.382H10.192L7.308 199.314L8.148 200.77L9.786 199.748V207ZM18.3216 207H20.3796V205.04H21.6536V203.304H20.3796V197.396H17.8876L13.4216 203.444L13.6176 205.04H18.3216V207ZM15.5916 203.304L18.3216 199.58V203.304H15.5916ZM25.2714 202.212C26.6854 202.212 27.6794 201.134 27.6794 199.748C27.6794 198.39 26.7274 197.284 25.2714 197.284C23.8294 197.284 22.8774 198.376 22.8774 199.762C22.8774 201.134 23.8294 202.212 25.2714 202.212ZM24.1374 207H25.7474L32.4394 197.382H30.8154L24.1374 207ZM25.2714 201.008C24.6974 201.008 24.2494 200.504 24.2494 199.748C24.2494 198.992 24.6694 198.502 25.2714 198.502C25.8594 198.502 26.2934 199.006 26.2934 199.748C26.2934 200.518 25.8594 201.008 25.2714 201.008ZM31.2774 207.154C32.6914 207.154 33.6714 206.076 33.6714 204.69C33.6714 203.332 32.7334 202.226 31.2774 202.226C29.8494 202.226 28.8694 203.318 28.8694 204.69C28.8694 206.062 29.8494 207.154 31.2774 207.154ZM31.2774 205.936C30.6894 205.936 30.2554 205.432 30.2554 204.69C30.2554 203.92 30.6754 203.43 31.2774 203.43C31.8514 203.43 32.2994 203.934 32.2994 204.69C32.2994 205.446 31.8794 205.936 31.2774 205.936Z" fill="white"/>
<path d="M9.786 246H11.844V236.382H10.192L7.308 238.314L8.148 239.77L9.786 238.748V246ZM17.2716 236.214C15.1716 236.214 13.5896 237.572 13.5896 239.546C13.5896 241.45 15.0596 242.598 16.8376 242.598C17.7476 242.598 18.6296 242.248 19.2176 241.674C19.0356 243.298 18.1956 244.348 16.9356 244.348C16.1236 244.348 15.5636 244.054 14.9756 243.564L13.9956 245.132C14.7796 245.762 15.7456 246.168 16.9356 246.168C19.6096 246.168 21.3596 244.026 21.3596 241.03C21.3596 238.23 20.0716 236.214 17.2716 236.214ZM17.4396 240.918C16.5016 240.918 15.7176 240.372 15.7176 239.448C15.7176 238.678 16.3616 237.964 17.3836 237.964C18.4616 237.964 18.9796 238.622 19.1616 239.798C18.8676 240.484 18.2236 240.918 17.4396 240.918ZM25.2304 241.212C26.6444 241.212 27.6384 240.134 27.6384 238.748C27.6384 237.39 26.6864 236.284 25.2304 236.284C23.7884 236.284 22.8364 237.376 22.8364 238.762C22.8364 240.134 23.7884 241.212 25.2304 241.212ZM24.0964 246H25.7064L32.3984 236.382H30.7744L24.0964 246ZM25.2304 240.008C24.6564 240.008 24.2084 239.504 24.2084 238.748C24.2084 237.992 24.6284 237.502 25.2304 237.502C25.8184 237.502 26.2524 238.006 26.2524 238.748C26.2524 239.518 25.8184 240.008 25.2304 240.008ZM31.2364 246.154C32.6504 246.154 33.6304 245.076 33.6304 243.69C33.6304 242.332 32.6924 241.226 31.2364 241.226C29.8084 241.226 28.8284 242.318 28.8284 243.69C28.8284 245.062 29.8084 246.154 31.2364 246.154ZM31.2364 244.936C30.6484 244.936 30.2144 244.432 30.2144 243.69C30.2144 242.92 30.6344 242.43 31.2364 242.43C31.8104 242.43 32.2584 242.934 32.2584 243.69C32.2584 244.446 31.8384 244.936 31.2364 244.936Z" fill="#0F0B47"/>
<path d="M11.256 283.214C9.156 283.214 7.574 284.572 7.574 286.546C7.574 288.45 9.044 289.598 10.822 289.598C11.732 289.598 12.614 289.248 13.202 288.674C13.02 290.298 12.18 291.348 10.92 291.348C10.108 291.348 9.548 291.054 8.96 290.564L7.98 292.132C8.764 292.762 9.73 293.168 10.92 293.168C13.594 293.168 15.344 291.026 15.344 288.03C15.344 285.23 14.056 283.214 11.256 283.214ZM11.424 287.918C10.486 287.918 9.702 287.372 9.702 286.448C9.702 285.678 10.346 284.964 11.368 284.964C12.446 284.964 12.964 285.622 13.146 286.798C12.852 287.484 12.208 287.918 11.424 287.918ZM19.2148 288.212C20.6288 288.212 21.6228 287.134 21.6228 285.748C21.6228 284.39 20.6708 283.284 19.2148 283.284C17.7728 283.284 16.8208 284.376 16.8208 285.762C16.8208 287.134 17.7728 288.212 19.2148 288.212ZM18.0808 293H19.6908L26.3828 283.382H24.7588L18.0808 293ZM19.2148 287.008C18.6408 287.008 18.1928 286.504 18.1928 285.748C18.1928 284.992 18.6128 284.502 19.2148 284.502C19.8028 284.502 20.2368 285.006 20.2368 285.748C20.2368 286.518 19.8028 287.008 19.2148 287.008ZM25.2208 293.154C26.6348 293.154 27.6148 292.076 27.6148 290.69C27.6148 289.332 26.6768 288.226 25.2208 288.226C23.7928 288.226 22.8128 289.318 22.8128 290.69C22.8128 292.062 23.7928 293.154 25.2208 293.154ZM25.2208 291.936C24.6328 291.936 24.1988 291.432 24.1988 290.69C24.1988 289.92 24.6188 289.43 25.2208 289.43C25.7948 289.43 26.2428 289.934 26.2428 290.69C26.2428 291.446 25.8228 291.936 25.2208 291.936Z" fill="#0F0B47"/>
<rect width="26.6" height="70" transform="matrix(-1.71604e-07 -1 -1 1.11343e-08 245 61.9199)" fill="#1B0085"/>
<rect width="23.94" height="70" transform="matrix(-1.71604e-07 -1 -1 1.11343e-08 245 85.8599)" fill="#542AED"/>
<rect width="42.56" height="70" transform="matrix(-1.71604e-07 -1 -1 1.11343e-08 245 128.42)" fill="#8B62FF"/>
<rect width="34.58" height="70" transform="matrix(-1.71604e-07 -1 -1 1.11343e-08 245 163)" fill="#A585FF"/>
<rect width="74.48" height="70" transform="matrix(-1.70117e-07 -1 -1 1.12316e-08 245 237.16)" fill="#D5C9FF"/>
<rect width="63.84" height="70" transform="matrix(-1.42476e-07 -1 -1 1.34105e-08 245 301)" fill="#EBEBEB"/>
<path d="M183.786 104H185.844V94.382H184.192L181.308 96.314L182.148 97.77L183.786 96.748V104ZM192.238 97.784C191.328 97.784 190.446 98.134 189.858 98.708C190.04 97.084 190.88 96.034 192.14 96.034C192.952 96.034 193.512 96.328 194.1 96.818L195.08 95.25C194.296 94.62 193.33 94.214 192.14 94.214C189.466 94.214 187.716 96.356 187.716 99.352C187.716 102.152 189.004 104.168 191.804 104.168C193.904 104.168 195.486 102.81 195.486 100.836C195.486 98.932 194.016 97.784 192.238 97.784ZM191.692 102.418C190.614 102.418 190.096 101.76 189.914 100.584C190.208 99.898 190.852 99.464 191.636 99.464C192.574 99.464 193.358 100.01 193.358 100.934C193.358 101.704 192.714 102.418 191.692 102.418ZM199.23 99.212C200.644 99.212 201.638 98.134 201.638 96.748C201.638 95.39 200.686 94.284 199.23 94.284C197.788 94.284 196.836 95.376 196.836 96.762C196.836 98.134 197.788 99.212 199.23 99.212ZM198.096 104H199.706L206.398 94.382H204.774L198.096 104ZM199.23 98.008C198.656 98.008 198.208 97.504 198.208 96.748C198.208 95.992 198.628 95.502 199.23 95.502C199.818 95.502 200.252 96.006 200.252 96.748C200.252 97.518 199.818 98.008 199.23 98.008ZM205.236 104.154C206.65 104.154 207.63 103.076 207.63 101.69C207.63 100.332 206.692 99.226 205.236 99.226C203.808 99.226 202.828 100.318 202.828 101.69C202.828 103.062 203.808 104.154 205.236 104.154ZM205.236 102.936C204.648 102.936 204.214 102.432 204.214 101.69C204.214 100.92 204.634 100.43 205.236 100.43C205.81 100.43 206.258 100.934 206.258 101.69C206.258 102.446 205.838 102.936 205.236 102.936Z" fill="white"/>
<path d="M185.256 68.214C183.156 68.214 181.574 69.572 181.574 71.546C181.574 73.45 183.044 74.598 184.822 74.598C185.732 74.598 186.614 74.248 187.202 73.674C187.02 75.298 186.18 76.348 184.92 76.348C184.108 76.348 183.548 76.054 182.96 75.564L181.98 77.132C182.764 77.762 183.73 78.168 184.92 78.168C187.594 78.168 189.344 76.026 189.344 73.03C189.344 70.23 188.056 68.214 185.256 68.214ZM185.424 72.918C184.486 72.918 183.702 72.372 183.702 71.448C183.702 70.678 184.346 69.964 185.368 69.964C186.446 69.964 186.964 70.622 187.146 71.798C186.852 72.484 186.208 72.918 185.424 72.918ZM193.215 73.212C194.629 73.212 195.623 72.134 195.623 70.748C195.623 69.39 194.671 68.284 193.215 68.284C191.773 68.284 190.821 69.376 190.821 70.762C190.821 72.134 191.773 73.212 193.215 73.212ZM192.081 78H193.691L200.383 68.382H198.759L192.081 78ZM193.215 72.008C192.641 72.008 192.193 71.504 192.193 70.748C192.193 69.992 192.613 69.502 193.215 69.502C193.803 69.502 194.237 70.006 194.237 70.748C194.237 71.518 193.803 72.008 193.215 72.008ZM199.221 78.154C200.635 78.154 201.615 77.076 201.615 75.69C201.615 74.332 200.677 73.226 199.221 73.226C197.793 73.226 196.813 74.318 196.813 75.69C196.813 77.062 197.793 78.154 199.221 78.154ZM199.221 76.936C198.633 76.936 198.199 76.432 198.199 75.69C198.199 74.92 198.619 74.43 199.221 74.43C199.795 74.43 200.243 74.934 200.243 75.69C200.243 76.446 199.823 76.936 199.221 76.936Z" fill="white"/>
<path d="M183.786 52H185.844V42.382H184.192L181.308 44.314L182.148 45.77L183.786 44.748V52ZM192.014 52.168C194.548 52.168 196.326 50.11 196.326 47.184C196.326 44.272 194.548 42.214 192.014 42.214C189.48 42.214 187.688 44.272 187.688 47.184C187.688 50.11 189.48 52.168 192.014 52.168ZM192.014 50.292C190.726 50.292 189.816 48.99 189.816 47.184C189.816 45.378 190.726 44.09 192.014 44.09C193.302 44.09 194.212 45.378 194.212 47.184C194.212 48.99 193.302 50.292 192.014 50.292ZM200.16 47.212C201.574 47.212 202.568 46.134 202.568 44.748C202.568 43.39 201.616 42.284 200.16 42.284C198.718 42.284 197.766 43.376 197.766 44.762C197.766 46.134 198.718 47.212 200.16 47.212ZM199.026 52H200.636L207.328 42.382H205.704L199.026 52ZM200.16 46.008C199.586 46.008 199.138 45.504 199.138 44.748C199.138 43.992 199.558 43.502 200.16 43.502C200.748 43.502 201.182 44.006 201.182 44.748C201.182 45.518 200.748 46.008 200.16 46.008ZM206.166 52.154C207.58 52.154 208.56 51.076 208.56 49.69C208.56 48.332 207.622 47.226 206.166 47.226C204.738 47.226 203.758 48.318 203.758 49.69C203.758 51.062 204.738 52.154 206.166 52.154ZM206.166 50.936C205.578 50.936 205.144 50.432 205.144 49.69C205.144 48.92 205.564 48.43 206.166 48.43C206.74 48.43 207.188 48.934 207.188 49.69C207.188 50.446 206.768 50.936 206.166 50.936Z" fill="white"/>
<path d="M183.786 145H185.844V135.382H184.192L181.308 137.314L182.148 138.77L183.786 137.748V145ZM191.258 145.182C193.512 145.182 194.968 143.978 194.968 142.312C194.968 141.038 194.002 140.296 192.952 140.058C194.016 139.75 194.758 138.952 194.758 137.846C194.758 136.32 193.4 135.214 191.244 135.214C189.536 135.214 188.388 135.956 187.59 136.922L188.78 138.182C189.424 137.51 190.138 137.062 191.034 137.062C191.986 137.062 192.658 137.51 192.658 138.21C192.658 138.896 192.028 139.288 190.978 139.288L189.872 139.274V141.038H190.978C192.266 141.024 192.854 141.402 192.854 142.144C192.854 142.83 192.224 143.32 191.174 143.32C190.208 143.32 189.298 142.914 188.612 142.186L187.394 143.558C188.206 144.496 189.536 145.182 191.258 145.182ZM198.82 140.212C200.234 140.212 201.228 139.134 201.228 137.748C201.228 136.39 200.276 135.284 198.82 135.284C197.378 135.284 196.426 136.376 196.426 137.762C196.426 139.134 197.378 140.212 198.82 140.212ZM197.686 145H199.296L205.988 135.382H204.364L197.686 145ZM198.82 139.008C198.246 139.008 197.798 138.504 197.798 137.748C197.798 136.992 198.218 136.502 198.82 136.502C199.408 136.502 199.842 137.006 199.842 137.748C199.842 138.518 199.408 139.008 198.82 139.008ZM204.826 145.154C206.24 145.154 207.22 144.076 207.22 142.69C207.22 141.332 206.282 140.226 204.826 140.226C203.398 140.226 202.418 141.318 202.418 142.69C202.418 144.062 203.398 145.154 204.826 145.154ZM204.826 143.936C204.238 143.936 203.804 143.432 203.804 142.69C203.804 141.92 204.224 141.43 204.826 141.43C205.4 141.43 205.848 141.934 205.848 142.69C205.848 143.446 205.428 143.936 204.826 143.936Z" fill="white"/>
<path d="M181.574 181H188.84V179.138H184.766L186.516 177.78C188.196 176.562 188.756 175.568 188.756 174.28C188.756 172.474 187.272 171.214 185.228 171.214C183.674 171.214 182.456 171.886 181.504 173.09L182.82 174.364C183.52 173.566 184.234 173.09 185.172 173.09C185.956 173.09 186.628 173.566 186.628 174.364C186.628 175.036 186.264 175.666 185.116 176.576L181.574 179.32V181ZM194.067 181.168C196.181 181.168 197.931 180.174 197.931 178.424C197.931 177.318 197.175 176.478 196.041 176.03C197.007 175.61 197.693 174.91 197.693 173.832C197.693 172.18 195.985 171.214 194.067 171.214C192.191 171.214 190.455 172.138 190.455 173.832C190.455 174.924 191.141 175.624 192.093 176.03C190.987 176.45 190.203 177.29 190.203 178.424C190.203 180.16 191.939 181.168 194.067 181.168ZM194.067 175.316C193.311 175.26 192.513 174.84 192.513 174.098C192.513 173.44 193.143 172.95 194.067 172.95C194.991 172.95 195.635 173.44 195.635 174.098C195.635 174.812 194.823 175.26 194.067 175.316ZM194.067 179.432C193.045 179.432 192.303 178.928 192.303 178.2C192.303 177.444 193.241 176.968 194.067 176.94C194.893 176.968 195.845 177.444 195.845 178.2C195.845 178.928 195.089 179.432 194.067 179.432ZM201.746 176.212C203.16 176.212 204.154 175.134 204.154 173.748C204.154 172.39 203.202 171.284 201.746 171.284C200.304 171.284 199.352 172.376 199.352 173.762C199.352 175.134 200.304 176.212 201.746 176.212ZM200.612 181H202.222L208.914 171.382H207.29L200.612 181ZM201.746 175.008C201.172 175.008 200.724 174.504 200.724 173.748C200.724 172.992 201.144 172.502 201.746 172.502C202.334 172.502 202.768 173.006 202.768 173.748C202.768 174.518 202.334 175.008 201.746 175.008ZM207.752 181.154C209.166 181.154 210.146 180.076 210.146 178.69C210.146 177.332 209.208 176.226 207.752 176.226C206.324 176.226 205.344 177.318 205.344 178.69C205.344 180.062 206.324 181.154 207.752 181.154ZM207.752 179.936C207.164 179.936 206.73 179.432 206.73 178.69C206.73 177.92 207.15 177.43 207.752 177.43C208.326 177.43 208.774 177.934 208.774 178.69C208.774 179.446 208.354 179.936 207.752 179.936Z" fill="#0F0B47"/>
<path d="M181.574 255H188.84V253.138H184.766L186.516 251.78C188.196 250.562 188.756 249.568 188.756 248.28C188.756 246.474 187.272 245.214 185.228 245.214C183.674 245.214 182.456 245.886 181.504 247.09L182.82 248.364C183.52 247.566 184.234 247.09 185.172 247.09C185.956 247.09 186.628 247.566 186.628 248.364C186.628 249.036 186.264 249.666 185.116 250.576L181.574 253.32V255ZM194.865 255H196.923V253.04H198.197V251.304H196.923V245.396H194.431L189.965 251.444L190.161 253.04H194.865V255ZM192.135 251.304L194.865 247.58V251.304H192.135ZM201.814 250.212C203.228 250.212 204.222 249.134 204.222 247.748C204.222 246.39 203.27 245.284 201.814 245.284C200.372 245.284 199.42 246.376 199.42 247.762C199.42 249.134 200.372 250.212 201.814 250.212ZM200.68 255H202.29L208.982 245.382H207.358L200.68 255ZM201.814 249.008C201.24 249.008 200.792 248.504 200.792 247.748C200.792 246.992 201.212 246.502 201.814 246.502C202.402 246.502 202.836 247.006 202.836 247.748C202.836 248.518 202.402 249.008 201.814 249.008ZM207.82 255.154C209.234 255.154 210.214 254.076 210.214 252.69C210.214 251.332 209.276 250.226 207.82 250.226C206.392 250.226 205.412 251.318 205.412 252.69C205.412 254.062 206.392 255.154 207.82 255.154ZM207.82 253.936C207.232 253.936 206.798 253.432 206.798 252.69C206.798 251.92 207.218 251.43 207.82 251.43C208.394 251.43 208.842 251.934 208.842 252.69C208.842 253.446 208.422 253.936 207.82 253.936Z" fill="#0F0B47"/>
<path d="M328 35L0.999994 35" stroke="#0F0B47" stroke-linecap="square"/>
<path d="M71.0007 227L154.999 227L155 35L71.0007 35" stroke="#0F0B47" stroke-width="0.5" stroke-linecap="square" stroke-dasharray="10 10"/>
<path d="M248 163L327.791 163L327.791 35L248 35" stroke="#0F0B47" stroke-width="0.5" stroke-linecap="square" stroke-dasharray="10 10"/>
<path d="M86.632 139H92.008L99.596 123.376V119.764H84.868V124.048H94.08L86.632 139ZM101.692 139H116.672V134.716H109.028L112.052 132.56C115.412 130.264 116.476 128.276 116.476 125.728C116.476 122.06 113.452 119.428 109.14 119.428C105.976 119.428 103.484 120.744 101.44 123.208L104.436 126.176C105.892 124.636 107.236 123.768 109.028 123.768C110.428 123.768 111.576 124.608 111.576 125.924C111.576 127.1 110.96 128.164 108.804 129.788L101.692 135.108V139ZM124.372 129.48C127.284 129.48 129.3 127.324 129.3 124.524C129.3 121.808 127.368 119.568 124.372 119.568C121.404 119.568 119.472 121.78 119.472 124.524C119.472 127.324 121.432 129.48 124.372 129.48ZM122.048 139H125.66L139.1 119.764H135.488L122.048 139ZM124.372 126.764C123.336 126.764 122.552 125.896 122.552 124.524C122.552 123.124 123.308 122.284 124.372 122.284C125.408 122.284 126.22 123.152 126.22 124.524C126.22 125.924 125.436 126.764 124.372 126.764ZM136.72 139.308C139.632 139.308 141.648 137.124 141.648 134.352C141.648 131.608 139.716 129.368 136.748 129.368C133.808 129.368 131.82 131.552 131.82 134.352C131.82 137.096 133.78 139.308 136.72 139.308ZM136.748 136.592C135.684 136.592 134.9 135.724 134.9 134.352C134.9 132.924 135.656 132.112 136.72 132.112C137.756 132.112 138.568 132.98 138.568 134.352C138.568 135.752 137.784 136.592 136.748 136.592Z" fill="#5C2CFF"/>
<path d="M265.584 109H270.372V105.332H272.808V101.356H270.372V89.792H264.548L255.84 101.692L256.26 105.332H265.584V109ZM260.796 101.356L265.584 94.748V101.356H260.796ZM282.858 109.336C287.198 109.336 290.838 107.404 290.838 103.792C290.838 101.664 289.438 100.012 287.198 99.06C289.102 98.192 290.334 96.792 290.334 94.692C290.334 91.332 286.834 89.428 282.858 89.428C278.966 89.428 275.41 91.276 275.41 94.692C275.41 96.876 276.726 98.248 278.518 99.06C276.362 99.928 274.906 101.58 274.906 103.792C274.906 107.376 278.49 109.336 282.858 109.336ZM282.858 97.436C281.458 97.352 280.142 96.568 280.142 95.364C280.142 94.244 281.206 93.376 282.858 93.376C284.51 93.376 285.602 94.244 285.602 95.364C285.602 96.54 284.258 97.352 282.858 97.436ZM282.858 105.36C281.01 105.36 279.75 104.52 279.75 103.26C279.75 102 281.318 101.216 282.858 101.132C284.398 101.216 285.994 102 285.994 103.26C285.994 104.52 284.678 105.36 282.858 105.36ZM298.379 99.48C301.291 99.48 303.307 97.324 303.307 94.524C303.307 91.808 301.375 89.568 298.379 89.568C295.411 89.568 293.479 91.78 293.479 94.524C293.479 97.324 295.439 99.48 298.379 99.48ZM296.055 109H299.667L313.107 89.764H309.495L296.055 109ZM298.379 96.764C297.343 96.764 296.559 95.896 296.559 94.524C296.559 93.124 297.315 92.284 298.379 92.284C299.415 92.284 300.227 93.152 300.227 94.524C300.227 95.924 299.443 96.764 298.379 96.764ZM310.727 109.308C313.639 109.308 315.655 107.124 315.655 104.352C315.655 101.608 313.723 99.368 310.755 99.368C307.815 99.368 305.827 101.552 305.827 104.352C305.827 107.096 307.787 109.308 310.727 109.308ZM310.755 106.592C309.691 106.592 308.907 105.724 308.907 104.352C308.907 102.924 309.663 102.112 310.727 102.112C311.763 102.112 312.575 102.98 312.575 104.352C312.575 105.752 311.791 106.592 310.755 106.592Z" fill="#5C2CFF"/>
<path d="M7.16 3.46V2.13H1.87V9H7.16V7.67H3.35V6.16H6.81V4.83H3.35V3.46H7.16ZM8.58875 9H10.0688V4.56L13.3788 9H14.8588V2.13H13.3788V6.57L10.0688 2.13H8.58875V9ZM16.5966 9H19.0666C21.3766 9 23.0166 7.57 23.0166 5.56C23.0166 3.55 21.3766 2.13 19.0666 2.13H16.5966V9ZM18.0766 7.66V3.47H19.2566C20.5666 3.47 21.4966 4.34 21.4966 5.56C21.4966 6.79 20.5666 7.66 19.2566 7.66H18.0766ZM30.0253 9.12C31.8453 9.12 33.1353 7.84 33.1353 6.03V2.13H31.6553V5.97C31.6553 7.03 30.9753 7.78 30.0253 7.78C29.0653 7.78 28.3853 7.03 28.3853 5.97V2.13H26.9153V6.03C26.9153 7.84 28.1953 9.12 30.0253 9.12ZM37.2616 9.12C38.9316 9.12 39.9316 8.25 39.9316 6.94C39.9316 5.67 38.9516 5.23 37.4716 4.9C36.4116 4.66 35.9916 4.5 35.9916 4C35.9916 3.59 36.3816 3.26 37.0016 3.26C37.6616 3.26 38.3516 3.53 38.9716 4.03L39.7416 2.96C39.0316 2.36 38.1716 2.01 37.0516 2.01C35.5416 2.01 34.5016 2.88 34.5016 4.15C34.5016 5.48 35.5416 5.89 36.9916 6.22C38.0416 6.46 38.4416 6.61 38.4416 7.1C38.4416 7.53 38.0616 7.87 37.3116 7.87C36.4416 7.87 35.7016 7.53 35.0516 6.97L34.2116 7.98C35.0116 8.72 36.0616 9.12 37.2616 9.12ZM46.535 3.46V2.13H41.245V9H46.535V7.67H42.725V6.16H46.185V4.83H42.725V3.46H46.535ZM53.6438 4.45C53.6438 3.09 52.5538 2.13 51.0538 2.13H47.9638V9H49.4438V6.77H50.3338L51.9038 9H53.5838L51.9338 6.65C52.9638 6.35 53.6438 5.53 53.6438 4.45ZM49.4438 3.48H50.9038C51.6338 3.48 52.1338 3.86 52.1338 4.45C52.1338 5.04 51.6338 5.42 50.9038 5.42H49.4438V3.48ZM57.5448 9.12C59.2148 9.12 60.2148 8.25 60.2148 6.94C60.2148 5.67 59.2348 5.23 57.7548 4.9C56.6948 4.66 56.2748 4.5 56.2748 4C56.2748 3.59 56.6648 3.26 57.2848 3.26C57.9448 3.26 58.6348 3.53 59.2548 4.03L60.0248 2.96C59.3148 2.36 58.4548 2.01 57.3348 2.01C55.8248 2.01 54.7848 2.88 54.7848 4.15C54.7848 5.48 55.8248 5.89 57.2748 6.22C58.3248 6.46 58.7248 6.61 58.7248 7.1C58.7248 7.53 58.3448 7.87 57.5948 7.87C56.7248 7.87 55.9848 7.53 55.3348 6.97L54.4948 7.98C55.2948 8.72 56.3448 9.12 57.5448 9.12Z" fill="#0F0B47"/>
<path d="M176.87 9H178.35V4.56L181.66 9H183.14V2.13H181.66V6.57L178.35 2.13H176.87V9ZM188.128 9.12C190.108 9.12 191.768 7.49 191.768 5.56C191.768 3.63 190.108 2.01 188.128 2.01C186.148 2.01 184.468 3.63 184.468 5.56C184.468 7.49 186.148 9.12 188.128 9.12ZM188.128 7.78C186.968 7.78 185.988 6.76 185.988 5.56C185.988 4.37 186.968 3.35 188.128 3.35C189.278 3.35 190.258 4.37 190.258 5.56C190.258 6.76 189.278 7.78 188.128 7.78ZM193.11 9H194.59V4.56L197.9 9H199.38V2.13H197.9V6.57L194.59 2.13H193.11V9ZM200.948 6.87H203.688V5.63H200.948V6.87ZM210.549 3.46V2.13H205.259V9H210.549V7.67H206.739V6.16H210.199V4.83H206.739V3.46H210.549ZM211.977 9H213.457V4.56L216.767 9H218.247V2.13H216.767V6.57L213.457 2.13H211.977V9ZM219.985 9H222.455C224.765 9 226.405 7.57 226.405 5.56C226.405 3.55 224.765 2.13 222.455 2.13H219.985V9ZM221.465 7.66V3.47H222.645C223.955 3.47 224.885 4.34 224.885 5.56C224.885 6.79 223.955 7.66 222.645 7.66H221.465ZM233.414 9.12C235.234 9.12 236.524 7.84 236.524 6.03V2.13H235.044V5.97C235.044 7.03 234.364 7.78 233.414 7.78C232.454 7.78 231.774 7.03 231.774 5.97V2.13H230.304V6.03C230.304 7.84 231.584 9.12 233.414 9.12ZM240.65 9.12C242.32 9.12 243.32 8.25 243.32 6.94C243.32 5.67 242.34 5.23 240.86 4.9C239.8 4.66 239.38 4.5 239.38 4C239.38 3.59 239.77 3.26 240.39 3.26C241.05 3.26 241.74 3.53 242.36 4.03L243.13 2.96C242.42 2.36 241.56 2.01 240.44 2.01C238.93 2.01 237.89 2.88 237.89 4.15C237.89 5.48 238.93 5.89 240.38 6.22C241.43 6.46 241.83 6.61 241.83 7.1C241.83 7.53 241.45 7.87 240.7 7.87C239.83 7.87 239.09 7.53 238.44 6.97L237.6 7.98C238.4 8.72 239.45 9.12 240.65 9.12ZM249.924 3.46V2.13H244.634V9H249.924V7.67H246.114V6.16H249.574V4.83H246.114V3.46H249.924ZM257.032 4.45C257.032 3.09 255.942 2.13 254.442 2.13H251.352V9H252.832V6.77H253.722L255.292 9H256.972L255.322 6.65C256.352 6.35 257.032 5.53 257.032 4.45ZM252.832 3.48H254.292C255.022 3.48 255.522 3.86 255.522 4.45C255.522 5.04 255.022 5.42 254.292 5.42H252.832V3.48ZM260.933 9.12C262.603 9.12 263.603 8.25 263.603 6.94C263.603 5.67 262.623 5.23 261.143 4.9C260.083 4.66 259.663 4.5 259.663 4C259.663 3.59 260.053 3.26 260.673 3.26C261.333 3.26 262.023 3.53 262.643 4.03L263.413 2.96C262.703 2.36 261.843 2.01 260.723 2.01C259.213 2.01 258.173 2.88 258.173 4.15C258.173 5.48 259.213 5.89 260.663 6.22C261.713 6.46 262.113 6.61 262.113 7.1C262.113 7.53 261.733 7.87 260.983 7.87C260.113 7.87 259.373 7.53 258.723 6.97L257.883 7.98C258.683 8.72 259.733 9.12 260.933 9.12Z" fill="#0F0B47"/>
<path d="M228.872 368H230.728C232.472 368 233.704 366.856 233.704 365.248C233.704 363.64 232.472 362.504 230.728 362.504H228.872V368ZM229.496 367.432V363.072H230.728C232.104 363.072 233.072 363.976 233.072 365.248C233.072 366.528 232.104 367.432 230.728 367.432H229.496ZM236.62 368.096C237.788 368.096 238.748 367.12 238.748 365.928C238.748 364.736 237.788 363.768 236.62 363.768C235.444 363.768 234.484 364.736 234.484 365.928C234.484 367.12 235.444 368.096 236.62 368.096ZM236.62 367.56C235.788 367.56 235.108 366.824 235.108 365.928C235.108 365.032 235.788 364.304 236.62 364.304C237.444 364.304 238.124 365.032 238.124 365.928C238.124 366.824 237.444 367.56 236.62 367.56ZM241.742 363.768C241.15 363.768 240.622 364.08 240.382 364.52V363.864H239.782V368H240.382V365.368C240.382 364.784 240.958 364.304 241.662 364.304C242.27 364.304 242.694 364.768 242.694 365.448V368H243.294V365.368C243.294 364.416 242.662 363.768 241.742 363.768ZM244.875 364.432C245.355 363.832 245.491 363.56 245.491 363.24C245.491 362.872 245.307 362.6 245.003 362.6C244.747 362.6 244.563 362.8 244.563 363.024C244.563 363.264 244.755 363.464 244.995 363.464C244.931 363.712 244.795 363.96 244.579 364.208L244.875 364.432ZM248.429 367.392C248.341 367.488 248.181 367.56 247.997 367.56C247.757 367.56 247.549 367.344 247.549 367.04V364.4H248.565V363.864H247.549V362.728H246.949V363.864H246.301V364.4H246.949V367.04C246.949 367.656 247.365 368.096 247.957 368.096C248.237 368.096 248.509 368 248.725 367.832L248.429 367.392ZM251.79 368H252.39V366.904L253.134 366.168L254.566 368H255.318L253.558 365.76L255.422 363.864H254.654L252.39 366.152V362.408H251.79V368ZM258.14 363.768C257.548 363.768 257.02 364.08 256.78 364.52V363.864H256.18V368H256.78V365.368C256.78 364.784 257.356 364.304 258.06 364.304C258.668 364.304 259.092 364.768 259.092 365.448V368H259.692V365.368C259.692 364.416 259.06 363.768 258.14 363.768ZM262.761 368.096C263.929 368.096 264.889 367.12 264.889 365.928C264.889 364.736 263.929 363.768 262.761 363.768C261.585 363.768 260.625 364.736 260.625 365.928C260.625 367.12 261.585 368.096 262.761 368.096ZM262.761 367.56C261.929 367.56 261.249 366.824 261.249 365.928C261.249 365.032 261.929 364.304 262.761 364.304C263.585 364.304 264.265 365.032 264.265 365.928C264.265 366.824 263.585 367.56 262.761 367.56ZM266.739 368H267.307L268.419 364.696L269.515 368H270.083L271.475 363.864H270.835L269.803 367.2L268.675 363.864H268.155L267.027 367.2L265.995 363.864H265.355L266.739 368ZM276.008 368.592H276.688L279.496 362.056H278.816L276.008 368.592ZM230.656 373.768C230.064 373.768 229.536 374.08 229.296 374.52V373.864H228.696V378H229.296V375.368C229.296 374.784 229.872 374.304 230.576 374.304C231.184 374.304 231.608 374.768 231.608 375.448V378H232.208V375.368C232.208 374.416 231.576 373.768 230.656 373.768ZM235.277 378.096C236.445 378.096 237.405 377.12 237.405 375.928C237.405 374.736 236.445 373.768 235.277 373.768C234.101 373.768 233.141 374.736 233.141 375.928C233.141 377.12 234.101 378.096 235.277 378.096ZM235.277 377.56C234.445 377.56 233.765 376.824 233.765 375.928C233.765 375.032 234.445 374.304 235.277 374.304C236.101 374.304 236.781 375.032 236.781 375.928C236.781 376.824 236.101 377.56 235.277 377.56ZM240.038 377.392C239.95 377.488 239.79 377.56 239.606 377.56C239.366 377.56 239.158 377.344 239.158 377.04V374.4H240.174V373.864H239.158V372.728H238.558V373.864H237.91V374.4H238.558V377.04C238.558 377.656 238.974 378.096 239.566 378.096C239.846 378.096 240.118 378 240.334 377.832L240.038 377.392ZM244.679 378.096C245.535 378.096 246.191 377.608 246.191 376.848C246.191 376.064 245.503 375.84 244.839 375.632C244.071 375.384 243.767 375.272 243.767 374.912C243.767 374.512 244.151 374.304 244.615 374.304C244.983 374.304 245.391 374.432 245.807 374.696L246.095 374.232C245.655 373.944 245.127 373.768 244.615 373.768C243.791 373.768 243.167 374.232 243.167 374.984C243.167 375.576 243.551 375.872 244.551 376.16C245.111 376.32 245.591 376.464 245.591 376.912C245.591 377.304 245.223 377.56 244.679 377.56C244.223 377.56 243.751 377.384 243.279 377.04L242.967 377.48C243.463 377.88 244.103 378.096 244.679 378.096ZM250.035 373.864V376.496C250.035 377.08 249.459 377.56 248.755 377.56C248.147 377.56 247.723 377.096 247.723 376.416V373.864H247.123V376.496C247.123 377.448 247.755 378.096 248.675 378.096C249.267 378.096 249.795 377.784 250.035 377.344V378H250.635V373.864H250.035ZM252.624 374.672V373.864H252.024V378H252.624V375.688C252.624 374.88 253.288 374.304 254.224 374.304V373.768C253.464 373.768 252.872 374.12 252.624 374.672ZM256.94 377.56C256.124 377.56 255.556 376.968 255.468 376.16H258.852C258.852 374.712 258.14 373.768 256.892 373.768C255.78 373.768 254.852 374.688 254.852 375.92C254.852 377.192 255.844 378.096 256.948 378.096C257.524 378.096 258.252 377.848 258.612 377.456L258.244 377.064C257.988 377.344 257.428 377.56 256.94 377.56ZM256.916 374.304C257.74 374.304 258.18 374.88 258.26 375.624H255.476C255.588 374.824 256.18 374.304 256.916 374.304Z" fill="#0F0B47"/>
<circle cx="217.277" cy="365.277" r="4.27743" fill="#EBEBEB"/>
<path d="M228.272 341H232.064V340.408H229.272L230.712 339.16C231.64 338.36 232.008 337.768 232.008 337.024C232.008 336.04 231.208 335.408 230.256 335.408C229.392 335.408 228.776 335.816 228.32 336.464L228.76 336.824C229.136 336.312 229.592 335.968 230.232 335.968C230.816 335.968 231.376 336.36 231.376 337.032C231.376 337.576 231.056 338.104 230.28 338.768L228.272 340.48V341ZM236.775 341H237.399V336.096H239.247V335.504H234.927V336.096H236.775V341ZM241.917 341.096C243.085 341.096 244.045 340.12 244.045 338.928C244.045 337.736 243.085 336.768 241.917 336.768C240.741 336.768 239.781 337.736 239.781 338.928C239.781 340.12 240.741 341.096 241.917 341.096ZM241.917 340.56C241.085 340.56 240.405 339.824 240.405 338.928C240.405 338.032 241.085 337.304 241.917 337.304C242.741 337.304 243.421 338.032 243.421 338.928C243.421 339.824 242.741 340.56 241.917 340.56ZM246.855 341.096C248.023 341.096 248.983 340.12 248.983 338.928C248.983 337.736 248.023 336.768 246.855 336.768C245.679 336.768 244.719 337.736 244.719 338.928C244.719 340.12 245.679 341.096 246.855 341.096ZM246.855 340.56C246.023 340.56 245.343 339.824 245.343 338.928C245.343 338.032 246.023 337.304 246.855 337.304C247.679 337.304 248.359 338.032 248.359 338.928C248.359 339.824 247.679 340.56 246.855 340.56ZM250.016 341H250.616V335.408H250.016V341ZM253.289 341.096C254.145 341.096 254.801 340.608 254.801 339.848C254.801 339.064 254.113 338.84 253.449 338.632C252.681 338.384 252.377 338.272 252.377 337.912C252.377 337.512 252.761 337.304 253.225 337.304C253.593 337.304 254.001 337.432 254.417 337.696L254.705 337.232C254.265 336.944 253.737 336.768 253.225 336.768C252.401 336.768 251.777 337.232 251.777 337.984C251.777 338.576 252.161 338.872 253.161 339.16C253.721 339.32 254.201 339.464 254.201 339.912C254.201 340.304 253.833 340.56 253.289 340.56C252.833 340.56 252.361 340.384 251.889 340.04L251.576 340.48C252.073 340.88 252.713 341.096 253.289 341.096Z" fill="#0F0B47"/>
<circle cx="217.277" cy="338.277" r="4.27743" fill="#8B62FF"/>
<path d="M17.392 368H18.016V362.504H17.512L16.16 363.424L16.432 363.888L17.392 363.264V368ZM23.1105 368H23.7345V363.096H25.5825V362.504H21.2625V363.096H23.1105V368ZM28.2533 368.096C29.4213 368.096 30.3813 367.12 30.3813 365.928C30.3813 364.736 29.4213 363.768 28.2533 363.768C27.0773 363.768 26.1173 364.736 26.1173 365.928C26.1173 367.12 27.0773 368.096 28.2533 368.096ZM28.2533 367.56C27.4213 367.56 26.7413 366.824 26.7413 365.928C26.7413 365.032 27.4213 364.304 28.2533 364.304C29.0773 364.304 29.7573 365.032 29.7573 365.928C29.7573 366.824 29.0773 367.56 28.2533 367.56ZM33.1908 368.096C34.3588 368.096 35.3188 367.12 35.3188 365.928C35.3188 364.736 34.3588 363.768 33.1908 363.768C32.0148 363.768 31.0548 364.736 31.0548 365.928C31.0548 367.12 32.0148 368.096 33.1908 368.096ZM33.1908 367.56C32.3588 367.56 31.6788 366.824 31.6788 365.928C31.6788 365.032 32.3588 364.304 33.1908 364.304C34.0148 364.304 34.6948 365.032 34.6948 365.928C34.6948 366.824 34.0148 367.56 33.1908 367.56ZM36.3523 368H36.9523V362.408H36.3523V368Z" fill="#0F0B47"/>
<circle cx="5.27743" cy="365.277" r="4.27743" fill="#A585FF"/>
<path d="M132.768 368.096C134.104 368.096 135.048 366.92 135.048 365.248C135.048 363.584 134.104 362.408 132.768 362.408C131.424 362.408 130.48 363.584 130.48 365.248C130.48 366.92 131.424 368.096 132.768 368.096ZM132.768 367.52C131.8 367.52 131.112 366.576 131.112 365.248C131.112 363.92 131.8 362.984 132.768 362.984C133.736 362.984 134.416 363.92 134.416 365.248C134.416 366.576 133.736 367.52 132.768 367.52ZM139.782 368H140.406V363.096H142.254V362.504H137.934V363.096H139.782V368ZM144.925 368.096C146.093 368.096 147.053 367.12 147.053 365.928C147.053 364.736 146.093 363.768 144.925 363.768C143.749 363.768 142.789 364.736 142.789 365.928C142.789 367.12 143.749 368.096 144.925 368.096ZM144.925 367.56C144.093 367.56 143.413 366.824 143.413 365.928C143.413 365.032 144.093 364.304 144.925 364.304C145.749 364.304 146.429 365.032 146.429 365.928C146.429 366.824 145.749 367.56 144.925 367.56ZM149.863 368.096C151.031 368.096 151.991 367.12 151.991 365.928C151.991 364.736 151.031 363.768 149.863 363.768C148.687 363.768 147.727 364.736 147.727 365.928C147.727 367.12 148.687 368.096 149.863 368.096ZM149.863 367.56C149.031 367.56 148.351 366.824 148.351 365.928C148.351 365.032 149.031 364.304 149.863 364.304C150.687 364.304 151.367 365.032 151.367 365.928C151.367 366.824 150.687 367.56 149.863 367.56ZM153.024 368H153.624V362.408H153.024V368ZM156.296 368.096C157.152 368.096 157.808 367.608 157.808 366.848C157.808 366.064 157.12 365.84 156.456 365.632C155.688 365.384 155.384 365.272 155.384 364.912C155.384 364.512 155.768 364.304 156.232 364.304C156.6 364.304 157.008 364.432 157.424 364.696L157.712 364.232C157.272 363.944 156.744 363.768 156.232 363.768C155.408 363.768 154.784 364.232 154.784 364.984C154.784 365.576 155.168 365.872 156.168 366.16C156.728 366.32 157.208 366.464 157.208 366.912C157.208 367.304 156.84 367.56 156.296 367.56C155.84 367.56 155.368 367.384 154.896 367.04L154.584 367.48C155.08 367.88 155.72 368.096 156.296 368.096Z" fill="#0F0B47"/>
<circle cx="119.277" cy="365.277" r="4.27743" fill="#D5C9FF"/>
<path d="M132.24 341.096C133.384 341.096 134.152 340.432 134.152 339.512C134.152 338.72 133.528 338.312 132.968 338.184C133.536 338.016 134.032 337.6 134.032 336.896C134.032 336.016 133.264 335.408 132.216 335.408C131.36 335.408 130.752 335.824 130.336 336.376L130.752 336.752C131.144 336.28 131.576 335.976 132.184 335.976C132.872 335.976 133.4 336.392 133.4 336.968C133.4 337.592 132.848 337.944 132.112 337.936L131.52 337.928V338.504H132.104C132.968 338.504 133.52 338.832 133.52 339.48C133.52 340.104 133.008 340.528 132.24 340.528C131.568 340.528 131.032 340.208 130.672 339.744L130.24 340.152C130.64 340.68 131.336 341.096 132.24 341.096ZM138.907 341H139.531V336.096H141.379V335.504H137.059V336.096H138.907V341ZM144.05 341.096C145.218 341.096 146.178 340.12 146.178 338.928C146.178 337.736 145.218 336.768 144.05 336.768C142.874 336.768 141.914 337.736 141.914 338.928C141.914 340.12 142.874 341.096 144.05 341.096ZM144.05 340.56C143.218 340.56 142.538 339.824 142.538 338.928C142.538 338.032 143.218 337.304 144.05 337.304C144.874 337.304 145.554 338.032 145.554 338.928C145.554 339.824 144.874 340.56 144.05 340.56ZM148.988 341.096C150.156 341.096 151.116 340.12 151.116 338.928C151.116 337.736 150.156 336.768 148.988 336.768C147.812 336.768 146.852 337.736 146.852 338.928C146.852 340.12 147.812 341.096 148.988 341.096ZM148.988 340.56C148.156 340.56 147.476 339.824 147.476 338.928C147.476 338.032 148.156 337.304 148.988 337.304C149.812 337.304 150.492 338.032 150.492 338.928C150.492 339.824 149.812 340.56 148.988 340.56ZM152.149 341H152.749V335.408H152.149V341ZM155.421 341.096C156.277 341.096 156.933 340.608 156.933 339.848C156.933 339.064 156.245 338.84 155.581 338.632C154.813 338.384 154.509 338.272 154.509 337.912C154.509 337.512 154.893 337.304 155.357 337.304C155.725 337.304 156.133 337.432 156.549 337.696L156.837 337.232C156.397 336.944 155.869 336.768 155.357 336.768C154.533 336.768 153.909 337.232 153.909 337.984C153.909 338.576 154.293 338.872 155.293 339.16C155.853 339.32 156.333 339.464 156.333 339.912C156.333 340.304 155.965 340.56 155.421 340.56C154.965 340.56 154.493 340.384 154.021 340.04L153.709 340.48C154.205 340.88 154.845 341.096 155.421 341.096Z" fill="#0F0B47"/>
<circle cx="119.277" cy="338.277" r="4.27743" fill="#542AED"/>
<path d="M19.04 341H19.664V339.664H20.488V339.096H19.664V335.504H18.944L16.216 339.144L16.296 339.664H19.04V341ZM16.928 339.096L19.04 336.256V339.096H16.928ZM25.3783 341.096C26.5463 341.096 27.5063 340.12 27.5063 338.928C27.5063 337.736 26.5463 336.768 25.3783 336.768C24.2023 336.768 23.2423 337.736 23.2423 338.928C23.2423 340.12 24.2023 341.096 25.3783 341.096ZM25.3783 340.56C24.5463 340.56 23.8663 339.824 23.8663 338.928C23.8663 338.032 24.5463 337.304 25.3783 337.304C26.2023 337.304 26.8823 338.032 26.8823 338.928C26.8823 339.824 26.2023 340.56 25.3783 340.56ZM29.1398 337.672V336.864H28.5398V341H29.1398V338.688C29.1398 337.88 29.8038 337.304 30.7398 337.304V336.768C29.9798 336.768 29.3878 337.12 29.1398 337.672ZM38.3868 336.768C37.7308 336.768 37.2188 337.168 37.0908 337.752C36.8828 337.152 36.3708 336.768 35.7148 336.768C35.1708 336.768 34.7228 337.04 34.5148 337.472V336.864H33.9148V341H34.5148V338.368C34.5148 337.744 34.9788 337.304 35.6348 337.304C36.1948 337.304 36.5868 337.776 36.5868 338.448V341H37.1868V338.368C37.1868 337.744 37.6508 337.304 38.3068 337.304C38.8668 337.304 39.2588 337.776 39.2588 338.448V341H39.8588V338.368C39.8588 337.432 39.2508 336.768 38.3868 336.768ZM42.9329 341.096C44.1009 341.096 45.0609 340.12 45.0609 338.928C45.0609 337.736 44.1009 336.768 42.9329 336.768C41.7569 336.768 40.7969 337.736 40.7969 338.928C40.7969 340.12 41.7569 341.096 42.9329 341.096ZM42.9329 340.56C42.1009 340.56 41.4209 339.824 41.4209 338.928C41.4209 338.032 42.1009 337.304 42.9329 337.304C43.7569 337.304 44.4369 338.032 44.4369 338.928C44.4369 339.824 43.7569 340.56 42.9329 340.56ZM46.6944 337.672V336.864H46.0944V341H46.6944V338.688C46.6944 337.88 47.3584 337.304 48.2944 337.304V336.768C47.5344 336.768 46.9424 337.12 46.6944 337.672ZM51.0103 340.56C50.1943 340.56 49.6263 339.968 49.5383 339.16H52.9223C52.9223 337.712 52.2103 336.768 50.9623 336.768C49.8503 336.768 48.9223 337.688 48.9223 338.92C48.9223 340.192 49.9143 341.096 51.0183 341.096C51.5943 341.096 52.3223 340.848 52.6823 340.456L52.3143 340.064C52.0583 340.344 51.4983 340.56 51.0103 340.56ZM50.9863 337.304C51.8103 337.304 52.2503 337.88 52.3303 338.624H49.5463C49.6583 337.824 50.2503 337.304 50.9863 337.304ZM57.7335 340.392C57.6455 340.488 57.4855 340.56 57.3015 340.56C57.0615 340.56 56.8535 340.344 56.8535 340.04V337.4H57.8695V336.864H56.8535V335.728H56.2535V336.864H55.6055V337.4H56.2535V340.04C56.2535 340.656 56.6695 341.096 57.2615 341.096C57.5415 341.096 57.8135 341 58.0295 340.832L57.7335 340.392ZM60.6673 341.096C61.8353 341.096 62.7953 340.12 62.7953 338.928C62.7953 337.736 61.8353 336.768 60.6673 336.768C59.4913 336.768 58.5313 337.736 58.5313 338.928C58.5313 340.12 59.4913 341.096 60.6673 341.096ZM60.6673 340.56C59.8353 340.56 59.1553 339.824 59.1553 338.928C59.1553 338.032 59.8353 337.304 60.6673 337.304C61.4913 337.304 62.1713 338.032 62.1713 338.928C62.1713 339.824 61.4913 340.56 60.6673 340.56ZM65.6048 341.096C66.7728 341.096 67.7328 340.12 67.7328 338.928C67.7328 337.736 66.7728 336.768 65.6048 336.768C64.4288 336.768 63.4688 337.736 63.4688 338.928C63.4688 340.12 64.4288 341.096 65.6048 341.096ZM65.6048 340.56C64.7728 340.56 64.0928 339.824 64.0928 338.928C64.0928 338.032 64.7728 337.304 65.6048 337.304C66.4288 337.304 67.1088 338.032 67.1088 338.928C67.1088 339.824 66.4288 340.56 65.6048 340.56ZM68.7663 341H69.3663V335.408H68.7663V341ZM72.0385 341.096C72.8945 341.096 73.5505 340.608 73.5505 339.848C73.5505 339.064 72.8625 338.84 72.1985 338.632C71.4305 338.384 71.1265 338.272 71.1265 337.912C71.1265 337.512 71.5105 337.304 71.9745 337.304C72.3425 337.304 72.7505 337.432 73.1665 337.696L73.4545 337.232C73.0145 336.944 72.4865 336.768 71.9745 336.768C71.1505 336.768 70.5265 337.232 70.5265 337.984C70.5265 338.576 70.9105 338.872 71.9105 339.16C72.4705 339.32 72.9505 339.464 72.9505 339.912C72.9505 340.304 72.5825 340.56 72.0385 340.56C71.5825 340.56 71.1105 340.384 70.6385 340.04L70.3265 340.48C70.8225 340.88 71.4625 341.096 72.0385 341.096Z" fill="#0F0B47"/>
<circle cx="5.27743" cy="338.277" r="4.27743" fill="#1B0085"/>
</svg>
