<svg width="1187" height="341" viewBox="0 0 1187 341" fill="none" xmlns="http://www.w3.org/2000/svg">
<path opacity="0.25" d="M737 341L737 0.000204563" stroke="#0F0B47"/>
<path opacity="0.25" d="M519 341L519 0.000204563" stroke="#0F0B47"/>
<path opacity="0.25" d="M975 341L975 0.000204563" stroke="#0F0B47"/>
<path opacity="0.25" d="M1186 341L1186 0.000204563" stroke="#0F0B47"/>
<rect x="295" y="26" width="784.96" height="90" fill="#1C008D"/>
<path d="M347.649 91.7793H357.909V83.9193H363.129V75.3993H357.909V50.6193H345.429L326.769 76.1193L327.669 83.9193H347.649V91.7793ZM337.389 75.3993L347.649 61.2393V75.3993H337.389ZM387.785 91.7793H398.045V83.9193H403.265V75.3993H398.045V50.6193H385.565L366.905 76.1193L367.805 83.9193H387.785V91.7793ZM377.525 75.3993L387.785 61.2393V75.3993H377.525ZM418.862 71.3793C425.102 71.3793 429.422 66.7593 429.422 60.7593C429.422 54.9393 425.282 50.1393 418.862 50.1393C412.502 50.1393 408.362 54.8793 408.362 60.7593C408.362 66.7593 412.562 71.3793 418.862 71.3793ZM413.882 91.7793H421.622L450.422 50.5593H442.682L413.882 91.7793ZM418.862 65.5593C416.642 65.5593 414.962 63.6993 414.962 60.7593C414.962 57.7593 416.582 55.9593 418.862 55.9593C421.082 55.9593 422.822 57.8193 422.822 60.7593C422.822 63.7593 421.142 65.5593 418.862 65.5593ZM445.322 92.4393C451.562 92.4393 455.882 87.7593 455.882 81.8193C455.882 75.9393 451.742 71.1393 445.382 71.1393C439.082 71.1393 434.822 75.8193 434.822 81.8193C434.822 87.6993 439.022 92.4393 445.322 92.4393ZM445.382 86.6193C443.102 86.6193 441.422 84.7593 441.422 81.8193C441.422 78.7593 443.042 77.0193 445.322 77.0193C447.542 77.0193 449.282 78.8793 449.282 81.8193C449.282 84.8193 447.602 86.6193 445.382 86.6193Z" fill="white"/>
<rect x="295" y="148" width="623" height="72" fill="#8B62FF"/>
<rect x="295" y="249" width="160.2" height="72" fill="#B1A2EC"/>
<path d="M343.668 203.65C351.968 203.65 357.368 199.35 357.368 193.3C357.368 188.9 354.068 186.2 350.218 185.3C354.068 184.2 356.618 181.3 356.618 177.45C356.618 172.05 351.718 168.05 343.618 168.05C337.268 168.05 333.068 170.7 330.118 174.15L334.918 179.35C337.168 177.15 339.668 175.7 342.718 175.7C345.818 175.7 347.868 176.95 347.868 179.05C347.868 181.05 346.018 182.2 342.568 182.15H338.518V189.35L342.568 189.3C346.968 189.3 348.568 190.4 348.568 192.55C348.568 194.55 346.668 196 343.218 196C340.018 196 336.818 194.75 334.318 192.25L329.418 197.9C332.468 201.3 337.318 203.65 343.668 203.65ZM377.365 203.65C386.015 203.65 391.565 198.95 391.565 191.5C391.565 184.45 386.215 180.55 380.215 180.55C377.465 180.55 375.315 181.35 373.665 182.55L373.865 176.3H389.665V168.65H366.015L365.515 187.5L371.165 189.7C372.915 188.35 375.065 187.55 377.515 187.55C380.915 187.55 383.015 189.25 383.015 191.8C383.015 194.25 381.015 196.25 377.415 196.25C374.315 196.25 371.215 194.7 368.615 192.4L363.715 198.45C367.065 201.65 371.465 203.65 377.365 203.65ZM407.408 186C412.608 186 416.208 182.15 416.208 177.15C416.208 172.3 412.758 168.3 407.408 168.3C402.108 168.3 398.658 172.25 398.658 177.15C398.658 182.15 402.158 186 407.408 186ZM403.258 203H409.708L433.708 168.65H427.258L403.258 203ZM407.408 181.15C405.558 181.15 404.158 179.6 404.158 177.15C404.158 174.65 405.508 173.15 407.408 173.15C409.258 173.15 410.708 174.7 410.708 177.15C410.708 179.65 409.308 181.15 407.408 181.15ZM429.458 203.55C434.658 203.55 438.258 199.65 438.258 194.7C438.258 189.8 434.808 185.8 429.508 185.8C424.258 185.8 420.708 189.7 420.708 194.7C420.708 199.6 424.208 203.55 429.458 203.55ZM429.508 198.7C427.608 198.7 426.208 197.15 426.208 194.7C426.208 192.15 427.558 190.7 429.458 190.7C431.308 190.7 432.758 192.25 432.758 194.7C432.758 197.2 431.358 198.7 429.508 198.7Z" fill="white"/>
<path d="M343.832 267.05C336.182 267.05 330.332 271.85 330.332 279.1C330.332 285.95 335.582 290.1 341.932 290.1C344.932 290.1 347.882 289.05 349.932 287.35C349.182 292.25 346.582 295.15 342.482 295.15C339.732 295.15 337.782 294.2 335.682 292.55L331.732 299C334.682 301.25 338.232 302.6 342.532 302.6C352.632 302.6 358.982 295.1 358.982 284.2C358.982 274.1 354.082 267.05 343.832 267.05ZM344.582 283.25C341.632 283.25 339.132 281.6 339.132 278.75C339.132 276.3 341.182 274.3 344.382 274.3C347.832 274.3 349.382 276.15 349.932 279.9C348.932 281.95 346.932 283.25 344.582 283.25ZM375.094 285C380.294 285 383.894 281.15 383.894 276.15C383.894 271.3 380.444 267.3 375.094 267.3C369.794 267.3 366.344 271.25 366.344 276.15C366.344 281.15 369.844 285 375.094 285ZM370.944 302H377.394L401.394 267.65H394.944L370.944 302ZM375.094 280.15C373.244 280.15 371.844 278.6 371.844 276.15C371.844 273.65 373.194 272.15 375.094 272.15C376.944 272.15 378.394 273.7 378.394 276.15C378.394 278.65 376.994 280.15 375.094 280.15ZM397.144 302.55C402.344 302.55 405.944 298.65 405.944 293.7C405.944 288.8 402.494 284.8 397.194 284.8C391.944 284.8 388.394 288.7 388.394 293.7C388.394 298.6 391.894 302.55 397.144 302.55ZM397.194 297.7C395.294 297.7 393.894 296.15 393.894 293.7C393.894 291.15 395.244 289.7 397.144 289.7C398.994 289.7 400.444 291.25 400.444 293.7C400.444 296.2 399.044 297.7 397.194 297.7Z" fill="white"/>
<path d="M83.2355 47.2213C85.9235 47.2213 87.8275 45.2533 87.8275 42.4693V36.0373H86.5795V42.4693C86.5795 44.5813 85.1875 46.0853 83.2355 46.0853C81.2835 46.0853 79.8915 44.5813 79.8915 42.4693V36.0373H78.6435V42.4693C78.6435 45.2533 80.5475 47.2213 83.2355 47.2213ZM93.2333 47.2213C94.9453 47.2213 96.2573 46.2453 96.2573 44.7253C96.2573 43.1573 94.8813 42.7093 93.5533 42.2933C92.0173 41.7973 91.4093 41.5733 91.4093 40.8533C91.4093 40.0533 92.1773 39.6373 93.1053 39.6373C93.8413 39.6373 94.6573 39.8933 95.4893 40.4213L96.0653 39.4933C95.1853 38.9173 94.1293 38.5653 93.1053 38.5653C91.4573 38.5653 90.2093 39.4933 90.2093 40.9973C90.2093 42.1813 90.9773 42.7733 92.9773 43.3493C94.0973 43.6693 95.0573 43.9573 95.0573 44.8533C95.0573 45.6373 94.3213 46.1493 93.2333 46.1493C92.3213 46.1493 91.3773 45.7973 90.4333 45.1093L89.8092 45.9893C90.8013 46.7893 92.0813 47.2213 93.2333 47.2213ZM101.802 46.1493C100.17 46.1493 99.0339 44.9653 98.8579 43.3493H105.626C105.626 40.4533 104.202 38.5653 101.706 38.5653C99.4819 38.5653 97.6259 40.4053 97.6259 42.8693C97.6259 45.4133 99.6099 47.2213 101.818 47.2213C102.97 47.2213 104.426 46.7253 105.146 45.9413L104.41 45.1573C103.898 45.7173 102.778 46.1493 101.802 46.1493ZM101.754 39.6373C103.402 39.6373 104.282 40.7893 104.442 42.2773H98.8739C99.0979 40.6773 100.282 39.6373 101.754 39.6373ZM113.818 35.8453V40.3093C113.194 39.2213 112.138 38.5653 110.81 38.5653C108.634 38.5653 107.002 40.3573 107.002 42.8853C107.002 45.4293 108.634 47.2213 110.81 47.2213C112.138 47.2213 113.194 46.5653 113.818 45.4773V47.0293H115.018V35.8453H113.818ZM111.034 46.1493C109.418 46.1493 108.266 44.7893 108.266 42.8853C108.266 40.9813 109.418 39.6373 111.034 39.6373C112.666 39.6373 113.818 40.9813 113.818 42.8853C113.818 44.7893 112.666 46.1493 111.034 46.1493ZM123.693 37.6213C123.693 37.0133 124.109 36.5813 124.589 36.5813C124.957 36.5813 125.277 36.7253 125.453 36.9173L126.045 36.0373C125.613 35.7013 125.069 35.5093 124.509 35.5093C123.325 35.5093 122.493 36.3893 122.493 37.6213V38.7573H121.197V39.8293H122.493V47.0293H123.693V39.8293H125.725V38.7573H123.693V37.6213ZM130.835 47.2213C133.171 47.2213 135.091 45.2693 135.091 42.8853C135.091 40.5013 133.171 38.5653 130.835 38.5653C128.483 38.5653 126.563 40.5013 126.563 42.8853C126.563 45.2693 128.483 47.2213 130.835 47.2213ZM130.835 46.1493C129.171 46.1493 127.811 44.6773 127.811 42.8853C127.811 41.0933 129.171 39.6373 130.835 39.6373C132.483 39.6373 133.843 41.0933 133.843 42.8853C133.843 44.6773 132.483 46.1493 130.835 46.1493ZM138.358 40.3733V38.7573H137.158V47.0293H138.358V42.4053C138.358 40.7893 139.686 39.6373 141.558 39.6373V38.5653C140.038 38.5653 138.854 39.2693 138.358 40.3733ZM157.524 38.5653C156.26 38.5653 155.284 39.3333 155.044 40.4853C154.596 39.3173 153.508 38.5653 152.212 38.5653C151.188 38.5653 150.372 39.0613 149.972 39.8453V38.7573H147.636V47.0293H149.972V42.0373C149.972 41.1573 150.628 40.5333 151.572 40.5333C152.436 40.5333 153.028 41.2053 153.028 42.1653V47.0453H155.284V42.0373C155.284 41.1573 155.94 40.5333 156.868 40.5333C157.732 40.5333 158.34 41.2053 158.34 42.1653V47.0453H160.58V41.7653C160.58 39.8933 159.252 38.5653 157.524 38.5653ZM166.603 47.2213C169.083 47.2213 171.115 45.2693 171.115 42.8853C171.115 40.5013 169.083 38.5653 166.603 38.5653C164.123 38.5653 162.091 40.5013 162.091 42.8853C162.091 45.2693 164.123 47.2213 166.603 47.2213ZM166.603 45.2533C165.355 45.2533 164.331 44.1813 164.331 42.8853C164.331 41.5893 165.355 40.5333 166.603 40.5333C167.851 40.5333 168.859 41.5893 168.859 42.8853C168.859 44.1813 167.851 45.2533 166.603 45.2533ZM175.785 47.2213C177.817 47.2213 179.161 46.1813 179.161 44.5493C179.161 42.7413 177.561 42.2613 176.137 41.8933C175.017 41.5893 174.553 41.4613 174.553 41.0133C174.553 40.5493 175.033 40.2453 175.673 40.2453C176.425 40.2453 177.321 40.6133 178.073 41.0933L178.921 39.5893C178.009 38.9813 176.841 38.5653 175.673 38.5653C173.705 38.5653 172.441 39.6853 172.441 41.2533C172.441 42.8853 173.753 43.3493 175.449 43.7653C176.361 43.9893 177.033 44.2133 177.033 44.7413C177.033 45.2213 176.617 45.5093 175.833 45.5093C174.937 45.5093 173.849 45.1093 173.001 44.5013L172.057 45.9733C173.049 46.7733 174.457 47.2213 175.785 47.2213ZM185.016 44.9813C184.856 45.1413 184.536 45.2533 184.216 45.2533C183.784 45.2533 183.448 44.8693 183.448 44.3253V40.6453H185.24V38.7573H183.448V36.4853H181.192V38.7573H180.056V40.6453H181.192V44.6933C181.192 46.1813 182.216 47.2213 183.688 47.2213C184.344 47.2213 185.096 46.9333 185.576 46.5013L185.016 44.9813ZM195.384 47.2213C197.864 47.2213 199.896 45.2693 199.896 42.8853C199.896 40.5013 197.864 38.5653 195.384 38.5653C192.904 38.5653 190.872 40.5013 190.872 42.8853C190.872 45.2693 192.904 47.2213 195.384 47.2213ZM195.384 45.2533C194.136 45.2533 193.112 44.1813 193.112 42.8853C193.112 41.5893 194.136 40.5333 195.384 40.5333C196.632 40.5333 197.64 41.5893 197.64 42.8853C197.64 44.1813 196.632 45.2533 195.384 45.2533ZM203.878 40.3093V38.7573H201.542V47.0293H203.878V43.0773C203.878 41.5253 204.982 40.5333 206.71 40.5333V38.5653C205.446 38.5653 204.422 39.2373 203.878 40.3093ZM216.264 38.5653C215.112 38.5653 213.976 38.8853 212.808 39.4773L213.592 41.0293C214.248 40.6933 214.968 40.4373 215.736 40.4373C217.096 40.4373 217.656 41.2053 217.656 42.0853V42.2613C216.952 41.9733 216.2 41.8293 215.528 41.8293C213.624 41.8293 212.104 42.9493 212.104 44.5813C212.104 46.1653 213.448 47.2213 215.208 47.2213C216.12 47.2213 217.064 46.8533 217.656 46.1973V47.0293H219.912V42.0853C219.912 39.9253 218.424 38.5653 216.264 38.5653ZM215.736 45.6053C214.936 45.6053 214.328 45.1893 214.328 44.5173C214.328 43.8453 215.016 43.3493 215.864 43.3493C216.504 43.3493 217.128 43.4613 217.656 43.6693V44.4213C217.48 45.1893 216.632 45.6053 215.736 45.6053ZM221.964 47.0293H224.3V35.8453H221.964V47.0293ZM226.542 47.0293H228.878V35.8453H226.542V47.0293ZM56.7563 59.5653C55.4283 59.5653 54.3723 60.2213 53.7483 61.3093V59.7573H52.5483V70.7813H53.7483V66.4773C54.3723 67.5653 55.4283 68.2213 56.7563 68.2213C58.9323 68.2213 60.5642 66.4293 60.5642 63.8853C60.5642 61.3573 58.9323 59.5653 56.7563 59.5653ZM56.5323 67.1493C54.9003 67.1493 53.7483 65.7893 53.7483 63.8853C53.7483 61.9813 54.9003 60.6373 56.5323 60.6373C58.1483 60.6373 59.3003 61.9813 59.3003 63.8853C59.3003 65.7893 58.1483 67.1493 56.5323 67.1493ZM63.9045 61.3733V59.7573H62.7045V68.0293H63.9045V63.4053C63.9045 61.7893 65.2325 60.6373 67.1045 60.6373V59.5653C65.5845 59.5653 64.4005 60.2693 63.9045 61.3733ZM72.6003 68.2213C74.9363 68.2213 76.8563 66.2693 76.8563 63.8853C76.8563 61.5013 74.9363 59.5653 72.6003 59.5653C70.2483 59.5653 68.3283 61.5013 68.3283 63.8853C68.3283 66.2693 70.2483 68.2213 72.6003 68.2213ZM72.6003 67.1493C70.9363 67.1493 69.5763 65.6773 69.5763 63.8853C69.5763 62.0933 70.9363 60.6373 72.6003 60.6373C74.2483 60.6373 75.6083 62.0933 75.6083 63.8853C75.6083 65.6773 74.2483 67.1493 72.6003 67.1493ZM85.0993 56.8453V61.3093C84.4753 60.2213 83.4193 59.5653 82.0913 59.5653C79.9153 59.5653 78.2833 61.3573 78.2833 63.8853C78.2833 66.4293 79.9153 68.2213 82.0913 68.2213C83.4193 68.2213 84.4753 67.5653 85.0993 66.4773V68.0293H86.2993V56.8453H85.0993ZM82.3153 67.1493C80.6993 67.1493 79.5473 65.7893 79.5473 63.8853C79.5473 61.9813 80.6993 60.6373 82.3153 60.6373C83.9473 60.6373 85.0993 61.9813 85.0993 63.8853C85.0993 65.7893 83.9473 67.1493 82.3153 67.1493ZM94.7115 59.7573V65.0213C94.7115 66.1893 93.5595 67.1493 92.1515 67.1493C90.9355 67.1493 90.0875 66.2213 90.0875 64.8613V59.7573H88.8875V65.0213C88.8875 66.9253 90.1515 68.2213 91.9915 68.2213C93.1755 68.2213 94.2315 67.5973 94.7115 66.7173V68.0293H95.9115V59.7573H94.7115ZM102.241 68.2213C103.393 68.2213 104.449 67.7413 105.233 66.9573L104.401 66.1413C103.841 66.7653 103.073 67.1493 102.241 67.1493C100.593 67.1493 99.2169 65.6613 99.2169 63.8853C99.2169 62.1253 100.593 60.6373 102.241 60.6373C103.057 60.6373 103.809 61.0053 104.353 61.5973L105.185 60.7813C104.401 60.0293 103.361 59.5653 102.241 59.5653C99.9209 59.5653 97.9529 61.5333 97.9529 63.8853C97.9529 66.2373 99.9209 68.2213 102.241 68.2213ZM110.186 66.8133C110.01 67.0053 109.69 67.1493 109.322 67.1493C108.842 67.1493 108.426 66.7173 108.426 66.1093V60.8293H110.458V59.7573H108.426V57.4853H107.226V59.7573H105.93V60.8293H107.226V66.1093C107.226 67.3413 108.058 68.2213 109.242 68.2213C109.802 68.2213 110.346 68.0293 110.778 67.6933L110.186 66.8133ZM113.109 58.2533C113.541 58.2533 113.893 57.8853 113.893 57.4533C113.893 57.0373 113.541 56.6693 113.109 56.6693C112.661 56.6693 112.309 57.0373 112.309 57.4533C112.309 57.8853 112.661 58.2533 113.109 58.2533ZM112.501 68.0293H113.701V59.7573H112.501V68.0293ZM120.038 68.2213C122.374 68.2213 124.294 66.2693 124.294 63.8853C124.294 61.5013 122.374 59.5653 120.038 59.5653C117.686 59.5653 115.766 61.5013 115.766 63.8853C115.766 66.2693 117.686 68.2213 120.038 68.2213ZM120.038 67.1493C118.374 67.1493 117.014 65.6773 117.014 63.8853C117.014 62.0933 118.374 60.6373 120.038 60.6373C121.686 60.6373 123.046 62.0933 123.046 63.8853C123.046 65.6773 121.686 67.1493 120.038 67.1493ZM130.281 59.5653C129.097 59.5653 128.041 60.1893 127.561 61.0693V59.7573H126.361V68.0293H127.561V62.7653C127.561 61.5973 128.713 60.6373 130.121 60.6373C131.337 60.6373 132.185 61.5653 132.185 62.9253V68.0293H133.385V62.7653C133.385 60.8613 132.121 59.5653 130.281 59.5653ZM143.336 59.5653C142.536 59.5653 141.544 59.7733 140.36 60.3653L140.84 61.3413C141.592 60.9573 142.424 60.5893 143.256 60.5893C145.048 60.5893 145.496 61.8693 145.496 62.9893V63.2933C144.648 63.0213 143.704 62.8293 142.808 62.8293C141.032 62.8293 139.56 63.9333 139.56 65.5813C139.56 67.2133 140.84 68.2213 142.584 68.2213C143.672 68.2213 144.904 67.7093 145.496 66.7333V68.0293H146.696V62.9893C146.696 60.9893 145.592 59.5653 143.336 59.5653ZM142.792 67.1653C141.624 67.1653 140.728 66.5573 140.728 65.5333C140.728 64.5413 141.768 63.8373 143 63.8373C143.896 63.8373 144.744 63.9653 145.496 64.1733V65.4373C145.176 66.6053 143.88 67.1653 142.792 67.1653ZM153.491 59.5653C152.163 59.5653 151.107 60.2213 150.483 61.3093V59.7573H149.283V70.7813H150.483V66.4773C151.107 67.5653 152.163 68.2213 153.491 68.2213C155.667 68.2213 157.299 66.4293 157.299 63.8853C157.299 61.3573 155.667 59.5653 153.491 59.5653ZM153.267 67.1493C151.635 67.1493 150.483 65.7893 150.483 63.8853C150.483 61.9813 151.635 60.6373 153.267 60.6373C154.883 60.6373 156.035 61.9813 156.035 63.8853C156.035 65.7893 154.883 67.1493 153.267 67.1493ZM163.647 59.5653C162.319 59.5653 161.263 60.2213 160.639 61.3093V59.7573H159.439V70.7813H160.639V66.4773C161.263 67.5653 162.319 68.2213 163.647 68.2213C165.823 68.2213 167.455 66.4293 167.455 63.8853C167.455 61.3573 165.823 59.5653 163.647 59.5653ZM163.423 67.1493C161.791 67.1493 160.639 65.7893 160.639 63.8853C160.639 61.9813 161.791 60.6373 163.423 60.6373C165.039 60.6373 166.191 61.9813 166.191 63.8853C166.191 65.7893 165.039 67.1493 163.423 67.1493ZM169.595 68.0293H170.795V56.8453H169.595V68.0293ZM174.188 58.2533C174.62 58.2533 174.972 57.8853 174.972 57.4533C174.972 57.0373 174.62 56.6693 174.188 56.6693C173.74 56.6693 173.388 57.0373 173.388 57.4533C173.388 57.8853 173.74 58.2533 174.188 58.2533ZM173.58 68.0293H174.78V59.7573H173.58V68.0293ZM181.116 68.2213C182.268 68.2213 183.324 67.7413 184.108 66.9573L183.276 66.1413C182.716 66.7653 181.948 67.1493 181.116 67.1493C179.468 67.1493 178.092 65.6613 178.092 63.8853C178.092 62.1253 179.468 60.6373 181.116 60.6373C181.932 60.6373 182.684 61.0053 183.228 61.5973L184.06 60.7813C183.276 60.0293 182.236 59.5653 181.116 59.5653C178.796 59.5653 176.828 61.5333 176.828 63.8853C176.828 66.2373 178.796 68.2213 181.116 68.2213ZM188.821 59.5653C188.021 59.5653 187.029 59.7733 185.845 60.3653L186.325 61.3413C187.077 60.9573 187.909 60.5893 188.741 60.5893C190.533 60.5893 190.981 61.8693 190.981 62.9893V63.2933C190.133 63.0213 189.189 62.8293 188.293 62.8293C186.517 62.8293 185.045 63.9333 185.045 65.5813C185.045 67.2133 186.325 68.2213 188.069 68.2213C189.157 68.2213 190.389 67.7093 190.981 66.7333V68.0293H192.181V62.9893C192.181 60.9893 191.077 59.5653 188.821 59.5653ZM188.277 67.1653C187.109 67.1653 186.213 66.5573 186.213 65.5333C186.213 64.5413 187.253 63.8373 188.485 63.8373C189.381 63.8373 190.229 63.9653 190.981 64.1733V65.4373C190.661 66.6053 189.365 67.1653 188.277 67.1653ZM197.967 66.8133C197.791 67.0053 197.471 67.1493 197.103 67.1493C196.623 67.1493 196.207 66.7173 196.207 66.1093V60.8293H198.239V59.7573H196.207V57.4853H195.007V59.7573H193.711V60.8293H195.007V66.1093C195.007 67.3413 195.839 68.2213 197.023 68.2213C197.583 68.2213 198.127 68.0293 198.559 67.6933L197.967 66.8133ZM200.891 58.2533C201.323 58.2533 201.675 57.8853 201.675 57.4533C201.675 57.0373 201.323 56.6693 200.891 56.6693C200.443 56.6693 200.091 57.0373 200.091 57.4533C200.091 57.8853 200.443 58.2533 200.891 58.2533ZM200.283 68.0293H201.483V59.7573H200.283V68.0293ZM207.819 68.2213C210.155 68.2213 212.075 66.2693 212.075 63.8853C212.075 61.5013 210.155 59.5653 207.819 59.5653C205.467 59.5653 203.547 61.5013 203.547 63.8853C203.547 66.2693 205.467 68.2213 207.819 68.2213ZM207.819 67.1493C206.155 67.1493 204.795 65.6773 204.795 63.8853C204.795 62.0933 206.155 60.6373 207.819 60.6373C209.467 60.6373 210.827 62.0933 210.827 63.8853C210.827 65.6773 209.467 67.1493 207.819 67.1493ZM218.062 59.5653C216.878 59.5653 215.822 60.1893 215.342 61.0693V59.7573H214.142V68.0293H215.342V62.7653C215.342 61.5973 216.494 60.6373 217.902 60.6373C219.118 60.6373 219.966 61.5653 219.966 62.9253V68.0293H221.166V62.7653C221.166 60.8613 219.902 59.5653 218.062 59.5653ZM226.311 68.2213C228.023 68.2213 229.335 67.2453 229.335 65.7253C229.335 64.1573 227.959 63.7093 226.631 63.2933C225.095 62.7973 224.487 62.5733 224.487 61.8533C224.487 61.0533 225.255 60.6373 226.183 60.6373C226.919 60.6373 227.735 60.8933 228.567 61.4213L229.143 60.4933C228.263 59.9173 227.207 59.5653 226.183 59.5653C224.535 59.5653 223.287 60.4933 223.287 61.9973C223.287 63.1813 224.055 63.7733 226.055 64.3493C227.175 64.6693 228.135 64.9573 228.135 65.8533C228.135 66.6373 227.399 67.1493 226.311 67.1493C225.399 67.1493 224.455 66.7973 223.511 66.1093L222.887 66.9893C223.879 67.7893 225.159 68.2213 226.311 68.2213ZM57.6333 80.5653C56.8333 80.5653 55.8413 80.7733 54.6573 81.3653L55.1373 82.3413C55.8893 81.9573 56.7213 81.5893 57.5533 81.5893C59.3453 81.5893 59.7933 82.8693 59.7933 83.9893V84.2933C58.9453 84.0213 58.0013 83.8293 57.1053 83.8293C55.3293 83.8293 53.8573 84.9333 53.8573 86.5813C53.8573 88.2133 55.1373 89.2213 56.8813 89.2213C57.9693 89.2213 59.2013 88.7093 59.7933 87.7333V89.0293H60.9933V83.9893C60.9933 81.9893 59.8893 80.5653 57.6333 80.5653ZM57.0893 88.1653C55.9213 88.1653 55.0253 87.5573 55.0253 86.5333C55.0253 85.5413 56.0653 84.8373 57.2973 84.8373C58.1933 84.8373 59.0413 84.9653 59.7933 85.1733V86.4373C59.4733 87.6053 58.1773 88.1653 57.0893 88.1653ZM67.4995 80.5653C66.3155 80.5653 65.2595 81.1893 64.7795 82.0693V80.7573H63.5795V89.0293H64.7795V83.7653C64.7795 82.5973 65.9315 81.6373 67.3395 81.6373C68.5555 81.6373 69.4035 82.5653 69.4035 83.9253V89.0293H70.6035V83.7653C70.6035 81.8613 69.3395 80.5653 67.4995 80.5653ZM79.3649 77.8453V82.3093C78.7409 81.2213 77.6849 80.5653 76.3569 80.5653C74.1809 80.5653 72.5489 82.3573 72.5489 84.8853C72.5489 87.4293 74.1809 89.2213 76.3569 89.2213C77.6849 89.2213 78.7409 88.5653 79.3649 87.4773V89.0293H80.5649V77.8453H79.3649ZM76.5809 88.1493C74.9649 88.1493 73.8129 86.7893 73.8129 84.8853C73.8129 82.9813 74.9649 81.6373 76.5809 81.6373C78.2129 81.6373 79.3649 82.9813 79.3649 84.8853C79.3649 86.7893 78.2129 88.1493 76.5809 88.1493ZM91.9594 80.5653C90.6314 80.5653 89.5754 81.2213 88.9514 82.3093V77.8453H87.7514V89.0293H88.9514V87.4773C89.5754 88.5653 90.6314 89.2213 91.9594 89.2213C94.1354 89.2213 95.7674 87.4293 95.7674 84.8853C95.7674 82.3573 94.1354 80.5653 91.9594 80.5653ZM91.7354 88.1493C90.1034 88.1493 88.9514 86.7893 88.9514 84.8853C88.9514 82.9813 90.1034 81.6373 91.7354 81.6373C93.3514 81.6373 94.5034 82.9813 94.5034 84.8853C94.5034 86.7893 93.3514 88.1493 91.7354 88.1493ZM103.54 80.7573V86.0213C103.54 87.1893 102.388 88.1493 100.98 88.1493C99.7636 88.1493 98.9156 87.2213 98.9156 85.8613V80.7573H97.7156V86.0213C97.7156 87.9253 98.9796 89.2213 100.82 89.2213C102.004 89.2213 103.06 88.5973 103.54 87.7173V89.0293H104.74V80.7573H103.54ZM110.077 89.2213C111.789 89.2213 113.101 88.2453 113.101 86.7253C113.101 85.1573 111.725 84.7093 110.397 84.2933C108.861 83.7973 108.253 83.5733 108.253 82.8533C108.253 82.0533 109.021 81.6373 109.949 81.6373C110.685 81.6373 111.501 81.8933 112.333 82.4213L112.909 81.4933C112.029 80.9173 110.973 80.5653 109.949 80.5653C108.301 80.5653 107.053 81.4933 107.053 82.9973C107.053 84.1813 107.821 84.7733 109.821 85.3493C110.941 85.6693 111.901 85.9573 111.901 86.8533C111.901 87.6373 111.165 88.1493 110.077 88.1493C109.165 88.1493 108.221 87.7973 107.277 87.1093L106.653 87.9893C107.645 88.7893 108.925 89.2213 110.077 89.2213ZM115.766 79.2533C116.198 79.2533 116.55 78.8853 116.55 78.4533C116.55 78.0373 116.198 77.6693 115.766 77.6693C115.318 77.6693 114.966 78.0373 114.966 78.4533C114.966 78.8853 115.318 79.2533 115.766 79.2533ZM115.158 89.0293H116.358V80.7573H115.158V89.0293ZM123.062 80.5653C121.878 80.5653 120.822 81.1893 120.342 82.0693V80.7573H119.142V89.0293H120.342V83.7653C120.342 82.5973 121.494 81.6373 122.902 81.6373C124.118 81.6373 124.966 82.5653 124.966 83.9253V89.0293H126.166V83.7653C126.166 81.8613 124.902 80.5653 123.062 80.5653ZM132.239 88.1493C130.607 88.1493 129.471 86.9653 129.295 85.3493H136.063C136.063 82.4533 134.639 80.5653 132.143 80.5653C129.919 80.5653 128.063 82.4053 128.063 84.8693C128.063 87.4133 130.047 89.2213 132.255 89.2213C133.407 89.2213 134.863 88.7253 135.583 87.9413L134.847 87.1573C134.335 87.7173 133.215 88.1493 132.239 88.1493ZM132.191 81.6373C133.839 81.6373 134.719 82.7893 134.879 84.2773H129.311C129.535 82.6773 130.719 81.6373 132.191 81.6373ZM140.64 89.2213C142.352 89.2213 143.664 88.2453 143.664 86.7253C143.664 85.1573 142.288 84.7093 140.96 84.2933C139.424 83.7973 138.816 83.5733 138.816 82.8533C138.816 82.0533 139.584 81.6373 140.512 81.6373C141.248 81.6373 142.064 81.8933 142.896 82.4213L143.472 81.4933C142.592 80.9173 141.536 80.5653 140.512 80.5653C138.864 80.5653 137.616 81.4933 137.616 82.9973C137.616 84.1813 138.384 84.7733 140.384 85.3493C141.504 85.6693 142.464 85.9573 142.464 86.8533C142.464 87.6373 141.728 88.1493 140.64 88.1493C139.728 88.1493 138.784 87.7973 137.84 87.1093L137.215 87.9893C138.208 88.7893 139.488 89.2213 140.64 89.2213ZM148.28 89.2213C149.992 89.2213 151.304 88.2453 151.304 86.7253C151.304 85.1573 149.928 84.7093 148.6 84.2933C147.064 83.7973 146.456 83.5733 146.456 82.8533C146.456 82.0533 147.224 81.6373 148.152 81.6373C148.888 81.6373 149.704 81.8933 150.536 82.4213L151.112 81.4933C150.232 80.9173 149.176 80.5653 148.152 80.5653C146.504 80.5653 145.256 81.4933 145.256 82.9973C145.256 84.1813 146.024 84.7733 148.024 85.3493C149.144 85.6693 150.104 85.9573 150.104 86.8533C150.104 87.6373 149.368 88.1493 148.28 88.1493C147.368 88.1493 146.424 87.7973 145.48 87.1093L144.856 87.9893C145.848 88.7893 147.128 89.2213 148.28 89.2213ZM160.327 89.2213C162.039 89.2213 163.351 88.2453 163.351 86.7253C163.351 85.1573 161.975 84.7093 160.647 84.2933C159.111 83.7973 158.503 83.5733 158.503 82.8533C158.503 82.0533 159.271 81.6373 160.199 81.6373C160.935 81.6373 161.751 81.8933 162.583 82.4213L163.159 81.4933C162.279 80.9173 161.223 80.5653 160.199 80.5653C158.551 80.5653 157.303 81.4933 157.303 82.9973C157.303 84.1813 158.071 84.7733 160.071 85.3493C161.191 85.6693 162.151 85.9573 162.151 86.8533C162.151 87.6373 161.415 88.1493 160.327 88.1493C159.415 88.1493 158.471 87.7973 157.527 87.1093L156.903 87.9893C157.895 88.7893 159.175 89.2213 160.327 89.2213ZM168.896 88.1493C167.264 88.1493 166.128 86.9653 165.952 85.3493H172.72C172.72 82.4533 171.296 80.5653 168.8 80.5653C166.576 80.5653 164.72 82.4053 164.72 84.8693C164.72 87.4133 166.704 89.2213 168.912 89.2213C170.064 89.2213 171.52 88.7253 172.24 87.9413L171.504 87.1573C170.992 87.7173 169.872 88.1493 168.896 88.1493ZM168.848 81.6373C170.496 81.6373 171.376 82.7893 171.536 84.2773H165.968C166.192 82.6773 167.376 81.6373 168.848 81.6373ZM180.832 80.7573V82.1813C180.192 81.1733 179.136 80.5653 177.824 80.5653C175.6 80.5653 174.016 82.1813 174.016 84.4853C174.016 86.7893 175.6 88.4213 177.824 88.4213C179.136 88.4213 180.192 87.8133 180.832 86.8053V88.1493C180.832 89.7653 179.712 90.7093 177.808 90.7093C176.784 90.7093 175.792 90.3413 175.152 89.7333L174.624 90.6773C175.376 91.3173 176.624 91.7813 177.968 91.7813C180.352 91.7813 182.032 90.2773 182.032 88.1493V80.7573H180.832ZM178.048 87.3493C176.432 87.3493 175.28 86.1653 175.28 84.4853C175.28 82.8213 176.432 81.6373 178.048 81.6373C179.68 81.6373 180.832 82.8213 180.832 84.4853C180.832 86.1653 179.68 87.3493 178.048 87.3493ZM193.758 80.5653C192.446 80.5653 191.422 81.3653 191.166 82.5333C190.75 81.3333 189.726 80.5653 188.414 80.5653C187.326 80.5653 186.43 81.1093 186.014 81.9733V80.7573H184.814V89.0293H186.014V83.7653C186.014 82.5173 186.942 81.6373 188.254 81.6373C189.374 81.6373 190.158 82.5813 190.158 83.9253V89.0293H191.358V83.7653C191.358 82.5173 192.286 81.6373 193.598 81.6373C194.718 81.6373 195.502 82.5813 195.502 83.9253V89.0293H196.702V83.7653C196.702 81.8933 195.486 80.5653 193.758 80.5653ZM202.786 88.1493C201.154 88.1493 200.018 86.9653 199.842 85.3493H206.61C206.61 82.4533 205.186 80.5653 202.69 80.5653C200.466 80.5653 198.61 82.4053 198.61 84.8693C198.61 87.4133 200.594 89.2213 202.802 89.2213C203.954 89.2213 205.41 88.7253 206.13 87.9413L205.394 87.1573C204.882 87.7173 203.762 88.1493 202.786 88.1493ZM202.738 81.6373C204.386 81.6373 205.266 82.7893 205.426 84.2773H199.858C200.082 82.6773 201.266 81.6373 202.738 81.6373ZM212.546 80.5653C211.362 80.5653 210.306 81.1893 209.826 82.0693V80.7573H208.626V89.0293H209.826V83.7653C209.826 82.5973 210.978 81.6373 212.386 81.6373C213.602 81.6373 214.45 82.5653 214.45 83.9253V89.0293H215.65V83.7653C215.65 81.8613 214.386 80.5653 212.546 80.5653ZM221.436 87.8133C221.26 88.0053 220.94 88.1493 220.572 88.1493C220.092 88.1493 219.676 87.7173 219.676 87.1093V81.8293H221.708V80.7573H219.676V78.4853H218.476V80.7573H217.18V81.8293H218.476V87.1093C218.476 88.3413 219.308 89.2213 220.492 89.2213C221.052 89.2213 221.596 89.0293 222.028 88.6933L221.436 87.8133ZM226.311 89.2213C228.023 89.2213 229.335 88.2453 229.335 86.7253C229.335 85.1573 227.959 84.7093 226.631 84.2933C225.095 83.7973 224.487 83.5733 224.487 82.8533C224.487 82.0533 225.255 81.6373 226.183 81.6373C226.919 81.6373 227.735 81.8933 228.567 82.4213L229.143 81.4933C228.263 80.9173 227.207 80.5653 226.183 80.5653C224.535 80.5653 223.287 81.4933 223.287 82.9973C223.287 84.1813 224.055 84.7733 226.055 85.3493C227.175 85.6693 228.135 85.9573 228.135 86.8533C228.135 87.6373 227.399 88.1493 226.311 88.1493C225.399 88.1493 224.455 87.7973 223.511 87.1093L222.887 87.9893C223.879 88.7893 225.159 89.2213 226.311 89.2213ZM21.4045 108.813C21.2285 109.005 20.9085 109.149 20.5405 109.149C20.0605 109.149 19.6445 108.717 19.6445 108.109V102.829H21.6765V101.757H19.6445V99.4853H18.4445V101.757H17.1485V102.829H18.4445V108.109C18.4445 109.341 19.2765 110.221 20.4605 110.221C21.0205 110.221 21.5645 110.029 21.9965 109.693L21.4045 108.813ZM27.6401 101.565C26.4561 101.565 25.4001 102.189 24.9201 103.069V98.8453H23.7201V110.029H24.9201V104.765C24.9201 103.597 26.0721 102.637 27.4801 102.637C28.6961 102.637 29.5441 103.565 29.5441 104.925V110.029H30.7441V104.765C30.7441 102.861 29.4801 101.565 27.6401 101.565ZM34.5295 103.373V101.757H33.3295V110.029H34.5295V105.405C34.5295 103.789 35.8575 102.637 37.7295 102.637V101.565C36.2095 101.565 35.0255 102.269 34.5295 103.373ZM43.2253 110.221C45.5613 110.221 47.4813 108.269 47.4813 105.885C47.4813 103.501 45.5613 101.565 43.2253 101.565C40.8733 101.565 38.9533 103.501 38.9533 105.885C38.9533 108.269 40.8733 110.221 43.2253 110.221ZM43.2253 109.149C41.5613 109.149 40.2013 107.677 40.2013 105.885C40.2013 104.093 41.5613 102.637 43.2253 102.637C44.8733 102.637 46.2333 104.093 46.2333 105.885C46.2333 107.677 44.8733 109.149 43.2253 109.149ZM55.1803 101.757V107.021C55.1803 108.189 54.0283 109.149 52.6203 109.149C51.4043 109.149 50.5563 108.221 50.5563 106.861V101.757H49.3563V107.021C49.3563 108.925 50.6203 110.221 52.4603 110.221C53.6443 110.221 54.7003 109.597 55.1803 108.717V110.029H56.3802V101.757H55.1803ZM65.2536 101.757V103.181C64.6136 102.173 63.5576 101.565 62.2456 101.565C60.0216 101.565 58.4376 103.181 58.4376 105.485C58.4376 107.789 60.0216 109.421 62.2456 109.421C63.5576 109.421 64.6136 108.813 65.2536 107.805V109.149C65.2536 110.765 64.1336 111.709 62.2296 111.709C61.2056 111.709 60.2136 111.341 59.5736 110.733L59.0456 111.677C59.7976 112.317 61.0456 112.781 62.3896 112.781C64.7736 112.781 66.4536 111.277 66.4536 109.149V101.757H65.2536ZM62.4696 108.349C60.8536 108.349 59.7016 107.165 59.7016 105.485C59.7016 103.821 60.8536 102.637 62.4696 102.637C64.1016 102.637 65.2536 103.821 65.2536 105.485C65.2536 107.165 64.1016 108.349 62.4696 108.349ZM73.1558 101.565C71.9718 101.565 70.9158 102.189 70.4358 103.069V98.8453H69.2358V110.029H70.4358V104.765C70.4358 103.597 71.5878 102.637 72.9958 102.637C74.2118 102.637 75.0598 103.565 75.0598 104.925V110.029H76.2598V104.765C76.2598 102.861 74.9958 101.565 73.1558 101.565ZM82.3971 110.221C84.7331 110.221 86.6531 108.269 86.6531 105.885C86.6531 103.501 84.7331 101.565 82.3971 101.565C80.0451 101.565 78.1251 103.501 78.1251 105.885C78.1251 108.269 80.0451 110.221 82.3971 110.221ZM82.3971 109.149C80.7331 109.149 79.3731 107.677 79.3731 105.885C79.3731 104.093 80.7331 102.637 82.3971 102.637C84.0451 102.637 85.4051 104.093 85.4051 105.885C85.4051 107.677 84.0451 109.149 82.3971 109.149ZM94.3521 101.757V107.021C94.3521 108.189 93.2001 109.149 91.7921 109.149C90.5761 109.149 89.7281 108.221 89.7281 106.861V101.757H88.5281V107.021C88.5281 108.925 89.7921 110.221 91.6321 110.221C92.8161 110.221 93.8721 109.597 94.3521 108.717V110.029H95.5521V101.757H94.3521ZM101.53 108.813C101.354 109.005 101.034 109.149 100.666 109.149C100.186 109.149 99.7695 108.717 99.7695 108.109V102.829H101.802V101.757H99.7695V99.4853H98.5695V101.757H97.2735V102.829H98.5695V108.109C98.5695 109.341 99.4015 110.221 100.586 110.221C101.146 110.221 101.69 110.029 102.122 109.693L101.53 108.813ZM111.451 108.813C111.275 109.005 110.955 109.149 110.587 109.149C110.107 109.149 109.691 108.717 109.691 108.109V102.829H111.723V101.757H109.691V99.4853H108.491V101.757H107.195V102.829H108.491V108.109C108.491 109.341 109.323 110.221 110.507 110.221C111.067 110.221 111.611 110.029 112.043 109.693L111.451 108.813ZM117.687 101.565C116.503 101.565 115.447 102.189 114.967 103.069V98.8453H113.767V110.029H114.967V104.765C114.967 103.597 116.119 102.637 117.527 102.637C118.743 102.637 119.591 103.565 119.591 104.925V110.029H120.791V104.765C120.791 102.861 119.527 101.565 117.687 101.565ZM126.864 109.149C125.232 109.149 124.096 107.965 123.92 106.349H130.688C130.688 103.453 129.264 101.565 126.768 101.565C124.544 101.565 122.688 103.405 122.688 105.869C122.688 108.413 124.672 110.221 126.88 110.221C128.032 110.221 129.488 109.725 130.208 108.941L129.472 108.157C128.96 108.717 127.84 109.149 126.864 109.149ZM126.816 102.637C128.464 102.637 129.344 103.789 129.504 105.277H123.936C124.16 103.677 125.344 102.637 126.816 102.637ZM140.663 110.221C142.999 110.221 144.919 108.269 144.919 105.885C144.919 103.501 142.999 101.565 140.663 101.565C138.311 101.565 136.391 103.501 136.391 105.885C136.391 108.269 138.311 110.221 140.663 110.221ZM140.663 109.149C138.999 109.149 137.639 107.677 137.639 105.885C137.639 104.093 138.999 102.637 140.663 102.637C142.311 102.637 143.671 104.093 143.671 105.885C143.671 107.677 142.311 109.149 140.663 109.149ZM148.186 103.373V101.757H146.986V110.029H148.186V105.405C148.186 103.789 149.514 102.637 151.386 102.637V101.565C149.866 101.565 148.682 102.269 148.186 103.373ZM159.426 101.757V103.181C158.786 102.173 157.73 101.565 156.418 101.565C154.194 101.565 152.61 103.181 152.61 105.485C152.61 107.789 154.194 109.421 156.418 109.421C157.73 109.421 158.786 108.813 159.426 107.805V109.149C159.426 110.765 158.306 111.709 156.402 111.709C155.378 111.709 154.386 111.341 153.746 110.733L153.218 111.677C153.97 112.317 155.218 112.781 156.562 112.781C158.946 112.781 160.626 111.277 160.626 109.149V101.757H159.426ZM156.641 108.349C155.026 108.349 153.874 107.165 153.874 105.485C153.874 103.821 155.026 102.637 156.641 102.637C158.274 102.637 159.426 103.821 159.426 105.485C159.426 107.165 158.274 108.349 156.641 108.349ZM166.368 101.565C165.568 101.565 164.576 101.773 163.392 102.365L163.872 103.341C164.624 102.957 165.456 102.589 166.288 102.589C168.08 102.589 168.528 103.869 168.528 104.989V105.293C167.68 105.021 166.736 104.829 165.84 104.829C164.064 104.829 162.592 105.933 162.592 107.581C162.592 109.213 163.872 110.221 165.616 110.221C166.704 110.221 167.936 109.709 168.528 108.733V110.029H169.728V104.989C169.728 102.989 168.624 101.565 166.368 101.565ZM165.824 109.165C164.656 109.165 163.76 108.557 163.76 107.533C163.76 106.541 164.8 105.837 166.032 105.837C166.928 105.837 167.776 105.965 168.528 106.173V107.437C168.208 108.605 166.912 109.165 165.824 109.165ZM176.234 101.565C175.05 101.565 173.994 102.189 173.514 103.069V101.757H172.314V110.029H173.514V104.765C173.514 103.597 174.666 102.637 176.074 102.637C177.29 102.637 178.138 103.565 178.138 104.925V110.029H179.338V104.765C179.338 102.861 178.074 101.565 176.234 101.565ZM182.531 100.253C182.963 100.253 183.315 99.8853 183.315 99.4533C183.315 99.0373 182.963 98.6693 182.531 98.6693C182.083 98.6693 181.731 99.0373 181.731 99.4533C181.731 99.8853 182.083 100.253 182.531 100.253ZM181.923 110.029H183.123V101.757H181.923V110.029ZM185.044 110.029H191.572V108.893H186.644L191.54 102.701V101.757H185.14V102.893H189.924L185.044 109.085V110.029ZM196.461 101.565C195.661 101.565 194.669 101.773 193.485 102.365L193.965 103.341C194.717 102.957 195.549 102.589 196.381 102.589C198.173 102.589 198.621 103.869 198.621 104.989V105.293C197.773 105.021 196.829 104.829 195.933 104.829C194.157 104.829 192.685 105.933 192.685 107.581C192.685 109.213 193.965 110.221 195.709 110.221C196.797 110.221 198.029 109.709 198.621 108.733V110.029H199.821V104.989C199.821 102.989 198.717 101.565 196.461 101.565ZM195.917 109.165C194.749 109.165 193.853 108.557 193.853 107.533C193.853 106.541 194.893 105.837 196.125 105.837C197.021 105.837 197.869 105.965 198.621 106.173V107.437C198.301 108.605 197.005 109.165 195.917 109.165ZM205.608 108.813C205.432 109.005 205.112 109.149 204.744 109.149C204.264 109.149 203.848 108.717 203.848 108.109V102.829H205.88V101.757H203.848V99.4853H202.648V101.757H201.352V102.829H202.648V108.109C202.648 109.341 203.48 110.221 204.664 110.221C205.224 110.221 205.768 110.029 206.2 109.693L205.608 108.813ZM208.531 100.253C208.963 100.253 209.315 99.8853 209.315 99.4533C209.315 99.0373 208.963 98.6693 208.531 98.6693C208.083 98.6693 207.731 99.0373 207.731 99.4533C207.731 99.8853 208.083 100.253 208.531 100.253ZM207.923 110.029H209.123V101.757H207.923V110.029ZM215.46 110.221C217.796 110.221 219.716 108.269 219.716 105.885C219.716 103.501 217.796 101.565 215.46 101.565C213.108 101.565 211.188 103.501 211.188 105.885C211.188 108.269 213.108 110.221 215.46 110.221ZM215.46 109.149C213.796 109.149 212.436 107.677 212.436 105.885C212.436 104.093 213.796 102.637 215.46 102.637C217.108 102.637 218.468 104.093 218.468 105.885C218.468 107.677 217.108 109.149 215.46 109.149ZM225.703 101.565C224.519 101.565 223.463 102.189 222.983 103.069V101.757H221.783V110.029H222.983V104.765C222.983 103.597 224.135 102.637 225.543 102.637C226.759 102.637 227.607 103.565 227.607 104.925V110.029H228.807V104.765C228.807 102.861 227.543 101.565 225.703 101.565Z" fill="#0F0B47"/>
<path d="M36.6418 167.221C39.3298 167.221 41.2338 165.253 41.2338 162.469V156.037H39.9858V162.469C39.9858 164.581 38.5938 166.085 36.6418 166.085C34.6898 166.085 33.2978 164.581 33.2978 162.469V156.037H32.0498V162.469C32.0498 165.253 33.9538 167.221 36.6418 167.221ZM46.6395 167.221C48.3515 167.221 49.6635 166.245 49.6635 164.725C49.6635 163.157 48.2875 162.709 46.9595 162.293C45.4235 161.797 44.8155 161.573 44.8155 160.853C44.8155 160.053 45.5835 159.637 46.5115 159.637C47.2475 159.637 48.0635 159.893 48.8955 160.421L49.4715 159.493C48.5915 158.917 47.5355 158.565 46.5115 158.565C44.8635 158.565 43.6155 159.493 43.6155 160.997C43.6155 162.181 44.3835 162.773 46.3835 163.349C47.5035 163.669 48.4635 163.957 48.4635 164.853C48.4635 165.637 47.7275 166.149 46.6395 166.149C45.7275 166.149 44.7835 165.797 43.8395 165.109L43.2155 165.989C44.2075 166.789 45.4875 167.221 46.6395 167.221ZM55.2081 166.149C53.5761 166.149 52.4401 164.965 52.2641 163.349H59.0321C59.0321 160.453 57.6081 158.565 55.1121 158.565C52.8881 158.565 51.0321 160.405 51.0321 162.869C51.0321 165.413 53.0161 167.221 55.2241 167.221C56.3761 167.221 57.8321 166.725 58.5521 165.941L57.8161 165.157C57.3041 165.717 56.1841 166.149 55.2081 166.149ZM55.1601 159.637C56.8081 159.637 57.6881 160.789 57.8481 162.277H52.2801C52.5041 160.677 53.6881 159.637 55.1601 159.637ZM67.2243 155.845V160.309C66.6003 159.221 65.5443 158.565 64.2163 158.565C62.0403 158.565 60.4083 160.357 60.4083 162.885C60.4083 165.429 62.0403 167.221 64.2163 167.221C65.5443 167.221 66.6003 166.565 67.2243 165.477V167.029H68.4243V155.845H67.2243ZM64.4403 166.149C62.8243 166.149 61.6723 164.789 61.6723 162.885C61.6723 160.981 62.8243 159.637 64.4403 159.637C66.0723 159.637 67.2243 160.981 67.2243 162.885C67.2243 164.789 66.0723 166.149 64.4403 166.149ZM77.0988 157.621C77.0988 157.013 77.5148 156.581 77.9948 156.581C78.3628 156.581 78.6828 156.725 78.8588 156.917L79.4508 156.037C79.0188 155.701 78.4748 155.509 77.9148 155.509C76.7308 155.509 75.8988 156.389 75.8988 157.621V158.757H74.6028V159.829H75.8988V167.029H77.0988V159.829H79.1308V158.757H77.0988V157.621ZM84.2409 167.221C86.5769 167.221 88.4969 165.269 88.4969 162.885C88.4969 160.501 86.5769 158.565 84.2409 158.565C81.8889 158.565 79.9689 160.501 79.9689 162.885C79.9689 165.269 81.8889 167.221 84.2409 167.221ZM84.2409 166.149C82.5769 166.149 81.2169 164.677 81.2169 162.885C81.2169 161.093 82.5769 159.637 84.2409 159.637C85.8889 159.637 87.2489 161.093 87.2489 162.885C87.2489 164.677 85.8889 166.149 84.2409 166.149ZM91.7639 160.373V158.757H90.5639V167.029H91.7639V162.405C91.7639 160.789 93.0919 159.637 94.9639 159.637V158.565C93.4439 158.565 92.2599 159.269 91.7639 160.373ZM104.53 158.565C103.378 158.565 102.242 158.885 101.074 159.477L101.858 161.029C102.514 160.693 103.234 160.437 104.002 160.437C105.362 160.437 105.922 161.205 105.922 162.085V162.261C105.218 161.973 104.466 161.829 103.794 161.829C101.89 161.829 100.37 162.949 100.37 164.581C100.37 166.165 101.714 167.221 103.474 167.221C104.386 167.221 105.33 166.853 105.922 166.197V167.029H108.178V162.085C108.178 159.925 106.69 158.565 104.53 158.565ZM104.002 165.605C103.202 165.605 102.594 165.189 102.594 164.517C102.594 163.845 103.282 163.349 104.13 163.349C104.77 163.349 105.394 163.461 105.922 163.669V164.421C105.746 165.189 104.898 165.605 104.002 165.605ZM117.245 158.309C117.245 157.765 117.597 157.381 118.029 157.381C118.349 157.381 118.669 157.493 118.829 157.653L119.389 156.229C118.909 155.797 118.157 155.509 117.485 155.509C116.029 155.509 115.005 156.549 115.005 158.037V158.757H113.869V160.645H115.005V167.029H117.245V160.645H119.037V158.757H117.245V158.309ZM124.256 165.413C123.12 165.413 122.352 164.629 122.144 163.509H128.368C128.368 160.437 126.8 158.565 124.208 158.565C121.792 158.565 119.92 160.373 119.92 162.869C119.92 165.413 121.872 167.221 124.336 167.221C125.552 167.221 126.976 166.709 127.712 165.941L126.4 164.597C125.872 165.077 125.024 165.413 124.256 165.413ZM124.24 160.373C125.28 160.373 125.936 161.093 126.128 162.117H122.16C122.416 161.061 123.2 160.373 124.24 160.373ZM131.884 167.029H133.98L135.532 161.829L137.084 167.029H139.18L141.98 158.757H139.692L138.14 163.909L136.492 158.757H134.556L132.924 163.909L131.356 158.757H129.068L131.884 167.029ZM152.178 158.565C150.85 158.565 149.794 159.221 149.17 160.309V158.757H147.97V169.781H149.17V165.477C149.794 166.565 150.85 167.221 152.178 167.221C154.354 167.221 155.986 165.429 155.986 162.885C155.986 160.357 154.354 158.565 152.178 158.565ZM151.954 166.149C150.322 166.149 149.17 164.789 149.17 162.885C149.17 160.981 150.322 159.637 151.954 159.637C153.57 159.637 154.722 160.981 154.722 162.885C154.722 164.789 153.57 166.149 151.954 166.149ZM159.326 160.373V158.757H158.126V167.029H159.326V162.405C159.326 160.789 160.654 159.637 162.526 159.637V158.565C161.006 158.565 159.822 159.269 159.326 160.373ZM168.022 167.221C170.358 167.221 172.278 165.269 172.278 162.885C172.278 160.501 170.358 158.565 168.022 158.565C165.67 158.565 163.75 160.501 163.75 162.885C163.75 165.269 165.67 167.221 168.022 167.221ZM168.022 166.149C166.358 166.149 164.998 164.677 164.998 162.885C164.998 161.093 166.358 159.637 168.022 159.637C169.67 159.637 171.03 161.093 171.03 162.885C171.03 164.677 169.67 166.149 168.022 166.149ZM180.521 155.845V160.309C179.897 159.221 178.841 158.565 177.513 158.565C175.337 158.565 173.705 160.357 173.705 162.885C173.705 165.429 175.337 167.221 177.513 167.221C178.841 167.221 179.897 166.565 180.521 165.477V167.029H181.721V155.845H180.521ZM177.737 166.149C176.121 166.149 174.969 164.789 174.969 162.885C174.969 160.981 176.121 159.637 177.737 159.637C179.369 159.637 180.521 160.981 180.521 162.885C180.521 164.789 179.369 166.149 177.737 166.149ZM190.133 158.757V164.021C190.133 165.189 188.981 166.149 187.573 166.149C186.357 166.149 185.509 165.221 185.509 163.861V158.757H184.309V164.021C184.309 165.925 185.573 167.221 187.413 167.221C188.597 167.221 189.653 166.597 190.133 165.717V167.029H191.333V158.757H190.133ZM197.663 167.221C198.815 167.221 199.871 166.741 200.655 165.957L199.823 165.141C199.263 165.765 198.495 166.149 197.663 166.149C196.015 166.149 194.639 164.661 194.639 162.885C194.639 161.125 196.015 159.637 197.663 159.637C198.479 159.637 199.231 160.005 199.775 160.597L200.607 159.781C199.823 159.029 198.783 158.565 197.663 158.565C195.343 158.565 193.375 160.533 193.375 162.885C193.375 165.237 195.343 167.221 197.663 167.221ZM205.608 165.813C205.432 166.005 205.112 166.149 204.744 166.149C204.264 166.149 203.848 165.717 203.848 165.109V159.829H205.88V158.757H203.848V156.485H202.648V158.757H201.352V159.829H202.648V165.109C202.648 166.341 203.48 167.221 204.664 167.221C205.224 167.221 205.768 167.029 206.2 166.693L205.608 165.813ZM208.531 157.253C208.963 157.253 209.315 156.885 209.315 156.453C209.315 156.037 208.963 155.669 208.531 155.669C208.083 155.669 207.731 156.037 207.731 156.453C207.731 156.885 208.083 157.253 208.531 157.253ZM207.923 167.029H209.123V158.757H207.923V167.029ZM215.46 167.221C217.796 167.221 219.716 165.269 219.716 162.885C219.716 160.501 217.796 158.565 215.46 158.565C213.108 158.565 211.188 160.501 211.188 162.885C211.188 165.269 213.108 167.221 215.46 167.221ZM215.46 166.149C213.796 166.149 212.436 164.677 212.436 162.885C212.436 161.093 213.796 159.637 215.46 159.637C217.108 159.637 218.468 161.093 218.468 162.885C218.468 164.677 217.108 166.149 215.46 166.149ZM225.703 158.565C224.519 158.565 223.463 159.189 222.983 160.069V158.757H221.783V167.029H222.983V161.765C222.983 160.597 224.135 159.637 225.543 159.637C226.759 159.637 227.607 160.565 227.607 161.925V167.029H228.807V161.765C228.807 159.861 227.543 158.565 225.703 158.565ZM40.2426 179.565C39.4426 179.565 38.4506 179.773 37.2666 180.365L37.7466 181.341C38.4986 180.957 39.3306 180.589 40.1626 180.589C41.9546 180.589 42.4026 181.869 42.4026 182.989V183.293C41.5546 183.021 40.6106 182.829 39.7146 182.829C37.9386 182.829 36.4666 183.933 36.4666 185.581C36.4666 187.213 37.7466 188.221 39.4906 188.221C40.5786 188.221 41.8106 187.709 42.4026 186.733V188.029H43.6026V182.989C43.6026 180.989 42.4986 179.565 40.2426 179.565ZM39.6986 187.165C38.5306 187.165 37.6346 186.557 37.6346 185.533C37.6346 184.541 38.6746 183.837 39.9066 183.837C40.8026 183.837 41.6506 183.965 42.4026 184.173V185.437C42.0826 186.605 40.7866 187.165 39.6986 187.165ZM50.3969 179.565C49.0689 179.565 48.0129 180.221 47.3889 181.309V179.757H46.1889V190.781H47.3889V186.477C48.0129 187.565 49.0689 188.221 50.3969 188.221C52.5729 188.221 54.2049 186.429 54.2049 183.885C54.2049 181.357 52.5729 179.565 50.3969 179.565ZM50.1729 187.149C48.5409 187.149 47.3889 185.789 47.3889 183.885C47.3889 181.981 48.5409 180.637 50.1729 180.637C51.7889 180.637 52.9409 181.981 52.9409 183.885C52.9409 185.789 51.7889 187.149 50.1729 187.149ZM60.5531 179.565C59.2251 179.565 58.1691 180.221 57.5451 181.309V179.757H56.3451V190.781H57.5451V186.477C58.1691 187.565 59.2251 188.221 60.5531 188.221C62.7291 188.221 64.3611 186.429 64.3611 183.885C64.3611 181.357 62.7291 179.565 60.5531 179.565ZM60.3291 187.149C58.6971 187.149 57.5451 185.789 57.5451 183.885C57.5451 181.981 58.6971 180.637 60.3291 180.637C61.9451 180.637 63.0971 181.981 63.0971 183.885C63.0971 185.789 61.9451 187.149 60.3291 187.149ZM66.5014 188.029H67.7014V176.845H66.5014V188.029ZM71.0938 178.253C71.5258 178.253 71.8778 177.885 71.8778 177.453C71.8778 177.037 71.5258 176.669 71.0938 176.669C70.6458 176.669 70.2938 177.037 70.2938 177.453C70.2938 177.885 70.6458 178.253 71.0938 178.253ZM70.4858 188.029H71.6858V179.757H70.4858V188.029ZM78.0221 188.221C79.1741 188.221 80.2301 187.741 81.0141 186.957L80.1821 186.141C79.6221 186.765 78.8541 187.149 78.0221 187.149C76.3741 187.149 74.9981 185.661 74.9981 183.885C74.9981 182.125 76.3741 180.637 78.0221 180.637C78.8381 180.637 79.5901 181.005 80.1341 181.597L80.9661 180.781C80.1821 180.029 79.1421 179.565 78.0221 179.565C75.7021 179.565 73.7341 181.533 73.7341 183.885C73.7341 186.237 75.7021 188.221 78.0221 188.221ZM85.727 179.565C84.927 179.565 83.935 179.773 82.751 180.365L83.231 181.341C83.983 180.957 84.815 180.589 85.647 180.589C87.439 180.589 87.887 181.869 87.887 182.989V183.293C87.039 183.021 86.095 182.829 85.199 182.829C83.423 182.829 81.951 183.933 81.951 185.581C81.951 187.213 83.231 188.221 84.975 188.221C86.063 188.221 87.295 187.709 87.887 186.733V188.029H89.087V182.989C89.087 180.989 87.983 179.565 85.727 179.565ZM85.183 187.165C84.015 187.165 83.119 186.557 83.119 185.533C83.119 184.541 84.159 183.837 85.391 183.837C86.287 183.837 87.135 183.965 87.887 184.173V185.437C87.567 186.605 86.271 187.165 85.183 187.165ZM94.8733 186.813C94.6973 187.005 94.3773 187.149 94.0093 187.149C93.5293 187.149 93.1133 186.717 93.1133 186.109V180.829H95.1453V179.757H93.1133V177.485H91.9133V179.757H90.6173V180.829H91.9133V186.109C91.9133 187.341 92.7453 188.221 93.9293 188.221C94.4893 188.221 95.0333 188.029 95.4653 187.693L94.8733 186.813ZM97.7969 178.253C98.2289 178.253 98.5809 177.885 98.5809 177.453C98.5809 177.037 98.2289 176.669 97.7969 176.669C97.3489 176.669 96.9969 177.037 96.9969 177.453C96.9969 177.885 97.3489 178.253 97.7969 178.253ZM97.1889 188.029H98.3889V179.757H97.1889V188.029ZM104.725 188.221C107.061 188.221 108.981 186.269 108.981 183.885C108.981 181.501 107.061 179.565 104.725 179.565C102.373 179.565 100.453 181.501 100.453 183.885C100.453 186.269 102.373 188.221 104.725 188.221ZM104.725 187.149C103.061 187.149 101.701 185.677 101.701 183.885C101.701 182.093 103.061 180.637 104.725 180.637C106.373 180.637 107.733 182.093 107.733 183.885C107.733 185.677 106.373 187.149 104.725 187.149ZM114.968 179.565C113.784 179.565 112.728 180.189 112.248 181.069V179.757H111.048V188.029H112.248V182.765C112.248 181.597 113.4 180.637 114.808 180.637C116.024 180.637 116.872 181.565 116.872 182.925V188.029H118.072V182.765C118.072 180.861 116.808 179.565 114.968 179.565ZM123.218 188.221C124.93 188.221 126.242 187.245 126.242 185.725C126.242 184.157 124.866 183.709 123.538 183.293C122.002 182.797 121.394 182.573 121.394 181.853C121.394 181.053 122.162 180.637 123.09 180.637C123.826 180.637 124.642 180.893 125.474 181.421L126.05 180.493C125.17 179.917 124.114 179.565 123.09 179.565C121.442 179.565 120.194 180.493 120.194 181.997C120.194 183.181 120.962 183.773 122.962 184.349C124.082 184.669 125.042 184.957 125.042 185.853C125.042 186.637 124.306 187.149 123.218 187.149C122.306 187.149 121.362 186.797 120.418 186.109L119.794 186.989C120.786 187.789 122.066 188.221 123.218 188.221ZM135.665 179.565C134.865 179.565 133.873 179.773 132.689 180.365L133.169 181.341C133.921 180.957 134.753 180.589 135.585 180.589C137.377 180.589 137.825 181.869 137.825 182.989V183.293C136.977 183.021 136.033 182.829 135.137 182.829C133.361 182.829 131.889 183.933 131.889 185.581C131.889 187.213 133.169 188.221 134.913 188.221C136.001 188.221 137.233 187.709 137.825 186.733V188.029H139.025V182.989C139.025 180.989 137.921 179.565 135.665 179.565ZM135.121 187.165C133.953 187.165 133.057 186.557 133.057 185.533C133.057 184.541 134.097 183.837 135.329 183.837C136.225 183.837 137.073 183.965 137.825 184.173V185.437C137.505 186.605 136.209 187.165 135.121 187.165ZM145.531 179.565C144.347 179.565 143.291 180.189 142.811 181.069V179.757H141.611V188.029H142.811V182.765C142.811 181.597 143.963 180.637 145.371 180.637C146.587 180.637 147.435 181.565 147.435 182.925V188.029H148.635V182.765C148.635 180.861 147.371 179.565 145.531 179.565ZM157.396 176.845V181.309C156.772 180.221 155.716 179.565 154.388 179.565C152.212 179.565 150.58 181.357 150.58 183.885C150.58 186.429 152.212 188.221 154.388 188.221C155.716 188.221 156.772 187.565 157.396 186.477V188.029H158.596V176.845H157.396ZM154.612 187.149C152.996 187.149 151.844 185.789 151.844 183.885C151.844 181.981 152.996 180.637 154.612 180.637C156.244 180.637 157.396 181.981 157.396 183.885C157.396 185.789 156.244 187.149 154.612 187.149ZM169.991 179.565C168.663 179.565 167.607 180.221 166.983 181.309V176.845H165.783V188.029H166.983V186.477C167.607 187.565 168.663 188.221 169.991 188.221C172.167 188.221 173.799 186.429 173.799 183.885C173.799 181.357 172.167 179.565 169.991 179.565ZM169.767 187.149C168.135 187.149 166.983 185.789 166.983 183.885C166.983 181.981 168.135 180.637 169.767 180.637C171.383 180.637 172.535 181.981 172.535 183.885C172.535 185.789 171.383 187.149 169.767 187.149ZM181.571 179.757V185.021C181.571 186.189 180.419 187.149 179.011 187.149C177.795 187.149 176.947 186.221 176.947 184.861V179.757H175.747V185.021C175.747 186.925 177.011 188.221 178.851 188.221C180.035 188.221 181.091 187.597 181.571 186.717V188.029H182.771V179.757H181.571ZM188.108 188.221C189.82 188.221 191.132 187.245 191.132 185.725C191.132 184.157 189.756 183.709 188.428 183.293C186.892 182.797 186.284 182.573 186.284 181.853C186.284 181.053 187.052 180.637 187.98 180.637C188.716 180.637 189.532 180.893 190.364 181.421L190.94 180.493C190.06 179.917 189.004 179.565 187.98 179.565C186.332 179.565 185.084 180.493 185.084 181.997C185.084 183.181 185.852 183.773 187.852 184.349C188.972 184.669 189.932 184.957 189.932 185.853C189.932 186.637 189.196 187.149 188.108 187.149C187.196 187.149 186.252 186.797 185.308 186.109L184.684 186.989C185.676 187.789 186.956 188.221 188.108 188.221ZM193.797 178.253C194.229 178.253 194.581 177.885 194.581 177.453C194.581 177.037 194.229 176.669 193.797 176.669C193.349 176.669 192.997 177.037 192.997 177.453C192.997 177.885 193.349 178.253 193.797 178.253ZM193.189 188.029H194.389V179.757H193.189V188.029ZM201.093 179.565C199.909 179.565 198.853 180.189 198.373 181.069V179.757H197.173V188.029H198.373V182.765C198.373 181.597 199.525 180.637 200.933 180.637C202.149 180.637 202.997 181.565 202.997 182.925V188.029H204.197V182.765C204.197 180.861 202.933 179.565 201.093 179.565ZM210.271 187.149C208.639 187.149 207.503 185.965 207.327 184.349H214.095C214.095 181.453 212.671 179.565 210.175 179.565C207.951 179.565 206.095 181.405 206.095 183.869C206.095 186.413 208.079 188.221 210.287 188.221C211.439 188.221 212.895 187.725 213.615 186.941L212.879 186.157C212.367 186.717 211.247 187.149 210.271 187.149ZM210.223 180.637C211.871 180.637 212.751 181.789 212.911 183.277H207.343C207.567 181.677 208.751 180.637 210.223 180.637ZM218.671 188.221C220.383 188.221 221.695 187.245 221.695 185.725C221.695 184.157 220.319 183.709 218.991 183.293C217.455 182.797 216.847 182.573 216.847 181.853C216.847 181.053 217.615 180.637 218.543 180.637C219.279 180.637 220.095 180.893 220.927 181.421L221.503 180.493C220.623 179.917 219.567 179.565 218.543 179.565C216.895 179.565 215.647 180.493 215.647 181.997C215.647 183.181 216.415 183.773 218.415 184.349C219.535 184.669 220.495 184.957 220.495 185.853C220.495 186.637 219.759 187.149 218.671 187.149C217.759 187.149 216.815 186.797 215.871 186.109L215.247 186.989C216.239 187.789 217.519 188.221 218.671 188.221ZM226.311 188.221C228.023 188.221 229.335 187.245 229.335 185.725C229.335 184.157 227.959 183.709 226.631 183.293C225.095 182.797 224.487 182.573 224.487 181.853C224.487 181.053 225.255 180.637 226.183 180.637C226.919 180.637 227.735 180.893 228.567 181.421L229.143 180.493C228.263 179.917 227.207 179.565 226.183 179.565C224.535 179.565 223.287 180.493 223.287 181.997C223.287 183.181 224.055 183.773 226.055 184.349C227.175 184.669 228.135 184.957 228.135 185.853C228.135 186.637 227.399 187.149 226.311 187.149C225.399 187.149 224.455 186.797 223.511 186.109L222.887 186.989C223.879 187.789 225.159 188.221 226.311 188.221ZM14.7801 209.221C16.4921 209.221 17.8041 208.245 17.8041 206.725C17.8041 205.157 16.4281 204.709 15.1001 204.293C13.5641 203.797 12.9561 203.573 12.9561 202.853C12.9561 202.053 13.7241 201.637 14.6521 201.637C15.3881 201.637 16.2041 201.893 17.0361 202.421L17.6121 201.493C16.7321 200.917 15.6761 200.565 14.6521 200.565C13.0041 200.565 11.7561 201.493 11.7561 202.997C11.7561 204.181 12.5241 204.773 14.5241 205.349C15.6441 205.669 16.6041 205.957 16.6041 206.853C16.6041 207.637 15.8681 208.149 14.7801 208.149C13.8681 208.149 12.9241 207.797 11.9801 207.109L11.3561 207.989C12.3481 208.789 13.6281 209.221 14.7801 209.221ZM23.3488 208.149C21.7168 208.149 20.5807 206.965 20.4048 205.349H27.1728C27.1728 202.453 25.7488 200.565 23.2528 200.565C21.0288 200.565 19.1728 202.405 19.1728 204.869C19.1728 207.413 21.1568 209.221 23.3648 209.221C24.5168 209.221 25.9728 208.725 26.6927 207.941L25.9568 207.157C25.4448 207.717 24.3248 208.149 23.3488 208.149ZM23.3008 201.637C24.9488 201.637 25.8288 202.789 25.9888 204.277H20.4208C20.6448 202.677 21.8288 201.637 23.3008 201.637ZM35.2849 200.757V202.181C34.6449 201.173 33.5889 200.565 32.2769 200.565C30.0529 200.565 28.4689 202.181 28.4689 204.485C28.4689 206.789 30.0529 208.421 32.2769 208.421C33.5889 208.421 34.6449 207.813 35.2849 206.805V208.149C35.2849 209.765 34.1649 210.709 32.2609 210.709C31.2369 210.709 30.2449 210.341 29.6049 209.733L29.0769 210.677C29.8289 211.317 31.0769 211.781 32.4209 211.781C34.8049 211.781 36.4849 210.277 36.4849 208.149V200.757H35.2849ZM32.5009 207.349C30.8849 207.349 29.7329 206.165 29.7329 204.485C29.7329 202.821 30.8849 201.637 32.5009 201.637C34.1329 201.637 35.2849 202.821 35.2849 204.485C35.2849 206.165 34.1329 207.349 32.5009 207.349ZM48.211 200.565C46.899 200.565 45.875 201.365 45.619 202.533C45.203 201.333 44.179 200.565 42.867 200.565C41.779 200.565 40.883 201.109 40.467 201.973V200.757H39.267V209.029H40.467V203.765C40.467 202.517 41.395 201.637 42.707 201.637C43.827 201.637 44.611 202.581 44.611 203.925V209.029H45.811V203.765C45.811 202.517 46.739 201.637 48.051 201.637C49.171 201.637 49.955 202.581 49.955 203.925V209.029H51.155V203.765C51.155 201.893 49.939 200.565 48.211 200.565ZM57.2394 208.149C55.6074 208.149 54.4714 206.965 54.2954 205.349H61.0634C61.0634 202.453 59.6394 200.565 57.1434 200.565C54.9194 200.565 53.0634 202.405 53.0634 204.869C53.0634 207.413 55.0474 209.221 57.2554 209.221C58.4074 209.221 59.8634 208.725 60.5834 207.941L59.8474 207.157C59.3354 207.717 58.2154 208.149 57.2394 208.149ZM57.1914 201.637C58.8394 201.637 59.7194 202.789 59.8794 204.277H54.3114C54.5354 202.677 55.7194 201.637 57.1914 201.637ZM66.9995 200.565C65.8155 200.565 64.7595 201.189 64.2795 202.069V200.757H63.0795V209.029H64.2795V203.765C64.2795 202.597 65.4315 201.637 66.8395 201.637C68.0555 201.637 68.9035 202.565 68.9035 203.925V209.029H70.1035V203.765C70.1035 201.861 68.8395 200.565 66.9995 200.565ZM75.8889 207.813C75.7129 208.005 75.3929 208.149 75.0249 208.149C74.5449 208.149 74.1289 207.717 74.1289 207.109V201.829H76.1609V200.757H74.1289V198.485H72.9289V200.757H71.6329V201.829H72.9289V207.109C72.9289 208.341 73.7609 209.221 74.9449 209.221C75.5049 209.221 76.0489 209.029 76.4809 208.693L75.8889 207.813ZM80.7645 209.221C82.4765 209.221 83.7885 208.245 83.7885 206.725C83.7885 205.157 82.4125 204.709 81.0845 204.293C79.5485 203.797 78.9405 203.573 78.9405 202.853C78.9405 202.053 79.7085 201.637 80.6365 201.637C81.3725 201.637 82.1885 201.893 83.0205 202.421L83.5965 201.493C82.7165 200.917 81.6605 200.565 80.6365 200.565C78.9885 200.565 77.7405 201.493 77.7405 202.997C77.7405 204.181 78.5085 204.773 80.5085 205.349C81.6285 205.669 82.5885 205.957 82.5885 206.853C82.5885 207.637 81.8525 208.149 80.7645 208.149C79.8525 208.149 78.9085 207.797 77.9645 207.109L77.3405 207.989C78.3325 208.789 79.6125 209.221 80.7645 209.221ZM90.8594 199.253C91.2914 199.253 91.6434 198.885 91.6434 198.453C91.6434 198.037 91.2914 197.669 90.8594 197.669C90.4114 197.669 90.0594 198.037 90.0594 198.453C90.0594 198.885 90.4114 199.253 90.8594 199.253ZM90.2514 209.029H91.4514V200.757H90.2514V209.029ZM98.1558 200.565C96.9718 200.565 95.9158 201.189 95.4358 202.069V200.757H94.2358V209.029H95.4358V203.765C95.4358 202.597 96.5878 201.637 97.9958 201.637C99.2118 201.637 100.06 202.565 100.06 203.925V209.029H101.26V203.765C101.26 201.861 99.9958 200.565 98.1558 200.565ZM111.451 207.813C111.275 208.005 110.955 208.149 110.587 208.149C110.107 208.149 109.691 207.717 109.691 207.109V201.829H111.723V200.757H109.691V198.485H108.491V200.757H107.195V201.829H108.491V207.109C108.491 208.341 109.323 209.221 110.507 209.221C111.067 209.221 111.611 209.029 112.043 208.693L111.451 207.813ZM117.687 200.565C116.503 200.565 115.447 201.189 114.967 202.069V197.845H113.767V209.029H114.967V203.765C114.967 202.597 116.119 201.637 117.527 201.637C118.743 201.637 119.591 202.565 119.591 203.925V209.029H120.791V203.765C120.791 201.861 119.527 200.565 117.687 200.565ZM126.864 208.149C125.232 208.149 124.096 206.965 123.92 205.349H130.688C130.688 202.453 129.264 200.565 126.768 200.565C124.544 200.565 122.688 202.405 122.688 204.869C122.688 207.413 124.672 209.221 126.88 209.221C128.032 209.221 129.488 208.725 130.208 207.941L129.472 207.157C128.96 207.717 127.84 208.149 126.864 208.149ZM126.816 201.637C128.464 201.637 129.344 202.789 129.504 204.277H123.936C124.16 202.677 125.344 201.637 126.816 201.637ZM140.663 209.221C142.999 209.221 144.919 207.269 144.919 204.885C144.919 202.501 142.999 200.565 140.663 200.565C138.311 200.565 136.391 202.501 136.391 204.885C136.391 207.269 138.311 209.221 140.663 209.221ZM140.663 208.149C138.999 208.149 137.639 206.677 137.639 204.885C137.639 203.093 138.999 201.637 140.663 201.637C142.311 201.637 143.671 203.093 143.671 204.885C143.671 206.677 142.311 208.149 140.663 208.149ZM148.186 202.373V200.757H146.986V209.029H148.186V204.405C148.186 202.789 149.514 201.637 151.386 201.637V200.565C149.866 200.565 148.682 201.269 148.186 202.373ZM159.426 200.757V202.181C158.786 201.173 157.73 200.565 156.418 200.565C154.194 200.565 152.61 202.181 152.61 204.485C152.61 206.789 154.194 208.421 156.418 208.421C157.73 208.421 158.786 207.813 159.426 206.805V208.149C159.426 209.765 158.306 210.709 156.402 210.709C155.378 210.709 154.386 210.341 153.746 209.733L153.218 210.677C153.97 211.317 155.218 211.781 156.562 211.781C158.946 211.781 160.626 210.277 160.626 208.149V200.757H159.426ZM156.641 207.349C155.026 207.349 153.874 206.165 153.874 204.485C153.874 202.821 155.026 201.637 156.641 201.637C158.274 201.637 159.426 202.821 159.426 204.485C159.426 206.165 158.274 207.349 156.641 207.349ZM166.368 200.565C165.568 200.565 164.576 200.773 163.392 201.365L163.872 202.341C164.624 201.957 165.456 201.589 166.288 201.589C168.08 201.589 168.528 202.869 168.528 203.989V204.293C167.68 204.021 166.736 203.829 165.84 203.829C164.064 203.829 162.592 204.933 162.592 206.581C162.592 208.213 163.872 209.221 165.616 209.221C166.704 209.221 167.936 208.709 168.528 207.733V209.029H169.728V203.989C169.728 201.989 168.624 200.565 166.368 200.565ZM165.824 208.165C164.656 208.165 163.76 207.557 163.76 206.533C163.76 205.541 164.8 204.837 166.032 204.837C166.928 204.837 167.776 204.965 168.528 205.173V206.437C168.208 207.605 166.912 208.165 165.824 208.165ZM176.234 200.565C175.05 200.565 173.994 201.189 173.514 202.069V200.757H172.314V209.029H173.514V203.765C173.514 202.597 174.666 201.637 176.074 201.637C177.29 201.637 178.138 202.565 178.138 203.925V209.029H179.338V203.765C179.338 201.861 178.074 200.565 176.234 200.565ZM182.531 199.253C182.963 199.253 183.315 198.885 183.315 198.453C183.315 198.037 182.963 197.669 182.531 197.669C182.083 197.669 181.731 198.037 181.731 198.453C181.731 198.885 182.083 199.253 182.531 199.253ZM181.923 209.029H183.123V200.757H181.923V209.029ZM185.044 209.029H191.572V207.893H186.644L191.54 201.701V200.757H185.14V201.893H189.924L185.044 208.085V209.029ZM196.461 200.565C195.661 200.565 194.669 200.773 193.485 201.365L193.965 202.341C194.717 201.957 195.549 201.589 196.381 201.589C198.173 201.589 198.621 202.869 198.621 203.989V204.293C197.773 204.021 196.829 203.829 195.933 203.829C194.157 203.829 192.685 204.933 192.685 206.581C192.685 208.213 193.965 209.221 195.709 209.221C196.797 209.221 198.029 208.709 198.621 207.733V209.029H199.821V203.989C199.821 201.989 198.717 200.565 196.461 200.565ZM195.917 208.165C194.749 208.165 193.853 207.557 193.853 206.533C193.853 205.541 194.893 204.837 196.125 204.837C197.021 204.837 197.869 204.965 198.621 205.173V206.437C198.301 207.605 197.005 208.165 195.917 208.165ZM205.608 207.813C205.432 208.005 205.112 208.149 204.744 208.149C204.264 208.149 203.848 207.717 203.848 207.109V201.829H205.88V200.757H203.848V198.485H202.648V200.757H201.352V201.829H202.648V207.109C202.648 208.341 203.48 209.221 204.664 209.221C205.224 209.221 205.768 209.029 206.2 208.693L205.608 207.813ZM208.531 199.253C208.963 199.253 209.315 198.885 209.315 198.453C209.315 198.037 208.963 197.669 208.531 197.669C208.083 197.669 207.731 198.037 207.731 198.453C207.731 198.885 208.083 199.253 208.531 199.253ZM207.923 209.029H209.123V200.757H207.923V209.029ZM215.46 209.221C217.796 209.221 219.716 207.269 219.716 204.885C219.716 202.501 217.796 200.565 215.46 200.565C213.108 200.565 211.188 202.501 211.188 204.885C211.188 207.269 213.108 209.221 215.46 209.221ZM215.46 208.149C213.796 208.149 212.436 206.677 212.436 204.885C212.436 203.093 213.796 201.637 215.46 201.637C217.108 201.637 218.468 203.093 218.468 204.885C218.468 206.677 217.108 208.149 215.46 208.149ZM225.703 200.565C224.519 200.565 223.463 201.189 222.983 202.069V200.757H221.783V209.029H222.983V203.765C222.983 202.597 224.135 201.637 225.543 201.637C226.759 201.637 227.607 202.565 227.607 203.925V209.029H228.807V203.765C228.807 201.861 227.543 200.565 225.703 200.565Z" fill="#0F0B47"/>
<path d="M149.189 277H151.557V273.432H154.133C156.533 273.432 158.277 271.896 158.277 269.72C158.277 267.544 156.533 266.008 154.133 266.008H149.189V277ZM151.557 271.272V268.168H153.893C155.061 268.168 155.861 268.776 155.861 269.72C155.861 270.664 155.061 271.272 153.893 271.272H151.557ZM161.226 267.592C161.914 267.592 162.474 267.016 162.474 266.312C162.474 265.656 161.914 265.064 161.226 265.064C160.506 265.064 159.946 265.656 159.946 266.312C159.946 267.016 160.506 267.592 161.226 267.592ZM160.042 277H162.378V268.728H160.042V277ZM164.62 277H166.956V265.816H164.62V277ZM173.134 277.192C175.614 277.192 177.646 275.24 177.646 272.856C177.646 270.472 175.614 268.536 173.134 268.536C170.654 268.536 168.622 270.472 168.622 272.856C168.622 275.24 170.654 277.192 173.134 277.192ZM173.134 275.224C171.886 275.224 170.862 274.152 170.862 272.856C170.862 271.56 171.886 270.504 173.134 270.504C174.382 270.504 175.39 271.56 175.39 272.856C175.39 274.152 174.382 275.224 173.134 275.224ZM183.5 274.952C183.34 275.112 183.02 275.224 182.7 275.224C182.268 275.224 181.932 274.84 181.932 274.296V270.616H183.724V268.728H181.932V266.456H179.676V268.728H178.54V270.616H179.676V274.664C179.676 276.152 180.7 277.192 182.172 277.192C182.828 277.192 183.58 276.904 184.06 276.472L183.5 274.952ZM186.757 267.592C187.445 267.592 188.005 267.016 188.005 266.312C188.005 265.656 187.445 265.064 186.757 265.064C186.037 265.064 185.477 265.656 185.477 266.312C185.477 267.016 186.037 267.592 186.757 267.592ZM185.573 277H187.909V268.728H185.573V277ZM194.983 268.536C193.911 268.536 192.999 269 192.487 269.736V268.728H190.151V277H192.487V272.104C192.487 271.208 193.239 270.504 194.215 270.504C195.143 270.504 195.799 271.208 195.799 272.232V277H198.039V271.736C198.039 269.848 196.775 268.536 194.983 268.536ZM205.96 268.728V269.848C205.4 269.064 204.328 268.536 203.224 268.536C201.128 268.536 199.544 270.152 199.544 272.456C199.544 274.76 201.128 276.392 203.224 276.392C204.328 276.392 205.304 275.912 205.96 275.096V276.024C205.96 277.096 205 277.784 203.496 277.784C202.536 277.784 201.56 277.48 201.016 277L200.2 278.648C201.032 279.288 202.392 279.752 203.848 279.752C206.456 279.752 208.296 278.248 208.296 276.12V268.728H205.96ZM203.96 274.424C202.792 274.424 201.96 273.608 201.96 272.456C201.96 271.304 202.792 270.504 203.96 270.504C205.128 270.504 205.96 271.304 205.96 272.456C205.96 273.608 205.128 274.424 203.96 274.424ZM218.725 277.192C221.061 277.192 222.981 275.24 222.981 272.856C222.981 270.472 221.061 268.536 218.725 268.536C216.373 268.536 214.453 270.472 214.453 272.856C214.453 275.24 216.373 277.192 218.725 277.192ZM218.725 276.12C217.061 276.12 215.701 274.648 215.701 272.856C215.701 271.064 217.061 269.608 218.725 269.608C220.373 269.608 221.733 271.064 221.733 272.856C221.733 274.648 220.373 276.12 218.725 276.12ZM226.248 270.344V268.728H225.048V277H226.248V272.376C226.248 270.76 227.576 269.608 229.448 269.608V268.536C227.928 268.536 226.744 269.24 226.248 270.344ZM85.108 289.536C83.956 289.536 82.82 289.856 81.652 290.448L82.436 292C83.092 291.664 83.812 291.408 84.58 291.408C85.94 291.408 86.5 292.176 86.5 293.056V293.232C85.796 292.944 85.044 292.8 84.372 292.8C82.468 292.8 80.948 293.92 80.948 295.552C80.948 297.136 82.292 298.192 84.052 298.192C84.964 298.192 85.908 297.824 86.5 297.168V298H88.756V293.056C88.756 290.896 87.268 289.536 85.108 289.536ZM84.58 296.576C83.78 296.576 83.172 296.16 83.172 295.488C83.172 294.816 83.86 294.32 84.708 294.32C85.348 294.32 85.972 294.432 86.5 294.64V295.392C86.324 296.16 85.476 296.576 84.58 296.576ZM94.7115 298.192C96.1035 298.192 97.2235 297.632 98.0395 296.736L96.4875 295.424C96.0555 295.904 95.3835 296.224 94.7435 296.224C93.5115 296.224 92.4875 295.136 92.4875 293.84C92.4875 292.576 93.5115 291.504 94.7275 291.504C95.3675 291.504 96.0235 291.808 96.4395 292.272L97.9915 290.944C97.1915 290.08 96.0715 289.536 94.7435 289.536C92.2955 289.536 90.2155 291.504 90.2155 293.856C90.2155 296.208 92.2795 298.192 94.7115 298.192ZM103.687 295.952C103.527 296.112 103.207 296.224 102.887 296.224C102.455 296.224 102.119 295.84 102.119 295.296V291.616H103.911V289.728H102.119V287.456H99.8634V289.728H98.7274V291.616H99.8634V295.664C99.8634 297.152 100.887 298.192 102.359 298.192C103.015 298.192 103.767 297.904 104.247 297.472L103.687 295.952ZM106.945 288.592C107.633 288.592 108.193 288.016 108.193 287.312C108.193 286.656 107.633 286.064 106.945 286.064C106.225 286.064 105.665 286.656 105.665 287.312C105.665 288.016 106.225 288.592 106.945 288.592ZM105.761 298H108.097V289.728H105.761V298ZM112.979 298H115.155L118.691 289.728H116.243L114.067 295.312L111.843 289.728H109.411L112.979 298ZM123.771 296.384C122.635 296.384 121.867 295.6 121.659 294.48H127.883C127.883 291.408 126.315 289.536 123.723 289.536C121.307 289.536 119.435 291.344 119.435 293.84C119.435 296.384 121.387 298.192 123.851 298.192C125.067 298.192 126.491 297.68 127.227 296.912L125.915 295.568C125.387 296.048 124.539 296.384 123.771 296.384ZM123.755 291.344C124.795 291.344 125.451 292.064 125.643 293.088H121.675C121.931 292.032 122.715 291.344 123.755 291.344ZM129.464 298H131.8V286.816H129.464V298ZM135.786 300.88C137.082 300.88 138.138 300.032 138.762 298.416L142.154 289.728H139.77L137.706 295.536L135.53 289.728H133.114L136.554 298.08L136.266 298.688C136.09 298.992 135.738 299.136 135.29 299.136C135.018 299.136 134.602 298.992 134.202 298.768L133.706 300.368C134.266 300.672 135.098 300.88 135.786 300.88ZM151.615 296.384C150.479 296.384 149.711 295.6 149.503 294.48H155.727C155.727 291.408 154.159 289.536 151.567 289.536C149.151 289.536 147.279 291.344 147.279 293.84C147.279 296.384 149.231 298.192 151.695 298.192C152.911 298.192 154.335 297.68 155.071 296.912L153.759 295.568C153.231 296.048 152.383 296.384 151.615 296.384ZM151.599 291.344C152.639 291.344 153.295 292.064 153.487 293.088H149.519C149.775 292.032 150.559 291.344 151.599 291.344ZM159.948 298H162.124L165.66 289.728H163.212L161.036 295.312L158.812 289.728H156.38L159.948 298ZM170.436 289.536C169.284 289.536 168.148 289.856 166.98 290.448L167.764 292C168.42 291.664 169.14 291.408 169.908 291.408C171.268 291.408 171.828 292.176 171.828 293.056V293.232C171.124 292.944 170.372 292.8 169.7 292.8C167.796 292.8 166.276 293.92 166.276 295.552C166.276 297.136 167.62 298.192 169.38 298.192C170.292 298.192 171.236 297.824 171.828 297.168V298H174.084V293.056C174.084 290.896 172.596 289.536 170.436 289.536ZM169.908 296.576C169.108 296.576 168.5 296.16 168.5 295.488C168.5 294.816 169.188 294.32 170.036 294.32C170.676 294.32 171.3 294.432 171.828 294.64V295.392C171.652 296.16 170.804 296.576 169.908 296.576ZM176.136 298H178.472V286.816H176.136V298ZM186.106 289.728V294.624C186.106 295.52 185.354 296.224 184.378 296.224C183.45 296.224 182.794 295.52 182.794 294.496V289.728H180.554V294.992C180.554 296.88 181.818 298.192 183.626 298.192C184.682 298.192 185.594 297.728 186.106 296.992V298H188.442V289.728H186.106ZM194.171 289.536C193.019 289.536 191.883 289.856 190.715 290.448L191.499 292C192.155 291.664 192.875 291.408 193.643 291.408C195.003 291.408 195.563 292.176 195.563 293.056V293.232C194.859 292.944 194.107 292.8 193.435 292.8C191.531 292.8 190.011 293.92 190.011 295.552C190.011 297.136 191.355 298.192 193.115 298.192C194.027 298.192 194.971 297.824 195.563 297.168V298H197.819V293.056C197.819 290.896 196.331 289.536 194.171 289.536ZM193.643 296.576C192.843 296.576 192.235 296.16 192.235 295.488C192.235 294.816 192.923 294.32 193.771 294.32C194.411 294.32 195.035 294.432 195.563 294.64V295.392C195.387 296.16 194.539 296.576 193.643 296.576ZM204.078 295.952C203.918 296.112 203.598 296.224 203.278 296.224C202.846 296.224 202.51 295.84 202.51 295.296V291.616H204.302V289.728H202.51V287.456H200.254V289.728H199.118V291.616H200.254V295.664C200.254 297.152 201.278 298.192 202.75 298.192C203.406 298.192 204.158 297.904 204.638 297.472L204.078 295.952ZM207.335 288.592C208.023 288.592 208.583 288.016 208.583 287.312C208.583 286.656 208.023 286.064 207.335 286.064C206.615 286.064 206.055 286.656 206.055 287.312C206.055 288.016 206.615 288.592 207.335 288.592ZM206.151 298H208.487V289.728H206.151V298ZM215.561 289.536C214.489 289.536 213.577 290 213.065 290.736V289.728H210.729V298H213.065V293.104C213.065 292.208 213.817 291.504 214.793 291.504C215.721 291.504 216.377 292.208 216.377 293.232V298H218.617V292.736C218.617 290.848 217.353 289.536 215.561 289.536ZM226.538 289.728V290.848C225.978 290.064 224.906 289.536 223.802 289.536C221.706 289.536 220.122 291.152 220.122 293.456C220.122 295.76 221.706 297.392 223.802 297.392C224.906 297.392 225.882 296.912 226.538 296.096V297.024C226.538 298.096 225.578 298.784 224.074 298.784C223.114 298.784 222.138 298.48 221.594 298L220.778 299.648C221.61 300.288 222.97 300.752 224.426 300.752C227.034 300.752 228.874 299.248 228.874 297.12V289.728H226.538ZM224.538 295.424C223.37 295.424 222.538 294.608 222.538 293.456C222.538 292.304 223.37 291.504 224.538 291.504C225.706 291.504 226.538 292.304 226.538 293.456C226.538 294.608 225.706 295.424 224.538 295.424Z" fill="#0F0B47"/>
<line x1="295.5" y1="-1.9635e-08" x2="295.5" y2="339" stroke="#0F0B47"/>
</svg>
