<svg width="1176" height="483" viewBox="0 0 1176 483" fill="none" xmlns="http://www.w3.org/2000/svg">
<circle cx="1048.72" cy="220.717" r="126.717" transform="rotate(-180 1048.72 220.717)" fill="#1B0085"/>
<path d="M922 220.717C922 192.254 931.583 164.62 949.204 142.267C966.825 119.915 991.459 104.146 1019.14 97.5012C1046.81 90.8566 1075.92 93.7235 1101.77 105.64C1127.62 117.556 1148.7 137.828 1161.62 163.189C1174.54 188.549 1178.55 217.522 1173 245.438C1167.45 273.354 1152.66 298.588 1131.01 317.073C1109.37 335.558 1082.13 346.218 1053.69 347.336C1025.25 348.453 997.262 339.963 974.235 323.233L1048.72 220.717L922 220.717Z" fill="#5C2CFF"/>
<path d="M922 220.717C922 196.671 928.842 173.121 941.726 152.818C954.611 132.516 973.006 116.298 994.763 106.06C1016.52 95.8217 1040.74 91.9854 1064.6 94.9992C1088.46 98.0129 1110.96 107.752 1129.49 123.08C1148.02 138.407 1161.8 158.69 1169.23 181.559C1176.66 204.428 1177.43 228.939 1171.45 252.23C1165.47 275.52 1152.99 296.629 1135.46 313.089C1117.93 329.55 1096.08 340.683 1072.46 345.189L1048.72 220.717L922 220.717Z" fill="#F1B5DB"/>
<path d="M922 220.717C922 199.71 927.223 179.032 937.198 160.544C947.173 142.057 961.589 126.339 979.146 114.806C996.704 103.273 1016.85 96.2852 1037.78 94.4726C1058.71 92.66 1079.76 96.0789 1099.04 104.422C1118.32 112.765 1135.22 125.77 1148.23 142.267C1161.24 158.764 1169.93 178.236 1173.55 198.93C1177.16 219.625 1175.57 240.892 1168.92 260.82C1162.27 280.747 1150.77 298.709 1135.46 313.089L1048.72 220.717L922 220.717Z" fill="#E46BB7"/>
<path d="M1082.53 291.02C1079.53 291.02 1077.27 292.96 1077.27 295.78C1077.27 298.5 1079.37 300.14 1081.91 300.14C1083.21 300.14 1084.47 299.64 1085.31 298.82C1085.05 301.14 1083.85 302.64 1082.05 302.64C1080.89 302.64 1080.09 302.22 1079.25 301.52L1077.85 303.76C1078.97 304.66 1080.35 305.24 1082.05 305.24C1085.87 305.24 1088.37 302.18 1088.37 297.9C1088.37 293.9 1086.53 291.02 1082.53 291.02ZM1082.77 297.74C1081.43 297.74 1080.31 296.96 1080.31 295.64C1080.31 294.54 1081.23 293.52 1082.69 293.52C1084.23 293.52 1084.97 294.46 1085.23 296.14C1084.81 297.12 1083.89 297.74 1082.77 297.74ZM1093.9 298.16C1095.92 298.16 1097.34 296.62 1097.34 294.64C1097.34 292.7 1095.98 291.12 1093.9 291.12C1091.84 291.12 1090.48 292.68 1090.48 294.66C1090.48 296.62 1091.84 298.16 1093.9 298.16ZM1092.28 305H1094.58L1104.14 291.26H1101.82L1092.28 305ZM1093.9 296.44C1093.08 296.44 1092.44 295.72 1092.44 294.64C1092.44 293.56 1093.04 292.86 1093.9 292.86C1094.74 292.86 1095.36 293.58 1095.36 294.64C1095.36 295.74 1094.74 296.44 1093.9 296.44ZM1102.48 305.22C1104.5 305.22 1105.9 303.68 1105.9 301.7C1105.9 299.76 1104.56 298.18 1102.48 298.18C1100.44 298.18 1099.04 299.74 1099.04 301.7C1099.04 303.66 1100.44 305.22 1102.48 305.22ZM1102.48 303.48C1101.64 303.48 1101.02 302.76 1101.02 301.7C1101.02 300.6 1101.62 299.9 1102.48 299.9C1103.3 299.9 1103.94 300.62 1103.94 301.7C1103.94 302.78 1103.34 303.48 1102.48 303.48Z" fill="#0F0B47"/>
<path d="M1001.85 159.68C999.904 159.68 998.014 160.43 996.754 161.66C997.144 158.18 998.944 155.93 1001.64 155.93C1003.38 155.93 1004.58 156.56 1005.84 157.61L1007.94 154.25C1006.26 152.9 1004.19 152.03 1001.64 152.03C995.914 152.03 992.164 156.62 992.164 163.04C992.164 169.04 994.924 173.36 1000.92 173.36C1005.42 173.36 1008.81 170.45 1008.81 166.22C1008.81 162.14 1005.66 159.68 1001.85 159.68ZM1000.68 169.61C998.374 169.61 997.264 168.2 996.874 165.68C997.504 164.21 998.884 163.28 1000.56 163.28C1002.57 163.28 1004.25 164.45 1004.25 166.43C1004.25 168.08 1002.87 169.61 1000.68 169.61ZM1019.15 173.39C1023.98 173.39 1027.1 170.81 1027.1 167.24C1027.1 164.51 1025.03 162.92 1022.78 162.41C1025.06 161.75 1026.65 160.04 1026.65 157.67C1026.65 154.4 1023.74 152.03 1019.12 152.03C1015.46 152.03 1013 153.62 1011.29 155.69L1013.84 158.39C1015.22 156.95 1016.75 155.99 1018.67 155.99C1020.71 155.99 1022.15 156.95 1022.15 158.45C1022.15 159.92 1020.8 160.76 1018.55 160.76L1016.18 160.73V164.51H1018.55C1021.31 164.48 1022.57 165.29 1022.57 166.88C1022.57 168.35 1021.22 169.4 1018.97 169.4C1016.9 169.4 1014.95 168.53 1013.48 166.97L1010.87 169.91C1012.61 171.92 1015.46 173.39 1019.15 173.39ZM1035.35 162.74C1038.38 162.74 1040.51 160.43 1040.51 157.46C1040.51 154.55 1038.47 152.18 1035.35 152.18C1032.26 152.18 1030.22 154.52 1030.22 157.49C1030.22 160.43 1032.26 162.74 1035.35 162.74ZM1032.92 173H1036.37L1050.71 152.39H1047.23L1032.92 173ZM1035.35 160.16C1034.12 160.16 1033.16 159.08 1033.16 157.46C1033.16 155.84 1034.06 154.79 1035.35 154.79C1036.61 154.79 1037.54 155.87 1037.54 157.46C1037.54 159.11 1036.61 160.16 1035.35 160.16ZM1048.22 173.33C1051.25 173.33 1053.35 171.02 1053.35 168.05C1053.35 165.14 1051.34 162.77 1048.22 162.77C1045.16 162.77 1043.06 165.11 1043.06 168.05C1043.06 170.99 1045.16 173.33 1048.22 173.33ZM1048.22 170.72C1046.96 170.72 1046.03 169.64 1046.03 168.05C1046.03 166.4 1046.93 165.35 1048.22 165.35C1049.45 165.35 1050.41 166.43 1050.41 168.05C1050.41 169.67 1049.51 170.72 1048.22 170.72Z" fill="white"/>
<path d="M1014.44 307H1017.38V293.26H1015.02L1010.9 296.02L1012.1 298.1L1014.44 296.64V307ZM1025.12 307.26C1028.34 307.26 1030.42 305.54 1030.42 303.16C1030.42 301.34 1029.04 300.28 1027.54 299.94C1029.06 299.5 1030.12 298.36 1030.12 296.78C1030.12 294.6 1028.18 293.02 1025.1 293.02C1022.66 293.02 1021.02 294.08 1019.88 295.46L1021.58 297.26C1022.5 296.3 1023.52 295.66 1024.8 295.66C1026.16 295.66 1027.12 296.3 1027.12 297.3C1027.12 298.28 1026.22 298.84 1024.72 298.84L1023.14 298.82V301.34H1024.72C1026.56 301.32 1027.4 301.86 1027.4 302.92C1027.4 303.9 1026.5 304.6 1025 304.6C1023.62 304.6 1022.32 304.02 1021.34 302.98L1019.6 304.94C1020.76 306.28 1022.66 307.26 1025.12 307.26ZM1035.92 300.16C1037.94 300.16 1039.36 298.62 1039.36 296.64C1039.36 294.7 1038 293.12 1035.92 293.12C1033.86 293.12 1032.5 294.68 1032.5 296.66C1032.5 298.62 1033.86 300.16 1035.92 300.16ZM1034.3 307H1036.6L1046.16 293.26H1043.84L1034.3 307ZM1035.92 298.44C1035.1 298.44 1034.46 297.72 1034.46 296.64C1034.46 295.56 1035.06 294.86 1035.92 294.86C1036.76 294.86 1037.38 295.58 1037.38 296.64C1037.38 297.74 1036.76 298.44 1035.92 298.44ZM1044.5 307.22C1046.52 307.22 1047.92 305.68 1047.92 303.7C1047.92 301.76 1046.58 300.18 1044.5 300.18C1042.46 300.18 1041.06 301.74 1041.06 303.7C1041.06 305.66 1042.46 307.22 1044.5 307.22ZM1044.5 305.48C1043.66 305.48 1043.04 304.76 1043.04 303.7C1043.04 302.6 1043.64 301.9 1044.5 301.9C1045.32 301.9 1045.96 302.62 1045.96 303.7C1045.96 304.78 1045.36 305.48 1044.5 305.48Z" fill="white"/>
<path d="M967.094 262H970.034V248.26H967.674L963.554 251.02L964.754 253.1L967.094 251.64V262ZM977.808 262.26C981.088 262.26 983.268 260.4 983.268 257.48C983.268 254.68 981.168 253.12 978.728 253.12C977.608 253.12 976.728 253.48 976.048 253.96L976.128 250.92H982.528V248.26H973.408L973.208 255.68L975.188 256.48C975.928 255.92 976.808 255.58 977.848 255.58C979.348 255.58 980.328 256.38 980.328 257.58C980.328 258.76 979.388 259.68 977.828 259.68C976.508 259.68 975.268 259.04 974.228 258.06L972.488 260.14C973.768 261.42 975.508 262.26 977.808 262.26ZM988.669 255.16C990.689 255.16 992.109 253.62 992.109 251.64C992.109 249.7 990.749 248.12 988.669 248.12C986.609 248.12 985.249 249.68 985.249 251.66C985.249 253.62 986.609 255.16 988.669 255.16ZM987.049 262H989.349L998.909 248.26H996.589L987.049 262ZM988.669 253.44C987.849 253.44 987.209 252.72 987.209 251.64C987.209 250.56 987.809 249.86 988.669 249.86C989.509 249.86 990.129 250.58 990.129 251.64C990.129 252.74 989.509 253.44 988.669 253.44ZM997.249 262.22C999.269 262.22 1000.67 260.68 1000.67 258.7C1000.67 256.76 999.329 255.18 997.249 255.18C995.209 255.18 993.809 256.74 993.809 258.7C993.809 260.66 995.209 262.22 997.249 262.22ZM997.249 260.48C996.409 260.48 995.789 259.76 995.789 258.7C995.789 257.6 996.389 256.9 997.249 256.9C998.069 256.9 998.709 257.62 998.709 258.7C998.709 259.78 998.109 260.48 997.249 260.48Z" fill="white"/>
<circle cx="745.717" cy="221.717" r="126.717" transform="rotate(-180 745.717 221.717)" fill="#1B0085"/>
<path d="M619 221.717C619 192.571 629.047 164.316 647.449 141.714C665.85 119.111 691.48 103.543 720.02 97.6328C748.56 91.7224 778.266 95.8311 804.13 109.267C829.994 122.702 850.437 144.643 862.012 171.391C873.587 198.14 875.587 228.061 867.676 256.113C859.765 284.164 842.425 308.631 818.58 325.39C794.734 342.149 765.84 350.176 736.767 348.117C707.694 346.059 680.22 334.041 658.973 314.089L745.717 221.717L619 221.717Z" fill="#5C2CFF"/>
<path d="M619 221.717C619 197.332 626.036 173.466 639.263 152.98C652.49 132.495 671.347 116.261 693.571 106.227C715.795 96.1921 740.443 92.7829 764.556 96.4082C788.67 100.034 811.225 110.539 829.516 126.665C847.807 142.791 861.057 163.852 867.676 187.321C874.295 210.79 874.002 235.67 866.832 258.977C859.662 282.283 845.919 303.026 827.253 318.716C808.588 334.407 785.791 344.378 761.599 347.434L745.717 221.717L619 221.717Z" fill="#F1B5DB"/>
<path d="M619 221.717C619 200.71 624.223 180.032 634.198 161.544C644.173 143.057 658.589 127.339 676.146 115.806C693.704 104.273 713.854 97.2852 734.783 95.4726C755.712 93.66 776.763 97.0789 796.042 105.422C815.322 113.765 832.224 126.77 845.23 143.267C858.235 159.764 866.935 179.236 870.547 199.93C874.158 220.625 872.569 241.892 865.92 261.82C859.272 281.747 847.774 299.709 832.46 314.089L745.717 221.717L619 221.717Z" fill="#E46BB7"/>
<path d="M692.854 159.68C690.904 159.68 689.014 160.43 687.754 161.66C688.144 158.18 689.944 155.93 692.644 155.93C694.384 155.93 695.584 156.56 696.844 157.61L698.944 154.25C697.264 152.9 695.194 152.03 692.644 152.03C686.914 152.03 683.164 156.62 683.164 163.04C683.164 169.04 685.924 173.36 691.924 173.36C696.424 173.36 699.814 170.45 699.814 166.22C699.814 162.14 696.664 159.68 692.854 159.68ZM691.684 169.61C689.374 169.61 688.264 168.2 687.874 165.68C688.504 164.21 689.884 163.28 691.564 163.28C693.574 163.28 695.254 164.45 695.254 166.43C695.254 168.08 693.874 169.61 691.684 169.61ZM710.149 173.39C714.979 173.39 718.099 170.81 718.099 167.24C718.099 164.51 716.029 162.92 713.779 162.41C716.059 161.75 717.649 160.04 717.649 157.67C717.649 154.4 714.739 152.03 710.119 152.03C706.459 152.03 703.999 153.62 702.289 155.69L704.839 158.39C706.219 156.95 707.749 155.99 709.669 155.99C711.709 155.99 713.149 156.95 713.149 158.45C713.149 159.92 711.799 160.76 709.549 160.76L707.179 160.73V164.51H709.549C712.309 164.48 713.569 165.29 713.569 166.88C713.569 168.35 712.219 169.4 709.969 169.4C707.899 169.4 705.949 168.53 704.479 166.97L701.869 169.91C703.609 171.92 706.459 173.39 710.149 173.39ZM726.354 162.74C729.384 162.74 731.514 160.43 731.514 157.46C731.514 154.55 729.474 152.18 726.354 152.18C723.264 152.18 721.224 154.52 721.224 157.49C721.224 160.43 723.264 162.74 726.354 162.74ZM723.924 173H727.374L741.714 152.39H738.234L723.924 173ZM726.354 160.16C725.124 160.16 724.164 159.08 724.164 157.46C724.164 155.84 725.064 154.79 726.354 154.79C727.614 154.79 728.544 155.87 728.544 157.46C728.544 159.11 727.614 160.16 726.354 160.16ZM739.224 173.33C742.254 173.33 744.354 171.02 744.354 168.05C744.354 165.14 742.344 162.77 739.224 162.77C736.164 162.77 734.064 165.11 734.064 168.05C734.064 170.99 736.164 173.33 739.224 173.33ZM739.224 170.72C737.964 170.72 737.034 169.64 737.034 168.05C737.034 166.4 737.934 165.35 739.224 165.35C740.454 165.35 741.414 166.43 741.414 168.05C741.414 169.67 740.514 170.72 739.224 170.72Z" fill="white"/>
<path d="M655.748 262.327H658.688V248.587H656.328L652.208 251.347L653.408 253.427L655.748 251.967V262.327ZM666.422 262.587C669.642 262.587 671.722 260.867 671.722 258.487C671.722 256.667 670.342 255.607 668.842 255.267C670.362 254.827 671.422 253.687 671.422 252.107C671.422 249.927 669.482 248.347 666.402 248.347C663.962 248.347 662.322 249.407 661.182 250.787L662.882 252.587C663.802 251.627 664.822 250.987 666.102 250.987C667.462 250.987 668.422 251.627 668.422 252.627C668.422 253.607 667.522 254.167 666.022 254.167L664.442 254.147V256.667H666.022C667.862 256.647 668.702 257.187 668.702 258.247C668.702 259.227 667.802 259.927 666.302 259.927C664.922 259.927 663.622 259.347 662.642 258.307L660.902 260.267C662.062 261.607 663.962 262.587 666.422 262.587ZM677.226 255.487C679.246 255.487 680.666 253.947 680.666 251.967C680.666 250.027 679.306 248.447 677.226 248.447C675.166 248.447 673.806 250.007 673.806 251.987C673.806 253.947 675.166 255.487 677.226 255.487ZM675.606 262.327H677.906L687.466 248.587H685.146L675.606 262.327ZM677.226 253.767C676.406 253.767 675.766 253.047 675.766 251.967C675.766 250.887 676.366 250.187 677.226 250.187C678.066 250.187 678.686 250.907 678.686 251.967C678.686 253.067 678.066 253.767 677.226 253.767ZM685.806 262.547C687.826 262.547 689.226 261.007 689.226 259.027C689.226 257.087 687.886 255.507 685.806 255.507C683.766 255.507 682.366 257.067 682.366 259.027C682.366 260.987 683.766 262.547 685.806 262.547ZM685.806 260.807C684.966 260.807 684.346 260.087 684.346 259.027C684.346 257.927 684.946 257.227 685.806 257.227C686.626 257.227 687.266 257.947 687.266 259.027C687.266 260.107 686.666 260.807 685.806 260.807Z" fill="white"/>
<path d="M768.28 305H771.22V291.26H768.86L764.74 294.02L765.94 296.1L768.28 294.64V305ZM780.033 305.24C783.653 305.24 786.193 302.3 786.193 298.12C786.193 293.96 783.653 291.02 780.033 291.02C776.413 291.02 773.853 293.96 773.853 298.12C773.853 302.3 776.413 305.24 780.033 305.24ZM780.033 302.56C778.193 302.56 776.893 300.7 776.893 298.12C776.893 295.54 778.193 293.7 780.033 293.7C781.873 293.7 783.173 295.54 783.173 298.12C783.173 300.7 781.873 302.56 780.033 302.56ZM791.671 298.16C793.691 298.16 795.111 296.62 795.111 294.64C795.111 292.7 793.751 291.12 791.671 291.12C789.611 291.12 788.251 292.68 788.251 294.66C788.251 296.62 789.611 298.16 791.671 298.16ZM790.051 305H792.351L801.911 291.26H799.591L790.051 305ZM791.671 296.44C790.851 296.44 790.211 295.72 790.211 294.64C790.211 293.56 790.811 292.86 791.671 292.86C792.511 292.86 793.131 293.58 793.131 294.64C793.131 295.74 792.511 296.44 791.671 296.44ZM800.251 305.22C802.271 305.22 803.671 303.68 803.671 301.7C803.671 299.76 802.331 298.18 800.251 298.18C798.211 298.18 796.811 299.74 796.811 301.7C796.811 303.66 798.211 305.22 800.251 305.22ZM800.251 303.48C799.411 303.48 798.791 302.76 798.791 301.7C798.791 300.6 799.391 299.9 800.251 299.9C801.071 299.9 801.711 300.62 801.711 301.7C801.711 302.78 801.111 303.48 800.251 303.48Z" fill="#0F0B47"/>
<path d="M702.798 308H705.738V294.26H703.378L699.258 297.02L700.458 299.1L702.798 297.64V308ZM714.991 308H717.931V305.2H719.751V302.72H717.931V294.28H714.371L707.991 302.92L708.271 305.2H714.991V308ZM711.091 302.72L714.991 297.4V302.72H711.091ZM724.92 301.16C726.94 301.16 728.36 299.62 728.36 297.64C728.36 295.7 727 294.12 724.92 294.12C722.86 294.12 721.5 295.68 721.5 297.66C721.5 299.62 722.86 301.16 724.92 301.16ZM723.3 308H725.6L735.16 294.26H732.84L723.3 308ZM724.92 299.44C724.1 299.44 723.46 298.72 723.46 297.64C723.46 296.56 724.06 295.86 724.92 295.86C725.76 295.86 726.38 296.58 726.38 297.64C726.38 298.74 725.76 299.44 724.92 299.44ZM733.5 308.22C735.52 308.22 736.92 306.68 736.92 304.7C736.92 302.76 735.58 301.18 733.5 301.18C731.46 301.18 730.06 302.74 730.06 304.7C730.06 306.66 731.46 308.22 733.5 308.22ZM733.5 306.48C732.66 306.48 732.04 305.76 732.04 304.7C732.04 303.6 732.64 302.9 733.5 302.9C734.32 302.9 734.96 303.62 734.96 304.7C734.96 305.78 734.36 306.48 733.5 306.48Z" fill="white"/>
<circle cx="436.717" cy="221.717" r="126.717" transform="rotate(-180 436.717 221.717)" fill="#1B0085"/>
<path d="M310 221.717C310 193.936 319.13 166.924 335.984 144.84C352.838 122.755 376.483 106.822 403.28 99.4911C430.076 92.1605 458.539 93.839 484.288 104.268C510.037 114.698 531.646 133.3 545.787 157.213C559.929 181.125 565.821 209.022 562.555 236.611C559.29 264.199 547.049 289.95 527.715 309.901C508.382 329.851 483.028 342.895 455.556 347.025C428.084 351.155 400.015 346.143 375.671 332.759L436.717 221.717L310 221.717Z" fill="#5C2CFF"/>
<path d="M310 221.717C310 202.056 314.575 182.665 323.363 165.077C332.151 147.489 344.911 132.188 360.634 120.383C376.356 108.578 394.61 100.594 413.951 97.0618C433.292 93.5295 453.189 94.5462 472.07 100.031C490.95 105.517 508.295 115.32 522.732 128.666C537.17 142.012 548.304 158.534 555.253 176.926C562.203 195.317 564.778 215.074 562.774 234.632C560.77 254.191 554.242 273.015 543.707 289.615L436.717 221.717L310 221.717Z" fill="#F1B5DB"/>
<path d="M310 221.717C310 190.174 321.764 159.765 342.993 136.435C364.222 113.105 393.389 98.5308 424.792 95.5624C456.195 92.5939 487.576 101.444 512.8 120.383C538.025 139.322 555.279 166.988 561.189 197.972L436.717 221.717L310 221.717Z" fill="#E46BB7"/>
<path d="M509.511 241H512.451V227.26H510.091L505.971 230.02L507.171 232.1L509.511 230.64V241ZM521.265 241.24C524.885 241.24 527.425 238.3 527.425 234.12C527.425 229.96 524.885 227.02 521.265 227.02C517.645 227.02 515.085 229.96 515.085 234.12C515.085 238.3 517.645 241.24 521.265 241.24ZM521.265 238.56C519.425 238.56 518.125 236.7 518.125 234.12C518.125 231.54 519.425 229.7 521.265 229.7C523.105 229.7 524.405 231.54 524.405 234.12C524.405 236.7 523.105 238.56 521.265 238.56ZM532.903 234.16C534.923 234.16 536.343 232.62 536.343 230.64C536.343 228.7 534.983 227.12 532.903 227.12C530.843 227.12 529.483 228.68 529.483 230.66C529.483 232.62 530.843 234.16 532.903 234.16ZM531.283 241H533.583L543.143 227.26H540.823L531.283 241ZM532.903 232.44C532.083 232.44 531.443 231.72 531.443 230.64C531.443 229.56 532.043 228.86 532.903 228.86C533.743 228.86 534.363 229.58 534.363 230.64C534.363 231.74 533.743 232.44 532.903 232.44ZM541.483 241.22C543.503 241.22 544.903 239.68 544.903 237.7C544.903 235.76 543.563 234.18 541.483 234.18C539.443 234.18 538.043 235.74 538.043 237.7C538.043 239.66 539.443 241.22 541.483 241.22ZM541.483 239.48C540.643 239.48 540.023 238.76 540.023 237.7C540.023 236.6 540.623 235.9 541.483 235.9C542.303 235.9 542.943 236.62 542.943 237.7C542.943 238.78 542.343 239.48 541.483 239.48Z" fill="#0F0B47"/>
<path d="M405.323 173H409.733V168.8H412.463V165.08H409.733V152.42H404.393L394.823 165.38L395.243 168.8H405.323V173ZM399.473 165.08L405.323 157.1V165.08H399.473ZM416.316 173H421.296L429.636 155.72V152.39H414.306V156.38H424.506L416.316 173ZM437.354 162.74C440.384 162.74 442.514 160.43 442.514 157.46C442.514 154.55 440.474 152.18 437.354 152.18C434.264 152.18 432.224 154.52 432.224 157.49C432.224 160.43 434.264 162.74 437.354 162.74ZM434.924 173H438.374L452.714 152.39H449.234L434.924 173ZM437.354 160.16C436.124 160.16 435.164 159.08 435.164 157.46C435.164 155.84 436.064 154.79 437.354 154.79C438.614 154.79 439.544 155.87 439.544 157.46C439.544 159.11 438.614 160.16 437.354 160.16ZM450.224 173.33C453.254 173.33 455.354 171.02 455.354 168.05C455.354 165.14 453.344 162.77 450.224 162.77C447.164 162.77 445.064 165.11 445.064 168.05C445.064 170.99 447.164 173.33 450.224 173.33ZM450.224 170.72C448.964 170.72 448.034 169.64 448.034 168.05C448.034 166.4 448.934 165.35 450.224 165.35C451.454 165.35 452.414 166.43 452.414 168.05C452.414 169.67 451.514 170.72 450.224 170.72Z" fill="white"/>
<path d="M436.988 301H447.368V298.34H441.548L444.048 296.4C446.448 294.66 447.248 293.24 447.248 291.4C447.248 288.82 445.128 287.02 442.208 287.02C439.988 287.02 438.248 287.98 436.888 289.7L438.768 291.52C439.768 290.38 440.788 289.7 442.128 289.7C443.248 289.7 444.208 290.38 444.208 291.52C444.208 292.48 443.688 293.38 442.048 294.68L436.988 298.6V301ZM455.975 301H458.915V298.2H460.735V295.72H458.915V287.28H455.355L448.975 295.92L449.255 298.2H455.975V301ZM452.075 295.72L455.975 290.4V295.72H452.075ZM465.903 294.16C467.923 294.16 469.343 292.62 469.343 290.64C469.343 288.7 467.983 287.12 465.903 287.12C463.843 287.12 462.483 288.68 462.483 290.66C462.483 292.62 463.843 294.16 465.903 294.16ZM464.283 301H466.583L476.143 287.26H473.823L464.283 301ZM465.903 292.44C465.083 292.44 464.443 291.72 464.443 290.64C464.443 289.56 465.043 288.86 465.903 288.86C466.743 288.86 467.363 289.58 467.363 290.64C467.363 291.74 466.743 292.44 465.903 292.44ZM474.483 301.22C476.503 301.22 477.903 299.68 477.903 297.7C477.903 295.76 476.563 294.18 474.483 294.18C472.443 294.18 471.043 295.74 471.043 297.7C471.043 299.66 472.443 301.22 474.483 301.22ZM474.483 299.48C473.643 299.48 473.023 298.76 473.023 297.7C473.023 296.6 473.623 295.9 474.483 295.9C475.303 295.9 475.943 296.62 475.943 297.7C475.943 298.78 475.343 299.48 474.483 299.48Z" fill="white"/>
<path d="M352.839 270H355.779V256.26H353.419L349.299 259.02L350.499 261.1L352.839 259.64V270ZM363.533 256.02C360.533 256.02 358.273 257.96 358.273 260.78C358.273 263.5 360.373 265.14 362.913 265.14C364.213 265.14 365.473 264.64 366.313 263.82C366.053 266.14 364.853 267.64 363.053 267.64C361.893 267.64 361.093 267.22 360.253 266.52L358.853 268.76C359.973 269.66 361.353 270.24 363.053 270.24C366.873 270.24 369.373 267.18 369.373 262.9C369.373 258.9 367.533 256.02 363.533 256.02ZM363.773 262.74C362.433 262.74 361.313 261.96 361.313 260.64C361.313 259.54 362.233 258.52 363.693 258.52C365.233 258.52 365.973 259.46 366.233 261.14C365.813 262.12 364.893 262.74 363.773 262.74ZM374.903 263.16C376.923 263.16 378.343 261.62 378.343 259.64C378.343 257.7 376.983 256.12 374.903 256.12C372.843 256.12 371.483 257.68 371.483 259.66C371.483 261.62 372.843 263.16 374.903 263.16ZM373.283 270H375.583L385.143 256.26H382.823L373.283 270ZM374.903 261.44C374.083 261.44 373.443 260.72 373.443 259.64C373.443 258.56 374.043 257.86 374.903 257.86C375.743 257.86 376.363 258.58 376.363 259.64C376.363 260.74 375.743 261.44 374.903 261.44ZM383.483 270.22C385.503 270.22 386.903 268.68 386.903 266.7C386.903 264.76 385.563 263.18 383.483 263.18C381.443 263.18 380.043 264.74 380.043 266.7C380.043 268.66 381.443 270.22 383.483 270.22ZM383.483 268.48C382.643 268.48 382.023 267.76 382.023 266.7C382.023 265.6 382.623 264.9 383.483 264.9C384.303 264.9 384.943 265.62 384.943 266.7C384.943 267.78 384.343 268.48 383.483 268.48Z" fill="white"/>
<circle cx="126.303" cy="221.303" r="126.303" transform="rotate(-180 126.303 221.303)" fill="#1B0085"/>
<path d="M0.000259399 221.303C0.000259399 195.646 7.8139 170.598 22.4013 149.492C36.9887 128.386 57.658 112.223 81.6584 103.154C105.659 94.0847 131.852 92.54 156.752 98.7251C181.652 104.91 204.078 118.532 221.045 137.777C238.012 157.023 248.715 180.979 251.731 206.458C254.747 231.937 249.931 257.73 237.926 280.404C225.92 303.079 207.294 321.559 184.526 333.386C161.758 345.213 135.928 349.826 110.473 346.61L126.303 221.303L0.000259399 221.303Z" fill="#5C2CFF"/>
<path d="M0.000259399 221.303C0.000259399 193.952 8.87866 167.34 25.3007 145.468C41.7228 123.596 64.801 107.646 91.0659 100.015C117.331 92.3844 145.363 93.4858 170.948 103.154C196.534 112.822 218.289 130.533 232.945 153.627L126.303 221.303L0.000259399 221.303Z" fill="#F1B5DB"/>
<path d="M0.000259399 221.303C0.000259399 200.029 5.3741 179.099 15.6231 160.456C25.8721 141.813 40.6642 126.061 58.6268 114.662C76.5893 103.262 97.1403 96.5851 118.373 95.2493C139.605 93.9134 160.831 97.9625 180.081 107.021L126.303 221.303L0.000259399 221.303Z" fill="#E46BB7"/>
<path d="M180.533 147.02C177.533 147.02 175.273 148.96 175.273 151.78C175.273 154.5 177.373 156.14 179.913 156.14C181.213 156.14 182.473 155.64 183.313 154.82C183.053 157.14 181.853 158.64 180.053 158.64C178.893 158.64 178.093 158.22 177.253 157.52L175.853 159.76C176.973 160.66 178.353 161.24 180.053 161.24C183.873 161.24 186.373 158.18 186.373 153.9C186.373 149.9 184.533 147.02 180.533 147.02ZM180.773 153.74C179.433 153.74 178.313 152.96 178.313 151.64C178.313 150.54 179.233 149.52 180.693 149.52C182.233 149.52 182.973 150.46 183.233 152.14C182.813 153.12 181.893 153.74 180.773 153.74ZM191.903 154.16C193.923 154.16 195.343 152.62 195.343 150.64C195.343 148.7 193.983 147.12 191.903 147.12C189.843 147.12 188.483 148.68 188.483 150.66C188.483 152.62 189.843 154.16 191.903 154.16ZM190.283 161H192.583L202.143 147.26H199.823L190.283 161ZM191.903 152.44C191.083 152.44 190.443 151.72 190.443 150.64C190.443 149.56 191.043 148.86 191.903 148.86C192.743 148.86 193.363 149.58 193.363 150.64C193.363 151.74 192.743 152.44 191.903 152.44ZM200.483 161.22C202.503 161.22 203.903 159.68 203.903 157.7C203.903 155.76 202.563 154.18 200.483 154.18C198.443 154.18 197.043 155.74 197.043 157.7C197.043 159.66 198.443 161.22 200.483 161.22ZM200.483 159.48C199.643 159.48 199.023 158.76 199.023 157.7C199.023 156.6 199.623 155.9 200.483 155.9C201.303 155.9 201.943 156.62 201.943 157.7C201.943 158.78 201.343 159.48 200.483 159.48Z" fill="#0F0B47"/>
<path d="M56.8088 173.39C61.6388 173.39 64.7588 170.81 64.7588 167.24C64.7588 164.51 62.6888 162.92 60.4388 162.41C62.7188 161.75 64.3088 160.04 64.3088 157.67C64.3088 154.4 61.3988 152.03 56.7788 152.03C53.1188 152.03 50.6588 153.62 48.9488 155.69L51.4988 158.39C52.8788 156.95 54.4088 155.99 56.3288 155.99C58.3688 155.99 59.8088 156.95 59.8088 158.45C59.8088 159.92 58.4588 160.76 56.2088 160.76L53.8388 160.73V164.51H56.2088C58.9688 164.48 60.2288 165.29 60.2288 166.88C60.2288 168.35 58.8788 169.4 56.6288 169.4C54.5588 169.4 52.6088 168.53 51.1388 166.97L48.5288 169.91C50.2688 171.92 53.1188 173.39 56.8088 173.39ZM67.4644 173H83.0344V169.01H74.3044L78.0544 166.1C81.6544 163.49 82.8544 161.36 82.8544 158.6C82.8544 154.73 79.6744 152.03 75.2944 152.03C71.9644 152.03 69.3544 153.47 67.3144 156.05L70.1344 158.78C71.6344 157.07 73.1644 156.05 75.1744 156.05C76.8544 156.05 78.2944 157.07 78.2944 158.78C78.2944 160.22 77.5144 161.57 75.0544 163.52L67.4644 169.4V173ZM91.3542 162.74C94.3842 162.74 96.5142 160.43 96.5142 157.46C96.5142 154.55 94.4742 152.18 91.3542 152.18C88.2642 152.18 86.2242 154.52 86.2242 157.49C86.2242 160.43 88.2642 162.74 91.3542 162.74ZM88.9242 173H92.3742L106.714 152.39H103.234L88.9242 173ZM91.3542 160.16C90.1242 160.16 89.1642 159.08 89.1642 157.46C89.1642 155.84 90.0642 154.79 91.3542 154.79C92.6142 154.79 93.5442 155.87 93.5442 157.46C93.5442 159.11 92.6142 160.16 91.3542 160.16ZM104.224 173.33C107.254 173.33 109.354 171.02 109.354 168.05C109.354 165.14 107.344 162.77 104.224 162.77C101.164 162.77 99.0642 165.11 99.0642 168.05C99.0642 170.99 101.164 173.33 104.224 173.33ZM104.224 170.72C102.964 170.72 102.034 169.64 102.034 168.05C102.034 166.4 102.934 165.35 104.224 165.35C105.454 165.35 106.414 166.43 106.414 168.05C106.414 169.67 105.514 170.72 104.224 170.72Z" fill="white"/>
<path d="M168.188 265.26C171.408 265.26 173.488 263.54 173.488 261.16C173.488 259.34 172.108 258.28 170.608 257.94C172.128 257.5 173.188 256.36 173.188 254.78C173.188 252.6 171.248 251.02 168.168 251.02C165.728 251.02 164.088 252.08 162.948 253.46L164.648 255.26C165.568 254.3 166.588 253.66 167.868 253.66C169.228 253.66 170.188 254.3 170.188 255.3C170.188 256.28 169.288 256.84 167.788 256.84L166.208 256.82V259.34H167.788C169.628 259.32 170.468 259.86 170.468 260.92C170.468 261.9 169.568 262.6 168.068 262.6C166.688 262.6 165.388 262.02 164.408 260.98L162.668 262.94C163.828 264.28 165.728 265.26 168.188 265.26ZM181.932 256.12C180.632 256.12 179.372 256.62 178.532 257.44C178.792 255.12 179.992 253.62 181.792 253.62C182.952 253.62 183.752 254.04 184.592 254.74L185.992 252.5C184.872 251.6 183.492 251.02 181.792 251.02C177.972 251.02 175.472 254.08 175.472 258.36C175.472 262.36 177.312 265.24 181.312 265.24C184.312 265.24 186.572 263.3 186.572 260.48C186.572 257.76 184.472 256.12 181.932 256.12ZM181.152 262.74C179.612 262.74 178.872 261.8 178.612 260.12C179.032 259.14 179.952 258.52 181.072 258.52C182.412 258.52 183.532 259.3 183.532 260.62C183.532 261.72 182.612 262.74 181.152 262.74ZM191.922 258.16C193.942 258.16 195.362 256.62 195.362 254.64C195.362 252.7 194.002 251.12 191.922 251.12C189.862 251.12 188.502 252.68 188.502 254.66C188.502 256.62 189.862 258.16 191.922 258.16ZM190.302 265H192.602L202.162 251.26H199.842L190.302 265ZM191.922 256.44C191.102 256.44 190.462 255.72 190.462 254.64C190.462 253.56 191.062 252.86 191.922 252.86C192.762 252.86 193.382 253.58 193.382 254.64C193.382 255.74 192.762 256.44 191.922 256.44ZM200.502 265.22C202.522 265.22 203.922 263.68 203.922 261.7C203.922 259.76 202.582 258.18 200.502 258.18C198.462 258.18 197.062 259.74 197.062 261.7C197.062 263.66 198.462 265.22 200.502 265.22ZM200.502 263.48C199.662 263.48 199.042 262.76 199.042 261.7C199.042 260.6 199.642 259.9 200.502 259.9C201.322 259.9 201.962 260.62 201.962 261.7C201.962 262.78 201.362 263.48 200.502 263.48Z" fill="white"/>
<path d="M48.7497 272H59.1297V269.34H53.3097L55.8097 267.4C58.2097 265.66 59.0097 264.24 59.0097 262.4C59.0097 259.82 56.8897 258.02 53.9697 258.02C51.7497 258.02 50.0097 258.98 48.6497 260.7L50.5297 262.52C51.5297 261.38 52.5497 260.7 53.8897 260.7C55.0097 260.7 55.9697 261.38 55.9697 262.52C55.9697 263.48 55.4497 264.38 53.8097 265.68L48.7497 269.6V272ZM60.9763 272H71.3563V269.34H65.5363L68.0363 267.4C70.4362 265.66 71.2363 264.24 71.2363 262.4C71.2363 259.82 69.1163 258.02 66.1963 258.02C63.9763 258.02 62.2363 258.98 60.8763 260.7L62.7563 262.52C63.7563 261.38 64.7763 260.7 66.1163 260.7C67.2363 260.7 68.1963 261.38 68.1963 262.52C68.1963 263.48 67.6763 264.38 66.0362 265.68L60.9763 269.6V272ZM76.9028 265.16C78.9228 265.16 80.3428 263.62 80.3428 261.64C80.3428 259.7 78.9828 258.12 76.9028 258.12C74.8428 258.12 73.4828 259.68 73.4828 261.66C73.4828 263.62 74.8428 265.16 76.9028 265.16ZM75.2828 272H77.5828L87.1428 258.26H84.8228L75.2828 272ZM76.9028 263.44C76.0828 263.44 75.4428 262.72 75.4428 261.64C75.4428 260.56 76.0428 259.86 76.9028 259.86C77.7428 259.86 78.3628 260.58 78.3628 261.64C78.3628 262.74 77.7428 263.44 76.9028 263.44ZM85.4828 272.22C87.5028 272.22 88.9028 270.68 88.9028 268.7C88.9028 266.76 87.5628 265.18 85.4828 265.18C83.4428 265.18 82.0428 266.74 82.0428 268.7C82.0428 270.66 83.4428 272.22 85.4828 272.22ZM85.4828 270.48C84.6428 270.48 84.0228 269.76 84.0228 268.7C84.0228 267.6 84.6228 266.9 85.4828 266.9C86.3028 266.9 86.9428 267.62 86.9428 268.7C86.9428 269.78 86.3428 270.48 85.4828 270.48Z" fill="white"/>
<path d="M1018.2 19.26C1021.48 19.26 1023.66 17.4 1023.66 14.48C1023.66 11.68 1021.56 10.12 1019.12 10.12C1018 10.12 1017.12 10.48 1016.44 10.96L1016.52 7.92H1022.92V5.26H1013.8L1013.6 12.68L1015.58 13.48C1016.32 12.92 1017.2 12.58 1018.24 12.58C1019.74 12.58 1020.72 13.38 1020.72 14.58C1020.72 15.76 1019.78 16.68 1018.22 16.68C1016.9 16.68 1015.66 16.04 1014.62 15.06L1012.88 17.14C1014.16 18.42 1015.9 19.26 1018.2 19.26ZM1027.52 21.92C1028.94 20.54 1029.64 19.28 1029.64 18.1C1029.64 16.64 1028.86 15.6 1027.74 15.6C1026.74 15.6 1025.94 16.44 1025.94 17.44C1025.94 18.42 1026.72 19.24 1027.68 19.24C1027.52 19.88 1027.1 20.56 1026.46 21.12L1027.52 21.92ZM1038.22 19.24C1041.84 19.24 1044.38 16.3 1044.38 12.12C1044.38 7.96 1041.84 5.02 1038.22 5.02C1034.6 5.02 1032.04 7.96 1032.04 12.12C1032.04 16.3 1034.6 19.24 1038.22 19.24ZM1038.22 16.56C1036.38 16.56 1035.08 14.7 1035.08 12.12C1035.08 9.54 1036.38 7.7 1038.22 7.7C1040.06 7.7 1041.36 9.54 1041.36 12.12C1041.36 14.7 1040.06 16.56 1038.22 16.56ZM1052.48 19.24C1056.1 19.24 1058.64 16.3 1058.64 12.12C1058.64 7.96 1056.1 5.02 1052.48 5.02C1048.86 5.02 1046.3 7.96 1046.3 12.12C1046.3 16.3 1048.86 19.24 1052.48 19.24ZM1052.48 16.56C1050.64 16.56 1049.34 14.7 1049.34 12.12C1049.34 9.54 1050.64 7.7 1052.48 7.7C1054.32 7.7 1055.62 9.54 1055.62 12.12C1055.62 14.7 1054.32 16.56 1052.48 16.56ZM1066.74 19.24C1070.36 19.24 1072.9 16.3 1072.9 12.12C1072.9 7.96 1070.36 5.02 1066.74 5.02C1063.12 5.02 1060.56 7.96 1060.56 12.12C1060.56 16.3 1063.12 19.24 1066.74 19.24ZM1066.74 16.56C1064.9 16.56 1063.6 14.7 1063.6 12.12C1063.6 9.54 1064.9 7.7 1066.74 7.7C1068.58 7.7 1069.88 9.54 1069.88 12.12C1069.88 14.7 1068.58 16.56 1066.74 16.56ZM1084.71 11.14H1081.15V7.5H1078.63V11.14H1075.05V13.52H1078.63V17.16H1081.15V13.52H1084.71V11.14ZM997.091 34.92V32.26H986.511V46H997.091V43.34H989.471V40.32H996.391V37.66H989.471V34.92H997.091ZM999.949 46H1002.91V37.44L1007.15 45.2L1011.41 37.44V46H1014.35V32.26H1011.41L1007.15 40.02L1002.91 32.26H999.949V46ZM1017.84 46H1020.8V41.54H1024.02C1027.02 41.54 1029.2 39.62 1029.2 36.9C1029.2 34.18 1027.02 32.26 1024.02 32.26H1017.84V46ZM1020.8 38.84V34.96H1023.72C1025.18 34.96 1026.18 35.72 1026.18 36.9C1026.18 38.08 1025.18 38.84 1023.72 38.84H1020.8ZM1034.71 43.34V32.26H1031.75V46H1041.55V43.34H1034.71ZM1050.43 46.24C1054.39 46.24 1057.71 42.98 1057.71 39.12C1057.71 35.26 1054.39 32.02 1050.43 32.02C1046.47 32.02 1043.11 35.26 1043.11 39.12C1043.11 42.98 1046.47 46.24 1050.43 46.24ZM1050.43 43.56C1048.11 43.56 1046.15 41.52 1046.15 39.12C1046.15 36.74 1048.11 34.7 1050.43 34.7C1052.73 34.7 1054.69 36.74 1054.69 39.12C1054.69 41.52 1052.73 43.56 1050.43 43.56ZM1064.5 46H1067.48V41.04L1072.84 32.26H1069.54L1065.98 38.28L1062.56 32.26H1059.12L1064.5 41.04V46ZM1085.63 34.92V32.26H1075.05V46H1085.63V43.34H1078.01V40.32H1084.93V37.66H1078.01V34.92H1085.63ZM1099.06 34.92V32.26H1088.48V46H1099.06V43.34H1091.44V40.32H1098.36V37.66H1091.44V34.92H1099.06ZM1107 46.24C1110.34 46.24 1112.34 44.5 1112.34 41.88C1112.34 39.34 1110.38 38.46 1107.42 37.8C1105.3 37.32 1104.46 37 1104.46 36C1104.46 35.18 1105.24 34.52 1106.48 34.52C1107.8 34.52 1109.18 35.06 1110.42 36.06L1111.96 33.92C1110.54 32.72 1108.82 32.02 1106.58 32.02C1103.56 32.02 1101.48 33.76 1101.48 36.3C1101.48 38.96 1103.56 39.78 1106.46 40.44C1108.56 40.92 1109.36 41.22 1109.36 42.2C1109.36 43.06 1108.6 43.74 1107.1 43.74C1105.36 43.74 1103.88 43.06 1102.58 41.94L1100.9 43.96C1102.5 45.44 1104.6 46.24 1107 46.24Z" fill="#0F0B47"/>
<path d="M682.275 19H685.215V5.26H682.855L678.735 8.02L679.935 10.1L682.275 8.64V19ZM689.869 21.92C691.289 20.54 691.989 19.28 691.989 18.1C691.989 16.64 691.209 15.6 690.089 15.6C689.089 15.6 688.289 16.44 688.289 17.44C688.289 18.42 689.069 19.24 690.029 19.24C689.869 19.88 689.449 20.56 688.809 21.12L689.869 21.92ZM700.572 19.24C704.192 19.24 706.732 16.3 706.732 12.12C706.732 7.96 704.192 5.02 700.572 5.02C696.952 5.02 694.392 7.96 694.392 12.12C694.392 16.3 696.952 19.24 700.572 19.24ZM700.572 16.56C698.732 16.56 697.432 14.7 697.432 12.12C697.432 9.54 698.732 7.7 700.572 7.7C702.412 7.7 703.712 9.54 703.712 12.12C703.712 14.7 702.412 16.56 700.572 16.56ZM714.829 19.24C718.449 19.24 720.989 16.3 720.989 12.12C720.989 7.96 718.449 5.02 714.829 5.02C711.209 5.02 708.649 7.96 708.649 12.12C708.649 16.3 711.209 19.24 714.829 19.24ZM714.829 16.56C712.989 16.56 711.689 14.7 711.689 12.12C711.689 9.54 712.989 7.7 714.829 7.7C716.669 7.7 717.969 9.54 717.969 12.12C717.969 14.7 716.669 16.56 714.829 16.56ZM729.087 19.24C732.707 19.24 735.247 16.3 735.247 12.12C735.247 7.96 732.707 5.02 729.087 5.02C725.467 5.02 722.907 7.96 722.907 12.12C722.907 16.3 725.467 19.24 729.087 19.24ZM729.087 16.56C727.247 16.56 725.947 14.7 725.947 12.12C725.947 9.54 727.247 7.7 729.087 7.7C730.927 7.7 732.227 9.54 732.227 12.12C732.227 14.7 730.927 16.56 729.087 16.56ZM743.054 14.74H748.534V12.26H743.054V14.74ZM762.965 19H765.905V16.2H767.725V13.72H765.905V5.28H762.345L755.965 13.92L756.245 16.2H762.965V19ZM759.065 13.72L762.965 8.4V13.72H759.065ZM771.353 21.92C772.773 20.54 773.473 19.28 773.473 18.1C773.473 16.64 772.693 15.6 771.573 15.6C770.573 15.6 769.773 16.44 769.773 17.44C769.773 18.42 770.553 19.24 771.513 19.24C771.353 19.88 770.933 20.56 770.293 21.12L771.353 21.92ZM780.996 5.02C777.996 5.02 775.736 6.96 775.736 9.78C775.736 12.5 777.836 14.14 780.376 14.14C781.676 14.14 782.936 13.64 783.776 12.82C783.516 15.14 782.316 16.64 780.516 16.64C779.356 16.64 778.556 16.22 777.716 15.52L776.316 17.76C777.436 18.66 778.816 19.24 780.516 19.24C784.336 19.24 786.836 16.18 786.836 11.9C786.836 7.9 784.996 5.02 780.996 5.02ZM781.236 11.74C779.896 11.74 778.776 10.96 778.776 9.64C778.776 8.54 779.696 7.52 781.156 7.52C782.696 7.52 783.436 8.46 783.696 10.14C783.276 11.12 782.356 11.74 781.236 11.74ZM793.926 5.02C790.926 5.02 788.666 6.96 788.666 9.78C788.666 12.5 790.766 14.14 793.306 14.14C794.606 14.14 795.866 13.64 796.706 12.82C796.446 15.14 795.246 16.64 793.446 16.64C792.286 16.64 791.486 16.22 790.646 15.52L789.246 17.76C790.366 18.66 791.746 19.24 793.446 19.24C797.266 19.24 799.766 16.18 799.766 11.9C799.766 7.9 797.926 5.02 793.926 5.02ZM794.166 11.74C792.826 11.74 791.706 10.96 791.706 9.64C791.706 8.54 792.626 7.52 794.086 7.52C795.626 7.52 796.366 8.46 796.626 10.14C796.206 11.12 795.286 11.74 794.166 11.74ZM806.855 5.02C803.855 5.02 801.595 6.96 801.595 9.78C801.595 12.5 803.695 14.14 806.235 14.14C807.535 14.14 808.795 13.64 809.635 12.82C809.375 15.14 808.175 16.64 806.375 16.64C805.215 16.64 804.415 16.22 803.575 15.52L802.175 17.76C803.295 18.66 804.675 19.24 806.375 19.24C810.195 19.24 812.695 16.18 812.695 11.9C812.695 7.9 810.855 5.02 806.855 5.02ZM807.095 11.74C805.755 11.74 804.635 10.96 804.635 9.64C804.635 8.54 805.555 7.52 807.015 7.52C808.555 7.52 809.295 8.46 809.555 10.14C809.135 11.12 808.215 11.74 807.095 11.74ZM694.091 34.92V32.26H683.511V46H694.091V43.34H686.471V40.32H693.391V37.66H686.471V34.92H694.091ZM696.949 46H699.909V37.44L704.149 45.2L708.409 37.44V46H711.349V32.26H708.409L704.149 40.02L699.909 32.26H696.949V46ZM714.84 46H717.8V41.54H721.02C724.02 41.54 726.2 39.62 726.2 36.9C726.2 34.18 724.02 32.26 721.02 32.26H714.84V46ZM717.8 38.84V34.96H720.72C722.18 34.96 723.18 35.72 723.18 36.9C723.18 38.08 722.18 38.84 720.72 38.84H717.8ZM731.706 43.34V32.26H728.746V46H738.546V43.34H731.706ZM747.433 46.24C751.393 46.24 754.713 42.98 754.713 39.12C754.713 35.26 751.393 32.02 747.433 32.02C743.473 32.02 740.113 35.26 740.113 39.12C740.113 42.98 743.473 46.24 747.433 46.24ZM747.433 43.56C745.113 43.56 743.153 41.52 743.153 39.12C743.153 36.74 745.113 34.7 747.433 34.7C749.733 34.7 751.693 36.74 751.693 39.12C751.693 41.52 749.733 43.56 747.433 43.56ZM761.498 46H764.478V41.04L769.838 32.26H766.538L762.978 38.28L759.558 32.26H756.118L761.498 41.04V46ZM782.627 34.92V32.26H772.047V46H782.627V43.34H775.007V40.32H781.927V37.66H775.007V34.92H782.627ZM796.064 34.92V32.26H785.484V46H796.064V43.34H788.444V40.32H795.364V37.66H788.444V34.92H796.064ZM804.002 46.24C807.342 46.24 809.342 44.5 809.342 41.88C809.342 39.34 807.382 38.46 804.422 37.8C802.302 37.32 801.462 37 801.462 36C801.462 35.18 802.242 34.52 803.482 34.52C804.802 34.52 806.182 35.06 807.422 36.06L808.962 33.92C807.542 32.72 805.822 32.02 803.582 32.02C800.562 32.02 798.482 33.76 798.482 36.3C798.482 38.96 800.562 39.78 803.462 40.44C805.562 40.92 806.362 41.22 806.362 42.2C806.362 43.06 805.602 43.74 804.102 43.74C802.362 43.74 800.882 43.06 799.582 41.94L797.902 43.96C799.502 45.44 801.602 46.24 804.002 46.24Z" fill="#0F0B47"/>
<path d="M393.441 19H396.381V5.26H394.021L389.901 8.02L391.101 10.1L393.441 8.64V19ZM405.195 19.24C408.815 19.24 411.355 16.3 411.355 12.12C411.355 7.96 408.815 5.02 405.195 5.02C401.575 5.02 399.015 7.96 399.015 12.12C399.015 16.3 401.575 19.24 405.195 19.24ZM405.195 16.56C403.355 16.56 402.055 14.7 402.055 12.12C402.055 9.54 403.355 7.7 405.195 7.7C407.035 7.7 408.335 9.54 408.335 12.12C408.335 14.7 407.035 16.56 405.195 16.56ZM419.453 19.24C423.073 19.24 425.613 16.3 425.613 12.12C425.613 7.96 423.073 5.02 419.453 5.02C415.833 5.02 413.273 7.96 413.273 12.12C413.273 16.3 415.833 19.24 419.453 19.24ZM419.453 16.56C417.613 16.56 416.313 14.7 416.313 12.12C416.313 9.54 417.613 7.7 419.453 7.7C421.293 7.7 422.592 9.54 422.592 12.12C422.592 14.7 421.293 16.56 419.453 16.56ZM433.42 14.74H438.9V12.26H433.42V14.74ZM451.83 5.02C448.83 5.02 446.57 6.96 446.57 9.78C446.57 12.5 448.67 14.14 451.21 14.14C452.51 14.14 453.77 13.64 454.61 12.82C454.35 15.14 453.15 16.64 451.35 16.64C450.19 16.64 449.39 16.22 448.55 15.52L447.15 17.76C448.27 18.66 449.65 19.24 451.35 19.24C455.17 19.24 457.67 16.18 457.67 11.9C457.67 7.9 455.83 5.02 451.83 5.02ZM452.07 11.74C450.73 11.74 449.61 10.96 449.61 9.64C449.61 8.54 450.53 7.52 451.99 7.52C453.53 7.52 454.27 8.46 454.53 10.14C454.11 11.12 453.19 11.74 452.07 11.74ZM464.76 5.02C461.76 5.02 459.5 6.96 459.5 9.78C459.5 12.5 461.6 14.14 464.14 14.14C465.44 14.14 466.7 13.64 467.54 12.82C467.28 15.14 466.08 16.64 464.28 16.64C463.12 16.64 462.32 16.22 461.48 15.52L460.08 17.76C461.2 18.66 462.58 19.24 464.28 19.24C468.1 19.24 470.6 16.18 470.6 11.9C470.6 7.9 468.76 5.02 464.76 5.02ZM465 11.74C463.66 11.74 462.54 10.96 462.54 9.64C462.54 8.54 463.46 7.52 464.92 7.52C466.46 7.52 467.2 8.46 467.46 10.14C467.04 11.12 466.12 11.74 465 11.74ZM477.689 5.02C474.689 5.02 472.429 6.96 472.429 9.78C472.429 12.5 474.529 14.14 477.069 14.14C478.369 14.14 479.629 13.64 480.469 12.82C480.209 15.14 479.009 16.64 477.209 16.64C476.049 16.64 475.249 16.22 474.409 15.52L473.009 17.76C474.129 18.66 475.509 19.24 477.209 19.24C481.029 19.24 483.529 16.18 483.529 11.9C483.529 7.9 481.689 5.02 477.689 5.02ZM477.929 11.74C476.589 11.74 475.469 10.96 475.469 9.64C475.469 8.54 476.389 7.52 477.849 7.52C479.389 7.52 480.129 8.46 480.389 10.14C479.969 11.12 479.049 11.74 477.929 11.74ZM385.091 34.92V32.26H374.511V46H385.091V43.34H377.471V40.32H384.391V37.66H377.471V34.92H385.091ZM387.949 46H390.909V37.44L395.149 45.2L399.409 37.44V46H402.349V32.26H399.409L395.149 40.02L390.909 32.26H387.949V46ZM405.84 46H408.8V41.54H412.02C415.02 41.54 417.2 39.62 417.2 36.9C417.2 34.18 415.02 32.26 412.02 32.26H405.84V46ZM408.8 38.84V34.96H411.72C413.18 34.96 414.18 35.72 414.18 36.9C414.18 38.08 413.18 38.84 411.72 38.84H408.8ZM422.706 43.34V32.26H419.746V46H429.546V43.34H422.706ZM438.433 46.24C442.393 46.24 445.713 42.98 445.713 39.12C445.713 35.26 442.393 32.02 438.433 32.02C434.473 32.02 431.113 35.26 431.113 39.12C431.113 42.98 434.473 46.24 438.433 46.24ZM438.433 43.56C436.113 43.56 434.153 41.52 434.153 39.12C434.153 36.74 436.113 34.7 438.433 34.7C440.733 34.7 442.693 36.74 442.693 39.12C442.693 41.52 440.733 43.56 438.433 43.56ZM452.498 46H455.478V41.04L460.838 32.26H457.538L453.978 38.28L450.558 32.26H447.118L452.498 41.04V46ZM473.627 34.92V32.26H463.047V46H473.627V43.34H466.007V40.32H472.927V37.66H466.007V34.92H473.627ZM487.064 34.92V32.26H476.484V46H487.064V43.34H479.444V40.32H486.364V37.66H479.444V34.92H487.064ZM495.002 46.24C498.342 46.24 500.342 44.5 500.342 41.88C500.342 39.34 498.382 38.46 495.422 37.8C493.302 37.32 492.462 37 492.462 36C492.462 35.18 493.242 34.52 494.482 34.52C495.802 34.52 497.182 35.06 498.422 36.06L499.962 33.92C498.542 32.72 496.822 32.02 494.582 32.02C491.562 32.02 489.482 33.76 489.482 36.3C489.482 38.96 491.562 39.78 494.462 40.44C496.562 40.92 497.362 41.22 497.362 42.2C497.362 43.06 496.602 43.74 495.102 43.74C493.362 43.74 491.882 43.06 490.582 41.94L488.902 43.96C490.502 45.44 492.602 46.24 495.002 46.24Z" fill="#0F0B47"/>
<path d="M103.164 19H106.104V5.26H103.744L99.6236 8.02L100.824 10.1L103.164 8.64V19ZM114.627 14.74H120.107V12.26H114.627V14.74ZM133.037 5.02C130.037 5.02 127.777 6.96 127.777 9.78C127.777 12.5 129.877 14.14 132.417 14.14C133.717 14.14 134.977 13.64 135.817 12.82C135.557 15.14 134.357 16.64 132.557 16.64C131.397 16.64 130.597 16.22 129.757 15.52L128.357 17.76C129.477 18.66 130.857 19.24 132.557 19.24C136.377 19.24 138.877 16.18 138.877 11.9C138.877 7.9 137.037 5.02 133.037 5.02ZM133.277 11.74C131.937 11.74 130.817 10.96 130.817 9.64C130.817 8.54 131.737 7.52 133.197 7.52C134.737 7.52 135.477 8.46 135.737 10.14C135.317 11.12 134.397 11.74 133.277 11.74ZM145.967 5.02C142.967 5.02 140.707 6.96 140.707 9.78C140.707 12.5 142.807 14.14 145.347 14.14C146.647 14.14 147.907 13.64 148.747 12.82C148.487 15.14 147.287 16.64 145.487 16.64C144.327 16.64 143.527 16.22 142.687 15.52L141.287 17.76C142.407 18.66 143.787 19.24 145.487 19.24C149.307 19.24 151.807 16.18 151.807 11.9C151.807 7.9 149.967 5.02 145.967 5.02ZM146.207 11.74C144.867 11.74 143.747 10.96 143.747 9.64C143.747 8.54 144.667 7.52 146.127 7.52C147.667 7.52 148.407 8.46 148.667 10.14C148.247 11.12 147.327 11.74 146.207 11.74ZM74.0915 34.92V32.26H63.5115V46H74.0915V43.34H66.4715V40.32H73.3915V37.66H66.4715V34.92H74.0915ZM76.949 46H79.909V37.44L84.149 45.2L88.409 37.44V46H91.349V32.26H88.409L84.149 40.02L79.909 32.26H76.949V46ZM94.8396 46H97.7996V41.54H101.02C104.02 41.54 106.2 39.62 106.2 36.9C106.2 34.18 104.02 32.26 101.02 32.26H94.8396V46ZM97.7996 38.84V34.96H100.72C102.18 34.96 103.18 35.72 103.18 36.9C103.18 38.08 102.18 38.84 100.72 38.84H97.7996ZM111.706 43.34V32.26H108.746V46H118.546V43.34H111.706ZM127.433 46.24C131.393 46.24 134.713 42.98 134.713 39.12C134.713 35.26 131.393 32.02 127.433 32.02C123.473 32.02 120.113 35.26 120.113 39.12C120.113 42.98 123.473 46.24 127.433 46.24ZM127.433 43.56C125.113 43.56 123.153 41.52 123.153 39.12C123.153 36.74 125.113 34.7 127.433 34.7C129.733 34.7 131.693 36.74 131.693 39.12C131.693 41.52 129.733 43.56 127.433 43.56ZM141.498 46H144.478V41.04L149.838 32.26H146.538L142.978 38.28L139.558 32.26H136.118L141.498 41.04V46ZM162.627 34.92V32.26H152.047V46H162.627V43.34H155.007V40.32H161.927V37.66H155.007V34.92H162.627ZM176.064 34.92V32.26H165.484V46H176.064V43.34H168.444V40.32H175.364V37.66H168.444V34.92H176.064ZM184.002 46.24C187.342 46.24 189.342 44.5 189.342 41.88C189.342 39.34 187.382 38.46 184.422 37.8C182.302 37.32 181.462 37 181.462 36C181.462 35.18 182.242 34.52 183.482 34.52C184.802 34.52 186.182 35.06 187.422 36.06L188.962 33.92C187.542 32.72 185.822 32.02 183.582 32.02C180.562 32.02 178.482 33.76 178.482 36.3C178.482 38.96 180.562 39.78 183.462 40.44C185.562 40.92 186.362 41.22 186.362 42.2C186.362 43.06 185.602 43.74 184.102 43.74C182.362 43.74 180.882 43.06 179.582 41.94L177.902 43.96C179.502 45.44 181.602 46.24 184.002 46.24Z" fill="#0F0B47"/>
<path d="M199.288 468.382V472.582H193.618V468.382H192.526V478H193.618V473.618H199.288V478H200.38V468.382H199.288ZM203.758 480.52C204.752 480.506 205.452 480.044 205.956 478.812L209.26 470.762H208.126L205.732 476.782L203.198 470.762H202.036L205.186 478.028L204.766 478.924C204.486 479.414 204.178 479.568 203.716 479.568C203.408 479.568 203.114 479.512 202.862 479.386L202.61 480.282C202.946 480.436 203.338 480.52 203.758 480.52ZM214.316 470.594C213.154 470.594 212.23 471.168 211.684 472.12V468.214H210.634V478H211.684V476.642C212.23 477.594 213.154 478.168 214.316 478.168C216.22 478.168 217.648 476.6 217.648 474.374C217.648 472.162 216.22 470.594 214.316 470.594ZM214.12 477.23C212.692 477.23 211.684 476.04 211.684 474.374C211.684 472.708 212.692 471.532 214.12 471.532C215.534 471.532 216.542 472.708 216.542 474.374C216.542 476.04 215.534 477.23 214.12 477.23ZM220.571 472.176V470.762H219.521V478H220.571V473.954C220.571 472.54 221.733 471.532 223.371 471.532V470.594C222.041 470.594 221.005 471.21 220.571 472.176ZM225.604 469.446C225.982 469.446 226.29 469.124 226.29 468.746C226.29 468.382 225.982 468.06 225.604 468.06C225.212 468.06 224.904 468.382 224.904 468.746C224.904 469.124 225.212 469.446 225.604 469.446ZM225.072 478H226.122V470.762H225.072V478ZM233.962 468.214V472.12C233.416 471.168 232.492 470.594 231.33 470.594C229.426 470.594 227.998 472.162 227.998 474.374C227.998 476.6 229.426 478.168 231.33 478.168C232.492 478.168 233.416 477.594 233.962 476.642V478H235.012V468.214H233.962ZM231.526 477.23C230.112 477.23 229.104 476.04 229.104 474.374C229.104 472.708 230.112 471.532 231.526 471.532C232.954 471.532 233.962 472.708 233.962 474.374C233.962 476.04 232.954 477.23 231.526 477.23ZM244.408 478.168C245.416 478.168 246.34 477.748 247.026 477.062L246.298 476.348C245.808 476.894 245.136 477.23 244.408 477.23C242.966 477.23 241.762 475.928 241.762 474.374C241.762 472.834 242.966 471.532 244.408 471.532C245.122 471.532 245.78 471.854 246.256 472.372L246.984 471.658C246.298 471 245.388 470.594 244.408 470.594C242.378 470.594 240.656 472.316 240.656 474.374C240.656 476.432 242.378 478.168 244.408 478.168ZM248.56 478H249.61V468.214H248.56V478ZM255.154 478.168C257.198 478.168 258.878 476.46 258.878 474.374C258.878 472.288 257.198 470.594 255.154 470.594C253.096 470.594 251.416 472.288 251.416 474.374C251.416 476.46 253.096 478.168 255.154 478.168ZM255.154 477.23C253.698 477.23 252.508 475.942 252.508 474.374C252.508 472.806 253.698 471.532 255.154 471.532C256.596 471.532 257.786 472.806 257.786 474.374C257.786 475.942 256.596 477.23 255.154 477.23ZM265.615 470.762V475.368C265.615 476.39 264.607 477.23 263.375 477.23C262.311 477.23 261.569 476.418 261.569 475.228V470.762H260.519V475.368C260.519 477.034 261.625 478.168 263.235 478.168C264.271 478.168 265.195 477.622 265.615 476.852V478H266.665V470.762H265.615ZM274.499 468.214V472.12C273.953 471.168 273.029 470.594 271.867 470.594C269.963 470.594 268.535 472.162 268.535 474.374C268.535 476.6 269.963 478.168 271.867 478.168C273.029 478.168 273.953 477.594 274.499 476.642V478H275.549V468.214H274.499ZM272.063 477.23C270.649 477.23 269.641 476.04 269.641 474.374C269.641 472.708 270.649 471.532 272.063 471.532C273.491 471.532 274.499 472.708 274.499 474.374C274.499 476.04 273.491 477.23 272.063 477.23Z" fill="#0F0B47"/>
<rect x="157" y="463" width="20" height="20" rx="10" fill="#E46BB7"/>
<path d="M373.526 478H374.618V470.734L378.188 477.44L381.758 470.734V478H382.85V468.382H381.758L378.188 475.088L374.618 468.382H373.526V478ZM390.519 470.762V475.368C390.519 476.39 389.511 477.23 388.279 477.23C387.215 477.23 386.473 476.418 386.473 475.228V470.762H385.423V475.368C385.423 477.034 386.529 478.168 388.139 478.168C389.175 478.168 390.099 477.622 390.519 476.852V478H391.569V470.762H390.519ZM393.999 478H395.049V468.214H393.999V478ZM400.286 476.936C400.132 477.104 399.852 477.23 399.53 477.23C399.11 477.23 398.746 476.852 398.746 476.32V471.7H400.524V470.762H398.746V468.774H397.696V470.762H396.562V471.7H397.696V476.32C397.696 477.398 398.424 478.168 399.46 478.168C399.95 478.168 400.426 478 400.804 477.706L400.286 476.936ZM402.844 469.446C403.222 469.446 403.53 469.124 403.53 468.746C403.53 468.382 403.222 468.06 402.844 468.06C402.452 468.06 402.144 468.382 402.144 468.746C402.144 469.124 402.452 469.446 402.844 469.446ZM402.312 478H403.362V470.762H402.312V478ZM405.784 474.71H409.41V473.688H405.784V474.71ZM414.935 478.168C415.943 478.168 416.867 477.748 417.553 477.062L416.825 476.348C416.335 476.894 415.663 477.23 414.935 477.23C413.493 477.23 412.289 475.928 412.289 474.374C412.289 472.834 413.493 471.532 414.935 471.532C415.649 471.532 416.307 471.854 416.783 472.372L417.511 471.658C416.825 471 415.915 470.594 414.935 470.594C412.905 470.594 411.183 472.316 411.183 474.374C411.183 476.432 412.905 478.168 414.935 478.168ZM419.087 478H420.137V468.214H419.087V478ZM425.681 478.168C427.725 478.168 429.405 476.46 429.405 474.374C429.405 472.288 427.725 470.594 425.681 470.594C423.623 470.594 421.943 472.288 421.943 474.374C421.943 476.46 423.623 478.168 425.681 478.168ZM425.681 477.23C424.225 477.23 423.035 475.942 423.035 474.374C423.035 472.806 424.225 471.532 425.681 471.532C427.123 471.532 428.313 472.806 428.313 474.374C428.313 475.942 427.123 477.23 425.681 477.23ZM436.142 470.762V475.368C436.142 476.39 435.134 477.23 433.902 477.23C432.838 477.23 432.096 476.418 432.096 475.228V470.762H431.046V475.368C431.046 477.034 432.152 478.168 433.762 478.168C434.798 478.168 435.722 477.622 436.142 476.852V478H437.192V470.762H436.142ZM445.026 468.214V472.12C444.48 471.168 443.556 470.594 442.394 470.594C440.49 470.594 439.062 472.162 439.062 474.374C439.062 476.6 440.49 478.168 442.394 478.168C443.556 478.168 444.48 477.594 445.026 476.642V478H446.076V468.214H445.026ZM442.59 477.23C441.176 477.23 440.168 476.04 440.168 474.374C440.168 472.708 441.176 471.532 442.59 471.532C444.018 471.532 445.026 472.708 445.026 474.374C445.026 476.04 444.018 477.23 442.59 477.23ZM456.046 470.594C454.884 470.594 453.96 471.168 453.414 472.12V468.214H452.364V478H453.414V476.642C453.96 477.594 454.884 478.168 456.046 478.168C457.95 478.168 459.378 476.6 459.378 474.374C459.378 472.162 457.95 470.594 456.046 470.594ZM455.85 477.23C454.422 477.23 453.414 476.04 453.414 474.374C453.414 472.708 454.422 471.532 455.85 471.532C457.264 471.532 458.272 472.708 458.272 474.374C458.272 476.04 457.264 477.23 455.85 477.23ZM466.179 470.762V475.368C466.179 476.39 465.171 477.23 463.939 477.23C462.875 477.23 462.133 476.418 462.133 475.228V470.762H461.083V475.368C461.083 477.034 462.189 478.168 463.799 478.168C464.835 478.168 465.759 477.622 466.179 476.852V478H467.229V470.762H466.179ZM472.459 476.936C472.305 477.104 472.025 477.23 471.703 477.23C471.283 477.23 470.919 476.852 470.919 476.32V471.7H472.697V470.762H470.919V468.774H469.869V470.762H468.735V471.7H469.869V476.32C469.869 477.398 470.597 478.168 471.633 478.168C472.123 478.168 472.599 478 472.977 477.706L472.459 476.936ZM481.771 470.594C480.735 470.594 479.811 471.14 479.391 471.91V470.762H478.341V478H479.391V473.394C479.391 472.372 480.399 471.532 481.631 471.532C482.695 471.532 483.437 472.344 483.437 473.534V478H484.487V473.394C484.487 471.728 483.381 470.594 481.771 470.594ZM489.857 478.168C491.901 478.168 493.581 476.46 493.581 474.374C493.581 472.288 491.901 470.594 489.857 470.594C487.799 470.594 486.119 472.288 486.119 474.374C486.119 476.46 487.799 478.168 489.857 478.168ZM489.857 477.23C488.401 477.23 487.211 475.942 487.211 474.374C487.211 472.806 488.401 471.532 489.857 471.532C491.299 471.532 492.489 472.806 492.489 474.374C492.489 475.942 491.299 477.23 489.857 477.23ZM498.19 476.936C498.036 477.104 497.756 477.23 497.434 477.23C497.014 477.23 496.65 476.852 496.65 476.32V471.7H498.428V470.762H496.65V468.774H495.6V470.762H494.466V471.7H495.6V476.32C495.6 477.398 496.328 478.168 497.364 478.168C497.854 478.168 498.33 478 498.708 477.706L498.19 476.936ZM507.502 470.594C506.466 470.594 505.542 471.14 505.122 471.91V468.214H504.072V478H505.122V473.394C505.122 472.372 506.13 471.532 507.362 471.532C508.426 471.532 509.168 472.344 509.168 473.534V478H510.218V473.394C510.218 471.728 509.112 470.594 507.502 470.594ZM513.11 480.52C514.104 480.506 514.804 480.044 515.308 478.812L518.612 470.762H517.478L515.084 476.782L512.55 470.762H511.388L514.538 478.028L514.118 478.924C513.838 479.414 513.53 479.568 513.068 479.568C512.76 479.568 512.466 479.512 512.214 479.386L511.962 480.282C512.298 480.436 512.69 480.52 513.11 480.52ZM523.668 470.594C522.506 470.594 521.582 471.168 521.036 472.12V468.214H519.986V478H521.036V476.642C521.582 477.594 522.506 478.168 523.668 478.168C525.572 478.168 527 476.6 527 474.374C527 472.162 525.572 470.594 523.668 470.594ZM523.472 477.23C522.044 477.23 521.036 476.04 521.036 474.374C521.036 472.708 522.044 471.532 523.472 471.532C524.886 471.532 525.894 472.708 525.894 474.374C525.894 476.04 524.886 477.23 523.472 477.23ZM529.922 472.176V470.762H528.872V478H529.922V473.954C529.922 472.54 531.084 471.532 532.722 471.532V470.594C531.392 470.594 530.356 471.21 529.922 472.176ZM534.955 469.446C535.333 469.446 535.641 469.124 535.641 468.746C535.641 468.382 535.333 468.06 534.955 468.06C534.563 468.06 534.255 468.382 534.255 468.746C534.255 469.124 534.563 469.446 534.955 469.446ZM534.423 478H535.473V470.762H534.423V478ZM543.313 468.214V472.12C542.767 471.168 541.843 470.594 540.681 470.594C538.777 470.594 537.349 472.162 537.349 474.374C537.349 476.6 538.777 478.168 540.681 478.168C541.843 478.168 542.767 477.594 543.313 476.642V478H544.363V468.214H543.313ZM540.877 477.23C539.463 477.23 538.455 476.04 538.455 474.374C538.455 472.708 539.463 471.532 540.877 471.532C542.305 471.532 543.313 472.708 543.313 474.374C543.313 476.04 542.305 477.23 540.877 477.23Z" fill="#0F0B47"/>
<rect x="338" y="463" width="20" height="20" rx="10" fill="#F1B5DB"/>
<path d="M642.526 478H643.618V474.542H646.432C648.42 474.542 649.974 473.268 649.974 471.462C649.974 469.656 648.42 468.382 646.432 468.382H642.526V478ZM643.618 473.506V469.418H646.236C647.804 469.418 648.868 470.174 648.868 471.462C648.868 472.75 647.804 473.506 646.236 473.506H643.618ZM656.73 470.762V475.368C656.73 476.39 655.722 477.23 654.49 477.23C653.426 477.23 652.684 476.418 652.684 475.228V470.762H651.634V475.368C651.634 477.034 652.74 478.168 654.35 478.168C655.386 478.168 656.31 477.622 656.73 476.852V478H657.78V470.762H656.73ZM663.892 470.594C662.73 470.594 661.806 471.168 661.26 472.12V468.214H660.21V478H661.26V476.642C661.806 477.594 662.73 478.168 663.892 478.168C665.796 478.168 667.224 476.6 667.224 474.374C667.224 472.162 665.796 470.594 663.892 470.594ZM663.696 477.23C662.268 477.23 661.26 476.04 661.26 474.374C661.26 472.708 662.268 471.532 663.696 471.532C665.11 471.532 666.118 472.708 666.118 474.374C666.118 476.04 665.11 477.23 663.696 477.23ZM669.097 478H670.147V468.214H669.097V478ZM673.115 469.446C673.493 469.446 673.801 469.124 673.801 468.746C673.801 468.382 673.493 468.06 673.115 468.06C672.723 468.06 672.415 468.382 672.415 468.746C672.415 469.124 672.723 469.446 673.115 469.446ZM672.583 478H673.633V470.762H672.583V478ZM679.178 478.168C680.186 478.168 681.11 477.748 681.796 477.062L681.068 476.348C680.578 476.894 679.906 477.23 679.178 477.23C677.736 477.23 676.532 475.928 676.532 474.374C676.532 472.834 677.736 471.532 679.178 471.532C679.892 471.532 680.55 471.854 681.026 472.372L681.754 471.658C681.068 471 680.158 470.594 679.178 470.594C677.148 470.594 675.426 472.316 675.426 474.374C675.426 476.432 677.148 478.168 679.178 478.168ZM690.293 478.168C691.301 478.168 692.225 477.748 692.911 477.062L692.183 476.348C691.693 476.894 691.021 477.23 690.293 477.23C688.851 477.23 687.647 475.928 687.647 474.374C687.647 472.834 688.851 471.532 690.293 471.532C691.007 471.532 691.665 471.854 692.141 472.372L692.869 471.658C692.183 471 691.273 470.594 690.293 470.594C688.263 470.594 686.541 472.316 686.541 474.374C686.541 476.432 688.263 478.168 690.293 478.168ZM694.445 478H695.495V468.214H694.445V478ZM701.039 478.168C703.083 478.168 704.763 476.46 704.763 474.374C704.763 472.288 703.083 470.594 701.039 470.594C698.981 470.594 697.301 472.288 697.301 474.374C697.301 476.46 698.981 478.168 701.039 478.168ZM701.039 477.23C699.583 477.23 698.393 475.942 698.393 474.374C698.393 472.806 699.583 471.532 701.039 471.532C702.481 471.532 703.671 472.806 703.671 474.374C703.671 475.942 702.481 477.23 701.039 477.23ZM711.5 470.762V475.368C711.5 476.39 710.492 477.23 709.26 477.23C708.196 477.23 707.454 476.418 707.454 475.228V470.762H706.404V475.368C706.404 477.034 707.51 478.168 709.12 478.168C710.156 478.168 711.08 477.622 711.5 476.852V478H712.55V470.762H711.5ZM720.384 468.214V472.12C719.838 471.168 718.914 470.594 717.752 470.594C715.848 470.594 714.42 472.162 714.42 474.374C714.42 476.6 715.848 478.168 717.752 478.168C718.914 478.168 719.838 477.594 720.384 476.642V478H721.434V468.214H720.384ZM717.948 477.23C716.534 477.23 715.526 476.04 715.526 474.374C715.526 472.708 716.534 471.532 717.948 471.532C719.376 471.532 720.384 472.708 720.384 474.374C720.384 476.04 719.376 477.23 717.948 477.23ZM730.83 478.168C732.874 478.168 734.554 476.46 734.554 474.374C734.554 472.288 732.874 470.594 730.83 470.594C728.772 470.594 727.092 472.288 727.092 474.374C727.092 476.46 728.772 478.168 730.83 478.168ZM730.83 477.23C729.374 477.23 728.184 475.942 728.184 474.374C728.184 472.806 729.374 471.532 730.83 471.532C732.272 471.532 733.462 472.806 733.462 474.374C733.462 475.942 732.272 477.23 730.83 477.23ZM739.793 470.594C738.757 470.594 737.833 471.14 737.413 471.91V470.762H736.363V478H737.413V473.394C737.413 472.372 738.421 471.532 739.653 471.532C740.717 471.532 741.459 472.344 741.459 473.534V478H742.509V473.394C742.509 471.728 741.403 470.594 739.793 470.594ZM744.771 478H745.821V468.214H744.771V478ZM748.887 480.52C749.881 480.506 750.581 480.044 751.085 478.812L754.389 470.762H753.255L750.861 476.782L748.327 470.762H747.165L750.315 478.028L749.895 478.924C749.615 479.414 749.307 479.568 748.845 479.568C748.537 479.568 748.243 479.512 747.991 479.386L747.739 480.282C748.075 480.436 748.467 480.52 748.887 480.52Z" fill="#0F0B47"/>
<rect x="607" y="463" width="20" height="20" rx="10" fill="#5C2CFF"/>
<path d="M851.526 478H852.618V474.542H855.432C857.42 474.542 858.974 473.268 858.974 471.462C858.974 469.656 857.42 468.382 855.432 468.382H851.526V478ZM852.618 473.506V469.418H855.236C856.804 469.418 857.868 470.174 857.868 471.462C857.868 472.75 856.804 473.506 855.236 473.506H852.618ZM861.852 472.176V470.762H860.802V478H861.852V473.954C861.852 472.54 863.014 471.532 864.652 471.532V470.594C863.322 470.594 862.286 471.21 861.852 472.176ZM866.885 469.446C867.263 469.446 867.571 469.124 867.571 468.746C867.571 468.382 867.263 468.06 866.885 468.06C866.493 468.06 866.185 468.382 866.185 468.746C866.185 469.124 866.493 469.446 866.885 469.446ZM866.353 478H867.403V470.762H866.353V478ZM871.841 478H872.849L875.887 470.762H874.711L872.345 476.768L869.937 470.762H868.761L871.841 478ZM879.839 470.594C879.139 470.594 878.271 470.776 877.235 471.294L877.655 472.148C878.313 471.812 879.041 471.49 879.769 471.49C881.337 471.49 881.729 472.61 881.729 473.59V473.856C880.987 473.618 880.161 473.45 879.377 473.45C877.823 473.45 876.535 474.416 876.535 475.858C876.535 477.286 877.655 478.168 879.181 478.168C880.133 478.168 881.211 477.72 881.729 476.866V478H882.779V473.59C882.779 471.84 881.813 470.594 879.839 470.594ZM879.363 477.244C878.341 477.244 877.557 476.712 877.557 475.816C877.557 474.948 878.467 474.332 879.545 474.332C880.329 474.332 881.071 474.444 881.729 474.626V475.732C881.449 476.754 880.315 477.244 879.363 477.244ZM887.842 476.936C887.688 477.104 887.408 477.23 887.086 477.23C886.666 477.23 886.302 476.852 886.302 476.32V471.7H888.08V470.762H886.302V468.774H885.252V470.762H884.118V471.7H885.252V476.32C885.252 477.398 885.98 478.168 887.016 478.168C887.506 478.168 887.982 478 888.36 477.706L887.842 476.936ZM892.92 477.23C891.492 477.23 890.498 476.194 890.344 474.78H896.266C896.266 472.246 895.02 470.594 892.836 470.594C890.89 470.594 889.266 472.204 889.266 474.36C889.266 476.586 891.002 478.168 892.934 478.168C893.942 478.168 895.216 477.734 895.846 477.048L895.202 476.362C894.754 476.852 893.774 477.23 892.92 477.23ZM892.878 471.532C894.32 471.532 895.09 472.54 895.23 473.842H890.358C890.554 472.442 891.59 471.532 892.878 471.532ZM904.994 478.168C906.002 478.168 906.926 477.748 907.612 477.062L906.884 476.348C906.394 476.894 905.722 477.23 904.994 477.23C903.552 477.23 902.348 475.928 902.348 474.374C902.348 472.834 903.552 471.532 904.994 471.532C905.708 471.532 906.366 471.854 906.842 472.372L907.57 471.658C906.884 471 905.974 470.594 904.994 470.594C902.964 470.594 901.242 472.316 901.242 474.374C901.242 476.432 902.964 478.168 904.994 478.168ZM909.146 478H910.196V468.214H909.146V478ZM915.74 478.168C917.784 478.168 919.464 476.46 919.464 474.374C919.464 472.288 917.784 470.594 915.74 470.594C913.682 470.594 912.002 472.288 912.002 474.374C912.002 476.46 913.682 478.168 915.74 478.168ZM915.74 477.23C914.284 477.23 913.094 475.942 913.094 474.374C913.094 472.806 914.284 471.532 915.74 471.532C917.182 471.532 918.372 472.806 918.372 474.374C918.372 475.942 917.182 477.23 915.74 477.23ZM926.201 470.762V475.368C926.201 476.39 925.193 477.23 923.961 477.23C922.897 477.23 922.155 476.418 922.155 475.228V470.762H921.105V475.368C921.105 477.034 922.211 478.168 923.821 478.168C924.857 478.168 925.781 477.622 926.201 476.852V478H927.251V470.762H926.201ZM935.085 468.214V472.12C934.539 471.168 933.615 470.594 932.453 470.594C930.549 470.594 929.121 472.162 929.121 474.374C929.121 476.6 930.549 478.168 932.453 478.168C933.615 478.168 934.539 477.594 935.085 476.642V478H936.135V468.214H935.085ZM932.649 477.23C931.235 477.23 930.227 476.04 930.227 474.374C930.227 472.708 931.235 471.532 932.649 471.532C934.077 471.532 935.085 472.708 935.085 474.374C935.085 476.04 934.077 477.23 932.649 477.23ZM945.531 478.168C947.575 478.168 949.255 476.46 949.255 474.374C949.255 472.288 947.575 470.594 945.531 470.594C943.473 470.594 941.793 472.288 941.793 474.374C941.793 476.46 943.473 478.168 945.531 478.168ZM945.531 477.23C944.075 477.23 942.885 475.942 942.885 474.374C942.885 472.806 944.075 471.532 945.531 471.532C946.973 471.532 948.163 472.806 948.163 474.374C948.163 475.942 946.973 477.23 945.531 477.23ZM954.494 470.594C953.458 470.594 952.534 471.14 952.114 471.91V470.762H951.064V478H952.114V473.394C952.114 472.372 953.122 471.532 954.354 471.532C955.418 471.532 956.16 472.344 956.16 473.534V478H957.21V473.394C957.21 471.728 956.104 470.594 954.494 470.594ZM959.472 478H960.522V468.214H959.472V478ZM963.588 480.52C964.582 480.506 965.282 480.044 965.786 478.812L969.09 470.762H967.956L965.562 476.782L963.028 470.762H961.866L965.016 478.028L964.596 478.924C964.316 479.414 964.008 479.568 963.546 479.568C963.238 479.568 962.944 479.512 962.692 479.386L962.44 480.282C962.776 480.436 963.168 480.52 963.588 480.52Z" fill="#0F0B47"/>
<rect x="816" y="463" width="20" height="20" rx="10" fill="#1B0085"/>
</svg>
