<svg width="1200" height="408" viewBox="0 0 1200 408" fill="none" xmlns="http://www.w3.org/2000/svg">
<line x1="-2.18557e-08" y1="141.75" x2="1199" y2="141.75" stroke="#0F0B47" stroke-width="0.5"/>
<rect x="615" y="387.457" width="20" height="20" rx="10" fill="#F1B5DB"/>
<path d="M652.604 401.457H653.696V393.631L659.66 401.457H660.752V391.839H659.66V399.665L653.696 391.839H652.604V401.457ZM666.601 401.625C668.645 401.625 670.325 399.917 670.325 397.831C670.325 395.745 668.645 394.051 666.601 394.051C664.543 394.051 662.863 395.745 662.863 397.831C662.863 399.917 664.543 401.625 666.601 401.625ZM666.601 400.687C665.145 400.687 663.955 399.399 663.955 397.831C663.955 396.263 665.145 394.989 666.601 394.989C668.043 394.989 669.233 396.263 669.233 397.831C669.233 399.399 668.043 400.687 666.601 400.687ZM674.934 400.393C674.78 400.561 674.5 400.687 674.178 400.687C673.758 400.687 673.394 400.309 673.394 399.777V395.157H675.172V394.219H673.394V392.231H672.344V394.219H671.21V395.157H672.344V399.777C672.344 400.855 673.072 401.625 674.108 401.625C674.598 401.625 675.074 401.457 675.452 401.163L674.934 400.393ZM683.406 394.051C682.706 394.051 681.838 394.233 680.802 394.751L681.222 395.605C681.88 395.269 682.608 394.947 683.336 394.947C684.904 394.947 685.296 396.067 685.296 397.047V397.313C684.554 397.075 683.728 396.907 682.944 396.907C681.39 396.907 680.102 397.873 680.102 399.315C680.102 400.743 681.222 401.625 682.748 401.625C683.7 401.625 684.778 401.177 685.296 400.323V401.457H686.346V397.047C686.346 395.297 685.38 394.051 683.406 394.051ZM682.93 400.701C681.908 400.701 681.124 400.169 681.124 399.273C681.124 398.405 682.034 397.789 683.112 397.789C683.896 397.789 684.638 397.901 685.296 398.083V399.189C685.016 400.211 683.882 400.701 682.93 400.701ZM692.039 394.051C691.003 394.051 690.079 394.597 689.659 395.367V394.219H688.609V401.457H689.659V396.851C689.659 395.829 690.667 394.989 691.899 394.989C692.963 394.989 693.705 395.801 693.705 396.991V401.457H694.755V396.851C694.755 395.185 693.649 394.051 692.039 394.051ZM708.082 392.875V391.839H701.18V401.457H708.082V400.421H702.286V397.075H707.508V396.039H702.286V392.875H708.082ZM713.517 394.051C712.481 394.051 711.557 394.597 711.137 395.367V394.219H710.087V401.457H711.137V396.851C711.137 395.829 712.145 394.989 713.377 394.989C714.441 394.989 715.183 395.801 715.183 396.991V401.457H716.233V396.851C716.233 395.185 715.127 394.051 713.517 394.051ZM723.899 391.671V395.577C723.353 394.625 722.429 394.051 721.267 394.051C719.363 394.051 717.935 395.619 717.935 397.831C717.935 400.057 719.363 401.625 721.267 401.625C722.429 401.625 723.353 401.051 723.899 400.099V401.457H724.949V391.671H723.899ZM721.463 400.687C720.049 400.687 719.041 399.497 719.041 397.831C719.041 396.165 720.049 394.989 721.463 394.989C722.891 394.989 723.899 396.165 723.899 397.831C723.899 399.497 722.891 400.687 721.463 400.687ZM735.312 401.625C737.664 401.625 739.33 399.903 739.33 397.467V391.839H738.238V397.467C738.238 399.315 737.02 400.631 735.312 400.631C733.604 400.631 732.386 399.315 732.386 397.467V391.839H731.294V397.467C731.294 399.903 732.96 401.625 735.312 401.625ZM744.06 401.625C745.558 401.625 746.706 400.771 746.706 399.441C746.706 398.069 745.502 397.677 744.34 397.313C742.996 396.879 742.464 396.683 742.464 396.053C742.464 395.353 743.136 394.989 743.948 394.989C744.592 394.989 745.306 395.213 746.034 395.675L746.538 394.863C745.768 394.359 744.844 394.051 743.948 394.051C742.506 394.051 741.414 394.863 741.414 396.179C741.414 397.215 742.086 397.733 743.836 398.237C744.816 398.517 745.656 398.769 745.656 399.553C745.656 400.239 745.012 400.687 744.06 400.687C743.262 400.687 742.436 400.379 741.61 399.777L741.064 400.547C741.932 401.247 743.052 401.625 744.06 401.625ZM751.557 400.687C750.129 400.687 749.135 399.651 748.981 398.237H754.903C754.903 395.703 753.657 394.051 751.473 394.051C749.527 394.051 747.903 395.661 747.903 397.817C747.903 400.043 749.639 401.625 751.571 401.625C752.579 401.625 753.853 401.191 754.483 400.505L753.839 399.819C753.391 400.309 752.411 400.687 751.557 400.687ZM751.515 394.989C752.957 394.989 753.727 395.997 753.867 397.299H748.995C749.191 395.899 750.227 394.989 751.515 394.989ZM757.717 395.633V394.219H756.667V401.457H757.717V397.411C757.717 395.997 758.879 394.989 760.517 394.989V394.051C759.187 394.051 758.151 394.667 757.717 395.633Z" fill="black"/>
<rect x="439.912" y="387.457" width="20" height="20" rx="10" fill="#5C2CFF" style="mix-blend-mode:multiply"/>
<path d="M478.712 401.625C480.042 401.625 481.274 401.051 482.17 400.155L481.428 399.399C480.728 400.141 479.762 400.617 478.712 400.617C476.64 400.617 474.89 398.797 474.89 396.641C474.89 394.499 476.64 392.679 478.712 392.679C479.762 392.679 480.728 393.155 481.428 393.897L482.17 393.141C481.274 392.231 480.042 391.671 478.712 391.671C476.052 391.671 473.784 393.939 473.784 396.641C473.784 399.343 476.052 401.625 478.712 401.625ZM484.219 401.457H485.311V393.631L491.275 401.457H492.367V391.839H491.275V399.665L485.311 391.839H484.219V401.457ZM499.603 401.625C500.933 401.625 502.165 401.051 503.061 400.155L502.319 399.399C501.619 400.141 500.653 400.617 499.603 400.617C497.531 400.617 495.781 398.797 495.781 396.641C495.781 394.499 497.531 392.679 499.603 392.679C500.653 392.679 501.619 393.155 502.319 393.897L503.061 393.141C502.165 392.231 500.933 391.671 499.603 391.671C496.943 391.671 494.675 393.939 494.675 396.641C494.675 399.343 496.943 401.625 499.603 401.625ZM512.012 392.875V391.839H505.11V401.457H506.216V397.075H511.438V396.039H506.216V392.875H512.012ZM524.809 392.875V391.839H517.907V401.457H524.809V400.421H519.013V397.075H524.235V396.039H519.013V392.875H524.809ZM530.244 394.051C529.208 394.051 528.284 394.597 527.864 395.367V394.219H526.814V401.457H527.864V396.851C527.864 395.829 528.872 394.989 530.104 394.989C531.168 394.989 531.91 395.801 531.91 396.991V401.457H532.96V396.851C532.96 395.185 531.854 394.051 530.244 394.051ZM540.626 391.671V395.577C540.08 394.625 539.156 394.051 537.994 394.051C536.09 394.051 534.662 395.619 534.662 397.831C534.662 400.057 536.09 401.625 537.994 401.625C539.156 401.625 540.08 401.051 540.626 400.099V401.457H541.676V391.671H540.626ZM538.19 400.687C536.776 400.687 535.768 399.497 535.768 397.831C535.768 396.165 536.776 394.989 538.19 394.989C539.618 394.989 540.626 396.165 540.626 397.831C540.626 399.497 539.618 400.687 538.19 400.687ZM552.038 401.625C554.39 401.625 556.056 399.903 556.056 397.467V391.839H554.964V397.467C554.964 399.315 553.746 400.631 552.038 400.631C550.33 400.631 549.112 399.315 549.112 397.467V391.839H548.02V397.467C548.02 399.903 549.686 401.625 552.038 401.625ZM560.786 401.625C562.284 401.625 563.432 400.771 563.432 399.441C563.432 398.069 562.228 397.677 561.066 397.313C559.722 396.879 559.19 396.683 559.19 396.053C559.19 395.353 559.862 394.989 560.674 394.989C561.318 394.989 562.032 395.213 562.76 395.675L563.264 394.863C562.494 394.359 561.57 394.051 560.674 394.051C559.232 394.051 558.14 394.863 558.14 396.179C558.14 397.215 558.812 397.733 560.562 398.237C561.542 398.517 562.382 398.769 562.382 399.553C562.382 400.239 561.738 400.687 560.786 400.687C559.988 400.687 559.162 400.379 558.336 399.777L557.79 400.547C558.658 401.247 559.778 401.625 560.786 401.625ZM568.284 400.687C566.856 400.687 565.862 399.651 565.708 398.237H571.63C571.63 395.703 570.384 394.051 568.2 394.051C566.254 394.051 564.63 395.661 564.63 397.817C564.63 400.043 566.366 401.625 568.298 401.625C569.306 401.625 570.58 401.191 571.21 400.505L570.566 399.819C570.118 400.309 569.138 400.687 568.284 400.687ZM568.242 394.989C569.684 394.989 570.454 395.997 570.594 397.299H565.722C565.918 395.899 566.954 394.989 568.242 394.989ZM574.444 395.633V394.219H573.394V401.457H574.444V397.411C574.444 395.997 575.606 394.989 577.244 394.989V394.051C575.914 394.051 574.878 394.667 574.444 395.633ZM581.185 401.625C582.683 401.625 583.831 400.771 583.831 399.441C583.831 398.069 582.627 397.677 581.465 397.313C580.121 396.879 579.589 396.683 579.589 396.053C579.589 395.353 580.261 394.989 581.073 394.989C581.717 394.989 582.431 395.213 583.159 395.675L583.663 394.863C582.893 394.359 581.969 394.051 581.073 394.051C579.631 394.051 578.539 394.863 578.539 396.179C578.539 397.215 579.211 397.733 580.961 398.237C581.941 398.517 582.781 398.769 582.781 399.553C582.781 400.239 582.137 400.687 581.185 400.687C580.387 400.687 579.561 400.379 578.735 399.777L578.189 400.547C579.057 401.247 580.177 401.625 581.185 401.625Z" fill="black"/>
<path d="M21.9084 283.329V274.465H19.5404V285.457H27.3804V283.329H21.9084ZM37.7544 276.593V274.465H29.2904V285.457H37.7544V283.329H31.6584V280.913H37.1944V278.785H31.6584V276.593H37.7544ZM44.1044 285.649C46.7764 285.649 48.3764 284.257 48.3764 282.161C48.3764 280.129 46.8084 279.425 44.4404 278.897C42.7444 278.513 42.0724 278.257 42.0724 277.457C42.0724 276.801 42.6964 276.273 43.6884 276.273C44.7444 276.273 45.8484 276.705 46.8404 277.505L48.0724 275.793C46.9364 274.833 45.5604 274.273 43.7684 274.273C41.3524 274.273 39.6884 275.665 39.6884 277.697C39.6884 279.825 41.3524 280.481 43.6724 281.009C45.3524 281.393 45.9924 281.633 45.9924 282.417C45.9924 283.105 45.3844 283.649 44.1844 283.649C42.7924 283.649 41.6084 283.105 40.5684 282.209L39.2244 283.825C40.5044 285.009 42.1844 285.649 44.1044 285.649ZM54.5419 285.649C57.2139 285.649 58.8139 284.257 58.8139 282.161C58.8139 280.129 57.2459 279.425 54.8779 278.897C53.1819 278.513 52.5099 278.257 52.5099 277.457C52.5099 276.801 53.1339 276.273 54.1259 276.273C55.1819 276.273 56.2859 276.705 57.2779 277.505L58.5099 275.793C57.3739 274.833 55.9979 274.273 54.2059 274.273C51.7899 274.273 50.1259 275.665 50.1259 277.697C50.1259 279.825 51.7899 280.481 54.1099 281.009C55.7899 281.393 56.4299 281.633 56.4299 282.417C56.4299 283.105 55.8219 283.649 54.6219 283.649C53.2299 283.649 52.0459 283.105 51.0059 282.209L49.6619 283.825C50.9419 285.009 52.6219 285.649 54.5419 285.649ZM67.8188 285.457H70.1708V276.593H73.6108V274.465H64.3948V276.593H67.8188V285.457ZM82.8696 274.465V278.785H77.8616V274.465H75.4936V285.457H77.8616V280.913H82.8696V285.457H85.2216V274.465H82.8696ZM95.9768 285.457H98.6328L94.1528 274.465H91.5128L87.0328 285.457H89.6728L90.4408 283.569H95.2088L95.9768 285.457ZM91.1928 281.729L92.8248 277.713L94.4568 281.729H91.1928ZM100.431 285.457H102.799V278.353L108.095 285.457H110.463V274.465H108.095V281.569L102.799 274.465H100.431V285.457ZM30.2966 306.457H38.6006V304.329H33.9446L35.9446 302.777C37.8646 301.385 38.5046 300.249 38.5046 298.777C38.5046 296.713 36.8086 295.273 34.4726 295.273C32.6966 295.273 31.3046 296.041 30.2166 297.417L31.7206 298.873C32.5206 297.961 33.3366 297.417 34.4086 297.417C35.3046 297.417 36.0726 297.961 36.0726 298.873C36.0726 299.641 35.6566 300.361 34.3446 301.401L30.2966 304.537V306.457ZM48.4533 306.457H50.8373V302.489L55.1253 295.465H52.4853L49.6373 300.281L46.9013 295.465H44.1493L48.4533 302.489V306.457ZM65.356 297.593V295.465H56.892V306.457H65.356V304.329H59.26V301.913H64.796V299.785H59.26V297.593H65.356ZM75.594 306.457H78.25L73.77 295.465H71.13L66.65 306.457H69.29L70.058 304.569H74.826L75.594 306.457ZM70.81 302.729L72.442 298.713L74.074 302.729H70.81ZM89.1363 299.177C89.1363 297.001 87.3923 295.465 84.9923 295.465H80.0483V306.457H82.4163V302.889H83.8403L86.3523 306.457H89.0403L86.4003 302.697C88.0483 302.217 89.1363 300.905 89.1363 299.177ZM82.4163 297.625H84.7523C85.9203 297.625 86.7203 298.233 86.7203 299.177C86.7203 300.121 85.9203 300.729 84.7523 300.729H82.4163V297.625ZM95.3779 306.649C98.0499 306.649 99.6499 305.257 99.6499 303.161C99.6499 301.129 98.0819 300.425 95.7139 299.897C94.0179 299.513 93.3459 299.257 93.3459 298.457C93.3459 297.801 93.9699 297.273 94.9619 297.273C96.0179 297.273 97.1219 297.705 98.1139 298.505L99.3459 296.793C98.2099 295.833 96.8339 295.273 95.0419 295.273C92.6259 295.273 90.9619 296.665 90.9619 298.697C90.9619 300.825 92.6259 301.481 94.9459 302.009C96.6259 302.393 97.2659 302.633 97.2659 303.417C97.2659 304.105 96.6579 304.649 95.4579 304.649C94.0659 304.649 92.8819 304.105 91.8419 303.209L90.4979 304.825C91.7779 306.009 93.4579 306.649 95.3779 306.649Z" fill="#0F0B47"/>
<ellipse cx="75" cy="141.5" rx="53" ry="52.5" fill="#F1B5DB"/>
<circle cx="16" cy="142.457" r="16" fill="#5C2CFF" style="mix-blend-mode:multiply"/>
<path d="M15.7493 8.35303C14.7093 8.35303 13.7013 8.75303 13.0293 9.40903C13.2373 7.55303 14.1973 6.35303 15.6373 6.35303C16.5653 6.35303 17.2053 6.68903 17.8773 7.24903L18.9973 5.45703C18.1013 4.73703 16.9973 4.27303 15.6373 4.27303C12.5813 4.27303 10.5813 6.72103 10.5813 10.145C10.5813 13.345 12.0533 15.649 15.2533 15.649C17.6533 15.649 19.4613 14.097 19.4613 11.841C19.4613 9.66503 17.7812 8.35303 15.7493 8.35303ZM15.1253 13.649C13.8932 13.649 13.3013 12.897 13.0933 11.553C13.4293 10.769 14.1653 10.273 15.0613 10.273C16.1333 10.273 17.0293 10.897 17.0293 11.953C17.0293 12.833 16.2933 13.649 15.1253 13.649ZM23.741 9.98503C25.357 9.98503 26.493 8.75303 26.493 7.16903C26.493 5.61703 25.405 4.35303 23.741 4.35303C22.093 4.35303 21.005 5.60103 21.005 7.18503C21.005 8.75303 22.093 9.98503 23.741 9.98503ZM22.445 15.457H24.285L31.933 4.46503H30.077L22.445 15.457ZM23.741 8.60903C23.085 8.60903 22.573 8.03303 22.573 7.16903C22.573 6.30503 23.053 5.74503 23.741 5.74503C24.413 5.74503 24.909 6.32103 24.909 7.16903C24.909 8.04903 24.413 8.60903 23.741 8.60903ZM30.605 15.633C32.221 15.633 33.341 14.401 33.341 12.817C33.341 11.265 32.269 10.001 30.605 10.001C28.973 10.001 27.853 11.249 27.853 12.817C27.853 14.385 28.973 15.633 30.605 15.633ZM30.605 14.241C29.933 14.241 29.437 13.665 29.437 12.817C29.437 11.937 29.917 11.377 30.605 11.377C31.261 11.377 31.773 11.953 31.773 12.817C31.773 13.681 31.293 14.241 30.605 14.241Z" fill="#0F0B47"/>
<path d="M68.0154 15.457H76.3194V13.329H71.6634L73.6634 11.777C75.5834 10.385 76.2234 9.24903 76.2234 7.77703C76.2234 5.71303 74.5274 4.27303 72.1914 4.27303C70.4154 4.27303 69.0234 5.04103 67.9354 6.41703L69.4394 7.87303C70.2394 6.96103 71.0554 6.41703 72.1274 6.41703C73.0234 6.41703 73.7914 6.96103 73.7914 7.87303C73.7914 8.64103 73.3754 9.36103 72.0634 10.401L68.0154 13.537V15.457ZM82.8526 15.649C85.7486 15.649 87.7806 13.297 87.7806 9.95303C87.7806 6.62503 85.7486 4.27303 82.8526 4.27303C79.9566 4.27303 77.9086 6.62503 77.9086 9.95303C77.9086 13.297 79.9566 15.649 82.8526 15.649ZM82.8526 13.505C81.3806 13.505 80.3406 12.017 80.3406 9.95303C80.3406 7.88903 81.3806 6.41703 82.8526 6.41703C84.3246 6.41703 85.3646 7.88903 85.3646 9.95303C85.3646 12.017 84.3246 13.505 82.8526 13.505ZM92.1629 9.98503C93.7789 9.98503 94.9149 8.75303 94.9149 7.16903C94.9149 5.61703 93.8269 4.35303 92.1629 4.35303C90.5149 4.35303 89.4269 5.60103 89.4269 7.18503C89.4269 8.75303 90.5149 9.98503 92.1629 9.98503ZM90.8669 15.457H92.7069L100.355 4.46503H98.4989L90.8669 15.457ZM92.1629 8.60903C91.5069 8.60903 90.9949 8.03303 90.9949 7.16903C90.9949 6.30503 91.4749 5.74503 92.1629 5.74503C92.8349 5.74503 93.3309 6.32103 93.3309 7.16903C93.3309 8.04903 92.8349 8.60903 92.1629 8.60903ZM99.0269 15.633C100.643 15.633 101.763 14.401 101.763 12.817C101.763 11.265 100.691 10.001 99.0269 10.001C97.3949 10.001 96.2749 11.249 96.2749 12.817C96.2749 14.385 97.3949 15.633 99.0269 15.633ZM99.0269 14.241C98.3549 14.241 97.8589 13.665 97.8589 12.817C97.8589 11.937 98.3389 11.377 99.0269 11.377C99.6829 11.377 100.195 11.953 100.195 12.817C100.195 13.681 99.7149 14.241 99.0269 14.241Z" fill="#0F0B47"/>
<path d="M328.656 295.457H336.96V293.329H332.304L334.304 291.777C336.224 290.385 336.864 289.249 336.864 287.777C336.864 285.713 335.168 284.273 332.832 284.273C331.056 284.273 329.664 285.041 328.576 286.417L330.08 287.873C330.88 286.961 331.696 286.417 332.768 286.417C333.664 286.417 334.432 286.961 334.432 287.873C334.432 288.641 334.016 289.361 332.704 290.401L328.656 293.537V295.457ZM338.901 292.049H343.285V290.065H338.901V292.049ZM349.286 295.665C351.91 295.665 353.654 294.177 353.654 291.841C353.654 289.601 351.974 288.353 350.022 288.353C349.126 288.353 348.422 288.641 347.878 289.025L347.942 286.593H353.062V284.465H345.766L345.606 290.401L347.19 291.041C347.782 290.593 348.486 290.321 349.318 290.321C350.518 290.321 351.302 290.961 351.302 291.921C351.302 292.865 350.55 293.601 349.302 293.601C348.246 293.601 347.254 293.089 346.422 292.305L345.03 293.969C346.054 294.993 347.446 295.665 349.286 295.665ZM363.391 295.457H365.775V291.489L370.063 284.465H367.423L364.575 289.281L361.839 284.465H359.087L363.391 291.489V295.457ZM380.294 286.593V284.465H371.83V295.457H380.294V293.329H374.198V290.913H379.734V288.785H374.198V286.593H380.294ZM390.532 295.457H393.188L388.708 284.465H386.068L381.588 295.457H384.228L384.996 293.569H389.764L390.532 295.457ZM385.748 291.729L387.38 287.713L389.012 291.729H385.748ZM404.074 288.177C404.074 286.001 402.33 284.465 399.93 284.465H394.986V295.457H397.354V291.889H398.778L401.29 295.457H403.978L401.338 291.697C402.986 291.217 404.074 289.905 404.074 288.177ZM397.354 286.625H399.69C400.858 286.625 401.658 287.233 401.658 288.177C401.658 289.121 400.858 289.729 399.69 289.729H397.354V286.625ZM410.315 295.649C412.987 295.649 414.587 294.257 414.587 292.161C414.587 290.129 413.019 289.425 410.651 288.897C408.955 288.513 408.283 288.257 408.283 287.457C408.283 286.801 408.907 286.273 409.899 286.273C410.955 286.273 412.059 286.705 413.051 287.505L414.283 285.793C413.147 284.833 411.771 284.273 409.979 284.273C407.563 284.273 405.899 285.665 405.899 287.697C405.899 289.825 407.563 290.481 409.883 291.009C411.563 291.393 412.203 291.633 412.203 292.417C412.203 293.105 411.595 293.649 410.395 293.649C409.003 293.649 407.819 293.105 406.779 292.209L405.435 293.825C406.715 295.009 408.395 295.649 410.315 295.649Z" fill="#0F0B47"/>
<circle cx="424" cy="142.457" r="106" fill="#F1B5DB"/>
<circle cx="308" cy="142.457" r="82" fill="#5C2CFF" style="mix-blend-mode:multiply"/>
<path d="M297.426 15.665C300.002 15.665 301.666 14.289 301.666 12.385C301.666 10.929 300.562 10.081 299.362 9.80903C300.578 9.45703 301.426 8.54503 301.426 7.28103C301.426 5.53703 299.874 4.27303 297.41 4.27303C295.458 4.27303 294.146 5.12103 293.234 6.22503L294.594 7.66503C295.33 6.89703 296.146 6.38503 297.17 6.38503C298.258 6.38503 299.026 6.89703 299.026 7.69703C299.026 8.48103 298.306 8.92903 297.106 8.92903L295.842 8.91303V10.929H297.106C298.578 10.913 299.25 11.345 299.25 12.193C299.25 12.977 298.53 13.537 297.33 13.537C296.226 13.537 295.186 13.073 294.402 12.241L293.01 13.809C293.938 14.881 295.458 15.665 297.426 15.665ZM305.637 15.457H307.989V4.46503H306.101L302.805 6.67303L303.765 8.33703L305.637 7.16903V15.457ZM312.944 9.98503C314.56 9.98503 315.696 8.75303 315.696 7.16903C315.696 5.61703 314.608 4.35303 312.944 4.35303C311.296 4.35303 310.208 5.60103 310.208 7.18503C310.208 8.75303 311.296 9.98503 312.944 9.98503ZM311.648 15.457H313.488L321.136 4.46503H319.28L311.648 15.457ZM312.944 8.60903C312.288 8.60903 311.776 8.03303 311.776 7.16903C311.776 6.30503 312.256 5.74503 312.944 5.74503C313.616 5.74503 314.112 6.32103 314.112 7.16903C314.112 8.04903 313.616 8.60903 312.944 8.60903ZM319.808 15.633C321.424 15.633 322.544 14.401 322.544 12.817C322.544 11.265 321.472 10.001 319.808 10.001C318.176 10.001 317.056 11.249 317.056 12.817C317.056 14.385 318.176 15.633 319.808 15.633ZM319.808 14.241C319.136 14.241 318.64 13.665 318.64 12.817C318.64 11.937 319.12 11.377 319.808 11.377C320.464 11.377 320.976 11.953 320.976 12.817C320.976 13.681 320.496 14.241 319.808 14.241Z" fill="#0F0B47"/>
<path d="M414.119 15.457H416.471V13.217H417.927V11.233H416.471V4.48103H413.623L408.519 11.393L408.743 13.217H414.119V15.457ZM410.999 11.233L414.119 6.97703V11.233H410.999ZM424.157 15.649C427.053 15.649 429.085 13.297 429.085 9.95303C429.085 6.62503 427.053 4.27303 424.157 4.27303C421.261 4.27303 419.213 6.62503 419.213 9.95303C419.213 13.297 421.261 15.649 424.157 15.649ZM424.157 13.505C422.685 13.505 421.645 12.017 421.645 9.95303C421.645 7.88903 422.685 6.41703 424.157 6.41703C425.629 6.41703 426.669 7.88903 426.669 9.95303C426.669 12.017 425.629 13.505 424.157 13.505ZM433.468 9.98503C435.084 9.98503 436.22 8.75303 436.22 7.16903C436.22 5.61703 435.132 4.35303 433.468 4.35303C431.82 4.35303 430.732 5.60103 430.732 7.18503C430.732 8.75303 431.82 9.98503 433.468 9.98503ZM432.172 15.457H434.012L441.66 4.46503H439.804L432.172 15.457ZM433.468 8.60903C432.812 8.60903 432.3 8.03303 432.3 7.16903C432.3 6.30503 432.78 5.74503 433.468 5.74503C434.14 5.74503 434.636 6.32103 434.636 7.16903C434.636 8.04903 434.14 8.60903 433.468 8.60903ZM440.332 15.633C441.948 15.633 443.068 14.401 443.068 12.817C443.068 11.265 441.996 10.001 440.332 10.001C438.7 10.001 437.58 11.249 437.58 12.817C437.58 14.385 438.7 15.633 440.332 15.633ZM440.332 14.241C439.66 14.241 439.164 13.665 439.164 12.817C439.164 11.937 439.644 11.377 440.332 11.377C440.988 11.377 441.5 11.953 441.5 12.817C441.5 13.681 441.02 14.241 440.332 14.241Z" fill="#0F0B47"/>
<ellipse cx="873" cy="141.957" rx="69" ry="68.5" fill="#F1B5DB"/>
<ellipse cx="739.5" cy="142.457" rx="111.5" ry="111" fill="#5C2CFF" style="mix-blend-mode:multiply"/>
<path d="M728.931 15.457H731.283V13.217H732.739V11.233H731.283V4.48103H728.435L723.331 11.393L723.555 13.217H728.931V15.457ZM725.811 11.233L728.931 6.97703V11.233H725.811ZM733.914 15.457H742.218V13.329H737.562L739.562 11.777C741.482 10.385 742.122 9.24903 742.122 7.77703C742.122 5.71303 740.426 4.27303 738.09 4.27303C736.314 4.27303 734.922 5.04103 733.834 6.41703L735.338 7.87303C736.138 6.96103 736.954 6.41703 738.026 6.41703C738.922 6.41703 739.69 6.96103 739.69 7.87303C739.69 8.64103 739.274 9.36103 737.962 10.401L733.914 13.537V15.457ZM746.655 9.98503C748.271 9.98503 749.407 8.75303 749.407 7.16903C749.407 5.61703 748.319 4.35303 746.655 4.35303C745.007 4.35303 743.919 5.60103 743.919 7.18503C743.919 8.75303 745.007 9.98503 746.655 9.98503ZM745.359 15.457H747.199L754.847 4.46503H752.991L745.359 15.457ZM746.655 8.60903C745.999 8.60903 745.487 8.03303 745.487 7.16903C745.487 6.30503 745.967 5.74503 746.655 5.74503C747.327 5.74503 747.823 6.32103 747.823 7.16903C747.823 8.04903 747.327 8.60903 746.655 8.60903ZM753.519 15.633C755.135 15.633 756.255 14.401 756.255 12.817C756.255 11.265 755.183 10.001 753.519 10.001C751.887 10.001 750.767 11.249 750.767 12.817C750.767 14.385 751.887 15.633 753.519 15.633ZM753.519 14.241C752.847 14.241 752.351 13.665 752.351 12.817C752.351 11.937 752.831 11.377 753.519 11.377C754.175 11.377 754.687 11.953 754.687 12.817C754.687 13.681 754.207 14.241 753.519 14.241Z" fill="#0F0B47"/>
<path d="M856.547 15.457H864.851V13.329H860.195L862.195 11.777C864.115 10.385 864.755 9.24903 864.755 7.77703C864.755 5.71303 863.059 4.27303 860.723 4.27303C858.947 4.27303 857.555 5.04103 856.467 6.41703L857.971 7.87303C858.771 6.96103 859.587 6.41703 860.659 6.41703C861.555 6.41703 862.323 6.96103 862.323 7.87303C862.323 8.64103 861.907 9.36103 860.595 10.401L856.547 13.537V15.457ZM871.64 8.35303C870.6 8.35303 869.592 8.75303 868.92 9.40903C869.128 7.55303 870.088 6.35303 871.528 6.35303C872.456 6.35303 873.096 6.68903 873.768 7.24903L874.888 5.45703C873.992 4.73703 872.888 4.27303 871.528 4.27303C868.472 4.27303 866.472 6.72103 866.472 10.145C866.472 13.345 867.944 15.649 871.144 15.649C873.544 15.649 875.352 14.097 875.352 11.841C875.352 9.66503 873.672 8.35303 871.64 8.35303ZM871.016 13.649C869.784 13.649 869.192 12.897 868.984 11.553C869.32 10.769 870.056 10.273 870.952 10.273C872.024 10.273 872.92 10.897 872.92 11.953C872.92 12.833 872.184 13.649 871.016 13.649ZM879.632 9.98503C881.248 9.98503 882.384 8.75303 882.384 7.16903C882.384 5.61703 881.296 4.35303 879.632 4.35303C877.984 4.35303 876.896 5.60103 876.896 7.18503C876.896 8.75303 877.984 9.98503 879.632 9.98503ZM878.336 15.457H880.176L887.824 4.46503H885.968L878.336 15.457ZM879.632 8.60903C878.976 8.60903 878.464 8.03303 878.464 7.16903C878.464 6.30503 878.944 5.74503 879.632 5.74503C880.304 5.74503 880.8 6.32103 880.8 7.16903C880.8 8.04903 880.304 8.60903 879.632 8.60903ZM886.496 15.633C888.112 15.633 889.232 14.401 889.232 12.817C889.232 11.265 888.16 10.001 886.496 10.001C884.864 10.001 883.744 11.249 883.744 12.817C883.744 14.385 884.864 15.633 886.496 15.633ZM886.496 14.241C885.824 14.241 885.328 13.665 885.328 12.817C885.328 11.937 885.808 11.377 886.496 11.377C887.152 11.377 887.664 11.953 887.664 12.817C887.664 13.681 887.184 14.241 886.496 14.241Z" fill="#0F0B47"/>
<path d="M752.968 288.353C751.928 288.353 750.92 288.753 750.248 289.409C750.456 287.553 751.416 286.353 752.856 286.353C753.784 286.353 754.424 286.689 755.096 287.249L756.216 285.457C755.32 284.737 754.216 284.273 752.856 284.273C749.8 284.273 747.8 286.721 747.8 290.145C747.8 293.345 749.272 295.649 752.472 295.649C754.872 295.649 756.68 294.097 756.68 291.841C756.68 289.665 755 288.353 752.968 288.353ZM752.344 293.649C751.112 293.649 750.52 292.897 750.312 291.553C750.648 290.769 751.384 290.273 752.28 290.273C753.352 290.273 754.248 290.897 754.248 291.953C754.248 292.833 753.512 293.649 752.344 293.649ZM758.464 292.049H762.848V290.065H758.464V292.049ZM767.153 295.457H769.505V284.465H767.617L764.321 286.673L765.281 288.337L767.153 287.169V295.457ZM776.556 295.649C779.452 295.649 781.484 293.297 781.484 289.953C781.484 286.625 779.452 284.273 776.556 284.273C773.66 284.273 771.612 286.625 771.612 289.953C771.612 293.297 773.66 295.649 776.556 295.649ZM776.556 293.505C775.084 293.505 774.044 292.017 774.044 289.953C774.044 287.889 775.084 286.417 776.556 286.417C778.028 286.417 779.068 287.889 779.068 289.953C779.068 292.017 778.028 293.505 776.556 293.505ZM791.281 295.457H793.665V291.489L797.953 284.465H795.313L792.465 289.281L789.729 284.465H786.977L791.281 291.489V295.457ZM808.184 286.593V284.465H799.72V295.457H808.184V293.329H802.088V290.913H807.624V288.785H802.088V286.593H808.184ZM818.422 295.457H821.078L816.598 284.465H813.958L809.478 295.457H812.118L812.886 293.569H817.654L818.422 295.457ZM813.638 291.729L815.27 287.713L816.902 291.729H813.638ZM831.964 288.177C831.964 286.001 830.22 284.465 827.82 284.465H822.876V295.457H825.244V291.889H826.668L829.18 295.457H831.868L829.228 291.697C830.876 291.217 831.964 289.905 831.964 288.177ZM825.244 286.625H827.58C828.748 286.625 829.548 287.233 829.548 288.177C829.548 289.121 828.748 289.729 827.58 289.729H825.244V286.625ZM838.206 295.649C840.878 295.649 842.478 294.257 842.478 292.161C842.478 290.129 840.91 289.425 838.542 288.897C836.846 288.513 836.174 288.257 836.174 287.457C836.174 286.801 836.798 286.273 837.79 286.273C838.846 286.273 839.95 286.705 840.942 287.505L842.174 285.793C841.038 284.833 839.662 284.273 837.87 284.273C835.454 284.273 833.79 285.665 833.79 287.697C833.79 289.825 835.454 290.481 837.774 291.009C839.454 291.393 840.094 291.633 840.094 292.417C840.094 293.105 839.486 293.649 838.286 293.649C836.894 293.649 835.71 293.105 834.67 292.209L833.326 293.825C834.606 295.009 836.286 295.649 838.206 295.649Z" fill="#0F0B47"/>
<path d="M1069.48 285.457H1071.85V278.609L1075.24 284.817L1078.65 278.609V285.457H1081V274.465H1078.65L1075.24 280.673L1071.85 274.465H1069.48V285.457ZM1088.99 285.649C1092.16 285.649 1094.81 283.041 1094.81 279.953C1094.81 276.865 1092.16 274.273 1088.99 274.273C1085.82 274.273 1083.13 276.865 1083.13 279.953C1083.13 283.041 1085.82 285.649 1088.99 285.649ZM1088.99 283.505C1087.13 283.505 1085.57 281.873 1085.57 279.953C1085.57 278.049 1087.13 276.417 1088.99 276.417C1090.83 276.417 1092.4 278.049 1092.4 279.953C1092.4 281.873 1090.83 283.505 1088.99 283.505ZM1106.05 278.177C1106.05 276.001 1104.31 274.465 1101.91 274.465H1096.96V285.457H1099.33V281.889H1100.75L1103.27 285.457H1105.95L1103.31 281.697C1104.96 281.217 1106.05 279.905 1106.05 278.177ZM1099.33 276.625H1101.67C1102.83 276.625 1103.63 277.233 1103.63 278.177C1103.63 279.121 1102.83 279.729 1101.67 279.729H1099.33V276.625ZM1116.69 276.593V274.465H1108.23V285.457H1116.69V283.329H1110.6V280.913H1116.13V278.785H1110.6V276.593H1116.69ZM1125.88 285.457H1128.23V276.593H1131.67V274.465H1122.46V276.593H1125.88V285.457ZM1140.93 274.465V278.785H1135.92V274.465H1133.56V285.457H1135.92V280.913H1140.93V285.457H1143.28V274.465H1140.93ZM1154.04 285.457H1156.7L1152.22 274.465H1149.58L1145.1 285.457H1147.74L1148.5 283.569H1153.27L1154.04 285.457ZM1149.26 281.729L1150.89 277.713L1152.52 281.729H1149.26ZM1158.49 285.457H1160.86V278.353L1166.16 285.457H1168.53V274.465H1166.16V281.569L1160.86 274.465H1158.49V285.457ZM1082.57 306.457H1084.93V295.465H1083.04L1079.74 297.673L1080.7 299.337L1082.57 298.169V306.457ZM1091.98 306.649C1094.87 306.649 1096.91 304.297 1096.91 300.953C1096.91 297.625 1094.87 295.273 1091.98 295.273C1089.08 295.273 1087.03 297.625 1087.03 300.953C1087.03 304.297 1089.08 306.649 1091.98 306.649ZM1091.98 304.505C1090.51 304.505 1089.47 303.017 1089.47 300.953C1089.47 298.889 1090.51 297.417 1091.98 297.417C1093.45 297.417 1094.49 298.889 1094.49 300.953C1094.49 303.017 1093.45 304.505 1091.98 304.505ZM1106.7 306.457H1109.09V302.489L1113.38 295.465H1110.74L1107.89 300.281L1105.15 295.465H1102.4L1106.7 302.489V306.457ZM1123.61 297.593V295.465H1115.14V306.457H1123.61V304.329H1117.51V301.913H1123.05V299.785H1117.51V297.593H1123.61ZM1133.84 306.457H1136.5L1132.02 295.465H1129.38L1124.9 306.457H1127.54L1128.31 304.569H1133.08L1133.84 306.457ZM1129.06 302.729L1130.69 298.713L1132.32 302.729H1129.06ZM1147.39 299.177C1147.39 297.001 1145.64 295.465 1143.24 295.465H1138.3V306.457H1140.67V302.889H1142.09L1144.6 306.457H1147.29L1144.65 302.697C1146.3 302.217 1147.39 300.905 1147.39 299.177ZM1140.67 297.625H1143C1144.17 297.625 1144.97 298.233 1144.97 299.177C1144.97 300.121 1144.17 300.729 1143 300.729H1140.67V297.625ZM1153.63 306.649C1156.3 306.649 1157.9 305.257 1157.9 303.161C1157.9 301.129 1156.33 300.425 1153.96 299.897C1152.27 299.513 1151.6 299.257 1151.6 298.457C1151.6 297.801 1152.22 297.273 1153.21 297.273C1154.27 297.273 1155.37 297.705 1156.36 298.505L1157.6 296.793C1156.46 295.833 1155.08 295.273 1153.29 295.273C1150.88 295.273 1149.21 296.665 1149.21 298.697C1149.21 300.825 1150.88 301.481 1153.2 302.009C1154.88 302.393 1155.52 302.633 1155.52 303.417C1155.52 304.105 1154.91 304.649 1153.71 304.649C1152.32 304.649 1151.13 304.105 1150.09 303.209L1148.75 304.825C1150.03 306.009 1151.71 306.649 1153.63 306.649Z" fill="#0F0B47"/>
<circle cx="1160.5" cy="141.957" r="39.5" fill="#F1B5DB"/>
<circle cx="1087.5" cy="142.957" r="58.5" fill="#5C2CFF" style="mix-blend-mode:multiply"/>
<path d="M1071.83 15.457H1080.13V13.329H1075.48L1077.48 11.777C1079.4 10.385 1080.04 9.24903 1080.04 7.77703C1080.04 5.71303 1078.34 4.27303 1076 4.27303C1074.23 4.27303 1072.84 5.04103 1071.75 6.41703L1073.25 7.87303C1074.05 6.96103 1074.87 6.41703 1075.94 6.41703C1076.84 6.41703 1077.6 6.96103 1077.6 7.87303C1077.6 8.64103 1077.19 9.36103 1075.88 10.401L1071.83 13.537V15.457ZM1081.61 15.457H1089.91V13.329H1085.26L1087.26 11.777C1089.18 10.385 1089.82 9.24903 1089.82 7.77703C1089.82 5.71303 1088.12 4.27303 1085.79 4.27303C1084.01 4.27303 1082.62 5.04103 1081.53 6.41703L1083.03 7.87303C1083.83 6.96103 1084.65 6.41703 1085.72 6.41703C1086.62 6.41703 1087.39 6.96103 1087.39 7.87303C1087.39 8.64103 1086.97 9.36103 1085.66 10.401L1081.61 13.537V15.457ZM1094.35 9.98503C1095.97 9.98503 1097.1 8.75303 1097.1 7.16903C1097.1 5.61703 1096.01 4.35303 1094.35 4.35303C1092.7 4.35303 1091.61 5.60103 1091.61 7.18503C1091.61 8.75303 1092.7 9.98503 1094.35 9.98503ZM1093.05 15.457H1094.89L1102.54 4.46503H1100.69L1093.05 15.457ZM1094.35 8.60903C1093.69 8.60903 1093.18 8.03303 1093.18 7.16903C1093.18 6.30503 1093.66 5.74503 1094.35 5.74503C1095.02 5.74503 1095.52 6.32103 1095.52 7.16903C1095.52 8.04903 1095.02 8.60903 1094.35 8.60903ZM1101.21 15.633C1102.83 15.633 1103.95 14.401 1103.95 12.817C1103.95 11.265 1102.88 10.001 1101.21 10.001C1099.58 10.001 1098.46 11.249 1098.46 12.817C1098.46 14.385 1099.58 15.633 1101.21 15.633ZM1101.21 14.241C1100.54 14.241 1100.05 13.665 1100.05 12.817C1100.05 11.937 1100.53 11.377 1101.21 11.377C1101.87 11.377 1102.38 11.953 1102.38 12.817C1102.38 13.681 1101.9 14.241 1101.21 14.241Z" fill="#0F0B47"/>
<path d="M1148.72 15.457H1151.08V4.46503H1149.19L1145.89 6.67303L1146.85 8.33703L1148.72 7.16903V15.457ZM1157.29 15.665C1159.92 15.665 1161.66 14.177 1161.66 11.841C1161.66 9.60103 1159.98 8.35303 1158.03 8.35303C1157.13 8.35303 1156.43 8.64103 1155.89 9.02503L1155.95 6.59303H1161.07V4.46503H1153.77L1153.61 10.401L1155.2 11.041C1155.79 10.593 1156.49 10.321 1157.33 10.321C1158.53 10.321 1159.31 10.961 1159.31 11.921C1159.31 12.865 1158.56 13.601 1157.31 13.601C1156.25 13.601 1155.26 13.089 1154.43 12.305L1153.04 13.969C1154.06 14.993 1155.45 15.665 1157.29 15.665ZM1165.98 9.98503C1167.6 9.98503 1168.74 8.75303 1168.74 7.16903C1168.74 5.61703 1167.65 4.35303 1165.98 4.35303C1164.34 4.35303 1163.25 5.60103 1163.25 7.18503C1163.25 8.75303 1164.34 9.98503 1165.98 9.98503ZM1164.69 15.457H1166.53L1174.18 4.46503H1172.32L1164.69 15.457ZM1165.98 8.60903C1165.33 8.60903 1164.82 8.03303 1164.82 7.16903C1164.82 6.30503 1165.3 5.74503 1165.98 5.74503C1166.66 5.74503 1167.15 6.32103 1167.15 7.16903C1167.15 8.04903 1166.66 8.60903 1165.98 8.60903ZM1172.85 15.633C1174.46 15.633 1175.58 14.401 1175.58 12.817C1175.58 11.265 1174.51 10.001 1172.85 10.001C1171.22 10.001 1170.1 11.249 1170.1 12.817C1170.1 14.385 1171.22 15.633 1172.85 15.633ZM1172.85 14.241C1172.18 14.241 1171.68 13.665 1171.68 12.817C1171.68 11.937 1172.16 11.377 1172.85 11.377C1173.5 11.377 1174.02 11.953 1174.02 12.817C1174.02 13.681 1173.54 14.241 1172.85 14.241Z" fill="#0F0B47"/>
</svg>
