<svg width="290" height="628" viewBox="0 0 290 628" fill="none" xmlns="http://www.w3.org/2000/svg">
<path d="M82.0882 625.651C82.8482 625.651 83.5522 625.323 84.0642 624.811L83.6402 624.379C83.2402 624.803 82.6882 625.075 82.0882 625.075C80.9042 625.075 79.9042 624.035 79.9042 622.803C79.9042 621.579 80.9042 620.539 82.0882 620.539C82.6882 620.539 83.2402 620.811 83.6402 621.235L84.0642 620.803C83.5522 620.283 82.8482 619.963 82.0882 619.963C80.5682 619.963 79.2722 621.259 79.2722 622.803C79.2722 624.347 80.5682 625.651 82.0882 625.651ZM85.2353 625.555H85.8593V621.083L89.2673 625.555H89.8913V620.059H89.2673V624.531L85.8593 620.059H85.2353V625.555ZM94.0257 625.651C94.7857 625.651 95.4897 625.323 96.0017 624.811L95.5777 624.379C95.1777 624.803 94.6257 625.075 94.0257 625.075C92.8417 625.075 91.8417 624.035 91.8417 622.803C91.8417 621.579 92.8417 620.539 94.0257 620.539C94.6257 620.539 95.1777 620.811 95.5777 621.235L96.0017 620.803C95.4897 620.283 94.7857 619.963 94.0257 619.963C92.5057 619.963 91.2097 621.259 91.2097 622.803C91.2097 624.347 92.5057 625.651 94.0257 625.651ZM101.117 620.651V620.059H97.1728V625.555H97.8048V623.051H100.789V622.459H97.8048V620.651H101.117ZM108.429 620.651V620.059H104.485V625.555H108.429V624.963H105.117V623.051H108.101V622.459H105.117V620.651H108.429ZM111.535 621.323C110.943 621.323 110.415 621.635 110.175 622.075V621.419H109.575V625.555H110.175V622.923C110.175 622.339 110.751 621.859 111.455 621.859C112.063 621.859 112.487 622.323 112.487 623.003V625.555H113.087V622.923C113.087 621.971 112.455 621.323 111.535 621.323ZM117.468 619.963V622.195C117.156 621.651 116.628 621.323 115.964 621.323C114.876 621.323 114.06 622.219 114.06 623.483C114.06 624.755 114.876 625.651 115.964 625.651C116.628 625.651 117.156 625.323 117.468 624.779V625.555H118.068V619.963H117.468ZM116.076 625.115C115.268 625.115 114.692 624.435 114.692 623.483C114.692 622.531 115.268 621.859 116.076 621.859C116.892 621.859 117.468 622.531 117.468 623.483C117.468 624.435 116.892 625.115 116.076 625.115ZM123.989 625.651C125.333 625.651 126.285 624.667 126.285 623.275V620.059H125.661V623.275C125.661 624.331 124.965 625.083 123.989 625.083C123.013 625.083 122.317 624.331 122.317 623.275V620.059H121.693V623.275C121.693 624.667 122.645 625.651 123.989 625.651ZM128.988 625.651C129.844 625.651 130.5 625.163 130.5 624.403C130.5 623.619 129.812 623.395 129.148 623.187C128.38 622.939 128.076 622.827 128.076 622.467C128.076 622.067 128.46 621.859 128.924 621.859C129.292 621.859 129.7 621.987 130.116 622.251L130.404 621.787C129.964 621.499 129.436 621.323 128.924 621.323C128.1 621.323 127.476 621.787 127.476 622.539C127.476 623.131 127.86 623.427 128.86 623.715C129.42 623.875 129.9 624.019 129.9 624.467C129.9 624.859 129.532 625.115 128.988 625.115C128.532 625.115 128.06 624.939 127.588 624.595L127.276 625.035C127.772 625.435 128.412 625.651 128.988 625.651ZM133.272 625.115C132.456 625.115 131.888 624.523 131.8 623.715H135.184C135.184 622.267 134.472 621.323 133.224 621.323C132.112 621.323 131.184 622.243 131.184 623.475C131.184 624.747 132.176 625.651 133.28 625.651C133.856 625.651 134.584 625.403 134.944 625.011L134.576 624.619C134.32 624.899 133.76 625.115 133.272 625.115ZM133.248 621.859C134.072 621.859 134.512 622.435 134.592 623.179H131.808C131.92 622.379 132.512 621.859 133.248 621.859ZM136.792 622.227V621.419H136.192V625.555H136.792V623.243C136.792 622.435 137.456 621.859 138.392 621.859V621.323C137.632 621.323 137.04 621.675 136.792 622.227ZM140.644 625.651C141.5 625.651 142.156 625.163 142.156 624.403C142.156 623.619 141.468 623.395 140.804 623.187C140.036 622.939 139.732 622.827 139.732 622.467C139.732 622.067 140.116 621.859 140.58 621.859C140.948 621.859 141.356 621.987 141.772 622.251L142.06 621.787C141.62 621.499 141.092 621.323 140.58 621.323C139.756 621.323 139.132 621.787 139.132 622.539C139.132 623.131 139.516 623.427 140.516 623.715C141.076 623.875 141.556 624.019 141.556 624.467C141.556 624.859 141.188 625.115 140.644 625.115C140.188 625.115 139.716 624.939 139.244 624.595L138.932 625.035C139.428 625.435 140.068 625.651 140.644 625.651Z" fill="black"/>
<circle cx="69.2774" cy="623.277" r="4.27743" fill="#5C2CFF"/>
<path d="M177.907 625.555H178.531V621.083L181.939 625.555H182.563V620.059H181.939V624.531L178.531 620.059H177.907V625.555ZM185.906 625.651C187.074 625.651 188.034 624.675 188.034 623.483C188.034 622.291 187.074 621.323 185.906 621.323C184.73 621.323 183.77 622.291 183.77 623.483C183.77 624.675 184.73 625.651 185.906 625.651ZM185.906 625.115C185.074 625.115 184.394 624.379 184.394 623.483C184.394 622.587 185.074 621.859 185.906 621.859C186.73 621.859 187.41 622.587 187.41 623.483C187.41 624.379 186.73 625.115 185.906 625.115ZM190.667 624.947C190.579 625.043 190.419 625.115 190.235 625.115C189.995 625.115 189.787 624.899 189.787 624.595V621.955H190.803V621.419H189.787V620.283H189.187V621.419H188.539V621.955H189.187V624.595C189.187 625.211 189.603 625.651 190.195 625.651C190.475 625.651 190.747 625.555 190.963 625.387L190.667 624.947ZM195.508 621.323C195.108 621.323 194.612 621.427 194.02 621.723L194.26 622.211C194.636 622.019 195.052 621.835 195.468 621.835C196.364 621.835 196.588 622.475 196.588 623.035V623.187C196.164 623.051 195.692 622.955 195.244 622.955C194.356 622.955 193.62 623.507 193.62 624.331C193.62 625.147 194.26 625.651 195.132 625.651C195.676 625.651 196.292 625.395 196.588 624.907V625.555H197.188V623.035C197.188 622.035 196.636 621.323 195.508 621.323ZM195.236 625.123C194.652 625.123 194.204 624.819 194.204 624.307C194.204 623.811 194.724 623.459 195.34 623.459C195.788 623.459 196.212 623.523 196.588 623.627V624.259C196.428 624.843 195.78 625.123 195.236 625.123ZM200.441 621.323C199.849 621.323 199.321 621.635 199.081 622.075V621.419H198.481V625.555H199.081V622.923C199.081 622.339 199.657 621.859 200.361 621.859C200.969 621.859 201.393 622.323 201.393 623.003V625.555H201.993V622.923C201.993 621.971 201.361 621.323 200.441 621.323ZM209.609 620.651V620.059H205.665V625.555H209.609V624.963H206.297V623.051H209.281V622.459H206.297V620.651H209.609ZM212.715 621.323C212.123 621.323 211.595 621.635 211.355 622.075V621.419H210.755V625.555H211.355V622.923C211.355 622.339 211.931 621.859 212.635 621.859C213.243 621.859 213.667 622.323 213.667 623.003V625.555H214.267V622.923C214.267 621.971 213.635 621.323 212.715 621.323ZM218.647 619.963V622.195C218.335 621.651 217.807 621.323 217.143 621.323C216.055 621.323 215.239 622.219 215.239 623.483C215.239 624.755 216.055 625.651 217.143 625.651C217.807 625.651 218.335 625.323 218.647 624.779V625.555H219.247V619.963H218.647ZM217.255 625.115C216.447 625.115 215.871 624.435 215.871 623.483C215.871 622.531 216.447 621.859 217.255 621.859C218.071 621.859 218.647 622.531 218.647 623.483C218.647 624.435 218.071 625.115 217.255 625.115ZM225.169 625.651C226.513 625.651 227.465 624.667 227.465 623.275V620.059H226.841V623.275C226.841 624.331 226.145 625.083 225.169 625.083C224.193 625.083 223.497 624.331 223.497 623.275V620.059H222.873V623.275C222.873 624.667 223.825 625.651 225.169 625.651ZM230.167 625.651C231.023 625.651 231.679 625.163 231.679 624.403C231.679 623.619 230.991 623.395 230.327 623.187C229.559 622.939 229.255 622.827 229.255 622.467C229.255 622.067 229.639 621.859 230.103 621.859C230.471 621.859 230.879 621.987 231.295 622.251L231.583 621.787C231.143 621.499 230.615 621.323 230.103 621.323C229.279 621.323 228.655 621.787 228.655 622.539C228.655 623.131 229.039 623.427 230.039 623.715C230.599 623.875 231.079 624.019 231.079 624.467C231.079 624.859 230.711 625.115 230.167 625.115C229.711 625.115 229.239 624.939 228.767 624.595L228.455 625.035C228.951 625.435 229.591 625.651 230.167 625.651ZM234.452 625.115C233.636 625.115 233.068 624.523 232.98 623.715H236.364C236.364 622.267 235.652 621.323 234.404 621.323C233.292 621.323 232.364 622.243 232.364 623.475C232.364 624.747 233.356 625.651 234.46 625.651C235.036 625.651 235.764 625.403 236.124 625.011L235.756 624.619C235.5 624.899 234.94 625.115 234.452 625.115ZM234.428 621.859C235.252 621.859 235.692 622.435 235.772 623.179H232.988C233.1 622.379 233.692 621.859 234.428 621.859ZM237.972 622.227V621.419H237.372V625.555H237.972V623.243C237.972 622.435 238.636 621.859 239.572 621.859V621.323C238.812 621.323 238.22 621.675 237.972 622.227Z" fill="black"/>
<circle cx="168.102" cy="623.277" r="4.27743" fill="#F1B5DB"/>
<path d="M11.5427 31.404V24.756H9.76666V33H15.6467V31.404H11.5427ZM23.4272 26.352V24.756H17.0792V33H23.4272V31.404H18.8552V29.592H23.0072V27.996H18.8552V26.352H23.4272ZM28.1897 33.144C30.1937 33.144 31.3937 32.1 31.3937 30.528C31.3937 29.004 30.2177 28.476 28.4417 28.08C27.1697 27.792 26.6657 27.6 26.6657 27C26.6657 26.508 27.1337 26.112 27.8777 26.112C28.6697 26.112 29.4977 26.436 30.2417 27.036L31.1657 25.752C30.3137 25.032 29.2817 24.612 27.9377 24.612C26.1257 24.612 24.8777 25.656 24.8777 27.18C24.8777 28.776 26.1257 29.268 27.8657 29.664C29.1257 29.952 29.6057 30.132 29.6057 30.72C29.6057 31.236 29.1497 31.644 28.2497 31.644C27.2057 31.644 26.3177 31.236 25.5377 30.564L24.5297 31.776C25.4897 32.664 26.7497 33.144 28.1897 33.144ZM36.0178 33.144C38.0218 33.144 39.2218 32.1 39.2218 30.528C39.2218 29.004 38.0458 28.476 36.2698 28.08C34.9978 27.792 34.4938 27.6 34.4938 27C34.4938 26.508 34.9618 26.112 35.7058 26.112C36.4978 26.112 37.3258 26.436 38.0698 27.036L38.9938 25.752C38.1418 25.032 37.1098 24.612 35.7658 24.612C33.9538 24.612 32.7058 25.656 32.7058 27.18C32.7058 28.776 33.9538 29.268 35.6938 29.664C36.9538 29.952 37.4338 30.132 37.4338 30.72C37.4338 31.236 36.9778 31.644 36.0778 31.644C35.0338 31.644 34.1458 31.236 33.3658 30.564L32.3578 31.776C33.3178 32.664 34.5778 33.144 36.0178 33.144ZM45.9754 33H47.7394V26.352H50.3194V24.756H43.4074V26.352H45.9754V33ZM57.2635 24.756V27.996H53.5075V24.756H51.7315V33H53.5075V29.592H57.2635V33H59.0275V24.756H57.2635ZM67.0939 33H69.0859L65.7259 24.756H63.7459L60.3859 33H62.3659L62.9419 31.584H66.5179L67.0939 33ZM63.5059 30.204L64.7299 27.192L65.9539 30.204H63.5059ZM70.4346 33H72.2106V27.672L76.1826 33H77.9586V24.756H76.1826V30.084L72.2106 24.756H70.4346V33ZM26.4529 49H32.6809V47.404H29.1889L30.6889 46.24C32.1289 45.196 32.6089 44.344 32.6089 43.24C32.6089 41.692 31.3369 40.612 29.5849 40.612C28.2529 40.612 27.2089 41.188 26.3929 42.22L27.5209 43.312C28.1209 42.628 28.7329 42.22 29.5369 42.22C30.2089 42.22 30.7849 42.628 30.7849 43.312C30.7849 43.888 30.4729 44.428 29.4889 45.208L26.4529 47.56V49ZM40.0704 49H41.8584V46.024L45.0744 40.756H43.0944L40.9584 44.368L38.9064 40.756H36.8424L40.0704 46.024V49ZM52.7475 42.352V40.756H46.3995V49H52.7475V47.404H48.1755V45.592H52.3275V43.996H48.1755V42.352H52.7475ZM60.426 49H62.418L59.058 40.756H57.078L53.718 49H55.698L56.274 47.584H59.85L60.426 49ZM56.838 46.204L58.062 43.192L59.286 46.204H56.838ZM70.5827 43.54C70.5827 41.908 69.2747 40.756 67.4747 40.756H63.7667V49H65.5427V46.324H66.6107L68.4947 49H70.5107L68.5307 46.18C69.7667 45.82 70.5827 44.836 70.5827 43.54ZM65.5427 42.376H67.2947C68.1707 42.376 68.7707 42.832 68.7707 43.54C68.7707 44.248 68.1707 44.704 67.2947 44.704H65.5427V42.376ZM75.2639 49.144C77.2679 49.144 78.4679 48.1 78.4679 46.528C78.4679 45.004 77.2919 44.476 75.5159 44.08C74.2439 43.792 73.7399 43.6 73.7399 43C73.7399 42.508 74.2079 42.112 74.9519 42.112C75.7439 42.112 76.5719 42.436 77.3159 43.036L78.2399 41.752C77.3879 41.032 76.3559 40.612 75.0119 40.612C73.1999 40.612 71.9519 41.656 71.9519 43.18C71.9519 44.776 73.1999 45.268 74.9399 45.664C76.1999 45.952 76.6799 46.132 76.6799 46.72C76.6799 47.236 76.2239 47.644 75.3239 47.644C74.2799 47.644 73.3919 47.236 72.6119 46.564L71.6039 47.776C72.5639 48.664 73.8239 49.144 75.2639 49.144Z" fill="#0F0B47"/>
<ellipse cx="152" cy="41.5" rx="27.5" ry="27" transform="rotate(90 152 41.5)" fill="#F1B5DB"/>
<ellipse cx="151.5" cy="8.5" rx="8.5" ry="8.5" transform="rotate(90 151.5 8.5)" fill="#5B2CFD" style="mix-blend-mode:multiply"/>
<path d="M252.46 11.12C251.16 11.12 249.9 11.62 249.06 12.44C249.32 10.12 250.52 8.62 252.32 8.62C253.48 8.62 254.28 9.04 255.12 9.74L256.52 7.5C255.4 6.6 254.02 6.02 252.32 6.02C248.5 6.02 246 9.08 246 13.36C246 17.36 247.84 20.24 251.84 20.24C254.84 20.24 257.1 18.3 257.1 15.48C257.1 12.76 255 11.12 252.46 11.12ZM251.68 17.74C250.14 17.74 249.4 16.8 249.14 15.12C249.56 14.14 250.48 13.52 251.6 13.52C252.94 13.52 254.06 14.3 254.06 15.62C254.06 16.72 253.14 17.74 251.68 17.74ZM262.45 13.16C264.47 13.16 265.89 11.62 265.89 9.64C265.89 7.7 264.53 6.12 262.45 6.12C260.39 6.12 259.03 7.68 259.03 9.66C259.03 11.62 260.39 13.16 262.45 13.16ZM260.83 20H263.13L272.69 6.26H270.37L260.83 20ZM262.45 11.44C261.63 11.44 260.99 10.72 260.99 9.64C260.99 8.56 261.59 7.86 262.45 7.86C263.29 7.86 263.91 8.58 263.91 9.64C263.91 10.74 263.29 11.44 262.45 11.44ZM271.03 20.22C273.05 20.22 274.45 18.68 274.45 16.7C274.45 14.76 273.11 13.18 271.03 13.18C268.99 13.18 267.59 14.74 267.59 16.7C267.59 18.66 268.99 20.22 271.03 20.22ZM271.03 18.48C270.19 18.48 269.57 17.76 269.57 16.7C269.57 15.6 270.17 14.9 271.03 14.9C271.85 14.9 272.49 15.62 272.49 16.7C272.49 17.78 271.89 18.48 271.03 18.48Z" fill="#0F0B47"/>
<path d="M245.82 62H256.2V59.34H250.38L252.88 57.4C255.28 55.66 256.08 54.24 256.08 52.4C256.08 49.82 253.96 48.02 251.04 48.02C248.82 48.02 247.08 48.98 245.72 50.7L247.6 52.52C248.6 51.38 249.62 50.7 250.96 50.7C252.08 50.7 253.04 51.38 253.04 52.52C253.04 53.48 252.52 54.38 250.88 55.68L245.82 59.6V62ZM264.367 62.24C267.987 62.24 270.527 59.3 270.527 55.12C270.527 50.96 267.987 48.02 264.367 48.02C260.747 48.02 258.187 50.96 258.187 55.12C258.187 59.3 260.747 62.24 264.367 62.24ZM264.367 59.56C262.527 59.56 261.227 57.7 261.227 55.12C261.227 52.54 262.527 50.7 264.367 50.7C266.207 50.7 267.507 52.54 267.507 55.12C267.507 57.7 266.207 59.56 264.367 59.56ZM276.004 55.16C278.024 55.16 279.444 53.62 279.444 51.64C279.444 49.7 278.084 48.12 276.004 48.12C273.944 48.12 272.584 49.68 272.584 51.66C272.584 53.62 273.944 55.16 276.004 55.16ZM274.384 62H276.684L286.244 48.26H283.924L274.384 62ZM276.004 53.44C275.184 53.44 274.544 52.72 274.544 51.64C274.544 50.56 275.144 49.86 276.004 49.86C276.844 49.86 277.464 50.58 277.464 51.64C277.464 52.74 276.844 53.44 276.004 53.44ZM284.584 62.22C286.604 62.22 288.004 60.68 288.004 58.7C288.004 56.76 286.664 55.18 284.584 55.18C282.544 55.18 281.144 56.74 281.144 58.7C281.144 60.66 282.544 62.22 284.584 62.22ZM284.584 60.48C283.744 60.48 283.124 59.76 283.124 58.7C283.124 57.6 283.724 56.9 284.584 56.9C285.404 56.9 286.044 57.62 286.044 58.7C286.044 59.78 285.444 60.48 284.584 60.48Z" fill="#0F0B47"/>
<path d="M59.7225 161H65.9505V159.404H62.4585L63.9585 158.24C65.3985 157.196 65.8785 156.344 65.8785 155.24C65.8785 153.692 64.6065 152.612 62.8545 152.612C61.5225 152.612 60.4785 153.188 59.6625 154.22L60.7905 155.312C61.3905 154.628 62.0025 154.22 62.8065 154.22C63.4785 154.22 64.0545 154.628 64.0545 155.312C64.0545 155.888 63.7425 156.428 62.7585 157.208L59.7225 159.56V161ZM67.4064 158.444H70.6944V156.956H67.4064V158.444ZM75.1952 161.156C77.1632 161.156 78.4712 160.04 78.4712 158.288C78.4712 156.608 77.2112 155.672 75.7472 155.672C75.0752 155.672 74.5472 155.888 74.1392 156.176L74.1872 154.352H78.0272V152.756H72.5552L72.4352 157.208L73.6232 157.688C74.0672 157.352 74.5952 157.148 75.2192 157.148C76.1192 157.148 76.7072 157.628 76.7072 158.348C76.7072 159.056 76.1432 159.608 75.2072 159.608C74.4152 159.608 73.6712 159.224 73.0472 158.636L72.0032 159.884C72.7712 160.652 73.8152 161.156 75.1952 161.156ZM40.0704 177H41.8584V174.024L45.0744 168.756H43.0944L40.9584 172.368L38.9064 168.756H36.8424L40.0704 174.024V177ZM52.7475 170.352V168.756H46.3995V177H52.7475V175.404H48.1755V173.592H52.3275V171.996H48.1755V170.352H52.7475ZM60.426 177H62.418L59.058 168.756H57.078L53.718 177H55.698L56.274 175.584H59.85L60.426 177ZM56.838 174.204L58.062 171.192L59.286 174.204H56.838ZM70.5827 171.54C70.5827 169.908 69.2747 168.756 67.4747 168.756H63.7667V177H65.5427V174.324H66.6107L68.4947 177H70.5107L68.5307 174.18C69.7667 173.82 70.5827 172.836 70.5827 171.54ZM65.5427 170.376H67.2947C68.1707 170.376 68.7707 170.832 68.7707 171.54C68.7707 172.248 68.1707 172.704 67.2947 172.704H65.5427V170.376ZM75.2639 177.144C77.2679 177.144 78.4679 176.1 78.4679 174.528C78.4679 173.004 77.2919 172.476 75.5159 172.08C74.2439 171.792 73.7399 171.6 73.7399 171C73.7399 170.508 74.2079 170.112 74.9519 170.112C75.7439 170.112 76.5719 170.436 77.3159 171.036L78.2399 169.752C77.3879 169.032 76.3559 168.612 75.0119 168.612C73.1999 168.612 71.9519 169.656 71.9519 171.18C71.9519 172.776 73.1999 173.268 74.9399 173.664C76.1999 173.952 76.6799 174.132 76.6799 174.72C76.6799 175.236 76.2239 175.644 75.3239 175.644C74.2799 175.644 73.3919 175.236 72.6119 174.564L71.6039 175.776C72.5639 176.664 73.8239 177.144 75.2639 177.144Z" fill="#0F0B47"/>
<ellipse cx="150.5" cy="210.5" rx="54.5" ry="54.5" transform="rotate(90 150.5 210.5)" fill="#F1B5DB"/>
<circle cx="151" cy="130" r="42" transform="rotate(90 151 130)" fill="#5B2CFD" style="mix-blend-mode:multiply"/>
<path d="M251.06 138.26C254.28 138.26 256.36 136.54 256.36 134.16C256.36 132.34 254.98 131.28 253.48 130.94C255 130.5 256.06 129.36 256.06 127.78C256.06 125.6 254.12 124.02 251.04 124.02C248.6 124.02 246.96 125.08 245.82 126.46L247.52 128.26C248.44 127.3 249.46 126.66 250.74 126.66C252.1 126.66 253.06 127.3 253.06 128.3C253.06 129.28 252.16 129.84 250.66 129.84L249.08 129.82V132.34H250.66C252.5 132.32 253.34 132.86 253.34 133.92C253.34 134.9 252.44 135.6 250.94 135.6C249.56 135.6 248.26 135.02 247.28 133.98L245.54 135.94C246.7 137.28 248.6 138.26 251.06 138.26ZM261.324 138H264.264V124.26H261.904L257.784 127.02L258.984 129.1L261.324 127.64V138ZM270.458 131.16C272.478 131.16 273.898 129.62 273.898 127.64C273.898 125.7 272.538 124.12 270.458 124.12C268.398 124.12 267.038 125.68 267.038 127.66C267.038 129.62 268.398 131.16 270.458 131.16ZM268.838 138H271.138L280.698 124.26H278.378L268.838 138ZM270.458 129.44C269.638 129.44 268.998 128.72 268.998 127.64C268.998 126.56 269.598 125.86 270.458 125.86C271.298 125.86 271.918 126.58 271.918 127.64C271.918 128.74 271.298 129.44 270.458 129.44ZM279.038 138.22C281.058 138.22 282.458 136.68 282.458 134.7C282.458 132.76 281.118 131.18 279.038 131.18C276.998 131.18 275.598 132.74 275.598 134.7C275.598 136.66 276.998 138.22 279.038 138.22ZM279.038 136.48C278.198 136.48 277.578 135.76 277.578 134.7C277.578 133.6 278.178 132.9 279.038 132.9C279.858 132.9 280.498 133.62 280.498 134.7C280.498 135.78 279.898 136.48 279.038 136.48Z" fill="#0F0B47"/>
<path d="M252.58 219H255.52V216.2H257.34V213.72H255.52V205.28H251.96L245.58 213.92L245.86 216.2H252.58V219ZM248.68 213.72L252.58 208.4V213.72H248.68ZM265.128 219.24C268.748 219.24 271.288 216.3 271.288 212.12C271.288 207.96 268.748 205.02 265.128 205.02C261.508 205.02 258.948 207.96 258.948 212.12C258.948 216.3 261.508 219.24 265.128 219.24ZM265.128 216.56C263.288 216.56 261.988 214.7 261.988 212.12C261.988 209.54 263.288 207.7 265.128 207.7C266.968 207.7 268.268 209.54 268.268 212.12C268.268 214.7 266.968 216.56 265.128 216.56ZM276.766 212.16C278.786 212.16 280.206 210.62 280.206 208.64C280.206 206.7 278.846 205.12 276.766 205.12C274.706 205.12 273.346 206.68 273.346 208.66C273.346 210.62 274.706 212.16 276.766 212.16ZM275.146 219H277.446L287.006 205.26H284.686L275.146 219ZM276.766 210.44C275.946 210.44 275.306 209.72 275.306 208.64C275.306 207.56 275.906 206.86 276.766 206.86C277.606 206.86 278.226 207.58 278.226 208.64C278.226 209.74 277.606 210.44 276.766 210.44ZM285.346 219.22C287.366 219.22 288.766 217.68 288.766 215.7C288.766 213.76 287.426 212.18 285.346 212.18C283.306 212.18 281.906 213.74 281.906 215.7C281.906 217.66 283.306 219.22 285.346 219.22ZM285.346 217.48C284.506 217.48 283.886 216.76 283.886 215.7C283.886 214.6 284.486 213.9 285.346 213.9C286.166 213.9 286.806 214.62 286.806 215.7C286.806 216.78 286.206 217.48 285.346 217.48Z" fill="#0F0B47"/>
<ellipse cx="151" cy="400.5" rx="35.5" ry="35" transform="rotate(90 151 400.5)" fill="#F1B5DB"/>
<ellipse cx="151" cy="337.5" rx="57.5" ry="57" transform="rotate(90 151 337.5)" fill="#5B2CFD" style="mix-blend-mode:multiply"/>
<path d="M252.58 339H255.52V336.2H257.34V333.72H255.52V325.28H251.96L245.58 333.92L245.86 336.2H252.58V339ZM248.68 333.72L252.58 328.4V333.72H248.68ZM258.808 339H269.188V336.34H263.368L265.868 334.4C268.268 332.66 269.068 331.24 269.068 329.4C269.068 326.82 266.948 325.02 264.028 325.02C261.808 325.02 260.068 325.98 258.708 327.7L260.588 329.52C261.588 328.38 262.608 327.7 263.948 327.7C265.068 327.7 266.028 328.38 266.028 329.52C266.028 330.48 265.508 331.38 263.868 332.68L258.808 336.6V339ZM274.735 332.16C276.755 332.16 278.175 330.62 278.175 328.64C278.175 326.7 276.815 325.12 274.735 325.12C272.675 325.12 271.315 326.68 271.315 328.66C271.315 330.62 272.675 332.16 274.735 332.16ZM273.115 339H275.415L284.975 325.26H282.655L273.115 339ZM274.735 330.44C273.915 330.44 273.275 329.72 273.275 328.64C273.275 327.56 273.875 326.86 274.735 326.86C275.575 326.86 276.195 327.58 276.195 328.64C276.195 329.74 275.575 330.44 274.735 330.44ZM283.315 339.22C285.335 339.22 286.735 337.68 286.735 335.7C286.735 333.76 285.395 332.18 283.315 332.18C281.275 332.18 279.875 333.74 279.875 335.7C279.875 337.66 281.275 339.22 283.315 339.22ZM283.315 337.48C282.475 337.48 281.855 336.76 281.855 335.7C281.855 334.6 282.455 333.9 283.315 333.9C284.135 333.9 284.775 334.62 284.775 335.7C284.775 336.78 284.175 337.48 283.315 337.48Z" fill="#0F0B47"/>
<path d="M245.82 409H256.2V406.34H250.38L252.88 404.4C255.28 402.66 256.08 401.24 256.08 399.4C256.08 396.82 253.96 395.02 251.04 395.02C248.82 395.02 247.08 395.98 245.72 397.7L247.6 399.52C248.6 398.38 249.62 397.7 250.96 397.7C252.08 397.7 253.04 398.38 253.04 399.52C253.04 400.48 252.52 401.38 250.88 402.68L245.82 406.6V409ZM264.687 400.12C263.387 400.12 262.127 400.62 261.287 401.44C261.547 399.12 262.747 397.62 264.547 397.62C265.707 397.62 266.507 398.04 267.347 398.74L268.747 396.5C267.627 395.6 266.247 395.02 264.547 395.02C260.727 395.02 258.227 398.08 258.227 402.36C258.227 406.36 260.067 409.24 264.067 409.24C267.067 409.24 269.327 407.3 269.327 404.48C269.327 401.76 267.227 400.12 264.687 400.12ZM263.907 406.74C262.367 406.74 261.627 405.8 261.367 404.12C261.787 403.14 262.707 402.52 263.827 402.52C265.167 402.52 266.287 403.3 266.287 404.62C266.287 405.72 265.367 406.74 263.907 406.74ZM274.676 402.16C276.696 402.16 278.116 400.62 278.116 398.64C278.116 396.7 276.756 395.12 274.676 395.12C272.616 395.12 271.256 396.68 271.256 398.66C271.256 400.62 272.616 402.16 274.676 402.16ZM273.056 409H275.356L284.916 395.26H282.596L273.056 409ZM274.676 400.44C273.856 400.44 273.216 399.72 273.216 398.64C273.216 397.56 273.816 396.86 274.676 396.86C275.516 396.86 276.136 397.58 276.136 398.64C276.136 399.74 275.516 400.44 274.676 400.44ZM283.256 409.22C285.276 409.22 286.676 407.68 286.676 405.7C286.676 403.76 285.336 402.18 283.256 402.18C281.216 402.18 279.816 403.74 279.816 405.7C279.816 407.66 281.216 409.22 283.256 409.22ZM283.256 407.48C282.416 407.48 281.796 406.76 281.796 405.7C281.796 404.6 282.396 403.9 283.256 403.9C284.076 403.9 284.716 404.62 284.716 405.7C284.716 406.78 284.116 407.48 283.256 407.48Z" fill="#0F0B47"/>
<path d="M57.0385 345.672C56.2585 345.672 55.5025 345.972 54.9985 346.464C55.1545 345.072 55.8745 344.172 56.9545 344.172C57.6505 344.172 58.1305 344.424 58.6345 344.844L59.4745 343.5C58.8025 342.96 57.9745 342.612 56.9545 342.612C54.6625 342.612 53.1625 344.448 53.1625 347.016C53.1625 349.416 54.2665 351.144 56.6665 351.144C58.4665 351.144 59.8225 349.98 59.8225 348.288C59.8225 346.656 58.5625 345.672 57.0385 345.672ZM56.5705 349.644C55.6465 349.644 55.2025 349.08 55.0465 348.072C55.2985 347.484 55.8505 347.112 56.5225 347.112C57.3265 347.112 57.9985 347.58 57.9985 348.372C57.9985 349.032 57.4465 349.644 56.5705 349.644ZM61.1603 348.444H64.4483V346.956H61.1603V348.444ZM67.6771 351H69.4411V342.756H68.0251L65.5531 344.412L66.2731 345.66L67.6771 344.784V351ZM74.7293 351.144C76.9013 351.144 78.4253 349.38 78.4253 346.872C78.4253 344.376 76.9013 342.612 74.7293 342.612C72.5573 342.612 71.0213 344.376 71.0213 346.872C71.0213 349.38 72.5573 351.144 74.7293 351.144ZM74.7293 349.536C73.6253 349.536 72.8453 348.42 72.8453 346.872C72.8453 345.324 73.6253 344.22 74.7293 344.22C75.8333 344.22 76.6133 345.324 76.6133 346.872C76.6133 348.42 75.8333 349.536 74.7293 349.536ZM40.0704 367H41.8584V364.024L45.0744 358.756H43.0944L40.9584 362.368L38.9064 358.756H36.8424L40.0704 364.024V367ZM52.7475 360.352V358.756H46.3995V367H52.7475V365.404H48.1755V363.592H52.3275V361.996H48.1755V360.352H52.7475ZM60.426 367H62.418L59.058 358.756H57.078L53.718 367H55.698L56.274 365.584H59.85L60.426 367ZM56.838 364.204L58.062 361.192L59.286 364.204H56.838ZM70.5827 361.54C70.5827 359.908 69.2747 358.756 67.4747 358.756H63.7667V367H65.5427V364.324H66.6107L68.4947 367H70.5107L68.5307 364.18C69.7667 363.82 70.5827 362.836 70.5827 361.54ZM65.5427 360.376H67.2947C68.1707 360.376 68.7707 360.832 68.7707 361.54C68.7707 362.248 68.1707 362.704 67.2947 362.704H65.5427V360.376ZM75.2639 367.144C77.2679 367.144 78.4679 366.1 78.4679 364.528C78.4679 363.004 77.2919 362.476 75.5159 362.08C74.2439 361.792 73.7399 361.6 73.7399 361C73.7399 360.508 74.2079 360.112 74.9519 360.112C75.7439 360.112 76.5719 360.436 77.3159 361.036L78.2399 359.752C77.3879 359.032 76.3559 358.612 75.0119 358.612C73.1999 358.612 71.9519 359.656 71.9519 361.18C71.9519 362.776 73.1999 363.268 74.9399 363.664C76.1999 363.952 76.6799 364.132 76.6799 364.72C76.6799 365.236 76.2239 365.644 75.3239 365.644C74.2799 365.644 73.3919 365.236 72.6119 364.564L71.6039 365.776C72.5639 366.664 73.8239 367.144 75.2639 367.144Z" fill="#0F0B47"/>
<path d="M3.73162 499H5.50762V493.864L8.05162 498.52L10.6076 493.864V499H12.3716V490.756H10.6076L8.05162 495.412L5.50762 490.756H3.73162V499ZM18.366 499.144C20.742 499.144 22.734 497.188 22.734 494.872C22.734 492.556 20.742 490.612 18.366 490.612C15.99 490.612 13.974 492.556 13.974 494.872C13.974 497.188 15.99 499.144 18.366 499.144ZM18.366 497.536C16.974 497.536 15.798 496.312 15.798 494.872C15.798 493.444 16.974 492.22 18.366 492.22C19.746 492.22 20.922 493.444 20.922 494.872C20.922 496.312 19.746 497.536 18.366 497.536ZM31.1609 493.54C31.1609 491.908 29.8529 490.756 28.0529 490.756H24.3449V499H26.1209V496.324H27.1889L29.0729 499H31.0889L29.1089 496.18C30.3449 495.82 31.1609 494.836 31.1609 493.54ZM26.1209 492.376H27.8729C28.7489 492.376 29.3489 492.832 29.3489 493.54C29.3489 494.248 28.7489 494.704 27.8729 494.704H26.1209V492.376ZM39.1421 492.352V490.756H32.7941V499H39.1421V497.404H34.5701V495.592H38.7221V493.996H34.5701V492.352H39.1421ZM46.0342 499H47.7982V492.352H50.3782V490.756H43.4662V492.352H46.0342V499ZM57.3222 490.756V493.996H53.5662V490.756H51.7902V499H53.5662V495.592H57.3222V499H59.0862V490.756H57.3222ZM67.1527 499H69.1447L65.7847 490.756H63.8047L60.4447 499H62.4247L63.0007 497.584H66.5767L67.1527 499ZM63.5647 496.204L64.7887 493.192L66.0127 496.204H63.5647ZM70.4933 499H72.2693V493.672L76.2413 499H78.0173V490.756H76.2413V496.084L72.2693 490.756H70.4933V499ZM22.0327 515H23.7967V506.756H22.3807L19.9087 508.412L20.6287 509.66L22.0327 508.784V515ZM29.0849 515.144C31.2569 515.144 32.7809 513.38 32.7809 510.872C32.7809 508.376 31.2569 506.612 29.0849 506.612C26.9129 506.612 25.3769 508.376 25.3769 510.872C25.3769 513.38 26.9129 515.144 29.0849 515.144ZM29.0849 513.536C27.9809 513.536 27.2009 512.42 27.2009 510.872C27.2009 509.324 27.9809 508.22 29.0849 508.22C30.1889 508.22 30.9689 509.324 30.9689 510.872C30.9689 512.42 30.1889 513.536 29.0849 513.536ZM40.1291 515H41.9171V512.024L45.1331 506.756H43.1531L41.0171 510.368L38.9651 506.756H36.9011L40.1291 512.024V515ZM52.8062 508.352V506.756H46.4582V515H52.8062V513.404H48.2342V511.592H52.3862V509.996H48.2342V508.352H52.8062ZM60.4847 515H62.4767L59.1167 506.756H57.1367L53.7767 515H55.7567L56.3327 513.584H59.9087L60.4847 515ZM56.8967 512.204L58.1207 509.192L59.3447 512.204H56.8967ZM70.6414 509.54C70.6414 507.908 69.3334 506.756 67.5334 506.756H63.8254V515H65.6014V512.324H66.6694L68.5534 515H70.5694L68.5894 512.18C69.8254 511.82 70.6414 510.836 70.6414 509.54ZM65.6014 508.376H67.3534C68.2294 508.376 68.8294 508.832 68.8294 509.54C68.8294 510.248 68.2294 510.704 67.3534 510.704H65.6014V508.376ZM75.3226 515.144C77.3266 515.144 78.5266 514.1 78.5266 512.528C78.5266 511.004 77.3506 510.476 75.5746 510.08C74.3026 509.792 73.7986 509.6 73.7986 509C73.7986 508.508 74.2666 508.112 75.0106 508.112C75.8026 508.112 76.6306 508.436 77.3746 509.036L78.2986 507.752C77.4466 507.032 76.4146 506.612 75.0706 506.612C73.2586 506.612 72.0106 507.656 72.0106 509.18C72.0106 510.776 73.2586 511.268 74.9986 511.664C76.2586 511.952 76.7386 512.132 76.7386 512.72C76.7386 513.236 76.2826 513.644 75.3826 513.644C74.3386 513.644 73.4506 513.236 72.6706 512.564L71.6626 513.776C72.6226 514.664 73.8826 515.144 75.3226 515.144Z" fill="#0F0B47"/>
<ellipse cx="151" cy="539.5" rx="20.5" ry="20" transform="rotate(90 151 539.5)" fill="#F1B5DB"/>
<ellipse cx="150.5" cy="497" rx="30" ry="30.5" transform="rotate(90 150.5 497)" fill="#5B2CFD" style="mix-blend-mode:multiply"/>
<path d="M245.82 501H256.2V498.34H250.38L252.88 496.4C255.28 494.66 256.08 493.24 256.08 491.4C256.08 488.82 253.96 487.02 251.04 487.02C248.82 487.02 247.08 487.98 245.72 489.7L247.6 491.52C248.6 490.38 249.62 489.7 250.96 489.7C252.08 489.7 253.04 490.38 253.04 491.52C253.04 492.48 252.52 493.38 250.88 494.68L245.82 498.6V501ZM258.047 501H268.427V498.34H262.607L265.107 496.4C267.507 494.66 268.307 493.24 268.307 491.4C268.307 488.82 266.187 487.02 263.267 487.02C261.047 487.02 259.307 487.98 257.947 489.7L259.827 491.52C260.827 490.38 261.847 489.7 263.187 489.7C264.307 489.7 265.267 490.38 265.267 491.52C265.267 492.48 264.747 493.38 263.107 494.68L258.047 498.6V501ZM273.973 494.16C275.993 494.16 277.413 492.62 277.413 490.64C277.413 488.7 276.053 487.12 273.973 487.12C271.913 487.12 270.553 488.68 270.553 490.66C270.553 492.62 271.913 494.16 273.973 494.16ZM272.353 501H274.653L284.213 487.26H281.893L272.353 501ZM273.973 492.44C273.153 492.44 272.513 491.72 272.513 490.64C272.513 489.56 273.113 488.86 273.973 488.86C274.813 488.86 275.433 489.58 275.433 490.64C275.433 491.74 274.813 492.44 273.973 492.44ZM282.553 501.22C284.573 501.22 285.973 499.68 285.973 497.7C285.973 495.76 284.633 494.18 282.553 494.18C280.513 494.18 279.113 495.74 279.113 497.7C279.113 499.66 280.513 501.22 282.553 501.22ZM282.553 499.48C281.713 499.48 281.093 498.76 281.093 497.7C281.093 496.6 281.693 495.9 282.553 495.9C283.373 495.9 284.013 496.62 284.013 497.7C284.013 498.78 283.413 499.48 282.553 499.48Z" fill="#0F0B47"/>
<path d="M248.98 547H251.92V533.26H249.56L245.44 536.02L246.64 538.1L248.98 536.64V547ZM259.694 547.26C262.974 547.26 265.154 545.4 265.154 542.48C265.154 539.68 263.054 538.12 260.614 538.12C259.494 538.12 258.614 538.48 257.934 538.96L258.014 535.92H264.414V533.26H255.294L255.094 540.68L257.074 541.48C257.814 540.92 258.694 540.58 259.734 540.58C261.234 540.58 262.214 541.38 262.214 542.58C262.214 543.76 261.274 544.68 259.714 544.68C258.394 544.68 257.154 544.04 256.114 543.06L254.374 545.14C255.654 546.42 257.394 547.26 259.694 547.26ZM270.555 540.16C272.575 540.16 273.995 538.62 273.995 536.64C273.995 534.7 272.635 533.12 270.555 533.12C268.495 533.12 267.135 534.68 267.135 536.66C267.135 538.62 268.495 540.16 270.555 540.16ZM268.935 547H271.235L280.795 533.26H278.475L268.935 547ZM270.555 538.44C269.735 538.44 269.095 537.72 269.095 536.64C269.095 535.56 269.695 534.86 270.555 534.86C271.395 534.86 272.015 535.58 272.015 536.64C272.015 537.74 271.395 538.44 270.555 538.44ZM279.135 547.22C281.155 547.22 282.555 545.68 282.555 543.7C282.555 541.76 281.215 540.18 279.135 540.18C277.095 540.18 275.695 541.74 275.695 543.7C275.695 545.66 277.095 547.22 279.135 547.22ZM279.135 545.48C278.295 545.48 277.675 544.76 277.675 543.7C277.675 542.6 278.275 541.9 279.135 541.9C279.955 541.9 280.595 542.62 280.595 543.7C280.595 544.78 279.995 545.48 279.135 545.48Z" fill="#0F0B47"/>
</svg>
