<svg width="24" height="24" viewBox="0 0 24 24" fill="none" xmlns="http://www.w3.org/2000/svg">
<path d="M23.7836 11.8934C23.7836 8.7392 22.5307 5.71416 20.3004 3.48373C18.07 1.2533 15.0451 0.000170581 11.8909 0C8.73691 0.000511722 5.71234 1.25381 3.48241 3.48423C1.25248 5.71464 -0.000170599 8.73949 1.74269e-08 11.8934C0.000225645 14.3698 0.773064 16.7845 2.21081 18.8008C3.64855 20.8171 5.67953 22.3345 8.02069 23.1417C8.18781 23.0559 8.33114 22.9302 8.43797 22.7757C8.54479 22.6212 8.61181 22.4427 8.63304 22.256C8.63304 21.6019 8.61887 19.9193 8.61887 19.9193C8.20406 19.9805 7.7852 20.0099 7.36591 20.0074C6.77293 20.0444 6.18435 19.8843 5.69188 19.5519C5.19941 19.2195 4.83074 18.7336 4.64326 18.1698C4.38469 17.5089 3.91503 16.952 3.30732 16.5856C2.99987 16.3875 2.92913 16.154 3.28482 16.0871C4.9282 15.7796 5.34821 17.9402 6.44551 18.2849C7.20445 18.5213 8.02532 18.4559 8.73723 18.1022C8.83807 17.4877 9.17681 16.9375 9.68016 16.5708C6.88931 16.3039 5.23434 15.3397 4.37631 13.7902L4.28433 13.6166L4.06888 13.1245L4.00454 12.9483C3.72931 12.0775 3.59895 11.1675 3.61863 10.2545C3.59213 9.62623 3.69486 8.99915 3.92045 8.41212C4.14603 7.8251 4.48967 7.29061 4.93012 6.84173C4.57028 5.71284 4.64388 4.49038 5.13658 3.41282C5.13658 3.41282 6.34452 3.16391 8.62852 4.78992C9.86604 4.26249 13.1663 4.21875 14.728 4.67285C15.6857 4.04252 17.4391 3.14911 18.146 3.39932C18.3389 3.70612 18.7499 4.59953 18.3962 6.56322C19.3952 7.62812 19.9319 9.04524 19.889 10.5048C19.8863 11.3288 19.7837 12.1495 19.5835 12.9489L19.4806 13.2982C19.4806 13.2982 19.4214 13.4628 19.3577 13.6198L19.2825 13.7934C18.4547 15.6021 16.756 16.2775 14.0083 16.5592C14.8978 17.1162 15.1525 17.8147 15.1525 19.7051C15.1525 21.5955 15.1274 21.8489 15.1332 22.2837C15.159 22.4638 15.2255 22.6357 15.3276 22.7864C15.4296 22.9371 15.5646 23.0625 15.7224 23.1533C18.073 22.3523 20.1141 20.836 21.5597 18.8168C23.0053 16.7976 23.7829 14.3767 23.7836 11.8934Z" fill="white"/>
</svg>
