<svg width="327" height="451" viewBox="0 0 327 451" fill="none" xmlns="http://www.w3.org/2000/svg">
<rect y="32" width="26" height="40" fill="#EBEBEB"/>
<path d="M7.22 64.12C8.73 64.12 9.98 63.41 9.98 62.16C9.98 61.37 9.44 60.77 8.63 60.45C9.32 60.15 9.81 59.65 9.81 58.88C9.81 57.7 8.59 57.01 7.22 57.01C5.88 57.01 4.64 57.67 4.64 58.88C4.64 59.66 5.13 60.16 5.81 60.45C5.02 60.75 4.46 61.35 4.46 62.16C4.46 63.4 5.7 64.12 7.22 64.12ZM7.22 59.94C6.68 59.9 6.11 59.6 6.11 59.07C6.11 58.6 6.56 58.25 7.22 58.25C7.88 58.25 8.34 58.6 8.34 59.07C8.34 59.58 7.76 59.9 7.22 59.94ZM7.22 62.88C6.49 62.88 5.96 62.52 5.96 62C5.96 61.46 6.63 61.12 7.22 61.1C7.81 61.12 8.49 61.46 8.49 62C8.49 62.52 7.95 62.88 7.22 62.88ZM12.7053 60.58C13.7153 60.58 14.4253 59.81 14.4253 58.82C14.4253 57.85 13.7453 57.06 12.7053 57.06C11.6753 57.06 10.9953 57.84 10.9953 58.83C10.9953 59.81 11.6753 60.58 12.7053 60.58ZM11.8953 64H13.0453L17.8253 57.13H16.6653L11.8953 64ZM12.7053 59.72C12.2953 59.72 11.9753 59.36 11.9753 58.82C11.9753 58.28 12.2753 57.93 12.7053 57.93C13.1253 57.93 13.4353 58.29 13.4353 58.82C13.4353 59.37 13.1253 59.72 12.7053 59.72ZM16.9953 64.11C18.0053 64.11 18.7053 63.34 18.7053 62.35C18.7053 61.38 18.0353 60.59 16.9953 60.59C15.9753 60.59 15.2753 61.37 15.2753 62.35C15.2753 63.33 15.9753 64.11 16.9953 64.11ZM16.9953 63.24C16.5753 63.24 16.2653 62.88 16.2653 62.35C16.2653 61.8 16.5653 61.45 16.9953 61.45C17.4053 61.45 17.7253 61.81 17.7253 62.35C17.7253 62.89 17.4253 63.24 16.9953 63.24Z" fill="#0F0B47"/>
<rect x="26" y="32" width="62" height="40" fill="#A585FF"/>
<path d="M34.388 64H36.152V55.756H34.736L32.264 57.412L32.984 58.66L34.388 57.784V64ZM40.8043 55.612C39.0043 55.612 37.6483 56.776 37.6483 58.468C37.6483 60.1 38.9083 61.084 40.4323 61.084C41.2123 61.084 41.9683 60.784 42.4723 60.292C42.3163 61.684 41.5963 62.584 40.5163 62.584C39.8203 62.584 39.3403 62.332 38.8363 61.912L37.9963 63.256C38.6683 63.796 39.4963 64.144 40.5163 64.144C42.8083 64.144 44.3083 62.308 44.3083 59.74C44.3083 57.34 43.2043 55.612 40.8043 55.612ZM40.9483 59.644C40.1443 59.644 39.4723 59.176 39.4723 58.384C39.4723 57.724 40.0243 57.112 40.9003 57.112C41.8243 57.112 42.2683 57.676 42.4243 58.684C42.1723 59.272 41.6203 59.644 40.9483 59.644ZM47.6261 59.896C48.8381 59.896 49.6901 58.972 49.6901 57.784C49.6901 56.62 48.8741 55.672 47.6261 55.672C46.3901 55.672 45.5741 56.608 45.5741 57.796C45.5741 58.972 46.3901 59.896 47.6261 59.896ZM46.6541 64H48.0341L53.7701 55.756H52.3781L46.6541 64ZM47.6261 58.864C47.1341 58.864 46.7501 58.432 46.7501 57.784C46.7501 57.136 47.1101 56.716 47.6261 56.716C48.1301 56.716 48.5021 57.148 48.5021 57.784C48.5021 58.444 48.1301 58.864 47.6261 58.864ZM52.7741 64.132C53.9861 64.132 54.8261 63.208 54.8261 62.02C54.8261 60.856 54.0221 59.908 52.7741 59.908C51.5501 59.908 50.7101 60.844 50.7101 62.02C50.7101 63.196 51.5501 64.132 52.7741 64.132ZM52.7741 63.088C52.2701 63.088 51.8981 62.656 51.8981 62.02C51.8981 61.36 52.2581 60.94 52.7741 60.94C53.2661 60.94 53.6501 61.372 53.6501 62.02C53.6501 62.668 53.2901 63.088 52.7741 63.088Z" fill="white"/>
<rect x="88" y="32" width="66" height="40" fill="#5C2CFF"/>
<path d="M94.492 64H100.72V62.404H97.228L98.728 61.24C100.168 60.196 100.648 59.344 100.648 58.24C100.648 56.692 99.376 55.612 97.624 55.612C96.292 55.612 95.248 56.188 94.432 57.22L95.56 58.312C96.16 57.628 96.772 57.22 97.576 57.22C98.248 57.22 98.824 57.628 98.824 58.312C98.824 58.888 98.512 59.428 97.528 60.208L94.492 62.56V64ZM105.62 64.144C107.792 64.144 109.316 62.38 109.316 59.872C109.316 57.376 107.792 55.612 105.62 55.612C103.448 55.612 101.912 57.376 101.912 59.872C101.912 62.38 103.448 64.144 105.62 64.144ZM105.62 62.536C104.516 62.536 103.736 61.42 103.736 59.872C103.736 58.324 104.516 57.22 105.62 57.22C106.724 57.22 107.504 58.324 107.504 59.872C107.504 61.42 106.724 62.536 105.62 62.536ZM112.603 59.896C113.815 59.896 114.667 58.972 114.667 57.784C114.667 56.62 113.851 55.672 112.603 55.672C111.367 55.672 110.551 56.608 110.551 57.796C110.551 58.972 111.367 59.896 112.603 59.896ZM111.631 64H113.011L118.747 55.756H117.355L111.631 64ZM112.603 58.864C112.111 58.864 111.727 58.432 111.727 57.784C111.727 57.136 112.087 56.716 112.603 56.716C113.107 56.716 113.479 57.148 113.479 57.784C113.479 58.444 113.107 58.864 112.603 58.864ZM117.751 64.132C118.963 64.132 119.803 63.208 119.803 62.02C119.803 60.856 118.999 59.908 117.751 59.908C116.527 59.908 115.687 60.844 115.687 62.02C115.687 63.196 116.527 64.132 117.751 64.132ZM117.751 63.088C117.247 63.088 116.875 62.656 116.875 62.02C116.875 61.36 117.235 60.94 117.751 60.94C118.243 60.94 118.627 61.372 118.627 62.02C118.627 62.668 118.267 63.088 117.751 63.088Z" fill="white"/>
<rect x="154" y="32" width="173" height="40" fill="#1B0085"/>
<path d="M164.939 64.156C166.907 64.156 168.215 63.04 168.215 61.288C168.215 59.608 166.955 58.672 165.491 58.672C164.819 58.672 164.291 58.888 163.883 59.176L163.931 57.352H167.771V55.756H162.299L162.179 60.208L163.367 60.688C163.811 60.352 164.339 60.148 164.963 60.148C165.863 60.148 166.451 60.628 166.451 61.348C166.451 62.056 165.887 62.608 164.951 62.608C164.159 62.608 163.415 62.224 162.791 61.636L161.747 62.884C162.515 63.652 163.559 64.156 164.939 64.156ZM172.38 64.156C174.312 64.156 175.56 63.124 175.56 61.696C175.56 60.604 174.732 59.968 173.832 59.764C174.744 59.5 175.38 58.816 175.38 57.868C175.38 56.56 174.216 55.612 172.368 55.612C170.904 55.612 169.92 56.248 169.236 57.076L170.256 58.156C170.808 57.58 171.42 57.196 172.188 57.196C173.004 57.196 173.58 57.58 173.58 58.18C173.58 58.768 173.04 59.104 172.14 59.104L171.192 59.092V60.604H172.14C173.244 60.592 173.748 60.916 173.748 61.552C173.748 62.14 173.208 62.56 172.308 62.56C171.48 62.56 170.7 62.212 170.112 61.588L169.068 62.764C169.764 63.568 170.904 64.156 172.38 64.156ZM178.862 59.896C180.074 59.896 180.926 58.972 180.926 57.784C180.926 56.62 180.11 55.672 178.862 55.672C177.626 55.672 176.81 56.608 176.81 57.796C176.81 58.972 177.626 59.896 178.862 59.896ZM177.89 64H179.27L185.006 55.756H183.614L177.89 64ZM178.862 58.864C178.37 58.864 177.986 58.432 177.986 57.784C177.986 57.136 178.346 56.716 178.862 56.716C179.366 56.716 179.738 57.148 179.738 57.784C179.738 58.444 179.366 58.864 178.862 58.864ZM184.01 64.132C185.222 64.132 186.062 63.208 186.062 62.02C186.062 60.856 185.258 59.908 184.01 59.908C182.786 59.908 181.946 60.844 181.946 62.02C181.946 63.196 182.786 64.132 184.01 64.132ZM184.01 63.088C183.506 63.088 183.134 62.656 183.134 62.02C183.134 61.36 183.494 60.94 184.01 60.94C184.502 60.94 184.886 61.372 184.886 62.02C184.886 62.668 184.526 63.088 184.01 63.088Z" fill="white"/>
<path d="M5.48 2.13V4.83H2.35V2.13H0.87V9H2.35V6.16H5.48V9H6.95V2.13H5.48ZM10.752 9H12.242V6.52L14.922 2.13H13.272L11.492 5.14L9.78203 2.13H8.06203L10.752 6.52V9ZM16.0263 9H19.6463C20.9563 9 21.8963 8.24 21.8963 7.14C21.8963 6.38 21.4363 5.74 20.6363 5.38C21.2463 5.06 21.5963 4.55 21.5963 3.85C21.5963 2.85 20.7363 2.13 19.5063 2.13H16.0263V9ZM17.4963 4.9V3.39H19.1463C19.6963 3.39 20.0863 3.71 20.0863 4.14C20.0863 4.58 19.6963 4.9 19.1463 4.9H17.4963ZM17.4963 7.74V6.06H19.3663C19.9663 6.06 20.3863 6.41 20.3863 6.9C20.3863 7.39 19.9663 7.74 19.3663 7.74H17.4963ZM28.923 4.45C28.923 3.09 27.833 2.13 26.333 2.13H23.243V9H24.723V6.77H25.613L27.183 9H28.863L27.213 6.65C28.243 6.35 28.923 5.53 28.923 4.45ZM24.723 3.48H26.183C26.913 3.48 27.413 3.86 27.413 4.45C27.413 5.04 26.913 5.42 26.183 5.42H24.723V3.48ZM30.2841 9H31.7641V2.13H30.2841V9ZM33.5067 9H35.9767C38.2867 9 39.9267 7.57 39.9267 5.56C39.9267 3.55 38.2867 2.13 35.9767 2.13H33.5067V9ZM34.9867 7.66V3.47H36.1667C37.4767 3.47 38.4067 4.34 38.4067 5.56C38.4067 6.79 37.4767 7.66 36.1667 7.66H34.9867ZM47.2255 9.12C48.2655 9.12 49.2155 8.67 49.8855 7.97L48.8155 7.01C48.4255 7.47 47.8555 7.78 47.2255 7.78C46.0655 7.78 45.0855 6.76 45.0855 5.56C45.0855 4.37 46.0655 3.35 47.2255 3.35C47.8455 3.35 48.4255 3.66 48.8155 4.12L49.8855 3.16C49.2155 2.45 48.2655 2.01 47.2255 2.01C45.2455 2.01 43.5655 3.63 43.5655 5.56C43.5655 7.49 45.2455 9.12 47.2255 9.12ZM52.5551 7.67V2.13H51.0751V9H55.9751V7.67H52.5551ZM60.4188 9.12C62.3988 9.12 64.0588 7.49 64.0588 5.56C64.0588 3.63 62.3988 2.01 60.4188 2.01C58.4388 2.01 56.7588 3.63 56.7588 5.56C56.7588 7.49 58.4388 9.12 60.4188 9.12ZM60.4188 7.78C59.2588 7.78 58.2788 6.76 58.2788 5.56C58.2788 4.37 59.2588 3.35 60.4188 3.35C61.5688 3.35 62.5488 4.37 62.5488 5.56C62.5488 6.76 61.5688 7.78 60.4188 7.78ZM68.3613 9.12C70.1812 9.12 71.4713 7.84 71.4713 6.03V2.13H69.9913V5.97C69.9913 7.03 69.3113 7.78 68.3613 7.78C67.4013 7.78 66.7213 7.03 66.7213 5.97V2.13H65.2513V6.03C65.2513 7.84 66.5313 9.12 68.3613 9.12ZM73.0575 9H75.5275C77.8375 9 79.4775 7.57 79.4775 5.56C79.4775 3.55 77.8375 2.13 75.5275 2.13H73.0575V9ZM74.5375 7.66V3.47H75.7175C77.0275 3.47 77.9575 4.34 77.9575 5.56C77.9575 6.79 77.0275 7.66 75.7175 7.66H74.5375Z" fill="#0F0B47"/>
<rect y="133" width="39" height="40" fill="#EBEBEB"/>
<path d="M5.99 165H7.46V158.13H6.28L4.22 159.51L4.82 160.55L5.99 159.82V165ZM8.70688 165H13.8969V163.67H10.9869L12.2369 162.7C13.4369 161.83 13.8369 161.12 13.8369 160.2C13.8369 158.91 12.7769 158.01 11.3169 158.01C10.2069 158.01 9.33688 158.49 8.65688 159.35L9.59688 160.26C10.0969 159.69 10.6069 159.35 11.2769 159.35C11.8369 159.35 12.3169 159.69 12.3169 160.26C12.3169 160.74 12.0569 161.19 11.2369 161.84L8.70688 163.8V165ZM16.6702 161.58C17.6802 161.58 18.3902 160.81 18.3902 159.82C18.3902 158.85 17.7102 158.06 16.6702 158.06C15.6402 158.06 14.9602 158.84 14.9602 159.83C14.9602 160.81 15.6402 161.58 16.6702 161.58ZM15.8602 165H17.0102L21.7902 158.13H20.6302L15.8602 165ZM16.6702 160.72C16.2602 160.72 15.9402 160.36 15.9402 159.82C15.9402 159.28 16.2402 158.93 16.6702 158.93C17.0902 158.93 17.4002 159.29 17.4002 159.82C17.4002 160.37 17.0902 160.72 16.6702 160.72ZM20.9602 165.11C21.9702 165.11 22.6702 164.34 22.6702 163.35C22.6702 162.38 22.0002 161.59 20.9602 161.59C19.9402 161.59 19.2402 162.37 19.2402 163.35C19.2402 164.33 19.9402 165.11 20.9602 165.11ZM20.9602 164.24C20.5402 164.24 20.2302 163.88 20.2302 163.35C20.2302 162.8 20.5302 162.45 20.9602 162.45C21.3702 162.45 21.6902 162.81 21.6902 163.35C21.6902 163.89 21.3902 164.24 20.9602 164.24Z" fill="#0F0B47"/>
<rect x="39" y="133" width="102" height="40" fill="#A585FF"/>
<path d="M48.636 165.156C50.568 165.156 51.816 164.124 51.816 162.696C51.816 161.604 50.988 160.968 50.088 160.764C51 160.5 51.636 159.816 51.636 158.868C51.636 157.56 50.472 156.612 48.624 156.612C47.16 156.612 46.176 157.248 45.492 158.076L46.512 159.156C47.064 158.58 47.676 158.196 48.444 158.196C49.26 158.196 49.836 158.58 49.836 159.18C49.836 159.768 49.296 160.104 48.396 160.104L47.448 160.092V161.604H48.396C49.5 161.592 50.004 161.916 50.004 162.552C50.004 163.14 49.464 163.56 48.564 163.56C47.736 163.56 46.956 163.212 46.368 162.588L45.324 163.764C46.02 164.568 47.16 165.156 48.636 165.156ZM54.7943 165H56.5583V156.756H55.1423L52.6703 158.412L53.3903 159.66L54.7943 158.784V165ZM60.2745 160.896C61.4865 160.896 62.3385 159.972 62.3385 158.784C62.3385 157.62 61.5225 156.672 60.2745 156.672C59.0385 156.672 58.2225 157.608 58.2225 158.796C58.2225 159.972 59.0385 160.896 60.2745 160.896ZM59.3025 165H60.6825L66.4185 156.756H65.0265L59.3025 165ZM60.2745 159.864C59.7825 159.864 59.3985 159.432 59.3985 158.784C59.3985 158.136 59.7585 157.716 60.2745 157.716C60.7785 157.716 61.1505 158.148 61.1505 158.784C61.1505 159.444 60.7785 159.864 60.2745 159.864ZM65.4225 165.132C66.6345 165.132 67.4745 164.208 67.4745 163.02C67.4745 161.856 66.6705 160.908 65.4225 160.908C64.1985 160.908 63.3585 161.844 63.3585 163.02C63.3585 164.196 64.1985 165.132 65.4225 165.132ZM65.4225 164.088C64.9185 164.088 64.5465 163.656 64.5465 163.02C64.5465 162.36 64.9065 161.94 65.4225 161.94C65.9145 161.94 66.2985 162.372 66.2985 163.02C66.2985 163.668 65.9385 164.088 65.4225 164.088Z" fill="white"/>
<rect x="141" y="133" width="58" height="40" fill="#5C2CFF"/>
<path d="M148.388 165H150.152V156.756H148.736L146.264 158.412L146.984 159.66L148.388 158.784V165ZM155.02 165.144C156.832 165.144 158.332 164.292 158.332 162.792C158.332 161.844 157.684 161.124 156.712 160.74C157.54 160.38 158.128 159.78 158.128 158.856C158.128 157.44 156.664 156.612 155.02 156.612C153.412 156.612 151.924 157.404 151.924 158.856C151.924 159.792 152.512 160.392 153.328 160.74C152.38 161.1 151.708 161.82 151.708 162.792C151.708 164.28 153.196 165.144 155.02 165.144ZM155.02 160.128C154.372 160.08 153.688 159.72 153.688 159.084C153.688 158.52 154.228 158.1 155.02 158.1C155.812 158.1 156.364 158.52 156.364 159.084C156.364 159.696 155.668 160.08 155.02 160.128ZM155.02 163.656C154.144 163.656 153.508 163.224 153.508 162.6C153.508 161.952 154.312 161.544 155.02 161.52C155.728 161.544 156.544 161.952 156.544 162.6C156.544 163.224 155.896 163.656 155.02 163.656ZM161.603 160.896C162.815 160.896 163.667 159.972 163.667 158.784C163.667 157.62 162.851 156.672 161.603 156.672C160.367 156.672 159.551 157.608 159.551 158.796C159.551 159.972 160.367 160.896 161.603 160.896ZM160.631 165H162.011L167.747 156.756H166.355L160.631 165ZM161.603 159.864C161.111 159.864 160.727 159.432 160.727 158.784C160.727 158.136 161.087 157.716 161.603 157.716C162.107 157.716 162.479 158.148 162.479 158.784C162.479 159.444 162.107 159.864 161.603 159.864ZM166.751 165.132C167.963 165.132 168.803 164.208 168.803 163.02C168.803 161.856 167.999 160.908 166.751 160.908C165.527 160.908 164.687 161.844 164.687 163.02C164.687 164.196 165.527 165.132 166.751 165.132ZM166.751 164.088C166.247 164.088 165.875 163.656 165.875 163.02C165.875 162.36 166.235 161.94 166.751 161.94C167.243 161.94 167.627 162.372 167.627 163.02C167.627 163.668 167.267 164.088 166.751 164.088Z" fill="white"/>
<rect x="199" y="133" width="128" height="40" fill="#1B0085"/>
<path d="M209.769 165.156C211.701 165.156 212.949 164.124 212.949 162.696C212.949 161.604 212.121 160.968 211.221 160.764C212.133 160.5 212.769 159.816 212.769 158.868C212.769 157.56 211.605 156.612 209.757 156.612C208.293 156.612 207.309 157.248 206.625 158.076L207.645 159.156C208.197 158.58 208.809 158.196 209.577 158.196C210.393 158.196 210.969 158.58 210.969 159.18C210.969 159.768 210.429 160.104 209.529 160.104L208.581 160.092V161.604H209.529C210.633 161.592 211.137 161.916 211.137 162.552C211.137 163.14 210.597 163.56 209.697 163.56C208.869 163.56 208.089 163.212 207.501 162.588L206.457 163.764C207.153 164.568 208.293 165.156 209.769 165.156ZM217.187 156.612C215.387 156.612 214.031 157.776 214.031 159.468C214.031 161.1 215.291 162.084 216.815 162.084C217.595 162.084 218.351 161.784 218.855 161.292C218.699 162.684 217.979 163.584 216.899 163.584C216.203 163.584 215.723 163.332 215.219 162.912L214.379 164.256C215.051 164.796 215.879 165.144 216.899 165.144C219.191 165.144 220.691 163.308 220.691 160.74C220.691 158.34 219.587 156.612 217.187 156.612ZM217.331 160.644C216.527 160.644 215.855 160.176 215.855 159.384C215.855 158.724 216.407 158.112 217.283 158.112C218.207 158.112 218.651 158.676 218.807 159.684C218.555 160.272 218.003 160.644 217.331 160.644ZM224.009 160.896C225.221 160.896 226.073 159.972 226.073 158.784C226.073 157.62 225.257 156.672 224.009 156.672C222.773 156.672 221.957 157.608 221.957 158.796C221.957 159.972 222.773 160.896 224.009 160.896ZM223.037 165H224.417L230.153 156.756H228.761L223.037 165ZM224.009 159.864C223.517 159.864 223.133 159.432 223.133 158.784C223.133 158.136 223.493 157.716 224.009 157.716C224.513 157.716 224.885 158.148 224.885 158.784C224.885 159.444 224.513 159.864 224.009 159.864ZM229.157 165.132C230.369 165.132 231.209 164.208 231.209 163.02C231.209 161.856 230.405 160.908 229.157 160.908C227.933 160.908 227.093 161.844 227.093 163.02C227.093 164.196 227.933 165.132 229.157 165.132ZM229.157 164.088C228.653 164.088 228.281 163.656 228.281 163.02C228.281 162.36 228.641 161.94 229.157 161.94C229.649 161.94 230.033 162.372 230.033 163.02C230.033 163.668 229.673 164.088 229.157 164.088Z" fill="white"/>
<path d="M0.87 111H2.35V106.72L4.47 110.6L6.6 106.72V111H8.07V104.13H6.6L4.47 108.01L2.35 104.13H0.87V111ZM12.7753 111.12C14.5953 111.12 15.8853 109.84 15.8853 108.03V104.13H14.4053V107.97C14.4053 109.03 13.7253 109.78 12.7753 109.78C11.8153 109.78 11.1353 109.03 11.1353 107.97V104.13H9.66531V108.03C9.66531 109.84 10.9453 111.12 12.7753 111.12ZM18.9516 109.67V104.13H17.4716V111H22.3716V109.67H18.9516ZM25.1553 111H26.6253V105.46H28.7753V104.13H23.0153V105.46H25.1553V111ZM29.952 111H31.432V104.13H29.952V111ZM33.0047 108.87H35.7447V107.63H33.0047V108.87ZM40.5653 111.12C41.6053 111.12 42.5553 110.67 43.2253 109.97L42.1553 109.01C41.7653 109.47 41.1953 109.78 40.5653 109.78C39.4053 109.78 38.4253 108.76 38.4253 107.56C38.4253 106.37 39.4053 105.35 40.5653 105.35C41.1853 105.35 41.7653 105.66 42.1553 106.12L43.2253 105.16C42.5553 104.45 41.6053 104.01 40.5653 104.01C38.5853 104.01 36.9053 105.63 36.9053 107.56C36.9053 109.49 38.5853 111.12 40.5653 111.12ZM45.8949 109.67V104.13H44.4149V111H49.3149V109.67H45.8949ZM53.7587 111.12C55.7387 111.12 57.3987 109.49 57.3987 107.56C57.3987 105.63 55.7387 104.01 53.7587 104.01C51.7787 104.01 50.0987 105.63 50.0987 107.56C50.0987 109.49 51.7787 111.12 53.7587 111.12ZM53.7587 109.78C52.5987 109.78 51.6187 108.76 51.6187 107.56C51.6187 106.37 52.5987 105.35 53.7587 105.35C54.9087 105.35 55.8887 106.37 55.8887 107.56C55.8887 108.76 54.9087 109.78 53.7587 109.78ZM61.7011 111.12C63.5211 111.12 64.8111 109.84 64.8111 108.03V104.13H63.3311V107.97C63.3311 109.03 62.6511 109.78 61.7011 109.78C60.7411 109.78 60.0611 109.03 60.0611 107.97V104.13H58.5911V108.03C58.5911 109.84 59.8711 111.12 61.7011 111.12ZM66.3973 111H68.8673C71.1773 111 72.8173 109.57 72.8173 107.56C72.8173 105.55 71.1773 104.13 68.8673 104.13H66.3973V111ZM67.8773 109.66V105.47H69.0573C70.3673 105.47 71.2973 106.34 71.2973 107.56C71.2973 108.79 70.3673 109.66 69.0573 109.66H67.8773ZM76.8661 111H80.4861C81.7961 111 82.7361 110.24 82.7361 109.14C82.7361 108.38 82.2761 107.74 81.4761 107.38C82.0861 107.06 82.4361 106.55 82.4361 105.85C82.4361 104.85 81.5761 104.13 80.3461 104.13H76.8661V111ZM78.3361 106.9V105.39H79.9861C80.5361 105.39 80.9261 105.71 80.9261 106.14C80.9261 106.58 80.5361 106.9 79.9861 106.9H78.3361ZM78.3361 109.74V108.06H80.2061C80.8061 108.06 81.2261 108.41 81.2261 108.9C81.2261 109.39 80.8061 109.74 80.2061 109.74H78.3361ZM87.0429 111.12C88.8629 111.12 90.1529 109.84 90.1529 108.03V104.13H88.6729V107.97C88.6729 109.03 87.9929 109.78 87.0429 109.78C86.0829 109.78 85.4029 109.03 85.4029 107.97V104.13H83.9329V108.03C83.9329 109.84 85.2129 111.12 87.0429 111.12ZM93.3291 111H94.7991V105.46H96.9491V104.13H91.1891V105.46H93.3291V111ZM100.85 111H102.33V106.56L105.64 111H107.12V104.13H105.64V108.57L102.33 104.13H100.85V111ZM112.108 111.12C114.088 111.12 115.748 109.49 115.748 107.56C115.748 105.63 114.088 104.01 112.108 104.01C110.128 104.01 108.448 105.63 108.448 107.56C108.448 109.49 110.128 111.12 112.108 111.12ZM112.108 109.78C110.948 109.78 109.968 108.76 109.968 107.56C109.968 106.37 110.948 105.35 112.108 105.35C113.258 105.35 114.238 106.37 114.238 107.56C114.238 108.76 113.258 109.78 112.108 109.78ZM118.681 111H120.151V105.46H122.301V104.13H116.541V105.46H118.681V111ZM130.812 104.13V106.83H127.682V104.13H126.202V111H127.682V108.16H130.812V111H132.282V104.13H130.812ZM136.084 111H137.574V108.52L140.254 104.13H138.604L136.824 107.14L135.114 104.13H133.394L136.084 108.52V111ZM141.358 111H144.978C146.288 111 147.228 110.24 147.228 109.14C147.228 108.38 146.768 107.74 145.968 107.38C146.578 107.06 146.928 106.55 146.928 105.85C146.928 104.85 146.068 104.13 144.838 104.13H141.358V111ZM142.828 106.9V105.39H144.478C145.028 105.39 145.418 105.71 145.418 106.14C145.418 106.58 145.028 106.9 144.478 106.9H142.828ZM142.828 109.74V108.06H144.698C145.298 108.06 145.718 108.41 145.718 108.9C145.718 109.39 145.298 109.74 144.698 109.74H142.828ZM154.255 106.45C154.255 105.09 153.165 104.13 151.665 104.13H148.575V111H150.055V108.77H150.945L152.515 111H154.195L152.545 108.65C153.575 108.35 154.255 107.53 154.255 106.45ZM150.055 105.48H151.515C152.245 105.48 152.745 105.86 152.745 106.45C152.745 107.04 152.245 107.42 151.515 107.42H150.055V105.48ZM155.616 111H157.096V104.13H155.616V111ZM158.839 111H161.309C163.619 111 165.259 109.57 165.259 107.56C165.259 105.55 163.619 104.13 161.309 104.13H158.839V111ZM160.319 109.66V105.47H161.499C162.809 105.47 163.739 106.34 163.739 107.56C163.739 108.79 162.809 109.66 161.499 109.66H160.319Z" fill="#0F0B47"/>
<rect y="235" width="18.9652" height="40" fill="#EBEBEB"/>
<path d="M6.44 267.104C7.752 267.104 8.624 266.36 8.624 265.192C8.624 264.072 7.784 263.448 6.808 263.448C6.36 263.448 6.008 263.592 5.736 263.784L5.768 262.568H8.328V261.504H4.68L4.6 264.472L5.392 264.792C5.688 264.568 6.04 264.432 6.456 264.432C7.056 264.432 7.448 264.752 7.448 265.232C7.448 265.704 7.072 266.072 6.448 266.072C5.92 266.072 5.424 265.816 5.008 265.424L4.312 266.256C4.824 266.768 5.52 267.104 6.44 267.104ZM10.7846 264.264C11.5926 264.264 12.1606 263.648 12.1606 262.856C12.1606 262.08 11.6166 261.448 10.7846 261.448C9.96056 261.448 9.41656 262.072 9.41656 262.864C9.41656 263.648 9.96056 264.264 10.7846 264.264ZM10.1366 267H11.0566L14.8806 261.504H13.9526L10.1366 267ZM10.7846 263.576C10.4566 263.576 10.2006 263.288 10.2006 262.856C10.2006 262.424 10.4406 262.144 10.7846 262.144C11.1206 262.144 11.3686 262.432 11.3686 262.856C11.3686 263.296 11.1206 263.576 10.7846 263.576ZM14.2166 267.088C15.0246 267.088 15.5846 266.472 15.5846 265.68C15.5846 264.904 15.0486 264.272 14.2166 264.272C13.4006 264.272 12.8406 264.896 12.8406 265.68C12.8406 266.464 13.4006 267.088 14.2166 267.088ZM14.2166 266.392C13.8806 266.392 13.6326 266.104 13.6326 265.68C13.6326 265.24 13.8726 264.96 14.2166 264.96C14.5446 264.96 14.8006 265.248 14.8006 265.68C14.8006 266.112 14.5606 266.392 14.2166 266.392Z" fill="#0F0B47"/>
<rect x="18.9648" y="235" width="177.035" height="40" fill="#A585FF"/>
<path d="M29.66 267.156C31.628 267.156 32.936 266.04 32.936 264.288C32.936 262.608 31.676 261.672 30.212 261.672C29.54 261.672 29.012 261.888 28.604 262.176L28.652 260.352H32.492V258.756H27.02L26.9 263.208L28.088 263.688C28.532 263.352 29.06 263.148 29.684 263.148C30.584 263.148 31.172 263.628 31.172 264.348C31.172 265.056 30.608 265.608 29.672 265.608C28.88 265.608 28.136 265.224 27.512 264.636L26.468 265.884C27.236 266.652 28.28 267.156 29.66 267.156ZM37.1248 267.156C39.0928 267.156 40.4008 266.04 40.4008 264.288C40.4008 262.608 39.1408 261.672 37.6768 261.672C37.0048 261.672 36.4768 261.888 36.0688 262.176L36.1168 260.352H39.9568V258.756H34.4848L34.3648 263.208L35.5528 263.688C35.9968 263.352 36.5248 263.148 37.1488 263.148C38.0488 263.148 38.6368 263.628 38.6368 264.348C38.6368 265.056 38.0728 265.608 37.1368 265.608C36.3448 265.608 35.6008 265.224 34.9768 264.636L33.9328 265.884C34.7008 266.652 35.7448 267.156 37.1248 267.156ZM43.6417 262.896C44.8537 262.896 45.7057 261.972 45.7057 260.784C45.7057 259.62 44.8897 258.672 43.6417 258.672C42.4057 258.672 41.5897 259.608 41.5897 260.796C41.5897 261.972 42.4057 262.896 43.6417 262.896ZM42.6697 267H44.0497L49.7857 258.756H48.3937L42.6697 267ZM43.6417 261.864C43.1497 261.864 42.7657 261.432 42.7657 260.784C42.7657 260.136 43.1257 259.716 43.6417 259.716C44.1457 259.716 44.5177 260.148 44.5177 260.784C44.5177 261.444 44.1457 261.864 43.6417 261.864ZM48.7897 267.132C50.0017 267.132 50.8417 266.208 50.8417 265.02C50.8417 263.856 50.0377 262.908 48.7897 262.908C47.5657 262.908 46.7257 263.844 46.7257 265.02C46.7257 266.196 47.5657 267.132 48.7897 267.132ZM48.7897 266.088C48.2857 266.088 47.9137 265.656 47.9137 265.02C47.9137 264.36 48.2737 263.94 48.7897 263.94C49.2817 263.94 49.6657 264.372 49.6657 265.02C49.6657 265.668 49.3057 266.088 48.7897 266.088Z" fill="white"/>
<rect x="196" y="235" width="62" height="40" fill="#5C2CFF"/>
<path d="M204.388 267H206.152V258.756H204.736L202.264 260.412L202.984 261.66L204.388 260.784V267ZM210.804 258.612C209.004 258.612 207.648 259.776 207.648 261.468C207.648 263.1 208.908 264.084 210.432 264.084C211.212 264.084 211.968 263.784 212.472 263.292C212.316 264.684 211.596 265.584 210.516 265.584C209.82 265.584 209.34 265.332 208.836 264.912L207.996 266.256C208.668 266.796 209.496 267.144 210.516 267.144C212.808 267.144 214.308 265.308 214.308 262.74C214.308 260.34 213.204 258.612 210.804 258.612ZM210.948 262.644C210.144 262.644 209.472 262.176 209.472 261.384C209.472 260.724 210.024 260.112 210.9 260.112C211.824 260.112 212.268 260.676 212.424 261.684C212.172 262.272 211.62 262.644 210.948 262.644ZM217.626 262.896C218.838 262.896 219.69 261.972 219.69 260.784C219.69 259.62 218.874 258.672 217.626 258.672C216.39 258.672 215.574 259.608 215.574 260.796C215.574 261.972 216.39 262.896 217.626 262.896ZM216.654 267H218.034L223.77 258.756H222.378L216.654 267ZM217.626 261.864C217.134 261.864 216.75 261.432 216.75 260.784C216.75 260.136 217.11 259.716 217.626 259.716C218.13 259.716 218.502 260.148 218.502 260.784C218.502 261.444 218.13 261.864 217.626 261.864ZM222.774 267.132C223.986 267.132 224.826 266.208 224.826 265.02C224.826 263.856 224.022 262.908 222.774 262.908C221.55 262.908 220.71 263.844 220.71 265.02C220.71 266.196 221.55 267.132 222.774 267.132ZM222.774 266.088C222.27 266.088 221.898 265.656 221.898 265.02C221.898 264.36 222.258 263.94 222.774 263.94C223.266 263.94 223.65 264.372 223.65 265.02C223.65 265.668 223.29 266.088 222.774 266.088Z" fill="white"/>
<rect x="258" y="235" width="69" height="40" fill="#1B0085"/>
<path d="M265.961 267H272.189V265.404H268.697L270.197 264.24C271.637 263.196 272.117 262.344 272.117 261.24C272.117 259.692 270.845 258.612 269.093 258.612C267.761 258.612 266.717 259.188 265.901 260.22L267.029 261.312C267.629 260.628 268.241 260.22 269.045 260.22C269.717 260.22 270.293 260.628 270.293 261.312C270.293 261.888 269.981 262.428 268.997 263.208L265.961 265.56V267ZM275.193 267H276.957V258.756H275.541L273.069 260.412L273.789 261.66L275.193 260.784V267ZM280.673 262.896C281.885 262.896 282.737 261.972 282.737 260.784C282.737 259.62 281.921 258.672 280.673 258.672C279.437 258.672 278.621 259.608 278.621 260.796C278.621 261.972 279.437 262.896 280.673 262.896ZM279.701 267H281.081L286.817 258.756H285.425L279.701 267ZM280.673 261.864C280.181 261.864 279.797 261.432 279.797 260.784C279.797 260.136 280.157 259.716 280.673 259.716C281.177 259.716 281.549 260.148 281.549 260.784C281.549 261.444 281.177 261.864 280.673 261.864ZM285.821 267.132C287.033 267.132 287.873 266.208 287.873 265.02C287.873 263.856 287.069 262.908 285.821 262.908C284.597 262.908 283.757 263.844 283.757 265.02C283.757 266.196 284.597 267.132 285.821 267.132ZM285.821 266.088C285.317 266.088 284.945 265.656 284.945 265.02C284.945 264.36 285.305 263.94 285.821 263.94C286.313 263.94 286.697 264.372 286.697 265.02C286.697 265.668 286.337 266.088 285.821 266.088Z" fill="white"/>
<path d="M0.87 212H2.35V209.77H3.96C5.46 209.77 6.55 208.81 6.55 207.45C6.55 206.09 5.46 205.13 3.96 205.13H0.87V212ZM2.35 208.42V206.48H3.81C4.54 206.48 5.04 206.86 5.04 207.45C5.04 208.04 4.54 208.42 3.81 208.42H2.35ZM10.7831 212.12C12.6031 212.12 13.8931 210.84 13.8931 209.03V205.13H12.4131V208.97C12.4131 210.03 11.7331 210.78 10.7831 210.78C9.82313 210.78 9.14313 210.03 9.14313 208.97V205.13H7.67313V209.03C7.67313 210.84 8.95313 212.12 10.7831 212.12ZM15.4794 212H19.0994C20.4094 212 21.3494 211.24 21.3494 210.14C21.3494 209.38 20.8894 208.74 20.0894 208.38C20.6994 208.06 21.0494 207.55 21.0494 206.85C21.0494 205.85 20.1894 205.13 18.9594 205.13H15.4794V212ZM16.9494 207.9V206.39H18.5994C19.1494 206.39 19.5394 206.71 19.5394 207.14C19.5394 207.58 19.1494 207.9 18.5994 207.9H16.9494ZM16.9494 210.74V209.06H18.8194C19.4194 209.06 19.8394 209.41 19.8394 209.9C19.8394 210.39 19.4194 210.74 18.8194 210.74H16.9494ZM24.1762 210.67V205.13H22.6962V212H27.5962V210.67H24.1762ZM28.7899 212H30.2699V205.13H28.7899V212ZM35.2626 212.12C36.3026 212.12 37.2526 211.67 37.9226 210.97L36.8526 210.01C36.4626 210.47 35.8926 210.78 35.2626 210.78C34.1026 210.78 33.1226 209.76 33.1226 208.56C33.1226 207.37 34.1026 206.35 35.2626 206.35C35.8826 206.35 36.4626 206.66 36.8526 207.12L37.9226 206.16C37.2526 205.45 36.3026 205.01 35.2626 205.01C33.2826 205.01 31.6026 206.63 31.6026 208.56C31.6026 210.49 33.2826 212.12 35.2626 212.12ZM45.0868 212.12C46.1268 212.12 47.0768 211.67 47.7468 210.97L46.6768 210.01C46.2868 210.47 45.7168 210.78 45.0868 210.78C43.9268 210.78 42.9468 209.76 42.9468 208.56C42.9468 207.37 43.9268 206.35 45.0868 206.35C45.7068 206.35 46.2868 206.66 46.6768 207.12L47.7468 206.16C47.0768 205.45 46.1268 205.01 45.0868 205.01C43.1068 205.01 41.4268 206.63 41.4268 208.56C41.4268 210.49 43.1068 212.12 45.0868 212.12ZM50.4164 210.67V205.13H48.9364V212H53.8364V210.67H50.4164ZM58.2802 212.12C60.2602 212.12 61.9202 210.49 61.9202 208.56C61.9202 206.63 60.2602 205.01 58.2802 205.01C56.3002 205.01 54.6202 206.63 54.6202 208.56C54.6202 210.49 56.3002 212.12 58.2802 212.12ZM58.2802 210.78C57.1202 210.78 56.1402 209.76 56.1402 208.56C56.1402 207.37 57.1202 206.35 58.2802 206.35C59.4302 206.35 60.4102 207.37 60.4102 208.56C60.4102 209.76 59.4302 210.78 58.2802 210.78ZM66.2226 212.12C68.0426 212.12 69.3326 210.84 69.3326 209.03V205.13H67.8526V208.97C67.8526 210.03 67.1726 210.78 66.2226 210.78C65.2626 210.78 64.5826 210.03 64.5826 208.97V205.13H63.1126V209.03C63.1126 210.84 64.3926 212.12 66.2226 212.12ZM70.9188 212H73.3888C75.6988 212 77.3388 210.57 77.3388 208.56C77.3388 206.55 75.6988 205.13 73.3888 205.13H70.9188V212ZM72.3988 210.66V206.47H73.5788C74.8888 206.47 75.8188 207.34 75.8188 208.56C75.8188 209.79 74.8888 210.66 73.5788 210.66H72.3988ZM84.6376 212.12C86.6176 212.12 88.2776 210.49 88.2776 208.56C88.2776 206.63 86.6176 205.01 84.6376 205.01C82.6576 205.01 80.9776 206.63 80.9776 208.56C80.9776 210.49 82.6576 212.12 84.6376 212.12ZM84.6376 210.78C83.4776 210.78 82.4976 209.76 82.4976 208.56C82.4976 207.37 83.4776 206.35 84.6376 206.35C85.7876 206.35 86.7676 207.37 86.7676 208.56C86.7676 209.76 85.7876 210.78 84.6376 210.78ZM89.62 212H91.1V207.56L94.41 212H95.89V205.13H94.41V209.57L91.1 205.13H89.62V212ZM99.1078 210.67V205.13H97.6278V212H102.528V210.67H99.1078ZM105.772 212H107.262V209.52L109.942 205.13H108.292L106.512 208.14L104.802 205.13H103.082L105.772 209.52V212Z" fill="#0F0B47"/>
<rect y="337" width="33" height="40" fill="#EBEBEB"/>
<path d="M5.99 369H7.46V362.13H6.28L4.22 363.51L4.82 364.55L5.99 363.82V369ZM11.8669 369.12C13.6769 369.12 14.9469 367.65 14.9469 365.56C14.9469 363.48 13.6769 362.01 11.8669 362.01C10.0569 362.01 8.77688 363.48 8.77688 365.56C8.77688 367.65 10.0569 369.12 11.8669 369.12ZM11.8669 367.78C10.9469 367.78 10.2969 366.85 10.2969 365.56C10.2969 364.27 10.9469 363.35 11.8669 363.35C12.7869 363.35 13.4369 364.27 13.4369 365.56C13.4369 366.85 12.7869 367.78 11.8669 367.78ZM17.6858 365.58C18.6958 365.58 19.4058 364.81 19.4058 363.82C19.4058 362.85 18.7258 362.06 17.6858 362.06C16.6558 362.06 15.9758 362.84 15.9758 363.83C15.9758 364.81 16.6558 365.58 17.6858 365.58ZM16.8758 369H18.0258L22.8058 362.13H21.6458L16.8758 369ZM17.6858 364.72C17.2758 364.72 16.9558 364.36 16.9558 363.82C16.9558 363.28 17.2558 362.93 17.6858 362.93C18.1058 362.93 18.4158 363.29 18.4158 363.82C18.4158 364.37 18.1058 364.72 17.6858 364.72ZM21.9758 369.11C22.9858 369.11 23.6858 368.34 23.6858 367.35C23.6858 366.38 23.0158 365.59 21.9758 365.59C20.9558 365.59 20.2558 366.37 20.2558 367.35C20.2558 368.33 20.9558 369.11 21.9758 369.11ZM21.9758 368.24C21.5558 368.24 21.2458 367.88 21.2458 367.35C21.2458 366.8 21.5458 366.45 21.9758 366.45C22.3858 366.45 22.7058 366.81 22.7058 367.35C22.7058 367.89 22.4058 368.24 21.9758 368.24Z" fill="#0F0B47"/>
<rect x="33" y="337" width="121" height="40" fill="#A585FF"/>
<path d="M42.636 369.156C44.568 369.156 45.816 368.124 45.816 366.696C45.816 365.604 44.988 364.968 44.088 364.764C45 364.5 45.636 363.816 45.636 362.868C45.636 361.56 44.472 360.612 42.624 360.612C41.16 360.612 40.176 361.248 39.492 362.076L40.512 363.156C41.064 362.58 41.676 362.196 42.444 362.196C43.26 362.196 43.836 362.58 43.836 363.18C43.836 363.768 43.296 364.104 42.396 364.104L41.448 364.092V365.604H42.396C43.5 365.592 44.004 365.916 44.004 366.552C44.004 367.14 43.464 367.56 42.564 367.56C41.736 367.56 40.956 367.212 40.368 366.588L39.324 367.764C40.02 368.568 41.16 369.156 42.636 369.156ZM47.5583 369H49.5503L52.8863 362.088V360.756H46.7543V362.352H50.8343L47.5583 369ZM55.9737 364.896C57.1857 364.896 58.0377 363.972 58.0377 362.784C58.0377 361.62 57.2217 360.672 55.9737 360.672C54.7377 360.672 53.9217 361.608 53.9217 362.796C53.9217 363.972 54.7377 364.896 55.9737 364.896ZM55.0017 369H56.3817L62.1177 360.756H60.7257L55.0017 369ZM55.9737 363.864C55.4817 363.864 55.0977 363.432 55.0977 362.784C55.0977 362.136 55.4577 361.716 55.9737 361.716C56.4777 361.716 56.8497 362.148 56.8497 362.784C56.8497 363.444 56.4777 363.864 55.9737 363.864ZM61.1217 369.132C62.3337 369.132 63.1737 368.208 63.1737 367.02C63.1737 365.856 62.3697 364.908 61.1217 364.908C59.8977 364.908 59.0577 365.844 59.0577 367.02C59.0577 368.196 59.8977 369.132 61.1217 369.132ZM61.1217 368.088C60.6177 368.088 60.2457 367.656 60.2457 367.02C60.2457 366.36 60.6057 365.94 61.1217 365.94C61.6137 365.94 61.9977 366.372 61.9977 367.02C61.9977 367.668 61.6377 368.088 61.1217 368.088Z" fill="white"/>
<rect x="154" y="337" width="59" height="40" fill="#5C2CFF"/>
<path d="M162.388 369H164.152V360.756H162.736L160.264 362.412L160.984 363.66L162.388 362.784V369ZM169.02 369.144C170.832 369.144 172.332 368.292 172.332 366.792C172.332 365.844 171.684 365.124 170.712 364.74C171.54 364.38 172.128 363.78 172.128 362.856C172.128 361.44 170.664 360.612 169.02 360.612C167.412 360.612 165.924 361.404 165.924 362.856C165.924 363.792 166.512 364.392 167.328 364.74C166.38 365.1 165.708 365.82 165.708 366.792C165.708 368.28 167.196 369.144 169.02 369.144ZM169.02 364.128C168.372 364.08 167.688 363.72 167.688 363.084C167.688 362.52 168.228 362.1 169.02 362.1C169.812 362.1 170.364 362.52 170.364 363.084C170.364 363.696 169.668 364.08 169.02 364.128ZM169.02 367.656C168.144 367.656 167.508 367.224 167.508 366.6C167.508 365.952 168.312 365.544 169.02 365.52C169.728 365.544 170.544 365.952 170.544 366.6C170.544 367.224 169.896 367.656 169.02 367.656ZM175.603 364.896C176.815 364.896 177.667 363.972 177.667 362.784C177.667 361.62 176.851 360.672 175.603 360.672C174.367 360.672 173.551 361.608 173.551 362.796C173.551 363.972 174.367 364.896 175.603 364.896ZM174.631 369H176.011L181.747 360.756H180.355L174.631 369ZM175.603 363.864C175.111 363.864 174.727 363.432 174.727 362.784C174.727 362.136 175.087 361.716 175.603 361.716C176.107 361.716 176.479 362.148 176.479 362.784C176.479 363.444 176.107 363.864 175.603 363.864ZM180.751 369.132C181.963 369.132 182.803 368.208 182.803 367.02C182.803 365.856 181.999 364.908 180.751 364.908C179.527 364.908 178.687 365.844 178.687 367.02C178.687 368.196 179.527 369.132 180.751 369.132ZM180.751 368.088C180.247 368.088 179.875 367.656 179.875 367.02C179.875 366.36 180.235 365.94 180.751 365.94C181.243 365.94 181.627 366.372 181.627 367.02C181.627 367.668 181.267 368.088 180.751 368.088Z" fill="white"/>
<rect x="213" y="337" width="114" height="40" fill="#1B0085"/>
<path d="M222.915 369.156C224.847 369.156 226.095 368.124 226.095 366.696C226.095 365.604 225.267 364.968 224.367 364.764C225.279 364.5 225.915 363.816 225.915 362.868C225.915 361.56 224.751 360.612 222.903 360.612C221.439 360.612 220.455 361.248 219.771 362.076L220.791 363.156C221.343 362.58 221.955 362.196 222.723 362.196C223.539 362.196 224.115 362.58 224.115 363.18C224.115 363.768 223.575 364.104 222.675 364.104L221.727 364.092V365.604H222.675C223.779 365.592 224.283 365.916 224.283 366.552C224.283 367.14 223.743 367.56 222.843 367.56C222.015 367.56 221.235 367.212 220.647 366.588L219.603 367.764C220.299 368.568 221.439 369.156 222.915 369.156ZM230.346 369.156C232.314 369.156 233.622 368.04 233.622 366.288C233.622 364.608 232.362 363.672 230.898 363.672C230.226 363.672 229.698 363.888 229.29 364.176L229.338 362.352H233.178V360.756H227.706L227.586 365.208L228.774 365.688C229.218 365.352 229.746 365.148 230.37 365.148C231.27 365.148 231.858 365.628 231.858 366.348C231.858 367.056 231.294 367.608 230.358 367.608C229.566 367.608 228.822 367.224 228.198 366.636L227.154 367.884C227.922 368.652 228.966 369.156 230.346 369.156ZM236.862 364.896C238.074 364.896 238.926 363.972 238.926 362.784C238.926 361.62 238.11 360.672 236.862 360.672C235.626 360.672 234.81 361.608 234.81 362.796C234.81 363.972 235.626 364.896 236.862 364.896ZM235.89 369H237.27L243.006 360.756H241.614L235.89 369ZM236.862 363.864C236.37 363.864 235.986 363.432 235.986 362.784C235.986 362.136 236.346 361.716 236.862 361.716C237.366 361.716 237.738 362.148 237.738 362.784C237.738 363.444 237.366 363.864 236.862 363.864ZM242.01 369.132C243.222 369.132 244.062 368.208 244.062 367.02C244.062 365.856 243.258 364.908 242.01 364.908C240.786 364.908 239.946 365.844 239.946 367.02C239.946 368.196 240.786 369.132 242.01 369.132ZM242.01 368.088C241.506 368.088 241.134 367.656 241.134 367.02C241.134 366.36 241.494 365.94 242.01 365.94C242.502 365.94 242.886 366.372 242.886 367.02C242.886 367.668 242.526 368.088 242.01 368.088Z" fill="white"/>
<path d="M0.87 314H2.35V311.77H3.96C5.46 311.77 6.55 310.81 6.55 309.45C6.55 308.09 5.46 307.13 3.96 307.13H0.87V314ZM2.35 310.42V308.48H3.81C4.54 308.48 5.04 308.86 5.04 309.45C5.04 310.04 4.54 310.42 3.81 310.42H2.35ZM13.5031 309.45C13.5031 308.09 12.4131 307.13 10.9131 307.13H7.82313V314H9.30313V311.77H10.1931L11.7631 314H13.4431L11.7931 311.65C12.8231 311.35 13.5031 310.53 13.5031 309.45ZM9.30313 308.48H10.7631C11.4931 308.48 11.9931 308.86 11.9931 309.45C11.9931 310.04 11.4931 310.42 10.7631 310.42H9.30313V308.48ZM14.8641 314H16.3441V307.13H14.8641V314ZM23.0668 307.13L21.1068 311.97L19.1368 307.13H17.4768L20.2768 314H21.9268L24.7268 307.13H23.0668ZM30.8302 314H32.4902L29.6902 307.13H28.0402L25.2402 314H26.8902L27.3702 312.82H30.3502L30.8302 314ZM27.8402 311.67L28.8602 309.16L29.8802 311.67H27.8402ZM35.2041 314H36.6741V308.46H38.8241V307.13H33.0641V308.46H35.2041V314ZM45.2909 308.46V307.13H40.0009V314H45.2909V312.67H41.4809V311.16H44.9409V309.83H41.4809V308.46H45.2909ZM52.6942 314.12C53.7342 314.12 54.6842 313.67 55.3542 312.97L54.2842 312.01C53.8942 312.47 53.3242 312.78 52.6942 312.78C51.5342 312.78 50.5542 311.76 50.5542 310.56C50.5542 309.37 51.5342 308.35 52.6942 308.35C53.3142 308.35 53.8942 308.66 54.2842 309.12L55.3542 308.16C54.6842 307.45 53.7342 307.01 52.6942 307.01C50.7142 307.01 49.0342 308.63 49.0342 310.56C49.0342 312.49 50.7142 314.12 52.6942 314.12ZM58.0238 312.67V307.13H56.5438V314H61.4438V312.67H58.0238ZM65.8876 314.12C67.8676 314.12 69.5276 312.49 69.5276 310.56C69.5276 308.63 67.8676 307.01 65.8876 307.01C63.9076 307.01 62.2276 308.63 62.2276 310.56C62.2276 312.49 63.9076 314.12 65.8876 314.12ZM65.8876 312.78C64.7276 312.78 63.7476 311.76 63.7476 310.56C63.7476 309.37 64.7276 308.35 65.8876 308.35C67.0376 308.35 68.0176 309.37 68.0176 310.56C68.0176 311.76 67.0376 312.78 65.8876 312.78ZM73.83 314.12C75.65 314.12 76.94 312.84 76.94 311.03V307.13H75.46V310.97C75.46 312.03 74.78 312.78 73.83 312.78C72.87 312.78 72.19 312.03 72.19 310.97V307.13H70.72V311.03C70.72 312.84 72 314.12 73.83 314.12ZM78.5263 314H80.9963C83.3062 314 84.9463 312.57 84.9463 310.56C84.9463 308.55 83.3062 307.13 80.9963 307.13H78.5263V314ZM80.0063 312.66V308.47H81.1863C82.4963 308.47 83.4263 309.34 83.4263 310.56C83.4263 311.79 82.4963 312.66 81.1863 312.66H80.0063ZM92.245 314.12C94.225 314.12 95.885 312.49 95.885 310.56C95.885 308.63 94.225 307.01 92.245 307.01C90.265 307.01 88.585 308.63 88.585 310.56C88.585 312.49 90.265 314.12 92.245 314.12ZM92.245 312.78C91.085 312.78 90.105 311.76 90.105 310.56C90.105 309.37 91.085 308.35 92.245 308.35C93.395 308.35 94.375 309.37 94.375 310.56C94.375 311.76 93.395 312.78 92.245 312.78ZM97.2274 314H98.7074V309.56L102.017 314H103.497V307.13H102.017V311.57L98.7074 307.13H97.2274V314ZM106.715 312.67V307.13H105.235V314H110.135V312.67H106.715ZM113.379 314H114.869V311.52L117.549 307.13H115.899L114.119 310.14L112.409 307.13H110.689L113.379 311.52V314Z" fill="#0F0B47"/>
<path d="M15.816 438H17.712C19.488 438 20.744 436.856 20.744 435.248C20.744 433.64 19.488 432.504 17.712 432.504H15.816V438ZM16.624 437.264V433.24H17.76C19.024 433.24 19.92 434.072 19.92 435.248C19.92 436.432 19.024 437.264 17.76 437.264H16.624ZM23.6599 438.096C24.8519 438.096 25.8359 437.12 25.8359 435.928C25.8359 434.736 24.8519 433.768 23.6599 433.768C22.4679 433.768 21.4839 434.736 21.4839 435.928C21.4839 437.12 22.4679 438.096 23.6599 438.096ZM23.6599 437.408C22.8999 437.408 22.2759 436.744 22.2759 435.928C22.2759 435.112 22.8999 434.456 23.6599 434.456C24.4199 434.456 25.0439 435.112 25.0439 435.928C25.0439 436.744 24.4199 437.408 23.6599 437.408ZM28.9084 433.768C28.3404 433.768 27.8284 434.056 27.5884 434.472V433.864H26.7964V438H27.5884V435.432C27.5884 434.888 28.1004 434.456 28.7324 434.456C29.2924 434.456 29.6844 434.88 29.6844 435.504V438H30.4524V435.368C30.4524 434.416 29.8204 433.768 28.9084 433.768ZM32.0316 434.616C32.5436 434.032 32.7276 433.68 32.7276 433.312C32.7276 432.872 32.5036 432.552 32.1436 432.552C31.8476 432.552 31.6156 432.8 31.6156 433.08C31.6156 433.368 31.8476 433.616 32.1356 433.616C32.0716 433.864 31.9196 434.12 31.6956 434.36L32.0316 434.616ZM35.7285 437.256C35.6485 437.344 35.4885 437.408 35.3125 437.408C35.0805 437.408 34.8805 437.2 34.8805 436.912V434.536H35.8565V433.864H34.8805V432.728H34.1045V433.864H33.4885V434.536H34.1045V436.968C34.1045 437.632 34.5525 438.096 35.1925 438.096C35.4885 438.096 35.8005 437.984 36.0245 437.8L35.7285 437.256ZM39.0464 438H39.8384V436.936L40.5024 436.264L41.7984 438H42.7424L41.0384 435.736L42.8224 433.864H41.8624L39.8384 435.984V432.408H39.0464V438ZM45.6663 433.768C45.0983 433.768 44.5863 434.056 44.3463 434.472V433.864H43.5543V438H44.3463V435.432C44.3463 434.888 44.8583 434.456 45.4903 434.456C46.0503 434.456 46.4423 434.88 46.4423 435.504V438H47.2103V435.368C47.2103 434.416 46.5783 433.768 45.6663 433.768ZM50.2614 438.096C51.4534 438.096 52.4374 437.12 52.4374 435.928C52.4374 434.736 51.4534 433.768 50.2614 433.768C49.0694 433.768 48.0854 434.736 48.0854 435.928C48.0854 437.12 49.0694 438.096 50.2614 438.096ZM50.2614 437.408C49.5014 437.408 48.8774 436.744 48.8774 435.928C48.8774 435.112 49.5014 434.456 50.2614 434.456C51.0214 434.456 51.6454 435.112 51.6454 435.928C51.6454 436.744 51.0214 437.408 50.2614 437.408ZM54.27 438H54.998L55.998 434.928L56.982 438H57.71L59.11 433.864H58.302L57.35 436.944L56.326 433.864H55.654L54.63 436.944L53.686 433.864H52.878L54.27 438ZM15.016 448.592H15.88L18.672 442.056H17.808L15.016 448.592ZM23.6428 443.768C23.0748 443.768 22.5628 444.056 22.3228 444.472V443.864H21.5308V448H22.3228V445.432C22.3228 444.888 22.8348 444.456 23.4668 444.456C24.0268 444.456 24.4188 444.88 24.4188 445.504V448H25.1868V445.368C25.1868 444.416 24.5548 443.768 23.6428 443.768ZM28.238 448.096C29.43 448.096 30.414 447.12 30.414 445.928C30.414 444.736 29.43 443.768 28.238 443.768C27.046 443.768 26.062 444.736 26.062 445.928C26.062 447.12 27.046 448.096 28.238 448.096ZM28.238 447.408C27.478 447.408 26.854 446.744 26.854 445.928C26.854 445.112 27.478 444.456 28.238 444.456C28.998 444.456 29.622 445.112 29.622 445.928C29.622 446.744 28.998 447.408 28.238 447.408ZM33.1426 447.256C33.0626 447.344 32.9026 447.408 32.7266 447.408C32.4946 447.408 32.2946 447.2 32.2946 446.912V444.536H33.2706V443.864H32.2946V442.728H31.5186V443.864H30.9026V444.536H31.5186V446.968C31.5186 447.632 31.9666 448.096 32.6066 448.096C32.9026 448.096 33.2146 447.984 33.4386 447.8L33.1426 447.256ZM37.8205 448.096C38.7325 448.096 39.3885 447.6 39.3885 446.816C39.3885 445.992 38.6685 445.768 37.9885 445.568C37.2845 445.352 37.0045 445.256 37.0045 444.936C37.0045 444.592 37.3405 444.408 37.7565 444.408C38.1325 444.408 38.5485 444.552 38.9565 444.808L39.2845 444.248C38.8445 443.952 38.2925 443.768 37.7565 443.768C36.8845 443.768 36.2525 444.264 36.2525 445.024C36.2525 445.696 36.7325 445.968 37.6765 446.232C38.2045 446.376 38.6365 446.504 38.6365 446.896C38.6365 447.232 38.3245 447.456 37.8285 447.456C37.3725 447.456 36.8765 447.272 36.4205 446.936L36.0605 447.48C36.5565 447.88 37.2125 448.096 37.8205 448.096ZM43.1271 443.864V446.432C43.1271 446.976 42.6231 447.408 41.9911 447.408C41.4311 447.408 41.0391 446.984 41.0391 446.36V443.864H40.2631V446.496C40.2631 447.448 40.8951 448.096 41.8071 448.096C42.3751 448.096 42.8791 447.816 43.1271 447.408V448H43.9191V443.864H43.1271ZM46.0181 444.672V443.864H45.2261V448H46.0181V445.8C46.0181 445 46.6421 444.456 47.5541 444.456V443.768C46.8341 443.768 46.2741 444.12 46.0181 444.672ZM50.2839 447.44C49.5479 447.44 49.0359 446.912 48.9399 446.184H52.2439C52.2439 444.712 51.5079 443.768 50.2439 443.768C49.0999 443.768 48.1639 444.68 48.1639 445.92C48.1639 447.192 49.1559 448.096 50.2999 448.096C50.8839 448.096 51.6119 447.848 51.9719 447.456L51.5079 446.968C51.2519 447.24 50.7319 447.44 50.2839 447.44ZM50.2599 444.424C50.9799 444.424 51.3959 444.936 51.4759 445.6H48.9479C49.0679 444.888 49.5959 444.424 50.2599 444.424Z" fill="#0F0B47"/>
<circle cx="4.27743" cy="435.277" r="4.27743" fill="#EBEBEB"/>
<path d="M191.784 434.528C191.184 434.528 190.632 434.792 190.296 435.248C190.328 434.04 190.952 433.136 191.784 433.136C192.288 433.136 192.64 433.352 192.976 433.664L193.392 433.04C192.976 432.664 192.472 432.408 191.792 432.408C190.456 432.408 189.472 433.672 189.472 435.336C189.472 436.904 190.112 438.096 191.64 438.096C192.8 438.096 193.632 437.304 193.632 436.248C193.632 435.16 192.792 434.528 191.784 434.528ZM191.616 437.408C190.888 437.408 190.496 436.88 190.36 436.088C190.512 435.56 190.992 435.208 191.6 435.208C192.264 435.208 192.808 435.616 192.808 436.288C192.808 436.84 192.36 437.408 191.616 437.408ZM196.851 436.176H198.963V435.456H196.851V436.176ZM203.253 438H204.061V432.504H203.413L201.965 433.488L202.301 434.072L203.253 433.464V438ZM207.644 438.096C209.012 438.096 209.98 436.92 209.98 435.248C209.98 433.584 209.012 432.408 207.644 432.408C206.26 432.408 205.292 433.584 205.292 435.248C205.292 436.92 206.26 438.096 207.644 438.096ZM207.644 437.352C206.748 437.352 206.116 436.48 206.116 435.248C206.116 434.016 206.748 433.152 207.644 433.152C208.532 433.152 209.156 434.016 209.156 435.248C209.156 436.48 208.532 437.352 207.644 437.352ZM192.272 448.096C193.056 448.096 193.784 447.76 194.304 447.232L193.736 446.688C193.36 447.088 192.84 447.352 192.272 447.352C191.176 447.352 190.248 446.392 190.248 445.248C190.248 444.112 191.176 443.152 192.272 443.152C192.84 443.152 193.36 443.416 193.736 443.816L194.304 443.272C193.784 442.736 193.056 442.408 192.272 442.408C190.736 442.408 189.424 443.704 189.424 445.248C189.424 446.792 190.736 448.096 192.272 448.096ZM195.234 448H196.026V442.408H195.234V448ZM200.096 443.864V446.432C200.096 446.976 199.592 447.408 198.96 447.408C198.4 447.408 198.008 446.984 198.008 446.36V443.864H197.232V446.496C197.232 447.448 197.864 448.096 198.776 448.096C199.344 448.096 199.848 447.816 200.096 447.408V448H200.888V443.864H200.096ZM203.555 448.096C204.467 448.096 205.123 447.6 205.123 446.816C205.123 445.992 204.403 445.768 203.723 445.568C203.019 445.352 202.739 445.256 202.739 444.936C202.739 444.592 203.075 444.408 203.491 444.408C203.867 444.408 204.283 444.552 204.691 444.808L205.019 444.248C204.579 443.952 204.027 443.768 203.491 443.768C202.619 443.768 201.987 444.264 201.987 445.024C201.987 445.696 202.467 445.968 203.411 446.232C203.939 446.376 204.371 446.504 204.371 446.896C204.371 447.232 204.059 447.456 203.563 447.456C203.107 447.456 202.611 447.272 202.155 446.936L201.795 447.48C202.291 447.88 202.947 448.096 203.555 448.096ZM207.854 447.256C207.774 447.344 207.614 447.408 207.438 447.408C207.206 447.408 207.006 447.2 207.006 446.912V444.536H207.982V443.864H207.006V442.728H206.23V443.864H205.614V444.536H206.23V446.968C206.23 447.632 206.678 448.096 207.318 448.096C207.614 448.096 207.926 447.984 208.15 447.8L207.854 447.256ZM210.776 447.44C210.04 447.44 209.528 446.912 209.432 446.184H212.736C212.736 444.712 212 443.768 210.736 443.768C209.592 443.768 208.656 444.68 208.656 445.92C208.656 447.192 209.648 448.096 210.792 448.096C211.376 448.096 212.104 447.848 212.464 447.456L212 446.968C211.744 447.24 211.224 447.44 210.776 447.44ZM210.752 444.424C211.472 444.424 211.888 444.936 211.968 445.6H209.44C209.56 444.888 210.088 444.424 210.752 444.424ZM214.456 444.672V443.864H213.664V448H214.456V445.8C214.456 445 215.08 444.456 215.992 444.456V443.768C215.272 443.768 214.712 444.12 214.456 444.672ZM218.281 448.096C219.193 448.096 219.849 447.6 219.849 446.816C219.849 445.992 219.129 445.768 218.449 445.568C217.745 445.352 217.465 445.256 217.465 444.936C217.465 444.592 217.801 444.408 218.217 444.408C218.593 444.408 219.009 444.552 219.417 444.808L219.745 444.248C219.305 443.952 218.753 443.768 218.217 443.768C217.345 443.768 216.713 444.264 216.713 445.024C216.713 445.696 217.193 445.968 218.137 446.232C218.665 446.376 219.097 446.504 219.097 446.896C219.097 447.232 218.785 447.456 218.289 447.456C217.833 447.456 217.337 447.272 216.881 446.936L216.521 447.48C217.017 447.88 217.673 448.096 218.281 448.096Z" fill="#0F0B47"/>
<circle cx="178.277" cy="435.277" r="4.27743" fill="#542AED"/>
<path d="M102.456 438H103.264V432.504H102.616L101.168 433.488L101.504 434.072L102.456 433.464V438ZM106.89 436.176H109.002V435.456H106.89V436.176ZM114.236 438.096C115.42 438.096 116.26 437.368 116.26 436.256C116.26 435.16 115.436 434.536 114.444 434.536C113.964 434.536 113.596 434.696 113.308 434.888L113.356 433.256H115.964V432.504H112.588L112.508 435.376L113.076 435.632C113.404 435.384 113.788 435.232 114.244 435.232C114.956 435.232 115.452 435.656 115.452 436.288C115.452 436.904 114.964 437.384 114.252 437.384C113.668 437.384 113.156 437.096 112.74 436.656L112.236 437.232C112.7 437.744 113.364 438.096 114.236 438.096ZM104.272 448.096C105.056 448.096 105.784 447.76 106.304 447.232L105.736 446.688C105.36 447.088 104.84 447.352 104.272 447.352C103.176 447.352 102.248 446.392 102.248 445.248C102.248 444.112 103.176 443.152 104.272 443.152C104.84 443.152 105.36 443.416 105.736 443.816L106.304 443.272C105.784 442.736 105.056 442.408 104.272 442.408C102.736 442.408 101.424 443.704 101.424 445.248C101.424 446.792 102.736 448.096 104.272 448.096ZM107.234 448H108.026V442.408H107.234V448ZM112.096 443.864V446.432C112.096 446.976 111.592 447.408 110.96 447.408C110.4 447.408 110.008 446.984 110.008 446.36V443.864H109.232V446.496C109.232 447.448 109.864 448.096 110.776 448.096C111.344 448.096 111.848 447.816 112.096 447.408V448H112.888V443.864H112.096ZM115.555 448.096C116.467 448.096 117.123 447.6 117.123 446.816C117.123 445.992 116.403 445.768 115.723 445.568C115.019 445.352 114.739 445.256 114.739 444.936C114.739 444.592 115.075 444.408 115.491 444.408C115.867 444.408 116.283 444.552 116.691 444.808L117.019 444.248C116.579 443.952 116.027 443.768 115.491 443.768C114.619 443.768 113.987 444.264 113.987 445.024C113.987 445.696 114.467 445.968 115.411 446.232C115.939 446.376 116.371 446.504 116.371 446.896C116.371 447.232 116.059 447.456 115.563 447.456C115.107 447.456 114.611 447.272 114.155 446.936L113.795 447.48C114.291 447.88 114.947 448.096 115.555 448.096ZM119.854 447.256C119.774 447.344 119.614 447.408 119.438 447.408C119.206 447.408 119.006 447.2 119.006 446.912V444.536H119.982V443.864H119.006V442.728H118.23V443.864H117.614V444.536H118.23V446.968C118.23 447.632 118.678 448.096 119.318 448.096C119.614 448.096 119.926 447.984 120.15 447.8L119.854 447.256ZM122.776 447.44C122.04 447.44 121.528 446.912 121.432 446.184H124.736C124.736 444.712 124 443.768 122.736 443.768C121.592 443.768 120.656 444.68 120.656 445.92C120.656 447.192 121.648 448.096 122.792 448.096C123.376 448.096 124.104 447.848 124.464 447.456L124 446.968C123.744 447.24 123.224 447.44 122.776 447.44ZM122.752 444.424C123.472 444.424 123.888 444.936 123.968 445.6H121.44C121.56 444.888 122.088 444.424 122.752 444.424ZM126.456 444.672V443.864H125.664V448H126.456V445.8C126.456 445 127.08 444.456 127.992 444.456V443.768C127.272 443.768 126.712 444.12 126.456 444.672ZM130.281 448.096C131.193 448.096 131.849 447.6 131.849 446.816C131.849 445.992 131.129 445.768 130.449 445.568C129.745 445.352 129.465 445.256 129.465 444.936C129.465 444.592 129.801 444.408 130.217 444.408C130.593 444.408 131.009 444.552 131.417 444.808L131.745 444.248C131.305 443.952 130.753 443.768 130.217 443.768C129.345 443.768 128.713 444.264 128.713 445.024C128.713 445.696 129.193 445.968 130.137 446.232C130.665 446.376 131.097 446.504 131.097 446.896C131.097 447.232 130.785 447.456 130.289 447.456C129.833 447.456 129.337 447.272 128.881 446.936L128.521 447.48C129.017 447.88 129.673 448.096 130.281 448.096Z" fill="#0F0B47"/>
<circle cx="90.2774" cy="435.277" r="4.27743" fill="#A585FF"/>
<path d="M279.456 438H280.264V432.504H279.616L278.168 433.488L278.504 434.072L279.456 433.464V438ZM283.847 438.096C285.215 438.096 286.183 436.92 286.183 435.248C286.183 433.584 285.215 432.408 283.847 432.408C282.463 432.408 281.495 433.584 281.495 435.248C281.495 436.92 282.463 438.096 283.847 438.096ZM283.847 437.352C282.951 437.352 282.319 436.48 282.319 435.248C282.319 434.016 282.951 433.152 283.847 433.152C284.735 433.152 285.359 434.016 285.359 435.248C285.359 436.48 284.735 437.352 283.847 437.352ZM290.881 434.976H289.385V433.456H288.649V434.976H287.145V435.688H288.649V437.192H289.385V435.688H290.881V434.976ZM281.272 448.096C282.056 448.096 282.784 447.76 283.304 447.232L282.736 446.688C282.36 447.088 281.84 447.352 281.272 447.352C280.176 447.352 279.248 446.392 279.248 445.248C279.248 444.112 280.176 443.152 281.272 443.152C281.84 443.152 282.36 443.416 282.736 443.816L283.304 443.272C282.784 442.736 282.056 442.408 281.272 442.408C279.736 442.408 278.424 443.704 278.424 445.248C278.424 446.792 279.736 448.096 281.272 448.096ZM284.234 448H285.026V442.408H284.234V448ZM289.096 443.864V446.432C289.096 446.976 288.592 447.408 287.96 447.408C287.4 447.408 287.008 446.984 287.008 446.36V443.864H286.232V446.496C286.232 447.448 286.864 448.096 287.776 448.096C288.344 448.096 288.848 447.816 289.096 447.408V448H289.888V443.864H289.096ZM292.555 448.096C293.467 448.096 294.123 447.6 294.123 446.816C294.123 445.992 293.403 445.768 292.723 445.568C292.019 445.352 291.739 445.256 291.739 444.936C291.739 444.592 292.075 444.408 292.491 444.408C292.867 444.408 293.283 444.552 293.691 444.808L294.019 444.248C293.579 443.952 293.027 443.768 292.491 443.768C291.619 443.768 290.987 444.264 290.987 445.024C290.987 445.696 291.467 445.968 292.411 446.232C292.939 446.376 293.371 446.504 293.371 446.896C293.371 447.232 293.059 447.456 292.563 447.456C292.107 447.456 291.611 447.272 291.155 446.936L290.795 447.48C291.291 447.88 291.947 448.096 292.555 448.096ZM296.854 447.256C296.774 447.344 296.614 447.408 296.438 447.408C296.206 447.408 296.006 447.2 296.006 446.912V444.536H296.982V443.864H296.006V442.728H295.23V443.864H294.614V444.536H295.23V446.968C295.23 447.632 295.678 448.096 296.318 448.096C296.614 448.096 296.926 447.984 297.15 447.8L296.854 447.256ZM299.776 447.44C299.04 447.44 298.528 446.912 298.432 446.184H301.736C301.736 444.712 301 443.768 299.736 443.768C298.592 443.768 297.656 444.68 297.656 445.92C297.656 447.192 298.648 448.096 299.792 448.096C300.376 448.096 301.104 447.848 301.464 447.456L301 446.968C300.744 447.24 300.224 447.44 299.776 447.44ZM299.752 444.424C300.472 444.424 300.888 444.936 300.968 445.6H298.44C298.56 444.888 299.088 444.424 299.752 444.424ZM303.456 444.672V443.864H302.664V448H303.456V445.8C303.456 445 304.08 444.456 304.992 444.456V443.768C304.272 443.768 303.712 444.12 303.456 444.672ZM307.281 448.096C308.193 448.096 308.849 447.6 308.849 446.816C308.849 445.992 308.129 445.768 307.449 445.568C306.745 445.352 306.465 445.256 306.465 444.936C306.465 444.592 306.801 444.408 307.217 444.408C307.593 444.408 308.009 444.552 308.417 444.808L308.745 444.248C308.305 443.952 307.753 443.768 307.217 443.768C306.345 443.768 305.713 444.264 305.713 445.024C305.713 445.696 306.193 445.968 307.137 446.232C307.665 446.376 308.097 446.504 308.097 446.896C308.097 447.232 307.785 447.456 307.289 447.456C306.833 447.456 306.337 447.272 305.881 446.936L305.521 447.48C306.017 447.88 306.673 448.096 307.281 448.096Z" fill="#0F0B47"/>
<circle cx="267.277" cy="435.277" r="4.27743" fill="#1B0085"/>
</svg>
