<svg width="1200" height="562" viewBox="0 0 1200 562" fill="none" xmlns="http://www.w3.org/2000/svg">
<rect x="1114" y="498.227" width="175" height="60" transform="rotate(-90 1114 498.227)" fill="#542AED"/>
<rect x="1054" y="498.227" width="130" height="60" transform="rotate(-90 1054 498.227)" fill="#E46BB7"/>
<path d="M1063.74 398.035H1073.08V395.641H1067.84L1070.09 393.895C1072.25 392.329 1072.97 391.051 1072.97 389.395C1072.97 387.073 1071.06 385.453 1068.44 385.453C1066.44 385.453 1064.87 386.317 1063.65 387.865L1065.34 389.503C1066.24 388.477 1067.16 387.865 1068.36 387.865C1069.37 387.865 1070.24 388.477 1070.24 389.503C1070.24 390.367 1069.77 391.177 1068.29 392.347L1063.74 395.875V398.035ZM1079.46 398.269C1082.36 398.269 1084.23 396.721 1084.23 394.579C1084.23 392.941 1082.99 391.987 1081.64 391.681C1083 391.285 1083.96 390.259 1083.96 388.837C1083.96 386.875 1082.21 385.453 1079.44 385.453C1077.24 385.453 1075.77 386.407 1074.74 387.649L1076.27 389.269C1077.1 388.405 1078.02 387.829 1079.17 387.829C1080.39 387.829 1081.26 388.405 1081.26 389.305C1081.26 390.187 1080.45 390.691 1079.1 390.691L1077.68 390.673V392.941H1079.1C1080.75 392.923 1081.51 393.409 1081.51 394.363C1081.51 395.245 1080.7 395.875 1079.35 395.875C1078.11 395.875 1076.94 395.353 1076.06 394.417L1074.49 396.181C1075.53 397.387 1077.24 398.269 1079.46 398.269ZM1089.18 391.879C1091 391.879 1092.28 390.493 1092.28 388.711C1092.28 386.965 1091.05 385.543 1089.18 385.543C1087.33 385.543 1086.1 386.947 1086.1 388.729C1086.1 390.493 1087.33 391.879 1089.18 391.879ZM1087.72 398.035H1089.79L1098.4 385.669H1096.31L1087.72 398.035ZM1089.18 390.331C1088.44 390.331 1087.87 389.683 1087.87 388.711C1087.87 387.739 1088.41 387.109 1089.18 387.109C1089.94 387.109 1090.5 387.757 1090.5 388.711C1090.5 389.701 1089.94 390.331 1089.18 390.331ZM1096.9 398.233C1098.72 398.233 1099.98 396.847 1099.98 395.065C1099.98 393.319 1098.78 391.897 1096.9 391.897C1095.07 391.897 1093.81 393.301 1093.81 395.065C1093.81 396.829 1095.07 398.233 1096.9 398.233ZM1096.9 396.667C1096.15 396.667 1095.59 396.019 1095.59 395.065C1095.59 394.075 1096.13 393.445 1096.9 393.445C1097.64 393.445 1098.22 394.093 1098.22 395.065C1098.22 396.037 1097.68 396.667 1096.9 396.667Z" fill="white"/>
<path d="M1131.45 354.071C1134.35 354.071 1136.22 352.523 1136.22 350.381C1136.22 348.743 1134.98 347.789 1133.63 347.483C1135 347.087 1135.95 346.061 1135.95 344.639C1135.95 342.677 1134.21 341.255 1131.44 341.255C1129.24 341.255 1127.76 342.209 1126.74 343.451L1128.27 345.071C1129.1 344.207 1130.01 343.631 1131.17 343.631C1132.39 343.631 1133.25 344.207 1133.25 345.107C1133.25 345.989 1132.44 346.493 1131.09 346.493L1129.67 346.475V348.743H1131.09C1132.75 348.725 1133.51 349.211 1133.51 350.165C1133.51 351.047 1132.7 351.677 1131.35 351.677C1130.1 351.677 1128.93 351.155 1128.05 350.219L1126.49 351.983C1127.53 353.189 1129.24 354.071 1131.45 354.071ZM1140.69 353.837H1143.34V341.471H1141.21L1137.51 343.955L1138.59 345.827L1140.69 344.513V353.837ZM1148.91 347.681C1150.73 347.681 1152.01 346.295 1152.01 344.513C1152.01 342.767 1150.78 341.345 1148.91 341.345C1147.06 341.345 1145.83 342.749 1145.83 344.531C1145.83 346.295 1147.06 347.681 1148.91 347.681ZM1147.45 353.837H1149.52L1158.13 341.471H1156.04L1147.45 353.837ZM1148.91 346.133C1148.17 346.133 1147.6 345.485 1147.6 344.513C1147.6 343.541 1148.14 342.911 1148.91 342.911C1149.67 342.911 1150.23 343.559 1150.23 344.513C1150.23 345.503 1149.67 346.133 1148.91 346.133ZM1156.63 354.035C1158.45 354.035 1159.71 352.649 1159.71 350.867C1159.71 349.121 1158.51 347.699 1156.63 347.699C1154.8 347.699 1153.54 349.103 1153.54 350.867C1153.54 352.631 1154.8 354.035 1156.63 354.035ZM1156.63 352.469C1155.88 352.469 1155.32 351.821 1155.32 350.867C1155.32 349.877 1155.86 349.247 1156.63 349.247C1157.37 349.247 1157.95 349.895 1157.95 350.867C1157.95 351.839 1157.41 352.469 1156.63 352.469Z" fill="white"/>
<path d="M1087.46 534.419C1090.13 534.419 1091.73 533.027 1091.73 530.931C1091.73 528.899 1090.16 528.195 1087.79 527.667C1086.1 527.283 1085.42 527.027 1085.42 526.227C1085.42 525.571 1086.05 525.043 1087.04 525.043C1088.1 525.043 1089.2 525.475 1090.19 526.275L1091.42 524.563C1090.29 523.603 1088.91 523.043 1087.12 523.043C1084.7 523.043 1083.04 524.435 1083.04 526.467C1083.04 528.595 1084.7 529.251 1087.02 529.779C1088.7 530.163 1089.34 530.403 1089.34 531.187C1089.34 531.875 1088.74 532.419 1087.54 532.419C1086.14 532.419 1084.96 531.875 1083.92 530.979L1082.58 532.595C1083.86 533.779 1085.54 534.419 1087.46 534.419ZM1102.29 525.363V523.235H1093.83V534.227H1102.29V532.099H1096.2V529.683H1101.73V527.555H1096.2V525.363H1102.29ZM1113.67 526.947C1113.67 524.771 1111.92 523.235 1109.52 523.235H1104.58V534.227H1106.95V530.659H1108.37L1110.88 534.227H1113.57L1110.93 530.467C1112.58 529.987 1113.67 528.675 1113.67 526.947ZM1106.95 525.395H1109.28C1110.45 525.395 1111.25 526.003 1111.25 526.947C1111.25 527.891 1110.45 528.499 1109.28 528.499H1106.95V525.395ZM1123.81 523.235L1120.68 530.979L1117.53 523.235H1114.87L1119.35 534.227H1121.99L1126.47 523.235H1123.81ZM1128.28 534.227H1130.65V523.235H1128.28V534.227ZM1138.64 534.419C1140.3 534.419 1141.82 533.699 1142.89 532.579L1141.18 531.043C1140.56 531.779 1139.65 532.275 1138.64 532.275C1136.78 532.275 1135.21 530.643 1135.21 528.723C1135.21 526.819 1136.78 525.187 1138.64 525.187C1139.63 525.187 1140.56 525.683 1141.18 526.419L1142.89 524.883C1141.82 523.747 1140.3 523.043 1138.64 523.043C1135.47 523.043 1132.78 525.635 1132.78 528.723C1132.78 531.811 1135.47 534.419 1138.64 534.419ZM1153.26 525.363V523.235H1144.8V534.227H1153.26V532.099H1147.17V529.683H1152.7V527.555H1147.17V525.363H1153.26ZM1095.45 555.227H1097.82V548.379L1101.21 554.587L1104.62 548.379V555.227H1106.97V544.235H1104.62L1101.21 550.443L1097.82 544.235H1095.45V555.227ZM1118.23 546.363V544.235H1109.77V555.227H1118.23V553.099H1112.14V550.683H1117.67V548.555H1112.14V546.363H1118.23ZM1124.58 555.419C1127.25 555.419 1128.85 554.027 1128.85 551.931C1128.85 549.899 1127.29 549.195 1124.92 548.667C1123.22 548.283 1122.55 548.027 1122.55 547.227C1122.55 546.571 1123.17 546.043 1124.17 546.043C1125.22 546.043 1126.33 546.475 1127.32 547.275L1128.55 545.563C1127.41 544.603 1126.04 544.043 1124.25 544.043C1121.83 544.043 1120.17 545.435 1120.17 547.467C1120.17 549.595 1121.83 550.251 1124.15 550.779C1125.83 551.163 1126.47 551.403 1126.47 552.187C1126.47 552.875 1125.86 553.419 1124.66 553.419C1123.27 553.419 1122.09 552.875 1121.05 551.979L1119.7 553.595C1120.98 554.779 1122.66 555.419 1124.58 555.419ZM1138.33 544.235V548.555H1133.32V544.235H1130.95V555.227H1133.32V550.683H1138.33V555.227H1140.68V544.235H1138.33Z" fill="#0F0B47"/>
<rect x="945" y="498.227" width="192" height="60" transform="rotate(-90 945 498.227)" fill="#542AED"/>
<rect x="885.5" y="498.227" width="124" height="60" transform="rotate(-90 885.5 498.227)" fill="#E46BB7"/>
<path d="M897.238 403.851H906.58V401.457H901.342L903.592 399.711C905.752 398.145 906.472 396.867 906.472 395.211C906.472 392.889 904.564 391.269 901.936 391.269C899.938 391.269 898.372 392.133 897.148 393.681L898.84 395.319C899.74 394.293 900.658 393.681 901.864 393.681C902.872 393.681 903.736 394.293 903.736 395.319C903.736 396.183 903.268 396.993 901.792 398.163L897.238 401.691V403.851ZM908.242 403.851H917.584V401.457H912.346L914.596 399.711C916.756 398.145 917.476 396.867 917.476 395.211C917.476 392.889 915.568 391.269 912.94 391.269C910.942 391.269 909.376 392.133 908.152 393.681L909.844 395.319C910.744 394.293 911.662 393.681 912.868 393.681C913.876 393.681 914.74 394.293 914.74 395.319C914.74 396.183 914.272 396.993 912.796 398.163L908.242 401.691V403.851ZM922.576 397.695C924.394 397.695 925.672 396.309 925.672 394.527C925.672 392.781 924.448 391.359 922.576 391.359C920.722 391.359 919.498 392.763 919.498 394.545C919.498 396.309 920.722 397.695 922.576 397.695ZM921.118 403.851H923.188L931.792 391.485H929.704L921.118 403.851ZM922.576 396.147C921.838 396.147 921.262 395.499 921.262 394.527C921.262 393.555 921.802 392.925 922.576 392.925C923.332 392.925 923.89 393.573 923.89 394.527C923.89 395.517 923.332 396.147 922.576 396.147ZM930.298 404.049C932.116 404.049 933.376 402.663 933.376 400.881C933.376 399.135 932.17 397.713 930.298 397.713C928.462 397.713 927.202 399.117 927.202 400.881C927.202 402.645 928.462 404.049 930.298 404.049ZM930.298 402.483C929.542 402.483 928.984 401.835 928.984 400.881C928.984 399.891 929.524 399.261 930.298 399.261C931.036 399.261 931.612 399.909 931.612 400.881C931.612 401.853 931.072 402.483 930.298 402.483Z" fill="white"/>
<path d="M962.954 337.207C965.852 337.207 967.724 335.659 967.724 333.517C967.724 331.879 966.482 330.925 965.132 330.619C966.5 330.223 967.454 329.197 967.454 327.775C967.454 325.813 965.708 324.391 962.936 324.391C960.74 324.391 959.264 325.345 958.238 326.587L959.768 328.207C960.596 327.343 961.514 326.767 962.666 326.767C963.89 326.767 964.754 327.343 964.754 328.243C964.754 329.125 963.944 329.629 962.594 329.629L961.172 329.611V331.879H962.594C964.25 331.861 965.006 332.347 965.006 333.301C965.006 334.183 964.196 334.813 962.846 334.813C961.604 334.813 960.434 334.291 959.552 333.355L957.986 335.119C959.03 336.325 960.74 337.207 962.954 337.207ZM975.431 336.973H978.077V334.453H979.715V332.221H978.077V324.625H974.873L969.131 332.401L969.383 334.453H975.431V336.973ZM971.921 332.221L975.431 327.433V332.221H971.921ZM984.367 330.817C986.185 330.817 987.463 329.431 987.463 327.649C987.463 325.903 986.239 324.481 984.367 324.481C982.513 324.481 981.289 325.885 981.289 327.667C981.289 329.431 982.513 330.817 984.367 330.817ZM982.909 336.973H984.979L993.583 324.607H991.495L982.909 336.973ZM984.367 329.269C983.629 329.269 983.053 328.621 983.053 327.649C983.053 326.677 983.593 326.047 984.367 326.047C985.123 326.047 985.681 326.695 985.681 327.649C985.681 328.639 985.123 329.269 984.367 329.269ZM992.089 337.171C993.907 337.171 995.167 335.785 995.167 334.003C995.167 332.257 993.961 330.835 992.089 330.835C990.253 330.835 988.993 332.239 988.993 334.003C988.993 335.767 990.253 337.171 992.089 337.171ZM992.089 335.605C991.333 335.605 990.775 334.957 990.775 334.003C990.775 333.013 991.315 332.383 992.089 332.383C992.827 332.383 993.403 333.031 993.403 334.003C993.403 334.975 992.863 335.605 992.089 335.605Z" fill="white"/>
<path d="M908.878 534.419C911.55 534.419 913.15 533.027 913.15 530.931C913.15 528.899 911.582 528.195 909.214 527.667C907.518 527.283 906.846 527.027 906.846 526.227C906.846 525.571 907.47 525.043 908.462 525.043C909.518 525.043 910.622 525.475 911.614 526.275L912.846 524.563C911.71 523.603 910.334 523.043 908.542 523.043C906.126 523.043 904.462 524.435 904.462 526.467C904.462 528.595 906.126 529.251 908.446 529.779C910.126 530.163 910.766 530.403 910.766 531.187C910.766 531.875 910.158 532.419 908.958 532.419C907.566 532.419 906.382 531.875 905.342 530.979L903.998 532.595C905.278 533.779 906.958 534.419 908.878 534.419ZM923.715 525.363V523.235H915.251V534.227H923.715V532.099H917.619V529.683H923.155V527.555H917.619V525.363H923.715ZM931.201 534.419C932.865 534.419 934.385 533.699 935.457 532.579L933.745 531.043C933.121 531.779 932.209 532.275 931.201 532.275C929.345 532.275 927.777 530.643 927.777 528.723C927.777 526.819 929.345 525.187 931.201 525.187C932.193 525.187 933.121 525.683 933.745 526.419L935.457 524.883C934.385 523.747 932.865 523.043 931.201 523.043C928.033 523.043 925.345 525.635 925.345 528.723C925.345 531.811 928.033 534.419 931.201 534.419ZM942.097 534.419C945.009 534.419 947.073 532.371 947.073 529.475V523.235H944.705V529.379C944.705 531.075 943.617 532.275 942.097 532.275C940.561 532.275 939.473 531.075 939.473 529.379V523.235H937.121V529.475C937.121 532.371 939.169 534.419 942.097 534.419ZM958.699 526.947C958.699 524.771 956.955 523.235 954.555 523.235H949.611V534.227H951.979V530.659H953.403L955.915 534.227H958.603L955.963 530.467C957.611 529.987 958.699 528.675 958.699 526.947ZM951.979 525.395H954.315C955.483 525.395 956.283 526.003 956.283 526.947C956.283 527.891 955.483 528.499 954.315 528.499H951.979V525.395ZM960.876 534.227H963.244V523.235H960.876V534.227ZM968.577 534.227H970.929V525.363H974.369V523.235H965.153V525.363H968.577V534.227ZM979.531 534.227H981.915V530.259L986.203 523.235H983.563L980.715 528.051L977.979 523.235H975.227L979.531 530.259V534.227Z" fill="#0F0B47"/>
<rect x="769" y="498.227" width="203" height="60" transform="rotate(-90 769 498.227)" fill="#542AED"/>
<rect x="709" y="498.227" width="152" height="60" transform="rotate(-90 709 498.227)" fill="#E46BB7"/>
<path d="M720.738 376.35H730.08V373.956H724.842L727.092 372.21C729.252 370.644 729.972 369.366 729.972 367.71C729.972 365.388 728.064 363.768 725.436 363.768C723.438 363.768 721.872 364.632 720.648 366.18L722.34 367.818C723.24 366.792 724.158 366.18 725.364 366.18C726.372 366.18 727.236 366.792 727.236 367.818C727.236 368.682 726.768 369.492 725.292 370.662L720.738 374.19V376.35ZM732.732 376.35H735.72L740.724 365.982V363.984H731.526V366.378H737.646L732.732 376.35ZM745.355 370.194C747.173 370.194 748.451 368.808 748.451 367.026C748.451 365.28 747.227 363.858 745.355 363.858C743.501 363.858 742.277 365.262 742.277 367.044C742.277 368.808 743.501 370.194 745.355 370.194ZM743.897 376.35H745.967L754.571 363.984H752.483L743.897 376.35ZM745.355 368.646C744.617 368.646 744.041 367.998 744.041 367.026C744.041 366.054 744.581 365.424 745.355 365.424C746.111 365.424 746.669 366.072 746.669 367.026C746.669 368.016 746.111 368.646 745.355 368.646ZM753.077 376.548C754.895 376.548 756.155 375.162 756.155 373.38C756.155 371.634 754.949 370.212 753.077 370.212C751.241 370.212 749.981 371.616 749.981 373.38C749.981 375.144 751.241 376.548 753.077 376.548ZM753.077 374.982C752.321 374.982 751.763 374.334 751.763 373.38C751.763 372.39 752.303 371.76 753.077 371.76C753.815 371.76 754.391 372.408 754.391 373.38C754.391 374.352 753.851 374.982 753.077 374.982Z" fill="white"/>
<path d="M785.954 323.57C788.852 323.57 790.724 322.022 790.724 319.88C790.724 318.242 789.482 317.288 788.132 316.982C789.5 316.586 790.454 315.56 790.454 314.138C790.454 312.176 788.708 310.754 785.936 310.754C783.74 310.754 782.264 311.708 781.238 312.95L782.768 314.57C783.596 313.706 784.514 313.13 785.666 313.13C786.89 313.13 787.754 313.706 787.754 314.606C787.754 315.488 786.944 315.992 785.594 315.992L784.172 315.974V318.242H785.594C787.25 318.224 788.006 318.71 788.006 319.664C788.006 320.546 787.196 321.176 785.846 321.176C784.604 321.176 783.434 320.654 782.552 319.718L780.986 321.482C782.03 322.688 783.74 323.57 785.954 323.57ZM798.323 315.344C797.153 315.344 796.019 315.794 795.263 316.532C795.497 314.444 796.577 313.094 798.197 313.094C799.241 313.094 799.961 313.472 800.717 314.102L801.977 312.086C800.969 311.276 799.727 310.754 798.197 310.754C794.759 310.754 792.509 313.508 792.509 317.36C792.509 320.96 794.165 323.552 797.765 323.552C800.465 323.552 802.499 321.806 802.499 319.268C802.499 316.82 800.609 315.344 798.323 315.344ZM797.621 321.302C796.235 321.302 795.569 320.456 795.335 318.944C795.713 318.062 796.541 317.504 797.549 317.504C798.755 317.504 799.763 318.206 799.763 319.394C799.763 320.384 798.935 321.302 797.621 321.302ZM807.314 317.18C809.132 317.18 810.41 315.794 810.41 314.012C810.41 312.266 809.186 310.844 807.314 310.844C805.46 310.844 804.236 312.248 804.236 314.03C804.236 315.794 805.46 317.18 807.314 317.18ZM805.856 323.336H807.926L816.53 310.97H814.442L805.856 323.336ZM807.314 315.632C806.576 315.632 806 314.984 806 314.012C806 313.04 806.54 312.41 807.314 312.41C808.07 312.41 808.628 313.058 808.628 314.012C808.628 315.002 808.07 315.632 807.314 315.632ZM815.036 323.534C816.854 323.534 818.114 322.148 818.114 320.366C818.114 318.62 816.908 317.198 815.036 317.198C813.2 317.198 811.94 318.602 811.94 320.366C811.94 322.13 813.2 323.534 815.036 323.534ZM815.036 321.968C814.28 321.968 813.722 321.32 813.722 320.366C813.722 319.376 814.262 318.746 815.036 318.746C815.774 318.746 816.35 319.394 816.35 320.366C816.35 321.338 815.81 321.968 815.036 321.968Z" fill="white"/>
<path d="M732.314 534.227H738.106C740.202 534.227 741.706 533.011 741.706 531.251C741.706 530.035 740.97 529.011 739.69 528.435C740.666 527.923 741.226 527.107 741.226 525.987C741.226 524.387 739.85 523.235 737.882 523.235H732.314V534.227ZM734.666 527.667V525.251H737.306C738.186 525.251 738.81 525.763 738.81 526.451C738.81 527.155 738.186 527.667 737.306 527.667H734.666ZM734.666 532.211V529.523H737.658C738.618 529.523 739.29 530.083 739.29 530.867C739.29 531.651 738.618 532.211 737.658 532.211H734.666ZM743.861 534.227H746.229V523.235H743.861V534.227ZM753.849 529.891H756.393V531.571C755.785 532.019 755.001 532.275 754.265 532.275C752.377 532.275 750.793 530.643 750.793 528.723C750.793 526.819 752.377 525.187 754.265 525.187C755.273 525.187 756.329 525.667 756.985 526.419L758.697 524.883C757.609 523.731 755.897 523.043 754.265 523.043C751.065 523.043 748.361 525.635 748.361 528.723C748.361 531.811 751.065 534.419 754.265 534.419C755.897 534.419 757.609 533.731 758.697 532.579V528.051H753.849V529.891ZM761.048 534.227H765C768.696 534.227 771.32 531.939 771.32 528.723C771.32 525.507 768.696 523.235 765 523.235H761.048V534.227ZM763.416 532.083V525.379H765.304C767.4 525.379 768.888 526.771 768.888 528.723C768.888 530.691 767.4 532.083 765.304 532.083H763.416ZM781.391 534.227H784.047L779.567 523.235H776.927L772.447 534.227H775.087L775.855 532.339H780.623L781.391 534.227ZM776.607 530.499L778.239 526.483L779.871 530.499H776.607ZM788.389 534.227H790.741V525.363H794.181V523.235H784.965V525.363H788.389V534.227ZM804.016 534.227H806.672L802.192 523.235H799.552L795.072 534.227H797.712L798.48 532.339H803.248L804.016 534.227ZM799.232 530.499L800.864 526.483L802.496 530.499H799.232Z" fill="#0F0B47"/>
<rect x="591.5" y="498.227" width="220" height="60" transform="rotate(-90 591.5 498.227)" fill="#542AED"/>
<rect x="531.5" y="498.227" width="158" height="60" transform="rotate(-90 531.5 498.227)" fill="#E46BB7"/>
<path d="M542.738 368.116H552.08V365.722H546.842L549.092 363.976C551.252 362.41 551.972 361.132 551.972 359.476C551.972 357.154 550.064 355.534 547.436 355.534C545.438 355.534 543.872 356.398 542.648 357.946L544.34 359.584C545.24 358.558 546.158 357.946 547.364 357.946C548.372 357.946 549.236 358.558 549.236 359.584C549.236 360.448 548.768 361.258 547.292 362.428L542.738 365.956V368.116ZM558.8 368.332C561.518 368.332 563.768 367.054 563.768 364.804C563.768 363.382 562.796 362.302 561.338 361.726C562.58 361.186 563.462 360.286 563.462 358.9C563.462 356.776 561.266 355.534 558.8 355.534C556.388 355.534 554.156 356.722 554.156 358.9C554.156 360.304 555.038 361.204 556.262 361.726C554.84 362.266 553.832 363.346 553.832 364.804C553.832 367.036 556.064 368.332 558.8 368.332ZM558.8 360.808C557.828 360.736 556.802 360.196 556.802 359.242C556.802 358.396 557.612 357.766 558.8 357.766C559.988 357.766 560.816 358.396 560.816 359.242C560.816 360.16 559.772 360.736 558.8 360.808ZM558.8 366.1C557.486 366.1 556.532 365.452 556.532 364.516C556.532 363.544 557.738 362.932 558.8 362.896C559.862 362.932 561.086 363.544 561.086 364.516C561.086 365.452 560.114 366.1 558.8 366.1ZM568.673 361.96C570.491 361.96 571.769 360.574 571.769 358.792C571.769 357.046 570.545 355.624 568.673 355.624C566.819 355.624 565.595 357.028 565.595 358.81C565.595 360.574 566.819 361.96 568.673 361.96ZM567.215 368.116H569.285L577.889 355.75H575.801L567.215 368.116ZM568.673 360.412C567.935 360.412 567.359 359.764 567.359 358.792C567.359 357.82 567.899 357.19 568.673 357.19C569.429 357.19 569.987 357.838 569.987 358.792C569.987 359.782 569.429 360.412 568.673 360.412ZM576.395 368.314C578.213 368.314 579.473 366.928 579.473 365.146C579.473 363.4 578.267 361.978 576.395 361.978C574.559 361.978 573.299 363.382 573.299 365.146C573.299 366.91 574.559 368.314 576.395 368.314ZM576.395 366.748C575.639 366.748 575.081 366.1 575.081 365.146C575.081 364.156 575.621 363.526 576.395 363.526C577.133 363.526 577.709 364.174 577.709 365.146C577.709 366.118 577.169 366.748 576.395 366.748Z" fill="white"/>
<path d="M608.954 306.705C611.852 306.705 613.724 305.157 613.724 303.015C613.724 301.377 612.482 300.423 611.132 300.117C612.5 299.721 613.454 298.695 613.454 297.273C613.454 295.311 611.708 293.889 608.936 293.889C606.74 293.889 605.264 294.843 604.238 296.085L605.768 297.705C606.596 296.841 607.514 296.265 608.666 296.265C609.89 296.265 610.754 296.841 610.754 297.741C610.754 298.623 609.944 299.127 608.594 299.127L607.172 299.109V301.377H608.594C610.25 301.359 611.006 301.845 611.006 302.799C611.006 303.681 610.196 304.311 608.846 304.311C607.604 304.311 606.434 303.789 605.552 302.853L603.986 304.617C605.03 305.823 606.74 306.705 608.954 306.705ZM620.081 293.889C617.381 293.889 615.347 295.635 615.347 298.173C615.347 300.621 617.237 302.097 619.523 302.097C620.693 302.097 621.827 301.647 622.583 300.909C622.349 302.997 621.269 304.347 619.649 304.347C618.605 304.347 617.885 303.969 617.129 303.339L615.869 305.355C616.877 306.165 618.119 306.687 619.649 306.687C623.087 306.687 625.337 303.933 625.337 300.081C625.337 296.481 623.681 293.889 620.081 293.889ZM620.297 299.937C619.091 299.937 618.083 299.235 618.083 298.047C618.083 297.057 618.911 296.139 620.225 296.139C621.611 296.139 622.277 296.985 622.511 298.497C622.133 299.379 621.305 299.937 620.297 299.937ZM630.314 300.315C632.132 300.315 633.41 298.929 633.41 297.147C633.41 295.401 632.186 293.979 630.314 293.979C628.46 293.979 627.236 295.383 627.236 297.165C627.236 298.929 628.46 300.315 630.314 300.315ZM628.856 306.471H630.926L639.53 294.105H637.442L628.856 306.471ZM630.314 298.767C629.576 298.767 629 298.119 629 297.147C629 296.175 629.54 295.545 630.314 295.545C631.07 295.545 631.628 296.193 631.628 297.147C631.628 298.137 631.07 298.767 630.314 298.767ZM638.036 306.669C639.854 306.669 641.114 305.283 641.114 303.501C641.114 301.755 639.908 300.333 638.036 300.333C636.2 300.333 634.94 301.737 634.94 303.501C634.94 305.265 636.2 306.669 638.036 306.669ZM638.036 305.103C637.28 305.103 636.722 304.455 636.722 303.501C636.722 302.511 637.262 301.881 638.036 301.881C638.774 301.881 639.35 302.529 639.35 303.501C639.35 304.473 638.81 305.103 638.036 305.103Z" fill="white"/>
<path d="M569.506 534.419C571.17 534.419 572.69 533.699 573.762 532.579L572.05 531.043C571.426 531.779 570.514 532.275 569.506 532.275C567.65 532.275 566.082 530.643 566.082 528.723C566.082 526.819 567.65 525.187 569.506 525.187C570.498 525.187 571.426 525.683 572.05 526.419L573.762 524.883C572.69 523.747 571.17 523.043 569.506 523.043C566.338 523.043 563.65 525.635 563.65 528.723C563.65 531.811 566.338 534.419 569.506 534.419ZM575.665 534.227H578.033V523.235H575.665V534.227ZM583.901 535.411H586.365L591.869 522.339H589.405L583.901 535.411ZM602.928 534.419C604.592 534.419 606.112 533.699 607.184 532.579L605.472 531.043C604.848 531.779 603.936 532.275 602.928 532.275C601.072 532.275 599.504 530.643 599.504 528.723C599.504 526.819 601.072 525.187 602.928 525.187C603.92 525.187 604.848 525.683 605.472 526.419L607.184 524.883C606.112 523.747 604.592 523.043 602.928 523.043C599.76 523.043 597.072 525.635 597.072 528.723C597.072 531.811 599.76 534.419 602.928 534.419ZM609.087 534.227H613.039C616.735 534.227 619.359 531.939 619.359 528.723C619.359 525.507 616.735 523.235 613.039 523.235H609.087V534.227ZM611.455 532.083V525.379H613.343C615.439 525.379 616.927 526.771 616.927 528.723C616.927 530.691 615.439 532.083 613.343 532.083H611.455Z" fill="#0F0B47"/>
<rect x="424" y="498.227" width="248" height="60" transform="rotate(-90 424 498.227)" fill="#542AED"/>
<rect x="364" y="498.227" width="186" height="60" transform="rotate(-90 364 498.227)" fill="#E46BB7"/>
<path d="M380.454 342.854C383.352 342.854 385.224 341.306 385.224 339.164C385.224 337.526 383.982 336.572 382.632 336.266C384 335.87 384.954 334.844 384.954 333.422C384.954 331.46 383.208 330.038 380.436 330.038C378.24 330.038 376.764 330.992 375.738 332.234L377.268 333.854C378.096 332.99 379.014 332.414 380.166 332.414C381.39 332.414 382.254 332.99 382.254 333.89C382.254 334.772 381.444 335.276 380.094 335.276L378.672 335.258V337.526H380.094C381.75 337.508 382.506 337.994 382.506 338.948C382.506 339.83 381.696 340.46 380.346 340.46C379.104 340.46 377.934 339.938 377.052 339.002L375.486 340.766C376.53 341.972 378.24 342.854 380.454 342.854ZM391.563 342.854C394.461 342.854 396.333 341.306 396.333 339.164C396.333 337.526 395.091 336.572 393.741 336.266C395.109 335.87 396.063 334.844 396.063 333.422C396.063 331.46 394.317 330.038 391.545 330.038C389.349 330.038 387.873 330.992 386.847 332.234L388.377 333.854C389.205 332.99 390.123 332.414 391.275 332.414C392.499 332.414 393.363 332.99 393.363 333.89C393.363 334.772 392.553 335.276 391.203 335.276L389.781 335.258V337.526H391.203C392.859 337.508 393.615 337.994 393.615 338.948C393.615 339.83 392.805 340.46 391.455 340.46C390.213 340.46 389.043 339.938 388.161 339.002L386.595 340.766C387.639 341.972 389.349 342.854 391.563 342.854ZM401.287 336.464C403.105 336.464 404.383 335.078 404.383 333.296C404.383 331.55 403.159 330.128 401.287 330.128C399.433 330.128 398.209 331.532 398.209 333.314C398.209 335.078 399.433 336.464 401.287 336.464ZM399.829 342.62H401.899L410.503 330.254H408.415L399.829 342.62ZM401.287 334.916C400.549 334.916 399.973 334.268 399.973 333.296C399.973 332.324 400.513 331.694 401.287 331.694C402.043 331.694 402.601 332.342 402.601 333.296C402.601 334.286 402.043 334.916 401.287 334.916ZM409.009 342.818C410.827 342.818 412.087 341.432 412.087 339.65C412.087 337.904 410.881 336.482 409.009 336.482C407.173 336.482 405.913 337.886 405.913 339.65C405.913 341.414 407.173 342.818 409.009 342.818ZM409.009 341.252C408.253 341.252 407.695 340.604 407.695 339.65C407.695 338.66 408.235 338.03 409.009 338.03C409.747 338.03 410.323 338.678 410.323 339.65C410.323 340.622 409.783 341.252 409.009 341.252Z" fill="white"/>
<path d="M442.322 278.557H444.968V276.037H446.606V273.805H444.968V266.209H441.764L436.022 273.985L436.274 276.037H442.322V278.557ZM438.812 273.805L442.322 269.017V273.805H438.812ZM454.011 278.557H456.657V276.037H458.295V273.805H456.657V266.209H453.453L447.711 273.985L447.963 276.037H454.011V278.557ZM450.501 273.805L454.011 269.017V273.805H450.501ZM462.947 272.401C464.765 272.401 466.043 271.015 466.043 269.233C466.043 267.487 464.819 266.065 462.947 266.065C461.093 266.065 459.869 267.469 459.869 269.251C459.869 271.015 461.093 272.401 462.947 272.401ZM461.489 278.557H463.559L472.163 266.191H470.075L461.489 278.557ZM462.947 270.853C462.209 270.853 461.633 270.205 461.633 269.233C461.633 268.261 462.173 267.631 462.947 267.631C463.703 267.631 464.261 268.279 464.261 269.233C464.261 270.223 463.703 270.853 462.947 270.853ZM470.669 278.755C472.487 278.755 473.747 277.369 473.747 275.587C473.747 273.841 472.541 272.419 470.669 272.419C468.833 272.419 467.573 273.823 467.573 275.587C467.573 277.351 468.833 278.755 470.669 278.755ZM470.669 277.189C469.913 277.189 469.355 276.541 469.355 275.587C469.355 274.597 469.895 273.967 470.669 273.967C471.407 273.967 471.983 274.615 471.983 275.587C471.983 276.559 471.443 277.189 470.669 277.189Z" fill="white"/>
<path d="M375.205 534.227H377.573V527.379L380.965 533.587L384.373 527.379V534.227H386.725V523.235H384.373L380.965 529.443L377.573 523.235H375.205V534.227ZM397.981 525.363V523.235H389.517V534.227H397.981V532.099H391.885V529.683H397.421V527.555H391.885V525.363H397.981ZM404.331 534.419C407.003 534.419 408.603 533.027 408.603 530.931C408.603 528.899 407.035 528.195 404.667 527.667C402.971 527.283 402.299 527.027 402.299 526.227C402.299 525.571 402.923 525.043 403.915 525.043C404.971 525.043 406.075 525.475 407.067 526.275L408.299 524.563C407.163 523.603 405.787 523.043 403.995 523.043C401.579 523.043 399.915 524.435 399.915 526.467C399.915 528.595 401.579 529.251 403.899 529.779C405.579 530.163 406.219 530.403 406.219 531.187C406.219 531.875 405.611 532.419 404.411 532.419C403.019 532.419 401.835 531.875 400.795 530.979L399.451 532.595C400.731 533.779 402.411 534.419 404.331 534.419ZM414.769 534.419C417.441 534.419 419.041 533.027 419.041 530.931C419.041 528.899 417.473 528.195 415.105 527.667C413.409 527.283 412.737 527.027 412.737 526.227C412.737 525.571 413.361 525.043 414.353 525.043C415.409 525.043 416.513 525.475 417.505 526.275L418.737 524.563C417.601 523.603 416.225 523.043 414.433 523.043C412.017 523.043 410.353 524.435 410.353 526.467C410.353 528.595 412.017 529.251 414.337 529.779C416.017 530.163 416.657 530.403 416.657 531.187C416.657 531.875 416.049 532.419 414.849 532.419C413.457 532.419 412.273 531.875 411.233 530.979L409.889 532.595C411.169 533.779 412.849 534.419 414.769 534.419ZM429.094 534.227H431.75L427.27 523.235H424.63L420.15 534.227H422.79L423.558 532.339H428.326L429.094 534.227ZM424.31 530.499L425.942 526.483L427.574 530.499H424.31ZM438.38 529.891H440.924V531.571C440.316 532.019 439.532 532.275 438.796 532.275C436.908 532.275 435.324 530.643 435.324 528.723C435.324 526.819 436.908 525.187 438.796 525.187C439.804 525.187 440.86 525.667 441.516 526.419L443.228 524.883C442.14 523.731 440.428 523.043 438.796 523.043C435.596 523.043 432.892 525.635 432.892 528.723C432.892 531.811 435.596 534.419 438.796 534.419C440.428 534.419 442.14 533.731 443.228 532.579V528.051H438.38V529.891ZM445.58 534.227H447.948V523.235H445.58V534.227ZM450.736 534.227H453.104V527.123L458.4 534.227H460.768V523.235H458.4V530.339L453.104 523.235H450.736V534.227ZM468.38 529.891H470.924V531.571C470.316 532.019 469.532 532.275 468.796 532.275C466.908 532.275 465.324 530.643 465.324 528.723C465.324 526.819 466.908 525.187 468.796 525.187C469.804 525.187 470.86 525.667 471.516 526.419L473.228 524.883C472.14 523.731 470.428 523.043 468.796 523.043C465.596 523.043 462.892 525.635 462.892 528.723C462.892 531.811 465.596 534.419 468.796 534.419C470.428 534.419 472.14 533.731 473.228 532.579V528.051H468.38V529.891Z" fill="#0F0B47"/>
<rect x="250.781" y="498.227" width="401" height="60" transform="rotate(-90 250.781 498.227)" fill="#542AED"/>
<rect x="190.781" y="498.227" width="271" height="60" transform="rotate(-90 190.781 498.227)" fill="#E46BB7"/>
<path d="M206.603 256.715H209.249V254.195H210.887V251.963H209.249V244.367H206.045L200.303 252.143L200.555 254.195H206.603V256.715ZM203.093 251.963L206.603 247.175V251.963H203.093ZM217.267 256.931C219.985 256.931 222.235 255.653 222.235 253.403C222.235 251.981 221.263 250.901 219.805 250.325C221.047 249.785 221.929 248.885 221.929 247.499C221.929 245.375 219.733 244.133 217.267 244.133C214.855 244.133 212.623 245.321 212.623 247.499C212.623 248.903 213.505 249.803 214.729 250.325C213.307 250.865 212.299 251.945 212.299 253.403C212.299 255.635 214.531 256.931 217.267 256.931ZM217.267 249.407C216.295 249.335 215.269 248.795 215.269 247.841C215.269 246.995 216.079 246.365 217.267 246.365C218.455 246.365 219.283 246.995 219.283 247.841C219.283 248.759 218.239 249.335 217.267 249.407ZM217.267 254.699C215.953 254.699 214.999 254.051 214.999 253.115C214.999 252.143 216.205 251.531 217.267 251.495C218.329 251.531 219.553 252.143 219.553 253.115C219.553 254.051 218.581 254.699 217.267 254.699ZM227.14 250.559C228.958 250.559 230.236 249.173 230.236 247.391C230.236 245.645 229.012 244.223 227.14 244.223C225.286 244.223 224.062 245.627 224.062 247.409C224.062 249.173 225.286 250.559 227.14 250.559ZM225.682 256.715H227.752L236.356 244.349H234.268L225.682 256.715ZM227.14 249.011C226.402 249.011 225.826 248.363 225.826 247.391C225.826 246.419 226.366 245.789 227.14 245.789C227.896 245.789 228.454 246.437 228.454 247.391C228.454 248.381 227.896 249.011 227.14 249.011ZM234.862 256.913C236.68 256.913 237.94 255.527 237.94 253.745C237.94 251.999 236.734 250.577 234.862 250.577C233.026 250.577 231.766 251.981 231.766 253.745C231.766 255.509 233.026 256.913 234.862 256.913ZM234.862 255.347C234.106 255.347 233.548 254.699 233.548 253.745C233.548 252.755 234.088 252.125 234.862 252.125C235.6 252.125 236.176 252.773 236.176 253.745C236.176 254.717 235.636 255.347 234.862 255.347Z" fill="white"/>
<path d="M265.009 131.193H267.997L273.001 120.825V118.827H263.803V121.221H269.923L265.009 131.193ZM277.146 131.193H279.792V118.827H277.668L273.96 121.311L275.04 123.183L277.146 121.869V131.193ZM285.367 125.037C287.185 125.037 288.463 123.651 288.463 121.869C288.463 120.123 287.239 118.701 285.367 118.701C283.513 118.701 282.289 120.105 282.289 121.887C282.289 123.651 283.513 125.037 285.367 125.037ZM283.909 131.193H285.979L294.583 118.827H292.495L283.909 131.193ZM285.367 123.489C284.629 123.489 284.053 122.841 284.053 121.869C284.053 120.897 284.593 120.267 285.367 120.267C286.123 120.267 286.681 120.915 286.681 121.869C286.681 122.859 286.123 123.489 285.367 123.489ZM293.089 131.391C294.907 131.391 296.167 130.005 296.167 128.223C296.167 126.477 294.961 125.055 293.089 125.055C291.253 125.055 289.993 126.459 289.993 128.223C289.993 129.987 291.253 131.391 293.089 131.391ZM293.089 129.825C292.333 129.825 291.775 129.177 291.775 128.223C291.775 127.233 292.315 126.603 293.089 126.603C293.827 126.603 294.403 127.251 294.403 128.223C294.403 129.195 293.863 129.825 293.089 129.825Z" fill="white"/>
<path d="M205.611 534.227H209.563C213.259 534.227 215.883 531.939 215.883 528.723C215.883 525.507 213.259 523.235 209.563 523.235H205.611V534.227ZM207.979 532.083V525.379H209.867C211.963 525.379 213.451 526.771 213.451 528.723C213.451 530.691 211.963 532.083 209.867 532.083H207.979ZM225.953 534.227H228.609L224.129 523.235H221.489L217.009 534.227H219.649L220.417 532.339H225.185L225.953 534.227ZM221.169 530.499L222.801 526.483L224.433 530.499H221.169ZM232.952 534.227H235.304V525.363H238.744V523.235H229.528V525.363H232.952V534.227ZM248.578 534.227H251.234L246.754 523.235H244.114L239.634 534.227H242.274L243.042 532.339H247.81L248.578 534.227ZM243.794 530.499L245.426 526.483L247.058 530.499H243.794ZM253.033 534.227H258.825C260.921 534.227 262.425 533.011 262.425 531.251C262.425 530.035 261.689 529.011 260.409 528.435C261.385 527.923 261.945 527.107 261.945 525.987C261.945 524.387 260.569 523.235 258.601 523.235H253.033V534.227ZM255.385 527.667V525.251H258.025C258.905 525.251 259.529 525.763 259.529 526.451C259.529 527.155 258.905 527.667 258.025 527.667H255.385ZM255.385 532.211V529.523H258.377C259.337 529.523 260.009 530.083 260.009 530.867C260.009 531.651 259.337 532.211 258.377 532.211H255.385ZM272.532 534.227H275.188L270.708 523.235H268.068L263.588 534.227H266.228L266.996 532.339H271.764L272.532 534.227ZM267.748 530.499L269.38 526.483L271.012 530.499H267.748ZM281.05 534.419C283.722 534.419 285.322 533.027 285.322 530.931C285.322 528.899 283.754 528.195 281.386 527.667C279.69 527.283 279.018 527.027 279.018 526.227C279.018 525.571 279.642 525.043 280.634 525.043C281.69 525.043 282.794 525.475 283.786 526.275L285.018 524.563C283.882 523.603 282.506 523.043 280.714 523.043C278.298 523.043 276.634 524.435 276.634 526.467C276.634 528.595 278.298 529.251 280.618 529.779C282.298 530.163 282.938 530.403 282.938 531.187C282.938 531.875 282.33 532.419 281.13 532.419C279.738 532.419 278.554 531.875 277.514 530.979L276.17 532.595C277.45 533.779 279.13 534.419 281.05 534.419ZM295.887 525.363V523.235H287.423V534.227H295.887V532.099H289.791V529.683H295.327V527.555H289.791V525.363H295.887Z" fill="#0F0B47"/>
<rect x="74" y="498.227" width="435" height="60" transform="rotate(-90 74 498.227)" fill="#542AED"/>
<rect x="14" y="498.227" width="339" height="60" transform="rotate(-90 14 498.227)" fill="#E46BB7"/>
<path d="M89.0434 92.6523H92.0314L97.0354 82.2843V80.2863H87.8374V82.6803H93.9574L89.0434 92.6523ZM99.3266 92.6523H102.315L107.319 82.2843V80.2863H98.1206V82.6803H104.241L99.3266 92.6523ZM111.95 86.4963C113.768 86.4963 115.046 85.1103 115.046 83.3283C115.046 81.5823 113.822 80.1603 111.95 80.1603C110.096 80.1603 108.872 81.5643 108.872 83.3463C108.872 85.1103 110.096 86.4963 111.95 86.4963ZM110.492 92.6523H112.562L121.166 80.2863H119.078L110.492 92.6523ZM111.95 84.9483C111.212 84.9483 110.636 84.3003 110.636 83.3283C110.636 82.3563 111.176 81.7263 111.95 81.7263C112.706 81.7263 113.264 82.3743 113.264 83.3283C113.264 84.3183 112.706 84.9483 111.95 84.9483ZM119.672 92.8503C121.49 92.8503 122.75 91.4643 122.75 89.6823C122.75 87.9363 121.544 86.5143 119.672 86.5143C117.836 86.5143 116.576 87.9183 116.576 89.6823C116.576 91.4463 117.836 92.8503 119.672 92.8503ZM119.672 91.2843C118.916 91.2843 118.358 90.6363 118.358 89.6823C118.358 88.6923 118.898 88.0623 119.672 88.0623C120.41 88.0623 120.986 88.7103 120.986 89.6823C120.986 90.6543 120.446 91.2843 119.672 91.2843Z" fill="white"/>
<path d="M33.214 179.68C32.044 179.68 30.91 180.13 30.154 180.868C30.388 178.78 31.468 177.43 33.088 177.43C34.132 177.43 34.852 177.808 35.608 178.438L36.868 176.422C35.86 175.612 34.618 175.09 33.088 175.09C29.65 175.09 27.4 177.844 27.4 181.696C27.4 185.296 29.056 187.888 32.656 187.888C35.356 187.888 37.39 186.142 37.39 183.604C37.39 181.156 35.5 179.68 33.214 179.68ZM32.512 185.638C31.126 185.638 30.46 184.792 30.226 183.28C30.604 182.398 31.432 181.84 32.44 181.84C33.646 181.84 34.654 182.542 34.654 183.73C34.654 184.72 33.826 185.638 32.512 185.638ZM44.5627 187.888C47.8207 187.888 50.1067 185.242 50.1067 181.48C50.1067 177.736 47.8207 175.09 44.5627 175.09C41.3047 175.09 39.0007 177.736 39.0007 181.48C39.0007 185.242 41.3047 187.888 44.5627 187.888ZM44.5627 185.476C42.9067 185.476 41.7367 183.802 41.7367 181.48C41.7367 179.158 42.9067 177.502 44.5627 177.502C46.2187 177.502 47.3887 179.158 47.3887 181.48C47.3887 183.802 46.2187 185.476 44.5627 185.476ZM55.0368 181.516C56.8548 181.516 58.1328 180.13 58.1328 178.348C58.1328 176.602 56.9088 175.18 55.0368 175.18C53.1828 175.18 51.9588 176.584 51.9588 178.366C51.9588 180.13 53.1828 181.516 55.0368 181.516ZM53.5788 187.672H55.6488L64.2528 175.306H62.1648L53.5788 187.672ZM55.0368 179.968C54.2988 179.968 53.7228 179.32 53.7228 178.348C53.7228 177.376 54.2628 176.746 55.0368 176.746C55.7928 176.746 56.3508 177.394 56.3508 178.348C56.3508 179.338 55.7928 179.968 55.0368 179.968ZM62.7588 187.87C64.5768 187.87 65.8368 186.484 65.8368 184.702C65.8368 182.956 64.6308 181.534 62.7588 181.534C60.9228 181.534 59.6628 182.938 59.6628 184.702C59.6628 186.466 60.9228 187.87 62.7588 187.87ZM62.7588 186.304C62.0028 186.304 61.4448 185.656 61.4448 184.702C61.4448 183.712 61.9848 183.082 62.7588 183.082C63.4968 183.082 64.0728 183.73 64.0728 184.702C64.0728 185.674 63.5328 186.304 62.7588 186.304Z" fill="white"/>
<path d="M22.0451 534.419C25.2131 534.419 27.8691 531.811 27.8691 528.723C27.8691 525.635 25.2131 523.043 22.0451 523.043C18.8771 523.043 16.1891 525.635 16.1891 528.723C16.1891 531.811 18.8771 534.419 22.0451 534.419ZM22.0451 532.275C20.1891 532.275 18.6211 530.643 18.6211 528.723C18.6211 526.819 20.1891 525.187 22.0451 525.187C23.8851 525.187 25.4531 526.819 25.4531 528.723C25.4531 530.643 23.8851 532.275 22.0451 532.275ZM30.017 534.227H32.385V530.659H34.961C37.361 530.659 39.105 529.123 39.105 526.947C39.105 524.771 37.361 523.235 34.961 523.235H30.017V534.227ZM32.385 528.499V525.395H34.721C35.889 525.395 36.689 526.003 36.689 526.947C36.689 527.891 35.889 528.499 34.721 528.499H32.385ZM49.606 525.363V523.235H41.142V534.227H49.606V532.099H43.51V529.683H49.046V527.555H43.51V525.363H49.606ZM51.892 534.227H54.26V527.123L59.556 534.227H61.924V523.235H59.556V530.339L54.26 523.235H51.892V534.227ZM68.7685 534.419C71.4405 534.419 73.0405 533.027 73.0405 530.931C73.0405 528.899 71.4725 528.195 69.1045 527.667C67.4085 527.283 66.7365 527.027 66.7365 526.227C66.7365 525.571 67.3605 525.043 68.3525 525.043C69.4085 525.043 70.5125 525.475 71.5045 526.275L72.7365 524.563C71.6005 523.603 70.2245 523.043 68.4325 523.043C66.0165 523.043 64.3525 524.435 64.3525 526.467C64.3525 528.595 66.0165 529.251 68.3365 529.779C70.0165 530.163 70.6565 530.403 70.6565 531.187C70.6565 531.875 70.0485 532.419 68.8485 532.419C67.4565 532.419 66.2725 531.875 65.2325 530.979L63.8885 532.595C65.1685 533.779 66.8485 534.419 68.7685 534.419ZM80.342 534.419C83.51 534.419 86.166 531.811 86.166 528.723C86.166 525.635 83.51 523.043 80.342 523.043C77.174 523.043 74.486 525.635 74.486 528.723C74.486 531.811 77.174 534.419 80.342 534.419ZM80.342 532.275C78.486 532.275 76.918 530.643 76.918 528.723C76.918 526.819 78.486 525.187 80.342 525.187C82.182 525.187 83.75 526.819 83.75 528.723C83.75 530.643 82.182 532.275 80.342 532.275ZM93.0499 534.419C95.9619 534.419 98.0259 532.371 98.0259 529.475V523.235H95.6579V529.379C95.6579 531.075 94.5699 532.275 93.0499 532.275C91.5139 532.275 90.4259 531.075 90.4259 529.379V523.235H88.0739V529.475C88.0739 532.371 90.1219 534.419 93.0499 534.419ZM109.652 526.947C109.652 524.771 107.908 523.235 105.508 523.235H100.564V534.227H102.932V530.659H104.356L106.868 534.227H109.556L106.916 530.467C108.564 529.987 109.652 528.675 109.652 526.947ZM102.932 525.395H105.268C106.436 525.395 107.236 526.003 107.236 526.947C107.236 527.891 106.436 528.499 105.268 528.499H102.932V525.395ZM117.03 534.419C118.694 534.419 120.214 533.699 121.286 532.579L119.574 531.043C118.95 531.779 118.038 532.275 117.03 532.275C115.174 532.275 113.606 530.643 113.606 528.723C113.606 526.819 115.174 525.187 117.03 525.187C118.022 525.187 118.95 525.683 119.574 526.419L121.286 524.883C120.214 523.747 118.694 523.043 117.03 523.043C113.862 523.043 111.174 525.635 111.174 528.723C111.174 531.811 113.862 534.419 117.03 534.419ZM131.653 525.363V523.235H123.189V534.227H131.653V532.099H125.557V529.683H131.093V527.555H125.557V525.363H131.653ZM20.3373 555.227H22.7053V548.379L26.0973 554.587L29.5053 548.379V555.227H31.8573V544.235H29.5053L26.0973 550.443L22.7053 544.235H20.3373V555.227ZM39.8498 555.419C43.0178 555.419 45.6738 552.811 45.6738 549.723C45.6738 546.635 43.0178 544.043 39.8498 544.043C36.6818 544.043 33.9938 546.635 33.9938 549.723C33.9938 552.811 36.6818 555.419 39.8498 555.419ZM39.8498 553.275C37.9938 553.275 36.4258 551.643 36.4258 549.723C36.4258 547.819 37.9938 546.187 39.8498 546.187C41.6898 546.187 43.2578 547.819 43.2578 549.723C43.2578 551.643 41.6898 553.275 39.8498 553.275ZM47.8217 555.227H50.1897V548.123L55.4857 555.227H57.8537V544.235H55.4857V551.339L50.1897 544.235H47.8217V555.227ZM60.6342 555.227H63.0022V544.235H60.6342V555.227ZM68.3344 555.227H70.6864V546.363H74.1264V544.235H64.9104V546.363H68.3344V555.227ZM81.2092 555.419C84.3772 555.419 87.0332 552.811 87.0332 549.723C87.0332 546.635 84.3772 544.043 81.2092 544.043C78.0412 544.043 75.3532 546.635 75.3532 549.723C75.3532 552.811 78.0412 555.419 81.2092 555.419ZM81.2092 553.275C79.3532 553.275 77.7852 551.643 77.7852 549.723C77.7852 547.819 79.3532 546.187 81.2092 546.187C83.0492 546.187 84.6172 547.819 84.6172 549.723C84.6172 551.643 83.0492 553.275 81.2092 553.275ZM98.2691 547.947C98.2691 545.771 96.5251 544.235 94.1251 544.235H89.1811V555.227H91.5491V551.659H92.9731L95.4851 555.227H98.1731L95.5331 551.467C97.1811 550.987 98.2691 549.675 98.2691 547.947ZM91.5491 546.395H93.8851C95.0531 546.395 95.8531 547.003 95.8531 547.947C95.8531 548.891 95.0531 549.499 93.8851 549.499H91.5491V546.395ZM100.447 555.227H102.815V544.235H100.447V555.227ZM105.603 555.227H107.971V548.123L113.267 555.227H115.635V544.235H113.267V551.339L107.971 544.235H105.603V555.227ZM123.247 550.891H125.791V552.571C125.183 553.019 124.399 553.275 123.663 553.275C121.775 553.275 120.191 551.643 120.191 549.723C120.191 547.819 121.775 546.187 123.663 546.187C124.671 546.187 125.727 546.667 126.383 547.419L128.095 545.883C127.007 544.731 125.295 544.043 123.663 544.043C120.463 544.043 117.759 546.635 117.759 549.723C117.759 552.811 120.463 555.419 123.663 555.419C125.295 555.419 127.007 554.731 128.095 553.579V549.051H123.247V550.891Z" fill="#0F0B47"/>
<path d="M253.157 55.0763H247.461V49.2523H243.429V55.0763H237.701V58.8843H243.429V64.7083H247.461V58.8843H253.157V55.0763ZM267.191 67.6523H271.895V63.1723H274.807V59.2043H271.895V45.7003H266.199L255.991 59.5243L256.439 63.1723H267.191V67.6523ZM260.951 59.2043L267.191 50.6923V59.2043H260.951ZM286.148 68.0363C290.98 68.0363 294.98 65.7643 294.98 61.7643C294.98 59.2363 293.252 57.3163 290.66 56.2923C292.868 55.3323 294.436 53.7323 294.436 51.2683C294.436 47.4923 290.532 45.2843 286.148 45.2843C281.86 45.2843 277.892 47.3963 277.892 51.2683C277.892 53.7643 279.46 55.3643 281.636 56.2923C279.108 57.2523 277.316 59.1723 277.316 61.7643C277.316 65.7323 281.284 68.0363 286.148 68.0363ZM286.148 54.6603C284.42 54.5323 282.596 53.5723 282.596 51.8763C282.596 50.3723 284.036 49.2523 286.148 49.2523C288.26 49.2523 289.732 50.3723 289.732 51.8763C289.732 53.5083 287.876 54.5323 286.148 54.6603ZM286.148 64.0683C283.812 64.0683 282.116 62.9163 282.116 61.2523C282.116 59.5243 284.26 58.4363 286.148 58.3723C288.036 58.4363 290.212 59.5243 290.212 61.2523C290.212 62.9163 288.484 64.0683 286.148 64.0683ZM303.701 56.7083C306.933 56.7083 309.205 54.2443 309.205 51.0763C309.205 47.9723 307.029 45.4443 303.701 45.4443C300.405 45.4443 298.229 47.9403 298.229 51.1083C298.229 54.2443 300.405 56.7083 303.701 56.7083ZM301.109 67.6523L304.789 67.6523L320.085 45.6683H316.373L301.109 67.6523ZM303.701 53.9563C302.389 53.9563 301.365 52.8043 301.365 51.0763C301.365 49.3483 302.325 48.2283 303.701 48.2283C305.045 48.2283 306.037 49.3803 306.037 51.0763C306.037 52.8363 305.045 53.9563 303.701 53.9563ZM317.429 68.0043C320.661 68.0043 322.901 65.5403 322.901 62.3723C322.901 59.2683 320.757 56.7403 317.429 56.7403C314.165 56.7403 311.925 59.2363 311.925 62.3723C311.925 65.5083 314.165 68.0043 317.429 68.0043ZM317.429 65.2203C316.085 65.2203 315.093 64.0683 315.093 62.3723C315.093 60.6123 316.053 59.4923 317.429 59.4923C318.741 59.4923 319.765 60.6443 319.765 62.3723C319.765 64.1003 318.805 65.2203 317.429 65.2203Z" fill="#0F0B47"/>
<path d="M428.876 208.096H423.18V202.272H419.148V208.096H413.42V211.904H419.148V217.728H423.18V211.904H428.876V208.096ZM440.477 221.088C445.629 221.088 448.957 218.336 448.957 214.528C448.957 211.616 446.749 209.92 444.349 209.376C446.781 208.672 448.477 206.848 448.477 204.32C448.477 200.832 445.373 198.304 440.445 198.304C436.541 198.304 433.917 200 432.093 202.208L434.813 205.088C436.285 203.552 437.917 202.528 439.965 202.528C442.141 202.528 443.677 203.552 443.677 205.152C443.677 206.72 442.237 207.616 439.837 207.616L437.309 207.584V211.616H439.837C442.781 211.584 444.125 212.448 444.125 214.144C444.125 215.712 442.685 216.832 440.285 216.832C438.077 216.832 435.997 215.904 434.429 214.24L431.645 217.376C433.501 219.52 436.541 221.088 440.477 221.088ZM462.467 206.464C460.387 206.464 458.371 207.264 457.027 208.576C457.443 204.864 459.363 202.464 462.243 202.464C464.099 202.464 465.379 203.136 466.723 204.256L468.963 200.672C467.171 199.232 464.963 198.304 462.243 198.304C456.131 198.304 452.131 203.2 452.131 210.048C452.131 216.448 455.075 221.056 461.475 221.056C466.275 221.056 469.891 217.952 469.891 213.44C469.891 209.088 466.531 206.464 462.467 206.464ZM461.219 217.056C458.755 217.056 457.571 215.552 457.155 212.864C457.827 211.296 459.299 210.304 461.091 210.304C463.235 210.304 465.027 211.552 465.027 213.664C465.027 215.424 463.555 217.056 461.219 217.056ZM478.451 209.728C481.683 209.728 483.955 207.264 483.955 204.096C483.955 200.992 481.779 198.464 478.451 198.464C475.155 198.464 472.979 200.96 472.979 204.128C472.979 207.264 475.155 209.728 478.451 209.728ZM475.859 220.672H479.539L494.835 198.688H491.123L475.859 220.672ZM478.451 206.976C477.139 206.976 476.115 205.824 476.115 204.096C476.115 202.368 477.075 201.248 478.451 201.248C479.795 201.248 480.787 202.4 480.787 204.096C480.787 205.856 479.795 206.976 478.451 206.976ZM492.179 221.024C495.411 221.024 497.651 218.56 497.651 215.392C497.651 212.288 495.507 209.76 492.179 209.76C488.915 209.76 486.675 212.256 486.675 215.392C486.675 218.528 488.915 221.024 492.179 221.024ZM492.179 218.24C490.835 218.24 489.843 217.088 489.843 215.392C489.843 213.632 490.803 212.512 492.179 212.512C493.491 212.512 494.515 213.664 494.515 215.392C494.515 217.12 493.555 218.24 492.179 218.24Z" fill="#0F0B47"/>
<path d="M591.462 236.139H585.766V230.315H581.734V236.139H576.006V239.947H581.734V245.771H585.766V239.947H591.462V236.139ZM605.495 248.715H610.199V244.235H613.111V240.267H610.199V226.763H604.503L594.295 240.587L594.743 244.235H605.495V248.715ZM599.255 240.267L605.495 231.755V240.267H599.255ZM623.844 249.131C628.996 249.131 632.324 246.379 632.324 242.571C632.324 239.659 630.116 237.963 627.716 237.419C630.148 236.715 631.844 234.891 631.844 232.363C631.844 228.875 628.74 226.347 623.812 226.347C619.908 226.347 617.284 228.043 615.46 230.251L618.18 233.131C619.652 231.595 621.284 230.571 623.332 230.571C625.508 230.571 627.044 231.595 627.044 233.195C627.044 234.763 625.604 235.659 623.204 235.659L620.676 235.627V239.659H623.204C626.148 239.627 627.492 240.491 627.492 242.187C627.492 243.755 626.052 244.875 623.652 244.875C621.444 244.875 619.364 243.947 617.796 242.283L615.012 245.419C616.868 247.563 619.908 249.131 623.844 249.131ZM641.13 237.771C644.362 237.771 646.634 235.307 646.634 232.139C646.634 229.035 644.458 226.507 641.13 226.507C637.834 226.507 635.658 229.003 635.658 232.171C635.658 235.307 637.834 237.771 641.13 237.771ZM638.538 248.715H642.218L657.514 226.731H653.802L638.538 248.715ZM641.13 235.019C639.818 235.019 638.794 233.867 638.794 232.139C638.794 230.411 639.754 229.291 641.13 229.291C642.474 229.291 643.466 230.443 643.466 232.139C643.466 233.899 642.474 235.019 641.13 235.019ZM654.858 249.067C658.09 249.067 660.33 246.603 660.33 243.435C660.33 240.331 658.186 237.803 654.858 237.803C651.594 237.803 649.354 240.299 649.354 243.435C649.354 246.571 651.594 249.067 654.858 249.067ZM654.858 246.283C653.514 246.283 652.522 245.131 652.522 243.435C652.522 241.675 653.482 240.555 654.858 240.555C656.17 240.555 657.194 241.707 657.194 243.435C657.194 245.163 656.234 246.283 654.858 246.283Z" fill="#0F0B47"/>
<path d="M772.376 256.981H766.68V251.157H762.648V256.981H756.92V260.789H762.648V266.613H766.68V260.789H772.376V256.981ZM783.977 269.973C789.129 269.973 792.457 267.221 792.457 263.413C792.457 260.501 790.249 258.805 787.849 258.261C790.281 257.557 791.977 255.733 791.977 253.205C791.977 249.717 788.873 247.189 783.945 247.189C780.041 247.189 777.417 248.885 775.593 251.093L778.313 253.973C779.785 252.437 781.417 251.413 783.465 251.413C785.641 251.413 787.177 252.437 787.177 254.037C787.177 255.605 785.737 256.501 783.337 256.501L780.809 256.469V260.501H783.337C786.281 260.469 787.625 261.333 787.625 263.029C787.625 264.597 786.185 265.717 783.785 265.717C781.577 265.717 779.497 264.789 777.929 263.125L775.145 266.261C777.001 268.405 780.041 269.973 783.977 269.973ZM803.791 269.973C809.039 269.973 812.527 266.997 812.527 262.325C812.527 257.845 809.167 255.349 805.263 255.349C803.471 255.349 802.063 255.925 800.975 256.693L801.103 251.829H811.343V247.573H796.751L796.431 259.445L799.599 260.725C800.783 259.829 802.191 259.285 803.855 259.285C806.255 259.285 807.823 260.565 807.823 262.485C807.823 264.373 806.319 265.845 803.823 265.845C801.711 265.845 799.727 264.821 798.063 263.253L795.279 266.581C797.327 268.629 800.111 269.973 803.791 269.973ZM821.17 258.613C824.402 258.613 826.674 256.149 826.674 252.981C826.674 249.877 824.498 247.349 821.17 247.349C817.874 247.349 815.698 249.845 815.698 253.013C815.698 256.149 817.874 258.613 821.17 258.613ZM818.578 269.557H822.258L837.554 247.573H833.842L818.578 269.557ZM821.17 255.861C819.858 255.861 818.834 254.709 818.834 252.981C818.834 251.253 819.794 250.133 821.17 250.133C822.514 250.133 823.506 251.285 823.506 252.981C823.506 254.741 822.514 255.861 821.17 255.861ZM834.898 269.909C838.13 269.909 840.37 267.445 840.37 264.277C840.37 261.173 838.226 258.645 834.898 258.645C831.634 258.645 829.394 261.141 829.394 264.277C829.394 267.413 831.634 269.909 834.898 269.909ZM834.898 267.125C833.554 267.125 832.562 265.973 832.562 264.277C832.562 262.517 833.522 261.397 834.898 261.397C836.21 261.397 837.234 262.549 837.234 264.277C837.234 266.005 836.274 267.125 834.898 267.125Z" fill="#0F0B47"/>
<path d="M943.595 270.151H937.899V264.327H933.867V270.151H928.139V273.959H933.867V279.783H937.899V273.959H943.595V270.151ZM955.26 283.143C960.508 283.143 963.996 280.167 963.996 275.495C963.996 271.015 960.636 268.519 956.732 268.519C954.94 268.519 953.532 269.095 952.444 269.863L952.572 264.999H962.812V260.743H948.22L947.9 272.615L951.068 273.895C952.252 272.999 953.66 272.455 955.324 272.455C957.724 272.455 959.292 273.735 959.292 275.655C959.292 277.543 957.788 279.015 955.292 279.015C953.18 279.015 951.196 277.991 949.532 276.423L946.748 279.751C948.796 281.799 951.58 283.143 955.26 283.143ZM975.166 283.143C980.414 283.143 983.902 280.167 983.902 275.495C983.902 271.015 980.542 268.519 976.638 268.519C974.846 268.519 973.438 269.095 972.35 269.863L972.478 264.999H982.718V260.743H968.126L967.806 272.615L970.974 273.895C972.158 272.999 973.566 272.455 975.23 272.455C977.63 272.455 979.198 273.735 979.198 275.655C979.198 277.543 977.694 279.015 975.198 279.015C973.086 279.015 971.102 277.991 969.438 276.423L966.654 279.751C968.702 281.799 971.486 283.143 975.166 283.143ZM992.545 271.783C995.777 271.783 998.049 269.319 998.049 266.151C998.049 263.047 995.873 260.519 992.545 260.519C989.249 260.519 987.073 263.015 987.073 266.183C987.073 269.319 989.249 271.783 992.545 271.783ZM989.953 282.727H993.633L1008.93 260.743H1005.22L989.953 282.727ZM992.545 269.031C991.233 269.031 990.209 267.879 990.209 266.151C990.209 264.423 991.169 263.303 992.545 263.303C993.889 263.303 994.881 264.455 994.881 266.151C994.881 267.911 993.889 269.031 992.545 269.031ZM1006.27 283.079C1009.5 283.079 1011.74 280.615 1011.74 277.447C1011.74 274.343 1009.6 271.815 1006.27 271.815C1003.01 271.815 1000.77 274.311 1000.77 277.447C1000.77 280.583 1003.01 283.079 1006.27 283.079ZM1006.27 280.295C1004.93 280.295 1003.94 279.143 1003.94 277.447C1003.94 275.687 1004.9 274.567 1006.27 274.567C1007.58 274.567 1008.61 275.719 1008.61 277.447C1008.61 279.175 1007.65 280.295 1006.27 280.295Z" fill="#0F0B47"/>
<path d="M1113.88 274.981H1108.18V269.157H1104.15V274.981H1098.42V278.789H1104.15V284.613H1108.18V278.789H1113.88V274.981ZM1125.48 287.973C1130.63 287.973 1133.96 285.221 1133.96 281.413C1133.96 278.501 1131.75 276.805 1129.35 276.261C1131.78 275.557 1133.48 273.733 1133.48 271.205C1133.48 267.717 1130.37 265.189 1125.45 265.189C1121.54 265.189 1118.92 266.885 1117.09 269.093L1119.81 271.973C1121.29 270.437 1122.92 269.413 1124.97 269.413C1127.14 269.413 1128.68 270.437 1128.68 272.037C1128.68 273.605 1127.24 274.501 1124.84 274.501L1122.31 274.469V278.501H1124.84C1127.78 278.469 1129.13 279.333 1129.13 281.029C1129.13 282.597 1127.69 283.717 1125.29 283.717C1123.08 283.717 1121 282.789 1119.43 281.125L1116.65 284.261C1118.5 286.405 1121.54 287.973 1125.48 287.973ZM1145.23 287.973C1150.38 287.973 1153.71 285.221 1153.71 281.413C1153.71 278.501 1151.5 276.805 1149.1 276.261C1151.53 275.557 1153.23 273.733 1153.23 271.205C1153.23 267.717 1150.12 265.189 1145.2 265.189C1141.29 265.189 1138.67 266.885 1136.84 269.093L1139.56 271.973C1141.04 270.437 1142.67 269.413 1144.72 269.413C1146.89 269.413 1148.43 270.437 1148.43 272.037C1148.43 273.605 1146.99 274.501 1144.59 274.501L1142.06 274.469V278.501H1144.59C1147.53 278.469 1148.88 279.333 1148.88 281.029C1148.88 282.597 1147.44 283.717 1145.04 283.717C1142.83 283.717 1140.75 282.789 1139.18 281.125L1136.4 284.261C1138.25 286.405 1141.29 287.973 1145.23 287.973ZM1162.51 276.613C1165.75 276.613 1168.02 274.149 1168.02 270.981C1168.02 267.877 1165.84 265.349 1162.51 265.349C1159.22 265.349 1157.04 267.845 1157.04 271.013C1157.04 274.149 1159.22 276.613 1162.51 276.613ZM1159.92 287.557H1163.6L1178.9 265.573H1175.19L1159.92 287.557ZM1162.51 273.861C1161.2 273.861 1160.18 272.709 1160.18 270.981C1160.18 269.253 1161.14 268.133 1162.51 268.133C1163.86 268.133 1164.85 269.285 1164.85 270.981C1164.85 272.741 1163.86 273.861 1162.51 273.861ZM1176.24 287.909C1179.47 287.909 1181.71 285.445 1181.71 282.277C1181.71 279.173 1179.57 276.645 1176.24 276.645C1172.98 276.645 1170.74 279.141 1170.74 282.277C1170.74 285.413 1172.98 287.909 1176.24 287.909ZM1176.24 285.125C1174.9 285.125 1173.91 283.973 1173.91 282.277C1173.91 280.517 1174.87 279.397 1176.24 279.397C1177.55 279.397 1178.58 280.549 1178.58 282.277C1178.58 284.005 1177.62 285.125 1176.24 285.125Z" fill="#0F0B47"/>
<path d="M79.1914 20.424H73.4954V14.6H69.4634V20.424H63.7354L63.7354 24.232H69.4634V30.056L73.4954 30.056V24.232H79.1914V20.424ZM82.4087 33L99.0167 33V28.744L89.7047 28.744L93.7047 25.64C97.5447 22.856 98.8247 20.584 98.8247 17.64C98.8247 13.512 95.4327 10.632 90.7607 10.632C87.2087 10.632 84.4247 12.168 82.2487 14.92L85.2567 17.832C86.8567 16.008 88.4887 14.92 90.6327 14.92C92.4247 14.92 93.9607 16.008 93.9607 17.832C93.9607 19.368 93.1287 20.808 90.5047 22.888L82.4087 29.16V33ZM110.387 10.632C105.587 10.632 101.971 13.736 101.971 18.248C101.971 22.6 105.331 25.224 109.395 25.224C111.475 25.224 113.491 24.424 114.835 23.112C114.419 26.824 112.499 29.224 109.619 29.224C107.763 29.224 106.483 28.552 105.139 27.432L102.899 31.016C104.691 32.456 106.899 33.384 109.619 33.384C115.731 33.384 119.731 28.488 119.731 21.64C119.731 15.24 116.787 10.632 110.387 10.632ZM110.771 21.384C108.627 21.384 106.835 20.136 106.835 18.024C106.835 16.264 108.307 14.632 110.643 14.632C113.107 14.632 114.291 16.136 114.707 18.824C114.035 20.392 112.563 21.384 110.771 21.384ZM128.579 22.056C131.811 22.056 134.083 19.592 134.083 16.424C134.083 13.32 131.907 10.792 128.579 10.792C125.283 10.792 123.107 13.288 123.107 16.456C123.107 19.592 125.283 22.056 128.579 22.056ZM125.987 33L129.667 33L144.963 11.016L141.251 11.016L125.987 33ZM128.579 19.304C127.267 19.304 126.243 18.152 126.243 16.424C126.243 14.696 127.203 13.576 128.579 13.576C129.923 13.576 130.915 14.728 130.915 16.424C130.915 18.184 129.923 19.304 128.579 19.304ZM142.307 33.352C145.539 33.352 147.779 30.888 147.779 27.72C147.779 24.616 145.635 22.088 142.307 22.088C139.043 22.088 136.803 24.584 136.803 27.72C136.803 30.856 139.043 33.352 142.307 33.352ZM142.307 30.568C140.963 30.568 139.971 29.416 139.971 27.72C139.971 25.96 140.931 24.84 142.307 24.84C143.619 24.84 144.643 25.992 144.643 27.72C144.643 29.448 143.683 30.568 142.307 30.568Z" fill="#0F0B47"/>
<line x1="-4.37114e-08" y1="497.727" x2="1200" y2="497.726" stroke="#0F0B47"/>
<path d="M1047.48 43H1054.11V41.964H1049.23L1051.75 39.78C1053.37 38.38 1054.01 37.344 1054.01 36.042C1054.01 34.32 1052.61 33.214 1050.95 33.214C1049.44 33.214 1048.36 33.928 1047.56 35.062L1048.33 35.692C1048.99 34.796 1049.79 34.194 1050.91 34.194C1051.93 34.194 1052.91 34.88 1052.91 36.056C1052.91 37.008 1052.35 37.932 1050.99 39.094L1047.48 42.09V43ZM1059.76 43.168C1062.1 43.168 1063.75 41.11 1063.75 38.184C1063.75 35.272 1062.1 33.214 1059.76 33.214C1057.41 33.214 1055.76 35.272 1055.76 38.184C1055.76 41.11 1057.41 43.168 1059.76 43.168ZM1059.76 42.16C1058.07 42.16 1056.86 40.508 1056.86 38.184C1056.86 35.86 1058.07 34.222 1059.76 34.222C1061.45 34.222 1062.64 35.86 1062.64 38.184C1062.64 40.508 1061.45 42.16 1059.76 42.16ZM1065.07 43H1071.71V41.964H1066.82L1069.34 39.78C1070.97 38.38 1071.61 37.344 1071.61 36.042C1071.61 34.32 1070.21 33.214 1068.54 33.214C1067.03 33.214 1065.95 33.928 1065.16 35.062L1065.93 35.692C1066.58 34.796 1067.38 34.194 1068.5 34.194C1069.52 34.194 1070.5 34.88 1070.5 36.056C1070.5 37.008 1069.94 37.932 1068.59 39.094L1065.07 42.09V43ZM1074.95 43H1076.04V33.382H1075.16L1072.79 34.992L1073.27 35.804L1074.95 34.712V43Z" fill="#0F0B47"/>
<rect x="1011" y="28" width="20" height="20" rx="10" fill="#E46BB7"/>
<path d="M1140.48 43H1147.11V41.964H1142.23L1144.75 39.78C1146.37 38.38 1147.01 37.344 1147.01 36.042C1147.01 34.32 1145.61 33.214 1143.95 33.214C1142.44 33.214 1141.36 33.928 1140.56 35.062L1141.33 35.692C1141.99 34.796 1142.79 34.194 1143.91 34.194C1144.93 34.194 1145.91 34.88 1145.91 36.056C1145.91 37.008 1145.35 37.932 1143.99 39.094L1140.48 42.09V43ZM1152.76 43.168C1155.1 43.168 1156.75 41.11 1156.75 38.184C1156.75 35.272 1155.1 33.214 1152.76 33.214C1150.41 33.214 1148.76 35.272 1148.76 38.184C1148.76 41.11 1150.41 43.168 1152.76 43.168ZM1152.76 42.16C1151.07 42.16 1149.86 40.508 1149.86 38.184C1149.86 35.86 1151.07 34.222 1152.76 34.222C1154.45 34.222 1155.64 35.86 1155.64 38.184C1155.64 40.508 1154.45 42.16 1152.76 42.16ZM1158.07 43H1164.71V41.964H1159.82L1162.34 39.78C1163.97 38.38 1164.61 37.344 1164.61 36.042C1164.61 34.32 1163.21 33.214 1161.54 33.214C1160.03 33.214 1158.95 33.928 1158.16 35.062L1158.93 35.692C1159.58 34.796 1160.38 34.194 1161.5 34.194C1162.52 34.194 1163.5 34.88 1163.5 36.056C1163.5 37.008 1162.94 37.932 1161.59 39.094L1158.07 42.09V43ZM1165.99 43H1172.62V41.964H1167.74L1170.26 39.78C1171.88 38.38 1172.53 37.344 1172.53 36.042C1172.53 34.32 1171.13 33.214 1169.46 33.214C1167.95 33.214 1166.87 33.928 1166.07 35.062L1166.84 35.692C1167.5 34.796 1168.3 34.194 1169.42 34.194C1170.44 34.194 1171.42 34.88 1171.42 36.056C1171.42 37.008 1170.86 37.932 1169.5 39.094L1165.99 42.09V43Z" fill="#0F0B47"/>
<rect x="1104" y="28" width="20" height="20" rx="10" fill="#542AED"/>
</svg>
