<svg width="328" height="187" viewBox="0 0 328 187" fill="none" xmlns="http://www.w3.org/2000/svg">
<path d="M258.033 8.79834H261.825V8.20634H259.033L260.473 6.95834C261.401 6.15834 261.769 5.56634 261.769 4.82234C261.769 3.83834 260.969 3.20634 260.017 3.20634C259.153 3.20634 258.537 3.61434 258.081 4.26234L258.521 4.62234C258.897 4.11034 259.353 3.76634 259.993 3.76634C260.577 3.76634 261.137 4.15834 261.137 4.83034C261.137 5.37434 260.817 5.90234 260.041 6.56634L258.033 8.27834V8.79834ZM265.052 8.89434C266.388 8.89434 267.332 7.71834 267.332 6.04634C267.332 4.38234 266.388 3.20634 265.052 3.20634C263.708 3.20634 262.764 4.38234 262.764 6.04634C262.764 7.71834 263.708 8.89434 265.052 8.89434ZM265.052 8.31834C264.084 8.31834 263.396 7.37434 263.396 6.04634C263.396 4.71834 264.084 3.78234 265.052 3.78234C266.02 3.78234 266.7 4.71834 266.7 6.04634C266.7 7.37434 266.02 8.31834 265.052 8.31834ZM268.087 8.79834H271.879V8.20634H269.087L270.527 6.95834C271.455 6.15834 271.823 5.56634 271.823 4.82234C271.823 3.83834 271.023 3.20634 270.071 3.20634C269.207 3.20634 268.591 3.61434 268.135 4.26234L268.575 4.62234C268.951 4.11034 269.407 3.76634 270.047 3.76634C270.631 3.76634 271.191 4.15834 271.191 4.83034C271.191 5.37434 270.871 5.90234 270.095 6.56634L268.087 8.27834V8.79834ZM273.731 8.79834H274.355V3.30234H273.851L272.499 4.22234L272.771 4.68634L273.731 4.06234V8.79834Z" fill="#0F0B47"/>
<circle cx="246.761" cy="5.79834" r="5" fill="#E46BB7"/>
<path d="M306.033 8.79834H309.825V8.20634H307.033L308.473 6.95834C309.401 6.15834 309.769 5.56634 309.769 4.82234C309.769 3.83834 308.969 3.20634 308.017 3.20634C307.153 3.20634 306.537 3.61434 306.081 4.26234L306.521 4.62234C306.897 4.11034 307.353 3.76634 307.993 3.76634C308.577 3.76634 309.137 4.15834 309.137 4.83034C309.137 5.37434 308.817 5.90234 308.041 6.56634L306.033 8.27834V8.79834ZM313.052 8.89434C314.388 8.89434 315.332 7.71834 315.332 6.04634C315.332 4.38234 314.388 3.20634 313.052 3.20634C311.708 3.20634 310.764 4.38234 310.764 6.04634C310.764 7.71834 311.708 8.89434 313.052 8.89434ZM313.052 8.31834C312.084 8.31834 311.396 7.37434 311.396 6.04634C311.396 4.71834 312.084 3.78234 313.052 3.78234C314.02 3.78234 314.7 4.71834 314.7 6.04634C314.7 7.37434 314.02 8.31834 313.052 8.31834ZM316.087 8.79834H319.879V8.20634H317.087L318.527 6.95834C319.455 6.15834 319.823 5.56634 319.823 4.82234C319.823 3.83834 319.023 3.20634 318.071 3.20634C317.207 3.20634 316.591 3.61434 316.135 4.26234L316.575 4.62234C316.951 4.11034 317.407 3.76634 318.047 3.76634C318.631 3.76634 319.191 4.15834 319.191 4.83034C319.191 5.37434 318.871 5.90234 318.095 6.56634L316.087 8.27834V8.79834ZM320.611 8.79834H324.403V8.20634H321.611L323.051 6.95834C323.979 6.15834 324.347 5.56634 324.347 4.82234C324.347 3.83834 323.547 3.20634 322.595 3.20634C321.731 3.20634 321.115 3.61434 320.659 4.26234L321.099 4.62234C321.475 4.11034 321.931 3.76634 322.571 3.76634C323.155 3.76634 323.715 4.15834 323.715 4.83034C323.715 5.37434 323.395 5.90234 322.619 6.56634L320.611 8.27834V8.79834Z" fill="#0F0B47"/>
<circle cx="293.761" cy="5.79834" r="5" fill="#542AED"/>
<path d="M292.377 176.572C293.379 176.572 293.979 176.05 293.979 175.264C293.979 174.502 293.391 174.238 292.503 174.04C291.867 173.896 291.615 173.8 291.615 173.5C291.615 173.254 291.849 173.056 292.221 173.056C292.617 173.056 293.031 173.218 293.403 173.518L293.865 172.876C293.439 172.516 292.923 172.306 292.251 172.306C291.345 172.306 290.721 172.828 290.721 173.59C290.721 174.388 291.345 174.634 292.215 174.832C292.845 174.976 293.085 175.066 293.085 175.36C293.085 175.618 292.857 175.822 292.407 175.822C291.885 175.822 291.441 175.618 291.051 175.282L290.547 175.888C291.027 176.332 291.657 176.572 292.377 176.572ZM297.821 173.176V172.378H294.647V176.5H297.821V175.702H295.535V174.796H297.611V173.998H295.535V173.176H297.821ZM301.966 173.77C301.966 172.954 301.312 172.378 300.412 172.378H298.558V176.5H299.446V175.162H299.98L300.922 176.5H301.93L300.94 175.09C301.558 174.91 301.966 174.418 301.966 173.77ZM299.446 173.188H300.322C300.76 173.188 301.06 173.416 301.06 173.77C301.06 174.124 300.76 174.352 300.322 174.352H299.446V173.188ZM305.651 172.378L304.475 175.282L303.293 172.378H302.297L303.977 176.5H304.967L306.647 172.378H305.651ZM307.207 176.5H308.095V172.378H307.207V176.5ZM310.97 176.572C311.594 176.572 312.164 176.302 312.566 175.882L311.924 175.306C311.69 175.582 311.348 175.768 310.97 175.768C310.274 175.768 309.686 175.156 309.686 174.436C309.686 173.722 310.274 173.11 310.97 173.11C311.342 173.11 311.69 173.296 311.924 173.572L312.566 172.996C312.164 172.57 311.594 172.306 310.97 172.306C309.782 172.306 308.774 173.278 308.774 174.436C308.774 175.594 309.782 176.572 310.97 176.572ZM316.334 173.176V172.378H313.16V176.5H316.334V175.702H314.048V174.796H316.124V173.998H314.048V173.176H316.334ZM295.196 184.5H296.084V181.932L297.356 184.26L298.634 181.932V184.5H299.516V180.378H298.634L297.356 182.706L296.084 180.378H295.196V184.5ZM303.617 181.176V180.378H300.443V184.5H303.617V183.702H301.331V182.796H303.407V181.998H301.331V181.176H303.617ZM305.879 184.572C306.881 184.572 307.481 184.05 307.481 183.264C307.481 182.502 306.893 182.238 306.005 182.04C305.369 181.896 305.117 181.8 305.117 181.5C305.117 181.254 305.351 181.056 305.723 181.056C306.119 181.056 306.533 181.218 306.905 181.518L307.367 180.876C306.941 180.516 306.425 180.306 305.753 180.306C304.847 180.306 304.223 180.828 304.223 181.59C304.223 182.388 304.847 182.634 305.717 182.832C306.347 182.976 306.587 183.066 306.587 183.36C306.587 183.618 306.359 183.822 305.909 183.822C305.387 183.822 304.943 183.618 304.553 183.282L304.049 183.888C304.529 184.332 305.159 184.572 305.879 184.572ZM310.915 180.378V181.998H309.037V180.378H308.149V184.5H309.037V182.796H310.915V184.5H311.797V180.378H310.915Z" fill="#0F0B47"/>
<path d="M244.374 176.572C245.376 176.572 245.976 176.05 245.976 175.264C245.976 174.502 245.388 174.238 244.5 174.04C243.864 173.896 243.612 173.8 243.612 173.5C243.612 173.254 243.846 173.056 244.218 173.056C244.614 173.056 245.028 173.218 245.4 173.518L245.862 172.876C245.436 172.516 244.92 172.306 244.248 172.306C243.342 172.306 242.718 172.828 242.718 173.59C242.718 174.388 243.342 174.634 244.212 174.832C244.842 174.976 245.082 175.066 245.082 175.36C245.082 175.618 244.854 175.822 244.404 175.822C243.882 175.822 243.438 175.618 243.048 175.282L242.544 175.888C243.024 176.332 243.654 176.572 244.374 176.572ZM249.818 173.176V172.378H246.644V176.5H249.818V175.702H247.532V174.796H249.608V173.998H247.532V173.176H249.818ZM252.506 176.572C253.13 176.572 253.7 176.302 254.102 175.882L253.46 175.306C253.226 175.582 252.884 175.768 252.506 175.768C251.81 175.768 251.222 175.156 251.222 174.436C251.222 173.722 251.81 173.11 252.506 173.11C252.878 173.11 253.226 173.296 253.46 173.572L254.102 172.996C253.7 172.57 253.13 172.306 252.506 172.306C251.318 172.306 250.31 173.278 250.31 174.436C250.31 175.594 251.318 176.572 252.506 176.572ZM256.471 176.572C257.563 176.572 258.337 175.804 258.337 174.718V172.378H257.449V174.682C257.449 175.318 257.041 175.768 256.471 175.768C255.895 175.768 255.487 175.318 255.487 174.682V172.378H254.605V174.718C254.605 175.804 255.373 176.572 256.471 176.572ZM262.577 173.77C262.577 172.954 261.923 172.378 261.023 172.378H259.169V176.5H260.057V175.162H260.591L261.533 176.5H262.541L261.551 175.09C262.169 174.91 262.577 174.418 262.577 173.77ZM260.057 173.188H260.933C261.371 173.188 261.671 173.416 261.671 173.77C261.671 174.124 261.371 174.352 260.933 174.352H260.057V173.188ZM263.274 176.5H264.162V172.378H263.274V176.5ZM266.041 176.5H266.923V173.176H268.213V172.378H264.757V173.176H266.041V176.5ZM270.029 176.5H270.923V175.012L272.531 172.378H271.541L270.473 174.184L269.447 172.378H268.415L270.029 175.012V176.5Z" fill="#0F0B47"/>
<path d="M196.664 176.5H198.836C199.622 176.5 200.186 176.044 200.186 175.384C200.186 174.928 199.91 174.544 199.43 174.328C199.796 174.136 200.006 173.83 200.006 173.41C200.006 172.81 199.49 172.378 198.752 172.378H196.664V176.5ZM197.546 174.04V173.134H198.536C198.866 173.134 199.1 173.326 199.1 173.584C199.1 173.848 198.866 174.04 198.536 174.04H197.546ZM197.546 175.744V174.736H198.668C199.028 174.736 199.28 174.946 199.28 175.24C199.28 175.534 199.028 175.744 198.668 175.744H197.546ZM200.874 176.5H201.762V172.378H200.874V176.5ZM204.5 174.874H205.454V175.504C205.226 175.672 204.932 175.768 204.656 175.768C203.948 175.768 203.354 175.156 203.354 174.436C203.354 173.722 203.948 173.11 204.656 173.11C205.034 173.11 205.43 173.29 205.676 173.572L206.318 172.996C205.91 172.564 205.268 172.306 204.656 172.306C203.456 172.306 202.442 173.278 202.442 174.436C202.442 175.594 203.456 176.572 204.656 176.572C205.268 176.572 205.91 176.314 206.318 175.882V174.184H204.5V174.874ZM207.08 176.5H208.562C209.948 176.5 210.932 175.642 210.932 174.436C210.932 173.23 209.948 172.378 208.562 172.378H207.08V176.5ZM207.968 175.696V173.182H208.676C209.462 173.182 210.02 173.704 210.02 174.436C210.02 175.174 209.462 175.696 208.676 175.696H207.968ZM214.588 176.5H215.584L213.904 172.378H212.914L211.234 176.5H212.224L212.512 175.792H214.3L214.588 176.5ZM212.794 175.102L213.406 173.596L214.018 175.102H212.794ZM217.092 176.5H217.974V173.176H219.264V172.378H215.808V173.176H217.092V176.5ZM222.832 176.5H223.828L222.148 172.378H221.158L219.478 176.5H220.468L220.756 175.792H222.544L222.832 176.5ZM221.038 175.102L221.65 173.596L222.262 175.102H221.038Z" fill="#0F0B47"/>
<path d="M155.612 176.572C156.236 176.572 156.806 176.302 157.208 175.882L156.566 175.306C156.332 175.582 155.99 175.768 155.612 175.768C154.916 175.768 154.328 175.156 154.328 174.436C154.328 173.722 154.916 173.11 155.612 173.11C155.984 173.11 156.332 173.296 156.566 173.572L157.208 172.996C156.806 172.57 156.236 172.306 155.612 172.306C154.424 172.306 153.416 173.278 153.416 174.436C153.416 175.594 154.424 176.572 155.612 176.572ZM157.802 176.5H158.69V172.378H157.802V176.5ZM160.65 176.944H161.574L163.638 172.042H162.714L160.65 176.944ZM167.545 176.572C168.169 176.572 168.739 176.302 169.141 175.882L168.499 175.306C168.265 175.582 167.923 175.768 167.545 175.768C166.849 175.768 166.261 175.156 166.261 174.436C166.261 173.722 166.849 173.11 167.545 173.11C167.917 173.11 168.265 173.296 168.499 173.572L169.141 172.996C168.739 172.57 168.169 172.306 167.545 172.306C166.357 172.306 165.349 173.278 165.349 174.436C165.349 175.594 166.357 176.572 167.545 176.572ZM169.735 176.5H171.217C172.603 176.5 173.587 175.642 173.587 174.436C173.587 173.23 172.603 172.378 171.217 172.378H169.735V176.5ZM170.623 175.696V173.182H171.331C172.117 173.182 172.675 173.704 172.675 174.436C172.675 175.174 172.117 175.696 171.331 175.696H170.623Z" fill="#0F0B47"/>
<path d="M98.46 176.5H99.348V173.932L100.62 176.26L101.898 173.932V176.5H102.78V172.378H101.898L100.62 174.706L99.348 172.378H98.46V176.5ZM106.881 173.176V172.378H103.707V176.5H106.881V175.702H104.595V174.796H106.671V173.998H104.595V173.176H106.881ZM109.142 176.572C110.144 176.572 110.744 176.05 110.744 175.264C110.744 174.502 110.156 174.238 109.268 174.04C108.632 173.896 108.38 173.8 108.38 173.5C108.38 173.254 108.614 173.056 108.986 173.056C109.382 173.056 109.796 173.218 110.168 173.518L110.63 172.876C110.204 172.516 109.688 172.306 109.016 172.306C108.11 172.306 107.486 172.828 107.486 173.59C107.486 174.388 108.11 174.634 108.98 174.832C109.61 174.976 109.85 175.066 109.85 175.36C109.85 175.618 109.622 175.822 109.172 175.822C108.65 175.822 108.206 175.618 107.816 175.282L107.312 175.888C107.792 176.332 108.422 176.572 109.142 176.572ZM112.937 176.572C113.939 176.572 114.539 176.05 114.539 175.264C114.539 174.502 113.951 174.238 113.063 174.04C112.427 173.896 112.175 173.8 112.175 173.5C112.175 173.254 112.409 173.056 112.781 173.056C113.177 173.056 113.591 173.218 113.963 173.518L114.425 172.876C113.999 172.516 113.483 172.306 112.811 172.306C111.905 172.306 111.281 172.828 111.281 173.59C111.281 174.388 111.905 174.634 112.775 174.832C113.405 174.976 113.645 175.066 113.645 175.36C113.645 175.618 113.417 175.822 112.967 175.822C112.445 175.822 112.001 175.618 111.611 175.282L111.107 175.888C111.587 176.332 112.217 176.572 112.937 176.572ZM118.189 176.5H119.185L117.505 172.378H116.515L114.835 176.5H115.825L116.113 175.792H117.901L118.189 176.5ZM116.395 175.102L117.007 173.596L117.619 175.102H116.395ZM121.551 174.874H122.505V175.504C122.277 175.672 121.983 175.768 121.707 175.768C120.999 175.768 120.405 175.156 120.405 174.436C120.405 173.722 120.999 173.11 121.707 173.11C122.085 173.11 122.481 173.29 122.727 173.572L123.369 172.996C122.961 172.564 122.319 172.306 121.707 172.306C120.507 172.306 119.493 173.278 119.493 174.436C119.493 175.594 120.507 176.572 121.707 176.572C122.319 176.572 122.961 176.314 123.369 175.882V174.184H121.551V174.874ZM124.131 176.5H125.019V172.378H124.131V176.5ZM125.944 176.5H126.832V173.836L128.818 176.5H129.706V172.378H128.818V175.042L126.832 172.378H125.944V176.5ZM132.441 174.874H133.395V175.504C133.167 175.672 132.873 175.768 132.597 175.768C131.889 175.768 131.295 175.156 131.295 174.436C131.295 173.722 131.889 173.11 132.597 173.11C132.975 173.11 133.371 173.29 133.617 173.572L134.259 172.996C133.851 172.564 133.209 172.306 132.597 172.306C131.397 172.306 130.383 173.278 130.383 174.436C130.383 175.594 131.397 176.572 132.597 176.572C133.209 176.572 133.851 176.314 134.259 175.882V174.184H132.441V174.874Z" fill="#0F0B47"/>
<path d="M51.5865 176.5H53.0685C54.4545 176.5 55.4385 175.642 55.4385 174.436C55.4385 173.23 54.4545 172.378 53.0685 172.378H51.5865V176.5ZM52.4745 175.696V173.182H53.1825C53.9685 173.182 54.5265 173.704 54.5265 174.436C54.5265 175.174 53.9685 175.696 53.1825 175.696H52.4745ZM59.095 176.5H60.091L58.411 172.378H57.421L55.741 176.5H56.731L57.019 175.792H58.807L59.095 176.5ZM57.301 175.102L57.913 173.596L58.525 175.102H57.301ZM61.5994 176.5H62.4814V173.176H63.7714V172.378H60.3154V173.176H61.5994V176.5ZM67.3394 176.5H68.3354L66.6554 172.378H65.6654L63.9854 176.5H64.9754L65.2634 175.792H67.0514L67.3394 176.5ZM65.5454 175.102L66.1574 173.596L66.7694 175.102H65.5454ZM68.8897 176.5H71.0617C71.8477 176.5 72.4117 176.044 72.4117 175.384C72.4117 174.928 72.1357 174.544 71.6557 174.328C72.0217 174.136 72.2317 173.83 72.2317 173.41C72.2317 172.81 71.7157 172.378 70.9777 172.378H68.8897V176.5ZM69.7717 174.04V173.134H70.7617C71.0917 173.134 71.3257 173.326 71.3257 173.584C71.3257 173.848 71.0917 174.04 70.7617 174.04H69.7717ZM69.7717 175.744V174.736H70.8937C71.2537 174.736 71.5057 174.946 71.5057 175.24C71.5057 175.534 71.2537 175.744 70.8937 175.744H69.7717ZM76.0818 176.5H77.0778L75.3978 172.378H74.4078L72.7278 176.5H73.7178L74.0058 175.792H75.7938L76.0818 176.5ZM74.2878 175.102L74.8998 173.596L75.5118 175.102H74.2878ZM79.1562 176.572C80.1582 176.572 80.7582 176.05 80.7582 175.264C80.7582 174.502 80.1702 174.238 79.2822 174.04C78.6462 173.896 78.3942 173.8 78.3942 173.5C78.3942 173.254 78.6282 173.056 79.0002 173.056C79.3962 173.056 79.8102 173.218 80.1822 173.518L80.6442 172.876C80.2182 172.516 79.7022 172.306 79.0302 172.306C78.1242 172.306 77.5002 172.828 77.5002 173.59C77.5002 174.388 78.1242 174.634 78.9942 174.832C79.6242 174.976 79.8642 175.066 79.8642 175.36C79.8642 175.618 79.6362 175.822 79.1862 175.822C78.6642 175.822 78.2202 175.618 77.8302 175.282L77.3262 175.888C77.8062 176.332 78.4362 176.572 79.1562 176.572ZM84.6002 173.176V172.378H81.4262V176.5H84.6002V175.702H82.3142V174.796H84.3902V173.998H82.3142V173.176H84.6002Z" fill="#0F0B47"/>
<path d="M3.55692 176.572C4.74492 176.572 5.74092 175.594 5.74092 174.436C5.74092 173.278 4.74492 172.306 3.55692 172.306C2.36892 172.306 1.36092 173.278 1.36092 174.436C1.36092 175.594 2.36892 176.572 3.55692 176.572ZM3.55692 175.768C2.86092 175.768 2.27292 175.156 2.27292 174.436C2.27292 173.722 2.86092 173.11 3.55692 173.11C4.24692 173.11 4.83492 173.722 4.83492 174.436C4.83492 175.156 4.24692 175.768 3.55692 175.768ZM6.42638 176.5H7.31438V175.162H8.28038C9.18038 175.162 9.83438 174.586 9.83438 173.77C9.83438 172.954 9.18038 172.378 8.28038 172.378H6.42638V176.5ZM7.31438 174.352V173.188H8.19038C8.62838 173.188 8.92838 173.416 8.92838 173.77C8.92838 174.124 8.62838 174.352 8.19038 174.352H7.31438ZM13.6523 173.176V172.378H10.4783V176.5H13.6523V175.702H11.3663V174.796H13.4423V173.998H11.3663V173.176H13.6523ZM14.3895 176.5H15.2775V173.836L17.2635 176.5H18.1515V172.378H17.2635V175.042L15.2775 172.378H14.3895V176.5ZM20.5982 176.572C21.6002 176.572 22.2002 176.05 22.2002 175.264C22.2002 174.502 21.6122 174.238 20.7242 174.04C20.0882 173.896 19.8362 173.8 19.8362 173.5C19.8362 173.254 20.0702 173.056 20.4422 173.056C20.8382 173.056 21.2522 173.218 21.6242 173.518L22.0862 172.876C21.6602 172.516 21.1442 172.306 20.4722 172.306C19.5662 172.306 18.9422 172.828 18.9422 173.59C18.9422 174.388 19.5662 174.634 20.4362 174.832C21.0662 174.976 21.3062 175.066 21.3062 175.36C21.3062 175.618 21.0782 175.822 20.6282 175.822C20.1062 175.822 19.6622 175.618 19.2722 175.282L18.7682 175.888C19.2482 176.332 19.8782 176.572 20.5982 176.572ZM24.8183 176.572C26.0063 176.572 27.0023 175.594 27.0023 174.436C27.0023 173.278 26.0063 172.306 24.8183 172.306C23.6303 172.306 22.6223 173.278 22.6223 174.436C22.6223 175.594 23.6303 176.572 24.8183 176.572ZM24.8183 175.768C24.1223 175.768 23.5343 175.156 23.5343 174.436C23.5343 173.722 24.1223 173.11 24.8183 173.11C25.5083 173.11 26.0963 173.722 26.0963 174.436C26.0963 175.156 25.5083 175.768 24.8183 175.768ZM29.4637 176.572C30.5557 176.572 31.3297 175.804 31.3297 174.718V172.378H30.4417V174.682C30.4417 175.318 30.0337 175.768 29.4637 175.768C28.8877 175.768 28.4797 175.318 28.4797 174.682V172.378H27.5977V174.718C27.5977 175.804 28.3657 176.572 29.4637 176.572ZM35.5695 173.77C35.5695 172.954 34.9155 172.378 34.0155 172.378H32.1615V176.5H33.0495V175.162H33.5835L34.5255 176.5H35.5335L34.5435 175.09C35.1615 174.91 35.5695 174.418 35.5695 173.77ZM33.0495 173.188H33.9255C34.3635 173.188 34.6635 173.416 34.6635 173.77C34.6635 174.124 34.3635 174.352 33.9255 174.352H33.0495V173.188ZM38.2161 176.572C38.8401 176.572 39.4101 176.302 39.8121 175.882L39.1701 175.306C38.9361 175.582 38.5941 175.768 38.2161 175.768C37.5201 175.768 36.9321 175.156 36.9321 174.436C36.9321 173.722 37.5201 173.11 38.2161 173.11C38.5881 173.11 38.9361 173.296 39.1701 173.572L39.8121 172.996C39.4101 172.57 38.8401 172.306 38.2161 172.306C37.0281 172.306 36.0201 173.278 36.0201 174.436C36.0201 175.594 37.0281 176.572 38.2161 176.572ZM43.5798 173.176V172.378H40.4058V176.5H43.5798V175.702H41.2938V174.796H43.3698V173.998H41.2938V173.176H43.5798ZM2.91649 184.5H3.80449V181.932L5.07649 184.26L6.35449 181.932V184.5H7.23649V180.378H6.35449L5.07649 182.706L3.80449 180.378H2.91649V184.5ZM10.1137 184.572C11.3017 184.572 12.2977 183.594 12.2977 182.436C12.2977 181.278 11.3017 180.306 10.1137 180.306C8.92568 180.306 7.91768 181.278 7.91768 182.436C7.91768 183.594 8.92568 184.572 10.1137 184.572ZM10.1137 183.768C9.41768 183.768 8.82968 183.156 8.82968 182.436C8.82968 181.722 9.41768 181.11 10.1137 181.11C10.8037 181.11 11.3917 181.722 11.3917 182.436C11.3917 183.156 10.8037 183.768 10.1137 183.768ZM12.9831 184.5H13.8711V181.836L15.8571 184.5H16.7451V180.378H15.8571V183.042L13.8711 180.378H12.9831V184.5ZM17.6678 184.5H18.5558V180.378H17.6678V184.5ZM20.4354 184.5H21.3174V181.176H22.6074V180.378H19.1514V181.176H20.4354V184.5ZM25.1434 184.572C26.3314 184.572 27.3274 183.594 27.3274 182.436C27.3274 181.278 26.3314 180.306 25.1434 180.306C23.9554 180.306 22.9474 181.278 22.9474 182.436C22.9474 183.594 23.9554 184.572 25.1434 184.572ZM25.1434 183.768C24.4474 183.768 23.8594 183.156 23.8594 182.436C23.8594 181.722 24.4474 181.11 25.1434 181.11C25.8334 181.11 26.4214 181.722 26.4214 182.436C26.4214 183.156 25.8334 183.768 25.1434 183.768ZM31.4209 181.77C31.4209 180.954 30.7669 180.378 29.8669 180.378H28.0129V184.5H28.9009V183.162H29.4349L30.3769 184.5H31.3849L30.3949 183.09C31.0129 182.91 31.4209 182.418 31.4209 181.77ZM28.9009 181.188H29.7769C30.2149 181.188 30.5149 181.416 30.5149 181.77C30.5149 182.124 30.2149 182.352 29.7769 182.352H28.9009V181.188ZM32.1175 184.5H33.0055V180.378H32.1175V184.5ZM33.9311 184.5H34.8191V181.836L36.8051 184.5H37.6931V180.378H36.8051V183.042L34.8191 180.378H33.9311V184.5ZM40.4278 182.874H41.3818V183.504C41.1538 183.672 40.8598 183.768 40.5838 183.768C39.8758 183.768 39.2818 183.156 39.2818 182.436C39.2818 181.722 39.8758 181.11 40.5838 181.11C40.9618 181.11 41.3578 181.29 41.6038 181.572L42.2458 180.996C41.8378 180.564 41.1958 180.306 40.5838 180.306C39.3838 180.306 38.3698 181.278 38.3698 182.436C38.3698 183.594 39.3838 184.572 40.5838 184.572C41.1958 184.572 41.8378 184.314 42.2458 183.882V182.184H40.4278V182.874Z" fill="#0F0B47"/>
<rect x="304" y="166.5" width="46" height="20" transform="rotate(-90 304 166.5)" fill="#542AED"/>
<rect x="284" y="166.5" width="34" height="20" transform="rotate(-90 284 166.5)" fill="#E46BB7"/>
<path d="M288.431 141.5H291.545V140.702H289.799L290.549 140.12C291.269 139.598 291.509 139.172 291.509 138.62C291.509 137.846 290.873 137.306 289.997 137.306C289.331 137.306 288.809 137.594 288.401 138.11L288.965 138.656C289.265 138.314 289.571 138.11 289.973 138.11C290.309 138.11 290.597 138.314 290.597 138.656C290.597 138.944 290.441 139.214 289.949 139.604L288.431 140.78V141.5ZM293.671 141.578C294.637 141.578 295.261 141.062 295.261 140.348C295.261 139.802 294.847 139.484 294.397 139.382C294.853 139.25 295.171 138.908 295.171 138.434C295.171 137.78 294.589 137.306 293.665 137.306C292.933 137.306 292.441 137.624 292.099 138.038L292.609 138.578C292.885 138.29 293.191 138.098 293.575 138.098C293.983 138.098 294.271 138.29 294.271 138.59C294.271 138.884 294.001 139.052 293.551 139.052L293.077 139.046V139.802H293.551C294.103 139.796 294.355 139.958 294.355 140.276C294.355 140.57 294.085 140.78 293.635 140.78C293.221 140.78 292.831 140.606 292.537 140.294L292.015 140.882C292.363 141.284 292.933 141.578 293.671 141.578ZM296.912 139.448C297.518 139.448 297.944 138.986 297.944 138.392C297.944 137.81 297.536 137.336 296.912 137.336C296.294 137.336 295.886 137.804 295.886 138.398C295.886 138.986 296.294 139.448 296.912 139.448ZM296.426 141.5H297.116L299.984 137.378H299.288L296.426 141.5ZM296.912 138.932C296.666 138.932 296.474 138.716 296.474 138.392C296.474 138.068 296.654 137.858 296.912 137.858C297.164 137.858 297.35 138.074 297.35 138.392C297.35 138.722 297.164 138.932 296.912 138.932ZM299.486 141.566C300.092 141.566 300.512 141.104 300.512 140.51C300.512 139.928 300.11 139.454 299.486 139.454C298.874 139.454 298.454 139.922 298.454 140.51C298.454 141.098 298.874 141.566 299.486 141.566ZM299.486 141.044C299.234 141.044 299.048 140.828 299.048 140.51C299.048 140.18 299.228 139.97 299.486 139.97C299.732 139.97 299.924 140.186 299.924 140.51C299.924 140.834 299.744 141.044 299.486 141.044Z" fill="white"/>
<path d="M311.312 129.578C312.278 129.578 312.902 129.062 312.902 128.348C312.902 127.802 312.488 127.484 312.038 127.382C312.494 127.25 312.812 126.908 312.812 126.434C312.812 125.78 312.23 125.306 311.306 125.306C310.574 125.306 310.082 125.624 309.74 126.038L310.25 126.578C310.526 126.29 310.832 126.098 311.216 126.098C311.624 126.098 311.912 126.29 311.912 126.59C311.912 126.884 311.642 127.052 311.192 127.052L310.718 127.046V127.802H311.192C311.744 127.796 311.996 127.958 311.996 128.276C311.996 128.57 311.726 128.78 311.276 128.78C310.862 128.78 310.472 128.606 310.178 128.294L309.656 128.882C310.004 129.284 310.574 129.578 311.312 129.578ZM314.391 129.5H315.273V125.378H314.565L313.329 126.206L313.689 126.83L314.391 126.392V129.5ZM317.131 127.448C317.737 127.448 318.163 126.986 318.163 126.392C318.163 125.81 317.755 125.336 317.131 125.336C316.513 125.336 316.105 125.804 316.105 126.398C316.105 126.986 316.513 127.448 317.131 127.448ZM316.645 129.5H317.335L320.203 125.378H319.507L316.645 129.5ZM317.131 126.932C316.885 126.932 316.693 126.716 316.693 126.392C316.693 126.068 316.873 125.858 317.131 125.858C317.383 125.858 317.569 126.074 317.569 126.392C317.569 126.722 317.383 126.932 317.131 126.932ZM319.705 129.566C320.311 129.566 320.731 129.104 320.731 128.51C320.731 127.928 320.329 127.454 319.705 127.454C319.093 127.454 318.673 127.922 318.673 128.51C318.673 129.098 319.093 129.566 319.705 129.566ZM319.705 129.044C319.453 129.044 319.267 128.828 319.267 128.51C319.267 128.18 319.447 127.97 319.705 127.97C319.951 127.97 320.143 128.186 320.143 128.51C320.143 128.834 319.963 129.044 319.705 129.044Z" fill="white"/>
<rect x="257" y="166.5" width="51" height="20" transform="rotate(-90 257 166.5)" fill="#542AED"/>
<rect x="237" y="166.5" width="33" height="20" transform="rotate(-90 237 166.5)" fill="#E46BB7"/>
<path d="M241.591 142.5H244.705V141.702H242.959L243.709 141.12C244.429 140.598 244.669 140.172 244.669 139.62C244.669 138.846 244.033 138.306 243.157 138.306C242.491 138.306 241.969 138.594 241.561 139.11L242.125 139.656C242.425 139.314 242.731 139.11 243.133 139.11C243.469 139.11 243.757 139.314 243.757 139.656C243.757 139.944 243.601 140.214 243.109 140.604L241.591 141.78V142.5ZM245.258 142.5H248.372V141.702H246.626L247.376 141.12C248.096 140.598 248.336 140.172 248.336 139.62C248.336 138.846 247.7 138.306 246.824 138.306C246.158 138.306 245.636 138.594 245.228 139.11L245.792 139.656C246.092 139.314 246.398 139.11 246.8 139.11C247.136 139.11 247.424 139.314 247.424 139.656C247.424 139.944 247.268 140.214 246.776 140.604L245.258 141.78V142.5ZM250.036 140.448C250.642 140.448 251.068 139.986 251.068 139.392C251.068 138.81 250.66 138.336 250.036 138.336C249.418 138.336 249.01 138.804 249.01 139.398C249.01 139.986 249.418 140.448 250.036 140.448ZM249.55 142.5H250.24L253.108 138.378H252.412L249.55 142.5ZM250.036 139.932C249.79 139.932 249.598 139.716 249.598 139.392C249.598 139.068 249.778 138.858 250.036 138.858C250.288 138.858 250.474 139.074 250.474 139.392C250.474 139.722 250.288 139.932 250.036 139.932ZM252.61 142.566C253.216 142.566 253.636 142.104 253.636 141.51C253.636 140.928 253.234 140.454 252.61 140.454C251.998 140.454 251.578 140.922 251.578 141.51C251.578 142.098 251.998 142.566 252.61 142.566ZM252.61 142.044C252.358 142.044 252.172 141.828 252.172 141.51C252.172 141.18 252.352 140.97 252.61 140.97C252.856 140.97 253.048 141.186 253.048 141.51C253.048 141.834 252.868 142.044 252.61 142.044Z" fill="white"/>
<path d="M263.086 124.578C264.052 124.578 264.676 124.062 264.676 123.348C264.676 122.802 264.262 122.484 263.812 122.382C264.268 122.25 264.586 121.908 264.586 121.434C264.586 120.78 264.004 120.306 263.08 120.306C262.348 120.306 261.856 120.624 261.514 121.038L262.024 121.578C262.3 121.29 262.606 121.098 262.99 121.098C263.398 121.098 263.686 121.29 263.686 121.59C263.686 121.884 263.416 122.052 262.966 122.052L262.492 122.046V122.802H262.966C263.518 122.796 263.77 122.958 263.77 123.276C263.77 123.57 263.5 123.78 263.05 123.78C262.636 123.78 262.246 123.606 261.952 123.294L261.43 123.882C261.778 124.284 262.348 124.578 263.086 124.578ZM267.245 124.5H268.127V123.66H268.673V122.916H268.127V120.384H267.059L265.145 122.976L265.229 123.66H267.245V124.5ZM266.075 122.916L267.245 121.32V122.916H266.075ZM270.224 122.448C270.83 122.448 271.256 121.986 271.256 121.392C271.256 120.81 270.848 120.336 270.224 120.336C269.606 120.336 269.198 120.804 269.198 121.398C269.198 121.986 269.606 122.448 270.224 122.448ZM269.738 124.5H270.428L273.296 120.378H272.6L269.738 124.5ZM270.224 121.932C269.978 121.932 269.786 121.716 269.786 121.392C269.786 121.068 269.966 120.858 270.224 120.858C270.476 120.858 270.662 121.074 270.662 121.392C270.662 121.722 270.476 121.932 270.224 121.932ZM272.798 124.566C273.404 124.566 273.824 124.104 273.824 123.51C273.824 122.928 273.422 122.454 272.798 122.454C272.186 122.454 271.766 122.922 271.766 123.51C271.766 124.098 272.186 124.566 272.798 124.566ZM272.798 124.044C272.546 124.044 272.36 123.828 272.36 123.51C272.36 123.18 272.54 122.97 272.798 122.97C273.044 122.97 273.236 123.186 273.236 123.51C273.236 123.834 273.056 124.044 272.798 124.044Z" fill="white"/>
<rect x="210" y="166.5" width="54" height="20" transform="rotate(-90 210 166.5)" fill="#542AED"/>
<rect x="190" y="166.5" width="40" height="20" transform="rotate(-90 190 166.5)" fill="#E46BB7"/>
<path d="M194.416 135.5H197.53V134.702H195.784L196.534 134.12C197.254 133.598 197.494 133.172 197.494 132.62C197.494 131.846 196.858 131.306 195.982 131.306C195.316 131.306 194.794 131.594 194.386 132.11L194.95 132.656C195.25 132.314 195.556 132.11 195.958 132.11C196.294 132.11 196.582 132.314 196.582 132.656C196.582 132.944 196.426 133.214 195.934 133.604L194.416 134.78V135.5ZM198.414 135.5H199.41L201.078 132.044V131.378H198.012V132.176H200.052L198.414 135.5ZM202.621 133.448C203.227 133.448 203.653 132.986 203.653 132.392C203.653 131.81 203.245 131.336 202.621 131.336C202.003 131.336 201.595 131.804 201.595 132.398C201.595 132.986 202.003 133.448 202.621 133.448ZM202.135 135.5H202.825L205.693 131.378H204.997L202.135 135.5ZM202.621 132.932C202.375 132.932 202.183 132.716 202.183 132.392C202.183 132.068 202.363 131.858 202.621 131.858C202.873 131.858 203.059 132.074 203.059 132.392C203.059 132.722 202.873 132.932 202.621 132.932ZM205.195 135.566C205.801 135.566 206.221 135.104 206.221 134.51C206.221 133.928 205.819 133.454 205.195 133.454C204.583 133.454 204.163 133.922 204.163 134.51C204.163 135.098 204.583 135.566 205.195 135.566ZM205.195 135.044C204.943 135.044 204.757 134.828 204.757 134.51C204.757 134.18 204.937 133.97 205.195 133.97C205.441 133.97 205.633 134.186 205.633 134.51C205.633 134.834 205.453 135.044 205.195 135.044Z" fill="white"/>
<path d="M215.547 121.578C216.513 121.578 217.137 121.062 217.137 120.348C217.137 119.802 216.723 119.484 216.273 119.382C216.729 119.25 217.047 118.908 217.047 118.434C217.047 117.78 216.465 117.306 215.541 117.306C214.809 117.306 214.317 117.624 213.975 118.038L214.485 118.578C214.761 118.29 215.067 118.098 215.451 118.098C215.859 118.098 216.147 118.29 216.147 118.59C216.147 118.884 215.877 119.052 215.427 119.052L214.953 119.046V119.802H215.427C215.979 119.796 216.231 119.958 216.231 120.276C216.231 120.57 215.961 120.78 215.511 120.78C215.097 120.78 214.707 120.606 214.413 120.294L213.891 120.882C214.239 121.284 214.809 121.578 215.547 121.578ZM219.67 118.836C219.28 118.836 218.902 118.986 218.65 119.232C218.728 118.536 219.088 118.086 219.628 118.086C219.976 118.086 220.216 118.212 220.468 118.422L220.888 117.75C220.552 117.48 220.138 117.306 219.628 117.306C218.482 117.306 217.732 118.224 217.732 119.508C217.732 120.708 218.284 121.572 219.484 121.572C220.384 121.572 221.062 120.99 221.062 120.144C221.062 119.328 220.432 118.836 219.67 118.836ZM219.436 120.822C218.974 120.822 218.752 120.54 218.674 120.036C218.8 119.742 219.076 119.556 219.412 119.556C219.814 119.556 220.15 119.79 220.15 120.186C220.15 120.516 219.874 120.822 219.436 120.822ZM222.667 119.448C223.273 119.448 223.699 118.986 223.699 118.392C223.699 117.81 223.291 117.336 222.667 117.336C222.049 117.336 221.641 117.804 221.641 118.398C221.641 118.986 222.049 119.448 222.667 119.448ZM222.181 121.5H222.871L225.739 117.378H225.043L222.181 121.5ZM222.667 118.932C222.421 118.932 222.229 118.716 222.229 118.392C222.229 118.068 222.409 117.858 222.667 117.858C222.919 117.858 223.105 118.074 223.105 118.392C223.105 118.722 222.919 118.932 222.667 118.932ZM225.241 121.566C225.847 121.566 226.267 121.104 226.267 120.51C226.267 119.928 225.865 119.454 225.241 119.454C224.629 119.454 224.209 119.922 224.209 120.51C224.209 121.098 224.629 121.566 225.241 121.566ZM225.241 121.044C224.989 121.044 224.803 120.828 224.803 120.51C224.803 120.18 224.983 119.97 225.241 119.97C225.487 119.97 225.679 120.186 225.679 120.51C225.679 120.834 225.499 121.044 225.241 121.044Z" fill="white"/>
<rect x="163.057" y="166.5" width="59" height="20" transform="rotate(-90 163.057 166.5)" fill="#542AED"/>
<rect x="143" y="166.5" width="42" height="20" transform="rotate(-90 143 166.5)" fill="#E46BB7"/>
<path d="M147.491 133.5H150.605V132.702H148.859L149.609 132.12C150.329 131.598 150.569 131.172 150.569 130.62C150.569 129.846 149.933 129.306 149.057 129.306C148.391 129.306 147.869 129.594 147.461 130.11L148.025 130.656C148.325 130.314 148.631 130.11 149.033 130.11C149.369 130.11 149.657 130.314 149.657 130.656C149.657 130.944 149.501 131.214 149.009 131.604L147.491 132.78V133.5ZM152.845 133.572C153.751 133.572 154.501 133.146 154.501 132.396C154.501 131.922 154.177 131.562 153.691 131.37C154.105 131.19 154.399 130.89 154.399 130.428C154.399 129.72 153.667 129.306 152.845 129.306C152.041 129.306 151.297 129.702 151.297 130.428C151.297 130.896 151.591 131.196 151.999 131.37C151.525 131.55 151.189 131.91 151.189 132.396C151.189 133.14 151.933 133.572 152.845 133.572ZM152.845 131.064C152.521 131.04 152.179 130.86 152.179 130.542C152.179 130.26 152.449 130.05 152.845 130.05C153.241 130.05 153.517 130.26 153.517 130.542C153.517 130.848 153.169 131.04 152.845 131.064ZM152.845 132.828C152.407 132.828 152.089 132.612 152.089 132.3C152.089 131.976 152.491 131.772 152.845 131.76C153.199 131.772 153.607 131.976 153.607 132.3C153.607 132.612 153.283 132.828 152.845 132.828ZM156.136 131.448C156.742 131.448 157.168 130.986 157.168 130.392C157.168 129.81 156.76 129.336 156.136 129.336C155.518 129.336 155.11 129.804 155.11 130.398C155.11 130.986 155.518 131.448 156.136 131.448ZM155.65 133.5H156.34L159.208 129.378H158.512L155.65 133.5ZM156.136 130.932C155.89 130.932 155.698 130.716 155.698 130.392C155.698 130.068 155.878 129.858 156.136 129.858C156.388 129.858 156.574 130.074 156.574 130.392C156.574 130.722 156.388 130.932 156.136 130.932ZM158.71 133.566C159.316 133.566 159.736 133.104 159.736 132.51C159.736 131.928 159.334 131.454 158.71 131.454C158.098 131.454 157.678 131.922 157.678 132.51C157.678 133.098 158.098 133.566 158.71 133.566ZM158.71 133.044C158.458 133.044 158.272 132.828 158.272 132.51C158.272 132.18 158.452 131.97 158.71 131.97C158.956 131.97 159.148 132.186 159.148 132.51C159.148 132.834 158.968 133.044 158.71 133.044Z" fill="white"/>
<path d="M168.634 116.578C169.6 116.578 170.224 116.062 170.224 115.348C170.224 114.802 169.81 114.484 169.36 114.382C169.816 114.25 170.134 113.908 170.134 113.434C170.134 112.78 169.552 112.306 168.628 112.306C167.896 112.306 167.404 112.624 167.062 113.038L167.572 113.578C167.848 113.29 168.154 113.098 168.538 113.098C168.946 113.098 169.234 113.29 169.234 113.59C169.234 113.884 168.964 114.052 168.514 114.052L168.04 114.046V114.802H168.514C169.066 114.796 169.318 114.958 169.318 115.276C169.318 115.57 169.048 115.78 168.598 115.78C168.184 115.78 167.794 115.606 167.5 115.294L166.978 115.882C167.326 116.284 167.896 116.578 168.634 116.578ZM172.344 112.306C171.444 112.306 170.766 112.888 170.766 113.734C170.766 114.55 171.396 115.042 172.158 115.042C172.548 115.042 172.926 114.892 173.178 114.646C173.1 115.342 172.74 115.792 172.2 115.792C171.852 115.792 171.612 115.666 171.36 115.456L170.94 116.128C171.276 116.398 171.69 116.572 172.2 116.572C173.346 116.572 174.096 115.654 174.096 114.37C174.096 113.17 173.544 112.306 172.344 112.306ZM172.416 114.322C172.014 114.322 171.678 114.088 171.678 113.692C171.678 113.362 171.954 113.056 172.392 113.056C172.854 113.056 173.076 113.338 173.154 113.842C173.028 114.136 172.752 114.322 172.416 114.322ZM175.754 114.448C176.36 114.448 176.786 113.986 176.786 113.392C176.786 112.81 176.378 112.336 175.754 112.336C175.136 112.336 174.728 112.804 174.728 113.398C174.728 113.986 175.136 114.448 175.754 114.448ZM175.268 116.5H175.958L178.826 112.378H178.13L175.268 116.5ZM175.754 113.932C175.508 113.932 175.316 113.716 175.316 113.392C175.316 113.068 175.496 112.858 175.754 112.858C176.006 112.858 176.192 113.074 176.192 113.392C176.192 113.722 176.006 113.932 175.754 113.932ZM178.328 116.566C178.934 116.566 179.354 116.104 179.354 115.51C179.354 114.928 178.952 114.454 178.328 114.454C177.716 114.454 177.296 114.922 177.296 115.51C177.296 116.098 177.716 116.566 178.328 116.566ZM178.328 116.044C178.076 116.044 177.89 115.828 177.89 115.51C177.89 115.18 178.07 114.97 178.328 114.97C178.574 114.97 178.766 115.186 178.766 115.51C178.766 115.834 178.586 116.044 178.328 116.044Z" fill="white"/>
<rect x="116" y="166.5" width="66" height="20" transform="rotate(-90 116 166.5)" fill="#542AED"/>
<rect x="96" y="166.5" width="49" height="20" transform="rotate(-90 96 166.5)" fill="#E46BB7"/>
<path d="M101.579 126.578C102.545 126.578 103.169 126.062 103.169 125.348C103.169 124.802 102.755 124.484 102.305 124.382C102.761 124.25 103.079 123.908 103.079 123.434C103.079 122.78 102.497 122.306 101.573 122.306C100.841 122.306 100.349 122.624 100.007 123.038L100.517 123.578C100.793 123.29 101.099 123.098 101.483 123.098C101.891 123.098 102.179 123.29 102.179 123.59C102.179 123.884 101.909 124.052 101.459 124.052L100.985 124.046V124.802H101.459C102.011 124.796 102.263 124.958 102.263 125.276C102.263 125.57 101.993 125.78 101.543 125.78C101.129 125.78 100.739 125.606 100.445 125.294L99.9227 125.882C100.271 126.284 100.841 126.578 101.579 126.578ZM105.282 126.578C106.248 126.578 106.872 126.062 106.872 125.348C106.872 124.802 106.458 124.484 106.008 124.382C106.464 124.25 106.782 123.908 106.782 123.434C106.782 122.78 106.2 122.306 105.276 122.306C104.544 122.306 104.052 122.624 103.71 123.038L104.22 123.578C104.496 123.29 104.802 123.098 105.186 123.098C105.594 123.098 105.882 123.29 105.882 123.59C105.882 123.884 105.612 124.052 105.162 124.052L104.688 124.046V124.802H105.162C105.714 124.796 105.966 124.958 105.966 125.276C105.966 125.57 105.696 125.78 105.246 125.78C104.832 125.78 104.442 125.606 104.148 125.294L103.626 125.882C103.974 126.284 104.544 126.578 105.282 126.578ZM108.523 124.448C109.129 124.448 109.555 123.986 109.555 123.392C109.555 122.81 109.147 122.336 108.523 122.336C107.905 122.336 107.497 122.804 107.497 123.398C107.497 123.986 107.905 124.448 108.523 124.448ZM108.037 126.5H108.727L111.595 122.378H110.899L108.037 126.5ZM108.523 123.932C108.277 123.932 108.085 123.716 108.085 123.392C108.085 123.068 108.265 122.858 108.523 122.858C108.775 122.858 108.961 123.074 108.961 123.392C108.961 123.722 108.775 123.932 108.523 123.932ZM111.097 126.566C111.703 126.566 112.123 126.104 112.123 125.51C112.123 124.928 111.721 124.454 111.097 124.454C110.485 124.454 110.065 124.922 110.065 125.51C110.065 126.098 110.485 126.566 111.097 126.566ZM111.097 126.044C110.845 126.044 110.659 125.828 110.659 125.51C110.659 125.18 110.839 124.97 111.097 124.97C111.343 124.97 111.535 125.186 111.535 125.51C111.535 125.834 111.355 126.044 111.097 126.044Z" fill="white"/>
<path d="M121.837 109.5H122.719V108.66H123.265V107.916H122.719V105.384H121.651L119.737 107.976L119.821 108.66H121.837V109.5ZM120.667 107.916L121.837 106.32V107.916H120.667ZM125.734 109.5H126.616V108.66H127.162V107.916H126.616V105.384H125.548L123.634 107.976L123.718 108.66H125.734V109.5ZM124.564 107.916L125.734 106.32V107.916H124.564ZM128.712 107.448C129.318 107.448 129.744 106.986 129.744 106.392C129.744 105.81 129.336 105.336 128.712 105.336C128.094 105.336 127.686 105.804 127.686 106.398C127.686 106.986 128.094 107.448 128.712 107.448ZM128.226 109.5H128.916L131.784 105.378H131.088L128.226 109.5ZM128.712 106.932C128.466 106.932 128.274 106.716 128.274 106.392C128.274 106.068 128.454 105.858 128.712 105.858C128.964 105.858 129.15 106.074 129.15 106.392C129.15 106.722 128.964 106.932 128.712 106.932ZM131.286 109.566C131.892 109.566 132.312 109.104 132.312 108.51C132.312 107.928 131.91 107.454 131.286 107.454C130.674 107.454 130.254 107.922 130.254 108.51C130.254 109.098 130.674 109.566 131.286 109.566ZM131.286 109.044C131.034 109.044 130.848 108.828 130.848 108.51C130.848 108.18 131.028 107.97 131.286 107.97C131.532 107.97 131.724 108.186 131.724 108.51C131.724 108.834 131.544 109.044 131.286 109.044Z" fill="white"/>
<rect x="69" y="166.5" width="106" height="20" transform="rotate(-90 69 166.5)" fill="#542AED"/>
<rect x="49" y="166.5" width="72" height="20" transform="rotate(-90 49 166.5)" fill="#E46BB7"/>
<path d="M55.0347 103.5H55.9167V102.66H56.4627V101.916H55.9167V99.384H54.8487L52.9347 101.976L53.0187 102.66H55.0347V103.5ZM53.8647 101.916L55.0347 100.32V101.916H53.8647ZM58.5892 103.572C59.4952 103.572 60.2452 103.146 60.2452 102.396C60.2452 101.922 59.9212 101.562 59.4352 101.37C59.8492 101.19 60.1432 100.89 60.1432 100.428C60.1432 99.72 59.4112 99.306 58.5892 99.306C57.7852 99.306 57.0412 99.702 57.0412 100.428C57.0412 100.896 57.3352 101.196 57.7432 101.37C57.2692 101.55 56.9332 101.91 56.9332 102.396C56.9332 103.14 57.6772 103.572 58.5892 103.572ZM58.5892 101.064C58.2652 101.04 57.9232 100.86 57.9232 100.542C57.9232 100.26 58.1932 100.05 58.5892 100.05C58.9852 100.05 59.2612 100.26 59.2612 100.542C59.2612 100.848 58.9132 101.04 58.5892 101.064ZM58.5892 102.828C58.1512 102.828 57.8332 102.612 57.8332 102.3C57.8332 101.976 58.2352 101.772 58.5892 101.76C58.9432 101.772 59.3512 101.976 59.3512 102.3C59.3512 102.612 59.0272 102.828 58.5892 102.828ZM61.8804 101.448C62.4864 101.448 62.9124 100.986 62.9124 100.392C62.9124 99.81 62.5044 99.336 61.8804 99.336C61.2624 99.336 60.8544 99.804 60.8544 100.398C60.8544 100.986 61.2624 101.448 61.8804 101.448ZM61.3944 103.5H62.0844L64.9524 99.378H64.2564L61.3944 103.5ZM61.8804 100.932C61.6344 100.932 61.4424 100.716 61.4424 100.392C61.4424 100.068 61.6224 99.858 61.8804 99.858C62.1324 99.858 62.3184 100.074 62.3184 100.392C62.3184 100.722 62.1324 100.932 61.8804 100.932ZM64.4544 103.566C65.0604 103.566 65.4804 103.104 65.4804 102.51C65.4804 101.928 65.0784 101.454 64.4544 101.454C63.8424 101.454 63.4224 101.922 63.4224 102.51C63.4224 103.098 63.8424 103.566 64.4544 103.566ZM64.4544 103.044C64.2024 103.044 64.0164 102.828 64.0164 102.51C64.0164 102.18 64.1964 101.97 64.4544 101.97C64.7004 101.97 64.8924 102.186 64.8924 102.51C64.8924 102.834 64.7124 103.044 64.4544 103.044Z" fill="white"/>
<path d="M73.9002 70.5H74.8962L76.5642 67.044V66.378H73.4982V67.176H75.5382L73.9002 70.5ZM77.946 70.5H78.828V66.378H78.12L76.884 67.206L77.244 67.83L77.946 67.392V70.5ZM80.6861 68.448C81.2921 68.448 81.7181 67.986 81.7181 67.392C81.7181 66.81 81.3101 66.336 80.6861 66.336C80.0681 66.336 79.6601 66.804 79.6601 67.398C79.6601 67.986 80.0681 68.448 80.6861 68.448ZM80.2001 70.5H80.8901L83.7581 66.378H83.0621L80.2001 70.5ZM80.6861 67.932C80.4401 67.932 80.2481 67.716 80.2481 67.392C80.2481 67.068 80.4281 66.858 80.6861 66.858C80.9381 66.858 81.1241 67.074 81.1241 67.392C81.1241 67.722 80.9381 67.932 80.6861 67.932ZM83.2601 70.566C83.8661 70.566 84.2861 70.104 84.2861 69.51C84.2861 68.928 83.8841 68.454 83.2601 68.454C82.6481 68.454 82.2281 68.922 82.2281 69.51C82.2281 70.098 82.6481 70.566 83.2601 70.566ZM83.2601 70.044C83.0081 70.044 82.8221 69.828 82.8221 69.51C82.8221 69.18 83.0021 68.97 83.2601 68.97C83.5061 68.97 83.6981 69.186 83.6981 69.51C83.6981 69.834 83.5181 70.044 83.2601 70.044Z" fill="white"/>
<rect x="22.0566" y="166.5" width="115" height="20" transform="rotate(-90 22.0566 166.5)" fill="#542AED"/>
<rect x="2" y="166.5" width="91" height="20" transform="rotate(-90 2 166.5)" fill="#E46BB7"/>
<path d="M26.3924 60.5H27.3884L29.0564 57.044V56.378H25.9904V57.176H28.0304L26.3924 60.5ZM29.8201 60.5H30.8161L32.4841 57.044V56.378H29.4181V57.176H31.4581L29.8201 60.5ZM34.0279 58.448C34.6339 58.448 35.0599 57.986 35.0599 57.392C35.0599 56.81 34.6519 56.336 34.0279 56.336C33.4099 56.336 33.0019 56.804 33.0019 57.398C33.0019 57.986 33.4099 58.448 34.0279 58.448ZM33.5419 60.5H34.2319L37.0999 56.378H36.4039L33.5419 60.5ZM34.0279 57.932C33.7819 57.932 33.5899 57.716 33.5899 57.392C33.5899 57.068 33.7699 56.858 34.0279 56.858C34.2799 56.858 34.4659 57.074 34.4659 57.392C34.4659 57.722 34.2799 57.932 34.0279 57.932ZM36.6019 60.566C37.2079 60.566 37.6279 60.104 37.6279 59.51C37.6279 58.928 37.2259 58.454 36.6019 58.454C35.9899 58.454 35.5699 58.922 35.5699 59.51C35.5699 60.098 35.9899 60.566 36.6019 60.566ZM36.6019 60.044C36.3499 60.044 36.1639 59.828 36.1639 59.51C36.1639 59.18 36.3439 58.97 36.6019 58.97C36.8479 58.97 37.0399 59.186 37.0399 59.51C37.0399 59.834 36.8599 60.044 36.6019 60.044Z" fill="white"/>
<path d="M7.99874 81.836C7.60874 81.836 7.23074 81.986 6.97874 82.232C7.05674 81.536 7.41674 81.086 7.95674 81.086C8.30474 81.086 8.54474 81.212 8.79674 81.422L9.21674 80.75C8.88074 80.48 8.46674 80.306 7.95674 80.306C6.81074 80.306 6.06074 81.224 6.06074 82.508C6.06074 83.708 6.61274 84.572 7.81274 84.572C8.71274 84.572 9.39074 83.99 9.39074 83.144C9.39074 82.328 8.76074 81.836 7.99874 81.836ZM7.76474 83.822C7.30274 83.822 7.08074 83.54 7.00274 83.036C7.12874 82.742 7.40474 82.556 7.74074 82.556C8.14274 82.556 8.47874 82.79 8.47874 83.186C8.47874 83.516 8.20274 83.822 7.76474 83.822ZM11.7816 84.572C12.8676 84.572 13.6296 83.69 13.6296 82.436C13.6296 81.188 12.8676 80.306 11.7816 80.306C10.6956 80.306 9.92765 81.188 9.92765 82.436C9.92765 83.69 10.6956 84.572 11.7816 84.572ZM11.7816 83.768C11.2296 83.768 10.8396 83.21 10.8396 82.436C10.8396 81.662 11.2296 81.11 11.7816 81.11C12.3336 81.11 12.7236 81.662 12.7236 82.436C12.7236 83.21 12.3336 83.768 11.7816 83.768ZM15.273 82.448C15.879 82.448 16.305 81.986 16.305 81.392C16.305 80.81 15.897 80.336 15.273 80.336C14.655 80.336 14.247 80.804 14.247 81.398C14.247 81.986 14.655 82.448 15.273 82.448ZM14.787 84.5H15.477L18.345 80.378H17.649L14.787 84.5ZM15.273 81.932C15.027 81.932 14.835 81.716 14.835 81.392C14.835 81.068 15.015 80.858 15.273 80.858C15.525 80.858 15.711 81.074 15.711 81.392C15.711 81.722 15.525 81.932 15.273 81.932ZM17.847 84.566C18.453 84.566 18.873 84.104 18.873 83.51C18.873 82.928 18.471 82.454 17.847 82.454C17.235 82.454 16.815 82.922 16.815 83.51C16.815 84.098 17.235 84.566 17.847 84.566ZM17.847 84.044C17.595 84.044 17.409 83.828 17.409 83.51C17.409 83.18 17.589 82.97 17.847 82.97C18.093 82.97 18.285 83.186 18.285 83.51C18.285 83.834 18.105 84.044 17.847 84.044Z" fill="white"/>
<line x1="-2.18557e-08" y1="166.25" x2="327" y2="166.25" stroke="#0F0B47" stroke-width="0.5"/>
<path d="M69.1976 42.405H67.2396V40.403H65.8536V42.405H63.8846V43.714H65.8536V45.716H67.2396V43.714H69.1976V42.405ZM74.0215 46.728H75.6385V45.188H76.6395V43.824H75.6385V39.182H73.6805L70.1715 43.934L70.3255 45.188H74.0215V46.728ZM71.8765 43.824L74.0215 40.898V43.824H71.8765ZM80.5381 46.86C82.1991 46.86 83.5741 46.079 83.5741 44.704C83.5741 43.835 82.9801 43.175 82.0891 42.823C82.8481 42.493 83.3871 41.943 83.3871 41.096C83.3871 39.798 82.0451 39.039 80.5381 39.039C79.0641 39.039 77.7001 39.765 77.7001 41.096C77.7001 41.954 78.2391 42.504 78.9871 42.823C78.1181 43.153 77.5021 43.813 77.5021 44.704C77.5021 46.068 78.8661 46.86 80.5381 46.86ZM80.5381 42.262C79.9441 42.218 79.3171 41.888 79.3171 41.305C79.3171 40.788 79.8121 40.403 80.5381 40.403C81.2641 40.403 81.7701 40.788 81.7701 41.305C81.7701 41.866 81.1321 42.218 80.5381 42.262ZM80.5381 45.496C79.7351 45.496 79.1521 45.1 79.1521 44.528C79.1521 43.934 79.8891 43.56 80.5381 43.538C81.1871 43.56 81.9351 43.934 81.9351 44.528C81.9351 45.1 81.3411 45.496 80.5381 45.496ZM86.5719 42.966C87.6829 42.966 88.4639 42.119 88.4639 41.03C88.4639 39.963 87.7159 39.094 86.5719 39.094C85.4389 39.094 84.6909 39.952 84.6909 41.041C84.6909 42.119 85.4389 42.966 86.5719 42.966ZM85.6809 46.728H86.9459L92.2039 39.171H90.9279L85.6809 46.728ZM86.5719 42.02C86.1209 42.02 85.7689 41.624 85.7689 41.03C85.7689 40.436 86.0989 40.051 86.5719 40.051C87.0339 40.051 87.3749 40.447 87.3749 41.03C87.3749 41.635 87.0339 42.02 86.5719 42.02ZM91.2909 46.849C92.4019 46.849 93.1719 46.002 93.1719 44.913C93.1719 43.846 92.4349 42.977 91.2909 42.977C90.1689 42.977 89.3989 43.835 89.3989 44.913C89.3989 45.991 90.1689 46.849 91.2909 46.849ZM91.2909 45.892C90.8289 45.892 90.4879 45.496 90.4879 44.913C90.4879 44.308 90.8179 43.923 91.2909 43.923C91.7419 43.923 92.0939 44.319 92.0939 44.913C92.0939 45.507 91.7639 45.892 91.2909 45.892Z" fill="#0F0B47"/>
<path d="M116.928 82.177H114.97V80.175H113.584V82.177H111.615V83.486H113.584V85.488H114.97V83.486H116.928V82.177ZM120.916 86.643C122.687 86.643 123.831 85.697 123.831 84.388C123.831 83.387 123.072 82.804 122.247 82.617C123.083 82.375 123.666 81.748 123.666 80.879C123.666 79.68 122.599 78.811 120.905 78.811C119.563 78.811 118.661 79.394 118.034 80.153L118.969 81.143C119.475 80.615 120.036 80.263 120.74 80.263C121.488 80.263 122.016 80.615 122.016 81.165C122.016 81.704 121.521 82.012 120.696 82.012L119.827 82.001V83.387H120.696C121.708 83.376 122.17 83.673 122.17 84.256C122.17 84.795 121.675 85.18 120.85 85.18C120.091 85.18 119.376 84.861 118.837 84.289L117.88 85.367C118.518 86.104 119.563 86.643 120.916 86.643ZM128.475 81.616C127.76 81.616 127.067 81.891 126.605 82.342C126.748 81.066 127.408 80.241 128.398 80.241C129.036 80.241 129.476 80.472 129.938 80.857L130.708 79.625C130.092 79.13 129.333 78.811 128.398 78.811C126.297 78.811 124.922 80.494 124.922 82.848C124.922 85.048 125.934 86.632 128.134 86.632C129.784 86.632 131.027 85.565 131.027 84.014C131.027 82.518 129.872 81.616 128.475 81.616ZM128.046 85.257C127.199 85.257 126.792 84.74 126.649 83.816C126.88 83.277 127.386 82.936 128.002 82.936C128.739 82.936 129.355 83.365 129.355 84.091C129.355 84.696 128.849 85.257 128.046 85.257ZM133.969 82.738C135.08 82.738 135.861 81.891 135.861 80.802C135.861 79.735 135.113 78.866 133.969 78.866C132.836 78.866 132.088 79.724 132.088 80.813C132.088 81.891 132.836 82.738 133.969 82.738ZM133.078 86.5H134.343L139.601 78.943H138.325L133.078 86.5ZM133.969 81.792C133.518 81.792 133.166 81.396 133.166 80.802C133.166 80.208 133.496 79.823 133.969 79.823C134.431 79.823 134.772 80.219 134.772 80.802C134.772 81.407 134.431 81.792 133.969 81.792ZM138.688 86.621C139.799 86.621 140.569 85.774 140.569 84.685C140.569 83.618 139.832 82.749 138.688 82.749C137.566 82.749 136.796 83.607 136.796 84.685C136.796 85.763 137.566 86.621 138.688 86.621ZM138.688 85.664C138.226 85.664 137.885 85.268 137.885 84.685C137.885 84.08 138.215 83.695 138.688 83.695C139.139 83.695 139.491 84.091 139.491 84.685C139.491 85.279 139.161 85.664 138.688 85.664Z" fill="#0F0B47"/>
<path d="M163.348 90.613H161.39V88.611H160.004V90.613H158.035V91.922H160.004V93.924H161.39V91.922H163.348V90.613ZM168.172 94.936H169.789V93.396H170.79V92.032H169.789V87.39H167.831L164.322 92.142L164.476 93.396H168.172V94.936ZM166.027 92.032L168.172 89.106V92.032H166.027ZM174.479 95.079C176.25 95.079 177.394 94.133 177.394 92.824C177.394 91.823 176.635 91.24 175.81 91.053C176.646 90.811 177.229 90.184 177.229 89.315C177.229 88.116 176.162 87.247 174.468 87.247C173.126 87.247 172.224 87.83 171.597 88.589L172.532 89.579C173.038 89.051 173.599 88.699 174.303 88.699C175.051 88.699 175.579 89.051 175.579 89.601C175.579 90.14 175.084 90.448 174.259 90.448L173.39 90.437V91.823H174.259C175.271 91.812 175.733 92.109 175.733 92.692C175.733 93.231 175.238 93.616 174.413 93.616C173.654 93.616 172.939 93.297 172.4 92.725L171.443 93.803C172.081 94.54 173.126 95.079 174.479 95.079ZM180.422 91.174C181.533 91.174 182.314 90.327 182.314 89.238C182.314 88.171 181.566 87.302 180.422 87.302C179.289 87.302 178.541 88.16 178.541 89.249C178.541 90.327 179.289 91.174 180.422 91.174ZM179.531 94.936H180.796L186.054 87.379H184.778L179.531 94.936ZM180.422 90.228C179.971 90.228 179.619 89.832 179.619 89.238C179.619 88.644 179.949 88.259 180.422 88.259C180.884 88.259 181.225 88.655 181.225 89.238C181.225 89.843 180.884 90.228 180.422 90.228ZM185.141 95.057C186.252 95.057 187.022 94.21 187.022 93.121C187.022 92.054 186.285 91.185 185.141 91.185C184.019 91.185 183.249 92.043 183.249 93.121C183.249 94.199 184.019 95.057 185.141 95.057ZM185.141 94.1C184.679 94.1 184.338 93.704 184.338 93.121C184.338 92.516 184.668 92.131 185.141 92.131C185.592 92.131 185.944 92.527 185.944 93.121C185.944 93.715 185.614 94.1 185.141 94.1Z" fill="#0F0B47"/>
<path d="M208.998 95.1614H207.04V93.1594H205.654V95.1614H203.685V96.4704H205.654V98.4724H207.04V96.4704H208.998V95.1614ZM212.986 99.6274C214.757 99.6274 215.901 98.6814 215.901 97.3724C215.901 96.3714 215.142 95.7884 214.317 95.6014C215.153 95.3594 215.736 94.7324 215.736 93.8634C215.736 92.6644 214.669 91.7954 212.975 91.7954C211.633 91.7954 210.731 92.3784 210.104 93.1374L211.039 94.1274C211.545 93.5994 212.106 93.2474 212.81 93.2474C213.558 93.2474 214.086 93.5994 214.086 94.1494C214.086 94.6884 213.591 94.9964 212.766 94.9964L211.897 94.9854V96.3714H212.766C213.778 96.3604 214.24 96.6574 214.24 97.2404C214.24 97.7794 213.745 98.1644 212.92 98.1644C212.161 98.1644 211.446 97.8454 210.907 97.2734L209.95 98.3514C210.588 99.0884 211.633 99.6274 212.986 99.6274ZM219.797 99.6274C221.601 99.6274 222.8 98.6044 222.8 96.9984C222.8 95.4584 221.645 94.6004 220.303 94.6004C219.687 94.6004 219.203 94.7984 218.829 95.0624L218.873 93.3904H222.393V91.9274H217.377L217.267 96.0084L218.356 96.4484C218.763 96.1404 219.247 95.9534 219.819 95.9534C220.644 95.9534 221.183 96.3934 221.183 97.0534C221.183 97.7024 220.666 98.2084 219.808 98.2084C219.082 98.2084 218.4 97.8564 217.828 97.3174L216.871 98.4614C217.575 99.1654 218.532 99.6274 219.797 99.6274ZM225.771 95.7224C226.882 95.7224 227.663 94.8754 227.663 93.7864C227.663 92.7194 226.915 91.8504 225.771 91.8504C224.638 91.8504 223.89 92.7084 223.89 93.7974C223.89 94.8754 224.638 95.7224 225.771 95.7224ZM224.88 99.4844H226.145L231.403 91.9274H230.127L224.88 99.4844ZM225.771 94.7764C225.32 94.7764 224.968 94.3804 224.968 93.7864C224.968 93.1924 225.298 92.8074 225.771 92.8074C226.233 92.8074 226.574 93.2034 226.574 93.7864C226.574 94.3914 226.233 94.7764 225.771 94.7764ZM230.49 99.6054C231.601 99.6054 232.371 98.7584 232.371 97.6694C232.371 96.6024 231.634 95.7334 230.49 95.7334C229.368 95.7334 228.598 96.5914 228.598 97.6694C228.598 98.7474 229.368 99.6054 230.49 99.6054ZM230.49 98.6484C230.028 98.6484 229.687 98.2524 229.687 97.6694C229.687 97.0644 230.017 96.6794 230.49 96.6794C230.941 96.6794 231.293 97.0754 231.293 97.6694C231.293 98.2634 230.963 98.6484 230.49 98.6484Z" fill="#0F0B47"/>
<path d="M256.472 99.6682H254.514V97.6662H253.128V99.6682H251.159V100.977H253.128V102.979H254.514V100.977H256.472V99.6682ZM260.481 104.134C262.285 104.134 263.484 103.111 263.484 101.505C263.484 99.9652 262.329 99.1072 260.987 99.1072C260.371 99.1072 259.887 99.3052 259.513 99.5692L259.557 97.8972H263.077V96.4342H258.061L257.951 100.515L259.04 100.955C259.447 100.647 259.931 100.46 260.503 100.46C261.328 100.46 261.867 100.9 261.867 101.56C261.867 102.209 261.35 102.715 260.492 102.715C259.766 102.715 259.084 102.363 258.512 101.824L257.555 102.968C258.259 103.672 259.216 104.134 260.481 104.134ZM267.324 104.134C269.128 104.134 270.327 103.111 270.327 101.505C270.327 99.9652 269.172 99.1072 267.83 99.1072C267.214 99.1072 266.73 99.3052 266.356 99.5692L266.4 97.8972H269.92V96.4342H264.904L264.794 100.515L265.883 100.955C266.29 100.647 266.774 100.46 267.346 100.46C268.171 100.46 268.71 100.9 268.71 101.56C268.71 102.209 268.193 102.715 267.335 102.715C266.609 102.715 265.927 102.363 265.355 101.824L264.398 102.968C265.102 103.672 266.059 104.134 267.324 104.134ZM273.298 100.229C274.409 100.229 275.19 99.3822 275.19 98.2932C275.19 97.2262 274.442 96.3572 273.298 96.3572C272.165 96.3572 271.417 97.2152 271.417 98.3042C271.417 99.3822 272.165 100.229 273.298 100.229ZM272.407 103.991H273.672L278.93 96.4342H277.654L272.407 103.991ZM273.298 99.2832C272.847 99.2832 272.495 98.8872 272.495 98.2932C272.495 97.6992 272.825 97.3142 273.298 97.3142C273.76 97.3142 274.101 97.7102 274.101 98.2932C274.101 98.8982 273.76 99.2832 273.298 99.2832ZM278.017 104.112C279.128 104.112 279.898 103.265 279.898 102.176C279.898 101.109 279.161 100.24 278.017 100.24C276.895 100.24 276.125 101.098 276.125 102.176C276.125 103.254 276.895 104.112 278.017 104.112ZM278.017 103.155C277.555 103.155 277.214 102.759 277.214 102.176C277.214 101.571 277.544 101.186 278.017 101.186C278.468 101.186 278.82 101.582 278.82 102.176C278.82 102.77 278.49 103.155 278.017 103.155Z" fill="#0F0B47"/>
<path d="M304.025 100.954H302.067V98.9523H300.681V100.954H298.712V102.263H300.681V104.265H302.067V102.263H304.025V100.954ZM308.013 105.42C309.784 105.42 310.928 104.474 310.928 103.165C310.928 102.164 310.169 101.581 309.344 101.394C310.18 101.152 310.763 100.525 310.763 99.6563C310.763 98.4573 309.696 97.5883 308.002 97.5883C306.66 97.5883 305.758 98.1713 305.131 98.9303L306.066 99.9203C306.572 99.3923 307.133 99.0403 307.837 99.0403C308.585 99.0403 309.113 99.3923 309.113 99.9423C309.113 100.481 308.618 100.789 307.793 100.789L306.924 100.778V102.164H307.793C308.805 102.153 309.267 102.45 309.267 103.033C309.267 103.572 308.772 103.957 307.947 103.957C307.188 103.957 306.473 103.638 305.934 103.066L304.977 104.144C305.615 104.881 306.66 105.42 308.013 105.42ZM314.802 105.42C316.573 105.42 317.717 104.474 317.717 103.165C317.717 102.164 316.958 101.581 316.133 101.394C316.969 101.152 317.552 100.525 317.552 99.6563C317.552 98.4573 316.485 97.5883 314.791 97.5883C313.449 97.5883 312.547 98.1713 311.92 98.9303L312.855 99.9203C313.361 99.3923 313.922 99.0403 314.626 99.0403C315.374 99.0403 315.902 99.3923 315.902 99.9423C315.902 100.481 315.407 100.789 314.582 100.789L313.713 100.778V102.164H314.582C315.594 102.153 316.056 102.45 316.056 103.033C316.056 103.572 315.561 103.957 314.736 103.957C313.977 103.957 313.262 103.638 312.723 103.066L311.766 104.144C312.404 104.881 313.449 105.42 314.802 105.42ZM320.744 101.515C321.855 101.515 322.636 100.668 322.636 99.5793C322.636 98.5123 321.888 97.6433 320.744 97.6433C319.611 97.6433 318.863 98.5013 318.863 99.5903C318.863 100.668 319.611 101.515 320.744 101.515ZM319.853 105.277H321.118L326.376 97.7203H325.1L319.853 105.277ZM320.744 100.569C320.293 100.569 319.941 100.173 319.941 99.5793C319.941 98.9853 320.271 98.6003 320.744 98.6003C321.206 98.6003 321.547 98.9963 321.547 99.5793C321.547 100.184 321.206 100.569 320.744 100.569ZM325.463 105.398C326.574 105.398 327.344 104.551 327.344 103.462C327.344 102.395 326.607 101.526 325.463 101.526C324.341 101.526 323.571 102.384 323.571 103.462C323.571 104.54 324.341 105.398 325.463 105.398ZM325.463 104.441C325.001 104.441 324.66 104.045 324.66 103.462C324.66 102.857 324.99 102.472 325.463 102.472C325.914 102.472 326.266 102.868 326.266 103.462C326.266 104.056 325.936 104.441 325.463 104.441Z" fill="#0F0B47"/>
<path d="M22.3963 32.177H20.4383V30.175H19.0523V32.177H17.0833V33.486H19.0523V35.488H20.4383V33.486H22.3963V32.177ZM23.5023 36.5H29.2113V35.037H26.0103L27.3853 33.97C28.7053 33.013 29.1453 32.232 29.1453 31.22C29.1453 29.801 27.9793 28.811 26.3733 28.811C25.1523 28.811 24.1953 29.339 23.4473 30.285L24.4813 31.286C25.0313 30.659 25.5923 30.285 26.3293 30.285C26.9453 30.285 27.4733 30.659 27.4733 31.286C27.4733 31.814 27.1873 32.309 26.2853 33.024L23.5023 35.18V36.5ZM33.1199 28.811C31.4699 28.811 30.2269 29.878 30.2269 31.429C30.2269 32.925 31.3819 33.827 32.7789 33.827C33.4939 33.827 34.1869 33.552 34.6489 33.101C34.5059 34.377 33.8459 35.202 32.8559 35.202C32.2179 35.202 31.7779 34.971 31.3159 34.586L30.5459 35.818C31.1619 36.313 31.9209 36.632 32.8559 36.632C34.9569 36.632 36.3319 34.949 36.3319 32.595C36.3319 30.395 35.3199 28.811 33.1199 28.811ZM33.2519 32.507C32.5149 32.507 31.8989 32.078 31.8989 31.352C31.8989 30.747 32.4049 30.186 33.2079 30.186C34.0549 30.186 34.4619 30.703 34.6049 31.627C34.3739 32.166 33.8679 32.507 33.2519 32.507ZM39.3732 32.738C40.4842 32.738 41.2652 31.891 41.2652 30.802C41.2652 29.735 40.5172 28.866 39.3732 28.866C38.2402 28.866 37.4922 29.724 37.4922 30.813C37.4922 31.891 38.2402 32.738 39.3732 32.738ZM38.4822 36.5H39.7472L45.0052 28.943H43.7292L38.4822 36.5ZM39.3732 31.792C38.9222 31.792 38.5702 31.396 38.5702 30.802C38.5702 30.208 38.9002 29.823 39.3732 29.823C39.8352 29.823 40.1762 30.219 40.1762 30.802C40.1762 31.407 39.8352 31.792 39.3732 31.792ZM44.0922 36.621C45.2032 36.621 45.9732 35.774 45.9732 34.685C45.9732 33.618 45.2362 32.749 44.0922 32.749C42.9702 32.749 42.2002 33.607 42.2002 34.685C42.2002 35.763 42.9702 36.621 44.0922 36.621ZM44.0922 35.664C43.6302 35.664 43.2892 35.268 43.2892 34.685C43.2892 34.08 43.6192 33.695 44.0922 33.695C44.5432 33.695 44.8952 34.091 44.8952 34.685C44.8952 35.279 44.5652 35.664 44.0922 35.664Z" fill="#0F0B47"/>
</svg>
