<svg width="1200" height="367" viewBox="0 0 1200 367" fill="none" xmlns="http://www.w3.org/2000/svg">
<rect y="286.627" width="156" height="80" fill="#EBEBEB"/>
<rect x="156" y="286.627" width="456" height="80" fill="#A585FF"/>
<rect x="612" y="286.627" width="216" height="80" fill="#542AED"/>
<rect x="828" y="286.627" width="372" height="80" fill="#1B0085"/>
<path d="M13.98 354.626H16.92V340.886H14.56L10.44 343.646L11.64 345.726L13.98 344.266V354.626ZM24.6538 354.886C27.8738 354.886 29.9538 353.166 29.9538 350.786C29.9538 348.966 28.5738 347.906 27.0738 347.566C28.5938 347.126 29.6538 345.986 29.6538 344.406C29.6538 342.226 27.7138 340.646 24.6338 340.646C22.1938 340.646 20.5538 341.706 19.4138 343.086L21.1138 344.886C22.0338 343.926 23.0538 343.286 24.3338 343.286C25.6938 343.286 26.6538 343.926 26.6538 344.926C26.6538 345.906 25.7538 346.466 24.2538 346.466L22.6738 346.446V348.966H24.2538C26.0938 348.946 26.9338 349.486 26.9338 350.546C26.9338 351.526 26.0338 352.226 24.5338 352.226C23.1538 352.226 21.8538 351.646 20.8738 350.606L19.1338 352.566C20.2938 353.906 22.1938 354.886 24.6538 354.886ZM35.4575 347.786C37.4775 347.786 38.8975 346.246 38.8975 344.266C38.8975 342.326 37.5375 340.746 35.4575 340.746C33.3975 340.746 32.0375 342.306 32.0375 344.286C32.0375 346.246 33.3975 347.786 35.4575 347.786ZM33.8375 354.626H36.1375L45.6975 340.886H43.3775L33.8375 354.626ZM35.4575 346.066C34.6375 346.066 33.9975 345.346 33.9975 344.266C33.9975 343.186 34.5975 342.486 35.4575 342.486C36.2975 342.486 36.9175 343.206 36.9175 344.266C36.9175 345.366 36.2975 346.066 35.4575 346.066ZM44.0375 354.846C46.0575 354.846 47.4575 353.306 47.4575 351.326C47.4575 349.386 46.1175 347.806 44.0375 347.806C41.9975 347.806 40.5975 349.366 40.5975 351.326C40.5975 353.286 41.9975 354.846 44.0375 354.846ZM44.0375 353.106C43.1975 353.106 42.5775 352.386 42.5775 351.326C42.5775 350.226 43.1775 349.526 44.0375 349.526C44.8575 349.526 45.4975 350.246 45.4975 351.326C45.4975 352.406 44.8975 353.106 44.0375 353.106Z" fill="#0F0B47"/>
<path d="M174.06 354.886C177.28 354.886 179.36 353.166 179.36 350.786C179.36 348.966 177.98 347.906 176.48 347.566C178 347.126 179.06 345.986 179.06 344.406C179.06 342.226 177.12 340.646 174.04 340.646C171.6 340.646 169.96 341.706 168.82 343.086L170.52 344.886C171.44 343.926 172.46 343.286 173.74 343.286C175.1 343.286 176.06 343.926 176.06 344.926C176.06 345.906 175.16 346.466 173.66 346.466L172.08 346.446V348.966H173.66C175.5 348.946 176.34 349.486 176.34 350.546C176.34 351.526 175.44 352.226 173.94 352.226C172.56 352.226 171.26 351.646 170.28 350.606L168.54 352.566C169.7 353.906 171.6 354.886 174.06 354.886ZM186.784 354.866C189.804 354.866 192.304 353.446 192.304 350.946C192.304 349.366 191.224 348.166 189.604 347.526C190.984 346.926 191.964 345.926 191.964 344.386C191.964 342.026 189.524 340.646 186.784 340.646C184.104 340.646 181.624 341.966 181.624 344.386C181.624 345.946 182.604 346.946 183.964 347.526C182.384 348.126 181.264 349.326 181.264 350.946C181.264 353.426 183.744 354.866 186.784 354.866ZM186.784 346.506C185.704 346.426 184.564 345.826 184.564 344.766C184.564 343.826 185.464 343.126 186.784 343.126C188.104 343.126 189.024 343.826 189.024 344.766C189.024 345.786 187.864 346.426 186.784 346.506ZM186.784 352.386C185.324 352.386 184.264 351.666 184.264 350.626C184.264 349.546 185.604 348.866 186.784 348.826C187.964 348.866 189.324 349.546 189.324 350.626C189.324 351.666 188.244 352.386 186.784 352.386ZM197.754 347.786C199.774 347.786 201.194 346.246 201.194 344.266C201.194 342.326 199.834 340.746 197.754 340.746C195.694 340.746 194.334 342.306 194.334 344.286C194.334 346.246 195.694 347.786 197.754 347.786ZM196.134 354.626H198.434L207.994 340.886H205.674L196.134 354.626ZM197.754 346.066C196.934 346.066 196.294 345.346 196.294 344.266C196.294 343.186 196.894 342.486 197.754 342.486C198.594 342.486 199.214 343.206 199.214 344.266C199.214 345.366 198.594 346.066 197.754 346.066ZM206.334 354.846C208.354 354.846 209.754 353.306 209.754 351.326C209.754 349.386 208.414 347.806 206.334 347.806C204.294 347.806 202.894 349.366 202.894 351.326C202.894 353.286 204.294 354.846 206.334 354.846ZM206.334 353.106C205.494 353.106 204.874 352.386 204.874 351.326C204.874 350.226 205.474 349.526 206.334 349.526C207.154 349.526 207.794 350.246 207.794 351.326C207.794 352.406 207.194 353.106 206.334 353.106Z" fill="white"/>
<path d="M627.98 354.626H630.92V340.886H628.56L624.44 343.646L625.64 345.726L627.98 344.266V354.626ZM639.034 354.866C642.054 354.866 644.554 353.446 644.554 350.946C644.554 349.366 643.474 348.166 641.854 347.526C643.234 346.926 644.214 345.926 644.214 344.386C644.214 342.026 641.774 340.646 639.034 340.646C636.354 340.646 633.874 341.966 633.874 344.386C633.874 345.946 634.854 346.946 636.214 347.526C634.634 348.126 633.514 349.326 633.514 350.946C633.514 353.426 635.994 354.866 639.034 354.866ZM639.034 346.506C637.954 346.426 636.814 345.826 636.814 344.766C636.814 343.826 637.714 343.126 639.034 343.126C640.354 343.126 641.274 343.826 641.274 344.766C641.274 345.786 640.114 346.426 639.034 346.506ZM639.034 352.386C637.574 352.386 636.514 351.666 636.514 350.626C636.514 349.546 637.854 348.866 639.034 348.826C640.214 348.866 641.574 349.546 641.574 350.626C641.574 351.666 640.494 352.386 639.034 352.386ZM650.004 347.786C652.024 347.786 653.444 346.246 653.444 344.266C653.444 342.326 652.084 340.746 650.004 340.746C647.944 340.746 646.584 342.306 646.584 344.286C646.584 346.246 647.944 347.786 650.004 347.786ZM648.384 354.626H650.684L660.244 340.886H657.924L648.384 354.626ZM650.004 346.066C649.184 346.066 648.544 345.346 648.544 344.266C648.544 343.186 649.144 342.486 650.004 342.486C650.844 342.486 651.464 343.206 651.464 344.266C651.464 345.366 650.844 346.066 650.004 346.066ZM658.584 354.846C660.604 354.846 662.004 353.306 662.004 351.326C662.004 349.386 660.664 347.806 658.584 347.806C656.544 347.806 655.144 349.366 655.144 351.326C655.144 353.286 656.544 354.846 658.584 354.846ZM658.584 353.106C657.744 353.106 657.124 352.386 657.124 351.326C657.124 350.226 657.724 349.526 658.584 349.526C659.404 349.526 660.044 350.246 660.044 351.326C660.044 352.406 659.444 353.106 658.584 353.106Z" fill="white"/>
<path d="M845.06 354.886C848.28 354.886 850.36 353.166 850.36 350.786C850.36 348.966 848.98 347.906 847.48 347.566C849 347.126 850.06 345.986 850.06 344.406C850.06 342.226 848.12 340.646 845.04 340.646C842.6 340.646 840.96 341.706 839.82 343.086L841.52 344.886C842.44 343.926 843.46 343.286 844.74 343.286C846.1 343.286 847.06 343.926 847.06 344.926C847.06 345.906 846.16 346.466 844.66 346.466L843.08 346.446V348.966H844.66C846.5 348.946 847.34 349.486 847.34 350.546C847.34 351.526 846.44 352.226 844.94 352.226C843.56 352.226 842.26 351.646 841.28 350.606L839.54 352.566C840.7 353.906 842.6 354.886 845.06 354.886ZM855.324 354.626H858.264V340.886H855.904L851.784 343.646L852.984 345.726L855.324 344.266V354.626ZM864.458 347.786C866.478 347.786 867.898 346.246 867.898 344.266C867.898 342.326 866.538 340.746 864.458 340.746C862.398 340.746 861.038 342.306 861.038 344.286C861.038 346.246 862.398 347.786 864.458 347.786ZM862.838 354.626H865.138L874.698 340.886H872.378L862.838 354.626ZM864.458 346.066C863.638 346.066 862.998 345.346 862.998 344.266C862.998 343.186 863.598 342.486 864.458 342.486C865.298 342.486 865.918 343.206 865.918 344.266C865.918 345.366 865.298 346.066 864.458 346.066ZM873.038 354.846C875.058 354.846 876.458 353.306 876.458 351.326C876.458 349.386 875.118 347.806 873.038 347.806C870.998 347.806 869.598 349.366 869.598 351.326C869.598 353.286 870.998 354.846 873.038 354.846ZM873.038 353.106C872.198 353.106 871.578 352.386 871.578 351.326C871.578 350.226 872.178 349.526 873.038 349.526C873.858 349.526 874.498 350.246 874.498 351.326C874.498 352.406 873.898 353.106 873.038 353.106Z" fill="white"/>
<path d="M1.74 253.627H4.7V244.747L11.32 253.627H14.28V239.887H11.32V248.767L4.7 239.887H1.74V253.627ZM24.2556 253.867C28.2156 253.867 31.5356 250.607 31.5356 246.747C31.5356 242.887 28.2156 239.647 24.2556 239.647C20.2956 239.647 16.9356 242.887 16.9356 246.747C16.9356 250.607 20.2956 253.867 24.2556 253.867ZM24.2556 251.187C21.9356 251.187 19.9756 249.147 19.9756 246.747C19.9756 244.367 21.9356 242.327 24.2556 242.327C26.5556 242.327 28.5156 244.367 28.5156 246.747C28.5156 249.147 26.5556 251.187 24.2556 251.187ZM34.2205 253.627H37.1805V244.747L43.8005 253.627H46.7605V239.887H43.8005V248.767L37.1805 239.887H34.2205V253.627ZM49.8961 249.367H55.3761V246.887H49.8961V249.367ZM69.0973 242.547V239.887H58.5173V253.627H69.0973V250.967H61.4773V247.947H68.3973V245.287H61.4773V242.547H69.0973ZM71.9548 253.627H74.9148V244.747L81.5348 253.627H84.4948V239.887H81.5348V248.767L74.9148 239.887H71.9548V253.627ZM87.9705 253.627H92.9105C97.5305 253.627 100.81 250.767 100.81 246.747C100.81 242.727 97.5305 239.887 92.9105 239.887H87.9705V253.627ZM90.9305 250.947V242.567H93.2905C95.9105 242.567 97.7705 244.307 97.7705 246.747C97.7705 249.207 95.9105 250.947 93.2905 250.947H90.9305ZM114.828 253.867C118.468 253.867 121.048 251.307 121.048 247.687V239.887H118.088V247.567C118.088 249.687 116.728 251.187 114.828 251.187C112.908 251.187 111.548 249.687 111.548 247.567V239.887H108.608V247.687C108.608 251.307 111.168 253.867 114.828 253.867ZM129.3 253.867C132.64 253.867 134.64 252.127 134.64 249.507C134.64 246.967 132.68 246.087 129.72 245.427C127.6 244.947 126.76 244.627 126.76 243.627C126.76 242.807 127.54 242.147 128.78 242.147C130.1 242.147 131.48 242.687 132.72 243.687L134.26 241.547C132.84 240.347 131.12 239.647 128.88 239.647C125.86 239.647 123.78 241.387 123.78 243.927C123.78 246.587 125.86 247.407 128.76 248.067C130.86 248.547 131.66 248.847 131.66 249.827C131.66 250.687 130.9 251.367 129.4 251.367C127.66 251.367 126.18 250.687 124.88 249.567L123.2 251.587C124.8 253.067 126.9 253.867 129.3 253.867ZM147.847 242.547V239.887H137.267V253.627H147.847V250.967H140.227V247.947H147.147V245.287H140.227V242.547H147.847ZM162.065 244.527C162.065 241.807 159.885 239.887 156.885 239.887H150.705V253.627H153.665V249.167H155.445L158.585 253.627H161.945L158.645 248.927C160.705 248.327 162.065 246.687 162.065 244.527ZM153.665 242.587H156.585C158.045 242.587 159.045 243.347 159.045 244.527C159.045 245.707 158.045 246.467 156.585 246.467H153.665V242.587ZM169.867 253.867C173.207 253.867 175.207 252.127 175.207 249.507C175.207 246.967 173.247 246.087 170.287 245.427C168.167 244.947 167.327 244.627 167.327 243.627C167.327 242.807 168.107 242.147 169.347 242.147C170.667 242.147 172.047 242.687 173.287 243.687L174.827 241.547C173.407 240.347 171.687 239.647 169.447 239.647C166.427 239.647 164.347 241.387 164.347 243.927C164.347 246.587 166.427 247.407 169.327 248.067C171.427 248.547 172.227 248.847 172.227 249.827C172.227 250.687 171.467 251.367 169.967 251.367C168.227 251.367 166.747 250.687 165.447 249.567L163.767 251.587C165.367 253.067 167.467 253.867 169.867 253.867Z" fill="#0F0B47"/>
<rect y="94.627" width="48" height="80" fill="#EBEBEB"/>
<rect x="600" y="94.627" width="600" height="80" fill="#1B0085"/>
<rect x="372" y="94.627" width="228" height="80" fill="#5C2CFF"/>
<rect x="48" y="94.627" width="324" height="80" fill="#A585FF"/>
<path d="M17.7773 162.626H20.7173V159.826H22.5373V157.346H20.7173V148.906H17.1573L10.7773 157.546L11.0573 159.826H17.7773V162.626ZM13.8773 157.346L17.7773 152.026V157.346H13.8773ZM27.7055 155.786C29.7255 155.786 31.1455 154.246 31.1455 152.266C31.1455 150.326 29.7855 148.746 27.7055 148.746C25.6455 148.746 24.2855 150.306 24.2855 152.286C24.2855 154.246 25.6455 155.786 27.7055 155.786ZM26.0855 162.626H28.3855L37.9455 148.886H35.6255L26.0855 162.626ZM27.7055 154.066C26.8855 154.066 26.2455 153.346 26.2455 152.266C26.2455 151.186 26.8455 150.486 27.7055 150.486C28.5455 150.486 29.1655 151.206 29.1655 152.266C29.1655 153.366 28.5455 154.066 27.7055 154.066ZM36.2855 162.846C38.3055 162.846 39.7055 161.306 39.7055 159.326C39.7055 157.386 38.3655 155.806 36.2855 155.806C34.2455 155.806 32.8455 157.366 32.8455 159.326C32.8455 161.286 34.2455 162.846 36.2855 162.846ZM36.2855 161.106C35.4455 161.106 34.8255 160.386 34.8255 159.326C34.8255 158.226 35.4255 157.526 36.2855 157.526C37.1055 157.526 37.7455 158.246 37.7455 159.326C37.7455 160.406 37.1455 161.106 36.2855 161.106Z" fill="#0F0B47"/>
<path d="M617.1 162.886C620.38 162.886 622.56 161.026 622.56 158.106C622.56 155.306 620.46 153.746 618.02 153.746C616.9 153.746 616.02 154.106 615.34 154.586L615.42 151.546H621.82V148.886H612.7L612.5 156.306L614.48 157.106C615.22 156.546 616.1 156.206 617.14 156.206C618.64 156.206 619.62 157.006 619.62 158.206C619.62 159.386 618.68 160.306 617.12 160.306C615.8 160.306 614.56 159.666 613.52 158.686L611.78 160.766C613.06 162.046 614.8 162.886 617.1 162.886ZM630.581 162.866C634.201 162.866 636.741 159.926 636.741 155.746C636.741 151.586 634.201 148.646 630.581 148.646C626.961 148.646 624.401 151.586 624.401 155.746C624.401 159.926 626.961 162.866 630.581 162.866ZM630.581 160.186C628.741 160.186 627.441 158.326 627.441 155.746C627.441 153.166 628.741 151.326 630.581 151.326C632.421 151.326 633.721 153.166 633.721 155.746C633.721 158.326 632.421 160.186 630.581 160.186ZM642.219 155.786C644.239 155.786 645.659 154.246 645.659 152.266C645.659 150.326 644.299 148.746 642.219 148.746C640.159 148.746 638.799 150.306 638.799 152.286C638.799 154.246 640.159 155.786 642.219 155.786ZM640.599 162.626H642.899L652.459 148.886H650.139L640.599 162.626ZM642.219 154.066C641.399 154.066 640.759 153.346 640.759 152.266C640.759 151.186 641.359 150.486 642.219 150.486C643.059 150.486 643.679 151.206 643.679 152.266C643.679 153.366 643.059 154.066 642.219 154.066ZM650.799 162.846C652.819 162.846 654.219 161.306 654.219 159.326C654.219 157.386 652.879 155.806 650.799 155.806C648.759 155.806 647.359 157.366 647.359 159.326C647.359 161.286 648.759 162.846 650.799 162.846ZM650.799 161.106C649.959 161.106 649.339 160.386 649.339 159.326C649.339 158.226 649.939 157.526 650.799 157.526C651.619 157.526 652.259 158.246 652.259 159.326C652.259 160.406 651.659 161.106 650.799 161.106Z" fill="white"/>
<path d="M386.41 162.626H389.35V148.886H386.99L382.87 151.646L384.07 153.726L386.41 152.266V162.626ZM397.103 148.646C394.103 148.646 391.843 150.586 391.843 153.406C391.843 156.126 393.943 157.766 396.483 157.766C397.783 157.766 399.043 157.266 399.883 156.446C399.623 158.766 398.423 160.266 396.623 160.266C395.463 160.266 394.663 159.846 393.823 159.146L392.423 161.386C393.543 162.286 394.923 162.866 396.623 162.866C400.443 162.866 402.943 159.806 402.943 155.526C402.943 151.526 401.103 148.646 397.103 148.646ZM397.343 155.366C396.003 155.366 394.883 154.586 394.883 153.266C394.883 152.166 395.803 151.146 397.263 151.146C398.803 151.146 399.543 152.086 399.803 153.766C399.383 154.746 398.463 155.366 397.343 155.366ZM408.473 155.786C410.493 155.786 411.913 154.246 411.913 152.266C411.913 150.326 410.553 148.746 408.473 148.746C406.413 148.746 405.053 150.306 405.053 152.286C405.053 154.246 406.413 155.786 408.473 155.786ZM406.853 162.626H409.153L418.713 148.886H416.393L406.853 162.626ZM408.473 154.066C407.653 154.066 407.013 153.346 407.013 152.266C407.013 151.186 407.613 150.486 408.473 150.486C409.313 150.486 409.933 151.206 409.933 152.266C409.933 153.366 409.313 154.066 408.473 154.066ZM417.053 162.846C419.073 162.846 420.473 161.306 420.473 159.326C420.473 157.386 419.133 155.806 417.053 155.806C415.013 155.806 413.613 157.366 413.613 159.326C413.613 161.286 415.013 162.846 417.053 162.846ZM417.053 161.106C416.213 161.106 415.593 160.386 415.593 159.326C415.593 158.226 416.193 157.526 417.053 157.526C417.873 157.526 418.513 158.246 418.513 159.326C418.513 160.406 417.913 161.106 417.053 161.106Z" fill="white"/>
<path d="M60.1852 162.626H70.5652V159.966H64.7452L67.2452 158.026C69.6452 156.286 70.4452 154.866 70.4452 153.026C70.4452 150.446 68.3252 148.646 65.4052 148.646C63.1852 148.646 61.4452 149.606 60.0852 151.326L61.9652 153.146C62.9652 152.006 63.9852 151.326 65.3252 151.326C66.4452 151.326 67.4052 152.006 67.4052 153.146C67.4052 154.106 66.8852 155.006 65.2452 156.306L60.1852 160.226V162.626ZM73.5118 162.626H76.8318L82.3918 151.106V148.886H72.1718V151.546H78.9718L73.5118 162.626ZM87.5376 155.786C89.5576 155.786 90.9776 154.246 90.9776 152.266C90.9776 150.326 89.6176 148.746 87.5376 148.746C85.4776 148.746 84.1176 150.306 84.1176 152.286C84.1176 154.246 85.4776 155.786 87.5376 155.786ZM85.9176 162.626H88.2176L97.7776 148.886H95.4576L85.9176 162.626ZM87.5376 154.066C86.7176 154.066 86.0776 153.346 86.0776 152.266C86.0776 151.186 86.6776 150.486 87.5376 150.486C88.3776 150.486 88.9976 151.206 88.9976 152.266C88.9976 153.366 88.3776 154.066 87.5376 154.066ZM96.1176 162.846C98.1376 162.846 99.5376 161.306 99.5376 159.326C99.5376 157.386 98.1976 155.806 96.1176 155.806C94.0776 155.806 92.6776 157.366 92.6776 159.326C92.6776 161.286 94.0776 162.846 96.1176 162.846ZM96.1176 161.106C95.2776 161.106 94.6576 160.386 94.6576 159.326C94.6576 158.226 95.2576 157.526 96.1176 157.526C96.9376 157.526 97.5776 158.246 97.5776 159.326C97.5776 160.406 96.9776 161.106 96.1176 161.106Z" fill="white"/>
<path d="M12.32 54.92V52.26H1.74V66H12.32V63.34H4.7V60.32H11.62V57.66H4.7V54.92H12.32ZM15.1775 66H18.1375V57.12L24.7575 66H27.7175V52.26H24.7575V61.14L18.1375 52.26H15.1775V66ZM31.1931 66H36.1331C40.7531 66 44.0331 63.14 44.0331 59.12C44.0331 55.1 40.7531 52.26 36.1331 52.26H31.1931V66ZM34.1531 63.32V54.94H36.5131C39.1331 54.94 40.9931 56.68 40.9931 59.12C40.9931 61.58 39.1331 63.32 36.5131 63.32H34.1531ZM58.0506 66.24C61.6906 66.24 64.2706 63.68 64.2706 60.06V52.26H61.3106V59.94C61.3106 62.06 59.9506 63.56 58.0506 63.56C56.1306 63.56 54.7706 62.06 54.7706 59.94V52.26H51.8306V60.06C51.8306 63.68 54.3906 66.24 58.0506 66.24ZM72.5231 66.24C75.8631 66.24 77.8631 64.5 77.8631 61.88C77.8631 59.34 75.9031 58.46 72.9431 57.8C70.8231 57.32 69.9831 57 69.9831 56C69.9831 55.18 70.7631 54.52 72.0031 54.52C73.3231 54.52 74.7031 55.06 75.9431 56.06L77.4831 53.92C76.0631 52.72 74.3431 52.02 72.1031 52.02C69.0831 52.02 67.0031 53.76 67.0031 56.3C67.0031 58.96 69.0831 59.78 71.9831 60.44C74.0831 60.92 74.8831 61.22 74.8831 62.2C74.8831 63.06 74.1231 63.74 72.6231 63.74C70.8831 63.74 69.4031 63.06 68.1031 61.94L66.4231 63.96C68.0231 65.44 70.1231 66.24 72.5231 66.24ZM91.07 54.92V52.26H80.49V66H91.07V63.34H83.45V60.32H90.37V57.66H83.45V54.92H91.07ZM105.288 56.9C105.288 54.18 103.108 52.26 100.108 52.26H93.9275V66H96.8875V61.54H98.6675L101.808 66H105.168L101.868 61.3C103.928 60.7 105.288 59.06 105.288 56.9ZM96.8875 54.96H99.8075C101.268 54.96 102.268 55.72 102.268 56.9C102.268 58.08 101.268 58.84 99.8075 58.84H96.8875V54.96ZM113.09 66.24C116.43 66.24 118.43 64.5 118.43 61.88C118.43 59.34 116.47 58.46 113.51 57.8C111.39 57.32 110.55 57 110.55 56C110.55 55.18 111.33 54.52 112.57 54.52C113.89 54.52 115.27 55.06 116.51 56.06L118.05 53.92C116.63 52.72 114.91 52.02 112.67 52.02C109.65 52.02 107.57 53.76 107.57 56.3C107.57 58.96 109.65 59.78 112.55 60.44C114.65 60.92 115.45 61.22 115.45 62.2C115.45 63.06 114.69 63.74 113.19 63.74C111.45 63.74 109.97 63.06 108.67 61.94L106.99 63.96C108.59 65.44 110.69 66.24 113.09 66.24Z" fill="#0F0B47"/>
<rect x="570" y="0.090332" width="20" height="20" rx="10" fill="#EBEBEB"/>
<rect x="1087" y="0.090332" width="20" height="20" rx="10" fill="#1B0085"/>
<rect x="928.5" y="0.090332" width="20" height="20" rx="10" fill="#542AED"/>
<rect x="787" y="0.090332" width="20" height="20" rx="10" fill="#A585FF"/>
<path d="M605.526 14.0903H608.774C611.826 14.0903 613.982 12.0883 613.982 9.27433C613.982 6.46033 611.826 4.47233 608.774 4.47233H605.526V14.0903ZM606.618 13.0963V5.46633H608.774C611.182 5.46633 612.876 7.04833 612.876 9.27433C612.876 11.5143 611.182 13.0963 608.774 13.0963H606.618ZM619.086 14.2583C621.13 14.2583 622.81 12.5503 622.81 10.4643C622.81 8.37833 621.13 6.68433 619.086 6.68433C617.028 6.68433 615.348 8.37833 615.348 10.4643C615.348 12.5503 617.028 14.2583 619.086 14.2583ZM619.086 13.3203C617.63 13.3203 616.44 12.0323 616.44 10.4643C616.44 8.89633 617.63 7.62233 619.086 7.62233C620.528 7.62233 621.718 8.89633 621.718 10.4643C621.718 12.0323 620.528 13.3203 619.086 13.3203ZM628.048 6.68433C627.012 6.68433 626.088 7.23033 625.668 8.00033V6.85233H624.618V14.0903H625.668V9.48433C625.668 8.46233 626.676 7.62233 627.908 7.62233C628.972 7.62233 629.714 8.43433 629.714 9.62433V14.0903H630.764V9.48433C630.764 7.81833 629.658 6.68433 628.048 6.68433ZM633.531 7.84633C634.371 6.79633 634.609 6.32033 634.609 5.76033C634.609 5.11633 634.287 4.64033 633.755 4.64033C633.307 4.64033 632.985 4.99033 632.985 5.38233C632.985 5.80233 633.321 6.15233 633.741 6.15233C633.629 6.58633 633.391 7.02033 633.013 7.45433L633.531 7.84633ZM639.75 13.0263C639.596 13.1943 639.316 13.3203 638.994 13.3203C638.574 13.3203 638.21 12.9423 638.21 12.4103V7.79033H639.988V6.85233H638.21V4.86433H637.16V6.85233H636.026V7.79033H637.16V12.4103C637.16 13.4883 637.888 14.2583 638.924 14.2583C639.414 14.2583 639.89 14.0903 640.268 13.7963L639.75 13.0263ZM645.94 14.0903H647.032V11.2063L648.544 9.61033L652.198 14.0903H653.612L649.3 8.86833L653.346 4.47233H651.904L647.032 9.79233V4.47233H645.94V14.0903ZM658.578 6.68433C657.542 6.68433 656.618 7.23033 656.198 8.00033V6.85233H655.148V14.0903H656.198V9.48433C656.198 8.46233 657.206 7.62233 658.438 7.62233C659.502 7.62233 660.244 8.43433 660.244 9.62433V14.0903H661.294V9.48433C661.294 7.81833 660.188 6.68433 658.578 6.68433ZM666.664 14.2583C668.708 14.2583 670.388 12.5503 670.388 10.4643C670.388 8.37833 668.708 6.68433 666.664 6.68433C664.606 6.68433 662.926 8.37833 662.926 10.4643C662.926 12.5503 664.606 14.2583 666.664 14.2583ZM666.664 13.3203C665.208 13.3203 664.018 12.0323 664.018 10.4643C664.018 8.89633 665.208 7.62233 666.664 7.62233C668.106 7.62233 669.296 8.89633 669.296 10.4643C669.296 12.0323 668.106 13.3203 666.664 13.3203ZM673.625 14.0903H674.619L676.565 8.30833L678.483 14.0903H679.477L681.913 6.85233H680.793L678.987 12.6903L677.013 6.85233H676.103L674.129 12.6903L672.323 6.85233H671.203L673.625 14.0903ZM685.99 15.1263H687.18L692.094 3.68833H690.904L685.99 15.1263ZM697.469 14.0903H698.561V6.26433L704.525 14.0903H705.617V4.47233H704.525V12.2983L698.561 4.47233H697.469V14.0903ZM711.467 14.2583C713.511 14.2583 715.191 12.5503 715.191 10.4643C715.191 8.37833 713.511 6.68433 711.467 6.68433C709.409 6.68433 707.729 8.37833 707.729 10.4643C707.729 12.5503 709.409 14.2583 711.467 14.2583ZM711.467 13.3203C710.011 13.3203 708.821 12.0323 708.821 10.4643C708.821 8.89633 710.011 7.62233 711.467 7.62233C712.909 7.62233 714.099 8.89633 714.099 10.4643C714.099 12.0323 712.909 13.3203 711.467 13.3203ZM719.799 13.0263C719.645 13.1943 719.365 13.3203 719.043 13.3203C718.623 13.3203 718.259 12.9423 718.259 12.4103V7.79033H720.037V6.85233H718.259V4.86433H717.209V6.85233H716.075V7.79033H717.209V12.4103C717.209 13.4883 717.937 14.2583 718.973 14.2583C719.463 14.2583 719.939 14.0903 720.317 13.7963L719.799 13.0263ZM728.901 14.2443C731.141 14.2443 732.289 12.9983 732.289 11.4723C732.289 9.77833 730.973 9.12033 729.139 8.68633C727.501 8.29433 726.549 7.94433 726.549 6.95033C726.549 6.06833 727.417 5.29833 728.607 5.29833C729.615 5.29833 730.567 5.76033 731.365 6.53033L732.037 5.67633C731.155 4.86433 730.091 4.30433 728.663 4.30433C726.815 4.30433 725.443 5.49433 725.443 7.03433C725.443 8.70033 726.661 9.30233 728.593 9.75033C730.273 10.1423 731.183 10.5483 731.183 11.5703C731.183 12.4383 730.427 13.2503 728.943 13.2503C727.599 13.2503 726.605 12.6763 725.793 11.8643L725.107 12.7183C726.073 13.6703 727.319 14.2443 728.901 14.2443ZM739.181 6.85233V11.4583C739.181 12.4803 738.173 13.3203 736.941 13.3203C735.877 13.3203 735.135 12.5083 735.135 11.3183V6.85233H734.085V11.4583C734.085 13.1243 735.191 14.2583 736.801 14.2583C737.837 14.2583 738.761 13.7123 739.181 12.9423V14.0903H740.231V6.85233H739.181ZM743.711 8.26633V6.85233H742.661V14.0903H743.711V10.0443C743.711 8.63033 744.873 7.62233 746.511 7.62233V6.68433C745.181 6.68433 744.145 7.30033 743.711 8.26633ZM751.264 13.3203C749.836 13.3203 748.842 12.2843 748.688 10.8703H754.61C754.61 8.33633 753.364 6.68433 751.18 6.68433C749.234 6.68433 747.61 8.29433 747.61 10.4503C747.61 12.6763 749.346 14.2583 751.278 14.2583C752.286 14.2583 753.56 13.8243 754.19 13.1383L753.546 12.4523C753.098 12.9423 752.118 13.3203 751.264 13.3203ZM751.222 7.62233C752.664 7.62233 753.434 8.63033 753.574 9.93233H748.702C748.898 8.53233 749.934 7.62233 751.222 7.62233Z" fill="#0F0B47"/>
<path d="M1121.44 14.0903H1122.53V4.47233H1121.65L1119.28 6.08233L1119.76 6.89433L1121.44 5.80233V14.0903ZM1128.85 14.2583C1131.19 14.2583 1132.84 12.2003 1132.84 9.27433C1132.84 6.36233 1131.19 4.30433 1128.85 4.30433C1126.5 4.30433 1124.84 6.36233 1124.84 9.27433C1124.84 12.2003 1126.5 14.2583 1128.85 14.2583ZM1128.85 13.2503C1127.15 13.2503 1125.95 11.5983 1125.95 9.27433C1125.95 6.95033 1127.15 5.31233 1128.85 5.31233C1130.54 5.31233 1131.73 6.95033 1131.73 9.27433C1131.73 11.5983 1130.54 13.2503 1128.85 13.2503ZM1141.03 8.89633H1138.35V6.19433H1137.3V8.89633H1134.61V9.93233H1137.3V12.6203H1138.35V9.93233H1141.03V8.89633ZM1151.52 14.2583C1152.85 14.2583 1154.08 13.6843 1154.98 12.7883L1154.24 12.0323C1153.54 12.7743 1152.57 13.2503 1151.52 13.2503C1149.45 13.2503 1147.7 11.4303 1147.7 9.27433C1147.7 7.13233 1149.45 5.31233 1151.52 5.31233C1152.57 5.31233 1153.54 5.78833 1154.24 6.53033L1154.98 5.77433C1154.08 4.86433 1152.85 4.30433 1151.52 4.30433C1148.86 4.30433 1146.59 6.57233 1146.59 9.27433C1146.59 11.9763 1148.86 14.2583 1151.52 14.2583ZM1156.72 14.0903H1157.77V4.30433H1156.72V14.0903ZM1165.14 6.85233V11.4583C1165.14 12.4803 1164.13 13.3203 1162.9 13.3203C1161.83 13.3203 1161.09 12.5083 1161.09 11.3183V6.85233H1160.04V11.4583C1160.04 13.1243 1161.15 14.2583 1162.76 14.2583C1163.79 14.2583 1164.72 13.7123 1165.14 12.9423V14.0903H1166.19V6.85233H1165.14ZM1170.86 14.2583C1172.35 14.2583 1173.5 13.4043 1173.5 12.0743C1173.5 10.7023 1172.3 10.3103 1171.14 9.94633C1169.79 9.51233 1169.26 9.31633 1169.26 8.68633C1169.26 7.98633 1169.93 7.62233 1170.74 7.62233C1171.39 7.62233 1172.1 7.84633 1172.83 8.30833L1173.33 7.49633C1172.56 6.99233 1171.64 6.68433 1170.74 6.68433C1169.3 6.68433 1168.21 7.49633 1168.21 8.81233C1168.21 9.84833 1168.88 10.3663 1170.63 10.8703C1171.61 11.1503 1172.45 11.4023 1172.45 12.1863C1172.45 12.8723 1171.81 13.3203 1170.86 13.3203C1170.06 13.3203 1169.23 13.0123 1168.41 12.4103L1167.86 13.1803C1168.73 13.8803 1169.85 14.2583 1170.86 14.2583ZM1178.1 13.0263C1177.95 13.1943 1177.67 13.3203 1177.35 13.3203C1176.93 13.3203 1176.56 12.9423 1176.56 12.4103V7.79033H1178.34V6.85233H1176.56V4.86433H1175.51V6.85233H1174.38V7.79033H1175.51V12.4103C1175.51 13.4883 1176.24 14.2583 1177.28 14.2583C1177.77 14.2583 1178.24 14.0903 1178.62 13.7963L1178.1 13.0263ZM1183.18 13.3203C1181.75 13.3203 1180.76 12.2843 1180.6 10.8703H1186.53C1186.53 8.33633 1185.28 6.68433 1183.1 6.68433C1181.15 6.68433 1179.53 8.29433 1179.53 10.4503C1179.53 12.6763 1181.26 14.2583 1183.19 14.2583C1184.2 14.2583 1185.48 13.8243 1186.11 13.1383L1185.46 12.4523C1185.01 12.9423 1184.03 13.3203 1183.18 13.3203ZM1183.14 7.62233C1184.58 7.62233 1185.35 8.63033 1185.49 9.93233H1180.62C1180.81 8.53233 1181.85 7.62233 1183.14 7.62233ZM1189.34 8.26633V6.85233H1188.29V14.0903H1189.34V10.0443C1189.34 8.63033 1190.5 7.62233 1192.14 7.62233V6.68433C1190.81 6.68433 1189.77 7.30033 1189.34 8.26633ZM1196.08 14.2583C1197.58 14.2583 1198.73 13.4043 1198.73 12.0743C1198.73 10.7023 1197.52 10.3103 1196.36 9.94633C1195.02 9.51233 1194.49 9.31633 1194.49 8.68633C1194.49 7.98633 1195.16 7.62233 1195.97 7.62233C1196.61 7.62233 1197.33 7.84633 1198.06 8.30833L1198.56 7.49633C1197.79 6.99233 1196.87 6.68433 1195.97 6.68433C1194.53 6.68433 1193.44 7.49633 1193.44 8.81233C1193.44 9.84833 1194.11 10.3663 1195.86 10.8703C1196.84 11.1503 1197.68 11.4023 1197.68 12.1863C1197.68 12.8723 1197.03 13.3203 1196.08 13.3203C1195.28 13.3203 1194.46 13.0123 1193.63 12.4103L1193.09 13.1803C1193.95 13.8803 1195.07 14.2583 1196.08 14.2583Z" fill="#0F0B47"/>
<path d="M967.204 8.08433C966.07 8.08433 965.076 8.63033 964.488 9.55433V9.42833C964.488 7.11833 965.706 5.29833 967.246 5.29833C968.17 5.29833 968.8 5.71833 969.402 6.30633L970.004 5.45233C969.29 4.76633 968.45 4.30433 967.274 4.30433C965.09 4.30433 963.382 6.55833 963.382 9.42833C963.382 12.1443 964.432 14.2583 967.036 14.2583C969.038 14.2583 970.424 12.8583 970.424 11.0803C970.424 9.17633 968.954 8.08433 967.204 8.08433ZM967.022 13.3203C965.678 13.3203 964.894 12.2703 964.614 10.8143C964.852 9.75033 965.79 9.02233 967.008 9.02233C968.296 9.02233 969.318 9.82033 969.318 11.1363C969.318 12.2003 968.464 13.3203 967.022 13.3203ZM972.331 10.8003H975.957V9.77833H972.331V10.8003ZM979.592 14.0903H980.684V4.47233H979.802L977.436 6.08233L977.912 6.89433L979.592 5.80233V14.0903ZM987.004 14.2583C989.342 14.2583 990.994 12.2003 990.994 9.27433C990.994 6.36233 989.342 4.30433 987.004 4.30433C984.652 4.30433 983 6.36233 983 9.27433C983 12.2003 984.652 14.2583 987.004 14.2583ZM987.004 13.2503C985.31 13.2503 984.106 11.5983 984.106 9.27433C984.106 6.95033 985.31 5.31233 987.004 5.31233C988.698 5.31233 989.888 6.95033 989.888 9.27433C989.888 11.5983 988.698 13.2503 987.004 13.2503ZM1001.41 14.2583C1002.74 14.2583 1003.97 13.6843 1004.87 12.7883L1004.12 12.0323C1003.42 12.7743 1002.46 13.2503 1001.41 13.2503C999.335 13.2503 997.585 11.4303 997.585 9.27433C997.585 7.13233 999.335 5.31233 1001.41 5.31233C1002.46 5.31233 1003.42 5.78833 1004.12 6.53033L1004.87 5.77433C1003.97 4.86433 1002.74 4.30433 1001.41 4.30433C998.747 4.30433 996.479 6.57233 996.479 9.27433C996.479 11.9763 998.747 14.2583 1001.41 14.2583ZM1006.61 14.0903H1007.66V4.30433H1006.61V14.0903ZM1015.02 6.85233V11.4583C1015.02 12.4803 1014.01 13.3203 1012.78 13.3203C1011.72 13.3203 1010.98 12.5083 1010.98 11.3183V6.85233H1009.93V11.4583C1009.93 13.1243 1011.03 14.2583 1012.64 14.2583C1013.68 14.2583 1014.6 13.7123 1015.02 12.9423V14.0903H1016.07V6.85233H1015.02ZM1020.74 14.2583C1022.24 14.2583 1023.39 13.4043 1023.39 12.0743C1023.39 10.7023 1022.18 10.3103 1021.02 9.94633C1019.68 9.51233 1019.15 9.31633 1019.15 8.68633C1019.15 7.98633 1019.82 7.62233 1020.63 7.62233C1021.27 7.62233 1021.99 7.84633 1022.72 8.30833L1023.22 7.49633C1022.45 6.99233 1021.53 6.68433 1020.63 6.68433C1019.19 6.68433 1018.1 7.49633 1018.1 8.81233C1018.1 9.84833 1018.77 10.3663 1020.52 10.8703C1021.5 11.1503 1022.34 11.4023 1022.34 12.1863C1022.34 12.8723 1021.69 13.3203 1020.74 13.3203C1019.94 13.3203 1019.12 13.0123 1018.29 12.4103L1017.75 13.1803C1018.61 13.8803 1019.73 14.2583 1020.74 14.2583ZM1027.99 13.0263C1027.83 13.1943 1027.55 13.3203 1027.23 13.3203C1026.81 13.3203 1026.45 12.9423 1026.45 12.4103V7.79033H1028.22V6.85233H1026.45V4.86433H1025.4V6.85233H1024.26V7.79033H1025.4V12.4103C1025.4 13.4883 1026.12 14.2583 1027.16 14.2583C1027.65 14.2583 1028.13 14.0903 1028.5 13.7963L1027.99 13.0263ZM1033.06 13.3203C1031.64 13.3203 1030.64 12.2843 1030.49 10.8703H1036.41C1036.41 8.33633 1035.16 6.68433 1032.98 6.68433C1031.03 6.68433 1029.41 8.29433 1029.41 10.4503C1029.41 12.6763 1031.15 14.2583 1033.08 14.2583C1034.09 14.2583 1035.36 13.8243 1035.99 13.1383L1035.35 12.4523C1034.9 12.9423 1033.92 13.3203 1033.06 13.3203ZM1033.02 7.62233C1034.46 7.62233 1035.23 8.63033 1035.37 9.93233H1030.5C1030.7 8.53233 1031.73 7.62233 1033.02 7.62233ZM1039.23 8.26633V6.85233H1038.18V14.0903H1039.23V10.0443C1039.23 8.63033 1040.39 7.62233 1042.03 7.62233V6.68433C1040.7 6.68433 1039.66 7.30033 1039.23 8.26633ZM1045.97 14.2583C1047.46 14.2583 1048.61 13.4043 1048.61 12.0743C1048.61 10.7023 1047.41 10.3103 1046.25 9.94633C1044.9 9.51233 1044.37 9.31633 1044.37 8.68633C1044.37 7.98633 1045.04 7.62233 1045.85 7.62233C1046.5 7.62233 1047.21 7.84633 1047.94 8.30833L1048.44 7.49633C1047.67 6.99233 1046.75 6.68433 1045.85 6.68433C1044.41 6.68433 1043.32 7.49633 1043.32 8.81233C1043.32 9.84833 1043.99 10.3663 1045.74 10.8703C1046.72 11.1503 1047.56 11.4023 1047.56 12.1863C1047.56 12.8723 1046.92 13.3203 1045.97 13.3203C1045.17 13.3203 1044.34 13.0123 1043.52 12.4103L1042.97 13.1803C1043.84 13.8803 1044.96 14.2583 1045.97 14.2583Z" fill="#0F0B47"/>
<path d="M823.436 14.0903H824.528V4.47233H823.646L821.28 6.08233L821.756 6.89433L823.436 5.80233V14.0903ZM827.208 10.8003H830.834V9.77833H827.208V10.8003ZM836.191 14.2583C838.165 14.2583 839.607 12.9983 839.607 11.0943C839.607 9.19033 838.165 8.09833 836.429 8.09833C835.547 8.09833 834.889 8.39233 834.371 8.74233L834.469 5.50833H839.089V4.47233H833.405L833.265 9.41433L834.063 9.80633C834.665 9.35833 835.379 9.06433 836.205 9.06433C837.549 9.06433 838.501 9.90433 838.501 11.1363C838.501 12.3543 837.563 13.2783 836.233 13.2783C835.169 13.2783 834.259 12.7463 833.517 11.9343L832.803 12.7323C833.587 13.6283 834.707 14.2583 836.191 14.2583ZM849.9 14.2583C851.23 14.2583 852.462 13.6843 853.358 12.7883L852.616 12.0323C851.916 12.7743 850.95 13.2503 849.9 13.2503C847.828 13.2503 846.078 11.4303 846.078 9.27433C846.078 7.13233 847.828 5.31233 849.9 5.31233C850.95 5.31233 851.916 5.78833 852.616 6.53033L853.358 5.77433C852.462 4.86433 851.23 4.30433 849.9 4.30433C847.24 4.30433 844.972 6.57233 844.972 9.27433C844.972 11.9763 847.24 14.2583 849.9 14.2583ZM855.099 14.0903H856.149V4.30433H855.099V14.0903ZM863.513 6.85233V11.4583C863.513 12.4803 862.505 13.3203 861.273 13.3203C860.209 13.3203 859.467 12.5083 859.467 11.3183V6.85233H858.417V11.4583C858.417 13.1243 859.523 14.2583 861.133 14.2583C862.169 14.2583 863.093 13.7123 863.513 12.9423V14.0903H864.563V6.85233H863.513ZM869.233 14.2583C870.731 14.2583 871.879 13.4043 871.879 12.0743C871.879 10.7023 870.675 10.3103 869.513 9.94633C868.169 9.51233 867.637 9.31633 867.637 8.68633C867.637 7.98633 868.309 7.62233 869.121 7.62233C869.765 7.62233 870.479 7.84633 871.207 8.30833L871.711 7.49633C870.941 6.99233 870.017 6.68433 869.121 6.68433C867.679 6.68433 866.587 7.49633 866.587 8.81233C866.587 9.84833 867.259 10.3663 869.009 10.8703C869.989 11.1503 870.829 11.4023 870.829 12.1863C870.829 12.8723 870.185 13.3203 869.233 13.3203C868.435 13.3203 867.609 13.0123 866.783 12.4103L866.237 13.1803C867.105 13.8803 868.225 14.2583 869.233 14.2583ZM876.479 13.0263C876.325 13.1943 876.045 13.3203 875.723 13.3203C875.303 13.3203 874.939 12.9423 874.939 12.4103V7.79033H876.717V6.85233H874.939V4.86433H873.889V6.85233H872.755V7.79033H873.889V12.4103C873.889 13.4883 874.617 14.2583 875.653 14.2583C876.143 14.2583 876.619 14.0903 876.997 13.7963L876.479 13.0263ZM881.557 13.3203C880.129 13.3203 879.135 12.2843 878.981 10.8703H884.903C884.903 8.33633 883.657 6.68433 881.473 6.68433C879.527 6.68433 877.903 8.29433 877.903 10.4503C877.903 12.6763 879.639 14.2583 881.571 14.2583C882.579 14.2583 883.853 13.8243 884.483 13.1383L883.839 12.4523C883.391 12.9423 882.411 13.3203 881.557 13.3203ZM881.515 7.62233C882.957 7.62233 883.727 8.63033 883.867 9.93233H878.995C879.191 8.53233 880.227 7.62233 881.515 7.62233ZM887.717 8.26633V6.85233H886.667V14.0903H887.717V10.0443C887.717 8.63033 888.879 7.62233 890.517 7.62233V6.68433C889.187 6.68433 888.151 7.30033 887.717 8.26633ZM894.458 14.2583C895.956 14.2583 897.104 13.4043 897.104 12.0743C897.104 10.7023 895.9 10.3103 894.738 9.94633C893.394 9.51233 892.862 9.31633 892.862 8.68633C892.862 7.98633 893.534 7.62233 894.346 7.62233C894.99 7.62233 895.704 7.84633 896.432 8.30833L896.936 7.49633C896.166 6.99233 895.242 6.68433 894.346 6.68433C892.904 6.68433 891.812 7.49633 891.812 8.81233C891.812 9.84833 892.484 10.3663 894.234 10.8703C895.214 11.1503 896.054 11.4023 896.054 12.1863C896.054 12.8723 895.41 13.3203 894.458 13.3203C893.66 13.3203 892.834 13.0123 892.008 12.4103L891.462 13.1803C892.33 13.8803 893.45 14.2583 894.458 14.2583Z" fill="#0F0B47"/>
</svg>
