<svg width="49" height="84" viewBox="0 0 49 84" fill="none" xmlns="http://www.w3.org/2000/svg">
<path d="M20.5815 80.8963H22.1572V80.916H23.7328V79.3404H22.1572V74.771H31.5323V76.2679H25.3085V80.916H33.0291V79.6358H33.1079V74.6922H33.0094V73.1954H22.2359V70.6152H20.6603V73.2151H19.0059V74.7907H20.5815V80.8963ZM31.4535 79.3404H26.8053V77.7647H31.4535V79.3404ZM35.5896 74.771H40.1393V73.1954H34.0139V80.8176H35.5896V74.771Z" fill="black"/>
<path d="M47.4666 73.2149V79.3402H42.8184V73.2149H41.2428V80.9159H47.3681V81.9204H10.3797V83.496H48.9438V73.2149H47.4666ZM0.0986328 73.1952V83.496H9.31618V80.9159H9.39496V70.6348H0.0986328V73.1952ZM7.81931 80.9159H6.24367V74.7905H3.17115V80.9159H1.67428V73.2149H7.81931V80.9159Z" fill="black"/>
<path d="M11.9552 80.9146H18.1003V73.1939H10.3796V80.9146H11.9552ZM16.5246 74.7696V79.339H11.9552V74.7696H16.5246ZM0 0.339844V68.0534H48.7466V0.339844H0ZM40.6321 54.5225H32.5372V21.9853H16.2292V54.5225H8.11459V13.8904H40.6321V54.5225Z" fill="black"/>
</svg>
