<svg width="317" height="50" viewBox="0 0 317 50" fill="none" xmlns="http://www.w3.org/2000/svg">
<g clip-path="url(#clip0_4336_4681)">
<path d="M75.3003 21.8754C76.5164 21.8994 77.7208 21.6356 78.8141 21.1058C79.9074 20.5761 80.8583 19.7955 81.5884 18.8285L84.9683 22.266C82.2958 25.2348 79.2304 26.7192 75.6147 26.7192C73.9831 26.781 72.3556 26.5154 70.8296 25.9383C69.3036 25.3611 67.9102 24.4841 66.7327 23.3598C65.5861 22.262 64.6854 20.9361 64.0895 19.4687C63.4935 18.0013 63.2157 16.4255 63.2742 14.8442C63.2295 13.2459 63.521 11.656 64.13 10.1761C64.7391 8.69632 65.6524 7.35921 66.8113 6.25041C68.0579 5.08141 69.5298 4.17557 71.1383 3.58756C72.7467 2.99956 74.4584 2.74158 76.17 2.82919C77.8815 2.9168 79.5574 3.3482 81.0966 4.09733C82.6358 4.84647 84.0063 5.89781 85.1255 7.18791L81.9028 10.8598C81.1928 9.90967 80.268 9.13885 79.203 8.60957C78.1379 8.08029 76.9626 7.80739 75.7719 7.81291C73.9158 7.77741 72.1163 8.44815 70.7414 9.68791C70.0279 10.3393 69.4678 11.1392 69.1009 12.0305C68.7341 12.9217 68.5696 13.8825 68.6192 14.8442C68.5695 15.8038 68.7182 16.7634 69.0562 17.6637C69.3941 18.5639 69.9142 19.3858 70.5842 20.0785C71.8774 21.2384 73.5584 21.8788 75.3003 21.8754Z" fill="black"/>
<path d="M89.0566 26.4062V3.20312H94.2443V21.7969H104.227V26.4062H89.0566Z" fill="black"/>
<path d="M127.02 23.2035C124.659 25.4117 121.538 26.6413 118.296 26.6413C115.053 26.6413 111.933 25.4117 109.571 23.2035C108.419 22.1057 107.51 20.7816 106.901 19.3155C106.292 17.8495 105.997 16.2735 106.034 14.6878C105.989 13.1012 106.281 11.523 106.891 10.0559C107.5 8.5888 108.413 7.26556 109.571 6.17221C111.933 3.96392 115.053 2.73437 118.296 2.73438C121.538 2.73438 124.659 3.96392 127.02 6.17221C128.172 7.27001 129.081 8.59405 129.69 10.0601C130.299 11.5262 130.595 13.1022 130.557 14.6878C130.602 16.2745 130.31 17.8526 129.701 19.3197C129.091 20.7869 128.178 22.1101 127.02 23.2035ZM125.212 14.6878C125.227 12.7247 124.497 10.828 123.169 9.37533C122.543 8.68694 121.779 8.13666 120.926 7.76003C120.073 7.38339 119.15 7.18879 118.217 7.18879C117.284 7.18879 116.361 7.38339 115.508 7.76003C114.655 8.13666 113.891 8.68694 113.265 9.37533C111.921 10.8188 111.189 12.7216 111.221 14.6878C111.207 16.651 111.936 18.5476 113.265 20.0003C113.891 20.6887 114.655 21.239 115.508 21.6156C116.361 21.9923 117.284 22.1869 118.217 22.1869C119.15 22.1869 120.073 21.9923 120.926 21.6156C121.779 21.239 122.543 20.6887 123.169 20.0003C123.85 19.2956 124.381 18.4624 124.732 17.5499C125.083 16.6374 125.247 15.6642 125.212 14.6878Z" fill="black"/>
<path d="M141.168 20.4688C141.583 21.0031 142.121 21.4308 142.736 21.7163C143.351 22.0017 144.027 22.1365 144.705 22.1094C145.373 22.1447 146.04 22.013 146.644 21.7264C147.248 21.4399 147.771 21.0075 148.164 20.4688C149.066 19.1927 149.509 17.6512 149.421 16.0938V3.28125H154.609V16.25C154.609 19.6094 153.666 22.1875 151.779 23.9844C150.829 24.8896 149.708 25.5976 148.48 26.0671C147.252 26.5366 145.942 26.7581 144.626 26.7188C143.299 26.7581 141.978 26.5369 140.737 26.0677C139.496 25.5984 138.36 24.8905 137.395 23.9844C135.509 22.1875 134.565 19.6094 134.565 16.25V3.28125H139.753V16.0938C139.751 17.6635 140.246 19.194 141.168 20.4688Z" fill="black"/>
<path d="M177.877 6.25C180.078 8.28125 181.257 11.0937 181.257 14.6875C181.257 18.2812 180.156 21.1719 178.034 23.2812C175.912 25.3906 172.532 26.4062 168.13 26.4062H160.034V3.20312H168.287C172.453 3.20312 175.676 4.21875 177.877 6.25ZM174.104 20.0781C175.361 18.9062 175.99 17.1094 175.99 14.8437C175.99 12.5781 175.361 10.7812 174.104 9.60937C172.846 8.4375 170.881 7.73437 168.209 7.73437H165.3V21.875H168.602C170.597 21.9807 172.56 21.3396 174.104 20.0781Z" fill="black"/>
<path d="M210.888 3.20312H216.076V26.4062H210.888L199.727 11.875V26.4062H194.539V3.20312H199.412L210.888 18.125V3.20312Z" fill="black"/>
<path d="M238.477 26.4062L236.277 21.4062H226.451L224.251 26.4062H218.67L228.731 3.20312H233.761L243.822 26.4062H238.477ZM231.482 10.1562L228.574 16.875H234.39L231.482 10.1562Z" fill="black"/>
<path d="M254.985 7.73437V26.4844H249.797V7.73437H243.194V3.28125H261.666V7.73437H254.985Z" fill="black"/>
<path d="M265.36 3.20312H270.548V26.4062H265.36V3.20312Z" fill="black"/>
<path d="M284.931 17.9687L290.905 3.20312H296.564L287.21 26.4062H282.809L273.455 3.20312H279.114L284.931 17.9687Z" fill="black"/>
<path d="M316.135 3.20312V7.8125H304.502V12.5781H314.956V17.0312H304.502V21.875H316.528V26.4844H299.314V3.28125H316.135V3.20312Z" fill="black"/>
<path d="M69.3265 46.1737C70.011 46.1866 70.6887 46.0375 71.3037 45.7386C71.9188 45.4398 72.4534 44.9997 72.8636 44.4549L74.75 46.4081C74.1096 47.1823 73.3061 47.8074 72.3962 48.2393C71.4862 48.6713 70.492 48.8996 69.4837 48.9081C68.5734 48.9468 67.6647 48.8005 66.8132 48.4781C65.9618 48.1557 65.1854 47.664 64.5318 47.0331C63.8852 46.4209 63.376 45.68 63.0374 44.8588C62.6987 44.0375 62.5384 43.1545 62.5668 42.2674C62.5381 41.3687 62.698 40.4739 63.0363 39.64C63.3746 38.806 63.8839 38.0512 64.5318 37.4237C65.1677 36.7858 65.9279 36.2836 66.7659 35.9477C67.6038 35.6119 68.5019 35.4495 69.4051 35.4706C70.4324 35.4546 71.4507 35.6633 72.3879 36.0818C73.3251 36.5003 74.1583 37.1184 74.8286 37.8924L73.0208 39.9237C72.6265 39.3812 72.1061 38.9415 71.5039 38.6422C70.9016 38.3429 70.2355 38.1929 69.5623 38.2049C68.5134 38.1981 67.5013 38.5893 66.7326 39.2987C66.3338 39.6643 66.0213 40.113 65.8174 40.6128C65.6136 41.1125 65.5235 41.6509 65.5536 42.1893C65.5296 42.7202 65.6148 43.2504 65.804 43.7474C65.9932 44.2444 66.2824 44.6978 66.654 45.0799C66.9934 45.4434 67.4081 45.7295 67.8695 45.9183C68.3309 46.1071 68.828 46.1943 69.3265 46.1737Z" fill="black"/>
<path d="M87.7201 46.9525C86.4146 48.211 84.6655 48.912 82.8468 48.9056C81.9426 48.9341 81.0423 48.7752 80.2033 48.4389C79.3643 48.1027 78.6049 47.5964 77.9735 46.9525C76.7139 45.6822 76.0078 43.9704 76.0078 42.1869C76.0078 40.4033 76.7139 38.6915 77.9735 37.4212C79.279 36.1627 81.0281 35.4617 82.8468 35.4681C83.751 35.4396 84.6513 35.5985 85.4903 35.9348C86.3293 36.271 87.0887 36.7773 87.7201 37.4212C88.9797 38.6915 89.6858 40.4033 89.6858 42.1869C89.6858 43.9704 88.9797 45.6822 87.7201 46.9525ZM86.7769 42.1869C86.7986 41.095 86.4057 40.035 85.6764 39.2181C85.3298 38.832 84.9063 38.5216 84.4328 38.3064C83.9592 38.0913 83.446 37.9761 82.9254 37.9681C82.4007 37.9504 81.8791 38.054 81.4017 38.271C80.9243 38.4879 80.5041 38.8121 80.1743 39.2181C79.7978 39.6128 79.5061 40.0796 79.3169 40.59C79.1277 41.1004 79.045 41.6437 79.0739 42.1869C79.0664 43.2763 79.4575 44.3314 80.1743 45.1556C80.521 45.5417 80.9445 45.8521 81.418 46.0673C81.8915 46.2824 82.4048 46.3976 82.9254 46.4056C83.45 46.4233 83.9716 46.3197 84.4491 46.1027C84.9265 45.8858 85.3467 45.5616 85.6764 45.1556C86.4057 44.3387 86.7986 43.2787 86.7769 42.1869Z" fill="black"/>
<path d="M103.913 40.5469L100.376 47.6563H98.6465L95.1094 40.5469V48.75H92.2012V35.7031H96.1312L99.5111 42.8125L102.891 35.7031H106.821V48.75H103.913V40.5469Z" fill="black"/>
<path d="M119.082 36.9531C119.578 37.4048 119.964 37.9636 120.209 38.5866C120.455 39.2096 120.553 39.8802 120.496 40.5469C120.496 42.1875 120.025 43.3594 119.082 44.0625C118.138 44.8438 116.724 45.1563 114.759 45.1563H113.029V48.75H110.121V35.7031H114.759C116.724 35.7813 118.138 36.1719 119.082 36.9531ZM116.959 42.0313C117.339 41.54 117.534 40.9318 117.51 40.3125C117.544 40.0129 117.496 39.7098 117.371 39.4349C117.247 39.1599 117.05 38.9234 116.802 38.75C116.155 38.3948 115.418 38.2321 114.68 38.2813H113.029V42.6563H114.994C115.347 42.6871 115.703 42.6478 116.04 42.5405C116.378 42.4331 116.69 42.26 116.959 42.0313Z" fill="black"/>
<path d="M126.235 45.3906C126.47 45.6837 126.769 45.9204 127.109 46.083C127.449 46.2456 127.822 46.3301 128.2 46.3301C128.577 46.3301 128.95 46.2456 129.29 46.083C129.63 45.9204 129.929 45.6837 130.165 45.3906C130.676 44.66 130.926 43.7793 130.872 42.8906V35.7031H133.78V42.9688C133.825 43.7654 133.709 44.5629 133.439 45.3143C133.169 46.0657 132.751 46.7557 132.208 47.3438C131.096 48.3131 129.664 48.8411 128.185 48.8267C126.705 48.8123 125.284 48.2565 124.191 47.2656C123.648 46.6776 123.23 45.9876 122.96 45.2362C122.69 44.4848 122.574 43.6872 122.619 42.8906V35.625H125.527V42.8125C125.451 43.7278 125.701 44.6406 126.235 45.3906Z" fill="black"/>
<path d="M142.349 38.2813V48.75H139.44V38.2813H135.746V35.7812H146.121V38.2813H142.349Z" fill="black"/>
<path d="M148.242 35.7812H151.15V48.8281H148.242V35.7812Z" fill="black"/>
<path d="M163.49 35.7812H166.398V48.8281H163.49L157.28 40.7031V48.8281H154.372V35.7812H157.123L163.568 44.1406V35.7812H163.49Z" fill="black"/>
<path d="M178.191 42.1888H181.099V46.7982C180.404 47.5263 179.561 48.0983 178.626 48.4756C177.69 48.8529 176.684 49.0268 175.676 48.9857C173.866 49.0206 172.116 48.3471 170.802 47.1107C170.156 46.4985 169.646 45.7576 169.308 44.9364C168.969 44.1152 168.809 43.2321 168.837 42.345C168.82 41.4545 168.983 40.5695 169.316 39.7425C169.649 38.9154 170.145 38.163 170.775 37.5295C171.405 36.896 172.156 36.3943 172.984 36.054C173.812 35.7138 174.701 35.5418 175.597 35.5482C177.406 35.5132 179.156 36.1867 180.47 37.4232L178.977 39.6107C178.524 39.1357 177.956 38.7857 177.326 38.595C176.822 38.4089 176.291 38.3034 175.754 38.2825C174.705 38.2757 173.693 38.6669 172.924 39.3763C172.529 39.7607 172.219 40.2239 172.016 40.7355C171.813 41.2471 171.721 41.7956 171.745 42.345C171.709 43.4393 172.104 44.5044 172.846 45.3138C173.181 45.6619 173.583 45.9385 174.029 46.1265C174.475 46.3146 174.955 46.4102 175.44 46.4075C176.313 46.4574 177.183 46.2682 177.955 45.8607V42.1888H178.191Z" fill="black"/>
<path d="M197.603 35.7812V38.3594H191.551V41.1719H197.289V43.75H191.551V48.8281H188.643V35.7812H197.603Z" fill="black"/>
<path d="M211.124 46.9525C209.819 48.211 208.07 48.912 206.251 48.9056C205.347 48.9341 204.447 48.7752 203.608 48.4389C202.769 48.1027 202.009 47.5964 201.378 46.9525C200.118 45.6822 199.412 43.9704 199.412 42.1869C199.412 40.4033 200.118 38.6915 201.378 37.4212C202.683 36.1627 204.432 35.4617 206.251 35.4681C207.155 35.4396 208.056 35.5985 208.895 35.9348C209.734 36.271 210.493 36.7773 211.124 37.4212C212.384 38.6915 213.09 40.4033 213.09 42.1869C213.09 43.9704 212.384 45.6822 211.124 46.9525ZM210.103 42.1869C210.124 41.095 209.731 40.035 209.002 39.2181C208.655 38.832 208.232 38.5216 207.758 38.3064C207.285 38.0913 206.772 37.9761 206.251 37.9681C205.726 37.9504 205.205 38.054 204.727 38.271C204.25 38.4879 203.83 38.8121 203.5 39.2181C203.124 39.6128 202.832 40.0796 202.643 40.59C202.453 41.1004 202.371 41.6437 202.4 42.1869C202.392 43.2763 202.783 44.3314 203.5 45.1556C203.847 45.5417 204.27 45.8521 204.744 46.0673C205.217 46.2824 205.73 46.3976 206.251 46.4056C206.776 46.4233 207.297 46.3197 207.775 46.1027C208.252 45.8858 208.672 45.5616 209.002 45.1556C209.379 44.7609 209.67 44.2941 209.86 43.7837C210.049 43.2733 210.131 42.73 210.103 42.1869Z" fill="black"/>
<path d="M219.063 45.3906C219.298 45.6837 219.597 45.9204 219.937 46.083C220.278 46.2456 220.65 46.3301 221.028 46.3301C221.405 46.3301 221.778 46.2456 222.118 46.083C222.458 45.9204 222.757 45.6837 222.993 45.3906C223.504 44.66 223.754 43.7793 223.7 42.8906V35.7031H226.608V42.9688C226.653 43.7654 226.538 44.5629 226.268 45.3143C225.998 46.0657 225.579 46.7557 225.036 47.3438C223.924 48.3131 222.492 48.8411 221.013 48.8267C219.534 48.8123 218.112 48.2565 217.019 47.2656C216.476 46.6776 216.058 45.9876 215.788 45.2362C215.518 44.4848 215.402 43.6872 215.447 42.8906V35.625H218.355V42.8125C218.24 43.7309 218.495 44.6573 219.063 45.3906Z" fill="black"/>
<path d="M238.792 35.7812H241.7V48.8281H238.792L232.582 40.7031V48.8281H229.674V35.7812H232.425L238.87 44.1406V35.7812H238.792Z" fill="black"/>
<path d="M254.905 37.5C255.544 38.1142 256.043 38.8574 256.369 39.6794C256.694 40.5015 256.838 41.3834 256.792 42.2656C256.833 43.1405 256.694 44.0146 256.383 44.8342C256.073 45.6537 255.596 46.4014 254.984 47.0312C253.805 48.2031 251.918 48.8281 249.403 48.8281H244.923V35.7812H249.56C251.918 35.7812 253.726 36.3281 254.905 37.5ZM252.783 45.2344C253.155 44.8523 253.444 44.3989 253.633 43.9018C253.822 43.4048 253.907 42.8746 253.883 42.3437C253.908 41.801 253.824 41.2588 253.635 40.749C253.446 40.2392 253.156 39.772 252.783 39.375C252.327 38.9977 251.801 38.7136 251.234 38.5393C250.668 38.365 250.072 38.3039 249.482 38.3594H247.831V46.25H249.718C250.825 46.2641 251.905 45.9063 252.783 45.2344Z" fill="black"/>
<path d="M268.268 48.75L267.089 45.9375H261.587L260.408 48.75H257.264L262.923 35.7031H265.753L271.412 48.75H268.268ZM264.338 39.6094L262.687 43.3594H265.988L264.338 39.6094Z" fill="black"/>
<path d="M277.542 38.2813V48.75H274.634V38.2813H270.861V35.7812H281.237V38.2813H277.542Z" fill="black"/>
<path d="M283.358 35.7812H286.267V48.8281H283.358V35.7812Z" fill="black"/>
<path d="M300.494 46.9525C299.189 48.211 297.44 48.912 295.621 48.9056C294.717 48.9341 293.817 48.7752 292.978 48.4389C292.139 48.1027 291.379 47.5964 290.748 46.9525C289.488 45.6822 288.782 43.9704 288.782 42.1869C288.782 40.4033 289.488 38.6915 290.748 37.4212C292.053 36.1627 293.802 35.4617 295.621 35.4681C296.525 35.4396 297.426 35.5985 298.265 35.9348C299.104 36.271 299.863 36.7773 300.494 37.4212C301.754 38.6915 302.46 40.4033 302.46 42.1869C302.46 43.9704 301.754 45.6822 300.494 46.9525ZM299.551 42.1869C299.573 41.095 299.18 40.035 298.451 39.2181C298.104 38.832 297.681 38.5216 297.207 38.3064C296.734 38.0913 296.22 37.9761 295.7 37.9681C295.175 37.9504 294.654 38.054 294.176 38.271C293.699 38.4879 293.279 38.8121 292.949 39.2181C292.572 39.6128 292.28 40.0796 292.091 40.59C291.902 41.1004 291.819 41.6437 291.848 42.1869C291.841 43.2763 292.232 44.3314 292.949 45.1556C293.295 45.5417 293.719 45.8521 294.192 46.0673C294.666 46.2824 295.179 46.3976 295.7 46.4056C296.224 46.4233 296.746 46.3197 297.223 46.1027C297.701 45.8858 298.121 45.5616 298.451 45.1556C299.18 44.3387 299.573 43.2787 299.551 42.1869Z" fill="black"/>
<path d="M314.092 35.7812H317.001V48.8281H314.092L307.883 40.7031V48.8281H304.975V35.7812H307.726L314.171 44.1406L314.092 35.7812Z" fill="black"/>
<path d="M7.15274 33.3047H0V50H16.7421V42.8203H7.15274V33.3047Z" fill="#0086FF"/>
<path d="M43.1529 33.3828V42.8203H33.5635V50H50.3056V33.3047H43.0743L43.1529 33.3828Z" fill="#0086FF"/>
<path d="M0 16.6953H7.23134L7.15274 16.6172V7.17969H16.7421V0H0V16.6953Z" fill="#0086FF"/>
<path d="M33.5635 0V7.17969H43.1529V16.6953H50.3056V0H33.5635Z" fill="#0086FF"/>
<path d="M32.6207 16.6953L23.0313 7.17969H33.5639V0H16.7432V7.17969L26.3326 16.6953H32.6207Z" fill="#93EAFF"/>
<path d="M23.9745 33.3047H17.6864L25.6251 41.1875L27.1972 42.8203H16.7432V50H33.5639V42.7422L28.7692 38.0547L23.9745 33.3047Z" fill="#93EAFF"/>
<path d="M43.1529 16.6953V27.0703L41.5022 25.4297L33.5635 17.5469V23.8672L38.2796 28.5547L43.0743 33.3125H50.3056V16.6953H43.1529Z" fill="#93EAFF"/>
<path d="M16.7431 26.1328L7.23232 16.6953H0.000976562V33.3047H7.15372V22.9297L16.7431 32.4531V26.1328Z" fill="#93EAFF"/>
</g>
<defs>
<clipPath id="clip0_4336_4681">
<rect width="317" height="50" fill="white"/>
</clipPath>
</defs>
</svg>
