<svg width="197" height="41" viewBox="0 0 197 41" fill="none" xmlns="http://www.w3.org/2000/svg">
<path d="M53.5803 20.0581C54.2171 20.2754 54.7349 20.4155 55.222 20.6256C56.8818 21.3384 57.6557 22.6331 57.7982 24.4072C58.1825 29.2125 54.9893 30.3707 51.419 30.8178C48.6371 31.1662 45.8354 30.9543 43.0445 30.9848C42.0667 30.9956 41.6752 30.6113 41.6716 29.6147C41.6571 23.452 41.6626 17.2892 41.6662 11.1264C41.6662 10.3112 42.0559 9.77789 42.8984 9.77789C45.9887 9.78148 49.0881 9.57857 52.1641 10.0796C52.4888 10.1334 52.8136 10.2017 53.1347 10.2753C56.9305 11.13 57.6882 14.0318 56.7374 17.3503C56.4127 18.4833 55.545 19.189 54.4932 19.6703C54.2298 19.7906 53.961 19.8983 53.5821 20.0581H53.5803ZM44.2514 20.3077C44.2514 22.7319 44.2767 25.1543 44.237 27.5784C44.2244 28.3452 44.4408 28.654 45.2527 28.6253C46.8439 28.5696 48.4387 28.6163 50.0317 28.5876C51.0582 28.5696 52.0667 28.3865 53.0301 28.0309C54.4409 27.5102 55.1535 26.4884 55.1697 25.0303C55.1932 22.9797 54.1414 21.8736 51.8646 21.5072C50.5819 21.3007 49.292 21.2989 48.0003 21.2936C46.9684 21.2882 46.7086 21.0224 46.6779 20.1425C46.6454 19.216 47.1866 19.0364 47.9516 19.0759C48.9456 19.1262 49.9361 19.0292 50.9139 18.8766C52.3156 18.6575 53.6543 18.2696 54.2099 16.7523C55.0578 14.4359 53.9989 12.7426 51.5074 12.3475C49.4147 12.0153 47.3075 12.2056 45.2076 12.1284C44.4426 12.1015 44.2298 12.4068 44.2388 13.1268C44.2713 15.5205 44.2514 17.9141 44.2514 20.3077Z" fill="#073359"/>
<path d="M160.988 13.6381C160.988 14.9364 160.988 15.9778 160.988 17.0193C160.988 21.2068 160.989 25.3944 160.986 29.5819C160.986 30.5839 160.694 30.9358 159.88 30.9807C158.972 31.031 158.518 30.6216 158.428 29.6609C158.408 29.4526 158.41 29.2425 158.41 29.0324C158.41 23.2593 158.404 17.4862 158.415 11.7131C158.415 10.9823 158.298 10.1563 159.252 9.83664C160.21 9.51521 161.114 9.83484 161.76 10.7381C165.415 15.8575 169.064 20.9824 172.716 26.1036C172.867 26.3155 173.033 26.5167 173.219 26.7555C173.429 26.3928 173.335 26.0606 173.335 25.7481C173.342 20.9321 173.338 16.1161 173.344 11.3001C173.344 10.2766 173.667 9.86178 174.475 9.77558C175.391 9.67862 175.934 10.1563 175.943 11.1403C175.963 13.085 175.951 15.0297 175.951 16.9726C175.951 21.0399 175.951 25.1088 175.951 29.176C175.951 29.8602 176.043 30.6018 175.187 30.9107C174.267 31.2429 173.367 30.925 172.759 30.0739C169.055 24.879 165.352 19.6823 161.648 14.4874C161.493 14.2702 161.323 14.0637 160.989 13.6327L160.988 13.6381Z" fill="#073359"/>
<path d="M87.4491 20.5677C87.4491 17.4127 88.1581 14.5109 90.5358 12.2304C93.0652 9.80619 97.8243 8.973 101.007 10.379C101.797 10.7292 102.125 11.3612 101.853 12.0095C101.575 12.6667 100.954 12.875 100.105 12.5967C96.9457 11.5588 93.7706 12.3112 91.8546 14.5504C90.8876 15.6816 90.3753 17.0266 90.1859 18.4649C89.8413 21.0884 89.8846 23.6975 91.4018 26.0086C93.0832 28.5692 95.6504 29.221 98.5081 28.878C101.626 28.5046 103.608 26.6712 104.348 23.6706C105.003 21.0166 105.098 18.3464 103.814 15.7858C103.43 15.019 103.668 14.2451 104.296 13.8985C104.949 13.5394 105.474 13.7369 106.002 14.545C106.605 15.4644 106.953 16.4789 107.092 17.5599C107.393 19.8871 107.422 22.2125 106.782 24.4948C105.297 29.7705 100.704 31.7619 96.2566 31.2627C90.4384 30.6109 87.4689 26.8884 87.4473 20.5677H87.4491Z" fill="#073359"/>
<path d="M66.3928 17.5447C66.5119 19.5308 66.1818 21.8436 66.6165 24.1277C67.2263 27.3491 68.9943 28.8 72.3048 28.8162C75.9815 28.8341 77.7621 27.4551 78.3882 24.0559C78.5451 23.2065 78.6371 22.3446 78.6335 21.4701C78.6173 18.0601 78.6209 14.6483 78.6335 11.2383C78.6371 10.1448 79.2036 9.65634 80.2067 9.81796C80.8219 9.91672 81.2314 10.2597 81.217 10.8864C81.1051 15.4546 81.6571 20.0497 80.867 24.5874C80.0804 29.0963 76.7663 31.5546 72.1605 31.2386C71.5615 31.1973 70.9535 31.2008 70.3672 31.0931C66.7807 30.4359 64.7241 28.2829 64.0421 24.4294C63.8545 23.3735 63.73 22.2943 63.7174 21.2223C63.6759 17.9613 63.6957 14.7004 63.7084 11.4394C63.7102 10.7768 63.73 10.0927 64.5779 9.86644C65.6658 9.57554 66.3676 10.0909 66.3892 11.3102C66.4235 13.2836 66.3982 15.2588 66.3982 17.5447H66.3928Z" fill="#073359"/>
<path d="M153.599 29.9866C153.619 30.5002 153.431 30.7821 153.033 30.8934C152.354 31.082 151.696 31.0497 151.225 30.4607C150.989 30.1626 150.848 29.7819 150.695 29.4264C150.016 27.8605 149.309 26.3055 148.692 24.7163C148.414 23.998 147.994 23.7879 147.265 23.8149C145.973 23.8616 144.68 23.8382 143.386 23.8239C142.43 23.8131 142.015 23.4162 142.006 22.5579C141.997 21.705 142.428 21.2614 143.348 21.2381C144.31 21.2147 145.273 21.204 146.235 21.2381C146.928 21.2632 147.177 21.1286 146.848 20.3887C145.876 18.1998 144.959 15.9875 144.016 13.786C143.926 13.5742 143.904 13.2366 143.644 13.2186C143.296 13.1953 143.301 13.5813 143.204 13.8094C141.054 18.848 138.912 23.8903 136.765 28.9308C136.567 29.3976 136.376 29.8771 136.109 30.3062C135.721 30.9258 134.71 31.161 134.099 30.7983C133.377 30.3691 133.659 29.7747 133.9 29.2217C136.552 23.1271 139.212 17.0362 141.862 10.9417C142.192 10.1839 142.677 9.74937 143.567 9.74039C144.449 9.73141 144.95 10.1175 145.29 10.895C147.749 16.5173 150.229 22.1305 152.695 27.751C153.031 28.5142 153.469 29.2414 153.597 29.9848L153.599 29.9866Z" fill="#073359"/>
<path d="M120.001 27.358C120.348 25.5426 119.595 24.063 118.681 22.5618C116.498 18.9812 114.405 15.3468 112.283 11.7303C111.944 11.1503 111.412 10.5218 112.219 9.92923C112.823 9.4857 114.005 9.76762 114.456 10.4877C115.359 11.935 116.202 13.4218 117.062 14.8943C118.302 17.015 119.532 19.1392 120.772 21.2599C121.307 22.1775 121.322 22.1703 121.852 21.2671C123.9 17.7799 125.966 14.3035 127.992 10.8055C128.48 9.95976 129.146 9.63295 130.083 9.7766C130.833 9.89152 131.096 10.3638 130.792 11.0713C130.687 11.3173 130.534 11.5435 130.395 11.7752C127.923 15.916 125.455 20.0586 122.973 24.1941C122.684 24.6735 122.543 25.1601 122.552 25.7204C122.574 27.0061 122.569 28.2936 122.552 29.5793C122.541 30.5148 122.175 30.935 121.396 30.9781C120.553 31.0248 120.073 30.6154 120.01 29.6888C119.958 28.9149 120 28.1338 120 27.3563L120.001 27.358Z" fill="#073359"/>
<path d="M190.021 21.3237C190.021 24.0747 190.031 26.8257 190.015 29.5767C190.008 30.7044 189.135 31.279 188.141 30.866C187.441 30.5751 187.434 29.9681 187.434 29.3594C187.432 25.9512 187.434 22.5412 187.434 19.133C187.434 17.1291 187.408 15.1251 187.446 13.1229C187.461 12.3759 187.197 12.1209 186.454 12.1461C185.164 12.191 183.87 12.1532 182.579 12.1568C181.796 12.1586 181.31 11.839 181.291 11.004C181.273 10.2337 181.668 9.77936 182.512 9.77397C186.658 9.75243 190.804 9.75243 194.949 9.77397C195.776 9.77936 196.178 10.2624 196.147 11.0291C196.117 11.8067 195.676 12.1514 194.924 12.1514C193.632 12.1532 192.339 12.1927 191.049 12.1407C190.268 12.1101 189.997 12.3597 190.01 13.157C190.051 15.8775 190.026 18.5979 190.024 21.3202L190.021 21.3237Z" fill="#073359"/>
<path d="M9.37531 25.7882C10.4505 27.5444 11.3923 29.0833 12.4206 30.7622C12.7471 30.1014 12.6154 29.5915 12.6299 29.1066C12.6551 28.2698 12.6281 27.4313 12.6407 26.5927C12.6587 25.4542 13.1567 24.8311 14.01 24.8491C14.8272 24.867 15.3071 25.4704 15.3216 26.5568C15.3378 27.803 15.3252 29.0492 15.3252 30.3474C15.8123 30.2092 15.87 29.8482 16.0215 29.5825C16.5808 28.5913 17.1058 27.5821 17.6723 26.5945C18.0602 25.9175 18.4715 25.3465 17.831 24.5115C17.362 23.901 17.7498 23.1683 18.6375 22.714C19.7397 22.1484 20.7807 21.5217 21.6665 20.64C24.6072 17.7113 25.4948 13.3065 23.9 9.44579C22.3304 5.64614 18.4516 2.98675 14.4213 2.94904C13.9108 2.94365 13.3984 2.96699 12.8879 2.94545C12.0291 2.90953 11.4987 2.44625 11.4753 1.74055C11.45 0.997139 11.984 0.497941 12.8987 0.449458C16.6025 0.251934 19.8624 1.28624 22.7255 3.70502C27.9321 8.10621 28.3921 15.8923 24.8345 20.7729C24.6414 21.0387 24.452 21.3206 24.2103 21.5361C22.6858 22.89 21.5907 24.542 20.6995 26.3592C20.1204 27.5408 19.4493 28.6775 18.8016 29.8249C18.4967 30.3672 18.5418 30.606 19.2508 30.6419C20.833 30.7245 21.2606 31.195 21.2786 32.7518C21.2931 33.919 21.3003 35.0862 21.2786 36.2534C21.2299 38.7745 19.783 40.5109 17.2772 40.739C14.9481 40.9509 12.5884 41.0101 10.2611 40.6779C8.19003 40.3817 6.68182 38.4854 6.71249 36.4258C6.7179 36.0595 6.77924 35.7075 7.01377 35.413C7.32046 35.0306 7.70293 34.8312 8.20086 34.9875C8.80522 35.1778 9.00006 35.6375 9.05058 36.2265C9.1949 37.9306 9.81731 38.5052 11.5023 38.5106C13.2451 38.516 14.9896 38.5231 16.7323 38.507C18.2099 38.4944 18.9207 37.7636 18.9369 36.2785C18.9442 35.501 18.9045 34.7199 18.9478 33.946C18.9893 33.2079 18.706 32.9458 17.9591 32.953C14.8633 32.9817 11.7657 32.9655 8.66992 32.9637C8.37044 32.9637 8.06375 32.9799 7.77148 32.9278C7.21042 32.8273 6.83517 32.4825 6.79548 31.9079C6.75218 31.292 7.07691 30.8879 7.68489 30.7317C7.82922 30.694 7.97895 30.6689 8.12869 30.6509C9.38072 30.5037 9.39876 30.4929 8.69337 29.3885C6.82434 26.4634 5.10505 23.4556 3.05923 20.631C-0.483984 15.7432 0.167289 8.53718 4.34915 4.15034C4.78032 3.69783 5.28366 3.30278 5.79782 2.94545C6.88027 2.19306 8.09622 2.24334 9.1498 3.02984C10.1438 3.77325 10.548 4.93864 10.1348 6.14354C9.78664 7.16348 9.42583 8.17624 9.2382 9.24288C8.78718 11.8017 9.16604 14.2384 10.281 16.58C10.6851 17.4311 10.5065 18.1351 9.87143 18.4637C9.15882 18.8336 8.3975 18.5247 7.95189 17.679C7.82561 17.4401 7.71015 17.1959 7.60912 16.9463C6.17487 13.4088 6.15323 9.84083 7.3818 6.24589C7.43953 6.07531 7.51711 5.9119 7.57123 5.74131C7.64159 5.51865 7.78231 5.26725 7.51711 5.09128C7.26634 4.92428 7.05166 5.10205 6.86944 5.25109C6.0973 5.88317 5.46226 6.63376 4.92645 7.47593C1.5005 12.8594 3.5319 20.1265 9.24181 22.9044C9.78664 23.1701 10.3639 23.3246 10.9413 23.4898C11.8 23.7358 12.1861 24.3499 11.9912 25.0879C11.8072 25.781 11.2155 26.0989 10.3567 25.9624C10.124 25.9265 9.89489 25.878 9.37531 25.781V25.7882ZM16.8189 5.27982C16.2759 4.95121 15.6643 5.00508 15.3053 5.56533C14.9625 6.10224 15.0798 6.71097 15.612 7.07729C17.3169 8.25166 18.2424 9.88034 18.6194 11.8735C18.7403 12.5092 19.1805 12.8863 19.8462 12.7965C20.5227 12.7049 20.7717 12.2111 20.7627 11.4192C20.3928 8.88374 19.1805 6.71636 16.8171 5.27982H16.8189Z" fill="url(#paint0_linear_4336_4760)"/>
<defs>
<linearGradient id="paint0_linear_4336_4760" x1="25.8971" y1="10.5699" x2="5.01837" y2="27.8664" gradientUnits="userSpaceOnUse">
<stop stop-color="#5EF1C3"/>
<stop offset="0.25" stop-color="#41D0D4"/>
<stop offset="0.57" stop-color="#22ACE7"/>
<stop offset="0.83" stop-color="#0F96F3"/>
<stop offset="1" stop-color="#098FF8"/>
</linearGradient>
</defs>
</svg>
