<svg width="1200" height="588" viewBox="0 0 1200 588" fill="none" xmlns="http://www.w3.org/2000/svg">
<rect x="1020" y="507.278" width="180" height="80" fill="#EBEBEB"/>
<rect y="507.278" width="276" height="80" fill="#5D1465"/>
<rect x="276" y="507.278" width="192" height="80" fill="#991B7C"/>
<rect x="468" y="507.278" width="168" height="80" fill="#D62293"/>
<rect x="636" y="507.278" width="120" height="80" fill="#E46BB7"/>
<rect x="756" y="507.278" width="264" height="80" fill="#F1B5DB"/>
<path d="M1033.98 572.278H1036.92V558.538H1034.56L1030.44 561.298L1031.64 563.378L1033.98 561.918V572.278ZM1044.69 572.538C1047.97 572.538 1050.15 570.678 1050.15 567.758C1050.15 564.958 1048.05 563.398 1045.61 563.398C1044.49 563.398 1043.61 563.758 1042.93 564.238L1043.01 561.198H1049.41V558.538H1040.29L1040.09 565.958L1042.07 566.758C1042.81 566.198 1043.69 565.858 1044.73 565.858C1046.23 565.858 1047.21 566.658 1047.21 567.858C1047.21 569.038 1046.27 569.958 1044.71 569.958C1043.39 569.958 1042.15 569.318 1041.11 568.338L1039.37 570.418C1040.65 571.698 1042.39 572.538 1044.69 572.538ZM1055.56 565.438C1057.58 565.438 1059 563.898 1059 561.918C1059 559.978 1057.64 558.398 1055.56 558.398C1053.5 558.398 1052.14 559.958 1052.14 561.938C1052.14 563.898 1053.5 565.438 1055.56 565.438ZM1053.94 572.278H1056.24L1065.8 558.538H1063.48L1053.94 572.278ZM1055.56 563.718C1054.74 563.718 1054.1 562.998 1054.1 561.918C1054.1 560.838 1054.7 560.138 1055.56 560.138C1056.4 560.138 1057.02 560.858 1057.02 561.918C1057.02 563.018 1056.4 563.718 1055.56 563.718ZM1064.14 572.498C1066.16 572.498 1067.56 570.958 1067.56 568.978C1067.56 567.038 1066.22 565.458 1064.14 565.458C1062.1 565.458 1060.7 567.018 1060.7 568.978C1060.7 570.938 1062.1 572.498 1064.14 572.498ZM1064.14 570.758C1063.3 570.758 1062.68 570.038 1062.68 568.978C1062.68 567.878 1063.28 567.178 1064.14 567.178C1064.96 567.178 1065.6 567.898 1065.6 568.978C1065.6 570.058 1065 570.758 1064.14 570.758Z" fill="#0F0B47"/>
<path d="M12.82 572.278H23.2V569.618H17.38L19.88 567.678C22.28 565.938 23.08 564.518 23.08 562.678C23.08 560.098 20.96 558.298 18.04 558.298C15.82 558.298 14.08 559.258 12.72 560.978L14.6 562.798C15.6 561.658 16.62 560.978 17.96 560.978C19.08 560.978 20.04 561.658 20.04 562.798C20.04 563.758 19.52 564.658 17.88 565.958L12.82 569.878V572.278ZM30.2866 572.538C33.5066 572.538 35.5866 570.818 35.5866 568.438C35.5866 566.618 34.2066 565.558 32.7066 565.218C34.2266 564.778 35.2866 563.638 35.2866 562.058C35.2866 559.878 33.3466 558.298 30.2666 558.298C27.8266 558.298 26.1866 559.358 25.0466 560.738L26.7466 562.538C27.6666 561.578 28.6866 560.938 29.9666 560.938C31.3266 560.938 32.2866 561.578 32.2866 562.578C32.2866 563.558 31.3866 564.118 29.8866 564.118L28.3066 564.098V566.618H29.8866C31.7266 566.598 32.5666 567.138 32.5666 568.198C32.5666 569.178 31.6666 569.878 30.1666 569.878C28.7866 569.878 27.4866 569.298 26.5066 568.258L24.7666 570.218C25.9266 571.558 27.8266 572.538 30.2866 572.538ZM41.0903 565.438C43.1103 565.438 44.5303 563.898 44.5303 561.918C44.5303 559.978 43.1703 558.398 41.0903 558.398C39.0303 558.398 37.6703 559.958 37.6703 561.938C37.6703 563.898 39.0303 565.438 41.0903 565.438ZM39.4703 572.278H41.7703L51.3303 558.538H49.0103L39.4703 572.278ZM41.0903 563.718C40.2703 563.718 39.6303 562.998 39.6303 561.918C39.6303 560.838 40.2303 560.138 41.0903 560.138C41.9303 560.138 42.5503 560.858 42.5503 561.918C42.5503 563.018 41.9303 563.718 41.0903 563.718ZM49.6703 572.498C51.6903 572.498 53.0903 570.958 53.0903 568.978C53.0903 567.038 51.7503 565.458 49.6703 565.458C47.6303 565.458 46.2303 567.018 46.2303 568.978C46.2303 570.938 47.6303 572.498 49.6703 572.498ZM49.6703 570.758C48.8303 570.758 48.2103 570.038 48.2103 568.978C48.2103 567.878 48.8103 567.178 49.6703 567.178C50.4903 567.178 51.1303 567.898 51.1303 568.978C51.1303 570.058 50.5303 570.758 49.6703 570.758Z" fill="white"/>
<path d="M290.98 572.278H293.92V558.538H291.56L287.44 561.298L288.64 563.378L290.98 561.918V572.278ZM303.054 563.398C301.754 563.398 300.494 563.898 299.654 564.718C299.914 562.398 301.114 560.898 302.914 560.898C304.074 560.898 304.874 561.318 305.714 562.018L307.114 559.778C305.994 558.878 304.614 558.298 302.914 558.298C299.094 558.298 296.594 561.358 296.594 565.638C296.594 569.638 298.434 572.518 302.434 572.518C305.434 572.518 307.694 570.578 307.694 567.758C307.694 565.038 305.594 563.398 303.054 563.398ZM302.274 570.018C300.734 570.018 299.994 569.078 299.734 567.398C300.154 566.418 301.074 565.798 302.194 565.798C303.534 565.798 304.654 566.578 304.654 567.898C304.654 568.998 303.734 570.018 302.274 570.018ZM313.043 565.438C315.063 565.438 316.483 563.898 316.483 561.918C316.483 559.978 315.123 558.398 313.043 558.398C310.983 558.398 309.623 559.958 309.623 561.938C309.623 563.898 310.983 565.438 313.043 565.438ZM311.423 572.278H313.723L323.283 558.538H320.963L311.423 572.278ZM313.043 563.718C312.223 563.718 311.583 562.998 311.583 561.918C311.583 560.838 312.183 560.138 313.043 560.138C313.883 560.138 314.503 560.858 314.503 561.918C314.503 563.018 313.883 563.718 313.043 563.718ZM321.623 572.498C323.643 572.498 325.043 570.958 325.043 568.978C325.043 567.038 323.703 565.458 321.623 565.458C319.583 565.458 318.183 567.018 318.183 568.978C318.183 570.938 319.583 572.498 321.623 572.498ZM321.623 570.758C320.783 570.758 320.163 570.038 320.163 568.978C320.163 567.878 320.763 567.178 321.623 567.178C322.443 567.178 323.083 567.898 323.083 568.978C323.083 570.058 322.483 570.758 321.623 570.758Z" fill="white"/>
<path d="M483.98 572.278H486.92V558.538H484.56L480.44 561.298L481.64 563.378L483.98 561.918V572.278ZM496.174 572.278H499.114V569.478H500.934V566.998H499.114V558.558H495.554L489.174 567.198L489.454 569.478H496.174V572.278ZM492.274 566.998L496.174 561.678V566.998H492.274ZM506.102 565.438C508.122 565.438 509.542 563.898 509.542 561.918C509.542 559.978 508.182 558.398 506.102 558.398C504.042 558.398 502.682 559.958 502.682 561.938C502.682 563.898 504.042 565.438 506.102 565.438ZM504.482 572.278H506.782L516.342 558.538H514.022L504.482 572.278ZM506.102 563.718C505.282 563.718 504.642 562.998 504.642 561.918C504.642 560.838 505.242 560.138 506.102 560.138C506.942 560.138 507.562 560.858 507.562 561.918C507.562 563.018 506.942 563.718 506.102 563.718ZM514.682 572.498C516.702 572.498 518.102 570.958 518.102 568.978C518.102 567.038 516.762 565.458 514.682 565.458C512.642 565.458 511.242 567.018 511.242 568.978C511.242 570.938 512.642 572.498 514.682 572.498ZM514.682 570.758C513.842 570.758 513.222 570.038 513.222 568.978C513.222 567.878 513.822 567.178 514.682 567.178C515.502 567.178 516.142 567.898 516.142 568.978C516.142 570.058 515.542 570.758 514.682 570.758Z" fill="white"/>
<path d="M654.98 572.278H657.92V558.538H655.56L651.44 561.298L652.64 563.378L654.98 561.918V572.278ZM666.734 572.518C670.354 572.518 672.894 569.578 672.894 565.398C672.894 561.238 670.354 558.298 666.734 558.298C663.114 558.298 660.554 561.238 660.554 565.398C660.554 569.578 663.114 572.518 666.734 572.518ZM666.734 569.838C664.894 569.838 663.594 567.978 663.594 565.398C663.594 562.818 664.894 560.978 666.734 560.978C668.574 560.978 669.874 562.818 669.874 565.398C669.874 567.978 668.574 569.838 666.734 569.838ZM678.372 565.438C680.392 565.438 681.812 563.898 681.812 561.918C681.812 559.978 680.452 558.398 678.372 558.398C676.312 558.398 674.952 559.958 674.952 561.938C674.952 563.898 676.312 565.438 678.372 565.438ZM676.752 572.278H679.052L688.612 558.538H686.292L676.752 572.278ZM678.372 563.718C677.552 563.718 676.912 562.998 676.912 561.918C676.912 560.838 677.512 560.138 678.372 560.138C679.212 560.138 679.832 560.858 679.832 561.918C679.832 563.018 679.212 563.718 678.372 563.718ZM686.952 572.498C688.972 572.498 690.372 570.958 690.372 568.978C690.372 567.038 689.032 565.458 686.952 565.458C684.912 565.458 683.512 567.018 683.512 568.978C683.512 570.938 684.912 572.498 686.952 572.498ZM686.952 570.758C686.112 570.758 685.492 570.038 685.492 568.978C685.492 567.878 686.092 567.178 686.952 567.178C687.772 567.178 688.412 567.898 688.412 568.978C688.412 570.058 687.812 570.758 686.952 570.758Z" fill="white"/>
<path d="M769.82 572.278H780.2V569.618H774.38L776.88 567.678C779.28 565.938 780.08 564.518 780.08 562.678C780.08 560.098 777.96 558.298 775.04 558.298C772.82 558.298 771.08 559.258 769.72 560.978L771.6 562.798C772.6 561.658 773.62 560.978 774.96 560.978C776.08 560.978 777.04 561.658 777.04 562.798C777.04 563.758 776.52 564.658 774.88 565.958L769.82 569.878V572.278ZM782.047 572.278H792.427V569.618H786.607L789.107 567.678C791.507 565.938 792.307 564.518 792.307 562.678C792.307 560.098 790.187 558.298 787.267 558.298C785.047 558.298 783.307 559.258 781.947 560.978L783.827 562.798C784.827 561.658 785.847 560.978 787.187 560.978C788.307 560.978 789.267 561.658 789.267 562.798C789.267 563.758 788.747 564.658 787.107 565.958L782.047 569.878V572.278ZM797.973 565.438C799.993 565.438 801.413 563.898 801.413 561.918C801.413 559.978 800.053 558.398 797.973 558.398C795.913 558.398 794.553 559.958 794.553 561.938C794.553 563.898 795.913 565.438 797.973 565.438ZM796.353 572.278H798.653L808.213 558.538H805.893L796.353 572.278ZM797.973 563.718C797.153 563.718 796.513 562.998 796.513 561.918C796.513 560.838 797.113 560.138 797.973 560.138C798.813 560.138 799.433 560.858 799.433 561.918C799.433 563.018 798.813 563.718 797.973 563.718ZM806.553 572.498C808.573 572.498 809.973 570.958 809.973 568.978C809.973 567.038 808.633 565.458 806.553 565.458C804.513 565.458 803.113 567.018 803.113 568.978C803.113 570.938 804.513 572.498 806.553 572.498ZM806.553 570.758C805.713 570.758 805.093 570.038 805.093 568.978C805.093 567.878 805.693 567.178 806.553 567.178C807.373 567.178 808.013 567.898 808.013 568.978C808.013 570.058 807.413 570.758 806.553 570.758Z" fill="#0F0B47"/>
<path d="M0.82 475.278H11.2V472.618H5.38L7.88 470.678C10.28 468.938 11.08 467.518 11.08 465.678C11.08 463.098 8.96 461.298 6.04 461.298C3.82 461.298 2.08 462.258 0.72 463.978L2.6 465.798C3.6 464.658 4.62 463.978 5.96 463.978C7.08 463.978 8.04 464.658 8.04 465.798C8.04 466.758 7.52 467.658 5.88 468.958L0.82 472.878V475.278ZM16.2066 475.278H19.1466V461.538H16.7866L12.6666 464.298L13.8666 466.378L16.2066 464.918V475.278ZM31.6803 467.418H28.1203V463.778H25.6003V467.418H22.0203V469.798H25.6003V473.438H28.1203V469.798H31.6803V467.418ZM46.5603 475.518C48.6403 475.518 50.5403 474.618 51.8803 473.218L49.7403 471.298C48.9603 472.218 47.8203 472.838 46.5603 472.838C44.2403 472.838 42.2803 470.798 42.2803 468.398C42.2803 466.018 44.2403 463.978 46.5603 463.978C47.8003 463.978 48.9603 464.598 49.7403 465.518L51.8803 463.598C50.5403 462.178 48.6403 461.298 46.5603 461.298C42.6003 461.298 39.2403 464.538 39.2403 468.398C39.2403 472.258 42.6003 475.518 46.5603 475.518ZM57.2195 472.618V461.538H54.2595V475.278H64.0595V472.618H57.2195ZM72.367 475.518C76.007 475.518 78.587 472.958 78.587 469.338V461.538H75.627V469.218C75.627 471.338 74.267 472.838 72.367 472.838C70.447 472.838 69.087 471.338 69.087 469.218V461.538H66.147V469.338C66.147 472.958 68.707 475.518 72.367 475.518ZM86.8395 475.518C90.1795 475.518 92.1795 473.778 92.1795 471.158C92.1795 468.618 90.2195 467.738 87.2595 467.078C85.1395 466.598 84.2995 466.278 84.2995 465.278C84.2995 464.458 85.0795 463.798 86.3195 463.798C87.6395 463.798 89.0195 464.338 90.2595 465.338L91.7995 463.198C90.3795 461.998 88.6595 461.298 86.4195 461.298C83.3995 461.298 81.3195 463.038 81.3195 465.578C81.3195 468.238 83.3995 469.058 86.2995 469.718C88.3995 470.198 89.1995 470.498 89.1995 471.478C89.1995 472.338 88.4395 473.018 86.9395 473.018C85.1995 473.018 83.7195 472.338 82.4195 471.218L80.7395 473.238C82.3395 474.718 84.4395 475.518 86.8395 475.518ZM97.9864 475.278H100.926V464.198H105.226V461.538H93.7064V464.198H97.9864V475.278ZM118.16 464.198V461.538H107.58V475.278H118.16V472.618H110.54V469.598H117.46V466.938H110.54V464.198H118.16ZM132.377 466.178C132.377 463.458 130.197 461.538 127.197 461.538H121.017V475.278H123.977V470.818H125.757L128.897 475.278H132.257L128.957 470.578C131.017 469.978 132.377 468.338 132.377 466.178ZM123.977 464.238H126.897C128.357 464.238 129.357 464.998 129.357 466.178C129.357 467.358 128.357 468.118 126.897 468.118H123.977V464.238ZM140.179 475.518C143.519 475.518 145.519 473.778 145.519 471.158C145.519 468.618 143.559 467.738 140.599 467.078C138.479 466.598 137.639 466.278 137.639 465.278C137.639 464.458 138.419 463.798 139.659 463.798C140.979 463.798 142.359 464.338 143.599 465.338L145.139 463.198C143.719 461.998 141.999 461.298 139.759 461.298C136.739 461.298 134.659 463.038 134.659 465.578C134.659 468.238 136.739 469.058 139.639 469.718C141.739 470.198 142.539 470.498 142.539 471.478C142.539 472.338 141.779 473.018 140.279 473.018C138.539 473.018 137.059 472.338 135.759 471.218L134.079 473.238C135.679 474.718 137.779 475.518 140.179 475.518Z" fill="#0F0B47"/>
<rect x="1128" y="316.278" width="72" height="80" fill="#EBEBEB"/>
<rect y="316.278" width="108" height="80" fill="#5D1465"/>
<rect x="108" y="316.278" width="252" height="80" fill="#991B7C"/>
<rect x="360" y="316.278" width="300" height="80" fill="#D62293"/>
<rect x="660" y="316.278" width="192" height="80" fill="#E46BB7"/>
<rect x="852" y="316.278" width="276" height="80" fill="#F1B5DB"/>
<path d="M1145.46 373.398C1144.16 373.398 1142.9 373.898 1142.06 374.718C1142.32 372.398 1143.52 370.898 1145.32 370.898C1146.48 370.898 1147.28 371.318 1148.12 372.018L1149.52 369.778C1148.4 368.878 1147.02 368.298 1145.32 368.298C1141.5 368.298 1139 371.358 1139 375.638C1139 379.638 1140.84 382.518 1144.84 382.518C1147.84 382.518 1150.1 380.578 1150.1 377.758C1150.1 375.038 1148 373.398 1145.46 373.398ZM1144.68 380.018C1143.14 380.018 1142.4 379.078 1142.14 377.398C1142.56 376.418 1143.48 375.798 1144.6 375.798C1145.94 375.798 1147.06 376.578 1147.06 377.898C1147.06 378.998 1146.14 380.018 1144.68 380.018ZM1155.45 375.438C1157.47 375.438 1158.89 373.898 1158.89 371.918C1158.89 369.978 1157.53 368.398 1155.45 368.398C1153.39 368.398 1152.03 369.958 1152.03 371.938C1152.03 373.898 1153.39 375.438 1155.45 375.438ZM1153.83 382.278H1156.13L1165.69 368.538H1163.37L1153.83 382.278ZM1155.45 373.718C1154.63 373.718 1153.99 372.998 1153.99 371.918C1153.99 370.838 1154.59 370.138 1155.45 370.138C1156.29 370.138 1156.91 370.858 1156.91 371.918C1156.91 373.018 1156.29 373.718 1155.45 373.718ZM1164.03 382.498C1166.05 382.498 1167.45 380.958 1167.45 378.978C1167.45 377.038 1166.11 375.458 1164.03 375.458C1161.99 375.458 1160.59 377.018 1160.59 378.978C1160.59 380.938 1161.99 382.498 1164.03 382.498ZM1164.03 380.758C1163.19 380.758 1162.57 380.038 1162.57 378.978C1162.57 377.878 1163.17 377.178 1164.03 377.178C1164.85 377.178 1165.49 377.898 1165.49 378.978C1165.49 380.058 1164.89 380.758 1164.03 380.758Z" fill="#0F0B47"/>
<path d="M17.08 368.298C14.08 368.298 11.82 370.238 11.82 373.058C11.82 375.778 13.92 377.418 16.46 377.418C17.76 377.418 19.02 376.918 19.86 376.098C19.6 378.418 18.4 379.918 16.6 379.918C15.44 379.918 14.64 379.498 13.8 378.798L12.4 381.038C13.52 381.938 14.9 382.518 16.6 382.518C20.42 382.518 22.92 379.458 22.92 375.178C22.92 371.178 21.08 368.298 17.08 368.298ZM17.32 375.018C15.98 375.018 14.86 374.238 14.86 372.918C14.86 371.818 15.78 370.798 17.24 370.798C18.78 370.798 19.52 371.738 19.78 373.418C19.36 374.398 18.44 375.018 17.32 375.018ZM28.4497 375.438C30.4697 375.438 31.8897 373.898 31.8897 371.918C31.8897 369.978 30.5297 368.398 28.4497 368.398C26.3897 368.398 25.0297 369.958 25.0297 371.938C25.0297 373.898 26.3897 375.438 28.4497 375.438ZM26.8297 382.278H29.1297L38.6897 368.538H36.3697L26.8297 382.278ZM28.4497 373.718C27.6297 373.718 26.9897 372.998 26.9897 371.918C26.9897 370.838 27.5897 370.138 28.4497 370.138C29.2897 370.138 29.9097 370.858 29.9097 371.918C29.9097 373.018 29.2897 373.718 28.4497 373.718ZM37.0297 382.498C39.0497 382.498 40.4497 380.958 40.4497 378.978C40.4497 377.038 39.1097 375.458 37.0297 375.458C34.9897 375.458 33.5897 377.018 33.5897 378.978C33.5897 380.938 34.9897 382.498 37.0297 382.498ZM37.0297 380.758C36.1897 380.758 35.5697 380.038 35.5697 378.978C35.5697 377.878 36.1697 377.178 37.0297 377.178C37.8497 377.178 38.4897 377.898 38.4897 378.978C38.4897 380.058 37.8897 380.758 37.0297 380.758Z" fill="white"/>
<path d="M119.82 382.278H130.2V379.618H124.38L126.88 377.678C129.28 375.938 130.08 374.518 130.08 372.678C130.08 370.098 127.96 368.298 125.04 368.298C122.82 368.298 121.08 369.258 119.72 370.978L121.6 372.798C122.6 371.658 123.62 370.978 124.96 370.978C126.08 370.978 127.04 371.658 127.04 372.798C127.04 373.758 126.52 374.658 124.88 375.958L119.82 379.878V382.278ZM135.207 382.278H138.147V368.538H135.787L131.667 371.298L132.867 373.378L135.207 371.918V382.278ZM144.34 375.438C146.36 375.438 147.78 373.898 147.78 371.918C147.78 369.978 146.42 368.398 144.34 368.398C142.28 368.398 140.92 369.958 140.92 371.938C140.92 373.898 142.28 375.438 144.34 375.438ZM142.72 382.278H145.02L154.58 368.538H152.26L142.72 382.278ZM144.34 373.718C143.52 373.718 142.88 372.998 142.88 371.918C142.88 370.838 143.48 370.138 144.34 370.138C145.18 370.138 145.8 370.858 145.8 371.918C145.8 373.018 145.18 373.718 144.34 373.718ZM152.92 382.498C154.94 382.498 156.34 380.958 156.34 378.978C156.34 377.038 155 375.458 152.92 375.458C150.88 375.458 149.48 377.018 149.48 378.978C149.48 380.938 150.88 382.498 152.92 382.498ZM152.92 380.758C152.08 380.758 151.46 380.038 151.46 378.978C151.46 377.878 152.06 377.178 152.92 377.178C153.74 377.178 154.38 377.898 154.38 378.978C154.38 380.058 153.78 380.758 152.92 380.758Z" fill="white"/>
<path d="M372.82 382.278H383.2V379.618H377.38L379.88 377.678C382.28 375.938 383.08 374.518 383.08 372.678C383.08 370.098 380.96 368.298 378.04 368.298C375.82 368.298 374.08 369.258 372.72 370.978L374.6 372.798C375.6 371.658 376.62 370.978 377.96 370.978C379.08 370.978 380.04 371.658 380.04 372.798C380.04 373.758 379.52 374.658 377.88 375.958L372.82 379.878V382.278ZM390.327 382.538C393.607 382.538 395.787 380.678 395.787 377.758C395.787 374.958 393.687 373.398 391.247 373.398C390.127 373.398 389.247 373.758 388.567 374.238L388.647 371.198H395.047V368.538H385.927L385.727 375.958L387.707 376.758C388.447 376.198 389.327 375.858 390.367 375.858C391.867 375.858 392.847 376.658 392.847 377.858C392.847 379.038 391.907 379.958 390.347 379.958C389.027 379.958 387.787 379.318 386.747 378.338L385.007 380.418C386.287 381.698 388.027 382.538 390.327 382.538ZM401.188 375.438C403.208 375.438 404.628 373.898 404.628 371.918C404.628 369.978 403.268 368.398 401.188 368.398C399.128 368.398 397.768 369.958 397.768 371.938C397.768 373.898 399.128 375.438 401.188 375.438ZM399.568 382.278H401.868L411.428 368.538H409.108L399.568 382.278ZM401.188 373.718C400.368 373.718 399.728 372.998 399.728 371.918C399.728 370.838 400.328 370.138 401.188 370.138C402.028 370.138 402.648 370.858 402.648 371.918C402.648 373.018 402.028 373.718 401.188 373.718ZM409.768 382.498C411.788 382.498 413.188 380.958 413.188 378.978C413.188 377.038 411.848 375.458 409.768 375.458C407.728 375.458 406.328 377.018 406.328 378.978C406.328 380.938 407.728 382.498 409.768 382.498ZM409.768 380.758C408.928 380.758 408.308 380.038 408.308 378.978C408.308 377.878 408.908 377.178 409.768 377.178C410.588 377.178 411.228 377.898 411.228 378.978C411.228 380.058 410.628 380.758 409.768 380.758Z" fill="white"/>
<path d="M675.98 382.278H678.92V368.538H676.56L672.44 371.298L673.64 373.378L675.98 371.918V382.278ZM688.054 373.398C686.754 373.398 685.494 373.898 684.654 374.718C684.914 372.398 686.114 370.898 687.914 370.898C689.074 370.898 689.874 371.318 690.714 372.018L692.114 369.778C690.994 368.878 689.614 368.298 687.914 368.298C684.094 368.298 681.594 371.358 681.594 375.638C681.594 379.638 683.434 382.518 687.434 382.518C690.434 382.518 692.694 380.578 692.694 377.758C692.694 375.038 690.594 373.398 688.054 373.398ZM687.274 380.018C685.734 380.018 684.994 379.078 684.734 377.398C685.154 376.418 686.074 375.798 687.194 375.798C688.534 375.798 689.654 376.578 689.654 377.898C689.654 378.998 688.734 380.018 687.274 380.018ZM698.043 375.438C700.063 375.438 701.483 373.898 701.483 371.918C701.483 369.978 700.123 368.398 698.043 368.398C695.983 368.398 694.623 369.958 694.623 371.938C694.623 373.898 695.983 375.438 698.043 375.438ZM696.423 382.278H698.723L708.283 368.538H705.963L696.423 382.278ZM698.043 373.718C697.223 373.718 696.583 372.998 696.583 371.918C696.583 370.838 697.183 370.138 698.043 370.138C698.883 370.138 699.503 370.858 699.503 371.918C699.503 373.018 698.883 373.718 698.043 373.718ZM706.623 382.498C708.643 382.498 710.043 380.958 710.043 378.978C710.043 377.038 708.703 375.458 706.623 375.458C704.583 375.458 703.183 377.018 703.183 378.978C703.183 380.938 704.583 382.498 706.623 382.498ZM706.623 380.758C705.783 380.758 705.163 380.038 705.163 378.978C705.163 377.878 705.763 377.178 706.623 377.178C707.443 377.178 708.083 377.898 708.083 378.978C708.083 380.058 707.483 380.758 706.623 380.758Z" fill="white"/>
<path d="M865.82 382.278H876.2V379.618H870.38L872.88 377.678C875.28 375.938 876.08 374.518 876.08 372.678C876.08 370.098 873.96 368.298 871.04 368.298C868.82 368.298 867.08 369.258 865.72 370.978L867.6 372.798C868.6 371.658 869.62 370.978 870.96 370.978C872.08 370.978 873.04 371.658 873.04 372.798C873.04 373.758 872.52 374.658 870.88 375.958L865.82 379.878V382.278ZM883.287 382.538C886.507 382.538 888.587 380.818 888.587 378.438C888.587 376.618 887.207 375.558 885.707 375.218C887.227 374.778 888.287 373.638 888.287 372.058C888.287 369.878 886.347 368.298 883.267 368.298C880.827 368.298 879.187 369.358 878.047 370.738L879.747 372.538C880.667 371.578 881.687 370.938 882.967 370.938C884.327 370.938 885.287 371.578 885.287 372.578C885.287 373.558 884.387 374.118 882.887 374.118L881.307 374.098V376.618H882.887C884.727 376.598 885.567 377.138 885.567 378.198C885.567 379.178 884.667 379.878 883.167 379.878C881.787 379.878 880.487 379.298 879.507 378.258L877.767 380.218C878.927 381.558 880.827 382.538 883.287 382.538ZM894.09 375.438C896.11 375.438 897.53 373.898 897.53 371.918C897.53 369.978 896.17 368.398 894.09 368.398C892.03 368.398 890.67 369.958 890.67 371.938C890.67 373.898 892.03 375.438 894.09 375.438ZM892.47 382.278H894.77L904.33 368.538H902.01L892.47 382.278ZM894.09 373.718C893.27 373.718 892.63 372.998 892.63 371.918C892.63 370.838 893.23 370.138 894.09 370.138C894.93 370.138 895.55 370.858 895.55 371.918C895.55 373.018 894.93 373.718 894.09 373.718ZM902.67 382.498C904.69 382.498 906.09 380.958 906.09 378.978C906.09 377.038 904.75 375.458 902.67 375.458C900.63 375.458 899.23 377.018 899.23 378.978C899.23 380.938 900.63 382.498 902.67 382.498ZM902.67 380.758C901.83 380.758 901.21 380.038 901.21 378.978C901.21 377.878 901.81 377.178 902.67 377.178C903.49 377.178 904.13 377.898 904.13 378.978C904.13 380.058 903.53 380.758 902.67 380.758Z" fill="#0F0B47"/>
<path d="M7.46 275.398C6.16 275.398 4.9 275.898 4.06 276.718C4.32 274.398 5.52 272.898 7.32 272.898C8.48 272.898 9.28 273.318 10.12 274.018L11.52 271.778C10.4 270.878 9.02 270.298 7.32 270.298C3.5 270.298 1 273.358 1 277.638C1 281.638 2.84 284.518 6.84 284.518C9.84 284.518 12.1 282.578 12.1 279.758C12.1 277.038 10 275.398 7.46 275.398ZM6.68 282.018C5.14 282.018 4.4 281.078 4.14 279.398C4.56 278.418 5.48 277.798 6.6 277.798C7.94 277.798 9.06 278.578 9.06 279.898C9.06 280.998 8.14 282.018 6.68 282.018ZM14.3297 280.018H19.8097V277.538H14.3297V280.018ZM22.0309 284.278H32.4109V281.618H26.5909L29.0909 279.678C31.4909 277.938 32.2909 276.518 32.2909 274.678C32.2909 272.098 30.1709 270.298 27.2509 270.298C25.0309 270.298 23.2909 271.258 21.9309 272.978L23.8109 274.798C24.8109 273.658 25.8309 272.978 27.1709 272.978C28.2909 272.978 29.2509 273.658 29.2509 274.798C29.2509 275.758 28.7309 276.658 27.0909 277.958L22.0309 281.878V284.278ZM40.5775 284.518C44.1975 284.518 46.7375 281.578 46.7375 277.398C46.7375 273.238 44.1975 270.298 40.5775 270.298C36.9575 270.298 34.3975 273.238 34.3975 277.398C34.3975 281.578 36.9575 284.518 40.5775 284.518ZM40.5775 281.838C38.7375 281.838 37.4375 279.978 37.4375 277.398C37.4375 274.818 38.7375 272.978 40.5775 272.978C42.4175 272.978 43.7175 274.818 43.7175 277.398C43.7175 279.978 42.4175 281.838 40.5775 281.838ZM61.3845 284.518C63.4645 284.518 65.3645 283.618 66.7045 282.218L64.5645 280.298C63.7845 281.218 62.6445 281.838 61.3845 281.838C59.0645 281.838 57.1045 279.798 57.1045 277.398C57.1045 275.018 59.0645 272.978 61.3845 272.978C62.6245 272.978 63.7845 273.598 64.5645 274.518L66.7045 272.598C65.3645 271.178 63.4645 270.298 61.3845 270.298C57.4245 270.298 54.0645 273.538 54.0645 277.398C54.0645 281.258 57.4245 284.518 61.3845 284.518ZM72.0438 281.618V270.538H69.0838V284.278H78.8838V281.618H72.0438ZM87.1913 284.518C90.8312 284.518 93.4113 281.958 93.4113 278.338V270.538H90.4513V278.218C90.4513 280.338 89.0913 281.838 87.1913 281.838C85.2713 281.838 83.9113 280.338 83.9113 278.218V270.538H80.9713V278.338C80.9713 281.958 83.5313 284.518 87.1913 284.518ZM101.664 284.518C105.004 284.518 107.004 282.778 107.004 280.158C107.004 277.618 105.044 276.738 102.084 276.078C99.9638 275.598 99.1238 275.278 99.1238 274.278C99.1238 273.458 99.9038 272.798 101.144 272.798C102.464 272.798 103.844 273.338 105.084 274.338L106.624 272.198C105.204 270.998 103.484 270.298 101.244 270.298C98.2238 270.298 96.1438 272.038 96.1438 274.578C96.1438 277.238 98.2238 278.058 101.124 278.718C103.224 279.198 104.024 279.498 104.024 280.478C104.024 281.338 103.264 282.018 101.764 282.018C100.024 282.018 98.5438 281.338 97.2438 280.218L95.5638 282.238C97.1638 283.718 99.2638 284.518 101.664 284.518ZM112.811 284.278H115.751V273.198H120.051V270.538H108.531V273.198H112.811V284.278ZM132.984 273.198V270.538H122.404V284.278H132.984V281.618H125.364V278.598H132.284V275.938H125.364V273.198H132.984ZM147.202 275.178C147.202 272.458 145.022 270.538 142.022 270.538H135.842V284.278H138.802V279.818H140.582L143.722 284.278H147.082L143.782 279.578C145.842 278.978 147.202 277.338 147.202 275.178ZM138.802 273.238H141.722C143.182 273.238 144.182 273.998 144.182 275.178C144.182 276.358 143.182 277.118 141.722 277.118H138.802V273.238ZM155.004 284.518C158.344 284.518 160.344 282.778 160.344 280.158C160.344 277.618 158.384 276.738 155.424 276.078C153.304 275.598 152.464 275.278 152.464 274.278C152.464 273.458 153.244 272.798 154.484 272.798C155.804 272.798 157.184 273.338 158.424 274.338L159.964 272.198C158.544 270.998 156.824 270.298 154.584 270.298C151.564 270.298 149.484 272.038 149.484 274.578C149.484 277.238 151.564 278.058 154.464 278.718C156.564 279.198 157.364 279.498 157.364 280.478C157.364 281.338 156.604 282.018 155.104 282.018C153.364 282.018 151.884 281.338 150.584 280.218L148.904 282.238C150.504 283.718 152.604 284.518 155.004 284.518Z" fill="#0F0B47"/>
<rect x="504" y="125.278" width="612" height="80" fill="#F1B5DB"/>
<rect x="1116" y="125.278" width="84" height="80" fill="#EBEBEB"/>
<rect y="125.278" width="60" height="80" fill="#5D1465"/>
<rect x="60" y="125.278" width="72" height="80" fill="#991B7C"/>
<rect x="132" y="125.278" width="144" height="80" fill="#D62293"/>
<rect x="276" y="125.278" width="228" height="80" fill="#E46BB7"/>
<path d="M1128.4 190.278H1131.72L1137.28 178.758V176.538H1127.06V179.198H1133.86L1128.4 190.278ZM1142.42 183.438C1144.44 183.438 1145.86 181.898 1145.86 179.918C1145.86 177.978 1144.5 176.398 1142.42 176.398C1140.36 176.398 1139 177.958 1139 179.938C1139 181.898 1140.36 183.438 1142.42 183.438ZM1140.8 190.278H1143.1L1152.66 176.538H1150.34L1140.8 190.278ZM1142.42 181.718C1141.6 181.718 1140.96 180.998 1140.96 179.918C1140.96 178.838 1141.56 178.138 1142.42 178.138C1143.26 178.138 1143.88 178.858 1143.88 179.918C1143.88 181.018 1143.26 181.718 1142.42 181.718ZM1151 190.498C1153.02 190.498 1154.42 188.958 1154.42 186.978C1154.42 185.038 1153.08 183.458 1151 183.458C1148.96 183.458 1147.56 185.018 1147.56 186.978C1147.56 188.938 1148.96 190.498 1151 190.498ZM1151 188.758C1150.16 188.758 1149.54 188.038 1149.54 186.978C1149.54 185.878 1150.14 185.178 1151 185.178C1151.82 185.178 1152.46 185.898 1152.46 186.978C1152.46 188.058 1151.86 188.758 1151 188.758Z" fill="#0F0B47"/>
<path d="M15.5707 190.538C18.8507 190.538 21.0307 188.678 21.0307 185.758C21.0307 182.958 18.9307 181.398 16.4907 181.398C15.3707 181.398 14.4907 181.758 13.8107 182.238L13.8907 179.198H20.2907V176.538H11.1707L10.9707 183.958L12.9507 184.758C13.6907 184.198 14.5707 183.858 15.6107 183.858C17.1107 183.858 18.0907 184.658 18.0907 185.858C18.0907 187.038 17.1507 187.958 15.5907 187.958C14.2707 187.958 13.0307 187.318 11.9907 186.338L10.2507 188.418C11.5307 189.698 13.2707 190.538 15.5707 190.538ZM26.4321 183.438C28.4521 183.438 29.8721 181.898 29.8721 179.918C29.8721 177.978 28.5121 176.398 26.4321 176.398C24.3721 176.398 23.0121 177.958 23.0121 179.938C23.0121 181.898 24.3721 183.438 26.4321 183.438ZM24.8121 190.278H27.1121L36.6721 176.538H34.3521L24.8121 190.278ZM26.4321 181.718C25.6121 181.718 24.9721 180.998 24.9721 179.918C24.9721 178.838 25.5721 178.138 26.4321 178.138C27.2721 178.138 27.8921 178.858 27.8921 179.918C27.8921 181.018 27.2721 181.718 26.4321 181.718ZM35.0121 190.498C37.0321 190.498 38.4321 188.958 38.4321 186.978C38.4321 185.038 37.0921 183.458 35.0121 183.458C32.9721 183.458 31.5721 185.018 31.5721 186.978C31.5721 188.938 32.9721 190.498 35.0121 190.498ZM35.0121 188.758C34.1721 188.758 33.5521 188.038 33.5521 186.978C33.5521 185.878 34.1521 185.178 35.0121 185.178C35.8321 185.178 36.4721 185.898 36.4721 186.978C36.4721 188.058 35.8721 188.758 35.0121 188.758Z" fill="white"/>
<path d="M78.6866 181.398C77.3866 181.398 76.1266 181.898 75.2866 182.718C75.5466 180.398 76.7466 178.898 78.5466 178.898C79.7066 178.898 80.5066 179.318 81.3466 180.018L82.7466 177.778C81.6266 176.878 80.2466 176.298 78.5466 176.298C74.7266 176.298 72.2266 179.358 72.2266 183.638C72.2266 187.638 74.0666 190.518 78.0666 190.518C81.0666 190.518 83.3266 188.578 83.3266 185.758C83.3266 183.038 81.2266 181.398 78.6866 181.398ZM77.9066 188.018C76.3666 188.018 75.6266 187.078 75.3666 185.398C75.7866 184.418 76.7066 183.798 77.8266 183.798C79.1666 183.798 80.2866 184.578 80.2866 185.898C80.2866 186.998 79.3666 188.018 77.9066 188.018ZM88.6763 183.438C90.6963 183.438 92.1163 181.898 92.1163 179.918C92.1163 177.978 90.7563 176.398 88.6763 176.398C86.6163 176.398 85.2563 177.958 85.2563 179.938C85.2563 181.898 86.6163 183.438 88.6763 183.438ZM87.0563 190.278H89.3563L98.9163 176.538H96.5963L87.0563 190.278ZM88.6763 181.718C87.8563 181.718 87.2163 180.998 87.2163 179.918C87.2163 178.838 87.8163 178.138 88.6763 178.138C89.5163 178.138 90.1363 178.858 90.1363 179.918C90.1363 181.018 89.5163 181.718 88.6763 181.718ZM97.2563 190.498C99.2763 190.498 100.676 188.958 100.676 186.978C100.676 185.038 99.3363 183.458 97.2563 183.458C95.2163 183.458 93.8163 185.018 93.8163 186.978C93.8163 188.938 95.2163 190.498 97.2563 190.498ZM97.2563 188.758C96.4163 188.758 95.7963 188.038 95.7963 186.978C95.7963 185.878 96.3963 185.178 97.2563 185.178C98.0763 185.178 98.7163 185.898 98.7163 186.978C98.7163 188.058 98.1163 188.758 97.2563 188.758Z" fill="white"/>
<path d="M147.261 190.278H150.201V176.538H147.841L143.721 179.298L144.921 181.378L147.261 179.918V190.278ZM152.695 190.278H163.075V187.618H157.255L159.755 185.678C162.155 183.938 162.955 182.518 162.955 180.678C162.955 178.098 160.835 176.298 157.915 176.298C155.695 176.298 153.955 177.258 152.595 178.978L154.475 180.798C155.475 179.658 156.495 178.978 157.835 178.978C158.955 178.978 159.915 179.658 159.915 180.798C159.915 181.758 159.395 182.658 157.755 183.958L152.695 187.878V190.278ZM168.622 183.438C170.642 183.438 172.062 181.898 172.062 179.918C172.062 177.978 170.702 176.398 168.622 176.398C166.562 176.398 165.202 177.958 165.202 179.938C165.202 181.898 166.562 183.438 168.622 183.438ZM167.002 190.278H169.302L178.862 176.538H176.542L167.002 190.278ZM168.622 181.718C167.802 181.718 167.162 180.998 167.162 179.918C167.162 178.838 167.762 178.138 168.622 178.138C169.462 178.138 170.082 178.858 170.082 179.918C170.082 181.018 169.462 181.718 168.622 181.718ZM177.202 190.498C179.222 190.498 180.622 188.958 180.622 186.978C180.622 185.038 179.282 183.458 177.202 183.458C175.162 183.458 173.762 185.018 173.762 186.978C173.762 188.938 175.162 190.498 177.202 190.498ZM177.202 188.758C176.362 188.758 175.742 188.038 175.742 186.978C175.742 185.878 176.342 185.178 177.202 185.178C178.022 185.178 178.662 185.898 178.662 186.978C178.662 188.058 178.062 188.758 177.202 188.758Z" fill="white"/>
<path d="M292.41 190.278H295.35V176.538H292.99L288.87 179.298L290.07 181.378L292.41 179.918V190.278ZM303.103 176.298C300.103 176.298 297.843 178.238 297.843 181.058C297.843 183.778 299.943 185.418 302.483 185.418C303.783 185.418 305.043 184.918 305.883 184.098C305.623 186.418 304.423 187.918 302.623 187.918C301.463 187.918 300.663 187.498 299.823 186.798L298.423 189.038C299.543 189.938 300.923 190.518 302.623 190.518C306.443 190.518 308.943 187.458 308.943 183.178C308.943 179.178 307.103 176.298 303.103 176.298ZM303.343 183.018C302.003 183.018 300.883 182.238 300.883 180.918C300.883 179.818 301.803 178.798 303.263 178.798C304.803 178.798 305.543 179.738 305.803 181.418C305.383 182.398 304.463 183.018 303.343 183.018ZM314.473 183.438C316.493 183.438 317.913 181.898 317.913 179.918C317.913 177.978 316.553 176.398 314.473 176.398C312.413 176.398 311.053 177.958 311.053 179.938C311.053 181.898 312.413 183.438 314.473 183.438ZM312.853 190.278H315.153L324.713 176.538H322.393L312.853 190.278ZM314.473 181.718C313.653 181.718 313.013 180.998 313.013 179.918C313.013 178.838 313.613 178.138 314.473 178.138C315.313 178.138 315.933 178.858 315.933 179.918C315.933 181.018 315.313 181.718 314.473 181.718ZM323.053 190.498C325.073 190.498 326.473 188.958 326.473 186.978C326.473 185.038 325.133 183.458 323.053 183.458C321.013 183.458 319.613 185.018 319.613 186.978C319.613 188.938 321.013 190.498 323.053 190.498ZM323.053 188.758C322.213 188.758 321.593 188.038 321.593 186.978C321.593 185.878 322.193 185.178 323.053 185.178C323.873 185.178 324.513 185.898 324.513 186.978C324.513 188.058 323.913 188.758 323.053 188.758Z" fill="white"/>
<path d="M521.274 190.538C524.554 190.538 526.734 188.678 526.734 185.758C526.734 182.958 524.634 181.398 522.194 181.398C521.074 181.398 520.194 181.758 519.514 182.238L519.594 179.198H525.994V176.538H516.874L516.674 183.958L518.654 184.758C519.394 184.198 520.274 183.858 521.314 183.858C522.814 183.858 523.794 184.658 523.794 185.858C523.794 187.038 522.854 187.958 521.294 187.958C519.974 187.958 518.734 187.318 517.694 186.338L515.954 188.418C517.234 189.698 518.974 190.538 521.274 190.538ZM531.595 190.278H534.535V176.538H532.175L528.055 179.298L529.255 181.378L531.595 179.918V190.278ZM540.729 183.438C542.749 183.438 544.169 181.898 544.169 179.918C544.169 177.978 542.809 176.398 540.729 176.398C538.669 176.398 537.309 177.958 537.309 179.938C537.309 181.898 538.669 183.438 540.729 183.438ZM539.109 190.278H541.409L550.969 176.538H548.649L539.109 190.278ZM540.729 181.718C539.909 181.718 539.269 180.998 539.269 179.918C539.269 178.838 539.869 178.138 540.729 178.138C541.569 178.138 542.189 178.858 542.189 179.918C542.189 181.018 541.569 181.718 540.729 181.718ZM549.309 190.498C551.329 190.498 552.729 188.958 552.729 186.978C552.729 185.038 551.389 183.458 549.309 183.458C547.269 183.458 545.869 185.018 545.869 186.978C545.869 188.938 547.269 190.498 549.309 190.498ZM549.309 188.758C548.469 188.758 547.849 188.038 547.849 186.978C547.849 185.878 548.449 185.178 549.309 185.178C550.129 185.178 550.769 185.898 550.769 186.978C550.769 188.058 550.169 188.758 549.309 188.758Z" fill="#0F0B47"/>
<path d="M3.98 93.2783H6.92V79.5383H4.56L0.44 82.2983L1.64 84.3783L3.98 82.9183V93.2783ZM9.99375 89.0183H15.4738V86.5383H9.99375V89.0183ZM22.975 93.5383C26.255 93.5383 28.435 91.6783 28.435 88.7583C28.435 85.9583 26.335 84.3983 23.895 84.3983C22.775 84.3983 21.895 84.7583 21.215 85.2383L21.295 82.1983H27.695V79.5383H18.575L18.375 86.9583L20.355 87.7583C21.095 87.1983 21.975 86.8583 23.015 86.8583C24.515 86.8583 25.495 87.6583 25.495 88.8583C25.495 90.0383 24.555 90.9583 22.995 90.9583C21.675 90.9583 20.435 90.3183 19.395 89.3383L17.655 91.4183C18.935 92.6983 20.675 93.5383 22.975 93.5383ZM43.0056 93.5183C45.0856 93.5183 46.9856 92.6183 48.3256 91.2183L46.1856 89.2983C45.4056 90.2183 44.2656 90.8383 43.0056 90.8383C40.6856 90.8383 38.7256 88.7983 38.7256 86.3983C38.7256 84.0183 40.6856 81.9783 43.0056 81.9783C44.2456 81.9783 45.4056 82.5983 46.1856 83.5183L48.3256 81.5983C46.9856 80.1783 45.0856 79.2983 43.0056 79.2983C39.0456 79.2983 35.6856 82.5383 35.6856 86.3983C35.6856 90.2583 39.0456 93.5183 43.0056 93.5183ZM53.6648 90.6183V79.5383H50.7048V93.2783H60.5048V90.6183H53.6648ZM68.8123 93.5183C72.4523 93.5183 75.0323 90.9583 75.0323 87.3383V79.5383H72.0723V87.2183C72.0723 89.3383 70.7123 90.8383 68.8123 90.8383C66.8923 90.8383 65.5323 89.3383 65.5323 87.2183V79.5383H62.5923V87.3383C62.5923 90.9583 65.1523 93.5183 68.8123 93.5183ZM83.2848 93.5183C86.6248 93.5183 88.6248 91.7783 88.6248 89.1583C88.6248 86.6183 86.6648 85.7383 83.7048 85.0783C81.5848 84.5983 80.7448 84.2783 80.7448 83.2783C80.7448 82.4583 81.5248 81.7983 82.7648 81.7983C84.0848 81.7983 85.4648 82.3383 86.7048 83.3383L88.2448 81.1983C86.8248 79.9983 85.1048 79.2983 82.8648 79.2983C79.8448 79.2983 77.7648 81.0383 77.7648 83.5783C77.7648 86.2383 79.8448 87.0583 82.7448 87.7183C84.8448 88.1983 85.6448 88.4983 85.6448 89.4783C85.6448 90.3383 84.8848 91.0183 83.3848 91.0183C81.6448 91.0183 80.1648 90.3383 78.8648 89.2183L77.1848 91.2383C78.7848 92.7183 80.8848 93.5183 83.2848 93.5183ZM94.4317 93.2783H97.3717V82.1983H101.672V79.5383H90.1517V82.1983H94.4317V93.2783ZM114.605 82.1983V79.5383H104.025V93.2783H114.605V90.6183H106.985V87.5983H113.905V84.9383H106.985V82.1983H114.605ZM128.823 84.1783C128.823 81.4583 126.643 79.5383 123.643 79.5383H117.463V93.2783H120.423V88.8183H122.203L125.343 93.2783H128.703L125.403 88.5783C127.463 87.9783 128.823 86.3383 128.823 84.1783ZM120.423 82.2383H123.343C124.803 82.2383 125.803 82.9983 125.803 84.1783C125.803 85.3583 124.803 86.1183 123.343 86.1183H120.423V82.2383ZM136.625 93.5183C139.965 93.5183 141.965 91.7783 141.965 89.1583C141.965 86.6183 140.005 85.7383 137.045 85.0783C134.925 84.5983 134.085 84.2783 134.085 83.2783C134.085 82.4583 134.865 81.7983 136.105 81.7983C137.425 81.7983 138.805 82.3383 140.045 83.3383L141.585 81.1983C140.165 79.9983 138.445 79.2983 136.205 79.2983C133.185 79.2983 131.105 81.0383 131.105 83.5783C131.105 86.2383 133.185 87.0583 136.085 87.7183C138.185 88.1983 138.985 88.4983 138.985 89.4783C138.985 90.3383 138.225 91.0183 136.725 91.0183C134.985 91.0183 133.505 90.3383 132.205 89.2183L130.525 91.2383C132.125 92.7183 134.225 93.5183 136.625 93.5183Z" fill="#0F0B47"/>
<path d="M1057.53 15.2783H1060.77C1063.83 15.2783 1065.98 13.2763 1065.98 10.4623C1065.98 7.64832 1063.83 5.66032 1060.77 5.66032H1057.53V15.2783ZM1058.62 14.2843V6.65432H1060.77C1063.18 6.65432 1064.88 8.23632 1064.88 10.4623C1064.88 12.7023 1063.18 14.2843 1060.77 14.2843H1058.62ZM1071.09 15.4463C1073.13 15.4463 1074.81 13.7383 1074.81 11.6523C1074.81 9.56632 1073.13 7.87232 1071.09 7.87232C1069.03 7.87232 1067.35 9.56632 1067.35 11.6523C1067.35 13.7383 1069.03 15.4463 1071.09 15.4463ZM1071.09 14.5083C1069.63 14.5083 1068.44 13.2203 1068.44 11.6523C1068.44 10.0843 1069.63 8.81032 1071.09 8.81032C1072.53 8.81032 1073.72 10.0843 1073.72 11.6523C1073.72 13.2203 1072.53 14.5083 1071.09 14.5083ZM1080.05 7.87232C1079.01 7.87232 1078.09 8.41832 1077.67 9.18832V8.04032H1076.62V15.2783H1077.67V10.6723C1077.67 9.65032 1078.68 8.81032 1079.91 8.81032C1080.97 8.81032 1081.71 9.62232 1081.71 10.8123V15.2783H1082.76V10.6723C1082.76 9.00632 1081.66 7.87232 1080.05 7.87232ZM1085.53 9.03432C1086.37 7.98432 1086.61 7.50832 1086.61 6.94832C1086.61 6.30432 1086.29 5.82832 1085.75 5.82832C1085.31 5.82832 1084.98 6.17832 1084.98 6.57032C1084.98 6.99032 1085.32 7.34032 1085.74 7.34032C1085.63 7.77432 1085.39 8.20832 1085.01 8.64232L1085.53 9.03432ZM1091.75 14.2143C1091.6 14.3823 1091.32 14.5083 1090.99 14.5083C1090.57 14.5083 1090.21 14.1303 1090.21 13.5983V8.97832H1091.99V8.04032H1090.21V6.05232H1089.16V8.04032H1088.03V8.97832H1089.16V13.5983C1089.16 14.6763 1089.89 15.4463 1090.92 15.4463C1091.41 15.4463 1091.89 15.2783 1092.27 14.9843L1091.75 14.2143ZM1097.94 15.2783H1099.03V12.3943L1100.54 10.7983L1104.2 15.2783H1105.61L1101.3 10.0563L1105.35 5.66032H1103.9L1099.03 10.9803V5.66032H1097.94V15.2783ZM1110.58 7.87232C1109.54 7.87232 1108.62 8.41832 1108.2 9.18832V8.04032H1107.15V15.2783H1108.2V10.6723C1108.2 9.65032 1109.21 8.81032 1110.44 8.81032C1111.5 8.81032 1112.24 9.62232 1112.24 10.8123V15.2783H1113.29V10.6723C1113.29 9.00632 1112.19 7.87232 1110.58 7.87232ZM1118.66 15.4463C1120.71 15.4463 1122.39 13.7383 1122.39 11.6523C1122.39 9.56632 1120.71 7.87232 1118.66 7.87232C1116.61 7.87232 1114.93 9.56632 1114.93 11.6523C1114.93 13.7383 1116.61 15.4463 1118.66 15.4463ZM1118.66 14.5083C1117.21 14.5083 1116.02 13.2203 1116.02 11.6523C1116.02 10.0843 1117.21 8.81032 1118.66 8.81032C1120.11 8.81032 1121.3 10.0843 1121.3 11.6523C1121.3 13.2203 1120.11 14.5083 1118.66 14.5083ZM1125.62 15.2783H1126.62L1128.56 9.49632L1130.48 15.2783H1131.48L1133.91 8.04032H1132.79L1130.99 13.8783L1129.01 8.04032H1128.1L1126.13 13.8783L1124.32 8.04032H1123.2L1125.62 15.2783ZM1134.13 16.3143H1135.32L1140.24 4.87632H1139.05L1134.13 16.3143ZM1141.76 15.2783H1142.85V7.45232L1148.81 15.2783H1149.91V5.66032H1148.81V13.4863L1142.85 5.66032H1141.76V15.2783ZM1155.76 15.4463C1157.8 15.4463 1159.48 13.7383 1159.48 11.6523C1159.48 9.56632 1157.8 7.87232 1155.76 7.87232C1153.7 7.87232 1152.02 9.56632 1152.02 11.6523C1152.02 13.7383 1153.7 15.4463 1155.76 15.4463ZM1155.76 14.5083C1154.3 14.5083 1153.11 13.2203 1153.11 11.6523C1153.11 10.0843 1154.3 8.81032 1155.76 8.81032C1157.2 8.81032 1158.39 10.0843 1158.39 11.6523C1158.39 13.2203 1157.2 14.5083 1155.76 14.5083ZM1164.09 14.2143C1163.93 14.3823 1163.65 14.5083 1163.33 14.5083C1162.91 14.5083 1162.55 14.1303 1162.55 13.5983V8.97832H1164.33V8.04032H1162.55V6.05232H1161.5V8.04032H1160.36V8.97832H1161.5V13.5983C1161.5 14.6763 1162.23 15.4463 1163.26 15.4463C1163.75 15.4463 1164.23 15.2783 1164.61 14.9843L1164.09 14.2143ZM1173.19 15.4323C1175.43 15.4323 1176.58 14.1863 1176.58 12.6603C1176.58 10.9663 1175.26 10.3083 1173.43 9.87432C1171.79 9.48232 1170.84 9.13232 1170.84 8.13832C1170.84 7.25632 1171.71 6.48632 1172.9 6.48632C1173.9 6.48632 1174.86 6.94832 1175.65 7.71832L1176.33 6.86432C1175.44 6.05232 1174.38 5.49232 1172.95 5.49232C1171.1 5.49232 1169.73 6.68232 1169.73 8.22232C1169.73 9.88832 1170.95 10.4903 1172.88 10.9383C1174.56 11.3303 1175.47 11.7363 1175.47 12.7583C1175.47 13.6263 1174.72 14.4383 1173.23 14.4383C1171.89 14.4383 1170.89 13.8643 1170.08 13.0523L1169.4 13.9063C1170.36 14.8583 1171.61 15.4323 1173.19 15.4323ZM1183.47 8.04032V12.6463C1183.47 13.6683 1182.46 14.5083 1181.23 14.5083C1180.17 14.5083 1179.42 13.6963 1179.42 12.5063V8.04032H1178.37V12.6463C1178.37 14.3123 1179.48 15.4463 1181.09 15.4463C1182.13 15.4463 1183.05 14.9003 1183.47 14.1303V15.2783H1184.52V8.04032H1183.47ZM1188 9.45432V8.04032H1186.95V15.2783H1188V11.2323C1188 9.81832 1189.16 8.81032 1190.8 8.81032V7.87232C1189.47 7.87232 1188.43 8.48832 1188 9.45432ZM1195.55 14.5083C1194.13 14.5083 1193.13 13.4723 1192.98 12.0583H1198.9C1198.9 9.52432 1197.65 7.87232 1195.47 7.87232C1193.52 7.87232 1191.9 9.48232 1191.9 11.6383C1191.9 13.8643 1193.64 15.4463 1195.57 15.4463C1196.58 15.4463 1197.85 15.0123 1198.48 14.3263L1197.84 13.6403C1197.39 14.1303 1196.41 14.5083 1195.55 14.5083ZM1195.51 8.81032C1196.95 8.81032 1197.72 9.81832 1197.86 11.1203H1192.99C1193.19 9.72032 1194.22 8.81032 1195.51 8.81032Z" fill="#0F0B47"/>
<rect x="1022" y="0.27832" width="20" height="20" rx="10" fill="#EBEBEB"/>
<path d="M459.32 15.2783H460.412V12.9403H461.854V11.9463H460.412V5.66032H459.152L454.378 12.0303L454.518 12.9403H459.32V15.2783ZM455.624 11.9463L459.32 6.97632V11.9463H455.624ZM470.412 15.4463C472.456 15.4463 474.136 13.7383 474.136 11.6523C474.136 9.56632 472.456 7.87232 470.412 7.87232C468.354 7.87232 466.674 9.56632 466.674 11.6523C466.674 13.7383 468.354 15.4463 470.412 15.4463ZM470.412 14.5083C468.956 14.5083 467.766 13.2203 467.766 11.6523C467.766 10.0843 468.956 8.81032 470.412 8.81032C471.854 8.81032 473.044 10.0843 473.044 11.6523C473.044 13.2203 471.854 14.5083 470.412 14.5083ZM476.995 9.45432V8.04032H475.945V15.2783H476.995V11.2323C476.995 9.81832 478.157 8.81032 479.795 8.81032V7.87232C478.465 7.87232 477.429 8.48832 476.995 9.45432ZM493.177 7.87232C492.029 7.87232 491.133 8.57232 490.909 9.59432C490.545 8.54432 489.649 7.87232 488.501 7.87232C487.549 7.87232 486.765 8.34832 486.401 9.10432V8.04032H485.351V15.2783H486.401V10.6723C486.401 9.58032 487.213 8.81032 488.361 8.81032C489.341 8.81032 490.027 9.63632 490.027 10.8123V15.2783H491.077V10.6723C491.077 9.58032 491.889 8.81032 493.037 8.81032C494.017 8.81032 494.703 9.63632 494.703 10.8123V15.2783H495.753V10.6723C495.753 9.03432 494.689 7.87232 493.177 7.87232ZM501.133 15.4463C503.177 15.4463 504.857 13.7383 504.857 11.6523C504.857 9.56632 503.177 7.87232 501.133 7.87232C499.075 7.87232 497.395 9.56632 497.395 11.6523C497.395 13.7383 499.075 15.4463 501.133 15.4463ZM501.133 14.5083C499.677 14.5083 498.487 13.2203 498.487 11.6523C498.487 10.0843 499.677 8.81032 501.133 8.81032C502.575 8.81032 503.765 10.0843 503.765 11.6523C503.765 13.2203 502.575 14.5083 501.133 14.5083ZM507.715 9.45432V8.04032H506.665V15.2783H507.715V11.2323C507.715 9.81832 508.877 8.81032 510.515 8.81032V7.87232C509.185 7.87232 508.149 8.48832 507.715 9.45432ZM515.268 14.5083C513.84 14.5083 512.846 13.4723 512.692 12.0583H518.614C518.614 9.52432 517.368 7.87232 515.184 7.87232C513.238 7.87232 511.614 9.48232 511.614 11.6383C511.614 13.8643 513.35 15.4463 515.282 15.4463C516.29 15.4463 517.564 15.0123 518.194 14.3263L517.55 13.6403C517.102 14.1303 516.122 14.5083 515.268 14.5083ZM515.226 8.81032C516.668 8.81032 517.438 9.81832 517.578 11.1203H512.706C512.902 9.72032 513.938 8.81032 515.226 8.81032ZM527.034 14.2143C526.88 14.3823 526.6 14.5083 526.278 14.5083C525.858 14.5083 525.494 14.1303 525.494 13.5983V8.97832H527.272V8.04032H525.494V6.05232H524.444V8.04032H523.31V8.97832H524.444V13.5983C524.444 14.6763 525.172 15.4463 526.208 15.4463C526.698 15.4463 527.174 15.2783 527.552 14.9843L527.034 14.2143ZM532.168 15.4463C534.212 15.4463 535.892 13.7383 535.892 11.6523C535.892 9.56632 534.212 7.87232 532.168 7.87232C530.11 7.87232 528.43 9.56632 528.43 11.6523C528.43 13.7383 530.11 15.4463 532.168 15.4463ZM532.168 14.5083C530.712 14.5083 529.522 13.2203 529.522 11.6523C529.522 10.0843 530.712 8.81032 532.168 8.81032C533.61 8.81032 534.8 10.0843 534.8 11.6523C534.8 13.2203 533.61 14.5083 532.168 14.5083ZM540.808 15.4463C542.852 15.4463 544.532 13.7383 544.532 11.6523C544.532 9.56632 542.852 7.87232 540.808 7.87232C538.75 7.87232 537.07 9.56632 537.07 11.6523C537.07 13.7383 538.75 15.4463 540.808 15.4463ZM540.808 14.5083C539.352 14.5083 538.162 13.2203 538.162 11.6523C538.162 10.0843 539.352 8.81032 540.808 8.81032C542.25 8.81032 543.44 10.0843 543.44 11.6523C543.44 13.2203 542.25 14.5083 540.808 14.5083ZM546.341 15.2783H547.391V5.49232H546.341V15.2783ZM552.067 15.4463C553.565 15.4463 554.713 14.5923 554.713 13.2623C554.713 11.8903 553.509 11.4983 552.347 11.1343C551.003 10.7003 550.471 10.5043 550.471 9.87432C550.471 9.17432 551.143 8.81032 551.955 8.81032C552.599 8.81032 553.313 9.03432 554.041 9.49632L554.545 8.68432C553.775 8.18032 552.851 7.87232 551.955 7.87232C550.513 7.87232 549.421 8.68432 549.421 10.0003C549.421 11.0363 550.093 11.5543 551.843 12.0583C552.823 12.3383 553.663 12.5903 553.663 13.3743C553.663 14.0603 553.019 14.5083 552.067 14.5083C551.269 14.5083 550.443 14.2003 549.617 13.5983L549.071 14.3683C549.939 15.0683 551.059 15.4463 552.067 15.4463Z" fill="#0F0B47"/>
<rect x="420" y="0.27832" width="20" height="20" rx="10" fill="#5D1465"/>
<path d="M624.92 15.4463C626.922 15.4463 628.266 14.2843 628.266 12.6743C628.266 11.2883 627.174 10.5743 626.194 10.3503C627.188 10.0563 628.056 9.32832 628.056 8.09632C628.056 6.55632 626.712 5.49232 624.878 5.49232C623.38 5.49232 622.316 6.22032 621.588 7.18632L622.316 7.84432C623.002 7.01832 623.758 6.48632 624.822 6.48632C626.026 6.48632 626.95 7.21432 626.95 8.22232C626.95 9.31432 625.984 9.93032 624.696 9.91632L623.66 9.90232V10.9103H624.682C626.194 10.9103 627.16 11.4843 627.16 12.6183C627.16 13.7103 626.264 14.4523 624.92 14.4523C623.744 14.4523 622.806 13.8923 622.176 13.0803L621.42 13.7943C622.12 14.7183 623.338 15.4463 624.92 15.4463ZM636.588 15.2783H637.68V6.69632H640.914V5.66032H633.354V6.69632H636.588V15.2783ZM645.588 15.4463C647.632 15.4463 649.312 13.7383 649.312 11.6523C649.312 9.56632 647.632 7.87232 645.588 7.87232C643.53 7.87232 641.85 9.56632 641.85 11.6523C641.85 13.7383 643.53 15.4463 645.588 15.4463ZM645.588 14.5083C644.132 14.5083 642.942 13.2203 642.942 11.6523C642.942 10.0843 644.132 8.81032 645.588 8.81032C647.03 8.81032 648.22 10.0843 648.22 11.6523C648.22 13.2203 647.03 14.5083 645.588 14.5083ZM654.228 15.4463C656.272 15.4463 657.952 13.7383 657.952 11.6523C657.952 9.56632 656.272 7.87232 654.228 7.87232C652.17 7.87232 650.49 9.56632 650.49 11.6523C650.49 13.7383 652.17 15.4463 654.228 15.4463ZM654.228 14.5083C652.772 14.5083 651.582 13.2203 651.582 11.6523C651.582 10.0843 652.772 8.81032 654.228 8.81032C655.67 8.81032 656.86 10.0843 656.86 11.6523C656.86 13.2203 655.67 14.5083 654.228 14.5083ZM659.761 15.2783H660.811V5.49232H659.761V15.2783ZM665.487 15.4463C666.985 15.4463 668.133 14.5923 668.133 13.2623C668.133 11.8903 666.929 11.4983 665.767 11.1343C664.423 10.7003 663.891 10.5043 663.891 9.87432C663.891 9.17432 664.563 8.81032 665.375 8.81032C666.019 8.81032 666.733 9.03432 667.461 9.49632L667.965 8.68432C667.195 8.18032 666.271 7.87232 665.375 7.87232C663.933 7.87232 662.841 8.68432 662.841 10.0003C662.841 11.0363 663.513 11.5543 665.263 12.0583C666.243 12.3383 667.083 12.5903 667.083 13.3743C667.083 14.0603 666.439 14.5083 665.487 14.5083C664.689 14.5083 663.863 14.2003 663.037 13.5983L662.491 14.3683C663.359 15.0683 664.479 15.4463 665.487 15.4463Z" fill="#0F0B47"/>
<rect x="587" y="0.27832" width="20" height="20" rx="10" fill="#991B7C"/>
<path d="M734.476 15.2783H741.112V14.2423H736.226L738.746 12.0583C740.37 10.6583 741.014 9.62232 741.014 8.32032C741.014 6.59832 739.614 5.49232 737.948 5.49232C736.436 5.49232 735.358 6.20632 734.56 7.34032L735.33 7.97032C735.988 7.07432 736.786 6.47232 737.906 6.47232C738.928 6.47232 739.908 7.15832 739.908 8.33432C739.908 9.28632 739.348 10.2103 737.99 11.3723L734.476 14.3683V15.2783ZM749.355 15.2783H750.447V6.69632H753.681V5.66032H746.121V6.69632H749.355V15.2783ZM758.355 15.4463C760.399 15.4463 762.079 13.7383 762.079 11.6523C762.079 9.56632 760.399 7.87232 758.355 7.87232C756.297 7.87232 754.617 9.56632 754.617 11.6523C754.617 13.7383 756.297 15.4463 758.355 15.4463ZM758.355 14.5083C756.899 14.5083 755.709 13.2203 755.709 11.6523C755.709 10.0843 756.899 8.81032 758.355 8.81032C759.797 8.81032 760.987 10.0843 760.987 11.6523C760.987 13.2203 759.797 14.5083 758.355 14.5083ZM766.996 15.4463C769.04 15.4463 770.72 13.7383 770.72 11.6523C770.72 9.56632 769.04 7.87232 766.996 7.87232C764.938 7.87232 763.258 9.56632 763.258 11.6523C763.258 13.7383 764.938 15.4463 766.996 15.4463ZM766.996 14.5083C765.54 14.5083 764.35 13.2203 764.35 11.6523C764.35 10.0843 765.54 8.81032 766.996 8.81032C768.438 8.81032 769.628 10.0843 769.628 11.6523C769.628 13.2203 768.438 14.5083 766.996 14.5083ZM772.529 15.2783H773.579V5.49232H772.529V15.2783ZM778.255 15.4463C779.753 15.4463 780.901 14.5923 780.901 13.2623C780.901 11.8903 779.697 11.4983 778.535 11.1343C777.191 10.7003 776.659 10.5043 776.659 9.87432C776.659 9.17432 777.331 8.81032 778.143 8.81032C778.787 8.81032 779.501 9.03432 780.229 9.49632L780.733 8.68432C779.963 8.18032 779.039 7.87232 778.143 7.87232C776.701 7.87232 775.609 8.68432 775.609 10.0003C775.609 11.0363 776.281 11.5543 778.031 12.0583C779.011 12.3383 779.851 12.5903 779.851 13.3743C779.851 14.0603 779.207 14.5083 778.255 14.5083C777.457 14.5083 776.631 14.2003 775.805 13.5983L775.259 14.3683C776.127 15.0683 777.247 15.4463 778.255 15.4463Z" fill="#0F0B47"/>
<rect x="700" y="0.27832" width="20" height="20" rx="10" fill="#D62293"/>
<path d="M849.436 15.2783H850.528V5.66032H849.646L847.28 7.27032L847.756 8.08232L849.436 6.99032V15.2783ZM859.443 15.2783H860.535V6.69632H863.769V5.66032H856.209V6.69632H859.443V15.2783ZM868.443 15.4463C870.487 15.4463 872.167 13.7383 872.167 11.6523C872.167 9.56632 870.487 7.87232 868.443 7.87232C866.385 7.87232 864.705 9.56632 864.705 11.6523C864.705 13.7383 866.385 15.4463 868.443 15.4463ZM868.443 14.5083C866.987 14.5083 865.797 13.2203 865.797 11.6523C865.797 10.0843 866.987 8.81032 868.443 8.81032C869.885 8.81032 871.075 10.0843 871.075 11.6523C871.075 13.2203 869.885 14.5083 868.443 14.5083ZM877.084 15.4463C879.128 15.4463 880.808 13.7383 880.808 11.6523C880.808 9.56632 879.128 7.87232 877.084 7.87232C875.026 7.87232 873.346 9.56632 873.346 11.6523C873.346 13.7383 875.026 15.4463 877.084 15.4463ZM877.084 14.5083C875.628 14.5083 874.438 13.2203 874.438 11.6523C874.438 10.0843 875.628 8.81032 877.084 8.81032C878.526 8.81032 879.716 10.0843 879.716 11.6523C879.716 13.2203 878.526 14.5083 877.084 14.5083ZM882.616 15.2783H883.666V5.49232H882.616V15.2783Z" fill="#0F0B47"/>
<rect x="813" y="0.27832" width="20" height="20" rx="10" fill="#E46BB7"/>
<path d="M954.844 15.4463C957.182 15.4463 958.834 13.3883 958.834 10.4623C958.834 7.55032 957.182 5.49232 954.844 5.49232C952.492 5.49232 950.84 7.55032 950.84 10.4623C950.84 13.3883 952.492 15.4463 954.844 15.4463ZM954.844 14.4383C953.15 14.4383 951.946 12.7863 951.946 10.4623C951.946 8.13832 953.15 6.50032 954.844 6.50032C956.538 6.50032 957.728 8.13832 957.728 10.4623C957.728 12.7863 956.538 14.4383 954.844 14.4383ZM967.119 15.2783H968.211V6.69632H971.445V5.66032H963.885V6.69632H967.119V15.2783ZM976.119 15.4463C978.163 15.4463 979.843 13.7383 979.843 11.6523C979.843 9.56632 978.163 7.87232 976.119 7.87232C974.061 7.87232 972.381 9.56632 972.381 11.6523C972.381 13.7383 974.061 15.4463 976.119 15.4463ZM976.119 14.5083C974.663 14.5083 973.473 13.2203 973.473 11.6523C973.473 10.0843 974.663 8.81032 976.119 8.81032C977.561 8.81032 978.751 10.0843 978.751 11.6523C978.751 13.2203 977.561 14.5083 976.119 14.5083ZM984.76 15.4463C986.804 15.4463 988.484 13.7383 988.484 11.6523C988.484 9.56632 986.804 7.87232 984.76 7.87232C982.702 7.87232 981.022 9.56632 981.022 11.6523C981.022 13.7383 982.702 15.4463 984.76 15.4463ZM984.76 14.5083C983.304 14.5083 982.114 13.2203 982.114 11.6523C982.114 10.0843 983.304 8.81032 984.76 8.81032C986.202 8.81032 987.392 10.0843 987.392 11.6523C987.392 13.2203 986.202 14.5083 984.76 14.5083ZM990.292 15.2783H991.342V5.49232H990.292V15.2783ZM996.019 15.4463C997.517 15.4463 998.665 14.5923 998.665 13.2623C998.665 11.8903 997.461 11.4983 996.299 11.1343C994.955 10.7003 994.423 10.5043 994.423 9.87432C994.423 9.17432 995.095 8.81032 995.907 8.81032C996.551 8.81032 997.265 9.03432 997.993 9.49632L998.497 8.68432C997.727 8.18032 996.803 7.87232 995.907 7.87232C994.465 7.87232 993.373 8.68432 993.373 10.0003C993.373 11.0363 994.045 11.5543 995.795 12.0583C996.775 12.3383 997.615 12.5903 997.615 13.3743C997.615 14.0603 996.971 14.5083 996.019 14.5083C995.221 14.5083 994.395 14.2003 993.569 13.5983L993.023 14.3683C993.891 15.0683 995.011 15.4463 996.019 15.4463Z" fill="#0F0B47"/>
<rect x="916" y="0.27832" width="20" height="20" rx="10" fill="#F1B5DB"/>
</svg>
