<svg width="329" height="430" viewBox="0 0 329 430" fill="none" xmlns="http://www.w3.org/2000/svg">
<rect x="71" y="327" width="15" height="70" transform="rotate(90 71 327)" fill="#5D1465"/>
<rect x="71" y="309" width="18" height="70" transform="rotate(90 71 309)" fill="#991B7C"/>
<rect x="71" y="273" width="36" height="70" transform="rotate(90 71 273)" fill="#D62293"/>
<rect x="71" y="216" width="57" height="70" transform="rotate(90 71 216)" fill="#E46BB7"/>
<rect x="71" y="62.9998" width="153" height="70" transform="rotate(90 71 62.9998)" fill="#F1B5DB"/>
<rect x="71" y="41.9998" width="21" height="70" transform="rotate(90 71 41.9998)" fill="#EBEBEB"/>
<path d="M9.786 291H11.844V281.382H10.192L7.308 283.314L8.148 284.77L9.786 283.748V291ZM13.5896 291H20.8556V289.138H16.7816L18.5316 287.78C20.2116 286.562 20.7716 285.568 20.7716 284.28C20.7716 282.474 19.2876 281.214 17.2436 281.214C15.6896 281.214 14.4716 281.886 13.5196 283.09L14.8356 284.364C15.5356 283.566 16.2496 283.09 17.1876 283.09C17.9716 283.09 18.6436 283.566 18.6436 284.364C18.6436 285.036 18.2796 285.666 17.1316 286.576L13.5896 289.32V291ZM24.7382 286.212C26.1522 286.212 27.1462 285.134 27.1462 283.748C27.1462 282.39 26.1942 281.284 24.7382 281.284C23.2962 281.284 22.3442 282.376 22.3442 283.762C22.3442 285.134 23.2962 286.212 24.7382 286.212ZM23.6042 291H25.2142L31.9062 281.382H30.2822L23.6042 291ZM24.7382 285.008C24.1642 285.008 23.7162 284.504 23.7162 283.748C23.7162 282.992 24.1362 282.502 24.7382 282.502C25.3262 282.502 25.7602 283.006 25.7602 283.748C25.7602 284.518 25.3262 285.008 24.7382 285.008ZM30.7442 291.154C32.1582 291.154 33.1382 290.076 33.1382 288.69C33.1382 287.332 32.2002 286.226 30.7442 286.226C29.3162 286.226 28.3362 287.318 28.3362 288.69C28.3362 290.062 29.3162 291.154 30.7442 291.154ZM30.7442 289.936C30.1562 289.936 29.7222 289.432 29.7222 288.69C29.7222 287.92 30.1422 287.43 30.7442 287.43C31.3182 287.43 31.7662 287.934 31.7662 288.69C31.7662 289.446 31.3462 289.936 30.7442 289.936Z" fill="white"/>
<path d="M10.73 317.56C10.08 317.56 9.45 317.81 9.03 318.22C9.16 317.06 9.76 316.31 10.66 316.31C11.24 316.31 11.64 316.52 12.06 316.87L12.76 315.75C12.2 315.3 11.51 315.01 10.66 315.01C8.75 315.01 7.5 316.54 7.5 318.68C7.5 320.68 8.42 322.12 10.42 322.12C11.92 322.12 13.05 321.15 13.05 319.74C13.05 318.38 12 317.56 10.73 317.56ZM10.34 320.87C9.57 320.87 9.2 320.4 9.07 319.56C9.28 319.07 9.74 318.76 10.3 318.76C10.97 318.76 11.53 319.15 11.53 319.81C11.53 320.36 11.07 320.87 10.34 320.87ZM15.7248 318.58C16.7348 318.58 17.4448 317.81 17.4448 316.82C17.4448 315.85 16.7648 315.06 15.7248 315.06C14.6948 315.06 14.0148 315.84 14.0148 316.83C14.0148 317.81 14.6948 318.58 15.7248 318.58ZM14.9148 322H16.0648L20.8448 315.13H19.6848L14.9148 322ZM15.7248 317.72C15.3148 317.72 14.9948 317.36 14.9948 316.82C14.9948 316.28 15.2948 315.93 15.7248 315.93C16.1448 315.93 16.4548 316.29 16.4548 316.82C16.4548 317.37 16.1448 317.72 15.7248 317.72ZM20.0148 322.11C21.0248 322.11 21.7248 321.34 21.7248 320.35C21.7248 319.38 21.0548 318.59 20.0148 318.59C18.9948 318.59 18.2948 319.37 18.2948 320.35C18.2948 321.33 18.9948 322.11 20.0148 322.11ZM20.0148 321.24C19.5948 321.24 19.2848 320.88 19.2848 320.35C19.2848 319.8 19.5848 319.45 20.0148 319.45C20.4248 319.45 20.7448 319.81 20.7448 320.35C20.7448 320.89 20.4448 321.24 20.0148 321.24Z" fill="white"/>
<path d="M10.05 338.13C11.69 338.13 12.78 337.2 12.78 335.74C12.78 334.34 11.73 333.56 10.51 333.56C9.95 333.56 9.51 333.74 9.17 333.98L9.21 332.46H12.41V331.13H7.85L7.75 334.84L8.74 335.24C9.11 334.96 9.55 334.79 10.07 334.79C10.82 334.79 11.31 335.19 11.31 335.79C11.31 336.38 10.84 336.84 10.06 336.84C9.4 336.84 8.78 336.52 8.26 336.03L7.39 337.07C8.03 337.71 8.9 338.13 10.05 338.13ZM15.4807 334.58C16.4907 334.58 17.2007 333.81 17.2007 332.82C17.2007 331.85 16.5207 331.06 15.4807 331.06C14.4507 331.06 13.7707 331.84 13.7707 332.83C13.7707 333.81 14.4507 334.58 15.4807 334.58ZM14.6707 338H15.8207L20.6007 331.13H19.4407L14.6707 338ZM15.4807 333.72C15.0707 333.72 14.7507 333.36 14.7507 332.82C14.7507 332.28 15.0507 331.93 15.4807 331.93C15.9007 331.93 16.2107 332.29 16.2107 332.82C16.2107 333.37 15.9007 333.72 15.4807 333.72ZM19.7707 338.11C20.7807 338.11 21.4807 337.34 21.4807 336.35C21.4807 335.38 20.8107 334.59 19.7707 334.59C18.7507 334.59 18.0507 335.37 18.0507 336.35C18.0507 337.33 18.7507 338.11 19.7707 338.11ZM19.7707 337.24C19.3507 337.24 19.0407 336.88 19.0407 336.35C19.0407 335.8 19.3407 335.45 19.7707 335.45C20.1807 335.45 20.5007 335.81 20.5007 336.35C20.5007 336.89 20.2007 337.24 19.7707 337.24Z" fill="white"/>
<path d="M9.786 234H11.844V224.382H10.192L7.308 226.314L8.148 227.77L9.786 226.748V234ZM17.2716 224.214C15.1716 224.214 13.5896 225.572 13.5896 227.546C13.5896 229.45 15.0596 230.598 16.8376 230.598C17.7476 230.598 18.6296 230.248 19.2176 229.674C19.0356 231.298 18.1956 232.348 16.9356 232.348C16.1236 232.348 15.5636 232.054 14.9756 231.564L13.9956 233.132C14.7796 233.762 15.7456 234.168 16.9356 234.168C19.6096 234.168 21.3596 232.026 21.3596 229.03C21.3596 226.23 20.0716 224.214 17.2716 224.214ZM17.4396 228.918C16.5016 228.918 15.7176 228.372 15.7176 227.448C15.7176 226.678 16.3616 225.964 17.3836 225.964C18.4616 225.964 18.9796 226.622 19.1616 227.798C18.8676 228.484 18.2236 228.918 17.4396 228.918ZM25.2304 229.212C26.6444 229.212 27.6384 228.134 27.6384 226.748C27.6384 225.39 26.6864 224.284 25.2304 224.284C23.7884 224.284 22.8364 225.376 22.8364 226.762C22.8364 228.134 23.7884 229.212 25.2304 229.212ZM24.0964 234H25.7064L32.3984 224.382H30.7744L24.0964 234ZM25.2304 228.008C24.6564 228.008 24.2084 227.504 24.2084 226.748C24.2084 225.992 24.6284 225.502 25.2304 225.502C25.8184 225.502 26.2524 226.006 26.2524 226.748C26.2524 227.518 25.8184 228.008 25.2304 228.008ZM31.2364 234.154C32.6504 234.154 33.6304 233.076 33.6304 231.69C33.6304 230.332 32.6924 229.226 31.2364 229.226C29.8084 229.226 28.8284 230.318 28.8284 231.69C28.8284 233.062 29.8084 234.154 31.2364 234.154ZM31.2364 232.936C30.6484 232.936 30.2144 232.432 30.2144 231.69C30.2144 230.92 30.6344 230.43 31.2364 230.43C31.8104 230.43 32.2584 230.934 32.2584 231.69C32.2584 232.446 31.8384 232.936 31.2364 232.936Z" fill="white"/>
<path d="M11.27 81.1818C13.566 81.1818 15.092 79.8798 15.092 77.8358C15.092 75.8758 13.622 74.7838 11.914 74.7838C11.13 74.7838 10.514 75.0358 10.038 75.3718L10.094 73.2438H14.574V71.3818H8.19L8.05 76.5758L9.436 77.1358C9.954 76.7438 10.57 76.5058 11.298 76.5058C12.348 76.5058 13.034 77.0658 13.034 77.9058C13.034 78.7318 12.376 79.3758 11.284 79.3758C10.36 79.3758 9.492 78.9278 8.764 78.2418L7.546 79.6978C8.442 80.5938 9.66 81.1818 11.27 81.1818ZM18.495 80.9998H20.553V71.3818H18.901L16.017 73.3138L16.857 74.7698L18.495 73.7478V80.9998ZM24.8886 76.2118C26.3026 76.2118 27.2966 75.1338 27.2966 73.7478C27.2966 72.3898 26.3446 71.2838 24.8886 71.2838C23.4466 71.2838 22.4946 72.3758 22.4946 73.7618C22.4946 75.1338 23.4466 76.2118 24.8886 76.2118ZM23.7546 80.9998H25.3646L32.0566 71.3818H30.4326L23.7546 80.9998ZM24.8886 75.0078C24.3146 75.0078 23.8666 74.5038 23.8666 73.7478C23.8666 72.9918 24.2866 72.5018 24.8886 72.5018C25.4766 72.5018 25.9106 73.0058 25.9106 73.7478C25.9106 74.5178 25.4766 75.0078 24.8886 75.0078ZM30.8946 81.1538C32.3086 81.1538 33.2886 80.0758 33.2886 78.6898C33.2886 77.3318 32.3506 76.2258 30.8946 76.2258C29.4666 76.2258 28.4866 77.3178 28.4866 78.6898C28.4866 80.0618 29.4666 81.1538 30.8946 81.1538ZM30.8946 79.9358C30.3066 79.9358 29.8726 79.4318 29.8726 78.6898C29.8726 77.9198 30.2926 77.4298 30.8946 77.4298C31.4686 77.4298 31.9166 77.9338 31.9166 78.6898C31.9166 79.4458 31.4966 79.9358 30.8946 79.9358Z" fill="#0F0B47"/>
<path d="M7.96 55.9998H9.62L12.4 50.2398V49.1298H7.29V50.4598H10.69L7.96 55.9998ZM14.9729 52.5798C15.9829 52.5798 16.6929 51.8098 16.6929 50.8198C16.6929 49.8498 16.0129 49.0598 14.9729 49.0598C13.9429 49.0598 13.2629 49.8398 13.2629 50.8298C13.2629 51.8098 13.9429 52.5798 14.9729 52.5798ZM14.1629 55.9998H15.3129L20.0929 49.1298H18.9329L14.1629 55.9998ZM14.9729 51.7198C14.5629 51.7198 14.2429 51.3598 14.2429 50.8198C14.2429 50.2798 14.5429 49.9298 14.9729 49.9298C15.3929 49.9298 15.7029 50.2898 15.7029 50.8198C15.7029 51.3698 15.3929 51.7198 14.9729 51.7198ZM19.2629 56.1098C20.2729 56.1098 20.9729 55.3398 20.9729 54.3498C20.9729 53.3798 20.3029 52.5898 19.2629 52.5898C18.2429 52.5898 17.5429 53.3698 17.5429 54.3498C17.5429 55.3298 18.2429 56.1098 19.2629 56.1098ZM19.2629 55.2398C18.8429 55.2398 18.5329 54.8798 18.5329 54.3498C18.5329 53.7998 18.8329 53.4498 19.2629 53.4498C19.6729 53.4498 19.9929 53.8098 19.9929 54.3498C19.9929 54.8898 19.6929 55.2398 19.2629 55.2398Z" fill="#0F0B47"/>
<path d="M2.99 9H4.46V2.13H3.28L1.22 3.51L1.82 4.55L2.99 3.82V9ZM5.99688 6.87H8.73688V5.63H5.99688V6.87ZM12.4875 9.13C14.1275 9.13 15.2175 8.2 15.2175 6.74C15.2175 5.34 14.1675 4.56 12.9475 4.56C12.3875 4.56 11.9475 4.74 11.6075 4.98L11.6475 3.46H14.8475V2.13H10.2875L10.1875 5.84L11.1775 6.24C11.5475 5.96 11.9875 5.79 12.5075 5.79C13.2575 5.79 13.7475 6.19 13.7475 6.79C13.7475 7.38 13.2775 7.84 12.4975 7.84C11.8375 7.84 11.2175 7.52 10.6975 7.03L9.8275 8.07C10.4675 8.71 11.3375 9.13 12.4875 9.13ZM5.12 22.12C6.16 22.12 7.11 21.67 7.78 20.97L6.71 20.01C6.32 20.47 5.75 20.78 5.12 20.78C3.96 20.78 2.98 19.76 2.98 18.56C2.98 17.37 3.96 16.35 5.12 16.35C5.74 16.35 6.32 16.66 6.71 17.12L7.78 16.16C7.11 15.45 6.16 15.01 5.12 15.01C3.14 15.01 1.46 16.63 1.46 18.56C1.46 20.49 3.14 22.12 5.12 22.12ZM10.4496 20.67V15.13H8.96961V22H13.8696V20.67H10.4496ZM18.0234 22.12C19.8434 22.12 21.1334 20.84 21.1334 19.03V15.13H19.6534V18.97C19.6534 20.03 18.9734 20.78 18.0234 20.78C17.0634 20.78 16.3834 20.03 16.3834 18.97V15.13H14.9134V19.03C14.9134 20.84 16.1934 22.12 18.0234 22.12ZM25.2596 22.12C26.9296 22.12 27.9296 21.25 27.9296 19.94C27.9296 18.67 26.9496 18.23 25.4696 17.9C24.4096 17.66 23.9896 17.5 23.9896 17C23.9896 16.59 24.3796 16.26 24.9996 16.26C25.6596 16.26 26.3496 16.53 26.9696 17.03L27.7396 15.96C27.0296 15.36 26.1696 15.01 25.0496 15.01C23.5396 15.01 22.4996 15.88 22.4996 17.15C22.4996 18.48 23.5396 18.89 24.9896 19.22C26.0396 19.46 26.4396 19.61 26.4396 20.1C26.4396 20.53 26.0596 20.87 25.3096 20.87C24.4396 20.87 23.6996 20.53 23.0496 19.97L22.2096 20.98C23.0096 21.72 24.0596 22.12 25.2596 22.12ZM30.833 22H32.303V16.46H34.453V15.13H28.693V16.46H30.833V22ZM40.9198 16.46V15.13H35.6298V22H40.9198V20.67H37.1098V19.16H40.5698V17.83H37.1098V16.46H40.9198ZM48.0285 17.45C48.0285 16.09 46.9385 15.13 45.4385 15.13H42.3485V22H43.8285V19.77H44.7185L46.2885 22H47.9685L46.3185 19.65C47.3485 19.35 48.0285 18.53 48.0285 17.45ZM43.8285 16.48H45.2885C46.0185 16.48 46.5185 16.86 46.5185 17.45C46.5185 18.04 46.0185 18.42 45.2885 18.42H43.8285V16.48ZM51.9295 22.12C53.5995 22.12 54.5995 21.25 54.5995 19.94C54.5995 18.67 53.6195 18.23 52.1395 17.9C51.0795 17.66 50.6595 17.5 50.6595 17C50.6595 16.59 51.0495 16.26 51.6695 16.26C52.3295 16.26 53.0195 16.53 53.6395 17.03L54.4095 15.96C53.6995 15.36 52.8395 15.01 51.7195 15.01C50.2095 15.01 49.1695 15.88 49.1695 17.15C49.1695 18.48 50.2095 18.89 51.6595 19.22C52.7095 19.46 53.1095 19.61 53.1095 20.1C53.1095 20.53 52.7295 20.87 51.9795 20.87C51.1095 20.87 50.3695 20.53 49.7195 19.97L48.8795 20.98C49.6795 21.72 50.7295 22.12 51.9295 22.12Z" fill="#0F0B47"/>
<rect x="198" y="315" width="27" height="70" transform="rotate(90 198 315)" fill="#5D1465"/>
<rect x="198" y="252" width="63" height="70" transform="rotate(90 198 252)" fill="#991B7C"/>
<rect x="198" y="177" width="75" height="70" transform="rotate(90 198 177)" fill="#D62293"/>
<rect x="198" y="129" width="48" height="70" transform="rotate(90 198 129)" fill="#E46BB7"/>
<rect x="198" y="62.9998" width="66" height="70" transform="rotate(90 198 62.9998)" fill="#F1B5DB"/>
<rect x="198" y="41.9998" width="21" height="70" transform="rotate(90 198 41.9998)" fill="#EBEBEB"/>
<path d="M134.574 196H141.84V194.138H137.766L139.516 192.78C141.196 191.562 141.756 190.568 141.756 189.28C141.756 187.474 140.272 186.214 138.228 186.214C136.674 186.214 135.456 186.886 134.504 188.09L135.82 189.364C136.52 188.566 137.234 188.09 138.172 188.09C138.956 188.09 139.628 188.566 139.628 189.364C139.628 190.036 139.264 190.666 138.116 191.576L134.574 194.32V196ZM146.829 196.182C149.125 196.182 150.651 194.88 150.651 192.836C150.651 190.876 149.181 189.784 147.473 189.784C146.689 189.784 146.073 190.036 145.597 190.372L145.653 188.244H150.133V186.382H143.749L143.609 191.576L144.995 192.136C145.513 191.744 146.129 191.506 146.857 191.506C147.907 191.506 148.593 192.066 148.593 192.906C148.593 193.732 147.935 194.376 146.843 194.376C145.919 194.376 145.051 193.928 144.323 193.242L143.105 194.698C144.001 195.594 145.219 196.182 146.829 196.182ZM154.432 191.212C155.846 191.212 156.84 190.134 156.84 188.748C156.84 187.39 155.888 186.284 154.432 186.284C152.99 186.284 152.038 187.376 152.038 188.762C152.038 190.134 152.99 191.212 154.432 191.212ZM153.298 196H154.908L161.6 186.382H159.976L153.298 196ZM154.432 190.008C153.858 190.008 153.41 189.504 153.41 188.748C153.41 187.992 153.83 187.502 154.432 187.502C155.02 187.502 155.454 188.006 155.454 188.748C155.454 189.518 155.02 190.008 154.432 190.008ZM160.438 196.154C161.852 196.154 162.832 195.076 162.832 193.69C162.832 192.332 161.894 191.226 160.438 191.226C159.01 191.226 158.03 192.318 158.03 193.69C158.03 195.062 159.01 196.154 160.438 196.154ZM160.438 194.936C159.85 194.936 159.416 194.432 159.416 193.69C159.416 192.92 159.836 192.43 160.438 192.43C161.012 192.43 161.46 192.934 161.46 193.69C161.46 194.446 161.04 194.936 160.438 194.936Z" fill="white"/>
<path d="M134.574 271H141.84V269.138H137.766L139.516 267.78C141.196 266.562 141.756 265.568 141.756 264.28C141.756 262.474 140.272 261.214 138.228 261.214C136.674 261.214 135.456 261.886 134.504 263.09L135.82 264.364C136.52 263.566 137.234 263.09 138.172 263.09C138.956 263.09 139.628 263.566 139.628 264.364C139.628 265.036 139.264 265.666 138.116 266.576L134.574 269.32V271ZM145.345 271H147.403V261.382H145.751L142.867 263.314L143.707 264.77L145.345 263.748V271ZM151.738 266.212C153.152 266.212 154.146 265.134 154.146 263.748C154.146 262.39 153.194 261.284 151.738 261.284C150.296 261.284 149.344 262.376 149.344 263.762C149.344 265.134 150.296 266.212 151.738 266.212ZM150.604 271H152.214L158.906 261.382H157.282L150.604 271ZM151.738 265.008C151.164 265.008 150.716 264.504 150.716 263.748C150.716 262.992 151.136 262.502 151.738 262.502C152.326 262.502 152.76 263.006 152.76 263.748C152.76 264.518 152.326 265.008 151.738 265.008ZM157.744 271.154C159.158 271.154 160.138 270.076 160.138 268.69C160.138 267.332 159.2 266.226 157.744 266.226C156.316 266.226 155.336 267.318 155.336 268.69C155.336 270.062 156.316 271.154 157.744 271.154ZM157.744 269.936C157.156 269.936 156.722 269.432 156.722 268.69C156.722 267.92 157.142 267.43 157.744 267.43C158.318 267.43 158.766 267.934 158.766 268.69C158.766 269.446 158.346 269.936 157.744 269.936Z" fill="white"/>
<path d="M138.256 324.214C136.156 324.214 134.574 325.572 134.574 327.546C134.574 329.45 136.044 330.598 137.822 330.598C138.732 330.598 139.614 330.248 140.202 329.674C140.02 331.298 139.18 332.348 137.92 332.348C137.108 332.348 136.548 332.054 135.96 331.564L134.98 333.132C135.764 333.762 136.73 334.168 137.92 334.168C140.594 334.168 142.344 332.026 142.344 329.03C142.344 326.23 141.056 324.214 138.256 324.214ZM138.424 328.918C137.486 328.918 136.702 328.372 136.702 327.448C136.702 326.678 137.346 325.964 138.368 325.964C139.446 325.964 139.964 326.622 140.146 327.798C139.852 328.484 139.208 328.918 138.424 328.918ZM146.215 329.212C147.629 329.212 148.623 328.134 148.623 326.748C148.623 325.39 147.671 324.284 146.215 324.284C144.773 324.284 143.821 325.376 143.821 326.762C143.821 328.134 144.773 329.212 146.215 329.212ZM145.081 334H146.691L153.383 324.382H151.759L145.081 334ZM146.215 328.008C145.641 328.008 145.193 327.504 145.193 326.748C145.193 325.992 145.613 325.502 146.215 325.502C146.803 325.502 147.237 326.006 147.237 326.748C147.237 327.518 146.803 328.008 146.215 328.008ZM152.221 334.154C153.635 334.154 154.615 333.076 154.615 331.69C154.615 330.332 153.677 329.226 152.221 329.226C150.793 329.226 149.813 330.318 149.813 331.69C149.813 333.062 150.793 334.154 152.221 334.154ZM152.221 332.936C151.633 332.936 151.199 332.432 151.199 331.69C151.199 330.92 151.619 330.43 152.221 330.43C152.795 330.43 153.243 330.934 153.243 331.69C153.243 332.446 152.823 332.936 152.221 332.936Z" fill="white"/>
<path d="M136.786 149H138.844V139.382H137.192L134.308 141.314L135.148 142.77L136.786 141.748V149ZM145.238 142.784C144.328 142.784 143.446 143.134 142.858 143.708C143.04 142.084 143.88 141.034 145.14 141.034C145.952 141.034 146.512 141.328 147.1 141.818L148.08 140.25C147.296 139.62 146.33 139.214 145.14 139.214C142.466 139.214 140.716 141.356 140.716 144.352C140.716 147.152 142.004 149.168 144.804 149.168C146.904 149.168 148.486 147.81 148.486 145.836C148.486 143.932 147.016 142.784 145.238 142.784ZM144.692 147.418C143.614 147.418 143.096 146.76 142.914 145.584C143.208 144.898 143.852 144.464 144.636 144.464C145.574 144.464 146.358 145.01 146.358 145.934C146.358 146.704 145.714 147.418 144.692 147.418ZM152.23 144.212C153.644 144.212 154.638 143.134 154.638 141.748C154.638 140.39 153.686 139.284 152.23 139.284C150.788 139.284 149.836 140.376 149.836 141.762C149.836 143.134 150.788 144.212 152.23 144.212ZM151.096 149H152.706L159.398 139.382H157.774L151.096 149ZM152.23 143.008C151.656 143.008 151.208 142.504 151.208 141.748C151.208 140.992 151.628 140.502 152.23 140.502C152.818 140.502 153.252 141.006 153.252 141.748C153.252 142.518 152.818 143.008 152.23 143.008ZM158.236 149.154C159.65 149.154 160.63 148.076 160.63 146.69C160.63 145.332 159.692 144.226 158.236 144.226C156.808 144.226 155.828 145.318 155.828 146.69C155.828 148.062 156.808 149.154 158.236 149.154ZM158.236 147.936C157.648 147.936 157.214 147.432 157.214 146.69C157.214 145.92 157.634 145.43 158.236 145.43C158.81 145.43 159.258 145.934 159.258 146.69C159.258 147.446 158.838 147.936 158.236 147.936Z" fill="white"/>
<path d="M134.574 80.2681H141.84V78.4061H137.766L139.516 77.0481C141.196 75.8301 141.756 74.8361 141.756 73.5481C141.756 71.7421 140.272 70.4821 138.228 70.4821C136.674 70.4821 135.456 71.1541 134.504 72.3581L135.82 73.6321C136.52 72.8341 137.234 72.3581 138.172 72.3581C138.956 72.3581 139.628 72.8341 139.628 73.6321C139.628 74.3041 139.264 74.9341 138.116 75.8441L134.574 78.5881V80.2681ZM146.801 80.4501C149.055 80.4501 150.511 79.2461 150.511 77.5801C150.511 76.3061 149.545 75.5641 148.495 75.3261C149.559 75.0181 150.301 74.2201 150.301 73.1141C150.301 71.5881 148.943 70.4821 146.787 70.4821C145.079 70.4821 143.931 71.2241 143.133 72.1901L144.323 73.4501C144.967 72.7781 145.681 72.3301 146.577 72.3301C147.529 72.3301 148.201 72.7781 148.201 73.4781C148.201 74.1641 147.571 74.5561 146.521 74.5561L145.415 74.5421V76.3061H146.521C147.809 76.2921 148.397 76.6701 148.397 77.4121C148.397 78.0981 147.767 78.5881 146.717 78.5881C145.751 78.5881 144.841 78.1821 144.155 77.4541L142.937 78.8261C143.749 79.7641 145.079 80.4501 146.801 80.4501ZM154.363 75.4801C155.777 75.4801 156.771 74.4021 156.771 73.0161C156.771 71.6581 155.819 70.5521 154.363 70.5521C152.921 70.5521 151.969 71.6441 151.969 73.0301C151.969 74.4021 152.921 75.4801 154.363 75.4801ZM153.229 80.2681H154.839L161.531 70.6501H159.907L153.229 80.2681ZM154.363 74.2761C153.789 74.2761 153.341 73.7721 153.341 73.0161C153.341 72.2601 153.761 71.7701 154.363 71.7701C154.951 71.7701 155.385 72.2741 155.385 73.0161C155.385 73.7861 154.951 74.2761 154.363 74.2761ZM160.369 80.4221C161.783 80.4221 162.763 79.3441 162.763 77.9581C162.763 76.6001 161.825 75.4941 160.369 75.4941C158.941 75.4941 157.961 76.5861 157.961 77.9581C157.961 79.3301 158.941 80.4221 160.369 80.4221ZM160.369 79.2041C159.781 79.2041 159.347 78.7001 159.347 77.9581C159.347 77.1881 159.767 76.6981 160.369 76.6981C160.943 76.6981 161.391 77.2021 161.391 77.9581C161.391 78.7141 160.971 79.2041 160.369 79.2041Z" fill="#0F0B47"/>
<path d="M137.73 51.2477C137.08 51.2477 136.45 51.4977 136.03 51.9077C136.16 50.7477 136.76 49.9977 137.66 49.9977C138.24 49.9977 138.64 50.2077 139.06 50.5577L139.76 49.4377C139.2 48.9877 138.51 48.6977 137.66 48.6977C135.75 48.6977 134.5 50.2277 134.5 52.3677C134.5 54.3677 135.42 55.8077 137.42 55.8077C138.92 55.8077 140.05 54.8377 140.05 53.4277C140.05 52.0677 139 51.2477 137.73 51.2477ZM137.34 54.5577C136.57 54.5577 136.2 54.0877 136.07 53.2477C136.28 52.7577 136.74 52.4477 137.3 52.4477C137.97 52.4477 138.53 52.8377 138.53 53.4977C138.53 54.0477 138.07 54.5577 137.34 54.5577ZM142.725 52.2677C143.735 52.2677 144.445 51.4977 144.445 50.5077C144.445 49.5377 143.765 48.7477 142.725 48.7477C141.695 48.7477 141.015 49.5277 141.015 50.5177C141.015 51.4977 141.695 52.2677 142.725 52.2677ZM141.915 55.6877H143.065L147.845 48.8177H146.685L141.915 55.6877ZM142.725 51.4077C142.315 51.4077 141.995 51.0477 141.995 50.5077C141.995 49.9677 142.295 49.6177 142.725 49.6177C143.145 49.6177 143.455 49.9777 143.455 50.5077C143.455 51.0577 143.145 51.4077 142.725 51.4077ZM147.015 55.7977C148.025 55.7977 148.725 55.0277 148.725 54.0377C148.725 53.0677 148.055 52.2777 147.015 52.2777C145.995 52.2777 145.295 53.0577 145.295 54.0377C145.295 55.0177 145.995 55.7977 147.015 55.7977ZM147.015 54.9277C146.595 54.9277 146.285 54.5677 146.285 54.0377C146.285 53.4877 146.585 53.1377 147.015 53.1377C147.425 53.1377 147.745 53.4977 147.745 54.0377C147.745 54.5777 147.445 54.9277 147.015 54.9277Z" fill="#0F0B47"/>
<path d="M131.73 4.56C131.08 4.56 130.45 4.81 130.03 5.22C130.16 4.06 130.76 3.31 131.66 3.31C132.24 3.31 132.64 3.52 133.06 3.87L133.76 2.75C133.2 2.3 132.51 2.01 131.66 2.01C129.75 2.01 128.5 3.54 128.5 5.68C128.5 7.68 129.42 9.12 131.42 9.12C132.92 9.12 134.05 8.15 134.05 6.74C134.05 5.38 133 4.56 131.73 4.56ZM131.34 7.87C130.57 7.87 130.2 7.4 130.07 6.56C130.28 6.07 130.74 5.76 131.3 5.76C131.97 5.76 132.53 6.15 132.53 6.81C132.53 7.36 132.07 7.87 131.34 7.87ZM135.165 6.87H137.905V5.63H135.165V6.87ZM139.015 9H144.205V7.67H141.295L142.545 6.7C143.745 5.83 144.145 5.12 144.145 4.2C144.145 2.91 143.085 2.01 141.625 2.01C140.515 2.01 139.645 2.49 138.965 3.35L139.905 4.26C140.405 3.69 140.915 3.35 141.585 3.35C142.145 3.35 142.625 3.69 142.625 4.26C142.625 4.74 142.365 5.19 141.545 5.84L139.015 7.8V9ZM148.289 9.12C150.099 9.12 151.369 7.65 151.369 5.56C151.369 3.48 150.099 2.01 148.289 2.01C146.479 2.01 145.199 3.48 145.199 5.56C145.199 7.65 146.479 9.12 148.289 9.12ZM148.289 7.78C147.369 7.78 146.719 6.85 146.719 5.56C146.719 4.27 147.369 3.35 148.289 3.35C149.209 3.35 149.859 4.27 149.859 5.56C149.859 6.85 149.209 7.78 148.289 7.78ZM132.12 22.12C133.16 22.12 134.11 21.67 134.78 20.97L133.71 20.01C133.32 20.47 132.75 20.78 132.12 20.78C130.96 20.78 129.98 19.76 129.98 18.56C129.98 17.37 130.96 16.35 132.12 16.35C132.74 16.35 133.32 16.66 133.71 17.12L134.78 16.16C134.11 15.45 133.16 15.01 132.12 15.01C130.14 15.01 128.46 16.63 128.46 18.56C128.46 20.49 130.14 22.12 132.12 22.12ZM137.45 20.67V15.13H135.97V22H140.87V20.67H137.45ZM145.023 22.12C146.843 22.12 148.133 20.84 148.133 19.03V15.13H146.653V18.97C146.653 20.03 145.973 20.78 145.023 20.78C144.063 20.78 143.383 20.03 143.383 18.97V15.13H141.913V19.03C141.913 20.84 143.193 22.12 145.023 22.12ZM152.26 22.12C153.93 22.12 154.93 21.25 154.93 19.94C154.93 18.67 153.95 18.23 152.47 17.9C151.41 17.66 150.99 17.5 150.99 17C150.99 16.59 151.38 16.26 152 16.26C152.66 16.26 153.35 16.53 153.97 17.03L154.74 15.96C154.03 15.36 153.17 15.01 152.05 15.01C150.54 15.01 149.5 15.88 149.5 17.15C149.5 18.48 150.54 18.89 151.99 19.22C153.04 19.46 153.44 19.61 153.44 20.1C153.44 20.53 153.06 20.87 152.31 20.87C151.44 20.87 150.7 20.53 150.05 19.97L149.21 20.98C150.01 21.72 151.06 22.12 152.26 22.12ZM157.833 22H159.303V16.46H161.453V15.13H155.693V16.46H157.833V22ZM167.92 16.46V15.13H162.63V22H167.92V20.67H164.11V19.16H167.57V17.83H164.11V16.46H167.92ZM175.029 17.45C175.029 16.09 173.939 15.13 172.439 15.13H169.349V22H170.829V19.77H171.719L173.289 22H174.969L173.319 19.65C174.349 19.35 175.029 18.53 175.029 17.45ZM170.829 16.48H172.289C173.019 16.48 173.519 16.86 173.519 17.45C173.519 18.04 173.019 18.42 172.289 18.42H170.829V16.48ZM178.93 22.12C180.6 22.12 181.6 21.25 181.6 19.94C181.6 18.67 180.62 18.23 179.14 17.9C178.08 17.66 177.66 17.5 177.66 17C177.66 16.59 178.05 16.26 178.67 16.26C179.33 16.26 180.02 16.53 180.64 17.03L181.41 15.96C180.7 15.36 179.84 15.01 178.72 15.01C177.21 15.01 176.17 15.88 176.17 17.15C176.17 18.48 177.21 18.89 178.66 19.22C179.71 19.46 180.11 19.61 180.11 20.1C180.11 20.53 179.73 20.87 178.98 20.87C178.11 20.87 177.37 20.53 176.72 19.97L175.88 20.98C176.68 21.72 177.73 22.12 178.93 22.12Z" fill="#0F0B47"/>
<rect x="328" y="273" width="69" height="70" transform="rotate(90 328 273)" fill="#5D1465"/>
<rect x="328" y="225" width="48" height="70" transform="rotate(90 328 225)" fill="#991B7C"/>
<rect x="328" y="183" width="42" height="70" transform="rotate(90 328 183)" fill="#D62293"/>
<rect x="328" y="153" width="30" height="70" transform="rotate(90 328 153)" fill="#E46BB7"/>
<rect x="328" y="86.9998" width="66" height="70" transform="rotate(90 328 86.9998)" fill="#F1B5DB"/>
<rect x="328" y="41.9998" width="45" height="70" transform="rotate(90 328 41.9998)" fill="#EBEBEB"/>
<path d="M266.786 201.663H268.844V192.045H267.192L264.308 193.977L265.148 195.433L266.786 194.411V201.663ZM275.322 201.663H277.38V199.703H278.654V197.967H277.38V192.059H274.888L270.422 198.107L270.618 199.703H275.322V201.663ZM272.592 197.967L275.322 194.243V197.967H272.592ZM282.271 196.875C283.685 196.875 284.679 195.797 284.679 194.411C284.679 193.053 283.727 191.947 282.271 191.947C280.829 191.947 279.877 193.039 279.877 194.425C279.877 195.797 280.829 196.875 282.271 196.875ZM281.137 201.663H282.747L289.439 192.045H287.815L281.137 201.663ZM282.271 195.671C281.697 195.671 281.249 195.167 281.249 194.411C281.249 193.655 281.669 193.165 282.271 193.165C282.859 193.165 283.293 193.669 283.293 194.411C283.293 195.181 282.859 195.671 282.271 195.671ZM288.277 201.817C289.691 201.817 290.671 200.739 290.671 199.353C290.671 197.995 289.733 196.889 288.277 196.889C286.849 196.889 285.869 197.981 285.869 199.353C285.869 200.725 286.849 201.817 288.277 201.817ZM288.277 200.599C287.689 200.599 287.255 200.095 287.255 199.353C287.255 198.583 287.675 198.093 288.277 198.093C288.851 198.093 289.299 198.597 289.299 199.353C289.299 200.109 288.879 200.599 288.277 200.599Z" fill="white"/>
<path d="M266.786 244.515H268.844V234.897H267.192L264.308 236.829L265.148 238.285L266.786 237.263V244.515ZM275.238 238.299C274.328 238.299 273.446 238.649 272.858 239.223C273.04 237.599 273.88 236.549 275.14 236.549C275.952 236.549 276.512 236.843 277.1 237.333L278.08 235.765C277.296 235.135 276.33 234.729 275.14 234.729C272.466 234.729 270.716 236.871 270.716 239.867C270.716 242.667 272.004 244.683 274.804 244.683C276.904 244.683 278.486 243.325 278.486 241.351C278.486 239.447 277.016 238.299 275.238 238.299ZM274.692 242.933C273.614 242.933 273.096 242.275 272.914 241.099C273.208 240.413 273.852 239.979 274.636 239.979C275.574 239.979 276.358 240.525 276.358 241.449C276.358 242.219 275.714 242.933 274.692 242.933ZM282.23 239.727C283.644 239.727 284.638 238.649 284.638 237.263C284.638 235.905 283.686 234.799 282.23 234.799C280.788 234.799 279.836 235.891 279.836 237.277C279.836 238.649 280.788 239.727 282.23 239.727ZM281.096 244.515H282.706L289.398 234.897H287.774L281.096 244.515ZM282.23 238.523C281.656 238.523 281.208 238.019 281.208 237.263C281.208 236.507 281.628 236.017 282.23 236.017C282.818 236.017 283.252 236.521 283.252 237.263C283.252 238.033 282.818 238.523 282.23 238.523ZM288.236 244.669C289.65 244.669 290.63 243.591 290.63 242.205C290.63 240.847 289.692 239.741 288.236 239.741C286.808 239.741 285.828 240.833 285.828 242.205C285.828 243.577 286.808 244.669 288.236 244.669ZM288.236 243.451C287.648 243.451 287.214 242.947 287.214 242.205C287.214 241.435 287.634 240.945 288.236 240.945C288.81 240.945 289.258 241.449 289.258 242.205C289.258 242.961 288.838 243.451 288.236 243.451Z" fill="white"/>
<path d="M264.574 291.725H271.84V289.863H267.766L269.516 288.505C271.196 287.287 271.756 286.293 271.756 285.005C271.756 283.199 270.272 281.939 268.228 281.939C266.674 281.939 265.456 282.611 264.504 283.815L265.82 285.089C266.52 284.291 267.234 283.815 268.172 283.815C268.956 283.815 269.628 284.291 269.628 285.089C269.628 285.761 269.264 286.391 268.116 287.301L264.574 290.045V291.725ZM276.801 291.907C279.055 291.907 280.511 290.703 280.511 289.037C280.511 287.763 279.545 287.021 278.495 286.783C279.559 286.475 280.301 285.677 280.301 284.571C280.301 283.045 278.943 281.939 276.787 281.939C275.079 281.939 273.931 282.681 273.133 283.647L274.323 284.907C274.967 284.235 275.681 283.787 276.577 283.787C277.529 283.787 278.201 284.235 278.201 284.935C278.201 285.621 277.571 286.013 276.521 286.013L275.415 285.999V287.763H276.521C277.809 287.749 278.397 288.127 278.397 288.869C278.397 289.555 277.767 290.045 276.717 290.045C275.751 290.045 274.841 289.639 274.155 288.911L272.937 290.283C273.749 291.221 275.079 291.907 276.801 291.907ZM284.363 286.937C285.777 286.937 286.771 285.859 286.771 284.473C286.771 283.115 285.819 282.009 284.363 282.009C282.921 282.009 281.969 283.101 281.969 284.487C281.969 285.859 282.921 286.937 284.363 286.937ZM283.229 291.725H284.839L291.531 282.107H289.907L283.229 291.725ZM284.363 285.733C283.789 285.733 283.341 285.229 283.341 284.473C283.341 283.717 283.761 283.227 284.363 283.227C284.951 283.227 285.385 283.731 285.385 284.473C285.385 285.243 284.951 285.733 284.363 285.733ZM290.369 291.879C291.783 291.879 292.763 290.801 292.763 289.415C292.763 288.057 291.825 286.951 290.369 286.951C288.941 286.951 287.961 288.043 287.961 289.415C287.961 290.787 288.941 291.879 290.369 291.879ZM290.369 290.661C289.781 290.661 289.347 290.157 289.347 289.415C289.347 288.645 289.767 288.155 290.369 288.155C290.943 288.155 291.391 288.659 291.391 289.415C291.391 290.171 290.971 290.661 290.369 290.661Z" fill="white"/>
<path d="M266.786 171.917H268.844V162.299H267.192L264.308 164.231L265.148 165.687L266.786 164.665V171.917ZM275.014 172.085C277.548 172.085 279.326 170.027 279.326 167.101C279.326 164.189 277.548 162.131 275.014 162.131C272.48 162.131 270.688 164.189 270.688 167.101C270.688 170.027 272.48 172.085 275.014 172.085ZM275.014 170.209C273.726 170.209 272.816 168.907 272.816 167.101C272.816 165.295 273.726 164.007 275.014 164.007C276.302 164.007 277.212 165.295 277.212 167.101C277.212 168.907 276.302 170.209 275.014 170.209ZM283.16 167.129C284.574 167.129 285.568 166.051 285.568 164.665C285.568 163.307 284.616 162.201 283.16 162.201C281.718 162.201 280.766 163.293 280.766 164.679C280.766 166.051 281.718 167.129 283.16 167.129ZM282.026 171.917H283.636L290.328 162.299H288.704L282.026 171.917ZM283.16 165.925C282.586 165.925 282.138 165.421 282.138 164.665C282.138 163.909 282.558 163.419 283.16 163.419C283.748 163.419 284.182 163.923 284.182 164.665C284.182 165.435 283.748 165.925 283.16 165.925ZM289.166 172.071C290.58 172.071 291.56 170.993 291.56 169.607C291.56 168.249 290.622 167.143 289.166 167.143C287.738 167.143 286.758 168.235 286.758 169.607C286.758 170.979 287.738 172.071 289.166 172.071ZM289.166 170.853C288.578 170.853 288.144 170.349 288.144 169.607C288.144 168.837 288.564 168.347 289.166 168.347C289.74 168.347 290.188 168.851 290.188 169.607C290.188 170.363 289.768 170.853 289.166 170.853Z" fill="white"/>
<path d="M264.574 105.343H271.84V103.481H267.766L269.516 102.123C271.196 100.905 271.756 99.911 271.756 98.623C271.756 96.817 270.272 95.557 268.228 95.557C266.674 95.557 265.456 96.229 264.504 97.433L265.82 98.707C266.52 97.909 267.234 97.433 268.172 97.433C268.956 97.433 269.628 97.909 269.628 98.707C269.628 99.379 269.264 100.009 268.116 100.919L264.574 103.663V105.343ZM273.133 105.343H280.399V103.481H276.325L278.075 102.123C279.755 100.905 280.315 99.911 280.315 98.623C280.315 96.817 278.831 95.557 276.787 95.557C275.233 95.557 274.015 96.229 273.063 97.433L274.379 98.707C275.079 97.909 275.793 97.433 276.731 97.433C277.515 97.433 278.187 97.909 278.187 98.707C278.187 99.379 277.823 100.009 276.675 100.919L273.133 103.663V105.343ZM284.281 100.555C285.695 100.555 286.689 99.477 286.689 98.091C286.689 96.733 285.737 95.627 284.281 95.627C282.839 95.627 281.887 96.719 281.887 98.105C281.887 99.477 282.839 100.555 284.281 100.555ZM283.147 105.343H284.757L291.449 95.725H289.825L283.147 105.343ZM284.281 99.351C283.707 99.351 283.259 98.847 283.259 98.091C283.259 97.335 283.679 96.845 284.281 96.845C284.869 96.845 285.303 97.349 285.303 98.091C285.303 98.861 284.869 99.351 284.281 99.351ZM290.287 105.497C291.701 105.497 292.681 104.419 292.681 103.033C292.681 101.675 291.743 100.569 290.287 100.569C288.859 100.569 287.879 101.661 287.879 103.033C287.879 104.405 288.859 105.497 290.287 105.497ZM290.287 104.279C289.699 104.279 289.265 103.775 289.265 103.033C289.265 102.263 289.685 101.773 290.287 101.773C290.861 101.773 291.309 102.277 291.309 103.033C291.309 103.789 290.889 104.279 290.287 104.279Z" fill="#0F0B47"/>
<path d="M266.786 59.6877H268.844V50.0697H267.192L264.308 52.0017L265.148 53.4577L266.786 52.4357V59.6877ZM274.286 59.8697C276.582 59.8697 278.108 58.5677 278.108 56.5237C278.108 54.5637 276.638 53.4717 274.93 53.4717C274.146 53.4717 273.53 53.7237 273.054 54.0597L273.11 51.9317H277.59V50.0697H271.206L271.066 55.2637L272.452 55.8237C272.97 55.4317 273.586 55.1937 274.314 55.1937C275.364 55.1937 276.05 55.7537 276.05 56.5937C276.05 57.4197 275.392 58.0637 274.3 58.0637C273.376 58.0637 272.508 57.6157 271.78 56.9297L270.562 58.3857C271.458 59.2817 272.676 59.8697 274.286 59.8697ZM281.889 54.8997C283.303 54.8997 284.297 53.8217 284.297 52.4357C284.297 51.0777 283.345 49.9717 281.889 49.9717C280.447 49.9717 279.495 51.0637 279.495 52.4497C279.495 53.8217 280.447 54.8997 281.889 54.8997ZM280.755 59.6877H282.365L289.057 50.0697H287.433L280.755 59.6877ZM281.889 53.6957C281.315 53.6957 280.867 53.1917 280.867 52.4357C280.867 51.6797 281.287 51.1897 281.889 51.1897C282.477 51.1897 282.911 51.6937 282.911 52.4357C282.911 53.2057 282.477 53.6957 281.889 53.6957ZM287.895 59.8417C289.309 59.8417 290.289 58.7637 290.289 57.3777C290.289 56.0197 289.351 54.9137 287.895 54.9137C286.467 54.9137 285.487 56.0057 285.487 57.3777C285.487 58.7497 286.467 59.8417 287.895 59.8417ZM287.895 58.6237C287.307 58.6237 286.873 58.1197 286.873 57.3777C286.873 56.6077 287.293 56.1177 287.895 56.1177C288.469 56.1177 288.917 56.6217 288.917 57.3777C288.917 58.1337 288.497 58.6237 287.895 58.6237Z" fill="#0F0B47"/>
<path d="M258.41 9H263.6V7.67H260.69L261.94 6.7C263.14 5.83 263.54 5.12 263.54 4.2C263.54 2.91 262.48 2.01 261.02 2.01C259.91 2.01 259.04 2.49 258.36 3.35L259.3 4.26C259.8 3.69 260.31 3.35 260.98 3.35C261.54 3.35 262.02 3.69 262.02 4.26C262.02 4.74 261.76 5.19 260.94 5.84L258.41 7.8V9ZM266.103 9H267.573V2.13H266.393L264.333 3.51L264.933 4.55L266.103 3.82V9ZM273.84 5.07H272.06V3.25H270.8V5.07H269.01V6.26H270.8V8.08H272.06V6.26H273.84V5.07ZM262.12 22.12C263.16 22.12 264.11 21.67 264.78 20.97L263.71 20.01C263.32 20.47 262.75 20.78 262.12 20.78C260.96 20.78 259.98 19.76 259.98 18.56C259.98 17.37 260.96 16.35 262.12 16.35C262.74 16.35 263.32 16.66 263.71 17.12L264.78 16.16C264.11 15.45 263.16 15.01 262.12 15.01C260.14 15.01 258.46 16.63 258.46 18.56C258.46 20.49 260.14 22.12 262.12 22.12ZM267.45 20.67V15.13H265.97V22H270.87V20.67H267.45ZM275.023 22.12C276.843 22.12 278.133 20.84 278.133 19.03V15.13H276.653V18.97C276.653 20.03 275.973 20.78 275.023 20.78C274.063 20.78 273.383 20.03 273.383 18.97V15.13H271.913V19.03C271.913 20.84 273.193 22.12 275.023 22.12ZM282.26 22.12C283.93 22.12 284.93 21.25 284.93 19.94C284.93 18.67 283.95 18.23 282.47 17.9C281.41 17.66 280.99 17.5 280.99 17C280.99 16.59 281.38 16.26 282 16.26C282.66 16.26 283.35 16.53 283.97 17.03L284.74 15.96C284.03 15.36 283.17 15.01 282.05 15.01C280.54 15.01 279.5 15.88 279.5 17.15C279.5 18.48 280.54 18.89 281.99 19.22C283.04 19.46 283.44 19.61 283.44 20.1C283.44 20.53 283.06 20.87 282.31 20.87C281.44 20.87 280.7 20.53 280.05 19.97L279.21 20.98C280.01 21.72 281.06 22.12 282.26 22.12ZM287.833 22H289.303V16.46H291.453V15.13H285.693V16.46H287.833V22ZM297.92 16.46V15.13H292.63V22H297.92V20.67H294.11V19.16H297.57V17.83H294.11V16.46H297.92ZM305.029 17.45C305.029 16.09 303.939 15.13 302.439 15.13H299.349V22H300.829V19.77H301.719L303.289 22H304.969L303.319 19.65C304.349 19.35 305.029 18.53 305.029 17.45ZM300.829 16.48H302.289C303.019 16.48 303.519 16.86 303.519 17.45C303.519 18.04 303.019 18.42 302.289 18.42H300.829V16.48ZM308.93 22.12C310.6 22.12 311.6 21.25 311.6 19.94C311.6 18.67 310.62 18.23 309.14 17.9C308.08 17.66 307.66 17.5 307.66 17C307.66 16.59 308.05 16.26 308.67 16.26C309.33 16.26 310.02 16.53 310.64 17.03L311.41 15.96C310.7 15.36 309.84 15.01 308.72 15.01C307.21 15.01 306.17 15.88 306.17 17.15C306.17 18.48 307.21 18.89 308.66 19.22C309.71 19.46 310.11 19.61 310.11 20.1C310.11 20.53 309.73 20.87 308.98 20.87C308.11 20.87 307.37 20.53 306.72 19.97L305.88 20.98C306.68 21.72 307.73 22.12 308.93 22.12Z" fill="#0F0B47"/>
<path d="M328 41.9998L0.999994 41.9998" stroke="#0F0B47" stroke-linecap="square"/>
<path d="M16.816 394.861H18.712C20.488 394.861 21.744 393.717 21.744 392.109C21.744 390.501 20.488 389.365 18.712 389.365H16.816V394.861ZM17.624 394.125V390.101H18.76C20.024 390.101 20.92 390.933 20.92 392.109C20.92 393.293 20.024 394.125 18.76 394.125H17.624ZM24.6599 394.957C25.8519 394.957 26.8359 393.981 26.8359 392.789C26.8359 391.597 25.8519 390.629 24.6599 390.629C23.4679 390.629 22.4839 391.597 22.4839 392.789C22.4839 393.981 23.4679 394.957 24.6599 394.957ZM24.6599 394.269C23.8999 394.269 23.2759 393.605 23.2759 392.789C23.2759 391.973 23.8999 391.317 24.6599 391.317C25.4199 391.317 26.0439 391.973 26.0439 392.789C26.0439 393.605 25.4199 394.269 24.6599 394.269ZM29.9084 390.629C29.3404 390.629 28.8284 390.917 28.5884 391.333V390.725H27.7964V394.861H28.5884V392.293C28.5884 391.749 29.1004 391.317 29.7324 391.317C30.2924 391.317 30.6844 391.741 30.6844 392.365V394.861H31.4524V392.229C31.4524 391.277 30.8204 390.629 29.9084 390.629ZM33.0316 391.477C33.5436 390.893 33.7276 390.541 33.7276 390.173C33.7276 389.733 33.5036 389.413 33.1436 389.413C32.8476 389.413 32.6156 389.661 32.6156 389.941C32.6156 390.229 32.8476 390.477 33.1356 390.477C33.0716 390.725 32.9196 390.981 32.6956 391.221L33.0316 391.477ZM36.7285 394.117C36.6485 394.205 36.4885 394.269 36.3125 394.269C36.0805 394.269 35.8805 394.061 35.8805 393.773V391.397H36.8565V390.725H35.8805V389.589H35.1045V390.725H34.4885V391.397H35.1045V393.829C35.1045 394.493 35.5525 394.957 36.1925 394.957C36.4885 394.957 36.8005 394.845 37.0245 394.661L36.7285 394.117ZM40.0464 394.861H40.8384V393.797L41.5024 393.125L42.7984 394.861H43.7424L42.0384 392.597L43.8224 390.725H42.8624L40.8384 392.845V389.269H40.0464V394.861ZM46.6663 390.629C46.0983 390.629 45.5863 390.917 45.3463 391.333V390.725H44.5543V394.861H45.3463V392.293C45.3463 391.749 45.8583 391.317 46.4903 391.317C47.0503 391.317 47.4423 391.741 47.4423 392.365V394.861H48.2103V392.229C48.2103 391.277 47.5783 390.629 46.6663 390.629ZM51.2614 394.957C52.4534 394.957 53.4374 393.981 53.4374 392.789C53.4374 391.597 52.4534 390.629 51.2614 390.629C50.0694 390.629 49.0854 391.597 49.0854 392.789C49.0854 393.981 50.0694 394.957 51.2614 394.957ZM51.2614 394.269C50.5014 394.269 49.8774 393.605 49.8774 392.789C49.8774 391.973 50.5014 391.317 51.2614 391.317C52.0214 391.317 52.6454 391.973 52.6454 392.789C52.6454 393.605 52.0214 394.269 51.2614 394.269ZM55.27 394.861H55.998L56.998 391.789L57.982 394.861H58.71L60.11 390.725H59.302L58.35 393.805L57.326 390.725H56.654L55.63 393.805L54.686 390.725H53.878L55.27 394.861ZM64.6332 395.453H65.4972L68.2892 388.917H67.4252L64.6332 395.453ZM18.76 400.629C18.192 400.629 17.68 400.917 17.44 401.333V400.725H16.648V404.861H17.44V402.293C17.44 401.749 17.952 401.317 18.584 401.317C19.144 401.317 19.536 401.741 19.536 402.365V404.861H20.304V402.229C20.304 401.277 19.672 400.629 18.76 400.629ZM23.3552 404.957C24.5472 404.957 25.5312 403.981 25.5312 402.789C25.5312 401.597 24.5472 400.629 23.3552 400.629C22.1632 400.629 21.1792 401.597 21.1792 402.789C21.1792 403.981 22.1632 404.957 23.3552 404.957ZM23.3552 404.269C22.5952 404.269 21.9712 403.605 21.9712 402.789C21.9712 401.973 22.5952 401.317 23.3552 401.317C24.1152 401.317 24.7392 401.973 24.7392 402.789C24.7392 403.605 24.1152 404.269 23.3552 404.269ZM28.2598 404.117C28.1798 404.205 28.0198 404.269 27.8438 404.269C27.6118 404.269 27.4118 404.061 27.4118 403.773V401.397H28.3878V400.725H27.4118V399.589H26.6358V400.725H26.0198V401.397H26.6358V403.829C26.6358 404.493 27.0838 404.957 27.7238 404.957C28.0198 404.957 28.3318 404.845 28.5558 404.661L28.2598 404.117ZM32.9377 404.957C33.8497 404.957 34.5057 404.461 34.5057 403.677C34.5057 402.853 33.7857 402.629 33.1057 402.429C32.4017 402.213 32.1217 402.117 32.1217 401.797C32.1217 401.453 32.4577 401.269 32.8737 401.269C33.2497 401.269 33.6657 401.413 34.0737 401.669L34.4017 401.109C33.9617 400.813 33.4097 400.629 32.8737 400.629C32.0017 400.629 31.3697 401.125 31.3697 401.885C31.3697 402.557 31.8497 402.829 32.7937 403.093C33.3217 403.237 33.7537 403.365 33.7537 403.757C33.7537 404.093 33.4417 404.317 32.9457 404.317C32.4897 404.317 31.9937 404.133 31.5377 403.797L31.1777 404.341C31.6737 404.741 32.3297 404.957 32.9377 404.957ZM38.2443 400.725V403.293C38.2443 403.837 37.7403 404.269 37.1083 404.269C36.5483 404.269 36.1563 403.845 36.1563 403.221V400.725H35.3803V403.357C35.3803 404.309 36.0123 404.957 36.9243 404.957C37.4923 404.957 37.9963 404.677 38.2443 404.269V404.861H39.0363V400.725H38.2443ZM41.1353 401.533V400.725H40.3433V404.861H41.1353V402.661C41.1353 401.861 41.7593 401.317 42.6713 401.317V400.629C41.9513 400.629 41.3913 400.981 41.1353 401.533ZM45.4011 404.301C44.6651 404.301 44.1531 403.773 44.0571 403.045H47.3611C47.3611 401.573 46.6251 400.629 45.3611 400.629C44.2171 400.629 43.2811 401.541 43.2811 402.781C43.2811 404.053 44.2731 404.957 45.4171 404.957C46.0011 404.957 46.7291 404.709 47.0891 404.317L46.6251 403.829C46.3691 404.101 45.8491 404.301 45.4011 404.301ZM45.3771 401.285C46.0971 401.285 46.5131 401.797 46.5931 402.461H44.0651C44.1851 401.749 44.7131 401.285 45.3771 401.285Z" fill="#0F0B47"/>
<circle cx="5.27743" cy="392.138" r="4.27743" fill="#EBEBEB"/>
<path d="M16.288 426.861H20.2V426.109H17.568L18.856 425.021C19.8 424.253 20.152 423.669 20.152 422.933C20.152 421.933 19.336 421.269 18.312 421.269C17.44 421.269 16.792 421.669 16.312 422.333L16.856 422.813C17.24 422.317 17.68 421.997 18.28 421.997C18.824 421.997 19.32 422.349 19.32 422.949C19.32 423.445 19.04 423.917 18.304 424.533L16.288 426.197V426.861ZM24.8599 426.861H25.6679V422.117H27.4679V421.365H23.0519V422.117H24.8599V426.861ZM30.1755 426.957C31.3675 426.957 32.3515 425.981 32.3515 424.789C32.3515 423.597 31.3675 422.629 30.1755 422.629C28.9835 422.629 27.9995 423.597 27.9995 424.789C27.9995 425.981 28.9835 426.957 30.1755 426.957ZM30.1755 426.269C29.4155 426.269 28.7915 425.605 28.7915 424.789C28.7915 423.973 29.4155 423.317 30.1755 423.317C30.9355 423.317 31.5595 423.973 31.5595 424.789C31.5595 425.605 30.9355 426.269 30.1755 426.269ZM35.1521 426.957C36.3441 426.957 37.3281 425.981 37.3281 424.789C37.3281 423.597 36.3441 422.629 35.1521 422.629C33.9601 422.629 32.9761 423.597 32.9761 424.789C32.9761 425.981 33.9601 426.957 35.1521 426.957ZM35.1521 426.269C34.3921 426.269 33.7681 425.605 33.7681 424.789C33.7681 423.973 34.3921 423.317 35.1521 423.317C35.9121 423.317 36.5361 423.973 36.5361 424.789C36.5361 425.605 35.9121 426.269 35.1521 426.269ZM38.2886 426.861H39.0806V421.269H38.2886V426.861ZM41.7346 426.957C42.6466 426.957 43.3026 426.461 43.3026 425.677C43.3026 424.853 42.5826 424.629 41.9026 424.429C41.1986 424.213 40.9186 424.117 40.9186 423.797C40.9186 423.453 41.2546 423.269 41.6706 423.269C42.0466 423.269 42.4626 423.413 42.8706 423.669L43.1986 423.109C42.7586 422.813 42.2066 422.629 41.6706 422.629C40.7986 422.629 40.1666 423.125 40.1666 423.885C40.1666 424.557 40.6466 424.829 41.5906 425.093C42.1186 425.237 42.5506 425.365 42.5506 425.757C42.5506 426.093 42.2386 426.317 41.7426 426.317C41.2866 426.317 40.7906 426.133 40.3346 425.797L39.9746 426.341C40.4706 426.741 41.1266 426.957 41.7346 426.957Z" fill="#0F0B47"/>
<circle cx="5.27743" cy="424.138" r="4.27743" fill="#D62293"/>
<path d="M200.456 394.861H201.264V389.365H200.616L199.168 390.349L199.504 390.933L200.456 390.325V394.861ZM206.266 394.861H207.074V390.117H208.874V389.365H204.458V390.117H206.266V394.861ZM211.582 394.957C212.774 394.957 213.758 393.981 213.758 392.789C213.758 391.597 212.774 390.629 211.582 390.629C210.39 390.629 209.406 391.597 209.406 392.789C209.406 393.981 210.39 394.957 211.582 394.957ZM211.582 394.269C210.822 394.269 210.198 393.605 210.198 392.789C210.198 391.973 210.822 391.317 211.582 391.317C212.342 391.317 212.966 391.973 212.966 392.789C212.966 393.605 212.342 394.269 211.582 394.269ZM216.558 394.957C217.75 394.957 218.734 393.981 218.734 392.789C218.734 391.597 217.75 390.629 216.558 390.629C215.366 390.629 214.382 391.597 214.382 392.789C214.382 393.981 215.366 394.957 216.558 394.957ZM216.558 394.269C215.798 394.269 215.174 393.605 215.174 392.789C215.174 391.973 215.798 391.317 216.558 391.317C217.318 391.317 217.942 391.973 217.942 392.789C217.942 393.605 217.318 394.269 216.558 394.269ZM219.695 394.861H220.487V389.269H219.695V394.861Z" fill="#0F0B47"/>
<circle cx="188.277" cy="392.138" r="4.27743" fill="#E46BB7"/>
<path d="M116.8 394.957C118.168 394.957 119.136 393.781 119.136 392.109C119.136 390.445 118.168 389.269 116.8 389.269C115.416 389.269 114.448 390.445 114.448 392.109C114.448 393.781 115.416 394.957 116.8 394.957ZM116.8 394.213C115.904 394.213 115.272 393.341 115.272 392.109C115.272 390.877 115.904 390.013 116.8 390.013C117.688 390.013 118.312 390.877 118.312 392.109C118.312 393.341 117.688 394.213 116.8 394.213ZM123.805 394.861H124.613V390.117H126.413V389.365H121.997V390.117H123.805V394.861ZM129.121 394.957C130.313 394.957 131.297 393.981 131.297 392.789C131.297 391.597 130.313 390.629 129.121 390.629C127.929 390.629 126.945 391.597 126.945 392.789C126.945 393.981 127.929 394.957 129.121 394.957ZM129.121 394.269C128.361 394.269 127.737 393.605 127.737 392.789C127.737 391.973 128.361 391.317 129.121 391.317C129.881 391.317 130.505 391.973 130.505 392.789C130.505 393.605 129.881 394.269 129.121 394.269ZM134.097 394.957C135.289 394.957 136.273 393.981 136.273 392.789C136.273 391.597 135.289 390.629 134.097 390.629C132.905 390.629 131.921 391.597 131.921 392.789C131.921 393.981 132.905 394.957 134.097 394.957ZM134.097 394.269C133.337 394.269 132.713 393.605 132.713 392.789C132.713 391.973 133.337 391.317 134.097 391.317C134.857 391.317 135.481 391.973 135.481 392.789C135.481 393.605 134.857 394.269 134.097 394.269ZM137.234 394.861H138.026V389.269H137.234V394.861ZM140.68 394.957C141.592 394.957 142.248 394.461 142.248 393.677C142.248 392.853 141.528 392.629 140.848 392.429C140.144 392.213 139.864 392.117 139.864 391.797C139.864 391.453 140.2 391.269 140.616 391.269C140.992 391.269 141.408 391.413 141.816 391.669L142.144 391.109C141.704 390.813 141.152 390.629 140.616 390.629C139.744 390.629 139.112 391.125 139.112 391.885C139.112 392.557 139.592 392.829 140.536 393.093C141.064 393.237 141.496 393.365 141.496 393.757C141.496 394.093 141.184 394.317 140.688 394.317C140.232 394.317 139.736 394.133 139.28 393.797L138.92 394.341C139.416 394.741 140.072 394.957 140.68 394.957Z" fill="#0F0B47"/>
<circle cx="103.277" cy="392.138" r="4.27743" fill="#F1B5DB"/>
<path d="M116.304 426.957C117.496 426.957 118.28 426.285 118.28 425.357C118.28 424.589 117.68 424.173 117.112 424.045C117.688 423.869 118.16 423.445 118.16 422.765C118.16 421.885 117.392 421.269 116.28 421.269C115.384 421.269 114.76 421.685 114.336 422.237L114.84 422.733C115.224 422.285 115.648 421.997 116.224 421.997C116.864 421.997 117.344 422.365 117.344 422.877C117.344 423.429 116.856 423.733 116.16 423.733L115.56 423.725V424.445H116.16C116.976 424.437 117.456 424.733 117.456 425.301C117.456 425.853 117 426.229 116.288 426.229C115.656 426.229 115.12 425.933 114.752 425.485L114.232 426.021C114.656 426.549 115.368 426.957 116.304 426.957ZM122.969 426.861H123.777V422.117H125.577V421.365H121.161V422.117H122.969V426.861ZM128.285 426.957C129.477 426.957 130.461 425.981 130.461 424.789C130.461 423.597 129.477 422.629 128.285 422.629C127.093 422.629 126.109 423.597 126.109 424.789C126.109 425.981 127.093 426.957 128.285 426.957ZM128.285 426.269C127.525 426.269 126.901 425.605 126.901 424.789C126.901 423.973 127.525 423.317 128.285 423.317C129.045 423.317 129.669 423.973 129.669 424.789C129.669 425.605 129.045 426.269 128.285 426.269ZM133.261 426.957C134.453 426.957 135.437 425.981 135.437 424.789C135.437 423.597 134.453 422.629 133.261 422.629C132.069 422.629 131.085 423.597 131.085 424.789C131.085 425.981 132.069 426.957 133.261 426.957ZM133.261 426.269C132.501 426.269 131.877 425.605 131.877 424.789C131.877 423.973 132.501 423.317 133.261 423.317C134.021 423.317 134.645 423.973 134.645 424.789C134.645 425.605 134.021 426.269 133.261 426.269ZM136.398 426.861H137.19V421.269H136.398V426.861ZM139.844 426.957C140.756 426.957 141.412 426.461 141.412 425.677C141.412 424.853 140.692 424.629 140.012 424.429C139.308 424.213 139.028 424.117 139.028 423.797C139.028 423.453 139.364 423.269 139.78 423.269C140.156 423.269 140.572 423.413 140.98 423.669L141.308 423.109C140.868 422.813 140.316 422.629 139.78 422.629C138.908 422.629 138.276 423.125 138.276 423.885C138.276 424.557 138.756 424.829 139.7 425.093C140.228 425.237 140.66 425.365 140.66 425.757C140.66 426.093 140.348 426.317 139.852 426.317C139.396 426.317 138.9 426.133 138.444 425.797L138.084 426.341C138.58 426.741 139.236 426.957 139.844 426.957Z" fill="#0F0B47"/>
<circle cx="103.277" cy="424.138" r="4.27743" fill="#991B7C"/>
<path d="M202.04 426.861H202.848V425.597H203.64V424.885H202.848V421.365H201.888L199.224 424.949L199.312 425.597H202.04V426.861ZM200.112 424.885L202.04 422.285V424.885H200.112ZM208.551 426.957C209.743 426.957 210.727 425.981 210.727 424.789C210.727 423.597 209.743 422.629 208.551 422.629C207.359 422.629 206.375 423.597 206.375 424.789C206.375 425.981 207.359 426.957 208.551 426.957ZM208.551 426.269C207.791 426.269 207.167 425.605 207.167 424.789C207.167 423.973 207.791 423.317 208.551 423.317C209.311 423.317 209.935 423.973 209.935 424.789C209.935 425.605 209.311 426.269 208.551 426.269ZM212.479 423.533V422.725H211.687V426.861H212.479V424.661C212.479 423.861 213.103 423.317 214.015 423.317V422.629C213.295 422.629 212.735 422.981 212.479 423.533ZM221.772 422.629C221.124 422.629 220.62 423.029 220.492 423.613C220.284 423.013 219.764 422.629 219.108 422.629C218.572 422.629 218.14 422.893 217.932 423.317V422.725H217.14V426.861H217.932V424.277C217.932 423.709 218.348 423.317 218.948 423.317C219.46 423.317 219.82 423.741 219.82 424.349V426.861H220.596V424.277C220.596 423.709 221.02 423.317 221.612 423.317C222.124 423.317 222.492 423.741 222.492 424.349V426.861H223.26V424.229C223.26 423.293 222.636 422.629 221.772 422.629ZM226.308 426.957C227.5 426.957 228.484 425.981 228.484 424.789C228.484 423.597 227.5 422.629 226.308 422.629C225.116 422.629 224.132 423.597 224.132 424.789C224.132 425.981 225.116 426.957 226.308 426.957ZM226.308 426.269C225.548 426.269 224.924 425.605 224.924 424.789C224.924 423.973 225.548 423.317 226.308 423.317C227.068 423.317 227.692 423.973 227.692 424.789C227.692 425.605 227.068 426.269 226.308 426.269ZM230.237 423.533V422.725H229.445V426.861H230.237V424.661C230.237 423.861 230.861 423.317 231.773 423.317V422.629C231.053 422.629 230.493 422.981 230.237 423.533ZM234.503 426.301C233.767 426.301 233.255 425.773 233.159 425.045H236.463C236.463 423.573 235.727 422.629 234.463 422.629C233.319 422.629 232.383 423.541 232.383 424.781C232.383 426.053 233.375 426.957 234.519 426.957C235.103 426.957 235.831 426.709 236.191 426.317L235.727 425.829C235.471 426.101 234.951 426.301 234.503 426.301ZM234.479 423.285C235.199 423.285 235.615 423.797 235.695 424.461H233.167C233.287 423.749 233.815 423.285 234.479 423.285ZM241.354 426.117C241.274 426.205 241.114 426.269 240.938 426.269C240.706 426.269 240.506 426.061 240.506 425.773V423.397H241.482V422.725H240.506V421.589H239.73V422.725H239.114V423.397H239.73V425.829C239.73 426.493 240.178 426.957 240.818 426.957C241.114 426.957 241.426 426.845 241.65 426.661L241.354 426.117ZM244.316 426.957C245.508 426.957 246.492 425.981 246.492 424.789C246.492 423.597 245.508 422.629 244.316 422.629C243.124 422.629 242.14 423.597 242.14 424.789C242.14 425.981 243.124 426.957 244.316 426.957ZM244.316 426.269C243.556 426.269 242.932 425.605 242.932 424.789C242.932 423.973 243.556 423.317 244.316 423.317C245.076 423.317 245.7 423.973 245.7 424.789C245.7 425.605 245.076 426.269 244.316 426.269ZM249.293 426.957C250.485 426.957 251.469 425.981 251.469 424.789C251.469 423.597 250.485 422.629 249.293 422.629C248.101 422.629 247.117 423.597 247.117 424.789C247.117 425.981 248.101 426.957 249.293 426.957ZM249.293 426.269C248.533 426.269 247.909 425.605 247.909 424.789C247.909 423.973 248.533 423.317 249.293 423.317C250.053 423.317 250.677 423.973 250.677 424.789C250.677 425.605 250.053 426.269 249.293 426.269ZM252.429 426.861H253.221V421.269H252.429V426.861ZM255.875 426.957C256.787 426.957 257.443 426.461 257.443 425.677C257.443 424.853 256.723 424.629 256.043 424.429C255.339 424.213 255.059 424.117 255.059 423.797C255.059 423.453 255.395 423.269 255.811 423.269C256.187 423.269 256.603 423.413 257.011 423.669L257.339 423.109C256.899 422.813 256.347 422.629 255.811 422.629C254.939 422.629 254.307 423.125 254.307 423.885C254.307 424.557 254.787 424.829 255.731 425.093C256.259 425.237 256.691 425.365 256.691 425.757C256.691 426.093 256.379 426.317 255.883 426.317C255.427 426.317 254.931 426.133 254.475 425.797L254.115 426.341C254.611 426.741 255.267 426.957 255.875 426.957Z" fill="#0F0B47"/>
<circle cx="188.277" cy="424.138" r="4.27743" fill="#5D1465"/>
</svg>
