<svg width="1198" height="482" viewBox="0 0 1198 482" fill="none" xmlns="http://www.w3.org/2000/svg">
<line opacity="0.25" x1="175" y1="108.959" x2="1197.35" y2="108.959" stroke="#0F0B47"/>
<line opacity="0.25" x1="175" y1="233.35" x2="1197.35" y2="233.35" stroke="#0F0B47"/>
<line opacity="0.25" x1="175" y1="365.587" x2="1197.35" y2="365.587" stroke="#0F0B47"/>
<line opacity="0.75" x1="174.5" y1="454.316" x2="174.5" y2="20.5859" stroke="#0F0B47"/>
<path d="M1081.66 191.179C1091.62 191.179 1098.1 186.019 1098.1 178.759C1098.1 173.479 1094.14 170.239 1089.52 169.159C1094.14 167.839 1097.2 164.359 1097.2 159.739C1097.2 153.259 1091.32 148.459 1081.6 148.459C1073.98 148.459 1068.94 151.639 1065.4 155.779L1071.16 162.019C1073.86 159.379 1076.86 157.639 1080.52 157.639C1084.24 157.639 1086.7 159.139 1086.7 161.659C1086.7 164.059 1084.48 165.439 1080.34 165.379H1075.48V174.019L1080.34 173.959C1085.62 173.959 1087.54 175.279 1087.54 177.859C1087.54 180.259 1085.26 181.999 1081.12 181.999C1077.28 181.999 1073.44 180.499 1070.44 177.499L1064.56 184.279C1068.22 188.359 1074.04 191.179 1081.66 191.179ZM1122.28 191.119C1133.44 191.119 1141.3 182.299 1141.3 169.759C1141.3 157.279 1133.44 148.459 1122.28 148.459C1111.18 148.459 1103.32 157.279 1103.32 169.759C1103.32 182.299 1111.18 191.119 1122.28 191.119ZM1122.28 181.819C1117.36 181.819 1113.88 176.779 1113.88 169.759C1113.88 162.739 1117.36 157.759 1122.28 157.759C1127.26 157.759 1130.74 162.739 1130.74 169.759C1130.74 176.779 1127.26 181.819 1122.28 181.819ZM1157.54 169.999C1163.78 169.999 1168.1 165.379 1168.1 159.379C1168.1 153.559 1163.96 148.759 1157.54 148.759C1151.18 148.759 1147.04 153.499 1147.04 159.379C1147.04 165.379 1151.24 169.999 1157.54 169.999ZM1152.56 190.399H1160.3L1189.1 149.179H1181.36L1152.56 190.399ZM1157.54 164.179C1155.32 164.179 1153.64 162.319 1153.64 159.379C1153.64 156.379 1155.26 154.579 1157.54 154.579C1159.76 154.579 1161.5 156.439 1161.5 159.379C1161.5 162.379 1159.82 164.179 1157.54 164.179ZM1184 191.059C1190.24 191.059 1194.56 186.379 1194.56 180.439C1194.56 174.559 1190.42 169.759 1184.06 169.759C1177.76 169.759 1173.5 174.439 1173.5 180.439C1173.5 186.319 1177.7 191.059 1184 191.059ZM1184.06 185.239C1181.78 185.239 1180.1 183.379 1180.1 180.439C1180.1 177.379 1181.72 175.639 1184 175.639C1186.22 175.639 1187.96 177.499 1187.96 180.439C1187.96 183.439 1186.28 185.239 1184.06 185.239Z" fill="#8B62FF"/>
<path d="M1065.58 63.5H1097.68V54.32H1081.3L1087.78 49.7C1094.98 44.78 1097.26 40.52 1097.26 35.06C1097.26 27.2 1090.78 21.56 1081.54 21.56C1074.76 21.56 1069.42 24.38 1065.04 29.66L1071.46 36.02C1074.58 32.72 1077.46 30.86 1081.3 30.86C1084.3 30.86 1086.76 32.66 1086.76 35.48C1086.76 38 1085.44 40.28 1080.82 43.76L1065.58 55.16V63.5ZM1123.24 63.5H1133.5V55.64H1138.72V47.12H1133.5V22.34H1121.02L1102.36 47.84L1103.26 55.64H1123.24V63.5ZM1112.98 47.12L1123.24 32.96V47.12H1112.98ZM1154.32 43.1C1160.56 43.1 1164.88 38.48 1164.88 32.48C1164.88 26.66 1160.74 21.86 1154.32 21.86C1147.96 21.86 1143.82 26.6 1143.82 32.48C1143.82 38.48 1148.02 43.1 1154.32 43.1ZM1149.34 63.5H1157.08L1185.88 22.28H1178.14L1149.34 63.5ZM1154.32 37.28C1152.1 37.28 1150.42 35.42 1150.42 32.48C1150.42 29.48 1152.04 27.68 1154.32 27.68C1156.54 27.68 1158.28 29.54 1158.28 32.48C1158.28 35.48 1156.6 37.28 1154.32 37.28ZM1180.78 64.16C1187.02 64.16 1191.34 59.48 1191.34 53.54C1191.34 47.66 1187.2 42.86 1180.84 42.86C1174.54 42.86 1170.28 47.54 1170.28 53.54C1170.28 59.42 1174.48 64.16 1180.78 64.16ZM1180.84 58.34C1178.56 58.34 1176.88 56.48 1176.88 53.54C1176.88 50.48 1178.5 48.74 1180.78 48.74C1183 48.74 1184.74 50.6 1184.74 53.54C1184.74 56.54 1183.06 58.34 1180.84 58.34Z" fill="#BDA6FF"/>
<path d="M1065.58 327.299H1097.68V318.119H1081.3L1087.78 313.499C1094.98 308.579 1097.26 304.319 1097.26 298.859C1097.26 290.999 1090.78 285.359 1081.54 285.359C1074.76 285.359 1069.42 288.179 1065.04 293.459L1071.46 299.819C1074.58 296.519 1077.46 294.659 1081.3 294.659C1084.3 294.659 1086.76 296.459 1086.76 299.279C1086.76 301.799 1085.44 304.079 1080.82 307.559L1065.58 318.959V327.299ZM1122.16 328.019C1133.32 328.019 1141.18 319.199 1141.18 306.659C1141.18 294.179 1133.32 285.359 1122.16 285.359C1111.06 285.359 1103.2 294.179 1103.2 306.659C1103.2 319.199 1111.06 328.019 1122.16 328.019ZM1122.16 318.719C1117.24 318.719 1113.76 313.679 1113.76 306.659C1113.76 299.639 1117.24 294.659 1122.16 294.659C1127.14 294.659 1130.62 299.639 1130.62 306.659C1130.62 313.679 1127.14 318.719 1122.16 318.719ZM1157.42 306.899C1163.66 306.899 1167.98 302.279 1167.98 296.279C1167.98 290.459 1163.84 285.659 1157.42 285.659C1151.06 285.659 1146.92 290.399 1146.92 296.279C1146.92 302.279 1151.12 306.899 1157.42 306.899ZM1152.44 327.299H1160.18L1188.98 286.079H1181.24L1152.44 327.299ZM1157.42 301.079C1155.2 301.079 1153.52 299.219 1153.52 296.279C1153.52 293.279 1155.14 291.479 1157.42 291.479C1159.64 291.479 1161.38 293.339 1161.38 296.279C1161.38 299.279 1159.7 301.079 1157.42 301.079ZM1183.88 327.959C1190.12 327.959 1194.44 323.279 1194.44 317.339C1194.44 311.459 1190.3 306.659 1183.94 306.659C1177.64 306.659 1173.38 311.339 1173.38 317.339C1173.38 323.219 1177.58 327.959 1183.88 327.959ZM1183.94 322.139C1181.66 322.139 1179.98 320.279 1179.98 317.339C1179.98 314.279 1181.6 312.539 1183.88 312.539C1186.1 312.539 1187.84 314.399 1187.84 317.339C1187.84 320.339 1186.16 322.139 1183.94 322.139Z" fill="#542AED"/>
<path d="M1065.58 454.198H1097.68V445.018H1081.3L1087.78 440.398C1094.98 435.478 1097.26 431.218 1097.26 425.758C1097.26 417.898 1090.78 412.258 1081.54 412.258C1074.76 412.258 1069.42 415.078 1065.04 420.358L1071.46 426.718C1074.58 423.418 1077.46 421.558 1081.3 421.558C1084.3 421.558 1086.76 423.358 1086.76 426.178C1086.76 428.698 1085.44 430.978 1080.82 434.458L1065.58 445.858V454.198ZM1123.72 427.258C1120.12 427.258 1116.58 428.518 1114.12 430.558C1115.02 424.678 1118.14 421.198 1123.06 421.198C1126.36 421.198 1128.7 422.338 1131.22 424.318L1135.96 416.578C1132.42 413.878 1128.16 412.258 1123 412.258C1110.88 412.258 1103.26 421.258 1103.26 434.338C1103.26 446.458 1109.14 454.918 1121.44 454.918C1130.62 454.918 1137.64 449.158 1137.64 440.458C1137.64 432.238 1131.34 427.258 1123.72 427.258ZM1120.78 446.218C1116.64 446.218 1114.78 443.998 1114.12 439.498C1115.32 437.038 1117.72 435.478 1120.54 435.478C1124.08 435.478 1127.08 437.458 1127.08 440.878C1127.08 443.818 1124.62 446.218 1120.78 446.218ZM1153.55 433.798C1159.79 433.798 1164.11 429.178 1164.11 423.178C1164.11 417.358 1159.97 412.558 1153.55 412.558C1147.19 412.558 1143.05 417.298 1143.05 423.178C1143.05 429.178 1147.25 433.798 1153.55 433.798ZM1148.57 454.198H1156.31L1185.11 412.978H1177.37L1148.57 454.198ZM1153.55 427.978C1151.33 427.978 1149.65 426.118 1149.65 423.178C1149.65 420.178 1151.27 418.378 1153.55 418.378C1155.77 418.378 1157.51 420.238 1157.51 423.178C1157.51 426.178 1155.83 427.978 1153.55 427.978ZM1180.01 454.858C1186.25 454.858 1190.57 450.178 1190.57 444.238C1190.57 438.358 1186.43 433.558 1180.07 433.558C1173.77 433.558 1169.51 438.238 1169.51 444.238C1169.51 450.118 1173.71 454.858 1180.01 454.858ZM1180.07 449.038C1177.79 449.038 1176.11 447.178 1176.11 444.238C1176.11 441.178 1177.73 439.438 1180.01 439.438C1182.23 439.438 1183.97 441.298 1183.97 444.238C1183.97 447.238 1182.29 449.038 1180.07 449.038Z" fill="#1B0085"/>
<path d="M233.5 427.036C239.153 427.036 243.736 422.454 243.736 416.801C243.736 411.148 239.153 406.565 233.5 406.565C227.847 406.565 223.265 411.148 223.265 416.801C223.265 422.454 227.847 427.036 233.5 427.036Z" fill="#1B0085"/>
<path fill-rule="evenodd" clip-rule="evenodd" d="M233.5 429.596C242.686 429.596 250.133 433.937 250.133 439.293V450.067H216.867V439.293C216.867 433.937 224.314 429.596 233.5 429.596Z" fill="#1B0085"/>
<path d="M275.308 427.036C280.961 427.036 285.543 422.454 285.543 416.801C285.543 411.148 280.961 406.565 275.308 406.565C269.655 406.565 265.072 411.148 265.072 416.801C265.072 422.454 269.655 427.036 275.308 427.036Z" fill="#1B0085"/>
<path fill-rule="evenodd" clip-rule="evenodd" d="M275.308 429.596C284.494 429.596 291.94 433.937 291.94 439.293V450.067H258.675V439.293C258.675 433.937 266.122 429.596 275.308 429.596Z" fill="#1B0085"/>
<path d="M317.115 427.036C322.768 427.036 327.351 422.454 327.351 416.801C327.351 411.148 322.768 406.565 317.115 406.565C311.462 406.565 306.88 411.148 306.88 416.801C306.88 422.454 311.462 427.036 317.115 427.036Z" fill="#1B0085"/>
<path fill-rule="evenodd" clip-rule="evenodd" d="M317.115 429.596C326.301 429.596 333.748 433.937 333.748 439.293V450.067H300.482V439.293C300.482 433.937 307.929 429.596 317.115 429.596Z" fill="#1B0085"/>
<path d="M358.923 427.036C364.576 427.036 369.159 422.454 369.159 416.801C369.159 411.148 364.576 406.565 358.923 406.565C353.27 406.565 348.688 411.148 348.688 416.801C348.688 422.454 353.27 427.036 358.923 427.036Z" fill="#1B0085"/>
<path fill-rule="evenodd" clip-rule="evenodd" d="M358.923 429.596C368.109 429.596 375.556 433.937 375.556 439.293V450.067H342.29V439.293C342.29 433.937 349.737 429.596 358.923 429.596Z" fill="#1B0085"/>
<path d="M400.731 427.036C406.384 427.036 410.966 422.454 410.966 416.801C410.966 411.148 406.384 406.565 400.731 406.565C395.078 406.565 390.495 411.148 390.495 416.801C390.495 422.454 395.078 427.036 400.731 427.036Z" fill="#1B0085"/>
<path fill-rule="evenodd" clip-rule="evenodd" d="M400.73 429.596C409.916 429.596 417.363 433.937 417.363 439.293V450.067H384.098V439.293C384.098 433.937 391.544 429.596 400.73 429.596Z" fill="#1B0085"/>
<path d="M442.538 427.036C448.191 427.036 452.774 422.454 452.774 416.801C452.774 411.148 448.191 406.565 442.538 406.565C436.885 406.565 432.303 411.148 432.303 416.801C432.303 422.454 436.885 427.036 442.538 427.036Z" fill="#1B0085"/>
<path fill-rule="evenodd" clip-rule="evenodd" d="M442.538 429.596C451.724 429.596 459.171 433.937 459.171 439.293V450.067H425.905V439.293C425.905 433.937 433.352 429.596 442.538 429.596Z" fill="#1B0085"/>
<path d="M484.346 427.036C489.999 427.036 494.581 422.454 494.581 416.801C494.581 411.148 489.999 406.565 484.346 406.565C478.693 406.565 474.11 411.148 474.11 416.801C474.11 422.454 478.693 427.036 484.346 427.036Z" fill="#1B0085"/>
<path fill-rule="evenodd" clip-rule="evenodd" d="M484.346 429.596C493.532 429.596 500.978 433.937 500.978 439.293V450.067H467.713V439.293C467.713 433.937 475.16 429.596 484.346 429.596Z" fill="#1B0085"/>
<path d="M526.153 427.036C531.806 427.036 536.389 422.454 536.389 416.801C536.389 411.148 531.806 406.565 526.153 406.565C520.501 406.565 515.918 411.148 515.918 416.801C515.918 422.454 520.501 427.036 526.153 427.036Z" fill="#1B0085"/>
<path fill-rule="evenodd" clip-rule="evenodd" d="M526.153 429.596C535.339 429.596 542.786 433.937 542.786 439.293V450.067H509.521V439.293C509.521 433.937 516.967 429.596 526.153 429.596Z" fill="#1B0085"/>
<path d="M567.961 427.036C573.614 427.036 578.197 422.454 578.197 416.801C578.197 411.148 573.614 406.565 567.961 406.565C562.308 406.565 557.726 411.148 557.726 416.801C557.726 422.454 562.308 427.036 567.961 427.036Z" fill="#1B0085"/>
<path fill-rule="evenodd" clip-rule="evenodd" d="M567.961 429.596C577.147 429.596 584.594 433.937 584.594 439.293V450.067H551.328V439.293C551.328 433.937 558.775 429.596 567.961 429.596Z" fill="#1B0085"/>
<path d="M609.769 427.036C615.422 427.036 620.004 422.454 620.004 416.801C620.004 411.148 615.422 406.565 609.769 406.565C604.116 406.565 599.533 411.148 599.533 416.801C599.533 422.454 604.116 427.036 609.769 427.036Z" fill="#1B0085"/>
<path fill-rule="evenodd" clip-rule="evenodd" d="M609.768 429.596C618.954 429.596 626.401 433.937 626.401 439.293V450.067H593.136V439.293C593.136 433.937 600.582 429.596 609.768 429.596Z" fill="#1B0085"/>
<path d="M651.576 427.036C657.229 427.036 661.812 422.454 661.812 416.801C661.812 411.148 657.229 406.565 651.576 406.565C645.923 406.565 641.341 411.148 641.341 416.801C641.341 422.454 645.923 427.036 651.576 427.036Z" fill="#1B0085"/>
<path fill-rule="evenodd" clip-rule="evenodd" d="M651.576 429.596C660.762 429.596 668.209 433.937 668.209 439.293V450.067H634.943V439.293C634.943 433.937 642.39 429.596 651.576 429.596Z" fill="#1B0085"/>
<path d="M233.5 297.043C239.153 297.043 243.736 292.461 243.736 286.808C243.736 281.155 239.153 276.572 233.5 276.572C227.847 276.572 223.265 281.155 223.265 286.808C223.265 292.461 227.847 297.043 233.5 297.043Z" fill="#542AED"/>
<path fill-rule="evenodd" clip-rule="evenodd" d="M233.5 299.603C242.686 299.603 250.133 303.944 250.133 309.299V320.074H216.867V309.299C216.867 303.944 224.314 299.603 233.5 299.603Z" fill="#542AED"/>
<path d="M275.308 297.043C280.961 297.043 285.543 292.461 285.543 286.808C285.543 281.155 280.961 276.572 275.308 276.572C269.655 276.572 265.072 281.155 265.072 286.808C265.072 292.461 269.655 297.043 275.308 297.043Z" fill="#542AED"/>
<path fill-rule="evenodd" clip-rule="evenodd" d="M275.308 299.603C284.494 299.603 291.94 303.944 291.94 309.299V320.074H258.675V309.299C258.675 303.944 266.122 299.603 275.308 299.603Z" fill="#542AED"/>
<path d="M317.115 297.043C322.768 297.043 327.351 292.461 327.351 286.808C327.351 281.155 322.768 276.572 317.115 276.572C311.462 276.572 306.88 281.155 306.88 286.808C306.88 292.461 311.462 297.043 317.115 297.043Z" fill="#542AED"/>
<path fill-rule="evenodd" clip-rule="evenodd" d="M317.115 299.603C326.301 299.603 333.748 303.944 333.748 309.299V320.074H300.482V309.299C300.482 303.944 307.929 299.603 317.115 299.603Z" fill="#542AED"/>
<path d="M358.923 297.043C364.576 297.043 369.159 292.461 369.159 286.808C369.159 281.155 364.576 276.572 358.923 276.572C353.27 276.572 348.688 281.155 348.688 286.808C348.688 292.461 353.27 297.043 358.923 297.043Z" fill="#542AED"/>
<path fill-rule="evenodd" clip-rule="evenodd" d="M358.923 299.603C368.109 299.603 375.556 303.944 375.556 309.299V320.074H342.29V309.299C342.29 303.944 349.737 299.603 358.923 299.603Z" fill="#542AED"/>
<path d="M400.731 297.043C406.384 297.043 410.966 292.461 410.966 286.808C410.966 281.155 406.384 276.572 400.731 276.572C395.078 276.572 390.495 281.155 390.495 286.808C390.495 292.461 395.078 297.043 400.731 297.043Z" fill="#542AED"/>
<path fill-rule="evenodd" clip-rule="evenodd" d="M400.73 299.603C409.916 299.603 417.363 303.944 417.363 309.299V320.074H384.098V309.299C384.098 303.944 391.544 299.603 400.73 299.603Z" fill="#542AED"/>
<path d="M442.538 297.043C448.191 297.043 452.774 292.461 452.774 286.808C452.774 281.155 448.191 276.572 442.538 276.572C436.885 276.572 432.303 281.155 432.303 286.808C432.303 292.461 436.885 297.043 442.538 297.043Z" fill="#542AED"/>
<path fill-rule="evenodd" clip-rule="evenodd" d="M442.538 299.603C451.724 299.603 459.171 303.944 459.171 309.299V320.074H425.905V309.299C425.905 303.944 433.352 299.603 442.538 299.603Z" fill="#542AED"/>
<path d="M484.346 297.043C489.999 297.043 494.581 292.461 494.581 286.808C494.581 281.155 489.999 276.572 484.346 276.572C478.693 276.572 474.11 281.155 474.11 286.808C474.11 292.461 478.693 297.043 484.346 297.043Z" fill="#542AED"/>
<path fill-rule="evenodd" clip-rule="evenodd" d="M484.346 299.603C493.532 299.603 500.978 303.944 500.978 309.299V320.074H467.713V309.299C467.713 303.944 475.16 299.603 484.346 299.603Z" fill="#542AED"/>
<path d="M526.153 297.043C531.806 297.043 536.389 292.461 536.389 286.808C536.389 281.155 531.806 276.572 526.153 276.572C520.501 276.572 515.918 281.155 515.918 286.808C515.918 292.461 520.501 297.043 526.153 297.043Z" fill="#542AED"/>
<path fill-rule="evenodd" clip-rule="evenodd" d="M526.153 299.603C535.339 299.603 542.786 303.944 542.786 309.299V320.074H509.521V309.299C509.521 303.944 516.967 299.603 526.153 299.603Z" fill="#542AED"/>
<path d="M567.961 297.043C573.614 297.043 578.197 292.461 578.197 286.808C578.197 281.155 573.614 276.572 567.961 276.572C562.308 276.572 557.726 281.155 557.726 286.808C557.726 292.461 562.308 297.043 567.961 297.043Z" fill="#542AED"/>
<path fill-rule="evenodd" clip-rule="evenodd" d="M567.961 299.603C577.147 299.603 584.594 303.944 584.594 309.299V320.074H551.328V309.299C551.328 303.944 558.775 299.603 567.961 299.603Z" fill="#542AED"/>
<path d="M233.5 167.05C239.153 167.05 243.736 162.468 243.736 156.815C243.736 151.162 239.153 146.579 233.5 146.579C227.847 146.579 223.265 151.162 223.265 156.815C223.265 162.468 227.847 167.05 233.5 167.05Z" fill="#8B62FF"/>
<path fill-rule="evenodd" clip-rule="evenodd" d="M233.5 169.609C242.686 169.609 250.133 173.951 250.133 179.306V190.08H216.867V179.306C216.867 173.951 224.314 169.609 233.5 169.609Z" fill="#8B62FF"/>
<path d="M275.308 167.05C280.961 167.05 285.543 162.468 285.543 156.815C285.543 151.162 280.961 146.579 275.308 146.579C269.655 146.579 265.072 151.162 265.072 156.815C265.072 162.468 269.655 167.05 275.308 167.05Z" fill="#8B62FF"/>
<path fill-rule="evenodd" clip-rule="evenodd" d="M275.308 169.609C284.494 169.609 291.94 173.951 291.94 179.306V190.08H258.675V179.306C258.675 173.951 266.122 169.609 275.308 169.609Z" fill="#8B62FF"/>
<path d="M317.115 167.05C322.768 167.05 327.351 162.468 327.351 156.815C327.351 151.162 322.768 146.579 317.115 146.579C311.462 146.579 306.88 151.162 306.88 156.815C306.88 162.468 311.462 167.05 317.115 167.05Z" fill="#8B62FF"/>
<path fill-rule="evenodd" clip-rule="evenodd" d="M317.115 169.609C326.301 169.609 333.748 173.951 333.748 179.306V190.08H300.482V179.306C300.482 173.951 307.929 169.609 317.115 169.609Z" fill="#8B62FF"/>
<path d="M358.923 167.05C364.576 167.05 369.159 162.468 369.159 156.815C369.159 151.162 364.576 146.579 358.923 146.579C353.27 146.579 348.688 151.162 348.688 156.815C348.688 162.468 353.27 167.05 358.923 167.05Z" fill="#8B62FF"/>
<path fill-rule="evenodd" clip-rule="evenodd" d="M358.923 169.609C368.109 169.609 375.556 173.951 375.556 179.306V190.08H342.29V179.306C342.29 173.951 349.737 169.609 358.923 169.609Z" fill="#8B62FF"/>
<path d="M400.731 167.05C406.384 167.05 410.966 162.468 410.966 156.815C410.966 151.162 406.384 146.579 400.731 146.579C395.078 146.579 390.495 151.162 390.495 156.815C390.495 162.468 395.078 167.05 400.731 167.05Z" fill="#8B62FF"/>
<path fill-rule="evenodd" clip-rule="evenodd" d="M400.73 169.609C409.916 169.609 417.363 173.951 417.363 179.306V190.08H384.098V179.306C384.098 173.951 391.544 169.609 400.73 169.609Z" fill="#8B62FF"/>
<path d="M442.538 167.05C448.191 167.05 452.774 162.468 452.774 156.815C452.774 151.162 448.191 146.579 442.538 146.579C436.885 146.579 432.303 151.162 432.303 156.815C432.303 162.468 436.885 167.05 442.538 167.05Z" fill="#8B62FF"/>
<path fill-rule="evenodd" clip-rule="evenodd" d="M442.538 169.609C451.724 169.609 459.171 173.951 459.171 179.306V190.08H425.905V179.306C425.905 173.951 433.352 169.609 442.538 169.609Z" fill="#8B62FF"/>
<path d="M484.346 167.05C489.999 167.05 494.581 162.468 494.581 156.815C494.581 151.162 489.999 146.579 484.346 146.579C478.693 146.579 474.11 151.162 474.11 156.815C474.11 162.468 478.693 167.05 484.346 167.05Z" fill="#8B62FF"/>
<path fill-rule="evenodd" clip-rule="evenodd" d="M484.346 169.609C493.532 169.609 500.978 173.951 500.978 179.306V190.08H467.713V179.306C467.713 173.951 475.16 169.609 484.346 169.609Z" fill="#8B62FF"/>
<path d="M526.153 167.05C531.806 167.05 536.389 162.468 536.389 156.815C536.389 151.162 531.806 146.579 526.153 146.579C520.501 146.579 515.918 151.162 515.918 156.815C515.918 162.468 520.501 167.05 526.153 167.05Z" fill="#8B62FF"/>
<path fill-rule="evenodd" clip-rule="evenodd" d="M526.153 169.609C535.339 169.609 542.786 173.951 542.786 179.306V190.08H509.521V179.306C509.521 173.951 516.967 169.609 526.153 169.609Z" fill="#8B62FF"/>
<path d="M567.961 167.05C573.614 167.05 578.197 162.468 578.197 156.815C578.197 151.162 573.614 146.579 567.961 146.579C562.308 146.579 557.726 151.162 557.726 156.815C557.726 162.468 562.308 167.05 567.961 167.05Z" fill="#8B62FF"/>
<path fill-rule="evenodd" clip-rule="evenodd" d="M567.961 169.609C577.147 169.609 584.594 173.951 584.594 179.306V190.08H551.328V179.306C551.328 173.951 558.775 169.609 567.961 169.609Z" fill="#8B62FF"/>
<path d="M609.769 167.05C615.422 167.05 620.004 162.468 620.004 156.815C620.004 151.162 615.422 146.579 609.769 146.579C604.116 146.579 599.533 151.162 599.533 156.815C599.533 162.468 604.116 167.05 609.769 167.05Z" fill="#8B62FF"/>
<path fill-rule="evenodd" clip-rule="evenodd" d="M609.768 169.609C618.954 169.609 626.401 173.951 626.401 179.306V190.08H593.136V179.306C593.136 173.951 600.582 169.609 609.768 169.609Z" fill="#8B62FF"/>
<path d="M652.305 167.05C657.958 167.05 662.54 162.468 662.54 156.815C662.54 151.162 657.958 146.579 652.305 146.579C646.652 146.579 642.069 151.162 642.069 156.815C642.069 162.468 646.652 167.05 652.305 167.05Z" fill="#8B62FF"/>
<path fill-rule="evenodd" clip-rule="evenodd" d="M652.305 169.609C661.491 169.609 668.937 173.951 668.937 179.306V190.08H635.672V179.306C635.672 173.951 643.119 169.609 652.305 169.609Z" fill="#8B62FF"/>
<path d="M694.841 167.05C700.494 167.05 705.077 162.468 705.077 156.815C705.077 151.162 700.494 146.579 694.841 146.579C689.188 146.579 684.605 151.162 684.605 156.815C684.605 162.468 689.188 167.05 694.841 167.05Z" fill="#8B62FF"/>
<path fill-rule="evenodd" clip-rule="evenodd" d="M694.841 169.609C704.027 169.609 711.473 173.951 711.473 179.306V190.08H678.208V179.306C678.208 173.951 685.655 169.609 694.841 169.609Z" fill="#8B62FF"/>
<path d="M737.377 167.05C743.03 167.05 747.613 162.468 747.613 156.815C747.613 151.162 743.03 146.579 737.377 146.579C731.724 146.579 727.142 151.162 727.142 156.815C727.142 162.468 731.724 167.05 737.377 167.05Z" fill="#8B62FF"/>
<path fill-rule="evenodd" clip-rule="evenodd" d="M737.377 169.609C746.563 169.609 754.01 173.951 754.01 179.306V190.08H720.744V179.306C720.744 173.951 728.191 169.609 737.377 169.609Z" fill="#8B62FF"/>
<path d="M779.913 167.05C785.566 167.05 790.149 162.468 790.149 156.815C790.149 151.162 785.566 146.579 779.913 146.579C774.26 146.579 769.678 151.162 769.678 156.815C769.678 162.468 774.26 167.05 779.913 167.05Z" fill="#8B62FF"/>
<path fill-rule="evenodd" clip-rule="evenodd" d="M779.913 169.609C789.099 169.609 796.546 173.951 796.546 179.306V190.08H763.28V179.306C763.28 173.951 770.727 169.609 779.913 169.609Z" fill="#8B62FF"/>
<path d="M822.449 167.05C828.102 167.05 832.685 162.468 832.685 156.815C832.685 151.162 828.102 146.579 822.449 146.579C816.796 146.579 812.214 151.162 812.214 156.815C812.214 162.468 816.796 167.05 822.449 167.05Z" fill="#8B62FF"/>
<path fill-rule="evenodd" clip-rule="evenodd" d="M822.449 169.609C831.635 169.609 839.082 173.951 839.082 179.306V190.08H805.816V179.306C805.816 173.951 813.263 169.609 822.449 169.609Z" fill="#8B62FF"/>
<path d="M864.986 167.05C870.638 167.05 875.221 162.468 875.221 156.815C875.221 151.162 870.638 146.579 864.986 146.579C859.333 146.579 854.75 151.162 854.75 156.815C854.75 162.468 859.333 167.05 864.986 167.05Z" fill="#8B62FF"/>
<path fill-rule="evenodd" clip-rule="evenodd" d="M864.985 169.609C874.171 169.609 881.618 173.951 881.618 179.306V190.08H848.353V179.306C848.353 173.951 855.799 169.609 864.985 169.609Z" fill="#8B62FF"/>
<path d="M914.5 167.05C920.153 167.05 924.736 162.468 924.736 156.815C924.736 151.162 920.153 146.579 914.5 146.579C908.847 146.579 904.265 151.162 904.265 156.815C904.265 162.468 908.847 167.05 914.5 167.05Z" fill="#8B62FF"/>
<path fill-rule="evenodd" clip-rule="evenodd" d="M914.5 169.609C923.686 169.609 931.133 173.951 931.133 179.306V190.08H897.867V179.306C897.867 173.951 905.314 169.609 914.5 169.609Z" fill="#8B62FF"/>
<path d="M233.5 37.057C239.153 37.057 243.736 32.4744 243.736 26.8215C243.736 21.1685 239.153 16.5859 233.5 16.5859C227.847 16.5859 223.265 21.1685 223.265 26.8215C223.265 32.4744 227.847 37.057 233.5 37.057Z" fill="#BDA6FF"/>
<path fill-rule="evenodd" clip-rule="evenodd" d="M233.5 39.6162C242.686 39.6162 250.133 43.9576 250.133 49.313V60.0873H216.867V49.313C216.867 43.9576 224.314 39.6162 233.5 39.6162Z" fill="#BDA6FF"/>
<path d="M275.308 37.057C280.961 37.057 285.543 32.4744 285.543 26.8215C285.543 21.1685 280.961 16.5859 275.308 16.5859C269.655 16.5859 265.072 21.1685 265.072 26.8215C265.072 32.4744 269.655 37.057 275.308 37.057Z" fill="#BDA6FF"/>
<path fill-rule="evenodd" clip-rule="evenodd" d="M275.308 39.6162C284.494 39.6162 291.94 43.9576 291.94 49.313V60.0873H258.675V49.313C258.675 43.9576 266.122 39.6162 275.308 39.6162Z" fill="#BDA6FF"/>
<path d="M317.115 37.057C322.768 37.057 327.351 32.4744 327.351 26.8215C327.351 21.1685 322.768 16.5859 317.115 16.5859C311.462 16.5859 306.88 21.1685 306.88 26.8215C306.88 32.4744 311.462 37.057 317.115 37.057Z" fill="#BDA6FF"/>
<path fill-rule="evenodd" clip-rule="evenodd" d="M317.115 39.6162C326.301 39.6162 333.748 43.9576 333.748 49.313V60.0873H300.482V49.313C300.482 43.9576 307.929 39.6162 317.115 39.6162Z" fill="#BDA6FF"/>
<path d="M358.923 37.057C364.576 37.057 369.159 32.4744 369.159 26.8215C369.159 21.1685 364.576 16.5859 358.923 16.5859C353.27 16.5859 348.688 21.1685 348.688 26.8215C348.688 32.4744 353.27 37.057 358.923 37.057Z" fill="#BDA6FF"/>
<path fill-rule="evenodd" clip-rule="evenodd" d="M358.923 39.6162C368.109 39.6162 375.556 43.9576 375.556 49.313V60.0873H342.29V49.313C342.29 43.9576 349.737 39.6162 358.923 39.6162Z" fill="#BDA6FF"/>
<path d="M400.731 37.057C406.384 37.057 410.966 32.4744 410.966 26.8215C410.966 21.1685 406.384 16.5859 400.731 16.5859C395.078 16.5859 390.495 21.1685 390.495 26.8215C390.495 32.4744 395.078 37.057 400.731 37.057Z" fill="#BDA6FF"/>
<path fill-rule="evenodd" clip-rule="evenodd" d="M400.73 39.6162C409.916 39.6162 417.363 43.9576 417.363 49.313V60.0873H384.098V49.313C384.098 43.9576 391.544 39.6162 400.73 39.6162Z" fill="#BDA6FF"/>
<path d="M442.538 37.057C448.191 37.057 452.774 32.4744 452.774 26.8215C452.774 21.1685 448.191 16.5859 442.538 16.5859C436.885 16.5859 432.303 21.1685 432.303 26.8215C432.303 32.4744 436.885 37.057 442.538 37.057Z" fill="#BDA6FF"/>
<path fill-rule="evenodd" clip-rule="evenodd" d="M442.538 39.6162C451.724 39.6162 459.171 43.9576 459.171 49.313V60.0873H425.905V49.313C425.905 43.9576 433.352 39.6162 442.538 39.6162Z" fill="#BDA6FF"/>
<path d="M484.346 37.057C489.999 37.057 494.581 32.4744 494.581 26.8215C494.581 21.1685 489.999 16.5859 484.346 16.5859C478.693 16.5859 474.11 21.1685 474.11 26.8215C474.11 32.4744 478.693 37.057 484.346 37.057Z" fill="#BDA6FF"/>
<path fill-rule="evenodd" clip-rule="evenodd" d="M484.346 39.6162C493.532 39.6162 500.978 43.9576 500.978 49.313V60.0873H467.713V49.313C467.713 43.9576 475.16 39.6162 484.346 39.6162Z" fill="#BDA6FF"/>
<path d="M526.153 37.057C531.806 37.057 536.389 32.4744 536.389 26.8215C536.389 21.1685 531.806 16.5859 526.153 16.5859C520.501 16.5859 515.918 21.1685 515.918 26.8215C515.918 32.4744 520.501 37.057 526.153 37.057Z" fill="#BDA6FF"/>
<path fill-rule="evenodd" clip-rule="evenodd" d="M526.153 39.6162C535.339 39.6162 542.786 43.9576 542.786 49.313V60.0873H509.521V49.313C509.521 43.9576 516.967 39.6162 526.153 39.6162Z" fill="#BDA6FF"/>
<path d="M567.961 37.057C573.614 37.057 578.197 32.4744 578.197 26.8215C578.197 21.1685 573.614 16.5859 567.961 16.5859C562.308 16.5859 557.726 21.1685 557.726 26.8215C557.726 32.4744 562.308 37.057 567.961 37.057Z" fill="#BDA6FF"/>
<path fill-rule="evenodd" clip-rule="evenodd" d="M567.961 39.6162C577.147 39.6162 584.594 43.9576 584.594 49.313V60.0873H551.328V49.313C551.328 43.9576 558.775 39.6162 567.961 39.6162Z" fill="#BDA6FF"/>
<path d="M609.769 37.057C615.422 37.057 620.004 32.4744 620.004 26.8215C620.004 21.1685 615.422 16.5859 609.769 16.5859C604.116 16.5859 599.533 21.1685 599.533 26.8215C599.533 32.4744 604.116 37.057 609.769 37.057Z" fill="#BDA6FF"/>
<path fill-rule="evenodd" clip-rule="evenodd" d="M609.768 39.6162C618.954 39.6162 626.401 43.9576 626.401 49.313V60.0873H593.136V49.313C593.136 43.9576 600.582 39.6162 609.768 39.6162Z" fill="#BDA6FF"/>
<path d="M68.2914 423.576C71.5714 423.576 73.7514 421.716 73.7514 418.796C73.7514 415.996 71.6514 414.436 69.2114 414.436C68.0914 414.436 67.2114 414.796 66.5314 415.276L66.6114 412.236H73.0114V409.576H63.8914L63.6914 416.996L65.6714 417.796C66.4114 417.236 67.2914 416.896 68.3314 416.896C69.8314 416.896 70.8114 417.696 70.8114 418.896C70.8114 420.076 69.8714 420.996 68.3114 420.996C66.9914 420.996 65.7514 420.356 64.7114 419.376L62.9714 421.456C64.2514 422.736 65.9914 423.576 68.2914 423.576ZM77.6128 426.236C79.0328 424.856 79.7328 423.596 79.7328 422.416C79.7328 420.956 78.9528 419.916 77.8328 419.916C76.8328 419.916 76.0328 420.756 76.0328 421.756C76.0328 422.736 76.8128 423.556 77.7728 423.556C77.6128 424.196 77.1928 424.876 76.5528 425.436L77.6128 426.236ZM88.3158 423.556C91.9358 423.556 94.4758 420.616 94.4758 416.436C94.4758 412.276 91.9358 409.336 88.3158 409.336C84.6958 409.336 82.1358 412.276 82.1358 416.436C82.1358 420.616 84.6958 423.556 88.3158 423.556ZM88.3158 420.876C86.4758 420.876 85.1758 419.016 85.1758 416.436C85.1758 413.856 86.4758 412.016 88.3158 412.016C90.1558 412.016 91.4558 413.856 91.4558 416.436C91.4558 419.016 90.1558 420.876 88.3158 420.876ZM102.574 423.556C106.194 423.556 108.734 420.616 108.734 416.436C108.734 412.276 106.194 409.336 102.574 409.336C98.9536 409.336 96.3936 412.276 96.3936 416.436C96.3936 420.616 98.9536 423.556 102.574 423.556ZM102.574 420.876C100.734 420.876 99.4336 419.016 99.4336 416.436C99.4336 413.856 100.734 412.016 102.574 412.016C104.414 412.016 105.714 413.856 105.714 416.436C105.714 419.016 104.414 420.876 102.574 420.876ZM116.831 423.556C120.451 423.556 122.991 420.616 122.991 416.436C122.991 412.276 120.451 409.336 116.831 409.336C113.211 409.336 110.651 412.276 110.651 416.436C110.651 420.616 113.211 423.556 116.831 423.556ZM116.831 420.876C114.991 420.876 113.691 419.016 113.691 416.436C113.691 413.856 114.991 412.016 116.831 412.016C118.671 412.016 119.971 413.856 119.971 416.436C119.971 419.016 118.671 420.876 116.831 420.876ZM134.809 415.456H131.249V411.816H128.729V415.456H125.149V417.836H128.729V421.476H131.249V417.836H134.809V415.456Z" fill="#0F0B47"/>
<path d="M4.56984 296.145H7.50984V282.405H5.14984L1.02984 285.165L2.22984 287.245L4.56984 285.785V296.145ZM12.1636 299.065C13.5836 297.685 14.2836 296.425 14.2836 295.245C14.2836 293.785 13.5036 292.745 12.3836 292.745C11.3836 292.745 10.5836 293.585 10.5836 294.585C10.5836 295.565 11.3636 296.385 12.3236 296.385C12.1636 297.025 11.7436 297.705 11.1036 298.265L12.1636 299.065ZM22.8666 296.385C26.4866 296.385 29.0266 293.445 29.0266 289.265C29.0266 285.105 26.4866 282.165 22.8666 282.165C19.2466 282.165 16.6866 285.105 16.6866 289.265C16.6866 293.445 19.2466 296.385 22.8666 296.385ZM22.8666 293.705C21.0266 293.705 19.7266 291.845 19.7266 289.265C19.7266 286.685 21.0266 284.845 22.8666 284.845C24.7066 284.845 26.0066 286.685 26.0066 289.265C26.0066 291.845 24.7066 293.705 22.8666 293.705ZM37.1244 296.385C40.7444 296.385 43.2844 293.445 43.2844 289.265C43.2844 285.105 40.7444 282.165 37.1244 282.165C33.5044 282.165 30.9444 285.105 30.9444 289.265C30.9444 293.445 33.5044 296.385 37.1244 296.385ZM37.1244 293.705C35.2844 293.705 33.9844 291.845 33.9844 289.265C33.9844 286.685 35.2844 284.845 37.1244 284.845C38.9644 284.845 40.2644 286.685 40.2644 289.265C40.2644 291.845 38.9644 293.705 37.1244 293.705ZM51.3822 296.385C55.0022 296.385 57.5422 293.445 57.5422 289.265C57.5422 285.105 55.0022 282.165 51.3822 282.165C47.7622 282.165 45.2022 285.105 45.2022 289.265C45.2022 293.445 47.7622 296.385 51.3822 296.385ZM51.3822 293.705C49.5422 293.705 48.2422 291.845 48.2422 289.265C48.2422 286.685 49.5422 284.845 51.3822 284.845C53.2222 284.845 54.5222 286.685 54.5222 289.265C54.5222 291.845 53.2222 293.705 51.3822 293.705ZM65.3492 291.885H70.8292V289.405H65.3492V291.885ZM85.2597 296.145H88.1997V293.345H90.0197V290.865H88.1997V282.425H84.6397L78.2597 291.065L78.5397 293.345H85.2597V296.145ZM81.3597 290.865L85.2597 285.545V290.865H81.3597ZM93.648 299.065C95.068 297.685 95.768 296.425 95.768 295.245C95.768 293.785 94.988 292.745 93.868 292.745C92.868 292.745 92.068 293.585 92.068 294.585C92.068 295.565 92.848 296.385 93.808 296.385C93.648 297.025 93.228 297.705 92.588 298.265L93.648 299.065ZM103.291 282.165C100.291 282.165 98.0309 284.105 98.0309 286.925C98.0309 289.645 100.131 291.285 102.671 291.285C103.971 291.285 105.231 290.785 106.071 289.965C105.811 292.285 104.611 293.785 102.811 293.785C101.651 293.785 100.851 293.365 100.011 292.665L98.6109 294.905C99.7309 295.805 101.111 296.385 102.811 296.385C106.631 296.385 109.131 293.325 109.131 289.045C109.131 285.045 107.291 282.165 103.291 282.165ZM103.531 288.885C102.191 288.885 101.071 288.105 101.071 286.785C101.071 285.685 101.991 284.665 103.451 284.665C104.991 284.665 105.731 285.605 105.991 287.285C105.571 288.265 104.651 288.885 103.531 288.885ZM116.221 282.165C113.221 282.165 110.961 284.105 110.961 286.925C110.961 289.645 113.061 291.285 115.601 291.285C116.901 291.285 118.161 290.785 119.001 289.965C118.741 292.285 117.541 293.785 115.741 293.785C114.581 293.785 113.781 293.365 112.941 292.665L111.541 294.905C112.661 295.805 114.041 296.385 115.741 296.385C119.561 296.385 122.061 293.325 122.061 289.045C122.061 285.045 120.221 282.165 116.221 282.165ZM116.461 288.885C115.121 288.885 114.001 288.105 114.001 286.785C114.001 285.685 114.921 284.665 116.381 284.665C117.921 284.665 118.661 285.605 118.921 287.285C118.501 288.265 117.581 288.885 116.461 288.885ZM129.15 282.165C126.15 282.165 123.89 284.105 123.89 286.925C123.89 289.645 125.99 291.285 128.53 291.285C129.83 291.285 131.09 290.785 131.93 289.965C131.67 292.285 130.47 293.785 128.67 293.785C127.51 293.785 126.71 293.365 125.87 292.665L124.47 294.905C125.59 295.805 126.97 296.385 128.67 296.385C132.49 296.385 134.99 293.325 134.99 289.045C134.99 285.045 133.15 282.165 129.15 282.165ZM129.39 288.885C128.05 288.885 126.93 288.105 126.93 286.785C126.93 285.685 127.85 284.665 129.31 284.665C130.85 284.665 131.59 285.605 131.85 287.285C131.43 288.265 130.51 288.885 129.39 288.885Z" fill="#0F0B47"/>
<path d="M44.9019 174.036H47.8419V160.296H45.4819L41.3619 163.056L42.5619 165.136L44.9019 163.676V174.036ZM56.6556 174.276C60.2756 174.276 62.8156 171.336 62.8156 167.156C62.8156 162.996 60.2756 160.056 56.6556 160.056C53.0356 160.056 50.4756 162.996 50.4756 167.156C50.4756 171.336 53.0356 174.276 56.6556 174.276ZM56.6556 171.596C54.8156 171.596 53.5156 169.736 53.5156 167.156C53.5156 164.576 54.8156 162.736 56.6556 162.736C58.4956 162.736 59.7956 164.576 59.7956 167.156C59.7956 169.736 58.4956 171.596 56.6556 171.596ZM70.9134 174.276C74.5334 174.276 77.0734 171.336 77.0734 167.156C77.0734 162.996 74.5334 160.056 70.9134 160.056C67.2934 160.056 64.7334 162.996 64.7334 167.156C64.7334 171.336 67.2934 174.276 70.9134 174.276ZM70.9134 171.596C69.0734 171.596 67.7734 169.736 67.7734 167.156C67.7734 164.576 69.0734 162.736 70.9134 162.736C72.7534 162.736 74.0534 164.576 74.0534 167.156C74.0534 169.736 72.7534 171.596 70.9134 171.596ZM84.8805 169.776H90.3605V167.296H84.8805V169.776ZM103.291 160.056C100.291 160.056 98.0309 161.996 98.0309 164.816C98.0309 167.536 100.131 169.176 102.671 169.176C103.971 169.176 105.231 168.676 106.071 167.856C105.811 170.176 104.611 171.676 102.811 171.676C101.651 171.676 100.851 171.256 100.011 170.556L98.6109 172.796C99.7309 173.696 101.111 174.276 102.811 174.276C106.631 174.276 109.131 171.216 109.131 166.936C109.131 162.936 107.291 160.056 103.291 160.056ZM103.531 166.776C102.191 166.776 101.071 165.996 101.071 164.676C101.071 163.576 101.991 162.556 103.451 162.556C104.991 162.556 105.731 163.496 105.991 165.176C105.571 166.156 104.651 166.776 103.531 166.776ZM116.221 160.056C113.221 160.056 110.961 161.996 110.961 164.816C110.961 167.536 113.061 169.176 115.601 169.176C116.901 169.176 118.161 168.676 119.001 167.856C118.741 170.176 117.541 171.676 115.741 171.676C114.581 171.676 113.781 171.256 112.941 170.556L111.541 172.796C112.661 173.696 114.041 174.276 115.741 174.276C119.561 174.276 122.061 171.216 122.061 166.936C122.061 162.936 120.221 160.056 116.221 160.056ZM116.461 166.776C115.121 166.776 114.001 165.996 114.001 164.676C114.001 163.576 114.921 162.556 116.381 162.556C117.921 162.556 118.661 163.496 118.921 165.176C118.501 166.156 117.581 166.776 116.461 166.776ZM129.15 160.056C126.15 160.056 123.89 161.996 123.89 164.816C123.89 167.536 125.99 169.176 128.53 169.176C129.83 169.176 131.09 168.676 131.93 167.856C131.67 170.176 130.47 171.676 128.67 171.676C127.51 171.676 126.71 171.256 125.87 170.556L124.47 172.796C125.59 173.696 126.97 174.276 128.67 174.276C132.49 174.276 134.99 171.216 134.99 166.936C134.99 162.936 133.15 160.056 129.15 160.056ZM129.39 166.776C128.05 166.776 126.93 165.996 126.93 164.676C126.93 163.576 127.85 162.556 129.31 162.556C130.85 162.556 131.59 163.496 131.85 165.176C131.43 166.156 130.51 166.776 129.39 166.776Z" fill="#0F0B47"/>
<path d="M86.3472 49.6162H89.2872V35.8762H86.9272L82.8072 38.6362L84.0072 40.7162L86.3472 39.2562V49.6162ZM97.8102 45.3562H103.29V42.8762H97.8102V45.3562ZM116.221 35.6362C113.221 35.6362 110.961 37.5762 110.961 40.3962C110.961 43.1162 113.061 44.7562 115.601 44.7562C116.901 44.7562 118.161 44.2562 119.001 43.4362C118.741 45.7562 117.541 47.2562 115.741 47.2562C114.581 47.2562 113.781 46.8362 112.941 46.1362L111.541 48.3762C112.661 49.2762 114.041 49.8562 115.741 49.8562C119.561 49.8562 122.061 46.7962 122.061 42.5162C122.061 38.5162 120.221 35.6362 116.221 35.6362ZM116.461 42.3562C115.121 42.3562 114.001 41.5762 114.001 40.2562C114.001 39.1562 114.921 38.1362 116.381 38.1362C117.921 38.1362 118.661 39.0762 118.921 40.7562C118.501 41.7362 117.581 42.3562 116.461 42.3562ZM129.15 35.6362C126.15 35.6362 123.89 37.5762 123.89 40.3962C123.89 43.1162 125.99 44.7562 128.53 44.7562C129.83 44.7562 131.09 44.2562 131.93 43.4362C131.67 45.7562 130.47 47.2562 128.67 47.2562C127.51 47.2562 126.71 46.8362 125.87 46.1362L124.47 48.3762C125.59 49.2762 126.97 49.8562 128.67 49.8562C132.49 49.8562 134.99 46.7962 134.99 42.5162C134.99 38.5162 133.15 35.6362 129.15 35.6362ZM129.39 42.3562C128.05 42.3562 126.93 41.5762 126.93 40.2562C126.93 39.1562 127.85 38.1362 129.31 38.1362C130.85 38.1362 131.59 39.0762 131.85 40.7562C131.43 41.7362 130.51 42.3562 129.39 42.3562Z" fill="#0F0B47"/>
</svg>
