<svg width="327" height="234" viewBox="0 0 327 234" fill="none" xmlns="http://www.w3.org/2000/svg">
<line opacity="0.25" x1="49" y1="48.5" x2="327" y2="48.5001" stroke="#0F0B47"/>
<line opacity="0.25" x1="49" y1="116.5" x2="327" y2="116.5" stroke="#0F0B47"/>
<line opacity="0.25" x1="49" y1="184.5" x2="327" y2="184.5" stroke="#0F0B47"/>
<line opacity="0.75" x1="48.5" y1="234" x2="48.5" y2="-8.90466e-09" stroke="#0F0B47"/>
<path d="M288.269 89.26C291.589 89.26 293.749 87.54 293.749 85.12C293.749 83.36 292.429 82.28 290.889 81.92C292.429 81.48 293.449 80.32 293.449 78.78C293.449 76.62 291.489 75.02 288.249 75.02C285.709 75.02 284.029 76.08 282.849 77.46L284.769 79.54C285.669 78.66 286.669 78.08 287.889 78.08C289.129 78.08 289.949 78.58 289.949 79.42C289.949 80.22 289.209 80.68 287.829 80.66H286.209V83.54L287.829 83.52C289.589 83.52 290.229 83.96 290.229 84.82C290.229 85.62 289.469 86.2 288.089 86.2C286.809 86.2 285.529 85.7 284.529 84.7L282.569 86.96C283.789 88.32 285.729 89.26 288.269 89.26ZM301.807 89.24C305.527 89.24 308.147 86.3 308.147 82.12C308.147 77.96 305.527 75.02 301.807 75.02C298.107 75.02 295.487 77.96 295.487 82.12C295.487 86.3 298.107 89.24 301.807 89.24ZM301.807 86.14C300.167 86.14 299.007 84.46 299.007 82.12C299.007 79.78 300.167 78.12 301.807 78.12C303.467 78.12 304.627 79.78 304.627 82.12C304.627 84.46 303.467 86.14 301.807 86.14ZM313.561 82.2C315.641 82.2 317.081 80.66 317.081 78.66C317.081 76.72 315.701 75.12 313.561 75.12C311.441 75.12 310.061 76.7 310.061 78.66C310.061 80.66 311.461 82.2 313.561 82.2ZM311.901 89H314.481L324.081 75.26H321.501L311.901 89ZM313.561 80.26C312.821 80.26 312.261 79.64 312.261 78.66C312.261 77.66 312.801 77.06 313.561 77.06C314.301 77.06 314.881 77.68 314.881 78.66C314.881 79.66 314.321 80.26 313.561 80.26ZM322.381 89.22C324.461 89.22 325.901 87.66 325.901 85.68C325.901 83.72 324.521 82.12 322.401 82.12C320.301 82.12 318.881 83.68 318.881 85.68C318.881 87.64 320.281 89.22 322.381 89.22ZM322.401 87.28C321.641 87.28 321.081 86.66 321.081 85.68C321.081 84.66 321.621 84.08 322.381 84.08C323.121 84.08 323.701 84.7 323.701 85.68C323.701 86.68 323.141 87.28 322.401 87.28Z" fill="#8B62FF"/>
<path d="M20.4353 81H21.9053V74.13H20.7253L18.6653 75.51L19.2653 76.55L20.4353 75.82V81ZM26.3122 81.12C28.1222 81.12 29.3922 79.65 29.3922 77.56C29.3922 75.48 28.1222 74.01 26.3122 74.01C24.5022 74.01 23.2222 75.48 23.2222 77.56C23.2222 79.65 24.5022 81.12 26.3122 81.12ZM26.3122 79.78C25.3922 79.78 24.7422 78.85 24.7422 77.56C24.7422 76.27 25.3922 75.35 26.3122 75.35C27.2322 75.35 27.8822 76.27 27.8822 77.56C27.8822 78.85 27.2322 79.78 26.3122 79.78ZM33.4411 81.12C35.2511 81.12 36.5211 79.65 36.5211 77.56C36.5211 75.48 35.2511 74.01 33.4411 74.01C31.6311 74.01 30.3511 75.48 30.3511 77.56C30.3511 79.65 31.6311 81.12 33.4411 81.12ZM33.4411 79.78C32.5211 79.78 31.8711 78.85 31.8711 77.56C31.8711 76.27 32.5211 75.35 33.4411 75.35C34.3611 75.35 35.0111 76.27 35.0111 77.56C35.0111 78.85 34.3611 79.78 33.4411 79.78ZM11.4402 91.87H14.1802V90.63H11.4402V91.87ZM20.6455 87.01C19.1455 87.01 18.0155 87.98 18.0155 89.39C18.0155 90.75 19.0655 91.57 20.3355 91.57C20.9855 91.57 21.6155 91.32 22.0355 90.91C21.9055 92.07 21.3055 92.82 20.4055 92.82C19.8255 92.82 19.4255 92.61 19.0055 92.26L18.3055 93.38C18.8655 93.83 19.5555 94.12 20.4055 94.12C22.3155 94.12 23.5655 92.59 23.5655 90.45C23.5655 88.45 22.6455 87.01 20.6455 87.01ZM20.7655 90.37C20.0955 90.37 19.5355 89.98 19.5355 89.32C19.5355 88.77 19.9955 88.26 20.7255 88.26C21.4955 88.26 21.8655 88.73 21.9955 89.57C21.7855 90.06 21.3255 90.37 20.7655 90.37ZM27.1103 87.01C25.6103 87.01 24.4803 87.98 24.4803 89.39C24.4803 90.75 25.5303 91.57 26.8003 91.57C27.4503 91.57 28.0803 91.32 28.5003 90.91C28.3703 92.07 27.7703 92.82 26.8703 92.82C26.2903 92.82 25.8903 92.61 25.4703 92.26L24.7703 93.38C25.3303 93.83 26.0203 94.12 26.8703 94.12C28.7803 94.12 30.0303 92.59 30.0303 90.45C30.0303 88.45 29.1103 87.01 27.1103 87.01ZM27.2303 90.37C26.5603 90.37 26.0003 89.98 26.0003 89.32C26.0003 88.77 26.4603 88.26 27.1903 88.26C27.9603 88.26 28.3303 88.73 28.4603 89.57C28.2503 90.06 27.7903 90.37 27.2303 90.37ZM33.5752 87.01C32.0752 87.01 30.9452 87.98 30.9452 89.39C30.9452 90.75 31.9952 91.57 33.2652 91.57C33.9152 91.57 34.5452 91.32 34.9652 90.91C34.8352 92.07 34.2352 92.82 33.3352 92.82C32.7552 92.82 32.3552 92.61 31.9352 92.26L31.2352 93.38C31.7952 93.83 32.4852 94.12 33.3352 94.12C35.2452 94.12 36.4952 92.59 36.4952 90.45C36.4952 88.45 35.5752 87.01 33.5752 87.01ZM33.6952 90.37C33.0252 90.37 32.4652 89.98 32.4652 89.32C32.4652 88.77 32.9252 88.26 33.6552 88.26C34.4252 88.26 34.7952 88.73 34.9252 89.57C34.7152 90.06 34.2552 90.37 33.6952 90.37Z" fill="#0F0B47"/>
<path d="M196.401 75.4166C197.896 75.4166 199.109 74.2041 199.109 72.7083C199.109 71.2126 197.896 70 196.401 70C194.905 70 193.692 71.2126 193.692 72.7083C193.692 74.2041 194.905 75.4166 196.401 75.4166Z" fill="#8B62FF"/>
<path fill-rule="evenodd" clip-rule="evenodd" d="M196.401 76.0938C198.832 76.0938 200.802 77.2425 200.802 78.6595V81.5104H192V78.6595C192 77.2425 193.97 76.0938 196.401 76.0938Z" fill="#8B62FF"/>
<path d="M208.865 75.4166C210.36 75.4166 211.573 74.2041 211.573 72.7083C211.573 71.2126 210.36 70 208.865 70C207.369 70 206.156 71.2126 206.156 72.7083C206.156 74.2041 207.369 75.4166 208.865 75.4166Z" fill="#8B62FF"/>
<path fill-rule="evenodd" clip-rule="evenodd" d="M208.865 76.0938C211.295 76.0938 213.266 77.2425 213.266 78.6595V81.5104H204.464V78.6595C204.464 77.2425 206.434 76.0938 208.865 76.0938Z" fill="#8B62FF"/>
<path d="M234.135 75.4166C235.631 75.4166 236.843 74.2041 236.843 72.7083C236.843 71.2126 235.631 70 234.135 70C232.639 70 231.427 71.2126 231.427 72.7083C231.427 74.2041 232.639 75.4166 234.135 75.4166Z" fill="#8B62FF"/>
<path fill-rule="evenodd" clip-rule="evenodd" d="M234.135 76.0938C236.566 76.0938 238.536 77.2425 238.536 78.6595V81.5104H229.734V78.6595C229.734 77.2425 231.705 76.0938 234.135 76.0938Z" fill="#8B62FF"/>
<path d="M221.329 75.4166C222.825 75.4166 224.038 74.2041 224.038 72.7083C224.038 71.2126 222.825 70 221.329 70C219.834 70 218.621 71.2126 218.621 72.7083C218.621 74.2041 219.834 75.4166 221.329 75.4166Z" fill="#8B62FF"/>
<path fill-rule="evenodd" clip-rule="evenodd" d="M221.33 76.0938C223.76 76.0938 225.731 77.2425 225.731 78.6595V81.5104H216.929V78.6595C216.929 77.2425 218.899 76.0938 221.33 76.0938Z" fill="#8B62FF"/>
<path d="M246.599 75.4166C248.095 75.4166 249.307 74.2041 249.307 72.7083C249.307 71.2126 248.095 70 246.599 70C245.103 70 243.891 71.2126 243.891 72.7083C243.891 74.2041 245.103 75.4166 246.599 75.4166Z" fill="#8B62FF"/>
<path fill-rule="evenodd" clip-rule="evenodd" d="M246.599 76.0938C249.03 76.0938 251 77.2425 251 78.6595V81.5104H242.198V78.6595C242.198 77.2425 244.169 76.0938 246.599 76.0938Z" fill="#8B62FF"/>
<path d="M196.401 90.4606C197.896 90.4606 199.109 89.248 199.109 87.7523C199.109 86.2565 197.896 85.0439 196.401 85.0439C194.905 85.0439 193.692 86.2565 193.692 87.7523C193.692 89.248 194.905 90.4606 196.401 90.4606Z" fill="#8B62FF"/>
<path fill-rule="evenodd" clip-rule="evenodd" d="M196.401 91.1377C198.832 91.1377 200.802 92.2864 200.802 93.7035V96.5543H192V93.7035C192 92.2864 193.97 91.1377 196.401 91.1377Z" fill="#8B62FF"/>
<path d="M208.865 90.4606C210.36 90.4606 211.573 89.248 211.573 87.7523C211.573 86.2565 210.36 85.0439 208.865 85.0439C207.369 85.0439 206.156 86.2565 206.156 87.7523C206.156 89.248 207.369 90.4606 208.865 90.4606Z" fill="#8B62FF"/>
<path fill-rule="evenodd" clip-rule="evenodd" d="M208.865 91.1377C211.295 91.1377 213.266 92.2864 213.266 93.7035V96.5543H204.464V93.7035C204.464 92.2864 206.434 91.1377 208.865 91.1377Z" fill="#8B62FF"/>
<path d="M234.135 90.4606C235.631 90.4606 236.843 89.248 236.843 87.7523C236.843 86.2565 235.631 85.0439 234.135 85.0439C232.639 85.0439 231.427 86.2565 231.427 87.7523C231.427 89.248 232.639 90.4606 234.135 90.4606Z" fill="#8B62FF"/>
<path fill-rule="evenodd" clip-rule="evenodd" d="M234.135 91.1377C236.566 91.1377 238.536 92.2864 238.536 93.7035V96.5543H229.734V93.7035C229.734 92.2864 231.705 91.1377 234.135 91.1377Z" fill="#8B62FF"/>
<path d="M221.329 90.4606C222.825 90.4606 224.038 89.248 224.038 87.7523C224.038 86.2565 222.825 85.0439 221.329 85.0439C219.834 85.0439 218.621 86.2565 218.621 87.7523C218.621 89.248 219.834 90.4606 221.329 90.4606Z" fill="#8B62FF"/>
<path fill-rule="evenodd" clip-rule="evenodd" d="M221.33 91.1377C223.76 91.1377 225.731 92.2864 225.731 93.7035V96.5543H216.929V93.7035C216.929 92.2864 218.899 91.1377 221.33 91.1377Z" fill="#8B62FF"/>
<path d="M246.599 90.4606C248.095 90.4606 249.307 89.248 249.307 87.7523C249.307 86.2565 248.095 85.0439 246.599 85.0439C245.103 85.0439 243.891 86.2565 243.891 87.7523C243.891 89.248 245.103 90.4606 246.599 90.4606Z" fill="#8B62FF"/>
<path fill-rule="evenodd" clip-rule="evenodd" d="M246.599 91.1377C249.03 91.1377 251 92.2864 251 93.7035V96.5543H242.198V93.7035C242.198 92.2864 244.169 91.1377 246.599 91.1377Z" fill="#8B62FF"/>
<path d="M133.401 75.4166C134.896 75.4166 136.109 74.2041 136.109 72.7083C136.109 71.2126 134.896 70 133.401 70C131.905 70 130.692 71.2126 130.692 72.7083C130.692 74.2041 131.905 75.4166 133.401 75.4166Z" fill="#8B62FF"/>
<path fill-rule="evenodd" clip-rule="evenodd" d="M133.401 76.0938C135.832 76.0938 137.802 77.2425 137.802 78.6595V81.5104H129V78.6595C129 77.2425 130.97 76.0938 133.401 76.0938Z" fill="#8B62FF"/>
<path d="M70.4007 75.4166C71.8965 75.4166 73.109 74.2041 73.109 72.7083C73.109 71.2126 71.8965 70 70.4007 70C68.9049 70 67.6924 71.2126 67.6924 72.7083C67.6924 74.2041 68.9049 75.4166 70.4007 75.4166Z" fill="#8B62FF"/>
<path fill-rule="evenodd" clip-rule="evenodd" d="M70.401 76.0938C72.8316 76.0938 74.802 77.2425 74.802 78.6595V81.5104H66V78.6595C66 77.2425 67.9704 76.0938 70.401 76.0938Z" fill="#8B62FF"/>
<path d="M145.865 75.4166C147.36 75.4166 148.573 74.2041 148.573 72.7083C148.573 71.2126 147.36 70 145.865 70C144.369 70 143.156 71.2126 143.156 72.7083C143.156 74.2041 144.369 75.4166 145.865 75.4166Z" fill="#8B62FF"/>
<path fill-rule="evenodd" clip-rule="evenodd" d="M145.865 76.0938C148.295 76.0938 150.266 77.2425 150.266 78.6595V81.5104H141.464V78.6595C141.464 77.2425 143.434 76.0938 145.865 76.0938Z" fill="#8B62FF"/>
<path d="M82.8646 75.4166C84.3603 75.4166 85.5729 74.2041 85.5729 72.7083C85.5729 71.2126 84.3603 70 82.8646 70C81.3688 70 80.1562 71.2126 80.1562 72.7083C80.1562 74.2041 81.3688 75.4166 82.8646 75.4166Z" fill="#8B62FF"/>
<path fill-rule="evenodd" clip-rule="evenodd" d="M82.8649 76.0938C85.2955 76.0938 87.2659 77.2425 87.2659 78.6595V81.5104H78.4639V78.6595C78.4639 77.2425 80.4343 76.0938 82.8649 76.0938Z" fill="#8B62FF"/>
<path d="M171.135 75.4166C172.631 75.4166 173.843 74.2041 173.843 72.7083C173.843 71.2126 172.631 70 171.135 70C169.639 70 168.427 71.2126 168.427 72.7083C168.427 74.2041 169.639 75.4166 171.135 75.4166Z" fill="#8B62FF"/>
<path fill-rule="evenodd" clip-rule="evenodd" d="M171.135 76.0938C173.566 76.0938 175.536 77.2425 175.536 78.6595V81.5104H166.734V78.6595C166.734 77.2425 168.705 76.0938 171.135 76.0938Z" fill="#8B62FF"/>
<path d="M108.135 75.4166C109.631 75.4166 110.843 74.2041 110.843 72.7083C110.843 71.2126 109.631 70 108.135 70C106.639 70 105.427 71.2126 105.427 72.7083C105.427 74.2041 106.639 75.4166 108.135 75.4166Z" fill="#8B62FF"/>
<path fill-rule="evenodd" clip-rule="evenodd" d="M108.135 76.0938C110.566 76.0938 112.536 77.2425 112.536 78.6595V81.5104H103.734V78.6595C103.734 77.2425 105.705 76.0938 108.135 76.0938Z" fill="#8B62FF"/>
<path d="M158.329 75.4166C159.825 75.4166 161.038 74.2041 161.038 72.7083C161.038 71.2126 159.825 70 158.329 70C156.834 70 155.621 71.2126 155.621 72.7083C155.621 74.2041 156.834 75.4166 158.329 75.4166Z" fill="#8B62FF"/>
<path fill-rule="evenodd" clip-rule="evenodd" d="M158.33 76.0938C160.76 76.0938 162.731 77.2425 162.731 78.6595V81.5104H153.929V78.6595C153.929 77.2425 155.899 76.0938 158.33 76.0938Z" fill="#8B62FF"/>
<path d="M95.3294 75.4166C96.8252 75.4166 98.0377 74.2041 98.0377 72.7083C98.0377 71.2126 96.8252 70 95.3294 70C93.8336 70 92.6211 71.2126 92.6211 72.7083C92.6211 74.2041 93.8336 75.4166 95.3294 75.4166Z" fill="#8B62FF"/>
<path fill-rule="evenodd" clip-rule="evenodd" d="M95.3297 76.0938C97.7603 76.0938 99.7307 77.2425 99.7307 78.6595V81.5104H90.9287V78.6595C90.9287 77.2425 92.8991 76.0938 95.3297 76.0938Z" fill="#8B62FF"/>
<path d="M183.599 75.4166C185.095 75.4166 186.307 74.2041 186.307 72.7083C186.307 71.2126 185.095 70 183.599 70C182.103 70 180.891 71.2126 180.891 72.7083C180.891 74.2041 182.103 75.4166 183.599 75.4166Z" fill="#8B62FF"/>
<path fill-rule="evenodd" clip-rule="evenodd" d="M183.599 76.0938C186.03 76.0938 188 77.2425 188 78.6595V81.5104H179.198V78.6595C179.198 77.2425 181.169 76.0938 183.599 76.0938Z" fill="#8B62FF"/>
<path d="M120.599 75.4166C122.095 75.4166 123.307 74.2041 123.307 72.7083C123.307 71.2126 122.095 70 120.599 70C119.103 70 117.891 71.2126 117.891 72.7083C117.891 74.2041 119.103 75.4166 120.599 75.4166Z" fill="#8B62FF"/>
<path fill-rule="evenodd" clip-rule="evenodd" d="M120.599 76.0938C123.03 76.0938 125 77.2425 125 78.6595V81.5104H116.198V78.6595C116.198 77.2425 118.169 76.0938 120.599 76.0938Z" fill="#8B62FF"/>
<path d="M133.401 90.4606C134.896 90.4606 136.109 89.248 136.109 87.7523C136.109 86.2565 134.896 85.0439 133.401 85.0439C131.905 85.0439 130.692 86.2565 130.692 87.7523C130.692 89.248 131.905 90.4606 133.401 90.4606Z" fill="#8B62FF"/>
<path fill-rule="evenodd" clip-rule="evenodd" d="M133.401 91.1377C135.832 91.1377 137.802 92.2864 137.802 93.7035V96.5543H129V93.7035C129 92.2864 130.97 91.1377 133.401 91.1377Z" fill="#8B62FF"/>
<path d="M70.4007 90.4606C71.8965 90.4606 73.109 89.248 73.109 87.7523C73.109 86.2565 71.8965 85.0439 70.4007 85.0439C68.9049 85.0439 67.6924 86.2565 67.6924 87.7523C67.6924 89.248 68.9049 90.4606 70.4007 90.4606Z" fill="#8B62FF"/>
<path fill-rule="evenodd" clip-rule="evenodd" d="M70.401 91.1377C72.8316 91.1377 74.802 92.2864 74.802 93.7035V96.5543H66V93.7035C66 92.2864 67.9704 91.1377 70.401 91.1377Z" fill="#8B62FF"/>
<path d="M145.865 90.4606C147.36 90.4606 148.573 89.248 148.573 87.7523C148.573 86.2565 147.36 85.0439 145.865 85.0439C144.369 85.0439 143.156 86.2565 143.156 87.7523C143.156 89.248 144.369 90.4606 145.865 90.4606Z" fill="#8B62FF"/>
<path fill-rule="evenodd" clip-rule="evenodd" d="M145.865 91.1377C148.295 91.1377 150.266 92.2864 150.266 93.7035V96.5543H141.464V93.7035C141.464 92.2864 143.434 91.1377 145.865 91.1377Z" fill="#8B62FF"/>
<path d="M82.8646 90.4606C84.3603 90.4606 85.5729 89.248 85.5729 87.7523C85.5729 86.2565 84.3603 85.0439 82.8646 85.0439C81.3688 85.0439 80.1562 86.2565 80.1562 87.7523C80.1562 89.248 81.3688 90.4606 82.8646 90.4606Z" fill="#8B62FF"/>
<path fill-rule="evenodd" clip-rule="evenodd" d="M82.8649 91.1377C85.2955 91.1377 87.2659 92.2864 87.2659 93.7035V96.5543H78.4639V93.7035C78.4639 92.2864 80.4343 91.1377 82.8649 91.1377Z" fill="#8B62FF"/>
<path d="M171.135 90.4606C172.631 90.4606 173.843 89.248 173.843 87.7523C173.843 86.2565 172.631 85.0439 171.135 85.0439C169.639 85.0439 168.427 86.2565 168.427 87.7523C168.427 89.248 169.639 90.4606 171.135 90.4606Z" fill="#8B62FF"/>
<path fill-rule="evenodd" clip-rule="evenodd" d="M171.135 91.1377C173.566 91.1377 175.536 92.2864 175.536 93.7035V96.5543H166.734V93.7035C166.734 92.2864 168.705 91.1377 171.135 91.1377Z" fill="#8B62FF"/>
<path d="M108.135 90.4606C109.631 90.4606 110.843 89.248 110.843 87.7523C110.843 86.2565 109.631 85.0439 108.135 85.0439C106.639 85.0439 105.427 86.2565 105.427 87.7523C105.427 89.248 106.639 90.4606 108.135 90.4606Z" fill="#8B62FF"/>
<path fill-rule="evenodd" clip-rule="evenodd" d="M108.135 91.1377C110.566 91.1377 112.536 92.2864 112.536 93.7035V96.5543H103.734V93.7035C103.734 92.2864 105.705 91.1377 108.135 91.1377Z" fill="#8B62FF"/>
<path d="M158.329 90.4606C159.825 90.4606 161.038 89.248 161.038 87.7523C161.038 86.2565 159.825 85.0439 158.329 85.0439C156.834 85.0439 155.621 86.2565 155.621 87.7523C155.621 89.248 156.834 90.4606 158.329 90.4606Z" fill="#8B62FF"/>
<path fill-rule="evenodd" clip-rule="evenodd" d="M158.33 91.1377C160.76 91.1377 162.731 92.2864 162.731 93.7035V96.5543H153.929V93.7035C153.929 92.2864 155.899 91.1377 158.33 91.1377Z" fill="#8B62FF"/>
<path d="M95.3294 90.4606C96.8252 90.4606 98.0377 89.248 98.0377 87.7523C98.0377 86.2565 96.8252 85.0439 95.3294 85.0439C93.8336 85.0439 92.6211 86.2565 92.6211 87.7523C92.6211 89.248 93.8336 90.4606 95.3294 90.4606Z" fill="#8B62FF"/>
<path fill-rule="evenodd" clip-rule="evenodd" d="M95.3297 91.1377C97.7603 91.1377 99.7307 92.2864 99.7307 93.7035V96.5543H90.9287V93.7035C90.9287 92.2864 92.8991 91.1377 95.3297 91.1377Z" fill="#8B62FF"/>
<path d="M183.599 90.4606C185.095 90.4606 186.307 89.248 186.307 87.7523C186.307 86.2565 185.095 85.0439 183.599 85.0439C182.103 85.0439 180.891 86.2565 180.891 87.7523C180.891 89.248 182.103 90.4606 183.599 90.4606Z" fill="#8B62FF"/>
<path fill-rule="evenodd" clip-rule="evenodd" d="M183.599 91.1377C186.03 91.1377 188 92.2864 188 93.7035V96.5543H179.198V93.7035C179.198 92.2864 181.169 91.1377 183.599 91.1377Z" fill="#8B62FF"/>
<path d="M120.599 90.4606C122.095 90.4606 123.307 89.248 123.307 87.7523C123.307 86.2565 122.095 85.0439 120.599 85.0439C119.103 85.0439 117.891 86.2565 117.891 87.7523C117.891 89.248 119.103 90.4606 120.599 90.4606Z" fill="#8B62FF"/>
<path fill-rule="evenodd" clip-rule="evenodd" d="M120.599 91.1377C123.03 91.1377 125 92.2864 125 93.7035V96.5543H116.198V93.7035C116.198 92.2864 118.169 91.1377 120.599 91.1377Z" fill="#8B62FF"/>
<path d="M282.928 157H293.628V153.94H288.168L290.328 152.4C292.728 150.76 293.488 149.34 293.488 147.52C293.488 144.9 291.328 143.02 288.248 143.02C285.988 143.02 284.208 143.96 282.748 145.72L284.888 147.84C285.928 146.74 286.888 146.12 288.168 146.12C289.168 146.12 289.988 146.72 289.988 147.66C289.988 148.5 289.548 149.26 288.008 150.42L282.928 154.22V157ZM301.788 157.24C305.508 157.24 308.128 154.3 308.128 150.12C308.128 145.96 305.508 143.02 301.788 143.02C298.088 143.02 295.468 145.96 295.468 150.12C295.468 154.3 298.088 157.24 301.788 157.24ZM301.788 154.14C300.148 154.14 298.988 152.46 298.988 150.12C298.988 147.78 300.148 146.12 301.788 146.12C303.448 146.12 304.608 147.78 304.608 150.12C304.608 152.46 303.448 154.14 301.788 154.14ZM313.542 150.2C315.622 150.2 317.062 148.66 317.062 146.66C317.062 144.72 315.682 143.12 313.542 143.12C311.422 143.12 310.042 144.7 310.042 146.66C310.042 148.66 311.442 150.2 313.542 150.2ZM311.882 157H314.462L324.062 143.26H321.482L311.882 157ZM313.542 148.26C312.802 148.26 312.242 147.64 312.242 146.66C312.242 145.66 312.782 145.06 313.542 145.06C314.282 145.06 314.862 145.68 314.862 146.66C314.862 147.66 314.302 148.26 313.542 148.26ZM322.362 157.22C324.442 157.22 325.882 155.66 325.882 153.68C325.882 151.72 324.502 150.12 322.382 150.12C320.282 150.12 318.862 151.68 318.862 153.68C318.862 155.64 320.262 157.22 322.362 157.22ZM322.382 155.28C321.622 155.28 321.062 154.66 321.062 153.68C321.062 152.66 321.602 152.08 322.362 152.08C323.102 152.08 323.682 152.7 323.682 153.68C323.682 154.68 323.122 155.28 322.382 155.28Z" fill="#542AED"/>
<path d="M10.0349 150H11.5049V143.13H10.3249L8.26492 144.51L8.86492 145.55L10.0349 144.82V150ZM13.8318 151.46C14.5418 150.77 14.8918 150.14 14.8918 149.55C14.8918 148.82 14.5018 148.3 13.9418 148.3C13.4418 148.3 13.0418 148.72 13.0418 149.22C13.0418 149.71 13.4318 150.12 13.9118 150.12C13.8318 150.44 13.6218 150.78 13.3018 151.06L13.8318 151.46ZM19.1833 150.12C20.9933 150.12 22.2633 148.65 22.2633 146.56C22.2633 144.48 20.9933 143.01 19.1833 143.01C17.3733 143.01 16.0933 144.48 16.0933 146.56C16.0933 148.65 17.3733 150.12 19.1833 150.12ZM19.1833 148.78C18.2633 148.78 17.6133 147.85 17.6133 146.56C17.6133 145.27 18.2633 144.35 19.1833 144.35C20.1033 144.35 20.7533 145.27 20.7533 146.56C20.7533 147.85 20.1033 148.78 19.1833 148.78ZM26.3122 150.12C28.1222 150.12 29.3922 148.65 29.3922 146.56C29.3922 144.48 28.1222 143.01 26.3122 143.01C24.5022 143.01 23.2222 144.48 23.2222 146.56C23.2222 148.65 24.5022 150.12 26.3122 150.12ZM26.3122 148.78C25.3922 148.78 24.7422 147.85 24.7422 146.56C24.7422 145.27 25.3922 144.35 26.3122 144.35C27.2322 144.35 27.8822 145.27 27.8822 146.56C27.8822 147.85 27.2322 148.78 26.3122 148.78ZM33.4411 150.12C35.2511 150.12 36.5211 148.65 36.5211 146.56C36.5211 144.48 35.2511 143.01 33.4411 143.01C31.6311 143.01 30.3511 144.48 30.3511 146.56C30.3511 148.65 31.6311 150.12 33.4411 150.12ZM33.4411 148.78C32.5211 148.78 31.8711 147.85 31.8711 146.56C31.8711 145.27 32.5211 144.35 33.4411 144.35C34.3611 144.35 35.0111 145.27 35.0111 146.56C35.0111 147.85 34.3611 148.78 33.4411 148.78ZM1.67461 160.87H4.41461V159.63H1.67461V160.87ZM11.6298 163H13.0998V161.6H14.0098V160.36H13.0998V156.14H11.3198L8.12984 160.46L8.26984 161.6H11.6298V163ZM9.67984 160.36L11.6298 157.7V160.36H9.67984ZM15.824 164.46C16.534 163.77 16.884 163.14 16.884 162.55C16.884 161.82 16.494 161.3 15.934 161.3C15.434 161.3 15.034 161.72 15.034 162.22C15.034 162.71 15.424 163.12 15.904 163.12C15.824 163.44 15.614 163.78 15.294 164.06L15.824 164.46ZM20.6455 156.01C19.1455 156.01 18.0155 156.98 18.0155 158.39C18.0155 159.75 19.0655 160.57 20.3355 160.57C20.9855 160.57 21.6155 160.32 22.0355 159.91C21.9055 161.07 21.3055 161.82 20.4055 161.82C19.8255 161.82 19.4255 161.61 19.0055 161.26L18.3055 162.38C18.8655 162.83 19.5555 163.12 20.4055 163.12C22.3155 163.12 23.5655 161.59 23.5655 159.45C23.5655 157.45 22.6455 156.01 20.6455 156.01ZM20.7655 159.37C20.0955 159.37 19.5355 158.98 19.5355 158.32C19.5355 157.77 19.9955 157.26 20.7255 157.26C21.4955 157.26 21.8655 157.73 21.9955 158.57C21.7855 159.06 21.3255 159.37 20.7655 159.37ZM27.1103 156.01C25.6103 156.01 24.4803 156.98 24.4803 158.39C24.4803 159.75 25.5303 160.57 26.8003 160.57C27.4503 160.57 28.0803 160.32 28.5003 159.91C28.3703 161.07 27.7703 161.82 26.8703 161.82C26.2903 161.82 25.8903 161.61 25.4703 161.26L24.7703 162.38C25.3303 162.83 26.0203 163.12 26.8703 163.12C28.7803 163.12 30.0303 161.59 30.0303 159.45C30.0303 157.45 29.1103 156.01 27.1103 156.01ZM27.2303 159.37C26.5603 159.37 26.0003 158.98 26.0003 158.32C26.0003 157.77 26.4603 157.26 27.1903 157.26C27.9603 157.26 28.3303 157.73 28.4603 158.57C28.2503 159.06 27.7903 159.37 27.2303 159.37ZM33.5752 156.01C32.0752 156.01 30.9452 156.98 30.9452 158.39C30.9452 159.75 31.9952 160.57 33.2652 160.57C33.9152 160.57 34.5452 160.32 34.9652 159.91C34.8352 161.07 34.2352 161.82 33.3352 161.82C32.7552 161.82 32.3552 161.61 31.9352 161.26L31.2352 162.38C31.7952 162.83 32.4852 163.12 33.3352 163.12C35.2452 163.12 36.4952 161.59 36.4952 159.45C36.4952 157.45 35.5752 156.01 33.5752 156.01ZM33.6952 159.37C33.0252 159.37 32.4652 158.98 32.4652 158.32C32.4652 157.77 32.9252 157.26 33.6552 157.26C34.4252 157.26 34.7952 157.73 34.9252 158.57C34.7152 159.06 34.2552 159.37 33.6952 159.37Z" fill="#0F0B47"/>
<path d="M133.401 143.417C134.896 143.417 136.109 142.204 136.109 140.708C136.109 139.213 134.896 138 133.401 138C131.905 138 130.692 139.213 130.692 140.708C130.692 142.204 131.905 143.417 133.401 143.417Z" fill="#542AED"/>
<path fill-rule="evenodd" clip-rule="evenodd" d="M133.401 144.094C135.832 144.094 137.802 145.242 137.802 146.66V149.51H129V146.66C129 145.242 130.97 144.094 133.401 144.094Z" fill="#542AED"/>
<path d="M70.4007 143.417C71.8965 143.417 73.109 142.204 73.109 140.708C73.109 139.213 71.8965 138 70.4007 138C68.9049 138 67.6924 139.213 67.6924 140.708C67.6924 142.204 68.9049 143.417 70.4007 143.417Z" fill="#542AED"/>
<path fill-rule="evenodd" clip-rule="evenodd" d="M70.401 144.094C72.8316 144.094 74.802 145.242 74.802 146.66V149.51H66V146.66C66 145.242 67.9704 144.094 70.401 144.094Z" fill="#542AED"/>
<path d="M145.865 143.417C147.36 143.417 148.573 142.204 148.573 140.708C148.573 139.213 147.36 138 145.865 138C144.369 138 143.156 139.213 143.156 140.708C143.156 142.204 144.369 143.417 145.865 143.417Z" fill="#542AED"/>
<path fill-rule="evenodd" clip-rule="evenodd" d="M145.865 144.094C148.295 144.094 150.266 145.242 150.266 146.66V149.51H141.464V146.66C141.464 145.242 143.434 144.094 145.865 144.094Z" fill="#542AED"/>
<path d="M82.8646 143.417C84.3603 143.417 85.5729 142.204 85.5729 140.708C85.5729 139.213 84.3603 138 82.8646 138C81.3688 138 80.1562 139.213 80.1562 140.708C80.1562 142.204 81.3688 143.417 82.8646 143.417Z" fill="#542AED"/>
<path fill-rule="evenodd" clip-rule="evenodd" d="M82.8649 144.094C85.2955 144.094 87.2659 145.242 87.2659 146.66V149.51H78.4639V146.66C78.4639 145.242 80.4343 144.094 82.8649 144.094Z" fill="#542AED"/>
<path d="M171.135 143.417C172.631 143.417 173.843 142.204 173.843 140.708C173.843 139.213 172.631 138 171.135 138C169.639 138 168.427 139.213 168.427 140.708C168.427 142.204 169.639 143.417 171.135 143.417Z" fill="#542AED"/>
<path fill-rule="evenodd" clip-rule="evenodd" d="M171.135 144.094C173.566 144.094 175.536 145.242 175.536 146.66V149.51H166.734V146.66C166.734 145.242 168.705 144.094 171.135 144.094Z" fill="#542AED"/>
<path d="M108.135 143.417C109.631 143.417 110.843 142.204 110.843 140.708C110.843 139.213 109.631 138 108.135 138C106.639 138 105.427 139.213 105.427 140.708C105.427 142.204 106.639 143.417 108.135 143.417Z" fill="#542AED"/>
<path fill-rule="evenodd" clip-rule="evenodd" d="M108.135 144.094C110.566 144.094 112.536 145.242 112.536 146.66V149.51H103.734V146.66C103.734 145.242 105.705 144.094 108.135 144.094Z" fill="#542AED"/>
<path d="M158.329 143.417C159.825 143.417 161.038 142.204 161.038 140.708C161.038 139.213 159.825 138 158.329 138C156.834 138 155.621 139.213 155.621 140.708C155.621 142.204 156.834 143.417 158.329 143.417Z" fill="#542AED"/>
<path fill-rule="evenodd" clip-rule="evenodd" d="M158.33 144.094C160.76 144.094 162.731 145.242 162.731 146.66V149.51H153.929V146.66C153.929 145.242 155.899 144.094 158.33 144.094Z" fill="#542AED"/>
<path d="M95.3294 143.417C96.8252 143.417 98.0377 142.204 98.0377 140.708C98.0377 139.213 96.8252 138 95.3294 138C93.8336 138 92.6211 139.213 92.6211 140.708C92.6211 142.204 93.8336 143.417 95.3294 143.417Z" fill="#542AED"/>
<path fill-rule="evenodd" clip-rule="evenodd" d="M95.3297 144.094C97.7603 144.094 99.7307 145.242 99.7307 146.66V149.51H90.9287V146.66C90.9287 145.242 92.8991 144.094 95.3297 144.094Z" fill="#542AED"/>
<path d="M183.599 143.417C185.095 143.417 186.307 142.204 186.307 140.708C186.307 139.213 185.095 138 183.599 138C182.103 138 180.891 139.213 180.891 140.708C180.891 142.204 182.103 143.417 183.599 143.417Z" fill="#542AED"/>
<path fill-rule="evenodd" clip-rule="evenodd" d="M183.599 144.094C186.03 144.094 188 145.242 188 146.66V149.51H179.198V146.66C179.198 145.242 181.169 144.094 183.599 144.094Z" fill="#542AED"/>
<path d="M120.599 143.417C122.095 143.417 123.307 142.204 123.307 140.708C123.307 139.213 122.095 138 120.599 138C119.103 138 117.891 139.213 117.891 140.708C117.891 142.204 119.103 143.417 120.599 143.417Z" fill="#542AED"/>
<path fill-rule="evenodd" clip-rule="evenodd" d="M120.599 144.094C123.03 144.094 125 145.242 125 146.66V149.51H116.198V146.66C116.198 145.242 118.169 144.094 120.599 144.094Z" fill="#542AED"/>
<path d="M133.401 158.461C134.896 158.461 136.109 157.248 136.109 155.752C136.109 154.256 134.896 153.044 133.401 153.044C131.905 153.044 130.692 154.256 130.692 155.752C130.692 157.248 131.905 158.461 133.401 158.461Z" fill="#542AED"/>
<path fill-rule="evenodd" clip-rule="evenodd" d="M133.401 159.138C135.832 159.138 137.802 160.286 137.802 161.703V164.554H129V161.703C129 160.286 130.97 159.138 133.401 159.138Z" fill="#542AED"/>
<path d="M70.4007 158.461C71.8965 158.461 73.109 157.248 73.109 155.752C73.109 154.256 71.8965 153.044 70.4007 153.044C68.9049 153.044 67.6924 154.256 67.6924 155.752C67.6924 157.248 68.9049 158.461 70.4007 158.461Z" fill="#542AED"/>
<path fill-rule="evenodd" clip-rule="evenodd" d="M70.401 159.138C72.8316 159.138 74.802 160.286 74.802 161.703V164.554H66V161.703C66 160.286 67.9704 159.138 70.401 159.138Z" fill="#542AED"/>
<path d="M145.865 158.461C147.36 158.461 148.573 157.248 148.573 155.752C148.573 154.256 147.36 153.044 145.865 153.044C144.369 153.044 143.156 154.256 143.156 155.752C143.156 157.248 144.369 158.461 145.865 158.461Z" fill="#542AED"/>
<path fill-rule="evenodd" clip-rule="evenodd" d="M145.865 159.138C148.295 159.138 150.266 160.286 150.266 161.703V164.554H141.464V161.703C141.464 160.286 143.434 159.138 145.865 159.138Z" fill="#542AED"/>
<path d="M82.8646 158.461C84.3603 158.461 85.5729 157.248 85.5729 155.752C85.5729 154.256 84.3603 153.044 82.8646 153.044C81.3688 153.044 80.1562 154.256 80.1562 155.752C80.1562 157.248 81.3688 158.461 82.8646 158.461Z" fill="#542AED"/>
<path fill-rule="evenodd" clip-rule="evenodd" d="M82.8649 159.138C85.2955 159.138 87.2659 160.286 87.2659 161.703V164.554H78.4639V161.703C78.4639 160.286 80.4343 159.138 82.8649 159.138Z" fill="#542AED"/>
<path d="M171.135 158.461C172.631 158.461 173.843 157.248 173.843 155.752C173.843 154.256 172.631 153.044 171.135 153.044C169.639 153.044 168.427 154.256 168.427 155.752C168.427 157.248 169.639 158.461 171.135 158.461Z" fill="#542AED"/>
<path fill-rule="evenodd" clip-rule="evenodd" d="M171.135 159.138C173.566 159.138 175.536 160.286 175.536 161.703V164.554H166.734V161.703C166.734 160.286 168.705 159.138 171.135 159.138Z" fill="#542AED"/>
<path d="M108.135 158.461C109.631 158.461 110.843 157.248 110.843 155.752C110.843 154.256 109.631 153.044 108.135 153.044C106.639 153.044 105.427 154.256 105.427 155.752C105.427 157.248 106.639 158.461 108.135 158.461Z" fill="#542AED"/>
<path fill-rule="evenodd" clip-rule="evenodd" d="M108.135 159.138C110.566 159.138 112.536 160.286 112.536 161.703V164.554H103.734V161.703C103.734 160.286 105.705 159.138 108.135 159.138Z" fill="#542AED"/>
<path d="M158.329 158.461C159.825 158.461 161.038 157.248 161.038 155.752C161.038 154.256 159.825 153.044 158.329 153.044C156.834 153.044 155.621 154.256 155.621 155.752C155.621 157.248 156.834 158.461 158.329 158.461Z" fill="#542AED"/>
<path fill-rule="evenodd" clip-rule="evenodd" d="M158.33 159.138C160.76 159.138 162.731 160.286 162.731 161.703V164.554H153.929V161.703C153.929 160.286 155.899 159.138 158.33 159.138Z" fill="#542AED"/>
<path d="M95.3294 158.461C96.8252 158.461 98.0377 157.248 98.0377 155.752C98.0377 154.256 96.8252 153.044 95.3294 153.044C93.8336 153.044 92.6211 154.256 92.6211 155.752C92.6211 157.248 93.8336 158.461 95.3294 158.461Z" fill="#542AED"/>
<path fill-rule="evenodd" clip-rule="evenodd" d="M95.3297 159.138C97.7603 159.138 99.7307 160.286 99.7307 161.703V164.554H90.9287V161.703C90.9287 160.286 92.8991 159.138 95.3297 159.138Z" fill="#542AED"/>
<path d="M183.599 158.461C185.095 158.461 186.307 157.248 186.307 155.752C186.307 154.256 185.095 153.044 183.599 153.044C182.103 153.044 180.891 154.256 180.891 155.752C180.891 157.248 182.103 158.461 183.599 158.461Z" fill="#542AED"/>
<path fill-rule="evenodd" clip-rule="evenodd" d="M183.599 159.138C186.03 159.138 188 160.286 188 161.703V164.554H179.198V161.703C179.198 160.286 181.169 159.138 183.599 159.138Z" fill="#542AED"/>
<path d="M120.599 158.461C122.095 158.461 123.307 157.248 123.307 155.752C123.307 154.256 122.095 153.044 120.599 153.044C119.103 153.044 117.891 154.256 117.891 155.752C117.891 157.248 119.103 158.461 120.599 158.461Z" fill="#542AED"/>
<path fill-rule="evenodd" clip-rule="evenodd" d="M120.599 159.138C123.03 159.138 125 160.286 125 161.703V164.554H116.198V161.703C116.198 160.286 118.169 159.138 120.599 159.138Z" fill="#542AED"/>
<path d="M284.073 225H294.773V221.94H289.313L291.473 220.4C293.873 218.76 294.633 217.34 294.633 215.52C294.633 212.9 292.473 211.02 289.393 211.02C287.133 211.02 285.353 211.96 283.893 213.72L286.033 215.84C287.073 214.74 288.033 214.12 289.313 214.12C290.313 214.12 291.133 214.72 291.133 215.66C291.133 216.5 290.693 217.26 289.153 218.42L284.073 222.22V225ZM303.452 216.02C302.252 216.02 301.072 216.44 300.252 217.12C300.552 215.16 301.592 214 303.232 214C304.332 214 305.112 214.38 305.952 215.04L307.532 212.46C306.352 211.56 304.932 211.02 303.212 211.02C299.172 211.02 296.632 214.02 296.632 218.38C296.632 222.42 298.592 225.24 302.692 225.24C305.752 225.24 308.092 223.32 308.092 220.42C308.092 217.68 305.992 216.02 303.452 216.02ZM302.472 222.34C301.092 222.34 300.472 221.6 300.252 220.1C300.652 219.28 301.452 218.76 302.392 218.76C303.572 218.76 304.572 219.42 304.572 220.56C304.572 221.54 303.752 222.34 302.472 222.34ZM313.397 218.2C315.477 218.2 316.917 216.66 316.917 214.66C316.917 212.72 315.537 211.12 313.397 211.12C311.277 211.12 309.897 212.7 309.897 214.66C309.897 216.66 311.297 218.2 313.397 218.2ZM311.737 225H314.317L323.917 211.26H321.337L311.737 225ZM313.397 216.26C312.657 216.26 312.097 215.64 312.097 214.66C312.097 213.66 312.637 213.06 313.397 213.06C314.137 213.06 314.717 213.68 314.717 214.66C314.717 215.66 314.157 216.26 313.397 216.26ZM322.217 225.22C324.297 225.22 325.737 223.66 325.737 221.68C325.737 219.72 324.357 218.12 322.237 218.12C320.137 218.12 318.717 219.68 318.717 221.68C318.717 223.64 320.117 225.22 322.217 225.22ZM322.237 223.28C321.477 223.28 320.917 222.66 320.917 221.68C320.917 220.66 321.457 220.08 322.217 220.08C322.957 220.08 323.537 220.7 323.537 221.68C323.537 222.68 322.977 223.28 322.237 223.28Z" fill="#0F0B47"/>
<path d="M3.1457 223.13C4.7857 223.13 5.8757 222.2 5.8757 220.74C5.8757 219.34 4.8257 218.56 3.6057 218.56C3.0457 218.56 2.6057 218.74 2.2657 218.98L2.3057 217.46H5.5057V216.13H0.945703L0.845703 219.84L1.8357 220.24C2.2057 219.96 2.6457 219.79 3.1657 219.79C3.9157 219.79 4.4057 220.19 4.4057 220.79C4.4057 221.38 3.9357 221.84 3.1557 221.84C2.4957 221.84 1.8757 221.52 1.3557 221.03L0.485703 222.07C1.1257 222.71 1.9957 223.13 3.1457 223.13ZM7.80641 224.46C8.51641 223.77 8.86641 223.14 8.86641 222.55C8.86641 221.82 8.47641 221.3 7.91641 221.3C7.41641 221.3 7.01641 221.72 7.01641 222.22C7.01641 222.71 7.40641 223.12 7.88641 223.12C7.80641 223.44 7.59641 223.78 7.27641 224.06L7.80641 224.46ZM13.1579 223.12C14.9679 223.12 16.2379 221.65 16.2379 219.56C16.2379 217.48 14.9679 216.01 13.1579 216.01C11.3479 216.01 10.0679 217.48 10.0679 219.56C10.0679 221.65 11.3479 223.12 13.1579 223.12ZM13.1579 221.78C12.2379 221.78 11.5879 220.85 11.5879 219.56C11.5879 218.27 12.2379 217.35 13.1579 217.35C14.0779 217.35 14.7279 218.27 14.7279 219.56C14.7279 220.85 14.0779 221.78 13.1579 221.78ZM20.2868 223.12C22.0968 223.12 23.3668 221.65 23.3668 219.56C23.3668 217.48 22.0968 216.01 20.2868 216.01C18.4768 216.01 17.1968 217.48 17.1968 219.56C17.1968 221.65 18.4768 223.12 20.2868 223.12ZM20.2868 221.78C19.3668 221.78 18.7168 220.85 18.7168 219.56C18.7168 218.27 19.3668 217.35 20.2868 217.35C21.2068 217.35 21.8568 218.27 21.8568 219.56C21.8568 220.85 21.2068 221.78 20.2868 221.78ZM27.4157 223.12C29.2257 223.12 30.4957 221.65 30.4957 219.56C30.4957 217.48 29.2257 216.01 27.4157 216.01C25.6057 216.01 24.3257 217.48 24.3257 219.56C24.3257 221.65 25.6057 223.12 27.4157 223.12ZM27.4157 221.78C26.4957 221.78 25.8457 220.85 25.8457 219.56C25.8457 218.27 26.4957 217.35 27.4157 217.35C28.3357 217.35 28.9857 218.27 28.9857 219.56C28.9857 220.85 28.3357 221.78 27.4157 221.78ZM36.4046 219.07H34.6246V217.25H33.3646V219.07H31.5746V220.26H33.3646V222.08H34.6246V220.26H36.4046V219.07Z" fill="#0F0B47"/>
<path d="M133.401 211.417C134.896 211.417 136.109 210.204 136.109 208.708C136.109 207.213 134.896 206 133.401 206C131.905 206 130.692 207.213 130.692 208.708C130.692 210.204 131.905 211.417 133.401 211.417Z" fill="#1B0085"/>
<path fill-rule="evenodd" clip-rule="evenodd" d="M133.401 212.094C135.832 212.094 137.802 213.242 137.802 214.66V217.51H129V214.66C129 213.242 130.97 212.094 133.401 212.094Z" fill="#1B0085"/>
<path d="M70.4007 211.417C71.8965 211.417 73.109 210.204 73.109 208.708C73.109 207.213 71.8965 206 70.4007 206C68.9049 206 67.6924 207.213 67.6924 208.708C67.6924 210.204 68.9049 211.417 70.4007 211.417Z" fill="#1B0085"/>
<path fill-rule="evenodd" clip-rule="evenodd" d="M70.401 212.094C72.8316 212.094 74.802 213.242 74.802 214.66V217.51H66V214.66C66 213.242 67.9704 212.094 70.401 212.094Z" fill="#1B0085"/>
<path d="M145.865 211.417C147.36 211.417 148.573 210.204 148.573 208.708C148.573 207.213 147.36 206 145.865 206C144.369 206 143.156 207.213 143.156 208.708C143.156 210.204 144.369 211.417 145.865 211.417Z" fill="#1B0085"/>
<path fill-rule="evenodd" clip-rule="evenodd" d="M145.865 212.094C148.295 212.094 150.266 213.242 150.266 214.66V217.51H141.464V214.66C141.464 213.242 143.434 212.094 145.865 212.094Z" fill="#1B0085"/>
<path d="M82.8646 211.417C84.3603 211.417 85.5729 210.204 85.5729 208.708C85.5729 207.213 84.3603 206 82.8646 206C81.3688 206 80.1562 207.213 80.1562 208.708C80.1562 210.204 81.3688 211.417 82.8646 211.417Z" fill="#1B0085"/>
<path fill-rule="evenodd" clip-rule="evenodd" d="M82.8649 212.094C85.2955 212.094 87.2659 213.242 87.2659 214.66V217.51H78.4639V214.66C78.4639 213.242 80.4343 212.094 82.8649 212.094Z" fill="#1B0085"/>
<path d="M171.135 211.417C172.631 211.417 173.843 210.204 173.843 208.708C173.843 207.213 172.631 206 171.135 206C169.639 206 168.427 207.213 168.427 208.708C168.427 210.204 169.639 211.417 171.135 211.417Z" fill="#1B0085"/>
<path fill-rule="evenodd" clip-rule="evenodd" d="M171.135 212.094C173.566 212.094 175.536 213.242 175.536 214.66V217.51H166.734V214.66C166.734 213.242 168.705 212.094 171.135 212.094Z" fill="#1B0085"/>
<path d="M209.206 211.417C210.702 211.417 211.915 210.204 211.915 208.708C211.915 207.213 210.702 206 209.206 206C207.711 206 206.498 207.213 206.498 208.708C206.498 210.204 207.711 211.417 209.206 211.417Z" fill="#1B0085"/>
<path fill-rule="evenodd" clip-rule="evenodd" d="M209.207 212.094C211.637 212.094 213.608 213.242 213.608 214.66V217.51H204.806V214.66C204.806 213.242 206.776 212.094 209.207 212.094Z" fill="#1B0085"/>
<path d="M158.329 211.417C159.825 211.417 161.038 210.204 161.038 208.708C161.038 207.213 159.825 206 158.329 206C156.834 206 155.621 207.213 155.621 208.708C155.621 210.204 156.834 211.417 158.329 211.417Z" fill="#1B0085"/>
<path fill-rule="evenodd" clip-rule="evenodd" d="M158.33 212.094C160.76 212.094 162.731 213.242 162.731 214.66V217.51H153.929V214.66C153.929 213.242 155.899 212.094 158.33 212.094Z" fill="#1B0085"/>
<path d="M108.135 211.417C109.631 211.417 110.843 210.204 110.843 208.708C110.843 207.213 109.631 206 108.135 206C106.639 206 105.427 207.213 105.427 208.708C105.427 210.204 106.639 211.417 108.135 211.417Z" fill="#1B0085"/>
<path fill-rule="evenodd" clip-rule="evenodd" d="M108.135 212.094C110.566 212.094 112.536 213.242 112.536 214.66V217.51H103.734V214.66C103.734 213.242 105.705 212.094 108.135 212.094Z" fill="#1B0085"/>
<path d="M183.599 211.417C185.095 211.417 186.307 210.204 186.307 208.708C186.307 207.213 185.095 206 183.599 206C182.103 206 180.891 207.213 180.891 208.708C180.891 210.204 182.103 211.417 183.599 211.417Z" fill="#1B0085"/>
<path fill-rule="evenodd" clip-rule="evenodd" d="M183.599 212.094C186.03 212.094 188 213.242 188 214.66V217.51H179.198V214.66C179.198 213.242 181.169 212.094 183.599 212.094Z" fill="#1B0085"/>
<path d="M196.401 211.417C197.896 211.417 199.109 210.204 199.109 208.708C199.109 207.213 197.896 206 196.401 206C194.905 206 193.692 207.213 193.692 208.708C193.692 210.204 194.905 211.417 196.401 211.417Z" fill="#1B0085"/>
<path fill-rule="evenodd" clip-rule="evenodd" d="M196.401 212.094C198.832 212.094 200.802 213.242 200.802 214.66V217.51H192V214.66C192 213.242 193.97 212.094 196.401 212.094Z" fill="#1B0085"/>
<path d="M95.3294 211.417C96.8252 211.417 98.0377 210.204 98.0377 208.708C98.0377 207.213 96.8252 206 95.3294 206C93.8336 206 92.6211 207.213 92.6211 208.708C92.6211 210.204 93.8336 211.417 95.3294 211.417Z" fill="#1B0085"/>
<path fill-rule="evenodd" clip-rule="evenodd" d="M95.3297 212.094C97.7603 212.094 99.7307 213.242 99.7307 214.66V217.51H90.9287V214.66C90.9287 213.242 92.8991 212.094 95.3297 212.094Z" fill="#1B0085"/>
<path d="M221.67 211.417C223.166 211.417 224.379 210.204 224.379 208.708C224.379 207.213 223.166 206 221.67 206C220.174 206 218.962 207.213 218.962 208.708C218.962 210.204 220.174 211.417 221.67 211.417Z" fill="#1B0085"/>
<path fill-rule="evenodd" clip-rule="evenodd" d="M221.671 212.094C224.101 212.094 226.072 213.242 226.072 214.66V217.51H217.27V214.66C217.27 213.242 219.24 212.094 221.671 212.094Z" fill="#1B0085"/>
<path d="M120.599 211.417C122.095 211.417 123.307 210.204 123.307 208.708C123.307 207.213 122.095 206 120.599 206C119.103 206 117.891 207.213 117.891 208.708C117.891 210.204 119.103 211.417 120.599 211.417Z" fill="#1B0085"/>
<path fill-rule="evenodd" clip-rule="evenodd" d="M120.599 212.094C123.03 212.094 125 213.242 125 214.66V217.51H116.198V214.66C116.198 213.242 118.169 212.094 120.599 212.094Z" fill="#1B0085"/>
<path d="M133.401 226.461C134.896 226.461 136.109 225.248 136.109 223.752C136.109 222.256 134.896 221.044 133.401 221.044C131.905 221.044 130.692 222.256 130.692 223.752C130.692 225.248 131.905 226.461 133.401 226.461Z" fill="#1B0085"/>
<path fill-rule="evenodd" clip-rule="evenodd" d="M133.401 227.138C135.832 227.138 137.802 228.286 137.802 229.703V232.554H129V229.703C129 228.286 130.97 227.138 133.401 227.138Z" fill="#1B0085"/>
<path d="M171.135 226.461C172.631 226.461 173.843 225.248 173.843 223.752C173.843 222.256 172.631 221.044 171.135 221.044C169.639 221.044 168.427 222.256 168.427 223.752C168.427 225.248 169.639 226.461 171.135 226.461Z" fill="#1B0085"/>
<path fill-rule="evenodd" clip-rule="evenodd" d="M171.135 227.138C173.566 227.138 175.536 228.286 175.536 229.703V232.554H166.734V229.703C166.734 228.286 168.705 227.138 171.135 227.138Z" fill="#1B0085"/>
<path d="M70.4007 226.461C71.8965 226.461 73.109 225.248 73.109 223.752C73.109 222.256 71.8965 221.044 70.4007 221.044C68.9049 221.044 67.6924 222.256 67.6924 223.752C67.6924 225.248 68.9049 226.461 70.4007 226.461Z" fill="#1B0085"/>
<path fill-rule="evenodd" clip-rule="evenodd" d="M70.401 227.138C72.8316 227.138 74.802 228.286 74.802 229.703V232.554H66V229.703C66 228.286 67.9704 227.138 70.401 227.138Z" fill="#1B0085"/>
<path d="M158.329 226.461C159.825 226.461 161.038 225.248 161.038 223.752C161.038 222.256 159.825 221.044 158.329 221.044C156.834 221.044 155.621 222.256 155.621 223.752C155.621 225.248 156.834 226.461 158.329 226.461Z" fill="#1B0085"/>
<path fill-rule="evenodd" clip-rule="evenodd" d="M158.33 227.138C160.76 227.138 162.731 228.286 162.731 229.703V232.554H153.929V229.703C153.929 228.286 155.899 227.138 158.33 227.138Z" fill="#1B0085"/>
<path d="M145.865 226.461C147.36 226.461 148.573 225.248 148.573 223.752C148.573 222.256 147.36 221.044 145.865 221.044C144.369 221.044 143.156 222.256 143.156 223.752C143.156 225.248 144.369 226.461 145.865 226.461Z" fill="#1B0085"/>
<path fill-rule="evenodd" clip-rule="evenodd" d="M145.865 227.138C148.295 227.138 150.266 228.286 150.266 229.703V232.554H141.464V229.703C141.464 228.286 143.434 227.138 145.865 227.138Z" fill="#1B0085"/>
<path d="M183.599 226.461C185.095 226.461 186.307 225.248 186.307 223.752C186.307 222.256 185.095 221.044 183.599 221.044C182.103 221.044 180.891 222.256 180.891 223.752C180.891 225.248 182.103 226.461 183.599 226.461Z" fill="#1B0085"/>
<path fill-rule="evenodd" clip-rule="evenodd" d="M183.599 227.138C186.03 227.138 188 228.286 188 229.703V232.554H179.198V229.703C179.198 228.286 181.169 227.138 183.599 227.138Z" fill="#1B0085"/>
<path d="M82.8646 226.461C84.3603 226.461 85.5729 225.248 85.5729 223.752C85.5729 222.256 84.3603 221.044 82.8646 221.044C81.3688 221.044 80.1562 222.256 80.1562 223.752C80.1562 225.248 81.3688 226.461 82.8646 226.461Z" fill="#1B0085"/>
<path fill-rule="evenodd" clip-rule="evenodd" d="M82.8649 227.138C85.2955 227.138 87.2659 228.286 87.2659 229.703V232.554H78.4639V229.703C78.4639 228.286 80.4343 227.138 82.8649 227.138Z" fill="#1B0085"/>
<path d="M209.206 226.461C210.702 226.461 211.915 225.248 211.915 223.752C211.915 222.256 210.702 221.044 209.206 221.044C207.711 221.044 206.498 222.256 206.498 223.752C206.498 225.248 207.711 226.461 209.206 226.461Z" fill="#1B0085"/>
<path fill-rule="evenodd" clip-rule="evenodd" d="M209.207 227.138C211.637 227.138 213.608 228.286 213.608 229.703V232.554H204.806V229.703C204.806 228.286 206.776 227.138 209.207 227.138Z" fill="#1B0085"/>
<path d="M108.135 226.461C109.631 226.461 110.843 225.248 110.843 223.752C110.843 222.256 109.631 221.044 108.135 221.044C106.639 221.044 105.427 222.256 105.427 223.752C105.427 225.248 106.639 226.461 108.135 226.461Z" fill="#1B0085"/>
<path fill-rule="evenodd" clip-rule="evenodd" d="M108.135 227.138C110.566 227.138 112.536 228.286 112.536 229.703V232.554H103.734V229.703C103.734 228.286 105.705 227.138 108.135 227.138Z" fill="#1B0085"/>
<path d="M196.401 226.461C197.896 226.461 199.109 225.248 199.109 223.752C199.109 222.256 197.896 221.044 196.401 221.044C194.905 221.044 193.692 222.256 193.692 223.752C193.692 225.248 194.905 226.461 196.401 226.461Z" fill="#1B0085"/>
<path fill-rule="evenodd" clip-rule="evenodd" d="M196.401 227.138C198.832 227.138 200.802 228.286 200.802 229.703V232.554H192V229.703C192 228.286 193.97 227.138 196.401 227.138Z" fill="#1B0085"/>
<path d="M95.3294 226.461C96.8252 226.461 98.0377 225.248 98.0377 223.752C98.0377 222.256 96.8252 221.044 95.3294 221.044C93.8336 221.044 92.6211 222.256 92.6211 223.752C92.6211 225.248 93.8336 226.461 95.3294 226.461Z" fill="#1B0085"/>
<path fill-rule="evenodd" clip-rule="evenodd" d="M95.3297 227.138C97.7603 227.138 99.7307 228.286 99.7307 229.703V232.554H90.9287V229.703C90.9287 228.286 92.8991 227.138 95.3297 227.138Z" fill="#1B0085"/>
<path d="M221.67 226.461C223.166 226.461 224.379 225.248 224.379 223.752C224.379 222.256 223.166 221.044 221.67 221.044C220.174 221.044 218.962 222.256 218.962 223.752C218.962 225.248 220.174 226.461 221.67 226.461Z" fill="#1B0085"/>
<path fill-rule="evenodd" clip-rule="evenodd" d="M221.671 227.138C224.101 227.138 226.072 228.286 226.072 229.703V232.554H217.27V229.703C217.27 228.286 219.24 227.138 221.671 227.138Z" fill="#1B0085"/>
<path d="M120.599 226.461C122.095 226.461 123.307 225.248 123.307 223.752C123.307 222.256 122.095 221.044 120.599 221.044C119.103 221.044 117.891 222.256 117.891 223.752C117.891 225.248 119.103 226.461 120.599 226.461Z" fill="#1B0085"/>
<path fill-rule="evenodd" clip-rule="evenodd" d="M120.599 227.138C123.03 227.138 125 228.286 125 229.703V232.554H116.198V229.703C116.198 228.286 118.169 227.138 120.599 227.138Z" fill="#1B0085"/>
<path d="M283.946 21H294.646V17.94H289.186L291.346 16.4C293.746 14.76 294.506 13.34 294.506 11.52C294.506 8.9 292.346 7.02 289.266 7.02C287.006 7.02 285.226 7.96 283.766 9.72L285.906 11.84C286.946 10.74 287.906 10.12 289.186 10.12C290.186 10.12 291.006 10.72 291.006 11.66C291.006 12.5 290.566 13.26 289.026 14.42L283.946 18.22V21ZM303.165 21H306.585V18.38H308.325V15.54H306.585V7.28H302.425L296.205 15.78L296.505 18.38H303.165V21ZM299.745 15.54L303.165 10.82V15.54H299.745ZM313.524 14.2C315.604 14.2 317.044 12.66 317.044 10.66C317.044 8.72 315.664 7.12 313.524 7.12C311.404 7.12 310.024 8.7 310.024 10.66C310.024 12.66 311.424 14.2 313.524 14.2ZM311.864 21H314.444L324.044 7.26H321.464L311.864 21ZM313.524 12.26C312.784 12.26 312.224 11.64 312.224 10.66C312.224 9.66 312.764 9.06 313.524 9.06C314.264 9.06 314.844 9.68 314.844 10.66C314.844 11.66 314.284 12.26 313.524 12.26ZM322.344 21.22C324.424 21.22 325.864 19.66 325.864 17.68C325.864 15.72 324.484 14.12 322.364 14.12C320.264 14.12 318.844 15.68 318.844 17.68C318.844 19.64 320.244 21.22 322.344 21.22ZM322.364 19.28C321.604 19.28 321.044 18.66 321.044 17.68C321.044 16.66 321.584 16.08 322.344 16.08C323.084 16.08 323.664 16.7 323.664 17.68C323.664 18.68 323.104 19.28 322.364 19.28Z" fill="#BDA6FF"/>
<path d="M12.1736 20H13.6436V13.13H12.4636L10.4036 14.51L11.0036 15.55L12.1736 14.82V20ZM17.9051 17.87H20.6451V16.63H17.9051V17.87ZM27.1103 13.01C25.6103 13.01 24.4803 13.98 24.4803 15.39C24.4803 16.75 25.5303 17.57 26.8003 17.57C27.4503 17.57 28.0803 17.32 28.5003 16.91C28.3703 18.07 27.7703 18.82 26.8703 18.82C26.2903 18.82 25.8903 18.61 25.4703 18.26L24.7703 19.38C25.3303 19.83 26.0203 20.12 26.8703 20.12C28.7803 20.12 30.0303 18.59 30.0303 16.45C30.0303 14.45 29.1103 13.01 27.1103 13.01ZM27.2303 16.37C26.5603 16.37 26.0003 15.98 26.0003 15.32C26.0003 14.77 26.4603 14.26 27.1903 14.26C27.9603 14.26 28.3303 14.73 28.4603 15.57C28.2503 16.06 27.7903 16.37 27.2303 16.37ZM33.5752 13.01C32.0752 13.01 30.9452 13.98 30.9452 15.39C30.9452 16.75 31.9952 17.57 33.2652 17.57C33.9152 17.57 34.5452 17.32 34.9652 16.91C34.8352 18.07 34.2352 18.82 33.3352 18.82C32.7552 18.82 32.3552 18.61 31.9352 18.26L31.2352 19.38C31.7952 19.83 32.4852 20.12 33.3352 20.12C35.2452 20.12 36.4952 18.59 36.4952 16.45C36.4952 14.45 35.5752 13.01 33.5752 13.01ZM33.6952 16.37C33.0252 16.37 32.4652 15.98 32.4652 15.32C32.4652 14.77 32.9252 14.26 33.6552 14.26C34.4252 14.26 34.7952 14.73 34.9252 15.57C34.7152 16.06 34.2552 16.37 33.6952 16.37Z" fill="#0F0B47"/>
<path d="M133.401 7.41662C134.896 7.41662 136.109 6.20407 136.109 4.70831C136.109 3.21255 134.896 2 133.401 2C131.905 2 130.692 3.21255 130.692 4.70831C130.692 6.20407 131.905 7.41662 133.401 7.41662Z" fill="#BDA6FF"/>
<path fill-rule="evenodd" clip-rule="evenodd" d="M133.401 8.09375C135.832 8.09375 137.802 9.24248 137.802 10.6595V13.5104H129V10.6595C129 9.24248 130.97 8.09375 133.401 8.09375Z" fill="#BDA6FF"/>
<path d="M70.4007 7.41662C71.8965 7.41662 73.109 6.20407 73.109 4.70831C73.109 3.21255 71.8965 2 70.4007 2C68.9049 2 67.6924 3.21255 67.6924 4.70831C67.6924 6.20407 68.9049 7.41662 70.4007 7.41662Z" fill="#BDA6FF"/>
<path fill-rule="evenodd" clip-rule="evenodd" d="M70.401 8.09375C72.8316 8.09375 74.802 9.24248 74.802 10.6595V13.5104H66V10.6595C66 9.24248 67.9704 8.09375 70.401 8.09375Z" fill="#BDA6FF"/>
<path d="M145.865 7.41662C147.36 7.41662 148.573 6.20407 148.573 4.70831C148.573 3.21255 147.36 2 145.865 2C144.369 2 143.156 3.21255 143.156 4.70831C143.156 6.20407 144.369 7.41662 145.865 7.41662Z" fill="#BDA6FF"/>
<path fill-rule="evenodd" clip-rule="evenodd" d="M145.865 8.09375C148.295 8.09375 150.266 9.24248 150.266 10.6595V13.5104H141.464V10.6595C141.464 9.24248 143.434 8.09375 145.865 8.09375Z" fill="#BDA6FF"/>
<path d="M82.8646 7.41662C84.3603 7.41662 85.5729 6.20407 85.5729 4.70831C85.5729 3.21255 84.3603 2 82.8646 2C81.3688 2 80.1562 3.21255 80.1562 4.70831C80.1562 6.20407 81.3688 7.41662 82.8646 7.41662Z" fill="#BDA6FF"/>
<path fill-rule="evenodd" clip-rule="evenodd" d="M82.8649 8.09375C85.2955 8.09375 87.2659 9.24248 87.2659 10.6595V13.5104H78.4639V10.6595C78.4639 9.24248 80.4343 8.09375 82.8649 8.09375Z" fill="#BDA6FF"/>
<path d="M171.135 7.41662C172.631 7.41662 173.843 6.20407 173.843 4.70831C173.843 3.21255 172.631 2 171.135 2C169.639 2 168.427 3.21255 168.427 4.70831C168.427 6.20407 169.639 7.41662 171.135 7.41662Z" fill="#BDA6FF"/>
<path fill-rule="evenodd" clip-rule="evenodd" d="M171.135 8.09375C173.566 8.09375 175.536 9.24248 175.536 10.6595V13.5104H166.734V10.6595C166.734 9.24248 168.705 8.09375 171.135 8.09375Z" fill="#BDA6FF"/>
<path d="M196.401 7.41662C197.896 7.41662 199.109 6.20407 199.109 4.70831C199.109 3.21255 197.896 2 196.401 2C194.905 2 193.692 3.21255 193.692 4.70831C193.692 6.20407 194.905 7.41662 196.401 7.41662Z" fill="#BDA6FF"/>
<path fill-rule="evenodd" clip-rule="evenodd" d="M196.401 8.09375C198.832 8.09375 200.802 9.24248 200.802 10.6595V13.5104H192V10.6595C192 9.24248 193.97 8.09375 196.401 8.09375Z" fill="#BDA6FF"/>
<path d="M108.135 7.41662C109.631 7.41662 110.843 6.20407 110.843 4.70831C110.843 3.21255 109.631 2 108.135 2C106.639 2 105.427 3.21255 105.427 4.70831C105.427 6.20407 106.639 7.41662 108.135 7.41662Z" fill="#BDA6FF"/>
<path fill-rule="evenodd" clip-rule="evenodd" d="M108.135 8.09375C110.566 8.09375 112.536 9.24248 112.536 10.6595V13.5104H103.734V10.6595C103.734 9.24248 105.705 8.09375 108.135 8.09375Z" fill="#BDA6FF"/>
<path d="M158.329 7.41662C159.825 7.41662 161.038 6.20407 161.038 4.70831C161.038 3.21255 159.825 2 158.329 2C156.834 2 155.621 3.21255 155.621 4.70831C155.621 6.20407 156.834 7.41662 158.329 7.41662Z" fill="#BDA6FF"/>
<path fill-rule="evenodd" clip-rule="evenodd" d="M158.33 8.09375C160.76 8.09375 162.731 9.24248 162.731 10.6595V13.5104H153.929V10.6595C153.929 9.24248 155.899 8.09375 158.33 8.09375Z" fill="#BDA6FF"/>
<path d="M183.599 7.41662C185.095 7.41662 186.307 6.20407 186.307 4.70831C186.307 3.21255 185.095 2 183.599 2C182.103 2 180.891 3.21255 180.891 4.70831C180.891 6.20407 182.103 7.41662 183.599 7.41662Z" fill="#BDA6FF"/>
<path fill-rule="evenodd" clip-rule="evenodd" d="M183.599 8.09375C186.03 8.09375 188 9.24248 188 10.6595V13.5104H179.198V10.6595C179.198 9.24248 181.169 8.09375 183.599 8.09375Z" fill="#BDA6FF"/>
<path d="M95.3294 7.41662C96.8252 7.41662 98.0377 6.20407 98.0377 4.70831C98.0377 3.21255 96.8252 2 95.3294 2C93.8336 2 92.6211 3.21255 92.6211 4.70831C92.6211 6.20407 93.8336 7.41662 95.3294 7.41662Z" fill="#BDA6FF"/>
<path fill-rule="evenodd" clip-rule="evenodd" d="M95.3297 8.09375C97.7603 8.09375 99.7307 9.24248 99.7307 10.6595V13.5104H90.9287V10.6595C90.9287 9.24248 92.8991 8.09375 95.3297 8.09375Z" fill="#BDA6FF"/>
<path d="M208.865 7.41662C210.36 7.41662 211.573 6.20407 211.573 4.70831C211.573 3.21255 210.36 2 208.865 2C207.369 2 206.156 3.21255 206.156 4.70831C206.156 6.20407 207.369 7.41662 208.865 7.41662Z" fill="#BDA6FF"/>
<path fill-rule="evenodd" clip-rule="evenodd" d="M208.865 8.09375C211.295 8.09375 213.266 9.24248 213.266 10.6595V13.5104H204.464V10.6595C204.464 9.24248 206.434 8.09375 208.865 8.09375Z" fill="#BDA6FF"/>
<path d="M120.599 7.41662C122.095 7.41662 123.307 6.20407 123.307 4.70831C123.307 3.21255 122.095 2 120.599 2C119.103 2 117.891 3.21255 117.891 4.70831C117.891 6.20407 119.103 7.41662 120.599 7.41662Z" fill="#BDA6FF"/>
<path fill-rule="evenodd" clip-rule="evenodd" d="M120.599 8.09375C123.03 8.09375 125 9.24248 125 10.6595V13.5104H116.198V10.6595C116.198 9.24248 118.169 8.09375 120.599 8.09375Z" fill="#BDA6FF"/>
<path d="M133.401 22.4606C134.896 22.4606 136.109 21.248 136.109 19.7523C136.109 18.2565 134.896 17.0439 133.401 17.0439C131.905 17.0439 130.692 18.2565 130.692 19.7523C130.692 21.248 131.905 22.4606 133.401 22.4606Z" fill="#BDA6FF"/>
<path fill-rule="evenodd" clip-rule="evenodd" d="M133.401 23.1377C135.832 23.1377 137.802 24.2864 137.802 25.7035V28.5543H129V25.7035C129 24.2864 130.97 23.1377 133.401 23.1377Z" fill="#BDA6FF"/>
<path d="M70.4007 22.4606C71.8965 22.4606 73.109 21.248 73.109 19.7523C73.109 18.2565 71.8965 17.0439 70.4007 17.0439C68.9049 17.0439 67.6924 18.2565 67.6924 19.7523C67.6924 21.248 68.9049 22.4606 70.4007 22.4606Z" fill="#BDA6FF"/>
<path fill-rule="evenodd" clip-rule="evenodd" d="M70.401 23.1377C72.8316 23.1377 74.802 24.2864 74.802 25.7035V28.5543H66V25.7035C66 24.2864 67.9704 23.1377 70.401 23.1377Z" fill="#BDA6FF"/>
<path d="M171.135 22.4606C172.631 22.4606 173.843 21.248 173.843 19.7523C173.843 18.2565 172.631 17.0439 171.135 17.0439C169.639 17.0439 168.427 18.2565 168.427 19.7523C168.427 21.248 169.639 22.4606 171.135 22.4606Z" fill="#BDA6FF"/>
<path fill-rule="evenodd" clip-rule="evenodd" d="M171.135 23.1377C173.566 23.1377 175.536 24.2864 175.536 25.7035V28.5543H166.734V25.7035C166.734 24.2864 168.705 23.1377 171.135 23.1377Z" fill="#BDA6FF"/>
<path d="M145.865 22.4606C147.36 22.4606 148.573 21.248 148.573 19.7523C148.573 18.2565 147.36 17.0439 145.865 17.0439C144.369 17.0439 143.156 18.2565 143.156 19.7523C143.156 21.248 144.369 22.4606 145.865 22.4606Z" fill="#BDA6FF"/>
<path fill-rule="evenodd" clip-rule="evenodd" d="M145.865 23.1377C148.295 23.1377 150.266 24.2864 150.266 25.7035V28.5543H141.464V25.7035C141.464 24.2864 143.434 23.1377 145.865 23.1377Z" fill="#BDA6FF"/>
<path d="M82.8646 22.4606C84.3603 22.4606 85.5729 21.248 85.5729 19.7523C85.5729 18.2565 84.3603 17.0439 82.8646 17.0439C81.3688 17.0439 80.1562 18.2565 80.1562 19.7523C80.1562 21.248 81.3688 22.4606 82.8646 22.4606Z" fill="#BDA6FF"/>
<path fill-rule="evenodd" clip-rule="evenodd" d="M82.8649 23.1377C85.2955 23.1377 87.2659 24.2864 87.2659 25.7035V28.5543H78.4639V25.7035C78.4639 24.2864 80.4343 23.1377 82.8649 23.1377Z" fill="#BDA6FF"/>
<path d="M196.401 22.4606C197.896 22.4606 199.109 21.248 199.109 19.7523C199.109 18.2565 197.896 17.0439 196.401 17.0439C194.905 17.0439 193.692 18.2565 193.692 19.7523C193.692 21.248 194.905 22.4606 196.401 22.4606Z" fill="#BDA6FF"/>
<path fill-rule="evenodd" clip-rule="evenodd" d="M196.401 23.1377C198.832 23.1377 200.802 24.2864 200.802 25.7035V28.5543H192V25.7035C192 24.2864 193.97 23.1377 196.401 23.1377Z" fill="#BDA6FF"/>
<path d="M183.599 22.4606C185.095 22.4606 186.307 21.248 186.307 19.7523C186.307 18.2565 185.095 17.0439 183.599 17.0439C182.103 17.0439 180.891 18.2565 180.891 19.7523C180.891 21.248 182.103 22.4606 183.599 22.4606Z" fill="#BDA6FF"/>
<path fill-rule="evenodd" clip-rule="evenodd" d="M183.599 23.1377C186.03 23.1377 188 24.2864 188 25.7035V28.5543H179.198V25.7035C179.198 24.2864 181.169 23.1377 183.599 23.1377Z" fill="#BDA6FF"/>
<path d="M108.135 22.4606C109.631 22.4606 110.843 21.248 110.843 19.7523C110.843 18.2565 109.631 17.0439 108.135 17.0439C106.639 17.0439 105.427 18.2565 105.427 19.7523C105.427 21.248 106.639 22.4606 108.135 22.4606Z" fill="#BDA6FF"/>
<path fill-rule="evenodd" clip-rule="evenodd" d="M108.135 23.1377C110.566 23.1377 112.536 24.2864 112.536 25.7035V28.5543H103.734V25.7035C103.734 24.2864 105.705 23.1377 108.135 23.1377Z" fill="#BDA6FF"/>
<path d="M158.329 22.4606C159.825 22.4606 161.038 21.248 161.038 19.7523C161.038 18.2565 159.825 17.0439 158.329 17.0439C156.834 17.0439 155.621 18.2565 155.621 19.7523C155.621 21.248 156.834 22.4606 158.329 22.4606Z" fill="#BDA6FF"/>
<path fill-rule="evenodd" clip-rule="evenodd" d="M158.33 23.1377C160.76 23.1377 162.731 24.2864 162.731 25.7035V28.5543H153.929V25.7035C153.929 24.2864 155.899 23.1377 158.33 23.1377Z" fill="#BDA6FF"/>
<path d="M95.3294 22.4606C96.8252 22.4606 98.0377 21.248 98.0377 19.7523C98.0377 18.2565 96.8252 17.0439 95.3294 17.0439C93.8336 17.0439 92.6211 18.2565 92.6211 19.7523C92.6211 21.248 93.8336 22.4606 95.3294 22.4606Z" fill="#BDA6FF"/>
<path fill-rule="evenodd" clip-rule="evenodd" d="M95.3297 23.1377C97.7603 23.1377 99.7307 24.2864 99.7307 25.7035V28.5543H90.9287V25.7035C90.9287 24.2864 92.8991 23.1377 95.3297 23.1377Z" fill="#BDA6FF"/>
<path d="M208.865 22.4606C210.36 22.4606 211.573 21.248 211.573 19.7523C211.573 18.2565 210.36 17.0439 208.865 17.0439C207.369 17.0439 206.156 18.2565 206.156 19.7523C206.156 21.248 207.369 22.4606 208.865 22.4606Z" fill="#BDA6FF"/>
<path fill-rule="evenodd" clip-rule="evenodd" d="M208.865 23.1377C211.295 23.1377 213.266 24.2864 213.266 25.7035V28.5543H204.464V25.7035C204.464 24.2864 206.434 23.1377 208.865 23.1377Z" fill="#BDA6FF"/>
<path d="M120.599 22.4606C122.095 22.4606 123.307 21.248 123.307 19.7523C123.307 18.2565 122.095 17.0439 120.599 17.0439C119.103 17.0439 117.891 18.2565 117.891 19.7523C117.891 21.248 119.103 22.4606 120.599 22.4606Z" fill="#BDA6FF"/>
<path fill-rule="evenodd" clip-rule="evenodd" d="M120.599 23.1377C123.03 23.1377 125 24.2864 125 25.7035V28.5543H116.198V25.7035C116.198 24.2864 118.169 23.1377 120.599 23.1377Z" fill="#BDA6FF"/>
</svg>
