<svg width="338" height="430" viewBox="0 0 338 430" fill="none" xmlns="http://www.w3.org/2000/svg">
<rect x="1" y="342.006" width="42.56" height="97" transform="rotate(-90 1 342.006)" fill="#991B7C"/>
<rect x="98" y="251.566" width="47.88" height="97" transform="rotate(90 98 251.566)" fill="#D62293"/>
<rect x="98" y="169.106" width="82.46" height="97" transform="rotate(90 98 169.106)" fill="#E46BB7"/>
<rect x="98" y="107.926" width="61.18" height="97" transform="rotate(90 98 107.926)" fill="#F1B5DB"/>
<rect x="98" y="76.0063" width="31.92" height="97" transform="rotate(90 98 76.0063)" fill="#EBEBEB"/>
<path d="M111.958 317.375H113.869V308.444H112.335L109.657 310.238L110.437 311.59L111.958 310.641V317.375ZM119.806 311.603C118.961 311.603 118.142 311.928 117.596 312.461C117.765 310.953 118.545 309.978 119.715 309.978C120.469 309.978 120.989 310.251 121.535 310.706L122.445 309.25C121.717 308.665 120.82 308.288 119.715 308.288C117.232 308.288 115.607 310.277 115.607 313.059C115.607 315.659 116.803 317.531 119.403 317.531C121.353 317.531 122.822 316.27 122.822 314.437C122.822 312.669 121.457 311.603 119.806 311.603ZM119.299 315.906C118.298 315.906 117.817 315.295 117.648 314.203C117.921 313.566 118.519 313.163 119.247 313.163C120.118 313.163 120.846 313.67 120.846 314.528C120.846 315.243 120.248 315.906 119.299 315.906ZM126.299 312.929C127.612 312.929 128.535 311.928 128.535 310.641C128.535 309.38 127.651 308.353 126.299 308.353C124.96 308.353 124.076 309.367 124.076 310.654C124.076 311.928 124.96 312.929 126.299 312.929ZM125.246 317.375H126.741L132.955 308.444H131.447L125.246 317.375ZM126.299 311.811C125.766 311.811 125.35 311.343 125.35 310.641C125.35 309.939 125.74 309.484 126.299 309.484C126.845 309.484 127.248 309.952 127.248 310.641C127.248 311.356 126.845 311.811 126.299 311.811ZM131.876 317.518C133.189 317.518 134.099 316.517 134.099 315.23C134.099 313.969 133.228 312.942 131.876 312.942C130.55 312.942 129.64 313.956 129.64 315.23C129.64 316.504 130.55 317.518 131.876 317.518ZM131.876 316.387C131.33 316.387 130.927 315.919 130.927 315.23C130.927 314.515 131.317 314.06 131.876 314.06C132.409 314.06 132.825 314.528 132.825 315.23C132.825 315.932 132.435 316.387 131.876 316.387Z" fill="#0F0B47"/>
<path d="M1 2.00635L1.00001 342.006" stroke="#0F0B47" stroke-width="0.5" stroke-linecap="square" stroke-dasharray="10 10"/>
<path d="M175 2.00635L175 342.006" stroke="#0F0B47" stroke-width="0.5" stroke-linecap="square" stroke-dasharray="10 10"/>
<path d="M111.958 268.006H113.869V259.075H112.335L109.657 260.869L110.437 262.221L111.958 261.272V268.006ZM119.143 268.162C121.106 268.162 122.731 267.239 122.731 265.614C122.731 264.587 122.029 263.807 120.976 263.391C121.873 263.001 122.51 262.351 122.51 261.35C122.51 259.816 120.924 258.919 119.143 258.919C117.401 258.919 115.789 259.777 115.789 261.35C115.789 262.364 116.426 263.014 117.31 263.391C116.283 263.781 115.555 264.561 115.555 265.614C115.555 267.226 117.167 268.162 119.143 268.162ZM119.143 262.728C118.441 262.676 117.7 262.286 117.7 261.597C117.7 260.986 118.285 260.531 119.143 260.531C120.001 260.531 120.599 260.986 120.599 261.597C120.599 262.26 119.845 262.676 119.143 262.728ZM119.143 266.55C118.194 266.55 117.505 266.082 117.505 265.406C117.505 264.704 118.376 264.262 119.143 264.236C119.91 264.262 120.794 264.704 120.794 265.406C120.794 266.082 120.092 266.55 119.143 266.55ZM126.274 263.56C127.587 263.56 128.51 262.559 128.51 261.272C128.51 260.011 127.626 258.984 126.274 258.984C124.935 258.984 124.051 259.998 124.051 261.285C124.051 262.559 124.935 263.56 126.274 263.56ZM125.221 268.006H126.716L132.93 259.075H131.422L125.221 268.006ZM126.274 262.442C125.741 262.442 125.325 261.974 125.325 261.272C125.325 260.57 125.715 260.115 126.274 260.115C126.82 260.115 127.223 260.583 127.223 261.272C127.223 261.987 126.82 262.442 126.274 262.442ZM131.851 268.149C133.164 268.149 134.074 267.148 134.074 265.861C134.074 264.6 133.203 263.573 131.851 263.573C130.525 263.573 129.615 264.587 129.615 265.861C129.615 267.135 130.525 268.149 131.851 268.149ZM131.851 267.018C131.305 267.018 130.902 266.55 130.902 265.861C130.902 265.146 131.292 264.691 131.851 264.691C132.384 264.691 132.8 265.159 132.8 265.861C132.8 266.563 132.41 267.018 131.851 267.018Z" fill="#0F0B47"/>
<path d="M113.31 186.175C115.403 186.175 116.755 185.057 116.755 183.51C116.755 182.327 115.858 181.638 114.883 181.417C115.871 181.131 116.56 180.39 116.56 179.363C116.56 177.946 115.299 176.919 113.297 176.919C111.711 176.919 110.645 177.608 109.904 178.505L111.009 179.675C111.607 179.051 112.27 178.635 113.102 178.635C113.986 178.635 114.61 179.051 114.61 179.701C114.61 180.338 114.025 180.702 113.05 180.702L112.023 180.689V182.327H113.05C114.246 182.314 114.792 182.665 114.792 183.354C114.792 183.991 114.207 184.446 113.232 184.446C112.335 184.446 111.49 184.069 110.853 183.393L109.722 184.667C110.476 185.538 111.711 186.175 113.31 186.175ZM119.982 186.006H121.893V177.075H120.359L117.681 178.869L118.461 180.221L119.982 179.272V186.006ZM125.918 181.56C127.231 181.56 128.154 180.559 128.154 179.272C128.154 178.011 127.27 176.984 125.918 176.984C124.579 176.984 123.695 177.998 123.695 179.285C123.695 180.559 124.579 181.56 125.918 181.56ZM124.865 186.006H126.36L132.574 177.075H131.066L124.865 186.006ZM125.918 180.442C125.385 180.442 124.969 179.974 124.969 179.272C124.969 178.57 125.359 178.115 125.918 178.115C126.464 178.115 126.867 178.583 126.867 179.272C126.867 179.987 126.464 180.442 125.918 180.442ZM131.495 186.149C132.808 186.149 133.718 185.148 133.718 183.861C133.718 182.6 132.847 181.573 131.495 181.573C130.169 181.573 129.259 182.587 129.259 183.861C129.259 185.135 130.169 186.149 131.495 186.149ZM131.495 185.018C130.949 185.018 130.546 184.55 130.546 183.861C130.546 183.146 130.936 182.691 131.495 182.691C132.028 182.691 132.444 183.159 132.444 183.861C132.444 184.563 132.054 185.018 131.495 185.018Z" fill="#0F0B47"/>
<path d="M109.904 125.006H116.651V123.277H112.868L114.493 122.016C116.053 120.885 116.573 119.962 116.573 118.766C116.573 117.089 115.195 115.919 113.297 115.919C111.854 115.919 110.723 116.543 109.839 117.661L111.061 118.844C111.711 118.103 112.374 117.661 113.245 117.661C113.973 117.661 114.597 118.103 114.597 118.844C114.597 119.468 114.259 120.053 113.193 120.898L109.904 123.446V125.006ZM121.257 125.175C123.35 125.175 124.702 124.057 124.702 122.51C124.702 121.327 123.805 120.638 122.83 120.417C123.818 120.131 124.507 119.39 124.507 118.363C124.507 116.946 123.246 115.919 121.244 115.919C119.658 115.919 118.592 116.608 117.851 117.505L118.956 118.675C119.554 118.051 120.217 117.635 121.049 117.635C121.933 117.635 122.557 118.051 122.557 118.701C122.557 119.338 121.972 119.702 120.997 119.702L119.97 119.689V121.327H120.997C122.193 121.314 122.739 121.665 122.739 122.354C122.739 122.991 122.154 123.446 121.179 123.446C120.282 123.446 119.437 123.069 118.8 122.393L117.669 123.667C118.423 124.538 119.658 125.175 121.257 125.175ZM128.28 120.56C129.593 120.56 130.516 119.559 130.516 118.272C130.516 117.011 129.632 115.984 128.28 115.984C126.941 115.984 126.057 116.998 126.057 118.285C126.057 119.559 126.941 120.56 128.28 120.56ZM127.227 125.006H128.722L134.936 116.075H133.428L127.227 125.006ZM128.28 119.442C127.747 119.442 127.331 118.974 127.331 118.272C127.331 117.57 127.721 117.115 128.28 117.115C128.826 117.115 129.229 117.583 129.229 118.272C129.229 118.987 128.826 119.442 128.28 119.442ZM133.857 125.149C135.17 125.149 136.08 124.148 136.08 122.861C136.08 121.6 135.209 120.573 133.857 120.573C132.531 120.573 131.621 121.587 131.621 122.861C131.621 124.135 132.531 125.149 133.857 125.149ZM133.857 124.018C133.311 124.018 132.908 123.55 132.908 122.861C132.908 122.146 133.298 121.691 133.857 121.691C134.39 121.691 134.806 122.159 134.806 122.861C134.806 123.563 134.416 124.018 133.857 124.018Z" fill="#0F0B47"/>
<path d="M111.958 91.0063H113.869V82.0753H112.335L109.657 83.8693L110.437 85.2213L111.958 84.2723V91.0063ZM115.49 91.0063H122.237V89.2773H118.454L120.079 88.0163C121.639 86.8853 122.159 85.9623 122.159 84.7663C122.159 83.0893 120.781 81.9193 118.883 81.9193C117.44 81.9193 116.309 82.5433 115.425 83.6613L116.647 84.8443C117.297 84.1033 117.96 83.6613 118.831 83.6613C119.559 83.6613 120.183 84.1033 120.183 84.8443C120.183 85.4683 119.845 86.0533 118.779 86.8983L115.49 89.4463V91.0063ZM125.842 86.5603C127.155 86.5603 128.078 85.5593 128.078 84.2723C128.078 83.0113 127.194 81.9843 125.842 81.9843C124.503 81.9843 123.619 82.9983 123.619 84.2853C123.619 85.5593 124.503 86.5603 125.842 86.5603ZM124.789 91.0063H126.284L132.498 82.0753H130.99L124.789 91.0063ZM125.842 85.4423C125.309 85.4423 124.893 84.9743 124.893 84.2723C124.893 83.5703 125.283 83.1153 125.842 83.1153C126.388 83.1153 126.791 83.5833 126.791 84.2723C126.791 84.9873 126.388 85.4423 125.842 85.4423ZM131.419 91.1493C132.732 91.1493 133.642 90.1483 133.642 88.8613C133.642 87.6003 132.771 86.5733 131.419 86.5733C130.093 86.5733 129.183 87.5873 129.183 88.8613C129.183 90.1353 130.093 91.1493 131.419 91.1493ZM131.419 90.0183C130.873 90.0183 130.47 89.5503 130.47 88.8613C130.47 88.1463 130.86 87.6913 131.419 87.6913C131.952 87.6913 132.368 88.1593 132.368 88.8613C132.368 89.5633 131.978 90.0183 131.419 90.0183Z" fill="#0F0B47"/>
<rect x="272" y="76.0063" width="18.62" height="96.9999" transform="rotate(90 272 76.0063)" fill="#EBEBEB"/>
<rect x="272" y="94.6265" width="39.9" height="96.9999" transform="rotate(90 272 94.6265)" fill="#F1B5DB"/>
<rect x="272" y="134.526" width="79.8" height="96.9999" transform="rotate(90 272 134.526)" fill="#E46BB7"/>
<rect x="272" y="214.326" width="61.18" height="96.9999" transform="rotate(90 272 214.326)" fill="#D62293"/>
<rect x="272" y="275.506" width="66.5" height="96.9999" transform="rotate(90 272 275.506)" fill="#991B7C"/>
<path d="M283.904 294.006H290.651V292.277H286.868L288.493 291.016C290.053 289.885 290.573 288.962 290.573 287.766C290.573 286.089 289.195 284.919 287.297 284.919C285.854 284.919 284.723 285.543 283.839 286.661L285.061 287.844C285.711 287.103 286.374 286.661 287.245 286.661C287.973 286.661 288.597 287.103 288.597 287.844C288.597 288.468 288.259 289.053 287.193 289.898L283.904 292.446V294.006ZM295.283 294.175C297.415 294.175 298.832 292.966 298.832 291.068C298.832 289.248 297.467 288.234 295.881 288.234C295.153 288.234 294.581 288.468 294.139 288.78L294.191 286.804H298.351V285.075H292.423L292.293 289.898L293.58 290.418C294.061 290.054 294.633 289.833 295.309 289.833C296.284 289.833 296.921 290.353 296.921 291.133C296.921 291.9 296.31 292.498 295.296 292.498C294.438 292.498 293.632 292.082 292.956 291.445L291.825 292.797C292.657 293.629 293.788 294.175 295.283 294.175ZM302.343 289.56C303.656 289.56 304.579 288.559 304.579 287.272C304.579 286.011 303.695 284.984 302.343 284.984C301.004 284.984 300.12 285.998 300.12 287.285C300.12 288.559 301.004 289.56 302.343 289.56ZM301.29 294.006H302.785L308.999 285.075H307.491L301.29 294.006ZM302.343 288.442C301.81 288.442 301.394 287.974 301.394 287.272C301.394 286.57 301.784 286.115 302.343 286.115C302.889 286.115 303.292 286.583 303.292 287.272C303.292 287.987 302.889 288.442 302.343 288.442ZM307.92 294.149C309.233 294.149 310.143 293.148 310.143 291.861C310.143 290.6 309.272 289.573 307.92 289.573C306.594 289.573 305.684 290.587 305.684 291.861C305.684 293.135 306.594 294.149 307.92 294.149ZM307.92 293.018C307.374 293.018 306.971 292.55 306.971 291.861C306.971 291.146 307.361 290.691 307.92 290.691C308.453 290.691 308.869 291.159 308.869 291.861C308.869 292.563 308.479 293.018 307.92 293.018Z" fill="#0F0B47"/>
<path d="M283.904 233.006H290.651V231.277H286.868L288.493 230.016C290.053 228.885 290.573 227.962 290.573 226.766C290.573 225.089 289.195 223.919 287.297 223.919C285.854 223.919 284.723 224.543 283.839 225.661L285.061 226.844C285.711 226.103 286.374 225.661 287.245 225.661C287.973 225.661 288.597 226.103 288.597 226.844C288.597 227.468 288.259 228.053 287.193 228.898L283.904 231.446V233.006ZM295.257 233.175C297.35 233.175 298.702 232.057 298.702 230.51C298.702 229.327 297.805 228.638 296.83 228.417C297.818 228.131 298.507 227.39 298.507 226.363C298.507 224.946 297.246 223.919 295.244 223.919C293.658 223.919 292.592 224.608 291.851 225.505L292.956 226.675C293.554 226.051 294.217 225.635 295.049 225.635C295.933 225.635 296.557 226.051 296.557 226.701C296.557 227.338 295.972 227.702 294.997 227.702L293.97 227.689V229.327H294.997C296.193 229.314 296.739 229.665 296.739 230.354C296.739 230.991 296.154 231.446 295.179 231.446C294.282 231.446 293.437 231.069 292.8 230.393L291.669 231.667C292.423 232.538 293.658 233.175 295.257 233.175ZM302.28 228.56C303.593 228.56 304.516 227.559 304.516 226.272C304.516 225.011 303.632 223.984 302.28 223.984C300.941 223.984 300.057 224.998 300.057 226.285C300.057 227.559 300.941 228.56 302.28 228.56ZM301.227 233.006H302.722L308.936 224.075H307.428L301.227 233.006ZM302.28 227.442C301.747 227.442 301.331 226.974 301.331 226.272C301.331 225.57 301.721 225.115 302.28 225.115C302.826 225.115 303.229 225.583 303.229 226.272C303.229 226.987 302.826 227.442 302.28 227.442ZM307.857 233.149C309.17 233.149 310.08 232.148 310.08 230.861C310.08 229.6 309.209 228.573 307.857 228.573C306.531 228.573 305.621 229.587 305.621 230.861C305.621 232.135 306.531 233.149 307.857 233.149ZM307.857 232.018C307.311 232.018 306.908 231.55 306.908 230.861C306.908 230.146 307.298 229.691 307.857 229.691C308.39 229.691 308.806 230.159 308.806 230.861C308.806 231.563 308.416 232.018 307.857 232.018Z" fill="#0F0B47"/>
<path d="M287.31 153.175C289.403 153.175 290.755 152.057 290.755 150.51C290.755 149.327 289.858 148.638 288.883 148.417C289.871 148.131 290.56 147.39 290.56 146.363C290.56 144.946 289.299 143.919 287.297 143.919C285.711 143.919 284.645 144.608 283.904 145.505L285.009 146.675C285.607 146.051 286.27 145.635 287.102 145.635C287.986 145.635 288.61 146.051 288.61 146.701C288.61 147.338 288.025 147.702 287.05 147.702L286.023 147.689V149.327H287.05C288.246 149.314 288.792 149.665 288.792 150.354C288.792 150.991 288.207 151.446 287.232 151.446C286.335 151.446 285.49 151.069 284.853 150.393L283.722 151.667C284.476 152.538 285.711 153.175 287.31 153.175ZM296.036 153.162C298.389 153.162 300.04 151.251 300.04 148.534C300.04 145.83 298.389 143.919 296.036 143.919C293.683 143.919 292.019 145.83 292.019 148.534C292.019 151.251 293.683 153.162 296.036 153.162ZM296.036 151.42C294.84 151.42 293.995 150.211 293.995 148.534C293.995 146.857 294.84 145.661 296.036 145.661C297.232 145.661 298.077 146.857 298.077 148.534C298.077 150.211 297.232 151.42 296.036 151.42ZM303.6 148.56C304.913 148.56 305.836 147.559 305.836 146.272C305.836 145.011 304.952 143.984 303.6 143.984C302.261 143.984 301.377 144.998 301.377 146.285C301.377 147.559 302.261 148.56 303.6 148.56ZM302.547 153.006H304.042L310.256 144.075H308.748L302.547 153.006ZM303.6 147.442C303.067 147.442 302.651 146.974 302.651 146.272C302.651 145.57 303.041 145.115 303.6 145.115C304.146 145.115 304.549 145.583 304.549 146.272C304.549 146.987 304.146 147.442 303.6 147.442ZM309.177 153.149C310.49 153.149 311.4 152.148 311.4 150.861C311.4 149.6 310.529 148.573 309.177 148.573C307.851 148.573 306.941 149.587 306.941 150.861C306.941 152.135 307.851 153.149 309.177 153.149ZM309.177 152.018C308.631 152.018 308.228 151.55 308.228 150.861C308.228 150.146 308.618 149.691 309.177 149.691C309.71 149.691 310.126 150.159 310.126 150.861C310.126 151.563 309.736 152.018 309.177 152.018Z" fill="#0F0B47"/>
<path d="M285.958 113.006H287.869V104.075H286.335L283.657 105.869L284.437 107.221L285.958 106.272V113.006ZM292.922 113.175C295.054 113.175 296.471 111.966 296.471 110.068C296.471 108.248 295.106 107.234 293.52 107.234C292.792 107.234 292.22 107.468 291.778 107.78L291.83 105.804H295.99V104.075H290.062L289.932 108.898L291.219 109.418C291.7 109.054 292.272 108.833 292.948 108.833C293.923 108.833 294.56 109.353 294.56 110.133C294.56 110.9 293.949 111.498 292.935 111.498C292.077 111.498 291.271 111.082 290.595 110.445L289.464 111.797C290.296 112.629 291.427 113.175 292.922 113.175ZM299.982 108.56C301.295 108.56 302.218 107.559 302.218 106.272C302.218 105.011 301.334 103.984 299.982 103.984C298.643 103.984 297.759 104.998 297.759 106.285C297.759 107.559 298.643 108.56 299.982 108.56ZM298.929 113.006H300.424L306.638 104.075H305.13L298.929 113.006ZM299.982 107.442C299.449 107.442 299.033 106.974 299.033 106.272C299.033 105.57 299.423 105.115 299.982 105.115C300.528 105.115 300.931 105.583 300.931 106.272C300.931 106.987 300.528 107.442 299.982 107.442ZM305.559 113.149C306.872 113.149 307.782 112.148 307.782 110.861C307.782 109.6 306.911 108.573 305.559 108.573C304.233 108.573 303.323 109.587 303.323 110.861C303.323 112.135 304.233 113.149 305.559 113.149ZM305.559 112.018C305.013 112.018 304.61 111.55 304.61 110.861C304.61 110.146 305 109.691 305.559 109.691C306.092 109.691 306.508 110.159 306.508 110.861C306.508 111.563 306.118 112.018 305.559 112.018Z" fill="#0F0B47"/>
<path d="M284.619 91.0063H286.777L290.391 83.5183V82.0753H283.748V83.8043H288.168L284.619 91.0063ZM293.736 86.5603C295.049 86.5603 295.972 85.5593 295.972 84.2723C295.972 83.0113 295.088 81.9843 293.736 81.9843C292.397 81.9843 291.513 82.9983 291.513 84.2853C291.513 85.5593 292.397 86.5603 293.736 86.5603ZM292.683 91.0063H294.178L300.392 82.0753H298.884L292.683 91.0063ZM293.736 85.4423C293.203 85.4423 292.787 84.9743 292.787 84.2723C292.787 83.5703 293.177 83.1153 293.736 83.1153C294.282 83.1153 294.685 83.5833 294.685 84.2723C294.685 84.9873 294.282 85.4423 293.736 85.4423ZM299.313 91.1493C300.626 91.1493 301.536 90.1483 301.536 88.8613C301.536 87.6003 300.665 86.5733 299.313 86.5733C297.987 86.5733 297.077 87.5873 297.077 88.8613C297.077 90.1353 297.987 91.1493 299.313 91.1493ZM299.313 90.0183C298.767 90.0183 298.364 89.5503 298.364 88.8613C298.364 88.1463 298.754 87.6913 299.313 87.6913C299.846 87.6913 300.262 88.1593 300.262 88.8613C300.262 89.5633 299.872 90.0183 299.313 90.0183Z" fill="#0F0B47"/>
<path d="M17.6271 10.5552H19.2871L16.4871 3.68518H14.8371L12.0371 10.5552H13.6871L14.1671 9.37518H17.1471L17.6271 10.5552ZM14.6371 8.22518L15.6571 5.71518L16.6771 8.22518H14.6371ZM21.891 9.22518V3.68518H20.411V10.5552H25.311V9.22518H21.891ZM27.9848 9.22518V3.68518H26.5048V10.5552H31.4048V9.22518H27.9848ZM18.3371 20.0052C18.3371 18.6452 17.2471 17.6852 15.7471 17.6852H12.6571V24.5552H14.1371V22.3252H15.0271L16.5971 24.5552H18.2771L16.6271 22.2052C17.6571 21.9052 18.3371 21.0852 18.3371 20.0052ZM14.1371 19.0352H15.5971C16.3271 19.0352 16.8271 19.4152 16.8271 20.0052C16.8271 20.5952 16.3271 20.9752 15.5971 20.9752H14.1371V19.0352ZM24.9881 19.0152V17.6852H19.6981V24.5552H24.9881V23.2252H21.1781V21.7152H24.6381V20.3852H21.1781V19.0152H24.9881ZM28.9569 24.6752C30.6269 24.6752 31.6269 23.8052 31.6269 22.4952C31.6269 21.2252 30.6469 20.7852 29.1669 20.4552C28.1069 20.2152 27.6869 20.0552 27.6869 19.5552C27.6869 19.1452 28.0769 18.8152 28.6969 18.8152C29.3569 18.8152 30.0469 19.0852 30.6669 19.5852L31.4369 18.5152C30.7269 17.9152 29.8669 17.5652 28.7469 17.5652C27.2369 17.5652 26.1969 18.4352 26.1969 19.7052C26.1969 21.0352 27.2369 21.4452 28.6869 21.7752C29.7369 22.0152 30.1369 22.1652 30.1369 22.6552C30.1369 23.0852 29.7569 23.4252 29.0069 23.4252C28.1369 23.4252 27.3969 23.0852 26.7469 22.5252L25.9069 23.5352C26.7069 24.2752 27.7569 24.6752 28.9569 24.6752ZM32.9403 24.5552H34.4203V22.3252H36.0303C37.5303 22.3252 38.6203 21.3652 38.6203 20.0052C38.6203 18.6452 37.5303 17.6852 36.0303 17.6852H32.9403V24.5552ZM34.4203 20.9752V19.0352H35.8803C36.6103 19.0352 37.1103 19.4152 37.1103 20.0052C37.1103 20.5952 36.6103 20.9752 35.8803 20.9752H34.4203ZM43.1434 24.6752C45.1234 24.6752 46.7834 23.0452 46.7834 21.1152C46.7834 19.1852 45.1234 17.5652 43.1434 17.5652C41.1634 17.5652 39.4834 19.1852 39.4834 21.1152C39.4834 23.0452 41.1634 24.6752 43.1434 24.6752ZM43.1434 23.3352C41.9834 23.3352 41.0034 22.3152 41.0034 21.1152C41.0034 19.9252 41.9834 18.9052 43.1434 18.9052C44.2934 18.9052 45.2734 19.9252 45.2734 21.1152C45.2734 22.3152 44.2934 23.3352 43.1434 23.3352ZM48.1259 24.5552H49.6059V20.1152L52.9159 24.5552H54.3959V17.6852H52.9159V22.1252L49.6059 17.6852H48.1259V24.5552ZM56.1337 24.5552H58.6037C60.9137 24.5552 62.5537 23.1252 62.5537 21.1152C62.5537 19.1052 60.9137 17.6852 58.6037 17.6852H56.1337V24.5552ZM57.6137 23.2152V19.0252H58.7937C60.1037 19.0252 61.0337 19.8952 61.0337 21.1152C61.0337 22.3452 60.1037 23.2152 58.7937 23.2152H57.6137ZM69.1678 19.0152V17.6852H63.8778V24.5552H69.1678V23.2252H65.3578V21.7152H68.8178V20.3852H65.3578V19.0152H69.1678ZM70.5966 24.5552H72.0766V20.1152L75.3866 24.5552H76.8666V17.6852H75.3866V22.1252L72.0766 17.6852H70.5966V24.5552ZM80.1944 24.5552H81.6644V19.0152H83.8144V17.6852H78.0544V19.0152H80.1944V24.5552ZM87.5311 24.6752C89.2011 24.6752 90.2011 23.8052 90.2011 22.4952C90.2011 21.2252 89.2211 20.7852 87.7411 20.4552C86.6811 20.2152 86.2611 20.0552 86.2611 19.5552C86.2611 19.1452 86.6511 18.8152 87.2711 18.8152C87.9311 18.8152 88.6211 19.0852 89.2411 19.5852L90.0111 18.5152C89.3011 17.9152 88.4411 17.5652 87.3211 17.5652C85.8111 17.5652 84.7711 18.4352 84.7711 19.7052C84.7711 21.0352 85.8111 21.4452 87.2611 21.7752C88.3111 22.0152 88.7111 22.1652 88.7111 22.6552C88.7111 23.0852 88.3311 23.4252 87.5811 23.4252C86.7111 23.4252 85.9711 23.0852 85.3211 22.5252L84.4811 23.5352C85.2811 24.2752 86.3311 24.6752 87.5311 24.6752Z" fill="#0F0B47"/>
<path d="M186.737 10.5552H188.217V6.11518L191.527 10.5552H193.007V3.68518H191.527V8.12518L188.217 3.68518H186.737V10.5552ZM200.035 5.01518V3.68518H194.745V10.5552H200.035V9.22518H196.225V7.71518H199.685V6.38518H196.225V5.01518H200.035ZM206.434 10.5552H208.094L205.294 3.68518H203.644L200.844 10.5552H202.494L202.974 9.37518H205.954L206.434 10.5552ZM203.444 8.22518L204.464 5.71518L205.484 8.22518H203.444ZM214.898 6.00518C214.898 4.64518 213.808 3.68518 212.308 3.68518H209.218V10.5552H210.698V8.32518H211.588L213.158 10.5552H214.838L213.188 8.20518C214.218 7.90518 214.898 7.08518 214.898 6.00518ZM210.698 5.03518H212.158C212.888 5.03518 213.388 5.41518 213.388 6.00518C213.388 6.59518 212.888 6.97518 212.158 6.97518H210.698V5.03518ZM217.739 9.22518V3.68518H216.259V10.5552H221.159V9.22518H217.739ZM224.402 10.5552H225.892V8.07518L228.572 3.68518H226.922L225.142 6.69518L223.432 3.68518H221.712L224.402 8.07518V10.5552ZM237.371 10.5552H239.031L236.231 3.68518H234.581L231.781 10.5552H233.431L233.911 9.37518H236.891L237.371 10.5552ZM234.381 8.22518L235.401 5.71518L236.421 8.22518H234.381ZM241.635 9.22518V3.68518H240.155V10.5552H245.055V9.22518H241.635ZM247.729 9.22518V3.68518H246.249V10.5552H251.149V9.22518H247.729ZM258.317 10.6752C260.297 10.6752 261.957 9.04518 261.957 7.11518C261.957 5.18518 260.297 3.56518 258.317 3.56518C256.337 3.56518 254.657 5.18518 254.657 7.11518C254.657 9.04518 256.337 10.6752 258.317 10.6752ZM258.317 9.33518C257.157 9.33518 256.177 8.31518 256.177 7.11518C256.177 5.92518 257.157 4.90518 258.317 4.90518C259.467 4.90518 260.447 5.92518 260.447 7.11518C260.447 8.31518 259.467 9.33518 258.317 9.33518ZM268.59 5.01518V3.68518H263.3V10.5552H264.78V7.83518H268.24V6.50518H264.78V5.01518H268.59ZM275.837 10.6752C277.817 10.6752 279.477 9.04518 279.477 7.11518C279.477 5.18518 277.817 3.56518 275.837 3.56518C273.857 3.56518 272.177 5.18518 272.177 7.11518C272.177 9.04518 273.857 10.6752 275.837 10.6752ZM275.837 9.33518C274.677 9.33518 273.697 8.31518 273.697 7.11518C273.697 5.92518 274.677 4.90518 275.837 4.90518C276.987 4.90518 277.967 5.92518 277.967 7.11518C277.967 8.31518 276.987 9.33518 275.837 9.33518ZM283.779 10.6752C285.599 10.6752 286.889 9.39518 286.889 7.58518V3.68518H285.409V7.52518C285.409 8.58518 284.729 9.33518 283.779 9.33518C282.819 9.33518 282.139 8.58518 282.139 7.52518V3.68518H280.669V7.58518C280.669 9.39518 281.949 10.6752 283.779 10.6752ZM294.155 6.00518C294.155 4.64518 293.065 3.68518 291.565 3.68518H288.475V10.5552H289.955V8.32518H290.845L292.415 10.5552H294.095L292.445 8.20518C293.475 7.90518 294.155 7.08518 294.155 6.00518ZM289.955 5.03518H291.415C292.145 5.03518 292.645 5.41518 292.645 6.00518C292.645 6.59518 292.145 6.97518 291.415 6.97518H289.955V5.03518ZM186.737 24.5552H189.207C191.517 24.5552 193.157 23.1252 193.157 21.1152C193.157 19.1052 191.517 17.6852 189.207 17.6852H186.737V24.5552ZM188.217 23.2152V19.0252H189.397C190.707 19.0252 191.637 19.8952 191.637 21.1152C191.637 22.3452 190.707 23.2152 189.397 23.2152H188.217ZM199.771 19.0152V17.6852H194.481V24.5552H199.771V23.2252H195.961V21.7152H199.421V20.3852H195.961V19.0152H199.771ZM206.18 17.6852L204.22 22.5252L202.25 17.6852H200.59L203.39 24.5552H205.04L207.84 17.6852H206.18ZM214.264 19.0152V17.6852H208.974V24.5552H214.264V23.2252H210.454V21.7152H213.914V20.3852H210.454V19.0152H214.264ZM217.172 23.2252V17.6852H215.692V24.5552H220.592V23.2252H217.172ZM225.036 24.6752C227.016 24.6752 228.676 23.0452 228.676 21.1152C228.676 19.1852 227.016 17.5652 225.036 17.5652C223.056 17.5652 221.376 19.1852 221.376 21.1152C221.376 23.0452 223.056 24.6752 225.036 24.6752ZM225.036 23.3352C223.876 23.3352 222.896 22.3152 222.896 21.1152C222.896 19.9252 223.876 18.9052 225.036 18.9052C226.186 18.9052 227.166 19.9252 227.166 21.1152C227.166 22.3152 226.186 23.3352 225.036 23.3352ZM230.018 24.5552H231.498V22.3252H233.108C234.608 22.3252 235.698 21.3652 235.698 20.0052C235.698 18.6452 234.608 17.6852 233.108 17.6852H230.018V24.5552ZM231.498 20.9752V19.0352H232.958C233.688 19.0352 234.188 19.4152 234.188 20.0052C234.188 20.5952 233.688 20.9752 232.958 20.9752H231.498ZM236.972 24.5552H238.452V20.2752L240.572 24.1552L242.702 20.2752V24.5552H244.172V17.6852H242.702L240.572 21.5652L238.452 17.6852H236.972V24.5552ZM251.207 19.0152V17.6852H245.917V24.5552H251.207V23.2252H247.397V21.7152H250.857V20.3852H247.397V19.0152H251.207ZM252.636 24.5552H254.116V20.1152L257.426 24.5552H258.906V17.6852H257.426V22.1252L254.116 17.6852H252.636V24.5552ZM262.233 24.5552H263.703V19.0152H265.853V17.6852H260.093V19.0152H262.233V24.5552ZM274.725 24.5552H276.385L273.585 17.6852H271.935L269.135 24.5552H270.785L271.265 23.3752H274.245L274.725 24.5552ZM271.735 22.2252L272.755 19.7152L273.775 22.2252H271.735ZM277.509 24.5552H278.989V20.1152L282.299 24.5552H283.779V17.6852H282.299V22.1252L278.989 17.6852H277.509V24.5552ZM285.516 24.5552H287.986C290.296 24.5552 291.936 23.1252 291.936 21.1152C291.936 19.1052 290.296 17.6852 287.986 17.6852H285.516V24.5552ZM286.996 23.2152V19.0252H288.176C289.486 19.0252 290.416 19.8952 290.416 21.1152C290.416 22.3452 289.486 23.2152 288.176 23.2152H286.996ZM186.737 38.5552H189.207C191.517 38.5552 193.157 37.1252 193.157 35.1152C193.157 33.1052 191.517 31.6852 189.207 31.6852H186.737V38.5552ZM188.217 37.2152V33.0252H189.397C190.707 33.0252 191.637 33.8952 191.637 35.1152C191.637 36.3452 190.707 37.2152 189.397 37.2152H188.217ZM199.771 33.0152V31.6852H194.481V38.5552H199.771V37.2252H195.961V35.7152H199.421V34.3852H195.961V33.0152H199.771ZM201.2 38.5552H202.68V36.3252H204.29C205.79 36.3252 206.88 35.3652 206.88 34.0052C206.88 32.6452 205.79 31.6852 204.29 31.6852H201.2V38.5552ZM202.68 34.9752V33.0352H204.14C204.87 33.0352 205.37 33.4152 205.37 34.0052C205.37 34.5952 204.87 34.9752 204.14 34.9752H202.68ZM209.633 37.2252V31.6852H208.153V38.5552H213.053V37.2252H209.633ZM217.497 38.6752C219.477 38.6752 221.137 37.0452 221.137 35.1152C221.137 33.1852 219.477 31.5652 217.497 31.5652C215.517 31.5652 213.837 33.1852 213.837 35.1152C213.837 37.0452 215.517 38.6752 217.497 38.6752ZM217.497 37.3352C216.337 37.3352 215.357 36.3152 215.357 35.1152C215.357 33.9252 216.337 32.9052 217.497 32.9052C218.647 32.9052 219.627 33.9252 219.627 35.1152C219.627 36.3152 218.647 37.3352 217.497 37.3352ZM224.529 38.5552H226.019V36.0752L228.699 31.6852H227.049L225.269 34.6952L223.559 31.6852H221.839L224.529 36.0752V38.5552ZM229.804 38.5552H231.284V34.2752L233.404 38.1552L235.534 34.2752V38.5552H237.004V31.6852H235.534L233.404 35.5652L231.284 31.6852H229.804V38.5552ZM244.039 33.0152V31.6852H238.749V38.5552H244.039V37.2252H240.229V35.7152H243.689V34.3852H240.229V33.0152H244.039ZM245.468 38.5552H246.948V34.1152L250.258 38.5552H251.738V31.6852H250.258V36.1252L246.948 31.6852H245.468V38.5552ZM255.065 38.5552H256.535V33.0152H258.685V31.6852H252.925V33.0152H255.065V38.5552ZM265.547 38.6752C267.367 38.6752 268.657 37.3952 268.657 35.5852V31.6852H267.177V35.5252C267.177 36.5852 266.497 37.3352 265.547 37.3352C264.587 37.3352 263.907 36.5852 263.907 35.5252V31.6852H262.437V35.5852C262.437 37.3952 263.717 38.6752 265.547 38.6752ZM272.783 38.6752C274.453 38.6752 275.453 37.8052 275.453 36.4952C275.453 35.2252 274.473 34.7852 272.993 34.4552C271.933 34.2152 271.513 34.0552 271.513 33.5552C271.513 33.1452 271.903 32.8152 272.523 32.8152C273.183 32.8152 273.873 33.0852 274.493 33.5852L275.263 32.5152C274.553 31.9152 273.693 31.5652 272.573 31.5652C271.063 31.5652 270.023 32.4352 270.023 33.7052C270.023 35.0352 271.063 35.4452 272.513 35.7752C273.563 36.0152 273.963 36.1652 273.963 36.6552C273.963 37.0852 273.583 37.4252 272.833 37.4252C271.963 37.4252 271.223 37.0852 270.573 36.5252L269.733 37.5352C270.533 38.2752 271.583 38.6752 272.783 38.6752ZM282.056 33.0152V31.6852H276.766V38.5552H282.056V37.2252H278.246V35.7152H281.706V34.3852H278.246V33.0152H282.056ZM289.46 38.6752C290.5 38.6752 291.45 38.2252 292.12 37.5252L291.05 36.5652C290.66 37.0252 290.09 37.3352 289.46 37.3352C288.3 37.3352 287.32 36.3152 287.32 35.1152C287.32 33.9252 288.3 32.9052 289.46 32.9052C290.08 32.9052 290.66 33.2152 291.05 33.6752L292.12 32.7152C291.45 32.0052 290.5 31.5652 289.46 31.5652C287.48 31.5652 285.8 33.1852 285.8 35.1152C285.8 37.0452 287.48 38.6752 289.46 38.6752ZM294.789 37.2252V31.6852H293.309V38.5552H298.209V37.2252H294.789ZM302.653 38.6752C304.633 38.6752 306.293 37.0452 306.293 35.1152C306.293 33.1852 304.633 31.5652 302.653 31.5652C300.673 31.5652 298.993 33.1852 298.993 35.1152C298.993 37.0452 300.673 38.6752 302.653 38.6752ZM302.653 37.3352C301.493 37.3352 300.513 36.3152 300.513 35.1152C300.513 33.9252 301.493 32.9052 302.653 32.9052C303.803 32.9052 304.783 33.9252 304.783 35.1152C304.783 36.3152 303.803 37.3352 302.653 37.3352ZM310.596 38.6752C312.416 38.6752 313.706 37.3952 313.706 35.5852V31.6852H312.226V35.5252C312.226 36.5852 311.546 37.3352 310.596 37.3352C309.636 37.3352 308.956 36.5852 308.956 35.5252V31.6852H307.486V35.5852C307.486 37.3952 308.766 38.6752 310.596 38.6752ZM315.292 38.5552H317.762C320.072 38.5552 321.712 37.1252 321.712 35.1152C321.712 33.1052 320.072 31.6852 317.762 31.6852H315.292V38.5552ZM316.772 37.2152V33.0252H317.952C319.262 33.0252 320.192 33.8952 320.192 35.1152C320.192 36.3452 319.262 37.2152 317.952 37.2152H316.772ZM186.737 52.5552H188.217V48.1152L191.527 52.5552H193.007V45.6852H191.527V50.1252L188.217 45.6852H186.737V52.5552ZM199.715 52.5552H201.375L198.575 45.6852H196.925L194.125 52.5552H195.775L196.255 51.3752H199.235L199.715 52.5552ZM196.725 50.2252L197.745 47.7152L198.765 50.2252H196.725ZM204.089 52.5552H205.559V47.0152H207.709V45.6852H201.949V47.0152H204.089V52.5552ZM208.886 52.5552H210.366V45.6852H208.886V52.5552ZM217.088 45.6852L215.128 50.5252L213.158 45.6852H211.498L214.298 52.5552H215.948L218.748 45.6852H217.088ZM225.172 47.0152V45.6852H219.882V52.5552H225.172V51.2252H221.362V49.7152H224.822V48.3852H221.362V47.0152H225.172ZM230.915 52.5552H232.385V47.0152H234.535V45.6852H228.775V47.0152H230.915V52.5552ZM241.002 47.0152V45.6852H235.712V52.5552H241.002V51.2252H237.192V49.7152H240.652V48.3852H237.192V47.0152H241.002ZM245.681 52.6752C246.721 52.6752 247.671 52.2252 248.341 51.5252L247.271 50.5652C246.881 51.0252 246.311 51.3352 245.681 51.3352C244.521 51.3352 243.541 50.3152 243.541 49.1152C243.541 47.9252 244.521 46.9052 245.681 46.9052C246.301 46.9052 246.881 47.2152 247.271 47.6752L248.341 46.7152C247.671 46.0052 246.721 45.5652 245.681 45.5652C243.701 45.5652 242.021 47.1852 242.021 49.1152C242.021 51.0452 243.701 52.6752 245.681 52.6752ZM254.14 45.6852V48.3852H251.01V45.6852H249.53V52.5552H251.01V49.7152H254.14V52.5552H255.61V45.6852H254.14ZM257.362 52.5552H258.842V48.1152L262.152 52.5552H263.632V45.6852H262.152V50.1252L258.842 45.6852H257.362V52.5552ZM265.37 52.5552H266.85V45.6852H265.37V52.5552ZM275.483 49.1152C275.483 47.1852 273.823 45.5652 271.843 45.5652C269.863 45.5652 268.183 47.1852 268.183 49.1152C268.183 51.0452 269.863 52.6752 271.843 52.6752C272.643 52.6752 273.393 52.4052 273.993 51.9652L274.673 52.5552L275.423 51.6852L274.813 51.1552C275.233 50.5752 275.483 49.8652 275.483 49.1152ZM271.843 51.3352C270.683 51.3352 269.703 50.3152 269.703 49.1152C269.703 47.9252 270.683 46.9052 271.843 46.9052C272.993 46.9052 273.973 47.9252 273.973 49.1152C273.973 49.4952 273.873 49.8652 273.693 50.1852L272.833 49.4352L272.083 50.3052L272.913 51.0252C272.593 51.2252 272.223 51.3352 271.843 51.3352ZM279.853 52.6752C281.673 52.6752 282.963 51.3952 282.963 49.5852V45.6852H281.483V49.5252C281.483 50.5852 280.803 51.3352 279.853 51.3352C278.893 51.3352 278.213 50.5852 278.213 49.5252V45.6852H276.743V49.5852C276.743 51.3952 278.023 52.6752 279.853 52.6752ZM289.84 47.0152V45.6852H284.55V52.5552H289.84V51.2252H286.03V49.7152H289.49V48.3852H286.03V47.0152H289.84ZM293.808 52.6752C295.478 52.6752 296.478 51.8052 296.478 50.4952C296.478 49.2252 295.498 48.7852 294.018 48.4552C292.958 48.2152 292.538 48.0552 292.538 47.5552C292.538 47.1452 292.928 46.8152 293.548 46.8152C294.208 46.8152 294.898 47.0852 295.518 47.5852L296.288 46.5152C295.578 45.9152 294.718 45.5652 293.598 45.5652C292.088 45.5652 291.048 46.4352 291.048 47.7052C291.048 49.0352 292.088 49.4452 293.538 49.7752C294.588 50.0152 294.988 50.1652 294.988 50.6552C294.988 51.0852 294.608 51.4252 293.858 51.4252C292.988 51.4252 292.248 51.0852 291.598 50.5252L290.758 51.5352C291.558 52.2752 292.608 52.6752 293.808 52.6752Z" fill="#0F0B47"/>
<path d="M328 76.0063L0.999994 76.0063" stroke="#0F0B47" stroke-linecap="square"/>
<path d="M23.679 380.944H24.444L21.717 374.761H20.952L18.225 380.944H18.99L19.611 379.54H23.058L23.679 380.944ZM19.899 378.874L21.339 375.625L22.77 378.874H19.899ZM28.9279 374.653V377.164C28.5769 376.552 27.9829 376.183 27.2359 376.183C26.0119 376.183 25.0939 377.191 25.0939 378.613C25.0939 380.044 26.0119 381.052 27.2359 381.052C27.9829 381.052 28.5769 380.683 28.9279 380.071V380.944H29.6029V374.653H28.9279ZM27.3619 380.449C26.4529 380.449 25.8049 379.684 25.8049 378.613C25.8049 377.542 26.4529 376.786 27.3619 376.786C28.2799 376.786 28.9279 377.542 28.9279 378.613C28.9279 379.684 28.2799 380.449 27.3619 380.449ZM38.1903 374.761V377.461H34.5453V374.761H33.8433V380.944H34.5453V378.127H38.1903V380.944H38.8923V374.761H38.1903ZM42.657 381.052C43.971 381.052 45.051 379.954 45.051 378.613C45.051 377.272 43.971 376.183 42.657 376.183C41.334 376.183 40.254 377.272 40.254 378.613C40.254 379.954 41.334 381.052 42.657 381.052ZM42.657 380.449C41.721 380.449 40.956 379.621 40.956 378.613C40.956 377.605 41.721 376.786 42.657 376.786C43.584 376.786 44.349 377.605 44.349 378.613C44.349 379.621 43.584 380.449 42.657 380.449ZM48.2117 381.052C48.8597 381.052 49.4537 380.782 49.8947 380.341L49.4267 379.882C49.1117 380.233 48.6797 380.449 48.2117 380.449C47.2847 380.449 46.5107 379.612 46.5107 378.613C46.5107 377.623 47.2847 376.786 48.2117 376.786C48.6707 376.786 49.0937 376.993 49.3997 377.326L49.8677 376.867C49.4267 376.444 48.8417 376.183 48.2117 376.183C46.9067 376.183 45.7997 377.29 45.7997 378.613C45.7997 379.936 46.9067 381.052 48.2117 381.052ZM51.3577 382.141C51.8977 381.466 52.0507 381.16 52.0507 380.8C52.0507 380.386 51.8437 380.08 51.5017 380.08C51.2137 380.08 51.0067 380.305 51.0067 380.557C51.0067 380.827 51.2227 381.052 51.4927 381.052C51.4207 381.331 51.2677 381.61 51.0247 381.889L51.3577 382.141ZM56.3873 380.944H57.0893V375.913L60.9233 380.944H61.6253V374.761H60.9233V379.792L57.0893 374.761H56.3873V380.944ZM62.6045 381.61H63.3695L66.5285 374.257H65.7635L62.6045 381.61ZM72.2034 380.944H72.9684L70.2414 374.761H69.4764L66.7494 380.944H67.5144L68.1354 379.54H71.5824L72.2034 380.944ZM68.4234 378.874L69.8634 375.625L71.2944 378.874H68.4234ZM20.781 392.052C22.095 392.052 23.175 390.954 23.175 389.613C23.175 388.272 22.095 387.183 20.781 387.183C19.458 387.183 18.378 388.272 18.378 389.613C18.378 390.954 19.458 392.052 20.781 392.052ZM20.781 391.449C19.845 391.449 19.08 390.621 19.08 389.613C19.08 388.605 19.845 387.786 20.781 387.786C21.708 387.786 22.473 388.605 22.473 389.613C22.473 390.621 21.708 391.449 20.781 391.449ZM25.0127 388.2V387.291H24.3377V391.944H25.0127V389.343C25.0127 388.434 25.7597 387.786 26.8127 387.786V387.183C25.9577 387.183 25.2917 387.579 25.0127 388.2ZM33.8586 385.653V388.164C33.5076 387.552 32.9136 387.183 32.1666 387.183C30.9426 387.183 30.0246 388.191 30.0246 389.613C30.0246 391.044 30.9426 392.052 32.1666 392.052C32.9136 392.052 33.5076 391.683 33.8586 391.071V391.944H34.5336V385.653H33.8586ZM32.2926 391.449C31.3836 391.449 30.7356 390.684 30.7356 389.613C30.7356 388.542 31.3836 387.786 32.2926 387.786C33.2106 387.786 33.8586 388.542 33.8586 389.613C33.8586 390.684 33.2106 391.449 32.2926 391.449ZM38.0955 392.052C39.4095 392.052 40.4895 390.954 40.4895 389.613C40.4895 388.272 39.4095 387.183 38.0955 387.183C36.7725 387.183 35.6925 388.272 35.6925 389.613C35.6925 390.954 36.7725 392.052 38.0955 392.052ZM38.0955 391.449C37.1595 391.449 36.3945 390.621 36.3945 389.613C36.3945 388.605 37.1595 387.786 38.0955 387.786C39.0225 387.786 39.7875 388.605 39.7875 389.613C39.7875 390.621 39.0225 391.449 38.0955 391.449ZM43.8571 387.183C43.1911 387.183 42.5971 387.534 42.3271 388.029V387.291H41.6521V391.944H42.3271V388.983C42.3271 388.326 42.9751 387.786 43.7671 387.786C44.4511 387.786 44.9281 388.308 44.9281 389.073V391.944H45.6031V388.983C45.6031 387.912 44.8921 387.183 43.8571 387.183ZM47.3814 387.93C47.9214 387.255 48.0744 386.949 48.0744 386.589C48.0744 386.175 47.8674 385.869 47.5254 385.869C47.2374 385.869 47.0304 386.094 47.0304 386.346C47.0304 386.616 47.2464 386.841 47.5164 386.841C47.4444 387.12 47.2914 387.399 47.0484 387.678L47.3814 387.93ZM51.3799 391.26C51.2809 391.368 51.1009 391.449 50.8939 391.449C50.6239 391.449 50.3899 391.206 50.3899 390.864V387.894H51.5329V387.291H50.3899V386.013H49.7149V387.291H48.9859V387.894H49.7149V390.864C49.7149 391.557 50.1829 392.052 50.8489 392.052C51.1639 392.052 51.4699 391.944 51.7129 391.755L51.3799 391.26ZM55.1609 391.944H55.8359V390.711L56.6729 389.883L58.2839 391.944H59.1299L57.1499 389.424L59.2469 387.291H58.3829L55.8359 389.865V385.653H55.1609V391.944ZM62.3054 387.183C61.6394 387.183 61.0454 387.534 60.7754 388.029V387.291H60.1004V391.944H60.7754V388.983C60.7754 388.326 61.4234 387.786 62.2154 387.786C62.8994 387.786 63.3764 388.308 63.3764 389.073V391.944H64.0514V388.983C64.0514 387.912 63.3404 387.183 62.3054 387.183ZM67.5037 392.052C68.8177 392.052 69.8977 390.954 69.8977 389.613C69.8977 388.272 68.8177 387.183 67.5037 387.183C66.1807 387.183 65.1007 388.272 65.1007 389.613C65.1007 390.954 66.1807 392.052 67.5037 392.052ZM67.5037 391.449C66.5677 391.449 65.8027 390.621 65.8027 389.613C65.8027 388.605 66.5677 387.786 67.5037 387.786C68.4307 387.786 69.1957 388.605 69.1957 389.613C69.1957 390.621 68.4307 391.449 67.5037 391.449ZM71.9783 391.944H72.6173L73.8683 388.227L75.1013 391.944H75.7403L77.3063 387.291H76.5863L75.4253 391.044L74.1563 387.291H73.5713L72.3023 391.044L71.1413 387.291H70.4213L71.9783 391.944Z" fill="#0F0B47"/>
<circle cx="7.27743" cy="377.221" r="4.27743" fill="#EBEBEB"/>
<path d="M248.385 380.944H249.078L250.806 375.679L252.525 380.944H253.218L255.333 374.761H254.541L252.831 379.765L251.193 374.761H250.41L248.772 379.765L247.062 374.761H246.27L248.385 380.944ZM258.351 380.449C257.433 380.449 256.794 379.783 256.695 378.874H260.502C260.502 377.245 259.701 376.183 258.297 376.183C257.046 376.183 256.002 377.218 256.002 378.604C256.002 380.035 257.118 381.052 258.36 381.052C259.008 381.052 259.827 380.773 260.232 380.332L259.818 379.891C259.53 380.206 258.9 380.449 258.351 380.449ZM258.324 376.786C259.251 376.786 259.746 377.434 259.836 378.271H256.704C256.83 377.371 257.496 376.786 258.324 376.786ZM263.599 380.449C262.681 380.449 262.042 379.783 261.943 378.874H265.75C265.75 377.245 264.949 376.183 263.545 376.183C262.294 376.183 261.25 377.218 261.25 378.604C261.25 380.035 262.366 381.052 263.608 381.052C264.256 381.052 265.075 380.773 265.48 380.332L265.066 379.891C264.778 380.206 264.148 380.449 263.599 380.449ZM263.572 376.786C264.499 376.786 264.994 377.434 265.084 378.271H261.952C262.078 377.371 262.744 376.786 263.572 376.786ZM266.884 380.944H267.559V379.711L268.396 378.883L270.007 380.944H270.853L268.873 378.424L270.97 376.291H270.106L267.559 378.865V374.653H266.884V380.944ZM271.823 380.944H272.498V374.653H271.823V380.944ZM274.469 382.564C275.108 382.555 275.558 382.258 275.882 381.466L278.006 376.291H277.277L275.738 380.161L274.109 376.291H273.362L275.387 380.962L275.117 381.538C274.937 381.853 274.739 381.952 274.442 381.952C274.244 381.952 274.055 381.916 273.893 381.835L273.731 382.411C273.947 382.51 274.199 382.564 274.469 382.564Z" fill="#0F0B47"/>
<circle cx="235.277" cy="377.221" r="4.27743" fill="#E46BB7"/>
<path d="M131.981 380.944H132.683V376.273L134.978 380.584L137.273 376.273V380.944H137.975V374.761H137.273L134.978 379.072L132.683 374.761H131.981V380.944ZM141.735 381.052C143.049 381.052 144.129 379.954 144.129 378.613C144.129 377.272 143.049 376.183 141.735 376.183C140.412 376.183 139.332 377.272 139.332 378.613C139.332 379.954 140.412 381.052 141.735 381.052ZM141.735 380.449C140.799 380.449 140.034 379.621 140.034 378.613C140.034 377.605 140.799 376.786 141.735 376.786C142.662 376.786 143.427 377.605 143.427 378.613C143.427 379.621 142.662 380.449 141.735 380.449ZM147.497 376.183C146.831 376.183 146.237 376.534 145.967 377.029V376.291H145.292V380.944H145.967V377.983C145.967 377.326 146.615 376.786 147.407 376.786C148.091 376.786 148.568 377.308 148.568 378.073V380.944H149.243V377.983C149.243 376.912 148.532 376.183 147.497 376.183ZM152.497 380.26C152.398 380.368 152.218 380.449 152.011 380.449C151.741 380.449 151.507 380.206 151.507 379.864V376.894H152.65V376.291H151.507V375.013H150.832V376.291H150.103V376.894H150.832V379.864C150.832 380.557 151.3 381.052 151.966 381.052C152.281 381.052 152.587 380.944 152.83 380.755L152.497 380.26ZM156.005 376.183C155.339 376.183 154.745 376.534 154.475 377.029V374.653H153.8V380.944H154.475V377.983C154.475 377.326 155.123 376.786 155.915 376.786C156.599 376.786 157.076 377.308 157.076 378.073V380.944H157.751V377.983C157.751 376.912 157.04 376.183 156.005 376.183ZM159.205 380.944H159.88V374.653H159.205V380.944ZM161.851 382.564C162.49 382.555 162.94 382.258 163.264 381.466L165.388 376.291H164.659L163.12 380.161L161.491 376.291H160.744L162.769 380.962L162.499 381.538C162.319 381.853 162.121 381.952 161.824 381.952C161.626 381.952 161.437 381.916 161.275 381.835L161.113 382.411C161.329 382.51 161.581 382.564 161.851 382.564ZM170.748 381.052C172.062 381.052 173.142 379.954 173.142 378.613C173.142 377.272 172.062 376.183 170.748 376.183C169.425 376.183 168.345 377.272 168.345 378.613C168.345 379.954 169.425 381.052 170.748 381.052ZM170.748 380.449C169.812 380.449 169.047 379.621 169.047 378.613C169.047 377.605 169.812 376.786 170.748 376.786C171.675 376.786 172.44 377.605 172.44 378.613C172.44 379.621 171.675 380.449 170.748 380.449ZM174.979 377.2V376.291H174.304V380.944H174.979V378.343C174.979 377.434 175.726 376.786 176.779 376.786V376.183C175.924 376.183 175.258 376.579 174.979 377.2ZM135.257 387.291V388.164C134.906 387.552 134.312 387.183 133.565 387.183C132.341 387.183 131.423 388.191 131.423 389.613C131.423 391.044 132.341 392.052 133.565 392.052C134.312 392.052 134.906 391.683 135.257 391.071V393.492H135.932V387.291H135.257ZM133.691 391.449C132.782 391.449 132.134 390.684 132.134 389.613C132.134 388.542 132.782 387.786 133.691 387.786C134.609 387.786 135.257 388.542 135.257 389.613C135.257 390.684 134.609 391.449 133.691 391.449ZM140.664 387.291V390.252C140.664 390.909 140.016 391.449 139.224 391.449C138.54 391.449 138.063 390.927 138.063 390.162V387.291H137.388V390.252C137.388 391.323 138.099 392.052 139.134 392.052C139.8 392.052 140.394 391.701 140.664 391.206V391.944H141.339V387.291H140.664ZM144.566 387.183C144.116 387.183 143.558 387.3 142.892 387.633L143.162 388.182C143.585 387.966 144.053 387.759 144.521 387.759C145.529 387.759 145.781 388.479 145.781 389.109V389.28C145.304 389.127 144.773 389.019 144.269 389.019C143.27 389.019 142.442 389.64 142.442 390.567C142.442 391.485 143.162 392.052 144.143 392.052C144.755 392.052 145.448 391.764 145.781 391.215V391.944H146.456V389.109C146.456 387.984 145.835 387.183 144.566 387.183ZM144.26 391.458C143.603 391.458 143.099 391.116 143.099 390.54C143.099 389.982 143.684 389.586 144.377 389.586C144.881 389.586 145.358 389.658 145.781 389.775V390.486C145.601 391.143 144.872 391.458 144.26 391.458ZM148.586 388.2V387.291H147.911V391.944H148.586V389.343C148.586 388.434 149.333 387.786 150.386 387.786V387.183C149.531 387.183 148.865 387.579 148.586 388.2ZM153.279 391.26C153.18 391.368 153 391.449 152.793 391.449C152.523 391.449 152.289 391.206 152.289 390.864V387.894H153.432V387.291H152.289V386.013H151.614V387.291H150.885V387.894H151.614V390.864C151.614 391.557 152.082 392.052 152.748 392.052C153.063 392.052 153.369 391.944 153.612 391.755L153.279 391.26ZM156.544 391.449C155.626 391.449 154.987 390.783 154.888 389.874H158.695C158.695 388.245 157.894 387.183 156.49 387.183C155.239 387.183 154.195 388.218 154.195 389.604C154.195 391.035 155.311 392.052 156.553 392.052C157.201 392.052 158.02 391.773 158.425 391.332L158.011 390.891C157.723 391.206 157.093 391.449 156.544 391.449ZM156.517 387.786C157.444 387.786 157.939 388.434 158.029 389.271H154.897C155.023 388.371 155.689 387.786 156.517 387.786ZM160.504 388.2V387.291H159.829V391.944H160.504V389.343C160.504 388.434 161.251 387.786 162.304 387.786V387.183C161.449 387.183 160.783 387.579 160.504 388.2ZM163.397 391.944H164.072V385.653H163.397V391.944ZM166.043 393.564C166.682 393.555 167.132 393.258 167.456 392.466L169.58 387.291H168.851L167.312 391.161L165.683 387.291H164.936L166.961 391.962L166.691 392.538C166.511 392.853 166.313 392.952 166.016 392.952C165.818 392.952 165.629 392.916 165.467 392.835L165.305 393.411C165.521 393.51 165.773 393.564 166.043 393.564Z" fill="#0F0B47"/>
<circle cx="120.277" cy="377.221" r="4.27743" fill="#F1B5DB"/>
<path d="M131.981 416H132.683V411.329L134.978 415.64L137.273 411.329V416H137.975V409.817H137.273L134.978 414.128L132.683 409.817H131.981V416ZM142.905 411.347V414.308C142.905 414.965 142.257 415.505 141.465 415.505C140.781 415.505 140.304 414.983 140.304 414.218V411.347H139.629V414.308C139.629 415.379 140.34 416.108 141.375 416.108C142.041 416.108 142.635 415.757 142.905 415.262V416H143.58V411.347H142.905ZM145.142 416H145.817V409.709H145.142V416ZM149.184 415.316C149.085 415.424 148.905 415.505 148.698 415.505C148.428 415.505 148.194 415.262 148.194 414.92V411.95H149.337V411.347H148.194V410.069H147.519V411.347H146.79V411.95H147.519V414.92C147.519 415.613 147.987 416.108 148.653 416.108C148.968 416.108 149.274 416 149.517 415.811L149.184 415.316ZM150.828 410.501C151.071 410.501 151.269 410.294 151.269 410.051C151.269 409.817 151.071 409.61 150.828 409.61C150.576 409.61 150.378 409.817 150.378 410.051C150.378 410.294 150.576 410.501 150.828 410.501ZM150.486 416H151.161V411.347H150.486V416ZM155.094 411.239C154.347 411.239 153.753 411.608 153.402 412.22V411.347H152.727V417.548H153.402V415.127C153.753 415.739 154.347 416.108 155.094 416.108C156.318 416.108 157.236 415.1 157.236 413.669C157.236 412.247 156.318 411.239 155.094 411.239ZM154.968 415.505C154.05 415.505 153.402 414.74 153.402 413.669C153.402 412.598 154.05 411.842 154.968 411.842C155.877 411.842 156.525 412.598 156.525 413.669C156.525 414.74 155.877 415.505 154.968 415.505ZM158.44 416H159.115V409.709H158.44V416ZM162.643 415.505C161.725 415.505 161.086 414.839 160.987 413.93H164.794C164.794 412.301 163.993 411.239 162.589 411.239C161.338 411.239 160.294 412.274 160.294 413.66C160.294 415.091 161.41 416.108 162.652 416.108C163.3 416.108 164.119 415.829 164.524 415.388L164.11 414.947C163.822 415.262 163.192 415.505 162.643 415.505ZM162.616 411.842C163.543 411.842 164.038 412.49 164.128 413.327H160.996C161.122 412.427 161.788 411.842 162.616 411.842ZM133.583 426.316C133.484 426.424 133.304 426.505 133.097 426.505C132.827 426.505 132.593 426.262 132.593 425.92V422.95H133.736V422.347H132.593V421.069H131.918V422.347H131.189V422.95H131.918V425.92C131.918 426.613 132.386 427.108 133.052 427.108C133.367 427.108 133.673 427 133.916 426.811L133.583 426.316ZM135.228 421.501C135.471 421.501 135.669 421.294 135.669 421.051C135.669 420.817 135.471 420.61 135.228 420.61C134.976 420.61 134.778 420.817 134.778 421.051C134.778 421.294 134.976 421.501 135.228 421.501ZM134.886 427H135.561V422.347H134.886V427ZM142.158 422.239C141.42 422.239 140.844 422.689 140.7 423.346C140.466 422.671 139.89 422.239 139.152 422.239C138.54 422.239 138.036 422.545 137.802 423.031V422.347H137.127V427H137.802V424.039C137.802 423.337 138.324 422.842 139.062 422.842C139.692 422.842 140.133 423.373 140.133 424.129V427H140.808V424.039C140.808 423.337 141.33 422.842 142.068 422.842C142.698 422.842 143.139 423.373 143.139 424.129V427H143.814V424.039C143.814 422.986 143.13 422.239 142.158 422.239ZM147.236 426.505C146.318 426.505 145.679 425.839 145.58 424.93H149.387C149.387 423.301 148.586 422.239 147.182 422.239C145.931 422.239 144.887 423.274 144.887 424.66C144.887 426.091 146.003 427.108 147.245 427.108C147.893 427.108 148.712 426.829 149.117 426.388L148.703 425.947C148.415 426.262 147.785 426.505 147.236 426.505ZM147.209 422.842C148.136 422.842 148.631 423.49 148.721 424.327H145.589C145.715 423.427 146.381 422.842 147.209 422.842ZM151.961 427.108C152.924 427.108 153.662 426.559 153.662 425.704C153.662 424.822 152.888 424.57 152.141 424.336C151.277 424.057 150.935 423.931 150.935 423.526C150.935 423.076 151.367 422.842 151.889 422.842C152.303 422.842 152.762 422.986 153.23 423.283L153.554 422.761C153.059 422.437 152.465 422.239 151.889 422.239C150.962 422.239 150.26 422.761 150.26 423.607C150.26 424.273 150.692 424.606 151.817 424.93C152.447 425.11 152.987 425.272 152.987 425.776C152.987 426.217 152.573 426.505 151.961 426.505C151.448 426.505 150.917 426.307 150.386 425.92L150.035 426.415C150.593 426.865 151.313 427.108 151.961 427.108ZM158.963 422.239C158.513 422.239 157.955 422.356 157.289 422.689L157.559 423.238C157.982 423.022 158.45 422.815 158.918 422.815C159.926 422.815 160.178 423.535 160.178 424.165V424.336C159.701 424.183 159.17 424.075 158.666 424.075C157.667 424.075 156.839 424.696 156.839 425.623C156.839 426.541 157.559 427.108 158.54 427.108C159.152 427.108 159.845 426.82 160.178 426.271V427H160.853V424.165C160.853 423.04 160.232 422.239 158.963 422.239ZM158.657 426.514C158 426.514 157.496 426.172 157.496 425.596C157.496 425.038 158.081 424.642 158.774 424.642C159.278 424.642 159.755 424.714 160.178 424.831V425.542C159.998 426.199 159.269 426.514 158.657 426.514ZM168.26 420.709V423.22C167.909 422.608 167.315 422.239 166.568 422.239C165.344 422.239 164.426 423.247 164.426 424.669C164.426 426.1 165.344 427.108 166.568 427.108C167.315 427.108 167.909 426.739 168.26 426.127V427H168.935V420.709H168.26ZM166.694 426.505C165.785 426.505 165.137 425.74 165.137 424.669C165.137 423.598 165.785 422.842 166.694 422.842C167.612 422.842 168.26 423.598 168.26 424.669C168.26 425.74 167.612 426.505 166.694 426.505ZM172.164 422.239C171.714 422.239 171.156 422.356 170.49 422.689L170.76 423.238C171.183 423.022 171.651 422.815 172.119 422.815C173.127 422.815 173.379 423.535 173.379 424.165V424.336C172.902 424.183 172.371 424.075 171.867 424.075C170.868 424.075 170.04 424.696 170.04 425.623C170.04 426.541 170.76 427.108 171.741 427.108C172.353 427.108 173.046 426.82 173.379 426.271V427H174.054V424.165C174.054 423.04 173.433 422.239 172.164 422.239ZM171.858 426.514C171.201 426.514 170.697 426.172 170.697 425.596C170.697 425.038 171.282 424.642 171.975 424.642C172.479 424.642 172.956 424.714 173.379 424.831V425.542C173.199 426.199 172.47 426.514 171.858 426.514ZM175.914 428.62C176.553 428.611 177.003 428.314 177.327 427.522L179.451 422.347H178.722L177.183 426.217L175.554 422.347H174.807L176.832 427.018L176.562 427.594C176.382 427.909 176.184 428.008 175.887 428.008C175.689 428.008 175.5 427.972 175.338 427.891L175.176 428.467C175.392 428.566 175.644 428.62 175.914 428.62Z" fill="#0F0B47"/>
<circle cx="120.277" cy="412.221" r="4.27743" fill="#991B7C"/>
<path d="M18.981 415.944H21.069C23.031 415.944 24.417 414.657 24.417 412.848C24.417 411.039 23.031 409.761 21.069 409.761H18.981V415.944ZM19.683 415.305V410.4H21.069C22.617 410.4 23.706 411.417 23.706 412.848C23.706 414.288 22.617 415.305 21.069 415.305H19.683ZM27.365 411.183C26.915 411.183 26.357 411.3 25.691 411.633L25.961 412.182C26.384 411.966 26.852 411.759 27.32 411.759C28.328 411.759 28.58 412.479 28.58 413.109V413.28C28.103 413.127 27.572 413.019 27.068 413.019C26.069 413.019 25.241 413.64 25.241 414.567C25.241 415.485 25.961 416.052 26.942 416.052C27.554 416.052 28.247 415.764 28.58 415.215V415.944H29.255V413.109C29.255 411.984 28.634 411.183 27.365 411.183ZM27.059 415.458C26.402 415.458 25.898 415.116 25.898 414.54C25.898 413.982 26.483 413.586 27.176 413.586C27.68 413.586 28.157 413.658 28.58 413.775V414.486C28.4 415.143 27.671 415.458 27.059 415.458ZM31.0518 410.445C31.2948 410.445 31.4928 410.238 31.4928 409.995C31.4928 409.761 31.2948 409.554 31.0518 409.554C30.7998 409.554 30.6018 409.761 30.6018 409.995C30.6018 410.238 30.7998 410.445 31.0518 410.445ZM30.7098 415.944H31.3848V411.291H30.7098V415.944ZM32.951 415.944H33.626V409.653H32.951V415.944ZM35.5972 417.564C36.2362 417.555 36.6862 417.258 37.0102 416.466L39.1342 411.291H38.4052L36.8662 415.161L35.2372 411.291H34.4902L36.5152 415.962L36.2452 416.538C36.0652 416.853 35.8672 416.952 35.5702 416.952C35.3722 416.952 35.1832 416.916 35.0212 416.835L34.8592 417.411C35.0752 417.51 35.3272 417.564 35.5972 417.564Z" fill="#0F0B47"/>
<circle cx="7.27743" cy="412.221" r="4.27743" fill="#D62293"/>
</svg>
