<svg width="1152" height="427" viewBox="0 0 1152 427" fill="none" xmlns="http://www.w3.org/2000/svg">
<rect x="1" y="193.035" width="514.63" height="73.1405" fill="#1B0085"/>
<rect x="1" y="215.335" width="359.27" height="50.8416" fill="#542AED"/>
<rect x="1" y="241.201" width="291.3" height="24.9748" fill="#E46BB7"/>
<path d="M257.48 177.192C259.768 177.192 261.304 175.864 261.304 174.024C261.304 172.44 260.056 171.624 258.936 171.368C260.072 171.032 261.064 170.2 261.064 168.792C261.064 167.032 259.528 165.816 257.432 165.816C255.72 165.816 254.504 166.648 253.672 167.752L254.504 168.504C255.288 167.56 256.152 166.952 257.368 166.952C258.744 166.952 259.8 167.784 259.8 168.936C259.8 170.184 258.696 170.888 257.224 170.872L256.04 170.856V172.008H257.208C258.936 172.008 260.04 172.664 260.04 173.96C260.04 175.208 259.016 176.056 257.48 176.056C256.136 176.056 255.064 175.416 254.344 174.488L253.48 175.304C254.28 176.36 255.672 177.192 257.48 177.192ZM267.849 177.192C270.521 177.192 272.409 174.84 272.409 171.496C272.409 168.168 270.521 165.816 267.849 165.816C265.161 165.816 263.273 168.168 263.273 171.496C263.273 174.84 265.161 177.192 267.849 177.192ZM267.849 176.04C265.913 176.04 264.537 174.152 264.537 171.496C264.537 168.84 265.913 166.968 267.849 166.968C269.785 166.968 271.145 168.84 271.145 171.496C271.145 174.152 269.785 176.04 267.849 176.04ZM276.927 171.416C278.431 171.416 279.487 170.216 279.487 168.664C279.487 167.144 278.463 165.912 276.943 165.912C275.455 165.912 274.383 167.112 274.383 168.696C274.383 170.184 275.407 171.416 276.927 171.416ZM275.727 177H276.943L284.463 166.008H283.247L275.727 177ZM276.943 170.552C276.063 170.552 275.391 169.736 275.391 168.68C275.391 167.576 276.031 166.776 276.927 166.776C277.823 166.776 278.479 167.592 278.479 168.68C278.479 169.752 277.839 170.552 276.943 170.552ZM283.199 177.16C284.687 177.16 285.759 175.96 285.759 174.392C285.759 172.904 284.735 171.656 283.215 171.656C281.695 171.656 280.655 172.904 280.655 174.408C280.655 175.976 281.727 177.16 283.199 177.16ZM283.215 176.296C282.303 176.296 281.663 175.48 281.663 174.392C281.663 173.352 282.287 172.52 283.199 172.52C284.095 172.52 284.751 173.336 284.751 174.408C284.751 175.496 284.127 176.296 283.215 176.296Z" fill="#0F0B47"/>
<line x1="292.147" y1="163.209" x2="292.147" y2="265.676" stroke="#0F0B47" stroke-linecap="square" stroke-dasharray="10 10"/>
<path d="M326.48 177.192C328.768 177.192 330.304 175.864 330.304 174.024C330.304 172.44 329.056 171.624 327.936 171.368C329.072 171.032 330.064 170.2 330.064 168.792C330.064 167.032 328.528 165.816 326.432 165.816C324.72 165.816 323.504 166.648 322.672 167.752L323.504 168.504C324.288 167.56 325.152 166.952 326.368 166.952C327.744 166.952 328.8 167.784 328.8 168.936C328.8 170.184 327.696 170.888 326.224 170.872L325.04 170.856V172.008H326.208C327.936 172.008 329.04 172.664 329.04 173.96C329.04 175.208 328.016 176.056 326.48 176.056C325.136 176.056 324.064 175.416 323.344 174.488L322.48 175.304C323.28 176.36 324.672 177.192 326.48 177.192ZM332.929 177H334.369L339.105 166.952V166.008H331.665V167.192H337.617L332.929 177ZM343.099 171.416C344.603 171.416 345.659 170.216 345.659 168.664C345.659 167.144 344.635 165.912 343.115 165.912C341.627 165.912 340.555 167.112 340.555 168.696C340.555 170.184 341.579 171.416 343.099 171.416ZM341.899 177H343.115L350.635 166.008H349.419L341.899 177ZM343.115 170.552C342.235 170.552 341.563 169.736 341.563 168.68C341.563 167.576 342.203 166.776 343.099 166.776C343.995 166.776 344.651 167.592 344.651 168.68C344.651 169.752 344.011 170.552 343.115 170.552ZM349.371 177.16C350.859 177.16 351.931 175.96 351.931 174.392C351.931 172.904 350.907 171.656 349.387 171.656C347.867 171.656 346.827 172.904 346.827 174.408C346.827 175.976 347.899 177.16 349.371 177.16ZM349.387 176.296C348.475 176.296 347.835 175.48 347.835 174.392C347.835 173.352 348.459 172.52 349.371 172.52C350.267 172.52 350.923 173.336 350.923 174.408C350.923 175.496 350.299 176.296 349.387 176.296Z" fill="#0F0B47"/>
<line x1="360.371" y1="163.209" x2="360.371" y2="265.676" stroke="#0F0B47" stroke-linecap="square" stroke-dasharray="10 10"/>
<path d="M481.752 177.192C484.008 177.192 485.656 175.752 485.656 173.576C485.656 171.4 484.008 170.152 482.024 170.152C481.016 170.152 480.264 170.488 479.672 170.888L479.784 167.192H485.064V166.008H478.568L478.408 171.656L479.32 172.104C480.008 171.592 480.824 171.256 481.768 171.256C483.304 171.256 484.392 172.216 484.392 173.624C484.392 175.016 483.32 176.072 481.8 176.072C480.584 176.072 479.544 175.464 478.696 174.536L477.88 175.448C478.776 176.472 480.056 177.192 481.752 177.192ZM490.964 177.192C493.252 177.192 494.788 175.864 494.788 174.024C494.788 172.44 493.54 171.624 492.42 171.368C493.556 171.032 494.548 170.2 494.548 168.792C494.548 167.032 493.012 165.816 490.916 165.816C489.204 165.816 487.988 166.648 487.156 167.752L487.988 168.504C488.772 167.56 489.636 166.952 490.852 166.952C492.228 166.952 493.284 167.784 493.284 168.936C493.284 170.184 492.18 170.888 490.708 170.872L489.524 170.856V172.008H490.692C492.42 172.008 493.524 172.664 493.524 173.96C493.524 175.208 492.5 176.056 490.964 176.056C489.62 176.056 488.548 175.416 487.828 174.488L486.964 175.304C487.764 176.36 489.156 177.192 490.964 177.192ZM499.349 171.416C500.853 171.416 501.909 170.216 501.909 168.664C501.909 167.144 500.885 165.912 499.365 165.912C497.877 165.912 496.805 167.112 496.805 168.696C496.805 170.184 497.829 171.416 499.349 171.416ZM498.149 177H499.365L506.885 166.008H505.669L498.149 177ZM499.365 170.552C498.485 170.552 497.813 169.736 497.813 168.68C497.813 167.576 498.453 166.776 499.349 166.776C500.245 166.776 500.901 167.592 500.901 168.68C500.901 169.752 500.261 170.552 499.365 170.552ZM505.621 177.16C507.109 177.16 508.181 175.96 508.181 174.392C508.181 172.904 507.157 171.656 505.637 171.656C504.117 171.656 503.077 172.904 503.077 174.408C503.077 175.976 504.149 177.16 505.621 177.16ZM505.637 176.296C504.725 176.296 504.085 175.48 504.085 174.392C504.085 173.352 504.709 172.52 505.621 172.52C506.517 172.52 507.173 173.336 507.173 174.408C507.173 175.496 506.549 176.296 505.637 176.296Z" fill="#0F0B47"/>
<line x1="515.702" y1="163.209" x2="515.702" y2="265.676" stroke="#0F0B47" stroke-linecap="square" stroke-dasharray="10 10"/>
<path d="M5.456 156.192C8.128 156.192 9.728 154.8 9.728 152.704C9.728 150.672 8.16 149.968 5.792 149.44C4.096 149.056 3.424 148.8 3.424 148C3.424 147.344 4.048 146.816 5.04 146.816C6.096 146.816 7.2 147.248 8.192 148.048L9.424 146.336C8.288 145.376 6.912 144.816 5.12 144.816C2.704 144.816 1.04 146.208 1.04 148.24C1.04 150.368 2.704 151.024 5.024 151.552C6.704 151.936 7.344 152.176 7.344 152.96C7.344 153.648 6.736 154.192 5.536 154.192C4.144 154.192 2.96 153.648 1.92 152.752L0.576 154.368C1.856 155.552 3.536 156.192 5.456 156.192ZM15.3495 154.384C14.2135 154.384 13.4455 153.6 13.2375 152.48H19.4615C19.4615 149.408 17.8935 147.536 15.3015 147.536C12.8855 147.536 11.0135 149.344 11.0135 151.84C11.0135 154.384 12.9655 156.192 15.4295 156.192C16.6455 156.192 18.0695 155.68 18.8055 154.912L17.4935 153.568C16.9655 154.048 16.1175 154.384 15.3495 154.384ZM15.3335 149.344C16.3735 149.344 17.0295 150.064 17.2215 151.088H13.2535C13.5095 150.032 14.2935 149.344 15.3335 149.344ZM23.3779 149.28V147.728H21.0419V156H23.3779V152.048C23.3779 150.496 24.4819 149.504 26.2099 149.504V147.536C24.9459 147.536 23.9219 148.208 23.3779 149.28ZM30.5569 156H32.7329L36.2689 147.728H33.8209L31.6449 153.312L29.4209 147.728H26.9889L30.5569 156ZM41.3495 154.384C40.2135 154.384 39.4455 153.6 39.2375 152.48H45.4615C45.4615 149.408 43.8935 147.536 41.3015 147.536C38.8855 147.536 37.0135 149.344 37.0135 151.84C37.0135 154.384 38.9655 156.192 41.4295 156.192C42.6455 156.192 44.0695 155.68 44.8055 154.912L43.4935 153.568C42.9655 154.048 42.1175 154.384 41.3495 154.384ZM41.3335 149.344C42.3735 149.344 43.0295 150.064 43.2215 151.088H39.2535C39.5095 150.032 40.2935 149.344 41.3335 149.344ZM49.3779 149.28V147.728H47.0419V156H49.3779V152.048C49.3779 150.496 50.4819 149.504 52.2099 149.504V147.536C50.9459 147.536 49.9219 148.208 49.3779 149.28ZM53.9169 156H56.2529V144.816H53.9169V156ZM62.287 154.384C61.151 154.384 60.383 153.6 60.175 152.48H66.399C66.399 149.408 64.831 147.536 62.239 147.536C59.823 147.536 57.951 149.344 57.951 151.84C57.951 154.384 59.903 156.192 62.367 156.192C63.583 156.192 65.007 155.68 65.743 154.912L64.431 153.568C63.903 154.048 63.055 154.384 62.287 154.384ZM62.271 149.344C63.311 149.344 63.967 150.064 64.159 151.088H60.191C60.447 150.032 61.231 149.344 62.271 149.344ZM71.0034 156.192C73.0354 156.192 74.3794 155.152 74.3794 153.52C74.3794 151.712 72.7794 151.232 71.3554 150.864C70.2354 150.56 69.7714 150.432 69.7714 149.984C69.7714 149.52 70.2514 149.216 70.8914 149.216C71.6434 149.216 72.5394 149.584 73.2914 150.064L74.1394 148.56C73.2274 147.952 72.0594 147.536 70.8914 147.536C68.9234 147.536 67.6594 148.656 67.6594 150.224C67.6594 151.856 68.9714 152.32 70.6674 152.736C71.5794 152.96 72.2514 153.184 72.2514 153.712C72.2514 154.192 71.8354 154.48 71.0514 154.48C70.1554 154.48 69.0674 154.08 68.2194 153.472L67.2754 154.944C68.2674 155.744 69.6754 156.192 71.0034 156.192ZM79.0503 156.192C81.0823 156.192 82.4263 155.152 82.4263 153.52C82.4263 151.712 80.8263 151.232 79.4023 150.864C78.2823 150.56 77.8183 150.432 77.8183 149.984C77.8183 149.52 78.2983 149.216 78.9383 149.216C79.6903 149.216 80.5863 149.584 81.3383 150.064L82.1863 148.56C81.2743 147.952 80.1063 147.536 78.9383 147.536C76.9703 147.536 75.7063 148.656 75.7063 150.224C75.7063 151.856 77.0182 152.32 78.7143 152.736C79.6263 152.96 80.2983 153.184 80.2983 153.712C80.2983 154.192 79.8823 154.48 79.0983 154.48C78.2023 154.48 77.1143 154.08 76.2663 153.472L75.3223 154.944C76.3143 155.744 77.7223 156.192 79.0503 156.192ZM9.344 177H12L7.52 166.008H4.88L0.4 177H3.04L3.808 175.112H8.576L9.344 177ZM4.56 173.272L6.192 169.256L7.824 173.272H4.56ZM15.8623 170.28V168.728H13.5263V177H15.8623V173.048C15.8623 171.496 16.9663 170.504 18.6943 170.504V168.536C17.4303 168.536 16.4062 169.208 15.8623 170.28ZM24.3053 177.192C25.6973 177.192 26.8173 176.632 27.6333 175.736L26.0813 174.424C25.6493 174.904 24.9773 175.224 24.3373 175.224C23.1053 175.224 22.0813 174.136 22.0813 172.84C22.0813 171.576 23.1053 170.504 24.3213 170.504C24.9613 170.504 25.6173 170.808 26.0333 171.272L27.5853 169.944C26.7853 169.08 25.6653 168.536 24.3373 168.536C21.8893 168.536 19.8092 170.504 19.8092 172.856C19.8092 175.208 21.8733 177.192 24.3053 177.192ZM33.9051 168.536C32.8331 168.536 31.9211 169 31.4091 169.736V165.816H29.0731V177H31.4091V172.104C31.4091 171.208 32.1611 170.504 33.1371 170.504C34.0651 170.504 34.7211 171.208 34.7211 172.232V177H36.9611V171.736C36.9611 169.848 35.6971 168.536 33.9051 168.536ZM40.2259 167.592C40.9139 167.592 41.4739 167.016 41.4739 166.312C41.4739 165.656 40.9139 165.064 40.2259 165.064C39.5059 165.064 38.9459 165.656 38.9459 166.312C38.9459 167.016 39.5059 167.592 40.2259 167.592ZM39.0419 177H41.3779V168.728H39.0419V177ZM47.828 174.952C47.668 175.112 47.348 175.224 47.028 175.224C46.596 175.224 46.26 174.84 46.26 174.296V170.616H48.052V168.728H46.26V166.456H44.004V168.728H42.868V170.616H44.004V174.664C44.004 176.152 45.028 177.192 46.5 177.192C47.156 177.192 47.908 176.904 48.388 176.472L47.828 174.952ZM53.6933 175.384C52.5573 175.384 51.7893 174.6 51.5813 173.48H57.8053C57.8053 170.408 56.2373 168.536 53.6453 168.536C51.2293 168.536 49.3573 170.344 49.3573 172.84C49.3573 175.384 51.3093 177.192 53.7733 177.192C54.9893 177.192 56.4133 176.68 57.1493 175.912L55.8373 174.568C55.3093 175.048 54.4613 175.384 53.6933 175.384ZM53.6773 170.344C54.7173 170.344 55.3733 171.064 55.5653 172.088H51.5973C51.8533 171.032 52.6373 170.344 53.6773 170.344ZM63.2896 177.192C64.6816 177.192 65.8016 176.632 66.6176 175.736L65.0656 174.424C64.6336 174.904 63.9616 175.224 63.3216 175.224C62.0896 175.224 61.0656 174.136 61.0656 172.84C61.0656 171.576 62.0896 170.504 63.3056 170.504C63.9456 170.504 64.6016 170.808 65.0176 171.272L66.5696 169.944C65.7696 169.08 64.6496 168.536 63.3216 168.536C60.8736 168.536 58.7936 170.504 58.7936 172.856C58.7936 175.208 60.8576 177.192 63.2896 177.192ZM72.2655 174.952C72.1055 175.112 71.7855 175.224 71.4655 175.224C71.0335 175.224 70.6975 174.84 70.6975 174.296V170.616H72.4895V168.728H70.6975V166.456H68.4415V168.728H67.3055V170.616H68.4415V174.664C68.4415 176.152 69.4655 177.192 70.9375 177.192C71.5935 177.192 72.3455 176.904 72.8255 176.472L72.2655 174.952ZM79.7308 168.728V173.624C79.7308 174.52 78.9788 175.224 78.0028 175.224C77.0748 175.224 76.4188 174.52 76.4188 173.496V168.728H74.1788V173.992C74.1788 175.88 75.4428 177.192 77.2508 177.192C78.3068 177.192 79.2188 176.728 79.7308 175.992V177H82.0668V168.728H79.7308ZM86.6435 170.28V168.728H84.3075V177H86.6435V173.048C86.6435 171.496 87.7475 170.504 89.4755 170.504V168.536C88.2115 168.536 87.1875 169.208 86.6435 170.28ZM94.9745 175.384C93.8385 175.384 93.0705 174.6 92.8625 173.48H99.0865C99.0865 170.408 97.5185 168.536 94.9265 168.536C92.5105 168.536 90.6385 170.344 90.6385 172.84C90.6385 175.384 92.5905 177.192 95.0545 177.192C96.2705 177.192 97.6945 176.68 98.4305 175.912L97.1185 174.568C96.5905 175.048 95.7425 175.384 94.9745 175.384ZM94.9585 170.344C95.9985 170.344 96.6545 171.064 96.8465 172.088H92.8785C93.1345 171.032 93.9185 170.344 94.9585 170.344ZM99.6589 178.184H102.123L107.627 165.112H105.163L99.6589 178.184ZM117.59 168.136V166.008H109.126V177H111.494V172.648H117.03V170.52H111.494V168.136H117.59ZM122.842 168.536C121.69 168.536 120.554 168.856 119.386 169.448L120.17 171C120.826 170.664 121.546 170.408 122.314 170.408C123.674 170.408 124.234 171.176 124.234 172.056V172.232C123.53 171.944 122.778 171.8 122.106 171.8C120.202 171.8 118.682 172.92 118.682 174.552C118.682 176.136 120.026 177.192 121.786 177.192C122.698 177.192 123.642 176.824 124.234 176.168V177H126.49V172.056C126.49 169.896 125.002 168.536 122.842 168.536ZM122.314 175.576C121.514 175.576 120.906 175.16 120.906 174.488C120.906 173.816 121.594 173.32 122.442 173.32C123.082 173.32 123.706 173.432 124.234 173.64V174.392C124.058 175.16 123.21 175.576 122.314 175.576ZM132.03 168.536C130.878 168.536 129.742 168.856 128.574 169.448L129.358 171C130.014 170.664 130.734 170.408 131.502 170.408C132.862 170.408 133.422 171.176 133.422 172.056V172.232C132.718 171.944 131.966 171.8 131.294 171.8C129.39 171.8 127.87 172.92 127.87 174.552C127.87 176.136 129.214 177.192 130.974 177.192C131.886 177.192 132.83 176.824 133.422 176.168V177H135.678V172.056C135.678 169.896 134.19 168.536 132.03 168.536ZM131.502 175.576C130.702 175.576 130.094 175.16 130.094 174.488C130.094 173.816 130.782 173.32 131.63 173.32C132.27 173.32 132.894 173.432 133.422 173.64V174.392C133.246 175.16 132.398 175.576 131.502 175.576ZM142.065 177.192C144.737 177.192 146.337 175.8 146.337 173.704C146.337 171.672 144.769 170.968 142.401 170.44C140.705 170.056 140.033 169.8 140.033 169C140.033 168.344 140.657 167.816 141.649 167.816C142.705 167.816 143.809 168.248 144.801 169.048L146.033 167.336C144.897 166.376 143.521 165.816 141.729 165.816C139.313 165.816 137.649 167.208 137.649 169.24C137.649 171.368 139.313 172.024 141.633 172.552C143.313 172.936 143.953 173.176 143.953 173.96C143.953 174.648 143.345 175.192 142.145 175.192C140.753 175.192 139.569 174.648 138.529 173.752L137.185 175.368C138.465 176.552 140.145 177.192 142.065 177.192Z" fill="#0F0B47"/>
<rect x="1" y="353.035" width="689.41" height="73.1405" fill="#1B0085"/>
<line x1="331.5" y1="323.5" x2="331.5" y2="400.5" stroke="#0F0B47" stroke-linecap="square" stroke-dasharray="10 10"/>
<rect x="1" y="375.335" width="330.14" height="50.8416" fill="#542AED"/>
<rect x="1" y="401.201" width="359.27" height="24.9748" fill="#E46BB7"/>
<path d="M328.48 310.192C330.768 310.192 332.304 308.864 332.304 307.024C332.304 305.44 331.056 304.624 329.936 304.368C331.072 304.032 332.064 303.2 332.064 301.792C332.064 300.032 330.528 298.816 328.432 298.816C326.72 298.816 325.504 299.648 324.672 300.752L325.504 301.504C326.288 300.56 327.152 299.952 328.368 299.952C329.744 299.952 330.8 300.784 330.8 301.936C330.8 303.184 329.696 303.888 328.224 303.872L327.04 303.856V305.008H328.208C329.936 305.008 331.04 305.664 331.04 306.96C331.04 308.208 330.016 309.056 328.48 309.056C327.136 309.056 326.064 308.416 325.344 307.488L324.48 308.304C325.28 309.36 326.672 310.192 328.48 310.192ZM334.929 310H336.369L341.105 299.952V299.008H333.665V300.192H339.617L334.929 310ZM345.099 304.416C346.603 304.416 347.659 303.216 347.659 301.664C347.659 300.144 346.635 298.912 345.115 298.912C343.627 298.912 342.555 300.112 342.555 301.696C342.555 303.184 343.579 304.416 345.099 304.416ZM343.899 310H345.115L352.635 299.008H351.419L343.899 310ZM345.115 303.552C344.235 303.552 343.563 302.736 343.563 301.68C343.563 300.576 344.203 299.776 345.099 299.776C345.995 299.776 346.651 300.592 346.651 301.68C346.651 302.752 346.011 303.552 345.115 303.552ZM351.371 310.16C352.859 310.16 353.931 308.96 353.931 307.392C353.931 305.904 352.907 304.656 351.387 304.656C349.867 304.656 348.827 305.904 348.827 307.408C348.827 308.976 349.899 310.16 351.371 310.16ZM351.387 309.296C350.475 309.296 349.835 308.48 349.835 307.392C349.835 306.352 350.459 305.52 351.371 305.52C352.267 305.52 352.923 306.336 352.923 307.408C352.923 308.496 352.299 309.296 351.387 309.296Z" fill="#0F0B47"/>
<line x1="360.5" y1="295.5" x2="360.5" y2="425.5" stroke="#0F0B47" stroke-linecap="square" stroke-dasharray="10 10"/>
<path d="M297.48 337.192C299.768 337.192 301.304 335.864 301.304 334.024C301.304 332.44 300.056 331.624 298.936 331.368C300.072 331.032 301.064 330.2 301.064 328.792C301.064 327.032 299.528 325.816 297.432 325.816C295.72 325.816 294.504 326.648 293.672 327.752L294.504 328.504C295.288 327.56 296.152 326.952 297.368 326.952C298.744 326.952 299.8 327.784 299.8 328.936C299.8 330.184 298.696 330.888 297.224 330.872L296.04 330.856V332.008H297.208C298.936 332.008 300.04 332.664 300.04 333.96C300.04 335.208 299.016 336.056 297.48 336.056C296.136 336.056 295.064 335.416 294.344 334.488L293.48 335.304C294.28 336.36 295.672 337.192 297.48 337.192ZM308.393 337H309.641V334.328H311.289V333.192H309.641V326.008H308.201L302.745 333.288L302.905 334.328H308.393V337ZM304.169 333.192L308.393 327.512V333.192H304.169ZM315.271 331.416C316.775 331.416 317.831 330.216 317.831 328.664C317.831 327.144 316.807 325.912 315.287 325.912C313.799 325.912 312.727 327.112 312.727 328.696C312.727 330.184 313.751 331.416 315.271 331.416ZM314.071 337H315.287L322.807 326.008H321.591L314.071 337ZM315.287 330.552C314.407 330.552 313.735 329.736 313.735 328.68C313.735 327.576 314.375 326.776 315.271 326.776C316.167 326.776 316.823 327.592 316.823 328.68C316.823 329.752 316.183 330.552 315.287 330.552ZM321.543 337.16C323.031 337.16 324.103 335.96 324.103 334.392C324.103 332.904 323.079 331.656 321.559 331.656C320.039 331.656 318.999 332.904 318.999 334.408C318.999 335.976 320.071 337.16 321.543 337.16ZM321.559 336.296C320.647 336.296 320.007 335.48 320.007 334.392C320.007 333.352 320.631 332.52 321.543 332.52C322.439 332.52 323.095 333.336 323.095 334.408C323.095 335.496 322.471 336.296 321.559 336.296Z" fill="#0F0B47"/>
<path d="M654.616 337H656.056L660.792 326.952V326.008H653.352V327.192H659.304L654.616 337ZM664.018 337H665.266V326.008H664.258L661.554 327.848L662.098 328.776L664.018 327.528V337ZM670.505 331.416C672.009 331.416 673.065 330.216 673.065 328.664C673.065 327.144 672.041 325.912 670.521 325.912C669.033 325.912 667.961 327.112 667.961 328.696C667.961 330.184 668.985 331.416 670.505 331.416ZM669.305 337H670.521L678.041 326.008H676.825L669.305 337ZM670.521 330.552C669.641 330.552 668.969 329.736 668.969 328.68C668.969 327.576 669.609 326.776 670.505 326.776C671.401 326.776 672.057 327.592 672.057 328.68C672.057 329.752 671.417 330.552 670.521 330.552ZM676.777 337.16C678.265 337.16 679.337 335.96 679.337 334.392C679.337 332.904 678.313 331.656 676.793 331.656C675.273 331.656 674.233 332.904 674.233 334.408C674.233 335.976 675.305 337.16 676.777 337.16ZM676.793 336.296C675.881 336.296 675.241 335.48 675.241 334.392C675.241 333.352 675.865 332.52 676.777 332.52C677.673 332.52 678.329 333.336 678.329 334.408C678.329 335.496 677.705 336.296 676.793 336.296Z" fill="#0F0B47"/>
<line x1="689.702" y1="323.209" x2="689.702" y2="425.676" stroke="#0F0B47" stroke-linecap="square" stroke-dasharray="10 10"/>
<path d="M5.456 337.192C8.128 337.192 9.728 335.8 9.728 333.704C9.728 331.672 8.16 330.968 5.792 330.44C4.096 330.056 3.424 329.8 3.424 329C3.424 328.344 4.048 327.816 5.04 327.816C6.096 327.816 7.2 328.248 8.192 329.048L9.424 327.336C8.288 326.376 6.912 325.816 5.12 325.816C2.704 325.816 1.04 327.208 1.04 329.24C1.04 331.368 2.704 332.024 5.024 332.552C6.704 332.936 7.344 333.176 7.344 333.96C7.344 334.648 6.736 335.192 5.536 335.192C4.144 335.192 2.96 334.648 1.92 333.752L0.576 335.368C1.856 336.552 3.536 337.192 5.456 337.192ZM15.3495 335.384C14.2135 335.384 13.4455 334.6 13.2375 333.48H19.4615C19.4615 330.408 17.8935 328.536 15.3015 328.536C12.8855 328.536 11.0135 330.344 11.0135 332.84C11.0135 335.384 12.9655 337.192 15.4295 337.192C16.6455 337.192 18.0695 336.68 18.8055 335.912L17.4935 334.568C16.9655 335.048 16.1175 335.384 15.3495 335.384ZM15.3335 330.344C16.3735 330.344 17.0295 331.064 17.2215 332.088H13.2535C13.5095 331.032 14.2935 330.344 15.3335 330.344ZM23.3779 330.28V328.728H21.0419V337H23.3779V333.048C23.3779 331.496 24.4819 330.504 26.2099 330.504V328.536C24.9459 328.536 23.9219 329.208 23.3779 330.28ZM30.5569 337H32.7329L36.2689 328.728H33.8209L31.6449 334.312L29.4209 328.728H26.9889L30.5569 337ZM38.7415 327.592C39.4295 327.592 39.9895 327.016 39.9895 326.312C39.9895 325.656 39.4295 325.064 38.7415 325.064C38.0215 325.064 37.4615 325.656 37.4615 326.312C37.4615 327.016 38.0215 327.592 38.7415 327.592ZM37.5575 337H39.8935V328.728H37.5575V337ZM46.0396 337.192C47.4316 337.192 48.5516 336.632 49.3676 335.736L47.8156 334.424C47.3836 334.904 46.7116 335.224 46.0716 335.224C44.8396 335.224 43.8156 334.136 43.8156 332.84C43.8156 331.576 44.8396 330.504 46.0556 330.504C46.6956 330.504 47.3516 330.808 47.7676 331.272L49.3196 329.944C48.5196 329.08 47.3996 328.536 46.0716 328.536C43.6236 328.536 41.5436 330.504 41.5436 332.856C41.5436 335.208 43.6076 337.192 46.0396 337.192ZM54.5995 335.384C53.4635 335.384 52.6955 334.6 52.4875 333.48H58.7115C58.7115 330.408 57.1435 328.536 54.5515 328.536C52.1355 328.536 50.2635 330.344 50.2635 332.84C50.2635 335.384 52.2155 337.192 54.6795 337.192C55.8955 337.192 57.3195 336.68 58.0555 335.912L56.7435 334.568C56.2155 335.048 55.3675 335.384 54.5995 335.384ZM54.5835 330.344C55.6235 330.344 56.2795 331.064 56.4715 332.088H52.5035C52.7595 331.032 53.5435 330.344 54.5835 330.344ZM64.9233 337H67.2913V333.432H69.8673C72.2673 333.432 74.0113 331.896 74.0113 329.72C74.0113 327.544 72.2673 326.008 69.8673 326.008H64.9233V337ZM67.2913 331.272V328.168H69.6273C70.7953 328.168 71.5953 328.776 71.5953 329.72C71.5953 330.664 70.7953 331.272 69.6273 331.272H67.2913ZM78.1123 330.28V328.728H75.7763V337H78.1123V333.048C78.1123 331.496 79.2163 330.504 80.9443 330.504V328.536C79.6803 328.536 78.6562 329.208 78.1123 330.28ZM86.5873 337.192C89.0673 337.192 91.0993 335.24 91.0993 332.856C91.0993 330.472 89.0673 328.536 86.5873 328.536C84.1073 328.536 82.0753 330.472 82.0753 332.856C82.0753 335.24 84.1073 337.192 86.5873 337.192ZM86.5873 335.224C85.3393 335.224 84.3153 334.152 84.3153 332.856C84.3153 331.56 85.3393 330.504 86.5873 330.504C87.8353 330.504 88.8433 331.56 88.8433 332.856C88.8433 334.152 87.8353 335.224 86.5873 335.224ZM100.409 337L97.369 332.744L100.265 328.728H97.801L96.137 331.032L94.489 328.728H91.961L94.873 332.792L91.833 337H94.297L96.105 334.504L97.897 337H100.409ZM102.913 327.592C103.601 327.592 104.161 327.016 104.161 326.312C104.161 325.656 103.601 325.064 102.913 325.064C102.193 325.064 101.633 325.656 101.633 326.312C101.633 327.016 102.193 327.592 102.913 327.592ZM101.729 337H104.065V328.728H101.729V337ZM110.1 335.384C108.964 335.384 108.196 334.6 107.988 333.48H114.212C114.212 330.408 112.644 328.536 110.052 328.536C107.636 328.536 105.764 330.344 105.764 332.84C105.764 335.384 107.716 337.192 110.18 337.192C111.396 337.192 112.82 336.68 113.556 335.912L112.244 334.568C111.716 335.048 110.868 335.384 110.1 335.384ZM110.084 330.344C111.124 330.344 111.78 331.064 111.972 332.088H108.004C108.26 331.032 109.044 330.344 110.084 330.344ZM118.816 337.192C120.848 337.192 122.192 336.152 122.192 334.52C122.192 332.712 120.592 332.232 119.168 331.864C118.048 331.56 117.584 331.432 117.584 330.984C117.584 330.52 118.064 330.216 118.704 330.216C119.456 330.216 120.352 330.584 121.104 331.064L121.952 329.56C121.04 328.952 119.872 328.536 118.704 328.536C116.736 328.536 115.472 329.656 115.472 331.224C115.472 332.856 116.784 333.32 118.48 333.736C119.392 333.96 120.064 334.184 120.064 334.712C120.064 335.192 119.648 335.48 118.864 335.48C117.968 335.48 116.88 335.08 116.032 334.472L115.088 335.944C116.08 336.744 117.488 337.192 118.816 337.192Z" fill="#0F0B47"/>
<rect x="1" y="31.0352" width="456.37" height="73.1405" fill="#1B0085"/>
<rect x="1" y="53.335" width="349.56" height="50.8416" fill="#542AED"/>
<rect x="1" y="79.2012" width="262.17" height="24.9748" fill="#E46BB7"/>
<path d="M224.544 15H232.128V13.816H226.544L229.424 11.32C231.28 9.72 232.016 8.536 232.016 7.048C232.016 5.08 230.416 3.816 228.512 3.816C226.784 3.816 225.552 4.632 224.64 5.928L225.52 6.648C226.272 5.624 227.184 4.936 228.464 4.936C229.632 4.936 230.752 5.72 230.752 7.064C230.752 8.152 230.112 9.208 228.56 10.536L224.544 13.96V15ZM234.663 15H236.103L240.839 4.952V4.008H233.399V5.192H239.351L234.663 15ZM244.833 9.416C246.337 9.416 247.393 8.216 247.393 6.664C247.393 5.144 246.369 3.912 244.849 3.912C243.361 3.912 242.289 5.112 242.289 6.696C242.289 8.184 243.313 9.416 244.833 9.416ZM243.633 15H244.849L252.369 4.008H251.153L243.633 15ZM244.849 8.552C243.969 8.552 243.297 7.736 243.297 6.68C243.297 5.576 243.937 4.776 244.833 4.776C245.729 4.776 246.385 5.592 246.385 6.68C246.385 7.752 245.745 8.552 244.849 8.552ZM251.105 15.16C252.593 15.16 253.665 13.96 253.665 12.392C253.665 10.904 252.641 9.656 251.121 9.656C249.601 9.656 248.561 10.904 248.561 12.408C248.561 13.976 249.633 15.16 251.105 15.16ZM251.121 14.296C250.209 14.296 249.569 13.48 249.569 12.392C249.569 11.352 250.193 10.52 251.105 10.52C252.001 10.52 252.657 11.336 252.657 12.408C252.657 13.496 252.033 14.296 251.121 14.296Z" fill="#0F0B47"/>
<line x1="263.147" y1="1.20898" x2="263.147" y2="103.676" stroke="#0F0B47" stroke-linecap="square" stroke-dasharray="10 10"/>
<path d="M314.48 15.192C316.768 15.192 318.304 13.864 318.304 12.024C318.304 10.44 317.056 9.624 315.936 9.368C317.072 9.032 318.064 8.2 318.064 6.792C318.064 5.032 316.528 3.816 314.432 3.816C312.72 3.816 311.504 4.648 310.672 5.752L311.504 6.504C312.288 5.56 313.152 4.952 314.368 4.952C315.744 4.952 316.8 5.784 316.8 6.936C316.8 8.184 315.696 8.888 314.224 8.872L313.04 8.856V10.008H314.208C315.936 10.008 317.04 10.664 317.04 11.96C317.04 13.208 316.016 14.056 314.48 14.056C313.136 14.056 312.064 13.416 311.344 12.488L310.48 13.304C311.28 14.36 312.672 15.192 314.48 15.192ZM324.689 8.136C323.393 8.136 322.257 8.76 321.585 9.816V9.672C321.585 7.032 322.977 4.952 324.737 4.952C325.793 4.952 326.513 5.432 327.201 6.104L327.889 5.128C327.073 4.344 326.113 3.816 324.769 3.816C322.273 3.816 320.321 6.392 320.321 9.672C320.321 12.776 321.521 15.192 324.497 15.192C326.785 15.192 328.369 13.592 328.369 11.56C328.369 9.384 326.689 8.136 324.689 8.136ZM324.481 14.12C322.945 14.12 322.049 12.92 321.729 11.256C322.001 10.04 323.073 9.208 324.465 9.208C325.937 9.208 327.105 10.12 327.105 11.624C327.105 12.84 326.129 14.12 324.481 14.12ZM332.724 9.416C334.228 9.416 335.284 8.216 335.284 6.664C335.284 5.144 334.26 3.912 332.74 3.912C331.252 3.912 330.18 5.112 330.18 6.696C330.18 8.184 331.204 9.416 332.724 9.416ZM331.524 15H332.74L340.26 4.008H339.044L331.524 15ZM332.74 8.552C331.86 8.552 331.188 7.736 331.188 6.68C331.188 5.576 331.828 4.776 332.724 4.776C333.62 4.776 334.276 5.592 334.276 6.68C334.276 7.752 333.636 8.552 332.74 8.552ZM338.996 15.16C340.484 15.16 341.556 13.96 341.556 12.392C341.556 10.904 340.532 9.656 339.012 9.656C337.492 9.656 336.452 10.904 336.452 12.408C336.452 13.976 337.524 15.16 338.996 15.16ZM339.012 14.296C338.1 14.296 337.46 13.48 337.46 12.392C337.46 11.352 338.084 10.52 338.996 10.52C339.892 10.52 340.548 11.336 340.548 12.408C340.548 13.496 339.924 14.296 339.012 14.296Z" fill="#0F0B47"/>
<line x1="350.371" y1="1.20898" x2="350.371" y2="103.676" stroke="#0F0B47" stroke-linecap="square" stroke-dasharray="10 10"/>
<path d="M423.08 15H424.328V12.328H425.976V11.192H424.328V4.008H422.888L417.432 11.288L417.592 12.328H423.08V15ZM418.856 11.192L423.08 5.512V11.192H418.856ZM428.022 15H429.462L434.198 4.952V4.008H426.758V5.192H432.71L428.022 15ZM438.193 9.416C439.697 9.416 440.753 8.216 440.753 6.664C440.753 5.144 439.729 3.912 438.209 3.912C436.721 3.912 435.649 5.112 435.649 6.696C435.649 8.184 436.673 9.416 438.193 9.416ZM436.993 15H438.209L445.729 4.008H444.513L436.993 15ZM438.209 8.552C437.329 8.552 436.657 7.736 436.657 6.68C436.657 5.576 437.297 4.776 438.193 4.776C439.089 4.776 439.745 5.592 439.745 6.68C439.745 7.752 439.105 8.552 438.209 8.552ZM444.465 15.16C445.953 15.16 447.025 13.96 447.025 12.392C447.025 10.904 446.001 9.656 444.481 9.656C442.961 9.656 441.921 10.904 441.921 12.408C441.921 13.976 442.993 15.16 444.465 15.16ZM444.481 14.296C443.569 14.296 442.929 13.48 442.929 12.392C442.929 11.352 443.553 10.52 444.465 10.52C445.361 10.52 446.017 11.336 446.017 12.408C446.017 13.496 445.393 14.296 444.481 14.296Z" fill="#0F0B47"/>
<line x1="0.5" y1="-0.5" x2="102.967" y2="-0.5" transform="matrix(0 1 1 0 458 0.708984)" stroke="#0F0B47" stroke-linecap="square" stroke-dasharray="10 10"/>
<path d="M5.456 15.192C8.128 15.192 9.728 13.8 9.728 11.704C9.728 9.672 8.16 8.968 5.792 8.44C4.096 8.056 3.424 7.8 3.424 7C3.424 6.344 4.048 5.816 5.04 5.816C6.096 5.816 7.2 6.248 8.192 7.048L9.424 5.336C8.288 4.376 6.912 3.816 5.12 3.816C2.704 3.816 1.04 5.208 1.04 7.24C1.04 9.368 2.704 10.024 5.024 10.552C6.704 10.936 7.344 11.176 7.344 11.96C7.344 12.648 6.736 13.192 5.536 13.192C4.144 13.192 2.96 12.648 1.92 11.752L0.576 13.368C1.856 14.552 3.536 15.192 5.456 15.192ZM15.3495 13.384C14.2135 13.384 13.4455 12.6 13.2375 11.48H19.4615C19.4615 8.408 17.8935 6.536 15.3015 6.536C12.8855 6.536 11.0135 8.344 11.0135 10.84C11.0135 13.384 12.9655 15.192 15.4295 15.192C16.6455 15.192 18.0695 14.68 18.8055 13.912L17.4935 12.568C16.9655 13.048 16.1175 13.384 15.3495 13.384ZM15.3335 8.344C16.3735 8.344 17.0295 9.064 17.2215 10.088H13.2535C13.5095 9.032 14.2935 8.344 15.3335 8.344ZM23.3779 8.28V6.728H21.0419V15H23.3779V11.048C23.3779 9.496 24.4819 8.504 26.2099 8.504V6.536C24.9459 6.536 23.9219 7.208 23.3779 8.28ZM30.5569 15H32.7329L36.2689 6.728H33.8209L31.6449 12.312L29.4209 6.728H26.9889L30.5569 15ZM38.7415 5.592C39.4295 5.592 39.9895 5.016 39.9895 4.312C39.9895 3.656 39.4295 3.064 38.7415 3.064C38.0215 3.064 37.4615 3.656 37.4615 4.312C37.4615 5.016 38.0215 5.592 38.7415 5.592ZM37.5575 15H39.8935V6.728H37.5575V15ZM46.0396 15.192C47.4316 15.192 48.5516 14.632 49.3676 13.736L47.8156 12.424C47.3836 12.904 46.7116 13.224 46.0716 13.224C44.8396 13.224 43.8156 12.136 43.8156 10.84C43.8156 9.576 44.8396 8.504 46.0556 8.504C46.6956 8.504 47.3516 8.808 47.7676 9.272L49.3196 7.944C48.5196 7.08 47.3996 6.536 46.0716 6.536C43.6236 6.536 41.5436 8.504 41.5436 10.856C41.5436 13.208 43.6076 15.192 46.0396 15.192ZM54.5995 13.384C53.4635 13.384 52.6955 12.6 52.4875 11.48H58.7115C58.7115 8.408 57.1435 6.536 54.5515 6.536C52.1355 6.536 50.2635 8.344 50.2635 10.84C50.2635 13.384 52.2155 15.192 54.6795 15.192C55.8955 15.192 57.3195 14.68 58.0555 13.912L56.7435 12.568C56.2155 13.048 55.3675 13.384 54.5995 13.384ZM54.5835 8.344C55.6235 8.344 56.2795 9.064 56.4715 10.088H52.5035C52.7595 9.032 53.5435 8.344 54.5835 8.344ZM64.9233 15H67.2913V8.152L70.6833 14.36L74.0913 8.152V15H76.4433V4.008H74.0913L70.6833 10.216L67.2913 4.008H64.9233V15ZM82.7558 13.384C81.6198 13.384 80.8518 12.6 80.6438 11.48H86.8678C86.8678 8.408 85.2998 6.536 82.7078 6.536C80.2918 6.536 78.4198 8.344 78.4198 10.84C78.4198 13.384 80.3718 15.192 82.8358 15.192C84.0518 15.192 85.4758 14.68 86.2118 13.912L84.8998 12.568C84.3718 13.048 83.5238 13.384 82.7558 13.384ZM82.7398 8.344C83.7798 8.344 84.4358 9.064 84.6278 10.088H80.6598C80.9158 9.032 81.6998 8.344 82.7398 8.344ZM91.4721 15.192C93.5041 15.192 94.8481 14.152 94.8481 12.52C94.8481 10.712 93.2481 10.232 91.8241 9.864C90.7041 9.56 90.2401 9.432 90.2401 8.984C90.2401 8.52 90.7201 8.216 91.3601 8.216C92.1121 8.216 93.0081 8.584 93.7601 9.064L94.6081 7.56C93.6961 6.952 92.5281 6.536 91.3601 6.536C89.3921 6.536 88.1281 7.656 88.1281 9.224C88.1281 10.856 89.4401 11.32 91.1361 11.736C92.0481 11.96 92.7201 12.184 92.7201 12.712C92.7201 13.192 92.3041 13.48 91.5201 13.48C90.6241 13.48 89.5361 13.08 88.6881 12.472L87.7441 13.944C88.7361 14.744 90.1441 15.192 91.4721 15.192ZM101.327 6.536C100.255 6.536 99.343 7 98.831 7.736V3.816H96.495V15H98.831V10.104C98.831 9.208 99.583 8.504 100.559 8.504C101.487 8.504 102.143 9.208 102.143 10.232V15H104.383V9.736C104.383 7.848 103.119 6.536 101.327 6.536Z" fill="#0F0B47"/>
<path d="M1112.48 15H1119.11V13.964H1114.23L1116.75 11.78C1118.37 10.38 1119.01 9.344 1119.01 8.042C1119.01 6.32 1117.61 5.214 1115.95 5.214C1114.44 5.214 1113.36 5.928 1112.56 7.062L1113.33 7.692C1113.99 6.796 1114.79 6.194 1115.91 6.194C1116.93 6.194 1117.91 6.88 1117.91 8.056C1117.91 9.008 1117.35 9.932 1115.99 11.094L1112.48 14.09V15ZM1124.76 15.168C1127.1 15.168 1128.75 13.11 1128.75 10.184C1128.75 7.272 1127.1 5.214 1124.76 5.214C1122.41 5.214 1120.76 7.272 1120.76 10.184C1120.76 13.11 1122.41 15.168 1124.76 15.168ZM1124.76 14.16C1123.07 14.16 1121.86 12.508 1121.86 10.184C1121.86 7.86 1123.07 6.222 1124.76 6.222C1126.45 6.222 1127.64 7.86 1127.64 10.184C1127.64 12.508 1126.45 14.16 1124.76 14.16ZM1130.07 15H1136.71V13.964H1131.82L1134.34 11.78C1135.97 10.38 1136.61 9.344 1136.61 8.042C1136.61 6.32 1135.21 5.214 1133.54 5.214C1132.03 5.214 1130.95 5.928 1130.16 7.062L1130.93 7.692C1131.58 6.796 1132.38 6.194 1133.5 6.194C1134.52 6.194 1135.5 6.88 1135.5 8.056C1135.5 9.008 1134.94 9.932 1133.59 11.094L1130.07 14.09V15ZM1137.99 15H1144.62V13.964H1139.74L1142.26 11.78C1143.88 10.38 1144.53 9.344 1144.53 8.042C1144.53 6.32 1143.13 5.214 1141.46 5.214C1139.95 5.214 1138.87 5.928 1138.07 7.062L1138.84 7.692C1139.5 6.796 1140.3 6.194 1141.42 6.194C1142.44 6.194 1143.42 6.88 1143.42 8.056C1143.42 9.008 1142.86 9.932 1141.5 11.094L1137.99 14.09V15Z" fill="#0F0B47"/>
<rect x="1078" y="1" width="20" height="20" rx="10" fill="#1B0085"/>
<path d="M1014.48 15H1021.11V13.964H1016.23L1018.75 11.78C1020.37 10.38 1021.01 9.344 1021.01 8.042C1021.01 6.32 1019.61 5.214 1017.95 5.214C1016.44 5.214 1015.36 5.928 1014.56 7.062L1015.33 7.692C1015.99 6.796 1016.79 6.194 1017.91 6.194C1018.93 6.194 1019.91 6.88 1019.91 8.056C1019.91 9.008 1019.35 9.932 1017.99 11.094L1014.48 14.09V15ZM1026.76 15.168C1029.1 15.168 1030.75 13.11 1030.75 10.184C1030.75 7.272 1029.1 5.214 1026.76 5.214C1024.41 5.214 1022.76 7.272 1022.76 10.184C1022.76 13.11 1024.41 15.168 1026.76 15.168ZM1026.76 14.16C1025.07 14.16 1023.86 12.508 1023.86 10.184C1023.86 7.86 1025.07 6.222 1026.76 6.222C1028.45 6.222 1029.64 7.86 1029.64 10.184C1029.64 12.508 1028.45 14.16 1026.76 14.16ZM1032.07 15H1038.71V13.964H1033.82L1036.34 11.78C1037.97 10.38 1038.61 9.344 1038.61 8.042C1038.61 6.32 1037.21 5.214 1035.54 5.214C1034.03 5.214 1032.95 5.928 1032.16 7.062L1032.93 7.692C1033.58 6.796 1034.38 6.194 1035.5 6.194C1036.52 6.194 1037.5 6.88 1037.5 8.056C1037.5 9.008 1036.94 9.932 1035.59 11.094L1032.07 14.09V15ZM1041.95 15H1043.04V5.382H1042.16L1039.79 6.992L1040.27 7.804L1041.95 6.712V15Z" fill="#0F0B47"/>
<rect x="980" y="1" width="20" height="20" rx="10" fill="#542AED"/>
<path d="M911.476 15H918.112V13.964H913.226L915.746 11.78C917.37 10.38 918.014 9.344 918.014 8.042C918.014 6.32 916.614 5.214 914.948 5.214C913.436 5.214 912.358 5.928 911.56 7.062L912.33 7.692C912.988 6.796 913.786 6.194 914.906 6.194C915.928 6.194 916.908 6.88 916.908 8.056C916.908 9.008 916.348 9.932 914.99 11.094L911.476 14.09V15ZM923.76 15.168C926.098 15.168 927.75 13.11 927.75 10.184C927.75 7.272 926.098 5.214 923.76 5.214C921.408 5.214 919.756 7.272 919.756 10.184C919.756 13.11 921.408 15.168 923.76 15.168ZM923.76 14.16C922.066 14.16 920.862 12.508 920.862 10.184C920.862 7.86 922.066 6.222 923.76 6.222C925.454 6.222 926.644 7.86 926.644 10.184C926.644 12.508 925.454 14.16 923.76 14.16ZM929.072 15H935.708V13.964H930.822L933.342 11.78C934.966 10.38 935.61 9.344 935.61 8.042C935.61 6.32 934.21 5.214 932.544 5.214C931.032 5.214 929.954 5.928 929.156 7.062L929.926 7.692C930.584 6.796 931.382 6.194 932.502 6.194C933.524 6.194 934.504 6.88 934.504 8.056C934.504 9.008 933.944 9.932 932.586 11.094L929.072 14.09V15ZM941.356 15.168C943.694 15.168 945.346 13.11 945.346 10.184C945.346 7.272 943.694 5.214 941.356 5.214C939.004 5.214 937.352 7.272 937.352 10.184C937.352 13.11 939.004 15.168 941.356 15.168ZM941.356 14.16C939.662 14.16 938.458 12.508 938.458 10.184C938.458 7.86 939.662 6.222 941.356 6.222C943.05 6.222 944.24 7.86 944.24 10.184C944.24 12.508 943.05 14.16 941.356 14.16Z" fill="#0F0B47"/>
<rect x="877" y="1" width="20" height="20" rx="10" fill="#E46BB7"/>
</svg>
