<svg width="322" height="604" viewBox="0 0 322 604" fill="none" xmlns="http://www.w3.org/2000/svg">
<rect y="118.177" width="204.45" height="73" fill="#1B0085"/>
<rect x="0.445312" y="140.335" width="156.6" height="50.8416" fill="#542AED"/>
<rect x="0.445312" y="166.202" width="117.45" height="24.9748" fill="#E46BB7"/>
<path d="M48.6016 102H56.1856V100.816H50.6016L53.4816 98.32C55.3376 96.72 56.0736 95.536 56.0736 94.048C56.0736 92.08 54.4736 90.816 52.5696 90.816C50.8416 90.816 49.6096 91.632 48.6976 92.928L49.5776 93.648C50.3296 92.624 51.2416 91.936 52.5216 91.936C53.6896 91.936 54.8096 92.72 54.8096 94.064C54.8096 95.152 54.1696 96.208 52.6176 97.536L48.6016 100.96V102ZM58.7205 102H60.1605L64.8965 91.952V91.008H57.4565V92.192H63.4085L58.7205 102ZM68.8909 96.416C70.3949 96.416 71.4509 95.216 71.4509 93.664C71.4509 92.144 70.4269 90.912 68.9069 90.912C67.4189 90.912 66.3469 92.112 66.3469 93.696C66.3469 95.184 67.3709 96.416 68.8909 96.416ZM67.6909 102H68.9069L76.4269 91.008H75.2109L67.6909 102ZM68.9069 95.552C68.0269 95.552 67.3549 94.736 67.3549 93.68C67.3549 92.576 67.9949 91.776 68.8909 91.776C69.7869 91.776 70.4429 92.592 70.4429 93.68C70.4429 94.752 69.8029 95.552 68.9069 95.552ZM75.1629 102.16C76.6509 102.16 77.7229 100.96 77.7229 99.392C77.7229 97.904 76.6989 96.656 75.1789 96.656C73.6589 96.656 72.6189 97.904 72.6189 99.408C72.6189 100.976 73.6909 102.16 75.1629 102.16ZM75.1789 101.296C74.2669 101.296 73.6269 100.48 73.6269 99.392C73.6269 98.352 74.2509 97.52 75.1629 97.52C76.0589 97.52 76.7149 98.336 76.7149 99.408C76.7149 100.496 76.0909 101.296 75.1789 101.296Z" fill="#0F0B47"/>
<path d="M118.25 190.926V101.778H83.8964" stroke="#0F0B47" stroke-width="0.5" stroke-linecap="square" stroke-dasharray="10 10"/>
<path d="M120.48 92.401C122.768 92.401 124.304 91.073 124.304 89.233C124.304 87.649 123.056 86.833 121.936 86.577C123.072 86.241 124.064 85.409 124.064 84.001C124.064 82.241 122.528 81.025 120.432 81.025C118.72 81.025 117.504 81.857 116.672 82.961L117.504 83.713C118.288 82.769 119.152 82.161 120.368 82.161C121.744 82.161 122.8 82.993 122.8 84.145C122.8 85.393 121.696 86.097 120.224 86.081L119.04 86.065V87.217H120.208C121.936 87.217 123.04 87.873 123.04 89.169C123.04 90.417 122.016 91.265 120.48 91.265C119.136 91.265 118.064 90.625 117.344 89.697L116.48 90.513C117.28 91.569 118.672 92.401 120.48 92.401ZM130.689 85.345C129.393 85.345 128.257 85.969 127.585 87.025V86.881C127.585 84.241 128.977 82.161 130.737 82.161C131.793 82.161 132.513 82.641 133.201 83.313L133.889 82.337C133.073 81.553 132.113 81.025 130.769 81.025C128.273 81.025 126.321 83.601 126.321 86.881C126.321 89.985 127.521 92.401 130.497 92.401C132.785 92.401 134.369 90.801 134.369 88.769C134.369 86.593 132.689 85.345 130.689 85.345ZM130.481 91.329C128.945 91.329 128.049 90.129 127.729 88.465C128.001 87.249 129.073 86.417 130.465 86.417C131.937 86.417 133.105 87.329 133.105 88.833C133.105 90.049 132.129 91.329 130.481 91.329ZM138.724 86.625C140.228 86.625 141.284 85.425 141.284 83.873C141.284 82.353 140.26 81.121 138.74 81.121C137.252 81.121 136.18 82.321 136.18 83.905C136.18 85.393 137.204 86.625 138.724 86.625ZM137.524 92.209H138.74L146.26 81.217H145.044L137.524 92.209ZM138.74 85.761C137.86 85.761 137.188 84.945 137.188 83.889C137.188 82.785 137.828 81.985 138.724 81.985C139.62 81.985 140.276 82.801 140.276 83.889C140.276 84.961 139.636 85.761 138.74 85.761ZM144.996 92.369C146.484 92.369 147.556 91.169 147.556 89.601C147.556 88.113 146.532 86.865 145.012 86.865C143.492 86.865 142.452 88.113 142.452 89.617C142.452 91.185 143.524 92.369 144.996 92.369ZM145.012 91.505C144.1 91.505 143.46 90.689 143.46 89.601C143.46 88.561 144.084 87.729 144.996 87.729C145.892 87.729 146.548 88.545 146.548 89.617C146.548 90.705 145.924 91.505 145.012 91.505Z" fill="#0F0B47"/>
<line x1="157.25" y1="80.5542" x2="157.25" y2="190.75" stroke="#0F0B47" stroke-width="0.5" stroke-linecap="square" stroke-dasharray="10 10"/>
<path d="M174.08 92.209H175.328V89.537H176.976V88.401H175.328V81.217H173.888L168.432 88.497L168.592 89.537H174.08V92.209ZM169.856 88.401L174.08 82.721V88.401H169.856ZM179.022 92.209H180.462L185.198 82.161V81.217H177.758V82.401H183.71L179.022 92.209ZM189.193 86.625C190.697 86.625 191.753 85.425 191.753 83.873C191.753 82.353 190.729 81.121 189.209 81.121C187.721 81.121 186.649 82.321 186.649 83.905C186.649 85.393 187.673 86.625 189.193 86.625ZM187.993 92.209H189.209L196.729 81.217H195.513L187.993 92.209ZM189.209 85.761C188.329 85.761 187.657 84.945 187.657 83.889C187.657 82.785 188.297 81.985 189.193 81.985C190.089 81.985 190.745 82.801 190.745 83.889C190.745 84.961 190.105 85.761 189.209 85.761ZM195.465 92.369C196.953 92.369 198.025 91.169 198.025 89.601C198.025 88.113 197.001 86.865 195.481 86.865C193.961 86.865 192.921 88.113 192.921 89.617C192.921 91.185 193.993 92.369 195.465 92.369ZM195.481 91.505C194.569 91.505 193.929 90.689 193.929 89.601C193.929 88.561 194.553 87.729 195.465 87.729C196.361 87.729 197.017 88.545 197.017 89.617C197.017 90.705 196.393 91.505 195.481 91.505Z" fill="#0F0B47"/>
<line x1="204.25" y1="82.2456" x2="204.25" y2="190.75" stroke="#0F0B47" stroke-width="0.5" stroke-linecap="square" stroke-dasharray="10 10"/>
<rect y="324.096" width="230.55" height="73" fill="#1B0085"/>
<rect x="0.445312" y="346.431" width="160.95" height="50.8416" fill="#542AED"/>
<rect x="0.445312" y="372.297" width="130.5" height="24.9748" fill="#E46BB7"/>
<path d="M62.98 308.288C65.268 308.288 66.804 306.96 66.804 305.12C66.804 303.536 65.556 302.72 64.436 302.464C65.572 302.128 66.564 301.296 66.564 299.888C66.564 298.128 65.028 296.912 62.932 296.912C61.22 296.912 60.004 297.744 59.172 298.848L60.004 299.6C60.788 298.656 61.652 298.048 62.868 298.048C64.244 298.048 65.3 298.88 65.3 300.032C65.3 301.28 64.196 301.984 62.724 301.968L61.54 301.952V303.104H62.708C64.436 303.104 65.54 303.76 65.54 305.056C65.54 306.304 64.516 307.152 62.98 307.152C61.636 307.152 60.564 306.512 59.844 305.584L58.98 306.4C59.78 307.456 61.172 308.288 62.98 308.288ZM73.3485 308.288C76.0205 308.288 77.9085 305.936 77.9085 302.592C77.9085 299.264 76.0205 296.912 73.3485 296.912C70.6605 296.912 68.7725 299.264 68.7725 302.592C68.7725 305.936 70.6605 308.288 73.3485 308.288ZM73.3485 307.136C71.4125 307.136 70.0365 305.248 70.0365 302.592C70.0365 299.936 71.4125 298.064 73.3485 298.064C75.2845 298.064 76.6445 299.936 76.6445 302.592C76.6445 305.248 75.2845 307.136 73.3485 307.136ZM82.427 302.512C83.931 302.512 84.987 301.312 84.987 299.76C84.987 298.24 83.963 297.008 82.443 297.008C80.955 297.008 79.883 298.208 79.883 299.792C79.883 301.28 80.907 302.512 82.427 302.512ZM81.227 308.096H82.443L89.963 297.104H88.747L81.227 308.096ZM82.443 301.648C81.563 301.648 80.891 300.832 80.891 299.776C80.891 298.672 81.531 297.872 82.427 297.872C83.323 297.872 83.979 298.688 83.979 299.776C83.979 300.848 83.339 301.648 82.443 301.648ZM88.699 308.256C90.187 308.256 91.259 307.056 91.259 305.488C91.259 304 90.235 302.752 88.715 302.752C87.195 302.752 86.155 304 86.155 305.504C86.155 307.072 87.227 308.256 88.699 308.256ZM88.715 307.392C87.803 307.392 87.163 306.576 87.163 305.488C87.163 304.448 87.787 303.616 88.699 303.616C89.595 303.616 90.251 304.432 90.251 305.504C90.251 306.592 89.627 307.392 88.715 307.392Z" fill="#0F0B47"/>
<path d="M131.25 397.022L131.25 308.346L100.989 308.346" stroke="#0F0B47" stroke-width="0.5" stroke-linecap="square" stroke-dasharray="10 10"/>
<path d="M128.48 293.997C130.768 293.997 132.304 292.669 132.304 290.829C132.304 289.245 131.056 288.429 129.936 288.173C131.072 287.837 132.064 287.005 132.064 285.597C132.064 283.837 130.528 282.621 128.432 282.621C126.72 282.621 125.504 283.453 124.672 284.557L125.504 285.309C126.288 284.365 127.152 283.757 128.368 283.757C129.744 283.757 130.8 284.589 130.8 285.741C130.8 286.989 129.696 287.693 128.224 287.677L127.04 287.661V288.813H128.208C129.936 288.813 131.04 289.469 131.04 290.765C131.04 292.013 130.016 292.861 128.48 292.861C127.136 292.861 126.064 292.221 125.344 291.293L124.48 292.109C125.28 293.165 126.672 293.997 128.48 293.997ZM134.929 293.805H136.369L141.105 283.757V282.813H133.665V283.997H139.617L134.929 293.805ZM145.099 288.221C146.603 288.221 147.659 287.021 147.659 285.469C147.659 283.949 146.635 282.717 145.115 282.717C143.627 282.717 142.555 283.917 142.555 285.501C142.555 286.989 143.579 288.221 145.099 288.221ZM143.899 293.805H145.115L152.635 282.813H151.419L143.899 293.805ZM145.115 287.357C144.235 287.357 143.563 286.541 143.563 285.485C143.563 284.381 144.203 283.581 145.099 283.581C145.995 283.581 146.651 284.397 146.651 285.485C146.651 286.557 146.011 287.357 145.115 287.357ZM151.371 293.965C152.859 293.965 153.931 292.765 153.931 291.197C153.931 289.709 152.907 288.461 151.387 288.461C149.867 288.461 148.827 289.709 148.827 291.213C148.827 292.781 149.899 293.965 151.371 293.965ZM151.387 293.101C150.475 293.101 149.835 292.285 149.835 291.197C149.835 290.157 150.459 289.325 151.371 289.325C152.267 289.325 152.923 290.141 152.923 291.213C152.923 292.301 152.299 293.101 151.387 293.101Z" fill="#0F0B47"/>
<line x1="161.25" y1="283.245" x2="161.25" y2="396.846" stroke="#0F0B47" stroke-width="0.5" stroke-linecap="square" stroke-dasharray="10 10"/>
<path d="M198.752 293.997C201.008 293.997 202.656 292.557 202.656 290.381C202.656 288.205 201.008 286.957 199.024 286.957C198.016 286.957 197.264 287.293 196.672 287.693L196.784 283.997H202.064V282.813H195.568L195.408 288.461L196.32 288.909C197.008 288.397 197.824 288.061 198.768 288.061C200.304 288.061 201.392 289.021 201.392 290.429C201.392 291.821 200.32 292.877 198.8 292.877C197.584 292.877 196.544 292.269 195.696 291.341L194.88 292.253C195.776 293.277 197.056 293.997 198.752 293.997ZM207.964 293.997C210.252 293.997 211.788 292.669 211.788 290.829C211.788 289.245 210.54 288.429 209.42 288.173C210.556 287.837 211.548 287.005 211.548 285.597C211.548 283.837 210.012 282.621 207.916 282.621C206.204 282.621 204.988 283.453 204.156 284.557L204.988 285.309C205.772 284.365 206.636 283.757 207.852 283.757C209.228 283.757 210.284 284.589 210.284 285.741C210.284 286.989 209.18 287.693 207.708 287.677L206.524 287.661V288.813H207.692C209.42 288.813 210.524 289.469 210.524 290.765C210.524 292.013 209.5 292.861 207.964 292.861C206.62 292.861 205.548 292.221 204.828 291.293L203.964 292.109C204.764 293.165 206.156 293.997 207.964 293.997ZM216.349 288.221C217.853 288.221 218.909 287.021 218.909 285.469C218.909 283.949 217.885 282.717 216.365 282.717C214.877 282.717 213.805 283.917 213.805 285.501C213.805 286.989 214.829 288.221 216.349 288.221ZM215.149 293.805H216.365L223.885 282.813H222.669L215.149 293.805ZM216.365 287.357C215.485 287.357 214.813 286.541 214.813 285.485C214.813 284.381 215.453 283.581 216.349 283.581C217.245 283.581 217.901 284.397 217.901 285.485C217.901 286.557 217.261 287.357 216.365 287.357ZM222.621 293.965C224.109 293.965 225.181 292.765 225.181 291.197C225.181 289.709 224.157 288.461 222.637 288.461C221.117 288.461 220.077 289.709 220.077 291.213C220.077 292.781 221.149 293.965 222.621 293.965ZM222.637 293.101C221.725 293.101 221.085 292.285 221.085 291.197C221.085 290.157 221.709 289.325 222.621 289.325C223.517 289.325 224.173 290.141 224.173 291.213C224.173 292.301 223.549 293.101 222.637 293.101Z" fill="#0F0B47"/>
<line x1="230.8" y1="283.245" x2="230.8" y2="397.022" stroke="#0F0B47" stroke-width="0.5" stroke-linecap="square" stroke-dasharray="10 10"/>
<rect y="530.191" width="308.85" height="73" fill="#1B0085"/>
<rect y="552.191" width="148" height="51" fill="#542AED"/>
<rect y="578.191" width="161.32" height="25" fill="#E46BB7"/>
<path d="M72.4693 514.383C74.7573 514.383 76.2933 513.055 76.2933 511.215C76.2933 509.631 75.0453 508.815 73.9253 508.559C75.0613 508.223 76.0533 507.391 76.0533 505.983C76.0533 504.223 74.5173 503.007 72.4213 503.007C70.7093 503.007 69.4933 503.839 68.6613 504.943L69.4933 505.695C70.2773 504.751 71.1413 504.143 72.3573 504.143C73.7333 504.143 74.7893 504.975 74.7893 506.127C74.7893 507.375 73.6853 508.079 72.2133 508.063L71.0293 508.047V509.199H72.1973C73.9253 509.199 75.0293 509.855 75.0293 511.151C75.0293 512.399 74.0053 513.247 72.4693 513.247C71.1253 513.247 70.0533 512.607 69.3333 511.679L68.4693 512.495C69.2693 513.551 70.6613 514.383 72.4693 514.383ZM83.3818 514.191H84.6298V511.519H86.2778V510.383H84.6298V503.199H83.1898L77.7338 510.479L77.8938 511.519H83.3818V514.191ZM79.1578 510.383L83.3818 504.703V510.383H79.1578ZM90.26 508.607C91.764 508.607 92.82 507.407 92.82 505.855C92.82 504.335 91.796 503.103 90.276 503.103C88.788 503.103 87.716 504.303 87.716 505.887C87.716 507.375 88.74 508.607 90.26 508.607ZM89.06 514.191H90.276L97.796 503.199H96.58L89.06 514.191ZM90.276 507.743C89.396 507.743 88.724 506.927 88.724 505.871C88.724 504.767 89.364 503.967 90.26 503.967C91.156 503.967 91.812 504.783 91.812 505.871C91.812 506.943 91.172 507.743 90.276 507.743ZM96.532 514.351C98.02 514.351 99.092 513.151 99.092 511.583C99.092 510.095 98.068 508.847 96.548 508.847C95.028 508.847 93.988 510.095 93.988 511.599C93.988 513.167 95.06 514.351 96.532 514.351ZM96.548 513.487C95.636 513.487 94.996 512.671 94.996 511.583C94.996 510.543 95.62 509.711 96.532 509.711C97.428 509.711 98.084 510.527 98.084 511.599C98.084 512.687 97.46 513.487 96.548 513.487Z" fill="#0F0B47"/>
<path d="M148.25 603.117L148.25 514.441H104.178" stroke="#0F0B47" stroke-width="0.5" stroke-linecap="square" stroke-dasharray="10 10"/>
<path d="M170.675 514.383C172.963 514.383 174.499 513.055 174.499 511.215C174.499 509.631 173.251 508.815 172.131 508.559C173.267 508.223 174.259 507.391 174.259 505.983C174.259 504.223 172.723 503.007 170.627 503.007C168.915 503.007 167.699 503.839 166.867 504.943L167.699 505.695C168.483 504.751 169.347 504.143 170.563 504.143C171.939 504.143 172.995 504.975 172.995 506.127C172.995 507.375 171.891 508.079 170.419 508.063L169.235 508.047V509.199H170.403C172.131 509.199 173.235 509.855 173.235 511.151C173.235 512.399 172.211 513.247 170.675 513.247C169.331 513.247 168.259 512.607 167.539 511.679L166.675 512.495C167.475 513.551 168.867 514.383 170.675 514.383ZM177.124 514.191H178.564L183.3 504.143V503.199H175.86V504.383H181.812L177.124 514.191ZM187.294 508.607C188.798 508.607 189.854 507.407 189.854 505.855C189.854 504.335 188.83 503.103 187.31 503.103C185.822 503.103 184.75 504.303 184.75 505.887C184.75 507.375 185.774 508.607 187.294 508.607ZM186.094 514.191H187.31L194.83 503.199H193.614L186.094 514.191ZM187.31 507.743C186.43 507.743 185.758 506.927 185.758 505.871C185.758 504.767 186.398 503.967 187.294 503.967C188.19 503.967 188.846 504.783 188.846 505.871C188.846 506.943 188.206 507.743 187.31 507.743ZM193.566 514.351C195.054 514.351 196.126 513.151 196.126 511.583C196.126 510.095 195.102 508.847 193.582 508.847C192.062 508.847 191.022 510.095 191.022 511.599C191.022 513.167 192.094 514.351 193.566 514.351ZM193.582 513.487C192.67 513.487 192.03 512.671 192.03 511.583C192.03 510.543 192.654 509.711 193.566 509.711C194.462 509.711 195.118 510.527 195.118 511.599C195.118 512.687 194.494 513.487 193.582 513.487Z" fill="#0F0B47"/>
<path d="M161.25 503.506L161.25 602.941" stroke="#0F0B47" stroke-width="0.5" stroke-linecap="square" stroke-dasharray="10 10"/>
<path d="M273.616 514.191H275.056L279.792 504.143V503.199H272.352V504.383H278.304L273.616 514.191ZM283.018 514.191H284.266V503.199H283.258L280.554 505.039L281.098 505.967L283.018 504.719V514.191ZM289.505 508.607C291.009 508.607 292.065 507.407 292.065 505.855C292.065 504.335 291.041 503.103 289.521 503.103C288.033 503.103 286.961 504.303 286.961 505.887C286.961 507.375 287.985 508.607 289.505 508.607ZM288.305 514.191H289.521L297.041 503.199H295.825L288.305 514.191ZM289.521 507.743C288.641 507.743 287.969 506.927 287.969 505.871C287.969 504.767 288.609 503.967 289.505 503.967C290.401 503.967 291.057 504.783 291.057 505.871C291.057 506.943 290.417 507.743 289.521 507.743ZM295.777 514.351C297.265 514.351 298.337 513.151 298.337 511.583C298.337 510.095 297.313 508.847 295.793 508.847C294.273 508.847 293.233 510.095 293.233 511.599C293.233 513.167 294.305 514.351 295.777 514.351ZM295.793 513.487C294.881 513.487 294.241 512.671 294.241 511.583C294.241 510.543 294.865 509.711 295.777 509.711C296.673 509.711 297.329 510.527 297.329 511.599C297.329 512.687 296.705 513.487 295.793 513.487Z" fill="#0F0B47"/>
<path d="M308.75 502.607V603.117" stroke="#0F0B47" stroke-width="0.5" stroke-linecap="square" stroke-dasharray="10 10"/>
<path d="M5.456 51.192C8.128 51.192 9.728 49.8 9.728 47.704C9.728 45.672 8.16 44.968 5.792 44.44C4.096 44.056 3.424 43.8 3.424 43C3.424 42.344 4.048 41.816 5.04 41.816C6.096 41.816 7.2 42.248 8.192 43.048L9.424 41.336C8.288 40.376 6.912 39.816 5.12 39.816C2.704 39.816 1.04 41.208 1.04 43.24C1.04 45.368 2.704 46.024 5.024 46.552C6.704 46.936 7.344 47.176 7.344 47.96C7.344 48.648 6.736 49.192 5.536 49.192C4.144 49.192 2.96 48.648 1.92 47.752L0.576 49.368C1.856 50.552 3.536 51.192 5.456 51.192ZM20.2935 42.136V40.008H11.8295V51H20.2935V48.872H14.1975V46.456H19.7335V44.328H14.1975V42.136H20.2935ZM31.6675 43.72C31.6675 41.544 29.9235 40.008 27.5235 40.008H22.5795V51H24.9475V47.432H26.3715L28.8835 51H31.5715L28.9315 47.24C30.5795 46.76 31.6675 45.448 31.6675 43.72ZM24.9475 42.168H27.2835C28.4515 42.168 29.2515 42.776 29.2515 43.72C29.2515 44.664 28.4515 45.272 27.2835 45.272H24.9475V42.168ZM41.8131 40.008L38.6771 47.752L35.5251 40.008H32.8691L37.3491 51H39.9891L44.4691 40.008H41.8131ZM46.2826 51H48.6506V40.008H46.2826V51ZM56.6389 51.192C58.3029 51.192 59.8229 50.472 60.8949 49.352L59.1829 47.816C58.5589 48.552 57.6469 49.048 56.6389 49.048C54.7829 49.048 53.2149 47.416 53.2149 45.496C53.2149 43.592 54.7829 41.96 56.6389 41.96C57.6309 41.96 58.5589 42.456 59.1829 43.192L60.8949 41.656C59.8229 40.52 58.3029 39.816 56.6389 39.816C53.4709 39.816 50.7829 42.408 50.7829 45.496C50.7829 48.584 53.4709 51.192 56.6389 51.192ZM71.2623 42.136V40.008H62.7983V51H71.2623V48.872H65.1663V46.456H70.7023V44.328H65.1663V42.136H71.2623ZM77.9076 51H80.2756V44.152L83.6676 50.36L87.0756 44.152V51H89.4276V40.008H87.0756L83.6676 46.216L80.2756 40.008H77.9076V51ZM100.684 42.136V40.008H92.2201V51H100.684V48.872H94.5881V46.456H100.124V44.328H94.5881V42.136H100.684ZM107.034 51.192C109.706 51.192 111.306 49.8 111.306 47.704C111.306 45.672 109.738 44.968 107.37 44.44C105.674 44.056 105.002 43.8 105.002 43C105.002 42.344 105.626 41.816 106.618 41.816C107.674 41.816 108.778 42.248 109.77 43.048L111.002 41.336C109.866 40.376 108.49 39.816 106.698 39.816C104.282 39.816 102.618 41.208 102.618 43.24C102.618 45.368 104.282 46.024 106.602 46.552C108.282 46.936 108.922 47.176 108.922 47.96C108.922 48.648 108.314 49.192 107.114 49.192C105.722 49.192 104.538 48.648 103.498 47.752L102.154 49.368C103.434 50.552 105.114 51.192 107.034 51.192ZM120.784 40.008V44.328H115.776V40.008H113.408V51H115.776V46.456H120.784V51H123.136V40.008H120.784Z" fill="#0F0B47"/>
<path d="M5.456 249.288C8.128 249.288 9.728 247.896 9.728 245.8C9.728 243.768 8.16 243.064 5.792 242.536C4.096 242.152 3.424 241.896 3.424 241.096C3.424 240.44 4.048 239.912 5.04 239.912C6.096 239.912 7.2 240.344 8.192 241.144L9.424 239.432C8.288 238.472 6.912 237.912 5.12 237.912C2.704 237.912 1.04 239.304 1.04 241.336C1.04 243.464 2.704 244.12 5.024 244.648C6.704 245.032 7.344 245.272 7.344 246.056C7.344 246.744 6.736 247.288 5.536 247.288C4.144 247.288 2.96 246.744 1.92 245.848L0.576 247.464C1.856 248.648 3.536 249.288 5.456 249.288ZM20.2935 240.232V238.104H11.8295V249.096H20.2935V246.968H14.1975V244.552H19.7335V242.424H14.1975V240.232H20.2935ZM31.6675 241.816C31.6675 239.64 29.9235 238.104 27.5235 238.104H22.5795V249.096H24.9475V245.528H26.3715L28.8835 249.096H31.5715L28.9315 245.336C30.5795 244.856 31.6675 243.544 31.6675 241.816ZM24.9475 240.264H27.2835C28.4515 240.264 29.2515 240.872 29.2515 241.816C29.2515 242.76 28.4515 243.368 27.2835 243.368H24.9475V240.264ZM41.8131 238.104L38.6771 245.848L35.5251 238.104H32.8691L37.3491 249.096H39.9891L44.4691 238.104H41.8131ZM54.7466 240.232V238.104H46.2826V249.096H54.7466V246.968H48.6506V244.552H54.1866V242.424H48.6506V240.232H54.7466ZM66.1206 241.816C66.1206 239.64 64.3766 238.104 61.9766 238.104H57.0326V249.096H59.4006V245.528H60.8246L63.3366 249.096H66.0246L63.3846 245.336C65.0326 244.856 66.1206 243.544 66.1206 241.816ZM59.4006 240.264H61.7366C62.9046 240.264 63.7046 240.872 63.7046 241.816C63.7046 242.76 62.9046 243.368 61.7366 243.368H59.4006V240.264ZM70.6663 246.968V238.104H68.2983V249.096H76.1383V246.968H70.6663ZM86.5123 240.232V238.104H78.0483V249.096H86.5123V246.968H80.4163V244.552H85.9523V242.424H80.4163V240.232H86.5123ZM92.8623 249.288C95.5343 249.288 97.1343 247.896 97.1343 245.8C97.1343 243.768 95.5663 243.064 93.1983 242.536C91.5023 242.152 90.8303 241.896 90.8303 241.096C90.8303 240.44 91.4543 239.912 92.4463 239.912C93.5023 239.912 94.6063 240.344 95.5983 241.144L96.8303 239.432C95.6943 238.472 94.3183 237.912 92.5263 237.912C90.1103 237.912 88.4463 239.304 88.4463 241.336C88.4463 243.464 90.1103 244.12 92.4303 244.648C94.1103 245.032 94.7503 245.272 94.7503 246.056C94.7503 246.744 94.1423 247.288 92.9423 247.288C91.5503 247.288 90.3663 246.744 89.3263 245.848L87.9823 247.464C89.2623 248.648 90.9423 249.288 92.8623 249.288ZM103.3 249.288C105.972 249.288 107.572 247.896 107.572 245.8C107.572 243.768 106.004 243.064 103.636 242.536C101.94 242.152 101.268 241.896 101.268 241.096C101.268 240.44 101.892 239.912 102.884 239.912C103.94 239.912 105.044 240.344 106.036 241.144L107.268 239.432C106.132 238.472 104.756 237.912 102.964 237.912C100.548 237.912 98.8838 239.304 98.8838 241.336C98.8838 243.464 100.548 244.12 102.868 244.648C104.548 245.032 105.188 245.272 105.188 246.056C105.188 246.744 104.58 247.288 103.38 247.288C101.988 247.288 100.804 246.744 99.7638 245.848L98.4198 247.464C99.6998 248.648 101.38 249.288 103.3 249.288ZM121.985 249.096H124.641L120.161 238.104H117.521L113.041 249.096H115.681L116.449 247.208H121.217L121.985 249.096ZM117.201 245.368L118.833 241.352L120.465 245.368H117.201ZM135.527 241.816C135.527 239.64 133.783 238.104 131.383 238.104H126.439V249.096H128.807V245.528H130.231L132.743 249.096H135.431L132.791 245.336C134.439 244.856 135.527 243.544 135.527 241.816ZM128.807 240.264H131.143C132.311 240.264 133.111 240.872 133.111 241.816C133.111 242.76 132.311 243.368 131.143 243.368H128.807V240.264ZM142.905 249.288C144.569 249.288 146.089 248.568 147.161 247.448L145.449 245.912C144.825 246.648 143.913 247.144 142.905 247.144C141.049 247.144 139.481 245.512 139.481 243.592C139.481 241.688 141.049 240.056 142.905 240.056C143.897 240.056 144.825 240.552 145.449 241.288L147.161 239.752C146.089 238.616 144.569 237.912 142.905 237.912C139.737 237.912 137.049 240.504 137.049 243.592C137.049 246.68 139.737 249.288 142.905 249.288ZM156.44 238.104V242.424H151.432V238.104H149.064V249.096H151.432V244.552H156.44V249.096H158.792V238.104H156.44ZM161.595 249.096H163.963V238.104H161.595V249.096ZM169.295 249.096H171.647V240.232H175.087V238.104H165.871V240.232H169.295V249.096ZM185.434 240.232V238.104H176.97V249.096H185.434V246.968H179.338V244.552H184.874V242.424H179.338V240.232H185.434ZM192.92 249.288C194.584 249.288 196.104 248.568 197.176 247.448L195.464 245.912C194.84 246.648 193.928 247.144 192.92 247.144C191.064 247.144 189.496 245.512 189.496 243.592C189.496 241.688 191.064 240.056 192.92 240.056C193.912 240.056 194.84 240.552 195.464 241.288L197.176 239.752C196.104 238.616 194.584 237.912 192.92 237.912C189.752 237.912 187.064 240.504 187.064 243.592C187.064 246.68 189.752 249.288 192.92 249.288ZM201.624 249.096H203.976V240.232H207.416V238.104H198.2V240.232H201.624V249.096ZM214.034 249.288C216.946 249.288 219.01 247.24 219.01 244.344V238.104H216.642V244.248C216.642 245.944 215.554 247.144 214.034 247.144C212.498 247.144 211.41 245.944 211.41 244.248V238.104H209.058V244.344C209.058 247.24 211.106 249.288 214.034 249.288ZM230.636 241.816C230.636 239.64 228.892 238.104 226.492 238.104H221.548V249.096H223.916V245.528H225.34L227.852 249.096H230.54L227.9 245.336C229.548 244.856 230.636 243.544 230.636 241.816ZM223.916 240.264H226.252C227.42 240.264 228.22 240.872 228.22 241.816C228.22 242.76 227.42 243.368 226.252 243.368H223.916V240.264ZM241.278 240.232V238.104H232.814V249.096H241.278V246.968H235.182V244.552H240.718V242.424H235.182V240.232H241.278ZM246.643 250.28H249.107L254.611 237.208H252.147L246.643 250.28ZM268.934 240.232V238.104H260.47V249.096H262.838V244.744H268.374V242.616H262.838V240.232H268.934ZM278.922 249.096H281.578L277.098 238.104H274.458L269.978 249.096H272.618L273.386 247.208H278.154L278.922 249.096ZM274.138 245.368L275.77 241.352L277.402 245.368H274.138ZM291.328 249.096H293.984L289.504 238.104H286.864L282.384 249.096H285.024L285.792 247.208H290.56L291.328 249.096ZM286.544 245.368L288.176 241.352L289.808 245.368H286.544ZM299.847 249.288C302.519 249.288 304.119 247.896 304.119 245.8C304.119 243.768 302.551 243.064 300.183 242.536C298.487 242.152 297.815 241.896 297.815 241.096C297.815 240.44 298.439 239.912 299.431 239.912C300.487 239.912 301.591 240.344 302.583 241.144L303.815 239.432C302.679 238.472 301.303 237.912 299.511 237.912C297.095 237.912 295.431 239.304 295.431 241.336C295.431 243.464 297.095 244.12 299.415 244.648C301.095 245.032 301.735 245.272 301.735 246.056C301.735 246.744 301.127 247.288 299.927 247.288C298.535 247.288 297.351 246.744 296.311 245.848L294.967 247.464C296.247 248.648 297.927 249.288 299.847 249.288Z" fill="#0F0B47"/>
<path d="M5.456 455.383C8.128 455.383 9.728 453.991 9.728 451.895C9.728 449.863 8.16 449.159 5.792 448.631C4.096 448.247 3.424 447.991 3.424 447.191C3.424 446.535 4.048 446.007 5.04 446.007C6.096 446.007 7.2 446.439 8.192 447.239L9.424 445.527C8.288 444.567 6.912 444.007 5.12 444.007C2.704 444.007 1.04 445.399 1.04 447.431C1.04 449.559 2.704 450.215 5.024 450.743C6.704 451.127 7.344 451.367 7.344 452.151C7.344 452.839 6.736 453.383 5.536 453.383C4.144 453.383 2.96 452.839 1.92 451.943L0.576 453.559C1.856 454.743 3.536 455.383 5.456 455.383ZM20.2935 446.327V444.199H11.8295V455.191H20.2935V453.063H14.1975V450.647H19.7335V448.519H14.1975V446.327H20.2935ZM31.6675 447.911C31.6675 445.735 29.9235 444.199 27.5235 444.199H22.5795V455.191H24.9475V451.623H26.3715L28.8835 455.191H31.5715L28.9315 451.431C30.5795 450.951 31.6675 449.639 31.6675 447.911ZM24.9475 446.359H27.2835C28.4515 446.359 29.2515 446.967 29.2515 447.911C29.2515 448.855 28.4515 449.463 27.2835 449.463H24.9475V446.359ZM41.8131 444.199L38.6771 451.943L35.5251 444.199H32.8691L37.3491 455.191H39.9891L44.4691 444.199H41.8131ZM46.2826 455.191H48.6506V444.199H46.2826V455.191ZM56.6389 455.383C58.3029 455.383 59.8229 454.663 60.8949 453.543L59.1829 452.007C58.5589 452.743 57.6469 453.239 56.6389 453.239C54.7829 453.239 53.2149 451.607 53.2149 449.687C53.2149 447.783 54.7829 446.151 56.6389 446.151C57.6309 446.151 58.5589 446.647 59.1829 447.383L60.8949 445.847C59.8229 444.711 58.3029 444.007 56.6389 444.007C53.4709 444.007 50.7829 446.599 50.7829 449.687C50.7829 452.775 53.4709 455.383 56.6389 455.383ZM71.2623 446.327V444.199H62.7983V455.191H71.2623V453.063H65.1663V450.647H70.7023V448.519H65.1663V446.327H71.2623ZM77.9076 455.191H80.2756V451.623H82.8516C85.2516 451.623 86.9956 450.087 86.9956 447.911C86.9956 445.735 85.2516 444.199 82.8516 444.199H77.9076V455.191ZM80.2756 449.463V446.359H82.6116C83.7796 446.359 84.5796 446.967 84.5796 447.911C84.5796 448.855 83.7796 449.463 82.6116 449.463H80.2756ZM98.1206 447.911C98.1206 445.735 96.3766 444.199 93.9766 444.199H89.0326V455.191H91.4006V451.623H92.8246L95.3366 455.191H98.0246L95.3846 451.431C97.0326 450.951 98.1206 449.639 98.1206 447.911ZM91.4006 446.359H93.7366C94.9046 446.359 95.7046 446.967 95.7046 447.911C95.7046 448.855 94.9046 449.463 93.7366 449.463H91.4006V446.359ZM105.498 455.383C108.666 455.383 111.322 452.775 111.322 449.687C111.322 446.599 108.666 444.007 105.498 444.007C102.33 444.007 99.6423 446.599 99.6423 449.687C99.6423 452.775 102.33 455.383 105.498 455.383ZM105.498 453.239C103.642 453.239 102.074 451.607 102.074 449.687C102.074 447.783 103.642 446.151 105.498 446.151C107.338 446.151 108.906 447.783 108.906 449.687C108.906 451.607 107.338 453.239 105.498 453.239ZM123.342 444.199H120.59L117.95 447.799L115.31 444.199H112.51L116.542 449.719L112.51 455.191H115.262L117.902 451.591L120.542 455.191H123.342L119.31 449.671L123.342 444.199ZM125.173 455.191H127.541V444.199H125.173V455.191ZM138.794 446.327V444.199H130.33V455.191H138.794V453.063H132.698V450.647H138.234V448.519H132.698V446.327H138.794ZM145.144 455.383C147.816 455.383 149.416 453.991 149.416 451.895C149.416 449.863 147.848 449.159 145.48 448.631C143.784 448.247 143.112 447.991 143.112 447.191C143.112 446.535 143.736 446.007 144.728 446.007C145.784 446.007 146.888 446.439 147.88 447.239L149.112 445.527C147.976 444.567 146.6 444.007 144.808 444.007C142.392 444.007 140.728 445.399 140.728 447.431C140.728 449.559 142.392 450.215 144.712 450.743C146.392 451.127 147.032 451.367 147.032 452.151C147.032 452.839 146.424 453.383 145.224 453.383C143.832 453.383 142.648 452.839 141.608 451.943L140.264 453.559C141.544 454.743 143.224 455.383 145.144 455.383Z" fill="#0F0B47"/>
<path d="M203.288 8.04199H207.2V7.28999H204.568L205.856 6.20199C206.8 5.43399 207.152 4.84999 207.152 4.11399C207.152 3.11399 206.336 2.44999 205.312 2.44999C204.44 2.44999 203.792 2.84999 203.312 3.51399L203.856 3.99399C204.24 3.49799 204.68 3.17799 205.28 3.17799C205.824 3.17799 206.32 3.52999 206.32 4.12999C206.32 4.62599 206.04 5.09799 205.304 5.71399L203.288 7.37799V8.04199ZM210.441 8.13799C211.809 8.13799 212.777 6.96199 212.777 5.28999C212.777 3.62599 211.809 2.44999 210.441 2.44999C209.057 2.44999 208.089 3.62599 208.089 5.28999C208.089 6.96199 209.057 8.13799 210.441 8.13799ZM210.441 7.39399C209.545 7.39399 208.913 6.52199 208.913 5.28999C208.913 4.05799 209.545 3.19399 210.441 3.19399C211.329 3.19399 211.953 4.05799 211.953 5.28999C211.953 6.52199 211.329 7.39399 210.441 7.39399ZM213.515 8.04199H217.427V7.28999H214.795L216.083 6.20199C217.027 5.43399 217.379 4.84999 217.379 4.11399C217.379 3.11399 216.563 2.44999 215.539 2.44999C214.667 2.44999 214.019 2.84999 213.539 3.51399L214.083 3.99399C214.467 3.49799 214.907 3.17799 215.507 3.17799C216.051 3.17799 216.547 3.52999 216.547 4.12999C216.547 4.62599 216.267 5.09799 215.531 5.71399L213.515 7.37799V8.04199ZM220.667 8.13799C222.035 8.13799 223.003 6.96199 223.003 5.28999C223.003 3.62599 222.035 2.44999 220.667 2.44999C219.283 2.44999 218.315 3.62599 218.315 5.28999C218.315 6.96199 219.283 8.13799 220.667 8.13799ZM220.667 7.39399C219.771 7.39399 219.139 6.52199 219.139 5.28999C219.139 4.05799 219.771 3.19399 220.667 3.19399C221.555 3.19399 222.179 4.05799 222.179 5.28999C222.179 6.52199 221.555 7.39399 220.667 7.39399Z" fill="#0F0B47"/>
<circle cx="191" cy="5.04199" r="5" fill="#E46BB7"/>
<path d="M254.288 8.04199H258.2V7.28999H255.568L256.856 6.20199C257.8 5.43399 258.152 4.84999 258.152 4.11399C258.152 3.11399 257.336 2.44999 256.312 2.44999C255.44 2.44999 254.792 2.84999 254.312 3.51399L254.856 3.99399C255.24 3.49799 255.68 3.17799 256.28 3.17799C256.824 3.17799 257.32 3.52999 257.32 4.12999C257.32 4.62599 257.04 5.09799 256.304 5.71399L254.288 7.37799V8.04199ZM261.441 8.13799C262.809 8.13799 263.777 6.96199 263.777 5.28999C263.777 3.62599 262.809 2.44999 261.441 2.44999C260.057 2.44999 259.089 3.62599 259.089 5.28999C259.089 6.96199 260.057 8.13799 261.441 8.13799ZM261.441 7.39399C260.545 7.39399 259.913 6.52199 259.913 5.28999C259.913 4.05799 260.545 3.19399 261.441 3.19399C262.329 3.19399 262.953 4.05799 262.953 5.28999C262.953 6.52199 262.329 7.39399 261.441 7.39399ZM264.515 8.04199H268.427V7.28999H265.795L267.083 6.20199C268.027 5.43399 268.379 4.84999 268.379 4.11399C268.379 3.11399 267.563 2.44999 266.539 2.44999C265.667 2.44999 265.019 2.84999 264.539 3.51399L265.083 3.99399C265.467 3.49799 265.907 3.17799 266.507 3.17799C267.051 3.17799 267.547 3.52999 267.547 4.12999C267.547 4.62599 267.267 5.09799 266.531 5.71399L264.515 7.37799V8.04199ZM270.323 8.04199H271.131V2.54599H270.483L269.035 3.52999L269.371 4.11399L270.323 3.50599V8.04199Z" fill="#0F0B47"/>
<circle cx="242" cy="5.04199" r="5" fill="#5C2CFF"/>
<path d="M302.288 8.04199H306.2V7.28999H303.568L304.856 6.20199C305.8 5.43399 306.152 4.84999 306.152 4.11399C306.152 3.11399 305.336 2.44999 304.312 2.44999C303.44 2.44999 302.792 2.84999 302.312 3.51399L302.856 3.99399C303.24 3.49799 303.68 3.17799 304.28 3.17799C304.824 3.17799 305.32 3.52999 305.32 4.12999C305.32 4.62599 305.04 5.09799 304.304 5.71399L302.288 7.37799V8.04199ZM309.441 8.13799C310.809 8.13799 311.777 6.96199 311.777 5.28999C311.777 3.62599 310.809 2.44999 309.441 2.44999C308.057 2.44999 307.089 3.62599 307.089 5.28999C307.089 6.96199 308.057 8.13799 309.441 8.13799ZM309.441 7.39399C308.545 7.39399 307.913 6.52199 307.913 5.28999C307.913 4.05799 308.545 3.19399 309.441 3.19399C310.329 3.19399 310.953 4.05799 310.953 5.28999C310.953 6.52199 310.329 7.39399 309.441 7.39399ZM312.515 8.04199H316.427V7.28999H313.795L315.083 6.20199C316.027 5.43399 316.379 4.84999 316.379 4.11399C316.379 3.11399 315.563 2.44999 314.539 2.44999C313.667 2.44999 313.019 2.84999 312.539 3.51399L313.083 3.99399C313.467 3.49799 313.907 3.17799 314.507 3.17799C315.051 3.17799 315.547 3.52999 315.547 4.12999C315.547 4.62599 315.267 5.09799 314.531 5.71399L312.515 7.37799V8.04199ZM317.155 8.04199H321.067V7.28999H318.435L319.723 6.20199C320.667 5.43399 321.019 4.84999 321.019 4.11399C321.019 3.11399 320.203 2.44999 319.179 2.44999C318.307 2.44999 317.659 2.84999 317.179 3.51399L317.723 3.99399C318.107 3.49799 318.547 3.17799 319.147 3.17799C319.691 3.17799 320.187 3.52999 320.187 4.12999C320.187 4.62599 319.907 5.09799 319.171 5.71399L317.155 7.37799V8.04199Z" fill="#0F0B47"/>
<circle cx="290" cy="5.04199" r="5" fill="#1B0085"/>
</svg>
