<svg width="1200" height="371" viewBox="0 0 1200 371" fill="none" xmlns="http://www.w3.org/2000/svg">
<path d="M0.0820312 202.46H879.001" stroke="#B7B7B7" stroke-width="0.5" stroke-miterlimit="10"/>
<path d="M0.0820312 74.4438H879.001" stroke="#B7B7B7" stroke-width="0.5" stroke-miterlimit="10"/>
<path d="M45.53 367.657H54.872V365.263H49.634L51.884 363.517C54.044 361.951 54.764 360.673 54.764 359.017C54.764 356.695 52.856 355.075 50.228 355.075C48.23 355.075 46.664 355.939 45.44 357.487L47.132 359.125C48.032 358.099 48.95 357.487 50.156 357.487C51.164 357.487 52.028 358.099 52.028 359.125C52.028 359.989 51.56 360.799 50.084 361.969L45.53 365.497V367.657ZM62.2219 367.873C65.4799 367.873 67.7659 365.227 67.7659 361.465C67.7659 357.721 65.4799 355.075 62.2219 355.075C58.9639 355.075 56.6599 357.721 56.6599 361.465C56.6599 365.227 58.9639 367.873 62.2219 367.873ZM62.2219 365.461C60.5659 365.461 59.3959 363.787 59.3959 361.465C59.3959 359.143 60.5659 357.487 62.2219 357.487C63.8779 357.487 65.0479 359.143 65.0479 361.465C65.0479 363.787 63.8779 365.461 62.2219 365.461ZM87.5002 361.465C87.5002 357.991 84.5122 355.075 80.9482 355.075C77.3842 355.075 74.3602 357.991 74.3602 361.465C74.3602 364.939 77.3842 367.873 80.9482 367.873C82.3882 367.873 83.7382 367.387 84.8182 366.595L86.0422 367.657L87.3922 366.091L86.2942 365.137C87.0502 364.093 87.5002 362.815 87.5002 361.465ZM80.9482 365.461C78.8602 365.461 77.0962 363.625 77.0962 361.465C77.0962 359.323 78.8602 357.487 80.9482 357.487C83.0182 357.487 84.7822 359.323 84.7822 361.465C84.7822 362.149 84.6022 362.815 84.2782 363.391L82.7302 362.041L81.3802 363.607L82.8742 364.903C82.2982 365.263 81.6322 365.461 80.9482 365.461ZM92.0556 367.657H94.7016V355.291H92.5776L88.8696 357.775L89.9496 359.647L92.0556 358.333V367.657Z" fill="#0F0B47"/>
<path d="M122.395 367.657H131.737V365.263H126.499L128.749 363.517C130.909 361.951 131.629 360.673 131.629 359.017C131.629 356.695 129.721 355.075 127.093 355.075C125.095 355.075 123.529 355.939 122.305 357.487L123.997 359.125C124.897 358.099 125.815 357.487 127.021 357.487C128.029 357.487 128.893 358.099 128.893 359.125C128.893 359.989 128.425 360.799 126.949 361.969L122.395 365.497V367.657ZM139.087 367.873C142.345 367.873 144.631 365.227 144.631 361.465C144.631 357.721 142.345 355.075 139.087 355.075C135.829 355.075 133.525 357.721 133.525 361.465C133.525 365.227 135.829 367.873 139.087 367.873ZM139.087 365.461C137.431 365.461 136.261 363.787 136.261 361.465C136.261 359.143 137.431 357.487 139.087 357.487C140.743 357.487 141.913 359.143 141.913 361.465C141.913 363.787 140.743 365.461 139.087 365.461ZM164.365 361.465C164.365 357.991 161.377 355.075 157.813 355.075C154.249 355.075 151.225 357.991 151.225 361.465C151.225 364.939 154.249 367.873 157.813 367.873C159.253 367.873 160.603 367.387 161.683 366.595L162.907 367.657L164.257 366.091L163.159 365.137C163.915 364.093 164.365 362.815 164.365 361.465ZM157.813 365.461C155.725 365.461 153.961 363.625 153.961 361.465C153.961 359.323 155.725 357.487 157.813 357.487C159.883 357.487 161.647 359.323 161.647 361.465C161.647 362.149 161.467 362.815 161.143 363.391L159.595 362.041L158.245 363.607L159.739 364.903C159.163 365.263 158.497 365.461 157.813 365.461ZM166.077 367.657H175.419V365.263H170.181L172.431 363.517C174.591 361.951 175.311 360.673 175.311 359.017C175.311 356.695 173.403 355.075 170.775 355.075C168.777 355.075 167.211 355.939 165.987 357.487L167.679 359.125C168.579 358.099 169.497 357.487 170.703 357.487C171.711 357.487 172.575 358.099 172.575 359.125C172.575 359.989 172.107 360.799 170.631 361.969L166.077 365.497V367.657Z" fill="#0F0B47"/>
<path d="M198.842 367.657H208.184V365.263H202.946L205.196 363.517C207.356 361.951 208.076 360.673 208.076 359.017C208.076 356.695 206.168 355.075 203.54 355.075C201.542 355.075 199.976 355.939 198.752 357.487L200.444 359.125C201.344 358.099 202.262 357.487 203.468 357.487C204.476 357.487 205.34 358.099 205.34 359.125C205.34 359.989 204.872 360.799 203.396 361.969L198.842 365.497V367.657ZM215.534 367.873C218.792 367.873 221.078 365.227 221.078 361.465C221.078 357.721 218.792 355.075 215.534 355.075C212.276 355.075 209.972 357.721 209.972 361.465C209.972 365.227 212.276 367.873 215.534 367.873ZM215.534 365.461C213.878 365.461 212.708 363.787 212.708 361.465C212.708 359.143 213.878 357.487 215.534 357.487C217.19 357.487 218.36 359.143 218.36 361.465C218.36 363.787 217.19 365.461 215.534 365.461ZM240.813 361.465C240.813 357.991 237.825 355.075 234.261 355.075C230.697 355.075 227.673 357.991 227.673 361.465C227.673 364.939 230.697 367.873 234.261 367.873C235.701 367.873 237.051 367.387 238.131 366.595L239.355 367.657L240.705 366.091L239.607 365.137C240.363 364.093 240.813 362.815 240.813 361.465ZM234.261 365.461C232.173 365.461 230.409 363.625 230.409 361.465C230.409 359.323 232.173 357.487 234.261 357.487C236.331 357.487 238.095 359.323 238.095 361.465C238.095 362.149 237.915 362.815 237.591 363.391L236.043 362.041L234.693 363.607L236.187 364.903C235.611 365.263 234.945 365.461 234.261 365.461ZM247.24 367.891C250.138 367.891 252.01 366.343 252.01 364.201C252.01 362.563 250.768 361.609 249.418 361.303C250.786 360.907 251.74 359.881 251.74 358.459C251.74 356.497 249.994 355.075 247.222 355.075C245.026 355.075 243.55 356.029 242.524 357.271L244.054 358.891C244.882 358.027 245.8 357.451 246.952 357.451C248.176 357.451 249.04 358.027 249.04 358.927C249.04 359.809 248.23 360.313 246.88 360.313L245.458 360.295V362.563H246.88C248.536 362.545 249.292 363.031 249.292 363.985C249.292 364.867 248.482 365.497 247.132 365.497C245.89 365.497 244.72 364.975 243.838 364.039L242.272 365.803C243.316 367.009 245.026 367.891 247.24 367.891Z" fill="#0F0B47"/>
<path d="M277.552 367.657H286.894V365.263H281.656L283.906 363.517C286.066 361.951 286.786 360.673 286.786 359.017C286.786 356.695 284.878 355.075 282.25 355.075C280.252 355.075 278.686 355.939 277.462 357.487L279.154 359.125C280.054 358.099 280.972 357.487 282.178 357.487C283.186 357.487 284.05 358.099 284.05 359.125C284.05 359.989 283.582 360.799 282.106 361.969L277.552 365.497V367.657ZM294.244 367.873C297.502 367.873 299.788 365.227 299.788 361.465C299.788 357.721 297.502 355.075 294.244 355.075C290.986 355.075 288.682 357.721 288.682 361.465C288.682 365.227 290.986 367.873 294.244 367.873ZM294.244 365.461C292.588 365.461 291.418 363.787 291.418 361.465C291.418 359.143 292.588 357.487 294.244 357.487C295.9 357.487 297.07 359.143 297.07 361.465C297.07 363.787 295.9 365.461 294.244 365.461ZM319.523 361.465C319.523 357.991 316.535 355.075 312.971 355.075C309.407 355.075 306.383 357.991 306.383 361.465C306.383 364.939 309.407 367.873 312.971 367.873C314.411 367.873 315.761 367.387 316.841 366.595L318.065 367.657L319.415 366.091L318.317 365.137C319.073 364.093 319.523 362.815 319.523 361.465ZM312.971 365.461C310.883 365.461 309.119 363.625 309.119 361.465C309.119 359.323 310.883 357.487 312.971 357.487C315.041 357.487 316.805 359.323 316.805 361.465C316.805 362.149 316.625 362.815 316.301 363.391L314.753 362.041L313.403 363.607L314.897 364.903C314.321 365.263 313.655 365.461 312.971 365.461ZM327.318 367.657H329.964V365.137H331.602V362.905H329.964V355.309H326.76L321.018 363.085L321.27 365.137H327.318V367.657ZM323.808 362.905L327.318 358.117V362.905H323.808Z" fill="#0F0B47"/>
<path d="M359.579 367.657H368.921V365.263H363.683L365.933 363.517C368.093 361.951 368.813 360.673 368.813 359.017C368.813 356.695 366.905 355.075 364.277 355.075C362.279 355.075 360.713 355.939 359.489 357.487L361.181 359.125C362.081 358.099 362.999 357.487 364.205 357.487C365.213 357.487 366.077 358.099 366.077 359.125C366.077 359.989 365.609 360.799 364.133 361.969L359.579 365.497V367.657ZM373.427 367.657H376.073V355.291H373.949L370.241 357.775L371.321 359.647L373.427 358.333V367.657ZM396.451 361.465C396.451 357.991 393.463 355.075 389.899 355.075C386.335 355.075 383.311 357.991 383.311 361.465C383.311 364.939 386.335 367.873 389.899 367.873C391.339 367.873 392.689 367.387 393.769 366.595L394.993 367.657L396.343 366.091L395.245 365.137C396.001 364.093 396.451 362.815 396.451 361.465ZM389.899 365.461C387.811 365.461 386.047 363.625 386.047 361.465C386.047 359.323 387.811 357.487 389.899 357.487C391.969 357.487 393.733 359.323 393.733 361.465C393.733 362.149 393.553 362.815 393.229 363.391L391.681 362.041L390.331 363.607L391.825 364.903C391.249 365.263 390.583 365.461 389.899 365.461ZM401.007 367.657H403.653V355.291H401.529L397.821 357.775L398.901 359.647L401.007 358.333V367.657Z" fill="#0F0B47"/>
<path d="M435.444 367.657H444.786V365.263H439.548L441.798 363.517C443.958 361.951 444.678 360.673 444.678 359.017C444.678 356.695 442.77 355.075 440.142 355.075C438.144 355.075 436.578 355.939 435.354 357.487L437.046 359.125C437.946 358.099 438.864 357.487 440.07 357.487C441.078 357.487 441.942 358.099 441.942 359.125C441.942 359.989 441.474 360.799 439.998 361.969L435.444 365.497V367.657ZM449.292 367.657H451.938V355.291H449.814L446.106 357.775L447.186 359.647L449.292 358.333V367.657ZM472.317 361.465C472.317 357.991 469.329 355.075 465.765 355.075C462.201 355.075 459.177 357.991 459.177 361.465C459.177 364.939 462.201 367.873 465.765 367.873C467.205 367.873 468.555 367.387 469.635 366.595L470.859 367.657L472.209 366.091L471.111 365.137C471.867 364.093 472.317 362.815 472.317 361.465ZM465.765 365.461C463.677 365.461 461.913 363.625 461.913 361.465C461.913 359.323 463.677 357.487 465.765 357.487C467.835 357.487 469.599 359.323 469.599 361.465C469.599 362.149 469.419 362.815 469.095 363.391L467.547 362.041L466.197 363.607L467.691 364.903C467.115 365.263 466.449 365.461 465.765 365.461ZM474.028 367.657H483.37V365.263H478.132L480.382 363.517C482.542 361.951 483.262 360.673 483.262 359.017C483.262 356.695 481.354 355.075 478.726 355.075C476.728 355.075 475.162 355.939 473.938 357.487L475.63 359.125C476.53 358.099 477.448 357.487 478.654 357.487C479.662 357.487 480.526 358.099 480.526 359.125C480.526 359.989 480.058 360.799 478.582 361.969L474.028 365.497V367.657Z" fill="#0F0B47"/>
<path d="M512.391 367.657H521.733V365.263H516.495L518.745 363.517C520.905 361.951 521.625 360.673 521.625 359.017C521.625 356.695 519.717 355.075 517.089 355.075C515.091 355.075 513.525 355.939 512.301 357.487L513.993 359.125C514.893 358.099 515.811 357.487 517.017 357.487C518.025 357.487 518.889 358.099 518.889 359.125C518.889 359.989 518.421 360.799 516.945 361.969L512.391 365.497V367.657ZM526.239 367.657H528.885V355.291H526.761L523.053 357.775L524.133 359.647L526.239 358.333V367.657ZM549.264 361.465C549.264 357.991 546.276 355.075 542.712 355.075C539.148 355.075 536.124 357.991 536.124 361.465C536.124 364.939 539.148 367.873 542.712 367.873C544.152 367.873 545.502 367.387 546.582 366.595L547.806 367.657L549.156 366.091L548.058 365.137C548.814 364.093 549.264 362.815 549.264 361.465ZM542.712 365.461C540.624 365.461 538.86 363.625 538.86 361.465C538.86 359.323 540.624 357.487 542.712 357.487C544.782 357.487 546.546 359.323 546.546 361.465C546.546 362.149 546.366 362.815 546.042 363.391L544.494 362.041L543.144 363.607L544.638 364.903C544.062 365.263 543.396 365.461 542.712 365.461ZM555.691 367.891C558.589 367.891 560.461 366.343 560.461 364.201C560.461 362.563 559.219 361.609 557.869 361.303C559.237 360.907 560.191 359.881 560.191 358.459C560.191 356.497 558.445 355.075 555.673 355.075C553.477 355.075 552.001 356.029 550.975 357.271L552.505 358.891C553.333 358.027 554.251 357.451 555.403 357.451C556.627 357.451 557.491 358.027 557.491 358.927C557.491 359.809 556.681 360.313 555.331 360.313L553.909 360.295V362.563H555.331C556.987 362.545 557.743 363.031 557.743 363.985C557.743 364.867 556.933 365.497 555.583 365.497C554.341 365.497 553.171 364.975 552.289 364.039L550.723 365.803C551.767 367.009 553.477 367.891 555.691 367.891Z" fill="#0F0B47"/>
<path d="M589.101 367.657H598.443V365.263H593.205L595.455 363.517C597.615 361.951 598.335 360.673 598.335 359.017C598.335 356.695 596.427 355.075 593.799 355.075C591.801 355.075 590.235 355.939 589.011 357.487L590.703 359.125C591.603 358.099 592.521 357.487 593.727 357.487C594.735 357.487 595.599 358.099 595.599 359.125C595.599 359.989 595.131 360.799 593.655 361.969L589.101 365.497V367.657ZM602.949 367.657H605.595V355.291H603.471L599.763 357.775L600.843 359.647L602.949 358.333V367.657ZM625.974 361.465C625.974 357.991 622.986 355.075 619.422 355.075C615.858 355.075 612.834 357.991 612.834 361.465C612.834 364.939 615.858 367.873 619.422 367.873C620.862 367.873 622.212 367.387 623.292 366.595L624.516 367.657L625.866 366.091L624.768 365.137C625.524 364.093 625.974 362.815 625.974 361.465ZM619.422 365.461C617.334 365.461 615.57 363.625 615.57 361.465C615.57 359.323 617.334 357.487 619.422 357.487C621.492 357.487 623.256 359.323 623.256 361.465C623.256 362.149 623.076 362.815 622.752 363.391L621.204 362.041L619.854 363.607L621.348 364.903C620.772 365.263 620.106 365.461 619.422 365.461ZM633.769 367.657H636.415V365.137H638.053V362.905H636.415V355.309H633.211L627.469 363.085L627.721 365.137H633.769V367.657ZM630.259 362.905L633.769 358.117V362.905H630.259Z" fill="#0F0B47"/>
<path d="M667.444 367.657H676.786V365.263H671.548L673.798 363.517C675.958 361.951 676.678 360.673 676.678 359.017C676.678 356.695 674.77 355.075 672.142 355.075C670.144 355.075 668.578 355.939 667.354 357.487L669.046 359.125C669.946 358.099 670.864 357.487 672.07 357.487C673.078 357.487 673.942 358.099 673.942 359.125C673.942 359.989 673.474 360.799 671.998 361.969L667.444 365.497V367.657ZM678.448 367.657H687.79V365.263H682.552L684.802 363.517C686.962 361.951 687.682 360.673 687.682 359.017C687.682 356.695 685.774 355.075 683.146 355.075C681.148 355.075 679.582 355.939 678.358 357.487L680.05 359.125C680.95 358.099 681.868 357.487 683.074 357.487C684.082 357.487 684.946 358.099 684.946 359.125C684.946 359.989 684.478 360.799 683.002 361.969L678.448 365.497V367.657ZM707.586 361.465C707.586 357.991 704.598 355.075 701.034 355.075C697.47 355.075 694.446 357.991 694.446 361.465C694.446 364.939 697.47 367.873 701.034 367.873C702.474 367.873 703.824 367.387 704.904 366.595L706.128 367.657L707.478 366.091L706.38 365.137C707.136 364.093 707.586 362.815 707.586 361.465ZM701.034 365.461C698.946 365.461 697.182 363.625 697.182 361.465C697.182 359.323 698.946 357.487 701.034 357.487C703.104 357.487 704.868 359.323 704.868 361.465C704.868 362.149 704.688 362.815 704.364 363.391L702.816 362.041L701.466 363.607L702.96 364.903C702.384 365.263 701.718 365.461 701.034 365.461ZM712.142 367.657H714.788V355.291H712.664L708.956 357.775L710.036 359.647L712.142 358.333V367.657Z" fill="#0F0B47"/>
<path d="M744.309 367.657H753.651V365.263H748.413L750.663 363.517C752.823 361.951 753.543 360.673 753.543 359.017C753.543 356.695 751.635 355.075 749.007 355.075C747.009 355.075 745.443 355.939 744.219 357.487L745.911 359.125C746.811 358.099 747.729 357.487 748.935 357.487C749.943 357.487 750.807 358.099 750.807 359.125C750.807 359.989 750.339 360.799 748.863 361.969L744.309 365.497V367.657ZM755.313 367.657H764.655V365.263H759.417L761.667 363.517C763.827 361.951 764.547 360.673 764.547 359.017C764.547 356.695 762.639 355.075 760.011 355.075C758.013 355.075 756.447 355.939 755.223 357.487L756.915 359.125C757.815 358.099 758.733 357.487 759.939 357.487C760.947 357.487 761.811 358.099 761.811 359.125C761.811 359.989 761.343 360.799 759.867 361.969L755.313 365.497V367.657ZM784.451 361.465C784.451 357.991 781.463 355.075 777.899 355.075C774.335 355.075 771.311 357.991 771.311 361.465C771.311 364.939 774.335 367.873 777.899 367.873C779.339 367.873 780.689 367.387 781.769 366.595L782.993 367.657L784.343 366.091L783.245 365.137C784.001 364.093 784.451 362.815 784.451 361.465ZM777.899 365.461C775.811 365.461 774.047 363.625 774.047 361.465C774.047 359.323 775.811 357.487 777.899 357.487C779.969 357.487 781.733 359.323 781.733 361.465C781.733 362.149 781.553 362.815 781.229 363.391L779.681 362.041L778.331 363.607L779.825 364.903C779.249 365.263 778.583 365.461 777.899 365.461ZM786.163 367.657H795.505V365.263H790.267L792.517 363.517C794.677 361.951 795.397 360.673 795.397 359.017C795.397 356.695 793.489 355.075 790.861 355.075C788.863 355.075 787.297 355.939 786.073 357.487L787.765 359.125C788.665 358.099 789.583 357.487 790.789 357.487C791.797 357.487 792.661 358.099 792.661 359.125C792.661 359.989 792.193 360.799 790.717 361.969L786.163 365.497V367.657Z" fill="#0F0B47"/>
<path d="M821.757 367.657H831.099V365.263H825.861L828.111 363.517C830.271 361.951 830.991 360.673 830.991 359.017C830.991 356.695 829.083 355.075 826.455 355.075C824.457 355.075 822.891 355.939 821.667 357.487L823.359 359.125C824.259 358.099 825.177 357.487 826.383 357.487C827.391 357.487 828.255 358.099 828.255 359.125C828.255 359.989 827.787 360.799 826.311 361.969L821.757 365.497V367.657ZM832.76 367.657H842.102V365.263H836.864L839.114 363.517C841.274 361.951 841.994 360.673 841.994 359.017C841.994 356.695 840.086 355.075 837.458 355.075C835.46 355.075 833.894 355.939 832.67 357.487L834.362 359.125C835.262 358.099 836.18 357.487 837.386 357.487C838.394 357.487 839.258 358.099 839.258 359.125C839.258 359.989 838.79 360.799 837.314 361.969L832.76 365.497V367.657ZM861.899 361.465C861.899 357.991 858.911 355.075 855.347 355.075C851.783 355.075 848.759 357.991 848.759 361.465C848.759 364.939 851.783 367.873 855.347 367.873C856.787 367.873 858.137 367.387 859.217 366.595L860.441 367.657L861.791 366.091L860.693 365.137C861.449 364.093 861.899 362.815 861.899 361.465ZM855.347 365.461C853.259 365.461 851.495 363.625 851.495 361.465C851.495 359.323 853.259 357.487 855.347 357.487C857.417 357.487 859.181 359.323 859.181 361.465C859.181 362.149 859.001 362.815 858.677 363.391L857.129 362.041L855.779 363.607L857.273 364.903C856.697 365.263 856.031 365.461 855.347 365.461ZM868.326 367.891C871.224 367.891 873.096 366.343 873.096 364.201C873.096 362.563 871.854 361.609 870.504 361.303C871.872 360.907 872.826 359.881 872.826 358.459C872.826 356.497 871.08 355.075 868.308 355.075C866.112 355.075 864.636 356.029 863.61 357.271L865.14 358.891C865.968 358.027 866.886 357.451 868.038 357.451C869.262 357.451 870.126 358.027 870.126 358.927C870.126 359.809 869.316 360.313 867.966 360.313L866.544 360.295V362.563H867.966C869.622 362.545 870.378 363.031 870.378 363.985C870.378 364.867 869.568 365.497 868.218 365.497C866.976 365.497 865.806 364.975 864.924 364.039L863.358 365.803C864.402 367.009 866.112 367.891 868.326 367.891Z" fill="#0F0B47"/>
<line x1="72.168" y1="57.041" x2="72.168" y2="290.271" stroke="#0F0B47" stroke-width="2" stroke-linecap="square" stroke-dasharray="10 10"/>
<path d="M63.2308 36.0381H64.4788V25.0461H63.4708L60.7668 26.8861L61.3108 27.8141L63.2308 26.5661V36.0381ZM71.7015 36.2301C74.3735 36.2301 76.2615 33.8781 76.2615 30.5341C76.2615 27.2061 74.3735 24.8541 71.7015 24.8541C69.0135 24.8541 67.1255 27.2061 67.1255 30.5341C67.1255 33.8781 69.0135 36.2301 71.7015 36.2301ZM71.7015 35.0781C69.7655 35.0781 68.3895 33.1901 68.3895 30.5341C68.3895 27.8781 69.7655 26.0061 71.7015 26.0061C73.6375 26.0061 74.9975 27.8781 74.9975 30.5341C74.9975 33.1901 73.6375 35.0781 71.7015 35.0781ZM82.764 36.2301C85.436 36.2301 87.324 33.8781 87.324 30.5341C87.324 27.2061 85.436 24.8541 82.764 24.8541C80.076 24.8541 78.188 27.2061 78.188 30.5341C78.188 33.8781 80.076 36.2301 82.764 36.2301ZM82.764 35.0781C80.828 35.0781 79.452 33.1901 79.452 30.5341C79.452 27.8781 80.828 26.0061 82.764 26.0061C84.7 26.0061 86.06 27.8781 86.06 30.5341C86.06 33.1901 84.7 35.0781 82.764 35.0781Z" fill="#0F0B47"/>
<path d="M4.21272 65.7652C5.50872 65.7652 6.54372 65.0992 6.54372 64.0282C6.54372 63.2722 5.97672 62.7232 5.23872 62.4622C5.86872 62.2192 6.39072 61.7602 6.39072 61.0222C6.39072 59.9962 5.36472 59.3662 4.21272 59.3662C3.09672 59.3662 2.04372 59.9692 2.04372 61.0222C2.04372 61.7242 2.52072 62.1922 3.19572 62.4622C2.45772 62.7142 1.88172 63.2632 1.88172 64.0282C1.88172 65.0902 2.90772 65.7652 4.21272 65.7652ZM4.21272 62.1202C3.66372 62.0842 2.95272 61.7602 2.95272 61.1212C2.95272 60.5722 3.50172 60.1672 4.21272 60.1672C4.92372 60.1672 5.48172 60.5722 5.48172 61.1212C5.48172 61.7422 4.77972 62.0842 4.21272 62.1202ZM4.21272 64.9642C3.42072 64.9642 2.79972 64.5502 2.79972 63.9472C2.79972 63.2902 3.60972 62.8942 4.21272 62.8762C4.82472 62.8942 5.62572 63.2902 5.62572 63.9472C5.62572 64.5502 5.00472 64.9642 4.21272 64.9642ZM10.1969 65.7652C11.7359 65.7652 12.8249 64.4422 12.8249 62.5612C12.8249 60.6892 11.7359 59.3662 10.1969 59.3662C8.63988 59.3662 7.55088 60.6892 7.55088 62.5612C7.55088 64.4422 8.63988 65.7652 10.1969 65.7652ZM10.1969 64.9282C9.18888 64.9282 8.47788 63.9472 8.47788 62.5612C8.47788 61.1752 9.18888 60.2032 10.1969 60.2032C11.1959 60.2032 11.8979 61.1752 11.8979 62.5612C11.8979 63.9472 11.1959 64.9282 10.1969 64.9282ZM16.4811 65.7652C18.0201 65.7652 19.1091 64.4422 19.1091 62.5612C19.1091 60.6892 18.0201 59.3662 16.4811 59.3662C14.9241 59.3662 13.8351 60.6892 13.8351 62.5612C13.8351 64.4422 14.9241 65.7652 16.4811 65.7652ZM16.4811 64.9282C15.4731 64.9282 14.7621 63.9472 14.7621 62.5612C14.7621 61.1752 15.4731 60.2032 16.4811 60.2032C17.4801 60.2032 18.1821 61.1752 18.1821 62.5612C18.1821 63.9472 17.4801 64.9282 16.4811 64.9282Z" fill="#0F0B47"/>
<path d="M4.899 196.657H5.808V195.235H6.699V194.434H5.808V190.474H4.728L1.731 194.506L1.83 195.235H4.899V196.657ZM2.73 194.434L4.899 191.509V194.434H2.73ZM10.1046 196.765C11.6436 196.765 12.7326 195.442 12.7326 193.561C12.7326 191.689 11.6436 190.366 10.1046 190.366C8.54759 190.366 7.45859 191.689 7.45859 193.561C7.45859 195.442 8.54759 196.765 10.1046 196.765ZM10.1046 195.928C9.09659 195.928 8.38559 194.947 8.38559 193.561C8.38559 192.175 9.09659 191.203 10.1046 191.203C11.1036 191.203 11.8056 192.175 11.8056 193.561C11.8056 194.947 11.1036 195.928 10.1046 195.928ZM16.3888 196.765C17.9278 196.765 19.0168 195.442 19.0168 193.561C19.0168 191.689 17.9278 190.366 16.3888 190.366C14.8318 190.366 13.7428 191.689 13.7428 193.561C13.7428 195.442 14.8318 196.765 16.3888 196.765ZM16.3888 195.928C15.3808 195.928 14.6698 194.947 14.6698 193.561C14.6698 192.175 15.3808 191.203 16.3888 191.203C17.3878 191.203 18.0898 192.175 18.0898 193.561C18.0898 194.947 17.3878 195.928 16.3888 195.928Z" fill="#0F0B47"/>
<line x1="149.778" y1="57.0415" x2="149.778" y2="290.272" stroke="#0F0B47" stroke-width="2" stroke-linecap="square" stroke-dasharray="10 10"/>
<path d="M142.746 35.6572H143.994V24.6652H142.986L140.282 26.5052L140.826 27.4332L142.746 26.1852V35.6572ZM150.161 35.8492C152.449 35.8492 153.985 34.5212 153.985 32.6812C153.985 31.0972 152.737 30.2812 151.617 30.0252C152.753 29.6892 153.745 28.8572 153.745 27.4492C153.745 25.6892 152.209 24.4732 150.113 24.4732C148.401 24.4732 147.185 25.3052 146.353 26.4092L147.185 27.1612C147.969 26.2172 148.833 25.6092 150.049 25.6092C151.425 25.6092 152.481 26.4412 152.481 27.5932C152.481 28.8412 151.377 29.5452 149.905 29.5292L148.721 29.5132V30.6652H149.889C151.617 30.6652 152.721 31.3212 152.721 32.6172C152.721 33.8652 151.697 34.7132 150.161 34.7132C148.817 34.7132 147.745 34.0732 147.025 33.1452L146.161 33.9612C146.961 35.0172 148.353 35.8492 150.161 35.8492ZM155.537 35.6572H163.121V34.4732H157.537L160.417 31.9772C162.273 30.3772 163.009 29.1932 163.009 27.7052C163.009 25.7372 161.409 24.4732 159.505 24.4732C157.777 24.4732 156.545 25.2892 155.633 26.5852L156.513 27.3052C157.265 26.2812 158.177 25.5932 159.457 25.5932C160.625 25.5932 161.745 26.3772 161.745 27.7212C161.745 28.8092 161.105 29.8652 159.553 31.1932L155.537 34.6172V35.6572Z" fill="#0F0B47"/>
<line x1="227.389" y1="57.0415" x2="227.389" y2="290.272" stroke="#0F0B47" stroke-width="2" stroke-linecap="square" stroke-dasharray="10 10"/>
<path d="M220.785 35.6572H222.033V24.6652H221.025L218.321 26.5052L218.865 27.4332L220.785 26.1852V35.6572ZM225.336 35.6572H226.776L231.512 25.6092V24.6652H224.072V25.8492H230.024L225.336 35.6572ZM232.498 35.6572H240.082V34.4732H234.498L237.378 31.9772C239.234 30.3772 239.97 29.1932 239.97 27.7052C239.97 25.7372 238.37 24.4732 236.466 24.4732C234.738 24.4732 233.506 25.2892 232.594 26.5852L233.474 27.3052C234.226 26.2812 235.138 25.5932 236.418 25.5932C237.586 25.5932 238.706 26.3772 238.706 27.7212C238.706 28.8092 238.066 29.8652 236.514 31.1932L232.498 34.6172V35.6572Z" fill="#0F0B47"/>
<line x1="304.998" y1="57.042" x2="304.998" y2="290.272" stroke="#0F0B47" stroke-width="2" stroke-linecap="square" stroke-dasharray="10 10"/>
<path d="M295.561 36.3506H303.145V35.1666H297.561L300.441 32.6706C302.297 31.0706 303.033 29.8866 303.033 28.3986C303.033 26.4306 301.433 25.1666 299.529 25.1666C297.801 25.1666 296.569 25.9826 295.657 27.2786L296.537 27.9986C297.289 26.9746 298.201 26.2866 299.481 26.2866C300.649 26.2866 301.769 27.0706 301.769 28.4146C301.769 29.5026 301.129 30.5586 299.577 31.8866L295.561 35.3106V36.3506ZM306.848 36.3506H308.096V25.3586H307.088L304.384 27.1986L304.928 28.1266L306.848 26.8786V36.3506ZM314.535 36.5426C316.791 36.5426 318.439 35.1026 318.439 32.9266C318.439 30.7506 316.791 29.5026 314.807 29.5026C313.799 29.5026 313.047 29.8386 312.455 30.2386L312.567 26.5426H317.847V25.3586H311.351L311.191 31.0066L312.103 31.4546C312.791 30.9426 313.607 30.6066 314.551 30.6066C316.087 30.6066 317.175 31.5666 317.175 32.9746C317.175 34.3666 316.103 35.4226 314.583 35.4226C313.367 35.4226 312.327 34.8146 311.479 33.8866L310.663 34.7986C311.559 35.8226 312.839 36.5426 314.535 36.5426Z" fill="#0F0B47"/>
<line x1="382.608" y1="57.0415" x2="382.608" y2="290.272" stroke="#0F0B47" stroke-width="2" stroke-linecap="square" stroke-dasharray="10 10"/>
<path d="M371.576 36.6572H379.16V35.4732H373.576L376.456 32.9772C378.312 31.3772 379.048 30.1932 379.048 28.7052C379.048 26.7372 377.448 25.4732 375.544 25.4732C373.816 25.4732 372.584 26.2892 371.672 27.5852L372.552 28.3052C373.304 27.2812 374.216 26.5932 375.496 26.5932C376.664 26.5932 377.784 27.3772 377.784 28.7212C377.784 29.8092 377.144 30.8652 375.592 32.1932L371.576 35.6172V36.6572ZM384.831 36.8492C387.087 36.8492 388.735 35.4092 388.735 33.2332C388.735 31.0572 387.087 29.8092 385.103 29.8092C384.095 29.8092 383.343 30.1452 382.751 30.5452L382.863 26.8492H388.143V25.6652H381.647L381.487 31.3132L382.399 31.7612C383.087 31.2492 383.903 30.9132 384.847 30.9132C386.383 30.9132 387.471 31.8732 387.471 33.2812C387.471 34.6732 386.399 35.7292 384.879 35.7292C383.663 35.7292 382.623 35.1212 381.775 34.1932L380.959 35.1052C381.855 36.1292 383.135 36.8492 384.831 36.8492ZM395.643 36.6572H396.891V33.9852H398.539V32.8492H396.891V25.6652H395.451L389.995 32.9452L390.155 33.9852H395.643V36.6572ZM391.419 32.8492L395.643 27.1692V32.8492H391.419Z" fill="#0F0B47"/>
<line x1="460.218" y1="57.042" x2="460.218" y2="290.272" stroke="#0F0B47" stroke-width="2" stroke-linecap="square" stroke-dasharray="10 10"/>
<path d="M451.193 36.5426C453.481 36.5426 455.017 35.2146 455.017 33.3746C455.017 31.7906 453.769 30.9746 452.649 30.7186C453.785 30.3826 454.777 29.5506 454.777 28.1426C454.777 26.3826 453.241 25.1666 451.145 25.1666C449.433 25.1666 448.217 25.9986 447.385 27.1026L448.217 27.8546C449.001 26.9106 449.865 26.3026 451.081 26.3026C452.457 26.3026 453.513 27.1346 453.513 28.2866C453.513 29.5346 452.409 30.2386 450.937 30.2226L449.753 30.2066V31.3586H450.921C452.649 31.3586 453.753 32.0146 453.753 33.3106C453.753 34.5586 452.729 35.4066 451.193 35.4066C449.849 35.4066 448.777 34.7666 448.057 33.8386L447.193 34.6546C447.993 35.7106 449.385 36.5426 451.193 36.5426ZM461.562 36.5426C464.234 36.5426 466.122 34.1906 466.122 30.8466C466.122 27.5186 464.234 25.1666 461.562 25.1666C458.874 25.1666 456.986 27.5186 456.986 30.8466C456.986 34.1906 458.874 36.5426 461.562 36.5426ZM461.562 35.3906C459.626 35.3906 458.25 33.5026 458.25 30.8466C458.25 28.1906 459.626 26.3186 461.562 26.3186C463.498 26.3186 464.858 28.1906 464.858 30.8466C464.858 33.5026 463.498 35.3906 461.562 35.3906ZM472.624 36.5426C475.296 36.5426 477.184 34.1906 477.184 30.8466C477.184 27.5186 475.296 25.1666 472.624 25.1666C469.936 25.1666 468.048 27.5186 468.048 30.8466C468.048 34.1906 469.936 36.5426 472.624 36.5426ZM472.624 35.3906C470.688 35.3906 469.312 33.5026 469.312 30.8466C469.312 28.1906 470.688 26.3186 472.624 26.3186C474.56 26.3186 475.92 28.1906 475.92 30.8466C475.92 33.5026 474.56 35.3906 472.624 35.3906Z" fill="#0F0B47"/>
<line x1="537.828" y1="57.042" x2="537.828" y2="290.272" stroke="#0F0B47" stroke-width="2" stroke-linecap="square" stroke-dasharray="10 10"/>
<path d="M531.127 36.5426C533.415 36.5426 534.951 35.2146 534.951 33.3746C534.951 31.7906 533.703 30.9746 532.583 30.7186C533.719 30.3826 534.711 29.5506 534.711 28.1426C534.711 26.3826 533.175 25.1666 531.079 25.1666C529.367 25.1666 528.151 25.9986 527.319 27.1026L528.151 27.8546C528.935 26.9106 529.799 26.3026 531.015 26.3026C532.391 26.3026 533.447 27.1346 533.447 28.2866C533.447 29.5346 532.343 30.2386 530.871 30.2226L529.687 30.2066V31.3586H530.855C532.583 31.3586 533.687 32.0146 533.687 33.3106C533.687 34.5586 532.663 35.4066 531.127 35.4066C529.783 35.4066 528.711 34.7666 527.991 33.8386L527.127 34.6546C527.927 35.7106 529.319 36.5426 531.127 36.5426ZM537.576 36.3506H539.016L543.752 26.3026V25.3586H536.312V26.5426H542.264L537.576 36.3506ZM548.674 36.5426C550.962 36.5426 552.498 35.2146 552.498 33.3746C552.498 31.7906 551.25 30.9746 550.13 30.7186C551.266 30.3826 552.258 29.5506 552.258 28.1426C552.258 26.3826 550.722 25.1666 548.626 25.1666C546.914 25.1666 545.698 25.9986 544.866 27.1026L545.698 27.8546C546.482 26.9106 547.346 26.3026 548.562 26.3026C549.938 26.3026 550.994 27.1346 550.994 28.2866C550.994 29.5346 549.89 30.2386 548.418 30.2226L547.234 30.2066V31.3586H548.402C550.13 31.3586 551.234 32.0146 551.234 33.3106C551.234 34.5586 550.21 35.4066 548.674 35.4066C547.33 35.4066 546.258 34.7666 545.538 33.8386L544.674 34.6546C545.474 35.7106 546.866 36.5426 548.674 36.5426Z" fill="#0F0B47"/>
<line x1="615.438" y1="57.042" x2="615.438" y2="290.272" stroke="#0F0B47" stroke-width="2" stroke-linecap="square" stroke-dasharray="10 10"/>
<path d="M609.474 36.3506H610.722V33.6786H612.37V32.5426H610.722V25.3586H609.282L603.826 32.6386L603.986 33.6786H609.474V36.3506ZM605.25 32.5426L609.474 26.8626V32.5426H605.25ZM617.281 36.5426C619.569 36.5426 621.105 35.2146 621.105 33.3746C621.105 31.7906 619.857 30.9746 618.737 30.7186C619.873 30.3826 620.865 29.5506 620.865 28.1426C620.865 26.3826 619.329 25.1666 617.233 25.1666C615.521 25.1666 614.305 25.9986 613.473 27.1026L614.305 27.8546C615.089 26.9106 615.953 26.3026 617.169 26.3026C618.545 26.3026 619.601 27.1346 619.601 28.2866C619.601 29.5346 618.497 30.2386 617.025 30.2226L615.841 30.2066V31.3586H617.009C618.737 31.3586 619.841 32.0146 619.841 33.3106C619.841 34.5586 618.817 35.4066 617.281 35.4066C615.937 35.4066 614.865 34.7666 614.145 33.8386L613.281 34.6546C614.081 35.7106 615.473 36.5426 617.281 36.5426ZM627.073 36.5426C629.329 36.5426 631.089 35.3426 631.089 33.4706C631.089 32.0946 630.001 31.1186 628.673 30.6706C629.809 30.2546 630.817 29.4386 630.817 28.0946C630.817 26.2866 629.041 25.1666 627.073 25.1666C625.169 25.1666 623.345 26.2546 623.345 28.0786C623.345 29.3426 624.241 30.1906 625.489 30.6706C624.145 31.1026 623.057 32.0946 623.057 33.4706C623.057 35.3266 624.801 36.5426 627.073 36.5426ZM627.073 30.1746C626.033 30.1106 624.609 29.4866 624.609 28.2066C624.609 27.1026 625.697 26.3026 627.073 26.3026C628.449 26.3026 629.553 27.1026 629.553 28.2066C629.553 29.4546 628.145 30.1106 627.073 30.1746ZM627.073 35.4066C625.553 35.4066 624.321 34.5906 624.321 33.3906C624.321 32.0626 625.937 31.2946 627.073 31.2626C628.225 31.2946 629.825 32.0626 629.825 33.3906C629.825 34.5906 628.593 35.4066 627.073 35.4066Z" fill="#0F0B47"/>
<line x1="693.048" y1="57.042" x2="693.048" y2="290.272" stroke="#0F0B47" stroke-width="2" stroke-linecap="square" stroke-dasharray="10 10"/>
<path d="M686.846 36.3506H688.094V33.6786H689.742V32.5426H688.094V25.3586H686.654L681.198 32.6386L681.358 33.6786H686.846V36.3506ZM682.622 32.5426L686.846 26.8626V32.5426H682.622ZM695.133 36.5426C697.389 36.5426 699.149 35.3426 699.149 33.4706C699.149 32.0946 698.061 31.1186 696.733 30.6706C697.869 30.2546 698.877 29.4386 698.877 28.0946C698.877 26.2866 697.101 25.1666 695.133 25.1666C693.229 25.1666 691.405 26.2546 691.405 28.0786C691.405 29.3426 692.301 30.1906 693.549 30.6706C692.205 31.1026 691.117 32.0946 691.117 33.4706C691.117 35.3266 692.861 36.5426 695.133 36.5426ZM695.133 30.1746C694.093 30.1106 692.669 29.4866 692.669 28.2066C692.669 27.1026 693.757 26.3026 695.133 26.3026C696.509 26.3026 697.613 27.1026 697.613 28.2066C697.613 29.4546 696.205 30.1106 695.133 30.1746ZM695.133 35.4066C693.613 35.4066 692.381 34.5906 692.381 33.3906C692.381 32.0626 693.997 31.2946 695.133 31.2626C696.285 31.2946 697.885 32.0626 697.885 33.3906C697.885 34.5906 696.653 35.4066 695.133 35.4066ZM704.782 25.1666C702.494 25.1666 700.91 26.7666 700.91 28.7986C700.91 30.9746 702.59 32.2226 704.59 32.2226C705.886 32.2226 707.022 31.5986 707.694 30.5426V30.6866C707.694 33.3266 706.302 35.4066 704.542 35.4066C703.486 35.4066 702.766 34.9266 702.078 34.2546L701.39 35.2306C702.206 36.0146 703.166 36.5426 704.51 36.5426C707.006 36.5426 708.958 33.9666 708.958 30.6866C708.958 27.5826 707.758 25.1666 704.782 25.1666ZM704.814 31.1506C703.342 31.1506 702.174 30.2386 702.174 28.7346C702.174 27.5186 703.15 26.2386 704.798 26.2386C706.334 26.2386 707.23 27.4386 707.55 29.1026C707.278 30.3186 706.206 31.1506 704.814 31.1506Z" fill="#0F0B47"/>
<line x1="770.658" y1="57.042" x2="770.658" y2="290.272" stroke="#0F0B47" stroke-width="2" stroke-linecap="square" stroke-dasharray="10 10"/>
<path d="M763.874 29.4866C762.578 29.4866 761.442 30.1106 760.77 31.1666V31.0226C760.77 28.3826 762.162 26.3026 763.922 26.3026C764.978 26.3026 765.698 26.7826 766.386 27.4546L767.074 26.4786C766.258 25.6946 765.298 25.1666 763.954 25.1666C761.458 25.1666 759.506 27.7426 759.506 31.0226C759.506 34.1266 760.706 36.5426 763.682 36.5426C765.97 36.5426 767.554 34.9426 767.554 32.9106C767.554 30.7346 765.874 29.4866 763.874 29.4866ZM763.666 35.4706C762.13 35.4706 761.234 34.2706 760.914 32.6066C761.186 31.3906 762.258 30.5586 763.65 30.5586C765.122 30.5586 766.29 31.4706 766.29 32.9746C766.29 34.1906 765.314 35.4706 763.666 35.4706ZM773.03 25.1666C770.742 25.1666 769.158 26.7666 769.158 28.7986C769.158 30.9746 770.838 32.2226 772.838 32.2226C774.134 32.2226 775.27 31.5986 775.942 30.5426V30.6866C775.942 33.3266 774.55 35.4066 772.79 35.4066C771.734 35.4066 771.014 34.9266 770.326 34.2546L769.638 35.2306C770.454 36.0146 771.414 36.5426 772.758 36.5426C775.254 36.5426 777.206 33.9666 777.206 30.6866C777.206 27.5826 776.006 25.1666 773.03 25.1666ZM773.062 31.1506C771.59 31.1506 770.422 30.2386 770.422 28.7346C770.422 27.5186 771.398 26.2386 773.046 26.2386C774.582 26.2386 775.478 27.4386 775.798 29.1026C775.526 30.3186 774.454 31.1506 773.062 31.1506ZM782.697 36.5426C784.985 36.5426 786.521 35.2146 786.521 33.3746C786.521 31.7906 785.273 30.9746 784.153 30.7186C785.289 30.3826 786.281 29.5506 786.281 28.1426C786.281 26.3826 784.745 25.1666 782.649 25.1666C780.937 25.1666 779.721 25.9986 778.889 27.1026L779.721 27.8546C780.505 26.9106 781.369 26.3026 782.585 26.3026C783.961 26.3026 785.017 27.1346 785.017 28.2866C785.017 29.5346 783.913 30.2386 782.441 30.2226L781.257 30.2066V31.3586H782.425C784.153 31.3586 785.257 32.0146 785.257 33.3106C785.257 34.5586 784.233 35.4066 782.697 35.4066C781.353 35.4066 780.281 34.7666 779.561 33.8386L778.697 34.6546C779.497 35.7106 780.889 36.5426 782.697 36.5426Z" fill="#0F0B47"/>
<line x1="848.268" y1="57.042" x2="848.268" y2="290.272" stroke="#0F0B47" stroke-width="2" stroke-linecap="square" stroke-dasharray="10 10"/>
<path d="M838.712 36.3506H840.152L844.888 26.3026V25.3586H837.448V26.5426H843.4L838.712 36.3506ZM851.41 36.3506H852.658V33.6786H854.306V32.5426H852.658V25.3586H851.218L845.762 32.6386L845.922 33.6786H851.41V36.3506ZM847.186 32.5426L851.41 26.8626V32.5426H847.186ZM859.489 36.5426C861.745 36.5426 863.393 35.1026 863.393 32.9266C863.393 30.7506 861.745 29.5026 859.761 29.5026C858.753 29.5026 858.001 29.8386 857.409 30.2386L857.521 26.5426H862.801V25.3586H856.305L856.145 31.0066L857.057 31.4546C857.745 30.9426 858.561 30.6066 859.505 30.6066C861.041 30.6066 862.129 31.5666 862.129 32.9746C862.129 34.3666 861.057 35.4226 859.537 35.4226C858.321 35.4226 857.281 34.8146 856.433 33.8866L855.617 34.7986C856.513 35.8226 857.793 36.5426 859.489 36.5426Z" fill="#0F0B47"/>
<rect width="60.0077" height="238.367" transform="matrix(1 0 0 -1 818.464 330.477)" fill="#D9D9D9"/>
<rect width="60.0077" height="221.821" transform="matrix(1 0 0 -1 740.054 330.669)" fill="#D9D9D9"/>
<rect width="60.0077" height="156.532" transform="matrix(1 0 0 -1 662.443 330.189)" fill="#D9D9D9"/>
<rect width="60.0077" height="140.114" transform="matrix(1 0 0 -1 584.033 330.573)" fill="#D9D9D9"/>
<rect width="60.0077" height="119.311" transform="matrix(1 0 0 -1 506.424 330.573)" fill="#D9D9D9"/>
<rect width="60.0077" height="96.1404" transform="matrix(1 0 0 -1 429.613 330.477)" fill="#D9D9D9"/>
<rect width="60.0077" height="81.3545" transform="matrix(1 0 0 -1 352.004 330.477)" fill="#D9D9D9"/>
<rect width="60.0077" height="68.6808" transform="matrix(1 0 0 -1 274.394 330.477)" fill="#D9D9D9"/>
<rect width="60.0077" height="55.1111" transform="matrix(1 0 0 -1 196.784 330.477)" fill="#D9D9D9"/>
<rect width="60.0077" height="42.2134" transform="matrix(1 0 0 -1 119.174 330.477)" fill="#D9D9D9"/>
<rect width="60.0077" height="32.0041" transform="matrix(1 0 0 -1 40.7637 330.477)" fill="#D9D9D9"/>
<circle cx="71.9678" cy="298.473" r="8.00103" fill="#92EFDF"/>
<circle cx="149.578" cy="288.071" r="8.00103" fill="#92EFDF"/>
<circle cx="227.188" cy="275.27" r="8.00103" fill="#92EFDF"/>
<circle cx="304.798" cy="261.668" r="8.00103" fill="#92EFDF"/>
<circle cx="382.407" cy="248.866" r="8.00103" fill="#92EFDF"/>
<circle cx="460.018" cy="234.464" r="8.00103" fill="#92EFDF"/>
<circle cx="537.628" cy="211.261" r="8.00103" fill="#92EFDF"/>
<circle cx="615.237" cy="190.459" r="8.00103" fill="#92EFDF"/>
<circle cx="692.848" cy="173.656" r="8.00103" fill="#92EFDF"/>
<circle cx="770.458" cy="108.848" r="8.00103" fill="#92EFDF"/>
<circle cx="848.067" cy="92.046" r="8.00103" fill="#92EFDF"/>
<path d="M0.0820312 330.477H923" stroke="#0F0B47" stroke-miterlimit="10"/>
<rect x="923" y="0.657227" width="277" height="330" fill="#5C2CFF"/>
<path d="M952.256 167H954.938V162.536L959.762 154.634H956.792L953.588 160.052L950.51 154.634H947.414L952.256 162.536V167ZM965.71 165.182C964.432 165.182 963.568 164.3 963.334 163.04H970.336C970.336 159.584 968.572 157.478 965.656 157.478C962.938 157.478 960.832 159.512 960.832 162.32C960.832 165.182 963.028 167.216 965.8 167.216C967.168 167.216 968.77 166.64 969.598 165.776L968.122 164.264C967.528 164.804 966.574 165.182 965.71 165.182ZM965.692 159.512C966.862 159.512 967.6 160.322 967.816 161.474H963.352C963.64 160.286 964.522 159.512 965.692 159.512ZM976.038 157.478C974.742 157.478 973.464 157.838 972.15 158.504L973.032 160.25C973.77 159.872 974.58 159.584 975.444 159.584C976.974 159.584 977.604 160.448 977.604 161.438V161.636C976.812 161.312 975.966 161.15 975.21 161.15C973.068 161.15 971.358 162.41 971.358 164.246C971.358 166.028 972.87 167.216 974.85 167.216C975.876 167.216 976.938 166.802 977.604 166.064V167H980.142V161.438C980.142 159.008 978.468 157.478 976.038 157.478ZM975.444 165.398C974.544 165.398 973.86 164.93 973.86 164.174C973.86 163.418 974.634 162.86 975.588 162.86C976.308 162.86 977.01 162.986 977.604 163.22V164.066C977.406 164.93 976.452 165.398 975.444 165.398ZM985.077 159.44V157.694H982.449V167H985.077V162.554C985.077 160.808 986.319 159.692 988.263 159.692V157.478C986.841 157.478 985.689 158.234 985.077 159.44ZM990.184 163.166H995.116V160.934H990.184V163.166ZM1002.06 167.216C1004.85 167.216 1007.14 165.02 1007.14 162.338C1007.14 159.656 1004.85 157.478 1002.06 157.478C999.275 157.478 996.989 159.656 996.989 162.338C996.989 165.02 999.275 167.216 1002.06 167.216ZM1002.06 165.002C1000.66 165.002 999.509 163.796 999.509 162.338C999.509 160.88 1000.66 159.692 1002.06 159.692C1003.47 159.692 1004.6 160.88 1004.6 162.338C1004.6 163.796 1003.47 165.002 1002.06 165.002ZM1014.43 157.478C1013.22 157.478 1012.2 158 1011.62 158.828V157.694H1008.99V167H1011.62V161.492C1011.62 160.484 1012.47 159.692 1013.56 159.692C1014.61 159.692 1015.35 160.484 1015.35 161.636V167H1017.87V161.078C1017.87 158.954 1016.44 157.478 1014.43 157.478ZM1020.21 163.166H1025.14V160.934H1020.21V163.166ZM1029.62 170.24C1031.08 170.24 1032.27 169.286 1032.97 167.468L1036.79 157.694H1034.1L1031.78 164.228L1029.33 157.694H1026.62L1030.49 167.09L1030.16 167.774C1029.96 168.116 1029.57 168.278 1029.06 168.278C1028.76 168.278 1028.29 168.116 1027.84 167.864L1027.28 169.664C1027.91 170.006 1028.85 170.24 1029.62 170.24ZM1042.53 165.182C1041.25 165.182 1040.38 164.3 1040.15 163.04H1047.15C1047.15 159.584 1045.39 157.478 1042.47 157.478C1039.75 157.478 1037.65 159.512 1037.65 162.32C1037.65 165.182 1039.84 167.216 1042.62 167.216C1043.98 167.216 1045.59 166.64 1046.41 165.776L1044.94 164.264C1044.34 164.804 1043.39 165.182 1042.53 165.182ZM1042.51 159.512C1043.68 159.512 1044.42 160.322 1044.63 161.474H1040.17C1040.46 160.286 1041.34 159.512 1042.51 159.512ZM1052.85 157.478C1051.56 157.478 1050.28 157.838 1048.97 158.504L1049.85 160.25C1050.59 159.872 1051.4 159.584 1052.26 159.584C1053.79 159.584 1054.42 160.448 1054.42 161.438V161.636C1053.63 161.312 1052.78 161.15 1052.03 161.15C1049.88 161.15 1048.17 162.41 1048.17 164.246C1048.17 166.028 1049.69 167.216 1051.67 167.216C1052.69 167.216 1053.75 166.802 1054.42 166.064V167H1056.96V161.438C1056.96 159.008 1055.28 157.478 1052.85 157.478ZM1052.26 165.398C1051.36 165.398 1050.68 164.93 1050.68 164.174C1050.68 163.418 1051.45 162.86 1052.4 162.86C1053.12 162.86 1053.83 162.986 1054.42 163.22V164.066C1054.22 164.93 1053.27 165.398 1052.26 165.398ZM1061.89 159.44V157.694H1059.27V167H1061.89V162.554C1061.89 160.808 1063.14 159.692 1065.08 159.692V157.478C1063.66 157.478 1062.51 158.234 1061.89 159.44ZM1078.47 157.694V158.954C1077.84 158.072 1076.64 157.478 1075.4 157.478C1073.04 157.478 1071.26 159.296 1071.26 161.888C1071.26 164.48 1073.04 166.316 1075.4 166.316C1076.64 166.316 1077.74 165.776 1078.47 164.858V165.902C1078.47 167.108 1077.39 167.882 1075.7 167.882C1074.62 167.882 1073.52 167.54 1072.91 167L1071.99 168.854C1072.93 169.574 1074.46 170.096 1076.1 170.096C1079.03 170.096 1081.1 168.404 1081.1 166.01V157.694H1078.47ZM1076.22 164.102C1074.91 164.102 1073.97 163.184 1073.97 161.888C1073.97 160.592 1074.91 159.692 1076.22 159.692C1077.54 159.692 1078.47 160.592 1078.47 161.888C1078.47 163.184 1077.54 164.102 1076.22 164.102ZM1086.26 159.44V157.694H1083.63V167H1086.26V162.554C1086.26 160.808 1087.5 159.692 1089.44 159.692V157.478C1088.02 157.478 1086.87 158.234 1086.26 159.44ZM1095.79 167.216C1098.58 167.216 1100.87 165.02 1100.87 162.338C1100.87 159.656 1098.58 157.478 1095.79 157.478C1093 157.478 1090.72 159.656 1090.72 162.338C1090.72 165.02 1093 167.216 1095.79 167.216ZM1095.79 165.002C1094.39 165.002 1093.24 163.796 1093.24 162.338C1093.24 160.88 1094.39 159.692 1095.79 159.692C1097.2 159.692 1098.33 160.88 1098.33 162.338C1098.33 163.796 1097.2 165.002 1095.79 165.002ZM1104.9 167H1107.25L1109 161.15L1110.75 167H1113.1L1116.25 157.694H1113.68L1111.93 163.49L1110.08 157.694H1107.9L1106.07 163.49L1104.3 157.694H1101.73L1104.9 167ZM1122.52 164.696C1122.34 164.876 1121.98 165.002 1121.62 165.002C1121.13 165.002 1120.75 164.57 1120.75 163.958V159.818H1122.77V157.694H1120.75V155.138H1118.22V157.694H1116.94V159.818H1118.22V164.372C1118.22 166.046 1119.37 167.216 1121.02 167.216C1121.76 167.216 1122.61 166.892 1123.15 166.406L1122.52 164.696ZM1130.29 157.478C1129.08 157.478 1128.05 158 1127.48 158.828V154.418H1124.85V167H1127.48V161.492C1127.48 160.484 1128.32 159.692 1129.42 159.692C1130.47 159.692 1131.2 160.484 1131.2 161.636V167H1133.72V161.078C1133.72 158.954 1132.3 157.478 1130.29 157.478ZM1142.3 156.416C1143.07 156.416 1143.7 155.768 1143.7 154.976C1143.7 154.238 1143.07 153.572 1142.3 153.572C1141.49 153.572 1140.86 154.238 1140.86 154.976C1140.86 155.768 1141.49 156.416 1142.3 156.416ZM1140.97 167H1143.6V157.694H1140.97V167ZM1151.56 157.478C1150.35 157.478 1149.32 158 1148.75 158.828V157.694H1146.12V167H1148.75V161.492C1148.75 160.484 1149.59 159.692 1150.69 159.692C1151.74 159.692 1152.47 160.484 1152.47 161.636V167H1154.99V161.078C1154.99 158.954 1153.57 157.478 1151.56 157.478ZM947.738 194H957.08V191.606H951.842L954.092 189.86C956.252 188.294 956.972 187.016 956.972 185.36C956.972 183.038 955.064 181.418 952.436 181.418C950.438 181.418 948.872 182.282 947.648 183.83L949.34 185.468C950.24 184.442 951.158 183.83 952.364 183.83C953.372 183.83 954.236 184.442 954.236 185.468C954.236 186.332 953.768 187.142 952.292 188.312L947.738 191.84V194ZM964.43 194.216C967.688 194.216 969.974 191.57 969.974 187.808C969.974 184.064 967.688 181.418 964.43 181.418C961.172 181.418 958.868 184.064 958.868 187.808C958.868 191.57 961.172 194.216 964.43 194.216ZM964.43 191.804C962.774 191.804 961.604 190.13 961.604 187.808C961.604 185.486 962.774 183.83 964.43 183.83C966.086 183.83 967.256 185.486 967.256 187.808C967.256 190.13 966.086 191.804 964.43 191.804ZM971.574 194H980.916V191.606H975.678L977.928 189.86C980.088 188.294 980.808 187.016 980.808 185.36C980.808 183.038 978.9 181.418 976.272 181.418C974.274 181.418 972.708 182.282 971.484 183.83L973.176 185.468C974.076 184.442 974.994 183.83 976.2 183.83C977.208 183.83 978.072 184.442 978.072 185.468C978.072 186.332 977.604 187.142 976.128 188.312L971.574 191.84V194ZM982.578 194H991.92V191.606H986.682L988.932 189.86C991.092 188.294 991.812 187.016 991.812 185.36C991.812 183.038 989.904 181.418 987.276 181.418C985.278 181.418 983.712 182.282 982.488 183.83L984.18 185.468C985.08 184.442 985.998 183.83 987.204 183.83C988.212 183.83 989.076 184.442 989.076 185.468C989.076 186.332 988.608 187.142 987.132 188.312L982.578 191.84V194ZM1011.72 187.808C1011.72 184.334 1008.73 181.418 1005.16 181.418C1001.6 181.418 998.576 184.334 998.576 187.808C998.576 191.282 1001.6 194.216 1005.16 194.216C1006.6 194.216 1007.95 193.73 1009.03 192.938L1010.26 194L1011.61 192.434L1010.51 191.48C1011.27 190.436 1011.72 189.158 1011.72 187.808ZM1005.16 191.804C1003.08 191.804 1001.31 189.968 1001.31 187.808C1001.31 185.666 1003.08 183.83 1005.16 183.83C1007.23 183.83 1009 185.666 1009 187.808C1009 188.492 1008.82 189.158 1008.49 189.734L1006.95 188.384L1005.6 189.95L1007.09 191.246C1006.51 191.606 1005.85 191.804 1005.16 191.804ZM1018.14 194.234C1021.04 194.234 1022.91 192.686 1022.91 190.544C1022.91 188.906 1021.67 187.952 1020.32 187.646C1021.69 187.25 1022.64 186.224 1022.64 184.802C1022.64 182.84 1020.9 181.418 1018.13 181.418C1015.93 181.418 1014.45 182.372 1013.43 183.614L1014.96 185.234C1015.79 184.37 1016.7 183.794 1017.86 183.794C1019.08 183.794 1019.94 184.37 1019.94 185.27C1019.94 186.152 1019.13 186.656 1017.78 186.656L1016.36 186.638V188.906H1017.78C1019.44 188.888 1020.2 189.374 1020.2 190.328C1020.2 191.21 1019.39 191.84 1018.04 191.84C1016.79 191.84 1015.62 191.318 1014.74 190.382L1013.18 192.146C1014.22 193.352 1015.93 194.234 1018.14 194.234ZM1034.39 194.216C1037.18 194.216 1039.47 192.02 1039.47 189.338C1039.47 186.656 1037.18 184.478 1034.39 184.478C1031.6 184.478 1029.32 186.656 1029.32 189.338C1029.32 192.02 1031.6 194.216 1034.39 194.216ZM1034.39 192.002C1032.99 192.002 1031.84 190.796 1031.84 189.338C1031.84 187.88 1032.99 186.692 1034.39 186.692C1035.8 186.692 1036.93 187.88 1036.93 189.338C1036.93 190.796 1035.8 192.002 1034.39 192.002ZM1044.31 184.19C1044.31 183.578 1044.7 183.146 1045.19 183.146C1045.55 183.146 1045.91 183.272 1046.09 183.452L1046.72 181.85C1046.18 181.364 1045.33 181.04 1044.58 181.04C1042.94 181.04 1041.79 182.21 1041.79 183.884V184.694H1040.51V186.818H1041.79V194H1044.31V186.818H1046.32V184.694H1044.31V184.19ZM1057.03 194.234C1059.92 194.234 1061.8 192.686 1061.8 190.544C1061.8 188.906 1060.55 187.952 1059.2 187.646C1060.57 187.25 1061.53 186.224 1061.53 184.802C1061.53 182.84 1059.78 181.418 1057.01 181.418C1054.81 181.418 1053.34 182.372 1052.31 183.614L1053.84 185.234C1054.67 184.37 1055.59 183.794 1056.74 183.794C1057.96 183.794 1058.83 184.37 1058.83 185.27C1058.83 186.152 1058.02 186.656 1056.67 186.656L1055.24 186.638V188.906H1056.67C1058.32 188.888 1059.08 189.374 1059.08 190.328C1059.08 191.21 1058.27 191.84 1056.92 191.84C1055.68 191.84 1054.51 191.318 1053.62 190.382L1052.06 192.146C1053.1 193.352 1054.81 194.234 1057.03 194.234ZM1069.11 194.216C1072.37 194.216 1074.65 191.57 1074.65 187.808C1074.65 184.064 1072.37 181.418 1069.11 181.418C1065.85 181.418 1063.55 184.064 1063.55 187.808C1063.55 191.57 1065.85 194.216 1069.11 194.216ZM1069.11 191.804C1067.45 191.804 1066.28 190.13 1066.28 187.808C1066.28 185.486 1067.45 183.83 1069.11 183.83C1070.76 183.83 1071.93 185.486 1071.93 187.808C1071.93 190.13 1070.76 191.804 1069.11 191.804ZM1076.77 190.166H1081.71V187.934H1076.77V190.166ZM1091.07 181.418V186.026C1090.33 185.054 1089.23 184.478 1087.92 184.478C1085.45 184.478 1083.65 186.494 1083.65 189.338C1083.65 192.2 1085.45 194.216 1087.92 194.216C1089.23 194.216 1090.33 193.64 1091.07 192.668V194H1093.69V181.418H1091.07ZM1088.69 192.002C1087.23 192.002 1086.21 190.904 1086.21 189.338C1086.21 187.79 1087.23 186.692 1088.69 186.692C1090.08 186.692 1091.07 187.79 1091.07 189.338C1091.07 190.904 1090.08 192.002 1088.69 192.002ZM1100.14 184.478C1098.84 184.478 1097.57 184.838 1096.25 185.504L1097.13 187.25C1097.87 186.872 1098.68 186.584 1099.55 186.584C1101.08 186.584 1101.71 187.448 1101.71 188.438V188.636C1100.91 188.312 1100.07 188.15 1099.31 188.15C1097.17 188.15 1095.46 189.41 1095.46 191.246C1095.46 193.028 1096.97 194.216 1098.95 194.216C1099.98 194.216 1101.04 193.802 1101.71 193.064V194H1104.24V188.438C1104.24 186.008 1102.57 184.478 1100.14 184.478ZM1099.55 192.398C1098.65 192.398 1097.96 191.93 1097.96 191.174C1097.96 190.418 1098.74 189.86 1099.69 189.86C1100.41 189.86 1101.11 189.986 1101.71 190.22V191.066C1101.51 191.93 1100.55 192.398 1099.55 192.398ZM1108.51 197.24C1109.97 197.24 1111.16 196.286 1111.86 194.468L1115.68 184.694H1113L1110.67 191.228L1108.23 184.694H1105.51L1109.38 194.09L1109.05 194.774C1108.86 195.116 1108.46 195.278 1107.96 195.278C1107.65 195.278 1107.18 195.116 1106.73 194.864L1106.17 196.664C1106.8 197.006 1107.74 197.24 1108.51 197.24ZM1126.48 194.216C1129.27 194.216 1131.56 192.02 1131.56 189.338C1131.56 186.656 1129.27 184.478 1126.48 184.478C1123.69 184.478 1121.41 186.656 1121.41 189.338C1121.41 192.02 1123.69 194.216 1126.48 194.216ZM1126.48 192.002C1125.08 192.002 1123.93 190.796 1123.93 189.338C1123.93 187.88 1125.08 186.692 1126.48 186.692C1127.89 186.692 1129.02 187.88 1129.02 189.338C1129.02 190.796 1127.89 192.002 1126.48 192.002ZM1136.04 186.44V184.694H1133.41V194H1136.04V189.554C1136.04 187.808 1137.28 186.692 1139.22 186.692V184.478C1137.8 184.478 1136.65 185.234 1136.04 186.44ZM952.688 221.216C955.478 221.216 957.764 219.02 957.764 216.338C957.764 213.656 955.478 211.478 952.688 211.478C949.898 211.478 947.612 213.656 947.612 216.338C947.612 219.02 949.898 221.216 952.688 221.216ZM952.688 219.002C951.284 219.002 950.132 217.796 950.132 216.338C950.132 214.88 951.284 213.692 952.688 213.692C954.092 213.692 955.226 214.88 955.226 216.338C955.226 217.796 954.092 219.002 952.688 219.002ZM959.615 221H962.243V208.418H959.615V221ZM971.606 208.418V213.026C970.868 212.054 969.77 211.478 968.456 211.478C965.99 211.478 964.19 213.494 964.19 216.338C964.19 219.2 965.99 221.216 968.456 221.216C969.77 221.216 970.868 220.64 971.606 219.668V221H974.234V208.418H971.606ZM969.23 219.002C967.772 219.002 966.746 217.904 966.746 216.338C966.746 214.79 967.772 213.692 969.23 213.692C970.616 213.692 971.606 214.79 971.606 216.338C971.606 217.904 970.616 219.002 969.23 219.002ZM981.02 219.182C979.742 219.182 978.878 218.3 978.644 217.04H985.646C985.646 213.584 983.882 211.478 980.966 211.478C978.248 211.478 976.142 213.512 976.142 216.32C976.142 219.182 978.338 221.216 981.11 221.216C982.478 221.216 984.08 220.64 984.908 219.776L983.432 218.264C982.838 218.804 981.884 219.182 981.02 219.182ZM981.002 213.512C982.172 213.512 982.91 214.322 983.126 215.474H978.662C978.95 214.286 979.832 213.512 981.002 213.512ZM990.052 213.44V211.694H987.424V221H990.052V216.554C990.052 214.808 991.294 213.692 993.238 213.692V211.478C991.816 211.478 990.664 212.234 990.052 213.44ZM1002.69 213.44V211.694H1000.06V221H1002.69V216.554C1002.69 214.808 1003.93 213.692 1005.88 213.692V211.478C1004.45 211.478 1003.3 212.234 1002.69 213.44ZM1012.06 219.182C1010.79 219.182 1009.92 218.3 1009.69 217.04H1016.69C1016.69 213.584 1014.93 211.478 1012.01 211.478C1009.29 211.478 1007.19 213.512 1007.19 216.32C1007.19 219.182 1009.38 221.216 1012.15 221.216C1013.52 221.216 1015.12 220.64 1015.95 219.776L1014.48 218.264C1013.88 218.804 1012.93 219.182 1012.06 219.182ZM1012.05 213.512C1013.22 213.512 1013.95 214.322 1014.17 215.474H1009.71C1009.99 214.286 1010.88 213.512 1012.05 213.512ZM1024.23 211.478C1022.91 211.478 1021.83 212.054 1021.1 213.026V211.694H1018.47V224.096H1021.1V219.668C1021.83 220.64 1022.91 221.216 1024.23 221.216C1026.71 221.216 1028.51 219.2 1028.51 216.338C1028.51 213.494 1026.71 211.478 1024.23 211.478ZM1023.47 219.002C1022.09 219.002 1021.1 217.904 1021.1 216.338C1021.1 214.79 1022.09 213.692 1023.47 213.692C1024.93 213.692 1025.96 214.79 1025.96 216.338C1025.96 217.904 1024.93 219.002 1023.47 219.002ZM1034.87 221.216C1037.66 221.216 1039.94 219.02 1039.94 216.338C1039.94 213.656 1037.66 211.478 1034.87 211.478C1032.08 211.478 1029.79 213.656 1029.79 216.338C1029.79 219.02 1032.08 221.216 1034.87 221.216ZM1034.87 219.002C1033.46 219.002 1032.31 217.796 1032.31 216.338C1032.31 214.88 1033.46 213.692 1034.87 213.692C1036.27 213.692 1037.4 214.88 1037.4 216.338C1037.4 217.796 1036.27 219.002 1034.87 219.002ZM1044.42 213.44V211.694H1041.79V221H1044.42V216.554C1044.42 214.808 1045.66 213.692 1047.61 213.692V211.478C1046.19 211.478 1045.03 212.234 1044.42 213.44ZM1054.26 218.696C1054.08 218.876 1053.72 219.002 1053.36 219.002C1052.88 219.002 1052.5 218.57 1052.5 217.958V213.818H1054.51V211.694H1052.5V209.138H1049.96V211.694H1048.68V213.818H1049.96V218.372C1049.96 220.046 1051.11 221.216 1052.77 221.216C1053.51 221.216 1054.35 220.892 1054.89 220.406L1054.26 218.696ZM1057.93 210.416C1058.7 210.416 1059.33 209.768 1059.33 208.976C1059.33 208.238 1058.7 207.572 1057.93 207.572C1057.12 207.572 1056.49 208.238 1056.49 208.976C1056.49 209.768 1057.12 210.416 1057.93 210.416ZM1056.59 221H1059.22V211.694H1056.59V221ZM1067.18 211.478C1065.97 211.478 1064.95 212 1064.37 212.828V211.694H1061.74V221H1064.37V215.492C1064.37 214.484 1065.22 213.692 1066.32 213.692C1067.36 213.692 1068.1 214.484 1068.1 215.636V221H1070.62V215.078C1070.62 212.954 1069.2 211.478 1067.18 211.478ZM1079.53 211.694V212.954C1078.9 212.072 1077.69 211.478 1076.45 211.478C1074.09 211.478 1072.31 213.296 1072.31 215.888C1072.31 218.48 1074.09 220.316 1076.45 220.316C1077.69 220.316 1078.79 219.776 1079.53 218.858V219.902C1079.53 221.108 1078.45 221.882 1076.76 221.882C1075.68 221.882 1074.58 221.54 1073.97 221L1073.05 222.854C1073.99 223.574 1075.52 224.096 1077.15 224.096C1080.09 224.096 1082.16 222.404 1082.16 220.01V211.694H1079.53ZM1077.28 218.102C1075.97 218.102 1075.03 217.184 1075.03 215.888C1075.03 214.592 1075.97 213.692 1077.28 213.692C1078.59 213.692 1079.53 214.592 1079.53 215.888C1079.53 217.184 1078.59 218.102 1077.28 218.102ZM1093.98 221.216C1095.55 221.216 1096.81 220.586 1097.72 219.578L1095.98 218.102C1095.49 218.642 1094.74 219.002 1094.02 219.002C1092.63 219.002 1091.48 217.778 1091.48 216.32C1091.48 214.898 1092.63 213.692 1094 213.692C1094.72 213.692 1095.46 214.034 1095.92 214.556L1097.67 213.062C1096.77 212.09 1095.51 211.478 1094.02 211.478C1091.26 211.478 1088.92 213.692 1088.92 216.338C1088.92 218.984 1091.24 221.216 1093.98 221.216ZM1099.34 221H1101.97V208.418H1099.34V221ZM1110.56 211.694V217.202C1110.56 218.21 1109.71 219.002 1108.62 219.002C1107.57 219.002 1106.83 218.21 1106.83 217.058V211.694H1104.31V217.616C1104.31 219.74 1105.74 221.216 1107.77 221.216C1108.96 221.216 1109.98 220.694 1110.56 219.866V221H1113.19V211.694H1110.56ZM1119.11 221.216C1121.4 221.216 1122.91 220.046 1122.91 218.21C1122.91 216.176 1121.11 215.636 1119.51 215.222C1118.25 214.88 1117.73 214.736 1117.73 214.232C1117.73 213.71 1118.27 213.368 1118.99 213.368C1119.83 213.368 1120.84 213.782 1121.69 214.322L1122.64 212.63C1121.61 211.946 1120.3 211.478 1118.99 211.478C1116.77 211.478 1115.35 212.738 1115.35 214.502C1115.35 216.338 1116.83 216.86 1118.73 217.328C1119.76 217.58 1120.52 217.832 1120.52 218.426C1120.52 218.966 1120.05 219.29 1119.17 219.29C1118.16 219.29 1116.93 218.84 1115.98 218.156L1114.92 219.812C1116.03 220.712 1117.62 221.216 1119.11 221.216ZM1129.5 218.696C1129.32 218.876 1128.96 219.002 1128.6 219.002C1128.11 219.002 1127.73 218.57 1127.73 217.958V213.818H1129.75V211.694H1127.73V209.138H1125.19V211.694H1123.92V213.818H1125.19V218.372C1125.19 220.046 1126.35 221.216 1128 221.216C1128.74 221.216 1129.59 220.892 1130.13 220.406L1129.5 218.696ZM1136.09 219.182C1134.82 219.182 1133.95 218.3 1133.72 217.04H1140.72C1140.72 213.584 1138.96 211.478 1136.04 211.478C1133.32 211.478 1131.22 213.512 1131.22 216.32C1131.22 219.182 1133.41 221.216 1136.18 221.216C1137.55 221.216 1139.15 220.64 1139.98 219.776L1138.51 218.264C1137.91 218.804 1136.96 219.182 1136.09 219.182ZM1136.08 213.512C1137.25 213.512 1137.98 214.322 1138.2 215.474H1133.74C1134.02 214.286 1134.91 213.512 1136.08 213.512ZM1145.13 213.44V211.694H1142.5V221H1145.13V216.554C1145.13 214.808 1146.37 213.692 1148.31 213.692V211.478C1146.89 211.478 1145.74 212.234 1145.13 213.44ZM1153.63 221.216C1155.92 221.216 1157.43 220.046 1157.43 218.21C1157.43 216.176 1155.63 215.636 1154.03 215.222C1152.77 214.88 1152.25 214.736 1152.25 214.232C1152.25 213.71 1152.79 213.368 1153.51 213.368C1154.35 213.368 1155.36 213.782 1156.21 214.322L1157.16 212.63C1156.14 211.946 1154.82 211.478 1153.51 211.478C1151.29 211.478 1149.87 212.738 1149.87 214.502C1149.87 216.338 1151.35 216.86 1153.26 217.328C1154.28 217.58 1155.04 217.832 1155.04 218.426C1155.04 218.966 1154.57 219.29 1153.69 219.29C1152.68 219.29 1151.46 218.84 1150.5 218.156L1149.44 219.812C1150.56 220.712 1152.14 221.216 1153.63 221.216Z" fill="white"/>
<path d="M950.168 266.04L950.78 265.38C949.496 264.072 948.824 262.704 948.824 260.82C948.824 258.924 949.496 257.568 950.78 256.248L950.168 255.6C948.524 256.908 947.6 258.72 947.6 260.82C947.6 262.908 948.524 264.732 950.168 266.04ZM954.126 264H955.338V256.884H958.038V255.756H951.414V256.884H954.126V264ZM962.507 257.652C961.655 257.652 960.887 258.084 960.527 258.708V255.612H959.339V264H960.527V260.148C960.527 259.332 961.295 258.684 962.243 258.684C963.083 258.684 963.671 259.32 963.671 260.256V264H964.823V260.052C964.823 258.624 963.875 257.652 962.507 257.652ZM969.34 263.16C968.236 263.16 967.468 262.368 967.324 261.276H972.28C972.28 259.068 971.176 257.652 969.28 257.652C967.564 257.652 966.16 259.02 966.16 260.88C966.16 262.788 967.648 264.144 969.364 264.144C970.24 264.144 971.332 263.772 971.872 263.184L971.176 262.452C970.792 262.86 970.012 263.16 969.34 263.16ZM969.304 258.636C970.384 258.636 971.008 259.404 971.128 260.4H967.336C967.516 259.332 968.308 258.636 969.304 258.636ZM980.132 257.652C979.28 257.652 978.512 258.084 978.152 258.708V257.796H976.964V264H978.152V260.148C978.152 259.332 978.92 258.684 979.868 258.684C980.708 258.684 981.296 259.32 981.296 260.256V264H982.448V260.052C982.448 258.624 981.5 257.652 980.132 257.652ZM987.025 264.144C988.813 264.144 990.289 262.68 990.289 260.892C990.289 259.104 988.813 257.652 987.025 257.652C985.237 257.652 983.761 259.104 983.761 260.892C983.761 262.68 985.237 264.144 987.025 264.144ZM987.025 263.112C985.885 263.112 984.949 262.116 984.949 260.892C984.949 259.668 985.885 258.684 987.025 258.684C988.165 258.684 989.101 259.668 989.101 260.892C989.101 262.116 988.165 263.112 987.025 263.112ZM992.918 259.008V257.796H991.73V264H992.918V260.7C992.918 259.5 993.854 258.684 995.222 258.684V257.652C994.142 257.652 993.302 258.18 992.918 259.008ZM1003.56 257.652C1002.59 257.652 1001.84 258.252 1001.64 259.128C1001.33 258.228 1000.55 257.652 999.569 257.652C998.765 257.652 998.117 258.048 997.805 258.684V257.796H996.617V264H997.805V260.124C997.805 259.272 998.429 258.684 999.329 258.684C1000.1 258.684 1000.64 259.32 1000.64 260.232V264H1001.8V260.124C1001.8 259.272 1002.44 258.684 1003.32 258.684C1004.09 258.684 1004.64 259.32 1004.64 260.232V264H1005.8V260.052C1005.8 258.648 1004.86 257.652 1003.56 257.652ZM1009.96 257.652C1009.28 257.652 1008.5 257.832 1007.61 258.276L1008.05 259.152C1008.59 258.876 1009.18 258.636 1009.79 258.636C1011.03 258.636 1011.39 259.464 1011.39 260.244V260.436C1010.79 260.232 1010.13 260.1 1009.52 260.1C1008.15 260.1 1007.03 260.928 1007.03 262.164C1007.03 263.376 1008.02 264.144 1009.32 264.144C1010.09 264.144 1010.93 263.796 1011.39 263.16V264H1012.55V260.244C1012.55 258.708 1011.63 257.652 1009.96 257.652ZM1009.56 263.208C1008.77 263.208 1008.17 262.8 1008.17 262.128C1008.17 261.456 1008.87 260.988 1009.7 260.988C1010.31 260.988 1010.87 261.072 1011.39 261.228V262.056C1011.18 262.824 1010.33 263.208 1009.56 263.208ZM1014.37 264H1015.56V255.612H1014.37V264ZM1018.1 256.764C1018.5 256.764 1018.81 256.428 1018.81 256.044C1018.81 255.672 1018.5 255.336 1018.1 255.336C1017.7 255.336 1017.38 255.672 1017.38 256.044C1017.38 256.428 1017.7 256.764 1018.1 256.764ZM1017.5 264H1018.69V257.796H1017.5V264ZM1020.06 264H1025.14V262.932H1021.62L1025.1 258.684L1025.12 257.796H1020.14V258.864H1023.54L1020.06 263.112V264ZM1029.23 263.16C1028.13 263.16 1027.36 262.368 1027.22 261.276H1032.17C1032.17 259.068 1031.07 257.652 1029.17 257.652C1027.46 257.652 1026.05 259.02 1026.05 260.88C1026.05 262.788 1027.54 264.144 1029.26 264.144C1030.13 264.144 1031.23 263.772 1031.77 263.184L1031.07 262.452C1030.69 262.86 1029.91 263.16 1029.23 263.16ZM1029.2 258.636C1030.28 258.636 1030.9 259.404 1031.02 260.4H1027.23C1027.41 259.332 1028.2 258.636 1029.2 258.636ZM1038.17 255.612V258.852C1037.69 258.108 1036.93 257.652 1035.98 257.652C1034.33 257.652 1033.12 258.996 1033.12 260.892C1033.12 262.8 1034.33 264.144 1035.98 264.144C1036.93 264.144 1037.69 263.688 1038.17 262.944V264H1039.36V255.612H1038.17ZM1036.25 263.112C1035.13 263.112 1034.32 262.188 1034.32 260.892C1034.32 259.596 1035.13 258.684 1036.25 258.684C1037.38 258.684 1038.17 259.596 1038.17 260.892C1038.17 262.188 1037.38 263.112 1036.25 263.112ZM1047.35 264.144C1048.28 264.144 1049.08 263.76 1049.68 263.148L1048.88 262.416C1048.48 262.848 1047.93 263.112 1047.35 263.112C1046.23 263.112 1045.28 262.104 1045.28 260.892C1045.28 259.692 1046.23 258.684 1047.35 258.684C1047.92 258.684 1048.46 258.936 1048.84 259.356L1049.65 258.612C1049.05 258.024 1048.25 257.652 1047.35 257.652C1045.59 257.652 1044.08 259.128 1044.08 260.892C1044.08 262.656 1045.58 264.144 1047.35 264.144ZM1053.68 264.144C1055.47 264.144 1056.95 262.68 1056.95 260.892C1056.95 259.104 1055.47 257.652 1053.68 257.652C1051.89 257.652 1050.42 259.104 1050.42 260.892C1050.42 262.68 1051.89 264.144 1053.68 264.144ZM1053.68 263.112C1052.54 263.112 1051.61 262.116 1051.61 260.892C1051.61 259.668 1052.54 258.684 1053.68 258.684C1054.82 258.684 1055.76 259.668 1055.76 260.892C1055.76 262.116 1054.82 263.112 1053.68 263.112ZM1062.55 257.796V261.648C1062.55 262.464 1061.79 263.112 1060.85 263.112C1060.01 263.112 1059.42 262.476 1059.42 261.54V257.796H1058.25V261.744C1058.25 263.172 1059.2 264.144 1060.57 264.144C1061.42 264.144 1062.18 263.724 1062.55 263.112V264H1063.74V257.796H1062.55ZM1068.87 257.652C1068.01 257.652 1067.25 258.084 1066.89 258.708V257.796H1065.7V264H1066.89V260.148C1066.89 259.332 1067.65 258.684 1068.6 258.684C1069.44 258.684 1070.03 259.32 1070.03 260.256V264H1071.18V260.052C1071.18 258.624 1070.23 257.652 1068.87 257.652ZM1075.65 262.884C1075.53 263.016 1075.29 263.112 1075.03 263.112C1074.68 263.112 1074.38 262.8 1074.38 262.368V258.804H1075.84V257.796H1074.38V256.092H1073.22V257.796H1072.29V258.804H1073.22V262.452C1073.22 263.448 1073.89 264.144 1074.85 264.144C1075.29 264.144 1075.76 263.976 1076.1 263.7L1075.65 262.884ZM1083.39 264.144C1085.18 264.144 1086.65 262.68 1086.65 260.892C1086.65 259.104 1085.18 257.652 1083.39 257.652C1081.6 257.652 1080.12 259.104 1080.12 260.892C1080.12 262.68 1081.6 264.144 1083.39 264.144ZM1083.39 263.112C1082.25 263.112 1081.31 262.116 1081.31 260.892C1081.31 259.668 1082.25 258.684 1083.39 258.684C1084.53 258.684 1085.46 259.668 1085.46 260.892C1085.46 262.116 1084.53 263.112 1083.39 263.112ZM1089.51 257.112C1089.51 256.68 1089.8 256.368 1090.15 256.368C1090.41 256.368 1090.65 256.464 1090.78 256.596L1091.21 255.804C1090.88 255.528 1090.42 255.36 1089.98 255.36C1089.02 255.36 1088.35 256.056 1088.35 257.052V257.796H1087.41V258.804H1088.35V264H1089.51V258.804H1090.97V257.796H1089.51V257.112ZM1099.56 257.796V261.648C1099.56 262.464 1098.8 263.112 1097.85 263.112C1097.01 263.112 1096.43 262.476 1096.43 261.54V257.796H1095.26V261.744C1095.26 263.172 1096.21 264.144 1097.58 264.144C1098.43 264.144 1099.19 263.724 1099.56 263.112V264H1100.75V257.796H1099.56ZM1105.87 257.652C1105.02 257.652 1104.25 258.084 1103.89 258.708V257.796H1102.71V264H1103.89V260.148C1103.89 259.332 1104.66 258.684 1105.61 258.684C1106.45 258.684 1107.04 259.32 1107.04 260.256V264H1108.19V260.052C1108.19 258.624 1107.24 257.652 1105.87 257.652ZM1110.61 256.764C1111 256.764 1111.32 256.428 1111.32 256.044C1111.32 255.672 1111 255.336 1110.61 255.336C1110.21 255.336 1109.89 255.672 1109.89 256.044C1109.89 256.428 1110.21 256.764 1110.61 256.764ZM1110.01 264H1111.2V257.796H1110.01V264ZM1117.78 257.796V258.912C1117.31 258.132 1116.52 257.652 1115.55 257.652C1113.9 257.652 1112.69 258.996 1112.69 260.892C1112.69 262.8 1113.9 264.144 1115.55 264.144C1116.52 264.144 1117.31 263.664 1117.78 262.884V266.064H1118.96V257.796H1117.78ZM1115.82 263.112C1114.7 263.112 1113.89 262.188 1113.89 260.892C1113.89 259.596 1114.7 258.684 1115.82 258.684C1116.95 258.684 1117.74 259.596 1117.74 260.892C1117.74 262.188 1116.95 263.112 1115.82 263.112ZM1125.08 257.796V261.648C1125.08 262.464 1124.33 263.112 1123.38 263.112C1122.54 263.112 1121.95 262.476 1121.95 261.54V257.796H1120.79V261.744C1120.79 263.172 1121.73 264.144 1123.1 264.144C1123.95 264.144 1124.71 263.724 1125.08 263.112V264H1126.27V257.796H1125.08ZM1130.93 263.16C1129.83 263.16 1129.06 262.368 1128.91 261.276H1133.87C1133.87 259.068 1132.77 257.652 1130.87 257.652C1129.15 257.652 1127.75 259.02 1127.75 260.88C1127.75 262.788 1129.24 264.144 1130.95 264.144C1131.83 264.144 1132.92 263.772 1133.46 263.184L1132.77 262.452C1132.38 262.86 1131.6 263.16 1130.93 263.16ZM1130.89 258.636C1131.97 258.636 1132.6 259.404 1132.72 260.4H1128.93C1129.11 259.332 1129.9 258.636 1130.89 258.636ZM949.436 279.872V272.756H948.224V281H953.804V279.872H949.436ZM955.697 273.764C956.093 273.764 956.405 273.428 956.405 273.044C956.405 272.672 956.093 272.336 955.697 272.336C955.301 272.336 954.977 272.672 954.977 273.044C954.977 273.428 955.301 273.764 955.697 273.764ZM955.097 281H956.285V274.796H955.097V281ZM961.394 274.652C960.542 274.652 959.774 275.084 959.414 275.708V274.796H958.226V281H959.414V277.148C959.414 276.332 960.182 275.684 961.13 275.684C961.97 275.684 962.558 276.32 962.558 277.256V281H963.71V277.052C963.71 275.624 962.762 274.652 961.394 274.652ZM965.527 281H966.715V279.404L967.711 278.396L969.655 281H971.071L968.515 277.604L971.191 274.796H969.751L966.715 277.976V272.612H965.527V281ZM974.988 280.16C973.884 280.16 973.116 279.368 972.972 278.276H977.928C977.928 276.068 976.824 274.652 974.928 274.652C973.212 274.652 971.808 276.02 971.808 277.88C971.808 279.788 973.296 281.144 975.012 281.144C975.888 281.144 976.98 280.772 977.52 280.184L976.824 279.452C976.44 279.86 975.66 280.16 974.988 280.16ZM974.952 275.636C976.032 275.636 976.656 276.404 976.776 277.4H972.984C973.164 276.332 973.956 275.636 974.952 275.636ZM980.508 276.008V274.796H979.32V281H980.508V277.7C980.508 276.5 981.444 275.684 982.812 275.684V274.652C981.732 274.652 980.892 275.18 980.508 276.008ZM988.814 272.612V275.852C988.334 275.108 987.566 274.652 986.618 274.652C984.974 274.652 983.762 275.996 983.762 277.892C983.762 279.8 984.974 281.144 986.618 281.144C987.566 281.144 988.334 280.688 988.814 279.944V281H990.002V272.612H988.814ZM986.894 280.112C985.766 280.112 984.962 279.188 984.962 277.892C984.962 276.596 985.766 275.684 986.894 275.684C988.022 275.684 988.814 276.596 988.814 277.892C988.814 279.188 988.022 280.112 986.894 280.112ZM991.941 278.264H995.109V277.184H991.941V278.264ZM999.738 280.16C998.634 280.16 997.866 279.368 997.722 278.276H1002.68C1002.68 276.068 1001.57 274.652 999.678 274.652C997.962 274.652 996.558 276.02 996.558 277.88C996.558 279.788 998.046 281.144 999.762 281.144C1000.64 281.144 1001.73 280.772 1002.27 280.184L1001.57 279.452C1001.19 279.86 1000.41 280.16 999.738 280.16ZM999.702 275.636C1000.78 275.636 1001.41 276.404 1001.53 277.4H997.734C997.914 276.332 998.706 275.636 999.702 275.636ZM1007.24 274.652C1006.39 274.652 1005.62 275.084 1005.26 275.708V274.796H1004.07V281H1005.26V277.148C1005.26 276.332 1006.03 275.684 1006.97 275.684C1007.81 275.684 1008.4 276.32 1008.4 277.256V281H1009.55V277.052C1009.55 275.624 1008.61 274.652 1007.24 274.652ZM1013.72 274.652C1013.04 274.652 1012.26 274.832 1011.37 275.276L1011.81 276.152C1012.35 275.876 1012.94 275.636 1013.55 275.636C1014.79 275.636 1015.15 276.464 1015.15 277.244V277.436C1014.55 277.232 1013.89 277.1 1013.28 277.1C1011.91 277.1 1010.79 277.928 1010.79 279.164C1010.79 280.376 1011.78 281.144 1013.09 281.144C1013.85 281.144 1014.69 280.796 1015.15 280.16V281H1016.31V277.244C1016.31 275.708 1015.39 274.652 1013.72 274.652ZM1013.33 280.208C1012.53 280.208 1011.93 279.8 1011.93 279.128C1011.93 278.456 1012.63 277.988 1013.46 277.988C1014.07 277.988 1014.63 278.072 1015.15 278.228V279.056C1014.95 279.824 1014.09 280.208 1013.33 280.208ZM1021.55 274.652C1020.58 274.652 1019.8 275.12 1019.32 275.9V272.612H1018.13V281H1019.32V279.896C1019.8 280.676 1020.58 281.144 1021.55 281.144C1023.18 281.144 1024.4 279.8 1024.4 277.892C1024.4 275.996 1023.18 274.652 1021.55 274.652ZM1021.26 280.112C1020.14 280.112 1019.34 279.188 1019.34 277.892C1019.34 276.596 1020.14 275.684 1021.26 275.684C1022.39 275.684 1023.2 276.596 1023.2 277.892C1023.2 279.188 1022.39 280.112 1021.26 280.112ZM1025.9 281H1027.09V272.612H1025.9V281ZM1031.73 280.16C1030.63 280.16 1029.86 279.368 1029.71 278.276H1034.67C1034.67 276.068 1033.57 274.652 1031.67 274.652C1029.95 274.652 1028.55 276.02 1028.55 277.88C1028.55 279.788 1030.04 281.144 1031.75 281.144C1032.63 281.144 1033.72 280.772 1034.26 280.184L1033.57 279.452C1033.18 279.86 1032.4 280.16 1031.73 280.16ZM1031.69 275.636C1032.77 275.636 1033.4 276.404 1033.52 277.4H1029.73C1029.91 276.332 1030.7 275.636 1031.69 275.636ZM1040.67 272.612V275.852C1040.19 275.108 1039.42 274.652 1038.47 274.652C1036.83 274.652 1035.62 275.996 1035.62 277.892C1035.62 279.8 1036.83 281.144 1038.47 281.144C1039.42 281.144 1040.19 280.688 1040.67 279.944V281H1041.86V272.612H1040.67ZM1038.75 280.112C1037.62 280.112 1036.82 279.188 1036.82 277.892C1036.82 276.596 1037.62 275.684 1038.75 275.684C1039.88 275.684 1040.67 276.596 1040.67 277.892C1040.67 279.188 1039.88 280.112 1038.75 280.112ZM1049.85 281.144C1050.77 281.144 1051.58 280.76 1052.18 280.148L1051.37 279.416C1050.98 279.848 1050.43 280.112 1049.85 280.112C1048.72 280.112 1047.77 279.104 1047.77 277.892C1047.77 276.692 1048.72 275.684 1049.85 275.684C1050.41 275.684 1050.95 275.936 1051.34 276.356L1052.14 275.612C1051.54 275.024 1050.75 274.652 1049.85 274.652C1048.09 274.652 1046.57 276.128 1046.57 277.892C1046.57 279.656 1048.07 281.144 1049.85 281.144ZM1053.42 281H1054.61V272.612H1053.42V281ZM1060.71 274.796V278.648C1060.71 279.464 1059.95 280.112 1059.01 280.112C1058.17 280.112 1057.58 279.476 1057.58 278.54V274.796H1056.41V278.744C1056.41 280.172 1057.36 281.144 1058.73 281.144C1059.58 281.144 1060.34 280.724 1060.71 280.112V281H1061.9V274.796H1060.71ZM1065.9 281.144C1067.27 281.144 1068.25 280.4 1068.25 279.224C1068.25 277.988 1067.17 277.652 1066.15 277.352C1065.09 277.028 1064.67 276.884 1064.67 276.404C1064.67 275.888 1065.18 275.612 1065.8 275.612C1066.37 275.612 1066.99 275.828 1067.6 276.212L1068.09 275.372C1067.43 274.928 1066.61 274.652 1065.8 274.652C1064.49 274.652 1063.55 275.396 1063.55 276.536C1063.55 277.544 1064.27 277.952 1065.68 278.348C1066.47 278.564 1067.12 278.756 1067.12 279.344C1067.12 279.848 1066.65 280.184 1065.91 280.184C1065.23 280.184 1064.48 279.908 1063.8 279.404L1063.26 280.22C1064 280.82 1064.99 281.144 1065.9 281.144ZM1072.35 279.884C1072.23 280.016 1071.99 280.112 1071.72 280.112C1071.37 280.112 1071.07 279.8 1071.07 279.368V275.804H1072.54V274.796H1071.07V273.092H1069.91V274.796H1068.99V275.804H1069.91V279.452C1069.91 280.448 1070.58 281.144 1071.54 281.144C1071.99 281.144 1072.45 280.976 1072.79 280.7L1072.35 279.884ZM1076.73 280.16C1075.63 280.16 1074.86 279.368 1074.71 278.276H1079.67C1079.67 276.068 1078.57 274.652 1076.67 274.652C1074.95 274.652 1073.55 276.02 1073.55 277.88C1073.55 279.788 1075.04 281.144 1076.75 281.144C1077.63 281.144 1078.72 280.772 1079.26 280.184L1078.57 279.452C1078.18 279.86 1077.4 280.16 1076.73 280.16ZM1076.69 275.636C1077.77 275.636 1078.4 276.404 1078.52 277.4H1074.73C1074.91 276.332 1075.7 275.636 1076.69 275.636ZM1082.25 276.008V274.796H1081.06V281H1082.25V277.7C1082.25 276.5 1083.19 275.684 1084.55 275.684V274.652C1083.47 274.652 1082.63 275.18 1082.25 276.008ZM1087.99 281.144C1089.36 281.144 1090.34 280.4 1090.34 279.224C1090.34 277.988 1089.26 277.652 1088.24 277.352C1087.18 277.028 1086.76 276.884 1086.76 276.404C1086.76 275.888 1087.27 275.612 1087.89 275.612C1088.46 275.612 1089.08 275.828 1089.69 276.212L1090.18 275.372C1089.52 274.928 1088.7 274.652 1087.89 274.652C1086.58 274.652 1085.64 275.396 1085.64 276.536C1085.64 277.544 1086.36 277.952 1087.77 278.348C1088.56 278.564 1089.21 278.756 1089.21 279.344C1089.21 279.848 1088.74 280.184 1088 280.184C1087.32 280.184 1086.57 279.908 1085.89 279.404L1085.35 280.22C1086.09 280.82 1087.08 281.144 1087.99 281.144ZM1095.68 273.764C1096.07 273.764 1096.39 273.428 1096.39 273.044C1096.39 272.672 1096.07 272.336 1095.68 272.336C1095.28 272.336 1094.96 272.672 1094.96 273.044C1094.96 273.428 1095.28 273.764 1095.68 273.764ZM1095.08 281H1096.27V274.796H1095.08V281ZM1101.37 274.652C1100.52 274.652 1099.75 275.084 1099.39 275.708V274.796H1098.21V281H1099.39V277.148C1099.39 276.332 1100.16 275.684 1101.11 275.684C1101.95 275.684 1102.54 276.32 1102.54 277.256V281H1103.69V277.052C1103.69 275.624 1102.74 274.652 1101.37 274.652ZM1111.45 279.884C1111.33 280.016 1111.09 280.112 1110.83 280.112C1110.48 280.112 1110.18 279.8 1110.18 279.368V275.804H1111.64V274.796H1110.18V273.092H1109.02V274.796H1108.09V275.804H1109.02V279.452C1109.02 280.448 1109.69 281.144 1110.65 281.144C1111.09 281.144 1111.56 280.976 1111.9 280.7L1111.45 279.884ZM1116.3 274.652C1115.45 274.652 1114.68 275.084 1114.32 275.708V272.612H1113.14V281H1114.32V277.148C1114.32 276.332 1115.09 275.684 1116.04 275.684C1116.88 275.684 1117.47 276.32 1117.47 277.256V281H1118.62V277.052C1118.62 275.624 1117.67 274.652 1116.3 274.652ZM1123.14 280.16C1122.03 280.16 1121.26 279.368 1121.12 278.276H1126.08C1126.08 276.068 1124.97 274.652 1123.08 274.652C1121.36 274.652 1119.96 276.02 1119.96 277.88C1119.96 279.788 1121.44 281.144 1123.16 281.144C1124.04 281.144 1125.13 280.772 1125.67 280.184L1124.97 279.452C1124.59 279.86 1123.81 280.16 1123.14 280.16ZM1123.1 275.636C1124.18 275.636 1124.8 276.404 1124.92 277.4H1121.13C1121.31 276.332 1122.1 275.636 1123.1 275.636ZM1132.18 274.112C1132.18 273.68 1132.47 273.368 1132.81 273.368C1133.08 273.368 1133.32 273.464 1133.45 273.596L1133.88 272.804C1133.55 272.528 1133.09 272.36 1132.65 272.36C1131.69 272.36 1131.01 273.056 1131.01 274.052V274.796H1130.08V275.804H1131.01V281H1132.18V275.804H1133.64V274.796H1132.18V274.112ZM1138.93 274.796V278.648C1138.93 279.464 1138.18 280.112 1137.23 280.112C1136.39 280.112 1135.8 279.476 1135.8 278.54V274.796H1134.64V278.744C1134.64 280.172 1135.58 281.144 1136.95 281.144C1137.8 281.144 1138.56 280.724 1138.93 280.112V281H1140.12V274.796H1138.93ZM1142.08 281H1143.27V272.612H1142.08V281ZM1145.21 281H1146.4V272.612H1145.21V281ZM950.732 298.144C952.52 298.144 953.996 296.68 953.996 294.892C953.996 293.104 952.52 291.652 950.732 291.652C948.944 291.652 947.468 293.104 947.468 294.892C947.468 296.68 948.944 298.144 950.732 298.144ZM950.732 297.112C949.592 297.112 948.656 296.116 948.656 294.892C948.656 293.668 949.592 292.684 950.732 292.684C951.872 292.684 952.808 293.668 952.808 294.892C952.808 296.116 951.872 297.112 950.732 297.112ZM958.821 291.652C957.873 291.652 957.105 292.108 956.625 292.852V291.796H955.437V300.064H956.625V296.932C957.105 297.688 957.873 298.144 958.821 298.144C960.465 298.144 961.677 296.8 961.677 294.892C961.677 292.996 960.465 291.652 958.821 291.652ZM958.545 297.112C957.417 297.112 956.625 296.188 956.625 294.892C956.625 293.596 957.417 292.684 958.545 292.684C959.673 292.684 960.477 293.596 960.477 294.892C960.477 296.188 959.673 297.112 958.545 297.112ZM965.871 297.16C964.767 297.16 963.999 296.368 963.855 295.276H968.811C968.811 293.068 967.707 291.652 965.811 291.652C964.095 291.652 962.691 293.02 962.691 294.88C962.691 296.788 964.179 298.144 965.895 298.144C966.771 298.144 967.863 297.772 968.403 297.184L967.707 296.452C967.323 296.86 966.543 297.16 965.871 297.16ZM965.835 292.636C966.915 292.636 967.539 293.404 967.659 294.4H963.867C964.047 293.332 964.839 292.636 965.835 292.636ZM973.37 291.652C972.518 291.652 971.75 292.084 971.39 292.708V291.796H970.202V298H971.39V294.148C971.39 293.332 972.158 292.684 973.106 292.684C973.946 292.684 974.534 293.32 974.534 294.256V298H975.686V294.052C975.686 292.624 974.738 291.652 973.37 291.652ZM982.836 298.144C984.204 298.144 985.188 297.4 985.188 296.224C985.188 294.988 984.108 294.652 983.088 294.352C982.032 294.028 981.612 293.884 981.612 293.404C981.612 292.888 982.116 292.612 982.74 292.612C983.304 292.612 983.928 292.828 984.54 293.212L985.032 292.372C984.372 291.928 983.544 291.652 982.74 291.652C981.432 291.652 980.484 292.396 980.484 293.536C980.484 294.544 981.204 294.952 982.62 295.348C983.412 295.564 984.06 295.756 984.06 296.344C984.06 296.848 983.592 297.184 982.848 297.184C982.164 297.184 981.42 296.908 980.736 296.404L980.196 297.22C980.94 297.82 981.924 298.144 982.836 298.144ZM989.392 298.144C991.18 298.144 992.656 296.68 992.656 294.892C992.656 293.104 991.18 291.652 989.392 291.652C987.604 291.652 986.128 293.104 986.128 294.892C986.128 296.68 987.604 298.144 989.392 298.144ZM989.392 297.112C988.252 297.112 987.316 296.116 987.316 294.892C987.316 293.668 988.252 292.684 989.392 292.684C990.532 292.684 991.468 293.668 991.468 294.892C991.468 296.116 990.532 297.112 989.392 297.112ZM998.261 291.796V295.648C998.261 296.464 997.505 297.112 996.557 297.112C995.717 297.112 995.129 296.476 995.129 295.54V291.796H993.965V295.744C993.965 297.172 994.913 298.144 996.281 298.144C997.133 298.144 997.889 297.724 998.261 297.112V298H999.449V291.796H998.261ZM1002.6 293.008V291.796H1001.41V298H1002.6V294.7C1002.6 293.5 1003.53 292.684 1004.9 292.684V291.652C1003.82 291.652 1002.98 292.18 1002.6 293.008ZM1009.06 298.144C1009.98 298.144 1010.78 297.76 1011.38 297.148L1010.58 296.416C1010.18 296.848 1009.63 297.112 1009.06 297.112C1007.93 297.112 1006.98 296.104 1006.98 294.892C1006.98 293.692 1007.93 292.684 1009.06 292.684C1009.62 292.684 1010.16 292.936 1010.54 293.356L1011.35 292.612C1010.75 292.024 1009.96 291.652 1009.06 291.652C1007.29 291.652 1005.78 293.128 1005.78 294.892C1005.78 296.656 1007.28 298.144 1009.06 298.144ZM1015.32 297.16C1014.22 297.16 1013.45 296.368 1013.31 295.276H1018.26C1018.26 293.068 1017.16 291.652 1015.26 291.652C1013.55 291.652 1012.14 293.02 1012.14 294.88C1012.14 296.788 1013.63 298.144 1015.35 298.144C1016.22 298.144 1017.32 297.772 1017.86 297.184L1017.16 296.452C1016.78 296.86 1016 297.16 1015.32 297.16ZM1015.29 292.636C1016.37 292.636 1016.99 293.404 1017.11 294.4H1013.32C1013.5 293.332 1014.29 292.636 1015.29 292.636ZM1024.41 296.872V289.756H1023.2V298H1028.78V296.872H1024.41ZM1030.67 290.764C1031.07 290.764 1031.38 290.428 1031.38 290.044C1031.38 289.672 1031.07 289.336 1030.67 289.336C1030.28 289.336 1029.95 289.672 1029.95 290.044C1029.95 290.428 1030.28 290.764 1030.67 290.764ZM1030.07 298H1031.26V291.796H1030.07V298ZM1036.37 291.652C1035.52 291.652 1034.75 292.084 1034.39 292.708V291.796H1033.2V298H1034.39V294.148C1034.39 293.332 1035.16 292.684 1036.11 292.684C1036.95 292.684 1037.53 293.32 1037.53 294.256V298H1038.69V294.052C1038.69 292.624 1037.74 291.652 1036.37 291.652ZM1040.5 298H1041.69V296.404L1042.69 295.396L1044.63 298H1046.05L1043.49 294.604L1046.17 291.796H1044.73L1041.69 294.976V289.612H1040.5V298ZM1049.96 297.16C1048.86 297.16 1048.09 296.368 1047.95 295.276H1052.9C1052.9 293.068 1051.8 291.652 1049.9 291.652C1048.19 291.652 1046.78 293.02 1046.78 294.88C1046.78 296.788 1048.27 298.144 1049.99 298.144C1050.86 298.144 1051.96 297.772 1052.5 297.184L1051.8 296.452C1051.42 296.86 1050.64 297.16 1049.96 297.16ZM1049.93 292.636C1051.01 292.636 1051.63 293.404 1051.75 294.4H1047.96C1048.14 293.332 1048.93 292.636 1049.93 292.636ZM1055.48 293.008V291.796H1054.3V298H1055.48V294.7C1055.48 293.5 1056.42 292.684 1057.79 292.684V291.652C1056.71 291.652 1055.87 292.18 1055.48 293.008ZM1063.79 289.612V292.852C1063.31 292.108 1062.54 291.652 1061.59 291.652C1059.95 291.652 1058.74 292.996 1058.74 294.892C1058.74 296.8 1059.95 298.144 1061.59 298.144C1062.54 298.144 1063.31 297.688 1063.79 296.944V298H1064.98V289.612H1063.79ZM1061.87 297.112C1060.74 297.112 1059.94 296.188 1059.94 294.892C1059.94 293.596 1060.74 292.684 1061.87 292.684C1063 292.684 1063.79 293.596 1063.79 294.892C1063.79 296.188 1063 297.112 1061.87 297.112ZM1072.97 298.144C1073.89 298.144 1074.7 297.76 1075.3 297.148L1074.49 296.416C1074.1 296.848 1073.55 297.112 1072.97 297.112C1071.84 297.112 1070.89 296.104 1070.89 294.892C1070.89 293.692 1071.84 292.684 1072.97 292.684C1073.53 292.684 1074.07 292.936 1074.46 293.356L1075.26 292.612C1074.66 292.024 1073.87 291.652 1072.97 291.652C1071.21 291.652 1069.69 293.128 1069.69 294.892C1069.69 296.656 1071.19 298.144 1072.97 298.144ZM1079.3 298.144C1081.09 298.144 1082.56 296.68 1082.56 294.892C1082.56 293.104 1081.09 291.652 1079.3 291.652C1077.51 291.652 1076.03 293.104 1076.03 294.892C1076.03 296.68 1077.51 298.144 1079.3 298.144ZM1079.3 297.112C1078.16 297.112 1077.22 296.116 1077.22 294.892C1077.22 293.668 1078.16 292.684 1079.3 292.684C1080.44 292.684 1081.37 293.668 1081.37 294.892C1081.37 296.116 1080.44 297.112 1079.3 297.112ZM1090.95 291.652C1089.98 291.652 1089.22 292.252 1089.03 293.128C1088.72 292.228 1087.94 291.652 1086.96 291.652C1086.15 291.652 1085.5 292.048 1085.19 292.684V291.796H1084V298H1085.19V294.124C1085.19 293.272 1085.82 292.684 1086.72 292.684C1087.48 292.684 1088.02 293.32 1088.02 294.232V298H1089.19V294.124C1089.19 293.272 1089.82 292.684 1090.71 292.684C1091.48 292.684 1092.03 293.32 1092.03 294.232V298H1093.18V294.052C1093.18 292.648 1092.25 291.652 1090.95 291.652ZM1101.94 291.652C1100.97 291.652 1100.22 292.252 1100.02 293.128C1099.71 292.228 1098.93 291.652 1097.95 291.652C1097.14 291.652 1096.5 292.048 1096.18 292.684V291.796H1095V298H1096.18V294.124C1096.18 293.272 1096.81 292.684 1097.71 292.684C1098.48 292.684 1099.02 293.32 1099.02 294.232V298H1100.18V294.124C1100.18 293.272 1100.82 292.684 1101.7 292.684C1102.47 292.684 1103.02 293.32 1103.02 294.232V298H1104.18V294.052C1104.18 292.648 1103.24 291.652 1101.94 291.652ZM1110.15 291.796V295.648C1110.15 296.464 1109.4 297.112 1108.45 297.112C1107.61 297.112 1107.02 296.476 1107.02 295.54V291.796H1105.86V295.744C1105.86 297.172 1106.8 298.144 1108.17 298.144C1109.02 298.144 1109.78 297.724 1110.15 297.112V298H1111.34V291.796H1110.15ZM1116.47 291.652C1115.62 291.652 1114.85 292.084 1114.49 292.708V291.796H1113.3V298H1114.49V294.148C1114.49 293.332 1115.26 292.684 1116.2 292.684C1117.04 292.684 1117.63 293.32 1117.63 294.256V298H1118.78V294.052C1118.78 292.624 1117.84 291.652 1116.47 291.652ZM1121.2 290.764C1121.6 290.764 1121.91 290.428 1121.91 290.044C1121.91 289.672 1121.6 289.336 1121.2 289.336C1120.8 289.336 1120.48 289.672 1120.48 290.044C1120.48 290.428 1120.8 290.764 1121.2 290.764ZM1120.6 298H1121.79V291.796H1120.6V298ZM1126.38 296.884C1126.26 297.016 1126.02 297.112 1125.76 297.112C1125.41 297.112 1125.11 296.8 1125.11 296.368V292.804H1126.57V291.796H1125.11V290.092H1123.95V291.796H1123.02V292.804H1123.95V296.452C1123.95 297.448 1124.62 298.144 1125.58 298.144C1126.02 298.144 1126.49 297.976 1126.83 297.7L1126.38 296.884ZM1128.87 300.16C1129.76 300.148 1130.42 299.68 1130.86 298.564L1133.6 291.796H1132.36L1130.48 296.692L1128.49 291.796H1127.21L1129.88 298.036L1129.57 298.696C1129.36 299.056 1129.1 299.176 1128.71 299.176C1128.47 299.176 1128.2 299.116 1127.96 298.984L1127.69 299.896C1128.02 300.064 1128.45 300.16 1128.87 300.16ZM1134.66 300.04C1136.31 298.732 1137.23 296.908 1137.23 294.82C1137.23 292.72 1136.31 290.908 1134.66 289.6L1134.05 290.248C1135.33 291.568 1136.02 292.924 1136.02 294.82C1136.02 296.704 1135.33 298.072 1134.05 299.38L1134.66 300.04ZM1139.82 298.144C1140.25 298.144 1140.6 297.772 1140.6 297.328C1140.6 296.92 1140.25 296.548 1139.82 296.548C1139.36 296.548 1139 296.92 1139 297.328C1139 297.772 1139.36 298.144 1139.82 298.144Z" fill="white"/>
<path d="M961.56 92H975.24V37.04H964.28L946.84 48.72L952.28 58.24L961.56 52.48V92ZM1010.21 92.96C1025.09 92.96 1035.57 81.2 1035.57 64.48C1035.57 47.84 1025.09 36.08 1010.21 36.08C995.406 36.08 984.926 47.84 984.926 64.48C984.926 81.2 995.406 92.96 1010.21 92.96ZM1010.21 80.56C1003.65 80.56 999.006 73.84 999.006 64.48C999.006 55.12 1003.65 48.48 1010.21 48.48C1016.85 48.48 1021.49 55.12 1021.49 64.48C1021.49 73.84 1016.85 80.56 1010.21 80.56ZM1067.86 92.96C1082.74 92.96 1093.22 81.2 1093.22 64.48C1093.22 47.84 1082.74 36.08 1067.86 36.08C1053.06 36.08 1042.58 47.84 1042.58 64.48C1042.58 81.2 1053.06 92.96 1067.86 92.96ZM1067.86 80.56C1061.3 80.56 1056.66 73.84 1056.66 64.48C1056.66 55.12 1061.3 48.48 1067.86 48.48C1074.5 48.48 1079.14 55.12 1079.14 64.48C1079.14 73.84 1074.5 80.56 1067.86 80.56ZM1114.88 64.8C1123.2 64.8 1128.96 58.64 1128.96 50.64C1128.96 42.88 1123.44 36.48 1114.88 36.48C1106.4 36.48 1100.88 42.8 1100.88 50.64C1100.88 58.64 1106.48 64.8 1114.88 64.8ZM1108.24 92H1118.56L1156.96 37.04H1146.64L1108.24 92ZM1114.88 57.04C1111.92 57.04 1109.68 54.56 1109.68 50.64C1109.68 46.64 1111.84 44.24 1114.88 44.24C1117.84 44.24 1120.16 46.72 1120.16 50.64C1120.16 54.64 1117.92 57.04 1114.88 57.04ZM1150.16 92.88C1158.48 92.88 1164.24 86.64 1164.24 78.72C1164.24 70.88 1158.72 64.48 1150.24 64.48C1141.84 64.48 1136.16 70.72 1136.16 78.72C1136.16 86.56 1141.76 92.88 1150.16 92.88ZM1150.24 85.12C1147.2 85.12 1144.96 82.64 1144.96 78.72C1144.96 74.64 1147.12 72.32 1150.16 72.32C1153.12 72.32 1155.44 74.8 1155.44 78.72C1155.44 82.72 1153.2 85.12 1150.24 85.12Z" fill="white"/>
<line x1="947" y1="123.5" x2="1160" y2="123.5" stroke="white"/>
</svg>
