<svg width="327" height="453" viewBox="0 0 327 453" fill="none" xmlns="http://www.w3.org/2000/svg">
<rect y="202.258" width="327" height="250" fill="#5C2CFF"/>
<path d="M25.6993 350.258H27.9343V346.538L31.9543 339.953H29.4793L26.8093 344.468L24.2443 339.953H21.6643L25.6993 346.538V350.258ZM36.9107 348.743C35.8457 348.743 35.1257 348.008 34.9307 346.958H40.7657C40.7657 344.078 39.2957 342.323 36.8657 342.323C34.6007 342.323 32.8457 344.018 32.8457 346.358C32.8457 348.743 34.6757 350.438 36.9857 350.438C38.1257 350.438 39.4607 349.958 40.1507 349.238L38.9207 347.978C38.4257 348.428 37.6307 348.743 36.9107 348.743ZM36.8957 344.018C37.8707 344.018 38.4857 344.693 38.6657 345.653H34.9457C35.1857 344.663 35.9207 344.018 36.8957 344.018ZM45.5173 342.323C44.4373 342.323 43.3723 342.623 42.2773 343.178L43.0123 344.633C43.6273 344.318 44.3023 344.078 45.0223 344.078C46.2973 344.078 46.8223 344.798 46.8223 345.623V345.788C46.1623 345.518 45.4573 345.383 44.8273 345.383C43.0423 345.383 41.6173 346.433 41.6173 347.963C41.6173 349.448 42.8773 350.438 44.5273 350.438C45.3823 350.438 46.2673 350.093 46.8223 349.478V350.258H48.9373V345.623C48.9373 343.598 47.5423 342.323 45.5173 342.323ZM45.0223 348.923C44.2723 348.923 43.7023 348.533 43.7023 347.903C43.7023 347.273 44.3473 346.808 45.1423 346.808C45.7423 346.808 46.3273 346.913 46.8223 347.108V347.813C46.6573 348.533 45.8623 348.923 45.0223 348.923ZM53.0505 343.958V342.503H50.8605V350.258H53.0505V346.553C53.0505 345.098 54.0855 344.168 55.7055 344.168V342.323C54.5205 342.323 53.5605 342.953 53.0505 343.958ZM57.3059 347.063H61.4159V345.203H57.3059V347.063ZM67.2068 350.438C69.5318 350.438 71.4368 348.608 71.4368 346.373C71.4368 344.138 69.5318 342.323 67.2068 342.323C64.8818 342.323 62.9768 344.138 62.9768 346.373C62.9768 348.608 64.8818 350.438 67.2068 350.438ZM67.2068 348.593C66.0368 348.593 65.0768 347.588 65.0768 346.373C65.0768 345.158 66.0368 344.168 67.2068 344.168C68.3768 344.168 69.3218 345.158 69.3218 346.373C69.3218 347.588 68.3768 348.593 67.2068 348.593ZM77.5097 342.323C76.5047 342.323 75.6497 342.758 75.1697 343.448V342.503H72.9797V350.258H75.1697V345.668C75.1697 344.828 75.8747 344.168 76.7897 344.168C77.6597 344.168 78.2747 344.828 78.2747 345.788V350.258H80.3747V345.323C80.3747 343.553 79.1897 342.323 77.5097 342.323ZM82.3254 347.063H86.4354V345.203H82.3254V347.063ZM90.1713 352.958C91.3863 352.958 92.3763 352.163 92.9613 350.648L96.1413 342.503H93.9063L91.9713 347.948L89.9313 342.503H87.6663L90.8913 350.333L90.6213 350.903C90.4563 351.188 90.1263 351.323 89.7063 351.323C89.4513 351.323 89.0613 351.188 88.6863 350.978L88.2213 352.478C88.7463 352.763 89.5263 352.958 90.1713 352.958ZM100.924 348.743C99.8593 348.743 99.1393 348.008 98.9443 346.958H104.779C104.779 344.078 103.309 342.323 100.879 342.323C98.6143 342.323 96.8593 344.018 96.8593 346.358C96.8593 348.743 98.6893 350.438 100.999 350.438C102.139 350.438 103.474 349.958 104.164 349.238L102.934 347.978C102.439 348.428 101.644 348.743 100.924 348.743ZM100.909 344.018C101.884 344.018 102.499 344.693 102.679 345.653H98.9593C99.1993 344.663 99.9343 344.018 100.909 344.018ZM109.531 342.323C108.451 342.323 107.386 342.623 106.291 343.178L107.026 344.633C107.641 344.318 108.316 344.078 109.036 344.078C110.311 344.078 110.836 344.798 110.836 345.623V345.788C110.176 345.518 109.471 345.383 108.841 345.383C107.056 345.383 105.631 346.433 105.631 347.963C105.631 349.448 106.891 350.438 108.541 350.438C109.396 350.438 110.281 350.093 110.836 349.478V350.258H112.951V345.623C112.951 343.598 111.556 342.323 109.531 342.323ZM109.036 348.923C108.286 348.923 107.716 348.533 107.716 347.903C107.716 347.273 108.361 346.808 109.156 346.808C109.756 346.808 110.341 346.913 110.836 347.108V347.813C110.671 348.533 109.876 348.923 109.036 348.923ZM117.064 343.958V342.503H114.874V350.258H117.064V346.553C117.064 345.098 118.099 344.168 119.719 344.168V342.323C118.534 342.323 117.574 342.953 117.064 343.958ZM130.881 342.503V343.553C130.356 342.818 129.351 342.323 128.316 342.323C126.351 342.323 124.866 343.838 124.866 345.998C124.866 348.158 126.351 349.688 128.316 349.688C129.351 349.688 130.266 349.238 130.881 348.473V349.343C130.881 350.348 129.981 350.993 128.571 350.993C127.671 350.993 126.756 350.708 126.246 350.258L125.481 351.803C126.261 352.403 127.536 352.838 128.901 352.838C131.346 352.838 133.071 351.428 133.071 349.433V342.503H130.881ZM129.006 347.843C127.911 347.843 127.131 347.078 127.131 345.998C127.131 344.918 127.911 344.168 129.006 344.168C130.101 344.168 130.881 344.918 130.881 345.998C130.881 347.078 130.101 347.843 129.006 347.843ZM137.367 343.958V342.503H135.177V350.258H137.367V346.553C137.367 345.098 138.402 344.168 140.022 344.168V342.323C138.837 342.323 137.877 342.953 137.367 343.958ZM145.312 350.438C147.637 350.438 149.542 348.608 149.542 346.373C149.542 344.138 147.637 342.323 145.312 342.323C142.987 342.323 141.082 344.138 141.082 346.373C141.082 348.608 142.987 350.438 145.312 350.438ZM145.312 348.593C144.142 348.593 143.182 347.588 143.182 346.373C143.182 345.158 144.142 344.168 145.312 344.168C146.482 344.168 147.427 345.158 147.427 346.373C147.427 347.588 146.482 348.593 145.312 348.593ZM152.9 350.258H154.865L156.32 345.383L157.775 350.258H159.74L162.365 342.503H160.22L158.765 347.333L157.22 342.503H155.405L153.875 347.333L152.405 342.503H150.26L152.9 350.258ZM167.584 348.338C167.434 348.488 167.134 348.593 166.834 348.593C166.429 348.593 166.114 348.233 166.114 347.723V344.273H167.794V342.503H166.114V340.373H163.999V342.503H162.934V344.273H163.999V348.068C163.999 349.463 164.959 350.438 166.339 350.438C166.954 350.438 167.659 350.168 168.109 349.763L167.584 348.338ZM174.058 342.323C173.053 342.323 172.198 342.758 171.718 343.448V339.773H169.528V350.258H171.718V345.668C171.718 344.828 172.423 344.168 173.338 344.168C174.208 344.168 174.823 344.828 174.823 345.788V350.258H176.923V345.323C176.923 343.553 175.738 342.323 174.058 342.323ZM184.07 341.438C184.715 341.438 185.24 340.898 185.24 340.238C185.24 339.623 184.715 339.068 184.07 339.068C183.395 339.068 182.87 339.623 182.87 340.238C182.87 340.898 183.395 341.438 184.07 341.438ZM182.96 350.258H185.15V342.503H182.96V350.258ZM191.782 342.323C190.777 342.323 189.922 342.758 189.442 343.448V342.503H187.252V350.258H189.442V345.668C189.442 344.828 190.147 344.168 191.062 344.168C191.932 344.168 192.547 344.828 192.547 345.788V350.258H194.647V345.323C194.647 343.553 193.462 342.323 191.782 342.323ZM200.25 350.258H208.035V348.263H203.67L205.545 346.808C207.345 345.503 207.945 344.438 207.945 343.058C207.945 341.123 206.355 339.773 204.165 339.773C202.5 339.773 201.195 340.493 200.175 341.783L201.585 343.148C202.335 342.293 203.1 341.783 204.105 341.783C204.945 341.783 205.665 342.293 205.665 343.148C205.665 343.868 205.275 344.543 204.045 345.518L200.25 348.458V350.258ZM214.16 350.438C216.875 350.438 218.78 348.233 218.78 345.098C218.78 341.978 216.875 339.773 214.16 339.773C211.445 339.773 209.525 341.978 209.525 345.098C209.525 348.233 211.445 350.438 214.16 350.438ZM214.16 348.428C212.78 348.428 211.805 347.033 211.805 345.098C211.805 343.163 212.78 341.783 214.16 341.783C215.54 341.783 216.515 343.163 216.515 345.098C216.515 347.033 215.54 348.428 214.16 348.428ZM220.113 350.258H227.898V348.263H223.533L225.408 346.808C227.208 345.503 227.808 344.438 227.808 343.058C227.808 341.123 226.218 339.773 224.028 339.773C222.363 339.773 221.058 340.493 220.038 341.783L221.448 343.148C222.198 342.293 222.963 341.783 223.968 341.783C224.808 341.783 225.528 342.293 225.528 343.148C225.528 343.868 225.138 344.543 223.908 345.518L220.113 348.458V350.258ZM229.283 350.258H237.068V348.263H232.703L234.578 346.808C236.378 345.503 236.978 344.438 236.978 343.058C236.978 341.123 235.388 339.773 233.198 339.773C231.533 339.773 230.228 340.493 229.208 341.783L230.618 343.148C231.368 342.293 232.133 341.783 233.138 341.783C233.978 341.783 234.698 342.293 234.698 343.148C234.698 343.868 234.308 344.543 233.078 345.518L229.283 348.458V350.258ZM253.565 345.098C253.565 342.203 251.075 339.773 248.105 339.773C245.135 339.773 242.615 342.203 242.615 345.098C242.615 347.993 245.135 350.438 248.105 350.438C249.305 350.438 250.43 350.033 251.33 349.373L252.35 350.258L253.475 348.953L252.56 348.158C253.19 347.288 253.565 346.223 253.565 345.098ZM248.105 348.428C246.365 348.428 244.895 346.898 244.895 345.098C244.895 343.313 246.365 341.783 248.105 341.783C249.83 341.783 251.3 343.313 251.3 345.098C251.3 345.668 251.15 346.223 250.88 346.703L249.59 345.578L248.465 346.883L249.71 347.963C249.23 348.263 248.675 348.428 248.105 348.428ZM258.921 350.453C261.336 350.453 262.896 349.163 262.896 347.378C262.896 346.013 261.861 345.218 260.736 344.963C261.876 344.633 262.671 343.778 262.671 342.593C262.671 340.958 261.216 339.773 258.906 339.773C257.076 339.773 255.846 340.568 254.991 341.603L256.266 342.953C256.956 342.233 257.721 341.753 258.681 341.753C259.701 341.753 260.421 342.233 260.421 342.983C260.421 343.718 259.746 344.138 258.621 344.138L257.436 344.123V346.013H258.621C260.001 345.998 260.631 346.403 260.631 347.198C260.631 347.933 259.956 348.458 258.831 348.458C257.796 348.458 256.821 348.023 256.086 347.243L254.781 348.713C255.651 349.718 257.076 350.453 258.921 350.453ZM272.461 350.438C274.786 350.438 276.691 348.608 276.691 346.373C276.691 344.138 274.786 342.323 272.461 342.323C270.136 342.323 268.231 344.138 268.231 346.373C268.231 348.608 270.136 350.438 272.461 350.438ZM272.461 348.593C271.291 348.593 270.331 347.588 270.331 346.373C270.331 345.158 271.291 344.168 272.461 344.168C273.631 344.168 274.576 345.158 274.576 346.373C274.576 347.588 273.631 348.593 272.461 348.593ZM280.724 342.083C280.724 341.573 281.054 341.213 281.459 341.213C281.759 341.213 282.059 341.318 282.209 341.468L282.734 340.133C282.284 339.728 281.579 339.458 280.949 339.458C279.584 339.458 278.624 340.433 278.624 341.828V342.503H277.559V344.273H278.624V350.258H280.724V344.273H282.404V342.503H280.724V342.083ZM25.8643 369.453C28.2793 369.453 29.8393 368.163 29.8393 366.378C29.8393 365.013 28.8043 364.218 27.6793 363.963C28.8193 363.633 29.6143 362.778 29.6143 361.593C29.6143 359.958 28.1593 358.773 25.8493 358.773C24.0193 358.773 22.7893 359.568 21.9343 360.603L23.2093 361.953C23.8993 361.233 24.6643 360.753 25.6243 360.753C26.6443 360.753 27.3643 361.233 27.3643 361.983C27.3643 362.718 26.6893 363.138 25.5643 363.138L24.3793 363.123V365.013H25.5643C26.9443 364.998 27.5743 365.403 27.5743 366.198C27.5743 366.933 26.8993 367.458 25.7743 367.458C24.7393 367.458 23.7643 367.023 23.0293 366.243L21.7243 367.713C22.5943 368.718 24.0193 369.453 25.8643 369.453ZM35.9321 369.438C38.6471 369.438 40.5521 367.233 40.5521 364.098C40.5521 360.978 38.6471 358.773 35.9321 358.773C33.2171 358.773 31.2971 360.978 31.2971 364.098C31.2971 367.233 33.2171 369.438 35.9321 369.438ZM35.9321 367.428C34.5521 367.428 33.5771 366.033 33.5771 364.098C33.5771 362.163 34.5521 360.783 35.9321 360.783C37.3121 360.783 38.2871 362.163 38.2871 364.098C38.2871 366.033 37.3121 367.428 35.9321 367.428ZM42.3205 366.063H46.4305V364.203H42.3205V366.063ZM54.2314 358.773V362.613C53.6164 361.803 52.7014 361.323 51.6064 361.323C49.5514 361.323 48.0514 363.003 48.0514 365.373C48.0514 367.758 49.5514 369.438 51.6064 369.438C52.7014 369.438 53.6164 368.958 54.2314 368.148V369.258H56.4214V358.773H54.2314ZM52.2514 367.593C51.0364 367.593 50.1814 366.678 50.1814 365.373C50.1814 364.083 51.0364 363.168 52.2514 363.168C53.4064 363.168 54.2314 364.083 54.2314 365.373C54.2314 366.678 53.4064 367.593 52.2514 367.593ZM61.7917 361.323C60.7117 361.323 59.6467 361.623 58.5517 362.178L59.2867 363.633C59.9017 363.318 60.5767 363.078 61.2967 363.078C62.5717 363.078 63.0967 363.798 63.0967 364.623V364.788C62.4367 364.518 61.7317 364.383 61.1017 364.383C59.3167 364.383 57.8917 365.433 57.8917 366.963C57.8917 368.448 59.1517 369.438 60.8017 369.438C61.6567 369.438 62.5417 369.093 63.0967 368.478V369.258H65.2117V364.623C65.2117 362.598 63.8167 361.323 61.7917 361.323ZM61.2967 367.923C60.5467 367.923 59.9767 367.533 59.9767 366.903C59.9767 366.273 60.6217 365.808 61.4167 365.808C62.0167 365.808 62.6017 365.913 63.0967 366.108V366.813C62.9317 367.533 62.1367 367.923 61.2967 367.923ZM68.77 371.958C69.985 371.958 70.975 371.163 71.56 369.648L74.74 361.503H72.505L70.57 366.948L68.53 361.503H66.265L69.49 369.333L69.22 369.903C69.055 370.188 68.725 370.323 68.305 370.323C68.05 370.323 67.66 370.188 67.285 369.978L66.82 371.478C67.345 371.763 68.125 371.958 68.77 371.958ZM83.7449 369.438C86.0699 369.438 87.9749 367.608 87.9749 365.373C87.9749 363.138 86.0699 361.323 83.7449 361.323C81.4199 361.323 79.5149 363.138 79.5149 365.373C79.5149 367.608 81.4199 369.438 83.7449 369.438ZM83.7449 367.593C82.5749 367.593 81.6149 366.588 81.6149 365.373C81.6149 364.158 82.5749 363.168 83.7449 363.168C84.9149 363.168 85.8599 364.158 85.8599 365.373C85.8599 366.588 84.9149 367.593 83.7449 367.593ZM91.7078 362.958V361.503H89.5178V369.258H91.7078V365.553C91.7078 364.098 92.7428 363.168 94.3628 363.168V361.323C93.1778 361.323 92.2178 361.953 91.7078 362.958ZM103.74 369.438C106.065 369.438 107.97 367.608 107.97 365.373C107.97 363.138 106.065 361.323 103.74 361.323C101.415 361.323 99.51 363.138 99.51 365.373C99.51 367.608 101.415 369.438 103.74 369.438ZM103.74 367.593C102.57 367.593 101.61 366.588 101.61 365.373C101.61 364.158 102.57 363.168 103.74 363.168C104.91 363.168 105.855 364.158 105.855 365.373C105.855 366.588 104.91 367.593 103.74 367.593ZM109.513 369.258H111.703V358.773H109.513V369.258ZM119.505 358.773V362.613C118.89 361.803 117.975 361.323 116.88 361.323C114.825 361.323 113.325 363.003 113.325 365.373C113.325 367.758 114.825 369.438 116.88 369.438C117.975 369.438 118.89 368.958 119.505 368.148V369.258H121.695V358.773H119.505ZM117.525 367.593C116.31 367.593 115.455 366.678 115.455 365.373C115.455 364.083 116.31 363.168 117.525 363.168C118.68 363.168 119.505 364.083 119.505 365.373C119.505 366.678 118.68 367.593 117.525 367.593ZM127.35 367.743C126.285 367.743 125.565 367.008 125.37 365.958H131.205C131.205 363.078 129.735 361.323 127.305 361.323C125.04 361.323 123.285 363.018 123.285 365.358C123.285 367.743 125.115 369.438 127.425 369.438C128.565 369.438 129.9 368.958 130.59 368.238L129.36 366.978C128.865 367.428 128.07 367.743 127.35 367.743ZM127.335 363.018C128.31 363.018 128.925 363.693 129.105 364.653H125.385C125.625 363.663 126.36 363.018 127.335 363.018ZM134.877 362.958V361.503H132.687V369.258H134.877V365.553C134.877 364.098 135.912 363.168 137.532 363.168V361.323C136.347 361.323 135.387 361.953 134.877 362.958ZM145.409 362.958V361.503H143.219V369.258H145.409V365.553C145.409 364.098 146.444 363.168 148.064 363.168V361.323C146.879 361.323 145.919 361.953 145.409 362.958ZM153.219 367.743C152.154 367.743 151.434 367.008 151.239 365.958H157.074C157.074 363.078 155.604 361.323 153.174 361.323C150.909 361.323 149.154 363.018 149.154 365.358C149.154 367.743 150.984 369.438 153.294 369.438C154.434 369.438 155.769 368.958 156.459 368.238L155.229 366.978C154.734 367.428 153.939 367.743 153.219 367.743ZM153.204 363.018C154.179 363.018 154.794 363.693 154.974 364.653H151.254C151.494 363.663 152.229 363.018 153.204 363.018ZM163.356 361.323C162.261 361.323 161.361 361.803 160.746 362.613V361.503H158.556V371.838H160.746V368.148C161.361 368.958 162.261 369.438 163.356 369.438C165.426 369.438 166.926 367.758 166.926 365.373C166.926 363.003 165.426 361.323 163.356 361.323ZM162.726 367.593C161.571 367.593 160.746 366.678 160.746 365.373C160.746 364.083 161.571 363.168 162.726 363.168C163.941 363.168 164.796 364.083 164.796 365.373C164.796 366.678 163.941 367.593 162.726 367.593ZM172.221 369.438C174.546 369.438 176.451 367.608 176.451 365.373C176.451 363.138 174.546 361.323 172.221 361.323C169.896 361.323 167.991 363.138 167.991 365.373C167.991 367.608 169.896 369.438 172.221 369.438ZM172.221 367.593C171.051 367.593 170.091 366.588 170.091 365.373C170.091 364.158 171.051 363.168 172.221 363.168C173.391 363.168 174.336 364.158 174.336 365.373C174.336 366.588 173.391 367.593 172.221 367.593ZM180.184 362.958V361.503H177.994V369.258H180.184V365.553C180.184 364.098 181.219 363.168 182.839 363.168V361.323C181.654 361.323 180.694 361.953 180.184 362.958ZM188.385 367.338C188.235 367.488 187.935 367.593 187.635 367.593C187.23 367.593 186.915 367.233 186.915 366.723V363.273H188.595V361.503H186.915V359.373H184.8V361.503H183.735V363.273H184.8V367.068C184.8 368.463 185.76 369.438 187.14 369.438C187.755 369.438 188.46 369.168 188.91 368.763L188.385 367.338ZM191.438 360.438C192.083 360.438 192.608 359.898 192.608 359.238C192.608 358.623 192.083 358.068 191.438 358.068C190.763 358.068 190.238 358.623 190.238 359.238C190.238 359.898 190.763 360.438 191.438 360.438ZM190.328 369.258H192.518V361.503H190.328V369.258ZM199.15 361.323C198.145 361.323 197.29 361.758 196.81 362.448V361.503H194.62V369.258H196.81V364.668C196.81 363.828 197.515 363.168 198.43 363.168C199.3 363.168 199.915 363.828 199.915 364.788V369.258H202.015V364.323C202.015 362.553 200.83 361.323 199.15 361.323ZM209.441 361.503V362.553C208.916 361.818 207.911 361.323 206.876 361.323C204.911 361.323 203.426 362.838 203.426 364.998C203.426 367.158 204.911 368.688 206.876 368.688C207.911 368.688 208.826 368.238 209.441 367.473V368.343C209.441 369.348 208.541 369.993 207.131 369.993C206.231 369.993 205.316 369.708 204.806 369.258L204.041 370.803C204.821 371.403 206.096 371.838 207.461 371.838C209.906 371.838 211.631 370.428 211.631 368.433V361.503H209.441ZM207.566 366.843C206.471 366.843 205.691 366.078 205.691 364.998C205.691 363.918 206.471 363.168 207.566 363.168C208.661 363.168 209.441 363.918 209.441 364.998C209.441 366.078 208.661 366.843 207.566 366.843ZM221.483 369.438C222.788 369.438 223.838 368.913 224.603 368.073L223.148 366.843C222.743 367.293 222.113 367.593 221.513 367.593C220.358 367.593 219.398 366.573 219.398 365.358C219.398 364.173 220.358 363.168 221.498 363.168C222.098 363.168 222.713 363.453 223.103 363.888L224.558 362.643C223.808 361.833 222.758 361.323 221.513 361.323C219.218 361.323 217.268 363.168 217.268 365.373C217.268 367.578 219.203 369.438 221.483 369.438ZM225.953 369.258H228.143V358.773H225.953V369.258ZM235.3 361.503V366.093C235.3 366.933 234.595 367.593 233.68 367.593C232.81 367.593 232.195 366.933 232.195 365.973V361.503H230.095V366.438C230.095 368.208 231.28 369.438 232.975 369.438C233.965 369.438 234.82 369.003 235.3 368.313V369.258H237.49V361.503H235.3ZM242.426 369.438C244.331 369.438 245.591 368.463 245.591 366.933C245.591 365.238 244.091 364.788 242.756 364.443C241.706 364.158 241.271 364.038 241.271 363.618C241.271 363.183 241.721 362.898 242.321 362.898C243.026 362.898 243.866 363.243 244.571 363.693L245.366 362.283C244.511 361.713 243.416 361.323 242.321 361.323C240.476 361.323 239.291 362.373 239.291 363.843C239.291 365.373 240.521 365.808 242.111 366.198C242.966 366.408 243.596 366.618 243.596 367.113C243.596 367.563 243.206 367.833 242.471 367.833C241.631 367.833 240.611 367.458 239.816 366.888L238.931 368.268C239.861 369.018 241.181 369.438 242.426 369.438ZM251.08 367.338C250.93 367.488 250.63 367.593 250.33 367.593C249.925 367.593 249.61 367.233 249.61 366.723V363.273H251.29V361.503H249.61V359.373H247.495V361.503H246.43V363.273H247.495V367.068C247.495 368.463 248.455 369.438 249.835 369.438C250.45 369.438 251.155 369.168 251.605 368.763L251.08 367.338ZM256.579 367.743C255.514 367.743 254.794 367.008 254.599 365.958H260.434C260.434 363.078 258.964 361.323 256.534 361.323C254.269 361.323 252.514 363.018 252.514 365.358C252.514 367.743 254.344 369.438 256.654 369.438C257.794 369.438 259.129 368.958 259.819 368.238L258.589 366.978C258.094 367.428 257.299 367.743 256.579 367.743ZM256.564 363.018C257.539 363.018 258.154 363.693 258.334 364.653H254.614C254.854 363.663 255.589 363.018 256.564 363.018ZM264.105 362.958V361.503H261.915V369.258H264.105V365.553C264.105 364.098 265.14 363.168 266.76 363.168V361.323C265.575 361.323 264.615 361.953 264.105 362.958ZM271.196 369.438C273.101 369.438 274.361 368.463 274.361 366.933C274.361 365.238 272.861 364.788 271.526 364.443C270.476 364.158 270.041 364.038 270.041 363.618C270.041 363.183 270.491 362.898 271.091 362.898C271.796 362.898 272.636 363.243 273.341 363.693L274.136 362.283C273.281 361.713 272.186 361.323 271.091 361.323C269.246 361.323 268.061 362.373 268.061 363.843C268.061 365.373 269.291 365.808 270.881 366.198C271.736 366.408 272.366 366.618 272.366 367.113C272.366 367.563 271.976 367.833 271.241 367.833C270.401 367.833 269.381 367.458 268.586 366.888L267.701 368.268C268.631 369.018 269.951 369.438 271.196 369.438Z" fill="white"/>
<path d="M24.2233 395.128L24.7843 394.523C23.6073 393.324 22.9913 392.07 22.9913 390.343C22.9913 388.605 23.6073 387.362 24.7843 386.152L24.2233 385.558C22.7163 386.757 21.8693 388.418 21.8693 390.343C21.8693 392.257 22.7163 393.929 24.2233 395.128ZM27.8514 393.258H28.9624V386.735H31.4374V385.701H25.3654V386.735H27.8514V393.258ZM35.5343 387.439C34.7533 387.439 34.0493 387.835 33.7193 388.407V385.569H32.6303V393.258H33.7193V389.727C33.7193 388.979 34.4233 388.385 35.2923 388.385C36.0623 388.385 36.6013 388.968 36.6013 389.826V393.258H37.6573V389.639C37.6573 388.33 36.7883 387.439 35.5343 387.439ZM41.7976 392.488C40.7856 392.488 40.0816 391.762 39.9496 390.761H44.4926C44.4926 388.737 43.4806 387.439 41.7426 387.439C40.1696 387.439 38.8826 388.693 38.8826 390.398C38.8826 392.147 40.2466 393.39 41.8196 393.39C42.6226 393.39 43.6236 393.049 44.1186 392.51L43.4806 391.839C43.1286 392.213 42.4136 392.488 41.7976 392.488ZM41.7646 388.341C42.7546 388.341 43.3266 389.045 43.4366 389.958H39.9606C40.1256 388.979 40.8516 388.341 41.7646 388.341ZM51.6905 387.439C50.9095 387.439 50.2055 387.835 49.8755 388.407V387.571H48.7865V393.258H49.8755V389.727C49.8755 388.979 50.5795 388.385 51.4485 388.385C52.2185 388.385 52.7575 388.968 52.7575 389.826V393.258H53.8135V389.639C53.8135 388.33 52.9445 387.439 51.6905 387.439ZM58.0089 393.39C59.6479 393.39 61.0009 392.048 61.0009 390.409C61.0009 388.77 59.6479 387.439 58.0089 387.439C56.3699 387.439 55.0169 388.77 55.0169 390.409C55.0169 392.048 56.3699 393.39 58.0089 393.39ZM58.0089 392.444C56.9639 392.444 56.1059 391.531 56.1059 390.409C56.1059 389.287 56.9639 388.385 58.0089 388.385C59.0539 388.385 59.9119 389.287 59.9119 390.409C59.9119 391.531 59.0539 392.444 58.0089 392.444ZM63.4107 388.682V387.571H62.3217V393.258H63.4107V390.233C63.4107 389.133 64.2687 388.385 65.5227 388.385V387.439C64.5327 387.439 63.7627 387.923 63.4107 388.682ZM73.1702 387.439C72.2792 387.439 71.5862 387.989 71.4102 388.792C71.1242 387.967 70.4092 387.439 69.5072 387.439C68.7702 387.439 68.1762 387.802 67.8902 388.385V387.571H66.8012V393.258H67.8902V389.705C67.8902 388.924 68.4622 388.385 69.2872 388.385C69.9912 388.385 70.4862 388.968 70.4862 389.804V393.258H71.5532V389.705C71.5532 388.924 72.1362 388.385 72.9502 388.385C73.6542 388.385 74.1602 388.968 74.1602 389.804V393.258H75.2162V389.639C75.2162 388.352 74.3582 387.439 73.1702 387.439ZM79.0333 387.439C78.4063 387.439 77.6913 387.604 76.8773 388.011L77.2843 388.814C77.7793 388.561 78.3183 388.341 78.8793 388.341C80.0123 388.341 80.3423 389.1 80.3423 389.815V389.991C79.7923 389.804 79.1873 389.683 78.6263 389.683C77.3723 389.683 76.3493 390.442 76.3493 391.575C76.3493 392.686 77.2513 393.39 78.4503 393.39C79.1543 393.39 79.9243 393.071 80.3423 392.488V393.258H81.4093V389.815C81.4093 388.407 80.5623 387.439 79.0333 387.439ZM78.6703 392.532C77.9443 392.532 77.3943 392.158 77.3943 391.542C77.3943 390.926 78.0323 390.497 78.7913 390.497C79.3523 390.497 79.8693 390.574 80.3423 390.717V391.476C80.1553 392.18 79.3743 392.532 78.6703 392.532ZM83.0756 393.258H84.1646V385.569H83.0756V393.258ZM86.4937 386.625C86.8567 386.625 87.1427 386.317 87.1427 385.965C87.1427 385.624 86.8567 385.316 86.4937 385.316C86.1307 385.316 85.8337 385.624 85.8337 385.965C85.8337 386.317 86.1307 386.625 86.4937 386.625ZM85.9437 393.258H87.0327V387.571H85.9437V393.258ZM88.2949 393.258H92.9479V392.279H89.7249L92.9149 388.385L92.9259 387.571H88.3609V388.55H91.4849L88.2949 392.444V393.258ZM96.701 392.488C95.689 392.488 94.985 391.762 94.853 390.761H99.396C99.396 388.737 98.384 387.439 96.646 387.439C95.073 387.439 93.786 388.693 93.786 390.398C93.786 392.147 95.15 393.39 96.723 393.39C97.526 393.39 98.527 393.049 99.022 392.51L98.384 391.839C98.032 392.213 97.317 392.488 96.701 392.488ZM96.668 388.341C97.658 388.341 98.23 389.045 98.34 389.958H94.864C95.029 388.979 95.755 388.341 96.668 388.341ZM104.895 385.569V388.539C104.455 387.857 103.751 387.439 102.882 387.439C101.375 387.439 100.264 388.671 100.264 390.409C100.264 392.158 101.375 393.39 102.882 393.39C103.751 393.39 104.455 392.972 104.895 392.29V393.258H105.984V385.569H104.895ZM103.135 392.444C102.101 392.444 101.364 391.597 101.364 390.409C101.364 389.221 102.101 388.385 103.135 388.385C104.169 388.385 104.895 389.221 104.895 390.409C104.895 391.597 104.169 392.444 103.135 392.444ZM113.31 393.39C114.157 393.39 114.894 393.038 115.444 392.477L114.707 391.806C114.344 392.202 113.838 392.444 113.31 392.444C112.276 392.444 111.407 391.52 111.407 390.409C111.407 389.309 112.276 388.385 113.31 388.385C113.827 388.385 114.322 388.616 114.674 389.001L115.411 388.319C114.861 387.78 114.135 387.439 113.31 387.439C111.693 387.439 110.307 388.792 110.307 390.409C110.307 392.026 111.682 393.39 113.31 393.39ZM119.11 393.39C120.749 393.39 122.102 392.048 122.102 390.409C122.102 388.77 120.749 387.439 119.11 387.439C117.471 387.439 116.118 388.77 116.118 390.409C116.118 392.048 117.471 393.39 119.11 393.39ZM119.11 392.444C118.065 392.444 117.207 391.531 117.207 390.409C117.207 389.287 118.065 388.385 119.11 388.385C120.155 388.385 121.013 389.287 121.013 390.409C121.013 391.531 120.155 392.444 119.11 392.444ZM127.24 387.571V391.102C127.24 391.85 126.547 392.444 125.678 392.444C124.908 392.444 124.369 391.861 124.369 391.003V387.571H123.302V391.19C123.302 392.499 124.171 393.39 125.425 393.39C126.206 393.39 126.899 393.005 127.24 392.444V393.258H128.329V387.571H127.24ZM133.03 387.439C132.249 387.439 131.545 387.835 131.215 388.407V387.571H130.126V393.258H131.215V389.727C131.215 388.979 131.919 388.385 132.788 388.385C133.558 388.385 134.097 388.968 134.097 389.826V393.258H135.153V389.639C135.153 388.33 134.284 387.439 133.03 387.439ZM139.25 392.235C139.14 392.356 138.92 392.444 138.678 392.444C138.359 392.444 138.084 392.158 138.084 391.762V388.495H139.426V387.571H138.084V386.009H137.017V387.571H136.17V388.495H137.017V391.839C137.017 392.752 137.633 393.39 138.513 393.39C138.92 393.39 139.349 393.236 139.657 392.983L139.25 392.235ZM146.342 393.39C147.981 393.39 149.334 392.048 149.334 390.409C149.334 388.77 147.981 387.439 146.342 387.439C144.703 387.439 143.35 388.77 143.35 390.409C143.35 392.048 144.703 393.39 146.342 393.39ZM146.342 392.444C145.297 392.444 144.439 391.531 144.439 390.409C144.439 389.287 145.297 388.385 146.342 388.385C147.387 388.385 148.245 389.287 148.245 390.409C148.245 391.531 147.387 392.444 146.342 392.444ZM151.953 386.944C151.953 386.548 152.217 386.262 152.536 386.262C152.778 386.262 152.998 386.35 153.119 386.471L153.515 385.745C153.207 385.492 152.789 385.338 152.382 385.338C151.502 385.338 150.886 385.976 150.886 386.889V387.571H150.028V388.495H150.886V393.258H151.953V388.495H153.295V387.571H151.953V386.944ZM161.164 387.571V391.102C161.164 391.85 160.471 392.444 159.602 392.444C158.832 392.444 158.293 391.861 158.293 391.003V387.571H157.226V391.19C157.226 392.499 158.095 393.39 159.349 393.39C160.13 393.39 160.823 393.005 161.164 392.444V393.258H162.253V387.571H161.164ZM166.954 387.439C166.173 387.439 165.469 387.835 165.139 388.407V387.571H164.05V393.258H165.139V389.727C165.139 388.979 165.843 388.385 166.712 388.385C167.482 388.385 168.021 388.968 168.021 389.826V393.258H169.077V389.639C169.077 388.33 168.208 387.439 166.954 387.439ZM171.293 386.625C171.656 386.625 171.942 386.317 171.942 385.965C171.942 385.624 171.656 385.316 171.293 385.316C170.93 385.316 170.633 385.624 170.633 385.965C170.633 386.317 170.93 386.625 171.293 386.625ZM170.743 393.258H171.832V387.571H170.743V393.258ZM177.868 387.571V388.594C177.439 387.879 176.713 387.439 175.822 387.439C174.315 387.439 173.204 388.671 173.204 390.409C173.204 392.158 174.315 393.39 175.822 393.39C176.713 393.39 177.439 392.95 177.868 392.235V395.15H178.946V387.571H177.868ZM176.075 392.444C175.041 392.444 174.304 391.597 174.304 390.409C174.304 389.221 175.041 388.385 176.075 388.385C177.109 388.385 177.835 389.221 177.835 390.409C177.835 391.597 177.109 392.444 176.075 392.444ZM184.561 387.571V391.102C184.561 391.85 183.868 392.444 182.999 392.444C182.229 392.444 181.69 391.861 181.69 391.003V387.571H180.623V391.19C180.623 392.499 181.492 393.39 182.746 393.39C183.527 393.39 184.22 393.005 184.561 392.444V393.258H185.65V387.571H184.561ZM189.922 392.488C188.91 392.488 188.206 391.762 188.074 390.761H192.617C192.617 388.737 191.605 387.439 189.867 387.439C188.294 387.439 187.007 388.693 187.007 390.398C187.007 392.147 188.371 393.39 189.944 393.39C190.747 393.39 191.748 393.049 192.243 392.51L191.605 391.839C191.253 392.213 190.538 392.488 189.922 392.488ZM189.889 388.341C190.879 388.341 191.451 389.045 191.561 389.958H188.085C188.25 388.979 188.976 388.341 189.889 388.341ZM198.253 392.224V385.701H197.142V393.258H202.257V392.224H198.253ZM203.992 386.625C204.355 386.625 204.641 386.317 204.641 385.965C204.641 385.624 204.355 385.316 203.992 385.316C203.629 385.316 203.332 385.624 203.332 385.965C203.332 386.317 203.629 386.625 203.992 386.625ZM203.442 393.258H204.531V387.571H203.442V393.258ZM209.214 387.439C208.433 387.439 207.729 387.835 207.399 388.407V387.571H206.31V393.258H207.399V389.727C207.399 388.979 208.103 388.385 208.972 388.385C209.742 388.385 210.281 388.968 210.281 389.826V393.258H211.337V389.639C211.337 388.33 210.468 387.439 209.214 387.439ZM213.002 393.258H214.091V391.795L215.004 390.871L216.786 393.258H218.084L215.741 390.145L218.194 387.571H216.874L214.091 390.486V385.569H213.002V393.258ZM221.676 392.488C220.664 392.488 219.96 391.762 219.828 390.761H224.371C224.371 388.737 223.359 387.439 221.621 387.439C220.048 387.439 218.761 388.693 218.761 390.398C218.761 392.147 220.125 393.39 221.698 393.39C222.501 393.39 223.502 393.049 223.997 392.51L223.359 391.839C223.007 392.213 222.292 392.488 221.676 392.488ZM221.643 388.341C222.633 388.341 223.205 389.045 223.315 389.958H219.839C220.004 388.979 220.73 388.341 221.643 388.341ZM226.735 388.682V387.571H225.646V393.258H226.735V390.233C226.735 389.133 227.593 388.385 228.847 388.385V387.439C227.857 387.439 227.087 387.923 226.735 388.682ZM234.349 385.569V388.539C233.909 387.857 233.205 387.439 232.336 387.439C230.829 387.439 229.718 388.671 229.718 390.409C229.718 392.158 230.829 393.39 232.336 393.39C233.205 393.39 233.909 392.972 234.349 392.29V393.258H235.438V385.569H234.349ZM232.589 392.444C231.555 392.444 230.818 391.597 230.818 390.409C230.818 389.221 231.555 388.385 232.589 388.385C233.623 388.385 234.349 389.221 234.349 390.409C234.349 391.597 233.623 392.444 232.589 392.444ZM237.215 390.75H240.119V389.76H237.215V390.75ZM24.6853 407.488C23.6733 407.488 22.9693 406.762 22.8373 405.761H27.3803C27.3803 403.737 26.3683 402.439 24.6303 402.439C23.0573 402.439 21.7703 403.693 21.7703 405.398C21.7703 407.147 23.1343 408.39 24.7073 408.39C25.5103 408.39 26.5113 408.049 27.0063 407.51L26.3683 406.839C26.0163 407.213 25.3013 407.488 24.6853 407.488ZM24.6523 403.341C25.6423 403.341 26.2143 404.045 26.3243 404.958H22.8483C23.0133 403.979 23.7393 403.341 24.6523 403.341ZM31.5596 402.439C30.7786 402.439 30.0746 402.835 29.7446 403.407V402.571H28.6556V408.258H29.7446V404.727C29.7446 403.979 30.4486 403.385 31.3176 403.385C32.0876 403.385 32.6266 403.968 32.6266 404.826V408.258H33.6826V404.639C33.6826 403.33 32.8136 402.439 31.5596 402.439ZM37.504 402.439C36.877 402.439 36.162 402.604 35.348 403.011L35.755 403.814C36.25 403.561 36.789 403.341 37.35 403.341C38.483 403.341 38.813 404.1 38.813 404.815V404.991C38.263 404.804 37.658 404.683 37.097 404.683C35.843 404.683 34.82 405.442 34.82 406.575C34.82 407.686 35.722 408.39 36.921 408.39C37.625 408.39 38.395 408.071 38.813 407.488V408.258H39.88V404.815C39.88 403.407 39.033 402.439 37.504 402.439ZM37.141 407.532C36.415 407.532 35.865 407.158 35.865 406.542C35.865 405.926 36.503 405.497 37.262 405.497C37.823 405.497 38.34 405.574 38.813 405.717V406.476C38.626 407.18 37.845 407.532 37.141 407.532ZM44.6813 402.439C43.7903 402.439 43.0753 402.868 42.6353 403.583V400.569H41.5463V408.258H42.6353V407.246C43.0753 407.961 43.7903 408.39 44.6813 408.39C46.1773 408.39 47.2883 407.158 47.2883 405.409C47.2883 403.671 46.1773 402.439 44.6813 402.439ZM44.4173 407.444C43.3833 407.444 42.6573 406.597 42.6573 405.409C42.6573 404.221 43.3833 403.385 44.4173 403.385C45.4513 403.385 46.1883 404.221 46.1883 405.409C46.1883 406.597 45.4513 407.444 44.4173 407.444ZM48.6683 408.258H49.7573V400.569H48.6683V408.258ZM54.0115 407.488C52.9995 407.488 52.2955 406.762 52.1635 405.761H56.7065C56.7065 403.737 55.6945 402.439 53.9565 402.439C52.3835 402.439 51.0965 403.693 51.0965 405.398C51.0965 407.147 52.4605 408.39 54.0335 408.39C54.8365 408.39 55.8375 408.049 56.3325 407.51L55.6945 406.839C55.3425 407.213 54.6275 407.488 54.0115 407.488ZM53.9785 403.341C54.9685 403.341 55.5405 404.045 55.6505 404.958H52.1745C52.3395 403.979 53.0655 403.341 53.9785 403.341ZM62.2058 400.569V403.539C61.7658 402.857 61.0618 402.439 60.1928 402.439C58.6858 402.439 57.5748 403.671 57.5748 405.409C57.5748 407.158 58.6858 408.39 60.1928 408.39C61.0618 408.39 61.7658 407.972 62.2058 407.29V408.258H63.2948V400.569H62.2058ZM60.4458 407.444C59.4118 407.444 58.6748 406.597 58.6748 405.409C58.6748 404.221 59.4118 403.385 60.4458 403.385C61.4798 403.385 62.2058 404.221 62.2058 405.409C62.2058 406.597 61.4798 407.444 60.4458 407.444ZM70.6202 408.39C71.4672 408.39 72.2042 408.038 72.7542 407.477L72.0172 406.806C71.6542 407.202 71.1482 407.444 70.6202 407.444C69.5862 407.444 68.7172 406.52 68.7172 405.409C68.7172 404.309 69.5862 403.385 70.6202 403.385C71.1372 403.385 71.6322 403.616 71.9842 404.001L72.7212 403.319C72.1712 402.78 71.4452 402.439 70.6202 402.439C69.0032 402.439 67.6172 403.792 67.6172 405.409C67.6172 407.026 68.9922 408.39 70.6202 408.39ZM73.891 408.258H74.98V400.569H73.891V408.258ZM80.5762 402.571V406.102C80.5762 406.85 79.8832 407.444 79.0142 407.444C78.2442 407.444 77.7052 406.861 77.7052 406.003V402.571H76.6382V406.19C76.6382 407.499 77.5072 408.39 78.7612 408.39C79.5422 408.39 80.2352 408.005 80.5762 407.444V408.258H81.6652V402.571H80.5762ZM85.3323 408.39C86.5863 408.39 87.4883 407.708 87.4883 406.63C87.4883 405.497 86.4983 405.189 85.5633 404.914C84.5953 404.617 84.2103 404.485 84.2103 404.045C84.2103 403.572 84.6723 403.319 85.2443 403.319C85.7613 403.319 86.3333 403.517 86.8943 403.869L87.3453 403.099C86.7403 402.692 85.9813 402.439 85.2443 402.439C84.0453 402.439 83.1763 403.121 83.1763 404.166C83.1763 405.09 83.8363 405.464 85.1343 405.827C85.8603 406.025 86.4543 406.201 86.4543 406.74C86.4543 407.202 86.0253 407.51 85.3433 407.51C84.7163 407.51 84.0343 407.257 83.4073 406.795L82.9123 407.543C83.5943 408.093 84.4963 408.39 85.3323 408.39ZM91.2429 407.235C91.1329 407.356 90.9129 407.444 90.6709 407.444C90.3519 407.444 90.0769 407.158 90.0769 406.762V403.495H91.4189V402.571H90.0769V401.009H89.0099V402.571H88.1629V403.495H89.0099V406.839C89.0099 407.752 89.6259 408.39 90.5059 408.39C90.9129 408.39 91.3419 408.236 91.6499 407.983L91.2429 407.235ZM95.2615 407.488C94.2495 407.488 93.5455 406.762 93.4135 405.761H97.9565C97.9565 403.737 96.9445 402.439 95.2065 402.439C93.6335 402.439 92.3465 403.693 92.3465 405.398C92.3465 407.147 93.7105 408.39 95.2835 408.39C96.0865 408.39 97.0875 408.049 97.5825 407.51L96.9445 406.839C96.5925 407.213 95.8775 407.488 95.2615 407.488ZM95.2285 403.341C96.2185 403.341 96.7905 404.045 96.9005 404.958H93.4245C93.5895 403.979 94.3155 403.341 95.2285 403.341ZM100.321 403.682V402.571H99.2318V408.258H100.321V405.233C100.321 404.133 101.179 403.385 102.433 403.385V402.439C101.443 402.439 100.673 402.923 100.321 403.682ZM105.581 408.39C106.835 408.39 107.737 407.708 107.737 406.63C107.737 405.497 106.747 405.189 105.812 404.914C104.844 404.617 104.459 404.485 104.459 404.045C104.459 403.572 104.921 403.319 105.493 403.319C106.01 403.319 106.582 403.517 107.143 403.869L107.594 403.099C106.989 402.692 106.23 402.439 105.493 402.439C104.294 402.439 103.425 403.121 103.425 404.166C103.425 405.09 104.085 405.464 105.383 405.827C106.109 406.025 106.703 406.201 106.703 406.74C106.703 407.202 106.274 407.51 105.592 407.51C104.965 407.51 104.283 407.257 103.656 406.795L103.161 407.543C103.843 408.093 104.745 408.39 105.581 408.39ZM112.629 401.625C112.992 401.625 113.278 401.317 113.278 400.965C113.278 400.624 112.992 400.316 112.629 400.316C112.266 400.316 111.969 400.624 111.969 400.965C111.969 401.317 112.266 401.625 112.629 401.625ZM112.079 408.258H113.168V402.571H112.079V408.258ZM117.852 402.439C117.071 402.439 116.367 402.835 116.037 403.407V402.571H114.948V408.258H116.037V404.727C116.037 403.979 116.741 403.385 117.61 403.385C118.38 403.385 118.919 403.968 118.919 404.826V408.258H119.975V404.639C119.975 403.33 119.106 402.439 117.852 402.439ZM127.09 407.235C126.98 407.356 126.76 407.444 126.518 407.444C126.199 407.444 125.924 407.158 125.924 406.762V403.495H127.266V402.571H125.924V401.009H124.857V402.571H124.01V403.495H124.857V406.839C124.857 407.752 125.473 408.39 126.353 408.39C126.76 408.39 127.189 408.236 127.497 407.983L127.09 407.235ZM131.537 402.439C130.756 402.439 130.052 402.835 129.722 403.407V400.569H128.633V408.258H129.722V404.727C129.722 403.979 130.426 403.385 131.295 403.385C132.065 403.385 132.604 403.968 132.604 404.826V408.258H133.66V404.639C133.66 403.33 132.791 402.439 131.537 402.439ZM137.801 407.488C136.789 407.488 136.085 406.762 135.953 405.761H140.496C140.496 403.737 139.484 402.439 137.746 402.439C136.173 402.439 134.886 403.693 134.886 405.398C134.886 407.147 136.25 408.39 137.823 408.39C138.626 408.39 139.627 408.049 140.122 407.51L139.484 406.839C139.132 407.213 138.417 407.488 137.801 407.488ZM137.768 403.341C138.758 403.341 139.33 404.045 139.44 404.958H135.964C136.129 403.979 136.855 403.341 137.768 403.341ZM146.087 401.944C146.087 401.548 146.351 401.262 146.67 401.262C146.912 401.262 147.132 401.35 147.253 401.471L147.649 400.745C147.341 400.492 146.923 400.338 146.516 400.338C145.636 400.338 145.02 400.976 145.02 401.889V402.571H144.162V403.495H145.02V408.258H146.087V403.495H147.429V402.571H146.087V401.944ZM152.28 402.571V406.102C152.28 406.85 151.587 407.444 150.718 407.444C149.948 407.444 149.409 406.861 149.409 406.003V402.571H148.342V406.19C148.342 407.499 149.211 408.39 150.465 408.39C151.246 408.39 151.939 408.005 152.28 407.444V408.258H153.369V402.571H152.28ZM155.166 408.258H156.255V400.569H155.166V408.258ZM158.035 408.258H159.124V400.569H158.035V408.258ZM166.451 408.39C168.09 408.39 169.443 407.048 169.443 405.409C169.443 403.77 168.09 402.439 166.451 402.439C164.812 402.439 163.459 403.77 163.459 405.409C163.459 407.048 164.812 408.39 166.451 408.39ZM166.451 407.444C165.406 407.444 164.548 406.531 164.548 405.409C164.548 404.287 165.406 403.385 166.451 403.385C167.496 403.385 168.354 404.287 168.354 405.409C168.354 406.531 167.496 407.444 166.451 407.444ZM173.866 402.439C172.997 402.439 172.293 402.857 171.853 403.539V402.571H170.764V410.15H171.853V407.279C172.293 407.972 172.997 408.39 173.866 408.39C175.373 408.39 176.484 407.158 176.484 405.409C176.484 403.671 175.373 402.439 173.866 402.439ZM173.613 407.444C172.579 407.444 171.853 406.597 171.853 405.409C171.853 404.221 172.579 403.385 173.613 403.385C174.647 403.385 175.384 404.221 175.384 405.409C175.384 406.597 174.647 407.444 173.613 407.444ZM180.329 407.488C179.317 407.488 178.613 406.762 178.481 405.761H183.024C183.024 403.737 182.012 402.439 180.274 402.439C178.701 402.439 177.414 403.693 177.414 405.398C177.414 407.147 178.778 408.39 180.351 408.39C181.154 408.39 182.155 408.049 182.65 407.51L182.012 406.839C181.66 407.213 180.945 407.488 180.329 407.488ZM180.296 403.341C181.286 403.341 181.858 404.045 181.968 404.958H178.492C178.657 403.979 179.383 403.341 180.296 403.341ZM187.203 402.439C186.422 402.439 185.718 402.835 185.388 403.407V402.571H184.299V408.258H185.388V404.727C185.388 403.979 186.092 403.385 186.961 403.385C187.731 403.385 188.27 403.968 188.27 404.826V408.258H189.326V404.639C189.326 403.33 188.457 402.439 187.203 402.439ZM195.88 408.39C197.134 408.39 198.036 407.708 198.036 406.63C198.036 405.497 197.046 405.189 196.111 404.914C195.143 404.617 194.758 404.485 194.758 404.045C194.758 403.572 195.22 403.319 195.792 403.319C196.309 403.319 196.881 403.517 197.442 403.869L197.893 403.099C197.288 402.692 196.529 402.439 195.792 402.439C194.593 402.439 193.724 403.121 193.724 404.166C193.724 405.09 194.384 405.464 195.682 405.827C196.408 406.025 197.002 406.201 197.002 406.74C197.002 407.202 196.573 407.51 195.891 407.51C195.264 407.51 194.582 407.257 193.955 406.795L193.46 407.543C194.142 408.093 195.044 408.39 195.88 408.39ZM201.89 408.39C203.529 408.39 204.882 407.048 204.882 405.409C204.882 403.77 203.529 402.439 201.89 402.439C200.251 402.439 198.898 403.77 198.898 405.409C198.898 407.048 200.251 408.39 201.89 408.39ZM201.89 407.444C200.845 407.444 199.987 406.531 199.987 405.409C199.987 404.287 200.845 403.385 201.89 403.385C202.935 403.385 203.793 404.287 203.793 405.409C203.793 406.531 202.935 407.444 201.89 407.444ZM210.02 402.571V406.102C210.02 406.85 209.327 407.444 208.458 407.444C207.688 407.444 207.149 406.861 207.149 406.003V402.571H206.082V406.19C206.082 407.499 206.951 408.39 208.205 408.39C208.986 408.39 209.679 408.005 210.02 407.444V408.258H211.109V402.571H210.02ZM213.995 403.682V402.571H212.906V408.258H213.995V405.233C213.995 404.133 214.853 403.385 216.107 403.385V402.439C215.117 402.439 214.347 402.923 213.995 403.682ZM219.915 408.39C220.762 408.39 221.499 408.038 222.049 407.477L221.312 406.806C220.949 407.202 220.443 407.444 219.915 407.444C218.881 407.444 218.012 406.52 218.012 405.409C218.012 404.309 218.881 403.385 219.915 403.385C220.432 403.385 220.927 403.616 221.279 404.001L222.016 403.319C221.466 402.78 220.74 402.439 219.915 402.439C218.298 402.439 216.912 403.792 216.912 405.409C216.912 407.026 218.287 408.39 219.915 408.39ZM225.661 407.488C224.649 407.488 223.945 406.762 223.813 405.761H228.356C228.356 403.737 227.344 402.439 225.606 402.439C224.033 402.439 222.746 403.693 222.746 405.398C222.746 407.147 224.11 408.39 225.683 408.39C226.486 408.39 227.487 408.049 227.982 407.51L227.344 406.839C226.992 407.213 226.277 407.488 225.661 407.488ZM225.628 403.341C226.618 403.341 227.19 404.045 227.3 404.958H223.824C223.989 403.979 224.715 403.341 225.628 403.341ZM23.5523 422.224V415.701H22.4413V423.258H27.5563V422.224H23.5523ZM29.2916 416.625C29.6546 416.625 29.9406 416.317 29.9406 415.965C29.9406 415.624 29.6546 415.316 29.2916 415.316C28.9286 415.316 28.6316 415.624 28.6316 415.965C28.6316 416.317 28.9286 416.625 29.2916 416.625ZM28.7416 423.258H29.8306V417.571H28.7416V423.258ZM34.5138 417.439C33.7328 417.439 33.0288 417.835 32.6988 418.407V417.571H31.6098V423.258H32.6988V419.727C32.6988 418.979 33.4028 418.385 34.2718 418.385C35.0418 418.385 35.5808 418.968 35.5808 419.826V423.258H36.6368V419.639C36.6368 418.33 35.7678 417.439 34.5138 417.439ZM38.3021 423.258H39.3911V421.795L40.3041 420.871L42.0861 423.258H43.3841L41.0411 420.145L43.4941 417.571H42.1741L39.3911 420.486V415.569H38.3021V423.258ZM46.9754 422.488C45.9634 422.488 45.2594 421.762 45.1274 420.761H49.6704C49.6704 418.737 48.6584 417.439 46.9204 417.439C45.3474 417.439 44.0604 418.693 44.0604 420.398C44.0604 422.147 45.4244 423.39 46.9974 423.39C47.8004 423.39 48.8014 423.049 49.2964 422.51L48.6584 421.839C48.3064 422.213 47.5914 422.488 46.9754 422.488ZM46.9424 418.341C47.9324 418.341 48.5044 419.045 48.6144 419.958H45.1384C45.3034 418.979 46.0294 418.341 46.9424 418.341ZM52.0347 418.682V417.571H50.9457V423.258H52.0347V420.233C52.0347 419.133 52.8927 418.385 54.1467 418.385V417.439C53.1567 417.439 52.3867 417.923 52.0347 418.682ZM59.6492 415.569V418.539C59.2092 417.857 58.5052 417.439 57.6362 417.439C56.1292 417.439 55.0182 418.671 55.0182 420.409C55.0182 422.158 56.1292 423.39 57.6362 423.39C58.5052 423.39 59.2092 422.972 59.6492 422.29V423.258H60.7382V415.569H59.6492ZM57.8892 422.444C56.8552 422.444 56.1182 421.597 56.1182 420.409C56.1182 419.221 56.8552 418.385 57.8892 418.385C58.9232 418.385 59.6492 419.221 59.6492 420.409C59.6492 421.597 58.9232 422.444 57.8892 422.444ZM68.0636 423.39C68.9106 423.39 69.6476 423.038 70.1976 422.477L69.4606 421.806C69.0976 422.202 68.5916 422.444 68.0636 422.444C67.0296 422.444 66.1606 421.52 66.1606 420.409C66.1606 419.309 67.0296 418.385 68.0636 418.385C68.5806 418.385 69.0756 418.616 69.4276 419.001L70.1646 418.319C69.6146 417.78 68.8886 417.439 68.0636 417.439C66.4466 417.439 65.0606 418.792 65.0606 420.409C65.0606 422.026 66.4356 423.39 68.0636 423.39ZM73.8644 423.39C75.5034 423.39 76.8564 422.048 76.8564 420.409C76.8564 418.77 75.5034 417.439 73.8644 417.439C72.2254 417.439 70.8724 418.77 70.8724 420.409C70.8724 422.048 72.2254 423.39 73.8644 423.39ZM73.8644 422.444C72.8194 422.444 71.9614 421.531 71.9614 420.409C71.9614 419.287 72.8194 418.385 73.8644 418.385C74.9094 418.385 75.7674 419.287 75.7674 420.409C75.7674 421.531 74.9094 422.444 73.8644 422.444ZM84.5461 417.439C83.6551 417.439 82.9621 417.989 82.7861 418.792C82.5001 417.967 81.7851 417.439 80.8831 417.439C80.1461 417.439 79.5521 417.802 79.2661 418.385V417.571H78.1771V423.258H79.2661V419.705C79.2661 418.924 79.8381 418.385 80.6631 418.385C81.3671 418.385 81.8621 418.968 81.8621 419.804V423.258H82.9291V419.705C82.9291 418.924 83.5121 418.385 84.3261 418.385C85.0301 418.385 85.5361 418.968 85.5361 419.804V423.258H86.5921V419.639C86.5921 418.352 85.7341 417.439 84.5461 417.439ZM94.6223 417.439C93.7313 417.439 93.0383 417.989 92.8623 418.792C92.5763 417.967 91.8613 417.439 90.9593 417.439C90.2223 417.439 89.6283 417.802 89.3423 418.385V417.571H88.2533V423.258H89.3423V419.705C89.3423 418.924 89.9143 418.385 90.7393 418.385C91.4433 418.385 91.9383 418.968 91.9383 419.804V423.258H93.0053V419.705C93.0053 418.924 93.5883 418.385 94.4023 418.385C95.1063 418.385 95.6123 418.968 95.6123 419.804V423.258H96.6683V419.639C96.6683 418.352 95.8103 417.439 94.6223 417.439ZM102.146 417.571V421.102C102.146 421.85 101.453 422.444 100.584 422.444C99.8145 422.444 99.2755 421.861 99.2755 421.003V417.571H98.2085V421.19C98.2085 422.499 99.0775 423.39 100.331 423.39C101.112 423.39 101.805 423.005 102.146 422.444V423.258H103.235V417.571H102.146ZM107.937 417.439C107.156 417.439 106.452 417.835 106.122 418.407V417.571H105.033V423.258H106.122V419.727C106.122 418.979 106.826 418.385 107.695 418.385C108.465 418.385 109.004 418.968 109.004 419.826V423.258H110.06V419.639C110.06 418.33 109.191 417.439 107.937 417.439ZM112.275 416.625C112.638 416.625 112.924 416.317 112.924 415.965C112.924 415.624 112.638 415.316 112.275 415.316C111.912 415.316 111.615 415.624 111.615 415.965C111.615 416.317 111.912 416.625 112.275 416.625ZM111.725 423.258H112.814V417.571H111.725V423.258ZM117.024 422.235C116.914 422.356 116.694 422.444 116.452 422.444C116.133 422.444 115.858 422.158 115.858 421.762V418.495H117.2V417.571H115.858V416.009H114.791V417.571H113.944V418.495H114.791V421.839C114.791 422.752 115.407 423.39 116.287 423.39C116.694 423.39 117.123 423.236 117.431 422.983L117.024 422.235ZM119.305 425.238C120.119 425.227 120.724 424.798 121.131 423.775L123.639 417.571H122.506L120.779 422.059L118.953 417.571H117.787L120.229 423.291L119.943 423.896C119.756 424.226 119.514 424.336 119.162 424.336C118.942 424.336 118.689 424.281 118.469 424.16L118.227 424.996C118.524 425.15 118.92 425.238 119.305 425.238ZM124.615 425.128C126.122 423.929 126.969 422.257 126.969 420.343C126.969 418.418 126.122 416.757 124.615 415.558L124.054 416.152C125.231 417.362 125.858 418.605 125.858 420.343C125.858 422.07 125.231 423.324 124.054 424.523L124.615 425.128ZM129.343 423.39C129.739 423.39 130.058 423.049 130.058 422.642C130.058 422.268 129.739 421.927 129.343 421.927C128.925 421.927 128.595 422.268 128.595 422.642C128.595 423.049 128.925 423.39 129.343 423.39Z" fill="white"/>
<path d="M37.8793 292.258H51.5593V237.298H40.5993L23.1593 248.978L28.5993 258.498L37.8793 252.738V292.258ZM86.5256 293.218C101.406 293.218 111.886 281.458 111.886 264.738C111.886 248.098 101.406 236.338 86.5256 236.338C71.7256 236.338 61.2456 248.098 61.2456 264.738C61.2456 281.458 71.7256 293.218 86.5256 293.218ZM86.5256 280.818C79.9656 280.818 75.3256 274.098 75.3256 264.738C75.3256 255.378 79.9656 248.738 86.5256 248.738C93.1656 248.738 97.8056 255.378 97.8056 264.738C97.8056 274.098 93.1656 280.818 86.5256 280.818ZM144.182 293.218C159.062 293.218 169.542 281.458 169.542 264.738C169.542 248.098 159.062 236.338 144.182 236.338C129.382 236.338 118.902 248.098 118.902 264.738C118.902 281.458 129.382 293.218 144.182 293.218ZM144.182 280.818C137.622 280.818 132.982 274.098 132.982 264.738C132.982 255.378 137.622 248.738 144.182 248.738C150.822 248.738 155.462 255.378 155.462 264.738C155.462 274.098 150.822 280.818 144.182 280.818ZM191.198 265.058C199.518 265.058 205.278 258.898 205.278 250.898C205.278 243.138 199.758 236.738 191.198 236.738C182.718 236.738 177.198 243.058 177.198 250.898C177.198 258.898 182.798 265.058 191.198 265.058ZM184.558 292.258H194.878L233.278 237.298H222.958L184.558 292.258ZM191.198 257.298C188.238 257.298 185.998 254.818 185.998 250.898C185.998 246.898 188.158 244.498 191.198 244.498C194.158 244.498 196.478 246.978 196.478 250.898C196.478 254.898 194.238 257.298 191.198 257.298ZM226.478 293.138C234.798 293.138 240.558 286.898 240.558 278.978C240.558 271.138 235.038 264.738 226.558 264.738C218.158 264.738 212.478 270.978 212.478 278.978C212.478 286.818 218.078 293.138 226.478 293.138ZM226.558 285.378C223.518 285.378 221.278 282.898 221.278 278.978C221.278 274.898 223.438 272.578 226.478 272.578C229.438 272.578 231.758 275.058 231.758 278.978C231.758 282.978 229.518 285.378 226.558 285.378Z" fill="white"/>
<path fill-rule="evenodd" clip-rule="evenodd" d="M254.226 254.896L273.405 236.122C274.582 234.97 276.491 234.97 277.668 236.122L296.848 254.896C298.025 256.048 298.025 257.915 296.848 259.067C295.671 260.22 293.762 260.22 292.585 259.067L278.55 245.33L278.55 291.308C278.55 292.937 277.201 294.258 275.537 294.258C273.872 294.258 272.523 292.937 272.523 291.308L272.523 245.33L258.488 259.067C257.311 260.22 255.402 260.22 254.226 259.067C253.049 257.915 253.049 256.048 254.226 254.896Z" fill="#92EFDF"/>
<line x1="24" y1="317.758" x2="297.73" y2="317.758" stroke="white"/>
<path d="M0 75.7744H327" stroke="#B7B7B7" stroke-width="0.5" stroke-miterlimit="10"/>
<path d="M0 27.9526H327" stroke="#B7B7B7" stroke-width="0.5" stroke-miterlimit="10"/>
<path d="M20.1002 133.975C20.1002 132.045 18.4802 130.425 16.5402 130.425C14.6202 130.425 12.9802 132.045 12.9802 133.975C12.9802 135.905 14.6202 137.535 16.5402 137.535C17.3602 137.535 18.1202 137.245 18.7202 136.765L19.4702 137.415L20.0502 136.735L19.3502 136.135C19.8202 135.525 20.1002 134.775 20.1002 133.975ZM16.5402 136.605C15.1702 136.605 14.0102 135.405 14.0102 133.975C14.0102 132.555 15.1702 131.355 16.5402 131.355C17.9102 131.355 19.0702 132.555 19.0702 133.975C19.0702 134.525 18.9002 135.045 18.6002 135.475L17.5602 134.575L16.9802 135.255L17.9802 136.125C17.5702 136.425 17.0702 136.605 16.5402 136.605ZM22.5612 137.415H23.5712V130.545H22.7612L20.9512 131.775L21.3712 132.505L22.5612 131.745V137.415Z" fill="#0F0B47"/>
<path d="M49.4632 165.258H54.8132V163.728H52.0832L53.1632 162.958C54.3632 162.138 54.7432 161.428 54.7432 160.518C54.7432 159.208 53.6632 158.268 52.1232 158.268C50.9932 158.268 50.1032 158.738 49.3732 159.618L50.4432 160.678C50.9632 160.128 51.4432 159.818 52.0832 159.818C52.5832 159.818 52.9932 160.118 52.9932 160.588C52.9932 161.008 52.7732 161.388 52.0032 161.968L49.4632 163.868V165.258ZM58.893 165.378C60.753 165.378 62.063 163.908 62.063 161.818C62.063 159.738 60.753 158.268 58.893 158.268C57.043 158.268 55.733 159.738 55.733 161.818C55.733 163.908 57.043 165.378 58.893 165.378ZM58.893 163.828C58.073 163.828 57.493 162.988 57.493 161.818C57.493 160.648 58.073 159.818 58.893 159.818C59.723 159.818 60.303 160.648 60.303 161.818C60.303 162.988 59.723 163.828 58.893 163.828ZM62.93 165.258H68.28V163.728H65.55L66.63 162.958C67.83 162.138 68.21 161.428 68.21 160.518C68.21 159.208 67.13 158.268 65.59 158.268C64.46 158.268 63.57 158.738 62.84 159.618L63.91 160.678C64.43 160.128 64.91 159.818 65.55 159.818C66.05 159.818 66.46 160.118 66.46 160.588C66.46 161.008 66.24 161.388 65.47 161.968L62.93 163.868V165.258ZM72.3598 165.378C74.2198 165.378 75.5298 163.908 75.5298 161.818C75.5298 159.738 74.2198 158.268 72.3598 158.268C70.5098 158.268 69.1998 159.738 69.1998 161.818C69.1998 163.908 70.5098 165.378 72.3598 165.378ZM72.3598 163.828C71.5398 163.828 70.9598 162.988 70.9598 161.818C70.9598 160.648 71.5398 159.818 72.3598 159.818C73.1898 159.818 73.7698 160.648 73.7698 161.818C73.7698 162.988 73.1898 163.828 72.3598 163.828Z" fill="#0F0B47"/>
<path d="M166.791 165.258H172.141V163.728H169.411L170.491 162.958C171.691 162.138 172.071 161.428 172.071 160.518C172.071 159.208 170.991 158.268 169.451 158.268C168.321 158.268 167.431 158.738 166.701 159.618L167.771 160.678C168.291 160.128 168.771 159.818 169.411 159.818C169.911 159.818 170.321 160.118 170.321 160.588C170.321 161.008 170.101 161.388 169.331 161.968L166.791 163.868V165.258ZM176.221 165.378C178.081 165.378 179.391 163.908 179.391 161.818C179.391 159.738 178.081 158.268 176.221 158.268C174.371 158.268 173.061 159.738 173.061 161.818C173.061 163.908 174.371 165.378 176.221 165.378ZM176.221 163.828C175.401 163.828 174.821 162.988 174.821 161.818C174.821 160.648 175.401 159.818 176.221 159.818C177.051 159.818 177.631 160.648 177.631 161.818C177.631 162.988 177.051 163.828 176.221 163.828ZM180.258 165.258H185.608V163.728H182.878L183.958 162.958C185.158 162.138 185.538 161.428 185.538 160.518C185.538 159.208 184.458 158.268 182.918 158.268C181.788 158.268 180.898 158.738 180.168 159.618L181.238 160.678C181.758 160.128 182.238 159.818 182.878 159.818C183.378 159.818 183.788 160.118 183.788 160.588C183.788 161.008 183.568 161.388 182.798 161.968L180.258 163.868V165.258ZM188.158 165.258H189.868V158.388H188.498L186.318 159.848L186.998 161.038L188.158 160.318V165.258Z" fill="#0F0B47"/>
<path d="M267.437 165.258H272.787V163.728H270.057L271.137 162.958C272.337 162.138 272.717 161.428 272.717 160.518C272.717 159.208 271.637 158.268 270.097 158.268C268.967 158.268 268.077 158.738 267.347 159.618L268.417 160.678C268.937 160.128 269.417 159.818 270.057 159.818C270.557 159.818 270.967 160.118 270.967 160.588C270.967 161.008 270.747 161.388 269.977 161.968L267.437 163.868V165.258ZM276.867 165.378C278.727 165.378 280.037 163.908 280.037 161.818C280.037 159.738 278.727 158.268 276.867 158.268C275.017 158.268 273.707 159.738 273.707 161.818C273.707 163.908 275.017 165.378 276.867 165.378ZM276.867 163.828C276.047 163.828 275.467 162.988 275.467 161.818C275.467 160.648 276.047 159.818 276.867 159.818C277.697 159.818 278.277 160.648 278.277 161.818C278.277 162.988 277.697 163.828 276.867 163.828ZM280.904 165.258H286.254V163.728H283.524L284.604 162.958C285.804 162.138 286.184 161.428 286.184 160.518C286.184 159.208 285.104 158.268 283.564 158.268C282.434 158.268 281.544 158.738 280.814 159.618L281.884 160.678C282.404 160.128 282.884 159.818 283.524 159.818C284.024 159.818 284.434 160.118 284.434 160.588C284.434 161.008 284.214 161.388 283.444 161.968L280.904 163.868V165.258ZM287.163 165.258H292.513V163.728H289.783L290.863 162.958C292.063 162.138 292.443 161.428 292.443 160.518C292.443 159.208 291.363 158.268 289.823 158.268C288.693 158.268 287.803 158.738 287.073 159.618L288.143 160.678C288.663 160.128 289.143 159.818 289.783 159.818C290.283 159.818 290.693 160.118 290.693 160.588C290.693 161.008 290.473 161.388 289.703 161.968L287.163 163.868V165.258Z" fill="#0F0B47"/>
<path d="M113 149.258L12 149.258" stroke="black" stroke-width="0.5"/>
<path d="M229 149.258L129.47 149.258" stroke="black" stroke-width="0.5"/>
<path d="M315 149.258L245.567 149.258" stroke="black" stroke-width="0.5"/>
<path d="M47.1041 133.975C47.1041 132.045 45.4841 130.425 43.5441 130.425C41.6241 130.425 39.9841 132.045 39.9841 133.975C39.9841 135.905 41.6241 137.535 43.5441 137.535C44.3641 137.535 45.1241 137.245 45.7241 136.765L46.4741 137.415L47.0541 136.735L46.3541 136.135C46.8241 135.525 47.1041 134.775 47.1041 133.975ZM43.5441 136.605C42.1741 136.605 41.0141 135.405 41.0141 133.975C41.0141 132.555 42.1741 131.355 43.5441 131.355C44.9141 131.355 46.0741 132.555 46.0741 133.975C46.0741 134.525 45.9041 135.045 45.6041 135.475L44.5641 134.575L43.9841 135.255L44.9841 136.125C44.5741 136.425 44.0741 136.605 43.5441 136.605ZM48.1051 137.415H52.9951V136.475H49.7051L51.3151 135.115C52.4951 134.155 52.9351 133.425 52.9351 132.505C52.9351 131.255 51.9151 130.425 50.6351 130.425C49.5451 130.425 48.7351 130.925 48.1351 131.755L48.8151 132.355C49.2951 131.735 49.8451 131.335 50.5951 131.335C51.2751 131.335 51.8951 131.775 51.8951 132.525C51.8951 133.145 51.5451 133.735 50.6251 134.505L48.1051 136.585V137.415Z" fill="#0F0B47"/>
<path d="M76.0357 133.975C76.0357 132.045 74.4157 130.425 72.4757 130.425C70.5557 130.425 68.9157 132.045 68.9157 133.975C68.9157 135.905 70.5557 137.535 72.4757 137.535C73.2957 137.535 74.0557 137.245 74.6557 136.765L75.4057 137.415L75.9857 136.735L75.2857 136.135C75.7557 135.525 76.0357 134.775 76.0357 133.975ZM72.4757 136.605C71.1057 136.605 69.9457 135.405 69.9457 133.975C69.9457 132.555 71.1057 131.355 72.4757 131.355C73.8457 131.355 75.0057 132.555 75.0057 133.975C75.0057 134.525 74.8357 135.045 74.5357 135.475L73.4957 134.575L72.9157 135.255L73.9157 136.125C73.5057 136.425 73.0057 136.605 72.4757 136.605ZM79.5568 137.535C81.0468 137.535 82.0268 136.695 82.0268 135.535C82.0268 134.575 81.2768 134.055 80.5668 133.895C81.2868 133.675 81.8768 133.145 81.8768 132.295C81.8768 131.195 80.9168 130.425 79.5268 130.425C78.4068 130.425 77.6268 130.945 77.0968 131.635L77.7268 132.255C78.2068 131.695 78.7368 131.335 79.4568 131.335C80.2568 131.335 80.8568 131.795 80.8568 132.435C80.8568 133.125 80.2468 133.505 79.3768 133.505L78.6268 133.495V134.395H79.3768C80.3968 134.385 80.9968 134.755 80.9968 135.465C80.9968 136.155 80.4268 136.625 79.5368 136.625C78.7468 136.625 78.0768 136.255 77.6168 135.695L76.9668 136.365C77.4968 137.025 78.3868 137.535 79.5568 137.535Z" fill="#0F0B47"/>
<path d="M105.963 133.975C105.963 132.045 104.343 130.425 102.403 130.425C100.483 130.425 98.8425 132.045 98.8425 133.975C98.8425 135.905 100.483 137.535 102.403 137.535C103.223 137.535 103.983 137.245 104.583 136.765L105.333 137.415L105.913 136.735L105.213 136.135C105.683 135.525 105.963 134.775 105.963 133.975ZM102.403 136.605C101.033 136.605 99.8725 135.405 99.8725 133.975C99.8725 132.555 101.033 131.355 102.403 131.355C103.773 131.355 104.933 132.555 104.933 133.975C104.933 134.525 104.763 135.045 104.463 135.475L103.423 134.575L102.843 135.255L103.843 136.125C103.433 136.425 102.933 136.605 102.403 136.605ZM110.404 137.415H111.414V135.835H112.404V134.945H111.414V130.545H110.214L106.884 135.025L106.994 135.835H110.404V137.415ZM107.994 134.945L110.404 131.695V134.945H107.994Z" fill="#0F0B47"/>
<path d="M136.1 133.975C136.1 132.045 134.48 130.425 132.54 130.425C130.62 130.425 128.98 132.045 128.98 133.975C128.98 135.905 130.62 137.535 132.54 137.535C133.36 137.535 134.12 137.245 134.72 136.765L135.47 137.415L136.05 136.735L135.35 136.135C135.82 135.525 136.1 134.775 136.1 133.975ZM132.54 136.605C131.17 136.605 130.01 135.405 130.01 133.975C130.01 132.555 131.17 131.355 132.54 131.355C133.91 131.355 135.07 132.555 135.07 133.975C135.07 134.525 134.9 135.045 134.6 135.475L133.56 134.575L132.98 135.255L133.98 136.125C133.57 136.425 133.07 136.605 132.54 136.605ZM138.561 137.415H139.571V130.545H138.761L136.951 131.775L137.371 132.505L138.561 131.745V137.415Z" fill="#0F0B47"/>
<path d="M163.104 133.975C163.104 132.045 161.484 130.425 159.544 130.425C157.624 130.425 155.984 132.045 155.984 133.975C155.984 135.905 157.624 137.535 159.544 137.535C160.364 137.535 161.124 137.245 161.724 136.765L162.474 137.415L163.054 136.735L162.354 136.135C162.824 135.525 163.104 134.775 163.104 133.975ZM159.544 136.605C158.174 136.605 157.014 135.405 157.014 133.975C157.014 132.555 158.174 131.355 159.544 131.355C160.914 131.355 162.074 132.555 162.074 133.975C162.074 134.525 161.904 135.045 161.604 135.475L160.564 134.575L159.984 135.255L160.984 136.125C160.574 136.425 160.074 136.605 159.544 136.605ZM164.105 137.415H168.995V136.475H165.705L167.315 135.115C168.495 134.155 168.935 133.425 168.935 132.505C168.935 131.255 167.915 130.425 166.635 130.425C165.545 130.425 164.735 130.925 164.135 131.755L164.815 132.355C165.295 131.735 165.845 131.335 166.595 131.335C167.275 131.335 167.895 131.775 167.895 132.525C167.895 133.145 167.545 133.735 166.625 134.505L164.105 136.585V137.415Z" fill="#0F0B47"/>
<path d="M192.036 133.975C192.036 132.045 190.416 130.425 188.476 130.425C186.556 130.425 184.916 132.045 184.916 133.975C184.916 135.905 186.556 137.535 188.476 137.535C189.296 137.535 190.056 137.245 190.656 136.765L191.406 137.415L191.986 136.735L191.286 136.135C191.756 135.525 192.036 134.775 192.036 133.975ZM188.476 136.605C187.106 136.605 185.946 135.405 185.946 133.975C185.946 132.555 187.106 131.355 188.476 131.355C189.846 131.355 191.006 132.555 191.006 133.975C191.006 134.525 190.836 135.045 190.536 135.475L189.496 134.575L188.916 135.255L189.916 136.125C189.506 136.425 189.006 136.605 188.476 136.605ZM195.557 137.535C197.047 137.535 198.027 136.695 198.027 135.535C198.027 134.575 197.277 134.055 196.567 133.895C197.287 133.675 197.877 133.145 197.877 132.295C197.877 131.195 196.917 130.425 195.527 130.425C194.407 130.425 193.627 130.945 193.097 131.635L193.727 132.255C194.207 131.695 194.737 131.335 195.457 131.335C196.257 131.335 196.857 131.795 196.857 132.435C196.857 133.125 196.247 133.505 195.377 133.505L194.627 133.495V134.395H195.377C196.397 134.385 196.997 134.755 196.997 135.465C196.997 136.155 196.427 136.625 195.537 136.625C194.747 136.625 194.077 136.255 193.617 135.695L192.967 136.365C193.497 137.025 194.387 137.535 195.557 137.535Z" fill="#0F0B47"/>
<path d="M221.963 133.818C221.963 131.888 220.343 130.268 218.403 130.268C216.483 130.268 214.843 131.888 214.843 133.818C214.843 135.748 216.483 137.378 218.403 137.378C219.223 137.378 219.983 137.088 220.583 136.608L221.333 137.258L221.913 136.578L221.213 135.978C221.683 135.368 221.963 134.618 221.963 133.818ZM218.403 136.448C217.033 136.448 215.873 135.248 215.873 133.818C215.873 132.398 217.033 131.198 218.403 131.198C219.773 131.198 220.933 132.398 220.933 133.818C220.933 134.368 220.763 134.888 220.463 135.318L219.423 134.418L218.843 135.098L219.843 135.968C219.433 136.268 218.933 136.448 218.403 136.448ZM226.404 137.258H227.414V135.678H228.404V134.788H227.414V130.388H226.214L222.884 134.868L222.994 135.678H226.404V137.258ZM223.994 134.788L226.404 131.538V134.788H223.994Z" fill="#0F0B47"/>
<path d="M252.1 133.975C252.1 132.045 250.48 130.425 248.54 130.425C246.62 130.425 244.98 132.045 244.98 133.975C244.98 135.905 246.62 137.535 248.54 137.535C249.36 137.535 250.12 137.245 250.72 136.765L251.47 137.415L252.05 136.735L251.35 136.135C251.82 135.525 252.1 134.775 252.1 133.975ZM248.54 136.605C247.17 136.605 246.01 135.405 246.01 133.975C246.01 132.555 247.17 131.355 248.54 131.355C249.91 131.355 251.07 132.555 251.07 133.975C251.07 134.525 250.9 135.045 250.6 135.475L249.56 134.575L248.98 135.255L249.98 136.125C249.57 136.425 249.07 136.605 248.54 136.605ZM254.561 137.415H255.571V130.545H254.761L252.951 131.775L253.371 132.505L254.561 131.745V137.415Z" fill="#0F0B47"/>
<path d="M279.104 133.975C279.104 132.045 277.484 130.425 275.544 130.425C273.624 130.425 271.984 132.045 271.984 133.975C271.984 135.905 273.624 137.535 275.544 137.535C276.364 137.535 277.124 137.245 277.724 136.765L278.474 137.415L279.054 136.735L278.354 136.135C278.824 135.525 279.104 134.775 279.104 133.975ZM275.544 136.605C274.174 136.605 273.014 135.405 273.014 133.975C273.014 132.555 274.174 131.355 275.544 131.355C276.914 131.355 278.074 132.555 278.074 133.975C278.074 134.525 277.904 135.045 277.604 135.475L276.564 134.575L275.984 135.255L276.984 136.125C276.574 136.425 276.074 136.605 275.544 136.605ZM280.105 137.415H284.995V136.475H281.705L283.315 135.115C284.495 134.155 284.935 133.425 284.935 132.505C284.935 131.255 283.915 130.425 282.635 130.425C281.545 130.425 280.735 130.925 280.135 131.755L280.815 132.355C281.295 131.735 281.845 131.335 282.595 131.335C283.275 131.335 283.895 131.775 283.895 132.525C283.895 133.145 283.545 133.735 282.625 134.505L280.105 136.585V137.415Z" fill="#0F0B47"/>
<path d="M308.036 133.975C308.036 132.045 306.416 130.425 304.476 130.425C302.556 130.425 300.916 132.045 300.916 133.975C300.916 135.905 302.556 137.535 304.476 137.535C305.296 137.535 306.056 137.245 306.656 136.765L307.406 137.415L307.986 136.735L307.286 136.135C307.756 135.525 308.036 134.775 308.036 133.975ZM304.476 136.605C303.106 136.605 301.946 135.405 301.946 133.975C301.946 132.555 303.106 131.355 304.476 131.355C305.846 131.355 307.006 132.555 307.006 133.975C307.006 134.525 306.836 135.045 306.536 135.475L305.496 134.575L304.916 135.255L305.916 136.125C305.506 136.425 305.006 136.605 304.476 136.605ZM311.557 137.535C313.047 137.535 314.027 136.695 314.027 135.535C314.027 134.575 313.277 134.055 312.567 133.895C313.287 133.675 313.877 133.145 313.877 132.295C313.877 131.195 312.917 130.425 311.527 130.425C310.407 130.425 309.627 130.945 309.097 131.635L309.727 132.255C310.207 131.695 310.737 131.335 311.457 131.335C312.257 131.335 312.857 131.795 312.857 132.435C312.857 133.125 312.247 133.505 311.377 133.505L310.627 133.495V134.395H311.377C312.397 134.385 312.997 134.755 312.997 135.465C312.997 136.155 312.427 136.625 311.537 136.625C310.747 136.625 310.077 136.255 309.617 135.695L308.967 136.365C309.497 137.025 310.387 137.535 311.557 137.535Z" fill="#0F0B47"/>
<line x1="18.5459" y1="16.2744" x2="18.5459" y2="110.374" stroke="#0F0B47" stroke-width="0.5" stroke-linecap="square" stroke-dasharray="5 5"/>
<line x1="47.9766" y1="16.2744" x2="47.9766" y2="108.272" stroke="#0F0B47" stroke-width="0.5" stroke-linecap="square" stroke-dasharray="5 5"/>
<line x1="76.3564" y1="16.2744" x2="76.3564" y2="103.016" stroke="#0F0B47" stroke-width="0.5" stroke-linecap="square" stroke-dasharray="5 5"/>
<line x1="105.788" y1="16.2744" x2="105.788" y2="97.7605" stroke="#0F0B47" stroke-width="0.5" stroke-linecap="square" stroke-dasharray="5 5"/>
<line x1="135.219" y1="16.2744" x2="135.219" y2="93.5561" stroke="#0F0B47" stroke-width="0.5" stroke-linecap="square" stroke-dasharray="5 5"/>
<line x1="163.599" y1="16.2744" x2="163.599" y2="87.2495" stroke="#0F0B47" stroke-width="0.5" stroke-linecap="square" stroke-dasharray="5 5"/>
<line x1="193.029" y1="16.2744" x2="193.029" y2="78.8406" stroke="#0F0B47" stroke-width="0.5" stroke-linecap="square" stroke-dasharray="5 5"/>
<line x1="221.409" y1="16.2744" x2="221.409" y2="71.4829" stroke="#0F0B47" stroke-width="0.5" stroke-linecap="square" stroke-dasharray="5 5"/>
<line x1="250.84" y1="16.2744" x2="250.84" y2="65.1763" stroke="#0F0B47" stroke-width="0.5" stroke-linecap="square" stroke-dasharray="5 5"/>
<line x1="280.271" y1="16.2744" x2="280.271" y2="41.0009" stroke="#0F0B47" stroke-width="0.5" stroke-linecap="square" stroke-dasharray="5 5"/>
<line x1="308.65" y1="16.2744" x2="308.65" y2="34.6943" stroke="#0F0B47" stroke-width="0.5" stroke-linecap="square" stroke-dasharray="5 5"/>
<path d="M13.9905 7.3999H14.7985V1.9039H14.1505L12.7025 2.8879L13.0385 3.4719L13.9905 2.8639V7.3999ZM18.3814 7.4959C19.7494 7.4959 20.7174 6.3199 20.7174 4.6479C20.7174 2.9839 19.7494 1.8079 18.3814 1.8079C16.9974 1.8079 16.0294 2.9839 16.0294 4.6479C16.0294 6.3199 16.9974 7.4959 18.3814 7.4959ZM18.3814 6.7519C17.4854 6.7519 16.8534 5.8799 16.8534 4.6479C16.8534 3.4159 17.4854 2.5519 18.3814 2.5519C19.2694 2.5519 19.8934 3.4159 19.8934 4.6479C19.8934 5.8799 19.2694 6.7519 18.3814 6.7519ZM23.9673 7.4959C25.3353 7.4959 26.3033 6.3199 26.3033 4.6479C26.3033 2.9839 25.3353 1.8079 23.9673 1.8079C22.5833 1.8079 21.6153 2.9839 21.6153 4.6479C21.6153 6.3199 22.5833 7.4959 23.9673 7.4959ZM23.9673 6.7519C23.0713 6.7519 22.4393 5.8799 22.4393 4.6479C22.4393 3.4159 23.0713 2.5519 23.9673 2.5519C24.8553 2.5519 25.4793 3.4159 25.4793 4.6479C25.4793 5.8799 24.8553 6.7519 23.9673 6.7519Z" fill="#0F0B47"/>
<path d="M43.9063 7.25781H44.7143V1.76181H44.0663L42.6183 2.74581L42.9543 3.32981L43.9063 2.72181V7.25781ZM47.8012 7.35381C48.9932 7.35381 49.7772 6.68181 49.7772 5.75381C49.7772 4.98581 49.1772 4.56981 48.6092 4.44181C49.1852 4.26581 49.6572 3.84181 49.6572 3.16181C49.6572 2.28181 48.8892 1.66581 47.7772 1.66581C46.8812 1.66581 46.2572 2.08181 45.8332 2.63381L46.3372 3.12981C46.7212 2.68181 47.1452 2.39381 47.7212 2.39381C48.3612 2.39381 48.8412 2.76181 48.8412 3.27381C48.8412 3.82581 48.3532 4.12981 47.6572 4.12981L47.0572 4.12181V4.84181H47.6572C48.4732 4.83381 48.9532 5.12981 48.9532 5.69781C48.9532 6.24981 48.4972 6.62581 47.7852 6.62581C47.1532 6.62581 46.6172 6.32981 46.2492 5.88181L45.7292 6.41781C46.1532 6.94581 46.8652 7.35381 47.8012 7.35381ZM50.5352 7.25781H54.4472V6.50581H51.8152L53.1032 5.41781C54.0472 4.64981 54.3992 4.06581 54.3992 3.32981C54.3992 2.32981 53.5832 1.66581 52.5592 1.66581C51.6872 1.66581 51.0392 2.06581 50.5592 2.72981L51.1032 3.20981C51.4872 2.71381 51.9272 2.39381 52.5272 2.39381C53.0712 2.39381 53.5672 2.74581 53.5672 3.34581C53.5672 3.84181 53.2872 4.31381 52.5512 4.92981L50.5352 6.59381V7.25781Z" fill="#0F0B47"/>
<path d="M72.3818 7.25781H73.1898V1.76181H72.5418L71.0938 2.74581L71.4298 3.32981L72.3818 2.72181V7.25781ZM74.7646 7.25781H75.6926L78.0126 2.36981V1.76181H74.1646V2.51381H77.0606L74.7646 7.25781ZM78.5341 7.25781H82.4461V6.50581H79.8141L81.1021 5.41781C82.0461 4.64981 82.3981 4.06581 82.3981 3.32981C82.3981 2.32981 81.5821 1.66581 80.5581 1.66581C79.6861 1.66581 79.0381 2.06581 78.5581 2.72981L79.1021 3.20981C79.4861 2.71381 79.9261 2.39381 80.5261 2.39381C81.0701 2.39381 81.5661 2.74581 81.5661 3.34581C81.5661 3.84181 81.2861 4.31381 80.5501 4.92981L78.5341 6.59381V7.25781Z" fill="#0F0B47"/>
<path d="M100.646 7.5166H104.558V6.7646H101.926L103.214 5.6766C104.158 4.9086 104.51 4.3246 104.51 3.5886C104.51 2.5886 103.694 1.9246 102.67 1.9246C101.798 1.9246 101.15 2.3246 100.67 2.9886L101.214 3.4686C101.598 2.9726 102.038 2.6526 102.638 2.6526C103.182 2.6526 103.678 3.0046 103.678 3.6046C103.678 4.1006 103.398 4.5726 102.662 5.1886L100.646 6.8526V7.5166ZM106.454 7.5166H107.262V2.0206H106.614L105.166 3.0046L105.502 3.5886L106.454 2.9806V7.5166ZM110.445 7.6126C111.629 7.6126 112.469 6.8846 112.469 5.7726C112.469 4.6766 111.645 4.0526 110.653 4.0526C110.173 4.0526 109.805 4.2126 109.517 4.4046L109.565 2.7726H112.173V2.0206H108.797L108.717 4.8926L109.285 5.1486C109.613 4.9006 109.997 4.7486 110.453 4.7486C111.165 4.7486 111.661 5.1726 111.661 5.8046C111.661 6.4206 111.173 6.9006 110.461 6.9006C109.877 6.9006 109.365 6.6126 108.949 6.1726L108.445 6.7486C108.909 7.2606 109.573 7.6126 110.445 7.6126Z" fill="#0F0B47"/>
<path d="M128.306 7.63135H132.218V6.87935H129.586L130.874 5.79135C131.818 5.02335 132.17 4.43935 132.17 3.70335C132.17 2.70335 131.354 2.03935 130.33 2.03935C129.458 2.03935 128.81 2.43935 128.33 3.10335L128.874 3.58335C129.258 3.08735 129.698 2.76735 130.298 2.76735C130.842 2.76735 131.338 3.11935 131.338 3.71935C131.338 4.21535 131.058 4.68735 130.322 5.30335L128.306 6.96735V7.63135ZM135.059 7.72735C136.243 7.72735 137.083 6.99935 137.083 5.88735C137.083 4.79135 136.259 4.16735 135.267 4.16735C134.787 4.16735 134.419 4.32735 134.131 4.51935L134.179 2.88735H136.787V2.13535H133.411L133.331 5.00735L133.899 5.26335C134.227 5.01535 134.611 4.86335 135.067 4.86335C135.779 4.86335 136.275 5.28735 136.275 5.91935C136.275 6.53535 135.787 7.01535 135.075 7.01535C134.491 7.01535 133.979 6.72735 133.563 6.28735L133.059 6.86335C133.523 7.37535 134.187 7.72735 135.059 7.72735ZM140.519 7.63135H141.327V6.36735H142.119V5.65535H141.327V2.13535H140.367L137.703 5.71935L137.791 6.36735H140.519V7.63135ZM138.591 5.65535L140.519 3.05535V5.65535H138.591Z" fill="#0F0B47"/>
<path d="M158.341 7.6126C159.533 7.6126 160.317 6.9406 160.317 6.0126C160.317 5.2446 159.717 4.8286 159.149 4.7006C159.725 4.5246 160.197 4.1006 160.197 3.4206C160.197 2.5406 159.429 1.9246 158.317 1.9246C157.421 1.9246 156.797 2.3406 156.373 2.8926L156.877 3.3886C157.261 2.9406 157.685 2.6526 158.261 2.6526C158.901 2.6526 159.381 3.0206 159.381 3.5326C159.381 4.0846 158.893 4.3886 158.197 4.3886L157.597 4.3806V5.1006H158.197C159.013 5.0926 159.493 5.3886 159.493 5.9566C159.493 6.5086 159.037 6.8846 158.325 6.8846C157.693 6.8846 157.157 6.5886 156.789 6.1406L156.269 6.6766C156.693 7.2046 157.405 7.6126 158.341 7.6126ZM163.587 7.6126C164.955 7.6126 165.923 6.4366 165.923 4.7646C165.923 3.1006 164.955 1.9246 163.587 1.9246C162.203 1.9246 161.235 3.1006 161.235 4.7646C161.235 6.4366 162.203 7.6126 163.587 7.6126ZM163.587 6.8686C162.691 6.8686 162.059 5.9966 162.059 4.7646C162.059 3.5326 162.691 2.6686 163.587 2.6686C164.475 2.6686 165.099 3.5326 165.099 4.7646C165.099 5.9966 164.475 6.8686 163.587 6.8686ZM169.173 7.6126C170.541 7.6126 171.509 6.4366 171.509 4.7646C171.509 3.1006 170.541 1.9246 169.173 1.9246C167.789 1.9246 166.821 3.1006 166.821 4.7646C166.821 6.4366 167.789 7.6126 169.173 7.6126ZM169.173 6.8686C168.277 6.8686 167.645 5.9966 167.645 4.7646C167.645 3.5326 168.277 2.6686 169.173 2.6686C170.061 2.6686 170.685 3.5326 170.685 4.7646C170.685 5.9966 170.061 6.8686 169.173 6.8686Z" fill="#0F0B47"/>
<path d="M188.707 7.61309C189.899 7.61309 190.683 6.94109 190.683 6.01309C190.683 5.24509 190.083 4.82909 189.515 4.70109C190.091 4.52509 190.563 4.10109 190.563 3.42109C190.563 2.54109 189.795 1.92509 188.683 1.92509C187.787 1.92509 187.163 2.34109 186.739 2.89309L187.243 3.38909C187.627 2.94109 188.051 2.65309 188.627 2.65309C189.267 2.65309 189.747 3.02109 189.747 3.53309C189.747 4.08509 189.259 4.38909 188.563 4.38909L187.963 4.38109V5.10109H188.563C189.379 5.09309 189.859 5.38909 189.859 5.95709C189.859 6.50909 189.403 6.88509 188.691 6.88509C188.059 6.88509 187.523 6.58909 187.155 6.14109L186.635 6.67709C187.059 7.20509 187.771 7.61309 188.707 7.61309ZM191.945 7.51709H192.873L195.193 2.62909V2.02109H191.345V2.77309H194.241L191.945 7.51709ZM197.73 7.61309C198.922 7.61309 199.706 6.94109 199.706 6.01309C199.706 5.24509 199.106 4.82909 198.538 4.70109C199.114 4.52509 199.586 4.10109 199.586 3.42109C199.586 2.54109 198.818 1.92509 197.706 1.92509C196.81 1.92509 196.186 2.34109 195.762 2.89309L196.266 3.38909C196.65 2.94109 197.074 2.65309 197.65 2.65309C198.29 2.65309 198.77 3.02109 198.77 3.53309C198.77 4.08509 198.282 4.38909 197.586 4.38909L196.986 4.38109V5.10109H197.586C198.402 5.09309 198.882 5.38909 198.882 5.95709C198.882 6.50909 198.426 6.88509 197.714 6.88509C197.082 6.88509 196.546 6.58909 196.178 6.14109L195.658 6.67709C196.082 7.20509 196.794 7.61309 197.73 7.61309Z" fill="#0F0B47"/>
<path d="M218.457 7.51709H219.265V6.25309H220.057V5.54109H219.265V2.02109H218.305L215.641 5.60509L215.729 6.25309H218.457V7.51709ZM216.529 5.54109L218.457 2.94109V5.54109H216.529ZM222.589 7.61309C223.781 7.61309 224.565 6.94109 224.565 6.01309C224.565 5.24509 223.965 4.82909 223.397 4.70109C223.973 4.52509 224.445 4.10109 224.445 3.42109C224.445 2.54109 223.677 1.92509 222.565 1.92509C221.669 1.92509 221.045 2.34109 220.621 2.89309L221.125 3.38909C221.509 2.94109 221.933 2.65309 222.509 2.65309C223.149 2.65309 223.629 3.02109 223.629 3.53309C223.629 4.08509 223.141 4.38909 222.445 4.38909L221.845 4.38109V5.10109H222.445C223.261 5.09309 223.741 5.38909 223.741 5.95709C223.741 6.50909 223.285 6.88509 222.573 6.88509C221.941 6.88509 221.405 6.58909 221.037 6.14109L220.517 6.67709C220.941 7.20509 221.653 7.61309 222.589 7.61309ZM227.547 7.61309C228.699 7.61309 229.619 7.02109 229.619 6.06909C229.619 5.39709 229.115 4.90909 228.459 4.67709C229.019 4.46109 229.483 4.05309 229.483 3.39709C229.483 2.48509 228.571 1.92509 227.547 1.92509C226.555 1.92509 225.619 2.46109 225.619 3.39709C225.619 4.02109 226.043 4.43709 226.643 4.67709C225.987 4.90109 225.475 5.38909 225.475 6.06909C225.475 7.01309 226.387 7.61309 227.547 7.61309ZM227.547 4.37309C227.059 4.34109 226.427 4.05309 226.427 3.48509C226.427 2.99709 226.915 2.63709 227.547 2.63709C228.179 2.63709 228.675 2.99709 228.675 3.48509C228.675 4.03709 228.051 4.34109 227.547 4.37309ZM227.547 6.90109C226.843 6.90109 226.291 6.53309 226.291 5.99709C226.291 5.41309 227.011 5.06109 227.547 5.04509C228.091 5.06109 228.803 5.41309 228.803 5.99709C228.803 6.53309 228.251 6.90109 227.547 6.90109Z" fill="#0F0B47"/>
<path d="M247.032 7.5166H247.84V6.2526H248.632V5.5406H247.84V2.0206H246.88L244.216 5.6046L244.304 6.2526H247.032V7.5166ZM245.104 5.5406L247.032 2.9406V5.5406H245.104ZM251.371 7.6126C252.523 7.6126 253.443 7.0206 253.443 6.0686C253.443 5.3966 252.939 4.9086 252.283 4.6766C252.843 4.4606 253.307 4.0526 253.307 3.3966C253.307 2.4846 252.395 1.9246 251.371 1.9246C250.379 1.9246 249.443 2.4606 249.443 3.3966C249.443 4.0206 249.867 4.4366 250.467 4.6766C249.811 4.9006 249.299 5.3886 249.299 6.0686C249.299 7.0126 250.211 7.6126 251.371 7.6126ZM251.371 4.3726C250.883 4.3406 250.251 4.0526 250.251 3.4846C250.251 2.9966 250.739 2.6366 251.371 2.6366C252.003 2.6366 252.499 2.9966 252.499 3.4846C252.499 4.0366 251.875 4.3406 251.371 4.3726ZM251.371 6.9006C250.667 6.9006 250.115 6.5326 250.115 5.9966C250.115 5.4126 250.835 5.0606 251.371 5.0446C251.915 5.0606 252.627 5.4126 252.627 5.9966C252.627 6.5326 252.075 6.9006 251.371 6.9006ZM256.258 1.9246C255.098 1.9246 254.266 2.7166 254.266 3.7726C254.266 4.8606 255.106 5.4926 256.114 5.4926C256.714 5.4926 257.266 5.2286 257.602 4.7726C257.57 5.9806 256.946 6.8846 256.114 6.8846C255.61 6.8846 255.258 6.6686 254.922 6.3566L254.506 6.9806C254.922 7.3566 255.426 7.6126 256.106 7.6126C257.442 7.6126 258.426 6.3486 258.426 4.6846C258.426 3.1166 257.786 1.9246 256.258 1.9246ZM256.298 4.8126C255.634 4.8126 255.09 4.4046 255.09 3.7326C255.09 3.1806 255.538 2.6126 256.282 2.6126C257.01 2.6126 257.402 3.1406 257.538 3.9326C257.386 4.4606 256.906 4.8126 256.298 4.8126Z" fill="#0F0B47"/>
<path d="M276.611 4.04509C276.011 4.04509 275.459 4.30909 275.123 4.76509C275.155 3.55709 275.779 2.65309 276.611 2.65309C277.115 2.65309 277.467 2.86909 277.803 3.18109L278.219 2.55709C277.803 2.18109 277.299 1.92509 276.619 1.92509C275.283 1.92509 274.299 3.18909 274.299 4.85309C274.299 6.42109 274.939 7.61309 276.467 7.61309C277.627 7.61309 278.459 6.82109 278.459 5.76509C278.459 4.67709 277.619 4.04509 276.611 4.04509ZM276.443 6.92509C275.715 6.92509 275.323 6.39709 275.187 5.60509C275.339 5.07709 275.819 4.72509 276.427 4.72509C277.091 4.72509 277.635 5.13309 277.635 5.80509C277.635 6.35709 277.187 6.92509 276.443 6.92509ZM281.202 1.92509C280.042 1.92509 279.21 2.71709 279.21 3.77309C279.21 4.86109 280.05 5.49309 281.058 5.49309C281.658 5.49309 282.21 5.22909 282.546 4.77309C282.514 5.98109 281.89 6.88509 281.058 6.88509C280.554 6.88509 280.202 6.66909 279.866 6.35709L279.45 6.98109C279.866 7.35709 280.37 7.61309 281.05 7.61309C282.386 7.61309 283.37 6.34909 283.37 4.68509C283.37 3.11709 282.73 1.92509 281.202 1.92509ZM281.242 4.81309C280.578 4.81309 280.034 4.40509 280.034 3.73309C280.034 3.18109 280.482 2.61309 281.226 2.61309C281.954 2.61309 282.346 3.14109 282.482 3.93309C282.33 4.46109 281.85 4.81309 281.242 4.81309ZM286.146 7.61309C287.338 7.61309 288.122 6.94109 288.122 6.01309C288.122 5.24509 287.522 4.82909 286.954 4.70109C287.53 4.52509 288.002 4.10109 288.002 3.42109C288.002 2.54109 287.234 1.92509 286.122 1.92509C285.226 1.92509 284.602 2.34109 284.178 2.89309L284.682 3.38909C285.066 2.94109 285.49 2.65309 286.066 2.65309C286.706 2.65309 287.186 3.02109 287.186 3.53309C287.186 4.08509 286.698 4.38909 286.002 4.38909L285.402 4.38109V5.10109H286.002C286.818 5.09309 287.298 5.38909 287.298 5.95709C287.298 6.50909 286.842 6.88509 286.13 6.88509C285.498 6.88509 284.962 6.58909 284.594 6.14109L284.074 6.67709C284.498 7.20509 285.21 7.61309 286.146 7.61309Z" fill="#0F0B47"/>
<path d="M302.547 7.5166H303.475L305.795 2.6286V2.0206H301.947V2.7726H304.843L302.547 7.5166ZM309.069 7.5166H309.877V6.2526H310.669V5.5406H309.877V2.0206H308.917L306.253 5.6046L306.341 6.2526H309.069V7.5166ZM307.141 5.5406L309.069 2.9406V5.5406H307.141ZM313.296 7.6126C314.48 7.6126 315.32 6.8846 315.32 5.7726C315.32 4.6766 314.496 4.0526 313.504 4.0526C313.024 4.0526 312.656 4.2126 312.368 4.4046L312.416 2.7726H315.024V2.0206H311.648L311.568 4.8926L312.136 5.1486C312.464 4.9006 312.848 4.7486 313.304 4.7486C314.016 4.7486 314.512 5.1726 314.512 5.8046C314.512 6.4206 314.024 6.9006 313.312 6.9006C312.728 6.9006 312.216 6.6126 311.8 6.1726L311.296 6.7486C311.76 7.2606 312.424 7.6126 313.296 7.6126Z" fill="#0F0B47"/>
<rect width="22.4163" height="89.0434" transform="matrix(1 0 0 -1 297.73 123.595)" fill="#D9D9D9"/>
<rect width="22.4163" height="82.8625" transform="matrix(1 0 0 -1 268.439 123.667)" fill="#D9D9D9"/>
<rect width="22.4163" height="58.4736" transform="matrix(1 0 0 -1 239.447 123.487)" fill="#D9D9D9"/>
<rect width="22.4163" height="52.3405" transform="matrix(1 0 0 -1 210.157 123.63)" fill="#D9D9D9"/>
<rect width="22.4163" height="44.5695" transform="matrix(1 0 0 -1 181.165 123.63)" fill="#D9D9D9"/>
<rect width="22.4163" height="35.9139" transform="matrix(1 0 0 -1 152.473 123.595)" fill="#D9D9D9"/>
<rect width="22.4163" height="30.3905" transform="matrix(1 0 0 -1 123.48 123.595)" fill="#D9D9D9"/>
<rect width="22.4163" height="25.6562" transform="matrix(1 0 0 -1 94.4883 123.595)" fill="#D9D9D9"/>
<rect width="22.4163" height="20.5871" transform="matrix(1 0 0 -1 65.498 123.595)" fill="#D9D9D9"/>
<rect width="22.4163" height="15.7691" transform="matrix(1 0 0 -1 36.5049 123.595)" fill="#D9D9D9"/>
<rect width="22.4163" height="11.9553" transform="matrix(1 0 0 -1 7.21484 123.595)" fill="#D9D9D9"/>
<circle cx="18.8707" cy="111.639" r="2.98884" fill="#92EFDF"/>
<circle cx="47.8619" cy="107.754" r="2.98884" fill="#92EFDF"/>
<circle cx="76.8541" cy="102.972" r="2.98884" fill="#92EFDF"/>
<circle cx="105.845" cy="97.8907" r="2.98884" fill="#92EFDF"/>
<circle cx="134.838" cy="93.1085" r="2.98884" fill="#92EFDF"/>
<circle cx="163.829" cy="87.7286" r="2.98884" fill="#92EFDF"/>
<circle cx="192.821" cy="79.0611" r="2.98884" fill="#92EFDF"/>
<circle cx="221.813" cy="71.2896" r="2.98884" fill="#92EFDF"/>
<circle cx="250.804" cy="65.0137" r="2.98884" fill="#92EFDF"/>
<circle cx="279.795" cy="40.8043" r="2.98884" fill="#92EFDF"/>
<circle cx="308.788" cy="34.5274" r="2.98884" fill="#92EFDF"/>
<path d="M0 123.258L327 123.258" stroke="#0F0B47" stroke-miterlimit="10"/>
</svg>
