<svg width="1191" height="476" viewBox="0 0 1191 476" fill="none" xmlns="http://www.w3.org/2000/svg">
<g clip-path="url(#clip0_4336_3614)">
<path d="M971.158 475.723C971.158 414.338 955.971 353.916 926.963 299.893C897.956 245.871 856.037 199.942 804.98 166.241C753.922 132.539 695.328 112.121 634.468 106.824C573.609 101.528 512.393 111.518 456.33 135.897L506.672 252.797C543.449 236.805 583.607 230.251 623.531 233.725C663.455 237.2 701.893 250.594 735.386 272.703C768.88 294.811 796.378 324.94 815.407 360.379C834.437 395.818 844.399 435.454 844.399 475.723H971.158Z" fill="#E46BB7"/>
<path d="M234.188 475.723C234.187 403.479 255.219 332.813 294.69 272.431C334.161 212.049 390.349 164.589 456.33 135.897L506.672 252.797C463.388 271.619 426.529 302.753 400.636 342.363C374.743 381.974 360.946 428.331 360.946 475.723L234.188 475.723Z" fill="#542AED"/>
<path d="M455.518 135.353L603.869 476.321" stroke="#FDFDFD" stroke-width="13.1602"/>
<path d="M413.643 476.321C413.643 447.178 420.467 418.434 433.577 392.364C446.686 366.294 465.721 343.613 489.174 326.115C512.628 308.617 539.858 296.782 568.71 291.546C597.561 286.31 627.243 287.817 655.408 295.948L602.671 476.321L413.643 476.321Z" fill="#5C2CFF" fill-opacity="0.5"/>
<path opacity="0.5" d="M791.699 476.321C791.699 435.646 778.412 396.07 753.834 363.543C729.256 331.016 694.717 307.296 655.408 295.948L602.671 476.321L791.699 476.321Z" fill="#E46BB7"/>
<path d="M655.313 288.49L589.512 516.998" stroke="#FDFDFD" stroke-width="13.1602"/>
</g>
<path d="M1155.38 200.519C1154.08 200.519 1152.94 201.143 1152.27 202.199V202.055C1152.27 199.415 1153.66 197.335 1155.42 197.335C1156.48 197.335 1157.2 197.815 1157.89 198.487L1158.58 197.511C1157.76 196.727 1156.8 196.199 1155.46 196.199C1152.96 196.199 1151.01 198.775 1151.01 202.055C1151.01 205.159 1152.21 207.575 1155.18 207.575C1157.47 207.575 1159.06 205.975 1159.06 203.943C1159.06 201.767 1157.38 200.519 1155.38 200.519ZM1155.17 206.503C1153.63 206.503 1152.74 205.303 1152.42 203.639C1152.69 202.423 1153.76 201.591 1155.15 201.591C1156.62 201.591 1157.79 202.503 1157.79 204.007C1157.79 205.223 1156.82 206.503 1155.17 206.503ZM1164.34 207.575C1166.63 207.575 1168.16 206.247 1168.16 204.407C1168.16 202.823 1166.92 202.007 1165.8 201.751C1166.93 201.415 1167.92 200.583 1167.92 199.175C1167.92 197.415 1166.39 196.199 1164.29 196.199C1162.58 196.199 1161.36 197.031 1160.53 198.135L1161.36 198.887C1162.15 197.943 1163.01 197.335 1164.23 197.335C1165.6 197.335 1166.66 198.167 1166.66 199.319C1166.66 200.567 1165.56 201.271 1164.08 201.255L1162.9 201.239V202.391H1164.07C1165.8 202.391 1166.9 203.047 1166.9 204.343C1166.9 205.591 1165.88 206.439 1164.34 206.439C1163 206.439 1161.92 205.799 1161.2 204.871L1160.34 205.687C1161.14 206.743 1162.53 207.575 1164.34 207.575ZM1172.72 201.799C1174.23 201.799 1175.28 200.599 1175.28 199.047C1175.28 197.527 1174.26 196.295 1172.74 196.295C1171.25 196.295 1170.18 197.495 1170.18 199.079C1170.18 200.567 1171.2 201.799 1172.72 201.799ZM1171.52 207.383H1172.74L1180.26 196.391H1179.04L1171.52 207.383ZM1172.74 200.935C1171.86 200.935 1171.19 200.119 1171.19 199.063C1171.19 197.959 1171.83 197.159 1172.72 197.159C1173.62 197.159 1174.28 197.975 1174.28 199.063C1174.28 200.135 1173.64 200.935 1172.74 200.935ZM1179 207.543C1180.48 207.543 1181.56 206.343 1181.56 204.775C1181.56 203.287 1180.53 202.039 1179.01 202.039C1177.49 202.039 1176.45 203.287 1176.45 204.791C1176.45 206.359 1177.52 207.543 1179 207.543ZM1179.01 206.679C1178.1 206.679 1177.46 205.863 1177.46 204.775C1177.46 203.735 1178.08 202.903 1179 202.903C1179.89 202.903 1180.55 203.719 1180.55 204.791C1180.55 205.879 1179.92 206.679 1179.01 206.679Z" fill="#0F0B47"/>
<path d="M1050.92 207.383H1052.17V204.711H1053.82V203.575H1052.17V196.391H1050.73L1045.28 203.671L1045.44 204.711H1050.92V207.383ZM1046.7 203.575L1050.92 197.895V203.575H1046.7ZM1057.03 207.383H1058.28V196.391H1057.27L1054.57 198.231L1055.11 199.159L1057.03 197.911V207.383ZM1063.52 201.799C1065.02 201.799 1066.08 200.599 1066.08 199.047C1066.08 197.527 1065.06 196.295 1063.54 196.295C1062.05 196.295 1060.98 197.495 1060.98 199.079C1060.98 200.567 1062 201.799 1063.52 201.799ZM1062.32 207.383H1063.54L1071.06 196.391H1069.84L1062.32 207.383ZM1063.54 200.935C1062.66 200.935 1061.98 200.119 1061.98 199.063C1061.98 197.959 1062.62 197.159 1063.52 197.159C1064.42 197.159 1065.07 197.975 1065.07 199.063C1065.07 200.135 1064.43 200.935 1063.54 200.935ZM1069.79 207.543C1071.28 207.543 1072.35 206.343 1072.35 204.775C1072.35 203.287 1071.33 202.039 1069.81 202.039C1068.29 202.039 1067.25 203.287 1067.25 204.791C1067.25 206.359 1068.32 207.543 1069.79 207.543ZM1069.81 206.679C1068.9 206.679 1068.26 205.863 1068.26 204.775C1068.26 203.735 1068.88 202.903 1069.79 202.903C1070.69 202.903 1071.34 203.719 1071.34 204.791C1071.34 205.879 1070.72 206.679 1069.81 206.679Z" fill="#0F0B47"/>
<path d="M1045.5 181.863H1053.8V179.735H1049.15L1051.15 178.183C1053.07 176.791 1053.71 175.655 1053.71 174.183C1053.71 172.119 1052.01 170.679 1049.68 170.679C1047.9 170.679 1046.51 171.447 1045.42 172.823L1046.92 174.279C1047.72 173.367 1048.54 172.823 1049.61 172.823C1050.51 172.823 1051.28 173.367 1051.28 174.279C1051.28 175.047 1050.86 175.767 1049.55 176.807L1045.5 179.943V181.863ZM1060.34 182.055C1063.23 182.055 1065.27 179.703 1065.27 176.359C1065.27 173.031 1063.23 170.679 1060.34 170.679C1057.44 170.679 1055.39 173.031 1055.39 176.359C1055.39 179.703 1057.44 182.055 1060.34 182.055ZM1060.34 179.911C1058.87 179.911 1057.83 178.423 1057.83 176.359C1057.83 174.295 1058.87 172.823 1060.34 172.823C1061.81 172.823 1062.85 174.295 1062.85 176.359C1062.85 178.423 1061.81 179.911 1060.34 179.911ZM1066.69 181.863H1074.99V179.735H1070.34L1072.34 178.183C1074.26 176.791 1074.9 175.655 1074.9 174.183C1074.9 172.119 1073.2 170.679 1070.86 170.679C1069.09 170.679 1067.7 171.447 1066.61 172.823L1068.11 174.279C1068.91 173.367 1069.73 172.823 1070.8 172.823C1071.7 172.823 1072.46 173.367 1072.46 174.279C1072.46 175.047 1072.05 175.767 1070.74 176.807L1066.69 179.943V181.863ZM1079 181.863H1081.35V170.871H1079.46L1076.16 173.079L1077.12 174.743L1079 173.575V181.863Z" fill="#E46BB7"/>
<path d="M1150.66 181.863H1158.96V179.735H1154.3L1156.3 178.183C1158.22 176.791 1158.86 175.655 1158.86 174.183C1158.86 172.119 1157.17 170.679 1154.83 170.679C1153.06 170.679 1151.66 171.447 1150.58 172.823L1152.08 174.279C1152.88 173.367 1153.7 172.823 1154.77 172.823C1155.66 172.823 1156.43 173.367 1156.43 174.279C1156.43 175.047 1156.02 175.767 1154.7 176.807L1150.66 179.943V181.863ZM1165.49 182.055C1168.39 182.055 1170.42 179.703 1170.42 176.359C1170.42 173.031 1168.39 170.679 1165.49 170.679C1162.6 170.679 1160.55 173.031 1160.55 176.359C1160.55 179.703 1162.6 182.055 1165.49 182.055ZM1165.49 179.911C1164.02 179.911 1162.98 178.423 1162.98 176.359C1162.98 174.295 1164.02 172.823 1165.49 172.823C1166.97 172.823 1168.01 174.295 1168.01 176.359C1168.01 178.423 1166.97 179.911 1165.49 179.911ZM1171.84 181.863H1180.15V179.735H1175.49L1177.49 178.183C1179.41 176.791 1180.05 175.655 1180.05 174.183C1180.05 172.119 1178.36 170.679 1176.02 170.679C1174.24 170.679 1172.85 171.447 1171.76 172.823L1173.27 174.279C1174.07 173.367 1174.88 172.823 1175.96 172.823C1176.85 172.823 1177.62 173.367 1177.62 174.279C1177.62 175.047 1177.2 175.767 1175.89 176.807L1171.84 179.943V181.863ZM1181.63 181.863H1189.93V179.735H1185.27L1187.27 178.183C1189.19 176.791 1189.83 175.655 1189.83 174.183C1189.83 172.119 1188.14 170.679 1185.8 170.679C1184.03 170.679 1182.63 171.447 1181.55 172.823L1183.05 174.279C1183.85 173.367 1184.67 172.823 1185.74 172.823C1186.63 172.823 1187.4 173.367 1187.4 174.279C1187.4 175.047 1186.99 175.767 1185.67 176.807L1181.63 179.943V181.863Z" fill="#E46BB7"/>
<path d="M932.522 64.0001H971.042V52.9841H951.386L959.162 47.4401C967.802 41.5361 970.538 36.4241 970.538 29.8721C970.538 20.4401 962.762 13.6721 951.674 13.6721C943.538 13.6721 937.13 17.0561 931.874 23.3921L939.578 31.0241C943.322 27.0641 946.778 24.8321 951.386 24.8321C954.986 24.8321 957.938 26.9921 957.938 30.3761C957.938 33.4001 956.354 36.1361 950.81 40.3121L932.522 53.9921V64.0001ZM989.4 64.0001H1001.71V14.5361H991.848L976.152 25.0481L981.048 33.6161L989.4 28.4321V64.0001ZM1022.17 64.0001H1034.48V14.5361H1024.61L1008.92 25.0481L1013.81 33.6161L1022.17 28.4321V64.0001ZM1056.37 39.5201C1063.86 39.5201 1069.04 33.9761 1069.04 26.7761C1069.04 19.7921 1064.08 14.0321 1056.37 14.0321C1048.74 14.0321 1043.77 19.7201 1043.77 26.7761C1043.77 33.9761 1048.81 39.5201 1056.37 39.5201ZM1050.4 64.0001H1059.68L1094.24 14.5361H1084.96L1050.4 64.0001ZM1056.37 32.5361C1053.71 32.5361 1051.69 30.3041 1051.69 26.7761C1051.69 23.1761 1053.64 21.0161 1056.37 21.0161C1059.04 21.0161 1061.12 23.2481 1061.12 26.7761C1061.12 30.3761 1059.11 32.5361 1056.37 32.5361ZM1088.12 64.7921C1095.61 64.7921 1100.8 59.1761 1100.8 52.0481C1100.8 44.9921 1095.83 39.2321 1088.2 39.2321C1080.64 39.2321 1075.52 44.8481 1075.52 52.0481C1075.52 59.1041 1080.56 64.7921 1088.12 64.7921ZM1088.2 57.8081C1085.46 57.8081 1083.44 55.5761 1083.44 52.0481C1083.44 48.3761 1085.39 46.2881 1088.12 46.2881C1090.79 46.2881 1092.88 48.5201 1092.88 52.0481C1092.88 55.6481 1090.86 57.8081 1088.2 57.8081Z" fill="#E46BB7"/>
<path d="M936.355 113.91H939.675L934.075 100.17H930.775L925.175 113.91H928.475L929.435 111.55H935.395L936.355 113.91ZM930.375 109.25L932.415 104.23L934.455 109.25H930.375ZM947.843 114.15C951.483 114.15 954.063 111.59 954.063 107.97V100.17H951.103V107.85C951.103 109.97 949.743 111.47 947.843 111.47C945.923 111.47 944.563 109.97 944.563 107.85V100.17H941.623V107.97C941.623 111.59 944.183 114.15 947.843 114.15ZM969.575 100.17H966.135L962.835 104.67L959.535 100.17H956.035L961.075 107.07L956.035 113.91H959.475L962.775 109.41L966.075 113.91H969.575L964.535 107.01L969.575 100.17ZM971.864 113.91H974.824V100.17H971.864V113.91ZM981.269 111.25V100.17H978.309V113.91H988.109V111.25H981.269ZM990.497 113.91H993.457V100.17H990.497V113.91ZM1006.88 113.91H1010.2L1004.6 100.17H1001.3L995.702 113.91H999.002L999.962 111.55H1005.92L1006.88 113.91ZM1000.9 109.25L1002.94 104.23L1004.98 109.25H1000.9ZM1023.81 104.81C1023.81 102.09 1021.63 100.17 1018.63 100.17H1012.45V113.91H1015.41V109.45H1017.19L1020.33 113.91H1023.69L1020.39 109.21C1022.45 108.61 1023.81 106.97 1023.81 104.81ZM1015.41 102.87H1018.33C1019.79 102.87 1020.79 103.63 1020.79 104.81C1020.79 105.99 1019.79 106.75 1018.33 106.75H1015.41V102.87ZM1030.63 113.91H1033.61V108.95L1038.97 100.17H1035.67L1032.11 106.19L1028.69 100.17H1025.25L1030.63 108.95V113.91ZM1049.63 113.91H1052.61L1055.87 104.47L1059.11 113.91H1062.09L1066.25 100.17H1063.03L1060.51 109.39L1057.47 100.17H1054.25L1051.21 109.39L1048.67 100.17H1045.47L1049.63 113.91ZM1075.06 114.15C1079.02 114.15 1082.34 110.89 1082.34 107.03C1082.34 103.17 1079.02 99.9298 1075.06 99.9298C1071.1 99.9298 1067.74 103.17 1067.74 107.03C1067.74 110.89 1071.1 114.15 1075.06 114.15ZM1075.06 111.47C1072.74 111.47 1070.78 109.43 1070.78 107.03C1070.78 104.65 1072.74 102.61 1075.06 102.61C1077.36 102.61 1079.32 104.65 1079.32 107.03C1079.32 109.43 1077.36 111.47 1075.06 111.47ZM1096.39 104.81C1096.39 102.09 1094.21 100.17 1091.21 100.17H1085.03V113.91H1087.99V109.45H1089.77L1092.91 113.91H1096.27L1092.97 109.21C1095.03 108.61 1096.39 106.97 1096.39 104.81ZM1087.99 102.87H1090.91C1092.37 102.87 1093.37 103.63 1093.37 104.81C1093.37 105.99 1092.37 106.75 1090.91 106.75H1087.99V102.87ZM1099.11 113.91H1102.07V110.07L1103.79 108.23L1107.99 113.91H1111.59L1105.83 106.13L1111.19 100.17H1107.63L1102.07 106.47V100.17H1099.11V113.91ZM1116.78 111.25V100.17H1113.82V113.91H1123.62V111.25H1116.78ZM1132.5 114.15C1136.46 114.15 1139.78 110.89 1139.78 107.03C1139.78 103.17 1136.46 99.9298 1132.5 99.9298C1128.54 99.9298 1125.18 103.17 1125.18 107.03C1125.18 110.89 1128.54 114.15 1132.5 114.15ZM1132.5 111.47C1130.18 111.47 1128.22 109.43 1128.22 107.03C1128.22 104.65 1130.18 102.61 1132.5 102.61C1134.8 102.61 1136.76 104.65 1136.76 107.03C1136.76 109.43 1134.8 111.47 1132.5 111.47ZM1152.41 113.91H1155.73L1150.13 100.17H1146.83L1141.23 113.91H1144.53L1145.49 111.55H1151.45L1152.41 113.91ZM1146.43 109.25L1148.47 104.23L1150.51 109.25H1146.43ZM1157.98 113.91H1162.92C1167.54 113.91 1170.82 111.05 1170.82 107.03C1170.82 103.01 1167.54 100.17 1162.92 100.17H1157.98V113.91ZM1160.94 111.23V102.85H1163.3C1165.92 102.85 1167.78 104.59 1167.78 107.03C1167.78 109.49 1165.92 111.23 1163.3 111.23H1160.94ZM1178.55 114.15C1181.89 114.15 1183.89 112.41 1183.89 109.79C1183.89 107.25 1181.93 106.37 1178.97 105.71C1176.85 105.23 1176.01 104.91 1176.01 103.91C1176.01 103.09 1176.79 102.43 1178.03 102.43C1179.35 102.43 1180.73 102.97 1181.97 103.97L1183.51 101.83C1182.09 100.63 1180.37 99.9298 1178.13 99.9298C1175.11 99.9298 1173.03 101.67 1173.03 104.21C1173.03 106.87 1175.11 107.69 1178.01 108.35C1180.11 108.83 1180.91 109.13 1180.91 110.11C1180.91 110.97 1180.15 111.65 1178.65 111.65C1176.91 111.65 1175.43 110.97 1174.13 109.85L1172.45 111.87C1174.05 113.35 1176.15 114.15 1178.55 114.15Z" fill="#0F0B47"/>
<path d="M1063.84 230.205L1063.84 402.189L731.109 402.189" stroke="#0F0B47" stroke-linecap="square" stroke-dasharray="11.1 11.1"/>
<path d="M1162.49 230.205L1162.49 241.55L1162.48 289.012L863.109 289.012" stroke="#0F0B47" stroke-linecap="square" stroke-dasharray="11.1 11.1"/>
<path d="M130.762 207.575C133.05 207.575 134.586 206.247 134.586 204.407C134.586 202.823 133.338 202.007 132.218 201.751C133.354 201.415 134.346 200.583 134.346 199.175C134.346 197.415 132.81 196.199 130.714 196.199C129.002 196.199 127.786 197.031 126.954 198.135L127.786 198.887C128.57 197.943 129.434 197.335 130.65 197.335C132.026 197.335 133.082 198.167 133.082 199.319C133.082 200.567 131.978 201.271 130.506 201.255L129.322 201.239V202.391H130.49C132.218 202.391 133.322 203.047 133.322 204.343C133.322 205.591 132.298 206.439 130.762 206.439C129.418 206.439 128.346 205.799 127.626 204.871L126.762 205.687C127.562 206.743 128.954 207.575 130.762 207.575ZM137.211 207.383H138.651L143.387 197.335V196.391H135.947V197.575H141.899L137.211 207.383ZM147.381 201.799C148.885 201.799 149.941 200.599 149.941 199.047C149.941 197.527 148.917 196.295 147.397 196.295C145.909 196.295 144.837 197.495 144.837 199.079C144.837 200.567 145.861 201.799 147.381 201.799ZM146.181 207.383H147.397L154.917 196.391H153.701L146.181 207.383ZM147.397 200.935C146.517 200.935 145.845 200.119 145.845 199.063C145.845 197.959 146.485 197.159 147.381 197.159C148.277 197.159 148.933 197.975 148.933 199.063C148.933 200.135 148.293 200.935 147.397 200.935ZM153.653 207.543C155.141 207.543 156.213 206.343 156.213 204.775C156.213 203.287 155.189 202.039 153.669 202.039C152.149 202.039 151.109 203.287 151.109 204.791C151.109 206.359 152.181 207.543 153.653 207.543ZM153.669 206.679C152.757 206.679 152.117 205.863 152.117 204.775C152.117 203.735 152.741 202.903 153.653 202.903C154.549 202.903 155.205 203.719 155.205 204.791C155.205 205.879 154.581 206.679 153.669 206.679Z" fill="#0F0B47"/>
<path d="M31.1583 207.575C33.4143 207.575 35.0623 206.135 35.0623 203.959C35.0623 201.783 33.4143 200.535 31.4303 200.535C30.4223 200.535 29.6703 200.871 29.0783 201.271L29.1903 197.575H34.4703V196.391H27.9743L27.8143 202.039L28.7263 202.487C29.4143 201.975 30.2303 201.639 31.1743 201.639C32.7103 201.639 33.7983 202.599 33.7983 204.007C33.7983 205.399 32.7263 206.455 31.2063 206.455C29.9903 206.455 28.9503 205.847 28.1023 204.919L27.2863 205.831C28.1823 206.855 29.4623 207.575 31.1583 207.575ZM40.5626 196.199C38.2746 196.199 36.6906 197.799 36.6906 199.831C36.6906 202.007 38.3706 203.255 40.3706 203.255C41.6666 203.255 42.8026 202.631 43.4746 201.575V201.719C43.4746 204.359 42.0826 206.439 40.3226 206.439C39.2666 206.439 38.5466 205.959 37.8586 205.287L37.1706 206.263C37.9866 207.047 38.9466 207.575 40.2906 207.575C42.7866 207.575 44.7386 204.999 44.7386 201.719C44.7386 198.615 43.5386 196.199 40.5626 196.199ZM40.5946 202.183C39.1226 202.183 37.9546 201.271 37.9546 199.767C37.9546 198.551 38.9306 197.271 40.5786 197.271C42.1146 197.271 43.0106 198.471 43.3306 200.135C43.0586 201.351 41.9866 202.183 40.5946 202.183ZM49.302 201.799C50.806 201.799 51.862 200.599 51.862 199.047C51.862 197.527 50.838 196.295 49.318 196.295C47.83 196.295 46.758 197.495 46.758 199.079C46.758 200.567 47.782 201.799 49.302 201.799ZM48.102 207.383H49.318L56.838 196.391H55.622L48.102 207.383ZM49.318 200.935C48.438 200.935 47.766 200.119 47.766 199.063C47.766 197.959 48.406 197.159 49.302 197.159C50.198 197.159 50.854 197.975 50.854 199.063C50.854 200.135 50.214 200.935 49.318 200.935ZM55.574 207.543C57.062 207.543 58.134 206.343 58.134 204.775C58.134 203.287 57.11 202.039 55.59 202.039C54.07 202.039 53.03 203.287 53.03 204.791C53.03 206.359 54.102 207.543 55.574 207.543ZM55.59 206.679C54.678 206.679 54.038 205.863 54.038 204.775C54.038 203.735 54.662 202.903 55.574 202.903C56.47 202.903 57.126 203.719 57.126 204.791C57.126 205.879 56.502 206.679 55.59 206.679Z" fill="#0F0B47"/>
<path d="M126.938 181.863H135.242V179.735H130.586L132.586 178.183C134.506 176.791 135.146 175.655 135.146 174.183C135.146 172.119 133.45 170.679 131.114 170.679C129.338 170.679 127.946 171.447 126.858 172.823L128.362 174.279C129.162 173.367 129.978 172.823 131.05 172.823C131.946 172.823 132.714 173.367 132.714 174.279C132.714 175.047 132.298 175.767 130.986 176.807L126.938 179.943V181.863ZM141.775 182.055C144.671 182.055 146.703 179.703 146.703 176.359C146.703 173.031 144.671 170.679 141.775 170.679C138.879 170.679 136.831 173.031 136.831 176.359C136.831 179.703 138.879 182.055 141.775 182.055ZM141.775 179.911C140.303 179.911 139.263 178.423 139.263 176.359C139.263 174.295 140.303 172.823 141.775 172.823C143.247 172.823 144.287 174.295 144.287 176.359C144.287 178.423 143.247 179.911 141.775 179.911ZM148.126 181.863H156.43V179.735H151.774L153.774 178.183C155.694 176.791 156.334 175.655 156.334 174.183C156.334 172.119 154.638 170.679 152.302 170.679C150.526 170.679 149.134 171.447 148.046 172.823L149.55 174.279C150.35 173.367 151.166 172.823 152.238 172.823C153.134 172.823 153.902 173.367 153.902 174.279C153.902 175.047 153.486 175.767 152.174 176.807L148.126 179.943V181.863ZM157.907 181.863H166.211V179.735H161.555L163.555 178.183C165.475 176.791 166.115 175.655 166.115 174.183C166.115 172.119 164.419 170.679 162.083 170.679C160.307 170.679 158.915 171.447 157.827 172.823L159.331 174.279C160.131 173.367 160.947 172.823 162.019 172.823C162.915 172.823 163.683 173.367 163.683 174.279C163.683 175.047 163.267 175.767 161.955 176.807L157.907 179.943V181.863Z" fill="#542AED"/>
<path d="M27.0623 181.863H35.3663V179.735H30.7103L32.7103 178.183C34.6302 176.791 35.2703 175.655 35.2703 174.183C35.2703 172.119 33.5743 170.679 31.2383 170.679C29.4623 170.679 28.0703 171.447 26.9823 172.823L28.4863 174.279C29.2863 173.367 30.1023 172.823 31.1743 172.823C32.0703 172.823 32.8383 173.367 32.8383 174.279C32.8383 175.047 32.4223 175.767 31.1102 176.807L27.0623 179.943V181.863ZM41.8995 182.055C44.7955 182.055 46.8275 179.703 46.8275 176.359C46.8275 173.031 44.7955 170.679 41.8995 170.679C39.0035 170.679 36.9555 173.031 36.9555 176.359C36.9555 179.703 39.0035 182.055 41.8995 182.055ZM41.8995 179.911C40.4275 179.911 39.3875 178.423 39.3875 176.359C39.3875 174.295 40.4275 172.823 41.8995 172.823C43.3715 172.823 44.4115 174.295 44.4115 176.359C44.4115 178.423 43.3715 179.911 41.8995 179.911ZM48.2498 181.863H56.5538V179.735H51.8978L53.8978 178.183C55.8177 176.791 56.4578 175.655 56.4578 174.183C56.4578 172.119 54.7618 170.679 52.4258 170.679C50.6498 170.679 49.2578 171.447 48.1698 172.823L49.6738 174.279C50.4738 173.367 51.2898 172.823 52.3618 172.823C53.2578 172.823 54.0258 173.367 54.0258 174.279C54.0258 175.047 53.6098 175.767 52.2977 176.807L48.2498 179.943V181.863ZM60.559 181.863H62.911V170.871H61.023L57.727 173.079L58.687 174.743L60.559 173.575V181.863Z" fill="#542AED"/>
<path d="M22.6889 64.936C34.6409 64.936 42.4169 58.744 42.4169 50.032C42.4169 43.696 37.6649 39.808 32.1209 38.512C37.6649 36.928 41.3369 32.752 41.3369 27.208C41.3369 19.432 34.2809 13.672 22.6169 13.672C13.4729 13.672 7.42488 17.488 3.17688 22.456L10.0889 29.944C13.3289 26.776 16.9289 24.688 21.3209 24.688C25.7849 24.688 28.7369 26.488 28.7369 29.512C28.7369 32.392 26.0729 34.048 21.1049 33.976H15.2729V44.344L21.1049 44.272C27.4409 44.272 29.7449 45.856 29.7449 48.952C29.7449 51.832 27.0089 53.92 22.0409 53.92C17.4329 53.92 12.8249 52.12 9.22488 48.52L2.16888 56.656C6.56088 61.552 13.5449 64.936 22.6889 64.936ZM71.4278 64.864C84.8198 64.864 94.2518 54.28 94.2518 39.232C94.2518 24.256 84.8198 13.672 71.4278 13.672C58.1078 13.672 48.6758 24.256 48.6758 39.232C48.6758 54.28 58.1078 64.864 71.4278 64.864ZM71.4278 53.704C65.5238 53.704 61.3478 47.656 61.3478 39.232C61.3478 30.808 65.5238 24.832 71.4278 24.832C77.4038 24.832 81.5798 30.808 81.5798 39.232C81.5798 47.656 77.4038 53.704 71.4278 53.704ZM113.742 39.52C121.23 39.52 126.414 33.976 126.414 26.776C126.414 19.792 121.446 14.032 113.742 14.032C106.11 14.032 101.142 19.72 101.142 26.776C101.142 33.976 106.182 39.52 113.742 39.52ZM107.766 64H117.054L151.614 14.536H142.326L107.766 64ZM113.742 32.536C111.078 32.536 109.062 30.304 109.062 26.776C109.062 23.176 111.006 21.016 113.742 21.016C116.406 21.016 118.494 23.248 118.494 26.776C118.494 30.376 116.478 32.536 113.742 32.536ZM145.494 64.792C152.982 64.792 158.166 59.176 158.166 52.048C158.166 44.992 153.198 39.232 145.566 39.232C138.006 39.232 132.894 44.848 132.894 52.048C132.894 59.104 137.934 64.792 145.494 64.792ZM145.566 57.808C142.83 57.808 140.814 55.576 140.814 52.048C140.814 48.376 142.758 46.288 145.494 46.288C148.158 46.288 150.246 48.52 150.246 52.048C150.246 55.648 148.23 57.808 145.566 57.808Z" fill="#542AED"/>
<path d="M14.9769 113.91H18.2969L12.6969 100.17H9.39688L3.79688 113.91H7.09688L8.05688 111.55H14.0169L14.9769 113.91ZM8.99688 109.25L11.0369 104.23L13.0769 109.25H8.99688ZM20.5447 113.91H23.5047V109.45H26.7247C29.7247 109.45 31.9047 107.53 31.9047 104.81C31.9047 102.09 29.7247 100.17 26.7247 100.17H20.5447V113.91ZM23.5047 106.75V102.87H26.4247C27.8847 102.87 28.8847 103.63 28.8847 104.81C28.8847 105.99 27.8847 106.75 26.4247 106.75H23.5047ZM34.4509 113.91H37.4109V109.45H40.6309C43.6309 109.45 45.8109 107.53 45.8109 104.81C45.8109 102.09 43.6309 100.17 40.6309 100.17H34.4509V113.91ZM37.4109 106.75V102.87H40.3309C41.7909 102.87 42.7909 103.63 42.7909 104.81C42.7909 105.99 41.7909 106.75 40.3309 106.75H37.4109ZM51.3172 111.25V100.17H48.3572V113.91H58.1572V111.25H51.3172ZM60.5447 113.91H63.5047V100.17H60.5447V113.91ZM73.49 114.15C75.57 114.15 77.47 113.25 78.81 111.85L76.67 109.93C75.89 110.85 74.75 111.47 73.49 111.47C71.17 111.47 69.21 109.43 69.21 107.03C69.21 104.65 71.17 102.61 73.49 102.61C74.73 102.61 75.89 103.23 76.67 104.15L78.81 102.23C77.47 100.81 75.57 99.9297 73.49 99.9297C69.53 99.9297 66.17 103.17 66.17 107.03C66.17 110.89 69.53 114.15 73.49 114.15ZM91.1292 113.91H94.4492L88.8492 100.17H85.5492L79.9492 113.91H83.2492L84.2092 111.55H90.1692L91.1292 113.91ZM85.1492 109.25L87.1892 104.23L89.2292 109.25H85.1492ZM99.877 113.91H102.817V102.83H107.117V100.17H95.597V102.83H99.877V113.91ZM109.47 113.91H112.43V100.17H109.47V113.91ZM122.416 114.15C126.376 114.15 129.696 110.89 129.696 107.03C129.696 103.17 126.376 99.9297 122.416 99.9297C118.456 99.9297 115.096 103.17 115.096 107.03C115.096 110.89 118.456 114.15 122.416 114.15ZM122.416 111.47C120.096 111.47 118.136 109.43 118.136 107.03C118.136 104.65 120.096 102.61 122.416 102.61C124.716 102.61 126.676 104.65 126.676 107.03C126.676 109.43 124.716 111.47 122.416 111.47ZM132.381 113.91H135.341V105.03L141.961 113.91H144.921V100.17H141.961V109.05L135.341 100.17H132.381V113.91ZM156.845 113.91H159.825L163.085 104.47L166.325 113.91H169.305L173.465 100.17H170.245L167.725 109.39L164.685 100.17H161.465L158.425 109.39L155.885 100.17H152.685L156.845 113.91ZM182.279 114.15C186.239 114.15 189.559 110.89 189.559 107.03C189.559 103.17 186.239 99.9297 182.279 99.9297C178.319 99.9297 174.959 103.17 174.959 107.03C174.959 110.89 178.319 114.15 182.279 114.15ZM182.279 111.47C179.959 111.47 177.999 109.43 177.999 107.03C177.999 104.65 179.959 102.61 182.279 102.61C184.579 102.61 186.539 104.65 186.539 107.03C186.539 109.43 184.579 111.47 182.279 111.47ZM203.604 104.81C203.604 102.09 201.424 100.17 198.424 100.17H192.244V113.91H195.204V109.45H196.984L200.124 113.91H203.484L200.184 109.21C202.244 108.61 203.604 106.97 203.604 104.81ZM195.204 102.87H198.124C199.584 102.87 200.584 103.63 200.584 104.81C200.584 105.99 199.584 106.75 198.124 106.75H195.204V102.87ZM206.326 113.91H209.286V110.07L211.006 108.23L215.206 113.91H218.806L213.046 106.13L218.406 100.17H214.846L209.286 106.47V100.17H206.326V113.91ZM223.993 111.25V100.17H221.033V113.91H230.833V111.25H223.993ZM239.72 114.15C243.68 114.15 247 110.89 247 107.03C247 103.17 243.68 99.9297 239.72 99.9297C235.76 99.9297 232.4 103.17 232.4 107.03C232.4 110.89 235.76 114.15 239.72 114.15ZM239.72 111.47C237.4 111.47 235.44 109.43 235.44 107.03C235.44 104.65 237.4 102.61 239.72 102.61C242.02 102.61 243.98 104.65 243.98 107.03C243.98 109.43 242.02 111.47 239.72 111.47ZM259.625 113.91H262.945L257.345 100.17H254.045L248.445 113.91H251.745L252.705 111.55H258.665L259.625 113.91ZM253.645 109.25L255.685 104.23L257.725 109.25H253.645ZM265.193 113.91H270.133C274.753 113.91 278.033 111.05 278.033 107.03C278.033 103.01 274.753 100.17 270.133 100.17H265.193V113.91ZM268.153 111.23V102.85H270.513C273.133 102.85 274.993 104.59 274.993 107.03C274.993 109.49 273.133 111.23 270.513 111.23H268.153ZM285.761 114.15C289.101 114.15 291.101 112.41 291.101 109.79C291.101 107.25 289.141 106.37 286.181 105.71C284.061 105.23 283.221 104.91 283.221 103.91C283.221 103.09 284.001 102.43 285.241 102.43C286.561 102.43 287.941 102.97 289.181 103.97L290.721 101.83C289.301 100.63 287.581 99.9297 285.341 99.9297C282.321 99.9297 280.241 101.67 280.241 104.21C280.241 106.87 282.321 107.69 285.221 108.35C287.321 108.83 288.121 109.13 288.121 110.11C288.121 110.97 287.361 111.65 285.861 111.65C284.121 111.65 282.641 110.97 281.341 109.85L279.661 111.87C281.261 113.35 283.361 114.15 285.761 114.15Z" fill="#0F0B47"/>
<path d="M140.025 230.205L140.025 289.012L290 289.012" stroke="#0F0B47" stroke-linecap="square" stroke-dasharray="11.1 11.1"/>
<path d="M39.4062 230.205L39.4062 263.492L39.4086 402.744L451 402.744" stroke="#0F0B47" stroke-linecap="square" stroke-dasharray="11.1 11.1"/>
<path d="M205.715 3.99902L228.058 26.3418M205.715 3.99902V64.999M205.715 3.99902L191.433 18.2169L183.308 26.3418" stroke="black" stroke-width="8" stroke-linecap="round" stroke-linejoin="round"/>
<path d="M1158.28 4.99902L1180.63 27.3418M1158.28 4.99902V65.999M1158.28 4.99902L1144 19.2169L1135.88 27.3418" stroke="black" stroke-width="8" stroke-linecap="round" stroke-linejoin="round"/>
<defs>
<clipPath id="clip0_4336_3614">
<rect width="737" height="371" fill="white" transform="translate(234 105)"/>
</clipPath>
</defs>
</svg>
