<svg width="327" height="175" viewBox="0 0 327 175" fill="none" xmlns="http://www.w3.org/2000/svg">
<g clip-path="url(#clip0_4824_627)">
<path d="M264.952 175.005C264.952 158.266 260.811 141.791 252.901 127.06C244.992 112.33 233.562 99.8064 219.64 90.6168C205.718 81.4273 189.741 75.8599 173.146 74.4156C156.551 72.9714 139.859 75.6955 124.572 82.343L138.299 114.219C148.327 109.858 159.277 108.071 170.163 109.018C181.05 109.966 191.531 113.618 200.663 119.646C209.796 125.675 217.294 133.89 222.483 143.553C227.672 153.216 230.388 164.024 230.388 175.005H264.952Z" fill="#E46BB7"/>
<path d="M64 175.005C64 155.305 69.7346 136.037 80.4974 119.572C91.2602 103.108 106.581 90.1664 124.572 82.343L138.299 114.219C126.497 119.351 116.447 127.84 109.386 138.641C102.326 149.442 98.5638 162.082 98.5638 175.005H64Z" fill="#542AED"/>
<path d="M124.351 82.1946L164.802 175.168" stroke="#FDFDFD" stroke-width="2"/>
<path d="M112.933 175.168C112.933 167.221 114.794 159.383 118.368 152.275C121.943 145.166 127.133 138.982 133.528 134.21C139.923 129.439 147.348 126.212 155.215 124.784C163.082 123.357 171.176 123.768 178.856 125.985L164.476 175.168L112.933 175.168Z" fill="#5C2CFF" fill-opacity="0.5"/>
<path opacity="0.5" d="M216.019 175.168C216.019 164.077 212.395 153.285 205.694 144.416C198.992 135.547 189.574 129.079 178.856 125.984L164.476 175.168L216.019 175.168Z" fill="#E46BB7"/>
<path d="M180.509 123.951L162.566 186.259" stroke="#FDFDFD" stroke-width="2"/>
<path d="M273 108L273 155L189 155" stroke="#0F0B47" stroke-width="0.5" stroke-linecap="square" stroke-dasharray="11.1 11.1"/>
<path d="M237 124L310 124L310 108" stroke="#0F0B47" stroke-width="0.5" stroke-linecap="square" stroke-dasharray="11.1 11.1"/>
<path d="M301.777 95.0749C301.062 95.0749 300.369 95.3499 299.907 95.8009C300.05 94.5249 300.71 93.6999 301.7 93.6999C302.338 93.6999 302.778 93.9309 303.24 94.3159L304.01 93.0839C303.394 92.5889 302.635 92.2699 301.7 92.2699C299.599 92.2699 298.224 93.9529 298.224 96.3069C298.224 98.5069 299.236 100.091 301.436 100.091C303.086 100.091 304.329 99.0239 304.329 97.4729C304.329 95.9769 303.174 95.0749 301.777 95.0749ZM301.348 98.7159C300.501 98.7159 300.094 98.1989 299.951 97.2749C300.182 96.7359 300.688 96.3949 301.304 96.3949C302.041 96.3949 302.657 96.8239 302.657 97.5499C302.657 98.1549 302.151 98.7159 301.348 98.7159ZM308.118 100.102C309.889 100.102 311.033 99.1559 311.033 97.8469C311.033 96.8459 310.274 96.2629 309.449 96.0759C310.285 95.8339 310.868 95.2069 310.868 94.3379C310.868 93.1389 309.801 92.2699 308.107 92.2699C306.765 92.2699 305.863 92.8529 305.236 93.6119L306.171 94.6019C306.677 94.0739 307.238 93.7219 307.942 93.7219C308.69 93.7219 309.218 94.0739 309.218 94.6239C309.218 95.1629 308.723 95.4709 307.898 95.4709L307.029 95.4599V96.8459H307.898C308.91 96.8349 309.372 97.1319 309.372 97.7149C309.372 98.2539 308.877 98.6389 308.052 98.6389C307.293 98.6389 306.578 98.3199 306.039 97.7479L305.082 98.8259C305.72 99.5629 306.765 100.102 308.118 100.102ZM314.06 96.1969C315.171 96.1969 315.952 95.3499 315.952 94.2609C315.952 93.1939 315.204 92.3249 314.06 92.3249C312.927 92.3249 312.179 93.1829 312.179 94.2719C312.179 95.3499 312.927 96.1969 314.06 96.1969ZM313.169 99.9589H314.434L319.692 92.4019H318.416L313.169 99.9589ZM314.06 95.2509C313.609 95.2509 313.257 94.8549 313.257 94.2609C313.257 93.6669 313.587 93.2819 314.06 93.2819C314.522 93.2819 314.863 93.6779 314.863 94.2609C314.863 94.8659 314.522 95.2509 314.06 95.2509ZM318.779 100.08C319.89 100.08 320.66 99.2329 320.66 98.1439C320.66 97.0769 319.923 96.2079 318.779 96.2079C317.657 96.2079 316.887 97.0659 316.887 98.1439C316.887 99.2219 317.657 100.08 318.779 100.08ZM318.779 99.1229C318.317 99.1229 317.976 98.7269 317.976 98.1439C317.976 97.5389 318.306 97.1539 318.779 97.1539C319.23 97.1539 319.582 97.5499 319.582 98.1439C319.582 98.7379 319.252 99.1229 318.779 99.1229Z" fill="#0F0B47"/>
<path d="M266.169 99.9589H267.786V98.4189H268.787V97.0549H267.786V92.4129H265.828L262.319 97.1649L262.473 98.4189H266.169V99.9589ZM264.024 97.0549L266.169 94.1289V97.0549H264.024ZM271.333 99.9589H272.95V92.4019H271.652L269.386 93.9199L270.046 95.0639L271.333 94.2609V99.9589ZM276.356 96.1969C277.467 96.1969 278.248 95.3499 278.248 94.2609C278.248 93.1939 277.5 92.3249 276.356 92.3249C275.223 92.3249 274.475 93.1829 274.475 94.2719C274.475 95.3499 275.223 96.1969 276.356 96.1969ZM275.465 99.9589H276.73L281.988 92.4019H280.712L275.465 99.9589ZM276.356 95.2509C275.905 95.2509 275.553 94.8549 275.553 94.2609C275.553 93.6669 275.883 93.2819 276.356 93.2819C276.818 93.2819 277.159 93.6779 277.159 94.2609C277.159 94.8659 276.818 95.2509 276.356 95.2509ZM281.075 100.08C282.186 100.08 282.956 99.2329 282.956 98.1439C282.956 97.0769 282.219 96.2079 281.075 96.2079C279.953 96.2079 279.183 97.0659 279.183 98.1439C279.183 99.2219 279.953 100.08 281.075 100.08ZM281.075 99.1229C280.613 99.1229 280.272 98.7269 280.272 98.1439C280.272 97.5389 280.602 97.1539 281.075 97.1539C281.526 97.1539 281.878 97.5499 281.878 98.1439C281.878 98.7379 281.548 99.1229 281.075 99.1229Z" fill="#0F0B47"/>
<path d="M262.451 86H268.16V84.537H264.959L266.334 83.47C267.654 82.513 268.094 81.732 268.094 80.72C268.094 79.301 266.928 78.311 265.322 78.311C264.101 78.311 263.144 78.839 262.396 79.785L263.43 80.786C263.98 80.159 264.541 79.785 265.278 79.785C265.894 79.785 266.422 80.159 266.422 80.786C266.422 81.314 266.136 81.809 265.234 82.524L262.451 84.68V86ZM272.652 86.132C274.643 86.132 276.04 84.515 276.04 82.216C276.04 79.928 274.643 78.311 272.652 78.311C270.661 78.311 269.253 79.928 269.253 82.216C269.253 84.515 270.661 86.132 272.652 86.132ZM272.652 84.658C271.64 84.658 270.925 83.635 270.925 82.216C270.925 80.797 271.64 79.785 272.652 79.785C273.664 79.785 274.379 80.797 274.379 82.216C274.379 83.635 273.664 84.658 272.652 84.658ZM277.017 86H282.726V84.537H279.525L280.9 83.47C282.22 82.513 282.66 81.732 282.66 80.72C282.66 79.301 281.494 78.311 279.888 78.311C278.667 78.311 277.71 78.839 276.962 79.785L277.996 80.786C278.546 80.159 279.107 79.785 279.844 79.785C280.46 79.785 280.988 80.159 280.988 80.786C280.988 81.314 280.702 81.809 279.8 82.524L277.017 84.68V86ZM285.48 86H287.097V78.443H285.799L283.533 79.961L284.193 81.105L285.48 80.302V86Z" fill="#E46BB7"/>
<path d="M298.125 86H303.834V84.537H300.633L302.008 83.47C303.328 82.513 303.768 81.732 303.768 80.72C303.768 79.301 302.602 78.311 300.996 78.311C299.775 78.311 298.818 78.839 298.07 79.785L299.104 80.786C299.654 80.159 300.215 79.785 300.952 79.785C301.568 79.785 302.096 80.159 302.096 80.786C302.096 81.314 301.81 81.809 300.908 82.524L298.125 84.68V86ZM308.325 86.132C310.316 86.132 311.713 84.515 311.713 82.216C311.713 79.928 310.316 78.311 308.325 78.311C306.334 78.311 304.926 79.928 304.926 82.216C304.926 84.515 306.334 86.132 308.325 86.132ZM308.325 84.658C307.313 84.658 306.598 83.635 306.598 82.216C306.598 80.797 307.313 79.785 308.325 79.785C309.337 79.785 310.052 80.797 310.052 82.216C310.052 83.635 309.337 84.658 308.325 84.658ZM312.691 86H318.4V84.537H315.199L316.574 83.47C317.894 82.513 318.334 81.732 318.334 80.72C318.334 79.301 317.168 78.311 315.562 78.311C314.341 78.311 313.384 78.839 312.636 79.785L313.67 80.786C314.22 80.159 314.781 79.785 315.518 79.785C316.134 79.785 316.662 80.159 316.662 80.786C316.662 81.314 316.376 81.809 315.474 82.524L312.691 84.68V86ZM319.416 86H325.125V84.537H321.924L323.299 83.47C324.619 82.513 325.059 81.732 325.059 80.72C325.059 79.301 323.893 78.311 322.287 78.311C321.066 78.311 320.109 78.839 319.361 79.785L320.395 80.786C320.945 80.159 321.506 79.785 322.243 79.785C322.859 79.785 323.387 80.159 323.387 80.786C323.387 81.314 323.101 81.809 322.199 82.524L319.416 84.68V86Z" fill="#E46BB7"/>
<path d="M195.693 28.9485H212.813V24.0525H204.077L207.533 21.5885C211.373 18.9645 212.589 16.6925 212.589 13.7805C212.589 9.58849 209.133 6.58048 204.205 6.58048C200.589 6.58048 197.741 8.08449 195.405 10.9005L198.829 14.2925C200.493 12.5325 202.029 11.5405 204.077 11.5405C205.677 11.5405 206.989 12.5005 206.989 14.0045C206.989 15.3485 206.285 16.5645 203.821 18.4205L195.693 24.5005V28.9485ZM220.972 28.9485H226.444V6.96449H222.06L215.084 11.6365L217.26 15.4445L220.972 13.1405V28.9485ZM235.535 28.9485H241.007V6.96449H236.623L229.647 11.6365L231.823 15.4445L235.535 13.1405V28.9485ZM250.87 17.8706C254.258 17.8706 256.604 15.3617 256.604 12.1035C256.604 8.94307 254.356 6.3365 250.87 6.3365C247.416 6.3365 245.168 8.91049 245.168 12.1035C245.168 15.3617 247.448 17.8706 250.87 17.8706ZM248.165 28.9485H252.368L268.008 6.56457H263.805L248.165 28.9485ZM250.87 14.7101C249.664 14.7101 248.752 13.7001 248.752 12.1035C248.752 10.4744 249.631 9.49696 250.87 9.49696C252.075 9.49696 253.02 10.507 253.02 12.1035C253.02 13.7326 252.108 14.7101 250.87 14.7101ZM265.238 29.3069C268.627 29.3069 270.973 26.7655 270.973 23.5399C270.973 20.3468 268.725 17.7402 265.271 17.7402C261.85 17.7402 259.536 20.2816 259.536 23.5399C259.536 26.7329 261.817 29.3069 265.238 29.3069ZM265.271 26.1464C264.033 26.1464 263.12 25.1364 263.12 23.5399C263.12 21.8782 264 20.9333 265.238 20.9333C266.444 20.9333 267.389 21.9433 267.389 23.5399C267.389 25.169 266.476 26.1464 265.271 26.1464Z" fill="#E46BB7"/>
<path d="M201.84 50.0471H203.5L200.7 43.1771H199.05L196.25 50.0471H197.9L198.38 48.8671H201.36L201.84 50.0471ZM198.85 47.7171L199.87 45.2071L200.89 47.7171H198.85ZM207.584 50.1671C209.404 50.1671 210.694 48.8871 210.694 47.0771V43.1771H209.214V47.0171C209.214 48.0771 208.534 48.8271 207.584 48.8271C206.624 48.8271 205.944 48.0771 205.944 47.0171V43.1771H204.474V47.0771C204.474 48.8871 205.754 50.1671 207.584 50.1671ZM218.45 43.1771H216.73L215.08 45.4271L213.43 43.1771H211.68L214.2 46.6271L211.68 50.0471H213.4L215.05 47.7971L216.7 50.0471H218.45L215.93 46.5971L218.45 43.1771ZM219.595 50.0471H221.075V43.1771H219.595V50.0471ZM224.297 48.7171V43.1771H222.817V50.0471H227.717V48.7171H224.297ZM228.911 50.0471H230.391V43.1771H228.911V50.0471ZM237.104 50.0471H238.764L235.964 43.1771H234.314L231.514 50.0471H233.164L233.644 48.8671H236.624L237.104 50.0471ZM234.114 47.7171L235.134 45.2071L236.154 47.7171H234.114ZM245.568 45.4971C245.568 44.1371 244.478 43.1771 242.978 43.1771H239.888V50.0471H241.368V47.8171H242.258L243.828 50.0471H245.508L243.858 47.6971C244.888 47.3971 245.568 46.5771 245.568 45.4971ZM241.368 44.5271H242.828C243.558 44.5271 244.058 44.9071 244.058 45.4971C244.058 46.0871 243.558 46.4671 242.828 46.4671H241.368V44.5271ZM248.979 50.0471H250.469V47.5671L253.149 43.1771H251.499L249.719 46.1871L248.009 43.1771H246.289L248.979 47.5671V50.0471ZM258.477 50.0471H259.967L261.597 45.3271L263.217 50.0471H264.707L266.787 43.1771H265.177L263.917 47.7871L262.397 43.1771H260.787L259.267 47.7871L257.997 43.1771H256.397L258.477 50.0471ZM271.194 50.1671C273.174 50.1671 274.834 48.5371 274.834 46.6071C274.834 44.6771 273.174 43.0571 271.194 43.0571C269.214 43.0571 267.534 44.6771 267.534 46.6071C267.534 48.5371 269.214 50.1671 271.194 50.1671ZM271.194 48.8271C270.034 48.8271 269.054 47.8071 269.054 46.6071C269.054 45.4171 270.034 44.3971 271.194 44.3971C272.344 44.3971 273.324 45.4171 273.324 46.6071C273.324 47.8071 272.344 48.8271 271.194 48.8271ZM281.857 45.4971C281.857 44.1371 280.767 43.1771 279.267 43.1771H276.177V50.0471H277.657V47.8171H278.547L280.117 50.0471H281.797L280.147 47.6971C281.177 47.3971 281.857 46.5771 281.857 45.4971ZM277.657 44.5271H279.117C279.847 44.5271 280.347 44.9071 280.347 45.4971C280.347 46.0871 279.847 46.4671 279.117 46.4671H277.657V44.5271ZM283.218 50.0471H284.698V48.1271L285.558 47.2071L287.658 50.0471H289.458L286.578 46.1571L289.258 43.1771H287.478L284.698 46.3271V43.1771H283.218V50.0471ZM292.051 48.7171V43.1771H290.571V50.0471H295.471V48.7171H292.051ZM299.915 50.1671C301.895 50.1671 303.555 48.5371 303.555 46.6071C303.555 44.6771 301.895 43.0571 299.915 43.0571C297.935 43.0571 296.255 44.6771 296.255 46.6071C296.255 48.5371 297.935 50.1671 299.915 50.1671ZM299.915 48.8271C298.755 48.8271 297.775 47.8071 297.775 46.6071C297.775 45.4171 298.755 44.3971 299.915 44.3971C301.065 44.3971 302.045 45.4171 302.045 46.6071C302.045 47.8071 301.065 48.8271 299.915 48.8271ZM309.867 50.0471H311.527L308.727 43.1771H307.077L304.277 50.0471H305.927L306.407 48.8671H309.387L309.867 50.0471ZM306.877 47.7171L307.897 45.2071L308.917 47.7171H306.877ZM312.651 50.0471H315.121C317.431 50.0471 319.071 48.6171 319.071 46.6071C319.071 44.5971 317.431 43.1771 315.121 43.1771H312.651V50.0471ZM314.131 48.7071V44.5171H315.311C316.621 44.5171 317.551 45.3871 317.551 46.6071C317.551 47.8371 316.621 48.7071 315.311 48.7071H314.131ZM322.935 50.1671C324.605 50.1671 325.605 49.2971 325.605 47.9871C325.605 46.7171 324.625 46.2771 323.145 45.9471C322.085 45.7071 321.665 45.5471 321.665 45.0471C321.665 44.6371 322.055 44.3071 322.675 44.3071C323.335 44.3071 324.025 44.5771 324.645 45.0771L325.415 44.0071C324.705 43.4071 323.845 43.0571 322.725 43.0571C321.215 43.0571 320.175 43.9271 320.175 45.1971C320.175 46.5271 321.215 46.9371 322.665 47.2671C323.715 47.5071 324.115 47.6571 324.115 48.1471C324.115 48.5771 323.735 48.9171 322.985 48.9171C322.115 48.9171 321.375 48.5771 320.725 48.0171L319.885 49.0271C320.685 49.7671 321.735 50.1671 322.935 50.1671Z" fill="#0F0B47"/>
<path d="M39.3105 99.8881C41.0815 99.8881 42.2255 98.9421 42.2255 97.6331C42.2255 96.6321 41.4665 96.0491 40.6415 95.8621C41.4775 95.6201 42.0605 94.9931 42.0605 94.1241C42.0605 92.9251 40.9935 92.0561 39.2995 92.0561C37.9575 92.0561 37.0555 92.6391 36.4285 93.3981L37.3635 94.3881C37.8695 93.8601 38.4305 93.5081 39.1345 93.5081C39.8825 93.5081 40.4105 93.8601 40.4105 94.4101C40.4105 94.9491 39.9155 95.2571 39.0905 95.2571L38.2215 95.2461V96.6321H39.0905C40.1025 96.6211 40.5645 96.9181 40.5645 97.5011C40.5645 98.0401 40.0695 98.4251 39.2445 98.4251C38.4855 98.4251 37.7705 98.1061 37.2315 97.5341L36.2745 98.6121C36.9125 99.3491 37.9575 99.8881 39.3105 99.8881ZM43.8226 99.7451H45.6486L48.7066 93.4091V92.1881H43.0856V93.6511H46.8256L43.8226 99.7451ZM51.5368 95.9831C52.6478 95.9831 53.4288 95.1361 53.4288 94.0471C53.4288 92.9801 52.6808 92.1111 51.5368 92.1111C50.4038 92.1111 49.6558 92.9691 49.6558 94.0581C49.6558 95.1361 50.4038 95.9831 51.5368 95.9831ZM50.6458 99.7451H51.9108L57.1688 92.1881H55.8928L50.6458 99.7451ZM51.5368 95.0371C51.0858 95.0371 50.7338 94.6411 50.7338 94.0471C50.7338 93.4531 51.0638 93.0681 51.5368 93.0681C51.9988 93.0681 52.3398 93.4641 52.3398 94.0471C52.3398 94.6521 51.9988 95.0371 51.5368 95.0371ZM56.2558 99.8661C57.3668 99.8661 58.1368 99.0191 58.1368 97.9301C58.1368 96.8631 57.3998 95.9941 56.2558 95.9941C55.1338 95.9941 54.3638 96.8521 54.3638 97.9301C54.3638 99.0081 55.1338 99.8661 56.2558 99.8661ZM56.2558 98.9091C55.7938 98.9091 55.4528 98.5131 55.4528 97.9301C55.4528 97.3251 55.7828 96.9401 56.2558 96.9401C56.7068 96.9401 57.0588 97.3361 57.0588 97.9301C57.0588 98.5241 56.7288 98.9091 56.2558 98.9091Z" fill="#0F0B47"/>
<path d="M3.355 99.8881C5.159 99.8881 6.358 98.8651 6.358 97.2591C6.358 95.7191 5.203 94.8611 3.861 94.8611C3.245 94.8611 2.761 95.0591 2.387 95.3231L2.431 93.6511H5.951V92.1881H0.935L0.825 96.2691L1.914 96.7091C2.321 96.4011 2.805 96.2141 3.377 96.2141C4.202 96.2141 4.741 96.6541 4.741 97.3141C4.741 97.9631 4.224 98.4691 3.366 98.4691C2.64 98.4691 1.958 98.1171 1.386 97.5781L0.429 98.7221C1.133 99.4261 2.09 99.8881 3.355 99.8881ZM10.1868 92.0561C8.53677 92.0561 7.29377 93.1231 7.29377 94.6741C7.29377 96.1701 8.44877 97.0721 9.84577 97.0721C10.5608 97.0721 11.2538 96.7971 11.7158 96.3461C11.5728 97.6221 10.9128 98.4471 9.92277 98.4471C9.28477 98.4471 8.84477 98.2161 8.38277 97.8311L7.61277 99.0631C8.22877 99.5581 8.98777 99.8771 9.92277 99.8771C12.0238 99.8771 13.3988 98.1941 13.3988 95.8401C13.3988 93.6401 12.3868 92.0561 10.1868 92.0561ZM10.3188 95.7521C9.58177 95.7521 8.96577 95.3231 8.96577 94.5971C8.96577 93.9921 9.47177 93.4311 10.2748 93.4311C11.1218 93.4311 11.5288 93.9481 11.6718 94.8721C11.4408 95.4111 10.9348 95.7521 10.3188 95.7521ZM16.4401 95.9831C17.5511 95.9831 18.3321 95.1361 18.3321 94.0471C18.3321 92.9801 17.5841 92.1111 16.4401 92.1111C15.3071 92.1111 14.5591 92.9691 14.5591 94.0581C14.5591 95.1361 15.3071 95.9831 16.4401 95.9831ZM15.5491 99.7451H16.8141L22.0721 92.1881H20.7961L15.5491 99.7451ZM16.4401 95.0371C15.9891 95.0371 15.6371 94.6411 15.6371 94.0471C15.6371 93.4531 15.9671 93.0681 16.4401 93.0681C16.9021 93.0681 17.2431 93.4641 17.2431 94.0471C17.2431 94.6521 16.9021 95.0371 16.4401 95.0371ZM21.1591 99.8661C22.2701 99.8661 23.0401 99.0191 23.0401 97.9301C23.0401 96.8631 22.3031 95.9941 21.1591 95.9941C20.0371 95.9941 19.2671 96.8521 19.2671 97.9301C19.2671 99.0081 20.0371 99.8661 21.1591 99.8661ZM21.1591 98.9091C20.6971 98.9091 20.3561 98.5131 20.3561 97.9301C20.3561 97.3251 20.6861 96.9401 21.1591 96.9401C21.6101 96.9401 21.9621 97.3361 21.9621 97.9301C21.9621 98.5241 21.6321 98.9091 21.1591 98.9091Z" fill="#0F0B47"/>
<path d="M36.4285 85.7864H42.1375V84.3234H38.9365L40.3115 83.2564C41.6315 82.2994 42.0715 81.5184 42.0715 80.5064C42.0715 79.0874 40.9055 78.0974 39.2995 78.0974C38.0785 78.0974 37.1215 78.6254 36.3735 79.5714L37.4075 80.5724C37.9575 79.9454 38.5185 79.5714 39.2555 79.5714C39.8715 79.5714 40.3995 79.9454 40.3995 80.5724C40.3995 81.1004 40.1135 81.5954 39.2115 82.3104L36.4285 84.4664V85.7864ZM46.6291 85.9184C48.6201 85.9184 50.0171 84.3014 50.0171 82.0024C50.0171 79.7144 48.6201 78.0974 46.6291 78.0974C44.6381 78.0974 43.2301 79.7144 43.2301 82.0024C43.2301 84.3014 44.6381 85.9184 46.6291 85.9184ZM46.6291 84.4444C45.6171 84.4444 44.9021 83.4214 44.9021 82.0024C44.9021 80.5834 45.6171 79.5714 46.6291 79.5714C47.6411 79.5714 48.3561 80.5834 48.3561 82.0024C48.3561 83.4214 47.6411 84.4444 46.6291 84.4444ZM50.9949 85.7864H56.7039V84.3234H53.5029L54.8779 83.2564C56.1979 82.2994 56.6379 81.5184 56.6379 80.5064C56.6379 79.0874 55.4719 78.0974 53.8659 78.0974C52.6449 78.0974 51.6879 78.6254 50.9399 79.5714L51.9739 80.5724C52.5239 79.9454 53.0849 79.5714 53.8219 79.5714C54.4379 79.5714 54.9659 79.9454 54.9659 80.5724C54.9659 81.1004 54.6799 81.5954 53.7779 82.3104L50.9949 84.4664V85.7864ZM57.7196 85.7864H63.4286V84.3234H60.2276L61.6026 83.2564C62.9226 82.2994 63.3626 81.5184 63.3626 80.5064C63.3626 79.0874 62.1966 78.0974 60.5906 78.0974C59.3696 78.0974 58.4126 78.6254 57.6646 79.5714L58.6986 80.5724C59.2486 79.9454 59.8096 79.5714 60.5466 79.5714C61.1626 79.5714 61.6906 79.9454 61.6906 80.5724C61.6906 81.1004 61.4046 81.5954 60.5026 82.3104L57.7196 84.4664V85.7864Z" fill="#542AED"/>
<path d="M0.451 85.7864H6.16V84.3234H2.959L4.334 83.2564C5.654 82.2994 6.094 81.5184 6.094 80.5064C6.094 79.0874 4.928 78.0974 3.322 78.0974C2.101 78.0974 1.144 78.6254 0.396 79.5714L1.43 80.5724C1.98 79.9454 2.541 79.5714 3.278 79.5714C3.894 79.5714 4.422 79.9454 4.422 80.5724C4.422 81.1004 4.136 81.5954 3.234 82.3104L0.451 84.4664V85.7864ZM10.6516 85.9184C12.6426 85.9184 14.0396 84.3014 14.0396 82.0024C14.0396 79.7144 12.6426 78.0974 10.6516 78.0974C8.66061 78.0974 7.25261 79.7144 7.25261 82.0024C7.25261 84.3014 8.66061 85.9184 10.6516 85.9184ZM10.6516 84.4444C9.63961 84.4444 8.92461 83.4214 8.92461 82.0024C8.92461 80.5834 9.63961 79.5714 10.6516 79.5714C11.6636 79.5714 12.3786 80.5834 12.3786 82.0024C12.3786 83.4214 11.6636 84.4444 10.6516 84.4444ZM15.0174 85.7864H20.7264V84.3234H17.5254L18.9004 83.2564C20.2204 82.2994 20.6604 81.5184 20.6604 80.5064C20.6604 79.0874 19.4944 78.0974 17.8884 78.0974C16.6674 78.0974 15.7104 78.6254 14.9624 79.5714L15.9964 80.5724C16.5464 79.9454 17.1074 79.5714 17.8444 79.5714C18.4604 79.5714 18.9884 79.9454 18.9884 80.5724C18.9884 81.1004 18.7024 81.5954 17.8004 82.3104L15.0174 84.4664V85.7864ZM23.48 85.7864H25.097V78.2294H23.799L21.533 79.7474L22.193 80.8914L23.48 80.0884V85.7864Z" fill="#542AED"/>
<path d="M10.0301 28.3645C15.3421 28.3645 18.7981 25.6125 18.7981 21.7405C18.7981 18.9245 16.6861 17.1965 14.2221 16.6205C16.6861 15.9165 18.3181 14.0605 18.3181 11.5965C18.3181 8.14049 15.1821 5.58048 9.99813 5.58048C5.93413 5.58048 3.24613 7.27649 1.35813 9.48449L4.43013 12.8125C5.87013 11.4045 7.47013 10.4765 9.42213 10.4765C11.4061 10.4765 12.7181 11.2765 12.7181 12.6205C12.7181 13.9005 11.5341 14.6365 9.32613 14.6045H6.73413V19.2125L9.32613 19.1805C12.1421 19.1805 13.1661 19.8845 13.1661 21.2605C13.1661 22.5405 11.9501 23.4685 9.74213 23.4685C7.69413 23.4685 5.64613 22.6685 4.04613 21.0685L0.910125 24.6845C2.86213 26.8605 5.96613 28.3645 10.0301 28.3645ZM31.6919 28.3325C37.6439 28.3325 41.8359 23.6285 41.8359 16.9405C41.8359 10.2845 37.6439 5.58048 31.6919 5.58048C25.7719 5.58048 21.5799 10.2845 21.5799 16.9405C21.5799 23.6285 25.7719 28.3325 31.6919 28.3325ZM31.6919 23.3725C29.0679 23.3725 27.2119 20.6845 27.2119 16.9405C27.2119 13.1965 29.0679 10.5405 31.6919 10.5405C34.3479 10.5405 36.2039 13.1965 36.2039 16.9405C36.2039 20.6845 34.3479 23.3725 31.6919 23.3725ZM50.4984 17.0685C53.8264 17.0685 56.1304 14.6045 56.1304 11.4045C56.1304 8.30049 53.9224 5.74049 50.4984 5.74049C47.1064 5.74049 44.8984 8.26849 44.8984 11.4045C44.8984 14.6045 47.1384 17.0685 50.4984 17.0685ZM47.8424 27.9485H51.9704L67.3304 5.96449H63.2024L47.8424 27.9485ZM50.4984 13.9645C49.3144 13.9645 48.4184 12.9725 48.4184 11.4045C48.4184 9.80449 49.2824 8.84449 50.4984 8.84449C51.6824 8.84449 52.6104 9.83648 52.6104 11.4045C52.6104 13.0045 51.7144 13.9645 50.4984 13.9645ZM64.6104 28.3005C67.9384 28.3005 70.2424 25.8045 70.2424 22.6365C70.2424 19.5005 68.0344 16.9405 64.6424 16.9405C61.2824 16.9405 59.0104 19.4365 59.0104 22.6365C59.0104 25.7725 61.2504 28.3005 64.6104 28.3005ZM64.6424 25.1965C63.4264 25.1965 62.5304 24.2045 62.5304 22.6365C62.5304 21.0045 63.3944 20.0765 64.6104 20.0765C65.7944 20.0765 66.7224 21.0685 66.7224 22.6365C66.7224 24.2365 65.8264 25.1965 64.6424 25.1965Z" fill="#542AED"/>
<path d="M5.84 50.0471H7.5L4.7 43.1771H3.05L0.25 50.0471H1.9L2.38 48.8671H5.36L5.84 50.0471ZM2.85 47.7171L3.87 45.2071L4.89 47.7171H2.85ZM8.62391 50.0471H10.1039V47.8171H11.7139C13.2139 47.8171 14.3039 46.8571 14.3039 45.4971C14.3039 44.1371 13.2139 43.1771 11.7139 43.1771H8.62391V50.0471ZM10.1039 46.4671V44.5271H11.5639C12.2939 44.5271 12.7939 44.9071 12.7939 45.4971C12.7939 46.0871 12.2939 46.4671 11.5639 46.4671H10.1039ZM15.577 50.0471H17.057V47.8171H18.667C20.167 47.8171 21.257 46.8571 21.257 45.4971C21.257 44.1371 20.167 43.1771 18.667 43.1771H15.577V50.0471ZM17.057 46.4671V44.5271H18.517C19.247 44.5271 19.747 44.9071 19.747 45.4971C19.747 46.0871 19.247 46.4671 18.517 46.4671H17.057ZM24.0102 48.7171V43.1771H22.5302V50.0471H27.4302V48.7171H24.0102ZM28.6239 50.0471H30.1039V43.1771H28.6239V50.0471ZM35.0966 50.1671C36.1366 50.1671 37.0866 49.7171 37.7566 49.0171L36.6866 48.0571C36.2966 48.5171 35.7266 48.8271 35.0966 48.8271C33.9366 48.8271 32.9566 47.8071 32.9566 46.6071C32.9566 45.4171 33.9366 44.3971 35.0966 44.3971C35.7166 44.3971 36.2966 44.7071 36.6866 45.1671L37.7566 44.2071C37.0866 43.4971 36.1366 43.0571 35.0966 43.0571C33.1166 43.0571 31.4366 44.6771 31.4366 46.6071C31.4366 48.5371 33.1166 50.1671 35.0966 50.1671ZM43.9162 50.0471H45.5762L42.7762 43.1771H41.1262L38.3262 50.0471H39.9762L40.4562 48.8671H43.4362L43.9162 50.0471ZM40.9262 47.7171L41.9462 45.2071L42.9662 47.7171H40.9262ZM48.2901 50.0471H49.7601V44.5071H51.9101V43.1771H46.1501V44.5071H48.2901V50.0471ZM53.0868 50.0471H54.5668V43.1771H53.0868V50.0471ZM59.5595 50.1671C61.5395 50.1671 63.1995 48.5371 63.1995 46.6071C63.1995 44.6771 61.5395 43.0571 59.5595 43.0571C57.5795 43.0571 55.8995 44.6771 55.8995 46.6071C55.8995 48.5371 57.5795 50.1671 59.5595 50.1671ZM59.5595 48.8271C58.3995 48.8271 57.4195 47.8071 57.4195 46.6071C57.4195 45.4171 58.3995 44.3971 59.5595 44.3971C60.7095 44.3971 61.6895 45.4171 61.6895 46.6071C61.6895 47.8071 60.7095 48.8271 59.5595 48.8271ZM64.5419 50.0471H66.0219V45.6071L69.3319 50.0471H70.8119V43.1771H69.3319V47.6171L66.0219 43.1771H64.5419V50.0471ZM76.7743 50.0471H78.2643L79.8943 45.3271L81.5143 50.0471H83.0043L85.0843 43.1771H83.4743L82.2143 47.7871L80.6943 43.1771H79.0843L77.5643 47.7871L76.2943 43.1771H74.6943L76.7743 50.0471ZM89.4911 50.1671C91.4711 50.1671 93.1311 48.5371 93.1311 46.6071C93.1311 44.6771 91.4711 43.0571 89.4911 43.0571C87.5111 43.0571 85.8311 44.6771 85.8311 46.6071C85.8311 48.5371 87.5111 50.1671 89.4911 50.1671ZM89.4911 48.8271C88.3311 48.8271 87.3511 47.8071 87.3511 46.6071C87.3511 45.4171 88.3311 44.3971 89.4911 44.3971C90.6411 44.3971 91.6211 45.4171 91.6211 46.6071C91.6211 47.8071 90.6411 48.8271 89.4911 48.8271ZM100.154 45.4971C100.154 44.1371 99.0635 43.1771 97.5635 43.1771H94.4735V50.0471H95.9535V47.8171H96.8435L98.4135 50.0471H100.094L98.4435 47.6971C99.4735 47.3971 100.154 46.5771 100.154 45.4971ZM95.9535 44.5271H97.4135C98.1435 44.5271 98.6435 44.9071 98.6435 45.4971C98.6435 46.0871 98.1435 46.4671 97.4135 46.4671H95.9535V44.5271ZM101.515 50.0471H102.995V48.1271L103.855 47.2071L105.955 50.0471H107.755L104.875 46.1571L107.555 43.1771H105.775L102.995 46.3271V43.1771H101.515V50.0471ZM110.348 48.7171V43.1771H108.868V50.0471H113.768V48.7171H110.348ZM118.212 50.1671C120.192 50.1671 121.852 48.5371 121.852 46.6071C121.852 44.6771 120.192 43.0571 118.212 43.0571C116.232 43.0571 114.552 44.6771 114.552 46.6071C114.552 48.5371 116.232 50.1671 118.212 50.1671ZM118.212 48.8271C117.052 48.8271 116.072 47.8071 116.072 46.6071C116.072 45.4171 117.052 44.3971 118.212 44.3971C119.362 44.3971 120.342 45.4171 120.342 46.6071C120.342 47.8071 119.362 48.8271 118.212 48.8271ZM128.164 50.0471H129.824L127.024 43.1771H125.374L122.574 50.0471H124.224L124.704 48.8671H127.684L128.164 50.0471ZM125.174 47.7171L126.194 45.2071L127.214 47.7171H125.174ZM130.948 50.0471H133.418C135.728 50.0471 137.368 48.6171 137.368 46.6071C137.368 44.5971 135.728 43.1771 133.418 43.1771H130.948V50.0471ZM132.428 48.7071V44.5171H133.608C134.918 44.5171 135.848 45.3871 135.848 46.6071C135.848 47.8371 134.918 48.7071 133.608 48.7071H132.428ZM141.232 50.1671C142.902 50.1671 143.902 49.2971 143.902 47.9871C143.902 46.7171 142.922 46.2771 141.442 45.9471C140.382 45.7071 139.962 45.5471 139.962 45.0471C139.962 44.6371 140.352 44.3071 140.972 44.3071C141.632 44.3071 142.322 44.5771 142.942 45.0771L143.712 44.0071C143.002 43.4071 142.142 43.0571 141.022 43.0571C139.512 43.0571 138.472 43.9271 138.472 45.1971C138.472 46.5271 139.512 46.9371 140.962 47.2671C142.012 47.5071 142.412 47.6571 142.412 48.1471C142.412 48.5771 142.032 48.9171 141.282 48.9171C140.412 48.9171 139.672 48.5771 139.022 48.0171L138.182 49.0271C138.982 49.7671 140.032 50.1671 141.232 50.1671Z" fill="#0F0B47"/>
<path d="M45 108L45 124L90 124" stroke="#0F0B47" stroke-width="0.5" stroke-linecap="square" stroke-dasharray="11.1 11.1"/>
<path d="M142 155L8.99999 155L8.99999 108" stroke="#0F0B47" stroke-width="0.5" stroke-linecap="square" stroke-dasharray="11.1 11.1"/>
<path d="M84.0458 6.33435L91.3109 13.8848M84.0458 6.33435V26.9485M84.0458 6.33435L79.4017 11.1391L76.7598 13.8848" stroke="black" stroke-width="2.71518" stroke-linecap="round" stroke-linejoin="round"/>
<path d="M284.011 6.33435L291.276 13.8848M284.011 6.33435V26.9485M284.011 6.33435L279.367 11.1391L276.725 13.8848" stroke="black" stroke-width="2.71518" stroke-linecap="round" stroke-linejoin="round"/>
</g>
<defs>
<clipPath id="clip0_4824_627">
<rect width="327" height="175" fill="white"/>
</clipPath>
</defs>
</svg>
