<svg width="1201" height="925" viewBox="0 0 1201 925" fill="none" xmlns="http://www.w3.org/2000/svg">
<rect x="4.08203" y="851.36" width="165.128" height="73.1405" fill="#1B0085"/>
<line x1="169.582" y1="805.001" x2="169.582" y2="924.001" stroke="#0F0B47" stroke-linecap="square" stroke-dasharray="10 10"/>
<rect x="4.08203" y="873.66" width="194.268" height="50.8416" fill="#542AED"/>
<rect x="4.08203" y="899.526" width="106.848" height="24.9748" fill="#E46BB7"/>
<path d="M75.0542 817.142H76.6142V803.402H75.3542L71.9742 805.702L72.6542 806.862L75.0542 805.302V817.142ZM82.2027 817.142H83.7627V803.402H82.5027L79.1227 805.702L79.8027 806.862L82.2027 805.302V817.142ZM90.3111 810.162C92.1911 810.162 93.5111 808.662 93.5111 806.722C93.5111 804.822 92.2311 803.282 90.3311 803.282C88.4711 803.282 87.1311 804.782 87.1311 806.762C87.1311 808.622 88.4111 810.162 90.3111 810.162ZM88.8111 817.142H90.3311L99.7311 803.402H98.2111L88.8111 817.142ZM90.3311 809.082C89.2311 809.082 88.3911 808.062 88.3911 806.742C88.3911 805.362 89.1911 804.362 90.3111 804.362C91.4311 804.362 92.2511 805.382 92.2511 806.742C92.2511 808.082 91.4511 809.082 90.3311 809.082ZM98.1511 817.342C100.011 817.342 101.351 815.842 101.351 813.882C101.351 812.022 100.071 810.462 98.1711 810.462C96.2711 810.462 94.9711 812.022 94.9711 813.902C94.9711 815.862 96.3111 817.342 98.1511 817.342ZM98.1711 816.262C97.0311 816.262 96.2311 815.242 96.2311 813.882C96.2311 812.582 97.0111 811.542 98.1511 811.542C99.2711 811.542 100.091 812.562 100.091 813.902C100.091 815.262 99.3111 816.262 98.1711 816.262Z" fill="#0F0B47"/>
<line x1="111.617" y1="804.534" x2="111.617" y2="923.534" stroke="#0F0B47" stroke-linecap="square" stroke-dasharray="10 10"/>
<path d="M131.248 817.142H132.808V803.402H131.548L128.168 805.702L128.848 806.862L131.248 805.302V817.142ZM136.936 817.142H138.736L144.656 804.582V803.402H135.356V804.882H142.796L136.936 817.142ZM149.649 810.162C151.529 810.162 152.849 808.662 152.849 806.722C152.849 804.822 151.569 803.282 149.669 803.282C147.809 803.282 146.469 804.782 146.469 806.762C146.469 808.622 147.749 810.162 149.649 810.162ZM148.149 817.142H149.669L159.069 803.402H157.549L148.149 817.142ZM149.669 809.082C148.569 809.082 147.729 808.062 147.729 806.742C147.729 805.362 148.529 804.362 149.649 804.362C150.769 804.362 151.589 805.382 151.589 806.742C151.589 808.082 150.789 809.082 149.669 809.082ZM157.489 817.342C159.349 817.342 160.689 815.842 160.689 813.882C160.689 812.022 159.409 810.462 157.509 810.462C155.609 810.462 154.309 812.022 154.309 813.902C154.309 815.862 155.649 817.342 157.489 817.342ZM157.509 816.262C156.369 816.262 155.569 815.242 155.569 813.882C155.569 812.582 156.349 811.542 157.489 811.542C158.609 811.542 159.429 812.562 159.429 813.902C159.429 815.262 158.649 816.262 157.509 816.262Z" fill="#0F0B47"/>
<path d="M210.237 817.142H219.717V815.662H212.737L216.337 812.542C218.657 810.542 219.577 809.062 219.577 807.202C219.577 804.742 217.577 803.162 215.197 803.162C213.037 803.162 211.497 804.182 210.357 805.802L211.457 806.702C212.397 805.422 213.537 804.562 215.137 804.562C216.597 804.562 217.997 805.542 217.997 807.222C217.997 808.582 217.197 809.902 215.257 811.562L210.237 815.842V817.142ZM227.785 817.382C231.125 817.382 233.485 814.442 233.485 810.262C233.485 806.102 231.125 803.162 227.785 803.162C224.425 803.162 222.065 806.102 222.065 810.262C222.065 814.442 224.425 817.382 227.785 817.382ZM227.785 815.942C225.365 815.942 223.645 813.582 223.645 810.262C223.645 806.942 225.365 804.602 227.785 804.602C230.205 804.602 231.905 806.942 231.905 810.262C231.905 813.582 230.205 815.942 227.785 815.942ZM239.133 810.162C241.013 810.162 242.333 808.662 242.333 806.722C242.333 804.822 241.053 803.282 239.153 803.282C237.293 803.282 235.953 804.782 235.953 806.762C235.953 808.622 237.233 810.162 239.133 810.162ZM237.633 817.142H239.153L248.553 803.402H247.033L237.633 817.142ZM239.153 809.082C238.053 809.082 237.213 808.062 237.213 806.742C237.213 805.362 238.013 804.362 239.133 804.362C240.253 804.362 241.073 805.382 241.073 806.742C241.073 808.082 240.273 809.082 239.153 809.082ZM246.973 817.342C248.833 817.342 250.173 815.842 250.173 813.882C250.173 812.022 248.893 810.462 246.993 810.462C245.093 810.462 243.793 812.022 243.793 813.902C243.793 815.862 245.133 817.342 246.973 817.342ZM246.993 816.262C245.853 816.262 245.053 815.242 245.053 813.882C245.053 812.582 245.833 811.542 246.973 811.542C248.093 811.542 248.913 812.562 248.913 813.902C248.913 815.262 248.133 816.262 246.993 816.262Z" fill="#0F0B47"/>
<line x1="198.029" y1="804.534" x2="198.029" y2="923.534" stroke="#0F0B47" stroke-linecap="square" stroke-dasharray="10 10"/>
<path d="M8.27403 767.721L8.91403 767.033C7.17003 765.257 6.21003 763.369 6.21003 760.761C6.21003 758.137 7.17003 756.265 8.91403 754.473L8.27403 753.801C6.13003 755.593 4.93003 757.993 4.93003 760.761C4.93003 763.513 6.13003 765.929 8.27403 767.721ZM15.732 760.393H18.884V763.017C18.068 763.641 16.884 764.041 15.86 764.041C13.492 764.041 11.492 761.961 11.492 759.497C11.492 757.049 13.492 754.969 15.86 754.969C17.06 754.969 18.484 755.513 19.284 756.361L20.132 755.497C19.108 754.457 17.38 753.817 15.86 753.817C12.82 753.817 10.228 756.409 10.228 759.497C10.228 762.585 12.82 765.193 15.86 765.193C17.38 765.193 19.108 764.537 20.132 763.513V759.209H15.732V760.393ZM23.924 758.345V756.729H22.724V765.001H23.924V760.377C23.924 758.761 25.252 757.609 27.124 757.609V756.537C25.604 756.537 24.42 757.241 23.924 758.345ZM32.0278 756.537C31.2278 756.537 30.2358 756.745 29.0518 757.337L29.5318 758.313C30.2838 757.929 31.1158 757.561 31.9478 757.561C33.7398 757.561 34.1878 758.841 34.1878 759.961V760.265C33.3398 759.993 32.3958 759.801 31.4998 759.801C29.7238 759.801 28.2518 760.905 28.2518 762.553C28.2518 764.185 29.5318 765.193 31.2758 765.193C32.3638 765.193 33.5958 764.681 34.1878 763.705V765.001H35.3878V759.961C35.3878 757.961 34.2838 756.537 32.0278 756.537ZM31.4838 764.137C30.3158 764.137 29.4198 763.529 29.4198 762.505C29.4198 761.513 30.4598 760.809 31.6918 760.809C32.5878 760.809 33.4358 760.937 34.1878 761.145V762.409C33.8678 763.577 32.5718 764.137 31.4838 764.137ZM44.15 753.817V758.281C43.526 757.193 42.47 756.537 41.142 756.537C38.966 756.537 37.334 758.329 37.334 760.857C37.334 763.401 38.966 765.193 41.142 765.193C42.47 765.193 43.526 764.537 44.15 763.449V765.001H45.35V753.817H44.15ZM41.366 764.121C39.75 764.121 38.598 762.761 38.598 760.857C38.598 758.953 39.75 757.609 41.366 757.609C42.998 757.609 44.15 758.953 44.15 760.857C44.15 762.761 42.998 764.121 41.366 764.121ZM53.7623 756.729V761.993C53.7623 763.161 52.6103 764.121 51.2023 764.121C49.9863 764.121 49.1383 763.193 49.1383 761.833V756.729H47.9383V761.993C47.9383 763.897 49.2023 765.193 51.0423 765.193C52.2263 765.193 53.2823 764.569 53.7623 763.689V765.001H54.9623V756.729H53.7623ZM60.6997 756.537C59.8997 756.537 58.9077 756.745 57.7237 757.337L58.2037 758.313C58.9557 757.929 59.7877 757.561 60.6197 757.561C62.4117 757.561 62.8597 758.841 62.8597 759.961V760.265C62.0117 759.993 61.0677 759.801 60.1717 759.801C58.3957 759.801 56.9237 760.905 56.9237 762.553C56.9237 764.185 58.2037 765.193 59.9477 765.193C61.0357 765.193 62.2677 764.681 62.8597 763.705V765.001H64.0597V759.961C64.0597 757.961 62.9557 756.537 60.6997 756.537ZM60.1557 764.137C58.9877 764.137 58.0917 763.529 58.0917 762.505C58.0917 761.513 59.1317 760.809 60.3637 760.809C61.2597 760.809 62.1077 760.937 62.8597 761.145V762.409C62.5397 763.577 61.2437 764.137 60.1557 764.137ZM69.8459 763.785C69.6699 763.977 69.3499 764.121 68.9819 764.121C68.5019 764.121 68.0859 763.689 68.0859 763.081V757.801H70.1179V756.729H68.0859V754.457H66.8859V756.729H65.5899V757.801H66.8859V763.081C66.8859 764.313 67.7179 765.193 68.9019 765.193C69.4619 765.193 70.0059 765.001 70.4379 764.665L69.8459 763.785ZM75.6495 764.121C74.0175 764.121 72.8815 762.937 72.7055 761.321H79.4735C79.4735 758.425 78.0495 756.537 75.5535 756.537C73.3295 756.537 71.4735 758.377 71.4735 760.841C71.4735 763.385 73.4575 765.193 75.6655 765.193C76.8175 765.193 78.2735 764.697 78.9935 763.913L78.2575 763.129C77.7455 763.689 76.6255 764.121 75.6495 764.121ZM75.6015 757.609C77.2495 757.609 78.1295 758.761 78.2895 760.249H72.7215C72.9455 758.649 74.1295 757.609 75.6015 757.609ZM87.6657 753.817V758.281C87.0417 757.193 85.9857 756.537 84.6577 756.537C82.4817 756.537 80.8497 758.329 80.8497 760.857C80.8497 763.401 82.4817 765.193 84.6577 765.193C85.9857 765.193 87.0417 764.537 87.6657 763.449V765.001H88.8657V753.817H87.6657ZM84.8817 764.121C83.2657 764.121 82.1137 762.761 82.1137 760.857C82.1137 758.953 83.2657 757.609 84.8817 757.609C86.5137 757.609 87.6657 758.953 87.6657 760.857C87.6657 762.761 86.5137 764.121 84.8817 764.121ZM91.3099 767.721C93.4539 765.929 94.6539 763.513 94.6539 760.761C94.6539 757.993 93.4539 755.593 91.3099 753.801L90.6699 754.473C92.4139 756.265 93.3739 758.137 93.3739 760.761C93.3739 763.369 92.4139 765.257 90.6699 767.033L91.3099 767.721Z" fill="#0F0B47"/>
<path d="M11.132 730.511V713.891H6.69203V734.501H21.392V730.511H11.132ZM24.9733 734.501H29.4133V713.891H24.9733V734.501ZM34.6413 734.501H39.0813V721.181L49.0113 734.501H53.4513V713.891H49.0113V727.211L39.0813 713.891H34.6413V734.501ZM58.6647 734.501H63.1047V728.741L65.6847 725.981L71.9847 734.501H77.3847L68.7447 722.831L76.7847 713.891H71.4447L63.1047 723.341V713.891H58.6647V734.501ZM96.5952 717.881V713.891H80.7252V734.501H96.5952V730.511H85.1652V725.981H95.5452V721.991H85.1652V717.881H96.5952ZM117.921 720.851C117.921 716.771 114.651 713.891 110.151 713.891H100.881V734.501H105.321V727.811H107.991L112.701 734.501H117.741L112.791 727.451C115.881 726.551 117.921 724.091 117.921 720.851ZM105.321 717.941H109.701C111.891 717.941 113.391 719.081 113.391 720.851C113.391 722.621 111.891 723.761 109.701 723.761H105.321V717.941ZM122.005 734.501H129.415C136.345 734.501 141.265 730.211 141.265 724.181C141.265 718.151 136.345 713.891 129.415 713.891H122.005V734.501ZM126.445 730.481V717.911H129.985C133.915 717.911 136.705 720.521 136.705 724.181C136.705 727.871 133.915 730.481 129.985 730.481H126.445Z" fill="#0F0B47"/>
<path d="M663.36 734.861C669.3 734.861 674.28 729.971 674.28 724.181C674.28 718.391 669.3 713.531 663.36 713.531C657.42 713.531 652.38 718.391 652.38 724.181C652.38 729.971 657.42 734.861 663.36 734.861ZM663.36 730.841C659.88 730.841 656.94 727.781 656.94 724.181C656.94 720.611 659.88 717.551 663.36 717.551C666.81 717.551 669.75 720.611 669.75 724.181C669.75 727.781 666.81 730.841 663.36 730.841ZM678.307 734.501H682.747V727.811H687.577C692.077 727.811 695.347 724.931 695.347 720.851C695.347 716.771 692.077 713.891 687.577 713.891H678.307V734.501ZM682.747 723.761V717.941H687.127C689.317 717.941 690.817 719.081 690.817 720.851C690.817 722.621 689.317 723.761 687.127 723.761H682.747ZM714.077 734.501H719.057L710.657 713.891H705.707L697.307 734.501H702.257L703.697 730.961H712.637L714.077 734.501ZM705.107 727.511L708.167 719.981L711.227 727.511H705.107Z" fill="#0F0B47"/>
<rect x="654.21" y="851.36" width="135.988" height="73.1405" fill="#1B0085"/>
<line x1="790.5" y1="805.001" x2="790.5" y2="924.001" stroke="#0F0B47" stroke-linecap="square" stroke-dasharray="10 10"/>
<rect x="654.21" y="873.659" width="145.701" height="50.8416" fill="#542AED"/>
<rect x="654.21" y="899.526" width="106.848" height="24.9748" fill="#E46BB7"/>
<path d="M698.48 818.303H700.04V804.563H698.78L695.4 806.863L696.08 808.023L698.48 806.463V818.303ZM705.628 818.303H707.188V804.563H705.928L702.548 806.863L703.228 808.023L705.628 806.463V818.303ZM713.737 811.323C715.617 811.323 716.937 809.823 716.937 807.883C716.937 805.983 715.657 804.443 713.757 804.443C711.897 804.443 710.557 805.943 710.557 807.923C710.557 809.783 711.837 811.323 713.737 811.323ZM712.237 818.303H713.757L723.157 804.563H721.637L712.237 818.303ZM713.757 810.243C712.657 810.243 711.817 809.223 711.817 807.903C711.817 806.523 712.617 805.523 713.737 805.523C714.857 805.523 715.677 806.543 715.677 807.903C715.677 809.243 714.877 810.243 713.757 810.243ZM721.577 818.503C723.437 818.503 724.777 817.003 724.777 815.043C724.777 813.183 723.497 811.623 721.597 811.623C719.697 811.623 718.397 813.183 718.397 815.063C718.397 817.023 719.737 818.503 721.577 818.503ZM721.597 817.423C720.457 817.423 719.657 816.403 719.657 815.043C719.657 813.743 720.437 812.703 721.577 812.703C722.697 812.703 723.517 813.723 723.517 815.063C723.517 816.423 722.737 817.423 721.597 817.423Z" fill="#0F0B47"/>
<path d="M761.745 924L761.745 829.251L695 829.251" stroke="#0F0B47" stroke-linecap="square" stroke-dasharray="10 10"/>
<path d="M811.479 818.303H813.039V804.563H811.779L808.399 806.863L809.079 808.023L811.479 806.463V818.303ZM821.087 818.543C823.907 818.543 825.967 816.743 825.967 814.023C825.967 811.303 823.907 809.743 821.427 809.743C820.167 809.743 819.227 810.163 818.487 810.663L818.627 806.043H825.227V804.563H817.107L816.907 811.623L818.047 812.183C818.907 811.543 819.927 811.123 821.107 811.123C823.027 811.123 824.387 812.323 824.387 814.083C824.387 815.823 823.047 817.143 821.147 817.143C819.627 817.143 818.327 816.383 817.267 815.223L816.247 816.363C817.367 817.643 818.967 818.543 821.087 818.543ZM831.443 811.323C833.323 811.323 834.643 809.823 834.643 807.883C834.643 805.983 833.363 804.443 831.463 804.443C829.603 804.443 828.263 805.943 828.263 807.923C828.263 809.783 829.543 811.323 831.443 811.323ZM829.943 818.303H831.463L840.863 804.563H839.343L829.943 818.303ZM831.463 810.243C830.363 810.243 829.523 809.223 829.523 807.903C829.523 806.523 830.323 805.523 831.443 805.523C832.563 805.523 833.383 806.543 833.383 807.903C833.383 809.243 832.583 810.243 831.463 810.243ZM839.283 818.503C841.143 818.503 842.483 817.003 842.483 815.043C842.483 813.183 841.203 811.623 839.303 811.623C837.403 811.623 836.103 813.183 836.103 815.063C836.103 817.023 837.443 818.503 839.283 818.503ZM839.303 817.423C838.163 817.423 837.363 816.403 837.363 815.043C837.363 813.743 838.143 812.703 839.283 812.703C840.403 812.703 841.223 813.723 841.223 815.063C841.223 816.423 840.443 817.423 839.303 817.423Z" fill="#0F0B47"/>
<line x1="800.099" y1="805" x2="800.099" y2="924" stroke="#0F0B47" stroke-linecap="square" stroke-dasharray="10 10"/>
<path d="M752.048 818.303H753.608V804.563H752.348L748.968 806.863L749.648 808.023L752.048 806.463V818.303ZM763.317 818.303H764.877V814.963H766.937V813.543H764.877V804.563H763.077L756.257 813.663L756.457 814.963H763.317V818.303ZM758.037 813.543L763.317 806.443V813.543H758.037ZM771.915 811.323C773.795 811.323 775.115 809.823 775.115 807.883C775.115 805.983 773.835 804.443 771.935 804.443C770.075 804.443 768.735 805.943 768.735 807.923C768.735 809.783 770.015 811.323 771.915 811.323ZM770.415 818.303H771.935L781.335 804.563H779.815L770.415 818.303ZM771.935 810.243C770.835 810.243 769.995 809.223 769.995 807.903C769.995 806.523 770.795 805.523 771.915 805.523C773.035 805.523 773.855 806.543 773.855 807.903C773.855 809.243 773.055 810.243 771.935 810.243ZM779.755 818.503C781.615 818.503 782.955 817.003 782.955 815.043C782.955 813.183 781.675 811.623 779.775 811.623C777.875 811.623 776.575 813.183 776.575 815.063C776.575 817.023 777.915 818.503 779.755 818.503ZM779.775 817.423C778.635 817.423 777.835 816.403 777.835 815.043C777.835 813.743 778.615 812.703 779.755 812.703C780.875 812.703 781.695 813.723 781.695 815.063C781.695 816.423 780.915 817.423 779.775 817.423Z" fill="#0F0B47"/>
<path d="M658.192 767.721L658.832 767.033C657.088 765.257 656.128 763.369 656.128 760.761C656.128 758.137 657.088 756.265 658.832 754.473L658.192 753.801C656.048 755.593 654.848 757.993 654.848 760.761C654.848 763.513 656.048 765.929 658.192 767.721ZM665.65 760.393H668.802V763.017C667.986 763.641 666.802 764.041 665.778 764.041C663.41 764.041 661.41 761.961 661.41 759.497C661.41 757.049 663.41 754.969 665.778 754.969C666.978 754.969 668.402 755.513 669.202 756.361L670.05 755.497C669.026 754.457 667.298 753.817 665.778 753.817C662.738 753.817 660.146 756.409 660.146 759.497C660.146 762.585 662.738 765.193 665.778 765.193C667.298 765.193 669.026 764.537 670.05 763.513V759.209H665.65V760.393ZM673.842 758.345V756.729H672.642V765.001H673.842V760.377C673.842 758.761 675.17 757.609 677.042 757.609V756.537C675.522 756.537 674.338 757.241 673.842 758.345ZM681.946 756.537C681.146 756.537 680.154 756.745 678.97 757.337L679.45 758.313C680.202 757.929 681.034 757.561 681.866 757.561C683.658 757.561 684.106 758.841 684.106 759.961V760.265C683.258 759.993 682.314 759.801 681.418 759.801C679.642 759.801 678.17 760.905 678.17 762.553C678.17 764.185 679.45 765.193 681.194 765.193C682.282 765.193 683.514 764.681 684.106 763.705V765.001H685.306V759.961C685.306 757.961 684.202 756.537 681.946 756.537ZM681.402 764.137C680.234 764.137 679.338 763.529 679.338 762.505C679.338 761.513 680.378 760.809 681.61 760.809C682.506 760.809 683.354 760.937 684.106 761.145V762.409C683.786 763.577 682.49 764.137 681.402 764.137ZM694.068 753.817V758.281C693.444 757.193 692.388 756.537 691.06 756.537C688.884 756.537 687.252 758.329 687.252 760.857C687.252 763.401 688.884 765.193 691.06 765.193C692.388 765.193 693.444 764.537 694.068 763.449V765.001H695.268V753.817H694.068ZM691.284 764.121C689.668 764.121 688.516 762.761 688.516 760.857C688.516 758.953 689.668 757.609 691.284 757.609C692.916 757.609 694.068 758.953 694.068 760.857C694.068 762.761 692.916 764.121 691.284 764.121ZM703.68 756.729V761.993C703.68 763.161 702.528 764.121 701.12 764.121C699.904 764.121 699.056 763.193 699.056 761.833V756.729H697.856V761.993C697.856 763.897 699.12 765.193 700.96 765.193C702.144 765.193 703.2 764.569 703.68 763.689V765.001H704.88V756.729H703.68ZM710.618 756.537C709.818 756.537 708.826 756.745 707.642 757.337L708.122 758.313C708.874 757.929 709.706 757.561 710.538 757.561C712.33 757.561 712.778 758.841 712.778 759.961V760.265C711.93 759.993 710.986 759.801 710.09 759.801C708.314 759.801 706.842 760.905 706.842 762.553C706.842 764.185 708.122 765.193 709.866 765.193C710.954 765.193 712.186 764.681 712.778 763.705V765.001H713.978V759.961C713.978 757.961 712.874 756.537 710.618 756.537ZM710.074 764.137C708.906 764.137 708.01 763.529 708.01 762.505C708.01 761.513 709.05 760.809 710.282 760.809C711.178 760.809 712.026 760.937 712.778 761.145V762.409C712.458 763.577 711.162 764.137 710.074 764.137ZM719.764 763.785C719.588 763.977 719.268 764.121 718.9 764.121C718.42 764.121 718.004 763.689 718.004 763.081V757.801H720.036V756.729H718.004V754.457H716.804V756.729H715.508V757.801H716.804V763.081C716.804 764.313 717.636 765.193 718.82 765.193C719.38 765.193 719.924 765.001 720.356 764.665L719.764 763.785ZM725.568 764.121C723.936 764.121 722.799 762.937 722.624 761.321H729.392C729.392 758.425 727.968 756.537 725.472 756.537C723.248 756.537 721.392 758.377 721.392 760.841C721.392 763.385 723.376 765.193 725.584 765.193C726.736 765.193 728.192 764.697 728.911 763.913L728.176 763.129C727.664 763.689 726.544 764.121 725.568 764.121ZM725.52 757.609C727.168 757.609 728.048 758.761 728.208 760.249H722.64C722.864 758.649 724.048 757.609 725.52 757.609ZM737.584 753.817V758.281C736.96 757.193 735.904 756.537 734.576 756.537C732.4 756.537 730.768 758.329 730.768 760.857C730.768 763.401 732.4 765.193 734.576 765.193C735.904 765.193 736.96 764.537 737.584 763.449V765.001H738.784V753.817H737.584ZM734.8 764.121C733.184 764.121 732.032 762.761 732.032 760.857C732.032 758.953 733.184 757.609 734.8 757.609C736.432 757.609 737.584 758.953 737.584 760.857C737.584 762.761 736.432 764.121 734.8 764.121ZM741.228 767.721C743.372 765.929 744.572 763.513 744.572 760.761C744.572 757.993 743.372 755.593 741.228 753.801L740.588 754.473C742.332 756.265 743.292 758.137 743.292 760.761C743.292 763.369 742.332 765.257 740.588 767.033L741.228 767.721Z" fill="#0F0B47"/>
<rect x="656" y="253.537" width="543.952" height="73.1405" fill="#1B0085"/>
<rect x="656" y="275.835" width="446.817" height="50.8416" fill="#542AED"/>
<rect x="656" y="301.702" width="349.683" height="24.9748" fill="#E46BB7"/>
<path d="M958.809 220.741C961.669 220.741 963.589 219.081 963.589 216.781C963.589 214.801 962.029 213.781 960.629 213.461C962.049 213.041 963.289 212.001 963.289 210.241C963.289 208.041 961.369 206.521 958.749 206.521C956.609 206.521 955.089 207.561 954.049 208.941L955.089 209.881C956.069 208.701 957.149 207.941 958.669 207.941C960.389 207.941 961.709 208.981 961.709 210.421C961.709 211.981 960.329 212.861 958.489 212.841L957.009 212.821V214.261H958.469C960.629 214.261 962.009 215.081 962.009 216.701C962.009 218.261 960.729 219.321 958.809 219.321C957.129 219.321 955.789 218.521 954.889 217.361L953.809 218.381C954.809 219.701 956.549 220.741 958.809 220.741ZM971.57 211.921C969.95 211.921 968.53 212.701 967.69 214.021V213.841C967.69 210.541 969.43 207.941 971.63 207.941C972.95 207.941 973.85 208.541 974.71 209.381L975.57 208.161C974.55 207.181 973.35 206.521 971.67 206.521C968.55 206.521 966.11 209.741 966.11 213.841C966.11 217.721 967.61 220.741 971.33 220.741C974.19 220.741 976.17 218.741 976.17 216.201C976.17 213.481 974.07 211.921 971.57 211.921ZM971.31 219.401C969.39 219.401 968.27 217.901 967.87 215.821C968.21 214.301 969.55 213.261 971.29 213.261C973.13 213.261 974.59 214.401 974.59 216.281C974.59 217.801 973.37 219.401 971.31 219.401ZM981.614 213.521C983.494 213.521 984.814 212.021 984.814 210.081C984.814 208.181 983.534 206.641 981.634 206.641C979.774 206.641 978.434 208.141 978.434 210.121C978.434 211.981 979.714 213.521 981.614 213.521ZM980.114 220.501H981.634L991.034 206.761H989.514L980.114 220.501ZM981.634 212.441C980.534 212.441 979.694 211.421 979.694 210.101C979.694 208.721 980.494 207.721 981.614 207.721C982.734 207.721 983.554 208.741 983.554 210.101C983.554 211.441 982.754 212.441 981.634 212.441ZM989.454 220.701C991.314 220.701 992.654 219.201 992.654 217.241C992.654 215.381 991.374 213.821 989.474 213.821C987.574 213.821 986.274 215.381 986.274 217.261C986.274 219.221 987.614 220.701 989.454 220.701ZM989.474 219.621C988.334 219.621 987.534 218.601 987.534 217.241C987.534 215.941 988.314 214.901 989.454 214.901C990.574 214.901 991.394 215.921 991.394 217.261C991.394 218.621 990.614 219.621 989.474 219.621Z" fill="#0F0B47"/>
<line x1="1006.15" y1="206.501" x2="1006.15" y2="325.501" stroke="#0F0B47" stroke-linecap="square" stroke-dasharray="10 10"/>
<path d="M1058.64 220.501H1060.2V217.161H1062.26V215.741H1060.2V206.761H1058.4L1051.58 215.861L1051.78 217.161H1058.64V220.501ZM1053.36 215.741L1058.64 208.641V215.741H1053.36ZM1069.52 211.921C1067.9 211.921 1066.48 212.701 1065.64 214.021V213.841C1065.64 210.541 1067.38 207.941 1069.58 207.941C1070.9 207.941 1071.8 208.541 1072.66 209.381L1073.52 208.161C1072.5 207.181 1071.3 206.521 1069.62 206.521C1066.5 206.521 1064.06 209.741 1064.06 213.841C1064.06 217.721 1065.56 220.741 1069.28 220.741C1072.14 220.741 1074.12 218.741 1074.12 216.201C1074.12 213.481 1072.02 211.921 1069.52 211.921ZM1069.26 219.401C1067.34 219.401 1066.22 217.901 1065.82 215.821C1066.16 214.301 1067.5 213.261 1069.24 213.261C1071.08 213.261 1072.54 214.401 1072.54 216.281C1072.54 217.801 1071.32 219.401 1069.26 219.401ZM1079.56 213.521C1081.44 213.521 1082.76 212.021 1082.76 210.081C1082.76 208.181 1081.48 206.641 1079.58 206.641C1077.72 206.641 1076.38 208.141 1076.38 210.121C1076.38 211.981 1077.66 213.521 1079.56 213.521ZM1078.06 220.501H1079.58L1088.98 206.761H1087.46L1078.06 220.501ZM1079.58 212.441C1078.48 212.441 1077.64 211.421 1077.64 210.101C1077.64 208.721 1078.44 207.721 1079.56 207.721C1080.68 207.721 1081.5 208.741 1081.5 210.101C1081.5 211.441 1080.7 212.441 1079.58 212.441ZM1087.4 220.701C1089.26 220.701 1090.6 219.201 1090.6 217.241C1090.6 215.381 1089.32 213.821 1087.42 213.821C1085.52 213.821 1084.22 215.381 1084.22 217.261C1084.22 219.221 1085.56 220.701 1087.4 220.701ZM1087.42 219.621C1086.28 219.621 1085.48 218.601 1085.48 217.241C1085.48 215.941 1086.26 214.901 1087.4 214.901C1088.52 214.901 1089.34 215.921 1089.34 217.261C1089.34 218.621 1088.56 219.621 1087.42 219.621Z" fill="#0F0B47"/>
<line x1="1103.37" y1="206.501" x2="1103.37" y2="325.501" stroke="#0F0B47" stroke-linecap="square" stroke-dasharray="10 10"/>
<path d="M1153.99 220.741C1156.81 220.741 1158.87 218.941 1158.87 216.221C1158.87 213.501 1156.81 211.941 1154.33 211.941C1153.07 211.941 1152.13 212.361 1151.39 212.861L1151.53 208.241H1158.13V206.761H1150.01L1149.81 213.821L1150.95 214.381C1151.81 213.741 1152.83 213.321 1154.01 213.321C1155.93 213.321 1157.29 214.521 1157.29 216.281C1157.29 218.021 1155.95 219.341 1154.05 219.341C1152.53 219.341 1151.23 218.581 1150.17 217.421L1149.15 218.561C1150.27 219.841 1151.87 220.741 1153.99 220.741ZM1166.62 211.921C1165 211.921 1163.58 212.701 1162.74 214.021V213.841C1162.74 210.541 1164.48 207.941 1166.68 207.941C1168 207.941 1168.9 208.541 1169.76 209.381L1170.62 208.161C1169.6 207.181 1168.4 206.521 1166.72 206.521C1163.6 206.521 1161.16 209.741 1161.16 213.841C1161.16 217.721 1162.66 220.741 1166.38 220.741C1169.24 220.741 1171.22 218.741 1171.22 216.201C1171.22 213.481 1169.12 211.921 1166.62 211.921ZM1166.36 219.401C1164.44 219.401 1163.32 217.901 1162.92 215.821C1163.26 214.301 1164.6 213.261 1166.34 213.261C1168.18 213.261 1169.64 214.401 1169.64 216.281C1169.64 217.801 1168.42 219.401 1166.36 219.401ZM1176.67 213.521C1178.55 213.521 1179.87 212.021 1179.87 210.081C1179.87 208.181 1178.59 206.641 1176.69 206.641C1174.83 206.641 1173.49 208.141 1173.49 210.121C1173.49 211.981 1174.77 213.521 1176.67 213.521ZM1175.17 220.501H1176.69L1186.09 206.761H1184.57L1175.17 220.501ZM1176.69 212.441C1175.59 212.441 1174.75 211.421 1174.75 210.101C1174.75 208.721 1175.55 207.721 1176.67 207.721C1177.79 207.721 1178.61 208.741 1178.61 210.101C1178.61 211.441 1177.81 212.441 1176.69 212.441ZM1184.51 220.701C1186.37 220.701 1187.71 219.201 1187.71 217.241C1187.71 215.381 1186.43 213.821 1184.53 213.821C1182.63 213.821 1181.33 215.381 1181.33 217.261C1181.33 219.221 1182.67 220.701 1184.51 220.701ZM1184.53 219.621C1183.39 219.621 1182.59 218.601 1182.59 217.241C1182.59 215.941 1183.37 214.901 1184.51 214.901C1185.63 214.901 1186.45 215.921 1186.45 217.261C1186.45 218.621 1185.67 219.621 1184.53 219.621Z" fill="#0F0B47"/>
<line x1="1199.7" y1="206.501" x2="1199.7" y2="325.501" stroke="#0F0B47" stroke-linecap="square" stroke-dasharray="10 10"/>
<path d="M667.36 118.361C670.48 118.361 673.33 117.011 675.34 114.911L672.13 112.031C670.96 113.411 669.25 114.341 667.36 114.341C663.88 114.341 660.94 111.281 660.94 107.681C660.94 104.111 663.88 101.051 667.36 101.051C669.22 101.051 670.96 101.981 672.13 103.361L675.34 100.481C673.33 98.351 670.48 97.031 667.36 97.031C661.42 97.031 656.38 101.891 656.38 107.681C656.38 113.471 661.42 118.361 667.36 118.361ZM688.659 118.361C694.599 118.361 699.579 113.471 699.579 107.681C699.579 101.891 694.599 97.031 688.659 97.031C682.719 97.031 677.679 101.891 677.679 107.681C677.679 113.471 682.719 118.361 688.659 118.361ZM688.659 114.341C685.179 114.341 682.239 111.281 682.239 107.681C682.239 104.111 685.179 101.051 688.659 101.051C692.109 101.051 695.049 104.111 695.049 107.681C695.049 111.281 692.109 114.341 688.659 114.341ZM703.606 118.001H708.046V104.681L717.976 118.001H722.416V97.391H717.976V110.711L708.046 97.391H703.606V118.001ZM732.4 118.001H736.81V101.381H743.26V97.391H725.98V101.381H732.4V118.001ZM761.7 118.001H766.68L758.28 97.391H753.33L744.93 118.001H749.88L751.32 114.461H760.26L761.7 118.001ZM752.73 111.011L755.79 103.481L758.85 111.011H752.73ZM770.051 118.001H774.491V97.391H770.051V118.001ZM779.719 118.001H784.159V104.681L794.089 118.001H798.529V97.391H794.089V110.711L784.159 97.391H779.719V118.001ZM819.613 101.381V97.391H803.743V118.001H819.613V114.011H808.183V109.481H818.563V105.491H808.183V101.381H819.613ZM840.939 104.351C840.939 100.271 837.669 97.391 833.169 97.391H823.899V118.001H828.339V111.311H831.009L835.719 118.001H840.759L835.809 110.951C838.899 110.051 840.939 107.591 840.939 104.351ZM828.339 101.441H832.719C834.909 101.441 836.409 102.581 836.409 104.351C836.409 106.121 834.909 107.261 832.719 107.261H828.339V101.441ZM845.022 118.001H852.432C859.362 118.001 864.282 113.711 864.282 107.681C864.282 101.651 859.362 97.391 852.432 97.391H845.022V118.001ZM849.462 113.981V101.411H853.002C856.932 101.411 859.722 104.021 859.722 107.681C859.722 111.371 856.932 113.981 853.002 113.981H849.462Z" fill="#0F0B47"/>
<rect x="2" y="550.726" width="543.952" height="73.1405" fill="#1B0085"/>
<rect x="2" y="573.025" width="466.244" height="50.8416" fill="#542AED"/>
<rect x="2" y="598.892" width="466.494" height="24.9748" fill="#E46BB7"/>
<path d="M423.844 516.501H425.404V513.161H427.464V511.741H425.404V502.761H423.604L416.784 511.861L416.984 513.161H423.844V516.501ZM418.564 511.741L423.844 504.641V511.741H418.564ZM434.202 516.741C437.022 516.741 439.222 515.241 439.222 512.901C439.222 511.181 437.862 509.961 436.202 509.401C437.622 508.881 438.882 507.861 438.882 506.181C438.882 503.921 436.662 502.521 434.202 502.521C431.822 502.521 429.542 503.881 429.542 506.161C429.542 507.741 430.662 508.801 432.222 509.401C430.542 509.941 429.182 511.181 429.182 512.901C429.182 515.221 431.362 516.741 434.202 516.741ZM434.202 508.781C432.902 508.701 431.122 507.921 431.122 506.321C431.122 504.941 432.482 503.941 434.202 503.941C435.922 503.941 437.302 504.941 437.302 506.321C437.302 507.881 435.542 508.701 434.202 508.781ZM434.202 515.321C432.302 515.321 430.762 514.301 430.762 512.801C430.762 511.141 432.782 510.181 434.202 510.141C435.642 510.181 437.642 511.141 437.642 512.801C437.642 514.301 436.102 515.321 434.202 515.321ZM444.864 509.521C446.744 509.521 448.064 508.021 448.064 506.081C448.064 504.181 446.784 502.641 444.884 502.641C443.024 502.641 441.684 504.141 441.684 506.121C441.684 507.981 442.964 509.521 444.864 509.521ZM443.364 516.501H444.884L454.284 502.761H452.764L443.364 516.501ZM444.884 508.441C443.784 508.441 442.944 507.421 442.944 506.101C442.944 504.721 443.744 503.721 444.864 503.721C445.984 503.721 446.804 504.741 446.804 506.101C446.804 507.441 446.004 508.441 444.884 508.441ZM452.704 516.701C454.564 516.701 455.904 515.201 455.904 513.241C455.904 511.381 454.624 509.821 452.724 509.821C450.824 509.821 449.524 511.381 449.524 513.261C449.524 515.221 450.864 516.701 452.704 516.701ZM452.724 515.621C451.584 515.621 450.784 514.601 450.784 513.241C450.784 511.941 451.564 510.901 452.704 510.901C453.824 510.901 454.644 511.921 454.644 513.261C454.644 514.621 453.864 515.621 452.724 515.621Z" fill="#0F0B47"/>
<line x1="468.744" y1="503.501" x2="468.744" y2="622.501" stroke="#0F0B47" stroke-linecap="square" stroke-dasharray="10 10"/>
<path d="M500.94 516.741C503.76 516.741 505.82 514.941 505.82 512.221C505.82 509.501 503.76 507.941 501.28 507.941C500.02 507.941 499.08 508.361 498.34 508.861L498.48 504.241H505.08V502.761H496.96L496.76 509.821L497.9 510.381C498.76 509.741 499.78 509.321 500.96 509.321C502.88 509.321 504.24 510.521 504.24 512.281C504.24 514.021 502.9 515.341 501 515.341C499.48 515.341 498.18 514.581 497.12 513.421L496.1 514.561C497.22 515.841 498.82 516.741 500.94 516.741ZM513.575 507.921C511.955 507.921 510.535 508.701 509.695 510.021V509.841C509.695 506.541 511.435 503.941 513.635 503.941C514.955 503.941 515.855 504.541 516.715 505.381L517.575 504.161C516.555 503.181 515.355 502.521 513.675 502.521C510.555 502.521 508.115 505.741 508.115 509.841C508.115 513.721 509.615 516.741 513.335 516.741C516.195 516.741 518.175 514.741 518.175 512.201C518.175 509.481 516.075 507.921 513.575 507.921ZM513.315 515.401C511.395 515.401 510.275 513.901 509.875 511.821C510.215 510.301 511.555 509.261 513.295 509.261C515.135 509.261 516.595 510.401 516.595 512.281C516.595 513.801 515.375 515.401 513.315 515.401ZM523.62 509.521C525.5 509.521 526.82 508.021 526.82 506.081C526.82 504.181 525.54 502.641 523.64 502.641C521.78 502.641 520.44 504.141 520.44 506.121C520.44 507.981 521.72 509.521 523.62 509.521ZM522.12 516.501H523.64L533.04 502.761H531.52L522.12 516.501ZM523.64 508.441C522.54 508.441 521.7 507.421 521.7 506.101C521.7 504.721 522.5 503.721 523.62 503.721C524.74 503.721 525.56 504.741 525.56 506.101C525.56 507.441 524.76 508.441 523.64 508.441ZM531.46 516.701C533.32 516.701 534.66 515.201 534.66 513.241C534.66 511.381 533.38 509.821 531.48 509.821C529.58 509.821 528.28 511.381 528.28 513.261C528.28 515.221 529.62 516.701 531.46 516.701ZM531.48 515.621C530.34 515.621 529.54 514.601 529.54 513.241C529.54 511.941 530.32 510.901 531.46 510.901C532.58 510.901 533.4 511.921 533.4 513.261C533.4 514.621 532.62 515.621 531.48 515.621Z" fill="#0F0B47"/>
<line x1="545.594" y1="503.883" x2="545.594" y2="622.883" stroke="#0F0B47" stroke-linecap="square" stroke-dasharray="10 10"/>
<rect x="2.23535" y="233.535" width="272.047" height="73.1405" fill="#1B0085"/>
<rect x="2.23535" y="255.834" width="214.07" height="50.8416" fill="#542AED"/>
<rect x="2.23535" y="281.701" width="97.2234" height="24.9748" fill="#E46BB7"/>
<path d="M226.824 200.132H236.304V198.652H229.324L232.924 195.532C235.244 193.532 236.164 192.052 236.164 190.192C236.164 187.732 234.164 186.152 231.784 186.152C229.624 186.152 228.084 187.172 226.944 188.792L228.044 189.692C228.984 188.412 230.124 187.552 231.724 187.552C233.184 187.552 234.584 188.532 234.584 190.212C234.584 191.572 233.784 192.892 231.844 194.552L226.824 198.832V200.132ZM243.652 200.372C246.472 200.372 248.672 198.872 248.672 196.532C248.672 194.812 247.312 193.592 245.652 193.032C247.072 192.512 248.332 191.492 248.332 189.812C248.332 187.552 246.112 186.152 243.652 186.152C241.272 186.152 238.992 187.512 238.992 189.792C238.992 191.372 240.112 192.432 241.672 193.032C239.992 193.572 238.632 194.812 238.632 196.532C238.632 198.852 240.812 200.372 243.652 200.372ZM243.652 192.412C242.352 192.332 240.572 191.552 240.572 189.952C240.572 188.572 241.932 187.572 243.652 187.572C245.372 187.572 246.752 188.572 246.752 189.952C246.752 191.512 244.992 192.332 243.652 192.412ZM243.652 198.952C241.752 198.952 240.212 197.932 240.212 196.432C240.212 194.772 242.232 193.812 243.652 193.772C245.092 193.812 247.092 194.772 247.092 196.432C247.092 197.932 245.552 198.952 243.652 198.952ZM254.314 193.152C256.194 193.152 257.514 191.652 257.514 189.712C257.514 187.812 256.234 186.272 254.334 186.272C252.474 186.272 251.134 187.772 251.134 189.752C251.134 191.612 252.414 193.152 254.314 193.152ZM252.814 200.132H254.334L263.734 186.392H262.214L252.814 200.132ZM254.334 192.072C253.234 192.072 252.394 191.052 252.394 189.732C252.394 188.352 253.194 187.352 254.314 187.352C255.434 187.352 256.254 188.372 256.254 189.732C256.254 191.072 255.454 192.072 254.334 192.072ZM262.154 200.332C264.014 200.332 265.354 198.832 265.354 196.872C265.354 195.012 264.074 193.452 262.174 193.452C260.274 193.452 258.974 195.012 258.974 196.892C258.974 198.852 260.314 200.332 262.154 200.332ZM262.174 199.252C261.034 199.252 260.234 198.232 260.234 196.872C260.234 195.572 261.014 194.532 262.154 194.532C263.274 194.532 264.094 195.552 264.094 196.892C264.094 198.252 263.314 199.252 262.174 199.252Z" fill="#0F0B47"/>
<path d="M164.548 200.132H174.028V198.652H167.048L170.648 195.532C172.968 193.532 173.888 192.052 173.888 190.192C173.888 187.732 171.888 186.152 169.508 186.152C167.348 186.152 165.808 187.172 164.668 188.792L165.768 189.692C166.708 188.412 167.848 187.552 169.448 187.552C170.908 187.552 172.308 188.532 172.308 190.212C172.308 191.572 171.508 192.892 169.568 194.552L164.548 198.832V200.132ZM175.857 200.132H185.337V198.652H178.357L181.957 195.532C184.277 193.532 185.197 192.052 185.197 190.192C185.197 187.732 183.197 186.152 180.817 186.152C178.657 186.152 177.117 187.172 175.977 188.792L177.077 189.692C178.017 188.412 179.157 187.552 180.757 187.552C182.217 187.552 183.617 188.532 183.617 190.212C183.617 191.572 182.817 192.892 180.877 194.552L175.857 198.832V200.132ZM190.925 193.152C192.805 193.152 194.125 191.652 194.125 189.712C194.125 187.812 192.845 186.272 190.945 186.272C189.085 186.272 187.745 187.772 187.745 189.752C187.745 191.612 189.025 193.152 190.925 193.152ZM189.425 200.132H190.945L200.345 186.392H198.825L189.425 200.132ZM190.945 192.072C189.845 192.072 189.005 191.052 189.005 189.732C189.005 188.352 189.805 187.352 190.925 187.352C192.045 187.352 192.865 188.372 192.865 189.732C192.865 191.072 192.065 192.072 190.945 192.072ZM198.765 200.332C200.625 200.332 201.965 198.832 201.965 196.872C201.965 195.012 200.685 193.452 198.785 193.452C196.885 193.452 195.585 195.012 195.585 196.892C195.585 198.852 196.925 200.332 198.765 200.332ZM198.785 199.252C197.645 199.252 196.845 198.232 196.845 196.872C196.845 195.572 197.625 194.532 198.765 194.532C199.885 194.532 200.705 195.552 200.705 196.892C200.705 198.252 199.925 199.252 198.785 199.252Z" fill="#0F0B47"/>
<path d="M54.3277 200.132H55.8877V186.392H54.6277L51.2477 188.692L51.9277 189.852L54.3277 188.292V200.132ZM64.9161 200.372C68.2561 200.372 70.6161 197.432 70.6161 193.252C70.6161 189.092 68.2561 186.152 64.9161 186.152C61.5561 186.152 59.1961 189.092 59.1961 193.252C59.1961 197.432 61.5561 200.372 64.9161 200.372ZM64.9161 198.932C62.4961 198.932 60.7761 196.572 60.7761 193.252C60.7761 189.932 62.4961 187.592 64.9161 187.592C67.3361 187.592 69.0361 189.932 69.0361 193.252C69.0361 196.572 67.3361 198.932 64.9161 198.932ZM76.2642 193.152C78.1442 193.152 79.4642 191.652 79.4642 189.712C79.4642 187.812 78.1842 186.272 76.2842 186.272C74.4242 186.272 73.0842 187.772 73.0842 189.752C73.0842 191.612 74.3642 193.152 76.2642 193.152ZM74.7642 200.132H76.2842L85.6842 186.392H84.1642L74.7642 200.132ZM76.2842 192.072C75.1842 192.072 74.3442 191.052 74.3442 189.732C74.3442 188.352 75.1442 187.352 76.2642 187.352C77.3842 187.352 78.2042 188.372 78.2042 189.732C78.2042 191.072 77.4042 192.072 76.2842 192.072ZM84.1042 200.332C85.9642 200.332 87.3042 198.832 87.3042 196.872C87.3042 195.012 86.0242 193.452 84.1242 193.452C82.2242 193.452 80.9242 195.012 80.9242 196.892C80.9242 198.852 82.2642 200.332 84.1042 200.332ZM84.1242 199.252C82.9842 199.252 82.1842 198.232 82.1842 196.872C82.1842 195.572 82.9642 194.532 84.1042 194.532C85.2242 194.532 86.0442 195.552 86.0442 196.892C86.0442 198.252 85.2642 199.252 84.1242 199.252Z" fill="#0F0B47"/>
<line x1="99.959" y1="187" x2="99.959" y2="306" stroke="#0F0B47" stroke-linecap="square" stroke-dasharray="10 10"/>
<line x1="216.806" y1="187" x2="216.806" y2="306" stroke="#0F0B47" stroke-linecap="square" stroke-dasharray="10 10"/>
<line x1="273.782" y1="187" x2="273.782" y2="306" stroke="#0F0B47" stroke-linecap="square" stroke-dasharray="10 10"/>
<path fill-rule="evenodd" clip-rule="evenodd" d="M116.833 113.307L133.151 96.2835C134.153 95.2388 135.776 95.2388 136.778 96.2835L153.096 113.307C154.097 114.352 154.097 116.045 153.096 117.09C152.094 118.135 150.471 118.135 149.469 117.09L137.529 104.633L137.529 146.325C137.529 147.802 136.381 149 134.964 149C133.548 149 132.4 147.802 132.4 146.325L132.4 104.633L120.459 117.09C119.458 118.135 117.834 118.135 116.833 117.09C115.832 116.045 115.832 114.352 116.833 113.307Z" fill="#19E107"/>
<path fill-rule="evenodd" clip-rule="evenodd" d="M169.961 424.536L186.279 407.512C187.281 406.467 188.904 406.467 189.905 407.512L206.224 424.536C207.225 425.58 207.225 427.274 206.224 428.319C205.222 429.363 203.599 429.363 202.597 428.319L190.656 415.862L190.656 457.554C190.656 459.031 189.508 460.229 188.092 460.229C186.676 460.229 185.528 459.031 185.528 457.554L185.528 415.862L173.587 428.319C172.586 429.363 170.962 429.363 169.961 428.319C168.96 427.274 168.96 425.58 169.961 424.536Z" fill="#19E107"/>
<path fill-rule="evenodd" clip-rule="evenodd" d="M206.224 746.943L189.905 763.967C188.904 765.011 187.28 765.011 186.279 763.967L169.961 746.943C168.96 745.898 168.96 744.205 169.961 743.16C170.962 742.115 172.586 742.115 173.587 743.16L185.528 755.617L185.528 713.925C185.528 712.448 186.676 711.25 188.092 711.25C189.508 711.25 190.656 712.448 190.656 713.925L190.656 755.617L202.597 743.16C203.599 742.115 205.222 742.115 206.224 743.16C207.225 744.205 207.225 745.898 206.224 746.943Z" fill="#E1077D"/>
<path fill-rule="evenodd" clip-rule="evenodd" d="M859.013 746.943L842.694 763.967C841.693 765.011 840.07 765.011 839.068 763.967L822.75 746.943C821.749 745.898 821.749 744.205 822.75 743.16C823.751 742.115 825.375 742.115 826.376 743.16L838.317 755.617L838.317 713.925C838.317 712.448 839.465 711.25 840.881 711.25C842.297 711.25 843.445 712.448 843.445 713.925L843.445 755.617L855.386 743.16C856.388 742.115 858.011 742.115 859.013 743.16C860.014 744.205 860.014 745.898 859.013 746.943Z" fill="#E1077D"/>
<path d="M4.48888 151.72L5.12888 151.032C3.38488 149.256 2.42488 147.368 2.42488 144.76C2.42488 142.136 3.38488 140.264 5.12888 138.472L4.48888 137.8C2.34488 139.592 1.14488 141.992 1.14488 144.76C1.14488 147.512 2.34488 149.928 4.48888 151.72ZM11.9469 144.392H15.0989V147.016C14.2829 147.64 13.0989 148.04 12.0749 148.04C9.70688 148.04 7.70688 145.96 7.70688 143.496C7.70688 141.048 9.70688 138.968 12.0749 138.968C13.2749 138.968 14.6989 139.512 15.4989 140.36L16.3469 139.496C15.3229 138.456 13.5949 137.816 12.0749 137.816C9.03488 137.816 6.44288 140.408 6.44288 143.496C6.44288 146.584 9.03488 149.192 12.0749 149.192C13.5949 149.192 15.3229 148.536 16.3469 147.512V143.208H11.9469V144.392ZM20.1389 142.344V140.728H18.9389V149H20.1389V144.376C20.1389 142.76 21.4669 141.608 23.3389 141.608V140.536C21.8189 140.536 20.6349 141.24 20.1389 142.344ZM28.2426 140.536C27.4426 140.536 26.4506 140.744 25.2666 141.336L25.7466 142.312C26.4986 141.928 27.3306 141.56 28.1626 141.56C29.9546 141.56 30.4026 142.84 30.4026 143.96V144.264C29.5546 143.992 28.6106 143.8 27.7146 143.8C25.9386 143.8 24.4666 144.904 24.4666 146.552C24.4666 148.184 25.7466 149.192 27.4906 149.192C28.5786 149.192 29.8106 148.68 30.4026 147.704V149H31.6026V143.96C31.6026 141.96 30.4986 140.536 28.2426 140.536ZM27.6986 148.136C26.5306 148.136 25.6346 147.528 25.6346 146.504C25.6346 145.512 26.6746 144.808 27.9066 144.808C28.8026 144.808 29.6506 144.936 30.4026 145.144V146.408C30.0826 147.576 28.7866 148.136 27.6986 148.136ZM40.3649 137.816V142.28C39.7409 141.192 38.6849 140.536 37.3569 140.536C35.1809 140.536 33.5489 142.328 33.5489 144.856C33.5489 147.4 35.1809 149.192 37.3569 149.192C38.6849 149.192 39.7409 148.536 40.3649 147.448V149H41.5649V137.816H40.3649ZM37.5809 148.12C35.9649 148.12 34.8129 146.76 34.8129 144.856C34.8129 142.952 35.9649 141.608 37.5809 141.608C39.2129 141.608 40.3649 142.952 40.3649 144.856C40.3649 146.76 39.2129 148.12 37.5809 148.12ZM49.9771 140.728V145.992C49.9771 147.16 48.8251 148.12 47.4171 148.12C46.2011 148.12 45.3531 147.192 45.3531 145.832V140.728H44.1531V145.992C44.1531 147.896 45.4171 149.192 47.2571 149.192C48.4411 149.192 49.4971 148.568 49.9771 147.688V149H51.1771V140.728H49.9771ZM56.9145 140.536C56.1145 140.536 55.1225 140.744 53.9385 141.336L54.4185 142.312C55.1705 141.928 56.0025 141.56 56.8345 141.56C58.6265 141.56 59.0745 142.84 59.0745 143.96V144.264C58.2265 143.992 57.2825 143.8 56.3865 143.8C54.6105 143.8 53.1385 144.904 53.1385 146.552C53.1385 148.184 54.4185 149.192 56.1625 149.192C57.2505 149.192 58.4825 148.68 59.0745 147.704V149H60.2745V143.96C60.2745 141.96 59.1705 140.536 56.9145 140.536ZM56.3705 148.136C55.2025 148.136 54.3065 147.528 54.3065 146.504C54.3065 145.512 55.3465 144.808 56.5785 144.808C57.4745 144.808 58.3225 144.936 59.0745 145.144V146.408C58.7545 147.576 57.4585 148.136 56.3705 148.136ZM66.0608 147.784C65.8848 147.976 65.5648 148.12 65.1968 148.12C64.7168 148.12 64.3008 147.688 64.3008 147.08V141.8H66.3328V140.728H64.3008V138.456H63.1008V140.728H61.8048V141.8H63.1008V147.08C63.1008 148.312 63.9328 149.192 65.1168 149.192C65.6768 149.192 66.2208 149 66.6528 148.664L66.0608 147.784ZM71.8644 148.12C70.2324 148.12 69.0964 146.936 68.9204 145.32H75.6884C75.6884 142.424 74.2644 140.536 71.7684 140.536C69.5444 140.536 67.6884 142.376 67.6884 144.84C67.6884 147.384 69.6724 149.192 71.8804 149.192C73.0324 149.192 74.4884 148.696 75.2084 147.912L74.4724 147.128C73.9604 147.688 72.8404 148.12 71.8644 148.12ZM71.8164 141.608C73.4644 141.608 74.3444 142.76 74.5044 144.248H68.9364C69.1604 142.648 70.3444 141.608 71.8164 141.608ZM83.8805 137.816V142.28C83.2565 141.192 82.2005 140.536 80.8725 140.536C78.6965 140.536 77.0645 142.328 77.0645 144.856C77.0645 147.4 78.6965 149.192 80.8725 149.192C82.2005 149.192 83.2565 148.536 83.8805 147.448V149H85.0805V137.816H83.8805ZM81.0965 148.12C79.4805 148.12 78.3285 146.76 78.3285 144.856C78.3285 142.952 79.4805 141.608 81.0965 141.608C82.7285 141.608 83.8805 142.952 83.8805 144.856C83.8805 146.76 82.7285 148.12 81.0965 148.12ZM87.5247 151.72C89.6688 149.928 90.8688 147.512 90.8688 144.76C90.8688 141.992 89.6688 139.592 87.5247 137.8L86.8848 138.472C88.6288 140.264 89.5888 142.136 89.5888 144.76C89.5888 147.368 88.6288 149.256 86.8848 151.032L87.5247 151.72Z" fill="#0F0B47"/>
<path d="M4.48888 462.949L5.12888 462.261C3.38488 460.485 2.42488 458.597 2.42488 455.989C2.42488 453.365 3.38488 451.493 5.12888 449.701L4.48888 449.029C2.34488 450.821 1.14488 453.221 1.14488 455.989C1.14488 458.741 2.34488 461.157 4.48888 462.949ZM11.9469 455.621H15.0989V458.245C14.2829 458.869 13.0989 459.269 12.0749 459.269C9.70688 459.269 7.70688 457.189 7.70688 454.725C7.70688 452.277 9.70688 450.197 12.0749 450.197C13.2749 450.197 14.6989 450.741 15.4989 451.589L16.3469 450.725C15.3229 449.685 13.5949 449.045 12.0749 449.045C9.03488 449.045 6.44288 451.637 6.44288 454.725C6.44288 457.813 9.03488 460.421 12.0749 460.421C13.5949 460.421 15.3229 459.765 16.3469 458.741V454.437H11.9469V455.621ZM20.1389 453.573V451.957H18.9389V460.229H20.1389V455.605C20.1389 453.989 21.4669 452.837 23.3389 452.837V451.765C21.8189 451.765 20.6349 452.469 20.1389 453.573ZM28.2426 451.765C27.4426 451.765 26.4506 451.973 25.2666 452.565L25.7466 453.541C26.4986 453.157 27.3306 452.789 28.1626 452.789C29.9546 452.789 30.4026 454.069 30.4026 455.189V455.493C29.5546 455.221 28.6106 455.029 27.7146 455.029C25.9386 455.029 24.4666 456.133 24.4666 457.781C24.4666 459.413 25.7466 460.421 27.4906 460.421C28.5786 460.421 29.8106 459.909 30.4026 458.933V460.229H31.6026V455.189C31.6026 453.189 30.4986 451.765 28.2426 451.765ZM27.6986 459.365C26.5306 459.365 25.6346 458.757 25.6346 457.733C25.6346 456.741 26.6746 456.037 27.9066 456.037C28.8026 456.037 29.6506 456.165 30.4026 456.373V457.637C30.0826 458.805 28.7866 459.365 27.6986 459.365ZM40.3649 449.045V453.509C39.7409 452.421 38.6849 451.765 37.3569 451.765C35.1809 451.765 33.5489 453.557 33.5489 456.085C33.5489 458.629 35.1809 460.421 37.3569 460.421C38.6849 460.421 39.7409 459.765 40.3649 458.677V460.229H41.5649V449.045H40.3649ZM37.5809 459.349C35.9649 459.349 34.8129 457.989 34.8129 456.085C34.8129 454.181 35.9649 452.837 37.5809 452.837C39.2129 452.837 40.3649 454.181 40.3649 456.085C40.3649 457.989 39.2129 459.349 37.5809 459.349ZM49.9771 451.957V457.221C49.9771 458.389 48.8251 459.349 47.4171 459.349C46.2011 459.349 45.3531 458.421 45.3531 457.061V451.957H44.1531V457.221C44.1531 459.125 45.4171 460.421 47.2571 460.421C48.4411 460.421 49.4971 459.797 49.9771 458.917V460.229H51.1771V451.957H49.9771ZM56.9145 451.765C56.1145 451.765 55.1225 451.973 53.9385 452.565L54.4185 453.541C55.1705 453.157 56.0025 452.789 56.8345 452.789C58.6265 452.789 59.0745 454.069 59.0745 455.189V455.493C58.2265 455.221 57.2825 455.029 56.3865 455.029C54.6105 455.029 53.1385 456.133 53.1385 457.781C53.1385 459.413 54.4185 460.421 56.1625 460.421C57.2505 460.421 58.4825 459.909 59.0745 458.933V460.229H60.2745V455.189C60.2745 453.189 59.1705 451.765 56.9145 451.765ZM56.3705 459.365C55.2025 459.365 54.3065 458.757 54.3065 457.733C54.3065 456.741 55.3465 456.037 56.5785 456.037C57.4745 456.037 58.3225 456.165 59.0745 456.373V457.637C58.7545 458.805 57.4585 459.365 56.3705 459.365ZM66.0608 459.013C65.8848 459.205 65.5648 459.349 65.1968 459.349C64.7168 459.349 64.3008 458.917 64.3008 458.309V453.029H66.3328V451.957H64.3008V449.685H63.1008V451.957H61.8048V453.029H63.1008V458.309C63.1008 459.541 63.9328 460.421 65.1168 460.421C65.6768 460.421 66.2208 460.229 66.6528 459.893L66.0608 459.013ZM71.8644 459.349C70.2324 459.349 69.0964 458.165 68.9204 456.549H75.6884C75.6884 453.653 74.2644 451.765 71.7684 451.765C69.5444 451.765 67.6884 453.605 67.6884 456.069C67.6884 458.613 69.6724 460.421 71.8804 460.421C73.0324 460.421 74.4884 459.925 75.2084 459.141L74.4724 458.357C73.9604 458.917 72.8404 459.349 71.8644 459.349ZM71.8164 452.837C73.4644 452.837 74.3444 453.989 74.5044 455.477H68.9364C69.1604 453.877 70.3444 452.837 71.8164 452.837ZM83.8805 449.045V453.509C83.2565 452.421 82.2005 451.765 80.8725 451.765C78.6965 451.765 77.0645 453.557 77.0645 456.085C77.0645 458.629 78.6965 460.421 80.8725 460.421C82.2005 460.421 83.2565 459.765 83.8805 458.677V460.229H85.0805V449.045H83.8805ZM81.0965 459.349C79.4805 459.349 78.3285 457.989 78.3285 456.085C78.3285 454.181 79.4805 452.837 81.0965 452.837C82.7285 452.837 83.8805 454.181 83.8805 456.085C83.8805 457.989 82.7285 459.349 81.0965 459.349ZM87.5247 462.949C89.6688 461.157 90.8688 458.741 90.8688 455.989C90.8688 453.221 89.6688 450.821 87.5247 449.029L86.8848 449.701C88.6288 451.493 89.5888 453.365 89.5888 455.989C89.5888 458.597 88.6288 460.485 86.8848 462.261L87.5247 462.949Z" fill="#0F0B47"/>
<path fill-rule="evenodd" clip-rule="evenodd" d="M965.751 424.536L982.069 407.512C983.071 406.467 984.694 406.467 985.695 407.512L1002.01 424.536C1003.02 425.58 1003.02 427.274 1002.01 428.319C1001.01 429.363 999.389 429.363 998.387 428.319L986.447 415.862L986.447 457.554C986.447 459.031 985.298 460.229 983.882 460.229C982.466 460.229 981.318 459.031 981.318 457.554L981.318 415.862L969.377 428.319C968.376 429.363 966.752 429.363 965.751 428.319C964.75 427.274 964.75 425.58 965.751 424.536Z" fill="#19E107"/>
<path d="M16.3769 114.46H7.43688L5.99688 118H1.04688L9.44688 97.39H14.3969L22.7969 118H17.8169L16.3769 114.46ZM14.9669 111.01L11.9069 103.48L8.84688 111.01H14.9669ZM43.2086 104.35C43.2086 105.95 42.7386 107.34 41.7986 108.52C40.8786 109.68 39.6386 110.49 38.0786 110.95L43.0286 118H37.9886L33.2786 111.31H30.6086V118H26.1686V97.39H35.4386C36.9186 97.39 38.2486 97.69 39.4286 98.29C40.6086 98.87 41.5286 99.69 42.1886 100.75C42.8686 101.81 43.2086 103.01 43.2086 104.35ZM30.6086 107.26H34.9886C36.0886 107.26 36.9786 107 37.6586 106.48C38.3386 105.94 38.6786 105.23 38.6786 104.35C38.6786 103.47 38.3386 102.77 37.6586 102.25C36.9786 101.71 36.0886 101.44 34.9886 101.44H30.6086V107.26ZM56.3516 106.42H65.4416V114.91C64.4216 115.99 63.1616 116.84 61.6616 117.46C60.1816 118.06 58.6716 118.36 57.1316 118.36C55.1716 118.36 53.3416 117.88 51.6416 116.92C49.9416 115.94 48.5816 114.63 47.5616 112.99C46.5616 111.35 46.0616 109.58 46.0616 107.68C46.0616 105.78 46.5616 104.02 47.5616 102.4C48.5816 100.76 49.9416 99.46 51.6416 98.5C53.3416 97.52 55.1716 97.03 57.1316 97.03C58.6716 97.03 60.1816 97.34 61.6616 97.96C63.1616 98.56 64.4216 99.4 65.4416 100.48L62.2316 103.36C61.6116 102.66 60.8416 102.1 59.9216 101.68C59.0016 101.26 58.0716 101.05 57.1316 101.05C55.9716 101.05 54.8916 101.36 53.8916 101.98C52.8916 102.58 52.0916 103.39 51.4916 104.41C50.9116 105.41 50.6216 106.5 50.6216 107.68C50.6216 108.86 50.9116 109.96 51.4916 110.98C52.0916 112 52.8916 112.82 53.8916 113.44C54.8916 114.04 55.9716 114.34 57.1316 114.34C57.8316 114.34 58.5316 114.23 59.2316 114.01C59.9316 113.77 60.5616 113.44 61.1216 113.02V109.87H56.3516V106.42ZM79.6002 118.36C77.6602 118.36 75.8402 117.88 74.1402 116.92C72.4602 115.94 71.1202 114.63 70.1202 112.99C69.1202 111.35 68.6202 109.58 68.6202 107.68C68.6202 105.78 69.1202 104.02 70.1202 102.4C71.1202 100.76 72.4602 99.46 74.1402 98.5C75.8402 97.52 77.6602 97.03 79.6002 97.03C81.5402 97.03 83.3502 97.52 85.0302 98.5C86.7102 99.46 88.0402 100.76 89.0202 102.4C90.0202 104.02 90.5202 105.78 90.5202 107.68C90.5202 109.58 90.0202 111.35 89.0202 112.99C88.0402 114.63 86.7102 115.94 85.0302 116.92C83.3502 117.88 81.5402 118.36 79.6002 118.36ZM79.6002 114.34C80.7202 114.34 81.7702 114.04 82.7502 113.44C83.7502 112.82 84.5402 112 85.1202 110.98C85.7002 109.96 85.9902 108.86 85.9902 107.68C85.9902 106.52 85.7002 105.43 85.1202 104.41C84.5402 103.39 83.7502 102.58 82.7502 101.98C81.7702 101.36 80.7202 101.05 79.6002 101.05C78.4602 101.05 77.4002 101.36 76.4202 101.98C75.4402 102.58 74.6502 103.39 74.0502 104.41C73.4702 105.43 73.1802 106.52 73.1802 107.68C73.1802 108.86 73.4702 109.96 74.0502 110.98C74.6302 112 75.4102 112.82 76.3902 113.44C77.3902 114.04 78.4602 114.34 79.6002 114.34Z" fill="#0F0B47"/>
<path d="M12.6569 429.589C15.7769 429.589 18.6269 428.239 20.6369 426.139L17.4269 423.259C16.2569 424.639 14.5469 425.569 12.6569 425.569C9.17688 425.569 6.23688 422.509 6.23688 418.909C6.23688 415.339 9.17688 412.279 12.6569 412.279C14.5169 412.279 16.2569 413.209 17.4269 414.589L20.6369 411.709C18.6269 409.579 15.7769 408.259 12.6569 408.259C6.71688 408.259 1.67688 413.119 1.67688 418.909C1.67688 424.699 6.71688 429.589 12.6569 429.589ZM33.9557 429.589C39.8957 429.589 44.8757 424.699 44.8757 418.909C44.8757 413.119 39.8957 408.259 33.9557 408.259C28.0157 408.259 22.9757 413.119 22.9757 418.909C22.9757 424.699 28.0157 429.589 33.9557 429.589ZM33.9557 425.569C30.4757 425.569 27.5357 422.509 27.5357 418.909C27.5357 415.339 30.4757 412.279 33.9557 412.279C37.4057 412.279 40.3457 415.339 40.3457 418.909C40.3457 422.509 37.4057 425.569 33.9557 425.569ZM65.943 415.579C65.943 411.499 62.673 408.619 58.173 408.619H48.903V429.229H53.343V422.539H56.013L60.723 429.229H65.763L60.813 422.179C63.903 421.279 65.943 418.819 65.943 415.579ZM53.343 412.669H57.723C59.913 412.669 61.413 413.809 61.413 415.579C61.413 417.349 59.913 418.489 57.723 418.489H53.343V412.669ZM85.896 412.609V408.619H70.026V429.229H85.896V425.239H74.466V420.709H84.846V416.719H74.466V412.609H85.896ZM90.1823 429.229H97.5923C104.522 429.229 109.442 424.939 109.442 418.909C109.442 412.879 104.522 408.619 97.5923 408.619H90.1823V429.229ZM94.6223 425.209V412.639H98.1623C102.092 412.639 104.882 415.249 104.882 418.909C104.882 422.599 102.092 425.209 98.1623 425.209H94.6223ZM113.415 429.229H117.855V415.909L127.785 429.229H132.225V408.619H127.785V421.939L117.855 408.619H113.415V429.229ZM145.058 429.589C150.068 429.589 153.068 426.979 153.068 423.049C153.068 419.239 150.128 417.919 145.688 416.929C142.508 416.209 141.248 415.729 141.248 414.229C141.248 412.999 142.418 412.009 144.278 412.009C146.258 412.009 148.328 412.819 150.188 414.319L152.498 411.109C150.368 409.309 147.788 408.259 144.428 408.259C139.898 408.259 136.778 410.869 136.778 414.679C136.778 418.669 139.898 419.899 144.248 420.889C147.398 421.609 148.598 422.059 148.598 423.529C148.598 424.819 147.458 425.839 145.208 425.839C142.598 425.839 140.378 424.819 138.428 423.139L135.908 426.169C138.308 428.389 141.458 429.589 145.058 429.589Z" fill="#0F0B47"/>
<path fill-rule="evenodd" clip-rule="evenodd" d="M885.819 113.307L902.138 96.2835C903.139 95.2388 904.762 95.2388 905.764 96.2835L922.082 113.307C923.083 114.352 923.083 116.045 922.082 117.09C921.081 118.135 919.457 118.135 918.456 117.09L906.515 104.633L906.515 146.325C906.515 147.802 905.367 149 903.951 149C902.535 149 901.387 147.802 901.387 146.325L901.387 104.633L889.446 117.09C888.444 118.135 886.821 118.135 885.819 117.09C884.818 116.045 884.818 114.352 885.819 113.307Z" fill="#19E107"/>
<rect x="656" y="550.343" width="194.268" height="73.1405" fill="#1B0085"/>
<rect x="656" y="572.642" width="135.988" height="50.8416" fill="#542AED"/>
<rect x="656" y="598.508" width="38.8537" height="24.9748" fill="#E46BB7"/>
<path d="M663.6 516.5H665.16V513.16H667.22V511.74H665.16V502.76H663.36L656.54 511.86L656.74 513.16H663.6V516.5ZM658.32 511.74L663.6 504.64V511.74H658.32ZM672.198 509.52C674.078 509.52 675.398 508.02 675.398 506.08C675.398 504.18 674.118 502.64 672.218 502.64C670.358 502.64 669.018 504.14 669.018 506.12C669.018 507.98 670.298 509.52 672.198 509.52ZM670.698 516.5H672.218L681.618 502.76H680.098L670.698 516.5ZM672.218 508.44C671.118 508.44 670.278 507.42 670.278 506.1C670.278 504.72 671.078 503.72 672.198 503.72C673.318 503.72 674.138 504.74 674.138 506.1C674.138 507.44 673.338 508.44 672.218 508.44ZM680.038 516.7C681.898 516.7 683.238 515.2 683.238 513.24C683.238 511.38 681.958 509.82 680.058 509.82C678.158 509.82 676.858 511.38 676.858 513.26C676.858 515.22 678.198 516.7 680.038 516.7ZM680.058 515.62C678.918 515.62 678.118 514.6 678.118 513.24C678.118 511.94 678.898 510.9 680.038 510.9C681.158 510.9 681.978 511.92 681.978 513.26C681.978 514.62 681.198 515.62 680.058 515.62Z" fill="#0F0B47"/>
<line x1="694.746" y1="503.516" x2="694.746" y2="622.516" stroke="#0F0B47" stroke-linecap="square" stroke-dasharray="10 10"/>
<path d="M801.679 516.5H811.159V515.02H804.179L807.779 511.9C810.099 509.9 811.019 508.42 811.019 506.56C811.019 504.1 809.019 502.52 806.639 502.52C804.479 502.52 802.939 503.54 801.799 505.16L802.899 506.06C803.839 504.78 804.979 503.92 806.579 503.92C808.039 503.92 809.439 504.9 809.439 506.58C809.439 507.94 808.639 509.26 806.699 510.92L801.679 515.2V516.5ZM819.228 516.74C822.568 516.74 824.928 513.8 824.928 509.62C824.928 505.46 822.568 502.52 819.228 502.52C815.868 502.52 813.508 505.46 813.508 509.62C813.508 513.8 815.868 516.74 819.228 516.74ZM819.228 515.3C816.808 515.3 815.088 512.94 815.088 509.62C815.088 506.3 816.808 503.96 819.228 503.96C821.648 503.96 823.348 506.3 823.348 509.62C823.348 512.94 821.648 515.3 819.228 515.3ZM830.576 509.52C832.456 509.52 833.776 508.02 833.776 506.08C833.776 504.18 832.496 502.64 830.596 502.64C828.736 502.64 827.396 504.14 827.396 506.12C827.396 507.98 828.676 509.52 830.576 509.52ZM829.076 516.5H830.596L839.996 502.76H838.476L829.076 516.5ZM830.596 508.44C829.496 508.44 828.656 507.42 828.656 506.1C828.656 504.72 829.456 503.72 830.576 503.72C831.696 503.72 832.516 504.74 832.516 506.1C832.516 507.44 831.716 508.44 830.596 508.44ZM838.416 516.7C840.276 516.7 841.616 515.2 841.616 513.24C841.616 511.38 840.336 509.82 838.436 509.82C836.536 509.82 835.236 511.38 835.236 513.26C835.236 515.22 836.576 516.7 838.416 516.7ZM838.436 515.62C837.296 515.62 836.496 514.6 836.496 513.24C836.496 511.94 837.276 510.9 838.416 510.9C839.536 510.9 840.356 511.92 840.356 513.26C840.356 514.62 839.576 515.62 838.436 515.62Z" fill="#0F0B47"/>
<line x1="849.946" y1="503.516" x2="849.946" y2="622.516" stroke="#0F0B47" stroke-linecap="square" stroke-dasharray="10 10"/>
<path d="M751.48 516.5H753.04V502.76H751.78L748.4 505.06L749.08 506.22L751.48 504.66V516.5ZM762.748 516.5H764.308V513.16H766.368V511.74H764.308V502.76H762.508L755.688 511.86L755.888 513.16H762.748V516.5ZM757.468 511.74L762.748 504.64V511.74H757.468ZM771.346 509.52C773.226 509.52 774.546 508.02 774.546 506.08C774.546 504.18 773.266 502.64 771.366 502.64C769.506 502.64 768.166 504.14 768.166 506.12C768.166 507.98 769.446 509.52 771.346 509.52ZM769.846 516.5H771.366L780.766 502.76H779.246L769.846 516.5ZM771.366 508.44C770.266 508.44 769.426 507.42 769.426 506.1C769.426 504.72 770.226 503.72 771.346 503.72C772.466 503.72 773.286 504.74 773.286 506.1C773.286 507.44 772.486 508.44 771.366 508.44ZM779.186 516.7C781.046 516.7 782.386 515.2 782.386 513.24C782.386 511.38 781.106 509.82 779.206 509.82C777.306 509.82 776.006 511.38 776.006 513.26C776.006 515.22 777.346 516.7 779.186 516.7ZM779.206 515.62C778.066 515.62 777.266 514.6 777.266 513.24C777.266 511.94 778.046 510.9 779.186 510.9C780.306 510.9 781.126 511.92 781.126 513.26C781.126 514.62 780.346 515.62 779.206 515.62Z" fill="#0F0B47"/>
<line x1="792.078" y1="503.516" x2="792.078" y2="622.516" stroke="#0F0B47" stroke-linecap="square" stroke-dasharray="10 10"/>
<path d="M660.192 462.949L660.832 462.261C659.088 460.485 658.128 458.597 658.128 455.989C658.128 453.365 659.088 451.493 660.832 449.701L660.192 449.029C658.048 450.821 656.848 453.221 656.848 455.989C656.848 458.741 658.048 461.157 660.192 462.949ZM662.994 460.229H664.242V449.237H662.994V460.229ZM671.296 451.765C670.112 451.765 669.056 452.389 668.576 453.269V451.957H667.376V460.229H668.576V454.965C668.576 453.797 669.728 452.837 671.136 452.837C672.352 452.837 673.2 453.765 673.2 455.125V460.229H674.4V454.965C674.4 453.061 673.136 451.765 671.296 451.765ZM680.538 460.421C681.69 460.421 682.746 459.941 683.53 459.157L682.698 458.341C682.138 458.965 681.37 459.349 680.538 459.349C678.89 459.349 677.514 457.861 677.514 456.085C677.514 454.325 678.89 452.837 680.538 452.837C681.354 452.837 682.106 453.205 682.65 453.797L683.482 452.981C682.698 452.229 681.658 451.765 680.538 451.765C678.218 451.765 676.25 453.733 676.25 456.085C676.25 458.437 678.218 460.421 680.538 460.421ZM690.915 451.957V457.221C690.915 458.389 689.763 459.349 688.355 459.349C687.139 459.349 686.291 458.421 686.291 457.061V451.957H685.091V457.221C685.091 459.125 686.355 460.421 688.195 460.421C689.379 460.421 690.435 459.797 690.915 458.917V460.229H692.115V451.957H690.915ZM699.1 451.765C697.772 451.765 696.716 452.421 696.092 453.509V449.045H694.892V460.229H696.092V458.677C696.716 459.765 697.772 460.421 699.1 460.421C701.276 460.421 702.908 458.629 702.908 456.085C702.908 453.557 701.276 451.765 699.1 451.765ZM698.876 459.349C697.244 459.349 696.092 457.989 696.092 456.085C696.092 454.181 697.244 452.837 698.876 452.837C700.492 452.837 701.644 454.181 701.644 456.085C701.644 457.989 700.492 459.349 698.876 459.349ZM708.008 451.765C707.208 451.765 706.216 451.973 705.032 452.565L705.512 453.541C706.264 453.157 707.096 452.789 707.928 452.789C709.72 452.789 710.168 454.069 710.168 455.189V455.493C709.32 455.221 708.376 455.029 707.48 455.029C705.704 455.029 704.232 456.133 704.232 457.781C704.232 459.413 705.512 460.421 707.256 460.421C708.344 460.421 709.576 459.909 710.168 458.933V460.229H711.368V455.189C711.368 453.189 710.264 451.765 708.008 451.765ZM707.464 459.365C706.296 459.365 705.4 458.757 705.4 457.733C705.4 456.741 706.44 456.037 707.672 456.037C708.568 456.037 709.416 456.165 710.168 456.373V457.637C709.848 458.805 708.552 459.365 707.464 459.365ZM717.155 459.013C716.979 459.205 716.659 459.349 716.291 459.349C715.811 459.349 715.395 458.917 715.395 458.309V453.029H717.427V451.957H715.395V449.685H714.195V451.957H712.899V453.029H714.195V458.309C714.195 459.541 715.027 460.421 716.211 460.421C716.771 460.421 717.315 460.229 717.747 459.893L717.155 459.013ZM720.078 450.453C720.51 450.453 720.862 450.085 720.862 449.653C720.862 449.237 720.51 448.869 720.078 448.869C719.63 448.869 719.278 449.237 719.278 449.653C719.278 450.085 719.63 450.453 720.078 450.453ZM719.47 460.229H720.67V451.957H719.47V460.229ZM727.375 451.765C726.191 451.765 725.135 452.389 724.655 453.269V451.957H723.455V460.229H724.655V454.965C724.655 453.797 725.807 452.837 727.215 452.837C728.431 452.837 729.279 453.765 729.279 455.125V460.229H730.479V454.965C730.479 453.061 729.215 451.765 727.375 451.765ZM739.16 451.957V453.381C738.52 452.373 737.464 451.765 736.152 451.765C733.928 451.765 732.344 453.381 732.344 455.685C732.344 457.989 733.928 459.621 736.152 459.621C737.464 459.621 738.52 459.013 739.16 458.005V459.349C739.16 460.965 738.04 461.909 736.136 461.909C735.112 461.909 734.12 461.541 733.48 460.933L732.952 461.877C733.704 462.517 734.952 462.981 736.296 462.981C738.68 462.981 740.36 461.477 740.36 459.349V451.957H739.16ZM736.376 458.549C734.76 458.549 733.608 457.365 733.608 455.685C733.608 454.021 734.76 452.837 736.376 452.837C738.008 452.837 739.16 454.021 739.16 455.685C739.16 457.365 738.008 458.549 736.376 458.549ZM742.806 462.949C744.95 461.157 746.15 458.741 746.15 455.989C746.15 453.221 744.95 450.821 742.806 449.029L742.166 449.701C743.91 451.493 744.87 453.365 744.87 455.989C744.87 458.597 743.91 460.485 742.166 462.261L742.806 462.949Z" fill="#0F0B47"/>
<path d="M668.36 433.589C674.3 433.589 679.28 428.699 679.28 422.909C679.28 417.119 674.3 412.259 668.36 412.259C662.42 412.259 657.38 417.119 657.38 422.909C657.38 428.699 662.42 433.589 668.36 433.589ZM668.36 429.569C664.88 429.569 661.94 426.509 661.94 422.909C661.94 419.339 664.88 416.279 668.36 416.279C671.81 416.279 674.75 419.339 674.75 422.909C674.75 426.509 671.81 429.569 668.36 429.569ZM683.307 433.229H687.747V426.539H692.577C697.077 426.539 700.347 423.659 700.347 419.579C700.347 415.499 697.077 412.619 692.577 412.619H683.307V433.229ZM687.747 422.489V416.669H692.127C694.317 416.669 695.817 417.809 695.817 419.579C695.817 421.349 694.317 422.489 692.127 422.489H687.747ZM720.037 416.609V412.619H704.167V433.229H720.037V429.239H708.607V424.709H718.987V420.719H708.607V416.609H720.037ZM724.323 433.229H728.763V419.909L738.693 433.229H743.133V412.619H738.693V425.939L728.763 412.619H724.323V433.229ZM761.29 433.229H765.7V416.609H772.15V412.619H754.87V416.609H761.29V433.229ZM791.55 416.609V412.619H775.68V433.229H791.55V429.239H780.12V424.709H790.5V420.719H780.12V416.609H791.55ZM800.277 429.239V412.619H795.837V433.229H810.537V429.239H800.277ZM829.988 416.609V412.619H814.118V433.229H829.988V429.239H818.558V424.709H828.938V420.719H818.558V416.609H829.988ZM834.274 433.229H838.714V420.389L845.074 432.029L851.464 420.389V433.229H855.874V412.619H851.464L845.074 424.259L838.714 412.619H834.274V433.229ZM876.98 416.609V412.619H861.11V433.229H876.98V429.239H865.55V424.709H875.93V420.719H865.55V416.609H876.98ZM886.036 433.229H890.446V416.609H896.896V412.619H879.616V416.609H886.036V433.229ZM917.466 419.579C917.466 415.499 914.196 412.619 909.696 412.619H900.426V433.229H904.866V426.539H907.536L912.246 433.229H917.286L912.336 426.179C915.426 425.279 917.466 422.819 917.466 419.579ZM904.866 416.669H909.246C911.436 416.669 912.936 417.809 912.936 419.579C912.936 421.349 911.436 422.489 909.246 422.489H904.866V416.669ZM927.699 433.229H932.169V425.789L940.209 412.619H935.259L929.919 421.649L924.789 412.619H919.629L927.699 425.789V433.229Z" fill="#0F0B47"/>
<path d="M660.192 151.72L660.832 151.032C659.088 149.256 658.128 147.368 658.128 144.76C658.128 142.136 659.088 140.264 660.832 138.472L660.192 137.8C658.048 139.592 656.848 141.992 656.848 144.76C656.848 147.512 658.048 149.928 660.192 151.72ZM667.65 144.392H670.802V147.016C669.986 147.64 668.802 148.04 667.778 148.04C665.41 148.04 663.41 145.96 663.41 143.496C663.41 141.048 665.41 138.968 667.778 138.968C668.978 138.968 670.402 139.512 671.202 140.36L672.05 139.496C671.026 138.456 669.298 137.816 667.778 137.816C664.738 137.816 662.146 140.408 662.146 143.496C662.146 146.584 664.738 149.192 667.778 149.192C669.298 149.192 671.026 148.536 672.05 147.512V143.208H667.65V144.392ZM675.842 142.344V140.728H674.642V149H675.842V144.376C675.842 142.76 677.17 141.608 679.042 141.608V140.536C677.522 140.536 676.338 141.24 675.842 142.344ZM683.946 140.536C683.146 140.536 682.154 140.744 680.97 141.336L681.45 142.312C682.202 141.928 683.034 141.56 683.866 141.56C685.658 141.56 686.106 142.84 686.106 143.96V144.264C685.258 143.992 684.314 143.8 683.418 143.8C681.642 143.8 680.17 144.904 680.17 146.552C680.17 148.184 681.45 149.192 683.194 149.192C684.282 149.192 685.514 148.68 686.106 147.704V149H687.306V143.96C687.306 141.96 686.202 140.536 683.946 140.536ZM683.402 148.136C682.234 148.136 681.338 147.528 681.338 146.504C681.338 145.512 682.378 144.808 683.61 144.808C684.506 144.808 685.354 144.936 686.106 145.144V146.408C685.786 147.576 684.49 148.136 683.402 148.136ZM696.068 137.816V142.28C695.444 141.192 694.388 140.536 693.06 140.536C690.884 140.536 689.252 142.328 689.252 144.856C689.252 147.4 690.884 149.192 693.06 149.192C694.388 149.192 695.444 148.536 696.068 147.448V149H697.268V137.816H696.068ZM693.284 148.12C691.668 148.12 690.516 146.76 690.516 144.856C690.516 142.952 691.668 141.608 693.284 141.608C694.916 141.608 696.068 142.952 696.068 144.856C696.068 146.76 694.916 148.12 693.284 148.12ZM705.68 140.728V145.992C705.68 147.16 704.528 148.12 703.12 148.12C701.904 148.12 701.056 147.192 701.056 145.832V140.728H699.856V145.992C699.856 147.896 701.12 149.192 702.96 149.192C704.144 149.192 705.2 148.568 705.68 147.688V149H706.88V140.728H705.68ZM712.618 140.536C711.818 140.536 710.826 140.744 709.642 141.336L710.122 142.312C710.874 141.928 711.706 141.56 712.538 141.56C714.33 141.56 714.778 142.84 714.778 143.96V144.264C713.93 143.992 712.986 143.8 712.09 143.8C710.314 143.8 708.842 144.904 708.842 146.552C708.842 148.184 710.122 149.192 711.866 149.192C712.954 149.192 714.186 148.68 714.778 147.704V149H715.978V143.96C715.978 141.96 714.874 140.536 712.618 140.536ZM712.074 148.136C710.906 148.136 710.01 147.528 710.01 146.504C710.01 145.512 711.05 144.808 712.282 144.808C713.178 144.808 714.026 144.936 714.778 145.144V146.408C714.458 147.576 713.162 148.136 712.074 148.136ZM721.764 147.784C721.588 147.976 721.268 148.12 720.9 148.12C720.42 148.12 720.004 147.688 720.004 147.08V141.8H722.036V140.728H720.004V138.456H718.804V140.728H717.508V141.8H718.804V147.08C718.804 148.312 719.636 149.192 720.82 149.192C721.38 149.192 721.924 149 722.356 148.664L721.764 147.784ZM727.568 148.12C725.936 148.12 724.799 146.936 724.624 145.32H731.392C731.392 142.424 729.968 140.536 727.472 140.536C725.248 140.536 723.392 142.376 723.392 144.84C723.392 147.384 725.376 149.192 727.584 149.192C728.736 149.192 730.192 148.696 730.911 147.912L730.176 147.128C729.664 147.688 728.544 148.12 727.568 148.12ZM727.52 141.608C729.168 141.608 730.048 142.76 730.208 144.248H724.64C724.864 142.648 726.048 141.608 727.52 141.608ZM739.584 137.816V142.28C738.96 141.192 737.904 140.536 736.576 140.536C734.4 140.536 732.768 142.328 732.768 144.856C732.768 147.4 734.4 149.192 736.576 149.192C737.904 149.192 738.96 148.536 739.584 147.448V149H740.784V137.816H739.584ZM736.8 148.12C735.184 148.12 734.032 146.76 734.032 144.856C734.032 142.952 735.184 141.608 736.8 141.608C738.432 141.608 739.584 142.952 739.584 144.856C739.584 146.76 738.432 148.12 736.8 148.12ZM743.228 151.72C745.372 149.928 746.572 147.512 746.572 144.76C746.572 141.992 745.372 139.592 743.228 137.8L742.588 138.472C744.332 140.264 745.292 142.136 745.292 144.76C745.292 147.368 744.332 149.256 742.588 151.032L743.228 151.72Z" fill="#0F0B47"/>
<path d="M241.476 15.5H248.112V14.464H243.226L245.746 12.28C247.37 10.88 248.014 9.844 248.014 8.542C248.014 6.82 246.614 5.714 244.948 5.714C243.436 5.714 242.358 6.428 241.56 7.562L242.33 8.192C242.988 7.296 243.786 6.694 244.906 6.694C245.928 6.694 246.908 7.38 246.908 8.556C246.908 9.508 246.348 10.432 244.99 11.594L241.476 14.59V15.5ZM253.76 15.668C256.098 15.668 257.75 13.61 257.75 10.684C257.75 7.772 256.098 5.714 253.76 5.714C251.408 5.714 249.756 7.772 249.756 10.684C249.756 13.61 251.408 15.668 253.76 15.668ZM253.76 14.66C252.066 14.66 250.862 13.008 250.862 10.684C250.862 8.36 252.066 6.722 253.76 6.722C255.454 6.722 256.644 8.36 256.644 10.684C256.644 13.008 255.454 14.66 253.76 14.66ZM259.072 15.5H265.708V14.464H260.822L263.342 12.28C264.966 10.88 265.61 9.844 265.61 8.542C265.61 6.82 264.21 5.714 262.544 5.714C261.032 5.714 259.954 6.428 259.156 7.562L259.926 8.192C260.584 7.296 261.382 6.694 262.502 6.694C263.524 6.694 264.504 7.38 264.504 8.556C264.504 9.508 263.944 10.432 262.586 11.594L259.072 14.59V15.5ZM266.988 15.5H273.624V14.464H268.738L271.258 12.28C272.882 10.88 273.526 9.844 273.526 8.542C273.526 6.82 272.126 5.714 270.46 5.714C268.948 5.714 267.87 6.428 267.072 7.562L267.842 8.192C268.5 7.296 269.298 6.694 270.418 6.694C271.44 6.694 272.42 7.38 272.42 8.556C272.42 9.508 271.86 10.432 270.502 11.594L266.988 14.59V15.5Z" fill="#0F0B47"/>
<rect x="207" width="20" height="20" rx="10" fill="#1B0085"/>
<path d="M139.476 15.5H146.112V14.464H141.226L143.746 12.28C145.37 10.88 146.014 9.844 146.014 8.542C146.014 6.82 144.614 5.714 142.948 5.714C141.436 5.714 140.358 6.428 139.56 7.562L140.33 8.192C140.988 7.296 141.786 6.694 142.906 6.694C143.928 6.694 144.908 7.38 144.908 8.556C144.908 9.508 144.348 10.432 142.99 11.594L139.476 14.59V15.5ZM151.76 15.668C154.098 15.668 155.75 13.61 155.75 10.684C155.75 7.772 154.098 5.714 151.76 5.714C149.408 5.714 147.756 7.772 147.756 10.684C147.756 13.61 149.408 15.668 151.76 15.668ZM151.76 14.66C150.066 14.66 148.862 13.008 148.862 10.684C148.862 8.36 150.066 6.722 151.76 6.722C153.454 6.722 154.644 8.36 154.644 10.684C154.644 13.008 153.454 14.66 151.76 14.66ZM157.072 15.5H163.708V14.464H158.822L161.342 12.28C162.966 10.88 163.61 9.844 163.61 8.542C163.61 6.82 162.21 5.714 160.544 5.714C159.032 5.714 157.954 6.428 157.156 7.562L157.926 8.192C158.584 7.296 159.382 6.694 160.502 6.694C161.524 6.694 162.504 7.38 162.504 8.556C162.504 9.508 161.944 10.432 160.586 11.594L157.072 14.59V15.5ZM166.948 15.5H168.04V5.882H167.158L164.792 7.492L165.268 8.304L166.948 7.212V15.5Z" fill="#0F0B47"/>
<rect x="105" width="20" height="20" rx="10" fill="#542AED"/>
<path d="M36.476 14H43.112V12.964H38.226L40.746 10.78C42.37 9.38 43.014 8.344 43.014 7.042C43.014 5.32 41.614 4.214 39.948 4.214C38.436 4.214 37.358 4.928 36.56 6.062L37.33 6.692C37.988 5.796 38.786 5.194 39.906 5.194C40.928 5.194 41.908 5.88 41.908 7.056C41.908 8.008 41.348 8.932 39.99 10.094L36.476 13.09V14ZM48.76 14.168C51.098 14.168 52.75 12.11 52.75 9.184C52.75 6.272 51.098 4.214 48.76 4.214C46.408 4.214 44.756 6.272 44.756 9.184C44.756 12.11 46.408 14.168 48.76 14.168ZM48.76 13.16C47.066 13.16 45.862 11.508 45.862 9.184C45.862 6.86 47.066 5.222 48.76 5.222C50.454 5.222 51.644 6.86 51.644 9.184C51.644 11.508 50.454 13.16 48.76 13.16ZM54.0717 14H60.7077V12.964H55.8217L58.3417 10.78C59.9657 9.38 60.6097 8.344 60.6097 7.042C60.6097 5.32 59.2097 4.214 57.5437 4.214C56.0317 4.214 54.9537 4.928 54.1557 6.062L54.9257 6.692C55.5837 5.796 56.3817 5.194 57.5017 5.194C58.5237 5.194 59.5037 5.88 59.5037 7.056C59.5037 8.008 58.9437 8.932 57.5857 10.094L54.0717 13.09V14ZM66.3557 14.168C68.6937 14.168 70.3457 12.11 70.3457 9.184C70.3457 6.272 68.6937 4.214 66.3557 4.214C64.0037 4.214 62.3517 6.272 62.3517 9.184C62.3517 12.11 64.0037 14.168 66.3557 14.168ZM66.3557 13.16C64.6617 13.16 63.4577 11.508 63.4577 9.184C63.4577 6.86 64.6617 5.222 66.3557 5.222C68.0497 5.222 69.2397 6.86 69.2397 9.184C69.2397 11.508 68.0497 13.16 66.3557 13.16Z" fill="#0F0B47"/>
<rect x="2" width="20" height="20" rx="10" fill="#E46BB7"/>
</svg>
