<svg width="327" height="713" viewBox="0 0 327 713" fill="none" xmlns="http://www.w3.org/2000/svg">
<rect y="405.271" width="143.92" height="74" fill="#1B0085"/>
<rect y="428.271" width="123.36" height="51" fill="#542AED"/>
<rect y="454.271" width="123.36" height="25" fill="#E46BB7"/>
<path d="M116.564 384.915C118.256 384.915 119.492 383.835 119.492 382.203C119.492 380.571 118.256 379.635 116.768 379.635C116.012 379.635 115.448 379.887 115.004 380.187L115.088 377.415H119.048V376.527H114.176L114.056 380.763L114.74 381.099C115.256 380.715 115.868 380.463 116.576 380.463C117.728 380.463 118.544 381.183 118.544 382.239C118.544 383.283 117.74 384.075 116.6 384.075C115.688 384.075 114.908 383.619 114.272 382.923L113.66 383.607C114.332 384.375 115.292 384.915 116.564 384.915ZM124.145 379.623C123.173 379.623 122.321 380.091 121.817 380.883V380.775C121.817 378.795 122.861 377.235 124.181 377.235C124.973 377.235 125.513 377.595 126.029 378.099L126.545 377.367C125.933 376.779 125.213 376.383 124.205 376.383C122.333 376.383 120.869 378.315 120.869 380.775C120.869 383.103 121.769 384.915 124.001 384.915C125.717 384.915 126.905 383.715 126.905 382.191C126.905 380.559 125.645 379.623 124.145 379.623ZM123.989 384.111C122.837 384.111 122.165 383.211 121.925 381.963C122.129 381.051 122.933 380.427 123.977 380.427C125.081 380.427 125.957 381.111 125.957 382.239C125.957 383.151 125.225 384.111 123.989 384.111ZM130.172 380.583C131.3 380.583 132.092 379.683 132.092 378.519C132.092 377.379 131.324 376.455 130.184 376.455C129.068 376.455 128.264 377.355 128.264 378.543C128.264 379.659 129.032 380.583 130.172 380.583ZM129.272 384.771H130.184L135.824 376.527H134.912L129.272 384.771ZM130.184 379.935C129.524 379.935 129.02 379.323 129.02 378.531C129.02 377.703 129.5 377.103 130.172 377.103C130.844 377.103 131.336 377.715 131.336 378.531C131.336 379.335 130.856 379.935 130.184 379.935ZM134.876 384.891C135.992 384.891 136.796 383.991 136.796 382.815C136.796 381.699 136.028 380.763 134.888 380.763C133.748 380.763 132.968 381.699 132.968 382.827C132.968 384.003 133.772 384.891 134.876 384.891ZM134.888 384.243C134.204 384.243 133.724 383.631 133.724 382.815C133.724 382.035 134.192 381.411 134.876 381.411C135.548 381.411 136.04 382.023 136.04 382.827C136.04 383.643 135.572 384.243 134.888 384.243Z" fill="#0F0B47"/>
<path d="M66.2397 395.271H67.1757V393.267H68.4117V392.415H67.1757V387.027H66.0957L62.0037 392.487L62.1237 393.267H66.2397V395.271ZM63.0717 392.415L66.2397 388.155V392.415H63.0717ZM72.4544 395.415C74.1464 395.415 75.4664 394.515 75.4664 393.111C75.4664 392.079 74.6504 391.347 73.6544 391.011C74.5064 390.699 75.2624 390.087 75.2624 389.079C75.2624 387.723 73.9304 386.883 72.4544 386.883C71.0264 386.883 69.6584 387.699 69.6584 389.067C69.6584 390.015 70.3304 390.651 71.2664 391.011C70.2584 391.335 69.4424 392.079 69.4424 393.111C69.4424 394.503 70.7504 395.415 72.4544 395.415ZM72.4544 390.639C71.6744 390.591 70.6064 390.123 70.6064 389.163C70.6064 388.335 71.4224 387.735 72.4544 387.735C73.4864 387.735 74.3144 388.335 74.3144 389.163C74.3144 390.099 73.2584 390.591 72.4544 390.639ZM72.4544 394.563C71.3144 394.563 70.3904 393.951 70.3904 393.051C70.3904 392.055 71.6024 391.479 72.4544 391.455C73.3184 391.479 74.5184 392.055 74.5184 393.051C74.5184 393.951 73.5944 394.563 72.4544 394.563ZM78.8515 391.083C79.9795 391.083 80.7715 390.183 80.7715 389.019C80.7715 387.879 80.0035 386.955 78.8635 386.955C77.7475 386.955 76.9435 387.855 76.9435 389.043C76.9435 390.159 77.7115 391.083 78.8515 391.083ZM77.9515 395.271H78.8635L84.5035 387.027H83.5915L77.9515 395.271ZM78.8635 390.435C78.2035 390.435 77.6995 389.823 77.6995 389.031C77.6995 388.203 78.1795 387.603 78.8515 387.603C79.5235 387.603 80.0155 388.215 80.0155 389.031C80.0155 389.835 79.5355 390.435 78.8635 390.435ZM83.5555 395.391C84.6715 395.391 85.4755 394.491 85.4755 393.315C85.4755 392.199 84.7075 391.263 83.5675 391.263C82.4275 391.263 81.6475 392.199 81.6475 393.327C81.6475 394.503 82.4515 395.391 83.5555 395.391ZM83.5675 394.743C82.8835 394.743 82.4035 394.131 82.4035 393.315C82.4035 392.535 82.8715 391.911 83.5555 391.911C84.2275 391.911 84.7195 392.523 84.7195 393.327C84.7195 394.143 84.2515 394.743 83.5675 394.743Z" fill="#0F0B47"/>
<path d="M123.25 479.021L123.25 394.08L93.7429 394.08" stroke="#0F0B47" stroke-width="0.5" stroke-linecap="square" stroke-dasharray="10 10"/>
<path d="M144.25 376.796L144.25 479.021" stroke="#0F0B47" stroke-width="0.5" stroke-linecap="square" stroke-dasharray="10 10"/>
<path fill-rule="evenodd" clip-rule="evenodd" d="M101.477 318.087L111.848 307.269C112.484 306.605 113.516 306.605 114.152 307.269L124.523 318.087C125.159 318.751 125.159 319.828 124.523 320.492C123.886 321.155 122.855 321.155 122.218 320.492L114.63 312.575L114.63 339.071C114.63 340.01 113.9 340.771 113 340.771C112.1 340.771 111.37 340.01 111.37 339.071L111.37 312.575L103.782 320.492C103.145 321.155 102.114 321.155 101.477 320.492C100.841 319.828 100.841 318.751 101.477 318.087Z" fill="#19E107"/>
<path d="M3.882 340.641L4.322 340.168C3.123 338.947 2.463 337.649 2.463 335.856C2.463 334.052 3.123 332.765 4.322 331.533L3.882 331.071C2.408 332.303 1.583 333.953 1.583 335.856C1.583 337.748 2.408 339.409 3.882 340.641ZM9.00938 335.603H11.1764V337.407C10.6154 337.836 9.80138 338.111 9.09738 338.111C7.46938 338.111 6.09438 336.681 6.09438 334.987C6.09438 333.304 7.46938 331.874 9.09738 331.874C9.92238 331.874 10.9014 332.248 11.4514 332.831L12.0344 332.237C11.3304 331.522 10.1424 331.082 9.09738 331.082C7.00738 331.082 5.22538 332.864 5.22538 334.987C5.22538 337.11 7.00738 338.903 9.09738 338.903C10.1424 338.903 11.3304 338.452 12.0344 337.748V334.789H9.00938V335.603ZM14.6414 334.195V333.084H13.8164V338.771H14.6414V335.592C14.6414 334.481 15.5544 333.689 16.8414 333.689V332.952C15.7964 332.952 14.9824 333.436 14.6414 334.195ZM20.2127 332.952C19.6627 332.952 18.9807 333.095 18.1667 333.502L18.4967 334.173C19.0137 333.909 19.5857 333.656 20.1577 333.656C21.3897 333.656 21.6977 334.536 21.6977 335.306V335.515C21.1147 335.328 20.4657 335.196 19.8497 335.196C18.6287 335.196 17.6167 335.955 17.6167 337.088C17.6167 338.21 18.4967 338.903 19.6957 338.903C20.4437 338.903 21.2907 338.551 21.6977 337.88V338.771H22.5227V335.306C22.5227 333.931 21.7637 332.952 20.2127 332.952ZM19.8387 338.177C19.0357 338.177 18.4197 337.759 18.4197 337.055C18.4197 336.373 19.1347 335.889 19.9817 335.889C20.5977 335.889 21.1807 335.977 21.6977 336.12V336.989C21.4777 337.792 20.5867 338.177 19.8387 338.177ZM28.5468 331.082V334.151C28.1178 333.403 27.3918 332.952 26.4788 332.952C24.9828 332.952 23.8608 334.184 23.8608 335.922C23.8608 337.671 24.9828 338.903 26.4788 338.903C27.3918 338.903 28.1178 338.452 28.5468 337.704V338.771H29.3718V331.082H28.5468ZM26.6328 338.166C25.5218 338.166 24.7298 337.231 24.7298 335.922C24.7298 334.613 25.5218 333.689 26.6328 333.689C27.7548 333.689 28.5468 334.613 28.5468 335.922C28.5468 337.231 27.7548 338.166 26.6328 338.166ZM35.1552 333.084V336.703C35.1552 337.506 34.3632 338.166 33.3952 338.166C32.5592 338.166 31.9762 337.528 31.9762 336.593V333.084H31.1512V336.703C31.1512 338.012 32.0202 338.903 33.2852 338.903C34.0992 338.903 34.8252 338.474 35.1552 337.869V338.771H35.9802V333.084H35.1552ZM39.9246 332.952C39.3746 332.952 38.6926 333.095 37.8786 333.502L38.2086 334.173C38.7256 333.909 39.2976 333.656 39.8696 333.656C41.1016 333.656 41.4096 334.536 41.4096 335.306V335.515C40.8266 335.328 40.1776 335.196 39.5616 335.196C38.3406 335.196 37.3286 335.955 37.3286 337.088C37.3286 338.21 38.2086 338.903 39.4076 338.903C40.1556 338.903 41.0026 338.551 41.4096 337.88V338.771H42.2346V335.306C42.2346 333.931 41.4756 332.952 39.9246 332.952ZM39.5506 338.177C38.7476 338.177 38.1316 337.759 38.1316 337.055C38.1316 336.373 38.8466 335.889 39.6936 335.889C40.3096 335.889 40.8926 335.977 41.4096 336.12V336.989C41.1896 337.792 40.2986 338.177 39.5506 338.177ZM46.2127 337.935C46.0917 338.067 45.8717 338.166 45.6187 338.166C45.2887 338.166 45.0027 337.869 45.0027 337.451V333.821H46.3997V333.084H45.0027V331.522H44.1777V333.084H43.2867V333.821H44.1777V337.451C44.1777 338.298 44.7497 338.903 45.5637 338.903C45.9487 338.903 46.3227 338.771 46.6197 338.54L46.2127 337.935ZM50.2027 338.166C49.0807 338.166 48.2997 337.352 48.1787 336.241H52.8317C52.8317 334.25 51.8527 332.952 50.1367 332.952C48.6077 332.952 47.3317 334.217 47.3317 335.911C47.3317 337.66 48.6957 338.903 50.2137 338.903C51.0057 338.903 52.0067 338.562 52.5017 338.023L51.9957 337.484C51.6437 337.869 50.8737 338.166 50.2027 338.166ZM50.1697 333.689C51.3027 333.689 51.9077 334.481 52.0177 335.504H48.1897C48.3437 334.404 49.1577 333.689 50.1697 333.689ZM58.4637 331.082V334.151C58.0347 333.403 57.3087 332.952 56.3957 332.952C54.8997 332.952 53.7777 334.184 53.7777 335.922C53.7777 337.671 54.8997 338.903 56.3957 338.903C57.3087 338.903 58.0347 338.452 58.4637 337.704V338.771H59.2887V331.082H58.4637ZM56.5497 338.166C55.4387 338.166 54.6467 337.231 54.6467 335.922C54.6467 334.613 55.4387 333.689 56.5497 333.689C57.6717 333.689 58.4637 334.613 58.4637 335.922C58.4637 337.231 57.6717 338.166 56.5497 338.166ZM60.9692 340.641C62.4432 339.409 63.2682 337.748 63.2682 335.856C63.2682 333.953 62.4432 332.303 60.9692 331.071L60.5292 331.533C61.7282 332.765 62.3882 334.052 62.3882 335.856C62.3882 337.649 61.7282 338.947 60.5292 340.168L60.9692 340.641Z" fill="#0F0B47"/>
<path d="M7.592 320.963C9.256 320.963 10.776 320.243 11.848 319.123L10.136 317.587C9.512 318.323 8.6 318.819 7.592 318.819C5.736 318.819 4.168 317.187 4.168 315.267C4.168 313.363 5.736 311.731 7.592 311.731C8.584 311.731 9.512 312.227 10.136 312.963L11.848 311.427C10.776 310.291 9.256 309.587 7.592 309.587C4.424 309.587 1.736 312.179 1.736 315.267C1.736 318.355 4.424 320.963 7.592 320.963ZM18.9514 320.963C22.1194 320.963 24.7754 318.355 24.7754 315.267C24.7754 312.179 22.1194 309.587 18.9514 309.587C15.7834 309.587 13.0954 312.179 13.0954 315.267C13.0954 318.355 15.7834 320.963 18.9514 320.963ZM18.9514 318.819C17.0954 318.819 15.5274 317.187 15.5274 315.267C15.5274 313.363 17.0954 311.731 18.9514 311.731C20.7914 311.731 22.3594 313.363 22.3594 315.267C22.3594 317.187 20.7914 318.819 18.9514 318.819ZM36.0113 313.491C36.0113 311.315 34.2673 309.779 31.8673 309.779H26.9233V320.771H29.2913V317.203H30.7153L33.2273 320.771H35.9153L33.2753 317.011C34.9233 316.531 36.0113 315.219 36.0113 313.491ZM29.2913 311.939H31.6273C32.7953 311.939 33.5953 312.547 33.5953 313.491C33.5953 314.435 32.7953 315.043 31.6273 315.043H29.2913V311.939ZM46.6529 311.907V309.779H38.1889V320.771H46.6529V318.643H40.5569V316.227H46.0929V314.099H40.5569V311.907H46.6529ZM48.9389 320.771H52.8909C56.5869 320.771 59.2109 318.483 59.2109 315.267C59.2109 312.051 56.5869 309.779 52.8909 309.779H48.9389V320.771ZM51.3069 318.627V311.923H53.1949C55.2909 311.923 56.7789 313.315 56.7789 315.267C56.7789 317.235 55.2909 318.627 53.1949 318.627H51.3069ZM61.3295 320.771H63.6975V313.667L68.9935 320.771H71.3615V309.779H68.9935V316.883L63.6975 309.779H61.3295V320.771ZM78.206 320.963C80.878 320.963 82.478 319.571 82.478 317.475C82.478 315.443 80.91 314.739 78.542 314.211C76.846 313.827 76.174 313.571 76.174 312.771C76.174 312.115 76.798 311.587 77.79 311.587C78.846 311.587 79.95 312.019 80.942 312.819L82.174 311.107C81.038 310.147 79.662 309.587 77.87 309.587C75.454 309.587 73.79 310.979 73.79 313.011C73.79 315.139 75.454 315.795 77.774 316.323C79.454 316.707 80.094 316.947 80.094 317.731C80.094 318.419 79.486 318.963 78.286 318.963C76.894 318.963 75.71 318.419 74.67 317.523L73.326 319.139C74.606 320.323 76.286 320.963 78.206 320.963Z" fill="#0F0B47"/>
<rect x="174" y="156" width="143.92" height="74" fill="#1B0085"/>
<rect x="174" y="179" width="118.22" height="51" fill="#542AED"/>
<rect x="174" y="205" width="92.52" height="25" fill="#E46BB7"/>
<path d="M292.564 125.935C294.256 125.935 295.492 124.855 295.492 123.223C295.492 121.591 294.256 120.655 292.768 120.655C292.012 120.655 291.448 120.907 291.004 121.207L291.088 118.435H295.048V117.547H290.176L290.056 121.783L290.74 122.119C291.256 121.735 291.868 121.483 292.576 121.483C293.728 121.483 294.544 122.203 294.544 123.259C294.544 124.303 293.74 125.095 292.6 125.095C291.688 125.095 290.908 124.639 290.272 123.943L289.66 124.627C290.332 125.395 291.292 125.935 292.564 125.935ZM300.145 120.643C299.173 120.643 298.321 121.111 297.817 121.903V121.795C297.817 119.815 298.861 118.255 300.181 118.255C300.973 118.255 301.513 118.615 302.029 119.119L302.545 118.387C301.933 117.799 301.213 117.403 300.205 117.403C298.333 117.403 296.869 119.335 296.869 121.795C296.869 124.123 297.769 125.935 300.001 125.935C301.717 125.935 302.905 124.735 302.905 123.211C302.905 121.579 301.645 120.643 300.145 120.643ZM299.989 125.131C298.837 125.131 298.165 124.231 297.925 122.983C298.129 122.071 298.933 121.447 299.977 121.447C301.081 121.447 301.957 122.131 301.957 123.259C301.957 124.171 301.225 125.131 299.989 125.131ZM306.172 121.603C307.3 121.603 308.092 120.703 308.092 119.539C308.092 118.399 307.324 117.475 306.184 117.475C305.068 117.475 304.264 118.375 304.264 119.563C304.264 120.679 305.032 121.603 306.172 121.603ZM305.272 125.791H306.184L311.824 117.547H310.912L305.272 125.791ZM306.184 120.955C305.524 120.955 305.02 120.343 305.02 119.551C305.02 118.723 305.5 118.123 306.172 118.123C306.844 118.123 307.336 118.735 307.336 119.551C307.336 120.355 306.856 120.955 306.184 120.955ZM310.876 125.911C311.992 125.911 312.796 125.011 312.796 123.835C312.796 122.719 312.028 121.783 310.888 121.783C309.748 121.783 308.968 122.719 308.968 123.847C308.968 125.023 309.772 125.911 310.876 125.911ZM310.888 125.263C310.204 125.263 309.724 124.651 309.724 123.835C309.724 123.055 310.192 122.431 310.876 122.431C311.548 122.431 312.04 123.043 312.04 123.847C312.04 124.663 311.572 125.263 310.888 125.263Z" fill="#0F0B47"/>
<path d="M247.306 136H248.242V133.996H249.478V133.144H248.242V127.756H247.162L243.07 133.216L243.19 133.996H247.306V136ZM244.138 133.144L247.306 128.884V133.144H244.138ZM253.833 130.852C252.861 130.852 252.009 131.32 251.505 132.112V132.004C251.505 130.024 252.549 128.464 253.869 128.464C254.661 128.464 255.201 128.824 255.717 129.328L256.233 128.596C255.621 128.008 254.901 127.612 253.893 127.612C252.021 127.612 250.557 129.544 250.557 132.004C250.557 134.332 251.457 136.144 253.689 136.144C255.405 136.144 256.593 134.944 256.593 133.42C256.593 131.788 255.333 130.852 253.833 130.852ZM253.677 135.34C252.525 135.34 251.853 134.44 251.613 133.192C251.817 132.28 252.621 131.656 253.665 131.656C254.769 131.656 255.645 132.34 255.645 133.468C255.645 134.38 254.913 135.34 253.677 135.34ZM259.859 131.812C260.987 131.812 261.779 130.912 261.779 129.748C261.779 128.608 261.011 127.684 259.871 127.684C258.755 127.684 257.951 128.584 257.951 129.772C257.951 130.888 258.719 131.812 259.859 131.812ZM258.959 136H259.871L265.511 127.756H264.599L258.959 136ZM259.871 131.164C259.211 131.164 258.707 130.552 258.707 129.76C258.707 128.932 259.187 128.332 259.859 128.332C260.531 128.332 261.023 128.944 261.023 129.76C261.023 130.564 260.543 131.164 259.871 131.164ZM264.563 136.12C265.679 136.12 266.483 135.22 266.483 134.044C266.483 132.928 265.715 131.992 264.575 131.992C263.435 131.992 262.655 132.928 262.655 134.056C262.655 135.232 263.459 136.12 264.563 136.12ZM264.575 135.472C263.891 135.472 263.411 134.86 263.411 134.044C263.411 133.264 263.879 132.64 264.563 132.64C265.235 132.64 265.727 133.252 265.727 134.056C265.727 134.872 265.259 135.472 264.575 135.472Z" fill="#0F0B47"/>
<path d="M205.881 148.144C207.597 148.144 208.749 147.148 208.749 145.768C208.749 144.58 207.813 143.968 206.973 143.776C207.825 143.524 208.569 142.9 208.569 141.844C208.569 140.524 207.417 139.612 205.845 139.612C204.561 139.612 203.649 140.236 203.025 141.064L203.649 141.628C204.237 140.92 204.885 140.464 205.797 140.464C206.829 140.464 207.621 141.088 207.621 141.952C207.621 142.888 206.793 143.416 205.689 143.404L204.801 143.392V144.256H205.677C206.973 144.256 207.801 144.748 207.801 145.72C207.801 146.656 207.033 147.292 205.881 147.292C204.873 147.292 204.069 146.812 203.529 146.116L202.881 146.728C203.481 147.52 204.525 148.144 205.881 148.144ZM213.537 142.852C212.565 142.852 211.713 143.32 211.209 144.112V144.004C211.209 142.024 212.253 140.464 213.573 140.464C214.365 140.464 214.905 140.824 215.421 141.328L215.937 140.596C215.325 140.008 214.605 139.612 213.597 139.612C211.725 139.612 210.261 141.544 210.261 144.004C210.261 146.332 211.161 148.144 213.393 148.144C215.109 148.144 216.297 146.944 216.297 145.42C216.297 143.788 215.037 142.852 213.537 142.852ZM213.381 147.34C212.229 147.34 211.557 146.44 211.317 145.192C211.521 144.28 212.325 143.656 213.369 143.656C214.473 143.656 215.349 144.34 215.349 145.468C215.349 146.38 214.617 147.34 213.381 147.34ZM219.563 143.812C220.691 143.812 221.483 142.912 221.483 141.748C221.483 140.608 220.715 139.684 219.575 139.684C218.459 139.684 217.655 140.584 217.655 141.772C217.655 142.888 218.423 143.812 219.563 143.812ZM218.663 148H219.575L225.215 139.756H224.303L218.663 148ZM219.575 143.164C218.915 143.164 218.411 142.552 218.411 141.76C218.411 140.932 218.891 140.332 219.563 140.332C220.235 140.332 220.727 140.944 220.727 141.76C220.727 142.564 220.247 143.164 219.575 143.164ZM224.267 148.12C225.383 148.12 226.187 147.22 226.187 146.044C226.187 144.928 225.419 143.992 224.279 143.992C223.139 143.992 222.359 144.928 222.359 146.056C222.359 147.232 223.163 148.12 224.267 148.12ZM224.279 147.472C223.595 147.472 223.115 146.86 223.115 146.044C223.115 145.264 223.583 144.64 224.267 144.64C224.939 144.64 225.431 145.252 225.431 146.056C225.431 146.872 224.963 147.472 224.279 147.472Z" fill="#0F0B47"/>
<path d="M267.25 229.75L267.25 147.798L235.552 147.798" stroke="#0F0B47" stroke-width="0.5" stroke-linecap="square" stroke-dasharray="10 10"/>
<path d="M292.25 229.75V135.463L271.96 135.463" stroke="#0F0B47" stroke-width="0.5" stroke-linecap="square" stroke-dasharray="10 10"/>
<path d="M317.92 125.791L317.92 237.947" stroke="#0F0B47" stroke-width="0.5" stroke-linecap="square" stroke-dasharray="10 10"/>
<path d="M176.882 88.6613L177.322 88.1883C176.123 86.9673 175.463 85.6693 175.463 83.8763C175.463 82.0723 176.123 80.7853 177.322 79.5533L176.882 79.0913C175.408 80.3233 174.583 81.9733 174.583 83.8763C174.583 85.7683 175.408 87.4293 176.882 88.6613ZM182.009 83.6233H184.176V85.4273C183.615 85.8563 182.801 86.1313 182.097 86.1313C180.469 86.1313 179.094 84.7013 179.094 83.0073C179.094 81.3243 180.469 79.8943 182.097 79.8943C182.922 79.8943 183.901 80.2683 184.451 80.8513L185.034 80.2573C184.33 79.5423 183.142 79.1023 182.097 79.1023C180.007 79.1023 178.225 80.8843 178.225 83.0073C178.225 85.1303 180.007 86.9233 182.097 86.9233C183.142 86.9233 184.33 86.4723 185.034 85.7683V82.8093H182.009V83.6233ZM187.641 82.2153V81.1043H186.816V86.7913H187.641V83.6123C187.641 82.5013 188.554 81.7093 189.841 81.7093V80.9723C188.796 80.9723 187.982 81.4563 187.641 82.2153ZM193.213 80.9723C192.663 80.9723 191.981 81.1153 191.167 81.5223L191.497 82.1933C192.014 81.9293 192.586 81.6763 193.158 81.6763C194.39 81.6763 194.698 82.5563 194.698 83.3263V83.5353C194.115 83.3483 193.466 83.2163 192.85 83.2163C191.629 83.2163 190.617 83.9753 190.617 85.1083C190.617 86.2303 191.497 86.9233 192.696 86.9233C193.444 86.9233 194.291 86.5713 194.698 85.9003V86.7913H195.523V83.3263C195.523 81.9513 194.764 80.9723 193.213 80.9723ZM192.839 86.1973C192.036 86.1973 191.42 85.7793 191.42 85.0753C191.42 84.3933 192.135 83.9093 192.982 83.9093C193.598 83.9093 194.181 83.9973 194.698 84.1403V85.0093C194.478 85.8123 193.587 86.1973 192.839 86.1973ZM201.547 79.1023V82.1713C201.118 81.4233 200.392 80.9723 199.479 80.9723C197.983 80.9723 196.861 82.2043 196.861 83.9423C196.861 85.6913 197.983 86.9233 199.479 86.9233C200.392 86.9233 201.118 86.4723 201.547 85.7243V86.7913H202.372V79.1023H201.547ZM199.633 86.1863C198.522 86.1863 197.73 85.2513 197.73 83.9423C197.73 82.6333 198.522 81.7093 199.633 81.7093C200.755 81.7093 201.547 82.6333 201.547 83.9423C201.547 85.2513 200.755 86.1863 199.633 86.1863ZM208.155 81.1043V84.7233C208.155 85.5263 207.363 86.1863 206.395 86.1863C205.559 86.1863 204.976 85.5483 204.976 84.6133V81.1043H204.151V84.7233C204.151 86.0323 205.02 86.9233 206.285 86.9233C207.099 86.9233 207.825 86.4943 208.155 85.8893V86.7913H208.98V81.1043H208.155ZM212.925 80.9723C212.375 80.9723 211.693 81.1153 210.879 81.5223L211.209 82.1933C211.726 81.9293 212.298 81.6763 212.87 81.6763C214.102 81.6763 214.41 82.5563 214.41 83.3263V83.5353C213.827 83.3483 213.178 83.2163 212.562 83.2163C211.341 83.2163 210.329 83.9753 210.329 85.1083C210.329 86.2303 211.209 86.9233 212.408 86.9233C213.156 86.9233 214.003 86.5713 214.41 85.9003V86.7913H215.235V83.3263C215.235 81.9513 214.476 80.9723 212.925 80.9723ZM212.551 86.1973C211.748 86.1973 211.132 85.7793 211.132 85.0753C211.132 84.3933 211.847 83.9093 212.694 83.9093C213.31 83.9093 213.893 83.9973 214.41 84.1403V85.0093C214.19 85.8123 213.299 86.1973 212.551 86.1973ZM219.213 85.9553C219.092 86.0873 218.872 86.1863 218.619 86.1863C218.289 86.1863 218.003 85.8893 218.003 85.4713V81.8413H219.4V81.1043H218.003V79.5423H217.178V81.1043H216.287V81.8413H217.178V85.4713C217.178 86.3183 217.75 86.9233 218.564 86.9233C218.949 86.9233 219.323 86.7913 219.62 86.5603L219.213 85.9553ZM223.203 86.1863C222.081 86.1863 221.3 85.3723 221.179 84.2613H225.832C225.832 82.2703 224.853 80.9723 223.137 80.9723C221.608 80.9723 220.332 82.2373 220.332 83.9313C220.332 85.6803 221.696 86.9233 223.214 86.9233C224.006 86.9233 225.007 86.5823 225.502 86.0433L224.996 85.5043C224.644 85.8893 223.874 86.1863 223.203 86.1863ZM223.17 81.7093C224.303 81.7093 224.908 82.5013 225.018 83.5243H221.19C221.344 82.4243 222.158 81.7093 223.17 81.7093ZM231.464 79.1023V82.1713C231.035 81.4233 230.309 80.9723 229.396 80.9723C227.9 80.9723 226.778 82.2043 226.778 83.9423C226.778 85.6913 227.9 86.9233 229.396 86.9233C230.309 86.9233 231.035 86.4723 231.464 85.7243V86.7913H232.289V79.1023H231.464ZM229.55 86.1863C228.439 86.1863 227.647 85.2513 227.647 83.9423C227.647 82.6333 228.439 81.7093 229.55 81.7093C230.672 81.7093 231.464 82.6333 231.464 83.9423C231.464 85.2513 230.672 86.1863 229.55 86.1863ZM233.969 88.6613C235.443 87.4293 236.268 85.7683 236.268 83.8763C236.268 81.9733 235.443 80.3233 233.969 79.0913L233.529 79.5533C234.728 80.7853 235.388 82.0723 235.388 83.8763C235.388 85.6693 234.728 86.9673 233.529 88.1883L233.969 88.6613Z" fill="#0F0B47"/>
<path d="M180.592 68.9833C182.256 68.9833 183.776 68.2633 184.848 67.1433L183.136 65.6073C182.512 66.3433 181.6 66.8393 180.592 66.8393C178.736 66.8393 177.168 65.2073 177.168 63.2873C177.168 61.3833 178.736 59.7513 180.592 59.7513C181.584 59.7513 182.512 60.2473 183.136 60.9833L184.848 59.4473C183.776 58.3113 182.256 57.6073 180.592 57.6073C177.424 57.6073 174.736 60.1993 174.736 63.2873C174.736 66.3753 177.424 68.9833 180.592 68.9833ZM191.951 68.9833C195.119 68.9833 197.775 66.3753 197.775 63.2873C197.775 60.1993 195.119 57.6073 191.951 57.6073C188.783 57.6073 186.095 60.1993 186.095 63.2873C186.095 66.3753 188.783 68.9833 191.951 68.9833ZM191.951 66.8393C190.095 66.8393 188.527 65.2073 188.527 63.2873C188.527 61.3833 190.095 59.7513 191.951 59.7513C193.791 59.7513 195.359 61.3833 195.359 63.2873C195.359 65.2073 193.791 66.8393 191.951 66.8393ZM199.923 68.7913H202.291V61.6873L207.587 68.7913H209.955V57.7993H207.587V64.9033L202.291 57.7993H199.923V68.7913ZM215.28 68.7913H217.632V59.9273H221.072V57.7993H211.856V59.9273H215.28V68.7913ZM230.907 68.7913H233.563L229.083 57.7993H226.443L221.963 68.7913H224.603L225.371 66.9033H230.139L230.907 68.7913ZM226.123 65.0633L227.755 61.0473L229.387 65.0633H226.123ZM235.361 68.7913H237.729V57.7993H235.361V68.7913ZM240.517 68.7913H242.885V61.6873L248.181 68.7913H250.549V57.7993H248.181V64.9033L242.885 57.7993H240.517V68.7913ZM261.794 59.9273V57.7993H253.33V68.7913H261.794V66.6633H255.698V64.2473H261.234V62.1193H255.698V59.9273H261.794ZM273.168 61.5113C273.168 59.3353 271.424 57.7993 269.024 57.7993H264.08V68.7913H266.448V65.2233H267.872L270.384 68.7913H273.072L270.432 65.0313C272.08 64.5513 273.168 63.2393 273.168 61.5113ZM266.448 59.9593H268.784C269.952 59.9593 270.752 60.5673 270.752 61.5113C270.752 62.4553 269.952 63.0633 268.784 63.0633H266.448V59.9593ZM275.345 68.7913H279.297C282.993 68.7913 285.617 66.5033 285.617 63.2873C285.617 60.0713 282.993 57.7993 279.297 57.7993H275.345V68.7913ZM277.713 66.6473V59.9433H279.601C281.697 59.9433 283.185 61.3353 283.185 63.2873C283.185 65.2553 281.697 66.6473 279.601 66.6473H277.713Z" fill="#0F0B47"/>
<rect x="174" y="405.271" width="50.6" height="74" fill="#1B0085"/>
<rect x="174" y="428.271" width="35.42" height="51" fill="#542AED"/>
<rect x="174" y="454.271" width="10.12" height="25" fill="#E46BB7"/>
<path d="M244.408 419.271H250.096V418.383H245.908L248.068 416.511C249.46 415.311 250.012 414.423 250.012 413.307C250.012 411.831 248.812 410.883 247.384 410.883C246.088 410.883 245.164 411.495 244.48 412.467L245.14 413.007C245.704 412.239 246.388 411.723 247.348 411.723C248.224 411.723 249.064 412.311 249.064 413.319C249.064 414.135 248.584 414.927 247.42 415.923L244.408 418.491V419.271ZM254.937 419.415C256.941 419.415 258.357 417.651 258.357 415.143C258.357 412.647 256.941 410.883 254.937 410.883C252.921 410.883 251.505 412.647 251.505 415.143C251.505 417.651 252.921 419.415 254.937 419.415ZM254.937 418.551C253.485 418.551 252.453 417.135 252.453 415.143C252.453 413.151 253.485 411.747 254.937 411.747C256.389 411.747 257.409 413.151 257.409 415.143C257.409 417.135 256.389 418.551 254.937 418.551ZM261.746 415.083C262.874 415.083 263.666 414.183 263.666 413.019C263.666 411.879 262.898 410.955 261.758 410.955C260.642 410.955 259.838 411.855 259.838 413.043C259.838 414.159 260.606 415.083 261.746 415.083ZM260.846 419.271H261.758L267.398 411.027H266.486L260.846 419.271ZM261.758 414.435C261.098 414.435 260.594 413.823 260.594 413.031C260.594 412.203 261.074 411.603 261.746 411.603C262.418 411.603 262.91 412.215 262.91 413.031C262.91 413.835 262.43 414.435 261.758 414.435ZM266.45 419.391C267.566 419.391 268.37 418.491 268.37 417.315C268.37 416.199 267.602 415.263 266.462 415.263C265.322 415.263 264.542 416.199 264.542 417.327C264.542 418.503 265.346 419.391 266.45 419.391ZM266.462 418.743C265.778 418.743 265.298 418.131 265.298 417.315C265.298 416.535 265.766 415.911 266.45 415.911C267.122 415.911 267.614 416.523 267.614 417.327C267.614 418.143 267.146 418.743 266.462 418.743Z" fill="#0F0B47"/>
<path d="M246.088 442.271H247.024V434.027H246.268L244.24 435.407L244.648 436.103L246.088 435.167V442.271ZM252.849 442.271H253.785V440.267H255.021V439.415H253.785V434.027H252.705L248.613 439.487L248.733 440.267H252.849V442.271ZM249.681 439.415L252.849 435.155V439.415H249.681ZM258.008 438.083C259.136 438.083 259.928 437.183 259.928 436.019C259.928 434.879 259.16 433.955 258.02 433.955C256.904 433.955 256.1 434.855 256.1 436.043C256.1 437.159 256.868 438.083 258.008 438.083ZM257.108 442.271H258.02L263.66 434.027H262.748L257.108 442.271ZM258.02 437.435C257.36 437.435 256.856 436.823 256.856 436.031C256.856 435.203 257.336 434.603 258.008 434.603C258.68 434.603 259.172 435.215 259.172 436.031C259.172 436.835 258.692 437.435 258.02 437.435ZM262.712 442.391C263.828 442.391 264.632 441.491 264.632 440.315C264.632 439.199 263.864 438.263 262.724 438.263C261.584 438.263 260.804 439.199 260.804 440.327C260.804 441.503 261.608 442.391 262.712 442.391ZM262.724 441.743C262.04 441.743 261.56 441.131 261.56 440.315C261.56 439.535 262.028 438.911 262.712 438.911C263.384 438.911 263.876 439.523 263.876 440.327C263.876 441.143 263.408 441.743 262.724 441.743Z" fill="#0F0B47"/>
<path d="M248.56 467.271H249.496V465.267H250.732V464.415H249.496V459.027H248.416L244.324 464.487L244.444 465.267H248.56V467.271ZM245.392 464.415L248.56 460.155V464.415H245.392ZM253.719 463.083C254.847 463.083 255.639 462.183 255.639 461.019C255.639 459.879 254.871 458.955 253.731 458.955C252.615 458.955 251.811 459.855 251.811 461.043C251.811 462.159 252.579 463.083 253.719 463.083ZM252.819 467.271H253.731L259.371 459.027H258.459L252.819 467.271ZM253.731 462.435C253.071 462.435 252.567 461.823 252.567 461.031C252.567 460.203 253.047 459.603 253.719 459.603C254.391 459.603 254.883 460.215 254.883 461.031C254.883 461.835 254.403 462.435 253.731 462.435ZM258.423 467.391C259.539 467.391 260.343 466.491 260.343 465.315C260.343 464.199 259.575 463.263 258.435 463.263C257.295 463.263 256.515 464.199 256.515 465.327C256.515 466.503 257.319 467.391 258.423 467.391ZM258.435 466.743C257.751 466.743 257.271 466.131 257.271 465.315C257.271 464.535 257.739 463.911 258.423 463.911C259.095 463.911 259.587 464.523 259.587 465.327C259.587 466.143 259.119 466.743 258.435 466.743Z" fill="#0F0B47"/>
<line x1="265.75" y1="405.521" x2="174.25" y2="405.521" stroke="#0F0B47" stroke-width="0.5" stroke-linecap="square" stroke-dasharray="10 10"/>
<line x1="265.75" y1="428.521" x2="174.25" y2="428.521" stroke="#0F0B47" stroke-width="0.5" stroke-linecap="square" stroke-dasharray="10 10"/>
<line x1="261.75" y1="454.521" x2="174.25" y2="454.521" stroke="#0F0B47" stroke-width="0.5" stroke-linecap="square" stroke-dasharray="10 10"/>
<path fill-rule="evenodd" clip-rule="evenodd" d="M280.727 318.087L291.098 307.269C291.734 306.605 292.766 306.605 293.402 307.269L303.773 318.087C304.409 318.751 304.409 319.828 303.773 320.492C303.136 321.155 302.105 321.155 301.468 320.492L293.88 312.575L293.88 339.071C293.88 340.01 293.15 340.771 292.25 340.771C291.35 340.771 290.62 340.01 290.62 339.071L290.62 312.575L283.032 320.492C282.395 321.155 281.364 321.155 280.727 320.492C280.091 319.828 280.091 318.751 280.727 318.087Z" fill="#19E107"/>
<path d="M177.882 361.641L178.322 361.168C177.123 359.947 176.463 358.649 176.463 356.856C176.463 355.052 177.123 353.765 178.322 352.533L177.882 352.071C176.408 353.303 175.583 354.953 175.583 356.856C175.583 358.748 176.408 360.409 177.882 361.641ZM179.808 359.771H180.666V352.214H179.808V359.771ZM185.516 353.952C184.702 353.952 183.976 354.381 183.646 354.986V354.084H182.821V359.771H183.646V356.152C183.646 355.349 184.438 354.689 185.406 354.689C186.242 354.689 186.825 355.327 186.825 356.262V359.771H187.65V356.152C187.65 354.843 186.781 353.952 185.516 353.952ZM191.87 359.903C192.662 359.903 193.388 359.573 193.927 359.034L193.355 358.473C192.97 358.902 192.442 359.166 191.87 359.166C190.737 359.166 189.791 358.143 189.791 356.922C189.791 355.712 190.737 354.689 191.87 354.689C192.431 354.689 192.948 354.942 193.322 355.349L193.894 354.788C193.355 354.271 192.64 353.952 191.87 353.952C190.275 353.952 188.922 355.305 188.922 356.922C188.922 358.539 190.275 359.903 191.87 359.903ZM199.004 354.084V357.703C199.004 358.506 198.212 359.166 197.244 359.166C196.408 359.166 195.825 358.528 195.825 357.593V354.084H195V357.703C195 359.012 195.869 359.903 197.134 359.903C197.948 359.903 198.674 359.474 199.004 358.869V359.771H199.829V354.084H199.004ZM204.631 353.952C203.718 353.952 202.992 354.403 202.563 355.151V352.082H201.738V359.771H202.563V358.704C202.992 359.452 203.718 359.903 204.631 359.903C206.127 359.903 207.249 358.671 207.249 356.922C207.249 355.184 206.127 353.952 204.631 353.952ZM204.477 359.166C203.355 359.166 202.563 358.231 202.563 356.922C202.563 355.613 203.355 354.689 204.477 354.689C205.588 354.689 206.38 355.613 206.38 356.922C206.38 358.231 205.588 359.166 204.477 359.166ZM210.756 353.952C210.206 353.952 209.524 354.095 208.71 354.502L209.04 355.173C209.557 354.909 210.129 354.656 210.701 354.656C211.933 354.656 212.241 355.536 212.241 356.306V356.515C211.658 356.328 211.009 356.196 210.393 356.196C209.172 356.196 208.16 356.955 208.16 358.088C208.16 359.21 209.04 359.903 210.239 359.903C210.987 359.903 211.834 359.551 212.241 358.88V359.771H213.066V356.306C213.066 354.931 212.307 353.952 210.756 353.952ZM210.382 359.177C209.579 359.177 208.963 358.759 208.963 358.055C208.963 357.373 209.678 356.889 210.525 356.889C211.141 356.889 211.724 356.977 212.241 357.12V357.989C212.021 358.792 211.13 359.177 210.382 359.177ZM217.044 358.935C216.923 359.067 216.703 359.166 216.45 359.166C216.12 359.166 215.834 358.869 215.834 358.451V354.821H217.231V354.084H215.834V352.522H215.009V354.084H214.118V354.821H215.009V358.451C215.009 359.298 215.581 359.903 216.395 359.903C216.78 359.903 217.154 359.771 217.451 359.54L217.044 358.935ZM219.054 353.05C219.351 353.05 219.593 352.797 219.593 352.5C219.593 352.214 219.351 351.961 219.054 351.961C218.746 351.961 218.504 352.214 218.504 352.5C218.504 352.797 218.746 353.05 219.054 353.05ZM218.636 359.771H219.461V354.084H218.636V359.771ZM224.07 353.952C223.256 353.952 222.53 354.381 222.2 354.986V354.084H221.375V359.771H222.2V356.152C222.2 355.349 222.992 354.689 223.96 354.689C224.796 354.689 225.379 355.327 225.379 356.262V359.771H226.204V356.152C226.204 354.843 225.335 353.952 224.07 353.952ZM232.172 354.084V355.063C231.732 354.37 231.006 353.952 230.104 353.952C228.575 353.952 227.486 355.063 227.486 356.647C227.486 358.231 228.575 359.353 230.104 359.353C231.006 359.353 231.732 358.935 232.172 358.242V359.166C232.172 360.277 231.402 360.926 230.093 360.926C229.389 360.926 228.707 360.673 228.267 360.255L227.904 360.904C228.421 361.344 229.279 361.663 230.203 361.663C231.842 361.663 232.997 360.629 232.997 359.166V354.084H232.172ZM230.258 358.616C229.147 358.616 228.355 357.802 228.355 356.647C228.355 355.503 229.147 354.689 230.258 354.689C231.38 354.689 232.172 355.503 232.172 356.647C232.172 357.802 231.38 358.616 230.258 358.616ZM234.679 361.641C236.153 360.409 236.978 358.748 236.978 356.856C236.978 354.953 236.153 353.303 234.679 352.071L234.239 352.533C235.438 353.765 236.098 355.052 236.098 356.856C236.098 358.649 235.438 359.947 234.239 361.168L234.679 361.641Z" fill="#0F0B47"/>
<path d="M181.592 320.963C184.76 320.963 187.416 318.355 187.416 315.267C187.416 312.179 184.76 309.587 181.592 309.587C178.424 309.587 175.736 312.179 175.736 315.267C175.736 318.355 178.424 320.963 181.592 320.963ZM181.592 318.819C179.736 318.819 178.168 317.187 178.168 315.267C178.168 313.363 179.736 311.731 181.592 311.731C183.432 311.731 185 313.363 185 315.267C185 317.187 183.432 318.819 181.592 318.819ZM189.564 320.771H191.932V317.203H194.508C196.908 317.203 198.652 315.667 198.652 313.491C198.652 311.315 196.908 309.779 194.508 309.779H189.564V320.771ZM191.932 315.043V311.939H194.268C195.436 311.939 196.236 312.547 196.236 313.491C196.236 314.435 195.436 315.043 194.268 315.043H191.932ZM209.153 311.907V309.779H200.689V320.771H209.153V318.643H203.057V316.227H208.593V314.099H203.057V311.907H209.153ZM211.439 320.771H213.807V313.667L219.103 320.771H221.471V309.779H219.103V316.883L213.807 309.779H211.439V320.771ZM178.936 341.771H181.288V332.907H184.728V330.779H175.512V332.907H178.936V341.771ZM195.075 332.907V330.779H186.611V341.771H195.075V339.643H188.979V337.227H194.515V335.099H188.979V332.907H195.075ZM199.729 339.643V330.779H197.361V341.771H205.201V339.643H199.729ZM215.575 332.907V330.779H207.111V341.771H215.575V339.643H209.479V337.227H215.015V335.099H209.479V332.907H215.575ZM217.861 341.771H220.229V334.923L223.621 341.131L227.029 334.923V341.771H229.381V330.779H227.029L223.621 336.987L220.229 330.779H217.861V341.771ZM240.637 332.907V330.779H232.173V341.771H240.637V339.643H234.541V337.227H240.077V335.099H234.541V332.907H240.637ZM245.467 341.771H247.819V332.907H251.259V330.779H242.043V332.907H245.467V341.771ZM262.23 334.491C262.23 332.315 260.486 330.779 258.086 330.779H253.142V341.771H255.51V338.203H256.934L259.446 341.771H262.134L259.494 338.011C261.142 337.531 262.23 336.219 262.23 334.491ZM255.51 332.939H257.846C259.014 332.939 259.814 333.547 259.814 334.491C259.814 335.435 259.014 336.043 257.846 336.043H255.51V332.939ZM267.688 341.771H270.072V337.803L274.36 330.779H271.72L268.872 335.595L266.136 330.779H263.384L267.688 337.803V341.771Z" fill="#0F0B47"/>
<rect x="174" y="639" width="35.98" height="74" fill="#1B0085"/>
<rect x="174" y="662" width="38.55" height="51" fill="#542AED"/>
<rect x="174" y="688" width="28.27" height="25" fill="#E46BB7"/>
<path fill-rule="evenodd" clip-rule="evenodd" d="M285.523 590.683L275.152 601.502C274.516 602.166 273.484 602.166 272.848 601.502L262.477 590.683C261.841 590.019 261.841 588.943 262.477 588.279C263.114 587.615 264.145 587.615 264.782 588.279L272.37 596.196L272.37 569.7C272.37 568.761 273.1 568 274 568C274.9 568 275.63 568.761 275.63 569.7L275.63 596.196L283.218 588.279C283.855 587.615 284.886 587.615 285.523 588.279C286.159 588.943 286.159 590.019 285.523 590.683Z" fill="#D62293"/>
<path d="M176.882 598.87L177.322 598.397C176.123 597.176 175.463 595.878 175.463 594.085C175.463 592.281 176.123 590.994 177.322 589.762L176.882 589.3C175.408 590.532 174.583 592.182 174.583 594.085C174.583 595.977 175.408 597.638 176.882 598.87ZM182.009 593.832H184.176V595.636C183.615 596.065 182.801 596.34 182.097 596.34C180.469 596.34 179.094 594.91 179.094 593.216C179.094 591.533 180.469 590.103 182.097 590.103C182.922 590.103 183.901 590.477 184.451 591.06L185.034 590.466C184.33 589.751 183.142 589.311 182.097 589.311C180.007 589.311 178.225 591.093 178.225 593.216C178.225 595.339 180.007 597.132 182.097 597.132C183.142 597.132 184.33 596.681 185.034 595.977V593.018H182.009V593.832ZM187.641 592.424V591.313H186.816V597H187.641V593.821C187.641 592.71 188.554 591.918 189.841 591.918V591.181C188.796 591.181 187.982 591.665 187.641 592.424ZM193.213 591.181C192.663 591.181 191.981 591.324 191.167 591.731L191.497 592.402C192.014 592.138 192.586 591.885 193.158 591.885C194.39 591.885 194.698 592.765 194.698 593.535V593.744C194.115 593.557 193.466 593.425 192.85 593.425C191.629 593.425 190.617 594.184 190.617 595.317C190.617 596.439 191.497 597.132 192.696 597.132C193.444 597.132 194.291 596.78 194.698 596.109V597H195.523V593.535C195.523 592.16 194.764 591.181 193.213 591.181ZM192.839 596.406C192.036 596.406 191.42 595.988 191.42 595.284C191.42 594.602 192.135 594.118 192.982 594.118C193.598 594.118 194.181 594.206 194.698 594.349V595.218C194.478 596.021 193.587 596.406 192.839 596.406ZM201.547 589.311V592.38C201.118 591.632 200.392 591.181 199.479 591.181C197.983 591.181 196.861 592.413 196.861 594.151C196.861 595.9 197.983 597.132 199.479 597.132C200.392 597.132 201.118 596.681 201.547 595.933V597H202.372V589.311H201.547ZM199.633 596.395C198.522 596.395 197.73 595.46 197.73 594.151C197.73 592.842 198.522 591.918 199.633 591.918C200.755 591.918 201.547 592.842 201.547 594.151C201.547 595.46 200.755 596.395 199.633 596.395ZM208.155 591.313V594.932C208.155 595.735 207.363 596.395 206.395 596.395C205.559 596.395 204.976 595.757 204.976 594.822V591.313H204.151V594.932C204.151 596.241 205.02 597.132 206.285 597.132C207.099 597.132 207.825 596.703 208.155 596.098V597H208.98V591.313H208.155ZM212.925 591.181C212.375 591.181 211.693 591.324 210.879 591.731L211.209 592.402C211.726 592.138 212.298 591.885 212.87 591.885C214.102 591.885 214.41 592.765 214.41 593.535V593.744C213.827 593.557 213.178 593.425 212.562 593.425C211.341 593.425 210.329 594.184 210.329 595.317C210.329 596.439 211.209 597.132 212.408 597.132C213.156 597.132 214.003 596.78 214.41 596.109V597H215.235V593.535C215.235 592.16 214.476 591.181 212.925 591.181ZM212.551 596.406C211.748 596.406 211.132 595.988 211.132 595.284C211.132 594.602 211.847 594.118 212.694 594.118C213.31 594.118 213.893 594.206 214.41 594.349V595.218C214.19 596.021 213.299 596.406 212.551 596.406ZM219.213 596.164C219.092 596.296 218.872 596.395 218.619 596.395C218.289 596.395 218.003 596.098 218.003 595.68V592.05H219.4V591.313H218.003V589.751H217.178V591.313H216.287V592.05H217.178V595.68C217.178 596.527 217.75 597.132 218.564 597.132C218.949 597.132 219.323 597 219.62 596.769L219.213 596.164ZM223.203 596.395C222.081 596.395 221.3 595.581 221.179 594.47H225.832C225.832 592.479 224.853 591.181 223.137 591.181C221.608 591.181 220.332 592.446 220.332 594.14C220.332 595.889 221.696 597.132 223.214 597.132C224.006 597.132 225.007 596.791 225.502 596.252L224.996 595.713C224.644 596.098 223.874 596.395 223.203 596.395ZM223.17 591.918C224.303 591.918 224.908 592.71 225.018 593.733H221.19C221.344 592.633 222.158 591.918 223.17 591.918ZM231.464 589.311V592.38C231.035 591.632 230.309 591.181 229.396 591.181C227.9 591.181 226.778 592.413 226.778 594.151C226.778 595.9 227.9 597.132 229.396 597.132C230.309 597.132 231.035 596.681 231.464 595.933V597H232.289V589.311H231.464ZM229.55 596.395C228.439 596.395 227.647 595.46 227.647 594.151C227.647 592.842 228.439 591.918 229.55 591.918C230.672 591.918 231.464 592.842 231.464 594.151C231.464 595.46 230.672 596.395 229.55 596.395ZM233.969 598.87C235.443 597.638 236.268 595.977 236.268 594.085C236.268 592.182 235.443 590.532 233.969 589.3L233.529 589.762C234.728 590.994 235.388 592.281 235.388 594.085C235.388 595.878 234.728 597.176 233.529 598.397L233.969 598.87Z" fill="#0F0B47"/>
<path d="M180.592 579.192C183.76 579.192 186.416 576.584 186.416 573.496C186.416 570.408 183.76 567.816 180.592 567.816C177.424 567.816 174.736 570.408 174.736 573.496C174.736 576.584 177.424 579.192 180.592 579.192ZM180.592 577.048C178.736 577.048 177.168 575.416 177.168 573.496C177.168 571.592 178.736 569.96 180.592 569.96C182.432 569.96 184 571.592 184 573.496C184 575.416 182.432 577.048 180.592 577.048ZM188.564 579H190.932V575.432H193.508C195.908 575.432 197.652 573.896 197.652 571.72C197.652 569.544 195.908 568.008 193.508 568.008H188.564V579ZM190.932 573.272V570.168H193.268C194.436 570.168 195.236 570.776 195.236 571.72C195.236 572.664 194.436 573.272 193.268 573.272H190.932ZM207.641 579H210.297L205.817 568.008H203.177L198.697 579H201.337L202.105 577.112H206.873L207.641 579ZM202.857 575.272L204.489 571.256L206.121 575.272H202.857Z" fill="#0F0B47"/>
<path d="M239.088 653H240.024V644.756H239.268L237.24 646.136L237.648 646.832L239.088 645.896V653ZM245.849 653H246.785V650.996H248.021V650.144H246.785V644.756H245.705L241.613 650.216L241.733 650.996H245.849V653ZM242.681 650.144L245.849 645.884V650.144H242.681ZM251.008 648.812C252.136 648.812 252.928 647.912 252.928 646.748C252.928 645.608 252.16 644.684 251.02 644.684C249.904 644.684 249.1 645.584 249.1 646.772C249.1 647.888 249.868 648.812 251.008 648.812ZM250.108 653H251.02L256.66 644.756H255.748L250.108 653ZM251.02 648.164C250.36 648.164 249.856 647.552 249.856 646.76C249.856 645.932 250.336 645.332 251.008 645.332C251.68 645.332 252.172 645.944 252.172 646.76C252.172 647.564 251.692 648.164 251.02 648.164ZM255.712 653.12C256.828 653.12 257.632 652.22 257.632 651.044C257.632 649.928 256.864 648.992 255.724 648.992C254.584 648.992 253.804 649.928 253.804 651.056C253.804 652.232 254.608 653.12 255.712 653.12ZM255.724 652.472C255.04 652.472 254.56 651.86 254.56 651.044C254.56 650.264 255.028 649.64 255.712 649.64C256.384 649.64 256.876 650.252 256.876 651.056C256.876 651.872 256.408 652.472 255.724 652.472Z" fill="#0F0B47"/>
<path d="M239.088 676H240.024V667.756H239.268L237.24 669.136L237.648 669.832L239.088 668.896V676ZM244.853 676.144C246.545 676.144 247.781 675.064 247.781 673.432C247.781 671.8 246.545 670.864 245.057 670.864C244.301 670.864 243.737 671.116 243.293 671.416L243.377 668.644H247.337V667.756H242.465L242.345 671.992L243.029 672.328C243.545 671.944 244.157 671.692 244.865 671.692C246.017 671.692 246.833 672.412 246.833 673.468C246.833 674.512 246.029 675.304 244.889 675.304C243.977 675.304 243.197 674.848 242.561 674.152L241.949 674.836C242.621 675.604 243.581 676.144 244.853 676.144ZM251.066 671.812C252.194 671.812 252.986 670.912 252.986 669.748C252.986 668.608 252.218 667.684 251.078 667.684C249.962 667.684 249.158 668.584 249.158 669.772C249.158 670.888 249.926 671.812 251.066 671.812ZM250.166 676H251.078L256.718 667.756H255.806L250.166 676ZM251.078 671.164C250.418 671.164 249.914 670.552 249.914 669.76C249.914 668.932 250.394 668.332 251.066 668.332C251.738 668.332 252.23 668.944 252.23 669.76C252.23 670.564 251.75 671.164 251.078 671.164ZM255.77 676.12C256.886 676.12 257.69 675.22 257.69 674.044C257.69 672.928 256.922 671.992 255.782 671.992C254.642 671.992 253.862 672.928 253.862 674.056C253.862 675.232 254.666 676.12 255.77 676.12ZM255.782 675.472C255.098 675.472 254.618 674.86 254.618 674.044C254.618 673.264 255.086 672.64 255.77 672.64C256.442 672.64 256.934 673.252 256.934 674.056C256.934 674.872 256.466 675.472 255.782 675.472Z" fill="#0F0B47"/>
<path d="M239.088 701H240.024V692.756H239.268L237.24 694.136L237.648 694.832L239.088 693.896V701ZM243.377 701H244.313V692.756H243.557L241.529 694.136L241.937 694.832L243.377 693.896V701ZM248.242 696.812C249.37 696.812 250.162 695.912 250.162 694.748C250.162 693.608 249.394 692.684 248.254 692.684C247.138 692.684 246.334 693.584 246.334 694.772C246.334 695.888 247.102 696.812 248.242 696.812ZM247.342 701H248.254L253.894 692.756H252.982L247.342 701ZM248.254 696.164C247.594 696.164 247.09 695.552 247.09 694.76C247.09 693.932 247.57 693.332 248.242 693.332C248.914 693.332 249.406 693.944 249.406 694.76C249.406 695.564 248.926 696.164 248.254 696.164ZM252.946 701.12C254.062 701.12 254.866 700.22 254.866 699.044C254.866 697.928 254.098 696.992 252.958 696.992C251.818 696.992 251.038 697.928 251.038 699.056C251.038 700.232 251.842 701.12 252.946 701.12ZM252.958 700.472C252.274 700.472 251.794 699.86 251.794 699.044C251.794 698.264 252.262 697.64 252.946 697.64C253.618 697.64 254.11 698.252 254.11 699.056C254.11 699.872 253.642 700.472 252.958 700.472Z" fill="#0F0B47"/>
<line x1="256.75" y1="639.25" x2="174.25" y2="639.25" stroke="#0F0B47" stroke-width="0.5" stroke-linecap="square" stroke-dasharray="10 10"/>
<line x1="256.75" y1="662.25" x2="174.25" y2="662.25" stroke="#0F0B47" stroke-width="0.5" stroke-linecap="square" stroke-dasharray="10 10"/>
<line x1="254.75" y1="688.25" x2="174.25" y2="688.25" stroke="#0F0B47" stroke-width="0.5" stroke-linecap="square" stroke-dasharray="10 10"/>
<rect y="639" width="43.69" height="74" fill="#1B0085"/>
<rect y="662" width="51.4" height="51" fill="#542AED"/>
<rect y="688" width="28.27" height="25" fill="#E46BB7"/>
<path fill-rule="evenodd" clip-rule="evenodd" d="M112.523 590.683L102.152 601.502C101.516 602.166 100.484 602.166 99.8477 601.502L89.4773 590.683C88.8409 590.019 88.8409 588.943 89.4773 588.279C90.1137 587.615 91.1454 587.615 91.7818 588.279L99.3704 596.196L99.3704 569.7C99.3704 568.761 100.1 568 101 568C101.9 568 102.63 568.761 102.63 569.7L102.63 596.196L110.218 588.279C110.855 587.615 111.886 587.615 112.523 588.279C113.159 588.943 113.159 590.019 112.523 590.683Z" fill="#D62293"/>
<path d="M3.882 598.87L4.322 598.397C3.123 597.176 2.463 595.878 2.463 594.085C2.463 592.281 3.123 590.994 4.322 589.762L3.882 589.3C2.408 590.532 1.583 592.182 1.583 594.085C1.583 595.977 2.408 597.638 3.882 598.87ZM9.00938 593.832H11.1764V595.636C10.6154 596.065 9.80138 596.34 9.09738 596.34C7.46938 596.34 6.09438 594.91 6.09438 593.216C6.09438 591.533 7.46938 590.103 9.09738 590.103C9.92238 590.103 10.9014 590.477 11.4514 591.06L12.0344 590.466C11.3304 589.751 10.1424 589.311 9.09738 589.311C7.00738 589.311 5.22538 591.093 5.22538 593.216C5.22538 595.339 7.00738 597.132 9.09738 597.132C10.1424 597.132 11.3304 596.681 12.0344 595.977V593.018H9.00938V593.832ZM14.6414 592.424V591.313H13.8164V597H14.6414V593.821C14.6414 592.71 15.5544 591.918 16.8414 591.918V591.181C15.7964 591.181 14.9824 591.665 14.6414 592.424ZM20.2127 591.181C19.6627 591.181 18.9807 591.324 18.1667 591.731L18.4967 592.402C19.0137 592.138 19.5857 591.885 20.1577 591.885C21.3897 591.885 21.6977 592.765 21.6977 593.535V593.744C21.1147 593.557 20.4657 593.425 19.8497 593.425C18.6287 593.425 17.6167 594.184 17.6167 595.317C17.6167 596.439 18.4967 597.132 19.6957 597.132C20.4437 597.132 21.2907 596.78 21.6977 596.109V597H22.5227V593.535C22.5227 592.16 21.7637 591.181 20.2127 591.181ZM19.8387 596.406C19.0357 596.406 18.4197 595.988 18.4197 595.284C18.4197 594.602 19.1347 594.118 19.9817 594.118C20.5977 594.118 21.1807 594.206 21.6977 594.349V595.218C21.4777 596.021 20.5867 596.406 19.8387 596.406ZM28.5468 589.311V592.38C28.1178 591.632 27.3918 591.181 26.4788 591.181C24.9828 591.181 23.8608 592.413 23.8608 594.151C23.8608 595.9 24.9828 597.132 26.4788 597.132C27.3918 597.132 28.1178 596.681 28.5468 595.933V597H29.3718V589.311H28.5468ZM26.6328 596.395C25.5218 596.395 24.7298 595.46 24.7298 594.151C24.7298 592.842 25.5218 591.918 26.6328 591.918C27.7548 591.918 28.5468 592.842 28.5468 594.151C28.5468 595.46 27.7548 596.395 26.6328 596.395ZM35.1552 591.313V594.932C35.1552 595.735 34.3632 596.395 33.3952 596.395C32.5592 596.395 31.9762 595.757 31.9762 594.822V591.313H31.1512V594.932C31.1512 596.241 32.0202 597.132 33.2852 597.132C34.0992 597.132 34.8252 596.703 35.1552 596.098V597H35.9802V591.313H35.1552ZM39.9246 591.181C39.3746 591.181 38.6926 591.324 37.8786 591.731L38.2086 592.402C38.7256 592.138 39.2976 591.885 39.8696 591.885C41.1016 591.885 41.4096 592.765 41.4096 593.535V593.744C40.8266 593.557 40.1776 593.425 39.5616 593.425C38.3406 593.425 37.3286 594.184 37.3286 595.317C37.3286 596.439 38.2086 597.132 39.4076 597.132C40.1556 597.132 41.0026 596.78 41.4096 596.109V597H42.2346V593.535C42.2346 592.16 41.4756 591.181 39.9246 591.181ZM39.5506 596.406C38.7476 596.406 38.1316 595.988 38.1316 595.284C38.1316 594.602 38.8466 594.118 39.6936 594.118C40.3096 594.118 40.8926 594.206 41.4096 594.349V595.218C41.1896 596.021 40.2986 596.406 39.5506 596.406ZM46.2127 596.164C46.0917 596.296 45.8717 596.395 45.6187 596.395C45.2887 596.395 45.0027 596.098 45.0027 595.68V592.05H46.3997V591.313H45.0027V589.751H44.1777V591.313H43.2867V592.05H44.1777V595.68C44.1777 596.527 44.7497 597.132 45.5637 597.132C45.9487 597.132 46.3227 597 46.6197 596.769L46.2127 596.164ZM50.2027 596.395C49.0807 596.395 48.2997 595.581 48.1787 594.47H52.8317C52.8317 592.479 51.8527 591.181 50.1367 591.181C48.6077 591.181 47.3317 592.446 47.3317 594.14C47.3317 595.889 48.6957 597.132 50.2137 597.132C51.0057 597.132 52.0067 596.791 52.5017 596.252L51.9957 595.713C51.6437 596.098 50.8737 596.395 50.2027 596.395ZM50.1697 591.918C51.3027 591.918 51.9077 592.71 52.0177 593.733H48.1897C48.3437 592.633 49.1577 591.918 50.1697 591.918ZM58.4637 589.311V592.38C58.0347 591.632 57.3087 591.181 56.3957 591.181C54.8997 591.181 53.7777 592.413 53.7777 594.151C53.7777 595.9 54.8997 597.132 56.3957 597.132C57.3087 597.132 58.0347 596.681 58.4637 595.933V597H59.2887V589.311H58.4637ZM56.5497 596.395C55.4387 596.395 54.6467 595.46 54.6467 594.151C54.6467 592.842 55.4387 591.918 56.5497 591.918C57.6717 591.918 58.4637 592.842 58.4637 594.151C58.4637 595.46 57.6717 596.395 56.5497 596.395ZM60.9692 598.87C62.4432 597.638 63.2682 595.977 63.2682 594.085C63.2682 592.182 62.4432 590.532 60.9692 589.3L60.5292 589.762C61.7282 590.994 62.3882 592.281 62.3882 594.085C62.3882 595.878 61.7282 597.176 60.5292 598.397L60.9692 598.87Z" fill="#0F0B47"/>
<path d="M4.76 576.872V568.008H2.392V579H10.232V576.872H4.76ZM12.142 579H14.51V568.008H12.142V579ZM17.2983 579H19.6663V571.896L24.9623 579H27.3303V568.008H24.9623V575.112L19.6663 568.008H17.2983V579ZM30.1108 579H32.4788V575.928L33.8548 574.456L37.2148 579H40.0948L35.4868 572.776L39.7748 568.008H36.9268L32.4788 573.048V568.008H30.1108V579ZM50.3404 570.136V568.008H41.8764V579H50.3404V576.872H44.2444V574.456H49.7804V572.328H44.2444V570.136H50.3404ZM61.7144 571.72C61.7144 569.544 59.9704 568.008 57.5704 568.008H52.6264V579H54.9944V575.432H56.4184L58.9304 579H61.6184L58.9784 575.24C60.6264 574.76 61.7144 573.448 61.7144 571.72ZM54.9944 570.168H57.3304C58.4984 570.168 59.2984 570.776 59.2984 571.72C59.2984 572.664 58.4984 573.272 57.3304 573.272H54.9944V570.168ZM63.892 579H67.844C71.54 579 74.164 576.712 74.164 573.496C74.164 570.28 71.54 568.008 67.844 568.008H63.892V579ZM66.26 576.856V570.152H68.148C70.244 570.152 71.732 571.544 71.732 573.496C71.732 575.464 70.244 576.856 68.148 576.856H66.26Z" fill="#0F0B47"/>
<path d="M77.088 653H78.024V644.756H77.268L75.24 646.136L75.648 646.832L77.088 645.896V653ZM80.5011 653H81.5811L85.1331 645.464V644.756H79.5531V645.644H84.0171L80.5011 653ZM88.1288 648.812C89.2568 648.812 90.0488 647.912 90.0488 646.748C90.0488 645.608 89.2808 644.684 88.1408 644.684C87.0248 644.684 86.2208 645.584 86.2208 646.772C86.2208 647.888 86.9888 648.812 88.1288 648.812ZM87.2288 653H88.1408L93.7808 644.756H92.8688L87.2288 653ZM88.1408 648.164C87.4808 648.164 86.9768 647.552 86.9768 646.76C86.9768 645.932 87.4568 645.332 88.1288 645.332C88.8008 645.332 89.2928 645.944 89.2928 646.76C89.2928 647.564 88.8128 648.164 88.1408 648.164ZM92.8328 653.12C93.9488 653.12 94.7528 652.22 94.7528 651.044C94.7528 649.928 93.9848 648.992 92.8448 648.992C91.7048 648.992 90.9248 649.928 90.9248 651.056C90.9248 652.232 91.7288 653.12 92.8328 653.12ZM92.8448 652.472C92.1608 652.472 91.6808 651.86 91.6808 651.044C91.6808 650.264 92.1488 649.64 92.8328 649.64C93.5048 649.64 93.9968 650.252 93.9968 651.056C93.9968 651.872 93.5288 652.472 92.8448 652.472Z" fill="#0F0B47"/>
<path d="M75.408 676H81.096V675.112H76.908L79.068 673.24C80.46 672.04 81.012 671.152 81.012 670.036C81.012 668.56 79.812 667.612 78.384 667.612C77.088 667.612 76.164 668.224 75.48 669.196L76.14 669.736C76.704 668.968 77.388 668.452 78.348 668.452C79.224 668.452 80.064 669.04 80.064 670.048C80.064 670.864 79.584 671.656 78.42 672.652L75.408 675.22V676ZM85.9372 676.144C87.9412 676.144 89.3572 674.38 89.3572 671.872C89.3572 669.376 87.9412 667.612 85.9372 667.612C83.9212 667.612 82.5052 669.376 82.5052 671.872C82.5052 674.38 83.9212 676.144 85.9372 676.144ZM85.9372 675.28C84.4852 675.28 83.4532 673.864 83.4532 671.872C83.4532 669.88 84.4852 668.476 85.9372 668.476C87.3892 668.476 88.4092 669.88 88.4092 671.872C88.4092 673.864 87.3892 675.28 85.9372 675.28ZM92.746 671.812C93.874 671.812 94.666 670.912 94.666 669.748C94.666 668.608 93.898 667.684 92.758 667.684C91.642 667.684 90.838 668.584 90.838 669.772C90.838 670.888 91.606 671.812 92.746 671.812ZM91.846 676H92.758L98.398 667.756H97.486L91.846 676ZM92.758 671.164C92.098 671.164 91.594 670.552 91.594 669.76C91.594 668.932 92.074 668.332 92.746 668.332C93.418 668.332 93.91 668.944 93.91 669.76C93.91 670.564 93.43 671.164 92.758 671.164ZM97.45 676.12C98.566 676.12 99.37 675.22 99.37 674.044C99.37 672.928 98.602 671.992 97.462 671.992C96.322 671.992 95.542 672.928 95.542 674.056C95.542 675.232 96.346 676.12 97.45 676.12ZM97.462 675.472C96.778 675.472 96.298 674.86 96.298 674.044C96.298 673.264 96.766 672.64 97.45 672.64C98.122 672.64 98.614 673.252 98.614 674.056C98.614 674.872 98.146 675.472 97.462 675.472Z" fill="#0F0B47"/>
<path d="M77.088 701H78.024V692.756H77.268L75.24 694.136L75.648 694.832L77.088 693.896V701ZM81.3771 701H82.3131V692.756H81.5571L79.5291 694.136L79.9371 694.832L81.3771 693.896V701ZM86.2421 696.812C87.3701 696.812 88.1621 695.912 88.1621 694.748C88.1621 693.608 87.3941 692.684 86.2541 692.684C85.1381 692.684 84.3341 693.584 84.3341 694.772C84.3341 695.888 85.1021 696.812 86.2421 696.812ZM85.3421 701H86.2541L91.8941 692.756H90.9821L85.3421 701ZM86.2541 696.164C85.5941 696.164 85.0901 695.552 85.0901 694.76C85.0901 693.932 85.5701 693.332 86.2421 693.332C86.9141 693.332 87.4061 693.944 87.4061 694.76C87.4061 695.564 86.9261 696.164 86.2541 696.164ZM90.9461 701.12C92.0621 701.12 92.8661 700.22 92.8661 699.044C92.8661 697.928 92.0981 696.992 90.9581 696.992C89.8181 696.992 89.0381 697.928 89.0381 699.056C89.0381 700.232 89.8421 701.12 90.9461 701.12ZM90.9581 700.472C90.2741 700.472 89.7941 699.86 89.7941 699.044C89.7941 698.264 90.2621 697.64 90.9461 697.64C91.6181 697.64 92.1101 698.252 92.1101 699.056C92.1101 699.872 91.6421 700.472 90.9581 700.472Z" fill="#0F0B47"/>
<line x1="95.75" y1="639.25" x2="1.25" y2="639.25" stroke="#0F0B47" stroke-width="0.5" stroke-linecap="square" stroke-dasharray="10 10"/>
<line x1="98.75" y1="662.25" x2="1.25" y2="662.25" stroke="#0F0B47" stroke-width="0.5" stroke-linecap="square" stroke-dasharray="10 10"/>
<line x1="91.75" y1="688.25" x2="1.25" y2="688.25" stroke="#0F0B47" stroke-width="0.5" stroke-linecap="square" stroke-dasharray="10 10"/>
<rect y="156" width="72" height="74" fill="#1B0085"/>
<rect y="179" width="57" height="51" fill="#542AED"/>
<rect y="205" width="26" height="25" fill="#E46BB7"/>
<path fill-rule="evenodd" clip-rule="evenodd" d="M67.5171 63.4693L78.7517 52.8229C79.4411 52.1696 80.5589 52.1696 81.2483 52.8229L92.4829 63.4693C93.1724 64.1226 93.1724 65.1818 92.4829 65.8351C91.7935 66.4884 90.6758 66.4884 89.9864 65.8351L81.7654 58.0446L81.7654 84.1183C81.7654 85.0423 80.975 85.7913 80 85.7913C79.025 85.7913 78.2346 85.0423 78.2346 84.1183L78.2346 58.0446L70.0136 65.8351C69.3242 66.4884 68.2065 66.4884 67.5171 65.8351C66.8276 65.1818 66.8276 64.1226 67.5171 63.4693Z" fill="#19E107"/>
<path fill-rule="evenodd" clip-rule="evenodd" d="M295.119 63.469L306.353 52.8226C307.043 52.1693 308.16 52.1693 308.85 52.8226L320.085 63.469C320.774 64.1223 320.774 65.1816 320.085 65.8349C319.395 66.4882 318.277 66.4882 317.588 65.8349L309.367 58.0444L309.367 84.1181C309.367 85.042 308.577 85.791 307.602 85.791C306.627 85.791 305.836 85.042 305.836 84.1181L305.836 58.0444L297.615 65.8349C296.926 66.4882 295.808 66.4882 295.119 65.8349C294.429 65.1816 294.429 64.1223 295.119 63.469Z" fill="#19E107"/>
<path d="M3.882 88.6613L4.322 88.1883C3.123 86.9673 2.463 85.6693 2.463 83.8763C2.463 82.0723 3.123 80.7853 4.322 79.5533L3.882 79.0913C2.408 80.3233 1.583 81.9733 1.583 83.8763C1.583 85.7683 2.408 87.4293 3.882 88.6613ZM9.00938 83.6233H11.1764V85.4273C10.6154 85.8563 9.80138 86.1313 9.09738 86.1313C7.46938 86.1313 6.09438 84.7013 6.09438 83.0073C6.09438 81.3243 7.46938 79.8943 9.09738 79.8943C9.92238 79.8943 10.9014 80.2683 11.4514 80.8513L12.0344 80.2573C11.3304 79.5423 10.1424 79.1023 9.09738 79.1023C7.00738 79.1023 5.22538 80.8843 5.22538 83.0073C5.22538 85.1303 7.00738 86.9233 9.09738 86.9233C10.1424 86.9233 11.3304 86.4723 12.0344 85.7683V82.8093H9.00938V83.6233ZM14.6414 82.2153V81.1043H13.8164V86.7913H14.6414V83.6123C14.6414 82.5013 15.5544 81.7093 16.8414 81.7093V80.9723C15.7964 80.9723 14.9824 81.4563 14.6414 82.2153ZM20.2127 80.9723C19.6627 80.9723 18.9807 81.1153 18.1667 81.5223L18.4967 82.1933C19.0137 81.9293 19.5857 81.6763 20.1577 81.6763C21.3897 81.6763 21.6977 82.5563 21.6977 83.3263V83.5353C21.1147 83.3483 20.4657 83.2163 19.8497 83.2163C18.6287 83.2163 17.6167 83.9753 17.6167 85.1083C17.6167 86.2303 18.4967 86.9233 19.6957 86.9233C20.4437 86.9233 21.2907 86.5713 21.6977 85.9003V86.7913H22.5227V83.3263C22.5227 81.9513 21.7637 80.9723 20.2127 80.9723ZM19.8387 86.1973C19.0357 86.1973 18.4197 85.7793 18.4197 85.0753C18.4197 84.3933 19.1347 83.9093 19.9817 83.9093C20.5977 83.9093 21.1807 83.9973 21.6977 84.1403V85.0093C21.4777 85.8123 20.5867 86.1973 19.8387 86.1973ZM28.5468 79.1023V82.1713C28.1178 81.4233 27.3918 80.9723 26.4788 80.9723C24.9828 80.9723 23.8608 82.2043 23.8608 83.9423C23.8608 85.6913 24.9828 86.9233 26.4788 86.9233C27.3918 86.9233 28.1178 86.4723 28.5468 85.7243V86.7913H29.3718V79.1023H28.5468ZM26.6328 86.1863C25.5218 86.1863 24.7298 85.2513 24.7298 83.9423C24.7298 82.6333 25.5218 81.7093 26.6328 81.7093C27.7548 81.7093 28.5468 82.6333 28.5468 83.9423C28.5468 85.2513 27.7548 86.1863 26.6328 86.1863ZM35.1552 81.1043V84.7233C35.1552 85.5263 34.3632 86.1863 33.3952 86.1863C32.5592 86.1863 31.9762 85.5483 31.9762 84.6133V81.1043H31.1512V84.7233C31.1512 86.0323 32.0202 86.9233 33.2852 86.9233C34.0992 86.9233 34.8252 86.4943 35.1552 85.8893V86.7913H35.9802V81.1043H35.1552ZM39.9246 80.9723C39.3746 80.9723 38.6926 81.1153 37.8786 81.5223L38.2086 82.1933C38.7256 81.9293 39.2976 81.6763 39.8696 81.6763C41.1016 81.6763 41.4096 82.5563 41.4096 83.3263V83.5353C40.8266 83.3483 40.1776 83.2163 39.5616 83.2163C38.3406 83.2163 37.3286 83.9753 37.3286 85.1083C37.3286 86.2303 38.2086 86.9233 39.4076 86.9233C40.1556 86.9233 41.0026 86.5713 41.4096 85.9003V86.7913H42.2346V83.3263C42.2346 81.9513 41.4756 80.9723 39.9246 80.9723ZM39.5506 86.1973C38.7476 86.1973 38.1316 85.7793 38.1316 85.0753C38.1316 84.3933 38.8466 83.9093 39.6936 83.9093C40.3096 83.9093 40.8926 83.9973 41.4096 84.1403V85.0093C41.1896 85.8123 40.2986 86.1973 39.5506 86.1973ZM46.2127 85.9553C46.0917 86.0873 45.8717 86.1863 45.6187 86.1863C45.2887 86.1863 45.0027 85.8893 45.0027 85.4713V81.8413H46.3997V81.1043H45.0027V79.5423H44.1777V81.1043H43.2867V81.8413H44.1777V85.4713C44.1777 86.3183 44.7497 86.9233 45.5637 86.9233C45.9487 86.9233 46.3227 86.7913 46.6197 86.5603L46.2127 85.9553ZM50.2027 86.1863C49.0807 86.1863 48.2997 85.3723 48.1787 84.2613H52.8317C52.8317 82.2703 51.8527 80.9723 50.1367 80.9723C48.6077 80.9723 47.3317 82.2373 47.3317 83.9313C47.3317 85.6803 48.6957 86.9233 50.2137 86.9233C51.0057 86.9233 52.0067 86.5823 52.5017 86.0433L51.9957 85.5043C51.6437 85.8893 50.8737 86.1863 50.2027 86.1863ZM50.1697 81.7093C51.3027 81.7093 51.9077 82.5013 52.0177 83.5243H48.1897C48.3437 82.4243 49.1577 81.7093 50.1697 81.7093ZM58.4637 79.1023V82.1713C58.0347 81.4233 57.3087 80.9723 56.3957 80.9723C54.8997 80.9723 53.7777 82.2043 53.7777 83.9423C53.7777 85.6913 54.8997 86.9233 56.3957 86.9233C57.3087 86.9233 58.0347 86.4723 58.4637 85.7243V86.7913H59.2887V79.1023H58.4637ZM56.5497 86.1863C55.4387 86.1863 54.6467 85.2513 54.6467 83.9423C54.6467 82.6333 55.4387 81.7093 56.5497 81.7093C57.6717 81.7093 58.4637 82.6333 58.4637 83.9423C58.4637 85.2513 57.6717 86.1863 56.5497 86.1863ZM60.9692 88.6613C62.4432 87.4293 63.2682 85.7683 63.2682 83.8763C63.2682 81.9733 62.4432 80.3233 60.9692 79.0913L60.5292 79.5533C61.7282 80.7853 62.3882 82.0723 62.3882 83.8763C62.3882 85.6693 61.7282 86.9673 60.5292 88.1883L60.9692 88.6613Z" fill="#0F0B47"/>
<path d="M10.344 68.7913H13L8.52 57.7993H5.88L1.4 68.7913H4.04L4.808 66.9033H9.576L10.344 68.7913ZM5.56 65.0633L7.192 61.0473L8.824 65.0633H5.56ZM23.8863 61.5113C23.8863 59.3353 22.1423 57.7993 19.7423 57.7993H14.7983V68.7913H17.1663V65.2233H18.5903L21.1023 68.7913H23.7903L21.1503 65.0313C22.7983 64.5513 23.8863 63.2393 23.8863 61.5113ZM17.1663 59.9593H19.5023C20.6703 59.9593 21.4703 60.5673 21.4703 61.5113C21.4703 62.4553 20.6703 63.0633 19.5023 63.0633H17.1663V59.9593ZM30.8959 64.4553H33.4399V66.1353C32.8319 66.5833 32.0479 66.8393 31.3119 66.8393C29.4239 66.8393 27.8399 65.2073 27.8399 63.2873C27.8399 61.3833 29.4239 59.7513 31.3119 59.7513C32.3199 59.7513 33.3759 60.2313 34.0319 60.9833L35.7439 59.4473C34.6559 58.2953 32.9439 57.6073 31.3119 57.6073C28.1119 57.6073 25.4079 60.1993 25.4079 63.2873C25.4079 66.3753 28.1119 68.9833 31.3119 68.9833C32.9439 68.9833 34.6559 68.2953 35.7439 67.1433V62.6153H30.8959V64.4553ZM43.2951 68.9833C46.4631 68.9833 49.1191 66.3753 49.1191 63.2873C49.1191 60.1993 46.4631 57.6073 43.2951 57.6073C40.1271 57.6073 37.4391 60.1993 37.4391 63.2873C37.4391 66.3753 40.1271 68.9833 43.2951 68.9833ZM43.2951 66.8393C41.4391 66.8393 39.8711 65.2073 39.8711 63.2873C39.8711 61.3833 41.4391 59.7513 43.2951 59.7513C45.1351 59.7513 46.7031 61.3833 46.7031 63.2873C46.7031 65.2073 45.1351 66.8393 43.2951 66.8393Z" fill="#0F0B47"/>
<path d="M91.408 170H97.096V169.112H92.908L95.068 167.24C96.46 166.04 97.012 165.152 97.012 164.036C97.012 162.56 95.812 161.612 94.384 161.612C93.088 161.612 92.164 162.224 91.48 163.196L92.14 163.736C92.704 162.968 93.388 162.452 94.348 162.452C95.224 162.452 96.064 163.04 96.064 164.048C96.064 164.864 95.584 165.656 94.42 166.652L91.408 169.22V170ZM101.505 170.144C103.197 170.144 104.517 169.244 104.517 167.84C104.517 166.808 103.701 166.076 102.705 165.74C103.557 165.428 104.313 164.816 104.313 163.808C104.313 162.452 102.981 161.612 101.505 161.612C100.077 161.612 98.7092 162.428 98.7092 163.796C98.7092 164.744 99.3812 165.38 100.317 165.74C99.3092 166.064 98.4932 166.808 98.4932 167.84C98.4932 169.232 99.8012 170.144 101.505 170.144ZM101.505 165.368C100.725 165.32 99.6572 164.852 99.6572 163.892C99.6572 163.064 100.473 162.464 101.505 162.464C102.537 162.464 103.365 163.064 103.365 163.892C103.365 164.828 102.309 165.32 101.505 165.368ZM101.505 169.292C100.365 169.292 99.4412 168.68 99.4412 167.78C99.4412 166.784 100.653 166.208 101.505 166.184C102.369 166.208 103.569 166.784 103.569 167.78C103.569 168.68 102.645 169.292 101.505 169.292ZM107.902 165.812C109.03 165.812 109.822 164.912 109.822 163.748C109.822 162.608 109.054 161.684 107.914 161.684C106.798 161.684 105.994 162.584 105.994 163.772C105.994 164.888 106.762 165.812 107.902 165.812ZM107.002 170H107.914L113.554 161.756H112.642L107.002 170ZM107.914 165.164C107.254 165.164 106.75 164.552 106.75 163.76C106.75 162.932 107.23 162.332 107.902 162.332C108.574 162.332 109.066 162.944 109.066 163.76C109.066 164.564 108.586 165.164 107.914 165.164ZM112.606 170.12C113.722 170.12 114.526 169.22 114.526 168.044C114.526 166.928 113.758 165.992 112.618 165.992C111.478 165.992 110.698 166.928 110.698 168.056C110.698 169.232 111.502 170.12 112.606 170.12ZM112.618 169.472C111.934 169.472 111.454 168.86 111.454 168.044C111.454 167.264 111.922 166.64 112.606 166.64C113.278 166.64 113.77 167.252 113.77 168.056C113.77 168.872 113.302 169.472 112.618 169.472Z" fill="#0F0B47"/>
<path d="M91.408 193H97.096V192.112H92.908L95.068 190.24C96.46 189.04 97.012 188.152 97.012 187.036C97.012 185.56 95.812 184.612 94.384 184.612C93.088 184.612 92.164 185.224 91.48 186.196L92.14 186.736C92.704 185.968 93.388 185.452 94.348 185.452C95.224 185.452 96.064 186.04 96.064 187.048C96.064 187.864 95.584 188.656 94.42 189.652L91.408 192.22V193ZM98.1932 193H103.881V192.112H99.6932L101.853 190.24C103.245 189.04 103.797 188.152 103.797 187.036C103.797 185.56 102.597 184.612 101.169 184.612C99.8732 184.612 98.9492 185.224 98.2652 186.196L98.9252 186.736C99.4892 185.968 100.173 185.452 101.133 185.452C102.009 185.452 102.849 186.04 102.849 187.048C102.849 187.864 102.369 188.656 101.205 189.652L98.1932 192.22V193ZM107.234 188.812C108.362 188.812 109.154 187.912 109.154 186.748C109.154 185.608 108.386 184.684 107.246 184.684C106.13 184.684 105.326 185.584 105.326 186.772C105.326 187.888 106.094 188.812 107.234 188.812ZM106.334 193H107.246L112.886 184.756H111.974L106.334 193ZM107.246 188.164C106.586 188.164 106.082 187.552 106.082 186.76C106.082 185.932 106.562 185.332 107.234 185.332C107.906 185.332 108.398 185.944 108.398 186.76C108.398 187.564 107.918 188.164 107.246 188.164ZM111.938 193.12C113.054 193.12 113.858 192.22 113.858 191.044C113.858 189.928 113.09 188.992 111.95 188.992C110.81 188.992 110.03 189.928 110.03 191.056C110.03 192.232 110.834 193.12 111.938 193.12ZM111.95 192.472C111.266 192.472 110.786 191.86 110.786 191.044C110.786 190.264 111.254 189.64 111.938 189.64C112.61 189.64 113.102 190.252 113.102 191.056C113.102 191.872 112.634 192.472 111.95 192.472Z" fill="#0F0B47"/>
<path d="M93.088 218H94.024V209.756H93.268L91.24 211.136L91.648 211.832L93.088 210.896V218ZM99.4411 218.144C101.445 218.144 102.861 216.38 102.861 213.872C102.861 211.376 101.445 209.612 99.4411 209.612C97.4251 209.612 96.0091 211.376 96.0091 213.872C96.0091 216.38 97.4251 218.144 99.4411 218.144ZM99.4411 217.28C97.9891 217.28 96.9571 215.864 96.9571 213.872C96.9571 211.88 97.9891 210.476 99.4411 210.476C100.893 210.476 101.913 211.88 101.913 213.872C101.913 215.864 100.893 217.28 99.4411 217.28ZM106.25 213.812C107.378 213.812 108.17 212.912 108.17 211.748C108.17 210.608 107.402 209.684 106.262 209.684C105.146 209.684 104.342 210.584 104.342 211.772C104.342 212.888 105.11 213.812 106.25 213.812ZM105.35 218H106.262L111.902 209.756H110.99L105.35 218ZM106.262 213.164C105.602 213.164 105.098 212.552 105.098 211.76C105.098 210.932 105.578 210.332 106.25 210.332C106.922 210.332 107.414 210.944 107.414 211.76C107.414 212.564 106.934 213.164 106.262 213.164ZM110.954 218.12C112.07 218.12 112.874 217.22 112.874 216.044C112.874 214.928 112.106 213.992 110.966 213.992C109.826 213.992 109.046 214.928 109.046 216.056C109.046 217.232 109.85 218.12 110.954 218.12ZM110.966 217.472C110.282 217.472 109.802 216.86 109.802 216.044C109.802 215.264 110.27 214.64 110.954 214.64C111.626 214.64 112.118 215.252 112.118 216.056C112.118 216.872 111.65 217.472 110.966 217.472Z" fill="#0F0B47"/>
<line x1="113.75" y1="156.25" x2="0.25" y2="156.25" stroke="#0F0B47" stroke-width="0.5" stroke-linecap="square" stroke-dasharray="10 10"/>
<line x1="113.75" y1="179.25" x2="0.25" y2="179.25" stroke="#0F0B47" stroke-width="0.5" stroke-linecap="square" stroke-dasharray="10 10"/>
<line x1="111.75" y1="205.25" x2="0.25" y2="205.25" stroke="#0F0B47" stroke-width="0.5" stroke-linecap="square" stroke-dasharray="10 10"/>
<path d="M17.288 9H21.2V8.248H18.568L19.856 7.16C20.8 6.392 21.152 5.808 21.152 5.072C21.152 4.072 20.336 3.408 19.312 3.408C18.44 3.408 17.792 3.808 17.312 4.472L17.856 4.952C18.24 4.456 18.68 4.136 19.28 4.136C19.824 4.136 20.32 4.488 20.32 5.088C20.32 5.584 20.04 6.056 19.304 6.672L17.288 8.336V9ZM24.4406 9.096C25.8086 9.096 26.7766 7.92 26.7766 6.248C26.7766 4.584 25.8086 3.408 24.4406 3.408C23.0566 3.408 22.0886 4.584 22.0886 6.248C22.0886 7.92 23.0566 9.096 24.4406 9.096ZM24.4406 8.352C23.5446 8.352 22.9126 7.48 22.9126 6.248C22.9126 5.016 23.5446 4.152 24.4406 4.152C25.3286 4.152 25.9526 5.016 25.9526 6.248C25.9526 7.48 25.3286 8.352 24.4406 8.352ZM27.5146 9H31.4266V8.248H28.7946L30.0826 7.16C31.0266 6.392 31.3786 5.808 31.3786 5.072C31.3786 4.072 30.5626 3.408 29.5386 3.408C28.6666 3.408 28.0186 3.808 27.5386 4.472L28.0826 4.952C28.4666 4.456 28.9066 4.136 29.5066 4.136C30.0506 4.136 30.5466 4.488 30.5466 5.088C30.5466 5.584 30.2666 6.056 29.5306 6.672L27.5146 8.336V9ZM34.6672 9.096C36.0352 9.096 37.0032 7.92 37.0032 6.248C37.0032 4.584 36.0352 3.408 34.6672 3.408C33.2832 3.408 32.3152 4.584 32.3152 6.248C32.3152 7.92 33.2832 9.096 34.6672 9.096ZM34.6672 8.352C33.7712 8.352 33.1392 7.48 33.1392 6.248C33.1392 5.016 33.7712 4.152 34.6672 4.152C35.5552 4.152 36.1792 5.016 36.1792 6.248C36.1792 7.48 35.5552 8.352 34.6672 8.352Z" fill="#0F0B47"/>
<circle cx="5" cy="5.79126" r="5" fill="#E46BB7"/>
<path d="M68.288 9H72.2V8.248H69.568L70.856 7.16C71.8 6.392 72.152 5.808 72.152 5.072C72.152 4.072 71.336 3.408 70.312 3.408C69.44 3.408 68.792 3.808 68.312 4.472L68.856 4.952C69.24 4.456 69.68 4.136 70.28 4.136C70.824 4.136 71.32 4.488 71.32 5.088C71.32 5.584 71.04 6.056 70.304 6.672L68.288 8.336V9ZM75.4406 9.096C76.8086 9.096 77.7766 7.92 77.7766 6.248C77.7766 4.584 76.8086 3.408 75.4406 3.408C74.0566 3.408 73.0886 4.584 73.0886 6.248C73.0886 7.92 74.0566 9.096 75.4406 9.096ZM75.4406 8.352C74.5446 8.352 73.9126 7.48 73.9126 6.248C73.9126 5.016 74.5446 4.152 75.4406 4.152C76.3286 4.152 76.9526 5.016 76.9526 6.248C76.9526 7.48 76.3286 8.352 75.4406 8.352ZM78.5146 9H82.4266V8.248H79.7946L81.0826 7.16C82.0266 6.392 82.3786 5.808 82.3786 5.072C82.3786 4.072 81.5626 3.408 80.5386 3.408C79.6666 3.408 79.0186 3.808 78.5386 4.472L79.0826 4.952C79.4666 4.456 79.9066 4.136 80.5066 4.136C81.0506 4.136 81.5466 4.488 81.5466 5.088C81.5466 5.584 81.2666 6.056 80.5306 6.672L78.5146 8.336V9ZM84.3232 9H85.1312V3.504H84.4832L83.0352 4.488L83.3712 5.072L84.3232 4.464V9Z" fill="#0F0B47"/>
<circle cx="56" cy="5.79126" r="5" fill="#5C2CFF"/>
<path d="M116.288 9H120.2V8.248H117.568L118.856 7.16C119.8 6.392 120.152 5.808 120.152 5.072C120.152 4.072 119.336 3.408 118.312 3.408C117.44 3.408 116.792 3.808 116.312 4.472L116.856 4.952C117.24 4.456 117.68 4.136 118.28 4.136C118.824 4.136 119.32 4.488 119.32 5.088C119.32 5.584 119.04 6.056 118.304 6.672L116.288 8.336V9ZM123.441 9.096C124.809 9.096 125.777 7.92 125.777 6.248C125.777 4.584 124.809 3.408 123.441 3.408C122.057 3.408 121.089 4.584 121.089 6.248C121.089 7.92 122.057 9.096 123.441 9.096ZM123.441 8.352C122.545 8.352 121.913 7.48 121.913 6.248C121.913 5.016 122.545 4.152 123.441 4.152C124.329 4.152 124.953 5.016 124.953 6.248C124.953 7.48 124.329 8.352 123.441 8.352ZM126.515 9H130.427V8.248H127.795L129.083 7.16C130.027 6.392 130.379 5.808 130.379 5.072C130.379 4.072 129.563 3.408 128.539 3.408C127.667 3.408 127.019 3.808 126.539 4.472L127.083 4.952C127.467 4.456 127.907 4.136 128.507 4.136C129.051 4.136 129.547 4.488 129.547 5.088C129.547 5.584 129.267 6.056 128.531 6.672L126.515 8.336V9ZM131.155 9H135.067V8.248H132.435L133.723 7.16C134.667 6.392 135.019 5.808 135.019 5.072C135.019 4.072 134.203 3.408 133.179 3.408C132.307 3.408 131.659 3.808 131.179 4.472L131.723 4.952C132.107 4.456 132.547 4.136 133.147 4.136C133.691 4.136 134.187 4.488 134.187 5.088C134.187 5.584 133.907 6.056 133.171 6.672L131.155 8.336V9Z" fill="#0F0B47"/>
<circle cx="104" cy="5.79126" r="5" fill="#1B0085"/>
<line y1="528.271" x2="327" y2="528.271" stroke="black" stroke-opacity="0.25"/>
<line y1="268.729" x2="327" y2="268.729" stroke="black" stroke-opacity="0.25"/>
</svg>
