<svg width="327" height="331" viewBox="0 0 327 331" fill="none" xmlns="http://www.w3.org/2000/svg">
<path d="M2.37 113.968H3.86L5.49 109.248L7.11 113.968H8.6L10.68 107.098H9.07L7.81 111.708L6.29 107.098H4.68L3.16 111.708L1.89 107.098H0.29L2.37 113.968ZM17.1268 108.428V107.098H11.8368V113.968H17.1268V112.638H13.3168V111.128H16.7768V109.798H13.3168V108.428H17.1268ZM18.5555 113.968H22.1755C23.4855 113.968 24.4255 113.208 24.4255 112.108C24.4255 111.348 23.9655 110.708 23.1655 110.348C23.7755 110.028 24.1255 109.518 24.1255 108.818C24.1255 107.818 23.2655 107.098 22.0355 107.098H18.5555V113.968ZM20.0255 109.868V108.358H21.6755C22.2255 108.358 22.6155 108.678 22.6155 109.108C22.6155 109.548 22.2255 109.868 21.6755 109.868H20.0255ZM20.0255 112.708V111.028H21.8955C22.4955 111.028 22.9155 111.378 22.9155 111.868C22.9155 112.358 22.4955 112.708 21.8955 112.708H20.0255ZM30.7423 113.968H32.4023L29.6023 107.098H27.9523L25.1523 113.968H26.8023L27.2823 112.788H30.2623L30.7423 113.968ZM27.7523 111.638L28.7723 109.128L29.7923 111.638H27.7523ZM36.0663 114.088C37.7363 114.088 38.7363 113.218 38.7363 111.908C38.7363 110.638 37.7563 110.198 36.2763 109.868C35.2163 109.628 34.7963 109.468 34.7963 108.968C34.7963 108.558 35.1863 108.228 35.8063 108.228C36.4663 108.228 37.1563 108.498 37.7763 108.998L38.5463 107.928C37.8363 107.328 36.9763 106.978 35.8563 106.978C34.3463 106.978 33.3063 107.848 33.3063 109.118C33.3063 110.448 34.3463 110.858 35.7963 111.188C36.8463 111.428 37.2463 111.578 37.2463 112.068C37.2463 112.498 36.8663 112.838 36.1163 112.838C35.2463 112.838 34.5063 112.498 33.8563 111.938L33.0163 112.948C33.8163 113.688 34.8663 114.088 36.0663 114.088ZM42.5897 114.088C44.2597 114.088 45.2597 113.218 45.2597 111.908C45.2597 110.638 44.2797 110.198 42.7997 109.868C41.7397 109.628 41.3197 109.468 41.3197 108.968C41.3197 108.558 41.7097 108.228 42.3297 108.228C42.9897 108.228 43.6797 108.498 44.2997 108.998L45.0697 107.928C44.3597 107.328 43.4997 106.978 42.3797 106.978C40.8697 106.978 39.8297 107.848 39.8297 109.118C39.8297 110.448 40.8697 110.858 42.3197 111.188C43.3697 111.428 43.7697 111.578 43.7697 112.068C43.7697 112.498 43.3897 112.838 42.6397 112.838C41.7697 112.838 41.0297 112.498 40.3797 111.938L39.5397 112.948C40.3397 113.688 41.3897 114.088 42.5897 114.088ZM51.8631 108.428V107.098H46.5731V113.968H51.8631V112.638H48.0531V111.128H51.5131V109.798H48.0531V108.428H51.8631ZM53.2919 113.968H54.7719V109.688L56.8919 113.568L59.0219 109.688V113.968H60.4919V107.098H59.0219L56.8919 110.978L54.7719 107.098H53.2919V113.968ZM62.2372 113.968H65.8572C67.1672 113.968 68.1072 113.208 68.1072 112.108C68.1072 111.348 67.6472 110.708 66.8472 110.348C67.4572 110.028 67.8072 109.518 67.8072 108.818C67.8072 107.818 66.9472 107.098 65.7172 107.098H62.2372V113.968ZM63.7072 109.868V108.358H65.3572C65.9072 108.358 66.2972 108.678 66.2972 109.108C66.2972 109.548 65.9072 109.868 65.3572 109.868H63.7072ZM63.7072 112.708V111.028H65.5772C66.1772 111.028 66.5972 111.378 66.5972 111.868C66.5972 112.358 66.1772 112.708 65.5772 112.708H63.7072ZM70.934 112.638V107.098H69.454V113.968H74.354V112.638H70.934ZM77.5977 113.968H79.0877V111.488L81.7677 107.098H80.1177L78.3377 110.108L76.6277 107.098H74.9077L77.5977 111.488V113.968ZM85.5966 113.968H87.0766V109.688L89.1966 113.568L91.3266 109.688V113.968H92.7966V107.098H91.3266L89.1966 110.978L87.0766 107.098H85.5966V113.968ZM94.5419 113.968H96.0219V107.098H94.5419V113.968ZM101.015 114.088C102.055 114.088 103.005 113.638 103.675 112.938L102.605 111.978C102.215 112.438 101.645 112.748 101.015 112.748C99.8545 112.748 98.8745 111.728 98.8745 110.528C98.8745 109.338 99.8545 108.318 101.015 108.318C101.635 108.318 102.215 108.628 102.605 109.088L103.675 108.128C103.005 107.418 102.055 106.978 101.015 106.978C99.0345 106.978 97.3545 108.598 97.3545 110.528C97.3545 112.458 99.0345 114.088 101.015 114.088ZM110.544 109.418C110.544 108.058 109.454 107.098 107.954 107.098H104.864V113.968H106.344V111.738H107.234L108.804 113.968H110.484L108.834 111.618C109.864 111.318 110.544 110.498 110.544 109.418ZM106.344 108.448H107.804C108.534 108.448 109.034 108.828 109.034 109.418C109.034 110.008 108.534 110.388 107.804 110.388H106.344V108.448ZM115.155 114.088C117.135 114.088 118.795 112.458 118.795 110.528C118.795 108.598 117.135 106.978 115.155 106.978C113.175 106.978 111.495 108.598 111.495 110.528C111.495 112.458 113.175 114.088 115.155 114.088ZM115.155 112.748C113.995 112.748 113.015 111.728 113.015 110.528C113.015 109.338 113.995 108.318 115.155 108.318C116.305 108.318 117.285 109.338 117.285 110.528C117.285 111.728 116.305 112.748 115.155 112.748ZM128.542 109.418C128.542 108.058 127.452 107.098 125.952 107.098H122.862V113.968H124.342V111.738H125.232L126.802 113.968H128.482L126.832 111.618C127.862 111.318 128.542 110.498 128.542 109.418ZM124.342 108.448H125.802C126.532 108.448 127.032 108.828 127.032 109.418C127.032 110.008 126.532 110.388 125.802 110.388H124.342V108.448ZM132.863 114.088C134.683 114.088 135.973 112.808 135.973 110.998V107.098H134.493V110.938C134.493 111.998 133.813 112.748 132.863 112.748C131.903 112.748 131.223 111.998 131.223 110.938V107.098H129.753V110.998C129.753 112.808 131.033 114.088 132.863 114.088ZM137.559 113.968H139.039V109.528L142.349 113.968H143.829V107.098H142.349V111.538L139.039 107.098H137.559V113.968ZM147.157 113.968H148.627V108.428H150.777V107.098H145.017V108.428H147.157V113.968ZM151.954 113.968H153.434V107.098H151.954V113.968ZM155.177 113.968H156.657V109.688L158.777 113.568L160.907 109.688V113.968H162.377V107.098H160.907L158.777 110.978L156.657 107.098H155.177V113.968ZM169.412 108.428V107.098H164.122V113.968H169.412V112.638H165.602V111.128H169.062V109.798H165.602V108.428H169.412ZM175.365 115.668L176.115 114.878C175.075 113.818 174.585 112.758 174.585 111.318C174.585 109.868 175.075 108.818 176.115 107.748L175.365 106.968C173.955 107.988 173.125 109.538 173.125 111.318C173.125 113.088 173.955 114.648 175.365 115.668ZM178.747 113.968H180.237L181.867 109.248L183.487 113.968H184.977L187.057 107.098H185.447L184.187 111.708L182.667 107.098H181.057L179.537 111.708L178.267 107.098H176.667L178.747 113.968ZM193.184 113.968H194.844L192.044 107.098H190.394L187.594 113.968H189.244L189.724 112.788H192.704L193.184 113.968ZM190.194 111.638L191.214 109.128L192.234 111.638H190.194ZM195.968 113.968H197.448V109.688L199.568 113.568L201.698 109.688V113.968H203.168V107.098H201.698L199.568 110.978L197.448 107.098H195.968V113.968ZM210.593 109.418C210.593 108.058 209.503 107.098 208.003 107.098H204.913V113.968H206.393V111.738H207.283L208.853 113.968H210.533L208.883 111.618C209.913 111.318 210.593 110.498 210.593 109.418ZM206.393 108.448H207.853C208.583 108.448 209.083 108.828 209.083 109.418C209.083 110.008 208.583 110.388 207.853 110.388H206.393V108.448ZM212.084 115.668C213.494 114.648 214.324 113.088 214.324 111.318C214.324 109.538 213.494 107.988 212.084 106.968L211.344 107.748C212.384 108.818 212.874 109.868 212.874 111.318C212.874 112.758 212.384 113.818 211.344 114.878L212.084 115.668Z" fill="#0F0B47"/>
<path d="M2.37 213.968H3.86L5.49 209.248L7.11 213.968H8.6L10.68 207.098H9.07L7.81 211.708L6.29 207.098H4.68L3.16 211.708L1.89 207.098H0.29L2.37 213.968ZM16.8068 213.968H18.4668L15.6668 207.098H14.0168L11.2168 213.968H12.8668L13.3468 212.788H16.3268L16.8068 213.968ZM13.8168 211.638L14.8368 209.128L15.8568 211.638H13.8168ZM22.1307 214.088C23.8007 214.088 24.8007 213.218 24.8007 211.908C24.8007 210.638 23.8207 210.198 22.3407 209.868C21.2807 209.628 20.8607 209.468 20.8607 208.968C20.8607 208.558 21.2507 208.228 21.8707 208.228C22.5307 208.228 23.2207 208.498 23.8407 208.998L24.6107 207.928C23.9007 207.328 23.0407 206.978 21.9207 206.978C20.4107 206.978 19.3707 207.848 19.3707 209.118C19.3707 210.448 20.4107 210.858 21.8607 211.188C22.9107 211.428 23.3107 211.578 23.3107 212.068C23.3107 212.498 22.9307 212.838 22.1807 212.838C21.3107 212.838 20.5707 212.498 19.9207 211.938L19.0807 212.948C19.8807 213.688 20.9307 214.088 22.1307 214.088ZM26.1141 213.968H27.5941V209.688L29.7141 213.568L31.8441 209.688V213.968H33.3141V207.098H31.8441L29.7141 210.978L27.5941 207.098H26.1141V213.968ZM40.3495 208.428V207.098H35.0595V213.968H40.3495V212.638H36.5395V211.128H39.9995V209.798H36.5395V208.428H40.3495ZM47.4582 209.418C47.4582 208.058 46.3682 207.098 44.8682 207.098H41.7782V213.968H43.2582V211.738H44.1482L45.7182 213.968H47.3982L45.7482 211.618C46.7782 211.318 47.4582 210.498 47.4582 209.418ZM43.2582 208.448H44.7182C45.4482 208.448 45.9482 208.828 45.9482 209.418C45.9482 210.008 45.4482 210.388 44.7182 210.388H43.2582V208.448Z" fill="#0F0B47"/>
<rect x="281" y="29.9678" width="46" height="40" fill="#EBEBEB"/>
<rect x="284" y="136.968" width="43" height="40" fill="#EBEBEB"/>
<rect x="255" y="231.968" width="72" height="40" fill="#EBEBEB"/>
<rect x="166.77" y="136.968" width="117.72" height="40" fill="#5C2CFF"/>
<rect x="173.31" y="29.9678" width="107.91" height="40" fill="#5C2CFF"/>
<path d="M175.636 169.124C177.568 169.124 178.816 168.092 178.816 166.664C178.816 165.572 177.988 164.936 177.088 164.732C178 164.468 178.636 163.784 178.636 162.836C178.636 161.528 177.472 160.58 175.624 160.58C174.16 160.58 173.176 161.216 172.492 162.044L173.512 163.124C174.064 162.548 174.676 162.164 175.444 162.164C176.26 162.164 176.836 162.548 176.836 163.148C176.836 163.736 176.296 164.072 175.396 164.072L174.448 164.06V165.572H175.396C176.5 165.56 177.004 165.884 177.004 166.52C177.004 167.108 176.464 167.528 175.564 167.528C174.736 167.528 173.956 167.18 173.368 166.556L172.324 167.732C173.02 168.536 174.16 169.124 175.636 169.124ZM183.882 163.64C183.102 163.64 182.346 163.94 181.842 164.432C181.998 163.04 182.718 162.14 183.798 162.14C184.494 162.14 184.974 162.392 185.478 162.812L186.318 161.468C185.646 160.928 184.818 160.58 183.798 160.58C181.506 160.58 180.006 162.416 180.006 164.984C180.006 167.384 181.11 169.112 183.51 169.112C185.31 169.112 186.666 167.948 186.666 166.256C186.666 164.624 185.406 163.64 183.882 163.64ZM183.414 167.612C182.49 167.612 182.046 167.048 181.89 166.04C182.142 165.452 182.694 165.08 183.366 165.08C184.17 165.08 184.842 165.548 184.842 166.34C184.842 167 184.29 167.612 183.414 167.612ZM189.876 164.864C191.088 164.864 191.94 163.94 191.94 162.752C191.94 161.588 191.124 160.64 189.876 160.64C188.64 160.64 187.824 161.576 187.824 162.764C187.824 163.94 188.64 164.864 189.876 164.864ZM188.904 168.968H190.284L196.02 160.724H194.628L188.904 168.968ZM189.876 163.832C189.384 163.832 189 163.4 189 162.752C189 162.104 189.36 161.684 189.876 161.684C190.38 161.684 190.752 162.116 190.752 162.752C190.752 163.412 190.38 163.832 189.876 163.832ZM195.024 169.1C196.236 169.1 197.076 168.176 197.076 166.988C197.076 165.824 196.272 164.876 195.024 164.876C193.8 164.876 192.96 165.812 192.96 166.988C192.96 168.164 193.8 169.1 195.024 169.1ZM195.024 168.056C194.52 168.056 194.148 167.624 194.148 166.988C194.148 166.328 194.508 165.908 195.024 165.908C195.516 165.908 195.9 166.34 195.9 166.988C195.9 167.636 195.54 168.056 195.024 168.056Z" fill="white"/>
<rect x="130.8" y="231.968" width="124.26" height="40" fill="#5C2CFF"/>
<rect y="136.968" width="166.77" height="40" fill="#1B0085"/>
<path d="M182.636 62.1238C184.568 62.1238 185.816 61.0918 185.816 59.6638C185.816 58.5718 184.988 57.9358 184.088 57.7318C185 57.4678 185.636 56.7838 185.636 55.8358C185.636 54.5278 184.472 53.5798 182.624 53.5798C181.16 53.5798 180.176 54.2158 179.492 55.0438L180.512 56.1238C181.064 55.5478 181.676 55.1638 182.444 55.1638C183.26 55.1638 183.836 55.5478 183.836 56.1478C183.836 56.7358 183.296 57.0718 182.396 57.0718L181.448 57.0598V58.5718H182.396C183.5 58.5598 184.004 58.8838 184.004 59.5198C184.004 60.1078 183.464 60.5278 182.564 60.5278C181.736 60.5278 180.956 60.1798 180.368 59.5558L179.324 60.7318C180.02 61.5358 181.16 62.1238 182.636 62.1238ZM190.042 62.1238C191.974 62.1238 193.222 61.0918 193.222 59.6638C193.222 58.5718 192.394 57.9358 191.494 57.7318C192.406 57.4678 193.042 56.7838 193.042 55.8358C193.042 54.5278 191.878 53.5798 190.03 53.5798C188.566 53.5798 187.582 54.2158 186.898 55.0438L187.918 56.1238C188.47 55.5478 189.082 55.1638 189.85 55.1638C190.666 55.1638 191.242 55.5478 191.242 56.1478C191.242 56.7358 190.702 57.0718 189.802 57.0718L188.854 57.0598V58.5718H189.802C190.906 58.5598 191.41 58.8838 191.41 59.5198C191.41 60.1078 190.87 60.5278 189.97 60.5278C189.142 60.5278 188.362 60.1798 187.774 59.5558L186.73 60.7318C187.426 61.5358 188.566 62.1238 190.042 62.1238ZM196.525 57.8638C197.737 57.8638 198.589 56.9398 198.589 55.7518C198.589 54.5878 197.773 53.6398 196.525 53.6398C195.289 53.6398 194.473 54.5758 194.473 55.7638C194.473 56.9398 195.289 57.8638 196.525 57.8638ZM195.553 61.9678H196.933L202.669 53.7238H201.277L195.553 61.9678ZM196.525 56.8318C196.033 56.8318 195.649 56.3998 195.649 55.7518C195.649 55.1038 196.009 54.6838 196.525 54.6838C197.029 54.6838 197.401 55.1158 197.401 55.7518C197.401 56.4118 197.029 56.8318 196.525 56.8318ZM201.673 62.0998C202.885 62.0998 203.725 61.1758 203.725 59.9878C203.725 58.8238 202.921 57.8758 201.673 57.8758C200.449 57.8758 199.609 58.8118 199.609 59.9878C199.609 61.1638 200.449 62.0998 201.673 62.0998ZM201.673 61.0558C201.169 61.0558 200.797 60.6238 200.797 59.9878C200.797 59.3278 201.157 58.9078 201.673 58.9078C202.165 58.9078 202.549 59.3398 202.549 59.9878C202.549 60.6358 202.189 61.0558 201.673 61.0558Z" fill="white"/>
<path d="M9.0643 169.124C11.0323 169.124 12.3403 168.008 12.3403 166.256C12.3403 164.576 11.0803 163.64 9.6163 163.64C8.9443 163.64 8.4163 163.856 8.0083 164.144L8.0563 162.32H11.8963V160.724H6.4243L6.3043 165.176L7.4923 165.656C7.9363 165.32 8.4643 165.116 9.0883 165.116C9.9883 165.116 10.5763 165.596 10.5763 166.316C10.5763 167.024 10.0123 167.576 9.0763 167.576C8.2843 167.576 7.5403 167.192 6.9163 166.604L5.8723 167.852C6.6403 168.62 7.6843 169.124 9.0643 169.124ZM15.2571 168.968H17.0211V160.724H15.6051L13.1331 162.38L13.8531 163.628L15.2571 162.752V168.968ZM20.7374 164.864C21.9494 164.864 22.8014 163.94 22.8014 162.752C22.8014 161.588 21.9854 160.64 20.7374 160.64C19.5014 160.64 18.6854 161.576 18.6854 162.764C18.6854 163.94 19.5014 164.864 20.7374 164.864ZM19.7654 168.968H21.1454L26.8814 160.724H25.4894L19.7654 168.968ZM20.7374 163.832C20.2454 163.832 19.8614 163.4 19.8614 162.752C19.8614 162.104 20.2214 161.684 20.7374 161.684C21.2414 161.684 21.6134 162.116 21.6134 162.752C21.6134 163.412 21.2414 163.832 20.7374 163.832ZM25.8854 169.1C27.0974 169.1 27.9374 168.176 27.9374 166.988C27.9374 165.824 27.1334 164.876 25.8854 164.876C24.6614 164.876 23.8214 165.812 23.8214 166.988C23.8214 168.164 24.6614 169.1 25.8854 169.1ZM25.8854 168.056C25.3814 168.056 25.0094 167.624 25.0094 166.988C25.0094 166.328 25.3694 165.908 25.8854 165.908C26.3774 165.908 26.7614 166.34 26.7614 166.988C26.7614 167.636 26.4014 168.056 25.8854 168.056Z" fill="white"/>
<path d="M139.636 264.124C141.568 264.124 142.816 263.092 142.816 261.664C142.816 260.572 141.988 259.936 141.088 259.732C142 259.468 142.636 258.784 142.636 257.836C142.636 256.528 141.472 255.58 139.624 255.58C138.16 255.58 137.176 256.216 136.492 257.044L137.512 258.124C138.064 257.548 138.676 257.164 139.444 257.164C140.26 257.164 140.836 257.548 140.836 258.148C140.836 258.736 140.296 259.072 139.396 259.072L138.448 259.06V260.572H139.396C140.5 260.56 141.004 260.884 141.004 261.52C141.004 262.108 140.464 262.528 139.564 262.528C138.736 262.528 137.956 262.18 137.368 261.556L136.324 262.732C137.02 263.536 138.16 264.124 139.636 264.124ZM147.27 264.112C149.082 264.112 150.582 263.26 150.582 261.76C150.582 260.812 149.934 260.092 148.962 259.708C149.79 259.348 150.378 258.748 150.378 257.824C150.378 256.408 148.914 255.58 147.27 255.58C145.662 255.58 144.174 256.372 144.174 257.824C144.174 258.76 144.762 259.36 145.578 259.708C144.63 260.068 143.958 260.788 143.958 261.76C143.958 263.248 145.446 264.112 147.27 264.112ZM147.27 259.096C146.622 259.048 145.938 258.688 145.938 258.052C145.938 257.488 146.478 257.068 147.27 257.068C148.062 257.068 148.614 257.488 148.614 258.052C148.614 258.664 147.918 259.048 147.27 259.096ZM147.27 262.624C146.394 262.624 145.758 262.192 145.758 261.568C145.758 260.92 146.562 260.512 147.27 260.488C147.978 260.512 148.794 260.92 148.794 261.568C148.794 262.192 148.146 262.624 147.27 262.624ZM153.853 259.864C155.065 259.864 155.917 258.94 155.917 257.752C155.917 256.588 155.101 255.64 153.853 255.64C152.617 255.64 151.801 256.576 151.801 257.764C151.801 258.94 152.617 259.864 153.853 259.864ZM152.881 263.968H154.261L159.997 255.724H158.605L152.881 263.968ZM153.853 258.832C153.361 258.832 152.977 258.4 152.977 257.752C152.977 257.104 153.337 256.684 153.853 256.684C154.357 256.684 154.729 257.116 154.729 257.752C154.729 258.412 154.357 258.832 153.853 258.832ZM159.001 264.1C160.213 264.1 161.053 263.176 161.053 261.988C161.053 260.824 160.249 259.876 159.001 259.876C157.777 259.876 156.937 260.812 156.937 261.988C156.937 263.164 157.777 264.1 159.001 264.1ZM159.001 263.056C158.497 263.056 158.125 262.624 158.125 261.988C158.125 261.328 158.485 260.908 159.001 260.908C159.493 260.908 159.877 261.34 159.877 261.988C159.877 262.636 159.517 263.056 159.001 263.056Z" fill="white"/>
<rect y="29.9678" width="173.31" height="40" fill="#1B0085"/>
<rect y="231.968" width="130.8" height="40" fill="#1B0085"/>
<path d="M8.9393 62.1238C10.9073 62.1238 12.2153 61.0078 12.2153 59.2558C12.2153 57.5758 10.9553 56.6398 9.4913 56.6398C8.8193 56.6398 8.2913 56.8558 7.8833 57.1438L7.9313 55.3198H11.7713V53.7238H6.2993L6.1793 58.1758L7.3673 58.6558C7.8113 58.3198 8.3393 58.1158 8.9633 58.1158C9.8633 58.1158 10.4513 58.5958 10.4513 59.3158C10.4513 60.0238 9.8873 60.5758 8.9513 60.5758C8.1593 60.5758 7.4153 60.1918 6.7913 59.6038L5.7473 60.8518C6.5153 61.6198 7.5593 62.1238 8.9393 62.1238ZM16.3801 62.1238C18.3121 62.1238 19.5601 61.0918 19.5601 59.6638C19.5601 58.5718 18.7321 57.9358 17.8321 57.7318C18.7441 57.4678 19.3801 56.7838 19.3801 55.8358C19.3801 54.5278 18.2161 53.5798 16.3681 53.5798C14.9041 53.5798 13.9201 54.2158 13.2361 55.0438L14.2561 56.1238C14.8081 55.5478 15.4201 55.1638 16.1881 55.1638C17.0041 55.1638 17.5801 55.5478 17.5801 56.1478C17.5801 56.7358 17.0401 57.0718 16.1401 57.0718L15.1921 57.0598V58.5718H16.1401C17.2441 58.5598 17.7481 58.8838 17.7481 59.5198C17.7481 60.1078 17.2081 60.5278 16.3081 60.5278C15.4801 60.5278 14.7001 60.1798 14.1121 59.5558L13.0681 60.7318C13.7641 61.5358 14.9041 62.1238 16.3801 62.1238ZM22.8624 57.8638C24.0744 57.8638 24.9264 56.9398 24.9264 55.7518C24.9264 54.5878 24.1104 53.6398 22.8624 53.6398C21.6264 53.6398 20.8104 54.5758 20.8104 55.7638C20.8104 56.9398 21.6264 57.8638 22.8624 57.8638ZM21.8904 61.9678H23.2704L29.0064 53.7238H27.6144L21.8904 61.9678ZM22.8624 56.8318C22.3704 56.8318 21.9864 56.3998 21.9864 55.7518C21.9864 55.1038 22.3464 54.6838 22.8624 54.6838C23.3664 54.6838 23.7384 55.1158 23.7384 55.7518C23.7384 56.4118 23.3664 56.8318 22.8624 56.8318ZM28.0104 62.0998C29.2224 62.0998 30.0624 61.1758 30.0624 59.9878C30.0624 58.8238 29.2584 57.8758 28.0104 57.8758C26.7864 57.8758 25.9464 58.8118 25.9464 59.9878C25.9464 61.1638 26.7864 62.0998 28.0104 62.0998ZM28.0104 61.0558C27.5064 61.0558 27.1344 60.6238 27.1344 59.9878C27.1344 59.3278 27.4944 58.9078 28.0104 58.9078C28.5024 58.9078 28.8864 59.3398 28.8864 59.9878C28.8864 60.6358 28.5264 61.0558 28.0104 61.0558Z" fill="white"/>
<path d="M9.58902 263.968H11.353V262.288H12.445V260.8H11.353V255.736H9.21702L5.38902 260.92L5.55702 262.288H9.58902V263.968ZM7.24902 260.8L9.58902 257.608V260.8H7.24902ZM17.118 264.112C19.29 264.112 20.814 262.348 20.814 259.84C20.814 257.344 19.29 255.58 17.118 255.58C14.946 255.58 13.41 257.344 13.41 259.84C13.41 262.348 14.946 264.112 17.118 264.112ZM17.118 262.504C16.014 262.504 15.234 261.388 15.234 259.84C15.234 258.292 16.014 257.188 17.118 257.188C18.222 257.188 19.002 258.292 19.002 259.84C19.002 261.388 18.222 262.504 17.118 262.504ZM24.1007 259.864C25.3127 259.864 26.1647 258.94 26.1647 257.752C26.1647 256.588 25.3487 255.64 24.1007 255.64C22.8647 255.64 22.0487 256.576 22.0487 257.764C22.0487 258.94 22.8647 259.864 24.1007 259.864ZM23.1287 263.968H24.5087L30.2447 255.724H28.8527L23.1287 263.968ZM24.1007 258.832C23.6087 258.832 23.2247 258.4 23.2247 257.752C23.2247 257.104 23.5847 256.684 24.1007 256.684C24.6047 256.684 24.9767 257.116 24.9767 257.752C24.9767 258.412 24.6047 258.832 24.1007 258.832ZM29.2487 264.1C30.4607 264.1 31.3007 263.176 31.3007 261.988C31.3007 260.824 30.4967 259.876 29.2487 259.876C28.0247 259.876 27.1847 260.812 27.1847 261.988C27.1847 263.164 28.0247 264.1 29.2487 264.1ZM29.2487 263.056C28.7447 263.056 28.3727 262.624 28.3727 261.988C28.3727 261.328 28.7327 260.908 29.2487 260.908C29.7407 260.908 30.1247 261.34 30.1247 261.988C30.1247 262.636 29.7647 263.056 29.2487 263.056Z" fill="white"/>
<path d="M2.37 9.96777H3.86L5.49 5.24777L7.11 9.96777H8.6L10.68 3.09777H9.07L7.81 7.70777L6.29 3.09777H4.68L3.16 7.70777L1.89 3.09777H0.29L2.37 9.96777ZM16.8068 9.96777H18.4668L15.6668 3.09777H14.0168L11.2168 9.96777H12.8668L13.3468 8.78777H16.3268L16.8068 9.96777ZM13.8168 7.63777L14.8368 5.12777L15.8568 7.63777H13.8168ZM22.1307 10.0878C23.8007 10.0878 24.8007 9.21777 24.8007 7.90777C24.8007 6.63777 23.8207 6.19777 22.3407 5.86777C21.2807 5.62777 20.8607 5.46777 20.8607 4.96777C20.8607 4.55777 21.2507 4.22777 21.8707 4.22777C22.5307 4.22777 23.2207 4.49777 23.8407 4.99777L24.6107 3.92777C23.9007 3.32777 23.0407 2.97777 21.9207 2.97777C20.4107 2.97777 19.3707 3.84777 19.3707 5.11777C19.3707 6.44777 20.4107 6.85777 21.8607 7.18777C22.9107 7.42777 23.3107 7.57777 23.3107 8.06777C23.3107 8.49777 22.9307 8.83777 22.1807 8.83777C21.3107 8.83777 20.5707 8.49777 19.9207 7.93777L19.0807 8.94777C19.8807 9.68777 20.9307 10.0878 22.1307 10.0878ZM26.1141 9.96777H27.5941V5.68777L29.7141 9.56777L31.8441 5.68777V9.96777H33.3141V3.09777H31.8441L29.7141 6.97777L27.5941 3.09777H26.1141V9.96777ZM40.3495 4.42777V3.09777H35.0595V9.96777H40.3495V8.63777H36.5395V7.12777H39.9995V5.79777H36.5395V4.42777H40.3495ZM41.7782 9.96777H44.2482C46.5582 9.96777 48.1982 8.53777 48.1982 6.52777C48.1982 4.51777 46.5582 3.09777 44.2482 3.09777H41.7782V9.96777ZM43.2582 8.62777V4.43777H44.4382C45.7482 4.43777 46.6782 5.30777 46.6782 6.52777C46.6782 7.75777 45.7482 8.62777 44.4382 8.62777H43.2582ZM52.5423 7.25777H54.1323V8.30777C53.7523 8.58777 53.2623 8.74777 52.8023 8.74777C51.6223 8.74777 50.6323 7.72777 50.6323 6.52777C50.6323 5.33777 51.6223 4.31777 52.8023 4.31777C53.4323 4.31777 54.0923 4.61777 54.5023 5.08777L55.5723 4.12777C54.8923 3.40777 53.8223 2.97777 52.8023 2.97777C50.8023 2.97777 49.1123 4.59777 49.1123 6.52777C49.1123 8.45777 50.8023 10.0878 52.8023 10.0878C53.8223 10.0878 54.8923 9.65777 55.5723 8.93777V6.10777H52.5423V7.25777ZM62.3319 4.42777V3.09777H57.0419V9.96777H62.3319V8.63777H58.5219V7.12777H61.9819V5.79777H58.5219V4.42777H62.3319Z" fill="#0F0B47"/>
<path d="M224.082 317.968H225.266V314.416L227.914 317.968H229.098V312.472H227.914V316.024L225.266 312.472H224.082V317.968ZM232.32 318.064C233.56 318.064 234.576 317.088 234.576 315.896C234.576 314.704 233.56 313.736 232.32 313.736C231.08 313.736 230.064 314.704 230.064 315.896C230.064 317.088 231.08 318.064 232.32 318.064ZM232.32 317.08C231.696 317.08 231.184 316.544 231.184 315.896C231.184 315.248 231.696 314.72 232.32 314.72C232.944 314.72 233.448 315.248 233.448 315.896C233.448 316.544 232.944 317.08 232.32 317.08ZM236.031 319.136C236.599 318.584 236.879 318.08 236.879 317.608C236.879 317.024 236.567 316.608 236.119 316.608C235.719 316.608 235.399 316.944 235.399 317.344C235.399 317.736 235.711 318.064 236.095 318.064C236.031 318.32 235.863 318.592 235.607 318.816L236.031 319.136ZM226.362 323.736C225.826 323.736 225.37 323.968 225.114 324.336V323.832H223.946V327.968H225.114V325.52C225.114 325.072 225.49 324.72 225.978 324.72C226.442 324.72 226.77 325.072 226.77 325.584V327.968H227.89V325.336C227.89 324.392 227.258 323.736 226.362 323.736ZM230.898 328.064C232.138 328.064 233.154 327.088 233.154 325.896C233.154 324.704 232.138 323.736 230.898 323.736C229.658 323.736 228.642 324.704 228.642 325.896C228.642 327.088 229.658 328.064 230.898 328.064ZM230.898 327.08C230.274 327.08 229.762 326.544 229.762 325.896C229.762 325.248 230.274 324.72 230.898 324.72C231.522 324.72 232.026 325.248 232.026 325.896C232.026 326.544 231.522 327.08 230.898 327.08ZM236.081 326.944C236.001 327.024 235.841 327.08 235.681 327.08C235.465 327.08 235.297 326.888 235.297 326.616V324.776H236.193V323.832H235.297V322.696H234.169V323.832H233.601V324.776H234.169V326.8C234.169 327.544 234.681 328.064 235.417 328.064C235.745 328.064 236.121 327.92 236.361 327.704L236.081 326.944ZM241.041 323.736C240.465 323.736 239.897 323.896 239.313 324.192L239.705 324.968C240.033 324.8 240.393 324.672 240.777 324.672C241.457 324.672 241.737 325.056 241.737 325.496V325.584C241.385 325.44 241.009 325.368 240.673 325.368C239.721 325.368 238.961 325.928 238.961 326.744C238.961 327.536 239.633 328.064 240.513 328.064C240.969 328.064 241.441 327.88 241.737 327.552V327.968H242.865V325.496C242.865 324.416 242.121 323.736 241.041 323.736ZM240.777 327.256C240.377 327.256 240.073 327.048 240.073 326.712C240.073 326.376 240.417 326.128 240.841 326.128C241.161 326.128 241.473 326.184 241.737 326.288V326.664C241.649 327.048 241.225 327.256 240.777 327.256ZM244.859 327.968H245.907L246.683 325.368L247.459 327.968H248.507L249.907 323.832H248.763L247.987 326.408L247.163 323.832H246.195L245.379 326.408L244.595 323.832H243.451L244.859 327.968ZM252.33 323.736C251.754 323.736 251.186 323.896 250.602 324.192L250.994 324.968C251.322 324.8 251.682 324.672 252.066 324.672C252.746 324.672 253.026 325.056 253.026 325.496V325.584C252.674 325.44 252.298 325.368 251.962 325.368C251.01 325.368 250.25 325.928 250.25 326.744C250.25 327.536 250.922 328.064 251.802 328.064C252.258 328.064 252.73 327.88 253.026 327.552V327.968H254.154V325.496C254.154 324.416 253.41 323.736 252.33 323.736ZM252.066 327.256C251.666 327.256 251.362 327.048 251.362 326.712C251.362 326.376 251.706 326.128 252.13 326.128C252.45 326.128 252.762 326.184 253.026 326.288V326.664C252.938 327.048 252.514 327.256 252.066 327.256ZM256.348 324.608V323.832H255.18V327.968H256.348V325.992C256.348 325.216 256.9 324.72 257.764 324.72V323.736C257.132 323.736 256.62 324.072 256.348 324.608ZM260.514 327.16C259.946 327.16 259.562 326.768 259.458 326.208H262.57C262.57 324.672 261.786 323.736 260.49 323.736C259.282 323.736 258.346 324.64 258.346 325.888C258.346 327.16 259.322 328.064 260.554 328.064C261.162 328.064 261.874 327.808 262.242 327.424L261.586 326.752C261.322 326.992 260.898 327.16 260.514 327.16ZM260.506 324.64C261.026 324.64 261.354 325 261.45 325.512H259.466C259.594 324.984 259.986 324.64 260.506 324.64Z" fill="#0F0B47"/>
<circle cx="210.386" cy="315.968" r="5" fill="#EBEBEB"/>
<path d="M124.95 317.968H126.142V315.984L128.286 312.472H126.966L125.542 314.88L124.174 312.472H122.798L124.95 315.984V317.968ZM130.93 317.16C130.362 317.16 129.978 316.768 129.874 316.208H132.986C132.986 314.672 132.202 313.736 130.906 313.736C129.698 313.736 128.762 314.64 128.762 315.888C128.762 317.16 129.738 318.064 130.97 318.064C131.578 318.064 132.29 317.808 132.658 317.424L132.002 316.752C131.738 316.992 131.314 317.16 130.93 317.16ZM130.922 314.64C131.442 314.64 131.77 315 131.866 315.512H129.882C130.01 314.984 130.402 314.64 130.922 314.64ZM135.288 318.064C136.304 318.064 136.976 317.544 136.976 316.728C136.976 315.824 136.176 315.584 135.464 315.4C134.904 315.248 134.672 315.184 134.672 314.96C134.672 314.728 134.912 314.576 135.232 314.576C135.608 314.576 136.056 314.76 136.432 315L136.856 314.248C136.4 313.944 135.816 313.736 135.232 313.736C134.248 313.736 133.616 314.296 133.616 315.08C133.616 315.896 134.272 316.128 135.12 316.336C135.576 316.448 135.912 316.56 135.912 316.824C135.912 317.064 135.704 317.208 135.312 317.208C134.864 317.208 134.32 317.008 133.896 316.704L133.424 317.44C133.92 317.84 134.624 318.064 135.288 318.064ZM138.431 319.136C138.999 318.584 139.279 318.08 139.279 317.608C139.279 317.024 138.967 316.608 138.519 316.608C138.119 316.608 137.799 316.944 137.799 317.344C137.799 317.736 138.111 318.064 138.495 318.064C138.431 318.32 138.263 318.592 138.007 318.816L138.431 319.136ZM144.34 313.736C143.764 313.736 143.196 313.896 142.612 314.192L143.004 314.968C143.332 314.8 143.692 314.672 144.076 314.672C144.756 314.672 145.036 315.056 145.036 315.496V315.584C144.684 315.44 144.308 315.368 143.972 315.368C143.02 315.368 142.26 315.928 142.26 316.744C142.26 317.536 142.932 318.064 143.812 318.064C144.268 318.064 144.74 317.88 145.036 317.552V317.968H146.164V315.496C146.164 314.416 145.42 313.736 144.34 313.736ZM144.076 317.256C143.676 317.256 143.372 317.048 143.372 316.712C143.372 316.376 143.716 316.128 144.14 316.128C144.46 316.128 144.772 316.184 145.036 316.288V316.664C144.948 317.048 144.524 317.256 144.076 317.256ZM148.158 317.968H149.206L149.982 315.368L150.758 317.968H151.806L153.206 313.832H152.062L151.286 316.408L150.462 313.832H149.494L148.678 316.408L147.894 313.832H146.75L148.158 317.968ZM155.629 313.736C155.053 313.736 154.485 313.896 153.901 314.192L154.293 314.968C154.621 314.8 154.981 314.672 155.365 314.672C156.045 314.672 156.325 315.056 156.325 315.496V315.584C155.973 315.44 155.597 315.368 155.261 315.368C154.309 315.368 153.549 315.928 153.549 316.744C153.549 317.536 154.221 318.064 155.101 318.064C155.557 318.064 156.029 317.88 156.325 317.552V317.968H157.453V315.496C157.453 314.416 156.709 313.736 155.629 313.736ZM155.365 317.256C154.965 317.256 154.661 317.048 154.661 316.712C154.661 316.376 155.005 316.128 155.429 316.128C155.749 316.128 156.061 316.184 156.325 316.288V316.664C156.237 317.048 155.813 317.256 155.365 317.256ZM159.647 314.608V313.832H158.479V317.968H159.647V315.992C159.647 315.216 160.199 314.72 161.063 314.72V313.736C160.431 313.736 159.919 314.072 159.647 314.608ZM163.812 317.16C163.244 317.16 162.86 316.768 162.756 316.208H165.868C165.868 314.672 165.084 313.736 163.788 313.736C162.58 313.736 161.644 314.64 161.644 315.888C161.644 317.16 162.62 318.064 163.852 318.064C164.46 318.064 165.172 317.808 165.54 317.424L164.884 316.752C164.62 316.992 164.196 317.16 163.812 317.16ZM163.804 314.64C164.324 314.64 164.652 315 164.748 315.512H162.764C162.892 314.984 163.284 314.64 163.804 314.64ZM125.086 328.064C126.254 328.064 127.214 327.088 127.214 325.896C127.214 324.704 126.254 323.736 125.086 323.736C123.91 323.736 122.95 324.704 122.95 325.896C122.95 327.088 123.91 328.064 125.086 328.064ZM125.086 327.528C124.254 327.528 123.574 326.792 123.574 325.896C123.574 325 124.254 324.272 125.086 324.272C125.91 324.272 126.59 325 126.59 325.896C126.59 326.792 125.91 327.528 125.086 327.528ZM128.992 323.264C128.992 322.96 129.2 322.744 129.44 322.744C129.624 322.744 129.784 322.816 129.872 322.912L130.168 322.472C129.952 322.304 129.68 322.208 129.4 322.208C128.808 322.208 128.392 322.648 128.392 323.264V323.832H127.744V324.368H128.392V327.968H128.992V324.368H130.008V323.832H128.992V323.264ZM134.59 327.36C134.502 327.456 134.342 327.528 134.158 327.528C133.918 327.528 133.71 327.312 133.71 327.008V324.368H134.726V323.832H133.71V322.696H133.11V323.832H132.462V324.368H133.11V327.008C133.11 327.624 133.526 328.064 134.118 328.064C134.398 328.064 134.67 327.968 134.886 327.8L134.59 327.36ZM137.708 323.736C137.116 323.736 136.588 324.048 136.348 324.488V322.376H135.748V327.968H136.348V325.336C136.348 324.752 136.924 324.272 137.628 324.272C138.236 324.272 138.66 324.736 138.66 325.416V327.968H139.26V325.336C139.26 324.384 138.628 323.736 137.708 323.736ZM142.296 327.528C141.48 327.528 140.912 326.936 140.824 326.128H144.208C144.208 324.68 143.496 323.736 142.248 323.736C141.136 323.736 140.208 324.656 140.208 325.888C140.208 327.16 141.2 328.064 142.304 328.064C142.88 328.064 143.608 327.816 143.968 327.424L143.6 327.032C143.344 327.312 142.784 327.528 142.296 327.528ZM142.272 324.272C143.096 324.272 143.536 324.848 143.616 325.592H140.832C140.944 324.792 141.536 324.272 142.272 324.272ZM148.02 324.64V323.832H147.42V327.968H148.02V325.656C148.02 324.848 148.684 324.272 149.62 324.272V323.736C148.86 323.736 148.268 324.088 148.02 324.64ZM153.408 323.832V326.464C153.408 327.048 152.832 327.528 152.128 327.528C151.52 327.528 151.096 327.064 151.096 326.384V323.832H150.496V326.464C150.496 327.416 151.128 328.064 152.048 328.064C152.64 328.064 153.168 327.752 153.408 327.312V327.968H154.008V323.832H153.408ZM157.356 323.736C156.764 323.736 156.236 324.048 155.996 324.488V323.832H155.396V327.968H155.996V325.336C155.996 324.752 156.572 324.272 157.276 324.272C157.884 324.272 158.308 324.736 158.308 325.416V327.968H158.908V325.336C158.908 324.384 158.276 323.736 157.356 323.736ZM161.801 327.36C161.713 327.456 161.553 327.528 161.369 327.528C161.129 327.528 160.921 327.312 160.921 327.008V324.368H161.937V323.832H160.921V322.696H160.321V323.832H159.673V324.368H160.321V327.008C160.321 327.624 160.737 328.064 161.329 328.064C161.609 328.064 161.881 327.968 162.097 327.8L161.801 327.36ZM163.263 323.08C163.479 323.08 163.655 322.896 163.655 322.68C163.655 322.472 163.479 322.288 163.263 322.288C163.039 322.288 162.863 322.472 162.863 322.68C162.863 322.896 163.039 323.08 163.263 323.08ZM162.959 327.968H163.559V323.832H162.959V327.968ZM169.423 323.736C168.767 323.736 168.255 324.136 168.127 324.72C167.919 324.12 167.407 323.736 166.751 323.736C166.207 323.736 165.759 324.008 165.551 324.44V323.832H164.951V327.968H165.551V325.336C165.551 324.712 166.015 324.272 166.671 324.272C167.231 324.272 167.623 324.744 167.623 325.416V327.968H168.223V325.336C168.223 324.712 168.687 324.272 169.343 324.272C169.903 324.272 170.295 324.744 170.295 325.416V327.968H170.895V325.336C170.895 324.4 170.287 323.736 169.423 323.736ZM173.937 327.528C173.121 327.528 172.553 326.936 172.465 326.128H175.849C175.849 324.68 175.137 323.736 173.889 323.736C172.777 323.736 171.849 324.656 171.849 325.888C171.849 327.16 172.841 328.064 173.945 328.064C174.521 328.064 175.249 327.816 175.609 327.424L175.241 327.032C174.985 327.312 174.425 327.528 173.937 327.528ZM173.913 324.272C174.737 324.272 175.177 324.848 175.257 325.592H172.473C172.585 324.792 173.177 324.272 173.913 324.272Z" fill="#0F0B47"/>
<circle cx="109.614" cy="315.968" r="5" fill="#5C2CFF"/>
<path d="M20.336 317.968H21.528V315.984L23.672 312.472H22.352L20.928 314.88L19.56 312.472H18.184L20.336 315.984V317.968ZM26.3154 317.16C25.7474 317.16 25.3634 316.768 25.2594 316.208H28.3714C28.3714 314.672 27.5874 313.736 26.2914 313.736C25.0834 313.736 24.1474 314.64 24.1474 315.888C24.1474 317.16 25.1234 318.064 26.3554 318.064C26.9634 318.064 27.6754 317.808 28.0434 317.424L27.3874 316.752C27.1234 316.992 26.6994 317.16 26.3154 317.16ZM26.3074 314.64C26.8274 314.64 27.1554 315 27.2514 315.512H25.2674C25.3954 314.984 25.7874 314.64 26.3074 314.64ZM30.6736 318.064C31.6896 318.064 32.3616 317.544 32.3616 316.728C32.3616 315.824 31.5616 315.584 30.8496 315.4C30.2896 315.248 30.0576 315.184 30.0576 314.96C30.0576 314.728 30.2976 314.576 30.6176 314.576C30.9936 314.576 31.4416 314.76 31.8176 315L32.2416 314.248C31.7856 313.944 31.2016 313.736 30.6176 313.736C29.6336 313.736 29.0016 314.296 29.0016 315.08C29.0016 315.896 29.6576 316.128 30.5056 316.336C30.9616 316.448 31.2976 316.56 31.2976 316.824C31.2976 317.064 31.0896 317.208 30.6976 317.208C30.2496 317.208 29.7056 317.008 29.2816 316.704L28.8096 317.44C29.3056 317.84 30.0096 318.064 30.6736 318.064ZM33.745 319.032C34.225 318.432 34.361 318.16 34.361 317.84C34.361 317.472 34.177 317.2 33.873 317.2C33.617 317.2 33.433 317.4 33.433 317.624C33.433 317.864 33.625 318.064 33.865 318.064C33.801 318.312 33.665 318.56 33.449 318.808L33.745 319.032ZM40.5998 313.832V316.28C40.5998 316.728 40.2238 317.08 39.7358 317.08C39.2718 317.08 38.9438 316.728 38.9438 316.216V313.832H37.8238V316.464C37.8238 317.408 38.4558 318.064 39.3598 318.064C39.8878 318.064 40.3438 317.832 40.5998 317.464V317.968H41.7678V313.832H40.5998ZM44.4001 318.064C45.4161 318.064 46.0881 317.544 46.0881 316.728C46.0881 315.824 45.2881 315.584 44.5761 315.4C44.0161 315.248 43.7841 315.184 43.7841 314.96C43.7841 314.728 44.0241 314.576 44.3441 314.576C44.7201 314.576 45.1681 314.76 45.5441 315L45.9681 314.248C45.5121 313.944 44.9281 313.736 44.3441 313.736C43.3601 313.736 42.7281 314.296 42.7281 315.08C42.7281 315.896 43.3841 316.128 44.2321 316.336C44.6881 316.448 45.0241 316.56 45.0241 316.824C45.0241 317.064 44.8161 317.208 44.4241 317.208C43.9761 317.208 43.4321 317.008 43.0081 316.704L42.5361 317.44C43.0321 317.84 43.7361 318.064 44.4001 318.064ZM47.5036 313.264C47.8476 313.264 48.1276 312.976 48.1276 312.624C48.1276 312.296 47.8476 312 47.5036 312C47.1436 312 46.8636 312.296 46.8636 312.624C46.8636 312.976 47.1436 313.264 47.5036 313.264ZM46.9116 317.968H48.0796V313.832H46.9116V317.968ZM51.6166 313.736C51.0806 313.736 50.6246 313.968 50.3686 314.336V313.832H49.2006V317.968H50.3686V315.52C50.3686 315.072 50.7446 314.72 51.2326 314.72C51.6966 314.72 52.0246 315.072 52.0246 315.584V317.968H53.1446V315.336C53.1446 314.392 52.5126 313.736 51.6166 313.736ZM57.105 313.832V314.392C56.825 314 56.289 313.736 55.737 313.736C54.689 313.736 53.897 314.544 53.897 315.696C53.897 316.848 54.689 317.664 55.737 317.664C56.289 317.664 56.777 317.424 57.105 317.016V317.48C57.105 318.016 56.625 318.36 55.873 318.36C55.393 318.36 54.905 318.208 54.633 317.968L54.225 318.792C54.641 319.112 55.321 319.344 56.049 319.344C57.353 319.344 58.273 318.592 58.273 317.528V313.832H57.105ZM56.105 316.68C55.521 316.68 55.105 316.272 55.105 315.696C55.105 315.12 55.521 314.72 56.105 314.72C56.689 314.72 57.105 315.12 57.105 315.696C57.105 316.272 56.689 316.68 56.105 316.68ZM20.472 328.064C21.64 328.064 22.6 327.088 22.6 325.896C22.6 324.704 21.64 323.736 20.472 323.736C19.296 323.736 18.336 324.704 18.336 325.896C18.336 327.088 19.296 328.064 20.472 328.064ZM20.472 327.528C19.64 327.528 18.96 326.792 18.96 325.896C18.96 325 19.64 324.272 20.472 324.272C21.296 324.272 21.976 325 21.976 325.896C21.976 326.792 21.296 327.528 20.472 327.528ZM24.2335 324.64V323.832H23.6335V327.968H24.2335V325.656C24.2335 324.848 24.8975 324.272 25.8335 324.272V323.736C25.0735 323.736 24.4815 324.088 24.2335 324.64ZM31.2885 323.736C30.7525 323.736 30.2965 323.968 30.0405 324.336V322.376H28.8725V327.968H30.0405V325.52C30.0405 325.072 30.4165 324.72 30.9045 324.72C31.3685 324.72 31.6965 325.072 31.6965 325.584V327.968H32.8165V325.336C32.8165 324.392 32.1845 323.736 31.2885 323.736ZM35.6009 323.736C35.0249 323.736 34.4569 323.896 33.8729 324.192L34.2649 324.968C34.5929 324.8 34.9529 324.672 35.3369 324.672C36.0169 324.672 36.2969 325.056 36.2969 325.496V325.584C35.9449 325.44 35.5689 325.368 35.2329 325.368C34.2809 325.368 33.5209 325.928 33.5209 326.744C33.5209 327.536 34.1929 328.064 35.0729 328.064C35.5289 328.064 36.0009 327.88 36.2969 327.552V327.968H37.4249V325.496C37.4249 324.416 36.6809 323.736 35.6009 323.736ZM35.3369 327.256C34.9369 327.256 34.6329 327.048 34.6329 326.712C34.6329 326.376 34.9769 326.128 35.4009 326.128C35.7209 326.128 36.0329 326.184 36.2969 326.288V326.664C36.2089 327.048 35.7849 327.256 35.3369 327.256ZM39.7706 327.968H40.8586L42.6266 323.832H41.4026L40.3146 326.624L39.2026 323.832H37.9866L39.7706 327.968ZM45.1669 327.16C44.5989 327.16 44.2149 326.768 44.1109 326.208H47.2229C47.2229 324.672 46.4389 323.736 45.1429 323.736C43.9349 323.736 42.9989 324.64 42.9989 325.888C42.9989 327.16 43.9749 328.064 45.2069 328.064C45.8149 328.064 46.5269 327.808 46.8949 327.424L46.2389 326.752C45.9749 326.992 45.5509 327.16 45.1669 327.16ZM45.1589 324.64C45.6789 324.64 46.0069 325 46.1029 325.512H44.1189C44.2469 324.984 44.6389 324.64 45.1589 324.64ZM52.8888 323.832V326.28C52.8888 326.728 52.5128 327.08 52.0248 327.08C51.5608 327.08 51.2328 326.728 51.2328 326.216V323.832H50.1128V326.464C50.1128 327.408 50.7448 328.064 51.6488 328.064C52.1768 328.064 52.6328 327.832 52.8888 327.464V327.968H54.0568V323.832H52.8888ZM56.6892 328.064C57.7052 328.064 58.3772 327.544 58.3772 326.728C58.3772 325.824 57.5772 325.584 56.8652 325.4C56.3052 325.248 56.0732 325.184 56.0732 324.96C56.0732 324.728 56.3132 324.576 56.6332 324.576C57.0092 324.576 57.4572 324.76 57.8332 325L58.2572 324.248C57.8012 323.944 57.2172 323.736 56.6332 323.736C55.6492 323.736 55.0172 324.296 55.0172 325.08C55.0172 325.896 55.6732 326.128 56.5212 326.336C56.9772 326.448 57.3132 326.56 57.3132 326.824C57.3132 327.064 57.1052 327.208 56.7132 327.208C56.2652 327.208 55.7212 327.008 55.2972 326.704L54.8252 327.44C55.3212 327.84 56.0252 328.064 56.6892 328.064ZM61.0966 327.16C60.5286 327.16 60.1446 326.768 60.0406 326.208H63.1526C63.1526 324.672 62.3686 323.736 61.0726 323.736C59.8646 323.736 58.9286 324.64 58.9286 325.888C58.9286 327.16 59.9046 328.064 61.1366 328.064C61.7446 328.064 62.4566 327.808 62.8246 327.424L62.1686 326.752C61.9046 326.992 61.4806 327.16 61.0966 327.16ZM61.0886 324.64C61.6086 324.64 61.9366 325 62.0326 325.512H60.0486C60.1766 324.984 60.5686 324.64 61.0886 324.64ZM66.9828 322.376V324.424C66.6548 323.992 66.1668 323.736 65.5828 323.736C64.4868 323.736 63.6868 324.632 63.6868 325.896C63.6868 327.168 64.4868 328.064 65.5828 328.064C66.1668 328.064 66.6548 327.808 66.9828 327.376V327.968H68.1508V322.376H66.9828ZM65.9268 327.08C65.2788 327.08 64.8228 326.592 64.8228 325.896C64.8228 325.208 65.2788 324.72 65.9268 324.72C66.5428 324.72 66.9828 325.208 66.9828 325.896C66.9828 326.592 66.5428 327.08 65.9268 327.08Z" fill="#0F0B47"/>
<circle cx="5" cy="315.968" r="5" fill="#1B0085"/>
</svg>
