<svg width="1199" height="606" viewBox="0 0 1199 606" fill="none" xmlns="http://www.w3.org/2000/svg">
<rect y="144" width="636" height="80" fill="#1B0085"/>
<rect x="636" y="144" width="396" height="80" fill="#542AED"/>
<rect x="1032" y="144" width="167" height="80" fill="#EBEBEB"/>
<path d="M16.1 209.26C19.38 209.26 21.56 207.4 21.56 204.48C21.56 201.68 19.46 200.12 17.02 200.12C15.9 200.12 15.02 200.48 14.34 200.96L14.42 197.92H20.82V195.26H11.7L11.5 202.68L13.48 203.48C14.22 202.92 15.1 202.58 16.14 202.58C17.64 202.58 18.62 203.38 18.62 204.58C18.62 205.76 17.68 206.68 16.12 206.68C14.8 206.68 13.56 206.04 12.52 205.06L10.78 207.14C12.06 208.42 13.8 209.26 16.1 209.26ZM28.5014 209.26C31.7214 209.26 33.8014 207.54 33.8014 205.16C33.8014 203.34 32.4214 202.28 30.9214 201.94C32.4414 201.5 33.5014 200.36 33.5014 198.78C33.5014 196.6 31.5614 195.02 28.4814 195.02C26.0414 195.02 24.4014 196.08 23.2614 197.46L24.9614 199.26C25.8814 198.3 26.9014 197.66 28.1814 197.66C29.5414 197.66 30.5014 198.3 30.5014 199.3C30.5014 200.28 29.6014 200.84 28.1014 200.84L26.5214 200.82V203.34H28.1014C29.9414 203.32 30.7814 203.86 30.7814 204.92C30.7814 205.9 29.8814 206.6 28.3814 206.6C27.0014 206.6 25.7014 206.02 24.7214 204.98L22.9814 206.94C24.1414 208.28 26.0414 209.26 28.5014 209.26ZM39.3052 202.16C41.3252 202.16 42.7452 200.62 42.7452 198.64C42.7452 196.7 41.3852 195.12 39.3052 195.12C37.2452 195.12 35.8852 196.68 35.8852 198.66C35.8852 200.62 37.2452 202.16 39.3052 202.16ZM37.6852 209H39.9852L49.5452 195.26H47.2252L37.6852 209ZM39.3052 200.44C38.4852 200.44 37.8452 199.72 37.8452 198.64C37.8452 197.56 38.4452 196.86 39.3052 196.86C40.1452 196.86 40.7652 197.58 40.7652 198.64C40.7652 199.74 40.1452 200.44 39.3052 200.44ZM47.8852 209.22C49.9052 209.22 51.3052 207.68 51.3052 205.7C51.3052 203.76 49.9652 202.18 47.8852 202.18C45.8452 202.18 44.4452 203.74 44.4452 205.7C44.4452 207.66 45.8452 209.22 47.8852 209.22ZM47.8852 207.48C47.0452 207.48 46.4252 206.76 46.4252 205.7C46.4252 204.6 47.0252 203.9 47.8852 203.9C48.7052 203.9 49.3452 204.62 49.3452 205.7C49.3452 206.78 48.7452 207.48 47.8852 207.48Z" fill="white"/>
<path d="M654.06 209.26C657.28 209.26 659.36 207.54 659.36 205.16C659.36 203.34 657.98 202.28 656.48 201.94C658 201.5 659.06 200.36 659.06 198.78C659.06 196.6 657.12 195.02 654.04 195.02C651.6 195.02 649.96 196.08 648.82 197.46L650.52 199.26C651.44 198.3 652.46 197.66 653.74 197.66C655.1 197.66 656.06 198.3 656.06 199.3C656.06 200.28 655.16 200.84 653.66 200.84L652.08 200.82V203.34H653.66C655.5 203.32 656.34 203.86 656.34 204.92C656.34 205.9 655.44 206.6 653.94 206.6C652.56 206.6 651.26 206.02 650.28 204.98L648.54 206.94C649.7 208.28 651.6 209.26 654.06 209.26ZM666.404 209.26C669.624 209.26 671.704 207.54 671.704 205.16C671.704 203.34 670.324 202.28 668.824 201.94C670.344 201.5 671.404 200.36 671.404 198.78C671.404 196.6 669.464 195.02 666.384 195.02C663.944 195.02 662.304 196.08 661.164 197.46L662.864 199.26C663.784 198.3 664.804 197.66 666.084 197.66C667.444 197.66 668.404 198.3 668.404 199.3C668.404 200.28 667.504 200.84 666.004 200.84L664.424 200.82V203.34H666.004C667.844 203.32 668.684 203.86 668.684 204.92C668.684 205.9 667.784 206.6 666.284 206.6C664.904 206.6 663.604 206.02 662.624 204.98L660.884 206.94C662.044 208.28 663.944 209.26 666.404 209.26ZM677.208 202.16C679.228 202.16 680.648 200.62 680.648 198.64C680.648 196.7 679.288 195.12 677.208 195.12C675.148 195.12 673.788 196.68 673.788 198.66C673.788 200.62 675.148 202.16 677.208 202.16ZM675.588 209H677.888L687.448 195.26H685.128L675.588 209ZM677.208 200.44C676.388 200.44 675.748 199.72 675.748 198.64C675.748 197.56 676.348 196.86 677.208 196.86C678.048 196.86 678.668 197.58 678.668 198.64C678.668 199.74 678.048 200.44 677.208 200.44ZM685.788 209.22C687.808 209.22 689.208 207.68 689.208 205.7C689.208 203.76 687.868 202.18 685.788 202.18C683.748 202.18 682.348 203.74 682.348 205.7C682.348 207.66 683.748 209.22 685.788 209.22ZM685.788 207.48C684.948 207.48 684.328 206.76 684.328 205.7C684.328 204.6 684.928 203.9 685.788 203.9C686.608 203.9 687.248 204.62 687.248 205.7C687.248 206.78 686.648 207.48 685.788 207.48Z" fill="white"/>
<path d="M4.74 112H7.72L10.98 102.56L14.22 112H17.2L21.36 98.26H18.14L15.62 107.48L12.58 98.26H9.36L6.32 107.48L3.78 98.26H0.58L4.74 112ZM33.6136 112H36.9336L31.3336 98.26H28.0336L22.4336 112H25.7336L26.6936 109.64H32.6536L33.6136 112ZM27.6336 107.34L29.6736 102.32L31.7136 107.34H27.6336ZM44.2614 112.24C47.6014 112.24 49.6014 110.5 49.6014 107.88C49.6014 105.34 47.6414 104.46 44.6814 103.8C42.5614 103.32 41.7214 103 41.7214 102C41.7214 101.18 42.5014 100.52 43.7414 100.52C45.0614 100.52 46.4414 101.06 47.6814 102.06L49.2214 99.92C47.8014 98.72 46.0814 98.02 43.8414 98.02C40.8214 98.02 38.7414 99.76 38.7414 102.3C38.7414 104.96 40.8214 105.78 43.7214 106.44C45.8214 106.92 46.6214 107.22 46.6214 108.2C46.6214 109.06 45.8614 109.74 44.3614 109.74C42.6214 109.74 41.1414 109.06 39.8414 107.94L38.1614 109.96C39.7614 111.44 41.8614 112.24 44.2614 112.24ZM52.2283 112H55.1883V103.44L59.4283 111.2L63.6883 103.44V112H66.6283V98.26H63.6883L59.4283 106.02L55.1883 98.26H52.2283V112ZM80.6989 100.92V98.26H70.1189V112H80.6989V109.34H73.0789V106.32H79.9989V103.66H73.0789V100.92H80.6989ZM83.5564 112H88.4964C93.1164 112 96.3964 109.14 96.3964 105.12C96.3964 101.1 93.1164 98.26 88.4964 98.26H83.5564V112ZM86.5164 109.32V100.94H88.8764C91.4964 100.94 93.3564 102.68 93.3564 105.12C93.3564 107.58 91.4964 109.32 88.8764 109.32H86.5164ZM105.085 106.58H108.265V108.68C107.505 109.24 106.525 109.56 105.605 109.56C103.245 109.56 101.265 107.52 101.265 105.12C101.265 102.74 103.245 100.7 105.605 100.7C106.865 100.7 108.185 101.3 109.005 102.24L111.145 100.32C109.785 98.88 107.645 98.02 105.605 98.02C101.605 98.02 98.2247 101.26 98.2247 105.12C98.2247 108.98 101.605 112.24 105.605 112.24C107.645 112.24 109.785 111.38 111.145 109.94V104.28H105.085V106.58ZM124.664 100.92V98.26H114.084V112H124.664V109.34H117.044V106.32H123.964V103.66H117.044V100.92H124.664Z" fill="#0F0B47"/>
<rect y="335" width="612" height="80" fill="#1B0085"/>
<rect x="612" y="335" width="432" height="80" fill="#542AED"/>
<rect x="1044" y="335" width="155" height="80" fill="#EBEBEB"/>
<path d="M16.1 400.26C19.38 400.26 21.56 398.4 21.56 395.48C21.56 392.68 19.46 391.12 17.02 391.12C15.9 391.12 15.02 391.48 14.34 391.96L14.42 388.92H20.82V386.26H11.7L11.5 393.68L13.48 394.48C14.22 393.92 15.1 393.58 16.14 393.58C17.64 393.58 18.62 394.38 18.62 395.58C18.62 396.76 17.68 397.68 16.12 397.68C14.8 397.68 13.56 397.04 12.52 396.06L10.78 398.14C12.06 399.42 13.8 400.26 16.1 400.26ZM26.4214 400H29.3614V386.26H27.0014L22.8814 389.02L24.0814 391.1L26.4214 389.64V400ZM35.5552 393.16C37.5752 393.16 38.9952 391.62 38.9952 389.64C38.9952 387.7 37.6352 386.12 35.5552 386.12C33.4952 386.12 32.1352 387.68 32.1352 389.66C32.1352 391.62 33.4952 393.16 35.5552 393.16ZM33.9352 400H36.2352L45.7952 386.26H43.4752L33.9352 400ZM35.5552 391.44C34.7352 391.44 34.0952 390.72 34.0952 389.64C34.0952 388.56 34.6952 387.86 35.5552 387.86C36.3952 387.86 37.0152 388.58 37.0152 389.64C37.0152 390.74 36.3952 391.44 35.5552 391.44ZM44.1352 400.22C46.1552 400.22 47.5552 398.68 47.5552 396.7C47.5552 394.76 46.2152 393.18 44.1352 393.18C42.0952 393.18 40.6952 394.74 40.6952 396.7C40.6952 398.66 42.0952 400.22 44.1352 400.22ZM44.1352 398.48C43.2952 398.48 42.6752 397.76 42.6752 396.7C42.6752 395.6 43.2752 394.9 44.1352 394.9C44.9552 394.9 45.5952 395.62 45.5952 396.7C45.5952 397.78 44.9952 398.48 44.1352 398.48Z" fill="white"/>
<path d="M630.06 400.26C633.28 400.26 635.36 398.54 635.36 396.16C635.36 394.34 633.98 393.28 632.48 392.94C634 392.5 635.06 391.36 635.06 389.78C635.06 387.6 633.12 386.02 630.04 386.02C627.6 386.02 625.96 387.08 624.82 388.46L626.52 390.26C627.44 389.3 628.46 388.66 629.74 388.66C631.1 388.66 632.06 389.3 632.06 390.3C632.06 391.28 631.16 391.84 629.66 391.84L628.08 391.82V394.34H629.66C631.5 394.32 632.34 394.86 632.34 395.92C632.34 396.9 631.44 397.6 629.94 397.6C628.56 397.6 627.26 397.02 626.28 395.98L624.54 397.94C625.7 399.28 627.6 400.26 630.06 400.26ZM643.804 391.12C642.504 391.12 641.244 391.62 640.404 392.44C640.664 390.12 641.864 388.62 643.664 388.62C644.824 388.62 645.624 389.04 646.464 389.74L647.864 387.5C646.744 386.6 645.364 386.02 643.664 386.02C639.844 386.02 637.344 389.08 637.344 393.36C637.344 397.36 639.184 400.24 643.184 400.24C646.184 400.24 648.444 398.3 648.444 395.48C648.444 392.76 646.344 391.12 643.804 391.12ZM643.024 397.74C641.484 397.74 640.744 396.8 640.484 395.12C640.904 394.14 641.824 393.52 642.944 393.52C644.284 393.52 645.404 394.3 645.404 395.62C645.404 396.72 644.484 397.74 643.024 397.74ZM653.793 393.16C655.813 393.16 657.233 391.62 657.233 389.64C657.233 387.7 655.873 386.12 653.793 386.12C651.733 386.12 650.373 387.68 650.373 389.66C650.373 391.62 651.733 393.16 653.793 393.16ZM652.173 400H654.473L664.033 386.26H661.713L652.173 400ZM653.793 391.44C652.973 391.44 652.333 390.72 652.333 389.64C652.333 388.56 652.933 387.86 653.793 387.86C654.633 387.86 655.253 388.58 655.253 389.64C655.253 390.74 654.633 391.44 653.793 391.44ZM662.373 400.22C664.393 400.22 665.793 398.68 665.793 396.7C665.793 394.76 664.453 393.18 662.373 393.18C660.333 393.18 658.933 394.74 658.933 396.7C658.933 398.66 660.333 400.22 662.373 400.22ZM662.373 398.48C661.533 398.48 660.913 397.76 660.913 396.7C660.913 395.6 661.513 394.9 662.373 394.9C663.193 394.9 663.833 395.62 663.833 396.7C663.833 397.78 663.233 398.48 662.373 398.48Z" fill="white"/>
<path d="M4.74 303H7.72L10.98 293.56L14.22 303H17.2L21.36 289.26H18.14L15.62 298.48L12.58 289.26H9.36L6.32 298.48L3.78 289.26H0.58L4.74 303ZM34.2536 291.92V289.26H23.6736V303H34.2536V300.34H26.6336V297.32H33.5536V294.66H26.6336V291.92H34.2536ZM37.1111 303H44.3511C46.9711 303 48.8511 301.48 48.8511 299.28C48.8511 297.76 47.9311 296.48 46.3311 295.76C47.5511 295.12 48.2511 294.1 48.2511 292.7C48.2511 290.7 46.5311 289.26 44.0711 289.26H37.1111V303ZM40.0511 294.8V291.78H43.3511C44.4511 291.78 45.2311 292.42 45.2311 293.28C45.2311 294.16 44.4511 294.8 43.3511 294.8H40.0511ZM40.0511 300.48V297.12H43.7911C44.9911 297.12 45.8311 297.82 45.8311 298.8C45.8311 299.78 44.9911 300.48 43.7911 300.48H40.0511ZM61.4847 303H64.8047L59.2047 289.26H55.9047L50.3047 303H53.6047L54.5647 300.64H60.5247L61.4847 303ZM55.5047 298.34L57.5447 293.32L59.5847 298.34H55.5047ZM72.1325 303.24C75.4725 303.24 77.4725 301.5 77.4725 298.88C77.4725 296.34 75.5125 295.46 72.5525 294.8C70.4325 294.32 69.5925 294 69.5925 293C69.5925 292.18 70.3725 291.52 71.6125 291.52C72.9325 291.52 74.3125 292.06 75.5525 293.06L77.0925 290.92C75.6725 289.72 73.9525 289.02 71.7125 289.02C68.6925 289.02 66.6125 290.76 66.6125 293.3C66.6125 295.96 68.6925 296.78 71.5925 297.44C73.6925 297.92 74.4925 298.22 74.4925 299.2C74.4925 300.06 73.7325 300.74 72.2325 300.74C70.4925 300.74 69.0125 300.06 67.7125 298.94L66.0325 300.96C67.6325 302.44 69.7325 303.24 72.1325 303.24ZM85.1794 303.24C88.5194 303.24 90.5194 301.5 90.5194 298.88C90.5194 296.34 88.5594 295.46 85.5994 294.8C83.4794 294.32 82.6394 294 82.6394 293C82.6394 292.18 83.4194 291.52 84.6594 291.52C85.9794 291.52 87.3594 292.06 88.5994 293.06L90.1394 290.92C88.7194 289.72 86.9994 289.02 84.7594 289.02C81.7394 289.02 79.6594 290.76 79.6594 293.3C79.6594 295.96 81.7394 296.78 84.6394 297.44C86.7394 297.92 87.5394 298.22 87.5394 299.2C87.5394 300.06 86.7794 300.74 85.2794 300.74C83.5394 300.74 82.0594 300.06 80.7594 298.94L79.0794 300.96C80.6794 302.44 82.7794 303.24 85.1794 303.24ZM103.726 291.92V289.26H93.1463V303H103.726V300.34H96.1063V297.32H103.026V294.66H96.1063V291.92H103.726ZM106.584 303H109.544V294.44L113.784 302.2L118.044 294.44V303H120.984V289.26H118.044L113.784 297.02L109.544 289.26H106.584V303ZM124.474 303H131.714C134.334 303 136.214 301.48 136.214 299.28C136.214 297.76 135.294 296.48 133.694 295.76C134.914 295.12 135.614 294.1 135.614 292.7C135.614 290.7 133.894 289.26 131.434 289.26H124.474V303ZM127.414 294.8V291.78H130.714C131.814 291.78 132.594 292.42 132.594 293.28C132.594 294.16 131.814 294.8 130.714 294.8H127.414ZM127.414 300.48V297.12H131.154C132.354 297.12 133.194 297.82 133.194 298.8C133.194 299.78 132.354 300.48 131.154 300.48H127.414ZM141.868 300.34V289.26H138.908V303H148.708V300.34H141.868ZM155.195 303H158.175V298.04L163.535 289.26H160.235L156.675 295.28L153.255 289.26H149.815L155.195 298.04V303ZM171.193 303H174.153V294.44L178.393 302.2L182.653 294.44V303H185.593V289.26H182.653L178.393 297.02L174.153 289.26H171.193V303ZM189.084 303H192.044V289.26H189.084V303ZM202.029 303.24C204.109 303.24 206.009 302.34 207.349 300.94L205.209 299.02C204.429 299.94 203.289 300.56 202.029 300.56C199.709 300.56 197.749 298.52 197.749 296.12C197.749 293.74 199.709 291.7 202.029 291.7C203.269 291.7 204.429 292.32 205.209 293.24L207.349 291.32C206.009 289.9 204.109 289.02 202.029 289.02C198.069 289.02 194.709 292.26 194.709 296.12C194.709 299.98 198.069 303.24 202.029 303.24ZM221.088 293.9C221.088 291.18 218.908 289.26 215.908 289.26H209.728V303H212.688V298.54H214.468L217.608 303H220.968L217.668 298.3C219.728 297.7 221.088 296.06 221.088 293.9ZM212.688 291.96H215.608C217.068 291.96 218.068 292.72 218.068 293.9C218.068 295.08 217.068 295.84 215.608 295.84H212.688V291.96ZM230.31 303.24C234.27 303.24 237.59 299.98 237.59 296.12C237.59 292.26 234.27 289.02 230.31 289.02C226.35 289.02 222.99 292.26 222.99 296.12C222.99 299.98 226.35 303.24 230.31 303.24ZM230.31 300.56C227.99 300.56 226.03 298.52 226.03 296.12C226.03 293.74 227.99 291.7 230.31 291.7C232.61 291.7 234.57 293.74 234.57 296.12C234.57 298.52 232.61 300.56 230.31 300.56ZM257.084 293.9C257.084 291.18 254.904 289.26 251.904 289.26H245.724V303H248.684V298.54H250.464L253.604 303H256.964L253.664 298.3C255.724 297.7 257.084 296.06 257.084 293.9ZM248.684 291.96H251.604C253.064 291.96 254.064 292.72 254.064 293.9C254.064 295.08 253.064 295.84 251.604 295.84H248.684V291.96ZM265.726 303.24C269.366 303.24 271.946 300.68 271.946 297.06V289.26H268.986V296.94C268.986 299.06 267.626 300.56 265.726 300.56C263.806 300.56 262.446 299.06 262.446 296.94V289.26H259.506V297.06C259.506 300.68 262.066 303.24 265.726 303.24ZM275.119 303H278.079V294.12L284.699 303H287.659V289.26H284.699V298.14L278.079 289.26H275.119V303ZM294.315 303H297.255V291.92H301.555V289.26H290.035V291.92H294.315V303ZM303.908 303H306.868V289.26H303.908V303ZM310.353 303H313.313V294.44L317.553 302.2L321.813 294.44V303H324.753V289.26H321.813L317.553 297.02L313.313 289.26H310.353V303ZM338.824 291.92V289.26H328.244V303H338.824V300.34H331.204V297.32H338.124V294.66H331.204V291.92H338.824ZM350.731 306.4L352.231 304.82C350.151 302.7 349.171 300.58 349.171 297.7C349.171 294.8 350.151 292.7 352.231 290.56L350.731 289C347.911 291.04 346.251 294.14 346.251 297.7C346.251 301.24 347.911 304.36 350.731 306.4ZM357.494 303H360.474L363.734 293.56L366.974 303H369.954L374.114 289.26H370.894L368.374 298.48L365.334 289.26H362.114L359.074 298.48L356.534 289.26H353.334L357.494 303ZM386.368 303H389.688L384.088 289.26H380.788L375.188 303H378.488L379.448 300.64H385.408L386.368 303ZM380.388 298.34L382.428 293.32L384.468 298.34H380.388ZM391.935 303H394.895V294.44L399.135 302.2L403.395 294.44V303H406.335V289.26H403.395L399.135 297.02L394.895 289.26H391.935V303ZM421.186 293.9C421.186 291.18 419.006 289.26 416.006 289.26H409.826V303H412.786V298.54H414.566L417.706 303H421.066L417.766 298.3C419.826 297.7 421.186 296.06 421.186 293.9ZM412.786 291.96H415.706C417.166 291.96 418.166 292.72 418.166 293.9C418.166 295.08 417.166 295.84 415.706 295.84H412.786V291.96ZM424.168 306.4C426.988 304.36 428.648 301.24 428.648 297.7C428.648 294.14 426.988 291.04 424.168 289L422.688 290.56C424.768 292.7 425.748 294.8 425.748 297.7C425.748 300.58 424.768 302.7 422.688 304.82L424.168 306.4Z" fill="#0F0B47"/>
<rect y="526" width="480" height="80" fill="#1B0085"/>
<rect x="480" y="526" width="456" height="80" fill="#542AED"/>
<rect x="936" y="526" width="263" height="80" fill="#EBEBEB"/>
<path d="M17.58 591H20.52V588.2H22.34V585.72H20.52V577.28H16.96L10.58 585.92L10.86 588.2H17.58V591ZM13.68 585.72L17.58 580.4V585.72H13.68ZM30.1283 591.24C33.7483 591.24 36.2883 588.3 36.2883 584.12C36.2883 579.96 33.7483 577.02 30.1283 577.02C26.5083 577.02 23.9483 579.96 23.9483 584.12C23.9483 588.3 26.5083 591.24 30.1283 591.24ZM30.1283 588.56C28.2883 588.56 26.9883 586.7 26.9883 584.12C26.9883 581.54 28.2883 579.7 30.1283 579.7C31.9683 579.7 33.2683 581.54 33.2683 584.12C33.2683 586.7 31.9683 588.56 30.1283 588.56ZM41.7661 584.16C43.7861 584.16 45.2061 582.62 45.2061 580.64C45.2061 578.7 43.8461 577.12 41.7661 577.12C39.7061 577.12 38.3461 578.68 38.3461 580.66C38.3461 582.62 39.7061 584.16 41.7661 584.16ZM40.1461 591H42.4461L52.0061 577.26H49.6861L40.1461 591ZM41.7661 582.44C40.9461 582.44 40.3061 581.72 40.3061 580.64C40.3061 579.56 40.9061 578.86 41.7661 578.86C42.6061 578.86 43.2261 579.58 43.2261 580.64C43.2261 581.74 42.6061 582.44 41.7661 582.44ZM50.3461 591.22C52.3661 591.22 53.7661 589.68 53.7661 587.7C53.7661 585.76 52.4261 584.18 50.3461 584.18C48.3061 584.18 46.9061 585.74 46.9061 587.7C46.9061 589.66 48.3061 591.22 50.3461 591.22ZM50.3461 589.48C49.5061 589.48 48.8861 588.76 48.8861 587.7C48.8861 586.6 49.4861 585.9 50.3461 585.9C51.1661 585.9 51.8061 586.62 51.8061 587.7C51.8061 588.78 51.2061 589.48 50.3461 589.48Z" fill="white"/>
<path d="M498.06 591.26C501.28 591.26 503.36 589.54 503.36 587.16C503.36 585.34 501.98 584.28 500.48 583.94C502 583.5 503.06 582.36 503.06 580.78C503.06 578.6 501.12 577.02 498.04 577.02C495.6 577.02 493.96 578.08 492.82 579.46L494.52 581.26C495.44 580.3 496.46 579.66 497.74 579.66C499.1 579.66 500.06 580.3 500.06 581.3C500.06 582.28 499.16 582.84 497.66 582.84L496.08 582.82V585.34H497.66C499.5 585.32 500.34 585.86 500.34 586.92C500.34 587.9 499.44 588.6 497.94 588.6C496.56 588.6 495.26 588.02 494.28 586.98L492.54 588.94C493.7 590.28 495.6 591.26 498.06 591.26ZM510.784 591.24C513.804 591.24 516.304 589.82 516.304 587.32C516.304 585.74 515.224 584.54 513.604 583.9C514.984 583.3 515.964 582.3 515.964 580.76C515.964 578.4 513.524 577.02 510.784 577.02C508.104 577.02 505.624 578.34 505.624 580.76C505.624 582.32 506.604 583.32 507.964 583.9C506.384 584.5 505.264 585.7 505.264 587.32C505.264 589.8 507.744 591.24 510.784 591.24ZM510.784 582.88C509.704 582.8 508.564 582.2 508.564 581.14C508.564 580.2 509.464 579.5 510.784 579.5C512.104 579.5 513.024 580.2 513.024 581.14C513.024 582.16 511.864 582.8 510.784 582.88ZM510.784 588.76C509.324 588.76 508.264 588.04 508.264 587C508.264 585.92 509.604 585.24 510.784 585.2C511.964 585.24 513.324 585.92 513.324 587C513.324 588.04 512.244 588.76 510.784 588.76ZM521.754 584.16C523.774 584.16 525.194 582.62 525.194 580.64C525.194 578.7 523.834 577.12 521.754 577.12C519.694 577.12 518.334 578.68 518.334 580.66C518.334 582.62 519.694 584.16 521.754 584.16ZM520.134 591H522.434L531.994 577.26H529.674L520.134 591ZM521.754 582.44C520.934 582.44 520.294 581.72 520.294 580.64C520.294 579.56 520.894 578.86 521.754 578.86C522.594 578.86 523.214 579.58 523.214 580.64C523.214 581.74 522.594 582.44 521.754 582.44ZM530.334 591.22C532.354 591.22 533.754 589.68 533.754 587.7C533.754 585.76 532.414 584.18 530.334 584.18C528.294 584.18 526.894 585.74 526.894 587.7C526.894 589.66 528.294 591.22 530.334 591.22ZM530.334 589.48C529.494 589.48 528.874 588.76 528.874 587.7C528.874 586.6 529.474 585.9 530.334 585.9C531.154 585.9 531.794 586.62 531.794 587.7C531.794 588.78 531.194 589.48 530.334 589.48Z" fill="white"/>
<path d="M4.74 494H7.72L10.98 484.56L14.22 494H17.2L21.36 480.26H18.14L15.62 489.48L12.58 480.26H9.36L6.32 489.48L3.78 480.26H0.58L4.74 494ZM33.6136 494H36.9336L31.3336 480.26H28.0336L22.4336 494H25.7336L26.6936 491.64H32.6536L33.6136 494ZM27.6336 489.34L29.6736 484.32L31.7136 489.34H27.6336ZM44.2614 494.24C47.6014 494.24 49.6014 492.5 49.6014 489.88C49.6014 487.34 47.6414 486.46 44.6814 485.8C42.5614 485.32 41.7214 485 41.7214 484C41.7214 483.18 42.5014 482.52 43.7414 482.52C45.0614 482.52 46.4414 483.06 47.6814 484.06L49.2214 481.92C47.8014 480.72 46.0814 480.02 43.8414 480.02C40.8214 480.02 38.7414 481.76 38.7414 484.3C38.7414 486.96 40.8214 487.78 43.7214 488.44C45.8214 488.92 46.6214 489.22 46.6214 490.2C46.6214 491.06 45.8614 491.74 44.3614 491.74C42.6214 491.74 41.1414 491.06 39.8414 489.94L38.1614 491.96C39.7614 493.44 41.8614 494.24 44.2614 494.24ZM52.2283 494H55.1883V485.44L59.4283 493.2L63.6883 485.44V494H66.6283V480.26H63.6883L59.4283 488.02L55.1883 480.26H52.2283V494ZM80.6989 482.92V480.26H70.1189V494H80.6989V491.34H73.0789V488.32H79.9989V485.66H73.0789V482.92H80.6989ZM94.9164 484.9C94.9164 482.18 92.7364 480.26 89.7364 480.26H83.5564V494H86.5164V489.54H88.2964L91.4364 494H94.7964L91.4964 489.3C93.5564 488.7 94.9164 487.06 94.9164 484.9ZM86.5164 482.96H89.4364C90.8964 482.96 91.8964 483.72 91.8964 484.9C91.8964 486.08 90.8964 486.84 89.4364 486.84H86.5164V482.96Z" fill="#0F0B47"/>
<rect width="20" height="20" rx="10" fill="#1B0085"/>
<path d="M39.088 14H41.174V10.528L44.926 4.382H42.616L40.124 8.596L37.73 4.382H35.322L39.088 10.528V14ZM49.5519 12.586C48.5579 12.586 47.8859 11.9 47.7039 10.92H53.1499C53.1499 8.232 51.7779 6.594 49.5099 6.594C47.3959 6.594 45.7579 8.176 45.7579 10.36C45.7579 12.586 47.4659 14.168 49.6219 14.168C50.6859 14.168 51.9319 13.72 52.5759 13.048L51.4279 11.872C50.9659 12.292 50.2239 12.586 49.5519 12.586ZM49.5379 8.176C50.4479 8.176 51.0219 8.806 51.1899 9.702H47.7179C47.9419 8.778 48.6279 8.176 49.5379 8.176ZM57.1787 14.168C58.9567 14.168 60.1327 13.258 60.1327 11.83C60.1327 10.248 58.7327 9.828 57.4867 9.506C56.5067 9.24 56.1007 9.128 56.1007 8.736C56.1007 8.33 56.5207 8.064 57.0807 8.064C57.7387 8.064 58.5227 8.386 59.1807 8.806L59.9227 7.49C59.1247 6.958 58.1027 6.594 57.0807 6.594C55.3587 6.594 54.2527 7.574 54.2527 8.946C54.2527 10.374 55.4007 10.78 56.8847 11.144C57.6827 11.34 58.2707 11.536 58.2707 11.998C58.2707 12.418 57.9067 12.67 57.2207 12.67C56.4367 12.67 55.4847 12.32 54.7427 11.788L53.9167 13.076C54.7847 13.776 56.0167 14.168 57.1787 14.168ZM62.5538 15.862C63.3938 14.812 63.6318 14.336 63.6318 13.776C63.6318 13.132 63.3098 12.656 62.7778 12.656C62.3298 12.656 62.0078 13.006 62.0078 13.398C62.0078 13.818 62.3438 14.168 62.7638 14.168C62.6517 14.602 62.4138 15.036 62.0358 15.47L62.5538 15.862ZM74.9976 6.762V11.368C74.9976 12.39 73.9896 13.23 72.7576 13.23C71.6936 13.23 70.9516 12.418 70.9516 11.228V6.762H69.9016V11.368C69.9016 13.034 71.0076 14.168 72.6176 14.168C73.6536 14.168 74.5776 13.622 74.9976 12.852V14H76.0476V6.762H74.9976ZM80.7178 14.168C82.2158 14.168 83.3638 13.314 83.3638 11.984C83.3638 10.612 82.1598 10.22 80.9978 9.856C79.6538 9.422 79.1218 9.226 79.1218 8.596C79.1218 7.896 79.7938 7.532 80.6058 7.532C81.2498 7.532 81.9638 7.756 82.6918 8.218L83.1958 7.406C82.4258 6.902 81.5018 6.594 80.6058 6.594C79.1638 6.594 78.0718 7.406 78.0718 8.722C78.0718 9.758 78.7438 10.276 80.4938 10.78C81.4738 11.06 82.3138 11.312 82.3138 12.096C82.3138 12.782 81.6698 13.23 80.7178 13.23C79.9198 13.23 79.0938 12.922 78.2678 12.32L77.7218 13.09C78.5898 13.79 79.7098 14.168 80.7178 14.168ZM85.6953 5.446C86.0733 5.446 86.3813 5.124 86.3813 4.746C86.3813 4.382 86.0733 4.06 85.6953 4.06C85.3033 4.06 84.9953 4.382 84.9953 4.746C84.9953 5.124 85.3033 5.446 85.6953 5.446ZM85.1633 14H86.2133V6.762H85.1633V14ZM92.0796 6.594C91.0436 6.594 90.1196 7.14 89.6996 7.91V6.762H88.6496V14H89.6996V9.394C89.6996 8.372 90.7076 7.532 91.9396 7.532C93.0036 7.532 93.7456 8.344 93.7456 9.534V14H94.7956V9.394C94.7956 7.728 93.6896 6.594 92.0796 6.594ZM102.392 6.762V8.008C101.832 7.126 100.908 6.594 99.7598 6.594C97.8138 6.594 96.4278 8.008 96.4278 10.024C96.4278 12.04 97.8138 13.468 99.7598 13.468C100.908 13.468 101.832 12.936 102.392 12.054V13.23C102.392 14.644 101.412 15.47 99.7458 15.47C98.8498 15.47 97.9818 15.148 97.4218 14.616L96.9598 15.442C97.6178 16.002 98.7098 16.408 99.8858 16.408C101.972 16.408 103.442 15.092 103.442 13.23V6.762H102.392ZM99.9558 12.53C98.5418 12.53 97.5338 11.494 97.5338 10.024C97.5338 8.568 98.5418 7.532 99.9558 7.532C101.384 7.532 102.392 8.568 102.392 10.024C102.392 11.494 101.384 12.53 99.9558 12.53ZM112.84 14.168C114.884 14.168 116.564 12.46 116.564 10.374C116.564 8.288 114.884 6.594 112.84 6.594C110.782 6.594 109.102 8.288 109.102 10.374C109.102 12.46 110.782 14.168 112.84 14.168ZM112.84 13.23C111.384 13.23 110.194 11.942 110.194 10.374C110.194 8.806 111.384 7.532 112.84 7.532C114.282 7.532 115.472 8.806 115.472 10.374C115.472 11.942 114.282 13.23 112.84 13.23ZM119.422 8.176V6.762H118.372V14H119.422V9.954C119.422 8.54 120.584 7.532 122.222 7.532V6.594C120.892 6.594 119.856 7.21 119.422 8.176ZM131.209 6.594C130.173 6.594 129.249 7.14 128.829 7.91V4.214H127.779V14H128.829V9.394C128.829 8.372 129.837 7.532 131.069 7.532C132.133 7.532 132.875 8.344 132.875 9.534V14H133.925V9.394C133.925 7.728 132.819 6.594 131.209 6.594ZM138.777 6.594C138.077 6.594 137.209 6.776 136.173 7.294L136.593 8.148C137.251 7.812 137.979 7.49 138.707 7.49C140.275 7.49 140.667 8.61 140.667 9.59V9.856C139.925 9.618 139.099 9.45 138.315 9.45C136.761 9.45 135.473 10.416 135.473 11.858C135.473 13.286 136.593 14.168 138.119 14.168C139.071 14.168 140.149 13.72 140.667 12.866V14H141.717V9.59C141.717 7.84 140.751 6.594 138.777 6.594ZM138.301 13.244C137.279 13.244 136.495 12.712 136.495 11.816C136.495 10.948 137.405 10.332 138.483 10.332C139.267 10.332 140.009 10.444 140.667 10.626V11.732C140.387 12.754 139.253 13.244 138.301 13.244ZM145.982 14H146.99L150.028 6.762H148.852L146.486 12.768L144.078 6.762H142.902L145.982 14ZM154.442 13.23C153.014 13.23 152.02 12.194 151.866 10.78H157.788C157.788 8.246 156.542 6.594 154.358 6.594C152.412 6.594 150.788 8.204 150.788 10.36C150.788 12.586 152.524 14.168 154.456 14.168C155.464 14.168 156.738 13.734 157.368 13.048L156.724 12.362C156.276 12.852 155.296 13.23 154.442 13.23ZM154.4 7.532C155.842 7.532 156.612 8.54 156.752 9.842H151.88C152.076 8.442 153.112 7.532 154.4 7.532ZM168.335 6.762V11.368C168.335 12.39 167.327 13.23 166.095 13.23C165.031 13.23 164.289 12.418 164.289 11.228V6.762H163.239V11.368C163.239 13.034 164.345 14.168 165.955 14.168C166.991 14.168 167.915 13.622 168.335 12.852V14H169.385V6.762H168.335ZM174.056 14.168C175.554 14.168 176.702 13.314 176.702 11.984C176.702 10.612 175.498 10.22 174.336 9.856C172.992 9.422 172.46 9.226 172.46 8.596C172.46 7.896 173.132 7.532 173.944 7.532C174.588 7.532 175.302 7.756 176.03 8.218L176.534 7.406C175.764 6.902 174.84 6.594 173.944 6.594C172.502 6.594 171.41 7.406 171.41 8.722C171.41 9.758 172.082 10.276 173.832 10.78C174.812 11.06 175.652 11.312 175.652 12.096C175.652 12.782 175.008 13.23 174.056 13.23C173.258 13.23 172.432 12.922 171.606 12.32L171.06 13.09C171.928 13.79 173.048 14.168 174.056 14.168ZM181.553 13.23C180.125 13.23 179.131 12.194 178.977 10.78H184.899C184.899 8.246 183.653 6.594 181.469 6.594C179.523 6.594 177.899 8.204 177.899 10.36C177.899 12.586 179.635 14.168 181.567 14.168C182.575 14.168 183.849 13.734 184.479 13.048L183.835 12.362C183.387 12.852 182.407 13.23 181.553 13.23ZM181.511 7.532C182.953 7.532 183.723 8.54 183.863 9.842H178.991C179.187 8.442 180.223 7.532 181.511 7.532ZM192.067 4.214V8.12C191.521 7.168 190.597 6.594 189.435 6.594C187.531 6.594 186.103 8.162 186.103 10.374C186.103 12.6 187.531 14.168 189.435 14.168C190.597 14.168 191.521 13.594 192.067 12.642V14H193.117V4.214H192.067ZM189.631 13.23C188.217 13.23 187.209 12.04 187.209 10.374C187.209 8.708 188.217 7.532 189.631 7.532C191.059 7.532 192.067 8.708 192.067 10.374C192.067 12.04 191.059 13.23 189.631 13.23Z" fill="#0F0B47"/>
<path d="M281.088 14H283.174V10.528L286.926 4.382H284.616L282.124 8.596L279.73 4.382H277.322L281.088 10.528V14ZM291.552 12.586C290.558 12.586 289.886 11.9 289.704 10.92H295.15C295.15 8.232 293.778 6.594 291.51 6.594C289.396 6.594 287.758 8.176 287.758 10.36C287.758 12.586 289.466 14.168 291.622 14.168C292.686 14.168 293.932 13.72 294.576 13.048L293.428 11.872C292.966 12.292 292.224 12.586 291.552 12.586ZM291.538 8.176C292.448 8.176 293.022 8.806 293.19 9.702H289.718C289.942 8.778 290.628 8.176 291.538 8.176ZM299.179 14.168C300.957 14.168 302.133 13.258 302.133 11.83C302.133 10.248 300.733 9.828 299.487 9.506C298.507 9.24 298.101 9.128 298.101 8.736C298.101 8.33 298.521 8.064 299.081 8.064C299.739 8.064 300.523 8.386 301.181 8.806L301.923 7.49C301.125 6.958 300.103 6.594 299.081 6.594C297.359 6.594 296.253 7.574 296.253 8.946C296.253 10.374 297.401 10.78 298.885 11.144C299.683 11.34 300.271 11.536 300.271 11.998C300.271 12.418 299.907 12.67 299.221 12.67C298.437 12.67 297.485 12.32 296.743 11.788L295.917 13.076C296.785 13.776 298.017 14.168 299.179 14.168ZM304.68 16.044C305.674 15.078 306.164 14.196 306.164 13.37C306.164 12.348 305.618 11.62 304.834 11.62C304.134 11.62 303.574 12.208 303.574 12.908C303.574 13.594 304.12 14.168 304.792 14.168C304.68 14.616 304.386 15.092 303.938 15.484L304.68 16.044ZM315.02 6.594C314.012 6.594 313.018 6.874 311.996 7.392L312.682 8.75C313.256 8.456 313.886 8.232 314.558 8.232C315.748 8.232 316.238 8.904 316.238 9.674V9.828C315.622 9.576 314.964 9.45 314.376 9.45C312.71 9.45 311.38 10.43 311.38 11.858C311.38 13.244 312.556 14.168 314.096 14.168C314.894 14.168 315.72 13.846 316.238 13.272V14H318.212V9.674C318.212 7.784 316.91 6.594 315.02 6.594ZM314.558 12.754C313.858 12.754 313.326 12.39 313.326 11.802C313.326 11.214 313.928 10.78 314.67 10.78C315.23 10.78 315.776 10.878 316.238 11.06V11.718C316.084 12.39 315.342 12.754 314.558 12.754ZM321.701 14H323.535L324.893 9.45L326.251 14H328.085L330.535 6.762H328.533L327.175 11.27L325.733 6.762H324.039L322.611 11.27L321.239 6.762H319.237L321.701 14ZM334.776 6.594C333.768 6.594 332.774 6.874 331.752 7.392L332.438 8.75C333.012 8.456 333.642 8.232 334.314 8.232C335.504 8.232 335.994 8.904 335.994 9.674V9.828C335.378 9.576 334.72 9.45 334.132 9.45C332.466 9.45 331.136 10.43 331.136 11.858C331.136 13.244 332.312 14.168 333.852 14.168C334.65 14.168 335.476 13.846 335.994 13.272V14H337.968V9.674C337.968 7.784 336.666 6.594 334.776 6.594ZM334.314 12.754C333.614 12.754 333.082 12.39 333.082 11.802C333.082 11.214 333.684 10.78 334.426 10.78C334.986 10.78 335.532 10.878 335.994 11.06V11.718C335.84 12.39 335.098 12.754 334.314 12.754ZM341.807 8.12V6.762H339.763V14H341.807V10.542C341.807 9.184 342.773 8.316 344.285 8.316V6.594C343.179 6.594 342.283 7.182 341.807 8.12ZM349.069 13.23C347.641 13.23 346.647 12.194 346.493 10.78H352.415C352.415 8.246 351.169 6.594 348.985 6.594C347.039 6.594 345.415 8.204 345.415 10.36C345.415 12.586 347.151 14.168 349.083 14.168C350.091 14.168 351.365 13.734 351.995 13.048L351.351 12.362C350.903 12.852 349.923 13.23 349.069 13.23ZM349.027 7.532C350.469 7.532 351.239 8.54 351.379 9.842H346.507C346.703 8.442 347.739 7.532 349.027 7.532ZM361.142 14.168C363.186 14.168 364.866 12.46 364.866 10.374C364.866 8.288 363.186 6.594 361.142 6.594C359.084 6.594 357.404 8.288 357.404 10.374C357.404 12.46 359.084 14.168 361.142 14.168ZM361.142 13.23C359.686 13.23 358.496 11.942 358.496 10.374C358.496 8.806 359.686 7.532 361.142 7.532C362.584 7.532 363.774 8.806 363.774 10.374C363.774 11.942 362.584 13.23 361.142 13.23ZM367.977 5.768C367.977 5.236 368.341 4.858 368.761 4.858C369.083 4.858 369.363 4.984 369.517 5.152L370.035 4.382C369.657 4.088 369.181 3.92 368.691 3.92C367.655 3.92 366.927 4.69 366.927 5.768V6.762H365.793V7.7H366.927V14H367.977V7.7H369.755V6.762H367.977V5.768ZM377.774 12.936C377.62 13.104 377.34 13.23 377.018 13.23C376.598 13.23 376.234 12.852 376.234 12.32V7.7H378.012V6.762H376.234V4.774H375.184V6.762H374.05V7.7H375.184V12.32C375.184 13.398 375.912 14.168 376.948 14.168C377.438 14.168 377.914 14 378.292 13.706L377.774 12.936ZM383.23 6.594C382.194 6.594 381.27 7.14 380.85 7.91V4.214H379.8V14H380.85V9.394C380.85 8.372 381.858 7.532 383.09 7.532C384.154 7.532 384.896 8.344 384.896 9.534V14H385.946V9.394C385.946 7.728 384.84 6.594 383.23 6.594ZM391.26 13.23C389.832 13.23 388.838 12.194 388.684 10.78H394.606C394.606 8.246 393.36 6.594 391.176 6.594C389.23 6.594 387.606 8.204 387.606 10.36C387.606 12.586 389.342 14.168 391.274 14.168C392.282 14.168 393.556 13.734 394.186 13.048L393.542 12.362C393.094 12.852 392.114 13.23 391.26 13.23ZM391.218 7.532C392.66 7.532 393.43 8.54 393.57 9.842H388.698C388.894 8.442 389.93 7.532 391.218 7.532ZM401.276 8.176V6.762H400.226V14H401.276V9.954C401.276 8.54 402.438 7.532 404.076 7.532V6.594C402.746 6.594 401.71 7.21 401.276 8.176ZM410.705 6.762V11.368C410.705 12.39 409.697 13.23 408.465 13.23C407.401 13.23 406.659 12.418 406.659 11.228V6.762H405.609V11.368C405.609 13.034 406.715 14.168 408.325 14.168C409.361 14.168 410.285 13.622 410.705 12.852V14H411.755V6.762H410.705ZM417.615 6.594C416.579 6.594 415.655 7.14 415.235 7.91V6.762H414.185V14H415.235V9.394C415.235 8.372 416.243 7.532 417.475 7.532C418.539 7.532 419.281 8.344 419.281 9.534V14H420.331V9.394C420.331 7.728 419.225 6.594 417.615 6.594ZM425.393 12.936C425.239 13.104 424.959 13.23 424.637 13.23C424.217 13.23 423.853 12.852 423.853 12.32V7.7H425.631V6.762H423.853V4.774H422.803V6.762H421.669V7.7H422.803V12.32C422.803 13.398 423.531 14.168 424.567 14.168C425.057 14.168 425.533 14 425.911 13.706L425.393 12.936ZM427.951 5.446C428.329 5.446 428.637 5.124 428.637 4.746C428.637 4.382 428.329 4.06 427.951 4.06C427.559 4.06 427.251 4.382 427.251 4.746C427.251 5.124 427.559 5.446 427.951 5.446ZM427.419 14H428.469V6.762H427.419V14ZM438.732 6.594C437.584 6.594 436.688 7.294 436.464 8.316C436.1 7.266 435.204 6.594 434.056 6.594C433.104 6.594 432.32 7.07 431.956 7.826V6.762H430.906V14H431.956V9.394C431.956 8.302 432.768 7.532 433.916 7.532C434.896 7.532 435.582 8.358 435.582 9.534V14H436.632V9.394C436.632 8.302 437.444 7.532 438.592 7.532C439.572 7.532 440.258 8.358 440.258 9.534V14H441.308V9.394C441.308 7.756 440.244 6.594 438.732 6.594ZM446.631 13.23C445.203 13.23 444.209 12.194 444.055 10.78H449.977C449.977 8.246 448.731 6.594 446.547 6.594C444.601 6.594 442.977 8.204 442.977 10.36C442.977 12.586 444.713 14.168 446.645 14.168C447.653 14.168 448.927 13.734 449.557 13.048L448.913 12.362C448.465 12.852 447.485 13.23 446.631 13.23ZM446.589 7.532C448.031 7.532 448.801 8.54 448.941 9.842H444.069C444.265 8.442 445.301 7.532 446.589 7.532Z" fill="#0F0B47"/>
<rect x="242" width="20" height="20" rx="10" fill="#542AED"/>
<path d="M531.218 14H533.29V7.784L537.924 14H539.996V4.382H537.924V10.598L533.29 4.382H531.218V14ZM545.635 14.168C547.805 14.168 549.583 12.46 549.583 10.374C549.583 8.288 547.805 6.594 545.635 6.594C543.465 6.594 541.687 8.288 541.687 10.374C541.687 12.46 543.465 14.168 545.635 14.168ZM545.635 12.446C544.543 12.446 543.647 11.508 543.647 10.374C543.647 9.24 544.543 8.316 545.635 8.316C546.727 8.316 547.609 9.24 547.609 10.374C547.609 11.508 546.727 12.446 545.635 12.446ZM552.129 16.044C553.123 15.078 553.613 14.196 553.613 13.37C553.613 12.348 553.067 11.62 552.283 11.62C551.583 11.62 551.023 12.208 551.023 12.908C551.023 13.594 551.569 14.168 552.241 14.168C552.129 14.616 551.835 15.092 551.387 15.484L552.129 16.044ZM563.646 6.594C562.708 6.594 561.91 7 561.462 7.644V6.762H559.418V14H561.462V9.716C561.462 8.932 562.12 8.316 562.974 8.316C563.786 8.316 564.36 8.932 564.36 9.828V14H566.32V9.394C566.32 7.742 565.214 6.594 563.646 6.594ZM571.584 14.168C573.754 14.168 575.532 12.46 575.532 10.374C575.532 8.288 573.754 6.594 571.584 6.594C569.414 6.594 567.636 8.288 567.636 10.374C567.636 12.46 569.414 14.168 571.584 14.168ZM571.584 12.446C570.492 12.446 569.596 11.508 569.596 10.374C569.596 9.24 570.492 8.316 571.584 8.316C572.676 8.316 573.558 9.24 573.558 10.374C573.558 11.508 572.676 12.446 571.584 12.446ZM580.654 12.208C580.514 12.348 580.234 12.446 579.954 12.446C579.576 12.446 579.282 12.11 579.282 11.634V8.414H580.85V6.762H579.282V4.774H577.308V6.762H576.314V8.414H577.308V11.956C577.308 13.258 578.204 14.168 579.492 14.168C580.066 14.168 580.724 13.916 581.144 13.538L580.654 12.208ZM589.335 6.594C588.327 6.594 587.333 6.874 586.311 7.392L586.997 8.75C587.571 8.456 588.201 8.232 588.873 8.232C590.063 8.232 590.553 8.904 590.553 9.674V9.828C589.937 9.576 589.279 9.45 588.691 9.45C587.025 9.45 585.695 10.43 585.695 11.858C585.695 13.244 586.871 14.168 588.411 14.168C589.209 14.168 590.035 13.846 590.553 13.272V14H592.527V9.674C592.527 7.784 591.225 6.594 589.335 6.594ZM588.873 12.754C588.173 12.754 587.641 12.39 587.641 11.802C587.641 11.214 588.243 10.78 588.985 10.78C589.545 10.78 590.091 10.878 590.553 11.06V11.718C590.399 12.39 589.657 12.754 588.873 12.754ZM596.016 14H597.85L599.208 9.45L600.566 14H602.4L604.85 6.762H602.848L601.49 11.27L600.048 6.762H598.354L596.926 11.27L595.554 6.762H593.552L596.016 14ZM609.091 6.594C608.083 6.594 607.089 6.874 606.067 7.392L606.753 8.75C607.327 8.456 607.957 8.232 608.629 8.232C609.819 8.232 610.309 8.904 610.309 9.674V9.828C609.693 9.576 609.035 9.45 608.447 9.45C606.781 9.45 605.451 10.43 605.451 11.858C605.451 13.244 606.627 14.168 608.167 14.168C608.965 14.168 609.791 13.846 610.309 13.272V14H612.283V9.674C612.283 7.784 610.981 6.594 609.091 6.594ZM608.629 12.754C607.929 12.754 607.397 12.39 607.397 11.802C607.397 11.214 607.999 10.78 608.741 10.78C609.301 10.78 609.847 10.878 610.309 11.06V11.718C610.155 12.39 609.413 12.754 608.629 12.754ZM616.122 8.12V6.762H614.078V14H616.122V10.542C616.122 9.184 617.088 8.316 618.6 8.316V6.594C617.494 6.594 616.598 7.182 616.122 8.12ZM623.411 12.586C622.417 12.586 621.745 11.9 621.563 10.92H627.009C627.009 8.232 625.637 6.594 623.369 6.594C621.255 6.594 619.617 8.176 619.617 10.36C619.617 12.586 621.325 14.168 623.481 14.168C624.545 14.168 625.791 13.72 626.435 13.048L625.287 11.872C624.825 12.292 624.083 12.586 623.411 12.586ZM623.397 8.176C624.307 8.176 624.881 8.806 625.049 9.702H621.577C621.801 8.778 622.487 8.176 623.397 8.176Z" fill="#0F0B47"/>
<rect x="496" width="20" height="20" rx="10" fill="#EBEBEB"/>
</svg>
