<svg width="870" height="217" viewBox="0 0 870 217" fill="none" xmlns="http://www.w3.org/2000/svg">
<g clip-path="url(#clip0_4824_628)">
<path opacity="0.5" d="M254.178 216.547C254.178 199.797 250.89 183.211 244.504 167.737C238.117 152.262 228.756 138.202 216.954 126.358C205.153 114.514 191.143 105.119 175.724 98.7093C160.304 92.2995 143.778 89.0004 127.089 89.0004C110.399 89.0004 93.873 92.2995 78.4539 98.7093C63.0347 105.119 49.0245 114.514 37.2232 126.358C25.4219 138.202 16.0606 152.262 9.67377 167.737C3.28696 183.211 -0.000305176 199.797 -0.000305176 216.547L48.8019 216.547C48.8019 206.229 50.8268 196.012 54.7611 186.48C58.6954 176.947 64.462 168.286 71.7316 160.99C79.0012 153.695 87.6314 147.907 97.1296 143.959C106.628 140.01 116.808 137.978 127.089 137.978C137.369 137.978 147.55 140.01 157.048 143.959C166.546 147.907 175.176 153.695 182.446 160.99C189.715 168.286 195.482 176.947 199.416 186.48C203.351 196.012 205.376 206.229 205.376 216.547H254.178Z" fill="#D9D9D9"/>
<path d="M-0.000305176 216.547C-0.000305176 193.024 6.48116 169.96 18.7275 149.904C30.9739 129.848 48.508 113.581 69.3915 102.902L91.5472 146.542C78.683 153.12 67.882 163.14 60.3382 175.495C52.7945 187.849 48.8019 202.057 48.8019 216.547L-0.000305176 216.547Z" fill="#5C2CFF"/>
<path d="M103.307 214.067C109.747 214.067 113.907 210.627 113.907 205.867C113.907 202.227 111.147 200.107 108.147 199.427C111.187 198.547 113.307 196.267 113.307 193.107C113.307 188.747 109.427 185.587 103.267 185.587C98.3865 185.587 95.1065 187.707 92.8265 190.467L96.2265 194.067C98.0665 192.147 100.107 190.867 102.667 190.867C105.387 190.867 107.307 192.147 107.307 194.147C107.307 196.107 105.507 197.227 102.507 197.227L99.3465 197.187V202.227H102.507C106.187 202.187 107.867 203.267 107.867 205.387C107.867 207.347 106.067 208.747 103.067 208.747C100.307 208.747 97.7065 207.587 95.7465 205.507L92.2665 209.427C94.5865 212.107 98.3865 214.067 103.307 214.067ZM128.074 214.067C134.634 214.067 138.994 210.347 138.994 204.507C138.994 198.907 134.794 195.787 129.914 195.787C127.674 195.787 125.914 196.507 124.554 197.467L124.714 191.387H137.514V186.067H119.274L118.874 200.907L122.834 202.507C124.314 201.387 126.074 200.707 128.154 200.707C131.154 200.707 133.114 202.307 133.114 204.707C133.114 207.067 131.234 208.907 128.114 208.907C125.474 208.907 122.994 207.627 120.914 205.667L117.434 209.827C119.994 212.387 123.474 214.067 128.074 214.067ZM149.797 199.867C153.837 199.867 156.677 196.787 156.677 192.827C156.677 188.947 153.957 185.787 149.797 185.787C145.677 185.787 142.957 188.907 142.957 192.867C142.957 196.787 145.677 199.867 149.797 199.867ZM146.557 213.547H151.157L170.277 186.067H165.637L146.557 213.547ZM149.797 196.427C148.157 196.427 146.877 194.987 146.877 192.827C146.877 190.667 148.077 189.267 149.797 189.267C151.477 189.267 152.717 190.707 152.717 192.827C152.717 195.027 151.477 196.427 149.797 196.427ZM166.957 213.987C170.997 213.987 173.797 210.907 173.797 206.947C173.797 203.067 171.117 199.907 166.957 199.907C162.877 199.907 160.077 203.027 160.077 206.947C160.077 210.867 162.877 213.987 166.957 213.987ZM166.957 210.507C165.277 210.507 164.037 209.067 164.037 206.947C164.037 204.747 165.237 203.347 166.957 203.347C168.597 203.347 169.877 204.787 169.877 206.947C169.877 209.107 168.677 210.507 166.957 210.507Z" fill="#5C2CFF"/>
<path d="M82.5326 25H84.9006V21.432H87.4766C89.8766 21.432 91.6206 19.896 91.6206 17.72C91.6206 15.544 89.8766 14.008 87.4766 14.008H82.5326V25ZM84.9006 19.272V16.168H87.2366C88.4046 16.168 89.2046 16.776 89.2046 17.72C89.2046 18.664 88.4046 19.272 87.2366 19.272H84.9006ZM102.122 16.136V14.008H93.6576V25H102.122V22.872H96.0256V20.456H101.562V18.328H96.0256V16.136H102.122ZM113.496 17.72C113.496 15.544 111.752 14.008 109.352 14.008H104.408V25H106.776V21.432H108.2L110.712 25H113.4L110.76 21.24C112.408 20.76 113.496 19.448 113.496 17.72ZM106.776 16.168H109.112C110.28 16.168 111.08 16.776 111.08 17.72C111.08 18.664 110.28 19.272 109.112 19.272H106.776V16.168ZM119.737 25.192C122.409 25.192 124.009 23.8 124.009 21.704C124.009 19.672 122.441 18.968 120.073 18.44C118.377 18.056 117.705 17.8 117.705 17C117.705 16.344 118.329 15.816 119.321 15.816C120.377 15.816 121.481 16.248 122.473 17.048L123.705 15.336C122.569 14.376 121.193 13.816 119.401 13.816C116.985 13.816 115.321 15.208 115.321 17.24C115.321 19.368 116.985 20.024 119.305 20.552C120.985 20.936 121.625 21.176 121.625 21.96C121.625 22.648 121.017 23.192 119.817 23.192C118.425 23.192 117.241 22.648 116.201 21.752L114.857 23.368C116.137 24.552 117.817 25.192 119.737 25.192ZM131.311 25.192C134.479 25.192 137.135 22.584 137.135 19.496C137.135 16.408 134.479 13.816 131.311 13.816C128.143 13.816 125.455 16.408 125.455 19.496C125.455 22.584 128.143 25.192 131.311 25.192ZM131.311 23.048C129.455 23.048 127.887 21.416 127.887 19.496C127.887 17.592 129.455 15.96 131.311 15.96C133.151 15.96 134.719 17.592 134.719 19.496C134.719 21.416 133.151 23.048 131.311 23.048ZM139.283 25H141.651V17.896L146.947 25H149.315V14.008H146.947V21.112L141.651 14.008H139.283V25ZM160.047 25H162.703L158.223 14.008H155.583L151.103 25H153.743L154.511 23.112H159.279L160.047 25ZM155.263 21.272L156.895 17.256L158.527 21.272H155.263ZM166.869 22.872V14.008H164.501V25H172.341V22.872H166.869Z" fill="black"/>
<path opacity="0.5" d="M562.178 216.547C562.178 199.797 558.89 183.211 552.504 167.737C546.117 152.262 536.756 138.202 524.954 126.358C513.153 114.514 499.143 105.119 483.724 98.7093C468.304 92.2995 451.778 89.0004 435.089 89.0004C418.399 89.0004 401.873 92.2995 386.454 98.7093C371.035 105.119 357.025 114.514 345.223 126.358C333.422 138.202 324.061 152.262 317.674 167.737C311.287 183.211 308 199.797 308 216.547L356.802 216.547C356.802 206.229 358.827 196.012 362.761 186.48C366.695 176.947 372.462 168.286 379.732 160.99C387.001 153.695 395.631 147.907 405.13 143.959C414.628 140.01 424.808 137.978 435.089 137.978C445.369 137.978 455.55 140.01 465.048 143.959C474.546 147.907 483.176 153.695 490.446 160.99C497.715 168.286 503.482 176.947 507.416 186.48C511.351 196.012 513.376 206.229 513.376 216.547H562.178Z" fill="#D9D9D9"/>
<path d="M308 216.547C308 191.662 315.253 167.32 328.867 146.521C342.48 125.722 361.859 109.374 384.616 99.4905L403.997 144.44C389.979 150.528 378.042 160.598 369.656 173.411C361.27 186.223 356.802 201.217 356.802 216.547L308 216.547Z" fill="#5C2CFF"/>
<path d="M364.928 25.192C368.096 25.192 370.752 22.584 370.752 19.496C370.752 16.408 368.096 13.816 364.928 13.816C361.76 13.816 359.072 16.408 359.072 19.496C359.072 22.584 361.76 25.192 364.928 25.192ZM364.928 23.048C363.072 23.048 361.504 21.416 361.504 19.496C361.504 17.592 363.072 15.96 364.928 15.96C366.768 15.96 368.336 17.592 368.336 19.496C368.336 21.416 366.768 23.048 364.928 23.048ZM381.988 17.72C381.988 15.544 380.244 14.008 377.844 14.008H372.9V25H375.268V21.432H376.692L379.204 25H381.892L379.252 21.24C380.9 20.76 381.988 19.448 381.988 17.72ZM375.268 16.168H377.604C378.772 16.168 379.572 16.776 379.572 17.72C379.572 18.664 378.772 19.272 377.604 19.272H375.268V16.168ZM388.997 20.664H391.541V22.344C390.933 22.792 390.149 23.048 389.413 23.048C387.525 23.048 385.941 21.416 385.941 19.496C385.941 17.592 387.525 15.96 389.413 15.96C390.421 15.96 391.477 16.44 392.133 17.192L393.845 15.656C392.757 14.504 391.045 13.816 389.413 13.816C386.213 13.816 383.509 16.408 383.509 19.496C383.509 22.584 386.213 25.192 389.413 25.192C391.045 25.192 392.757 24.504 393.845 23.352V18.824H388.997V20.664ZM404.149 25H406.805L402.325 14.008H399.685L395.205 25H397.845L398.613 23.112H403.381L404.149 25ZM399.365 21.272L400.997 17.256L402.629 21.272H399.365ZM408.603 25H410.971V17.896L416.267 25H418.635V14.008H416.267V21.112L410.971 14.008H408.603V25ZM421.415 25H423.783V14.008H421.415V25ZM425.916 25H435.004V22.872H429.164L434.924 15.8V14.008H426.028V16.136H431.692L425.916 23.208V25ZM445.086 25H447.742L443.262 14.008H440.622L436.142 25H438.782L439.55 23.112H444.318L445.086 25ZM440.302 21.272L441.934 17.256L443.566 21.272H440.302ZM452.084 25H454.436V16.136H457.876V14.008H448.66V16.136H452.084V25ZM459.759 25H462.127V14.008H459.759V25ZM470.115 25.192C473.283 25.192 475.939 22.584 475.939 19.496C475.939 16.408 473.283 13.816 470.115 13.816C466.947 13.816 464.259 16.408 464.259 19.496C464.259 22.584 466.947 25.192 470.115 25.192ZM470.115 23.048C468.259 23.048 466.691 21.416 466.691 19.496C466.691 17.592 468.259 15.96 470.115 15.96C471.955 15.96 473.523 17.592 473.523 19.496C473.523 21.416 471.955 23.048 470.115 23.048ZM478.087 25H480.455V17.896L485.751 25H488.119V14.008H485.751V21.112L480.455 14.008H478.087V25ZM498.852 25H501.508L497.028 14.008H494.388L489.908 25H492.548L493.316 23.112H498.084L498.852 25ZM494.068 21.272L495.7 17.256L497.332 21.272H494.068ZM505.674 22.872V14.008H503.306V25H511.146V22.872H505.674Z" fill="black"/>
<path d="M415.322 214.067C421.762 214.067 425.922 210.627 425.922 205.867C425.922 202.227 423.162 200.107 420.162 199.427C423.202 198.547 425.322 196.267 425.322 193.107C425.322 188.747 421.442 185.587 415.282 185.587C410.402 185.587 407.122 187.707 404.842 190.467L408.242 194.067C410.082 192.147 412.122 190.867 414.682 190.867C417.402 190.867 419.322 192.147 419.322 194.147C419.322 196.107 417.522 197.227 414.522 197.227L411.362 197.187V202.227H414.522C418.202 202.187 419.882 203.267 419.882 205.387C419.882 207.347 418.082 208.747 415.082 208.747C412.322 208.747 409.722 207.587 407.762 205.507L404.282 209.427C406.602 212.107 410.402 214.067 415.322 214.067ZM431.73 213.547H438.37L449.49 190.507V186.067H429.05V191.387H442.65L431.73 213.547ZM459.781 199.867C463.821 199.867 466.661 196.787 466.661 192.827C466.661 188.947 463.941 185.787 459.781 185.787C455.661 185.787 452.941 188.907 452.941 192.867C452.941 196.787 455.661 199.867 459.781 199.867ZM456.541 213.547H461.141L480.261 186.067H475.621L456.541 213.547ZM459.781 196.427C458.141 196.427 456.861 194.987 456.861 192.827C456.861 190.667 458.061 189.267 459.781 189.267C461.461 189.267 462.701 190.707 462.701 192.827C462.701 195.027 461.461 196.427 459.781 196.427ZM476.941 213.987C480.981 213.987 483.781 210.907 483.781 206.947C483.781 203.067 481.101 199.907 476.941 199.907C472.861 199.907 470.061 203.027 470.061 206.947C470.061 210.867 472.861 213.987 476.941 213.987ZM476.941 210.507C475.261 210.507 474.021 209.067 474.021 206.947C474.021 204.747 475.221 203.347 476.941 203.347C478.581 203.347 479.861 204.787 479.861 206.947C479.861 209.107 478.661 210.507 476.941 210.507Z" fill="#5C2CFF"/>
<path d="M725.37 195.787C722.77 195.787 720.25 196.787 718.57 198.427C719.09 193.787 721.49 190.787 725.09 190.787C727.41 190.787 729.01 191.627 730.69 193.027L733.49 188.547C731.25 186.747 728.49 185.587 725.09 185.587C717.45 185.587 712.45 191.707 712.45 200.267C712.45 208.267 716.13 214.027 724.13 214.027C730.13 214.027 734.65 210.147 734.65 204.507C734.65 199.067 730.45 195.787 725.37 195.787ZM723.81 209.027C720.73 209.027 719.25 207.147 718.73 203.787C719.57 201.827 721.41 200.587 723.65 200.587C726.33 200.587 728.57 202.147 728.57 204.787C728.57 206.987 726.73 209.027 723.81 209.027ZM744.27 213.547H750.15V186.067H745.43L737.19 191.587L739.59 195.747L744.27 192.827V213.547ZM762.537 199.867C766.577 199.867 769.417 196.787 769.417 192.827C769.417 188.947 766.697 185.787 762.537 185.787C758.417 185.787 755.697 188.907 755.697 192.867C755.697 196.787 758.417 199.867 762.537 199.867ZM759.297 213.547H763.897L783.017 186.067H778.377L759.297 213.547ZM762.537 196.427C760.897 196.427 759.617 194.987 759.617 192.827C759.617 190.667 760.817 189.267 762.537 189.267C764.217 189.267 765.457 190.707 765.457 192.827C765.457 195.027 764.217 196.427 762.537 196.427ZM779.697 213.987C783.737 213.987 786.537 210.907 786.537 206.947C786.537 203.067 783.857 199.907 779.697 199.907C775.617 199.907 772.817 203.027 772.817 206.947C772.817 210.867 775.617 213.987 779.697 213.987ZM779.697 210.507C778.017 210.507 776.777 209.067 776.777 206.947C776.777 204.747 777.977 203.347 779.697 203.347C781.337 203.347 782.617 204.787 782.617 206.947C782.617 209.107 781.417 210.507 779.697 210.507Z" fill="#5C2CFF"/>
<path opacity="0.5" d="M870.18 216.547C870.18 199.797 866.892 183.211 860.506 167.737C854.119 152.262 844.757 138.202 832.956 126.358C821.155 114.514 807.145 105.119 791.726 98.7093C776.306 92.2995 759.78 89.0004 743.091 89.0004C726.401 89.0004 709.875 92.2995 694.456 98.7093C679.037 105.119 665.026 114.514 653.225 126.358C641.424 138.202 632.063 152.262 625.676 167.737C619.289 183.211 616.002 199.797 616.002 216.547L664.804 216.547C664.804 206.229 666.829 196.012 670.763 186.48C674.697 176.947 680.464 168.286 687.734 160.99C695.003 153.695 703.633 147.907 713.132 143.959C722.63 140.01 732.81 137.978 743.091 137.978C753.371 137.978 763.552 140.01 773.05 143.959C782.548 147.907 791.178 153.695 798.448 160.99C805.717 168.286 811.484 176.947 815.418 186.48C819.353 196.012 821.378 206.229 821.378 216.547H870.18Z" fill="#D9D9D9"/>
<path d="M616.002 216.547C616.002 196.08 620.909 175.914 630.31 157.751C639.711 139.589 653.329 123.963 670.014 112.195C686.699 100.426 705.96 92.8602 726.172 90.1356C746.384 87.411 766.953 89.608 786.141 96.5409L769.609 142.623C757.79 138.352 745.12 136.999 732.669 138.677C720.218 140.356 708.353 145.016 698.075 152.266C687.797 159.515 679.409 169.14 673.618 180.329C667.827 191.517 664.804 203.939 664.804 216.547L616.002 216.547Z" fill="#5C2CFF"/>
<path d="M684.134 15H686.502V11.432H689.078C691.478 11.432 693.222 9.896 693.222 7.72C693.222 5.544 691.478 4.008 689.078 4.008H684.134V15ZM686.502 9.272V6.168H688.838C690.006 6.168 690.806 6.776 690.806 7.72C690.806 8.664 690.006 9.272 688.838 9.272H686.502ZM703.723 6.136V4.008H695.259V15H703.723V12.872H697.627V10.456H703.163V8.328H697.627V6.136H703.723ZM715.097 7.72C715.097 5.544 713.353 4.008 710.953 4.008H706.009V15H708.377V11.432H709.801L712.313 15H715.001L712.361 11.24C714.009 10.76 715.097 9.448 715.097 7.72ZM708.377 6.168H710.713C711.881 6.168 712.681 6.776 712.681 7.72C712.681 8.664 711.881 9.272 710.713 9.272H708.377V6.168ZM721.339 15.192C724.011 15.192 725.611 13.8 725.611 11.704C725.611 9.672 724.043 8.968 721.675 8.44C719.979 8.056 719.307 7.8 719.307 7C719.307 6.344 719.931 5.816 720.923 5.816C721.979 5.816 723.083 6.248 724.075 7.048L725.307 5.336C724.171 4.376 722.795 3.816 721.003 3.816C718.587 3.816 716.923 5.208 716.923 7.24C716.923 9.368 718.587 10.024 720.907 10.552C722.587 10.936 723.227 11.176 723.227 11.96C723.227 12.648 722.619 13.192 721.419 13.192C720.027 13.192 718.843 12.648 717.803 11.752L716.459 13.368C717.739 14.552 719.419 15.192 721.339 15.192ZM732.912 15.192C736.08 15.192 738.736 12.584 738.736 9.496C738.736 6.408 736.08 3.816 732.912 3.816C729.744 3.816 727.056 6.408 727.056 9.496C727.056 12.584 729.744 15.192 732.912 15.192ZM732.912 13.048C731.056 13.048 729.488 11.416 729.488 9.496C729.488 7.592 731.056 5.96 732.912 5.96C734.752 5.96 736.32 7.592 736.32 9.496C736.32 11.416 734.752 13.048 732.912 13.048ZM740.884 15H743.252V7.896L748.548 15H750.916V4.008H748.548V11.112L743.252 4.008H740.884V15ZM761.649 15H764.305L759.825 4.008H757.185L752.705 15H755.345L756.113 13.112H760.881L761.649 15ZM756.865 11.272L758.497 7.256L760.129 11.272H756.865ZM768.471 12.872V4.008H766.103V15H773.943V12.872H768.471ZM785.412 15.192C788.58 15.192 791.236 12.584 791.236 9.496C791.236 6.408 788.58 3.816 785.412 3.816C782.244 3.816 779.556 6.408 779.556 9.496C779.556 12.584 782.244 15.192 785.412 15.192ZM785.412 13.048C783.556 13.048 781.988 11.416 781.988 9.496C781.988 7.592 783.556 5.96 785.412 5.96C787.252 5.96 788.82 7.592 788.82 9.496C788.82 11.416 787.252 13.048 785.412 13.048ZM802.472 7.72C802.472 5.544 800.728 4.008 798.328 4.008H793.384V15H795.752V11.432H797.176L799.688 15H802.376L799.736 11.24C801.384 10.76 802.472 9.448 802.472 7.72ZM795.752 6.168H798.088C799.256 6.168 800.056 6.776 800.056 7.72C800.056 8.664 799.256 9.272 798.088 9.272H795.752V6.168ZM672.928 35.192C676.096 35.192 678.752 32.584 678.752 29.496C678.752 26.408 676.096 23.816 672.928 23.816C669.76 23.816 667.072 26.408 667.072 29.496C667.072 32.584 669.76 35.192 672.928 35.192ZM672.928 33.048C671.072 33.048 669.504 31.416 669.504 29.496C669.504 27.592 671.072 25.96 672.928 25.96C674.768 25.96 676.336 27.592 676.336 29.496C676.336 31.416 674.768 33.048 672.928 33.048ZM689.988 27.72C689.988 25.544 688.244 24.008 685.844 24.008H680.9V35H683.268V31.432H684.692L687.204 35H689.892L687.252 31.24C688.9 30.76 689.988 29.448 689.988 27.72ZM683.268 26.168H685.604C686.772 26.168 687.572 26.776 687.572 27.72C687.572 28.664 686.772 29.272 685.604 29.272H683.268V26.168ZM696.997 30.664H699.541V32.344C698.933 32.792 698.149 33.048 697.413 33.048C695.525 33.048 693.941 31.416 693.941 29.496C693.941 27.592 695.525 25.96 697.413 25.96C698.421 25.96 699.477 26.44 700.133 27.192L701.845 25.656C700.757 24.504 699.045 23.816 697.413 23.816C694.213 23.816 691.509 26.408 691.509 29.496C691.509 32.584 694.213 35.192 697.413 35.192C699.045 35.192 700.757 34.504 701.845 33.352V28.824H696.997V30.664ZM712.149 35H714.805L710.325 24.008H707.685L703.205 35H705.845L706.613 33.112H711.381L712.149 35ZM707.365 31.272L708.997 27.256L710.629 31.272H707.365ZM716.603 35H718.971V27.896L724.267 35H726.635V24.008H724.267V31.112L718.971 24.008H716.603V35ZM729.415 35H731.783V24.008H729.415V35ZM733.916 35H743.004V32.872H737.164L742.924 25.8V24.008H734.028V26.136H739.692L733.916 33.208V35ZM753.086 35H755.742L751.262 24.008H748.622L744.142 35H746.782L747.55 33.112H752.318L753.086 35ZM748.302 31.272L749.934 27.256L751.566 31.272H748.302ZM760.084 35H762.436V26.136H765.876V24.008H756.66V26.136H760.084V35ZM767.759 35H770.127V24.008H767.759V35ZM778.115 35.192C781.283 35.192 783.939 32.584 783.939 29.496C783.939 26.408 781.283 23.816 778.115 23.816C774.947 23.816 772.259 26.408 772.259 29.496C772.259 32.584 774.947 35.192 778.115 35.192ZM778.115 33.048C776.259 33.048 774.691 31.416 774.691 29.496C774.691 27.592 776.259 25.96 778.115 25.96C779.955 25.96 781.523 27.592 781.523 29.496C781.523 31.416 779.955 33.048 778.115 33.048ZM786.087 35H788.455V27.896L793.751 35H796.119V24.008H793.751V31.112L788.455 24.008H786.087V35ZM806.852 35H809.508L805.028 24.008H802.388L797.908 35H800.548L801.316 33.112H806.084L806.852 35ZM802.068 31.272L803.7 27.256L805.332 31.272H802.068ZM813.674 32.872V24.008H811.306V35H819.146V32.872H813.674Z" fill="black"/>
</g>
<defs>
<clipPath id="clip0_4824_628">
<rect width="870" height="217" fill="white"/>
</clipPath>
</defs>
</svg>
