<?xml version="1.0" encoding="utf-8"?>
<svg viewBox="44.045 48.391 188.607 43.084" xmlns="http://www.w3.org/2000/svg">
  <g id="svg_1" transform="matrix(0.133333, 0, 0, -0.133333, 41.407406, 137.399597)" fill-rule="nonzero" fill="#2251aa">
    <path id="svg_2" d="m235.04248,471.28943c6.73001,14.453 10.51999,30.586 10.51999,47.617c0,39.22302 -20.03998,73.79303 -50.422,94.02802c18.117,18.63202 37.67502,37.03101 58.547,54.62897c-24.43399,-14.35596 -47.41498,-30.85999 -68.65298,-48.65295c-15.64401,8.242 -33.46899,12.87097 -52.375,12.87097c-62.332,0 -112.879,-50.52698 -112.879,-112.875c0,-28.164 10.321,-53.90601 27.35199,-73.69098c-21.60199,-46.71899 -25.39099,-84.31702 -6.336,-97.01199c20.39801,-13.61301 64.76599,11.05496 91.39401,51.23099c0,0 -41.19101,-37.14902 -63.77701,-28.63303c-13.94501,5.27304 -13.98401,26.543 -2.51199,57.07004c18.703,-13.75 41.789,-21.836 66.758,-21.836c30.92999,0 58.92599,12.422 79.336,32.55899l3.996,-7.55899c49.19901,3.98499 196.10199,7.85199 196.10199,7.85199c0,7.10901 -97.25397,0.68298 -177.05099,32.40198zm-201.69901,47.617c0,54.867 44.48401,99.30103 99.31601,99.30103c14.707,0 28.664,-3.18402 41.22299,-8.88702c-53.828,-47.578 -95.5,-102.89398 -120.168,-150.66797c-12.78099,16.71896 -20.371,37.578 -20.371,60.25397zm99.31601,-99.336c-23.19101,0 -44.51901,7.95001 -61.42599,21.30902c19.64899,44.375 59.72699,103.92603 114.36798,162.07397c27.89001,-17.59796 46.40601,-48.65198 46.40601,-84.047c0,-15.117 -3.39902,-29.453 -9.44501,-42.30396c-17.33301,8.02698 -33.51599,18.06598 -47.22699,30.742l29.97299,-56.19202c-18.14499,-19.414 -43.965,-31.58203 -72.64899,-31.58203"/>
    <path id="svg_3" d="m908.51953,529.27747l18.39001,24.41797l-64.07996,0.02002l15.79993,20.93701l64.07007,0l18.40991,24.414l-127.91003,0l-87.96204,-116.76099l127.90198,0l18.37994,24.43298l-64.01984,0l16.92993,22.539l64.0899,0"/>
    <path id="svg_4" d="m997.3595,599.06647l-87.96997,-116.76099l63.80994,0l87.97009,116.76099l-63.81006,0"/>
    <path id="svg_5" d="m1209.99951,599.06647l-44.58997,-59.18304l-13.69006,59.18304l-49.90002,0l-87.96997,-116.76099l42.21997,0l44.20007,58.65198l13.57996,-58.65198l50.43005,0l87.96997,116.76099l-42.25,0"/>
    <path id="svg_6" d="m1418.70947,599.06647l-102.57996,0.01996c-17.59009,0 -33.14001,-8.39795 -42.98999,-21.44495l-52.96008,-70.297c-2,-2.59802 -3.13,-5.87903 -3.13,-9.414c0,-8.61401 6.97009,-15.625 15.60999,-15.625l102.57007,0c17.55994,0 33.18994,8.41797 42.98999,21.44495l12.78003,16.89502l14.77991,0l18.54004,24.57001l-78.57996,0l-24.82007,-32.90997c-2.53992,-3.36005 -6.59998,-5.54706 -11.13,-5.54706l-18.06995,0c-2.29004,0 -4.09998,1.83606 -4.09998,4.043c0,0.93704 0.32996,1.77701 0.83997,2.44101l42.10999,55.84406c2.5,3.41797 6.54004,5.56598 11.10999,5.56598l18.09009,0c2.25989,0 4.03992,-1.836 4.03992,-4.06201c0,-0.89899 -0.28992,-1.758 -0.79993,-2.422l-6.84009,-9.10199l63.75,0l11.27002,14.98102c1.96997,2.59796 3.15002,5.85895 3.15002,9.39398c0,8.633 -7.02002,15.625 -15.63,15.625"/>
    <path id="svg_7" d="m780.87451,583.44147c0,8.633 -6.99207,15.625 -15.61707,15.625l-102.547,0c-17.58997,0 -33.164,-8.37799 -43,-21.42499l-52.97693,-70.297c-1.96399,-2.617 -3.13599,-5.87903 -3.13599,-9.414c0,-8.61401 7.00391,-15.625 15.62494,-15.625l102.55798,0c17.57806,0 33.18402,8.41797 43,21.44495l52.98907,70.27704c1.95288,2.61798 3.10498,5.87897 3.10498,9.414zm-71.32007,-15.27301l-42.07092,-55.86298c-2.55798,-3.36005 -6.60107,-5.54706 -11.16003,-5.54706l-18.078,0c-2.22595,0 -4.05103,1.83606 -4.05103,4.043c0,0.93704 0.31299,1.77701 0.82104,2.44101l42.07794,55.84399c2.539,3.35901 6.58209,5.56604 11.15204,5.56604l18.05902,0c2.23798,0 4.07001,-1.836 4.07001,-4.06201c0,-0.89899 -0.30103,-1.758 -0.82007,-2.422"/>
    <path id="svg_8" d="m539.63245,537.83246c12.57806,2.85199 23.49609,10.12097 31.01508,20.08197l12.14093,16.11304c1.96497,2.61798 3.14502,5.87897 3.14502,9.414c0,8.633 -6.99298,15.625 -15.61804,15.625l-129.42093,0l-87.97699,-116.76102l133.89496,0c17.58502,0 33.18301,8.418 43.01505,21.44498l12.414,16.46503c1.57098,2.08997 2.48798,4.70697 2.48798,7.51898c0,4.14099 -2,7.79303 -5.09705,10.09802zm-59.23795,-15.05902l-7.89099,-10.48798c-2.54706,-3.34003 -6.58203,-5.547 -11.16003,-5.547l-26.211,0l16.97198,22.539l25.05902,0c2.21503,0 4.06299,-1.81604 4.06299,-4.04303c0,-0.93701 -0.31299,-1.79602 -0.83197,-2.461zm34.19901,45.39502l-6.69901,-8.92603c-2.55902,-3.35901 -6.58203,-5.547 -11.16101,-5.547l-26.22198,0.02002l15.80096,20.93701l25.039,0c2.24606,0 4.05405,-1.836 4.05405,-4.06201c0,-0.89899 -0.29309,-1.758 -0.81201,-2.422"/>
  </g>
</svg>