<svg width="18" height="18" viewBox="0 0 18 18" fill="none" xmlns="http://www.w3.org/2000/svg">
<path id="Calendar (icon)" fill-rule="evenodd" clip-rule="evenodd" d="M13.0909 1.63636V1.23115C13.0909 0.551205 13.6357 0 14.3182 0C14.996 0 15.5455 0.546804 15.5455 1.23115V1.63636H16.3709C17.2706 1.63636 18 2.37126 18 3.2652V16.3712C18 17.2707 17.2721 18 16.3709 18H1.62913C0.729385 18 0 17.2651 0 16.3712V3.2652C0 2.36562 0.727915 1.63636 1.62913 1.63636H2.45455V1.23115C2.45455 0.551205 2.99929 0 3.68182 0C4.35962 0 4.90909 0.546804 4.90909 1.23115V1.63636H7.36364V1.23115C7.36364 0.551205 7.90838 0 8.59091 0C9.26871 0 9.81818 0.546804 9.81818 1.23115V1.63636H13.0909ZM1.63636 7.36364V16.3636H16.3636V7.36364H1.63636Z" fill="#23282D"/>
</svg>
