<svg xmlns="http://www.w3.org/2000/svg" xmlns:xlink="http://www.w3.org/1999/xlink" id="Layer_1" data-name="Layer 1" viewBox="0 0 934 426"><defs><style>.cls-1{fill:none}.cls-2{clip-path:url(#clip-path)}.cls-3{fill:#f16e39}.cls-4{clip-path:url(#clip-path-2)}.cls-5{fill:#3a576a}.cls-6{fill:#f4853b}.cls-7{fill:#f99d3e}.cls-8{fill:#f89c36}.cls-9{fill:#f4b064}.cls-10{fill:#ce583a}.cls-11{fill:#f16f46}.cls-12{clip-path:url(#clip-path-3)}.cls-13{opacity:.3}.cls-14{fill:#b9babb}.cls-15{fill:#434343}.cls-16{fill:#9a9a9a}.cls-17{fill:url(#linear-gradient)}.cls-18{fill:url(#linear-gradient-2)}.cls-19{fill:url(#linear-gradient-3)}.cls-20{fill:url(#linear-gradient-4)}.cls-21{fill:#fff}.cls-22{fill:#2c256c}.cls-23{fill:#5b2d82}.cls-24{fill:url(#linear-gradient-5)}.cls-25{fill:url(#linear-gradient-6)}.cls-26{fill:url(#linear-gradient-7)}.cls-27{fill:url(#linear-gradient-8)}.cls-28{fill:url(#linear-gradient-9)}.cls-29{fill:#623393}</style><clipPath id="clip-path"><path class="cls-1" d="M1026.995 541.757H2007.9209999999998V973H1026.995z"/></clipPath><clipPath id="clip-path-2"><path class="cls-1" d="M592.151 227.729H657.817V301.42900000000003H592.151z"/></clipPath><clipPath id="clip-path-3"><path class="cls-1" d="M-25.005 -14.243H955.921V417H-25.005z"/></clipPath><linearGradient id="linear-gradient" x1="6451.263" y1="15357.63" x2="6616.051" y2="15357.63" gradientTransform="scale(1 -1) rotate(45.001 22189.455 258.248)" gradientUnits="userSpaceOnUse"><stop offset="0" stop-color="#623393"/><stop offset=".574" stop-color="#452b7c"/><stop offset="1" stop-color="#2c256c"/></linearGradient><linearGradient id="linear-gradient-2" x1="6451.263" y1="15335.236" x2="6616.051" y2="15335.236" xlink:href="#linear-gradient"/><linearGradient id="linear-gradient-3" x1="6451.263" y1="15366.504" x2="6616.051" y2="15366.504" gradientTransform="scale(1 -1) rotate(45.001 22189.455 258.248)" gradientUnits="userSpaceOnUse"><stop offset="0" stop-color="#754fa0"/><stop offset=".181" stop-color="#6e4a99"/><stop offset=".457" stop-color="#5c3f8b"/><stop offset=".791" stop-color="#413079"/><stop offset="1" stop-color="#2c256c"/></linearGradient><linearGradient id="linear-gradient-4" x1="6451.341" y1="15288.199" x2="6616.129" y2="15288.199" xlink:href="#linear-gradient-3"/><linearGradient id="linear-gradient-5" x1="6451.263" y1="15327.044" x2="6616.051" y2="15327.044" xlink:href="#linear-gradient"/><linearGradient id="linear-gradient-6" x1="6435.641" y1="15327.044" x2="6633.545" y2="15327.044" xlink:href="#linear-gradient-3"/><linearGradient id="linear-gradient-7" x1="6435.641" y1="15306.815" x2="6633.545" y2="15306.815" xlink:href="#linear-gradient"/><linearGradient id="linear-gradient-8" x1="6484.723" y1="15322.312" x2="6485.866" y2="15322.312" xlink:href="#linear-gradient"/><linearGradient id="linear-gradient-9" x1="6435.641" y1="15346.751" x2="6633.545" y2="15346.751" xlink:href="#linear-gradient"/></defs><g class="cls-2"><path class="cls-3" d="M609.641 289.287L607.036 298.034 606.895 298.667 606.847 298.667 606.698 298.009 604.109 289.287 601.577 289.287 605.638 301.256 608.104 301.256 612.173 289.287 609.641 289.287z"/><path class="cls-3" d="M613.275 301.256h2.4v-8.895h-2.4zm0-11.024h2.4v-1.8h-2.4z"/><g class="cls-4"><path class="cls-3" d="M620.525 290.183v2.179h1.504v1.685h-1.504v4.529a1.035 1.035 0 0 0 .218.74.765.765 0 0 0 .571.222 2.245 2.245 0 0 0 .33-.021 2.588 2.588 0 0 0 .32-.07l.197 1.735a4.885 4.885 0 0 1-.703.185 4.2 4.2 0 0 1-.744.062 2.556 2.556 0 0 1-1.91-.683 2.99 2.99 0 0 1-.67-2.162v-4.537h-1.3v-1.685h1.3v-2.179zm6.84 11.246a4 4 0 0 1-3.108-1.221 4.476 4.476 0 0 1-1.118-3.144v-.33a4.873 4.873 0 0 1 1.085-3.271 3.692 3.692 0 0 1 2.984-1.266 3.452 3.452 0 0 1 2.75 1.098 4.34 4.34 0 0 1 .958 2.955v1.24h-5.303l-.024.05a2.402 2.402 0 0 0 .554 1.48 1.857 1.857 0 0 0 1.476.568 4.926 4.926 0 0 0 1.37-.165 5.54 5.54 0 0 0 1.162-.501l.65 1.479a4.452 4.452 0 0 1-1.447.732 6.432 6.432 0 0 1-1.99.296m-.156-7.382a1.333 1.333 0 0 0-1.114.498 2.487 2.487 0 0 0-.472 1.319l.016.04h2.926v-.18a2.076 2.076 0 0 0-.32-1.23 1.185 1.185 0 0 0-1.036-.447m9.914 4.743a.83.83 0 0 0-.382-.678 3.88 3.88 0 0 0-1.418-.497 5.664 5.664 0 0 1-2.372-.946 2.064 2.064 0 0 1-.81-1.718 2.452 2.452 0 0 1 .97-1.948 3.913 3.913 0 0 1 2.582-.806 4.221 4.221 0 0 1 2.7.806 2.351 2.351 0 0 1 .974 2.006l-.016.049h-2.318a1.16 1.16 0 0 0-.346-.871 1.612 1.612 0 0 0-1.907-.05.895.895 0 0 0-.337.707.8.8 0 0 0 .35.67 3.902 3.902 0 0 0 1.417.465 5.769 5.769 0 0 1 2.438.966 2.117 2.117 0 0 1 .801 1.755 2.345 2.345 0 0 1-1.027 1.964 4.435 4.435 0 0 1-2.713.765 4.123 4.123 0 0 1-2.807-.9 2.52 2.52 0 0 1-.983-2.051l.017-.05h2.195a1.246 1.246 0 0 0 .468 1.036 1.934 1.934 0 0 0 1.16.32 1.652 1.652 0 0 0 1.015-.266.868.868 0 0 0 .35-.728m8.68 0a.83.83 0 0 0-.382-.678 3.88 3.88 0 0 0-1.418-.497 5.664 5.664 0 0 1-2.372-.946 2.064 2.064 0 0 1-.81-1.718 2.452 2.452 0 0 1 .97-1.948 3.913 3.913 0 0 1 2.582-.806 4.221 4.221 0 0 1 2.7.806 2.351 2.351 0 0 1 .974 2.006l-.016.049h-2.318a1.16 1.16 0 0 0-.346-.871 1.612 1.612 0 0 0-1.907-.05.895.895 0 0 0-.337.707.8.8 0 0 0 .35.67 3.902 3.902 0 0 0 1.417.465 5.769 5.769 0 0 1 2.438.966 2.117 2.117 0 0 1 .801 1.755 2.345 2.345 0 0 1-1.027 1.964 4.435 4.435 0 0 1-2.713.765 4.12 4.12 0 0 1-2.807-.9 2.52 2.52 0 0 1-.983-2.051l.017-.05h2.195a1.246 1.246 0 0 0 .468 1.036 1.934 1.934 0 0 0 1.16.32 1.652 1.652 0 0 0 1.015-.266.868.868 0 0 0 .35-.728"/><path class="cls-5" d="M629.266 264.321L629.272 264.289 631.376 251.969 629.266 264.321z"/><path class="cls-5" d="M644.465 251.939L637.635 264.282 624.725 287.669 624.725 287.67 637.638 264.279 644.468 251.938 651.929 238.404 644.465 251.939z"/><path class="cls-5" d="M644.699 227.73L642.507 231.736 644.7 227.73 644.699 227.73z"/><path class="cls-5" d="M603.572 248.823l8.372-8.985z"/><path class="cls-5" d="M605.354 252.077L605.354 252.077 614.6 244.732 605.354 252.077z"/><path class="cls-5" d="M605.354 252.077L604.734 250.946 605.353 252.077 611.931 264.153 612.999 266.122 611.93 264.15 605.354 252.077z"/><path class="cls-5" d="M607.661 247.794L611.945 239.838 614.6 244.733 619.75 254.232 614.604 244.732 611.946 239.834 605.325 227.731 605.324 227.731 611.945 239.838 607.661 247.794z"/><path class="cls-5" d="M626.932 267.454L626.962 267.51 628.202 269.789 626.932 267.454z"/><path class="cls-5" d="M635.683 244.165L631.374 251.966 626.58 260.793 631.376 251.969 635.683 244.165z"/><path class="cls-3" d="M618.502 276.274L624.724 287.672 628.148 270.068 618.502 276.274z"/><path class="cls-6" d="M628.202 269.789L626.963 267.51 622.712 259.697 618.502 276.274 628.148 270.068 628.202 269.789z"/><path class="cls-7" d="M611.93 264.151L612.999 266.123 618.502 276.274 622.712 259.697 611.93 264.151z"/><path class="cls-3" d="M611.93 264.151L622.712 259.697 619.749 254.232 614.6 244.733 611.93 264.151z"/><path class="cls-8" d="M629.266 264.321L631.376 251.969 626.581 260.793 624.946 263.802 626.932 267.455 628.202 269.79 629.266 264.321z"/><path class="cls-7" d="M605.354 252.077L611.93 264.15 614.6 244.732 605.354 252.077z"/><path class="cls-6" d="M637.636 264.282L644.466 251.939 629.272 264.289 637.636 264.282z"/><path class="cls-9" d="M611.944 239.838L607.66 247.794 605.354 252.077 614.6 244.733 611.944 239.838z"/><path class="cls-9" d="M629.272 264.289L638.028 239.918 635.683 244.165 631.376 251.969 629.272 264.289z"/><path class="cls-10" d="M605.354 252.077L607.661 247.793 611.944 239.838 603.572 248.823 603.57 248.825 604.734 250.946 605.354 252.077z"/><path class="cls-11" d="M644.465 251.939L638.027 239.918 629.272 264.289 644.465 251.939z"/><path class="cls-11" d="M603.572 248.823L611.944 239.838 605.323 227.73 605.323 227.729 603.57 248.825 603.572 248.823z"/><path class="cls-7" d="M644.465 251.939L644.7 227.73 644.7 227.728 644.699 227.73 642.506 231.736 638.027 239.918 644.465 251.939z"/><path class="cls-7" d="M605.322 227.729L592.15 227.729 603.57 248.825 605.322 227.729z"/><path class="cls-10" d="M644.7 227.729L644.7 227.73 644.465 251.94 651.929 238.404 657.816 227.729 644.7 227.729z"/><path class="cls-10" d="M629.272 264.289L629.266 264.321 628.202 269.789 628.148 270.069 624.724 287.672 624.725 287.67 637.636 264.282 629.272 264.289z"/></g></g><g class="cls-12"><g class="cls-12"><g class="cls-13"><g class="cls-12"><path class="cls-14" d="M920.258 413.037H10.659V13.495h909.599zM22.547 401.15h885.822V25.383H22.547z"/></g></g></g></g><path class="cls-15" d="M306.543 299.554a33.875 33.875 0 0 1 24.072 9.205 1.31 1.31 0 0 1 .13 1.802l-1.61 1.673c-.58.58-1.094.515-1.673-.128a31.146 31.146 0 1 0-20.92 54.388c8.497 0 14.998-3.347 20.92-8.303a1.218 1.218 0 0 1 1.609-.193l1.673 1.674a1.098 1.098 0 0 1 0 1.673 34.198 34.198 0 0 1-24.201 9.59 35.691 35.691 0 1 1 0-71.38zm53.101 29.737c11.136 0 19.954 9.398 19.954 20.726 0 11.586-8.818 20.919-19.954 20.919-11.2 0-19.953-9.333-19.953-20.92.064-11.327 8.754-20.725 19.953-20.725zm0 37.59c8.754 0 15.577-7.467 15.577-16.864 0-9.14-6.823-16.542-15.577-16.542-8.818 0-15.64 7.466-15.64 16.542 0 9.397 6.822 16.864 15.64 16.864zm32.054-35.273a1.291 1.291 0 0 1 1.288-1.287h1.158a1.136 1.136 0 0 1 1.159 1.094l.386 4.055a15.106 15.106 0 0 1 12.423-6.114 15.495 15.495 0 0 1 6.114 1.222c.901.322 1.416.966 1.094 1.803l-.772 1.995c-.322.708-.901.772-1.61.515a12.806 12.806 0 0 0-5.148-1.159 13.863 13.863 0 0 0-11.78 6.823v28.257a1.155 1.155 0 0 1-1.287 1.287h-1.995a1.14 1.14 0 0 1-1.094-1.287v-37.204zm48.468-2.317c10.427 0 17.958 7.66 17.958 18.151 0 1.61 0 3.862-1.48 3.862H425.04c.386 8.496 6.565 15.641 15.447 15.641a20.979 20.979 0 0 0 11.715-3.669c.901-.58 1.287-.708 1.802 0l.966 1.416c.321.386.193.966-.387 1.61-1.995 1.995-8.238 4.634-14.353 4.634-12.1 0-19.503-9.333-19.503-20.92-.064-11.327 7.338-20.725 19.439-20.725zm13.58 18.473c0-7.724-4.634-14.482-13.58-14.482-8.754 0-14.547 6.372-15.062 14.482z"/><path class="cls-16" d="M471.19 301.871a1.272 1.272 0 0 1 1.158-1.287h21.048a34.726 34.726 0 1 1 0 69.45h-21.048a1.272 1.272 0 0 1-1.158-1.287zm21.433 63.787c17.38 0 30.703-13.195 30.703-30.51 0-17.12-13.388-30.316-30.703-30.316h-16.735v60.89h16.735zm51.75-64.816a1.381 1.381 0 0 1 1.48-1.288h1.674l47.566 61.984h.129v-59.667a1.291 1.291 0 0 1 1.287-1.287h1.996a1.291 1.291 0 0 1 1.287 1.287v67.842c0 .9-.772 1.287-1.61 1.287h-1.287c-.128 0-.9-.322-47.952-62.563h-.129v60.246a1.291 1.291 0 0 1-1.287 1.287h-1.866a1.291 1.291 0 0 1-1.288-1.287v-67.841zm72.283 59.86l.9-1.223c.709-.773 1.417-1.095 2.19-.387.965.902 8.302 7.66 18.343 7.66 9.012 0 16.671-6.05 16.671-13.26 0-8.817-7.209-12.808-19.245-16.863-11.522-4.055-19.117-8.11-19.117-19.503 0-7.466 5.922-17.572 21.434-17.572a32.597 32.597 0 0 1 17.057 5.085 1.398 1.398 0 0 1 .386 2.06 6.818 6.818 0 0 0-.772 1.287 1.463 1.463 0 0 1-2.189.515c-.322-.193-6.951-4.634-14.546-4.634-12.166 0-16.735 7.53-16.735 13.195 0 8.432 6.436 12.1 16.477 15.383 13.581 4.634 22.206 9.397 22.206 20.919 0 9.912-10.234 17.636-21.627 17.636a32.835 32.835 0 0 1-21.047-8.11c-.708-.58-1.223-1.094-.386-2.188z"/><path class="cls-17" d="M416.157 161.04a20.788 20.788 0 0 0-3.926 5.342 23.772 23.772 0 0 1 3.926-5.342z"/><path class="cls-18" d="M483.097 113.667a11.796 11.796 0 0 1 8.368 3.476l6.887 6.887-6.887-6.887a11.796 11.796 0 0 0-8.368-3.476z"/><path class="cls-19" d="M416.157 121.97a19.521 19.521 0 0 1 27.613 0l5.729 5.729 17.893-17.894a22.182 22.182 0 0 1 31.41 0l6.888 6.887 17.185-17.186-37.46-37.396a27.737 27.737 0 0 0-39.2 0l-77.302 77.303a27.904 27.904 0 0 0-4.12 33.92l.258-.257 51.106-51.106z"/><path class="cls-20" d="M517.082 189.232a19.521 19.521 0 0 1-27.613 0l-6.822-6.823-22.528 22.528a22.182 22.182 0 0 1-31.41 0l-5.793-5.793-16.735 16.735 34.435 34.436a27.738 27.738 0 0 0 39.199 0l77.303-77.303a27.82 27.82 0 0 0 6.114-29.93l-2.51 2.51-43.64 43.64z"/><path class="cls-21" d="M452.781 197.664a11.888 11.888 0 0 1-16.735-.065l-5.793-5.792-6.694-6.694a11.796 11.796 0 0 1-3.475-8.368 12.948 12.948 0 0 1 .836-4.441 11.86 11.86 0 0 1 2.575-3.927l33.341-33.34 17.894-17.894a11.908 11.908 0 0 1 6.115-3.283 13.31 13.31 0 0 1 2.252-.193 11.796 11.796 0 0 1 8.368 3.476l6.887 6.887 7.338-7.338-6.887-6.887a22.182 22.182 0 0 0-31.41 0l-17.894 17.893-33.342 33.342a20.788 20.788 0 0 0-3.926 5.342 18.774 18.774 0 0 0-.901 1.995 22.155 22.155 0 0 0 4.827 24.009l6.694 6.694 5.793 5.793a22.182 22.182 0 0 0 31.41 0l22.528-22.528-7.337-7.338-22.464 22.657z"/><path class="cls-22" d="M560.722 145.592l2.51-2.51a26.21 26.21 0 0 0-3.733-6.501 84.218 84.218 0 0 1 1.223 9.011z"/><path class="cls-23" d="M365.051 173.076l-.257.258c.128.257.321.515.45.772-.064-.322-.129-.708-.193-1.03z"/><path class="cls-24" d="M475.116 147.266l23.236-23.236-6.887-6.887a11.796 11.796 0 0 0-8.368-3.476 12.76 12.76 0 0 0-2.252.193 11.908 11.908 0 0 0-6.115 3.283l-17.894 17.893 1.288 1.287a19.58 19.58 0 0 1 0 27.613l-27.935 27.935 5.793 5.793a11.796 11.796 0 0 0 8.367 3.475 12.948 12.948 0 0 0 4.442-.836 11.86 11.86 0 0 0 3.926-2.575l22.528-22.528-.193-.193a19.677 19.677 0 0 1 .064-27.741z"/><path class="cls-25" d="M475.116 147.266l23.236-23.236-6.887-6.887a11.796 11.796 0 0 0-8.368-3.476 12.76 12.76 0 0 0-2.252.193 11.908 11.908 0 0 0-6.115 3.283l-17.894 17.893 1.288 1.287a19.58 19.58 0 0 1 0 27.613l-27.935 27.935 5.793 5.793a11.796 11.796 0 0 0 8.367 3.475 12.948 12.948 0 0 0 4.442-.836 11.86 11.86 0 0 0 3.926-2.575l22.528-22.528-.193-.193a19.677 19.677 0 0 1 .064-27.741z"/><path class="cls-21" d="M452.781 197.664a11.86 11.86 0 0 1-3.926 2.574 11.86 11.86 0 0 0 3.926-2.574z"/><path class="cls-26" d="M452.781 197.664a11.86 11.86 0 0 1-3.926 2.574 11.86 11.86 0 0 0 3.926-2.574z"/><path class="cls-21" d="M430.189 191.87l5.793 5.794z"/><path class="cls-27" d="M430.189 191.87l5.793 5.794z"/><path class="cls-21" d="M474.73 117.143a11.908 11.908 0 0 1 6.115-3.283 12.399 12.399 0 0 0-6.115 3.283z"/><path class="cls-28" d="M474.73 117.143a11.908 11.908 0 0 1 6.115-3.283 12.399 12.399 0 0 0-6.115 3.283z"/><path class="cls-22" d="M368.913 178.612a30.361 30.361 0 0 1-3.669-4.506 4.8 4.8 0 0 1-.45-.772l-7.338 7.337a19.463 19.463 0 0 0 0 27.613l14.353 14.354a19.442 19.442 0 0 0 22.721 3.54 19.707 19.707 0 0 0 4.892-3.54l4.57-4.57 1.61-1.61.579-.579-37.268-37.267z"/><path class="cls-23" d="M416.157 192.45a20.788 20.788 0 0 1-3.926-5.342 22.292 22.292 0 0 1-.901-18.666c.257-.644.58-1.352.9-1.996a22.41 22.41 0 0 1 3.927-5.342l33.342-33.341-5.729-5.729a19.521 19.521 0 0 0-27.613 0l-51.106 51.106c.064.322.129.709.193 1.03a26.78 26.78 0 0 0 3.669 4.506l37.268 37.268 16.735-16.735-6.759-6.759z"/><path class="cls-23" d="M411.33 168.377a22.292 22.292 0 0 0 .9 18.666 22.27 22.27 0 0 1-.9-18.666zm18.859 23.494l27.934-27.935a19.58 19.58 0 0 0 0-27.613l-1.287-1.287-33.341 33.341a11.888 11.888 0 0 0 .064 16.735l6.63 6.759z"/><path class="cls-23" d="M423.495 185.112a11.796 11.796 0 0 1-3.476-8.367 11.688 11.688 0 0 0 3.476 8.367l6.694 6.694zm0-16.735a11.86 11.86 0 0 0-2.575 3.927 11.86 11.86 0 0 1 2.575-3.927z"/><path class="cls-22" d="M498.352 124.03l-23.236 23.236a19.463 19.463 0 0 0 0 27.612l.193.193 28.643-28.642a11.908 11.908 0 0 0 3.282-6.115 13.31 13.31 0 0 0 .193-2.253 11.796 11.796 0 0 0-3.475-8.367l-5.6-5.664z"/><path class="cls-22" d="M504.016 146.429a11.908 11.908 0 0 0 3.283-6.115 12.934 12.934 0 0 1-3.283 6.115z"/><path class="cls-29" d="M504.016 129.694a11.796 11.796 0 0 1 3.476 8.367 12.072 12.072 0 0 0-3.476-8.367l-5.664-5.664z"/><path class="cls-29" d="M516.181 146.429a19.347 19.347 0 0 0 .708-2.06 22.087 22.087 0 0 0-5.6-22.013l-5.664-5.664-7.337 7.338 5.664 5.664a11.796 11.796 0 0 1 3.475 8.367 12.764 12.764 0 0 1-.193 2.253 11.908 11.908 0 0 1-3.282 6.115l-28.643 28.642 7.338 7.338 28.642-28.643a22.55 22.55 0 0 0 4.892-7.337zm59.603-43.511L561.43 88.564a19.558 19.558 0 0 0-26.197-1.287 13.445 13.445 0 0 0-1.416 1.287l-9.268 9.269-1.61 1.609-.064.064 34.243 34.243a19.833 19.833 0 0 1 2.381 2.832 28.396 28.396 0 0 1 3.733 6.5l12.552-12.55a19.58 19.58 0 0 0 0-27.613z"/><path class="cls-22" d="M511.29 122.356a22.264 22.264 0 0 1 5.6 22.013c-.194.708-.451 1.352-.709 2.06a21.893 21.893 0 0 1-4.892 7.337l-28.642 28.643 6.823 6.823a19.463 19.463 0 0 0 27.612 0l43.64-43.64a84.218 84.218 0 0 0-1.223-9.011 32.636 32.636 0 0 0-2.381-2.832l-34.243-34.243-17.185 17.186 5.6 5.664z"/><path class="cls-22" d="M511.29 122.356a22.264 22.264 0 0 1 5.6 22.013 22.087 22.087 0 0 0-5.6-22.013l-5.665-5.664z"/></svg>