<svg xmlns="http://www.w3.org/2000/svg" id="Layer_1" data-name="Layer 1" viewBox="0 0 1098 384"><defs><style>.cls-1{fill:none}.cls-2{clip-path:url(#clip-path)}.cls-3{fill:#0078c4}</style><clipPath id="clip-path"><path class="cls-1" d="M40.889 41H1057.017V335H40.889z"/></clipPath></defs><g class="cls-2"><path class="cls-3" d="M1042.159 329.126a12.504 12.504 0 1 1 12.51-12.514 12.498 12.498 0 0 1-12.51 12.514m0-27.298a14.828 14.828 0 1 0 .063 0zm-2.8 13.677v-4.746h2.745c1.562 0 3.322.45 3.322 2.282 0 2.013-1.958 2.464-3.647 2.464zm9.053-2.409c0-3.571-3.057-4.884-6.182-4.884h-5.857v16.67h2.986v-6.965h2.151l3.916 6.965h3.65l-4.512-7.293a4.43 4.43 0 0 0 3.848-4.493zm-93.518-211.35a30.373 30.373 0 1 0-30.367-30.379v.012a30.37 30.37 0 0 0 30.363 30.367zm-81.487 26.222v44.542h56.356v156.625h50.261V172.51h56.352v-44.542zM434.865 101.75a30.373 30.373 0 1 0-30.37-30.375v.008a30.363 30.363 0 0 0 30.362 30.363h.008zm-81.482 70.76h56.352v156.625h50.257V172.51h56.356v-44.542h-162.96zm434.551 156.625H838.2V128.09h-50.265zm-101.716-90.473c0 26.804-15.093 54.45-46.903 54.45-32.262 0-37.708-29.726-37.708-53.607V128.09h-50.26v125.648c0 41.062 21.772 81.261 74.137 81.261 29.73 0 53.607-18.003 62.403-38.119h.842v32.254h47.75V128.09h-50.261zm-432.586-116.44c-29.73 0-53.61 18.01-62.399 38.114h-.842v-32.245h-47.738v201.044h50.25V218.563c0-26.812 15.092-54.454 46.91-54.454 32.25 0 37.7 29.739 37.7 53.611v111.415h50.261V203.478c0-41.038-21.769-81.257-74.138-81.257zM40.89 128.09H91.15v201.044H40.89z"/></g></svg>