<svg viewBox="0 0 934 426" xmlns="http://www.w3.org/2000/svg" xmlns:xlink="http://www.w3.org/1999/xlink"><clipPath id="a"><path d="m-25.00467-14.24311h980.92572v431.24311h-980.92572z"/></clipPath><clipPath id="b"><path d="m330.3673 55.07707h278.81139v312.92293h-278.81139z"/></clipPath><g clip-path="url(#a)"><g clip-path="url(#a)"><g clip-path="url(#a)" opacity=".3"><path d="m920.25781 413.03735h-909.59863v-399.54187h909.59863zm-897.71093-11.88794h885.82226v-375.76599h-885.82226z" fill="#b9babb"/></g></g></g><path d="m404.63 316.447-11.06 37.139-.599 2.687h-.204l-.632-2.794-10.993-37.032h-10.751l17.243 50.819h10.47l17.277-50.819z" fill="#f16e39"/><path d="m420.05773 367.26546h10.19017v-37.7673h-10.19017zm0-46.80682h10.19017v-7.64264h-10.19017z" fill="#f16e39"/><g clip-path="url(#b)"><path d="m450.84348 320.25187v9.25181h6.38583v7.15432h-6.38583v19.22969a4.39656 4.39656 0 0 0 .9256 3.142 3.24641 3.24641 0 0 0 2.42441.94258 9.5323 9.5323 0 0 0 1.39691-.08916 10.98889 10.98889 0 0 0 1.35869-.29721l.84068 7.36663a20.741 20.741 0 0 1 -2.98487.7855 17.83238 17.83238 0 0 1 -3.15895.26325q-5.27343 0-8.11391-2.9-2.84689-2.89782-2.84477-9.17964v-19.26364h-5.51542v-7.15435h5.51542v-9.25181z" fill="#f16e39"/><path d="m479.8812 367.99915q-8.44509 0-13.192-5.18424-4.7448-5.18425-4.74691-13.34912v-1.3969q0-8.48331 4.6068-13.89259 4.611-5.40716 12.66977-5.37531 7.61078 0 11.67623 4.662 4.06331 4.662 4.06756 12.54664v5.26916h-22.516l-.10191.2123a10.19858 10.19858 0 0 0 2.35223 6.27969q2.11447 2.41379 6.267 2.41167a20.9162 20.9162 0 0 0 5.81264-.70058 23.52169 23.52169 0 0 0 4.938-2.12719l2.75984 6.27969a18.901 18.901 0 0 1 -6.14382 3.108 27.30875 27.30875 0 0 1 -8.44935 1.25679m-.66235-31.34324a5.65816 5.65816 0 0 0 -4.72994 2.11446 10.56089 10.56089 0 0 0 -2.00407 5.60034l.06793.17408h12.42352v-.76851a8.81292 8.81292 0 0 0 -1.35869-5.21821 5.03342 5.03342 0 0 0 -4.39875-1.90216" fill="#f16e39"/><path d="m521.31229 356.79549a3.52231 3.52231 0 0 0 -1.62195-2.87872q-1.62405-1.20372-6.02069-2.11021-6.63635-1.3311-10.07127-4.01663a8.76157 8.76157 0 0 1 -3.43918-7.29446 10.40947 10.40947 0 0 1 4.11853-8.271q4.12063-3.42007 10.96292-3.42219 7.1522 0 11.46392 3.42219a9.98209 9.98209 0 0 1 4.13552 8.51728l-.06795.20805h-9.842a4.92519 4.92519 0 0 0 -1.46908-3.69818 6.84283 6.84283 0 0 0 -8.09694-.2123 3.79976 3.79976 0 0 0 -1.43086 3.00185 3.4 3.4 0 0 0 1.48181 2.84476q1.48393 1.10181 6.02069 1.97434 6.94842 1.39478 10.35151 4.10154a8.98989 8.98989 0 0 1 3.401 7.45156 9.95826 9.95826 0 0 1 -4.36053 8.339q-4.36268 3.24811-11.51913 3.24811-7.54074 0-11.91825-3.82131-4.38177-3.82131-4.17372-8.70834l.07218-.2123h9.31976a5.29159 5.29159 0 0 0 1.98707 4.39876 8.21227 8.21227 0 0 0 4.921 1.36293 7.01275 7.01275 0 0 0 4.31383-1.13365 3.686 3.686 0 0 0 1.48184-3.091" fill="#f16e39"/><path d="m558.17054 356.79549a3.52235 3.52235 0 0 0 -1.622-2.87872q-1.624-1.20372-6.02068-2.11021-6.63635-1.3311-10.07127-4.01663a8.76158 8.76158 0 0 1 -3.43919-7.29446 10.4095 10.4095 0 0 1 4.11853-8.271q4.12065-3.42007 10.96292-3.42219 7.15218 0 11.46393 3.42219a9.98207 9.98207 0 0 1 4.1355 8.51728l-.06793.20805h-9.842a4.92512 4.92512 0 0 0 -1.46909-3.69818 6.8428 6.8428 0 0 0 -8.09692-.2123 3.79976 3.79976 0 0 0 -1.43086 3.00185 3.4 3.4 0 0 0 1.48181 2.84476q1.48391 1.10181 6.02069 1.97434 6.94839 1.39478 10.35149 4.10154a8.98985 8.98985 0 0 1 3.401 7.45156 9.95825 9.95825 0 0 1 -4.36055 8.339q-4.36264 3.24811-11.51912 3.24811-7.54072 0-11.91824-3.82131-4.38177-3.82131-4.17373-8.70834l.07219-.2123h9.31976a5.29159 5.29159 0 0 0 1.98707 4.39876 8.21223 8.21223 0 0 0 4.921 1.36293 7.01275 7.01275 0 0 0 4.31383-1.13365 3.68606 3.68606 0 0 0 1.48185-3.091" fill="#f16e39"/><g fill="#3a576a"><path d="m487.954 210.443.026-.136 8.933-52.31z"/><path d="m552.49 157.872-29 52.408-54.814 99.299v.004l54.827-99.316 29-52.399 31.678-57.464z"/><path d="m553.481 55.084-9.308 17.009 9.312-17.009z"/><path d="m378.86016 144.64223 35.54669-38.14941z"/><path d="m386.427 158.459 39.258-31.186z"/><path d="m386.427 158.459-2.632-4.802 2.628 4.802 27.93 51.274 4.534 8.36-4.539-8.373z"/><path d="m396.22 140.271 18.19-33.78 11.273 20.783 21.866 40.332-21.849-40.336-11.286-20.796-28.112-51.388h-.004l28.112 51.405z"/><path d="m478.046 223.748.127.238 5.265 9.676z"/><path d="m515.202 124.863-18.295 33.122-20.355 37.479 20.363-37.466z"/></g><path d="m442.251 261.195 26.418 48.395 14.538-74.745z" fill="#f16e39"/><path d="m483.438 233.661-5.261-9.676-18.049-33.173-17.876 70.384 40.956-26.35z" fill="#f4853b"/><path d="m414.349 209.721 4.539 8.373 23.365 43.1 17.875-70.384z" fill="#f99d3e"/><path d="m414.349 209.721 45.779-18.911-12.58-23.204-21.862-40.332z" fill="#f16e39"/><path d="m487.954 210.443 8.959-52.446-20.359 37.466-6.942 12.776 8.432 15.51 5.393 9.914z" fill="#f89c36"/><path d="m386.427 158.459 27.921 51.261 11.337-82.447z" fill="#f99d3e"/><path d="m523.492 210.278 28.999-52.407-64.512 52.437z" fill="#f4853b"/><path d="m414.409 106.492-18.19 33.78-9.791 18.186 39.258-31.182z" fill="#f4b064"/><path d="m487.98 210.308 37.177-103.477-9.956 18.032-18.287 33.135z" fill="#f4b064"/><path d="m386.427 158.459 9.796-18.189 18.185-33.776-35.547 38.149-.008.009 4.942 9.005z" fill="#ce583a"/><path d="m552.49 157.872-27.335-51.04-37.173 103.477z" fill="#f16f46"/><path d="m378.86 144.642 35.547-38.149-28.112-51.41v-.004l-7.443 89.572z" fill="#f16f46"/><path d="m552.49 157.873.998-102.789v-.009l-.005.009-9.311 17.009-19.017 34.74z" fill="#f99d3e"/><path d="m386.293 55.077h-55.927l48.488 89.572z" fill="#f99d3e"/><path d="m553.488 55.077v.004l-.998 102.794 31.692-57.473 24.995-45.325z" fill="#ce583a"/><path d="m487.98 210.308-.025.136-4.518 23.216-.229 1.189-14.538 74.741.004-.009 54.819-99.303z" fill="#ce583a"/></g></svg>