<svg xmlns="http://www.w3.org/2000/svg" id="Layer_1" data-name="Layer 1" viewBox="0 0 1098 384"><defs><style>.cls-1{fill:none}.cls-2{clip-path:url(#clip-path)}.cls-3{fill:#f36738}.cls-4{fill:#525355}</style><clipPath id="clip-path"><path class="cls-1" d="M43.573 46.256H1049V337.15999999999997H43.573z"/></clipPath></defs><g class="cls-2"><path class="cls-3" d="M253.13 273.166c61.382-1.922 110.057-50.77 110.773-111.42V109.6h67.542v57.66c-1.32 93.782-82.847 167.773-178.315 169.902v-.016c-97.037-.603-179.195-75.122-180.53-169.901V63.595c-.145-10.598 6.759-17.474 17.184-17.33l274.092-.011v63.315l-214.937.063c-5.514 0-8.829 3.353-8.829 8.82v42.238a113.833 113.833 0 0 0 113.004 112.476h.016"/><path class="cls-4" d="M714.481 107a17.113 17.113 0 1 1 17.114 17.114A17.106 17.106 0 0 1 714.48 107M518.717 293.525V94.693h68.109c62.015 0 95.381 43.83 95.381 99.412 0 56.53-34.48 99.417-95.64 99.417h-67.85m63.025-23.673c47.88 0 73.737-25.16 73.737-75.654 0-51.888-27.336-75.826-72.696-75.826h-37.338v151.48zm136.445-116.146h26.729v139.819h-26.729zM985.747 107a17.111 17.111 0 1 1 17.114 17.114A17.106 17.106 0 0 1 985.747 107m-194.54 186.525V94.693h68.11c62.02 0 95.385 43.83 95.385 99.412 0 56.53-34.485 99.417-95.64 99.417h-67.854m63.025-23.673c47.88 0 73.74-25.16 73.74-75.654 0-51.888-27.338-75.826-72.695-75.826H817.94v151.48zM989.45 153.703h26.728v139.819H989.45z"/></g></svg>