<svg xmlns="http://www.w3.org/2000/svg" id="Layer_1" data-name="Layer 1" viewBox="0 0 612 91"><defs><style>.cls-1{fill:#fff}</style></defs><path class="cls-1" d="M56.07 74.349h-9.897a40.245 40.245 0 0 1-.49-4.625c-2.533 4.56-6.903 5.726-11.507 5.726-11.692 0-17.048-8.767-17.048-30.03 0-23.217 8.011-30.718 20.798-30.718 16.558 0 17.884 13.092 18.027 17.66H42.477c-.143-2.856-.542-7.052-4.99-7.052-5.019 0-6.241 6.565-6.241 20.203 0 14.09 1.2 19.356 6.043 19.356 4.088 0 5.31-3.427 5.31-9.743v-3.75h-5.761V40.804H56.07zM77.283 50.37V74.35H63.995V15.748h19.79c11.304 0 17.064 5.615 17.064 16.228 0 8.112-3.99 11.909-7.519 13.307 4.583 2.047 6.748 5.814 6.748 14.243v2.038a91.51 91.51 0 0 0 .628 12.785H87.643c-.684-2.264-.92-7.477-.92-13.206v-2.018c0-6.93-1.395-8.755-6.54-8.755zm.03-10.083h3.12c5.034 0 6.976-1.82 6.976-7.547 0-4.829-1.703-6.94-6.122-6.94h-3.974zm69.043 4.389c0 21.475-5.86 30.774-20.425 30.774-13.58 0-19.605-9.456-19.605-31.07 0-20.763 6.7-29.708 20.156-29.708 13.814 0 19.874 9.616 19.874 30.004zm-25.968-.291c0 14.465 1.304 20.484 5.925 20.484 4.877 0 5.982-5.6 5.982-20.484 0-13.91-1.162-19.075-5.982-19.075-4.642 0-5.925 5.417-5.925 19.075zm38.833 29.964l-9.705-58.601h14.186c1.248 10.895 3.15 29.786 3.804 40.256h.33c1.636-11.452 4.27-27.912 6.13-40.256h11.377c1.656 10.712 4.316 28.13 5.782 39.832h.417c.936-11.507 3.181-30.865 4.117-39.832h13.105l-10.46 58.6h-13.542c-1.712-10.298-4.182-23.284-5.617-35.02h-.357c-1.461 11.549-4.191 24.966-5.904 35.02zm64.854-47.585H212.52V15.748h36.487v11.016H237.51v47.585h-13.436zm30.116-11.016h13.467V37.9h10.153V15.748h13.526v58.6H277.81V49.226h-10.153v25.124h-13.467zm74.206 0v58.6h-13.465v-58.6zm9.006 58.6v-58.6h14.733c8.908 27.62 10.977 34.26 11.58 36.936h.24c-.583-7.373-.766-17.032-.766-26.176v-10.76h11.891v58.6h-14.518c-9.254-30.46-10.993-36.363-11.652-38.896h-.27c.464 7.05.709 17.905.709 27.491V74.35zm97.928-18.366c-.169 6.065-2.339 19.468-18.66 19.468-16.19 0-19.583-11.793-19.583-30.493 0-21.205 6.728-30.255 20.13-30.255 15.636 0 17.944 11.962 18.113 18.95h-13.415c-.112-3.276-.2-8.342-4.902-8.342-4.617 0-5.808 5.353-5.808 19.694 0 12.589.706 19.952 5.639 19.952 4.59 0 4.877-5.458 5.046-8.974zm5.762-40.234h13.466V37.9h10.152V15.748h13.526v58.6h-13.526V49.226h-10.152v25.124h-13.466zm59.454 0v58.6H487.08v-58.6zm9.006 58.6v-58.6h14.732c8.908 27.62 10.978 34.26 11.58 36.936h.24c-.583-7.373-.765-17.032-.765-26.176v-10.76h11.89v58.6h-14.517c-9.255-30.46-10.993-36.363-11.652-38.896h-.27c.464 7.05.708 17.905.708 27.491V74.35zM567.5 61.806l-1.994 12.544H552.04l11.56-58.601h18.924l11.708 58.6h-13.986l-2.055-12.543zm8.908-11.325c-1.33-8.55-2.612-18.087-3.353-23.474h-.444c-.572 5.619-2.004 14.92-3.39 23.474z"/></svg>