<svg xmlns="http://www.w3.org/2000/svg" id="Layer_1" data-name="Layer 1" viewBox="0 0 645 91"><defs><style>.cls-1{fill:#fff}</style></defs><path class="cls-1" d="M53.134 49.162H35.391v13.965h20.086L53.906 74H22.19V15.4h31.75v11.015H35.392v11.788h17.743zm44.858 6.472c-.17 6.064-2.339 19.468-18.66 19.468-16.19 0-19.583-11.793-19.583-30.494 0-21.205 6.728-30.254 20.13-30.254 15.636 0 17.944 11.961 18.113 18.95H84.577c-.113-3.277-.2-8.343-4.903-8.343-4.616 0-5.807 5.353-5.807 19.694 0 12.59.706 19.952 5.638 19.952 4.591 0 4.877-5.458 5.046-8.973zm44.737-11.307c0 21.476-5.86 30.775-20.425 30.775-13.58 0-19.605-9.456-19.605-31.07 0-20.763 6.7-29.709 20.156-29.709 13.814 0 19.874 9.616 19.874 30.004zm-25.968-.29c0 14.464 1.304 20.484 5.925 20.484 4.877 0 5.982-5.6 5.982-20.485 0-13.909-1.162-19.075-5.982-19.075-4.642 0-5.925 5.417-5.925 19.075zm43.804 12.997c.338 4.813 1.708 8.124 5.73 8.124 3.911 0 5.164-2.632 5.164-5.962 0-4.055-2.039-6.44-8.932-9.972-10.178-5.256-14.023-9.69-14.023-18.303 0-10.024 6.127-16.598 17.736-16.598 13.654 0 17.562 8.532 17.674 17.531h-12.962c-.225-4.08-.971-7.587-4.794-7.587-2.996 0-4.335 1.942-4.335 5.211 0 3.357 1.309 5.087 7.681 8.273 10.862 5.469 15.473 10.094 15.473 19.946 0 9.687-5.662 17.405-18.815 17.405-14.25 0-18.598-8.12-18.884-18.068zM199.605 74V54.979a7.136 7.136 0 0 0-.464-2.697L185.395 15.4h14.858c2.424 8.842 5.123 19.024 6.555 26.224 1.62-6.636 4.533-17.602 6.7-26.224h13.922l-13.95 37.026a7.08 7.08 0 0 0-.378 2.326V74zm41.916-16.966c.338 4.813 1.708 8.124 5.731 8.124 3.91 0 5.163-2.632 5.163-5.962 0-4.055-2.038-6.44-8.932-9.972-10.178-5.256-14.023-9.69-14.023-18.303 0-10.024 6.127-16.598 17.736-16.598 13.655 0 17.562 8.532 17.675 17.531h-12.963c-.224-4.08-.97-7.587-4.794-7.587-2.996 0-4.335 1.942-4.335 5.211 0 3.357 1.309 5.087 7.682 8.273 10.861 5.469 15.473 10.094 15.473 19.946 0 9.687-5.663 17.405-18.816 17.405-14.25 0-18.598-8.12-18.884-18.068zm38.712-30.619h-11.555V15.399h36.486v11.016H293.67V74h-13.437zm61.062 22.747h-17.743v13.965h20.086L342.066 74h-31.715V15.4h31.75v11.015h-18.55v11.788h17.744zm43.276 6.067c0-9.105.143-21.225.317-28.298h-.383c-1.722 12.22-4.163 32.03-6.802 47.069h-10.88c-2.05-15.642-4.487-35.361-6.096-47.212h-.439c.286 6.886.547 18.73.547 28.882V74h-11.846V15.4h18.954c1.93 12.232 3.85 26.94 4.734 35.156h.27c1.123-8.727 3.328-21.454 5.53-35.157h18.765V74h-12.67zm44.037-28.814h-11.555V15.399h36.486v11.016h-11.494V74h-13.437zm67.36 17.912c0 21.476-5.86 30.775-20.425 30.775-13.58 0-19.605-9.456-19.605-31.07 0-20.763 6.702-29.709 20.157-29.709 13.813 0 19.874 9.616 19.874 30.004zM470 44.037c0 14.464 1.305 20.484 5.926 20.484 4.876 0 5.981-5.6 5.981-20.485 0-13.91-1.16-19.075-5.981-19.075-4.643 0-5.926 5.417-5.926 19.075zm71.955.29c0 21.476-5.861 30.775-20.426 30.775-13.579 0-19.604-9.456-19.604-31.07 0-20.763 6.701-29.709 20.156-29.709 13.814 0 19.874 9.616 19.874 30.004zm-25.969-.29c0 14.464 1.305 20.484 5.926 20.484 4.876 0 5.982-5.6 5.982-20.485 0-13.909-1.162-19.075-5.982-19.075-4.642 0-5.926 5.417-5.926 19.075zm33.155-28.638h13.465v47.663h18.592L579.944 74h-30.803zm48.394 41.635c.338 4.813 1.707 8.124 5.73 8.124 3.91 0 5.163-2.632 5.163-5.962 0-4.055-2.038-6.44-8.93-9.972-10.18-5.256-14.024-9.69-14.024-18.303 0-10.024 6.126-16.598 17.735-16.598 13.654 0 17.562 8.532 17.675 17.531h-12.962c-.226-4.08-.972-7.587-4.795-7.587-2.995 0-4.335 1.942-4.335 5.211 0 3.357 1.309 5.087 7.682 8.273 10.86 5.469 15.472 10.094 15.472 19.946 0 9.687-5.662 17.405-18.814 17.405-14.25 0-18.599-8.12-18.885-18.068z"/></svg>