<svg width="145" height="8" fill="none" xmlns="http://www.w3.org/2000/svg"><path fill-rule="evenodd" clip-rule="evenodd" d="M11.151 7.94c.31 0 .483-.138.518-.448l.207-1.105c0-.091.01-.182.019-.268.008-.077.016-.15.016-.215 0-.656-.311-1.07-.863-1.278.828-.241 1.242-.794 1.38-1.795l.104-.518c.035-.138.035-.31.035-.449 0-1.07-.76-1.484-2.037-1.484H1.623c-.311 0-.484.138-.518.449L.035 7.526c-.07.311.069.45.38.45h1.104c.31 0 .483-.139.518-.45l.31-2.002h6.664c.552 0 .828.207.828.656v.173l-.172 1.139c-.07.31.069.449.38.449h1.104zM9.632 3.695H2.624l.241-1.588h7.009c.345 0 .552.138.552.414v.138l-.069.484c-.069.38-.31.552-.725.552zM16.088.345c-1.692 0-2.382.829-2.624 2.279l-.483 3.072c-.034.173-.034.346-.034.518 0 1.105.655 1.761 1.933 1.761h7.768c1.691 0 2.382-.829 2.623-2.279l.484-3.072c.034-.173.034-.345.034-.518 0-1.105-.656-1.76-1.933-1.76h-7.768zm-.656 2.59c.07-.518.415-.795.932-.795h6.629c.449 0 .69.208.69.622v.172l-.38 2.417c-.068.518-.414.794-.931.794h-6.629c-.449 0-.69-.207-.69-.621V5.35l.38-2.417z" fill="#A7A9C1"/><path d="M26.86 2.624c.241-1.45.932-2.279 2.623-2.279h8.804c.31 0 .449.138.38.449l-.139.863c-.034.31-.241.449-.517.449h-8.252c-.517 0-.863.276-.932.794l-.38 2.417v.172c0 .415.242.622.691.622h8.217c.31 0 .449.138.38.449l-.139.863c-.034.31-.207.448-.517.448h-8.804c-1.277 0-1.933-.656-1.933-1.76 0-.173 0-.346.034-.518l.483-2.97zM41.36 3.245h4.142L49.231.621c.31-.207.483-.276.863-.276h1.83c.242 0 .31.345.069.518l-4.695 3.28 3.728 3.28c.207.172.07.517-.172.517h-1.692c-.38 0-.552-.069-.794-.276l-2.9-2.624h-4.385l-.38 2.452c-.034.31-.207.448-.517.448H39.08c-.31 0-.449-.138-.38-.448l1.07-6.698c.035-.31.208-.449.518-.449h1.105c.31 0 .449.138.38.449l-.414 2.451zM53.822 7.94c-1.277 0-1.933-.655-1.933-1.76 0-.173 0-.345.035-.518l.483-3.073c.242-1.45.932-2.278 2.624-2.278h9.01c.311 0 .45.138.38.449l-.138.863c-.034.31-.242.449-.518.449h-8.458c-.518 0-.863.276-.932.794l-.07.38h8.148c.311 0 .45.137.38.448l-.103.76c-.035.31-.207.448-.518.448h-8.148l-.069.38v.173c0 .414.242.621.69.621h8.459c.31 0 .449.138.38.45l-.138.862c-.035.31-.208.449-.518.449h-9.046v.104zM70.946 7.492c-.034.31-.207.449-.518.449h-1.104c-.311 0-.45-.138-.38-.45l.863-5.35H65.25c-.31 0-.414-.139-.38-.45l.138-.862c.035-.311.207-.45.518-.45h11.117c.31 0 .448.139.38.45l-.139.863c-.034.31-.241.449-.517.449h-4.558l-.863 5.35zM77.437 2.624c.242-1.45.932-2.279 2.624-2.279h8.941c.311 0 .45.138.38.449l-.138.863c-.034.31-.242.449-.518.449h-8.39c-.517 0-.862.276-.931.794l-.38 2.417v.172c0 .415.242.622.69.622h6.63c.413 0 .655-.173.724-.553l.104-.656h-2.728c-.31 0-.448-.138-.38-.448l.104-.76c.07-.31.242-.449.518-.449h4.315c.311 0 .45.138.38.449l-.345 2.244c-.242 1.416-1.001 1.933-2.658 1.933h-7.492c-1.277 0-1.933-.656-1.933-1.76 0-.173 0-.346.034-.518l.449-2.97zM91.971 7.94c-1.277 0-1.933-.655-1.933-1.76 0-.173 0-.345.035-.518l.483-3.073c.242-1.45.932-2.278 2.624-2.278h9.01c.311 0 .449.138.38.449l-.138.863c-.034.31-.242.449-.518.449h-8.458c-.518 0-.863.276-.932.794l-.07.38h8.148c.311 0 .449.137.38.448l-.103.76c-.035.31-.208.448-.518.448h-8.182l-.07.38v.173c0 .414.242.621.691.621h8.458c.311 0 .449.138.38.45l-.138.862c-.035.31-.207.449-.518.449h-9.01v.104zM106.195 2.14c-.518 0-.863.277-.932.794l-.725 4.558c-.034.31-.207.448-.518.448h-1.105c-.31 0-.448-.138-.379-.448l.759-4.868c.242-1.45.932-2.279 2.624-2.279h7.423c1.277 0 1.933.656 1.933 1.76 0 .174 0 .346-.035.519l-.759 4.868c-.035.31-.207.448-.518.448h-1.105c-.31 0-.448-.138-.379-.448l.725-4.558v-.172c0-.414-.242-.622-.691-.622h-6.318zM117.761 7.492c-.035.31-.207.448-.518.448h-1.105c-.311 0-.449-.138-.38-.448l1.071-6.698c.034-.31.207-.449.517-.449h1.105c.311 0 .449.138.38.449l-1.07 6.698zM120.143.794c.034-.31.207-.449.518-.449h1.104c.311 0 .449.138.38.449l-.725 4.557v.173c0 .414.242.621.691.621h6.283c.518 0 .863-.276.932-.794l.725-4.557c.035-.31.207-.449.518-.449h1.105c.31 0 .449.138.379.449l-.759 4.868c-.242 1.45-.932 2.278-2.624 2.278h-7.422c-1.278 0-1.934-.655-1.934-1.76 0-.173 0-.345.035-.518l.794-4.868zM132.813 2.279c.242-1.416 1.001-1.934 2.659-1.934h8.838c.31 0 .448.138.379.449l-.138.863c-.034.31-.241.449-.518.449h-8.561c-.415 0-.622.138-.691.518l-.034.103v.138c0 .311.172.415.552.415h6.939c1.278 0 2.106.414 2.106 1.519 0 .138 0 .276-.034.449l-.104.76c-.242 1.415-1.001 1.932-2.658 1.932h-8.976c-.311 0-.449-.138-.38-.448l.138-.863c.034-.311.207-.45.518-.45h8.665c.414 0 .656-.172.725-.552v-.069-.103c0-.311-.172-.415-.552-.415h-6.939c-1.278 0-2.106-.414-2.106-1.484 0-.138.034-.276.034-.449l.138-.828z" fill="#A7A9C1"/></svg>